ply
format ascii 1.0
element vertex 1024
property float x
property float y
property float z
end_header
44.7653 35.4222 43.8105
44.7653 -2.4565 14.0752
44.7653 19.6094 -64.1014
44.7653 37.3548 -36.3461
44.7653 -15.6329 -21.5236
44.7653 36.1231 52.0278
44.7653 21.5624 -41.7866
44.7653 35.2431 15.7151
44.7653 10.1324 58.6752
44.7653 21.8280 -44.8272
44.7653 11.3741 -47.7701
44.7653 -15.3231 -29.0859
44.7653 19.8378 -59.1981
44.7653 14.5926 15.9551
44.7653 35.6029 -6.9565
44.7653 -9.5639 -30.8091
44.7653 -6.3953 -64.2910
44.7653 44.3165 55.4182
44.7653 5.8135 -69.0068
44.7653 -24.0356 37.5588
44.7653 -36.4964 -29.2966
44.7653 34.8432 -50.0594
44.7653 27.3287 -25.8021
44.7653 40.8476 -30.3814
44.7653 37.3285 -36.4676
44.7653 1.7085 19.0361
44.7653 -12.4662 -37.1601
44.7653 28.1296 -54.0212
44.7653 -20.3927 -1.8135
44.7653 38.6064 -23.6547
44.7653 -34.5931 -4.9260
44.7653 29.9640 58.6114
44.7653 13.9714 9.9501
44.7653 -14.3725 -43.3490
44.7653 -30.1976 -36.9393
44.7653 44.6119 57.6712
44.7653 32.0048 0.2612
44.7653 21.6360 -19.3114
44.7653 -41.2068 -20.4906
44.7653 -42.7345 6.4544
44.7653 10.3425 -17.1652
44.7653 -30.8337 21.3369
44.7653 27.9063 13.4244
44.7653 -29.8037 -27.0428
44.7653 8.7748 30.9560
44.7653 -25.6366 -28.8300
44.7653 4.8756 64.3027
44.7653 -35.6736 -47.3149
44.7653 -27.3340 20.8739
44.7653 28.6672 32.3872
44.7653 -11.7645 14.1209
44.7653 -25.2028 -35.9277
44.7653 31.1723 5.0537
44.7653 6.7847 53.9268
44.7653 -44.8431 -32.6527
44.7653 6.5361 -30.3441
44.7653 -17.3978 -38.0409
44.7653 -4.3291 52.3301
44.7653 -14.8981 72.5486
44.7653 -46.0452 -72.9143
44.7653 30.5587 39.4244
44.7653 -27.8909 37.1305
44.7653 34.0205 58.4372
44.7653 46.5004 18.8044
44.7653 -18.3797 32.1052
44.7653 -37.7664 -40.2632
44.7653 35.7547 68.7635
44.7653 7.5410 53.2236
44.7653 -29.2383 -45.2600
44.7653 31.5950 -29.7950
44.7653 -1.2121 -28.9921
44.7653 21.6134 16.1242
44.7653 -23.1203 30.2279
44.7653 -48.1349 30.2617
44.7653 -7.2923 52.1417
44.7653 33.4758 -45.1465
44.7653 -38.1748 -71.5194
44.7653 27.0590 13.3663
44.7653 -36.5635 -55.6744
44.7653 -12.6081 -1.0861
44.7653 -15.7774 -0.8122
44.7653 31.7706 29.8618
44.7653 -14.6613 39.8995
44.7653 -11.4049 48.8063
44.7653 -32.7719 -68.3573
44.7653 6.0279 -9.0027
44.7653 -47.3220 61.0446
44.7653 -2.7975 -49.8377
44.7653 11.4523 73.6325
44.7653 21.4239 -49.2260
44.7653 23.6225 25.0661
44.7653 20.3021 -65.6775
44.7653 -14.7268 -50.1392
44.7653 25.9525 53.7316
44.7653 30.3822 -56.2498
44.7653 10.5104 -47.7892
44.7653 -44.4779 72.3686
44.7653 9.0640 22.5858
44.7653 6.2875 -23.3051
44.7653 -27.5850 52.2508
44.7653 35.3236 -36.7792
44.7653 -3.4563 51.4021
44.7653 -39.0930 -69.4694
44.7653 41.5437 71.6973
44.7653 -37.1003 73.4549
44.7653 -36.6532 -24.8543
44.7653 -46.1489 63.2827
44.7653 -48.6325 0.7255
44.7653 -39.3120 -1.2129
44.7653 -29.6466 -22.5707
44.7653 16.3339 -37.1049
44.7653 -2.6185 59.2498
44.7653 16.6167 20.1424
44.7653 19.6975 -62.9107
44.7653 -33.8742 -26.8630
44.7653 20.0932 -16.8919
44.7653 -47.2542 48.6771
44.7653 24.8467 -40.6775
44.7653 22.0953 -61.0531
44.7653 35.7877 66.9810
44.7653 37.8585 24.8429
44.7653 14.6778 72.9583
44.7653 -48.7650 48.8627
44.7653 -20.8058 19.8805
44.7653 -35.1527 -51.1930
44.7653 -32.2064 37.6706
44.7653 -28.4890 -68.3171
44.7653 12.3762 10.4798
44.7653 18.5999 34.2114
44.7653 40.3937 -16.1088
44.7653 -46.2666 -66.0953
44.7653 23.9084 -23.1713
44.7653 30.6026 -6.8823
44.7653 -6.2560 24.2829
44.7653 18.0026 -37.0418
44.7653 -28.3767 9.8076
44.7653 29.6669 73.7114
44.7653 -17.6617 0.3783
44.7653 -47.5223 49.8212
44.7653 -7.9802 56.4212
44.7653 -45.4459 -19.5171
44.7653 -44.0466 18.3924
44.7653 -3.1117 -39.5546
44.7653 -48.4159 -1.4451
44.7653 6.9670 30.4036
44.7653 23.3043 -17.6596
44.7653 -31.9937 19.6037
44.7653 -14.2131 70.9693
44.7653 -6.4628 27.7151
44.7653 2.2198 18.3783
44.7653 -6.2974 68.6651
44.7653 -2.8487 -32.3501
44.7653 0.1067 -1.3801
44.7653 3.7682 33.5893
44.7653 -8.1459 64.7255
44.7653 -8.5551 -65.6365
44.7653 42.2386 30.1222
44.7653 -11.0464 -34.8880
44.7653 -26.2569 -2.2665
44.7653 3.0959 -43.5657
44.7653 -17.0141 -48.7303
44.7653 2.1327 66.3821
44.7653 -6.3328 30.5330
44.7653 39.5611 -64.9819
44.7653 7.1472 64.9392
44.7653 -4.5402 23.8175
44.7653 10.0465 -25.8915
44.7653 43.0864 2.0230
44.7653 -35.6576 8.3651
44.7653 1.6151 -30.8503
44.7653 16.0885 -17.0567
-44.7653 24.4432 13.9869
-44.7653 12.9909 35.5678
-44.7653 -38.3615 -35.6164
-44.7653 36.2861 -15.7536
-44.7653 36.4881 -7.8295
-44.7653 12.5199 10.1434
-44.7653 11.6014 -12.6551
-44.7653 31.8419 -49.8238
-44.7653 24.3743 37.6110
-44.7653 7.2862 32.8249
-44.7653 -44.8964 67.0344
-44.7653 47.8478 22.9792
-44.7653 3.4916 37.6712
-44.7653 30.1543 2.9063
-44.7653 -42.2677 -14.6513
-44.7653 4.2687 -26.0978
-44.7653 9.8867 22.8326
-44.7653 18.8539 30.0757
-44.7653 -30.3754 -29.7942
-44.7653 -22.5796 55.4008
-44.7653 24.9499 -47.9279
-44.7653 -22.1474 -64.1440
-44.7653 -34.1987 21.3667
-44.7653 12.3337 -55.8077
-44.7653 -8.6894 17.4973
-44.7653 34.6752 -71.1056
-44.7653 -32.2176 -42.6928
-44.7653 3.6995 -39.6095
-44.7653 27.2410 -2.2230
-44.7653 29.3189 -5.4685
-44.7653 -38.7858 -35.6085
-44.7653 30.1451 -12.2664
-44.7653 14.7998 -19.6426
-44.7653 -28.0616 -26.7677
-44.7653 -34.7413 -28.2851
-44.7653 26.6780 14.2871
-44.7653 -25.5847 70.4715
-44.7653 -32.9463 -17.0391
-44.7653 -16.2375 -67.0328
-44.7653 7.0252 -51.6996
-44.7653 -4.7720 46.7267
-44.7653 -48.4683 52.3838
-44.7653 42.2751 13.9135
-44.7653 33.6997 71.1201
-44.7653 27.4713 46.9575
-44.7653 4.7049 -51.0927
-44.7653 -23.1934 -57.8878
-44.7653 35.3484 37.4407
-44.7653 19.6418 -5.3499
-44.7653 -23.8605 45.6808
-44.7653 -7.7162 -34.6391
-44.7653 15.1696 -18.3756
-44.7653 5.5878 -51.3569
-44.7653 -43.0096 -53.1410
-44.7653 41.8550 28.5810
-44.7653 -29.7784 -47.6710
-44.7653 26.2529 -17.4924
-44.7653 32.9432 -17.9033
-44.7653 -38.3575 -24.8188
-44.7653 -44.5556 8.2303
-44.7653 -35.5592 -66.8524
-44.7653 17.7921 24.6889
-44.7653 34.1335 35.5766
-44.7653 -4.2062 25.8789
-44.7653 -33.6779 9.3414
-44.7653 -19.8442 45.2001
-44.7653 46.8320 25.9711
-44.7653 -17.9835 -23.8222
-44.7653 19.0083 24.7486
-44.7653 48.6778 -17.7710
-44.7653 -36.6986 55.0135
-44.7653 -8.5662 -32.3270
-44.7653 -26.0514 -8.8501
-44.7653 45.7311 -49.2973
-44.7653 -22.0552 -38.6462
-44.7653 -19.9606 62.1118
-44.7653 32.8380 6.9540
-44.7653 -11.9426 -54.6884
-44.7653 41.9634 26.2314
-44.7653 -31.4221 -28.7837
-44.7653 46.1123 33.4462
-44.7653 17.3232 7.5979
-44.7653 14.2579 16.4714
-44.7653 7.2793 18.7713
-44.7653 39.1278 39.0323
-44.7653 21.7326 19.7492
-44.7653 -29.3242 -46.9191
-44.7653 -5.4526 26.9450
-44.7653 25.6843 26.7812
-44.7653 4.3705 -31.8315
-44.7653 -3.9325 -22.2445
-44.7653 -2.9993 32.9137
-44.7653 -23.9213 -15.5142
-44.7653 -11.8514 -52.5766
-44.7653 -5.6430 -70.0674
-44.7653 36.3261 -51.0930
-44.7653 -8.3172 -3.3114
-44.7653 -47.1209 -1.8398
-44.7653 3.2001 13.6778
-44.7653 16.4081 -0.4152
-44.7653 -35.8647 35.9875
-44.7653 -22.7276 1.2329
-44.7653 1.8543 15.6440
-44.7653 -26.4668 -64.8212
-44.7653 -8.3351 -55.3704
-44.7653 -2.1907 -9.1045
-44.7653 -19.2718 -18.7145
-44.7653 -22.9964 -2.6256
-44.7653 31.4396 18.1034
-44.7653 -40.6513 11.1384
-44.7653 -3.0125 26.1807
-44.7653 -15.3376 40.9601
-44.7653 -7.2570 -28.4078
-44.7653 -38.5874 -41.5515
-44.7653 41.0822 -35.1473
-44.7653 44.3681 -32.9654
-44.7653 3.3349 1.9794
-44.7653 9.9620 -33.6331
-44.7653 5.3269 -45.4103
-44.7653 38.2862 -66.4669
-44.7653 21.0446 -5.1950
-44.7653 -31.8359 50.8036
-44.7653 34.6200 63.3221
-44.7653 -0.7654 62.8173
-44.7653 -1.1595 59.3861
-44.7653 -6.0572 31.7687
-44.7653 43.9684 -6.9519
-44.7653 -18.2320 -65.3435
-44.7653 42.6717 -14.6488
-44.7653 -10.7125 26.0791
-44.7653 -32.9220 34.1804
-44.7653 11.8630 -69.2736
-44.7653 46.8438 -2.1691
-44.7653 14.9138 55.1980
-44.7653 -0.3834 55.6824
-44.7653 -45.9385 -25.9524
-44.7653 18.5155 -9.5356
-44.7653 -26.2314 64.4405
-44.7653 12.4179 -33.6096
-44.7653 -1.2408 68.6199
-44.7653 33.1990 22.9453
-44.7653 -32.5679 33.1381
-44.7653 -43.5267 -51.1707
-44.7653 -47.1202 -65.2760
-44.7653 13.5629 -15.3838
-44.7653 1.9480 -15.2431
-44.7653 -3.3360 62.2556
-44.7653 -42.7306 -14.4614
-44.7653 17.6204 -63.2780
-44.7653 45.1907 1.1761
-44.7653 -19.1181 -62.4558
-44.7653 -45.5710 32.6259
-44.7653 -35.0563 50.2288
-44.7653 -32.7304 -46.9516
-44.7653 36.0703 73.7636
-44.7653 47.6943 -56.9575
-44.7653 -20.2604 -11.7668
-44.7653 29.9700 -32.5526
-44.7653 -31.6499 -0.0975
-44.7653 -4.6954 -18.8681
-44.7653 -18.9757 48.0427
-44.7653 -15.4353 -50.4350
-44.7653 38.2885 -58.0042
-44.7653 32.1885 -63.2564
-44.7653 27.5703 -63.3940
-44.7653 20.3859 -46.1223
-44.7653 -37.4310 56.1432
-44.7653 28.6757 68.5912
-44.7653 -33.4437 71.6023
-44.7653 -25.6291 62.7059
-44.7653 16.8678 -60.1923
-6.3284 48.8866 -44.4109
41.6494 48.8866 56.7202
18.4273 48.8866 5.3832
4.6005 48.8866 56.4492
-43.1813 48.8866 0.9686
0.9271 48.8866 -33.3676
-23.3399 48.8866 60.1667
26.4566 48.8866 -47.2630
-16.4895 48.8866 62.3833
-31.9734 48.8866 -17.9850
41.5273 48.8866 19.2169
-19.3701 48.8866 8.7919
38.6630 48.8866 16.3848
-15.4330 48.8866 29.1295
28.6538 48.8866 -16.8061
-6.9629 48.8866 -50.9705
-27.1339 48.8866 -12.7692
-14.2633 48.8866 15.6600
-43.2655 48.8866 30.0881
38.9807 48.8866 55.6161
-4.0364 48.8866 -48.9360
1.9535 48.8866 23.0547
34.6053 48.8866 69.1261
-9.5423 48.8866 -42.7596
37.3218 48.8866 -40.2000
-20.1622 48.8866 -57.0950
33.4187 48.8866 67.4135
30.7747 48.8866 1.7536
-3.3330 48.8866 -4.1247
-22.4193 48.8866 28.5447
-2.6259 48.8866 5.5200
-38.2767 48.8866 -15.2786
-35.2558 48.8866 62.6713
-11.7444 48.8866 61.1404
-8.0638 48.8866 31.7517
-34.6499 48.8866 -6.8824
-14.7697 48.8866 -22.4164
14.3340 48.8866 -66.2534
17.2573 48.8866 -9.3650
18.1002 48.8866 57.7070
20.3473 48.8866 27.9859
-25.9833 48.8866 -17.4400
-35.9226 48.8866 55.8886
10.0428 48.8866 -47.5343
22.2684 48.8866 -32.3008
-3.1127 48.8866 33.7024
-41.1524 48.8866 -23.6216
-31.2331 48.8866 -46.8976
30.7402 48.8866 -61.7951
-36.8329 48.8866 2.3716
-8.3283 48.8866 -19.4043
-31.5920 48.8866 73.4322
24.6015 48.8866 17.6989
-31.0484 48.8866 40.5558
-3.5707 48.8866 -38.8406
-17.4774 48.8866 25.1026
3.5161 48.8866 -19.3922
-30.2737 48.8866 35.6424
0.2091 48.8866 -32.9549
-42.1136 48.8866 42.6003
22.3666 48.8866 -15.7643
-34.4314 48.8866 -31.4395
-27.4874 48.8866 -60.6311
39.9254 48.8866 35.0678
-22.5875 48.8866 -64.2445
-22.3775 48.8866 70.1002
30.5364 48.8866 -39.7431
10.1826 48.8866 3.2032
-2.2874 48.8866 -18.3771
25.8506 48.8866 6.6776
10.2806 48.8866 17.1346
34.3878 48.8866 28.1411
9.8677 48.8866 61.2547
-43.8742 48.8866 20.9413
35.1254 48.8866 3.6138
-2.5654 48.8866 18.1585
-11.2924 48.8866 -45.0299
18.6716 48.8866 45.3198
10.8197 48.8866 19.6317
8.4685 48.8866 11.3798
-28.4460 48.8866 -60.5737
0.5538 48.8866 -56.5711
43.0933 48.8866 11.9956
-11.7593 48.8866 66.7819
-17.0662 48.8866 -17.1209
13.2245 48.8866 58.7140
29.5085 48.8866 26.4056
0.2960 48.8866 -62.9050
-20.4930 48.8866 -68.3295
-37.1995 48.8866 49.7123
-34.0200 48.8866 -30.9153
-0.9710 48.8866 -66.0453
-23.6757 48.8866 30.2849
9.8238 48.8866 39.6227
-9.5807 48.8866 -23.0325
11.7118 48.8866 -18.4189
8.7999 48.8866 20.8537
-3.9365 48.8866 57.8765
-16.2622 48.8866 63.8260
-3.1935 48.8866 -69.8313
44.3017 48.8866 -39.8487
-41.7721 48.8866 59.2726
24.2668 48.8866 44.7768
-40.0581 48.8866 -48.6204
38.9620 48.8866 30.4351
22.8866 48.8866 22.7658
-15.9752 48.8866 -0.9231
-6.6993 48.8866 -30.1487
-13.5269 48.8866 -24.5106
-42.0970 48.8866 30.6698
-31.0980 48.8866 -72.7753
38.3579 48.8866 -2.5298
-29.0541 48.8866 67.0071
8.5943 48.8866 -69.7007
-27.2091 48.8866 -33.3998
44.3175 48.8866 53.0945
14.8671 48.8866 -26.1814
-0.9727 48.8866 -58.9288
35.1509 48.8866 -59.2982
-11.5034 48.8866 71.9388
-43.4979 48.8866 -14.2990
21.9511 48.8866 64.0662
-36.0874 48.8866 -67.5035
-19.7328 48.8866 -1.8601
-18.4936 48.8866 -1.9119
7.3929 48.8866 -5.9022
-22.4862 48.8866 -65.0035
-0.1120 48.8866 -67.3085
-29.4928 48.8866 58.6083
15.8513 48.8866 7.8034
9.5159 48.8866 -44.1837
14.2278 48.8866 -24.3569
-41.9482 48.8866 12.0150
-44.1802 48.8866 55.0521
1.0466 48.8866 -22.1487
13.3769 48.8866 -29.9135
-6.9226 48.8866 -44.3916
16.0030 48.8866 44.7163
-31.5912 48.8866 66.2391
-13.5068 48.8866 -2.9440
-16.6677 48.8866 -29.1861
18.4906 48.8866 -56.1918
43.8421 48.8866 72.5360
18.6704 48.8866 9.4317
-30.3585 48.8866 6.5270
39.8433 48.8866 28.1017
-25.9489 48.8866 22.2662
9.5942 48.8866 -22.2018
-17.1551 48.8866 -62.7952
-22.2895 48.8866 12.9117
42.9250 48.8866 -0.9780
43.7589 48.8866 -45.0568
-15.6504 48.8866 -13.3781
31.9092 48.8866 -59.7222
27.9841 48.8866 -30.2373
19.6382 48.8866 29.3946
7.9296 48.8866 11.9756
-4.3714 48.8866 -62.8996
-22.4984 48.8866 -73.2016
-23.3986 48.8866 68.6375
1.1630 48.8866 -39.5790
27.3021 48.8866 27.7194
43.1869 48.8866 -17.1314
-2.6445 48.8866 -55.6826
17.7672 48.8866 47.4774
18.8005 48.8866 32.1731
-1.7886 48.8866 14.8894
-31.7486 48.8866 34.8640
-4.6868 48.8866 -24.6662
-30.9090 48.8866 -25.4628
34.7843 48.8866 52.4493
13.8732 -48.8866 -61.0293
14.8977 -48.8866 12.6173
21.4531 -48.8866 15.6258
35.6001 -48.8866 -73.6524
35.8183 -48.8866 48.2373
1.7337 -48.8866 -61.3909
-1.5811 -48.8866 25.4056
44.4933 -48.8866 -45.7878
-11.6595 -48.8866 -44.9076
3.9310 -48.8866 51.3840
-37.8477 -48.8866 -4.6842
20.1166 -48.8866 19.7532
-3.6529 -48.8866 15.4917
41.6735 -48.8866 21.0089
14.8861 -48.8866 -18.9552
31.7829 -48.8866 -72.5710
13.8444 -48.8866 52.9054
-28.8463 -48.8866 -70.7503
35.6024 -48.8866 -38.4509
37.9577 -48.8866 -51.5959
20.5824 -48.8866 14.2513
-31.5195 -48.8866 0.2434
-33.7702 -48.8866 72.2676
-43.9533 -48.8866 30.9349
6.4009 -48.8866 48.5778
18.3405 -48.8866 -56.3971
-5.1125 -48.8866 30.6561
-21.5592 -48.8866 26.8475
2.6136 -48.8866 -46.6053
1.1782 -48.8866 -38.0244
-32.5145 -48.8866 3.9830
-33.4483 -48.8866 -59.8740
13.5473 -48.8866 -29.9902
2.7524 -48.8866 67.5517
-34.1765 -48.8866 31.0425
42.2698 -48.8866 -20.1276
-30.1391 -48.8866 24.6258
8.5539 -48.8866 -47.0272
-10.9518 -48.8866 -1.6911
-12.8581 -48.8866 38.1724
41.0737 -48.8866 39.4296
-9.9095 -48.8866 -27.8762
-13.6246 -48.8866 24.4511
-27.9479 -48.8866 61.7661
35.6346 -48.8866 67.4718
-44.7389 -48.8866 -35.2207
-27.3891 -48.8866 15.8081
1.2656 -48.8866 -25.1128
35.9322 -48.8866 17.4534
18.9966 -48.8866 3.8255
37.9090 -48.8866 -47.6277
-16.4290 -48.8866 57.6383
28.0153 -48.8866 0.9900
13.2471 -48.8866 -8.1896
15.0629 -48.8866 -54.8225
-13.1500 -48.8866 -8.5903
4.2129 -48.8866 0.3149
34.3795 -48.8866 20.8956
-33.3901 -48.8866 -44.9788
27.0674 -48.8866 -42.4199
26.8285 -48.8866 -55.6080
2.6905 -48.8866 67.4402
-3.7981 -48.8866 -0.2131
17.0260 -48.8866 -16.9286
-0.9598 -48.8866 -66.9492
-5.1030 -48.8866 70.2720
37.9970 -48.8866 37.7938
17.9445 -48.8866 65.0597
8.2716 -48.8866 -44.1363
9.5985 -48.8866 46.4873
9.0927 -48.8866 40.9226
23.1303 -48.8866 64.6720
8.4270 -48.8866 66.0340
-38.9852 -48.8866 41.8993
39.0466 -48.8866 -13.4303
-13.3025 -48.8866 -55.2768
37.0517 -48.8866 -28.3580
-22.3144 -48.8866 -33.0963
-27.4164 -48.8866 -18.0711
-29.3250 -48.8866 -25.9184
5.9502 -48.8866 -32.0106
24.9358 -48.8866 -27.3997
-22.4595 -48.8866 44.7794
-18.8542 -48.8866 -25.4876
39.7510 -48.8866 32.9047
-16.9171 -48.8866 -3.0321
9.8010 -48.8866 36.0864
-18.2707 -48.8866 15.5023
26.6265 -48.8866 -52.2862
17.0761 -48.8866 7.6721
35.7213 -48.8866 68.3032
26.6791 -48.8866 22.9061
6.6671 -48.8866 -17.5845
0.6627 -48.8866 9.0327
12.7951 -48.8866 66.6399
-21.7436 -48.8866 -34.0033
-10.3370 -48.8866 8.2120
-26.2490 -48.8866 -57.7930
-11.6047 -48.8866 -27.3463
-28.1778 -48.8866 61.4573
-21.8253 -48.8866 -47.6395
15.7441 -48.8866 -19.7534
33.5397 -48.8866 -20.0146
-28.9612 -48.8866 23.5775
0.9468 -48.8866 4.2727
24.9254 -48.8866 -46.0274
-8.7288 -48.8866 12.2350
-40.8583 -48.8866 -10.3856
-16.2920 -48.8866 -16.0717
41.8170 -48.8866 -50.3517
14.3361 -48.8866 -16.5011
13.7562 -48.8866 64.6683
21.2417 -48.8866 -1.2258
-27.8261 -48.8866 -66.3942
-25.4254 -48.8866 68.2551
11.5684 -48.8866 64.8277
5.3482 -48.8866 -8.4324
-37.3838 -48.8866 36.7012
28.8844 -48.8866 46.3396
-21.6128 -48.8866 -57.6725
-6.7372 -48.8866 -24.5172
-5.2317 -48.8866 -56.2451
11.2993 -48.8866 -34.5375
4.4466 -48.8866 -50.4314
15.5098 -48.8866 41.0310
4.2310 -48.8866 -15.6598
-35.2078 -48.8866 -46.6255
41.9402 -48.8866 21.3267
23.5515 -48.8866 48.1194
-16.6778 -48.8866 -73.7486
-18.9727 -48.8866 -70.8895
31.1106 -48.8866 24.2715
-31.7279 -48.8866 -45.8860
22.2862 -48.8866 69.9671
20.3198 -48.8866 26.2499
16.7216 -48.8866 -53.1165
2.1250 -48.8866 45.6693
-44.6598 -48.8866 -7.7069
-7.3835 -48.8866 61.2299
-15.7107 -48.8866 23.0618
33.6834 -48.8866 -56.5926
37.5236 -48.8866 1.4218
-14.1285 -48.8866 42.5060
0.0702 -48.8866 -49.8299
-11.8255 -48.8866 -4.9599
-22.2732 -48.8866 -30.1506
43.7988 -48.8866 -28.1576
42.3285 -48.8866 -48.2467
-28.1722 -48.8866 -45.5331
0.2189 -48.8866 -59.0655
-32.7680 -48.8866 28.7286
15.8427 -48.8866 -20.6765
-19.9776 -48.8866 -2.4679
10.2110 -48.8866 -39.0540
-5.1814 -48.8866 51.7662
20.8009 -48.8866 -40.5791
-41.7084 -48.8866 -71.8883
10.1021 -48.8866 51.5727
-27.4217 -48.8866 -2.7703
-13.5614 -48.8866 18.2894
-4.2460 -48.8866 -47.3269
-5.0549 -48.8866 -58.7667
8.3916 -48.8866 19.2510
-10.9359 -48.8866 -62.6651
28.6962 -48.8866 61.7093
-25.6914 -48.8866 -41.5060
-17.0207 -48.8866 -50.6873
25.0074 -48.8866 59.4692
6.3602 -48.8866 -18.7331
40.5915 -48.8866 -13.1088
4.4831 -48.8866 15.7147
-34.0358 -36.1740 73.7750
-8.4392 4.6139 73.7750
-2.9814 -11.7156 73.7750
-37.5489 37.4493 73.7750
34.4740 10.9718 73.7750
44.5625 -29.3224 73.7750
-30.6268 46.2076 73.7750
1.7341 1.7623 73.7750
31.5638 36.2146 73.7750
-18.0505 35.8322 73.7750
-40.4577 -4.6757 73.7750
-38.5157 -4.5304 73.7750
-0.7132 4.8819 73.7750
18.6342 9.9906 73.7750
-12.3042 -28.2857 73.7750
36.2492 -36.2992 73.7750
28.3918 43.2577 73.7750
3.1600 29.1452 73.7750
21.6109 3.7506 73.7750
-13.5308 42.8424 73.7750
-18.4518 -29.0363 73.7750
-31.8417 6.6408 73.7750
11.3134 -43.7190 73.7750
4.2696 -23.9034 73.7750
0.1121 2.0743 73.7750
34.9701 -32.6756 73.7750
23.0874 -17.0768 73.7750
-33.5218 -13.0472 73.7750
-12.7766 -29.0231 73.7750
1.4425 -45.9901 73.7750
44.1035 -47.7149 73.7750
35.1768 13.4580 73.7750
-40.9781 41.3261 73.7750
21.9096 -45.9032 73.7750
14.9579 24.8886 73.7750
-13.7635 -30.4947 73.7750
-38.5714 36.4062 73.7750
-20.6959 26.0338 73.7750
-22.6568 15.3911 73.7750
-31.9048 -25.1440 73.7750
-29.2704 7.8217 73.7750
-15.0768 17.6988 73.7750
-23.6363 -45.6569 73.7750
3.0783 40.8824 73.7750
26.6482 -9.2416 73.7750
7.0087 -26.9944 73.7750
-43.4176 -8.6213 73.7750
-23.4618 -12.0494 73.7750
-32.2265 0.4814 73.7750
-21.8938 10.6346 73.7750
-32.0856 -27.4985 73.7750
-32.0414 43.8531 73.7750
43.1845 -43.0432 73.7750
-28.4021 -19.9329 73.7750
-2.1437 -36.9378 73.7750
-4.3792 -4.1024 73.7750
-15.3606 1.8163 73.7750
-23.1483 4.9438 73.7750
2.8372 -10.9163 73.7750
25.8706 22.2018 73.7750
-33.8917 -2.4709 73.7750
9.9711 45.6881 73.7750
-42.0849 14.1994 73.7750
2.6961 -3.3439 73.7750
21.4607 26.6357 73.7750
-43.0196 -28.1126 73.7750
-36.8301 -4.0851 73.7750
2.9203 -41.9884 73.7750
-0.1336 -34.9806 73.7750
-39.1744 -19.7727 73.7750
-8.2517 -7.4695 73.7750
33.6159 2.6416 73.7750
-26.6867 -28.6697 73.7750
-12.7699 18.5599 73.7750
-34.0066 11.4003 73.7750
18.8304 -19.1009 73.7750
17.8061 29.7841 73.7750
-19.7954 -23.3865 73.7750
-42.0150 -24.6724 73.7750
1.1540 5.2180 73.7750
4.5571 48.0135 73.7750
31.0244 23.9031 73.7750
10.7227 35.5132 73.7750
-41.1130 35.7242 73.7750
-38.6845 14.3806 73.7750
44.5150 11.4797 73.7750
30.8479 -35.4744 73.7750
-16.4308 -3.6800 73.7750
-42.7760 8.2090 73.7750
22.1154 -16.6323 73.7750
16.3430 13.5016 73.7750
-42.1314 39.1727 73.7750
-10.3865 35.1836 73.7750
24.2082 38.5449 73.7750
-41.3972 -27.3485 73.7750
11.8594 0.6345 73.7750
23.3362 -39.0936 73.7750
2.9859 -36.2108 73.7750
18.1644 1.0766 73.7750
-26.1942 30.3366 73.7750
25.4669 47.4815 73.7750
26.7971 -0.8219 73.7750
-6.2222 -18.0615 73.7750
-17.0347 -29.6600 73.7750
-5.7315 -28.0490 73.7750
25.4718 -45.4730 73.7750
-14.9247 11.6128 73.7750
26.7461 -13.2036 73.7750
-32.9110 -13.3479 73.7750
-13.6933 25.6577 73.7750
-29.0708 18.4356 73.7750
-37.3035 25.4542 73.7750
11.3037 -37.2001 73.7750
25.7855 4.9776 73.7750
4.3791 28.4265 73.7750
-16.5470 -7.6913 73.7750
-7.1841 -17.3623 73.7750
-13.7810 27.0293 73.7750
-25.4550 14.0903 73.7750
41.1666 -2.7714 73.7750
-40.0522 15.2218 73.7750
38.5384 4.7516 73.7750
38.6965 42.7101 73.7750
-4.7063 24.1601 73.7750
29.5489 4.7200 73.7750
31.1518 4.5108 73.7750
22.5140 -36.4472 73.7750
39.2297 38.7208 73.7750
18.6929 16.8948 73.7750
-19.8370 44.6579 73.7750
22.5154 7.9557 73.7750
-43.2237 38.4087 73.7750
44.2980 36.2019 73.7750
-30.9773 -2.5110 73.7750
-30.0535 -45.9986 73.7750
-27.8556 -13.1306 73.7750
-32.1137 -16.0470 73.7750
18.8582 -23.8845 73.7750
28.7771 19.9097 73.7750
-13.5721 -5.0087 73.7750
36.9408 21.6177 73.7750
9.6741 32.0089 73.7750
-40.8295 -11.9494 73.7750
6.8507 10.4842 73.7750
33.1724 -16.4560 73.7750
-9.3075 -25.4880 73.7750
-22.5846 11.4315 73.7750
-13.8806 21.5287 73.7750
21.7678 2.9793 73.7750
21.9862 32.8184 73.7750
36.3827 10.9085 73.7750
16.8151 -47.7377 73.7750
9.9201 -18.9914 73.7750
3.0652 -8.4009 73.7750
32.2890 -24.8242 73.7750
-21.4823 -37.5918 73.7750
-33.1461 44.9413 73.7750
-33.6332 38.2840 73.7750
4.7491 26.0864 73.7750
-33.2195 -7.3482 73.7750
-24.2180 -9.6522 73.7750
12.2503 8.9666 73.7750
31.9158 30.7801 73.7750
-42.6695 -17.1966 73.7750
-4.6690 38.4236 73.7750
-43.7440 -12.3487 73.7750
16.3596 -39.3761 73.7750
17.8486 -4.5325 73.7750
19.4591 48.3121 73.7750
-17.1434 21.4114 73.7750
-38.5001 -20.1317 -73.7750
-12.7626 -34.9198 -73.7750
10.7626 -34.7030 -73.7750
39.4543 31.4897 -73.7750
-22.1337 41.0945 -73.7750
5.9673 5.4551 -73.7750
2.8737 -30.8801 -73.7750
-42.5486 -7.3022 -73.7750
17.4288 -43.3298 -73.7750
13.7595 31.7327 -73.7750
-1.0153 39.2158 -73.7750
32.3312 -32.8405 -73.7750
-13.3595 30.5813 -73.7750
3.4348 4.9062 -73.7750
1.8141 -7.8009 -73.7750
27.3482 -21.3015 -73.7750
30.6549 33.4215 -73.7750
-5.4677 -7.5961 -73.7750
-22.4412 3.7624 -73.7750
44.0634 46.1780 -73.7750
28.5770 0.9754 -73.7750
-10.9041 8.1267 -73.7750
15.2087 -28.1385 -73.7750
-17.9867 39.1455 -73.7750
-14.5604 45.7581 -73.7750
-10.9667 -21.2770 -73.7750
23.6653 2.8546 -73.7750
-13.0907 42.8843 -73.7750
13.5235 -22.1696 -73.7750
8.6817 -30.0290 -73.7750
-26.0891 -47.3912 -73.7750
-37.9492 6.9244 -73.7750
26.6498 20.7392 -73.7750
43.6087 -5.8281 -73.7750
3.9574 -20.3072 -73.7750
18.7034 -21.4744 -73.7750
-7.5592 -45.5415 -73.7750
37.7217 -27.0186 -73.7750
43.3477 30.4091 -73.7750
-13.5928 -11.9981 -73.7750
-1.7448 -16.2647 -73.7750
29.0192 -35.5811 -73.7750
-38.6492 -47.0756 -73.7750
7.3014 -37.0432 -73.7750
32.4946 42.1454 -73.7750
-43.6253 41.4337 -73.7750
-25.1023 -9.9737 -73.7750
2.1464 31.8361 -73.7750
2.7145 -20.4013 -73.7750
-30.9547 17.4483 -73.7750
-38.2828 -25.7960 -73.7750
25.0835 21.4118 -73.7750
-18.7316 -8.0671 -73.7750
10.6232 36.2344 -73.7750
-17.0373 27.0378 -73.7750
-38.2810 26.6166 -73.7750
31.3959 -8.3327 -73.7750
6.9752 46.6266 -73.7750
2.3650 -4.8765 -73.7750
25.1347 -46.7983 -73.7750
-25.1691 1.3250 -73.7750
-15.6850 17.2217 -73.7750
-13.1200 6.5705 -73.7750
24.2305 -11.6048 -73.7750
-21.0137 4.6901 -73.7750
13.4640 28.3139 -73.7750
3.5276 15.6792 -73.7750
3.2120 20.5532 -73.7750
-32.1376 -17.5872 -73.7750
-27.1744 -4.3119 -73.7750
-32.5935 -33.0714 -73.7750
-38.9239 -30.3602 -73.7750
27.5450 -9.4077 -73.7750
-32.7138 -2.2824 -73.7750
23.5727 33.4930 -73.7750
-34.7874 22.2244 -73.7750
-43.2758 30.4502 -73.7750
-2.6414 -36.4522 -73.7750
-43.6178 16.2699 -73.7750
-25.0183 48.5695 -73.7750
28.5585 37.4906 -73.7750
38.7593 -40.9452 -73.7750
26.8639 11.5683 -73.7750
18.5988 9.3887 -73.7750
-34.4650 7.4516 -73.7750
-16.1259 -20.3406 -73.7750
27.0468 -25.1427 -73.7750
5.8029 15.0433 -73.7750
21.7641 13.3227 -73.7750
11.0220 18.3995 -73.7750
34.5931 14.7752 -73.7750
-23.3046 9.2304 -73.7750
10.4914 31.4697 -73.7750
-20.8632 7.7365 -73.7750
-6.1240 38.5588 -73.7750
2.5291 -31.6797 -73.7750
24.6807 28.9577 -73.7750
-5.4266 -2.0461 -73.7750
21.6773 -46.7360 -73.7750
17.7199 -38.7727 -73.7750
-42.5473 -30.4796 -73.7750
37.9809 22.0931 -73.7750
-34.3012 -44.1405 -73.7750
40.4206 17.2557 -73.7750
-27.5330 -31.6315 -73.7750
26.2639 39.2117 -73.7750
-6.1940 -9.3962 -73.7750
-3.3941 -35.4146 -73.7750
28.6595 -33.7495 -73.7750
-22.3158 24.3499 -73.7750
0.8129 -36.5221 -73.7750
-30.5947 -9.5505 -73.7750
-39.0485 10.7097 -73.7750
36.7677 -25.0774 -73.7750
10.3036 -16.8919 -73.7750
33.7436 -28.2227 -73.7750
10.4170 16.2401 -73.7750
42.5393 45.0202 -73.7750
-0.4456 -35.7610 -73.7750
-42.3898 -44.5044 -73.7750
-1.1938 38.5895 -73.7750
15.9547 -22.9751 -73.7750
44.0263 -14.8070 -73.7750
32.0646 29.1422 -73.7750
38.3562 23.1316 -73.7750
-8.1033 24.3181 -73.7750
-30.5250 24.7072 -73.7750
-2.2329 -10.6234 -73.7750
-3.3554 -40.8082 -73.7750
7.2468 31.6869 -73.7750
-7.7836 20.5402 -73.7750
-34.9447 -11.2616 -73.7750
-5.0700 -36.7060 -73.7750
9.0925 22.9506 -73.7750
39.1459 -36.4692 -73.7750
-21.0096 15.4437 -73.7750
-10.5865 -7.5660 -73.7750
22.5352 -19.4659 -73.7750
6.4282 -16.6757 -73.7750
-29.3421 31.9639 -73.7750
39.0549 -24.4627 -73.7750
9.6472 -14.9055 -73.7750
-1.8079 20.3982 -73.7750
31.0474 -9.8380 -73.7750
-28.8517 35.6268 -73.7750
-15.9660 -0.5300 -73.7750
-44.1154 35.9397 -73.7750
-34.5503 -40.1614 -73.7750
38.2322 12.0064 -73.7750
1.7287 -5.0800 -73.7750
20.5535 34.0940 -73.7750
22.2387 -38.8718 -73.7750
17.6342 19.3057 -73.7750
-20.7235 29.6539 -73.7750
-2.1902 29.6256 -73.7750
-26.5021 11.2764 -73.7750
-30.4196 -31.6393 -73.7750
8.4056 -3.8419 -73.7750
5.7277 10.0757 -73.7750
17.1974 -18.5947 -73.7750
6.7635 37.5623 -73.7750
-2.4014 17.0170 -73.7750
32.7634 -30.8093 -73.7750
30.6118 45.3380 -73.7750
31.6122 45.2179 -73.7750
30.8771 -33.4616 -73.7750
5.0424 9.3402 -73.7750
-29.0745 10.6728 -73.7750
-15.1552 24.8014 -73.7750
17.8191 -43.8300 -73.7750
