ply
format ascii 1.0
element vertex 1024
property float x
property float y
property float z
end_header
26.3832 4.1852 54.0895
26.3832 -45.4708 -28.2305
26.3832 -49.0851 35.3340
26.3832 46.9799 4.0605
26.3832 3.9185 20.1717
26.3832 -74.6207 -45.6693
26.3832 -74.5732 -12.8051
26.3832 82.9337 45.7235
26.3832 10.9805 -49.4467
26.3832 -43.8096 -23.9838
26.3832 85.9734 1.5731
26.3832 95.0228 -22.8511
26.3832 76.1977 20.9981
26.3832 -19.4657 -23.7816
26.3832 -65.2307 49.3016
26.3832 86.2280 -7.5215
26.3832 18.5856 50.3020
26.3832 15.3571 -39.0479
26.3832 64.9669 -20.7597
26.3832 37.8910 -35.6985
26.3832 66.7989 13.9751
26.3832 -59.0303 52.5146
26.3832 8.3535 -10.6813
26.3832 -52.1037 -9.6596
26.3832 54.0742 19.3157
26.3832 -78.8760 35.0630
26.3832 -93.9480 -25.2038
26.3832 -4.5433 -56.3506
26.3832 47.2978 21.3858
26.3832 8.2749 -44.6629
26.3832 92.1938 8.3729
26.3832 90.9414 54.7352
26.3832 71.2130 -8.9580
26.3832 68.8805 -0.6252
26.3832 4.0530 -40.1900
26.3832 82.5109 -19.4260
26.3832 -64.3070 14.1374
26.3832 -4.7425 30.9803
26.3832 -49.3089 -33.0358
26.3832 -4.0992 -14.8011
26.3832 -59.2505 56.6151
26.3832 42.5917 7.8875
26.3832 42.4606 30.1522
26.3832 -34.6777 -7.9701
26.3832 46.9253 38.2235
26.3832 86.0650 -7.6359
26.3832 -8.9160 18.2262
26.3832 19.0394 26.1517
26.3832 1.8024 17.5454
26.3832 -76.7309 -6.4032
26.3832 -28.8060 13.2418
26.3832 -64.8668 25.2648
26.3832 -25.4830 29.7446
26.3832 69.1593 -47.6934
26.3832 49.4236 -24.2300
26.3832 75.2102 46.0490
26.3832 -44.3196 -54.1604
26.3832 -41.4751 50.8486
26.3832 43.0714 3.3953
26.3832 47.5617 22.7069
26.3832 -3.2720 -54.8935
26.3832 -13.0883 20.5341
26.3832 48.6537 -3.4583
26.3832 13.5347 17.0621
26.3832 39.0255 23.0551
26.3832 -2.8840 -49.4005
26.3832 37.6754 -47.8320
26.3832 1.7963 -54.2418
26.3832 -92.2186 9.9383
26.3832 70.1063 -54.3997
26.3832 9.4749 45.0094
26.3832 85.6435 -32.9532
26.3832 6.2056 17.7514
26.3832 96.6256 -32.6447
26.3832 8.6038 -48.8703
26.3832 92.5645 -2.0433
26.3832 16.0897 54.4498
26.3832 51.4559 6.3482
26.3832 95.0674 -14.6663
26.3832 79.1507 10.5152
26.3832 -61.5921 17.8981
26.3832 94.0659 -10.9798
26.3832 63.8151 -50.4968
26.3832 55.4322 -43.8297
26.3832 -65.2318 -2.1100
26.3832 -84.1063 15.7447
26.3832 -20.9219 -41.4846
26.3832 -47.1901 5.6360
26.3832 21.6327 27.0058
26.3832 -0.1023 8.8973
26.3832 -58.9117 53.7432
26.3832 97.2685 -31.9281
26.3832 -9.6284 -50.9078
26.3832 18.6211 -52.4484
26.3832 -12.9352 -53.0441
26.3832 -61.0087 40.4461
26.3832 26.0278 -3.5259
26.3832 27.4365 -19.6852
26.3832 -7.7882 39.5991
26.3832 49.5528 56.5935
26.3832 21.2657 6.6041
26.3832 -50.4934 -25.0548
26.3832 92.6341 -16.6848
26.3832 26.2382 24.8374
26.3832 -13.5650 53.1352
26.3832 88.5003 8.1909
26.3832 -27.6206 5.7235
26.3832 -23.9996 29.3519
26.3832 96.4998 13.7842
26.3832 6.4966 35.7520
26.3832 12.8913 -44.4257
26.3832 -30.5997 19.6027
26.3832 -56.5966 22.1733
26.3832 2.6586 17.0627
26.3832 -32.0880 3.6492
26.3832 -69.8692 -42.5730
26.3832 5.9889 -0.9721
26.3832 -6.3625 -32.5197
26.3832 59.6162 42.5550
26.3832 60.6623 -35.7655
26.3832 -41.9480 56.7274
26.3832 45.1476 36.1405
26.3832 -19.7679 -54.6507
26.3832 -25.6840 37.0250
26.3832 50.5695 39.5118
26.3832 -74.4760 -50.7224
26.3832 91.4687 -28.4700
26.3832 -75.8708 34.1853
26.3832 81.2998 10.6184
26.3832 11.6013 -40.4562
26.3832 -85.7588 4.8955
26.3832 -75.6410 5.3310
26.3832 -64.1979 -47.1990
26.3832 42.4481 22.7006
26.3832 -91.7702 -46.7886
26.3832 80.2114 -4.0742
26.3832 0.4575 30.0266
26.3832 20.7210 -30.2416
26.3832 6.1961 28.2333
26.3832 58.4077 11.3253
26.3832 45.0567 17.8756
26.3832 -51.3452 38.1490
26.3832 11.0998 56.2738
26.3832 31.4142 -5.8045
26.3832 48.1943 17.8675
26.3832 -52.8115 18.6067
26.3832 32.6726 -44.2410
26.3832 -49.6460 -27.2207
26.3832 -96.5650 38.6780
26.3832 86.9478 -50.7163
26.3832 -2.9780 8.3733
26.3832 -1.0140 36.8556
26.3832 -76.2249 3.2024
26.3832 79.8938 -18.6744
26.3832 72.5894 21.8942
26.3832 -85.7927 14.0039
26.3832 -39.2922 -36.5572
26.3832 -2.9254 20.9214
26.3832 12.0640 27.0730
26.3832 63.4423 48.2924
26.3832 31.4530 -18.9980
26.3832 21.3617 34.8579
26.3832 -32.6113 45.9764
26.3832 -72.2875 43.0302
26.3832 -90.5021 48.0687
26.3832 -4.7105 -27.9895
26.3832 -95.5704 -5.6998
26.3832 -38.1108 38.7022
26.3832 32.8466 48.5808
26.3832 20.4506 31.8655
26.3832 -69.9106 -12.4263
-26.3832 75.3121 -28.0139
-26.3832 -82.7968 -14.1810
-26.3832 -42.8207 49.1644
-26.3832 -11.0014 50.5805
-26.3832 -38.9223 47.8431
-26.3832 -90.0158 -42.0396
-26.3832 74.7949 -31.2878
-26.3832 97.0996 34.2206
-26.3832 41.1062 -35.7311
-26.3832 -19.5291 29.1169
-26.3832 -33.5554 -12.7245
-26.3832 50.6712 8.5702
-26.3832 27.0201 13.6610
-26.3832 -85.0187 -54.1662
-26.3832 86.8602 -16.7025
-26.3832 -72.8981 -35.8455
-26.3832 -85.5322 -16.7346
-26.3832 45.0612 -35.9668
-26.3832 95.8773 33.5050
-26.3832 49.5330 20.9040
-26.3832 -54.1131 -47.4477
-26.3832 -11.0109 52.5185
-26.3832 -74.2960 -36.0130
-26.3832 -7.6430 -48.5804
-26.3832 -0.5464 -5.8614
-26.3832 -60.9852 4.0867
-26.3832 -38.3179 31.3433
-26.3832 -62.5293 13.8524
-26.3832 63.9507 -43.2472
-26.3832 95.7021 9.3171
-26.3832 -43.1393 10.6302
-26.3832 22.1963 46.4450
-26.3832 2.0517 -51.8875
-26.3832 66.0487 -16.0964
-26.3832 -73.9777 -21.5533
-26.3832 46.3269 -19.3852
-26.3832 68.5831 -32.9308
-26.3832 65.4255 -56.2098
-26.3832 79.0832 -48.3454
-26.3832 76.8708 7.7867
-26.3832 -15.1165 -55.7481
-26.3832 23.4954 54.6607
-26.3832 9.3414 -24.9263
-26.3832 -20.1255 -43.5440
-26.3832 58.3587 -32.1378
-26.3832 -12.4542 -21.9781
-26.3832 -28.6286 -45.5643
-26.3832 43.0163 50.1480
-26.3832 -59.1201 -50.8796
-26.3832 -74.7255 49.3747
-26.3832 -88.3179 -27.6863
-26.3832 -22.3624 -16.6249
-26.3832 -62.4319 -56.6642
-26.3832 23.8010 33.1106
-26.3832 13.9755 -47.3292
-26.3832 69.6590 -8.6996
-26.3832 -74.9312 30.1427
-26.3832 51.7276 24.0425
-26.3832 38.4478 38.6338
-26.3832 56.4115 -37.0402
-26.3832 -93.6607 -8.5980
-26.3832 -97.5227 -13.8521
-26.3832 -76.0651 47.5876
-26.3832 -72.4886 0.3662
-26.3832 71.0366 42.4375
-26.3832 -9.2694 13.5719
-26.3832 -26.6203 28.9357
-26.3832 -69.5515 -51.0859
-26.3832 14.8240 19.6639
-26.3832 12.2950 30.5480
-26.3832 -48.3422 14.5708
-26.3832 -1.9152 33.7480
-26.3832 48.2705 41.4720
-26.3832 42.1046 -17.5509
-26.3832 83.6372 56.7785
-26.3832 -55.8208 -42.5129
-26.3832 -90.3017 47.0179
-26.3832 62.0981 52.3820
-26.3832 -73.2718 -11.9500
-26.3832 -61.5689 46.9833
-26.3832 82.3575 45.1016
-26.3832 -26.1813 22.4737
-26.3832 -14.4309 -12.9512
-26.3832 0.4977 -18.1429
-26.3832 -75.1767 34.5217
-26.3832 78.4742 12.0726
-26.3832 83.1994 52.0285
-26.3832 11.9529 40.7238
-26.3832 32.9420 27.3741
-26.3832 -51.5217 -53.7694
-26.3832 4.4075 -46.9107
-26.3832 -35.7922 32.3735
-26.3832 -7.0716 44.1838
-26.3832 5.2083 26.4141
-26.3832 56.2580 -7.2094
-26.3832 10.6521 36.8604
-26.3832 66.9986 52.2927
-26.3832 25.3389 -10.6619
-26.3832 -48.2035 31.1230
-26.3832 28.8521 19.0740
-26.3832 -19.2665 -24.3657
-26.3832 -81.4648 28.9071
-26.3832 19.1090 -6.8762
-26.3832 -81.6366 -3.6998
-26.3832 -61.7290 3.4215
-26.3832 89.1954 10.6136
-26.3832 83.8288 -17.4433
-26.3832 -5.8453 0.5358
-26.3832 -37.3127 31.7606
-26.3832 61.6914 39.6158
-26.3832 -9.7831 23.5066
-26.3832 25.3946 -26.6408
-26.3832 -2.3941 40.8078
-26.3832 31.8794 -5.6093
-26.3832 45.8941 -38.2970
-26.3832 -75.6093 3.5009
-26.3832 -54.3466 43.2015
-26.3832 -23.3996 20.3776
-26.3832 -24.4607 -48.1098
-26.3832 39.5354 -36.9550
-26.3832 74.8049 -12.3709
-26.3832 49.2953 -20.1658
-26.3832 8.1324 17.7923
-26.3832 -9.3210 34.6586
-26.3832 -11.0392 34.9456
-26.3832 -28.7845 20.6764
-26.3832 2.1242 -36.2281
-26.3832 -2.5858 43.2022
-26.3832 51.9953 56.1660
-26.3832 53.9472 16.1972
-26.3832 -86.2662 26.8031
-26.3832 6.8030 54.5510
-26.3832 59.8030 -34.4288
-26.3832 -4.4886 18.4057
-26.3832 -51.7040 32.9812
-26.3832 20.3438 -54.8766
-26.3832 -17.4968 54.6262
-26.3832 -8.3017 -49.2712
-26.3832 87.9500 -47.0327
-26.3832 7.3963 0.1316
-26.3832 -61.0290 -55.4032
-26.3832 45.7483 4.4948
-26.3832 8.6582 -7.7012
-26.3832 92.4798 -17.6210
-26.3832 87.4670 21.0405
-26.3832 71.7119 -16.0989
-26.3832 -54.8192 32.0140
-26.3832 -14.4608 25.8226
-26.3832 43.2741 -44.1845
-26.3832 16.8117 -45.7208
-26.3832 19.7115 -24.7606
-26.3832 86.3872 -41.7180
-26.3832 -91.9651 -46.4753
-26.3832 -27.8520 -18.1182
-26.3832 93.7054 -51.3831
-26.3832 82.4947 -52.7708
-26.3832 -3.0421 -42.9780
-26.3832 -22.9945 13.6573
-26.3832 -28.4098 -25.5226
-26.3832 66.4414 24.2608
-26.3832 -82.1966 37.5304
-26.3832 59.9072 48.9479
-26.3832 1.3551 17.0720
-26.3832 -54.7640 44.7377
-26.3832 9.8905 -25.5417
-26.3832 93.7895 -25.4198
-26.3832 39.4953 -2.7104
-26.3832 62.7742 -18.5664
-26.3832 -19.8210 30.5686
-26.3832 86.2104 -56.3415
-26.3832 -79.5584 16.5799
-3.9901 97.9090 -14.7212
-21.2344 97.9090 -12.5248
-10.6157 97.9090 -20.9872
10.7056 97.9090 21.7525
2.7926 97.9090 28.1110
-5.4268 97.9090 -22.1101
-0.8002 97.9090 18.9151
11.8069 97.9090 -43.6970
-12.8751 97.9090 1.5054
-17.7547 97.9090 -45.9178
21.4597 97.9090 47.8511
-14.6283 97.9090 -56.3682
9.4943 97.9090 -20.9952
8.4824 97.9090 -27.7916
9.5736 97.9090 31.9136
17.3256 97.9090 -5.9120
-25.3266 97.9090 41.6073
23.2042 97.9090 -47.0704
-21.9607 97.9090 37.0518
-2.3805 97.9090 -13.8841
24.7701 97.9090 41.3519
-9.0834 97.9090 44.5201
5.4314 97.9090 20.8180
-7.1508 97.9090 -3.1102
-9.9526 97.9090 39.3989
17.0842 97.9090 50.3685
14.7118 97.9090 -46.1728
-17.0762 97.9090 14.5138
19.9351 97.9090 46.5667
18.1233 97.9090 20.2061
20.4848 97.9090 39.0816
9.1023 97.9090 -28.4469
-7.3780 97.9090 -54.6152
-19.5863 97.9090 -50.8131
-23.9538 97.9090 31.9996
-10.9003 97.9090 20.2165
11.7929 97.9090 19.8575
7.2744 97.9090 38.2607
-15.5745 97.9090 56.5659
10.1182 97.9090 -3.9557
5.1558 97.9090 -18.1340
4.1952 97.9090 39.2985
3.6635 97.9090 -15.5155
7.3788 97.9090 -41.5524
14.8860 97.9090 -27.8260
-13.7603 97.9090 43.8578
16.1692 97.9090 -52.5342
11.4678 97.9090 36.2860
-9.4408 97.9090 -26.1712
3.3288 97.9090 46.4567
4.6356 97.9090 -23.5023
0.7088 97.9090 16.4298
2.2788 97.9090 -15.4400
16.1009 97.9090 19.7013
-21.5273 97.9090 -38.3141
5.4096 97.9090 -31.0846
1.9257 97.9090 46.3249
24.5723 97.9090 -24.4444
-6.8987 97.9090 -3.7867
-24.7918 97.9090 -23.4618
-6.5459 97.9090 -30.5194
5.8227 97.9090 31.3897
7.6292 97.9090 -4.5947
-1.4029 97.9090 -18.5882
22.6701 97.9090 -53.6998
23.7120 97.9090 20.3144
9.0493 97.9090 -29.7555
10.7515 97.9090 -0.9763
-5.3095 97.9090 53.2051
-16.4390 97.9090 -38.7263
-5.9493 97.9090 -57.3887
-10.5758 97.9090 -45.3979
25.2932 97.9090 6.7484
12.6842 97.9090 -49.6346
11.7083 97.9090 -54.1745
19.3710 97.9090 -8.6829
22.8323 97.9090 51.4907
-10.0611 97.9090 -52.4553
-21.0978 97.9090 -56.3297
6.5486 97.9090 43.3684
-7.6798 97.9090 11.7752
-14.4227 97.9090 14.1881
-19.9316 97.9090 29.2455
-7.5426 97.9090 -9.5788
-7.8654 97.9090 41.3122
15.9490 97.9090 9.0361
9.2169 97.9090 -27.7598
-18.6260 97.9090 32.2893
-3.7217 97.9090 54.7827
23.4697 97.9090 -11.4035
-1.6403 97.9090 19.1608
12.5791 97.9090 -53.0752
-10.0198 97.9090 -9.3587
-22.0734 97.9090 36.2299
-14.7381 97.9090 -7.5058
-17.5760 97.9090 -25.1194
21.3577 97.9090 26.0441
-18.7444 97.9090 36.0629
3.3704 97.9090 -15.4771
22.4992 97.9090 -56.6613
10.8902 97.9090 39.3444
20.3613 97.9090 -23.7165
22.4589 97.9090 23.9716
20.6851 97.9090 17.5393
-5.9376 97.9090 -19.8403
5.2616 97.9090 9.2324
9.8616 97.9090 12.0393
3.8252 97.9090 -46.9367
-17.7345 97.9090 -42.0018
0.2309 97.9090 46.9549
24.3497 97.9090 -40.8429
21.2402 97.9090 -19.4572
20.1891 97.9090 -14.1011
19.3408 97.9090 -46.5414
16.9723 97.9090 -48.0042
0.0474 97.9090 52.7199
-14.0548 97.9090 29.1980
10.8747 97.9090 55.9818
25.0609 97.9090 -3.5924
10.7162 97.9090 -22.7240
-5.5794 97.9090 47.7681
-12.9752 97.9090 6.7033
-6.6585 97.9090 24.5434
22.5416 97.9090 -14.8305
10.7345 97.9090 38.7614
-12.8840 97.9090 30.8311
11.7381 97.9090 -5.4592
-11.3837 97.9090 13.2326
18.0608 97.9090 -24.1786
11.8679 97.9090 -15.1872
0.6663 97.9090 8.9342
25.1511 97.9090 55.0155
-20.7306 97.9090 -7.8985
-1.7994 97.9090 -15.3245
1.1921 97.9090 -47.1267
3.6187 97.9090 -2.3361
-23.9702 97.9090 -21.4995
9.8022 97.9090 -1.6772
-7.7001 97.9090 -34.4791
4.1615 97.9090 55.9319
19.5297 97.9090 41.2439
13.4886 97.9090 23.4299
22.7741 97.9090 -52.7511
-3.4095 97.9090 9.4527
13.2605 97.9090 48.0565
4.1308 97.9090 32.5602
12.1747 97.9090 2.8579
5.0296 97.9090 10.0962
15.2646 97.9090 6.4482
-11.4923 97.9090 5.5571
-16.7784 97.9090 16.6581
21.6978 97.9090 -14.6954
-5.4516 97.9090 -3.4929
-1.6379 97.9090 -17.5643
-2.8807 97.9090 -16.6135
-23.4919 97.9090 -25.7319
20.0984 97.9090 51.7633
-4.0873 97.9090 14.8997
-18.6790 97.9090 -30.4683
-19.3757 97.9090 -11.6327
3.4989 97.9090 -23.8809
-12.8818 97.9090 -4.8971
-4.8588 97.9090 -36.9035
4.5096 97.9090 -48.6906
1.3065 97.9090 21.1227
-9.3655 97.9090 16.9340
2.3153 97.9090 -46.1938
10.4290 97.9090 17.3749
-7.3635 97.9090 -3.4262
-16.8681 97.9090 34.7708
10.0686 97.9090 -55.9245
-7.9224 -97.9090 32.7564
-2.1558 -97.9090 32.1091
-17.3897 -97.9090 -30.3126
13.2724 -97.9090 -30.1576
-20.3897 -97.9090 25.8180
-8.4741 -97.9090 51.9128
-14.2828 -97.9090 -0.9749
-17.4673 -97.9090 -55.8433
-6.3788 -97.9090 20.2531
-4.7829 -97.9090 -33.0806
14.4840 -97.9090 -19.4693
22.0316 -97.9090 -42.8573
1.2088 -97.9090 -7.1494
-8.8878 -97.9090 5.1538
-8.3191 -97.9090 12.8928
-22.1615 -97.9090 52.8611
20.7818 -97.9090 20.1730
25.0612 -97.9090 -8.3573
5.5742 -97.9090 -50.8293
1.6628 -97.9090 15.9136
1.1999 -97.9090 -40.5859
24.4786 -97.9090 -26.1530
22.3914 -97.9090 -23.9835
-9.9532 -97.9090 46.0338
24.2134 -97.9090 -15.0125
-15.3915 -97.9090 7.8282
6.5270 -97.9090 17.3162
-21.3660 -97.9090 -14.2070
-6.6925 -97.9090 -39.0823
-11.1811 -97.9090 -18.4882
3.6003 -97.9090 -14.0561
11.4885 -97.9090 -29.5708
10.5225 -97.9090 -21.6823
-4.7147 -97.9090 6.3606
-25.0143 -97.9090 26.9854
-3.3359 -97.9090 42.6642
-10.7162 -97.9090 -20.8305
4.3014 -97.9090 56.9359
11.8668 -97.9090 15.6953
-7.1236 -97.9090 45.5314
-19.8523 -97.9090 -24.4927
-25.2524 -97.9090 -49.6395
6.1511 -97.9090 -51.2877
-22.0577 -97.9090 -6.6630
18.6692 -97.9090 -5.1823
19.6238 -97.9090 11.1596
-3.5085 -97.9090 -19.3470
18.9916 -97.9090 23.4675
25.5991 -97.9090 -50.3025
3.9657 -97.9090 37.4602
-18.3490 -97.9090 -37.3867
16.1605 -97.9090 47.9250
-17.4325 -97.9090 -13.4283
-20.4126 -97.9090 28.7243
-13.3444 -97.9090 -20.0499
6.8151 -97.9090 -52.8229
-6.7336 -97.9090 -43.2433
-7.9376 -97.9090 -38.5245
-3.0456 -97.9090 -12.6219
-9.5828 -97.9090 23.2335
-12.6941 -97.9090 47.2177
6.5260 -97.9090 48.1594
-8.2004 -97.9090 -47.6235
21.8879 -97.9090 24.1606
-9.1142 -97.9090 -20.8223
4.3937 -97.9090 46.6767
17.9744 -97.9090 11.2116
6.2615 -97.9090 28.3695
-7.5614 -97.9090 44.9135
-6.2057 -97.9090 -49.2095
0.6940 -97.9090 -37.2057
0.6227 -97.9090 -3.3615
3.2083 -97.9090 -42.4583
-18.7334 -97.9090 -9.1654
1.7464 -97.9090 13.2904
-21.4834 -97.9090 41.2909
3.4950 -97.9090 33.9211
-23.0150 -97.9090 -44.2572
19.2747 -97.9090 -0.2997
-22.8282 -97.9090 -56.0784
10.0705 -97.9090 24.5690
-18.0711 -97.9090 5.3619
-3.7591 -97.9090 23.3067
16.1711 -97.9090 -19.2738
-8.1371 -97.9090 -44.3654
-10.9396 -97.9090 27.6626
21.7151 -97.9090 -6.7106
-26.1933 -97.9090 19.6146
-20.6507 -97.9090 -43.2492
-5.5723 -97.9090 -4.6456
25.3468 -97.9090 -2.7828
2.6517 -97.9090 -54.7335
13.5988 -97.9090 -1.3737
6.0615 -97.9090 -34.1826
22.4901 -97.9090 2.6452
-20.3912 -97.9090 50.4708
25.2864 -97.9090 4.6863
-9.4770 -97.9090 44.4824
8.8706 -97.9090 -33.0341
-20.0206 -97.9090 49.7064
-17.0233 -97.9090 38.2610
3.5947 -97.9090 50.6853
6.9130 -97.9090 -12.0285
21.7274 -97.9090 1.1932
11.8786 -97.9090 2.6554
21.3501 -97.9090 -30.5584
3.9188 -97.9090 -48.0136
3.0561 -97.9090 18.9676
-8.2343 -97.9090 -54.9739
11.6919 -97.9090 56.3526
19.9430 -97.9090 34.6798
-20.9875 -97.9090 -14.2201
-21.2492 -97.9090 -54.8045
-22.3382 -97.9090 7.0747
20.9143 -97.9090 -22.3678
25.2801 -97.9090 -23.8039
-22.8235 -97.9090 -46.2585
11.4455 -97.9090 42.7426
3.3795 -97.9090 -15.8282
-18.4926 -97.9090 -27.1592
-12.1892 -97.9090 -3.7019
-22.2666 -97.9090 3.6477
5.1315 -97.9090 29.3858
12.4963 -97.9090 -51.2797
-5.4734 -97.9090 32.3220
-15.2810 -97.9090 28.2480
24.2233 -97.9090 -52.4207
14.3877 -97.9090 51.8483
-12.2706 -97.9090 -7.1981
-22.4379 -97.9090 -57.3041
-4.3430 -97.9090 9.7331
0.2286 -97.9090 27.1890
8.9507 -97.9090 -13.2764
9.9795 -97.9090 -40.4360
-6.8298 -97.9090 44.0908
-7.0245 -97.9090 -16.1727
-19.0988 -97.9090 22.3181
-0.4642 -97.9090 49.1134
-24.8973 -97.9090 35.8051
-15.9653 -97.9090 -29.7658
-1.1002 -97.9090 -8.4886
8.1858 -97.9090 -29.7414
6.7761 -97.9090 27.8313
3.4804 -97.9090 -40.2079
7.5546 -97.9090 53.7340
8.9848 -97.9090 -1.7347
16.6326 -97.9090 7.0374
-21.6051 -97.9090 7.2797
-18.9613 -97.9090 -36.6359
0.2358 -97.9090 -46.1701
-16.9714 -97.9090 37.3132
11.4026 -97.9090 -39.2938
11.0378 -97.9090 44.1563
-1.1679 -97.9090 57.2108
16.6575 -97.9090 -28.0622
12.5577 -97.9090 -36.4074
-23.3857 -97.9090 -31.1090
-18.4337 -97.9090 -6.5155
-4.7966 -97.9090 8.2179
-25.7824 -97.9090 -8.4824
-24.8447 -97.9090 28.0135
-25.4254 -97.9090 -41.2686
-3.4655 -97.9090 -54.7761
-2.7543 -97.9090 -3.5961
-22.2700 -97.9090 36.6052
6.3226 -97.9090 -36.4886
-24.7374 -97.9090 26.3753
6.0740 -97.9090 7.6963
14.4611 -97.9090 45.2552
2.1122 -97.9090 -2.1339
25.1155 -97.9090 38.4181
-0.7172 -59.6799 57.5142
-15.3070 53.1868 57.5142
5.2602 -68.0915 57.5142
9.3333 31.9070 57.5142
20.1902 -10.1642 57.5142
-2.6752 -54.9675 57.5142
23.3965 -52.6233 57.5142
-18.2841 -14.1620 57.5142
5.6697 75.3731 57.5142
-1.4214 -73.7541 57.5142
-1.3235 -68.5799 57.5142
-20.7821 94.5427 57.5142
-26.3268 -90.5796 57.5142
17.1913 -70.0396 57.5142
14.1580 -16.8961 57.5142
-2.8114 -64.4379 57.5142
-9.1896 13.0320 57.5142
21.3610 -54.5031 57.5142
20.9205 24.8144 57.5142
11.2654 -33.6553 57.5142
8.5967 45.6322 57.5142
11.3829 11.4030 57.5142
-15.3663 20.5352 57.5142
25.0512 -47.1904 57.5142
-21.7934 -54.9615 57.5142
1.8964 63.7545 57.5142
0.3073 -56.4937 57.5142
10.8424 -80.8920 57.5142
6.3613 88.8498 57.5142
-11.2170 67.1617 57.5142
-4.0472 -63.3629 57.5142
9.6666 48.3852 57.5142
-5.2133 33.1724 57.5142
-6.3529 -58.5288 57.5142
-24.1730 -44.9036 57.5142
-5.9403 -6.2771 57.5142
-19.2736 -7.7543 57.5142
21.5314 62.0213 57.5142
25.4864 16.8611 57.5142
-12.4072 88.7011 57.5142
-19.9097 -39.1246 57.5142
-21.7324 -34.4486 57.5142
11.3723 -52.4239 57.5142
-20.5823 -26.3042 57.5142
13.0060 -47.5577 57.5142
-11.1091 -16.3096 57.5142
5.6202 45.6564 57.5142
19.3599 8.9725 57.5142
-1.2980 38.2413 57.5142
9.1585 57.2288 57.5142
-6.5325 6.9210 57.5142
0.3213 0.7211 57.5142
-12.0123 -23.7905 57.5142
24.6464 -93.5566 57.5142
-9.5852 -85.0052 57.5142
-17.0373 -7.6041 57.5142
-13.1874 72.0836 57.5142
25.7553 30.0951 57.5142
10.2712 -59.3533 57.5142
-8.1227 95.4192 57.5142
-16.5468 34.6247 57.5142
-0.9575 66.2212 57.5142
-19.6104 -33.0071 57.5142
12.3589 -54.0973 57.5142
6.5196 46.3052 57.5142
-9.4576 44.2799 57.5142
-7.8394 44.4240 57.5142
9.1898 30.5300 57.5142
12.7223 -78.4368 57.5142
-21.5918 -92.8454 57.5142
-20.8372 -94.1220 57.5142
4.7308 -55.1115 57.5142
14.6021 15.2467 57.5142
-14.2781 57.6622 57.5142
14.6284 -60.7896 57.5142
4.2872 -70.9495 57.5142
-14.0073 -56.6746 57.5142
18.3920 -41.8921 57.5142
0.5774 -89.8096 57.5142
-6.1978 18.8843 57.5142
-4.2975 61.0864 57.5142
10.6646 43.5788 57.5142
17.2669 21.5745 57.5142
4.7358 54.8053 57.5142
-24.6043 27.3948 57.5142
-6.9500 12.7017 57.5142
-8.8405 67.8616 57.5142
-15.0491 -48.7481 57.5142
-15.2893 -14.9592 57.5142
15.6009 50.7385 57.5142
8.3816 -91.4750 57.5142
17.1917 -35.5355 57.5142
9.3745 0.4109 57.5142
2.6855 -9.3650 57.5142
9.1773 29.8000 57.5142
15.5106 -60.3573 57.5142
26.2921 32.6073 57.5142
16.7691 -53.4900 57.5142
-11.8363 22.2487 57.5142
-11.2822 -44.6979 57.5142
9.5795 49.7124 57.5142
-2.4483 -20.5005 57.5142
-10.1151 21.5669 57.5142
0.6777 36.8429 57.5142
-2.1726 53.3843 57.5142
-12.2029 0.2219 57.5142
-12.0881 -77.3681 57.5142
0.0793 -20.3813 57.5142
-6.2135 -43.9268 57.5142
12.8022 -48.7974 57.5142
-4.2411 96.4245 57.5142
11.2323 81.1599 57.5142
9.0167 -96.9554 57.5142
8.9499 -1.8993 57.5142
-21.5322 52.5582 57.5142
9.3039 -45.5800 57.5142
0.2809 -61.0265 57.5142
16.3639 76.1034 57.5142
19.0454 -41.4062 57.5142
-3.8950 61.2287 57.5142
-15.6865 14.5752 57.5142
18.3192 17.6331 57.5142
2.8393 69.7901 57.5142
-0.9368 86.0551 57.5142
18.9703 46.0339 57.5142
22.6352 -8.8808 57.5142
-4.1204 -78.0474 57.5142
-23.0912 -4.3647 57.5142
-10.1640 -9.1112 57.5142
4.2532 -69.3754 57.5142
20.2836 -56.2737 57.5142
-15.1893 20.0082 57.5142
9.4674 -20.3036 57.5142
-2.7673 -36.1845 57.5142
-15.7546 -40.8255 57.5142
-24.5165 32.4742 57.5142
13.7073 -89.0055 57.5142
8.6769 -42.6906 57.5142
0.7892 91.1005 57.5142
-12.0515 90.5300 57.5142
-7.2324 -95.8380 57.5142
19.6114 -23.4018 57.5142
12.2619 55.9312 57.5142
11.6274 23.6417 57.5142
-5.4213 89.6726 57.5142
2.2232 -17.4351 57.5142
-14.4985 -95.6827 57.5142
19.9291 15.2799 57.5142
20.6965 23.0572 57.5142
-7.7169 77.2660 57.5142
-7.4330 -28.9691 57.5142
-15.9511 -21.8066 57.5142
-16.4192 -23.4632 57.5142
-24.9411 -48.5758 57.5142
-15.8332 47.1730 57.5142
8.0970 -35.5117 57.5142
3.1673 84.4968 57.5142
-17.5912 74.2762 57.5142
-1.6741 -48.1059 57.5142
16.2307 -75.8969 57.5142
-25.2138 -75.3334 57.5142
-21.6415 32.0072 57.5142
-21.8705 38.5945 57.5142
10.8507 -31.9002 57.5142
-7.5366 -60.1091 57.5142
19.3672 -65.6919 57.5142
-10.8943 1.0937 57.5142
20.0512 29.6254 57.5142
-1.2364 -56.6145 57.5142
3.9636 3.8502 57.5142
15.2829 26.1989 -57.5142
23.0566 -95.0435 -57.5142
-20.0529 92.8477 -57.5142
18.7463 5.1152 -57.5142
-9.1717 73.7606 -57.5142
0.0773 -38.8134 -57.5142
-21.1188 88.1332 -57.5142
18.1983 29.3021 -57.5142
23.8047 -19.7721 -57.5142
24.6740 5.7951 -57.5142
17.9575 46.1104 -57.5142
-8.0530 -12.1296 -57.5142
11.2389 50.2226 -57.5142
0.2433 -55.8738 -57.5142
15.8331 85.6458 -57.5142
24.6665 44.1729 -57.5142
5.2209 -91.0287 -57.5142
-4.9549 88.3157 -57.5142
25.5726 48.8853 -57.5142
6.3887 -4.4192 -57.5142
0.5156 -29.2326 -57.5142
-3.8102 42.3566 -57.5142
18.3233 -34.2489 -57.5142
-25.0837 60.9795 -57.5142
14.6109 71.0837 -57.5142
23.9967 64.7313 -57.5142
-22.4753 -15.7655 -57.5142
7.1109 -68.5495 -57.5142
-7.6528 30.4805 -57.5142
-8.5478 12.6613 -57.5142
-7.5216 -13.5923 -57.5142
4.0982 8.2274 -57.5142
-4.8548 -46.7449 -57.5142
24.5185 -22.7484 -57.5142
-17.8590 -40.2364 -57.5142
-4.9769 3.9301 -57.5142
16.3570 8.2845 -57.5142
6.8361 65.5180 -57.5142
6.9164 -63.3268 -57.5142
14.2690 25.3360 -57.5142
-0.8872 -85.3822 -57.5142
-18.7426 21.5075 -57.5142
2.8027 -33.2784 -57.5142
23.8767 -72.5176 -57.5142
-26.3005 -70.8084 -57.5142
4.1855 -8.1057 -57.5142
14.5413 79.3632 -57.5142
2.0773 53.5538 -57.5142
12.5831 -28.0708 -57.5142
2.2575 33.4514 -57.5142
-24.6224 86.0027 -57.5142
0.9418 90.7686 -57.5142
-9.4421 25.1628 -57.5142
9.2369 91.3552 -57.5142
-2.8095 20.8495 -57.5142
15.1839 50.6588 -57.5142
4.6165 -5.2860 -57.5142
-21.1448 -27.9499 -57.5142
-3.7124 59.2189 -57.5142
-18.9404 -79.4118 -57.5142
0.2535 -35.7421 -57.5142
6.4739 1.2068 -57.5142
18.4050 -77.4572 -57.5142
10.4016 34.4674 -57.5142
-20.2319 73.0694 -57.5142
-9.9611 -7.6908 -57.5142
-19.1081 -78.6730 -57.5142
-10.7557 -36.9868 -57.5142
-0.0826 70.9776 -57.5142
21.4055 -59.5614 -57.5142
8.1839 -80.1572 -57.5142
-4.9165 46.9478 -57.5142
9.9037 57.3583 -57.5142
-16.2497 30.8322 -57.5142
-17.3919 77.9938 -57.5142
4.4408 -7.5070 -57.5142
-12.7787 -59.8708 -57.5142
11.0603 -5.8615 -57.5142
-22.1842 -4.1515 -57.5142
-0.8304 38.7928 -57.5142
-7.9752 -2.5050 -57.5142
-4.6372 -62.9068 -57.5142
-9.3297 42.5277 -57.5142
-4.7537 41.8560 -57.5142
15.6977 -52.3640 -57.5142
13.4988 -66.1338 -57.5142
19.1419 -6.6479 -57.5142
-7.2190 -52.6784 -57.5142
2.8246 -75.5506 -57.5142
-2.8720 58.1699 -57.5142
-16.0794 28.2300 -57.5142
0.9115 -91.7482 -57.5142
17.9416 -97.4628 -57.5142
20.8047 -58.1485 -57.5142
-22.7595 12.2446 -57.5142
-5.1307 -73.1508 -57.5142
10.1011 -45.6156 -57.5142
10.4876 -35.6359 -57.5142
-25.8638 63.4789 -57.5142
14.6629 61.0487 -57.5142
5.1799 53.7078 -57.5142
22.4702 28.8567 -57.5142
4.9655 88.8982 -57.5142
5.7800 82.2984 -57.5142
-14.5397 9.2236 -57.5142
-7.1260 14.8049 -57.5142
22.0774 -21.2794 -57.5142
-16.8153 42.8266 -57.5142
-5.3747 -29.1024 -57.5142
11.2254 -59.2809 -57.5142
-8.2966 -23.6814 -57.5142
14.5080 -45.5805 -57.5142
8.9993 -36.0526 -57.5142
15.3854 0.6760 -57.5142
-22.1182 -17.4278 -57.5142
9.8507 -58.9863 -57.5142
-16.9135 85.6332 -57.5142
2.5763 -22.8918 -57.5142
1.4918 65.8345 -57.5142
-6.1273 -44.3697 -57.5142
-13.5584 56.6088 -57.5142
9.3509 -64.7463 -57.5142
-25.9560 4.5645 -57.5142
17.5023 -48.1728 -57.5142
4.2140 -1.5132 -57.5142
18.4351 77.4803 -57.5142
26.0303 20.6795 -57.5142
9.1089 88.1285 -57.5142
-17.3172 -82.3628 -57.5142
10.3682 -21.9654 -57.5142
7.6250 64.0286 -57.5142
12.0451 -51.9032 -57.5142
-8.8946 -3.7914 -57.5142
-25.6637 34.6228 -57.5142
-20.6151 48.3656 -57.5142
17.6082 -41.5281 -57.5142
-8.1695 -9.7644 -57.5142
-22.1433 8.8001 -57.5142
-11.3468 50.8674 -57.5142
-12.4423 34.2210 -57.5142
-13.6687 -27.3498 -57.5142
16.6212 52.5032 -57.5142
-5.6284 -94.4429 -57.5142
-6.6104 -61.4250 -57.5142
18.6025 -49.3476 -57.5142
9.4839 -37.5449 -57.5142
21.9098 88.1131 -57.5142
-14.8708 -69.7437 -57.5142
24.8382 68.2463 -57.5142
14.6160 54.9242 -57.5142
-23.5897 42.5205 -57.5142
3.9573 90.3092 -57.5142
13.5148 42.2908 -57.5142
-17.8827 31.5553 -57.5142
-10.4002 -79.2933 -57.5142
8.1796 -49.0758 -57.5142
-21.4499 83.4825 -57.5142
-17.0710 -50.1600 -57.5142
-26.1558 25.7371 -57.5142
14.5201 -18.0094 -57.5142
8.2106 88.2063 -57.5142
-6.7513 -88.1827 -57.5142
9.0231 39.0361 -57.5142
-25.4507 -47.7977 -57.5142
-15.9454 53.4015 -57.5142
19.9544 6.6401 -57.5142
25.9038 -9.4439 -57.5142
-9.1685 55.6853 -57.5142
25.5508 -10.7377 -57.5142
0.3759 39.9575 -57.5142
