ply
format ascii 1.0
element vertex 1024
property float x
property float y
property float z
end_header
75.6538 -0.7035 40.8458
75.6538 6.7849 35.6375
75.6538 -45.1969 -5.3449
75.6538 12.1308 -52.1388
75.6538 -19.4596 -65.3877
75.6538 37.0762 50.3211
75.6538 28.7541 -34.2787
75.6538 34.4547 41.5668
75.6538 -32.8514 -66.9405
75.6538 33.0205 -15.9322
75.6538 -7.9341 -66.5135
75.6538 -18.8486 26.4875
75.6538 -34.6589 -57.5745
75.6538 -37.2260 24.6085
75.6538 25.4064 -45.7706
75.6538 38.4424 -27.3433
75.6538 -47.8144 -17.5899
75.6538 22.6932 38.9593
75.6538 -25.9383 13.6757
75.6538 48.4673 -71.7446
75.6538 -26.5329 -38.8551
75.6538 -5.3334 40.4702
75.6538 18.5395 63.8139
75.6538 23.5445 -42.6184
75.6538 35.5264 18.8781
75.6538 -42.7507 1.8296
75.6538 -48.4363 69.9089
75.6538 6.2946 32.1766
75.6538 -6.1707 -30.7621
75.6538 -49.8035 54.7013
75.6538 -5.9941 29.3663
75.6538 14.9298 55.7983
75.6538 -42.0127 -38.4755
75.6538 -42.5359 -9.2572
75.6538 38.3464 -51.0604
75.6538 17.2567 -0.7828
75.6538 47.8832 -50.3372
75.6538 30.5727 -18.7765
75.6538 7.2469 -65.6017
75.6538 35.5188 25.2627
75.6538 -10.8891 33.8438
75.6538 -31.0782 -23.2869
75.6538 10.8599 64.9925
75.6538 -27.4357 -21.7228
75.6538 39.8126 -41.1512
75.6538 -20.4589 -49.2318
75.6538 39.9630 54.5462
75.6538 -25.2974 -11.3232
75.6538 22.2163 52.2309
75.6538 -37.5474 -36.2977
75.6538 0.2078 -47.5435
75.6538 29.2807 26.3675
75.6538 -5.5152 -19.8267
75.6538 30.1884 -44.3145
75.6538 37.6050 -20.9484
75.6538 -29.2858 22.4800
75.6538 43.2365 20.8571
75.6538 4.7509 -24.0412
75.6538 36.4184 67.6921
75.6538 -1.8822 56.9072
75.6538 -29.3854 62.2897
75.6538 0.5509 -30.5178
75.6538 -20.7758 40.7172
75.6538 23.2030 -43.6151
75.6538 -19.0839 -33.4487
75.6538 -15.3996 64.0148
75.6538 15.6206 -16.4032
75.6538 15.6222 -27.0570
75.6538 12.3291 -10.2711
75.6538 -39.2612 -44.8415
75.6538 21.2868 -63.9557
75.6538 24.6286 -32.8288
75.6538 23.3851 -22.0404
75.6538 -33.6593 64.8724
75.6538 -49.2322 -4.3755
75.6538 8.8094 31.5891
75.6538 -25.4565 -50.2975
75.6538 -10.5619 -22.5840
75.6538 -35.8329 35.2688
75.6538 -10.8843 -19.7706
75.6538 -46.7183 13.8641
75.6538 26.7001 19.7831
75.6538 -42.3398 -52.1587
75.6538 35.5991 66.1271
75.6538 -4.9295 -21.0566
75.6538 23.1292 57.2219
75.6538 15.5417 42.6435
75.6538 -44.9280 55.9127
75.6538 -15.3494 -53.8600
75.6538 40.2309 3.7734
75.6538 -33.1184 6.3613
75.6538 -38.6627 2.4654
75.6538 -49.9857 49.8674
75.6538 41.2021 16.1471
75.6538 -14.7078 -28.3261
75.6538 -5.2950 11.3154
75.6538 24.7161 36.2690
75.6538 -15.8937 -37.6530
75.6538 -13.2325 17.3837
75.6538 24.9529 -3.6252
75.6538 -13.8993 -61.4037
75.6538 -15.5836 62.3606
75.6538 -11.3901 -0.7201
75.6538 20.6193 56.4253
75.6538 -2.2776 40.8637
75.6538 -13.9247 -30.5062
75.6538 -19.8570 -31.9033
75.6538 0.8279 -34.2647
75.6538 20.5770 -41.4941
75.6538 12.6175 15.8287
75.6538 46.5910 -34.3036
75.6538 -37.4074 10.7404
75.6538 -28.5539 -34.0952
75.6538 -8.6428 29.8289
75.6538 46.5105 -62.9559
75.6538 -20.1537 -17.2903
75.6538 -17.6406 -18.3706
75.6538 41.4974 20.4231
75.6538 0.8753 -10.9558
75.6538 -10.9994 38.9878
75.6538 6.4414 -18.9973
75.6538 3.2214 71.3125
75.6538 45.4330 -63.8707
75.6538 28.1327 -62.8804
75.6538 -26.9773 -13.8632
75.6538 42.6711 24.4178
75.6538 -4.6982 -71.3909
75.6538 -11.0921 -33.8542
75.6538 17.0566 44.9567
75.6538 -39.0265 -61.2710
75.6538 -21.5071 -45.1522
75.6538 17.5840 71.6768
75.6538 -19.1534 20.0514
75.6538 -23.0412 68.1673
75.6538 45.1353 0.5032
75.6538 14.9476 56.7873
75.6538 0.1280 -52.6559
75.6538 35.6845 13.0952
75.6538 -3.6936 59.6242
75.6538 39.1681 63.2135
75.6538 41.9134 -22.2608
75.6538 1.2166 -68.1107
75.6538 43.8648 6.0871
75.6538 -41.3289 -4.1661
75.6538 -47.6232 -41.4118
75.6538 29.1663 -5.0292
75.6538 30.7831 62.1974
75.6538 1.5371 -28.5001
75.6538 47.2175 26.7277
75.6538 -32.9220 -4.2787
75.6538 -38.4675 -32.4492
75.6538 -6.4367 68.4059
75.6538 23.7049 -3.6744
75.6538 24.2997 -39.9446
75.6538 -29.3487 -52.0729
75.6538 11.3532 57.7870
75.6538 -15.5911 2.9676
75.6538 -13.7923 -39.1835
75.6538 47.8052 -60.8564
75.6538 -21.6693 -46.3101
75.6538 27.3862 -11.7846
75.6538 -38.7048 19.5598
75.6538 35.8510 -67.3217
75.6538 -30.2559 -49.9819
75.6538 -25.8325 -15.0081
75.6538 16.7572 -61.3795
75.6538 3.8019 -58.9363
75.6538 27.6498 -40.4449
75.6538 -11.9343 -59.5470
75.6538 -12.2401 65.7728
75.6538 -47.0008 -39.4380
-75.6538 29.6919 -23.3605
-75.6538 0.7271 10.9985
-75.6538 9.4606 14.3707
-75.6538 -26.6359 55.9027
-75.6538 -16.1395 -67.4577
-75.6538 -30.2376 -46.1105
-75.6538 -50.0706 40.5007
-75.6538 -36.6769 30.4000
-75.6538 -43.3874 -26.1419
-75.6538 9.2299 -4.2321
-75.6538 38.5106 -70.0321
-75.6538 -33.3495 24.1019
-75.6538 15.3288 43.1824
-75.6538 4.9266 33.8486
-75.6538 50.0456 17.9588
-75.6538 4.3967 40.8755
-75.6538 38.7358 -15.5640
-75.6538 -29.8671 -29.4019
-75.6538 -13.2180 -69.1553
-75.6538 25.6175 72.6245
-75.6538 8.2999 72.0806
-75.6538 42.5455 -71.0444
-75.6538 -10.1575 27.0889
-75.6538 -47.0148 0.7755
-75.6538 -14.1327 -2.7608
-75.6538 -29.2180 -28.5000
-75.6538 40.0571 -8.0950
-75.6538 -26.0631 -50.5364
-75.6538 2.5008 28.7495
-75.6538 -0.8824 63.1588
-75.6538 16.3351 -34.5463
-75.6538 38.5638 -58.6711
-75.6538 25.6127 30.4075
-75.6538 39.5770 -56.5762
-75.6538 26.6764 -47.2940
-75.6538 20.7005 -71.7658
-75.6538 16.1762 -51.8297
-75.6538 15.5662 11.2625
-75.6538 -22.9303 -36.6109
-75.6538 45.2630 13.4278
-75.6538 -26.7371 -31.3776
-75.6538 6.4303 -0.2954
-75.6538 28.6625 -61.4175
-75.6538 -2.2889 64.0163
-75.6538 -23.9493 10.9334
-75.6538 9.8056 63.4529
-75.6538 23.3789 63.5217
-75.6538 49.8981 -40.3313
-75.6538 45.7952 -26.0001
-75.6538 -35.9933 63.9688
-75.6538 45.8544 -8.9801
-75.6538 24.0382 -10.2663
-75.6538 39.4818 30.2448
-75.6538 -40.5115 -32.1714
-75.6538 -44.8675 56.4072
-75.6538 13.7658 -41.5798
-75.6538 29.1807 3.7899
-75.6538 -30.0752 65.6099
-75.6538 25.0535 67.0864
-75.6538 36.1993 -12.7544
-75.6538 31.2878 -4.2747
-75.6538 12.5681 -58.6068
-75.6538 -4.5820 -71.3224
-75.6538 32.7100 40.6038
-75.6538 -2.0213 -13.9269
-75.6538 26.7417 38.5322
-75.6538 -45.7335 -46.3435
-75.6538 30.7831 69.3771
-75.6538 -4.8454 29.9298
-75.6538 -34.3532 -60.9202
-75.6538 15.3386 29.6747
-75.6538 -32.0580 41.5600
-75.6538 41.5559 -60.9610
-75.6538 11.2735 32.2662
-75.6538 44.5116 11.6543
-75.6538 -18.2684 -19.4137
-75.6538 47.5388 -50.8245
-75.6538 -24.5236 -42.3948
-75.6538 49.8072 41.2882
-75.6538 -25.9246 -25.6452
-75.6538 -17.1858 -47.2381
-75.6538 41.9479 55.0523
-75.6538 -31.1820 -11.4076
-75.6538 -3.9617 -63.6684
-75.6538 -20.2809 25.0286
-75.6538 -49.0085 -55.5125
-75.6538 8.1089 8.5690
-75.6538 7.9525 41.6175
-75.6538 49.4324 55.4329
-75.6538 -22.6108 49.2577
-75.6538 25.8191 31.3481
-75.6538 -19.5998 4.3355
-75.6538 35.0320 -39.2375
-75.6538 -23.6227 59.8244
-75.6538 31.8403 -23.8371
-75.6538 -32.3333 24.6260
-75.6538 30.1215 -25.8369
-75.6538 -26.7919 64.6706
-75.6538 15.1527 -51.4414
-75.6538 -15.8386 -67.2644
-75.6538 19.1365 -10.8399
-75.6538 5.6094 -9.0845
-75.6538 49.5712 -7.2820
-75.6538 -44.4254 -51.2295
-75.6538 -10.3736 43.9712
-75.6538 -14.6487 0.1988
-75.6538 42.6890 5.2939
-75.6538 -11.0285 61.4848
-75.6538 5.4065 46.9677
-75.6538 -44.4134 -66.4170
-75.6538 11.6519 25.8108
-75.6538 21.6716 34.1519
-75.6538 29.5329 0.9962
-75.6538 -43.4204 61.5962
-75.6538 26.3460 61.5122
-75.6538 30.1260 61.4045
-75.6538 -17.6796 -41.3069
-75.6538 -49.9567 1.3109
-75.6538 -28.8980 63.9698
-75.6538 -45.9320 -44.7236
-75.6538 22.1691 7.9408
-75.6538 35.2546 27.1518
-75.6538 41.7683 51.3233
-75.6538 -25.6922 50.4673
-75.6538 -26.4250 53.0891
-75.6538 45.3211 35.9688
-75.6538 -20.2918 -19.8766
-75.6538 -28.9386 24.1074
-75.6538 -26.4636 64.6399
-75.6538 17.5066 -21.1091
-75.6538 4.7331 62.7010
-75.6538 18.9771 -26.5224
-75.6538 2.6292 -61.0909
-75.6538 11.3598 -0.2189
-75.6538 -10.5161 72.2009
-75.6538 11.6363 -57.8558
-75.6538 -26.1530 59.2682
-75.6538 -25.4980 48.0725
-75.6538 45.2117 -11.5613
-75.6538 -47.2961 -49.9136
-75.6538 0.7185 8.3582
-75.6538 16.4829 -47.3622
-75.6538 39.0095 65.5125
-75.6538 -0.9236 20.9113
-75.6538 48.8378 -57.7666
-75.6538 15.9168 -23.7564
-75.6538 -41.7238 -16.3195
-75.6538 -27.0741 -36.9868
-75.6538 46.2365 31.0046
-75.6538 17.8857 40.9376
-75.6538 -8.6607 -54.4500
-75.6538 28.4328 9.1371
-75.6538 -19.6202 -27.9837
-75.6538 3.8829 -22.5049
-75.6538 -12.6446 10.1437
-75.6538 -23.5359 52.0447
-75.6538 -5.5696 -72.5418
-75.6538 -14.9425 -10.0219
-75.6538 24.1502 58.3697
-75.6538 -36.3710 30.0388
-75.6538 15.7620 -48.6592
-75.6538 -17.0711 66.2972
-75.6538 38.8594 -14.0462
-75.6538 -26.6593 -35.3118
-75.6538 45.2433 50.2639
-75.6538 -39.4862 7.9188
-75.6538 2.7360 -26.1476
-75.6538 -48.0797 23.8944
-75.6538 -20.9473 0.0580
-75.6538 7.9981 38.1687
-75.6538 40.8313 -43.2317
43.6386 50.3507 -35.4169
-5.5631 50.3507 0.4314
-26.0304 50.3507 52.7856
35.1316 50.3507 2.1688
-13.0363 50.3507 12.0371
-71.7472 50.3507 -28.8293
-24.3780 50.3507 -36.3178
40.2565 50.3507 -15.4832
-67.7318 50.3507 68.6787
30.0845 50.3507 -55.3512
0.1220 50.3507 11.1668
32.6293 50.3507 47.2062
-72.4129 50.3507 -35.5599
70.8587 50.3507 7.9719
21.7859 50.3507 61.1597
-60.6215 50.3507 -31.7564
25.7330 50.3507 -41.3389
16.9405 50.3507 66.0845
68.8888 50.3507 7.7554
-41.0059 50.3507 68.7986
46.2112 50.3507 -2.3772
-61.2101 50.3507 -32.8939
28.3333 50.3507 32.7858
-3.2813 50.3507 -42.4579
-68.3035 50.3507 40.3680
-43.2851 50.3507 35.1884
56.4422 50.3507 -28.1997
-55.0627 50.3507 68.0324
17.5292 50.3507 21.1131
12.6788 50.3507 5.2931
45.0653 50.3507 -62.6155
17.7706 50.3507 -15.2102
56.5718 50.3507 43.0657
34.9872 50.3507 -24.2680
27.9157 50.3507 11.5002
33.0302 50.3507 65.7145
-66.9322 50.3507 11.2386
71.6533 50.3507 41.4649
19.4005 50.3507 38.5606
-56.7557 50.3507 -23.0407
-0.9531 50.3507 -47.5153
-43.8137 50.3507 -23.9443
63.6609 50.3507 57.4689
68.4412 50.3507 -71.6449
21.4813 50.3507 -7.7899
49.7153 50.3507 -37.7938
40.3312 50.3507 -5.4750
38.7536 50.3507 34.8467
-19.3166 50.3507 -32.9527
-75.2624 50.3507 26.6704
37.3704 50.3507 11.0576
21.1222 50.3507 17.7244
10.7553 50.3507 -41.7765
31.1544 50.3507 -29.1654
27.7141 50.3507 -64.3358
61.3324 50.3507 28.7064
36.0569 50.3507 -24.1961
44.6955 50.3507 25.9906
-38.9164 50.3507 50.0075
74.9310 50.3507 -38.7718
64.6435 50.3507 49.5454
-72.6502 50.3507 -66.4303
53.3416 50.3507 -67.4315
-3.1172 50.3507 42.6282
-10.4542 50.3507 25.0515
40.9568 50.3507 -47.4475
32.3152 50.3507 -9.2653
19.5461 50.3507 22.6354
12.4680 50.3507 46.4006
-41.3775 50.3507 20.7465
-66.3181 50.3507 38.1936
54.9012 50.3507 -5.5185
-59.6031 50.3507 59.6722
-74.7786 50.3507 37.9417
14.6727 50.3507 60.0701
75.4882 50.3507 -2.4617
25.7631 50.3507 -60.4306
10.5280 50.3507 -67.2935
41.5504 50.3507 28.4668
-4.6220 50.3507 -58.1791
14.9051 50.3507 20.1150
-31.6625 50.3507 29.8448
-20.0500 50.3507 -7.7348
68.2863 50.3507 20.7002
-39.1028 50.3507 65.2408
73.7649 50.3507 -63.3028
-31.8174 50.3507 -33.2200
56.4733 50.3507 -6.8875
-22.1611 50.3507 68.7395
-70.3772 50.3507 60.5496
13.3228 50.3507 -69.6319
58.3534 50.3507 -71.5915
11.3904 50.3507 -52.7918
19.3940 50.3507 -70.8705
-42.2889 50.3507 -45.5234
-66.6425 50.3507 -6.2425
-40.7196 50.3507 17.6744
40.1073 50.3507 30.6528
-6.8551 50.3507 5.1608
53.6981 50.3507 -69.2298
44.4409 50.3507 -57.4746
-28.0656 50.3507 8.4671
7.2726 50.3507 -7.2856
28.3743 50.3507 -19.4829
45.8838 50.3507 -19.4350
53.4400 50.3507 25.8396
-30.4557 50.3507 -15.7648
70.8495 50.3507 13.9553
19.2723 50.3507 26.1057
-54.9234 50.3507 18.1368
-29.8155 50.3507 -16.3830
13.6525 50.3507 66.9659
67.5980 50.3507 -31.9326
58.1127 50.3507 29.1674
51.0666 50.3507 64.7647
44.2768 50.3507 48.1232
-73.7976 50.3507 -66.4003
13.5082 50.3507 27.1908
-74.5772 50.3507 37.2652
2.8854 50.3507 49.7107
-33.5761 50.3507 -71.5594
26.2526 50.3507 10.4588
-23.8564 50.3507 -9.6350
-48.0057 50.3507 22.2256
-58.2432 50.3507 -13.7695
-1.5696 50.3507 -14.5921
61.7814 50.3507 52.4939
45.9879 50.3507 55.1320
39.7306 50.3507 -56.2694
53.6111 50.3507 5.5226
-17.5053 50.3507 -43.1109
-23.9623 50.3507 24.7072
-63.8205 50.3507 -32.5653
-25.7220 50.3507 70.2959
27.8673 50.3507 -27.7147
-19.8474 50.3507 -36.1221
33.4404 50.3507 39.7434
-72.8423 50.3507 22.7018
29.1609 50.3507 36.3774
6.7829 50.3507 56.7440
-52.9132 50.3507 42.5879
-1.4653 50.3507 -54.1980
-63.0146 50.3507 61.7728
44.0102 50.3507 -8.1963
-11.1838 50.3507 28.4436
-65.7475 50.3507 37.1431
-71.9933 50.3507 5.3632
-40.9194 50.3507 70.8332
27.8082 50.3507 -55.8888
5.0121 50.3507 16.4108
52.1436 50.3507 -19.0740
-68.9201 50.3507 62.0203
65.9458 50.3507 -21.1012
-23.3789 50.3507 -24.5481
-19.1137 50.3507 30.7194
22.7219 50.3507 25.5716
28.9528 50.3507 -66.5487
33.7657 50.3507 58.1647
51.7925 50.3507 10.6712
-15.5620 50.3507 -32.5796
-46.8473 50.3507 -1.7049
-29.4799 50.3507 56.4123
-67.9646 50.3507 -57.0770
-2.8168 50.3507 -9.7765
-50.6330 50.3507 -10.8986
34.5155 50.3507 -28.9265
-1.5189 50.3507 -49.8905
-59.2406 50.3507 46.0011
-51.4830 50.3507 15.9031
40.8544 50.3507 -69.6199
30.3146 50.3507 34.5463
12.8814 -50.3507 -35.9307
64.4373 -50.3507 65.8015
-17.0036 -50.3507 -30.9146
-74.1069 -50.3507 33.8313
-27.6425 -50.3507 15.4921
60.8038 -50.3507 -40.6997
-24.8505 -50.3507 16.2920
41.1895 -50.3507 17.4780
52.7472 -50.3507 8.9769
-8.5725 -50.3507 -0.9151
68.5337 -50.3507 -42.4102
-55.9166 -50.3507 -39.7979
10.9742 -50.3507 -63.6523
60.9643 -50.3507 -22.5187
50.4915 -50.3507 -69.2534
74.5769 -50.3507 -36.5275
21.7973 -50.3507 -52.5595
26.0172 -50.3507 4.4331
67.8731 -50.3507 48.0363
57.5732 -50.3507 28.8524
-60.9591 -50.3507 22.6025
18.8005 -50.3507 54.7500
-17.3406 -50.3507 -49.7962
-38.2271 -50.3507 -19.3452
-24.7513 -50.3507 -43.3781
-21.1653 -50.3507 -6.4633
4.2215 -50.3507 51.5859
-48.8581 -50.3507 59.5784
37.8805 -50.3507 -1.8778
19.6029 -50.3507 69.3414
-26.5154 -50.3507 -46.0153
-66.5901 -50.3507 35.7941
-14.6816 -50.3507 -49.7334
33.1328 -50.3507 61.4502
70.6625 -50.3507 -44.5339
-1.2475 -50.3507 -28.9611
22.5080 -50.3507 -20.0971
-48.6733 -50.3507 -30.6853
29.9800 -50.3507 -2.3194
-18.1725 -50.3507 -60.4433
-5.5608 -50.3507 26.5719
-30.9578 -50.3507 50.3528
7.4546 -50.3507 57.9721
9.3650 -50.3507 -22.3026
-12.9435 -50.3507 38.5416
59.9633 -50.3507 64.2554
-23.5455 -50.3507 13.1703
-65.0352 -50.3507 72.8036
29.5320 -50.3507 0.9287
31.6680 -50.3507 -15.8242
-62.7726 -50.3507 47.3137
65.6136 -50.3507 10.6522
-25.0310 -50.3507 17.4175
41.6148 -50.3507 14.8571
2.7371 -50.3507 62.5549
72.3390 -50.3507 -51.9057
53.2427 -50.3507 10.9611
-8.8615 -50.3507 70.8609
20.5076 -50.3507 22.6428
-10.3984 -50.3507 -70.6206
71.1934 -50.3507 -55.8287
-40.6987 -50.3507 14.9933
61.8794 -50.3507 -44.8853
6.2975 -50.3507 30.7839
-30.9712 -50.3507 41.7742
-53.3250 -50.3507 -3.2990
33.9206 -50.3507 -13.3751
-72.3964 -50.3507 -13.7949
-18.4846 -50.3507 -7.4374
34.1764 -50.3507 65.6242
37.4543 -50.3507 9.4234
12.3190 -50.3507 52.8354
39.2989 -50.3507 71.8802
-74.3427 -50.3507 47.9529
67.5145 -50.3507 62.2606
-2.1915 -50.3507 22.8760
57.9227 -50.3507 52.4063
71.8993 -50.3507 -21.3778
40.9119 -50.3507 47.8342
-67.6971 -50.3507 -48.2725
59.2136 -50.3507 -36.8953
-5.4584 -50.3507 -67.3569
-64.3391 -50.3507 50.8921
-33.5244 -50.3507 3.4455
48.3866 -50.3507 -44.7574
-68.2842 -50.3507 -10.9960
-74.2312 -50.3507 -67.4184
-9.7353 -50.3507 -26.3763
-6.7942 -50.3507 10.4737
-50.9306 -50.3507 -43.0037
-68.9874 -50.3507 32.3392
-49.9515 -50.3507 55.0617
59.7866 -50.3507 32.8517
41.2773 -50.3507 21.5435
-39.8509 -50.3507 -4.9344
43.5002 -50.3507 5.4315
8.4862 -50.3507 15.9142
8.5080 -50.3507 0.2299
22.1345 -50.3507 21.9941
-10.5476 -50.3507 -71.5693
18.5514 -50.3507 0.4863
11.2201 -50.3507 19.0764
67.9075 -50.3507 15.8697
33.0186 -50.3507 -35.5686
69.6016 -50.3507 -39.2890
-36.4979 -50.3507 45.3217
38.1953 -50.3507 71.0420
8.1730 -50.3507 50.1979
-5.4505 -50.3507 6.0721
-33.9617 -50.3507 29.4678
63.9158 -50.3507 4.8430
45.6518 -50.3507 63.9906
15.4311 -50.3507 -3.3496
-61.6498 -50.3507 -56.3326
7.0184 -50.3507 -5.8256
-69.3752 -50.3507 -19.3702
68.5218 -50.3507 23.7477
49.8351 -50.3507 53.2653
-35.7517 -50.3507 24.0295
40.2314 -50.3507 42.7725
-66.0898 -50.3507 -33.9183
67.7477 -50.3507 45.9887
-25.5007 -50.3507 -19.6791
-61.8268 -50.3507 50.3215
37.0686 -50.3507 -5.6355
-27.9796 -50.3507 2.9239
61.3040 -50.3507 70.6679
-39.5330 -50.3507 56.3138
2.4319 -50.3507 45.1063
24.7604 -50.3507 37.1187
13.6985 -50.3507 39.4258
37.9952 -50.3507 55.3555
-32.6955 -50.3507 61.7011
67.3789 -50.3507 -68.4732
-28.8810 -50.3507 8.7498
44.8027 -50.3507 67.8189
-42.7252 -50.3507 50.6698
57.6040 -50.3507 -27.6390
-28.7867 -50.3507 6.6983
48.6575 -50.3507 64.7116
13.8072 -50.3507 -62.6618
12.0557 -50.3507 28.1517
-50.8681 -50.3507 27.3397
14.9692 -50.3507 45.4555
14.0560 -50.3507 -61.3574
31.9219 -50.3507 -59.0922
8.5923 -50.3507 -44.0690
-29.8687 -50.3507 18.7051
-67.8052 -50.3507 13.3080
43.1497 -50.3507 14.1541
-60.8499 -50.3507 60.6986
5.0222 -50.3507 49.3979
-26.4492 -50.3507 -19.4747
27.3400 -50.3507 -50.0963
65.9163 -50.3507 56.0905
-27.0017 -50.3507 -2.3761
-6.9897 -50.3507 29.9697
59.5845 -50.3507 -45.7377
9.9532 -50.3507 0.2305
62.9728 -50.3507 -3.2113
33.8944 -50.3507 -49.9589
25.6278 -50.3507 -57.7371
43.9165 -50.3507 -48.2623
58.1736 -50.3507 65.1046
70.9558 -50.3507 38.1396
-6.8082 -50.3507 9.5206
9.9143 -50.3507 52.2530
65.8847 -50.3507 -25.8133
-66.7715 -50.3507 -5.9174
44.4263 -50.3507 45.2350
72.1302 -50.3507 3.6132
62.0311 -26.3344 72.8540
70.7875 -13.0956 72.8540
-34.6573 39.5924 72.8540
20.9164 22.6911 72.8540
-26.9024 0.5686 72.8540
58.2648 7.3897 72.8540
40.2566 -7.2915 72.8540
69.8168 -24.7195 72.8540
9.5379 47.4659 72.8540
-46.5815 -38.1827 72.8540
3.8683 -21.6953 72.8540
23.0295 -21.3639 72.8540
-50.4285 45.0485 72.8540
-63.6596 -21.6912 72.8540
59.8025 -50.1841 72.8540
-27.4869 -15.7374 72.8540
-35.9175 -19.8240 72.8540
-62.5425 -17.0704 72.8540
-61.1629 -3.1589 72.8540
21.3830 45.3918 72.8540
-73.3018 16.5300 72.8540
53.6836 -18.2056 72.8540
39.1764 49.0136 72.8540
5.3067 -1.2656 72.8540
-37.1622 -37.8551 72.8540
42.7855 5.7021 72.8540
14.9477 -42.8779 72.8540
-44.9488 -37.3478 72.8540
-46.5152 45.7697 72.8540
-12.8999 15.5953 72.8540
2.3356 -23.9650 72.8540
11.1994 -4.8227 72.8540
20.7405 -2.1153 72.8540
58.3973 14.6152 72.8540
33.8907 -15.8851 72.8540
42.5483 -3.9270 72.8540
-5.3403 -33.7695 72.8540
-33.4451 4.3366 72.8540
-6.3782 25.5712 72.8540
-68.7960 -19.1395 72.8540
62.9791 -26.3488 72.8540
-16.0705 -11.3675 72.8540
-56.2613 -0.2213 72.8540
-55.7533 22.3467 72.8540
-48.2694 3.9984 72.8540
-26.5501 -45.1620 72.8540
53.5525 -11.3857 72.8540
-58.2666 39.4616 72.8540
-72.2896 6.3199 72.8540
-43.2748 14.4069 72.8540
-61.3674 25.9558 72.8540
44.9849 -2.7342 72.8540
-63.2366 -46.2249 72.8540
42.0648 -6.5194 72.8540
-16.9505 -35.8889 72.8540
-10.8076 -42.0497 72.8540
67.9411 -32.3355 72.8540
-59.0714 40.0264 72.8540
-47.4346 31.2066 72.8540
71.5272 -46.4463 72.8540
-46.2473 -3.7618 72.8540
46.0735 49.7120 72.8540
58.6340 -0.4042 72.8540
65.3674 41.1880 72.8540
46.6459 -44.3456 72.8540
10.9893 31.0868 72.8540
-48.3105 -3.9168 72.8540
34.3775 -13.7553 72.8540
43.4482 38.2951 72.8540
-17.6509 44.9222 72.8540
41.8661 -19.1789 72.8540
-11.3583 -0.4123 72.8540
-59.8406 43.7576 72.8540
-38.1987 41.9624 72.8540
65.7625 26.4734 72.8540
-22.3694 -4.9920 72.8540
-64.7025 35.9375 72.8540
-60.6064 3.5411 72.8540
25.2788 -42.6962 72.8540
-70.4518 -46.4420 72.8540
54.7891 -24.6525 72.8540
12.4939 -8.5106 72.8540
-6.8615 16.5585 72.8540
-67.7667 -12.3105 72.8540
-10.0152 -24.2435 72.8540
-59.0268 45.1562 72.8540
67.2736 -40.8771 72.8540
68.3889 -31.9129 72.8540
46.5350 -34.4178 72.8540
-71.3548 9.5899 72.8540
43.7782 -23.4676 72.8540
21.8083 39.4654 72.8540
-73.3937 -23.7545 72.8540
41.5357 9.2502 72.8540
17.5759 -10.4749 72.8540
50.0865 25.8607 72.8540
-63.2828 25.9396 72.8540
-12.5444 -7.7307 72.8540
42.7577 16.4240 72.8540
-40.5988 -22.5197 72.8540
16.4426 13.7294 72.8540
73.2655 22.5573 72.8540
5.4313 29.5326 72.8540
-50.0310 -0.8209 72.8540
-73.4218 -30.4219 72.8540
-68.4167 -40.4776 72.8540
21.3007 0.7757 72.8540
-61.3189 -40.2703 72.8540
-52.9790 14.7325 72.8540
74.7510 -35.7698 72.8540
-54.2509 -43.5460 72.8540
46.0140 46.6282 72.8540
54.9225 49.5451 72.8540
30.1970 17.1384 72.8540
-47.9837 -10.3169 72.8540
59.1733 15.0877 72.8540
6.0509 3.2304 72.8540
-3.9698 7.1288 72.8540
-75.4119 3.9957 72.8540
31.5087 2.7476 72.8540
-31.3650 29.2640 72.8540
-10.3464 47.0110 72.8540
-56.2016 32.0559 72.8540
-57.5519 -34.9280 72.8540
-16.5067 -46.1747 72.8540
-3.9234 -47.0827 72.8540
69.5425 -14.4707 72.8540
-32.3064 -9.9705 72.8540
-29.7079 -44.1861 72.8540
17.1549 41.5145 72.8540
57.3646 -35.4059 72.8540
-59.0366 39.5552 72.8540
-8.4520 -34.4356 72.8540
27.2011 21.6127 72.8540
64.0269 -7.1020 72.8540
-16.0417 -16.7264 72.8540
-19.0151 29.2339 72.8540
27.6804 -29.8806 72.8540
17.6710 -33.3927 72.8540
-23.9194 0.3558 72.8540
-28.8647 22.3054 72.8540
-43.3857 -11.9846 72.8540
3.7128 -8.3916 72.8540
54.9033 -25.3617 72.8540
68.8839 32.0696 72.8540
65.3601 0.8043 72.8540
40.6676 30.0818 72.8540
-67.9624 31.9598 72.8540
15.5209 41.0789 72.8540
7.3401 17.6725 72.8540
-11.0657 10.6995 72.8540
-75.6086 34.0777 72.8540
-50.1539 45.1869 72.8540
-34.5075 46.4723 72.8540
-11.4570 -45.2510 72.8540
-35.2499 -6.6019 72.8540
-33.1210 15.5416 72.8540
7.3709 -36.2293 72.8540
-62.9001 -16.9264 72.8540
62.9519 -8.8058 72.8540
-19.4460 25.6255 72.8540
-71.6946 -48.0803 72.8540
-74.6340 -23.9577 72.8540
57.1895 -24.3084 72.8540
-65.9287 42.0997 72.8540
-64.4337 -26.1734 72.8540
-63.9469 -31.8550 72.8540
0.8301 39.4931 72.8540
37.7441 -4.5344 72.8540
-15.1033 4.3356 72.8540
-68.4775 -34.3075 -72.8540
17.6648 15.0171 -72.8540
15.4291 46.9269 -72.8540
-4.9456 -14.5369 -72.8540
63.1518 -23.0619 -72.8540
-42.6755 23.0853 -72.8540
-29.1830 -40.0830 -72.8540
71.8459 0.3017 -72.8540
45.0668 -48.5915 -72.8540
8.3529 9.5033 -72.8540
66.2944 4.5617 -72.8540
-31.1202 44.5628 -72.8540
50.0702 32.3256 -72.8540
23.1052 -44.4239 -72.8540
-28.8317 23.4621 -72.8540
-63.6941 -15.2038 -72.8540
-55.9139 -18.4246 -72.8540
74.6178 48.8776 -72.8540
71.8556 -14.7429 -72.8540
21.4880 39.4449 -72.8540
-18.5114 -36.4556 -72.8540
26.3180 35.9213 -72.8540
10.7360 37.0162 -72.8540
-64.5148 24.0391 -72.8540
-1.1801 9.2236 -72.8540
-73.2381 43.6081 -72.8540
-1.2843 23.9925 -72.8540
-55.3402 0.7703 -72.8540
5.2931 46.9573 -72.8540
-43.7608 -8.0129 -72.8540
50.5938 -44.5550 -72.8540
-74.2086 30.6723 -72.8540
15.0356 5.3914 -72.8540
-59.5549 7.9483 -72.8540
47.9825 -4.2893 -72.8540
-17.0456 43.5935 -72.8540
-9.9925 -0.6771 -72.8540
-23.2833 21.3185 -72.8540
35.6996 43.4641 -72.8540
2.5603 -45.3349 -72.8540
39.8739 -36.7956 -72.8540
69.4834 -41.3109 -72.8540
-6.1064 35.3999 -72.8540
-9.6852 20.7617 -72.8540
-51.0467 -25.0630 -72.8540
-0.9199 -31.2556 -72.8540
-54.8951 37.4104 -72.8540
70.3357 -47.9696 -72.8540
18.3267 -24.4243 -72.8540
60.8591 -42.1242 -72.8540
-23.3405 -20.7225 -72.8540
35.1417 14.0965 -72.8540
-2.9600 -9.9350 -72.8540
-64.8858 6.5716 -72.8540
24.0269 -4.6597 -72.8540
10.1819 -28.3410 -72.8540
72.4109 -10.5112 -72.8540
-69.8586 -4.8432 -72.8540
-20.2734 -28.0637 -72.8540
36.1138 -45.4445 -72.8540
-61.8555 8.4029 -72.8540
10.6074 -34.3070 -72.8540
-65.1527 8.2066 -72.8540
36.4929 10.6756 -72.8540
-34.8274 -20.3132 -72.8540
28.0823 18.5521 -72.8540
5.3265 16.7347 -72.8540
50.2803 -31.4389 -72.8540
-0.3582 48.8297 -72.8540
-30.6191 -30.6642 -72.8540
66.5214 -49.4481 -72.8540
-44.0587 -2.6159 -72.8540
-64.4344 -24.8917 -72.8540
-43.5501 -8.9692 -72.8540
-13.9637 31.7184 -72.8540
-44.2582 -47.5352 -72.8540
14.1079 5.8774 -72.8540
-17.2092 -32.1417 -72.8540
41.6516 34.8016 -72.8540
22.9989 0.9382 -72.8540
-8.3432 6.6303 -72.8540
19.9080 -30.3293 -72.8540
-41.3023 5.9598 -72.8540
-19.7311 -40.8159 -72.8540
34.2578 14.7621 -72.8540
-1.9987 30.5642 -72.8540
-56.9221 9.0254 -72.8540
73.9112 15.7046 -72.8540
-55.7734 -25.7274 -72.8540
24.7574 18.5922 -72.8540
-34.5100 -28.7613 -72.8540
-23.1098 44.2860 -72.8540
-34.7306 -33.2838 -72.8540
-67.2726 -46.6183 -72.8540
-36.2658 -1.7360 -72.8540
-36.0794 -35.8076 -72.8540
-54.4658 -38.9659 -72.8540
7.3090 11.0474 -72.8540
-14.2724 1.4282 -72.8540
-27.0429 5.0790 -72.8540
-20.8576 -39.8595 -72.8540
22.8668 -38.3237 -72.8540
-5.9034 41.6588 -72.8540
-24.6301 23.6214 -72.8540
-37.2137 -13.5071 -72.8540
62.1648 -48.8588 -72.8540
52.2489 -36.6150 -72.8540
-4.3489 13.8505 -72.8540
-40.1494 47.9086 -72.8540
-22.3160 -24.1641 -72.8540
73.5498 -20.0694 -72.8540
-75.3902 44.4970 -72.8540
14.7300 -43.7217 -72.8540
-22.3435 15.4100 -72.8540
19.6616 26.7467 -72.8540
25.4934 38.5476 -72.8540
21.3418 30.1411 -72.8540
-13.7847 39.6991 -72.8540
-44.8964 -42.8288 -72.8540
-40.6921 32.0943 -72.8540
24.8405 28.8749 -72.8540
-7.8468 -22.1463 -72.8540
-40.8142 36.6999 -72.8540
46.7748 19.4945 -72.8540
-33.8777 -10.3252 -72.8540
69.4262 -10.1411 -72.8540
-22.2092 -23.2266 -72.8540
-9.0197 -9.5047 -72.8540
-59.7624 10.3899 -72.8540
71.6347 29.8156 -72.8540
48.4156 20.8825 -72.8540
-60.2845 44.4666 -72.8540
54.2576 -30.4012 -72.8540
-29.4004 -3.5568 -72.8540
61.4950 36.2583 -72.8540
-71.9629 2.2715 -72.8540
33.3039 -47.3066 -72.8540
9.9647 42.7416 -72.8540
37.3533 28.6539 -72.8540
11.5531 27.5987 -72.8540
-56.7740 -9.6723 -72.8540
69.2294 -47.4020 -72.8540
-58.1486 28.8056 -72.8540
-17.1607 5.2301 -72.8540
71.4490 47.8520 -72.8540
-18.4407 -2.4567 -72.8540
46.8712 10.7148 -72.8540
-15.8328 10.3430 -72.8540
19.3508 -29.9083 -72.8540
73.2941 16.9072 -72.8540
7.1976 32.4991 -72.8540
-72.5682 -32.9325 -72.8540
-1.6015 33.1378 -72.8540
49.3143 40.5895 -72.8540
32.2371 36.5550 -72.8540
-50.0330 -32.3115 -72.8540
31.0758 36.8897 -72.8540
-20.5451 45.7813 -72.8540
52.6922 -41.7938 -72.8540
72.1863 36.7949 -72.8540
-43.4923 -4.9014 -72.8540
-23.0219 -50.3262 -72.8540
-66.3311 -44.5702 -72.8540
-65.8952 35.7138 -72.8540
-29.0423 23.2590 -72.8540
54.4192 -28.9545 -72.8540
70.3571 4.3171 -72.8540
47.7512 -23.4322 -72.8540
-0.2289 8.5612 -72.8540
21.0501 32.2103 -72.8540
