ply
format ascii 1.0
element vertex 1024
property float x
property float y
property float z
end_header
50.9549 -45.8151 -57.6887
50.9549 31.2029 35.3337
50.9549 -4.0273 -92.1358
50.9549 -31.6087 -72.1001
50.9549 30.9038 86.3943
50.9549 43.2797 18.7934
50.9549 43.6946 -90.4574
50.9549 -42.2516 -83.0941
50.9549 36.7318 13.5604
50.9549 -36.4477 -11.8905
50.9549 4.2989 -71.9807
50.9549 49.2151 30.6254
50.9549 48.2731 -61.9903
50.9549 34.0384 6.0929
50.9549 12.4179 79.7719
50.9549 2.8889 84.7838
50.9549 -15.1311 35.9984
50.9549 -24.7581 94.7328
50.9549 24.0887 -7.2401
50.9549 -40.5898 70.4574
50.9549 19.2134 83.0037
50.9549 42.0445 -9.0859
50.9549 9.1019 -91.0667
50.9549 -15.6266 -59.2773
50.9549 -43.6196 25.6703
50.9549 -33.3436 -9.0404
50.9549 -9.1219 7.8018
50.9549 -42.7442 26.1515
50.9549 6.1503 -12.8468
50.9549 -1.8048 63.3893
50.9549 29.9172 9.9742
50.9549 -27.1713 -70.2141
50.9549 -14.5630 22.4569
50.9549 -32.6388 86.2856
50.9549 -5.3051 10.0409
50.9549 2.9513 11.8490
50.9549 -44.3714 -49.9774
50.9549 -28.9344 -64.5961
50.9549 -41.5906 -19.9386
50.9549 27.0376 48.2886
50.9549 15.8858 -88.1389
50.9549 9.1442 1.6717
50.9549 7.1044 10.2550
50.9549 -42.3362 73.7306
50.9549 2.0030 48.3141
50.9549 21.7690 49.4161
50.9549 8.7924 54.9553
50.9549 9.8146 67.1949
50.9549 29.6950 -37.2402
50.9549 0.1766 14.0774
50.9549 5.5191 -10.5107
50.9549 -14.8505 -5.4564
50.9549 -32.1465 30.1210
50.9549 -20.0314 18.6212
50.9549 1.9545 45.2983
50.9549 -24.3117 3.1917
50.9549 17.1746 84.1144
50.9549 38.6653 -67.3526
50.9549 36.8256 58.6266
50.9549 -29.1239 -51.6005
50.9549 -2.9880 -64.4827
50.9549 17.6728 -92.4591
50.9549 24.1531 -64.3105
50.9549 -32.0018 -54.7920
50.9549 13.4389 -5.2293
50.9549 -10.7593 79.3551
50.9549 22.1709 35.6276
50.9549 16.6549 4.5635
50.9549 22.6175 53.8005
50.9549 32.1304 -20.5352
50.9549 -17.8345 -39.3637
50.9549 2.6633 -14.8094
50.9549 23.7521 77.2705
50.9549 7.7109 -45.5583
50.9549 -8.3135 -63.5993
50.9549 -1.3799 -44.1811
50.9549 -44.4674 -12.2313
50.9549 41.4872 88.5796
50.9549 -2.3092 -1.2886
50.9549 -38.6556 -13.3722
50.9549 -36.4479 -65.1351
50.9549 -24.0750 91.8320
50.9549 43.9668 -65.7178
50.9549 12.3944 16.5315
50.9549 9.5274 -70.6179
50.9549 -27.8928 73.9624
50.9549 31.0959 68.8701
50.9549 -26.4377 -49.0027
50.9549 -40.7329 -75.3695
50.9549 11.1547 -94.9725
50.9549 3.6844 72.5781
50.9549 -21.5325 -16.3446
50.9549 35.6995 -66.7134
50.9549 46.1529 -20.0424
50.9549 -29.4272 48.3423
50.9549 -14.1373 -87.0728
50.9549 21.4076 17.7088
50.9549 -17.5482 -53.9238
50.9549 45.3655 -9.2184
50.9549 -3.4733 41.4447
50.9549 -0.6861 -23.8287
50.9549 19.1016 34.7842
50.9549 28.1770 91.8083
50.9549 -38.0457 -31.3162
50.9549 -32.4561 8.4810
50.9549 -37.7144 66.4861
50.9549 -0.3521 -42.6786
50.9549 -11.1110 -44.2932
50.9549 45.7559 77.5220
50.9549 -44.3582 21.3701
50.9549 14.1571 -89.1663
50.9549 -0.9104 -87.0584
50.9549 12.9202 10.7626
50.9549 -25.8215 -56.4546
50.9549 -31.9782 -30.6762
50.9549 -36.5380 58.0774
50.9549 12.9544 -30.7554
50.9549 -50.1222 41.7607
50.9549 4.4199 -30.8596
50.9549 -4.7898 -29.0001
50.9549 -21.3948 1.5611
50.9549 -13.4927 -83.2595
50.9549 50.1873 40.1718
50.9549 27.0565 88.9025
50.9549 24.5384 66.0309
50.9549 -6.4374 64.0760
50.9549 33.9968 2.8348
50.9549 -49.2011 -59.7606
50.9549 -21.5483 85.5189
50.9549 44.4383 -57.3657
50.9549 37.6000 41.2673
50.9549 31.0773 68.4888
50.9549 19.1181 -10.8889
50.9549 -1.5292 -70.8211
50.9549 36.8233 -64.9494
50.9549 -12.7536 -22.1677
50.9549 46.0729 -3.1969
50.9549 -43.5243 54.2707
50.9549 43.8071 1.6962
50.9549 36.3121 -92.9138
50.9549 -27.9399 -41.4770
50.9549 25.2418 8.3117
50.9549 1.5811 -30.2518
50.9549 15.6301 -9.6670
50.9549 17.8769 -92.4254
50.9549 0.7159 7.3678
50.9549 48.0032 29.3952
50.9549 -9.3076 -53.5227
50.9549 -5.5024 94.7103
50.9549 -21.5268 93.5683
50.9549 15.7739 75.5268
50.9549 36.3920 39.2908
50.9549 19.2782 -29.0535
50.9549 -39.1029 71.1215
50.9549 0.9075 -81.8800
50.9549 -38.4354 52.2222
50.9549 -27.6701 -63.4513
50.9549 12.7152 -73.4343
50.9549 49.7265 -8.2444
50.9549 -31.8894 62.7346
50.9549 15.7032 34.3291
50.9549 15.7879 81.9377
50.9549 -39.4261 -75.2408
50.9549 -29.1583 36.4643
50.9549 4.7989 14.8403
50.9549 35.9056 -78.5405
50.9549 -19.7995 -28.5108
50.9549 -11.9982 18.8431
50.9549 -48.5793 -5.7308
50.9549 -14.0415 -32.5168
50.9549 -24.9724 49.0225
-50.9549 34.3705 83.4504
-50.9549 -11.2393 22.0493
-50.9549 49.3997 39.2900
-50.9549 -45.9042 -51.2949
-50.9549 -0.0503 -71.1431
-50.9549 -7.5076 42.4989
-50.9549 5.0831 81.4438
-50.9549 40.8802 28.7745
-50.9549 -40.5169 10.3425
-50.9549 -42.2202 -68.2595
-50.9549 6.6137 -93.1305
-50.9549 49.0118 55.3049
-50.9549 -43.1411 52.0865
-50.9549 10.8171 68.1121
-50.9549 30.4698 -2.6228
-50.9549 -39.5232 73.4881
-50.9549 46.5156 43.4833
-50.9549 -5.3667 -58.3375
-50.9549 18.8461 -52.0941
-50.9549 18.5759 -19.3457
-50.9549 -47.9526 31.9643
-50.9549 -33.9959 -21.6380
-50.9549 45.7079 65.2009
-50.9549 20.0062 16.2372
-50.9549 -40.4537 53.1721
-50.9549 -12.1466 44.3900
-50.9549 7.8020 -25.0780
-50.9549 -32.6391 -6.2230
-50.9549 -48.1660 38.8179
-50.9549 -49.0850 -0.8086
-50.9549 -17.9321 87.2653
-50.9549 -8.6489 -72.7676
-50.9549 -37.2698 -68.0184
-50.9549 -4.1892 84.2440
-50.9549 5.7036 -56.5999
-50.9549 -24.3935 81.4757
-50.9549 -23.9045 -28.2011
-50.9549 27.0539 77.1650
-50.9549 43.4577 60.9050
-50.9549 -14.6458 -91.4281
-50.9549 -31.9573 49.9670
-50.9549 -13.7112 19.0355
-50.9549 -24.5927 91.4834
-50.9549 25.0136 7.1970
-50.9549 5.9461 -55.9482
-50.9549 -31.1567 39.3704
-50.9549 -35.2513 -57.7089
-50.9549 6.3163 10.5888
-50.9549 33.6832 22.6625
-50.9549 47.5690 11.5586
-50.9549 -1.3237 3.9541
-50.9549 -36.0490 -12.2126
-50.9549 -4.3215 -65.7676
-50.9549 32.5544 -91.9877
-50.9549 -43.8281 23.8175
-50.9549 -7.8875 84.3496
-50.9549 1.6775 6.3713
-50.9549 -42.2001 -29.0550
-50.9549 22.2100 -37.8822
-50.9549 44.2538 20.0885
-50.9549 10.3635 0.4373
-50.9549 45.3807 30.0610
-50.9549 -7.3186 82.8775
-50.9549 -40.7255 60.8916
-50.9549 12.9815 81.2572
-50.9549 35.0349 7.4799
-50.9549 0.9799 -62.1052
-50.9549 36.0760 -57.9001
-50.9549 -5.3360 -36.9539
-50.9549 -5.7668 -27.5576
-50.9549 42.3786 -74.7279
-50.9549 -43.7927 -6.7313
-50.9549 36.9557 -36.7313
-50.9549 1.2268 48.4946
-50.9549 4.1072 27.2762
-50.9549 -21.4994 -61.2309
-50.9549 47.8793 30.2231
-50.9549 -39.8939 83.2294
-50.9549 -41.0863 -63.9798
-50.9549 -40.2262 33.6209
-50.9549 18.8887 44.4385
-50.9549 45.5156 -63.9022
-50.9549 -28.4487 24.3885
-50.9549 -33.5192 13.5716
-50.9549 7.5811 -60.7225
-50.9549 -25.2575 38.7422
-50.9549 -16.3162 23.4255
-50.9549 -32.0906 39.4347
-50.9549 -44.5539 50.8699
-50.9549 -32.6133 -33.3159
-50.9549 -44.6517 -59.6145
-50.9549 -2.4200 70.6920
-50.9549 20.1017 65.1486
-50.9549 -31.5736 14.9041
-50.9549 17.5493 -18.4150
-50.9549 -28.3255 -53.7603
-50.9549 -34.3852 -74.6614
-50.9549 33.6212 -59.7175
-50.9549 -17.8579 51.9285
-50.9549 33.3817 -45.3116
-50.9549 15.9976 65.6257
-50.9549 13.9558 -59.7168
-50.9549 33.3008 -74.1518
-50.9549 -7.9350 -17.6583
-50.9549 22.3489 -44.0264
-50.9549 -23.8389 -39.7574
-50.9549 -10.6873 14.3756
-50.9549 -11.5898 24.6192
-50.9549 13.1367 -42.0616
-50.9549 -42.8753 -23.1804
-50.9549 47.6302 -25.0443
-50.9549 15.6704 -23.3465
-50.9549 -9.5250 -44.5529
-50.9549 -28.3721 8.6319
-50.9549 -13.6772 -15.3382
-50.9549 -19.4405 84.1823
-50.9549 -11.5196 -53.2989
-50.9549 -33.9812 -53.5529
-50.9549 -44.0256 18.2733
-50.9549 39.1006 94.4672
-50.9549 6.3546 -65.2822
-50.9549 44.8463 86.9055
-50.9549 -44.5458 67.4691
-50.9549 -20.4745 -48.3340
-50.9549 14.7678 -29.7184
-50.9549 -41.0168 -71.5691
-50.9549 40.2749 65.7939
-50.9549 6.8131 -78.7903
-50.9549 -7.4018 22.6386
-50.9549 -18.5330 49.4404
-50.9549 -4.0893 90.2753
-50.9549 -44.0037 19.4762
-50.9549 43.0365 51.0713
-50.9549 -17.4111 -18.9546
-50.9549 35.6011 23.0604
-50.9549 18.5536 -75.8246
-50.9549 -25.2616 14.5263
-50.9549 34.7123 -62.0883
-50.9549 34.9190 -12.0493
-50.9549 27.6519 -70.6659
-50.9549 18.2585 88.0698
-50.9549 37.8038 -20.9655
-50.9549 30.8424 4.5539
-50.9549 -27.8397 -56.7431
-50.9549 -45.6692 30.9924
-50.9549 -29.9286 -15.2703
-50.9549 46.1434 18.6338
-50.9549 -2.4408 80.6167
-50.9549 -26.5106 -4.2845
-50.9549 -6.5340 -5.2724
-50.9549 -37.5719 56.5253
-50.9549 33.2297 40.3764
-50.9549 -16.4249 4.4579
-50.9549 -40.9784 -52.4336
-50.9549 -48.4149 67.9589
-50.9549 -9.4759 -87.8580
-50.9549 1.9971 -6.5210
-50.9549 8.0250 3.1865
-50.9549 -3.8050 71.2234
-50.9549 -17.9854 -28.4850
-50.9549 -4.8684 -38.8736
-50.9549 24.4154 -95.1819
-50.9549 -41.7349 53.6271
-50.9549 2.3452 -80.1629
-50.9549 26.2966 -43.9666
-50.9549 -4.4704 61.4452
-50.9549 17.5187 41.1727
-50.9549 13.2345 -81.0801
-50.9549 9.4028 -94.6168
-50.9549 -16.0940 71.1514
-50.9549 11.4370 -87.9298
14.0368 50.2238 57.8220
-14.4517 50.2238 91.1463
10.8590 50.2238 -29.4175
4.4508 50.2238 37.3372
-19.3170 50.2238 -27.2756
3.5928 50.2238 -11.7278
-12.6291 50.2238 -69.7415
39.5483 50.2238 90.0358
-2.1656 50.2238 -84.2608
3.1784 50.2238 -23.2980
30.8451 50.2238 -81.9401
20.7511 50.2238 -67.7248
-16.7483 50.2238 -91.1186
-12.0863 50.2238 -15.0177
-39.9730 50.2238 90.4122
-7.2511 50.2238 -84.9922
-3.8994 50.2238 -91.9262
41.7002 50.2238 78.5560
-1.0507 50.2238 20.5971
-11.9973 50.2238 -51.4376
6.3488 50.2238 -69.8904
-13.5444 50.2238 25.1347
-15.7326 50.2238 14.9539
30.9418 50.2238 13.7013
-31.2640 50.2238 -2.2191
50.6551 50.2238 -38.5920
-23.3491 50.2238 -55.4787
-32.3430 50.2238 -20.6570
29.6352 50.2238 53.1256
-13.2752 50.2238 -49.8201
22.4487 50.2238 38.2695
-9.3161 50.2238 1.6507
45.0254 50.2238 -31.7874
-8.9586 50.2238 75.8618
-18.4963 50.2238 7.3504
43.7471 50.2238 13.4907
18.2502 50.2238 -31.6492
33.4354 50.2238 -14.2420
47.4553 50.2238 -70.6942
47.6529 50.2238 -82.2301
21.7711 50.2238 -41.6924
-17.5355 50.2238 58.8955
-29.3702 50.2238 48.6026
27.9228 50.2238 -64.8431
7.6749 50.2238 -79.7385
-16.5851 50.2238 -62.6332
13.3644 50.2238 91.6790
18.2513 50.2238 -26.5414
-13.8976 50.2238 -17.4699
-41.6474 50.2238 37.3180
-4.8771 50.2238 -42.8304
-9.0972 50.2238 17.1096
37.0905 50.2238 62.6008
46.1929 50.2238 -56.9020
-24.3081 50.2238 54.0536
34.2016 50.2238 69.6394
-33.0108 50.2238 -19.0455
46.0417 50.2238 -81.5559
33.7978 50.2238 39.9561
-33.7533 50.2238 11.3435
28.4305 50.2238 30.2913
29.1277 50.2238 39.6951
-14.8963 50.2238 -92.1114
-16.8471 50.2238 -32.3120
-8.4058 50.2238 -40.7978
-20.1013 50.2238 1.5926
-17.3453 50.2238 -5.4847
12.8529 50.2238 -92.3737
-10.3472 50.2238 -20.0493
10.2507 50.2238 -59.8191
-44.5246 50.2238 -51.9722
31.7177 50.2238 25.3390
-26.5172 50.2238 -63.2441
6.1294 50.2238 -19.6210
-38.1848 50.2238 90.5149
8.2689 50.2238 74.4043
9.1420 50.2238 21.4701
15.3333 50.2238 37.2988
-20.4739 50.2238 18.4515
-21.8814 50.2238 -29.4272
-45.6081 50.2238 -28.1217
-49.3143 50.2238 -34.5072
43.3383 50.2238 29.7535
16.0650 50.2238 -41.6372
18.0765 50.2238 -53.9031
48.6012 50.2238 70.0357
1.3361 50.2238 -19.6378
-20.2370 50.2238 16.2845
41.5543 50.2238 16.2379
-27.1440 50.2238 32.2538
19.8664 50.2238 3.1737
-32.5296 50.2238 -19.8669
42.9429 50.2238 -60.2985
-0.0784 50.2238 49.0823
-8.0761 50.2238 -52.2913
46.6989 50.2238 56.2311
37.1306 50.2238 -80.0909
-45.0619 50.2238 14.2504
26.7776 50.2238 -82.6393
43.0786 50.2238 -89.8451
6.7582 50.2238 -11.5919
-26.9148 50.2238 -47.7079
21.2596 50.2238 93.2660
23.8932 50.2238 55.9681
-6.0177 50.2238 -83.3304
-36.5677 50.2238 -60.6291
-32.3570 50.2238 -8.8458
-27.5174 50.2238 -81.2524
-37.8032 50.2238 -56.6752
-6.5587 50.2238 -47.6791
15.4216 50.2238 43.3116
16.8456 50.2238 16.6311
-17.9870 50.2238 55.8874
-34.8717 50.2238 -42.2320
40.6104 50.2238 -32.7234
-15.3650 50.2238 32.6317
-23.1739 50.2238 82.3464
-14.7815 50.2238 81.7776
2.3089 50.2238 95.2418
-14.7425 50.2238 -41.3992
35.6529 50.2238 -18.8603
27.3687 50.2238 70.5566
9.6728 50.2238 -20.8412
-16.1312 50.2238 -65.0283
32.7360 50.2238 49.0904
14.9522 50.2238 85.8059
11.0999 50.2238 9.6248
4.2289 50.2238 4.3951
-2.8206 50.2238 -62.8634
8.9133 50.2238 70.9945
49.3241 50.2238 60.3101
33.3166 50.2238 58.7606
34.8772 50.2238 -36.7522
-33.4268 50.2238 41.3982
13.8651 50.2238 -20.8218
42.0040 50.2238 29.7495
4.8316 50.2238 -44.2478
-10.5942 50.2238 -56.9121
-12.3158 50.2238 -13.6329
-8.0007 50.2238 86.4817
-6.5793 50.2238 -78.8317
17.9239 50.2238 -59.7732
40.9981 50.2238 87.0031
20.3520 50.2238 44.7616
-31.4410 50.2238 -16.7091
-26.0511 50.2238 -61.1872
-40.8899 50.2238 -64.2716
-36.7062 50.2238 88.4550
1.9209 50.2238 14.2801
-40.0377 50.2238 -57.3365
-15.3741 50.2238 -59.6710
-11.7935 50.2238 -70.6341
15.6659 50.2238 -34.8561
-12.1668 50.2238 73.5051
-36.6298 50.2238 93.6691
16.0850 50.2238 -9.6243
-46.3645 50.2238 30.2929
-40.3743 50.2238 86.8281
-50.0198 50.2238 -4.1246
48.2666 50.2238 -48.0542
-24.7270 50.2238 -33.6829
-5.9996 50.2238 -38.8633
-15.3122 50.2238 -46.6442
34.8718 50.2238 -72.7395
46.2043 50.2238 -78.9382
34.3540 50.2238 77.1800
17.1288 50.2238 -64.7612
-40.1890 50.2238 -4.0624
-0.1268 50.2238 -21.9645
-37.6355 50.2238 -3.8697
18.3674 50.2238 61.0915
13.2348 -50.2238 72.0391
30.7644 -50.2238 -19.0378
-12.4022 -50.2238 -75.4345
6.6781 -50.2238 -57.4985
12.4598 -50.2238 -83.4234
36.9733 -50.2238 1.2665
20.9847 -50.2238 -20.8888
-37.4464 -50.2238 40.1784
20.7869 -50.2238 -20.2039
-32.4888 -50.2238 -46.5562
35.5136 -50.2238 54.7981
42.5642 -50.2238 15.9927
-18.1485 -50.2238 9.0038
22.3307 -50.2238 55.6729
-17.5252 -50.2238 47.4554
38.6509 -50.2238 60.2684
-11.2494 -50.2238 77.0203
-22.0599 -50.2238 -24.1872
48.0777 -50.2238 -37.9402
-34.0671 -50.2238 -53.6195
-19.8669 -50.2238 62.8642
-16.9857 -50.2238 -21.6120
-14.7651 -50.2238 92.9839
36.6415 -50.2238 57.9134
30.2235 -50.2238 -89.7529
5.7193 -50.2238 62.6862
27.7026 -50.2238 19.2226
15.2839 -50.2238 69.3684
30.7994 -50.2238 -54.5672
-0.1000 -50.2238 -11.7624
8.0467 -50.2238 43.7892
-13.1419 -50.2238 -77.4187
-15.3608 -50.2238 -36.7550
-7.0378 -50.2238 -92.5039
42.2702 -50.2238 79.5471
-12.0915 -50.2238 76.5121
27.4772 -50.2238 -48.9698
8.8499 -50.2238 48.0040
-12.4550 -50.2238 -87.5753
-28.3186 -50.2238 6.0663
47.5273 -50.2238 49.9370
-44.7756 -50.2238 46.0565
-15.9702 -50.2238 -14.3219
-39.6649 -50.2238 0.6667
15.5773 -50.2238 -8.9652
45.0299 -50.2238 -67.8825
2.1705 -50.2238 11.5753
27.7675 -50.2238 27.8469
-42.5678 -50.2238 40.1482
-33.7433 -50.2238 1.2138
-2.9229 -50.2238 33.8086
0.9015 -50.2238 -22.5617
-16.4018 -50.2238 20.4722
-9.0127 -50.2238 81.4036
-49.7855 -50.2238 33.8467
-18.9689 -50.2238 71.5260
27.0215 -50.2238 -18.0674
4.3294 -50.2238 -79.5461
46.3685 -50.2238 48.9481
-6.1095 -50.2238 45.3433
49.3603 -50.2238 26.5558
21.7954 -50.2238 57.3391
47.0892 -50.2238 90.2062
-16.4704 -50.2238 67.6691
-7.9587 -50.2238 15.4524
-49.5376 -50.2238 -74.8548
-12.7639 -50.2238 61.4380
-48.5926 -50.2238 -88.8101
41.9754 -50.2238 49.9302
44.5388 -50.2238 22.0766
44.7914 -50.2238 39.9945
-25.1936 -50.2238 -26.2915
-49.4019 -50.2238 -26.7350
-26.7979 -50.2238 7.8517
-39.0267 -50.2238 28.6987
-50.5582 -50.2238 86.1088
13.0491 -50.2238 40.3470
-32.9855 -50.2238 -23.4949
43.9819 -50.2238 -12.0017
41.4598 -50.2238 -29.3746
12.1814 -50.2238 -60.8291
23.4175 -50.2238 23.5531
-12.2938 -50.2238 -5.1817
21.6560 -50.2238 65.9604
20.6523 -50.2238 24.0043
-5.5866 -50.2238 88.2691
-17.7130 -50.2238 17.3574
-29.4672 -50.2238 25.5941
50.5715 -50.2238 73.8125
30.8734 -50.2238 12.8743
-25.9391 -50.2238 55.9759
-34.2375 -50.2238 -18.0772
5.3441 -50.2238 1.2567
12.8496 -50.2238 31.3624
31.7897 -50.2238 50.3245
-42.0548 -50.2238 -56.0436
28.3056 -50.2238 37.2263
20.7346 -50.2238 -64.5828
37.3127 -50.2238 72.0925
2.5161 -50.2238 -80.3610
30.1416 -50.2238 52.8311
25.1370 -50.2238 73.0522
-8.5621 -50.2238 43.3362
16.9333 -50.2238 17.6481
6.6350 -50.2238 65.4890
45.6536 -50.2238 21.5448
40.9534 -50.2238 -77.2010
-25.1788 -50.2238 62.2234
-12.6566 -50.2238 -68.7933
-8.9368 -50.2238 -83.9532
-22.6975 -50.2238 9.5181
-16.1872 -50.2238 -48.4938
-16.2217 -50.2238 47.0387
-33.4773 -50.2238 -28.6090
29.1563 -50.2238 -12.1442
35.8327 -50.2238 73.2711
37.4582 -50.2238 89.4859
-17.8730 -50.2238 -60.1307
-17.1638 -50.2238 -2.5667
-10.3004 -50.2238 -46.1799
-41.6237 -50.2238 -76.7385
-10.2171 -50.2238 -89.5153
-17.1270 -50.2238 -45.5776
-18.5617 -50.2238 43.4924
-17.5850 -50.2238 -37.2174
27.9328 -50.2238 -23.0757
24.5736 -50.2238 2.1127
14.7613 -50.2238 75.6476
26.9473 -50.2238 83.5606
-17.8820 -50.2238 63.5821
38.6640 -50.2238 -34.6876
-2.2716 -50.2238 -48.6367
38.6904 -50.2238 -81.7282
32.8437 -50.2238 23.6531
46.6051 -50.2238 -46.1561
-44.9712 -50.2238 -85.0606
-14.1606 -50.2238 49.0704
44.3299 -50.2238 66.4045
42.9674 -50.2238 93.2745
-10.0588 -50.2238 -84.8084
41.7499 -50.2238 -61.9711
-9.5474 -50.2238 46.1231
22.9612 -50.2238 34.7328
18.1222 -50.2238 -27.6981
48.6863 -50.2238 24.3077
2.8317 -50.2238 -51.7395
-25.2740 -50.2238 -36.7781
-0.7448 -50.2238 17.0843
32.7384 -50.2238 33.2410
-49.0155 -50.2238 38.1150
34.5096 -50.2238 -65.7693
2.1761 -50.2238 -45.3052
37.7819 -50.2238 -61.1469
-21.8407 -50.2238 34.8589
-7.4430 -50.2238 93.6464
41.3820 -50.2238 -74.5651
-11.5213 -50.2238 -8.5193
49.8644 -50.2238 54.8639
34.7954 -50.2238 -64.6053
18.3116 -50.2238 -89.0144
-10.1670 -50.2238 49.1031
-18.5613 -50.2238 43.2047
-2.7200 -50.2238 9.4326
29.9805 -50.2238 -9.5102
17.8062 -50.2238 -83.6050
-36.1142 -50.2238 24.7603
-40.5155 -50.2238 -19.7337
-34.5878 -50.2238 51.4255
-34.6864 -50.2238 87.5096
-48.7287 -50.2238 -61.9774
-44.0065 -50.2238 -55.3691
5.2722 -42.2666 95.3108
16.0585 -31.6399 95.3108
-47.0639 44.5804 95.3108
35.5269 32.6872 95.3108
28.1237 -23.9287 95.3108
-22.5981 4.0510 95.3108
-34.7487 30.2335 95.3108
17.8620 48.9060 95.3108
-26.5564 22.5536 95.3108
-9.3955 -23.7813 95.3108
19.0904 -28.4918 95.3108
44.1990 25.9809 95.3108
-49.6265 -2.3635 95.3108
25.1472 -35.2421 95.3108
-21.7494 -31.7625 95.3108
-32.9800 47.0085 95.3108
28.1285 34.6280 95.3108
-10.0397 -2.1256 95.3108
-16.4949 -49.8296 95.3108
-27.7407 27.4909 95.3108
-19.0674 -47.9784 95.3108
41.3707 16.5776 95.3108
-19.6178 29.2386 95.3108
20.1060 7.8173 95.3108
23.1879 -16.8020 95.3108
-31.7591 -16.2367 95.3108
34.4139 49.3896 95.3108
-25.7407 48.7499 95.3108
23.0440 48.4818 95.3108
42.4167 -26.9185 95.3108
47.4787 10.0907 95.3108
9.6226 7.7995 95.3108
14.8073 -43.2950 95.3108
24.7816 -40.7578 95.3108
-7.9175 2.4412 95.3108
0.6493 -43.1688 95.3108
44.1739 50.1938 95.3108
-16.9411 12.5435 95.3108
48.1786 -18.1255 95.3108
28.7465 -29.0277 95.3108
23.8610 -4.0698 95.3108
1.5008 10.8278 95.3108
12.5115 42.8218 95.3108
4.8135 39.7931 95.3108
-40.7766 -25.2487 95.3108
-14.5037 20.7621 95.3108
-21.0314 -19.3900 95.3108
31.4716 19.4578 95.3108
-5.2244 30.7131 95.3108
-30.9457 -49.2900 95.3108
-27.1173 6.4995 95.3108
-29.5236 -43.1254 95.3108
2.9606 -47.1056 95.3108
18.5841 -15.1706 95.3108
-50.2771 33.9232 95.3108
-50.1747 -12.8633 95.3108
-14.4548 -31.9695 95.3108
-9.4991 2.1516 95.3108
31.9879 -11.2392 95.3108
-32.3786 -10.8831 95.3108
37.9920 -21.2456 95.3108
7.7486 -1.3795 95.3108
29.6218 11.5301 95.3108
16.5975 45.2354 95.3108
20.3873 -1.0533 95.3108
43.4382 29.2269 95.3108
-37.6968 6.1615 95.3108
-15.3621 -0.8078 95.3108
-38.3686 -41.0222 95.3108
16.7732 -17.1131 95.3108
-22.4864 -5.7349 95.3108
-2.0164 4.4558 95.3108
-30.8705 -0.4123 95.3108
-14.3690 26.5625 95.3108
-8.5251 -7.1440 95.3108
-48.7252 12.0901 95.3108
-25.5502 -18.4331 95.3108
10.8844 23.0572 95.3108
-14.8644 30.4035 95.3108
28.5094 16.5424 95.3108
-40.7779 -14.8589 95.3108
43.5646 27.8902 95.3108
-42.1046 -31.7894 95.3108
8.5871 42.6601 95.3108
-9.8068 -30.9835 95.3108
-2.9576 -27.8275 95.3108
-28.5615 16.8898 95.3108
28.3236 -41.6947 95.3108
-3.8269 31.5365 95.3108
-39.7826 22.8719 95.3108
-23.6025 -3.9116 95.3108
-31.3836 10.4352 95.3108
17.6625 3.6077 95.3108
-44.9963 35.6595 95.3108
-6.4651 -20.9825 95.3108
47.5209 -31.8044 95.3108
-41.1339 -14.0947 95.3108
49.1941 -31.8386 95.3108
48.0147 29.0711 95.3108
35.4165 35.9064 95.3108
47.8528 31.0227 95.3108
-33.5157 48.6166 95.3108
-50.9234 -5.1254 95.3108
-10.9291 -29.3855 95.3108
2.3454 8.5770 95.3108
36.0895 0.5163 95.3108
32.1435 -26.2095 95.3108
38.1916 40.6508 95.3108
-24.5941 22.4711 95.3108
24.5999 -23.7816 95.3108
25.5042 -39.2035 95.3108
21.1250 12.3192 95.3108
-43.0939 -49.8331 95.3108
45.7792 -26.5781 95.3108
6.5216 -10.3557 95.3108
-31.4460 -10.1341 95.3108
-44.4471 -7.1557 95.3108
8.2739 -5.4450 95.3108
37.4372 -19.8209 95.3108
-39.8449 5.1242 95.3108
-16.5586 27.1387 95.3108
-48.0210 -5.9366 95.3108
-37.4528 -7.4583 95.3108
-36.0072 44.2545 95.3108
5.2711 26.7040 95.3108
6.8256 -20.5472 95.3108
-24.2121 6.5359 95.3108
23.3329 -28.3246 95.3108
6.8657 -37.5360 95.3108
-48.2765 7.6837 95.3108
-13.7807 -30.0239 95.3108
-10.4085 -12.7082 95.3108
24.8607 -28.6906 95.3108
-2.0950 -41.1312 95.3108
9.3837 -44.8364 95.3108
-42.5545 39.1986 95.3108
32.3030 -16.2676 95.3108
4.4713 13.1373 95.3108
-3.7249 24.6364 95.3108
11.9100 -26.8319 95.3108
32.8632 29.3398 95.3108
50.0282 40.1891 95.3108
-20.6798 2.6474 95.3108
26.7501 -15.8017 95.3108
-31.5054 45.0476 95.3108
23.8971 27.2360 95.3108
4.2075 47.7832 95.3108
13.0690 -40.2937 95.3108
7.8335 -28.2513 95.3108
-33.3943 -22.4956 95.3108
17.6701 -47.2084 95.3108
-31.3229 -7.3788 95.3108
37.6671 -6.7899 95.3108
-32.8235 27.4335 95.3108
-27.0142 -22.6804 95.3108
1.7228 47.2819 95.3108
-39.6383 50.1042 95.3108
6.7827 23.6915 95.3108
-22.6349 -18.0871 95.3108
15.4208 -29.0041 95.3108
-47.6690 -22.5029 95.3108
-43.0366 -46.6777 95.3108
46.9078 -36.4123 95.3108
-44.5448 -7.8954 95.3108
-45.6400 -16.9973 95.3108
31.9445 -5.6240 95.3108
-45.3466 38.1903 95.3108
-33.9449 16.0842 95.3108
16.8973 -13.8121 95.3108
-34.8806 -17.2175 95.3108
-24.2212 43.1162 -95.3108
-2.7325 22.8428 -95.3108
-34.2428 1.3108 -95.3108
22.8550 -9.0553 -95.3108
-33.5169 -37.5876 -95.3108
44.5627 46.7382 -95.3108
-18.7150 0.0596 -95.3108
30.8746 12.5694 -95.3108
-26.5479 38.0571 -95.3108
-10.9116 -35.4960 -95.3108
5.9291 31.3301 -95.3108
23.9116 -20.7079 -95.3108
-0.7877 26.9158 -95.3108
16.6790 46.0387 -95.3108
22.5765 -43.4754 -95.3108
32.4851 -46.0107 -95.3108
-10.5395 43.4648 -95.3108
-48.8836 -12.2768 -95.3108
-35.2856 20.0286 -95.3108
-0.7941 31.3526 -95.3108
25.6642 28.4922 -95.3108
-41.7243 28.8245 -95.3108
-38.2561 -25.5111 -95.3108
-45.2343 49.5426 -95.3108
13.5872 38.8878 -95.3108
35.6469 0.2615 -95.3108
-48.0487 -1.4055 -95.3108
22.0250 -38.9499 -95.3108
-48.8211 -19.4372 -95.3108
1.6049 -26.5152 -95.3108
2.4900 46.3694 -95.3108
-35.8443 -48.8679 -95.3108
-15.4945 17.8531 -95.3108
32.3938 49.4742 -95.3108
9.9599 28.8404 -95.3108
-3.8074 25.1873 -95.3108
-8.4526 -17.3979 -95.3108
-30.7390 6.7113 -95.3108
13.4550 6.3459 -95.3108
-16.9751 -33.9111 -95.3108
-39.9555 28.3522 -95.3108
12.6675 6.6471 -95.3108
11.8905 8.4600 -95.3108
5.7253 25.3490 -95.3108
35.9831 0.9602 -95.3108
-7.2598 -8.8191 -95.3108
-40.8730 33.1187 -95.3108
-10.5363 28.8564 -95.3108
26.6793 13.3342 -95.3108
33.4720 13.4082 -95.3108
-28.2974 15.2860 -95.3108
-36.4348 9.4693 -95.3108
-38.8861 47.7850 -95.3108
26.2942 -49.0355 -95.3108
9.6690 1.0665 -95.3108
50.0161 -29.1096 -95.3108
-48.1654 -28.3609 -95.3108
-30.4325 -30.6955 -95.3108
25.9938 -23.7083 -95.3108
-35.7784 37.2516 -95.3108
49.7642 -14.4316 -95.3108
16.9242 -34.6424 -95.3108
-39.3323 -26.8488 -95.3108
-22.2736 -4.1413 -95.3108
-26.9679 -42.3601 -95.3108
2.4537 -16.4792 -95.3108
28.0947 -14.2944 -95.3108
-48.7934 -39.2432 -95.3108
-16.1965 -43.7961 -95.3108
-10.1129 5.6725 -95.3108
-0.5643 -9.4788 -95.3108
15.3484 29.7205 -95.3108
46.6707 13.4477 -95.3108
-4.7659 7.0699 -95.3108
20.9583 -32.8740 -95.3108
-1.0361 -38.6138 -95.3108
39.5363 -9.5605 -95.3108
-11.6142 -36.5428 -95.3108
-28.2273 0.9837 -95.3108
-14.9185 -49.2477 -95.3108
-13.5431 -29.8013 -95.3108
5.6512 -8.4401 -95.3108
30.5767 -20.6755 -95.3108
36.2823 41.3186 -95.3108
11.8091 44.1932 -95.3108
34.8702 -42.5015 -95.3108
-1.1991 -17.1967 -95.3108
-15.4312 -32.5802 -95.3108
-8.0046 -0.2234 -95.3108
-31.3616 -2.7379 -95.3108
-4.6952 47.2761 -95.3108
-7.3341 12.4181 -95.3108
-22.2370 36.2930 -95.3108
-25.1320 0.8992 -95.3108
8.7354 12.3264 -95.3108
22.4577 17.0274 -95.3108
-13.2786 -45.7176 -95.3108
23.6374 38.4909 -95.3108
-41.0138 -4.9320 -95.3108
25.7012 -19.2584 -95.3108
0.1878 21.7723 -95.3108
-49.4321 -49.7398 -95.3108
-28.5218 29.1173 -95.3108
-37.0092 -3.9545 -95.3108
-26.3830 -16.5125 -95.3108
2.6057 -3.4010 -95.3108
6.7307 -29.5723 -95.3108
-0.9929 14.9649 -95.3108
48.8467 -43.0565 -95.3108
46.8907 2.6287 -95.3108
25.2659 -42.9791 -95.3108
31.5058 -5.4651 -95.3108
39.5021 46.0742 -95.3108
-47.7566 -5.6434 -95.3108
-44.1754 -7.1826 -95.3108
-45.5145 -49.7586 -95.3108
30.1161 40.3889 -95.3108
-47.4416 42.9904 -95.3108
13.6533 -7.3191 -95.3108
-15.2245 -14.1464 -95.3108
-17.3465 40.1385 -95.3108
40.9723 -27.3112 -95.3108
45.7114 -11.0379 -95.3108
34.5048 -33.2258 -95.3108
1.8414 -36.6872 -95.3108
43.3357 -18.9190 -95.3108
-4.3906 -42.4484 -95.3108
-39.4735 36.5001 -95.3108
24.8293 46.5294 -95.3108
-30.9961 23.7310 -95.3108
4.9312 -18.6971 -95.3108
42.6281 -6.2958 -95.3108
4.0315 -10.4854 -95.3108
38.2563 -3.0437 -95.3108
-22.6054 24.1175 -95.3108
-13.2709 -16.8024 -95.3108
-8.1183 18.8767 -95.3108
43.3596 -7.7848 -95.3108
-47.9071 -19.7836 -95.3108
-3.4292 42.2586 -95.3108
-45.1155 12.1714 -95.3108
46.2269 -30.0402 -95.3108
-47.5811 35.4190 -95.3108
-7.8236 37.4059 -95.3108
7.2409 -36.1655 -95.3108
-25.0319 -8.9743 -95.3108
-22.1056 40.6507 -95.3108
49.9537 -37.0763 -95.3108
-47.1363 24.2285 -95.3108
8.0181 12.2298 -95.3108
22.3257 -42.0444 -95.3108
19.9385 15.9019 -95.3108
-10.7714 12.6708 -95.3108
-13.3363 -8.2709 -95.3108
-19.7439 23.7904 -95.3108
-26.1806 41.9770 -95.3108
9.5227 -48.4398 -95.3108
-39.7242 -46.9375 -95.3108
-7.6929 -38.0086 -95.3108
-2.4132 25.5344 -95.3108
-43.9103 -6.9084 -95.3108
33.7712 -40.5362 -95.3108
23.2183 -40.6918 -95.3108
34.8890 -23.8525 -95.3108
19.2403 3.1792 -95.3108
8.6154 10.8680 -95.3108
-0.1474 9.1832 -95.3108
-27.7436 -9.4068 -95.3108
-23.3896 -2.6531 -95.3108
11.3354 -34.1501 -95.3108
