ply
format ascii 1.0
element vertex 1024
property float x
property float y
property float z
end_header
41.0121 61.6706 27.5065
41.0121 62.5845 -24.4669
41.0121 33.9727 -32.1078
41.0121 28.5845 -30.8536
41.0121 -58.8308 26.8898
41.0121 -45.7729 29.1509
41.0121 36.7951 7.9744
41.0121 18.5585 -7.0957
41.0121 7.9714 -0.1948
41.0121 -62.6266 -39.9811
41.0121 42.5520 39.4480
41.0121 -34.6169 29.3545
41.0121 -45.9790 -1.0249
41.0121 11.7789 -20.5363
41.0121 17.0295 3.8580
41.0121 0.5379 -7.4087
41.0121 -26.9471 0.6702
41.0121 69.1824 -26.5164
41.0121 1.8122 24.2174
41.0121 45.5085 0.2205
41.0121 -34.4546 18.6618
41.0121 -32.6976 -31.7948
41.0121 34.7452 -25.9044
41.0121 -17.7462 21.7001
41.0121 37.2599 -25.9841
41.0121 -33.3947 21.5464
41.0121 -26.1987 12.6333
41.0121 23.3186 1.0599
41.0121 4.8764 -23.8969
41.0121 -46.7039 22.5896
41.0121 -20.0912 9.2293
41.0121 -57.3827 15.7506
41.0121 27.8642 -37.9563
41.0121 67.3205 -25.8636
41.0121 3.1493 -5.1946
41.0121 -64.4345 -7.7895
41.0121 50.2506 11.5841
41.0121 -32.5192 15.7159
41.0121 -27.9952 38.6931
41.0121 22.5558 -14.0978
41.0121 42.8614 -27.1987
41.0121 62.6580 23.8663
41.0121 67.1652 18.3300
41.0121 53.9138 -6.1183
41.0121 8.7136 -32.1152
41.0121 43.9953 36.2973
41.0121 -4.7134 11.0479
41.0121 21.0189 -28.5612
41.0121 64.5758 7.7743
41.0121 -24.7242 39.5719
41.0121 -25.7699 -32.9974
41.0121 -52.5290 36.0773
41.0121 -57.4919 -35.0377
41.0121 -35.3415 20.0042
41.0121 -41.8147 -34.1047
41.0121 -59.0881 38.0474
41.0121 -6.8275 31.8429
41.0121 0.0957 -20.5187
41.0121 -25.7296 6.1797
41.0121 -45.6686 -13.9339
41.0121 -18.4743 -20.6791
41.0121 7.8677 16.0084
41.0121 -65.6742 30.9522
41.0121 -58.9279 8.7808
41.0121 38.6638 10.2500
41.0121 -4.3618 -14.3127
41.0121 -32.7048 -37.2890
41.0121 17.8785 1.8095
41.0121 -3.8161 10.8347
41.0121 32.1092 7.6169
41.0121 -41.8943 30.9700
41.0121 -55.7914 10.0971
41.0121 59.5207 30.6888
41.0121 67.9489 4.1816
41.0121 30.1329 21.1519
41.0121 20.1158 -15.6406
41.0121 24.1050 -16.2816
41.0121 -44.3556 -18.0804
41.0121 41.4741 -19.0602
41.0121 -23.5374 -26.2392
41.0121 -19.4655 24.1190
41.0121 35.6894 7.0694
41.0121 26.2930 32.6128
41.0121 -2.6498 20.1888
41.0121 -64.2703 17.1033
41.0121 36.8936 26.9833
41.0121 47.5108 -14.5217
41.0121 -38.4607 34.8740
41.0121 57.4059 -13.4247
41.0121 -60.5261 29.6634
41.0121 -55.3245 -4.4960
41.0121 67.5898 -8.2796
41.0121 31.5881 6.3484
41.0121 -66.3434 -36.5240
41.0121 -19.7269 -6.3334
41.0121 -30.9951 -13.5454
41.0121 -62.8346 33.4146
41.0121 -15.5715 32.6155
41.0121 -8.6248 -29.2357
41.0121 -51.7083 -35.4732
41.0121 25.1343 -6.5832
41.0121 31.4574 -21.6706
41.0121 53.2791 25.7092
41.0121 -66.4569 -2.0529
41.0121 -62.2749 -7.9283
41.0121 10.3629 37.9470
41.0121 -33.4265 35.2229
41.0121 23.6352 16.4339
41.0121 36.0510 31.3005
41.0121 57.6245 -28.5794
41.0121 -17.1889 -4.6064
41.0121 38.8090 18.6047
41.0121 -54.2981 -34.8105
41.0121 -14.4630 26.3952
41.0121 -30.7558 -24.3301
41.0121 55.8994 32.5939
41.0121 14.9889 34.1449
41.0121 -13.0172 1.4337
41.0121 32.2772 -33.9760
41.0121 -32.0190 -40.1488
41.0121 -59.8193 -15.4820
41.0121 -31.1843 32.4866
41.0121 -13.7535 -15.1381
41.0121 15.6738 -35.4956
41.0121 -42.2429 -26.8294
41.0121 63.9684 -25.5738
41.0121 22.4554 -18.3402
41.0121 22.4731 12.5342
41.0121 -9.5654 -4.9189
41.0121 32.2109 -28.0110
41.0121 17.2361 -17.7903
41.0121 -10.7387 36.7295
41.0121 32.0066 -6.2634
41.0121 -23.1654 19.2482
41.0121 11.0317 6.9235
41.0121 48.2291 -12.9940
41.0121 20.9815 3.8091
41.0121 -62.5778 28.8588
41.0121 25.2355 19.2463
41.0121 41.7003 28.6544
41.0121 65.9932 1.7800
41.0121 -30.4478 -25.3519
41.0121 -24.5368 -37.5024
41.0121 34.4636 0.0241
41.0121 1.3551 -32.2614
41.0121 58.2654 20.0870
41.0121 -50.2195 -7.4632
41.0121 6.7491 -17.5403
41.0121 -51.4795 33.2285
41.0121 -0.9332 -39.9846
41.0121 -33.3186 -34.5635
41.0121 -13.4451 27.8526
41.0121 -23.2355 -16.4727
41.0121 31.0738 -17.5627
41.0121 -35.1276 -4.9415
41.0121 -65.2954 -31.9575
41.0121 19.0138 11.9274
41.0121 37.4184 -29.2748
41.0121 22.3743 -3.3708
41.0121 54.0731 -26.2643
41.0121 62.0089 -2.7585
41.0121 -37.9141 -2.2086
41.0121 -5.4015 -31.8096
41.0121 69.2742 13.4929
41.0121 -16.3166 17.0014
41.0121 -33.0367 38.5230
41.0121 -15.0746 -4.5193
41.0121 -13.5568 25.4164
41.0121 -4.6623 -29.3053
41.0121 -67.9428 5.4594
41.0121 -24.3294 -19.0262
-41.0121 64.2755 23.1051
-41.0121 17.7716 -20.2749
-41.0121 -58.7106 13.4719
-41.0121 14.4128 -24.2819
-41.0121 -54.4110 30.1256
-41.0121 13.9786 25.2070
-41.0121 -21.7671 -23.3160
-41.0121 -65.4375 1.0950
-41.0121 -29.5609 -36.8002
-41.0121 15.4527 34.6174
-41.0121 65.0389 -29.8003
-41.0121 3.0934 -24.6379
-41.0121 -60.3658 6.9485
-41.0121 -38.0352 -14.5614
-41.0121 -25.8113 6.6735
-41.0121 -59.9638 13.3365
-41.0121 15.0743 15.1728
-41.0121 -42.9479 25.5298
-41.0121 -63.7996 8.1709
-41.0121 11.6145 23.4528
-41.0121 -67.9978 -23.9305
-41.0121 -25.3049 25.6420
-41.0121 2.5717 22.4842
-41.0121 5.7246 17.4243
-41.0121 -17.3117 34.0157
-41.0121 -61.7327 8.2208
-41.0121 -0.6223 -28.7904
-41.0121 68.9779 0.7847
-41.0121 16.4932 20.5477
-41.0121 64.7043 1.6695
-41.0121 13.6416 31.1106
-41.0121 -33.4309 -3.9482
-41.0121 -34.2303 17.4653
-41.0121 -9.8410 17.0790
-41.0121 -63.7454 31.4118
-41.0121 3.9171 -35.8439
-41.0121 -43.0776 17.4463
-41.0121 -23.9905 28.9319
-41.0121 3.1025 -27.0292
-41.0121 47.9306 34.7778
-41.0121 24.9590 -20.8673
-41.0121 -23.1966 -30.6953
-41.0121 -63.9156 6.8390
-41.0121 -20.1082 -37.9698
-41.0121 59.7639 -39.4903
-41.0121 -45.1177 -13.7491
-41.0121 -24.8617 -30.7441
-41.0121 -28.8482 -32.2450
-41.0121 -12.5661 -11.3586
-41.0121 -11.3942 -35.4040
-41.0121 52.9803 -11.1937
-41.0121 62.9669 -18.3483
-41.0121 -26.6378 29.9664
-41.0121 -43.9840 19.6124
-41.0121 -20.6892 26.8595
-41.0121 -34.4090 29.8003
-41.0121 -49.8468 -2.6742
-41.0121 -26.7750 31.9178
-41.0121 -27.3831 -6.5060
-41.0121 -15.6988 15.4999
-41.0121 -59.4092 36.4530
-41.0121 -55.0599 15.4351
-41.0121 -4.5356 27.5686
-41.0121 -14.4267 3.8314
-41.0121 -21.2298 -2.5225
-41.0121 22.4637 -21.6599
-41.0121 -13.7166 -20.4122
-41.0121 -22.1799 -6.2983
-41.0121 68.3142 -7.3820
-41.0121 -46.2868 -26.8598
-41.0121 19.2800 1.7128
-41.0121 -63.2043 24.5870
-41.0121 18.8545 13.6421
-41.0121 0.3956 -34.6027
-41.0121 20.9271 16.8357
-41.0121 -0.6761 24.4189
-41.0121 30.7647 -8.6482
-41.0121 41.7478 -28.4466
-41.0121 -41.5544 -4.9698
-41.0121 32.1313 38.5851
-41.0121 18.1357 -37.3396
-41.0121 -66.8611 0.6731
-41.0121 -32.2944 -6.5248
-41.0121 23.7325 -12.6326
-41.0121 36.2659 28.0951
-41.0121 -50.5394 -19.0118
-41.0121 3.1165 14.7702
-41.0121 -49.5001 -8.8513
-41.0121 12.9628 -23.9586
-41.0121 -49.3115 14.4594
-41.0121 67.7671 25.3632
-41.0121 -56.1408 -38.9763
-41.0121 -62.6049 -32.7424
-41.0121 41.5201 -12.1005
-41.0121 45.1005 -11.2935
-41.0121 26.3716 30.8110
-41.0121 -33.4022 2.5709
-41.0121 -24.3389 38.6966
-41.0121 9.6882 5.2105
-41.0121 50.9190 -24.7587
-41.0121 64.9815 -17.2603
-41.0121 -65.5325 9.6707
-41.0121 -15.3995 29.8256
-41.0121 -4.6761 35.2328
-41.0121 -62.7307 35.0715
-41.0121 -16.8699 -25.3634
-41.0121 -18.0677 10.1748
-41.0121 34.7457 -3.5851
-41.0121 -20.2211 -26.2649
-41.0121 -41.2653 39.6465
-41.0121 -64.0420 -19.7469
-41.0121 -49.4979 3.7489
-41.0121 68.5905 0.5352
-41.0121 45.1985 26.4561
-41.0121 -56.1346 -14.6122
-41.0121 0.2903 -28.8913
-41.0121 13.7209 26.9794
-41.0121 51.4082 33.8411
-41.0121 50.1568 7.7857
-41.0121 2.1460 2.4805
-41.0121 -47.6600 20.4890
-41.0121 -1.6967 -1.9998
-41.0121 -12.1227 -18.0069
-41.0121 35.7932 -37.2740
-41.0121 9.1733 -5.7284
-41.0121 26.1848 -29.2228
-41.0121 -57.9129 35.1361
-41.0121 16.9456 -32.5365
-41.0121 -49.8857 26.8497
-41.0121 35.4292 34.3305
-41.0121 -34.7149 20.3023
-41.0121 -36.6277 27.1056
-41.0121 -12.0763 -2.9652
-41.0121 38.6990 38.7895
-41.0121 -12.9172 22.0990
-41.0121 -36.4676 -38.8155
-41.0121 63.3075 8.9497
-41.0121 6.6737 -11.2026
-41.0121 -56.2656 1.2624
-41.0121 11.0830 32.7000
-41.0121 -54.5567 -9.8699
-41.0121 6.0599 -0.8467
-41.0121 46.8768 24.4970
-41.0121 -53.7481 32.3440
-41.0121 45.0454 36.6919
-41.0121 -30.9706 -10.8387
-41.0121 -17.0794 39.9455
-41.0121 -18.8994 -10.2325
-41.0121 -57.1212 36.2930
-41.0121 7.4652 35.3128
-41.0121 -13.9304 4.3941
-41.0121 25.7938 24.0243
-41.0121 54.3891 -26.0338
-41.0121 19.6395 -33.1735
-41.0121 -51.6657 20.5778
-41.0121 -22.2058 -21.0227
-41.0121 61.7963 33.4353
-41.0121 61.5289 4.6632
-41.0121 36.7156 -0.1668
-41.0121 28.0335 -6.6056
-41.0121 -1.2569 0.2122
-41.0121 46.4957 15.2694
-41.0121 2.3502 -10.0133
-41.0121 -5.6774 -5.8056
-41.0121 -45.6298 30.9387
-41.0121 37.7266 -34.9976
-41.0121 -2.9997 -39.9502
-41.0121 -62.3220 12.7830
-41.0121 -31.0037 7.4287
-41.0121 -0.3799 14.0158
-41.0121 -65.6308 35.2599
-29.8391 69.3111 5.5211
-14.1416 69.3111 25.1206
-40.4215 69.3111 4.1463
-25.1896 69.3111 -8.3360
-40.8871 69.3111 16.0667
-0.6699 69.3111 -26.2073
38.3353 69.3111 38.6841
4.2805 69.3111 -32.2795
-10.5610 69.3111 -3.5705
2.6663 69.3111 22.2048
-40.4554 69.3111 12.8599
25.9582 69.3111 -31.6114
-13.8721 69.3111 3.7248
31.3109 69.3111 -16.1568
23.4733 69.3111 34.6142
-25.3179 69.3111 14.8172
20.8977 69.3111 8.9686
15.4620 69.3111 -21.9129
39.5070 69.3111 -22.9329
35.9177 69.3111 -13.1350
-3.6471 69.3111 -10.3585
-18.9710 69.3111 -5.0360
35.6493 69.3111 30.7996
39.4662 69.3111 31.0052
19.2959 69.3111 -38.1939
31.8960 69.3111 -13.6167
-10.4927 69.3111 -20.0764
-17.1629 69.3111 10.4941
-5.2083 69.3111 -33.2805
-3.3104 69.3111 -26.0198
15.1628 69.3111 -0.7154
35.9298 69.3111 -31.4871
-36.0074 69.3111 24.5462
8.1152 69.3111 -39.9960
-15.8025 69.3111 -34.6892
-26.7492 69.3111 -20.4961
6.3323 69.3111 5.5569
33.8480 69.3111 -26.1834
-31.4004 69.3111 -13.1745
24.0839 69.3111 -33.9145
-15.5311 69.3111 -20.2830
-26.5583 69.3111 -0.8219
13.8121 69.3111 6.2808
1.0520 69.3111 -34.1560
-10.0232 69.3111 -29.6629
-18.1355 69.3111 32.2148
34.6823 69.3111 7.6304
32.6096 69.3111 14.0497
-17.3189 69.3111 -10.3185
10.6355 69.3111 -23.7086
-35.6574 69.3111 28.7899
40.1870 69.3111 -33.9427
20.7596 69.3111 -37.9651
-6.1027 69.3111 -30.6464
10.3775 69.3111 9.1763
-23.7864 69.3111 -19.7001
2.8199 69.3111 10.6793
-5.5943 69.3111 37.5437
25.6520 69.3111 5.6328
-10.0132 69.3111 -16.9815
-39.7068 69.3111 3.7793
-29.1022 69.3111 -26.3042
-33.6727 69.3111 -3.7208
-0.1803 69.3111 -38.2369
-40.9058 69.3111 38.4093
-10.4473 69.3111 -35.8070
-33.1345 69.3111 20.8144
9.3085 69.3111 -19.1264
13.5732 69.3111 24.7806
32.8499 69.3111 23.3612
-4.0651 69.3111 -22.2182
-4.5200 69.3111 30.3675
18.1923 69.3111 -17.6688
37.7827 69.3111 -5.3780
-0.9879 69.3111 -38.2043
-39.6400 69.3111 -26.5982
-22.5951 69.3111 -24.2153
18.6521 69.3111 -22.2726
17.2953 69.3111 34.1006
-11.9491 69.3111 21.6114
-21.5665 69.3111 -24.8887
-37.0298 69.3111 25.1913
2.2534 69.3111 31.2450
2.8257 69.3111 29.9804
-10.7203 69.3111 -18.8850
16.2620 69.3111 -38.1583
-16.7430 69.3111 -16.9908
-4.3227 69.3111 -5.7875
-38.7819 69.3111 -2.8106
4.8959 69.3111 17.9535
26.7015 69.3111 17.2677
-15.4941 69.3111 33.6729
5.7092 69.3111 2.3770
-8.9273 69.3111 -24.3525
-5.8699 69.3111 9.7782
-27.6412 69.3111 -23.4802
-23.5984 69.3111 -23.4644
31.7885 69.3111 5.5925
3.1151 69.3111 -4.7667
19.1364 69.3111 26.9867
35.7691 69.3111 -30.4919
-25.3215 69.3111 14.9842
39.2923 69.3111 26.4092
-31.9032 69.3111 14.0214
8.7683 69.3111 -36.7943
-23.1010 69.3111 -2.0965
25.3026 69.3111 -29.3732
24.7867 69.3111 -11.6375
4.9181 69.3111 30.8321
-20.2148 69.3111 9.0680
5.8508 69.3111 -31.9124
4.8180 69.3111 -21.3716
36.3194 69.3111 -11.8831
17.9155 69.3111 -14.0443
39.8526 69.3111 -34.2476
3.4135 69.3111 30.5906
14.5840 69.3111 -35.3324
-4.7640 69.3111 32.4374
-39.8760 69.3111 37.6954
-17.9569 69.3111 12.5514
16.4513 69.3111 -11.0297
20.2172 69.3111 -20.8301
16.2674 69.3111 24.3872
22.7441 69.3111 -4.0627
-5.6185 69.3111 23.0950
-21.9169 69.3111 36.8904
-31.1581 69.3111 29.2425
-36.5469 69.3111 4.2711
-12.8481 69.3111 38.9680
-16.3794 69.3111 -9.5499
-29.3540 69.3111 -18.7462
18.8578 69.3111 3.0180
-8.1463 69.3111 35.4286
34.1100 69.3111 17.5332
38.3611 69.3111 29.3519
26.7192 69.3111 -16.2971
25.3081 69.3111 12.3724
-9.8066 69.3111 -13.1161
19.6322 69.3111 -31.4083
-21.9602 69.3111 10.3127
-30.1485 69.3111 -20.2019
-19.1710 69.3111 20.7734
9.4857 69.3111 17.1087
-35.2263 69.3111 -9.2384
-12.4515 69.3111 12.8705
-3.0555 69.3111 36.7466
-0.2709 69.3111 37.3463
-8.8360 69.3111 5.0050
13.3354 69.3111 6.2852
-32.6408 69.3111 16.6683
3.0299 69.3111 -3.0496
7.4558 69.3111 27.3030
6.0326 69.3111 6.5937
-8.6284 69.3111 26.1366
-14.1106 69.3111 32.1629
35.8257 69.3111 -10.4398
33.1426 69.3111 -34.5918
15.5270 69.3111 -9.4368
11.4525 69.3111 -30.5140
-30.5723 69.3111 13.4801
-19.6144 69.3111 0.6367
-11.3965 69.3111 -28.3624
-23.3770 69.3111 -20.4319
21.2004 69.3111 -16.1638
-13.8013 69.3111 25.8155
-38.2770 69.3111 0.4040
-27.6555 69.3111 9.1685
-2.2870 69.3111 -22.3426
15.4472 69.3111 11.3797
29.7083 69.3111 36.1087
-17.1128 69.3111 -13.6105
9.7373 -69.3111 36.0536
-33.5690 -69.3111 6.7549
18.9757 -69.3111 37.0730
-20.9485 -69.3111 -15.3577
-37.8546 -69.3111 -16.6215
-6.2923 -69.3111 38.3486
4.5444 -69.3111 -13.7157
38.5476 -69.3111 11.1261
-38.3599 -69.3111 -4.8815
-32.3995 -69.3111 -17.2956
-33.6928 -69.3111 -36.9080
5.5236 -69.3111 30.5869
8.8637 -69.3111 -13.8975
8.9756 -69.3111 -16.6799
21.8049 -69.3111 -15.4993
-3.1629 -69.3111 -16.3637
2.7136 -69.3111 -4.8275
-28.3338 -69.3111 13.3966
-25.9354 -69.3111 22.6705
-33.3717 -69.3111 -36.5776
29.4692 -69.3111 6.3519
32.0101 -69.3111 -21.7404
6.9076 -69.3111 28.6973
-29.0916 -69.3111 -26.1091
5.8643 -69.3111 28.4781
37.0701 -69.3111 -34.5892
-3.0394 -69.3111 13.3056
-10.9829 -69.3111 -8.2889
13.3113 -69.3111 0.0526
-20.7062 -69.3111 -34.5365
-2.5270 -69.3111 37.2758
39.0629 -69.3111 16.3603
21.0540 -69.3111 -34.2596
-30.1891 -69.3111 -22.1877
16.3291 -69.3111 -15.7957
11.3597 -69.3111 -16.3417
-14.3405 -69.3111 3.6902
-18.0271 -69.3111 23.1637
-19.7912 -69.3111 5.8259
3.9089 -69.3111 34.7888
16.5258 -69.3111 35.9458
-38.0027 -69.3111 11.6907
-2.4862 -69.3111 -29.2203
-21.3162 -69.3111 19.9232
40.2721 -69.3111 -1.0766
-22.0511 -69.3111 39.5007
15.7995 -69.3111 -12.4669
-13.5031 -69.3111 38.0887
-10.8228 -69.3111 -2.2016
34.0979 -69.3111 -32.7475
14.7616 -69.3111 1.5719
24.6326 -69.3111 -16.5298
13.9666 -69.3111 -23.1120
10.9830 -69.3111 -28.5040
-5.0890 -69.3111 -30.1141
3.5745 -69.3111 23.0136
32.4807 -69.3111 -1.4722
18.4539 -69.3111 -15.0620
39.3979 -69.3111 -16.2328
-15.3359 -69.3111 20.4042
-39.1867 -69.3111 39.6277
1.9938 -69.3111 -3.7672
-32.7305 -69.3111 -14.9347
-26.3841 -69.3111 -27.6924
-8.0449 -69.3111 -31.3874
-27.2298 -69.3111 11.6736
33.3177 -69.3111 -20.1455
-25.7032 -69.3111 7.1214
38.3206 -69.3111 -2.1694
-32.9072 -69.3111 29.3633
29.6946 -69.3111 -28.6893
-27.0987 -69.3111 39.2490
39.9152 -69.3111 -17.5523
10.8712 -69.3111 -32.7822
-10.8883 -69.3111 28.3898
-3.6925 -69.3111 -13.7507
2.6304 -69.3111 35.8420
-18.5610 -69.3111 39.2120
-6.0630 -69.3111 34.2853
16.7140 -69.3111 38.3196
-35.2212 -69.3111 22.0590
-33.5117 -69.3111 9.5081
6.7269 -69.3111 -31.8812
38.6693 -69.3111 28.2436
-4.9539 -69.3111 -3.6439
10.5995 -69.3111 19.2052
17.8017 -69.3111 37.2943
-11.1694 -69.3111 -38.7458
-26.3686 -69.3111 31.5533
-31.3269 -69.3111 39.5555
16.6729 -69.3111 36.9354
37.5769 -69.3111 13.1635
32.5732 -69.3111 28.4609
-17.5275 -69.3111 17.9992
-12.4105 -69.3111 31.6951
12.2540 -69.3111 -18.2174
-31.7869 -69.3111 22.4250
-29.3634 -69.3111 -11.5749
-9.2828 -69.3111 -29.8680
8.9699 -69.3111 8.0821
12.2370 -69.3111 -27.0569
-26.0311 -69.3111 1.8214
28.4996 -69.3111 -4.2114
35.0599 -69.3111 -36.6228
-40.7439 -69.3111 30.5332
-40.5548 -69.3111 -11.0160
-10.3932 -69.3111 6.1858
30.1396 -69.3111 -11.9384
-28.5623 -69.3111 30.1020
31.5156 -69.3111 38.9148
8.2917 -69.3111 27.9627
9.7328 -69.3111 -34.3970
29.1613 -69.3111 -12.6827
-29.6147 -69.3111 9.6000
30.0734 -69.3111 -28.1427
36.8206 -69.3111 24.3556
27.3262 -69.3111 13.1938
10.0280 -69.3111 -19.5303
12.5250 -69.3111 -4.2397
-13.9879 -69.3111 14.4790
23.6867 -69.3111 7.5168
34.4659 -69.3111 40.3111
36.6329 -69.3111 -35.2607
-23.9587 -69.3111 -26.1457
2.6504 -69.3111 34.7139
17.5672 -69.3111 -7.7994
-20.1681 -69.3111 -11.1328
-28.3196 -69.3111 -33.4743
-15.8687 -69.3111 -3.2978
-24.7493 -69.3111 -12.9065
-25.6176 -69.3111 -22.8360
-22.0603 -69.3111 -23.6756
27.7781 -69.3111 16.5410
-13.3225 -69.3111 -15.0256
39.0222 -69.3111 -13.9391
-3.2730 -69.3111 -40.0472
18.1435 -69.3111 -37.0043
13.5080 -69.3111 35.9100
30.3309 -69.3111 3.0531
-19.4705 -69.3111 -4.4364
37.2139 -69.3111 36.8615
3.9196 -69.3111 8.6966
12.8328 -69.3111 20.6375
-14.1399 -69.3111 -32.6457
-20.8307 -69.3111 -20.5946
-28.0860 -69.3111 -18.1378
-13.7999 -69.3111 -24.4020
35.3348 -69.3111 -33.8284
-5.2866 -69.3111 -12.6086
-5.6979 -69.3111 14.7953
-22.2484 -69.3111 17.7490
18.8080 -69.3111 -27.0026
-30.6989 -69.3111 -14.5314
40.4735 -69.3111 -3.9052
29.2684 -69.3111 -9.5928
-24.8319 -69.3111 4.2347
28.0954 -69.3111 -28.9630
-17.6000 -69.3111 37.9312
37.7152 -69.3111 37.7373
-18.6875 -69.3111 -22.4160
-24.7276 -69.3111 22.6183
5.3211 -69.3111 12.0860
-15.4636 -69.3111 -18.5623
-18.6268 -69.3111 -21.8749
30.5597 -69.3111 -14.1761
13.4630 -69.3111 -37.5600
13.6979 -69.3111 -9.3505
-12.5898 -69.3111 -8.6335
-26.0609 -69.3111 -23.6322
-24.0746 -69.3111 -13.6638
-19.2748 -69.3111 18.0672
19.3667 19.7333 40.3402
-3.6500 -52.7543 40.3402
-26.6900 -30.2001 40.3402
17.5472 -4.1213 40.3402
38.0878 -59.1126 40.3402
27.8821 -26.9407 40.3402
-11.5067 64.1629 40.3402
-37.1468 -61.0627 40.3402
-28.6373 51.8358 40.3402
27.1709 -22.1467 40.3402
-33.5355 3.5478 40.3402
-4.8336 38.7037 40.3402
-10.6894 -45.6010 40.3402
23.7159 16.7448 40.3402
-0.2494 27.3514 40.3402
-0.5711 23.2885 40.3402
20.4025 58.8771 40.3402
14.7875 45.6956 40.3402
13.5773 -7.6163 40.3402
27.0749 -33.1950 40.3402
7.9870 -41.4790 40.3402
36.5480 -24.7522 40.3402
1.1492 -29.9224 40.3402
36.7913 18.6009 40.3402
-28.1133 8.6339 40.3402
12.8148 60.7845 40.3402
17.0089 65.8802 40.3402
-21.9738 -15.3339 40.3402
-18.8294 46.6379 40.3402
-27.3828 37.9698 40.3402
0.0166 -49.7973 40.3402
-10.8637 -42.3233 40.3402
-33.6880 61.0863 40.3402
-32.9956 -64.8842 40.3402
-5.9137 57.2727 40.3402
-24.4643 -37.3537 40.3402
-0.0426 -23.1404 40.3402
1.4242 66.3927 40.3402
-23.2919 -48.7482 40.3402
-5.6890 -1.1966 40.3402
1.8988 -24.9609 40.3402
-8.7301 63.7946 40.3402
-27.3644 46.0414 40.3402
12.7966 -9.4792 40.3402
3.3053 34.5964 40.3402
28.3278 -2.9827 40.3402
-24.7908 34.8877 40.3402
36.7691 -1.7345 40.3402
-16.2522 1.1540 40.3402
-7.3265 -66.9703 40.3402
-18.2019 -47.9512 40.3402
-26.6731 -2.2196 40.3402
-27.6281 -9.9780 40.3402
23.7589 -18.6947 40.3402
28.4042 -21.4966 40.3402
10.9214 8.4408 40.3402
20.7570 9.5563 40.3402
14.6797 -13.5053 40.3402
15.0501 -18.6430 40.3402
28.4704 36.7149 40.3402
-36.4015 17.7400 40.3402
31.2214 37.8921 40.3402
39.6911 42.4797 40.3402
4.6666 7.1460 40.3402
31.8797 -40.6442 40.3402
-34.1290 24.0949 40.3402
7.3708 -53.8775 40.3402
-15.6518 -47.6166 40.3402
-25.0475 -17.3891 40.3402
34.6163 56.1859 40.3402
28.3102 40.0194 40.3402
-19.4235 -51.7268 40.3402
-3.0412 -53.1838 40.3402
-31.0117 68.4254 40.3402
19.1218 -32.6697 40.3402
20.3758 52.3341 40.3402
-23.4906 -62.7112 40.3402
11.7571 46.9240 40.3402
1.7041 -2.7788 40.3402
33.7643 -24.4748 40.3402
-16.6456 23.8482 40.3402
-16.9340 -15.8621 40.3402
25.9443 56.7984 40.3402
-23.4438 -40.2221 40.3402
40.4604 -24.0747 40.3402
-9.9101 -21.5841 40.3402
21.9285 -42.0785 40.3402
-36.5383 40.3621 40.3402
11.7650 51.9732 40.3402
-31.5942 -8.6978 40.3402
-14.5131 5.5430 40.3402
39.6941 34.9460 40.3402
-12.9651 -8.3520 40.3402
-19.4959 45.9873 40.3402
19.9729 -9.5388 40.3402
-21.9954 -19.4345 40.3402
-25.4155 38.6420 40.3402
-25.4563 -60.4499 40.3402
33.8178 7.0655 40.3402
-17.8835 -41.7503 40.3402
40.4883 18.2556 40.3402
17.4654 -34.8712 40.3402
10.4943 59.9533 40.3402
-8.1565 -20.6512 40.3402
3.0543 16.1158 40.3402
1.3167 -22.9959 40.3402
-34.4269 -34.5042 40.3402
-21.4537 67.0927 40.3402
0.6284 45.4237 40.3402
36.4943 9.6084 40.3402
7.4106 18.2866 40.3402
21.5210 -37.0244 40.3402
-29.4665 -16.1219 40.3402
13.3806 28.0101 40.3402
6.7013 -55.5559 40.3402
-35.5134 -67.0629 40.3402
-16.5442 27.9778 40.3402
-30.1027 -10.8628 40.3402
-23.0094 -61.5643 40.3402
-40.6089 -66.1721 40.3402
-21.3720 47.3201 40.3402
21.9647 -44.3916 40.3402
34.1580 -25.6471 40.3402
-16.7595 53.0730 40.3402
-39.4148 12.9521 40.3402
-28.2897 39.5976 40.3402
-29.8405 -24.5087 40.3402
-28.3586 25.1341 40.3402
22.4631 -6.7492 40.3402
32.7967 -38.1431 40.3402
-20.9999 -67.1579 40.3402
33.7575 -37.7580 40.3402
4.2738 12.5088 40.3402
11.9451 -6.5257 40.3402
5.3834 43.6640 40.3402
2.5469 66.0838 40.3402
-26.4107 57.6569 40.3402
-18.8496 9.5594 40.3402
-12.7746 -10.9895 40.3402
-37.4281 52.3043 40.3402
0.7219 -26.0629 40.3402
9.9906 -37.9571 40.3402
40.8826 16.1114 40.3402
-13.4083 30.7927 40.3402
-22.2314 -34.7786 40.3402
-21.7133 4.5949 40.3402
22.8296 7.9486 40.3402
-26.5896 -27.5405 40.3402
-12.1064 -62.9881 40.3402
-39.0991 8.7669 40.3402
-18.9657 -37.3339 40.3402
-28.0637 -63.4754 40.3402
9.6044 66.3256 40.3402
32.6715 -20.3529 40.3402
-21.9520 9.8552 40.3402
-17.3453 48.3302 40.3402
-26.4521 -44.7491 40.3402
4.3174 24.3766 40.3402
26.4966 12.5480 40.3402
7.1768 -10.3928 40.3402
-30.1651 -49.7801 40.3402
-33.6610 -58.1746 40.3402
-7.8554 39.7100 40.3402
38.8289 -26.0277 40.3402
13.4512 42.5466 40.3402
7.4872 -28.9246 40.3402
5.8189 52.1065 40.3402
-21.1615 -32.1967 40.3402
-9.3944 64.3641 40.3402
-24.8781 31.7509 40.3402
5.2415 -63.1184 -40.3402
-2.8721 49.9603 -40.3402
-32.2516 -46.6843 -40.3402
9.3154 -53.0645 -40.3402
40.0723 26.1980 -40.3402
-29.3251 21.0581 -40.3402
-25.3214 -20.7620 -40.3402
-32.7027 21.5588 -40.3402
14.4074 46.9868 -40.3402
-40.8862 68.0665 -40.3402
-6.2002 -27.0929 -40.3402
-22.7249 31.9569 -40.3402
-9.3689 -26.6720 -40.3402
-23.7763 -20.8365 -40.3402
28.2547 -61.7474 -40.3402
-0.3317 63.6291 -40.3402
-15.2614 61.2379 -40.3402
-12.8934 -10.7107 -40.3402
40.7700 -3.8203 -40.3402
-40.3807 -14.5966 -40.3402
-20.1713 23.6146 -40.3402
39.6687 -1.6505 -40.3402
-31.1706 67.7428 -40.3402
-0.8119 31.1669 -40.3402
26.1695 3.3857 -40.3402
-20.8786 -10.4366 -40.3402
-19.1632 -45.2815 -40.3402
-8.8638 -17.2753 -40.3402
18.3223 36.9833 -40.3402
-15.7630 40.2171 -40.3402
32.1586 -68.3684 -40.3402
-25.4889 21.6612 -40.3402
-9.6985 42.4209 -40.3402
3.1092 15.8511 -40.3402
-17.1461 -14.8528 -40.3402
33.6645 68.6169 -40.3402
38.9170 46.0090 -40.3402
40.5355 69.3095 -40.3402
9.7132 -8.3696 -40.3402
28.3328 44.1174 -40.3402
-16.2636 36.0114 -40.3402
9.1162 8.2395 -40.3402
36.1764 -19.6724 -40.3402
25.7261 -57.4927 -40.3402
23.2855 -29.2479 -40.3402
37.1539 34.4505 -40.3402
-11.3421 7.7987 -40.3402
21.3425 -4.0354 -40.3402
19.5992 39.7660 -40.3402
9.3220 16.8589 -40.3402
0.2997 -23.7436 -40.3402
-14.0826 55.5338 -40.3402
7.1052 65.8111 -40.3402
-14.0922 25.5181 -40.3402
-18.2092 17.3067 -40.3402
12.9898 27.9710 -40.3402
-0.2966 -54.8393 -40.3402
24.9541 -2.0726 -40.3402
-32.3089 16.7993 -40.3402
8.0512 -12.1155 -40.3402
30.7297 -68.2118 -40.3402
15.3993 -5.8406 -40.3402
35.3118 56.4658 -40.3402
-8.0077 -40.7751 -40.3402
40.0529 -7.8332 -40.3402
-30.4191 28.0054 -40.3402
-20.9786 3.9489 -40.3402
27.1409 -7.0706 -40.3402
25.6038 -62.6657 -40.3402
-10.7119 -31.7331 -40.3402
-37.6332 -0.0792 -40.3402
-14.4880 -27.2797 -40.3402
33.4259 -9.9344 -40.3402
11.0415 -61.2096 -40.3402
-8.9019 -5.5214 -40.3402
-24.4674 30.1825 -40.3402
-38.5910 10.0799 -40.3402
30.7515 60.6058 -40.3402
8.1451 -10.7305 -40.3402
29.0598 -0.7452 -40.3402
-6.3709 66.8867 -40.3402
-11.3247 58.3876 -40.3402
-30.5436 -29.8347 -40.3402
-5.4616 67.8896 -40.3402
25.0185 -17.1411 -40.3402
-33.0675 -30.4619 -40.3402
12.5946 62.3141 -40.3402
12.5344 -57.9435 -40.3402
27.9879 -33.9526 -40.3402
3.4353 -65.2022 -40.3402
-36.8750 49.6568 -40.3402
-38.4721 68.0740 -40.3402
9.0619 -54.6591 -40.3402
24.5384 -5.7022 -40.3402
-2.2549 -12.9599 -40.3402
4.7855 10.8952 -40.3402
-39.0802 35.3651 -40.3402
-22.2684 5.5242 -40.3402
21.8248 -27.6100 -40.3402
34.8882 57.2068 -40.3402
4.2451 -25.0924 -40.3402
-31.2050 -46.1070 -40.3402
22.7996 -25.3419 -40.3402
-19.4602 -23.9463 -40.3402
1.7704 -8.4130 -40.3402
37.7861 -9.4307 -40.3402
6.0056 -58.7786 -40.3402
-1.6603 -8.1803 -40.3402
-11.6339 -33.7326 -40.3402
3.7984 61.8341 -40.3402
16.3310 61.0892 -40.3402
28.3257 -68.2071 -40.3402
7.6944 8.9538 -40.3402
2.8942 21.1136 -40.3402
26.2478 -25.1418 -40.3402
5.6282 33.7550 -40.3402
39.5408 -28.4330 -40.3402
-17.5525 -21.7265 -40.3402
7.1015 -35.1816 -40.3402
12.3851 -64.5778 -40.3402
-35.6908 -49.9096 -40.3402
-38.5860 -30.9277 -40.3402
-28.4048 -49.0854 -40.3402
31.9424 55.8249 -40.3402
-22.2091 -65.1296 -40.3402
-22.5820 -15.5970 -40.3402
-23.4582 -43.5319 -40.3402
34.5368 27.9679 -40.3402
-27.0687 30.4305 -40.3402
24.8786 -59.0441 -40.3402
-22.2226 -37.6997 -40.3402
-25.5857 27.5670 -40.3402
31.1814 55.5137 -40.3402
-23.3150 -53.4102 -40.3402
22.1777 31.4848 -40.3402
32.0329 22.3332 -40.3402
-28.5447 -60.5927 -40.3402
6.1723 -33.5809 -40.3402
20.7070 -28.4799 -40.3402
-9.7298 21.7957 -40.3402
-36.8332 -19.5314 -40.3402
14.9959 -53.6031 -40.3402
-10.8950 55.6594 -40.3402
-28.5752 -0.3579 -40.3402
2.3999 18.9515 -40.3402
-11.0791 15.1439 -40.3402
-26.1729 -61.6173 -40.3402
23.4539 54.8800 -40.3402
33.7835 -35.6984 -40.3402
-7.8129 11.0331 -40.3402
-12.4875 55.4409 -40.3402
-29.0341 63.2730 -40.3402
5.1640 -15.9149 -40.3402
1.7927 -32.4191 -40.3402
34.8398 9.3000 -40.3402
-36.5609 -58.3548 -40.3402
-39.5859 -62.0168 -40.3402
19.8158 -3.1238 -40.3402
12.7361 -31.4240 -40.3402
4.7041 21.2160 -40.3402
9.7384 37.0642 -40.3402
6.9749 66.3121 -40.3402
10.1780 -67.1483 -40.3402
-4.4554 -58.1782 -40.3402
2.2876 53.8456 -40.3402
-9.1695 4.4060 -40.3402
-14.4353 -5.7771 -40.3402
18.5472 -5.0374 -40.3402
-37.9093 5.6119 -40.3402
-24.1817 58.8053 -40.3402
