ply
format ascii 1.0
element vertex 1024
property float x
property float y
property float z
end_header
66.8417 40.0175 69.3522
66.8417 -16.8889 -0.0177
66.8417 -30.3811 70.8325
66.8417 -11.9215 54.1099
66.8417 48.8225 38.3766
66.8417 -7.8282 -55.6634
66.8417 53.9778 45.6503
66.8417 -12.9137 -21.6539
66.8417 27.9293 -70.7655
66.8417 -10.9717 51.8165
66.8417 -42.3708 12.7489
66.8417 25.3252 68.2628
66.8417 -40.2616 -69.2499
66.8417 2.2282 35.7628
66.8417 56.0002 -23.0305
66.8417 17.3316 -23.7367
66.8417 -42.3795 -21.5591
66.8417 32.9994 55.6104
66.8417 -1.2946 -34.7110
66.8417 54.9219 30.3816
66.8417 4.2083 -39.7097
66.8417 1.2833 54.3033
66.8417 55.5750 -63.9332
66.8417 -25.4911 23.3640
66.8417 49.4527 60.0414
66.8417 -10.8326 48.4999
66.8417 -6.3428 -32.5832
66.8417 -32.3779 8.1364
66.8417 -49.1223 -14.3443
66.8417 25.5228 46.5083
66.8417 -27.2648 -30.0936
66.8417 56.9074 72.0640
66.8417 21.6962 -27.3863
66.8417 38.0141 -21.4951
66.8417 -21.3592 -59.4851
66.8417 17.0236 16.9561
66.8417 -40.0226 -15.5117
66.8417 31.5949 -63.2473
66.8417 40.1441 -52.9680
66.8417 13.1516 -37.3397
66.8417 13.5823 -15.9693
66.8417 26.7772 -70.6068
66.8417 14.9171 -48.6998
66.8417 8.7336 -65.7219
66.8417 29.5912 -44.6875
66.8417 -58.7311 45.3806
66.8417 56.9535 58.8795
66.8417 10.5713 -33.1523
66.8417 -35.4452 20.7205
66.8417 56.4980 60.1611
66.8417 34.3734 -30.4156
66.8417 32.2589 -23.8386
66.8417 -11.9361 48.6490
66.8417 58.9691 -3.7985
66.8417 35.1201 -46.3415
66.8417 -14.8546 -65.6297
66.8417 -23.5063 -35.7184
66.8417 23.0013 -34.0169
66.8417 -16.1575 39.8016
66.8417 -57.8097 -36.2817
66.8417 -14.4205 -60.7347
66.8417 -8.2233 -9.8091
66.8417 -32.0045 -61.3109
66.8417 -19.1240 -30.3101
66.8417 -48.6389 -44.9988
66.8417 24.6933 45.0632
66.8417 -50.9944 4.9473
66.8417 28.1942 49.9127
66.8417 -29.6084 -42.2593
66.8417 -11.2877 56.4499
66.8417 -31.5613 -29.9405
66.8417 38.8989 11.6358
66.8417 -32.5910 -11.1097
66.8417 -41.9906 42.5383
66.8417 37.9534 45.8232
66.8417 -1.0374 61.4991
66.8417 -32.7846 28.9886
66.8417 -14.8659 -60.5859
66.8417 -25.3310 6.2493
66.8417 -3.5442 -52.4173
66.8417 -53.4574 -10.4947
66.8417 6.7627 -51.7186
66.8417 2.1251 -17.8087
66.8417 41.4009 -64.5670
66.8417 59.3476 -61.7002
66.8417 -19.5244 -67.3243
66.8417 42.5335 65.4811
66.8417 -59.5950 55.7586
66.8417 15.7240 0.1882
66.8417 -29.1269 -66.8665
66.8417 9.5950 2.9494
66.8417 -7.5595 23.9243
66.8417 40.7010 2.9803
66.8417 57.5898 -18.0298
66.8417 -4.2488 -48.7394
66.8417 -2.1370 69.1601
66.8417 5.8763 -10.6285
66.8417 -48.5975 64.0291
66.8417 -39.1967 -1.5901
66.8417 -50.1700 69.2926
66.8417 -53.5758 43.6666
66.8417 -9.7644 55.7268
66.8417 14.5438 6.1029
66.8417 55.8303 6.9795
66.8417 8.6770 -69.2318
66.8417 -40.0321 -57.3584
66.8417 -2.4885 -13.9951
66.8417 37.0233 -40.6231
66.8417 40.6290 -20.9439
66.8417 24.5806 45.6862
66.8417 49.3428 19.9151
66.8417 50.3728 65.7038
66.8417 14.9445 -42.7744
66.8417 -59.3249 -43.3947
66.8417 -34.5769 9.9050
66.8417 10.9882 62.7884
66.8417 48.6288 52.0289
66.8417 -2.4140 -0.3389
66.8417 -58.0784 -48.7687
66.8417 31.6458 23.3778
66.8417 34.2656 54.8569
66.8417 -58.0745 -48.4919
66.8417 47.1843 71.6847
66.8417 -33.0347 13.6229
66.8417 -36.7817 -37.1543
66.8417 20.6692 67.0539
66.8417 30.1298 30.8118
66.8417 26.5595 -21.5635
66.8417 -28.7568 52.1021
66.8417 47.9260 -25.2069
66.8417 -33.7779 10.2841
66.8417 36.3837 39.8502
66.8417 16.5290 8.3356
66.8417 48.7706 37.1104
66.8417 52.2243 67.7938
66.8417 47.5388 11.2626
66.8417 10.7411 29.3584
66.8417 32.2574 13.9510
66.8417 36.1221 66.8366
66.8417 -19.8486 -66.3283
66.8417 39.5510 63.8400
66.8417 41.6904 25.4847
66.8417 50.3757 -9.2029
66.8417 52.4609 30.2562
66.8417 31.4562 14.4947
66.8417 -54.0543 66.4890
66.8417 -47.5549 -30.2039
66.8417 43.4559 59.9585
66.8417 -15.3045 65.1190
66.8417 -50.9813 32.2398
66.8417 -31.5916 37.7366
66.8417 -25.5025 41.4274
66.8417 -23.6604 7.1413
66.8417 53.1381 54.5713
66.8417 -11.9425 58.1219
66.8417 -42.9191 34.6431
66.8417 31.0359 -1.3565
66.8417 -11.6573 -68.0645
66.8417 -29.4270 -29.7134
66.8417 -11.7156 56.2552
66.8417 20.1459 12.5662
66.8417 5.0086 -19.6148
66.8417 -36.5083 8.1539
66.8417 -50.5761 48.2966
66.8417 31.6497 -9.8079
66.8417 -50.6213 -53.8426
66.8417 -33.2312 36.7380
66.8417 -28.6256 51.4180
66.8417 -27.9077 -39.1095
66.8417 -27.2851 -68.7400
66.8417 40.3504 31.5037
-66.8417 -32.1628 -38.0695
-66.8417 8.8847 -14.2738
-66.8417 -48.9977 -21.2818
-66.8417 12.0956 63.2083
-66.8417 -38.2503 59.2695
-66.8417 48.8729 63.2149
-66.8417 -52.0403 -55.3793
-66.8417 -24.1450 -29.5896
-66.8417 4.4169 -54.2792
-66.8417 36.4780 -40.0881
-66.8417 -20.7864 -67.2730
-66.8417 55.9181 -28.0351
-66.8417 54.8078 -32.8539
-66.8417 39.2131 -31.2190
-66.8417 47.0058 26.1666
-66.8417 55.4333 -14.9467
-66.8417 -50.4471 36.1869
-66.8417 -55.7500 -23.7629
-66.8417 -36.6213 25.6316
-66.8417 -43.0893 -29.2997
-66.8417 -28.0239 17.9366
-66.8417 -12.4287 45.7991
-66.8417 2.1027 0.9647
-66.8417 -5.2455 28.9517
-66.8417 29.3557 -44.1937
-66.8417 -17.2200 -67.7210
-66.8417 -28.2675 30.9594
-66.8417 -2.5150 -20.8829
-66.8417 41.2780 20.3512
-66.8417 51.5674 -13.4299
-66.8417 56.8630 -57.3805
-66.8417 -41.5328 49.3829
-66.8417 5.4351 42.5097
-66.8417 15.9443 19.9788
-66.8417 8.6985 26.8937
-66.8417 -14.4462 15.3640
-66.8417 1.4267 -32.0936
-66.8417 -35.8159 56.3631
-66.8417 54.8415 31.9850
-66.8417 36.9506 -25.1893
-66.8417 11.5979 -55.3965
-66.8417 58.5762 -57.7608
-66.8417 -58.4175 31.9069
-66.8417 27.8820 -1.8884
-66.8417 3.6771 37.4189
-66.8417 30.1771 41.5120
-66.8417 56.4785 -60.4980
-66.8417 52.9426 -67.8266
-66.8417 10.9597 71.2715
-66.8417 -45.4336 44.2943
-66.8417 -16.8030 -0.5619
-66.8417 20.3878 -1.1305
-66.8417 -57.3545 -40.4054
-66.8417 13.3146 -1.5899
-66.8417 -54.0368 67.3422
-66.8417 -19.1603 32.1355
-66.8417 -26.1558 33.9912
-66.8417 -58.6627 -27.0027
-66.8417 -2.7980 -22.0886
-66.8417 39.8846 52.0923
-66.8417 3.2186 -33.4876
-66.8417 -53.8647 -50.0627
-66.8417 -39.4682 22.4232
-66.8417 56.6554 -43.4548
-66.8417 -32.2733 27.6157
-66.8417 -6.8534 -50.7692
-66.8417 33.8735 64.5443
-66.8417 50.8636 -29.3498
-66.8417 -54.3855 70.6501
-66.8417 -24.1066 -20.0389
-66.8417 -18.2770 28.9130
-66.8417 -30.4540 -37.9919
-66.8417 19.6356 63.8356
-66.8417 37.7708 -28.2521
-66.8417 3.7844 69.6524
-66.8417 -46.8229 37.5224
-66.8417 21.1569 -7.8065
-66.8417 18.0562 69.7815
-66.8417 -13.1818 58.3677
-66.8417 38.1207 -27.5387
-66.8417 -55.8768 65.5218
-66.8417 3.8074 -5.6758
-66.8417 34.9235 26.2713
-66.8417 48.6545 40.1977
-66.8417 -41.0553 54.3259
-66.8417 -26.2657 2.6075
-66.8417 51.6653 29.5558
-66.8417 -41.0010 -28.6252
-66.8417 19.6325 -51.0280
-66.8417 46.7565 -57.0854
-66.8417 -53.5795 27.8042
-66.8417 -13.1310 -37.5057
-66.8417 27.6522 -16.5106
-66.8417 -57.9037 -30.3598
-66.8417 51.0115 -38.3444
-66.8417 -38.3064 0.6348
-66.8417 25.2581 14.7384
-66.8417 43.3597 -69.9933
-66.8417 17.2358 15.5032
-66.8417 -36.8135 44.8298
-66.8417 29.8838 -15.9468
-66.8417 2.8049 -64.8974
-66.8417 -13.3644 -13.5633
-66.8417 -42.9870 -58.7581
-66.8417 -50.3426 59.1647
-66.8417 37.0864 9.1357
-66.8417 20.5547 52.0765
-66.8417 -18.9383 -53.6351
-66.8417 -25.1098 -27.1326
-66.8417 28.4883 41.2677
-66.8417 -47.8208 50.6534
-66.8417 57.9689 -14.5996
-66.8417 -11.1058 35.2642
-66.8417 -27.9128 69.6642
-66.8417 48.4295 -8.5368
-66.8417 36.6317 -11.3228
-66.8417 -49.5941 -34.5560
-66.8417 49.4849 35.2111
-66.8417 -15.7189 19.9604
-66.8417 20.7673 -5.1170
-66.8417 8.5534 -64.7014
-66.8417 -27.6016 51.9188
-66.8417 57.9821 -67.1328
-66.8417 -22.8356 -68.2873
-66.8417 27.0194 -36.7474
-66.8417 -48.8272 24.5352
-66.8417 -30.8603 -11.6440
-66.8417 29.0434 -65.8295
-66.8417 46.1206 0.7413
-66.8417 -49.0907 40.3261
-66.8417 14.8430 29.8232
-66.8417 14.9806 48.1241
-66.8417 52.7415 5.3577
-66.8417 40.4398 -3.0544
-66.8417 5.0728 -11.3681
-66.8417 55.6440 63.1285
-66.8417 52.8282 32.6801
-66.8417 -3.0773 35.5220
-66.8417 -52.3893 -26.9061
-66.8417 -15.9355 -59.2811
-66.8417 -37.5000 -43.2974
-66.8417 55.4998 -7.8619
-66.8417 -12.1732 -31.7310
-66.8417 30.9828 70.5710
-66.8417 -29.8160 -30.2003
-66.8417 -55.7316 -60.2375
-66.8417 -54.3382 -22.2954
-66.8417 -47.0787 -44.1616
-66.8417 27.6114 -24.9242
-66.8417 30.7892 14.9146
-66.8417 -26.2381 -5.2472
-66.8417 -56.1458 61.3510
-66.8417 8.3490 -7.9199
-66.8417 52.4574 -10.0431
-66.8417 13.4016 -23.2213
-66.8417 -17.7900 -7.7137
-66.8417 -45.9665 35.9924
-66.8417 7.4171 27.3301
-66.8417 29.6167 4.0097
-66.8417 55.5352 4.4461
-66.8417 31.9516 -15.9721
-66.8417 43.5440 49.6820
-66.8417 22.7428 26.5690
-66.8417 -59.7680 -46.8275
-66.8417 -31.8261 -36.5802
-66.8417 -16.9228 33.9393
-66.8417 -31.6754 -9.9740
-66.8417 15.2917 55.5515
-66.8417 5.5403 20.9464
-66.8417 -45.7026 -60.7147
-66.8417 -45.6799 -6.7299
58.6639 59.9669 -29.3080
-30.5132 59.9669 1.0032
55.2552 59.9669 -11.8442
3.6688 59.9669 51.7013
-48.3407 59.9669 44.7904
61.6778 59.9669 53.5742
11.7342 59.9669 -30.6084
-48.2023 59.9669 10.4868
-63.9528 59.9669 5.2881
14.8264 59.9669 8.1186
-30.0509 59.9669 24.5893
57.3757 59.9669 52.8537
-16.6743 59.9669 -11.1642
1.8913 59.9669 44.2028
-64.5108 59.9669 48.9261
-62.4503 59.9669 -10.5954
58.6729 59.9669 8.6521
-42.5295 59.9669 6.6875
40.3975 59.9669 -68.3744
29.4974 59.9669 46.9916
36.7377 59.9669 -65.0739
-65.0309 59.9669 -61.4626
40.4765 59.9669 -64.6007
-25.4911 59.9669 20.9746
-22.8411 59.9669 17.3856
56.3535 59.9669 -7.8631
-16.7331 59.9669 -45.8963
46.6182 59.9669 25.8467
-5.4664 59.9669 63.8544
-20.6617 59.9669 -69.7815
-5.4792 59.9669 -11.1837
-57.4533 59.9669 50.5671
20.0319 59.9669 -3.4549
7.6005 59.9669 -40.7832
-31.6054 59.9669 38.3383
-42.9866 59.9669 3.6136
-20.6546 59.9669 34.2289
-5.2078 59.9669 -55.4450
-16.2031 59.9669 -41.9002
8.9555 59.9669 58.4059
-23.2264 59.9669 50.1406
53.2447 59.9669 -32.1312
46.5778 59.9669 12.0132
54.5441 59.9669 -45.9011
-44.9213 59.9669 42.1839
26.6332 59.9669 23.3728
-51.8790 59.9669 -72.2114
-17.4493 59.9669 -59.9183
4.4544 59.9669 -4.2688
40.2555 59.9669 -18.3843
35.0994 59.9669 -37.8541
-63.5615 59.9669 -22.2469
-34.9472 59.9669 -49.4546
-58.9872 59.9669 -19.4305
46.1547 59.9669 40.4458
-22.1019 59.9669 56.8631
-19.1407 59.9669 -22.0808
17.6739 59.9669 30.0286
-46.8072 59.9669 22.8534
2.1146 59.9669 -61.4010
-12.8279 59.9669 22.7007
-2.7497 59.9669 -46.0922
43.6811 59.9669 -66.5829
61.0617 59.9669 -53.6918
60.9352 59.9669 60.1451
21.2829 59.9669 57.3117
-24.9391 59.9669 -30.9028
37.1869 59.9669 52.6287
52.3409 59.9669 42.7587
-11.4996 59.9669 25.5053
-65.0528 59.9669 -0.1008
49.0253 59.9669 30.0714
-31.0959 59.9669 56.3937
60.3985 59.9669 -62.1420
2.9253 59.9669 64.6966
29.9262 59.9669 -19.1216
21.3448 59.9669 -37.2703
26.1982 59.9669 -45.0388
-61.4958 59.9669 -21.9186
59.4161 59.9669 46.3924
51.6953 59.9669 15.6185
-35.7149 59.9669 -45.7241
-44.7657 59.9669 17.8934
-29.4027 59.9669 -10.9402
29.5973 59.9669 -39.1653
-21.6571 59.9669 51.1811
-42.0564 59.9669 42.7135
-44.6396 59.9669 68.5676
58.7326 59.9669 10.3465
65.9941 59.9669 44.1812
55.4496 59.9669 -20.4849
23.2493 59.9669 22.4296
-60.0803 59.9669 55.6434
2.1805 59.9669 -67.8003
-39.1540 59.9669 -8.5252
23.6023 59.9669 -9.7022
-61.9813 59.9669 -31.9501
-19.0502 59.9669 -41.3089
-30.2457 59.9669 -26.9479
62.3606 59.9669 -64.3282
-53.7480 59.9669 48.5903
63.8527 59.9669 70.3600
28.1143 59.9669 7.1730
7.7491 59.9669 72.0476
-11.8440 59.9669 -38.6608
25.1233 59.9669 -32.3791
-54.3877 59.9669 -36.3792
-57.8770 59.9669 -68.2239
-11.3668 59.9669 51.4917
24.5266 59.9669 23.4787
-0.8852 59.9669 -26.8233
-53.3787 59.9669 52.1443
-15.5173 59.9669 13.8035
-37.3674 59.9669 71.5658
1.5056 59.9669 67.7385
54.5253 59.9669 25.0943
53.2692 59.9669 18.6531
-39.9361 59.9669 18.1185
34.7456 59.9669 60.2234
14.7569 59.9669 -29.8720
-57.7784 59.9669 63.2026
-39.2153 59.9669 -65.5790
54.4728 59.9669 -29.7737
48.2017 59.9669 25.7728
-2.9718 59.9669 8.2637
29.4724 59.9669 58.0999
2.4878 59.9669 -29.4834
-3.0242 59.9669 31.0445
-19.5492 59.9669 68.8840
-43.4837 59.9669 37.7339
-65.3011 59.9669 -60.9072
-19.3803 59.9669 44.1962
37.0352 59.9669 14.3933
-22.1260 59.9669 -59.2652
-42.0377 59.9669 42.5054
26.6141 59.9669 43.4657
30.1804 59.9669 70.2859
13.2322 59.9669 -51.3607
12.0406 59.9669 -43.6358
-58.6535 59.9669 4.0145
-34.8604 59.9669 -14.0347
53.9461 59.9669 -27.8317
43.6763 59.9669 -41.1463
-6.6449 59.9669 65.7212
-63.4887 59.9669 -13.0501
-48.5564 59.9669 48.2635
0.1585 59.9669 -43.0460
21.8830 59.9669 -19.9346
50.4274 59.9669 -72.0030
20.1920 59.9669 39.0720
-65.4614 59.9669 -18.1283
34.3934 59.9669 13.6751
30.1536 59.9669 -32.1295
55.4061 59.9669 -21.0548
28.8767 59.9669 39.1300
11.5664 59.9669 -67.6566
-65.7159 59.9669 41.5981
-2.0770 59.9669 18.2377
25.3831 59.9669 19.1770
5.4590 59.9669 26.8746
20.1246 59.9669 30.0600
31.3339 59.9669 -7.8002
-2.9188 59.9669 47.1071
-66.0566 59.9669 -56.6437
9.2153 59.9669 47.5634
28.8257 59.9669 -25.8409
-41.4698 59.9669 -17.7144
66.7432 59.9669 53.2528
-60.6903 59.9669 -52.0924
-47.9765 59.9669 33.9638
-65.2624 59.9669 -49.2041
-37.1978 -59.9669 -40.8273
-9.5996 -59.9669 41.8238
49.2860 -59.9669 -0.7773
-21.0808 -59.9669 -2.3916
21.4765 -59.9669 -48.8981
-64.2184 -59.9669 43.9799
7.6451 -59.9669 42.1942
51.5836 -59.9669 24.2732
-46.6304 -59.9669 35.9956
61.5420 -59.9669 -62.1236
-49.3636 -59.9669 19.6193
0.9376 -59.9669 58.3789
-31.9636 -59.9669 40.0617
-6.9066 -59.9669 19.8533
23.5503 -59.9669 -31.2242
36.5631 -59.9669 46.4721
-20.3403 -59.9669 27.7952
2.7578 -59.9669 31.0221
-6.4402 -59.9669 50.9239
17.3727 -59.9669 -4.7607
57.0662 -59.9669 61.8947
43.1840 -59.9669 -55.1700
-4.6860 -59.9669 -49.0424
35.3010 -59.9669 -32.1495
-64.8827 -59.9669 24.9249
25.1295 -59.9669 35.7086
-65.8473 -59.9669 -43.8849
2.4011 -59.9669 17.2259
8.2653 -59.9669 -22.4318
-16.9995 -59.9669 50.6218
7.0198 -59.9669 15.8111
-32.2997 -59.9669 47.9531
3.0168 -59.9669 30.4552
-6.0289 -59.9669 -54.3219
-55.1790 -59.9669 4.3639
48.8050 -59.9669 -12.2855
-25.3991 -59.9669 -60.8052
-57.4636 -59.9669 58.4749
0.1656 -59.9669 -68.2130
58.4550 -59.9669 -58.2147
-31.6626 -59.9669 -41.3500
29.2967 -59.9669 -3.9178
-37.0709 -59.9669 -33.9153
-58.1295 -59.9669 23.3298
27.9264 -59.9669 -0.5717
-43.1834 -59.9669 1.9943
-24.9463 -59.9669 -64.0353
53.9393 -59.9669 64.9874
1.2242 -59.9669 -4.4857
-24.4983 -59.9669 57.2032
-18.7869 -59.9669 -19.3507
-2.5096 -59.9669 -33.6098
-15.3925 -59.9669 -67.8882
-49.6125 -59.9669 20.3932
53.4870 -59.9669 1.5562
24.7521 -59.9669 -71.4296
31.2454 -59.9669 -16.2954
41.1090 -59.9669 1.9152
28.7775 -59.9669 66.5919
-50.7907 -59.9669 15.5104
-59.1459 -59.9669 -59.8486
-62.1032 -59.9669 -4.0513
-12.8904 -59.9669 -25.9773
57.1475 -59.9669 -62.8822
46.8237 -59.9669 39.8709
47.7955 -59.9669 -0.3304
-42.7301 -59.9669 -52.8472
-37.6310 -59.9669 -47.9542
0.7879 -59.9669 -41.4568
59.1108 -59.9669 -70.1749
-18.8140 -59.9669 -59.9501
-42.8295 -59.9669 42.8236
11.8670 -59.9669 68.9800
6.0825 -59.9669 -34.9655
33.3064 -59.9669 54.1373
33.1385 -59.9669 52.2340
-3.6678 -59.9669 19.7238
58.7631 -59.9669 13.3578
4.2579 -59.9669 40.1728
56.6914 -59.9669 59.9815
43.7030 -59.9669 -18.8338
-20.9247 -59.9669 58.8503
24.4976 -59.9669 -3.4656
-10.6824 -59.9669 54.0144
-24.1900 -59.9669 -59.7898
34.1916 -59.9669 21.0184
20.0263 -59.9669 16.9169
15.3862 -59.9669 -17.5696
25.9506 -59.9669 11.6279
44.4335 -59.9669 18.7337
46.6644 -59.9669 65.0973
42.4925 -59.9669 -17.5957
-58.1325 -59.9669 -51.5023
-22.7546 -59.9669 53.0357
-18.9885 -59.9669 -12.3428
31.5307 -59.9669 -18.0137
61.6104 -59.9669 3.5385
-46.3728 -59.9669 -18.5325
-50.1313 -59.9669 -61.6348
24.2056 -59.9669 14.4943
-7.9370 -59.9669 -36.5834
60.5454 -59.9669 41.9465
-33.3657 -59.9669 -27.2909
31.4628 -59.9669 63.4150
-13.8097 -59.9669 22.3035
51.5533 -59.9669 -8.4810
12.4168 -59.9669 -45.3925
-37.0689 -59.9669 31.0868
40.4943 -59.9669 38.6550
5.0977 -59.9669 -6.9807
-55.1226 -59.9669 -31.5539
57.2342 -59.9669 38.4583
57.1614 -59.9669 -51.8522
-65.9385 -59.9669 17.1273
-0.4390 -59.9669 -65.2949
-20.4874 -59.9669 -64.0979
34.2320 -59.9669 36.4125
-28.6643 -59.9669 9.9081
-50.5803 -59.9669 33.5269
-38.6691 -59.9669 -28.0881
61.4609 -59.9669 46.7479
-53.9635 -59.9669 -14.4827
-48.9568 -59.9669 69.1185
-39.8996 -59.9669 -54.5081
-47.9259 -59.9669 2.7687
-59.9626 -59.9669 15.2302
-50.5564 -59.9669 -29.1437
35.9862 -59.9669 13.2613
45.2507 -59.9669 60.2856
-20.9919 -59.9669 -65.5073
65.5935 -59.9669 -18.1730
-44.0355 -59.9669 -22.0867
11.1337 -59.9669 -54.7754
-54.1136 -59.9669 59.2362
-58.6151 -59.9669 -3.2528
34.1729 -59.9669 -52.6671
26.8597 -59.9669 -42.8854
-31.9658 -59.9669 -67.8999
-15.4689 -59.9669 -25.4641
41.4917 -59.9669 -17.2435
-15.2163 -59.9669 31.1386
6.8227 -59.9669 47.9609
-4.2387 -59.9669 12.0696
-63.7678 -59.9669 -23.6997
29.5100 -59.9669 -21.8397
-46.3274 -59.9669 36.1000
3.6519 -59.9669 -39.0812
-26.5878 -59.9669 53.6444
-50.5957 -59.9669 -31.0100
31.3686 -59.9669 -60.1127
60.2498 -59.9669 43.7532
60.6782 -59.9669 -29.2031
2.6979 -59.9669 -0.2482
53.3575 -59.9669 65.7958
-25.3718 -59.9669 19.4820
-25.3715 -59.9669 -44.6342
-47.5206 -59.9669 -31.9431
27.1979 -59.9669 21.8322
-47.7535 -59.9669 18.5643
33.3517 -59.9669 5.6167
-1.5738 -59.9669 -2.7100
20.2564 -59.9669 -0.1710
-44.4419 -59.9669 16.4350
-36.1447 -59.9669 -55.6536
61.5235 -59.9669 -52.5297
-50.8396 -59.9669 -27.8798
55.3061 -59.9669 -40.2733
-2.2483 -59.9669 -67.6285
-51.4148 -59.9669 -53.0592
-31.2952 -59.9669 60.2126
2.7344 -59.9669 -2.3531
-14.0058 -20.4552 72.2767
35.8145 -7.3536 72.2767
47.1088 -54.3135 72.2767
-0.6279 -2.0718 72.2767
-5.8017 -25.7698 72.2767
0.8186 32.2327 72.2767
-15.0254 -30.5759 72.2767
-45.0644 -47.3661 72.2767
-2.3368 3.2068 72.2767
21.9285 -29.2059 72.2767
-58.5074 -11.5812 72.2767
-65.3067 58.7907 72.2767
34.1923 40.7310 72.2767
14.6618 7.7798 72.2767
-57.7100 53.6560 72.2767
11.5869 11.4021 72.2767
52.8193 -32.3649 72.2767
54.3075 -1.2527 72.2767
-16.6420 58.9533 72.2767
-38.9454 -22.2876 72.2767
33.0855 -22.6888 72.2767
-6.1163 41.2957 72.2767
-60.0048 23.4499 72.2767
8.0821 -59.8265 72.2767
-28.5785 -49.0695 72.2767
-41.6919 -11.5986 72.2767
53.5309 -14.7877 72.2767
19.2349 39.2362 72.2767
33.4555 53.1298 72.2767
8.9973 -16.8681 72.2767
-32.5824 35.1211 72.2767
8.0377 38.5781 72.2767
33.7184 -38.8961 72.2767
49.9938 -53.1447 72.2767
-39.8019 -39.6947 72.2767
28.2010 -26.2622 72.2767
0.3155 36.9452 72.2767
-59.2446 36.7395 72.2767
-26.5001 5.1008 72.2767
-53.6605 -58.7529 72.2767
58.1924 31.4551 72.2767
-37.5501 52.9210 72.2767
24.0402 19.1875 72.2767
-20.9152 40.7186 72.2767
52.6517 34.5995 72.2767
3.4162 26.7225 72.2767
35.5549 47.0316 72.2767
44.7342 -34.8351 72.2767
-59.8778 -43.1208 72.2767
-40.4019 24.5048 72.2767
46.3825 -53.0033 72.2767
-32.1763 -11.6151 72.2767
37.2081 27.3030 72.2767
-27.5560 55.4457 72.2767
23.4693 38.1815 72.2767
56.2771 -13.3287 72.2767
51.1774 52.8470 72.2767
34.0707 -22.1276 72.2767
-2.9359 22.7245 72.2767
27.6470 48.0528 72.2767
-48.3859 -21.9815 72.2767
62.7931 -49.6155 72.2767
24.2157 53.7426 72.2767
58.5192 13.0181 72.2767
11.2963 -32.2150 72.2767
27.5269 -50.5126 72.2767
-26.6751 16.8923 72.2767
-61.4631 -47.3387 72.2767
30.6737 -50.9398 72.2767
14.1362 -44.6148 72.2767
-21.6957 0.1629 72.2767
46.8189 42.4089 72.2767
-26.8717 -33.3548 72.2767
-36.9858 21.5824 72.2767
43.6200 -8.8065 72.2767
3.3206 42.9102 72.2767
41.0642 -23.8624 72.2767
-50.1166 -4.9786 72.2767
65.6497 49.2105 72.2767
-38.0826 16.9336 72.2767
41.1002 -20.1455 72.2767
26.2435 55.7445 72.2767
29.5582 -0.7626 72.2767
-54.6685 58.7978 72.2767
-34.0804 -52.9453 72.2767
36.0835 -48.9431 72.2767
55.6134 -0.3795 72.2767
-28.9568 -22.5309 72.2767
-58.0657 55.5905 72.2767
-31.3003 21.2988 72.2767
7.3118 7.3426 72.2767
-24.4633 36.8893 72.2767
56.1719 24.1907 72.2767
14.0101 35.4447 72.2767
-43.0745 39.0620 72.2767
-38.4108 37.5738 72.2767
-63.0654 31.5652 72.2767
-39.7784 -34.6683 72.2767
-46.8124 -23.0463 72.2767
-13.3005 29.9789 72.2767
-33.1433 -12.3837 72.2767
-36.4311 54.6058 72.2767
62.9081 36.3844 72.2767
-57.9549 -35.1436 72.2767
6.7266 -22.6110 72.2767
-26.7472 50.5358 72.2767
-56.0047 -46.3848 72.2767
19.3843 -12.6744 72.2767
-16.1090 -56.1914 72.2767
2.5357 -54.4568 72.2767
-41.1530 7.0443 72.2767
-42.3349 -29.5927 72.2767
-24.2485 10.7452 72.2767
48.0284 -49.4015 72.2767
57.9651 -24.8226 72.2767
-17.4276 -0.8754 72.2767
35.9669 23.2776 72.2767
-22.8998 21.7125 72.2767
39.2071 -48.4866 72.2767
24.1470 47.4943 72.2767
7.1081 38.2435 72.2767
25.4623 -43.6403 72.2767
-44.4891 -14.3281 72.2767
53.5792 48.2612 72.2767
-52.1762 52.0509 72.2767
7.6108 -43.1266 72.2767
1.4862 -16.5127 72.2767
-10.2294 27.1340 72.2767
26.5850 8.0745 72.2767
-60.2702 -13.7663 72.2767
-14.2092 -10.5862 72.2767
-20.7864 25.2320 72.2767
-9.0128 -32.5783 72.2767
43.1608 33.9983 72.2767
-53.3521 5.0249 72.2767
32.0499 2.2609 72.2767
-31.4431 5.0485 72.2767
-63.8909 -39.7579 72.2767
20.6033 38.9476 72.2767
46.1764 -49.1249 72.2767
34.5249 -19.9392 72.2767
-24.0560 55.9180 72.2767
-53.8381 20.3008 72.2767
13.0818 8.6314 72.2767
41.3537 28.3806 72.2767
38.2448 14.6160 72.2767
57.0244 17.1717 72.2767
-33.7973 -31.8233 72.2767
59.3608 -28.9311 72.2767
-21.3440 5.6202 72.2767
7.6533 -55.7396 72.2767
59.2009 -43.2314 72.2767
19.0651 -4.6471 72.2767
-19.1531 -26.3065 72.2767
39.1731 -40.7770 72.2767
-14.3842 2.0968 72.2767
-64.0085 -9.8085 72.2767
1.7122 47.0938 72.2767
39.6697 -10.3427 72.2767
-59.8443 -30.2497 72.2767
0.1698 -9.1423 72.2767
39.1161 -42.3749 72.2767
0.3973 3.9412 72.2767
17.1945 -40.2607 72.2767
-61.2317 44.5894 72.2767
-33.6324 -19.3329 72.2767
-60.1791 32.6819 72.2767
-44.3951 -9.7637 72.2767
62.5904 36.6907 72.2767
-52.4065 11.6965 72.2767
3.9496 52.7819 -72.2767
52.2401 50.9726 -72.2767
19.6687 9.4643 -72.2767
-41.8024 28.2956 -72.2767
9.2401 38.4515 -72.2767
-8.0726 42.4365 -72.2767
-66.2418 -40.4987 -72.2767
-2.8635 4.6436 -72.2767
7.1026 -2.7762 -72.2767
-40.4743 50.2239 -72.2767
-34.4803 31.4874 -72.2767
-39.9642 -38.2628 -72.2767
-41.5433 49.9457 -72.2767
50.2346 11.6703 -72.2767
16.7034 -8.1455 -72.2767
-16.0934 9.5068 -72.2767
36.7312 6.3247 -72.2767
-37.0998 -10.2571 -72.2767
49.2086 55.5195 -72.2767
9.6627 -8.8859 -72.2767
46.6079 48.6354 -72.2767
-65.8787 34.6742 -72.2767
-3.0020 -53.3408 -72.2767
-27.1130 -24.3915 -72.2767
-52.4642 -59.8007 -72.2767
47.6188 -58.7596 -72.2767
-27.8460 -55.8942 -72.2767
6.4318 -47.4023 -72.2767
-55.2262 7.5107 -72.2767
27.4745 -2.5372 -72.2767
27.2185 50.2709 -72.2767
-43.7405 44.2816 -72.2767
19.4912 53.4716 -72.2767
25.3144 17.5463 -72.2767
52.4535 8.0482 -72.2767
-25.3084 22.5895 -72.2767
-41.0398 13.5818 -72.2767
48.2820 -28.7265 -72.2767
-36.9457 27.9577 -72.2767
7.6462 9.6820 -72.2767
-5.2812 3.2711 -72.2767
50.5974 -58.7104 -72.2767
22.7937 35.2202 -72.2767
34.2516 -32.4870 -72.2767
64.3685 -27.8042 -72.2767
62.9188 -24.6922 -72.2767
18.1250 -14.0410 -72.2767
-29.7708 28.0643 -72.2767
-18.0647 -2.0736 -72.2767
66.6774 -44.9982 -72.2767
2.0356 28.1911 -72.2767
29.1201 50.0190 -72.2767
-4.5055 -1.7641 -72.2767
37.9751 45.8555 -72.2767
50.4664 -13.5916 -72.2767
55.2334 -47.5594 -72.2767
-38.5640 -24.5925 -72.2767
41.3893 40.4949 -72.2767
15.9332 -47.5290 -72.2767
-65.9448 45.2690 -72.2767
-32.6014 -31.3765 -72.2767
28.8509 -32.5275 -72.2767
-47.1124 7.9235 -72.2767
-39.4357 -12.7973 -72.2767
-21.7108 30.2966 -72.2767
-33.9230 -13.8449 -72.2767
54.3767 22.3941 -72.2767
-40.7161 8.1573 -72.2767
18.9718 43.8576 -72.2767
-58.0016 -20.1010 -72.2767
-29.9567 19.5304 -72.2767
3.2501 -42.6665 -72.2767
19.4322 -41.5218 -72.2767
44.0341 9.0878 -72.2767
-44.7151 50.1764 -72.2767
34.4952 27.2026 -72.2767
-49.6419 -3.5448 -72.2767
3.0636 -57.7205 -72.2767
1.8778 19.9273 -72.2767
66.8142 53.6153 -72.2767
-6.7061 28.6077 -72.2767
62.5419 47.3539 -72.2767
-6.5383 8.9789 -72.2767
-16.5043 -48.5691 -72.2767
13.5187 -26.5306 -72.2767
-42.3528 -21.3282 -72.2767
-56.5855 -18.2231 -72.2767
-6.2732 -27.0305 -72.2767
-66.3018 56.5222 -72.2767
45.5657 1.2031 -72.2767
-63.7110 -32.9483 -72.2767
56.8158 -25.0644 -72.2767
47.5467 -1.1287 -72.2767
-59.5074 45.9571 -72.2767
48.2516 -20.5412 -72.2767
61.9867 8.1581 -72.2767
-2.6977 -26.2984 -72.2767
33.6969 25.2782 -72.2767
37.3054 -19.6860 -72.2767
62.5689 28.1662 -72.2767
-20.2440 -17.6489 -72.2767
-62.1954 -51.7122 -72.2767
32.1825 -58.9422 -72.2767
45.8957 -46.4036 -72.2767
-38.2745 -38.4205 -72.2767
-31.2660 13.2995 -72.2767
55.9582 12.6196 -72.2767
-58.6905 -11.9219 -72.2767
39.7355 -26.0603 -72.2767
-38.5155 -56.7907 -72.2767
-64.3794 -59.5599 -72.2767
-41.9125 -15.3171 -72.2767
-21.4148 21.6269 -72.2767
-39.8562 6.9840 -72.2767
-37.3933 -35.6838 -72.2767
37.5814 -30.1879 -72.2767
64.7350 -28.2071 -72.2767
-21.0289 14.4503 -72.2767
44.9733 -26.6044 -72.2767
-21.7852 37.2698 -72.2767
-38.7784 -46.3108 -72.2767
-54.2755 -28.9825 -72.2767
30.2710 -5.8690 -72.2767
54.6411 50.2142 -72.2767
25.6939 -52.1246 -72.2767
-9.9239 52.0259 -72.2767
-26.7153 -1.2043 -72.2767
62.3434 -57.5482 -72.2767
-38.3025 -42.9660 -72.2767
49.2643 41.0385 -72.2767
-60.4611 51.8866 -72.2767
51.3891 -11.7272 -72.2767
64.8499 -33.6694 -72.2767
1.3931 5.8063 -72.2767
13.6654 38.0872 -72.2767
26.6752 -27.5859 -72.2767
15.2897 35.4966 -72.2767
-27.2038 -40.0700 -72.2767
-18.4539 -23.7026 -72.2767
-24.1034 -53.4959 -72.2767
28.3462 41.2302 -72.2767
1.7203 45.4765 -72.2767
55.7032 -36.3057 -72.2767
-57.1389 21.0407 -72.2767
-59.3386 29.9387 -72.2767
-54.6974 -52.9671 -72.2767
-28.4677 -43.4111 -72.2767
33.5524 56.0933 -72.2767
2.6745 6.1346 -72.2767
44.3519 11.5219 -72.2767
60.0682 18.5564 -72.2767
-66.1766 51.3791 -72.2767
-61.3915 -58.8402 -72.2767
8.0340 44.3775 -72.2767
-36.4925 15.4792 -72.2767
-7.6746 -58.6695 -72.2767
18.8196 -24.3233 -72.2767
11.9728 24.0751 -72.2767
53.4120 -36.0390 -72.2767
-28.8462 -5.6195 -72.2767
-14.6681 2.1252 -72.2767
32.6299 -54.7024 -72.2767
-45.6072 10.9689 -72.2767
-12.8103 51.4766 -72.2767
18.5144 36.3342 -72.2767
49.6478 43.9384 -72.2767
57.2066 47.6804 -72.2767
-45.0238 -29.3778 -72.2767
-51.6318 6.4303 -72.2767
10.1909 -40.2909 -72.2767
