ply
format ascii 1.0
element vertex 1024
property float x
property float y
property float z
end_header
58.7177 0.2445 -36.8575
58.7177 -68.3964 27.0349
58.7177 25.0106 32.4269
58.7177 -21.5196 25.4324
58.7177 -5.6048 10.9480
58.7177 43.6326 -27.9116
58.7177 -13.2959 38.7421
58.7177 -43.7617 9.3409
58.7177 55.5596 -32.5143
58.7177 -14.0067 -9.0733
58.7177 68.3928 -3.4598
58.7177 26.3013 -31.5841
58.7177 35.1522 -22.5775
58.7177 58.3713 17.8502
58.7177 -33.8167 -18.3747
58.7177 -44.7535 -28.0783
58.7177 -54.8197 -22.1914
58.7177 41.0227 12.8099
58.7177 30.5416 -26.6012
58.7177 -1.2708 31.5987
58.7177 -65.5136 -2.2798
58.7177 6.7372 7.6450
58.7177 20.8606 39.0973
58.7177 -16.5130 -31.1190
58.7177 -26.1401 3.3817
58.7177 6.0619 -22.5267
58.7177 43.7002 13.6325
58.7177 15.6449 7.2301
58.7177 -45.4866 27.3350
58.7177 3.8043 11.4525
58.7177 58.8363 38.5012
58.7177 -44.5691 17.0473
58.7177 -57.2020 16.0361
58.7177 18.2232 28.4379
58.7177 62.9511 14.3033
58.7177 -21.5371 -29.5896
58.7177 -27.5006 33.4973
58.7177 20.1640 -33.4667
58.7177 -43.5523 16.8774
58.7177 3.3383 13.5259
58.7177 31.2929 -25.9416
58.7177 -29.5156 33.2562
58.7177 -32.8286 -34.0356
58.7177 -46.1696 34.4286
58.7177 9.5122 -16.3434
58.7177 -14.7724 -35.1998
58.7177 -20.0633 -6.6008
58.7177 52.3147 3.0596
58.7177 48.1932 37.6084
58.7177 59.3619 -5.9295
58.7177 30.0363 -7.5419
58.7177 32.9612 -9.0440
58.7177 37.0541 15.5805
58.7177 66.0296 -22.1890
58.7177 35.9129 26.8806
58.7177 0.7861 -12.5183
58.7177 62.4571 -12.2530
58.7177 -38.9445 -26.2869
58.7177 -56.6579 7.9030
58.7177 19.9731 23.3268
58.7177 62.0080 34.3191
58.7177 27.3150 -5.3806
58.7177 55.7668 14.7039
58.7177 -13.8697 -8.4820
58.7177 -13.4449 11.0789
58.7177 48.4498 8.6300
58.7177 2.5810 -25.1037
58.7177 -43.9380 2.1120
58.7177 64.1267 14.6591
58.7177 26.1144 -15.7095
58.7177 66.8999 -0.4384
58.7177 -67.7706 -16.8592
58.7177 -0.5091 -31.2390
58.7177 -13.7393 14.9605
58.7177 41.9916 -22.7073
58.7177 40.1154 -25.1832
58.7177 52.8810 -19.7462
58.7177 21.7855 -32.9006
58.7177 41.1496 6.3698
58.7177 53.2546 -8.4815
58.7177 -10.3732 -12.3458
58.7177 47.6375 18.1626
58.7177 -25.5205 23.3081
58.7177 58.0502 -29.6901
58.7177 -59.8961 -28.4395
58.7177 -40.6940 25.1505
58.7177 -17.3925 -37.6248
58.7177 54.0535 15.3581
58.7177 -59.4005 -4.2465
58.7177 62.5823 22.5114
58.7177 55.3604 -8.2746
58.7177 -0.8678 18.7273
58.7177 -67.6088 15.9981
58.7177 6.8648 38.9586
58.7177 -18.8720 30.9316
58.7177 -27.8732 -33.6398
58.7177 -32.3601 -6.1603
58.7177 22.7946 -15.5138
58.7177 -14.4033 29.9625
58.7177 -38.4086 0.8810
58.7177 -50.5411 -5.8393
58.7177 -64.5842 -2.0832
58.7177 60.9207 -1.1392
58.7177 55.5312 6.3937
58.7177 -27.3501 -33.3657
58.7177 61.6690 -2.6688
58.7177 -28.9174 -2.5378
58.7177 4.0282 -16.9546
58.7177 55.8521 -14.6188
58.7177 -43.0199 33.0592
58.7177 -63.1970 -33.1728
58.7177 14.4090 18.3241
58.7177 -2.0346 5.0165
58.7177 57.2094 24.8885
58.7177 -56.0935 25.7961
58.7177 33.1849 -38.9080
58.7177 -56.6585 22.6334
58.7177 7.6623 -12.1398
58.7177 35.1423 -37.5571
58.7177 41.4185 17.7462
58.7177 -58.5260 -8.8431
58.7177 -13.2376 36.8328
58.7177 -33.3203 31.9571
58.7177 44.1268 19.5552
58.7177 13.7879 27.0029
58.7177 -8.7353 -8.1838
58.7177 -10.5360 -15.2990
58.7177 37.7063 -34.4589
58.7177 -17.1978 -17.1482
58.7177 32.8887 35.9751
58.7177 22.0277 16.1399
58.7177 29.7391 24.7489
58.7177 15.6703 -29.0299
58.7177 60.3432 -31.2733
58.7177 -34.8490 -9.5333
58.7177 -64.8885 -21.1108
58.7177 -48.6718 17.4730
58.7177 64.4490 3.2413
58.7177 34.5289 -10.0196
58.7177 68.0453 31.3532
58.7177 30.0631 8.1688
58.7177 -19.0234 6.8887
58.7177 14.9347 -18.3110
58.7177 -8.1389 11.3363
58.7177 5.8311 -37.3964
58.7177 18.0581 4.5231
58.7177 -16.8093 -18.2298
58.7177 11.7936 2.4291
58.7177 61.2022 30.1381
58.7177 -61.3515 -14.6059
58.7177 56.1877 -20.0514
58.7177 -54.1781 -25.8620
58.7177 22.4217 -29.3836
58.7177 13.0987 1.0377
58.7177 21.4222 -3.8556
58.7177 35.8897 6.7686
58.7177 -2.4861 -17.0105
58.7177 -52.6070 30.8497
58.7177 -52.4940 11.1685
58.7177 -55.7916 -1.0128
58.7177 59.7441 7.3058
58.7177 12.6852 29.7935
58.7177 36.8365 25.2830
58.7177 -14.6871 29.3770
58.7177 -38.5253 -17.0449
58.7177 32.2809 -27.6993
58.7177 23.7662 -12.4358
58.7177 59.7050 13.4967
58.7177 -50.8339 -36.3432
58.7177 36.2236 8.0159
58.7177 -18.8008 -25.8940
-58.7177 23.7866 5.5177
-58.7177 13.9715 -26.6693
-58.7177 -49.0269 -17.0638
-58.7177 -30.1783 34.9904
-58.7177 -65.7224 2.5586
-58.7177 -45.9080 -17.3745
-58.7177 -58.9166 -29.0615
-58.7177 -7.4658 20.2820
-58.7177 -45.8301 6.7777
-58.7177 61.3888 -22.4190
-58.7177 33.0320 31.8756
-58.7177 -25.9038 13.9638
-58.7177 64.6758 19.9184
-58.7177 31.1819 -24.7536
-58.7177 67.1889 10.6367
-58.7177 -58.7266 -30.8535
-58.7177 6.0982 16.8549
-58.7177 -5.2428 -35.0230
-58.7177 -46.6040 -0.2201
-58.7177 26.0255 -4.9386
-58.7177 -67.6471 17.1023
-58.7177 61.6321 26.0727
-58.7177 -9.6799 -22.0664
-58.7177 22.5869 -16.0796
-58.7177 44.4786 -2.5999
-58.7177 -58.9030 -35.4344
-58.7177 -42.2441 17.9958
-58.7177 -36.8433 4.3114
-58.7177 66.4422 29.5461
-58.7177 35.8222 22.6094
-58.7177 17.8526 6.1872
-58.7177 56.2668 5.4162
-58.7177 -26.0481 -28.8111
-58.7177 -14.6074 9.7366
-58.7177 -8.5566 4.8629
-58.7177 53.7668 -1.2294
-58.7177 -50.4356 -14.3064
-58.7177 10.5995 -16.0892
-58.7177 -5.0065 -33.4503
-58.7177 -14.0085 29.1725
-58.7177 -31.0601 -7.0593
-58.7177 -10.8735 12.3503
-58.7177 -9.8258 18.8979
-58.7177 -16.9337 34.3117
-58.7177 -28.4441 -26.2165
-58.7177 -23.1010 24.5566
-58.7177 51.1071 23.3753
-58.7177 7.1793 -9.2278
-58.7177 45.7554 9.0412
-58.7177 19.1271 12.0781
-58.7177 61.1535 -25.7297
-58.7177 -52.4003 33.2144
-58.7177 -53.9749 -9.6610
-58.7177 -45.8245 -32.1665
-58.7177 -45.9836 30.6418
-58.7177 -18.6631 16.8996
-58.7177 45.1262 -18.3667
-58.7177 22.2835 -11.5034
-58.7177 5.2591 -6.4317
-58.7177 -43.3352 -8.1840
-58.7177 32.1963 0.0366
-58.7177 -2.2639 -10.5018
-58.7177 -14.1843 -25.5305
-58.7177 -47.3322 6.7578
-58.7177 24.4805 -25.3997
-58.7177 -54.7249 -13.9245
-58.7177 -7.6327 -3.4877
-58.7177 2.3451 -9.4229
-58.7177 54.6589 10.3283
-58.7177 59.4108 4.4193
-58.7177 -62.7771 3.9428
-58.7177 48.2553 6.2500
-58.7177 -48.3916 -29.3397
-58.7177 -13.6771 12.1692
-58.7177 40.7725 24.2570
-58.7177 -9.5062 -21.5099
-58.7177 9.9890 25.5897
-58.7177 -2.5432 38.1323
-58.7177 -21.0645 -14.5508
-58.7177 7.6695 -7.0807
-58.7177 -4.8247 -7.2483
-58.7177 45.8966 23.2067
-58.7177 -46.8125 -6.1692
-58.7177 -47.8429 -33.7917
-58.7177 53.6544 -38.6934
-58.7177 47.1406 -38.7422
-58.7177 14.7707 32.8011
-58.7177 51.8860 -16.5823
-58.7177 55.5473 15.1924
-58.7177 59.8065 -15.7801
-58.7177 2.2371 35.5239
-58.7177 -33.2979 -17.1451
-58.7177 19.3949 -25.8711
-58.7177 -63.6813 22.5398
-58.7177 -14.7142 17.1834
-58.7177 7.7145 13.2722
-58.7177 -39.3256 33.5800
-58.7177 -47.2419 -21.9349
-58.7177 -3.8267 -11.3929
-58.7177 -27.8554 -23.9765
-58.7177 27.8248 -13.6237
-58.7177 15.0405 16.3641
-58.7177 -22.5967 -1.9318
-58.7177 61.1370 -0.1953
-58.7177 15.9653 22.4022
-58.7177 28.7758 4.9596
-58.7177 -17.0960 34.0576
-58.7177 -9.8886 32.9499
-58.7177 -67.6154 26.7660
-58.7177 14.4836 -15.8801
-58.7177 -19.5173 12.2101
-58.7177 42.8781 22.1241
-58.7177 -22.1131 -7.6836
-58.7177 11.6516 38.1589
-58.7177 54.6909 -3.1718
-58.7177 1.5266 -1.1371
-58.7177 24.4219 3.0552
-58.7177 -46.0210 -25.3274
-58.7177 44.7680 -17.7336
-58.7177 14.9386 27.1446
-58.7177 -49.3652 -26.7859
-58.7177 60.5513 24.6466
-58.7177 51.8014 25.6580
-58.7177 -7.1996 -26.7923
-58.7177 -68.4508 -19.9982
-58.7177 -14.4164 -11.4825
-58.7177 53.8665 -23.4731
-58.7177 27.9365 -32.6345
-58.7177 -1.9014 26.6290
-58.7177 -67.7003 -25.5640
-58.7177 -31.7634 13.3829
-58.7177 6.3603 9.0736
-58.7177 -20.2038 3.6452
-58.7177 -50.6770 36.4482
-58.7177 23.6893 12.4941
-58.7177 47.8542 26.4226
-58.7177 59.4173 -10.9766
-58.7177 -27.2954 -1.8376
-58.7177 -13.5875 8.5158
-58.7177 -62.0719 30.9277
-58.7177 8.1839 -22.5855
-58.7177 20.6615 31.6506
-58.7177 30.0275 -27.7059
-58.7177 -21.0674 -11.8877
-58.7177 -17.3100 -22.6925
-58.7177 6.3579 31.2618
-58.7177 -24.1864 -25.1867
-58.7177 -7.0036 1.6473
-58.7177 -32.9290 19.8657
-58.7177 -16.0123 37.1522
-58.7177 43.4169 39.1462
-58.7177 16.0508 29.2253
-58.7177 -31.3422 -38.0470
-58.7177 -12.8387 19.8733
-58.7177 26.3823 16.4479
-58.7177 30.8660 -21.7617
-58.7177 -8.1242 -21.9028
-58.7177 -29.6873 -25.9864
-58.7177 -21.9957 20.8756
-58.7177 64.2188 -19.8487
-58.7177 28.0313 -12.0252
-58.7177 -49.7937 -6.7329
-58.7177 51.4195 -1.8886
-58.7177 21.9754 26.4163
-58.7177 34.2821 -15.6751
-58.7177 1.2560 19.8209
-58.7177 55.6681 -22.8260
-58.7177 28.9647 -15.0042
-58.7177 50.0200 8.9064
-58.7177 -57.2705 -0.1360
-58.7177 -24.1849 20.8651
3.5047 68.5125 -27.7395
-55.4453 68.5125 -18.7001
-35.0086 68.5125 13.3717
21.6958 68.5125 13.0672
-30.5903 68.5125 -39.1012
13.7568 68.5125 -5.9370
39.0227 68.5125 30.3093
38.6070 68.5125 -32.2878
-53.3260 68.5125 9.6954
-16.9002 68.5125 -30.8491
-27.0050 68.5125 18.4304
58.1519 68.5125 22.8892
-46.2299 68.5125 -5.1528
14.9931 68.5125 35.4230
35.7695 68.5125 35.3529
-22.9860 68.5125 -22.6687
47.4956 68.5125 31.9278
-7.8666 68.5125 16.2119
-36.9827 68.5125 -32.0815
-51.3943 68.5125 11.4624
16.8043 68.5125 -30.7036
-49.1614 68.5125 -7.9635
6.9383 68.5125 5.0108
-38.1332 68.5125 2.8911
0.4468 68.5125 -11.2018
23.2338 68.5125 -38.9947
43.9389 68.5125 32.8722
-38.1957 68.5125 -15.1357
45.3803 68.5125 22.6686
-29.9554 68.5125 4.7986
-58.0240 68.5125 16.6780
0.6226 68.5125 25.0785
42.9354 68.5125 -37.8383
58.1593 68.5125 -4.7930
-5.0507 68.5125 -0.4243
-22.4797 68.5125 9.0977
32.1519 68.5125 -38.1870
49.1782 68.5125 -12.1046
49.2648 68.5125 16.7591
-33.8301 68.5125 -28.9383
5.1228 68.5125 -32.5704
1.6481 68.5125 26.2439
-57.1693 68.5125 -23.8042
10.7757 68.5125 -16.2155
-9.4804 68.5125 -15.3660
-13.6795 68.5125 25.8856
-38.0794 68.5125 -31.5463
-26.5526 68.5125 -14.2753
-12.2782 68.5125 -22.0963
-21.0817 68.5125 -31.0439
-49.9413 68.5125 15.6207
-26.8263 68.5125 -10.7691
-17.4577 68.5125 37.8537
43.5250 68.5125 3.1048
32.0649 68.5125 10.7665
35.0184 68.5125 10.4371
-44.6577 68.5125 -20.8765
-45.1792 68.5125 36.8607
-42.0842 68.5125 27.4871
20.3671 68.5125 32.3609
-9.5934 68.5125 0.6090
-47.2810 68.5125 4.7535
53.3734 68.5125 9.9508
4.0146 68.5125 8.2515
-55.1389 68.5125 2.3266
-48.5028 68.5125 -24.1944
-44.4228 68.5125 14.5079
11.6783 68.5125 -22.7821
-56.5824 68.5125 -0.9869
19.5915 68.5125 29.5905
53.1648 68.5125 22.3558
-16.4147 68.5125 22.0134
31.5517 68.5125 5.1824
-50.1421 68.5125 -10.5295
-26.6946 68.5125 -38.0749
-58.2448 68.5125 -18.1227
-27.4121 68.5125 -3.1829
13.7020 68.5125 29.1506
-33.1918 68.5125 -13.3064
50.6471 68.5125 6.1273
2.3253 68.5125 32.9849
-51.9974 68.5125 -16.7554
45.7798 68.5125 38.3441
-44.5010 68.5125 30.3359
-47.8761 68.5125 -21.5135
-51.5349 68.5125 27.9134
-7.2916 68.5125 14.2408
-24.2543 68.5125 1.3552
-45.9989 68.5125 -35.3272
-19.5856 68.5125 35.4990
24.6244 68.5125 -10.0670
37.8694 68.5125 -18.1134
-28.7107 68.5125 -7.6539
-15.2933 68.5125 28.9946
-25.8442 68.5125 29.5115
-27.0470 68.5125 1.5327
32.3176 68.5125 35.1829
18.0353 68.5125 10.6371
-10.4417 68.5125 -21.9129
-51.4516 68.5125 1.4015
-15.0564 68.5125 4.7752
40.3486 68.5125 -12.4186
38.9487 68.5125 11.2945
48.7055 68.5125 -1.5435
-15.5558 68.5125 -24.3274
-22.4845 68.5125 4.7475
-21.0344 68.5125 -13.9221
-33.7312 68.5125 17.6706
31.9413 68.5125 -4.5542
-58.0500 68.5125 -23.5830
58.1115 68.5125 25.9515
-45.9104 68.5125 -35.2333
1.8423 68.5125 0.5678
-53.5977 68.5125 -24.6436
-8.6760 68.5125 29.4007
-20.6679 68.5125 12.6664
-21.7299 68.5125 22.6088
-17.1237 68.5125 -15.6353
-37.4782 68.5125 11.5737
58.6225 68.5125 -19.5713
46.2093 68.5125 -3.1328
51.5774 68.5125 -5.5390
24.8979 68.5125 -25.5976
56.3998 68.5125 -2.2262
23.4640 68.5125 11.0598
-36.6760 68.5125 38.1699
-40.3745 68.5125 8.0643
3.5510 68.5125 -38.5128
51.4914 68.5125 38.4444
-16.6945 68.5125 1.7905
-32.0744 68.5125 3.4309
54.3175 68.5125 37.2401
-45.9866 68.5125 29.5669
56.6312 68.5125 -24.1400
-46.9772 68.5125 -35.9395
55.4358 68.5125 17.2024
9.2705 68.5125 -1.9243
-28.0980 68.5125 25.0888
40.5731 68.5125 33.7733
16.2998 68.5125 30.9806
-27.0500 68.5125 -34.1153
24.6033 68.5125 -1.2615
-39.3394 68.5125 32.1771
-47.4063 68.5125 -28.8381
-8.4808 68.5125 0.7347
-11.6404 68.5125 19.4285
-26.4273 68.5125 22.0842
47.4359 68.5125 -24.8411
0.5179 68.5125 -18.7591
-11.4295 68.5125 -2.2448
25.7580 68.5125 25.2817
-46.0231 68.5125 32.7181
8.6665 68.5125 26.6949
27.9815 68.5125 27.0415
-11.8602 68.5125 -7.4108
-7.3059 68.5125 15.9916
46.0028 68.5125 20.6984
36.2561 68.5125 1.9755
47.9778 68.5125 6.6538
52.5800 68.5125 14.8502
48.9721 68.5125 -5.3442
-45.8965 68.5125 34.4953
-24.3931 68.5125 29.7173
-20.8385 68.5125 8.5792
51.9213 68.5125 18.7322
-20.6322 68.5125 28.7589
-6.1039 68.5125 -26.2432
32.7903 68.5125 -38.4330
-50.4946 68.5125 -32.7883
-29.1639 68.5125 -37.7144
32.0654 68.5125 -32.5090
-12.4428 -68.5125 21.7729
26.1010 -68.5125 -0.9726
-55.3418 -68.5125 1.0858
-58.4974 -68.5125 -21.2973
41.5869 -68.5125 8.9131
-6.7541 -68.5125 0.2245
-50.2939 -68.5125 -32.7252
9.6887 -68.5125 -24.7817
-11.1903 -68.5125 2.7969
-20.9963 -68.5125 8.0785
29.4285 -68.5125 19.7614
-56.6379 -68.5125 25.4538
31.0992 -68.5125 -14.1960
17.5589 -68.5125 24.6440
-31.6567 -68.5125 -24.7645
5.2140 -68.5125 32.2983
-26.6803 -68.5125 5.8058
-17.3732 -68.5125 -3.8497
55.4175 -68.5125 -31.6434
21.0783 -68.5125 -34.5611
-15.6189 -68.5125 -38.9670
-52.2985 -68.5125 -28.4796
-21.5211 -68.5125 -31.5004
-15.5274 -68.5125 20.7585
-54.1210 -68.5125 -1.2772
30.7434 -68.5125 30.5273
5.3815 -68.5125 -23.3698
38.7498 -68.5125 -16.6455
12.9895 -68.5125 10.6639
45.5833 -68.5125 11.4962
-26.1758 -68.5125 28.1087
44.7789 -68.5125 37.7948
1.4613 -68.5125 31.0601
2.5002 -68.5125 -7.6653
-9.9318 -68.5125 -14.8269
35.0054 -68.5125 -36.6306
48.4185 -68.5125 20.4475
20.0843 -68.5125 -27.3090
-2.3029 -68.5125 -2.0634
9.4237 -68.5125 19.2930
-20.3203 -68.5125 -37.9960
-37.4938 -68.5125 -1.0301
-48.5976 -68.5125 10.3575
51.5776 -68.5125 -1.6557
34.7196 -68.5125 -4.0429
-49.7545 -68.5125 -22.4461
-13.8526 -68.5125 0.2416
-22.7993 -68.5125 -2.0741
-54.2031 -68.5125 -37.3791
20.2541 -68.5125 6.4439
-47.1375 -68.5125 -22.4883
-55.0953 -68.5125 -22.5289
-40.3180 -68.5125 -4.8431
24.0986 -68.5125 -35.7265
17.8527 -68.5125 37.8452
-15.0779 -68.5125 27.3643
-45.4843 -68.5125 -13.1198
-27.5616 -68.5125 38.7699
-31.9202 -68.5125 -22.9438
47.2402 -68.5125 -0.2383
-14.3221 -68.5125 -31.6965
34.6478 -68.5125 -21.7410
1.3916 -68.5125 -34.5277
-57.5250 -68.5125 30.0857
-23.2011 -68.5125 33.1378
-42.0423 -68.5125 0.0350
-45.9061 -68.5125 1.7725
1.7470 -68.5125 -30.7970
5.9788 -68.5125 -17.4604
-9.3990 -68.5125 -26.4393
-4.7058 -68.5125 -37.8526
-31.4203 -68.5125 20.5240
7.5503 -68.5125 -24.2516
23.6583 -68.5125 -20.9052
29.9043 -68.5125 -8.3662
34.8592 -68.5125 -26.3465
28.0750 -68.5125 -11.9003
2.8564 -68.5125 -36.2495
15.2331 -68.5125 2.7352
17.9286 -68.5125 8.5242
50.8771 -68.5125 32.2768
-21.6745 -68.5125 -12.7891
-55.6990 -68.5125 15.6898
-21.0789 -68.5125 -14.1559
-35.5885 -68.5125 13.7530
-14.5742 -68.5125 -3.8159
44.4571 -68.5125 -23.4795
-32.5868 -68.5125 -6.7129
34.4425 -68.5125 -24.1739
35.9200 -68.5125 38.3167
42.1789 -68.5125 -36.3807
16.3650 -68.5125 -14.3093
-8.3194 -68.5125 -34.8635
4.4595 -68.5125 35.0846
25.2372 -68.5125 5.8855
-44.2774 -68.5125 34.4357
-6.5189 -68.5125 16.5819
25.0116 -68.5125 38.8968
12.5707 -68.5125 33.3230
6.5665 -68.5125 9.8328
10.5225 -68.5125 26.7487
43.2735 -68.5125 0.5510
52.9788 -68.5125 8.7139
-9.7748 -68.5125 -32.6798
-15.7867 -68.5125 15.2714
-9.8225 -68.5125 -15.8433
-41.7645 -68.5125 27.5396
28.8777 -68.5125 20.4344
-1.1328 -68.5125 34.9413
-1.4192 -68.5125 32.1346
15.5479 -68.5125 -0.7540
19.7863 -68.5125 27.6003
5.0875 -68.5125 -22.8508
10.9752 -68.5125 -14.0494
24.7120 -68.5125 -8.0636
29.8247 -68.5125 19.7370
7.2737 -68.5125 4.3086
56.5870 -68.5125 -5.9894
13.2454 -68.5125 27.0935
-3.4432 -68.5125 -17.7211
33.7539 -68.5125 26.4060
-44.4352 -68.5125 -3.7375
22.4642 -68.5125 6.6722
27.6268 -68.5125 27.3592
36.3508 -68.5125 -9.0200
15.7045 -68.5125 -16.9167
-27.4878 -68.5125 25.2823
-4.6116 -68.5125 -25.0776
47.3984 -68.5125 -17.1978
-19.5096 -68.5125 21.1595
22.7132 -68.5125 26.3911
23.2655 -68.5125 11.7442
-42.1835 -68.5125 19.6022
-53.6661 -68.5125 -26.7491
23.1633 -68.5125 -10.8940
38.3194 -68.5125 33.5916
-42.9727 -68.5125 2.6832
49.0266 -68.5125 32.9402
46.7238 -68.5125 -0.9430
42.9323 -68.5125 31.3232
-44.9925 -68.5125 -33.0028
-25.1933 -68.5125 36.0057
-16.4763 -68.5125 -19.7841
-4.6014 -68.5125 20.9384
-18.2661 -68.5125 -12.6585
11.7674 -68.5125 -18.7185
48.1428 -68.5125 -9.6524
-35.5476 -68.5125 -9.0853
-49.4007 -68.5125 -2.7247
-11.3596 -68.5125 23.7709
52.0054 -68.5125 -4.0620
36.8552 -68.5125 8.0036
-0.2269 -68.5125 -2.9294
-35.2913 -68.5125 2.9208
57.8463 -68.5125 -3.8929
-33.2250 -68.5125 12.7862
-58.0794 -68.5125 10.7142
31.9009 -68.5125 16.6066
54.8515 -68.5125 32.8838
12.7977 -68.5125 20.2159
-57.0817 -68.5125 -29.1173
47.9466 -68.5125 -19.8791
-19.2248 -68.5125 -35.9360
-1.5617 -68.5125 21.5092
0.7881 -68.5125 13.4700
-40.6566 -68.5125 17.4323
-53.5935 -68.5125 -29.7202
-21.5713 -68.5125 -36.0040
-4.7785 -68.5125 31.0531
-53.9074 -68.5125 -9.9091
-2.4259 -68.5125 -10.4403
-26.2006 -4.9174 39.2401
35.5052 50.0308 39.2401
-9.4889 20.4135 39.2401
-40.5578 51.6680 39.2401
1.5588 18.4965 39.2401
-30.3165 22.0977 39.2401
-44.4614 44.8598 39.2401
-40.8703 19.0763 39.2401
19.9125 -36.2338 39.2401
-23.6448 -36.8904 39.2401
8.2862 -28.1314 39.2401
37.9938 9.6035 39.2401
18.0540 59.1297 39.2401
-8.2242 -21.6663 39.2401
30.6089 47.0601 39.2401
12.7829 -27.8379 39.2401
-42.7935 61.3470 39.2401
-25.8013 -7.8193 39.2401
23.6632 -54.3401 39.2401
-2.8063 -9.2981 39.2401
47.5016 4.3497 39.2401
-6.7192 52.2614 39.2401
-53.0489 -51.9897 39.2401
-26.6134 -22.1731 39.2401
45.4167 -10.4822 39.2401
35.8339 -57.6120 39.2401
53.3353 -57.0789 39.2401
-16.0676 -34.5696 39.2401
-14.9387 -60.3211 39.2401
29.2859 -56.3393 39.2401
53.3216 45.6883 39.2401
41.1292 61.8594 39.2401
-47.2093 16.7452 39.2401
-10.9413 41.8573 39.2401
-35.6064 23.6653 39.2401
-25.5564 -0.7323 39.2401
36.2411 -55.2107 39.2401
-6.8249 1.6188 39.2401
-35.0998 64.3131 39.2401
14.5595 48.8828 39.2401
47.6792 -55.1790 39.2401
30.7913 -52.5609 39.2401
-55.3247 44.7901 39.2401
-43.4740 40.8892 39.2401
43.7420 -46.5621 39.2401
-37.8645 -47.7150 39.2401
21.3623 51.7785 39.2401
32.2437 59.5994 39.2401
-25.1327 -39.3978 39.2401
9.6295 35.6449 39.2401
-56.8694 -17.3136 39.2401
21.2838 -67.9161 39.2401
-43.4183 -20.4097 39.2401
-23.1383 -15.4609 39.2401
-53.7407 -8.9230 39.2401
48.4241 21.3822 39.2401
50.3775 -16.9865 39.2401
23.4436 60.6130 39.2401
-8.5338 41.7853 39.2401
-4.7855 -20.7052 39.2401
-45.7131 -45.8345 39.2401
8.9685 6.9256 39.2401
-10.2441 67.6684 39.2401
-30.8191 -45.2461 39.2401
26.6415 2.4007 39.2401
37.9523 -65.2451 39.2401
-47.7053 -13.6973 39.2401
-52.3350 36.0539 39.2401
8.1976 45.6822 39.2401
9.6069 59.7619 39.2401
-19.4397 37.9284 39.2401
-9.1930 9.4890 39.2401
20.7353 55.5282 39.2401
33.7707 24.4157 39.2401
-34.0806 38.9244 39.2401
44.7659 -46.8214 39.2401
18.4934 -26.2600 39.2401
-31.0468 43.9767 39.2401
-55.8958 7.1457 39.2401
-51.1450 -43.7520 39.2401
57.0864 52.5097 39.2401
42.6872 12.4836 39.2401
4.1418 -17.8532 39.2401
13.7903 -67.6496 39.2401
-44.1286 40.1772 39.2401
19.2165 -63.8235 39.2401
-43.7430 25.3501 39.2401
-58.2616 66.7386 39.2401
1.1905 65.9806 39.2401
-9.5166 -21.2777 39.2401
-30.1685 58.3439 39.2401
23.1928 23.4434 39.2401
42.1132 -6.6103 39.2401
46.2606 66.6841 39.2401
9.6274 12.2858 39.2401
-5.6386 62.1092 39.2401
-3.6086 -11.9209 39.2401
-19.4249 58.2787 39.2401
-48.4019 -42.4295 39.2401
-1.7170 60.6512 39.2401
-38.2547 42.2519 39.2401
24.0455 -37.7273 39.2401
43.4830 26.1397 39.2401
-48.6308 32.6429 39.2401
54.3530 32.1607 39.2401
37.3598 -64.5467 39.2401
55.7869 23.4648 39.2401
5.7112 -15.3630 39.2401
-0.4712 -26.5310 39.2401
-33.8984 -36.0872 39.2401
10.0637 -16.3254 39.2401
-46.3390 43.8503 39.2401
22.3551 33.3710 39.2401
7.5623 34.6741 39.2401
55.4258 -33.2006 39.2401
17.3273 -4.6017 39.2401
-40.7285 -53.3711 39.2401
-47.3455 -68.3079 39.2401
-41.9229 24.3601 39.2401
-26.4998 -62.2827 39.2401
-2.1355 24.7413 39.2401
14.5604 54.9861 39.2401
-32.3327 -53.1126 39.2401
-19.3437 56.9867 39.2401
-24.9774 13.2472 39.2401
-20.8130 32.6552 39.2401
-51.6858 -66.7055 39.2401
52.4810 -37.6103 39.2401
-49.6085 27.1779 39.2401
-52.4848 1.8483 39.2401
49.0665 20.0689 39.2401
13.3148 -51.9363 39.2401
-37.7207 -68.3739 39.2401
45.3429 -40.2463 39.2401
54.3361 -2.3205 39.2401
-46.9054 5.5246 39.2401
-7.6087 -44.3409 39.2401
0.4672 -12.8942 39.2401
-22.0102 31.4753 39.2401
33.0945 29.7634 39.2401
22.3319 -48.1227 39.2401
-20.9689 48.9943 39.2401
3.2903 -56.7441 39.2401
0.2751 41.7041 39.2401
-10.5394 29.9917 39.2401
36.7161 -46.9782 39.2401
11.4766 66.5215 39.2401
11.8487 -2.5756 39.2401
-34.8254 6.1296 39.2401
3.1705 67.2351 39.2401
17.0166 -29.3022 39.2401
36.9553 43.8617 39.2401
-55.8006 33.7529 39.2401
-32.8215 67.4050 39.2401
18.5106 -24.6819 39.2401
57.8776 42.0379 39.2401
-48.6988 -12.4188 39.2401
-36.6881 -43.6299 39.2401
-51.8565 -33.6211 39.2401
32.7587 31.9161 39.2401
-51.6551 -48.6110 39.2401
-44.2652 -15.1397 39.2401
40.6975 4.9073 39.2401
-16.4489 -3.4703 39.2401
-15.0665 -14.9107 39.2401
39.1441 -34.3387 39.2401
-42.7838 -63.0878 39.2401
-13.5059 65.1163 39.2401
-23.8710 63.4896 39.2401
-30.0500 60.7676 39.2401
-55.9288 53.9091 -39.2401
10.9520 -3.8700 -39.2401
47.0836 64.4435 -39.2401
31.4384 -56.0452 -39.2401
45.1554 -58.7874 -39.2401
29.2169 58.8365 -39.2401
-17.8140 23.2921 -39.2401
-9.8253 -61.5522 -39.2401
-20.4704 -49.7870 -39.2401
47.3405 60.2903 -39.2401
0.8451 49.3715 -39.2401
22.3210 56.1778 -39.2401
-56.9174 -27.4539 -39.2401
48.4766 -66.9727 -39.2401
55.0795 26.8497 -39.2401
-30.0047 -28.0508 -39.2401
37.9341 67.0065 -39.2401
-17.5456 -30.1675 -39.2401
-45.3000 -8.7954 -39.2401
19.8366 -12.5935 -39.2401
-18.1591 -41.7120 -39.2401
22.5941 24.4194 -39.2401
-25.7255 -9.1580 -39.2401
4.5869 50.3157 -39.2401
38.9369 53.7565 -39.2401
25.3858 40.8907 -39.2401
18.1899 -25.4931 -39.2401
43.7072 1.1688 -39.2401
-39.1286 15.2389 -39.2401
15.7707 28.1524 -39.2401
-48.3072 -54.2316 -39.2401
3.2817 2.6478 -39.2401
-13.6839 42.2083 -39.2401
-53.8757 -62.9147 -39.2401
-11.8177 -36.7586 -39.2401
-44.7069 -52.2409 -39.2401
-46.3969 -8.1463 -39.2401
40.6803 -13.8333 -39.2401
55.2978 50.1876 -39.2401
37.9870 64.6034 -39.2401
-42.0610 1.8988 -39.2401
-57.1904 48.1286 -39.2401
-41.4889 -6.6285 -39.2401
-35.7859 31.5944 -39.2401
56.4253 35.8671 -39.2401
-42.9947 -2.5232 -39.2401
4.0576 -37.6385 -39.2401
-25.8556 34.7769 -39.2401
-16.2678 -55.5298 -39.2401
24.7595 -53.8196 -39.2401
3.1575 12.9732 -39.2401
-35.1957 46.5305 -39.2401
-31.8566 46.9064 -39.2401
-51.1432 12.8586 -39.2401
-26.0350 8.7093 -39.2401
45.6744 64.5073 -39.2401
17.6958 -44.3891 -39.2401
-49.5967 -11.7614 -39.2401
-7.0100 38.7044 -39.2401
28.4191 -66.8922 -39.2401
-44.8040 64.6864 -39.2401
-2.2807 -29.1358 -39.2401
51.5690 -51.9438 -39.2401
-38.1450 42.7287 -39.2401
-55.5630 5.2797 -39.2401
8.2259 45.2745 -39.2401
-54.4359 32.5674 -39.2401
58.2186 56.5376 -39.2401
-21.1719 -16.0468 -39.2401
20.5143 -14.6823 -39.2401
-17.1017 -38.3179 -39.2401
-32.7087 -52.4508 -39.2401
43.5173 -5.9634 -39.2401
-15.0294 -32.1543 -39.2401
-2.4026 4.9943 -39.2401
7.0374 -51.7204 -39.2401
0.4775 -4.2733 -39.2401
8.6551 30.7362 -39.2401
-45.3454 -41.1718 -39.2401
9.2987 63.3754 -39.2401
-0.7557 -56.4820 -39.2401
-53.1932 43.0916 -39.2401
52.6427 -42.8296 -39.2401
6.8168 24.4135 -39.2401
11.1178 -26.5898 -39.2401
11.8324 -2.3321 -39.2401
-57.5300 17.4438 -39.2401
-56.7010 41.1118 -39.2401
49.5916 -65.6704 -39.2401
0.3671 -15.1368 -39.2401
17.0511 66.0524 -39.2401
10.5971 6.5546 -39.2401
-24.7253 -19.6651 -39.2401
19.6885 -40.5212 -39.2401
-57.1929 -19.1158 -39.2401
-20.8403 -31.1073 -39.2401
24.0622 -11.8545 -39.2401
-25.4862 -66.3259 -39.2401
-29.0619 50.0397 -39.2401
-22.5849 58.7407 -39.2401
-34.8082 -61.2405 -39.2401
37.9818 46.5539 -39.2401
30.6492 4.3068 -39.2401
39.1283 37.6633 -39.2401
45.5191 -38.5700 -39.2401
42.7913 27.6277 -39.2401
47.9554 -51.6875 -39.2401
38.7790 52.5562 -39.2401
45.0768 43.3292 -39.2401
-11.3440 31.2327 -39.2401
2.6806 22.6554 -39.2401
-53.6744 -31.8331 -39.2401
-12.9482 1.5110 -39.2401
21.7013 -18.2384 -39.2401
21.5247 59.5295 -39.2401
54.2671 20.6131 -39.2401
42.6492 25.2434 -39.2401
-31.8981 13.3040 -39.2401
-40.1974 36.2868 -39.2401
-42.6300 10.7057 -39.2401
40.4137 5.5157 -39.2401
25.2073 20.3006 -39.2401
-41.7668 -13.4382 -39.2401
-17.5769 -63.8465 -39.2401
38.2083 19.2585 -39.2401
11.3720 4.0892 -39.2401
-50.9352 -25.2289 -39.2401
10.2843 31.4330 -39.2401
-50.6509 60.4309 -39.2401
4.1194 7.9655 -39.2401
48.5283 22.4897 -39.2401
-19.8156 -35.0811 -39.2401
42.0683 -51.8527 -39.2401
52.0194 56.3556 -39.2401
-29.6575 50.4924 -39.2401
11.0929 -64.3437 -39.2401
45.1657 53.5920 -39.2401
-29.0404 -42.2323 -39.2401
-33.9893 11.1775 -39.2401
-24.0603 58.8490 -39.2401
-53.2464 -28.3965 -39.2401
26.0891 -65.3575 -39.2401
-19.2829 -3.0650 -39.2401
40.8864 -56.9324 -39.2401
11.5440 43.7701 -39.2401
-39.4071 3.4051 -39.2401
8.6301 -46.7876 -39.2401
38.1937 32.2909 -39.2401
-13.4668 49.6722 -39.2401
-32.7588 8.0167 -39.2401
-37.7169 -22.8047 -39.2401
-13.2299 11.1958 -39.2401
-14.3981 50.3959 -39.2401
4.2950 27.1362 -39.2401
12.3306 46.9706 -39.2401
-37.9814 40.7378 -39.2401
-51.9710 60.4425 -39.2401
24.5017 -39.2424 -39.2401
-43.7201 -13.6723 -39.2401
31.5232 63.4457 -39.2401
53.3344 -22.3820 -39.2401
-54.3853 3.5321 -39.2401
-9.2196 -2.6717 -39.2401
-58.7025 -26.5300 -39.2401
32.8119 42.4313 -39.2401
31.3330 -64.2816 -39.2401
-23.8174 63.1433 -39.2401
47.3797 9.2521 -39.2401
-19.0770 19.7246 -39.2401
-19.5840 8.0268 -39.2401
