ply
format ascii 1.0
element vertex 1024
property float x
property float y
property float z
end_header
30.2278 -25.0010 -37.1338
30.2278 11.0165 -34.7844
30.2278 -31.9207 11.2317
30.2278 -25.7853 11.2609
30.2278 -9.4429 -47.7848
30.2278 -9.3893 36.3269
30.2278 -32.5387 -34.5163
30.2278 14.0817 -10.4517
30.2278 -22.1629 -40.7125
30.2278 9.9790 30.3597
30.2278 0.4194 -16.7345
30.2278 11.4661 34.0224
30.2278 -17.3259 -11.1922
30.2278 7.6998 27.6634
30.2278 -38.5266 -24.0523
30.2278 9.2889 -11.5210
30.2278 30.1031 -6.6439
30.2278 -8.8073 -24.2254
30.2278 2.8790 -55.1971
30.2278 3.6595 -34.2453
30.2278 38.2854 -32.7627
30.2278 -37.6138 -15.3149
30.2278 -26.7160 33.7834
30.2278 -12.6100 -22.7661
30.2278 -18.0051 -27.5455
30.2278 26.9836 -5.3277
30.2278 26.7534 -8.9898
30.2278 7.0426 13.8680
30.2278 -9.6260 24.2182
30.2278 -10.3202 -40.4868
30.2278 -27.4042 -5.3422
30.2278 35.4115 2.5681
30.2278 28.3479 44.9475
30.2278 34.0042 8.7522
30.2278 10.0524 5.0361
30.2278 20.3351 53.9757
30.2278 -5.4431 35.8998
30.2278 35.0579 -28.6211
30.2278 10.3433 -52.2239
30.2278 13.7938 53.5449
30.2278 -34.6066 16.1585
30.2278 -20.0346 46.6133
30.2278 -25.9139 -43.3359
30.2278 11.0388 -52.7072
30.2278 3.7165 -17.5266
30.2278 -14.8483 49.6299
30.2278 36.4005 36.8370
30.2278 35.1338 -33.1714
30.2278 18.5652 -39.2123
30.2278 -15.2719 -50.7297
30.2278 -9.7240 -31.5852
30.2278 -0.0351 -23.8244
30.2278 -19.7687 -52.5127
30.2278 0.6024 -38.9146
30.2278 -17.6857 20.3739
30.2278 4.7947 -30.1112
30.2278 -8.5233 14.5629
30.2278 22.5101 5.0341
30.2278 -14.1116 13.5209
30.2278 14.7606 -54.4535
30.2278 32.5677 -22.7226
30.2278 37.6474 -10.0974
30.2278 3.5262 41.9543
30.2278 17.0407 54.0942
30.2278 5.7502 -2.9244
30.2278 2.3913 -20.9339
30.2278 -9.9976 -26.9724
30.2278 9.5554 46.4229
30.2278 -28.7992 20.1445
30.2278 -4.8971 -29.1767
30.2278 4.5400 -28.8763
30.2278 -19.4171 -33.5366
30.2278 -6.7119 19.0912
30.2278 -17.0238 7.3278
30.2278 18.0207 15.8586
30.2278 -12.9434 -50.9225
30.2278 -22.9640 -51.9474
30.2278 31.5365 20.8229
30.2278 2.0572 -11.9215
30.2278 11.2201 43.0280
30.2278 -28.1405 28.7724
30.2278 30.8642 -47.7932
30.2278 -10.9924 54.5143
30.2278 -30.8192 -55.0791
30.2278 -2.2733 -43.9739
30.2278 -22.4948 2.2567
30.2278 35.3132 32.7870
30.2278 -14.2666 40.6013
30.2278 -19.0277 -14.9898
30.2278 -10.4028 49.5648
30.2278 12.6890 -20.9430
30.2278 -38.2026 -44.3872
30.2278 -3.6065 10.0566
30.2278 37.2903 -52.8111
30.2278 -27.0675 -32.5358
30.2278 -4.2476 -38.3922
30.2278 6.3595 -35.7174
30.2278 22.8300 38.9287
30.2278 -1.2147 -13.8981
30.2278 28.7980 50.7489
30.2278 -32.6862 -25.2161
30.2278 9.8236 15.3683
30.2278 21.0064 -16.8017
30.2278 20.0761 -45.9196
30.2278 22.3576 2.1761
30.2278 16.4779 -8.0132
30.2278 34.0010 12.8004
30.2278 -37.9356 -27.9784
30.2278 11.3951 5.3870
30.2278 27.2917 -35.0084
30.2278 35.0196 3.2433
30.2278 4.9228 31.7738
30.2278 27.7662 -30.5317
30.2278 -25.3608 -3.0839
30.2278 -37.5265 -30.7034
30.2278 -13.8474 -13.1109
30.2278 -31.7584 -52.4676
30.2278 -27.9922 0.0350
30.2278 -1.2118 -32.4229
30.2278 -11.3738 -29.0825
30.2278 17.0936 -54.0594
30.2278 24.4303 44.3421
30.2278 35.8122 -25.4929
30.2278 22.6449 49.7296
30.2278 -8.3872 48.0075
30.2278 -37.9420 5.1036
30.2278 -32.0831 -18.7259
30.2278 16.4558 34.6525
30.2278 -8.5888 23.5109
30.2278 25.1614 -39.2000
30.2278 25.2461 14.9504
30.2278 6.2151 44.7682
30.2278 -6.9207 -15.3291
30.2278 12.2877 -21.7655
30.2278 1.1914 36.2946
30.2278 -8.3229 -39.1008
30.2278 35.5047 25.8997
30.2278 33.6645 -43.4378
30.2278 -29.6687 -3.3716
30.2278 -9.1551 11.1085
30.2278 -12.3925 25.2374
30.2278 -25.7191 -27.6352
30.2278 5.7892 -51.2347
30.2278 -30.7436 50.1448
30.2278 26.5375 32.5206
30.2278 -31.5186 46.5187
30.2278 18.6796 30.4232
30.2278 -23.9016 21.9531
30.2278 30.5723 -24.7072
30.2278 10.6234 -23.6533
30.2278 10.8191 50.7621
30.2278 -23.2630 28.7405
30.2278 7.9494 -51.1192
30.2278 8.1410 5.3705
30.2278 35.5994 -19.0459
30.2278 -37.7710 46.3917
30.2278 -14.2988 -32.0320
30.2278 -11.8860 9.1115
30.2278 -0.4302 22.7610
30.2278 -33.1817 46.6620
30.2278 -3.6186 21.9028
30.2278 5.0395 37.0794
30.2278 11.4722 1.8117
30.2278 32.5298 31.1561
30.2278 25.4805 -25.6368
30.2278 34.3728 11.2827
30.2278 -3.4113 53.4158
30.2278 34.9697 13.1249
30.2278 9.5447 11.9032
30.2278 -17.4953 52.9099
30.2278 -23.4815 -46.7080
-30.2278 -8.1074 -53.7081
-30.2278 -26.2964 -48.2986
-30.2278 -34.2443 44.4555
-30.2278 24.9067 -10.2217
-30.2278 -34.9555 29.2719
-30.2278 24.1302 23.1777
-30.2278 -6.9752 -41.5387
-30.2278 -4.5291 26.0653
-30.2278 30.1802 1.8742
-30.2278 -23.6626 47.1203
-30.2278 20.8099 -24.7849
-30.2278 -6.4675 30.0428
-30.2278 28.0847 -52.2965
-30.2278 -14.5425 -1.5910
-30.2278 34.0742 27.9153
-30.2278 25.0287 -52.9528
-30.2278 -29.4826 50.7158
-30.2278 -29.8682 37.8553
-30.2278 -20.7811 47.5112
-30.2278 -16.3419 -8.4614
-30.2278 8.4569 15.9005
-30.2278 -1.0319 -53.9934
-30.2278 16.3969 24.3056
-30.2278 32.6070 28.4744
-30.2278 1.7068 -7.8142
-30.2278 29.4883 -40.8189
-30.2278 9.9323 -0.5980
-30.2278 19.1189 44.7305
-30.2278 -0.6174 6.1159
-30.2278 -3.0547 52.0205
-30.2278 -25.5905 26.7114
-30.2278 -35.5121 -19.4971
-30.2278 29.5766 42.3658
-30.2278 -27.6784 -2.8008
-30.2278 -6.0830 19.0013
-30.2278 -23.7799 41.0874
-30.2278 -24.1081 -19.7094
-30.2278 18.9461 37.1818
-30.2278 20.9649 -29.8189
-30.2278 11.6984 -51.0403
-30.2278 6.0591 50.7640
-30.2278 -32.5501 -41.4426
-30.2278 -30.8875 -6.5525
-30.2278 -35.1344 10.5401
-30.2278 -33.5001 -30.9098
-30.2278 6.0505 -38.4077
-30.2278 16.4751 19.7228
-30.2278 13.5437 -48.8293
-30.2278 -27.2041 21.5065
-30.2278 -9.4449 -16.0492
-30.2278 10.7960 -34.4704
-30.2278 -38.3464 18.6104
-30.2278 31.1843 -16.8849
-30.2278 8.1388 -54.6946
-30.2278 27.7946 -15.5028
-30.2278 -25.7419 -46.9962
-30.2278 -36.9921 53.4320
-30.2278 -22.5567 -41.7133
-30.2278 -17.5679 50.4801
-30.2278 6.6600 23.9823
-30.2278 -5.9000 23.3073
-30.2278 -18.3066 -29.4462
-30.2278 14.9277 14.7174
-30.2278 29.5550 -43.6992
-30.2278 34.2016 -41.3471
-30.2278 9.3392 -4.2476
-30.2278 -35.9625 -33.5328
-30.2278 -17.1783 35.9789
-30.2278 38.5380 35.7518
-30.2278 34.1577 35.8779
-30.2278 -25.6847 16.4228
-30.2278 -19.5704 13.6676
-30.2278 3.8560 5.3264
-30.2278 33.9676 -20.1685
-30.2278 7.5125 -40.9174
-30.2278 17.3506 54.5021
-30.2278 1.2624 -26.5573
-30.2278 -9.7876 41.5653
-30.2278 -19.7256 -24.4544
-30.2278 23.1036 40.9053
-30.2278 16.6367 -2.9182
-30.2278 29.0020 8.9822
-30.2278 18.3096 20.6325
-30.2278 34.8058 -44.7397
-30.2278 17.1732 -3.6531
-30.2278 -37.5206 16.0648
-30.2278 8.1371 35.9369
-30.2278 35.9643 -28.7968
-30.2278 17.4502 -51.0038
-30.2278 -4.0315 -11.3565
-30.2278 -36.4297 26.7474
-30.2278 -10.6984 29.2743
-30.2278 -20.4066 36.1084
-30.2278 13.3647 30.5689
-30.2278 2.1486 15.7904
-30.2278 -3.7877 -11.5702
-30.2278 29.8452 46.5336
-30.2278 -5.8056 13.6964
-30.2278 31.2916 -51.2944
-30.2278 -1.0908 -18.4908
-30.2278 -15.9515 -33.9209
-30.2278 15.1222 46.2148
-30.2278 -27.1730 7.4861
-30.2278 -16.6423 42.3160
-30.2278 -7.2121 -3.7034
-30.2278 5.3585 44.3410
-30.2278 -14.4542 -25.3630
-30.2278 -7.3789 -43.1742
-30.2278 -33.2011 -12.1949
-30.2278 3.7639 37.4871
-30.2278 -22.3750 -7.8138
-30.2278 -37.3439 35.0899
-30.2278 13.0113 49.2153
-30.2278 35.8028 27.0346
-30.2278 5.7070 -25.0400
-30.2278 -35.8331 23.7813
-30.2278 -16.0583 49.7568
-30.2278 -10.3715 31.4923
-30.2278 -21.7582 38.5515
-30.2278 31.8883 -44.8170
-30.2278 -32.2251 39.9517
-30.2278 -0.4252 21.7410
-30.2278 22.9251 -45.2708
-30.2278 -22.8934 -22.7216
-30.2278 -17.0534 -46.2397
-30.2278 -37.5155 -19.2176
-30.2278 7.7649 -30.6606
-30.2278 -27.3745 30.2246
-30.2278 30.5695 -14.3930
-30.2278 20.2318 48.6968
-30.2278 -33.9699 42.7488
-30.2278 17.4992 -51.9319
-30.2278 -23.3304 -47.8642
-30.2278 36.1134 -53.9891
-30.2278 -20.8463 -53.0029
-30.2278 28.7379 42.1096
-30.2278 2.5755 5.2801
-30.2278 35.6968 48.5352
-30.2278 -15.0885 -23.0879
-30.2278 28.7505 16.4205
-30.2278 -15.3200 -16.7859
-30.2278 -30.8513 25.8748
-30.2278 -36.0381 35.7254
-30.2278 13.1076 -30.5260
-30.2278 -9.9298 22.9143
-30.2278 23.1020 14.6493
-30.2278 25.9871 -27.8565
-30.2278 -29.8659 -35.6813
-30.2278 -33.5934 -5.9104
-30.2278 0.2074 -15.0720
-30.2278 -8.5324 -34.3169
-30.2278 -11.6183 -34.0099
-30.2278 -0.5525 28.9096
-30.2278 7.4970 28.5333
-30.2278 2.5543 -14.5726
-30.2278 -35.6861 53.9063
-30.2278 -38.1064 23.0449
-30.2278 -23.5944 -0.5268
-30.2278 -1.3954 5.5948
-30.2278 -9.1671 36.8866
-30.2278 -5.4225 19.6016
-30.2278 15.5869 -8.6478
-30.2278 -6.6940 28.0880
-30.2278 16.2749 0.5247
-30.2278 29.1204 -5.7383
-30.2278 -27.8088 -32.1646
-30.2278 20.9573 -6.9286
-30.2278 -6.1947 22.3906
-30.2278 -21.3908 27.5024
-30.2278 1.1268 -8.2399
-30.2278 9.4305 -52.1125
-5.0058 38.6615 -6.5377
-28.9358 38.6615 -33.4308
-9.2460 38.6615 -3.4999
27.0540 38.6615 -6.9611
27.6557 38.6615 19.3358
20.0725 38.6615 -19.2912
-7.9380 38.6615 -4.0299
-7.2117 38.6615 15.5273
8.4078 38.6615 11.5698
-6.1844 38.6615 -35.9397
-14.5322 38.6615 48.4239
-8.1481 38.6615 -40.6115
8.7809 38.6615 53.3454
7.3958 38.6615 -52.5679
-13.8527 38.6615 27.5478
8.2028 38.6615 -32.9720
-27.5730 38.6615 -53.5383
8.0442 38.6615 -50.6360
13.5131 38.6615 -9.3447
-18.4770 38.6615 35.5229
18.6054 38.6615 -51.2153
-21.6663 38.6615 48.9915
29.6742 38.6615 49.3037
-16.6486 38.6615 -9.6727
-11.5989 38.6615 35.6875
19.1598 38.6615 50.1168
-21.7899 38.6615 24.1544
-2.3407 38.6615 -52.1111
14.2212 38.6615 -11.9020
4.6891 38.6615 4.8356
-29.1869 38.6615 26.8744
-21.5790 38.6615 -21.7868
-1.9381 38.6615 -17.6458
6.4334 38.6615 31.0564
-29.3555 38.6615 -52.3206
-25.6894 38.6615 -9.6620
7.8960 38.6615 30.7250
20.8237 38.6615 -28.8722
-7.3134 38.6615 -34.5699
2.4996 38.6615 -18.5554
15.3725 38.6615 -48.6245
-26.0376 38.6615 21.0245
-24.5890 38.6615 -40.3662
21.4796 38.6615 -42.1320
-13.5778 38.6615 49.0533
18.9330 38.6615 -33.1822
-9.1176 38.6615 -50.5989
-14.5262 38.6615 4.5424
-27.4550 38.6615 11.3792
16.2382 38.6615 21.8059
29.9241 38.6615 13.6542
1.4344 38.6615 36.2435
-11.0879 38.6615 -13.3738
19.6396 38.6615 -3.5440
29.1805 38.6615 -45.1525
-25.8098 38.6615 -30.4276
12.2781 38.6615 -51.6531
0.5845 38.6615 -50.6542
0.7930 38.6615 53.9794
14.2308 38.6615 -17.6891
18.8087 38.6615 -17.3722
-7.3215 38.6615 -17.3997
-8.1150 38.6615 -20.4528
3.6002 38.6615 -31.8968
28.8191 38.6615 6.8498
-27.4252 38.6615 -50.2767
12.5226 38.6615 -9.8964
6.3245 38.6615 54.9866
-5.7433 38.6615 -26.2752
-10.3452 38.6615 -34.5474
-25.1550 38.6615 7.7741
0.4901 38.6615 -46.4640
1.9271 38.6615 -3.4977
-15.2452 38.6615 16.3338
15.9784 38.6615 -29.0845
16.6009 38.6615 12.5733
-5.6915 38.6615 47.2869
17.7281 38.6615 35.3709
-21.3226 38.6615 18.2114
-3.5401 38.6615 33.5099
-24.4186 38.6615 1.2732
-13.3115 38.6615 -51.2665
28.3622 38.6615 -5.0203
25.9442 38.6615 47.5412
11.1672 38.6615 -50.3132
17.7277 38.6615 -43.4382
-15.0463 38.6615 5.9194
13.8286 38.6615 -52.3904
17.7903 38.6615 26.9114
-24.0997 38.6615 31.2764
7.8481 38.6615 -46.8921
5.3021 38.6615 20.7571
9.2309 38.6615 39.3941
-18.2495 38.6615 -29.6899
9.6469 38.6615 -33.9699
-20.7492 38.6615 -16.9201
-24.7649 38.6615 -9.4976
-30.1932 38.6615 48.2637
10.7543 38.6615 -16.2999
-16.0745 38.6615 -41.8363
12.4553 38.6615 -4.2766
-2.5920 38.6615 35.3249
-12.2155 38.6615 -14.1468
7.6484 38.6615 8.0371
-2.7812 38.6615 -32.8182
-22.4444 38.6615 16.0033
24.4907 38.6615 47.4292
26.4914 38.6615 38.2988
-27.8989 38.6615 11.9055
19.6083 38.6615 -39.5012
19.8628 38.6615 41.5294
-12.2198 38.6615 25.8244
-6.6314 38.6615 46.1930
19.3461 38.6615 -16.6998
5.1227 38.6615 36.0446
-1.0626 38.6615 52.8358
-4.0357 38.6615 -24.4431
7.5798 38.6615 -40.7693
7.0253 38.6615 -49.2770
14.7436 38.6615 27.5777
29.3213 38.6615 -32.5289
-3.9376 38.6615 -26.9104
-21.9042 38.6615 29.0399
25.4951 38.6615 49.9490
-13.4044 38.6615 -14.9813
7.3337 38.6615 47.9373
16.4730 38.6615 29.6764
-3.4969 38.6615 -2.8721
16.5330 38.6615 -24.1398
-27.3624 38.6615 -9.0639
12.3146 38.6615 -53.4762
-28.7706 38.6615 -37.2363
9.0763 38.6615 -19.1473
-27.7780 38.6615 -39.3126
-28.2742 38.6615 -3.2983
-26.2501 38.6615 16.4129
13.4135 38.6615 -35.7269
-29.5941 38.6615 -50.0321
18.2149 38.6615 35.3360
-25.4904 38.6615 2.0729
-17.6813 38.6615 34.8456
-3.3988 38.6615 -2.0824
26.0709 38.6615 -41.4350
-21.5122 38.6615 -52.4955
26.8099 38.6615 7.0467
28.9238 38.6615 -50.4292
19.4945 38.6615 44.5055
-15.0130 38.6615 -46.8912
-4.0582 38.6615 45.0899
-15.4222 38.6615 -27.5090
29.6320 38.6615 -53.3314
-12.4459 38.6615 -30.6150
-30.0322 38.6615 -37.4106
-21.7404 38.6615 -46.9705
13.5901 38.6615 -49.5308
-7.1876 38.6615 -23.7291
-21.8821 38.6615 11.6191
-13.7538 38.6615 2.0382
-19.3730 38.6615 45.2779
24.7454 38.6615 -13.4132
10.9420 38.6615 34.6888
-26.7707 38.6615 -51.5124
13.6831 38.6615 -34.0225
-10.2151 38.6615 30.8738
12.6813 38.6615 -26.1715
-16.9880 38.6615 15.6829
-28.1154 38.6615 -28.4992
6.3567 38.6615 41.9666
-24.2171 38.6615 -49.7104
-26.0862 38.6615 -31.5052
-26.5185 38.6615 43.9661
-19.1452 -38.6615 -39.1115
19.0861 -38.6615 28.0916
-8.8402 -38.6615 -39.2962
4.2436 -38.6615 36.4621
-14.5892 -38.6615 21.6925
27.7430 -38.6615 -44.1727
-15.9425 -38.6615 -26.7380
24.0223 -38.6615 17.5187
-20.6288 -38.6615 6.9100
4.6666 -38.6615 53.4170
14.8682 -38.6615 40.0719
17.6647 -38.6615 9.0745
-23.0133 -38.6615 22.5000
-0.5717 -38.6615 -27.1089
-20.0656 -38.6615 42.1582
-4.8937 -38.6615 36.7456
-28.1222 -38.6615 -0.8699
-12.2847 -38.6615 -44.7081
6.3019 -38.6615 12.4298
4.4853 -38.6615 -19.4994
-3.6693 -38.6615 42.9200
-16.9872 -38.6615 -44.3419
-15.2837 -38.6615 -43.2901
6.4828 -38.6615 30.3549
-12.5344 -38.6615 40.9300
-18.5866 -38.6615 8.2489
29.8783 -38.6615 25.8715
4.9164 -38.6615 -35.7943
24.8733 -38.6615 15.2550
3.7117 -38.6615 19.7993
3.8675 -38.6615 -44.2110
-1.2543 -38.6615 19.4432
30.0188 -38.6615 3.8106
-17.6311 -38.6615 25.4770
11.2569 -38.6615 50.0564
-13.1176 -38.6615 -13.0807
25.0757 -38.6615 -24.9760
14.2851 -38.6615 -15.2006
21.5093 -38.6615 -51.4718
-8.2014 -38.6615 -12.6342
-26.8411 -38.6615 40.1730
-18.1689 -38.6615 21.8415
-11.9400 -38.6615 52.8971
-26.0606 -38.6615 -33.8961
8.7570 -38.6615 -10.1415
8.5705 -38.6615 30.8530
23.5466 -38.6615 35.7064
20.8419 -38.6615 27.2799
24.4150 -38.6615 -38.8689
12.7348 -38.6615 -30.1006
29.8739 -38.6615 11.6020
-20.1733 -38.6615 5.3020
-3.3562 -38.6615 45.6898
-17.7250 -38.6615 16.0214
-23.9137 -38.6615 24.5387
25.3379 -38.6615 -2.6515
22.4747 -38.6615 35.1493
16.4575 -38.6615 13.3180
-13.5766 -38.6615 28.1184
-1.3222 -38.6615 -43.8792
1.2870 -38.6615 44.2454
-27.0108 -38.6615 55.1448
24.0468 -38.6615 31.4460
12.1241 -38.6615 0.8243
-13.2181 -38.6615 28.0336
-21.1106 -38.6615 13.4621
-6.1280 -38.6615 -5.3999
-2.5732 -38.6615 38.2777
20.7507 -38.6615 -24.1112
-24.7090 -38.6615 20.8789
-9.3821 -38.6615 -54.2853
-10.9321 -38.6615 -45.9362
24.5106 -38.6615 -14.7782
-21.0179 -38.6615 -16.3701
25.7650 -38.6615 -19.7963
-15.1660 -38.6615 26.7475
-8.1172 -38.6615 -10.9355
-0.1325 -38.6615 -34.1863
-20.9714 -38.6615 24.6896
-28.5697 -38.6615 -22.5665
-0.1502 -38.6615 53.0568
8.9414 -38.6615 -48.4192
25.3327 -38.6615 32.4352
-20.5599 -38.6615 46.9073
-24.8890 -38.6615 -13.0673
10.0284 -38.6615 7.0913
6.7732 -38.6615 -8.6110
-15.4041 -38.6615 -20.7153
-0.8610 -38.6615 26.9980
-1.1456 -38.6615 20.8965
27.7964 -38.6615 5.0716
28.8352 -38.6615 49.1046
-26.6918 -38.6615 22.6706
10.3610 -38.6615 33.2945
-11.1218 -38.6615 12.6426
-13.7811 -38.6615 25.9780
-3.1912 -38.6615 13.5537
0.2899 -38.6615 6.1496
-0.8089 -38.6615 0.5509
-18.3194 -38.6615 -21.4769
-2.4587 -38.6615 -17.6700
26.2548 -38.6615 17.6185
-27.8989 -38.6615 -8.1614
-28.5558 -38.6615 -28.4938
3.8733 -38.6615 -45.4431
-25.6884 -38.6615 -21.8351
-30.1138 -38.6615 41.4682
8.3277 -38.6615 -30.3084
-25.7677 -38.6615 -11.2374
-27.6674 -38.6615 -47.8484
-11.6808 -38.6615 -8.8300
23.8000 -38.6615 -3.4027
-5.0277 -38.6615 -27.7077
-12.0023 -38.6615 -48.1717
-17.3203 -38.6615 9.6411
-7.6502 -38.6615 -46.9524
16.7218 -38.6615 -0.7431
21.3724 -38.6615 13.5390
3.9626 -38.6615 -3.7323
28.0032 -38.6615 -15.4727
20.4725 -38.6615 18.2674
22.8822 -38.6615 -12.5549
2.6648 -38.6615 -17.6267
-19.5499 -38.6615 6.5927
-0.0647 -38.6615 0.0686
-10.9335 -38.6615 25.5207
2.6143 -38.6615 1.9818
-11.2763 -38.6615 -53.8385
-29.4223 -38.6615 -43.3510
30.0413 -38.6615 17.2080
0.9128 -38.6615 -21.4013
23.8160 -38.6615 5.6630
16.8154 -38.6615 25.6809
-29.6264 -38.6615 22.4407
17.5759 -38.6615 30.7623
24.3160 -38.6615 40.1150
15.8816 -38.6615 21.7695
-1.8635 -38.6615 10.4142
-20.2442 -38.6615 -11.4169
21.3609 -38.6615 39.2040
-26.6198 -38.6615 -7.8936
-19.5180 -38.6615 43.6515
3.7020 -38.6615 52.2872
7.6474 -38.6615 5.9399
-27.7849 -38.6615 -17.1242
16.5577 -38.6615 41.7995
-18.8948 -38.6615 -0.8102
-24.3897 -38.6615 -32.8809
-6.3149 -38.6615 18.5223
24.2427 -38.6615 -32.5685
-4.7557 -38.6615 -15.0634
9.1140 -38.6615 -29.8269
10.5300 -38.6615 15.3769
16.7742 -38.6615 -28.3322
17.0350 -38.6615 35.4663
25.9465 -38.6615 -25.2295
10.8170 -38.6615 -13.0174
12.9719 -38.6615 13.0075
4.3435 -38.6615 -5.4606
11.2794 -38.6615 -17.0290
13.6508 -38.6615 -48.9697
4.4514 -38.6615 41.1788
-1.4419 -38.6615 -8.4228
-29.5234 -38.6615 34.2750
-4.4719 -38.6615 -1.6580
9.5447 -38.6615 -44.8382
27.7392 -38.6615 -23.4391
29.5542 -38.6615 -38.8828
-26.5302 -38.6615 44.1215
-4.6831 -38.6615 18.3502
-11.2302 -38.6615 11.0100
19.2336 18.5422 55.3208
-13.3948 -9.5312 55.3208
19.6172 1.3931 55.3208
8.5429 -26.7128 55.3208
1.3698 33.6438 55.3208
15.4418 -33.2803 55.3208
-16.8779 26.8102 55.3208
-26.1630 -2.3252 55.3208
-18.2240 31.1698 55.3208
-8.3930 26.9263 55.3208
2.7152 -16.8074 55.3208
-23.4453 -21.1893 55.3208
-2.4026 13.1932 55.3208
-13.6526 -5.1999 55.3208
-1.0749 -27.4249 55.3208
-17.9331 8.3311 55.3208
-12.9859 -13.6298 55.3208
21.7126 -28.6092 55.3208
7.1044 5.8044 55.3208
-2.7185 -26.4815 55.3208
7.7651 3.3355 55.3208
-22.1150 14.1245 55.3208
6.9515 15.4226 55.3208
2.5802 -15.0994 55.3208
-0.8234 -0.0571 55.3208
19.2633 27.4843 55.3208
14.2078 9.3033 55.3208
-23.4613 -23.9782 55.3208
0.3550 -18.0842 55.3208
26.0098 30.2484 55.3208
-9.1497 4.0099 55.3208
-13.8353 -13.9924 55.3208
-1.1555 30.9575 55.3208
15.8222 29.1706 55.3208
15.1672 -14.8750 55.3208
29.9156 21.9518 55.3208
-29.5994 33.0039 55.3208
-27.6024 -25.0040 55.3208
25.4306 -14.3015 55.3208
-5.3287 -25.0193 55.3208
-11.4246 23.7478 55.3208
-28.5567 37.3719 55.3208
11.5547 -26.5070 55.3208
6.1504 10.4888 55.3208
-2.2767 25.5813 55.3208
-5.0897 6.8505 55.3208
-25.7348 -16.6603 55.3208
-7.5916 -13.8524 55.3208
-24.7313 26.9074 55.3208
-13.2556 27.8179 55.3208
2.8439 -34.8834 55.3208
-7.5398 22.8369 55.3208
-16.0506 -16.4292 55.3208
-18.1081 -16.0426 55.3208
28.7065 16.0265 55.3208
-0.6796 -3.2248 55.3208
12.2563 -23.9224 55.3208
9.0996 3.5739 55.3208
11.3951 -10.9265 55.3208
-18.5673 -11.4588 55.3208
-22.8222 11.0873 55.3208
15.4654 7.6492 55.3208
-17.1297 31.2694 55.3208
8.3453 -8.9397 55.3208
2.7353 -31.5691 55.3208
-17.8537 -6.8711 55.3208
-6.6595 19.5678 55.3208
14.0527 -36.1290 55.3208
21.9747 15.4050 55.3208
6.6075 -2.7211 55.3208
-18.8499 -26.9118 55.3208
-3.7679 -17.7415 55.3208
24.5589 28.6593 55.3208
-21.7243 1.4697 55.3208
16.8427 -32.0780 55.3208
-10.9635 -25.9851 55.3208
17.7472 28.6427 55.3208
-22.8524 -23.9306 55.3208
20.3544 -34.9952 55.3208
25.5993 11.4305 55.3208
11.3473 24.9670 55.3208
-0.1449 -1.3854 55.3208
2.0214 26.4283 55.3208
28.5277 -9.0568 55.3208
-8.7132 -22.5980 55.3208
-17.0814 15.6532 55.3208
-3.4841 5.5478 55.3208
-15.4297 35.8841 55.3208
8.5483 14.2711 55.3208
-23.3128 26.0643 55.3208
-19.8471 -15.3911 55.3208
-16.7486 -13.8866 55.3208
-27.2671 22.4290 55.3208
-3.6536 36.5868 55.3208
4.8117 23.3039 55.3208
15.2494 -18.4261 55.3208
16.2866 17.0350 55.3208
21.1271 -14.3518 55.3208
-10.1206 15.9271 55.3208
-18.9167 32.6828 55.3208
0.9379 -16.3564 55.3208
19.7781 11.5832 55.3208
-9.4075 16.3819 55.3208
-19.0418 -7.3182 55.3208
28.8517 -32.6034 55.3208
-6.6006 16.6126 55.3208
20.7832 35.8453 55.3208
15.9020 10.2105 55.3208
-21.8304 16.3634 55.3208
-18.2220 14.2293 55.3208
10.6964 35.4357 55.3208
-7.9628 -19.9666 55.3208
-25.1501 -14.8667 55.3208
-14.5328 -11.4211 55.3208
-2.4458 25.8282 55.3208
28.1627 19.4614 55.3208
-11.9720 -9.0823 55.3208
6.9145 -8.9350 55.3208
7.3959 -0.6442 55.3208
-3.2520 -36.2570 55.3208
20.7364 -11.6537 55.3208
8.1626 -24.3475 55.3208
5.9498 19.5587 55.3208
10.9739 -32.7034 55.3208
-11.1549 4.6783 55.3208
28.8236 -9.0312 55.3208
5.5807 2.0844 55.3208
7.1940 1.6982 55.3208
-27.0702 -4.6092 55.3208
-26.4960 -25.3632 55.3208
0.2445 -21.1820 55.3208
-24.6658 -19.8932 55.3208
15.8100 -28.8404 55.3208
-14.6643 -0.6263 55.3208
18.1747 -31.9654 55.3208
-10.4665 -26.4024 55.3208
-18.7902 9.2197 55.3208
5.6796 -9.4804 55.3208
26.6074 -33.1694 55.3208
-10.5387 -21.8453 55.3208
-24.7768 30.7185 55.3208
-14.7843 34.9092 55.3208
-29.7298 8.1955 55.3208
2.2899 5.5992 55.3208
-28.2634 6.6152 55.3208
-18.0499 22.3261 55.3208
2.0877 -5.3327 55.3208
-24.0151 -38.3939 55.3208
3.3402 12.1671 55.3208
-8.2133 28.6707 55.3208
25.3329 35.0561 55.3208
-14.7743 -1.2657 55.3208
-29.0334 -38.5480 55.3208
13.3213 -1.3901 55.3208
-0.2126 -15.6057 55.3208
10.9888 -20.7566 55.3208
-17.6788 28.7048 55.3208
-14.6554 -31.8045 55.3208
-3.7474 -35.3591 55.3208
13.7636 29.1330 55.3208
2.1911 35.6673 55.3208
22.0578 -33.2303 55.3208
6.5426 21.4916 55.3208
1.7388 -11.9395 55.3208
7.8916 -30.6349 55.3208
4.7257 -15.6971 55.3208
20.1928 -15.6922 55.3208
-16.5393 -27.8236 55.3208
0.5113 -32.6834 55.3208
28.9277 8.4732 55.3208
8.2095 -8.0266 -55.3208
0.4549 -1.7632 -55.3208
25.3445 11.9185 -55.3208
-2.9502 18.5742 -55.3208
20.0702 38.1951 -55.3208
-25.1514 -37.3177 -55.3208
23.2752 21.0200 -55.3208
21.7688 11.9199 -55.3208
19.1532 -30.4255 -55.3208
-4.1245 11.5634 -55.3208
29.0657 8.7006 -55.3208
-26.0739 3.2197 -55.3208
21.2638 22.3172 -55.3208
-2.9370 13.2951 -55.3208
-26.3812 -1.4568 -55.3208
29.2296 -3.7182 -55.3208
26.8816 22.8567 -55.3208
13.2721 -3.1446 -55.3208
-24.7442 -31.9480 -55.3208
10.1718 19.7404 -55.3208
9.3239 -0.6243 -55.3208
-26.4930 34.1467 -55.3208
29.1165 18.4516 -55.3208
2.5345 34.5875 -55.3208
-10.6037 -5.7516 -55.3208
-3.7204 14.7898 -55.3208
21.8955 18.9154 -55.3208
11.7845 28.7458 -55.3208
-26.3651 -32.1264 -55.3208
-8.4762 -14.1476 -55.3208
-22.5726 -11.8631 -55.3208
19.7840 35.4111 -55.3208
-27.6344 -25.1168 -55.3208
-24.2793 -11.7162 -55.3208
-17.2498 -34.3290 -55.3208
-27.6591 -27.0829 -55.3208
-2.4470 21.0204 -55.3208
-14.7520 14.7352 -55.3208
-25.8141 -33.1803 -55.3208
28.8051 7.1139 -55.3208
15.2619 18.5471 -55.3208
-11.3625 -35.6583 -55.3208
18.1739 6.3230 -55.3208
-2.7807 30.9423 -55.3208
26.1172 -15.9453 -55.3208
-4.5383 -28.1677 -55.3208
-5.3253 -11.8904 -55.3208
6.1111 0.4661 -55.3208
-10.3083 -1.7492 -55.3208
16.8236 14.5548 -55.3208
5.8181 35.6214 -55.3208
-24.7356 8.7172 -55.3208
-18.1026 -28.2596 -55.3208
-11.8986 -33.7223 -55.3208
3.0815 -24.9892 -55.3208
-26.7543 24.3753 -55.3208
21.6384 -29.3323 -55.3208
21.4894 19.5792 -55.3208
-1.0385 -14.7617 -55.3208
6.3646 8.9813 -55.3208
4.6241 26.0817 -55.3208
-27.7654 28.9226 -55.3208
15.7698 -26.5263 -55.3208
19.6859 -15.3347 -55.3208
11.5648 -35.0033 -55.3208
-12.1949 33.9975 -55.3208
-10.5467 15.2211 -55.3208
10.0338 7.4611 -55.3208
-16.1905 18.7893 -55.3208
-24.5021 -30.7889 -55.3208
-0.0525 -35.0350 -55.3208
13.6633 33.9314 -55.3208
-6.7691 -6.9213 -55.3208
-15.3244 28.0963 -55.3208
-19.3329 36.1484 -55.3208
-12.0273 -24.0259 -55.3208
-28.3614 29.2976 -55.3208
-23.7050 -3.3715 -55.3208
-6.9697 -37.2536 -55.3208
-27.8533 -23.3432 -55.3208
15.6737 30.0401 -55.3208
30.0673 24.2602 -55.3208
-5.4268 23.8226 -55.3208
30.0874 -19.8825 -55.3208
-23.4627 -8.5675 -55.3208
-23.0010 36.8936 -55.3208
6.3562 -31.5837 -55.3208
-11.2552 -19.5708 -55.3208
-5.3980 29.5354 -55.3208
-23.1685 -37.9420 -55.3208
-10.1661 -10.9577 -55.3208
9.4506 3.2191 -55.3208
-27.4047 -35.5589 -55.3208
25.6431 23.0531 -55.3208
28.4433 -7.6594 -55.3208
29.0263 -20.8257 -55.3208
1.4401 31.1465 -55.3208
4.2646 24.4505 -55.3208
-9.8037 -19.2672 -55.3208
13.4478 -32.2273 -55.3208
10.0372 -26.8429 -55.3208
0.0714 -34.4942 -55.3208
-19.5433 0.5664 -55.3208
11.4291 24.0826 -55.3208
-4.9389 -11.7484 -55.3208
-23.8656 34.8565 -55.3208
21.5033 -31.3759 -55.3208
7.3112 -25.4845 -55.3208
-23.6686 -30.6795 -55.3208
-29.8421 4.5127 -55.3208
-17.8216 -36.2558 -55.3208
-20.4131 9.6909 -55.3208
25.2763 8.1807 -55.3208
24.8557 26.3552 -55.3208
22.1953 35.9964 -55.3208
28.8837 -12.9271 -55.3208
24.1623 -17.2812 -55.3208
-3.1308 3.6673 -55.3208
-5.7755 38.3055 -55.3208
-20.8594 17.1273 -55.3208
23.3254 -4.1147 -55.3208
12.3487 -24.5796 -55.3208
0.0604 38.2103 -55.3208
24.5622 37.4919 -55.3208
-0.2802 11.4006 -55.3208
10.7943 11.5245 -55.3208
-11.5330 -19.1022 -55.3208
26.2586 18.8937 -55.3208
-1.6139 9.6279 -55.3208
-25.5674 1.2258 -55.3208
-0.2292 -21.5700 -55.3208
-25.7028 35.2271 -55.3208
25.7438 12.1387 -55.3208
22.4160 -23.9598 -55.3208
-20.0862 12.5676 -55.3208
-1.2726 -10.4357 -55.3208
21.7253 -4.6362 -55.3208
-15.0697 -34.9114 -55.3208
-0.7863 19.5144 -55.3208
-0.6723 -29.2188 -55.3208
18.0726 -0.2875 -55.3208
18.0492 30.6267 -55.3208
-22.4568 -21.6685 -55.3208
10.0393 33.8621 -55.3208
12.4432 27.5193 -55.3208
-23.0521 33.5233 -55.3208
-11.5811 -22.1668 -55.3208
-29.8972 -1.8848 -55.3208
1.7670 31.8953 -55.3208
-28.1329 -14.3081 -55.3208
-1.3303 5.0154 -55.3208
-5.6816 13.3918 -55.3208
26.8781 7.3577 -55.3208
5.8803 33.7066 -55.3208
19.2945 -32.0674 -55.3208
18.4349 -5.9796 -55.3208
2.4659 3.2176 -55.3208
18.2525 -8.5407 -55.3208
18.8845 0.4693 -55.3208
18.2334 12.5871 -55.3208
18.9325 -36.7593 -55.3208
28.2776 36.6129 -55.3208
4.3695 38.4773 -55.3208
-0.0492 31.6786 -55.3208
-19.2225 -30.3974 -55.3208
1.2995 -1.3192 -55.3208
-0.1412 30.2847 -55.3208
11.2688 -11.0034 -55.3208
-19.4914 11.4523 -55.3208
-25.2997 29.4019 -55.3208
