ply
format ascii 1.0
element vertex 1024
property float x
property float y
property float z
end_header
73.3553 29.4742 5.5876
73.3553 32.7315 33.8325
73.3553 38.6531 10.7127
73.3553 -37.7341 31.8694
73.3553 9.7254 -0.3155
73.3553 10.7077 4.5368
73.3553 37.3376 -6.8546
73.3553 -19.3909 27.8458
73.3553 51.7466 24.2347
73.3553 -18.4025 30.2298
73.3553 27.1496 -1.8277
73.3553 -16.2969 -1.9978
73.3553 0.7419 -31.9385
73.3553 -9.1791 32.1356
73.3553 -44.8432 16.1024
73.3553 -42.9177 37.1690
73.3553 43.8733 -15.4869
73.3553 23.6589 -36.7001
73.3553 16.7066 16.2262
73.3553 2.3233 2.4202
73.3553 56.5621 12.4574
73.3553 -37.2377 -19.3041
73.3553 32.9474 -39.1423
73.3553 -20.5904 25.8295
73.3553 25.4811 -24.6833
73.3553 -45.1273 20.9100
73.3553 15.2111 31.4393
73.3553 -7.6642 13.6433
73.3553 20.9100 -12.2585
73.3553 43.9452 13.1115
73.3553 58.1001 -11.7517
73.3553 8.4121 -38.8504
73.3553 41.8160 -31.2488
73.3553 16.9456 -31.7426
73.3553 32.2418 -2.3239
73.3553 27.3199 -32.2281
73.3553 -36.3044 22.9991
73.3553 -21.7059 -32.0422
73.3553 53.2661 -20.3396
73.3553 -50.8747 -6.3634
73.3553 -22.6392 -16.6078
73.3553 -31.9083 35.3820
73.3553 -37.4009 -21.0181
73.3553 -34.1492 -15.8762
73.3553 -39.2614 9.9819
73.3553 44.2456 19.8047
73.3553 51.1237 -12.9699
73.3553 41.0980 -8.4001
73.3553 -13.4190 -3.5528
73.3553 11.7166 -6.6675
73.3553 49.6674 -14.1414
73.3553 39.7220 37.7951
73.3553 57.0916 21.5681
73.3553 -10.1247 9.5827
73.3553 27.8622 28.4003
73.3553 -18.3692 -35.6945
73.3553 -12.1001 16.1821
73.3553 27.8465 36.2360
73.3553 45.8308 -17.1821
73.3553 53.4310 -12.8620
73.3553 -28.2769 -2.1370
73.3553 38.0394 14.1123
73.3553 44.2099 18.1605
73.3553 8.5438 8.7858
73.3553 23.6742 -8.7753
73.3553 10.7839 -37.7770
73.3553 -12.5532 26.2737
73.3553 -22.9532 -19.2376
73.3553 -25.1192 14.1499
73.3553 -39.4502 31.3023
73.3553 -37.4780 -31.7820
73.3553 -23.0844 -6.9465
73.3553 21.4432 -1.1010
73.3553 41.0645 -34.7565
73.3553 -46.5549 -6.3204
73.3553 54.3742 2.7623
73.3553 -23.5749 25.8303
73.3553 -8.6146 13.9466
73.3553 -42.5864 9.6443
73.3553 -6.8265 -8.7148
73.3553 -5.4465 -11.2635
73.3553 -14.6068 -7.8667
73.3553 -7.5877 -38.0977
73.3553 -4.9071 -23.2755
73.3553 -53.4013 6.6457
73.3553 44.3849 -27.0675
73.3553 -27.6580 -14.8740
73.3553 32.8656 19.2051
73.3553 -2.7558 21.9009
73.3553 -28.2757 38.7985
73.3553 -50.2982 23.8182
73.3553 -42.0769 -12.1586
73.3553 -50.2869 18.3760
73.3553 -9.9369 -7.2272
73.3553 -33.0864 31.7705
73.3553 26.2541 14.6458
73.3553 6.1505 -14.4425
73.3553 -39.5625 -38.6737
73.3553 54.9135 31.3235
73.3553 20.2196 10.4932
73.3553 -1.7975 25.7131
73.3553 -30.5961 39.1626
73.3553 -38.7988 3.4243
73.3553 -46.2786 3.5168
73.3553 -54.5675 -4.3240
73.3553 -12.4629 -26.8948
73.3553 35.8108 -6.7930
73.3553 30.0722 -24.7259
73.3553 51.4272 19.1685
73.3553 47.1965 28.5773
73.3553 49.3274 -9.3804
73.3553 -51.9921 31.0636
73.3553 18.6316 -23.7231
73.3553 -9.8734 32.8288
73.3553 54.1701 22.4281
73.3553 5.0817 -6.0769
73.3553 49.1783 24.4093
73.3553 37.4437 -1.7591
73.3553 30.8799 37.3762
73.3553 56.0490 39.0940
73.3553 -48.8631 14.5246
73.3553 26.3560 -16.1347
73.3553 17.3766 38.9553
73.3553 -1.6405 -6.4226
73.3553 19.1942 -24.7463
73.3553 54.3104 -28.7975
73.3553 -4.5532 -30.4052
73.3553 -33.3835 20.7123
73.3553 22.8971 -23.4124
73.3553 43.7953 -10.4038
73.3553 20.6412 -19.8171
73.3553 56.9748 30.2732
73.3553 25.2737 15.6923
73.3553 -9.9894 -32.6597
73.3553 -56.6568 -31.8278
73.3553 15.2167 -36.0147
73.3553 -13.6302 -16.3388
73.3553 -32.6891 -28.3071
73.3553 -54.0810 -27.4582
73.3553 12.6326 -30.2919
73.3553 46.6033 -20.2998
73.3553 -56.3715 -9.3406
73.3553 -7.0877 -7.2308
73.3553 38.7083 35.5968
73.3553 -43.9126 38.3600
73.3553 -54.7762 -35.1113
73.3553 -46.7163 11.8867
73.3553 -54.7804 -26.6894
73.3553 7.0269 10.8559
73.3553 -30.0485 -4.1799
73.3553 -24.8916 33.4160
73.3553 38.1896 -18.9572
73.3553 -16.3103 29.5232
73.3553 30.4078 23.2145
73.3553 -57.5116 -27.4586
73.3553 1.7776 20.3044
73.3553 23.8194 -3.8408
73.3553 -45.7295 38.0276
73.3553 -57.5596 32.7430
73.3553 17.3423 -30.6808
73.3553 -17.1640 36.7994
73.3553 -44.7285 -29.4300
73.3553 -12.1185 0.3469
73.3553 9.7194 -30.0728
73.3553 26.5419 10.5227
73.3553 -35.3136 25.9722
73.3553 31.5449 1.9102
73.3553 -13.6250 -6.5609
73.3553 -4.0534 22.7780
73.3553 -2.6371 -0.7406
73.3553 43.7754 -10.4822
-73.3553 -10.1871 22.4533
-73.3553 -6.9162 25.9110
-73.3553 -18.6652 27.0911
-73.3553 57.2080 15.3055
-73.3553 -16.7398 7.2209
-73.3553 -41.0864 6.6223
-73.3553 -35.6882 39.1853
-73.3553 28.1362 15.2646
-73.3553 1.6845 -20.6616
-73.3553 -10.2499 11.6287
-73.3553 38.3231 18.9524
-73.3553 48.8113 2.1816
-73.3553 57.8502 -27.3607
-73.3553 -10.8105 35.0712
-73.3553 -19.7743 18.5175
-73.3553 -18.6766 0.2133
-73.3553 -43.5374 -8.4105
-73.3553 -19.9374 20.6773
-73.3553 55.9991 -3.2485
-73.3553 34.5754 -21.1479
-73.3553 -26.4095 -14.7777
-73.3553 -11.4868 21.7053
-73.3553 21.3267 -37.4115
-73.3553 54.4478 -23.7420
-73.3553 37.7933 -33.8636
-73.3553 -45.4536 -28.5457
-73.3553 27.7523 -39.1053
-73.3553 3.4138 -36.6678
-73.3553 23.6790 15.4436
-73.3553 38.7317 13.2354
-73.3553 57.4282 -5.5240
-73.3553 23.2826 -30.9822
-73.3553 59.0968 20.3727
-73.3553 2.5917 37.2001
-73.3553 10.6861 5.6726
-73.3553 45.1464 5.0326
-73.3553 -57.2474 22.1942
-73.3553 56.4703 -39.4560
-73.3553 20.4010 -36.0394
-73.3553 52.5716 21.9302
-73.3553 -39.8867 30.7357
-73.3553 -35.3945 -38.7199
-73.3553 50.4596 -3.7561
-73.3553 15.2246 35.8014
-73.3553 27.9005 20.7406
-73.3553 -0.9970 11.1555
-73.3553 -11.6050 37.8418
-73.3553 -53.8768 -0.3843
-73.3553 -37.5016 -24.1394
-73.3553 1.0347 1.0548
-73.3553 56.0103 -37.0959
-73.3553 56.3700 -20.0145
-73.3553 28.7871 4.5741
-73.3553 -31.3789 21.4774
-73.3553 19.3060 -8.2588
-73.3553 -49.9680 -6.6503
-73.3553 53.1563 -39.4550
-73.3553 42.1562 -19.4476
-73.3553 -33.0930 -14.0519
-73.3553 -3.2827 -27.7716
-73.3553 54.5741 29.0686
-73.3553 -10.2735 27.6887
-73.3553 -25.3264 -5.6217
-73.3553 52.6411 0.7309
-73.3553 -41.0915 -2.9751
-73.3553 24.3104 12.3460
-73.3553 -44.7357 11.8135
-73.3553 -31.0857 -34.6989
-73.3553 26.7374 -13.4036
-73.3553 55.4347 -27.9009
-73.3553 -22.7769 14.6891
-73.3553 27.5832 3.7365
-73.3553 43.3232 35.3387
-73.3553 51.1389 -34.0955
-73.3553 -3.1503 39.0130
-73.3553 10.4410 7.8671
-73.3553 -7.2648 -14.7685
-73.3553 -34.8673 10.8572
-73.3553 4.8104 19.9759
-73.3553 11.6391 4.0435
-73.3553 -58.9936 -15.4185
-73.3553 -58.8331 0.8862
-73.3553 -25.6708 33.4622
-73.3553 -15.2485 11.3087
-73.3553 19.3507 8.2712
-73.3553 28.3475 31.4962
-73.3553 -2.8245 -17.9977
-73.3553 -54.7322 13.3015
-73.3553 -2.1825 15.4270
-73.3553 -30.2431 29.7836
-73.3553 19.2252 -33.3740
-73.3553 -40.7149 -13.6866
-73.3553 -29.1827 15.9565
-73.3553 47.5645 34.9728
-73.3553 48.8813 9.9067
-73.3553 49.0152 -25.2572
-73.3553 -22.9552 8.3946
-73.3553 -27.5466 -24.3757
-73.3553 -45.8710 -1.2010
-73.3553 -21.1505 8.7772
-73.3553 50.3770 22.5462
-73.3553 -21.1559 -1.9831
-73.3553 -42.8484 -2.8938
-73.3553 -40.1087 -8.5075
-73.3553 13.9157 10.0298
-73.3553 -10.4105 16.3228
-73.3553 -13.8773 -17.4345
-73.3553 4.3210 -15.7205
-73.3553 27.1555 -21.9012
-73.3553 50.2076 -38.9738
-73.3553 -19.5252 33.7323
-73.3553 -2.6240 26.0769
-73.3553 -54.1480 8.5374
-73.3553 -38.2303 33.0719
-73.3553 -24.5799 -30.5874
-73.3553 -19.2547 14.7611
-73.3553 40.2962 24.4174
-73.3553 47.1086 21.7700
-73.3553 10.4956 33.9529
-73.3553 2.8039 -1.4705
-73.3553 8.6671 -26.5011
-73.3553 -39.1387 36.9303
-73.3553 37.8808 -28.4068
-73.3553 -49.9209 -37.6622
-73.3553 -31.9733 35.4924
-73.3553 -33.9237 -4.4236
-73.3553 -25.4199 33.0906
-73.3553 34.6804 38.5063
-73.3553 58.5321 -14.8500
-73.3553 -6.0721 -31.7990
-73.3553 -56.9364 -21.3936
-73.3553 12.9032 23.7566
-73.3553 -43.8441 10.3548
-73.3553 -29.6106 22.7833
-73.3553 -46.8661 -17.1507
-73.3553 43.3940 -8.9391
-73.3553 -18.0318 -32.5974
-73.3553 -11.9460 -16.7060
-73.3553 -0.1791 25.2150
-73.3553 -17.7261 27.7929
-73.3553 1.9306 -7.7456
-73.3553 34.0058 20.7025
-73.3553 -46.1882 -38.5214
-73.3553 21.8268 21.0314
-73.3553 -30.4015 -25.8049
-73.3553 -8.6592 33.3736
-73.3553 13.5764 -12.1548
-73.3553 -30.2543 16.9202
-73.3553 -28.7868 0.8156
-73.3553 -50.8636 27.7273
-73.3553 -38.7529 -22.0563
-73.3553 36.5470 2.1603
-73.3553 -26.6512 -39.2289
-73.3553 49.5113 -28.3103
-73.3553 -7.7584 -28.7034
-73.3553 40.8982 15.2342
-73.3553 -31.4515 20.4767
-73.3553 -10.4092 -36.2300
-73.3553 40.0564 -22.7219
-73.3553 -27.2428 -29.5350
-73.3553 -25.8849 21.5992
-73.3553 -8.5754 -13.7924
-73.3553 28.8104 33.8492
-73.3553 -41.8236 -18.9961
-73.3553 56.7065 26.3643
-73.3553 12.5576 -19.4028
-73.3553 -13.1544 -24.8910
-73.3553 30.8796 -10.9717
-73.3553 -47.5583 13.9948
-73.3553 -23.5033 16.3808
-73.3553 -23.3071 -5.3869
28.6654 59.4158 -16.5227
-1.4435 59.4158 -31.6760
57.7910 59.4158 19.5308
-4.9230 59.4158 -22.4831
-23.7022 59.4158 -17.4194
62.1979 59.4158 -17.5032
19.1761 59.4158 29.9129
8.9634 59.4158 2.9220
29.8439 59.4158 -28.6577
-55.2401 59.4158 13.6678
-23.4388 59.4158 -2.2963
3.4882 59.4158 -24.4753
-69.2977 59.4158 24.9187
-18.5902 59.4158 -5.2164
12.0952 59.4158 -30.1261
17.6570 59.4158 21.4090
25.1850 59.4158 -1.5756
29.3164 59.4158 8.6047
-11.3706 59.4158 21.9663
-64.8295 59.4158 30.2256
64.1587 59.4158 37.0023
23.7012 59.4158 4.2741
64.1613 59.4158 -7.3832
7.3331 59.4158 5.8527
24.5616 59.4158 4.9717
20.8369 59.4158 39.5355
35.7538 59.4158 10.2352
67.0417 59.4158 22.7924
67.5813 59.4158 34.9480
-61.6606 59.4158 12.6419
41.7710 59.4158 35.5158
25.4508 59.4158 5.5567
-9.1627 59.4158 13.3021
6.9533 59.4158 -39.5659
-40.6700 59.4158 2.4066
-65.0501 59.4158 -27.3923
-52.0425 59.4158 10.1194
-11.5800 59.4158 25.5660
17.4674 59.4158 -14.4630
-66.6888 59.4158 5.0509
-36.9552 59.4158 36.5169
44.1528 59.4158 13.8794
-35.6868 59.4158 9.6699
13.1718 59.4158 7.3257
12.1334 59.4158 13.6636
37.3252 59.4158 -20.8433
39.8376 59.4158 14.2996
14.9613 59.4158 -18.8239
45.1871 59.4158 -6.5825
-37.2085 59.4158 -38.0356
-65.4461 59.4158 17.6597
-62.0920 59.4158 12.9334
58.7683 59.4158 7.5792
47.3802 59.4158 22.6953
22.8547 59.4158 -31.8461
-64.1006 59.4158 -21.4633
63.0857 59.4158 19.9599
-49.6911 59.4158 -33.1493
56.0982 59.4158 -28.0273
13.1159 59.4158 34.0271
27.0184 59.4158 -21.8180
-23.2667 59.4158 -32.3401
-13.8234 59.4158 -24.7392
-11.4273 59.4158 8.4744
-55.0258 59.4158 30.8753
-47.9199 59.4158 14.9289
63.9137 59.4158 32.8391
-27.7706 59.4158 -2.6650
-50.2613 59.4158 -10.1324
47.4446 59.4158 -25.3598
-52.8743 59.4158 33.9990
6.2782 59.4158 -21.3028
-62.6423 59.4158 31.5999
51.2286 59.4158 27.5341
-43.0585 59.4158 12.3962
-19.0714 59.4158 -37.8478
47.9883 59.4158 28.8227
-5.5780 59.4158 -14.9008
25.0814 59.4158 -8.4346
5.2430 59.4158 -8.5641
54.9554 59.4158 17.7522
12.1208 59.4158 -28.5000
2.9640 59.4158 1.2033
55.8913 59.4158 -13.7704
64.6462 59.4158 28.5863
0.9271 59.4158 -22.4466
-29.0937 59.4158 14.9773
40.3199 59.4158 -9.7796
12.3516 59.4158 5.5121
-72.3065 59.4158 -39.5104
48.1744 59.4158 -3.4909
69.1796 59.4158 36.6211
-40.7448 59.4158 -34.0636
-37.5692 59.4158 31.4588
62.9403 59.4158 23.8839
44.5256 59.4158 24.7825
48.8037 59.4158 -33.0662
-5.6631 59.4158 -0.6244
-45.3959 59.4158 -28.3627
42.8358 59.4158 18.0827
49.2804 59.4158 28.2535
-32.0789 59.4158 -2.3086
1.4377 59.4158 5.3910
46.3625 59.4158 32.6377
-45.4818 59.4158 17.9814
-8.6139 59.4158 -22.6214
39.4361 59.4158 -9.7380
-33.0425 59.4158 -36.7976
19.8970 59.4158 3.1625
66.9065 59.4158 0.1595
50.4788 59.4158 -29.6333
-3.0034 59.4158 13.6804
-42.8135 59.4158 33.7219
73.0704 59.4158 11.0648
12.1255 59.4158 -38.8115
-48.8574 59.4158 -31.2296
25.6282 59.4158 -38.6407
4.2569 59.4158 -37.3595
72.5156 59.4158 34.7481
-5.1605 59.4158 -34.1684
-13.1769 59.4158 37.0207
42.9093 59.4158 -39.6423
-45.6591 59.4158 -37.4484
69.4339 59.4158 -9.5137
65.5610 59.4158 36.5676
29.9712 59.4158 32.5591
-11.3471 59.4158 -30.2547
14.0861 59.4158 -36.9239
-41.8449 59.4158 -22.1784
-11.0768 59.4158 31.7761
-56.5678 59.4158 -30.7595
-52.5420 59.4158 -27.3085
-54.0479 59.4158 -21.7417
55.8829 59.4158 26.1190
-66.2897 59.4158 18.6706
-68.1955 59.4158 -32.5081
69.9091 59.4158 -29.4499
3.4512 59.4158 -23.9984
66.1136 59.4158 -30.1847
-15.6930 59.4158 -5.0498
-62.8442 59.4158 32.3710
49.7983 59.4158 38.9148
14.7283 59.4158 25.3184
-67.8587 59.4158 4.4609
-64.7081 59.4158 -32.9006
32.2986 59.4158 -20.8083
51.3912 59.4158 -23.1095
52.1622 59.4158 21.2208
20.2239 59.4158 36.0636
-63.1030 59.4158 -5.9689
58.9548 59.4158 -7.7715
18.8174 59.4158 -28.0396
-4.1721 59.4158 -24.6887
64.2703 59.4158 -4.2222
-27.7081 59.4158 38.4995
68.4557 59.4158 28.7355
-26.1288 59.4158 -15.2254
69.5609 59.4158 16.5519
28.2401 59.4158 -3.1404
-47.0695 59.4158 -38.8390
40.4514 59.4158 -20.4957
18.9080 59.4158 1.5858
-58.8081 59.4158 -23.4722
3.7084 59.4158 22.4229
-32.5609 59.4158 33.3526
56.9738 59.4158 -33.3393
38.0711 59.4158 38.0555
35.9062 59.4158 5.0668
-53.4236 59.4158 28.3581
73.1488 59.4158 4.0154
-20.2770 59.4158 -0.3513
-57.3927 -59.4158 19.1660
-29.9402 -59.4158 -25.8005
-2.2619 -59.4158 20.8545
-53.4607 -59.4158 27.2494
68.3278 -59.4158 33.3403
1.4398 -59.4158 0.0235
-46.3546 -59.4158 33.5190
44.3373 -59.4158 21.3913
-32.0620 -59.4158 -18.9937
8.4553 -59.4158 20.3330
-71.7394 -59.4158 35.3674
-15.4919 -59.4158 2.1036
-57.3536 -59.4158 -20.2585
54.2364 -59.4158 15.0178
-61.7420 -59.4158 36.9107
-4.8633 -59.4158 21.4728
37.7270 -59.4158 -21.9289
-58.6386 -59.4158 24.0098
-60.5734 -59.4158 -33.4656
-57.2670 -59.4158 8.5238
-56.9339 -59.4158 37.4245
-4.8071 -59.4158 15.6875
40.0433 -59.4158 35.9439
38.1972 -59.4158 -2.9336
6.1415 -59.4158 -35.5281
33.9441 -59.4158 -13.0123
35.5272 -59.4158 12.1201
-36.9051 -59.4158 36.9914
-35.6657 -59.4158 34.5132
47.2693 -59.4158 -36.2246
-8.4935 -59.4158 -21.5742
-47.3247 -59.4158 7.7047
33.7188 -59.4158 -8.7760
-64.6603 -59.4158 -24.9245
-14.1002 -59.4158 11.9723
-57.6465 -59.4158 -5.1960
-13.0622 -59.4158 -13.2173
-53.7145 -59.4158 -5.7377
-28.0420 -59.4158 32.9794
-49.4202 -59.4158 -14.9322
-69.1529 -59.4158 -5.0926
-62.8220 -59.4158 2.7248
3.1618 -59.4158 19.1164
59.7079 -59.4158 3.2331
-48.9390 -59.4158 37.0036
56.8224 -59.4158 -36.3496
7.3664 -59.4158 19.9770
-69.5359 -59.4158 13.9082
63.9843 -59.4158 36.5013
-16.5791 -59.4158 1.7992
-4.4257 -59.4158 2.8859
21.4746 -59.4158 -25.8250
-52.0614 -59.4158 -16.3627
6.2286 -59.4158 -37.6340
37.1617 -59.4158 9.4081
30.0161 -59.4158 9.8621
21.1388 -59.4158 -23.0887
47.9689 -59.4158 -30.7137
-51.5117 -59.4158 -3.9013
11.5505 -59.4158 -17.6909
16.7872 -59.4158 -8.6144
47.5094 -59.4158 -1.2189
8.3802 -59.4158 -10.1175
36.8906 -59.4158 4.4007
-48.8924 -59.4158 0.0085
-1.0580 -59.4158 13.3476
-30.2547 -59.4158 -0.3465
41.4749 -59.4158 -17.5131
-5.6810 -59.4158 -20.0381
-9.1685 -59.4158 -18.0258
63.6919 -59.4158 32.5012
9.2977 -59.4158 39.2501
56.9664 -59.4158 22.6199
-32.8377 -59.4158 18.5316
-39.9750 -59.4158 -19.3497
-8.4027 -59.4158 6.2085
58.5153 -59.4158 -25.6129
0.2545 -59.4158 2.0472
28.1542 -59.4158 -16.4377
-27.7244 -59.4158 -22.6220
60.7381 -59.4158 32.7966
59.0390 -59.4158 -7.1510
-3.7596 -59.4158 -35.4593
30.0784 -59.4158 39.5602
-22.5528 -59.4158 -8.6183
-63.2357 -59.4158 -23.0580
57.1732 -59.4158 23.0913
34.1268 -59.4158 14.7409
-29.3425 -59.4158 2.0945
8.2836 -59.4158 -1.5525
47.7825 -59.4158 -15.0670
-26.5552 -59.4158 -32.8246
-53.7549 -59.4158 -26.3739
-37.4699 -59.4158 -11.2036
26.8039 -59.4158 -23.8137
59.1401 -59.4158 -22.3199
6.3070 -59.4158 -27.7125
-61.3282 -59.4158 -12.4930
16.3627 -59.4158 -10.0779
-19.0089 -59.4158 35.5871
-0.0029 -59.4158 24.5697
17.4964 -59.4158 -28.6238
23.0512 -59.4158 -17.5087
59.3421 -59.4158 -38.3084
44.4845 -59.4158 16.1436
-18.9048 -59.4158 -1.9481
-37.9828 -59.4158 27.4115
-2.4539 -59.4158 15.4399
25.5046 -59.4158 -37.7079
65.7175 -59.4158 21.9653
-41.0559 -59.4158 -20.0984
11.1562 -59.4158 -37.1670
44.8679 -59.4158 -17.3530
71.3839 -59.4158 -0.6585
-36.3083 -59.4158 -3.3674
51.1138 -59.4158 -9.2082
43.3676 -59.4158 5.8346
-5.2595 -59.4158 17.4839
1.6296 -59.4158 -32.8524
-46.7038 -59.4158 -24.8847
11.0556 -59.4158 -28.3636
7.5543 -59.4158 -12.0009
39.2415 -59.4158 -18.1374
13.8498 -59.4158 -16.1324
-64.1365 -59.4158 31.1794
-71.8847 -59.4158 21.1958
-5.1299 -59.4158 -10.6178
22.6305 -59.4158 -35.5836
39.1711 -59.4158 -25.8482
19.6224 -59.4158 6.4073
1.0138 -59.4158 35.3164
-23.7123 -59.4158 10.7919
48.7513 -59.4158 -29.0612
46.8459 -59.4158 6.7570
-12.6640 -59.4158 4.6197
-38.7312 -59.4158 4.5383
34.6627 -59.4158 6.7620
42.3738 -59.4158 -28.7600
-7.8859 -59.4158 -27.3489
-19.1709 -59.4158 24.8863
71.1086 -59.4158 14.2597
-22.2436 -59.4158 38.1670
38.7038 -59.4158 34.1905
-58.6475 -59.4158 -11.1226
24.1227 -59.4158 -36.0984
61.6692 -59.4158 -14.6514
-19.4129 -59.4158 37.9291
-2.5344 -59.4158 22.5490
42.6546 -59.4158 22.8625
42.9156 -59.4158 -23.9763
41.6534 -59.4158 -33.9439
-35.9339 -59.4158 23.7711
8.7854 -59.4158 -6.3354
-15.2268 -59.4158 -31.1421
17.3998 -59.4158 12.0834
-39.3654 -59.4158 25.8257
-26.9228 -59.4158 17.4649
22.6176 -59.4158 3.3262
23.5883 -59.4158 10.2923
-15.5568 -59.4158 -16.4511
57.2069 -59.4158 -28.9341
27.7076 -59.4158 -33.2756
-15.9139 -59.4158 33.9266
-37.8887 -59.4158 -1.5348
-27.3463 -59.4158 24.2880
-54.0215 -59.4158 -1.6524
-51.1236 -59.4158 -9.7176
-70.8041 -59.4158 -13.2246
64.9835 -59.4158 0.8858
-38.1242 -59.4158 -23.3414
24.7474 -59.4158 -0.1500
-56.2509 -5.5001 39.7127
6.6481 -16.3805 39.7127
55.1172 11.5260 39.7127
-57.2674 42.9232 39.7127
-67.8914 53.7590 39.7127
-12.5800 36.1046 39.7127
-24.4095 50.4077 39.7127
67.5012 43.2108 39.7127
-54.0792 36.0214 39.7127
49.3456 17.0733 39.7127
17.5694 -1.0002 39.7127
28.1461 53.6611 39.7127
-38.4605 -55.6987 39.7127
-58.3381 47.5037 39.7127
33.9539 -45.6501 39.7127
-35.1999 52.1589 39.7127
-50.1325 -54.3593 39.7127
65.7904 -10.4743 39.7127
-44.9733 -45.8447 39.7127
6.1125 25.7335 39.7127
-69.4181 -23.8089 39.7127
38.8963 32.5701 39.7127
-73.0563 33.9425 39.7127
7.0736 5.0229 39.7127
-68.2371 -12.0479 39.7127
-51.3437 9.2740 39.7127
-18.1462 -48.0805 39.7127
61.5642 32.3353 39.7127
67.3004 50.1216 39.7127
-70.3365 3.3546 39.7127
61.2928 10.5690 39.7127
-26.9424 -30.9617 39.7127
-65.3282 27.4439 39.7127
-37.1570 30.4590 39.7127
-13.4228 21.5223 39.7127
-43.9483 53.9399 39.7127
-58.4128 -56.4605 39.7127
-61.9038 22.5179 39.7127
-18.0744 -0.6110 39.7127
46.3010 -3.0589 39.7127
25.0410 -54.8794 39.7127
-22.6960 -19.2665 39.7127
46.4952 -43.0481 39.7127
-22.9550 -56.8923 39.7127
-8.8168 16.5210 39.7127
0.1383 0.9381 39.7127
-18.9561 -20.2534 39.7127
-29.8043 -46.1689 39.7127
-45.4651 46.8750 39.7127
12.9848 -57.7128 39.7127
69.7352 28.4948 39.7127
-1.3409 21.5803 39.7127
-37.3323 -16.9151 39.7127
52.8944 35.1150 39.7127
68.5768 17.7375 39.7127
-56.8222 -48.7096 39.7127
-19.4194 -0.6600 39.7127
-70.4736 13.3612 39.7127
34.3294 -40.7300 39.7127
-22.6294 24.3700 39.7127
-3.7900 23.1067 39.7127
31.1325 -52.2667 39.7127
64.5613 31.8167 39.7127
-50.2417 49.6227 39.7127
-15.0474 -23.4719 39.7127
70.7917 -6.2960 39.7127
26.6415 40.8533 39.7127
10.9904 -23.1394 39.7127
-68.2176 -3.0039 39.7127
0.8127 23.8051 39.7127
65.5103 20.2391 39.7127
27.5755 5.5344 39.7127
68.5400 50.9467 39.7127
16.4318 34.8874 39.7127
-26.6768 -37.4657 39.7127
-26.3911 35.0297 39.7127
48.4993 37.0990 39.7127
10.0111 46.8115 39.7127
-27.9912 16.2919 39.7127
23.6624 -54.0198 39.7127
12.5754 -43.1328 39.7127
24.3695 21.7519 39.7127
70.9995 55.4293 39.7127
-52.8364 44.3263 39.7127
2.3645 17.9038 39.7127
17.9337 35.0240 39.7127
-39.4030 -28.3163 39.7127
26.4093 -55.9204 39.7127
39.7168 -16.2489 39.7127
-21.2191 -27.9841 39.7127
-46.6152 47.8752 39.7127
-34.6670 31.3484 39.7127
70.7241 -14.5543 39.7127
16.4659 38.9104 39.7127
66.2371 -45.0782 39.7127
-24.0732 43.9343 39.7127
24.2315 51.5601 39.7127
42.2630 -54.3893 39.7127
17.2705 -37.2998 39.7127
-44.3949 -7.6821 39.7127
12.9540 6.7563 39.7127
-8.7056 -44.2908 39.7127
-36.6087 44.7333 39.7127
43.6250 -20.5892 39.7127
7.4691 4.6471 39.7127
56.5951 17.9939 39.7127
35.1204 35.3431 39.7127
62.4663 -36.0623 39.7127
68.6463 -19.4547 39.7127
-15.4357 -26.5564 39.7127
-8.1071 -42.0071 39.7127
63.9718 -22.7997 39.7127
45.8106 47.3887 39.7127
41.0016 -18.2216 39.7127
-49.2646 58.2311 39.7127
62.1376 -12.0613 39.7127
-55.8108 4.6230 39.7127
-11.8913 -55.5670 39.7127
15.5945 -43.5434 39.7127
-63.4724 -31.2604 39.7127
23.5667 -17.4476 39.7127
51.9152 -31.7986 39.7127
-4.6743 8.6331 39.7127
-61.3684 -40.2695 39.7127
-3.0419 27.0409 39.7127
-37.1659 34.2167 39.7127
-66.7466 46.5513 39.7127
-26.2661 57.6442 39.7127
18.4624 -9.3792 39.7127
65.0282 28.1278 39.7127
-23.2925 31.4404 39.7127
14.4763 16.9751 39.7127
-41.0649 44.6492 39.7127
-69.8684 -8.1945 39.7127
48.6158 14.3093 39.7127
72.9974 -28.5095 39.7127
-47.0965 38.9232 39.7127
-57.6325 9.6572 39.7127
53.4749 16.1654 39.7127
45.6002 12.8214 39.7127
45.9478 32.0848 39.7127
28.1081 23.3370 39.7127
31.7468 -36.5063 39.7127
-70.7775 -47.6456 39.7127
11.1621 -45.2132 39.7127
33.8545 -41.7889 39.7127
-17.3495 28.2643 39.7127
-42.5130 13.2665 39.7127
16.7191 10.1316 39.7127
-53.1891 -51.0159 39.7127
65.4027 -21.0623 39.7127
2.9830 -36.8395 39.7127
55.9605 26.8143 39.7127
-5.5119 54.3781 39.7127
23.0426 -7.4790 39.7127
-50.8527 -39.5361 39.7127
4.6923 48.7496 39.7127
61.5787 -7.8937 39.7127
27.8785 -32.7391 39.7127
-52.0676 -41.3697 39.7127
8.0885 -46.6137 39.7127
-69.1114 -36.6410 39.7127
-44.1921 46.8949 39.7127
16.1794 -33.7072 39.7127
-47.8021 12.2614 39.7127
-16.4593 -37.4807 39.7127
23.8703 -46.9389 39.7127
1.1327 -20.4427 39.7127
7.9039 8.4890 39.7127
8.7436 -58.7883 39.7127
65.6966 23.0416 -39.7127
-45.9807 -26.8869 -39.7127
49.0611 -15.6374 -39.7127
49.1449 11.0880 -39.7127
26.7614 -19.8015 -39.7127
-57.1220 -39.4183 -39.7127
15.4498 21.1422 -39.7127
-20.4145 -10.2664 -39.7127
47.1235 -13.8538 -39.7127
36.5618 58.1519 -39.7127
40.2154 -40.4157 -39.7127
37.7088 -19.4569 -39.7127
41.9383 58.3123 -39.7127
-17.2593 -42.7587 -39.7127
-38.1247 34.9793 -39.7127
4.4834 0.2582 -39.7127
-36.5221 43.4078 -39.7127
-67.7480 -4.1908 -39.7127
24.6791 4.1763 -39.7127
-44.3598 42.8683 -39.7127
-59.4325 10.7864 -39.7127
-3.9024 53.8407 -39.7127
72.5859 -22.6901 -39.7127
30.9376 -39.4209 -39.7127
-54.1148 48.8859 -39.7127
8.6770 57.6459 -39.7127
-44.8130 -55.2748 -39.7127
0.7924 33.3888 -39.7127
-39.2989 17.8102 -39.7127
37.9588 -35.3263 -39.7127
68.5987 -56.3098 -39.7127
28.5997 -34.6417 -39.7127
-21.1774 -51.4555 -39.7127
-29.2110 13.6009 -39.7127
9.5608 57.3835 -39.7127
-3.4058 -7.2204 -39.7127
49.6914 -27.6577 -39.7127
21.0375 -42.0061 -39.7127
47.5749 -43.1195 -39.7127
8.7992 58.8584 -39.7127
-63.0124 -30.1327 -39.7127
10.0040 21.7764 -39.7127
-10.4147 -42.3539 -39.7127
-28.6013 -31.9516 -39.7127
53.1474 -22.7990 -39.7127
-25.1418 -48.2012 -39.7127
50.0493 -24.3319 -39.7127
-14.0492 43.7553 -39.7127
43.6708 -37.4595 -39.7127
-10.5808 -23.4086 -39.7127
-65.1249 57.9940 -39.7127
-16.9657 -11.3267 -39.7127
-50.8207 -42.3147 -39.7127
-49.3561 -27.5935 -39.7127
-55.2289 4.7659 -39.7127
52.6960 -57.8805 -39.7127
60.7248 -18.3592 -39.7127
33.7670 21.0363 -39.7127
-28.7887 -16.0040 -39.7127
70.0317 -51.2136 -39.7127
33.0285 -33.7091 -39.7127
-66.8685 2.0684 -39.7127
-40.4294 -38.2973 -39.7127
-24.4000 -54.1990 -39.7127
-63.3716 -42.6847 -39.7127
32.7033 24.0668 -39.7127
-2.4306 2.4557 -39.7127
-25.2486 -33.5381 -39.7127
-50.3716 19.8099 -39.7127
-40.8943 -54.3795 -39.7127
27.0637 42.3581 -39.7127
-71.1652 39.0557 -39.7127
-7.5639 -7.0704 -39.7127
-54.3442 -16.9383 -39.7127
-11.9926 -5.8567 -39.7127
2.0262 -18.0698 -39.7127
-18.4639 -25.6984 -39.7127
47.1421 -19.2826 -39.7127
-59.7031 -27.9726 -39.7127
62.5311 -39.5103 -39.7127
-4.3798 27.3557 -39.7127
-5.1258 18.7800 -39.7127
-17.8103 -36.6560 -39.7127
-63.2841 1.8508 -39.7127
33.1371 -8.2403 -39.7127
50.1239 4.0376 -39.7127
23.7720 26.9348 -39.7127
49.6253 49.8639 -39.7127
4.5808 44.5249 -39.7127
5.1880 46.0367 -39.7127
71.9769 -52.3909 -39.7127
5.2030 10.5773 -39.7127
12.6136 -18.0672 -39.7127
29.0082 7.0359 -39.7127
3.9779 38.6896 -39.7127
7.4908 18.9802 -39.7127
-72.2714 14.2468 -39.7127
44.0217 -9.8274 -39.7127
-39.2239 35.9743 -39.7127
-42.7325 32.0801 -39.7127
19.1465 -1.8908 -39.7127
34.4237 -30.4490 -39.7127
1.9303 57.3696 -39.7127
-65.7607 -17.8130 -39.7127
-59.1485 -2.3582 -39.7127
50.7742 49.0474 -39.7127
-72.8385 36.4549 -39.7127
-21.1436 -58.4246 -39.7127
55.6408 30.5418 -39.7127
-24.9394 9.7826 -39.7127
-47.2512 -23.1855 -39.7127
34.1003 -41.9797 -39.7127
62.8342 45.5680 -39.7127
-46.6496 23.8060 -39.7127
4.1243 17.2222 -39.7127
-70.1038 2.9740 -39.7127
62.9206 43.8352 -39.7127
-22.7004 -28.3198 -39.7127
67.4500 2.0139 -39.7127
-24.4245 -18.5235 -39.7127
57.4837 48.0403 -39.7127
-7.8898 -36.2547 -39.7127
-9.9340 55.6104 -39.7127
-64.8089 6.5350 -39.7127
70.5813 -37.6195 -39.7127
19.5082 -7.6991 -39.7127
70.8498 -10.9685 -39.7127
42.0601 -54.4739 -39.7127
-51.7037 -51.3187 -39.7127
31.8206 45.1380 -39.7127
-28.2274 -43.6106 -39.7127
45.8572 -42.3255 -39.7127
0.0014 -25.6575 -39.7127
25.9230 29.4457 -39.7127
-21.5691 -2.1074 -39.7127
-47.0132 -7.7636 -39.7127
-11.6485 30.0142 -39.7127
13.4685 -46.6378 -39.7127
11.1819 -26.0222 -39.7127
66.7647 8.8034 -39.7127
-58.9457 34.4291 -39.7127
10.6527 39.3464 -39.7127
33.0158 46.5179 -39.7127
61.1540 -7.3004 -39.7127
-38.1071 23.9257 -39.7127
-11.8871 18.3507 -39.7127
10.0701 -34.6971 -39.7127
28.9444 32.8359 -39.7127
-6.4812 30.1624 -39.7127
1.2015 -6.2177 -39.7127
-25.7440 -12.5415 -39.7127
-2.5305 17.8990 -39.7127
-67.7287 -28.6019 -39.7127
-60.2822 54.3134 -39.7127
-53.0192 18.1481 -39.7127
41.3365 -1.3112 -39.7127
-27.3337 -50.3919 -39.7127
-41.5529 44.8903 -39.7127
-23.6339 -38.7317 -39.7127
64.4335 -28.6627 -39.7127
-38.8511 37.2704 -39.7127
-60.2076 44.8098 -39.7127
-69.5337 11.0111 -39.7127
56.5618 -8.8947 -39.7127
12.7024 -42.7218 -39.7127
67.7582 30.2766 -39.7127
21.7174 46.7943 -39.7127
58.5169 -16.7543 -39.7127
5.7967 -35.6356 -39.7127
37.4858 -43.8135 -39.7127
