ply
format ascii 1.0
element vertex 1024
property float x
property float y
property float z
end_header
46.4474 -36.3049 12.2322
46.4474 28.6907 -23.7126
46.4474 48.5166 4.3375
46.4474 -17.9664 1.7357
46.4474 33.2108 0.6895
46.4474 33.2694 -17.9491
46.4474 43.6229 -2.4457
46.4474 12.4539 14.0783
46.4474 37.4077 3.3295
46.4474 37.5467 -3.9333
46.4474 2.7957 15.1782
46.4474 -16.9757 17.4048
46.4474 -25.0257 -6.4429
46.4474 16.5947 24.4956
46.4474 13.7147 13.7905
46.4474 -8.8177 18.5601
46.4474 -2.4592 9.5166
46.4474 -7.4927 -6.4419
46.4474 -30.4990 4.2875
46.4474 43.0840 -20.4860
46.4474 5.0446 2.4465
46.4474 52.3930 -13.3708
46.4474 19.7379 -18.7866
46.4474 7.9876 3.3217
46.4474 -28.1217 -9.4343
46.4474 27.9497 18.9450
46.4474 -9.4552 -10.1205
46.4474 34.5699 -17.5221
46.4474 50.4415 22.4953
46.4474 -15.8890 -14.9913
46.4474 42.3025 -18.1872
46.4474 -14.5209 19.9236
46.4474 -21.3377 -19.9178
46.4474 -30.9968 4.5534
46.4474 36.7028 -4.0888
46.4474 52.5829 -13.0878
46.4474 43.5912 -7.1696
46.4474 -2.1613 -3.4001
46.4474 9.8406 -4.4958
46.4474 -8.7987 4.7741
46.4474 -52.9909 -19.5151
46.4474 4.7077 -9.9136
46.4474 -25.5133 25.6233
46.4474 -33.5854 -19.3955
46.4474 11.0778 -6.7515
46.4474 -16.8349 -19.2757
46.4474 -16.7034 1.5294
46.4474 -1.0013 22.7595
46.4474 31.4376 -25.7281
46.4474 15.7592 16.8274
46.4474 45.7434 1.1387
46.4474 22.7639 16.0867
46.4474 12.6964 -0.2666
46.4474 35.5134 -24.0966
46.4474 -50.0617 18.1963
46.4474 -16.1880 7.5224
46.4474 -47.9470 21.4116
46.4474 -49.5232 21.5097
46.4474 25.5531 -18.7400
46.4474 -43.9898 23.3419
46.4474 48.1311 -10.2677
46.4474 -1.0355 6.3485
46.4474 1.3200 21.3814
46.4474 -10.6245 -7.7793
46.4474 -28.2578 8.0153
46.4474 -30.6330 23.0900
46.4474 38.1625 -0.8034
46.4474 31.9516 11.6421
46.4474 50.6570 -25.5744
46.4474 20.4518 12.8162
46.4474 -48.1807 -16.7245
46.4474 16.6341 16.9685
46.4474 22.6262 -7.9310
46.4474 9.1709 7.3670
46.4474 1.3547 -6.1078
46.4474 34.5563 22.9374
46.4474 -12.4579 10.4441
46.4474 46.9012 14.0221
46.4474 -33.7546 17.2640
46.4474 -45.5433 0.1569
46.4474 3.4454 18.9158
46.4474 -29.5602 -16.3301
46.4474 -54.8188 -14.8906
46.4474 -50.5029 -8.0348
46.4474 -32.7786 9.9537
46.4474 -18.3426 17.8901
46.4474 3.8947 -6.3796
46.4474 35.3770 -14.0278
46.4474 -18.4720 -9.0235
46.4474 -7.4535 -4.7861
46.4474 43.9463 -1.9696
46.4474 -23.1632 12.7517
46.4474 53.0960 -22.9595
46.4474 -0.2555 1.3569
46.4474 -38.9294 -5.5391
46.4474 7.8302 17.3789
46.4474 32.1436 -8.1230
46.4474 -27.5181 6.1756
46.4474 18.0068 -17.6303
46.4474 -54.3587 -22.9056
46.4474 33.8864 21.7967
46.4474 20.6329 -13.7451
46.4474 -28.5786 20.6934
46.4474 -7.9088 22.6104
46.4474 20.0017 -3.3162
46.4474 48.2415 -15.3159
46.4474 -53.5284 -14.9443
46.4474 18.8746 22.9825
46.4474 -22.2313 -20.8360
46.4474 -27.1139 -21.4659
46.4474 -1.8590 8.8450
46.4474 21.7608 -19.8008
46.4474 40.7772 -3.9322
46.4474 -8.7073 -22.2028
46.4474 36.7712 0.2398
46.4474 -20.0766 -6.3751
46.4474 10.8519 -3.3443
46.4474 1.7456 -0.5996
46.4474 -53.7333 9.2436
46.4474 -11.9219 8.0804
46.4474 -15.5524 19.8350
46.4474 29.3782 2.7488
46.4474 -8.7722 -7.5324
46.4474 -18.6679 12.5785
46.4474 -37.7581 15.8155
46.4474 49.4237 9.7990
46.4474 -19.1731 -23.1099
46.4474 -22.7105 -24.3768
46.4474 -23.9913 -15.5162
46.4474 38.4128 -16.3155
46.4474 20.2100 -19.0299
46.4474 -0.2531 19.8796
46.4474 25.5257 1.8894
46.4474 -41.6851 10.5788
46.4474 47.3458 -13.8527
46.4474 19.1458 5.2416
46.4474 -17.2377 18.7825
46.4474 -25.4375 12.9370
46.4474 22.5099 0.8528
46.4474 32.1135 22.7522
46.4474 -6.5811 -20.8700
46.4474 35.7157 -3.8351
46.4474 -50.2869 -8.3493
46.4474 37.5459 -15.5383
46.4474 14.9728 -21.9872
46.4474 19.3114 -5.7313
46.4474 44.3822 21.6773
46.4474 28.4451 15.3012
46.4474 25.0056 -14.5886
46.4474 19.0681 17.7073
46.4474 34.0337 22.9772
46.4474 52.1856 -6.4062
46.4474 -50.2525 -22.5158
46.4474 30.7659 14.2176
46.4474 37.2932 1.0146
46.4474 -20.8343 -21.9326
46.4474 31.0237 -13.4949
46.4474 16.8087 -1.3728
46.4474 11.1429 -6.8239
46.4474 18.3252 14.2855
46.4474 21.9390 21.7048
46.4474 -0.4824 18.7842
46.4474 -30.3603 0.7352
46.4474 -47.0803 4.0464
46.4474 -20.6530 22.1673
46.4474 50.9252 -22.3048
46.4474 -27.6157 -1.2227
46.4474 -21.1925 -25.1496
46.4474 -40.0241 8.9400
46.4474 34.5278 4.8192
46.4474 6.9627 -24.4835
-46.4474 -20.8142 -0.5833
-46.4474 -22.2975 -22.4830
-46.4474 7.3041 -21.9219
-46.4474 -36.1895 16.1703
-46.4474 -19.1365 14.4950
-46.4474 36.9574 5.6637
-46.4474 8.9248 24.5999
-46.4474 -49.6698 -4.3099
-46.4474 33.1534 0.3733
-46.4474 -15.4035 -2.6461
-46.4474 -17.9269 -5.4615
-46.4474 20.0671 -16.1604
-46.4474 -36.4520 -10.4074
-46.4474 -9.6086 -17.2489
-46.4474 -43.6309 -14.3258
-46.4474 -29.9597 10.1335
-46.4474 23.8656 -19.0845
-46.4474 -39.7005 -8.9925
-46.4474 -8.0493 0.1376
-46.4474 2.3117 16.9022
-46.4474 -48.7745 -11.1441
-46.4474 -5.0778 -3.8446
-46.4474 53.9287 -25.4439
-46.4474 50.6966 -8.1473
-46.4474 -12.6675 22.5351
-46.4474 20.9532 0.3275
-46.4474 -25.0371 4.1648
-46.4474 -8.8205 2.1689
-46.4474 47.3978 -0.2253
-46.4474 6.5711 -1.8754
-46.4474 -32.7538 -14.9075
-46.4474 -41.9350 1.8927
-46.4474 26.8705 10.2860
-46.4474 21.5114 -14.7296
-46.4474 -54.1694 -17.1272
-46.4474 -22.8165 -1.9030
-46.4474 10.9555 5.2648
-46.4474 7.1352 -17.9481
-46.4474 43.3895 21.1928
-46.4474 -18.4840 0.3670
-46.4474 -1.2075 -20.1176
-46.4474 -54.1399 -13.3095
-46.4474 -14.8746 4.5786
-46.4474 45.0938 19.5777
-46.4474 -10.2807 11.5697
-46.4474 28.0709 -18.6296
-46.4474 54.8053 -21.9114
-46.4474 -38.7072 -15.4786
-46.4474 -37.8200 -21.8028
-46.4474 -43.7645 4.2691
-46.4474 46.6184 5.9284
-46.4474 -7.1250 15.9995
-46.4474 -53.1407 -21.6910
-46.4474 -12.6207 -0.7989
-46.4474 -32.9179 -20.2626
-46.4474 35.4977 -10.4564
-46.4474 -38.5192 1.3607
-46.4474 7.9788 -11.7029
-46.4474 -51.4950 22.0918
-46.4474 1.9603 -16.7679
-46.4474 39.1210 -17.7291
-46.4474 33.8298 -18.6576
-46.4474 -3.3204 19.6654
-46.4474 -3.2861 -25.7088
-46.4474 9.7800 -2.0555
-46.4474 4.9707 24.2451
-46.4474 -45.4827 -18.4460
-46.4474 19.0908 19.4716
-46.4474 29.8137 -14.7092
-46.4474 29.0925 -13.1379
-46.4474 28.4483 17.7524
-46.4474 -7.2930 19.4289
-46.4474 -31.4263 -4.5368
-46.4474 -28.8347 -22.9174
-46.4474 12.4160 -19.1322
-46.4474 8.2806 18.1775
-46.4474 -5.1944 3.5648
-46.4474 -33.7791 -18.0094
-46.4474 -13.7231 15.0889
-46.4474 23.7328 23.8649
-46.4474 -15.1565 -2.0054
-46.4474 36.4162 15.1054
-46.4474 20.3890 13.1309
-46.4474 -34.8865 -24.8888
-46.4474 -28.1934 -18.8243
-46.4474 -21.3215 -7.1776
-46.4474 0.1964 -10.1735
-46.4474 -12.2221 -11.6890
-46.4474 42.7370 23.0459
-46.4474 5.0653 25.2625
-46.4474 44.1932 -2.6685
-46.4474 12.5730 -2.5346
-46.4474 -45.1235 20.2590
-46.4474 21.8038 -13.7593
-46.4474 11.6319 -11.8081
-46.4474 -8.1898 -21.9441
-46.4474 25.5199 -10.1220
-46.4474 14.1972 -24.8938
-46.4474 54.1625 13.4039
-46.4474 36.1334 -4.4836
-46.4474 41.5912 -20.5515
-46.4474 -52.0257 -18.7644
-46.4474 10.7065 6.7566
-46.4474 -24.1527 -3.7180
-46.4474 -6.5753 20.1527
-46.4474 36.8636 -19.2938
-46.4474 5.8993 -12.8064
-46.4474 -7.9479 -25.0067
-46.4474 51.5292 5.3464
-46.4474 -25.4879 -1.8144
-46.4474 -6.3265 -16.6960
-46.4474 11.0980 17.3722
-46.4474 -42.9762 4.2721
-46.4474 -29.6811 0.0312
-46.4474 -44.6732 10.5715
-46.4474 -16.8075 14.5692
-46.4474 30.3265 -0.1473
-46.4474 18.0461 12.0528
-46.4474 -7.2757 -9.6223
-46.4474 32.2456 -2.8195
-46.4474 8.4482 -16.9137
-46.4474 44.4640 -24.1130
-46.4474 -17.9537 20.0353
-46.4474 -37.1571 10.6701
-46.4474 -54.7830 -8.9254
-46.4474 25.1989 6.0974
-46.4474 -36.1546 -6.8827
-46.4474 -0.7606 8.9832
-46.4474 24.9356 -21.2782
-46.4474 22.4471 11.5156
-46.4474 -25.1866 -21.2638
-46.4474 35.7398 11.8690
-46.4474 -7.8479 -23.9615
-46.4474 -50.7898 24.8311
-46.4474 -41.4221 25.1061
-46.4474 24.6752 -11.6679
-46.4474 46.0239 -23.5675
-46.4474 -13.3396 4.7855
-46.4474 9.5175 13.5303
-46.4474 -51.0729 1.9820
-46.4474 39.8806 -15.9753
-46.4474 -18.8456 -5.9020
-46.4474 -21.5258 3.3323
-46.4474 9.8331 -0.2050
-46.4474 -6.0771 -12.5776
-46.4474 -1.8320 -4.4962
-46.4474 -6.6458 -25.3435
-46.4474 26.8717 24.4435
-46.4474 -36.8275 4.6549
-46.4474 -50.8776 19.9083
-46.4474 2.7871 10.8963
-46.4474 2.4249 7.3821
-46.4474 10.4798 0.6056
-46.4474 52.1733 25.0692
-46.4474 20.5776 8.7203
-46.4474 -0.9089 -5.6971
-46.4474 -6.5402 11.0483
-46.4474 -40.3087 12.6671
-46.4474 5.2474 -14.0251
-46.4474 4.6074 17.7209
-46.4474 27.1118 20.7270
-46.4474 22.2929 16.2752
-46.4474 8.3201 -18.5941
-46.4474 -54.1957 -10.1420
-46.4474 -23.9893 -4.3379
-46.4474 15.5819 9.6668
-46.4474 -49.9945 2.2861
-46.4474 26.9152 21.8083
-46.4474 -26.8394 -10.3644
-46.4474 -32.9917 -16.5458
-46.4474 -47.7622 -16.1263
-18.9364 54.8623 25.0689
28.6656 54.8623 17.2902
-36.4021 54.8623 -1.5146
-39.8067 54.8623 -5.1136
-26.2291 54.8623 1.1632
43.8093 54.8623 22.6517
25.8308 54.8623 4.8725
-27.1597 54.8623 25.2405
42.0184 54.8623 21.9887
22.6206 54.8623 -24.5511
26.6435 54.8623 21.0984
-14.1581 54.8623 20.8417
-15.3444 54.8623 21.6909
7.5765 54.8623 25.2867
-20.4789 54.8623 -5.9009
40.4009 54.8623 -5.6969
33.8403 54.8623 3.8994
-32.7047 54.8623 -12.3108
-32.0411 54.8623 7.8988
-4.5237 54.8623 12.5585
-33.3610 54.8623 15.9504
-25.2773 54.8623 -4.1284
1.2873 54.8623 5.0752
-45.0244 54.8623 -8.3212
0.0912 54.8623 10.9833
-41.2484 54.8623 21.1055
32.6073 54.8623 7.5043
16.6704 54.8623 21.5900
34.5542 54.8623 13.3591
29.0453 54.8623 -15.4113
-12.4172 54.8623 14.6958
-14.4753 54.8623 3.8683
-37.7571 54.8623 -3.3347
-4.1803 54.8623 3.9668
-30.7664 54.8623 4.6555
15.3788 54.8623 -12.6896
34.6405 54.8623 -16.6252
-15.3661 54.8623 17.9568
42.5446 54.8623 -11.1801
34.4689 54.8623 5.2118
-2.3074 54.8623 20.2469
-24.4350 54.8623 -12.4984
-3.0823 54.8623 -0.8182
-1.3106 54.8623 -3.0760
8.0907 54.8623 20.8296
-36.7753 54.8623 9.0736
-25.7672 54.8623 11.2537
45.4654 54.8623 -16.6356
-41.3277 54.8623 15.1254
-28.2978 54.8623 -20.0029
-3.7283 54.8623 -20.0069
-33.7594 54.8623 17.0900
-40.9564 54.8623 9.1560
22.5450 54.8623 -6.5672
3.4776 54.8623 25.3404
-28.9410 54.8623 12.3019
-32.4240 54.8623 -3.2081
-25.9506 54.8623 -1.1869
-8.5221 54.8623 -3.8432
7.6600 54.8623 -17.2796
-44.5263 54.8623 -17.5102
31.1240 54.8623 16.1792
30.9369 54.8623 -4.4634
22.1695 54.8623 -18.8348
-9.3455 54.8623 22.1105
30.0405 54.8623 -20.2622
-3.4284 54.8623 25.3872
-18.0817 54.8623 -13.5414
29.8957 54.8623 -9.6418
18.9816 54.8623 -7.5040
-30.1252 54.8623 12.6776
-1.6513 54.8623 -4.3154
-45.9588 54.8623 -8.3410
40.1713 54.8623 7.0366
-44.2475 54.8623 12.5671
33.5949 54.8623 -18.1770
-33.2642 54.8623 -11.4307
32.2297 54.8623 18.0094
-24.3897 54.8623 -18.4396
10.0148 54.8623 -8.3703
27.6915 54.8623 5.3789
44.8393 54.8623 11.2486
37.8827 54.8623 0.4332
18.3522 54.8623 -4.5705
11.4189 54.8623 8.6460
-11.0603 54.8623 11.0975
-4.5940 54.8623 22.3699
-38.6467 54.8623 12.6692
-43.2804 54.8623 18.6378
-40.5002 54.8623 -6.4238
-20.9666 54.8623 -19.4669
-7.7290 54.8623 1.9225
6.8242 54.8623 12.8226
-33.6208 54.8623 -23.0066
23.0235 54.8623 -1.9957
-41.5547 54.8623 9.3550
22.7866 54.8623 2.2478
-5.0878 54.8623 -15.8424
21.5804 54.8623 -8.4848
-5.9921 54.8623 6.4973
8.6779 54.8623 -1.8811
-5.3717 54.8623 19.4768
-29.2311 54.8623 -6.2644
18.1815 54.8623 -18.3994
-16.0696 54.8623 -4.3211
-10.5217 54.8623 14.8792
33.0503 54.8623 10.1619
-20.4717 54.8623 -18.2817
-30.6544 54.8623 0.3745
40.9281 54.8623 23.1627
-22.2202 54.8623 15.3508
15.4502 54.8623 -8.1518
38.8480 54.8623 25.0516
24.7568 54.8623 11.3040
18.5922 54.8623 10.1717
31.4147 54.8623 -22.8360
-19.6900 54.8623 10.2581
27.4369 54.8623 17.2072
-11.9870 54.8623 16.0669
-32.3199 54.8623 -6.0808
-40.4866 54.8623 12.3443
-11.7136 54.8623 20.9132
29.1084 54.8623 -11.3610
36.5738 54.8623 -7.5114
-46.1588 54.8623 10.2291
-14.9599 54.8623 6.5087
18.6188 54.8623 -24.4776
-36.1516 54.8623 -24.1682
-41.8270 54.8623 6.9670
-29.2074 54.8623 21.2661
-14.8658 54.8623 -11.1118
42.6985 54.8623 3.8664
5.2453 54.8623 13.4075
8.4811 54.8623 -25.3611
-27.9803 54.8623 24.1902
-3.3122 54.8623 -20.4132
38.2712 54.8623 10.8576
-26.2466 54.8623 6.9797
22.0232 54.8623 10.8646
33.3401 54.8623 19.2610
13.6569 54.8623 2.3084
39.5336 54.8623 -20.9989
-24.6261 54.8623 19.1184
25.1888 54.8623 -0.5393
4.1906 54.8623 -14.3839
15.1499 54.8623 14.9320
28.8608 54.8623 -13.8593
41.0164 54.8623 16.5004
-20.6359 54.8623 -24.9240
-32.7780 54.8623 -23.6587
4.2626 54.8623 -8.2887
-16.1952 54.8623 9.4725
-2.2813 54.8623 4.2554
-26.0704 54.8623 -21.7339
-43.7094 54.8623 -3.9399
-21.3414 54.8623 6.6719
10.7572 54.8623 18.3871
42.3245 54.8623 -22.1696
-14.3918 54.8623 12.4295
-12.2695 54.8623 -21.1238
3.2758 54.8623 5.4088
16.5124 54.8623 -16.1368
-7.2642 54.8623 14.3009
13.9923 54.8623 -21.7479
2.8838 54.8623 -21.7670
-18.8513 54.8623 13.0335
9.9755 54.8623 7.6390
-43.6618 54.8623 18.7325
-15.1768 54.8623 19.5178
-16.1555 54.8623 -4.6418
-39.5363 54.8623 25.3139
-22.0773 -54.8623 18.5228
-3.2874 -54.8623 0.1222
-17.8486 -54.8623 -21.5748
9.2969 -54.8623 23.8291
32.8556 -54.8623 1.8308
19.2254 -54.8623 -4.5245
33.6510 -54.8623 5.2776
13.8578 -54.8623 -25.3462
42.9070 -54.8623 -19.4748
41.1240 -54.8623 -16.8387
-16.1897 -54.8623 -0.0205
5.0893 -54.8623 10.4615
-40.4018 -54.8623 20.0442
-23.8521 -54.8623 -22.9115
-10.0363 -54.8623 25.4304
-6.7165 -54.8623 -1.0156
8.8966 -54.8623 -21.3229
-40.2684 -54.8623 9.3993
40.7624 -54.8623 -15.6240
24.2538 -54.8623 -13.5221
31.4421 -54.8623 -8.8840
17.1877 -54.8623 -16.9116
-7.4743 -54.8623 17.7049
21.6724 -54.8623 -16.1619
37.6013 -54.8623 9.1951
37.8592 -54.8623 -22.3712
30.2743 -54.8623 -2.8104
27.1636 -54.8623 -14.4752
6.5131 -54.8623 -20.0071
-30.0021 -54.8623 -18.5083
37.6486 -54.8623 14.6210
15.6136 -54.8623 7.4642
44.7973 -54.8623 -25.2110
-7.8866 -54.8623 -14.8789
-40.9105 -54.8623 15.0956
36.7026 -54.8623 20.8003
-24.5231 -54.8623 -4.5073
16.9845 -54.8623 7.8101
27.6217 -54.8623 -18.5246
11.5559 -54.8623 -10.2799
42.9765 -54.8623 8.4259
-19.4916 -54.8623 -11.3737
30.8981 -54.8623 16.6234
13.7345 -54.8623 16.2988
17.6838 -54.8623 -1.5816
-45.0454 -54.8623 -11.0318
-27.9013 -54.8623 -25.4228
-9.7911 -54.8623 10.4163
12.1124 -54.8623 17.2430
22.7341 -54.8623 2.4405
28.7524 -54.8623 20.3300
34.9264 -54.8623 22.0093
42.6793 -54.8623 -4.9978
-31.0456 -54.8623 16.2652
-38.7801 -54.8623 -15.3729
1.8913 -54.8623 -25.4108
38.3874 -54.8623 -7.6136
-23.5059 -54.8623 -12.7233
19.9895 -54.8623 -8.9981
-15.0841 -54.8623 16.1470
-16.9942 -54.8623 18.9401
9.1486 -54.8623 21.7657
3.4209 -54.8623 2.9864
43.0791 -54.8623 -21.8334
24.0842 -54.8623 17.1909
6.8952 -54.8623 -3.3363
16.3179 -54.8623 -12.7950
-42.1586 -54.8623 -13.4632
-21.3054 -54.8623 -2.8202
29.6649 -54.8623 -20.6467
38.9200 -54.8623 15.2251
20.3487 -54.8623 -5.7618
33.7414 -54.8623 7.1438
35.3928 -54.8623 -19.4797
-21.6475 -54.8623 1.1262
1.2961 -54.8623 13.1071
21.9244 -54.8623 -7.6777
30.9228 -54.8623 6.3665
-11.2044 -54.8623 10.9128
16.6889 -54.8623 24.9371
46.0994 -54.8623 0.9184
26.5488 -54.8623 -17.6272
21.8425 -54.8623 10.8231
-38.9935 -54.8623 -17.6543
-44.4321 -54.8623 -16.1132
18.0973 -54.8623 -12.1254
-35.4703 -54.8623 -24.9918
-12.9060 -54.8623 20.3904
28.2318 -54.8623 4.6647
15.0820 -54.8623 -12.0354
38.6327 -54.8623 21.8486
-31.3674 -54.8623 4.1273
6.9037 -54.8623 1.0982
41.2726 -54.8623 23.9719
-44.8895 -54.8623 -19.7177
45.4018 -54.8623 -2.7867
42.7564 -54.8623 -7.9998
-30.1748 -54.8623 20.7940
34.6500 -54.8623 -6.4116
-1.7441 -54.8623 16.1285
45.0549 -54.8623 24.1340
41.6686 -54.8623 11.5383
36.9736 -54.8623 -24.9787
2.9105 -54.8623 -18.0298
40.8500 -54.8623 19.1058
29.9959 -54.8623 -19.4817
2.3951 -54.8623 5.8026
29.7886 -54.8623 1.4059
38.7815 -54.8623 -5.7704
12.4730 -54.8623 -23.0861
43.5611 -54.8623 -11.3094
31.2614 -54.8623 9.3870
-38.7596 -54.8623 -19.8148
25.4926 -54.8623 10.7648
-8.1177 -54.8623 -2.8678
25.2030 -54.8623 19.2582
-30.3106 -54.8623 16.5848
28.4676 -54.8623 -25.5066
-27.6163 -54.8623 20.5239
-44.5789 -54.8623 -12.9555
22.0629 -54.8623 -8.0826
-25.0459 -54.8623 3.8814
-39.1083 -54.8623 17.9318
28.9734 -54.8623 22.3280
-30.1506 -54.8623 -24.6682
32.3004 -54.8623 -2.9379
-32.9918 -54.8623 -4.1242
2.2528 -54.8623 21.0913
-11.4144 -54.8623 -6.7697
40.7014 -54.8623 -11.2319
45.0751 -54.8623 14.1393
9.1854 -54.8623 -0.8535
-37.5518 -54.8623 17.4468
0.1833 -54.8623 11.1985
12.7264 -54.8623 -16.1829
27.6123 -54.8623 8.3305
-33.8350 -54.8623 20.2963
14.9356 -54.8623 -23.0085
26.9209 -54.8623 13.0840
-1.0460 -54.8623 24.3400
-10.4623 -54.8623 16.4986
-10.1083 -54.8623 9.4801
-41.6198 -54.8623 -13.7663
36.7245 -54.8623 -0.6325
18.7844 -54.8623 19.2399
7.4849 -54.8623 8.8735
-42.2474 -54.8623 -13.0548
28.8265 -54.8623 -15.3152
-30.1361 -54.8623 13.4772
7.7483 -54.8623 -23.5284
24.8357 -54.8623 -1.8255
12.3047 -54.8623 3.3121
46.3109 -54.8623 -14.8142
21.2258 -54.8623 -21.2804
21.9909 -54.8623 -13.2344
16.6443 -54.8623 -17.5265
27.0290 -54.8623 17.3906
0.1301 -54.8623 -12.7981
-44.9441 -54.8623 22.5570
14.9214 -54.8623 -23.4293
-7.0656 -54.8623 -10.7609
-25.3989 -54.8623 -9.9981
1.0108 -54.8623 -11.3646
-17.0386 -54.8623 -6.5263
-26.9135 -54.8623 -21.0174
37.9719 -54.8623 4.0198
34.9357 -54.8623 -12.6835
29.7793 -54.8623 0.6213
26.9410 -54.8623 24.6781
-29.1752 -54.8623 -5.9310
-41.1242 -54.8623 22.9822
-19.2872 -33.6608 25.7485
8.8609 44.9462 25.7485
24.0988 19.4854 25.7485
17.8553 -49.0024 25.7485
-7.6775 16.9141 25.7485
-11.8631 30.2052 25.7485
-16.7335 35.0493 25.7485
-30.8439 -40.7295 25.7485
-3.6123 2.5019 25.7485
13.3875 26.6364 25.7485
19.4207 3.3832 25.7485
18.0740 23.2783 25.7485
36.2299 -12.5157 25.7485
31.7479 8.0886 25.7485
-35.0735 -6.3112 25.7485
-32.6513 10.9098 25.7485
-25.3690 49.5908 25.7485
-5.6695 39.1746 25.7485
-6.1290 -47.0710 25.7485
39.7107 -47.3819 25.7485
10.7626 -24.8603 25.7485
12.8391 -26.4568 25.7485
30.2115 41.3941 25.7485
-0.9321 -51.3880 25.7485
-13.2326 53.8631 25.7485
4.6051 -42.8905 25.7485
21.8596 35.5991 25.7485
7.0929 48.0667 25.7485
21.3603 -7.7365 25.7485
31.7714 -25.3593 25.7485
22.7472 18.8478 25.7485
17.7433 30.4861 25.7485
-23.0192 -38.3846 25.7485
31.2942 11.1789 25.7485
-43.8777 -15.1777 25.7485
39.3129 36.4065 25.7485
8.1718 1.3591 25.7485
-24.2270 28.7659 25.7485
2.3003 -33.2145 25.7485
9.4585 -29.8884 25.7485
-44.2438 -42.0070 25.7485
-31.0655 32.5478 25.7485
-2.8572 31.6878 25.7485
-25.2686 -23.1478 25.7485
-24.3204 14.8073 25.7485
44.1348 54.3199 25.7485
-42.3830 19.1016 25.7485
11.8650 -16.8113 25.7485
39.4054 -36.6390 25.7485
-29.6767 -20.4975 25.7485
2.6386 40.3837 25.7485
14.6690 -50.7332 25.7485
-30.7842 16.8814 25.7485
23.6679 5.7936 25.7485
-38.3336 45.0375 25.7485
24.0325 44.7938 25.7485
-44.2394 11.1841 25.7485
40.3514 16.2095 25.7485
-32.9163 3.3800 25.7485
-34.6467 43.6237 25.7485
-43.0229 -3.9710 25.7485
-20.8095 2.9123 25.7485
15.5774 -49.8867 25.7485
43.1995 41.4506 25.7485
-26.0920 -40.1752 25.7485
-37.7183 36.4628 25.7485
46.3572 25.4994 25.7485
33.7063 -3.7976 25.7485
-23.8640 34.1789 25.7485
-35.8726 31.3865 25.7485
31.4304 -0.7513 25.7485
-15.4439 4.2509 25.7485
6.3086 11.2265 25.7485
-34.9079 16.3631 25.7485
-28.9915 -44.5790 25.7485
-1.2879 51.1698 25.7485
-38.4606 9.8639 25.7485
-26.9913 13.1629 25.7485
10.8985 -29.3957 25.7485
21.5878 -4.7921 25.7485
12.8403 -44.3036 25.7485
3.3981 41.3043 25.7485
43.0566 -34.8648 25.7485
-0.3056 -52.9220 25.7485
40.4641 -32.5154 25.7485
1.5290 42.2766 25.7485
-23.9012 -41.8133 25.7485
33.2061 2.6392 25.7485
24.8627 18.9464 25.7485
-19.2146 1.8864 25.7485
15.1419 -16.1917 25.7485
-28.1855 -16.6905 25.7485
7.8488 -5.5021 25.7485
9.3471 -52.9515 25.7485
-20.1420 1.1357 25.7485
-3.2512 40.3471 25.7485
39.8967 -11.8311 25.7485
-33.2301 -31.3334 25.7485
17.6015 46.6432 25.7485
-3.4043 -30.0080 25.7485
-35.0354 -20.4388 25.7485
-13.4554 -37.5638 25.7485
5.7035 40.8413 25.7485
5.0222 -0.9424 25.7485
26.0549 -12.5443 25.7485
7.2023 11.7779 25.7485
11.3059 -11.1067 25.7485
-32.1897 33.8290 25.7485
31.3057 3.1994 25.7485
-11.7675 -31.4036 25.7485
26.4177 -15.1293 25.7485
-7.0136 -13.6931 25.7485
-22.2204 -36.4064 25.7485
-7.5889 46.8458 25.7485
35.4794 39.3477 25.7485
-41.9628 -54.2982 25.7485
-15.7374 35.5526 25.7485
-15.9941 23.4796 25.7485
39.5941 25.6240 25.7485
-8.1942 45.4791 25.7485
9.0310 -5.1186 25.7485
9.1195 24.2563 25.7485
27.8127 34.1843 25.7485
-44.3757 -48.3093 25.7485
27.9283 22.7587 25.7485
30.0834 -23.5525 25.7485
31.9327 -22.9809 25.7485
-29.5691 -8.3290 25.7485
4.4189 -3.3313 25.7485
-41.5054 -7.5889 25.7485
-32.5703 52.2025 25.7485
15.1551 27.8223 25.7485
-43.5580 -9.0492 25.7485
12.6744 1.7554 25.7485
34.0098 4.3915 25.7485
8.2567 48.0582 25.7485
-44.1289 9.6397 25.7485
-5.6767 46.3443 25.7485
19.6360 27.6820 25.7485
-43.5798 -51.6420 25.7485
-17.6868 -54.3160 25.7485
-12.7962 3.6294 25.7485
-24.2529 -30.1392 25.7485
-4.9350 -36.0483 25.7485
13.7670 29.7990 25.7485
-5.3726 -41.2927 25.7485
-3.0220 -38.6030 25.7485
-42.1362 -29.3235 25.7485
-44.9310 -36.7013 25.7485
-27.2251 -27.4687 25.7485
35.0467 -34.9868 25.7485
34.3914 -29.9354 25.7485
44.0963 -53.0374 25.7485
25.1047 -10.0758 25.7485
35.2325 39.0217 25.7485
2.6719 4.5915 25.7485
4.7230 -44.7969 25.7485
33.7197 29.1643 25.7485
10.5470 42.5601 25.7485
-15.6686 39.1141 25.7485
43.7294 -11.8936 25.7485
-31.5394 -28.9197 25.7485
-4.0090 21.7792 25.7485
3.0726 39.2916 25.7485
27.9176 -43.1161 25.7485
38.0194 -1.8641 25.7485
24.3109 50.3738 25.7485
-22.5553 20.0660 25.7485
12.5209 18.7504 25.7485
3.3951 4.9328 25.7485
1.7304 -51.4918 -25.7485
-9.9241 -4.8560 -25.7485
-28.6102 26.4372 -25.7485
17.3113 -30.2134 -25.7485
-27.1794 22.2246 -25.7485
3.9517 -1.2422 -25.7485
-36.7893 -44.7366 -25.7485
-5.4227 -14.9510 -25.7485
5.2302 28.5589 -25.7485
36.4987 16.5918 -25.7485
-32.4538 -8.6640 -25.7485
-32.7808 5.2643 -25.7485
-17.9165 -17.7680 -25.7485
-21.4512 -9.6226 -25.7485
-41.8932 46.0724 -25.7485
-30.3867 20.7505 -25.7485
18.6592 13.1586 -25.7485
18.4053 42.3756 -25.7485
9.5706 8.7646 -25.7485
34.9395 -34.7944 -25.7485
-6.3614 -43.0731 -25.7485
-8.3434 -49.2878 -25.7485
7.8846 -11.1084 -25.7485
-24.5058 54.5641 -25.7485
-34.0812 -12.0731 -25.7485
13.9785 48.0376 -25.7485
33.8792 -51.7557 -25.7485
24.2983 -20.6667 -25.7485
42.9130 -15.0497 -25.7485
-24.0163 -31.1250 -25.7485
-39.7673 14.2619 -25.7485
37.5721 -52.2979 -25.7485
18.3717 52.2129 -25.7485
3.9949 -41.9572 -25.7485
-31.1149 -16.5884 -25.7485
15.4094 3.9789 -25.7485
34.4452 -37.0939 -25.7485
-34.2456 41.9867 -25.7485
-13.3541 6.5298 -25.7485
-5.4716 -28.3789 -25.7485
-22.4255 -30.9792 -25.7485
29.1282 27.6898 -25.7485
19.9763 -5.7147 -25.7485
6.0705 10.1134 -25.7485
38.2998 52.8842 -25.7485
-18.6347 36.6266 -25.7485
-10.0112 -26.6335 -25.7485
28.0971 -42.1563 -25.7485
-23.0175 45.6959 -25.7485
23.2371 38.6953 -25.7485
44.2841 -4.5497 -25.7485
-10.7238 -17.7598 -25.7485
-23.8989 -20.9128 -25.7485
-10.4298 32.5647 -25.7485
-32.6148 -11.3170 -25.7485
-1.1760 -25.3549 -25.7485
-17.6086 -7.9505 -25.7485
13.6468 -0.6157 -25.7485
-11.6188 5.3885 -25.7485
12.8510 -38.7722 -25.7485
-37.7771 -49.8455 -25.7485
-28.5717 -37.3292 -25.7485
-43.5152 7.2867 -25.7485
-29.8541 -53.0591 -25.7485
35.9430 -30.0607 -25.7485
-43.8153 -38.0349 -25.7485
28.8170 1.3657 -25.7485
-12.4731 -14.1820 -25.7485
28.3792 36.9602 -25.7485
-37.4963 43.5456 -25.7485
-24.8200 48.6733 -25.7485
-8.2058 32.0433 -25.7485
-45.3095 14.2643 -25.7485
-6.3265 -28.0426 -25.7485
5.4234 40.1125 -25.7485
37.1270 -25.4666 -25.7485
-7.3168 45.6444 -25.7485
34.9110 18.4312 -25.7485
-6.1484 -2.6799 -25.7485
17.4913 8.2578 -25.7485
-33.9949 20.8622 -25.7485
35.2136 14.3162 -25.7485
23.7306 26.9256 -25.7485
33.3007 53.8337 -25.7485
44.3210 41.1763 -25.7485
13.5036 20.3661 -25.7485
46.1275 0.5909 -25.7485
3.5923 7.3670 -25.7485
29.6684 -26.8899 -25.7485
-10.6602 -20.3397 -25.7485
-10.3425 -22.7057 -25.7485
-27.3508 -50.9431 -25.7485
30.6437 47.6064 -25.7485
32.7444 16.1269 -25.7485
-30.9764 -37.1856 -25.7485
-0.8941 32.2932 -25.7485
-23.9936 31.5932 -25.7485
-17.8744 45.7028 -25.7485
24.1044 13.9450 -25.7485
31.3325 26.2342 -25.7485
33.7088 -30.7888 -25.7485
11.7572 53.0198 -25.7485
24.8136 -41.4594 -25.7485
-30.5614 47.2018 -25.7485
41.7412 -20.4968 -25.7485
28.1798 11.1841 -25.7485
38.1793 -36.5074 -25.7485
-5.8826 0.8111 -25.7485
7.6029 -45.2468 -25.7485
-26.3389 -53.0665 -25.7485
37.2725 38.6056 -25.7485
-31.5317 34.6621 -25.7485
-23.3602 52.7306 -25.7485
41.3744 7.4896 -25.7485
-5.4343 53.2898 -25.7485
-7.7386 43.1461 -25.7485
-33.8158 -33.5353 -25.7485
-12.8100 -41.2789 -25.7485
-5.0201 48.7229 -25.7485
22.1199 -21.6964 -25.7485
-31.8965 10.1576 -25.7485
44.7827 -35.7494 -25.7485
26.3901 -33.1013 -25.7485
2.4634 -43.4569 -25.7485
-19.5678 -45.5185 -25.7485
-14.2671 39.6082 -25.7485
-9.7687 39.5942 -25.7485
-18.2704 -40.5336 -25.7485
-15.8088 34.5124 -25.7485
-44.6602 -18.5431 -25.7485
10.1904 13.8326 -25.7485
-8.2936 -34.3303 -25.7485
-2.1827 0.3513 -25.7485
-10.0229 -27.8526 -25.7485
-22.6546 22.5230 -25.7485
37.0901 -42.3671 -25.7485
-41.4533 -44.4618 -25.7485
1.9641 11.1764 -25.7485
-36.1254 -37.6204 -25.7485
-17.9323 11.3869 -25.7485
-21.2153 32.8068 -25.7485
23.5728 -14.5612 -25.7485
1.3565 -25.7178 -25.7485
-0.4315 44.3272 -25.7485
-39.9472 30.3720 -25.7485
-4.4640 -17.5177 -25.7485
-16.5940 -2.4058 -25.7485
24.7882 8.4768 -25.7485
-10.3668 9.8993 -25.7485
-5.4494 -16.9020 -25.7485
-27.3171 25.5358 -25.7485
22.7059 31.8255 -25.7485
26.1696 13.4839 -25.7485
4.6744 11.0360 -25.7485
-34.0528 -3.8912 -25.7485
17.0740 41.7706 -25.7485
-7.1483 28.7582 -25.7485
-31.2895 -47.1858 -25.7485
-34.5285 21.4815 -25.7485
6.1126 21.8178 -25.7485
-40.1645 5.8834 -25.7485
9.5432 6.8425 -25.7485
-7.2526 39.0490 -25.7485
30.2973 -49.3266 -25.7485
8.4865 -10.1810 -25.7485
-1.9485 -21.9490 -25.7485
-15.1776 -43.2272 -25.7485
-37.1558 -47.4653 -25.7485
-10.4959 25.4391 -25.7485
-29.7729 -49.8623 -25.7485
