ply
format ascii 1.0
element vertex 1024
property float x
property float y
property float z
end_header
40.1178 25.8665 29.8419
40.1178 -19.1083 -30.0318
40.1178 28.6355 39.5083
40.1178 1.4984 59.9710
40.1178 6.6276 32.9880
40.1178 14.3674 -34.1216
40.1178 -27.2741 1.5356
40.1178 9.7028 -38.8931
40.1178 2.4725 -53.9368
40.1178 19.8582 -18.5881
40.1178 9.5399 -31.2014
40.1178 -12.5040 34.2966
40.1178 29.5941 -47.7543
40.1178 -7.9747 -19.6323
40.1178 -15.2577 19.6910
40.1178 -3.0884 -46.1020
40.1178 -13.1917 22.1709
40.1178 -29.3092 -30.8486
40.1178 -21.3384 11.9087
40.1178 -17.9557 59.9360
40.1178 -8.7951 -6.1362
40.1178 3.6739 58.3953
40.1178 -11.8186 52.5244
40.1178 -5.3851 -46.0659
40.1178 -8.4634 27.4912
40.1178 24.9176 -2.2904
40.1178 7.5637 7.8735
40.1178 25.8344 -3.4482
40.1178 -18.6341 -14.3680
40.1178 15.5578 -50.3311
40.1178 -16.7639 21.4443
40.1178 8.7444 -41.4474
40.1178 14.7085 59.3455
40.1178 -16.8083 15.0965
40.1178 27.7408 -4.2048
40.1178 -2.9989 -32.4932
40.1178 -26.5723 58.0685
40.1178 -17.7372 52.0244
40.1178 -9.2380 -49.4975
40.1178 -8.7642 3.3561
40.1178 -8.6615 35.0214
40.1178 -24.5003 57.8816
40.1178 -19.7744 -26.1045
40.1178 -19.1511 -8.8773
40.1178 27.6164 -51.9118
40.1178 -20.3542 -37.1596
40.1178 -29.5130 13.7754
40.1178 -20.0463 45.3879
40.1178 -10.2670 1.8125
40.1178 23.8194 -24.0179
40.1178 13.3673 58.6859
40.1178 -1.0173 16.3170
40.1178 9.3802 -3.2283
40.1178 -2.3973 51.9011
40.1178 -16.3304 18.9387
40.1178 -1.2799 20.4150
40.1178 -5.7319 18.2461
40.1178 -22.0649 -27.5856
40.1178 -24.7558 30.3339
40.1178 22.3226 30.9214
40.1178 -3.3257 -19.6118
40.1178 -5.2156 -34.1369
40.1178 27.0385 -56.8291
40.1178 -9.1128 49.8486
40.1178 29.6716 9.7204
40.1178 25.9127 -25.7956
40.1178 2.7300 -44.1450
40.1178 24.8865 53.0124
40.1178 11.1173 -58.2144
40.1178 5.4261 36.7671
40.1178 7.8781 11.4468
40.1178 -12.8063 -45.5760
40.1178 -21.4886 -25.4840
40.1178 8.9400 6.9424
40.1178 9.1960 -61.6694
40.1178 -29.1372 27.2138
40.1178 -2.8578 -17.6647
40.1178 -26.6487 55.8730
40.1178 -25.9914 -15.7076
40.1178 -10.6342 -57.3234
40.1178 29.4110 30.2401
40.1178 -18.3455 0.4893
40.1178 -0.7996 -57.4216
40.1178 -26.7756 44.5924
40.1178 -0.1759 22.1543
40.1178 26.2459 -17.8546
40.1178 2.5822 60.7662
40.1178 -26.6599 -26.6693
40.1178 8.2550 57.8261
40.1178 -12.7463 52.4981
40.1178 -5.3129 -38.0680
40.1178 -16.0103 42.6237
40.1178 -29.0362 31.6656
40.1178 1.1270 -61.5763
40.1178 -4.3814 28.3688
40.1178 11.6944 -29.9317
40.1178 -14.1623 -23.1643
40.1178 18.4118 -17.5155
40.1178 9.2133 53.3406
40.1178 -12.2869 -57.5712
40.1178 -13.6983 -1.2525
40.1178 -25.0915 -49.1032
40.1178 29.3718 -18.5593
40.1178 12.5469 6.0525
40.1178 -28.3709 -11.3422
40.1178 20.5549 -47.1752
40.1178 -14.9202 -58.6057
40.1178 -19.9983 -3.5648
40.1178 10.2419 -2.4247
40.1178 -5.8828 -4.5503
40.1178 29.2741 -9.7145
40.1178 -0.7771 -47.1810
40.1178 27.8857 -33.9835
40.1178 18.9851 43.5422
40.1178 -0.8857 -16.3534
40.1178 -4.5380 -59.9775
40.1178 10.9913 -47.3079
40.1178 -10.6900 -61.8170
40.1178 -7.2431 17.3380
40.1178 -4.3568 47.7058
40.1178 24.4011 7.3810
40.1178 -12.4958 28.1413
40.1178 -0.9334 61.3727
40.1178 15.8557 -3.0781
40.1178 22.3953 -29.4119
40.1178 5.1557 39.7294
40.1178 -13.7079 19.7267
40.1178 25.4765 10.1874
40.1178 -2.1887 29.3034
40.1178 -14.1942 -15.2685
40.1178 -18.9051 23.2216
40.1178 -14.8611 -26.9419
40.1178 -17.1044 24.0196
40.1178 15.8447 37.2694
40.1178 -4.6137 36.2771
40.1178 2.4575 31.7468
40.1178 10.7014 29.4821
40.1178 -23.0417 -6.7652
40.1178 15.8101 -39.1695
40.1178 17.2742 3.0055
40.1178 -15.7893 53.3312
40.1178 -3.2689 56.2378
40.1178 1.5285 13.0756
40.1178 -7.1461 61.5866
40.1178 -10.3660 47.2836
40.1178 26.1642 -34.0992
40.1178 -0.7299 14.3354
40.1178 -7.2241 -48.5188
40.1178 22.7738 4.6337
40.1178 -3.5856 -54.9724
40.1178 -14.3812 31.6836
40.1178 4.4680 27.5538
40.1178 -16.3386 33.3781
40.1178 14.0480 -59.2540
40.1178 -27.5237 -7.1155
40.1178 -1.8311 -34.3124
40.1178 5.6488 -60.7340
40.1178 -19.5247 35.3152
40.1178 22.6330 51.3274
40.1178 -12.2396 3.7997
40.1178 21.2596 60.7011
40.1178 -16.0210 -15.8459
40.1178 -27.2979 -35.9609
40.1178 -26.3281 31.1324
40.1178 -2.3267 35.9861
40.1178 -7.4089 16.7978
40.1178 -8.9484 43.5101
40.1178 -11.6024 20.2947
40.1178 -8.9669 -23.6173
40.1178 -27.7858 35.0208
40.1178 -8.0123 -46.4388
-40.1178 14.1922 6.1069
-40.1178 -19.8918 -47.3588
-40.1178 -13.3860 58.3220
-40.1178 24.1196 62.7641
-40.1178 13.6263 60.9834
-40.1178 -6.6107 18.2172
-40.1178 -23.7657 -15.3414
-40.1178 -17.7177 27.9879
-40.1178 16.2699 -4.9555
-40.1178 -13.9040 8.9052
-40.1178 -9.9210 44.2503
-40.1178 17.3725 -29.5874
-40.1178 -23.5700 9.6522
-40.1178 23.8265 44.9555
-40.1178 7.2390 -3.8094
-40.1178 18.8790 -12.7701
-40.1178 -21.1727 -40.2077
-40.1178 5.4666 0.7718
-40.1178 -13.0297 27.2604
-40.1178 -3.9832 -49.5810
-40.1178 19.6923 -39.7895
-40.1178 -15.5300 -21.4153
-40.1178 4.1601 -56.5641
-40.1178 2.3344 -57.4119
-40.1178 -21.8467 48.3457
-40.1178 -25.3137 16.7747
-40.1178 -28.6961 -17.5377
-40.1178 17.3742 -36.1135
-40.1178 -19.2017 -2.3021
-40.1178 -3.2170 -17.8654
-40.1178 2.1530 -29.8625
-40.1178 -3.1462 -17.2167
-40.1178 28.2545 33.4915
-40.1178 -20.4616 -61.9330
-40.1178 5.4111 -15.4784
-40.1178 -1.1900 -42.3186
-40.1178 18.7629 14.2765
-40.1178 -22.4926 46.0926
-40.1178 -29.1821 6.3093
-40.1178 9.1499 -61.5191
-40.1178 21.1623 -59.2069
-40.1178 -19.3171 47.5031
-40.1178 20.3712 -13.2936
-40.1178 -15.0714 -6.9265
-40.1178 -1.7421 53.7539
-40.1178 -2.7873 53.9239
-40.1178 -19.0853 -11.2667
-40.1178 1.1058 -19.3019
-40.1178 -11.9529 45.2892
-40.1178 16.6116 -16.8102
-40.1178 27.8751 54.2886
-40.1178 -7.2039 -36.7295
-40.1178 -27.3152 -51.1921
-40.1178 23.9617 -35.4177
-40.1178 11.2583 23.3496
-40.1178 -9.0191 6.0086
-40.1178 -25.5009 -30.7633
-40.1178 -28.4087 -21.4690
-40.1178 1.2844 -53.9588
-40.1178 -28.1302 -34.3467
-40.1178 -17.1214 11.6064
-40.1178 -10.0279 -25.6575
-40.1178 22.4980 -17.6710
-40.1178 -5.6290 35.0579
-40.1178 21.6342 44.5734
-40.1178 -17.6672 46.7750
-40.1178 -14.0870 -55.9741
-40.1178 -11.4349 7.5454
-40.1178 17.4861 -39.5699
-40.1178 12.1994 -50.0504
-40.1178 1.7914 56.6633
-40.1178 -4.4741 37.7353
-40.1178 6.7494 -28.1557
-40.1178 -14.1880 43.9352
-40.1178 29.5325 18.6054
-40.1178 -24.5564 -28.7387
-40.1178 17.7343 20.7161
-40.1178 -22.5456 45.4442
-40.1178 -15.4605 7.0860
-40.1178 -3.2256 47.9271
-40.1178 -12.5713 19.9065
-40.1178 5.7366 -35.1351
-40.1178 -16.8007 14.7630
-40.1178 0.7107 38.3182
-40.1178 -15.7673 14.1932
-40.1178 -22.4006 12.3098
-40.1178 17.6665 19.7404
-40.1178 -16.2434 -28.1486
-40.1178 -1.4820 57.9605
-40.1178 1.9773 -47.3433
-40.1178 -20.7149 29.1507
-40.1178 18.5450 4.9912
-40.1178 20.1084 45.4746
-40.1178 28.8829 -1.7831
-40.1178 -13.5517 -61.3400
-40.1178 0.1217 14.1026
-40.1178 -20.2616 48.9377
-40.1178 2.3350 9.5127
-40.1178 14.5788 -16.5638
-40.1178 -0.8265 34.1697
-40.1178 14.1768 -25.3690
-40.1178 -21.4709 59.6290
-40.1178 12.8834 -25.0020
-40.1178 -16.9451 -42.1874
-40.1178 20.4573 29.9869
-40.1178 -2.5026 14.9051
-40.1178 13.3997 26.5620
-40.1178 -18.9776 26.7842
-40.1178 7.2023 -40.6347
-40.1178 -14.8387 -24.6046
-40.1178 17.9141 61.8298
-40.1178 0.1004 -43.0872
-40.1178 -29.8043 23.4569
-40.1178 -20.0976 46.9513
-40.1178 -20.0233 13.0602
-40.1178 -7.6297 -25.7035
-40.1178 -8.4539 -57.8044
-40.1178 -19.1714 59.1451
-40.1178 18.5702 57.1251
-40.1178 -0.7592 20.1818
-40.1178 10.2104 29.3061
-40.1178 13.7535 52.1262
-40.1178 -25.7786 -54.2145
-40.1178 -24.3374 -60.4657
-40.1178 -14.6769 43.1570
-40.1178 5.2984 10.8693
-40.1178 15.3620 36.0164
-40.1178 -5.8721 -31.3243
-40.1178 29.1814 58.6447
-40.1178 -24.4607 0.3208
-40.1178 20.7224 19.7410
-40.1178 13.1303 30.8258
-40.1178 -17.4680 14.9296
-40.1178 -11.8699 8.8986
-40.1178 8.4649 31.8798
-40.1178 -5.4410 -30.2496
-40.1178 -14.0275 -37.5814
-40.1178 8.4696 33.2792
-40.1178 29.7318 36.9958
-40.1178 -3.4369 -1.0782
-40.1178 11.8484 59.0896
-40.1178 -2.9132 53.5561
-40.1178 4.0479 17.8434
-40.1178 -8.7951 -62.1650
-40.1178 -28.8375 53.5471
-40.1178 -18.8909 -48.4750
-40.1178 -27.0562 20.8409
-40.1178 3.3191 60.8742
-40.1178 29.6832 42.1948
-40.1178 -2.7997 6.1389
-40.1178 -11.0877 -9.2836
-40.1178 22.6600 44.2713
-40.1178 -21.5691 -48.4641
-40.1178 4.2776 26.0851
-40.1178 18.8530 -1.9447
-40.1178 23.0796 -12.0549
-40.1178 -14.2259 34.5799
-40.1178 24.7477 -31.5177
-40.1178 -28.5813 -5.8821
-40.1178 -10.8559 1.6350
-40.1178 -12.8340 -4.7038
-40.1178 -12.8817 -47.6214
-40.1178 17.2865 22.0534
-40.1178 18.6800 13.7674
-40.1178 -19.2363 62.0801
-40.1178 -11.4966 18.2479
-40.1178 14.7584 54.4593
-40.1178 -0.9922 62.5768
-40.1178 21.4616 -58.6959
-40.1178 9.5299 -49.7668
-40.1178 0.9131 34.4135
-29.3504 29.8234 -39.2181
16.0575 29.8234 49.5606
21.5232 29.8234 -61.0558
30.1701 29.8234 -39.7766
-26.7257 29.8234 1.4786
25.0870 29.8234 -3.2062
38.1543 29.8234 17.1718
19.8292 29.8234 6.5164
16.1515 29.8234 13.4736
-25.5754 29.8234 -26.2466
-20.9695 29.8234 -2.2628
-29.2541 29.8234 43.1298
12.8773 29.8234 -58.3941
-15.1272 29.8234 -57.4863
38.6973 29.8234 -7.2133
20.9279 29.8234 1.9547
-19.0741 29.8234 -52.2147
15.0115 29.8234 1.5355
-34.6395 29.8234 58.0695
34.8253 29.8234 -13.9562
-28.6571 29.8234 21.0119
-27.2241 29.8234 44.0828
27.5037 29.8234 -61.7054
-36.7845 29.8234 41.5982
3.7614 29.8234 52.5697
18.7495 29.8234 -12.9156
10.4122 29.8234 -16.0048
-29.6860 29.8234 52.6950
-17.5219 29.8234 -51.9751
-22.7212 29.8234 40.5345
34.3516 29.8234 20.3958
20.8311 29.8234 -48.0909
37.2626 29.8234 -38.5692
39.7549 29.8234 8.4038
8.2647 29.8234 -13.2739
2.3944 29.8234 1.5332
22.6260 29.8234 29.4930
32.7195 29.8234 11.6212
24.0810 29.8234 55.8802
1.8630 29.8234 47.2036
-38.8565 29.8234 37.4299
8.7102 29.8234 -34.4196
23.5348 29.8234 -49.8202
-30.0733 29.8234 -28.3794
-31.9439 29.8234 23.0312
-35.8762 29.8234 58.6830
-19.0147 29.8234 -33.9840
-1.7853 29.8234 -15.8879
-29.6590 29.8234 56.1668
0.9668 29.8234 58.7453
1.0722 29.8234 -48.9936
-33.4305 29.8234 2.2006
-13.4330 29.8234 -59.2540
13.0376 29.8234 60.3528
36.2333 29.8234 -34.5443
24.6755 29.8234 18.1748
-29.7159 29.8234 -26.9544
-2.7682 29.8234 -10.8392
-36.6822 29.8234 -52.5749
-35.1967 29.8234 -15.1611
-5.6954 29.8234 -37.0767
27.0351 29.8234 -39.8496
-14.6518 29.8234 37.8331
-23.5159 29.8234 25.6256
12.7235 29.8234 -60.2189
28.7889 29.8234 -23.9766
25.8431 29.8234 2.7845
-32.4453 29.8234 5.9414
-0.3809 29.8234 -28.6534
-0.9346 29.8234 -41.0612
-32.0505 29.8234 -6.6277
5.3386 29.8234 12.1046
17.0344 29.8234 -6.2460
-2.1217 29.8234 -27.1357
9.7555 29.8234 -42.9216
3.4012 29.8234 -26.7039
-36.7503 29.8234 -20.1781
-8.7334 29.8234 -29.2363
-12.9189 29.8234 28.2891
-7.0090 29.8234 31.9980
-16.3464 29.8234 -42.4342
35.1564 29.8234 -4.1075
3.5460 29.8234 -8.4667
-20.2848 29.8234 45.7764
31.4005 29.8234 55.8255
-8.0606 29.8234 -17.9288
21.2910 29.8234 23.2114
-31.1469 29.8234 36.8452
17.4127 29.8234 -61.4547
-22.1568 29.8234 51.4311
-9.2642 29.8234 13.0003
38.2420 29.8234 58.1911
18.5803 29.8234 33.3076
-2.8274 29.8234 -17.1012
18.5244 29.8234 -49.1104
21.3769 29.8234 -43.8886
-1.2071 29.8234 42.0681
-15.5368 29.8234 -18.1366
21.7938 29.8234 36.7102
-2.7722 29.8234 45.2479
19.3692 29.8234 24.5719
0.1382 29.8234 -8.2862
-24.2597 29.8234 -23.1028
13.7578 29.8234 -40.1255
22.3325 29.8234 -57.5867
1.8959 29.8234 55.4715
2.4206 29.8234 -31.3300
-38.5709 29.8234 -37.0078
-21.9317 29.8234 -3.6620
-19.3362 29.8234 31.5812
13.2781 29.8234 -17.0065
13.0100 29.8234 5.5890
-37.4824 29.8234 -1.9773
2.9277 29.8234 61.5895
1.1052 29.8234 34.0445
39.8906 29.8234 -27.0896
35.6798 29.8234 55.7497
6.1734 29.8234 16.4318
2.0532 29.8234 13.8272
25.5812 29.8234 -37.3521
-9.8957 29.8234 -36.2685
-12.6068 29.8234 43.3048
35.0509 29.8234 -27.5398
29.8793 29.8234 62.0396
-17.5375 29.8234 -50.4227
30.4048 29.8234 -58.2818
-1.9902 29.8234 -18.2602
1.1156 29.8234 49.0207
-19.6450 29.8234 55.2976
27.1428 29.8234 23.7697
-10.8322 29.8234 44.5516
18.1880 29.8234 26.4213
-37.4341 29.8234 -0.0583
12.9106 29.8234 57.6180
-23.1896 29.8234 35.3718
-6.8733 29.8234 24.9487
-21.2226 29.8234 59.9071
-7.7526 29.8234 -34.3085
31.1888 29.8234 7.6807
-38.9920 29.8234 -6.1572
30.3829 29.8234 -9.9803
-24.1130 29.8234 -17.2151
20.0985 29.8234 34.4516
-6.3451 29.8234 9.1339
-22.4862 29.8234 -43.9824
-33.7560 29.8234 -40.6003
0.3059 29.8234 13.1481
-18.0538 29.8234 6.4331
-32.6019 29.8234 -8.1424
0.7629 29.8234 -19.0279
6.5550 29.8234 59.7466
1.4732 29.8234 37.5076
11.3763 29.8234 62.2750
-16.6897 29.8234 57.5803
-18.4746 29.8234 35.6780
-12.9256 29.8234 -48.6278
34.0398 29.8234 -62.2722
3.3889 29.8234 -4.7155
-6.9851 29.8234 -31.2327
36.8807 29.8234 -52.0591
39.1239 29.8234 12.1306
25.3873 29.8234 55.1328
-22.8192 29.8234 -34.9492
25.4878 29.8234 7.1085
25.0583 29.8234 47.4623
-12.5706 29.8234 44.8549
-38.0138 29.8234 35.8239
10.7880 29.8234 -25.9407
-8.8156 29.8234 -16.9131
20.7178 29.8234 -9.7201
8.8466 29.8234 -50.8057
-18.5853 -29.8234 46.1034
19.1837 -29.8234 -37.5559
-8.4421 -29.8234 21.9955
-12.4987 -29.8234 19.3285
13.0850 -29.8234 -43.4157
-8.6425 -29.8234 -30.9341
28.2892 -29.8234 6.6492
-30.1633 -29.8234 38.1957
20.2998 -29.8234 56.6611
-10.4259 -29.8234 3.8912
31.1659 -29.8234 -48.5060
-9.8859 -29.8234 -8.2103
-28.2232 -29.8234 -4.2118
-32.5420 -29.8234 -11.9664
-27.0226 -29.8234 -14.5729
-30.5141 -29.8234 -49.2202
-19.9853 -29.8234 55.5006
17.2864 -29.8234 36.8123
1.7478 -29.8234 -56.5056
20.1118 -29.8234 -46.0134
-17.3374 -29.8234 38.2979
-39.4406 -29.8234 -29.6469
-9.0532 -29.8234 42.9675
-0.6604 -29.8234 0.1609
-0.7065 -29.8234 -28.0069
-28.5828 -29.8234 -45.1003
34.4274 -29.8234 5.1840
2.8944 -29.8234 10.2431
-19.2052 -29.8234 -17.5147
16.1516 -29.8234 41.6474
-27.4694 -29.8234 14.3551
-10.7483 -29.8234 -35.9983
-26.3253 -29.8234 26.8036
-21.0812 -29.8234 38.4827
-39.1451 -29.8234 -9.4585
36.7529 -29.8234 -33.7077
11.4862 -29.8234 -1.3052
-33.9776 -29.8234 -58.8670
24.6243 -29.8234 -26.2535
8.0746 -29.8234 -37.0939
-36.9499 -29.8234 37.3790
-7.3182 -29.8234 14.8974
0.6651 -29.8234 25.3765
35.7219 -29.8234 -29.3552
-13.8506 -29.8234 61.8517
0.9060 -29.8234 -60.2045
-7.5459 -29.8234 -30.1705
18.4031 -29.8234 43.5686
33.1139 -29.8234 -58.1942
-7.6462 -29.8234 19.3257
8.7531 -29.8234 -35.0324
24.1061 -29.8234 -57.5243
-5.3326 -29.8234 -42.2380
-10.7981 -29.8234 -57.2542
-24.1833 -29.8234 -0.3825
-31.6155 -29.8234 34.7654
-9.5680 -29.8234 -9.4114
-39.7185 -29.8234 40.5015
-34.9312 -29.8234 -32.9529
-22.7419 -29.8234 -26.3756
-22.5625 -29.8234 -53.5661
20.0253 -29.8234 -16.6543
3.0648 -29.8234 -58.0581
9.0624 -29.8234 -26.8304
23.1645 -29.8234 -53.1965
-20.0315 -29.8234 -55.7795
-32.4991 -29.8234 -15.3120
16.2857 -29.8234 -41.1915
-10.6380 -29.8234 -6.4417
39.9035 -29.8234 18.9768
28.4737 -29.8234 53.9161
15.0943 -29.8234 -44.4975
-35.5130 -29.8234 43.1673
32.3040 -29.8234 -57.9523
1.3924 -29.8234 -61.6459
27.4169 -29.8234 30.2269
5.9836 -29.8234 -26.0579
-2.9427 -29.8234 2.4360
2.6428 -29.8234 47.0861
7.1800 -29.8234 54.5210
-33.3062 -29.8234 -58.3159
31.9761 -29.8234 -6.1526
-11.5941 -29.8234 -26.3364
-10.7540 -29.8234 60.8294
-36.1469 -29.8234 7.9700
22.4358 -29.8234 24.0038
-19.7341 -29.8234 -3.5526
-0.8478 -29.8234 55.4196
29.7749 -29.8234 -56.6237
-12.4591 -29.8234 45.7860
-29.0678 -29.8234 50.9587
31.9315 -29.8234 -36.0568
-31.1532 -29.8234 -32.3530
4.9475 -29.8234 -9.4491
-17.3927 -29.8234 44.8610
10.5781 -29.8234 -8.9382
7.3653 -29.8234 29.2495
7.7338 -29.8234 -20.2413
-28.3191 -29.8234 45.4387
24.1427 -29.8234 -61.0854
-5.8448 -29.8234 -38.5749
-22.6697 -29.8234 5.9896
-16.7011 -29.8234 28.4841
-39.9951 -29.8234 49.1691
-15.8826 -29.8234 8.7427
-36.6949 -29.8234 6.8942
-3.9632 -29.8234 -38.9150
-6.5723 -29.8234 40.9275
14.7030 -29.8234 44.1574
11.3784 -29.8234 58.5117
-6.8636 -29.8234 40.3449
30.9304 -29.8234 8.5438
22.2445 -29.8234 46.6600
-4.3393 -29.8234 38.3379
27.8066 -29.8234 39.1186
-5.5215 -29.8234 -52.6781
21.1093 -29.8234 -17.9978
-32.3422 -29.8234 -40.7394
10.6690 -29.8234 39.9457
-7.8366 -29.8234 -39.3957
13.4903 -29.8234 62.3736
8.5361 -29.8234 -62.7459
-13.7447 -29.8234 -27.7634
14.3996 -29.8234 40.3858
-20.4065 -29.8234 60.8771
-1.8539 -29.8234 23.0511
-21.1998 -29.8234 -48.0215
-28.8978 -29.8234 58.6590
20.3208 -29.8234 -62.6382
25.6151 -29.8234 62.0848
11.8077 -29.8234 -45.5860
21.3682 -29.8234 -18.8763
33.9831 -29.8234 41.4831
33.5331 -29.8234 18.0330
20.8122 -29.8234 -11.5690
-20.1023 -29.8234 19.2051
25.5212 -29.8234 61.6130
-30.8549 -29.8234 -29.1522
25.2188 -29.8234 -15.7251
-24.1474 -29.8234 -35.0243
7.1783 -29.8234 -3.9336
-38.5802 -29.8234 -20.9745
-6.2759 -29.8234 -10.8919
8.1598 -29.8234 -59.5404
0.4491 -29.8234 2.6318
-15.6870 -29.8234 55.2591
-4.8297 -29.8234 -7.8017
-0.6170 -29.8234 29.7574
-15.0449 -29.8234 7.3109
0.5340 -29.8234 37.8525
25.1793 -29.8234 14.6562
-16.2021 -29.8234 -6.4933
-31.3641 -29.8234 27.6330
25.8303 -29.8234 18.0585
-6.2688 -29.8234 -33.4275
-22.6911 -29.8234 61.0760
-8.8129 -29.8234 41.5408
24.1187 -29.8234 -40.6831
24.1830 -29.8234 -1.2732
-11.0718 -29.8234 -29.6798
-32.4322 -29.8234 -22.5139
16.9383 -29.8234 -22.3970
-16.0630 -29.8234 1.2548
-0.8329 -29.8234 -45.8642
-33.4136 -29.8234 10.0159
-13.3841 -29.8234 -57.8967
32.1493 -29.8234 -56.6183
-13.3636 -29.8234 -54.4003
38.4771 -29.8234 -15.1531
35.4653 -29.8234 -33.3664
-37.1513 -29.8234 6.3173
27.1561 16.4769 62.7800
-39.5824 1.6405 62.7800
29.2629 10.9208 62.7800
-18.1783 16.2043 62.7800
-15.0633 9.4729 62.7800
21.1608 -23.5984 62.7800
29.8487 19.2996 62.7800
24.5863 -19.6079 62.7800
-0.6880 13.9809 62.7800
-10.2478 -15.7419 62.7800
6.8658 25.3265 62.7800
6.2996 -28.4668 62.7800
36.1600 22.2046 62.7800
12.7569 -8.6095 62.7800
-39.4264 27.6390 62.7800
-37.7997 -14.0307 62.7800
14.3666 10.7203 62.7800
-5.3889 21.7388 62.7800
-17.8776 12.3494 62.7800
-37.6176 28.9400 62.7800
34.7916 11.9403 62.7800
-26.3436 -28.4584 62.7800
8.2885 -23.4566 62.7800
32.6641 15.4669 62.7800
-27.0494 27.5708 62.7800
-35.5454 -26.5280 62.7800
37.7699 3.7114 62.7800
-16.4247 -23.7012 62.7800
34.5318 14.9257 62.7800
9.9997 -23.2725 62.7800
22.7847 4.3579 62.7800
31.0507 -19.0189 62.7800
-9.3462 27.2821 62.7800
-10.8834 -2.6479 62.7800
28.0980 15.2738 62.7800
37.9787 20.7099 62.7800
15.4062 -24.0498 62.7800
1.6571 -5.1450 62.7800
-39.1899 -5.6328 62.7800
12.3879 3.3107 62.7800
5.3049 -1.9341 62.7800
10.6108 6.9381 62.7800
25.4926 22.5059 62.7800
-28.7540 28.7110 62.7800
-35.1755 -16.1958 62.7800
21.6648 0.8501 62.7800
36.2227 -24.1301 62.7800
-19.1925 -9.8478 62.7800
-5.4550 -11.7756 62.7800
-39.0138 6.7776 62.7800
-25.4472 4.5010 62.7800
-36.4434 -13.6252 62.7800
29.5757 -22.2834 62.7800
-26.8113 -8.2850 62.7800
29.3413 -28.7566 62.7800
-5.9146 5.6641 62.7800
-11.8767 17.3143 62.7800
-6.4759 -11.5923 62.7800
-28.2756 2.1673 62.7800
11.3431 17.2346 62.7800
3.8827 -13.9285 62.7800
32.3452 -27.1066 62.7800
-27.5306 -25.5999 62.7800
-20.0626 -0.1972 62.7800
12.4618 26.9376 62.7800
-26.4610 5.4974 62.7800
23.7865 -16.2721 62.7800
19.9390 -12.7861 62.7800
20.5689 -16.1171 62.7800
15.5123 3.6131 62.7800
35.1483 -9.7496 62.7800
27.6459 -3.6464 62.7800
-5.4227 -12.7361 62.7800
23.0329 -18.3186 62.7800
31.3446 -8.6552 62.7800
-34.6122 -25.9308 62.7800
9.4930 4.0105 62.7800
-17.4283 -12.2421 62.7800
-11.9900 25.6717 62.7800
3.9221 1.4187 62.7800
-15.8960 2.1147 62.7800
34.6480 16.9704 62.7800
39.6887 -14.9618 62.7800
24.8454 -11.1864 62.7800
17.4596 -9.8231 62.7800
-8.5226 -21.8045 62.7800
6.5189 -13.7339 62.7800
6.2816 5.1379 62.7800
-27.3719 18.6836 62.7800
19.2537 -1.6205 62.7800
-20.2070 9.9302 62.7800
-0.1589 -29.2803 62.7800
-36.3148 -6.8165 62.7800
9.3986 -19.2655 62.7800
-14.6082 -4.1762 62.7800
22.0116 -11.2556 62.7800
-1.0490 16.8714 62.7800
-10.9534 -14.4728 62.7800
8.9484 -29.0019 62.7800
-38.4502 -8.2234 62.7800
-22.3637 -16.3791 62.7800
-5.6021 0.1956 62.7800
-5.3797 19.5190 62.7800
-37.1124 -9.4006 62.7800
-0.8673 -22.0424 62.7800
18.7156 5.8352 62.7800
26.7558 16.7443 62.7800
22.8068 -26.3162 62.7800
5.6837 22.6771 62.7800
19.1051 6.9526 62.7800
17.7825 -6.5471 62.7800
-5.6163 -5.0996 62.7800
17.0893 12.5314 62.7800
32.7278 -5.3855 62.7800
32.2883 -1.1247 62.7800
37.5479 -14.5459 62.7800
12.2514 -16.1394 62.7800
17.4988 28.2787 62.7800
28.1259 19.4909 62.7800
-35.9399 10.0234 62.7800
-26.0787 13.4354 62.7800
33.0452 -1.1165 62.7800
-10.3948 -16.6693 62.7800
-14.1033 4.8852 62.7800
-19.6516 -6.9758 62.7800
-19.7211 -9.0668 62.7800
0.6801 -8.9839 62.7800
-5.1140 -15.4200 62.7800
5.7785 24.3874 62.7800
34.8198 28.1992 62.7800
30.7098 10.0653 62.7800
23.9405 25.2267 62.7800
30.8741 0.7040 62.7800
6.5228 -12.7716 62.7800
-37.6365 23.7824 62.7800
31.4641 -2.0838 62.7800
-16.4379 -10.7027 62.7800
1.5717 -6.7779 62.7800
9.0529 10.3360 62.7800
-3.4551 18.1606 62.7800
-13.6323 -19.6965 62.7800
17.5280 1.7439 62.7800
8.1426 -20.1789 62.7800
36.2330 15.9810 62.7800
-0.3681 -19.5281 62.7800
4.1933 9.3178 62.7800
-23.9801 -2.5307 62.7800
-11.9081 -8.4210 62.7800
9.2314 -18.8804 62.7800
0.4764 -27.8214 62.7800
4.1610 -3.9037 62.7800
9.5625 18.3082 62.7800
3.2161 2.2747 62.7800
-17.2015 -3.7108 62.7800
24.9125 29.3027 62.7800
31.0229 5.7736 62.7800
-22.7160 -23.0870 62.7800
-5.2278 -6.7332 62.7800
-2.6601 8.7077 62.7800
-36.1801 -28.4130 62.7800
-18.1326 -22.6883 62.7800
-33.9358 -23.7739 62.7800
33.7016 -16.9791 62.7800
-30.7498 -7.7375 62.7800
-12.4434 -25.8912 62.7800
-38.8438 1.8307 62.7800
17.5439 -22.4391 62.7800
31.2433 22.8282 62.7800
7.6294 28.2135 62.7800
5.7634 -3.4789 62.7800
-11.9764 -13.9757 -62.7800
15.8712 1.5969 -62.7800
30.6262 9.3023 -62.7800
-27.1665 -26.7976 -62.7800
-21.2081 6.8074 -62.7800
-28.5662 -2.0934 -62.7800
18.9730 -24.5529 -62.7800
34.7399 15.6226 -62.7800
20.9448 -11.1819 -62.7800
-22.3712 24.2257 -62.7800
-12.7209 21.2081 -62.7800
-20.8258 6.9455 -62.7800
-26.9045 24.6254 -62.7800
39.5497 -6.5764 -62.7800
-37.5431 -26.3101 -62.7800
35.4233 1.4337 -62.7800
6.3022 -2.1561 -62.7800
-8.9062 19.1385 -62.7800
-28.8106 -1.8642 -62.7800
-3.9622 8.7913 -62.7800
-29.6323 -10.4363 -62.7800
-18.9696 0.2485 -62.7800
-1.9748 22.6402 -62.7800
26.2678 24.3701 -62.7800
-4.8639 18.0920 -62.7800
9.3286 -25.6287 -62.7800
-3.5447 -12.3344 -62.7800
15.2015 -18.9597 -62.7800
-16.6981 -25.2778 -62.7800
-17.8633 19.3255 -62.7800
38.6813 -9.4980 -62.7800
-37.7738 17.9448 -62.7800
4.1416 14.3914 -62.7800
6.0923 11.7938 -62.7800
-36.6996 -5.3072 -62.7800
-33.2155 2.0473 -62.7800
1.0627 9.3677 -62.7800
-34.7513 22.5412 -62.7800
-18.9043 -28.0129 -62.7800
16.8714 -22.9167 -62.7800
-15.0534 7.3644 -62.7800
9.8177 -21.6610 -62.7800
-35.1874 -22.2553 -62.7800
-22.8793 20.7704 -62.7800
11.9115 -25.3817 -62.7800
-34.9122 -26.9657 -62.7800
-39.6578 -21.3664 -62.7800
16.2769 11.4067 -62.7800
34.1088 6.1374 -62.7800
39.1844 -7.9349 -62.7800
17.1100 5.4752 -62.7800
-21.9757 -0.6025 -62.7800
-10.4031 15.5695 -62.7800
-21.4060 4.2720 -62.7800
-38.8263 -22.4850 -62.7800
-37.2287 18.8562 -62.7800
-35.1794 -6.1605 -62.7800
7.6403 17.1985 -62.7800
-18.4408 -7.9402 -62.7800
-29.6678 24.9785 -62.7800
-14.3471 25.9230 -62.7800
-32.2344 -19.0175 -62.7800
31.1558 -29.6169 -62.7800
-1.0894 1.5338 -62.7800
-7.9185 27.1256 -62.7800
-30.2882 -28.8733 -62.7800
-36.4405 -15.1495 -62.7800
-8.8787 -3.1293 -62.7800
-39.7894 11.2408 -62.7800
13.0677 -26.3417 -62.7800
-22.5469 -4.2056 -62.7800
-32.5342 0.1668 -62.7800
-35.1139 -1.8718 -62.7800
-37.3746 -6.7124 -62.7800
23.5705 14.3265 -62.7800
3.0443 -9.5398 -62.7800
-37.3330 21.2808 -62.7800
0.5820 16.7682 -62.7800
-23.3243 -15.4948 -62.7800
-8.4517 -7.2601 -62.7800
11.8931 5.9734 -62.7800
-13.4941 -7.2974 -62.7800
34.0691 13.0936 -62.7800
3.3565 -19.1563 -62.7800
-25.9106 0.5639 -62.7800
35.6873 -19.9633 -62.7800
-34.0848 -20.8897 -62.7800
-38.0135 0.5936 -62.7800
36.0976 1.6284 -62.7800
8.9605 5.4445 -62.7800
-15.3503 0.9333 -62.7800
8.5612 -23.2187 -62.7800
16.6780 2.3146 -62.7800
-29.1018 0.4870 -62.7800
-20.9501 0.0886 -62.7800
-2.9842 9.8135 -62.7800
13.5590 14.6621 -62.7800
-28.5234 -11.6882 -62.7800
-32.0109 -3.1161 -62.7800
-35.2309 12.4684 -62.7800
-0.0280 -27.0532 -62.7800
-8.9752 9.7668 -62.7800
19.8569 12.2995 -62.7800
7.2705 -12.2343 -62.7800
-18.1408 -4.7144 -62.7800
35.5201 15.9728 -62.7800
-3.4708 12.5761 -62.7800
26.6660 -9.8533 -62.7800
6.9288 -10.2102 -62.7800
25.4353 -1.9882 -62.7800
-18.9961 21.4410 -62.7800
-7.1061 27.3396 -62.7800
21.1346 11.3910 -62.7800
10.2972 -22.4648 -62.7800
39.8736 18.1143 -62.7800
21.4199 29.2626 -62.7800
4.2347 -22.4205 -62.7800
35.9425 -18.2719 -62.7800
-11.4761 2.8836 -62.7800
-4.4767 4.2697 -62.7800
-37.3125 -10.4426 -62.7800
36.9792 4.7972 -62.7800
31.2775 8.7808 -62.7800
-25.3482 16.0793 -62.7800
-6.8998 -18.3005 -62.7800
-25.0721 9.4107 -62.7800
-6.8155 -3.1866 -62.7800
31.2685 16.7374 -62.7800
-19.1948 -6.1487 -62.7800
-34.1009 15.5212 -62.7800
19.1741 -25.8688 -62.7800
2.4285 1.1078 -62.7800
21.4150 11.0718 -62.7800
5.4619 9.9665 -62.7800
-11.8523 -10.1610 -62.7800
11.3247 -0.0875 -62.7800
29.0080 19.6015 -62.7800
-29.2454 -2.6577 -62.7800
25.9975 -14.9863 -62.7800
32.6509 0.6041 -62.7800
-0.6804 5.1543 -62.7800
-4.5973 20.9696 -62.7800
-25.3405 -18.6607 -62.7800
2.8686 -24.9054 -62.7800
-5.7901 -19.4985 -62.7800
-12.2810 -8.3282 -62.7800
-36.2206 -29.3232 -62.7800
-27.7093 -9.1988 -62.7800
38.5878 28.1497 -62.7800
-28.1539 -5.0886 -62.7800
0.3480 25.2321 -62.7800
21.6459 -24.2628 -62.7800
-4.8760 -28.5995 -62.7800
-4.3545 10.2506 -62.7800
-22.4804 -19.3739 -62.7800
-5.1831 15.6906 -62.7800
-1.1700 1.8925 -62.7800
-29.3193 -18.6236 -62.7800
-36.4722 1.2431 -62.7800
-13.2697 19.4059 -62.7800
-29.0038 -21.9032 -62.7800
-8.5387 20.2635 -62.7800
-34.5384 -15.0413 -62.7800
-36.2189 17.2713 -62.7800
12.3775 28.1567 -62.7800
-0.0395 20.1526 -62.7800
34.4817 12.4163 -62.7800
35.4027 -14.8630 -62.7800
30.8453 17.0578 -62.7800
15.3314 -11.3746 -62.7800
