ply
format ascii 1.0
element vertex 1024
property float x
property float y
property float z
end_header
31.2541 47.3640 -61.0314
31.2541 -84.4134 56.3376
31.2541 44.5909 61.6033
31.2541 -19.3730 48.1027
31.2541 65.2201 -50.4991
31.2541 52.8062 51.4184
31.2541 -37.0926 -13.7936
31.2541 30.5108 -46.2068
31.2541 -66.4365 -34.6925
31.2541 -45.5267 -63.6417
31.2541 39.6394 -91.0930
31.2541 -2.3272 -84.5414
31.2541 0.2556 25.3478
31.2541 13.5149 4.5950
31.2541 23.0714 -33.6808
31.2541 -39.6564 0.3485
31.2541 6.1427 62.7062
31.2541 -25.9555 71.1535
31.2541 -50.6721 68.0324
31.2541 -52.0326 -30.5236
31.2541 85.1062 -49.2016
31.2541 7.6888 -22.5382
31.2541 12.0732 0.8166
31.2541 -40.9370 -93.7239
31.2541 21.7174 80.6538
31.2541 -56.1592 -30.0390
31.2541 63.5276 86.7568
31.2541 -45.2636 23.9855
31.2541 28.5461 91.7462
31.2541 -54.6135 12.2654
31.2541 64.4637 -72.8950
31.2541 25.9190 7.8053
31.2541 7.0233 17.0688
31.2541 13.6435 53.5328
31.2541 -22.2877 50.8085
31.2541 -49.8015 -41.7020
31.2541 -20.4541 -44.9812
31.2541 75.0983 -42.9447
31.2541 -67.0410 -91.1501
31.2541 -35.5428 -85.7135
31.2541 -62.9068 -93.4025
31.2541 -4.9909 82.9012
31.2541 -73.1785 29.3077
31.2541 -1.7697 -45.2609
31.2541 33.8506 70.0799
31.2541 25.7877 -15.3784
31.2541 37.4255 -20.2603
31.2541 65.7787 1.4697
31.2541 -6.7648 -13.4467
31.2541 12.4393 -69.6612
31.2541 17.3508 -11.0178
31.2541 84.4117 81.9593
31.2541 -25.8654 -35.8800
31.2541 32.5871 90.1802
31.2541 -64.4119 46.0097
31.2541 67.2326 34.9628
31.2541 -47.9441 -89.2274
31.2541 41.7259 92.7684
31.2541 20.9737 -1.4575
31.2541 -46.2455 -49.8673
31.2541 62.6809 -32.4266
31.2541 18.0205 92.8772
31.2541 -9.0112 -75.7969
31.2541 42.9456 40.0621
31.2541 39.0982 74.4233
31.2541 33.8881 65.0380
31.2541 -13.5714 2.8754
31.2541 64.2405 -87.2811
31.2541 -75.1839 80.8843
31.2541 -74.8836 -74.2367
31.2541 -14.9909 51.5651
31.2541 57.4295 -50.5361
31.2541 82.2886 -18.4645
31.2541 23.5582 -83.4640
31.2541 -79.5952 66.4583
31.2541 17.0342 76.6269
31.2541 63.5539 54.3919
31.2541 59.0734 52.3210
31.2541 4.9763 6.0809
31.2541 32.3900 27.3920
31.2541 10.8224 -42.7304
31.2541 1.4834 -15.5150
31.2541 -74.3854 79.3792
31.2541 -3.7355 -20.0613
31.2541 -76.3658 -73.5262
31.2541 5.8639 85.0176
31.2541 -49.4811 -24.2735
31.2541 8.0567 -30.7587
31.2541 -74.6789 92.8090
31.2541 38.1070 57.4078
31.2541 -61.7094 -54.5326
31.2541 1.8778 -14.3139
31.2541 -15.3590 -87.1714
31.2541 -48.0539 -83.0375
31.2541 -33.7764 75.0945
31.2541 45.0271 55.0782
31.2541 -33.3188 -39.1700
31.2541 -1.6147 26.2702
31.2541 -10.6024 31.7620
31.2541 -85.1898 -12.4182
31.2541 -14.7150 -67.1840
31.2541 -66.0768 -68.1516
31.2541 81.7776 30.2421
31.2541 8.7035 -38.1795
31.2541 -73.1857 -16.6243
31.2541 -72.0013 6.8633
31.2541 -19.0772 -60.1270
31.2541 42.9934 9.7240
31.2541 65.8870 91.7386
31.2541 -2.8405 58.3447
31.2541 61.3344 70.4893
31.2541 32.7878 60.3395
31.2541 10.5644 33.2215
31.2541 28.7246 72.2032
31.2541 -40.0377 -69.9725
31.2541 -38.4270 15.5830
31.2541 -29.2492 35.7059
31.2541 34.7723 46.0978
31.2541 -81.3328 -18.2421
31.2541 43.5266 -86.6958
31.2541 18.4943 54.0285
31.2541 57.1462 94.0471
31.2541 -52.4558 -27.3524
31.2541 -26.2650 46.6938
31.2541 17.2227 60.5064
31.2541 35.0454 -63.8579
31.2541 29.2572 -72.4325
31.2541 13.4937 21.4365
31.2541 40.3510 84.2179
31.2541 57.1006 -94.3409
31.2541 80.6411 92.1606
31.2541 85.7748 28.1523
31.2541 -37.7591 -21.7044
31.2541 -10.6893 67.3328
31.2541 85.3649 22.3532
31.2541 -55.9068 64.3358
31.2541 66.2417 21.9948
31.2541 -30.8772 -45.5303
31.2541 -50.8474 61.0235
31.2541 1.5600 19.0508
31.2541 43.1945 42.5298
31.2541 -40.8754 72.6361
31.2541 -5.5067 -21.5799
31.2541 13.6470 -4.6641
31.2541 81.9986 37.7509
31.2541 -73.7442 -54.7249
31.2541 33.5636 90.0214
31.2541 67.6293 57.4687
31.2541 36.0335 25.2895
31.2541 46.2242 -42.6706
31.2541 -7.4188 -39.0060
31.2541 -76.1699 -40.7000
31.2541 30.0549 -29.9368
31.2541 50.1583 -40.2611
31.2541 56.1859 81.4050
31.2541 -53.2676 59.2759
31.2541 48.7978 -78.5056
31.2541 13.2523 -79.5029
31.2541 63.0681 -29.8631
31.2541 14.2807 -2.8973
31.2541 43.4443 -66.4951
31.2541 -56.8940 -88.7650
31.2541 -60.6526 -70.8395
31.2541 4.4137 -88.9425
31.2541 -84.1994 -11.6956
31.2541 -37.9763 84.7607
31.2541 -38.8917 -25.0119
31.2541 -65.7779 -45.5933
31.2541 -60.8246 -64.3087
31.2541 25.2944 63.8892
31.2541 17.8532 -66.7791
-31.2541 -35.4488 36.0195
-31.2541 -1.7892 -88.6737
-31.2541 -61.3088 -42.1435
-31.2541 17.0387 -35.9366
-31.2541 57.3125 60.6927
-31.2541 7.9832 2.7559
-31.2541 -82.4304 48.7366
-31.2541 58.3291 -28.3094
-31.2541 -85.7437 20.5402
-31.2541 -42.0253 -2.2337
-31.2541 -22.5286 -0.8163
-31.2541 -82.3806 -92.2249
-31.2541 29.8489 -45.6210
-31.2541 -54.8364 -58.4125
-31.2541 -70.2390 58.7756
-31.2541 -31.1090 45.9002
-31.2541 84.7692 65.4684
-31.2541 -80.3683 34.2119
-31.2541 -71.3215 20.9990
-31.2541 10.1034 -48.4131
-31.2541 -78.7414 -24.2569
-31.2541 76.0817 -63.4402
-31.2541 -21.5122 65.7698
-31.2541 70.4365 10.0119
-31.2541 84.4110 17.8018
-31.2541 -51.5294 -76.7363
-31.2541 57.7537 69.0147
-31.2541 7.7537 19.2382
-31.2541 -31.9732 -42.1982
-31.2541 -30.3187 7.9117
-31.2541 21.2532 76.0560
-31.2541 -53.3346 78.3337
-31.2541 33.0641 47.5708
-31.2541 79.3356 37.7161
-31.2541 -60.7980 62.4793
-31.2541 20.4727 -57.1325
-31.2541 -20.5444 51.8775
-31.2541 -38.8238 -76.7584
-31.2541 -79.9609 7.6886
-31.2541 -34.0042 21.9373
-31.2541 57.7927 -40.5812
-31.2541 29.8180 46.9671
-31.2541 -53.0217 79.4216
-31.2541 75.6881 14.2192
-31.2541 6.4816 -88.8703
-31.2541 -17.1341 9.5068
-31.2541 67.6031 -58.3273
-31.2541 54.1093 84.8200
-31.2541 -6.7036 -30.7912
-31.2541 -31.5000 68.3944
-31.2541 -17.8343 -77.4896
-31.2541 -63.1849 -83.6118
-31.2541 56.5218 15.7110
-31.2541 -47.9770 34.7281
-31.2541 -53.4848 90.7100
-31.2541 -41.2893 49.8233
-31.2541 34.9348 -13.7963
-31.2541 31.2617 -87.8809
-31.2541 15.8847 65.7513
-31.2541 68.7017 -72.0234
-31.2541 36.6072 -33.3503
-31.2541 17.1835 68.2468
-31.2541 -9.0697 44.0423
-31.2541 -62.1038 -75.2637
-31.2541 -57.5545 35.6015
-31.2541 -50.4451 67.8280
-31.2541 75.2715 -20.3459
-31.2541 74.7198 16.8942
-31.2541 27.5548 -1.8024
-31.2541 15.8161 -54.5738
-31.2541 81.9036 64.1221
-31.2541 -39.9136 82.9843
-31.2541 73.5460 -6.7126
-31.2541 41.3999 6.1398
-31.2541 -13.9393 40.4471
-31.2541 -45.8935 49.4289
-31.2541 -85.0400 60.5435
-31.2541 72.4247 -10.3281
-31.2541 8.1718 31.0124
-31.2541 -73.6650 -61.4473
-31.2541 -6.0595 -54.7417
-31.2541 11.3031 -84.4349
-31.2541 -12.8888 -27.9316
-31.2541 -41.9068 -5.0082
-31.2541 15.9145 -69.7229
-31.2541 26.4105 78.3377
-31.2541 57.4468 -50.6738
-31.2541 -20.2580 -87.3314
-31.2541 20.1752 87.1155
-31.2541 46.5206 -43.2784
-31.2541 -46.8218 26.5405
-31.2541 -39.7901 4.5380
-31.2541 41.5340 10.9024
-31.2541 51.7390 13.1944
-31.2541 -67.4961 -6.5857
-31.2541 53.8392 -89.9143
-31.2541 -35.0688 -17.3579
-31.2541 60.7682 82.4689
-31.2541 -13.5116 40.4219
-31.2541 27.3740 -39.1198
-31.2541 -67.3982 8.4537
-31.2541 50.9015 81.5013
-31.2541 81.1643 44.2028
-31.2541 83.1129 -20.8117
-31.2541 -61.5002 76.6364
-31.2541 74.2945 7.4816
-31.2541 -23.4935 -52.0357
-31.2541 84.6887 -85.3648
-31.2541 -43.9297 89.8587
-31.2541 31.5960 -43.2477
-31.2541 -41.9972 -76.1404
-31.2541 -63.8225 -66.2135
-31.2541 -80.6797 83.7967
-31.2541 17.2695 20.4608
-31.2541 -8.4794 36.7231
-31.2541 49.9815 -8.3790
-31.2541 12.6724 13.9225
-31.2541 28.4958 -56.2742
-31.2541 -49.4265 18.6158
-31.2541 -22.8487 -34.3453
-31.2541 13.5766 38.8303
-31.2541 -34.8402 73.6774
-31.2541 52.8705 45.7750
-31.2541 -18.9111 5.2360
-31.2541 -54.6483 -39.0874
-31.2541 -56.9906 -18.8758
-31.2541 84.3099 -8.7738
-31.2541 47.3661 -69.5209
-31.2541 -84.0749 32.6611
-31.2541 51.9380 -2.0350
-31.2541 -62.7953 4.0855
-31.2541 -35.3172 -2.7722
-31.2541 54.8217 18.5689
-31.2541 -57.8077 -45.0571
-31.2541 -22.5964 31.3005
-31.2541 -21.5557 -83.1832
-31.2541 -54.4477 43.6980
-31.2541 12.0067 -46.1845
-31.2541 -79.8908 -41.7102
-31.2541 4.4259 -27.3229
-31.2541 -44.9426 19.6628
-31.2541 -24.8176 -51.6649
-31.2541 48.1684 65.7605
-31.2541 -5.3151 88.5154
-31.2541 -33.8960 33.5254
-31.2541 -63.2844 -26.2663
-31.2541 26.3343 -6.0180
-31.2541 -34.6343 43.9692
-31.2541 -55.9357 31.3689
-31.2541 -84.5008 82.7078
-31.2541 6.2743 87.9361
-31.2541 -19.6052 30.9659
-31.2541 75.9193 11.0078
-31.2541 69.3284 27.6639
-31.2541 30.5903 -51.0537
-31.2541 -1.6973 -24.2891
-31.2541 12.3081 -21.8062
-31.2541 -47.7497 85.5795
-31.2541 -17.5520 64.7926
-31.2541 -42.3724 86.5987
-31.2541 -28.6765 -33.3858
-31.2541 21.5036 -16.4090
-31.2541 -38.3901 21.6591
-31.2541 -13.5578 -28.0034
-31.2541 -30.5916 16.4997
-31.2541 -10.6606 35.6601
-31.2541 46.2040 19.8054
-31.2541 -12.7539 -6.7633
-31.2541 76.6327 -87.6687
-31.2541 -24.6922 80.0550
-31.2541 50.4589 44.9347
-22.0429 85.9599 13.7488
-23.6014 85.9599 -53.3997
-9.8305 85.9599 17.6882
8.2616 85.9599 -55.0087
-21.6092 85.9599 -12.9944
17.0310 85.9599 -24.2817
-5.2412 85.9599 -71.3710
-5.8127 85.9599 -92.8436
-5.0073 85.9599 93.8276
-15.9413 85.9599 0.3266
-23.8694 85.9599 62.1134
18.8085 85.9599 -89.1808
1.5458 85.9599 -14.5086
-2.5655 85.9599 67.5790
-0.8011 85.9599 69.2080
25.6163 85.9599 14.0664
23.1867 85.9599 -9.8223
-28.4636 85.9599 -20.3125
9.2675 85.9599 15.1732
-6.0773 85.9599 -61.7839
12.8118 85.9599 72.8043
-21.5439 85.9599 -93.4576
4.3332 85.9599 -44.8607
1.3885 85.9599 -56.8351
17.0331 85.9599 23.9345
30.8985 85.9599 -60.4040
23.2824 85.9599 -84.5456
-22.1119 85.9599 -0.7544
-16.6750 85.9599 -0.1157
-15.0894 85.9599 -48.5936
13.2667 85.9599 4.3239
20.7751 85.9599 73.3449
21.5428 85.9599 -37.2690
-11.7079 85.9599 -90.7283
0.0187 85.9599 -91.9817
7.2827 85.9599 89.7169
4.1448 85.9599 -39.7990
-4.0423 85.9599 70.3623
-26.7357 85.9599 -50.8685
-16.1650 85.9599 -48.1012
-21.1689 85.9599 -56.7232
-20.4990 85.9599 84.5450
25.5961 85.9599 56.1077
-28.6763 85.9599 63.3438
-19.3638 85.9599 -2.7755
1.0422 85.9599 -33.5580
19.7085 85.9599 73.2801
-23.5475 85.9599 39.6230
-11.6844 85.9599 18.3502
-16.3927 85.9599 29.3076
-4.5373 85.9599 9.5411
-13.9264 85.9599 -77.0292
-12.9991 85.9599 -39.1530
26.4429 85.9599 23.3812
4.3763 85.9599 94.0762
23.6545 85.9599 -85.5542
-28.1866 85.9599 -48.8418
-27.3085 85.9599 -90.8538
3.2618 85.9599 -24.8580
-11.7798 85.9599 -5.5484
11.9203 85.9599 -10.7125
-1.3772 85.9599 80.4070
5.6778 85.9599 47.6226
-11.8049 85.9599 -29.3152
15.3208 85.9599 44.9728
-30.3613 85.9599 -9.2122
11.5922 85.9599 -58.3845
-17.3319 85.9599 -39.9675
15.5212 85.9599 -1.8446
-18.0279 85.9599 -65.2488
20.0438 85.9599 -10.8156
-3.0349 85.9599 66.8675
18.8982 85.9599 89.1541
26.8272 85.9599 -32.8656
-28.9452 85.9599 -63.4578
-22.8420 85.9599 71.3382
13.4432 85.9599 -74.1300
6.9663 85.9599 -46.2696
22.2192 85.9599 84.3089
4.4247 85.9599 -52.3021
13.3597 85.9599 91.5566
6.1797 85.9599 -81.4672
28.1185 85.9599 -34.1400
7.5750 85.9599 4.1850
-14.1866 85.9599 0.1013
-21.7610 85.9599 -83.6243
-19.4225 85.9599 78.5385
15.4444 85.9599 -56.7629
-16.2655 85.9599 65.9340
-18.1926 85.9599 83.1858
1.0763 85.9599 -20.7812
-26.7535 85.9599 76.2834
-11.9592 85.9599 -30.8499
27.3039 85.9599 -72.6269
26.0206 85.9599 69.7000
15.7015 85.9599 -43.6097
-24.0042 85.9599 -60.9256
4.8339 85.9599 3.6184
-1.2649 85.9599 -35.4092
-5.9415 85.9599 57.5147
3.7674 85.9599 -78.2896
7.6888 85.9599 22.4744
29.0367 85.9599 -64.1848
-10.2427 85.9599 9.0217
-17.1520 85.9599 -94.0479
-4.0398 85.9599 -29.4442
-11.0106 85.9599 25.0343
10.9564 85.9599 -34.8586
-11.8662 85.9599 -52.4790
-1.3781 85.9599 89.1506
16.7301 85.9599 -66.7212
24.4354 85.9599 -48.2404
4.5442 85.9599 -19.8436
11.0301 85.9599 43.3523
26.5798 85.9599 0.1423
10.9200 85.9599 -82.9575
13.1805 85.9599 -66.7149
27.1488 85.9599 31.6788
-2.7960 85.9599 -1.1254
24.8165 85.9599 -27.7423
27.4890 85.9599 10.0832
22.6648 85.9599 56.9681
10.0824 85.9599 61.3473
-14.2221 85.9599 37.8148
7.9481 85.9599 31.7101
-14.4848 85.9599 2.9459
-11.4227 85.9599 -40.4479
29.6333 85.9599 88.0676
25.9531 85.9599 34.0859
30.3659 85.9599 88.3872
-22.9326 85.9599 -53.8764
20.8186 85.9599 -61.7533
-21.6959 85.9599 -16.0547
-8.3618 85.9599 -5.4578
-29.3936 85.9599 -37.5582
3.7070 85.9599 -3.7502
18.3704 85.9599 16.3673
-27.9682 85.9599 93.7346
-17.8012 85.9599 -69.9344
5.4204 85.9599 61.9961
-14.2517 85.9599 94.4276
22.3041 85.9599 -15.4996
-16.4881 85.9599 58.9235
16.0659 85.9599 60.7607
-25.1169 85.9599 -83.1418
13.2559 85.9599 -74.7197
3.7029 85.9599 36.7341
-12.1773 85.9599 -72.2179
-11.8925 85.9599 38.1996
0.7506 85.9599 -40.1259
26.6160 85.9599 71.3202
18.4218 85.9599 -80.8094
-12.3248 85.9599 75.6736
-30.9434 85.9599 57.2799
-25.0923 85.9599 19.0175
-20.5600 85.9599 32.2879
21.4757 85.9599 7.8348
5.2118 85.9599 12.3908
-28.6391 85.9599 -18.6569
-18.7323 85.9599 -36.0536
25.4250 85.9599 59.6981
-4.2763 85.9599 56.9437
17.7033 85.9599 56.1378
12.0239 85.9599 77.5027
20.7819 85.9599 -70.7433
-8.0519 85.9599 38.0902
6.2630 85.9599 -57.4370
7.0192 85.9599 26.2936
-10.4468 85.9599 51.5289
-21.7708 85.9599 -2.5546
-18.8627 85.9599 -57.8709
18.2728 -85.9599 -18.8792
-14.5727 -85.9599 69.9369
23.7504 -85.9599 -55.1681
16.1023 -85.9599 49.2835
-26.2809 -85.9599 -64.6576
-13.7443 -85.9599 -7.4398
-20.1737 -85.9599 -58.0709
-21.6798 -85.9599 58.4299
5.1143 -85.9599 84.0225
-14.7555 -85.9599 20.6459
1.2844 -85.9599 -21.3668
27.5609 -85.9599 82.9129
22.6329 -85.9599 -25.3060
-2.3572 -85.9599 -69.4660
-18.7390 -85.9599 -14.2766
-20.1119 -85.9599 23.2694
-23.9286 -85.9599 82.0098
-14.4633 -85.9599 13.6163
-6.1919 -85.9599 38.9158
20.1509 -85.9599 -10.8628
11.4093 -85.9599 -55.4378
19.2503 -85.9599 75.4078
1.5673 -85.9599 59.4230
-9.2852 -85.9599 -40.2181
16.6552 -85.9599 -50.0773
-2.2954 -85.9599 -50.0387
15.8555 -85.9599 -64.5230
-16.3849 -85.9599 86.4610
-5.8428 -85.9599 86.9497
17.6732 -85.9599 22.8617
-3.1168 -85.9599 -80.0497
-23.1545 -85.9599 31.9743
-27.0710 -85.9599 -80.5550
-12.1906 -85.9599 -81.2869
-30.4093 -85.9599 -9.3017
19.6577 -85.9599 11.5080
-13.1061 -85.9599 43.9050
19.7028 -85.9599 -26.6152
-22.6368 -85.9599 -25.9322
-22.1286 -85.9599 4.9446
0.3565 -85.9599 17.3396
26.5865 -85.9599 -6.7049
-19.5522 -85.9599 -44.8249
26.5142 -85.9599 58.6724
22.6183 -85.9599 -88.6852
25.3798 -85.9599 12.5429
13.5935 -85.9599 78.2840
-30.7833 -85.9599 -68.3939
-9.2743 -85.9599 -12.4353
28.3948 -85.9599 91.3202
-0.9267 -85.9599 -79.1898
-10.4026 -85.9599 28.9715
-2.3267 -85.9599 93.3731
9.0785 -85.9599 -94.4979
-30.8411 -85.9599 -89.5598
17.8593 -85.9599 -60.6186
-17.0599 -85.9599 15.4387
-25.2000 -85.9599 69.6186
-21.9785 -85.9599 19.1237
-7.1118 -85.9599 19.0493
9.4942 -85.9599 -78.6957
-10.0689 -85.9599 77.9105
-19.3675 -85.9599 -88.6772
6.3835 -85.9599 -72.8979
-4.1909 -85.9599 -30.1234
-28.2174 -85.9599 -83.4750
-11.4701 -85.9599 -83.7515
11.2111 -85.9599 -16.1490
23.4183 -85.9599 -21.5763
9.2185 -85.9599 -19.7124
-20.1459 -85.9599 34.9661
-21.8233 -85.9599 -74.0797
23.3355 -85.9599 14.5784
24.6830 -85.9599 60.0102
27.6501 -85.9599 1.1030
7.4854 -85.9599 -35.8352
-7.7056 -85.9599 8.4658
-12.9477 -85.9599 39.7962
9.2229 -85.9599 59.8161
4.4969 -85.9599 3.5751
-30.6090 -85.9599 -42.6701
-4.9895 -85.9599 -2.1033
-1.3993 -85.9599 27.9644
-17.0787 -85.9599 -90.4888
16.2398 -85.9599 32.0121
-19.0752 -85.9599 55.5806
-24.7901 -85.9599 36.7001
-0.7392 -85.9599 -70.6866
27.4547 -85.9599 51.7384
-17.2633 -85.9599 29.3527
-29.1144 -85.9599 14.6002
4.0172 -85.9599 -29.9437
-21.2479 -85.9599 77.9807
21.1944 -85.9599 -67.6235
-3.6152 -85.9599 5.6498
25.4888 -85.9599 -60.6445
-22.0645 -85.9599 -29.8054
15.2103 -85.9599 60.7107
-23.3678 -85.9599 -34.6247
7.6571 -85.9599 -42.2605
4.1386 -85.9599 -45.2614
-26.0540 -85.9599 91.4979
-27.2533 -85.9599 4.1079
23.2547 -85.9599 30.1544
-11.7473 -85.9599 20.9465
-19.1679 -85.9599 59.1819
2.6000 -85.9599 27.8223
-20.1425 -85.9599 -86.0153
10.0343 -85.9599 90.1050
29.5257 -85.9599 30.0251
12.8160 -85.9599 -2.9054
-9.2245 -85.9599 17.0735
-15.4308 -85.9599 -86.7177
15.4539 -85.9599 56.0904
-6.2224 -85.9599 6.5758
-18.6582 -85.9599 -11.2971
-17.8581 -85.9599 -47.8956
27.2445 -85.9599 53.2402
-23.6992 -85.9599 9.8104
-30.9776 -85.9599 71.4092
0.6167 -85.9599 9.2745
8.7445 -85.9599 -88.6027
20.1869 -85.9599 40.7443
-13.2381 -85.9599 -46.8238
-22.9439 -85.9599 81.3429
17.5889 -85.9599 -60.4945
-11.4044 -85.9599 29.8136
-4.0069 -85.9599 -34.1111
14.8047 -85.9599 93.3431
14.7072 -85.9599 -57.8485
-14.7272 -85.9599 29.9136
-16.1901 -85.9599 36.1906
-15.4901 -85.9599 -42.8211
-4.6245 -85.9599 -0.4596
-30.4332 -85.9599 -90.9297
5.7033 -85.9599 -82.6688
-23.7915 -85.9599 -3.1657
-5.5936 -85.9599 -64.5151
5.1674 -85.9599 37.1653
-6.4154 -85.9599 -6.0857
18.7328 -85.9599 -69.3036
-5.2759 -85.9599 16.9137
-10.9121 -85.9599 -27.6033
-14.2494 -85.9599 28.2224
-19.6753 -85.9599 51.6769
-27.4279 -85.9599 -86.3912
6.9886 -85.9599 27.4051
8.3309 -85.9599 74.3813
10.0697 -85.9599 57.0522
28.3354 -85.9599 82.5288
17.1532 -85.9599 -68.2970
-19.2345 -85.9599 49.7379
14.4941 -85.9599 94.3112
-7.4425 -85.9599 73.0966
6.7582 -85.9599 20.4391
23.5332 -85.9599 -27.8114
12.3279 -85.9599 35.9398
-16.8050 -85.9599 -62.2597
-5.4833 -85.9599 -73.4320
-23.6006 -85.9599 66.7805
-26.2116 -85.9599 -64.4085
-27.1007 -85.9599 -19.4636
12.8571 -85.9599 37.8387
12.6533 -85.9599 -16.0146
15.7346 -85.9599 -46.9408
-3.7450 -85.9599 51.4879
-27.6582 -85.9599 -0.3849
-28.8318 -85.9599 74.4179
5.4382 -85.9599 -23.7262
17.2856 -85.9599 -60.4163
13.9923 -85.9599 -55.5720
29.3448 -44.6023 94.6464
4.5338 9.1996 94.6464
-13.2760 -68.6416 94.6464
-22.7398 -38.3928 94.6464
15.8894 7.0122 94.6464
-28.8177 -24.0958 94.6464
-7.7842 17.7463 94.6464
20.6056 14.6682 94.6464
-5.7340 -11.3844 94.6464
-26.3472 -81.5690 94.6464
-2.3833 1.0982 94.6464
13.5110 -26.8202 94.6464
18.2804 33.9529 94.6464
-1.5212 -7.0946 94.6464
-14.7762 9.4995 94.6464
-7.5571 16.6691 94.6464
16.6849 -66.9413 94.6464
20.5522 -57.4496 94.6464
-15.5170 41.0848 94.6464
-27.3873 -70.6017 94.6464
-30.1232 11.9848 94.6464
-0.6858 -62.5598 94.6464
19.1754 -49.1247 94.6464
27.8609 66.6479 94.6464
-26.7914 45.2487 94.6464
-1.5187 73.8135 94.6464
-14.0895 -64.8669 94.6464
-19.6909 -60.2154 94.6464
-26.6808 -79.1889 94.6464
-17.1505 -57.5404 94.6464
21.9406 42.4486 94.6464
21.5423 16.7272 94.6464
-24.4690 49.9352 94.6464
-14.1437 84.8082 94.6464
-15.1658 -6.8816 94.6464
6.6971 39.0671 94.6464
22.7644 -38.5292 94.6464
25.6029 -5.6129 94.6464
24.0440 24.7222 94.6464
30.0330 -61.2066 94.6464
25.5410 59.7219 94.6464
4.7409 53.7772 94.6464
-9.5721 -76.1929 94.6464
17.8068 -47.6482 94.6464
-23.9512 65.9225 94.6464
19.9812 -32.4810 94.6464
4.2268 -77.2732 94.6464
-8.4054 42.7763 94.6464
-1.4809 55.9643 94.6464
27.5658 -45.0915 94.6464
-29.8307 -4.1468 94.6464
11.0287 -69.0909 94.6464
22.1802 20.4229 94.6464
15.3762 5.6095 94.6464
8.7703 -52.1161 94.6464
-7.9548 -51.7389 94.6464
0.2959 8.7393 94.6464
-14.2089 -85.6859 94.6464
20.8386 -82.4223 94.6464
-11.1434 -77.2238 94.6464
12.3954 58.1381 94.6464
-8.6839 8.3860 94.6464
-29.0025 -60.0852 94.6464
13.6567 46.0456 94.6464
21.7531 41.4943 94.6464
10.1497 -83.8409 94.6464
24.0630 53.1854 94.6464
-20.7990 74.3602 94.6464
2.4807 57.7532 94.6464
-5.9728 6.1876 94.6464
19.6983 -62.9452 94.6464
3.6804 62.2998 94.6464
19.4447 46.9269 94.6464
-8.5236 40.9290 94.6464
24.4180 -60.8658 94.6464
-27.3328 84.9571 94.6464
-26.5912 80.4419 94.6464
27.8119 71.9544 94.6464
-15.6400 -11.9788 94.6464
20.5356 -32.5415 94.6464
-15.4440 33.3863 94.6464
-16.2714 53.5996 94.6464
-26.6142 -3.3006 94.6464
6.5451 80.8277 94.6464
-30.0072 25.1101 94.6464
25.5050 -37.1190 94.6464
29.3502 11.0488 94.6464
-28.1388 40.1326 94.6464
-26.6737 79.8801 94.6464
21.7374 56.9288 94.6464
22.5195 -49.7157 94.6464
-19.6144 36.8946 94.6464
26.0651 73.1267 94.6464
-15.1746 42.5791 94.6464
-15.5662 48.4121 94.6464
5.3766 5.0147 94.6464
20.4183 -83.0101 94.6464
-18.4324 8.9571 94.6464
-20.3180 -60.3779 94.6464
-0.5141 5.7917 94.6464
8.2660 -3.8542 94.6464
-22.4152 -32.2347 94.6464
-22.7484 -38.0645 94.6464
21.4545 41.1364 94.6464
13.1726 -79.4227 94.6464
-30.4012 62.4437 94.6464
-7.8495 -42.1694 94.6464
-4.5159 30.4877 94.6464
30.4909 -27.1496 94.6464
14.0463 32.2606 94.6464
-13.7017 55.6495 94.6464
1.3661 14.9076 94.6464
-8.2282 23.8753 94.6464
-1.2004 60.9646 94.6464
-18.0291 74.5537 94.6464
29.7996 -19.6498 94.6464
21.4508 56.7000 94.6464
18.7608 -75.2033 94.6464
26.1907 77.6050 94.6464
-9.5827 -24.2531 94.6464
29.4379 23.6852 94.6464
-13.7775 -8.6932 94.6464
-12.2508 -36.6287 94.6464
3.4384 26.9234 94.6464
8.7411 9.3759 94.6464
-11.6758 -69.5923 94.6464
-17.3401 77.3514 94.6464
-1.8923 54.7558 94.6464
-24.5741 9.1300 94.6464
-18.1965 -58.8940 94.6464
-25.7599 81.1355 94.6464
28.2466 67.4730 94.6464
1.6522 -84.7610 94.6464
-24.2810 -63.4607 94.6464
11.9176 31.9370 94.6464
-6.0086 68.4235 94.6464
24.2080 43.3917 94.6464
7.4498 -59.5631 94.6464
-25.8395 10.5456 94.6464
-18.5864 8.4977 94.6464
7.4001 -22.7519 94.6464
-13.3652 -18.7643 94.6464
-3.6118 81.9620 94.6464
9.4270 -80.5818 94.6464
0.1010 5.5571 94.6464
8.4132 50.2082 94.6464
-23.1466 48.2395 94.6464
-6.9765 -13.7689 94.6464
5.5494 -77.0933 94.6464
-26.1305 -55.5192 94.6464
-21.3484 -41.4432 94.6464
24.0598 -32.7673 94.6464
5.9544 46.7010 94.6464
-7.4506 83.6118 94.6464
2.1142 1.6934 94.6464
18.8531 12.1840 94.6464
-17.2561 34.8335 94.6464
16.6632 -37.0548 94.6464
6.0804 22.9997 94.6464
10.7600 -25.1195 94.6464
1.0421 -42.6495 94.6464
3.2616 -54.4646 94.6464
-28.4731 -43.8942 94.6464
-24.3968 50.9029 94.6464
-12.4747 29.3616 94.6464
-18.3721 17.6695 94.6464
-5.2172 -41.6661 94.6464
8.8491 -27.5844 94.6464
9.4285 67.0171 94.6464
-26.0382 20.5149 94.6464
-18.0473 -41.8650 -94.6464
4.1410 -73.5629 -94.6464
-10.1203 -5.5715 -94.6464
11.6976 39.7680 -94.6464
4.7781 47.7445 -94.6464
4.3947 -84.0571 -94.6464
-20.5406 -43.7775 -94.6464
13.3467 9.4393 -94.6464
5.2941 -80.9772 -94.6464
-27.4011 67.5784 -94.6464
1.6115 -61.9250 -94.6464
-20.1530 8.5870 -94.6464
21.2941 5.0905 -94.6464
0.7540 -48.4640 -94.6464
7.3989 61.5090 -94.6464
-6.9733 33.6325 -94.6464
18.4035 -59.1884 -94.6464
-16.8880 -68.0487 -94.6464
-2.9690 -69.8350 -94.6464
20.6739 -73.3267 -94.6464
14.8504 -3.1088 -94.6464
25.9684 49.4266 -94.6464
-0.9037 17.6733 -94.6464
-25.0111 -17.6609 -94.6464
31.0896 32.0063 -94.6464
-8.6226 -29.8732 -94.6464
29.8211 -57.2437 -94.6464
7.0019 -43.1639 -94.6464
20.9665 -23.9076 -94.6464
-17.4592 76.7946 -94.6464
-7.2512 -83.5019 -94.6464
1.0376 18.2696 -94.6464
15.6958 -0.0559 -94.6464
8.8555 -14.2682 -94.6464
-26.0463 -43.4201 -94.6464
-20.6477 -32.4293 -94.6464
-14.6971 -16.8928 -94.6464
28.8476 57.4711 -94.6464
13.2383 12.0778 -94.6464
30.6036 12.0325 -94.6464
8.3251 4.9288 -94.6464
-10.2126 49.0854 -94.6464
-0.5734 53.4741 -94.6464
-3.9689 72.1937 -94.6464
-15.7851 -3.1024 -94.6464
10.6673 5.4175 -94.6464
17.9811 -49.8088 -94.6464
20.2161 42.0525 -94.6464
8.2098 73.1161 -94.6464
20.8100 46.0559 -94.6464
10.8270 73.3996 -94.6464
-4.7147 -60.0546 -94.6464
-0.6592 35.9451 -94.6464
11.7118 78.1663 -94.6464
-10.8628 -59.2030 -94.6464
-3.9543 -52.4610 -94.6464
28.2271 -31.2293 -94.6464
-26.3267 78.8364 -94.6464
-6.4303 -0.7221 -94.6464
-28.7294 53.5000 -94.6464
-27.9506 -11.9621 -94.6464
-3.7037 77.1621 -94.6464
-13.5459 35.9261 -94.6464
25.8305 1.1590 -94.6464
31.2298 85.7685 -94.6464
23.5927 -80.4543 -94.6464
-14.2370 -72.1814 -94.6464
-28.7517 -53.1488 -94.6464
-10.6369 -60.8216 -94.6464
-29.7317 83.6071 -94.6464
-0.8968 17.6809 -94.6464
-14.9410 -73.4020 -94.6464
-30.5732 45.0278 -94.6464
-0.6893 -79.5271 -94.6464
-4.8361 64.3580 -94.6464
5.9761 53.2924 -94.6464
-23.0481 31.1163 -94.6464
-28.0924 -63.8766 -94.6464
-8.5335 8.0158 -94.6464
10.7042 -1.4461 -94.6464
29.1711 -7.0829 -94.6464
-3.4787 -2.2719 -94.6464
-27.0693 65.0885 -94.6464
-8.2047 19.6675 -94.6464
-26.3025 70.4285 -94.6464
16.4371 -32.7252 -94.6464
7.7399 -35.4684 -94.6464
-25.4757 -70.4983 -94.6464
-22.0248 -41.4141 -94.6464
19.3887 22.9312 -94.6464
-8.6401 12.9309 -94.6464
17.2001 -68.9868 -94.6464
2.1661 -47.3020 -94.6464
-17.3683 -8.8257 -94.6464
1.8848 -8.5560 -94.6464
-13.8844 69.2922 -94.6464
13.3099 78.2739 -94.6464
-2.8377 4.6542 -94.6464
19.6612 82.9323 -94.6464
0.9094 -67.6039 -94.6464
-8.7948 8.6773 -94.6464
9.7491 -21.5103 -94.6464
-21.3985 -63.0159 -94.6464
-1.5076 53.1984 -94.6464
-5.4859 -84.8476 -94.6464
-14.1213 -43.7510 -94.6464
-0.2832 29.7085 -94.6464
-24.1174 67.8324 -94.6464
-10.2224 -79.1032 -94.6464
-26.3503 -12.7176 -94.6464
-2.8018 -61.5705 -94.6464
-11.9879 77.2363 -94.6464
-16.1916 39.7004 -94.6464
4.5800 -66.2558 -94.6464
-23.9386 -66.0929 -94.6464
-3.9331 36.5077 -94.6464
22.0230 -12.0660 -94.6464
30.0914 -21.9134 -94.6464
-30.6130 -29.3805 -94.6464
18.1369 41.7928 -94.6464
17.6892 64.1117 -94.6464
9.7272 65.6322 -94.6464
7.8087 -51.9179 -94.6464
-7.7398 -14.2578 -94.6464
-2.6102 26.1278 -94.6464
8.7680 -6.6686 -94.6464
-19.5261 61.9767 -94.6464
-23.5264 -85.4233 -94.6464
-24.4667 -46.2891 -94.6464
7.8992 16.1463 -94.6464
17.4913 -31.9502 -94.6464
-13.0596 83.3556 -94.6464
-11.1500 26.6079 -94.6464
20.8612 -74.4814 -94.6464
-28.2254 -76.1515 -94.6464
28.0072 -40.1284 -94.6464
-1.2767 -1.0857 -94.6464
-13.6553 2.9817 -94.6464
27.5058 -32.2289 -94.6464
9.4505 48.5454 -94.6464
20.8190 51.7663 -94.6464
-12.2352 -60.1876 -94.6464
-21.2505 62.4019 -94.6464
5.1553 34.3929 -94.6464
27.0104 -27.8713 -94.6464
17.2315 -45.1638 -94.6464
5.4131 76.4777 -94.6464
-0.4603 57.6571 -94.6464
-20.7269 -62.0021 -94.6464
20.5255 -73.0006 -94.6464
-24.6903 32.3012 -94.6464
-1.4410 -77.3702 -94.6464
-31.0116 14.9040 -94.6464
-5.1520 -22.7174 -94.6464
-13.1783 -39.2157 -94.6464
9.5244 -35.7530 -94.6464
-26.4561 -40.5487 -94.6464
-14.9765 82.9319 -94.6464
26.7760 5.6989 -94.6464
28.9052 -33.8970 -94.6464
-16.4521 -40.2674 -94.6464
-5.3443 -35.3551 -94.6464
2.7883 -75.3156 -94.6464
10.9788 46.5087 -94.6464
-12.2828 22.2736 -94.6464
2.3371 -34.3474 -94.6464
-17.7486 28.2596 -94.6464
-6.9212 -59.5579 -94.6464
-16.3538 48.3169 -94.6464
-9.7132 5.7420 -94.6464
