ply
format ascii 1.0
element vertex 1024
property float x
property float y
property float z
end_header
29.7603 15.2576 85.3039
29.7603 -61.3202 5.5617
29.7603 16.9981 3.1682
29.7603 -50.6613 51.9275
29.7603 7.0531 -37.2565
29.7603 -13.7682 40.4784
29.7603 -18.4264 -25.7801
29.7603 54.4627 -27.6908
29.7603 46.3824 -85.6496
29.7603 22.9293 -3.4165
29.7603 0.0198 51.8041
29.7603 -35.3352 -72.2004
29.7603 -3.4186 60.7295
29.7603 -30.4383 22.9011
29.7603 38.8322 -40.4750
29.7603 -26.5721 34.2298
29.7603 -41.9695 -80.9781
29.7603 -25.7896 22.7961
29.7603 41.8328 -82.3799
29.7603 -44.2163 -6.4073
29.7603 -23.2732 -40.1350
29.7603 -4.5722 -25.6133
29.7603 7.3087 79.1146
29.7603 -2.1456 -15.3613
29.7603 -5.1979 23.6393
29.7603 -40.9246 55.7993
29.7603 42.6615 5.6007
29.7603 4.5951 33.5983
29.7603 -42.9584 10.1155
29.7603 -33.1264 -33.0383
29.7603 -54.4651 44.1549
29.7603 -66.4807 -53.5722
29.7603 28.6994 -56.2704
29.7603 23.2919 25.4426
29.7603 65.9737 71.0410
29.7603 10.6895 57.2629
29.7603 28.6771 -50.3868
29.7603 -61.0297 -84.9742
29.7603 -54.6322 -81.7378
29.7603 26.6412 36.6687
29.7603 -45.9013 52.3246
29.7603 22.6529 -17.8658
29.7603 -54.3612 -85.4045
29.7603 58.8916 -83.2672
29.7603 34.9340 0.7096
29.7603 1.0252 30.8690
29.7603 -9.0493 31.6377
29.7603 -7.7286 -39.1422
29.7603 37.8151 5.6833
29.7603 54.7302 14.1531
29.7603 -43.9609 -32.8413
29.7603 -16.4624 -85.4283
29.7603 -62.7189 45.4531
29.7603 0.3536 38.5118
29.7603 -66.4182 32.5587
29.7603 -42.7074 -32.3241
29.7603 58.6118 12.4191
29.7603 -6.0770 86.8761
29.7603 24.8039 68.3735
29.7603 -26.7170 -87.6715
29.7603 61.1021 -77.2937
29.7603 66.0987 -53.2012
29.7603 -26.0083 -30.9086
29.7603 -13.1907 54.7713
29.7603 68.9705 -72.9967
29.7603 -45.6531 80.1251
29.7603 35.0154 -80.3120
29.7603 53.6378 4.2044
29.7603 -53.6967 56.6608
29.7603 33.3243 -69.3298
29.7603 -12.7488 -72.1005
29.7603 47.2777 37.0386
29.7603 -68.7737 -57.6166
29.7603 28.0988 -2.5040
29.7603 -15.2734 -10.8069
29.7603 -63.0964 -26.2592
29.7603 -33.0295 69.4519
29.7603 -18.9922 39.2624
29.7603 -15.3910 -54.6436
29.7603 66.0672 -74.7264
29.7603 26.0961 8.7169
29.7603 12.0366 41.7415
29.7603 -43.2541 50.0521
29.7603 53.8699 -41.9519
29.7603 50.0264 22.5506
29.7603 -21.0754 18.2061
29.7603 44.1755 34.9914
29.7603 7.3191 -35.1378
29.7603 -57.6515 -79.9782
29.7603 49.4002 -2.8810
29.7603 3.2808 -72.2481
29.7603 51.5322 -18.9831
29.7603 -18.5922 13.2630
29.7603 -47.0002 -22.0373
29.7603 -13.0413 -9.5952
29.7603 -19.4298 24.2912
29.7603 -55.9533 -80.3286
29.7603 -8.0635 -58.3929
29.7603 -62.7429 -5.5242
29.7603 -51.1903 -47.0310
29.7603 -32.2212 14.8673
29.7603 -55.1261 88.0122
29.7603 -36.5417 -42.1622
29.7603 26.1582 -36.8311
29.7603 63.2311 26.3387
29.7603 35.2626 -3.5580
29.7603 51.8945 40.2639
29.7603 -51.1442 72.1550
29.7603 24.8736 -7.0553
29.7603 -33.7344 42.3895
29.7603 0.0163 14.2873
29.7603 -31.0879 -1.5409
29.7603 -59.2174 35.9403
29.7603 -34.3527 -34.9651
29.7603 -22.6081 51.1331
29.7603 65.1238 54.6146
29.7603 57.8444 7.0740
29.7603 -67.7205 -61.7630
29.7603 34.9355 -12.7177
29.7603 28.0344 48.4455
29.7603 -43.3012 -80.6738
29.7603 -50.6676 -10.1237
29.7603 -23.2946 -84.0928
29.7603 -16.7033 -6.5275
29.7603 -42.4723 -69.9077
29.7603 -36.5426 60.8242
29.7603 -25.6025 -44.5121
29.7603 -47.3847 79.8365
29.7603 -68.0890 -3.1395
29.7603 33.0946 -64.7795
29.7603 -50.6237 9.9738
29.7603 42.5140 24.2390
29.7603 35.6828 -50.6800
29.7603 20.7631 -7.0919
29.7603 -29.4215 44.3410
29.7603 41.7524 6.0275
29.7603 14.8159 -88.1206
29.7603 -67.7064 -80.7340
29.7603 -29.5620 73.2739
29.7603 -44.4167 80.4927
29.7603 -57.6927 30.1480
29.7603 18.1300 59.4260
29.7603 62.1833 10.0721
29.7603 3.2556 -50.5775
29.7603 -43.1284 44.3227
29.7603 -43.6711 87.9398
29.7603 41.0083 58.9379
29.7603 -10.7287 -0.1006
29.7603 -55.0777 75.4248
29.7603 30.9452 -8.3515
29.7603 -52.1740 -17.9598
29.7603 -6.9491 79.5241
29.7603 -64.2794 70.7235
29.7603 48.4118 0.9242
29.7603 41.2587 -2.4185
29.7603 46.0165 -83.5231
29.7603 -23.8518 -38.9384
29.7603 51.3577 -14.1184
29.7603 -58.8327 -65.7910
29.7603 44.5226 -45.5304
29.7603 31.9626 57.3894
29.7603 67.8813 -17.0602
29.7603 48.0046 48.7748
29.7603 -44.4559 1.8962
29.7603 -0.1507 -79.1705
29.7603 46.2057 -64.2311
29.7603 -64.3808 -32.7014
29.7603 -34.6778 57.7196
29.7603 61.1345 39.6193
29.7603 -33.8087 -58.4668
29.7603 6.1367 62.5020
-29.7603 24.9154 0.6054
-29.7603 65.2141 3.6366
-29.7603 -60.1733 -5.3185
-29.7603 -65.6629 56.8801
-29.7603 2.0665 -18.9437
-29.7603 36.2013 10.5351
-29.7603 36.8720 72.0300
-29.7603 -47.1720 -29.9631
-29.7603 0.3214 30.2949
-29.7603 33.4167 -0.3465
-29.7603 43.1922 2.7219
-29.7603 63.6092 -87.2764
-29.7603 22.3929 -59.7923
-29.7603 61.0688 39.4107
-29.7603 -7.1644 26.2092
-29.7603 60.2771 77.7327
-29.7603 16.1338 -7.3152
-29.7603 60.3773 77.7834
-29.7603 64.9557 -82.2975
-29.7603 41.1386 42.4879
-29.7603 -18.1434 55.0678
-29.7603 8.7332 34.1301
-29.7603 47.6835 45.0001
-29.7603 -24.0999 17.2051
-29.7603 20.9958 -70.3357
-29.7603 14.9810 -52.3873
-29.7603 -56.2595 85.0318
-29.7603 47.9160 77.7215
-29.7603 29.9563 -22.7640
-29.7603 -3.8906 -82.9675
-29.7603 64.1145 28.0443
-29.7603 8.5548 -83.3670
-29.7603 3.3449 -81.1090
-29.7603 -1.7051 71.9794
-29.7603 66.2187 -42.4979
-29.7603 10.4989 -42.6601
-29.7603 29.2504 72.0465
-29.7603 -66.0960 -1.5567
-29.7603 -12.1763 75.8681
-29.7603 52.7562 -82.2617
-29.7603 39.8642 -11.1152
-29.7603 -11.0062 4.7464
-29.7603 -15.3231 72.7368
-29.7603 -67.0519 34.8012
-29.7603 -15.3644 48.9325
-29.7603 -57.8078 -1.4426
-29.7603 5.7135 46.2373
-29.7603 -58.1931 78.4400
-29.7603 58.2282 15.4671
-29.7603 20.2428 -55.4691
-29.7603 -53.1600 -49.8901
-29.7603 53.2685 47.4253
-29.7603 -6.4705 16.4895
-29.7603 -60.7097 -87.3727
-29.7603 28.7467 11.9316
-29.7603 68.8740 2.1347
-29.7603 63.4896 -65.9781
-29.7603 -13.9735 -57.5962
-29.7603 -38.1822 44.4294
-29.7603 0.8643 -66.9837
-29.7603 3.3276 -35.1397
-29.7603 -52.9356 -16.2905
-29.7603 -14.9185 -79.2064
-29.7603 -53.3166 47.7550
-29.7603 -16.1892 40.6712
-29.7603 48.7704 76.2473
-29.7603 67.4766 -10.8376
-29.7603 -43.4079 -70.3844
-29.7603 -21.0807 57.2251
-29.7603 46.1161 18.6996
-29.7603 29.7259 -13.5452
-29.7603 31.8284 27.5739
-29.7603 50.2889 -3.0483
-29.7603 2.0045 -31.7429
-29.7603 41.3925 68.4821
-29.7603 -1.7463 -85.8667
-29.7603 10.4793 17.0866
-29.7603 62.6318 -75.5047
-29.7603 62.1609 59.4994
-29.7603 -43.1966 -27.3859
-29.7603 49.5205 1.3960
-29.7603 17.3572 69.4053
-29.7603 -58.3463 -33.0202
-29.7603 22.3312 -1.5931
-29.7603 -39.8870 -19.8948
-29.7603 -54.6085 -78.6974
-29.7603 11.9243 56.7290
-29.7603 -61.7304 13.0832
-29.7603 25.6111 -29.6953
-29.7603 14.7672 -64.6134
-29.7603 7.8890 -30.3562
-29.7603 7.5783 -22.7905
-29.7603 -39.1366 84.1840
-29.7603 12.9611 -67.0037
-29.7603 54.3497 12.9313
-29.7603 -58.0729 -25.8574
-29.7603 -23.6154 44.8402
-29.7603 -8.6114 -58.8747
-29.7603 8.4438 -22.9035
-29.7603 47.9671 47.8427
-29.7603 -39.8186 78.9020
-29.7603 -29.5528 22.1302
-29.7603 -42.5544 -76.8802
-29.7603 10.1828 -25.8627
-29.7603 26.1654 -60.2509
-29.7603 50.3986 -62.5702
-29.7603 -54.5119 26.2912
-29.7603 64.7506 57.7147
-29.7603 -64.3332 -19.9883
-29.7603 -46.9871 25.8994
-29.7603 -66.8491 -55.6880
-29.7603 63.3654 72.1235
-29.7603 57.0203 16.9298
-29.7603 28.8260 58.1226
-29.7603 19.3303 21.0557
-29.7603 -15.6711 27.6196
-29.7603 56.9368 67.7856
-29.7603 -30.0173 27.0621
-29.7603 51.5898 37.3945
-29.7603 -10.8409 40.0532
-29.7603 -22.1789 24.6329
-29.7603 16.2860 40.1513
-29.7603 49.4090 -5.3404
-29.7603 35.4280 54.6626
-29.7603 -34.2669 79.6751
-29.7603 64.7662 -66.0675
-29.7603 35.2006 -57.7491
-29.7603 -22.6105 -57.4142
-29.7603 37.5073 -68.8572
-29.7603 -50.6202 87.7347
-29.7603 5.1376 -9.4995
-29.7603 -30.5164 -37.5866
-29.7603 16.2688 -76.4843
-29.7603 1.5053 -32.3333
-29.7603 -56.5177 -35.8160
-29.7603 26.9935 -62.6178
-29.7603 56.7091 -7.4621
-29.7603 6.4656 22.4912
-29.7603 8.6632 -86.3654
-29.7603 -15.8223 45.5984
-29.7603 55.3154 60.4075
-29.7603 -0.8726 -54.8166
-29.7603 -18.1696 18.8322
-29.7603 45.8969 -16.0070
-29.7603 -57.0859 -66.0729
-29.7603 21.3953 -36.8777
-29.7603 -10.0124 -12.6849
-29.7603 65.7102 -58.4654
-29.7603 -59.4573 77.7582
-29.7603 34.9282 -69.7548
-29.7603 -12.9180 -27.4481
-29.7603 65.9464 5.8094
-29.7603 -55.9098 87.6856
-29.7603 -29.7687 -47.4027
-29.7603 -1.8356 -65.9742
-29.7603 -60.5934 27.2883
-29.7603 -67.7613 -12.7849
-29.7603 12.4579 -54.8647
-29.7603 25.7314 27.0584
-29.7603 12.6981 70.2079
-29.7603 -4.9208 -57.8768
-29.7603 -60.1732 -37.6178
-29.7603 -14.7575 40.7366
-29.7603 9.3243 -39.1599
-29.7603 -9.8958 -41.1767
-29.7603 67.1416 -7.4874
-29.7603 -24.7710 80.6796
-29.7603 27.5329 -62.5256
-29.7603 -53.6561 19.1179
-29.7603 7.2500 22.2748
-29.7603 -29.0226 84.9513
3.9882 69.0057 -40.5091
-21.0848 69.0057 -78.3599
5.7735 69.0057 26.0038
16.6781 69.0057 51.8071
-22.2028 69.0057 -85.0522
-22.4923 69.0057 56.6472
2.7116 69.0057 82.0739
-17.9588 69.0057 -44.5835
-1.2950 69.0057 -48.8310
-22.9448 69.0057 71.1675
-1.9490 69.0057 -40.2422
18.2150 69.0057 -79.9554
9.9607 69.0057 -41.4221
-20.0889 69.0057 52.5406
5.5069 69.0057 -13.1925
-1.1508 69.0057 -57.2711
-25.9706 69.0057 -24.1338
-3.5908 69.0057 -56.5726
26.6081 69.0057 55.1831
-3.4894 69.0057 1.8658
-5.8662 69.0057 -69.8849
4.9132 69.0057 53.1365
-5.5621 69.0057 70.7534
-2.2896 69.0057 28.1843
-3.3799 69.0057 -74.6918
-6.6630 69.0057 -5.9449
-7.8124 69.0057 -10.6807
8.1403 69.0057 12.5724
-8.1840 69.0057 -27.0755
-26.5103 69.0057 -33.0748
17.5405 69.0057 -30.9089
-26.3981 69.0057 57.5680
19.7475 69.0057 -41.5913
-15.4442 69.0057 40.5410
-21.2396 69.0057 -61.3895
-17.5678 69.0057 86.9772
-22.4127 69.0057 -59.1978
-9.2199 69.0057 42.7562
8.0104 69.0057 83.4435
7.2561 69.0057 -59.3655
22.7793 69.0057 48.5417
21.8237 69.0057 39.1896
9.4954 69.0057 -27.2940
-19.5777 69.0057 42.5003
28.5462 69.0057 59.6551
-22.2711 69.0057 57.7204
-0.2056 69.0057 -71.5522
8.5658 69.0057 -58.2521
-11.5024 69.0057 68.5879
-12.9434 69.0057 16.8230
-25.7507 69.0057 -31.1596
-13.3092 69.0057 69.3432
-25.9683 69.0057 42.0478
21.9488 69.0057 4.6962
28.4952 69.0057 38.9859
-6.2945 69.0057 88.2078
-28.7135 69.0057 87.6024
2.0751 69.0057 -71.0016
-28.1388 69.0057 19.7862
3.3019 69.0057 75.1242
-13.2432 69.0057 -47.5971
15.6531 69.0057 82.2720
20.2455 69.0057 -61.9364
25.7391 69.0057 29.3769
-22.8554 69.0057 70.3715
2.4966 69.0057 6.5473
9.4204 69.0057 59.2872
8.2820 69.0057 79.7426
-14.1396 69.0057 2.6693
-17.0708 69.0057 15.8366
-26.5724 69.0057 76.1381
-23.8557 69.0057 4.8678
11.9627 69.0057 75.6886
14.9582 69.0057 78.8498
18.8112 69.0057 72.0056
16.6955 69.0057 -16.2718
4.9566 69.0057 -70.1721
13.1611 69.0057 79.8494
7.1575 69.0057 20.8761
12.5588 69.0057 -71.6379
20.6639 69.0057 52.3637
1.6446 69.0057 43.9596
0.3577 69.0057 34.4352
-10.4741 69.0057 28.3738
-4.5459 69.0057 43.1764
2.7773 69.0057 -56.6145
17.2884 69.0057 78.4328
-3.8271 69.0057 -24.2927
-10.6936 69.0057 10.9287
-8.1776 69.0057 -7.7677
27.1452 69.0057 -86.9942
5.1815 69.0057 -52.1353
19.3187 69.0057 32.7676
-11.5019 69.0057 -33.1465
-22.4590 69.0057 3.6686
-19.6281 69.0057 -0.4362
22.8882 69.0057 11.9079
-4.0967 69.0057 -66.1944
-24.5759 69.0057 -9.0408
-24.2933 69.0057 -27.3168
10.5510 69.0057 37.8477
-8.7426 69.0057 -13.3535
5.2581 69.0057 62.5981
3.3821 69.0057 56.9669
2.6982 69.0057 61.5848
25.8389 69.0057 -61.3193
0.8258 69.0057 10.0761
-0.1301 69.0057 -20.7029
-25.6916 69.0057 -33.8515
-3.1602 69.0057 -34.3420
21.3762 69.0057 2.3559
-10.1049 69.0057 5.8427
-4.0330 69.0057 -43.4677
3.3010 69.0057 -58.2997
26.7984 69.0057 -41.6599
-26.2992 69.0057 25.3138
-14.8648 69.0057 77.0971
-0.9835 69.0057 78.4755
1.2444 69.0057 84.9624
8.9548 69.0057 -43.4998
6.4897 69.0057 -19.0795
-16.7187 69.0057 72.7419
13.3547 69.0057 36.8569
2.7012 69.0057 -84.5674
-6.4049 69.0057 20.5254
-15.1744 69.0057 80.5819
14.0161 69.0057 2.8541
1.8668 69.0057 34.2611
5.0423 69.0057 48.3262
-28.5857 69.0057 6.0591
-25.5433 69.0057 72.2854
4.6303 69.0057 -47.3387
-11.0902 69.0057 44.0135
-25.5684 69.0057 -18.0270
7.1750 69.0057 84.0619
-23.8973 69.0057 -50.8638
-3.7051 69.0057 -26.9190
3.7445 69.0057 -26.3856
23.1560 69.0057 83.6412
13.9741 69.0057 78.3430
-26.1645 69.0057 -55.7943
-29.1401 69.0057 -16.2523
-4.2332 69.0057 62.8811
1.2448 69.0057 -78.0793
-15.1904 69.0057 -66.8607
-8.7022 69.0057 79.4282
-17.1749 69.0057 -61.8864
-9.4029 69.0057 -63.1474
26.1425 69.0057 61.1497
-4.3341 69.0057 -47.0417
21.0229 69.0057 81.7233
-29.7168 69.0057 20.8227
-23.4338 69.0057 -24.9448
-28.4969 69.0057 -30.6129
27.6339 69.0057 34.1532
-3.0145 69.0057 -28.2070
-28.3686 69.0057 87.2663
-9.4610 69.0057 59.8891
2.8092 69.0057 -42.5559
-10.6304 69.0057 2.8703
-10.4825 69.0057 10.3211
5.5493 69.0057 -60.3888
9.4868 69.0057 11.8076
-15.5260 69.0057 21.1180
-18.0168 69.0057 -51.1354
-10.7479 69.0057 -25.9713
-14.1294 69.0057 -50.1772
2.1838 69.0057 28.9588
-24.2637 69.0057 -79.7006
12.6437 69.0057 5.4349
19.1725 69.0057 -43.2821
19.8478 -69.0057 -73.8663
-20.0696 -69.0057 -9.5627
16.9239 -69.0057 -59.0152
-27.0776 -69.0057 -33.1716
-9.0673 -69.0057 61.9704
14.0443 -69.0057 -30.8366
-12.4684 -69.0057 8.0471
23.8426 -69.0057 -36.5899
26.0759 -69.0057 -55.1664
-1.6931 -69.0057 -48.3319
-15.7838 -69.0057 -67.3436
-10.7885 -69.0057 66.3091
20.8253 -69.0057 36.7177
-5.4195 -69.0057 -30.4613
3.4320 -69.0057 40.3974
26.8100 -69.0057 36.3770
-13.9839 -69.0057 -5.9970
13.0228 -69.0057 71.2290
-28.2031 -69.0057 65.6569
10.9058 -69.0057 -74.9184
26.1209 -69.0057 9.8511
15.0600 -69.0057 -78.3811
-29.2542 -69.0057 78.7294
-1.5530 -69.0057 -87.7897
-22.8553 -69.0057 -84.5483
-8.9080 -69.0057 -68.9562
-16.0013 -69.0057 -74.9529
-26.0523 -69.0057 79.1726
5.4527 -69.0057 -7.7609
-10.3715 -69.0057 49.2200
-4.1656 -69.0057 18.9514
-13.4439 -69.0057 -72.8581
-13.4283 -69.0057 10.2698
-26.4023 -69.0057 -53.5900
15.2100 -69.0057 -8.2807
10.4175 -69.0057 -63.2626
9.6671 -69.0057 23.9862
-8.4548 -69.0057 -8.2096
-26.1182 -69.0057 17.5385
-14.5185 -69.0057 0.2667
-28.5486 -69.0057 -64.4320
-23.0234 -69.0057 -12.7391
-13.0608 -69.0057 -88.0858
26.3935 -69.0057 -70.8209
5.4527 -69.0057 -47.3859
5.9582 -69.0057 53.5503
-22.5035 -69.0057 -4.3472
2.2494 -69.0057 10.9506
7.9598 -69.0057 48.8874
-7.6382 -69.0057 -27.7487
3.4863 -69.0057 -29.4435
4.4923 -69.0057 -24.1740
-24.9435 -69.0057 -54.4042
25.1890 -69.0057 55.0748
-1.5282 -69.0057 75.6402
-9.7108 -69.0057 -23.7634
26.3246 -69.0057 60.2018
-3.8972 -69.0057 32.0217
-27.8810 -69.0057 44.9237
-29.4344 -69.0057 56.9185
23.5965 -69.0057 35.4511
27.5069 -69.0057 81.4674
-9.4918 -69.0057 -53.6361
8.4453 -69.0057 18.2904
22.3158 -69.0057 83.3109
17.3353 -69.0057 -85.6852
-8.5119 -69.0057 78.7151
-20.9547 -69.0057 25.0213
13.9091 -69.0057 6.6959
1.7155 -69.0057 -65.5936
2.6998 -69.0057 -63.4833
-27.5536 -69.0057 -7.3772
7.1342 -69.0057 -68.2529
12.4049 -69.0057 7.5567
24.9893 -69.0057 -54.4289
28.7471 -69.0057 -80.3530
-1.9080 -69.0057 -22.6898
9.8410 -69.0057 -16.0735
6.1596 -69.0057 66.2005
-22.4477 -69.0057 51.1757
-22.1744 -69.0057 57.6574
-15.0936 -69.0057 49.3416
27.3555 -69.0057 -23.8639
27.1411 -69.0057 -85.3277
-19.2864 -69.0057 30.1448
-14.9721 -69.0057 29.0952
-25.3623 -69.0057 -84.6246
-0.9026 -69.0057 -63.7424
-11.8275 -69.0057 -72.7185
-5.2898 -69.0057 41.1403
1.1109 -69.0057 63.7637
21.0903 -69.0057 -63.3708
14.8585 -69.0057 -85.6447
11.3909 -69.0057 -63.9542
-8.8539 -69.0057 40.0832
14.2816 -69.0057 -6.5607
-1.6051 -69.0057 38.0060
15.9632 -69.0057 -15.6374
-8.4478 -69.0057 -8.0010
-13.7755 -69.0057 17.0796
-23.1073 -69.0057 -85.1260
25.2490 -69.0057 -30.3626
29.6284 -69.0057 -13.3490
10.4929 -69.0057 61.1698
22.7702 -69.0057 -38.1939
-1.4090 -69.0057 83.9459
-26.1863 -69.0057 -80.9445
-0.3904 -69.0057 -62.1403
-1.4461 -69.0057 38.8624
5.5548 -69.0057 4.0864
14.2859 -69.0057 -84.5515
-26.1283 -69.0057 -81.5181
20.2077 -69.0057 -75.5177
6.1986 -69.0057 -58.2745
-23.5580 -69.0057 9.3744
-13.8976 -69.0057 -70.0708
17.0663 -69.0057 79.1342
19.4808 -69.0057 79.6785
-12.7955 -69.0057 59.9161
-2.1213 -69.0057 -65.1394
2.4775 -69.0057 -2.8751
17.5821 -69.0057 84.3937
-6.8717 -69.0057 56.0721
29.0719 -69.0057 71.2829
-29.5002 -69.0057 -14.5327
7.8942 -69.0057 22.1747
10.3968 -69.0057 -45.8373
5.5884 -69.0057 63.2812
27.5304 -69.0057 -66.5495
16.4304 -69.0057 -51.5470
20.4227 -69.0057 -36.0994
-8.9642 -69.0057 73.8235
18.0125 -69.0057 12.2336
-20.0761 -69.0057 12.0518
27.0864 -69.0057 73.9873
7.9148 -69.0057 86.5264
-2.3931 -69.0057 -34.1872
-26.1505 -69.0057 -18.4131
-25.1745 -69.0057 55.0958
-24.7272 -69.0057 -3.9818
-7.6057 -69.0057 33.1315
-22.2518 -69.0057 6.0093
-9.2800 -69.0057 81.3141
-29.5552 -69.0057 1.7978
-1.4296 -69.0057 72.9559
-14.8261 -69.0057 70.8061
10.5607 -69.0057 -78.5980
10.6304 -69.0057 -72.2113
-13.6186 -69.0057 -69.7300
18.6294 -69.0057 -80.2568
11.1976 -69.0057 -65.1086
-15.8934 -69.0057 -29.7086
-26.0632 -69.0057 -14.9431
3.2737 -69.0057 71.7041
-24.9305 -69.0057 37.9401
12.9840 -69.0057 -27.6682
16.4581 -69.0057 -86.7316
5.3507 -69.0057 33.4259
-25.7956 -69.0057 73.0287
-1.8521 -69.0057 45.4525
8.5283 -69.0057 -33.1365
18.0402 -69.0057 87.3957
-7.0331 -69.0057 28.9607
-10.3568 -69.0057 -60.7810
-5.7619 -69.0057 -24.5908
4.4888 -69.0057 60.3244
24.0821 -69.0057 51.4253
-15.0912 -69.0057 -0.8413
6.8122 -69.0057 75.0461
-2.5285 -69.0057 14.7095
13.3636 -69.0057 77.9642
-19.8168 -67.2373 88.2273
-26.0801 58.9194 88.2273
-13.0556 -56.9143 88.2273
-11.3617 38.5111 88.2273
-21.7858 -13.5146 88.2273
25.5597 -61.0145 88.2273
-27.8398 50.0585 88.2273
-21.3344 -43.4006 88.2273
14.0942 1.1729 88.2273
5.7526 40.5451 88.2273
-9.3475 23.4827 88.2273
-4.2289 -55.9891 88.2273
28.3127 -17.9462 88.2273
14.0238 3.8703 88.2273
-7.7611 -59.7412 88.2273
-10.8545 4.6474 88.2273
4.8768 -21.5699 88.2273
17.2954 -14.5199 88.2273
7.9151 -7.6001 88.2273
6.4155 13.8034 88.2273
27.0482 -14.8375 88.2273
11.8326 58.2108 88.2273
22.3238 10.1262 88.2273
-23.0692 -39.0685 88.2273
-28.3715 58.9795 88.2273
18.2726 27.4361 88.2273
9.6559 53.3730 88.2273
-0.2044 58.3334 88.2273
-18.8263 -36.0707 88.2273
12.5634 -62.3690 88.2273
-17.1073 8.2501 88.2273
16.2397 -17.4835 88.2273
-4.0674 41.2334 88.2273
27.1324 10.3449 88.2273
-21.5371 63.5240 88.2273
5.3473 48.5219 88.2273
12.3294 39.8079 88.2273
-13.2010 -55.8444 88.2273
19.0581 28.2464 88.2273
27.3136 40.4629 88.2273
23.2978 6.6804 88.2273
-23.1736 -49.7384 88.2273
2.1199 38.6172 88.2273
-4.6350 63.9393 88.2273
25.6300 -27.2376 88.2273
-14.5861 21.4459 88.2273
-5.0797 -2.8186 88.2273
5.5893 -46.8200 88.2273
-4.3672 -5.8420 88.2273
5.1009 -41.0578 88.2273
24.7977 -10.8897 88.2273
-13.2251 27.3452 88.2273
12.1792 9.3316 88.2273
24.8040 -33.7709 88.2273
-2.0349 -12.4432 88.2273
3.1153 -1.0869 88.2273
7.4462 -5.7704 88.2273
-14.8745 -68.7757 88.2273
26.6163 39.7662 88.2273
6.3686 12.5729 88.2273
-10.1868 38.8978 88.2273
17.1700 36.3526 88.2273
5.6851 49.0163 88.2273
-6.7249 -1.1571 88.2273
-16.2004 31.0558 88.2273
-19.0034 54.2780 88.2273
16.5481 14.4897 88.2273
-26.4200 66.7925 88.2273
-16.6140 21.5366 88.2273
-16.6410 41.2964 88.2273
19.0151 -58.0307 88.2273
-27.1729 -14.6559 88.2273
15.0264 -46.3956 88.2273
-22.7719 26.2174 88.2273
5.0878 52.5009 88.2273
-24.8147 -38.2599 88.2273
-22.3011 -61.8228 88.2273
23.6528 54.8724 88.2273
21.3020 -15.2036 88.2273
-20.7072 -45.8845 88.2273
28.7759 -25.4077 88.2273
13.3725 21.7889 88.2273
15.9183 -60.6866 88.2273
-15.9534 -47.5320 88.2273
-24.8890 -31.0407 88.2273
-2.3546 24.6302 88.2273
-17.5479 31.8599 88.2273
7.0719 49.4792 88.2273
18.7746 -20.0770 88.2273
27.0550 -59.2048 88.2273
-13.7356 -19.7960 88.2273
-28.6013 -15.7953 88.2273
-3.0229 -13.9175 88.2273
-28.9621 26.8873 88.2273
24.5433 -11.3402 88.2273
-9.7659 -48.9707 88.2273
-22.7606 -51.4687 88.2273
-17.5939 -3.2033 88.2273
22.3597 -30.3343 88.2273
27.7735 23.5416 88.2273
-23.9894 47.6592 88.2273
12.1429 21.8498 88.2273
23.9222 -12.9412 88.2273
1.6318 -48.9995 88.2273
-16.6442 -37.0415 88.2273
-11.7223 -28.1756 88.2273
21.8931 -9.1627 88.2273
-8.0346 -0.8830 88.2273
-21.2110 -42.1202 88.2273
-2.0029 60.6766 88.2273
16.0327 -26.3654 88.2273
-7.0586 -11.3862 88.2273
-2.2715 -25.1236 88.2273
5.4154 59.8761 88.2273
15.6530 -33.9383 88.2273
-27.5616 -53.3627 88.2273
1.7026 -54.8427 88.2273
-7.3643 26.7097 88.2273
1.3815 49.1416 88.2273
20.1385 18.6331 88.2273
-2.4293 -30.4395 88.2273
29.0847 7.8607 88.2273
3.1850 47.6919 88.2273
-20.1987 3.2656 88.2273
9.1705 -31.2118 88.2273
8.1865 -7.1426 88.2273
11.2112 -59.7677 88.2273
-19.9443 -15.4552 88.2273
9.1203 -61.2908 88.2273
-25.7561 55.0522 88.2273
-16.9920 61.0906 88.2273
22.0247 8.1698 88.2273
-24.1065 -47.2917 88.2273
6.9620 43.7118 88.2273
28.5034 66.6119 88.2273
15.0573 -45.5433 88.2273
-7.3854 44.0905 88.2273
11.1497 -0.7633 88.2273
-14.0035 -12.1298 88.2273
21.4444 -44.2151 88.2273
-24.5181 25.1856 88.2273
-24.2849 -8.7744 88.2273
-26.7849 13.6783 88.2273
4.5486 39.1068 88.2273
3.8233 29.3992 88.2273
18.9663 64.7255 88.2273
18.5323 -36.7234 88.2273
-23.2380 58.1118 88.2273
-18.9744 -67.5012 88.2273
1.2434 -9.4948 88.2273
22.7252 21.7783 88.2273
3.9520 4.6632 88.2273
-2.2673 12.2930 88.2273
1.4627 20.4910 88.2273
-25.1097 3.9186 88.2273
17.8133 -36.9777 88.2273
-1.8404 -50.8507 88.2273
-12.8570 -9.5733 88.2273
-1.4007 -18.3566 88.2273
24.3505 32.7266 88.2273
11.7219 -67.1575 88.2273
-5.0133 -32.4453 88.2273
-20.6097 26.4398 88.2273
24.4635 -49.3190 88.2273
7.7710 -36.7391 88.2273
-6.4282 -64.9745 88.2273
23.9474 14.7023 88.2273
0.6203 66.9312 88.2273
13.7897 40.5175 88.2273
2.7971 -30.2121 88.2273
-17.2170 18.6327 -88.2273
-23.1069 38.1485 -88.2273
4.3373 -28.9384 -88.2273
10.1697 51.2425 -88.2273
17.8582 -47.5622 -88.2273
-12.2763 0.5009 -88.2273
5.1074 -60.3187 -88.2273
-10.3688 -23.6239 -88.2273
11.1794 -7.1427 -88.2273
-3.6194 -47.4694 -88.2273
-1.6007 -13.4292 -88.2273
1.7963 43.0164 -88.2273
-22.8288 14.8817 -88.2273
17.3198 65.8519 -88.2273
-5.2545 -28.8904 -88.2273
3.6255 -45.4479 -88.2273
-13.9239 -44.4300 -88.2273
6.6539 49.1088 -88.2273
-2.1127 44.9620 -88.2273
13.1028 -32.7519 -88.2273
2.5562 -19.9762 -88.2273
-24.5624 46.1218 -88.2273
28.9732 41.9290 -88.2273
20.7155 -25.5004 -88.2273
-12.9861 -25.1708 -88.2273
17.1459 54.8032 -88.2273
-16.3381 -57.9802 -88.2273
11.5301 48.3740 -88.2273
-16.1204 -58.2014 -88.2273
0.1637 -52.1125 -88.2273
15.0371 -39.7535 -88.2273
17.1002 55.8780 -88.2273
-18.2254 61.0914 -88.2273
27.9508 59.0056 -88.2273
3.7272 37.2383 -88.2273
29.6326 -7.5613 -88.2273
-7.6048 -32.2267 -88.2273
23.6686 -29.4587 -88.2273
-11.1769 29.0903 -88.2273
4.5651 66.2875 -88.2273
13.0857 -26.4140 -88.2273
25.4603 -3.0784 -88.2273
-23.5060 -4.4615 -88.2273
-12.3917 -39.8752 -88.2273
23.2702 -12.1063 -88.2273
-2.4815 -5.2680 -88.2273
-12.8801 -62.4796 -88.2273
21.9590 -63.2198 -88.2273
5.9360 -44.1267 -88.2273
0.8702 65.9818 -88.2273
-5.6888 64.2951 -88.2273
8.1259 41.2433 -88.2273
6.5130 24.2177 -88.2273
10.9054 -13.6279 -88.2273
-2.3496 14.7389 -88.2273
-23.8968 -44.1857 -88.2273
-14.8460 -14.9022 -88.2273
-1.6773 9.4662 -88.2273
19.2858 -48.2479 -88.2273
-19.4380 50.8021 -88.2273
19.6228 -11.4140 -88.2273
-6.8749 12.2487 -88.2273
-22.7746 29.0753 -88.2273
20.3598 49.5839 -88.2273
-28.6099 51.4816 -88.2273
5.2786 -43.5676 -88.2273
-29.0382 -31.0615 -88.2273
-7.4603 28.8586 -88.2273
-16.7146 62.1963 -88.2273
25.5738 -23.8915 -88.2273
14.0600 -0.6828 -88.2273
1.4229 64.6626 -88.2273
-24.8735 -28.1635 -88.2273
0.0213 -22.1538 -88.2273
-11.2740 -39.2682 -88.2273
-12.4623 -25.0317 -88.2273
5.6168 28.1611 -88.2273
5.0877 35.6732 -88.2273
-25.5731 -44.2163 -88.2273
-18.8715 38.8495 -88.2273
-8.4422 24.5661 -88.2273
-0.9854 36.1399 -88.2273
-22.2652 -19.9883 -88.2273
-18.6190 9.0258 -88.2273
2.9387 -23.3049 -88.2273
27.0677 -37.0243 -88.2273
-24.4397 62.3526 -88.2273
-4.5445 -14.8236 -88.2273
16.2119 -25.5169 -88.2273
-20.6529 -29.9333 -88.2273
-28.4893 -30.1353 -88.2273
-20.5757 -27.5359 -88.2273
-13.5729 -6.3891 -88.2273
-19.0047 -39.6399 -88.2273
5.5376 54.2139 -88.2273
-27.7513 -17.7613 -88.2273
28.7869 15.0355 -88.2273
-28.4796 -18.6227 -88.2273
6.5448 8.8497 -88.2273
-11.3545 -14.3702 -88.2273
17.9213 -13.5581 -88.2273
-7.8725 4.3915 -88.2273
2.1388 51.9103 -88.2273
13.0784 -52.9050 -88.2273
14.1202 36.0423 -88.2273
17.3617 -6.5109 -88.2273
-8.8568 -18.3076 -88.2273
-7.7394 34.7158 -88.2273
-2.1002 41.6684 -88.2273
-12.3112 -28.1861 -88.2273
-15.2970 -21.3600 -88.2273
-6.0130 48.2997 -88.2273
17.5205 -45.2871 -88.2273
18.2240 54.8503 -88.2273
-24.3845 -51.5857 -88.2273
-16.0947 -25.8907 -88.2273
8.6624 14.0054 -88.2273
-18.0958 -55.1965 -88.2273
-20.6171 -41.4310 -88.2273
0.9170 -7.6216 -88.2273
12.6882 1.8306 -88.2273
14.8508 48.5003 -88.2273
15.2696 56.3440 -88.2273
7.5168 35.9636 -88.2273
-23.0030 -16.5886 -88.2273
-2.3910 -8.7550 -88.2273
3.8415 -24.6121 -88.2273
25.1993 -1.8346 -88.2273
2.7619 29.5987 -88.2273
-14.9496 -43.2448 -88.2273
-12.8075 -14.7314 -88.2273
25.5335 2.4336 -88.2273
-22.6403 -7.3447 -88.2273
19.1198 31.3021 -88.2273
2.6537 53.0099 -88.2273
0.7512 0.6996 -88.2273
17.8444 27.0732 -88.2273
1.8160 14.0716 -88.2273
-7.1653 -3.3101 -88.2273
-28.5698 16.6062 -88.2273
-10.9309 -29.8323 -88.2273
-15.2395 -5.9377 -88.2273
1.5584 -1.2313 -88.2273
24.4869 25.9900 -88.2273
8.7511 39.5184 -88.2273
9.3654 56.9521 -88.2273
12.8676 14.3168 -88.2273
-17.7160 37.9470 -88.2273
-8.8866 -14.5703 -88.2273
18.7078 -48.2530 -88.2273
-11.0065 -16.2557 -88.2273
6.9398 61.6502 -88.2273
6.6107 -56.6363 -88.2273
-26.8649 -61.4466 -88.2273
-22.3092 -54.7955 -88.2273
-18.4649 35.4199 -88.2273
22.1122 38.8901 -88.2273
28.6923 -19.6416 -88.2273
-0.0529 -44.2352 -88.2273
-22.9528 40.6788 -88.2273
-20.4042 23.4687 -88.2273
-24.0936 -32.1559 -88.2273
-10.6883 3.1137 -88.2273
-2.0156 21.7633 -88.2273
-4.4256 1.4793 -88.2273
17.5251 13.5953 -88.2273
16.4823 -54.1266 -88.2273
-23.5467 -65.2035 -88.2273
29.6565 4.3776 -88.2273
-25.9594 -1.0097 -88.2273
