ply
format ascii 1.0
element vertex 1024
property float x
property float y
property float z
end_header
48.8425 3.4683 -16.5990
48.8425 -8.5531 11.9839
48.8425 -8.2307 -30.8131
48.8425 17.4390 -32.5840
48.8425 -26.2311 19.3300
48.8425 -24.9213 -7.7195
48.8425 19.3246 30.1154
48.8425 28.0211 -38.0952
48.8425 14.1892 32.6454
48.8425 -27.2845 -6.7856
48.8425 15.6578 -2.7790
48.8425 13.6806 47.4620
48.8425 -10.7002 -25.9763
48.8425 20.5570 -9.3025
48.8425 -8.7599 45.2647
48.8425 -18.9779 -1.3377
48.8425 -17.2271 41.5033
48.8425 -21.5108 -18.9198
48.8425 -0.2490 -33.1673
48.8425 -23.3868 22.9469
48.8425 -16.9416 15.7812
48.8425 -20.9551 -36.2314
48.8425 -13.1633 14.4328
48.8425 17.8846 -34.3307
48.8425 27.7597 -12.7099
48.8425 12.4948 -42.0687
48.8425 17.3676 -23.9517
48.8425 2.5892 -5.2174
48.8425 -27.6011 -18.3268
48.8425 21.7046 -38.1766
48.8425 23.6408 32.2712
48.8425 -29.6911 4.9166
48.8425 10.2358 -36.9372
48.8425 13.4260 9.2614
48.8425 21.0980 -5.8890
48.8425 -2.1394 42.0542
48.8425 16.4650 -33.3082
48.8425 -16.6572 -21.3389
48.8425 -2.5065 -35.4006
48.8425 9.2107 13.4053
48.8425 -17.2765 40.4447
48.8425 -22.4217 5.8553
48.8425 -9.0125 -3.0761
48.8425 -14.4932 -10.2287
48.8425 15.4140 19.3954
48.8425 29.4591 -45.9032
48.8425 11.9638 3.6491
48.8425 3.3800 16.6761
48.8425 -24.2467 27.0465
48.8425 -5.5052 7.9454
48.8425 -30.0653 -22.3071
48.8425 14.9033 -8.5936
48.8425 27.7923 18.9392
48.8425 -5.0322 37.0708
48.8425 2.9184 18.9272
48.8425 -8.6534 -1.0200
48.8425 18.4975 15.2464
48.8425 -12.4583 -0.6130
48.8425 -19.6094 10.6816
48.8425 28.3621 -16.0907
48.8425 2.1766 -27.3348
48.8425 -24.0573 37.0015
48.8425 -16.6330 28.6250
48.8425 26.5368 -10.5026
48.8425 3.9473 26.3872
48.8425 -18.9065 28.3244
48.8425 13.1938 -10.6599
48.8425 9.7980 -26.9099
48.8425 -17.6952 -20.1142
48.8425 29.3454 -0.3044
48.8425 -19.1893 -29.3260
48.8425 17.3018 -21.2020
48.8425 -29.0891 -38.1917
48.8425 -18.5353 28.1627
48.8425 -0.6633 -4.1618
48.8425 3.7740 -16.3006
48.8425 16.6373 39.8309
48.8425 -30.9110 -8.4469
48.8425 -16.5756 -37.0705
48.8425 4.4426 0.6640
48.8425 -17.0266 26.3997
48.8425 -22.2420 9.0920
48.8425 -5.2699 -36.6318
48.8425 1.3110 30.3165
48.8425 -30.5651 39.1951
48.8425 22.6393 -6.2693
48.8425 -26.5700 -18.6982
48.8425 -19.3438 15.6926
48.8425 -6.8961 23.6606
48.8425 -25.5420 13.4713
48.8425 -20.8863 47.4375
48.8425 -9.0534 11.1414
48.8425 -28.2838 -10.8134
48.8425 16.3689 -14.4474
48.8425 29.0369 36.6913
48.8425 -30.9520 -30.5922
48.8425 -15.8230 31.4425
48.8425 15.4766 -10.8019
48.8425 11.1054 21.9959
48.8425 -27.7099 -12.9395
48.8425 5.5811 -38.5620
48.8425 -6.2649 -23.7271
48.8425 4.0160 30.6297
48.8425 -8.3434 21.9121
48.8425 -12.2258 -27.4155
48.8425 -12.8143 -32.5453
48.8425 -2.0659 33.0982
48.8425 25.7116 33.4563
48.8425 -23.8682 -23.3577
48.8425 -25.7604 41.0115
48.8425 -8.9810 31.4114
48.8425 -18.3864 7.9882
48.8425 21.5174 -1.5492
48.8425 19.6638 22.7734
48.8425 16.6922 39.6283
48.8425 -13.4302 34.8069
48.8425 25.6439 -27.1333
48.8425 -0.5095 -13.6317
48.8425 -31.3053 -3.0929
48.8425 13.9208 -39.6076
48.8425 -3.7189 -43.2177
48.8425 15.4246 -39.5312
48.8425 22.0323 -2.9473
48.8425 -3.9572 -20.1426
48.8425 22.7857 10.0973
48.8425 2.5419 14.5914
48.8425 -22.2115 44.7940
48.8425 24.0388 7.0188
48.8425 -13.3682 39.0511
48.8425 21.3991 17.3798
48.8425 -26.6904 40.5613
48.8425 13.2938 4.7384
48.8425 -2.9622 1.0452
48.8425 2.2983 -47.4648
48.8425 0.9313 -39.5061
48.8425 25.9117 -46.5294
48.8425 -12.3450 32.3063
48.8425 14.2778 12.0703
48.8425 18.0211 -7.9758
48.8425 13.6804 -32.6154
48.8425 8.2740 -33.0306
48.8425 -21.8636 20.7677
48.8425 -9.4556 47.4376
48.8425 -11.3848 25.1476
48.8425 -23.8908 -4.6730
48.8425 29.2437 45.5469
48.8425 -7.2763 38.3605
48.8425 26.1311 -36.1734
48.8425 -6.4111 14.6744
48.8425 -5.1822 -1.0804
48.8425 -16.4298 23.5123
48.8425 22.3923 -44.8575
48.8425 -30.6999 2.2729
48.8425 -22.2183 47.4574
48.8425 26.2547 20.7277
48.8425 -2.3816 0.9252
48.8425 16.3786 34.0135
48.8425 28.4097 -43.3452
48.8425 6.6053 -27.9222
48.8425 21.1873 27.3721
48.8425 13.4519 9.7964
48.8425 13.6077 39.4948
48.8425 -12.4149 -10.2971
48.8425 22.8462 -2.3660
48.8425 -20.7020 -13.6057
48.8425 -30.8587 -5.4994
48.8425 -3.5243 33.9181
48.8425 -13.3082 13.4408
48.8425 12.9537 -4.0859
48.8425 -18.2536 -37.1267
48.8425 -20.1298 -39.5359
-48.8425 -20.3144 11.7452
-48.8425 22.5246 -1.7372
-48.8425 12.4023 -26.2001
-48.8425 -22.0721 -16.4991
-48.8425 13.9961 -38.8941
-48.8425 -14.1789 -16.4344
-48.8425 24.4730 39.1600
-48.8425 10.2394 37.3641
-48.8425 16.7266 6.1142
-48.8425 12.5436 -15.2882
-48.8425 21.2224 -24.8801
-48.8425 -15.8026 -15.8509
-48.8425 -14.2128 32.5349
-48.8425 8.7958 -14.3274
-48.8425 7.2053 -0.9396
-48.8425 -31.0999 4.7059
-48.8425 -16.7442 10.9744
-48.8425 7.1028 -10.7831
-48.8425 31.1958 -19.0288
-48.8425 -24.7800 -12.9923
-48.8425 23.4109 -41.0734
-48.8425 -12.7677 -27.0125
-48.8425 17.3447 40.9073
-48.8425 31.2644 -45.5887
-48.8425 -0.1209 -45.4283
-48.8425 -24.7563 7.2023
-48.8425 2.3946 3.4839
-48.8425 14.8466 40.7522
-48.8425 -29.7783 23.1669
-48.8425 -20.4578 -4.6330
-48.8425 -3.9890 39.8011
-48.8425 -10.8625 -38.9674
-48.8425 -31.3173 -6.0615
-48.8425 5.0014 -33.9382
-48.8425 3.1763 -36.5622
-48.8425 -4.7302 -36.8365
-48.8425 -8.2987 41.6781
-48.8425 17.2935 -15.1791
-48.8425 -1.8782 12.1322
-48.8425 -29.5856 10.1301
-48.8425 -13.3670 -21.2313
-48.8425 7.9065 34.3612
-48.8425 7.9049 -16.1750
-48.8425 19.8673 -46.7056
-48.8425 20.5674 31.0408
-48.8425 -3.2794 30.4675
-48.8425 4.6378 -29.4171
-48.8425 12.7219 14.8884
-48.8425 22.4906 18.2799
-48.8425 29.9807 -25.6162
-48.8425 24.0792 -36.9348
-48.8425 -16.3535 18.3607
-48.8425 -29.4001 -17.6279
-48.8425 -9.0694 -6.7738
-48.8425 -12.5171 -7.9141
-48.8425 -9.0106 42.1909
-48.8425 -22.6434 14.1080
-48.8425 -4.3619 12.5398
-48.8425 -3.5470 -36.9283
-48.8425 24.3281 14.8563
-48.8425 -26.1045 -37.0258
-48.8425 -25.9865 8.7154
-48.8425 12.5005 -1.6395
-48.8425 1.5632 25.1743
-48.8425 -22.4015 31.1837
-48.8425 -7.9977 -35.2163
-48.8425 -30.4657 31.3325
-48.8425 25.7927 3.9339
-48.8425 -4.2842 38.0546
-48.8425 -2.6022 -46.8301
-48.8425 -21.2400 -33.6668
-48.8425 21.3005 17.4706
-48.8425 29.6219 -32.7536
-48.8425 -24.8898 -7.0812
-48.8425 -24.0238 -26.4639
-48.8425 -7.8922 -1.0975
-48.8425 23.9962 8.2115
-48.8425 -13.6461 -18.5640
-48.8425 22.2830 -34.3728
-48.8425 12.6693 -26.3023
-48.8425 25.4461 15.8140
-48.8425 2.7509 -16.4071
-48.8425 -22.0600 36.9046
-48.8425 2.7897 -13.7947
-48.8425 24.7099 -38.1039
-48.8425 -14.5920 -38.4629
-48.8425 24.4277 -15.5760
-48.8425 -15.7012 -32.3429
-48.8425 -29.7287 44.9323
-48.8425 19.0142 39.3849
-48.8425 -12.6973 -16.7387
-48.8425 7.7496 0.5521
-48.8425 -21.5960 21.4204
-48.8425 23.1553 -17.7337
-48.8425 -23.0458 39.3514
-48.8425 -4.9432 32.2837
-48.8425 25.2416 -21.6743
-48.8425 -27.3195 3.2981
-48.8425 10.4309 26.7919
-48.8425 21.7753 37.6652
-48.8425 10.1134 -21.2859
-48.8425 -24.0220 -8.3059
-48.8425 -13.1896 2.0815
-48.8425 -15.7508 -2.4694
-48.8425 -25.1604 -37.2430
-48.8425 -25.9213 36.6604
-48.8425 29.5856 -40.2910
-48.8425 -14.8194 -35.7257
-48.8425 13.9385 -44.3783
-48.8425 15.5173 39.6625
-48.8425 -8.7170 8.8564
-48.8425 -15.0291 38.7911
-48.8425 -2.0794 11.6828
-48.8425 -27.8950 -20.5797
-48.8425 -20.8006 39.5763
-48.8425 -5.5148 -0.2164
-48.8425 4.5447 27.0742
-48.8425 -26.3707 -46.4749
-48.8425 2.6030 -6.6613
-48.8425 21.4559 -45.3270
-48.8425 7.3611 39.9194
-48.8425 21.1706 -11.0789
-48.8425 -6.0991 -4.0884
-48.8425 30.0616 38.1555
-48.8425 -15.5285 -35.8745
-48.8425 -27.3762 0.6672
-48.8425 8.7908 27.5389
-48.8425 10.9399 12.7615
-48.8425 11.8511 29.3336
-48.8425 -3.6591 -40.8622
-48.8425 -5.9593 13.1208
-48.8425 -28.0365 -16.0331
-48.8425 3.5007 36.2247
-48.8425 28.0486 3.5753
-48.8425 -22.5671 -21.3369
-48.8425 -14.3454 -38.3031
-48.8425 -5.6546 -21.9737
-48.8425 12.4468 38.5356
-48.8425 -11.9699 -29.6882
-48.8425 29.3830 -38.9576
-48.8425 25.0290 -22.9301
-48.8425 -4.3963 -35.1458
-48.8425 28.9798 10.1680
-48.8425 -0.9292 -30.6720
-48.8425 7.7466 45.5684
-48.8425 11.1375 17.4895
-48.8425 9.8587 -5.8066
-48.8425 16.0494 -3.0838
-48.8425 -7.6007 13.5188
-48.8425 21.8032 -39.8034
-48.8425 30.8337 45.2623
-48.8425 1.1193 -13.3865
-48.8425 0.0214 -19.3908
-48.8425 -11.3026 4.1373
-48.8425 -15.8931 -43.7293
-48.8425 2.7809 -32.3201
-48.8425 24.6482 -23.6119
-48.8425 27.0179 -7.1428
-48.8425 -1.9465 14.2918
-48.8425 -24.8160 -47.1091
-48.8425 9.6959 19.2706
-48.8425 -13.8607 -43.0497
-48.8425 6.2295 12.7130
-48.8425 -19.8090 -19.8810
-48.8425 -19.0984 -33.2179
-48.8425 -7.7630 20.5729
-48.8425 25.8703 -33.9575
-48.8425 -15.8007 -25.4902
-48.8425 6.8654 -12.8905
-48.8425 -5.1410 34.2808
-48.8425 24.3747 -42.6276
-38.1684 31.4134 20.9419
22.3223 31.4134 -1.9201
-14.8842 31.4134 -2.5046
23.8820 31.4134 13.2203
37.5427 31.4134 -12.6973
35.2607 31.4134 -16.0536
33.5845 31.4134 -44.8318
-27.1007 31.4134 -43.3352
14.5701 31.4134 26.1773
41.2560 31.4134 34.3358
-20.8624 31.4134 5.8006
-10.6685 31.4134 -5.4033
44.8964 31.4134 -40.2921
27.0002 31.4134 5.6034
39.4851 31.4134 -19.2489
-8.1867 31.4134 32.9258
-30.3977 31.4134 10.0499
32.2567 31.4134 -2.5589
-30.5305 31.4134 -23.1250
42.2323 31.4134 -36.1381
-37.2187 31.4134 14.1495
-18.6355 31.4134 11.4824
46.5890 31.4134 -1.9913
4.1692 31.4134 -12.7434
-7.0755 31.4134 2.0315
-5.4796 31.4134 -27.2466
9.1772 31.4134 9.8871
-16.4162 31.4134 -24.5695
-31.6330 31.4134 -12.3993
26.1382 31.4134 23.9872
25.5357 31.4134 -12.5527
23.9528 31.4134 42.7536
-34.0212 31.4134 -6.3916
36.8358 31.4134 -20.5240
1.5478 31.4134 25.9113
47.2586 31.4134 -7.8090
17.8163 31.4134 3.9305
-32.9783 31.4134 -8.9130
21.1394 31.4134 -28.6205
47.1452 31.4134 -18.0957
44.2930 31.4134 7.8503
-43.3973 31.4134 -14.8714
0.3167 31.4134 3.2936
8.7575 31.4134 6.9203
-10.5195 31.4134 -36.1070
27.5394 31.4134 -6.7742
-33.3325 31.4134 31.6276
-26.6394 31.4134 7.1733
31.1859 31.4134 8.7565
-18.6977 31.4134 -45.9346
19.5107 31.4134 35.8166
1.3137 31.4134 -17.3773
18.0720 31.4134 -40.7978
-44.5881 31.4134 -4.3419
27.3475 31.4134 22.1932
-31.9789 31.4134 -13.2266
22.0347 31.4134 -43.8560
24.6070 31.4134 9.3774
12.8651 31.4134 14.2678
-17.5365 31.4134 -35.7190
-42.3145 31.4134 42.3188
-32.3200 31.4134 -41.1205
24.3064 31.4134 18.6280
5.9475 31.4134 -31.5667
-36.7968 31.4134 1.5733
-25.9150 31.4134 -16.5553
-33.3876 31.4134 -19.1343
-45.6953 31.4134 30.7179
8.3418 31.4134 6.3060
27.3037 31.4134 16.3510
40.2203 31.4134 -30.8946
13.0948 31.4134 -2.4219
11.0814 31.4134 -5.9381
40.9146 31.4134 33.1627
11.6116 31.4134 24.9447
-22.3999 31.4134 16.1360
14.3398 31.4134 -43.4108
13.9682 31.4134 29.6639
15.0353 31.4134 -37.7296
32.6071 31.4134 -42.5989
26.7684 31.4134 -42.1600
39.0947 31.4134 -17.8616
4.1746 31.4134 17.2858
-23.5903 31.4134 -8.3978
35.7623 31.4134 34.3160
38.4220 31.4134 -27.0565
17.5294 31.4134 -43.4649
-29.6370 31.4134 23.2546
-7.4149 31.4134 42.5066
41.9811 31.4134 -2.6584
28.1582 31.4134 9.5171
-18.4133 31.4134 36.2548
-19.2228 31.4134 8.8554
-19.1724 31.4134 27.8728
-8.9302 31.4134 -41.2392
8.4811 31.4134 -33.6645
-42.5175 31.4134 -19.2855
4.7668 31.4134 31.1035
5.4644 31.4134 2.2426
-38.2587 31.4134 46.5208
-31.2116 31.4134 -8.6398
24.9213 31.4134 -6.3845
-7.6968 31.4134 -23.0202
45.1299 31.4134 -19.9959
0.8146 31.4134 25.5315
-48.4519 31.4134 5.1602
9.9291 31.4134 -33.5581
7.3106 31.4134 10.1213
-46.0581 31.4134 -24.6973
-5.7456 31.4134 30.9839
-1.8094 31.4134 -15.4638
-6.7692 31.4134 17.8992
6.9759 31.4134 31.1544
18.0596 31.4134 17.4723
0.5290 31.4134 -14.2833
-29.8797 31.4134 -13.5278
26.0632 31.4134 -39.3601
-28.1517 31.4134 23.4206
21.8674 31.4134 46.9151
-45.9247 31.4134 -47.1892
-25.9470 31.4134 -6.3686
-40.9211 31.4134 -12.1299
-14.3635 31.4134 21.5545
31.9432 31.4134 -0.1725
-41.0068 31.4134 -23.1123
40.1331 31.4134 -28.0930
2.1985 31.4134 -20.0021
-34.2744 31.4134 33.2145
20.2012 31.4134 28.1646
40.8044 31.4134 -26.0590
-44.2443 31.4134 6.7187
40.4051 31.4134 -38.2137
21.8897 31.4134 11.3552
33.9405 31.4134 31.7491
-36.5647 31.4134 8.6207
5.1597 31.4134 45.7240
37.2868 31.4134 -1.9718
-41.4707 31.4134 -13.4633
-12.8113 31.4134 33.8994
-30.3775 31.4134 -2.4941
-33.2853 31.4134 -30.8575
-31.2404 31.4134 26.5066
-8.6000 31.4134 -2.2498
34.3848 31.4134 -31.8427
27.8637 31.4134 -33.3965
15.7980 31.4134 12.2973
11.2390 31.4134 -30.9584
37.3649 31.4134 -21.2009
38.5439 31.4134 -3.5297
5.0318 31.4134 40.2581
24.0701 31.4134 -13.6758
-34.6483 31.4134 -39.3086
39.6598 31.4134 47.5063
-38.8943 31.4134 -34.7037
40.3601 31.4134 42.1925
-45.2551 31.4134 47.2308
-23.1980 31.4134 5.8097
3.9112 31.4134 13.9681
23.2003 31.4134 0.5605
-47.0731 31.4134 6.2062
-30.5861 31.4134 -0.3796
45.1837 31.4134 -36.2348
-8.9834 31.4134 -20.7748
31.9281 31.4134 30.5246
-0.9421 31.4134 -7.9622
-45.0065 31.4134 -8.0282
-13.3879 31.4134 -27.7038
-30.2261 31.4134 -40.7033
-28.3025 31.4134 35.6925
-25.8773 31.4134 -25.6145
25.5973 31.4134 -4.0750
-45.1898 -31.4134 39.9434
16.8704 -31.4134 42.9254
34.1477 -31.4134 -35.2733
31.4960 -31.4134 -38.5417
40.3320 -31.4134 -2.6599
-0.8740 -31.4134 47.2951
-46.5820 -31.4134 -0.0938
-3.1150 -31.4134 -12.1648
7.8332 -31.4134 9.7264
33.6275 -31.4134 -33.2258
-11.7342 -31.4134 42.7415
-42.3539 -31.4134 -31.9157
32.8078 -31.4134 47.2211
46.1098 -31.4134 -43.4657
-47.1669 -31.4134 -33.5000
44.1894 -31.4134 -8.9172
19.0882 -31.4134 15.8147
-43.2618 -31.4134 35.7018
-30.8052 -31.4134 10.8143
-19.3264 -31.4134 44.8909
-44.9458 -31.4134 -37.5059
44.5819 -31.4134 -9.4686
15.9228 -31.4134 24.2769
-6.6653 -31.4134 39.5558
44.5130 -31.4134 -26.1646
-44.2169 -31.4134 -0.9176
-12.4011 -31.4134 -38.3306
48.4307 -31.4134 -9.8976
-34.6000 -31.4134 38.3875
-3.2639 -31.4134 29.9210
-33.5653 -31.4134 -13.6654
-37.3476 -31.4134 -7.5241
23.6250 -31.4134 35.2356
40.1464 -31.4134 -25.7681
7.7195 -31.4134 -18.7315
-26.1133 -31.4134 29.9331
-4.5095 -31.4134 2.9337
-35.8669 -31.4134 -6.4745
-8.8828 -31.4134 -12.4900
42.3611 -31.4134 -4.5335
-9.8503 -31.4134 -40.2088
-10.2880 -31.4134 14.5105
47.4054 -31.4134 -45.7514
47.8556 -31.4134 37.0051
15.3962 -31.4134 -15.9996
-43.9835 -31.4134 8.3616
-39.5372 -31.4134 32.8772
6.9260 -31.4134 41.6028
0.8136 -31.4134 -21.2808
-7.0783 -31.4134 45.1518
38.2521 -31.4134 39.7218
-2.7966 -31.4134 -3.6311
-0.7008 -31.4134 33.1309
-44.8591 -31.4134 4.9209
40.5312 -31.4134 -13.6690
40.2139 -31.4134 -39.1337
-21.2882 -31.4134 19.1649
-24.5291 -31.4134 3.8002
16.2840 -31.4134 45.2137
6.8459 -31.4134 -35.8413
-45.6790 -31.4134 -10.9809
-29.7820 -31.4134 -22.8197
30.0863 -31.4134 41.7801
22.1514 -31.4134 44.8496
31.0195 -31.4134 14.6379
43.0721 -31.4134 19.5341
-41.7144 -31.4134 46.0031
30.4637 -31.4134 3.2057
-21.7186 -31.4134 -23.5006
-41.4123 -31.4134 -29.9718
15.3379 -31.4134 36.8268
-3.5834 -31.4134 -27.1028
47.5378 -31.4134 -13.7044
-45.1932 -31.4134 -41.9020
10.6814 -31.4134 -9.8818
40.2797 -31.4134 36.9601
22.7243 -31.4134 -38.5783
41.2263 -31.4134 -17.5638
35.5643 -31.4134 -23.1328
-13.7745 -31.4134 -2.5189
7.8858 -31.4134 13.4954
40.3438 -31.4134 -6.9635
-6.5124 -31.4134 23.0829
32.2900 -31.4134 -29.1825
-20.6068 -31.4134 34.2071
14.3206 -31.4134 -1.1903
-33.5525 -31.4134 -38.6933
39.1752 -31.4134 -21.5904
41.9898 -31.4134 -26.0969
12.3920 -31.4134 -19.3104
-35.9369 -31.4134 41.5116
-6.7941 -31.4134 35.0021
10.9135 -31.4134 34.1327
15.3654 -31.4134 4.5053
-45.8424 -31.4134 -1.3454
-5.3388 -31.4134 3.9682
-21.2537 -31.4134 34.6150
5.9546 -31.4134 -46.2088
-27.8868 -31.4134 -46.5218
-19.3836 -31.4134 39.3204
2.9586 -31.4134 -21.6131
44.0195 -31.4134 -40.1251
-16.6632 -31.4134 -17.3955
3.2716 -31.4134 7.2223
-46.9325 -31.4134 -30.7923
44.3963 -31.4134 12.7018
26.2909 -31.4134 43.6900
45.9481 -31.4134 -11.0344
39.0875 -31.4134 44.0805
-27.2917 -31.4134 -1.0376
-12.8511 -31.4134 -12.3109
30.8863 -31.4134 -44.0455
-9.5127 -31.4134 36.4644
26.6443 -31.4134 -12.3392
-10.6080 -31.4134 -31.0471
39.1444 -31.4134 -31.6065
-25.0116 -31.4134 -19.4989
32.9475 -31.4134 26.5260
16.6037 -31.4134 23.0267
-1.4679 -31.4134 -21.8502
3.4720 -31.4134 46.2779
23.6881 -31.4134 34.2763
5.6928 -31.4134 -21.0651
-34.3644 -31.4134 40.9825
15.8163 -31.4134 -46.9245
-36.8518 -31.4134 -15.9515
2.5843 -31.4134 -3.5816
38.2128 -31.4134 15.6380
-37.0719 -31.4134 0.3896
-37.3212 -31.4134 35.6263
12.0228 -31.4134 45.8333
-4.3204 -31.4134 40.2170
23.3697 -31.4134 -4.1284
36.1313 -31.4134 -18.2306
-15.4790 -31.4134 -37.6635
-25.9987 -31.4134 -28.6445
41.2999 -31.4134 36.2826
-4.3863 -31.4134 -42.6997
-14.0900 -31.4134 43.1616
-42.3088 -31.4134 -37.5179
-35.3360 -31.4134 34.5148
0.7302 -31.4134 -26.6000
11.5997 -31.4134 47.1306
44.7745 -31.4134 41.5389
18.8525 -31.4134 19.6139
-20.2161 -31.4134 32.6593
30.3765 -31.4134 -9.5890
18.2211 -31.4134 -12.7460
33.5486 -31.4134 -40.8067
-46.8965 -31.4134 -42.6812
-5.5308 -31.4134 -38.5911
-17.7127 -31.4134 -23.8670
4.0732 -31.4134 -19.0130
-8.7111 -31.4134 -3.1745
-12.8062 -31.4134 24.7837
-23.3958 -31.4134 -42.8878
-21.7558 -31.4134 15.9268
-2.9569 -31.4134 36.6341
20.3796 -31.4134 11.9569
-12.0936 -31.4134 -36.8557
-18.3751 -31.4134 44.4577
27.8315 -31.4134 5.2442
31.0523 -31.4134 15.7063
-27.8403 -31.4134 -28.5153
-36.4647 -31.4134 -35.0995
-41.2834 -31.4134 36.6614
28.2774 -31.4134 33.2943
-38.8693 -31.4134 -13.6239
-25.6744 -31.4134 -14.1186
43.2602 -31.4134 -11.0576
36.4551 -31.4134 -39.8569
-19.6581 -20.2240 47.5071
26.7497 -0.7106 47.5071
27.2759 29.6245 47.5071
0.2246 -27.8039 47.5071
17.0415 13.8217 47.5071
-36.4980 -7.7763 47.5071
42.2819 16.1329 47.5071
42.8690 22.7219 47.5071
34.4740 -8.2026 47.5071
47.8202 14.4387 47.5071
-35.4777 21.1367 47.5071
-36.8472 25.0711 47.5071
-46.5383 -24.8044 47.5071
-19.8400 -13.2973 47.5071
-38.9196 -18.4156 47.5071
15.1103 -23.7117 47.5071
-41.4414 -1.9342 47.5071
14.5188 -19.7412 47.5071
-1.6349 0.9919 47.5071
39.1363 20.3662 47.5071
-12.1935 23.7408 47.5071
34.0469 -8.5881 47.5071
-42.5768 10.2843 47.5071
-37.1307 -14.9633 47.5071
33.3049 1.2113 47.5071
17.6345 20.2596 47.5071
15.0226 -5.4798 47.5071
-24.1178 24.9044 47.5071
-31.4469 -6.9707 47.5071
39.6120 5.5137 47.5071
47.9513 -22.0042 47.5071
-6.9224 -5.9112 47.5071
38.3108 -19.6679 47.5071
-20.4483 -4.3965 47.5071
-4.0949 -28.5199 47.5071
18.3444 21.2519 47.5071
13.0173 -13.0931 47.5071
28.5361 -12.4817 47.5071
-17.6754 -13.6580 47.5071
-7.3842 -22.2683 47.5071
47.9697 -17.4231 47.5071
10.4079 -29.0124 47.5071
-42.8870 -3.5285 47.5071
22.2821 29.4884 47.5071
15.2078 -5.2687 47.5071
-11.0546 -10.5145 47.5071
-13.8676 10.0018 47.5071
-41.2468 -5.6345 47.5071
-11.7222 28.8422 47.5071
-44.4006 23.0232 47.5071
13.6086 26.2650 47.5071
45.2223 -16.9573 47.5071
3.9307 -2.1431 47.5071
44.4415 -12.5073 47.5071
42.1934 -24.6338 47.5071
-14.0479 -23.5029 47.5071
0.6164 -29.6129 47.5071
23.9843 23.7719 47.5071
-7.9907 29.8370 47.5071
16.6630 -26.6814 47.5071
-18.2626 13.3939 47.5071
-42.3266 -19.4996 47.5071
-33.1017 -3.8817 47.5071
18.2614 29.7699 47.5071
37.8839 30.2618 47.5071
28.2900 27.4640 47.5071
-16.7461 -12.3550 47.5071
-8.9631 -1.8241 47.5071
-13.1985 9.0739 47.5071
-13.8044 -28.4786 47.5071
-33.7112 -20.0234 47.5071
24.3770 -20.0732 47.5071
-44.8890 -30.9040 47.5071
-35.3555 29.3285 47.5071
-17.8174 13.5700 47.5071
27.5495 -19.8961 47.5071
40.0270 -11.7653 47.5071
-45.6932 28.4241 47.5071
15.5282 -17.7721 47.5071
-8.0910 5.3757 47.5071
-5.2055 13.0772 47.5071
-16.0483 3.2761 47.5071
6.0805 -8.2921 47.5071
5.2378 30.0654 47.5071
34.7542 -10.8398 47.5071
27.1807 -30.7175 47.5071
24.3395 -28.6533 47.5071
-11.9141 -28.1635 47.5071
-35.4614 2.2561 47.5071
7.2086 -12.0159 47.5071
-34.1886 -18.8828 47.5071
37.1674 5.3836 47.5071
-35.9480 11.1516 47.5071
-18.4774 13.3356 47.5071
-43.2038 -26.6021 47.5071
-5.6759 23.5801 47.5071
36.2323 15.8395 47.5071
-41.5180 -9.2040 47.5071
-28.3383 -7.7937 47.5071
-11.4077 -20.9092 47.5071
40.4263 -10.4978 47.5071
-4.6224 18.1282 47.5071
31.7186 -21.1290 47.5071
-0.8320 25.3960 47.5071
-34.7362 8.9024 47.5071
18.2085 26.9004 47.5071
-40.1096 10.6805 47.5071
28.8150 28.8921 47.5071
48.7006 -14.0686 47.5071
-44.0584 30.1670 47.5071
-41.5648 -5.3516 47.5071
-45.1446 -27.8789 47.5071
-31.1053 -4.4781 47.5071
20.3729 -8.4245 47.5071
20.8165 3.2695 47.5071
32.5613 30.8857 47.5071
37.2514 25.7032 47.5071
26.7604 -22.7582 47.5071
19.8258 -6.8785 47.5071
24.6426 -0.3317 47.5071
-20.1046 0.6943 47.5071
-38.9522 0.9569 47.5071
9.3536 19.9331 47.5071
-41.7461 24.5041 47.5071
25.1640 26.1038 47.5071
31.2889 -15.7556 47.5071
21.8925 -28.7233 47.5071
-5.3295 -15.1990 47.5071
-31.2564 -20.0517 47.5071
7.3171 -5.6675 47.5071
21.0846 10.0019 47.5071
17.4032 8.2915 47.5071
-4.3751 27.3134 47.5071
-39.5787 19.7889 47.5071
-2.6912 -29.3209 47.5071
15.4856 -15.7289 47.5071
11.8961 21.3068 47.5071
-36.9027 25.4776 47.5071
10.2406 -3.4036 47.5071
-32.6883 12.5324 47.5071
40.7216 -27.3051 47.5071
3.5553 6.3297 47.5071
-41.3222 -12.0654 47.5071
44.0892 -21.4303 47.5071
-2.2460 -13.1239 47.5071
-28.3462 7.5352 47.5071
41.5114 14.6399 47.5071
-5.9337 24.6069 47.5071
-13.9313 10.9553 47.5071
-8.5765 -17.1743 47.5071
2.8648 11.8479 47.5071
14.7406 -14.8715 47.5071
27.4997 -11.9535 47.5071
40.3784 16.2599 47.5071
-38.9505 4.0560 47.5071
36.4937 -10.1951 47.5071
-15.2366 29.5299 47.5071
-46.8880 4.7278 47.5071
16.4442 -0.7825 47.5071
-13.2530 4.8275 47.5071
13.4749 -25.5154 47.5071
-39.2146 26.2053 47.5071
25.8599 -14.1278 47.5071
45.5725 -26.5250 47.5071
-5.1995 15.1909 47.5071
-23.8605 0.6653 47.5071
17.7321 15.6000 47.5071
-32.6902 21.6137 47.5071
29.9918 21.1622 47.5071
23.9993 -25.9433 47.5071
-3.5016 5.5898 -47.5071
21.8841 4.8004 -47.5071
10.6703 15.8591 -47.5071
9.2291 11.3972 -47.5071
34.6726 10.0566 -47.5071
25.3473 10.5108 -47.5071
-30.7853 5.9371 -47.5071
27.5700 13.9792 -47.5071
-29.6862 -9.2554 -47.5071
-11.1002 -15.3125 -47.5071
-27.4293 22.2747 -47.5071
-10.0357 17.9757 -47.5071
9.0889 -1.5603 -47.5071
32.5410 -16.7862 -47.5071
-38.2888 -1.7509 -47.5071
-17.0447 -11.9453 -47.5071
-11.8667 2.9773 -47.5071
13.1714 -6.3994 -47.5071
29.4322 16.4638 -47.5071
-3.9976 -30.3137 -47.5071
-31.9841 -1.1409 -47.5071
-27.6177 -6.6869 -47.5071
44.8041 30.6159 -47.5071
-16.3291 -26.1574 -47.5071
9.0490 8.4571 -47.5071
48.3043 26.2528 -47.5071
37.7067 0.8077 -47.5071
29.3134 9.4643 -47.5071
21.4178 -25.2415 -47.5071
-37.7038 -3.6741 -47.5071
-45.1396 -5.2455 -47.5071
-19.4625 -9.3394 -47.5071
3.7346 -17.1811 -47.5071
-2.0275 -25.0036 -47.5071
-23.7028 -19.2480 -47.5071
46.6313 18.8492 -47.5071
32.6161 -6.3410 -47.5071
-25.4018 -31.0402 -47.5071
-26.5250 -10.7087 -47.5071
-35.3564 -25.2614 -47.5071
21.0413 -21.5547 -47.5071
14.8115 -12.6496 -47.5071
-29.6058 -19.6739 -47.5071
-7.2058 -22.3585 -47.5071
-38.8430 -22.7086 -47.5071
-24.6079 -25.8123 -47.5071
-36.2056 -18.7169 -47.5071
-0.5794 9.0084 -47.5071
-40.7182 -13.3287 -47.5071
-25.8148 -6.6932 -47.5071
5.3551 -2.7127 -47.5071
-13.9768 11.6018 -47.5071
34.5703 -29.8875 -47.5071
32.5466 9.0431 -47.5071
20.4188 -4.7980 -47.5071
44.0913 28.2171 -47.5071
-0.4526 6.1060 -47.5071
10.2529 -13.6695 -47.5071
19.3320 12.1992 -47.5071
31.8211 -16.9599 -47.5071
-9.4993 29.5239 -47.5071
31.3243 -19.5394 -47.5071
13.1392 4.1501 -47.5071
27.8942 -5.7575 -47.5071
34.2416 -2.5498 -47.5071
-19.8854 22.9739 -47.5071
41.2915 23.3586 -47.5071
-2.8069 -26.8736 -47.5071
28.2099 23.9254 -47.5071
-16.8895 1.5666 -47.5071
12.7893 -24.8574 -47.5071
-39.1273 21.1907 -47.5071
18.6031 -8.4331 -47.5071
4.3723 -10.3540 -47.5071
-9.6865 -11.9524 -47.5071
43.6955 12.0708 -47.5071
3.3174 -20.0669 -47.5071
-3.2007 0.6913 -47.5071
-46.5364 28.1539 -47.5071
41.7625 -21.7583 -47.5071
7.5658 -17.7747 -47.5071
30.1456 8.4007 -47.5071
15.2572 -15.8089 -47.5071
-40.4468 -22.5142 -47.5071
12.6109 -3.6729 -47.5071
-21.5064 -28.1265 -47.5071
-40.4789 -9.5530 -47.5071
21.3437 22.8708 -47.5071
17.9302 -28.1672 -47.5071
-28.2408 7.2714 -47.5071
39.2981 -12.1166 -47.5071
-24.0722 18.5342 -47.5071
-48.2234 1.3765 -47.5071
1.9958 -15.3440 -47.5071
13.5847 23.3388 -47.5071
17.6871 25.6559 -47.5071
-39.8417 22.5644 -47.5071
43.8975 18.7210 -47.5071
36.1055 3.5790 -47.5071
8.8713 -12.5500 -47.5071
22.9809 -16.7080 -47.5071
-4.7715 13.8614 -47.5071
1.3265 -26.0821 -47.5071
9.0360 -15.9430 -47.5071
-4.1258 -18.3704 -47.5071
-6.8461 -24.6395 -47.5071
41.3386 23.0254 -47.5071
28.8872 23.2747 -47.5071
-16.4291 -6.2092 -47.5071
-28.3358 22.3559 -47.5071
-25.6940 12.2133 -47.5071
-9.5675 -19.1742 -47.5071
45.2927 19.7952 -47.5071
30.8046 -11.8755 -47.5071
-13.3058 2.4995 -47.5071
-36.9973 3.3605 -47.5071
34.4688 24.2340 -47.5071
-2.5847 11.6254 -47.5071
-3.3452 3.4289 -47.5071
4.7667 29.0730 -47.5071
11.0325 -3.6236 -47.5071
-17.6848 10.0410 -47.5071
-23.7239 -10.1604 -47.5071
38.6159 10.7626 -47.5071
-40.5345 -11.1769 -47.5071
-18.2226 7.2309 -47.5071
46.7479 -24.0346 -47.5071
-12.0425 3.8543 -47.5071
-47.8691 27.3413 -47.5071
46.9055 -15.4993 -47.5071
-30.0715 -15.8524 -47.5071
33.4086 -30.0278 -47.5071
32.2748 -22.9273 -47.5071
-29.6935 -0.9799 -47.5071
24.8479 3.0091 -47.5071
-12.0730 1.0313 -47.5071
-18.0694 -16.4116 -47.5071
-23.8662 -0.0193 -47.5071
4.4692 -24.0799 -47.5071
-43.0059 15.3058 -47.5071
18.3866 28.8072 -47.5071
39.3941 7.0641 -47.5071
25.7776 -25.3964 -47.5071
-6.2218 -25.4639 -47.5071
-19.5712 -11.5429 -47.5071
40.0743 -15.9382 -47.5071
-19.5675 -28.3753 -47.5071
-20.4699 -14.0491 -47.5071
-34.3711 -19.2704 -47.5071
18.1972 24.2190 -47.5071
-34.4206 28.2720 -47.5071
1.0975 2.2000 -47.5071
6.1688 -25.6392 -47.5071
20.9526 17.1769 -47.5071
19.0878 3.2727 -47.5071
20.5656 3.4521 -47.5071
-15.9158 29.2978 -47.5071
-48.4077 -21.2116 -47.5071
31.5930 25.5464 -47.5071
-5.4813 2.0339 -47.5071
-23.4532 16.5465 -47.5071
-47.8310 -25.7761 -47.5071
42.6917 8.0438 -47.5071
-17.6615 1.8459 -47.5071
-33.4396 -2.2589 -47.5071
39.7343 30.8745 -47.5071
-25.2890 6.9543 -47.5071
32.9342 2.0609 -47.5071
-48.5417 27.0538 -47.5071
-10.2383 -13.3505 -47.5071
