ply
format ascii 1.0
element vertex 1024
property float x
property float y
property float z
end_header
92.3007 -23.9441 34.1387
92.3007 38.4283 10.7396
92.3007 37.9069 -4.4586
92.3007 -30.0926 38.5029
92.3007 4.7369 46.6371
92.3007 45.3540 -26.9012
92.3007 -29.7087 72.8632
92.3007 -0.6969 14.6569
92.3007 -29.4233 -73.3696
92.3007 -19.1891 -51.0310
92.3007 -19.5573 34.6706
92.3007 39.8908 60.3597
92.3007 1.9502 51.1395
92.3007 40.1862 11.3710
92.3007 -6.1631 41.6670
92.3007 -20.3825 -51.5521
92.3007 22.9915 -61.0441
92.3007 15.1039 -58.8790
92.3007 35.7953 39.6593
92.3007 -46.5804 42.6024
92.3007 -9.8158 -41.5547
92.3007 40.1111 20.5651
92.3007 14.0355 -39.2722
92.3007 -12.1813 20.4007
92.3007 -11.7444 -41.5023
92.3007 45.9454 28.4031
92.3007 -21.6086 -52.5990
92.3007 -38.3014 58.3765
92.3007 -40.9108 -64.4155
92.3007 41.3787 52.7408
92.3007 28.9228 -62.8406
92.3007 -32.0986 -50.2562
92.3007 -35.2693 -73.2159
92.3007 17.5090 -46.9527
92.3007 -38.6974 -51.7419
92.3007 -4.1551 63.4595
92.3007 -15.6914 14.6247
92.3007 -42.3738 60.6133
92.3007 -5.8492 56.1196
92.3007 -7.4979 12.9634
92.3007 -28.2260 -6.0520
92.3007 -9.6568 -34.9057
92.3007 32.5468 -16.8276
92.3007 -36.3039 -16.3379
92.3007 -27.1914 60.4811
92.3007 -23.5441 -52.4653
92.3007 40.9804 -44.4795
92.3007 37.8299 19.9860
92.3007 25.3196 72.6879
92.3007 -22.5023 -26.2318
92.3007 -3.2374 -21.8531
92.3007 -10.8146 -35.0223
92.3007 -41.0563 -20.3035
92.3007 -11.8049 38.5019
92.3007 28.7907 50.4128
92.3007 -36.1102 8.6192
92.3007 -17.6162 -20.6101
92.3007 13.7709 -75.0417
92.3007 -44.9117 44.2601
92.3007 -1.3108 9.6220
92.3007 38.4769 -68.8083
92.3007 -38.3308 17.3415
92.3007 -22.3962 -16.4859
92.3007 -14.9610 17.4880
92.3007 28.8391 5.1225
92.3007 18.0859 40.1896
92.3007 -31.2124 -29.8485
92.3007 -48.0392 69.5101
92.3007 -34.6785 56.9709
92.3007 -24.6828 55.2491
92.3007 18.4143 31.3128
92.3007 -35.9813 -60.0822
92.3007 -4.4206 40.5825
92.3007 34.2544 19.5341
92.3007 -0.5358 -4.8238
92.3007 -28.3666 -15.6572
92.3007 -27.2387 -28.0354
92.3007 -6.2954 -65.1836
92.3007 -25.0960 -8.1596
92.3007 2.9239 76.4456
92.3007 30.5074 -19.8796
92.3007 -34.6759 -58.2207
92.3007 -7.6821 -12.6889
92.3007 -37.0423 -49.2883
92.3007 -14.3501 0.5751
92.3007 22.2003 23.7622
92.3007 6.7000 -47.6304
92.3007 10.1793 45.8851
92.3007 30.1923 13.7671
92.3007 -9.7208 47.5470
92.3007 23.0632 63.1574
92.3007 -27.3383 4.2627
92.3007 -24.1771 43.6076
92.3007 -41.0665 -11.2854
92.3007 9.7223 18.4350
92.3007 1.9853 58.6165
92.3007 -43.3488 -70.6305
92.3007 11.9610 -33.0362
92.3007 0.0052 -11.1249
92.3007 -39.8350 57.6134
92.3007 2.0387 -5.5827
92.3007 41.8836 -61.5191
92.3007 21.9508 69.6058
92.3007 -37.5818 39.4205
92.3007 26.1227 49.6108
92.3007 -47.6675 16.4227
92.3007 -1.6979 -15.5122
92.3007 10.2715 30.7806
92.3007 -20.6490 3.1117
92.3007 -6.0720 39.4536
92.3007 -45.7390 9.7560
92.3007 11.6602 -21.8537
92.3007 -15.4735 -40.6138
92.3007 12.3351 32.8954
92.3007 2.7508 58.8306
92.3007 -6.3388 -41.9505
92.3007 39.3385 10.9585
92.3007 -26.0798 -45.6235
92.3007 -14.9482 49.6000
92.3007 3.4116 -50.8673
92.3007 -25.0127 37.9327
92.3007 37.2063 14.1306
92.3007 -7.7539 -6.5047
92.3007 -40.1097 -9.0185
92.3007 27.0191 46.0843
92.3007 36.5093 -17.5205
92.3007 -32.9030 77.3367
92.3007 -8.5083 33.1269
92.3007 -27.8927 13.1058
92.3007 15.8529 11.2271
92.3007 28.1161 -4.0755
92.3007 30.6437 31.5412
92.3007 43.2468 -35.0485
92.3007 14.3478 -73.5456
92.3007 -9.5041 2.8432
92.3007 -35.6856 -74.7814
92.3007 33.9731 -62.1014
92.3007 -36.2886 -8.7141
92.3007 36.0141 -32.1124
92.3007 -18.6687 66.0627
92.3007 23.2081 -31.8518
92.3007 -31.4940 -24.3824
92.3007 7.8469 1.0926
92.3007 -38.4072 7.9816
92.3007 40.1259 -0.8576
92.3007 39.5524 40.6574
92.3007 19.9986 -48.9561
92.3007 -47.9862 23.0190
92.3007 13.9179 -34.7721
92.3007 43.8128 -19.5848
92.3007 -10.9331 67.5953
92.3007 38.4067 0.0039
92.3007 48.5463 -19.1030
92.3007 2.9811 -2.7400
92.3007 -18.3694 69.4585
92.3007 24.4342 61.1600
92.3007 9.5569 47.7691
92.3007 42.7667 -18.9747
92.3007 -7.6718 72.4191
92.3007 -32.4288 -40.9159
92.3007 33.9498 -52.1506
92.3007 10.6352 -24.1765
92.3007 38.9829 62.6932
92.3007 3.7688 -66.2539
92.3007 -37.7249 23.8809
92.3007 30.1448 13.2862
92.3007 15.1177 2.3105
92.3007 2.5778 33.6973
92.3007 -30.1416 75.7830
92.3007 -7.0407 -41.8509
92.3007 -28.3643 -59.6739
-92.3007 32.1431 -36.4657
-92.3007 7.1649 15.0415
-92.3007 39.3819 -52.2343
-92.3007 -18.3732 67.7337
-92.3007 38.7206 54.5633
-92.3007 7.1955 45.7500
-92.3007 25.6914 -66.1372
-92.3007 2.9095 71.1569
-92.3007 47.6710 69.2637
-92.3007 20.3606 -45.5431
-92.3007 -1.6675 65.1814
-92.3007 -12.3550 70.6208
-92.3007 30.0975 -12.8475
-92.3007 1.4541 -51.9805
-92.3007 -15.7363 -59.2723
-92.3007 27.5727 -35.7857
-92.3007 2.5646 -6.7987
-92.3007 17.3823 -12.4070
-92.3007 -35.1882 -15.5054
-92.3007 -31.0313 18.3482
-92.3007 19.8543 64.7478
-92.3007 47.5062 51.8018
-92.3007 -42.4945 -4.8673
-92.3007 14.4074 48.6880
-92.3007 1.1732 2.2276
-92.3007 -30.7772 -26.4746
-92.3007 -35.6280 -32.9289
-92.3007 7.1804 -67.3073
-92.3007 24.8518 69.7764
-92.3007 -17.3337 -4.8339
-92.3007 5.4068 12.9282
-92.3007 -30.4931 53.8010
-92.3007 -48.4107 9.6306
-92.3007 42.7225 -55.4312
-92.3007 22.4352 73.9395
-92.3007 22.1466 68.5116
-92.3007 26.1470 42.1515
-92.3007 34.2330 -5.0051
-92.3007 -41.4184 51.5923
-92.3007 -28.6657 73.6852
-92.3007 -47.3580 49.4689
-92.3007 43.0126 11.7508
-92.3007 30.8448 -27.5865
-92.3007 -18.3255 69.6979
-92.3007 -47.6551 46.2677
-92.3007 8.8485 45.6076
-92.3007 4.3146 70.7541
-92.3007 -25.1489 -3.1741
-92.3007 25.1520 -19.3875
-92.3007 7.4271 61.1679
-92.3007 28.4980 -32.7469
-92.3007 9.0584 -77.1286
-92.3007 -42.4098 -39.6236
-92.3007 34.5371 43.5251
-92.3007 -10.0589 48.3673
-92.3007 -32.3559 34.5567
-92.3007 -34.2614 -50.6204
-92.3007 8.8075 35.2140
-92.3007 39.8284 -1.3128
-92.3007 -4.5406 27.0545
-92.3007 -44.5367 18.7080
-92.3007 -39.2334 -33.2045
-92.3007 7.9242 14.8009
-92.3007 36.3066 42.4992
-92.3007 4.7983 62.2925
-92.3007 21.8420 4.5386
-92.3007 30.7446 44.5664
-92.3007 -8.5662 57.0182
-92.3007 30.3989 -69.7549
-92.3007 14.5682 -23.0380
-92.3007 -9.1964 72.3471
-92.3007 -26.0211 4.5157
-92.3007 -3.2750 -34.9726
-92.3007 -47.8155 30.7123
-92.3007 -34.2130 5.7360
-92.3007 14.9582 -14.7426
-92.3007 -14.0436 -71.4717
-92.3007 30.0171 42.6927
-92.3007 13.2786 9.7726
-92.3007 22.0763 -17.8092
-92.3007 -12.0656 71.9619
-92.3007 -41.4182 -64.9657
-92.3007 11.0308 72.2909
-92.3007 -20.6451 18.3868
-92.3007 43.8950 50.3489
-92.3007 -6.9879 4.3577
-92.3007 -30.4153 10.6853
-92.3007 -13.4552 -42.7645
-92.3007 24.8058 68.6932
-92.3007 37.0674 -72.7632
-92.3007 2.2980 54.6373
-92.3007 -40.0220 33.9926
-92.3007 -30.3665 12.4495
-92.3007 -22.3939 -35.9860
-92.3007 1.2286 -21.8555
-92.3007 5.3034 37.9024
-92.3007 30.3056 50.5776
-92.3007 -40.3895 -55.2076
-92.3007 -8.5346 -62.4693
-92.3007 -28.5633 -16.1968
-92.3007 14.5795 -6.2771
-92.3007 6.1959 -65.7787
-92.3007 -46.0916 2.0244
-92.3007 23.4531 -12.0120
-92.3007 -4.0642 0.1560
-92.3007 -5.3806 -19.3920
-92.3007 3.0272 -37.8976
-92.3007 26.4626 69.2345
-92.3007 -16.3039 -57.4726
-92.3007 25.9130 -9.2971
-92.3007 -36.1809 -7.4310
-92.3007 12.4678 33.4215
-92.3007 31.9140 -15.5060
-92.3007 0.1221 13.2851
-92.3007 -6.9504 -28.5262
-92.3007 -29.9203 -65.9987
-92.3007 -20.9191 -5.6907
-92.3007 20.8447 3.5907
-92.3007 10.2767 -75.9996
-92.3007 13.4053 -28.4427
-92.3007 6.1524 70.4545
-92.3007 41.4481 14.0777
-92.3007 8.1701 -23.7046
-92.3007 30.8179 67.2756
-92.3007 -35.7759 -54.9470
-92.3007 36.8390 -28.5841
-92.3007 48.5868 -44.3058
-92.3007 8.8868 -54.5275
-92.3007 19.7475 -72.6141
-92.3007 -15.2115 61.6891
-92.3007 27.0970 -4.5037
-92.3007 23.1245 21.8558
-92.3007 5.2459 -49.7136
-92.3007 25.4142 -75.5250
-92.3007 14.8647 -32.0096
-92.3007 -47.6104 -43.2085
-92.3007 7.2484 10.2931
-92.3007 -28.4804 -76.6003
-92.3007 -10.9080 35.0396
-92.3007 -15.4431 3.9987
-92.3007 -13.2731 21.7616
-92.3007 29.9366 37.6943
-92.3007 36.5282 66.7793
-92.3007 38.3665 -6.3979
-92.3007 -32.8169 18.9503
-92.3007 31.8787 -40.3754
-92.3007 -43.6151 42.0183
-92.3007 -20.4884 -31.3234
-92.3007 -1.3498 -7.9665
-92.3007 32.4500 -15.9717
-92.3007 43.4561 66.9055
-92.3007 44.4583 -38.8398
-92.3007 20.9582 63.6514
-92.3007 -14.8054 45.3586
-92.3007 33.8624 52.5400
-92.3007 31.1130 21.4083
-92.3007 40.3351 40.7796
-92.3007 27.1084 63.6300
-92.3007 39.5290 -70.0441
-92.3007 -29.5061 36.9851
-92.3007 -18.5217 4.0920
-92.3007 -9.1242 31.2782
-92.3007 19.6034 -67.1914
-92.3007 7.8817 48.0424
-92.3007 25.5475 -19.6077
-92.3007 -13.4746 6.8830
-92.3007 -4.9763 -21.6715
-92.3007 -48.5238 14.2672
-92.3007 -33.7389 -12.6257
-92.3007 -35.0157 -39.6811
-92.3007 8.7067 22.4916
78.5341 48.6057 -37.7082
-72.6663 48.6057 34.0088
28.7557 48.6057 8.8527
-86.4744 48.6057 -54.8731
-51.9663 48.6057 -22.8542
48.8816 48.6057 -23.2373
-14.0937 48.6057 30.9463
-11.8157 48.6057 39.3827
2.2372 48.6057 -68.3496
80.6332 48.6057 -66.8127
85.1337 48.6057 -39.4738
23.4681 48.6057 -40.3476
-53.1806 48.6057 -70.0098
-40.2824 48.6057 -25.7445
14.2671 48.6057 -23.6945
-16.5210 48.6057 14.5883
-80.6533 48.6057 2.5059
15.4871 48.6057 -51.0873
-90.0960 48.6057 -40.5185
63.7061 48.6057 68.4035
60.0126 48.6057 60.4729
-19.9489 48.6057 -26.3251
-90.1362 48.6057 52.8834
-45.5625 48.6057 69.3321
6.0523 48.6057 22.8259
-53.8677 48.6057 -49.9410
-56.4627 48.6057 61.9014
77.6071 48.6057 -55.7933
86.1378 48.6057 51.7105
-15.3311 48.6057 63.3640
-80.7728 48.6057 -65.0754
-20.9732 48.6057 74.4431
-52.1377 48.6057 -41.7626
77.1565 48.6057 -12.7743
-53.1791 48.6057 61.2208
4.3569 48.6057 43.6026
-28.0537 48.6057 -31.4290
-73.7633 48.6057 6.0933
-45.9437 48.6057 16.6606
53.6567 48.6057 4.6595
-34.7886 48.6057 -34.1076
88.0352 48.6057 -44.1220
84.2373 48.6057 10.2283
-62.9199 48.6057 12.6673
-10.5670 48.6057 -62.8830
73.5699 48.6057 -72.9444
-2.9542 48.6057 36.9408
-67.8374 48.6057 -56.5223
-90.9228 48.6057 -0.9032
-79.9450 48.6057 8.0063
-10.9179 48.6057 -66.5642
-53.2018 48.6057 5.4603
-67.8093 48.6057 69.0943
-37.1803 48.6057 1.3722
-67.0359 48.6057 31.0932
25.4444 48.6057 21.9447
-45.7510 48.6057 63.6828
-34.2364 48.6057 2.2643
63.6928 48.6057 -6.2694
-58.3028 48.6057 34.0972
51.9158 48.6057 -14.3823
88.9233 48.6057 -52.0265
-61.4567 48.6057 71.6186
-15.7507 48.6057 -18.0582
-81.1687 48.6057 -16.6647
-62.3083 48.6057 34.0987
-9.4017 48.6057 61.5643
55.1017 48.6057 48.6482
-87.3587 48.6057 44.5476
-14.0792 48.6057 63.9223
-77.2411 48.6057 -4.8080
24.9516 48.6057 58.3320
-80.8019 48.6057 -30.2546
-78.4727 48.6057 4.7898
-27.2357 48.6057 -64.7020
84.0411 48.6057 -51.1612
90.0094 48.6057 -32.0951
76.9867 48.6057 -20.7521
-64.1617 48.6057 37.8009
-9.4003 48.6057 -33.3536
-34.4476 48.6057 -33.1800
-4.4468 48.6057 53.0313
-61.0911 48.6057 69.6978
-0.9616 48.6057 17.1174
-61.6897 48.6057 6.0911
26.6104 48.6057 4.8651
44.0064 48.6057 -4.5890
-74.3610 48.6057 -12.2793
-53.4400 48.6057 -58.1380
5.1523 48.6057 -35.0890
-18.3784 48.6057 75.3788
22.6877 48.6057 -63.3023
-9.8135 48.6057 -74.2489
-13.6371 48.6057 42.2339
25.8954 48.6057 45.5235
16.4722 48.6057 66.4463
-78.0255 48.6057 40.0780
-46.8832 48.6057 -50.3051
30.2448 48.6057 -25.8564
6.3722 48.6057 -58.0213
-7.1742 48.6057 71.3668
-58.7185 48.6057 19.3719
-72.5937 48.6057 14.7162
88.0680 48.6057 14.0800
73.4125 48.6057 -64.1661
-22.9616 48.6057 -70.0520
56.2591 48.6057 66.8249
-45.2290 48.6057 -44.1156
-59.4255 48.6057 40.7402
-34.3500 48.6057 76.1176
12.0068 48.6057 69.5627
34.1867 48.6057 25.7998
10.5621 48.6057 6.1838
-36.7759 48.6057 -21.4801
-35.1697 48.6057 53.6036
-69.2322 48.6057 -0.7089
-29.2520 48.6057 -15.1167
-21.1854 48.6057 -32.5348
44.6509 48.6057 6.7524
44.2736 48.6057 -17.1038
72.4797 48.6057 -52.2103
50.5599 48.6057 -55.0752
-12.5388 48.6057 53.3177
-54.8954 48.6057 -63.2722
-76.8393 48.6057 -7.5820
27.2861 48.6057 58.7279
-15.4499 48.6057 -62.9932
46.2276 48.6057 -67.4353
-25.3381 48.6057 35.3015
-86.5053 48.6057 16.2608
24.4585 48.6057 -73.7359
-75.0913 48.6057 -32.1700
-56.8909 48.6057 -33.1456
-84.2399 48.6057 -63.2207
-14.6313 48.6057 23.9374
18.2176 48.6057 15.3935
-1.2200 48.6057 46.0495
68.2752 48.6057 35.5800
-90.5738 48.6057 -14.9836
0.7527 48.6057 -48.2388
-34.6295 48.6057 30.3121
-61.8688 48.6057 64.6558
5.6372 48.6057 -18.9060
11.9429 48.6057 -50.2500
50.4501 48.6057 55.8019
67.4089 48.6057 -43.1656
11.1751 48.6057 -47.9091
-92.2214 48.6057 17.0033
6.6835 48.6057 26.4123
50.8027 48.6057 -63.2221
-82.8641 48.6057 18.2038
7.2338 48.6057 -38.9915
50.4046 48.6057 -68.7869
-6.2662 48.6057 36.3629
-61.4236 48.6057 16.2000
-73.2910 48.6057 -10.1334
83.4918 48.6057 -3.0459
-43.9854 48.6057 -38.1650
-60.0051 48.6057 44.2547
10.0508 48.6057 -65.2564
-49.9270 48.6057 73.2969
27.0278 48.6057 -73.1676
18.0979 48.6057 -72.1949
-51.3166 48.6057 3.0609
85.1754 48.6057 65.3655
84.5650 48.6057 -26.8475
67.2281 48.6057 -38.7623
72.4835 48.6057 50.2772
87.6757 48.6057 -74.6706
-92.0779 48.6057 59.7938
39.0729 48.6057 -45.6711
-56.0782 -48.6057 -73.9415
27.6862 -48.6057 53.5874
-49.9007 -48.6057 -4.2274
-45.9991 -48.6057 1.5939
67.3533 -48.6057 40.5641
-16.6391 -48.6057 24.5921
61.8538 -48.6057 35.9227
27.8523 -48.6057 30.1551
-91.6060 -48.6057 -9.8040
-68.3144 -48.6057 -52.3062
-25.0963 -48.6057 17.3112
-8.6136 -48.6057 -27.9533
63.9094 -48.6057 23.6603
60.5059 -48.6057 51.0864
24.7212 -48.6057 28.5599
8.5372 -48.6057 -2.5380
-55.1105 -48.6057 50.3851
-31.3934 -48.6057 -9.1561
22.8056 -48.6057 46.3555
8.3893 -48.6057 -3.6763
63.4254 -48.6057 23.3245
-64.6830 -48.6057 -0.1347
-37.3447 -48.6057 -41.1046
8.5483 -48.6057 -19.2376
-58.2797 -48.6057 -2.4095
-84.4753 -48.6057 70.9743
92.0288 -48.6057 3.3589
36.7397 -48.6057 29.6381
1.2298 -48.6057 61.4197
33.1508 -48.6057 44.4297
29.8795 -48.6057 -70.3265
15.6799 -48.6057 -36.0650
-46.1294 -48.6057 8.6671
73.2316 -48.6057 7.3631
19.9323 -48.6057 71.9251
91.4436 -48.6057 -69.0272
38.5324 -48.6057 -15.9362
38.9075 -48.6057 0.5177
-89.9234 -48.6057 -41.6367
35.5497 -48.6057 -31.4506
71.3124 -48.6057 -75.9763
-6.4663 -48.6057 66.7090
71.9101 -48.6057 36.3244
70.7998 -48.6057 58.0171
69.9951 -48.6057 45.0543
-51.9285 -48.6057 -4.8115
10.6584 -48.6057 37.4151
-40.6398 -48.6057 21.2172
-64.2307 -48.6057 -57.2019
28.4295 -48.6057 -36.2022
44.8629 -48.6057 67.7722
35.9127 -48.6057 -12.3614
49.0499 -48.6057 -70.2252
25.6317 -48.6057 32.1086
-26.1732 -48.6057 33.3474
-14.3590 -48.6057 75.7045
-20.3638 -48.6057 -44.8331
34.6459 -48.6057 -16.1220
39.7893 -48.6057 11.1382
-25.7635 -48.6057 23.1457
-7.3250 -48.6057 -37.8596
77.5438 -48.6057 -5.6839
37.1894 -48.6057 75.8254
-53.2947 -48.6057 -35.0414
0.0366 -48.6057 60.7874
39.5927 -48.6057 -42.9721
34.9832 -48.6057 7.6306
-81.6005 -48.6057 54.9232
33.7982 -48.6057 -15.7842
-39.4771 -48.6057 -71.6452
61.8704 -48.6057 64.3699
71.5746 -48.6057 9.5894
-23.6295 -48.6057 -39.1723
-55.1122 -48.6057 -56.9082
6.5108 -48.6057 2.5060
-62.2976 -48.6057 -23.7913
9.4227 -48.6057 -6.1236
72.9952 -48.6057 -63.3269
-14.4727 -48.6057 29.0420
7.8435 -48.6057 -16.4488
54.6011 -48.6057 -61.5747
-5.6249 -48.6057 21.2427
-4.8375 -48.6057 -24.6855
40.0015 -48.6057 -9.1927
14.4628 -48.6057 -24.2523
-63.8858 -48.6057 -49.5447
-41.1225 -48.6057 -49.9605
-81.5957 -48.6057 -17.8129
-22.9479 -48.6057 5.0055
13.5715 -48.6057 -34.7006
-83.5094 -48.6057 6.3671
-57.7801 -48.6057 19.3223
52.8966 -48.6057 45.0694
-0.6468 -48.6057 74.6360
79.6204 -48.6057 14.5042
-33.1312 -48.6057 38.2479
59.4179 -48.6057 -57.9881
73.9658 -48.6057 -59.6952
7.0426 -48.6057 17.5431
31.6605 -48.6057 -0.6098
-82.9151 -48.6057 -3.0484
83.3685 -48.6057 -9.1766
87.5577 -48.6057 44.6451
-88.4874 -48.6057 -15.7525
-11.0584 -48.6057 29.2627
-66.0789 -48.6057 34.9204
92.2552 -48.6057 69.5566
29.0038 -48.6057 8.8671
38.4983 -48.6057 -34.1704
-26.5525 -48.6057 -38.8350
57.7480 -48.6057 -35.0947
82.9232 -48.6057 42.5551
1.7797 -48.6057 12.9346
54.0096 -48.6057 -21.4432
-67.1659 -48.6057 66.1840
74.7190 -48.6057 -45.9694
-9.0052 -48.6057 -14.1757
-50.7998 -48.6057 -41.8401
7.9239 -48.6057 -73.8926
-40.5312 -48.6057 -37.9298
-34.9398 -48.6057 -44.8873
75.2991 -48.6057 39.3965
53.1012 -48.6057 45.5377
0.6834 -48.6057 -57.2231
-49.5500 -48.6057 -15.3527
-58.3102 -48.6057 -15.6967
-19.1985 -48.6057 -35.3261
75.3690 -48.6057 39.1877
31.0730 -48.6057 59.9501
60.2820 -48.6057 54.2236
57.8866 -48.6057 5.6713
82.8260 -48.6057 -19.9127
-17.9621 -48.6057 -60.5192
53.7880 -48.6057 -37.8030
72.4824 -48.6057 -55.0252
26.8112 -48.6057 -14.1145
-9.0231 -48.6057 70.0119
18.2310 -48.6057 54.3501
6.1032 -48.6057 -7.8124
-45.5250 -48.6057 -6.2988
-38.6962 -48.6057 25.2662
22.7064 -48.6057 31.6439
51.9549 -48.6057 32.9804
12.4467 -48.6057 -59.2040
60.9304 -48.6057 -49.3718
77.4625 -48.6057 -10.4569
2.9805 -48.6057 75.4390
-65.9177 -48.6057 0.2933
-10.0122 -48.6057 -63.2834
-34.7504 -48.6057 39.3726
-18.0228 -48.6057 -45.9461
-39.0714 -48.6057 -11.9504
-45.8415 -48.6057 22.4260
-26.4287 -48.6057 48.3524
25.8008 -48.6057 -50.3633
57.9239 -48.6057 -5.2336
-35.5027 -48.6057 64.8704
89.2952 -48.6057 43.7011
-83.1957 -48.6057 -62.4594
-77.8929 -48.6057 -29.8394
-2.5640 -48.6057 -49.3807
72.6322 -48.6057 -15.0449
-43.1927 -48.6057 22.6529
-55.2547 -48.6057 12.8147
-21.8410 -48.6057 60.4051
80.6476 -48.6057 65.4382
-54.8638 -48.6057 -37.0053
-71.1468 -48.6057 -48.6952
-75.8638 -48.6057 -2.9289
65.2608 -48.6057 68.4613
11.0052 -48.6057 23.0276
9.5349 -24.6615 77.4200
20.8658 12.4980 77.4200
10.5472 27.0392 77.4200
76.3401 -18.7613 77.4200
72.1521 -21.7149 77.4200
-14.4563 -43.8996 77.4200
-86.9312 12.3586 77.4200
-61.0652 12.0278 77.4200
-23.4955 2.8617 77.4200
58.3254 -22.5132 77.4200
22.6836 -19.0502 77.4200
-50.6036 16.4143 77.4200
-33.8846 42.1454 77.4200
-16.8648 -42.2238 77.4200
-63.9330 24.2397 77.4200
69.0764 31.8424 77.4200
25.9113 5.7591 77.4200
33.3250 -31.3672 77.4200
28.1277 -38.6158 77.4200
-5.1109 18.3757 77.4200
-64.5152 -46.9086 77.4200
-16.9986 13.8366 77.4200
3.9791 11.6967 77.4200
35.2956 -27.8234 77.4200
2.0685 -11.9985 77.4200
20.9874 18.2439 77.4200
-17.9097 38.9221 77.4200
-41.9465 32.0353 77.4200
-52.0593 -23.7314 77.4200
-34.3077 -28.7186 77.4200
-66.4874 10.2547 77.4200
-75.1414 18.4934 77.4200
-68.3333 32.1816 77.4200
89.0654 32.3026 77.4200
-55.7350 -16.1131 77.4200
66.0358 19.6572 77.4200
32.7550 -30.8494 77.4200
-69.4691 -29.3712 77.4200
-76.0182 31.4570 77.4200
50.2875 47.7180 77.4200
61.0558 40.1697 77.4200
18.8582 28.7116 77.4200
-51.5882 30.7918 77.4200
65.0339 -13.0730 77.4200
-22.6062 42.8340 77.4200
-90.8926 0.2902 77.4200
38.2192 -21.6233 77.4200
-29.8007 -40.8584 77.4200
70.4262 38.5512 77.4200
9.9236 8.0136 77.4200
-49.9834 -14.4432 77.4200
-69.8701 4.9371 77.4200
12.6529 13.0126 77.4200
-58.1193 -32.7940 77.4200
-75.0860 30.5692 77.4200
73.8505 -36.8051 77.4200
88.3822 39.0149 77.4200
38.5171 -43.1583 77.4200
48.7885 -36.0974 77.4200
5.7231 25.9889 77.4200
52.4873 45.3894 77.4200
89.5443 -25.9759 77.4200
37.2707 -23.5412 77.4200
70.5254 -3.3079 77.4200
85.2735 14.4993 77.4200
85.5649 -14.4201 77.4200
2.3344 14.6388 77.4200
-73.0413 -29.0588 77.4200
-19.2498 7.2354 77.4200
12.4926 -19.0763 77.4200
44.4949 25.2139 77.4200
-55.9355 -30.6283 77.4200
33.0604 -13.8684 77.4200
74.2965 26.7859 77.4200
-13.9780 -21.8015 77.4200
-67.7935 -14.2117 77.4200
63.8057 11.7507 77.4200
-92.0272 13.3910 77.4200
-57.4369 48.3623 77.4200
56.0765 32.6119 77.4200
-75.6533 17.0537 77.4200
-53.3275 -20.2047 77.4200
83.2264 31.3063 77.4200
-59.7639 39.7992 77.4200
2.3908 26.5613 77.4200
77.9374 29.9005 77.4200
48.8573 -1.6377 77.4200
19.9812 -42.9374 77.4200
7.0701 -23.1787 77.4200
-77.7466 24.4218 77.4200
-0.2293 -2.2350 77.4200
-34.4728 40.7544 77.4200
-79.9656 28.2373 77.4200
6.5475 2.1481 77.4200
0.9410 20.5412 77.4200
34.1561 35.8772 77.4200
27.8007 30.8024 77.4200
-12.1521 -29.3690 77.4200
-78.5192 -30.2116 77.4200
-55.9593 24.6427 77.4200
-9.9397 37.7350 77.4200
-24.3432 34.2273 77.4200
90.5400 -35.1817 77.4200
2.8573 -13.2272 77.4200
-12.0565 4.1156 77.4200
-84.4603 -21.8377 77.4200
2.9070 28.5446 77.4200
20.3066 -45.6012 77.4200
37.5553 -20.7311 77.4200
-26.0973 47.8561 77.4200
36.2777 -35.5734 77.4200
91.3496 -17.4576 77.4200
-0.1579 36.0190 77.4200
9.8898 -2.7119 77.4200
-62.7046 -3.9589 77.4200
75.4553 -10.6005 77.4200
53.4770 -33.9290 77.4200
-79.5664 -16.8316 77.4200
86.0096 47.2895 77.4200
-28.2882 34.6892 77.4200
-22.9129 -45.4971 77.4200
13.7423 27.4061 77.4200
-80.2622 -8.3233 77.4200
21.9474 18.2797 77.4200
-80.3624 -44.2458 77.4200
9.0603 -6.4963 77.4200
-30.9929 29.2111 77.4200
-63.2161 -3.3427 77.4200
-76.3939 -21.9257 77.4200
-32.1860 -33.5770 77.4200
91.2123 -42.0111 77.4200
-57.6704 3.4496 77.4200
-23.2087 -32.8808 77.4200
-82.4206 -8.0738 77.4200
29.3699 3.2722 77.4200
15.1536 34.0437 77.4200
10.0722 20.4005 77.4200
-70.3365 2.7441 77.4200
-90.5325 -4.3819 77.4200
-16.4008 37.0458 77.4200
56.7761 26.8006 77.4200
-17.8828 10.4487 77.4200
53.9807 -7.6317 77.4200
76.6812 33.0485 77.4200
-7.3460 -20.8808 77.4200
-61.3937 -33.3174 77.4200
-47.2313 -17.9515 77.4200
66.1821 30.4582 77.4200
6.3194 -27.6364 77.4200
81.3293 10.8071 77.4200
67.0882 44.6627 77.4200
36.3073 -21.1837 77.4200
87.6399 -40.7448 77.4200
-85.6881 -24.7240 77.4200
41.3536 4.0815 77.4200
52.8540 -46.1396 77.4200
-50.8064 13.9347 77.4200
-52.5581 2.2701 77.4200
-71.4689 15.6153 77.4200
76.4563 2.0867 77.4200
-7.3303 35.5851 77.4200
31.9117 42.4657 77.4200
-27.4764 -29.0311 77.4200
-69.8966 -36.4219 77.4200
0.9094 -12.0852 77.4200
-53.8575 37.9602 77.4200
-12.3361 48.0479 77.4200
9.8042 -35.6053 77.4200
11.3079 -19.3947 77.4200
-90.6704 -34.8494 77.4200
3.1198 28.2900 -77.4200
13.5567 46.1516 -77.4200
36.8670 -38.3426 -77.4200
74.5100 43.0238 -77.4200
61.4570 -22.3006 -77.4200
29.6218 2.4475 -77.4200
-62.2980 -13.7975 -77.4200
18.9768 -41.3242 -77.4200
65.3586 -42.6701 -77.4200
74.1197 17.5746 -77.4200
-68.3784 -11.5095 -77.4200
-37.0908 -38.1578 -77.4200
34.7917 -46.5854 -77.4200
-82.5951 39.4704 -77.4200
81.1471 47.0124 -77.4200
-44.5212 22.7300 -77.4200
27.9799 -14.0178 -77.4200
-5.3548 18.6430 -77.4200
-60.4235 -43.0163 -77.4200
23.5170 16.4279 -77.4200
-58.9648 43.5474 -77.4200
-84.3087 -44.1318 -77.4200
-68.0309 -42.2764 -77.4200
-89.9713 -38.0327 -77.4200
-32.6376 24.8851 -77.4200
42.3135 20.7215 -77.4200
55.9931 -32.7848 -77.4200
76.5160 35.5907 -77.4200
-11.1091 -18.7282 -77.4200
22.7162 -39.0915 -77.4200
68.0045 -0.1604 -77.4200
-5.8196 46.9885 -77.4200
55.3645 45.9696 -77.4200
-25.4121 -5.8581 -77.4200
-28.3294 -32.2788 -77.4200
-83.2676 -27.0004 -77.4200
-43.6854 -12.6739 -77.4200
-38.3658 22.7106 -77.4200
-13.6232 -26.5582 -77.4200
-26.5750 28.5536 -77.4200
-66.2407 -13.9481 -77.4200
78.6944 20.8424 -77.4200
-0.2587 -30.9410 -77.4200
-89.9736 -27.3906 -77.4200
74.9416 -29.2040 -77.4200
33.6817 -0.3347 -77.4200
-85.8857 -41.9588 -77.4200
36.0318 31.9751 -77.4200
-37.9071 -35.2904 -77.4200
-35.9524 -15.2822 -77.4200
64.7706 25.0338 -77.4200
46.2048 -23.3309 -77.4200
31.7155 -33.5987 -77.4200
-80.5831 2.9812 -77.4200
18.9666 27.8782 -77.4200
-70.1867 -6.1514 -77.4200
-15.3857 -21.9804 -77.4200
-81.5691 -6.2978 -77.4200
-75.5366 -43.8070 -77.4200
-49.4296 -16.1005 -77.4200
-68.2335 21.6625 -77.4200
-31.0665 21.3971 -77.4200
-60.1271 -38.6763 -77.4200
-34.0624 47.9067 -77.4200
-57.1594 -27.8550 -77.4200
-50.2696 -24.2214 -77.4200
-25.5212 -41.7067 -77.4200
32.3048 -13.6393 -77.4200
-23.1718 21.5140 -77.4200
-52.8810 9.7734 -77.4200
43.2350 23.3353 -77.4200
62.4611 -41.1110 -77.4200
-44.5302 -26.8056 -77.4200
88.4154 13.3093 -77.4200
-43.6145 1.5039 -77.4200
78.7741 22.4865 -77.4200
-22.4899 -45.2486 -77.4200
43.8553 42.0424 -77.4200
-40.6081 -14.0148 -77.4200
58.5266 15.2774 -77.4200
-20.3331 -16.1403 -77.4200
56.5303 -20.2786 -77.4200
-24.4487 -38.6850 -77.4200
21.6297 -25.8924 -77.4200
27.9212 -3.3855 -77.4200
-55.3448 -25.3557 -77.4200
88.5828 10.5681 -77.4200
-39.4411 -19.7547 -77.4200
-16.8345 9.6195 -77.4200
62.5380 -18.7585 -77.4200
-53.6156 -29.9516 -77.4200
-25.9343 -42.6329 -77.4200
21.8048 -17.4856 -77.4200
-18.8663 -34.9011 -77.4200
-8.7625 -22.4549 -77.4200
49.5710 14.6214 -77.4200
25.2379 -21.1524 -77.4200
7.4154 -25.4950 -77.4200
33.8083 48.5010 -77.4200
37.9338 47.3190 -77.4200
18.9178 -1.5884 -77.4200
-68.3922 8.8609 -77.4200
-57.4705 9.7945 -77.4200
-65.4866 36.4865 -77.4200
-58.3552 -19.9986 -77.4200
25.1542 -44.8048 -77.4200
-76.7698 15.4216 -77.4200
64.8791 -6.0987 -77.4200
-39.2808 43.5995 -77.4200
-74.1181 46.4129 -77.4200
31.2734 -24.2646 -77.4200
-90.9005 -39.1446 -77.4200
-8.2602 -34.9443 -77.4200
-58.9049 14.1547 -77.4200
24.9386 -39.8394 -77.4200
-54.1067 4.1955 -77.4200
44.2431 33.3662 -77.4200
-58.5308 -28.4771 -77.4200
57.2959 37.2488 -77.4200
28.4568 3.3125 -77.4200
40.1660 -39.0430 -77.4200
73.8067 44.9855 -77.4200
-72.3304 12.0935 -77.4200
-90.0590 -34.1478 -77.4200
29.5637 -16.0292 -77.4200
67.0521 -48.2675 -77.4200
-26.7121 30.4630 -77.4200
-13.4542 18.8930 -77.4200
87.2614 -36.8358 -77.4200
-44.6016 14.5497 -77.4200
72.2497 -30.1845 -77.4200
50.1962 -27.2084 -77.4200
72.0616 40.3166 -77.4200
68.6242 -40.7888 -77.4200
65.8433 25.6196 -77.4200
91.1062 -10.4836 -77.4200
-67.9503 40.9254 -77.4200
34.1607 1.3029 -77.4200
-81.0711 -34.5054 -77.4200
-87.5674 15.9080 -77.4200
5.6585 38.1953 -77.4200
-87.0952 -20.1692 -77.4200
-41.9126 -35.5325 -77.4200
-64.3296 -29.8042 -77.4200
64.4883 -18.8976 -77.4200
-57.2874 -39.3216 -77.4200
-50.4046 5.9762 -77.4200
76.5952 -20.4484 -77.4200
85.0339 24.6278 -77.4200
27.8798 -21.0117 -77.4200
48.3594 -30.6185 -77.4200
-6.6800 -29.7790 -77.4200
-9.5709 -45.6623 -77.4200
-71.4598 -1.7816 -77.4200
35.4106 -39.7730 -77.4200
91.7460 -10.0415 -77.4200
89.3226 -21.3701 -77.4200
3.4543 10.5863 -77.4200
-33.4649 2.2045 -77.4200
-20.9720 31.5520 -77.4200
-20.0664 -35.5866 -77.4200
-50.4322 2.8627 -77.4200
66.2370 33.0338 -77.4200
-17.4170 15.9000 -77.4200
2.1137 45.0177 -77.4200
-24.7613 -46.4938 -77.4200
74.8085 -1.1367 -77.4200
53.3745 3.4120 -77.4200
44.9060 -38.2375 -77.4200
-25.7533 -24.9472 -77.4200
