ply
format ascii 1.0
element vertex 1024
property float x
property float y
property float z
end_header
97.8040 64.2964 -94.1859
97.8040 -85.6716 22.3871
97.8040 -63.1013 32.2409
97.8040 -6.2237 -78.3076
97.8040 -70.0881 45.4186
97.8040 6.2874 0.9300
97.8040 9.1263 -0.3994
97.8040 -21.6316 17.4137
97.8040 -56.4344 -22.5243
97.8040 35.5696 33.3200
97.8040 -44.1622 79.9912
97.8040 -95.5895 13.6958
97.8040 -72.0870 -8.5559
97.8040 94.0555 -89.1255
97.8040 53.1838 71.1274
97.8040 93.4303 40.0693
97.8040 96.4299 -83.1699
97.8040 -21.5011 -62.2944
97.8040 63.9483 -56.0991
97.8040 12.6433 34.6922
97.8040 -14.2415 20.8066
97.8040 18.3103 -63.5615
97.8040 16.7417 -14.2325
97.8040 16.6432 91.9228
97.8040 -8.1721 -91.2492
97.8040 -15.7251 33.7092
97.8040 8.7178 60.4558
97.8040 38.3883 94.1366
97.8040 -25.3957 91.7554
97.8040 -56.1379 -22.1294
97.8040 -92.5434 68.1381
97.8040 34.1057 -20.1725
97.8040 -81.0802 -10.9024
97.8040 29.8987 57.7023
97.8040 25.7123 -27.3002
97.8040 69.3092 -67.8760
97.8040 31.0983 42.2993
97.8040 -73.2820 -21.7197
97.8040 -80.4664 53.8629
97.8040 92.5514 -25.5207
97.8040 -38.5328 26.3510
97.8040 -65.8813 -24.8795
97.8040 -18.9904 65.1697
97.8040 3.5515 -11.9427
97.8040 58.8164 52.6267
97.8040 85.7513 -13.0812
97.8040 -10.9279 -65.2866
97.8040 -86.1928 -86.7738
97.8040 3.5568 -70.8597
97.8040 -11.3534 -87.9096
97.8040 -82.4265 34.4261
97.8040 86.7055 29.7206
97.8040 78.4339 -22.6269
97.8040 -14.8941 -63.5595
97.8040 -37.0238 -72.5837
97.8040 51.2776 -0.2673
97.8040 68.2649 13.5843
97.8040 50.8336 18.0590
97.8040 91.2226 89.5367
97.8040 -97.4738 -90.2521
97.8040 74.2050 -10.2417
97.8040 -61.2279 41.1133
97.8040 77.6698 -63.4684
97.8040 -3.3004 22.8517
97.8040 -76.5029 2.3769
97.8040 72.8727 -80.0730
97.8040 47.9843 77.7523
97.8040 -39.7284 -20.1050
97.8040 -76.0997 2.3884
97.8040 -4.6766 6.1190
97.8040 67.9865 86.2295
97.8040 -25.9453 34.4906
97.8040 -88.6461 32.0743
97.8040 65.5959 -18.0312
97.8040 24.3779 53.6632
97.8040 28.7319 -94.4538
97.8040 -61.7684 55.3199
97.8040 77.0202 70.6907
97.8040 16.0983 -19.4822
97.8040 13.7490 45.3732
97.8040 31.1471 -60.4947
97.8040 92.5283 60.4279
97.8040 -72.8953 22.2252
97.8040 -63.7448 -72.3665
97.8040 -54.7394 1.0014
97.8040 -3.0352 52.2763
97.8040 -48.5709 78.1178
97.8040 -91.3148 -62.2712
97.8040 -30.9592 37.4633
97.8040 -86.5786 26.7482
97.8040 -6.7105 -74.3874
97.8040 -27.4272 31.7169
97.8040 12.6990 97.5377
97.8040 95.6215 14.3359
97.8040 60.0627 -14.2871
97.8040 -15.6213 33.6601
97.8040 -8.7041 78.4094
97.8040 -44.8232 48.7762
97.8040 -29.1044 -8.1025
97.8040 46.4594 -10.5426
97.8040 91.3030 -58.1428
97.8040 -14.1598 -1.6505
97.8040 -37.5482 -22.1107
97.8040 63.9737 13.9528
97.8040 -65.3427 7.0353
97.8040 -21.3362 -45.2276
97.8040 43.2879 8.3778
97.8040 -4.3436 0.0593
97.8040 72.6862 79.7600
97.8040 4.0286 56.9839
97.8040 -2.2634 -35.9365
97.8040 -22.4101 77.0966
97.8040 -49.9666 38.2191
97.8040 -89.8350 23.9311
97.8040 17.1583 -47.8019
97.8040 62.7695 -79.7407
97.8040 84.1371 81.6098
97.8040 35.0196 -96.2343
97.8040 -60.9888 77.9441
97.8040 11.7278 76.4523
97.8040 -58.1699 42.9018
97.8040 -91.2168 -77.4350
97.8040 44.4373 -11.1432
97.8040 -42.1255 -58.0512
97.8040 -54.6606 56.2144
97.8040 3.9061 53.9908
97.8040 74.5849 23.8545
97.8040 17.1236 27.4918
97.8040 -46.6448 59.1760
97.8040 17.3517 53.1768
97.8040 -97.5005 -73.4615
97.8040 69.0682 4.8702
97.8040 19.0587 -96.6685
97.8040 -42.5582 -40.1112
97.8040 29.6932 -38.7338
97.8040 -7.6639 32.0876
97.8040 -67.2719 -60.1551
97.8040 53.7146 -19.6071
97.8040 -44.2527 54.1167
97.8040 33.5988 31.1363
97.8040 -55.7030 13.9543
97.8040 94.1475 -21.1332
97.8040 -0.6008 -9.6482
97.8040 96.3182 60.9316
97.8040 63.1493 68.0891
97.8040 74.0252 50.7613
97.8040 -11.6574 44.7826
97.8040 12.7199 10.8543
97.8040 -37.0256 32.4673
97.8040 82.6766 63.9434
97.8040 -8.4209 92.9524
97.8040 60.1973 89.5928
97.8040 32.7079 -73.0475
97.8040 -77.5214 1.4295
97.8040 -25.6290 54.2527
97.8040 66.4070 40.6271
97.8040 15.6269 95.2937
97.8040 -50.4539 -91.8345
97.8040 92.4247 1.8566
97.8040 -75.3464 -40.7873
97.8040 -64.3934 56.3016
97.8040 73.2406 -65.3615
97.8040 -62.2275 -77.2004
97.8040 71.9281 -89.4305
97.8040 -49.1252 77.9583
97.8040 12.3665 -9.1795
97.8040 -86.9654 -49.5977
97.8040 68.4859 13.4198
97.8040 -86.6057 39.7542
97.8040 59.2950 -67.3172
97.8040 67.6509 -0.5706
-97.8040 -20.0640 72.9533
-97.8040 -10.8331 41.9363
-97.8040 -26.5057 98.0327
-97.8040 -15.6932 94.7250
-97.8040 36.1750 67.1942
-97.8040 41.5730 3.6518
-97.8040 -71.3279 2.2885
-97.8040 38.9614 23.5097
-97.8040 26.8394 75.4617
-97.8040 -15.8169 -38.0201
-97.8040 -31.4914 91.6107
-97.8040 -40.3130 -48.5010
-97.8040 38.6806 -41.7295
-97.8040 17.6293 -29.8056
-97.8040 -37.9230 -6.3589
-97.8040 35.3745 29.8265
-97.8040 -86.2279 -11.7504
-97.8040 -19.8398 56.7454
-97.8040 -59.2544 -27.2998
-97.8040 -23.4111 96.9759
-97.8040 71.2645 -43.4266
-97.8040 -63.4465 -96.7359
-97.8040 54.1984 -7.1732
-97.8040 36.1142 -45.9999
-97.8040 46.0961 53.8389
-97.8040 -2.3367 -4.8332
-97.8040 15.9706 71.6811
-97.8040 -28.9387 -37.1760
-97.8040 -2.1933 -29.6580
-97.8040 93.1655 7.4335
-97.8040 44.0692 98.0677
-97.8040 61.0977 15.8841
-97.8040 51.5049 1.5232
-97.8040 -9.6862 27.8597
-97.8040 63.7376 -38.6196
-97.8040 -51.6527 -1.5646
-97.8040 64.4749 -21.4485
-97.8040 -85.3005 -73.5365
-97.8040 55.3823 52.6360
-97.8040 -20.9175 -41.7476
-97.8040 -61.5200 58.1916
-97.8040 -37.2276 -4.3163
-97.8040 50.1223 52.7553
-97.8040 57.8971 62.7405
-97.8040 45.9529 -79.7244
-97.8040 -61.0812 -69.8973
-97.8040 92.5803 -32.9653
-97.8040 61.4729 91.7655
-97.8040 52.1733 -19.7174
-97.8040 -94.1217 -43.3350
-97.8040 -85.6026 48.5940
-97.8040 -12.7661 28.4003
-97.8040 34.4227 3.0206
-97.8040 -43.8034 -55.4886
-97.8040 78.2996 75.3458
-97.8040 72.6138 12.1662
-97.8040 -30.8264 -73.6858
-97.8040 80.4407 -71.0907
-97.8040 -84.9591 -67.3629
-97.8040 -41.5915 4.4200
-97.8040 -81.7785 -73.8808
-97.8040 -60.5894 -39.0888
-97.8040 -39.6401 93.4452
-97.8040 -91.0844 28.7319
-97.8040 89.6304 40.6102
-97.8040 97.1855 93.4940
-97.8040 12.1342 75.7724
-97.8040 -30.0230 -87.2795
-97.8040 -8.6018 3.9855
-97.8040 45.4267 64.8073
-97.8040 -54.5353 -79.5403
-97.8040 40.1816 77.2486
-97.8040 -64.0718 29.4654
-97.8040 29.9188 71.1426
-97.8040 30.6110 -28.3582
-97.8040 -37.0180 -59.4351
-97.8040 -23.9536 53.4239
-97.8040 89.7263 -90.4264
-97.8040 31.1046 51.5365
-97.8040 28.3261 28.0520
-97.8040 74.0142 40.0471
-97.8040 33.1769 -62.1240
-97.8040 49.3423 20.4642
-97.8040 -29.2826 31.1677
-97.8040 66.1836 -45.5031
-97.8040 72.2900 -63.5925
-97.8040 -86.7437 69.3702
-97.8040 -83.7978 -28.2756
-97.8040 27.6473 -71.4639
-97.8040 -93.7483 95.9467
-97.8040 71.6307 -8.1431
-97.8040 91.3861 0.4599
-97.8040 -1.4973 49.6922
-97.8040 -91.7620 83.1469
-97.8040 4.1369 -82.4612
-97.8040 -67.2651 5.3394
-97.8040 1.1481 -62.6357
-97.8040 61.6609 26.7219
-97.8040 53.7739 91.1744
-97.8040 77.3649 68.6925
-97.8040 -91.4355 -10.0050
-97.8040 -5.2064 -18.5088
-97.8040 2.2827 31.1687
-97.8040 -79.5257 88.4482
-97.8040 -52.7747 66.6865
-97.8040 41.8655 82.2527
-97.8040 70.7537 -58.9729
-97.8040 -96.4748 55.1871
-97.8040 -94.5422 28.9201
-97.8040 -66.4140 33.4082
-97.8040 -95.2725 -78.1308
-97.8040 -20.1457 -33.7393
-97.8040 3.5809 59.3289
-97.8040 -33.3514 -40.1139
-97.8040 85.1294 -1.1354
-97.8040 -9.8800 -96.0359
-97.8040 87.6748 -61.3593
-97.8040 66.5571 -52.8297
-97.8040 96.1707 91.1172
-97.8040 -38.8820 14.0263
-97.8040 44.1784 -72.6811
-97.8040 51.6303 81.1963
-97.8040 -73.0511 -35.5724
-97.8040 4.2191 -96.1013
-97.8040 -91.7623 39.1198
-97.8040 96.1923 -73.2565
-97.8040 -39.3353 69.2004
-97.8040 -49.2161 -96.2658
-97.8040 -78.7114 89.7354
-97.8040 71.1500 -1.0817
-97.8040 -49.2662 28.8354
-97.8040 97.4409 -11.8361
-97.8040 -53.9038 -82.4899
-97.8040 -80.5614 -24.8272
-97.8040 -57.2057 -93.8445
-97.8040 70.3551 26.3081
-97.8040 -23.7398 97.5401
-97.8040 5.0777 -90.5282
-97.8040 27.5167 -46.4699
-97.8040 -17.8624 -8.2272
-97.8040 49.8496 70.4812
-97.8040 39.9905 -9.3695
-97.8040 -57.2611 20.1172
-97.8040 48.9926 -33.7287
-97.8040 46.6275 -31.3952
-97.8040 -8.5861 -92.8095
-97.8040 28.1319 47.1597
-97.8040 46.5049 -35.2711
-97.8040 -29.7743 -62.3550
-97.8040 77.6937 -71.3622
-97.8040 67.0059 -4.3470
-97.8040 -20.1600 72.6324
-97.8040 -88.6190 15.5061
-97.8040 -34.2896 -78.8452
-97.8040 -64.7705 -88.9786
-97.8040 26.9832 97.2047
-97.8040 35.8988 32.9038
-97.8040 -82.6602 11.0002
-97.8040 93.1200 50.6094
-97.8040 -26.4050 69.0540
-97.8040 -51.2546 -9.2931
-97.8040 33.9117 -84.3297
-97.8040 -18.8036 -86.5322
-97.8040 -78.7653 23.7127
-97.8040 95.0694 43.3394
-97.8040 -56.4073 -93.5541
-97.8040 -32.6412 60.2715
-97.8040 10.2542 -25.5611
-97.8040 -67.8277 22.9215
-97.8040 -96.0310 -41.5096
-97.8040 -0.4902 -89.2392
-51.6380 98.2356 -44.4708
49.1994 98.2356 -93.3621
-89.1444 98.2356 -66.6690
47.5911 98.2356 82.7547
-43.3232 98.2356 86.0637
85.9344 98.2356 16.7166
-47.4713 98.2356 -4.9509
-39.0785 98.2356 -59.1392
14.8480 98.2356 40.9269
-25.1123 98.2356 -72.7166
18.2584 98.2356 -10.0652
-62.6422 98.2356 -47.4565
22.2011 98.2356 86.3851
-85.2707 98.2356 -84.9170
-38.1244 98.2356 16.3143
-15.4775 98.2356 -42.0877
-28.6102 98.2356 82.5880
88.9514 98.2356 -76.3814
-86.5183 98.2356 97.5487
19.2398 98.2356 -88.0623
30.1010 98.2356 -19.7787
93.2585 98.2356 11.7550
-73.2982 98.2356 97.2833
-83.5257 98.2356 84.3502
65.1192 98.2356 -75.2667
9.9077 98.2356 -72.5426
84.0769 98.2356 -92.1205
-59.5191 98.2356 57.1074
28.8859 98.2356 4.5692
37.0365 98.2356 -67.0405
-24.6139 98.2356 -83.6445
-20.1394 98.2356 6.9950
-95.1256 98.2356 79.4220
76.3195 98.2356 -4.1015
43.9314 98.2356 31.6129
19.5227 98.2356 -35.7800
-24.1228 98.2356 86.5031
-95.1212 98.2356 69.7288
-58.7694 98.2356 36.7838
30.0748 98.2356 -22.8256
86.9547 98.2356 -8.0692
1.9511 98.2356 31.8037
33.1410 98.2356 -72.6161
-58.1660 98.2356 59.4230
73.6045 98.2356 24.0962
-55.4774 98.2356 -10.5847
29.9942 98.2356 -10.4511
84.7719 98.2356 52.8991
50.6467 98.2356 21.0966
61.3406 98.2356 -58.9597
85.5336 98.2356 -68.9432
-43.4513 98.2356 -21.0883
74.2637 98.2356 6.5833
82.0303 98.2356 34.0500
36.5771 98.2356 9.0181
56.0758 98.2356 -54.5091
29.9125 98.2356 -54.6702
60.0865 98.2356 -26.5130
-61.0268 98.2356 -44.0667
87.4129 98.2356 29.2263
-5.3038 98.2356 42.4288
-45.7114 98.2356 63.2893
94.4051 98.2356 -30.8594
79.3052 98.2356 81.8913
11.5192 98.2356 45.1154
-27.3957 98.2356 -44.6286
-57.4650 98.2356 -55.2154
-8.9536 98.2356 -59.5670
96.9056 98.2356 50.1580
-7.3068 98.2356 85.2423
20.8494 98.2356 12.2739
36.9437 98.2356 -54.3668
44.7068 98.2356 32.8391
31.5555 98.2356 -88.9900
-44.4570 98.2356 -18.6406
76.5465 98.2356 -11.1219
25.2348 98.2356 40.0820
-41.4412 98.2356 -30.6536
-90.8689 98.2356 34.3016
-90.5630 98.2356 49.6838
-29.6772 98.2356 -27.2442
-72.8151 98.2356 37.3298
-21.6349 98.2356 33.0451
-37.1122 98.2356 -79.6088
-44.4165 98.2356 1.7584
-79.3889 98.2356 -1.5041
54.9342 98.2356 -69.3767
-31.3867 98.2356 -44.9858
36.6179 98.2356 -76.3649
-93.8468 98.2356 47.1116
-43.0886 98.2356 71.6920
-57.0016 98.2356 -87.9025
-35.3333 98.2356 -16.6145
-62.1929 98.2356 -36.7296
17.5517 98.2356 42.2013
-73.5144 98.2356 -58.4890
10.3720 98.2356 19.0862
0.8924 98.2356 78.5385
-16.5952 98.2356 18.5485
60.3312 98.2356 -49.6870
-84.1291 98.2356 60.8457
-10.4410 98.2356 -74.8613
93.8323 98.2356 32.4704
10.2047 98.2356 -37.6128
-82.5382 98.2356 86.2920
5.1509 98.2356 76.9043
-65.4590 98.2356 85.7918
11.1838 98.2356 6.7191
36.0594 98.2356 -54.8307
-88.8415 98.2356 24.9142
26.1038 98.2356 -6.1819
74.1561 98.2356 90.1787
-15.1451 98.2356 -36.8880
-51.6816 98.2356 -24.4235
-46.7560 98.2356 -9.0127
-61.8352 98.2356 -72.8677
80.9181 98.2356 -54.9116
-71.6233 98.2356 33.8986
-29.5122 98.2356 34.3811
85.7531 98.2356 -19.3985
0.4168 98.2356 -63.0536
-90.9829 98.2356 -72.6971
-26.1810 98.2356 -80.6774
-34.5323 98.2356 -39.6431
29.3923 98.2356 -47.7288
17.9123 98.2356 13.3028
81.2338 98.2356 73.5782
-14.1577 98.2356 -10.9245
67.2738 98.2356 -62.3835
32.5824 98.2356 -25.7951
-81.2268 98.2356 -15.8869
6.6811 98.2356 33.9538
39.6262 98.2356 -52.5682
49.0762 98.2356 90.7183
63.4658 98.2356 22.8957
-60.4191 98.2356 -72.7298
-4.0796 98.2356 -79.3034
48.6143 98.2356 -87.5062
67.9925 98.2356 -62.6796
-61.2257 98.2356 81.8294
13.5757 98.2356 -96.1922
-61.1616 98.2356 22.0578
-68.1596 98.2356 65.2260
32.8985 98.2356 77.0770
-24.0439 98.2356 -89.5952
42.5746 98.2356 91.4565
35.5987 98.2356 60.9180
-27.1133 98.2356 -38.2609
83.8888 98.2356 35.2687
-42.4120 98.2356 36.6583
63.6885 98.2356 38.8566
-56.1333 98.2356 85.5153
-29.3333 98.2356 55.3089
4.7671 98.2356 -74.0017
31.9352 98.2356 16.4589
6.1603 98.2356 47.3206
-93.0135 98.2356 43.9300
4.4958 98.2356 89.8993
-88.5437 98.2356 3.2401
79.8264 98.2356 -3.7359
-26.0650 98.2356 -42.6393
87.9160 98.2356 2.2281
23.5608 98.2356 -13.7177
-76.6991 98.2356 7.6974
-85.0345 98.2356 -51.8769
-84.8059 98.2356 56.5520
-53.7411 98.2356 -81.6625
46.2854 98.2356 72.7553
54.2789 98.2356 36.9134
9.5653 98.2356 39.8459
-17.7881 98.2356 58.1059
-86.8362 -98.2356 19.2239
-50.7108 -98.2356 -12.6296
-49.7267 -98.2356 6.1614
-0.6748 -98.2356 -45.5016
-67.4277 -98.2356 -34.8091
-11.3007 -98.2356 -27.8316
-3.1020 -98.2356 -60.1826
18.1852 -98.2356 80.2590
-39.3386 -98.2356 -59.0313
-54.3534 -98.2356 2.8008
-68.3462 -98.2356 53.9698
59.7562 -98.2356 29.1152
-1.8304 -98.2356 -60.5086
-84.8025 -98.2356 -55.6306
2.9796 -98.2356 -22.4168
-44.8690 -98.2356 -97.3143
-24.1364 -98.2356 26.4006
51.3368 -98.2356 63.1395
66.1144 -98.2356 -96.4945
-79.9396 -98.2356 -20.8591
49.5730 -98.2356 -68.2411
-42.4844 -98.2356 24.2462
4.4529 -98.2356 15.8932
5.3681 -98.2356 54.1888
-89.9904 -98.2356 7.1489
40.3603 -98.2356 -57.6232
-79.5015 -98.2356 49.3609
-86.9090 -98.2356 68.3635
47.4018 -98.2356 -40.2623
-62.7307 -98.2356 95.7842
88.6438 -98.2356 -24.6775
-76.7257 -98.2356 74.3760
78.9267 -98.2356 -61.1389
39.7490 -98.2356 -0.1969
83.9515 -98.2356 -7.2259
26.8842 -98.2356 23.8587
96.0890 -98.2356 -87.4797
89.5739 -98.2356 32.5875
-80.8220 -98.2356 36.2625
16.7720 -98.2356 -74.9962
57.3785 -98.2356 -67.9567
-67.4514 -98.2356 27.2942
41.2706 -98.2356 -29.7299
-6.7746 -98.2356 -68.6371
81.4793 -98.2356 15.4501
84.9298 -98.2356 -9.8239
81.5633 -98.2356 8.9638
-36.0715 -98.2356 54.9175
-3.5263 -98.2356 68.6705
-35.9751 -98.2356 35.0708
-91.7291 -98.2356 36.2954
2.5757 -98.2356 6.2042
86.3881 -98.2356 -50.7399
-94.9979 -98.2356 67.6266
-12.9680 -98.2356 82.9882
83.5659 -98.2356 -4.7051
-49.0905 -98.2356 -88.6737
-7.3910 -98.2356 24.8235
9.8596 -98.2356 -60.0284
66.2086 -98.2356 96.8670
-19.7816 -98.2356 -27.8864
21.2706 -98.2356 -47.1961
69.9499 -98.2356 -38.3866
62.9415 -98.2356 -17.1981
-93.0181 -98.2356 5.0846
-32.5651 -98.2356 95.2387
-46.5041 -98.2356 -34.0005
53.3953 -98.2356 35.3768
-78.9601 -98.2356 -87.9196
11.6684 -98.2356 -86.2945
-27.1269 -98.2356 -94.7309
-28.4218 -98.2356 -27.0348
67.9064 -98.2356 -64.2589
-89.6365 -98.2356 60.9671
-17.2609 -98.2356 -14.7317
-77.6672 -98.2356 -86.8685
59.4027 -98.2356 -79.7440
-75.7130 -98.2356 -85.2689
-66.8029 -98.2356 74.0361
1.9845 -98.2356 -64.8302
62.3336 -98.2356 26.9572
-92.6791 -98.2356 -15.8822
-29.7684 -98.2356 -26.2251
3.5438 -98.2356 -33.5968
-30.4284 -98.2356 1.9472
94.5897 -98.2356 -11.2995
-3.3192 -98.2356 -86.0756
0.2206 -98.2356 -21.5067
52.2496 -98.2356 70.6015
-41.0679 -98.2356 -32.8789
6.4971 -98.2356 9.7761
83.5952 -98.2356 -16.0260
22.8114 -98.2356 -30.7839
-55.9012 -98.2356 44.1215
-38.4979 -98.2356 52.9375
44.0951 -98.2356 59.0062
2.2087 -98.2356 72.4637
-68.7601 -98.2356 -82.2174
21.3894 -98.2356 4.0061
1.7165 -98.2356 -61.6657
16.3374 -98.2356 32.9983
80.5151 -98.2356 -76.0188
75.9102 -98.2356 -0.0172
9.3589 -98.2356 -44.6325
94.0314 -98.2356 33.2206
58.1517 -98.2356 -86.7681
17.7847 -98.2356 34.2848
-61.1414 -98.2356 96.0095
-64.4719 -98.2356 -91.8123
54.6985 -98.2356 37.4071
-14.2391 -98.2356 58.4081
50.8536 -98.2356 -33.0992
43.8445 -98.2356 75.0461
-34.9286 -98.2356 27.1626
-35.3043 -98.2356 17.8035
57.8693 -98.2356 -38.9987
37.9518 -98.2356 -54.5776
45.6872 -98.2356 -64.7504
87.2418 -98.2356 -78.6959
-39.1511 -98.2356 2.3633
-66.0670 -98.2356 2.9345
43.9366 -98.2356 -78.3654
-79.8533 -98.2356 -83.3089
27.9107 -98.2356 -45.3421
-61.0911 -98.2356 -31.7445
95.4024 -98.2356 75.2500
21.1205 -98.2356 90.6797
-92.8562 -98.2356 -64.4532
72.0330 -98.2356 -5.4669
41.9177 -98.2356 -98.0808
43.9626 -98.2356 53.7618
62.4707 -98.2356 11.1393
4.0475 -98.2356 33.7381
28.8257 -98.2356 -3.7850
84.3930 -98.2356 -22.8160
15.5568 -98.2356 66.4433
-75.8054 -98.2356 -14.3719
-93.1895 -98.2356 -45.7711
87.2456 -98.2356 64.3760
-45.3347 -98.2356 -55.5377
81.4629 -98.2356 9.4476
-67.0042 -98.2356 31.7915
-32.3741 -98.2356 -14.7356
3.4686 -98.2356 53.8268
44.9748 -98.2356 78.5633
-5.5293 -98.2356 -93.9593
16.4873 -98.2356 57.0640
20.6236 -98.2356 39.2575
11.4852 -98.2356 -91.5301
63.0939 -98.2356 25.3279
-5.0340 -98.2356 -42.6336
-97.2012 -98.2356 29.8636
69.2167 -98.2356 22.4809
-21.9496 -98.2356 -11.9039
-63.5804 -98.2356 58.2579
-60.2919 -98.2356 -1.4511
-33.8641 -98.2356 13.7637
-51.4113 -98.2356 -91.2538
38.7212 -98.2356 -20.9334
-67.4286 -98.2356 -48.1828
36.4332 -98.2356 -87.1810
63.0708 -98.2356 60.2936
96.1122 -98.2356 -38.6707
89.0760 -98.2356 -93.7161
71.7892 -98.2356 40.6769
14.8191 -98.2356 -11.4548
-77.2370 -98.2356 -63.6870
-7.4563 -98.2356 23.3584
39.6969 -98.2356 -34.3821
-53.5839 -98.2356 8.6723
24.7975 -98.2356 -87.7711
89.7742 -42.3845 98.0859
46.8266 56.4468 98.0859
-2.2285 -20.1770 98.0859
-55.9562 79.3016 98.0859
-88.2318 -90.5719 98.0859
39.7312 -51.7085 98.0859
84.9883 -11.5570 98.0859
1.4516 -48.4095 98.0859
26.0961 46.3329 98.0859
-87.3050 81.8503 98.0859
33.1453 -26.6349 98.0859
77.2265 46.6370 98.0859
-50.1117 79.5129 98.0859
41.5573 97.9871 98.0859
49.2757 -66.3291 98.0859
79.0334 -29.3077 98.0859
11.4026 92.4255 98.0859
91.6342 -14.6738 98.0859
-97.4307 -44.0771 98.0859
-1.5121 69.3658 98.0859
87.9424 -7.3817 98.0859
52.6708 85.6664 98.0859
-45.4565 -90.8728 98.0859
1.6215 -27.5556 98.0859
77.2806 94.7063 98.0859
-64.9924 -33.6560 98.0859
-82.9975 -37.0308 98.0859
45.6713 -16.2134 98.0859
-83.7373 52.1334 98.0859
43.0587 -21.1110 98.0859
69.0042 -4.5301 98.0859
-50.2219 17.7213 98.0859
20.6226 -1.8872 98.0859
39.2547 -73.0567 98.0859
44.3501 -7.2040 98.0859
37.5722 94.0149 98.0859
55.3828 42.0973 98.0859
-84.7143 71.2246 98.0859
-11.3175 -97.8174 98.0859
57.1614 -28.7678 98.0859
-15.4034 93.5732 98.0859
42.8664 27.3433 98.0859
96.2784 44.5684 98.0859
22.0901 -6.4524 98.0859
89.0562 -33.0459 98.0859
35.1903 74.8209 98.0859
-74.3315 63.9238 98.0859
-96.2297 -89.0805 98.0859
38.4502 -4.7969 98.0859
-15.7534 -44.7525 98.0859
73.5447 84.6299 98.0859
80.0101 82.4288 98.0859
-28.9270 -93.5643 98.0859
-58.8882 -28.2120 98.0859
12.4802 73.0731 98.0859
-12.5171 67.3848 98.0859
69.6118 79.4577 98.0859
86.8041 17.0358 98.0859
-10.0628 -18.5519 98.0859
11.6879 -37.5783 98.0859
79.0043 -86.2748 98.0859
48.0328 -20.6342 98.0859
-57.9988 44.6875 98.0859
84.5456 14.6958 98.0859
85.2937 53.5114 98.0859
-94.7958 90.2226 98.0859
-94.0894 45.0789 98.0859
84.1511 -16.1845 98.0859
95.3310 -4.3582 98.0859
-1.6917 31.6124 98.0859
36.8568 62.0268 98.0859
43.2217 79.6544 98.0859
94.4026 87.4988 98.0859
-94.7931 -36.8837 98.0859
70.7763 1.5082 98.0859
53.3238 74.1341 98.0859
-7.8544 35.5373 98.0859
88.2411 28.1382 98.0859
-22.7369 17.8544 98.0859
-52.5909 -62.9095 98.0859
-21.8672 -1.2871 98.0859
49.2483 -39.4527 98.0859
31.3558 -25.7680 98.0859
55.1909 -71.6954 98.0859
-27.9646 10.6904 98.0859
50.6056 -60.8454 98.0859
-14.6387 10.1467 98.0859
69.2428 68.2687 98.0859
86.6430 95.8172 98.0859
62.2670 11.0555 98.0859
-40.6425 27.3643 98.0859
-8.0899 13.0411 98.0859
-32.8847 52.1802 98.0859
1.8834 23.1142 98.0859
42.1689 73.9299 98.0859
86.5925 -57.3626 98.0859
-40.4184 61.7445 98.0859
-55.3997 33.6729 98.0859
-76.1248 -35.3888 98.0859
-93.7160 -73.9618 98.0859
-49.8486 22.4753 98.0859
94.2790 30.4906 98.0859
38.3680 -29.7076 98.0859
-34.5008 -61.8271 98.0859
-24.7780 91.3230 98.0859
60.9205 70.9689 98.0859
9.3231 -6.4433 98.0859
-30.9849 11.5700 98.0859
-79.4959 -62.9441 98.0859
62.0220 -97.7491 98.0859
-2.2993 29.1587 98.0859
-74.7694 71.0666 98.0859
56.2108 78.0211 98.0859
82.5952 -54.2061 98.0859
-69.0975 -61.5415 98.0859
3.0336 -15.7961 98.0859
-94.6341 70.1702 98.0859
53.4840 -70.9680 98.0859
-4.4170 -35.3653 98.0859
-21.5112 1.9255 98.0859
18.5922 4.3442 98.0859
-38.1540 -63.5532 98.0859
44.1029 49.6974 98.0859
58.0828 68.4647 98.0859
73.8619 -78.8927 98.0859
69.3204 -88.1305 98.0859
-63.6157 91.1122 98.0859
-17.2207 -62.8836 98.0859
-37.6452 77.2912 98.0859
-45.6517 14.1556 98.0859
79.6516 1.1019 98.0859
71.9990 -24.6549 98.0859
29.8788 58.1298 98.0859
50.7804 60.1168 98.0859
-83.2447 44.3598 98.0859
-13.0688 90.2526 98.0859
40.2796 -93.7342 98.0859
-74.0244 -45.4262 98.0859
96.4915 64.6815 98.0859
-3.5217 -79.9127 98.0859
-88.2690 7.5584 98.0859
23.7428 43.8360 98.0859
-18.1077 -94.0113 98.0859
-44.0813 88.9316 98.0859
92.2253 91.1516 98.0859
-62.6632 -7.1323 98.0859
-3.6596 -19.6014 98.0859
5.5906 -81.6161 98.0859
45.8976 61.9238 98.0859
57.3051 22.3348 98.0859
-35.5339 20.1308 98.0859
18.2956 -78.9248 98.0859
-53.8563 -6.8539 98.0859
52.9145 8.9884 98.0859
11.1255 22.2416 98.0859
97.0677 13.4333 98.0859
-72.1747 -35.0079 98.0859
58.6693 46.9137 98.0859
-59.6043 -60.9618 98.0859
-16.5517 1.5765 98.0859
-11.8178 -85.7134 98.0859
-63.3252 62.2590 98.0859
35.2895 -97.8458 98.0859
-62.6439 -31.9145 98.0859
-11.6917 -40.5194 98.0859
2.3305 65.2468 98.0859
-31.5656 12.8258 98.0859
-42.6376 -93.9791 98.0859
36.5889 -46.4789 98.0859
29.1345 41.4252 98.0859
-39.4713 34.2166 -98.0859
16.2949 78.2187 -98.0859
-51.2329 -26.7253 -98.0859
33.9383 31.4732 -98.0859
46.8535 85.0327 -98.0859
-8.6983 -59.0562 -98.0859
24.1366 -22.6706 -98.0859
-0.7878 -88.2654 -98.0859
82.4369 78.7705 -98.0859
-35.7669 86.8191 -98.0859
-87.2049 -80.5593 -98.0859
-42.1974 84.3954 -98.0859
-37.3544 33.7994 -98.0859
-34.1919 84.6627 -98.0859
70.5606 -5.4043 -98.0859
-15.3107 -52.1859 -98.0859
-82.8176 -95.2142 -98.0859
-56.1205 -79.8776 -98.0859
51.6874 -66.2726 -98.0859
-57.0665 -3.3406 -98.0859
3.5836 29.4209 -98.0859
52.4768 -14.8024 -98.0859
22.2914 -59.9901 -98.0859
-1.3238 -38.4388 -98.0859
89.4415 68.4980 -98.0859
-5.6482 -42.0008 -98.0859
60.6382 -17.6144 -98.0859
-60.5472 -79.6846 -98.0859
62.9069 60.2776 -98.0859
-67.3194 -19.4086 -98.0859
-17.2936 91.1326 -98.0859
-77.4321 22.0843 -98.0859
83.3762 46.4749 -98.0859
78.8743 57.6064 -98.0859
85.1789 -89.2565 -98.0859
-36.9849 -51.5273 -98.0859
-3.8192 28.2175 -98.0859
-14.8299 80.1510 -98.0859
37.9187 56.4765 -98.0859
24.4289 -46.4921 -98.0859
-71.2214 -94.6520 -98.0859
-57.0815 -58.2941 -98.0859
39.5995 53.6145 -98.0859
-87.5832 -9.3150 -98.0859
70.5040 -93.8954 -98.0859
-34.0985 6.6216 -98.0859
-5.5909 30.6946 -98.0859
-28.0630 12.3417 -98.0859
-76.5371 86.3160 -98.0859
78.6889 44.0452 -98.0859
-65.0940 -92.4062 -98.0859
-56.3157 -12.3695 -98.0859
26.5646 -85.0672 -98.0859
-50.8359 38.9152 -98.0859
-54.5328 87.8935 -98.0859
76.6818 70.3621 -98.0859
-83.0599 -71.5102 -98.0859
1.9710 20.7082 -98.0859
15.4865 -5.2957 -98.0859
55.3184 49.1558 -98.0859
60.5515 58.7320 -98.0859
-23.0952 -55.9692 -98.0859
-46.8411 -17.4181 -98.0859
78.3924 98.1140 -98.0859
21.8808 50.4247 -98.0859
-24.1974 23.3257 -98.0859
-96.2213 -14.9539 -98.0859
34.0608 -91.3080 -98.0859
10.5327 29.6725 -98.0859
6.7687 56.9014 -98.0859
35.0920 -43.6502 -98.0859
53.6737 23.9570 -98.0859
92.2220 19.8494 -98.0859
-54.6816 -28.9558 -98.0859
26.5637 67.6455 -98.0859
93.1674 -70.3043 -98.0859
39.0036 97.9657 -98.0859
-96.5520 53.8281 -98.0859
-88.6553 -58.3542 -98.0859
-9.2326 21.6447 -98.0859
-14.0565 -77.3602 -98.0859
-92.0001 -61.9262 -98.0859
27.0283 -75.4556 -98.0859
85.7252 -89.7317 -98.0859
-52.3458 89.4201 -98.0859
64.1383 78.7751 -98.0859
39.4336 -94.8452 -98.0859
-93.7767 -73.2358 -98.0859
-22.4266 -73.3845 -98.0859
67.8194 -79.5774 -98.0859
-68.7488 -83.5360 -98.0859
-65.1935 66.1109 -98.0859
94.4538 82.2295 -98.0859
-25.8134 62.7406 -98.0859
-55.1686 54.0186 -98.0859
21.8958 39.6518 -98.0859
-16.8427 14.7131 -98.0859
6.2033 37.6393 -98.0859
77.5099 15.6271 -98.0859
30.8055 -33.5707 -98.0859
-94.6092 13.8019 -98.0859
50.5825 -12.5767 -98.0859
-76.8479 -60.3216 -98.0859
63.3698 13.7854 -98.0859
-82.2101 -97.0675 -98.0859
49.3217 41.7885 -98.0859
68.4346 1.2623 -98.0859
-8.0033 -91.7076 -98.0859
-75.5274 -38.9717 -98.0859
9.4361 -80.0494 -98.0859
-45.6825 -92.2635 -98.0859
87.9890 -2.5938 -98.0859
-49.4245 0.0042 -98.0859
61.1275 -8.1248 -98.0859
-29.9731 -59.3738 -98.0859
-0.3539 -84.2043 -98.0859
-23.3880 -55.1279 -98.0859
-77.2515 31.6260 -98.0859
-58.5026 49.0640 -98.0859
-24.9020 -89.1527 -98.0859
85.0963 -49.3002 -98.0859
56.2120 80.9768 -98.0859
-71.0974 91.5688 -98.0859
47.8500 29.0352 -98.0859
-88.4243 -7.0486 -98.0859
78.6999 33.7153 -98.0859
39.6449 15.4629 -98.0859
83.9038 47.1711 -98.0859
82.3521 -54.7280 -98.0859
-49.3470 97.5313 -98.0859
-31.0300 75.2904 -98.0859
64.4593 52.7446 -98.0859
57.7803 60.6802 -98.0859
-94.3109 61.6830 -98.0859
86.3815 11.6006 -98.0859
-9.7569 -46.3149 -98.0859
19.9847 -22.3273 -98.0859
-66.7493 55.2878 -98.0859
-80.7133 -11.6358 -98.0859
-59.6987 -43.3400 -98.0859
-63.3940 -16.5586 -98.0859
67.3151 92.1471 -98.0859
15.4133 7.0118 -98.0859
48.3753 -5.4629 -98.0859
-55.1574 -23.9398 -98.0859
-78.7793 -79.1062 -98.0859
-23.2076 65.3717 -98.0859
78.5456 -17.1080 -98.0859
66.4329 87.3932 -98.0859
-53.9476 17.5396 -98.0859
-10.7470 35.0919 -98.0859
-40.7768 -96.5471 -98.0859
-86.7570 84.4237 -98.0859
-81.7928 79.7907 -98.0859
39.1170 51.4126 -98.0859
-33.5593 -62.3375 -98.0859
-89.3278 85.4389 -98.0859
48.2437 -37.8450 -98.0859
90.8921 91.2858 -98.0859
-26.0496 -19.7803 -98.0859
-84.6090 37.4493 -98.0859
33.9877 61.0104 -98.0859
-35.1380 90.7656 -98.0859
-42.9873 6.2051 -98.0859
-77.8405 -17.1884 -98.0859
-53.7242 -66.0073 -98.0859
-18.5391 8.9060 -98.0859
39.3777 -49.1407 -98.0859
9.6641 41.4358 -98.0859
-93.8603 -43.9759 -98.0859
