ply
format ascii 1.0
element vertex 1024
property float x
property float y
property float z
end_header
87.6322 9.7227 11.2229
87.6322 7.3600 15.6548
87.6322 67.5368 -16.1362
87.6322 -53.3396 18.9778
87.6322 -25.5175 -11.3811
87.6322 61.4669 -25.5996
87.6322 -7.3711 22.3513
87.6322 81.3328 -12.4733
87.6322 -76.6682 -21.4449
87.6322 27.8209 -23.5674
87.6322 -55.8700 -14.1287
87.6322 -24.5655 -18.0763
87.6322 32.7081 16.7642
87.6322 -6.0640 5.2633
87.6322 -16.9680 -4.2218
87.6322 -73.6017 5.9850
87.6322 24.5238 -1.0071
87.6322 63.8928 -17.3534
87.6322 -50.1392 -15.6298
87.6322 33.0138 -14.0156
87.6322 -3.1991 -3.5620
87.6322 -69.5730 6.2828
87.6322 78.0193 11.2017
87.6322 -78.8592 -18.2575
87.6322 -61.3329 -22.4966
87.6322 -69.8054 -1.9431
87.6322 -34.3334 17.4768
87.6322 -66.7505 16.4710
87.6322 -13.3629 -19.6159
87.6322 63.9199 -26.6204
87.6322 20.9151 -18.5211
87.6322 -69.6450 -23.6366
87.6322 -30.4020 19.0513
87.6322 71.5943 -23.1162
87.6322 1.5506 15.5363
87.6322 -67.2403 17.5521
87.6322 -64.5322 14.3090
87.6322 -46.6343 -8.3756
87.6322 36.6780 -7.7151
87.6322 -45.4224 -2.1263
87.6322 -28.7549 -15.7325
87.6322 -73.5975 14.5731
87.6322 25.4744 -2.7525
87.6322 -53.1458 21.7168
87.6322 18.6720 -7.6768
87.6322 -63.6979 11.6279
87.6322 -78.2522 -20.4481
87.6322 2.1309 18.8736
87.6322 -70.4452 9.7913
87.6322 -9.3229 21.2297
87.6322 62.6013 3.9830
87.6322 73.1787 14.8389
87.6322 -1.1125 17.5505
87.6322 46.3232 -9.0250
87.6322 -74.0255 17.8833
87.6322 -36.4616 7.6356
87.6322 -20.0087 -13.4674
87.6322 2.1838 3.3313
87.6322 -73.8902 26.4560
87.6322 -56.8158 18.1696
87.6322 -43.9345 5.4482
87.6322 -29.1055 22.4367
87.6322 -68.8404 22.1506
87.6322 -20.3127 -9.0331
87.6322 -76.6701 4.8188
87.6322 -1.3929 22.3857
87.6322 32.6888 -14.8852
87.6322 77.8967 5.4093
87.6322 -63.8126 -2.1480
87.6322 44.7819 -7.3576
87.6322 -77.2491 -24.9350
87.6322 -60.4142 25.9985
87.6322 67.2364 -18.9316
87.6322 55.1869 -1.9444
87.6322 -10.9110 15.9371
87.6322 -57.7777 24.0402
87.6322 -60.8377 -1.4522
87.6322 50.9329 12.3181
87.6322 -65.5890 7.1513
87.6322 7.6311 15.3256
87.6322 67.3745 -5.4931
87.6322 -22.2239 -0.2664
87.6322 -34.2765 -0.6107
87.6322 -63.8595 19.1323
87.6322 39.3638 -14.7547
87.6322 -6.2647 0.4986
87.6322 -72.8681 -12.3961
87.6322 66.3712 -13.1014
87.6322 75.7480 21.0987
87.6322 -64.7741 19.8620
87.6322 -42.1191 6.8661
87.6322 -51.4635 -15.6932
87.6322 -49.9075 22.5753
87.6322 0.4762 -4.2658
87.6322 -8.1583 -18.7222
87.6322 -47.5277 -14.4954
87.6322 77.4890 2.4592
87.6322 -63.8022 -5.9466
87.6322 5.2237 17.2530
87.6322 33.1933 -21.5396
87.6322 78.9831 10.2565
87.6322 24.1549 -20.2701
87.6322 14.5324 21.9376
87.6322 -19.5993 0.0037
87.6322 -29.4817 -3.6914
87.6322 -54.1326 26.2737
87.6322 23.0278 -15.6617
87.6322 15.5449 -4.9709
87.6322 72.5822 -24.7111
87.6322 0.1270 4.6445
87.6322 60.8137 -2.1822
87.6322 -30.1266 22.1285
87.6322 -8.2203 -19.6758
87.6322 4.0843 -16.0749
87.6322 49.6719 -18.0445
87.6322 53.5013 -2.6725
87.6322 -73.2838 15.2136
87.6322 -42.7731 -4.9895
87.6322 -55.4104 23.8071
87.6322 22.2942 -2.1230
87.6322 33.2147 14.5463
87.6322 30.4975 3.8201
87.6322 30.3722 -15.4474
87.6322 -8.7859 -1.8463
87.6322 -1.5281 9.5290
87.6322 38.4557 11.7767
87.6322 -52.0564 9.5799
87.6322 -17.8499 -6.1675
87.6322 4.6137 7.4696
87.6322 -14.7619 -23.3233
87.6322 -23.5600 -10.8449
87.6322 -24.0512 -14.4578
87.6322 -44.2667 3.6391
87.6322 -64.9606 16.1208
87.6322 -72.7864 -10.6283
87.6322 -62.4081 -17.8259
87.6322 -49.9998 -10.0840
87.6322 15.9380 7.5135
87.6322 -17.9177 -16.5991
87.6322 44.1239 -0.9335
87.6322 -60.8412 -11.8241
87.6322 25.7583 3.2251
87.6322 -67.5657 -5.7766
87.6322 16.6952 17.9200
87.6322 -61.3334 -7.3597
87.6322 33.3393 -5.7109
87.6322 80.9443 1.2862
87.6322 -60.4996 -24.4440
87.6322 -12.9794 -15.5201
87.6322 55.4160 21.2013
87.6322 57.6956 5.6887
87.6322 -36.6486 25.6022
87.6322 35.8632 22.1356
87.6322 45.9202 24.4306
87.6322 -29.9073 5.2229
87.6322 -9.3891 -6.6496
87.6322 62.4039 -17.8948
87.6322 17.1147 -2.4271
87.6322 14.4082 4.7849
87.6322 -53.0161 -1.7151
87.6322 -15.1021 -19.5803
87.6322 16.2232 13.6606
87.6322 42.4900 13.0376
87.6322 74.0247 -18.7029
87.6322 -61.9141 14.0866
87.6322 30.4648 -5.1097
87.6322 68.5118 -7.7641
87.6322 18.7875 -5.2033
87.6322 -34.2091 7.3716
87.6322 81.2702 -0.0602
87.6322 81.3362 -11.8161
-87.6322 34.1218 -18.4455
-87.6322 24.2741 9.8453
-87.6322 -73.6700 -19.2476
-87.6322 76.2351 -24.5936
-87.6322 -36.0603 -13.0646
-87.6322 -1.8833 11.2537
-87.6322 47.4777 1.9491
-87.6322 40.5079 20.7670
-87.6322 -26.9608 8.7543
-87.6322 66.0192 -2.8242
-87.6322 24.1166 1.8337
-87.6322 12.0277 23.3352
-87.6322 -17.9114 26.3659
-87.6322 58.2876 -17.4451
-87.6322 -6.1670 20.9709
-87.6322 -19.6384 -11.0368
-87.6322 -36.5861 -0.8832
-87.6322 75.2238 21.1803
-87.6322 23.7843 -16.0526
-87.6322 70.5951 -6.1425
-87.6322 -25.9041 -8.0550
-87.6322 3.0118 -7.9226
-87.6322 -60.8848 -1.2493
-87.6322 -67.3500 -9.2443
-87.6322 56.6149 23.1542
-87.6322 35.4152 -4.8024
-87.6322 -39.8089 0.7656
-87.6322 75.5180 19.4549
-87.6322 69.6746 22.3668
-87.6322 -71.8037 17.8711
-87.6322 -66.5930 15.9560
-87.6322 -56.4784 16.1497
-87.6322 -47.4414 -5.3148
-87.6322 -52.1377 -7.6020
-87.6322 -26.3094 -14.1872
-87.6322 73.9407 18.3229
-87.6322 -33.4405 -24.2998
-87.6322 7.2398 20.7168
-87.6322 56.0631 1.7960
-87.6322 -32.2774 8.7544
-87.6322 -15.7211 13.3863
-87.6322 -10.1142 -17.7694
-87.6322 81.2521 20.1729
-87.6322 -30.4008 16.9337
-87.6322 49.8879 16.2572
-87.6322 -41.2257 -12.6274
-87.6322 67.5738 3.5015
-87.6322 -59.1557 -1.0548
-87.6322 13.1549 -8.5523
-87.6322 64.7606 -20.7729
-87.6322 74.2683 10.0559
-87.6322 69.0448 14.4598
-87.6322 13.3867 26.3553
-87.6322 35.0518 -7.6873
-87.6322 76.8577 -23.3061
-87.6322 -30.9980 18.4574
-87.6322 7.8070 -12.1201
-87.6322 67.6404 -21.6474
-87.6322 36.8564 -2.3957
-87.6322 -26.7340 14.7141
-87.6322 50.9516 -21.9678
-87.6322 14.3902 -5.4699
-87.6322 -36.5012 -20.1149
-87.6322 -53.9891 15.6225
-87.6322 -78.1819 24.0302
-87.6322 64.3878 -18.5242
-87.6322 -60.1082 -14.6172
-87.6322 -13.8616 -20.6763
-87.6322 -14.4327 16.2354
-87.6322 -33.5943 -22.3938
-87.6322 67.5765 4.5719
-87.6322 60.5935 -0.0413
-87.6322 44.8755 20.8942
-87.6322 6.9985 -24.4424
-87.6322 -76.9622 -24.6087
-87.6322 -72.0575 -20.2578
-87.6322 31.9148 2.3511
-87.6322 -21.9528 -13.7698
-87.6322 -44.5027 -16.8759
-87.6322 13.9079 20.0122
-87.6322 -39.9870 -13.6498
-87.6322 -25.2127 9.2577
-87.6322 49.1755 12.0692
-87.6322 -36.4958 7.4630
-87.6322 46.2973 -19.4676
-87.6322 53.4701 -26.0693
-87.6322 -23.7964 8.9396
-87.6322 54.8238 26.0986
-87.6322 -16.6483 10.6737
-87.6322 -10.6996 13.2922
-87.6322 19.5751 6.5047
-87.6322 68.3817 -10.4386
-87.6322 19.0646 10.9950
-87.6322 -22.4545 22.9803
-87.6322 -28.5493 14.6164
-87.6322 70.0652 21.7265
-87.6322 -72.9997 17.0315
-87.6322 -24.0201 19.7804
-87.6322 -32.1712 -19.4559
-87.6322 -54.1194 -23.5912
-87.6322 54.4539 -4.2561
-87.6322 21.0726 18.1140
-87.6322 35.5686 17.6711
-87.6322 -66.2410 -25.5191
-87.6322 -75.0374 5.4049
-87.6322 25.3335 7.4840
-87.6322 -0.9685 18.4853
-87.6322 18.6691 -11.9417
-87.6322 3.4623 7.6763
-87.6322 21.9441 13.6675
-87.6322 33.6746 8.8111
-87.6322 37.1107 20.4122
-87.6322 -47.4145 3.2807
-87.6322 44.4449 -9.1617
-87.6322 -15.2859 -24.4028
-87.6322 21.7997 8.6859
-87.6322 -14.5448 1.3885
-87.6322 31.4632 2.7194
-87.6322 25.3111 -26.2536
-87.6322 48.7516 15.5765
-87.6322 68.4722 -24.3606
-87.6322 33.1297 -8.7371
-87.6322 23.8641 6.5144
-87.6322 -16.5377 -6.1848
-87.6322 -9.5234 17.4703
-87.6322 -35.5993 13.3710
-87.6322 19.6986 -22.9634
-87.6322 33.3976 -20.8711
-87.6322 -18.8862 19.5806
-87.6322 23.5325 21.4198
-87.6322 -63.2925 14.4237
-87.6322 37.0348 15.0699
-87.6322 67.8247 -22.5202
-87.6322 -76.2829 -11.6713
-87.6322 73.1690 23.2185
-87.6322 21.7005 6.3229
-87.6322 20.4489 -7.5851
-87.6322 57.4369 11.5198
-87.6322 -68.5369 14.7972
-87.6322 -64.3258 -6.0016
-87.6322 23.7282 19.8018
-87.6322 59.3006 14.8881
-87.6322 -78.5422 5.6503
-87.6322 -69.8965 6.5383
-87.6322 14.8239 26.2171
-87.6322 -68.0102 10.6184
-87.6322 -66.2038 1.9020
-87.6322 4.5626 -22.3033
-87.6322 13.5111 22.6374
-87.6322 78.9497 12.7956
-87.6322 -24.9358 -25.0102
-87.6322 -41.6071 0.9876
-87.6322 -19.5863 6.5554
-87.6322 76.8563 7.9945
-87.6322 -27.2909 16.6555
-87.6322 42.8654 -9.6279
-87.6322 -14.0918 12.1813
-87.6322 -27.3596 -0.1711
-87.6322 -41.1996 17.2198
-87.6322 -3.3798 25.8567
-87.6322 21.5277 -12.6141
-87.6322 78.8717 11.0743
-87.6322 -3.9965 -0.4915
-87.6322 72.7048 -12.3344
-87.6322 27.8885 -10.5968
-87.6322 7.1216 -17.3900
-87.6322 -69.2264 4.0524
-87.6322 38.2531 3.9883
-87.6322 -47.5560 -24.8741
-87.6322 -37.8024 -1.9067
-87.6322 58.2153 -9.8591
-12.9726 81.6950 19.1122
-66.4389 81.6950 -19.7998
-87.5717 81.6950 17.0155
79.7122 81.6950 2.0980
27.4142 81.6950 2.8760
48.3257 81.6950 3.2003
-74.9144 81.6950 8.2833
-77.5341 81.6950 -13.8277
25.0257 81.6950 17.8765
85.6761 81.6950 -1.6104
53.9511 81.6950 -3.3491
1.0781 81.6950 -7.1940
-46.9968 81.6950 23.9374
-65.0609 81.6950 -2.8415
51.3741 81.6950 8.6433
48.1351 81.6950 8.2293
-25.7585 81.6950 17.5416
-81.0153 81.6950 -14.4120
-80.6597 81.6950 6.2015
-12.9150 81.6950 14.7914
59.7415 81.6950 20.7105
74.2049 81.6950 24.2206
-22.4195 81.6950 4.9395
11.9941 81.6950 3.2584
-62.6735 81.6950 13.9768
35.6991 81.6950 -5.1173
-21.5110 81.6950 -13.8966
-33.0558 81.6950 -11.0699
10.7090 81.6950 26.0589
8.3472 81.6950 -9.9981
-20.7840 81.6950 4.7986
-72.1848 81.6950 8.1112
71.2809 81.6950 -5.6034
-59.8384 81.6950 0.9834
-69.6422 81.6950 0.7519
-11.0899 81.6950 10.1046
-27.2439 81.6950 -17.5040
-18.6497 81.6950 5.3322
-56.7215 81.6950 8.2505
-87.3475 81.6950 12.3590
71.2296 81.6950 -21.8732
-0.5469 81.6950 -7.6885
13.4933 81.6950 -3.9166
39.9947 81.6950 -21.0914
-41.9461 81.6950 -14.0965
-87.5449 81.6950 19.4472
-11.4951 81.6950 -23.1221
10.0805 81.6950 3.1881
44.9199 81.6950 -10.8374
55.8307 81.6950 -20.9958
18.0619 81.6950 21.4890
-64.8327 81.6950 15.2762
13.2235 81.6950 -6.9661
-14.4757 81.6950 18.6893
22.5897 81.6950 20.2362
20.3442 81.6950 1.4673
52.3619 81.6950 17.6548
84.4250 81.6950 9.2914
-87.3973 81.6950 -1.9048
69.6997 81.6950 -25.4774
73.9965 81.6950 -20.9778
4.0084 81.6950 -13.3211
61.3092 81.6950 -15.0191
-15.0064 81.6950 -11.9919
44.4071 81.6950 8.2910
46.4262 81.6950 -11.9386
40.9586 81.6950 1.6151
-56.2252 81.6950 -5.4946
79.4815 81.6950 -9.5216
-53.0665 81.6950 -13.0132
16.0906 81.6950 -1.0890
-51.4964 81.6950 7.4348
-68.0557 81.6950 -5.5532
31.3402 81.6950 -19.8106
55.6658 81.6950 -19.5002
-23.4600 81.6950 17.3255
4.8258 81.6950 15.9856
23.4526 81.6950 21.3653
32.5426 81.6950 8.6009
3.1427 81.6950 -6.4722
8.7333 81.6950 -8.6782
43.0556 81.6950 20.5781
-66.5275 81.6950 15.9051
-81.3376 81.6950 12.6899
15.0534 81.6950 19.2845
53.5503 81.6950 0.1543
-38.4260 81.6950 22.7363
84.5534 81.6950 10.4420
-51.6457 81.6950 16.3969
77.7799 81.6950 -13.6281
73.1243 81.6950 -17.6330
-17.1300 81.6950 -24.0432
28.7401 81.6950 -24.1098
86.8238 81.6950 -22.1386
-79.6016 81.6950 -26.3379
12.6028 81.6950 6.8936
-27.4301 81.6950 -10.2550
-52.2968 81.6950 17.0947
50.8172 81.6950 15.9720
77.0544 81.6950 22.2939
-19.3377 81.6950 -2.7011
37.4205 81.6950 -7.3962
13.2970 81.6950 -12.1649
40.8170 81.6950 -22.3825
59.8241 81.6950 12.5014
39.3539 81.6950 18.4807
-42.1213 81.6950 -1.6327
-60.1330 81.6950 -1.8495
-38.4568 81.6950 -12.9585
60.4948 81.6950 -18.8971
-50.2837 81.6950 26.3918
-43.5954 81.6950 -16.1511
56.4128 81.6950 13.9946
-42.8206 81.6950 22.0178
33.4916 81.6950 -6.3847
-27.8839 81.6950 -25.8406
-69.0042 81.6950 -10.5935
-61.4186 81.6950 17.1487
42.7151 81.6950 -24.1063
-31.2933 81.6950 16.6922
72.6050 81.6950 4.0267
-35.6600 81.6950 14.7319
34.5099 81.6950 -18.8907
53.3501 81.6950 21.9444
84.4647 81.6950 -21.3162
-49.4103 81.6950 -22.1756
-83.0152 81.6950 -10.6509
48.1344 81.6950 -7.3510
-10.2251 81.6950 5.5343
-74.7997 81.6950 -22.7516
-31.0429 81.6950 4.4014
30.9800 81.6950 -25.8032
-77.9472 81.6950 -17.0373
30.3584 81.6950 -24.1960
65.5244 81.6950 -14.4711
-62.3294 81.6950 2.2633
60.9708 81.6950 10.2046
41.2826 81.6950 -24.5672
-69.4703 81.6950 9.9681
81.7066 81.6950 -26.1027
-67.7533 81.6950 -1.6130
36.8625 81.6950 21.9743
86.5335 81.6950 3.6437
-3.0954 81.6950 6.7314
61.3484 81.6950 20.8211
27.3997 81.6950 -15.9563
61.3367 81.6950 22.3583
78.6192 81.6950 -26.5734
40.5149 81.6950 -5.1066
-67.4910 81.6950 -2.5324
45.9050 81.6950 -22.7338
-20.3060 81.6950 -18.5753
-48.3371 81.6950 -11.7347
-73.6998 81.6950 -9.3356
11.2908 81.6950 -25.0741
75.0427 81.6950 22.0621
-25.4156 81.6950 -15.3034
64.5503 81.6950 8.4864
-85.3485 81.6950 -15.5907
84.7236 81.6950 22.2560
37.3673 81.6950 -17.4931
-71.2664 81.6950 14.9221
46.7162 81.6950 -12.9633
67.4801 81.6950 -17.7479
-71.5507 81.6950 9.3122
-60.9571 81.6950 19.3768
20.1969 81.6950 -12.5535
79.2769 81.6950 20.1145
-75.7352 81.6950 15.9501
77.9921 81.6950 19.0788
-25.3937 81.6950 1.9861
-20.0805 -81.6950 -2.6450
40.3932 -81.6950 1.7032
-39.3015 -81.6950 -13.1911
39.6087 -81.6950 -5.7079
8.7470 -81.6950 -18.1794
-9.6794 -81.6950 16.9362
-54.4846 -81.6950 13.3685
24.2337 -81.6950 -7.4298
8.2492 -81.6950 -20.0726
-67.2697 -81.6950 -4.5777
-32.5719 -81.6950 -10.9006
-40.5214 -81.6950 -13.0981
-15.5542 -81.6950 10.3776
-45.5384 -81.6950 -5.5559
52.0171 -81.6950 9.7415
-2.1651 -81.6950 20.7189
-15.6154 -81.6950 -4.2398
78.3804 -81.6950 2.2826
-56.8876 -81.6950 -4.4118
83.2891 -81.6950 1.6084
42.2025 -81.6950 25.5274
-80.2175 -81.6950 -16.4995
42.7657 -81.6950 11.2428
-71.5800 -81.6950 18.3727
-85.1940 -81.6950 -5.8636
-28.3934 -81.6950 15.6195
8.3644 -81.6950 6.7310
-16.0053 -81.6950 -13.0225
-43.5805 -81.6950 -13.0499
-82.3952 -81.6950 23.4839
-43.7055 -81.6950 22.5486
-75.3516 -81.6950 14.6244
-4.6245 -81.6950 -0.8597
18.3839 -81.6950 5.1216
-54.7367 -81.6950 19.0003
-1.3573 -81.6950 -19.1449
-7.7804 -81.6950 24.6604
-26.9913 -81.6950 -4.5088
-84.4969 -81.6950 -21.8644
-68.5558 -81.6950 20.1811
24.2352 -81.6950 -0.3227
43.8339 -81.6950 20.1131
-9.2637 -81.6950 -15.2575
84.0161 -81.6950 16.4904
-3.9977 -81.6950 -13.9881
23.6279 -81.6950 -6.7983
-39.5961 -81.6950 1.8807
-34.3469 -81.6950 -7.5866
22.4705 -81.6950 1.6363
57.9748 -81.6950 6.1845
70.6491 -81.6950 -4.8174
7.2681 -81.6950 -14.1049
45.6223 -81.6950 -22.7588
-26.5683 -81.6950 -1.7473
20.7120 -81.6950 8.1839
15.3500 -81.6950 -7.1350
75.7641 -81.6950 -9.3319
77.5611 -81.6950 -19.6499
-52.9643 -81.6950 -9.2245
-33.0059 -81.6950 -20.1004
7.3804 -81.6950 -10.3465
-31.3208 -81.6950 -14.1691
80.4877 -81.6950 7.5521
-39.2918 -81.6950 -4.5730
5.6516 -81.6950 2.4316
71.6208 -81.6950 -14.5913
27.9601 -81.6950 15.2511
65.9056 -81.6950 2.3533
-54.1720 -81.6950 7.1449
0.4913 -81.6950 13.2140
-50.1865 -81.6950 -20.7905
19.2511 -81.6950 23.1247
-18.1093 -81.6950 -12.7493
47.8373 -81.6950 -21.3946
0.6534 -81.6950 -24.0311
37.3818 -81.6950 2.0191
68.0388 -81.6950 -8.4807
-86.5783 -81.6950 -20.9591
30.8796 -81.6950 -13.3245
75.8516 -81.6950 16.9318
-6.3801 -81.6950 -1.3533
57.6832 -81.6950 10.4420
-52.0843 -81.6950 -14.6229
-21.9346 -81.6950 10.6935
-61.4103 -81.6950 -20.4929
-4.5278 -81.6950 -8.3468
-4.2486 -81.6950 -4.8493
47.7468 -81.6950 18.8957
37.3046 -81.6950 25.9770
23.0734 -81.6950 23.3122
7.5505 -81.6950 -21.3440
-2.5337 -81.6950 25.9002
-31.8589 -81.6950 -4.6590
55.2511 -81.6950 12.5899
72.3197 -81.6950 18.0135
-45.6782 -81.6950 -19.3102
-66.2701 -81.6950 2.5621
13.4571 -81.6950 11.6123
31.8248 -81.6950 -14.7868
-42.2698 -81.6950 -14.3969
64.9733 -81.6950 5.0488
13.4943 -81.6950 -2.1597
-57.7167 -81.6950 -8.1413
-45.1889 -81.6950 11.9168
-28.9848 -81.6950 2.2659
50.4560 -81.6950 -19.0842
87.3172 -81.6950 18.5481
68.0690 -81.6950 2.1624
-27.8325 -81.6950 16.9773
-52.8194 -81.6950 4.2931
-10.7129 -81.6950 15.7782
-79.6167 -81.6950 18.4758
85.5743 -81.6950 -12.3346
39.8234 -81.6950 20.8393
74.1749 -81.6950 5.7123
-28.5033 -81.6950 -13.6291
-1.9522 -81.6950 3.3626
26.4491 -81.6950 3.1700
-72.3296 -81.6950 16.9246
28.4524 -81.6950 22.8925
-70.4140 -81.6950 -18.1469
83.7351 -81.6950 -25.4854
-0.1229 -81.6950 16.7756
78.0959 -81.6950 -4.5591
-20.8187 -81.6950 1.2637
13.1159 -81.6950 22.4625
-51.0872 -81.6950 9.3828
82.4937 -81.6950 -14.6531
-62.8253 -81.6950 3.1087
42.8531 -81.6950 6.3754
41.5435 -81.6950 7.4796
50.1947 -81.6950 -26.3308
-51.2065 -81.6950 -21.5926
77.6854 -81.6950 -16.8071
-59.9772 -81.6950 -8.6817
53.5598 -81.6950 -12.6399
-3.5312 -81.6950 2.0652
52.1365 -81.6950 14.6101
71.4386 -81.6950 -15.2935
7.0156 -81.6950 -18.4821
67.6951 -81.6950 -5.7972
13.9297 -81.6950 2.0311
-6.5707 -81.6950 -22.7243
70.5311 -81.6950 4.2537
-34.0705 -81.6950 -3.6128
-76.5814 -81.6950 10.8535
1.8755 -81.6950 13.7448
58.3190 -81.6950 18.5061
-38.0246 -81.6950 -4.0500
51.6277 -81.6950 22.5517
-4.8758 -81.6950 21.0366
37.4551 -81.6950 -26.5952
-38.7072 -81.6950 -26.1369
8.3102 -81.6950 5.5253
16.9787 -81.6950 -11.2040
-24.9343 -81.6950 13.5687
40.4771 -81.6950 -2.2172
-60.9444 -81.6950 21.7306
35.6587 -81.6950 -4.2874
-44.9941 -81.6950 -16.9867
1.2900 -81.6950 14.2501
-33.1164 -81.6950 0.3933
-8.1275 -81.6950 15.9127
-46.4487 -81.6950 -15.1062
-70.1020 -81.6950 9.1075
39.9298 -81.6950 -17.8053
38.1538 -81.6950 18.8321
-56.8216 -81.6950 -17.9392
-9.2675 -81.6950 0.5390
-3.3722 -81.6950 4.0678
-77.5728 -81.6950 20.5365
75.9898 -4.4359 26.6594
51.2052 76.2614 26.6594
27.0554 -23.0974 26.6594
2.7697 -56.0558 26.6594
61.7262 47.1455 26.6594
80.4610 -27.3427 26.6594
-68.5806 18.3852 26.6594
60.3320 -81.2592 26.6594
-65.6153 67.3775 26.6594
79.3540 80.4814 26.6594
84.8693 -10.8783 26.6594
-42.1269 80.0699 26.6594
8.4727 -80.4918 26.6594
12.8758 -37.5406 26.6594
-24.1285 41.0925 26.6594
-51.6605 50.4932 26.6594
80.6441 35.5250 26.6594
-8.9784 44.6760 26.6594
-77.1489 29.8314 26.6594
-11.9215 11.4615 26.6594
50.4588 49.5151 26.6594
0.5925 -7.1162 26.6594
5.7771 55.9741 26.6594
11.3446 69.0150 26.6594
-54.5882 24.9774 26.6594
-40.8806 -9.4322 26.6594
-46.7569 60.4213 26.6594
12.9947 15.8716 26.6594
-82.6794 -46.8040 26.6594
-70.9007 32.5773 26.6594
-3.7777 -79.3368 26.6594
-46.0293 -12.5694 26.6594
58.4390 -8.3360 26.6594
34.7552 -13.0278 26.6594
-7.4422 -74.9299 26.6594
-79.9054 -73.0225 26.6594
-57.9068 12.6596 26.6594
-43.0823 -77.6611 26.6594
2.1739 -21.5351 26.6594
84.4865 32.7503 26.6594
38.1086 -14.0869 26.6594
0.9329 28.4782 26.6594
-58.8052 27.5881 26.6594
5.2291 -42.9819 26.6594
24.1822 21.8171 26.6594
17.6115 25.7438 26.6594
22.4304 4.3152 26.6594
70.3290 75.8075 26.6594
-37.6257 -5.9754 26.6594
71.9660 13.2637 26.6594
-8.6297 -35.1966 26.6594
35.3310 -2.0807 26.6594
-27.5318 -38.0100 26.6594
12.6130 -38.7547 26.6594
-68.2199 80.4514 26.6594
-9.1355 19.3339 26.6594
50.9932 -65.6659 26.6594
-1.4888 -65.0058 26.6594
0.7587 0.7547 26.6594
-78.2114 62.0318 26.6594
74.8519 -43.8806 26.6594
23.6095 40.2656 26.6594
14.3285 -24.7592 26.6594
2.0169 9.7094 26.6594
-64.1616 -5.9008 26.6594
-62.4003 1.2024 26.6594
-18.0340 -36.1755 26.6594
50.5061 -54.3337 26.6594
39.5801 45.3858 26.6594
82.0699 49.2304 26.6594
14.9782 61.5000 26.6594
-11.2953 -34.1866 26.6594
0.6146 -46.5933 26.6594
36.1208 62.7401 26.6594
-32.2561 -46.0454 26.6594
84.8886 -8.8861 26.6594
56.9215 24.4152 26.6594
50.7840 1.7442 26.6594
28.1357 -40.5183 26.6594
-78.2044 -66.6269 26.6594
5.4966 56.1230 26.6594
-86.0862 -49.1331 26.6594
-50.2359 10.0048 26.6594
11.8431 -63.1796 26.6594
56.8927 -69.5248 26.6594
43.6080 -75.0981 26.6594
-3.7887 -81.4203 26.6594
-23.9668 36.0967 26.6594
-17.9286 -52.4578 26.6594
-37.7710 -10.4080 26.6594
-2.8667 -49.3561 26.6594
86.3854 -7.5270 26.6594
31.5798 65.8716 26.6594
-12.4972 41.2058 26.6594
-59.1913 17.8213 26.6594
-87.4710 -50.1356 26.6594
21.7942 40.7337 26.6594
-48.0305 45.4860 26.6594
-74.9145 81.1813 26.6594
-45.5740 37.2531 26.6594
17.8630 5.2811 26.6594
-39.9136 59.8156 26.6594
-76.3088 9.9865 26.6594
16.7248 -58.1661 26.6594
-17.0579 -40.8709 26.6594
44.7426 56.5780 26.6594
-76.4943 -37.3866 26.6594
46.7641 -22.6157 26.6594
-5.2845 6.8128 26.6594
29.2258 78.3886 26.6594
-22.7735 26.3754 26.6594
-46.7716 -19.6833 26.6594
58.1197 -75.7932 26.6594
64.2614 -54.2814 26.6594
-13.5824 7.5201 26.6594
-55.7920 38.4936 26.6594
21.7926 70.0087 26.6594
-61.3539 57.9335 26.6594
-26.3173 1.1365 26.6594
58.3411 63.8591 26.6594
31.2475 -45.2172 26.6594
52.8254 66.3404 26.6594
17.4345 -67.6336 26.6594
41.8934 -34.6950 26.6594
69.2086 -77.5789 26.6594
80.3200 24.8515 26.6594
-9.0680 -7.3267 26.6594
74.6051 -39.6065 26.6594
-25.3752 -48.3262 26.6594
-34.8825 55.1035 26.6594
-4.7188 15.7405 26.6594
-24.4763 -52.5349 26.6594
-72.3023 8.7354 26.6594
83.5411 -80.8418 26.6594
16.6223 -13.9604 26.6594
19.8986 -13.3005 26.6594
69.8221 77.6431 26.6594
-71.3500 -17.5902 26.6594
1.7611 -35.1034 26.6594
-45.8121 -80.6462 26.6594
-12.8677 -68.6174 26.6594
-33.2742 68.0640 26.6594
-59.6530 -26.3426 26.6594
-19.3574 -68.6508 26.6594
-38.4338 -16.8628 26.6594
-39.2626 68.1880 26.6594
54.9363 79.5027 26.6594
-13.4712 79.0350 26.6594
36.7549 59.2729 26.6594
-24.1927 -59.7465 26.6594
2.1384 7.8529 26.6594
-31.6019 -62.8725 26.6594
-34.1570 -62.6784 26.6594
23.8615 -39.4821 26.6594
4.8025 74.0801 26.6594
-18.2975 24.5787 26.6594
52.2443 -58.7001 26.6594
-0.3702 -76.5367 26.6594
-27.4721 -36.7658 26.6594
-66.1357 48.1783 26.6594
12.5630 36.6780 26.6594
58.2626 -75.7424 26.6594
53.4995 -43.3746 26.6594
3.3550 32.4953 26.6594
74.7065 43.5348 26.6594
47.9147 -33.1560 26.6594
-20.2038 69.6408 26.6594
-74.8653 -70.1388 26.6594
61.9061 -9.5747 26.6594
12.5979 -36.5113 26.6594
54.5028 37.3337 -26.6594
-1.0281 74.6949 -26.6594
-53.6314 -62.1197 -26.6594
-84.7155 16.5780 -26.6594
43.0711 -57.4254 -26.6594
38.4424 54.6183 -26.6594
-73.1520 40.3078 -26.6594
31.6436 -71.6465 -26.6594
85.1972 -13.5193 -26.6594
-59.0967 -69.6919 -26.6594
14.9309 60.1009 -26.6594
2.6893 45.9414 -26.6594
-61.4582 -12.9915 -26.6594
-83.1256 27.5531 -26.6594
-65.9124 40.7938 -26.6594
-85.4237 -74.1910 -26.6594
71.7825 61.3890 -26.6594
77.1816 -38.5522 -26.6594
33.9940 63.3544 -26.6594
-51.5712 23.2212 -26.6594
-6.6016 26.4533 -26.6594
-8.9700 -51.2604 -26.6594
-67.8135 35.8861 -26.6594
-43.7620 25.1730 -26.6594
-23.7531 -18.2588 -26.6594
-7.8330 -81.5829 -26.6594
-9.9821 13.6740 -26.6594
24.5174 -44.0255 -26.6594
16.6921 -39.5361 -26.6594
6.3077 -22.9667 -26.6594
-81.4716 -53.5483 -26.6594
-11.0486 -65.1180 -26.6594
8.5541 -75.0747 -26.6594
22.2595 28.1155 -26.6594
-31.6098 -30.0967 -26.6594
-42.1131 48.7382 -26.6594
70.6362 -70.3089 -26.6594
-58.2841 42.3790 -26.6594
62.5256 -47.9800 -26.6594
-32.0054 67.6554 -26.6594
13.5695 1.2761 -26.6594
2.1553 -12.4615 -26.6594
53.8435 -2.0867 -26.6594
-45.4267 16.8264 -26.6594
-64.2392 -48.3005 -26.6594
86.7555 68.2573 -26.6594
60.3949 -41.0590 -26.6594
-31.9022 -33.3584 -26.6594
-31.7254 63.7158 -26.6594
-77.4535 -58.7972 -26.6594
-40.1517 5.7727 -26.6594
59.9456 26.4549 -26.6594
60.1098 -21.7731 -26.6594
-53.7880 63.6113 -26.6594
-21.9766 -9.4224 -26.6594
59.8294 37.0170 -26.6594
-41.9169 -20.5512 -26.6594
87.3742 -14.8534 -26.6594
-64.8819 -68.1456 -26.6594
-22.7429 53.1080 -26.6594
65.8865 -44.2852 -26.6594
47.0349 -8.5482 -26.6594
-72.5782 64.9521 -26.6594
-25.9835 -62.7627 -26.6594
28.0352 -14.7662 -26.6594
-69.1899 -31.0395 -26.6594
-76.1912 43.5554 -26.6594
5.9224 45.1953 -26.6594
-36.6198 28.4186 -26.6594
-46.7744 17.3563 -26.6594
72.1279 -25.4425 -26.6594
-85.0336 -81.3248 -26.6594
-59.9905 -67.7038 -26.6594
49.1818 24.0764 -26.6594
-0.4194 65.9736 -26.6594
63.4660 12.1316 -26.6594
-63.4082 -76.3276 -26.6594
77.3242 -2.9596 -26.6594
71.5953 21.9835 -26.6594
-7.9047 74.8792 -26.6594
27.2877 -8.5968 -26.6594
34.2337 51.5826 -26.6594
-55.1415 45.0979 -26.6594
13.9289 -78.7126 -26.6594
71.1316 12.3562 -26.6594
-46.4415 42.3824 -26.6594
-21.3766 0.1739 -26.6594
-17.9083 -12.1761 -26.6594
-33.6787 59.7923 -26.6594
66.6088 -19.9260 -26.6594
-31.2715 16.4361 -26.6594
30.9211 6.8786 -26.6594
-80.0949 13.4344 -26.6594
56.6105 -17.0180 -26.6594
-74.8412 48.5763 -26.6594
-22.9766 -7.4036 -26.6594
-46.2425 3.4177 -26.6594
25.3602 6.3197 -26.6594
-14.3457 -4.0613 -26.6594
82.2943 -80.5082 -26.6594
-74.8620 -29.2476 -26.6594
27.7027 -60.8305 -26.6594
-2.0184 -9.6628 -26.6594
-81.3574 -50.2344 -26.6594
87.2572 67.0666 -26.6594
-38.7523 44.8771 -26.6594
23.5763 -71.1955 -26.6594
-47.0946 -24.1724 -26.6594
-53.2511 39.0575 -26.6594
46.5141 45.5086 -26.6594
-22.9718 -68.8223 -26.6594
23.6148 -38.1221 -26.6594
60.6518 21.0583 -26.6594
-57.4905 -64.4686 -26.6594
-7.4299 -57.7147 -26.6594
-47.5489 -31.9426 -26.6594
-27.2616 54.6154 -26.6594
30.0305 -29.1029 -26.6594
-17.8743 -21.2782 -26.6594
26.3171 -54.0104 -26.6594
-67.3363 -54.9211 -26.6594
34.6609 57.0071 -26.6594
-27.2001 73.6100 -26.6594
-37.5944 -2.5214 -26.6594
25.1354 -46.0866 -26.6594
-66.1953 26.7077 -26.6594
66.5144 23.4482 -26.6594
16.4725 -10.1379 -26.6594
76.3102 -20.3640 -26.6594
-7.5520 17.6002 -26.6594
-60.7232 72.1933 -26.6594
53.0369 -37.2344 -26.6594
-86.6308 -66.9906 -26.6594
8.9271 -30.6688 -26.6594
70.5212 -35.1534 -26.6594
-27.9029 -57.7980 -26.6594
2.4704 72.4578 -26.6594
36.3251 40.1157 -26.6594
-52.5042 -78.9239 -26.6594
-44.8989 55.4862 -26.6594
-3.0863 0.9439 -26.6594
34.3718 -11.2162 -26.6594
65.9115 49.5789 -26.6594
21.6450 -67.1702 -26.6594
19.5125 50.1154 -26.6594
-26.9005 -19.6353 -26.6594
64.8770 -58.2050 -26.6594
33.9062 -30.4450 -26.6594
-57.0569 11.4826 -26.6594
-37.6640 -68.3415 -26.6594
29.3661 36.5487 -26.6594
81.1811 -43.1034 -26.6594
56.1974 25.9637 -26.6594
61.7888 24.6590 -26.6594
43.6253 -28.4900 -26.6594
-49.6539 50.0428 -26.6594
-5.9880 -63.2048 -26.6594
74.2519 33.7635 -26.6594
-37.1225 -35.2785 -26.6594
-38.8771 23.3381 -26.6594
25.9826 27.5427 -26.6594
55.8387 -81.3706 -26.6594
-23.1247 59.2895 -26.6594
-57.3621 69.6131 -26.6594
84.4460 -46.6802 -26.6594
76.9609 81.4442 -26.6594
81.4967 -32.8168 -26.6594
5.8510 49.7322 -26.6594
-0.4626 -60.9864 -26.6594
-66.9335 39.7057 -26.6594
