ply
format ascii 1.0
element vertex 1024
property float x
property float y
property float z
end_header
83.6157 82.5046 54.5429
83.6157 14.5557 51.0444
83.6157 -27.6579 58.3943
83.6157 -23.9300 38.7935
83.6157 -2.6964 -27.9198
83.6157 34.9676 -10.8460
83.6157 71.7727 22.0626
83.6157 -44.8384 56.4394
83.6157 41.5478 28.4129
83.6157 34.3151 24.0362
83.6157 39.3953 23.6688
83.6157 59.7380 -11.3118
83.6157 5.1449 -14.2982
83.6157 -3.7960 -21.0816
83.6157 41.5590 8.1128
83.6157 -69.8332 29.0329
83.6157 10.2006 6.4600
83.6157 89.7802 57.5111
83.6157 32.1472 -0.2382
83.6157 -45.2957 28.8396
83.6157 4.8816 3.5748
83.6157 18.7164 -54.4131
83.6157 83.4559 42.9970
83.6157 -74.3395 6.3622
83.6157 -48.1443 55.2204
83.6157 -33.5966 14.7305
83.6157 21.3552 -0.7604
83.6157 88.7041 -8.9599
83.6157 -40.9024 12.8738
83.6157 -75.2415 54.9033
83.6157 90.6425 41.9328
83.6157 -15.4635 -36.3511
83.6157 31.4503 47.5027
83.6157 -15.8132 -10.3528
83.6157 -15.5872 -22.2616
83.6157 11.7748 -11.0449
83.6157 -27.0640 16.8491
83.6157 64.3539 19.3669
83.6157 25.1399 -50.6879
83.6157 -26.1741 31.9377
83.6157 24.0231 30.3234
83.6157 44.2466 4.8096
83.6157 77.1175 -2.5723
83.6157 -27.8766 -39.1316
83.6157 -70.1598 -0.3579
83.6157 -5.7032 -45.6567
83.6157 -86.6920 -43.4304
83.6157 -64.8614 22.1267
83.6157 -41.4943 -39.6279
83.6157 34.8497 -25.5861
83.6157 -13.0660 -8.3719
83.6157 -48.4145 53.7779
83.6157 73.2388 37.2424
83.6157 67.9325 -16.0966
83.6157 -5.8474 58.5330
83.6157 40.3705 0.5146
83.6157 -45.4587 17.6895
83.6157 28.4351 28.3187
83.6157 66.2391 -42.7070
83.6157 -58.8071 29.0440
83.6157 -7.7442 31.1307
83.6157 -26.0965 16.0380
83.6157 57.2242 -15.8745
83.6157 68.1728 -55.7202
83.6157 -60.1843 -30.9002
83.6157 56.1662 -55.3200
83.6157 -29.0346 -31.9697
83.6157 -79.5846 25.7980
83.6157 -2.7181 8.2500
83.6157 -17.5548 49.7430
83.6157 65.8561 2.8563
83.6157 61.9101 -48.8292
83.6157 -81.3725 24.1004
83.6157 63.9837 -51.9037
83.6157 35.3368 58.2539
83.6157 87.5442 1.8415
83.6157 18.3581 -7.5651
83.6157 8.6818 -32.9222
83.6157 43.7988 23.3882
83.6157 66.6054 9.4944
83.6157 -20.7139 13.3367
83.6157 73.0758 34.5249
83.6157 49.4520 23.1824
83.6157 -22.6314 -43.5146
83.6157 43.4407 -9.6741
83.6157 -89.2542 -44.0310
83.6157 -28.7171 -57.9885
83.6157 -55.4380 31.0063
83.6157 27.4763 -42.1571
83.6157 -43.1162 7.2630
83.6157 27.6255 30.9560
83.6157 -65.5959 -39.7418
83.6157 -12.1725 -44.7010
83.6157 88.6638 42.7156
83.6157 85.5412 -36.1377
83.6157 -44.7130 -47.1297
83.6157 -64.2282 33.2707
83.6157 -67.3240 -31.1793
83.6157 7.2874 -53.2413
83.6157 -43.0671 -34.9748
83.6157 78.4159 -27.2489
83.6157 81.8371 56.2305
83.6157 -17.5741 -4.6382
83.6157 -65.2509 -24.2908
83.6157 -30.5446 38.5344
83.6157 -61.9457 55.2895
83.6157 18.9564 -22.3038
83.6157 -76.3185 -8.8115
83.6157 -8.8002 -2.6904
83.6157 50.2281 -21.2684
83.6157 84.5091 16.2689
83.6157 -58.1273 30.8624
83.6157 35.0836 -22.5526
83.6157 -8.0654 0.4455
83.6157 27.2106 -1.0916
83.6157 82.2870 -26.0059
83.6157 -61.0084 -52.2390
83.6157 -52.1798 49.2121
83.6157 -83.6722 -25.9640
83.6157 77.7503 -8.0307
83.6157 34.4826 -37.0739
83.6157 84.4713 -39.3345
83.6157 72.0935 -14.5795
83.6157 -17.7869 41.0509
83.6157 7.2510 43.7131
83.6157 -44.3363 -46.4608
83.6157 -68.2597 2.5906
83.6157 -66.8357 -43.4814
83.6157 -16.8757 -17.0383
83.6157 75.5815 -13.5058
83.6157 29.3941 -16.4712
83.6157 67.2200 -11.3119
83.6157 -7.6853 -24.7025
83.6157 -77.5361 42.0931
83.6157 0.8922 47.2796
83.6157 -67.7611 -52.7932
83.6157 -23.6649 11.7738
83.6157 62.4180 -55.0396
83.6157 -79.2782 -4.9615
83.6157 -53.8752 37.0102
83.6157 21.5447 -27.1939
83.6157 -69.4442 37.1364
83.6157 -56.0599 35.8371
83.6157 21.1905 48.6591
83.6157 -29.2589 -54.6396
83.6157 6.2955 -8.7111
83.6157 1.6937 3.3541
83.6157 23.2653 -39.9857
83.6157 -32.3961 -45.2432
83.6157 38.6631 46.5567
83.6157 87.0305 28.4326
83.6157 -31.2648 18.7012
83.6157 75.7264 56.7793
83.6157 22.2975 1.6396
83.6157 -67.1553 -2.7655
83.6157 -86.1123 -48.0193
83.6157 79.3656 58.3164
83.6157 12.6983 -21.6667
83.6157 -36.7607 55.1907
83.6157 79.0725 7.0502
83.6157 59.7769 20.8353
83.6157 59.2897 33.4585
83.6157 56.8195 -7.0779
83.6157 -79.9720 -27.8880
83.6157 -1.7454 3.7923
83.6157 58.5602 -56.2743
83.6157 23.3150 38.7158
83.6157 46.9330 -33.3400
83.6157 -34.3444 55.3025
83.6157 35.7613 -53.9891
83.6157 29.2011 13.6158
-83.6157 89.1097 30.4961
-83.6157 54.3770 -50.5568
-83.6157 -66.7454 38.7636
-83.6157 -37.6153 -23.5406
-83.6157 -0.2599 -33.2013
-83.6157 41.4243 50.8139
-83.6157 41.1162 -27.5959
-83.6157 17.7758 19.4757
-83.6157 -80.1684 56.2969
-83.6157 10.8415 -50.3054
-83.6157 -62.3043 17.6200
-83.6157 65.8027 14.3620
-83.6157 -19.2339 53.6978
-83.6157 57.1788 -42.3970
-83.6157 18.8729 -15.4539
-83.6157 -74.9114 -36.6586
-83.6157 -67.9151 -28.2300
-83.6157 -54.7187 -43.5683
-83.6157 -29.6711 11.9390
-83.6157 26.0073 -47.9552
-83.6157 6.5217 17.4049
-83.6157 7.3366 17.3179
-83.6157 -29.6377 33.4795
-83.6157 16.4043 57.1179
-83.6157 80.5117 0.2822
-83.6157 34.2321 -20.1260
-83.6157 40.3370 49.4413
-83.6157 -81.7192 53.8100
-83.6157 6.0543 50.2793
-83.6157 32.8165 0.9354
-83.6157 -20.2031 -35.1733
-83.6157 5.4900 24.6086
-83.6157 -66.4885 -48.3153
-83.6157 52.5218 12.6436
-83.6157 -74.0290 31.4253
-83.6157 -33.9666 7.5297
-83.6157 -30.1497 -17.3205
-83.6157 -55.4177 -56.4577
-83.6157 8.8562 1.2790
-83.6157 14.8803 -40.7544
-83.6157 74.5223 0.7276
-83.6157 -41.6347 -12.6321
-83.6157 -71.6718 11.3052
-83.6157 -34.4719 19.5247
-83.6157 -6.3861 -11.4165
-83.6157 -43.2033 4.2789
-83.6157 -73.0565 -32.7452
-83.6157 -9.7732 35.4144
-83.6157 -49.6297 28.9395
-83.6157 -15.1121 18.5458
-83.6157 4.2743 -48.5163
-83.6157 -71.2007 -6.8653
-83.6157 48.5431 -13.4407
-83.6157 -37.8223 -29.9281
-83.6157 59.8191 -47.9687
-83.6157 82.1677 -54.8587
-83.6157 -88.2917 -16.2375
-83.6157 34.8551 55.3546
-83.6157 -34.9966 23.3211
-83.6157 -82.8381 36.9407
-83.6157 -38.4168 7.3256
-83.6157 17.1577 8.9546
-83.6157 -33.5899 -18.3318
-83.6157 62.9324 1.1446
-83.6157 8.1060 -46.7590
-83.6157 -27.9933 -33.4710
-83.6157 33.5044 11.0147
-83.6157 64.2444 53.2664
-83.6157 -31.2241 46.8386
-83.6157 62.1044 -1.9296
-83.6157 -88.6415 11.1749
-83.6157 13.2763 -6.1447
-83.6157 -4.0583 30.9695
-83.6157 8.9995 -51.2753
-83.6157 -69.5486 -30.3057
-83.6157 81.8754 -34.3963
-83.6157 -4.7852 7.4536
-83.6157 30.9036 -3.0976
-83.6157 64.3134 44.0825
-83.6157 0.8910 -17.1572
-83.6157 76.1309 31.6549
-83.6157 89.8589 -46.9041
-83.6157 27.4499 -54.6762
-83.6157 -76.1122 -18.5247
-83.6157 -27.0927 24.4143
-83.6157 18.3050 -33.9260
-83.6157 15.9992 -2.0660
-83.6157 64.3380 29.8387
-83.6157 62.2748 -39.2098
-83.6157 -18.8527 17.4714
-83.6157 20.9787 -16.9436
-83.6157 56.4445 38.4200
-83.6157 -41.7681 3.0069
-83.6157 -41.4966 50.0616
-83.6157 7.2158 20.1702
-83.6157 81.3965 21.5994
-83.6157 -78.7933 37.4581
-83.6157 -23.0989 -5.2208
-83.6157 57.0155 26.2182
-83.6157 -29.2374 5.5127
-83.6157 -32.0634 1.2334
-83.6157 -35.8679 33.2920
-83.6157 63.7540 43.1173
-83.6157 -4.6430 20.6627
-83.6157 31.2726 -27.6418
-83.6157 -26.9237 -21.4368
-83.6157 -45.7157 49.9045
-83.6157 13.2049 51.5029
-83.6157 -54.6862 34.3268
-83.6157 89.9188 -40.0494
-83.6157 -28.9132 -39.2730
-83.6157 -19.0319 7.8902
-83.6157 81.2552 6.4106
-83.6157 86.8707 -37.0812
-83.6157 85.1069 40.6652
-83.6157 -75.9363 29.7399
-83.6157 -50.8150 -51.8795
-83.6157 72.1075 32.8480
-83.6157 84.6798 -54.3047
-83.6157 -90.4935 -15.3362
-83.6157 56.3822 44.0514
-83.6157 15.7612 34.5557
-83.6157 36.1173 19.7642
-83.6157 -22.1131 -37.4958
-83.6157 -13.2776 27.5309
-83.6157 45.9451 53.4586
-83.6157 -50.0822 -53.4990
-83.6157 -37.7819 -36.8448
-83.6157 -53.4342 -3.6602
-83.6157 -3.4747 -30.5429
-83.6157 7.8552 -13.8562
-83.6157 27.7782 23.4646
-83.6157 -13.5378 22.9740
-83.6157 43.6406 -14.4587
-83.6157 -88.0501 -17.0906
-83.6157 39.0838 -37.7160
-83.6157 84.3200 -22.8211
-83.6157 -72.6105 12.1385
-83.6157 -60.6338 -27.2670
-83.6157 -25.0026 -49.9361
-83.6157 66.6633 -31.7721
-83.6157 22.3937 48.0688
-83.6157 51.7902 28.7049
-83.6157 79.8586 2.0317
-83.6157 -25.0556 -5.7045
-83.6157 -45.3769 53.6689
-83.6157 10.4053 -42.0863
-83.6157 -64.8208 -37.7664
-83.6157 50.4363 37.0359
-83.6157 1.6983 -49.1230
-83.6157 -35.7252 23.6219
-83.6157 21.7178 -9.3810
-83.6157 42.7302 -51.5916
-83.6157 65.7002 36.3932
-83.6157 47.2839 -29.4938
-83.6157 77.5719 -2.3211
-83.6157 -71.1424 -11.1871
-83.6157 55.4346 -22.0968
-83.6157 32.6308 -13.9727
-83.6157 44.6272 -27.6268
-83.6157 -83.2070 -58.4096
-83.6157 20.4454 50.0028
-83.6157 46.1170 52.2907
-83.6157 33.0516 23.3009
-83.6157 63.6440 56.7305
-83.6157 -73.3448 29.4126
-83.6157 56.3383 -20.3284
-83.6157 -71.4345 -52.4079
-83.6157 72.2171 -29.3993
-83.6157 23.8156 58.8876
-83.6157 -39.3611 48.0670
3.6962 90.6536 -0.1758
-27.4359 90.6536 51.2499
61.0837 90.6536 38.2715
-43.6923 90.6536 -24.8474
-55.5949 90.6536 57.9196
-78.9519 90.6536 10.0558
0.6745 90.6536 -34.5353
-56.1532 90.6536 -41.3732
26.3832 90.6536 36.5549
-2.5137 90.6536 14.9056
-25.1828 90.6536 56.2778
25.8267 90.6536 -53.7136
-4.9347 90.6536 34.9420
29.6786 90.6536 -14.3415
12.9305 90.6536 36.6062
-33.9416 90.6536 -39.8325
21.4437 90.6536 -47.0610
-57.8193 90.6536 33.3884
82.3731 90.6536 -46.3590
78.0470 90.6536 -42.2987
18.7395 90.6536 47.3075
25.6827 90.6536 1.6303
61.0510 90.6536 -11.3100
73.7949 90.6536 42.5627
-4.7002 90.6536 -18.0160
56.8768 90.6536 46.0573
-48.6409 90.6536 -15.6911
9.0175 90.6536 -18.5562
34.9510 90.6536 -12.1574
-25.6060 90.6536 1.3246
9.4620 90.6536 45.5224
-25.1979 90.6536 51.9985
-69.3891 90.6536 -5.7212
77.2025 90.6536 -42.3119
-42.0748 90.6536 -50.8123
52.6330 90.6536 -42.2423
-41.9185 90.6536 23.6273
-83.1073 90.6536 23.0982
36.7221 90.6536 -42.2482
-34.7798 90.6536 -52.6917
62.9765 90.6536 30.0146
69.1722 90.6536 -6.3243
-57.4948 90.6536 41.8479
6.7672 90.6536 -42.7002
36.2893 90.6536 -30.3693
-4.3767 90.6536 48.2891
17.2017 90.6536 -22.5233
-54.6451 90.6536 31.6680
-66.5627 90.6536 -24.2236
-80.9398 90.6536 44.3288
81.7460 90.6536 48.9307
18.9181 90.6536 28.2531
-74.5204 90.6536 4.7766
7.1677 90.6536 52.5673
14.8534 90.6536 -6.4952
-47.7837 90.6536 -40.2782
66.8306 90.6536 -56.2266
-55.0597 90.6536 -47.9846
-50.3336 90.6536 -31.7205
54.2271 90.6536 -28.5360
42.2660 90.6536 13.3632
-60.5739 90.6536 -33.4230
8.4053 90.6536 -53.1354
-7.1190 90.6536 13.5534
-9.1576 90.6536 -33.9482
56.8870 90.6536 -16.1614
-70.2266 90.6536 -17.3832
60.8079 90.6536 9.1011
-28.0339 90.6536 -46.8907
71.2256 90.6536 24.7434
-48.6319 90.6536 -17.3082
62.5811 90.6536 38.5655
-74.4593 90.6536 -24.5472
68.5171 90.6536 20.3525
-60.7660 90.6536 10.6726
-13.1229 90.6536 58.0414
54.3641 90.6536 46.0815
36.4070 90.6536 37.9783
59.9273 90.6536 31.0535
-60.3467 90.6536 -8.9150
7.2898 90.6536 -41.2549
-23.5763 90.6536 16.3696
-75.5630 90.6536 33.7445
-0.7170 90.6536 21.3961
-16.0443 90.6536 25.9581
19.7374 90.6536 53.7111
-30.5183 90.6536 9.3710
63.5493 90.6536 -53.4694
13.3385 90.6536 31.6284
38.2464 90.6536 -31.3669
-54.4181 90.6536 -50.0199
45.0104 90.6536 -40.9081
5.1852 90.6536 27.7098
6.1886 90.6536 30.9772
64.0625 90.6536 -9.3677
0.0254 90.6536 -46.0527
18.6224 90.6536 29.6935
46.7903 90.6536 46.5992
7.8630 90.6536 15.1852
-32.6385 90.6536 4.5276
77.8781 90.6536 36.2983
-38.9445 90.6536 7.4570
51.3851 90.6536 -51.0442
-9.6223 90.6536 -26.1536
-20.5688 90.6536 -0.4277
-8.5648 90.6536 11.0387
-4.4659 90.6536 48.1679
-73.3255 90.6536 -2.5595
52.5735 90.6536 -23.4545
53.3648 90.6536 -40.7439
22.3515 90.6536 40.2567
-7.8395 90.6536 54.2297
55.7623 90.6536 18.2177
-80.9196 90.6536 -55.4218
-43.1126 90.6536 -57.6201
48.1882 90.6536 -32.3631
-41.9475 90.6536 55.2143
43.7011 90.6536 -53.2918
35.5418 90.6536 -43.3367
73.1941 90.6536 40.3560
76.1510 90.6536 19.3195
5.7253 90.6536 47.1878
-78.4828 90.6536 7.4323
55.9543 90.6536 41.3741
61.6296 90.6536 28.1602
-1.2384 90.6536 35.0740
-2.9615 90.6536 -47.1763
-12.3866 90.6536 40.1644
80.8420 90.6536 -24.8152
-33.9418 90.6536 21.1906
-44.8800 90.6536 -14.1019
-75.5757 90.6536 -21.9350
11.6224 90.6536 47.7661
58.1880 90.6536 33.9097
60.3522 90.6536 -33.5871
80.5708 90.6536 -48.8082
8.1667 90.6536 -27.9651
-34.1935 90.6536 -18.8865
19.9991 90.6536 31.8869
-50.8112 90.6536 -57.8357
-36.9356 90.6536 28.6038
70.9466 90.6536 -42.8403
72.9972 90.6536 -50.5287
-8.9258 90.6536 1.4517
-82.0026 90.6536 -18.8109
-49.4146 90.6536 29.8776
76.3005 90.6536 -27.6470
32.2870 90.6536 44.7336
-22.9856 90.6536 19.8245
27.8119 90.6536 -33.4126
-78.9306 90.6536 -53.9390
27.0731 90.6536 -11.3545
2.7660 90.6536 39.2624
68.1557 90.6536 45.1808
46.4192 90.6536 32.7453
75.2854 90.6536 -13.6611
14.2395 90.6536 -4.8824
22.5477 90.6536 20.2227
-76.2634 90.6536 53.6259
21.1929 90.6536 -47.4135
7.1501 90.6536 -8.2067
-82.1530 90.6536 -24.2406
30.4699 90.6536 25.1511
68.6199 90.6536 40.9019
-15.5977 90.6536 -47.2249
-57.5302 90.6536 42.5536
-79.2132 90.6536 21.0561
0.9125 90.6536 10.0574
-80.4297 90.6536 50.9985
1.4776 90.6536 -26.5941
32.8063 90.6536 -34.8496
78.8773 -90.6536 -30.6349
23.5121 -90.6536 42.4404
77.0448 -90.6536 21.4447
68.3541 -90.6536 -14.7219
-45.7175 -90.6536 36.8981
-1.5142 -90.6536 56.8480
41.9023 -90.6536 47.0333
59.3663 -90.6536 17.0902
81.3620 -90.6536 -0.1470
-7.9609 -90.6536 23.3802
-60.8874 -90.6536 30.5694
-44.4323 -90.6536 -14.9905
46.4152 -90.6536 -45.7609
-10.5973 -90.6536 33.9565
78.1931 -90.6536 12.3890
74.6641 -90.6536 55.0315
70.1134 -90.6536 -5.2333
-21.6166 -90.6536 -31.2959
19.2398 -90.6536 -23.2644
-73.8376 -90.6536 28.0035
69.6626 -90.6536 -23.1275
-46.6327 -90.6536 50.5894
-37.0396 -90.6536 -35.0745
53.6230 -90.6536 -12.2176
71.8249 -90.6536 41.9453
-32.9736 -90.6536 27.2106
-77.1956 -90.6536 -11.6147
45.0771 -90.6536 44.2812
78.6164 -90.6536 3.4370
-4.5613 -90.6536 58.4468
-67.9474 -90.6536 -8.0639
37.0634 -90.6536 -7.4333
29.2540 -90.6536 42.6138
-11.3776 -90.6536 -51.9774
-58.2529 -90.6536 -44.4657
8.6473 -90.6536 13.9792
-40.3562 -90.6536 -21.2582
38.2567 -90.6536 58.6866
-77.3215 -90.6536 46.4811
-75.9419 -90.6536 21.1126
32.5547 -90.6536 41.2984
-71.2152 -90.6536 26.6990
65.7246 -90.6536 -20.8868
-15.7663 -90.6536 2.0843
32.0783 -90.6536 52.2764
-2.7171 -90.6536 -5.8213
2.6213 -90.6536 15.8714
-18.4656 -90.6536 -8.0775
8.0181 -90.6536 33.2952
-40.9825 -90.6536 7.9553
69.3132 -90.6536 -45.4726
63.4692 -90.6536 -29.0741
-20.4064 -90.6536 25.5231
23.7965 -90.6536 14.3041
60.9322 -90.6536 44.9926
18.5699 -90.6536 -29.8780
-27.1747 -90.6536 -0.9567
3.9934 -90.6536 -15.8250
9.4721 -90.6536 2.2522
11.4094 -90.6536 -56.8423
-2.2245 -90.6536 -8.7903
-74.3121 -90.6536 -42.9036
-10.8512 -90.6536 -37.8247
55.8295 -90.6536 -53.5097
37.9573 -90.6536 12.2835
-0.1208 -90.6536 18.2997
-21.3104 -90.6536 56.1214
-69.4851 -90.6536 37.4334
58.4214 -90.6536 -20.6695
-53.1381 -90.6536 -37.4864
24.4323 -90.6536 13.7558
54.7137 -90.6536 -36.9963
45.6410 -90.6536 -11.0679
15.9043 -90.6536 13.0714
5.5224 -90.6536 1.1143
65.6851 -90.6536 -30.9019
-2.0999 -90.6536 -29.6174
12.1322 -90.6536 -0.8643
-40.0167 -90.6536 29.1517
70.3491 -90.6536 31.8969
50.4081 -90.6536 18.6497
72.3057 -90.6536 -40.2076
-73.2192 -90.6536 -32.8410
11.4429 -90.6536 -26.5907
-81.8334 -90.6536 -26.2218
-73.4306 -90.6536 27.5347
0.1615 -90.6536 -47.9308
34.2263 -90.6536 51.7517
12.3381 -90.6536 -55.8520
-17.6333 -90.6536 12.2841
-0.7306 -90.6536 -42.6151
-78.5772 -90.6536 -3.5093
54.3036 -90.6536 19.9264
-58.1865 -90.6536 -35.7280
-17.4901 -90.6536 -1.6574
-15.4617 -90.6536 4.9782
63.5026 -90.6536 1.8721
-35.9770 -90.6536 46.6499
36.8523 -90.6536 -32.3568
-18.7798 -90.6536 -22.7452
40.3716 -90.6536 57.1439
50.0029 -90.6536 13.8042
49.1349 -90.6536 -15.6783
33.4824 -90.6536 40.8394
-60.0813 -90.6536 -0.5149
-20.6912 -90.6536 56.1029
-40.6243 -90.6536 11.8866
-21.2214 -90.6536 -35.5088
-62.9291 -90.6536 -57.0341
53.3238 -90.6536 -56.3977
81.8574 -90.6536 37.4296
-68.2440 -90.6536 -16.8328
-50.3137 -90.6536 11.6146
18.6915 -90.6536 14.6914
7.2054 -90.6536 44.9686
45.9246 -90.6536 18.9490
-69.0404 -90.6536 18.2633
-24.0409 -90.6536 -34.2933
63.6269 -90.6536 -2.0151
-81.0497 -90.6536 -28.1735
-3.2207 -90.6536 47.7945
13.5269 -90.6536 -27.5158
-55.9257 -90.6536 6.8107
-72.8941 -90.6536 52.7816
-44.7417 -90.6536 -34.3162
26.8756 -90.6536 18.5805
-26.2225 -90.6536 44.0988
-7.4248 -90.6536 -35.3492
-14.7771 -90.6536 3.1910
76.6699 -90.6536 31.3895
47.3658 -90.6536 15.8646
9.7399 -90.6536 24.6879
71.4687 -90.6536 48.3104
-52.6088 -90.6536 -39.0821
81.1231 -90.6536 -46.8873
17.7686 -90.6536 49.1928
11.0871 -90.6536 -24.4116
67.7216 -90.6536 -5.9943
-31.1552 -90.6536 -1.4974
32.0974 -90.6536 48.3075
58.0321 -90.6536 -11.0576
11.2322 -90.6536 42.5096
18.7038 -90.6536 -0.3404
-2.8288 -90.6536 -9.0769
46.3456 -90.6536 -17.5506
-13.8171 -90.6536 12.8794
27.4984 -90.6536 -19.8244
-14.2997 -90.6536 -29.4209
54.4533 -90.6536 3.7258
-14.4041 -90.6536 -37.5167
29.0254 -90.6536 -46.4963
48.0365 -90.6536 45.8371
-26.3074 -90.6536 -54.7455
-48.3186 -90.6536 24.2875
45.8693 -90.6536 -25.9405
-14.8987 -90.6536 2.5431
-4.8140 -90.6536 -21.5834
17.7812 -90.6536 39.9001
19.7371 -90.6536 45.0154
-66.8314 -90.6536 -3.7468
-5.0503 -90.6536 -43.4757
-38.0438 -90.6536 44.4458
81.8777 -90.6536 -18.4558
-24.3302 -90.6536 10.5224
32.9116 -90.6536 27.3275
3.0696 -90.6536 23.8456
-61.2954 -90.6536 -21.1223
-62.9546 -90.6536 21.7593
-32.7990 -90.6536 -22.9565
-9.5017 -90.6536 -27.9688
3.1663 -90.6536 3.9587
-80.5457 31.1441 58.9994
74.6954 52.6696 58.9994
44.8034 -16.8999 58.9994
63.9362 14.2379 58.9994
31.4392 -83.9142 58.9994
9.0690 -1.0165 58.9994
16.2274 -66.6782 58.9994
-28.4884 -3.1789 58.9994
1.7325 56.9576 58.9994
-68.8133 27.6684 58.9994
14.5329 2.8419 58.9994
78.8115 74.4658 58.9994
-17.0870 -79.1872 58.9994
-68.1799 -57.8019 58.9994
16.9263 -47.9566 58.9994
-24.8405 -61.7228 58.9994
-41.5627 9.1675 58.9994
-36.6066 45.0952 58.9994
-9.3394 -31.6007 58.9994
-53.4720 -16.2604 58.9994
9.6661 68.5415 58.9994
73.1941 23.0409 58.9994
73.0885 28.9090 58.9994
65.7942 35.2383 58.9994
-2.3247 -73.6444 58.9994
-27.1633 -8.0891 58.9994
8.1952 4.0395 58.9994
-51.5232 17.3787 58.9994
73.6576 -1.8190 58.9994
28.0732 -8.5498 58.9994
60.7361 -19.6585 58.9994
59.7534 45.6789 58.9994
-7.0592 -5.3922 58.9994
-26.8130 -9.5258 58.9994
-9.3750 66.9205 58.9994
-12.3241 -45.1089 58.9994
17.0454 23.6217 58.9994
-60.6822 68.9984 58.9994
-77.4888 -7.8466 58.9994
30.0443 0.1134 58.9994
59.3268 42.7792 58.9994
38.8523 63.4870 58.9994
43.4088 18.9175 58.9994
3.7112 -68.1047 58.9994
60.0458 51.9547 58.9994
-68.3676 -7.1565 58.9994
8.8361 -86.7762 58.9994
-10.8926 6.8198 58.9994
-64.5153 -73.3866 58.9994
30.6227 49.0393 58.9994
-28.2774 -1.1810 58.9994
59.3181 75.1999 58.9994
40.8773 1.3191 58.9994
55.6960 78.9941 58.9994
-39.6621 0.2465 58.9994
-76.7620 5.3699 58.9994
-30.8668 21.9279 58.9994
34.0622 39.3448 58.9994
-9.1689 84.9308 58.9994
-27.5980 -69.4414 58.9994
-70.3705 -15.5574 58.9994
4.7479 64.4284 58.9994
71.0527 -14.6104 58.9994
68.1644 40.0351 58.9994
-22.9644 -9.9619 58.9994
60.7267 -13.2311 58.9994
16.8870 76.6217 58.9994
59.7510 -10.9542 58.9994
-43.1927 -89.3083 58.9994
-3.3778 -62.8582 58.9994
-7.4108 -25.2133 58.9994
26.9687 -83.1572 58.9994
-73.4982 -9.2801 58.9994
6.3889 -24.2679 58.9994
70.3999 -45.4516 58.9994
15.8512 -15.9973 58.9994
3.5590 -74.9985 58.9994
-50.0432 -31.1127 58.9994
-17.9949 -69.3293 58.9994
62.3326 -76.7217 58.9994
-58.2608 -34.4432 58.9994
-34.6338 75.1432 58.9994
38.1408 12.7897 58.9994
-41.4280 -31.5863 58.9994
2.5389 -19.7131 58.9994
5.4548 -42.8803 58.9994
0.1564 26.5282 58.9994
36.2808 17.6791 58.9994
61.3143 24.8934 58.9994
31.7327 -70.6991 58.9994
19.2193 -24.8911 58.9994
29.4570 40.9351 58.9994
53.7654 -50.4202 58.9994
48.3624 -0.6100 58.9994
-15.9689 46.4168 58.9994
9.9841 8.8395 58.9994
-11.3358 -72.2334 58.9994
-39.4885 -15.5517 58.9994
-6.7955 -61.1809 58.9994
-1.3476 8.3528 58.9994
-71.7448 63.8717 58.9994
43.5864 -67.6791 58.9994
67.3461 39.1574 58.9994
-7.3499 -67.3423 58.9994
-54.5302 -41.2369 58.9994
-67.1309 73.4048 58.9994
48.7247 8.6003 58.9994
-78.7328 -4.3691 58.9994
50.2011 7.2483 58.9994
-31.6460 27.2836 58.9994
3.7791 -19.8664 58.9994
36.0220 -38.6326 58.9994
-37.1707 8.8623 58.9994
29.2463 -74.5165 58.9994
-67.5811 62.6279 58.9994
23.5129 7.5814 58.9994
-26.0220 -34.3036 58.9994
8.5386 -65.5045 58.9994
82.9465 -50.1008 58.9994
-20.8280 73.9499 58.9994
72.9381 -71.2369 58.9994
-32.9609 90.0813 58.9994
69.2560 -59.1956 58.9994
74.2411 13.9221 58.9994
12.1584 11.7822 58.9994
40.4206 13.0960 58.9994
-30.0111 45.6609 58.9994
26.8121 -19.0004 58.9994
-21.2100 53.2960 58.9994
48.2079 -25.5549 58.9994
-21.6135 67.7900 58.9994
-77.6942 2.3363 58.9994
57.4896 -46.3055 58.9994
46.9745 -17.4444 58.9994
50.2161 -68.8884 58.9994
-50.2382 -53.4084 58.9994
-70.2516 -8.9291 58.9994
41.7840 -4.2415 58.9994
-17.2406 28.2496 58.9994
19.8484 39.3248 58.9994
-22.2656 -48.8984 58.9994
-47.2375 -74.5859 58.9994
-23.9695 -61.7901 58.9994
44.1379 35.4392 58.9994
15.2954 -53.9591 58.9994
-40.3032 11.0614 58.9994
-16.6137 -59.1022 58.9994
55.5277 42.0589 58.9994
-15.7473 12.0081 58.9994
-60.8396 16.1320 58.9994
-58.2197 -87.0657 58.9994
61.9000 74.3524 58.9994
51.5739 -25.5829 58.9994
52.9247 -0.8315 58.9994
54.7470 46.1970 58.9994
-51.8703 21.5065 58.9994
6.8767 -42.2254 58.9994
12.5425 -66.1987 58.9994
81.0292 86.3702 58.9994
-60.5065 -74.6676 58.9994
7.2931 -27.4217 58.9994
3.6311 41.8579 58.9994
-21.4998 -3.8005 58.9994
41.4220 -44.3102 58.9994
-73.1238 -27.8964 58.9994
80.0059 52.5427 58.9994
23.0438 36.2349 58.9994
-20.4993 -19.4804 58.9994
-49.7844 60.4940 58.9994
-78.0683 -78.5817 58.9994
70.6769 75.9164 -58.9994
-25.3785 55.0963 -58.9994
10.2700 81.2832 -58.9994
67.3001 -81.1474 -58.9994
73.9342 -45.0929 -58.9994
38.2465 -0.6997 -58.9994
-76.5563 -37.2929 -58.9994
0.9309 35.7652 -58.9994
-47.2221 -56.5487 -58.9994
48.3633 36.0835 -58.9994
53.4242 88.2827 -58.9994
-82.9560 16.5237 -58.9994
-71.7019 -31.3797 -58.9994
-59.3755 39.1246 -58.9994
-73.0707 -60.2758 -58.9994
-13.2557 9.3656 -58.9994
-76.9408 -33.1679 -58.9994
-71.9543 -87.4045 -58.9994
51.0402 30.2184 -58.9994
-75.8341 -69.7415 -58.9994
-13.8935 16.2564 -58.9994
-70.5893 67.3882 -58.9994
-31.9649 51.2376 -58.9994
-73.7667 60.8433 -58.9994
-80.1230 -38.6916 -58.9994
64.3189 15.7816 -58.9994
61.2663 -68.6186 -58.9994
55.9692 20.8691 -58.9994
44.2147 -47.2352 -58.9994
-20.3354 -52.4432 -58.9994
62.4221 -3.4419 -58.9994
-24.2931 -12.8217 -58.9994
-13.2997 26.8859 -58.9994
-30.6842 37.5767 -58.9994
36.7999 29.9233 -58.9994
5.2880 39.4812 -58.9994
16.0496 -43.4087 -58.9994
-70.7087 -39.4923 -58.9994
62.0657 54.2364 -58.9994
-11.2324 2.7700 -58.9994
-42.3571 9.5624 -58.9994
82.7423 -41.4033 -58.9994
66.5893 -85.2911 -58.9994
-64.6774 41.0773 -58.9994
58.0695 11.8496 -58.9994
-57.3636 -33.2129 -58.9994
72.3910 37.0541 -58.9994
32.4613 74.5308 -58.9994
63.4154 -3.9196 -58.9994
32.9821 37.2818 -58.9994
76.2947 -16.3677 -58.9994
10.4938 -45.2516 -58.9994
1.8016 -47.7106 -58.9994
57.2539 -21.8564 -58.9994
42.5238 -21.5983 -58.9994
59.2261 -39.7369 -58.9994
-13.5334 -1.8718 -58.9994
-31.8927 -83.2714 -58.9994
12.0362 4.5080 -58.9994
9.8032 -70.8815 -58.9994
-16.6422 47.2055 -58.9994
72.3831 34.4453 -58.9994
59.2816 29.6413 -58.9994
68.3045 -29.1954 -58.9994
15.1258 -26.3628 -58.9994
50.8789 -10.8650 -58.9994
-34.1627 34.8985 -58.9994
38.3267 51.0731 -58.9994
-53.5667 -39.6787 -58.9994
-50.3583 8.8845 -58.9994
-63.2521 71.5381 -58.9994
3.8340 -63.4348 -58.9994
18.9237 90.5361 -58.9994
-20.1909 -22.9402 -58.9994
-6.8169 19.5084 -58.9994
52.1973 18.5872 -58.9994
-37.0213 -31.8857 -58.9994
-17.6631 60.1340 -58.9994
59.2228 -13.6803 -58.9994
-81.7409 -19.4759 -58.9994
-17.3928 18.9050 -58.9994
42.4504 -16.9753 -58.9994
47.1882 61.7973 -58.9994
44.0288 -67.1773 -58.9994
82.2230 -28.7703 -58.9994
15.1473 6.3003 -58.9994
47.9534 54.0325 -58.9994
-77.4877 35.0607 -58.9994
-44.1062 -10.3769 -58.9994
-22.0860 -57.9921 -58.9994
-32.0704 -53.8831 -58.9994
55.1177 -25.0424 -58.9994
-49.4756 6.9142 -58.9994
51.8722 6.0446 -58.9994
20.0231 -29.0530 -58.9994
-37.3116 5.8714 -58.9994
20.5538 59.3029 -58.9994
-58.9938 0.9305 -58.9994
53.2178 48.8352 -58.9994
-5.1508 -29.9713 -58.9994
5.0574 -16.8007 -58.9994
61.6755 -20.7667 -58.9994
-3.3075 -33.6578 -58.9994
5.5690 -71.0468 -58.9994
47.6589 -44.2818 -58.9994
58.0441 90.1702 -58.9994
-57.1500 83.3999 -58.9994
30.9319 -70.0428 -58.9994
-42.1277 -7.2825 -58.9994
-78.8419 25.4059 -58.9994
73.7675 39.0162 -58.9994
-6.9639 66.4708 -58.9994
-46.4196 -89.7099 -58.9994
-12.0682 -58.7478 -58.9994
22.4565 -35.9131 -58.9994
30.8465 -90.0319 -58.9994
-9.9634 35.7811 -58.9994
74.9978 -21.8160 -58.9994
50.6637 -85.3216 -58.9994
-69.6687 -53.1711 -58.9994
-79.0453 -71.5300 -58.9994
-82.1497 55.9048 -58.9994
-80.5935 16.5996 -58.9994
36.5288 76.3489 -58.9994
50.7994 8.4113 -58.9994
57.8593 19.4579 -58.9994
24.9887 -71.0376 -58.9994
-57.5228 -15.6941 -58.9994
83.0636 65.1328 -58.9994
0.4745 -20.1060 -58.9994
-65.2382 -49.9940 -58.9994
-35.4924 -88.0644 -58.9994
22.4682 -71.7461 -58.9994
21.2123 -43.5743 -58.9994
35.8232 73.4399 -58.9994
63.3867 -9.4786 -58.9994
83.3289 -62.9026 -58.9994
-34.5626 58.5853 -58.9994
74.2464 -48.8559 -58.9994
74.1354 42.3009 -58.9994
-74.1782 35.9438 -58.9994
15.7839 -19.1147 -58.9994
30.5874 -45.8679 -58.9994
-24.8893 -67.2096 -58.9994
1.9299 -44.8357 -58.9994
24.4390 -21.1877 -58.9994
6.7530 -61.4069 -58.9994
51.8693 28.7566 -58.9994
-45.2854 -34.7381 -58.9994
37.0563 -65.9691 -58.9994
-34.3647 -3.3005 -58.9994
-14.4818 -14.7490 -58.9994
44.2223 -61.6855 -58.9994
10.7359 -35.1021 -58.9994
6.3129 55.1042 -58.9994
15.2354 -35.3682 -58.9994
-38.0880 -41.0326 -58.9994
74.8925 58.4822 -58.9994
-10.6427 54.7129 -58.9994
81.4422 -79.8666 -58.9994
-48.0210 -33.3601 -58.9994
83.0762 -44.2279 -58.9994
73.8916 77.6840 -58.9994
-33.7510 75.8478 -58.9994
49.0336 16.4048 -58.9994
-78.4210 38.5677 -58.9994
31.9395 51.1643 -58.9994
74.7818 -1.5913 -58.9994
81.5272 -27.9665 -58.9994
2.2613 -5.4381 -58.9994
