ply
format ascii 1.0
element vertex 1024
property float x
property float y
property float z
end_header
38.4760 12.0181 16.7507
38.4760 -83.6634 23.7435
38.4760 45.2435 -4.1600
38.4760 -59.6100 -41.4353
38.4760 48.6767 49.5104
38.4760 66.3056 24.3878
38.4760 35.8066 9.8718
38.4760 -88.5326 20.1311
38.4760 -13.9541 17.7719
38.4760 61.8329 -20.8931
38.4760 13.9208 13.8380
38.4760 63.4520 -40.5778
38.4760 57.3351 -44.4559
38.4760 76.2252 -0.1150
38.4760 -74.0333 -10.1811
38.4760 -86.5692 31.3477
38.4760 24.1260 6.9192
38.4760 32.0058 48.3415
38.4760 -52.0033 -24.7810
38.4760 -55.4813 -22.7228
38.4760 40.7677 -2.3870
38.4760 41.3514 46.3407
38.4760 -43.2858 0.6589
38.4760 -61.4696 -43.1014
38.4760 49.4491 6.9950
38.4760 -73.4916 30.2255
38.4760 -92.6620 1.0451
38.4760 -78.9391 -38.5371
38.4760 -42.6248 40.7450
38.4760 -89.1605 26.6732
38.4760 -23.3898 32.0872
38.4760 -47.2491 21.5520
38.4760 -55.4784 5.4238
38.4760 -35.5754 -17.3961
38.4760 55.4671 -20.3048
38.4760 -59.5523 -42.6941
38.4760 44.3711 -0.8484
38.4760 24.4022 -38.6615
38.4760 55.7527 -15.8074
38.4760 -49.6868 -17.7703
38.4760 -44.0566 -19.2257
38.4760 -86.1155 -39.7804
38.4760 49.2710 -36.9842
38.4760 38.9310 -21.1385
38.4760 -12.6228 -28.0710
38.4760 58.2142 0.5262
38.4760 -76.4735 15.1998
38.4760 -19.3873 -1.1919
38.4760 63.0210 -29.9108
38.4760 -6.5078 33.1824
38.4760 72.6141 -4.8102
38.4760 45.2949 -22.4360
38.4760 41.3721 12.8340
38.4760 -90.2605 -13.3908
38.4760 26.7368 -8.4924
38.4760 -1.2604 -40.3423
38.4760 -27.3183 -36.7517
38.4760 61.8590 43.2092
38.4760 37.6811 -39.5429
38.4760 12.4104 -11.8218
38.4760 0.3187 46.1007
38.4760 -20.1575 14.1508
38.4760 93.4166 -33.1986
38.4760 -62.5304 -9.5207
38.4760 66.5231 46.2741
38.4760 67.0027 41.0354
38.4760 52.2697 -29.2819
38.4760 89.5075 29.6905
38.4760 40.4361 48.8602
38.4760 92.0577 17.8788
38.4760 78.9879 9.8881
38.4760 55.2650 28.3492
38.4760 29.8596 23.3720
38.4760 28.1685 20.4998
38.4760 61.6139 -36.1267
38.4760 27.8481 37.8686
38.4760 -76.0824 34.0286
38.4760 33.3960 -30.9855
38.4760 -55.2495 -4.2711
38.4760 72.6421 -48.0757
38.4760 68.4093 -33.8086
38.4760 -6.0866 -15.7305
38.4760 28.4284 19.0005
38.4760 -71.2498 -19.3594
38.4760 38.7575 16.3890
38.4760 -15.0596 -8.4901
38.4760 -74.9324 27.6579
38.4760 72.6489 29.2880
38.4760 -52.8164 -41.7194
38.4760 -27.7445 -5.8292
38.4760 50.6364 15.9578
38.4760 44.0835 34.5770
38.4760 25.9103 9.7788
38.4760 -15.7246 -11.2206
38.4760 -34.8438 -23.9657
38.4760 60.7843 -20.8526
38.4760 -60.7049 30.7526
38.4760 17.8940 49.1531
38.4760 52.5687 -10.7823
38.4760 -8.6997 27.4529
38.4760 67.5655 26.7831
38.4760 87.6987 -35.9062
38.4760 64.9553 -43.8910
38.4760 76.5982 -13.6423
38.4760 19.8787 10.0128
38.4760 0.4494 35.2499
38.4760 82.0726 16.8338
38.4760 -25.1161 -29.2807
38.4760 82.9642 35.3454
38.4760 -66.8433 6.9303
38.4760 73.1872 44.4405
38.4760 -14.0974 -11.5412
38.4760 4.6871 -37.5968
38.4760 85.9336 2.1362
38.4760 68.8885 -47.6687
38.4760 -58.8530 -41.2776
38.4760 -16.5844 -32.7444
38.4760 18.9099 -31.8823
38.4760 76.4732 34.4216
38.4760 -66.4744 22.1739
38.4760 28.6849 20.5539
38.4760 74.2370 -15.9583
38.4760 -33.5027 -35.1203
38.4760 75.9650 -46.4157
38.4760 -4.5141 -29.9650
38.4760 30.6922 14.7304
38.4760 -5.0344 49.1351
38.4760 6.5056 -8.7261
38.4760 62.0824 11.4899
38.4760 83.3976 -34.4057
38.4760 21.4981 -0.3952
38.4760 6.9031 4.9413
38.4760 -76.0390 48.6172
38.4760 1.4719 -36.0879
38.4760 -22.0058 -2.3778
38.4760 34.8628 3.7908
38.4760 -28.2253 -36.0342
38.4760 33.7456 0.7660
38.4760 -87.1821 25.7661
38.4760 -95.2899 -16.5852
38.4760 -58.4815 46.4794
38.4760 -19.9837 -22.1081
38.4760 75.3128 3.0076
38.4760 81.1782 -27.1883
38.4760 79.2286 -30.6940
38.4760 18.4442 5.0259
38.4760 90.0841 -16.9161
38.4760 82.2708 -5.1666
38.4760 25.6462 26.7744
38.4760 46.4472 -6.6286
38.4760 -75.6458 4.3269
38.4760 76.8968 1.0557
38.4760 -43.6079 16.1033
38.4760 -41.1775 26.9029
38.4760 30.8487 47.8010
38.4760 -58.3440 -20.6181
38.4760 13.8396 -6.8868
38.4760 -46.3673 -30.7592
38.4760 -10.1068 -21.7650
38.4760 -72.5279 -44.9577
38.4760 -66.2409 22.1453
38.4760 -53.0419 33.3932
38.4760 91.7017 48.6750
38.4760 93.8585 -40.8705
38.4760 -67.2105 -23.2087
38.4760 58.5798 -13.6028
38.4760 -54.7631 -6.0439
38.4760 64.6096 20.4459
38.4760 -35.8719 -19.0949
38.4760 14.8297 32.1270
38.4760 -6.6563 11.3620
-38.4760 29.2420 -20.0446
-38.4760 -43.0224 -43.3790
-38.4760 -18.0036 38.6733
-38.4760 -41.2276 -41.2840
-38.4760 50.5346 30.0136
-38.4760 -23.0594 -9.0191
-38.4760 73.4803 2.6336
-38.4760 38.4503 -10.0155
-38.4760 48.4520 4.6495
-38.4760 -77.6209 -29.1510
-38.4760 -47.2474 -38.7816
-38.4760 -63.6230 23.3064
-38.4760 46.9573 -35.4223
-38.4760 6.1874 43.0928
-38.4760 -65.4708 -42.7992
-38.4760 -34.1250 -26.5979
-38.4760 36.3158 -18.2404
-38.4760 54.5662 10.0020
-38.4760 -14.5437 -22.8600
-38.4760 92.1552 15.3461
-38.4760 -51.3887 3.3428
-38.4760 17.8710 5.2023
-38.4760 73.4435 48.0461
-38.4760 24.5526 11.9414
-38.4760 -14.6436 -0.8236
-38.4760 86.6588 14.6703
-38.4760 -14.0263 -16.6784
-38.4760 26.1340 16.5725
-38.4760 -81.1398 14.3634
-38.4760 -84.4022 -3.6544
-38.4760 -41.6833 -13.5300
-38.4760 -67.4466 6.9127
-38.4760 42.2110 -30.6822
-38.4760 -37.5965 -22.7902
-38.4760 12.8179 -34.2102
-38.4760 33.5721 44.3290
-38.4760 63.2733 -36.9688
-38.4760 -72.1557 -24.8937
-38.4760 67.4976 -20.5123
-38.4760 15.7627 -44.9696
-38.4760 -9.8939 -25.1261
-38.4760 55.9800 33.0424
-38.4760 -53.1765 -36.3469
-38.4760 -90.3399 24.1790
-38.4760 -22.4522 28.6798
-38.4760 -76.4885 -33.2848
-38.4760 -4.5109 -33.9547
-38.4760 -10.7466 17.0690
-38.4760 19.9248 9.6759
-38.4760 59.0629 -23.6802
-38.4760 -91.3367 -11.3374
-38.4760 -34.8272 1.1946
-38.4760 -67.5944 -29.8520
-38.4760 -32.1432 -44.0099
-38.4760 -30.2047 32.9710
-38.4760 23.7023 4.6360
-38.4760 8.6738 26.3664
-38.4760 -70.6623 11.5851
-38.4760 53.3691 -36.9439
-38.4760 -56.2815 9.1217
-38.4760 38.9771 -11.1657
-38.4760 -84.9138 35.5847
-38.4760 -86.9775 -29.1599
-38.4760 20.9138 -10.7422
-38.4760 2.8167 33.8563
-38.4760 4.9031 37.7666
-38.4760 18.5301 -24.8582
-38.4760 50.3064 -17.3411
-38.4760 30.2416 1.8043
-38.4760 -86.9554 1.6528
-38.4760 -69.4306 -29.9410
-38.4760 64.0994 -34.7031
-38.4760 -94.4677 -0.4956
-38.4760 -20.1240 -23.2546
-38.4760 10.3728 -17.1897
-38.4760 -38.7343 24.9348
-38.4760 -23.2467 -9.7847
-38.4760 57.5628 9.9052
-38.4760 -4.3789 -48.9354
-38.4760 -23.5845 -4.2919
-38.4760 -95.6922 20.7008
-38.4760 -58.2639 23.1209
-38.4760 85.2345 -14.8879
-38.4760 -78.5454 -20.5403
-38.4760 39.7667 7.9335
-38.4760 -33.1516 -7.6144
-38.4760 5.4299 22.5236
-38.4760 79.7340 -47.6074
-38.4760 14.5745 -8.6166
-38.4760 -51.2003 -41.1317
-38.4760 -32.5848 27.0110
-38.4760 -95.1703 -14.4981
-38.4760 42.5455 -21.4273
-38.4760 -61.0260 -46.9786
-38.4760 -76.4922 -22.4255
-38.4760 -1.4694 -47.7996
-38.4760 -53.7668 -17.3272
-38.4760 -2.1129 29.5092
-38.4760 12.0443 34.9936
-38.4760 -57.5914 44.8126
-38.4760 -82.7879 31.6053
-38.4760 -84.3790 -45.3823
-38.4760 31.8992 41.4062
-38.4760 45.5260 -6.5787
-38.4760 12.1699 -5.8445
-38.4760 -11.8147 40.3255
-38.4760 -24.6008 -37.5504
-38.4760 -12.1873 22.1587
-38.4760 -63.1541 -27.8179
-38.4760 -48.1661 0.8857
-38.4760 2.8988 -3.4345
-38.4760 -58.0103 -45.3568
-38.4760 83.8847 22.4662
-38.4760 12.2408 5.5111
-38.4760 56.3138 -26.8224
-38.4760 62.4796 6.5953
-38.4760 -15.6451 -11.4981
-38.4760 91.1245 25.7028
-38.4760 -39.0763 -28.7399
-38.4760 62.6774 -11.6225
-38.4760 -59.2944 -5.3391
-38.4760 -84.3303 -25.3909
-38.4760 24.2866 11.7001
-38.4760 1.1300 -41.9152
-38.4760 26.9069 -11.5362
-38.4760 -50.8702 10.4313
-38.4760 -0.5023 25.5732
-38.4760 -85.6048 33.4347
-38.4760 63.7314 -14.8052
-38.4760 -73.7935 -5.0011
-38.4760 82.8368 -37.2848
-38.4760 -29.8836 5.6364
-38.4760 48.8408 -46.8696
-38.4760 -21.5535 -21.1008
-38.4760 90.0991 -20.8386
-38.4760 -90.8639 46.5416
-38.4760 25.4814 31.9513
-38.4760 40.4204 -7.1126
-38.4760 8.2484 -42.7050
-38.4760 32.1177 -37.3947
-38.4760 -22.1379 -4.1654
-38.4760 77.8898 3.5720
-38.4760 -49.5068 -39.4533
-38.4760 -72.6127 -14.9123
-38.4760 87.0664 24.0378
-38.4760 -39.5830 -24.9420
-38.4760 -75.9492 46.2230
-38.4760 54.7004 11.5676
-38.4760 -9.0600 29.1956
-38.4760 -52.2840 -45.8539
-38.4760 -26.1048 7.4093
-38.4760 9.8727 28.1302
-38.4760 30.6297 -29.2017
-38.4760 -86.6897 -40.9801
-38.4760 48.1486 -46.5084
-38.4760 -78.3120 -6.1832
-38.4760 -14.8808 -46.8390
-38.4760 46.3341 49.2754
-38.4760 72.6243 10.2293
-38.4760 27.8560 46.8678
-38.4760 -73.7863 7.9846
-38.4760 82.6869 10.5616
-38.4760 -50.3790 26.3228
-38.4760 52.9173 33.1805
-38.4760 10.5963 43.4827
-38.4760 40.2434 -25.5554
-38.4760 22.6302 13.7678
-38.4760 -81.4665 20.9529
-38.4760 -16.2484 -19.4792
-38.4760 -50.6286 38.9070
-38.4760 -29.0678 -29.9789
22.3793 96.1847 32.1101
-16.0284 96.1847 48.9703
1.5093 96.1847 29.8552
-23.0476 96.1847 42.6298
-29.1554 96.1847 -41.7782
-16.5688 96.1847 -28.8273
38.4175 96.1847 -19.1282
-12.6798 96.1847 5.7906
15.0226 96.1847 -48.0667
27.5717 96.1847 37.8080
-6.1513 96.1847 -25.8136
28.1842 96.1847 14.6811
-19.3140 96.1847 -43.1663
-0.5117 96.1847 34.8398
17.5456 96.1847 -24.2868
-1.8419 96.1847 -11.7392
-33.3248 96.1847 -36.8193
37.5735 96.1847 38.9965
-26.4726 96.1847 -40.5994
-24.2376 96.1847 23.8798
-15.4329 96.1847 48.4180
-22.7148 96.1847 -18.7495
27.9973 96.1847 43.6395
15.2569 96.1847 -41.2777
31.7276 96.1847 -4.7000
-10.3206 96.1847 14.2676
1.6264 96.1847 -14.0706
-27.9926 96.1847 35.5260
29.5320 96.1847 14.7632
29.2642 96.1847 -24.6536
28.4656 96.1847 -28.5941
-1.2863 96.1847 -45.1624
5.2978 96.1847 31.2602
27.4988 96.1847 24.2604
-10.2177 96.1847 -27.0883
27.6537 96.1847 -46.2898
-1.3527 96.1847 -21.2971
14.0151 96.1847 -26.9969
-37.6122 96.1847 -16.4724
18.0382 96.1847 -31.6914
5.5086 96.1847 -16.2846
0.2647 96.1847 21.7374
-23.2229 96.1847 -25.4018
9.4784 96.1847 21.8977
-28.4968 96.1847 31.6027
23.2068 96.1847 12.6985
-22.6822 96.1847 17.9665
28.5781 96.1847 27.2551
-2.2440 96.1847 -18.1856
-20.0054 96.1847 13.9093
-5.9369 96.1847 28.3860
-12.8396 96.1847 3.5749
27.6278 96.1847 46.8335
21.1692 96.1847 -13.9495
18.5693 96.1847 -48.9623
11.3143 96.1847 42.2192
-36.7298 96.1847 12.8789
-0.4924 96.1847 17.8609
2.7175 96.1847 -44.9766
30.4734 96.1847 41.9437
-14.4535 96.1847 -25.6519
-2.1389 96.1847 27.7991
33.3145 96.1847 11.4368
-33.3459 96.1847 22.9643
26.7404 96.1847 -32.2197
-13.2655 96.1847 -13.8591
28.7986 96.1847 -11.7029
-23.8058 96.1847 -34.3646
16.6716 96.1847 4.9842
8.7617 96.1847 -46.0058
-2.3407 96.1847 -13.7027
10.8982 96.1847 -21.0844
-0.9406 96.1847 -13.9080
16.8451 96.1847 39.7666
-33.4641 96.1847 31.1761
-7.6468 96.1847 -18.5898
-28.7686 96.1847 5.0257
35.8819 96.1847 46.9421
-11.4264 96.1847 34.4984
10.3517 96.1847 -3.7961
-22.7071 96.1847 11.1738
2.1889 96.1847 25.3570
-4.8665 96.1847 -3.7476
22.3864 96.1847 48.8116
0.4584 96.1847 26.4458
-36.0852 96.1847 0.7504
-3.8427 96.1847 -26.2434
-6.8700 96.1847 -4.5642
37.8736 96.1847 39.5706
-13.3552 96.1847 26.1775
-20.1205 96.1847 -44.3800
35.3178 96.1847 40.8386
-33.7726 96.1847 24.7230
22.4129 96.1847 -47.0102
6.9663 96.1847 -2.2455
-14.2474 96.1847 12.2124
3.4759 96.1847 -39.8426
-25.2284 96.1847 16.8101
23.1791 96.1847 -22.8281
-37.7801 96.1847 22.1760
-36.4151 96.1847 0.3773
25.8407 96.1847 -36.4382
15.4746 96.1847 -2.0198
9.1636 96.1847 -10.9995
31.1732 96.1847 -38.5850
3.9368 96.1847 -39.0132
-18.3464 96.1847 -5.2972
-4.5602 96.1847 -0.9192
2.0417 96.1847 -16.2202
16.8986 96.1847 -18.3455
-28.0881 96.1847 -23.3327
-23.5110 96.1847 -34.1637
11.9761 96.1847 8.9851
-13.6309 96.1847 31.8109
-9.4447 96.1847 -29.3540
14.4116 96.1847 -0.3695
36.5035 96.1847 -40.1167
6.2348 96.1847 -5.7269
15.0665 96.1847 -16.8447
15.1191 96.1847 4.9664
-9.4002 96.1847 -47.0785
-32.2705 96.1847 -19.4127
-33.3357 96.1847 35.5745
-33.4876 96.1847 37.7596
12.8690 96.1847 46.4021
14.4363 96.1847 29.8883
-11.7626 96.1847 21.1364
-0.9658 96.1847 13.7072
19.7113 96.1847 32.8397
-30.7606 96.1847 -47.1743
31.8349 96.1847 49.2833
0.6833 96.1847 -48.8471
-33.4652 96.1847 -13.9931
-24.8887 96.1847 22.9518
-27.7915 96.1847 -46.3981
26.3600 96.1847 -13.3410
-26.3658 96.1847 33.4716
23.6224 96.1847 5.2954
31.6764 96.1847 -30.2708
11.4328 96.1847 -9.2273
22.3007 96.1847 -44.3276
-25.4904 96.1847 24.2052
1.3876 96.1847 -40.6724
-31.1069 96.1847 31.6248
38.3014 96.1847 -5.2802
30.4132 96.1847 -29.4092
7.5096 96.1847 29.6905
-15.3988 96.1847 -40.7294
22.1479 96.1847 47.7908
26.0452 96.1847 30.1558
-28.7306 96.1847 -9.8338
-1.3401 96.1847 -27.1746
27.7576 96.1847 -24.8766
28.1538 96.1847 -46.7450
-18.2314 96.1847 -1.4770
-2.3102 96.1847 -17.0808
-6.7112 96.1847 -30.9957
25.1181 96.1847 -24.5695
-2.3147 96.1847 35.8213
6.6146 96.1847 6.2112
-23.6887 96.1847 -41.0595
-7.9499 96.1847 -16.4593
-13.0923 96.1847 -14.4835
-22.7549 96.1847 -26.9624
29.1331 96.1847 6.1537
-4.0714 96.1847 47.2098
22.7647 96.1847 32.5038
-37.4613 96.1847 13.4184
38.2215 96.1847 33.7709
37.9482 96.1847 -47.9721
-16.6374 96.1847 -4.9904
18.1572 -96.1847 -5.5289
-30.9556 -96.1847 -4.4094
28.3903 -96.1847 -43.3943
-25.6235 -96.1847 -18.9849
25.5068 -96.1847 -13.0688
-10.6933 -96.1847 15.0680
15.6446 -96.1847 8.7261
16.3286 -96.1847 1.7789
0.1609 -96.1847 38.1965
-31.4246 -96.1847 -46.1093
-8.7399 -96.1847 -8.5235
-24.2369 -96.1847 9.1778
-15.0436 -96.1847 -15.4278
34.2820 -96.1847 -26.4772
-1.5746 -96.1847 -41.0326
28.6840 -96.1847 -26.0441
31.3566 -96.1847 -32.8026
-27.4058 -96.1847 -48.3448
10.3226 -96.1847 41.6670
30.2777 -96.1847 4.6472
-2.6039 -96.1847 31.5851
-0.6156 -96.1847 -40.4836
-27.5998 -96.1847 11.7695
21.1049 -96.1847 41.8043
1.4077 -96.1847 1.8608
14.8563 -96.1847 -12.2347
19.1895 -96.1847 30.8819
-32.4340 -96.1847 -44.2271
-23.1485 -96.1847 -47.8992
-17.8807 -96.1847 1.3594
3.2489 -96.1847 -26.8621
-27.7163 -96.1847 48.7382
-35.6648 -96.1847 1.8867
12.4879 -96.1847 -45.6404
0.7407 -96.1847 -44.9277
-26.3843 -96.1847 4.1046
-36.4819 -96.1847 -15.0618
36.0207 -96.1847 18.9911
-37.4848 -96.1847 45.1850
-2.2495 -96.1847 28.4033
-28.1254 -96.1847 -44.7285
11.2512 -96.1847 3.2891
31.7462 -96.1847 11.4198
36.7211 -96.1847 -41.8750
11.9956 -96.1847 23.6460
13.3304 -96.1847 -38.2155
23.0510 -96.1847 -42.5483
-23.3638 -96.1847 -2.3236
12.3607 -96.1847 4.3502
12.4041 -96.1847 -6.3788
12.7182 -96.1847 -45.2956
17.5914 -96.1847 30.7267
-13.0534 -96.1847 -4.3578
-37.7346 -96.1847 45.1230
-34.5629 -96.1847 -14.8422
-36.6915 -96.1847 -21.3733
2.2070 -96.1847 -0.3953
30.0294 -96.1847 26.3500
-16.0189 -96.1847 26.3655
15.3105 -96.1847 -38.5735
23.8448 -96.1847 -30.3988
21.7445 -96.1847 -20.9806
-2.0937 -96.1847 -13.0688
11.1185 -96.1847 -15.3387
-14.5602 -96.1847 -35.0055
27.0981 -96.1847 -18.7854
-4.7502 -96.1847 34.2531
31.5150 -96.1847 14.5228
19.1584 -96.1847 -49.1719
5.5753 -96.1847 -14.7030
-11.7707 -96.1847 -49.0750
-23.9469 -96.1847 -21.2071
-2.1755 -96.1847 -2.9699
35.4120 -96.1847 -5.2532
-0.7912 -96.1847 38.2945
5.4005 -96.1847 0.9313
-0.3113 -96.1847 -23.7797
5.2369 -96.1847 -28.2607
4.3621 -96.1847 40.7651
0.5442 -96.1847 -33.4883
-26.5464 -96.1847 16.2628
19.2821 -96.1847 -8.6315
17.1608 -96.1847 3.5622
24.2018 -96.1847 1.6670
19.7604 -96.1847 5.4066
20.0652 -96.1847 30.1278
-33.6770 -96.1847 -29.1021
30.2593 -96.1847 45.3253
-35.6095 -96.1847 -10.1613
2.5832 -96.1847 -3.4104
-7.4018 -96.1847 2.0549
-14.6241 -96.1847 -49.1126
31.7984 -96.1847 6.7271
25.1300 -96.1847 27.4667
0.2052 -96.1847 -36.9598
5.3682 -96.1847 -39.5226
7.3775 -96.1847 -2.0899
24.1945 -96.1847 11.8739
-36.9522 -96.1847 -34.9373
-1.1159 -96.1847 -16.0608
36.6562 -96.1847 37.7347
-36.1224 -96.1847 31.2507
-12.1242 -96.1847 -45.6515
25.9359 -96.1847 2.0386
23.1708 -96.1847 12.2165
-5.8291 -96.1847 -19.4637
1.9533 -96.1847 -23.2995
-3.8988 -96.1847 4.8916
-16.9317 -96.1847 2.4847
10.9071 -96.1847 -9.7242
-4.2256 -96.1847 28.0646
6.4688 -96.1847 -5.9285
-16.1273 -96.1847 32.2197
36.0188 -96.1847 -45.1243
28.4412 -96.1847 41.7451
37.7906 -96.1847 -36.7015
23.2435 -96.1847 -43.8975
20.9353 -96.1847 -22.3939
31.8023 -96.1847 29.7746
-1.6467 -96.1847 -30.4841
26.6531 -96.1847 41.5356
8.4793 -96.1847 -23.3940
4.7911 -96.1847 18.0143
-15.7484 -96.1847 -4.8496
23.4355 -96.1847 -35.8200
-28.6266 -96.1847 -26.2757
-21.5369 -96.1847 -2.8194
-21.0194 -96.1847 18.7598
-4.2443 -96.1847 -17.1930
-19.8593 -96.1847 49.4852
16.9763 -96.1847 -22.7004
30.9353 -96.1847 -37.1454
31.1248 -96.1847 45.6140
-10.2585 -96.1847 28.7730
23.0019 -96.1847 -44.2131
-30.8023 -96.1847 -32.0070
-4.6077 -96.1847 24.9866
37.0354 -96.1847 46.5370
22.0734 -96.1847 -13.9178
4.6939 -96.1847 13.8735
16.3885 -96.1847 -25.8264
-34.1879 -96.1847 4.4061
-28.6799 -96.1847 7.1832
4.7951 -96.1847 41.0327
-12.3941 -96.1847 31.7687
16.4610 -96.1847 -8.5030
-12.7179 -96.1847 -32.5398
22.6095 -96.1847 -31.3010
33.0685 -96.1847 -43.2944
16.4304 -96.1847 34.4514
29.1329 -96.1847 30.8748
10.4177 -96.1847 -18.5191
20.2638 -96.1847 44.1332
33.0718 -96.1847 -43.0986
26.0058 -96.1847 1.2363
-4.7000 -96.1847 46.8215
28.9636 -96.1847 -20.8990
33.9415 -96.1847 -35.2246
-25.1326 -96.1847 16.4917
24.4821 -96.1847 37.0124
-36.6487 -96.1847 -28.8266
12.0241 -96.1847 -38.4904
38.1889 -96.1847 30.4890
-25.5542 -96.1847 45.9083
-10.6654 -96.1847 -17.6658
34.9554 -96.1847 13.2715
5.9689 -96.1847 23.9738
-25.7073 -96.1847 7.9167
25.5957 -96.1847 -2.0751
6.7561 -96.1847 -32.8042
4.9427 -96.1847 -22.1150
23.5921 -66.2954 49.5800
-30.5990 -85.6117 49.5800
-30.0114 -23.1301 49.5800
-0.7629 41.9225 49.5800
-15.5088 -71.5122 49.5800
-1.9318 90.8746 49.5800
-4.0575 80.6853 49.5800
-9.4097 6.4429 49.5800
-22.3225 25.9448 49.5800
-36.3775 77.0152 49.5800
28.9679 52.3348 49.5800
-30.1773 92.1294 49.5800
2.4985 11.0898 49.5800
12.2247 2.3752 49.5800
-9.6101 -11.4012 49.5800
-35.8514 83.8648 49.5800
19.0005 -20.6320 49.5800
13.1566 -94.5125 49.5800
-26.2920 -51.8719 49.5800
38.0885 -66.6156 49.5800
1.3101 -84.7585 49.5800
-6.8292 -83.8817 49.5800
-23.8058 91.7181 49.5800
29.6079 9.4520 49.5800
34.0324 22.6929 49.5800
-15.4979 -55.2297 49.5800
-0.9316 -55.0622 49.5800
1.9478 62.9045 49.5800
21.0068 -3.4346 49.5800
-11.9079 34.8904 49.5800
4.9318 -38.1311 49.5800
2.6979 -47.3425 49.5800
10.4058 -82.8132 49.5800
-3.4291 76.4638 49.5800
0.1041 70.7538 49.5800
31.9047 -49.2314 49.5800
-26.6458 -69.4885 49.5800
-24.1320 24.9692 49.5800
-19.9319 66.2879 49.5800
-13.7593 -64.1647 49.5800
-0.1683 73.2111 49.5800
38.3513 68.4364 49.5800
14.4912 91.3847 49.5800
-29.7654 -93.1511 49.5800
25.4053 84.6945 49.5800
25.6227 55.6296 49.5800
11.9955 29.7346 49.5800
13.6054 -47.0095 49.5800
32.1463 89.8587 49.5800
6.5570 0.8670 49.5800
33.7125 -61.6406 49.5800
-19.1138 -34.7418 49.5800
16.9321 40.6579 49.5800
-25.8840 72.7179 49.5800
29.7090 -71.1803 49.5800
2.8533 -8.7400 49.5800
21.9481 78.3823 49.5800
6.0759 49.7711 49.5800
5.6425 -22.0235 49.5800
-31.7074 56.4785 49.5800
20.7024 -65.0322 49.5800
25.3264 -53.3258 49.5800
-34.0595 10.7136 49.5800
-19.3436 -57.8392 49.5800
-5.2348 -16.0616 49.5800
-21.0224 87.5287 49.5800
35.3893 -14.5507 49.5800
23.1222 26.0070 49.5800
27.1218 73.6353 49.5800
30.9547 80.6685 49.5800
-21.5709 -14.5692 49.5800
-34.7912 49.4609 49.5800
2.1126 78.1575 49.5800
-10.1930 34.4849 49.5800
15.3619 -38.3490 49.5800
21.5091 49.7518 49.5800
-25.0377 73.1491 49.5800
14.1297 -9.6354 49.5800
-34.8510 -37.0042 49.5800
32.2633 88.6880 49.5800
30.5776 -28.3281 49.5800
8.7220 26.6062 49.5800
32.9364 64.2027 49.5800
-36.6096 70.0649 49.5800
6.5254 6.1438 49.5800
-34.5082 57.7048 49.5800
24.7956 93.6524 49.5800
-20.7602 56.6965 49.5800
-15.8190 -40.0337 49.5800
-20.2107 -59.7650 49.5800
-17.9364 -5.6566 49.5800
25.2187 15.7678 49.5800
28.4945 -67.3003 49.5800
15.5882 51.6096 49.5800
-24.9171 20.5386 49.5800
-2.5628 80.7552 49.5800
-24.9551 -96.1216 49.5800
-13.7036 49.1538 49.5800
8.0443 27.2281 49.5800
-25.5486 95.8037 49.5800
-6.7213 -18.1432 49.5800
-24.4871 17.0224 49.5800
4.8761 57.8125 49.5800
-37.7997 -59.6094 49.5800
2.5430 -31.0482 49.5800
19.3873 5.0369 49.5800
-2.8117 -89.9697 49.5800
14.5070 43.3667 49.5800
-3.7364 -9.5525 49.5800
-19.0931 47.8210 49.5800
-7.2272 -67.7972 49.5800
-8.3703 -72.1943 49.5800
-12.0660 -94.7762 49.5800
2.8317 76.9707 49.5800
17.3121 -61.9205 49.5800
19.6473 3.0942 49.5800
16.4434 -40.4490 49.5800
13.2373 -8.8356 49.5800
-32.2904 -1.8644 49.5800
-2.0675 -2.6205 49.5800
14.4205 20.6607 49.5800
21.6779 58.3515 49.5800
-10.6520 39.5701 49.5800
-6.1755 8.1298 49.5800
-35.9873 -27.8569 49.5800
8.2979 63.8822 49.5800
21.7296 78.4630 49.5800
-0.1032 -81.3224 49.5800
4.8000 -31.5318 49.5800
5.3607 -24.1167 49.5800
9.4490 -85.5703 49.5800
20.0939 -84.6386 49.5800
-20.6347 60.1897 49.5800
25.1072 -27.0087 49.5800
-28.1574 45.0333 49.5800
-7.7052 -23.9237 49.5800
30.5949 0.5325 49.5800
13.8878 -6.4765 49.5800
29.8185 57.7448 49.5800
-24.6062 78.9092 49.5800
-21.8700 80.2955 49.5800
-38.0803 49.9692 49.5800
-34.5730 -2.4935 49.5800
13.2284 -3.4304 49.5800
-11.0632 44.1547 49.5800
-22.3122 30.2749 49.5800
1.7026 48.8806 49.5800
0.1518 -23.6080 49.5800
-36.5202 -25.5356 49.5800
-1.9980 -65.9418 49.5800
-17.7960 10.4669 49.5800
-14.0753 -47.1172 49.5800
-20.1358 90.9796 49.5800
-16.2162 -24.4484 49.5800
22.7557 92.0025 49.5800
-30.3962 12.8708 49.5800
-34.8642 -94.5494 49.5800
2.6218 -75.4333 49.5800
0.8644 -75.5108 49.5800
-11.4074 -87.4185 49.5800
27.2218 92.9327 49.5800
24.0871 -43.7739 49.5800
35.5889 -61.8296 49.5800
-35.0067 76.1484 49.5800
-0.6180 80.2652 49.5800
-19.1874 66.4963 49.5800
27.6625 78.8484 49.5800
-27.7399 -85.7855 49.5800
25.3966 35.9532 49.5800
-1.4857 -75.2341 49.5800
18.9553 -42.4460 -49.5800
-11.7565 2.3810 -49.5800
-32.3441 14.4868 -49.5800
0.4977 -51.9755 -49.5800
1.6612 -77.9367 -49.5800
-29.3932 82.5465 -49.5800
25.3442 -65.0583 -49.5800
-21.2079 12.7038 -49.5800
-27.8090 -24.1451 -49.5800
-16.2724 52.3071 -49.5800
34.6024 50.4215 -49.5800
-1.7511 8.3375 -49.5800
-1.5491 -68.1942 -49.5800
-27.6823 -44.8157 -49.5800
-5.8856 -28.5358 -49.5800
-33.7134 20.0711 -49.5800
-27.9430 24.0016 -49.5800
-4.1228 -77.1718 -49.5800
13.4066 -9.8027 -49.5800
-36.4314 69.8223 -49.5800
20.7873 -38.8725 -49.5800
-22.6381 4.5164 -49.5800
-4.0083 75.9261 -49.5800
19.0311 34.7717 -49.5800
-12.6322 -35.0155 -49.5800
14.7906 -40.2843 -49.5800
21.0498 84.9675 -49.5800
19.7479 -87.1528 -49.5800
26.9670 -12.4783 -49.5800
-15.0390 34.7983 -49.5800
-33.9022 -11.3357 -49.5800
-7.7742 32.3905 -49.5800
28.7549 37.6666 -49.5800
-10.3230 82.2892 -49.5800
-31.4524 57.9272 -49.5800
11.4401 -55.4935 -49.5800
32.5545 -41.7036 -49.5800
0.1895 -61.4953 -49.5800
19.2767 13.0445 -49.5800
-19.7848 -59.4316 -49.5800
12.3884 8.4103 -49.5800
37.2071 -33.3077 -49.5800
-1.7004 -75.2924 -49.5800
1.4532 -71.0321 -49.5800
-28.5348 -52.5465 -49.5800
-4.0275 -67.1407 -49.5800
31.0724 -72.7041 -49.5800
-36.4751 -85.1452 -49.5800
-6.0728 2.9689 -49.5800
-17.5027 -1.4739 -49.5800
35.8405 -2.4387 -49.5800
27.2914 24.3029 -49.5800
-0.2832 77.9127 -49.5800
-24.0569 28.5470 -49.5800
-0.4544 58.2400 -49.5800
26.1209 17.2987 -49.5800
-16.3836 1.7166 -49.5800
14.7178 -46.6373 -49.5800
2.9505 77.9399 -49.5800
-25.1384 -33.2209 -49.5800
-22.4232 -71.0247 -49.5800
-20.4522 80.3183 -49.5800
13.8897 -95.4352 -49.5800
-31.4293 19.5473 -49.5800
11.0203 -13.0858 -49.5800
-11.6383 -67.9943 -49.5800
-12.9152 -22.1258 -49.5800
-33.3237 -83.3984 -49.5800
37.0682 -45.8285 -49.5800
33.8002 -43.1011 -49.5800
-25.7558 9.9114 -49.5800
-4.1044 -39.6060 -49.5800
0.1388 54.5726 -49.5800
-12.5596 0.3329 -49.5800
-9.8280 -90.2259 -49.5800
-26.9276 92.8900 -49.5800
-35.2590 -11.7301 -49.5800
3.2118 -41.8438 -49.5800
4.8680 -62.9104 -49.5800
-2.2927 20.8639 -49.5800
0.8795 13.2001 -49.5800
-8.8489 -74.8230 -49.5800
-3.7504 69.5215 -49.5800
12.8449 -43.4484 -49.5800
-16.7149 72.2426 -49.5800
33.3767 -44.2686 -49.5800
13.4751 -1.8805 -49.5800
36.6978 1.4002 -49.5800
33.3496 3.5547 -49.5800
-13.5034 26.7688 -49.5800
8.8555 19.3529 -49.5800
-10.7345 93.7006 -49.5800
12.9323 -16.3912 -49.5800
22.9495 70.3799 -49.5800
-0.3456 34.6011 -49.5800
4.3977 -37.9348 -49.5800
32.3330 86.7104 -49.5800
6.1358 85.5189 -49.5800
-35.5818 -95.1737 -49.5800
-37.6692 63.7151 -49.5800
-9.1882 -41.7563 -49.5800
-10.0727 39.0250 -49.5800
-9.0381 -52.3444 -49.5800
30.7913 -63.6579 -49.5800
31.3658 20.8732 -49.5800
18.0997 9.6908 -49.5800
-15.7740 -18.4576 -49.5800
-17.8871 20.9795 -49.5800
-14.5266 28.9560 -49.5800
25.3551 9.1025 -49.5800
5.1015 -15.9819 -49.5800
-38.2666 24.6293 -49.5800
16.9251 76.5998 -49.5800
1.3516 -55.2608 -49.5800
35.1327 -48.3502 -49.5800
-2.3209 -43.4195 -49.5800
33.7801 -5.1294 -49.5800
-20.9190 81.9532 -49.5800
36.4205 52.2708 -49.5800
-29.1744 -10.7747 -49.5800
-23.8536 63.1890 -49.5800
18.6206 34.8061 -49.5800
5.9128 96.0212 -49.5800
-21.3212 90.1694 -49.5800
5.1998 52.2763 -49.5800
24.7207 -27.0858 -49.5800
-11.7485 -62.3317 -49.5800
15.9472 -74.7186 -49.5800
35.9858 7.8935 -49.5800
32.2056 -95.6723 -49.5800
-14.9964 -18.4728 -49.5800
-18.2086 64.3900 -49.5800
-1.2420 -19.2457 -49.5800
-18.3470 -69.4234 -49.5800
24.8635 -80.6580 -49.5800
-2.9660 13.2265 -49.5800
24.8045 -74.6933 -49.5800
-18.6631 -17.5138 -49.5800
12.6179 -3.6885 -49.5800
29.6323 11.7038 -49.5800
2.0696 -14.2669 -49.5800
8.3951 56.2895 -49.5800
-34.7620 -77.9906 -49.5800
-2.1168 -8.3243 -49.5800
1.5159 33.0492 -49.5800
38.2979 61.7992 -49.5800
-26.9063 -87.8374 -49.5800
13.2605 -88.2853 -49.5800
32.2462 -34.4755 -49.5800
18.9506 81.1090 -49.5800
36.5859 8.4723 -49.5800
24.5290 -39.3880 -49.5800
-2.9101 50.2744 -49.5800
-10.4598 -82.2733 -49.5800
23.5259 55.2897 -49.5800
23.5944 -50.6212 -49.5800
-25.1050 21.3430 -49.5800
-25.6787 40.8021 -49.5800
9.2933 -38.8981 -49.5800
-10.9746 -65.2429 -49.5800
6.4555 -28.2504 -49.5800
-35.8672 -96.0042 -49.5800
15.3696 -53.4493 -49.5800
-21.5629 -76.2240 -49.5800
33.3969 82.0390 -49.5800
-24.2554 -55.8868 -49.5800
35.5422 7.7589 -49.5800
-28.2764 63.3959 -49.5800
19.1265 -34.9849 -49.5800
9.3629 36.4771 -49.5800
