ply
format ascii 1.0
element vertex 1024
property float x
property float y
property float z
end_header
71.3624 -9.8981 -40.5149
71.3624 -31.0968 14.2560
71.3624 18.6152 -8.7825
71.3624 -14.1728 29.8078
71.3624 8.2439 23.2269
71.3624 10.8884 28.8501
71.3624 -32.1142 33.5184
71.3624 24.9541 33.8302
71.3624 -5.7391 -28.7378
71.3624 -20.6673 -5.3035
71.3624 -12.8466 6.9023
71.3624 -10.7076 12.4417
71.3624 -11.0356 40.6409
71.3624 3.4022 -49.3510
71.3624 17.7139 15.3957
71.3624 20.4689 5.4356
71.3624 -30.8057 30.2396
71.3624 -25.6988 -48.3256
71.3624 -0.9861 -28.2206
71.3624 -22.8000 39.1167
71.3624 -26.4547 11.4736
71.3624 9.4322 -37.9667
71.3624 -29.0288 27.2907
71.3624 22.5547 -25.4195
71.3624 15.5273 -4.2993
71.3624 -13.9646 -38.0561
71.3624 -24.8381 -56.3156
71.3624 9.8767 10.2265
71.3624 10.4234 -8.4950
71.3624 8.0231 32.3252
71.3624 -26.1979 -26.0854
71.3624 29.6341 -39.6957
71.3624 7.5011 -56.2228
71.3624 -1.5573 11.6243
71.3624 23.7273 50.8525
71.3624 15.8891 54.8839
71.3624 -6.0650 -14.2652
71.3624 -10.8505 -14.9923
71.3624 -22.5473 -52.8709
71.3624 -18.5682 14.2249
71.3624 3.1759 20.8676
71.3624 -4.4914 -55.9073
71.3624 -5.3034 38.3202
71.3624 -5.2547 17.1957
71.3624 -5.2351 12.1697
71.3624 21.7005 25.3058
71.3624 -27.3193 -33.3478
71.3624 -22.6981 12.7177
71.3624 20.8521 17.8247
71.3624 -18.6654 -15.3229
71.3624 31.8500 -26.3804
71.3624 19.4578 54.7238
71.3624 23.5356 -9.2474
71.3624 -12.1488 45.4813
71.3624 -21.1339 24.9998
71.3624 3.1744 -41.2306
71.3624 -4.7134 2.6947
71.3624 0.2413 -33.0592
71.3624 -18.0079 42.3436
71.3624 2.3778 -22.5803
71.3624 -3.5987 -28.2745
71.3624 25.4051 46.9541
71.3624 -6.7964 -9.3144
71.3624 -25.8610 -9.7838
71.3624 -27.5210 29.5504
71.3624 -2.2050 50.7499
71.3624 22.1660 37.7550
71.3624 14.3138 -37.4319
71.3624 -15.6592 -38.7763
71.3624 -8.0424 9.9023
71.3624 8.9969 37.7491
71.3624 -7.4683 -25.7217
71.3624 23.0451 53.9213
71.3624 -28.6537 -17.0814
71.3624 20.3651 9.1951
71.3624 -16.7340 -20.0997
71.3624 18.1612 -30.6802
71.3624 -5.6243 55.0463
71.3624 -23.0986 -42.2050
71.3624 18.9162 -34.1737
71.3624 -21.5861 -7.2628
71.3624 18.9519 0.1286
71.3624 24.1396 -46.7407
71.3624 -9.9140 -3.9882
71.3624 -2.1344 33.3041
71.3624 -11.9915 12.7224
71.3624 -17.3994 34.4333
71.3624 -28.1026 41.3899
71.3624 -13.1863 30.4457
71.3624 -6.2146 -43.2347
71.3624 -6.3130 39.7765
71.3624 -32.7941 -28.0730
71.3624 8.2436 -18.2381
71.3624 -5.4730 -56.0805
71.3624 7.4061 49.5186
71.3624 -29.6130 -33.2844
71.3624 10.3297 20.9624
71.3624 31.8092 40.3651
71.3624 -4.1343 -4.3008
71.3624 0.0589 17.4477
71.3624 3.1908 36.7385
71.3624 -2.5023 -20.7800
71.3624 29.3356 28.3107
71.3624 -3.2350 -15.1091
71.3624 -18.8785 -32.9204
71.3624 18.2627 22.8496
71.3624 24.6562 -42.1458
71.3624 -21.3551 -0.2345
71.3624 21.0259 -33.4071
71.3624 15.5974 -20.9671
71.3624 32.1504 12.4221
71.3624 -23.3106 36.7152
71.3624 -27.9692 6.1923
71.3624 12.0828 -24.1355
71.3624 -19.7570 -1.1641
71.3624 32.4093 -38.9072
71.3624 13.7400 -49.9376
71.3624 -7.9728 51.9449
71.3624 -14.9022 -25.4509
71.3624 16.4981 17.9052
71.3624 -26.7931 -28.7086
71.3624 -3.5752 -40.5196
71.3624 -28.3411 -0.4830
71.3624 6.8798 -22.6806
71.3624 3.2339 -49.8982
71.3624 24.8873 48.7033
71.3624 11.0255 54.2050
71.3624 -19.5655 56.4859
71.3624 -5.4886 32.2300
71.3624 -6.1017 34.4606
71.3624 31.7409 -37.2515
71.3624 28.9787 -36.6173
71.3624 -14.9590 11.0834
71.3624 22.1447 35.5004
71.3624 23.2199 0.7845
71.3624 -26.1153 15.9183
71.3624 -5.7157 26.9389
71.3624 15.0780 -23.4998
71.3624 -7.5857 37.5223
71.3624 17.0862 47.3105
71.3624 3.8989 -16.8456
71.3624 12.2079 55.8377
71.3624 4.9532 33.8018
71.3624 -20.9988 -41.9520
71.3624 5.4927 20.4210
71.3624 -22.4923 -51.0748
71.3624 17.8793 37.2130
71.3624 29.0152 -9.9206
71.3624 4.1340 45.8360
71.3624 23.3013 -2.3494
71.3624 -0.6608 44.8739
71.3624 -33.0995 -5.5228
71.3624 -32.1713 47.1270
71.3624 0.4940 3.2235
71.3624 -7.3357 -43.4200
71.3624 -18.2098 4.2135
71.3624 -8.5034 16.2813
71.3624 -3.5278 -13.2321
71.3624 -7.7386 -22.0412
71.3624 24.2134 21.4648
71.3624 -21.7439 -22.9432
71.3624 -5.8642 20.3047
71.3624 -0.0606 2.3222
71.3624 25.9946 37.0896
71.3624 -14.3379 -10.8023
71.3624 8.6652 -6.4323
71.3624 -17.8193 22.4089
71.3624 12.1592 34.0880
71.3624 -9.9008 48.3629
71.3624 6.6371 2.1418
71.3624 26.6376 -4.5458
-71.3624 7.3368 29.3961
-71.3624 -25.3924 7.7528
-71.3624 2.0727 -32.1349
-71.3624 22.0182 -56.0015
-71.3624 -10.2898 -28.3717
-71.3624 -26.0971 -38.1316
-71.3624 15.7085 11.3081
-71.3624 16.1583 40.6310
-71.3624 -26.0446 -2.2245
-71.3624 -7.4814 -21.7381
-71.3624 -3.6566 -46.9090
-71.3624 -3.8312 32.5331
-71.3624 24.6114 -29.1206
-71.3624 -16.3130 -25.3813
-71.3624 -14.7973 -17.3239
-71.3624 -30.8288 -36.6158
-71.3624 11.2857 53.9775
-71.3624 7.5008 -24.6622
-71.3624 17.3233 -11.7895
-71.3624 -32.0171 55.5358
-71.3624 -20.2025 -47.0530
-71.3624 -7.5227 13.0209
-71.3624 7.4832 51.0457
-71.3624 -0.2605 -55.0400
-71.3624 32.5073 -54.1774
-71.3624 7.1619 -0.1353
-71.3624 28.0031 -11.3143
-71.3624 -28.4129 -48.2285
-71.3624 1.9946 -36.9107
-71.3624 26.5939 -20.2690
-71.3624 -4.7243 23.2433
-71.3624 11.2294 -47.7719
-71.3624 -1.3065 -41.5240
-71.3624 3.4585 25.2597
-71.3624 -4.5269 43.6447
-71.3624 -32.4643 36.0298
-71.3624 28.8831 -22.2523
-71.3624 18.9589 -15.2252
-71.3624 21.3476 -44.2257
-71.3624 -18.1356 -19.1073
-71.3624 -22.2519 -32.8239
-71.3624 2.1009 -32.4880
-71.3624 -1.8358 17.5439
-71.3624 -20.1395 10.3701
-71.3624 16.8371 36.0060
-71.3624 13.4591 -3.2164
-71.3624 -23.7879 -33.0744
-71.3624 28.8754 38.0834
-71.3624 -7.7350 -45.9755
-71.3624 -25.2713 13.6615
-71.3624 3.7740 8.7938
-71.3624 12.9455 -9.7104
-71.3624 6.0987 55.9819
-71.3624 -16.5903 18.6545
-71.3624 29.4351 18.6595
-71.3624 -14.1523 5.6210
-71.3624 19.5829 -30.2431
-71.3624 31.4500 5.1902
-71.3624 -32.7274 43.7252
-71.3624 -22.9031 -6.4331
-71.3624 13.4552 -19.3938
-71.3624 -18.0390 -17.0492
-71.3624 32.3676 52.8715
-71.3624 -26.0400 -19.5556
-71.3624 -6.4101 24.1026
-71.3624 7.7138 18.7357
-71.3624 26.9935 -53.6340
-71.3624 22.6967 -21.1670
-71.3624 22.7722 13.2738
-71.3624 -25.8053 -2.5559
-71.3624 -20.9334 41.4208
-71.3624 7.9999 -26.3739
-71.3624 10.9764 18.0382
-71.3624 -24.9357 37.1600
-71.3624 1.7422 -13.0402
-71.3624 3.4813 -8.9760
-71.3624 -28.6439 54.8712
-71.3624 -27.5453 33.9962
-71.3624 6.0245 -38.8955
-71.3624 -25.9622 13.3157
-71.3624 -4.7327 48.6474
-71.3624 -22.4634 9.2761
-71.3624 3.6163 -0.1525
-71.3624 11.5713 42.0655
-71.3624 24.5241 -11.7342
-71.3624 -15.3698 44.2442
-71.3624 -25.2738 -40.5421
-71.3624 28.5543 -25.0074
-71.3624 -27.4838 1.6809
-71.3624 8.2995 28.5819
-71.3624 -28.6474 -42.2853
-71.3624 21.3587 -8.0907
-71.3624 -12.1268 35.0460
-71.3624 -5.8317 16.3466
-71.3624 27.3701 44.0554
-71.3624 -8.0113 -46.7523
-71.3624 12.5664 -20.3001
-71.3624 -2.2038 -21.8638
-71.3624 24.5361 56.0057
-71.3624 -4.9281 -1.6252
-71.3624 -30.8941 -28.9356
-71.3624 10.3023 -52.5246
-71.3624 4.0837 -13.0806
-71.3624 12.6808 41.7040
-71.3624 -26.0987 34.4773
-71.3624 26.0663 -6.2115
-71.3624 -30.8040 49.5934
-71.3624 -24.2975 -22.0743
-71.3624 -12.2993 -1.5628
-71.3624 -8.4637 52.1904
-71.3624 -19.6836 -21.6253
-71.3624 -28.3585 -49.9307
-71.3624 18.6350 -9.9008
-71.3624 22.3284 -38.4279
-71.3624 -3.5543 35.9981
-71.3624 6.1484 33.0146
-71.3624 2.4796 -14.3960
-71.3624 21.1897 39.0049
-71.3624 -29.0233 20.8673
-71.3624 4.0947 1.1950
-71.3624 17.7928 -27.1544
-71.3624 4.5906 -6.4853
-71.3624 3.1904 25.4144
-71.3624 -3.5294 -36.7657
-71.3624 -0.1809 43.1742
-71.3624 -29.8652 -1.1347
-71.3624 -6.9115 -51.1767
-71.3624 9.1741 18.0693
-71.3624 23.5923 -3.5741
-71.3624 14.2445 25.9669
-71.3624 -10.1844 -30.6188
-71.3624 -12.3386 48.0738
-71.3624 21.1459 37.4996
-71.3624 15.7277 -7.4954
-71.3624 -22.2603 0.8478
-71.3624 22.8509 -17.9049
-71.3624 17.6085 30.3434
-71.3624 25.1999 41.5389
-71.3624 19.9843 -11.2751
-71.3624 -33.0767 -55.2561
-71.3624 -25.3970 44.3581
-71.3624 -17.3205 21.8173
-71.3624 -19.4712 34.6993
-71.3624 5.9594 -50.4489
-71.3624 -2.5677 -31.9770
-71.3624 9.8868 -34.8280
-71.3624 6.8689 -50.1696
-71.3624 15.9683 -46.1692
-71.3624 19.3084 -21.3526
-71.3624 28.2368 19.7256
-71.3624 -26.6683 53.9864
-71.3624 19.3665 -21.9735
-71.3624 -5.7377 -22.7552
-71.3624 2.8960 31.7887
-71.3624 20.5151 -51.1416
-71.3624 0.3179 8.6786
-71.3624 -7.4773 31.1047
-71.3624 6.7216 -0.8829
-71.3624 -31.9331 2.9494
-71.3624 -3.2092 -25.8801
-71.3624 -2.3262 -37.1327
-71.3624 32.4317 -46.4964
-71.3624 -13.0984 1.9449
-71.3624 31.1828 16.2433
-71.3624 -23.2201 -16.1438
-71.3624 15.8554 29.3882
-71.3624 -13.4545 -42.5942
-71.3624 5.7857 -14.0162
-71.3624 -22.5021 8.5944
-71.3624 -3.5253 54.0114
-71.3624 21.9181 30.2888
71.1930 33.2330 6.1465
16.1540 33.2330 35.7088
30.1750 33.2330 36.1557
-41.3660 33.2330 -29.5401
-67.1062 33.2330 10.8907
-11.9644 33.2330 -31.1994
-51.3465 33.2330 23.3390
-47.5167 33.2330 48.0594
-5.9409 33.2330 10.0129
36.4181 33.2330 -55.9991
17.2629 33.2330 -36.8835
50.2717 33.2330 32.4937
58.9992 33.2330 0.0781
23.7042 33.2330 12.3468
-30.9184 33.2330 -39.2326
-50.9186 33.2330 29.8053
-20.1865 33.2330 -44.3916
34.1442 33.2330 37.4250
-12.1265 33.2330 -0.2127
60.6189 33.2330 -50.9801
19.1580 33.2330 -33.1859
-22.7760 33.2330 -14.7215
-28.8468 33.2330 -41.8535
43.7424 33.2330 2.7466
67.2351 33.2330 -48.0668
-54.2528 33.2330 -18.4924
-31.8574 33.2330 -15.8436
19.9578 33.2330 -49.2235
37.7677 33.2330 53.3105
-30.9025 33.2330 -44.1131
-10.9456 33.2330 -15.5276
-2.3395 33.2330 41.2943
-46.1491 33.2330 33.8849
8.7394 33.2330 -36.0282
39.7810 33.2330 -34.8650
32.0882 33.2330 42.1178
38.7673 33.2330 -30.7748
60.2884 33.2330 -35.7315
8.7558 33.2330 -45.7029
46.7279 33.2330 -1.2874
47.4283 33.2330 -48.6171
16.0329 33.2330 19.9578
-15.1118 33.2330 25.6944
54.3300 33.2330 -27.4418
32.8632 33.2330 -17.7632
-42.6596 33.2330 -15.2776
-9.8416 33.2330 -4.0416
-65.8260 33.2330 -30.0729
25.1472 33.2330 -13.8681
-24.0745 33.2330 -0.1091
-16.2616 33.2330 0.9349
60.6091 33.2330 -12.6362
-1.6386 33.2330 -34.5722
-40.0658 33.2330 -10.1419
-68.2462 33.2330 -43.7190
6.7724 33.2330 13.3842
-15.5236 33.2330 22.4154
55.7081 33.2330 12.0197
-45.5772 33.2330 -14.1007
45.6182 33.2330 -49.2204
1.9729 33.2330 30.4931
66.8503 33.2330 42.5359
15.6258 33.2330 52.1113
39.5540 33.2330 -31.6979
-58.8175 33.2330 -23.3962
-7.1526 33.2330 -25.4770
-38.8880 33.2330 23.4376
41.8555 33.2330 -53.9124
-32.7132 33.2330 48.7803
-12.0686 33.2330 31.7755
59.1591 33.2330 17.5592
23.6767 33.2330 51.8697
11.1055 33.2330 12.4092
56.6241 33.2330 36.7098
-42.0916 33.2330 19.4179
-13.1089 33.2330 14.5227
39.5439 33.2330 -20.6091
16.8611 33.2330 -4.1358
-52.7034 33.2330 -34.2691
-38.5610 33.2330 5.3187
12.5190 33.2330 43.9368
-66.7368 33.2330 7.4882
-35.5171 33.2330 6.2596
-18.1546 33.2330 -19.4770
-63.4016 33.2330 -12.7452
55.0556 33.2330 40.6165
-46.5448 33.2330 -30.7081
-48.8449 33.2330 21.3128
-20.4114 33.2330 -14.9014
-59.8717 33.2330 46.8638
40.8830 33.2330 53.8886
-1.1130 33.2330 -7.2896
16.9148 33.2330 49.0083
6.4838 33.2330 20.9573
-25.6901 33.2330 27.0439
-31.7004 33.2330 -46.5509
34.9083 33.2330 39.4051
-17.5543 33.2330 21.8287
-68.0053 33.2330 -10.0493
66.1044 33.2330 45.0121
-17.0770 33.2330 -29.8899
34.9889 33.2330 21.2881
30.6913 33.2330 36.9877
-45.9506 33.2330 -14.2741
9.4124 33.2330 25.7324
30.6487 33.2330 54.3144
-9.4779 33.2330 -22.9743
-29.0398 33.2330 -26.0669
71.2472 33.2330 -39.0942
-17.6586 33.2330 15.2701
-69.9181 33.2330 37.0691
15.6275 33.2330 30.0088
-63.5778 33.2330 7.1266
19.9900 33.2330 -35.4637
-14.1049 33.2330 52.6817
70.4197 33.2330 5.5678
-25.2774 33.2330 27.9985
64.1643 33.2330 -33.0083
-44.0291 33.2330 9.6834
70.8303 33.2330 -34.3479
23.5606 33.2330 37.3784
-30.9016 33.2330 53.0877
-46.1399 33.2330 -1.9203
-62.5437 33.2330 35.6251
22.9326 33.2330 4.1477
50.2575 33.2330 -13.5162
-27.3764 33.2330 37.8154
-43.1999 33.2330 49.2892
54.4912 33.2330 3.7838
-62.5566 33.2330 -26.8455
36.9026 33.2330 -7.6693
-2.5005 33.2330 -25.0402
-21.7504 33.2330 -31.4754
27.0066 33.2330 17.4563
33.7151 33.2330 9.7527
-62.0730 33.2330 -41.3353
54.9734 33.2330 21.0903
-34.4413 33.2330 -15.0195
-23.6923 33.2330 37.1037
-45.0853 33.2330 -54.4165
53.6647 33.2330 23.3142
-18.0872 33.2330 -38.6453
34.7849 33.2330 36.0269
29.7466 33.2330 47.3194
-61.4947 33.2330 21.6985
6.6864 33.2330 -24.4406
-16.3032 33.2330 25.4742
2.4506 33.2330 49.7790
-37.6764 33.2330 -38.8253
54.9746 33.2330 4.8959
67.0892 33.2330 26.9104
46.0101 33.2330 49.2691
-53.9749 33.2330 -24.8038
-21.5923 33.2330 21.9394
-31.9503 33.2330 12.3842
11.6876 33.2330 46.1493
70.2484 33.2330 -1.5291
6.8770 33.2330 20.0818
-49.2801 33.2330 45.2451
-23.6205 33.2330 6.3181
0.4690 33.2330 19.8968
-42.0558 33.2330 -50.7504
6.0698 33.2330 40.6668
64.3217 33.2330 -14.9965
-49.5318 33.2330 -35.4624
27.4406 33.2330 -47.9511
-31.0678 33.2330 -54.0578
65.6909 33.2330 -5.6898
36.1350 33.2330 20.5170
-47.8042 33.2330 18.3778
-70.8025 33.2330 -49.8432
51.8363 -33.2330 15.3554
65.5388 -33.2330 -25.6312
67.7569 -33.2330 30.2598
37.7600 -33.2330 32.8302
-60.4634 -33.2330 -35.7769
30.3673 -33.2330 -14.6631
53.2370 -33.2330 -18.8451
6.4517 -33.2330 -49.7639
42.6948 -33.2330 15.3496
-8.5054 -33.2330 55.8960
-32.5840 -33.2330 -12.9196
27.0446 -33.2330 -29.5488
-57.5346 -33.2330 -44.0296
-16.5673 -33.2330 -20.7092
-21.0983 -33.2330 -40.4889
43.7982 -33.2330 42.8152
-15.5123 -33.2330 38.6222
-1.4066 -33.2330 29.0778
-31.8782 -33.2330 -17.4005
-69.9428 -33.2330 23.7323
-17.5127 -33.2330 -49.1916
-7.8882 -33.2330 -49.2912
-21.8888 -33.2330 -47.4241
41.7132 -33.2330 -31.0328
-5.5008 -33.2330 39.8136
32.3432 -33.2330 34.5118
36.9851 -33.2330 -24.0149
-58.3461 -33.2330 -34.6150
-2.4339 -33.2330 -0.7878
57.7208 -33.2330 -9.5163
-35.6949 -33.2330 -26.8507
36.4104 -33.2330 -28.3532
-29.4332 -33.2330 -11.8819
-58.9174 -33.2330 -34.0179
65.9317 -33.2330 -15.3783
-47.3523 -33.2330 52.2558
-64.3815 -33.2330 34.0514
3.6697 -33.2330 34.3257
-13.6438 -33.2330 -53.5995
1.7537 -33.2330 47.0186
6.8208 -33.2330 34.7195
-21.3083 -33.2330 23.7464
-21.7231 -33.2330 -48.3942
45.3686 -33.2330 -47.8122
-20.4597 -33.2330 55.6710
-15.4448 -33.2330 -48.9449
19.7846 -33.2330 -6.1248
29.2371 -33.2330 -26.6759
8.6284 -33.2330 22.5665
8.0404 -33.2330 -22.1723
-16.9616 -33.2330 46.6100
-1.8591 -33.2330 -43.5175
-24.9427 -33.2330 -45.2364
-15.2472 -33.2330 -51.9927
-66.9064 -33.2330 -27.5924
-26.7536 -33.2330 -40.4668
19.4339 -33.2330 -42.9453
45.0114 -33.2330 15.4925
46.5672 -33.2330 -0.2700
60.8675 -33.2330 -30.5605
26.4953 -33.2330 15.0780
-13.7201 -33.2330 -9.6714
27.5473 -33.2330 28.7808
0.8072 -33.2330 -53.7520
-22.1372 -33.2330 -26.2829
-60.3179 -33.2330 -22.5650
-54.8155 -33.2330 -15.6901
8.1058 -33.2330 21.4200
41.3311 -33.2330 32.1692
-26.9567 -33.2330 -32.3874
65.6209 -33.2330 -19.3179
-70.4929 -33.2330 -13.6563
-23.8882 -33.2330 46.9063
-30.5728 -33.2330 15.4752
42.1790 -33.2330 25.8067
-41.1551 -33.2330 14.7421
40.7476 -33.2330 -22.0949
-28.7812 -33.2330 -30.6208
41.5247 -33.2330 -15.7422
49.5853 -33.2330 -8.3811
4.0279 -33.2330 -2.9275
55.3895 -33.2330 -12.1084
-70.2145 -33.2330 -50.4684
-36.2926 -33.2330 -48.7109
56.9596 -33.2330 20.1354
-0.2298 -33.2330 9.9441
-60.8017 -33.2330 43.8481
23.3002 -33.2330 34.4781
-32.9573 -33.2330 -52.2355
64.3941 -33.2330 19.5299
69.6743 -33.2330 -11.2067
-6.7068 -33.2330 -47.5435
25.4001 -33.2330 32.1719
55.4439 -33.2330 39.4370
59.8899 -33.2330 -9.1951
-54.5784 -33.2330 -38.1593
-59.8883 -33.2330 11.6535
34.0461 -33.2330 -39.4602
-39.8707 -33.2330 -47.6034
3.8961 -33.2330 -39.4872
13.2235 -33.2330 38.6067
-44.7549 -33.2330 -17.5650
31.3844 -33.2330 -24.3952
-2.5058 -33.2330 -30.1105
13.6580 -33.2330 54.3958
-34.2807 -33.2330 46.8564
-21.2514 -33.2330 -55.0106
-50.1576 -33.2330 -38.8275
-55.0357 -33.2330 -34.8401
20.2938 -33.2330 -19.2114
-3.8694 -33.2330 17.3715
37.6437 -33.2330 -20.1261
29.6009 -33.2330 45.9829
17.9623 -33.2330 40.1521
46.1541 -33.2330 -53.0829
11.0984 -33.2330 35.3980
-20.1277 -33.2330 -28.8397
55.6131 -33.2330 50.9023
-17.3521 -33.2330 39.8773
-16.1942 -33.2330 23.6000
-31.0227 -33.2330 32.5878
26.4860 -33.2330 -1.7365
24.7866 -33.2330 -7.5100
-16.4198 -33.2330 14.1709
50.3192 -33.2330 -33.3328
32.5760 -33.2330 41.9415
-65.2679 -33.2330 32.3579
-0.5775 -33.2330 33.5168
-22.4607 -33.2330 -46.1189
59.4366 -33.2330 -8.0543
-36.9705 -33.2330 25.4242
11.2837 -33.2330 -43.6189
-32.0225 -33.2330 55.5920
65.4792 -33.2330 31.2082
-36.5436 -33.2330 -30.0644
-13.7221 -33.2330 51.4945
-42.5312 -33.2330 -17.7323
60.4725 -33.2330 51.5110
68.8979 -33.2330 -4.6160
-22.0486 -33.2330 12.3330
-31.9024 -33.2330 -51.7562
-23.4061 -33.2330 -35.9759
-22.7513 -33.2330 52.3234
62.3647 -33.2330 -37.7343
55.9669 -33.2330 -31.3952
-66.5861 -33.2330 -49.1586
-20.8311 -33.2330 19.7256
31.9508 -33.2330 52.5908
8.5187 -33.2330 40.2277
59.5964 -33.2330 -5.5462
-11.3517 -33.2330 24.8455
27.7650 -33.2330 -45.1857
40.4398 -33.2330 -16.3048
1.1786 -33.2330 51.7899
-60.3868 -33.2330 -53.6953
-68.9971 -33.2330 -4.0582
69.5641 -33.2330 26.9105
-15.9881 -33.2330 -53.1620
-62.5346 -33.2330 -10.3195
69.6006 -33.2330 -20.2930
61.8394 -33.2330 -9.1889
15.2331 -33.2330 45.6239
53.6391 -33.2330 -41.9431
60.1970 -33.2330 34.8797
46.9079 -33.2330 -49.1685
34.8040 -33.2330 -51.2093
-1.7244 -33.2330 8.8051
-30.4736 -33.2330 -13.3981
50.6298 -33.2330 30.7740
55.8138 -33.2330 -28.1297
18.2637 -33.2330 1.9649
40.8554 23.0212 56.4973
33.5762 -1.8971 56.4973
-43.1977 -24.9198 56.4973
-65.5688 16.5467 56.4973
30.1175 15.3077 56.4973
-16.6286 3.6693 56.4973
-36.4038 8.0905 56.4973
24.8077 11.5961 56.4973
4.9196 10.0854 56.4973
-60.0788 17.2190 56.4973
24.8308 7.1383 56.4973
-49.1716 18.3359 56.4973
38.2861 10.6025 56.4973
-61.9007 -28.7388 56.4973
6.6092 -17.0499 56.4973
-64.7259 21.8406 56.4973
68.8526 31.5158 56.4973
57.7920 21.5222 56.4973
67.4640 -23.4957 56.4973
-15.0928 32.5832 56.4973
-9.4562 -1.3906 56.4973
3.9009 -27.8962 56.4973
-51.9870 -9.7755 56.4973
51.9038 1.6420 56.4973
19.5530 25.0923 56.4973
-27.6416 8.4434 56.4973
-0.3433 12.0146 56.4973
25.4577 15.5630 56.4973
13.2954 -19.8663 56.4973
-26.9462 -28.3805 56.4973
-70.8749 -29.8281 56.4973
33.6915 -18.8623 56.4973
53.0628 -0.2460 56.4973
-7.9422 11.0379 56.4973
-11.3910 -32.7422 56.4973
-36.0153 -4.8657 56.4973
-19.0705 -5.5035 56.4973
-38.1721 -26.9218 56.4973
-7.6765 -0.5837 56.4973
60.3773 -24.8281 56.4973
-67.2295 30.1316 56.4973
-59.5806 -16.6284 56.4973
-25.8669 13.1371 56.4973
61.3742 -13.7306 56.4973
-6.0782 -3.2695 56.4973
-60.2890 -16.9407 56.4973
-22.3272 -20.6128 56.4973
62.6806 -3.2171 56.4973
-52.8935 -24.2981 56.4973
35.8914 -1.6635 56.4973
-38.8585 12.3168 56.4973
-13.9444 6.4726 56.4973
9.7479 -0.1611 56.4973
-20.6537 27.3745 56.4973
-38.9098 32.0613 56.4973
14.6501 5.7979 56.4973
8.3537 -4.6786 56.4973
10.5309 -33.1465 56.4973
70.2893 20.6102 56.4973
62.4379 8.7242 56.4973
-39.2871 -29.2346 56.4973
24.8930 -6.3541 56.4973
51.2981 -23.2607 56.4973
-48.4101 -31.9938 56.4973
57.9388 32.2973 56.4973
19.5331 -32.9349 56.4973
-36.2593 3.5372 56.4973
62.0437 11.2114 56.4973
-11.7813 -6.4557 56.4973
-13.7313 11.9639 56.4973
-20.1835 -15.3640 56.4973
-23.3438 28.0764 56.4973
-56.8397 -12.7181 56.4973
45.6711 -29.2585 56.4973
-38.8369 22.6681 56.4973
-2.7186 0.5133 56.4973
-35.5918 31.2158 56.4973
19.8873 17.0620 56.4973
-1.3785 -25.5620 56.4973
26.8435 11.7504 56.4973
-2.5733 -10.8666 56.4973
-38.9044 -0.4703 56.4973
-2.5810 18.5604 56.4973
-41.3326 20.5236 56.4973
32.1825 -32.3703 56.4973
-54.6244 -1.1555 56.4973
62.2383 -11.8144 56.4973
-20.7788 -29.4142 56.4973
65.8173 24.0304 56.4973
-31.6554 29.8122 56.4973
-53.6387 30.7106 56.4973
35.7393 7.1789 56.4973
-46.1257 -0.9542 56.4973
71.1565 -22.6846 56.4973
10.0928 -16.2390 56.4973
-24.0319 -27.4893 56.4973
70.6121 31.5754 56.4973
61.6968 -1.9528 56.4973
-45.1363 31.6126 56.4973
36.3586 -27.7801 56.4973
60.1816 18.8195 56.4973
-16.2696 -17.9459 56.4973
48.8432 18.7066 56.4973
65.2770 -9.0554 56.4973
37.1145 10.9066 56.4973
13.7325 4.1481 56.4973
10.6985 -14.5510 56.4973
35.6398 -14.3447 56.4973
31.3196 -13.0332 56.4973
56.2820 -8.5029 56.4973
-7.5892 -15.5891 56.4973
-8.2105 22.7907 56.4973
-38.9681 3.6136 56.4973
-39.9825 7.5189 56.4973
57.2344 -6.8700 56.4973
6.9369 12.9650 56.4973
-56.1265 -2.9165 56.4973
-23.2411 19.2115 56.4973
45.2633 23.3441 56.4973
-67.4010 28.9466 56.4973
30.6080 -26.8862 56.4973
-45.3547 -33.2200 56.4973
-45.1608 -14.7116 56.4973
-56.2455 -23.3254 56.4973
-55.4048 12.4549 56.4973
-10.9201 19.0270 56.4973
-0.4290 -21.6187 56.4973
-28.1252 -18.5415 56.4973
27.5115 -13.0884 56.4973
-7.3417 -32.6334 56.4973
7.5485 8.8528 56.4973
-28.9202 16.4921 56.4973
32.5328 27.2651 56.4973
-22.6802 -32.5387 56.4973
-10.3547 1.3214 56.4973
-40.0426 -27.9885 56.4973
66.9282 -8.9494 56.4973
39.3765 -9.9784 56.4973
-15.9516 24.8511 56.4973
-51.4364 23.9031 56.4973
-44.9240 23.6739 56.4973
-33.3785 27.3129 56.4973
-25.6762 -30.6964 56.4973
14.5649 -7.9142 56.4973
-57.8989 -30.7308 56.4973
-19.3082 25.4828 56.4973
27.4423 -11.4553 56.4973
-63.5181 16.6156 56.4973
59.5284 7.6166 56.4973
-18.0166 -3.3296 56.4973
22.1951 -6.6328 56.4973
-5.4923 7.9547 56.4973
37.5242 20.7635 56.4973
-27.6997 -11.3301 56.4973
10.8519 -15.1752 56.4973
55.5506 -13.1884 56.4973
61.5108 -15.8739 56.4973
-0.6070 20.8909 56.4973
-57.5568 -24.7812 56.4973
-69.6275 32.7041 56.4973
58.3442 19.1463 56.4973
26.9202 12.2241 56.4973
-56.6394 -32.8544 56.4973
52.9963 -25.4344 56.4973
25.6924 -17.7183 56.4973
-71.2552 -24.0893 56.4973
14.2443 -19.7492 56.4973
-58.6863 20.5272 56.4973
39.1945 -21.6311 56.4973
-62.9333 -19.8259 56.4973
-39.7123 15.6300 -56.4973
-9.9644 -24.8051 -56.4973
-24.1944 -3.9631 -56.4973
5.9233 -10.3770 -56.4973
-41.1725 16.2905 -56.4973
-13.2224 32.1816 -56.4973
55.2786 -22.5201 -56.4973
-64.6334 -13.2407 -56.4973
-36.5568 0.5960 -56.4973
22.5428 0.5342 -56.4973
-42.4324 6.9688 -56.4973
41.2842 -4.7081 -56.4973
30.1018 30.6390 -56.4973
65.9720 31.2109 -56.4973
35.3956 33.0795 -56.4973
33.1225 -17.7248 -56.4973
-16.2119 4.9410 -56.4973
60.7099 -9.4334 -56.4973
-68.1705 15.9719 -56.4973
15.7577 5.8975 -56.4973
-29.9304 -26.1956 -56.4973
-16.9165 4.3297 -56.4973
27.6954 -11.6958 -56.4973
30.2181 29.6237 -56.4973
44.4145 -28.7761 -56.4973
-48.9756 -24.2164 -56.4973
32.6381 20.9981 -56.4973
-58.6434 23.3433 -56.4973
-37.5447 -21.6111 -56.4973
-0.7792 28.8125 -56.4973
25.0607 11.7654 -56.4973
13.7878 26.4932 -56.4973
-58.5973 -21.1038 -56.4973
-34.7361 -4.0889 -56.4973
33.7985 9.1936 -56.4973
16.7814 -28.9935 -56.4973
4.3764 31.8668 -56.4973
-1.4784 -8.5798 -56.4973
9.9479 -15.3854 -56.4973
22.2228 31.0761 -56.4973
31.8148 31.9583 -56.4973
19.1681 26.6565 -56.4973
-21.3348 -3.8363 -56.4973
57.6508 -0.0205 -56.4973
46.6452 12.3470 -56.4973
-12.2418 9.9689 -56.4973
12.4174 -18.2266 -56.4973
19.6105 -26.1755 -56.4973
34.9316 -33.1704 -56.4973
-29.5615 18.6861 -56.4973
-48.7964 30.8827 -56.4973
-24.4585 -6.2433 -56.4973
-4.2888 0.4365 -56.4973
34.1193 19.3454 -56.4973
-68.4641 7.5851 -56.4973
-53.9554 8.8962 -56.4973
-37.0835 28.9460 -56.4973
42.0588 32.8693 -56.4973
-55.5174 -18.8533 -56.4973
-60.7724 -31.9848 -56.4973
54.9958 25.8983 -56.4973
11.2215 1.4739 -56.4973
30.5533 23.4874 -56.4973
20.5824 -7.4696 -56.4973
-4.3175 -5.3916 -56.4973
22.4699 -26.6699 -56.4973
36.1643 9.5615 -56.4973
9.6323 14.4152 -56.4973
47.1743 -30.0576 -56.4973
47.3270 10.6768 -56.4973
1.4877 -29.6926 -56.4973
-28.0156 -31.1002 -56.4973
45.4436 6.8197 -56.4973
-1.6773 2.7672 -56.4973
-30.0588 -28.9054 -56.4973
-53.4493 7.1095 -56.4973
19.8504 -13.5629 -56.4973
36.5519 19.9511 -56.4973
-70.4560 -16.8653 -56.4973
20.7084 18.3264 -56.4973
-5.5915 -8.7332 -56.4973
50.5719 28.4001 -56.4973
14.5366 0.3108 -56.4973
46.4313 -5.7284 -56.4973
-60.1676 -12.7108 -56.4973
-8.0155 12.7029 -56.4973
27.1685 -32.1661 -56.4973
-7.1994 15.1169 -56.4973
57.3417 -23.8209 -56.4973
26.9861 15.4223 -56.4973
71.1407 10.1560 -56.4973
-29.1752 24.6574 -56.4973
-49.4258 29.6268 -56.4973
23.9056 26.8060 -56.4973
56.6785 19.5062 -56.4973
-49.4971 10.7461 -56.4973
-19.9612 21.8238 -56.4973
1.2344 -20.5519 -56.4973
-43.0298 -9.8157 -56.4973
-46.9712 18.4558 -56.4973
19.2895 16.6798 -56.4973
33.1906 -9.9860 -56.4973
2.2806 23.6201 -56.4973
-1.3829 -31.6837 -56.4973
48.7770 32.9838 -56.4973
52.6250 -10.2091 -56.4973
-4.1803 -24.6122 -56.4973
25.2332 14.1979 -56.4973
43.2734 26.4149 -56.4973
-60.2371 3.9521 -56.4973
9.0178 -10.7425 -56.4973
-69.9827 -26.0791 -56.4973
53.0784 -7.9191 -56.4973
-38.2201 22.3109 -56.4973
39.6124 4.8380 -56.4973
44.0753 3.6098 -56.4973
54.8103 1.9130 -56.4973
-64.2452 21.9709 -56.4973
-9.5342 -19.0533 -56.4973
2.0261 23.3672 -56.4973
-61.4818 -27.3179 -56.4973
3.3707 -9.7409 -56.4973
-57.5310 11.9572 -56.4973
33.6578 -8.7446 -56.4973
-32.8983 15.6059 -56.4973
-28.7061 10.8838 -56.4973
-14.1018 -6.8123 -56.4973
61.6035 8.8849 -56.4973
-30.5046 -28.6980 -56.4973
4.2946 -24.2400 -56.4973
-35.3403 -19.7462 -56.4973
36.6445 -11.9048 -56.4973
-55.6852 -22.2368 -56.4973
-64.6259 21.1830 -56.4973
-14.7830 22.1861 -56.4973
53.7911 -28.2049 -56.4973
24.2480 -23.7971 -56.4973
71.1347 4.4408 -56.4973
-13.1358 -12.7217 -56.4973
6.1175 -27.5206 -56.4973
-6.3811 -22.3225 -56.4973
-46.9010 29.8072 -56.4973
61.3664 9.0920 -56.4973
71.2653 -31.2191 -56.4973
-12.0675 14.5550 -56.4973
15.6613 27.2352 -56.4973
-30.9122 -31.1407 -56.4973
47.9612 20.7022 -56.4973
-22.6681 20.4540 -56.4973
-13.7474 -20.1663 -56.4973
42.0849 3.7055 -56.4973
-5.8059 -26.7988 -56.4973
43.0514 -28.0992 -56.4973
27.3543 26.7981 -56.4973
14.9127 17.0594 -56.4973
43.9362 13.4871 -56.4973
-6.8765 -21.4944 -56.4973
-35.8348 28.8756 -56.4973
62.5579 -1.5646 -56.4973
60.2258 19.2368 -56.4973
56.3544 -10.9422 -56.4973
-23.0779 -24.4948 -56.4973
35.0404 30.8210 -56.4973
-5.8196 8.9591 -56.4973
-2.2746 -9.3663 -56.4973
24.5699 -5.7400 -56.4973
44.4723 16.4774 -56.4973
2.3970 -30.5861 -56.4973
-21.1366 0.3426 -56.4973
47.6301 -31.7084 -56.4973
