ply
format ascii 1.0
element vertex 1024
property float x
property float y
property float z
end_header
69.0546 -19.8802 -60.9795
69.0546 -63.9256 -60.1952
69.0546 60.9814 7.6632
69.0546 38.6156 0.8303
69.0546 43.8404 10.8207
69.0546 6.6608 36.0068
69.0546 -77.2365 47.1455
69.0546 58.9135 -13.0822
69.0546 -5.7716 61.5687
69.0546 57.9228 31.8895
69.0546 5.4278 43.3189
69.0546 48.4185 0.5512
69.0546 -14.8635 -25.5665
69.0546 23.4544 -62.2124
69.0546 -27.8972 37.4269
69.0546 34.8835 -38.1875
69.0546 31.8006 5.9683
69.0546 -92.4852 -37.6303
69.0546 -15.8049 -64.7138
69.0546 39.1194 -36.9670
69.0546 -52.8335 -52.8028
69.0546 -32.9648 61.8420
69.0546 11.4486 30.9768
69.0546 6.9691 -24.4735
69.0546 72.1021 67.4638
69.0546 -43.5327 66.2660
69.0546 -63.9633 -68.3483
69.0546 -13.4484 31.3529
69.0546 -26.5241 38.5225
69.0546 43.8068 45.0082
69.0546 72.8060 40.6689
69.0546 -47.7901 -10.3385
69.0546 -25.1420 -41.2701
69.0546 -54.8535 -69.8970
69.0546 -40.0931 49.3584
69.0546 -50.5731 -47.6468
69.0546 30.5729 18.1190
69.0546 50.1942 -65.1101
69.0546 -43.6157 -53.5712
69.0546 83.1782 3.1585
69.0546 -42.7116 53.1553
69.0546 -32.4108 21.8416
69.0546 -86.9319 6.9526
69.0546 -22.1149 45.6319
69.0546 -81.4568 13.9917
69.0546 -94.7246 -25.8653
69.0546 88.0295 -58.1384
69.0546 -27.6584 48.8688
69.0546 -74.6472 64.6576
69.0546 42.7421 -42.0981
69.0546 5.5154 -41.3970
69.0546 95.3311 36.1781
69.0546 -8.6854 27.1545
69.0546 47.8632 -34.4780
69.0546 3.9618 6.1654
69.0546 53.9740 67.5642
69.0546 12.7809 -51.7507
69.0546 65.2879 -69.4860
69.0546 44.6294 -2.7655
69.0546 -39.8113 -69.5839
69.0546 69.9304 -70.4561
69.0546 -31.4512 43.6801
69.0546 38.4406 -69.6196
69.0546 -4.8225 16.6456
69.0546 35.6684 -67.8815
69.0546 67.8580 44.7347
69.0546 -33.3970 2.4959
69.0546 12.1136 -44.8826
69.0546 -74.7395 15.7815
69.0546 26.0742 14.2638
69.0546 -57.2074 22.1375
69.0546 -78.7506 -57.6247
69.0546 -17.6602 -12.8818
69.0546 -39.4354 40.2134
69.0546 15.7422 -31.1046
69.0546 30.2413 -42.2636
69.0546 1.8015 15.0031
69.0546 -7.0818 -20.9515
69.0546 84.0532 4.8215
69.0546 -15.8067 -43.4619
69.0546 16.7182 10.2111
69.0546 -73.5269 -63.6218
69.0546 -38.1845 -44.7064
69.0546 -54.9698 41.4038
69.0546 80.0215 48.0691
69.0546 -17.3375 64.4458
69.0546 32.0198 -66.7816
69.0546 34.6001 -65.5539
69.0546 9.7359 11.7758
69.0546 78.3180 50.4988
69.0546 -47.0008 -23.1950
69.0546 79.5796 -40.7859
69.0546 -10.5823 9.3963
69.0546 84.6113 70.7912
69.0546 -69.9158 -43.8438
69.0546 39.0015 -37.1179
69.0546 -41.3897 9.4370
69.0546 -77.4672 39.6047
69.0546 -27.5483 37.3552
69.0546 -89.7627 56.5430
69.0546 -77.1970 -4.6181
69.0546 43.3680 24.7564
69.0546 -67.4335 44.6603
69.0546 67.4157 10.0769
69.0546 -42.3222 -66.7635
69.0546 53.9970 -33.1208
69.0546 -63.3610 -11.8367
69.0546 68.1627 31.2800
69.0546 94.0251 36.1567
69.0546 -50.8762 11.1452
69.0546 -73.6621 -3.0353
69.0546 -94.6745 -16.5750
69.0546 -89.7924 -59.3958
69.0546 -37.7918 1.0634
69.0546 -18.7133 -4.1448
69.0546 90.8392 -12.3216
69.0546 -19.9651 -26.1557
69.0546 35.1299 -66.8978
69.0546 -41.5685 -41.1874
69.0546 74.4161 -63.4021
69.0546 19.5132 -21.7951
69.0546 29.2627 8.1539
69.0546 -83.7373 -5.3243
69.0546 -58.3295 -26.7928
69.0546 74.0343 -63.8424
69.0546 47.2910 -1.8523
69.0546 -8.6515 9.3826
69.0546 72.0624 -9.8531
69.0546 -66.0103 -69.7941
69.0546 -5.5765 65.6317
69.0546 -28.7543 57.5011
69.0546 -27.6902 18.7059
69.0546 -41.2045 32.3773
69.0546 84.1286 -9.3908
69.0546 -23.7105 27.9648
69.0546 67.9077 1.6587
69.0546 -85.6952 3.5245
69.0546 57.7118 17.2432
69.0546 -47.4575 -2.5856
69.0546 -40.0127 -0.1276
69.0546 -15.0880 70.5830
69.0546 -73.7201 48.6634
69.0546 -21.7557 -69.9550
69.0546 -52.3103 35.4417
69.0546 47.0109 -43.9103
69.0546 31.3292 54.3139
69.0546 46.5817 -64.4118
69.0546 -57.8272 0.7598
69.0546 85.9708 14.0252
69.0546 -42.9584 -8.0032
69.0546 22.9712 -24.9278
69.0546 -49.6719 62.2288
69.0546 57.0525 -25.1551
69.0546 -50.9050 29.7811
69.0546 -69.3169 15.5081
69.0546 -35.9574 -65.6598
69.0546 90.7678 -41.7078
69.0546 -18.3727 -62.6619
69.0546 19.8176 52.9776
69.0546 13.9434 42.9663
69.0546 21.6933 -70.5909
69.0546 -82.3240 60.6062
69.0546 34.7033 66.7199
69.0546 -21.3984 -61.3923
69.0546 86.6252 -12.9143
69.0546 69.6641 21.7238
69.0546 52.6876 46.2690
69.0546 86.0689 12.5852
69.0546 -75.5412 -55.9706
69.0546 34.0971 -4.1525
69.0546 93.5407 -21.0308
-69.0546 -10.6746 -59.6637
-69.0546 -43.8709 50.5955
-69.0546 -80.3921 0.8482
-69.0546 -83.1304 -36.5543
-69.0546 -42.9396 -6.4447
-69.0546 -86.8006 -13.5040
-69.0546 94.5742 -17.8374
-69.0546 -73.8075 -19.3279
-69.0546 0.9349 -12.7682
-69.0546 -37.1801 -21.2660
-69.0546 13.1829 -64.1821
-69.0546 57.6982 -26.2813
-69.0546 70.8041 -46.8930
-69.0546 -74.0715 59.5236
-69.0546 43.5050 69.0194
-69.0546 -57.5211 45.5865
-69.0546 -25.1239 25.2894
-69.0546 37.1587 58.8105
-69.0546 -42.1005 -26.9743
-69.0546 -8.6831 -69.8519
-69.0546 27.0688 -9.4079
-69.0546 -63.6237 18.6326
-69.0546 13.4658 7.5716
-69.0546 72.9669 -10.6746
-69.0546 66.9880 -7.8667
-69.0546 19.0233 -16.0446
-69.0546 30.4734 5.6524
-69.0546 -84.2397 45.2106
-69.0546 -85.7198 60.1572
-69.0546 91.7247 14.2438
-69.0546 -18.7926 8.0040
-69.0546 2.5390 -22.0872
-69.0546 78.0503 -24.0471
-69.0546 -62.1391 -42.3861
-69.0546 -39.5183 18.8473
-69.0546 86.6531 -29.3430
-69.0546 48.9431 66.4756
-69.0546 -13.0104 -20.8612
-69.0546 52.9911 11.6891
-69.0546 20.6121 54.6176
-69.0546 -22.4226 21.9028
-69.0546 32.3666 27.1820
-69.0546 6.5808 -8.1617
-69.0546 41.8615 21.3976
-69.0546 -81.3255 -43.3921
-69.0546 66.0841 -12.1337
-69.0546 -39.6437 18.9612
-69.0546 -14.0318 29.9013
-69.0546 -94.0663 -68.5953
-69.0546 76.8695 10.1565
-69.0546 -52.0376 -32.3832
-69.0546 -84.5241 40.8415
-69.0546 75.2240 29.0620
-69.0546 79.3492 -12.7517
-69.0546 -2.4885 -61.2107
-69.0546 -88.1840 34.2500
-69.0546 66.2788 -27.3488
-69.0546 -50.4159 -14.3814
-69.0546 35.1675 54.3253
-69.0546 67.4065 -32.7896
-69.0546 -77.4251 71.1129
-69.0546 58.2779 16.7708
-69.0546 80.8123 -55.4723
-69.0546 -50.6703 -22.6069
-69.0546 -51.2394 -20.0415
-69.0546 -47.2510 -27.5586
-69.0546 62.0650 25.7088
-69.0546 -13.9203 18.9238
-69.0546 -8.3744 26.0002
-69.0546 37.5271 -7.5040
-69.0546 54.4723 -5.0607
-69.0546 -35.0836 68.6935
-69.0546 -2.2086 -13.7677
-69.0546 -41.9091 27.3844
-69.0546 4.2265 38.0452
-69.0546 86.6157 71.0430
-69.0546 2.0480 19.7727
-69.0546 -15.4503 -57.8951
-69.0546 -35.7321 2.1444
-69.0546 77.7714 -18.6343
-69.0546 -51.7340 -68.9208
-69.0546 -93.8617 51.7007
-69.0546 2.1968 -52.7091
-69.0546 37.6641 16.9335
-69.0546 90.7933 -49.7969
-69.0546 -50.5852 -35.9378
-69.0546 75.5499 -66.5454
-69.0546 16.2714 71.4892
-69.0546 16.3556 -27.1449
-69.0546 -28.9238 57.7720
-69.0546 -72.1623 -67.3901
-69.0546 -46.1899 -30.2529
-69.0546 82.1760 23.8942
-69.0546 56.9643 2.8435
-69.0546 78.0427 41.2195
-69.0546 26.4217 -20.1524
-69.0546 28.3333 7.2196
-69.0546 -3.4205 44.0468
-69.0546 -66.6342 34.6228
-69.0546 -57.8705 68.4250
-69.0546 22.5307 55.4146
-69.0546 -39.6566 65.7072
-69.0546 -7.8901 10.4175
-69.0546 52.6449 -42.9463
-69.0546 -93.2389 -34.0548
-69.0546 53.1096 -58.2853
-69.0546 -52.0578 52.7702
-69.0546 78.2736 -49.8145
-69.0546 51.9518 -44.5610
-69.0546 76.5595 20.4542
-69.0546 89.7429 -0.7094
-69.0546 -12.0394 -66.5185
-69.0546 -61.7019 -28.6361
-69.0546 89.6565 -27.2677
-69.0546 43.4432 63.8650
-69.0546 11.9405 50.1384
-69.0546 -57.2390 -15.0017
-69.0546 -19.3050 47.4428
-69.0546 76.2307 -26.2609
-69.0546 33.3341 9.2083
-69.0546 -85.4420 58.5546
-69.0546 -31.9144 68.7926
-69.0546 23.6551 52.0882
-69.0546 21.7335 23.1450
-69.0546 43.1882 -63.5288
-69.0546 18.5474 -17.6113
-69.0546 -68.1571 -62.7940
-69.0546 8.1683 32.3887
-69.0546 2.9433 26.4899
-69.0546 -74.0561 41.2782
-69.0546 88.5476 2.2630
-69.0546 59.0370 19.0778
-69.0546 5.0602 -20.6696
-69.0546 -58.7394 45.1922
-69.0546 -89.7670 21.8927
-69.0546 -41.8570 71.2025
-69.0546 23.5638 54.7340
-69.0546 -6.7155 -17.8728
-69.0546 3.2364 -58.4360
-69.0546 36.4051 -39.0023
-69.0546 -76.0062 69.0094
-69.0546 68.4986 41.2825
-69.0546 84.3782 -38.4262
-69.0546 -15.2496 -43.8490
-69.0546 39.2171 -42.2889
-69.0546 -43.6947 -34.2039
-69.0546 92.0951 54.8542
-69.0546 -62.1189 33.9385
-69.0546 -60.5459 -29.9043
-69.0546 65.4978 65.8828
-69.0546 56.5498 -65.6374
-69.0546 -19.8272 17.1635
-69.0546 -83.8256 38.6238
-69.0546 -19.1684 -4.9311
-69.0546 79.5155 -41.7059
-69.0546 91.4021 41.7179
-69.0546 -64.9495 -9.0912
-69.0546 -21.0882 55.5267
-69.0546 15.6005 13.5932
-69.0546 70.8491 34.9740
-69.0546 -47.4813 -65.3446
-69.0546 -67.8441 24.3761
-69.0546 -72.8577 -68.7773
-69.0546 15.9535 14.0252
-69.0546 14.3799 56.7447
-69.0546 -88.0873 -66.1079
-69.0546 57.0307 55.4991
-69.0546 10.5748 -25.2659
-69.0546 49.9254 16.4529
-69.0546 -90.5384 -23.8976
-69.0546 -92.6217 47.5299
-53.5312 95.5167 23.4319
-51.8563 95.5167 0.6643
-44.6852 95.5167 -10.5516
11.5963 95.5167 -49.0506
-52.6488 95.5167 -9.6651
-12.2167 95.5167 24.6258
1.4161 95.5167 41.6879
21.0541 95.5167 -21.5245
-20.4236 95.5167 45.9029
-52.7896 95.5167 -12.3613
4.2853 95.5167 17.0916
-68.2043 95.5167 -33.5019
53.3621 95.5167 30.7142
63.2619 95.5167 70.4318
-29.1645 95.5167 -21.6956
41.6924 95.5167 -3.9393
-6.3934 95.5167 20.8524
-43.1097 95.5167 34.2676
68.4051 95.5167 25.6632
-11.4597 95.5167 51.2021
-7.1695 95.5167 -23.9259
41.7192 95.5167 -37.3322
-49.6360 95.5167 -28.8400
7.8447 95.5167 -33.4158
-55.8841 95.5167 -66.3124
-28.4577 95.5167 -4.1127
63.8383 95.5167 52.2947
14.4036 95.5167 10.1931
-5.8079 95.5167 55.4816
-22.5735 95.5167 50.5357
44.9478 95.5167 30.4964
43.1475 95.5167 -44.8688
-33.4878 95.5167 -55.6997
-1.2167 95.5167 26.2238
67.8440 95.5167 49.4038
-44.4781 95.5167 -47.9314
-38.6835 95.5167 -8.7419
-18.2063 95.5167 20.3970
62.7443 95.5167 47.8132
40.0102 95.5167 -27.6974
63.9524 95.5167 -58.4694
65.4644 95.5167 47.8514
20.9252 95.5167 63.5529
14.0228 95.5167 57.6500
58.5194 95.5167 -2.6959
6.4107 95.5167 48.1560
-9.5529 95.5167 38.6430
58.3410 95.5167 21.1021
-20.3314 95.5167 50.8405
38.5131 95.5167 -64.9475
-39.6121 95.5167 30.3674
-23.3900 95.5167 -55.6598
-58.2526 95.5167 -57.0271
-47.5880 95.5167 -2.9174
-50.9930 95.5167 -32.8404
-18.5807 95.5167 57.8023
58.4749 95.5167 66.0011
41.4477 95.5167 -27.1952
46.7452 95.5167 62.9882
-34.2152 95.5167 48.8950
25.0377 95.5167 12.7210
-18.0901 95.5167 -20.0469
-24.7492 95.5167 19.0814
58.8726 95.5167 41.1488
-62.6031 95.5167 30.4614
22.4620 95.5167 69.3807
20.5977 95.5167 66.2134
52.7217 95.5167 2.4970
3.1164 95.5167 -43.7950
-8.5045 95.5167 25.8655
67.6403 95.5167 28.1948
-24.3652 95.5167 27.4442
49.6152 95.5167 -13.7745
58.9939 95.5167 58.9027
29.0641 95.5167 -20.6628
-13.4695 95.5167 -64.8878
54.1161 95.5167 -17.5646
21.3850 95.5167 -19.4622
12.0479 95.5167 -17.6914
45.0000 95.5167 26.9674
-63.3920 95.5167 10.1546
-13.9139 95.5167 -23.9803
11.2644 95.5167 20.4207
22.3006 95.5167 12.7564
-35.4512 95.5167 40.7349
-2.4067 95.5167 1.1626
-10.4806 95.5167 -29.2737
23.5835 95.5167 28.0385
54.3511 95.5167 -26.7928
-35.2203 95.5167 41.6926
53.8409 95.5167 -35.5557
21.5342 95.5167 67.3828
-48.7478 95.5167 -51.4603
-58.0266 95.5167 62.4574
22.7345 95.5167 24.4878
-46.2128 95.5167 -68.4389
-11.7569 95.5167 -7.1662
15.0245 95.5167 33.1391
-39.8094 95.5167 50.7016
65.3939 95.5167 58.4584
15.0804 95.5167 -64.5372
-44.5831 95.5167 44.8116
-26.8782 95.5167 68.3187
64.6020 95.5167 -28.0294
-44.1615 95.5167 26.3575
21.0717 95.5167 3.1639
-15.2040 95.5167 51.5118
-40.8071 95.5167 37.2355
-27.5208 95.5167 -52.6141
-59.7829 95.5167 4.3492
14.5192 95.5167 -17.2386
-38.7000 95.5167 -29.7546
61.9625 95.5167 41.2189
-63.4384 95.5167 68.4000
13.2431 95.5167 -50.5584
32.1636 95.5167 36.3727
-50.5620 95.5167 49.5373
-41.9080 95.5167 1.5189
-10.5170 95.5167 -33.7881
-23.4086 95.5167 4.6690
62.2388 95.5167 31.4994
-59.9577 95.5167 -22.9864
4.3497 95.5167 49.5425
-46.3677 95.5167 17.2421
-30.4601 95.5167 -70.8332
-57.4619 95.5167 -71.1065
-47.4038 95.5167 -2.1316
-49.1823 95.5167 -52.0014
-26.7804 95.5167 33.2387
31.5384 95.5167 -16.3149
56.0846 95.5167 45.3297
-53.0100 95.5167 3.9821
-18.4077 95.5167 -11.7359
-67.6932 95.5167 -28.2242
-7.0592 95.5167 -20.9053
7.9509 95.5167 37.1491
-42.4362 95.5167 68.5524
-59.8880 95.5167 -30.8513
44.8254 95.5167 -8.8726
18.1305 95.5167 -45.4436
11.1520 95.5167 64.8227
41.1846 95.5167 -53.9876
-16.3430 95.5167 20.0303
-27.2164 95.5167 -61.8046
-1.5851 95.5167 19.9235
36.1213 95.5167 17.0918
65.0200 95.5167 -53.1285
21.5642 95.5167 -22.4941
-10.1015 95.5167 -0.6273
-13.5984 95.5167 -14.3746
10.8002 95.5167 13.2047
35.6314 95.5167 61.9052
37.9553 95.5167 -58.1872
-28.7904 95.5167 70.7575
52.0057 95.5167 35.4505
-31.4771 95.5167 20.5876
-40.7697 95.5167 -17.8684
-36.7899 95.5167 -37.2466
-32.9976 95.5167 9.3254
39.4067 95.5167 58.3592
0.4468 95.5167 -24.0146
-59.4903 95.5167 8.7773
-29.4984 95.5167 65.7054
48.9097 95.5167 0.7963
-11.3841 95.5167 62.0864
-21.6033 95.5167 -31.6944
-62.4644 95.5167 -19.4653
52.6443 95.5167 58.3451
1.7034 95.5167 36.9047
60.1222 95.5167 53.9757
-25.1014 95.5167 -46.9862
48.8683 -95.5167 -9.4039
17.2633 -95.5167 61.5922
-32.8264 -95.5167 -8.0362
63.6057 -95.5167 43.2845
63.1587 -95.5167 -66.6334
59.8502 -95.5167 7.8344
-4.3119 -95.5167 -43.7292
41.4493 -95.5167 7.8194
39.6579 -95.5167 -37.9979
-26.0328 -95.5167 -15.0319
-63.6017 -95.5167 32.3166
5.6594 -95.5167 53.9715
20.5983 -95.5167 29.1034
16.7532 -95.5167 61.5930
36.2032 -95.5167 30.9939
-21.3804 -95.5167 35.9382
46.0701 -95.5167 -1.1232
-19.0519 -95.5167 -47.5210
52.6392 -95.5167 52.2909
30.6677 -95.5167 25.1968
-61.0393 -95.5167 16.3601
48.6634 -95.5167 -7.1058
12.4421 -95.5167 -70.6786
49.5223 -95.5167 -39.8705
28.7850 -95.5167 13.6734
28.4447 -95.5167 -26.7084
3.1891 -95.5167 34.1927
-7.9352 -95.5167 -42.8290
-26.9851 -95.5167 26.2169
12.3219 -95.5167 -36.5940
-8.8890 -95.5167 -11.7732
-63.1338 -95.5167 -64.0377
-4.1575 -95.5167 -23.2580
-18.8778 -95.5167 -58.5993
-2.7966 -95.5167 47.7426
-27.6261 -95.5167 -27.1349
-64.9611 -95.5167 11.8662
-67.1671 -95.5167 -67.5691
-57.8131 -95.5167 -42.4083
41.2974 -95.5167 23.9396
38.4108 -95.5167 7.3614
57.2549 -95.5167 -30.0471
64.8324 -95.5167 2.2321
-3.9422 -95.5167 -49.3416
55.5543 -95.5167 -49.4942
61.1154 -95.5167 -69.2625
29.6485 -95.5167 -6.7051
-21.0686 -95.5167 -46.2108
54.1155 -95.5167 16.3300
-25.1471 -95.5167 15.9080
-49.0015 -95.5167 -9.0644
-36.4278 -95.5167 55.0145
-31.9728 -95.5167 -63.8440
29.1338 -95.5167 32.3376
-22.0645 -95.5167 23.6379
50.8988 -95.5167 -70.2111
5.9621 -95.5167 -5.9216
-16.9598 -95.5167 -3.4024
-42.9154 -95.5167 14.6927
-38.8322 -95.5167 -60.1775
-3.3783 -95.5167 -4.0124
-50.4356 -95.5167 -46.5511
-61.3299 -95.5167 46.5316
27.0750 -95.5167 10.6111
-62.6643 -95.5167 -26.7877
-54.1206 -95.5167 -23.4896
-67.0429 -95.5167 25.8231
52.0597 -95.5167 61.8288
-16.3726 -95.5167 -55.0097
14.6842 -95.5167 -12.9310
-56.0432 -95.5167 -40.8090
-48.4523 -95.5167 57.5641
63.0412 -95.5167 -53.4573
-51.1255 -95.5167 -3.8573
-30.6773 -95.5167 41.3412
-47.8023 -95.5167 49.6951
-43.5573 -95.5167 -25.6325
66.9930 -95.5167 -42.2702
15.7437 -95.5167 14.2568
-45.6029 -95.5167 -10.0229
-48.5033 -95.5167 11.3769
11.6393 -95.5167 9.7692
13.1952 -95.5167 -32.8440
-7.4279 -95.5167 -51.4476
68.2066 -95.5167 64.0605
50.1425 -95.5167 40.7556
37.0687 -95.5167 -49.3781
-40.0459 -95.5167 12.2937
10.8597 -95.5167 49.9469
7.6537 -95.5167 44.1287
-63.1782 -95.5167 68.1051
7.9011 -95.5167 -64.4783
-34.2316 -95.5167 3.7819
12.5150 -95.5167 -32.9675
-58.6192 -95.5167 68.3369
64.4237 -95.5167 -4.9514
-64.3287 -95.5167 -68.6113
26.9874 -95.5167 -46.4921
-54.5863 -95.5167 -47.7657
8.5111 -95.5167 61.9261
14.1422 -95.5167 -14.1926
-14.8516 -95.5167 10.7363
-50.3560 -95.5167 -55.2262
-6.7337 -95.5167 31.8484
18.8732 -95.5167 26.7101
27.9460 -95.5167 45.9870
-30.9250 -95.5167 -37.1389
-20.9207 -95.5167 -5.1901
22.7441 -95.5167 -6.5004
30.0731 -95.5167 12.4157
47.3402 -95.5167 36.1950
-19.1462 -95.5167 53.0615
-66.8360 -95.5167 -38.1528
31.3748 -95.5167 18.9295
-13.7242 -95.5167 37.6097
-28.2145 -95.5167 -42.4207
-27.8978 -95.5167 19.4745
4.5130 -95.5167 -38.5851
29.7857 -95.5167 -46.1789
-62.4763 -95.5167 -27.2525
-47.5417 -95.5167 -6.8742
42.9046 -95.5167 50.4010
56.4526 -95.5167 -56.7631
-7.1111 -95.5167 -45.6492
66.1616 -95.5167 -8.8140
28.1387 -95.5167 7.2664
45.8933 -95.5167 16.4292
-62.9285 -95.5167 30.5432
21.5556 -95.5167 -29.3867
45.2440 -95.5167 -30.1492
49.4310 -95.5167 13.4795
9.2866 -95.5167 35.7849
52.3217 -95.5167 -10.1441
-20.0793 -95.5167 70.0582
-16.3423 -95.5167 -22.9420
20.7245 -95.5167 13.2575
37.4959 -95.5167 -62.6457
-39.7857 -95.5167 44.5676
-63.7163 -95.5167 31.5622
48.7043 -95.5167 21.0025
-58.6238 -95.5167 18.7290
46.4336 -95.5167 -62.7441
-27.2181 -95.5167 -6.4651
-43.7988 -95.5167 44.8836
-37.1658 -95.5167 32.8586
32.7344 -95.5167 31.2478
54.4712 -95.5167 -32.0665
-49.7928 -95.5167 68.8302
-13.7222 -95.5167 -68.3701
3.5142 -95.5167 60.9590
-44.0874 -95.5167 -6.2512
16.4673 -95.5167 -38.2720
45.8588 -95.5167 20.4003
-61.1912 -95.5167 -34.2734
-6.8331 -95.5167 63.0441
27.5800 -95.5167 14.0622
-59.3511 -95.5167 -57.9072
50.6969 -95.5167 -20.9082
31.3052 -95.5167 -24.9635
51.7117 -95.5167 -2.1838
-43.7706 -95.5167 -23.5112
-42.1513 -95.5167 45.7134
43.2434 -95.5167 -56.4115
59.0936 -95.5167 -11.9783
-65.1536 -95.5167 10.7926
-63.4421 -95.5167 -49.2042
52.5141 -95.5167 3.8555
-41.1631 -95.5167 -63.9325
-14.4712 -95.5167 -66.8000
18.1332 -95.5167 -19.1218
53.9842 -95.5167 29.5917
59.9559 -7.9281 71.5137
67.5517 -5.8495 71.5137
55.7618 -35.5008 71.5137
-23.9141 45.5321 71.5137
23.1177 -85.5827 71.5137
-51.9233 38.7363 71.5137
8.8793 -47.6460 71.5137
28.5142 65.1740 71.5137
56.8641 -11.1521 71.5137
44.4390 14.5288 71.5137
65.5862 58.2078 71.5137
52.2808 -42.2555 71.5137
-10.8878 15.3210 71.5137
-16.9132 -93.4064 71.5137
50.3851 -75.2858 71.5137
64.6117 36.4385 71.5137
-45.7199 -19.8494 71.5137
-48.2303 86.3390 71.5137
65.4373 28.3786 71.5137
-43.7648 -49.7578 71.5137
68.2425 -62.9666 71.5137
5.1077 -15.0238 71.5137
8.5745 -32.5777 71.5137
10.5798 -15.1720 71.5137
35.6415 -23.9206 71.5137
-16.9396 86.3868 71.5137
3.1842 -1.3176 71.5137
-25.5359 -46.8388 71.5137
65.1366 42.6109 71.5137
9.3302 -75.8188 71.5137
-7.3631 -34.8527 71.5137
10.7674 51.9375 71.5137
-29.5320 -0.9464 71.5137
-3.5536 -62.4990 71.5137
-30.8818 -14.2450 71.5137
-52.2880 11.0988 71.5137
66.4980 -78.4649 71.5137
-49.4633 -82.3663 71.5137
51.4789 -5.4455 71.5137
-2.9631 40.8363 71.5137
53.0486 39.4426 71.5137
5.0284 -13.8385 71.5137
21.9216 -10.9444 71.5137
11.4402 -18.6790 71.5137
17.8617 27.8875 71.5137
30.0219 80.4508 71.5137
63.9725 47.7074 71.5137
1.7338 80.7946 71.5137
64.9042 -54.8319 71.5137
2.1315 94.6940 71.5137
3.6612 -7.1044 71.5137
23.1998 0.2148 71.5137
-15.0612 61.0301 71.5137
9.1082 -77.0121 71.5137
4.1076 -42.3567 71.5137
40.3629 78.6809 71.5137
-12.3340 -89.3260 71.5137
-17.7573 86.5060 71.5137
-48.0998 89.5056 71.5137
7.7625 70.4442 71.5137
45.0573 0.5748 71.5137
-7.1027 -12.5930 71.5137
54.4740 -67.9699 71.5137
-23.8118 72.8690 71.5137
36.7014 60.1308 71.5137
-20.7888 51.8415 71.5137
-12.1358 -86.2194 71.5137
-50.8623 -76.2506 71.5137
2.9005 69.8184 71.5137
27.8827 -76.1088 71.5137
6.5054 44.7710 71.5137
18.9110 25.7567 71.5137
42.6507 83.8029 71.5137
29.9192 31.1578 71.5137
55.9808 34.7049 71.5137
49.4662 8.0205 71.5137
24.9333 46.1635 71.5137
-25.6657 -80.8945 71.5137
56.4107 45.2348 71.5137
49.1961 58.9878 71.5137
-23.5727 32.8240 71.5137
-44.8422 40.5949 71.5137
39.2587 86.6875 71.5137
-18.0197 91.3086 71.5137
-9.6276 42.5097 71.5137
28.5557 -26.7680 71.5137
29.5334 38.3500 71.5137
-46.5155 62.6890 71.5137
-23.0890 -73.7575 71.5137
-21.7071 -5.8903 71.5137
28.0829 88.7514 71.5137
-55.8680 12.4181 71.5137
-14.4490 78.7572 71.5137
7.2498 -79.0870 71.5137
36.4782 76.0741 71.5137
18.2850 92.1624 71.5137
43.6011 58.1367 71.5137
64.1053 41.2616 71.5137
-39.5212 93.2155 71.5137
18.0209 -46.7230 71.5137
42.4760 -47.6225 71.5137
4.0983 66.1342 71.5137
13.8211 -19.0605 71.5137
-10.3815 -89.3629 71.5137
-37.0487 57.9126 71.5137
10.8991 -45.7223 71.5137
-62.2748 -52.7085 71.5137
4.5788 -39.9117 71.5137
-25.0639 -5.0086 71.5137
33.6938 -87.1550 71.5137
17.2594 90.0209 71.5137
-65.9024 -0.9924 71.5137
33.3788 57.6681 71.5137
-58.8998 30.3297 71.5137
-39.8657 -60.2794 71.5137
3.4696 13.7961 71.5137
29.1969 -6.9767 71.5137
-67.0163 -22.8804 71.5137
22.3414 9.2023 71.5137
29.2622 -9.3391 71.5137
20.8051 -22.6394 71.5137
43.9280 91.6617 71.5137
-66.6499 -79.9837 71.5137
2.4507 -41.4025 71.5137
30.5236 -63.8002 71.5137
-18.3529 -90.0499 71.5137
-57.5981 -63.3127 71.5137
-54.6478 69.8500 71.5137
-64.3742 27.8688 71.5137
-21.5096 3.8616 71.5137
-4.9391 -57.0463 71.5137
-36.1368 34.1433 71.5137
-16.3934 88.1401 71.5137
-51.6737 -57.3447 71.5137
29.4052 -49.9474 71.5137
30.5112 61.2191 71.5137
-55.3382 -13.5058 71.5137
61.6958 28.6364 71.5137
-17.3468 -44.8808 71.5137
-7.0841 89.6658 71.5137
67.0584 -16.1241 71.5137
35.7104 -9.4967 71.5137
-39.0798 -23.8079 71.5137
35.1952 -12.0694 71.5137
-59.0849 9.3614 71.5137
1.6322 90.3480 71.5137
-31.2531 15.3914 71.5137
-10.3147 84.1349 71.5137
-8.1449 54.4734 71.5137
-20.7783 -92.1517 71.5137
-50.9039 -84.6206 71.5137
-65.4161 62.1073 71.5137
-64.4991 58.4977 71.5137
-41.0331 62.0202 71.5137
-2.3879 -17.6739 71.5137
-13.5573 94.7241 71.5137
45.2859 81.5851 71.5137
-65.8675 -27.0493 71.5137
-9.3116 47.7784 71.5137
-59.2418 -82.5751 71.5137
19.3190 -71.8993 71.5137
19.7605 -19.4058 71.5137
-60.2571 39.1321 71.5137
0.2891 -80.2458 71.5137
-33.2266 7.0918 71.5137
61.8072 37.9004 71.5137
23.9773 7.3477 71.5137
60.5581 80.2324 71.5137
13.6208 49.6932 71.5137
64.0806 -58.7045 71.5137
20.3251 -58.3376 -71.5137
-58.4424 95.2473 -71.5137
64.0994 -41.5900 -71.5137
-57.0178 -81.2374 -71.5137
18.5473 -42.6350 -71.5137
11.9219 -94.7081 -71.5137
60.6911 54.9036 -71.5137
46.3886 -58.7010 -71.5137
-56.3447 -85.9384 -71.5137
59.3132 6.8072 -71.5137
-23.0289 -50.2316 -71.5137
-53.9437 -38.6290 -71.5137
-34.2205 -25.7765 -71.5137
28.0273 75.6733 -71.5137
44.5752 -44.7814 -71.5137
62.4205 69.5369 -71.5137
40.4073 24.9024 -71.5137
37.5449 75.0598 -71.5137
7.9603 -41.6925 -71.5137
-62.6943 -79.4771 -71.5137
5.7164 -13.0453 -71.5137
-50.1651 -87.6394 -71.5137
16.6260 -5.1117 -71.5137
56.3761 26.6564 -71.5137
-62.6456 81.0604 -71.5137
27.7356 55.4061 -71.5137
10.5241 58.4603 -71.5137
24.9648 4.3396 -71.5137
23.8009 65.8808 -71.5137
-34.2064 47.1855 -71.5137
-11.5675 -42.9704 -71.5137
-57.5684 84.6386 -71.5137
40.2429 64.6870 -71.5137
-5.7026 -31.6216 -71.5137
68.9054 45.5677 -71.5137
6.2746 -48.0192 -71.5137
37.5842 -60.8333 -71.5137
-46.7048 -31.6497 -71.5137
-5.1790 10.6521 -71.5137
-36.3241 -81.9020 -71.5137
-30.6564 25.1591 -71.5137
-20.4780 -67.3194 -71.5137
-38.6777 -54.4471 -71.5137
43.3372 5.7329 -71.5137
-22.2549 21.6164 -71.5137
19.2118 -44.6348 -71.5137
-12.9922 76.6053 -71.5137
28.9395 25.1651 -71.5137
20.1980 -4.6617 -71.5137
66.8702 23.7867 -71.5137
-2.5995 41.9800 -71.5137
51.2888 -55.4532 -71.5137
18.1738 42.8921 -71.5137
30.0137 -58.6195 -71.5137
19.1964 51.0932 -71.5137
56.2663 27.1134 -71.5137
-57.2549 -30.9525 -71.5137
-27.2706 -71.2478 -71.5137
-63.1502 -24.2284 -71.5137
-27.6120 29.0898 -71.5137
-15.0346 80.7910 -71.5137
57.9556 90.0601 -71.5137
58.4364 38.9908 -71.5137
42.9234 -51.3222 -71.5137
43.1142 -14.9299 -71.5137
-64.9478 5.7183 -71.5137
41.5939 72.4086 -71.5137
16.0541 44.1781 -71.5137
-56.2584 -28.9419 -71.5137
-38.0869 26.5879 -71.5137
23.1195 59.0454 -71.5137
-9.8317 15.0981 -71.5137
-43.8840 94.1911 -71.5137
-6.4836 -71.0908 -71.5137
-16.2577 -35.4220 -71.5137
-49.3806 74.5538 -71.5137
52.2097 -15.1409 -71.5137
58.5911 76.7740 -71.5137
-42.2007 35.4485 -71.5137
-56.5451 -16.1540 -71.5137
-12.7089 -90.2790 -71.5137
10.6670 64.8586 -71.5137
66.1799 -59.1647 -71.5137
-22.5736 41.0218 -71.5137
54.7258 -33.6331 -71.5137
44.6967 18.1981 -71.5137
-36.9057 80.3735 -71.5137
-30.9752 91.7616 -71.5137
-36.5258 9.7054 -71.5137
43.1646 -4.6848 -71.5137
0.8701 -89.0388 -71.5137
-34.9009 88.9501 -71.5137
-22.8926 34.2809 -71.5137
1.1591 40.1665 -71.5137
24.0208 35.3153 -71.5137
-0.0761 -49.9169 -71.5137
-36.0888 89.1268 -71.5137
-64.1944 68.8234 -71.5137
31.9929 -11.2129 -71.5137
2.7265 24.1449 -71.5137
-68.3566 -43.8405 -71.5137
-5.8847 5.8011 -71.5137
49.6307 46.7218 -71.5137
52.8419 -65.7817 -71.5137
58.3574 44.6092 -71.5137
53.8904 88.1222 -71.5137
-64.5444 43.2531 -71.5137
50.6844 -2.0691 -71.5137
-22.0660 94.1030 -71.5137
-68.2844 49.4712 -71.5137
-66.3703 62.3681 -71.5137
-63.5544 -69.5510 -71.5137
-32.4373 -79.0715 -71.5137
12.8103 95.0148 -71.5137
44.8771 73.8716 -71.5137
46.4316 40.8911 -71.5137
64.9842 -26.0996 -71.5137
-14.6901 80.7745 -71.5137
-9.2806 60.8471 -71.5137
-40.0581 64.7921 -71.5137
27.3658 -85.8883 -71.5137
51.2541 -16.6027 -71.5137
21.1736 -61.5979 -71.5137
-21.0839 -0.2522 -71.5137
25.6852 -46.3947 -71.5137
40.6262 -83.9522 -71.5137
21.5466 -81.5667 -71.5137
23.5981 -54.1082 -71.5137
-14.5726 -9.7599 -71.5137
6.9723 94.5729 -71.5137
-59.2611 63.2813 -71.5137
-8.0988 7.7637 -71.5137
-64.1698 -68.3754 -71.5137
-38.6111 -20.0200 -71.5137
-38.1369 90.4347 -71.5137
13.7934 -88.9735 -71.5137
65.4047 -2.5309 -71.5137
-12.9990 63.4888 -71.5137
32.1531 -73.4033 -71.5137
40.3780 92.0144 -71.5137
45.3142 -86.9761 -71.5137
-0.0226 87.2123 -71.5137
-1.8949 -84.7011 -71.5137
-44.7188 76.9637 -71.5137
-64.3150 -11.2218 -71.5137
-36.6489 7.7627 -71.5137
-9.5108 15.8147 -71.5137
16.6788 -91.0649 -71.5137
-15.4692 70.1994 -71.5137
-53.5559 -68.0424 -71.5137
-28.8704 -9.4592 -71.5137
-55.7639 70.0312 -71.5137
-19.4555 -29.5665 -71.5137
53.0806 87.5636 -71.5137
28.7542 -26.6246 -71.5137
-45.7710 -50.4860 -71.5137
63.8748 -82.3679 -71.5137
-18.2487 -59.4028 -71.5137
-8.9745 68.5827 -71.5137
-49.4930 69.1410 -71.5137
-62.2495 -18.1961 -71.5137
37.3434 -50.9937 -71.5137
-62.3773 -12.9458 -71.5137
7.1843 19.0781 -71.5137
53.2349 -6.4588 -71.5137
-41.9965 -88.3748 -71.5137
-59.3946 33.9809 -71.5137
-23.0262 -34.7993 -71.5137
-17.6447 -37.5577 -71.5137
-17.8971 -90.0795 -71.5137
