ply
format ascii 1.0
element vertex 1024
property float x
property float y
property float z
end_header
35.1002 1.9915 15.0308
35.1002 -9.2478 -22.2723
35.1002 4.0288 -20.0651
35.1002 4.9141 30.1869
35.1002 -16.6014 -9.0780
35.1002 8.0278 -14.6727
35.1002 -4.5890 -4.9449
35.1002 -1.4129 -11.9467
35.1002 24.2420 0.8822
35.1002 -24.1111 -23.0614
35.1002 12.1211 32.0473
35.1002 -22.3187 22.8930
35.1002 6.7019 22.4631
35.1002 -21.5572 -18.2863
35.1002 -6.0219 7.1403
35.1002 7.8500 12.5470
35.1002 5.0158 12.6606
35.1002 22.0191 -33.3689
35.1002 -4.3138 28.6925
35.1002 24.6527 14.6525
35.1002 -22.0604 -13.3861
35.1002 12.9382 13.7477
35.1002 8.2862 -17.3270
35.1002 21.4235 -33.8626
35.1002 14.1632 30.0781
35.1002 12.2640 13.8931
35.1002 6.4205 -33.7527
35.1002 -19.9849 -6.5985
35.1002 9.3126 -9.6986
35.1002 7.7850 -32.4251
35.1002 13.5022 -22.4618
35.1002 24.4878 -8.1223
35.1002 14.2780 2.2407
35.1002 -1.3429 22.3192
35.1002 -0.6531 -23.9926
35.1002 22.7025 19.5516
35.1002 -17.1098 32.1239
35.1002 19.7419 -33.4651
35.1002 -12.5969 27.2470
35.1002 -5.5935 -0.4794
35.1002 -4.1830 -18.8279
35.1002 2.8569 -10.3515
35.1002 -9.8110 14.6344
35.1002 13.6372 15.5021
35.1002 -23.4931 28.5265
35.1002 -10.4142 -16.1210
35.1002 -22.0329 -28.7812
35.1002 23.0767 -14.6734
35.1002 5.6225 -16.7845
35.1002 24.1250 -9.5530
35.1002 16.5878 -11.2738
35.1002 21.3127 -7.9695
35.1002 5.2913 -30.2989
35.1002 -10.9137 -21.3084
35.1002 7.0680 19.2358
35.1002 22.5039 -4.0356
35.1002 -17.8711 8.5739
35.1002 -5.4866 24.1684
35.1002 14.3310 27.0662
35.1002 12.0009 -5.2363
35.1002 25.3620 16.0189
35.1002 4.6092 12.1622
35.1002 1.4173 -32.2144
35.1002 3.8042 -5.1724
35.1002 16.1444 -25.1709
35.1002 -5.1335 -32.0089
35.1002 -17.7667 9.7193
35.1002 11.8486 29.4658
35.1002 -22.2275 -13.1685
35.1002 21.4191 -9.3907
35.1002 -7.3154 -20.6982
35.1002 23.4234 15.3483
35.1002 24.7179 30.2948
35.1002 11.3690 -4.9826
35.1002 13.4609 5.4170
35.1002 24.8588 -15.0918
35.1002 6.1633 -12.2569
35.1002 17.7763 -6.8790
35.1002 7.9179 1.1482
35.1002 7.9328 -8.1566
35.1002 13.9507 -0.8429
35.1002 -23.4794 19.2677
35.1002 -24.5598 1.7569
35.1002 -21.3188 -4.8563
35.1002 13.4270 1.8495
35.1002 8.3399 -28.8174
35.1002 -18.7189 31.8440
35.1002 14.2725 19.7262
35.1002 4.5986 10.6516
35.1002 -8.7214 11.4928
35.1002 -6.1287 11.3322
35.1002 12.0922 28.3438
35.1002 3.7147 -27.2037
35.1002 23.2368 -32.0950
35.1002 11.9039 -13.4848
35.1002 -20.7140 -0.0221
35.1002 8.7101 -21.5717
35.1002 3.7225 17.6001
35.1002 -3.8644 -30.1070
35.1002 14.0420 8.8433
35.1002 8.2399 0.0891
35.1002 -12.8162 13.0554
35.1002 15.1106 -3.8143
35.1002 -6.7100 -30.1050
35.1002 -21.4502 -22.0408
35.1002 -13.2186 -5.1950
35.1002 -19.3828 -8.9820
35.1002 10.3396 -15.0946
35.1002 -4.9037 25.0970
35.1002 -19.7408 6.4444
35.1002 18.3007 -20.5911
35.1002 -11.3497 -15.3197
35.1002 16.5455 12.0092
35.1002 9.6856 -13.7460
35.1002 -9.4968 -9.4317
35.1002 23.9320 -8.8987
35.1002 -22.6574 -8.3825
35.1002 -5.5650 -15.5286
35.1002 13.9577 13.1909
35.1002 15.3644 22.2243
35.1002 14.7618 -18.7800
35.1002 12.8582 -23.7912
35.1002 -14.1198 19.9784
35.1002 -22.5422 -15.0318
35.1002 -6.7809 21.3288
35.1002 -14.1843 0.4165
35.1002 -20.6126 22.0113
35.1002 18.9880 13.3644
35.1002 -19.3227 5.4194
35.1002 -4.6349 -21.3644
35.1002 -12.4859 -2.5744
35.1002 -15.3379 10.6537
35.1002 2.2954 30.3636
35.1002 -21.5548 -11.3321
35.1002 -18.6943 25.2768
35.1002 -14.9717 -0.8266
35.1002 21.7966 -22.3765
35.1002 7.2209 14.3584
35.1002 -16.9037 -0.3384
35.1002 -3.1225 -15.1521
35.1002 20.5471 23.1833
35.1002 -3.2919 -22.9058
35.1002 -15.6399 -6.0407
35.1002 11.6829 -11.2786
35.1002 7.5145 -11.2241
35.1002 -9.6793 10.6122
35.1002 -23.8740 -22.7642
35.1002 -3.7245 28.5071
35.1002 2.3191 -23.2677
35.1002 12.9011 11.1649
35.1002 16.7197 1.6647
35.1002 2.6280 14.0986
35.1002 22.1368 -25.1712
35.1002 -4.1277 -15.7540
35.1002 0.5083 -16.5386
35.1002 -16.8381 -15.3871
35.1002 -20.5834 -0.6945
35.1002 -18.3052 -17.7328
35.1002 -10.4505 27.5713
35.1002 -22.7768 29.7752
35.1002 -25.5026 23.9575
35.1002 3.6130 -11.6216
35.1002 17.1404 29.5931
35.1002 -2.5449 33.4340
35.1002 22.9620 16.2209
35.1002 -6.5910 -27.2857
35.1002 -14.1711 -9.0773
35.1002 10.3075 -10.2466
35.1002 10.6494 19.4310
35.1002 19.2438 -1.9263
35.1002 -23.5268 9.9672
-35.1002 25.5388 13.5546
-35.1002 -17.2031 32.9375
-35.1002 24.2488 24.5666
-35.1002 -23.4185 -19.6960
-35.1002 -15.4603 8.7441
-35.1002 7.2352 17.5371
-35.1002 5.2900 24.5212
-35.1002 -22.8809 17.8137
-35.1002 -22.0376 -5.7397
-35.1002 -22.0645 -31.2088
-35.1002 5.2273 18.0998
-35.1002 -20.0029 -8.2552
-35.1002 14.6986 -19.7070
-35.1002 -0.9916 25.6995
-35.1002 -19.0213 32.5607
-35.1002 11.3203 12.2643
-35.1002 -13.8171 -16.5147
-35.1002 -16.4005 21.2456
-35.1002 -17.4336 -16.4429
-35.1002 22.8201 4.9067
-35.1002 12.7430 -20.1459
-35.1002 7.4935 -20.8583
-35.1002 -3.2468 17.6330
-35.1002 -20.6995 32.0634
-35.1002 -21.8123 -6.2999
-35.1002 -1.1524 -14.3368
-35.1002 -11.4448 7.5834
-35.1002 13.5266 26.4797
-35.1002 -19.2904 -30.4014
-35.1002 -8.5959 -8.0880
-35.1002 -4.4181 -14.6945
-35.1002 -12.2138 -25.8153
-35.1002 -14.1128 23.7888
-35.1002 9.5205 33.0297
-35.1002 -1.0227 -21.3774
-35.1002 -3.9511 20.4994
-35.1002 2.5583 -14.2553
-35.1002 19.5209 9.5464
-35.1002 10.9078 -28.0306
-35.1002 22.1479 -0.8308
-35.1002 -4.8464 -2.8983
-35.1002 -25.7241 -22.5309
-35.1002 -22.2998 29.0560
-35.1002 25.5602 -6.1975
-35.1002 2.9800 18.7506
-35.1002 22.0087 30.9552
-35.1002 -5.0259 -13.9756
-35.1002 20.0260 -14.2751
-35.1002 7.2891 16.5793
-35.1002 3.4397 33.7232
-35.1002 6.3950 -29.9478
-35.1002 4.8315 19.2762
-35.1002 20.9791 -31.7695
-35.1002 18.4907 -26.5603
-35.1002 -7.0058 -8.9253
-35.1002 -6.6017 18.9230
-35.1002 -7.1991 20.1716
-35.1002 17.5527 20.2214
-35.1002 -5.0592 3.4374
-35.1002 -24.7553 -26.9319
-35.1002 -21.6757 -11.1359
-35.1002 -5.4523 -8.0267
-35.1002 23.2995 14.3309
-35.1002 -9.4119 13.9583
-35.1002 16.1181 -6.6727
-35.1002 8.2076 -21.3061
-35.1002 -6.2945 -26.0267
-35.1002 -19.0146 24.7661
-35.1002 1.4348 -16.9888
-35.1002 -22.1986 21.1845
-35.1002 8.0001 -19.2969
-35.1002 -14.1878 2.7831
-35.1002 11.2461 -25.5261
-35.1002 -20.3876 13.7590
-35.1002 18.9964 -32.0815
-35.1002 -4.2874 27.1967
-35.1002 -1.8269 -5.5641
-35.1002 -13.3945 15.3592
-35.1002 20.5208 -9.2398
-35.1002 -19.7297 -28.2294
-35.1002 -8.3225 10.0847
-35.1002 -19.4267 24.9027
-35.1002 -5.7479 -25.4542
-35.1002 -19.4089 17.0057
-35.1002 -20.7869 2.2170
-35.1002 -7.4540 -12.7661
-35.1002 -14.2429 28.3594
-35.1002 9.6619 28.6145
-35.1002 14.3770 -23.5277
-35.1002 21.3736 1.7461
-35.1002 -22.6113 0.7912
-35.1002 -19.3745 2.4024
-35.1002 22.9151 -19.6007
-35.1002 2.0794 33.7267
-35.1002 13.5300 -24.6980
-35.1002 22.1214 -18.9186
-35.1002 -22.2739 -29.8683
-35.1002 -3.0656 -21.2739
-35.1002 -19.9372 24.8404
-35.1002 13.8050 -25.4566
-35.1002 -13.6908 -13.1919
-35.1002 -8.4194 5.2989
-35.1002 21.4119 -1.4852
-35.1002 -12.6299 -0.8934
-35.1002 5.3066 8.2902
-35.1002 1.5494 -9.8882
-35.1002 15.5305 14.7771
-35.1002 -5.6018 -25.4532
-35.1002 -17.9011 -0.6876
-35.1002 16.7071 -3.7815
-35.1002 2.9549 7.3167
-35.1002 -21.3149 -7.3241
-35.1002 1.6007 16.0291
-35.1002 -0.1582 27.1776
-35.1002 -19.3948 25.1712
-35.1002 -23.3753 25.9638
-35.1002 -3.4077 -31.1183
-35.1002 -12.0601 3.8714
-35.1002 19.8106 31.3290
-35.1002 -15.6206 -14.8300
-35.1002 -12.6945 -9.7589
-35.1002 -10.4336 -3.4850
-35.1002 -16.3677 26.7003
-35.1002 20.2464 -26.5082
-35.1002 -0.9838 18.9306
-35.1002 -11.0728 -26.0322
-35.1002 -18.5669 11.1179
-35.1002 15.0905 -2.6663
-35.1002 -2.0095 30.3562
-35.1002 -23.6486 8.1269
-35.1002 16.9049 -24.8643
-35.1002 2.5704 -33.0546
-35.1002 17.6272 11.2236
-35.1002 0.6475 7.0817
-35.1002 15.2756 2.6747
-35.1002 11.9112 -12.3055
-35.1002 -21.4499 -18.4524
-35.1002 -14.2415 31.9446
-35.1002 0.4623 18.7600
-35.1002 -1.1321 7.6922
-35.1002 9.3887 33.0280
-35.1002 -3.4981 -9.9608
-35.1002 -19.5481 25.2872
-35.1002 -0.1903 13.4213
-35.1002 -20.6676 -14.0290
-35.1002 25.7003 -2.3533
-35.1002 -16.7924 -0.4744
-35.1002 -14.8724 -23.9033
-35.1002 -16.7201 -25.7961
-35.1002 -25.1678 -6.2625
-35.1002 2.1392 -0.9144
-35.1002 16.3741 -33.5976
-35.1002 14.8225 -8.1460
-35.1002 10.6380 -24.3665
-35.1002 -21.5086 -24.8854
-35.1002 12.9367 21.9931
-35.1002 -11.4956 -30.6393
-35.1002 1.8073 -30.2497
-35.1002 -7.8600 18.9434
-35.1002 -18.6471 -12.0547
-35.1002 -22.9284 -2.7297
-35.1002 -5.0124 -19.5539
-35.1002 2.0265 8.6789
-35.1002 -10.2012 15.7070
-35.1002 -16.3522 11.0776
-35.1002 -11.3875 6.0689
-35.1002 -20.0075 -23.1271
-35.1002 20.8779 -15.5640
-35.1002 9.0145 31.1586
-35.1002 -6.8268 -1.0582
-35.1002 -17.9175 -14.7454
-5.2805 25.7311 -31.5982
1.0745 25.7311 12.2243
-16.4254 25.7311 -3.7132
-9.6227 25.7311 21.0337
-22.7439 25.7311 19.2925
-20.0844 25.7311 -16.4544
0.1823 25.7311 -4.2746
22.9723 25.7311 -3.8813
26.4917 25.7311 3.8924
-34.1253 25.7311 18.0259
-10.5006 25.7311 -8.0797
-4.7263 25.7311 -27.8193
26.9439 25.7311 11.4321
27.8813 25.7311 -17.4944
-23.1945 25.7311 3.6092
32.0181 25.7311 -7.7556
-29.9690 25.7311 2.3131
17.5275 25.7311 -20.1480
-27.5153 25.7311 6.3447
10.7005 25.7311 26.1809
8.2603 25.7311 31.7971
21.5438 25.7311 -28.4917
-18.3479 25.7311 24.5350
-34.2243 25.7311 33.6954
-4.0644 25.7311 -30.4672
32.0688 25.7311 -10.9338
-32.1551 25.7311 -13.4936
2.1637 25.7311 -31.4545
-33.9068 25.7311 -25.0054
-12.7575 25.7311 2.7682
9.6833 25.7311 0.3214
18.8232 25.7311 3.8026
-30.6904 25.7311 -12.3546
-18.4995 25.7311 6.2299
3.2729 25.7311 14.1452
-28.8648 25.7311 3.3036
0.9823 25.7311 17.4318
25.9827 25.7311 -30.6512
19.9075 25.7311 9.2287
-6.3710 25.7311 22.0897
9.6240 25.7311 -11.5230
9.0139 25.7311 1.6734
18.3870 25.7311 -18.4817
-13.8272 25.7311 -15.2578
-1.9906 25.7311 -29.0381
-33.6479 25.7311 29.4525
3.7279 25.7311 -9.8039
-21.1189 25.7311 -10.1062
-3.4684 25.7311 13.7022
-21.4531 25.7311 3.9885
29.6545 25.7311 8.2758
5.6552 25.7311 -5.0250
2.2387 25.7311 -27.7912
-16.5602 25.7311 -0.4269
-4.8261 25.7311 -26.7576
-30.6659 25.7311 8.0236
26.1127 25.7311 -0.6178
-23.5042 25.7311 -8.8032
-6.1341 25.7311 11.9544
-21.2001 25.7311 -10.5614
33.2587 25.7311 24.3115
22.9210 25.7311 -10.1824
20.5765 25.7311 -7.6384
-5.7570 25.7311 -17.8682
33.8374 25.7311 13.9098
-1.1230 25.7311 12.7346
-0.6498 25.7311 -0.9038
-23.1616 25.7311 13.3629
16.5038 25.7311 -29.4077
-2.6357 25.7311 2.9651
0.7210 25.7311 -10.6410
7.0310 25.7311 -23.0985
33.4742 25.7311 5.0729
-35.0622 25.7311 -5.0041
-34.2948 25.7311 -8.9975
-1.9211 25.7311 2.2367
2.6960 25.7311 18.8672
32.5051 25.7311 18.6319
-1.4868 25.7311 1.7137
33.6524 25.7311 3.9951
21.6521 25.7311 -0.8938
17.6494 25.7311 -16.9987
32.8602 25.7311 -4.8330
-30.8094 25.7311 -5.0211
-17.7452 25.7311 11.0896
-10.3281 25.7311 -15.2318
9.6529 25.7311 3.2688
22.4503 25.7311 -9.3872
11.6423 25.7311 -5.0609
12.0453 25.7311 -8.5788
1.7142 25.7311 -21.8877
-14.9943 25.7311 -18.5069
29.4143 25.7311 6.3645
12.9129 25.7311 11.1614
19.1803 25.7311 19.8823
28.8229 25.7311 13.2027
-13.1206 25.7311 -6.9075
-13.3844 25.7311 -23.7679
1.0972 25.7311 -9.6534
-15.0186 25.7311 3.6744
-16.5475 25.7311 -21.3664
20.5217 25.7311 31.2545
-25.7638 25.7311 -22.0136
20.7363 25.7311 -24.2891
19.8141 25.7311 29.2917
-24.8824 25.7311 -14.3056
-6.2602 25.7311 27.4941
-28.4003 25.7311 -10.4453
4.8548 25.7311 -32.1186
-30.9045 25.7311 28.8090
14.6774 25.7311 -25.4653
11.4015 25.7311 27.7604
-16.5480 25.7311 -29.1957
-13.8801 25.7311 32.3184
-10.5938 25.7311 -9.7932
-24.7197 25.7311 -13.4998
23.9516 25.7311 -9.7711
9.3505 25.7311 12.7333
17.8928 25.7311 -2.7952
-27.4970 25.7311 3.4290
25.9197 25.7311 30.2512
-9.7628 25.7311 -13.9168
-17.9200 25.7311 -18.0232
22.9230 25.7311 18.1803
-13.0542 25.7311 -32.0675
2.7674 25.7311 27.3521
14.1091 25.7311 -19.9104
-31.1227 25.7311 -26.5060
30.0567 25.7311 32.4602
-16.3283 25.7311 -17.0291
-4.4955 25.7311 16.7643
2.0514 25.7311 3.3833
25.0899 25.7311 19.0132
21.4521 25.7311 1.2935
5.5372 25.7311 -28.1044
21.0441 25.7311 -5.8595
-19.8257 25.7311 -33.6583
-0.3305 25.7311 -25.4739
34.4947 25.7311 -0.1652
18.3347 25.7311 -28.1532
-18.3847 25.7311 13.3934
29.9704 25.7311 19.7145
-4.4175 25.7311 11.1033
-30.7595 25.7311 13.1456
12.3425 25.7311 23.8984
7.8549 25.7311 -26.7234
0.6123 25.7311 -24.1906
-7.5674 25.7311 20.8811
-11.8964 25.7311 -2.2388
17.1332 25.7311 28.9310
5.1298 25.7311 29.8823
-33.1984 25.7311 -18.2453
31.9894 25.7311 0.2442
-15.2765 25.7311 23.2178
10.5000 25.7311 33.5414
0.2961 25.7311 -30.8966
-15.0222 25.7311 -11.0104
19.3506 25.7311 6.5796
29.7897 25.7311 11.3878
10.8812 25.7311 -32.9922
-16.6062 25.7311 -26.2655
-6.5087 25.7311 20.7333
-21.7224 25.7311 -20.9524
29.7799 25.7311 26.0563
4.0853 25.7311 5.9287
9.7357 25.7311 14.8136
15.2827 25.7311 -0.1345
29.9335 25.7311 -4.2845
33.5205 25.7311 -15.7850
-25.7421 25.7311 -7.0838
-14.6598 25.7311 -30.5630
-24.0268 -25.7311 -7.2959
-13.5980 -25.7311 20.9906
5.7254 -25.7311 6.2905
0.2626 -25.7311 -27.8536
16.4595 -25.7311 -30.2326
18.3054 -25.7311 -4.8049
27.2149 -25.7311 -9.2961
32.9793 -25.7311 13.8813
-33.3715 -25.7311 12.2573
-5.8993 -25.7311 -27.9377
0.8209 -25.7311 -20.2777
-8.2802 -25.7311 -20.3158
-9.6668 -25.7311 -1.3849
-16.9898 -25.7311 -22.1727
24.6857 -25.7311 7.3529
4.9575 -25.7311 15.9233
19.0344 -25.7311 24.9052
-22.9733 -25.7311 -16.3418
-4.9294 -25.7311 -11.1410
3.2367 -25.7311 -11.5197
-27.6088 -25.7311 24.3420
34.6667 -25.7311 -18.3305
-23.2191 -25.7311 -32.4278
-15.3864 -25.7311 -3.3320
-2.4860 -25.7311 13.1457
14.8894 -25.7311 -24.4565
-2.3200 -25.7311 -27.6718
0.4043 -25.7311 28.2715
23.1958 -25.7311 9.1287
30.2258 -25.7311 12.5966
22.1635 -25.7311 -17.5226
28.6626 -25.7311 -30.4189
-23.9923 -25.7311 9.1732
7.6539 -25.7311 15.9884
-19.2969 -25.7311 -19.9829
8.9378 -25.7311 6.8618
19.0147 -25.7311 0.0586
4.7639 -25.7311 -26.6521
12.1580 -25.7311 -21.4432
-0.5878 -25.7311 6.9497
-10.2793 -25.7311 12.8894
-23.6648 -25.7311 18.6722
-31.3397 -25.7311 28.7980
13.1828 -25.7311 -5.8482
-2.9542 -25.7311 -23.6692
-31.9403 -25.7311 3.3166
8.3722 -25.7311 -15.9296
-25.3076 -25.7311 -12.3531
-13.6354 -25.7311 -23.8840
22.1264 -25.7311 17.0901
19.0171 -25.7311 -0.3686
9.2570 -25.7311 -17.7654
-1.9567 -25.7311 -22.0352
-1.3267 -25.7311 -28.1779
32.4937 -25.7311 -8.0119
15.0776 -25.7311 -29.6858
-13.9892 -25.7311 -24.0535
-13.7159 -25.7311 -7.0546
0.3682 -25.7311 27.7138
32.5528 -25.7311 -13.8579
22.8806 -25.7311 10.6920
17.1210 -25.7311 -12.7146
-22.7147 -25.7311 -20.8223
34.1361 -25.7311 -30.6200
-0.1773 -25.7311 15.8005
20.3140 -25.7311 9.5611
19.1258 -25.7311 15.2736
-28.2087 -25.7311 33.5613
2.2901 -25.7311 -28.4036
-22.2307 -25.7311 -15.5936
14.2265 -25.7311 6.0850
-24.5157 -25.7311 29.3401
10.9856 -25.7311 23.8925
31.8899 -25.7311 30.7263
-11.2839 -25.7311 20.4308
-0.4345 -25.7311 -9.3152
26.9787 -25.7311 14.0173
-28.3283 -25.7311 32.7831
0.1953 -25.7311 -13.9997
30.7350 -25.7311 33.4103
1.7987 -25.7311 21.5365
28.8528 -25.7311 -10.5254
25.0328 -25.7311 -5.4153
15.8660 -25.7311 -27.1713
6.8714 -25.7311 -24.2353
-14.8941 -25.7311 -32.0300
-18.5185 -25.7311 2.7233
-0.3600 -25.7311 13.1817
-5.2171 -25.7311 -4.9054
3.3117 -25.7311 -5.9910
8.9208 -25.7311 -17.6252
-25.9075 -25.7311 -30.7302
5.2084 -25.7311 3.6909
-27.3375 -25.7311 -2.7974
-5.4325 -25.7311 4.5786
-25.1938 -25.7311 4.3677
-17.8148 -25.7311 -14.4445
-24.2207 -25.7311 -27.7317
-26.1692 -25.7311 9.2502
22.1706 -25.7311 -25.3217
3.3135 -25.7311 27.5520
8.1965 -25.7311 -5.3522
12.1220 -25.7311 14.7318
11.6363 -25.7311 -8.5811
-4.2352 -25.7311 11.4673
18.2024 -25.7311 29.7689
-10.1994 -25.7311 11.3987
-31.1384 -25.7311 -29.7868
-4.5660 -25.7311 32.0940
-0.3061 -25.7311 23.7063
22.2587 -25.7311 27.7076
-5.0113 -25.7311 14.5130
30.0158 -25.7311 -15.2392
32.7269 -25.7311 11.7561
3.2866 -25.7311 24.4759
18.8510 -25.7311 26.1564
24.0500 -25.7311 11.5707
-6.0500 -25.7311 29.0877
-15.1180 -25.7311 -19.8543
20.9863 -25.7311 5.2211
27.3229 -25.7311 5.6045
17.2252 -25.7311 21.1233
28.4357 -25.7311 -2.6759
-20.9142 -25.7311 -21.0188
-2.4357 -25.7311 11.6029
-5.5761 -25.7311 -4.4814
13.8019 -25.7311 0.3074
-4.6681 -25.7311 -2.5732
17.4895 -25.7311 21.2244
4.3415 -25.7311 13.1542
9.9942 -25.7311 -33.0143
-3.2244 -25.7311 -13.3021
-2.4702 -25.7311 -6.6759
18.9234 -25.7311 16.8534
-22.2638 -25.7311 -24.6698
-26.2093 -25.7311 -19.8303
-16.1993 -25.7311 -7.4292
-3.4036 -25.7311 -19.7981
-3.4673 -25.7311 16.0620
25.1025 -25.7311 24.8844
15.6376 -25.7311 -26.9873
18.0141 -25.7311 -31.0966
0.2488 -25.7311 -6.8107
28.4727 -25.7311 17.9853
34.4183 -25.7311 -8.1199
-0.0227 -25.7311 -31.1583
2.0611 -25.7311 -14.2738
2.3161 -25.7311 1.0999
30.5033 -25.7311 -16.7375
-5.2569 -25.7311 -26.0103
-18.8897 -25.7311 -2.9196
31.7502 -25.7311 9.2330
23.6470 -25.7311 6.4107
-10.9817 -25.7311 5.6343
19.9253 -25.7311 -9.6874
-4.0079 -25.7311 -32.5693
-20.5798 -25.7311 -23.3282
20.5309 -25.7311 30.0128
32.0427 -25.7311 1.3475
7.2638 -25.7311 23.6422
30.6780 -25.7311 -6.3163
-30.2467 -25.7311 -12.0334
-34.8589 -25.7311 -7.2724
21.0205 -25.7311 -8.1382
28.8690 -25.7311 9.6954
15.5134 -25.7311 -29.6588
-8.1494 -25.7311 8.5330
-31.4700 -25.7311 18.6646
-27.6802 -25.7311 18.7987
27.8826 -25.7311 -18.4191
17.8833 -25.7311 -33.5177
29.6348 -18.9011 33.8945
28.1948 6.9321 33.8945
-12.5091 15.7011 33.8945
-9.9207 -17.2501 33.8945
-20.7763 -11.7741 33.8945
-5.9266 24.0642 33.8945
2.7975 7.3183 33.8945
-11.1969 3.1801 33.8945
-31.8145 18.1507 33.8945
-18.4543 -14.9397 33.8945
-3.8817 24.8255 33.8945
-9.2120 -20.8736 33.8945
5.2608 1.8523 33.8945
18.2727 -3.6780 33.8945
-34.9713 5.4157 33.8945
33.8619 24.0318 33.8945
-25.3485 -5.4397 33.8945
-0.0916 17.1400 33.8945
-6.9930 15.9428 33.8945
1.6381 -5.2568 33.8945
-9.0737 13.7695 33.8945
-22.6243 25.0473 33.8945
20.9871 0.7113 33.8945
34.1607 -0.1575 33.8945
-18.1210 1.4669 33.8945
32.1518 -25.6221 33.8945
2.7405 -3.4325 33.8945
16.7603 2.3859 33.8945
7.6183 18.2888 33.8945
17.0650 -12.4659 33.8945
25.0106 11.7578 33.8945
9.3390 7.2245 33.8945
-23.7615 19.7974 33.8945
-4.6360 8.3290 33.8945
-33.0237 5.8012 33.8945
-6.1274 -17.4221 33.8945
30.6247 -23.5130 33.8945
28.7972 -22.5831 33.8945
25.6178 24.6327 33.8945
-32.3073 6.5005 33.8945
30.9211 -25.2399 33.8945
-20.4584 24.4775 33.8945
4.3288 -9.1597 33.8945
9.8473 -1.4209 33.8945
6.3366 7.4372 33.8945
14.3720 -2.4400 33.8945
0.1891 23.1493 33.8945
6.8626 20.7271 33.8945
-1.8781 -11.5680 33.8945
-7.0703 21.1456 33.8945
-0.3161 22.9113 33.8945
-24.7068 10.6900 33.8945
7.8831 20.9174 33.8945
34.6188 -25.0179 33.8945
6.0207 -25.3816 33.8945
23.5903 14.3187 33.8945
-6.3081 21.7720 33.8945
14.5837 4.0549 33.8945
1.0800 23.2147 33.8945
17.2591 2.9725 33.8945
32.3514 1.6001 33.8945
-7.1087 -1.5707 33.8945
-14.7643 22.4881 33.8945
-5.5346 -4.2119 33.8945
20.1888 24.3719 33.8945
-30.4634 19.4590 33.8945
5.4529 20.1235 33.8945
-32.0672 2.4224 33.8945
15.2481 22.7421 33.8945
-17.7009 21.7565 33.8945
24.4420 -14.1350 33.8945
-16.9349 -12.1075 33.8945
22.6625 -7.2829 33.8945
29.5176 13.4388 33.8945
-18.3010 1.6329 33.8945
-17.4452 -5.2359 33.8945
-27.6233 9.1500 33.8945
18.2367 -23.0181 33.8945
8.8236 -17.0898 33.8945
-12.5810 -12.5987 33.8945
11.4448 16.9773 33.8945
8.2500 -12.0477 33.8945
28.9911 20.9653 33.8945
-25.1042 0.2855 33.8945
15.4717 20.0098 33.8945
-29.1711 -24.0491 33.8945
-13.1228 -21.2190 33.8945
16.9557 18.7070 33.8945
-14.3207 12.3077 33.8945
22.4095 -17.4392 33.8945
8.6458 -24.2858 33.8945
22.5061 20.9100 33.8945
-7.5913 9.7341 33.8945
-4.3776 5.6662 33.8945
1.8488 -23.4081 33.8945
14.8085 -12.3937 33.8945
-12.3038 -17.1298 33.8945
-27.1297 -16.3119 33.8945
-13.3264 -9.2661 33.8945
28.9857 5.8845 33.8945
-34.8462 12.8868 33.8945
8.8992 12.0417 33.8945
5.3192 13.4387 33.8945
16.9833 11.3687 33.8945
6.3913 -14.5543 33.8945
-29.4273 3.3823 33.8945
-26.1028 24.4971 33.8945
-7.5664 -7.6559 33.8945
-21.5965 14.5866 33.8945
-27.7602 -2.6171 33.8945
-18.0390 13.4851 33.8945
33.1479 -14.5865 33.8945
-10.3806 -4.5569 33.8945
9.4396 1.0192 33.8945
28.2175 0.2300 33.8945
17.0869 18.6336 33.8945
-6.3503 -5.3950 33.8945
32.0320 22.2169 33.8945
-29.9805 17.7378 33.8945
-13.6709 18.1985 33.8945
-18.9151 13.1391 33.8945
18.2621 -1.7387 33.8945
10.9968 -11.9336 33.8945
-10.4395 14.6734 33.8945
-5.4083 -3.7480 33.8945
27.0627 -3.0843 33.8945
-12.6273 -22.6902 33.8945
19.3956 -25.4598 33.8945
-3.5688 0.6906 33.8945
34.7602 20.2774 33.8945
-6.9602 2.9093 33.8945
6.3785 17.4390 33.8945
29.2935 -10.6245 33.8945
29.9030 14.5738 33.8945
-5.5724 -7.3411 33.8945
-25.3361 8.8280 33.8945
-6.1065 12.7690 33.8945
-26.6710 23.6830 33.8945
2.9711 -13.3407 33.8945
31.6264 -17.4861 33.8945
-24.4963 22.0622 33.8945
-22.5027 10.1222 33.8945
7.0061 14.2660 33.8945
28.6764 8.6952 33.8945
-20.4336 -7.5710 33.8945
15.8071 7.9099 33.8945
-21.9848 -15.9568 33.8945
-28.8636 -20.7879 33.8945
-23.3382 25.1970 33.8945
-3.1457 -6.7364 33.8945
-18.4545 4.9055 33.8945
-2.3223 -19.4211 33.8945
-11.9026 -21.8013 33.8945
-19.6199 -13.5794 33.8945
-0.5316 21.2405 33.8945
7.2994 18.3054 33.8945
27.5073 1.5123 33.8945
13.2345 -0.9416 33.8945
-19.6692 -10.3297 33.8945
-0.7958 5.3730 33.8945
9.1056 4.2653 33.8945
28.0439 -15.6976 33.8945
-11.4278 -13.2997 33.8945
-34.7597 3.6570 33.8945
33.9415 7.2676 33.8945
-31.4964 1.5447 33.8945
-26.3526 25.3418 33.8945
-17.3007 17.0756 33.8945
-0.5784 -24.7556 33.8945
31.0523 -5.1206 33.8945
-20.1858 -0.2575 -33.8945
18.6021 -25.3105 -33.8945
-9.4476 6.9759 -33.8945
-0.7753 5.8387 -33.8945
-7.4198 -15.5938 -33.8945
-35.0422 24.9537 -33.8945
-26.8456 -6.3306 -33.8945
33.2441 -1.1660 -33.8945
20.8498 25.0168 -33.8945
-3.9033 25.1736 -33.8945
-1.6176 21.4275 -33.8945
21.9469 -21.0535 -33.8945
4.3652 -22.8833 -33.8945
-10.9128 11.8465 -33.8945
-25.9502 19.4413 -33.8945
27.0251 -7.5918 -33.8945
9.0747 -7.4518 -33.8945
-18.3986 18.0486 -33.8945
-5.1397 -20.0210 -33.8945
7.3997 -15.8129 -33.8945
10.3894 1.0957 -33.8945
-25.5491 -11.1031 -33.8945
-5.5274 12.3031 -33.8945
-14.1887 0.5189 -33.8945
-15.5355 17.9739 -33.8945
29.3187 9.3626 -33.8945
22.6963 6.3553 -33.8945
12.5340 20.2857 -33.8945
28.9561 -18.3593 -33.8945
-8.5391 -16.8499 -33.8945
29.9836 -1.1804 -33.8945
9.3206 -12.2740 -33.8945
29.9991 -14.8859 -33.8945
-30.3866 -4.6576 -33.8945
-17.9404 -15.1416 -33.8945
-25.3429 23.2168 -33.8945
-1.3531 -6.6953 -33.8945
6.6707 22.2959 -33.8945
34.4666 -15.3075 -33.8945
-27.6899 12.2887 -33.8945
15.8704 25.2217 -33.8945
26.7527 -23.0282 -33.8945
31.1459 -22.4037 -33.8945
16.5665 9.2857 -33.8945
34.8939 15.2513 -33.8945
-25.6470 0.8952 -33.8945
-19.7170 -1.0635 -33.8945
7.1513 0.4361 -33.8945
-24.2878 -8.8755 -33.8945
33.3931 13.8600 -33.8945
-22.2167 -24.7237 -33.8945
5.1098 0.0231 -33.8945
33.5342 -15.6222 -33.8945
-11.5254 11.5291 -33.8945
-2.3373 -25.4439 -33.8945
-31.1044 -10.2127 -33.8945
-9.2792 2.4185 -33.8945
-11.7193 21.1189 -33.8945
28.2497 -23.0419 -33.8945
5.5458 -6.2985 -33.8945
32.9450 -24.3811 -33.8945
-14.9853 -4.6391 -33.8945
-31.6169 -18.4458 -33.8945
28.6544 -10.1391 -33.8945
-34.7665 -13.8562 -33.8945
-28.7526 -3.8055 -33.8945
-14.8631 18.8359 -33.8945
13.2721 -13.3011 -33.8945
-20.9179 -7.1225 -33.8945
-10.0935 -5.8791 -33.8945
-21.4699 -25.4627 -33.8945
-2.4809 16.7476 -33.8945
-3.2206 -4.9062 -33.8945
30.0787 12.9015 -33.8945
-22.7561 -7.0666 -33.8945
-7.9368 -10.4211 -33.8945
-15.7497 -8.7520 -33.8945
-9.9511 -12.6517 -33.8945
4.2560 12.1488 -33.8945
16.5773 -6.6103 -33.8945
-30.0908 19.8616 -33.8945
-14.5456 5.2608 -33.8945
28.4474 -21.5966 -33.8945
2.5054 -5.5790 -33.8945
29.4816 -14.6778 -33.8945
-4.2645 6.4644 -33.8945
5.3581 4.3415 -33.8945
-15.5782 7.0797 -33.8945
-23.1186 -6.8242 -33.8945
-10.5330 -0.0217 -33.8945
30.6339 -6.4437 -33.8945
-21.8603 -15.1830 -33.8945
22.4781 23.4682 -33.8945
-32.1743 15.9102 -33.8945
-32.9390 0.8324 -33.8945
-14.6315 -11.9155 -33.8945
-9.1313 -21.8957 -33.8945
4.4792 13.8821 -33.8945
22.9450 4.4452 -33.8945
8.8232 -11.8117 -33.8945
-33.3827 -1.3770 -33.8945
-11.2530 -0.2923 -33.8945
5.4156 -12.0609 -33.8945
-24.2112 -25.1516 -33.8945
-17.5829 12.9989 -33.8945
-0.3734 12.5981 -33.8945
26.8758 10.3884 -33.8945
30.1831 -16.1292 -33.8945
-34.2611 22.7759 -33.8945
-30.2858 13.5919 -33.8945
-8.3621 -20.2648 -33.8945
2.5412 21.5969 -33.8945
-15.6538 17.4376 -33.8945
-15.9277 -4.9560 -33.8945
31.6827 -8.2630 -33.8945
-11.7595 25.6002 -33.8945
20.4033 21.0677 -33.8945
8.1544 12.1104 -33.8945
-5.9412 -2.8098 -33.8945
-11.2993 -1.0501 -33.8945
-11.2924 14.7184 -33.8945
-13.5649 -5.9021 -33.8945
-4.8626 -19.9039 -33.8945
7.8377 -25.1854 -33.8945
-19.6058 -10.7428 -33.8945
14.6645 -13.1831 -33.8945
27.4546 -2.3262 -33.8945
-22.3535 -23.8789 -33.8945
1.1313 5.9065 -33.8945
8.6761 1.6287 -33.8945
-14.4253 -13.2584 -33.8945
15.5241 7.6331 -33.8945
5.2978 3.6847 -33.8945
-31.4666 5.8553 -33.8945
28.6050 -11.7773 -33.8945
-6.8315 -2.6631 -33.8945
-17.2167 -1.2891 -33.8945
-2.8592 5.4927 -33.8945
19.8130 10.5807 -33.8945
20.2254 4.2398 -33.8945
-26.9133 -13.2227 -33.8945
-15.5709 12.5163 -33.8945
-7.1709 22.7950 -33.8945
-8.3971 -11.0206 -33.8945
-20.6501 10.2660 -33.8945
-29.1669 25.3074 -33.8945
-10.4511 18.5777 -33.8945
-30.9140 -13.8350 -33.8945
-28.4701 -9.6904 -33.8945
-27.7967 -17.4860 -33.8945
10.2748 -14.2894 -33.8945
27.7856 25.1679 -33.8945
-1.9508 10.8505 -33.8945
21.1260 18.6903 -33.8945
-7.9476 0.9089 -33.8945
22.7789 5.2071 -33.8945
8.6027 -8.8741 -33.8945
-15.9078 -12.4211 -33.8945
25.7145 20.1518 -33.8945
-3.5841 19.2191 -33.8945
15.8875 -6.2302 -33.8945
9.1671 3.9162 -33.8945
-2.4263 -14.6950 -33.8945
-22.7661 -4.8341 -33.8945
-20.8909 5.1348 -33.8945
17.4146 19.2092 -33.8945
-18.1152 23.4279 -33.8945
-19.2112 6.6604 -33.8945
-5.4840 -18.9710 -33.8945
15.4743 -12.8244 -33.8945
