ply
format ascii 1.0
element vertex 1024
property float x
property float y
property float z
end_header
57.8686 -9.0414 25.9690
57.8686 -0.4264 -59.3940
57.8686 22.9867 45.0179
57.8686 -13.6555 -57.4490
57.8686 -22.2285 20.5084
57.8686 25.9770 14.0740
57.8686 -3.8146 -7.6118
57.8686 16.5473 -46.1444
57.8686 -0.7052 -61.0230
57.8686 -8.8536 15.1040
57.8686 19.8419 -12.5288
57.8686 -2.3196 19.0764
57.8686 -16.4299 45.7588
57.8686 -10.0618 10.5155
57.8686 21.1136 25.3799
57.8686 16.0153 -8.6236
57.8686 -26.3652 -31.7161
57.8686 15.9671 -33.8910
57.8686 -6.2586 -27.6383
57.8686 10.5790 -15.0774
57.8686 -11.4681 -55.4599
57.8686 28.2386 -17.2326
57.8686 15.8614 -12.3755
57.8686 -0.2708 29.1765
57.8686 27.4770 50.9381
57.8686 -8.8317 21.3187
57.8686 1.4807 -21.9700
57.8686 -7.8994 -42.5441
57.8686 2.3938 3.0513
57.8686 2.7810 6.0482
57.8686 -29.4083 16.3056
57.8686 23.3686 36.0510
57.8686 -25.3834 -32.5915
57.8686 -14.5060 -38.3849
57.8686 -6.9872 19.5941
57.8686 -9.2230 -24.6569
57.8686 -3.9992 61.2606
57.8686 6.0877 -6.8842
57.8686 -9.0808 18.0964
57.8686 -15.5482 60.0200
57.8686 15.0313 -0.0022
57.8686 -12.6767 29.6574
57.8686 14.8975 -7.8701
57.8686 21.9428 32.5445
57.8686 -7.4608 -54.5761
57.8686 -28.4063 -43.0301
57.8686 -22.9883 -36.1961
57.8686 -3.8536 -42.5092
57.8686 -24.8607 -33.0541
57.8686 15.8382 -43.7960
57.8686 -19.6112 36.9148
57.8686 -29.8979 11.0539
57.8686 22.3473 -46.7431
57.8686 11.1137 -45.5784
57.8686 -19.6768 9.8307
57.8686 8.2468 -21.8526
57.8686 -1.3008 59.2240
57.8686 -16.2837 -53.1920
57.8686 16.9131 -9.8699
57.8686 15.3604 -58.8525
57.8686 8.1940 -37.5844
57.8686 3.3580 56.5318
57.8686 -5.9188 -40.9672
57.8686 -29.5084 -43.1420
57.8686 31.7429 55.9384
57.8686 -28.8503 -36.7511
57.8686 29.5675 28.2336
57.8686 14.8724 30.3968
57.8686 5.1516 -24.1460
57.8686 -8.7566 -41.9273
57.8686 -12.4428 -54.9294
57.8686 -22.0522 -51.5858
57.8686 22.8836 5.4886
57.8686 15.0196 45.8563
57.8686 -17.4842 0.1502
57.8686 -10.3265 45.5177
57.8686 -10.9679 -29.5631
57.8686 -4.8584 34.2596
57.8686 20.6796 -55.5228
57.8686 -31.1685 -42.3867
57.8686 -13.6470 -47.9564
57.8686 -4.7606 43.8335
57.8686 -13.8293 47.7702
57.8686 -26.2937 -53.0229
57.8686 -3.1718 45.1913
57.8686 30.9665 47.4981
57.8686 -11.3061 -7.1633
57.8686 -11.6960 -49.0225
57.8686 28.6399 25.5764
57.8686 27.2201 47.3993
57.8686 -31.2098 -34.3244
57.8686 14.6389 42.4789
57.8686 6.3780 -27.5313
57.8686 -15.1483 51.7809
57.8686 -18.9539 16.6322
57.8686 31.5413 7.7657
57.8686 -14.9724 14.0751
57.8686 17.8187 45.7719
57.8686 -10.0602 53.6116
57.8686 2.6122 8.4597
57.8686 26.1287 21.3031
57.8686 -6.7749 43.6170
57.8686 -30.2250 -34.9989
57.8686 -20.1971 24.1000
57.8686 14.3823 -25.2178
57.8686 -21.3823 8.8926
57.8686 28.8819 -28.1077
57.8686 0.6169 -15.1010
57.8686 21.0875 32.3320
57.8686 -24.4454 -57.2074
57.8686 0.9981 -35.1171
57.8686 -5.5677 -9.3906
57.8686 8.0616 38.7287
57.8686 24.5925 31.0211
57.8686 -3.3324 43.6965
57.8686 14.3611 -28.1645
57.8686 -0.8829 27.6655
57.8686 9.3225 -53.2736
57.8686 22.1008 -35.4145
57.8686 -17.8798 30.6143
57.8686 -15.0618 -43.0034
57.8686 0.3938 -36.5549
57.8686 23.1113 -47.0094
57.8686 -4.7410 30.8101
57.8686 31.4986 8.9848
57.8686 -5.7692 55.5767
57.8686 21.3548 -8.1875
57.8686 30.7571 -33.7376
57.8686 -5.3968 -60.9070
57.8686 27.3858 15.3065
57.8686 -14.7572 -30.6587
57.8686 -1.8951 47.5308
57.8686 -1.7328 16.7799
57.8686 -29.3683 -60.0364
57.8686 -21.3462 3.4024
57.8686 21.6345 2.4351
57.8686 29.7865 -32.8614
57.8686 -5.0367 -43.6340
57.8686 -1.7035 4.1248
57.8686 11.3786 60.5343
57.8686 22.0189 -20.2699
57.8686 16.2026 -56.7033
57.8686 -20.4025 14.5162
57.8686 28.8017 59.5850
57.8686 20.6156 -57.7031
57.8686 21.5476 -45.1928
57.8686 24.0171 57.0446
57.8686 30.7887 21.4486
57.8686 -3.3614 13.6997
57.8686 26.8362 2.2503
57.8686 19.8495 -34.0132
57.8686 25.6231 -33.7745
57.8686 -17.6874 53.1990
57.8686 18.0143 60.9812
57.8686 -3.4887 -52.3341
57.8686 0.5684 -46.0377
57.8686 10.2289 -17.2708
57.8686 -20.8520 8.2261
57.8686 -19.7210 5.3321
57.8686 -8.3220 31.8752
57.8686 10.9814 18.6217
57.8686 28.8971 34.1451
57.8686 21.5762 15.7793
57.8686 4.9301 0.3322
57.8686 14.1245 -27.4039
57.8686 -8.2342 -50.7064
57.8686 -28.9627 -16.7426
57.8686 -15.2914 -53.7497
57.8686 28.7488 17.8174
57.8686 -20.7824 -46.6670
57.8686 -3.0086 -24.4321
-57.8686 27.6451 53.3972
-57.8686 15.9285 -6.9434
-57.8686 -10.2001 10.0984
-57.8686 -26.2381 -40.0350
-57.8686 31.3978 51.1147
-57.8686 13.3916 37.1715
-57.8686 -18.1841 -2.1536
-57.8686 10.9774 29.5968
-57.8686 -16.5289 -29.4664
-57.8686 16.8635 49.3368
-57.8686 24.1772 35.1994
-57.8686 14.9156 32.7847
-57.8686 22.4465 -8.0086
-57.8686 -23.3786 60.8644
-57.8686 -23.9601 -7.6822
-57.8686 21.7212 -3.6505
-57.8686 -13.3742 -30.4687
-57.8686 9.2276 -4.6214
-57.8686 -5.5677 25.5017
-57.8686 2.8795 -38.5936
-57.8686 23.6609 25.8597
-57.8686 26.7592 -33.4125
-57.8686 -5.9693 -41.2285
-57.8686 -13.8653 13.5737
-57.8686 7.3245 -16.7228
-57.8686 -28.9487 -26.2471
-57.8686 20.5602 35.9758
-57.8686 20.4373 -2.0023
-57.8686 -26.0677 16.8018
-57.8686 -4.8228 48.5770
-57.8686 30.0814 46.9513
-57.8686 29.5977 -47.1018
-57.8686 -26.6998 -0.2228
-57.8686 17.9125 53.1913
-57.8686 -28.8453 42.2162
-57.8686 -28.0549 -17.0276
-57.8686 7.9877 24.8277
-57.8686 16.4452 -55.8937
-57.8686 14.1215 -56.8389
-57.8686 -1.5389 24.5877
-57.8686 -5.6343 30.4676
-57.8686 -4.1232 -61.1887
-57.8686 23.5185 -3.0250
-57.8686 3.3466 -33.1499
-57.8686 20.0266 -21.3039
-57.8686 -2.4679 44.8616
-57.8686 13.2428 32.9167
-57.8686 -30.7526 3.3103
-57.8686 11.5581 13.5879
-57.8686 27.0324 55.5898
-57.8686 -16.2591 -18.9703
-57.8686 -32.1599 -17.5216
-57.8686 -32.0893 -9.2722
-57.8686 24.8881 17.2666
-57.8686 17.8990 59.2822
-57.8686 -20.6707 -48.6802
-57.8686 3.7820 -31.4230
-57.8686 9.6885 -34.2038
-57.8686 -31.5324 3.2008
-57.8686 -1.5977 -40.5639
-57.8686 -4.4954 -18.3981
-57.8686 30.1901 -56.4222
-57.8686 -5.7625 -34.5743
-57.8686 23.8019 -23.9087
-57.8686 31.5201 54.5440
-57.8686 -6.2679 -61.3887
-57.8686 -3.7749 39.0365
-57.8686 -5.1869 46.5197
-57.8686 6.0122 -41.3072
-57.8686 -10.6719 32.9064
-57.8686 28.1305 -0.0647
-57.8686 -12.5201 -48.1881
-57.8686 15.4881 4.9168
-57.8686 8.2394 5.5554
-57.8686 23.8742 19.8980
-57.8686 -6.5916 -15.3577
-57.8686 12.8066 36.6001
-57.8686 -18.5903 -15.4250
-57.8686 28.4280 -4.0458
-57.8686 -27.9309 32.4101
-57.8686 -25.0680 -23.6524
-57.8686 -5.1104 -4.7163
-57.8686 26.1523 -38.8903
-57.8686 25.0891 -44.6766
-57.8686 11.3353 -8.9204
-57.8686 0.7394 3.1097
-57.8686 -30.2101 57.6212
-57.8686 -29.3351 -56.2270
-57.8686 -29.0288 60.6425
-57.8686 -29.5050 -61.1431
-57.8686 32.1243 -27.0089
-57.8686 -5.0613 -42.8113
-57.8686 13.3829 51.5291
-57.8686 8.3491 -45.9062
-57.8686 23.0753 -16.5294
-57.8686 20.9743 31.8269
-57.8686 24.5443 23.7185
-57.8686 2.2142 -47.4750
-57.8686 -26.0585 60.5242
-57.8686 -16.1689 -38.2332
-57.8686 -19.0781 19.6503
-57.8686 -31.9475 11.1207
-57.8686 4.7063 27.7477
-57.8686 -5.9139 -5.6059
-57.8686 -21.3734 51.1927
-57.8686 32.1126 -38.2692
-57.8686 -27.4730 44.0397
-57.8686 22.2112 51.2738
-57.8686 23.8751 -24.3093
-57.8686 1.7860 39.1523
-57.8686 -29.3374 -38.2401
-57.8686 -9.6347 -29.8832
-57.8686 -15.9824 6.5720
-57.8686 -25.1698 -43.9598
-57.8686 -28.7746 32.5215
-57.8686 16.0162 23.2177
-57.8686 -13.5487 -51.1983
-57.8686 19.8327 34.0026
-57.8686 -4.1914 27.2949
-57.8686 -3.7318 13.5713
-57.8686 1.1949 60.0708
-57.8686 -27.4707 -52.2382
-57.8686 -0.9979 20.4956
-57.8686 22.1695 9.8241
-57.8686 -10.8311 -51.7427
-57.8686 16.4681 -56.9161
-57.8686 12.6861 -41.8090
-57.8686 9.2780 46.4876
-57.8686 7.4751 -2.5608
-57.8686 -15.6607 30.1952
-57.8686 -29.0603 -57.3961
-57.8686 23.6396 57.5725
-57.8686 -22.6663 42.9559
-57.8686 -20.6375 -47.6285
-57.8686 -16.7657 5.0614
-57.8686 -20.2835 -57.0209
-57.8686 14.1177 21.7014
-57.8686 8.3006 -14.5928
-57.8686 30.2801 -57.2508
-57.8686 -30.7338 13.4499
-57.8686 21.5449 -0.1132
-57.8686 -2.2527 -55.3408
-57.8686 7.1437 -59.0409
-57.8686 5.0022 8.6712
-57.8686 -12.5355 39.0161
-57.8686 -16.7461 -32.1953
-57.8686 8.3551 -26.3681
-57.8686 6.1668 -37.0081
-57.8686 -1.3870 20.6261
-57.8686 -2.7873 30.4435
-57.8686 -22.1415 36.9892
-57.8686 10.2616 39.8258
-57.8686 -14.9615 11.1452
-57.8686 12.4322 10.1848
-57.8686 -1.0643 -25.5959
-57.8686 -8.5360 -9.6966
-57.8686 2.9009 26.0471
-57.8686 3.8484 -44.6843
-57.8686 21.7416 -30.1387
-57.8686 -25.8503 22.1517
-57.8686 -0.9064 27.0779
-57.8686 -6.3625 16.6105
-57.8686 24.7297 37.1995
-57.8686 17.5188 36.0844
-57.8686 -19.5745 -60.1360
-57.8686 -25.2699 -47.7089
-57.8686 -6.2723 17.7999
-57.8686 5.6890 -19.6732
-57.8686 22.4099 23.4435
-57.8686 -9.9389 26.1364
-57.8686 -25.1253 51.8283
57.0429 32.2465 -39.6864
17.6459 32.2465 57.1612
53.8061 32.2465 29.7604
-40.2991 32.2465 44.0910
13.6365 32.2465 -59.2826
45.5395 32.2465 16.6225
-14.4918 32.2465 -12.2309
40.4621 32.2465 -59.6039
-49.4456 32.2465 -39.5032
-44.3886 32.2465 -0.9606
29.7526 32.2465 -51.3283
-14.3065 32.2465 -28.3440
-26.5073 32.2465 41.4251
-27.5645 32.2465 1.4917
1.6103 32.2465 -3.0118
-46.9120 32.2465 -15.6963
-30.0499 32.2465 -56.0419
38.4660 32.2465 -29.2309
27.8083 32.2465 25.8191
16.5564 32.2465 25.4869
12.8495 32.2465 37.7365
51.7103 32.2465 49.7124
45.4314 32.2465 -21.3695
-41.7080 32.2465 -23.3167
-19.4466 32.2465 37.6022
-57.6505 32.2465 54.3279
-24.6420 32.2465 -22.4820
54.5822 32.2465 11.6465
40.4151 32.2465 52.9334
55.4813 32.2465 -43.8955
44.0898 32.2465 -31.7343
-31.7453 32.2465 -24.7149
-35.6089 32.2465 -32.7857
29.5307 32.2465 -60.5545
-29.1274 32.2465 41.7813
52.4640 32.2465 -5.2191
25.3219 32.2465 -39.2568
-25.9416 32.2465 6.0213
-25.4974 32.2465 42.1332
-46.1797 32.2465 9.2059
45.3428 32.2465 -33.2285
38.7122 32.2465 -39.6018
46.2952 32.2465 -32.7983
-29.7802 32.2465 17.7165
4.9924 32.2465 -37.1066
-41.0905 32.2465 -56.3040
14.3373 32.2465 22.7875
-57.8574 32.2465 -23.0986
28.0026 32.2465 29.2218
-31.6023 32.2465 57.4813
30.4127 32.2465 22.5771
17.7444 32.2465 -25.0634
24.0895 32.2465 42.0690
30.4219 32.2465 57.2843
10.7751 32.2465 -10.8578
-21.5565 32.2465 -36.9178
-49.7110 32.2465 23.6703
-27.3035 32.2465 -37.4937
15.9551 32.2465 -54.9474
-11.8655 32.2465 34.1259
52.7836 32.2465 11.4620
51.0650 32.2465 45.4885
-34.7129 32.2465 43.8849
-43.2708 32.2465 40.4695
49.9775 32.2465 2.4364
34.3700 32.2465 12.0420
-22.4614 32.2465 56.9285
14.2501 32.2465 33.2081
29.4148 32.2465 -2.7203
-5.5786 32.2465 -60.4661
25.5246 32.2465 -54.3828
53.0583 32.2465 30.8616
-13.0692 32.2465 25.8468
-36.2418 32.2465 -44.8324
-41.5949 32.2465 -24.9924
17.7491 32.2465 49.7716
26.9857 32.2465 -57.9529
21.0054 32.2465 43.5583
4.4090 32.2465 56.6816
19.6021 32.2465 42.6729
30.7087 32.2465 -1.6742
-9.2621 32.2465 1.3604
-5.9493 32.2465 -46.6413
40.7711 32.2465 25.8293
-25.5669 32.2465 31.6575
-43.2844 32.2465 41.2625
12.2470 32.2465 57.2621
-2.6221 32.2465 55.9559
-1.8280 32.2465 -57.7400
-3.0893 32.2465 -50.6703
15.5137 32.2465 1.0288
-21.4499 32.2465 -12.7502
35.3204 32.2465 11.6313
11.4835 32.2465 -58.6260
-31.1224 32.2465 30.7618
31.3417 32.2465 30.2703
30.0424 32.2465 -43.9747
-54.9204 32.2465 56.2943
17.0038 32.2465 -34.6490
-26.3651 32.2465 -59.7472
25.0141 32.2465 12.8970
39.3091 32.2465 29.3694
1.8507 32.2465 9.3683
5.1076 32.2465 24.6778
-42.3530 32.2465 18.2214
-41.9723 32.2465 53.6486
-16.0061 32.2465 -45.7366
-42.3532 32.2465 -6.2271
37.0878 32.2465 12.0699
-12.5970 32.2465 -7.7923
13.4948 32.2465 21.3095
43.5964 32.2465 -52.3520
-23.9304 32.2465 6.6573
11.6690 32.2465 -29.3677
-54.6989 32.2465 9.0452
-1.7574 32.2465 2.6958
2.2998 32.2465 -5.2332
23.7225 32.2465 46.4890
28.3540 32.2465 11.8158
37.6333 32.2465 -59.7452
-22.6471 32.2465 50.9525
32.5001 32.2465 -13.4359
16.8719 32.2465 -8.0356
-13.3833 32.2465 58.1091
37.9762 32.2465 39.0530
-28.9431 32.2465 -25.4991
-0.3453 32.2465 9.8523
22.4299 32.2465 39.1950
40.5761 32.2465 19.7895
-49.2213 32.2465 59.0983
25.9391 32.2465 21.0416
-54.8893 32.2465 -54.0271
-56.7046 32.2465 18.2843
-49.2985 32.2465 -31.1934
-34.6348 32.2465 -43.2529
-44.2181 32.2465 -54.1905
31.5375 32.2465 -34.5375
-21.9206 32.2465 -0.0896
33.6925 32.2465 -30.8372
14.1122 32.2465 -47.8286
-9.1367 32.2465 -58.7636
44.8328 32.2465 30.4083
10.0601 32.2465 -58.5802
29.4641 32.2465 15.0018
31.3895 32.2465 -14.2971
37.6113 32.2465 36.0347
-4.7353 32.2465 -1.7187
28.9812 32.2465 50.1700
13.0566 32.2465 -52.1213
27.1315 32.2465 -16.9523
39.4862 32.2465 -20.2177
-27.3208 32.2465 -37.2188
17.9509 32.2465 19.0286
-51.0627 32.2465 -22.6449
-5.7882 32.2465 -39.7563
18.4340 32.2465 29.1103
32.7561 32.2465 25.9845
41.3402 32.2465 15.2878
-50.9765 32.2465 5.4282
7.0502 32.2465 -9.2565
21.3698 32.2465 -31.2428
-1.0222 32.2465 -16.4244
5.4079 32.2465 -28.7081
-24.4506 32.2465 -32.6875
7.9849 32.2465 37.5560
-30.5332 32.2465 -53.0902
-45.7563 32.2465 49.1872
-50.0554 32.2465 -36.0809
29.3644 32.2465 -35.6610
36.4698 32.2465 55.5294
33.0812 32.2465 30.2329
-13.9228 -32.2465 36.7336
-2.1262 -32.2465 -41.3086
34.4754 -32.2465 -52.9844
22.5037 -32.2465 -13.3763
35.2205 -32.2465 36.7084
52.5393 -32.2465 -20.7907
38.5291 -32.2465 -47.8264
-52.3161 -32.2465 -27.1974
-42.9006 -32.2465 -22.3548
29.3708 -32.2465 -49.7144
-1.2058 -32.2465 -26.3592
-27.9949 -32.2465 -48.7246
-39.9855 -32.2465 -46.2728
39.4271 -32.2465 19.3221
-49.2423 -32.2465 -5.3366
53.4736 -32.2465 57.0326
-0.2635 -32.2465 13.8750
40.3219 -32.2465 24.4392
-18.1076 -32.2465 -21.8156
4.0085 -32.2465 3.3641
-13.8485 -32.2465 41.5558
27.1668 -32.2465 -61.1927
-30.6497 -32.2465 3.5291
-0.7846 -32.2465 19.8802
55.0041 -32.2465 -19.5348
-3.6400 -32.2465 58.1526
-28.4193 -32.2465 32.6109
-42.8353 -32.2465 -9.2013
27.2329 -32.2465 40.5481
15.3016 -32.2465 -16.0862
-36.9387 -32.2465 -22.3416
-14.2385 -32.2465 -53.0268
30.0971 -32.2465 -4.3390
32.2232 -32.2465 -26.2912
32.3656 -32.2465 15.8443
7.9425 -32.2465 -17.4771
4.6100 -32.2465 43.9450
31.1165 -32.2465 -37.5705
12.0792 -32.2465 -58.7878
-15.5210 -32.2465 -55.0140
-26.9121 -32.2465 -60.4730
-12.8719 -32.2465 -53.7511
39.2546 -32.2465 -16.1731
-49.3907 -32.2465 51.2358
41.7484 -32.2465 38.6562
0.3728 -32.2465 -55.3064
-43.0555 -32.2465 -17.3555
31.5436 -32.2465 35.8664
-27.6473 -32.2465 31.7918
9.3258 -32.2465 -48.0088
-10.4552 -32.2465 36.3926
51.6351 -32.2465 -28.6031
-31.0954 -32.2465 -47.8022
36.1851 -32.2465 -32.4209
47.9743 -32.2465 -18.8461
-0.8711 -32.2465 -46.8381
-16.3783 -32.2465 22.7861
-25.1559 -32.2465 57.3470
-19.4731 -32.2465 55.4659
47.3390 -32.2465 -9.7915
-0.9016 -32.2465 44.1180
50.6537 -32.2465 -31.9150
53.0984 -32.2465 -26.0328
52.9987 -32.2465 -7.7200
56.9367 -32.2465 11.0203
-25.3475 -32.2465 -14.5257
31.7242 -32.2465 -13.8568
-0.6930 -32.2465 -27.5042
-37.7729 -32.2465 48.3224
27.2740 -32.2465 -0.0856
-18.0756 -32.2465 55.9577
38.3725 -32.2465 -23.4916
53.2166 -32.2465 10.6127
38.9722 -32.2465 -3.0857
-12.6449 -32.2465 -22.0292
-49.2230 -32.2465 9.5156
2.4889 -32.2465 -44.4190
29.3081 -32.2465 30.2341
-53.6132 -32.2465 -33.2526
-10.0563 -32.2465 -43.4476
36.7029 -32.2465 50.1946
-29.5507 -32.2465 -6.4069
48.6793 -32.2465 56.2256
-3.5414 -32.2465 11.6994
4.9205 -32.2465 26.2635
-12.8191 -32.2465 23.0678
8.7895 -32.2465 23.5588
-23.0074 -32.2465 -60.8086
-5.0720 -32.2465 14.1338
43.9391 -32.2465 10.7094
34.7975 -32.2465 20.8985
33.6365 -32.2465 25.0534
-15.5895 -32.2465 50.2264
-21.2467 -32.2465 -5.9370
18.1665 -32.2465 22.8480
-38.0764 -32.2465 22.2838
37.8531 -32.2465 36.0491
-23.3173 -32.2465 5.8924
0.5830 -32.2465 -49.6118
-11.7925 -32.2465 30.3699
-57.1846 -32.2465 -2.3595
25.8499 -32.2465 -58.2604
13.3161 -32.2465 -48.9538
-0.6717 -32.2465 -60.6531
26.9839 -32.2465 7.2759
-27.6678 -32.2465 53.4547
33.6578 -32.2465 56.5239
29.9272 -32.2465 -35.7242
-4.9626 -32.2465 13.6139
46.5529 -32.2465 -14.3054
-17.5724 -32.2465 -51.1987
-56.6127 -32.2465 38.6579
-32.9176 -32.2465 51.9134
-21.8431 -32.2465 60.5720
55.6129 -32.2465 -36.2883
-36.9203 -32.2465 -52.9290
53.5442 -32.2465 -0.9144
53.5692 -32.2465 -35.1108
27.3295 -32.2465 -57.3720
-54.5620 -32.2465 -0.7328
1.4290 -32.2465 45.1601
36.0249 -32.2465 59.0857
16.4338 -32.2465 15.3454
-32.6741 -32.2465 -54.7648
-4.1722 -32.2465 -42.1398
21.5189 -32.2465 -44.3869
25.9391 -32.2465 -21.1573
47.9329 -32.2465 49.0750
50.9773 -32.2465 52.9390
6.2556 -32.2465 44.0574
47.4752 -32.2465 -11.3083
-37.2789 -32.2465 -45.1085
31.3360 -32.2465 39.2279
31.7807 -32.2465 -19.8245
51.1777 -32.2465 -23.7959
-23.5939 -32.2465 9.6353
-42.8011 -32.2465 -56.6314
-10.1099 -32.2465 -23.7390
43.3471 -32.2465 -19.3129
52.2828 -32.2465 -50.4829
46.9208 -32.2465 -1.1391
-48.2083 -32.2465 36.2898
-55.0219 -32.2465 -41.4350
-56.9501 -32.2465 -5.6972
6.0727 -32.2465 -20.4893
39.4273 -32.2465 -0.6294
-52.1338 -32.2465 -20.4156
39.7524 -32.2465 -33.1172
-16.9137 -32.2465 53.2687
-34.5414 -32.2465 37.5780
-3.2417 -32.2465 -2.0795
-7.2956 -32.2465 -60.5012
-46.8146 -32.2465 -40.4477
40.9606 -32.2465 -37.5156
31.1788 -32.2465 -12.7415
-53.7490 -32.2465 -49.0496
7.3255 -32.2465 -9.1605
38.0819 -32.2465 19.0478
-44.9951 -32.2465 -20.3671
32.1640 -32.2465 48.9506
-24.0945 -32.2465 -34.1339
31.5278 -32.2465 -5.3827
20.4229 -32.2465 3.0424
-26.0832 -32.2465 -14.5822
30.2264 -32.2465 38.0158
-49.2022 -32.2465 9.6766
-1.1688 -32.2465 43.3369
14.0316 -32.2465 24.5756
38.7172 -32.2465 2.4732
30.7474 -32.2465 -19.6895
-45.2593 -32.2465 38.8706
41.7714 13.9351 61.3964
16.3354 28.6742 61.3964
-6.1586 -18.2267 61.3964
10.2310 16.2690 61.3964
5.9229 -5.6993 61.3964
57.2611 1.7453 61.3964
2.9510 -30.4782 61.3964
49.0092 22.9973 61.3964
39.1218 16.6714 61.3964
-6.3458 10.7707 61.3964
-35.7145 -2.2404 61.3964
48.6179 21.1841 61.3964
-37.0630 31.3065 61.3964
-24.8238 -29.3510 61.3964
-23.7850 27.1625 61.3964
34.7546 -14.6292 61.3964
6.8301 22.7125 61.3964
-6.4634 -27.0967 61.3964
-50.7764 27.9569 61.3964
-33.0741 -27.9104 61.3964
-45.7619 -18.8359 61.3964
48.3347 -11.9725 61.3964
39.0295 10.4899 61.3964
19.1443 -26.7414 61.3964
-56.8107 -22.7873 61.3964
-47.5836 -12.6293 61.3964
3.8447 27.6046 61.3964
-21.5826 -19.5234 61.3964
35.7529 14.6099 61.3964
48.0215 -11.3958 61.3964
33.8104 17.7864 61.3964
37.7556 24.7558 61.3964
-23.6335 -0.3421 61.3964
44.6615 -15.7215 61.3964
53.0035 1.8780 61.3964
-27.6945 21.5503 61.3964
28.2470 27.6725 61.3964
8.4771 -9.9539 61.3964
47.8892 -6.4598 61.3964
17.5644 -16.7174 61.3964
-16.1235 -18.4125 61.3964
3.2120 18.1745 61.3964
-9.6207 24.1025 61.3964
-9.3797 -15.0563 61.3964
-28.1027 11.3264 61.3964
-20.5607 -31.7866 61.3964
-54.2897 -0.4573 61.3964
33.5510 -25.9641 61.3964
-35.7498 0.4962 61.3964
46.3257 -5.4258 61.3964
-42.8158 26.8050 61.3964
15.5237 -11.4953 61.3964
-47.6849 -18.3705 61.3964
52.7574 -21.4079 61.3964
-32.1051 -29.3478 61.3964
36.5838 28.9269 61.3964
-54.5716 -9.1269 61.3964
-23.1503 -31.1267 61.3964
-35.3668 13.9590 61.3964
17.2965 -29.1673 61.3964
1.0566 -21.6313 61.3964
2.6935 18.3016 61.3964
38.6929 0.6682 61.3964
-44.6154 -27.6800 61.3964
-17.8071 18.7828 61.3964
-13.0831 27.6091 61.3964
25.2745 12.9795 61.3964
-5.5396 24.6482 61.3964
-11.4878 -17.3487 61.3964
4.7648 28.3466 61.3964
-1.2692 25.8669 61.3964
4.7491 11.3056 61.3964
46.0595 19.6025 61.3964
-55.0731 -29.9900 61.3964
-50.8651 -15.1107 61.3964
-15.3938 26.7617 61.3964
-27.0080 10.0346 61.3964
-47.1570 -10.6444 61.3964
-2.4473 31.3003 61.3964
10.8973 20.7528 61.3964
1.6471 18.6752 61.3964
-14.8236 24.2318 61.3964
-45.4170 27.2769 61.3964
3.0684 30.2370 61.3964
2.4328 -28.1563 61.3964
48.3559 13.7698 61.3964
7.4948 -31.9000 61.3964
8.3736 -10.8924 61.3964
-1.3567 -28.0478 61.3964
-6.2754 23.9144 61.3964
42.1805 17.2416 61.3964
-15.2070 1.8344 61.3964
17.9833 4.4887 61.3964
25.2703 23.3188 61.3964
-22.1140 4.0949 61.3964
-19.8645 -9.9542 61.3964
36.9373 -29.3945 61.3964
-39.7606 0.2413 61.3964
-47.5674 -16.7443 61.3964
-57.3982 31.4997 61.3964
48.0052 -24.2465 61.3964
39.6737 1.7660 61.3964
4.7377 -10.9615 61.3964
20.4945 -15.6471 61.3964
-7.9084 -2.8948 61.3964
-25.6462 -26.8317 61.3964
-28.8455 -31.7642 61.3964
36.5358 1.3345 61.3964
-23.7243 -25.8877 61.3964
-29.5400 -26.1081 61.3964
26.1598 10.3167 61.3964
37.2930 13.2558 61.3964
-53.7832 24.8696 61.3964
22.3740 -14.7284 61.3964
41.1715 3.6065 61.3964
-24.7328 11.4039 61.3964
-16.7316 -7.1726 61.3964
-17.8252 -29.3661 61.3964
-43.7045 -5.7774 61.3964
-45.5642 -21.9687 61.3964
43.3091 11.1177 61.3964
47.3796 -21.2050 61.3964
21.8705 -3.5148 61.3964
-23.5471 -26.7161 61.3964
31.1823 31.3560 61.3964
56.1102 -6.0398 61.3964
19.5932 -29.4603 61.3964
-31.6046 30.7663 61.3964
-55.6481 -14.3858 61.3964
-14.3254 -23.4286 61.3964
-45.8533 -14.0044 61.3964
-31.7743 -14.9924 61.3964
31.9353 -20.1191 61.3964
20.9673 -28.2787 61.3964
-53.5961 -8.2630 61.3964
19.8994 11.7242 61.3964
13.3465 -29.7792 61.3964
-27.8723 -6.0478 61.3964
5.4080 21.3347 61.3964
19.1337 -6.8397 61.3964
-8.8724 4.2800 61.3964
23.3403 -30.1702 61.3964
-12.8350 21.8443 61.3964
-44.5830 -5.1450 61.3964
7.9114 18.0512 61.3964
51.5337 24.8610 61.3964
27.4506 -6.7886 61.3964
2.3220 23.2148 61.3964
-51.1114 -0.9162 61.3964
3.2885 -14.6168 61.3964
6.1181 -28.2799 61.3964
5.2953 -16.5676 61.3964
-54.0407 -16.0258 61.3964
-46.3342 17.3225 61.3964
21.7146 -25.0615 61.3964
-37.8625 19.4469 61.3964
-22.1879 -7.8972 61.3964
-51.1954 25.6676 61.3964
-36.4409 -4.0123 61.3964
43.7834 -1.7725 61.3964
-21.2984 16.5259 61.3964
3.8007 -4.3626 61.3964
-36.2880 22.7107 61.3964
-50.1679 18.7953 61.3964
-16.6206 7.5810 61.3964
-38.3377 7.3332 61.3964
-57.2671 14.0967 61.3964
-38.4829 -0.3276 61.3964
26.1006 24.7974 61.3964
-18.4006 -4.3124 61.3964
28.6922 0.7847 -61.3964
18.6848 -15.9944 -61.3964
-11.8168 0.0767 -61.3964
35.9003 4.8834 -61.3964
-7.6927 -23.5014 -61.3964
-16.6841 -8.4233 -61.3964
3.9337 24.3749 -61.3964
19.7072 26.6699 -61.3964
-21.1454 -10.2213 -61.3964
-57.0739 -29.9805 -61.3964
-37.0195 -8.3282 -61.3964
11.6943 24.6346 -61.3964
25.8059 8.7177 -61.3964
22.0360 5.4903 -61.3964
35.3719 -8.0993 -61.3964
-46.1333 22.9180 -61.3964
-32.6288 -3.4248 -61.3964
52.9649 7.2121 -61.3964
-20.1285 8.0752 -61.3964
-57.7060 19.9811 -61.3964
14.0182 29.8994 -61.3964
29.2450 -13.2056 -61.3964
-22.4498 -17.7249 -61.3964
48.8637 -13.9897 -61.3964
-3.3601 -18.5208 -61.3964
-43.2366 1.4553 -61.3964
45.1353 -27.8202 -61.3964
13.9812 -4.9127 -61.3964
52.5313 28.5594 -61.3964
8.3773 -19.7980 -61.3964
-37.9050 11.7863 -61.3964
-24.9769 20.3302 -61.3964
11.3602 -2.1757 -61.3964
-17.2339 -29.5072 -61.3964
-55.8773 -21.8962 -61.3964
-9.7285 29.7356 -61.3964
8.7284 -1.1592 -61.3964
-49.3260 -20.3619 -61.3964
-26.3917 -17.4526 -61.3964
21.6749 3.2115 -61.3964
50.7791 -28.3562 -61.3964
51.3425 -30.0709 -61.3964
-51.1003 -5.5973 -61.3964
-10.9637 22.2292 -61.3964
-31.3292 -2.9575 -61.3964
45.5980 4.2023 -61.3964
44.2953 30.1678 -61.3964
-4.5958 2.7045 -61.3964
-9.1030 -2.5258 -61.3964
-41.7582 -31.1814 -61.3964
-38.5911 21.5823 -61.3964
20.7186 -0.4356 -61.3964
20.7975 -27.9968 -61.3964
-20.1403 -20.4299 -61.3964
31.9876 26.9454 -61.3964
49.5172 9.0820 -61.3964
-17.3454 -0.0387 -61.3964
36.2343 -20.5323 -61.3964
3.5542 18.3062 -61.3964
49.1053 -29.1798 -61.3964
27.9143 -31.2146 -61.3964
13.7219 22.6885 -61.3964
1.2732 -22.2997 -61.3964
-3.6647 -4.6495 -61.3964
-4.5729 23.4177 -61.3964
-56.6348 -8.5962 -61.3964
49.0284 -30.3022 -61.3964
-7.6067 -26.4866 -61.3964
36.3842 22.3031 -61.3964
-52.9840 23.9275 -61.3964
14.6762 -0.2584 -61.3964
-7.4058 31.7611 -61.3964
-28.6132 19.9366 -61.3964
-47.8646 23.0258 -61.3964
32.4301 -5.6986 -61.3964
-44.6230 -20.9091 -61.3964
48.7116 -28.4455 -61.3964
11.3105 -26.5881 -61.3964
53.0609 -7.0450 -61.3964
8.9307 -11.8960 -61.3964
-14.8549 -11.8896 -61.3964
55.1846 -9.8999 -61.3964
-3.3893 1.4704 -61.3964
37.4742 -19.8197 -61.3964
-24.2281 3.8732 -61.3964
47.6903 4.3074 -61.3964
-47.9529 -8.2170 -61.3964
52.0202 6.4535 -61.3964
7.9221 -11.8613 -61.3964
-44.4764 -6.0134 -61.3964
41.1107 -26.7816 -61.3964
-34.8950 -25.6560 -61.3964
-55.0170 8.6961 -61.3964
-28.5180 0.4748 -61.3964
18.1404 3.4343 -61.3964
-10.4080 -26.9177 -61.3964
-2.7493 -6.9159 -61.3964
16.2970 3.9038 -61.3964
6.6586 -22.7816 -61.3964
-34.6275 -2.0860 -61.3964
34.8340 27.1864 -61.3964
47.4488 -15.9628 -61.3964
30.9648 15.2423 -61.3964
-50.8432 12.3584 -61.3964
-11.5205 10.0136 -61.3964
53.5071 -8.4648 -61.3964
-18.6213 -6.8301 -61.3964
30.1815 2.5755 -61.3964
-39.5771 27.9769 -61.3964
22.0765 -10.9942 -61.3964
-53.3047 31.3015 -61.3964
-56.8514 -27.1909 -61.3964
4.7071 -11.1824 -61.3964
16.9685 -20.9612 -61.3964
31.9016 -9.2972 -61.3964
29.0561 -21.5487 -61.3964
-7.5052 25.8067 -61.3964
26.8039 24.6741 -61.3964
-27.4345 32.1678 -61.3964
54.1684 -16.5633 -61.3964
57.5308 -31.6254 -61.3964
22.5911 7.5515 -61.3964
52.8358 -8.9782 -61.3964
-25.3319 -26.9845 -61.3964
-8.5768 -17.7035 -61.3964
18.7176 9.0614 -61.3964
13.8313 26.4455 -61.3964
22.1343 13.8047 -61.3964
-6.6801 10.2227 -61.3964
41.5972 30.0246 -61.3964
26.2056 -14.7081 -61.3964
-11.5144 16.6203 -61.3964
44.4461 -2.9015 -61.3964
-6.9854 11.0495 -61.3964
14.0772 -29.7785 -61.3964
-36.7871 20.7522 -61.3964
27.3327 -7.3551 -61.3964
13.4497 -21.2904 -61.3964
-51.5313 1.3906 -61.3964
4.5782 9.3693 -61.3964
-17.2976 16.4254 -61.3964
5.7878 -6.1875 -61.3964
-21.7728 -13.4473 -61.3964
-8.6327 13.4527 -61.3964
-8.1667 11.3211 -61.3964
-17.5385 16.3186 -61.3964
-23.2393 -32.1223 -61.3964
23.9199 -29.6492 -61.3964
53.0890 4.9777 -61.3964
-53.8643 -17.5988 -61.3964
-13.2705 26.0590 -61.3964
36.4266 11.8059 -61.3964
32.3983 1.3617 -61.3964
56.6162 8.6892 -61.3964
-12.2662 -9.1523 -61.3964
7.0498 12.3459 -61.3964
-47.0973 19.5863 -61.3964
-44.1861 -26.5971 -61.3964
-49.2737 -16.5885 -61.3964
29.4089 -29.1912 -61.3964
19.7945 19.8415 -61.3964
47.6452 -27.2884 -61.3964
25.5345 -15.4338 -61.3964
-54.7214 -19.0609 -61.3964
-19.3113 11.0620 -61.3964
-22.8876 29.2888 -61.3964
49.4068 -15.0166 -61.3964
-45.1102 -30.3406 -61.3964
38.9518 9.7271 -61.3964
32.9985 -13.4156 -61.3964
