ply
format ascii 1.0
element vertex 1024
property float x
property float y
property float z
end_header
65.6860 47.3379 7.9258
65.6860 -29.9351 -45.3193
65.6860 -21.2436 -65.1275
65.6860 23.0086 21.1862
65.6860 -1.1176 28.6965
65.6860 12.7376 66.4347
65.6860 42.5364 -44.8586
65.6860 -20.9374 50.1110
65.6860 20.8485 4.1390
65.6860 -21.7722 -42.4847
65.6860 -23.5748 71.4468
65.6860 -22.5936 26.4222
65.6860 -21.3525 -6.4351
65.6860 36.8488 -4.7100
65.6860 34.8712 28.9158
65.6860 -9.1178 -58.5582
65.6860 31.8949 -18.9285
65.6860 1.6280 -46.1773
65.6860 -26.4976 54.5746
65.6860 20.2567 -56.4883
65.6860 36.7426 64.0081
65.6860 -42.6962 7.5410
65.6860 -43.2873 -54.2480
65.6860 45.2204 -69.7985
65.6860 -29.2595 -53.6847
65.6860 17.4475 65.7146
65.6860 -44.5402 -3.8527
65.6860 7.7784 -8.8256
65.6860 -43.5419 69.3813
65.6860 21.8063 -35.6105
65.6860 3.7402 72.9459
65.6860 3.0635 -13.2122
65.6860 -13.2734 -71.9335
65.6860 30.9635 -63.6988
65.6860 -27.0462 56.2054
65.6860 47.3652 -40.8365
65.6860 -1.5463 14.9895
65.6860 -45.8493 -56.2943
65.6860 31.8064 16.0029
65.6860 30.9060 56.1615
65.6860 37.7467 -42.7891
65.6860 -38.5805 36.7163
65.6860 11.8464 -54.9800
65.6860 -12.9927 -64.8986
65.6860 -27.7831 -70.0324
65.6860 -1.3122 32.5537
65.6860 38.5293 -66.5037
65.6860 -31.6774 15.4204
65.6860 -4.9089 -46.7755
65.6860 22.0578 -27.8385
65.6860 15.3863 -17.7354
65.6860 27.7296 -48.7979
65.6860 30.0962 -26.8974
65.6860 37.0032 -44.8515
65.6860 8.0549 8.0543
65.6860 -42.5326 49.6092
65.6860 -25.4229 -42.4340
65.6860 20.2665 -21.8668
65.6860 -45.5388 68.1183
65.6860 -25.1035 40.4596
65.6860 -18.1452 51.4556
65.6860 -40.6912 38.8368
65.6860 -9.9496 -44.1375
65.6860 3.0110 -63.9083
65.6860 -30.1782 -11.2447
65.6860 -33.3095 46.6255
65.6860 -23.7562 -36.8469
65.6860 -37.1068 -18.9970
65.6860 -38.9120 -32.7462
65.6860 -23.7361 62.3678
65.6860 4.6746 18.1801
65.6860 8.5975 29.4759
65.6860 -44.8705 45.0607
65.6860 -21.2889 -66.1513
65.6860 20.9950 9.3333
65.6860 -33.4802 -8.1475
65.6860 -30.5003 10.8018
65.6860 -16.2325 -70.5423
65.6860 43.0176 42.9511
65.6860 -27.3565 -41.1671
65.6860 17.6003 -40.2263
65.6860 -28.1185 41.0839
65.6860 1.0621 -51.7636
65.6860 -0.7516 69.2920
65.6860 -39.7221 -46.0003
65.6860 32.8985 72.6747
65.6860 -3.9515 37.9193
65.6860 -30.2377 -10.8411
65.6860 45.4995 37.0321
65.6860 14.8955 -41.7782
65.6860 -2.3442 26.2119
65.6860 -19.9179 17.9775
65.6860 -11.2299 28.7749
65.6860 -36.2345 -65.7308
65.6860 22.8985 17.4353
65.6860 24.8929 -16.4944
65.6860 -37.8770 25.0368
65.6860 3.3035 3.8144
65.6860 -23.0397 -7.5558
65.6860 41.6108 6.3490
65.6860 11.0743 55.5297
65.6860 -34.7505 -5.8232
65.6860 32.9801 18.2032
65.6860 32.6602 -67.7673
65.6860 34.8253 48.8950
65.6860 30.7555 -63.8135
65.6860 21.1537 -71.7590
65.6860 -43.3707 -1.2960
65.6860 -23.7960 1.8690
65.6860 3.2845 3.2314
65.6860 44.2329 21.6021
65.6860 39.7617 7.4628
65.6860 -16.7296 -24.9284
65.6860 1.8402 60.7246
65.6860 16.9969 -13.5836
65.6860 -42.7607 2.6273
65.6860 -35.5424 -17.7453
65.6860 31.9406 -2.7451
65.6860 -3.3701 -1.8114
65.6860 -41.0007 62.3638
65.6860 -15.1280 -48.6292
65.6860 19.6618 -17.6520
65.6860 21.4323 21.3401
65.6860 -5.2008 27.2123
65.6860 5.2058 8.9419
65.6860 -40.6238 36.7622
65.6860 1.6567 7.6999
65.6860 -3.8601 -68.3560
65.6860 15.0747 58.3262
65.6860 -27.3950 -13.5430
65.6860 -37.2949 64.7266
65.6860 -37.9332 58.8430
65.6860 -41.8155 -59.0371
65.6860 18.3707 22.6324
65.6860 -41.0210 25.3805
65.6860 -17.0927 -33.9216
65.6860 18.8525 -42.7968
65.6860 -29.5892 4.3571
65.6860 -22.7346 -49.3780
65.6860 35.9935 32.0108
65.6860 27.0269 40.1132
65.6860 -18.3704 -35.1249
65.6860 -0.0650 15.8300
65.6860 42.4745 6.1186
65.6860 -34.6793 32.4921
65.6860 -40.2160 58.7671
65.6860 -12.6981 -10.8592
65.6860 15.9195 4.7475
65.6860 26.8921 40.6601
65.6860 -27.5268 -36.0829
65.6860 -40.1218 -59.0104
65.6860 46.8093 44.7204
65.6860 8.6283 21.4106
65.6860 -17.6850 58.0095
65.6860 10.0856 8.8934
65.6860 -10.6212 -61.1290
65.6860 -27.5300 -19.8614
65.6860 27.0999 22.1220
65.6860 -21.9521 71.4331
65.6860 38.6456 16.6522
65.6860 -29.3371 -52.8462
65.6860 -35.0257 48.4081
65.6860 -25.3113 -12.2381
65.6860 -42.4153 -16.3494
65.6860 1.1332 -32.7927
65.6860 -5.3274 2.2640
65.6860 7.9311 47.3722
65.6860 0.0393 36.8641
65.6860 30.6666 20.9098
65.6860 -25.5779 -34.1061
65.6860 34.9779 28.4498
-65.6860 -44.7977 30.9787
-65.6860 -40.1323 23.2042
-65.6860 -27.8540 -2.9669
-65.6860 -27.1318 53.8565
-65.6860 -40.9522 -59.9269
-65.6860 27.6994 45.1364
-65.6860 -40.1318 8.4058
-65.6860 -13.1699 52.5397
-65.6860 16.6027 6.8182
-65.6860 -4.0025 -31.0546
-65.6860 -38.0429 -71.0323
-65.6860 23.7264 29.3289
-65.6860 24.2164 48.8206
-65.6860 -43.9621 -63.3850
-65.6860 -47.0200 64.2141
-65.6860 4.9474 45.2662
-65.6860 -40.0014 -64.3371
-65.6860 30.2217 49.0275
-65.6860 42.0266 -66.4440
-65.6860 19.0780 -1.9736
-65.6860 27.5276 -69.1671
-65.6860 -15.2723 -16.6008
-65.6860 35.9785 -43.5429
-65.6860 41.6777 -14.9134
-65.6860 -13.0025 17.1984
-65.6860 -2.5883 24.6516
-65.6860 15.3593 28.4968
-65.6860 22.0286 64.5278
-65.6860 45.7528 -40.2675
-65.6860 28.4934 26.8289
-65.6860 -18.7870 -22.0542
-65.6860 41.3381 15.3429
-65.6860 11.4443 61.5144
-65.6860 -46.3422 38.9761
-65.6860 -25.7348 -52.0317
-65.6860 -1.2679 -69.5933
-65.6860 -22.9883 9.4200
-65.6860 -30.9682 -26.4147
-65.6860 21.5505 23.9357
-65.6860 11.8843 46.0546
-65.6860 26.1886 -51.0285
-65.6860 1.6773 37.7450
-65.6860 -25.6316 19.6857
-65.6860 -14.8952 8.2667
-65.6860 28.6625 -39.8670
-65.6860 -43.1412 -63.9674
-65.6860 43.1281 -7.0759
-65.6860 -5.2206 -0.6164
-65.6860 -42.0714 35.8262
-65.6860 34.6891 65.5168
-65.6860 35.1605 -47.7219
-65.6860 -10.3274 -11.0904
-65.6860 -16.8915 44.0221
-65.6860 -7.4697 52.0961
-65.6860 34.4743 22.9479
-65.6860 25.5303 17.4353
-65.6860 -28.0094 4.5872
-65.6860 5.8958 25.7115
-65.6860 24.3448 59.5893
-65.6860 41.2025 -64.4102
-65.6860 -7.1825 16.6877
-65.6860 -27.6685 -27.8462
-65.6860 -15.9854 -23.0952
-65.6860 -15.3917 4.9247
-65.6860 25.3440 61.5876
-65.6860 -6.0666 62.8778
-65.6860 -17.1621 67.6349
-65.6860 -8.0694 -71.5616
-65.6860 36.3500 -16.5407
-65.6860 43.6788 70.9683
-65.6860 -20.8836 32.8716
-65.6860 6.4453 -4.1216
-65.6860 -40.7055 64.4553
-65.6860 -39.1871 -1.6781
-65.6860 5.3056 -67.2844
-65.6860 -46.0492 -4.9925
-65.6860 1.0255 12.6848
-65.6860 14.4296 -32.7624
-65.6860 5.0669 -24.6435
-65.6860 -10.3550 -70.4420
-65.6860 36.2079 63.2809
-65.6860 -18.6998 -72.7740
-65.6860 -20.7291 69.5848
-65.6860 24.5775 54.4228
-65.6860 45.4366 44.0838
-65.6860 -2.1454 61.1403
-65.6860 22.3540 -29.9883
-65.6860 28.1147 36.7427
-65.6860 -30.7035 66.4000
-65.6860 -46.0174 -60.9874
-65.6860 40.5262 -62.8132
-65.6860 -42.3012 53.0387
-65.6860 -47.2837 -71.7340
-65.6860 -31.5853 -45.5445
-65.6860 25.5116 64.3342
-65.6860 6.1242 19.2878
-65.6860 24.2879 8.4976
-65.6860 -35.0270 -1.2554
-65.6860 -41.7637 71.6286
-65.6860 -1.3954 15.3638
-65.6860 -18.7784 -15.6946
-65.6860 2.2035 -2.0097
-65.6860 31.0075 -61.6955
-65.6860 14.2876 -16.8111
-65.6860 -12.7276 -16.2849
-65.6860 44.1085 34.3227
-65.6860 44.8119 -13.8158
-65.6860 27.7805 27.8636
-65.6860 -12.5584 35.8384
-65.6860 -25.7310 47.9202
-65.6860 -19.9291 12.8861
-65.6860 47.0786 -32.1151
-65.6860 41.7943 -53.3916
-65.6860 -6.7625 -33.6275
-65.6860 2.6887 -25.7150
-65.6860 -25.6629 32.0861
-65.6860 -1.9220 -16.0295
-65.6860 -19.9260 61.7074
-65.6860 36.0663 9.3853
-65.6860 6.4297 54.3431
-65.6860 -39.6865 68.6811
-65.6860 -21.2499 19.1731
-65.6860 35.4354 -45.9411
-65.6860 -42.9499 -31.2878
-65.6860 -25.1686 60.2857
-65.6860 -39.2505 -26.1892
-65.6860 9.0212 -27.1334
-65.6860 -15.0684 -48.2351
-65.6860 -6.8609 6.5513
-65.6860 -21.9149 24.7828
-65.6860 8.0117 -47.9156
-65.6860 43.8446 -43.9535
-65.6860 -32.9110 -52.0194
-65.6860 25.6263 34.9906
-65.6860 -33.3491 50.6860
-65.6860 -11.6020 -17.3914
-65.6860 5.0556 57.3026
-65.6860 -41.0925 -44.8357
-65.6860 27.4465 -7.6782
-65.6860 29.1667 -43.0171
-65.6860 -10.5586 35.9807
-65.6860 44.7643 21.2859
-65.6860 13.3120 -51.9512
-65.6860 46.0170 -22.6650
-65.6860 21.5955 60.6152
-65.6860 31.1614 54.3201
-65.6860 45.1409 -3.3185
-65.6860 30.3208 -24.8574
-65.6860 -11.2410 51.4745
-65.6860 31.2714 46.0189
-65.6860 -8.5093 -20.8896
-65.6860 38.2376 23.7063
-65.6860 19.7505 55.1541
-65.6860 19.6540 -9.9830
-65.6860 32.7771 -37.2141
-65.6860 19.6953 -37.8485
-65.6860 1.8382 -7.2621
-65.6860 -42.0812 45.9928
-65.6860 -16.8733 54.4475
-65.6860 -21.6323 -60.0166
-65.6860 -43.7739 45.8824
-65.6860 26.8884 -3.4803
-65.6860 -13.5457 19.0872
-65.6860 4.3578 -42.5463
-65.6860 -7.9513 17.9026
-65.6860 -41.3561 6.6854
-65.6860 46.5606 -46.7564
-65.6860 16.7915 -52.1006
-65.6860 -0.2396 9.7176
-65.6860 41.6279 -29.9980
-65.6860 -19.3197 -24.1457
-50.8191 47.3999 -21.4848
38.6846 47.3999 -60.8481
-56.1520 47.3999 2.4567
-51.2947 47.3999 -8.3885
4.9326 47.3999 65.8869
-42.3524 47.3999 -71.9129
47.1010 47.3999 47.5323
4.3038 47.3999 35.3648
56.8883 47.3999 1.4449
-14.4197 47.3999 44.2586
-56.9527 47.3999 19.4045
7.7071 47.3999 13.0928
20.8592 47.3999 -62.7758
14.0714 47.3999 -67.3444
38.2628 47.3999 -6.4557
61.8336 47.3999 14.8148
51.5521 47.3999 -35.4790
11.6194 47.3999 44.0310
-61.7686 47.3999 -38.8359
-51.4484 47.3999 41.0065
-62.7773 47.3999 62.2760
-1.2201 47.3999 0.6312
-50.1532 47.3999 7.6088
-51.5816 47.3999 39.5361
14.2483 47.3999 -35.6055
17.5935 47.3999 -67.6494
-56.6767 47.3999 -67.6579
59.4595 47.3999 -39.2484
46.3031 47.3999 68.6660
-2.6240 47.3999 33.3663
13.9784 47.3999 10.5041
-40.5564 47.3999 -14.5759
-14.9226 47.3999 64.4621
-50.1643 47.3999 -10.7979
-30.2856 47.3999 -1.8927
35.3901 47.3999 55.2705
45.1151 47.3999 -54.3404
44.3434 47.3999 -37.5226
-52.7208 47.3999 -69.8725
-14.1520 47.3999 -3.5774
51.6233 47.3999 58.3249
-16.1101 47.3999 60.4168
-17.7237 47.3999 -63.1083
23.6418 47.3999 -69.3902
-24.3814 47.3999 71.1085
-0.5862 47.3999 66.7294
55.5271 47.3999 34.9900
-56.9696 47.3999 3.5210
2.4826 47.3999 -72.9524
-43.1916 47.3999 -12.2464
23.9618 47.3999 -12.4967
53.7841 47.3999 -38.1960
38.0324 47.3999 54.7436
-32.8620 47.3999 67.5886
12.2231 47.3999 -71.8143
-58.7112 47.3999 5.7478
-10.6198 47.3999 -63.1591
12.4503 47.3999 -57.3251
22.8018 47.3999 -27.7567
-23.5231 47.3999 -53.5696
-28.3223 47.3999 11.4741
-8.2691 47.3999 13.7910
-57.9219 47.3999 -9.4343
42.4370 47.3999 -59.3843
22.7053 47.3999 -61.3354
51.8545 47.3999 -62.9369
-57.8908 47.3999 1.4417
64.0865 47.3999 4.5762
5.9357 47.3999 -3.6133
-52.4547 47.3999 27.4241
39.5351 47.3999 29.9050
14.0764 47.3999 30.3869
-10.2374 47.3999 -55.5423
57.7537 47.3999 -61.0451
59.9706 47.3999 -2.4713
-54.9180 47.3999 -19.7748
60.7186 47.3999 -18.3232
52.5291 47.3999 -43.6861
48.1637 47.3999 -8.2766
43.5482 47.3999 -64.8188
48.4960 47.3999 -28.9468
31.3433 47.3999 31.4121
0.7750 47.3999 -43.7570
21.6944 47.3999 -10.1500
-58.1592 47.3999 -45.9317
39.7146 47.3999 68.8571
21.4414 47.3999 14.3021
-15.6010 47.3999 19.6584
-20.2423 47.3999 63.5521
25.5575 47.3999 63.7499
-18.7228 47.3999 37.3388
11.5914 47.3999 15.7155
31.1503 47.3999 -52.3178
-20.4766 47.3999 68.5680
39.8381 47.3999 -44.5190
61.5839 47.3999 36.6389
47.3397 47.3999 -72.5234
33.2876 47.3999 -37.6554
-5.3369 47.3999 -42.2340
14.2837 47.3999 -15.7205
59.7873 47.3999 -7.5991
-22.8321 47.3999 -53.3225
-4.9282 47.3999 71.1112
58.5465 47.3999 71.9252
-45.0250 47.3999 45.5171
41.2073 47.3999 -51.1393
31.4236 47.3999 69.4889
-15.0616 47.3999 -27.9563
-37.6859 47.3999 -65.6121
-29.3691 47.3999 27.9918
29.1491 47.3999 -58.3430
42.4788 47.3999 15.2188
-62.8150 47.3999 26.4690
40.0313 47.3999 59.0007
-21.2680 47.3999 9.9772
-31.0949 47.3999 -62.1000
-27.4622 47.3999 -33.8988
64.7118 47.3999 -66.1269
-36.4095 47.3999 6.1856
-0.5441 47.3999 -17.0255
59.5456 47.3999 54.5987
-38.3754 47.3999 26.3358
28.1685 47.3999 3.1676
12.7158 47.3999 6.5178
22.8849 47.3999 -54.2053
-33.7603 47.3999 -16.0149
-36.2290 47.3999 -9.5560
-34.9542 47.3999 -60.2511
-54.5598 47.3999 70.6085
49.0244 47.3999 -18.3050
-33.1744 47.3999 3.6917
33.2520 47.3999 -16.4021
53.7037 47.3999 -47.4347
35.3271 47.3999 65.2772
-17.0208 47.3999 32.5234
-24.4693 47.3999 37.5806
-61.9552 47.3999 -28.7989
-49.1842 47.3999 -17.9523
-20.6649 47.3999 -61.4394
-19.7372 47.3999 -4.6236
0.9375 47.3999 55.1217
-57.2119 47.3999 68.3716
13.0462 47.3999 7.3298
18.6037 47.3999 -38.5940
62.2756 47.3999 -34.2832
12.0723 47.3999 1.8199
1.3427 47.3999 -14.7361
58.2505 47.3999 -13.3004
39.5398 47.3999 -63.1145
-27.8280 47.3999 -20.1068
55.5227 47.3999 16.1306
-44.1798 47.3999 61.9001
26.7211 47.3999 18.5214
-63.6109 47.3999 33.6240
-22.8092 47.3999 28.3306
-16.7629 47.3999 15.8733
-53.5309 47.3999 -31.8689
-1.1909 47.3999 40.5800
27.4870 47.3999 -57.8911
55.2230 47.3999 64.8151
-28.2219 47.3999 -47.4050
21.5227 47.3999 16.2937
39.8017 47.3999 64.9118
-64.5059 47.3999 46.6254
52.7687 47.3999 -26.7593
56.6234 47.3999 11.1242
-31.5493 47.3999 -14.9463
40.9400 47.3999 33.6724
54.9403 47.3999 -43.5910
65.2664 47.3999 -14.4559
63.6225 47.3999 -43.0962
16.2895 -47.3999 -24.6862
-46.1893 -47.3999 5.1910
-30.5521 -47.3999 61.5277
-22.2299 -47.3999 -10.6310
-47.8765 -47.3999 -25.7018
45.6017 -47.3999 33.1173
37.2564 -47.3999 -15.2172
53.8798 -47.3999 -39.8691
-51.5436 -47.3999 31.3122
16.0776 -47.3999 -45.9741
-5.4594 -47.3999 -70.3917
9.4835 -47.3999 -67.0751
-7.4988 -47.3999 -35.4132
49.3112 -47.3999 -8.5187
-43.3011 -47.3999 9.5779
-16.3914 -47.3999 11.0736
31.1868 -47.3999 -65.4815
25.5908 -47.3999 -16.5780
47.8702 -47.3999 -43.2753
-22.1767 -47.3999 -45.6290
53.8684 -47.3999 -26.9388
-23.9500 -47.3999 6.6697
34.0965 -47.3999 25.5548
29.1494 -47.3999 -2.2961
-50.0321 -47.3999 44.1265
34.9696 -47.3999 21.9016
18.0475 -47.3999 -59.9695
-61.2530 -47.3999 12.0702
-50.5053 -47.3999 -23.3004
-50.5703 -47.3999 -65.8661
-8.2681 -47.3999 13.2698
59.4917 -47.3999 27.6909
-49.2526 -47.3999 0.7282
-16.7136 -47.3999 -46.9856
-46.9681 -47.3999 62.2555
58.7143 -47.3999 -5.5653
61.7369 -47.3999 -26.7333
63.3101 -47.3999 -70.2822
42.4937 -47.3999 28.2383
-21.1979 -47.3999 -33.2335
28.1638 -47.3999 -5.2574
64.0969 -47.3999 -55.0743
-51.0104 -47.3999 -15.0640
20.5453 -47.3999 28.2724
17.3130 -47.3999 -11.6315
-25.5716 -47.3999 -60.3738
38.1986 -47.3999 -39.5402
43.1581 -47.3999 -66.0870
10.8250 -47.3999 26.5150
61.9863 -47.3999 33.8217
-29.9734 -47.3999 3.3905
11.7783 -47.3999 -44.9978
-37.3706 -47.3999 -29.2250
51.7631 -47.3999 -13.3834
20.8391 -47.3999 64.1001
2.0196 -47.3999 -25.6231
-48.7377 -47.3999 -12.3691
1.5127 -47.3999 60.8118
27.9646 -47.3999 54.4502
36.2673 -47.3999 -36.1312
-39.2880 -47.3999 41.3939
60.0231 -47.3999 -68.3740
40.8999 -47.3999 -35.0047
-62.8588 -47.3999 21.5613
-15.1495 -47.3999 39.4085
11.1153 -47.3999 13.3949
-57.0312 -47.3999 71.0182
-54.0248 -47.3999 -58.9843
2.1063 -47.3999 9.7026
32.5805 -47.3999 36.5224
19.8335 -47.3999 1.6507
19.5342 -47.3999 60.1582
-42.9622 -47.3999 -36.8959
28.9657 -47.3999 67.6148
-41.9588 -47.3999 7.9077
-25.2575 -47.3999 64.4264
27.7366 -47.3999 58.1908
2.8985 -47.3999 67.7999
-62.0243 -47.3999 31.2916
-65.1863 -47.3999 23.7903
-60.5986 -47.3999 8.2609
23.4976 -47.3999 -32.9553
50.6169 -47.3999 -55.7226
46.3329 -47.3999 10.3927
49.8256 -47.3999 -22.0389
-16.8288 -47.3999 45.7698
-64.8727 -47.3999 34.4935
60.1693 -47.3999 -19.2921
10.7389 -47.3999 -25.1823
64.3817 -47.3999 16.9955
12.0644 -47.3999 34.0565
-33.4919 -47.3999 38.7637
43.9166 -47.3999 -38.1555
20.3546 -47.3999 57.0075
42.4665 -47.3999 -40.3844
-21.3412 -47.3999 31.0976
-62.7728 -47.3999 29.3481
38.7634 -47.3999 -26.5688
-23.4581 -47.3999 -39.1735
14.4239 -47.3999 30.5663
-22.0134 -47.3999 13.9832
50.2114 -47.3999 24.8119
28.8539 -47.3999 47.5336
-50.2137 -47.3999 -62.7260
47.5228 -47.3999 65.5257
5.7838 -47.3999 36.8922
-54.0940 -47.3999 59.7258
35.3087 -47.3999 9.8499
24.0255 -47.3999 31.5338
-25.4210 -47.3999 -7.6156
25.2071 -47.3999 66.1806
-43.9968 -47.3999 45.8907
-57.2366 -47.3999 60.1047
-13.2880 -47.3999 -18.5944
50.2828 -47.3999 -46.3078
-5.0581 -47.3999 -44.1022
-15.2624 -47.3999 37.8274
-59.8318 -47.3999 35.2397
14.0524 -47.3999 -19.8569
11.5572 -47.3999 -50.8791
37.1164 -47.3999 -59.2090
14.0928 -47.3999 0.7596
13.6343 -47.3999 -39.1636
-46.2062 -47.3999 -57.5461
4.8284 -47.3999 -50.5537
-48.3917 -47.3999 16.0867
24.4415 -47.3999 -23.3852
17.4462 -47.3999 15.2305
14.4029 -47.3999 -61.2861
-65.0864 -47.3999 2.8745
-57.1381 -47.3999 66.2929
44.6034 -47.3999 58.0816
51.6327 -47.3999 17.6768
-21.0120 -47.3999 -7.9469
30.8192 -47.3999 -66.2596
8.3363 -47.3999 0.9963
-14.1295 -47.3999 27.4532
-43.2826 -47.3999 51.3060
9.2290 -47.3999 59.7527
-44.0331 -47.3999 65.1076
-52.4019 -47.3999 7.0914
38.1444 -47.3999 -32.3042
63.9167 -47.3999 52.9342
-63.4011 -47.3999 -4.3010
29.2707 -47.3999 -59.5204
-33.4713 -47.3999 54.2391
18.8769 -47.3999 35.1205
11.6608 -47.3999 -34.6429
34.5114 -47.3999 22.3171
-31.5174 -47.3999 -17.3825
-47.5753 -47.3999 61.8879
-8.0694 -47.3999 34.6978
17.3733 -47.3999 -71.1085
53.6620 -47.3999 -71.6423
-9.8800 -47.3999 -67.2940
22.5997 -47.3999 20.7541
-43.4491 -47.3999 -39.2037
-20.4242 -47.3999 17.4667
-60.9408 -47.3999 25.3524
46.4913 -47.3999 45.4967
15.8870 -47.3999 -13.3678
29.4256 -47.3999 44.9469
-11.5042 -47.3999 -63.5558
-3.3010 -47.3999 -41.0235
-3.0923 -47.3999 -42.2306
-43.0499 -47.3999 72.2577
61.3348 -47.3999 13.0284
-14.5825 -47.3999 19.3665
-20.1107 -47.3999 -19.6379
16.1203 -47.3999 -50.1350
21.3008 -47.3999 -68.1020
-53.9154 -45.3709 72.9857
-62.9748 24.1031 72.9857
53.3245 17.3022 72.9857
-42.6611 -37.5956 72.9857
-55.2721 -1.9725 72.9857
52.4274 38.4320 72.9857
5.9536 27.0206 72.9857
-31.2598 -10.6271 72.9857
-38.3479 5.8419 72.9857
-47.9663 24.2397 72.9857
-25.6042 -25.6900 72.9857
-50.4240 18.2414 72.9857
5.5485 2.7089 72.9857
-40.7090 -14.9607 72.9857
56.6896 17.6218 72.9857
42.3098 14.6641 72.9857
-38.3226 -37.3393 72.9857
-54.5503 -25.7018 72.9857
5.7445 46.4231 72.9857
15.6955 21.1048 72.9857
-8.0034 45.1061 72.9857
-7.4761 38.0869 72.9857
37.6315 17.6107 72.9857
-50.8553 -17.5506 72.9857
-5.4043 33.0960 72.9857
-32.6643 -9.8105 72.9857
7.2757 41.7121 72.9857
57.2432 -25.3809 72.9857
-6.2302 -13.0336 72.9857
47.0312 38.8850 72.9857
55.5121 -31.0738 72.9857
-12.4858 -36.5196 72.9857
-20.2929 40.2465 72.9857
13.5539 -21.1113 72.9857
-40.0736 28.5300 72.9857
-49.2863 39.3171 72.9857
-63.0920 20.8074 72.9857
-28.2453 46.7283 72.9857
11.5036 23.3309 72.9857
43.2768 -26.7063 72.9857
-59.2969 -16.1946 72.9857
41.0158 2.0955 72.9857
-54.0758 -16.1119 72.9857
35.5621 20.5548 72.9857
39.4762 -9.1387 72.9857
-21.8212 23.9947 72.9857
59.1625 -26.5796 72.9857
15.1324 8.2903 72.9857
-58.2817 -7.8858 72.9857
5.7438 32.6858 72.9857
-3.2372 11.4985 72.9857
0.2640 13.2070 72.9857
-41.1123 19.2053 72.9857
-63.4689 9.0228 72.9857
22.8076 7.2002 72.9857
-7.7413 -9.2415 72.9857
-63.0201 39.7362 72.9857
-42.0900 25.3322 72.9857
-46.5872 14.0559 72.9857
-4.6423 1.5534 72.9857
58.1140 -35.5142 72.9857
-14.8278 -44.0805 72.9857
13.4894 -12.1902 72.9857
-25.6787 30.7936 72.9857
53.4317 10.0565 72.9857
-22.1211 -38.4604 72.9857
-22.2997 -27.4806 72.9857
0.4925 -4.0078 72.9857
-24.6124 -36.2013 72.9857
-4.6622 -39.7914 72.9857
19.5160 27.6931 72.9857
-8.3295 20.5733 72.9857
14.9393 11.9949 72.9857
-27.8361 25.6709 72.9857
24.1588 33.0785 72.9857
-25.1304 36.5963 72.9857
58.8676 -3.0469 72.9857
47.2949 -28.0385 72.9857
-5.4921 28.2098 72.9857
-20.0952 7.4859 72.9857
-40.0719 15.7755 72.9857
25.4456 18.3310 72.9857
52.1912 25.0457 72.9857
9.0076 8.0096 72.9857
-42.9229 -31.8704 72.9857
-27.8099 -21.4020 72.9857
-14.6821 15.4057 72.9857
-31.5916 40.1697 72.9857
65.0423 37.5951 72.9857
-51.5545 34.5295 72.9857
-36.9091 -15.0293 72.9857
-37.7900 0.7828 72.9857
-46.2900 19.8230 72.9857
-42.5032 12.9084 72.9857
36.8941 -31.9908 72.9857
33.3856 7.3820 72.9857
-0.8655 4.2882 72.9857
56.0911 -0.4904 72.9857
53.3117 -16.8936 72.9857
-49.4786 16.7196 72.9857
36.2583 33.9678 72.9857
-1.6904 -6.4071 72.9857
50.3267 -18.2249 72.9857
-64.1943 18.3358 72.9857
13.0666 41.6515 72.9857
63.4185 -38.3279 72.9857
-61.5069 -36.5723 72.9857
38.9085 13.6787 72.9857
50.1497 -8.2354 72.9857
-38.5533 20.6024 72.9857
-42.0810 -22.8993 72.9857
-2.8010 35.3242 72.9857
-24.8870 25.0042 72.9857
30.5826 -17.3070 72.9857
-32.6659 31.3057 72.9857
-16.2755 34.0537 72.9857
-52.5942 -0.7793 72.9857
-47.9930 22.7957 72.9857
-45.6147 45.4744 72.9857
-11.6133 -34.0302 72.9857
29.4882 40.5995 72.9857
14.4354 -3.0851 72.9857
16.8807 -8.7159 72.9857
-45.4095 11.7458 72.9857
2.8448 -19.6936 72.9857
47.9465 -4.7998 72.9857
-1.8487 24.9379 72.9857
36.5340 21.8624 72.9857
-21.6221 38.3707 72.9857
-42.8951 -18.9660 72.9857
-26.0693 38.7634 72.9857
42.2751 -12.1516 72.9857
-5.1247 33.7928 72.9857
17.9906 -9.4451 72.9857
-39.3679 -36.4417 72.9857
38.7437 -16.2539 72.9857
-11.0199 -5.7484 72.9857
-28.4811 -46.3676 72.9857
-51.7271 44.0789 72.9857
23.1490 -31.2608 72.9857
36.7246 -10.3502 72.9857
-11.6950 -19.2417 72.9857
60.5526 1.2338 72.9857
31.9081 -36.2485 72.9857
-20.1890 9.4925 72.9857
-5.9639 32.0731 72.9857
-21.7672 -6.9605 72.9857
-36.2245 -2.4511 72.9857
48.6485 21.1013 72.9857
-52.8406 -13.6415 72.9857
-61.4053 8.9558 72.9857
31.1181 45.8954 72.9857
-12.4131 -47.3526 72.9857
-40.8650 18.8750 72.9857
24.3319 31.9177 72.9857
47.8667 29.5922 72.9857
-54.5251 12.9235 72.9857
55.4226 -32.5633 72.9857
42.4061 10.2816 72.9857
-45.8124 -16.7627 72.9857
3.6047 -24.6356 72.9857
5.6619 18.1134 72.9857
45.0612 44.9340 72.9857
50.3313 14.8119 72.9857
-8.7641 -34.5080 72.9857
2.3471 1.2453 72.9857
-27.1230 -43.1609 72.9857
32.8416 -2.9335 72.9857
-4.4330 21.5248 72.9857
-55.1826 45.0230 72.9857
-15.9688 -5.0236 -72.9857
-57.4132 -40.8969 -72.9857
5.0841 39.3542 -72.9857
-12.8889 -14.6817 -72.9857
-54.9436 21.0647 -72.9857
38.0837 -14.4075 -72.9857
20.5601 -35.3680 -72.9857
-19.6003 -2.8222 -72.9857
-25.1881 -24.0518 -72.9857
43.2989 -28.3897 -72.9857
41.6588 17.0319 -72.9857
39.6908 36.9982 -72.9857
-30.1742 44.3682 -72.9857
-60.8983 -26.4071 -72.9857
63.5727 16.2415 -72.9857
-56.4611 -45.4891 -72.9857
25.9907 39.3900 -72.9857
22.6223 -3.9439 -72.9857
10.5423 22.7258 -72.9857
-11.6109 -30.0605 -72.9857
-14.1394 -40.8319 -72.9857
-23.0160 -34.9761 -72.9857
45.8112 -17.7558 -72.9857
8.7150 -4.9742 -72.9857
36.3114 18.7382 -72.9857
50.1935 -36.9055 -72.9857
25.9212 44.6483 -72.9857
51.8555 0.2775 -72.9857
37.7126 -27.9527 -72.9857
44.7207 34.0669 -72.9857
-35.3925 -17.6992 -72.9857
-51.8798 -18.8936 -72.9857
-11.7613 33.5214 -72.9857
-61.6789 39.7042 -72.9857
38.8104 -41.3615 -72.9857
49.2798 20.4982 -72.9857
33.2588 -27.8709 -72.9857
-22.4993 32.4374 -72.9857
62.2955 14.3923 -72.9857
39.0944 -25.7012 -72.9857
-56.9781 17.0125 -72.9857
-45.5733 12.4524 -72.9857
3.4849 -10.8603 -72.9857
-59.9454 -32.1147 -72.9857
-36.1882 -14.2496 -72.9857
41.9462 42.3569 -72.9857
2.4663 -43.5068 -72.9857
37.0945 34.7532 -72.9857
49.8723 -8.2396 -72.9857
-45.3084 40.1140 -72.9857
-30.9997 -10.5252 -72.9857
-47.6243 -39.9918 -72.9857
-33.3336 39.1109 -72.9857
56.3620 43.5357 -72.9857
-0.4575 -22.3551 -72.9857
15.6481 1.9829 -72.9857
7.6046 -20.9929 -72.9857
-34.3286 -42.8352 -72.9857
18.3815 38.3713 -72.9857
-37.0025 -23.1744 -72.9857
-58.7128 7.8499 -72.9857
-55.0028 18.0555 -72.9857
-20.0930 24.9317 -72.9857
59.1895 19.0710 -72.9857
28.8513 34.1266 -72.9857
35.7326 15.2990 -72.9857
-13.6461 3.6511 -72.9857
-12.3298 -27.0802 -72.9857
18.3877 18.1443 -72.9857
-55.0622 -25.6896 -72.9857
-36.9049 -17.4921 -72.9857
-25.6972 -20.6833 -72.9857
-25.4032 -31.6301 -72.9857
-57.0947 43.0869 -72.9857
17.7331 4.8349 -72.9857
42.0695 10.1309 -72.9857
57.2922 -14.5532 -72.9857
-8.8513 12.5950 -72.9857
-7.2601 31.1676 -72.9857
-50.2573 -42.6929 -72.9857
6.7657 -12.4036 -72.9857
-15.9394 21.6337 -72.9857
39.1203 -5.9411 -72.9857
56.3980 12.4444 -72.9857
11.5066 29.3636 -72.9857
51.6216 -33.4295 -72.9857
63.2070 -34.4275 -72.9857
56.1262 -29.8142 -72.9857
-3.0536 16.1743 -72.9857
-46.9704 -11.5551 -72.9857
-49.2973 -6.5737 -72.9857
36.3865 29.9427 -72.9857
-7.6299 7.1606 -72.9857
-17.9869 -23.3430 -72.9857
9.2883 -16.9926 -72.9857
-41.8304 -16.6559 -72.9857
65.4711 -31.7584 -72.9857
-38.4633 45.6029 -72.9857
-41.3432 -27.5874 -72.9857
21.3805 3.4923 -72.9857
-21.4400 39.5634 -72.9857
-24.1647 32.9053 -72.9857
8.3597 -22.0887 -72.9857
43.9787 22.1703 -72.9857
-35.3321 -29.2101 -72.9857
44.9436 -22.6347 -72.9857
12.1108 -38.3951 -72.9857
-4.3387 -14.5874 -72.9857
-13.9336 -18.2755 -72.9857
32.0348 41.0585 -72.9857
53.7017 -30.1645 -72.9857
33.0199 18.3180 -72.9857
55.2354 -2.3518 -72.9857
10.5944 -33.0849 -72.9857
6.5172 37.9392 -72.9857
50.5319 12.5599 -72.9857
7.1610 13.1084 -72.9857
-16.8324 36.9071 -72.9857
-40.0534 24.7258 -72.9857
-42.7460 -28.9024 -72.9857
-27.1700 40.2151 -72.9857
52.4356 15.6993 -72.9857
-62.9728 -29.4409 -72.9857
39.5019 38.3037 -72.9857
-8.3366 -6.0115 -72.9857
51.5077 -10.6918 -72.9857
49.8568 -39.1059 -72.9857
-39.2408 -42.9467 -72.9857
-8.4812 24.0532 -72.9857
25.7081 -21.0016 -72.9857
29.7643 8.9661 -72.9857
8.2943 2.7807 -72.9857
43.6117 44.5772 -72.9857
5.1080 5.4805 -72.9857
-41.2910 6.4513 -72.9857
-43.0220 16.0434 -72.9857
11.7387 9.3257 -72.9857
-9.7297 -30.0089 -72.9857
6.9541 -18.0865 -72.9857
25.7455 34.3217 -72.9857
-12.3451 -45.1341 -72.9857
-45.8795 -33.0900 -72.9857
50.8436 32.9247 -72.9857
-16.7877 25.7426 -72.9857
-24.8834 4.8895 -72.9857
48.2925 -5.8923 -72.9857
-5.4745 -43.7723 -72.9857
62.9205 -30.8334 -72.9857
59.9262 8.4031 -72.9857
-38.6964 -8.5844 -72.9857
56.5253 32.4363 -72.9857
20.7091 -39.2269 -72.9857
53.8143 -38.9960 -72.9857
-9.4569 19.0844 -72.9857
-46.2059 -26.5689 -72.9857
-45.0001 34.4415 -72.9857
0.6063 20.2169 -72.9857
-0.5833 5.4087 -72.9857
-35.4692 -2.8195 -72.9857
-54.7694 -12.1730 -72.9857
-49.3365 -36.7151 -72.9857
5.3977 -20.2598 -72.9857
11.8810 -4.3365 -72.9857
-64.3488 -24.4091 -72.9857
-29.3988 -12.7065 -72.9857
26.0169 34.3068 -72.9857
-61.6526 -17.6487 -72.9857
40.4995 -9.4271 -72.9857
4.6516 32.0857 -72.9857
-3.9536 -11.5600 -72.9857
