ply
format ascii 1.0
element vertex 1024
property float x
property float y
property float z
end_header
93.9823 20.9045 38.8229
93.9823 -7.3601 -55.1113
93.9823 9.9597 13.1561
93.9823 2.8856 -19.2681
93.9823 20.5059 -60.4343
93.9823 15.0165 -44.2642
93.9823 -25.3270 17.1793
93.9823 -0.6184 -22.4613
93.9823 -23.7882 13.6785
93.9823 -2.0707 -37.9033
93.9823 15.0542 -35.0118
93.9823 20.1016 -0.7913
93.9823 23.1238 12.0108
93.9823 -17.5140 21.7110
93.9823 -20.7610 6.1608
93.9823 -14.9032 1.9460
93.9823 -1.6605 24.2131
93.9823 11.4509 -55.7381
93.9823 -14.3193 -58.0116
93.9823 -26.8897 -62.9683
93.9823 -6.2507 -4.2305
93.9823 26.2557 44.7589
93.9823 -1.1666 43.6048
93.9823 -7.2313 55.7556
93.9823 15.9171 -20.3039
93.9823 -25.1231 -48.7274
93.9823 12.2840 -36.3319
93.9823 -9.7001 -66.6114
93.9823 -20.7651 -2.7566
93.9823 6.6024 21.4042
93.9823 26.5657 8.0337
93.9823 10.2024 -63.5258
93.9823 8.6950 34.7945
93.9823 22.3541 -14.0037
93.9823 -21.6978 25.2361
93.9823 5.9242 -41.0821
93.9823 13.1884 -11.3770
93.9823 18.6336 64.6259
93.9823 8.4759 -40.3424
93.9823 -12.2424 -28.0881
93.9823 11.4018 9.8946
93.9823 -17.8786 54.6762
93.9823 1.0662 12.3777
93.9823 -15.9130 -20.5890
93.9823 22.3527 22.3110
93.9823 21.2341 16.7689
93.9823 4.3272 -19.7354
93.9823 -15.3797 53.2445
93.9823 -3.8372 -42.5152
93.9823 -1.3686 62.6151
93.9823 21.2191 23.7698
93.9823 -3.2316 57.6751
93.9823 10.9882 -49.9234
93.9823 20.2903 -5.0212
93.9823 -18.8970 33.8387
93.9823 11.7843 -58.5436
93.9823 -25.8043 -13.4401
93.9823 -23.8403 -63.0856
93.9823 -1.1830 -21.7657
93.9823 17.8916 52.9680
93.9823 12.7022 54.6531
93.9823 10.7450 -65.0902
93.9823 20.1131 67.7980
93.9823 5.5686 22.3173
93.9823 2.5681 -20.7281
93.9823 -22.7463 -1.4814
93.9823 4.7536 15.7173
93.9823 22.4885 53.0892
93.9823 10.1965 48.9079
93.9823 -14.7868 -35.7611
93.9823 -26.0380 7.9597
93.9823 17.1619 -36.3579
93.9823 8.7588 -27.3165
93.9823 26.6605 6.5339
93.9823 -1.0407 43.7496
93.9823 14.8491 -61.3938
93.9823 0.4736 -4.2261
93.9823 -23.4804 -31.5560
93.9823 -26.6651 -19.4015
93.9823 -8.2370 20.8673
93.9823 -11.4138 -18.3936
93.9823 3.2063 66.1197
93.9823 22.4106 27.9930
93.9823 -18.3190 -8.2821
93.9823 -4.8649 -61.4293
93.9823 13.0323 -18.3617
93.9823 -25.7134 -10.2043
93.9823 -8.9017 -53.8596
93.9823 10.5965 -24.5901
93.9823 26.8181 42.9731
93.9823 -22.8017 42.6359
93.9823 -12.6508 -64.3936
93.9823 -0.8154 -52.8473
93.9823 -19.2661 -43.3611
93.9823 -26.1727 35.2060
93.9823 -9.8596 -0.7931
93.9823 15.9928 67.0468
93.9823 -15.3492 39.7579
93.9823 -24.0765 -67.9221
93.9823 25.5314 -30.5362
93.9823 -3.6280 56.9795
93.9823 15.1935 -58.0619
93.9823 16.8469 -15.9378
93.9823 24.9967 42.1744
93.9823 -26.4771 -24.8322
93.9823 -14.9511 -64.2793
93.9823 -6.3231 -10.6134
93.9823 -11.3296 -57.8900
93.9823 -23.0819 -18.7353
93.9823 -27.7571 -20.1686
93.9823 -20.6453 -5.0082
93.9823 8.8453 1.6899
93.9823 -17.6709 -29.1891
93.9823 20.2211 -12.1424
93.9823 18.0568 -43.5875
93.9823 2.8186 52.3621
93.9823 4.0876 -10.0493
93.9823 -3.2025 63.3167
93.9823 -2.0556 8.7378
93.9823 7.4116 66.8898
93.9823 -16.1893 -65.7161
93.9823 -11.4740 49.5222
93.9823 27.5962 15.7242
93.9823 11.4875 -28.5120
93.9823 -26.1612 67.3730
93.9823 -4.7432 -41.8219
93.9823 -27.4520 9.6212
93.9823 -27.4352 -43.6178
93.9823 18.5949 -67.4057
93.9823 18.6491 -11.2877
93.9823 -21.4889 53.3663
93.9823 -27.4153 -46.8863
93.9823 19.1873 26.0730
93.9823 -10.1733 -45.4441
93.9823 -9.3456 19.0237
93.9823 7.3807 -40.7636
93.9823 -18.3886 -29.3531
93.9823 -12.1942 -11.6337
93.9823 21.4750 -3.5105
93.9823 -15.9754 42.7647
93.9823 23.6867 -23.1804
93.9823 -20.8096 41.1893
93.9823 -10.8935 -56.9844
93.9823 6.2178 50.9656
93.9823 -4.3578 -64.6604
93.9823 -13.1006 52.6205
93.9823 -20.5989 -61.8869
93.9823 10.1700 43.6597
93.9823 13.0198 60.1777
93.9823 -27.0740 -33.3062
93.9823 -20.4026 -35.0414
93.9823 -20.2338 11.7708
93.9823 18.8330 -13.0761
93.9823 -18.0714 -8.2160
93.9823 -26.1076 -35.7055
93.9823 -25.9133 -35.9574
93.9823 21.9667 -25.9642
93.9823 23.5128 -64.0074
93.9823 -22.8498 19.6789
93.9823 3.5165 -4.3967
93.9823 -0.3259 -66.4002
93.9823 -22.2208 35.8447
93.9823 -21.6134 27.4522
93.9823 -7.2373 -26.4716
93.9823 20.3345 13.5928
93.9823 -12.3565 36.2306
93.9823 -3.2643 10.7188
93.9823 -0.8702 -66.4582
93.9823 10.3392 56.7407
93.9823 -27.5969 -30.5123
93.9823 18.9830 9.7364
-93.9823 -17.0702 -40.8136
-93.9823 -21.6526 26.5657
-93.9823 -9.2634 6.4825
-93.9823 -25.0739 65.5076
-93.9823 2.0871 -44.7097
-93.9823 -11.9068 -53.3413
-93.9823 14.0366 -54.5363
-93.9823 -15.4548 60.9263
-93.9823 -23.8252 19.9088
-93.9823 7.4761 12.1819
-93.9823 0.3525 7.5362
-93.9823 10.8676 -4.9206
-93.9823 24.3072 2.0808
-93.9823 -22.6666 53.4404
-93.9823 -18.1786 -23.1793
-93.9823 21.2402 -9.4301
-93.9823 16.2645 26.0255
-93.9823 -5.4766 47.6340
-93.9823 -2.2512 20.2856
-93.9823 -24.4350 -49.7273
-93.9823 -27.3792 -51.3029
-93.9823 2.2461 18.1588
-93.9823 26.8784 49.1659
-93.9823 6.7424 50.6451
-93.9823 5.9972 -38.1265
-93.9823 -21.4698 27.2972
-93.9823 11.9836 25.8518
-93.9823 22.6675 0.3722
-93.9823 -14.2805 60.7848
-93.9823 4.4308 -43.4138
-93.9823 9.6732 36.5972
-93.9823 -22.8747 18.5276
-93.9823 4.4398 -21.9212
-93.9823 14.7990 -65.1344
-93.9823 -12.4353 18.7527
-93.9823 6.9690 53.1664
-93.9823 1.3419 -60.0572
-93.9823 -18.1616 -43.1274
-93.9823 -6.7729 66.0260
-93.9823 -19.9659 -58.0400
-93.9823 2.7276 -4.9095
-93.9823 16.0551 7.5171
-93.9823 -5.7969 41.4251
-93.9823 6.6925 -18.1591
-93.9823 16.2715 -61.4356
-93.9823 -12.0597 28.2606
-93.9823 -8.9809 -37.5921
-93.9823 13.3722 -22.7427
-93.9823 -14.6490 24.0138
-93.9823 -1.1655 59.5490
-93.9823 -11.6993 -59.1406
-93.9823 -22.6918 -10.4461
-93.9823 8.2064 30.2036
-93.9823 6.9799 -44.5207
-93.9823 17.2504 32.4665
-93.9823 18.6926 -53.5212
-93.9823 23.6895 -36.6545
-93.9823 18.5647 -17.5500
-93.9823 -0.4148 -54.4149
-93.9823 -18.5530 -60.2577
-93.9823 21.9086 -62.1086
-93.9823 -20.2608 4.5887
-93.9823 2.9108 -58.6352
-93.9823 -1.0514 68.1421
-93.9823 10.3661 -9.3782
-93.9823 -24.5984 -44.9720
-93.9823 -20.5538 15.9959
-93.9823 7.4202 4.1867
-93.9823 -9.7816 -46.7730
-93.9823 25.9971 41.0488
-93.9823 13.1535 -60.7797
-93.9823 -15.2802 32.4570
-93.9823 18.7975 61.9243
-93.9823 -22.2627 41.2756
-93.9823 -4.1931 -28.9097
-93.9823 24.3218 54.4414
-93.9823 -18.8352 -25.1496
-93.9823 -22.2782 1.0846
-93.9823 6.9665 41.1443
-93.9823 -17.5953 -3.5373
-93.9823 22.0051 -10.9186
-93.9823 1.8954 11.0369
-93.9823 11.7717 61.3684
-93.9823 26.7077 -10.2959
-93.9823 -11.0930 14.1244
-93.9823 14.3451 -43.2832
-93.9823 18.6233 5.0503
-93.9823 -16.6185 -6.9722
-93.9823 -4.1741 -65.6915
-93.9823 -26.1448 3.5524
-93.9823 -22.7835 20.0936
-93.9823 -12.3588 6.1136
-93.9823 -5.9681 26.4894
-93.9823 16.3340 51.2266
-93.9823 6.0104 -67.7895
-93.9823 -4.1133 32.9035
-93.9823 -24.0532 46.2216
-93.9823 5.2354 54.6405
-93.9823 -12.1171 0.1030
-93.9823 -12.9240 6.5580
-93.9823 -15.2587 -14.2185
-93.9823 -19.0574 -38.6061
-93.9823 14.8722 -54.4673
-93.9823 -3.6806 -34.3893
-93.9823 -7.8794 -15.2756
-93.9823 -27.7238 61.9776
-93.9823 4.1230 -26.0926
-93.9823 6.3233 11.2112
-93.9823 -3.2642 -28.3157
-93.9823 -16.5447 33.7270
-93.9823 -7.7520 3.0509
-93.9823 -10.9038 -40.4940
-93.9823 27.4380 -60.0476
-93.9823 -22.6292 20.1925
-93.9823 -21.6267 40.2671
-93.9823 19.0017 0.3739
-93.9823 -27.5490 -3.3012
-93.9823 14.4457 -35.5585
-93.9823 -6.7688 -49.3288
-93.9823 18.3923 24.0141
-93.9823 22.1458 63.9121
-93.9823 11.1945 10.3043
-93.9823 -11.5246 -38.8776
-93.9823 11.5438 64.0111
-93.9823 12.5084 15.8280
-93.9823 -9.1197 -62.2398
-93.9823 -3.6596 16.5541
-93.9823 -7.2107 28.5863
-93.9823 7.6646 -30.2621
-93.9823 19.7345 54.9533
-93.9823 24.8612 20.0849
-93.9823 -6.3330 45.5115
-93.9823 -18.5125 38.2028
-93.9823 -18.9494 -56.6457
-93.9823 -10.8645 32.2310
-93.9823 -9.4124 -22.9029
-93.9823 -0.0414 40.3191
-93.9823 10.2913 -13.6330
-93.9823 -13.7886 65.4535
-93.9823 3.0663 -35.2354
-93.9823 8.7726 61.6973
-93.9823 -17.1033 -36.5276
-93.9823 12.0948 -65.3217
-93.9823 -22.6998 -38.6389
-93.9823 -8.8468 40.0399
-93.9823 28.0642 55.6522
-93.9823 -12.9518 -44.3532
-93.9823 -24.8458 -32.7381
-93.9823 0.9624 25.6264
-93.9823 16.7927 -8.2462
-93.9823 -10.1945 59.7269
-93.9823 -16.8625 29.9065
-93.9823 -1.6930 3.0713
-93.9823 22.7819 55.0423
-93.9823 -0.3226 -60.1954
-93.9823 18.2519 -28.4323
-93.9823 11.6511 63.6404
-93.9823 -19.0115 -29.7364
-93.9823 -24.5966 19.4221
-93.9823 -22.2054 46.7339
-93.9823 -12.2005 32.3533
-93.9823 -4.4457 -24.0122
-93.9823 6.7445 -48.7251
-93.9823 -17.7002 -6.8391
-93.9823 17.6169 -33.2175
-93.9823 17.9388 18.9240
-93.9823 0.1468 -0.6994
-93.9823 10.2082 -10.5763
-93.9823 -14.1988 0.5496
-93.9823 -0.4205 -12.0369
-93.9823 18.6953 41.1009
-86.9418 28.1917 -23.8899
-73.4046 28.1917 37.6652
-76.1679 28.1917 8.9000
79.1613 28.1917 3.8395
-36.1037 28.1917 -59.3381
30.8587 28.1917 -37.2776
-64.1513 28.1917 19.3566
8.0172 28.1917 18.4914
31.9561 28.1917 2.8536
-25.8036 28.1917 62.4295
-29.9661 28.1917 9.8653
-90.7928 28.1917 -67.5386
73.1044 28.1917 51.6102
-53.6300 28.1917 66.6668
-13.5384 28.1917 14.1042
-79.6107 28.1917 19.5725
60.0010 28.1917 24.0852
59.9252 28.1917 -8.4560
-93.8262 28.1917 -11.4097
69.4456 28.1917 10.6311
64.0848 28.1917 50.0783
41.1932 28.1917 -56.6512
30.0874 28.1917 -41.2412
-11.6037 28.1917 22.2410
60.7632 28.1917 47.9061
46.5076 28.1917 7.6133
-49.3878 28.1917 -53.6917
-12.7477 28.1917 13.5969
54.7875 28.1917 -43.2270
-86.2644 28.1917 -55.8770
78.4946 28.1917 -10.0837
-25.7667 28.1917 10.8432
71.6893 28.1917 -32.3737
-89.7849 28.1917 -16.2542
33.2395 28.1917 -45.5371
-13.9752 28.1917 64.1535
-30.3012 28.1917 -43.1847
-74.9399 28.1917 -39.5751
15.0937 28.1917 24.9290
-64.9037 28.1917 22.3391
51.5089 28.1917 20.0849
-8.4839 28.1917 -24.9815
-44.6783 28.1917 66.3264
-88.1331 28.1917 59.3401
-38.7484 28.1917 -14.2384
-60.2759 28.1917 -35.3474
3.6047 28.1917 13.2350
7.9620 28.1917 49.1243
-64.7852 28.1917 -56.0795
-69.1028 28.1917 46.3417
-3.5336 28.1917 25.7002
-85.8459 28.1917 12.8655
53.8279 28.1917 57.1391
20.9649 28.1917 10.3188
-45.6386 28.1917 -1.5514
-1.9658 28.1917 -43.8288
74.9787 28.1917 26.6004
78.2746 28.1917 -60.3602
90.1575 28.1917 49.8748
-93.2305 28.1917 -8.7828
36.2453 28.1917 22.6755
77.0773 28.1917 37.4773
-79.1429 28.1917 -65.7375
52.8005 28.1917 -16.6466
20.4603 28.1917 -10.7964
-46.9444 28.1917 -21.0014
67.1603 28.1917 52.4584
-79.5093 28.1917 -13.2186
-32.1671 28.1917 31.0047
49.4794 28.1917 -63.6223
16.5834 28.1917 38.3045
-82.0147 28.1917 48.8438
20.9774 28.1917 -59.7328
-62.1918 28.1917 41.6173
86.1444 28.1917 -14.4484
-27.1352 28.1917 61.6540
57.5086 28.1917 -59.3598
54.2294 28.1917 31.1312
-68.2536 28.1917 2.7470
-90.5946 28.1917 20.2741
81.4107 28.1917 9.2784
-60.3484 28.1917 -1.4629
-81.7233 28.1917 36.9251
-37.6274 28.1917 49.8636
-41.7624 28.1917 -10.3814
75.1654 28.1917 36.3706
33.5840 28.1917 68.3931
30.0403 28.1917 -24.1840
-79.3620 28.1917 -66.6392
-20.5891 28.1917 -18.5075
32.0170 28.1917 24.3367
14.7395 28.1917 -38.9225
-53.6656 28.1917 48.4966
43.7837 28.1917 -39.0173
-74.5867 28.1917 14.0235
9.5343 28.1917 9.9549
52.2078 28.1917 -35.5622
48.8408 28.1917 5.9309
-26.7484 28.1917 -10.1439
-87.0077 28.1917 49.1630
5.3790 28.1917 26.3624
-49.4627 28.1917 -27.0395
-19.6832 28.1917 44.7963
-69.0920 28.1917 -45.7795
85.5422 28.1917 -16.7078
83.6653 28.1917 -1.1956
-68.4645 28.1917 51.2001
-59.0131 28.1917 -66.3844
8.9317 28.1917 54.7883
18.6604 28.1917 16.2519
-55.3154 28.1917 -37.9059
-78.9800 28.1917 27.7776
-83.5895 28.1917 33.3789
5.7501 28.1917 30.5709
35.3456 28.1917 55.5640
14.3580 28.1917 35.6795
-61.2599 28.1917 60.2294
-16.5611 28.1917 39.6709
-26.5093 28.1917 50.3123
15.1169 28.1917 46.7612
57.1299 28.1917 15.7978
-86.5242 28.1917 -65.3597
-16.7498 28.1917 -59.4817
1.0231 28.1917 -40.5647
-40.0724 28.1917 18.7015
40.4787 28.1917 -39.6638
71.0952 28.1917 43.5241
-72.2828 28.1917 -42.0221
68.6303 28.1917 -18.2528
92.8172 28.1917 37.9156
-50.1767 28.1917 2.4801
-17.1095 28.1917 -64.4734
89.2958 28.1917 29.2308
17.9756 28.1917 -10.3972
38.1580 28.1917 60.6905
-30.8116 28.1917 16.7555
-67.8039 28.1917 37.6248
10.8117 28.1917 63.2790
49.2628 28.1917 -64.4659
-65.1413 28.1917 -45.6966
-10.3042 28.1917 -63.0556
74.5954 28.1917 -14.0911
-8.1543 28.1917 -3.3748
46.7145 28.1917 -23.2394
46.4954 28.1917 -56.3483
76.7485 28.1917 63.6516
70.9391 28.1917 -4.7374
12.3649 28.1917 28.3691
54.0266 28.1917 -4.4185
27.1538 28.1917 62.8711
80.8391 28.1917 -20.8185
32.3565 28.1917 10.7116
-65.1818 28.1917 6.5604
-60.1428 28.1917 -9.7917
22.3214 28.1917 -19.7515
-92.3734 28.1917 -61.1849
-34.1744 28.1917 -57.9050
-42.9835 28.1917 -6.0378
54.7977 28.1917 12.3327
-36.8186 28.1917 30.6128
54.4001 28.1917 -32.7958
-7.9830 28.1917 -26.3848
-24.4104 28.1917 51.4107
-58.4838 28.1917 53.1055
-46.8990 28.1917 -16.3486
59.3900 28.1917 16.5870
61.5873 28.1917 -66.6845
28.4594 28.1917 -61.4090
-23.7847 28.1917 25.1531
-75.9584 28.1917 -65.9291
-91.6291 28.1917 -50.0419
-20.1345 -28.1917 28.0328
88.2456 -28.1917 51.7241
-45.9510 -28.1917 45.7710
-8.9840 -28.1917 23.7752
33.5894 -28.1917 64.1693
64.7313 -28.1917 66.8563
-35.2445 -28.1917 -6.9059
-53.1946 -28.1917 39.7953
47.8143 -28.1917 17.9400
-57.2980 -28.1917 20.7131
55.6521 -28.1917 59.5095
-86.2512 -28.1917 20.4717
-17.0655 -28.1917 -59.7425
16.0333 -28.1917 -7.2329
-87.6369 -28.1917 -19.5635
86.2056 -28.1917 -54.1506
31.8432 -28.1917 -34.4424
52.7200 -28.1917 52.5854
75.9036 -28.1917 3.6035
15.9313 -28.1917 62.4071
32.6288 -28.1917 22.0385
82.4413 -28.1917 -37.2539
-16.6169 -28.1917 -26.7474
-17.8334 -28.1917 38.5721
15.0632 -28.1917 -60.8547
49.2994 -28.1917 -46.5464
-81.5801 -28.1917 -40.8343
-36.3374 -28.1917 -8.1374
-46.4940 -28.1917 14.6982
-20.9798 -28.1917 36.3150
93.3240 -28.1917 26.4436
22.9890 -28.1917 24.2188
53.6493 -28.1917 45.2298
67.4370 -28.1917 54.5923
-17.5774 -28.1917 -15.3633
6.3475 -28.1917 -10.4657
34.3522 -28.1917 4.4223
59.7846 -28.1917 -50.8002
-57.5923 -28.1917 59.9530
3.2956 -28.1917 36.2985
-69.9687 -28.1917 -0.9400
-2.4983 -28.1917 7.7900
-50.5575 -28.1917 37.0076
-4.9747 -28.1917 -58.0451
69.8839 -28.1917 -35.7376
-28.9011 -28.1917 -49.3634
88.5936 -28.1917 9.1967
76.9799 -28.1917 46.7987
-1.3571 -28.1917 31.7834
-91.4317 -28.1917 -16.1341
84.8017 -28.1917 -60.2019
-60.7758 -28.1917 52.3246
60.1482 -28.1917 47.6989
38.9281 -28.1917 -29.1994
65.4396 -28.1917 36.2798
-20.6008 -28.1917 -17.4290
27.1199 -28.1917 29.8043
38.2406 -28.1917 -17.6687
-35.0702 -28.1917 -62.2136
70.6433 -28.1917 -42.2202
0.3762 -28.1917 32.9389
29.6606 -28.1917 62.0311
37.2616 -28.1917 8.5712
79.0223 -28.1917 -35.1609
-17.3323 -28.1917 -23.9044
-93.7681 -28.1917 -29.6419
-55.3567 -28.1917 -1.3037
-55.6950 -28.1917 47.1197
-64.6107 -28.1917 30.5002
43.9213 -28.1917 12.7682
-77.9751 -28.1917 9.5080
73.0792 -28.1917 15.6422
-9.3197 -28.1917 -26.4156
-78.3944 -28.1917 -41.2300
49.4014 -28.1917 -2.4658
67.8233 -28.1917 -14.8628
34.5434 -28.1917 -40.8200
-74.5542 -28.1917 -25.2161
28.4927 -28.1917 -8.7889
62.6526 -28.1917 -41.8586
-25.8760 -28.1917 26.2587
-70.2844 -28.1917 -62.6660
-3.1840 -28.1917 -29.7717
-78.2230 -28.1917 -65.9653
45.5514 -28.1917 -26.8992
-28.8863 -28.1917 -57.6345
2.9654 -28.1917 39.7252
5.6532 -28.1917 -26.4034
-81.5764 -28.1917 22.7407
1.5363 -28.1917 28.4779
-5.9149 -28.1917 45.1247
17.4561 -28.1917 -12.8522
51.5420 -28.1917 -35.1073
-34.4973 -28.1917 29.4242
-53.2068 -28.1917 -60.6064
-60.1600 -28.1917 68.2077
-43.1148 -28.1917 33.8578
-63.8294 -28.1917 19.2149
-51.9364 -28.1917 -56.8545
-66.9369 -28.1917 -9.5459
46.8052 -28.1917 31.0005
-76.6425 -28.1917 52.3796
-84.4210 -28.1917 54.2095
-38.1743 -28.1917 -21.1940
-63.7529 -28.1917 -59.5618
-7.0916 -28.1917 -46.0041
84.1589 -28.1917 22.7283
-40.7227 -28.1917 34.3940
-55.7835 -28.1917 -34.1056
-15.3902 -28.1917 -38.7758
-25.8293 -28.1917 -41.7292
39.7749 -28.1917 -23.5533
-61.4568 -28.1917 -44.1049
-6.2623 -28.1917 38.2313
12.7286 -28.1917 58.1097
84.6758 -28.1917 -9.9602
51.4840 -28.1917 -60.3058
-45.9458 -28.1917 25.0489
-54.6445 -28.1917 29.9613
44.5652 -28.1917 10.9221
-17.5018 -28.1917 -0.5114
-29.8582 -28.1917 -56.8927
82.7821 -28.1917 54.0602
-33.4880 -28.1917 54.5199
78.3024 -28.1917 -35.3206
78.7513 -28.1917 28.8253
35.7868 -28.1917 -58.9967
-4.9982 -28.1917 4.9397
25.8941 -28.1917 -27.9489
-38.0806 -28.1917 -26.5461
42.7363 -28.1917 -5.2443
-34.4465 -28.1917 -24.9784
-24.9285 -28.1917 -13.2146
49.4587 -28.1917 63.2478
-49.5098 -28.1917 -27.2610
84.3745 -28.1917 -5.9499
-87.9950 -28.1917 25.4206
-26.5763 -28.1917 -36.4950
-57.1705 -28.1917 32.1621
-70.7493 -28.1917 63.7605
21.7589 -28.1917 29.6130
81.6465 -28.1917 66.2150
50.4930 -28.1917 28.7974
-41.6177 -28.1917 -23.7199
-91.1225 -28.1917 53.8326
-53.9810 -28.1917 -47.7660
-50.8043 -28.1917 8.3257
-68.6981 -28.1917 33.9740
-14.2135 -28.1917 -34.2715
30.4330 -28.1917 -7.0098
75.3635 -28.1917 63.1387
-64.1833 -28.1917 -43.4827
-62.0498 -28.1917 -29.9975
67.1826 -28.1917 -26.8583
-91.8659 -28.1917 -1.3360
-6.0126 -28.1917 36.4299
48.8481 -28.1917 -53.2946
-61.1014 -28.1917 17.6014
65.7619 -28.1917 -37.1481
-54.2031 -28.1917 12.7691
84.7333 -28.1917 -34.3588
36.3773 -28.1917 55.0202
35.3112 -28.1917 -3.6253
-13.3628 -28.1917 -66.5965
-63.6766 -28.1917 -13.6076
25.1209 -28.1917 -28.0219
-92.6941 -28.1917 35.0457
32.9615 -28.1917 14.0497
5.9086 -28.1917 -15.1770
-32.5875 -28.1917 66.1224
52.7977 -28.1917 -67.3175
-54.3183 -20.6303 68.6356
-50.6924 -24.8813 68.6356
45.0340 18.3543 68.6356
-74.1820 -19.0074 68.6356
-3.2843 -17.5812 68.6356
9.8767 -2.0937 68.6356
3.4066 4.9917 68.6356
-30.3707 -17.3878 68.6356
49.7470 5.9479 68.6356
-89.8402 -0.6463 68.6356
89.7331 -1.3338 68.6356
64.6143 21.6160 68.6356
66.0879 8.0647 68.6356
-80.2945 5.3723 68.6356
67.0893 25.3503 68.6356
-53.4947 1.7735 68.6356
-56.5126 10.0074 68.6356
59.5288 3.6992 68.6356
-45.5194 -16.6797 68.6356
1.2349 26.5423 68.6356
-80.9264 9.3688 68.6356
63.4970 19.5596 68.6356
-50.7191 -12.7643 68.6356
6.4995 14.5012 68.6356
-42.8275 -16.9078 68.6356
-72.3285 8.6748 68.6356
80.2515 14.8672 68.6356
-82.2757 -26.5699 68.6356
-14.0080 0.9679 68.6356
44.7820 -3.8835 68.6356
-78.5552 -18.6636 68.6356
61.8475 -26.3999 68.6356
15.3698 24.9273 68.6356
-49.4274 -11.9392 68.6356
55.6726 -5.1143 68.6356
-9.3397 -22.5719 68.6356
-41.8531 -11.7979 68.6356
72.2414 7.0808 68.6356
39.4745 15.6439 68.6356
-56.4223 -25.4860 68.6356
45.8186 -6.0680 68.6356
71.8715 -19.5388 68.6356
66.1529 22.9926 68.6356
31.1446 -13.9917 68.6356
56.1416 -10.3676 68.6356
71.5566 2.3271 68.6356
27.6259 -4.1171 68.6356
-4.6435 -12.8808 68.6356
-65.7180 -22.0458 68.6356
-60.0264 23.7001 68.6356
-48.9721 22.6023 68.6356
-77.4129 -14.0774 68.6356
74.1069 8.7285 68.6356
8.5133 -13.3956 68.6356
-31.6152 -2.7030 68.6356
-36.7603 -25.9757 68.6356
-47.2207 -7.2701 68.6356
-4.9387 -26.0274 68.6356
56.0852 15.7500 68.6356
83.4682 -9.5669 68.6356
92.8907 0.2732 68.6356
-93.0499 7.9036 68.6356
-32.9601 27.1593 68.6356
-64.6526 -5.6486 68.6356
-52.9703 -7.8472 68.6356
-68.1004 26.0336 68.6356
-15.1992 -24.2567 68.6356
62.7482 23.0550 68.6356
-56.5310 4.4244 68.6356
39.4289 17.3193 68.6356
-39.6429 17.5133 68.6356
-90.5239 10.1758 68.6356
28.2928 17.3517 68.6356
-69.0215 18.2674 68.6356
-83.2108 5.9846 68.6356
-89.6447 19.5623 68.6356
-20.6307 18.5945 68.6356
-25.6209 -21.1336 68.6356
-41.1544 -26.3702 68.6356
-73.1831 -13.2810 68.6356
-9.3606 17.9134 68.6356
-25.0352 -17.9737 68.6356
41.4009 -13.6017 68.6356
41.2959 -2.6337 68.6356
22.8707 -26.1832 68.6356
-61.8383 -11.8005 68.6356
-5.6486 -10.0531 68.6356
-58.4471 -8.9459 68.6356
87.7581 -8.3848 68.6356
-62.0066 -8.2501 68.6356
-11.8454 -5.9582 68.6356
28.7470 -9.0960 68.6356
39.5448 -12.1206 68.6356
-10.1590 -20.8271 68.6356
-92.2322 13.5703 68.6356
-41.8213 17.4363 68.6356
-19.4739 26.5263 68.6356
14.9470 24.5033 68.6356
-47.3540 0.1231 68.6356
90.0705 -18.2043 68.6356
85.1378 -3.8950 68.6356
-89.6412 -5.8392 68.6356
74.8751 13.0373 68.6356
17.7812 -22.8439 68.6356
36.9181 21.8633 68.6356
-28.5139 28.0532 68.6356
66.2641 23.4687 68.6356
90.6513 26.8099 68.6356
39.7671 21.7155 68.6356
-82.8749 24.4611 68.6356
-28.9554 -27.5685 68.6356
-21.4545 21.3938 68.6356
37.5936 -9.7532 68.6356
91.0181 -0.6028 68.6356
-47.7207 2.7482 68.6356
44.9377 0.8830 68.6356
50.1990 -23.1859 68.6356
-58.0611 26.7857 68.6356
-13.8213 24.6000 68.6356
1.0646 14.8392 68.6356
-37.8754 8.2303 68.6356
-93.0066 -22.6565 68.6356
55.1050 20.2622 68.6356
-69.9115 -7.3442 68.6356
-62.5306 8.7998 68.6356
-74.0333 8.0495 68.6356
41.6290 -22.7728 68.6356
79.1445 -22.6230 68.6356
64.1044 -13.5844 68.6356
-63.0812 17.3465 68.6356
53.7481 -16.4589 68.6356
14.2825 23.4284 68.6356
23.5000 18.9143 68.6356
-65.3192 20.9115 68.6356
56.4652 -19.7549 68.6356
-51.7881 2.8948 68.6356
-2.5101 1.3121 68.6356
-68.9331 -9.5759 68.6356
78.9472 -1.3911 68.6356
-90.8763 -17.7777 68.6356
22.3803 21.9274 68.6356
89.9296 -7.8685 68.6356
-84.7639 -8.0376 68.6356
-92.7825 24.8419 68.6356
-80.4113 15.9706 68.6356
50.4017 10.5546 68.6356
28.8623 -11.2403 68.6356
12.1884 -17.4177 68.6356
52.4859 8.0503 68.6356
17.2604 26.0281 68.6356
-26.8199 -26.9369 68.6356
64.2127 2.8086 68.6356
-41.9894 -9.2405 68.6356
-36.3992 11.4196 68.6356
-9.4602 -16.9236 68.6356
67.2804 -5.2884 68.6356
31.8732 22.8063 68.6356
-75.3147 5.9833 68.6356
-5.8742 22.9129 68.6356
6.5431 0.0027 68.6356
-68.6299 13.0460 68.6356
64.8597 -10.4620 68.6356
-90.4043 18.3312 68.6356
-49.7013 16.0444 68.6356
58.5017 -6.9327 68.6356
17.6227 -8.6445 68.6356
-57.1912 20.2239 68.6356
42.7934 7.8228 68.6356
-36.5220 -11.6309 68.6356
-89.0849 -19.1399 68.6356
19.3724 -23.9807 -68.6356
48.1923 8.4946 -68.6356
-15.4295 -11.8701 -68.6356
-22.2234 13.1438 -68.6356
65.3457 -24.4459 -68.6356
-13.4920 -26.7321 -68.6356
78.3202 -3.3841 -68.6356
-64.7762 -10.7955 -68.6356
-65.9720 -27.4146 -68.6356
-76.7626 20.6208 -68.6356
24.7568 -26.9805 -68.6356
-23.7318 -24.0334 -68.6356
-77.6545 5.2620 -68.6356
66.7192 -14.7474 -68.6356
-33.3917 6.2499 -68.6356
34.2263 -23.6680 -68.6356
46.7101 15.3853 -68.6356
-14.9068 -6.6866 -68.6356
11.3643 -2.3281 -68.6356
-35.8432 -13.8452 -68.6356
86.2151 -20.7677 -68.6356
92.7876 4.5818 -68.6356
-65.3329 16.4535 -68.6356
29.7922 13.5190 -68.6356
-55.9779 -10.0001 -68.6356
-39.5236 -4.9422 -68.6356
-61.4481 27.0520 -68.6356
5.9713 11.5254 -68.6356
-75.5741 16.9534 -68.6356
57.1562 -1.3806 -68.6356
-42.5625 13.6223 -68.6356
39.1111 3.7254 -68.6356
-7.1743 18.5627 -68.6356
-11.1264 8.3546 -68.6356
-73.4932 17.4482 -68.6356
59.1428 16.8136 -68.6356
-73.7408 20.0537 -68.6356
-87.8652 -25.2007 -68.6356
-31.7796 23.9096 -68.6356
-86.0185 27.9999 -68.6356
47.2001 26.5213 -68.6356
-70.1841 -11.7714 -68.6356
-13.1520 24.8224 -68.6356
-24.5720 11.1932 -68.6356
68.5843 9.4387 -68.6356
-23.9670 9.6481 -68.6356
-87.1979 -25.9651 -68.6356
-74.1741 -27.8311 -68.6356
-25.9833 3.2380 -68.6356
30.0409 -12.7728 -68.6356
-9.6833 -10.4676 -68.6356
5.9006 -27.0453 -68.6356
-61.6629 14.0850 -68.6356
69.9921 -18.1227 -68.6356
8.4686 -12.3781 -68.6356
-31.6207 14.2993 -68.6356
-22.0208 23.0686 -68.6356
-87.8386 15.5257 -68.6356
33.3507 -7.5698 -68.6356
-32.6914 23.2062 -68.6356
23.3066 1.9199 -68.6356
-16.6988 -16.8035 -68.6356
-79.4155 -12.9091 -68.6356
-16.0153 -0.7472 -68.6356
-27.4067 6.2458 -68.6356
-54.6803 14.9364 -68.6356
47.0027 -19.7385 -68.6356
-48.1125 9.5581 -68.6356
-84.9392 -12.3143 -68.6356
-24.9661 11.7842 -68.6356
15.2131 -20.1230 -68.6356
68.4005 9.4217 -68.6356
-80.1603 -1.9726 -68.6356
-57.2506 -19.3980 -68.6356
32.8181 18.9907 -68.6356
-88.8843 21.2518 -68.6356
-76.7398 -1.0673 -68.6356
-39.7398 2.8365 -68.6356
74.7945 24.5805 -68.6356
53.2840 -14.7905 -68.6356
92.8853 -22.7766 -68.6356
-83.2842 4.4303 -68.6356
66.8772 -26.5646 -68.6356
-48.0013 -22.7060 -68.6356
0.3303 -12.4008 -68.6356
-39.8843 -10.5727 -68.6356
-68.8751 -6.4552 -68.6356
54.0725 5.8753 -68.6356
3.7592 -11.1638 -68.6356
-21.6618 -25.7709 -68.6356
-91.6711 14.8833 -68.6356
68.9124 13.6383 -68.6356
17.7809 -11.0380 -68.6356
-12.8665 0.9372 -68.6356
84.7361 26.2303 -68.6356
-53.8503 -11.5037 -68.6356
32.1543 -22.0729 -68.6356
-60.9718 -0.9366 -68.6356
-50.6657 15.8611 -68.6356
15.9730 6.7778 -68.6356
92.3125 -2.6802 -68.6356
-56.0635 -15.8190 -68.6356
-54.2362 -20.8111 -68.6356
-39.0340 -19.6581 -68.6356
33.9129 13.9083 -68.6356
-81.2332 -24.1846 -68.6356
37.0822 4.3584 -68.6356
-91.2164 18.2770 -68.6356
-64.7962 -7.0360 -68.6356
-7.1091 3.9335 -68.6356
0.3130 -9.3948 -68.6356
-76.6068 12.0817 -68.6356
68.6821 6.4948 -68.6356
-67.9923 -9.0565 -68.6356
-82.6546 2.0731 -68.6356
88.9312 1.2474 -68.6356
27.3055 26.2182 -68.6356
47.0803 -9.3614 -68.6356
20.3018 18.1185 -68.6356
-83.0950 8.7369 -68.6356
-32.2050 -20.3285 -68.6356
-70.0042 -3.9938 -68.6356
-80.0906 10.0202 -68.6356
-59.7514 -25.3245 -68.6356
58.1488 25.8339 -68.6356
-7.5131 6.6947 -68.6356
33.9603 -0.3105 -68.6356
14.5815 7.8799 -68.6356
-16.4953 -11.2453 -68.6356
26.4337 9.3674 -68.6356
93.4288 25.7862 -68.6356
27.8942 -16.5064 -68.6356
-85.9548 -3.5885 -68.6356
25.8453 25.1767 -68.6356
-34.2118 -15.5078 -68.6356
-42.4073 27.0864 -68.6356
-60.8853 3.5067 -68.6356
0.1078 4.8543 -68.6356
86.6067 5.7175 -68.6356
87.4628 2.8940 -68.6356
-45.4615 0.9278 -68.6356
75.7738 -19.5108 -68.6356
-53.2323 -15.4403 -68.6356
-28.2781 -14.0981 -68.6356
-38.9831 -14.0176 -68.6356
-53.0687 1.5452 -68.6356
-7.2641 -21.2504 -68.6356
17.3801 -2.2519 -68.6356
9.2356 9.4312 -68.6356
86.3215 16.4440 -68.6356
18.0105 -0.8193 -68.6356
66.5281 20.6773 -68.6356
-21.6925 -19.9033 -68.6356
-86.2713 -19.5528 -68.6356
4.9958 -19.5649 -68.6356
77.0273 -4.4052 -68.6356
12.6276 -24.8396 -68.6356
3.8344 7.9959 -68.6356
67.5016 1.9944 -68.6356
-11.4951 -3.1623 -68.6356
-80.7727 22.0716 -68.6356
15.6458 -5.9172 -68.6356
-15.4443 -25.8517 -68.6356
30.9203 5.1453 -68.6356
7.4285 9.0063 -68.6356
-89.2643 20.7887 -68.6356
29.3638 -0.2496 -68.6356
-68.7621 14.7382 -68.6356
44.3060 -19.3795 -68.6356
-59.7276 -13.3527 -68.6356
