ply
format ascii 1.0
element vertex 1024
property float x
property float y
property float z
end_header
56.8472 -29.4659 -6.1169
56.8472 -29.3265 43.5647
56.8472 41.9667 9.2508
56.8472 0.2496 39.2353
56.8472 -43.9010 -59.0418
56.8472 50.2340 36.5757
56.8472 17.6202 -19.0569
56.8472 -8.2754 40.7124
56.8472 -51.7966 -14.6952
56.8472 -39.8638 44.4485
56.8472 -15.0207 -19.6037
56.8472 3.3374 -60.3985
56.8472 -8.4281 -54.2635
56.8472 34.4128 -56.0862
56.8472 29.9328 8.8157
56.8472 23.2427 10.9905
56.8472 35.9286 37.1525
56.8472 34.8859 7.6345
56.8472 -46.1917 -32.8458
56.8472 32.6299 22.9530
56.8472 35.6487 37.4224
56.8472 0.2580 44.8871
56.8472 -25.8276 -28.5949
56.8472 19.0150 -65.7232
56.8472 -53.1179 -8.7094
56.8472 -6.1628 -66.6894
56.8472 -18.9058 33.7409
56.8472 -38.9704 -74.9416
56.8472 -38.8828 20.7811
56.8472 -44.0124 -6.3957
56.8472 46.1882 66.6660
56.8472 -16.4962 -71.0232
56.8472 18.7287 -13.0756
56.8472 54.6663 47.8389
56.8472 39.9342 -72.0172
56.8472 20.3733 -6.7927
56.8472 -3.8633 -25.8028
56.8472 -57.1082 9.8057
56.8472 9.9590 33.9631
56.8472 5.2810 -33.0397
56.8472 -22.1019 31.8734
56.8472 56.2044 34.2690
56.8472 -11.4850 -5.8934
56.8472 43.3421 -15.5607
56.8472 43.2800 60.7871
56.8472 -19.6722 -59.5072
56.8472 24.4552 -48.5702
56.8472 -46.0660 22.8481
56.8472 -49.7670 60.1425
56.8472 -47.2661 40.1909
56.8472 20.7798 44.2546
56.8472 18.5400 -69.1226
56.8472 55.0172 12.6871
56.8472 47.1242 73.0317
56.8472 -15.7386 -62.7898
56.8472 -27.8931 59.3870
56.8472 -46.2405 70.6054
56.8472 -25.6033 49.3250
56.8472 -1.5230 42.0986
56.8472 9.9549 -33.0559
56.8472 1.4185 0.2064
56.8472 4.3987 -45.4966
56.8472 59.9735 -73.4110
56.8472 -2.1629 -20.7317
56.8472 26.0817 26.8909
56.8472 -33.4299 5.2526
56.8472 37.9183 63.7020
56.8472 -23.1049 11.7216
56.8472 -21.0609 18.4518
56.8472 -25.6517 67.2508
56.8472 -32.2355 -35.0203
56.8472 -55.3068 13.0501
56.8472 -29.9682 -37.0821
56.8472 35.2160 -53.7448
56.8472 50.3704 -38.4462
56.8472 -57.9423 -67.9601
56.8472 -48.6042 -33.4645
56.8472 49.8235 -10.7361
56.8472 29.0130 47.7240
56.8472 -34.1574 -74.9697
56.8472 -13.1284 -70.6440
56.8472 0.3732 -50.8029
56.8472 33.8712 22.5855
56.8472 24.3418 -27.3634
56.8472 -12.0659 -2.2052
56.8472 -7.5044 -57.7771
56.8472 -13.2575 -13.3543
56.8472 26.9702 63.1683
56.8472 -14.6519 16.0065
56.8472 12.0759 5.8487
56.8472 -21.1508 24.5255
56.8472 41.7489 12.9911
56.8472 25.6134 66.2150
56.8472 8.6875 73.5968
56.8472 -10.0196 -1.7305
56.8472 -18.5262 29.3971
56.8472 43.5288 -62.1305
56.8472 38.3391 47.0749
56.8472 -36.1939 0.9642
56.8472 -42.1521 -40.8965
56.8472 26.1796 -43.5615
56.8472 -29.1805 -46.0233
56.8472 -41.7191 -3.6040
56.8472 -37.4823 8.2101
56.8472 -11.2646 24.1943
56.8472 35.9518 3.2366
56.8472 -56.6279 57.8386
56.8472 -40.8603 10.8004
56.8472 42.1705 -19.9885
56.8472 -45.7402 9.8235
56.8472 53.8897 -9.5427
56.8472 33.0358 62.8370
56.8472 32.6316 -10.5332
56.8472 50.4396 71.7559
56.8472 57.6885 75.1575
56.8472 -1.0300 60.8177
56.8472 -46.2404 37.7786
56.8472 -48.5223 74.0186
56.8472 31.9755 -64.8055
56.8472 3.6361 -28.6745
56.8472 -19.5809 5.3684
56.8472 -54.2622 -34.0201
56.8472 -7.3243 -41.4704
56.8472 15.8532 21.2211
56.8472 4.3512 -60.8395
56.8472 -33.4394 40.3048
56.8472 -6.5403 20.1711
56.8472 -55.2544 33.6083
56.8472 -26.5291 -7.3103
56.8472 -3.2370 56.6858
56.8472 36.8466 -37.4937
56.8472 17.7107 68.5033
56.8472 -28.0183 44.5675
56.8472 10.9490 58.7531
56.8472 39.4283 37.7988
56.8472 15.7294 -43.5000
56.8472 -22.9978 -1.7995
56.8472 5.2081 67.8326
56.8472 48.3940 13.9725
56.8472 -37.3892 -26.8044
56.8472 13.5284 54.5636
56.8472 -40.4468 26.3070
56.8472 36.1377 -17.8486
56.8472 19.2426 19.7471
56.8472 16.3606 28.1043
56.8472 -6.2872 -35.2777
56.8472 -36.5844 -61.9453
56.8472 34.1384 1.0149
56.8472 -36.3708 67.0679
56.8472 53.6178 -53.9562
56.8472 -27.9812 19.8381
56.8472 1.4884 41.7253
56.8472 30.8207 34.9642
56.8472 -42.6700 73.9813
56.8472 -3.9975 -73.8701
56.8472 0.2354 -24.6795
56.8472 -45.2105 37.5096
56.8472 56.6343 39.9214
56.8472 34.4584 5.8617
56.8472 -53.7865 -54.3950
56.8472 -52.4185 31.2476
56.8472 6.2656 -31.3689
56.8472 27.9862 37.3842
56.8472 -51.9648 72.6991
56.8472 -53.8333 -7.9678
56.8472 7.3046 37.0865
56.8472 -16.2678 66.0020
56.8472 1.1309 3.4311
56.8472 20.6225 65.5586
56.8472 16.3216 -51.0912
56.8472 -9.8388 -7.2422
-56.8472 7.9914 47.8416
-56.8472 -24.3771 21.7438
-56.8472 -27.0280 -55.0299
-56.8472 2.7246 -60.8902
-56.8472 34.3981 34.6469
-56.8472 -3.9585 -52.9107
-56.8472 -30.5118 30.5932
-56.8472 36.2225 -22.9173
-56.8472 12.3231 61.7932
-56.8472 43.0637 36.7515
-56.8472 -34.7670 29.8722
-56.8472 -21.6921 -46.5885
-56.8472 51.9236 -56.6609
-56.8472 42.6892 45.0244
-56.8472 -57.0266 11.0257
-56.8472 8.8077 39.5731
-56.8472 18.5201 76.0400
-56.8472 -4.2688 10.2964
-56.8472 -2.5423 -64.7047
-56.8472 -16.3340 -75.6763
-56.8472 12.7579 -72.4290
-56.8472 30.7927 -14.8074
-56.8472 26.3514 23.3917
-56.8472 -13.2261 -14.8005
-56.8472 29.0736 31.5590
-56.8472 33.2381 -60.7349
-56.8472 -0.9742 60.2825
-56.8472 36.0094 55.5328
-56.8472 14.1217 21.8576
-56.8472 11.9892 19.5997
-56.8472 -30.4328 -11.6894
-56.8472 44.3203 -7.8078
-56.8472 4.6066 71.9429
-56.8472 14.1024 -7.2189
-56.8472 48.2759 45.0980
-56.8472 32.3608 10.9914
-56.8472 -38.6508 63.4773
-56.8472 -58.8464 -39.7033
-56.8472 -20.7281 -20.2940
-56.8472 -43.6167 -14.2964
-56.8472 -50.5448 -23.3852
-56.8472 -57.1535 -61.9536
-56.8472 44.2456 -15.0234
-56.8472 36.7140 32.1701
-56.8472 -40.8967 -19.9981
-56.8472 -38.6407 60.7503
-56.8472 43.5099 68.8122
-56.8472 -20.2948 -44.9587
-56.8472 -52.6116 -63.3674
-56.8472 12.0114 -75.0085
-56.8472 16.3981 -62.3369
-56.8472 -42.2577 20.2610
-56.8472 -12.3218 53.5828
-56.8472 -39.3440 17.3169
-56.8472 -53.8495 1.8995
-56.8472 -41.5753 -47.1733
-56.8472 2.8529 0.2022
-56.8472 -25.9408 49.6951
-56.8472 -41.0774 51.1579
-56.8472 -30.9774 -1.9347
-56.8472 -6.0596 -9.5074
-56.8472 9.1811 35.2100
-56.8472 29.0291 62.2495
-56.8472 16.2831 -44.0304
-56.8472 -33.3302 -8.5019
-56.8472 -27.3709 -65.4936
-56.8472 37.6682 44.0268
-56.8472 53.7373 74.7650
-56.8472 56.0186 27.5719
-56.8472 -34.4078 40.5273
-56.8472 -11.6695 24.6300
-56.8472 19.2545 -34.5868
-56.8472 44.1418 41.3141
-56.8472 4.3505 20.8819
-56.8472 -31.2697 -71.9636
-56.8472 30.0324 30.1860
-56.8472 -25.0712 63.3564
-56.8472 43.9770 22.9054
-56.8472 45.8756 -3.4345
-56.8472 2.1931 9.3366
-56.8472 24.8716 -56.9847
-56.8472 -3.4488 -67.1090
-56.8472 1.3172 -43.8211
-56.8472 3.0138 -69.5712
-56.8472 -5.3826 25.9489
-56.8472 55.1680 20.6813
-56.8472 48.6606 -58.3818
-56.8472 -53.0571 -72.7755
-56.8472 -24.1710 -66.0852
-56.8472 -25.9421 4.3510
-56.8472 7.5626 -9.1752
-56.8472 -5.5525 -56.9570
-56.8472 38.6658 3.7997
-56.8472 -7.3014 -65.8614
-56.8472 33.8993 -63.0171
-56.8472 -7.5294 28.2725
-56.8472 -3.6531 45.2004
-56.8472 -58.6530 -25.5378
-56.8472 -2.9375 3.1654
-56.8472 -43.6018 -6.7307
-56.8472 26.6359 -54.8326
-56.8472 37.8966 51.1420
-56.8472 -32.4162 39.8140
-56.8472 -13.3171 -23.4437
-56.8472 -5.1498 -21.9329
-56.8472 34.4282 38.2979
-56.8472 58.6577 50.5824
-56.8472 -26.5549 -73.7535
-56.8472 41.2352 32.3852
-56.8472 -0.4853 -14.3237
-56.8472 -56.9233 48.4104
-56.8472 -45.1391 -45.9364
-56.8472 -28.1244 -74.9567
-56.8472 12.8679 73.3859
-56.8472 -41.4710 66.1982
-56.8472 4.3207 63.6551
-56.8472 -4.3984 59.2281
-56.8472 26.3734 -10.4184
-56.8472 8.1811 -51.5134
-56.8472 -20.9812 41.4427
-56.8472 -59.6246 46.1117
-56.8472 -2.8896 -0.4330
-56.8472 -50.6738 41.8696
-56.8472 -12.8640 4.9884
-56.8472 -44.4038 63.8728
-56.8472 41.7872 45.5477
-56.8472 -44.6812 32.5024
-56.8472 40.0969 -4.5887
-56.8472 -41.7991 2.9317
-56.8472 55.2048 73.4477
-56.8472 41.6609 -45.9357
-56.8472 11.9401 43.0457
-56.8472 28.1644 -37.8489
-56.8472 -20.5195 -68.3742
-56.8472 47.7539 -42.1717
-56.8472 -31.9734 -11.7044
-56.8472 27.8197 36.9164
-56.8472 42.6280 61.8411
-56.8472 24.3614 -29.8833
-56.8472 17.4613 -32.9661
-56.8472 38.5996 -20.7625
-56.8472 -21.3535 26.6609
-56.8472 58.5437 44.5265
-56.8472 -27.9740 61.8420
-56.8472 -11.9359 -39.7992
-56.8472 2.3625 -69.1744
-56.8472 38.4508 64.8837
-56.8472 23.3426 -46.9590
-56.8472 -31.9364 -34.2249
-56.8472 39.6908 -76.2706
-56.8472 26.2330 6.0398
-56.8472 31.3015 -20.0554
-56.8472 -30.1498 61.3401
-56.8472 -52.8628 47.2220
-56.8472 -6.6621 76.1933
-56.8472 37.3439 8.4873
-56.8472 -52.5324 57.3584
-56.8472 -48.0100 -62.5522
-56.8472 8.1358 -57.2440
-56.8472 7.9735 10.6849
-56.8472 17.3546 -38.1908
-56.8472 -44.5276 -25.9161
-56.8472 50.5772 26.0054
-56.8472 22.2120 51.6364
-56.8472 -15.9389 72.1719
-56.8472 32.9534 61.1631
-56.8472 -4.5656 57.5290
-56.8472 -35.7600 18.2846
-56.8472 58.2725 27.1733
-56.8472 14.3592 -76.0098
-56.8472 18.6942 -1.5197
8.4245 59.9758 -63.9771
-6.7935 59.9758 -62.0445
-52.7170 59.9758 -11.8666
-43.1423 59.9758 56.4751
-34.9130 59.9758 -18.0570
-42.3185 59.9758 38.9111
-2.7345 59.9758 65.4843
-18.2359 59.9758 -74.7343
-39.3664 59.9758 -57.6092
55.5370 59.9758 17.8916
-40.2588 59.9758 7.9540
-25.9787 59.9758 24.4369
-39.8436 59.9758 -66.2212
-46.0156 59.9758 58.2665
-39.2586 59.9758 -8.7404
4.8302 59.9758 23.2327
36.6292 59.9758 64.6709
-22.9742 59.9758 -5.5265
-49.1838 59.9758 16.4315
-12.6971 59.9758 46.0597
-3.4698 59.9758 -51.2269
-10.1487 59.9758 28.2164
-15.2005 59.9758 15.9844
19.8158 59.9758 -24.2505
-49.6960 59.9758 0.3382
2.0441 59.9758 -27.7945
-52.3671 59.9758 51.0630
-48.9871 59.9758 -25.6080
13.0162 59.9758 -52.6730
20.7775 59.9758 -5.1863
-46.8202 59.9758 -15.0969
19.6393 59.9758 57.3711
27.4323 59.9758 16.2218
-1.2309 59.9758 -33.7464
-43.8665 59.9758 -6.2031
26.1277 59.9758 -7.9759
-28.2237 59.9758 23.5323
-44.2461 59.9758 30.9453
-31.8953 59.9758 41.7384
-20.7022 59.9758 -18.8822
-27.0035 59.9758 15.7977
-0.5076 59.9758 25.1222
56.3571 59.9758 42.1058
13.3020 59.9758 51.7767
-2.4635 59.9758 -7.0824
-47.3396 59.9758 1.5049
-13.8027 59.9758 46.4127
47.9208 59.9758 -59.7226
-30.5955 59.9758 -19.1796
39.6478 59.9758 -47.1044
26.5729 59.9758 61.5682
10.8114 59.9758 5.9865
27.1187 59.9758 60.9173
-17.7793 59.9758 14.1175
-1.2903 59.9758 -0.4762
-16.2891 59.9758 73.9613
-47.1781 59.9758 35.1480
37.8453 59.9758 -49.4773
-24.0117 59.9758 25.1773
-49.5845 59.9758 49.7938
35.6827 59.9758 24.5638
-26.2429 59.9758 7.7167
-27.2834 59.9758 1.4916
-38.1663 59.9758 -36.2988
31.6629 59.9758 -28.0293
34.2252 59.9758 40.9139
20.8372 59.9758 -14.5160
-56.2560 59.9758 30.5923
37.7933 59.9758 73.5043
-31.7679 59.9758 49.6829
-47.3183 59.9758 -71.4191
-3.4356 59.9758 74.4740
33.1217 59.9758 -68.2941
7.4669 59.9758 37.3327
-23.4810 59.9758 -38.2297
16.2285 59.9758 40.0404
54.3041 59.9758 -38.3456
56.8059 59.9758 -21.0755
-8.6366 59.9758 -15.1917
-9.0973 59.9758 20.6196
16.9826 59.9758 62.8771
-16.7598 59.9758 36.1712
22.9584 59.9758 42.9797
-18.7594 59.9758 54.1354
42.0187 59.9758 74.7912
-40.4786 59.9758 -75.8423
-16.6883 59.9758 -44.4872
29.9808 59.9758 -25.8400
33.8807 59.9758 60.8047
-30.9725 59.9758 -39.6509
-15.0904 59.9758 33.4056
38.6952 59.9758 -49.2793
-33.0704 59.9758 65.7207
-28.9950 59.9758 -22.3039
-35.3728 59.9758 21.5659
-28.4973 59.9758 5.3458
-45.7353 59.9758 -15.2629
49.4218 59.9758 -61.5121
0.2057 59.9758 6.8511
47.0834 59.9758 15.5165
-36.4075 59.9758 -71.0709
11.6367 59.9758 49.1119
41.6799 59.9758 50.5337
6.6913 59.9758 -59.0550
-46.2823 59.9758 50.5798
-48.9521 59.9758 -18.0361
-43.9989 59.9758 -12.1731
-4.9581 59.9758 -73.9274
5.2681 59.9758 -59.8840
50.7451 59.9758 -22.7168
54.0333 59.9758 -21.9975
-9.0622 59.9758 61.4286
42.7691 59.9758 -57.8373
49.4792 59.9758 34.5335
53.5521 59.9758 9.0511
-27.1392 59.9758 -40.8198
-13.1671 59.9758 -5.6645
-6.4390 59.9758 -17.5101
7.4522 59.9758 76.0954
55.8777 59.9758 24.4562
1.5179 59.9758 53.0126
19.4429 59.9758 -17.4533
-15.3260 59.9758 32.7951
-16.6546 59.9758 6.3833
-44.0036 59.9758 66.8934
49.4265 59.9758 -47.1297
24.2665 59.9758 -35.9728
-46.0621 59.9758 -70.0653
27.4088 59.9758 -10.3019
-41.3213 59.9758 17.4268
12.2428 59.9758 -53.7716
-23.6080 59.9758 -25.4958
-39.4906 59.9758 -68.9109
31.7624 59.9758 -9.7920
-50.7267 59.9758 4.5468
-45.1814 59.9758 -15.3969
18.2011 59.9758 42.5046
29.0144 59.9758 68.8955
-55.4534 59.9758 -44.0905
55.7257 59.9758 28.7812
-11.5415 59.9758 -70.1390
37.0858 59.9758 -17.5905
-36.1261 59.9758 55.5910
4.6060 59.9758 -52.6469
-43.1052 59.9758 -42.4173
20.7774 59.9758 71.1278
-15.8952 59.9758 -0.7495
11.0697 59.9758 45.1919
-49.8036 59.9758 -37.0147
-49.1368 59.9758 -10.0954
-50.2362 59.9758 39.9401
-33.3273 59.9758 -24.7498
8.9117 59.9758 60.6984
-19.9894 59.9758 -14.2267
-31.0410 59.9758 -45.1578
48.1534 59.9758 17.3019
51.4039 59.9758 -52.4286
-17.4633 59.9758 51.9186
-24.3105 59.9758 -60.5554
-15.8573 59.9758 -27.1729
0.8170 59.9758 66.3323
45.3215 59.9758 8.0900
-53.0054 59.9758 53.0858
-15.6863 59.9758 -12.0507
36.6164 59.9758 62.3646
48.8402 59.9758 -3.5942
-51.3492 59.9758 -52.0841
-27.4830 59.9758 53.6065
-22.8421 59.9758 51.5394
-13.6696 59.9758 -25.0454
11.9356 59.9758 75.6557
-38.1408 -59.9758 -2.2231
30.3922 -59.9758 23.9591
48.4277 -59.9758 66.0938
-13.1263 -59.9758 -67.2791
23.7939 -59.9758 -13.8799
-30.0749 -59.9758 -16.8845
-3.8450 -59.9758 28.3716
-53.7707 -59.9758 -29.8168
2.0341 -59.9758 60.5658
22.4261 -59.9758 53.2255
-40.7129 -59.9758 -68.3437
54.8326 -59.9758 -33.5692
45.6720 -59.9758 12.6920
14.5654 -59.9758 33.9569
-41.8960 -59.9758 -4.6551
-55.9155 -59.9758 -52.4922
32.4424 -59.9758 28.1546
-1.3358 -59.9758 29.9918
0.5836 -59.9758 -57.1500
27.7052 -59.9758 -35.2907
6.9120 -59.9758 -53.0548
-7.7083 -59.9758 -9.1217
30.3759 -59.9758 -66.0182
-44.1943 -59.9758 -48.2482
-11.2660 -59.9758 -8.0284
30.3299 -59.9758 66.1564
-0.0705 -59.9758 -48.4206
-21.6189 -59.9758 8.5145
51.8150 -59.9758 73.7171
-49.2725 -59.9758 47.9819
40.4269 -59.9758 69.6608
-13.8234 -59.9758 21.2729
12.2287 -59.9758 1.9273
-25.2657 -59.9758 24.4587
-35.0581 -59.9758 1.7861
-21.2997 -59.9758 -21.1049
-12.8762 -59.9758 12.6905
34.6463 -59.9758 26.9978
-28.5425 -59.9758 52.8676
32.7647 -59.9758 30.8547
-16.2054 -59.9758 -75.4255
-24.1649 -59.9758 -20.7373
-3.6311 -59.9758 -16.7482
-36.9327 -59.9758 -26.1329
-11.7565 -59.9758 -69.7341
36.3370 -59.9758 72.2853
12.6736 -59.9758 18.3047
6.3585 -59.9758 1.5994
-31.0317 -59.9758 -22.7196
44.5041 -59.9758 10.7419
-34.8638 -59.9758 -2.3155
-51.0881 -59.9758 -39.3563
17.2016 -59.9758 -56.3429
27.9611 -59.9758 -44.5860
37.5788 -59.9758 -60.6894
52.7865 -59.9758 -57.4835
-17.7329 -59.9758 31.4840
28.8547 -59.9758 -35.7013
-32.7967 -59.9758 -30.9512
38.4557 -59.9758 -56.4157
-1.8178 -59.9758 66.4603
-38.5066 -59.9758 -20.1743
-0.8996 -59.9758 -14.7418
51.6884 -59.9758 56.8140
10.4098 -59.9758 11.7835
-27.2043 -59.9758 72.3881
10.8208 -59.9758 23.0774
4.4586 -59.9758 35.9523
-31.5564 -59.9758 -34.5230
-45.3739 -59.9758 30.4085
-10.9486 -59.9758 28.1891
49.1273 -59.9758 32.9790
-1.9579 -59.9758 74.6654
-16.1981 -59.9758 32.2028
21.5505 -59.9758 55.6137
0.4409 -59.9758 35.3544
-54.1498 -59.9758 19.0236
9.0420 -59.9758 -49.9481
-16.9710 -59.9758 -0.6999
-40.3316 -59.9758 69.7232
16.5567 -59.9758 -62.9136
-50.4248 -59.9758 -56.8424
-26.7005 -59.9758 -56.9900
-39.3550 -59.9758 -21.6361
23.4980 -59.9758 52.9860
6.0920 -59.9758 -8.2268
-0.7517 -59.9758 36.4224
23.8698 -59.9758 11.1023
27.3818 -59.9758 74.5480
10.8310 -59.9758 -13.8570
-26.7177 -59.9758 56.9993
-56.1468 -59.9758 -7.6272
10.6678 -59.9758 69.9886
-19.4613 -59.9758 14.8945
11.7271 -59.9758 74.9200
-14.7290 -59.9758 15.2484
47.5977 -59.9758 18.4925
-16.3661 -59.9758 28.3224
-22.3074 -59.9758 9.3847
-28.4148 -59.9758 66.7625
-26.8755 -59.9758 -74.3556
3.0524 -59.9758 -4.5870
-3.5220 -59.9758 32.1919
25.4688 -59.9758 -53.1864
-51.4627 -59.9758 -59.9843
6.8582 -59.9758 -75.0370
11.9336 -59.9758 20.2561
39.3225 -59.9758 -49.4452
-22.5954 -59.9758 -5.1821
-20.6716 -59.9758 -1.7282
16.7015 -59.9758 -67.9550
-41.3973 -59.9758 -30.3416
54.1150 -59.9758 64.7016
6.6353 -59.9758 37.4538
-11.7272 -59.9758 -12.1197
-14.6266 -59.9758 -21.8380
-38.8140 -59.9758 -18.7191
5.7142 -59.9758 -65.3444
12.4077 -59.9758 -57.5410
1.5113 -59.9758 -27.5047
52.5789 -59.9758 -31.7332
6.6268 -59.9758 -7.3045
52.9091 -59.9758 6.1165
-13.3364 -59.9758 56.5240
-2.4803 -59.9758 70.1610
28.0943 -59.9758 -37.1213
-9.9258 -59.9758 31.0292
50.8748 -59.9758 3.7801
-33.7197 -59.9758 16.7670
-12.1092 -59.9758 -49.6542
52.4566 -59.9758 -0.8265
45.0393 -59.9758 72.7503
36.8969 -59.9758 36.8783
-54.6329 -59.9758 -61.1389
-1.1218 -59.9758 6.7456
-24.6065 -59.9758 -5.2808
-52.1935 -59.9758 22.4450
-50.3344 -59.9758 44.2149
-30.8668 -59.9758 -42.1866
-25.8978 -59.9758 20.0957
38.4261 -59.9758 48.8735
37.9078 -59.9758 -26.7599
-47.5558 -59.9758 11.9996
23.8272 -59.9758 -73.2567
15.1868 -59.9758 -27.6462
7.4292 -59.9758 -52.5042
25.2332 -59.9758 -73.8009
-33.9728 -59.9758 -75.0034
14.7035 -59.9758 61.5957
42.0543 -59.9758 -57.9986
-14.4618 -59.9758 8.5607
51.3181 -59.9758 -71.2737
52.7153 -59.9758 75.2613
45.0572 -59.9758 -54.4087
-11.3824 -59.9758 45.2215
56.8038 -59.9758 -47.1906
-48.9747 -59.9758 34.8854
-10.1614 -59.9758 -57.3508
16.4452 -59.9758 6.2425
-2.9443 -59.9758 -54.5582
10.7037 -59.9758 73.5432
-38.5083 -59.9758 -4.1115
16.7880 -59.9758 -71.1114
-23.2012 -59.9758 61.7332
33.1847 -59.9758 -68.1903
-42.6849 -59.9758 -56.2709
20.3254 -59.9758 8.7523
26.9506 -59.9758 40.7316
-50.9785 -59.9758 -32.7335
-42.3576 -59.9758 17.6593
-5.2215 -59.9758 1.6725
16.4744 44.7823 76.5425
-4.5387 19.7772 76.5425
-29.9114 32.3982 76.5425
56.5266 -5.8603 76.5425
7.5087 -43.0454 76.5425
-52.6786 51.7913 76.5425
-24.9736 -40.2536 76.5425
23.1368 0.8413 76.5425
-17.8462 40.2002 76.5425
-50.3577 -33.1956 76.5425
45.8389 34.5699 76.5425
-15.3082 17.0624 76.5425
-23.0178 14.4171 76.5425
44.0769 -33.0222 76.5425
46.8029 52.4563 76.5425
27.7128 -1.0930 76.5425
-43.4165 44.4791 76.5425
-12.0821 -37.1079 76.5425
0.9835 13.4496 76.5425
-6.4008 -7.5332 76.5425
-47.2256 24.3374 76.5425
-31.0045 -59.3994 76.5425
44.9023 10.8567 76.5425
11.7094 31.2763 76.5425
38.7534 -2.8709 76.5425
-49.9660 34.1593 76.5425
48.7074 -4.2222 76.5425
-47.2001 -19.2055 76.5425
23.0495 -59.8207 76.5425
-17.7889 47.5613 76.5425
29.0799 20.4112 76.5425
17.8710 55.5120 76.5425
40.7275 -6.0875 76.5425
-26.2554 -19.1175 76.5425
46.1066 -24.7890 76.5425
-37.4844 -26.1347 76.5425
-39.6520 26.0726 76.5425
-16.1933 -20.6527 76.5425
-52.2084 30.7527 76.5425
-10.0437 -3.6496 76.5425
-49.5859 18.2300 76.5425
36.9571 -15.1648 76.5425
-26.0037 4.9250 76.5425
-38.9867 15.9645 76.5425
-16.6086 -53.4662 76.5425
-43.2554 38.1988 76.5425
53.2686 -43.8038 76.5425
43.8025 -35.0398 76.5425
-37.4373 40.8618 76.5425
55.9447 28.7922 76.5425
-56.0122 29.2433 76.5425
-49.8058 -18.6437 76.5425
44.0844 48.4562 76.5425
-3.3865 47.8494 76.5425
-15.2252 36.7133 76.5425
-17.7897 -36.3837 76.5425
-51.1722 30.8450 76.5425
-37.8106 -37.8773 76.5425
54.5917 -53.8220 76.5425
11.7613 -18.2774 76.5425
20.4627 22.1228 76.5425
18.9483 -52.5790 76.5425
11.9182 -3.9623 76.5425
-15.5092 -22.0416 76.5425
-13.4129 15.3618 76.5425
26.7720 -46.4187 76.5425
55.6209 -11.1405 76.5425
-36.0834 30.3386 76.5425
-43.6574 1.3726 76.5425
-15.2789 -31.2292 76.5425
41.4478 12.0308 76.5425
-3.8991 5.7987 76.5425
-18.1127 -5.3536 76.5425
11.9565 45.0211 76.5425
26.4177 56.7511 76.5425
8.9793 11.8277 76.5425
-18.2235 23.6062 76.5425
35.6147 6.0734 76.5425
55.7219 48.9655 76.5425
-17.0424 -53.2265 76.5425
47.4959 30.4855 76.5425
25.3737 11.9387 76.5425
43.1846 -42.1156 76.5425
-4.8582 -56.0274 76.5425
-23.0204 47.5117 76.5425
-3.6980 2.0097 76.5425
15.0245 53.6306 76.5425
8.4086 -29.5103 76.5425
-46.0248 -44.4248 76.5425
-46.1733 18.0602 76.5425
33.7537 35.0061 76.5425
-52.0408 -25.3309 76.5425
19.1630 11.8569 76.5425
51.6003 53.6825 76.5425
-45.6779 -3.4943 76.5425
13.1719 -18.6741 76.5425
40.7891 -22.4216 76.5425
-21.9537 -43.8593 76.5425
-25.0463 -46.3397 76.5425
-33.4765 -13.4884 76.5425
-22.3398 57.2534 76.5425
43.1491 -58.2915 76.5425
-51.2967 -29.9678 76.5425
-51.2588 -19.2511 76.5425
56.7030 10.5580 76.5425
-30.1283 16.7386 76.5425
-6.2055 59.3319 76.5425
-45.9334 6.9814 76.5425
-41.0443 -11.6889 76.5425
4.1951 12.6246 76.5425
-28.6173 -16.5554 76.5425
-49.6784 -7.7493 76.5425
38.7378 -16.1023 76.5425
8.5703 50.3751 76.5425
9.7508 -13.6236 76.5425
-47.3060 -31.4660 76.5425
35.3260 -50.2998 76.5425
8.7984 10.9183 76.5425
-25.0184 32.7032 76.5425
3.8047 -1.0291 76.5425
47.8476 15.3686 76.5425
-36.2602 22.3538 76.5425
50.1596 22.4880 76.5425
53.5728 -13.6269 76.5425
51.9530 52.6732 76.5425
-23.9794 30.3913 76.5425
35.8583 -31.8628 76.5425
-37.3519 -51.7525 76.5425
35.4404 -43.5583 76.5425
8.4185 -45.6376 76.5425
-30.0275 -33.2602 76.5425
-48.7407 -24.9093 76.5425
5.2811 -38.8707 76.5425
13.9108 16.1933 76.5425
14.0991 -9.1615 76.5425
-32.5295 -12.9618 76.5425
15.8289 -24.2236 76.5425
-24.4939 -57.4398 76.5425
-23.2232 22.7502 76.5425
36.1985 4.5835 76.5425
-4.9298 -2.0616 76.5425
-10.9513 -10.1850 76.5425
-19.7484 50.5335 76.5425
48.9424 55.5596 76.5425
-29.8727 -15.0298 76.5425
-38.0292 -50.3007 76.5425
42.0699 -45.5479 76.5425
32.8176 34.4066 76.5425
-18.0857 -14.4338 76.5425
24.6844 13.2615 76.5425
-49.5146 -29.1804 76.5425
-32.0123 -17.5967 76.5425
14.2160 -12.5278 76.5425
11.6301 -9.2814 76.5425
-20.1906 44.3347 76.5425
48.9195 20.4562 76.5425
-40.4480 -45.2347 76.5425
15.8166 52.1159 76.5425
-29.8615 47.5606 76.5425
-24.6760 19.5806 76.5425
-30.2542 3.4431 76.5425
-23.8953 -49.6177 76.5425
4.6021 -5.0938 76.5425
49.5217 -41.4030 76.5425
-50.3511 17.9307 76.5425
-16.0547 -50.4054 76.5425
46.3861 -8.3352 76.5425
-25.1975 -14.9211 76.5425
46.5240 24.0529 76.5425
-40.0538 -24.6678 76.5425
-14.7336 -0.7135 -76.5425
-53.5054 6.0881 -76.5425
-0.7215 -54.3233 -76.5425
-30.9678 -44.5305 -76.5425
49.0319 11.0501 -76.5425
-0.3704 34.1266 -76.5425
-50.2924 17.1413 -76.5425
45.2796 -50.0227 -76.5425
55.5960 -29.6968 -76.5425
0.5922 -24.3684 -76.5425
-39.7397 5.7308 -76.5425
-3.1437 50.3962 -76.5425
-41.7881 -15.6535 -76.5425
44.5217 42.8913 -76.5425
-24.9039 51.2559 -76.5425
39.9300 -7.8691 -76.5425
52.4300 -31.7303 -76.5425
55.4286 -0.3875 -76.5425
33.9396 -30.3859 -76.5425
-54.6156 -44.9437 -76.5425
4.9819 6.8315 -76.5425
-43.3258 -50.4808 -76.5425
-3.4328 32.1384 -76.5425
17.5674 58.3352 -76.5425
23.3568 -49.6273 -76.5425
36.0844 48.8062 -76.5425
26.3170 -25.7317 -76.5425
-45.9295 47.2116 -76.5425
-34.4720 25.3824 -76.5425
22.4555 -22.0246 -76.5425
3.6921 -40.1398 -76.5425
14.7185 -53.1425 -76.5425
-24.8993 -3.3186 -76.5425
23.2707 33.8255 -76.5425
-13.0329 57.5453 -76.5425
38.2773 -36.5858 -76.5425
-38.5806 -8.7093 -76.5425
14.3514 3.6891 -76.5425
-18.2724 42.8431 -76.5425
-38.9638 2.3962 -76.5425
26.0891 33.7445 -76.5425
-38.9826 49.8927 -76.5425
0.6711 -40.4118 -76.5425
-1.6479 58.5779 -76.5425
32.1682 -6.1202 -76.5425
0.9279 1.9821 -76.5425
35.9286 -35.7076 -76.5425
-39.9433 31.6971 -76.5425
13.1331 57.1873 -76.5425
14.5453 55.9768 -76.5425
43.3987 -47.5105 -76.5425
-41.6438 45.6905 -76.5425
-22.9402 -8.9543 -76.5425
0.0690 -4.4375 -76.5425
45.6643 -34.4868 -76.5425
-50.6898 22.4313 -76.5425
-23.5181 -43.6384 -76.5425
45.6177 14.1626 -76.5425
43.0126 -27.4973 -76.5425
-20.2483 -24.2265 -76.5425
-4.9189 34.6892 -76.5425
-53.0634 48.7687 -76.5425
-53.6420 53.7813 -76.5425
11.4658 -39.3037 -76.5425
-56.7482 23.0585 -76.5425
-0.0506 -9.7195 -76.5425
11.2887 55.7645 -76.5425
-55.7656 27.4605 -76.5425
18.1068 6.6289 -76.5425
-37.1849 -45.9489 -76.5425
11.8271 10.5722 -76.5425
-14.6128 32.7440 -76.5425
-12.2114 -40.8601 -76.5425
-53.7877 7.1687 -76.5425
-54.7168 13.7155 -76.5425
20.1983 47.7936 -76.5425
-39.8908 27.7624 -76.5425
39.0893 2.8618 -76.5425
-53.3079 47.0432 -76.5425
-12.1586 -55.5464 -76.5425
-18.1173 -53.7736 -76.5425
-48.9284 39.8840 -76.5425
-56.7479 32.4894 -76.5425
47.0256 35.4041 -76.5425
-10.5154 -10.9352 -76.5425
20.0980 -37.4950 -76.5425
-40.3587 7.9330 -76.5425
27.1937 -13.1144 -76.5425
3.7338 48.1540 -76.5425
17.2060 34.2897 -76.5425
-35.3006 -43.0514 -76.5425
-41.8658 -5.6291 -76.5425
-22.6262 -38.8275 -76.5425
-8.0758 39.2719 -76.5425
-45.7914 -2.7588 -76.5425
-45.3257 -50.9993 -76.5425
-29.0406 -19.2313 -76.5425
20.0223 41.9792 -76.5425
4.4821 -56.1956 -76.5425
18.3579 55.8362 -76.5425
45.5813 -56.7350 -76.5425
-46.8737 53.3233 -76.5425
-13.0530 -29.6730 -76.5425
35.2383 55.1787 -76.5425
20.2284 -27.0472 -76.5425
-15.8614 -9.4334 -76.5425
-47.8902 40.8669 -76.5425
12.7154 4.6374 -76.5425
-25.3754 11.2771 -76.5425
26.5781 22.3683 -76.5425
44.8284 -9.3424 -76.5425
43.3317 -56.3989 -76.5425
32.6909 -56.4513 -76.5425
4.3437 -1.4239 -76.5425
24.6077 -58.4902 -76.5425
12.3840 -9.0947 -76.5425
-39.5740 25.4089 -76.5425
-21.8931 1.3161 -76.5425
-1.2549 -4.5111 -76.5425
-5.4972 -22.8518 -76.5425
36.5539 20.5269 -76.5425
-27.5484 15.7405 -76.5425
40.5274 -8.3553 -76.5425
1.6266 -38.4528 -76.5425
-10.1297 57.2153 -76.5425
37.4522 38.3032 -76.5425
-13.0596 32.5204 -76.5425
13.0506 -18.2585 -76.5425
-15.1890 -45.5835 -76.5425
-9.3268 -47.5982 -76.5425
-20.3607 -54.4830 -76.5425
16.0174 5.2230 -76.5425
21.2908 -49.9688 -76.5425
36.5523 -11.3269 -76.5425
40.8627 35.6111 -76.5425
-39.2251 44.8571 -76.5425
-20.3332 -14.2001 -76.5425
-16.4659 59.5006 -76.5425
22.2011 -56.1291 -76.5425
51.9323 17.2563 -76.5425
-40.6941 -20.9856 -76.5425
27.7731 9.2104 -76.5425
-41.1806 52.1093 -76.5425
-34.7244 -2.6057 -76.5425
42.2390 27.3808 -76.5425
26.5944 -35.5812 -76.5425
0.1906 -54.3840 -76.5425
50.2434 -42.2607 -76.5425
29.3434 -43.1681 -76.5425
-54.7296 -6.4680 -76.5425
54.6899 -9.4549 -76.5425
22.0720 15.9427 -76.5425
-1.0148 37.8389 -76.5425
-17.0444 -38.6913 -76.5425
-19.3106 27.0748 -76.5425
-16.6683 -41.9720 -76.5425
4.1616 34.1360 -76.5425
23.5520 -7.6370 -76.5425
48.1167 -10.2312 -76.5425
-10.1244 -16.8760 -76.5425
6.4252 -52.3813 -76.5425
43.3439 -27.1694 -76.5425
-56.0793 -4.0151 -76.5425
21.3004 -17.2687 -76.5425
-16.2543 2.1086 -76.5425
46.1686 -30.5748 -76.5425
31.5925 20.1097 -76.5425
-28.9150 17.1179 -76.5425
-49.2915 -13.8412 -76.5425
31.9027 -6.1359 -76.5425
