ply
format ascii 1.0
element vertex 1024
property float x
property float y
property float z
end_header
90.2166 -23.4894 50.5392
90.2166 5.0220 -49.6778
90.2166 -8.9896 -76.1383
90.2166 20.8387 -4.6572
90.2166 3.8348 15.9710
90.2166 2.4399 -39.4510
90.2166 -8.1905 73.6308
90.2166 -19.9797 -27.2350
90.2166 19.8674 13.2280
90.2166 -9.4496 -58.8552
90.2166 -0.8827 -19.7630
90.2166 12.1559 6.3322
90.2166 -7.7986 -20.3882
90.2166 28.3916 -22.1114
90.2166 27.9272 -77.6128
90.2166 10.0361 -35.1058
90.2166 -28.1031 49.1349
90.2166 -13.9156 -0.9318
90.2166 21.1026 18.6648
90.2166 23.3530 31.1689
90.2166 11.0657 -74.3442
90.2166 24.4078 -20.2216
90.2166 4.2177 66.9098
90.2166 28.7887 2.7905
90.2166 2.2670 14.9573
90.2166 0.8534 -15.7258
90.2166 -4.0221 38.4981
90.2166 -0.9584 70.4198
90.2166 -23.0265 48.2082
90.2166 -26.3102 21.0194
90.2166 24.4079 63.1282
90.2166 4.4431 63.9613
90.2166 15.7797 57.0289
90.2166 4.8975 -67.4769
90.2166 25.7940 30.6723
90.2166 19.2907 -38.7973
90.2166 23.9491 -71.3115
90.2166 -15.3478 19.5064
90.2166 18.8671 -4.0598
90.2166 -26.4478 -17.6521
90.2166 -11.9252 -60.9165
90.2166 -13.9730 -36.6271
90.2166 -2.8580 -22.0540
90.2166 -28.8598 32.7085
90.2166 17.2848 -61.1244
90.2166 17.9685 -39.6213
90.2166 -3.1612 -17.8175
90.2166 4.0131 -67.3875
90.2166 7.7048 44.9889
90.2166 -12.1180 18.6478
90.2166 -20.8062 47.9373
90.2166 -6.9872 -73.6140
90.2166 8.2855 69.4556
90.2166 25.6773 58.0191
90.2166 -20.7798 -51.4898
90.2166 19.4874 34.1300
90.2166 21.8720 58.3557
90.2166 6.6624 -66.3795
90.2166 16.5646 50.1900
90.2166 22.3729 32.8083
90.2166 -27.1011 35.7981
90.2166 -28.5863 -70.2760
90.2166 24.6336 19.7938
90.2166 -28.6403 -46.3970
90.2166 4.4078 -11.5762
90.2166 11.8060 -44.1705
90.2166 -14.8969 73.3864
90.2166 0.4234 21.4224
90.2166 9.6858 68.4073
90.2166 -9.1229 -47.5593
90.2166 -10.7150 -66.9264
90.2166 -18.4911 21.4776
90.2166 -17.3773 -11.0502
90.2166 24.9356 38.9407
90.2166 5.8553 -59.0475
90.2166 -20.1814 -5.1356
90.2166 -1.0355 -31.7928
90.2166 -13.0978 -38.3449
90.2166 13.7704 77.5146
90.2166 24.6007 68.2824
90.2166 -8.9670 -70.6974
90.2166 -24.9302 -23.3973
90.2166 19.5330 64.9192
90.2166 22.4089 37.9073
90.2166 -20.4417 74.4781
90.2166 21.5329 41.8783
90.2166 -25.7105 39.1157
90.2166 22.3365 10.6189
90.2166 -14.6355 36.6238
90.2166 6.7319 -34.9261
90.2166 11.9673 3.9015
90.2166 24.6183 37.8488
90.2166 -27.0221 -31.6961
90.2166 16.4775 -27.7387
90.2166 -1.0865 -7.6582
90.2166 -12.6579 -21.4975
90.2166 -4.1541 -76.9999
90.2166 -9.0675 -47.1046
90.2166 24.2564 72.1039
90.2166 9.8406 21.7643
90.2166 6.3002 -61.1695
90.2166 -15.5400 -2.3726
90.2166 14.0422 17.5189
90.2166 -10.1731 -48.6489
90.2166 -6.2611 52.0221
90.2166 -9.4115 52.2305
90.2166 -15.1858 -51.7565
90.2166 -27.1738 25.9357
90.2166 -19.8873 12.9320
90.2166 -16.0549 31.1224
90.2166 -19.6622 41.9239
90.2166 16.9541 -5.3942
90.2166 9.0036 -6.9122
90.2166 19.6365 73.9679
90.2166 15.2073 -46.9814
90.2166 -20.9701 77.3291
90.2166 -18.6594 -12.6072
90.2166 -8.1929 66.9969
90.2166 11.0607 -27.9473
90.2166 7.7611 43.1721
90.2166 18.0320 56.7755
90.2166 10.4054 -35.9681
90.2166 6.4949 -47.9242
90.2166 17.6187 7.9144
90.2166 -20.7427 20.0713
90.2166 -1.8081 53.1541
90.2166 24.3687 -20.3205
90.2166 -0.4920 34.6209
90.2166 3.1870 5.6482
90.2166 16.0953 -13.6685
90.2166 -5.8212 68.6079
90.2166 -13.0835 63.3825
90.2166 22.8210 61.1110
90.2166 14.1432 -1.8677
90.2166 5.6003 -6.5345
90.2166 -16.5035 -31.4102
90.2166 22.7566 35.8653
90.2166 -13.5402 -0.1443
90.2166 3.1073 -72.1876
90.2166 -27.0315 10.0997
90.2166 15.3823 -27.2160
90.2166 -8.9734 -69.3399
90.2166 -28.0520 -44.6587
90.2166 -7.2574 -29.0316
90.2166 26.4375 -42.9907
90.2166 13.2085 -19.4081
90.2166 -0.0483 -5.3684
90.2166 16.2629 31.0358
90.2166 25.0615 37.8761
90.2166 26.1429 55.7375
90.2166 20.7651 53.1560
90.2166 -3.5279 21.8697
90.2166 11.9164 75.4300
90.2166 6.1211 35.2182
90.2166 -0.5327 -3.7884
90.2166 12.8054 -31.7151
90.2166 24.5090 74.5921
90.2166 22.8451 42.2782
90.2166 -11.9610 25.1227
90.2166 -18.9985 23.4608
90.2166 -12.7164 50.9883
90.2166 -6.8552 -38.4390
90.2166 7.4027 -69.3504
90.2166 8.5196 71.2884
90.2166 -23.7280 -13.7718
90.2166 16.4887 -31.6809
90.2166 -21.0359 73.8939
90.2166 -17.5462 -40.0210
90.2166 -21.2664 -19.0378
90.2166 -24.4488 23.8836
90.2166 8.2832 -74.9141
-90.2166 -16.8716 -27.6158
-90.2166 -8.4096 72.4024
-90.2166 -1.5240 65.0301
-90.2166 -17.6658 -56.5951
-90.2166 13.3046 -34.9972
-90.2166 -22.7841 34.8376
-90.2166 -25.2244 -36.0060
-90.2166 16.7907 2.7837
-90.2166 21.2561 -3.3258
-90.2166 8.2876 -24.2125
-90.2166 28.0044 32.0921
-90.2166 -29.1009 47.8169
-90.2166 -29.1177 15.7767
-90.2166 -15.8187 -37.5716
-90.2166 -24.0444 74.9162
-90.2166 -20.6324 -49.0271
-90.2166 6.8974 16.8723
-90.2166 25.1389 -76.4500
-90.2166 18.3474 -11.4534
-90.2166 -1.0622 20.7701
-90.2166 -21.5473 39.0647
-90.2166 -25.4773 -54.1517
-90.2166 -20.7135 40.5635
-90.2166 24.6110 34.1400
-90.2166 -0.5899 -7.4794
-90.2166 27.4632 -21.9947
-90.2166 29.1507 -52.9710
-90.2166 -8.5226 19.3068
-90.2166 2.6209 3.3544
-90.2166 27.1515 74.8901
-90.2166 29.0482 -5.2598
-90.2166 -10.5552 37.3344
-90.2166 6.5830 13.8993
-90.2166 -15.9564 72.7320
-90.2166 16.8745 19.0797
-90.2166 7.9400 28.1121
-90.2166 -12.0088 77.6783
-90.2166 -18.0960 -20.7875
-90.2166 8.1353 18.0156
-90.2166 -9.9736 -54.6021
-90.2166 -13.3213 -46.5019
-90.2166 23.5292 31.5855
-90.2166 11.7546 -42.2427
-90.2166 -13.4823 33.3402
-90.2166 -19.4390 11.4146
-90.2166 5.6536 77.0336
-90.2166 3.7136 41.8278
-90.2166 11.0950 68.8976
-90.2166 -13.6336 -15.2174
-90.2166 1.9156 35.3470
-90.2166 4.7259 68.2758
-90.2166 -16.7927 26.3080
-90.2166 -24.2001 3.2953
-90.2166 28.9488 31.2437
-90.2166 -19.9618 57.4029
-90.2166 -6.3564 -34.5405
-90.2166 11.9567 -20.4637
-90.2166 -8.3585 -52.3371
-90.2166 3.6305 -21.5350
-90.2166 4.9909 64.4051
-90.2166 -9.9763 -15.8762
-90.2166 -1.8421 -55.2121
-90.2166 -24.5295 27.6551
-90.2166 2.3418 68.0090
-90.2166 -25.2307 71.2487
-90.2166 -16.4814 53.6341
-90.2166 21.6163 -42.6659
-90.2166 -4.5396 7.5670
-90.2166 14.2345 -59.4079
-90.2166 21.0006 -59.6238
-90.2166 -24.4096 -50.3732
-90.2166 20.8383 0.6989
-90.2166 -23.7276 -60.5432
-90.2166 -25.8910 -22.7442
-90.2166 15.4138 75.4322
-90.2166 1.4450 -62.8191
-90.2166 -17.7509 2.1095
-90.2166 1.0430 62.0630
-90.2166 -8.0747 56.3968
-90.2166 -26.3544 -48.6467
-90.2166 10.6723 -27.0622
-90.2166 26.4531 31.0009
-90.2166 24.5506 32.2978
-90.2166 26.8621 -44.1895
-90.2166 -20.3130 66.9043
-90.2166 28.2702 30.9926
-90.2166 28.7906 46.0469
-90.2166 -24.1841 66.5660
-90.2166 -28.8243 6.4312
-90.2166 -17.6396 -66.4142
-90.2166 -12.0967 5.2133
-90.2166 -3.0014 -74.6532
-90.2166 -22.8482 14.3478
-90.2166 20.1473 31.8522
-90.2166 16.6871 2.0678
-90.2166 14.0491 41.5789
-90.2166 11.8285 23.0523
-90.2166 -15.7857 42.6906
-90.2166 11.6796 75.1739
-90.2166 25.5882 6.0167
-90.2166 -11.3881 -31.6047
-90.2166 25.7394 63.1237
-90.2166 19.8617 47.0577
-90.2166 9.5380 38.4560
-90.2166 -18.6736 15.9479
-90.2166 6.0944 -37.3476
-90.2166 -28.6206 21.6861
-90.2166 -20.8746 -34.8409
-90.2166 -23.6956 -56.9121
-90.2166 -1.3298 -33.2340
-90.2166 -16.1894 52.3601
-90.2166 -23.8228 -28.3622
-90.2166 13.2245 -68.0459
-90.2166 -8.9446 56.7941
-90.2166 3.4891 -65.9519
-90.2166 -2.5077 46.7857
-90.2166 -0.4713 30.4659
-90.2166 7.0837 -63.9779
-90.2166 -9.2143 48.8896
-90.2166 -24.6261 -12.0775
-90.2166 20.5639 -17.0197
-90.2166 -4.6398 13.2865
-90.2166 23.2444 42.0105
-90.2166 11.2329 -21.0037
-90.2166 -7.3992 -27.8421
-90.2166 6.4318 42.7009
-90.2166 18.5079 -32.5108
-90.2166 -23.1238 59.5368
-90.2166 23.9580 24.6194
-90.2166 -10.8284 4.4697
-90.2166 -28.9161 53.6905
-90.2166 -28.8219 -61.0720
-90.2166 22.6711 -1.5631
-90.2166 -8.8537 48.3867
-90.2166 -6.7396 42.6115
-90.2166 -5.3052 66.5975
-90.2166 -12.7709 -70.4230
-90.2166 28.8750 -38.7932
-90.2166 -20.1102 -77.6323
-90.2166 3.0771 55.3277
-90.2166 0.8304 -32.5007
-90.2166 17.8942 41.9828
-90.2166 -12.7528 -54.0824
-90.2166 20.7667 47.0068
-90.2166 25.4617 1.0284
-90.2166 -21.4517 75.0072
-90.2166 -0.6900 49.0796
-90.2166 -18.6546 0.6382
-90.2166 -12.0701 -51.1503
-90.2166 5.1477 53.5964
-90.2166 -28.6695 51.1743
-90.2166 26.1577 46.8711
-90.2166 1.1491 -44.2806
-90.2166 -16.8415 -55.3846
-90.2166 10.9456 1.4475
-90.2166 -27.5715 -6.9125
-90.2166 9.0589 27.8402
-90.2166 22.4891 -23.7623
-90.2166 -22.4019 18.1563
-90.2166 6.5858 -21.7248
-90.2166 -7.8664 5.4658
-90.2166 -22.1362 -52.0959
-90.2166 -13.0765 33.6334
-90.2166 -5.3414 24.9786
-90.2166 6.7127 -30.7983
-90.2166 -16.3126 68.4326
-90.2166 27.0262 -35.0174
-90.2166 26.4319 -61.8344
-90.2166 22.0470 29.4881
-90.2166 -27.8700 -19.0422
-90.2166 26.5967 55.6654
-69.1130 29.1974 42.9532
-4.7859 29.1974 -14.8179
-14.3084 29.1974 29.7064
59.4429 29.1974 -26.3566
23.5264 29.1974 -48.7511
39.1498 29.1974 36.9497
-16.5383 29.1974 -71.6797
28.6411 29.1974 38.5057
6.9592 29.1974 -44.8016
7.7128 29.1974 44.8852
-74.9063 29.1974 -44.6836
40.1149 29.1974 -51.3431
55.8313 29.1974 8.1262
-89.4037 29.1974 -35.1248
-18.3223 29.1974 -4.4206
-24.6807 29.1974 -47.2596
-37.2178 29.1974 -21.5976
41.9806 29.1974 -59.7956
-12.7762 29.1974 74.9297
46.2314 29.1974 3.8408
-50.0883 29.1974 -27.9170
78.0446 29.1974 45.7769
-42.0129 29.1974 -56.3375
32.7392 29.1974 66.1875
-31.5164 29.1974 -2.5174
37.6352 29.1974 19.4576
77.8884 29.1974 -62.1947
3.5998 29.1974 -37.8871
10.8203 29.1974 49.6984
3.9021 29.1974 -30.9353
-49.1976 29.1974 71.2989
83.8256 29.1974 -45.4210
16.3287 29.1974 3.0104
33.9545 29.1974 50.9882
38.5519 29.1974 63.4652
-40.8327 29.1974 -16.2399
-13.7286 29.1974 -12.8851
42.7701 29.1974 39.8968
-66.1029 29.1974 -16.0768
26.8146 29.1974 -49.4863
-81.1971 29.1974 -66.4054
-34.7206 29.1974 -16.3079
46.5382 29.1974 -62.2731
-85.3995 29.1974 -42.0419
29.4190 29.1974 53.4710
-86.9561 29.1974 -45.4762
-11.6167 29.1974 -53.4680
13.3679 29.1974 31.8706
-58.7506 29.1974 -10.5611
4.7106 29.1974 -9.7140
22.3405 29.1974 -15.3966
-0.7996 29.1974 4.8894
53.4785 29.1974 0.0966
17.5043 29.1974 24.7873
-18.8536 29.1974 8.1345
26.9283 29.1974 26.0454
-58.5520 29.1974 50.6924
-13.4698 29.1974 47.4044
-22.1759 29.1974 -37.2697
50.8686 29.1974 1.7418
40.1276 29.1974 -14.5492
10.5368 29.1974 16.2119
-68.7544 29.1974 -1.4125
-9.1442 29.1974 -20.6530
75.5639 29.1974 71.3299
42.7583 29.1974 -12.3137
-73.1769 29.1974 57.8667
51.2939 29.1974 -43.8058
28.9559 29.1974 -35.2358
29.7197 29.1974 -53.6434
-12.5713 29.1974 39.1321
-21.0001 29.1974 9.5335
-2.0173 29.1974 -49.1429
29.2424 29.1974 36.1958
80.0271 29.1974 -21.5300
-13.8693 29.1974 -51.6024
-58.3742 29.1974 -71.0424
-43.5920 29.1974 17.7867
61.5418 29.1974 42.6046
63.8209 29.1974 17.4115
-67.4079 29.1974 -9.2275
-25.6435 29.1974 60.2726
14.0069 29.1974 59.3179
37.2485 29.1974 25.8130
1.1423 29.1974 -77.4630
41.9142 29.1974 59.7323
49.2683 29.1974 -67.1763
-38.9021 29.1974 1.4005
-46.2210 29.1974 54.2942
39.1797 29.1974 30.0082
-18.3003 29.1974 28.5654
72.5128 29.1974 75.3659
-58.9558 29.1974 44.2789
-44.1684 29.1974 -16.1890
31.4994 29.1974 41.6634
-27.0271 29.1974 11.9258
-69.8351 29.1974 51.0045
29.2786 29.1974 -47.9499
81.4471 29.1974 -71.5171
-45.9386 29.1974 19.4445
87.6595 29.1974 -35.0203
-71.6144 29.1974 -74.7820
-44.0392 29.1974 23.6399
87.8593 29.1974 -11.7433
-82.4592 29.1974 -56.0170
79.2035 29.1974 -64.3955
33.8482 29.1974 -72.8759
72.3184 29.1974 6.6921
65.6648 29.1974 -6.0418
-20.6196 29.1974 13.6368
63.5075 29.1974 56.7229
-3.7254 29.1974 -53.6044
-9.7959 29.1974 -13.1115
1.2344 29.1974 1.0861
30.9523 29.1974 -13.9962
-19.0812 29.1974 24.6694
61.2736 29.1974 7.6594
-35.8962 29.1974 3.2881
5.8442 29.1974 7.6110
-65.2894 29.1974 38.6150
-75.9147 29.1974 -66.2886
24.0433 29.1974 -75.1383
-49.4067 29.1974 19.5966
-42.8618 29.1974 9.5564
87.8056 29.1974 -70.6047
-52.7254 29.1974 19.0473
31.2767 29.1974 59.6114
38.4340 29.1974 -64.3144
89.9507 29.1974 -34.7404
20.8545 29.1974 -12.7343
-81.2805 29.1974 26.7574
31.3716 29.1974 6.3357
-83.4348 29.1974 66.2157
-11.9744 29.1974 -25.6572
80.8197 29.1974 -14.9148
87.3219 29.1974 6.5942
32.8600 29.1974 -23.2913
-58.7827 29.1974 69.0814
31.9575 29.1974 30.7725
20.2976 29.1974 -7.5097
-70.0454 29.1974 59.9402
25.5946 29.1974 -75.8496
62.6425 29.1974 -44.0779
77.2489 29.1974 59.9258
65.9474 29.1974 58.1947
-85.3358 29.1974 21.3257
-22.3740 29.1974 60.7731
-66.8057 29.1974 -25.5020
9.4713 29.1974 -72.5310
-81.7967 29.1974 -50.5794
-77.8594 29.1974 65.4441
22.3901 29.1974 69.0513
-36.7614 29.1974 -55.2906
-66.3039 29.1974 18.4542
15.6144 29.1974 -34.3766
-6.7162 29.1974 -64.0782
-1.5526 29.1974 -64.8468
-37.2400 29.1974 -20.3121
78.2947 29.1974 53.2036
42.8476 29.1974 -40.5002
-13.6655 29.1974 1.5352
33.6769 29.1974 41.7696
-18.6997 29.1974 -3.8839
-29.5049 29.1974 -64.5057
19.6571 29.1974 39.3991
84.4049 29.1974 66.0037
-60.6666 29.1974 -51.6303
57.0925 29.1974 -63.0440
-87.5689 29.1974 46.5955
75.5529 29.1974 -70.3021
-32.3533 29.1974 -12.3781
44.9920 -29.1974 19.1190
81.5417 -29.1974 -38.4485
-80.2888 -29.1974 22.8337
-80.9547 -29.1974 -76.3104
68.5769 -29.1974 -43.4187
29.0805 -29.1974 70.8801
-77.2748 -29.1974 67.1916
30.4761 -29.1974 -34.9440
-19.6764 -29.1974 -69.2291
-21.5093 -29.1974 56.8597
-50.0866 -29.1974 -37.5001
-11.9686 -29.1974 -65.2025
89.4211 -29.1974 69.1881
-10.0369 -29.1974 47.6411
47.3773 -29.1974 -77.2284
9.0870 -29.1974 4.2976
-69.6840 -29.1974 66.7414
60.1243 -29.1974 -21.9831
-83.8518 -29.1974 37.8408
65.2704 -29.1974 -54.1351
38.8168 -29.1974 27.4142
-76.1573 -29.1974 -44.4528
83.5189 -29.1974 -73.4402
16.3029 -29.1974 -34.5828
-54.4722 -29.1974 73.0490
-39.4253 -29.1974 19.4796
85.1902 -29.1974 21.1894
88.9564 -29.1974 65.9062
-11.9008 -29.1974 44.7380
-78.8803 -29.1974 68.6458
22.0747 -29.1974 22.9418
30.0834 -29.1974 15.4765
-14.0490 -29.1974 73.1113
-3.3110 -29.1974 76.0438
29.8437 -29.1974 -43.7759
-77.9483 -29.1974 -26.9306
-89.7929 -29.1974 -0.1699
86.6469 -29.1974 8.6456
9.1281 -29.1974 25.4709
-75.2025 -29.1974 -64.5385
-54.9244 -29.1974 -26.8310
2.8617 -29.1974 -45.0749
-79.0891 -29.1974 54.2642
57.1337 -29.1974 44.6546
-66.1574 -29.1974 -61.6446
26.7947 -29.1974 -18.3405
-26.0333 -29.1974 32.3706
26.2096 -29.1974 -54.8091
17.7006 -29.1974 55.9740
85.6579 -29.1974 68.9672
-7.6180 -29.1974 43.5226
-21.5975 -29.1974 39.0391
-86.6715 -29.1974 25.0008
-50.0521 -29.1974 -1.3617
-15.7224 -29.1974 33.3388
16.0095 -29.1974 -30.8484
27.8627 -29.1974 -76.4752
-9.2448 -29.1974 -34.0809
-35.5687 -29.1974 20.0096
-8.1382 -29.1974 -6.4263
-80.3241 -29.1974 67.4314
-15.2595 -29.1974 -40.0780
0.7382 -29.1974 -12.0747
68.6165 -29.1974 -26.0020
82.1960 -29.1974 -6.3061
-19.2017 -29.1974 35.6567
18.5015 -29.1974 -62.7335
-27.5885 -29.1974 12.0683
69.1194 -29.1974 -62.3144
43.5573 -29.1974 32.9057
-61.1609 -29.1974 -27.5749
-1.2037 -29.1974 -44.2276
62.3826 -29.1974 5.9413
58.7579 -29.1974 44.8412
-8.9116 -29.1974 -64.5950
43.2955 -29.1974 -65.8193
21.9927 -29.1974 76.3112
32.7726 -29.1974 41.4402
40.3447 -29.1974 -43.8875
-73.4985 -29.1974 64.9685
-0.2880 -29.1974 1.9087
-6.3294 -29.1974 -26.6851
-29.4189 -29.1974 -47.0508
15.7730 -29.1974 26.7813
55.2985 -29.1974 66.2606
34.7278 -29.1974 5.6351
47.6873 -29.1974 -70.3487
-80.6732 -29.1974 -0.2884
66.4420 -29.1974 -25.5838
-11.0238 -29.1974 -40.6971
-72.1729 -29.1974 41.0487
14.9521 -29.1974 72.3561
-70.6346 -29.1974 45.4001
42.6111 -29.1974 55.0083
75.0408 -29.1974 70.0446
16.2515 -29.1974 37.4184
23.4837 -29.1974 33.2940
-55.1528 -29.1974 53.8090
87.6205 -29.1974 -20.5500
-63.3476 -29.1974 -60.8337
33.4156 -29.1974 70.8813
-71.0061 -29.1974 18.9292
43.0882 -29.1974 -50.7152
43.3849 -29.1974 53.2874
-22.2551 -29.1974 46.5038
-56.7673 -29.1974 29.7807
42.9239 -29.1974 55.0771
-21.8404 -29.1974 -20.2065
23.6673 -29.1974 -26.8171
52.4101 -29.1974 41.1641
-36.7082 -29.1974 -54.1970
-27.9414 -29.1974 31.4879
-75.7863 -29.1974 67.0217
14.0297 -29.1974 31.2383
-7.6695 -29.1974 -23.1354
86.9708 -29.1974 -4.2354
-76.0464 -29.1974 66.3024
-41.1864 -29.1974 -61.1721
-69.7639 -29.1974 72.4327
-69.3445 -29.1974 -22.7083
6.1251 -29.1974 0.9472
-23.9991 -29.1974 -60.3037
50.0904 -29.1974 40.9792
-58.6679 -29.1974 48.6301
42.8151 -29.1974 -42.1896
32.4010 -29.1974 7.7933
-18.6228 -29.1974 -70.2516
-39.3599 -29.1974 28.3566
30.2997 -29.1974 26.2995
81.2563 -29.1974 4.0439
36.7858 -29.1974 60.4537
-69.6281 -29.1974 -12.6985
32.9499 -29.1974 20.9221
-82.0529 -29.1974 23.1393
24.1537 -29.1974 77.0604
61.1895 -29.1974 -37.9750
74.5584 -29.1974 -59.4715
-18.7337 -29.1974 -29.0910
-41.5510 -29.1974 20.3584
40.7404 -29.1974 -72.2986
34.1728 -29.1974 76.7372
-68.7234 -29.1974 -54.4642
13.8777 -29.1974 31.6114
72.5395 -29.1974 16.2441
3.2181 -29.1974 56.9299
65.5888 -29.1974 20.2536
7.4760 -29.1974 27.3751
-50.3112 -29.1974 -57.3723
-71.3085 -29.1974 57.5121
-13.7829 -29.1974 -11.5500
-67.3849 -29.1974 -34.5550
-2.7287 -29.1974 33.0344
-15.9687 -29.1974 40.5205
-77.1987 -29.1974 -34.8790
-26.1926 -29.1974 12.9032
-77.7434 -29.1974 -27.7440
-55.2564 -29.1974 -74.6043
-24.5908 -29.1974 -7.9051
-88.8396 -29.1974 -2.2480
-82.9440 -29.1974 -67.6227
-2.9038 -29.1974 49.2893
-25.3013 -29.1974 -35.8953
-24.7569 -29.1974 -46.9362
16.9337 -29.1974 -27.2634
-35.5553 -29.1974 -17.0634
2.1852 -29.1974 -35.2519
76.4937 -29.1974 58.8660
-61.1272 -29.1974 -24.1264
-15.8297 -29.1974 -20.5521
71.0232 -29.1974 30.2393
32.8639 -29.1974 -54.4225
25.5100 -27.4290 77.8209
-71.6287 -18.3074 77.8209
85.1020 -24.9632 77.8209
68.1544 -27.4594 77.8209
80.6181 22.2884 77.8209
-55.8729 -6.0921 77.8209
35.6927 18.9651 77.8209
14.2098 -23.9720 77.8209
-63.8032 5.9973 77.8209
-66.3874 -23.7821 77.8209
-58.5561 5.0166 77.8209
37.2061 20.2235 77.8209
16.2195 -7.7386 77.8209
4.4486 -13.0525 77.8209
29.8463 22.6556 77.8209
-10.5855 11.6729 77.8209
-60.1343 -19.0400 77.8209
-25.5493 19.6443 77.8209
9.3457 -5.2653 77.8209
-72.2887 -6.7444 77.8209
-43.6429 6.6733 77.8209
19.5888 -0.8835 77.8209
-82.2041 4.3237 77.8209
-34.8625 23.6128 77.8209
43.3613 25.3794 77.8209
53.9617 -24.0750 77.8209
-3.5825 14.9032 77.8209
29.8705 25.3744 77.8209
-22.8740 -17.3383 77.8209
-9.6689 6.2331 77.8209
41.5121 16.0272 77.8209
-1.6343 -11.2489 77.8209
-32.5435 -15.3135 77.8209
77.9579 15.6416 77.8209
-10.5676 -9.1484 77.8209
25.8150 2.1380 77.8209
20.0614 -19.1270 77.8209
-59.1564 13.8557 77.8209
48.0998 9.4658 77.8209
-84.9145 11.7752 77.8209
8.8831 -14.2464 77.8209
36.9399 24.4250 77.8209
40.1799 -25.9170 77.8209
-8.7142 -16.1695 77.8209
33.7764 16.8964 77.8209
-18.9678 -17.4750 77.8209
11.7445 -18.8550 77.8209
-49.1668 3.8445 77.8209
-70.3106 17.0670 77.8209
-55.0111 7.4194 77.8209
52.2855 11.6331 77.8209
8.5652 -19.2617 77.8209
-49.5258 -16.9228 77.8209
7.2586 9.8138 77.8209
60.9572 8.8570 77.8209
60.2887 20.1658 77.8209
82.7291 -25.2898 77.8209
35.5825 11.5137 77.8209
38.9877 -12.0505 77.8209
-4.9784 -8.2328 77.8209
-23.5829 20.4790 77.8209
-28.2288 -19.7454 77.8209
37.5076 13.2236 77.8209
37.0182 -11.6414 77.8209
-59.4492 3.0513 77.8209
-80.6494 14.2664 77.8209
-1.8838 -9.6922 77.8209
1.7662 -15.5327 77.8209
32.9024 -6.2884 77.8209
88.8044 21.3083 77.8209
-52.5980 13.2615 77.8209
77.6611 -13.5407 77.8209
-11.4664 28.3007 77.8209
-34.9585 7.3786 77.8209
-89.2531 -5.0707 77.8209
44.4568 -13.6479 77.8209
35.3793 12.9061 77.8209
20.2822 -15.1775 77.8209
-62.1253 28.8991 77.8209
76.6960 16.3504 77.8209
-64.1980 18.1131 77.8209
66.3250 19.5561 77.8209
2.3902 14.7112 77.8209
50.8089 27.3250 77.8209
-65.8188 -21.6656 77.8209
11.2943 24.8820 77.8209
6.0965 9.6341 77.8209
-53.7171 1.5620 77.8209
-2.5663 -19.6777 77.8209
-16.9780 19.7225 77.8209
-50.7725 -24.8549 77.8209
5.9361 11.8583 77.8209
60.6198 26.5134 77.8209
59.7897 17.7242 77.8209
42.7473 -2.9269 77.8209
-16.7865 -21.9963 77.8209
-24.6024 28.2293 77.8209
57.8461 17.6283 77.8209
-53.4464 4.4537 77.8209
-62.1190 1.3488 77.8209
54.1306 -6.2163 77.8209
27.5986 -10.5985 77.8209
2.2806 16.8230 77.8209
-21.1251 26.5480 77.8209
60.4976 25.5576 77.8209
75.6312 25.4213 77.8209
38.2393 15.3596 77.8209
41.1173 -4.5444 77.8209
-9.8753 6.9074 77.8209
80.2245 11.7029 77.8209
18.1839 0.5819 77.8209
72.7137 14.3593 77.8209
16.5999 -13.3867 77.8209
0.5839 -6.8430 77.8209
8.5997 16.0942 77.8209
-39.0644 12.3002 77.8209
34.3860 -27.2551 77.8209
-21.3559 -3.4041 77.8209
-49.6076 -19.8308 77.8209
31.8519 -6.9904 77.8209
-74.3219 -18.1646 77.8209
28.2698 -22.3675 77.8209
84.4345 8.7004 77.8209
0.9233 -27.2202 77.8209
-66.9867 7.7530 77.8209
-36.6519 -17.9796 77.8209
84.6609 15.3887 77.8209
19.8569 -13.1346 77.8209
65.7487 -22.7439 77.8209
51.4248 -16.3471 77.8209
11.3935 -27.3270 77.8209
43.6413 28.6195 77.8209
45.5211 -26.3497 77.8209
-48.5624 -13.0194 77.8209
50.0376 15.0135 77.8209
26.6807 -5.0970 77.8209
-37.8633 -4.9140 77.8209
-54.9050 11.2304 77.8209
18.9292 19.3138 77.8209
-35.0941 -18.9734 77.8209
-32.1404 6.2139 77.8209
-68.9370 -3.6375 77.8209
-64.2358 -23.9288 77.8209
18.3229 -4.0615 77.8209
55.8824 11.8160 77.8209
-30.4470 -20.8882 77.8209
74.0029 21.5503 77.8209
-18.9662 7.7356 77.8209
61.9728 2.3580 77.8209
-51.2671 22.1322 77.8209
22.0152 -12.0094 77.8209
86.2871 -11.3959 77.8209
37.8228 4.6829 77.8209
-79.8578 21.4433 77.8209
-83.0981 20.4552 77.8209
-82.9566 18.2767 77.8209
-11.9703 20.8897 77.8209
-68.2287 -0.5628 77.8209
53.2367 10.0893 77.8209
87.5582 -19.5109 77.8209
84.7251 26.4359 77.8209
-74.8016 -0.1980 77.8209
-54.9569 21.1709 77.8209
23.4572 -26.0508 77.8209
-22.4213 24.7875 77.8209
-33.2661 -6.5837 77.8209
46.1181 20.4389 77.8209
23.7606 -3.4437 77.8209
56.3623 9.8118 77.8209
-83.1556 -1.5280 77.8209
51.6395 -0.7449 -77.8209
-33.1639 -17.8792 -77.8209
-67.0661 6.3041 -77.8209
-2.3903 -12.8379 -77.8209
-3.2450 -28.6571 -77.8209
-74.4421 2.7471 -77.8209
-32.5397 4.7063 -77.8209
-60.0541 28.7799 -77.8209
41.6548 24.2284 -77.8209
-66.9432 7.9313 -77.8209
-90.1198 -13.9835 -77.8209
-13.9928 11.5905 -77.8209
83.0918 17.7700 -77.8209
55.7164 26.5718 -77.8209
46.1576 -16.7095 -77.8209
-75.7113 -5.7251 -77.8209
-62.5802 -12.1197 -77.8209
32.4018 27.8629 -77.8209
-75.2934 18.8113 -77.8209
88.8329 5.6081 -77.8209
11.0400 19.4129 -77.8209
34.7669 -26.7837 -77.8209
-7.9127 16.8531 -77.8209
67.7314 -3.1262 -77.8209
-45.8980 -8.0553 -77.8209
18.5332 -20.9475 -77.8209
30.2344 22.3163 -77.8209
-20.1289 -29.0670 -77.8209
21.5158 -2.0698 -77.8209
20.3978 -10.7900 -77.8209
29.6124 -17.4575 -77.8209
-59.1684 -11.4305 -77.8209
11.7336 -14.9596 -77.8209
-8.6134 4.2176 -77.8209
14.2721 22.7507 -77.8209
-29.5954 -12.3813 -77.8209
36.7236 5.3697 -77.8209
83.0049 15.1320 -77.8209
13.6117 3.3805 -77.8209
-58.5575 19.8543 -77.8209
-43.2632 20.5659 -77.8209
-89.0806 4.3024 -77.8209
51.4943 -4.7307 -77.8209
-88.7800 -12.4504 -77.8209
28.2516 -15.6192 -77.8209
-58.8549 26.4297 -77.8209
-37.2725 -0.7169 -77.8209
-22.5828 -7.1600 -77.8209
65.0512 -18.9619 -77.8209
-71.9974 -27.8047 -77.8209
-8.5453 25.2296 -77.8209
4.1798 -3.6999 -77.8209
-25.5060 9.6510 -77.8209
32.6931 -28.5676 -77.8209
9.2828 17.9757 -77.8209
68.7484 18.6190 -77.8209
-21.1706 27.8910 -77.8209
-20.5780 -4.7616 -77.8209
-4.1672 20.0572 -77.8209
42.0115 26.2861 -77.8209
9.1016 -20.5193 -77.8209
-29.8660 17.8344 -77.8209
6.2883 -23.0627 -77.8209
-86.5559 14.7588 -77.8209
56.3424 -21.1811 -77.8209
-36.5249 7.9918 -77.8209
62.8569 11.2202 -77.8209
19.3918 19.8703 -77.8209
-80.2423 -20.6149 -77.8209
63.1235 1.3383 -77.8209
-48.4743 -10.5708 -77.8209
-23.2990 -27.5846 -77.8209
-41.0517 14.0845 -77.8209
78.3941 -19.0803 -77.8209
-3.4549 -0.9095 -77.8209
-56.9237 -11.2344 -77.8209
77.3713 5.4209 -77.8209
-35.1532 -4.8452 -77.8209
23.8585 22.4024 -77.8209
-58.1534 -3.7674 -77.8209
-25.8007 -7.5652 -77.8209
21.7188 -6.7698 -77.8209
-55.4822 22.7467 -77.8209
60.1974 17.1076 -77.8209
29.8896 19.1293 -77.8209
-10.6293 -13.9674 -77.8209
-63.2596 26.5811 -77.8209
0.1668 14.6622 -77.8209
84.2468 16.8668 -77.8209
-57.9884 -15.1349 -77.8209
6.4976 -2.7089 -77.8209
61.0531 4.9321 -77.8209
70.9713 -8.5698 -77.8209
-19.2142 -14.1632 -77.8209
69.8561 17.7568 -77.8209
-10.7617 28.0307 -77.8209
-52.7905 -2.4461 -77.8209
59.4792 -20.9287 -77.8209
-21.8760 12.0332 -77.8209
67.1554 9.6924 -77.8209
-15.3637 13.2174 -77.8209
-64.2722 -5.6504 -77.8209
81.3692 14.3353 -77.8209
-72.7873 -17.4419 -77.8209
-3.9134 22.6938 -77.8209
89.4937 -26.3565 -77.8209
-48.6497 -12.8112 -77.8209
18.7847 2.5575 -77.8209
-37.0353 6.4546 -77.8209
0.2615 -19.0589 -77.8209
-43.1668 -19.1439 -77.8209
-43.2619 26.6663 -77.8209
81.1118 18.5090 -77.8209
-27.6628 -21.6168 -77.8209
53.8502 16.5627 -77.8209
10.6730 23.1215 -77.8209
9.6592 -21.1461 -77.8209
79.9855 20.2849 -77.8209
-64.8737 -24.8138 -77.8209
11.4213 -5.5154 -77.8209
84.9466 9.2156 -77.8209
-15.5092 20.3259 -77.8209
43.8920 -10.4660 -77.8209
-62.2685 -12.2395 -77.8209
-7.1435 -8.1452 -77.8209
-30.9641 24.4523 -77.8209
18.4247 19.1923 -77.8209
-45.6084 22.9675 -77.8209
24.4880 -16.6674 -77.8209
35.9961 -18.4820 -77.8209
-15.0169 20.3204 -77.8209
-5.7392 8.7554 -77.8209
35.8915 -28.5459 -77.8209
51.4065 -7.2184 -77.8209
11.6907 2.4331 -77.8209
27.2866 28.0753 -77.8209
49.8718 -11.1269 -77.8209
6.9734 -8.1779 -77.8209
-65.4215 24.9666 -77.8209
33.6074 17.1236 -77.8209
48.9958 27.4000 -77.8209
-0.9409 -20.5246 -77.8209
70.1458 15.2423 -77.8209
54.8864 7.2990 -77.8209
77.9423 -14.7173 -77.8209
-39.2422 26.4714 -77.8209
-13.2520 -2.9574 -77.8209
22.9234 -19.3150 -77.8209
-79.3117 5.8101 -77.8209
-64.5311 12.6106 -77.8209
74.8983 7.6578 -77.8209
77.1137 17.8472 -77.8209
65.4324 -23.4664 -77.8209
-43.8492 9.9638 -77.8209
-84.8765 -13.5809 -77.8209
-59.7170 -20.4961 -77.8209
49.3862 26.0889 -77.8209
-82.4088 -12.1510 -77.8209
85.9517 -13.7211 -77.8209
-79.3212 19.1602 -77.8209
-22.4609 -21.3992 -77.8209
46.9848 26.1469 -77.8209
-14.7924 -0.8036 -77.8209
-37.5980 3.6369 -77.8209
-26.4536 5.9904 -77.8209
-39.5043 25.3432 -77.8209
6.1041 1.0886 -77.8209
31.5252 22.3175 -77.8209
43.0162 -25.0973 -77.8209
-38.4646 -8.7503 -77.8209
