ply
format ascii 1.0
element vertex 1024
property float x
property float y
property float z
end_header
30.7181 -24.5806 -81.2851
30.7181 -9.0258 38.0090
30.7181 23.3152 5.9437
30.7181 52.1792 74.5072
30.7181 -19.6888 70.6184
30.7181 19.5433 -20.9594
30.7181 20.1789 -54.1559
30.7181 -36.8555 50.4377
30.7181 -51.7734 -54.0166
30.7181 -2.5240 -76.8205
30.7181 -37.4668 21.6589
30.7181 18.5615 -6.5538
30.7181 -22.7903 -10.4715
30.7181 8.3564 64.3968
30.7181 -15.8471 -45.3530
30.7181 -47.7636 -70.5699
30.7181 -24.0198 83.7828
30.7181 17.1802 3.5070
30.7181 -13.6142 -1.8928
30.7181 -44.9336 48.0584
30.7181 51.5020 34.4146
30.7181 27.6987 -11.6637
30.7181 30.5258 -81.1338
30.7181 27.7012 58.5289
30.7181 26.8636 47.4106
30.7181 20.2884 -51.2226
30.7181 1.9340 45.9705
30.7181 -40.7740 -59.5137
30.7181 -8.3473 41.4634
30.7181 6.0556 24.6124
30.7181 21.6178 21.0193
30.7181 -12.6494 -52.1622
30.7181 -0.8693 -47.4960
30.7181 -24.0797 -83.6252
30.7181 -30.1873 74.4519
30.7181 48.8601 57.7616
30.7181 -6.9892 -0.1952
30.7181 -40.0279 51.7934
30.7181 22.5493 -53.8539
30.7181 32.6924 -65.2396
30.7181 24.4609 -77.9075
30.7181 -37.2381 77.9862
30.7181 -32.9548 -78.1938
30.7181 14.1574 78.6872
30.7181 8.3385 1.7678
30.7181 39.4982 13.0003
30.7181 11.2793 55.8487
30.7181 -42.0414 -61.3803
30.7181 16.9200 -77.6392
30.7181 -22.4055 81.6819
30.7181 -21.3647 -16.6962
30.7181 -12.5243 -78.7872
30.7181 -13.9666 20.8558
30.7181 -15.0103 45.6406
30.7181 -47.0575 -56.3949
30.7181 30.9560 -17.4806
30.7181 -22.9656 21.4838
30.7181 -27.3711 -80.8095
30.7181 15.8755 78.9506
30.7181 8.9718 -1.7586
30.7181 -36.4793 63.8472
30.7181 38.7529 -5.9948
30.7181 -30.9602 57.9361
30.7181 -11.1576 45.5967
30.7181 36.4700 37.1165
30.7181 52.5215 7.5891
30.7181 -18.2551 -89.4544
30.7181 -7.2417 67.4563
30.7181 21.3707 -5.0420
30.7181 -23.7046 82.3425
30.7181 5.0759 63.9260
30.7181 34.2888 54.7995
30.7181 53.0649 -79.5853
30.7181 33.3306 -72.6220
30.7181 -41.2770 -60.5493
30.7181 42.5784 -2.9750
30.7181 51.0443 13.2471
30.7181 27.1666 -62.3499
30.7181 2.2240 -77.9747
30.7181 -48.5645 -3.9121
30.7181 -18.8595 -54.8029
30.7181 -40.9785 4.2181
30.7181 54.0172 4.5275
30.7181 26.2794 -55.8060
30.7181 17.0783 49.0573
30.7181 -36.2306 80.9960
30.7181 0.6099 25.8598
30.7181 40.5867 -12.2688
30.7181 -3.1201 75.8536
30.7181 -9.2347 -80.4322
30.7181 -40.4723 -54.6537
30.7181 18.6282 -87.7265
30.7181 19.4352 -14.0325
30.7181 3.1143 -8.3707
30.7181 -29.4786 40.8024
30.7181 -19.8000 50.5834
30.7181 30.4422 -17.7274
30.7181 -48.0121 75.2055
30.7181 -25.2523 -32.4592
30.7181 21.7488 71.8326
30.7181 -36.3354 -59.1017
30.7181 26.6683 -61.8507
30.7181 -36.5266 77.6670
30.7181 -11.3184 61.9059
30.7181 -51.5142 59.8728
30.7181 -18.1935 76.0800
30.7181 -9.7487 51.6903
30.7181 28.5253 0.6011
30.7181 -31.6298 86.9247
30.7181 15.3927 75.6968
30.7181 -9.5182 80.1826
30.7181 5.8312 -72.3043
30.7181 35.3346 5.5248
30.7181 -49.7213 77.4654
30.7181 10.3807 80.0178
30.7181 -34.6653 49.3349
30.7181 -10.5385 17.2770
30.7181 25.2239 52.5490
30.7181 -4.5569 5.1024
30.7181 -49.7913 19.7334
30.7181 30.8623 5.2359
30.7181 23.6156 43.1980
30.7181 -44.3161 -52.0934
30.7181 33.7639 60.5086
30.7181 -10.6256 25.2659
30.7181 -27.8026 76.6131
30.7181 -39.4670 -77.9169
30.7181 -52.2226 -88.4722
30.7181 48.4753 11.6815
30.7181 -8.4776 85.4325
30.7181 39.6065 -20.0100
30.7181 -34.5120 80.6159
30.7181 11.0257 -27.3051
30.7181 9.4473 37.1681
30.7181 -13.8054 15.9176
30.7181 -32.2489 12.3931
30.7181 -48.0766 -3.3275
30.7181 8.9899 -33.2540
30.7181 21.4072 -30.2255
30.7181 -14.2307 13.9107
30.7181 28.0743 42.6872
30.7181 27.4453 -65.5607
30.7181 35.3768 -57.8834
30.7181 -54.8907 -36.9244
30.7181 23.9030 57.5255
30.7181 18.3066 -16.3845
30.7181 -33.1625 -73.2070
30.7181 -51.8217 -42.0169
30.7181 41.4040 -5.7546
30.7181 -10.2224 16.0649
30.7181 0.1443 -67.9069
30.7181 -25.5201 64.0072
30.7181 30.6258 38.4975
30.7181 -8.4154 -81.1598
30.7181 -23.1325 -5.2570
30.7181 -7.3073 -57.0093
30.7181 -9.7984 57.7252
30.7181 -19.6605 -61.7530
30.7181 10.8273 57.6544
30.7181 -44.0048 24.3137
30.7181 47.6282 -36.0284
30.7181 -11.1944 37.3008
30.7181 -38.7504 66.1883
30.7181 16.7071 36.1872
30.7181 40.2231 -73.9577
30.7181 -26.5159 -26.0217
30.7181 -29.7880 54.4850
30.7181 -44.4204 -18.6087
30.7181 -1.8551 -40.1551
30.7181 -2.5621 -79.3373
30.7181 23.1544 13.9168
-30.7181 -40.0600 30.7755
-30.7181 33.1236 -83.1069
-30.7181 -13.1123 44.1757
-30.7181 -2.1647 -2.3393
-30.7181 -12.6739 36.0511
-30.7181 -39.0721 -43.6393
-30.7181 -2.6781 -0.7400
-30.7181 52.8095 -30.1066
-30.7181 -30.3043 16.2958
-30.7181 -6.8001 -12.5588
-30.7181 53.7136 56.2587
-30.7181 39.6717 -2.9327
-30.7181 2.5791 58.0496
-30.7181 -29.8023 -79.4108
-30.7181 38.1276 31.1559
-30.7181 17.4436 -2.5414
-30.7181 25.6429 -0.8939
-30.7181 -31.8451 27.9934
-30.7181 -12.4526 -8.7382
-30.7181 -52.4422 86.1910
-30.7181 51.5559 -26.2511
-30.7181 19.6261 -85.2651
-30.7181 23.8143 35.9778
-30.7181 46.3369 -22.1368
-30.7181 -38.8502 16.1675
-30.7181 -26.2336 -44.9699
-30.7181 -40.5287 -43.5600
-30.7181 -40.3489 33.7083
-30.7181 35.8304 41.5228
-30.7181 32.3648 9.5659
-30.7181 14.3946 -57.6759
-30.7181 16.5673 -79.3498
-30.7181 47.6108 -56.6755
-30.7181 28.3413 52.7362
-30.7181 33.4035 52.1986
-30.7181 11.1838 -64.6484
-30.7181 -4.8289 -40.3248
-30.7181 27.6660 -73.3029
-30.7181 33.7178 37.9555
-30.7181 -42.9459 -81.6018
-30.7181 7.5589 -17.8143
-30.7181 -48.1703 13.9189
-30.7181 -4.3745 62.7979
-30.7181 -5.1197 -28.3034
-30.7181 -0.5852 8.6211
-30.7181 20.0287 -85.9078
-30.7181 -3.4428 60.9175
-30.7181 34.2540 83.3160
-30.7181 53.3158 30.7486
-30.7181 53.9979 -5.4649
-30.7181 6.3619 1.2330
-30.7181 50.3065 -47.9232
-30.7181 20.0843 -2.0822
-30.7181 -50.0750 -42.6079
-30.7181 29.3071 -44.8869
-30.7181 46.1238 13.1947
-30.7181 18.5170 88.4346
-30.7181 -23.4620 -52.5920
-30.7181 -11.9084 89.2160
-30.7181 33.1538 -53.6587
-30.7181 -48.6715 36.4838
-30.7181 16.0991 76.9242
-30.7181 6.4816 4.7616
-30.7181 13.6659 -21.5741
-30.7181 34.3750 -26.2354
-30.7181 11.4813 19.5975
-30.7181 -29.7403 45.3213
-30.7181 42.4330 -51.6117
-30.7181 49.9511 35.0846
-30.7181 -50.5508 18.7277
-30.7181 -24.9712 -60.0862
-30.7181 -17.7117 -8.8071
-30.7181 -30.1047 -61.9086
-30.7181 -22.0058 85.5583
-30.7181 49.5141 -24.3029
-30.7181 -42.1312 -47.1529
-30.7181 8.9772 7.6096
-30.7181 10.6073 -24.1688
-30.7181 -47.3250 62.3922
-30.7181 -33.2731 43.2061
-30.7181 -23.2937 -16.3864
-30.7181 27.4366 32.8603
-30.7181 16.8725 54.7329
-30.7181 33.5544 -60.8712
-30.7181 -6.8155 0.1386
-30.7181 54.9481 -17.7316
-30.7181 16.2864 -80.7505
-30.7181 -19.2853 62.1994
-30.7181 34.0008 20.8813
-30.7181 5.2424 -57.9832
-30.7181 53.9651 -76.2779
-30.7181 26.4232 -40.0828
-30.7181 25.0464 38.5539
-30.7181 7.2432 -10.4498
-30.7181 -24.9718 -46.8734
-30.7181 41.1608 -60.9699
-30.7181 46.0400 -20.7586
-30.7181 -17.4173 -0.5432
-30.7181 -34.7562 51.9771
-30.7181 47.9268 -69.4861
-30.7181 27.9218 5.2376
-30.7181 49.2922 -31.9909
-30.7181 -52.2488 90.2399
-30.7181 23.8548 -3.7822
-30.7181 -2.8484 81.5467
-30.7181 30.9552 54.4750
-30.7181 -28.9143 -16.3206
-30.7181 33.6016 26.8845
-30.7181 4.3726 57.4232
-30.7181 7.7720 33.5988
-30.7181 40.9139 79.6141
-30.7181 -47.6749 -19.2124
-30.7181 50.6529 44.5107
-30.7181 -44.8390 -41.4814
-30.7181 -37.2733 27.6194
-30.7181 25.8468 -39.2193
-30.7181 3.5801 -25.8795
-30.7181 -48.2401 -4.1409
-30.7181 -46.3760 36.6893
-30.7181 44.6612 5.2279
-30.7181 -10.5909 34.7812
-30.7181 16.9776 -75.9302
-30.7181 43.8475 -16.0910
-30.7181 52.3074 -32.7263
-30.7181 45.5768 -63.1051
-30.7181 29.7803 64.4112
-30.7181 49.7388 81.9151
-30.7181 16.4007 -63.7063
-30.7181 -38.6651 16.0076
-30.7181 -4.0835 32.1869
-30.7181 -45.2874 -16.8796
-30.7181 -31.2156 -22.2864
-30.7181 42.6830 86.5452
-30.7181 -27.1592 -51.9198
-30.7181 21.3583 34.4656
-30.7181 36.0075 -55.4372
-30.7181 -40.4500 -38.7227
-30.7181 6.8199 62.2117
-30.7181 4.8978 -66.5467
-30.7181 -52.3950 48.1538
-30.7181 -14.7994 -28.1669
-30.7181 -22.4222 -70.4406
-30.7181 -3.3080 -69.5253
-30.7181 -24.8587 67.3868
-30.7181 14.1520 29.5016
-30.7181 -50.7495 72.6776
-30.7181 -17.7919 -76.2557
-30.7181 42.8245 20.3099
-30.7181 -40.2138 -74.5435
-30.7181 10.2047 -55.2257
-30.7181 -50.9388 -7.5553
-30.7181 0.7187 6.8197
-30.7181 -27.0777 74.7835
-30.7181 33.7701 48.0953
-30.7181 -42.9399 -28.1042
-30.7181 -18.1650 -17.8772
-30.7181 41.8955 67.3497
-30.7181 40.8612 88.7823
-30.7181 37.8063 -27.1913
-30.7181 40.1817 32.2720
-30.7181 10.4079 38.6077
-30.7181 -4.9694 35.9354
-30.7181 -51.4045 -75.7037
-30.7181 21.6158 61.5906
-30.7181 49.0469 -64.5445
-30.7181 -20.1419 26.2266
-30.7181 -10.7700 -45.5439
-30.7181 26.3540 25.2333
-30.7181 -17.0378 -32.8670
-30.7181 -50.2579 74.1022
-30.7181 -38.2107 22.3300
-7.8260 55.1440 -59.7738
-24.4706 55.1440 -8.5494
21.2415 55.1440 28.9100
3.2309 55.1440 77.0624
-6.7228 55.1440 -48.9718
-10.6115 55.1440 -62.7716
26.8766 55.1440 -62.1649
5.5337 55.1440 -55.8864
-19.2544 55.1440 54.9122
18.8489 55.1440 77.3348
12.9346 55.1440 -54.1880
6.9262 55.1440 -55.2816
1.3164 55.1440 -5.1580
-3.5216 55.1440 20.0607
-6.2765 55.1440 -90.0478
-2.2012 55.1440 -18.0849
-26.0792 55.1440 58.3517
-11.8675 55.1440 -72.8858
14.0074 55.1440 -1.4980
-19.7548 55.1440 11.0866
-4.1168 55.1440 -26.8519
25.0364 55.1440 35.5917
-10.9870 55.1440 -77.0015
-3.1309 55.1440 40.0014
12.8712 55.1440 -78.3572
15.6689 55.1440 25.1149
4.9157 55.1440 77.8275
-9.7253 55.1440 37.0678
-7.4918 55.1440 -4.2567
3.1733 55.1440 8.4511
10.9386 55.1440 -75.4290
-16.7642 55.1440 -43.0546
4.5376 55.1440 -15.7237
11.9508 55.1440 82.5038
-27.1082 55.1440 -44.0808
-11.6921 55.1440 -43.2957
-27.9796 55.1440 78.2889
-23.7989 55.1440 -20.4752
-6.8722 55.1440 -49.2266
30.5652 55.1440 43.7359
-24.2441 55.1440 -75.1115
-28.4095 55.1440 47.5401
-7.5406 55.1440 1.4943
-4.6115 55.1440 -2.3500
-9.2981 55.1440 -50.2872
-27.9348 55.1440 61.1334
-27.1646 55.1440 -86.5263
-19.3067 55.1440 51.0851
0.6136 55.1440 62.9531
19.7325 55.1440 -70.5831
-27.5332 55.1440 13.7619
-21.0277 55.1440 -69.9398
14.0810 55.1440 -16.4502
20.8184 55.1440 45.3621
-25.4821 55.1440 -68.4563
24.6376 55.1440 16.3085
-20.4323 55.1440 -53.1495
-16.8284 55.1440 -38.2739
24.9306 55.1440 58.3054
12.1091 55.1440 12.3480
6.7358 55.1440 80.7419
8.3425 55.1440 27.1350
-4.6516 55.1440 61.5596
27.8266 55.1440 25.8109
26.6653 55.1440 82.0703
7.1238 55.1440 56.0029
-21.1890 55.1440 -33.8856
1.7130 55.1440 57.4697
13.3094 55.1440 8.0845
2.7456 55.1440 -65.0148
-21.6608 55.1440 26.4886
-12.1824 55.1440 -17.3728
-24.1375 55.1440 18.1906
-11.6561 55.1440 -29.1878
-7.4683 55.1440 70.6596
12.1318 55.1440 -90.1610
8.1734 55.1440 -16.2174
23.3005 55.1440 30.6546
-20.2150 55.1440 -6.2777
14.9341 55.1440 -48.0305
-26.8618 55.1440 -59.1149
3.1540 55.1440 86.2943
19.6607 55.1440 53.6980
-29.3461 55.1440 86.5772
-30.1704 55.1440 46.8913
21.2767 55.1440 43.1732
-12.8833 55.1440 54.9339
20.0850 55.1440 0.7864
20.8687 55.1440 76.5438
29.7052 55.1440 77.8182
18.9048 55.1440 50.7509
-29.5238 55.1440 45.1163
14.7180 55.1440 -26.5811
-14.8288 55.1440 -24.7464
-21.8176 55.1440 2.3131
14.9822 55.1440 -31.3852
14.6502 55.1440 70.1423
16.3926 55.1440 -6.2681
-7.6783 55.1440 64.7966
27.4625 55.1440 -43.4910
-0.4783 55.1440 -51.0232
22.7481 55.1440 -76.9132
-3.6079 55.1440 26.2555
14.3078 55.1440 -85.8886
20.8469 55.1440 90.4263
-25.1377 55.1440 -34.0667
10.6308 55.1440 3.2055
-27.3477 55.1440 62.9187
-15.6163 55.1440 4.9353
30.4119 55.1440 -14.0776
16.3583 55.1440 29.5533
8.1487 55.1440 16.0111
-5.9472 55.1440 -11.1749
-18.3132 55.1440 -18.0256
-27.6446 55.1440 68.9344
23.7936 55.1440 -71.2376
16.1327 55.1440 -81.9200
-10.1361 55.1440 -1.3512
-14.6214 55.1440 7.0927
22.5353 55.1440 36.8678
16.4371 55.1440 -28.1117
22.7932 55.1440 -24.6267
12.1302 55.1440 16.4719
12.1802 55.1440 73.4253
16.1988 55.1440 -79.6180
20.7598 55.1440 42.9117
-4.1236 55.1440 19.4291
14.6309 55.1440 19.9423
-28.8768 55.1440 65.3449
-9.8526 55.1440 60.8656
-2.4632 55.1440 -59.4302
6.9181 55.1440 -75.9697
18.3416 55.1440 -86.5007
2.4544 55.1440 1.5457
2.4811 55.1440 27.8369
-14.8829 55.1440 35.5092
10.0045 55.1440 -21.2550
23.9964 55.1440 -58.9621
-9.0095 55.1440 -81.4583
11.6315 55.1440 15.8334
18.7381 55.1440 47.0312
-12.3662 55.1440 54.6897
-12.5416 55.1440 89.2463
-9.4280 55.1440 48.3614
25.9652 55.1440 -36.5005
-13.4697 55.1440 15.4218
16.5286 55.1440 -52.3425
19.9430 55.1440 -20.6620
26.6382 55.1440 -53.7337
-3.5743 55.1440 43.3473
-18.4770 55.1440 32.6556
-19.0447 55.1440 -59.2521
20.4342 55.1440 -82.9209
-24.9344 55.1440 -43.8362
4.2116 55.1440 39.7931
19.5730 55.1440 -53.7448
-13.9883 55.1440 -25.0082
-4.7667 55.1440 67.2861
-23.9113 55.1440 79.9125
29.2683 55.1440 -57.6915
20.9905 55.1440 65.8603
-25.9458 55.1440 -17.3399
-4.4293 55.1440 76.4332
13.5853 55.1440 89.3227
-16.3329 55.1440 35.8081
-19.9692 55.1440 -29.1658
-22.1966 55.1440 41.3242
-29.3078 55.1440 -7.0218
9.2434 55.1440 -54.5306
26.4082 55.1440 -65.5133
-20.0400 55.1440 -80.6675
11.7151 -55.1440 -67.6771
-6.0570 -55.1440 -56.0060
-2.7286 -55.1440 -80.3225
-23.7390 -55.1440 -78.9147
-27.0236 -55.1440 -55.6190
-14.4796 -55.1440 24.1645
4.7101 -55.1440 56.1672
-26.3373 -55.1440 59.4937
15.9803 -55.1440 29.8845
-27.1918 -55.1440 -50.2877
21.8123 -55.1440 12.0905
-18.8810 -55.1440 86.7854
18.9269 -55.1440 1.5107
-10.2263 -55.1440 -65.6188
-24.2807 -55.1440 58.5420
-6.7964 -55.1440 17.4021
-12.3507 -55.1440 -55.5755
26.1111 -55.1440 74.9243
29.1252 -55.1440 76.5177
-4.3541 -55.1440 -20.8560
1.2504 -55.1440 -47.9463
-20.2039 -55.1440 -2.3200
8.6513 -55.1440 70.3722
-1.9418 -55.1440 -90.1861
-5.8408 -55.1440 -72.5889
19.9307 -55.1440 -85.5255
-8.7691 -55.1440 81.1288
14.9669 -55.1440 67.6548
10.8068 -55.1440 -86.9640
4.0183 -55.1440 4.7145
9.5520 -55.1440 -90.5032
-12.1110 -55.1440 2.2267
4.7140 -55.1440 -31.3015
17.4107 -55.1440 -31.0231
30.1652 -55.1440 63.3536
-6.9857 -55.1440 -23.8193
-25.3005 -55.1440 -52.5942
9.5831 -55.1440 0.8375
20.2220 -55.1440 22.8248
-25.5303 -55.1440 -27.3742
-23.2429 -55.1440 -1.9193
7.6036 -55.1440 -57.9786
14.6463 -55.1440 -57.3635
27.5982 -55.1440 73.0693
27.8532 -55.1440 -56.6091
-26.5078 -55.1440 2.6762
3.3143 -55.1440 6.3100
-23.0438 -55.1440 -14.5788
0.5325 -55.1440 48.6461
-1.0125 -55.1440 88.0620
-10.6656 -55.1440 -31.5421
24.2653 -55.1440 -27.4379
-5.8102 -55.1440 16.9478
-29.9885 -55.1440 54.9316
-5.9275 -55.1440 -31.8487
29.0924 -55.1440 7.1945
3.1587 -55.1440 67.2432
8.2593 -55.1440 -69.8533
-1.8121 -55.1440 -12.7882
-24.0093 -55.1440 -78.1422
-21.7645 -55.1440 21.1536
6.6859 -55.1440 -56.8353
-22.6092 -55.1440 -12.5271
-27.1692 -55.1440 67.6285
-4.9966 -55.1440 -19.4145
20.9021 -55.1440 -48.2865
-0.9368 -55.1440 89.1086
28.2521 -55.1440 48.0509
1.7361 -55.1440 84.1977
-11.5153 -55.1440 -2.2340
-28.5596 -55.1440 32.3581
-16.5190 -55.1440 50.4099
5.2889 -55.1440 39.2178
-4.7332 -55.1440 -83.6184
-11.6406 -55.1440 0.7541
13.5058 -55.1440 -34.0576
-14.2460 -55.1440 -80.5687
-24.5610 -55.1440 33.9396
24.9316 -55.1440 -19.8139
28.6570 -55.1440 23.3432
-22.2380 -55.1440 55.0344
-21.7904 -55.1440 0.9312
20.4501 -55.1440 61.8594
20.1498 -55.1440 6.3826
-17.2909 -55.1440 -47.5723
-9.2994 -55.1440 -30.1093
-20.5990 -55.1440 11.0018
-15.2284 -55.1440 65.5641
-0.6114 -55.1440 57.4346
24.9789 -55.1440 -84.6448
16.6812 -55.1440 -33.8492
8.4474 -55.1440 -51.9396
27.3397 -55.1440 31.8895
12.3022 -55.1440 -32.3831
-12.0612 -55.1440 -5.6650
12.7587 -55.1440 -75.2582
22.9590 -55.1440 -76.9906
-3.6355 -55.1440 55.9717
-0.2156 -55.1440 65.6584
-27.7131 -55.1440 -59.7619
0.1073 -55.1440 -42.0563
-6.0784 -55.1440 -64.9743
15.1131 -55.1440 -22.2814
-22.3906 -55.1440 -52.0854
-23.8342 -55.1440 -49.0783
-30.0836 -55.1440 -46.1230
10.8772 -55.1440 56.4881
-30.5243 -55.1440 80.8350
-28.0123 -55.1440 -28.6636
-1.3978 -55.1440 -29.5091
-24.2570 -55.1440 -45.1724
8.5808 -55.1440 -64.6436
3.1026 -55.1440 -48.6478
-17.4126 -55.1440 43.4925
1.2373 -55.1440 24.9407
-20.9363 -55.1440 -27.4339
23.3315 -55.1440 65.8363
-13.1912 -55.1440 -50.6154
-22.5179 -55.1440 13.9990
4.9701 -55.1440 -46.7778
28.6544 -55.1440 -53.8095
-6.0693 -55.1440 88.0201
-12.9696 -55.1440 62.0103
-24.4194 -55.1440 -50.1792
-15.8097 -55.1440 -27.4585
-14.2936 -55.1440 74.3535
-13.4597 -55.1440 -64.2512
7.8282 -55.1440 -86.8104
27.5429 -55.1440 33.9034
8.2774 -55.1440 4.7365
-3.8672 -55.1440 -35.5640
16.6538 -55.1440 67.6433
14.6643 -55.1440 71.8066
-6.4772 -55.1440 37.2627
12.0204 -55.1440 -36.3598
26.3910 -55.1440 -23.9366
23.1160 -55.1440 90.2051
9.5551 -55.1440 -50.9107
9.4107 -55.1440 -78.4816
21.3919 -55.1440 -50.3225
29.5618 -55.1440 84.4842
-7.4618 -55.1440 -69.9314
11.1063 -55.1440 46.5683
-3.8345 -55.1440 -0.4375
-26.7721 -55.1440 4.1381
-24.6786 -55.1440 -86.3179
11.7706 -55.1440 18.1192
1.8307 -55.1440 36.6871
-0.0416 -55.1440 -70.9667
30.6067 -55.1440 -54.1337
27.2481 -55.1440 85.1726
17.0249 -55.1440 81.7578
20.9404 -55.1440 -2.1232
-21.2049 -55.1440 -72.3857
27.4507 -55.1440 28.8868
-21.9984 -55.1440 -14.4323
22.1256 -55.1440 -48.6780
29.0969 -55.1440 79.7868
20.5831 -55.1440 -86.8031
-2.3958 -55.1440 -21.7269
-22.3499 -55.1440 73.8120
28.3047 -55.1440 -0.7570
-7.0235 -55.1440 -44.0281
7.8655 -55.1440 45.0631
-18.3122 -55.1440 44.1315
15.7762 -55.1440 -50.3028
-3.3444 -55.1440 68.0945
24.8479 -55.1440 79.3424
-13.3827 -55.1440 5.7311
23.1811 -55.1440 -64.6547
-15.3204 -55.1440 88.5903
-15.2557 -30.3465 90.8197
7.7891 23.7490 90.8197
-17.1655 -48.5209 90.8197
6.1624 34.6379 90.8197
15.7395 -25.6487 90.8197
-21.2477 47.3048 90.8197
24.2021 -54.0498 90.8197
-18.7287 29.5462 90.8197
-18.0717 49.9856 90.8197
-11.2225 4.7376 90.8197
-8.1884 -2.4278 90.8197
2.2977 -13.2350 90.8197
19.5660 -46.1159 90.8197
19.8881 -9.3201 90.8197
12.7556 30.0826 90.8197
1.2312 6.4965 90.8197
9.6379 -41.2749 90.8197
22.1310 -54.7021 90.8197
21.0013 -12.3507 90.8197
5.0091 -5.1584 90.8197
-28.2449 46.3678 90.8197
28.1062 -26.4244 90.8197
-28.7502 54.0923 90.8197
-6.7231 4.8089 90.8197
4.9847 6.1418 90.8197
-1.1579 51.5220 90.8197
-21.1936 18.3837 90.8197
-23.6643 -46.4353 90.8197
28.7269 -6.4081 90.8197
21.0424 52.9334 90.8197
-20.3029 34.9040 90.8197
16.5094 -26.7798 90.8197
-25.2895 -37.6726 90.8197
-3.0300 22.4154 90.8197
-26.8187 -44.8771 90.8197
-2.7755 -7.3873 90.8197
13.9607 -4.8762 90.8197
19.5550 -22.2047 90.8197
21.7805 26.2456 90.8197
-5.8905 42.2158 90.8197
21.7409 2.8364 90.8197
6.5465 12.4280 90.8197
27.0069 7.4220 90.8197
-20.9156 41.0809 90.8197
-21.7017 -6.1766 90.8197
-10.8524 24.6404 90.8197
12.6197 25.7087 90.8197
-9.5796 10.6478 90.8197
-28.7220 8.0366 90.8197
-24.8075 18.2654 90.8197
-3.9878 46.3448 90.8197
0.5357 7.4252 90.8197
-23.7695 -15.6584 90.8197
28.2904 -26.2951 90.8197
-9.3059 -10.8590 90.8197
13.0806 23.1289 90.8197
-28.3548 -17.5400 90.8197
-13.3678 12.3311 90.8197
-24.5489 -23.4191 90.8197
21.8203 23.7370 90.8197
11.1709 -5.9910 90.8197
-19.2126 40.1417 90.8197
25.1959 -42.0902 90.8197
-8.9176 -4.0067 90.8197
26.6625 -3.9817 90.8197
18.8347 -0.0990 90.8197
29.6346 -36.0144 90.8197
-0.8353 -47.4011 90.8197
27.8227 15.7102 90.8197
9.0063 53.3002 90.8197
24.7041 16.8627 90.8197
-13.5425 -13.0598 90.8197
-23.4637 14.8249 90.8197
-24.4286 -51.4689 90.8197
0.6308 44.5476 90.8197
-5.2847 30.2441 90.8197
-17.2541 21.1568 90.8197
10.6502 36.1087 90.8197
27.4278 34.3977 90.8197
25.8183 -32.0387 90.8197
29.5432 37.9716 90.8197
-4.7629 24.8441 90.8197
-17.5934 -30.9658 90.8197
-8.2796 -55.0453 90.8197
-8.9364 -51.8405 90.8197
22.5407 54.1413 90.8197
9.5758 -10.7190 90.8197
-21.8203 50.6412 90.8197
-11.1442 44.2633 90.8197
-16.6152 37.8203 90.8197
-6.7230 -49.8934 90.8197
8.3124 18.4958 90.8197
-7.2292 10.6067 90.8197
16.5720 47.9314 90.8197
-2.0455 -37.3900 90.8197
1.6398 23.0505 90.8197
19.7057 46.3838 90.8197
22.9658 -30.3078 90.8197
17.2374 33.4727 90.8197
27.2924 12.5236 90.8197
-14.6915 -2.8486 90.8197
-7.7813 -49.1667 90.8197
13.2053 -38.6266 90.8197
5.3475 41.2378 90.8197
0.3023 9.5135 90.8197
-21.9333 -13.1492 90.8197
18.6821 -54.6897 90.8197
0.6441 -19.3444 90.8197
-17.6803 3.0294 90.8197
-25.1091 35.6362 90.8197
-21.7063 -7.0807 90.8197
17.2180 28.8486 90.8197
16.3106 -51.2539 90.8197
5.6001 49.9084 90.8197
-12.9052 21.7491 90.8197
-22.6142 -23.4125 90.8197
-29.1575 42.6223 90.8197
-23.9053 -3.8330 90.8197
-2.0424 20.6337 90.8197
-19.4089 -26.0118 90.8197
4.4013 22.2160 90.8197
-28.3231 -13.2032 90.8197
21.3922 3.9990 90.8197
-19.0313 -11.5416 90.8197
1.5203 -24.7303 90.8197
2.2279 -32.5428 90.8197
6.5422 -37.6134 90.8197
-3.2494 19.8797 90.8197
29.4333 -2.3046 90.8197
7.3604 33.8976 90.8197
29.6148 -50.0172 90.8197
-29.8088 45.5063 90.8197
19.8997 -31.0599 90.8197
28.8734 -48.5610 90.8197
5.6716 36.2271 90.8197
-13.6442 -48.9673 90.8197
-2.5161 21.4903 90.8197
1.9915 -51.6004 90.8197
28.2056 -9.8431 90.8197
-21.0896 -42.7598 90.8197
-15.6303 -46.4882 90.8197
-4.4968 -50.7330 90.8197
18.9844 28.8468 90.8197
13.3900 -39.5119 90.8197
-12.7934 28.8844 90.8197
-27.2417 -23.5730 90.8197
-27.5947 -20.0683 90.8197
-5.2814 38.6889 90.8197
19.3158 47.8814 90.8197
9.5258 -54.9451 90.8197
8.9308 19.5178 90.8197
-25.3774 -17.2525 90.8197
20.8011 -38.5701 90.8197
-27.5889 25.9412 90.8197
8.7967 43.7236 90.8197
10.5165 54.7104 90.8197
6.3914 -18.5419 90.8197
-7.8414 -18.2539 90.8197
-19.8164 51.8986 90.8197
10.2145 0.7344 90.8197
8.2006 -9.8661 90.8197
15.2296 -47.0063 90.8197
1.4422 -10.0494 90.8197
21.4400 -50.8442 90.8197
-23.6746 12.6312 90.8197
-9.4947 -24.1399 90.8197
-20.2880 31.2500 90.8197
-16.4159 -50.2156 90.8197
22.2439 -3.4981 90.8197
-15.2079 25.4700 90.8197
23.7021 24.8900 -90.8197
14.9982 4.4210 -90.8197
-0.7765 42.5644 -90.8197
17.3255 -24.0447 -90.8197
20.9586 -50.1707 -90.8197
13.5802 -18.9911 -90.8197
-15.6440 37.8958 -90.8197
-2.5432 -3.4147 -90.8197
-11.5753 52.5482 -90.8197
-21.1942 20.1242 -90.8197
16.1842 9.7320 -90.8197
6.8517 -15.5914 -90.8197
15.9858 -11.7197 -90.8197
-28.6779 3.4926 -90.8197
18.1372 53.6301 -90.8197
17.7453 -42.1195 -90.8197
13.1423 -24.3519 -90.8197
25.1050 40.1789 -90.8197
8.8921 -33.1144 -90.8197
7.0911 -14.5561 -90.8197
-27.9755 -36.0835 -90.8197
27.3268 21.1327 -90.8197
-23.5197 -49.6898 -90.8197
-9.0045 -35.8862 -90.8197
11.4027 4.1195 -90.8197
16.5488 -28.7912 -90.8197
10.5491 -40.1687 -90.8197
4.2576 12.1990 -90.8197
-25.3460 8.7336 -90.8197
-9.9996 -4.9393 -90.8197
-4.9061 7.8004 -90.8197
-19.9179 14.5154 -90.8197
-4.1389 40.1119 -90.8197
-14.2902 -50.9223 -90.8197
18.4603 -34.1365 -90.8197
6.8308 41.5654 -90.8197
-4.1668 49.9085 -90.8197
9.1801 -35.2201 -90.8197
-0.2053 -5.9614 -90.8197
19.0471 -9.5500 -90.8197
-2.6817 38.6801 -90.8197
27.6066 -15.0262 -90.8197
1.2906 -54.5022 -90.8197
15.8917 -34.9241 -90.8197
-3.7540 5.8558 -90.8197
-11.9097 -48.9740 -90.8197
-25.0686 22.6454 -90.8197
-0.7943 -47.9266 -90.8197
-13.8238 -9.3298 -90.8197
15.0718 11.2849 -90.8197
20.8211 48.9823 -90.8197
-5.0481 27.6151 -90.8197
-22.1969 37.1453 -90.8197
11.7538 -23.6778 -90.8197
-16.3580 -2.4558 -90.8197
20.1844 -10.6995 -90.8197
4.3299 -21.7699 -90.8197
23.8906 45.4146 -90.8197
5.6532 -50.6359 -90.8197
18.7482 23.4520 -90.8197
30.0173 6.9576 -90.8197
-6.4088 36.7024 -90.8197
4.0708 -30.6226 -90.8197
-0.9230 50.2795 -90.8197
-6.6426 -34.1524 -90.8197
-3.4946 35.4935 -90.8197
-14.0095 -5.4736 -90.8197
6.3971 36.4396 -90.8197
-21.5135 -19.0069 -90.8197
-6.9796 46.8273 -90.8197
-0.8990 52.9031 -90.8197
27.6065 -14.8621 -90.8197
-17.7014 -19.6162 -90.8197
-1.5498 45.4611 -90.8197
4.6667 46.4585 -90.8197
-0.3041 48.5386 -90.8197
24.9786 -43.1559 -90.8197
-4.3918 -43.8975 -90.8197
-28.7745 -1.4560 -90.8197
22.9016 46.6008 -90.8197
30.2207 -11.8262 -90.8197
-22.4607 -22.0528 -90.8197
0.6014 -2.2890 -90.8197
10.2671 47.1250 -90.8197
6.7890 -42.8782 -90.8197
18.5387 -42.6256 -90.8197
-17.9509 -9.1064 -90.8197
5.6792 3.1949 -90.8197
-22.9541 21.5817 -90.8197
13.1715 3.2484 -90.8197
-23.1039 11.5653 -90.8197
-0.7295 -6.0826 -90.8197
-20.6688 26.9192 -90.8197
24.1264 -22.1291 -90.8197
-12.6062 -3.8577 -90.8197
29.0942 24.3767 -90.8197
-2.6936 -51.6762 -90.8197
12.7982 33.6558 -90.8197
3.3863 -16.9457 -90.8197
-27.0310 -9.1341 -90.8197
-27.2669 41.6020 -90.8197
-8.5518 22.9453 -90.8197
6.9604 -44.9230 -90.8197
27.9270 25.0177 -90.8197
9.8834 -22.3052 -90.8197
9.3095 -15.5304 -90.8197
11.5204 -6.0182 -90.8197
30.3562 -44.7612 -90.8197
11.2206 -18.1356 -90.8197
13.0264 -46.9496 -90.8197
17.4656 26.5394 -90.8197
-21.9654 -9.7145 -90.8197
-17.1408 35.9869 -90.8197
25.8850 -20.1482 -90.8197
-2.0545 -32.0929 -90.8197
-3.9389 -47.3953 -90.8197
29.0519 20.8383 -90.8197
-2.4620 -2.8906 -90.8197
20.5771 -44.7021 -90.8197
5.1628 49.0411 -90.8197
15.9578 36.9709 -90.8197
2.8673 -39.2433 -90.8197
-23.8063 -40.7708 -90.8197
29.8535 15.9118 -90.8197
-12.8974 -4.9199 -90.8197
14.7646 -5.3194 -90.8197
-17.7282 54.6720 -90.8197
-6.9736 -0.0970 -90.8197
-4.2864 34.6636 -90.8197
9.3679 -7.2977 -90.8197
2.6843 -10.0475 -90.8197
-13.6538 31.3879 -90.8197
-27.9820 13.3491 -90.8197
7.6382 -17.7997 -90.8197
-22.4234 45.7086 -90.8197
4.4963 -32.5749 -90.8197
-1.2737 -27.2668 -90.8197
-2.6778 9.1329 -90.8197
-7.5243 12.8551 -90.8197
4.5835 -16.8791 -90.8197
19.9882 -29.1560 -90.8197
9.6764 -38.6830 -90.8197
-5.4984 -20.0847 -90.8197
-6.8588 45.3183 -90.8197
24.3691 -3.9022 -90.8197
13.1795 -3.7687 -90.8197
19.0513 13.1226 -90.8197
0.0802 2.7745 -90.8197
4.2302 53.9580 -90.8197
24.2559 -1.9601 -90.8197
-19.0188 53.2047 -90.8197
-23.1209 42.6837 -90.8197
26.9859 -27.4855 -90.8197
-9.8276 9.3297 -90.8197
-4.1081 12.1053 -90.8197
18.4115 -22.1318 -90.8197
9.2326 43.5272 -90.8197
30.0310 -11.6318 -90.8197
1.5094 -26.3579 -90.8197
-18.0141 -46.6573 -90.8197
-11.2177 -25.2022 -90.8197
-29.1460 24.6452 -90.8197
-19.9273 -47.2373 -90.8197
-27.7445 8.2576 -90.8197
3.6518 -11.5380 -90.8197
-21.6315 -18.9218 -90.8197
-12.3530 -42.0045 -90.8197
-11.6402 30.4966 -90.8197
5.6109 -43.5436 -90.8197
-14.4516 54.7420 -90.8197
