ply
format ascii 1.0
element vertex 1024
property float x
property float y
property float z
end_header
81.0806 -5.1359 44.2279
81.0806 51.2729 -0.8535
81.0806 -60.0106 45.4110
81.0806 32.1357 -44.9255
81.0806 39.9108 -25.9262
81.0806 42.8625 8.6448
81.0806 -3.1236 -35.2197
81.0806 3.7419 16.5231
81.0806 -37.4890 8.7076
81.0806 -50.4456 33.8191
81.0806 -48.3551 15.6410
81.0806 -11.9226 -44.3810
81.0806 -55.6096 34.8608
81.0806 23.3595 50.1771
81.0806 32.7342 46.3049
81.0806 20.7460 -10.0092
81.0806 36.9105 11.9035
81.0806 -13.6581 47.2179
81.0806 -60.8048 22.0660
81.0806 48.1993 -33.7195
81.0806 10.9690 -40.3745
81.0806 55.5839 49.9976
81.0806 20.3984 -1.8562
81.0806 -64.7488 43.4423
81.0806 61.3432 47.5475
81.0806 60.2903 38.8726
81.0806 -11.1036 7.4822
81.0806 -56.3153 -43.5915
81.0806 21.8396 -14.2954
81.0806 -59.8759 22.9521
81.0806 31.8475 15.9443
81.0806 63.3220 -19.5643
81.0806 3.7470 28.4203
81.0806 -20.6089 40.8224
81.0806 -8.1121 -20.9437
81.0806 -2.4746 -48.4015
81.0806 34.3356 -10.9856
81.0806 -50.0375 42.9793
81.0806 -28.9788 -13.5696
81.0806 69.7662 35.4653
81.0806 51.6728 -11.8649
81.0806 -12.8868 49.2173
81.0806 -38.6511 -34.0759
81.0806 -0.0902 -28.7618
81.0806 64.5852 -21.8232
81.0806 64.3403 6.4831
81.0806 36.8165 35.3245
81.0806 8.7517 -11.8036
81.0806 -37.5255 -31.3793
81.0806 45.3891 12.0628
81.0806 -33.2399 -12.8680
81.0806 -13.2648 -16.6468
81.0806 -53.3310 6.8730
81.0806 -30.1146 -7.2052
81.0806 -44.7567 -11.8749
81.0806 22.7259 7.7751
81.0806 15.5626 15.1066
81.0806 -7.0359 20.7448
81.0806 35.0289 -12.5412
81.0806 52.7977 -48.2436
81.0806 -43.1752 44.2571
81.0806 65.6773 38.0503
81.0806 33.3122 -0.5876
81.0806 58.8262 26.6958
81.0806 -66.3314 19.6930
81.0806 37.8261 30.9253
81.0806 -31.6088 7.0791
81.0806 -49.8957 -0.2360
81.0806 -44.5213 15.3957
81.0806 46.3677 -48.3708
81.0806 41.6460 -27.5572
81.0806 -63.9156 -23.3617
81.0806 -18.7439 -40.6560
81.0806 -10.3847 -5.9274
81.0806 -46.9514 -32.6915
81.0806 -48.7930 40.5394
81.0806 -47.8364 -30.2743
81.0806 -6.3651 29.3477
81.0806 -6.9222 0.0647
81.0806 -58.0373 14.8709
81.0806 53.3295 -2.7645
81.0806 16.8795 39.6320
81.0806 58.7158 -30.3020
81.0806 48.3050 -29.4301
81.0806 61.2106 39.9044
81.0806 -36.5605 -17.4002
81.0806 -41.0426 -1.7642
81.0806 -3.6107 -6.3470
81.0806 19.6929 -27.7152
81.0806 -63.3760 42.8442
81.0806 8.3432 34.1320
81.0806 -36.9341 4.8506
81.0806 63.1568 -2.6288
81.0806 24.4878 44.9218
81.0806 -54.5301 -35.9572
81.0806 -9.3234 -35.1435
81.0806 5.1350 8.6233
81.0806 -17.7699 -45.0739
81.0806 3.3988 22.9504
81.0806 46.7169 -35.1680
81.0806 40.4769 -45.4265
81.0806 -48.7208 -10.6456
81.0806 -47.1847 8.0854
81.0806 1.5373 -32.0546
81.0806 24.4226 -28.6996
81.0806 -6.7235 -32.9739
81.0806 -32.4819 46.0521
81.0806 17.5060 -1.1131
81.0806 4.3386 46.8933
81.0806 50.9524 -0.6138
81.0806 42.5286 -23.4183
81.0806 20.6169 -39.5419
81.0806 22.1568 2.9746
81.0806 -47.0836 -19.2926
81.0806 43.5645 43.1046
81.0806 -25.4169 6.1492
81.0806 -33.5794 9.1895
81.0806 -54.8034 -17.3001
81.0806 14.5215 17.6073
81.0806 8.0602 0.8168
81.0806 -11.2842 19.1958
81.0806 35.5743 18.0112
81.0806 -53.7082 -36.0646
81.0806 -14.0928 -5.2460
81.0806 -25.6911 5.1990
81.0806 54.5708 31.2185
81.0806 2.8158 48.3500
81.0806 -55.0816 19.7793
81.0806 -57.4295 -4.4706
81.0806 -20.6978 4.3227
81.0806 -41.2361 -42.3623
81.0806 6.8806 -42.9043
81.0806 18.6912 -36.2139
81.0806 57.5043 15.0274
81.0806 -58.2021 -18.9857
81.0806 -47.3356 28.0893
81.0806 0.2641 -7.2398
81.0806 -55.4735 4.8205
81.0806 44.5598 -20.4944
81.0806 58.9276 2.5169
81.0806 65.3372 40.2759
81.0806 46.9335 -11.0225
81.0806 19.0787 -10.3475
81.0806 41.9374 -12.7324
81.0806 -7.1319 -13.7664
81.0806 51.5541 -32.6414
81.0806 18.5813 17.1755
81.0806 -51.7599 38.0392
81.0806 -2.7209 -38.9819
81.0806 -50.4539 33.8856
81.0806 24.0733 -27.1226
81.0806 -53.4314 -35.0523
81.0806 9.0814 32.0703
81.0806 -66.5160 50.4259
81.0806 -58.3100 1.7523
81.0806 -33.6527 44.3599
81.0806 53.0326 0.4642
81.0806 -0.1975 -12.8734
81.0806 -50.1892 -27.5407
81.0806 -17.0220 15.2972
81.0806 30.0335 31.3061
81.0806 -44.3164 -13.6241
81.0806 -6.0474 14.2566
81.0806 -7.3122 44.5475
81.0806 31.8514 -9.7065
81.0806 31.3348 7.6375
81.0806 -9.3583 -25.1702
81.0806 -15.1671 38.6730
81.0806 -42.2068 -6.4094
81.0806 52.9373 6.9279
81.0806 41.8487 -37.0709
-81.0806 51.5178 45.9995
-81.0806 21.6659 -0.0068
-81.0806 -51.2301 33.7936
-81.0806 46.8079 26.7314
-81.0806 34.1789 36.8368
-81.0806 2.5713 2.7309
-81.0806 -30.2203 48.0632
-81.0806 48.1491 0.4030
-81.0806 27.5789 5.8487
-81.0806 -16.6403 34.7256
-81.0806 4.5634 34.4352
-81.0806 -27.1900 25.4163
-81.0806 -55.1749 -43.8808
-81.0806 -50.8417 -22.0067
-81.0806 -40.3281 -50.2389
-81.0806 -21.8919 -2.4425
-81.0806 -48.8338 -43.8003
-81.0806 -56.7898 0.1567
-81.0806 -5.4388 -44.1992
-81.0806 -9.6176 21.8238
-81.0806 -14.6042 -37.5571
-81.0806 -60.8328 46.1040
-81.0806 -57.3865 37.4136
-81.0806 15.0578 -5.5989
-81.0806 -28.6858 4.8618
-81.0806 35.0935 -27.6166
-81.0806 41.3814 -19.4911
-81.0806 -36.6454 -10.0658
-81.0806 -55.7431 -20.3534
-81.0806 -48.4579 -29.4452
-81.0806 -11.7569 15.7290
-81.0806 57.5682 48.3560
-81.0806 -58.6865 -9.7813
-81.0806 -15.6227 -6.4514
-81.0806 30.9365 17.2694
-81.0806 56.8056 17.0289
-81.0806 -43.7837 -29.8455
-81.0806 -45.9746 -38.9183
-81.0806 -66.8404 4.0453
-81.0806 4.2691 -14.0141
-81.0806 68.4786 -19.4964
-81.0806 59.1527 -49.1735
-81.0806 30.5741 43.6275
-81.0806 16.1333 43.7863
-81.0806 2.9024 -22.3125
-81.0806 62.3925 -24.6164
-81.0806 43.3093 44.8161
-81.0806 -12.8799 35.8942
-81.0806 -2.1606 9.8013
-81.0806 -47.6223 47.7102
-81.0806 60.1697 -43.0333
-81.0806 -2.5289 36.7695
-81.0806 -54.1474 -45.6389
-81.0806 25.2892 -12.0262
-81.0806 47.6961 -45.8423
-81.0806 -67.4478 5.5957
-81.0806 -39.7857 13.4722
-81.0806 -3.7350 2.7528
-81.0806 -52.7320 38.8057
-81.0806 56.5322 24.6218
-81.0806 46.7045 15.6780
-81.0806 30.3954 28.3718
-81.0806 0.2013 -38.7257
-81.0806 16.0252 -41.6324
-81.0806 27.0124 -28.4992
-81.0806 8.1364 46.5513
-81.0806 -23.1477 -42.1928
-81.0806 40.3810 -5.6825
-81.0806 2.3780 40.3936
-81.0806 52.2051 -3.9586
-81.0806 16.0338 -33.0222
-81.0806 17.9934 22.4763
-81.0806 56.6321 -9.5233
-81.0806 -12.4179 -7.7808
-81.0806 31.3567 32.8891
-81.0806 33.7812 -26.0710
-81.0806 4.9383 -16.8246
-81.0806 2.1906 -17.9939
-81.0806 -48.4480 47.9734
-81.0806 -44.5077 19.7116
-81.0806 -8.1133 -42.5118
-81.0806 9.8291 -10.4457
-81.0806 57.0311 -34.5167
-81.0806 21.5619 4.3479
-81.0806 -20.5761 45.9019
-81.0806 -9.8129 41.6680
-81.0806 -27.9238 35.7440
-81.0806 -47.1697 13.4381
-81.0806 60.9981 -5.8046
-81.0806 27.6116 37.2427
-81.0806 62.5993 8.8868
-81.0806 -29.4039 4.1171
-81.0806 -36.5463 -13.0217
-81.0806 21.7488 -5.0214
-81.0806 -54.5093 -23.1215
-81.0806 62.5096 33.2469
-81.0806 -30.5296 -42.1931
-81.0806 44.4668 -13.7852
-81.0806 -62.7824 25.2053
-81.0806 -53.5359 4.1276
-81.0806 36.9256 32.7810
-81.0806 -46.2600 -3.9669
-81.0806 -16.9495 6.3664
-81.0806 32.1587 17.8800
-81.0806 49.1404 -10.2658
-81.0806 -23.6522 -16.6866
-81.0806 -6.6160 -2.6411
-81.0806 -32.4378 -42.7550
-81.0806 -64.9151 9.8851
-81.0806 -51.4471 -2.3034
-81.0806 -59.6586 39.0732
-81.0806 -16.0564 18.2289
-81.0806 -36.8759 39.5007
-81.0806 -56.0442 -32.0310
-81.0806 -47.3100 -6.4898
-81.0806 -5.2317 33.2544
-81.0806 -62.9080 -14.7159
-81.0806 38.9946 49.9905
-81.0806 -7.0508 -12.3340
-81.0806 -41.4005 27.9271
-81.0806 -22.4247 15.3417
-81.0806 -64.9595 49.3723
-81.0806 47.1810 22.0616
-81.0806 -17.0795 46.1248
-81.0806 -3.4258 4.5990
-81.0806 -26.1333 -2.7724
-81.0806 68.5151 44.4135
-81.0806 59.0500 -6.9327
-81.0806 64.7677 22.2100
-81.0806 -64.7052 4.0398
-81.0806 54.4035 -42.8802
-81.0806 -50.9478 -39.3584
-81.0806 44.8995 -43.3728
-81.0806 15.0951 4.5495
-81.0806 -47.9395 -1.4893
-81.0806 -25.7999 11.1677
-81.0806 -24.2871 -43.7269
-81.0806 17.6502 25.6085
-81.0806 -37.7866 31.6491
-81.0806 -23.5778 -30.7517
-81.0806 55.8940 25.9912
-81.0806 -56.2792 -12.9956
-81.0806 49.4041 -14.3425
-81.0806 -59.0765 -29.4747
-81.0806 39.9979 -18.3805
-81.0806 -20.4151 -45.8511
-81.0806 64.5266 -47.5747
-81.0806 -20.1709 -36.2335
-81.0806 66.0547 -16.6508
-81.0806 -45.7845 -42.3926
-81.0806 -70.5192 -40.2394
-81.0806 40.0963 -43.4909
-81.0806 -42.1986 -26.2120
-81.0806 -19.6110 -27.3519
-81.0806 -62.8255 22.8825
-81.0806 60.0650 36.0337
-81.0806 56.1234 -23.3932
-81.0806 -17.4670 -17.3162
-81.0806 17.2032 27.5797
-81.0806 58.5825 23.0358
-81.0806 12.3921 47.8214
-81.0806 -69.2898 17.4981
-81.0806 -7.2349 -37.2693
-81.0806 -32.5992 22.0199
-81.0806 2.8056 -4.4122
-81.0806 13.3349 40.8371
-81.0806 25.8164 21.1096
-81.0806 -29.2616 37.7871
-81.0806 33.5771 25.8048
-81.0806 -62.8144 41.7911
-81.0806 -24.4510 10.2253
0.8416 70.7673 36.6411
56.0257 70.7673 -41.2666
24.3952 70.7673 -29.2012
79.4043 70.7673 -5.6316
22.5401 70.7673 4.3580
-27.1763 70.7673 33.4424
-63.2472 70.7673 7.3586
49.1018 70.7673 37.1845
4.2918 70.7673 10.4035
41.3020 70.7673 40.2651
65.1166 70.7673 -31.8161
60.7957 70.7673 49.7376
9.8809 70.7673 -14.8346
-58.9440 70.7673 -19.1630
21.3342 70.7673 2.0555
23.9440 70.7673 49.9969
45.8443 70.7673 -16.7875
50.7234 70.7673 -19.4881
6.6843 70.7673 49.2950
-41.8580 70.7673 11.0570
-53.4726 70.7673 -14.0494
1.7618 70.7673 -36.7109
-59.1961 70.7673 -18.2511
-7.1113 70.7673 -22.8161
-2.7258 70.7673 1.1513
66.6509 70.7673 37.4717
7.6592 70.7673 11.1765
-32.8900 70.7673 47.5155
-33.8201 70.7673 26.9527
-20.8395 70.7673 3.1752
71.3581 70.7673 35.5265
5.3824 70.7673 22.8259
-18.8916 70.7673 -41.9620
-75.2971 70.7673 -17.3756
25.6016 70.7673 -20.6863
67.2196 70.7673 36.2250
-13.2001 70.7673 22.8136
80.0769 70.7673 7.8173
10.1366 70.7673 -19.7683
-72.2957 70.7673 -44.6895
-2.2669 70.7673 5.7524
76.2211 70.7673 -35.0018
-26.9480 70.7673 32.9902
-20.1231 70.7673 -20.8688
9.5951 70.7673 26.1926
66.0359 70.7673 -17.5594
79.5925 70.7673 21.3374
33.3525 70.7673 -41.5420
34.0737 70.7673 4.8118
13.3101 70.7673 38.3071
-52.8014 70.7673 48.5119
-9.3325 70.7673 -21.9717
37.3043 70.7673 43.9753
59.3683 70.7673 -40.8970
41.0899 70.7673 18.6001
72.6171 70.7673 1.0435
-59.4554 70.7673 39.5424
-65.8686 70.7673 -13.8577
-14.0061 70.7673 35.6854
68.9434 70.7673 40.0682
-43.7655 70.7673 -17.4045
-25.6305 70.7673 43.5798
39.1170 70.7673 8.3017
-57.9525 70.7673 31.1371
-2.9075 70.7673 13.3980
10.1405 70.7673 18.8844
2.0569 70.7673 -16.6746
-71.3169 70.7673 41.3323
-73.6312 70.7673 8.4996
-74.0892 70.7673 -8.5859
56.0889 70.7673 47.2111
-72.3364 70.7673 43.2592
35.7351 70.7673 0.7827
27.1188 70.7673 46.0177
-10.8607 70.7673 -27.2772
2.4083 70.7673 8.4803
-16.5678 70.7673 -49.7627
20.6395 70.7673 24.7633
-63.8866 70.7673 -37.0544
-34.4891 70.7673 49.4809
-78.1447 70.7673 30.1332
-37.9180 70.7673 -11.7958
-70.6199 70.7673 -50.0209
2.5771 70.7673 -35.5110
52.9043 70.7673 -19.6729
73.2485 70.7673 -28.6976
33.3807 70.7673 -0.8208
24.7797 70.7673 -2.4143
-67.0654 70.7673 10.6893
-2.2755 70.7673 -23.7798
69.0949 70.7673 1.1038
-55.3497 70.7673 -4.6489
-80.8408 70.7673 27.9157
52.4799 70.7673 -39.6194
44.5755 70.7673 28.6396
18.1518 70.7673 19.1952
25.0959 70.7673 49.1798
-68.1643 70.7673 -41.6398
64.1795 70.7673 -24.6779
-20.6623 70.7673 45.0104
-7.1002 70.7673 22.3590
-66.4188 70.7673 5.9934
-21.0598 70.7673 14.0697
3.8430 70.7673 -41.4759
-75.7568 70.7673 29.5824
26.1130 70.7673 -18.2603
62.9341 70.7673 -7.9593
61.9789 70.7673 -13.1502
62.1125 70.7673 26.1289
30.7309 70.7673 47.6400
-27.8028 70.7673 30.7658
-61.2311 70.7673 -41.3044
52.8531 70.7673 -7.8075
2.4920 70.7673 -15.3216
-69.9606 70.7673 -37.6081
16.7466 70.7673 9.4665
-9.0479 70.7673 -31.3408
-64.7599 70.7673 -31.1795
-63.2412 70.7673 -45.5018
66.8706 70.7673 18.8808
-53.8700 70.7673 -44.3250
40.8528 70.7673 50.2936
60.1531 70.7673 27.4578
34.2878 70.7673 -46.5632
-10.4668 70.7673 -37.5166
-24.3137 70.7673 -28.8389
78.8418 70.7673 15.8209
63.6375 70.7673 37.5692
-21.3631 70.7673 -36.5699
73.0424 70.7673 38.4538
51.6697 70.7673 21.4308
24.2001 70.7673 10.0506
-4.8652 70.7673 -8.1674
53.9644 70.7673 7.5639
5.3195 70.7673 -4.0533
-44.1250 70.7673 -29.2384
16.6090 70.7673 -37.7104
-54.9697 70.7673 36.9764
-77.3417 70.7673 -24.2903
-77.1624 70.7673 -22.8854
-49.5338 70.7673 -30.5379
-51.7138 70.7673 14.2509
13.9516 70.7673 28.8015
-39.6675 70.7673 -12.6871
25.3970 70.7673 -39.5113
-28.9988 70.7673 50.0713
-43.0584 70.7673 14.9902
-69.9117 70.7673 45.4901
75.3553 70.7673 -15.4481
-39.0682 70.7673 24.8506
52.4732 70.7673 27.9706
-12.6320 70.7673 42.4795
50.2305 70.7673 17.0136
-24.8911 70.7673 -32.7636
17.0807 70.7673 22.9913
-56.6965 70.7673 -41.3594
-5.4964 70.7673 -27.4864
14.7160 70.7673 27.7602
-74.5335 70.7673 -49.1217
40.3130 70.7673 -33.1178
-46.2862 70.7673 41.4302
-34.4309 70.7673 9.9289
-62.4208 70.7673 32.4812
23.1879 70.7673 -9.3952
-73.6152 70.7673 -37.3682
63.3076 70.7673 -21.2879
-71.3810 70.7673 28.9389
59.8035 70.7673 26.1236
27.4305 70.7673 37.4838
-36.7109 70.7673 44.8176
-12.0374 70.7673 4.2208
-59.6487 -70.7673 40.0766
57.1935 -70.7673 25.8365
-76.2411 -70.7673 -43.5128
32.4408 -70.7673 3.8478
-48.1301 -70.7673 46.4092
12.9455 -70.7673 6.0197
38.8595 -70.7673 37.0649
-75.3737 -70.7673 -26.4945
-59.9112 -70.7673 45.9135
-64.9273 -70.7673 7.5377
53.8022 -70.7673 31.6217
-65.3328 -70.7673 16.8768
51.2264 -70.7673 35.1395
60.5763 -70.7673 -39.1037
30.5709 -70.7673 -7.4543
-39.9422 -70.7673 -19.8596
76.4189 -70.7673 -26.2147
-25.2173 -70.7673 6.7802
-25.2973 -70.7673 -28.1410
-39.1746 -70.7673 -38.6941
-74.2531 -70.7673 50.3762
-17.0693 -70.7673 -36.9233
27.6628 -70.7673 -5.2657
-43.3683 -70.7673 40.8525
-2.0626 -70.7673 0.0399
-22.2510 -70.7673 13.8388
51.4720 -70.7673 13.2848
-72.9662 -70.7673 15.8524
34.2949 -70.7673 -18.8690
-34.7284 -70.7673 35.8030
10.0339 -70.7673 3.5755
7.8277 -70.7673 -44.2373
53.4437 -70.7673 12.8103
-23.1284 -70.7673 24.1389
-40.7593 -70.7673 35.0563
65.3660 -70.7673 -27.2110
60.2171 -70.7673 50.4338
67.1586 -70.7673 23.5174
66.3992 -70.7673 7.6876
-26.9040 -70.7673 25.1938
-70.5683 -70.7673 1.2257
-24.2296 -70.7673 49.2583
23.7224 -70.7673 -14.2597
13.1382 -70.7673 -13.4225
5.5885 -70.7673 12.5067
48.5373 -70.7673 -32.1889
-79.6715 -70.7673 38.4220
-75.4500 -70.7673 42.3916
11.9427 -70.7673 45.6769
-56.0463 -70.7673 -9.5503
55.6123 -70.7673 -7.1164
-45.4672 -70.7673 -6.4322
-68.6666 -70.7673 -15.5996
-73.2580 -70.7673 28.3939
-30.3094 -70.7673 48.3891
-31.0066 -70.7673 -13.2224
22.0717 -70.7673 16.3992
-62.4182 -70.7673 -35.5149
10.4081 -70.7673 -13.5334
-13.8511 -70.7673 -37.6759
55.2006 -70.7673 39.8099
68.3692 -70.7673 -48.2207
-12.7446 -70.7673 -15.2791
39.2664 -70.7673 31.7563
3.1864 -70.7673 19.4185
73.9864 -70.7673 -6.1293
-43.8599 -70.7673 44.2291
-23.9080 -70.7673 37.6025
-76.6156 -70.7673 -48.7512
6.3663 -70.7673 28.9848
-40.8052 -70.7673 -28.1707
-8.9682 -70.7673 -0.6000
-9.4115 -70.7673 -50.3894
37.0275 -70.7673 15.7109
65.3188 -70.7673 -34.3074
3.8245 -70.7673 49.0880
-12.3606 -70.7673 38.4979
25.4500 -70.7673 -43.3650
32.8604 -70.7673 -38.2125
-20.9799 -70.7673 49.6665
27.8304 -70.7673 35.6506
-4.1336 -70.7673 -50.0736
9.7729 -70.7673 -8.9791
55.6804 -70.7673 -28.2726
68.6065 -70.7673 -29.5344
-6.3727 -70.7673 -0.2528
63.2752 -70.7673 -17.8961
55.4970 -70.7673 -26.9493
42.2720 -70.7673 -1.2551
67.7971 -70.7673 47.2018
4.5984 -70.7673 1.5264
-17.5449 -70.7673 27.9497
-33.8443 -70.7673 37.4395
-26.4700 -70.7673 1.0038
-20.0998 -70.7673 -21.3619
-49.1756 -70.7673 -4.2621
-27.3062 -70.7673 -2.6950
-65.7675 -70.7673 42.3781
13.5800 -70.7673 9.0863
-33.8652 -70.7673 -17.5920
72.7219 -70.7673 33.3900
42.9753 -70.7673 19.0828
23.3347 -70.7673 -30.3108
-37.5928 -70.7673 0.5108
-1.9538 -70.7673 32.0978
21.8423 -70.7673 41.0744
5.5415 -70.7673 0.2187
-70.7731 -70.7673 15.9219
38.1367 -70.7673 -17.2427
57.0065 -70.7673 -12.7761
28.4926 -70.7673 38.8294
66.3143 -70.7673 14.8786
64.0130 -70.7673 -27.7558
78.6076 -70.7673 12.2685
-27.8127 -70.7673 -25.2347
-67.9057 -70.7673 47.2702
1.7060 -70.7673 17.4288
-63.9074 -70.7673 34.3607
-12.5397 -70.7673 -23.9468
25.3900 -70.7673 16.9883
10.5252 -70.7673 -5.7045
17.3269 -70.7673 35.6623
-53.0001 -70.7673 -2.0775
-41.2924 -70.7673 -7.0053
-8.9444 -70.7673 32.1350
-69.5218 -70.7673 -41.3957
-66.1113 -70.7673 -50.0190
-42.2042 -70.7673 18.5646
43.5824 -70.7673 20.4586
-4.4451 -70.7673 -26.3791
63.7246 -70.7673 18.3938
-28.0834 -70.7673 -40.7738
-12.8621 -70.7673 45.9963
28.5379 -70.7673 48.4074
-39.9167 -70.7673 25.2433
45.0822 -70.7673 9.6960
-76.0113 -70.7673 28.3439
79.6166 -70.7673 -43.9549
-24.4277 -70.7673 23.8906
38.5897 -70.7673 -10.9134
-79.3326 -70.7673 9.0674
37.7504 -70.7673 32.7658
-4.3893 -70.7673 25.2293
30.5302 -70.7673 25.3976
-65.4478 -70.7673 -25.4437
-51.2823 -70.7673 3.2542
77.7907 -70.7673 -21.4695
-66.0017 -70.7673 16.9301
-58.3073 -70.7673 34.4985
-23.9031 -70.7673 -12.7043
-57.1477 -70.7673 -46.9138
-14.8890 -70.7673 -19.8177
-53.5015 -70.7673 10.8869
-48.7603 -70.7673 -45.5740
53.8226 -70.7673 -33.3260
-21.5898 -70.7673 -16.7266
32.0157 -70.7673 10.2118
-22.4826 -70.7673 50.3495
38.0252 -70.7673 -28.5022
41.3264 -70.7673 -31.6372
-75.4490 -70.7673 -23.1016
-50.7421 -70.7673 36.7477
-64.0958 -70.7673 -3.1050
0.2270 -70.7673 -7.2083
67.1966 -70.7673 35.6266
-66.5796 -70.7673 -44.7629
-33.3855 -70.7673 -42.2606
50.6642 -70.7673 23.8927
-45.4634 -70.7673 -40.6499
-40.5028 -70.7673 29.9319
-36.6779 -70.7673 -18.7796
-40.7617 39.6529 50.4443
-15.8584 -3.7578 50.4443
37.9427 -56.5313 50.4443
47.5219 -65.6036 50.4443
75.2714 62.1138 50.4443
-37.3944 -40.1711 50.4443
-47.6434 33.5314 50.4443
-62.5224 30.2799 50.4443
-80.9829 -63.1718 50.4443
50.3063 6.4562 50.4443
-25.7205 47.0259 50.4443
-70.5221 -70.7041 50.4443
-46.0007 -27.1120 50.4443
42.1269 -41.1053 50.4443
6.0113 63.3304 50.4443
-49.8244 46.0028 50.4443
-73.3289 -3.1433 50.4443
39.8958 -46.5005 50.4443
-79.2858 45.1471 50.4443
-28.6013 -49.6977 50.4443
-25.3269 57.0360 50.4443
-57.9646 9.4746 50.4443
33.5562 -48.2460 50.4443
-33.3760 57.4649 50.4443
-64.7610 54.2529 50.4443
21.6039 67.4070 50.4443
37.4904 28.3026 50.4443
-55.4023 -39.0689 50.4443
-70.1128 -26.8299 50.4443
10.5175 45.3027 50.4443
-42.6220 11.3385 50.4443
30.9426 -18.7189 50.4443
-33.8471 -17.6791 50.4443
-59.1617 -47.6851 50.4443
15.1522 60.0372 50.4443
-42.6786 68.3399 50.4443
-53.9452 -10.9053 50.4443
-2.6732 -24.0157 50.4443
-41.3626 11.2990 50.4443
23.3585 62.8382 50.4443
-50.9727 42.4887 50.4443
-61.0993 -22.1490 50.4443
-45.3535 59.1901 50.4443
-47.1779 -53.0657 50.4443
-78.6742 -22.8941 50.4443
-36.6934 -68.0239 50.4443
-27.9818 27.5977 50.4443
-4.0067 -33.9089 50.4443
48.2308 56.2179 50.4443
-62.2661 51.1802 50.4443
45.6084 -2.7510 50.4443
50.6735 -8.0819 50.4443
32.8870 -16.7859 50.4443
40.2084 51.4202 50.4443
63.0723 22.1997 50.4443
-66.1548 31.1124 50.4443
-54.1891 37.9028 50.4443
58.4419 -50.8641 50.4443
-12.5601 0.8645 50.4443
43.1109 -12.0551 50.4443
76.5039 26.4713 50.4443
-61.1978 -64.5208 50.4443
70.3943 -5.0419 50.4443
20.8553 57.0067 50.4443
4.4920 -56.0990 50.4443
44.9379 3.4029 50.4443
29.1935 -16.2398 50.4443
74.1941 -64.1380 50.4443
41.0799 -3.1290 50.4443
-42.0145 65.5350 50.4443
-41.3466 33.3053 50.4443
1.6417 -70.5398 50.4443
15.9309 -45.6315 50.4443
-14.0002 -60.2900 50.4443
77.1548 -65.5146 50.4443
-12.9318 -47.6618 50.4443
2.8040 -0.3682 50.4443
-40.5736 2.4066 50.4443
-43.5358 -50.8961 50.4443
-80.6493 5.9085 50.4443
-3.7010 -19.3135 50.4443
19.7477 -14.2781 50.4443
25.7704 -26.4302 50.4443
7.6748 -30.4684 50.4443
-46.9234 40.1520 50.4443
-11.6924 15.8533 50.4443
-3.0212 -15.1392 50.4443
78.2348 -45.8462 50.4443
1.1845 -24.0570 50.4443
-79.0093 22.6020 50.4443
11.3484 -10.9913 50.4443
-39.8871 -20.1591 50.4443
-58.8918 66.4448 50.4443
59.7333 -5.2776 50.4443
53.6608 10.8020 50.4443
54.6223 -50.2348 50.4443
48.9307 -41.2023 50.4443
7.9771 27.5779 50.4443
59.9785 45.1572 50.4443
-79.4753 6.4833 50.4443
72.8501 14.4152 50.4443
59.2104 -38.4394 50.4443
-3.9369 -65.2751 50.4443
-42.4861 22.0134 50.4443
-42.5007 -58.6070 50.4443
-45.1678 -66.4926 50.4443
3.6696 34.5837 50.4443
80.0020 7.8435 50.4443
22.7615 55.1204 50.4443
-7.6009 32.2121 50.4443
-23.0960 68.3252 50.4443
-12.1285 46.7255 50.4443
-33.9607 -24.8549 50.4443
-41.5713 -61.8387 50.4443
-21.4652 3.4511 50.4443
53.5919 68.8627 50.4443
-11.7807 47.9518 50.4443
-26.0727 -36.1686 50.4443
-32.7240 66.3063 50.4443
37.7127 52.4492 50.4443
61.0153 35.4679 50.4443
26.8149 16.4113 50.4443
-66.9706 -21.1208 50.4443
37.1496 23.0988 50.4443
76.1234 -60.6479 50.4443
-9.4900 -69.0334 50.4443
66.4918 -17.8223 50.4443
-44.8248 -0.3698 50.4443
-68.7694 -20.1133 50.4443
61.2137 8.2386 50.4443
-71.3563 7.4556 50.4443
60.2047 -9.6277 50.4443
58.8426 24.2532 50.4443
-53.6697 7.9409 50.4443
38.7316 47.8854 50.4443
-18.9347 -34.6901 50.4443
42.5226 -58.8283 50.4443
-26.1631 -7.6868 50.4443
10.6565 36.7145 50.4443
-31.1009 17.9033 50.4443
4.8270 -53.1575 50.4443
-59.0972 -54.2295 50.4443
-17.4307 -0.9441 50.4443
-6.6428 58.7752 50.4443
-12.8955 -21.5568 50.4443
-38.1189 3.9729 50.4443
-21.0492 58.4553 50.4443
-73.2307 59.0030 50.4443
-29.3674 -35.3468 50.4443
-74.8172 29.1037 50.4443
64.5802 -36.5610 50.4443
-0.0037 -17.5474 50.4443
59.2530 -22.7946 50.4443
-49.5660 69.1447 50.4443
-37.7393 -10.3146 50.4443
36.1514 -38.9065 50.4443
80.8345 -48.9250 50.4443
-27.3455 -17.6433 50.4443
-62.2334 21.2130 50.4443
65.1997 -26.7271 50.4443
36.4465 29.5434 50.4443
37.1695 53.8200 50.4443
-63.5246 38.9342 50.4443
-54.7138 -11.9515 50.4443
-37.5541 22.5309 50.4443
-38.4303 11.3286 50.4443
-19.8413 -29.0433 50.4443
75.1873 -12.0596 50.4443
-19.5055 -68.1043 50.4443
-30.3838 -37.1162 50.4443
28.8790 -37.0749 -50.4443
37.3959 -68.7623 -50.4443
-9.5556 -9.0493 -50.4443
64.8305 -58.5960 -50.4443
-49.2039 -53.9788 -50.4443
4.2743 59.2451 -50.4443
35.1939 15.6123 -50.4443
-53.8958 55.3022 -50.4443
36.7087 -40.8249 -50.4443
19.5137 67.6852 -50.4443
38.8885 -66.7649 -50.4443
-15.9147 49.2873 -50.4443
-71.8541 10.8122 -50.4443
-0.5101 -41.4258 -50.4443
-62.9531 33.6600 -50.4443
-63.2401 -6.0841 -50.4443
-32.5839 -53.9441 -50.4443
-59.3663 -9.6975 -50.4443
30.6076 18.2469 -50.4443
17.3755 12.2234 -50.4443
15.9261 2.9010 -50.4443
-61.7694 -54.0068 -50.4443
63.8660 -8.1398 -50.4443
-43.3336 -51.9479 -50.4443
73.9155 62.7399 -50.4443
-33.0628 -59.6409 -50.4443
-75.9525 -58.4986 -50.4443
-71.6036 -50.1442 -50.4443
-46.2885 -59.3546 -50.4443
52.9587 46.5984 -50.4443
61.2107 12.8440 -50.4443
-48.1965 -36.1713 -50.4443
-66.2140 -12.5090 -50.4443
41.8387 44.6162 -50.4443
-24.1103 -12.9808 -50.4443
17.8648 -61.0545 -50.4443
9.8037 2.7032 -50.4443
-31.7954 -44.1153 -50.4443
-0.4096 53.4071 -50.4443
-32.7591 69.0077 -50.4443
-7.5480 58.3407 -50.4443
65.0435 8.8368 -50.4443
15.7552 34.8898 -50.4443
-65.8050 17.6407 -50.4443
-10.6882 16.5256 -50.4443
-37.0621 -20.8410 -50.4443
-49.6237 -47.5401 -50.4443
-76.5880 8.5496 -50.4443
44.1561 64.6156 -50.4443
-23.5769 23.3770 -50.4443
29.1697 8.2563 -50.4443
-24.2207 45.3295 -50.4443
3.1512 17.2819 -50.4443
53.6383 3.1431 -50.4443
49.7958 -26.0816 -50.4443
17.6137 24.1289 -50.4443
50.2635 4.8248 -50.4443
-54.3787 48.0453 -50.4443
57.9853 15.2354 -50.4443
-52.1098 -43.7154 -50.4443
19.5905 55.2315 -50.4443
27.8559 -61.8084 -50.4443
66.5323 0.9791 -50.4443
32.0999 -35.1458 -50.4443
-76.7873 -5.8566 -50.4443
64.9374 42.1031 -50.4443
18.5876 -36.6959 -50.4443
-15.3961 27.0594 -50.4443
56.6574 -33.6574 -50.4443
-39.9951 -0.7728 -50.4443
67.1365 -33.6262 -50.4443
48.5220 -29.8973 -50.4443
7.4672 19.9553 -50.4443
-33.2732 -17.3661 -50.4443
59.2063 -49.0822 -50.4443
-78.1333 26.2239 -50.4443
-31.2352 54.3848 -50.4443
-78.8783 18.9508 -50.4443
71.8748 -24.3281 -50.4443
43.1123 4.0372 -50.4443
-33.3995 -9.0673 -50.4443
74.3840 27.9145 -50.4443
-55.5216 21.5325 -50.4443
31.1520 -63.9882 -50.4443
-34.2663 -5.1962 -50.4443
16.2561 30.2358 -50.4443
21.7829 43.2811 -50.4443
40.7640 41.5078 -50.4443
-29.3813 -14.8911 -50.4443
-49.8555 -14.7113 -50.4443
46.1432 -2.9598 -50.4443
-68.6743 30.0149 -50.4443
31.8663 20.7109 -50.4443
2.4992 6.7794 -50.4443
-32.7853 64.8405 -50.4443
-18.9767 25.0120 -50.4443
-67.9505 20.1532 -50.4443
-36.9234 -29.9461 -50.4443
-16.7970 -28.1365 -50.4443
80.9005 -67.2866 -50.4443
20.2787 38.3772 -50.4443
72.8813 38.8786 -50.4443
-29.0016 22.4807 -50.4443
14.2118 -14.3062 -50.4443
51.4300 17.8686 -50.4443
-78.9064 -51.6881 -50.4443
-31.4378 8.9342 -50.4443
44.6296 -34.3685 -50.4443
13.0403 34.0327 -50.4443
-41.4610 -6.7221 -50.4443
-8.9961 35.1315 -50.4443
-33.8863 27.6763 -50.4443
39.8932 0.3844 -50.4443
-29.8478 -32.1033 -50.4443
-79.6174 -29.9371 -50.4443
32.3098 -2.7443 -50.4443
45.4702 10.9211 -50.4443
10.3026 0.6460 -50.4443
-45.0740 23.6954 -50.4443
63.0396 68.3649 -50.4443
-33.8542 9.7154 -50.4443
-21.6015 -27.2882 -50.4443
-49.0363 -38.4031 -50.4443
0.8163 47.8998 -50.4443
-8.9292 26.2759 -50.4443
50.5910 -31.6577 -50.4443
75.7576 -17.5638 -50.4443
69.9587 -48.8894 -50.4443
-65.1230 -6.8305 -50.4443
-15.3560 -23.0144 -50.4443
62.5783 -24.4174 -50.4443
1.5333 7.9937 -50.4443
9.2628 11.3200 -50.4443
28.4303 -10.2440 -50.4443
-19.8587 -24.9181 -50.4443
-22.6339 15.0673 -50.4443
-16.2926 68.0217 -50.4443
69.6865 -12.3745 -50.4443
-30.4007 34.8502 -50.4443
71.9720 58.7354 -50.4443
-58.0808 -56.8472 -50.4443
55.1381 -10.3311 -50.4443
-75.9801 -31.9017 -50.4443
47.7805 52.3358 -50.4443
-27.6298 30.4379 -50.4443
-31.7599 37.3165 -50.4443
-5.8876 5.1826 -50.4443
-34.0780 14.4125 -50.4443
13.0017 15.0204 -50.4443
23.6381 -35.7855 -50.4443
-39.9922 50.2349 -50.4443
-7.3983 26.0196 -50.4443
-13.6592 -69.3468 -50.4443
27.8201 -33.8960 -50.4443
-20.8236 -25.8654 -50.4443
-77.2361 -20.1832 -50.4443
26.3977 -47.1610 -50.4443
56.9683 57.7638 -50.4443
-38.5739 -37.3711 -50.4443
29.1744 28.0941 -50.4443
54.2047 -43.2483 -50.4443
-58.8228 -27.8973 -50.4443
-78.8918 -49.0091 -50.4443
-45.4825 44.6015 -50.4443
12.1543 43.2116 -50.4443
-74.1561 -16.6941 -50.4443
-50.6034 12.8905 -50.4443
-54.5940 30.8162 -50.4443
-78.1588 13.4995 -50.4443
-70.0669 30.8371 -50.4443
