ply
format ascii 1.0
element vertex 1024
property float x
property float y
property float z
end_header
99.5281 84.8610 -14.2195
99.5281 -1.5845 -23.1184
99.5281 -58.6881 25.4950
99.5281 48.9177 15.1625
99.5281 78.9365 16.3262
99.5281 63.8340 22.9902
99.5281 57.1852 -12.6033
99.5281 -47.2000 -25.5001
99.5281 -58.2597 0.4609
99.5281 66.0075 11.9395
99.5281 9.0494 -24.6981
99.5281 51.4008 -12.1745
99.5281 -43.6285 5.8265
99.5281 35.4101 -2.6684
99.5281 -47.2624 14.8002
99.5281 15.9593 -2.6205
99.5281 -79.8399 -6.6908
99.5281 73.5877 -22.0069
99.5281 16.9706 25.6512
99.5281 -37.3057 -18.1278
99.5281 -15.9900 -1.9023
99.5281 56.3807 18.3730
99.5281 -28.3363 10.5064
99.5281 63.7795 6.6924
99.5281 52.7847 20.0181
99.5281 -42.1225 -21.8680
99.5281 53.3781 -5.7834
99.5281 -74.2287 13.7555
99.5281 -38.0825 -0.1028
99.5281 -90.4981 10.7301
99.5281 -0.9549 11.8624
99.5281 -33.3089 -2.3999
99.5281 81.2437 -25.0336
99.5281 -29.3387 -20.8750
99.5281 -80.0369 -24.5021
99.5281 76.8685 22.4876
99.5281 -25.5053 -10.3148
99.5281 -37.0830 5.3123
99.5281 -36.5265 -9.4255
99.5281 14.9999 3.9680
99.5281 86.1814 13.7782
99.5281 -67.6106 -11.3993
99.5281 36.2484 22.2844
99.5281 85.4502 -12.7355
99.5281 10.1569 -24.3404
99.5281 57.4946 -1.6163
99.5281 28.3744 -14.2321
99.5281 23.3348 -7.1479
99.5281 7.5790 17.7233
99.5281 -8.4656 13.3975
99.5281 58.8474 8.0002
99.5281 54.7603 21.6242
99.5281 -38.4978 0.3796
99.5281 -0.0644 20.4352
99.5281 41.6249 -2.9089
99.5281 -76.1952 -2.1609
99.5281 31.1937 25.3025
99.5281 -69.6030 1.9530
99.5281 -15.7107 -25.2561
99.5281 -46.2615 -23.7739
99.5281 -74.1811 -14.8560
99.5281 -54.5536 7.4072
99.5281 8.4009 -1.0694
99.5281 -25.4694 12.4419
99.5281 56.8117 4.5274
99.5281 -40.4039 -3.1106
99.5281 47.6747 -25.4905
99.5281 80.7069 -2.6122
99.5281 7.6557 -3.3553
99.5281 -46.0362 21.8864
99.5281 -75.1062 -2.7546
99.5281 -31.8541 -7.0539
99.5281 4.0096 -14.5715
99.5281 43.3131 -10.4968
99.5281 68.5713 -2.3300
99.5281 7.4883 21.1506
99.5281 44.9501 -3.8413
99.5281 68.4421 8.2903
99.5281 69.8633 6.2919
99.5281 -76.8067 -6.5737
99.5281 54.8220 3.1322
99.5281 66.8910 -14.3316
99.5281 25.2889 0.2519
99.5281 -49.4141 -1.1544
99.5281 -60.1504 -5.6497
99.5281 41.3552 2.0444
99.5281 -9.0704 11.5172
99.5281 68.6154 -23.0609
99.5281 65.8257 -12.0148
99.5281 -79.5909 17.5827
99.5281 30.4917 -0.3538
99.5281 -74.2455 -23.9375
99.5281 10.1412 -13.7252
99.5281 -51.1524 0.4938
99.5281 -18.8990 2.9570
99.5281 37.1934 -0.7235
99.5281 79.4571 25.2731
99.5281 -76.8856 7.2256
99.5281 56.6806 17.9491
99.5281 -52.9191 9.2137
99.5281 30.4485 9.6486
99.5281 65.9887 8.5871
99.5281 83.4148 -15.6250
99.5281 29.8128 2.2764
99.5281 -50.6913 -21.1801
99.5281 66.8095 -6.3742
99.5281 -51.4387 -11.6915
99.5281 -16.2463 1.0100
99.5281 63.9020 16.6391
99.5281 21.6562 -19.3699
99.5281 85.6030 1.8607
99.5281 -43.5484 13.5439
99.5281 83.4902 12.7156
99.5281 67.5486 -21.1836
99.5281 38.8810 4.4548
99.5281 72.8903 25.4284
99.5281 75.1467 18.1660
99.5281 32.0636 -23.0391
99.5281 -39.3271 10.2698
99.5281 64.2132 -5.6493
99.5281 64.7054 -21.2655
99.5281 -69.3790 -19.6722
99.5281 51.6033 23.6199
99.5281 -31.4518 2.9883
99.5281 -45.7451 -12.1203
99.5281 -10.1383 15.4764
99.5281 -54.2273 9.8636
99.5281 75.5068 -9.0504
99.5281 18.7675 25.5237
99.5281 -87.3910 -12.3384
99.5281 -22.6813 13.4786
99.5281 -14.0596 -17.3375
99.5281 -17.6467 14.0857
99.5281 -36.9321 -10.9022
99.5281 -85.9932 -24.1422
99.5281 36.7082 -13.1430
99.5281 -73.0697 23.5807
99.5281 -28.8436 -8.7503
99.5281 49.4933 25.4142
99.5281 -20.1406 25.2541
99.5281 1.7129 23.0985
99.5281 -18.3212 12.4142
99.5281 -25.3596 17.3421
99.5281 37.8247 -24.7704
99.5281 -65.2055 14.7769
99.5281 11.3911 9.5710
99.5281 -46.0530 21.0819
99.5281 81.4655 3.1382
99.5281 -26.4228 22.6669
99.5281 -66.9663 3.9383
99.5281 -57.9633 15.9461
99.5281 7.9274 -14.9096
99.5281 21.9870 -21.1276
99.5281 67.9242 3.1344
99.5281 35.0493 -4.0359
99.5281 55.0428 -0.9546
99.5281 36.0508 -3.5714
99.5281 -40.9639 2.6412
99.5281 -49.8379 13.4656
99.5281 -53.2189 4.3787
99.5281 -26.6860 19.5913
99.5281 -59.7545 15.0602
99.5281 22.2371 15.1660
99.5281 -51.0505 -1.1331
99.5281 -80.4977 14.9460
99.5281 78.9872 18.2760
99.5281 73.4049 -6.1804
99.5281 42.2337 -5.0302
99.5281 58.4654 -5.6944
99.5281 83.7213 11.1266
99.5281 -6.4826 6.9818
-99.5281 -48.9415 1.1176
-99.5281 11.9606 -21.4063
-99.5281 38.5300 25.8079
-99.5281 -50.0149 8.6200
-99.5281 6.7670 -18.3875
-99.5281 -67.5574 20.1205
-99.5281 11.9171 -11.7732
-99.5281 -10.5346 -20.7554
-99.5281 3.7509 -3.5296
-99.5281 27.3255 11.0520
-99.5281 73.5161 0.0920
-99.5281 52.5345 4.4232
-99.5281 11.4282 17.6559
-99.5281 -59.8147 -11.6275
-99.5281 79.0688 -3.4117
-99.5281 -32.4871 13.8257
-99.5281 23.3677 14.0025
-99.5281 -46.8749 6.3119
-99.5281 -44.4735 16.2394
-99.5281 19.3773 -11.6075
-99.5281 -57.8571 25.1794
-99.5281 -80.8474 -0.5858
-99.5281 -88.3779 -12.2654
-99.5281 79.1407 17.6744
-99.5281 39.5822 10.1533
-99.5281 -52.0191 -8.0450
-99.5281 -60.9985 23.3866
-99.5281 -73.3549 -1.0214
-99.5281 -48.7709 21.4997
-99.5281 -3.2277 -25.6860
-99.5281 -86.8319 13.4319
-99.5281 -14.2024 10.3057
-99.5281 -75.4384 1.5445
-99.5281 -27.8239 -24.7536
-99.5281 78.3264 -1.2610
-99.5281 -52.5903 8.3428
-99.5281 -88.2306 -15.7185
-99.5281 -66.9677 5.8050
-99.5281 -30.2661 -23.6035
-99.5281 -10.4404 -17.1519
-99.5281 90.0294 12.2792
-99.5281 -38.8131 -14.6506
-99.5281 20.0709 -18.4367
-99.5281 -11.7310 -1.4647
-99.5281 -58.8797 11.7067
-99.5281 47.8170 3.6525
-99.5281 -63.1883 -0.2701
-99.5281 -61.6146 -21.0087
-99.5281 67.5776 -4.8514
-99.5281 -3.7143 -17.1424
-99.5281 -41.1713 -2.4764
-99.5281 28.7901 -14.1210
-99.5281 44.2660 0.4502
-99.5281 -58.1706 -0.5065
-99.5281 38.0620 -25.5003
-99.5281 -10.5486 -11.0014
-99.5281 62.1042 -2.5388
-99.5281 34.0974 2.0399
-99.5281 43.1082 -18.2340
-99.5281 -41.2625 -4.9578
-99.5281 67.6608 12.4513
-99.5281 -21.0429 -19.9580
-99.5281 61.8023 -14.1430
-99.5281 -75.1588 5.0169
-99.5281 67.3410 -11.3064
-99.5281 -31.1609 4.9326
-99.5281 14.4665 3.2141
-99.5281 -5.3846 16.4387
-99.5281 -50.1013 -24.9414
-99.5281 -53.0630 17.7049
-99.5281 -80.0375 -20.5325
-99.5281 54.8735 -17.4981
-99.5281 41.5127 -24.1914
-99.5281 -11.2215 3.0636
-99.5281 15.5202 -7.3610
-99.5281 -9.4452 -19.3147
-99.5281 -38.0600 8.5164
-99.5281 -69.4270 -22.6793
-99.5281 -13.6577 -17.5645
-99.5281 -22.5068 21.9797
-99.5281 -63.5950 20.5036
-99.5281 71.5960 1.4652
-99.5281 39.8802 7.6098
-99.5281 16.8776 25.1383
-99.5281 -61.4981 8.2698
-99.5281 72.1392 11.2886
-99.5281 42.6608 -15.0387
-99.5281 84.1426 24.1916
-99.5281 -61.8082 7.7594
-99.5281 -49.5464 -5.5943
-99.5281 -57.7766 16.4155
-99.5281 -27.1012 9.2869
-99.5281 56.1462 3.7979
-99.5281 -61.6990 0.0590
-99.5281 79.9344 -18.8566
-99.5281 -27.4374 -6.6225
-99.5281 -28.7531 4.8341
-99.5281 -14.2426 -13.3296
-99.5281 -83.6058 16.2004
-99.5281 -42.5060 -20.1111
-99.5281 32.5341 -18.8830
-99.5281 -49.3931 2.4468
-99.5281 -54.6418 -11.6316
-99.5281 -1.7382 -2.2919
-99.5281 27.0731 19.7881
-99.5281 -72.6594 8.3118
-99.5281 -34.4293 -22.1061
-99.5281 82.6742 -2.4802
-99.5281 29.5273 12.7356
-99.5281 57.2594 5.6894
-99.5281 -26.0562 -3.5472
-99.5281 44.8805 19.8220
-99.5281 18.3461 25.0834
-99.5281 -86.2554 14.2483
-99.5281 7.1763 -4.5743
-99.5281 79.5492 15.6110
-99.5281 -85.7714 -7.1324
-99.5281 61.0148 5.1973
-99.5281 -3.9011 -11.5941
-99.5281 -11.8033 -2.8377
-99.5281 -20.7671 7.9310
-99.5281 -44.6511 -13.1012
-99.5281 -63.6415 -10.2060
-99.5281 -43.4802 19.8348
-99.5281 3.4322 15.2555
-99.5281 -51.7480 -1.6699
-99.5281 3.7999 19.3680
-99.5281 -48.8395 3.4579
-99.5281 15.4717 -18.7675
-99.5281 -48.5611 12.5525
-99.5281 65.8201 16.5372
-99.5281 41.9964 -20.1841
-99.5281 -68.7281 -22.5946
-99.5281 77.2603 -23.6222
-99.5281 -6.5110 -25.0905
-99.5281 -70.2827 12.0422
-99.5281 40.7701 -12.3133
-99.5281 -34.2458 19.6924
-99.5281 47.7786 -5.6231
-99.5281 86.0501 1.6376
-99.5281 54.6670 12.6744
-99.5281 -19.1640 13.2124
-99.5281 -63.3620 -5.0101
-99.5281 -16.4806 16.4738
-99.5281 -64.2240 15.8690
-99.5281 -63.9682 12.0115
-99.5281 -89.2837 21.3854
-99.5281 5.1580 1.3801
-99.5281 -26.0848 24.3726
-99.5281 -30.4380 1.6113
-99.5281 -52.1914 -21.9439
-99.5281 -38.4868 6.2283
-99.5281 50.4039 12.8590
-99.5281 -71.8291 -7.1035
-99.5281 4.4911 -19.8066
-99.5281 -49.9034 -21.9046
-99.5281 -28.1119 3.7266
-99.5281 -53.0777 8.8139
-99.5281 -4.6709 2.9638
-99.5281 -73.2741 -23.0027
-99.5281 68.5286 13.5265
-99.5281 78.9665 -22.2157
-99.5281 -56.9820 -17.0543
-99.5281 86.6791 0.6606
-99.5281 -6.7621 -15.5309
-99.5281 -35.8154 -15.0327
-99.5281 51.3175 -14.5756
-99.5281 -1.6625 22.9552
-99.5281 -30.6815 3.5471
-99.5281 42.8886 -19.0983
-99.5281 27.4232 1.8633
84.5526 90.6023 12.8425
98.9626 90.6023 4.0795
76.6432 90.6023 -7.6982
73.4881 90.6023 -10.2852
-29.5051 90.6023 -14.3064
13.8904 90.6023 7.6439
-6.0568 90.6023 16.3035
-82.7515 90.6023 -17.0186
-79.2869 90.6023 -24.7926
30.2763 90.6023 13.7573
-63.3443 90.6023 -0.2915
-14.4868 90.6023 14.9519
4.2735 90.6023 -25.5671
-25.6505 90.6023 16.1352
-46.1324 90.6023 8.1363
5.6152 90.6023 20.3049
-56.2446 90.6023 12.0392
85.3398 90.6023 21.0452
-7.2755 90.6023 8.5804
-90.6529 90.6023 2.3425
69.9101 90.6023 23.9774
-30.6819 90.6023 -16.1309
95.4352 90.6023 5.6296
89.4517 90.6023 -18.8639
72.8447 90.6023 2.9924
-31.0558 90.6023 10.3010
30.0623 90.6023 -6.3337
96.0814 90.6023 -20.0553
80.0562 90.6023 1.2748
87.6160 90.6023 21.0595
-57.6153 90.6023 14.7743
73.3561 90.6023 -2.5454
39.9614 90.6023 -5.1422
9.5104 90.6023 -20.3774
71.7611 90.6023 -18.7064
-92.6177 90.6023 13.3343
-45.4877 90.6023 3.7004
90.2439 90.6023 -7.8874
4.9263 90.6023 -7.3276
16.0282 90.6023 -2.4066
-94.1050 90.6023 20.9906
44.9680 90.6023 14.4019
-50.5199 90.6023 -8.1229
-75.0946 90.6023 -19.7569
69.0397 90.6023 6.2088
86.3900 90.6023 22.5557
-14.3529 90.6023 -9.1508
-74.4323 90.6023 24.7590
-98.7463 90.6023 1.4958
-15.7725 90.6023 5.6388
-77.8467 90.6023 -19.5128
-18.9347 90.6023 21.6750
91.0083 90.6023 -7.1911
96.6944 90.6023 6.7062
38.6945 90.6023 -6.8841
-29.8519 90.6023 14.5243
34.7132 90.6023 -14.9027
83.3712 90.6023 -25.3313
-99.2617 90.6023 24.6441
-28.3344 90.6023 -22.5662
15.3555 90.6023 -19.6932
-68.8668 90.6023 -19.9512
5.0148 90.6023 8.7282
62.7052 90.6023 24.9205
-18.4026 90.6023 15.5872
-66.3257 90.6023 22.9739
-95.8957 90.6023 18.5144
-94.1580 90.6023 -17.1305
79.4773 90.6023 -15.4607
-77.8244 90.6023 2.3434
78.9156 90.6023 15.1324
28.6285 90.6023 -22.2889
-87.6077 90.6023 18.9379
-58.6718 90.6023 14.4077
-32.7929 90.6023 -18.0028
72.8113 90.6023 6.5262
19.9092 90.6023 5.7949
-41.4648 90.6023 -22.2320
-49.2331 90.6023 -24.0300
-57.1578 90.6023 -3.5182
38.1900 90.6023 -19.0314
95.3856 90.6023 -18.3383
40.4658 90.6023 15.9399
-30.1894 90.6023 2.6891
-55.8654 90.6023 23.1936
-88.7401 90.6023 6.5313
21.9921 90.6023 -5.2435
-55.6443 90.6023 19.6981
70.4980 90.6023 9.1942
94.2579 90.6023 -0.0922
-90.3192 90.6023 -12.4180
-75.2316 90.6023 6.0488
12.2803 90.6023 -25.0093
99.3115 90.6023 -13.1951
-82.5493 90.6023 -25.3427
-76.2554 90.6023 5.0188
1.2817 90.6023 -13.1355
-29.3814 90.6023 -4.5309
83.8106 90.6023 22.4248
-15.0784 90.6023 -25.6055
-31.7515 90.6023 -1.5280
17.9617 90.6023 8.2202
66.2342 90.6023 12.9695
95.7679 90.6023 22.9260
50.8560 90.6023 23.0430
23.9520 90.6023 10.0346
-61.9004 90.6023 -17.6142
7.9475 90.6023 10.0681
14.5782 90.6023 -1.9840
74.6721 90.6023 -3.7142
-89.8776 90.6023 -7.8772
-77.2506 90.6023 -16.6515
-30.8881 90.6023 -10.3521
14.8113 90.6023 -7.1214
68.0449 90.6023 6.9396
-53.8453 90.6023 23.5471
-43.7981 90.6023 18.7488
-3.1402 90.6023 24.3943
-81.3189 90.6023 0.5212
53.1666 90.6023 -22.0474
-14.6894 90.6023 13.6811
-86.8737 90.6023 -13.9211
-54.4644 90.6023 -17.3106
-1.7070 90.6023 -8.8117
-90.6172 90.6023 -7.2530
-87.8637 90.6023 -11.2279
-63.5415 90.6023 -4.9573
-18.4557 90.6023 12.3327
51.1162 90.6023 13.9493
13.8045 90.6023 19.7851
56.5342 90.6023 19.0338
-45.4280 90.6023 24.1165
-46.1172 90.6023 -2.4337
7.9510 90.6023 11.0929
-69.5002 90.6023 -18.1795
-49.5175 90.6023 18.1837
-77.5186 90.6023 -7.3539
-52.9643 90.6023 -9.7972
32.1141 90.6023 17.4198
-1.6952 90.6023 -13.9032
22.2655 90.6023 1.7379
-9.7278 90.6023 7.8650
-45.4960 90.6023 21.0034
85.0828 90.6023 -12.4001
30.7506 90.6023 23.5366
21.3748 90.6023 -7.6109
50.1337 90.6023 -4.9654
-49.9980 90.6023 -3.6297
-88.4280 90.6023 22.7338
-4.6879 90.6023 -0.6606
53.6920 90.6023 22.3661
48.8561 90.6023 14.2970
71.6972 90.6023 25.5230
-14.1988 90.6023 -2.7063
-61.7463 90.6023 -10.1833
6.5703 90.6023 24.7810
6.8127 90.6023 -5.1477
98.6470 90.6023 -10.9844
-21.0939 90.6023 25.0480
86.0011 90.6023 17.5736
47.9162 90.6023 -5.2017
-95.1315 90.6023 23.1991
-20.7037 90.6023 -18.8595
-52.9836 90.6023 0.0782
-45.2379 90.6023 3.3266
20.8836 90.6023 -11.7895
80.1178 90.6023 -22.4888
40.9927 90.6023 17.9244
-44.3417 90.6023 18.2382
44.2268 90.6023 -15.0348
-21.0491 90.6023 -5.5120
79.1231 -90.6023 16.1040
-53.6333 -90.6023 22.9775
-81.2544 -90.6023 -3.7360
23.4698 -90.6023 -12.8103
-35.0507 -90.6023 -23.5940
-32.9786 -90.6023 17.4753
-7.5867 -90.6023 -6.1557
-29.7854 -90.6023 -21.4223
-24.5431 -90.6023 5.9262
83.7443 -90.6023 15.6142
-28.2470 -90.6023 -22.4300
-53.4905 -90.6023 10.6377
51.2467 -90.6023 1.8837
4.0312 -90.6023 -12.1732
-21.5589 -90.6023 18.0964
-89.8015 -90.6023 -3.0269
-13.1158 -90.6023 24.1431
46.7064 -90.6023 20.4774
-59.7284 -90.6023 -1.4030
63.0755 -90.6023 5.0939
50.1820 -90.6023 14.4402
-44.9876 -90.6023 -5.5024
-53.5475 -90.6023 16.4218
22.4312 -90.6023 -1.0688
-67.5107 -90.6023 -13.4269
-62.4099 -90.6023 16.7898
-48.4985 -90.6023 -1.2363
43.4024 -90.6023 17.9046
-30.1268 -90.6023 12.6298
-91.2157 -90.6023 13.7194
80.7180 -90.6023 -7.1061
25.1431 -90.6023 -13.9306
24.7845 -90.6023 -1.6596
-77.3121 -90.6023 -25.6456
-64.7430 -90.6023 9.5796
-12.0660 -90.6023 -20.4533
-34.2443 -90.6023 0.3894
-0.7852 -90.6023 24.8055
76.2759 -90.6023 24.0027
97.3894 -90.6023 -18.6109
-61.3752 -90.6023 -6.2511
-82.7864 -90.6023 20.3325
45.3467 -90.6023 25.4757
67.7293 -90.6023 6.1400
8.7519 -90.6023 24.3826
4.4627 -90.6023 -4.6637
87.2056 -90.6023 7.4194
-30.6752 -90.6023 12.3144
-56.1561 -90.6023 8.8124
28.2304 -90.6023 -4.1438
3.7778 -90.6023 20.4567
-7.5524 -90.6023 -16.2688
27.6167 -90.6023 20.2181
25.6234 -90.6023 11.7576
33.1119 -90.6023 16.3051
-50.1588 -90.6023 19.5615
-63.6952 -90.6023 -11.5677
-86.2498 -90.6023 -22.6878
-61.4030 -90.6023 19.8740
73.9373 -90.6023 11.4226
-97.2079 -90.6023 16.3543
61.5183 -90.6023 19.7730
-27.6805 -90.6023 1.0950
-74.1059 -90.6023 3.5456
-54.8022 -90.6023 -21.9833
-52.0026 -90.6023 14.6017
-2.2926 -90.6023 -23.9287
88.0484 -90.6023 -3.4347
-23.5886 -90.6023 -25.5478
-2.6215 -90.6023 -18.0110
92.5717 -90.6023 -0.4365
-41.3012 -90.6023 3.4496
82.1467 -90.6023 14.0085
35.4811 -90.6023 5.5399
-20.0580 -90.6023 -16.1861
-18.2580 -90.6023 10.6205
-78.4869 -90.6023 -23.5336
-71.9562 -90.6023 12.3003
-67.9993 -90.6023 -20.8264
72.7242 -90.6023 -18.7463
13.2882 -90.6023 -18.5118
-39.5133 -90.6023 -0.8656
-49.6943 -90.6023 22.0063
65.9422 -90.6023 10.1554
92.8635 -90.6023 8.9938
-69.0023 -90.6023 13.6223
82.3650 -90.6023 -19.2252
-34.4527 -90.6023 15.6843
41.1745 -90.6023 -21.2522
-83.5599 -90.6023 -10.0215
-7.6275 -90.6023 0.5350
-95.6132 -90.6023 3.0079
8.8773 -90.6023 20.5588
-87.0122 -90.6023 -6.9209
-80.1148 -90.6023 -4.1562
-59.7532 -90.6023 4.2627
-77.6008 -90.6023 2.5428
-27.2586 -90.6023 -16.1332
-40.5461 -90.6023 -0.0290
89.1231 -90.6023 -10.4051
-32.5842 -90.6023 11.7022
-20.4844 -90.6023 6.0574
18.4953 -90.6023 10.2543
72.3278 -90.6023 25.7163
-59.3892 -90.6023 -22.5180
40.3974 -90.6023 -9.6879
85.6279 -90.6023 7.9144
21.0399 -90.6023 -11.0092
36.2242 -90.6023 -8.7439
90.0952 -90.6023 24.8531
7.3570 -90.6023 6.7431
-75.3665 -90.6023 24.5768
31.8645 -90.6023 14.3508
63.2713 -90.6023 -21.3837
-37.0375 -90.6023 13.0889
-38.8789 -90.6023 -5.3116
-14.1254 -90.6023 -8.6071
52.6037 -90.6023 -8.2235
-94.6612 -90.6023 -10.9735
-74.7764 -90.6023 24.5279
6.8587 -90.6023 6.1910
-4.8408 -90.6023 -10.1365
-6.5163 -90.6023 10.1515
71.4906 -90.6023 16.5828
20.9892 -90.6023 -1.5495
-27.2236 -90.6023 -17.1912
-96.7909 -90.6023 10.9502
-6.7633 -90.6023 -6.8615
29.5104 -90.6023 -4.4249
36.5328 -90.6023 12.8653
64.9581 -90.6023 -15.2460
-65.5444 -90.6023 -23.9558
69.2045 -90.6023 11.3745
91.8151 -90.6023 25.5467
-33.6862 -90.6023 -0.4970
-31.2477 -90.6023 -20.6212
54.2879 -90.6023 -10.5203
-7.4715 -90.6023 -2.0674
96.5477 -90.6023 -16.0574
-4.4986 -90.6023 -16.0518
-73.7480 -90.6023 2.8416
-34.6540 -90.6023 22.4932
-58.5244 -90.6023 -12.6201
73.2989 -90.6023 -15.2440
-31.0828 -90.6023 -8.9487
-90.2366 -90.6023 -1.7492
84.8004 -90.6023 23.7325
69.9113 -90.6023 -22.5587
45.9631 -90.6023 -0.2900
-57.9164 -90.6023 -7.3801
42.6699 -90.6023 5.1241
-52.6573 -90.6023 4.7691
5.3089 -90.6023 -3.4428
19.2756 -90.6023 -19.0770
-20.4738 -90.6023 6.5750
-31.6131 -90.6023 25.6407
-5.4473 -90.6023 0.3398
72.2092 -90.6023 -7.0511
-15.4479 -90.6023 7.6308
-24.5044 -90.6023 14.1054
-87.8398 -90.6023 -16.9459
-46.3775 -90.6023 22.9254
-10.8830 -90.6023 -22.7455
-0.6549 -90.6023 -8.4887
4.8231 -90.6023 14.9932
-57.2326 -90.6023 19.7302
-61.0009 -90.6023 -3.7658
98.0166 -90.6023 -20.9590
-1.3500 -90.6023 -2.8842
-44.7863 -90.6023 16.5366
-13.6641 -90.6023 19.5064
63.0136 63.7250 25.8099
-49.3107 87.5897 25.8099
-54.5303 71.5835 25.8099
-30.5146 -60.8084 25.8099
60.9103 -54.4506 25.8099
-62.4814 80.2712 25.8099
-21.6626 -52.3044 25.8099
-77.9183 -87.4053 25.8099
-15.7252 48.2323 25.8099
-10.2087 31.8770 25.8099
28.7234 21.6837 25.8099
-64.8136 -88.2687 25.8099
-79.5101 -39.9900 25.8099
57.4498 -36.8835 25.8099
-17.8636 -84.0754 25.8099
80.4507 24.0995 25.8099
-36.4965 16.7574 25.8099
97.7571 -78.3488 25.8099
-63.8876 -28.7534 25.8099
59.1282 22.0580 25.8099
-98.7561 -70.2851 25.8099
-19.6930 -31.2938 25.8099
88.3707 -79.1779 25.8099
-95.5571 -88.8309 25.8099
-37.8687 33.9378 25.8099
-98.5532 -62.4315 25.8099
90.9198 27.8356 25.8099
-33.3579 -75.4445 25.8099
68.7663 -79.3701 25.8099
69.7841 0.8983 25.8099
-6.7442 37.9725 25.8099
55.0503 -79.6649 25.8099
-33.3621 -42.2642 25.8099
92.0369 -13.4397 25.8099
-38.7059 82.5366 25.8099
70.0235 63.1874 25.8099
-41.6757 78.7628 25.8099
69.3650 31.2677 25.8099
-26.8894 -19.9353 25.8099
-55.0329 8.0144 25.8099
53.2241 14.6217 25.8099
40.5773 16.4761 25.8099
98.5361 -63.9914 25.8099
70.0780 1.8634 25.8099
-85.3883 86.7000 25.8099
50.5429 24.0933 25.8099
49.7533 -72.4594 25.8099
56.6037 -67.0517 25.8099
-32.0023 81.4808 25.8099
-92.8375 -78.0644 25.8099
53.8223 -50.1372 25.8099
9.6264 40.0207 25.8099
59.1456 72.0566 25.8099
77.5458 -41.9343 25.8099
-19.3366 -59.8433 25.8099
45.9659 -9.5451 25.8099
-73.1809 75.0295 25.8099
75.0637 88.0493 25.8099
-7.8911 -2.8227 25.8099
-38.7201 -83.8647 25.8099
69.7437 -2.2478 25.8099
-91.6472 -68.7416 25.8099
5.6140 -29.2265 25.8099
-18.0156 -85.9735 25.8099
84.2318 -51.9792 25.8099
-92.0132 27.2242 25.8099
61.8196 -80.6898 25.8099
1.4714 61.7884 25.8099
-17.6263 49.8898 25.8099
-42.7225 -27.6008 25.8099
-9.7787 -15.8044 25.8099
14.3809 -76.2022 25.8099
53.6588 66.1930 25.8099
-31.1690 24.2141 25.8099
83.9896 -4.3194 25.8099
-78.8853 71.4443 25.8099
-52.7133 -70.8501 25.8099
-12.0570 63.4402 25.8099
45.4940 33.1440 25.8099
66.5973 21.5362 25.8099
-72.6602 -48.1345 25.8099
75.9957 72.2858 25.8099
26.9003 -31.4878 25.8099
6.9829 -25.4967 25.8099
-24.8164 -13.5185 25.8099
72.2711 -41.2724 25.8099
77.8545 29.4138 25.8099
-76.5498 13.1018 25.8099
61.7357 11.9788 25.8099
4.1861 -11.6092 25.8099
-34.1809 -68.2216 25.8099
-98.0346 -7.6916 25.8099
-21.9556 -54.5595 25.8099
-98.8635 -70.5112 25.8099
31.7539 -89.4080 25.8099
-87.9686 -1.2819 25.8099
41.3474 14.0578 25.8099
-53.5434 48.5045 25.8099
-40.4055 -43.5293 25.8099
-67.5717 17.0162 25.8099
89.9200 59.7979 25.8099
64.1364 -52.6066 25.8099
-92.5817 -66.2834 25.8099
-90.2726 -22.3208 25.8099
-57.3220 58.7894 25.8099
-32.5606 -14.8661 25.8099
77.3663 24.6627 25.8099
-51.4743 3.0411 25.8099
27.9411 37.1990 25.8099
51.7491 3.1235 25.8099
-56.9113 38.0939 25.8099
-49.9755 -13.2774 25.8099
13.6865 -76.2755 25.8099
-8.1511 26.6439 25.8099
10.9771 -57.6708 25.8099
-3.7418 59.7688 25.8099
31.5092 48.4134 25.8099
-61.0746 50.4990 25.8099
51.1560 5.9651 25.8099
-58.0414 -23.1732 25.8099
-63.5861 69.7324 25.8099
-18.3326 -19.1919 25.8099
60.9529 -13.7138 25.8099
58.7525 12.9809 25.8099
92.3156 -77.9778 25.8099
-88.0318 -70.5514 25.8099
40.2710 62.8956 25.8099
-67.1517 -0.5169 25.8099
38.7199 -80.3998 25.8099
-85.7492 80.9688 25.8099
49.4799 -54.2521 25.8099
2.7620 -5.4246 25.8099
-89.4520 -0.7036 25.8099
38.6576 -2.0158 25.8099
-80.3642 87.8177 25.8099
-31.2808 14.7145 25.8099
89.4344 9.0590 25.8099
62.6584 -37.8095 25.8099
46.5479 63.9124 25.8099
93.2142 10.5351 25.8099
70.5024 62.2325 25.8099
-98.3924 4.3857 25.8099
-88.9950 37.0417 25.8099
-79.0309 -33.2789 25.8099
-79.0108 -54.1040 25.8099
27.0354 28.5394 25.8099
-76.9561 3.7598 25.8099
21.9876 -26.9787 25.8099
78.2698 -58.8621 25.8099
5.1937 -0.3495 25.8099
62.6688 -41.9185 25.8099
-93.8292 60.2113 25.8099
-85.8401 -6.1365 25.8099
-14.7049 69.3960 25.8099
11.8691 -89.3421 25.8099
-34.7496 40.2463 25.8099
-48.4047 48.7615 25.8099
38.1215 -46.4578 25.8099
-84.0613 28.7291 25.8099
72.5852 85.3396 25.8099
90.8729 46.4616 25.8099
-42.2299 -41.1428 25.8099
74.2008 -63.1694 25.8099
-4.6657 -24.8758 25.8099
-89.2578 -27.9041 25.8099
96.1961 34.3190 25.8099
-85.2424 62.5788 25.8099
87.6183 1.9385 25.8099
-73.2602 44.2749 25.8099
-34.4699 32.3886 25.8099
-59.7297 77.8804 -25.8099
-80.8871 -80.1963 -25.8099
24.7771 -90.3358 -25.8099
12.2451 -20.0502 -25.8099
-1.1182 -61.3177 -25.8099
-35.6090 -40.7435 -25.8099
24.2632 -14.2471 -25.8099
32.6405 -30.6338 -25.8099
-19.3888 4.4691 -25.8099
-50.7755 29.9342 -25.8099
12.0390 9.1783 -25.8099
76.6353 -71.4934 -25.8099
-63.0667 19.6147 -25.8099
-37.2983 -44.3854 -25.8099
32.0581 83.6167 -25.8099
27.3485 10.0487 -25.8099
36.2963 -15.5123 -25.8099
-88.5696 -14.3532 -25.8099
5.3290 -51.9195 -25.8099
-47.8408 -26.5901 -25.8099
-17.5485 -17.7481 -25.8099
-68.7875 39.3941 -25.8099
47.8827 76.6416 -25.8099
5.2938 -60.6456 -25.8099
-60.3632 43.2911 -25.8099
-34.1589 45.8818 -25.8099
25.7620 65.9543 -25.8099
57.2014 82.3897 -25.8099
37.0671 -2.1718 -25.8099
87.4753 -8.5846 -25.8099
11.6852 -35.7354 -25.8099
-56.2492 43.5345 -25.8099
9.2313 -69.6080 -25.8099
-16.1127 13.0908 -25.8099
-92.9295 -63.8172 -25.8099
84.9017 7.9146 -25.8099
90.1992 49.7337 -25.8099
-45.3853 -53.3142 -25.8099
-35.7740 30.3266 -25.8099
17.0206 30.6665 -25.8099
58.4408 79.1318 -25.8099
-59.7850 -51.9096 -25.8099
45.4563 -13.1635 -25.8099
-66.8304 23.5447 -25.8099
-33.4173 -46.8235 -25.8099
-99.0754 -34.0593 -25.8099
45.5546 -30.1918 -25.8099
-75.9137 -26.1872 -25.8099
-75.8834 81.1785 -25.8099
69.7949 -67.1230 -25.8099
-98.3096 57.1805 -25.8099
85.9086 -23.5362 -25.8099
91.5716 16.2210 -25.8099
83.2502 -37.6389 -25.8099
-35.6226 21.1860 -25.8099
14.7580 -68.4789 -25.8099
-85.3366 -57.9133 -25.8099
87.4341 -45.7625 -25.8099
-89.8717 7.1739 -25.8099
21.6390 -69.6324 -25.8099
-58.7018 -39.5026 -25.8099
34.5002 -14.1501 -25.8099
92.6022 59.6017 -25.8099
-4.7422 -88.5769 -25.8099
-36.0743 -3.2119 -25.8099
83.6790 43.6439 -25.8099
-71.2024 82.5386 -25.8099
76.9625 -3.4083 -25.8099
60.3994 -53.1453 -25.8099
-71.6047 -56.6278 -25.8099
-95.3422 81.9209 -25.8099
53.4013 63.1243 -25.8099
67.9752 -16.9479 -25.8099
-32.1170 -6.5430 -25.8099
-69.2872 44.2875 -25.8099
-53.6671 -48.0809 -25.8099
-87.2977 -43.6066 -25.8099
8.4302 -6.9775 -25.8099
91.0041 62.2377 -25.8099
86.1885 34.6935 -25.8099
-20.9195 42.4918 -25.8099
18.4482 27.3971 -25.8099
-85.9452 83.9155 -25.8099
-53.7802 55.9574 -25.8099
-61.1669 29.9300 -25.8099
1.2749 38.4435 -25.8099
-78.7014 45.0912 -25.8099
-25.7738 -51.9830 -25.8099
54.8111 -40.6313 -25.8099
8.7636 25.3783 -25.8099
12.6286 5.1549 -25.8099
-19.2955 67.2616 -25.8099
38.5431 -74.6073 -25.8099
-79.2028 7.6515 -25.8099
80.8221 -20.9669 -25.8099
-87.6792 77.5659 -25.8099
16.5792 -4.1321 -25.8099
-35.8172 -0.1555 -25.8099
-28.0061 -88.1247 -25.8099
26.8573 45.1204 -25.8099
-19.9683 65.5166 -25.8099
-80.8486 89.4850 -25.8099
9.8050 32.7431 -25.8099
78.7892 79.6724 -25.8099
-93.0736 -31.5694 -25.8099
-31.4032 -23.4275 -25.8099
11.7636 38.3949 -25.8099
59.9095 -65.4043 -25.8099
48.5657 -26.0895 -25.8099
-4.0452 19.3252 -25.8099
-35.1211 55.3889 -25.8099
55.6191 -81.2572 -25.8099
92.4250 65.5134 -25.8099
-50.1066 14.9417 -25.8099
-52.3211 20.5914 -25.8099
33.8956 -8.3927 -25.8099
87.7816 39.5474 -25.8099
89.6405 13.0027 -25.8099
-63.5689 63.4153 -25.8099
59.3002 -29.3005 -25.8099
-38.7884 -61.6880 -25.8099
39.8102 79.0022 -25.8099
9.3143 49.8419 -25.8099
57.8374 35.3015 -25.8099
60.4888 65.6423 -25.8099
-28.4099 26.2676 -25.8099
16.9517 83.0761 -25.8099
-52.4766 51.3166 -25.8099
-18.5759 69.4656 -25.8099
9.7548 -17.9459 -25.8099
-31.2793 12.0003 -25.8099
-69.1208 -83.0733 -25.8099
30.4013 -45.3642 -25.8099
-95.7474 58.6350 -25.8099
83.3284 -49.2025 -25.8099
37.4845 -69.4092 -25.8099
14.6192 -34.1511 -25.8099
83.3152 8.3902 -25.8099
28.6274 7.8740 -25.8099
35.8373 15.2172 -25.8099
93.3460 -20.2151 -25.8099
78.8740 -12.3147 -25.8099
-90.3629 -28.1862 -25.8099
-35.8559 88.7238 -25.8099
96.2418 34.6126 -25.8099
70.8403 44.3757 -25.8099
78.9253 -78.9830 -25.8099
-98.0136 72.2916 -25.8099
-91.5741 54.4894 -25.8099
-27.2735 -58.9844 -25.8099
-90.4255 -82.4833 -25.8099
7.0143 50.4686 -25.8099
54.8897 -45.4277 -25.8099
5.9672 8.6694 -25.8099
-18.9148 -81.8721 -25.8099
-44.0978 40.5197 -25.8099
65.8746 -7.9533 -25.8099
-78.9145 21.8518 -25.8099
43.9572 53.4683 -25.8099
5.9546 -60.6086 -25.8099
68.0812 73.2347 -25.8099
28.6049 23.5660 -25.8099
-69.7415 -85.7127 -25.8099
42.5859 58.7700 -25.8099
-32.5735 -78.6913 -25.8099
14.3287 -42.0505 -25.8099
-61.8921 72.1737 -25.8099
-66.8055 30.3958 -25.8099
93.0342 58.7597 -25.8099
39.6611 78.1054 -25.8099
