ply
format ascii 1.0
element vertex 1024
property float x
property float y
property float z
end_header
46.6354 32.7872 -30.5027
46.6354 12.6644 68.9686
46.6354 -8.0343 -34.3290
46.6354 -29.1809 39.0339
46.6354 0.4810 67.0786
46.6354 2.7394 42.8573
46.6354 -41.5439 72.2534
46.6354 -6.9921 76.1460
46.6354 -2.9214 -56.5095
46.6354 -36.2283 -55.9548
46.6354 -32.3579 -21.0042
46.6354 -2.2446 80.7042
46.6354 44.6470 -31.0121
46.6354 -44.1439 -71.1416
46.6354 10.5539 6.5598
46.6354 -41.7569 76.3382
46.6354 52.6577 -3.7926
46.6354 9.7924 25.9395
46.6354 15.2864 -33.9075
46.6354 -22.3362 -35.9955
46.6354 22.8458 7.5270
46.6354 -27.4646 -38.3215
46.6354 44.6407 -30.1376
46.6354 29.0100 56.1851
46.6354 -21.6246 -28.1467
46.6354 -10.3760 58.6666
46.6354 -37.6747 14.3694
46.6354 -45.8131 70.0106
46.6354 18.7913 -1.3483
46.6354 -33.1122 9.0209
46.6354 47.1979 42.5025
46.6354 -24.7946 6.1753
46.6354 -10.4674 4.6081
46.6354 32.1899 76.4110
46.6354 26.5876 17.6394
46.6354 1.9363 30.8113
46.6354 -51.9357 -37.5787
46.6354 -39.1913 14.2169
46.6354 -11.3471 -47.1982
46.6354 -50.7475 21.7035
46.6354 -13.6734 36.4364
46.6354 24.5555 -14.1036
46.6354 48.4775 -29.2182
46.6354 43.0013 9.3274
46.6354 -35.0045 -89.1500
46.6354 -21.4965 15.2848
46.6354 -38.5731 -82.2084
46.6354 22.3622 63.1060
46.6354 32.9075 -13.2475
46.6354 -52.8952 31.1951
46.6354 43.1115 75.3178
46.6354 30.5591 21.0098
46.6354 -47.7048 8.0392
46.6354 -1.0699 23.5555
46.6354 -51.5598 64.4361
46.6354 34.9981 44.2865
46.6354 23.9257 -64.7367
46.6354 40.9887 25.9070
46.6354 -19.2041 7.1545
46.6354 33.8319 -60.6378
46.6354 -30.8689 -39.0784
46.6354 7.3408 70.7056
46.6354 16.0100 50.5106
46.6354 -48.7083 -20.7851
46.6354 -19.2431 -62.5819
46.6354 -33.8397 71.4445
46.6354 52.5658 -89.9769
46.6354 -14.1958 -59.9466
46.6354 9.1420 40.8658
46.6354 -29.7851 -54.4648
46.6354 16.9288 -7.5646
46.6354 7.7119 -72.6868
46.6354 44.3985 85.8010
46.6354 -22.0772 40.9606
46.6354 27.5581 -37.3422
46.6354 -2.6864 15.7359
46.6354 17.4961 -52.8978
46.6354 37.1613 -68.3237
46.6354 32.5435 43.2989
46.6354 9.1129 -1.6807
46.6354 -11.7892 27.3221
46.6354 15.4953 -34.0971
46.6354 7.4621 21.5643
46.6354 -39.6314 -86.7359
46.6354 4.4000 -15.9723
46.6354 -19.0865 6.0385
46.6354 41.3133 71.4093
46.6354 -43.9148 72.2392
46.6354 22.5940 -52.7608
46.6354 -19.3541 -36.9229
46.6354 -16.0802 1.6413
46.6354 -51.1221 15.9579
46.6354 44.2415 -65.1827
46.6354 -48.2141 3.0571
46.6354 39.9630 33.2301
46.6354 -32.3973 -73.8486
46.6354 -19.5378 -23.4776
46.6354 -52.6499 -19.0854
46.6354 -40.8786 53.0907
46.6354 49.9772 -69.2818
46.6354 37.9085 78.3757
46.6354 -33.4600 -84.8045
46.6354 -32.5372 -56.1922
46.6354 29.7272 24.7027
46.6354 16.2978 -18.4622
46.6354 -21.8143 -22.8073
46.6354 7.6193 -42.9202
46.6354 -9.8002 -55.0328
46.6354 39.2192 19.7693
46.6354 35.2878 -55.6881
46.6354 30.8147 -1.1351
46.6354 35.2258 47.0707
46.6354 19.5530 -82.6293
46.6354 47.6392 -66.3532
46.6354 -18.2786 26.8973
46.6354 24.6832 -41.4440
46.6354 3.7631 18.7479
46.6354 -52.0298 -20.5863
46.6354 -2.8321 -92.3804
46.6354 27.1623 -31.1812
46.6354 -8.6350 -80.6830
46.6354 30.4930 -86.8105
46.6354 -35.0906 -48.4927
46.6354 -48.4927 41.9559
46.6354 33.0041 89.1312
46.6354 28.8443 60.1673
46.6354 -30.1667 53.0460
46.6354 46.2022 -19.5216
46.6354 52.5884 -2.9379
46.6354 48.0624 56.2998
46.6354 37.6143 -50.9297
46.6354 -40.8100 43.1183
46.6354 -14.6194 9.9900
46.6354 -45.6672 -38.7641
46.6354 -52.7195 11.6712
46.6354 -15.5497 -14.8394
46.6354 -32.2745 53.2477
46.6354 -51.3773 -72.9895
46.6354 32.8130 71.7301
46.6354 42.6350 -23.7607
46.6354 -5.0570 -76.5161
46.6354 -38.7027 -72.7225
46.6354 6.7014 57.8567
46.6354 48.5943 -47.8831
46.6354 20.2584 23.4582
46.6354 -22.5261 65.5023
46.6354 9.5161 -1.8884
46.6354 -34.4822 72.8522
46.6354 -28.4184 40.3091
46.6354 15.8515 83.1681
46.6354 36.1711 51.8125
46.6354 23.4631 91.1992
46.6354 -34.6993 -5.1536
46.6354 11.8513 5.2241
46.6354 16.6015 29.2644
46.6354 12.3843 -8.8001
46.6354 20.3813 25.0292
46.6354 17.7613 -41.8834
46.6354 6.7241 17.4233
46.6354 -45.0151 -71.6130
46.6354 24.4614 17.8145
46.6354 -19.4391 89.1118
46.6354 2.3159 62.0726
46.6354 18.3192 -87.4444
46.6354 -1.5094 46.0136
46.6354 -48.4645 2.2856
46.6354 19.8820 -61.9202
46.6354 -33.6038 -47.4411
46.6354 51.4179 42.1121
46.6354 -44.5858 -0.6471
46.6354 -47.0015 -80.2041
-46.6354 -32.6502 -90.9597
-46.6354 32.3464 -91.4394
-46.6354 19.1241 83.5348
-46.6354 21.2865 -10.1923
-46.6354 -22.2829 -64.0869
-46.6354 -1.9864 -55.2022
-46.6354 50.1910 92.1125
-46.6354 -49.7742 53.6143
-46.6354 34.5821 -37.3058
-46.6354 17.0882 -34.0514
-46.6354 -1.8072 58.0594
-46.6354 -39.5471 73.7012
-46.6354 16.1245 58.0660
-46.6354 -6.5838 34.5280
-46.6354 -51.5610 56.8290
-46.6354 17.6103 0.6672
-46.6354 -46.4287 1.2621
-46.6354 46.7841 -65.4025
-46.6354 -41.3149 85.0697
-46.6354 52.5081 -91.9566
-46.6354 35.4781 -53.0371
-46.6354 38.3798 51.0438
-46.6354 35.9075 17.8753
-46.6354 2.9336 -81.8401
-46.6354 -30.1322 56.9739
-46.6354 -42.5966 90.1317
-46.6354 -44.0553 -36.3729
-46.6354 -1.4308 -2.8960
-46.6354 -52.9873 -87.6209
-46.6354 15.4506 -76.4241
-46.6354 -36.8475 -39.8454
-46.6354 -37.6269 -22.3137
-46.6354 -17.6707 -90.1231
-46.6354 -30.0350 -32.5043
-46.6354 16.9802 -26.1390
-46.6354 -16.1903 21.9850
-46.6354 -7.9441 -11.8028
-46.6354 51.8869 -61.2278
-46.6354 24.2189 83.2110
-46.6354 19.2606 50.6004
-46.6354 -8.9025 -13.8287
-46.6354 23.0675 -66.8201
-46.6354 -28.4333 -40.9424
-46.6354 -50.0110 46.0876
-46.6354 22.0511 -40.5989
-46.6354 -51.7979 91.3672
-46.6354 -29.5003 16.0548
-46.6354 -15.9999 -1.8580
-46.6354 -42.4319 81.2714
-46.6354 13.3127 43.8702
-46.6354 -5.5913 69.3948
-46.6354 29.4252 -38.1182
-46.6354 -31.2140 -5.5459
-46.6354 29.9231 61.9495
-46.6354 40.0477 -15.6397
-46.6354 42.8247 45.5729
-46.6354 0.6029 15.6981
-46.6354 0.7903 -69.7802
-46.6354 19.2864 62.5926
-46.6354 14.2760 -80.6132
-46.6354 48.9278 -39.3338
-46.6354 -2.3741 -2.6005
-46.6354 46.4190 -65.0948
-46.6354 -45.4038 79.1905
-46.6354 28.5081 38.0779
-46.6354 8.5036 -50.9794
-46.6354 11.5110 -62.3458
-46.6354 51.2102 64.5423
-46.6354 8.7325 -70.0064
-46.6354 -50.7664 45.2900
-46.6354 -41.2987 -84.7295
-46.6354 41.5997 90.3107
-46.6354 -24.9744 -87.9904
-46.6354 -18.9712 60.5117
-46.6354 24.5520 -26.8951
-46.6354 -49.0052 20.6150
-46.6354 39.9376 27.0010
-46.6354 -48.5529 -18.8630
-46.6354 -19.0969 -26.8851
-46.6354 -17.0422 -37.5272
-46.6354 -28.2913 -14.7963
-46.6354 -43.7875 -15.1848
-46.6354 50.4976 -11.1478
-46.6354 35.8167 81.2167
-46.6354 -21.6578 18.2290
-46.6354 37.6924 -68.7346
-46.6354 0.2949 2.5575
-46.6354 41.0610 18.4537
-46.6354 13.7691 39.3141
-46.6354 -35.9187 -4.5653
-46.6354 10.2218 -10.0713
-46.6354 50.7893 44.1647
-46.6354 -12.7316 -34.0155
-46.6354 1.8471 8.8093
-46.6354 -49.3439 77.0786
-46.6354 35.3046 -68.6135
-46.6354 34.5635 -1.9376
-46.6354 -16.9124 -40.5212
-46.6354 36.3192 27.9519
-46.6354 -40.5141 -30.0914
-46.6354 52.3582 -49.2121
-46.6354 -17.7209 71.9323
-46.6354 -45.5688 41.5583
-46.6354 10.1375 91.6936
-46.6354 -33.0956 26.5170
-46.6354 -35.5074 -10.2987
-46.6354 9.5497 5.9585
-46.6354 -19.7748 -35.3331
-46.6354 1.5468 -26.3492
-46.6354 15.3832 -46.3310
-46.6354 -6.5920 -78.8575
-46.6354 14.3379 -29.2118
-46.6354 30.8697 1.9155
-46.6354 51.4780 70.4770
-46.6354 -30.7764 -25.2616
-46.6354 36.4101 26.8186
-46.6354 -50.4048 -75.0545
-46.6354 5.8477 -14.7693
-46.6354 5.9854 -89.6009
-46.6354 19.2303 -15.3279
-46.6354 5.9875 -49.1239
-46.6354 40.3958 -87.2842
-46.6354 -12.9765 54.9238
-46.6354 40.6634 -56.4386
-46.6354 42.3935 -89.5857
-46.6354 -51.1664 10.8265
-46.6354 -32.0283 -42.7446
-46.6354 -28.6040 35.4286
-46.6354 -30.5183 -18.0248
-46.6354 -9.6677 6.9252
-46.6354 40.1356 38.8030
-46.6354 -50.0244 -14.9046
-46.6354 -52.1013 42.1723
-46.6354 29.9422 -46.6029
-46.6354 -31.9105 -40.9263
-46.6354 -13.6691 76.1344
-46.6354 31.1299 -1.7194
-46.6354 -41.4949 -61.1221
-46.6354 35.2919 81.8085
-46.6354 -16.2910 -32.6111
-46.6354 -22.9092 -26.4440
-46.6354 46.2139 -4.9443
-46.6354 20.0693 -81.1796
-46.6354 12.2506 12.7916
-46.6354 11.1835 16.3474
-46.6354 -21.2440 -68.4953
-46.6354 47.6017 -1.5924
-46.6354 15.2935 37.6254
-46.6354 15.7087 52.3553
-46.6354 26.4471 33.8703
-46.6354 -46.3928 88.4035
-46.6354 21.4204 -75.5072
-46.6354 -8.3926 64.5129
-46.6354 -8.7219 51.4511
-46.6354 -47.5719 -50.0927
-46.6354 5.4306 44.3490
-46.6354 0.4466 -30.3255
-46.6354 -28.0706 19.7247
-46.6354 7.3492 -68.0881
-46.6354 17.2410 45.3636
-46.6354 -30.8465 55.4033
-46.6354 -48.1591 -56.7128
-46.6354 3.2355 -21.0196
-46.6354 -35.8046 -83.4661
-46.6354 -33.5192 -73.3818
-46.6354 44.8284 -16.7275
-46.6354 0.8085 43.2770
-46.6354 21.8054 84.6514
-46.6354 49.7963 84.9471
-46.6354 5.7728 -66.6374
-46.6354 29.5566 50.8903
-30.9262 53.0854 -68.6221
-1.6720 53.0854 -31.1090
-45.4770 53.0854 34.7556
35.6544 53.0854 -66.8125
22.4568 53.0854 -68.6645
14.4689 53.0854 78.4372
-28.5559 53.0854 -54.5932
-26.3650 53.0854 -59.4401
17.3901 53.0854 -23.4179
30.0595 53.0854 67.2471
12.9883 53.0854 79.4074
26.4029 53.0854 -57.3960
-45.8696 53.0854 41.3584
-35.4850 53.0854 64.2329
26.5306 53.0854 -15.4680
41.0097 53.0854 -33.7297
35.9103 53.0854 55.4246
26.1006 53.0854 -65.7486
-22.7272 53.0854 -32.6582
38.8716 53.0854 -62.8642
28.8407 53.0854 87.2472
-22.4276 53.0854 12.4050
-8.7928 53.0854 23.8708
-42.0962 53.0854 -42.8614
45.9956 53.0854 -9.3317
37.2314 53.0854 -32.6650
-31.3282 53.0854 34.4808
13.1559 53.0854 -21.3704
12.3451 53.0854 82.4219
-34.6550 53.0854 24.2116
41.8534 53.0854 -73.3216
-8.7812 53.0854 20.7848
-34.5916 53.0854 0.3497
45.3175 53.0854 33.0513
17.1726 53.0854 20.5652
-18.0840 53.0854 23.6643
-5.4496 53.0854 -42.2888
-26.5766 53.0854 55.1627
46.4962 53.0854 53.9943
1.3646 53.0854 73.0464
23.0811 53.0854 -51.8008
-22.4169 53.0854 91.6602
16.8239 53.0854 17.1513
37.9821 53.0854 -17.5456
-1.2828 53.0854 26.5820
42.7169 53.0854 65.3699
25.9772 53.0854 91.3550
-35.2415 53.0854 -91.0391
-39.3885 53.0854 54.1231
-23.2919 53.0854 28.9239
-1.3870 53.0854 -75.9301
-24.6540 53.0854 64.5110
2.7727 53.0854 -30.6135
-42.3737 53.0854 -16.7148
-30.8861 53.0854 33.6554
-34.6420 53.0854 47.4703
25.8547 53.0854 -24.4372
-19.4461 53.0854 74.5885
13.3604 53.0854 -4.1880
15.4909 53.0854 -27.2958
29.2017 53.0854 -29.7784
-2.5671 53.0854 88.0032
-10.5035 53.0854 80.8101
6.2691 53.0854 -58.8231
5.9535 53.0854 -30.8528
45.0563 53.0854 -34.9792
39.3344 53.0854 19.4963
-8.0491 53.0854 -76.8788
-1.9285 53.0854 65.9621
36.4748 53.0854 -71.3018
-46.2354 53.0854 77.7294
31.3859 53.0854 -71.9831
9.7683 53.0854 -32.8634
45.9270 53.0854 26.2218
-0.6921 53.0854 91.6380
-10.5302 53.0854 74.0213
25.7843 53.0854 -43.9513
-28.2615 53.0854 -67.7114
38.8017 53.0854 64.0013
18.4422 53.0854 53.4995
-36.1466 53.0854 50.4571
19.9573 53.0854 -77.2161
34.2628 53.0854 -91.9403
-28.6590 53.0854 -6.7551
-37.0759 53.0854 68.6050
21.8339 53.0854 -49.5473
35.1655 53.0854 53.1215
-7.5521 53.0854 30.3213
0.5111 53.0854 -20.0600
5.5731 53.0854 -48.4379
-41.0008 53.0854 58.6957
27.0466 53.0854 79.3967
9.9232 53.0854 3.9671
-7.0403 53.0854 83.7779
6.4356 53.0854 49.7416
-31.4923 53.0854 -64.2926
-10.2984 53.0854 54.7797
-45.7835 53.0854 -6.5026
12.0302 53.0854 87.1267
-2.1563 53.0854 53.3519
-16.8198 53.0854 83.1563
-25.0808 53.0854 7.6811
-6.8051 53.0854 -55.0887
-43.9255 53.0854 -55.9448
33.9037 53.0854 41.1736
-18.3073 53.0854 58.6293
-41.3872 53.0854 38.4171
-5.1375 53.0854 -4.9058
-31.2496 53.0854 91.4004
16.3824 53.0854 28.6166
23.7524 53.0854 -9.9852
-1.1070 53.0854 6.2100
-37.5552 53.0854 66.3443
-29.2829 53.0854 69.0786
-36.6947 53.0854 18.1628
35.4752 53.0854 82.6816
29.6118 53.0854 6.6919
-26.3216 53.0854 -3.1124
29.9982 53.0854 -53.2394
15.6173 53.0854 -35.4819
-18.8275 53.0854 -9.7179
1.8191 53.0854 30.2304
-32.5838 53.0854 -51.1354
-36.9035 53.0854 48.8832
-21.0038 53.0854 -88.9605
31.6249 53.0854 -55.1308
-11.1532 53.0854 -53.2692
-18.6073 53.0854 -2.6561
18.7547 53.0854 58.8394
21.9413 53.0854 -13.7304
12.9779 53.0854 32.7621
-29.5116 53.0854 -83.1473
-24.2026 53.0854 91.3657
5.2145 53.0854 -90.8716
11.1077 53.0854 -84.9467
-21.1299 53.0854 72.5053
16.9405 53.0854 23.3852
-21.5027 53.0854 -29.3903
-26.8696 53.0854 76.8710
-18.4816 53.0854 13.1502
38.4410 53.0854 70.2742
-19.7856 53.0854 -16.0380
43.1072 53.0854 -61.9733
-5.7214 53.0854 -8.5536
17.2090 53.0854 70.4542
25.2006 53.0854 -12.9522
27.4334 53.0854 -76.9519
-19.2460 53.0854 34.9597
-33.5094 53.0854 -68.0027
36.0780 53.0854 -48.2104
16.5817 53.0854 30.6411
29.7892 53.0854 -56.8910
-25.4820 53.0854 -36.3072
-34.5951 53.0854 -33.2587
24.7505 53.0854 45.4995
-34.8580 53.0854 -25.7597
14.0869 53.0854 53.6935
-36.1310 53.0854 18.1967
26.8722 53.0854 -36.9612
-31.5266 53.0854 -84.1950
-11.1005 53.0854 -25.2054
-34.1673 53.0854 68.8424
-9.5253 53.0854 54.0574
28.1319 53.0854 21.7424
-28.4223 53.0854 60.6441
7.6516 53.0854 -20.3142
-31.9699 53.0854 -66.1052
-1.7279 53.0854 -40.6240
23.9563 53.0854 51.1584
9.5009 53.0854 85.2713
-12.2348 53.0854 61.3208
-8.8611 -53.0854 -67.2133
36.1998 -53.0854 29.1252
1.4591 -53.0854 84.1612
-16.5454 -53.0854 -8.1856
39.6937 -53.0854 -41.0700
-21.4929 -53.0854 42.0752
-18.0506 -53.0854 52.1685
33.3616 -53.0854 61.0838
-45.5036 -53.0854 -12.6325
-0.7410 -53.0854 78.8948
-26.8364 -53.0854 21.9589
-8.1753 -53.0854 15.5799
-39.4873 -53.0854 89.7207
24.5714 -53.0854 7.3497
-28.1170 -53.0854 50.6665
-40.8903 -53.0854 -0.9302
-9.1289 -53.0854 -61.9591
45.2708 -53.0854 -34.6510
19.0632 -53.0854 -78.6540
29.9496 -53.0854 55.7882
26.3960 -53.0854 -25.4965
43.5546 -53.0854 75.4454
1.5694 -53.0854 44.3585
-38.9965 -53.0854 34.9694
25.1955 -53.0854 -56.9886
38.7004 -53.0854 46.2603
-32.2810 -53.0854 -91.0611
33.8032 -53.0854 33.1158
-14.7735 -53.0854 53.2273
15.8256 -53.0854 -54.6903
-11.5345 -53.0854 -69.4876
24.2526 -53.0854 41.4955
-37.4706 -53.0854 46.6720
-18.2181 -53.0854 75.3836
29.2892 -53.0854 16.4908
23.4982 -53.0854 -70.5934
-9.6661 -53.0854 -73.1695
-11.3020 -53.0854 -59.8550
13.3726 -53.0854 -75.7076
-21.5731 -53.0854 9.1492
-9.4105 -53.0854 -45.3705
-32.4483 -53.0854 -44.5146
29.6177 -53.0854 88.9412
-34.1923 -53.0854 -50.5262
5.3369 -53.0854 58.8609
-4.9606 -53.0854 69.7852
-7.7014 -53.0854 41.5394
-29.5873 -53.0854 19.8423
2.1770 -53.0854 5.5246
-27.0026 -53.0854 -19.1305
28.2774 -53.0854 23.4948
-8.6506 -53.0854 74.5811
22.9030 -53.0854 3.9503
-11.1327 -53.0854 33.4958
-14.6411 -53.0854 -17.3662
0.8015 -53.0854 86.6309
30.3628 -53.0854 4.4741
31.6353 -53.0854 -51.7202
24.3700 -53.0854 -63.0359
39.8963 -53.0854 89.7687
17.3814 -53.0854 -89.8649
-29.5305 -53.0854 -45.3959
31.7572 -53.0854 1.6686
44.8257 -53.0854 26.3502
-14.6806 -53.0854 -51.6736
-41.8422 -53.0854 91.7724
-38.9399 -53.0854 25.0655
16.0921 -53.0854 80.0178
-30.3269 -53.0854 17.3041
-41.2581 -53.0854 56.3985
-5.0825 -53.0854 36.1841
11.2183 -53.0854 -4.2969
-0.0042 -53.0854 76.2777
11.8042 -53.0854 -69.6386
-5.5986 -53.0854 -38.1441
-44.0712 -53.0854 25.3480
38.3132 -53.0854 -75.5491
-45.0222 -53.0854 -21.3786
33.0006 -53.0854 56.6402
31.5662 -53.0854 61.1412
14.1081 -53.0854 -74.3694
-5.3053 -53.0854 -27.0909
26.0560 -53.0854 68.7685
-18.5815 -53.0854 -3.4101
-22.8861 -53.0854 -76.0806
42.2607 -53.0854 82.3222
-45.6683 -53.0854 87.6368
39.2883 -53.0854 60.3897
19.4222 -53.0854 26.2069
-36.0918 -53.0854 30.5466
-3.7706 -53.0854 21.3821
-39.7014 -53.0854 -41.3619
10.0080 -53.0854 11.4922
-8.4777 -53.0854 30.1262
-12.0225 -53.0854 -46.0480
20.2237 -53.0854 -89.1152
2.0601 -53.0854 -22.8606
31.0359 -53.0854 -70.1095
-8.7860 -53.0854 -41.6607
36.7043 -53.0854 54.2010
-34.0024 -53.0854 -37.0662
-17.6987 -53.0854 -85.8984
-15.1827 -53.0854 21.3855
-28.9894 -53.0854 -44.5195
-16.4861 -53.0854 -55.3806
19.3671 -53.0854 35.5560
-29.5571 -53.0854 15.4331
-27.5701 -53.0854 -72.5585
-9.8323 -53.0854 8.7305
-44.4853 -53.0854 -8.9576
-22.9171 -53.0854 25.0375
-7.3987 -53.0854 61.5500
21.8660 -53.0854 74.4301
15.1934 -53.0854 -57.8024
0.0576 -53.0854 77.8316
-16.7870 -53.0854 37.8440
7.2138 -53.0854 63.5976
-41.9959 -53.0854 39.3068
-18.3559 -53.0854 3.6189
8.2443 -53.0854 92.3437
5.8591 -53.0854 -59.0376
-4.3353 -53.0854 -73.7423
38.6236 -53.0854 -56.4811
4.3845 -53.0854 -22.7410
4.7412 -53.0854 15.3777
34.9374 -53.0854 26.7683
42.2379 -53.0854 22.8870
39.2535 -53.0854 -56.9108
24.5367 -53.0854 -73.2480
46.2570 -53.0854 -80.2259
-16.9840 -53.0854 1.5095
3.5137 -53.0854 28.7429
-6.3418 -53.0854 20.3932
30.3105 -53.0854 -2.7265
-28.9957 -53.0854 92.5299
-4.0340 -53.0854 82.4995
-26.4062 -53.0854 26.4106
43.0629 -53.0854 64.0116
11.9348 -53.0854 -74.2040
8.4111 -53.0854 47.6191
33.6595 -53.0854 -3.6003
-28.1202 -53.0854 -26.5633
-38.9820 -53.0854 11.1385
-25.4623 -53.0854 -64.9716
29.2211 -53.0854 -90.7819
18.9453 -53.0854 -29.6518
-41.8938 -53.0854 -58.0814
-7.8795 -53.0854 -77.6420
-25.2887 -53.0854 -13.7481
41.6682 -53.0854 -50.5658
37.5781 -53.0854 -22.3830
-24.3946 -53.0854 -21.2242
25.0932 -53.0854 -68.2785
25.8334 -53.0854 36.0278
-9.8898 -53.0854 87.0167
27.9861 -53.0854 55.7539
40.4060 -53.0854 -71.3591
28.8447 -53.0854 -28.3236
-13.6286 -53.0854 -20.4489
-16.2707 -53.0854 -19.0681
15.1665 -53.0854 71.0152
-10.3776 -53.0854 -69.7164
-34.3002 -53.0854 -44.6463
-18.8588 -53.0854 -28.8323
-6.7278 -53.0854 -70.3591
27.6453 -53.0854 -66.5421
-39.0190 -53.0854 -2.1326
0.8838 -53.0854 71.1062
-17.9900 -53.0854 70.5537
-38.7211 -53.0854 52.3640
31.8185 -53.0854 -39.6006
-6.8278 -34.5039 92.5399
16.4249 -42.9565 92.5399
-5.1978 -21.0558 92.5399
25.4086 -6.6242 92.5399
-34.6727 -16.4311 92.5399
7.8880 -42.3641 92.5399
1.3459 -4.2792 92.5399
-31.5184 -13.8162 92.5399
-42.9726 17.0271 92.5399
11.1707 -49.2455 92.5399
-21.3100 40.2058 92.5399
-27.7109 -39.9201 92.5399
38.9759 -35.6932 92.5399
40.0605 30.2801 92.5399
-41.8724 -32.1201 92.5399
-19.1831 -7.5053 92.5399
38.0548 27.9687 92.5399
17.7341 -2.7664 92.5399
32.1514 -27.5341 92.5399
46.2308 34.1473 92.5399
29.9722 -21.1726 92.5399
-5.2142 -23.0561 92.5399
45.4915 23.4338 92.5399
11.9679 -2.9588 92.5399
-29.5867 22.6065 92.5399
-28.5178 -21.4664 92.5399
-40.7657 -5.1464 92.5399
-1.4692 -28.3821 92.5399
8.8085 -33.0177 92.5399
-3.3778 26.8142 92.5399
-12.8483 33.9669 92.5399
-15.9153 10.4530 92.5399
14.4178 40.1654 92.5399
11.5702 10.4384 92.5399
34.7669 4.0344 92.5399
-3.5415 -40.9029 92.5399
-45.4527 -23.1434 92.5399
29.5310 30.6029 92.5399
-37.7306 -4.4149 92.5399
26.7969 42.6130 92.5399
-4.9913 42.0560 92.5399
21.4315 19.9296 92.5399
18.1810 -25.6060 92.5399
45.2741 11.9008 92.5399
-27.1304 15.9085 92.5399
28.7983 -38.9250 92.5399
-4.2948 17.5126 92.5399
39.5097 -3.8381 92.5399
-39.7482 -38.7057 92.5399
42.0826 -22.2300 92.5399
-37.2572 29.5946 92.5399
46.5623 -17.9583 92.5399
-43.3259 -38.5493 92.5399
-38.4391 0.1446 92.5399
7.4255 6.6080 92.5399
-28.3405 19.8994 92.5399
-39.6818 11.8703 92.5399
16.0490 6.9650 92.5399
-44.6273 20.0176 92.5399
-0.1526 36.3271 92.5399
25.4465 -14.9258 92.5399
21.0766 2.0442 92.5399
30.0949 2.1072 92.5399
-28.4485 -24.0197 92.5399
38.4989 49.5383 92.5399
15.4708 -38.6457 92.5399
29.8489 -21.4600 92.5399
19.5076 -38.8897 92.5399
-30.8603 49.6609 92.5399
5.8359 -43.8608 92.5399
-3.3648 -5.7023 92.5399
-10.6775 -47.7764 92.5399
13.4846 -24.6260 92.5399
10.4922 18.0005 92.5399
-2.6474 -38.2347 92.5399
5.4647 -34.1223 92.5399
-0.5202 -5.5347 92.5399
8.2661 24.2198 92.5399
-40.1180 -48.0253 92.5399
-40.8260 12.7190 92.5399
-24.8051 43.1222 92.5399
17.8971 -35.2667 92.5399
-10.0150 -6.0475 92.5399
-40.6435 -7.4200 92.5399
-22.8211 -20.4526 92.5399
46.2079 -4.0106 92.5399
6.2353 26.8450 92.5399
34.7280 -47.3023 92.5399
-43.4177 -46.9072 92.5399
43.5881 -23.8484 92.5399
14.5196 -52.9892 92.5399
-41.4789 41.0105 92.5399
-19.0324 2.1787 92.5399
-5.8601 20.4160 92.5399
-20.0522 48.5797 92.5399
28.3694 31.2252 92.5399
25.0569 -45.3474 92.5399
8.7257 -30.9667 92.5399
-19.6710 -10.9886 92.5399
3.0342 -14.4775 92.5399
28.6008 -18.2018 92.5399
28.3391 -33.1432 92.5399
-0.9234 48.2552 92.5399
2.8197 50.6545 92.5399
-23.3724 10.3145 92.5399
12.2307 42.5737 92.5399
20.1286 25.3862 92.5399
-40.2931 -14.2135 92.5399
-33.4415 -46.8119 92.5399
-29.5518 -26.7907 92.5399
9.2067 -32.4001 92.5399
-25.2452 6.1205 92.5399
22.5319 39.7573 92.5399
2.8307 31.7203 92.5399
3.7694 -52.5726 92.5399
7.0442 6.6951 92.5399
-22.4904 -9.3222 92.5399
-43.3036 31.5403 92.5399
25.9939 -45.4421 92.5399
39.4345 -22.8490 92.5399
-9.8089 -0.9047 92.5399
39.8471 -7.4787 92.5399
0.3766 34.8427 92.5399
-0.0092 -27.4995 92.5399
8.0657 1.9043 92.5399
40.8398 15.0996 92.5399
24.4772 -49.5042 92.5399
38.4365 -37.0621 92.5399
-40.4540 0.8567 92.5399
-5.0715 -33.7525 92.5399
33.2292 -40.5077 92.5399
-37.9855 0.3989 92.5399
10.7620 9.7280 92.5399
30.6512 -0.4293 92.5399
28.6694 6.4876 92.5399
-1.2066 37.1466 92.5399
37.9720 -23.2260 92.5399
-18.6371 1.7721 92.5399
22.2998 -10.0281 92.5399
28.4873 -31.2626 92.5399
40.3532 11.9386 92.5399
4.8505 16.9271 92.5399
-40.2856 -45.5311 92.5399
-23.1952 51.7180 92.5399
45.2624 -41.8729 92.5399
-16.4295 -19.5497 92.5399
2.8945 13.6789 92.5399
1.3805 -50.8105 92.5399
7.2155 -3.5377 92.5399
26.1405 -28.9135 92.5399
3.2290 24.6765 92.5399
31.8792 40.2927 92.5399
-30.7453 -41.2776 92.5399
22.6289 4.8028 92.5399
-15.7133 -5.6843 92.5399
-27.0926 3.6222 92.5399
15.9432 26.9346 92.5399
-34.4228 -39.1623 92.5399
43.8062 -2.1732 92.5399
37.8120 51.5446 92.5399
-20.1675 1.9332 92.5399
-33.2638 49.6451 92.5399
-11.0789 -36.7502 92.5399
-36.8450 30.8633 92.5399
-22.4535 6.6491 92.5399
-20.4698 26.3964 92.5399
-19.4133 23.3215 92.5399
45.2138 18.2874 92.5399
-38.3557 -18.3713 92.5399
16.1388 -11.5476 92.5399
-32.3748 8.2667 -92.5399
40.8863 20.3366 -92.5399
1.3450 -34.9709 -92.5399
-16.7838 -33.1914 -92.5399
6.5157 -27.0390 -92.5399
19.2569 51.4215 -92.5399
-12.2058 26.5934 -92.5399
30.6021 24.3935 -92.5399
20.1032 -16.6868 -92.5399
2.8814 -10.1569 -92.5399
-28.7133 11.2048 -92.5399
9.6079 45.5493 -92.5399
17.2176 -49.8128 -92.5399
-30.9560 31.4144 -92.5399
11.9956 36.7359 -92.5399
-26.2409 4.5208 -92.5399
-39.0702 15.0365 -92.5399
-9.6155 19.1768 -92.5399
31.8520 -0.1228 -92.5399
-31.3493 7.7552 -92.5399
4.3341 9.4462 -92.5399
-9.9292 38.2167 -92.5399
7.3105 22.5438 -92.5399
-10.1622 -30.8616 -92.5399
-9.6544 33.2141 -92.5399
37.3471 -6.7719 -92.5399
-24.8185 -14.8925 -92.5399
-37.0259 43.9633 -92.5399
-32.5774 50.3196 -92.5399
6.9046 47.8286 -92.5399
-41.0185 4.1075 -92.5399
27.6576 23.7945 -92.5399
35.4903 -31.0024 -92.5399
1.5745 31.1232 -92.5399
-38.2037 26.7746 -92.5399
-28.8209 53.0252 -92.5399
-39.9819 29.1685 -92.5399
15.8894 41.0261 -92.5399
5.6361 -15.0946 -92.5399
-37.4859 -5.5608 -92.5399
22.5907 32.7068 -92.5399
-10.5871 -49.0755 -92.5399
5.0228 -47.9873 -92.5399
22.1150 -9.7641 -92.5399
7.0738 -46.0047 -92.5399
-13.6403 -40.2486 -92.5399
15.0131 -19.3982 -92.5399
6.2884 -35.2980 -92.5399
41.6026 -17.5602 -92.5399
-9.0403 11.6893 -92.5399
-45.5362 -0.2144 -92.5399
-12.0670 5.6194 -92.5399
-38.6901 52.7198 -92.5399
35.3171 34.6002 -92.5399
32.2141 -37.0912 -92.5399
-20.3673 47.4663 -92.5399
-22.9908 -29.7475 -92.5399
-22.7136 -7.0133 -92.5399
32.6049 18.6376 -92.5399
17.1995 -35.6027 -92.5399
43.1623 -3.4090 -92.5399
-19.0675 -18.5272 -92.5399
-30.7048 -40.8198 -92.5399
33.6786 36.3922 -92.5399
-10.6557 47.7782 -92.5399
21.0286 7.6209 -92.5399
6.5561 -1.3010 -92.5399
-35.4744 29.1096 -92.5399
23.6442 -36.2473 -92.5399
7.9107 -38.6133 -92.5399
31.1286 31.3544 -92.5399
-26.2495 49.1197 -92.5399
34.6559 26.7882 -92.5399
-14.2288 44.5248 -92.5399
-11.4508 49.8511 -92.5399
-43.5857 -28.1556 -92.5399
-43.0304 -15.1691 -92.5399
2.6834 32.0894 -92.5399
32.3316 -10.7473 -92.5399
-20.8135 -26.7059 -92.5399
28.7380 -48.0334 -92.5399
-46.5441 -22.4862 -92.5399
-37.4873 32.0703 -92.5399
-32.5748 48.3130 -92.5399
46.3762 -49.4593 -92.5399
-23.4404 -9.6922 -92.5399
-1.6151 45.3847 -92.5399
-17.1025 -20.2572 -92.5399
38.3736 -18.7059 -92.5399
7.5278 11.0255 -92.5399
-38.3486 -39.7052 -92.5399
-11.4843 -36.2465 -92.5399
30.0689 -12.5999 -92.5399
-24.9992 48.2060 -92.5399
29.8762 -35.2149 -92.5399
38.9498 15.4312 -92.5399
41.3945 -38.0862 -92.5399
45.1832 -27.2729 -92.5399
41.2908 -42.7210 -92.5399
-22.6435 45.8269 -92.5399
-32.9919 -14.3390 -92.5399
-1.8128 -3.8774 -92.5399
-7.8659 42.9324 -92.5399
22.0250 -39.4243 -92.5399
-4.4968 -25.6479 -92.5399
2.8416 -26.7175 -92.5399
-9.6945 -25.1502 -92.5399
31.0342 29.8247 -92.5399
15.4379 43.4957 -92.5399
-35.0978 -52.4608 -92.5399
-2.6617 -27.5040 -92.5399
41.3426 41.3824 -92.5399
33.1872 16.1376 -92.5399
20.8790 -31.9677 -92.5399
-19.2058 -31.1479 -92.5399
6.0191 -39.2363 -92.5399
-22.4459 -11.4709 -92.5399
-26.4150 14.8329 -92.5399
-19.7791 7.3975 -92.5399
-36.0080 1.2412 -92.5399
35.2961 -32.4572 -92.5399
36.4735 -33.5493 -92.5399
-22.5206 -8.7081 -92.5399
-25.8870 48.8595 -92.5399
46.2659 2.9935 -92.5399
20.2906 -46.6704 -92.5399
-34.7857 8.8717 -92.5399
-21.0077 -16.1663 -92.5399
22.0280 2.8627 -92.5399
4.3889 -15.2239 -92.5399
-26.3262 10.5971 -92.5399
9.1837 -38.6652 -92.5399
40.0293 -51.1048 -92.5399
-22.8600 -26.4488 -92.5399
-28.9187 25.9749 -92.5399
-35.4526 22.7661 -92.5399
-10.3890 13.1437 -92.5399
14.8647 26.3654 -92.5399
-25.7858 -46.9964 -92.5399
-2.2453 -45.4892 -92.5399
-40.9976 -37.6078 -92.5399
-10.3885 26.9253 -92.5399
1.8807 22.2916 -92.5399
9.9086 27.8462 -92.5399
12.3742 44.0611 -92.5399
-17.7823 -7.2070 -92.5399
-24.8350 19.3598 -92.5399
36.2253 -6.3412 -92.5399
9.9066 0.8704 -92.5399
38.5725 -23.0057 -92.5399
28.5458 -42.6847 -92.5399
-25.9143 48.4680 -92.5399
1.6806 -22.8133 -92.5399
-38.6520 -7.1685 -92.5399
10.9269 -11.3064 -92.5399
25.7084 -16.0679 -92.5399
3.5651 15.1272 -92.5399
40.6766 -28.0075 -92.5399
-8.3315 -10.6244 -92.5399
-20.2271 0.0728 -92.5399
-8.0247 -12.0123 -92.5399
18.6275 50.2303 -92.5399
26.1848 32.4608 -92.5399
25.1149 24.6107 -92.5399
30.0234 -50.6311 -92.5399
30.0862 19.5982 -92.5399
-33.8216 -0.5983 -92.5399
31.6341 -26.1665 -92.5399
-21.7805 -2.4692 -92.5399
32.7469 -7.4710 -92.5399
