ply
format ascii 1.0
element vertex 1024
property float x
property float y
property float z
end_header
56.3296 -48.2364 -25.4875
56.3296 -53.4292 -6.1531
56.3296 -51.9178 -14.5605
56.3296 16.9380 -28.6978
56.3296 -21.4807 18.3496
56.3296 17.6117 -31.4679
56.3296 5.1332 32.2911
56.3296 -36.4791 38.3016
56.3296 4.9795 -15.9676
56.3296 9.0899 16.8270
56.3296 -9.2426 -14.8065
56.3296 -7.0160 10.4121
56.3296 22.4268 -3.4848
56.3296 -17.2367 32.9219
56.3296 46.9840 -16.2629
56.3296 -56.4343 3.4163
56.3296 -54.6812 -10.9533
56.3296 43.9417 -27.3715
56.3296 -56.4769 -19.4741
56.3296 7.3092 -7.4236
56.3296 -19.8388 4.8694
56.3296 -54.8214 38.4334
56.3296 17.3904 41.1803
56.3296 -1.3404 11.7148
56.3296 29.4367 11.0338
56.3296 45.8036 6.8771
56.3296 -2.8443 26.1145
56.3296 37.7130 4.5164
56.3296 13.3973 -27.5087
56.3296 56.5474 -26.6229
56.3296 -1.6040 14.6838
56.3296 30.9514 -20.0324
56.3296 25.1725 -41.1891
56.3296 -14.8681 -15.5094
56.3296 -44.9254 -27.4810
56.3296 -20.7367 -39.8497
56.3296 -46.2134 18.6888
56.3296 -28.5114 1.2186
56.3296 -24.6985 -7.0506
56.3296 -15.1601 -16.1392
56.3296 -43.5946 16.1474
56.3296 -29.9736 -21.5948
56.3296 -45.4463 28.8295
56.3296 -35.9769 -1.9734
56.3296 -5.0320 18.4099
56.3296 44.5712 -7.4755
56.3296 -50.2103 -20.0204
56.3296 20.0705 -12.2142
56.3296 -29.4368 -14.6634
56.3296 -39.6770 36.6323
56.3296 -29.1233 38.3397
56.3296 18.2345 39.8373
56.3296 56.2701 0.5744
56.3296 20.1839 -31.3395
56.3296 31.0785 8.5697
56.3296 -41.3982 15.9032
56.3296 -9.1566 -24.2819
56.3296 31.2073 -13.3590
56.3296 -6.5983 20.5273
56.3296 -31.9718 -17.5136
56.3296 -47.1018 3.9144
56.3296 -26.0290 -34.7025
56.3296 -24.8260 3.2806
56.3296 49.8480 12.8227
56.3296 25.8593 -2.5680
56.3296 20.1423 17.7786
56.3296 35.7898 6.4267
56.3296 -7.6767 30.3213
56.3296 -9.3364 -28.9629
56.3296 -35.2443 11.2847
56.3296 22.1404 19.5407
56.3296 38.4551 39.7151
56.3296 -18.8440 41.3303
56.3296 -31.5291 -24.9141
56.3296 36.1479 -42.4899
56.3296 56.3685 -18.1195
56.3296 0.0180 -28.8182
56.3296 18.8097 2.7734
56.3296 17.3017 -16.2036
56.3296 -51.0584 32.5762
56.3296 16.8338 -18.3117
56.3296 4.5862 13.9401
56.3296 16.7533 41.0721
56.3296 -26.0993 20.0406
56.3296 18.3059 -39.8404
56.3296 40.7829 9.6320
56.3296 28.2583 18.6389
56.3296 -27.0001 15.1428
56.3296 -28.8520 15.6855
56.3296 23.0080 -33.5501
56.3296 -53.3202 27.5256
56.3296 -26.2460 24.6558
56.3296 18.8232 -6.6232
56.3296 -17.0600 1.5724
56.3296 -3.0481 19.5660
56.3296 -54.3844 -38.6298
56.3296 -34.4031 -36.8840
56.3296 -56.9224 -6.6707
56.3296 7.5037 1.9366
56.3296 -38.0229 3.5156
56.3296 -17.2862 31.9226
56.3296 -43.4611 -14.9286
56.3296 22.3808 8.7894
56.3296 42.8595 35.6723
56.3296 50.8223 2.1955
56.3296 42.2004 -36.8951
56.3296 -37.2277 24.5040
56.3296 13.4041 21.4281
56.3296 -37.3549 -30.9226
56.3296 34.7232 -34.1992
56.3296 57.6836 -26.1607
56.3296 43.4202 -40.1439
56.3296 -3.6385 8.3810
56.3296 -23.7638 30.8409
56.3296 56.1954 -18.4063
56.3296 -38.5343 -41.8874
56.3296 -40.6601 -4.5600
56.3296 -20.0310 -32.7621
56.3296 16.0397 -23.7960
56.3296 -2.2737 -10.3541
56.3296 -57.3606 -34.0488
56.3296 -15.3337 -14.6845
56.3296 2.3930 39.9661
56.3296 35.4715 -28.1656
56.3296 7.4422 8.0331
56.3296 26.2891 -23.4628
56.3296 21.4814 29.7315
56.3296 3.7271 -9.8406
56.3296 -31.2004 32.6384
56.3296 46.4753 10.4859
56.3296 -14.9925 25.2097
56.3296 52.0371 8.6788
56.3296 57.6606 38.5905
56.3296 13.4556 21.4168
56.3296 -43.2771 36.3628
56.3296 34.6290 -33.3561
56.3296 -39.7981 -0.5857
56.3296 20.1010 0.5825
56.3296 -10.1627 -36.3133
56.3296 26.9752 -5.3422
56.3296 1.9078 -39.6545
56.3296 47.5970 11.5142
56.3296 -56.8340 33.5592
56.3296 31.1278 12.2593
56.3296 3.5252 19.7304
56.3296 -14.0655 15.4642
56.3296 27.9975 20.0940
56.3296 7.0032 36.5728
56.3296 -55.4860 -36.8153
56.3296 40.9745 -42.9558
56.3296 15.2427 -1.0967
56.3296 -0.8009 13.6380
56.3296 -39.0112 -28.2331
56.3296 53.9923 23.5038
56.3296 -53.8748 -36.0837
56.3296 24.2773 5.9765
56.3296 -47.9066 -22.2638
56.3296 32.6216 -0.0687
56.3296 45.4937 14.7233
56.3296 -32.5395 -40.4970
56.3296 -56.6808 23.6470
56.3296 15.5236 9.1971
56.3296 8.1377 42.5224
56.3296 -54.9131 40.3172
56.3296 46.2810 19.2195
56.3296 53.3056 31.0110
56.3296 28.4138 -34.8350
56.3296 -31.8314 17.6156
56.3296 -26.3872 -18.0368
56.3296 -1.9673 42.5039
56.3296 -8.7052 24.2561
-56.3296 -38.4569 2.0088
-56.3296 24.4722 -15.1592
-56.3296 39.7593 26.7055
-56.3296 -52.9034 16.4945
-56.3296 32.8266 30.5941
-56.3296 -24.6592 -35.8857
-56.3296 53.5148 -1.4600
-56.3296 19.7353 -23.4978
-56.3296 -48.0736 21.9904
-56.3296 53.2846 33.3027
-56.3296 -7.8969 -38.6267
-56.3296 45.7966 -19.2827
-56.3296 31.2306 -7.9863
-56.3296 2.6862 -17.6823
-56.3296 -54.5969 6.8658
-56.3296 -12.3079 23.7721
-56.3296 29.2542 1.3926
-56.3296 -56.0277 -31.4435
-56.3296 -28.2314 -20.3704
-56.3296 39.2473 -0.5586
-56.3296 -56.0493 -11.8406
-56.3296 45.6416 16.0613
-56.3296 0.2319 -40.2826
-56.3296 -24.7829 -32.0661
-56.3296 -9.8103 11.3947
-56.3296 3.9601 -25.1793
-56.3296 6.3448 9.4937
-56.3296 -53.6695 -15.4778
-56.3296 -38.1605 -41.1550
-56.3296 56.4819 -28.5487
-56.3296 33.8897 2.5947
-56.3296 31.9025 -27.5684
-56.3296 56.8339 2.3877
-56.3296 -56.9516 -0.2119
-56.3296 -17.9853 24.2229
-56.3296 20.2699 2.2156
-56.3296 -53.0076 40.8864
-56.3296 -0.3588 -0.6704
-56.3296 54.3933 14.9576
-56.3296 13.0710 28.4243
-56.3296 55.4330 -4.9214
-56.3296 53.3587 41.9421
-56.3296 18.2948 -13.8582
-56.3296 -26.8894 -22.9794
-56.3296 -40.7827 -17.9899
-56.3296 -24.2687 -27.7387
-56.3296 37.6229 -1.0792
-56.3296 2.0492 -4.7295
-56.3296 49.6965 6.2722
-56.3296 -36.6350 -22.3036
-56.3296 36.7311 28.2759
-56.3296 -29.1620 41.1779
-56.3296 -47.3936 -40.3056
-56.3296 17.1306 -9.4051
-56.3296 -47.8820 -24.9172
-56.3296 10.0708 30.1524
-56.3296 20.2137 14.8591
-56.3296 36.3040 -16.3666
-56.3296 -51.3619 26.5036
-56.3296 -5.1344 -26.7855
-56.3296 -30.2849 3.0829
-56.3296 -14.9263 -40.3881
-56.3296 18.0093 -22.6002
-56.3296 -20.0495 -13.6883
-56.3296 19.5326 -30.2014
-56.3296 35.0772 29.3466
-56.3296 56.6578 -3.9268
-56.3296 38.2812 14.8103
-56.3296 34.2255 -20.9883
-56.3296 -10.8062 -33.9626
-56.3296 4.0748 -6.1756
-56.3296 -26.9312 -17.4122
-56.3296 -4.6448 -36.1000
-56.3296 40.4848 -29.1883
-56.3296 2.3625 -26.4121
-56.3296 -50.2307 19.1168
-56.3296 -31.5024 -4.7926
-56.3296 29.8239 5.0320
-56.3296 -35.6866 27.8330
-56.3296 -16.4645 -26.2356
-56.3296 -1.3823 -35.1479
-56.3296 -2.6161 -42.7422
-56.3296 38.8640 -37.6873
-56.3296 -46.8363 14.2894
-56.3296 16.3339 -20.9869
-56.3296 16.5267 -28.2961
-56.3296 -8.3873 -12.6496
-56.3296 1.8420 41.7946
-56.3296 0.9721 32.4442
-56.3296 55.3604 -14.5578
-56.3296 2.8149 -33.4539
-56.3296 35.4722 5.2449
-56.3296 -54.6262 -10.1016
-56.3296 4.8722 -13.3971
-56.3296 44.1329 7.6513
-56.3296 -19.9549 12.9090
-56.3296 -49.7932 40.3785
-56.3296 -49.8613 -4.1201
-56.3296 37.9833 -33.6927
-56.3296 7.2509 -17.2177
-56.3296 40.7141 36.1868
-56.3296 -8.7300 27.2161
-56.3296 -46.7774 -35.3295
-56.3296 20.0435 -14.5136
-56.3296 -3.1212 -25.6555
-56.3296 3.9889 25.8271
-56.3296 -24.6796 37.5354
-56.3296 -31.8968 -11.9644
-56.3296 18.8921 -15.4749
-56.3296 -48.3825 19.4184
-56.3296 -37.2889 16.1501
-56.3296 -48.4403 26.3312
-56.3296 47.1063 31.0342
-56.3296 28.7223 30.3459
-56.3296 36.8217 30.0237
-56.3296 21.8575 42.1349
-56.3296 -50.6033 35.4164
-56.3296 24.2095 22.9952
-56.3296 37.2167 -25.0976
-56.3296 -7.1833 -24.6311
-56.3296 57.2110 -26.4000
-56.3296 39.4677 -7.6473
-56.3296 -49.5131 -11.4111
-56.3296 0.3020 16.8638
-56.3296 -32.9759 0.5635
-56.3296 38.0269 -32.2104
-56.3296 17.7501 -31.6306
-56.3296 20.7001 -17.7257
-56.3296 40.6201 17.7862
-56.3296 -23.6336 10.1428
-56.3296 29.0983 31.3850
-56.3296 -12.5948 -28.6367
-56.3296 54.7580 -39.1727
-56.3296 26.0088 38.3564
-56.3296 -26.9377 41.1114
-56.3296 14.5804 -30.6403
-56.3296 -26.3707 38.2621
-56.3296 44.4450 33.8433
-56.3296 -28.8777 13.6939
-56.3296 -47.2486 42.4479
-56.3296 -43.0175 41.6414
-56.3296 38.3115 -33.7521
-56.3296 -48.5188 -23.2853
-56.3296 6.3615 25.6784
-56.3296 -14.4851 -34.9685
-56.3296 27.1354 -3.1048
-56.3296 -49.2758 -34.9471
-56.3296 7.9425 29.8812
-56.3296 -55.3487 22.8717
-56.3296 -5.4926 43.2023
-56.3296 -0.6599 -3.4005
-56.3296 -40.6233 -17.3224
-56.3296 24.8698 15.8319
-56.3296 49.9438 1.0684
-56.3296 35.0531 26.2886
-56.3296 32.8794 -8.8345
-56.3296 40.3134 8.8534
-56.3296 16.0458 -10.0667
-56.3296 -32.1593 35.3327
-56.3296 38.5293 -2.2693
-56.3296 51.0024 -43.3126
-56.3296 -1.7240 29.3537
-56.3296 -26.0357 -29.5587
-56.3296 -30.4835 30.9325
-56.3296 -21.0518 5.4748
-56.3296 -47.3576 -14.2692
-56.3296 -8.1030 3.7330
-56.3296 -50.9156 31.0865
-56.3296 56.4052 -3.4391
-56.3296 33.0414 42.0912
-56.3296 -0.6824 -29.7130
1.4160 57.6874 4.1844
-24.0581 57.6874 -28.7993
-53.7870 57.6874 -31.8689
-55.6785 57.6874 -4.6208
-22.5130 57.6874 -8.8115
-12.3322 57.6874 1.5165
-22.6020 57.6874 16.8893
-53.1542 57.6874 33.8954
19.1929 57.6874 8.8415
-56.0407 57.6874 -11.6538
-32.6588 57.6874 3.8918
45.4200 57.6874 10.3984
-35.9546 57.6874 -32.8832
-50.2076 57.6874 19.2525
51.3277 57.6874 -11.4288
-8.8500 57.6874 7.5585
-14.6177 57.6874 -11.9649
23.0170 57.6874 -36.0110
-56.0734 57.6874 -13.5146
10.0241 57.6874 31.9041
52.6987 57.6874 23.1523
-1.3482 57.6874 -12.6433
28.8555 57.6874 -16.4653
-17.5321 57.6874 -25.2489
15.3308 57.6874 17.3989
-46.2841 57.6874 -5.1709
45.0455 57.6874 4.6705
10.9566 57.6874 29.5464
25.2803 57.6874 -19.2485
0.9150 57.6874 10.1885
-52.4557 57.6874 -22.9866
44.9793 57.6874 -19.8826
-9.5867 57.6874 40.9535
3.6194 57.6874 2.6187
-5.9446 57.6874 14.0720
-13.4070 57.6874 28.7288
-0.6962 57.6874 -34.3299
48.9468 57.6874 -30.9782
45.4885 57.6874 22.5778
-41.2752 57.6874 -7.5729
6.2738 57.6874 -6.2395
20.2462 57.6874 31.9714
-38.3901 57.6874 -41.2947
1.1052 57.6874 19.5069
22.5464 57.6874 37.4745
10.1287 57.6874 8.2015
-37.9956 57.6874 -9.6201
-22.6097 57.6874 41.4750
2.1877 57.6874 15.3065
-22.5106 57.6874 6.7583
18.9176 57.6874 31.5439
51.2813 57.6874 1.5724
23.4386 57.6874 -10.2000
-33.3933 57.6874 -26.9110
-24.8781 57.6874 -16.6400
26.3679 57.6874 -3.8375
-55.4586 57.6874 -31.1955
43.5678 57.6874 12.2548
-52.1403 57.6874 -8.0373
22.0023 57.6874 30.4989
-21.3154 57.6874 25.8213
46.0529 57.6874 36.8653
-45.2481 57.6874 -1.7690
-8.2493 57.6874 3.1889
-45.1608 57.6874 0.4283
-32.6470 57.6874 16.8691
-38.8802 57.6874 -29.3884
-2.9546 57.6874 20.4032
-21.7445 57.6874 6.1982
-28.0798 57.6874 15.1716
50.9512 57.6874 -14.9868
-9.2392 57.6874 -33.6363
-30.0955 57.6874 9.8774
-52.7294 57.6874 14.7515
-20.8038 57.6874 0.0213
-18.3387 57.6874 -33.4005
44.7519 57.6874 20.3848
20.4444 57.6874 24.1269
-33.3659 57.6874 9.0146
17.2021 57.6874 40.9048
55.1642 57.6874 6.1740
-1.0919 57.6874 41.9087
50.0532 57.6874 18.8812
1.3205 57.6874 39.3719
50.4225 57.6874 -21.5424
-23.9874 57.6874 -31.6205
29.1684 57.6874 38.1508
46.6660 57.6874 17.4882
-41.3654 57.6874 43.4653
-16.4844 57.6874 31.0790
-47.8869 57.6874 -17.0044
-51.1515 57.6874 1.4359
4.6409 57.6874 9.9135
42.9003 57.6874 -35.6786
-9.2193 57.6874 31.9738
40.5074 57.6874 -18.1093
-15.0681 57.6874 -17.6886
10.5102 57.6874 6.0361
40.8837 57.6874 41.8628
27.2807 57.6874 18.0579
-39.4456 57.6874 -15.8081
-24.7520 57.6874 -11.1257
-35.6873 57.6874 5.9287
46.1609 57.6874 -21.5178
-22.9724 57.6874 -5.4503
-43.4513 57.6874 36.5355
40.6979 57.6874 38.3162
-38.8980 57.6874 -13.6231
0.6118 57.6874 15.9898
25.3750 57.6874 9.5854
-26.3137 57.6874 -30.4002
21.1087 57.6874 -12.8877
27.3992 57.6874 -32.1419
31.9862 57.6874 -25.8112
35.4321 57.6874 -5.7048
-35.8055 57.6874 -38.1355
30.5703 57.6874 -2.0610
-31.6525 57.6874 -37.7115
34.5698 57.6874 -11.1361
11.8329 57.6874 -33.6592
-24.2799 57.6874 -31.2804
-44.1728 57.6874 12.8060
-50.8019 57.6874 35.8761
11.7282 57.6874 -11.2925
50.2640 57.6874 -10.5337
-16.9795 57.6874 41.3894
-13.8255 57.6874 -8.9256
-3.1293 57.6874 29.2550
18.3787 57.6874 34.7054
-42.4875 57.6874 1.2692
12.7867 57.6874 20.3972
-31.7408 57.6874 -15.7618
46.9556 57.6874 27.3566
-40.5417 57.6874 6.1993
-9.4917 57.6874 21.6018
3.4261 57.6874 17.0953
23.9095 57.6874 -6.6108
53.0855 57.6874 -39.7920
-41.1093 57.6874 -13.3198
-12.1329 57.6874 -25.3437
36.6346 57.6874 -10.7402
-47.9479 57.6874 3.1304
-28.3388 57.6874 20.9542
43.0238 57.6874 -29.3653
6.6901 57.6874 -33.8195
-49.2811 57.6874 -39.7619
38.2448 57.6874 17.1799
-8.6894 57.6874 30.5633
42.3462 57.6874 0.3037
37.2038 57.6874 38.1813
18.4766 57.6874 5.9242
0.1078 57.6874 7.2558
30.0543 57.6874 2.8578
-54.1653 57.6874 -18.5456
1.5982 57.6874 6.8961
49.2250 57.6874 4.7250
8.9801 57.6874 3.1598
-20.9351 57.6874 -27.3776
52.7191 57.6874 -21.0647
45.6309 57.6874 -34.3267
7.9608 57.6874 -34.0937
1.2750 57.6874 -41.4311
25.4520 57.6874 -17.4502
-43.8139 57.6874 -16.4199
25.0068 57.6874 -32.7086
17.0441 57.6874 27.7333
24.4101 57.6874 22.4736
-5.3871 57.6874 15.4666
13.8169 57.6874 -13.1182
-31.4201 57.6874 -2.2726
24.7746 57.6874 -6.9042
9.0669 -57.6874 -4.7495
7.6207 -57.6874 3.4619
9.1018 -57.6874 24.5307
18.4717 -57.6874 -6.4814
-19.7640 -57.6874 11.9879
17.5255 -57.6874 39.5657
-8.0654 -57.6874 -21.6160
-41.3485 -57.6874 41.7365
37.4544 -57.6874 -39.1727
12.5286 -57.6874 9.6475
3.4967 -57.6874 16.3571
3.1954 -57.6874 37.3275
-15.7441 -57.6874 11.1857
47.0578 -57.6874 -13.4032
-17.3210 -57.6874 -33.3297
25.6740 -57.6874 37.5529
21.6042 -57.6874 -32.1282
-32.8857 -57.6874 12.7822
-46.1453 -57.6874 -39.2327
12.7078 -57.6874 6.3689
54.5240 -57.6874 -18.0746
16.3959 -57.6874 -43.2592
17.0384 -57.6874 28.7388
25.3017 -57.6874 -35.4522
33.4316 -57.6874 4.1876
5.4931 -57.6874 -3.5257
28.1326 -57.6874 -37.1177
-1.9988 -57.6874 -36.8158
-47.4791 -57.6874 35.1196
42.4144 -57.6874 34.8511
37.9415 -57.6874 32.0319
5.3044 -57.6874 -19.0716
46.4043 -57.6874 14.7988
27.6507 -57.6874 -11.7116
22.8053 -57.6874 6.2809
42.1952 -57.6874 2.5203
22.9555 -57.6874 -21.6515
52.9148 -57.6874 8.9776
-39.8838 -57.6874 2.8108
-28.3874 -57.6874 -15.1480
40.9807 -57.6874 -4.6002
-48.9533 -57.6874 39.2101
40.3500 -57.6874 -29.0178
-51.1964 -57.6874 -35.5673
47.2042 -57.6874 24.6036
-39.9084 -57.6874 41.9958
-39.2437 -57.6874 30.7366
-0.1662 -57.6874 -29.5362
-4.1709 -57.6874 33.2788
42.4663 -57.6874 -11.4240
10.2105 -57.6874 33.4378
-13.3268 -57.6874 -34.8307
15.0434 -57.6874 -35.4272
7.1111 -57.6874 29.9156
-10.0334 -57.6874 -7.5954
-53.5142 -57.6874 12.6348
-52.8809 -57.6874 -1.5980
32.6540 -57.6874 3.9703
-46.9721 -57.6874 18.3480
27.0697 -57.6874 14.8901
-24.3037 -57.6874 -32.7292
41.7693 -57.6874 -12.6510
-34.3901 -57.6874 19.4739
-6.8638 -57.6874 34.6769
33.5879 -57.6874 27.4657
-9.4167 -57.6874 37.7140
-15.8364 -57.6874 10.7622
-5.7498 -57.6874 38.5509
37.2688 -57.6874 -37.5999
-43.9560 -57.6874 2.6241
13.9652 -57.6874 -26.2066
39.9526 -57.6874 3.4646
26.5781 -57.6874 -36.0796
47.3744 -57.6874 39.1055
-29.9105 -57.6874 43.2392
-53.1780 -57.6874 -32.8671
22.4885 -57.6874 -20.3583
1.8919 -57.6874 -24.1295
51.9480 -57.6874 13.1011
-35.6404 -57.6874 17.3562
-8.8748 -57.6874 -31.9674
-25.7098 -57.6874 -13.1085
46.4575 -57.6874 36.1615
15.9448 -57.6874 8.7880
-13.0951 -57.6874 0.2198
-44.5517 -57.6874 5.7877
-41.8757 -57.6874 -17.0083
2.5434 -57.6874 5.8192
47.6573 -57.6874 5.6747
-38.3577 -57.6874 -28.6199
56.0043 -57.6874 -31.3596
-12.0219 -57.6874 36.8014
-39.4334 -57.6874 -30.5545
4.9954 -57.6874 33.1860
43.3624 -57.6874 25.1289
17.7053 -57.6874 -22.0228
7.4901 -57.6874 34.2833
-3.8538 -57.6874 -28.3213
-45.0367 -57.6874 15.9049
18.0629 -57.6874 36.7440
38.4810 -57.6874 27.9003
-34.3626 -57.6874 5.9273
-48.6636 -57.6874 26.7482
-21.1922 -57.6874 34.4416
-38.8964 -57.6874 11.2481
-21.9475 -57.6874 6.4535
-25.1769 -57.6874 -15.9145
7.7221 -57.6874 -27.2138
42.6510 -57.6874 30.4809
-39.5507 -57.6874 -25.6464
-9.9130 -57.6874 -2.4508
54.6244 -57.6874 17.8145
-48.3408 -57.6874 -31.2548
14.1581 -57.6874 18.3082
-0.0666 -57.6874 -4.0101
24.2141 -57.6874 38.6336
28.7085 -57.6874 -15.6859
-13.0016 -57.6874 0.7885
21.6697 -57.6874 -28.8826
-17.6604 -57.6874 21.8700
33.4211 -57.6874 35.8408
-11.6684 -57.6874 31.7576
-17.5222 -57.6874 15.5373
55.4409 -57.6874 26.5408
-34.4955 -57.6874 25.0963
-39.6350 -57.6874 29.7487
30.6496 -57.6874 -4.7280
-42.3081 -57.6874 -31.4447
-24.6223 -57.6874 -12.1810
-18.9073 -57.6874 19.0526
-49.9815 -57.6874 -20.1776
51.4499 -57.6874 -28.8457
-43.6056 -57.6874 -24.6008
-42.8794 -57.6874 24.6375
8.4232 -57.6874 11.3559
24.2390 -57.6874 -0.1464
-5.1312 -57.6874 -5.1725
32.3812 -57.6874 -20.6223
10.2439 -57.6874 32.5000
47.6013 -57.6874 -17.1106
-46.8357 -57.6874 14.5403
51.8581 -57.6874 -16.5018
30.7594 -57.6874 -24.8513
36.0826 -57.6874 13.5277
39.2814 -57.6874 -11.4994
7.2891 -57.6874 8.4020
-55.7853 -57.6874 -1.3463
-49.7732 -57.6874 -9.3632
-10.1194 -57.6874 41.4996
-12.5704 -57.6874 -11.9461
17.3514 -57.6874 19.2345
-11.9791 -57.6874 -41.6184
21.4598 -57.6874 38.7500
-44.9463 -57.6874 -4.0194
14.0986 -57.6874 36.6536
32.1524 -57.6874 -17.5870
31.1840 -57.6874 28.5125
-4.0640 -57.6874 8.8441
-4.6791 -57.6874 32.2867
-5.8953 -57.6874 -41.8057
-35.9376 -57.6874 1.9191
54.2847 -57.6874 -14.9962
6.7860 -57.6874 35.7690
-33.6399 -57.6874 19.1522
-7.2150 -57.6874 22.2027
23.5622 -57.6874 0.8816
20.6749 -57.6874 -9.0998
15.4880 -57.6874 -5.7462
4.3716 -57.6874 -32.0164
4.0816 -57.6874 -1.6851
5.0693 -57.6874 -21.5058
36.9339 -56.5212 43.5902
1.1810 -50.7521 43.5902
16.8808 53.1178 43.5902
51.8157 33.1721 43.5902
43.0150 6.1623 43.5902
15.5777 -51.0832 43.5902
-52.6545 -26.5949 43.5902
37.4429 16.7200 43.5902
-3.2250 -51.3688 43.5902
29.7730 5.5918 43.5902
-39.8891 46.8841 43.5902
-48.0024 1.3060 43.5902
24.7181 52.2480 43.5902
-24.5570 -53.7722 43.5902
22.9208 25.9912 43.5902
-15.4146 -55.6566 43.5902
-5.0653 41.0010 43.5902
11.8862 4.8524 43.5902
-5.1186 -47.0291 43.5902
13.4233 25.5245 43.5902
-48.8239 -40.2302 43.5902
44.2614 -42.4436 43.5902
39.6813 39.7369 43.5902
-30.3766 13.2597 43.5902
12.1502 42.7590 43.5902
-29.6613 50.6519 43.5902
5.7816 -53.4586 43.5902
-9.1602 39.5668 43.5902
47.3806 0.0920 43.5902
21.2469 21.0507 43.5902
41.0994 37.4466 43.5902
-53.4073 12.9163 43.5902
-40.4702 11.9754 43.5902
39.4474 30.5284 43.5902
-35.4629 -12.7527 43.5902
32.7673 6.7592 43.5902
-45.8621 53.1449 43.5902
43.8600 28.0650 43.5902
36.6534 -25.0779 43.5902
-27.7875 57.5881 43.5902
-12.7114 -14.4741 43.5902
-39.2102 -24.9301 43.5902
28.0006 27.1353 43.5902
14.6470 0.5463 43.5902
-23.6368 23.1124 43.5902
-3.1368 4.6151 43.5902
-34.4354 23.5766 43.5902
-30.0710 -33.6955 43.5902
-38.2204 -6.4015 43.5902
44.8569 -4.5805 43.5902
0.2163 -15.0196 43.5902
48.5918 9.4007 43.5902
-55.1346 23.6031 43.5902
-13.5757 -2.8691 43.5902
-26.5597 53.0391 43.5902
-5.2533 8.6294 43.5902
23.9799 -0.0680 43.5902
48.7226 -51.6274 43.5902
-53.0609 -9.7915 43.5902
6.9608 31.9830 43.5902
17.5555 -2.1483 43.5902
31.1035 53.1525 43.5902
13.1856 -14.0436 43.5902
-19.9759 49.9698 43.5902
42.2342 20.1806 43.5902
-53.5762 56.4170 43.5902
-34.1465 52.9058 43.5902
-31.8676 6.1547 43.5902
-21.2109 12.0967 43.5902
17.9952 -17.5899 43.5902
-5.8944 -14.2751 43.5902
-18.1211 -35.4653 43.5902
25.1587 55.8503 43.5902
15.0441 -28.4506 43.5902
22.1009 -30.5243 43.5902
-55.7895 53.8881 43.5902
-26.9172 -43.0401 43.5902
47.9562 -7.5296 43.5902
-36.1344 9.5649 43.5902
-25.5934 44.8858 43.5902
-23.5331 -4.1656 43.5902
-9.3933 0.9835 43.5902
-43.4104 18.2164 43.5902
-20.8449 -32.2575 43.5902
50.6326 44.7602 43.5902
-56.2228 16.7506 43.5902
1.8252 -20.0350 43.5902
23.1968 -24.9907 43.5902
-5.0912 -12.9750 43.5902
54.0499 -51.8646 43.5902
25.6827 30.2099 43.5902
46.7144 -38.0146 43.5902
-30.0955 6.1073 43.5902
-3.6248 -56.5694 43.5902
23.4833 44.2369 43.5902
-37.9700 24.4316 43.5902
5.6529 -44.5992 43.5902
20.7300 0.4265 43.5902
10.2927 -19.9599 43.5902
-23.2970 -40.8560 43.5902
-54.2647 26.7889 43.5902
-15.8990 -23.2405 43.5902
-3.1877 -18.7996 43.5902
43.8815 56.4003 43.5902
-17.5108 27.8247 43.5902
-34.5380 8.2638 43.5902
-3.9806 -18.7058 43.5902
54.1676 51.6207 43.5902
-27.5070 -1.7664 43.5902
-29.3456 37.7036 43.5902
-14.5618 -30.2808 43.5902
0.2936 7.2363 43.5902
22.7423 53.3866 43.5902
18.2497 -4.9446 43.5902
33.3352 -16.1551 43.5902
14.0947 -2.6893 43.5902
32.6365 -3.9164 43.5902
28.9616 13.1646 43.5902
-53.1149 -36.2156 43.5902
-22.8732 57.4649 43.5902
46.9930 46.1907 43.5902
-4.0169 -22.8058 43.5902
13.0060 -34.9683 43.5902
29.8263 32.3362 43.5902
51.3723 8.0925 43.5902
-19.4332 30.5964 43.5902
-39.7987 -46.9048 43.5902
31.9588 21.4349 43.5902
-35.6442 -32.9103 43.5902
-11.5524 -40.9286 43.5902
13.5618 -32.0267 43.5902
-39.6442 39.4913 43.5902
32.6134 26.7514 43.5902
13.4177 51.0986 43.5902
-39.8828 57.3803 43.5902
24.0769 14.7891 43.5902
-5.6793 47.4164 43.5902
-39.5235 31.2112 43.5902
-54.5005 -21.5171 43.5902
-2.8311 -16.5097 43.5902
-25.5579 46.4689 43.5902
7.3384 34.5822 43.5902
8.1660 52.3648 43.5902
-33.1203 -46.9805 43.5902
45.9405 -55.2464 43.5902
-6.8355 16.5553 43.5902
-4.0582 -1.9282 43.5902
35.4791 11.9425 43.5902
-51.5050 23.7658 43.5902
37.5962 36.2599 43.5902
-20.0573 -32.9741 43.5902
41.0373 22.2718 43.5902
42.0977 36.3887 43.5902
-13.9793 7.0089 43.5902
50.3727 -0.4944 43.5902
-36.8947 -50.7052 43.5902
18.1503 31.8712 43.5902
-50.8603 38.9878 43.5902
16.0695 -23.8955 43.5902
53.7140 -13.9187 43.5902
-37.6618 -8.7219 43.5902
27.6988 -47.1520 43.5902
18.2564 -37.9703 43.5902
-35.9104 40.9023 43.5902
-28.2636 20.7223 43.5902
10.2207 8.8936 43.5902
56.0596 53.8169 43.5902
23.3518 4.8070 43.5902
0.3307 1.7650 43.5902
9.9132 38.5988 43.5902
17.0505 18.0919 -43.5902
2.8596 -3.1642 -43.5902
14.4248 -0.5247 -43.5902
48.7010 -14.2283 -43.5902
-38.2733 0.7060 -43.5902
-3.7521 6.8868 -43.5902
-24.0375 -14.1294 -43.5902
-9.2478 -36.8270 -43.5902
54.7389 -31.7091 -43.5902
18.9605 10.6260 -43.5902
23.1505 -40.6822 -43.5902
-27.2092 19.6137 -43.5902
5.3455 -35.1418 -43.5902
10.1610 26.2073 -43.5902
3.4515 51.1407 -43.5902
-10.8593 2.9190 -43.5902
4.8939 8.5390 -43.5902
48.2696 9.5591 -43.5902
-12.9369 53.4935 -43.5902
34.7568 49.6490 -43.5902
52.7685 2.6877 -43.5902
47.9798 35.6089 -43.5902
-13.3515 -49.8763 -43.5902
4.3830 37.7258 -43.5902
4.1386 54.3107 -43.5902
-37.7563 32.0803 -43.5902
-29.9711 -17.1776 -43.5902
-9.8257 34.0244 -43.5902
27.7696 45.6914 -43.5902
-22.0224 -46.1515 -43.5902
23.7978 22.8989 -43.5902
49.7002 5.5577 -43.5902
-43.4717 -33.7817 -43.5902
34.1462 54.5386 -43.5902
8.8864 -18.5803 -43.5902
-26.2838 -46.8701 -43.5902
11.3936 31.8833 -43.5902
0.2245 -32.2450 -43.5902
10.5107 38.2607 -43.5902
0.9376 2.8177 -43.5902
35.9019 -44.8546 -43.5902
-26.4132 -21.4550 -43.5902
-0.7156 -47.6230 -43.5902
-13.5633 -31.2127 -43.5902
48.2412 41.3105 -43.5902
-47.5984 -1.4132 -43.5902
29.3477 13.1883 -43.5902
0.6285 32.0651 -43.5902
51.0127 26.1072 -43.5902
18.9178 -7.7607 -43.5902
-56.1761 -41.6721 -43.5902
-15.8900 24.4045 -43.5902
-40.5103 57.1518 -43.5902
-20.4017 -18.5949 -43.5902
35.4093 23.9549 -43.5902
-17.9026 53.2033 -43.5902
45.7548 -47.8534 -43.5902
-9.1777 45.1417 -43.5902
-9.0293 -57.0346 -43.5902
44.5277 -44.7167 -43.5902
21.8314 -22.7537 -43.5902
47.1216 -22.4087 -43.5902
22.5456 51.1773 -43.5902
-12.4331 -56.3603 -43.5902
-44.6699 8.9388 -43.5902
49.8809 -2.1383 -43.5902
44.2607 15.7568 -43.5902
-27.2972 20.1999 -43.5902
14.1444 49.1157 -43.5902
15.2766 29.3934 -43.5902
-22.7770 -33.4825 -43.5902
46.7183 -27.4549 -43.5902
-38.9512 34.2910 -43.5902
12.4938 6.8346 -43.5902
30.9062 43.3145 -43.5902
-11.0140 -8.0840 -43.5902
9.8856 -19.5886 -43.5902
-33.1221 11.0221 -43.5902
-5.8840 40.7046 -43.5902
27.0372 -34.1578 -43.5902
-34.0482 -29.5183 -43.5902
44.7013 16.9752 -43.5902
40.6592 57.3086 -43.5902
36.0137 -45.3608 -43.5902
16.3581 22.3010 -43.5902
-5.8745 11.8798 -43.5902
-33.9910 -47.7615 -43.5902
-13.1281 38.9455 -43.5902
29.8270 11.5123 -43.5902
17.3612 -36.6513 -43.5902
-42.8013 -38.5727 -43.5902
34.2056 22.5006 -43.5902
46.7414 -57.2409 -43.5902
0.8801 -2.1896 -43.5902
-31.4853 20.5477 -43.5902
-40.4362 -23.2158 -43.5902
52.3361 13.1853 -43.5902
-33.6155 20.1711 -43.5902
48.9574 -16.9839 -43.5902
-31.1393 56.9457 -43.5902
-50.2967 -53.6275 -43.5902
-44.8767 -43.0116 -43.5902
-50.7845 6.6403 -43.5902
33.7285 49.2503 -43.5902
16.5902 -23.3287 -43.5902
39.8244 56.0369 -43.5902
-17.0768 -28.3979 -43.5902
53.0096 47.4662 -43.5902
15.8198 -8.7665 -43.5902
-43.2565 -53.1292 -43.5902
54.7414 10.6606 -43.5902
22.5395 -47.7192 -43.5902
3.4669 -51.3818 -43.5902
-19.6954 52.2750 -43.5902
44.2109 33.5323 -43.5902
47.6085 -30.6046 -43.5902
-21.4148 24.2897 -43.5902
55.5146 0.7475 -43.5902
8.4764 -22.4605 -43.5902
-29.0687 -56.8003 -43.5902
-3.0512 -57.4475 -43.5902
16.7034 35.4553 -43.5902
7.7779 -24.0558 -43.5902
-39.6719 29.7441 -43.5902
-3.5419 50.7636 -43.5902
-31.8010 40.5082 -43.5902
-53.8581 53.8569 -43.5902
41.6333 -0.7527 -43.5902
-39.9435 -47.8509 -43.5902
11.5448 6.4666 -43.5902
-11.1605 30.9696 -43.5902
55.9415 -9.6483 -43.5902
1.0472 -32.6905 -43.5902
40.7849 34.0934 -43.5902
10.4986 -3.0898 -43.5902
13.7043 29.0783 -43.5902
-47.9187 -20.4780 -43.5902
-37.8606 -48.3136 -43.5902
23.7028 57.5509 -43.5902
38.0598 -8.6816 -43.5902
-30.0750 1.9152 -43.5902
-14.9288 -38.5259 -43.5902
34.5387 -53.2851 -43.5902
-30.4792 10.7561 -43.5902
39.6068 43.3569 -43.5902
36.4923 32.9340 -43.5902
-19.7988 48.7604 -43.5902
-26.2084 -7.2605 -43.5902
48.0379 -47.6185 -43.5902
47.4984 -33.7311 -43.5902
49.2781 -21.3387 -43.5902
-15.3904 55.9326 -43.5902
-40.0792 56.9339 -43.5902
-28.0638 -45.4507 -43.5902
-42.8366 -42.4461 -43.5902
-27.3632 10.6345 -43.5902
32.9919 13.3921 -43.5902
-23.1582 -41.3937 -43.5902
21.6829 -45.7046 -43.5902
-33.7178 -22.7800 -43.5902
40.1953 47.1543 -43.5902
31.3698 27.7664 -43.5902
26.8384 19.8140 -43.5902
-41.8994 47.8465 -43.5902
24.6322 -29.4845 -43.5902
-34.8602 3.2833 -43.5902
11.2650 2.0036 -43.5902
-50.3323 -32.1495 -43.5902
10.3659 8.4083 -43.5902
39.2410 -50.6722 -43.5902
