ply
format ascii 1.0
element vertex 1024
property float x
property float y
property float z
end_header
86.7902 18.4097 -14.7782
86.7902 40.4418 33.9191
86.7902 68.1107 4.8132
86.7902 64.3540 1.1628
86.7902 -21.7759 32.0963
86.7902 2.8600 27.5235
86.7902 84.4536 6.6745
86.7902 2.6795 10.2182
86.7902 -88.3816 -12.7804
86.7902 42.7797 16.8179
86.7902 -62.7646 7.2666
86.7902 91.0195 -0.1480
86.7902 -79.7495 32.7452
86.7902 5.6904 25.7797
86.7902 -18.5064 -34.5723
86.7902 1.4406 21.4164
86.7902 75.4809 -18.5812
86.7902 49.9929 -11.9738
86.7902 -35.1048 2.2594
86.7902 -41.2622 5.1839
86.7902 40.9674 -9.0377
86.7902 25.2643 -32.5901
86.7902 -40.2594 -32.0016
86.7902 73.4324 -21.6658
86.7902 -45.7087 -9.7750
86.7902 70.3262 10.6555
86.7902 4.8330 14.7712
86.7902 -60.0299 3.8746
86.7902 81.0063 2.8084
86.7902 9.9430 10.4280
86.7902 50.6498 6.5097
86.7902 -44.4728 -18.5595
86.7902 -80.7948 -33.9284
86.7902 25.8664 -14.4397
86.7902 44.5227 30.8525
86.7902 -44.1389 10.4307
86.7902 46.4313 2.3065
86.7902 -50.1940 30.9444
86.7902 22.8027 29.3283
86.7902 49.0985 25.4540
86.7902 29.1084 28.0037
86.7902 15.4303 -21.3072
86.7902 48.7023 19.5620
86.7902 5.9898 -5.1303
86.7902 48.7148 -35.1347
86.7902 24.4824 -24.6567
86.7902 -33.2922 -2.7472
86.7902 46.2750 -13.1500
86.7902 80.5156 -32.0630
86.7902 -27.0777 3.4259
86.7902 -11.7170 0.4842
86.7902 -5.3291 -8.9717
86.7902 20.5008 24.8429
86.7902 88.9329 19.5600
86.7902 -60.6951 -2.4899
86.7902 88.0674 -3.1153
86.7902 66.0116 -22.6040
86.7902 32.3157 13.0039
86.7902 -23.4412 3.4227
86.7902 57.6950 30.8118
86.7902 2.5761 -22.6977
86.7902 90.8332 -29.3756
86.7902 -61.2242 34.8248
86.7902 83.4796 4.1007
86.7902 -18.3230 -5.7893
86.7902 5.1867 15.6419
86.7902 -73.6949 0.1047
86.7902 51.0300 -23.2620
86.7902 39.0435 -19.5244
86.7902 -33.3098 -19.4953
86.7902 45.7248 34.0067
86.7902 -40.5779 12.0946
86.7902 20.0839 28.2083
86.7902 -68.1854 -11.2272
86.7902 -53.4289 -6.6055
86.7902 -59.8221 32.5655
86.7902 17.3083 35.6049
86.7902 -45.9779 10.0804
86.7902 -70.3069 -15.6780
86.7902 48.7141 -3.0372
86.7902 29.0157 -5.7931
86.7902 19.4490 30.0941
86.7902 -84.4553 33.7572
86.7902 21.8626 -29.7987
86.7902 13.6454 8.1129
86.7902 -44.9383 -33.9089
86.7902 -41.9968 -29.4892
86.7902 -41.6612 -28.7653
86.7902 51.0621 -28.6602
86.7902 51.7154 -23.0554
86.7902 81.6365 1.5602
86.7902 -75.8157 -11.3164
86.7902 -48.4887 28.7164
86.7902 76.4631 -16.7799
86.7902 -84.1118 -3.9022
86.7902 -23.0552 3.1364
86.7902 41.0953 16.2836
86.7902 9.2307 23.5780
86.7902 44.1798 -13.1308
86.7902 -51.4499 14.5775
86.7902 49.2184 -33.7940
86.7902 82.3485 -26.6545
86.7902 4.0251 16.5566
86.7902 22.8465 8.8100
86.7902 75.0658 23.5761
86.7902 26.7615 20.7590
86.7902 10.6948 -5.0115
86.7902 80.7066 1.1851
86.7902 -36.0432 28.0877
86.7902 64.9290 -34.2681
86.7902 34.5292 -12.6680
86.7902 -19.3250 35.7302
86.7902 57.0955 30.7366
86.7902 -44.7352 -30.7050
86.7902 61.1241 14.7426
86.7902 -1.4568 -12.0958
86.7902 64.7980 26.5077
86.7902 -40.7172 19.1415
86.7902 41.6376 4.0541
86.7902 -68.9375 -25.8534
86.7902 -68.5453 20.9493
86.7902 42.7768 -12.4426
86.7902 -69.7376 10.1770
86.7902 -86.8516 -3.5462
86.7902 70.8517 31.7748
86.7902 0.9248 -16.0060
86.7902 -16.4196 6.9148
86.7902 -65.5529 5.2884
86.7902 -74.1134 -13.0010
86.7902 -27.0021 16.5225
86.7902 42.4083 1.4384
86.7902 11.3448 -1.9917
86.7902 -34.0560 -9.9453
86.7902 -14.6826 -15.8053
86.7902 -40.3959 -11.6331
86.7902 -70.0811 -22.5649
86.7902 -2.8427 -19.7011
86.7902 71.2236 -3.3881
86.7902 -14.1492 13.9640
86.7902 85.6742 28.8030
86.7902 42.4755 35.2015
86.7902 42.2262 -35.2669
86.7902 -1.1310 34.9681
86.7902 34.0023 11.5489
86.7902 -46.1127 29.9242
86.7902 -37.3399 28.9563
86.7902 30.2164 23.2685
86.7902 7.2201 -19.6483
86.7902 30.9783 16.3163
86.7902 -6.2431 -8.4395
86.7902 63.0494 28.2353
86.7902 90.1274 -35.3538
86.7902 77.2163 26.5631
86.7902 -56.0492 -23.5991
86.7902 -89.4321 -23.9513
86.7902 -35.6438 7.6453
86.7902 22.5276 11.5453
86.7902 -78.4732 9.1897
86.7902 23.4556 -1.6896
86.7902 -46.4945 18.2859
86.7902 -62.9796 -3.8037
86.7902 -69.3070 4.8490
86.7902 24.9158 28.4263
86.7902 24.3349 -31.4801
86.7902 13.2968 -22.3726
86.7902 74.7718 30.2717
86.7902 -16.1713 -2.1229
86.7902 -14.7774 -15.4308
86.7902 -63.0047 -20.5962
86.7902 77.9146 -35.3012
86.7902 33.5342 -34.2720
-86.7902 49.8397 -34.0775
-86.7902 -2.7765 14.9987
-86.7902 -47.7987 8.4846
-86.7902 74.3901 -14.9761
-86.7902 -64.1531 27.0587
-86.7902 25.5333 4.5911
-86.7902 -28.1973 -25.5145
-86.7902 49.7179 20.6674
-86.7902 -64.7208 0.0581
-86.7902 72.8184 -33.8294
-86.7902 58.6409 12.9664
-86.7902 49.5363 -22.4151
-86.7902 -83.7823 18.1678
-86.7902 -76.0734 -12.2304
-86.7902 -52.3604 -11.9034
-86.7902 70.8066 18.2590
-86.7902 -46.7196 22.7421
-86.7902 -22.2872 17.7828
-86.7902 -71.9390 22.7710
-86.7902 66.9506 33.9502
-86.7902 49.0464 -5.1078
-86.7902 38.3490 -25.0772
-86.7902 6.1921 10.8638
-86.7902 88.8859 23.3425
-86.7902 34.1874 19.3825
-86.7902 -11.1444 -17.1965
-86.7902 22.0300 -28.9034
-86.7902 29.5362 27.6385
-86.7902 17.2223 -12.7057
-86.7902 -49.8522 -31.9038
-86.7902 -28.4078 -25.0094
-86.7902 74.9242 21.5796
-86.7902 12.9878 -18.7552
-86.7902 66.8252 26.5050
-86.7902 -35.7332 16.9751
-86.7902 -14.9589 -30.8958
-86.7902 83.7870 10.5177
-86.7902 -88.2686 -35.4403
-86.7902 -67.6163 -13.4342
-86.7902 47.1423 17.1648
-86.7902 75.2099 17.2151
-86.7902 60.9144 16.9828
-86.7902 -77.6610 -0.8585
-86.7902 -26.7910 -22.5575
-86.7902 -67.8689 -14.9285
-86.7902 -69.5697 17.6424
-86.7902 -1.3263 3.2374
-86.7902 -78.0594 -31.0672
-86.7902 25.0547 8.5834
-86.7902 -77.7746 -5.1555
-86.7902 29.1703 -11.8496
-86.7902 59.3848 -20.5787
-86.7902 -13.3115 28.0417
-86.7902 28.8156 -31.0119
-86.7902 -88.0929 -18.0604
-86.7902 16.0563 12.4007
-86.7902 -59.0888 -6.7344
-86.7902 -85.2494 35.0491
-86.7902 -53.2072 20.9460
-86.7902 15.0858 -26.8447
-86.7902 -24.6302 23.1230
-86.7902 44.2898 -19.1211
-86.7902 -29.0852 26.7154
-86.7902 -75.0120 9.0812
-86.7902 -55.4573 28.4915
-86.7902 -20.2606 -27.1060
-86.7902 -75.4239 -28.1324
-86.7902 16.4881 -3.2573
-86.7902 7.5149 -2.6673
-86.7902 75.6101 -0.5850
-86.7902 12.5985 21.0673
-86.7902 84.2139 -14.9252
-86.7902 76.6396 20.5132
-86.7902 -42.9150 27.5410
-86.7902 -51.3733 -24.8649
-86.7902 -33.7597 34.3830
-86.7902 51.9688 26.2099
-86.7902 -40.0904 -33.8466
-86.7902 47.3958 13.6030
-86.7902 86.2218 26.8709
-86.7902 88.6624 0.0685
-86.7902 55.4029 23.0923
-86.7902 65.9787 3.3013
-86.7902 67.2018 -5.5675
-86.7902 29.0164 -23.6632
-86.7902 84.9146 5.6848
-86.7902 -51.6206 15.8120
-86.7902 -39.4279 -4.2587
-86.7902 13.1647 14.2000
-86.7902 -26.2364 1.5343
-86.7902 -34.0045 -28.5149
-86.7902 -71.8322 15.0501
-86.7902 -17.9862 -32.2427
-86.7902 30.5337 19.3279
-86.7902 -46.7301 -24.9233
-86.7902 -34.6253 -28.2898
-86.7902 -31.1258 5.0610
-86.7902 -72.5490 30.5260
-86.7902 -66.8585 -5.3364
-86.7902 49.7709 -2.1093
-86.7902 84.0109 12.8029
-86.7902 39.9771 -24.8265
-86.7902 36.3408 23.2172
-86.7902 60.3736 -18.6934
-86.7902 -25.7794 3.1817
-86.7902 4.6255 -11.1604
-86.7902 24.8622 -20.0369
-86.7902 -85.7843 -27.7191
-86.7902 -43.8324 -32.1118
-86.7902 -51.2590 -24.5359
-86.7902 -28.3180 19.2689
-86.7902 -52.4959 12.6096
-86.7902 -65.3671 16.5780
-86.7902 -36.1652 -28.0844
-86.7902 35.5471 31.4512
-86.7902 21.5681 7.4026
-86.7902 -54.7155 23.1212
-86.7902 13.3327 -11.2054
-86.7902 50.8503 -2.4564
-86.7902 67.0861 6.5807
-86.7902 -69.0963 3.8670
-86.7902 67.6829 -30.6052
-86.7902 -76.7454 13.8683
-86.7902 15.5643 32.2155
-86.7902 25.3276 2.8223
-86.7902 -71.7694 5.5046
-86.7902 -80.8736 -18.6004
-86.7902 27.3801 -20.8677
-86.7902 61.6772 17.3797
-86.7902 32.6735 -12.5287
-86.7902 71.5902 13.1524
-86.7902 -88.1013 -14.6817
-86.7902 1.7427 1.6108
-86.7902 1.1682 18.1267
-86.7902 -89.9124 23.5857
-86.7902 -33.5047 0.8183
-86.7902 -7.9819 -8.4061
-86.7902 57.9521 4.6360
-86.7902 -69.9686 -22.7655
-86.7902 -50.1661 4.6802
-86.7902 -2.9075 2.5918
-86.7902 -34.1720 12.8468
-86.7902 39.8933 -22.7256
-86.7902 -48.9692 -1.1586
-86.7902 45.2463 22.3362
-86.7902 55.0828 28.0460
-86.7902 -57.4300 -14.8192
-86.7902 -20.6909 35.4207
-86.7902 6.1913 -5.1386
-86.7902 -75.2855 35.6504
-86.7902 6.3044 33.3800
-86.7902 -49.3557 2.2015
-86.7902 -42.7420 -15.4420
-86.7902 -30.4290 5.9149
-86.7902 18.4903 -26.3613
-86.7902 -7.8470 -3.1167
-86.7902 50.5738 -12.8492
-86.7902 63.6988 -27.8404
-86.7902 87.3865 -17.4736
-86.7902 82.4934 -30.3184
-86.7902 23.6114 -33.8301
-86.7902 72.8659 -34.5115
-86.7902 -16.3080 -1.3545
-86.7902 42.7541 -12.2197
-86.7902 67.0980 6.7904
-86.7902 1.4964 21.7693
-86.7902 73.7294 26.2528
-86.7902 -47.5363 5.2681
-86.7902 24.7855 17.6448
-86.7902 54.9744 29.1895
-86.7902 -8.6742 -1.2579
-45.2753 91.3158 -7.9406
-54.0928 91.3158 31.1976
79.9279 91.3158 -34.5261
3.5530 91.3158 1.4692
-0.3253 91.3158 -6.4768
-79.4074 91.3158 -6.8845
-77.9092 91.3158 29.3986
44.3396 91.3158 -10.9350
30.6859 91.3158 24.2276
42.1307 91.3158 29.3953
-54.6172 91.3158 -6.9163
33.9713 91.3158 -22.0227
-61.7154 91.3158 -24.4063
-27.2763 91.3158 -27.8676
49.7351 91.3158 -6.5738
-75.3203 91.3158 -17.7090
33.9109 91.3158 14.3611
51.6924 91.3158 33.8235
5.9008 91.3158 -19.9148
19.2113 91.3158 -25.3791
66.0591 91.3158 32.9180
-49.2295 91.3158 4.9441
-31.1377 91.3158 -20.5154
-68.1454 91.3158 -3.0036
-85.9126 91.3158 20.7527
-9.3179 91.3158 -16.4581
-77.2036 91.3158 -28.8635
-81.8674 91.3158 -9.3330
82.1995 91.3158 -28.7253
54.5522 91.3158 7.1212
74.0059 91.3158 -15.3923
-34.7703 91.3158 18.2337
-3.9511 91.3158 29.6784
84.7478 91.3158 -0.6582
-4.1892 91.3158 -34.2851
0.2630 91.3158 -1.8489
-71.2203 91.3158 0.8093
56.0732 91.3158 -31.4427
16.9625 91.3158 25.0073
-67.5594 91.3158 30.8021
86.4888 91.3158 -16.6693
58.4509 91.3158 -21.2778
-14.3548 91.3158 24.0280
80.5781 91.3158 -22.0549
-17.0568 91.3158 34.1343
-7.7044 91.3158 -15.0241
73.1128 91.3158 -13.2741
-61.7841 91.3158 13.1762
-65.8754 91.3158 30.3279
-84.6921 91.3158 14.6747
-18.3689 91.3158 15.3207
36.7708 91.3158 12.8884
36.9596 91.3158 -26.5045
50.9136 91.3158 11.1014
53.1937 91.3158 34.6178
84.5007 91.3158 30.7640
-71.5335 91.3158 -18.0688
-1.3319 91.3158 14.1643
-18.4735 91.3158 22.3460
-30.1108 91.3158 27.3613
8.7499 91.3158 18.1869
-59.3157 91.3158 -28.1650
20.5539 91.3158 -5.5019
76.1224 91.3158 -31.2945
-33.3835 91.3158 -14.7535
-4.4524 91.3158 22.9159
22.0969 91.3158 7.3852
36.1548 91.3158 12.0491
50.9337 91.3158 28.8607
13.8580 91.3158 -12.3701
56.2359 91.3158 19.4786
36.7549 91.3158 27.3086
45.5586 91.3158 -2.9561
31.6672 91.3158 26.0201
23.3534 91.3158 -10.9566
-55.7931 91.3158 -25.5617
29.6866 91.3158 33.9334
-54.1233 91.3158 26.2962
-23.1181 91.3158 3.3203
28.1878 91.3158 35.6498
26.7622 91.3158 -7.1634
-43.6886 91.3158 25.4654
3.4701 91.3158 -16.5604
38.3333 91.3158 -3.7271
-12.4782 91.3158 -6.4398
-86.5686 91.3158 -24.5529
-74.7467 91.3158 -22.7870
77.6478 91.3158 -1.6707
76.9049 91.3158 6.0407
18.4540 91.3158 -21.2309
55.2923 91.3158 -22.6343
54.5545 91.3158 25.5823
17.8637 91.3158 1.3081
36.3088 91.3158 24.6412
9.6623 91.3158 -32.9514
-5.8936 91.3158 23.3662
-12.6575 91.3158 -1.4099
85.1313 91.3158 -19.6045
-75.6268 91.3158 8.0144
-21.1772 91.3158 10.4230
0.6308 91.3158 -21.4579
-66.9422 91.3158 16.3620
-50.9512 91.3158 33.6505
44.0890 91.3158 -34.4057
-0.2356 91.3158 15.1877
-35.7819 91.3158 5.4817
-81.9138 91.3158 16.0463
-50.5460 91.3158 -22.4089
-36.0877 91.3158 18.9729
39.7376 91.3158 13.5308
-37.1603 91.3158 20.0431
23.3635 91.3158 4.8385
-47.6233 91.3158 -3.3128
-43.0987 91.3158 17.0935
-55.7585 91.3158 -25.9988
55.2368 91.3158 -17.0125
-45.8378 91.3158 -22.6012
78.9159 91.3158 7.6277
-4.9113 91.3158 6.3945
-15.8960 91.3158 -14.5208
-34.9314 91.3158 21.8548
-62.0326 91.3158 11.0186
-82.6916 91.3158 31.4438
-3.0685 91.3158 4.8100
5.6110 91.3158 2.7233
82.8835 91.3158 -23.6575
18.6739 91.3158 32.8754
5.6900 91.3158 7.4012
-12.1642 91.3158 4.1570
-65.9230 91.3158 20.1727
-32.1057 91.3158 29.8302
12.9691 91.3158 24.2425
-70.8623 91.3158 18.6477
-37.2448 91.3158 28.8804
-21.1826 91.3158 -7.8195
-67.0997 91.3158 28.8568
-11.2683 91.3158 -7.8363
-59.1899 91.3158 -22.6082
67.8232 91.3158 -13.1783
-22.9324 91.3158 -1.2804
-2.1106 91.3158 5.4557
69.2539 91.3158 6.7203
-70.7798 91.3158 -9.3230
-13.3002 91.3158 -2.6836
85.8897 91.3158 -12.3375
16.5665 91.3158 30.7273
0.1481 91.3158 -1.8810
-25.0213 91.3158 20.4775
5.3515 91.3158 0.5598
81.2287 91.3158 31.6852
84.2980 91.3158 33.8269
-40.7041 91.3158 -17.6877
-43.9483 91.3158 -28.0506
-51.2212 91.3158 -34.8137
84.0419 91.3158 -12.0644
21.5348 91.3158 -13.7540
-7.7589 91.3158 -7.4753
-69.1576 91.3158 7.5987
42.1550 91.3158 16.1362
53.0287 91.3158 19.7151
-30.4209 91.3158 -14.7710
-78.5016 91.3158 27.1442
13.3474 91.3158 14.1181
-15.0788 91.3158 -19.2104
52.2634 91.3158 -32.3965
9.6226 91.3158 2.2638
-18.4046 91.3158 -30.9920
-56.8900 91.3158 2.0863
26.4817 91.3158 -35.0229
1.3890 91.3158 -1.7095
-8.2195 91.3158 23.7993
-45.3106 -91.3158 18.5701
22.7500 -91.3158 -27.3887
-23.0634 -91.3158 10.6277
48.1842 -91.3158 -3.2462
86.4916 -91.3158 -3.0114
-12.5583 -91.3158 -12.9732
49.6527 -91.3158 -12.3465
65.7043 -91.3158 16.9507
20.7985 -91.3158 -5.7127
25.4542 -91.3158 28.7645
-2.0206 -91.3158 32.3193
71.2259 -91.3158 -25.7318
37.4042 -91.3158 34.2863
49.4183 -91.3158 17.7499
-37.6878 -91.3158 -22.5403
-12.8538 -91.3158 12.4035
64.2975 -91.3158 2.6492
82.9370 -91.3158 -18.9611
-65.8714 -91.3158 -33.6557
-33.5986 -91.3158 -25.3157
-15.8294 -91.3158 10.9871
43.3575 -91.3158 3.0510
31.9186 -91.3158 19.0165
23.0416 -91.3158 29.9124
22.3776 -91.3158 -32.8617
22.2042 -91.3158 -25.3065
-20.6876 -91.3158 -30.4209
5.7523 -91.3158 4.0050
-57.5667 -91.3158 13.9265
-58.2790 -91.3158 13.3749
-30.2302 -91.3158 22.4780
-64.3218 -91.3158 34.5998
-65.3785 -91.3158 25.6153
17.4275 -91.3158 0.8521
-72.9293 -91.3158 34.2637
-62.1441 -91.3158 7.6770
62.8795 -91.3158 -31.7975
-20.7196 -91.3158 -26.2173
-30.8833 -91.3158 34.2373
65.2958 -91.3158 22.2316
83.9403 -91.3158 32.0729
50.6473 -91.3158 -13.2461
23.9321 -91.3158 -30.8978
-8.4089 -91.3158 32.0519
86.3542 -91.3158 3.0592
50.5480 -91.3158 -11.7690
11.9793 -91.3158 30.1056
-60.7113 -91.3158 5.8730
-41.5120 -91.3158 -4.5724
40.9316 -91.3158 0.1709
70.4435 -91.3158 -26.5327
-56.5518 -91.3158 -4.4709
-25.5260 -91.3158 -26.0060
41.7098 -91.3158 -21.1981
-74.2840 -91.3158 -4.4643
33.0832 -91.3158 -21.1250
64.9361 -91.3158 -5.8660
-48.1154 -91.3158 34.8553
47.1338 -91.3158 27.0940
69.5694 -91.3158 -14.3042
-11.1534 -91.3158 -1.7577
83.6039 -91.3158 -5.7347
15.5056 -91.3158 26.2768
7.3988 -91.3158 -25.3917
-46.1023 -91.3158 27.3396
-9.9250 -91.3158 15.5759
57.9259 -91.3158 18.0295
-1.7298 -91.3158 -29.4524
-24.4684 -91.3158 -7.2640
-17.0354 -91.3158 14.9324
42.1768 -91.3158 -17.9700
-55.6112 -91.3158 -26.6497
4.9844 -91.3158 17.1902
-83.8476 -91.3158 -12.8363
-70.0387 -91.3158 -29.8588
-30.9518 -91.3158 -6.2396
65.8472 -91.3158 -18.0304
-19.5516 -91.3158 -28.0601
1.0509 -91.3158 19.3088
-58.7122 -91.3158 -35.5525
17.7288 -91.3158 8.9576
-50.7023 -91.3158 -21.0429
30.5088 -91.3158 34.7966
40.8251 -91.3158 -16.0039
-4.1532 -91.3158 12.3129
-32.5134 -91.3158 -8.5216
9.4193 -91.3158 17.5002
59.8657 -91.3158 -5.1510
-77.1669 -91.3158 -28.1264
27.2722 -91.3158 -6.2633
11.9329 -91.3158 -33.7764
10.2668 -91.3158 -9.2786
-53.0446 -91.3158 -30.5238
21.8842 -91.3158 -12.2559
-8.1105 -91.3158 8.7933
-32.6900 -91.3158 -8.0655
-57.9164 -91.3158 -18.3552
-81.2626 -91.3158 -24.3087
30.3221 -91.3158 23.5145
17.3304 -91.3158 27.0270
-56.1594 -91.3158 0.1310
-18.7772 -91.3158 6.6103
-25.3659 -91.3158 -5.7512
-6.4432 -91.3158 -1.4178
-53.1237 -91.3158 -32.4061
39.5915 -91.3158 16.1503
10.2070 -91.3158 -35.1556
-58.2488 -91.3158 -11.4166
40.8317 -91.3158 -33.2933
43.5497 -91.3158 7.1109
-73.0047 -91.3158 -31.4205
-84.6349 -91.3158 -11.1485
-20.8501 -91.3158 1.7870
50.0321 -91.3158 24.5969
-78.4368 -91.3158 26.8460
-13.9533 -91.3158 5.9120
-9.5303 -91.3158 -4.1889
-62.5049 -91.3158 30.3377
-5.4388 -91.3158 23.1215
-35.6066 -91.3158 26.3891
29.2471 -91.3158 -20.9615
-60.7783 -91.3158 14.5199
7.5856 -91.3158 33.8908
13.6204 -91.3158 -34.3019
-86.7596 -91.3158 10.9183
79.7926 -91.3158 31.5450
-65.9291 -91.3158 35.3297
34.5333 -91.3158 25.2541
-33.5906 -91.3158 17.7409
-41.9307 -91.3158 -18.6078
-48.1286 -91.3158 -29.4694
33.4549 -91.3158 35.1587
-1.6141 -91.3158 -11.7921
83.5681 -91.3158 18.9705
34.9124 -91.3158 -21.8247
-37.8091 -91.3158 14.9810
9.1840 -91.3158 22.0641
74.5182 -91.3158 -27.3475
-50.4866 -91.3158 31.3149
-73.9142 -91.3158 -20.9872
-5.8126 -91.3158 -19.0564
-56.3249 -91.3158 -5.6888
86.0980 -91.3158 25.6638
19.4289 -91.3158 17.0568
-79.1128 -91.3158 25.6404
48.6070 -91.3158 16.9403
-46.1909 -91.3158 -9.4337
-53.9905 -91.3158 -17.1988
-29.0398 -91.3158 -3.3450
41.6004 -91.3158 27.5076
6.6274 -91.3158 -16.9140
22.3543 -91.3158 5.3024
20.0683 -91.3158 5.0801
73.8506 -91.3158 0.3389
-18.3588 -91.3158 10.6090
57.0988 -91.3158 22.6213
-78.8413 -91.3158 24.2770
74.7098 -91.3158 -6.9232
-30.5319 -91.3158 30.6347
55.4903 -91.3158 -18.9318
7.0242 -91.3158 15.0792
-75.2420 -91.3158 9.9608
-14.8308 -91.3158 23.8864
75.2933 -91.3158 5.1693
-63.2304 -91.3158 34.0245
41.2469 -91.3158 -17.2066
-79.2455 -91.3158 -17.7425
-42.0495 -91.3158 24.9429
63.3701 -91.3158 9.5370
36.6463 -91.3158 7.5011
48.9049 -91.3158 -23.1764
-60.0321 44.4672 35.7303
79.8388 43.8282 35.7303
-62.4581 52.5983 35.7303
-74.3200 28.1042 35.7303
33.0053 90.4597 35.7303
35.8871 26.8656 35.7303
-49.7209 46.2175 35.7303
-5.4060 50.2522 35.7303
-55.9896 79.1948 35.7303
-73.6950 34.1231 35.7303
36.3309 -11.9699 35.7303
-31.3730 -90.7099 35.7303
-0.0331 -57.3689 35.7303
27.7479 -25.2529 35.7303
-56.6874 -66.9446 35.7303
78.4190 73.7254 35.7303
69.5451 8.1085 35.7303
-11.4409 -53.1191 35.7303
-58.8942 45.5340 35.7303
-34.4708 -74.6016 35.7303
-13.6514 -72.9599 35.7303
68.8089 -81.3855 35.7303
-71.2529 -30.3166 35.7303
-48.5957 -50.5344 35.7303
-55.7706 -51.2875 35.7303
-8.3797 40.9799 35.7303
84.9508 -32.6926 35.7303
7.6952 -15.5554 35.7303
9.9202 -82.1506 35.7303
-42.8577 44.0514 35.7303
-55.5344 -70.7474 35.7303
-59.3137 -29.2358 35.7303
47.2983 7.9150 35.7303
83.1657 -56.4002 35.7303
34.3015 -0.7486 35.7303
-71.6349 1.0518 35.7303
-84.5654 15.0054 35.7303
-14.3843 86.9087 35.7303
-12.4071 -12.9994 35.7303
63.4890 49.2609 35.7303
40.3070 40.8652 35.7303
-36.8924 -46.7637 35.7303
-82.4531 37.5166 35.7303
-36.0023 -66.3333 35.7303
-29.0837 52.8551 35.7303
-37.4601 -81.8215 35.7303
81.5862 44.2729 35.7303
30.7204 -56.8241 35.7303
-59.8142 -64.8480 35.7303
38.9391 53.8656 35.7303
79.1637 -37.1154 35.7303
-64.8459 28.9921 35.7303
37.8762 -24.6075 35.7303
80.1186 -7.8426 35.7303
16.5792 67.3322 35.7303
57.6797 -8.9080 35.7303
-31.9809 46.9225 35.7303
-24.1174 -61.0991 35.7303
37.5407 60.2454 35.7303
-52.5893 21.1961 35.7303
-81.4861 -45.5085 35.7303
41.2597 -36.5338 35.7303
12.2277 -88.9912 35.7303
-17.8512 -27.0241 35.7303
21.5106 -0.7955 35.7303
49.4781 71.1535 35.7303
-0.2497 6.5391 35.7303
66.7397 -62.1418 35.7303
-11.1924 -54.3203 35.7303
-44.8376 -60.1629 35.7303
19.7724 49.4862 35.7303
9.2977 43.8336 35.7303
-86.6896 39.2377 35.7303
67.9959 36.5676 35.7303
-66.8768 79.3911 35.7303
16.3976 65.4801 35.7303
-76.2059 67.6701 35.7303
-48.6340 30.3561 35.7303
78.0707 73.5437 35.7303
-72.9052 15.1825 35.7303
-31.1158 31.1118 35.7303
-60.2370 18.8287 35.7303
-55.3839 80.8737 35.7303
-67.7824 -8.6283 35.7303
23.2987 82.3636 35.7303
-16.8839 68.5531 35.7303
18.3868 32.5831 35.7303
44.2488 -85.8185 35.7303
23.3934 -23.8916 35.7303
-79.4068 -63.5514 35.7303
-55.4768 -6.3590 35.7303
-57.6998 -47.0079 35.7303
18.7176 2.4251 35.7303
-35.4116 -3.0796 35.7303
-46.3166 30.0135 35.7303
50.0609 -84.7817 35.7303
-32.6643 78.6061 35.7303
19.6876 -44.2574 35.7303
10.6406 -43.6802 35.7303
31.4739 7.1710 35.7303
85.7572 36.7420 35.7303
-56.5643 56.0633 35.7303
-11.3581 60.0445 35.7303
-64.0541 83.7186 35.7303
11.0595 72.5452 35.7303
59.0827 80.4811 35.7303
68.6171 68.0328 35.7303
-63.4648 48.1876 35.7303
-37.7461 -85.3850 35.7303
-56.9236 24.2605 35.7303
65.4340 70.9721 35.7303
-23.2111 -35.3278 35.7303
23.7202 -10.8765 35.7303
17.2623 6.5049 35.7303
15.9547 -48.1200 35.7303
54.2270 75.6683 35.7303
-28.3401 -27.8658 35.7303
30.8582 87.2260 35.7303
71.9610 -3.9063 35.7303
43.1819 42.4756 35.7303
86.4382 23.9292 35.7303
-71.9984 31.2509 35.7303
62.7139 77.8242 35.7303
24.5741 -37.5258 35.7303
-60.8969 72.6853 35.7303
-72.2159 4.9326 35.7303
-50.9930 69.9167 35.7303
-27.8953 -23.3991 35.7303
-1.9855 25.7976 35.7303
-44.1944 36.8744 35.7303
-69.2746 65.2781 35.7303
-26.6150 -70.9743 35.7303
76.8190 0.6317 35.7303
-74.6056 84.7944 35.7303
70.7480 -76.3959 35.7303
-38.1210 75.4950 35.7303
-75.9655 -6.8253 35.7303
22.7624 -5.6462 35.7303
50.8565 -88.7192 35.7303
-8.0136 -12.0725 35.7303
-78.6587 -41.0847 35.7303
-67.0618 41.3061 35.7303
36.8543 -1.4335 35.7303
72.0426 2.0819 35.7303
34.8255 26.5613 35.7303
64.3710 69.9148 35.7303
4.6055 83.3755 35.7303
8.7320 56.2697 35.7303
-32.5880 82.0446 35.7303
-82.2758 -59.7124 35.7303
77.9459 55.3883 35.7303
36.9254 -26.9860 35.7303
52.3751 35.4217 35.7303
75.0639 36.5301 35.7303
-8.0096 -90.4739 35.7303
-5.2251 -69.8015 35.7303
59.7408 86.5958 35.7303
66.0976 -18.6822 35.7303
-78.1827 -38.4380 35.7303
-4.4599 -59.7274 35.7303
-71.7769 -28.2525 35.7303
-9.1621 -60.9641 35.7303
-25.1428 90.2802 35.7303
36.5128 -31.0796 35.7303
-55.8237 67.6953 35.7303
85.5522 76.4636 35.7303
67.4324 -84.3458 35.7303
77.0627 6.8604 35.7303
67.7205 71.0940 35.7303
-30.5665 78.6306 35.7303
4.2566 38.3198 -35.7303
77.4182 6.6485 -35.7303
-76.3574 -18.4628 -35.7303
-34.3986 14.3438 -35.7303
-25.2996 -57.8036 -35.7303
77.6654 -68.3386 -35.7303
-15.8351 -85.5446 -35.7303
9.4909 21.8518 -35.7303
53.2558 85.0510 -35.7303
-15.4190 57.7874 -35.7303
63.7729 42.4512 -35.7303
9.8134 14.0879 -35.7303
69.0462 -8.0670 -35.7303
-66.7854 -46.1631 -35.7303
80.6905 63.1425 -35.7303
29.2600 -86.8515 -35.7303
65.9535 66.7866 -35.7303
49.2095 -18.2589 -35.7303
28.6708 17.7413 -35.7303
-64.6868 68.3251 -35.7303
-31.0567 -83.4573 -35.7303
-52.1092 -26.2377 -35.7303
36.9542 91.0061 -35.7303
41.0279 -21.4204 -35.7303
-6.8580 40.1481 -35.7303
-3.9479 39.4899 -35.7303
-40.9183 -70.8665 -35.7303
-0.9705 83.2787 -35.7303
86.1489 -18.8860 -35.7303
-29.5427 -3.4254 -35.7303
-52.2737 28.5341 -35.7303
55.2456 -22.9390 -35.7303
62.9682 13.8118 -35.7303
9.1913 21.1425 -35.7303
-43.0599 -12.1955 -35.7303
-39.3107 -39.6339 -35.7303
62.3877 -52.4822 -35.7303
37.0882 89.1707 -35.7303
-36.4412 -42.5077 -35.7303
16.8347 8.4605 -35.7303
-19.8022 88.4141 -35.7303
76.7830 -68.8731 -35.7303
78.0517 55.7571 -35.7303
-29.5883 -0.8519 -35.7303
86.0892 10.1254 -35.7303
-47.3035 -63.5290 -35.7303
65.7381 65.6704 -35.7303
-9.1407 88.8298 -35.7303
-81.0951 2.7294 -35.7303
-65.5383 12.3176 -35.7303
65.3479 -19.9679 -35.7303
-33.3181 -42.6199 -35.7303
-10.3203 -10.9595 -35.7303
-33.0132 41.9994 -35.7303
-19.3929 -40.7942 -35.7303
-45.4555 65.1991 -35.7303
59.2692 -58.9946 -35.7303
28.6748 38.8457 -35.7303
56.1494 13.5893 -35.7303
30.1164 78.5763 -35.7303
74.4016 13.1287 -35.7303
20.4803 42.5022 -35.7303
62.0354 60.4380 -35.7303
7.5299 3.2625 -35.7303
-16.1220 7.5505 -35.7303
68.1807 14.4285 -35.7303
19.2676 68.7470 -35.7303
85.6678 -14.9294 -35.7303
-46.5893 -6.2763 -35.7303
56.4823 -36.4877 -35.7303
-37.1209 -90.1978 -35.7303
3.0782 -21.6293 -35.7303
22.0542 -58.9852 -35.7303
-40.4997 -83.0439 -35.7303
-17.9589 -23.6040 -35.7303
62.8941 -3.5018 -35.7303
-28.8846 52.3710 -35.7303
71.0770 -49.9457 -35.7303
84.1322 -68.3944 -35.7303
42.7826 -26.5772 -35.7303
-57.1689 14.5191 -35.7303
24.3487 -31.7586 -35.7303
80.3500 13.9466 -35.7303
6.7067 -26.6580 -35.7303
26.0492 -22.7511 -35.7303
38.7395 41.8138 -35.7303
61.5234 88.1562 -35.7303
-15.4111 -19.0128 -35.7303
-31.6266 -10.1257 -35.7303
-29.2121 -12.0011 -35.7303
35.6645 -51.7824 -35.7303
36.7627 -76.8605 -35.7303
68.4077 -14.4715 -35.7303
-83.0777 -47.8066 -35.7303
-10.0666 -50.8487 -35.7303
9.8884 -30.2806 -35.7303
-39.5338 -50.2026 -35.7303
-10.2342 -80.1772 -35.7303
-29.7983 71.0731 -35.7303
33.9861 13.2522 -35.7303
-47.9475 4.0109 -35.7303
-37.5370 37.3028 -35.7303
-78.0096 -74.2608 -35.7303
20.1576 -85.9560 -35.7303
-68.4164 -58.3048 -35.7303
71.0343 41.4371 -35.7303
53.7186 67.5568 -35.7303
61.4003 77.7202 -35.7303
2.3661 -77.0239 -35.7303
-77.9790 3.0676 -35.7303
40.5559 46.5209 -35.7303
61.2122 5.5023 -35.7303
-60.5535 -63.6001 -35.7303
55.5376 22.1409 -35.7303
-75.8234 -55.5208 -35.7303
-49.6245 -30.8211 -35.7303
-59.2799 50.6847 -35.7303
-78.0114 -38.5647 -35.7303
-62.0331 22.7350 -35.7303
-45.3373 -52.1536 -35.7303
75.8614 -3.9695 -35.7303
-13.5672 87.4093 -35.7303
16.5854 75.8866 -35.7303
-45.3010 77.5071 -35.7303
-65.7733 48.1650 -35.7303
11.0531 8.4731 -35.7303
16.3266 54.8611 -35.7303
-64.5354 -45.4486 -35.7303
31.9556 8.2510 -35.7303
20.2609 -0.1979 -35.7303
65.7500 -80.1826 -35.7303
9.2122 -30.0888 -35.7303
-69.8489 -57.5000 -35.7303
-9.9174 -52.4417 -35.7303
5.7640 -44.7770 -35.7303
-25.7380 68.6909 -35.7303
-35.1895 -87.1801 -35.7303
-69.8405 -3.6486 -35.7303
51.3220 -15.4962 -35.7303
4.8240 77.3858 -35.7303
-45.8685 49.7461 -35.7303
37.5857 28.6760 -35.7303
-78.3345 -33.1639 -35.7303
-12.6009 83.8768 -35.7303
-10.7890 5.4928 -35.7303
28.3866 56.1609 -35.7303
-38.0601 -83.0048 -35.7303
65.5069 -59.0856 -35.7303
-7.9686 52.6448 -35.7303
-47.9124 62.3245 -35.7303
-7.6814 33.5824 -35.7303
3.3184 -76.0965 -35.7303
-31.6054 82.8077 -35.7303
-45.5748 -70.1154 -35.7303
-19.1983 86.0963 -35.7303
85.2184 -54.9248 -35.7303
-7.5089 -61.0266 -35.7303
40.3170 2.3658 -35.7303
-47.0258 -47.6644 -35.7303
19.9906 14.9522 -35.7303
-68.4907 -51.0863 -35.7303
-64.7261 79.4724 -35.7303
26.1838 39.8307 -35.7303
49.3387 -27.4820 -35.7303
-1.8236 27.3147 -35.7303
-38.6816 41.9770 -35.7303
70.6340 61.6763 -35.7303
18.5738 -39.9606 -35.7303
-47.3066 16.5177 -35.7303
-65.1803 -69.1563 -35.7303
