ply
format ascii 1.0
element vertex 1024
property float x
property float y
property float z
end_header
87.9862 8.5457 17.1682
87.9862 -28.8495 9.7263
87.9862 -69.8676 -19.0527
87.9862 -59.9965 41.2287
87.9862 28.1043 49.8334
87.9862 -1.6316 26.3543
87.9862 -12.0118 -31.6975
87.9862 -34.0860 -28.9349
87.9862 53.0208 18.3856
87.9862 29.2522 26.4269
87.9862 64.6420 -4.7176
87.9862 17.7135 6.0119
87.9862 -34.2246 -18.6288
87.9862 22.0187 -8.4783
87.9862 -36.8461 -18.7591
87.9862 5.2771 51.6827
87.9862 11.2345 12.2854
87.9862 8.8773 7.2545
87.9862 -49.5337 25.2760
87.9862 25.8847 -8.4763
87.9862 4.9774 43.1875
87.9862 16.2122 35.6767
87.9862 35.3296 26.1534
87.9862 55.3357 -36.5059
87.9862 -19.9834 14.7018
87.9862 -43.0335 7.5313
87.9862 -29.0745 8.1228
87.9862 -34.3636 -26.8549
87.9862 13.2002 47.7587
87.9862 -60.5824 -42.3042
87.9862 -33.2721 -8.3642
87.9862 65.7287 16.7687
87.9862 -53.5495 -18.3537
87.9862 72.0647 -15.3288
87.9862 38.9232 -29.4187
87.9862 -37.7826 29.3888
87.9862 -11.3564 -33.2175
87.9862 -42.4113 -34.8449
87.9862 67.5015 17.3804
87.9862 29.9366 37.1744
87.9862 -3.8275 -19.1280
87.9862 43.4930 -46.9191
87.9862 68.2804 52.1954
87.9862 -47.8312 39.4582
87.9862 -17.0192 0.0711
87.9862 -38.5436 -35.5966
87.9862 34.6071 11.8616
87.9862 -27.0000 -30.5735
87.9862 5.9405 50.0387
87.9862 -36.8240 22.1624
87.9862 -69.4322 -32.2858
87.9862 20.8349 29.4168
87.9862 -33.2597 46.3905
87.9862 62.7360 13.3490
87.9862 -21.0674 -44.5318
87.9862 49.6481 -51.2614
87.9862 -31.8112 16.1292
87.9862 -52.8394 -34.8301
87.9862 -7.8241 50.6784
87.9862 71.7984 -44.1428
87.9862 -30.4195 -29.3490
87.9862 -0.7890 -4.6000
87.9862 -43.3421 30.0671
87.9862 3.3174 -47.4859
87.9862 -64.6310 3.5961
87.9862 -1.7911 -16.8096
87.9862 -0.3680 11.6434
87.9862 -66.8616 4.9715
87.9862 39.2826 25.5096
87.9862 18.1381 -1.7348
87.9862 4.3349 32.3136
87.9862 -68.1240 11.2254
87.9862 -72.9521 40.1786
87.9862 65.6176 16.4105
87.9862 -4.0867 -32.7005
87.9862 -43.0408 -51.3345
87.9862 3.8722 14.8844
87.9862 52.9572 13.7912
87.9862 -19.2369 15.6945
87.9862 63.7659 30.6093
87.9862 53.4226 12.3534
87.9862 -38.3773 47.4379
87.9862 73.6826 10.5653
87.9862 -59.9813 -7.5681
87.9862 42.0046 -32.9168
87.9862 -18.5513 13.9523
87.9862 69.2678 43.3448
87.9862 -40.8319 41.1845
87.9862 -25.5395 -35.7983
87.9862 -71.1016 -27.2942
87.9862 -37.1227 -22.5775
87.9862 64.7931 -8.9218
87.9862 8.1023 51.6527
87.9862 -67.5722 -36.3165
87.9862 -23.7911 -22.5624
87.9862 50.0581 -23.1799
87.9862 18.5089 -18.1214
87.9862 34.2176 -42.8549
87.9862 -54.5257 29.4009
87.9862 68.7635 -2.9161
87.9862 6.4464 3.1503
87.9862 -32.9676 -13.6968
87.9862 -59.5882 5.6032
87.9862 -39.1356 -9.5952
87.9862 3.6141 -1.1028
87.9862 -61.5999 51.3085
87.9862 -1.2025 32.8545
87.9862 -36.3609 35.6279
87.9862 70.4527 4.2652
87.9862 -45.2557 -16.5854
87.9862 -45.2895 -14.0397
87.9862 17.8898 -51.3680
87.9862 -17.6797 44.3757
87.9862 -54.2854 34.6724
87.9862 -73.4032 -27.3398
87.9862 -30.6871 30.1605
87.9862 -68.9839 29.7123
87.9862 57.9584 -27.9396
87.9862 60.4370 -7.9409
87.9862 48.3634 26.6557
87.9862 -0.9560 -50.4268
87.9862 -53.3292 32.7748
87.9862 26.8668 39.3361
87.9862 -72.7590 -48.1004
87.9862 59.3592 14.8121
87.9862 -12.7529 -33.0487
87.9862 13.8943 -24.4907
87.9862 11.6366 -39.6173
87.9862 48.7801 48.0191
87.9862 28.2472 -37.3718
87.9862 -20.2957 -46.8856
87.9862 -68.8093 32.6658
87.9862 60.7371 10.8422
87.9862 -26.2165 26.4857
87.9862 -57.6516 -31.2587
87.9862 13.1459 -45.7955
87.9862 -52.6618 -35.9598
87.9862 62.3231 -36.6616
87.9862 27.8672 -38.8038
87.9862 67.6235 25.6296
87.9862 30.3272 -24.6471
87.9862 -32.0108 -0.4446
87.9862 -52.1072 -5.7361
87.9862 -27.8448 20.3025
87.9862 -42.1953 2.3694
87.9862 0.2838 -31.5034
87.9862 -23.9811 -6.0743
87.9862 -48.0651 -49.3032
87.9862 26.4680 -14.9523
87.9862 16.5032 2.6892
87.9862 7.4657 -5.8863
87.9862 22.4815 34.6426
87.9862 38.4574 4.0277
87.9862 45.2824 5.3623
87.9862 14.0270 -33.6323
87.9862 39.5655 2.3164
87.9862 67.8667 3.7502
87.9862 45.4161 31.9505
87.9862 71.8673 -51.6646
87.9862 -21.9899 -25.4556
87.9862 34.1404 -3.1949
87.9862 6.7442 43.4258
87.9862 36.6234 51.3527
87.9862 50.8280 -18.3216
87.9862 32.3791 -20.6253
87.9862 15.0737 -22.5978
87.9862 10.7217 -5.7796
87.9862 -20.9527 -22.0423
87.9862 -38.5256 18.1329
87.9862 -55.2489 -41.5236
87.9862 50.0985 2.2196
-87.9862 -51.3052 14.8604
-87.9862 63.1555 -30.7321
-87.9862 43.0348 -50.8278
-87.9862 33.8458 10.9305
-87.9862 -71.1581 -39.1634
-87.9862 29.3276 30.3414
-87.9862 -46.4824 -40.9617
-87.9862 -35.5451 -25.0777
-87.9862 -60.9592 23.3846
-87.9862 -20.1469 26.8945
-87.9862 67.0047 -13.8592
-87.9862 28.6666 5.2135
-87.9862 -8.1042 -16.2383
-87.9862 20.2875 48.7252
-87.9862 -15.5971 -19.8183
-87.9862 62.7885 24.6745
-87.9862 55.7843 -21.0345
-87.9862 -37.6576 -17.0159
-87.9862 -58.6821 32.8727
-87.9862 -28.7107 27.2412
-87.9862 -45.9957 2.7201
-87.9862 42.4406 19.7849
-87.9862 66.3412 -27.2581
-87.9862 65.4664 47.4428
-87.9862 -19.4537 -5.3889
-87.9862 11.1526 -11.7292
-87.9862 35.1038 38.4686
-87.9862 19.7325 20.5553
-87.9862 71.1462 -25.1650
-87.9862 13.5024 -36.3698
-87.9862 -54.9644 -21.5701
-87.9862 -28.9279 40.9056
-87.9862 59.5896 -25.1680
-87.9862 -27.6821 21.6149
-87.9862 0.5238 40.8766
-87.9862 -32.9868 -3.4303
-87.9862 15.0601 24.2829
-87.9862 -9.4284 -12.6950
-87.9862 -55.0981 13.9615
-87.9862 -13.9273 49.0754
-87.9862 27.7765 -18.6693
-87.9862 -4.5100 1.1954
-87.9862 52.9188 -45.1440
-87.9862 -62.6342 -32.2192
-87.9862 40.2806 -16.9516
-87.9862 65.2363 -37.5002
-87.9862 -60.9211 6.6274
-87.9862 69.4755 21.3905
-87.9862 -52.3657 29.0599
-87.9862 15.4888 -10.1901
-87.9862 18.4470 -4.1565
-87.9862 -13.5007 -0.6501
-87.9862 71.6564 47.9584
-87.9862 57.5450 -14.5034
-87.9862 -53.0510 51.7810
-87.9862 -63.9956 -35.3858
-87.9862 -70.1368 -0.1372
-87.9862 44.5879 -38.2082
-87.9862 10.2631 41.8618
-87.9862 -20.1514 -41.3246
-87.9862 -28.1225 0.6099
-87.9862 0.5343 -44.0070
-87.9862 -6.3168 9.4906
-87.9862 41.9077 -35.0438
-87.9862 10.3382 3.4841
-87.9862 56.0905 -29.0883
-87.9862 -46.6785 42.8116
-87.9862 -1.0022 15.4252
-87.9862 66.7702 27.0168
-87.9862 -37.7941 -32.1684
-87.9862 -11.9770 -18.4670
-87.9862 32.4239 16.6477
-87.9862 41.6719 11.4229
-87.9862 -38.4065 -39.2507
-87.9862 65.3784 -40.3496
-87.9862 -26.8694 -30.3127
-87.9862 73.5006 10.3057
-87.9862 -8.8810 -45.7051
-87.9862 35.3735 -42.7517
-87.9862 -15.9082 40.0143
-87.9862 -61.5490 29.4639
-87.9862 -57.6263 -19.6373
-87.9862 52.9437 6.7305
-87.9862 24.1337 10.0424
-87.9862 16.2329 20.0704
-87.9862 -59.2929 17.3696
-87.9862 -3.3461 -46.9595
-87.9862 67.4254 23.8188
-87.9862 64.7875 28.2894
-87.9862 37.6344 -46.9506
-87.9862 -61.5237 6.0426
-87.9862 53.9489 -45.2589
-87.9862 15.3031 -6.7701
-87.9862 -22.9040 41.3752
-87.9862 13.1554 9.0904
-87.9862 -34.4549 -0.1699
-87.9862 -10.3924 42.9889
-87.9862 72.7177 -32.4877
-87.9862 73.6677 31.2962
-87.9862 -22.1672 -3.8088
-87.9862 -54.3262 -7.7196
-87.9862 -63.5761 20.9704
-87.9862 65.8322 -33.1139
-87.9862 61.0831 -18.9818
-87.9862 -57.1258 18.2260
-87.9862 -13.2847 38.3116
-87.9862 -36.5876 -10.8900
-87.9862 -16.2604 -31.1005
-87.9862 6.0067 -25.9175
-87.9862 -56.5410 -51.4082
-87.9862 -57.0510 25.6538
-87.9862 60.6292 19.4397
-87.9862 -62.3626 2.5664
-87.9862 17.4623 24.5169
-87.9862 -21.9343 -43.4720
-87.9862 16.8270 -1.4317
-87.9862 -5.9862 -46.2606
-87.9862 37.4652 -41.5460
-87.9862 -34.2450 -23.3082
-87.9862 -1.0649 22.8853
-87.9862 40.0783 39.0747
-87.9862 -63.1870 27.8999
-87.9862 -71.0108 23.1896
-87.9862 0.2433 -27.2174
-87.9862 -15.9734 -13.0243
-87.9862 -31.2219 49.1223
-87.9862 -32.2539 -11.0487
-87.9862 69.9937 -40.2809
-87.9862 -34.2129 -51.9384
-87.9862 -3.3710 38.6785
-87.9862 -54.9897 16.9386
-87.9862 20.8226 -32.4084
-87.9862 69.5434 -23.3154
-87.9862 -36.9314 51.0006
-87.9862 61.3016 -30.2295
-87.9862 54.1092 5.1624
-87.9862 58.6704 17.6941
-87.9862 66.6493 48.6858
-87.9862 -64.8571 -15.5148
-87.9862 40.5655 50.3920
-87.9862 -10.6053 -48.3338
-87.9862 10.1884 7.6016
-87.9862 -57.4954 -29.6844
-87.9862 41.8318 45.4655
-87.9862 55.9921 27.1007
-87.9862 69.0883 -2.4370
-87.9862 63.1212 -24.9608
-87.9862 -34.5557 -8.5654
-87.9862 15.0825 0.9725
-87.9862 2.4593 -7.1877
-87.9862 -66.2244 -19.6252
-87.9862 -29.4760 50.7156
-87.9862 -8.1523 43.9165
-87.9862 29.4979 50.1273
-87.9862 47.7281 6.2383
-87.9862 -23.3226 33.8958
-87.9862 -70.5385 -25.1208
-87.9862 -3.0074 -26.1383
-87.9862 1.6616 45.6098
-87.9862 -36.4293 -51.9361
-87.9862 -36.3867 -38.4299
-87.9862 71.6110 33.1071
-87.9862 38.3303 10.1552
-87.9862 70.4323 -23.7747
-87.9862 -19.8550 -1.3645
-87.9862 -7.8530 39.9685
-87.9862 -48.8265 -3.1486
-87.9862 -0.2409 43.2615
-87.9862 20.8662 28.1791
-87.9862 -58.6379 19.6726
-87.9862 -65.0001 28.1657
-53.7881 73.8717 -38.5992
-9.0010 73.8717 3.5499
-20.7815 73.8717 -26.6580
69.4497 73.8717 -4.4213
70.3374 73.8717 -42.6427
-12.7565 73.8717 7.5541
-74.3724 73.8717 -22.1109
-58.4221 73.8717 -27.8438
59.6950 73.8717 -16.1453
14.6892 73.8717 0.4331
-39.9892 73.8717 -7.3220
82.3842 73.8717 13.2614
23.7669 73.8717 -8.7393
-85.1338 73.8717 29.9808
-57.4849 73.8717 -28.5634
-49.0591 73.8717 38.0299
72.5609 73.8717 -15.3151
-26.5868 73.8717 -22.2234
-70.0999 73.8717 38.4113
-82.3370 73.8717 -14.0986
67.0946 73.8717 41.4028
74.6349 73.8717 39.7948
44.4684 73.8717 19.7409
57.2430 73.8717 17.9965
-22.8086 73.8717 -49.2202
32.5948 73.8717 -51.4034
-30.9509 73.8717 -11.3227
-5.7048 73.8717 7.1832
-16.8578 73.8717 40.1157
5.2299 73.8717 8.0566
2.6806 73.8717 -39.4152
-39.7658 73.8717 -15.1725
22.5618 73.8717 -41.9342
12.8506 73.8717 49.2673
44.7718 73.8717 -40.3849
71.4456 73.8717 -39.6551
-71.9449 73.8717 15.7569
16.5682 73.8717 -46.7633
22.1331 73.8717 49.3355
-42.2364 73.8717 -6.1244
-45.9161 73.8717 -7.5445
34.2252 73.8717 31.2754
-17.3469 73.8717 4.4337
-18.8290 73.8717 21.5945
-83.3241 73.8717 18.8920
19.9039 73.8717 5.1333
-1.8258 73.8717 52.1819
-0.0205 73.8717 -38.4373
-34.6118 73.8717 2.3770
-33.8196 73.8717 11.4512
-72.9205 73.8717 -30.3653
-87.5616 73.8717 -15.4123
68.3292 73.8717 -44.7716
-25.9884 73.8717 46.6812
48.7037 73.8717 -50.2931
-75.7283 73.8717 2.3227
56.7657 73.8717 16.5970
-71.9720 73.8717 38.5755
-7.8211 73.8717 -0.0429
78.9081 73.8717 -16.1092
-25.0328 73.8717 9.3561
-71.5723 73.8717 29.7861
29.8367 73.8717 -47.7390
9.6654 73.8717 50.0736
62.4070 73.8717 -32.0359
82.9146 73.8717 -20.4242
48.8408 73.8717 -31.8162
55.4182 73.8717 -23.0964
-15.7676 73.8717 51.5563
49.4694 73.8717 11.0098
-43.3038 73.8717 -44.4553
16.5396 73.8717 -36.3404
-1.3834 73.8717 14.1689
38.6359 73.8717 -24.3401
-23.3719 73.8717 -6.6966
-41.2672 73.8717 -17.7278
68.4384 73.8717 27.5728
-77.8649 73.8717 -47.5904
58.4130 73.8717 13.8603
-85.8045 73.8717 10.8751
64.7646 73.8717 -2.5666
-25.5275 73.8717 -33.3432
28.7993 73.8717 -19.5814
-33.3392 73.8717 -20.7475
-51.3415 73.8717 -10.9669
35.7460 73.8717 -31.6489
-21.0805 73.8717 33.1133
39.3024 73.8717 45.6920
50.1357 73.8717 -38.3421
-55.9374 73.8717 0.1473
-7.5025 73.8717 39.7380
18.0565 73.8717 -44.0000
-70.3627 73.8717 -12.4976
-46.8616 73.8717 33.1641
74.1213 73.8717 -40.4750
22.6019 73.8717 -3.0920
4.8277 73.8717 37.1894
19.5875 73.8717 -7.0039
-70.2058 73.8717 27.2363
-51.8000 73.8717 -35.4469
86.6469 73.8717 6.1192
62.0008 73.8717 12.8720
60.5910 73.8717 -5.0049
5.3387 73.8717 -27.3484
-17.4304 73.8717 48.0334
52.7290 73.8717 -31.8401
-76.5733 73.8717 1.1154
-14.4903 73.8717 8.1313
-32.9652 73.8717 -20.1771
65.4816 73.8717 44.1255
86.1122 73.8717 23.1534
-14.0901 73.8717 -52.1989
-38.0727 73.8717 50.8541
8.1648 73.8717 30.8606
-18.7198 73.8717 24.8269
-7.2625 73.8717 -31.6678
7.7436 73.8717 40.9215
-61.0710 73.8717 26.0302
8.5323 73.8717 18.3870
13.6443 73.8717 -21.0612
-18.1572 73.8717 47.9754
-42.2516 73.8717 -41.5918
-78.6634 73.8717 -16.7764
-71.0253 73.8717 -0.4159
61.4610 73.8717 -5.5554
55.1543 73.8717 30.2675
41.0288 73.8717 14.0751
51.0594 73.8717 -35.5544
-78.1747 73.8717 -36.6118
78.5000 73.8717 -23.8702
75.5947 73.8717 -9.0697
16.5990 73.8717 -49.4120
29.5776 73.8717 -13.6843
53.4322 73.8717 -4.6905
-24.2406 73.8717 -26.3840
35.1598 73.8717 12.4446
72.2362 73.8717 -23.4302
-74.7961 73.8717 42.2905
-11.0303 73.8717 -19.0427
2.8323 73.8717 38.6308
48.4338 73.8717 -26.6777
-1.6845 73.8717 1.3754
12.7181 73.8717 39.4443
46.2970 73.8717 -42.3660
21.2553 73.8717 -8.0676
-63.7937 73.8717 40.6462
42.8290 73.8717 -15.7149
-18.6747 73.8717 -21.0013
-45.8318 73.8717 14.1316
-68.8726 73.8717 -45.7044
-43.5843 73.8717 36.4216
9.7727 73.8717 30.3225
-67.7552 73.8717 23.9213
-18.7112 73.8717 -37.4062
-28.1668 73.8717 23.9950
-8.0930 73.8717 -4.2459
-3.7121 73.8717 -48.3859
-49.0692 73.8717 -40.4618
-44.3389 73.8717 -16.6348
70.5944 73.8717 -30.9055
87.4214 73.8717 -3.0080
-72.1836 73.8717 39.0061
-43.2863 73.8717 -27.1448
-42.5186 73.8717 -1.1541
39.1020 73.8717 51.0025
-53.2546 73.8717 -4.5705
39.9151 73.8717 22.2840
74.3952 73.8717 -44.3760
65.4712 73.8717 -45.8038
-82.5102 73.8717 11.8132
-80.7386 73.8717 -47.7554
18.5419 -73.8717 33.4771
-9.4465 -73.8717 -16.5741
65.2748 -73.8717 -43.1465
-48.5446 -73.8717 33.6240
39.6181 -73.8717 -28.4156
24.3955 -73.8717 7.1915
60.3985 -73.8717 -48.2707
-46.5907 -73.8717 46.3830
78.3534 -73.8717 27.7447
21.8540 -73.8717 -20.7377
0.9930 -73.8717 -10.3995
-78.3610 -73.8717 45.3210
1.9348 -73.8717 -13.6858
25.0274 -73.8717 -19.9835
25.0157 -73.8717 41.8509
-68.2113 -73.8717 1.2743
-79.5979 -73.8717 7.5085
45.5625 -73.8717 9.5465
-83.4696 -73.8717 -24.9682
-87.2829 -73.8717 16.0628
-7.3724 -73.8717 32.2977
-33.5610 -73.8717 -27.8367
74.2029 -73.8717 -15.4641
-28.6338 -73.8717 -40.6626
37.6803 -73.8717 10.7954
-31.6901 -73.8717 13.3486
20.7793 -73.8717 29.8721
-6.7681 -73.8717 -33.6361
-75.8049 -73.8717 23.7526
34.6703 -73.8717 48.0130
-32.8786 -73.8717 21.4307
-29.7680 -73.8717 29.4256
32.2020 -73.8717 -20.3038
-52.6631 -73.8717 20.1930
-36.0315 -73.8717 -20.8787
-32.9461 -73.8717 50.6421
-82.4208 -73.8717 30.8768
-25.3305 -73.8717 -6.4774
42.2144 -73.8717 -37.5170
42.0794 -73.8717 35.5243
22.0795 -73.8717 4.4637
-68.0159 -73.8717 -19.0853
-49.6747 -73.8717 38.4461
62.1318 -73.8717 37.2155
-73.3478 -73.8717 47.5288
-48.5003 -73.8717 -21.9132
-6.3675 -73.8717 8.9677
-82.9398 -73.8717 -49.6283
33.7018 -73.8717 15.7926
-34.3797 -73.8717 -15.8746
-41.0385 -73.8717 -8.7109
84.2612 -73.8717 -49.2660
28.9257 -73.8717 -4.4177
6.1644 -73.8717 9.3532
38.0254 -73.8717 -23.4296
-65.8792 -73.8717 -40.1586
64.9865 -73.8717 50.9005
23.5522 -73.8717 -43.1883
28.7084 -73.8717 -45.1072
-7.9304 -73.8717 9.3023
36.4419 -73.8717 -33.0384
66.2475 -73.8717 47.7861
-85.0604 -73.8717 -33.8223
-80.0192 -73.8717 -23.0368
-3.1106 -73.8717 8.6079
-34.4298 -73.8717 -36.1794
66.8283 -73.8717 -17.9114
-35.7293 -73.8717 -7.6424
51.5593 -73.8717 -43.4074
13.0970 -73.8717 8.9123
7.8764 -73.8717 -21.1135
60.1708 -73.8717 -39.5154
-47.2033 -73.8717 6.2240
-1.7311 -73.8717 -21.7993
-54.2925 -73.8717 -44.5593
16.1417 -73.8717 -15.5242
-28.2123 -73.8717 -31.0016
19.0434 -73.8717 39.6396
12.7528 -73.8717 21.6742
79.9333 -73.8717 13.2743
-66.2849 -73.8717 -0.6561
-59.7655 -73.8717 29.1814
-7.8852 -73.8717 -15.7029
-48.8891 -73.8717 39.5119
69.8909 -73.8717 21.7524
-55.5084 -73.8717 -37.4586
-42.5854 -73.8717 -9.3637
-7.3864 -73.8717 8.0789
-31.1206 -73.8717 -45.8548
85.4165 -73.8717 -36.4025
-3.7797 -73.8717 -20.9927
-30.7114 -73.8717 51.4020
-3.2410 -73.8717 31.6332
73.6981 -73.8717 29.2905
-13.7292 -73.8717 -42.3933
-13.2754 -73.8717 39.2564
14.0990 -73.8717 -49.0011
41.0613 -73.8717 4.8615
71.3790 -73.8717 17.8229
14.1057 -73.8717 47.0109
63.9382 -73.8717 7.9051
-76.4955 -73.8717 12.0074
21.2244 -73.8717 -44.3379
-86.7065 -73.8717 36.3268
-15.9686 -73.8717 12.2432
38.8016 -73.8717 -24.1651
-85.2435 -73.8717 28.7136
66.6266 -73.8717 1.9003
-0.1745 -73.8717 28.8749
59.4350 -73.8717 -34.7102
82.9316 -73.8717 -41.4723
15.1245 -73.8717 46.6088
-62.0087 -73.8717 -48.9252
-81.8454 -73.8717 -11.6297
-49.3211 -73.8717 46.1694
40.6329 -73.8717 34.3108
23.7470 -73.8717 -48.1872
27.1836 -73.8717 -38.3291
-42.4091 -73.8717 30.4020
-66.3985 -73.8717 28.9435
-33.3585 -73.8717 -3.9468
64.0228 -73.8717 -32.3017
-49.0411 -73.8717 -37.5187
-1.2300 -73.8717 -3.9162
17.4222 -73.8717 -29.3211
-66.6502 -73.8717 48.0177
-37.0915 -73.8717 -47.9208
-2.1261 -73.8717 48.7300
-2.2636 -73.8717 36.9628
85.8787 -73.8717 24.6284
-78.5428 -73.8717 17.3705
23.2940 -73.8717 -12.3415
87.7947 -73.8717 30.3168
-86.6292 -73.8717 21.2843
-71.1983 -73.8717 34.0567
-17.9100 -73.8717 -24.8138
-15.6725 -73.8717 51.1804
-52.9686 -73.8717 48.9260
10.5202 -73.8717 7.1203
68.6233 -73.8717 28.0741
28.4483 -73.8717 -48.9696
30.0279 -73.8717 34.3153
-19.0301 -73.8717 0.9132
61.4796 -73.8717 38.7545
77.9629 -73.8717 48.2481
65.6097 -73.8717 -26.9133
-59.4084 -73.8717 -28.5122
20.8277 -73.8717 -5.3309
-42.9603 -73.8717 -21.0682
-20.6988 -73.8717 34.0287
1.2322 -73.8717 -32.7846
-18.1787 -73.8717 12.5760
14.2802 -73.8717 9.3454
72.3113 -73.8717 13.8685
-15.1151 -73.8717 -16.8479
46.5418 -73.8717 -38.1867
59.2534 -73.8717 -20.4921
33.7699 -73.8717 -43.7307
-73.3455 -73.8717 46.8627
-59.4007 -73.8717 42.7110
-54.1169 -73.8717 -6.3450
76.9883 -73.8717 51.9309
-31.0535 -73.8717 -42.6801
-6.2636 -73.8717 -14.9445
-85.6746 -73.8717 50.2146
53.1622 -73.8717 -9.0322
74.5832 -73.8717 47.9116
34.1694 -73.8717 49.9421
30.4363 -73.8717 11.2248
67.0741 -73.8717 48.0268
70.5109 -73.8717 -13.6132
20.2545 -15.2093 52.4470
19.5811 15.6806 52.4470
-32.7042 22.7393 52.4470
-44.9731 73.0824 52.4470
70.4870 43.8152 52.4470
23.2978 27.2642 52.4470
74.4357 -1.6738 52.4470
19.6304 56.8733 52.4470
17.1949 72.6826 52.4470
31.9444 -15.2397 52.4470
-65.8190 -51.0160 52.4470
86.2555 -49.7902 52.4470
30.3972 46.8359 52.4470
9.7548 -48.0887 52.4470
85.6309 70.2376 52.4470
-1.1151 -28.3410 52.4470
68.2060 -2.2425 52.4470
12.2562 15.1393 52.4470
8.2395 -53.7116 52.4470
59.3287 -46.9319 52.4470
-1.6153 -2.3968 52.4470
70.6138 52.7183 52.4470
-29.1943 -45.1649 52.4470
69.1265 25.6702 52.4470
-27.2078 64.4588 52.4470
-70.9364 -16.2192 52.4470
-77.0645 0.9237 52.4470
71.9811 24.7144 52.4470
-26.9077 44.2606 52.4470
-71.1947 35.7357 52.4470
-71.8662 -29.1740 52.4470
84.6366 26.8307 52.4470
59.3339 57.6149 52.4470
20.4312 -8.1233 52.4470
-7.0703 -29.9721 52.4470
17.7847 68.7890 52.4470
59.0245 44.9096 52.4470
75.9078 -32.8206 52.4470
27.5419 22.5562 52.4470
47.8123 -68.3709 52.4470
-42.1585 -57.0298 52.4470
28.4650 -42.8902 52.4470
45.0101 20.1605 52.4470
57.7843 -32.2482 52.4470
-68.8393 -36.7936 52.4470
-29.7186 -22.0057 52.4470
22.4845 -60.5304 52.4470
-27.6488 34.4587 52.4470
-78.5715 5.1522 52.4470
72.2792 -27.5442 52.4470
71.9016 1.1753 52.4470
-54.6791 4.8279 52.4470
-74.4235 -50.6188 52.4470
-20.0615 -37.9526 52.4470
62.6771 32.8827 52.4470
-78.9653 72.0575 52.4470
79.5559 46.4250 52.4470
15.4594 -47.8343 52.4470
-31.8265 41.9744 52.4470
-82.5273 -50.0852 52.4470
82.1472 -19.0552 52.4470
18.5039 61.5935 52.4470
33.3878 -63.7345 52.4470
29.4000 -12.8811 52.4470
-49.9822 -67.9314 52.4470
-6.7606 49.3294 52.4470
45.7155 41.7314 52.4470
-80.3419 -41.6878 52.4470
85.7062 52.5360 52.4470
24.2970 49.0307 52.4470
55.9062 34.0641 52.4470
-66.4430 13.7264 52.4470
-75.1462 -13.2268 52.4470
14.2436 -40.8147 52.4470
-59.1368 -5.8851 52.4470
-20.5981 -40.4307 52.4470
49.3900 25.4789 52.4470
-51.6257 2.9432 52.4470
40.9047 17.0989 52.4470
-74.8129 -34.9381 52.4470
-50.5066 60.3300 52.4470
44.9295 42.2419 52.4470
-34.2588 -68.4805 52.4470
2.3797 11.8133 52.4470
80.2249 41.1173 52.4470
-78.4295 19.1795 52.4470
57.9861 -64.9529 52.4470
-59.2325 -54.3128 52.4470
73.0729 27.8842 52.4470
-62.1798 -23.1900 52.4470
-60.3516 -40.0855 52.4470
36.2954 -51.2835 52.4470
9.0304 11.2177 52.4470
-25.9633 -62.3178 52.4470
34.8004 34.4416 52.4470
-66.3198 62.2288 52.4470
34.3913 -48.3897 52.4470
-35.6554 -16.1469 52.4470
0.9974 -1.6183 52.4470
64.9620 -28.6783 52.4470
-12.8501 -41.2372 52.4470
24.4744 -62.6590 52.4470
3.5018 -58.8723 52.4470
-7.1176 -71.3374 52.4470
53.7338 -70.7790 52.4470
34.6175 -50.2842 52.4470
-57.6584 -21.5232 52.4470
-33.7106 -62.3927 52.4470
-58.7306 -4.5224 52.4470
34.8583 42.6602 52.4470
69.0405 -7.2834 52.4470
-30.6066 -72.1350 52.4470
-51.6203 35.1314 52.4470
18.9240 -54.2005 52.4470
53.3911 5.0328 52.4470
28.0809 -64.3635 52.4470
16.5956 -66.4691 52.4470
-9.0990 -46.6633 52.4470
-41.2339 18.0436 52.4470
42.5239 56.3477 52.4470
-29.6128 -11.7322 52.4470
-76.6260 71.1058 52.4470
-76.2234 38.1067 52.4470
29.8360 42.8717 52.4470
-75.8704 28.5930 52.4470
-49.7679 -34.0078 52.4470
-19.4044 70.2398 52.4470
-6.1717 -10.2373 52.4470
54.4619 33.0695 52.4470
54.5976 -33.6705 52.4470
-29.6640 62.3870 52.4470
12.2112 55.8389 52.4470
-62.0737 -54.4951 52.4470
43.4886 23.1231 52.4470
-13.7635 -52.2907 52.4470
-1.7630 -73.5504 52.4470
47.5815 -47.5141 52.4470
86.2112 -22.4661 52.4470
-39.2505 -32.3834 52.4470
-76.3644 -9.5713 52.4470
56.9788 -35.1185 52.4470
1.8005 47.3818 52.4470
8.1183 9.3040 52.4470
-86.5444 41.2264 52.4470
9.8389 -34.6779 52.4470
-85.4662 27.6302 52.4470
43.7477 -35.1945 52.4470
-61.2850 -1.8601 52.4470
58.8260 60.2073 52.4470
30.7304 5.5588 52.4470
63.1851 63.7030 52.4470
58.7391 -35.4848 52.4470
-85.5944 -62.2816 52.4470
-6.9546 41.1298 52.4470
11.0110 9.2433 52.4470
-74.6714 58.7967 52.4470
77.2480 -68.8246 52.4470
-84.6885 -42.1534 52.4470
-50.0977 52.5410 52.4470
36.2883 -60.2980 52.4470
47.6806 42.8227 52.4470
50.3964 7.3315 52.4470
-16.0948 48.6171 52.4470
5.0805 -60.6008 52.4470
56.3782 14.0649 52.4470
-49.0374 -39.9072 52.4470
77.2025 36.1517 52.4470
30.7909 66.7761 52.4470
-75.1570 55.5045 52.4470
56.5917 37.8421 52.4470
-75.7070 -43.9018 -52.4470
71.2022 29.2247 -52.4470
-20.3186 27.3999 -52.4470
-74.6855 38.7443 -52.4470
-54.8294 -53.6674 -52.4470
-67.0799 -21.9277 -52.4470
-73.7167 37.6187 -52.4470
70.6147 14.4395 -52.4470
-80.5697 -29.0652 -52.4470
65.9648 65.7351 -52.4470
-11.2605 30.0629 -52.4470
-17.0480 48.4309 -52.4470
-8.7752 -22.3203 -52.4470
-34.2966 -50.4527 -52.4470
84.4965 65.2335 -52.4470
82.2312 68.2560 -52.4470
59.1057 -18.7443 -52.4470
-22.5696 -26.9648 -52.4470
49.3463 53.8459 -52.4470
-38.0128 -61.2845 -52.4470
45.8315 -27.8183 -52.4470
1.9958 -17.9196 -52.4470
-55.7469 -66.8049 -52.4470
-32.4196 46.7598 -52.4470
-46.5606 62.9664 -52.4470
76.4004 -38.5417 -52.4470
43.7080 -2.8228 -52.4470
-57.3574 -68.3137 -52.4470
-13.5211 -8.3108 -52.4470
82.6915 -42.5917 -52.4470
-20.7126 -22.4293 -52.4470
-9.7975 -69.4370 -52.4470
18.3969 -72.1592 -52.4470
-57.0217 46.4764 -52.4470
63.8960 8.1024 -52.4470
2.1233 7.7798 -52.4470
-48.0979 63.6737 -52.4470
68.7586 -36.7860 -52.4470
-15.4905 70.4610 -52.4470
-8.4705 60.1706 -52.4470
28.3741 -48.1091 -52.4470
-87.6801 37.4303 -52.4470
65.2536 -7.2671 -52.4470
71.5057 6.2628 -52.4470
-44.6449 -8.5571 -52.4470
-16.1814 35.0099 -52.4470
-4.8818 4.2031 -52.4470
-54.8181 56.5960 -52.4470
-11.4675 25.9409 -52.4470
-79.1922 -38.1061 -52.4470
79.3494 -40.6484 -52.4470
75.6563 35.3956 -52.4470
-55.1488 51.0022 -52.4470
-74.8446 57.2867 -52.4470
49.8745 70.0160 -52.4470
86.7849 -68.7785 -52.4470
51.6938 -64.7950 -52.4470
-84.2941 64.4893 -52.4470
-70.5720 -63.3069 -52.4470
31.6071 33.8424 -52.4470
-14.3934 69.9999 -52.4470
-87.5740 -51.1012 -52.4470
51.8239 18.2601 -52.4470
-19.0698 53.2793 -52.4470
44.5787 47.3066 -52.4470
58.8328 19.5241 -52.4470
-86.2585 7.9605 -52.4470
2.6506 -20.0605 -52.4470
-38.3673 -59.5982 -52.4470
-76.7757 69.7522 -52.4470
73.5552 32.6103 -52.4470
74.2504 51.2033 -52.4470
68.0112 -51.0364 -52.4470
64.5250 -8.0679 -52.4470
-48.2935 23.0210 -52.4470
-52.9328 47.5124 -52.4470
-67.7900 5.2363 -52.4470
27.2471 -42.9863 -52.4470
-26.7250 66.7391 -52.4470
39.2762 21.9426 -52.4470
-56.6031 28.8612 -52.4470
85.7643 29.2925 -52.4470
-74.6618 -29.3664 -52.4470
-10.6076 -41.3364 -52.4470
-33.0607 -45.7519 -52.4470
-52.0022 -62.7704 -52.4470
-6.6197 -71.5863 -52.4470
66.5177 -0.1395 -52.4470
35.5795 50.4776 -52.4470
51.7046 -60.3881 -52.4470
-16.3911 -45.9218 -52.4470
20.9950 22.8263 -52.4470
46.6668 28.6075 -52.4470
74.6153 -17.8128 -52.4470
51.1428 -28.5360 -52.4470
37.0081 25.0712 -52.4470
-82.3714 -65.8494 -52.4470
37.3831 -27.7697 -52.4470
-32.5339 39.8223 -52.4470
-21.8364 -54.4062 -52.4470
21.3794 22.7957 -52.4470
-7.2226 -63.1054 -52.4470
-24.9472 -45.1175 -52.4470
-13.1235 59.4250 -52.4470
-61.1227 -51.4898 -52.4470
79.0602 34.8890 -52.4470
-37.0946 50.2362 -52.4470
40.7771 -36.5235 -52.4470
25.7848 50.7827 -52.4470
-28.1678 12.0230 -52.4470
39.3355 -22.1514 -52.4470
11.9293 -59.2792 -52.4470
5.5148 6.3273 -52.4470
35.3588 52.5964 -52.4470
26.1932 43.6604 -52.4470
-36.9213 72.8458 -52.4470
-0.8521 -67.1869 -52.4470
-27.2234 -28.2405 -52.4470
53.7328 -3.2326 -52.4470
-68.5243 -73.7893 -52.4470
23.5780 -62.2204 -52.4470
25.7527 32.4226 -52.4470
59.4778 15.7046 -52.4470
71.5437 24.6495 -52.4470
-76.9483 -59.1355 -52.4470
-26.8882 -40.4522 -52.4470
-41.7086 -6.7340 -52.4470
82.5489 30.6368 -52.4470
36.8390 -73.0565 -52.4470
57.3560 -65.8511 -52.4470
-80.3466 63.7569 -52.4470
3.3573 27.4201 -52.4470
-50.1916 36.5280 -52.4470
44.0659 -43.9350 -52.4470
87.5665 36.6651 -52.4470
-38.2480 -53.1197 -52.4470
80.3795 72.4608 -52.4470
-69.9093 69.8913 -52.4470
-38.0650 5.1100 -52.4470
-60.0882 -51.5252 -52.4470
-75.2716 -8.7505 -52.4470
25.6811 69.0287 -52.4470
-3.7725 6.0621 -52.4470
-63.1060 25.2554 -52.4470
40.9663 43.7547 -52.4470
-23.6507 10.7656 -52.4470
39.2456 23.9248 -52.4470
68.6743 3.2994 -52.4470
78.9736 62.4074 -52.4470
61.8541 -3.2893 -52.4470
-71.5211 15.0277 -52.4470
46.3518 -38.5925 -52.4470
-6.4032 54.8344 -52.4470
-14.3728 2.0610 -52.4470
-63.8920 40.4258 -52.4470
48.1793 -25.7912 -52.4470
-27.3565 17.7555 -52.4470
-39.0422 -36.0168 -52.4470
-65.4175 -26.1983 -52.4470
40.3306 50.7226 -52.4470
75.7385 33.0580 -52.4470
7.5055 50.6704 -52.4470
53.4159 19.0489 -52.4470
11.4261 -72.5287 -52.4470
-35.1495 36.6931 -52.4470
67.7137 -10.9404 -52.4470
58.3985 6.0774 -52.4470
-50.4966 -73.1056 -52.4470
-81.7522 -16.5905 -52.4470
-5.2057 -50.7828 -52.4470
