ply
format ascii 1.0
element vertex 1024
property float x
property float y
property float z
end_header
98.1785 22.3198 -41.5896
98.1785 -10.3245 -65.4116
98.1785 -21.5386 -4.6397
98.1785 12.3834 56.1333
98.1785 -8.2521 54.8820
98.1785 19.4401 48.4468
98.1785 -9.1895 -60.2098
98.1785 15.6571 21.8839
98.1785 -17.4937 -5.8330
98.1785 8.3108 61.0555
98.1785 21.9262 -37.3127
98.1785 -21.3062 -17.2360
98.1785 25.2626 16.8399
98.1785 4.7500 -25.0850
98.1785 -21.3387 54.8870
98.1785 -8.9404 -53.2920
98.1785 -15.5451 -16.3011
98.1785 9.5076 -37.2517
98.1785 -3.7275 36.9014
98.1785 22.3182 -70.3497
98.1785 21.1261 -48.1618
98.1785 -5.5016 -64.4881
98.1785 4.9041 71.9339
98.1785 18.6228 37.8515
98.1785 20.0284 -71.6588
98.1785 6.6212 2.8812
98.1785 12.6764 11.2239
98.1785 -23.7842 29.1336
98.1785 2.4222 11.0108
98.1785 -12.6501 -49.6180
98.1785 21.8140 53.4220
98.1785 -16.3104 -27.8121
98.1785 22.2519 46.3947
98.1785 -13.2822 -12.8773
98.1785 -11.6150 19.1091
98.1785 18.6907 -73.4783
98.1785 0.0834 -24.4047
98.1785 21.3549 32.9517
98.1785 21.1913 52.5854
98.1785 -3.8676 54.1143
98.1785 -26.0904 1.2732
98.1785 -21.8997 -27.2331
98.1785 -7.2318 -51.2676
98.1785 -19.8539 33.0123
98.1785 17.4016 25.7565
98.1785 6.1156 1.2702
98.1785 6.4064 36.1199
98.1785 -6.1308 -45.1294
98.1785 -21.1054 -12.6123
98.1785 -10.5309 44.5961
98.1785 -3.1559 72.3036
98.1785 -15.9409 35.4719
98.1785 -5.7429 -15.4914
98.1785 -24.7789 71.3646
98.1785 -9.2545 40.9013
98.1785 16.3491 -1.5752
98.1785 12.7210 45.2704
98.1785 9.0240 66.5333
98.1785 2.8716 28.7816
98.1785 -11.2813 -70.2218
98.1785 -12.2666 56.6697
98.1785 9.2629 -46.5434
98.1785 17.6607 -15.6528
98.1785 15.7618 -24.4326
98.1785 10.2349 -17.9298
98.1785 -5.7181 -35.0041
98.1785 -11.6533 -27.8263
98.1785 -8.6797 2.1798
98.1785 4.8554 -73.1920
98.1785 19.7630 -19.7737
98.1785 4.2245 55.1517
98.1785 -1.2522 21.8602
98.1785 3.9171 -58.8158
98.1785 2.6730 57.6423
98.1785 21.8542 27.6566
98.1785 11.8414 13.8334
98.1785 -23.5176 -47.5353
98.1785 5.7304 3.6385
98.1785 -0.5603 52.1236
98.1785 -22.1984 3.7867
98.1785 26.7819 -59.7085
98.1785 -1.0591 50.1706
98.1785 -9.6005 -29.3537
98.1785 -4.1834 57.1574
98.1785 22.6938 47.5200
98.1785 -10.2586 14.4879
98.1785 4.5413 43.3828
98.1785 -3.2421 -57.7303
98.1785 -24.4782 51.0946
98.1785 -16.5983 57.4821
98.1785 -1.3064 -73.5974
98.1785 4.3876 -2.3526
98.1785 -11.9362 5.0334
98.1785 -2.4983 58.9749
98.1785 1.1385 17.4245
98.1785 1.3124 -67.4342
98.1785 -23.0024 14.1152
98.1785 22.3460 54.1202
98.1785 0.9228 11.5221
98.1785 11.9695 37.9306
98.1785 20.9810 -6.8038
98.1785 -13.2527 -18.9078
98.1785 -18.0286 -52.2956
98.1785 -21.1008 -32.1826
98.1785 -20.2531 4.4086
98.1785 26.6980 12.0544
98.1785 -5.2624 29.7306
98.1785 2.2933 -60.6992
98.1785 -6.7847 -61.4934
98.1785 -10.4439 -44.4101
98.1785 -17.8516 -49.2040
98.1785 -6.7839 -62.3812
98.1785 -11.9427 69.6948
98.1785 17.8407 -59.9829
98.1785 -13.2298 60.7791
98.1785 -5.7812 47.8970
98.1785 -4.5449 -65.1018
98.1785 23.2127 -26.6969
98.1785 8.2245 -57.7484
98.1785 15.6252 0.5124
98.1785 -10.3541 2.7313
98.1785 -4.3290 -60.8701
98.1785 -9.3369 52.9434
98.1785 -21.4212 24.5373
98.1785 -12.2010 36.1224
98.1785 4.4625 32.2342
98.1785 8.8753 46.8151
98.1785 14.5411 19.4437
98.1785 -0.0149 -10.5393
98.1785 -15.7586 25.1977
98.1785 24.8937 -11.2968
98.1785 -6.5008 43.5790
98.1785 -9.4125 -67.4112
98.1785 22.4030 59.5189
98.1785 -10.1681 -3.7170
98.1785 18.1775 -53.0679
98.1785 -13.2838 -38.9778
98.1785 26.7738 -62.7477
98.1785 -5.7493 -57.3514
98.1785 -25.9080 -17.3302
98.1785 0.3671 37.5115
98.1785 20.2892 68.7848
98.1785 15.8773 -59.9671
98.1785 1.2024 -23.2988
98.1785 -2.4601 69.5411
98.1785 -9.6089 28.4887
98.1785 0.7443 52.4411
98.1785 25.1597 -5.0414
98.1785 -10.4432 -63.5759
98.1785 22.0096 -5.9103
98.1785 -21.3435 45.7525
98.1785 -20.9793 -25.9028
98.1785 7.5013 -19.5882
98.1785 1.0277 12.5366
98.1785 1.4324 23.9128
98.1785 -24.4933 -45.4064
98.1785 6.0144 -36.8939
98.1785 -17.3356 6.1297
98.1785 11.4379 52.8624
98.1785 -21.1372 63.4649
98.1785 2.1338 -69.4190
98.1785 -0.0587 -20.4363
98.1785 24.1226 -0.8369
98.1785 -0.7807 63.7117
98.1785 -21.6142 -23.8189
98.1785 2.9003 -17.4134
98.1785 -17.1607 -61.0026
98.1785 26.1494 66.8631
98.1785 -7.1235 -36.7225
98.1785 -26.7402 61.3985
98.1785 -21.4873 15.5049
-98.1785 -18.3577 35.6181
-98.1785 -14.4152 29.9866
-98.1785 14.5752 -7.6278
-98.1785 -23.6552 71.6150
-98.1785 -9.8534 67.1830
-98.1785 22.9095 -39.8030
-98.1785 -3.5491 -7.6261
-98.1785 -8.9928 8.7846
-98.1785 -4.6609 24.1413
-98.1785 -12.9232 -46.9567
-98.1785 -2.5270 11.0021
-98.1785 -11.9915 47.6788
-98.1785 21.6279 -59.7165
-98.1785 -16.5811 -25.0298
-98.1785 4.7478 -14.2896
-98.1785 -2.3248 7.6322
-98.1785 14.7466 43.9350
-98.1785 13.0440 47.8017
-98.1785 13.5250 0.1454
-98.1785 -20.7823 -39.1626
-98.1785 16.4492 3.5150
-98.1785 26.6364 -69.0835
-98.1785 21.2138 72.1623
-98.1785 5.6774 62.3084
-98.1785 -11.9210 1.0258
-98.1785 -1.2649 -6.1230
-98.1785 20.4910 -18.1093
-98.1785 -1.2034 -47.5513
-98.1785 6.1141 26.4149
-98.1785 8.9109 -34.6377
-98.1785 -11.6290 -17.4746
-98.1785 -24.5383 -8.5006
-98.1785 -25.0651 -30.8863
-98.1785 14.9659 44.5872
-98.1785 7.5873 21.7763
-98.1785 15.2272 9.0533
-98.1785 22.7968 8.2267
-98.1785 6.4927 -43.9488
-98.1785 -24.9804 -17.8615
-98.1785 10.7817 -18.8726
-98.1785 20.7439 -5.7679
-98.1785 3.3249 -57.7773
-98.1785 24.9982 52.7345
-98.1785 -17.3834 -36.0635
-98.1785 17.1689 -37.2380
-98.1785 -7.9306 -32.7916
-98.1785 11.4463 -26.4919
-98.1785 -16.1456 -8.2939
-98.1785 -21.2656 50.8793
-98.1785 -19.4315 44.4862
-98.1785 -0.2435 -47.8144
-98.1785 -11.1406 -8.0508
-98.1785 19.4372 27.5037
-98.1785 22.8488 10.7777
-98.1785 13.9506 -32.7322
-98.1785 -16.0415 3.8258
-98.1785 22.5252 -29.8245
-98.1785 -15.7513 51.7983
-98.1785 -25.4707 5.0935
-98.1785 12.1365 -16.3730
-98.1785 12.3105 57.7098
-98.1785 -17.2432 11.6219
-98.1785 12.7525 -58.0677
-98.1785 -25.1833 -26.5225
-98.1785 0.5566 -41.8706
-98.1785 -14.9816 -73.4727
-98.1785 26.1844 -26.2080
-98.1785 21.0963 -40.8072
-98.1785 3.4315 25.7794
-98.1785 21.2724 40.2882
-98.1785 -20.0724 62.4822
-98.1785 22.1968 60.9762
-98.1785 -17.1582 19.6612
-98.1785 13.8159 -51.6649
-98.1785 -5.4571 -12.1812
-98.1785 19.0533 -17.0335
-98.1785 9.4422 -43.4994
-98.1785 0.0242 38.5326
-98.1785 4.0072 -61.2323
-98.1785 24.7342 64.6591
-98.1785 -20.7217 43.2860
-98.1785 16.5237 47.7824
-98.1785 22.3875 -35.6929
-98.1785 21.3842 -26.9128
-98.1785 -3.6153 29.5731
-98.1785 13.1436 -24.9652
-98.1785 -19.7437 13.3345
-98.1785 23.6601 -54.0477
-98.1785 9.6402 -45.1490
-98.1785 6.2798 -41.2329
-98.1785 17.0132 -27.0911
-98.1785 6.2250 37.3248
-98.1785 -4.2476 50.1460
-98.1785 -5.5793 39.2059
-98.1785 24.4249 -15.6908
-98.1785 6.6499 42.6934
-98.1785 -5.1075 17.8678
-98.1785 1.7063 49.6004
-98.1785 -1.8682 -15.3120
-98.1785 -20.2173 52.5526
-98.1785 15.3897 -43.1171
-98.1785 9.8323 -11.7080
-98.1785 -20.0578 -32.8232
-98.1785 -6.8985 70.5675
-98.1785 23.4652 73.4197
-98.1785 24.9990 15.2278
-98.1785 -13.2245 40.6550
-98.1785 20.1450 -9.1737
-98.1785 -18.7612 -13.3839
-98.1785 21.9035 -66.8073
-98.1785 -26.4014 -53.0635
-98.1785 -3.1137 -50.2906
-98.1785 21.2984 40.7333
-98.1785 -21.6632 46.8832
-98.1785 25.6494 -39.2051
-98.1785 -17.4972 -34.1548
-98.1785 -1.7500 6.4305
-98.1785 -26.5082 -70.4826
-98.1785 -8.2331 49.9248
-98.1785 22.7878 -1.4985
-98.1785 8.5146 27.0345
-98.1785 -11.9031 58.9512
-98.1785 11.4215 51.8304
-98.1785 0.3966 17.9788
-98.1785 2.4994 48.7834
-98.1785 24.0773 -60.1240
-98.1785 -16.3043 2.3217
-98.1785 3.1702 -53.8678
-98.1785 10.7327 59.4195
-98.1785 -21.5011 27.7283
-98.1785 -18.7071 71.9386
-98.1785 -22.8472 50.3218
-98.1785 -26.2251 -6.3949
-98.1785 -14.8775 -28.3763
-98.1785 -21.7886 -57.0829
-98.1785 -18.7927 44.1609
-98.1785 7.0438 64.0270
-98.1785 25.4973 -36.1621
-98.1785 -3.0735 27.8368
-98.1785 -25.0410 -4.3127
-98.1785 -17.0470 6.7736
-98.1785 26.0517 32.8939
-98.1785 -3.9602 65.2580
-98.1785 -7.4140 4.0223
-98.1785 20.1422 -61.4036
-98.1785 11.2586 -42.7533
-98.1785 -8.5182 55.1744
-98.1785 16.5615 -68.0885
-98.1785 16.7675 -47.1826
-98.1785 -2.5408 -63.7912
-98.1785 -15.3202 -1.1562
-98.1785 -12.5479 54.8846
-98.1785 -24.2862 60.5588
-98.1785 23.7630 -49.4680
-98.1785 -13.8479 -37.6530
-98.1785 -26.7268 0.1837
-98.1785 21.5176 -56.0675
-98.1785 23.7626 61.9463
-98.1785 23.7012 -3.2792
-98.1785 -26.7903 -0.1265
-98.1785 -14.5300 6.1113
-98.1785 -3.0061 7.5153
-98.1785 -18.9556 -34.2605
-98.1785 6.7369 -0.8991
-98.1785 -15.7936 -29.3186
-98.1785 -0.3717 -10.4428
-98.1785 20.5244 7.3275
-98.1785 17.2116 47.7199
-98.1785 23.1078 -33.4645
-98.1785 -0.3556 -59.8273
-98.1785 2.4507 68.9203
10.5219 26.8163 16.2083
10.0140 26.8163 -45.4795
-37.3689 26.8163 -30.4380
32.9485 26.8163 56.0610
77.0715 26.8163 -40.6856
92.4870 26.8163 -25.8916
50.8894 26.8163 17.6404
38.5956 26.8163 11.7866
42.3213 26.8163 28.4511
26.5840 26.8163 -42.8523
-96.9072 26.8163 45.5011
-68.9178 26.8163 -31.4383
35.4339 26.8163 -72.0878
-63.5976 26.8163 -11.8475
-24.8269 26.8163 -31.9998
-69.9662 26.8163 -68.6102
-31.2428 26.8163 1.2713
1.7735 26.8163 36.8806
-56.6731 26.8163 40.2862
0.3588 26.8163 -32.4418
-67.2552 26.8163 -37.9411
-66.0889 26.8163 -24.6746
56.6105 26.8163 58.3738
36.7687 26.8163 -54.1711
64.9217 26.8163 10.1170
-63.7432 26.8163 -28.9901
4.3449 26.8163 -43.1426
-12.4453 26.8163 -21.6481
-32.6208 26.8163 -69.6900
13.7387 26.8163 -8.4444
4.8066 26.8163 48.7633
54.2849 26.8163 23.4089
-90.9341 26.8163 -21.6637
94.3295 26.8163 52.7885
42.7847 26.8163 -26.4547
-15.6175 26.8163 47.9652
21.0244 26.8163 -13.5763
9.8661 26.8163 58.5639
-19.0159 26.8163 17.0314
64.2970 26.8163 48.4182
93.6308 26.8163 38.5817
89.2478 26.8163 -23.5375
-35.5865 26.8163 36.9429
-61.8750 26.8163 -36.7922
-59.1328 26.8163 73.0003
48.0844 26.8163 -9.0882
32.8524 26.8163 33.8631
20.0594 26.8163 29.8092
-63.5102 26.8163 -13.3732
-77.7142 26.8163 15.3666
71.4225 26.8163 2.0550
34.6123 26.8163 -65.0935
-43.9957 26.8163 -0.4856
85.2331 26.8163 -63.2278
59.5959 26.8163 68.0387
-91.4567 26.8163 6.8418
72.2416 26.8163 -8.5517
-44.0650 26.8163 32.3450
13.3116 26.8163 52.1634
-65.7953 26.8163 -24.2663
-0.5175 26.8163 30.7268
-95.3226 26.8163 4.6304
44.6021 26.8163 -32.9178
-5.6270 26.8163 -29.0301
-48.5731 26.8163 30.9214
-31.8347 26.8163 -71.8230
-89.3172 26.8163 -53.5161
-26.8529 26.8163 -15.2279
71.0997 26.8163 30.6845
86.8395 26.8163 -21.0558
75.6755 26.8163 -40.0909
-26.3728 26.8163 -46.5080
-7.6551 26.8163 63.4869
71.8075 26.8163 -73.7929
-17.7924 26.8163 -69.9884
90.6083 26.8163 29.8836
18.9712 26.8163 57.9165
-72.2130 26.8163 5.0348
12.6497 26.8163 -30.2634
-73.0883 26.8163 10.2372
-56.9367 26.8163 71.8717
-22.3843 26.8163 42.7776
46.1694 26.8163 70.1572
-6.7534 26.8163 15.4414
90.0908 26.8163 -43.9954
-6.2532 26.8163 3.2059
-36.4052 26.8163 -35.3869
-37.5638 26.8163 -57.5230
-35.7458 26.8163 -65.5096
32.3303 26.8163 39.1573
36.8175 26.8163 -51.8210
39.8921 26.8163 12.7257
41.6517 26.8163 54.1639
-94.5027 26.8163 -15.9784
4.5080 26.8163 6.5582
-11.9361 26.8163 7.2590
85.8695 26.8163 -6.2123
-40.5907 26.8163 -4.7685
-46.0767 26.8163 37.1200
-24.0331 26.8163 3.2226
96.3864 26.8163 65.5191
11.8656 26.8163 48.2139
36.6181 26.8163 -57.9282
5.6001 26.8163 12.0475
-75.4729 26.8163 36.9296
92.8505 26.8163 -19.6985
39.3273 26.8163 -38.0927
63.2113 26.8163 -21.9494
64.1421 26.8163 -10.7796
-96.9249 26.8163 -8.1263
93.5566 26.8163 73.0612
64.2746 26.8163 46.3015
77.6112 26.8163 -70.4356
-27.1821 26.8163 2.0518
32.6484 26.8163 57.3805
-48.4816 26.8163 53.1578
-20.6474 26.8163 1.7976
-5.4096 26.8163 50.8673
-7.6228 26.8163 -34.9075
-22.8913 26.8163 -43.5350
-83.5933 26.8163 -10.7835
-12.9894 26.8163 -20.6307
29.5974 26.8163 -35.5480
-74.6488 26.8163 -35.5201
5.9704 26.8163 -40.9202
31.9681 26.8163 51.4246
-81.1675 26.8163 1.3631
-29.5845 26.8163 32.0348
-43.2154 26.8163 -64.3849
-56.6467 26.8163 -65.7510
37.5694 26.8163 25.8224
-81.1330 26.8163 34.0725
-65.3756 26.8163 21.8681
3.3613 26.8163 12.2673
-65.1695 26.8163 50.6019
30.6226 26.8163 62.8863
83.6624 26.8163 -20.7164
89.2160 26.8163 -18.9698
68.2073 26.8163 67.3773
-8.9910 26.8163 -73.2667
71.4102 26.8163 41.8548
73.0455 26.8163 37.2046
85.8611 26.8163 49.1031
-69.0029 26.8163 -45.5324
-21.0894 26.8163 -38.6513
88.9846 26.8163 40.0334
27.4573 26.8163 56.0375
-97.6985 26.8163 -36.9767
-22.8495 26.8163 6.4540
-74.7104 26.8163 -36.4705
-70.5185 26.8163 -14.9211
52.2111 26.8163 -33.1657
39.6143 26.8163 -14.7553
15.7982 26.8163 41.7857
-0.3180 26.8163 12.1321
70.0242 26.8163 58.2245
-68.7793 26.8163 29.3375
12.7478 26.8163 -35.6027
29.0357 26.8163 62.0227
-44.5335 26.8163 63.4855
-96.5069 26.8163 -31.2183
-53.9715 26.8163 41.1249
-41.5940 26.8163 6.8156
-48.7676 26.8163 -40.9926
-57.9448 26.8163 67.3499
-40.7227 26.8163 63.9712
-91.6150 26.8163 39.2581
91.6159 26.8163 47.0282
60.1528 26.8163 62.0498
-32.0563 26.8163 -57.4270
-29.1547 26.8163 -43.9112
16.3154 -26.8163 30.8714
16.7971 -26.8163 43.6916
-5.7201 -26.8163 45.5445
-78.6272 -26.8163 24.9646
-66.9917 -26.8163 6.5739
-68.9894 -26.8163 -19.3225
-3.6510 -26.8163 -56.7183
-12.1697 -26.8163 48.5348
-77.1002 -26.8163 11.1943
11.5578 -26.8163 -70.4226
-73.3342 -26.8163 -67.1390
80.2233 -26.8163 -21.5905
-42.0433 -26.8163 70.8131
21.0525 -26.8163 -63.0790
-69.0746 -26.8163 37.4782
-55.3686 -26.8163 73.3641
-55.6134 -26.8163 4.9306
34.5093 -26.8163 -18.8198
83.8291 -26.8163 -49.6826
-65.8359 -26.8163 56.7033
69.8435 -26.8163 -38.8729
-98.0356 -26.8163 42.1958
-14.4386 -26.8163 -28.1084
23.3912 -26.8163 -38.2359
-73.1098 -26.8163 65.1612
-87.9920 -26.8163 52.5520
30.4393 -26.8163 -28.0241
88.5726 -26.8163 60.4998
65.9820 -26.8163 -3.0021
-47.8996 -26.8163 -25.0840
-42.3186 -26.8163 57.1201
-84.5472 -26.8163 72.4730
-21.5511 -26.8163 -27.1365
59.6609 -26.8163 -44.5884
2.8011 -26.8163 -41.9779
-94.7759 -26.8163 62.4550
-28.6403 -26.8163 -17.2941
-40.8189 -26.8163 35.2441
38.7388 -26.8163 -64.5296
66.4553 -26.8163 -62.0201
-83.5598 -26.8163 -53.1955
76.8648 -26.8163 13.2291
-16.0997 -26.8163 3.2313
-50.5109 -26.8163 71.5425
-0.0490 -26.8163 -6.4522
34.6610 -26.8163 -63.5326
-1.4551 -26.8163 56.5344
46.9172 -26.8163 -72.8660
7.2598 -26.8163 51.3179
-87.1737 -26.8163 67.9892
9.0971 -26.8163 16.8841
97.5106 -26.8163 -11.6153
-29.5057 -26.8163 -62.8980
12.7880 -26.8163 6.9040
25.4053 -26.8163 -63.7579
-41.2872 -26.8163 -50.5638
47.9529 -26.8163 -32.3715
93.9438 -26.8163 9.7909
54.4435 -26.8163 -23.3276
-20.6253 -26.8163 18.3260
12.5231 -26.8163 -51.6175
86.3438 -26.8163 -16.5333
29.9698 -26.8163 22.8986
-20.5793 -26.8163 33.0014
-89.0495 -26.8163 -15.4306
45.0653 -26.8163 0.1095
81.6922 -26.8163 18.8971
84.1754 -26.8163 65.9967
55.9567 -26.8163 58.0961
-12.0493 -26.8163 40.2604
49.0195 -26.8163 35.3106
26.2510 -26.8163 -65.7169
-43.7501 -26.8163 -5.0639
86.4203 -26.8163 29.6170
-52.6859 -26.8163 35.2713
-13.7478 -26.8163 -1.3981
40.6310 -26.8163 64.0355
33.9069 -26.8163 -57.0916
-57.7503 -26.8163 -25.8380
-36.7376 -26.8163 -2.6057
13.9135 -26.8163 -65.8216
-74.2526 -26.8163 -70.9938
-52.0147 -26.8163 17.5918
-21.4870 -26.8163 -72.0122
-41.5610 -26.8163 67.0371
-86.1866 -26.8163 -14.0071
-15.3335 -26.8163 -48.2273
-75.6052 -26.8163 44.3379
91.7260 -26.8163 -72.3837
59.8567 -26.8163 25.9980
66.2822 -26.8163 -15.9259
-91.0040 -26.8163 -40.8758
34.2132 -26.8163 -4.0704
59.0728 -26.8163 -35.5870
-66.7192 -26.8163 15.1361
86.6986 -26.8163 68.5138
39.7274 -26.8163 -38.4900
-27.8667 -26.8163 -20.7953
28.5020 -26.8163 61.4971
-93.4417 -26.8163 -53.4345
61.7793 -26.8163 6.7471
65.2914 -26.8163 40.0425
23.0127 -26.8163 38.2732
-69.0411 -26.8163 18.2484
-22.8061 -26.8163 -23.6821
35.1978 -26.8163 -47.4736
5.1803 -26.8163 -47.3719
84.8405 -26.8163 27.1449
-46.7465 -26.8163 -67.2290
89.2299 -26.8163 -40.6354
34.9972 -26.8163 -70.0297
16.0719 -26.8163 27.0652
-83.7650 -26.8163 -31.3299
46.0590 -26.8163 69.8241
87.2004 -26.8163 69.0275
21.4151 -26.8163 -34.7744
-81.4256 -26.8163 63.6412
31.5682 -26.8163 55.4980
72.0478 -26.8163 38.3305
-0.7262 -26.8163 -49.5908
64.2583 -26.8163 -67.0978
-65.7425 -26.8163 33.1765
36.2408 -26.8163 24.1390
-96.2633 -26.8163 12.5275
-56.8321 -26.8163 -7.2959
-47.3028 -26.8163 8.3453
46.0091 -26.8163 55.8206
87.5130 -26.8163 73.9139
85.3948 -26.8163 -68.8459
-90.9679 -26.8163 -60.9943
-28.8691 -26.8163 -61.1547
61.5810 -26.8163 -18.5914
17.1843 -26.8163 73.4223
-49.8114 -26.8163 -14.1977
26.6146 -26.8163 -60.1029
-26.4681 -26.8163 -24.8345
88.5097 -26.8163 -60.9571
10.5136 -26.8163 45.8174
58.6950 -26.8163 -69.5159
0.3781 -26.8163 70.2511
-58.9668 -26.8163 -39.7983
-43.1974 -26.8163 62.6985
-81.4151 -26.8163 -31.7137
36.3507 -26.8163 -69.8615
-12.5971 -26.8163 -73.4708
-96.8874 -26.8163 70.6737
78.9383 -26.8163 63.3628
64.6439 -26.8163 71.2804
-83.3996 -26.8163 50.0557
60.6507 -26.8163 4.4768
95.2109 -26.8163 9.3606
-49.4857 -26.8163 38.0536
80.2583 -26.8163 50.0033
13.0563 -26.8163 -44.8464
-63.5078 -26.8163 -26.7299
-83.2352 -26.8163 -65.7561
-52.2168 -26.8163 7.4313
-36.2622 -26.8163 25.3365
-12.4261 -26.8163 19.9507
81.2078 -26.8163 -10.2031
70.3851 -26.8163 67.9820
77.0913 -26.8163 46.2445
-48.4954 -26.8163 -9.2026
4.2221 -26.8163 30.1254
49.2334 -26.8163 18.3811
40.9226 -26.8163 -10.3134
-64.6279 -26.8163 -31.8569
-91.0981 -26.8163 50.0264
93.1404 -26.8163 -8.4428
83.9166 -26.8163 -43.9350
60.9143 -26.8163 -67.5325
15.8910 7.0734 73.9944
94.9441 21.2248 73.9944
-39.0831 -0.2767 73.9944
34.2489 19.5954 73.9944
-0.8303 -25.6847 73.9944
92.0767 18.5694 73.9944
9.1650 -12.4069 73.9944
54.4907 18.9102 73.9944
-19.2900 4.5145 73.9944
96.8891 -25.0801 73.9944
-17.3816 -4.9602 73.9944
0.2327 -2.2323 73.9944
-39.1425 2.0749 73.9944
-8.3443 1.6620 73.9944
8.0498 -8.4263 73.9944
5.0552 24.6378 73.9944
92.9384 8.8121 73.9944
36.0224 2.4213 73.9944
-31.3582 10.2139 73.9944
-78.9003 -20.4298 73.9944
-95.8011 3.7063 73.9944
47.7721 -22.0529 73.9944
26.3241 -10.3371 73.9944
88.6110 21.9690 73.9944
-83.2200 -5.7189 73.9944
13.5720 -20.8484 73.9944
12.8920 -1.1433 73.9944
18.1851 18.6264 73.9944
-17.3662 -7.2581 73.9944
-47.7846 -6.5783 73.9944
46.4023 -21.7664 73.9944
-70.2732 -1.7399 73.9944
84.4817 6.6677 73.9944
-66.6920 -25.6385 73.9944
-89.7000 -2.5917 73.9944
-62.0346 -22.6910 73.9944
84.0997 0.8361 73.9944
-96.1916 7.1321 73.9944
92.8537 25.3860 73.9944
-66.9253 -1.9229 73.9944
-20.4711 7.3042 73.9944
-37.5511 0.9961 73.9944
-84.7939 -11.3014 73.9944
68.1420 25.3099 73.9944
-27.1383 15.5935 73.9944
14.5467 15.2938 73.9944
35.2575 0.8448 73.9944
56.6149 18.4322 73.9944
-36.5772 24.1505 73.9944
87.6005 -18.5799 73.9944
-88.6386 -8.9164 73.9944
-54.5498 6.7856 73.9944
57.9824 15.9484 73.9944
-97.7791 -10.3635 73.9944
47.7102 -8.7248 73.9944
-48.0346 10.4085 73.9944
-29.7154 -16.5173 73.9944
-84.1884 3.6748 73.9944
-53.2897 17.6831 73.9944
-39.2359 12.7004 73.9944
54.3071 -23.6295 73.9944
32.8716 2.6226 73.9944
70.9154 20.1061 73.9944
53.9480 14.5882 73.9944
-22.8777 3.6654 73.9944
81.8795 7.9874 73.9944
-24.3522 -12.7469 73.9944
-4.9467 23.9394 73.9944
-71.4808 -6.5908 73.9944
-37.3084 -23.7258 73.9944
-35.5383 -11.2975 73.9944
31.9850 18.5041 73.9944
72.7467 -19.0230 73.9944
6.4914 23.4831 73.9944
-8.2192 2.9848 73.9944
-74.7930 18.7312 73.9944
24.9532 24.0536 73.9944
31.2990 -8.0394 73.9944
33.5513 -3.2317 73.9944
-86.0934 -2.9826 73.9944
-45.1602 16.4431 73.9944
80.9105 11.4551 73.9944
33.1940 22.5540 73.9944
18.9760 -10.3314 73.9944
68.7621 -4.6759 73.9944
-49.1230 1.4783 73.9944
87.1333 -26.2810 73.9944
58.4735 9.5930 73.9944
-83.1889 10.1046 73.9944
69.1978 -22.8816 73.9944
78.8359 7.6186 73.9944
-9.3052 23.4754 73.9944
50.0851 -19.0766 73.9944
-48.8638 -19.4729 73.9944
5.4179 8.5576 73.9944
18.7396 -19.5336 73.9944
40.5447 15.2973 73.9944
-13.5727 16.9317 73.9944
65.6727 -19.4042 73.9944
-20.5555 -13.9557 73.9944
-13.2162 -3.8950 73.9944
33.9564 10.6878 73.9944
40.7308 12.3466 73.9944
-74.8626 24.8623 73.9944
-62.7170 -23.3679 73.9944
-63.8412 -23.3135 73.9944
-81.1758 -11.4227 73.9944
-90.1233 0.3517 73.9944
-48.8451 -12.4440 73.9944
-19.5755 -23.2946 73.9944
55.8688 -16.7372 73.9944
-32.4373 23.2651 73.9944
-78.6061 24.5041 73.9944
-52.1813 23.4565 73.9944
0.0967 11.1308 73.9944
22.9691 -10.8420 73.9944
-69.1288 8.1758 73.9944
26.5034 -13.5590 73.9944
-71.9840 23.3763 73.9944
-85.9733 24.6464 73.9944
2.7994 -11.6178 73.9944
10.3708 17.8249 73.9944
71.4607 -2.9179 73.9944
80.6371 -24.3258 73.9944
-88.8316 -19.2707 73.9944
-73.9538 8.8407 73.9944
32.1829 -15.0429 73.9944
67.5248 0.1071 73.9944
35.3790 -0.4253 73.9944
71.7994 0.6870 73.9944
-55.3457 2.4232 73.9944
-68.1665 -24.8187 73.9944
30.0602 -7.5252 73.9944
-44.6352 17.9637 73.9944
-37.8488 -24.7394 73.9944
2.2475 -4.8281 73.9944
7.2933 -4.4733 73.9944
15.6930 8.7733 73.9944
-53.9039 18.1608 73.9944
18.4226 23.5148 73.9944
94.5245 -26.1677 73.9944
39.8397 23.1384 73.9944
84.3789 -24.0587 73.9944
-26.9477 4.2076 73.9944
-81.2100 24.2125 73.9944
43.3132 1.2305 73.9944
97.0511 1.1682 73.9944
-96.5404 22.2556 73.9944
-42.2348 2.9498 73.9944
87.4870 2.5253 73.9944
-25.4697 -22.6033 73.9944
91.3586 -21.0614 73.9944
-44.3268 22.4289 73.9944
-97.3832 -14.1364 73.9944
64.1439 23.7675 73.9944
-11.6903 21.2771 73.9944
49.8806 -14.8705 73.9944
91.0866 9.6970 73.9944
-41.7649 20.3762 73.9944
-96.3478 7.1632 73.9944
-9.3533 11.6588 73.9944
96.9327 3.9697 73.9944
24.2365 -7.9088 73.9944
-86.3161 7.0747 73.9944
-6.7188 11.8623 73.9944
28.4627 5.9079 73.9944
-17.0079 -5.3304 73.9944
-21.3216 -7.4852 73.9944
5.4195 2.8330 73.9944
-81.7031 1.8872 73.9944
-6.1706 7.9613 -73.9944
6.0153 12.0678 -73.9944
52.4781 -6.4177 -73.9944
59.4944 18.3409 -73.9944
8.1002 -26.7125 -73.9944
-51.7115 -11.1003 -73.9944
-85.5816 -23.7646 -73.9944
12.6813 -23.0106 -73.9944
-25.2445 -26.6875 -73.9944
-76.6759 -8.3811 -73.9944
64.9823 -0.8808 -73.9944
8.2404 -22.0833 -73.9944
48.9267 8.5540 -73.9944
-57.6273 -0.6425 -73.9944
5.4807 -0.8762 -73.9944
9.9828 -21.9161 -73.9944
75.9172 -7.8209 -73.9944
-87.4250 -21.7657 -73.9944
49.8533 21.5305 -73.9944
76.7299 -1.8011 -73.9944
-94.4234 22.0666 -73.9944
90.5997 -20.6947 -73.9944
92.7587 -12.8946 -73.9944
82.1058 13.3913 -73.9944
-53.3869 -7.0531 -73.9944
61.4551 6.2287 -73.9944
51.8562 -20.7790 -73.9944
40.8152 25.7492 -73.9944
19.1562 17.6056 -73.9944
-23.6281 -25.5783 -73.9944
-71.1392 -4.0997 -73.9944
65.1583 -0.7086 -73.9944
69.9121 -0.3410 -73.9944
15.9760 11.4724 -73.9944
-41.6356 -14.5839 -73.9944
83.0260 -11.5659 -73.9944
-88.9390 1.9952 -73.9944
23.9094 9.0753 -73.9944
-58.9720 17.9478 -73.9944
-72.5647 18.6620 -73.9944
16.8189 -15.2966 -73.9944
-29.4554 4.0717 -73.9944
81.6880 -21.9547 -73.9944
34.0558 25.9130 -73.9944
37.1177 -24.3823 -73.9944
-32.5407 10.5856 -73.9944
-24.8890 -23.2512 -73.9944
86.3208 9.8679 -73.9944
-77.0365 13.0236 -73.9944
71.5019 11.4174 -73.9944
-47.8832 -21.3107 -73.9944
-18.8021 -6.4245 -73.9944
-44.5074 -22.3714 -73.9944
-0.1723 19.3343 -73.9944
-66.8816 12.0529 -73.9944
-35.3067 15.4537 -73.9944
29.5388 -16.7907 -73.9944
-3.6805 -0.5245 -73.9944
12.0872 10.5929 -73.9944
30.6417 -10.3358 -73.9944
80.2915 11.8493 -73.9944
-75.8355 -17.7979 -73.9944
-71.3085 -26.0564 -73.9944
68.0931 -15.1295 -73.9944
97.9215 10.0104 -73.9944
-29.5237 -12.4789 -73.9944
56.8300 -18.3807 -73.9944
-11.6701 17.0247 -73.9944
8.3268 -21.3884 -73.9944
65.6565 -7.0334 -73.9944
-51.3188 -25.8592 -73.9944
-20.1172 -14.3839 -73.9944
31.9630 -18.1882 -73.9944
-52.4213 -12.1348 -73.9944
37.8400 17.3577 -73.9944
45.9863 -18.2278 -73.9944
-17.2312 -8.1216 -73.9944
-61.7028 5.5173 -73.9944
10.5101 18.3326 -73.9944
-83.5939 10.8951 -73.9944
65.9585 -11.5003 -73.9944
-68.1673 3.7262 -73.9944
-78.8231 13.8833 -73.9944
-83.3092 16.2608 -73.9944
-22.0651 25.7389 -73.9944
-46.9298 18.2935 -73.9944
1.2922 14.0960 -73.9944
67.3138 8.7121 -73.9944
40.8888 11.0415 -73.9944
97.1796 -22.5158 -73.9944
-62.5169 20.6634 -73.9944
-71.1103 6.7023 -73.9944
23.9814 -16.3164 -73.9944
60.7931 1.5744 -73.9944
-12.8248 9.9410 -73.9944
32.1111 -22.6151 -73.9944
30.4152 24.0373 -73.9944
37.7548 18.3662 -73.9944
53.9347 -2.8320 -73.9944
-95.3217 7.0458 -73.9944
-85.0927 -4.7783 -73.9944
77.9560 17.4148 -73.9944
-46.9362 2.8168 -73.9944
95.3826 16.8708 -73.9944
33.2418 16.9484 -73.9944
-30.4717 24.1976 -73.9944
3.7487 -25.9857 -73.9944
-88.7889 -23.4144 -73.9944
-20.4045 -10.6666 -73.9944
43.6007 17.9212 -73.9944
-81.5613 19.1676 -73.9944
-11.3051 -9.8591 -73.9944
31.5807 -22.7904 -73.9944
-75.4787 2.4304 -73.9944
-52.2187 13.9573 -73.9944
-73.8393 0.0279 -73.9944
-40.8702 -9.0276 -73.9944
27.4011 9.1438 -73.9944
-29.1240 4.9625 -73.9944
-58.5264 11.1027 -73.9944
-38.4128 -15.7959 -73.9944
16.9820 -7.3032 -73.9944
-9.2362 4.1656 -73.9944
50.8152 6.2722 -73.9944
-75.7038 5.9498 -73.9944
-68.3355 10.5194 -73.9944
-57.4146 -19.0315 -73.9944
19.1064 9.9409 -73.9944
-1.0658 20.4051 -73.9944
-62.8282 10.8922 -73.9944
-89.3989 26.5355 -73.9944
19.9025 -12.5278 -73.9944
-32.9261 -21.0165 -73.9944
3.9296 4.5589 -73.9944
84.6489 -14.2796 -73.9944
-60.1507 14.7297 -73.9944
-71.7132 6.0534 -73.9944
24.2152 -19.0033 -73.9944
-33.0217 20.7392 -73.9944
-35.0090 1.3309 -73.9944
6.7103 -18.0291 -73.9944
17.5949 14.9194 -73.9944
37.3790 0.1211 -73.9944
-73.3176 -0.3866 -73.9944
68.5568 11.4586 -73.9944
55.5366 -20.0638 -73.9944
-90.7690 2.3730 -73.9944
3.9453 -2.2598 -73.9944
52.0913 -5.9364 -73.9944
11.6758 -7.6156 -73.9944
-30.3326 -1.6084 -73.9944
79.4468 16.3367 -73.9944
22.2598 11.9423 -73.9944
-9.1846 -4.1693 -73.9944
20.8279 11.5336 -73.9944
11.3197 -26.2955 -73.9944
30.2850 3.4305 -73.9944
-52.6211 21.5419 -73.9944
9.3633 -9.0128 -73.9944
-85.6835 -2.1403 -73.9944
29.1052 -8.7719 -73.9944
26.0671 -11.6933 -73.9944
-1.1373 8.6801 -73.9944
-44.4985 -15.6654 -73.9944
25.1344 -15.1591 -73.9944
-61.4010 22.8764 -73.9944
-3.3422 -6.7190 -73.9944
98.0617 -1.1468 -73.9944
-47.7853 15.0408 -73.9944
-52.2584 -8.2255 -73.9944
