ply
format ascii 1.0
element vertex 1024
property float x
property float y
property float z
end_header
50.0000 9.3113 -13.6830
50.0000 1.0866 16.9534
50.0000 -3.4076 22.3820
50.0000 -4.3683 -28.8982
50.0000 -0.0415 -27.0455
50.0000 0.4128 -19.5716
50.0000 -10.8453 -13.5541
50.0000 -6.6421 18.3670
50.0000 -5.1808 25.6253
50.0000 -2.2674 -4.8772
50.0000 -6.1187 17.1642
50.0000 -7.8618 26.9211
50.0000 -3.0644 -1.3538
50.0000 -11.2729 -13.5556
50.0000 5.4077 19.4342
50.0000 0.0078 19.3357
50.0000 -3.1726 7.7616
50.0000 3.4977 -2.0645
50.0000 -10.8013 -16.0470
50.0000 10.4633 -12.0638
50.0000 -1.3139 -16.6615
50.0000 13.1772 -28.3556
50.0000 1.5942 -20.7903
50.0000 -9.7013 20.4989
50.0000 6.5727 6.3568
50.0000 -1.9348 9.5601
50.0000 -12.0772 8.7619
50.0000 5.5224 -24.5053
50.0000 -0.4973 -25.6715
50.0000 10.9169 14.3757
50.0000 0.7262 24.2066
50.0000 -3.0099 20.9150
50.0000 14.2492 18.8717
50.0000 11.7638 -11.6352
50.0000 -14.3905 9.8350
50.0000 3.8656 -29.1823
50.0000 -1.0929 -20.7708
50.0000 14.1791 -20.9463
50.0000 5.3990 -26.4698
50.0000 5.7713 3.6074
50.0000 5.1610 -4.5445
50.0000 4.6545 3.8256
50.0000 -14.2765 19.9245
50.0000 2.4222 8.7421
50.0000 -11.0468 -27.1392
50.0000 10.6487 -1.3630
50.0000 -13.6857 6.2770
50.0000 -12.2325 -5.9403
50.0000 -6.3949 -6.1312
50.0000 3.0263 -9.8659
50.0000 9.9647 24.4203
50.0000 12.0395 -7.7775
50.0000 11.2022 -25.7817
50.0000 3.8780 -12.3844
50.0000 -1.3511 20.9977
50.0000 -9.4279 -13.8786
50.0000 0.9880 23.3511
50.0000 -11.3433 2.9217
50.0000 14.3168 -29.3955
50.0000 -6.9585 -22.2918
50.0000 -2.5224 -3.5319
50.0000 -4.6404 11.0811
50.0000 -4.6357 -1.7385
50.0000 7.3657 26.4975
50.0000 -7.8749 17.7080
50.0000 -14.1162 11.8750
50.0000 -6.3060 -27.6550
50.0000 -10.4632 21.0719
50.0000 -4.9706 0.3116
50.0000 -10.1911 -4.8607
50.0000 2.0114 6.0443
50.0000 1.9410 28.3141
50.0000 -13.3457 24.7466
50.0000 2.7465 1.2923
50.0000 -0.5933 -3.7708
50.0000 -14.3636 1.6226
50.0000 -5.7595 19.4792
50.0000 -10.7881 -16.5607
50.0000 -5.9281 8.3020
50.0000 8.8973 13.5813
50.0000 2.8934 -21.4093
50.0000 -7.2324 -4.9574
50.0000 4.3416 -26.0205
50.0000 -7.0917 22.6946
50.0000 9.5979 -7.0786
50.0000 7.6397 -13.1618
-50.0000 -6.5809 -1.7486
-50.0000 -0.0684 -22.9675
-50.0000 -3.1433 4.0576
-50.0000 6.1874 -6.4395
-50.0000 5.8557 6.9942
-50.0000 -6.3693 8.0948
-50.0000 -12.9640 -14.3058
-50.0000 8.8952 -16.4226
-50.0000 8.0269 -21.6015
-50.0000 3.7694 14.4289
-50.0000 9.2053 19.7870
-50.0000 -11.1112 -14.5594
-50.0000 10.4231 -7.3010
-50.0000 10.0561 -28.8457
-50.0000 -1.4034 -24.6364
-50.0000 -1.8143 1.8226
-50.0000 0.5254 -3.4882
-50.0000 13.7576 23.1323
-50.0000 -6.4735 -9.8701
-50.0000 4.5807 2.6073
-50.0000 5.2260 3.3522
-50.0000 -11.4012 11.6485
-50.0000 -4.8740 4.6904
-50.0000 11.0929 -8.4857
-50.0000 4.3280 -27.1249
-50.0000 -1.3146 13.6906
-50.0000 14.8009 -2.9924
-50.0000 -11.7030 -12.3600
-50.0000 -14.2006 28.5519
-50.0000 13.1458 14.8679
-50.0000 12.3476 -25.0006
-50.0000 14.1792 -25.3992
-50.0000 6.7180 -9.5779
-50.0000 5.6566 16.9184
-50.0000 3.3709 -21.5175
-50.0000 -0.2207 -4.3604
-50.0000 -2.1989 19.3925
-50.0000 -14.9402 -28.1377
-50.0000 3.1067 -24.8868
-50.0000 14.4978 -8.0268
-50.0000 1.0309 18.2126
-50.0000 7.0994 4.8576
-50.0000 -13.1611 -0.7573
-50.0000 -5.2586 -6.4510
-50.0000 -8.9567 -6.9189
-50.0000 9.4418 -20.8593
-50.0000 -7.1678 27.4276
-50.0000 2.4949 -22.6506
-50.0000 -1.2803 17.3463
-50.0000 -1.8160 -19.2204
-50.0000 13.6126 10.6134
-50.0000 -6.4917 -21.7375
-50.0000 -6.0729 -10.6990
-50.0000 13.0889 -12.3389
-50.0000 2.8036 -5.3611
-50.0000 -0.8066 -12.1345
-50.0000 9.3527 26.7080
-50.0000 -12.9949 -15.0215
-50.0000 -7.6099 -21.8601
-50.0000 -13.3131 -20.2634
-50.0000 12.3991 21.4870
-50.0000 -5.0322 -10.5396
-50.0000 9.7851 -27.7277
-50.0000 3.9058 -0.1365
-50.0000 -10.1471 13.8852
-50.0000 5.7666 -24.3592
-50.0000 12.2585 25.7213
-50.0000 -13.1019 23.9019
-50.0000 2.9489 17.2139
-50.0000 -9.7508 -20.7572
-50.0000 -4.0580 23.1120
-50.0000 -2.4802 5.5510
-50.0000 -2.9622 -13.7091
-50.0000 -2.4370 15.1328
-50.0000 7.5152 -26.1458
-50.0000 -11.2014 29.3416
-50.0000 1.1861 13.5242
-50.0000 -13.8057 -3.6410
-50.0000 2.4379 -12.9474
-50.0000 12.7126 4.9762
-50.0000 -0.1200 23.7134
-50.0000 -0.3570 0.5031
-50.0000 6.2643 28.0764
-50.0000 12.6132 9.7973
-50.0000 1.7739 11.0648
-50.0000 5.2931 13.9865
21.1701 15.0000 -9.5984
-49.7399 15.0000 14.2675
-0.5236 15.0000 -2.8572
-34.4978 15.0000 24.3377
-25.0384 15.0000 -14.6052
5.2105 15.0000 0.5831
30.3768 15.0000 -16.3287
-0.0106 15.0000 -10.7683
6.3538 15.0000 29.3030
-23.9868 15.0000 7.7826
-49.6610 15.0000 25.7826
48.2901 15.0000 -17.7744
45.6193 15.0000 3.9797
-21.1866 15.0000 17.3387
24.4548 15.0000 22.8226
-1.7475 15.0000 -3.2954
-20.8993 15.0000 9.7949
-21.1661 15.0000 -21.0784
0.9383 15.0000 4.5303
-0.8875 15.0000 -24.8235
24.9196 15.0000 13.5365
-0.9986 15.0000 -28.2725
47.8527 15.0000 20.9459
37.7851 15.0000 24.4007
10.7777 15.0000 8.8111
16.3189 15.0000 -2.8620
-46.7841 15.0000 29.3339
-5.3242 15.0000 18.8181
-17.0326 15.0000 15.8139
-5.6593 15.0000 2.7414
29.5246 15.0000 -17.4639
-16.1665 15.0000 -22.4337
25.5304 15.0000 3.8245
29.2659 15.0000 -20.7203
44.2514 15.0000 -0.6246
-27.7372 15.0000 27.3838
3.5282 15.0000 29.5338
43.2434 15.0000 -2.3934
21.3902 15.0000 21.8094
8.5622 15.0000 5.5634
6.7640 15.0000 28.2433
5.2025 15.0000 -20.7308
45.6275 15.0000 -25.8549
48.2419 15.0000 -23.5717
23.6617 15.0000 26.8162
-11.0506 15.0000 -7.8252
13.9985 15.0000 -3.5017
44.5501 15.0000 -16.1387
-30.3131 15.0000 22.6246
5.6817 15.0000 -28.0993
23.2711 15.0000 -8.8878
-0.6574 15.0000 -1.5077
2.7003 15.0000 -29.1887
1.3049 15.0000 -22.1299
46.0563 15.0000 15.3804
-41.9998 15.0000 -0.6035
40.2616 15.0000 -16.5863
-29.0442 15.0000 -15.4873
33.4459 15.0000 -19.4108
-12.0896 15.0000 -16.5220
-46.1317 15.0000 -12.0756
13.9434 15.0000 -22.0967
-28.4291 15.0000 -0.0733
-24.6098 15.0000 -6.3192
31.2812 15.0000 -25.8056
2.0998 15.0000 13.1669
2.0684 15.0000 -1.8407
37.6711 15.0000 23.0274
3.7321 15.0000 -29.0811
40.2340 15.0000 -5.3478
-10.2368 15.0000 -7.4916
-28.5838 15.0000 -16.4245
20.1381 15.0000 -15.8543
-15.8658 15.0000 22.7132
33.3654 15.0000 -2.1723
19.7880 15.0000 16.7053
-27.9978 15.0000 11.0372
13.7648 15.0000 18.7055
-9.0018 15.0000 18.1025
27.1545 15.0000 -15.3473
-11.0522 15.0000 -2.1835
-39.7851 15.0000 -21.3122
19.5022 15.0000 10.3291
19.7168 15.0000 10.4394
-36.1196 15.0000 -4.1263
2.9776 -15.0000 1.9043
-0.4120 -15.0000 -17.2263
-12.1277 -15.0000 -2.7622
7.2344 -15.0000 -1.4913
36.8785 -15.0000 -4.6976
44.6623 -15.0000 -7.4206
3.6544 -15.0000 -11.0343
47.4587 -15.0000 -21.8914
15.1280 -15.0000 -3.4712
2.6946 -15.0000 26.9731
-19.0457 -15.0000 -19.7010
-47.5006 -15.0000 -6.8270
0.2731 -15.0000 -7.3657
48.1749 -15.0000 3.7608
1.7824 -15.0000 -21.0899
42.3957 -15.0000 -3.5493
-13.9923 -15.0000 -18.3528
-17.5220 -15.0000 24.4809
10.3372 -15.0000 -27.1441
-13.4308 -15.0000 17.9520
35.8005 -15.0000 -26.3990
26.1153 -15.0000 -5.5324
17.2136 -15.0000 1.5313
35.8985 -15.0000 12.5683
-1.2909 -15.0000 -10.5565
26.4334 -15.0000 13.3256
-4.0975 -15.0000 -10.7383
32.2918 -15.0000 -22.2238
-24.7645 -15.0000 -11.8471
21.6293 -15.0000 1.7715
22.5920 -15.0000 -18.6332
15.2642 -15.0000 -16.8546
15.9261 -15.0000 27.0069
-40.2437 -15.0000 -12.3600
26.2785 -15.0000 28.6475
-12.7467 -15.0000 17.5659
47.7245 -15.0000 8.5399
-1.7537 -15.0000 -11.2962
-25.0739 -15.0000 -11.3346
43.6563 -15.0000 26.4827
36.3084 -15.0000 -4.7368
-14.6014 -15.0000 26.6996
41.0960 -15.0000 3.9954
38.9421 -15.0000 -10.8825
45.9225 -15.0000 -11.6257
13.5234 -15.0000 -28.1358
40.5731 -15.0000 -13.5250
34.7679 -15.0000 21.8907
-32.7826 -15.0000 -0.2239
-46.6215 -15.0000 -8.4642
-47.2988 -15.0000 -0.9530
-32.6758 -15.0000 -5.0800
14.2732 -15.0000 2.4379
26.8413 -15.0000 -25.9485
-21.6943 -15.0000 -1.2537
17.9382 -15.0000 20.4354
46.9166 -15.0000 -1.4729
-9.1024 -15.0000 28.5940
26.9858 -15.0000 28.9097
6.7691 -15.0000 20.7549
-41.6167 -15.0000 -20.7344
33.5605 -15.0000 -9.4912
37.9864 -15.0000 5.0284
26.0383 -15.0000 -3.7523
-20.4621 -15.0000 -23.2897
2.1523 -15.0000 -17.9490
-28.5577 -15.0000 5.0179
-2.2082 -15.0000 -17.7980
-35.3630 -15.0000 9.8571
41.9117 -15.0000 -5.8615
-2.4738 -15.0000 19.7627
-38.0380 -15.0000 3.2602
30.4407 -15.0000 21.5983
-47.1299 -15.0000 -26.6653
-9.6841 -15.0000 -1.4712
41.4346 -15.0000 -16.8133
-7.3780 -15.0000 13.1490
11.9507 -15.0000 19.2579
6.9273 -15.0000 -29.9316
-15.2617 -15.0000 -25.5760
1.9582 -15.0000 14.1268
-34.6823 -15.0000 14.2646
20.7499 -15.0000 13.4037
-23.9237 -15.0000 -29.3012
-10.0242 -15.0000 21.5480
20.4179 9.5936 30.0000
-41.6089 13.9282 30.0000
-21.7134 -6.0399 30.0000
45.7534 11.7990 30.0000
-13.1314 -7.2049 30.0000
44.1095 8.4643 30.0000
9.0186 -13.6131 30.0000
-29.3305 3.1986 30.0000
36.9834 1.5295 30.0000
10.6702 5.1105 30.0000
25.3432 5.9723 30.0000
15.4566 0.8758 30.0000
48.5637 6.6085 30.0000
23.2581 2.7886 30.0000
-36.1580 6.3380 30.0000
21.7487 10.3397 30.0000
10.3288 0.6113 30.0000
34.6130 9.9029 30.0000
22.4022 4.4958 30.0000
0.7243 7.2384 30.0000
6.2475 5.9804 30.0000
-37.2190 6.7938 30.0000
34.1364 6.2645 30.0000
37.1864 8.2552 30.0000
21.5689 -14.3565 30.0000
28.1196 14.4580 30.0000
23.0098 4.8005 30.0000
-8.7717 13.9868 30.0000
-35.3090 -14.5699 30.0000
20.9919 5.6614 30.0000
-45.9477 -6.0286 30.0000
-7.2990 -10.7973 30.0000
20.5044 9.0968 30.0000
16.5778 8.8327 30.0000
16.1100 11.4571 30.0000
39.0579 12.7118 30.0000
-35.9197 -10.9095 30.0000
17.4807 4.0426 30.0000
-49.8018 14.2275 30.0000
29.5194 -6.2996 30.0000
30.2228 -4.8137 30.0000
35.3264 10.1698 30.0000
9.1772 -5.2279 30.0000
-12.3265 -12.3820 30.0000
3.8729 12.1934 30.0000
33.3768 14.0470 30.0000
16.3047 13.8871 30.0000
19.6742 -9.8832 30.0000
-33.3412 -11.8265 30.0000
-43.8707 11.8341 30.0000
-12.3887 0.2724 30.0000
11.0596 2.9532 30.0000
22.2691 11.4650 30.0000
25.9426 9.2066 30.0000
20.6628 8.8501 30.0000
30.5753 -10.1416 30.0000
4.0099 2.4908 30.0000
1.6901 -11.9102 30.0000
0.3813 7.4188 30.0000
3.8452 -5.0446 30.0000
11.3390 4.4782 30.0000
35.1794 -12.6947 30.0000
-34.4378 -0.0353 30.0000
-0.7569 7.0257 30.0000
-10.0551 5.8399 30.0000
-43.1596 -4.2523 30.0000
-35.9151 5.8973 30.0000
-11.7067 -11.9292 30.0000
-37.8787 -6.6117 30.0000
3.2459 13.7634 30.0000
-40.3138 3.5986 30.0000
42.3534 7.6071 30.0000
10.0207 9.5608 30.0000
3.0281 11.1052 30.0000
9.0088 -4.2221 30.0000
41.6153 -14.0617 30.0000
-23.7908 7.7135 30.0000
32.6287 11.8521 30.0000
31.0778 -0.4082 30.0000
-16.6351 1.9066 30.0000
11.6777 -11.5757 30.0000
10.8779 -4.4768 30.0000
-13.2337 -2.1279 30.0000
45.8241 -3.4178 30.0000
-34.2664 14.9830 30.0000
-29.9878 -4.6705 -30.0000
-8.9609 14.5264 -30.0000
20.7722 6.8623 -30.0000
-11.5931 6.8299 -30.0000
20.0211 13.6745 -30.0000
49.0196 14.3473 -30.0000
45.3143 11.7172 -30.0000
-32.0839 -10.5671 -30.0000
2.9408 -6.3511 -30.0000
1.6255 2.5775 -30.0000
-44.2582 -0.1597 -30.0000
32.7905 -10.5825 -30.0000
7.3926 7.1657 -30.0000
38.2314 2.3374 -30.0000
-27.5225 3.0760 -30.0000
-26.1290 -14.1811 -30.0000
-3.0573 -3.8610 -30.0000
-18.9074 0.1605 -30.0000
42.8132 -11.5222 -30.0000
40.3765 -6.0940 -30.0000
-17.5630 -11.3847 -30.0000
31.8891 2.3014 -30.0000
-35.3369 -7.3438 -30.0000
-5.2377 7.5997 -30.0000
43.1462 -2.3204 -30.0000
-39.2161 3.5503 -30.0000
23.3863 6.0123 -30.0000
-44.2391 -10.5246 -30.0000
-39.6532 -11.8665 -30.0000
5.9050 2.6303 -30.0000
47.4089 -12.1619 -30.0000
24.9226 7.7196 -30.0000
11.3976 -2.0991 -30.0000
-1.9023 7.9472 -30.0000
9.8011 10.2142 -30.0000
18.6587 12.0299 -30.0000
-32.4955 14.0505 -30.0000
1.2749 11.6890 -30.0000
34.5937 -8.9334 -30.0000
-31.2385 -6.9336 -30.0000
-3.9105 7.1526 -30.0000
-42.2144 13.9610 -30.0000
-26.1702 -5.5908 -30.0000
27.2499 -2.1755 -30.0000
-5.9769 -14.5977 -30.0000
6.2994 6.4272 -30.0000
41.6467 10.1465 -30.0000
7.7857 -14.8659 -30.0000
46.0114 -2.7251 -30.0000
23.6186 5.7096 -30.0000
-17.9033 -3.4466 -30.0000
23.6708 9.7430 -30.0000
-25.4650 -2.8191 -30.0000
-43.9972 13.5595 -30.0000
41.6896 -5.7137 -30.0000
-29.1404 7.7037 -30.0000
30.5228 11.0690 -30.0000
-11.3924 6.6867 -30.0000
20.4010 3.0993 -30.0000
-46.0012 -12.9925 -30.0000
24.2488 -12.7047 -30.0000
10.8713 6.5978 -30.0000
-6.3850 -14.4234 -30.0000
-20.5981 -1.7637 -30.0000
31.0414 7.3520 -30.0000
-3.7983 9.8283 -30.0000
-44.2537 -8.0360 -30.0000
-47.7058 -8.3007 -30.0000
17.3412 13.3011 -30.0000
-10.3220 2.5748 -30.0000
-13.0316 5.4356 -30.0000
-23.4711 -2.5481 -30.0000
47.3626 7.3890 -30.0000
34.0580 7.3535 -30.0000
-20.8872 6.5163 -30.0000
19.6841 -0.5259 -30.0000
19.3306 2.4580 -30.0000
23.2046 -8.8315 -30.0000
19.1240 14.2951 -30.0000
-48.7417 11.2264 -30.0000
-16.1962 -6.7926 -30.0000
48.0944 -0.5766 -30.0000
-43.2941 -13.1364 -30.0000
49.2558 -12.9017 -30.0000
11.2537 -2.7484 -30.0000
15.0000 83.6629 -4.2348
15.0000 65.2796 -7.7623
15.0000 84.8429 -0.1238
15.0000 13.5246 11.4090
15.0000 4.8467 23.1230
15.0000 5.4828 3.6835
15.0000 5.4436 -15.4025
15.0000 18.9400 5.3317
15.0000 69.7400 18.8043
15.0000 12.5880 -6.8193
15.0000 -5.9233 -14.4697
15.0000 30.1978 6.7363
15.0000 56.7605 -21.7037
15.0000 37.4736 25.6078
15.0000 61.1604 19.5659
15.0000 -12.6259 -2.7760
15.0000 26.1892 -23.0642
15.0000 58.6176 -7.8625
15.0000 81.6219 15.2591
15.0000 76.2782 26.9486
15.0000 71.1248 -28.7132
15.0000 74.6982 -10.1922
15.0000 77.8561 16.5902
15.0000 55.6061 27.3827
15.0000 78.7041 -14.7655
15.0000 -12.6831 -21.4475
15.0000 -12.6481 -10.8005
15.0000 14.9719 -9.4434
15.0000 42.3825 3.2734
15.0000 52.0593 -15.3886
15.0000 25.6945 17.2345
15.0000 67.3764 -7.8293
15.0000 37.9978 6.3079
15.0000 79.0704 -29.8590
15.0000 49.5483 9.9581
15.0000 32.0948 -25.7990
15.0000 61.5667 2.0583
15.0000 57.8559 4.5405
15.0000 -5.7943 13.0724
15.0000 17.6389 -2.8926
15.0000 10.6400 28.3648
15.0000 6.6969 -13.5287
15.0000 -6.0000 21.9694
15.0000 77.7323 5.1279
15.0000 -4.1479 20.4721
15.0000 21.9760 -21.1718
15.0000 45.9337 -3.7059
15.0000 19.7599 -5.0585
15.0000 27.9089 -2.3045
15.0000 5.8624 -15.9356
15.0000 60.3476 -7.7874
15.0000 49.7103 -8.6701
15.0000 32.9225 -16.3788
15.0000 77.0118 -14.2102
15.0000 60.5995 -10.8274
15.0000 2.1082 -4.8546
15.0000 -2.4856 10.4157
15.0000 54.6960 25.0320
15.0000 51.7247 -17.9475
15.0000 11.6394 -5.6889
15.0000 13.1062 17.5632
15.0000 84.7123 -12.0362
15.0000 31.5568 -16.1570
15.0000 21.8843 27.6039
15.0000 49.2489 -4.6133
15.0000 54.5265 -22.4158
15.0000 -13.4181 -19.5463
15.0000 22.6553 6.2512
15.0000 28.3633 -6.1739
15.0000 83.7579 -28.9963
15.0000 51.3565 -10.8188
15.0000 10.7817 -29.2134
15.0000 79.9158 27.0648
15.0000 69.2303 27.2703
15.0000 -14.9266 25.8876
15.0000 2.6054 -1.1234
15.0000 46.4076 13.9080
15.0000 43.9622 16.3577
15.0000 16.4514 26.4870
15.0000 16.1435 -7.0414
15.0000 64.0611 4.6228
15.0000 9.6740 18.7424
15.0000 -13.5002 18.4055
15.0000 38.5683 8.4037
15.0000 84.5768 18.0832
15.0000 43.1599 -4.8682
-15.0000 4.4757 -3.7148
-15.0000 41.9847 4.0777
-15.0000 54.6772 -23.5281
-15.0000 66.2527 -29.0278
-15.0000 -0.9830 -26.7339
-15.0000 29.7945 -0.7076
-15.0000 -7.7233 26.0312
-15.0000 -6.4070 26.9012
-15.0000 78.7577 4.2644
-15.0000 -2.9040 15.1316
-15.0000 -5.1152 18.3061
-15.0000 35.8150 16.9906
-15.0000 -14.7108 -4.2674
-15.0000 -7.9068 6.2701
-15.0000 11.2844 25.5280
-15.0000 82.5149 27.6293
-15.0000 66.8548 6.0944
-15.0000 -13.1996 24.9091
-15.0000 8.7039 -20.9438
-15.0000 74.7515 -19.9669
-15.0000 71.1634 -26.7211
-15.0000 68.1573 -21.9995
-15.0000 77.9857 -12.7161
-15.0000 14.9847 2.4423
-15.0000 64.9263 -5.4291
-15.0000 10.4467 22.9196
-15.0000 83.5042 24.2541
-15.0000 73.2510 -26.5257
-15.0000 72.2880 24.4369
-15.0000 -0.0339 -7.0704
-15.0000 27.2450 27.1588
-15.0000 29.8036 -27.6655
-15.0000 -2.2439 -3.0202
-15.0000 63.0610 4.5865
-15.0000 9.5425 13.2717
-15.0000 50.2134 -10.1246
-15.0000 52.3351 5.7330
-15.0000 -4.9088 -9.0182
-15.0000 74.0123 -20.2623
-15.0000 13.5396 23.9968
-15.0000 75.6833 -26.8476
-15.0000 26.9458 2.2390
-15.0000 7.4848 -16.7446
-15.0000 -2.4418 21.2927
-15.0000 31.1632 23.8854
-15.0000 29.3273 -20.0476
-15.0000 17.9290 11.0890
-15.0000 5.4088 4.5493
-15.0000 27.4271 -18.4961
-15.0000 -3.0177 6.8063
-15.0000 40.0091 -7.9511
-15.0000 -13.1849 -28.7377
-15.0000 18.6323 -15.6952
-15.0000 16.2879 13.2885
-15.0000 74.0941 23.5480
-15.0000 23.7122 -23.9081
-15.0000 75.6881 -26.8777
-15.0000 70.9132 -9.1446
-15.0000 35.3719 -22.2625
-15.0000 44.5023 2.6877
-15.0000 -14.6015 -16.9475
-15.0000 77.9925 -23.5407
-15.0000 83.3976 26.0852
-15.0000 -4.8191 -20.2312
-15.0000 78.1461 3.5617
-15.0000 9.8794 -19.9436
-15.0000 -8.2763 8.8798
-15.0000 31.3292 6.2703
-15.0000 63.9754 5.2088
-15.0000 63.1338 5.7275
-15.0000 52.4049 -12.3392
-15.0000 68.3054 27.2397
-15.0000 6.7261 21.7357
-15.0000 75.6435 -16.9324
-15.0000 40.6246 23.5424
-15.0000 56.9625 -2.0698
-15.0000 35.0105 17.4358
-15.0000 -5.6811 -26.8812
-15.0000 31.5929 1.6491
-15.0000 46.0591 18.8462
-15.0000 81.2958 -21.2028
-15.0000 5.4413 -9.6004
-15.0000 7.3563 29.1964
-15.0000 -9.1101 -25.2085
-15.0000 62.9500 -29.9395
-15.0000 6.1501 20.7980
1.3155 85.0000 -25.3414
-12.0118 85.0000 1.8593
-1.4266 85.0000 -17.0036
-5.4650 85.0000 22.7734
0.1114 85.0000 -29.5572
-9.8663 85.0000 -26.3159
12.6103 85.0000 -13.0504
0.7313 85.0000 28.6148
3.4693 85.0000 7.8272
8.0167 85.0000 7.5736
9.4260 85.0000 -6.5503
5.4034 85.0000 -17.9192
9.7029 85.0000 -27.2772
6.0432 85.0000 -15.7593
11.4373 85.0000 -24.3572
0.2463 85.0000 15.5770
-7.4296 85.0000 -26.7177
-14.4163 85.0000 6.0155
3.2526 85.0000 -24.9023
-1.7429 85.0000 24.4796
5.7835 85.0000 17.5461
0.4688 85.0000 7.8551
5.7795 85.0000 -28.0126
-9.1677 85.0000 -6.7563
5.4984 85.0000 -8.6861
13.1449 85.0000 -25.0690
-1.1679 85.0000 -13.5736
-11.5290 85.0000 22.3143
2.7884 85.0000 23.5883
7.8993 85.0000 3.8603
-10.7523 85.0000 23.8085
-7.2140 85.0000 -7.5186
2.8813 85.0000 13.2601
-3.3348 85.0000 12.7211
6.2170 85.0000 29.4228
-12.3170 85.0000 4.0907
-12.4291 85.0000 -15.3414
4.8499 85.0000 -1.3975
-6.7443 85.0000 -8.0114
-13.7066 85.0000 -5.4297
-3.2002 85.0000 26.2446
10.5244 85.0000 9.7990
9.6451 85.0000 3.6058
13.3883 85.0000 -25.5753
-3.1083 85.0000 3.7835
-9.2747 85.0000 -7.4612
-7.3149 85.0000 -6.7125
9.9149 85.0000 -23.6158
-6.3171 85.0000 -22.2005
4.7562 85.0000 2.9821
14.3549 85.0000 28.9339
6.1956 85.0000 -25.2840
-5.7031 85.0000 1.5871
7.6104 85.0000 18.5466
-12.5106 85.0000 -16.7114
13.9423 85.0000 20.1566
-5.1488 85.0000 24.5007
-8.8733 85.0000 -11.4490
-3.2633 85.0000 -16.9478
-7.2884 85.0000 10.9406
-3.2165 85.0000 7.0583
-9.9242 85.0000 -20.4084
1.5238 85.0000 -18.0994
6.6262 85.0000 19.1441
9.5004 85.0000 -21.2098
-6.2659 85.0000 -21.3232
9.9140 85.0000 -7.7044
-0.9305 85.0000 -18.6753
1.9990 85.0000 3.0700
8.2502 85.0000 27.1680
-4.1448 85.0000 -4.8222
3.6989 85.0000 -3.6102
-6.7661 85.0000 -20.1721
6.2776 85.0000 16.4170
10.7170 85.0000 21.8573
4.0486 85.0000 1.2340
-8.3814 85.0000 -23.3571
14.0211 85.0000 4.5701
-2.0536 85.0000 -2.0269
11.4202 85.0000 -12.9344
2.7589 85.0000 20.2579
-12.4687 85.0000 -23.1654
3.0356 85.0000 -19.7065
4.2154 85.0000 -4.5538
1.6081 85.0000 -29.4459
4.4910 -15.0000 -16.4511
7.5196 -15.0000 3.2151
-1.5398 -15.0000 18.0212
-1.3253 -15.0000 -6.2883
-7.8951 -15.0000 -1.3104
6.5905 -15.0000 8.3519
-7.5790 -15.0000 15.4293
-12.5619 -15.0000 25.6857
-5.7318 -15.0000 -19.8870
-10.6316 -15.0000 -24.6799
11.3322 -15.0000 27.8249
5.4155 -15.0000 23.2651
-2.9446 -15.0000 -3.0969
2.9209 -15.0000 7.0572
13.5156 -15.0000 6.1109
1.8919 -15.0000 -10.7299
0.5065 -15.0000 -27.6368
14.3073 -15.0000 10.9872
10.0999 -15.0000 17.7093
13.4900 -15.0000 -27.3506
12.0313 -15.0000 -25.7342
-6.1224 -15.0000 -28.8458
1.9894 -15.0000 -17.9310
-12.7907 -15.0000 -9.2934
-1.1619 -15.0000 -3.4871
-11.0490 -15.0000 20.5358
4.8791 -15.0000 -10.9709
8.7634 -15.0000 -20.2909
13.0210 -15.0000 -8.7083
-12.4632 -15.0000 18.1988
3.8849 -15.0000 18.8449
3.1232 -15.0000 -22.3841
1.3685 -15.0000 27.0601
-9.2652 -15.0000 24.1662
5.4918 -15.0000 -10.2390
-5.9535 -15.0000 4.0149
-4.7026 -15.0000 -8.9459
9.3835 -15.0000 13.4638
13.6233 -15.0000 -8.7459
-5.2284 -15.0000 26.4095
11.7725 -15.0000 -25.5809
7.6377 -15.0000 -25.2110
11.5837 -15.0000 5.8624
-4.1980 -15.0000 -1.4223
-3.3692 -15.0000 23.6725
-11.2218 -15.0000 -9.5306
-2.8554 -15.0000 -16.4594
-3.3223 -15.0000 -13.9479
14.4008 -15.0000 5.6714
6.2770 -15.0000 -19.0970
-7.9007 -15.0000 4.4985
9.3948 -15.0000 5.5306
14.0156 -15.0000 13.0228
-10.6926 -15.0000 -12.6634
-1.6387 -15.0000 -21.1801
10.6283 -15.0000 8.8932
8.7972 -15.0000 15.4620
-2.8104 -15.0000 -18.4769
-5.2358 -15.0000 28.0239
13.3250 -15.0000 15.5322
7.5604 -15.0000 13.3516
-6.6708 -15.0000 -0.9705
-2.6271 -15.0000 -18.1182
-13.7241 -15.0000 27.3819
-5.9921 -15.0000 21.0989
-2.7912 -15.0000 -22.3072
-3.1284 -15.0000 -5.9870
-2.5821 -15.0000 -29.7948
-14.6376 -15.0000 -2.9551
6.1994 -15.0000 28.9560
-8.5084 -15.0000 -22.2054
9.6064 -15.0000 -8.7057
3.1892 -15.0000 2.5626
-0.2409 -15.0000 22.3101
-12.6428 -15.0000 -4.9625
-3.1590 -15.0000 -26.9895
5.6837 -15.0000 2.1348
-9.7795 -15.0000 -8.6827
6.6840 -15.0000 -7.4805
-12.6216 -15.0000 27.7232
-4.0169 -15.0000 3.1606
10.4610 -15.0000 -6.3638
-3.6964 -15.0000 7.2192
6.6439 -15.0000 -26.0024
4.4669 -15.0000 -0.6808
10.6011 56.3402 30.0000
-7.1086 30.2075 30.0000
-10.8092 35.4981 30.0000
10.3535 2.6067 30.0000
-14.2842 63.6730 30.0000
6.2965 21.9201 30.0000
10.7225 64.0004 30.0000
13.9031 84.3962 30.0000
11.3619 74.4512 30.0000
-6.9508 0.0236 30.0000
-12.2614 24.7100 30.0000
-1.7797 43.8664 30.0000
-12.2790 -9.1741 30.0000
-13.9174 62.4689 30.0000
-5.8160 44.5327 30.0000
-5.4853 76.3511 30.0000
4.8653 83.4921 30.0000
6.8479 74.5071 30.0000
7.8260 -9.7366 30.0000
2.5799 -12.8906 30.0000
6.5683 83.4382 30.0000
12.3841 69.1060 30.0000
-0.6699 32.9500 30.0000
0.1563 22.4807 30.0000
0.4023 48.2704 30.0000
6.2764 52.8106 30.0000
-6.9565 -0.5212 30.0000
3.9561 47.9206 30.0000
-11.0704 0.3447 30.0000
12.1775 34.8674 30.0000
-13.7108 -1.9537 30.0000
9.2384 45.0731 30.0000
-5.6923 58.7399 30.0000
5.8122 18.2334 30.0000
3.7158 59.2527 30.0000
-9.3115 54.2497 30.0000
-4.6306 31.8568 30.0000
9.1623 74.4330 30.0000
6.0555 -2.9662 30.0000
-2.4736 17.9600 30.0000
-6.5812 53.4015 30.0000
-3.7710 -13.9032 30.0000
-10.2413 60.2392 30.0000
-0.7946 71.8171 30.0000
1.8303 1.3034 30.0000
-0.8495 41.2098 30.0000
0.0185 -11.1589 30.0000
6.1982 17.1454 30.0000
-8.6547 -8.0678 30.0000
-10.9251 -8.2549 30.0000
4.0412 -3.5279 30.0000
-11.9246 40.0807 30.0000
-8.6200 43.5134 30.0000
1.9993 79.5752 30.0000
6.0695 29.7075 30.0000
11.4071 -10.2091 30.0000
1.6276 6.3745 30.0000
-10.7831 77.2820 30.0000
0.0066 82.6019 30.0000
1.6313 -4.0048 30.0000
2.0037 71.4851 30.0000
7.3769 55.4914 30.0000
-5.8525 36.2328 30.0000
3.7651 77.2042 30.0000
0.2373 -14.1035 30.0000
-0.4545 26.4001 30.0000
5.8727 59.7723 30.0000
7.6347 82.5392 30.0000
-13.7532 -8.1782 30.0000
8.4923 73.8168 30.0000
12.9606 47.3729 30.0000
-3.8271 -1.6773 30.0000
-9.9844 -1.1279 30.0000
14.1964 38.2376 30.0000
3.5032 55.5880 30.0000
0.7791 -0.1254 30.0000
-7.5386 40.7192 30.0000
-8.8084 73.0530 30.0000
-12.6029 -3.3085 30.0000
2.3241 42.2477 30.0000
14.9911 67.6484 30.0000
13.6633 69.6131 30.0000
4.7929 21.6106 30.0000
-3.8860 20.0215 30.0000
-6.2572 48.2992 30.0000
4.7030 -2.7195 -30.0000
7.6382 24.0198 -30.0000
6.8794 23.4571 -30.0000
-13.3033 71.7944 -30.0000
-14.7968 57.8130 -30.0000
-14.3057 -6.9569 -30.0000
-1.4430 73.2088 -30.0000
-0.7219 49.4159 -30.0000
-7.9411 -0.0468 -30.0000
0.5145 4.7859 -30.0000
5.1902 53.3900 -30.0000
10.7032 0.6792 -30.0000
-5.4727 -4.4336 -30.0000
-9.1726 18.7014 -30.0000
-8.2393 59.0221 -30.0000
6.2034 47.8915 -30.0000
-8.1492 30.7050 -30.0000
-4.1252 64.1647 -30.0000
-4.3573 24.0056 -30.0000
5.3247 43.7342 -30.0000
-10.7534 50.9224 -30.0000
14.3366 -12.5605 -30.0000
3.4385 50.2314 -30.0000
-13.2638 41.7704 -30.0000
6.4995 4.8298 -30.0000
4.9676 80.7561 -30.0000
4.7637 34.0831 -30.0000
6.8552 52.4689 -30.0000
-8.6513 73.9691 -30.0000
-8.9953 52.9245 -30.0000
7.3388 84.0123 -30.0000
-5.2076 4.9075 -30.0000
13.2317 -12.5012 -30.0000
-4.1554 44.6468 -30.0000
-3.9944 15.8206 -30.0000
5.0938 13.7116 -30.0000
-1.0071 44.3886 -30.0000
-1.6007 56.6985 -30.0000
5.7567 29.9332 -30.0000
-7.6162 22.6147 -30.0000
2.8483 19.8177 -30.0000
0.9887 1.6802 -30.0000
-12.8893 44.4332 -30.0000
-13.4302 32.3641 -30.0000
3.2347 24.3432 -30.0000
-9.6555 67.6493 -30.0000
11.4005 29.2554 -30.0000
2.5129 22.9214 -30.0000
12.8497 65.8937 -30.0000
6.3221 47.2857 -30.0000
-13.6835 -9.9928 -30.0000
-13.8526 70.6099 -30.0000
4.0307 13.2676 -30.0000
9.8145 45.3041 -30.0000
2.4273 -10.3030 -30.0000
4.0197 33.0443 -30.0000
2.3036 35.7378 -30.0000
-10.6912 -3.2334 -30.0000
4.1599 67.6334 -30.0000
-10.7556 46.9825 -30.0000
0.3901 48.5510 -30.0000
10.2990 42.0073 -30.0000
7.0222 22.5279 -30.0000
-8.4164 39.1041 -30.0000
-3.1835 12.2484 -30.0000
-4.5484 9.7632 -30.0000
-11.3482 11.2334 -30.0000
-2.9788 66.6265 -30.0000
-11.5643 8.6500 -30.0000
12.4811 26.2225 -30.0000
-13.1931 79.2624 -30.0000
7.5325 69.0768 -30.0000
6.3397 75.1242 -30.0000
5.2705 15.5742 -30.0000
-2.9121 29.5248 -30.0000
-12.4095 74.0486 -30.0000
1.9762 36.5505 -30.0000
-1.5470 59.4652 -30.0000
0.5330 68.8417 -30.0000
14.6722 -4.8858 -30.0000
-2.6284 17.9284 -30.0000
-5.6434 20.0046 -30.0000
12.1283 36.3266 -30.0000
11.2073 22.9508 -30.0000
-0.1823 12.7788 -30.0000
