ply
format ascii 1.0
element vertex 1024
property float x
property float y
property float z
end_header
50.0000 -4.8754 -21.0704
50.0000 12.1402 -0.5546
50.0000 1.9054 -33.7713
50.0000 -9.3889 21.3603
50.0000 -9.3468 -10.9453
50.0000 -13.1678 -32.6760
50.0000 -10.1075 26.3748
50.0000 14.6832 35.0955
50.0000 -10.3499 -11.7782
50.0000 -6.3217 5.5332
50.0000 9.5484 -18.0887
50.0000 -4.2208 31.6610
50.0000 -2.8397 -1.1462
50.0000 1.6183 37.3953
50.0000 -8.2156 -16.4601
50.0000 -9.3151 26.3017
50.0000 -1.5698 -29.7838
50.0000 -6.5081 -35.1392
50.0000 11.8014 5.2002
50.0000 -6.2048 11.2863
50.0000 -12.2633 34.8847
50.0000 11.6518 10.4310
50.0000 14.0866 -24.3300
50.0000 -5.8655 -6.6481
50.0000 10.5073 2.1162
50.0000 -5.5708 27.3826
50.0000 -3.2904 -20.2838
50.0000 2.3247 -22.8744
50.0000 -11.6611 18.2756
50.0000 1.8229 -13.1534
50.0000 7.4278 -13.2691
50.0000 -7.9825 -6.2773
50.0000 -12.2508 15.4330
50.0000 -12.4989 -28.5970
50.0000 -1.7452 -4.4410
50.0000 0.9747 -10.3036
50.0000 6.4881 -36.8880
50.0000 -5.9104 -18.5519
50.0000 3.1379 35.5702
50.0000 -14.9781 37.0706
50.0000 -2.1126 -29.4190
50.0000 -7.8271 -27.4303
50.0000 -0.5410 -24.5658
50.0000 -1.2296 -34.5404
50.0000 -12.6722 -21.5318
50.0000 -10.1262 -5.4734
50.0000 5.4861 -26.8460
50.0000 -13.4957 18.4846
50.0000 -12.6204 0.7811
50.0000 -0.4479 4.3881
50.0000 6.5020 34.5903
50.0000 -4.9308 38.8307
50.0000 0.2336 34.7592
50.0000 -10.4850 35.1770
50.0000 14.5119 2.3855
50.0000 -0.4578 -35.0056
50.0000 -5.2184 33.5877
50.0000 -3.3611 -12.9089
50.0000 12.9300 33.6617
50.0000 -8.5528 37.9830
50.0000 -10.7846 36.4306
50.0000 9.3438 -35.7976
50.0000 11.6189 16.7467
50.0000 -8.0268 -28.2663
50.0000 -9.2406 33.8873
50.0000 -0.4891 -31.6453
50.0000 -9.9196 -3.5029
50.0000 12.9673 -17.7616
50.0000 13.5408 -35.8419
50.0000 3.0804 -38.5054
50.0000 6.4427 7.2823
50.0000 7.7144 -29.5243
50.0000 -0.1755 27.1712
50.0000 -7.0082 -30.3251
50.0000 10.3537 20.3885
50.0000 -8.8078 5.5142
50.0000 -14.6193 31.9437
50.0000 -13.2664 30.8660
50.0000 -5.7075 16.2201
50.0000 -9.7866 37.7661
50.0000 -4.7629 -30.0019
50.0000 -14.5205 21.0732
50.0000 8.5941 -13.0871
50.0000 -3.6510 -11.0636
50.0000 -11.3868 29.1856
50.0000 -11.8422 4.5300
-50.0000 3.4126 -39.1802
-50.0000 -11.1257 -22.3645
-50.0000 -8.2142 -35.3150
-50.0000 11.5817 14.2857
-50.0000 1.9298 -30.1054
-50.0000 11.1072 -12.1140
-50.0000 -7.2088 36.1044
-50.0000 -8.2358 -2.9812
-50.0000 10.1912 -2.1510
-50.0000 -12.3532 8.0463
-50.0000 13.4483 7.6741
-50.0000 -1.2665 -39.4568
-50.0000 -2.1795 26.1747
-50.0000 -2.4366 -34.6164
-50.0000 2.4819 -18.6976
-50.0000 9.2811 -38.8800
-50.0000 4.9827 3.7985
-50.0000 -2.7983 13.4845
-50.0000 -13.1397 16.9488
-50.0000 -7.5375 6.8835
-50.0000 -13.0540 -30.1311
-50.0000 14.1132 37.9165
-50.0000 -1.7401 -30.7493
-50.0000 -7.6810 -1.9995
-50.0000 3.9877 21.1481
-50.0000 -13.3714 -20.2824
-50.0000 14.1109 14.9989
-50.0000 0.3349 35.0469
-50.0000 0.1022 6.7868
-50.0000 0.7883 16.6604
-50.0000 -11.1877 23.3024
-50.0000 8.6886 -38.4764
-50.0000 -8.9048 -32.5811
-50.0000 14.2916 -31.4167
-50.0000 -12.3377 -38.9114
-50.0000 -6.0952 -15.9630
-50.0000 6.1313 -19.9065
-50.0000 5.3622 -14.5460
-50.0000 5.9033 -15.5723
-50.0000 8.2870 9.1288
-50.0000 -12.0031 22.3590
-50.0000 0.5911 5.8068
-50.0000 -3.9837 -34.6044
-50.0000 -0.8261 28.2294
-50.0000 -6.9308 -8.7391
-50.0000 10.6269 31.7489
-50.0000 1.2571 -33.2550
-50.0000 -11.1993 -10.6916
-50.0000 -10.8587 31.0216
-50.0000 -6.0117 -23.2086
-50.0000 9.7093 -13.1985
-50.0000 -7.6272 9.3261
-50.0000 9.4117 23.5556
-50.0000 0.7265 9.6916
-50.0000 -3.6526 -13.6478
-50.0000 -3.0063 35.6841
-50.0000 0.4600 12.1767
-50.0000 4.3381 7.2919
-50.0000 3.3577 0.1258
-50.0000 -4.6837 -11.8855
-50.0000 -6.3913 7.1715
-50.0000 6.1495 29.1177
-50.0000 9.4373 28.6976
-50.0000 -12.8672 -18.9707
-50.0000 -2.8751 7.3989
-50.0000 11.2681 33.5694
-50.0000 -14.1479 -2.8557
-50.0000 5.3553 30.2199
-50.0000 14.6449 -33.9767
-50.0000 11.0018 1.4061
-50.0000 3.1376 28.8988
-50.0000 -9.7070 27.2916
-50.0000 14.5841 10.6284
-50.0000 6.9950 7.5868
-50.0000 -11.8010 13.6102
-50.0000 12.9900 -22.6987
-50.0000 -3.2771 -18.7378
-50.0000 10.6675 -30.1081
-50.0000 -3.1198 7.8201
-50.0000 6.6765 -29.3622
-50.0000 -1.8471 -23.8692
-50.0000 -4.9021 21.2668
-50.0000 4.4139 -15.0952
-50.0000 -3.4600 -39.0682
-50.0000 -14.1181 34.5113
-50.0000 14.6262 15.8448
20.2934 15.0000 17.2174
-37.4261 15.0000 24.1662
23.2071 15.0000 -6.9101
8.3896 15.0000 37.2718
-27.4801 15.0000 8.2153
20.6425 15.0000 -4.8594
16.5921 15.0000 -1.4246
24.0768 15.0000 30.0675
10.7194 15.0000 -20.0735
37.8251 15.0000 -34.7364
0.1461 15.0000 -32.7621
48.2669 15.0000 9.3018
8.2447 15.0000 4.1423
-2.3033 15.0000 -20.7959
-32.0476 15.0000 -3.2236
-21.5881 15.0000 30.2797
20.4757 15.0000 3.6482
17.7092 15.0000 27.8519
41.8136 15.0000 -11.6710
10.3509 15.0000 -24.1101
-27.5963 15.0000 17.3131
-20.5622 15.0000 16.5188
43.1295 15.0000 20.8683
13.6175 15.0000 29.7662
-36.9374 15.0000 27.2728
25.6006 15.0000 -6.1651
41.0225 15.0000 -10.3189
12.7460 15.0000 20.8391
11.0174 15.0000 33.5122
24.6566 15.0000 39.5218
19.3602 15.0000 -17.6708
-30.7131 15.0000 -2.3703
-25.2333 15.0000 -29.7435
-28.2002 15.0000 -15.7547
-35.5024 15.0000 34.5238
-43.4299 15.0000 17.6678
-42.7729 15.0000 -37.3684
33.3311 15.0000 -27.8093
4.3157 15.0000 -22.7613
2.4306 15.0000 16.3924
-23.1770 15.0000 39.9166
36.5419 15.0000 37.0400
31.9452 15.0000 17.2719
36.5978 15.0000 12.0946
-18.0618 15.0000 -20.3832
-41.2628 15.0000 -3.7157
19.3445 15.0000 7.2173
35.9743 15.0000 -12.0929
-41.2396 15.0000 32.4522
39.5406 15.0000 10.7604
22.6567 15.0000 30.5736
25.7915 15.0000 -1.2884
-1.0524 15.0000 -22.2685
40.4575 15.0000 -30.6956
18.1149 15.0000 28.8969
-38.9668 15.0000 22.3074
4.5790 15.0000 -31.7787
31.5391 15.0000 36.8757
49.7278 15.0000 39.6373
12.5269 15.0000 9.0181
-31.2098 15.0000 -37.3128
2.5755 15.0000 -24.5445
3.8272 15.0000 -30.9450
47.8906 15.0000 34.2122
1.4080 15.0000 -18.0822
-27.4034 15.0000 -3.3365
24.0954 15.0000 -21.3105
-19.5415 15.0000 -15.4762
35.9131 15.0000 29.7813
45.8035 15.0000 10.0719
25.2655 15.0000 -13.8489
44.6849 15.0000 -28.2863
32.8391 15.0000 34.8647
26.3021 15.0000 24.5436
-41.9860 15.0000 18.0611
-48.0557 15.0000 -5.6241
-43.8047 15.0000 39.1701
-23.7395 15.0000 31.8909
43.6611 15.0000 -4.1970
-21.2181 15.0000 27.0031
1.4035 15.0000 -11.0031
-29.0353 15.0000 -31.6088
24.9806 15.0000 -2.2704
-0.1383 15.0000 -1.5634
6.1080 15.0000 25.8313
-48.9212 -15.0000 -39.2412
-5.2685 -15.0000 -3.5215
3.4939 -15.0000 -18.0949
44.7226 -15.0000 9.7372
-38.5776 -15.0000 -11.1721
-17.2029 -15.0000 6.1027
17.9589 -15.0000 31.4833
7.8818 -15.0000 14.4024
44.5070 -15.0000 11.1385
22.3348 -15.0000 29.6892
-21.1915 -15.0000 -38.8499
-44.6171 -15.0000 39.9060
3.6061 -15.0000 0.9538
-40.8567 -15.0000 -20.2728
-11.5550 -15.0000 -3.3488
-39.0344 -15.0000 -5.7777
6.0256 -15.0000 -14.3712
-21.6479 -15.0000 -36.1404
-45.9930 -15.0000 21.3759
-41.9532 -15.0000 -30.6523
6.7921 -15.0000 8.7829
-47.6714 -15.0000 -29.1326
-21.0363 -15.0000 -24.4247
-8.5493 -15.0000 32.2516
7.0570 -15.0000 -29.4447
22.0262 -15.0000 12.4722
29.9996 -15.0000 27.3375
-4.2408 -15.0000 1.1415
-18.9018 -15.0000 -2.5965
36.7612 -15.0000 -1.1140
6.7975 -15.0000 -32.0063
23.2785 -15.0000 24.9347
33.7605 -15.0000 -32.7176
13.4757 -15.0000 33.3491
-35.3253 -15.0000 36.2077
32.4035 -15.0000 -32.6400
3.0187 -15.0000 38.1813
38.3559 -15.0000 12.0727
-21.8700 -15.0000 11.8068
-48.8710 -15.0000 -9.6322
25.5097 -15.0000 -21.9120
1.1134 -15.0000 -7.2598
32.5014 -15.0000 33.4177
20.8748 -15.0000 37.7384
18.7859 -15.0000 3.9531
47.0635 -15.0000 35.7350
46.4570 -15.0000 -30.8146
-0.9217 -15.0000 -22.3160
-13.8523 -15.0000 1.0478
-20.0801 -15.0000 30.4771
45.6453 -15.0000 8.7184
-6.4609 -15.0000 35.6889
8.5270 -15.0000 31.8533
-49.9860 -15.0000 -36.8685
23.3009 -15.0000 23.8952
-0.7954 -15.0000 33.8351
47.2462 -15.0000 -19.4919
18.2086 -15.0000 6.5880
45.4466 -15.0000 37.9857
32.6083 -15.0000 31.6082
-43.4886 -15.0000 -1.2000
-18.4102 -15.0000 -16.4033
14.4119 -15.0000 4.6365
18.6556 -15.0000 11.4790
39.6737 -15.0000 -34.2825
-7.0834 -15.0000 16.2885
-2.8817 -15.0000 37.8507
26.6892 -15.0000 25.0450
-18.5228 -15.0000 23.1745
19.2187 -15.0000 -25.7946
2.6324 -15.0000 -6.2831
-22.4542 -15.0000 10.7902
-39.4229 -15.0000 -37.1279
-21.4396 -15.0000 33.5794
-1.9502 -15.0000 -16.6064
4.8636 -15.0000 4.9656
11.5252 -15.0000 17.4228
-13.6093 -15.0000 -35.6118
-17.1376 -15.0000 23.9555
12.0074 -15.0000 -16.1815
28.5991 -15.0000 -5.2968
-14.3617 -15.0000 32.0430
43.3590 -15.0000 -7.6608
1.6289 -15.0000 4.1686
42.6692 -15.0000 -21.0080
-18.4271 5.6900 40.0000
35.9365 -14.1363 40.0000
-39.5776 -0.9916 40.0000
-7.0539 -5.5171 40.0000
38.9030 -1.0913 40.0000
29.6760 12.8414 40.0000
-21.4035 2.7799 40.0000
-17.0830 1.0712 40.0000
-47.1321 11.0890 40.0000
-1.6998 5.0672 40.0000
25.6414 -8.6497 40.0000
31.2587 -14.6127 40.0000
40.2612 -1.9254 40.0000
46.1228 9.3506 40.0000
36.0593 9.6385 40.0000
-11.9585 6.6206 40.0000
-47.0336 -8.4257 40.0000
24.7358 -4.5626 40.0000
-6.6001 -12.2933 40.0000
18.8539 10.8671 40.0000
-25.0565 1.4086 40.0000
-10.6714 -4.0746 40.0000
18.7262 11.8010 40.0000
-3.4670 -4.6061 40.0000
10.1307 1.0726 40.0000
-4.0900 5.0294 40.0000
28.0180 -7.3874 40.0000
-48.8615 -12.2877 40.0000
-1.4252 1.6843 40.0000
-47.8952 -8.5963 40.0000
-10.6267 4.2936 40.0000
29.4848 1.7414 40.0000
2.4576 3.4561 40.0000
33.6303 -3.5361 40.0000
-19.4958 12.5315 40.0000
27.6731 -4.7054 40.0000
42.8341 -3.0991 40.0000
-17.0063 -5.7311 40.0000
-25.2851 -9.4460 40.0000
-32.2530 9.5316 40.0000
37.2787 9.0116 40.0000
-0.9219 14.7795 40.0000
-30.9722 9.4912 40.0000
-10.4155 -9.6628 40.0000
-49.5937 13.0620 40.0000
-45.2972 -6.2194 40.0000
-19.3672 -2.7258 40.0000
9.8339 -3.5698 40.0000
-15.7544 14.1687 40.0000
11.6463 -14.9337 40.0000
-27.5690 -0.1630 40.0000
29.2017 -11.1548 40.0000
17.8084 3.6445 40.0000
-14.6110 -4.4609 40.0000
-21.8334 0.5954 40.0000
11.0561 -7.2921 40.0000
-21.9919 -8.2883 40.0000
-23.4328 14.1107 40.0000
-43.3285 -1.9453 40.0000
-30.1436 1.9339 40.0000
13.8854 -4.9442 40.0000
-8.2140 12.0228 40.0000
-11.3225 -13.0766 40.0000
20.2216 6.4874 40.0000
40.7060 -10.4107 40.0000
49.9945 7.8384 40.0000
18.2071 10.0062 40.0000
-6.6466 8.7494 40.0000
-3.6652 -12.1663 40.0000
-2.9254 9.4049 40.0000
-31.3482 -8.5693 40.0000
-17.7555 -8.1375 40.0000
-32.3232 2.9445 40.0000
-0.5404 -14.7038 40.0000
-10.8101 12.4606 40.0000
3.6766 7.9265 40.0000
-5.4369 11.8453 40.0000
12.9065 -3.4096 40.0000
-7.0262 2.0890 40.0000
-35.4202 -12.8364 40.0000
-9.5719 -8.3175 40.0000
43.4442 -11.5411 40.0000
-22.3414 3.8441 40.0000
-33.9350 -2.0501 40.0000
36.2110 14.2823 40.0000
-35.3658 -0.8364 -40.0000
-9.1031 11.4175 -40.0000
22.5476 -6.3843 -40.0000
46.4247 -7.6497 -40.0000
0.3846 -8.5642 -40.0000
35.6511 -1.4383 -40.0000
42.5887 5.0109 -40.0000
-20.4765 2.8034 -40.0000
-40.7730 -7.3441 -40.0000
-5.3323 8.3046 -40.0000
49.5847 -4.7256 -40.0000
-44.1415 -11.8877 -40.0000
-11.4551 -12.4592 -40.0000
29.3991 -9.4095 -40.0000
29.5920 14.4169 -40.0000
35.9666 -1.3032 -40.0000
-36.3924 0.1187 -40.0000
12.4658 2.5188 -40.0000
-5.6126 -1.2343 -40.0000
29.3069 -11.5617 -40.0000
39.0792 0.0943 -40.0000
10.2818 2.0762 -40.0000
30.4403 13.0376 -40.0000
17.1378 -1.7362 -40.0000
-23.7568 10.7846 -40.0000
-33.8376 -5.1008 -40.0000
-13.0177 14.8762 -40.0000
-8.3639 -3.3950 -40.0000
-31.3555 8.2022 -40.0000
0.7513 -1.0595 -40.0000
-49.8044 3.3683 -40.0000
49.6611 11.4157 -40.0000
-2.9895 3.4761 -40.0000
-38.3941 -1.2395 -40.0000
-13.5300 14.6087 -40.0000
-19.4315 9.1880 -40.0000
-36.8418 -7.1697 -40.0000
-35.8577 -12.6133 -40.0000
42.1383 11.0261 -40.0000
-26.7949 6.7692 -40.0000
46.9084 12.8342 -40.0000
-10.2071 -5.0017 -40.0000
-38.6196 -14.1497 -40.0000
-42.7652 -0.2368 -40.0000
36.9390 12.7184 -40.0000
-42.8380 9.9562 -40.0000
33.5798 4.8312 -40.0000
-20.9381 4.0345 -40.0000
-42.9975 7.0133 -40.0000
-17.9326 -12.0877 -40.0000
-47.0624 7.6351 -40.0000
-8.9821 -12.9830 -40.0000
-6.1761 -14.6158 -40.0000
-26.3195 5.7849 -40.0000
29.0539 -14.1850 -40.0000
-18.2715 -14.6008 -40.0000
46.2355 -2.3011 -40.0000
-10.1605 -10.4091 -40.0000
-33.6394 -8.6705 -40.0000
13.2587 -12.2431 -40.0000
16.4110 12.4047 -40.0000
-16.3531 -7.1439 -40.0000
3.5926 -1.4639 -40.0000
-36.9959 -4.8670 -40.0000
-10.0590 -7.7495 -40.0000
-5.2762 -14.3069 -40.0000
27.6115 13.7452 -40.0000
43.1034 -8.8629 -40.0000
-23.7695 -14.6207 -40.0000
-19.7717 -6.2867 -40.0000
-12.3898 -4.4517 -40.0000
-26.1439 13.6945 -40.0000
-40.8560 9.7682 -40.0000
-40.9436 6.6297 -40.0000
23.2577 -4.1436 -40.0000
25.6777 -14.7300 -40.0000
-6.6408 7.9498 -40.0000
-41.5710 -0.7668 -40.0000
-45.0982 -0.7431 -40.0000
-37.2430 1.2385 -40.0000
15.6726 -5.9745 -40.0000
-42.8815 -0.0771 -40.0000
12.7165 1.8751 -40.0000
42.0888 2.3398 -40.0000
0.9591 -13.5839 -40.0000
50.0000 -80.2060 23.1026
50.0000 -21.0561 10.2128
50.0000 -37.9942 -15.5313
50.0000 -40.6267 -19.0455
50.0000 -22.3342 -5.8404
50.0000 -22.1342 22.8324
50.0000 -14.1084 -19.5281
50.0000 -10.2426 -1.1331
50.0000 -72.7526 38.3737
50.0000 14.1247 -17.7180
50.0000 11.9520 1.5439
50.0000 -25.3207 19.2936
50.0000 -9.0615 -30.1858
50.0000 -22.1099 39.3226
50.0000 -25.2534 -37.0296
50.0000 -35.1513 -39.3357
50.0000 -14.5365 -3.7889
50.0000 -34.1939 -16.8993
50.0000 9.5050 34.6209
50.0000 -57.9416 38.2290
50.0000 -81.8994 -11.3375
50.0000 -1.5024 39.4446
50.0000 -27.7509 -20.3180
50.0000 -66.2358 -23.1512
50.0000 -73.6610 -11.9627
50.0000 -54.6683 -16.7445
50.0000 -77.6506 33.6067
50.0000 -17.5129 -9.0274
50.0000 -63.2271 35.5885
50.0000 -23.6456 -14.1440
50.0000 -6.4008 30.0556
50.0000 -20.3426 32.7378
50.0000 -26.5737 -14.2619
50.0000 -12.2264 18.7478
50.0000 -47.6037 -10.5020
50.0000 -22.1157 35.8858
50.0000 -26.2482 17.4630
50.0000 -23.5551 14.9656
50.0000 -58.0736 -8.1156
50.0000 -13.4429 -11.7161
50.0000 -67.2007 24.4963
50.0000 10.9612 -3.7108
50.0000 -68.1249 -15.6148
50.0000 -16.9426 -26.9547
50.0000 -11.6899 -33.6094
50.0000 -79.0214 -29.3831
50.0000 -82.3889 -29.8752
50.0000 -57.9886 11.7872
50.0000 -51.1425 -35.9691
50.0000 5.3206 -4.4841
50.0000 -35.5034 1.8463
50.0000 -65.5945 -32.7186
50.0000 -19.5212 -19.3504
50.0000 -25.9336 9.9437
50.0000 14.1982 12.6479
50.0000 -24.4707 32.6855
50.0000 -70.4188 5.6875
50.0000 11.0273 26.9521
50.0000 -61.8416 26.4316
50.0000 -2.2894 29.2530
50.0000 -74.1891 -27.1032
50.0000 3.3935 -19.6801
50.0000 -56.5973 25.5673
50.0000 -30.0542 6.2242
50.0000 -50.1874 33.6053
50.0000 -52.2391 -4.9865
50.0000 -62.0721 35.6722
50.0000 -39.2339 24.7114
50.0000 -67.8940 -14.8482
50.0000 -80.7390 -38.7341
50.0000 -77.6876 -27.3850
50.0000 -55.9455 14.0019
50.0000 -21.1186 -30.4349
50.0000 10.1288 36.6015
50.0000 -1.7294 -20.9975
50.0000 14.9793 -30.6395
50.0000 -80.3425 -36.9246
50.0000 -81.4050 4.0257
50.0000 -11.8381 13.4925
50.0000 -56.1205 12.1431
50.0000 -62.5632 -21.0196
50.0000 -7.1392 31.6933
50.0000 -73.6775 -28.9161
50.0000 8.5704 22.8927
50.0000 11.9864 34.2796
50.0000 -18.6090 -35.3689
20.0000 -6.4913 -17.4005
20.0000 -47.3882 13.2209
20.0000 -30.6370 -10.7707
20.0000 -2.8575 2.6224
20.0000 -29.8397 -19.9569
20.0000 -54.8970 10.5521
20.0000 -76.2116 -5.3832
20.0000 -66.7025 -25.7792
20.0000 -46.3420 -16.9057
20.0000 -41.5979 28.3074
20.0000 -57.4600 1.9684
20.0000 -33.1454 -12.0011
20.0000 -2.4942 -7.2779
20.0000 -71.5042 -1.1677
20.0000 -18.4436 -31.1566
20.0000 -8.1368 20.5135
20.0000 11.6338 -36.5432
20.0000 -16.8122 -21.1983
20.0000 4.3676 -38.8298
20.0000 -74.7107 12.5638
20.0000 -66.6484 -37.4656
20.0000 -70.3777 26.7620
20.0000 -27.4830 6.1745
20.0000 -7.7647 16.5922
20.0000 -84.2504 30.4886
20.0000 -7.2787 -5.7340
20.0000 -22.5628 -33.2772
20.0000 -77.4948 29.2561
20.0000 -66.9807 -1.6716
20.0000 -36.0845 37.5743
20.0000 13.3210 -20.5664
20.0000 -60.7184 4.5768
20.0000 1.1177 -13.3401
20.0000 5.2736 5.4102
20.0000 -81.1908 -13.6236
20.0000 -46.7267 33.8232
20.0000 -36.0196 -20.6327
20.0000 -3.2690 36.6563
20.0000 -34.9247 -28.6853
20.0000 -1.4299 -20.4451
20.0000 -21.8037 -29.2179
20.0000 -41.6683 33.9044
20.0000 -56.8412 7.6938
20.0000 -13.7286 27.6858
20.0000 -58.8890 -37.1113
20.0000 -20.1310 -7.9848
20.0000 9.6132 37.1822
20.0000 2.1733 24.5708
20.0000 -64.0403 15.2058
20.0000 -32.0356 -17.8148
20.0000 11.7452 -20.5335
20.0000 -53.8781 35.7394
20.0000 -62.7665 -27.7890
20.0000 -11.4863 33.2027
20.0000 -22.1808 -38.5838
20.0000 -30.9803 -2.1896
20.0000 -74.3962 10.7715
20.0000 14.2230 29.2666
20.0000 -18.2011 -27.6330
20.0000 -66.6410 -6.3591
20.0000 -9.0959 -20.1643
20.0000 -52.4599 36.3292
20.0000 -50.1566 -24.3219
20.0000 -42.8639 26.9057
20.0000 -74.7164 27.2584
20.0000 -20.4059 -8.8630
20.0000 -76.1947 33.7557
20.0000 -22.2964 32.1022
20.0000 -55.4263 -18.2460
20.0000 -33.1087 -35.7225
20.0000 -78.5738 -27.1759
20.0000 -64.0738 -3.5047
20.0000 14.8247 -30.8736
20.0000 -45.3474 -37.1933
20.0000 9.0446 18.9512
20.0000 -59.4969 23.8933
20.0000 -74.5401 -7.2750
20.0000 -48.0268 -35.5629
20.0000 -32.8216 25.6781
20.0000 6.0029 -25.9447
20.0000 -32.8832 19.2424
20.0000 -79.9866 12.9286
20.0000 -61.9817 -8.5335
20.0000 -49.6193 36.5566
20.0000 -22.1817 -39.6238
20.0000 -32.4421 19.3717
40.1794 15.0000 19.1404
34.5196 15.0000 9.9775
31.5131 15.0000 7.6135
28.8856 15.0000 -28.9039
44.8881 15.0000 -11.7337
29.4964 15.0000 32.7695
21.2399 15.0000 -29.7182
37.1416 15.0000 17.6941
23.2416 15.0000 -20.1510
32.4549 15.0000 -34.8853
33.7406 15.0000 8.1333
40.4053 15.0000 -27.8836
21.0584 15.0000 36.3058
28.1451 15.0000 -30.9253
30.7810 15.0000 1.8144
34.7612 15.0000 -30.4335
42.9891 15.0000 38.3654
48.0316 15.0000 -8.0702
35.6924 15.0000 -22.5885
41.0125 15.0000 -16.8024
37.4172 15.0000 9.1037
40.6529 15.0000 35.7882
46.4229 15.0000 -4.6703
32.8970 15.0000 26.3305
33.1404 15.0000 27.0962
37.0467 15.0000 -38.5698
45.4763 15.0000 39.7519
45.4504 15.0000 -38.7919
34.5425 15.0000 38.5973
29.5659 15.0000 -35.4392
42.6618 15.0000 38.8280
34.7262 15.0000 -14.2587
24.5402 15.0000 39.7786
49.2853 15.0000 1.3161
22.0202 15.0000 -13.7000
35.1570 15.0000 -24.7216
35.4076 15.0000 21.6780
29.6261 15.0000 -37.2995
33.0980 15.0000 23.7678
46.9989 15.0000 34.7602
47.2923 15.0000 15.2605
20.7918 15.0000 15.2875
31.4622 15.0000 -11.0833
42.9499 15.0000 -0.3208
35.5708 15.0000 -8.7183
40.4456 15.0000 -23.2610
46.8090 15.0000 -22.1573
49.1813 15.0000 -18.4711
35.8464 15.0000 -5.4972
45.2231 15.0000 5.9307
34.2845 15.0000 -36.1371
32.2970 15.0000 7.9558
41.1356 15.0000 -19.6850
41.6582 15.0000 14.6194
45.2174 15.0000 -16.5069
36.6140 15.0000 3.3751
24.8770 15.0000 -13.7574
40.7022 15.0000 -22.2085
30.9503 15.0000 -14.6754
31.6080 15.0000 17.6673
48.0543 15.0000 -5.3377
21.2196 15.0000 5.2451
46.1227 15.0000 -15.0715
21.2760 15.0000 -17.6468
24.2710 15.0000 19.4003
20.8678 15.0000 -39.3595
26.9435 15.0000 -17.7712
26.2995 15.0000 -39.8366
47.3350 15.0000 2.8295
30.6258 15.0000 -15.1728
34.7898 15.0000 -31.9219
29.8519 15.0000 -33.9063
41.1021 15.0000 -6.9763
30.5265 15.0000 -28.1709
42.9340 15.0000 -32.3862
40.8971 15.0000 -13.6089
39.3611 15.0000 11.5666
43.6812 15.0000 -27.5654
42.6348 15.0000 -31.3575
22.1616 15.0000 -17.2530
23.6851 15.0000 -31.8765
43.3742 15.0000 -2.0565
39.6340 15.0000 29.2551
21.7023 15.0000 19.8768
49.1169 15.0000 0.1422
23.9542 -85.0000 7.9774
47.8544 -85.0000 4.1442
27.8587 -85.0000 6.0427
31.2793 -85.0000 -15.1887
22.9235 -85.0000 -37.0504
45.4778 -85.0000 -34.7156
46.6774 -85.0000 26.4930
49.3492 -85.0000 -2.9738
29.1396 -85.0000 -2.6276
35.8954 -85.0000 26.2525
20.7513 -85.0000 5.8193
42.5704 -85.0000 -0.8178
42.5345 -85.0000 -10.9828
35.5178 -85.0000 2.2564
22.1570 -85.0000 -18.2773
33.7267 -85.0000 -39.4215
38.2227 -85.0000 14.7377
35.9288 -85.0000 5.7361
48.2746 -85.0000 19.7954
46.4161 -85.0000 -32.2699
34.6850 -85.0000 18.3945
31.2617 -85.0000 -9.4010
26.4115 -85.0000 -19.0733
21.7357 -85.0000 9.2503
49.0391 -85.0000 -3.5908
27.5630 -85.0000 -2.0669
46.3197 -85.0000 -28.5139
34.3734 -85.0000 30.6711
31.6060 -85.0000 39.7868
28.6741 -85.0000 22.4655
40.9714 -85.0000 13.1368
27.6005 -85.0000 14.9003
33.1680 -85.0000 14.2768
20.4067 -85.0000 31.9740
45.8048 -85.0000 26.7821
28.7005 -85.0000 11.4995
40.6349 -85.0000 -30.3305
39.5531 -85.0000 33.4419
42.5243 -85.0000 -26.7054
30.8895 -85.0000 -26.1411
39.2979 -85.0000 -8.8264
25.5748 -85.0000 -28.8616
38.5285 -85.0000 -29.0154
28.9503 -85.0000 -7.7728
39.3127 -85.0000 -13.2268
36.4236 -85.0000 -32.2063
46.9844 -85.0000 -25.3534
48.0137 -85.0000 -2.0215
41.2842 -85.0000 33.4472
22.2128 -85.0000 -25.9705
31.8099 -85.0000 17.0591
26.4463 -85.0000 -7.7056
30.4400 -85.0000 23.5903
28.1167 -85.0000 29.8544
49.3695 -85.0000 23.8338
30.7253 -85.0000 39.1267
29.5551 -85.0000 -22.3450
27.4549 -85.0000 -1.1586
46.0833 -85.0000 1.5951
43.2096 -85.0000 -2.8502
36.3963 -85.0000 0.7582
47.1794 -85.0000 22.8721
42.0776 -85.0000 -39.5581
31.8833 -85.0000 -27.1523
25.8936 -85.0000 -7.5080
41.9184 -85.0000 6.9218
45.5521 -85.0000 -4.3097
35.6569 -85.0000 -6.2430
43.8396 -85.0000 3.2691
32.8993 -85.0000 -6.9287
23.9126 -85.0000 -32.8602
42.9720 -85.0000 -24.0581
39.1174 -85.0000 -37.6086
49.5727 -85.0000 -4.1463
23.8221 -85.0000 4.0446
34.7566 -85.0000 22.2022
23.4111 -85.0000 -12.5150
25.3736 -85.0000 3.8980
43.0838 -85.0000 -8.8366
35.7523 -85.0000 28.7609
21.5650 -85.0000 19.5807
20.1605 -85.0000 -1.2472
42.4852 -85.0000 -30.0945
25.3853 -85.0000 -15.9769
46.9273 -85.0000 -23.1449
20.1202 -69.6775 40.0000
39.1901 -65.7860 40.0000
36.2368 -46.5037 40.0000
22.1536 -69.8349 40.0000
39.8050 -23.6807 40.0000
34.3850 -37.1771 40.0000
23.4195 -46.3386 40.0000
38.5846 -61.8778 40.0000
37.0946 -11.6224 40.0000
48.1184 -75.8579 40.0000
21.5923 -58.2929 40.0000
41.8311 -23.7066 40.0000
33.6617 -1.0846 40.0000
35.9604 -4.1585 40.0000
45.7732 1.6303 40.0000
36.0166 -61.4821 40.0000
44.4571 5.6345 40.0000
33.5624 -28.4676 40.0000
29.1147 -21.7873 40.0000
30.9249 -25.0828 40.0000
44.8177 -72.3482 40.0000
44.3350 -37.6255 40.0000
41.4760 -20.7750 40.0000
28.2044 -84.7023 40.0000
46.7859 3.1119 40.0000
28.4862 0.7485 40.0000
23.0664 12.0331 40.0000
21.3958 -43.4633 40.0000
20.6942 -76.4006 40.0000
24.7196 -69.5359 40.0000
28.6333 -59.8316 40.0000
42.6944 -36.4982 40.0000
21.8578 -8.9496 40.0000
30.6076 -69.2589 40.0000
49.3519 -71.0890 40.0000
25.2851 9.3793 40.0000
31.9739 -35.0101 40.0000
38.7886 -70.4497 40.0000
27.9812 10.5145 40.0000
40.9246 1.3821 40.0000
22.3494 -32.6244 40.0000
21.8609 -9.3944 40.0000
39.3576 -13.3408 40.0000
26.5523 -49.4818 40.0000
23.1278 -66.2468 40.0000
30.6100 -68.0256 40.0000
46.1187 -23.7588 40.0000
28.0255 -46.5004 40.0000
47.2256 -84.2227 40.0000
42.1147 -5.0385 40.0000
23.0898 2.1183 40.0000
25.2558 -0.9103 40.0000
46.1570 -69.2347 40.0000
24.1095 -60.7877 40.0000
28.4463 -59.9627 40.0000
26.9289 -60.9921 40.0000
45.3030 -33.9817 40.0000
28.0787 -15.2459 40.0000
26.6827 -29.3237 40.0000
47.9216 -68.3805 40.0000
39.0064 -60.8201 40.0000
37.8853 -50.3688 40.0000
38.8622 -73.2475 40.0000
25.2152 -82.1158 40.0000
24.4741 11.7019 40.0000
35.9514 -55.2822 40.0000
39.3967 12.6204 40.0000
37.1048 -29.2187 40.0000
44.9763 -11.1100 40.0000
22.9006 11.2302 40.0000
47.9384 -63.1725 40.0000
23.2650 -74.1900 40.0000
33.2751 -80.6361 40.0000
42.0007 12.1796 40.0000
37.4981 -75.7007 40.0000
21.8163 -27.7592 40.0000
43.2950 -37.3244 40.0000
20.3834 2.7902 40.0000
23.7174 13.8115 40.0000
46.1680 -77.3650 40.0000
39.7234 -36.1669 40.0000
22.9344 -18.0003 40.0000
49.8920 -8.0147 40.0000
43.1670 -49.9813 40.0000
46.7004 -13.4188 40.0000
38.6914 -61.2886 -40.0000
26.5696 2.9164 -40.0000
35.0067 4.3435 -40.0000
39.2206 -6.9509 -40.0000
45.5956 -43.1591 -40.0000
23.5338 -30.8444 -40.0000
22.1647 -21.2447 -40.0000
41.1913 -55.3563 -40.0000
22.6406 -61.9361 -40.0000
26.5915 -75.4704 -40.0000
45.3961 -49.2148 -40.0000
47.6156 2.2966 -40.0000
24.1692 -9.2289 -40.0000
44.9687 -8.5278 -40.0000
37.7545 -39.3668 -40.0000
49.3455 -41.6431 -40.0000
28.5906 -31.4090 -40.0000
26.5248 -32.1360 -40.0000
33.9539 -34.7734 -40.0000
23.1760 -44.2615 -40.0000
43.3751 -47.0370 -40.0000
21.9077 -41.7473 -40.0000
23.9011 -44.3312 -40.0000
28.6340 -28.9827 -40.0000
36.0990 -18.2267 -40.0000
43.2766 -13.1202 -40.0000
24.4023 12.8021 -40.0000
20.7059 -49.5843 -40.0000
43.1887 -84.2535 -40.0000
46.4044 -68.4662 -40.0000
41.1837 -12.1592 -40.0000
21.7198 -22.1924 -40.0000
20.2263 -73.9748 -40.0000
28.0597 -44.2495 -40.0000
46.3264 -22.8355 -40.0000
48.1506 -30.1715 -40.0000
41.2042 -46.6031 -40.0000
47.5730 -70.6942 -40.0000
38.9169 -84.8681 -40.0000
35.1693 -45.6967 -40.0000
36.3254 -11.2762 -40.0000
26.3884 -61.4627 -40.0000
44.4481 -75.0500 -40.0000
32.8016 -64.4380 -40.0000
49.6327 2.2425 -40.0000
21.2497 -9.4917 -40.0000
39.3896 3.2382 -40.0000
22.6000 -6.9558 -40.0000
38.4737 -26.3778 -40.0000
36.4307 -24.6419 -40.0000
24.3922 -77.8934 -40.0000
27.2499 -66.6348 -40.0000
43.7908 -22.9718 -40.0000
41.3395 -16.5102 -40.0000
33.8416 -53.2765 -40.0000
48.1908 14.5191 -40.0000
26.2601 14.3821 -40.0000
41.0923 -53.5345 -40.0000
31.0077 -18.2923 -40.0000
48.0280 6.1650 -40.0000
41.8413 -18.1532 -40.0000
39.6875 -35.2793 -40.0000
44.1011 -63.6008 -40.0000
39.1573 -6.9269 -40.0000
46.3764 -65.8669 -40.0000
26.3898 6.3183 -40.0000
43.5424 -34.5953 -40.0000
42.2544 -12.6260 -40.0000
38.8045 13.8020 -40.0000
43.7800 -12.2837 -40.0000
32.5537 -52.5479 -40.0000
43.0109 12.3116 -40.0000
36.0651 -21.7841 -40.0000
38.9915 -32.3541 -40.0000
25.8663 11.9107 -40.0000
26.6291 -38.3002 -40.0000
39.5580 -72.2236 -40.0000
32.1228 -70.4921 -40.0000
47.4037 -80.0082 -40.0000
23.8655 -56.6385 -40.0000
46.4738 -75.4080 -40.0000
24.8459 -77.2482 -40.0000
26.2106 -18.4948 -40.0000
44.2937 -59.4770 -40.0000
28.4522 -29.8589 -40.0000
