ply
format ascii 1.0
element vertex 1024
property float x
property float y
property float z
end_header
50.0000 0.2527 38.5752
50.0000 13.7478 37.3192
50.0000 9.7556 30.2592
50.0000 -6.3009 -4.5584
50.0000 -5.6204 -6.5092
50.0000 -4.0973 30.4798
50.0000 -1.2888 -14.5961
50.0000 3.8003 17.5013
50.0000 12.4608 32.2179
50.0000 13.7887 -34.1531
50.0000 -14.7433 0.9412
50.0000 12.6428 -16.3592
50.0000 1.7399 28.4024
50.0000 14.0861 -34.8855
50.0000 10.7878 6.2647
50.0000 7.9088 -23.5599
50.0000 4.2161 -10.1492
50.0000 -7.2424 6.8198
50.0000 5.1196 15.4267
50.0000 3.0327 -35.9657
50.0000 -12.4145 -38.3616
50.0000 -5.9860 13.1513
50.0000 8.0548 37.0317
50.0000 11.7687 21.7061
50.0000 12.3045 2.5249
50.0000 6.8773 -0.7909
50.0000 -9.9662 7.5690
50.0000 10.5869 9.9435
50.0000 5.3250 12.9250
50.0000 -6.5302 32.9304
50.0000 -0.6847 -12.3003
50.0000 -11.2087 -26.2939
50.0000 9.3376 25.5240
50.0000 7.9516 14.2164
50.0000 11.6224 16.0915
50.0000 8.5155 -14.6745
50.0000 -13.7636 26.9877
50.0000 3.4546 36.3658
50.0000 -0.4081 1.7968
50.0000 7.2891 38.0768
50.0000 -13.9752 29.2299
50.0000 10.0920 -23.3585
50.0000 0.7163 21.4582
50.0000 10.4064 -19.2465
50.0000 -0.9415 29.0686
50.0000 -2.3024 -39.1186
50.0000 -0.9347 -17.0469
50.0000 9.9081 -35.7705
50.0000 -1.0580 -24.1809
50.0000 -13.0258 9.9615
50.0000 -10.4366 9.9341
50.0000 13.7436 18.6547
50.0000 -12.1969 -30.7709
50.0000 -10.7699 11.8773
50.0000 1.7782 -13.4729
50.0000 0.6579 3.2532
50.0000 -8.9264 37.9429
50.0000 8.5234 0.8869
50.0000 -11.1149 28.3549
50.0000 -11.1191 33.0393
50.0000 5.2393 14.6715
50.0000 3.0770 5.8247
50.0000 12.2424 -36.9703
50.0000 -9.1874 -25.2030
50.0000 -8.3600 -8.6258
50.0000 -10.2166 10.5487
50.0000 2.8194 24.6250
50.0000 14.9724 34.1935
50.0000 -5.8319 -27.6342
50.0000 9.3504 8.8009
50.0000 -7.8329 -17.3348
50.0000 -11.6753 6.3113
50.0000 6.1943 -21.5356
50.0000 -7.4229 8.6125
50.0000 2.7640 -13.1252
50.0000 9.8136 -35.7304
50.0000 -3.6504 -34.5488
50.0000 10.5914 21.2538
50.0000 6.5100 38.3449
50.0000 14.3036 -32.1750
50.0000 12.3292 -38.5149
50.0000 -9.6998 14.5209
50.0000 -11.8561 8.9730
50.0000 -12.7875 11.8782
50.0000 -12.8510 0.5389
50.0000 -14.0128 33.5099
-50.0000 4.6941 -13.1433
-50.0000 13.8869 28.0788
-50.0000 0.3981 14.3014
-50.0000 -5.3680 -2.4552
-50.0000 5.5833 7.9410
-50.0000 -0.1793 17.1392
-50.0000 -2.9311 -5.2928
-50.0000 12.9780 -4.1164
-50.0000 -6.4921 -17.4790
-50.0000 -3.6721 -27.2800
-50.0000 8.7169 11.5225
-50.0000 -0.9818 -5.8554
-50.0000 1.6901 28.3787
-50.0000 -3.2058 15.5575
-50.0000 12.3820 3.2629
-50.0000 3.5699 20.5374
-50.0000 3.2904 25.2519
-50.0000 11.0634 22.7633
-50.0000 9.8545 10.6072
-50.0000 -7.5351 -20.3501
-50.0000 5.5839 22.2966
-50.0000 4.5323 0.9068
-50.0000 9.4073 0.5045
-50.0000 -8.2527 19.7125
-50.0000 7.9423 -4.0501
-50.0000 -5.1253 -32.8362
-50.0000 11.7961 34.2797
-50.0000 10.3060 -6.0245
-50.0000 14.3227 10.7637
-50.0000 -1.2133 -10.8433
-50.0000 -9.1878 -9.6756
-50.0000 -12.1155 -7.3947
-50.0000 5.1817 -26.9313
-50.0000 8.4480 -18.4190
-50.0000 -3.6506 -20.2414
-50.0000 3.7866 -22.4276
-50.0000 0.1448 31.6834
-50.0000 -7.3612 26.8597
-50.0000 -9.3688 -18.4099
-50.0000 -1.8868 -36.1601
-50.0000 10.5070 -15.4214
-50.0000 13.3015 9.4122
-50.0000 -12.3526 -26.1658
-50.0000 -12.0563 -5.8693
-50.0000 12.9854 22.5360
-50.0000 -1.8420 32.4341
-50.0000 -4.7034 30.2567
-50.0000 -14.3390 -18.5626
-50.0000 11.7777 28.0868
-50.0000 -14.6525 25.4650
-50.0000 4.0902 19.7358
-50.0000 13.7665 4.7433
-50.0000 -6.2057 3.6459
-50.0000 -2.5986 -32.8878
-50.0000 0.7945 -36.1449
-50.0000 4.9418 -25.8012
-50.0000 -6.4522 -39.7118
-50.0000 13.1299 -9.4037
-50.0000 -10.9114 -19.4659
-50.0000 1.9431 -37.3515
-50.0000 -5.5089 -31.0234
-50.0000 10.3768 -31.3704
-50.0000 0.6916 -7.6940
-50.0000 6.8652 -5.4444
-50.0000 -13.2246 29.8175
-50.0000 3.7155 -23.0338
-50.0000 3.7066 22.7908
-50.0000 2.0357 38.9720
-50.0000 9.4892 -23.0880
-50.0000 -0.7358 34.7522
-50.0000 14.3425 29.8434
-50.0000 5.4304 15.2701
-50.0000 -8.4870 -15.8896
-50.0000 2.7799 -16.1944
-50.0000 -8.8313 37.4822
-50.0000 -11.8690 -21.9431
-50.0000 -8.1424 30.0813
-50.0000 -7.5011 15.2328
-50.0000 0.4573 34.8830
-50.0000 12.2985 -16.3727
-50.0000 9.8136 4.2731
-50.0000 -14.9652 -10.1723
-50.0000 7.5146 -19.0300
-50.0000 -2.1142 28.5053
-50.0000 -4.3180 -23.1277
-50.0000 -2.2918 -12.4422
-17.4148 15.0000 -22.7763
-30.9842 15.0000 22.7527
17.7712 15.0000 25.0972
10.8110 15.0000 -18.2041
25.9121 15.0000 -4.2461
48.8731 15.0000 15.9474
-30.6745 15.0000 -17.9384
22.5497 15.0000 -1.2289
40.4805 15.0000 -39.3562
0.4409 15.0000 -29.0135
-17.2004 15.0000 2.9119
-7.7407 15.0000 -4.5612
-18.9630 15.0000 -36.4463
-2.1733 15.0000 -13.5580
-10.9590 15.0000 4.1262
-31.2640 15.0000 32.7207
8.0728 15.0000 -36.5665
45.0399 15.0000 -35.8996
19.8327 15.0000 12.7119
-16.2357 15.0000 23.9435
-19.0423 15.0000 -14.9111
-35.6656 15.0000 4.8822
-41.8482 15.0000 -27.4699
-17.3982 15.0000 14.3966
1.1187 15.0000 -5.5735
-29.4465 15.0000 -11.6501
45.7633 15.0000 -2.1786
22.6304 15.0000 -10.2669
18.9304 15.0000 2.3424
47.7542 15.0000 -36.0237
-21.7729 15.0000 -16.7637
-0.3204 15.0000 -38.0704
8.1711 15.0000 25.5335
-14.3280 15.0000 17.1678
-46.5406 15.0000 -6.9352
-28.3974 15.0000 -10.4575
-18.4810 15.0000 -22.6436
-34.3153 15.0000 37.8912
-9.9023 15.0000 20.2113
-41.8169 15.0000 5.6376
27.3513 15.0000 32.4725
-25.4170 15.0000 24.2321
36.1155 15.0000 -18.2470
22.2864 15.0000 -33.6642
10.4534 15.0000 -31.1543
35.4946 15.0000 37.7778
8.4070 15.0000 -25.9068
-19.4295 15.0000 -14.4591
-26.6238 15.0000 14.4821
-10.0471 15.0000 -32.0312
20.9252 15.0000 -21.3660
-9.0624 15.0000 9.5173
-19.6213 15.0000 13.3241
15.7540 15.0000 10.9651
-43.6329 15.0000 4.4134
-38.2814 15.0000 6.5209
-44.7575 15.0000 29.2543
-37.4241 15.0000 -16.3991
-2.9262 15.0000 -4.2678
-10.6660 15.0000 -1.4356
-24.7807 15.0000 -9.3516
-19.0907 15.0000 -19.4587
6.1475 15.0000 -4.0205
30.3391 15.0000 34.5833
22.1194 15.0000 -32.3599
34.8567 15.0000 -28.2355
-48.4244 15.0000 6.0796
-13.3230 15.0000 38.1316
-28.3990 15.0000 -32.3375
-31.0853 15.0000 34.4084
-49.2619 15.0000 -20.4241
48.3212 15.0000 28.7916
-7.2218 15.0000 -3.3318
-24.6955 15.0000 21.0476
31.3056 15.0000 25.8101
-39.5280 15.0000 11.4332
-22.3732 15.0000 3.4328
-30.3183 15.0000 -24.6012
38.0762 15.0000 -7.0877
-38.4836 15.0000 18.6748
-28.5449 15.0000 -12.4171
-28.4699 15.0000 -2.5389
42.0945 15.0000 33.6168
40.2528 15.0000 17.4370
31.1662 15.0000 -18.4544
4.4739 -15.0000 -5.6995
-23.3122 -15.0000 -19.7166
16.9088 -15.0000 -3.7177
-35.1162 -15.0000 7.0133
-49.0563 -15.0000 25.4033
6.2811 -15.0000 -37.9472
34.8399 -15.0000 -2.0011
37.6523 -15.0000 -32.2878
-2.1245 -15.0000 -36.9183
2.2694 -15.0000 18.9402
29.1086 -15.0000 -11.5350
-38.6731 -15.0000 3.0887
-27.8686 -15.0000 -35.8266
22.5304 -15.0000 -11.5552
42.3011 -15.0000 -33.1976
-7.8550 -15.0000 34.5362
-41.9037 -15.0000 17.7095
26.3627 -15.0000 -28.0406
42.2436 -15.0000 10.0548
-21.4460 -15.0000 34.2612
28.9731 -15.0000 36.3968
-13.1093 -15.0000 29.2090
9.8137 -15.0000 -17.4280
3.8058 -15.0000 18.4758
2.1470 -15.0000 6.7020
-39.0077 -15.0000 -19.6213
-6.6201 -15.0000 15.4283
-15.0676 -15.0000 1.6505
25.9867 -15.0000 -1.9243
25.3779 -15.0000 2.5232
-4.8511 -15.0000 -32.6348
-41.1695 -15.0000 -39.8082
-32.1604 -15.0000 18.5987
33.0033 -15.0000 33.8937
46.3199 -15.0000 -18.1951
-17.5035 -15.0000 28.3884
23.4868 -15.0000 18.4735
46.1263 -15.0000 -36.6805
-27.1347 -15.0000 6.4505
-7.7561 -15.0000 -34.8460
37.6975 -15.0000 -5.6280
14.8380 -15.0000 2.7354
-34.4663 -15.0000 30.9715
-31.8687 -15.0000 -15.2552
-28.1065 -15.0000 13.5838
39.6717 -15.0000 31.7010
9.3069 -15.0000 20.1718
13.5630 -15.0000 -14.4161
17.5571 -15.0000 -39.5611
-18.4027 -15.0000 -39.1987
-18.7822 -15.0000 12.0178
38.5652 -15.0000 -38.9094
21.4572 -15.0000 33.9193
47.6191 -15.0000 -14.8987
46.7748 -15.0000 -20.5004
-11.4159 -15.0000 30.8082
19.7146 -15.0000 25.9126
-17.9790 -15.0000 -13.2595
-41.8170 -15.0000 25.5906
-28.6165 -15.0000 24.6609
-15.7644 -15.0000 24.4380
-19.5857 -15.0000 -17.8134
-25.6884 -15.0000 24.1755
39.3696 -15.0000 -33.8016
-23.4379 -15.0000 31.5603
-42.0659 -15.0000 -1.4081
0.2396 -15.0000 -2.9231
48.4836 -15.0000 7.1444
33.3583 -15.0000 34.4963
-21.6733 -15.0000 21.1096
-15.8337 -15.0000 -35.4900
22.6653 -15.0000 33.8530
0.5815 -15.0000 -37.9733
-41.6515 -15.0000 29.0855
45.3168 -15.0000 16.0569
21.4573 -15.0000 -2.0821
35.2144 -15.0000 -6.8517
-28.1650 -15.0000 -3.0250
-19.1534 -15.0000 13.9183
49.9916 -15.0000 24.0253
25.6439 -15.0000 23.9038
-42.7276 -15.0000 0.1221
32.8420 -15.0000 -38.1970
27.9217 -15.0000 27.5483
31.2398 -15.0000 -25.7332
10.9675 4.2050 40.0000
41.9600 -0.8715 40.0000
-15.4379 -10.9372 40.0000
-19.5290 4.8431 40.0000
48.4652 13.6745 40.0000
-40.7040 4.1516 40.0000
-12.6702 -9.3054 40.0000
13.3876 14.9502 40.0000
22.1778 3.9567 40.0000
30.3909 -13.2405 40.0000
-7.8418 10.4488 40.0000
47.5011 7.7290 40.0000
-18.8968 8.3515 40.0000
0.0215 -2.1695 40.0000
43.8208 5.5718 40.0000
-44.1308 10.2276 40.0000
-3.7244 14.6804 40.0000
-27.1241 -0.6346 40.0000
9.0910 -14.0386 40.0000
-43.4161 13.3966 40.0000
-21.1697 -6.4448 40.0000
6.4761 -14.4083 40.0000
35.1566 13.6610 40.0000
23.8916 14.1580 40.0000
11.9475 0.8948 40.0000
42.4823 -2.5538 40.0000
-44.6947 6.3668 40.0000
-0.0140 -1.6174 40.0000
-9.1294 3.5355 40.0000
19.9781 1.3534 40.0000
5.7357 -12.3882 40.0000
-32.5504 6.3757 40.0000
-27.5236 -1.4661 40.0000
-38.5183 0.7716 40.0000
-39.9492 -12.4515 40.0000
-1.4920 -10.2434 40.0000
46.1554 -0.9508 40.0000
-48.2506 -2.4967 40.0000
-48.9885 -8.1611 40.0000
-7.1276 -6.2290 40.0000
23.6057 -6.9486 40.0000
43.4408 -6.0321 40.0000
-2.2191 -4.7453 40.0000
-20.0932 -0.7973 40.0000
19.5284 -10.7419 40.0000
-47.8167 5.7169 40.0000
48.5948 13.8950 40.0000
0.2082 1.7286 40.0000
6.0447 11.9940 40.0000
-0.5158 -10.7703 40.0000
-13.2941 4.5352 40.0000
-39.1375 -8.3398 40.0000
44.0752 10.9643 40.0000
-30.2951 -13.4872 40.0000
13.9863 -0.1712 40.0000
-26.8728 -13.1964 40.0000
10.2319 -6.1517 40.0000
41.1187 10.1720 40.0000
-2.2052 8.8692 40.0000
-6.4112 10.7852 40.0000
36.1674 13.4726 40.0000
-48.2540 -2.3653 40.0000
18.4267 -13.9452 40.0000
-43.2391 6.8755 40.0000
19.2714 5.8846 40.0000
12.6664 6.7781 40.0000
-31.1519 -0.5311 40.0000
-31.4465 -0.2831 40.0000
-37.1994 -10.5522 40.0000
41.5336 -10.9889 40.0000
46.9868 7.6138 40.0000
-40.9895 3.1365 40.0000
-1.8117 -8.5463 40.0000
2.6687 -14.1916 40.0000
-13.1256 2.0433 40.0000
14.9654 5.5476 40.0000
10.6416 1.5209 40.0000
-15.5793 -14.5953 40.0000
-27.6026 -4.3122 40.0000
-31.0689 -7.5195 40.0000
-20.3934 -13.5048 40.0000
34.6513 13.2000 40.0000
-44.7683 4.3184 40.0000
44.6350 -11.9840 40.0000
22.0632 14.5665 40.0000
-45.4127 -8.2642 -40.0000
-9.7358 -3.8528 -40.0000
-18.1345 -13.5527 -40.0000
34.9804 8.8458 -40.0000
6.3838 -1.2735 -40.0000
49.2308 -2.9624 -40.0000
-27.9399 11.1491 -40.0000
-45.9211 -2.6026 -40.0000
-42.4091 12.3459 -40.0000
-25.0962 -0.7918 -40.0000
46.6365 9.8380 -40.0000
-6.1206 -8.7144 -40.0000
45.7851 7.1178 -40.0000
-40.3117 -7.5025 -40.0000
38.3920 8.5000 -40.0000
-12.0971 10.6293 -40.0000
16.1037 -12.6855 -40.0000
-25.6270 3.7610 -40.0000
49.7105 -1.1620 -40.0000
48.4917 11.3628 -40.0000
43.1524 -4.9353 -40.0000
1.3437 -13.5990 -40.0000
27.1499 -8.5995 -40.0000
-28.3955 11.3416 -40.0000
-41.1895 11.5975 -40.0000
-40.1374 13.6667 -40.0000
-45.3489 3.2248 -40.0000
-21.2334 -3.5119 -40.0000
4.7952 0.6048 -40.0000
-4.8919 -0.9412 -40.0000
9.8578 -14.2809 -40.0000
8.1828 -1.1564 -40.0000
16.6515 6.9849 -40.0000
-31.6984 12.7753 -40.0000
12.0354 9.0243 -40.0000
-22.5307 -7.6444 -40.0000
25.1723 -2.8693 -40.0000
15.3731 13.4135 -40.0000
7.8006 -4.2539 -40.0000
33.3298 -2.7865 -40.0000
15.3363 8.8155 -40.0000
-39.2264 -4.2865 -40.0000
-49.6750 8.3725 -40.0000
26.8085 -2.1337 -40.0000
-11.2898 -12.0655 -40.0000
-25.3213 -10.8369 -40.0000
-9.9191 -9.5506 -40.0000
-23.4179 4.9067 -40.0000
25.5304 12.9613 -40.0000
-21.3469 6.3706 -40.0000
-15.5835 -5.4059 -40.0000
-21.6484 -7.6543 -40.0000
8.0329 -8.6771 -40.0000
-6.9551 -14.8152 -40.0000
-8.3816 12.0218 -40.0000
5.6050 -10.1721 -40.0000
23.2702 10.1287 -40.0000
-49.3377 -6.3424 -40.0000
-15.3419 -2.2932 -40.0000
16.8126 9.0445 -40.0000
37.8820 -3.7988 -40.0000
-19.6509 12.4276 -40.0000
33.1673 -1.8075 -40.0000
-31.2608 -6.1571 -40.0000
11.0591 2.2918 -40.0000
-47.4939 14.1131 -40.0000
43.3807 -13.3204 -40.0000
-44.8562 -9.0874 -40.0000
-23.5265 -14.4284 -40.0000
-21.0158 4.0341 -40.0000
-10.4741 6.6358 -40.0000
-17.5633 -7.3182 -40.0000
3.0991 6.6306 -40.0000
5.2022 6.1443 -40.0000
-38.1403 11.8532 -40.0000
-36.0508 -0.2733 -40.0000
47.8176 -9.6251 -40.0000
17.1577 5.2908 -40.0000
-15.1600 1.5601 -40.0000
-46.7143 -1.0987 -40.0000
-38.4804 4.5826 -40.0000
33.3666 10.6054 -40.0000
-49.5410 3.4258 -40.0000
-29.5427 -12.4350 -40.0000
36.5155 -7.0130 -40.0000
50.0000 7.3173 0.8871
50.0000 -66.0458 15.9303
50.0000 -66.2555 39.1123
50.0000 5.9922 -21.1331
50.0000 -48.8989 35.6996
50.0000 -2.5419 -2.4521
50.0000 -36.2577 -16.1632
50.0000 -12.7448 -34.9075
50.0000 -26.4169 17.5337
50.0000 -60.5167 39.4181
50.0000 -11.9744 -22.0038
50.0000 -51.1054 21.5292
50.0000 -74.8468 -32.0487
50.0000 -25.7329 -2.9907
50.0000 -41.1904 -38.6482
50.0000 -45.8422 -1.3928
50.0000 2.4681 -19.3523
50.0000 -72.3126 12.4120
50.0000 -6.6063 22.6716
50.0000 -76.4824 -13.1618
50.0000 -76.1499 -9.8652
50.0000 -19.7771 -34.1180
50.0000 -77.9195 39.9382
50.0000 -50.6274 -28.8042
50.0000 -60.5171 -30.5420
50.0000 -69.1469 37.6617
50.0000 -72.4391 -8.0839
50.0000 -15.2097 -18.0287
50.0000 -39.1139 12.2136
50.0000 -67.3722 -18.2004
50.0000 -7.8043 -20.2926
50.0000 0.8178 15.9312
50.0000 14.1250 21.0389
50.0000 8.4769 -26.0293
50.0000 -78.7768 19.1094
50.0000 10.7360 -0.3011
50.0000 -20.4022 38.3679
50.0000 -70.5072 0.6047
50.0000 -40.0334 -26.8756
50.0000 -11.5901 8.4693
50.0000 -76.4884 -1.7766
50.0000 -74.0688 -23.8795
50.0000 6.7125 33.7121
50.0000 2.7207 3.7422
50.0000 3.3027 32.2715
50.0000 -4.6315 -7.5016
50.0000 -79.2955 -22.7164
50.0000 -24.5686 -9.3181
50.0000 12.1785 -19.5403
50.0000 -76.0108 16.2065
50.0000 -13.2383 -23.2448
50.0000 -19.2008 -12.1755
50.0000 -47.8729 -16.6797
50.0000 -80.5200 3.9899
50.0000 -74.4927 -33.3198
50.0000 12.6830 -7.4688
50.0000 -64.0911 19.4303
50.0000 1.9711 32.8578
50.0000 -50.1973 -21.4560
50.0000 -81.4624 -20.1596
50.0000 -20.2026 -30.2215
50.0000 -16.2778 -17.3867
50.0000 -79.9059 11.6761
50.0000 -75.8851 -8.4755
50.0000 -47.5036 19.4721
50.0000 -34.4600 -5.3249
50.0000 -46.6332 -3.3514
50.0000 -46.4159 -18.1257
50.0000 -75.5952 39.8137
50.0000 -7.5559 -24.0441
50.0000 11.7721 18.3890
50.0000 -64.8656 -32.9200
50.0000 -38.3629 14.1503
50.0000 -43.2312 -7.5706
50.0000 -3.0062 28.3193
50.0000 -48.1855 25.2532
50.0000 -84.9520 19.2232
50.0000 -39.4094 -30.5544
50.0000 4.4659 -21.8076
50.0000 -75.4364 -34.2978
50.0000 -62.5094 14.2496
50.0000 -63.1458 -12.1847
50.0000 -0.7277 -11.6515
50.0000 -51.1148 -13.2920
50.0000 -44.6032 -6.5080
50.0000 -14.2239 10.7693
20.0000 -82.2946 -6.7551
20.0000 -25.6777 -5.0913
20.0000 -60.5786 -10.6831
20.0000 4.5864 14.8393
20.0000 -31.3378 -3.8278
20.0000 -72.4403 -16.4092
20.0000 -77.4805 -19.5923
20.0000 -24.1688 -37.9023
20.0000 -15.9038 33.5068
20.0000 4.2903 14.6000
20.0000 -51.3183 -26.8024
20.0000 10.1073 39.8986
20.0000 7.5617 14.6992
20.0000 -27.7455 30.3720
20.0000 -13.6549 -15.6972
20.0000 -77.3172 -7.8612
20.0000 -51.4835 21.5413
20.0000 7.2940 21.5797
20.0000 -56.6598 22.3036
20.0000 -73.0143 -36.5375
20.0000 -2.1733 15.0215
20.0000 9.8861 34.2583
20.0000 -4.5700 -20.9957
20.0000 -43.6764 -19.8619
20.0000 -12.8583 26.1050
20.0000 -54.3150 17.4002
20.0000 -12.7484 3.5352
20.0000 -77.9417 25.2322
20.0000 -16.9820 15.1901
20.0000 -79.8210 6.8636
20.0000 -77.3730 -25.5420
20.0000 -64.4909 -18.0277
20.0000 12.3081 -0.0430
20.0000 -13.4978 25.2768
20.0000 -65.4345 -7.7796
20.0000 -37.4020 18.6691
20.0000 -11.9736 -38.3086
20.0000 -63.5679 3.2791
20.0000 -21.8872 32.8971
20.0000 5.9521 13.9645
20.0000 -67.0120 31.6753
20.0000 6.8944 -2.5969
20.0000 10.7182 -31.7585
20.0000 -60.4986 -5.0616
20.0000 -17.0127 3.2972
20.0000 -27.8616 -3.1191
20.0000 -25.2794 -27.9894
20.0000 -81.1046 33.9006
20.0000 -18.2712 -12.5147
20.0000 -60.0769 25.8497
20.0000 -53.4840 -10.6605
20.0000 -22.6754 -9.3386
20.0000 -15.3925 -13.7485
20.0000 -82.4282 22.1188
20.0000 -77.4683 -29.5670
20.0000 -58.5611 31.2638
20.0000 -67.9259 18.8752
20.0000 -1.1319 -2.5127
20.0000 -13.8158 -24.2635
20.0000 8.1515 34.3483
20.0000 -42.3553 -23.3333
20.0000 -76.7756 10.8252
20.0000 -34.0775 -32.4107
20.0000 -26.6006 -21.6013
20.0000 -25.2002 2.5828
20.0000 -67.8241 -27.9285
20.0000 -10.3329 1.4985
20.0000 -24.4569 23.9057
20.0000 -49.9386 -28.1767
20.0000 3.8608 -3.0788
20.0000 -72.9774 10.9082
20.0000 -49.5947 -38.4348
20.0000 -4.4821 -10.2691
20.0000 -83.4895 -35.6191
20.0000 -38.2085 -38.9872
20.0000 -77.7929 -3.4460
20.0000 -57.5748 -7.2294
20.0000 -39.2112 19.2755
20.0000 12.6972 1.0316
20.0000 -76.6529 24.6448
20.0000 -42.0810 -29.2547
20.0000 -36.7527 -39.7276
20.0000 -46.5429 -34.2938
20.0000 -46.1120 -6.2268
20.0000 10.7460 24.6870
20.0000 -76.8999 -11.0640
37.2590 15.0000 -37.8300
34.8864 15.0000 -13.4405
38.3555 15.0000 -32.7343
22.7009 15.0000 -8.3469
24.7746 15.0000 37.6525
48.7108 15.0000 -30.4493
33.4898 15.0000 -22.2850
28.1288 15.0000 -17.8423
45.8551 15.0000 -18.5421
48.8309 15.0000 32.9067
37.8044 15.0000 16.5427
43.5527 15.0000 23.2868
42.5617 15.0000 -15.3046
41.3498 15.0000 -37.0120
24.8254 15.0000 -29.1581
35.3328 15.0000 23.5167
31.3772 15.0000 -0.3115
37.4166 15.0000 20.7011
46.0426 15.0000 -5.9370
26.5182 15.0000 -0.8774
24.5055 15.0000 1.4978
30.9442 15.0000 -9.6524
42.3937 15.0000 18.9701
28.4998 15.0000 26.2378
40.2825 15.0000 -21.4165
30.6248 15.0000 -33.1481
49.9124 15.0000 -38.1553
41.1866 15.0000 1.8145
43.1946 15.0000 -10.4878
30.3809 15.0000 25.4909
28.8153 15.0000 9.1145
46.7270 15.0000 18.2364
39.3819 15.0000 -39.2780
23.5678 15.0000 -21.9805
43.8627 15.0000 35.1562
45.7612 15.0000 -10.2024
37.9573 15.0000 -13.9073
45.3568 15.0000 5.0042
31.7573 15.0000 10.9652
36.3747 15.0000 -32.9365
26.9079 15.0000 35.2220
29.6186 15.0000 11.5228
49.5301 15.0000 0.6571
24.6170 15.0000 -24.2936
42.6653 15.0000 -31.1499
31.6736 15.0000 -0.7223
31.3017 15.0000 -9.7682
36.6331 15.0000 35.0719
40.8256 15.0000 -3.4780
21.6781 15.0000 17.6321
23.5996 15.0000 2.5746
20.1305 15.0000 -27.5335
40.9446 15.0000 7.0447
22.8459 15.0000 -4.8093
29.1382 15.0000 20.1429
42.2326 15.0000 -14.9158
39.0104 15.0000 -12.8618
33.3260 15.0000 38.3249
21.7738 15.0000 19.9553
23.1543 15.0000 11.1740
43.0590 15.0000 27.8115
46.3379 15.0000 -4.1418
33.2594 15.0000 25.4460
32.4802 15.0000 11.5687
36.4365 15.0000 33.8503
32.3621 15.0000 29.7883
36.7640 15.0000 -3.9900
34.2446 15.0000 13.2608
40.0404 15.0000 30.6532
48.7178 15.0000 1.0255
41.7961 15.0000 19.0630
28.6646 15.0000 0.8816
35.3528 15.0000 -30.8672
40.9017 15.0000 14.0700
28.7882 15.0000 21.1016
39.6332 15.0000 7.5167
21.4159 15.0000 -34.6284
31.1237 15.0000 33.6733
22.9270 15.0000 33.7732
31.5523 15.0000 5.2145
31.0996 15.0000 11.5388
20.5531 15.0000 -22.5267
44.6143 15.0000 35.1669
28.0206 15.0000 -1.6647
45.3645 15.0000 -36.6632
29.5969 -85.0000 -18.0729
24.9288 -85.0000 -22.8031
45.8583 -85.0000 -15.5497
25.0662 -85.0000 31.9306
38.4403 -85.0000 28.4614
30.0654 -85.0000 -22.9555
41.9463 -85.0000 36.3477
32.7994 -85.0000 12.9276
33.6151 -85.0000 -36.2723
39.7506 -85.0000 35.8978
41.2563 -85.0000 30.6002
30.2319 -85.0000 32.3251
37.9873 -85.0000 -21.4073
21.1309 -85.0000 -19.1248
46.0660 -85.0000 21.1456
29.5487 -85.0000 -19.3824
36.7815 -85.0000 -39.1369
24.4913 -85.0000 -7.3468
42.4266 -85.0000 3.2897
39.7572 -85.0000 36.6421
36.2242 -85.0000 -29.1002
43.4670 -85.0000 6.3417
42.0817 -85.0000 -11.2174
42.7156 -85.0000 -35.3985
49.5907 -85.0000 30.3211
48.6370 -85.0000 34.6936
20.2516 -85.0000 -21.4880
33.6426 -85.0000 -29.9926
23.0019 -85.0000 23.6601
20.0378 -85.0000 20.4103
36.9357 -85.0000 2.9262
31.1986 -85.0000 15.3872
38.6980 -85.0000 -39.2130
43.6537 -85.0000 -39.9375
49.1032 -85.0000 -26.2427
38.7022 -85.0000 -24.6061
27.6379 -85.0000 36.2953
22.3511 -85.0000 -11.8853
41.7137 -85.0000 13.6147
42.1718 -85.0000 19.8167
43.4698 -85.0000 25.8865
33.4319 -85.0000 36.8217
36.5802 -85.0000 -8.4287
46.1944 -85.0000 28.5744
36.3457 -85.0000 -11.1903
32.1502 -85.0000 -10.5268
23.4924 -85.0000 15.0552
27.0069 -85.0000 5.4831
38.0494 -85.0000 -2.3928
36.7296 -85.0000 -7.3720
31.3896 -85.0000 -36.2193
45.4641 -85.0000 27.6673
20.5218 -85.0000 39.4237
27.7368 -85.0000 16.2834
46.0986 -85.0000 -34.5727
31.3240 -85.0000 -30.0091
29.1280 -85.0000 5.4789
28.3878 -85.0000 -29.5690
46.2637 -85.0000 24.6767
32.6705 -85.0000 27.4691
30.2003 -85.0000 39.9619
46.2433 -85.0000 10.8205
29.1671 -85.0000 17.0747
21.4750 -85.0000 10.7697
38.8256 -85.0000 -31.9138
47.2753 -85.0000 -23.8128
21.5624 -85.0000 -20.0266
28.3670 -85.0000 -25.4079
21.3967 -85.0000 -0.7585
48.4521 -85.0000 22.7472
33.5005 -85.0000 -21.1420
24.5594 -85.0000 13.2779
41.3562 -85.0000 -22.0471
20.2254 -85.0000 25.9057
26.6613 -85.0000 -19.7351
29.5024 -85.0000 -32.6486
34.5666 -85.0000 -34.1825
24.6188 -85.0000 -15.3700
43.3364 -85.0000 23.7672
28.0180 -85.0000 -0.1881
40.2992 -85.0000 15.6264
25.4762 -85.0000 -27.9774
31.3090 -85.0000 -26.5489
28.6672 -85.0000 0.2388
20.4702 -85.0000 24.1809
35.7423 -30.7835 40.0000
25.2290 -36.6239 40.0000
20.4609 -82.8604 40.0000
37.0012 2.2734 40.0000
38.4553 -6.3904 40.0000
39.5143 8.0165 40.0000
21.8470 13.1808 40.0000
34.3289 -21.6273 40.0000
43.7744 -42.5648 40.0000
34.3511 -29.9775 40.0000
29.3131 -33.5997 40.0000
33.0379 -35.3174 40.0000
48.9296 -18.3748 40.0000
27.9837 -73.9628 40.0000
29.6338 -49.4129 40.0000
37.3911 -53.7898 40.0000
48.8862 -52.3424 40.0000
30.6420 -30.6952 40.0000
33.9829 -45.0382 40.0000
44.4383 -30.4752 40.0000
31.7083 -34.4423 40.0000
32.2691 -36.5999 40.0000
32.8138 -84.8298 40.0000
28.1561 -68.1155 40.0000
34.0655 -9.4711 40.0000
46.4181 -84.0337 40.0000
20.1948 -13.2551 40.0000
47.3558 -56.9437 40.0000
22.7250 -8.3099 40.0000
29.4760 11.3717 40.0000
36.6043 -75.5664 40.0000
24.0645 13.7457 40.0000
30.0207 -35.9779 40.0000
46.5511 -34.2504 40.0000
22.6339 -48.1005 40.0000
33.0342 -50.9770 40.0000
21.9770 -12.1696 40.0000
35.3737 -21.6051 40.0000
38.2591 -73.7781 40.0000
38.8942 -39.1986 40.0000
34.1214 9.5150 40.0000
47.6824 -34.4733 40.0000
35.9546 5.8092 40.0000
48.4036 -11.4114 40.0000
39.4119 -2.6112 40.0000
44.0621 0.6191 40.0000
25.3711 4.3293 40.0000
28.2427 -10.7754 40.0000
29.1408 14.5297 40.0000
42.9199 -38.5047 40.0000
49.8395 -36.7116 40.0000
28.7173 -37.4214 40.0000
46.5701 -59.1796 40.0000
24.0720 1.2142 40.0000
30.6810 -72.1887 40.0000
45.2944 -67.1229 40.0000
38.2837 -17.3537 40.0000
44.0757 -43.6529 40.0000
29.5373 -39.6874 40.0000
46.8442 -44.5258 40.0000
33.7881 -40.7094 40.0000
48.4157 -65.4122 40.0000
37.6080 4.7879 40.0000
38.1674 -49.8058 40.0000
33.0116 -35.0995 40.0000
46.0382 -20.2730 40.0000
43.3357 -66.7881 40.0000
21.5221 -69.3214 40.0000
45.5138 -18.3597 40.0000
43.3147 -18.7076 40.0000
27.5976 -20.6139 40.0000
46.0989 -35.1874 40.0000
46.8000 -39.3323 40.0000
36.7193 -61.3456 40.0000
39.6751 14.8864 40.0000
38.6799 -50.7357 40.0000
31.2275 -33.4800 40.0000
39.6130 -5.9200 40.0000
21.1973 -20.3393 40.0000
44.7460 -4.1800 40.0000
44.8690 -33.9342 40.0000
43.5558 -12.7384 40.0000
49.9856 0.8661 40.0000
37.9199 -38.1791 40.0000
40.0523 5.3479 40.0000
32.5184 -10.6150 -40.0000
39.7981 -33.0855 -40.0000
44.8888 -47.7585 -40.0000
30.9632 3.8363 -40.0000
37.4276 -22.9765 -40.0000
31.8468 -51.7000 -40.0000
49.0466 -23.5717 -40.0000
44.3773 6.3551 -40.0000
35.4306 -26.4992 -40.0000
46.8184 -33.6924 -40.0000
48.6709 -66.5897 -40.0000
29.0625 -8.8482 -40.0000
24.4240 -16.3221 -40.0000
33.7361 -65.2114 -40.0000
47.1477 -84.0641 -40.0000
48.5209 -56.8371 -40.0000
39.2350 -43.7368 -40.0000
43.9557 -30.5070 -40.0000
42.3796 -12.4841 -40.0000
37.8388 -37.9601 -40.0000
41.1635 -50.1935 -40.0000
28.7045 -55.3177 -40.0000
29.6343 -73.5458 -40.0000
20.7055 -14.6476 -40.0000
29.1861 -57.2938 -40.0000
25.7935 -69.9023 -40.0000
34.9360 -83.6058 -40.0000
28.1509 -25.9822 -40.0000
29.6082 -33.6062 -40.0000
22.1374 -67.4734 -40.0000
25.4250 -47.5602 -40.0000
40.4752 -68.8427 -40.0000
37.5857 -22.7477 -40.0000
28.3124 -43.8753 -40.0000
42.4764 -49.1775 -40.0000
35.9867 -12.8752 -40.0000
28.4293 3.4637 -40.0000
43.7396 -84.7491 -40.0000
24.8063 5.7851 -40.0000
23.7083 -39.3857 -40.0000
48.4856 -61.6143 -40.0000
29.5596 -78.4058 -40.0000
45.3465 -16.6388 -40.0000
23.8798 7.2918 -40.0000
33.6999 -29.3914 -40.0000
35.6151 -56.3303 -40.0000
45.6108 -20.8801 -40.0000
44.0553 -40.5610 -40.0000
41.6875 3.5749 -40.0000
41.1172 -67.2974 -40.0000
27.8343 -70.9228 -40.0000
26.5890 -72.3236 -40.0000
44.8713 -40.4358 -40.0000
32.8876 -53.7907 -40.0000
23.8317 -0.7374 -40.0000
20.9958 4.0351 -40.0000
42.9852 -20.7443 -40.0000
22.3913 -40.4171 -40.0000
27.7198 -12.1262 -40.0000
31.0305 -84.3189 -40.0000
23.2429 -41.7375 -40.0000
37.6229 -39.9315 -40.0000
34.4620 -50.5196 -40.0000
35.0481 14.7242 -40.0000
44.0638 -78.0253 -40.0000
29.7900 8.0841 -40.0000
28.6493 -47.6534 -40.0000
28.6388 -9.6864 -40.0000
43.0554 -9.6692 -40.0000
37.6209 -82.6387 -40.0000
22.0491 -38.4885 -40.0000
20.8331 -72.7788 -40.0000
40.6590 -23.6340 -40.0000
34.2433 -69.2553 -40.0000
46.0393 -4.3600 -40.0000
47.3122 -16.0442 -40.0000
21.5383 12.2029 -40.0000
42.3999 -70.5832 -40.0000
36.5554 -57.1838 -40.0000
29.4538 -8.1001 -40.0000
35.4798 -31.3363 -40.0000
24.2213 -13.3586 -40.0000
47.7270 -68.4834 -40.0000
47.9050 12.8835 -40.0000
48.4104 -42.2703 -40.0000
