ply
format ascii 1.0
element vertex 1024
property float x
property float y
property float z
end_header
50.0000 -7.9737 -9.3474
50.0000 -12.0282 -18.2304
50.0000 6.3043 -5.7745
50.0000 -4.4958 11.8971
50.0000 13.4543 -39.2654
50.0000 14.6079 9.4224
50.0000 13.3847 -30.0607
50.0000 -1.4433 -6.9972
50.0000 4.9583 -4.4100
50.0000 -6.7337 38.4139
50.0000 -8.6150 -33.6524
50.0000 -3.5861 -26.9181
50.0000 -0.4732 -23.1120
50.0000 13.1042 -9.0317
50.0000 -10.1597 -5.3254
50.0000 -14.2026 32.4975
50.0000 -12.5644 -11.7115
50.0000 -1.5391 30.7998
50.0000 -11.6419 38.0647
50.0000 1.7831 35.2050
50.0000 0.5155 -23.8858
50.0000 6.4669 34.2359
50.0000 12.6827 -31.0460
50.0000 4.0929 9.2140
50.0000 -14.9750 -37.6389
50.0000 7.6236 18.8356
50.0000 13.3103 -5.9947
50.0000 6.4633 32.4203
50.0000 12.6857 14.8997
50.0000 5.6142 3.1186
50.0000 -8.2880 -17.5857
50.0000 10.4538 4.6621
50.0000 5.8944 -9.5334
50.0000 -14.7441 35.8780
50.0000 0.2513 21.9248
50.0000 3.3166 17.2008
50.0000 8.8358 -26.1409
50.0000 -1.2584 3.6240
50.0000 11.4996 10.4952
50.0000 -14.7989 -2.1006
50.0000 8.1437 2.5320
50.0000 10.0013 3.7207
50.0000 -2.7414 -24.0749
50.0000 7.0526 15.2228
50.0000 -13.2316 36.2889
50.0000 -5.5974 20.3075
50.0000 -5.1695 -17.3161
50.0000 -3.0760 -7.1800
50.0000 -6.6149 0.4311
50.0000 9.5218 33.1936
50.0000 13.5049 -1.5774
50.0000 -5.9699 -14.4612
50.0000 -6.5773 33.0746
50.0000 -9.9312 17.4459
50.0000 3.1653 1.3686
50.0000 -2.3043 -21.3659
50.0000 14.3373 8.8059
50.0000 9.5534 -33.1168
50.0000 8.5902 -15.1395
50.0000 5.9866 -31.8388
50.0000 -8.3100 37.2130
50.0000 6.9879 -26.2115
50.0000 -4.4964 -23.6159
50.0000 11.0159 9.5266
50.0000 11.5895 0.5236
50.0000 -7.0602 31.2574
50.0000 -13.0842 31.4193
50.0000 -11.6293 -30.4020
50.0000 9.0781 37.1645
50.0000 -2.1781 27.7624
50.0000 -0.1545 1.6048
50.0000 5.9664 -28.1894
50.0000 -9.7390 -19.0312
50.0000 -1.7486 3.2625
50.0000 -4.6117 -23.4573
50.0000 13.4426 -21.9405
50.0000 13.4240 22.4203
50.0000 -0.7346 -20.9781
50.0000 -8.1723 -29.0246
50.0000 -5.1906 -9.6093
50.0000 -3.6655 -18.6489
50.0000 -5.8317 -27.5835
50.0000 -12.3641 37.2520
50.0000 -7.2084 7.4102
50.0000 -12.7220 29.4716
50.0000 9.3738 -18.9027
-50.0000 -2.6872 32.6229
-50.0000 -6.4424 17.3083
-50.0000 -12.2405 38.3364
-50.0000 0.1250 -38.7630
-50.0000 -8.5294 19.1771
-50.0000 -5.7947 37.6168
-50.0000 7.4557 -33.7316
-50.0000 8.1840 -22.7165
-50.0000 5.0874 -36.7763
-50.0000 -8.1148 23.8846
-50.0000 -2.4712 37.7454
-50.0000 14.4844 -6.1876
-50.0000 -0.8880 4.3646
-50.0000 -8.2386 -17.8514
-50.0000 -2.4515 12.2373
-50.0000 -6.9663 39.2383
-50.0000 0.0764 -31.1067
-50.0000 -8.8678 -10.8339
-50.0000 -6.8320 -39.0875
-50.0000 -9.0717 36.4606
-50.0000 -10.3528 -10.0268
-50.0000 -3.2644 -23.5096
-50.0000 13.3210 -20.2746
-50.0000 1.9411 30.9708
-50.0000 3.2422 34.6509
-50.0000 6.7093 -33.9133
-50.0000 8.5901 -6.1462
-50.0000 4.3128 26.6692
-50.0000 -0.8971 -31.8140
-50.0000 -4.9072 -21.6624
-50.0000 -14.1048 -5.5879
-50.0000 -12.1011 35.2144
-50.0000 8.4561 -15.1625
-50.0000 -11.5253 33.7964
-50.0000 14.7146 35.4875
-50.0000 5.5059 20.5330
-50.0000 9.8025 10.1627
-50.0000 6.1434 32.0703
-50.0000 10.6061 -15.5571
-50.0000 8.6640 35.3454
-50.0000 2.5613 19.7526
-50.0000 -0.8685 -8.1106
-50.0000 -8.9176 15.5370
-50.0000 -14.1259 -0.3278
-50.0000 -1.8945 32.9832
-50.0000 14.3204 -11.9886
-50.0000 14.8594 -2.4349
-50.0000 7.6630 3.2100
-50.0000 -10.6588 6.7731
-50.0000 -11.0772 -13.1424
-50.0000 8.6716 4.6540
-50.0000 -9.8703 -31.5051
-50.0000 -8.2499 37.0421
-50.0000 5.1030 -38.2803
-50.0000 3.1490 2.7561
-50.0000 7.9361 36.2585
-50.0000 -9.4359 8.4022
-50.0000 -2.9690 -9.3887
-50.0000 8.2622 23.6748
-50.0000 12.3537 -29.1693
-50.0000 -7.2635 24.0275
-50.0000 2.5367 -23.7652
-50.0000 9.2591 -32.9606
-50.0000 -3.5446 10.0812
-50.0000 -1.9073 -16.0458
-50.0000 1.8653 14.0120
-50.0000 -3.3710 -15.4413
-50.0000 2.9476 23.2521
-50.0000 -10.6739 17.3263
-50.0000 -2.1387 11.2246
-50.0000 -5.5933 -4.5202
-50.0000 -10.8029 -36.0866
-50.0000 2.6025 -37.2698
-50.0000 10.9245 18.4312
-50.0000 -1.2418 38.6005
-50.0000 4.2009 -4.3354
-50.0000 10.6023 -16.9813
-50.0000 7.3990 34.8933
-50.0000 6.5519 -37.7880
-50.0000 -11.3004 -9.5044
-50.0000 14.9392 33.1859
-50.0000 1.6011 -19.6259
-50.0000 -10.2854 23.5912
-50.0000 2.2867 -4.3317
-50.0000 -0.8573 37.2274
-50.0000 -14.0158 -1.8818
43.7297 15.0000 -30.5560
48.0641 15.0000 -16.0073
40.5591 15.0000 24.1819
18.1157 15.0000 15.4786
19.6810 15.0000 -2.0930
0.5627 15.0000 3.2623
-19.9432 15.0000 -4.3116
5.1426 15.0000 34.0180
35.2675 15.0000 -20.5551
1.7900 15.0000 7.9658
1.4158 15.0000 -5.5432
10.3731 15.0000 17.7493
34.2084 15.0000 -3.9501
-10.9620 15.0000 -36.4220
-11.4718 15.0000 -26.4310
-17.5930 15.0000 -32.8053
-27.6816 15.0000 -14.1124
18.1254 15.0000 -11.5212
-38.4378 15.0000 28.9756
-16.3895 15.0000 -20.2605
-2.4606 15.0000 -37.5835
41.1649 15.0000 -4.2339
48.4334 15.0000 -37.5824
-8.8500 15.0000 -39.1956
-14.6158 15.0000 -12.9527
-5.9024 15.0000 28.3160
33.0433 15.0000 1.2393
47.2040 15.0000 11.4178
16.1505 15.0000 -8.6696
-46.0914 15.0000 38.9932
-28.5469 15.0000 33.7323
-39.4928 15.0000 36.9676
4.8293 15.0000 0.4601
1.1563 15.0000 15.1471
-10.3337 15.0000 -28.0042
26.0915 15.0000 -5.4136
-30.2555 15.0000 -34.5780
4.5226 15.0000 -15.3647
18.7088 15.0000 -23.1227
-25.8703 15.0000 3.6527
25.4650 15.0000 30.5342
-31.8548 15.0000 -38.8786
-22.1404 15.0000 -31.9436
-19.5067 15.0000 37.6946
42.8349 15.0000 22.1733
8.5218 15.0000 34.3269
27.9754 15.0000 7.9083
-14.2337 15.0000 -11.5261
19.6269 15.0000 -11.9582
33.4691 15.0000 9.2769
-4.0048 15.0000 26.1836
27.5883 15.0000 10.3462
43.7975 15.0000 23.9678
-37.8326 15.0000 -19.2309
42.8063 15.0000 -39.5000
-29.2035 15.0000 -11.1669
15.4686 15.0000 34.5988
-12.6138 15.0000 14.4656
-1.5058 15.0000 -34.4752
-46.3864 15.0000 13.5964
1.4368 15.0000 5.8441
4.2208 15.0000 20.3745
-16.6347 15.0000 38.8815
-9.3839 15.0000 1.1918
-14.8748 15.0000 -3.5751
-30.6911 15.0000 30.8208
-43.1396 15.0000 -19.4552
32.7143 15.0000 17.6076
-39.3982 15.0000 27.0300
8.6962 15.0000 37.6756
-20.6594 15.0000 -12.3673
-9.8173 15.0000 -6.1476
35.5394 15.0000 27.9316
48.7894 15.0000 -7.4374
-25.5085 15.0000 7.4361
44.7609 15.0000 14.7796
-11.5089 15.0000 8.9449
-7.4137 15.0000 -36.0613
45.1408 15.0000 19.0429
-2.1327 15.0000 -16.3077
47.9910 15.0000 11.8963
16.4625 15.0000 38.2516
34.6293 15.0000 25.8895
-15.0447 15.0000 -32.4540
34.9894 15.0000 39.1034
-10.6782 -15.0000 3.1702
-27.3219 -15.0000 -33.4750
42.4892 -15.0000 36.9315
-35.6349 -15.0000 -10.2546
11.9551 -15.0000 -22.4985
-44.0606 -15.0000 21.5619
14.8666 -15.0000 16.2908
-4.4890 -15.0000 -30.6626
35.1888 -15.0000 33.3187
-13.7924 -15.0000 16.3917
-0.8512 -15.0000 29.6861
-31.5800 -15.0000 -24.3427
34.5089 -15.0000 -29.2882
-3.9659 -15.0000 35.8902
31.6782 -15.0000 31.6298
-13.0076 -15.0000 5.1962
-25.0044 -15.0000 8.8541
-41.7208 -15.0000 7.1593
-31.6923 -15.0000 -33.8971
-25.9375 -15.0000 -35.1877
31.2423 -15.0000 -13.9881
35.0038 -15.0000 19.7002
6.8575 -15.0000 -20.8871
-39.3493 -15.0000 -25.3150
-40.1168 -15.0000 17.8162
-14.8615 -15.0000 15.3230
-10.4338 -15.0000 29.7583
-40.5949 -15.0000 -26.7941
-40.8622 -15.0000 -36.3184
29.2376 -15.0000 -15.0491
-35.2366 -15.0000 28.2139
14.9549 -15.0000 -16.5315
33.8845 -15.0000 29.9022
-15.9998 -15.0000 17.3941
46.4628 -15.0000 32.4909
-35.0240 -15.0000 25.1376
39.9759 -15.0000 -7.2063
6.0495 -15.0000 -31.9503
-14.3270 -15.0000 -8.5063
7.6801 -15.0000 0.3988
-42.9763 -15.0000 8.8648
1.5404 -15.0000 22.0362
21.7850 -15.0000 -16.9748
-17.6509 -15.0000 -22.2836
4.9515 -15.0000 -26.3396
6.0166 -15.0000 -3.1586
-27.4999 -15.0000 15.5049
-47.2412 -15.0000 -35.7282
-3.9627 -15.0000 19.0575
-29.9767 -15.0000 -21.2865
46.9346 -15.0000 -14.9415
40.6132 -15.0000 -16.6184
-11.7482 -15.0000 -4.4131
-29.1588 -15.0000 4.7094
49.0517 -15.0000 38.9209
-22.7828 -15.0000 -2.8176
10.7113 -15.0000 8.7811
29.0345 -15.0000 10.5817
-26.0916 -15.0000 9.8688
23.8802 -15.0000 -3.0091
24.2150 -15.0000 -8.2644
-8.0108 -15.0000 33.2561
37.0354 -15.0000 -38.1859
-4.6393 -15.0000 -31.5773
-16.4665 -15.0000 22.3466
-47.8807 -15.0000 10.7815
-0.0259 -15.0000 -1.6653
13.9672 -15.0000 26.1536
-21.8595 -15.0000 -11.3683
14.0139 -15.0000 4.1556
33.4420 -15.0000 28.4513
-39.0983 -15.0000 -36.9752
-3.1923 -15.0000 -15.9283
-9.5395 -15.0000 -36.6357
-27.5079 -15.0000 1.7229
-15.5402 -15.0000 -13.2705
-38.1756 -15.0000 23.7685
3.6588 -15.0000 -22.6975
-13.2413 -15.0000 -35.6099
41.9495 -15.0000 27.1538
-3.6735 -15.0000 12.8204
41.1543 -15.0000 18.8911
6.0440 -15.0000 -30.3885
-14.6514 -15.0000 10.5740
44.3166 -15.0000 -0.8773
-4.0253 4.3635 40.0000
30.9851 11.5730 40.0000
36.7941 6.3422 40.0000
-9.6801 9.6147 40.0000
41.3184 8.6252 40.0000
-45.8010 0.4499 40.0000
-46.3925 4.0305 40.0000
45.6303 -4.9231 40.0000
-22.0427 10.9069 40.0000
23.7036 8.5024 40.0000
27.7725 -1.5403 40.0000
-0.6582 -6.3341 40.0000
47.0958 -7.3455 40.0000
-31.2745 11.6184 40.0000
-43.1320 -3.0881 40.0000
15.7705 7.2797 40.0000
5.2014 8.8595 40.0000
25.7342 13.7798 40.0000
-35.8263 3.1274 40.0000
-10.0200 -4.2331 40.0000
8.8976 13.6461 40.0000
-9.6442 3.5878 40.0000
-40.6906 -14.5072 40.0000
0.7302 7.4125 40.0000
38.1913 -11.3566 40.0000
-22.3932 -8.3676 40.0000
20.9049 -7.2475 40.0000
16.4205 -3.1387 40.0000
-0.4576 2.7074 40.0000
-38.2836 11.1193 40.0000
-11.2755 5.7043 40.0000
41.1328 -14.0667 40.0000
25.5560 13.5722 40.0000
15.5881 2.7209 40.0000
8.3953 3.0310 40.0000
21.3464 7.6111 40.0000
26.9566 -7.7139 40.0000
43.9829 11.4898 40.0000
-43.9549 13.3391 40.0000
-16.8466 1.5780 40.0000
-41.7858 -3.7772 40.0000
38.1226 11.8589 40.0000
-49.9701 -13.5885 40.0000
4.8019 -5.8928 40.0000
-28.4933 -14.9047 40.0000
-17.4990 -14.7733 40.0000
13.8251 -9.3692 40.0000
41.8244 -3.7795 40.0000
-12.9710 -4.4268 40.0000
28.4600 9.7117 40.0000
-37.2342 11.6762 40.0000
37.1307 -14.5298 40.0000
2.4062 5.7473 40.0000
18.9633 1.4934 40.0000
-14.1504 1.8137 40.0000
4.6355 10.1551 40.0000
-23.9470 11.6500 40.0000
4.1604 -6.5857 40.0000
42.9867 3.1561 40.0000
-39.2397 3.6247 40.0000
43.8225 10.6702 40.0000
12.6333 5.9911 40.0000
-43.5810 -6.3371 40.0000
7.2110 -8.7045 40.0000
-34.7465 -10.5035 40.0000
-46.5363 -12.4566 40.0000
-14.8949 6.8157 40.0000
-28.8438 0.2699 40.0000
28.8314 -0.4261 40.0000
49.2974 5.0675 40.0000
-25.3317 -9.1844 40.0000
-17.1151 5.9230 40.0000
25.3456 13.8217 40.0000
-8.2954 -7.9760 40.0000
3.6860 -6.3527 40.0000
-12.4488 14.6484 40.0000
-16.8068 -13.2823 40.0000
48.8951 -13.5685 40.0000
-39.1324 3.5354 40.0000
-48.4958 0.0930 40.0000
33.3437 -9.3940 40.0000
-36.3890 -0.5549 40.0000
1.0558 8.9509 40.0000
-16.2619 13.9360 40.0000
-39.1311 -8.4583 40.0000
-5.2070 7.6948 -40.0000
26.8353 0.2427 -40.0000
19.4921 11.6540 -40.0000
-42.9537 -8.5149 -40.0000
-8.8320 -12.1931 -40.0000
43.1614 13.7496 -40.0000
41.7816 -14.1942 -40.0000
-2.4453 3.7767 -40.0000
20.1590 8.2941 -40.0000
-5.0726 -12.4414 -40.0000
-14.4472 12.1181 -40.0000
29.0862 12.6585 -40.0000
0.6494 -0.4380 -40.0000
-26.4191 5.2258 -40.0000
37.8604 14.3393 -40.0000
6.9433 1.3046 -40.0000
36.9763 11.6126 -40.0000
13.1882 -13.2892 -40.0000
17.2413 0.9676 -40.0000
9.2994 6.0308 -40.0000
48.3438 -5.6096 -40.0000
-39.3896 -2.9164 -40.0000
-49.1433 7.6946 -40.0000
-49.1224 3.6205 -40.0000
39.8070 7.2790 -40.0000
47.1913 -1.2047 -40.0000
4.7636 -2.9788 -40.0000
-49.3507 -10.7094 -40.0000
26.1193 10.6893 -40.0000
-10.9945 -10.3531 -40.0000
-9.2484 -7.3707 -40.0000
30.4185 -11.7132 -40.0000
44.5615 -0.2970 -40.0000
41.9622 1.7477 -40.0000
-36.7519 -6.9952 -40.0000
4.5824 -5.6579 -40.0000
15.0240 6.1712 -40.0000
35.5730 14.7801 -40.0000
-12.9426 7.9304 -40.0000
45.1302 8.6819 -40.0000
-31.4872 11.6328 -40.0000
26.0264 -0.3592 -40.0000
-9.4213 -5.9482 -40.0000
49.5147 -10.6540 -40.0000
24.2294 -9.3200 -40.0000
-3.8427 12.2421 -40.0000
-44.4693 10.0192 -40.0000
-47.9058 5.8493 -40.0000
31.0741 8.3907 -40.0000
-22.8837 7.1506 -40.0000
-20.6236 -11.9134 -40.0000
-8.3058 -4.2276 -40.0000
48.9969 -7.3970 -40.0000
34.8610 7.4659 -40.0000
-4.2858 -7.6021 -40.0000
42.7924 -8.9811 -40.0000
10.5788 -8.0703 -40.0000
7.9869 -6.1943 -40.0000
25.7557 8.3030 -40.0000
-46.6139 8.3339 -40.0000
27.8418 3.6278 -40.0000
-41.9795 -5.9040 -40.0000
-46.9287 14.9826 -40.0000
0.5443 11.3809 -40.0000
18.6395 8.0995 -40.0000
-9.0288 10.2894 -40.0000
-6.3305 -4.5306 -40.0000
13.3326 -2.4008 -40.0000
-46.7573 -1.3866 -40.0000
7.3093 10.0990 -40.0000
-23.8848 2.9165 -40.0000
9.0929 -6.7545 -40.0000
-16.5591 -8.8152 -40.0000
-38.1698 13.5761 -40.0000
-42.1162 12.1970 -40.0000
16.3538 -10.9010 -40.0000
-3.3581 -11.0455 -40.0000
21.2995 -3.8839 -40.0000
49.5837 10.9756 -40.0000
-12.1918 -12.5144 -40.0000
-30.2555 -9.2566 -40.0000
-8.1663 4.1721 -40.0000
41.5818 6.2860 -40.0000
11.5099 -0.7766 -40.0000
13.4163 4.1488 -40.0000
50.0000 -72.5735 24.1661
50.0000 -6.7310 -3.7544
50.0000 -42.6533 -26.0096
50.0000 -12.4663 33.7918
50.0000 -41.9218 -14.5398
50.0000 -64.5485 -8.5330
50.0000 -8.5368 -37.2840
50.0000 7.5328 -38.0369
50.0000 -73.2183 -2.4937
50.0000 -42.5422 34.8309
50.0000 -17.0709 -3.9391
50.0000 0.3397 -30.3527
50.0000 11.0497 -35.4472
50.0000 -58.5942 -30.7176
50.0000 -64.5891 16.2607
50.0000 -55.2132 -10.6411
50.0000 1.0044 -29.1397
50.0000 -80.5059 -10.5945
50.0000 7.0073 18.3983
50.0000 -65.3587 17.8444
50.0000 -30.2278 -5.0101
50.0000 -28.3645 -11.5483
50.0000 7.8479 5.4898
50.0000 -66.6578 34.5861
50.0000 -13.7102 -38.7220
50.0000 -3.2928 23.5737
50.0000 -57.4234 39.9425
50.0000 -62.8543 14.9580
50.0000 -20.2070 11.0984
50.0000 -78.1639 1.0600
50.0000 -69.7458 -11.7849
50.0000 11.7550 -21.3158
50.0000 -45.4192 -11.5892
50.0000 6.5172 -21.5733
50.0000 -57.2624 -33.9532
50.0000 5.2084 -22.3892
50.0000 -26.0665 36.5692
50.0000 -22.5085 24.0892
50.0000 -47.1396 8.6764
50.0000 -55.6474 -13.2298
50.0000 -41.9250 7.5536
50.0000 -73.5340 -32.8562
50.0000 -3.0625 -11.0145
50.0000 -38.6617 24.8433
50.0000 -40.9544 27.7808
50.0000 -82.1196 -21.9338
50.0000 13.9495 -12.5878
50.0000 -65.0298 -32.7489
50.0000 4.9289 -22.4429
50.0000 -67.3059 -12.7342
50.0000 2.8137 -32.2148
50.0000 -84.3504 -14.7982
50.0000 -42.4510 -33.3807
50.0000 -26.3943 17.2449
50.0000 -9.6643 -18.9371
50.0000 -56.8801 -8.3559
50.0000 -38.6679 -4.6844
50.0000 2.6168 31.0625
50.0000 -9.1367 -8.5852
50.0000 -75.5183 -21.8685
50.0000 -2.9676 -17.4144
50.0000 -8.3448 0.0691
50.0000 -40.4678 -34.0679
50.0000 -20.1138 11.0644
50.0000 11.0586 -23.0208
50.0000 -18.1685 36.8221
50.0000 -79.4183 16.8446
50.0000 -18.8184 4.7316
50.0000 -70.1345 -1.3831
50.0000 -54.5119 6.3032
50.0000 -41.8718 -9.4296
50.0000 -34.7073 20.5269
50.0000 11.7867 -19.6999
50.0000 -6.6496 11.9557
50.0000 -49.7730 14.4467
50.0000 -32.7944 -38.0950
50.0000 -55.2263 -0.6059
50.0000 -81.3698 32.8541
50.0000 1.9871 32.9764
50.0000 -29.7158 8.6595
50.0000 -19.0937 -26.1160
50.0000 -2.6620 21.3505
50.0000 -22.2827 12.9367
50.0000 -14.6685 28.3696
50.0000 -1.8788 -9.8224
50.0000 5.4689 6.2822
20.0000 -63.7495 -10.9228
20.0000 -35.3744 34.0880
20.0000 -37.3952 31.7994
20.0000 -65.9486 39.9491
20.0000 -81.4287 -32.3383
20.0000 -67.9606 31.9911
20.0000 -40.1216 -19.3999
20.0000 -43.4208 -22.0631
20.0000 -58.7673 -18.1020
20.0000 3.1439 -23.1094
20.0000 -79.7484 -36.9693
20.0000 8.4448 24.6319
20.0000 -11.8280 31.4426
20.0000 -3.4090 6.7697
20.0000 -17.0929 12.5802
20.0000 -15.3224 37.9870
20.0000 11.9322 -23.8994
20.0000 -30.6120 18.0692
20.0000 -2.2656 -36.6434
20.0000 -76.9957 -18.8793
20.0000 -2.1044 1.7429
20.0000 3.2718 15.6232
20.0000 -51.0935 7.8516
20.0000 -40.9328 -19.0205
20.0000 -4.9544 33.6437
20.0000 -80.3703 -38.2167
20.0000 13.5007 -25.2106
20.0000 -57.7515 -1.8981
20.0000 -30.3187 -7.0656
20.0000 -4.4562 -11.1508
20.0000 -19.1494 -5.4060
20.0000 -16.4369 -1.3218
20.0000 -55.4048 22.3740
20.0000 -77.2378 -3.6764
20.0000 -20.7359 -38.3008
20.0000 -3.1634 -3.8310
20.0000 -38.6112 13.9800
20.0000 -65.9932 -38.5820
20.0000 12.7759 18.8598
20.0000 -11.1553 9.1438
20.0000 -57.4403 1.2264
20.0000 -36.1383 -12.5989
20.0000 9.9980 36.4473
20.0000 -22.1165 8.1082
20.0000 -81.7519 17.9067
20.0000 13.4101 7.0596
20.0000 -71.9625 15.2745
20.0000 -65.6592 -1.0990
20.0000 -77.5599 -35.1662
20.0000 -7.2614 -31.7470
20.0000 -68.8153 -23.6364
20.0000 -83.6044 -17.4835
20.0000 -22.1645 -4.6206
20.0000 -64.6955 33.3919
20.0000 -78.0991 -29.2080
20.0000 -80.4226 -36.1584
20.0000 -80.5615 -7.7994
20.0000 -5.2906 36.4377
20.0000 -72.1380 -15.7407
20.0000 -38.3148 13.3191
20.0000 -60.7160 16.1205
20.0000 -75.1049 28.6133
20.0000 -71.9213 -22.9883
20.0000 -29.0760 20.0636
20.0000 -28.5967 -12.4602
20.0000 -39.5108 -12.3694
20.0000 -83.6293 15.0685
20.0000 -10.2724 -4.4314
20.0000 -20.5104 -37.1760
20.0000 -33.6104 -15.2385
20.0000 -71.2291 -25.0539
20.0000 -41.1849 4.1927
20.0000 -62.7135 -18.9057
20.0000 -9.4154 -37.3128
20.0000 -8.0759 39.6748
20.0000 -79.3455 9.1670
20.0000 -78.1095 27.3422
20.0000 -71.0313 -32.4149
20.0000 -32.3602 7.2312
20.0000 -41.6067 -33.8974
20.0000 -82.0231 4.7639
20.0000 -28.2481 16.5258
20.0000 -48.4369 -3.3363
20.0000 -68.5548 6.3059
20.0000 -20.3578 -32.8506
20.0000 -1.1097 -16.7224
28.7177 15.0000 -16.5841
30.0237 15.0000 23.6334
38.4375 15.0000 -8.2782
43.2261 15.0000 14.8784
28.8947 15.0000 12.4637
48.6143 15.0000 -39.6266
49.8384 15.0000 -26.6818
23.0071 15.0000 0.3541
44.7121 15.0000 15.6436
30.9920 15.0000 -19.2639
31.2748 15.0000 15.5936
35.1751 15.0000 -26.0985
28.8417 15.0000 -31.7726
40.5374 15.0000 -16.7044
39.0002 15.0000 22.2319
31.0279 15.0000 -1.8363
25.4852 15.0000 -29.4868
39.8316 15.0000 3.1747
21.8873 15.0000 22.8703
29.9006 15.0000 31.3661
21.1940 15.0000 -33.3158
48.3737 15.0000 -14.6151
38.2441 15.0000 32.3399
41.1852 15.0000 -32.6126
34.6095 15.0000 29.7908
26.1054 15.0000 12.8571
36.9127 15.0000 -30.6655
41.7290 15.0000 -1.1010
38.8657 15.0000 10.0354
30.7240 15.0000 5.3940
20.9782 15.0000 -14.1559
24.0103 15.0000 -20.0746
39.1924 15.0000 -30.6987
39.4977 15.0000 -19.3223
31.6845 15.0000 37.6081
26.7493 15.0000 1.6518
32.8875 15.0000 -13.8775
22.0084 15.0000 -4.2358
25.7512 15.0000 38.2389
36.9616 15.0000 9.8324
33.1742 15.0000 -36.1181
43.1185 15.0000 35.0319
38.5040 15.0000 -22.8909
26.1839 15.0000 -34.2082
34.6308 15.0000 6.1227
41.0743 15.0000 34.1904
47.4961 15.0000 38.7801
21.0422 15.0000 -25.5728
38.6964 15.0000 31.5957
23.1586 15.0000 17.3307
26.5093 15.0000 6.7425
49.9844 15.0000 -38.8825
32.5980 15.0000 39.3939
28.5874 15.0000 12.6126
30.2651 15.0000 -38.4019
27.4537 15.0000 -37.8649
25.5202 15.0000 -16.6658
21.5870 15.0000 7.3463
43.8581 15.0000 35.5905
38.4436 15.0000 -30.1339
32.8793 15.0000 14.7675
36.7360 15.0000 -0.0451
21.7885 15.0000 -36.1453
27.3768 15.0000 -33.1614
22.3714 15.0000 -4.2313
42.7701 15.0000 -29.8126
30.3876 15.0000 24.5862
25.1874 15.0000 -10.4897
32.7332 15.0000 -0.8373
47.6430 15.0000 -3.5728
41.1051 15.0000 0.7458
34.9274 15.0000 -37.5032
25.0961 15.0000 -36.2135
34.8317 15.0000 -33.5870
37.7117 15.0000 -35.9653
49.8069 15.0000 7.7896
23.8888 15.0000 -10.3249
33.3051 15.0000 -29.0502
27.8187 15.0000 -4.2065
49.3521 15.0000 -37.9268
29.9261 15.0000 -25.4008
23.9326 15.0000 -31.7338
36.4420 15.0000 -32.5977
23.3404 15.0000 -34.2674
26.2260 15.0000 -29.8470
47.7431 -85.0000 -32.2612
34.3121 -85.0000 -10.1103
29.8941 -85.0000 -21.6678
41.6079 -85.0000 39.7376
45.3740 -85.0000 -25.5843
37.4032 -85.0000 23.8347
45.9324 -85.0000 -5.3646
22.3876 -85.0000 6.8925
45.6999 -85.0000 -20.8713
44.8228 -85.0000 -11.7380
49.2074 -85.0000 8.3259
21.5582 -85.0000 14.0037
46.4301 -85.0000 38.5107
40.5627 -85.0000 -8.2778
21.3201 -85.0000 28.8018
41.1478 -85.0000 30.7302
27.1153 -85.0000 18.0831
20.3533 -85.0000 -26.8674
24.3484 -85.0000 -2.8093
48.1539 -85.0000 -2.6542
48.9356 -85.0000 11.6750
48.3456 -85.0000 12.5328
40.8090 -85.0000 14.5411
34.8880 -85.0000 -35.0812
31.6080 -85.0000 -31.3971
42.3350 -85.0000 17.0039
49.3747 -85.0000 -17.8847
21.6977 -85.0000 22.4612
30.3320 -85.0000 -32.1808
30.5680 -85.0000 2.4997
31.6309 -85.0000 17.8334
32.6401 -85.0000 28.6486
25.0338 -85.0000 10.7900
25.9982 -85.0000 9.0200
44.8262 -85.0000 12.1616
22.7973 -85.0000 -4.4236
38.2426 -85.0000 -22.6696
42.3376 -85.0000 -12.5237
29.2804 -85.0000 -10.5590
25.6252 -85.0000 25.5211
34.6556 -85.0000 30.0616
37.7022 -85.0000 -1.2648
32.7506 -85.0000 -24.5971
28.4636 -85.0000 36.1417
32.5237 -85.0000 32.7622
40.8483 -85.0000 29.3606
41.6115 -85.0000 21.2091
38.6297 -85.0000 17.6716
28.2060 -85.0000 16.1617
45.0942 -85.0000 -0.6437
47.1113 -85.0000 11.5038
21.3195 -85.0000 10.6070
49.0889 -85.0000 -19.6463
26.1849 -85.0000 -38.1910
28.7308 -85.0000 22.4116
41.8588 -85.0000 -9.3104
43.7827 -85.0000 18.5147
24.5197 -85.0000 24.9467
28.6197 -85.0000 -36.7088
48.2319 -85.0000 -10.2358
45.2550 -85.0000 -9.6673
20.3404 -85.0000 -10.7690
40.8249 -85.0000 -31.6953
33.1807 -85.0000 -2.8828
43.2088 -85.0000 -30.8438
45.6297 -85.0000 -6.5769
38.6565 -85.0000 -7.3023
36.7975 -85.0000 -39.5358
25.5305 -85.0000 -31.5856
33.1434 -85.0000 -30.7760
28.1492 -85.0000 -1.7930
23.8757 -85.0000 30.4559
46.6456 -85.0000 39.9356
40.5683 -85.0000 32.2022
46.7571 -85.0000 16.3249
25.8769 -85.0000 9.0107
21.0507 -85.0000 6.5550
31.8276 -85.0000 39.9629
33.6795 -85.0000 -10.4844
33.8257 -85.0000 -9.0950
40.3514 -85.0000 -30.9062
39.2052 -85.0000 8.9913
20.7631 -85.0000 12.1679
36.7664 -85.0000 -1.8234
39.2731 -85.0000 35.7652
34.3955 -84.4549 40.0000
36.4444 -62.6286 40.0000
31.9021 -78.4503 40.0000
30.4175 -76.5516 40.0000
23.6734 -46.5753 40.0000
21.5326 -81.9720 40.0000
41.9446 -7.7915 40.0000
29.6849 -30.9570 40.0000
21.9607 -57.4494 40.0000
26.4802 -40.1442 40.0000
28.9074 -63.7439 40.0000
42.1524 -55.3621 40.0000
35.2012 -25.6267 40.0000
41.5136 -57.2214 40.0000
25.3543 2.7727 40.0000
24.7052 -13.2880 40.0000
33.9249 -34.1582 40.0000
43.0239 -1.3884 40.0000
40.3906 -65.5328 40.0000
41.6377 -0.1033 40.0000
21.3277 -53.3622 40.0000
23.4507 -27.5552 40.0000
38.3108 -65.2500 40.0000
26.9985 -8.2909 40.0000
30.4320 -41.3997 40.0000
48.9796 -39.3789 40.0000
46.4181 -65.9401 40.0000
43.2547 -25.1337 40.0000
24.2553 -58.5608 40.0000
34.5773 -18.8923 40.0000
38.6434 -60.0239 40.0000
35.8339 -26.5727 40.0000
41.2832 -80.6214 40.0000
40.1827 -52.5950 40.0000
35.1753 -52.3922 40.0000
27.3486 -25.1960 40.0000
28.9904 -8.8712 40.0000
33.3220 -27.0954 40.0000
45.9258 -32.5173 40.0000
39.7989 -40.4435 40.0000
23.7555 -14.5621 40.0000
49.5999 -43.6196 40.0000
41.8451 -49.8550 40.0000
34.2297 -12.5924 40.0000
27.5737 -22.5483 40.0000
33.1590 -64.3088 40.0000
24.4463 -54.7972 40.0000
45.1137 10.2217 40.0000
31.5464 6.7065 40.0000
30.7612 14.5921 40.0000
42.1184 -38.5005 40.0000
24.1112 -17.9409 40.0000
33.8060 -41.5887 40.0000
49.4862 -7.9695 40.0000
45.2461 -68.8753 40.0000
45.6425 -73.5064 40.0000
45.8879 -70.7763 40.0000
25.6308 -82.3091 40.0000
31.2109 -73.9410 40.0000
28.1429 -14.0693 40.0000
38.3515 -63.5036 40.0000
38.6542 -2.8780 40.0000
32.5655 -50.1822 40.0000
22.0388 -72.8624 40.0000
21.8974 -57.9826 40.0000
29.9814 0.9745 40.0000
47.7678 -80.4372 40.0000
46.5982 -17.5488 40.0000
34.5024 -35.2440 40.0000
20.2151 6.4744 40.0000
24.0437 -80.0799 40.0000
21.6958 -83.5685 40.0000
32.1376 -52.8113 40.0000
41.4669 -32.6366 40.0000
22.7735 -38.9563 40.0000
44.8183 -71.5518 40.0000
20.9247 13.2942 40.0000
47.8658 -78.4613 40.0000
33.2735 -76.2388 40.0000
22.8813 -17.3345 40.0000
27.6959 -10.9021 40.0000
48.9035 -17.3235 40.0000
24.4573 10.3474 40.0000
35.2894 3.5367 40.0000
42.1218 -81.9831 40.0000
26.0659 1.8275 -40.0000
23.1073 -41.2809 -40.0000
29.9518 -23.8441 -40.0000
29.8322 -14.1623 -40.0000
22.8578 -7.7735 -40.0000
26.5082 -64.7850 -40.0000
25.2609 -4.1078 -40.0000
46.3184 -57.7595 -40.0000
35.5398 -75.5932 -40.0000
29.4627 -13.1451 -40.0000
23.8431 -52.7870 -40.0000
27.2484 -9.8128 -40.0000
27.4725 -72.0011 -40.0000
29.1158 -65.0975 -40.0000
31.6440 -3.3698 -40.0000
24.3038 -37.7100 -40.0000
42.5839 -12.9755 -40.0000
36.0601 -19.2258 -40.0000
44.8887 -47.6045 -40.0000
34.6239 4.6633 -40.0000
46.9979 -48.2910 -40.0000
35.3440 12.4582 -40.0000
31.3697 -78.6652 -40.0000
28.0513 -22.3931 -40.0000
26.9500 -84.8457 -40.0000
25.0212 14.9201 -40.0000
37.2767 -57.9626 -40.0000
31.2917 8.5537 -40.0000
43.5803 -53.5453 -40.0000
20.5731 -3.5935 -40.0000
20.5872 -56.3786 -40.0000
33.4591 -57.0119 -40.0000
21.7240 -1.5091 -40.0000
44.2409 -29.9811 -40.0000
24.9536 -34.8089 -40.0000
38.0296 -42.2161 -40.0000
27.1753 -7.9624 -40.0000
48.3626 6.2215 -40.0000
43.6741 4.1266 -40.0000
42.9284 -63.0067 -40.0000
25.8654 10.9729 -40.0000
44.2630 0.7187 -40.0000
40.5593 -43.4669 -40.0000
20.1264 -56.7567 -40.0000
24.7281 -63.2770 -40.0000
29.1992 -5.9939 -40.0000
41.5016 -37.3287 -40.0000
33.3393 9.9788 -40.0000
40.0856 -29.7497 -40.0000
41.5893 9.8264 -40.0000
39.2187 -9.0467 -40.0000
25.1394 -42.0417 -40.0000
23.1471 9.0509 -40.0000
36.4932 -49.0853 -40.0000
27.7615 -33.9638 -40.0000
22.1590 -34.2745 -40.0000
48.9368 -38.1544 -40.0000
41.9962 -55.3979 -40.0000
28.4574 -69.9655 -40.0000
25.9802 -46.2486 -40.0000
24.5540 -43.3818 -40.0000
36.4925 -84.7971 -40.0000
37.5275 -23.5198 -40.0000
21.4858 -84.2115 -40.0000
27.0198 10.6974 -40.0000
26.9615 -58.4542 -40.0000
45.6056 -10.6644 -40.0000
27.7973 -43.8986 -40.0000
27.7985 13.4409 -40.0000
42.9733 -56.9282 -40.0000
28.7997 14.7798 -40.0000
27.5650 -83.0540 -40.0000
41.6755 -49.1887 -40.0000
30.7727 4.0339 -40.0000
38.3167 -14.3487 -40.0000
21.7512 -28.2118 -40.0000
35.7302 -71.2876 -40.0000
39.0412 -17.4197 -40.0000
46.9915 -30.5393 -40.0000
20.0275 -29.7523 -40.0000
35.8102 -61.3208 -40.0000
49.1852 -52.7202 -40.0000
49.6599 1.8913 -40.0000
27.0370 -20.5369 -40.0000
22.2622 -43.5706 -40.0000
