ply
format ascii 1.0
element vertex 1024
property float x
property float y
property float z
end_header
50.0000 13.8508 5.9477
50.0000 12.6536 5.9244
50.0000 13.6645 10.8657
50.0000 -4.0673 -20.6931
50.0000 -4.5679 -1.1846
50.0000 12.7658 -29.8769
50.0000 12.9794 -26.7505
50.0000 6.8408 -12.2472
50.0000 11.6638 19.2831
50.0000 -6.0109 -9.7883
50.0000 11.2531 18.8779
50.0000 -14.0739 -20.5423
50.0000 1.3022 27.2336
50.0000 12.7659 -25.0648
50.0000 7.8796 -20.5807
50.0000 6.0898 5.5596
50.0000 -2.5052 10.2696
50.0000 8.8960 18.1772
50.0000 13.9841 -16.6142
50.0000 -14.9075 -19.5714
50.0000 0.4997 11.8600
50.0000 -1.4302 13.9838
50.0000 1.2960 24.5961
50.0000 -3.2110 27.9338
50.0000 -4.4725 -1.0092
50.0000 12.2222 -19.1067
50.0000 4.1288 -7.5028
50.0000 0.3276 -16.8976
50.0000 4.5862 -12.1160
50.0000 -9.5322 -13.3035
50.0000 5.6138 17.0076
50.0000 -0.9418 0.0506
50.0000 -0.0981 -3.8882
50.0000 0.1699 23.3054
50.0000 -2.4249 -1.7352
50.0000 -12.0184 -9.2586
50.0000 -1.6251 1.5485
50.0000 -9.5269 -13.0454
50.0000 -9.1022 -6.1131
50.0000 0.7140 13.1067
50.0000 12.6785 -9.3969
50.0000 8.8449 21.7122
50.0000 7.0700 -15.5462
50.0000 10.5183 -19.8314
50.0000 2.7772 6.5138
50.0000 -10.7103 -10.5302
50.0000 3.6136 -17.5669
50.0000 1.9115 16.2625
50.0000 -6.3670 2.3513
50.0000 -5.5729 11.7450
50.0000 -4.5088 25.8803
50.0000 9.2399 -17.9851
50.0000 -10.5939 -10.1107
50.0000 -11.0583 14.2160
50.0000 2.9409 -18.0996
50.0000 -13.7614 20.9417
50.0000 14.8365 19.5757
50.0000 -7.3721 10.5537
50.0000 -10.6405 -23.1494
50.0000 12.6069 14.1216
50.0000 14.8306 -1.4816
50.0000 -13.4900 11.4284
50.0000 -5.9218 -23.3878
50.0000 -7.1646 19.8566
50.0000 -4.2302 -27.4450
50.0000 12.6570 17.2076
50.0000 14.4756 16.0070
50.0000 9.0086 3.2186
50.0000 -1.7976 27.5349
50.0000 -1.5783 3.1291
50.0000 1.5947 13.4157
50.0000 9.0035 -2.3628
50.0000 0.7832 -29.6071
50.0000 -4.1343 -11.0020
50.0000 -3.8704 22.0694
50.0000 -6.5650 -22.9653
50.0000 5.8135 9.9695
50.0000 -1.5178 -9.1945
50.0000 -14.9729 -1.1940
50.0000 11.1119 6.6497
50.0000 7.0054 26.7909
50.0000 -4.3733 -12.4669
50.0000 7.3624 -9.8284
50.0000 0.6872 -24.0945
50.0000 14.7801 18.0792
50.0000 -12.0474 22.8061
-50.0000 11.5296 -19.8822
-50.0000 6.3881 -22.1784
-50.0000 -4.9105 2.1740
-50.0000 -11.7773 6.4102
-50.0000 -6.2659 23.2779
-50.0000 -14.4053 25.3741
-50.0000 3.1410 16.0643
-50.0000 -11.2531 11.8425
-50.0000 -4.6379 2.6053
-50.0000 -3.0121 -0.1687
-50.0000 -13.4484 13.1281
-50.0000 -3.4004 5.6543
-50.0000 14.1071 -28.5127
-50.0000 -5.9851 -16.4075
-50.0000 12.3368 -10.0294
-50.0000 13.3761 -20.4769
-50.0000 -9.8146 -11.7236
-50.0000 -1.6423 15.1156
-50.0000 5.9317 26.4383
-50.0000 8.3302 -12.9707
-50.0000 -9.7071 -20.3543
-50.0000 -5.4406 28.7538
-50.0000 10.5952 -3.1424
-50.0000 8.8140 -29.6825
-50.0000 12.5006 -5.7019
-50.0000 3.1274 -27.1901
-50.0000 -5.9012 2.2279
-50.0000 -9.6227 20.9452
-50.0000 4.4966 -11.3100
-50.0000 -7.4048 5.4645
-50.0000 13.5345 -24.9211
-50.0000 0.9625 23.1847
-50.0000 -14.6009 -5.9025
-50.0000 -5.9597 18.8301
-50.0000 2.6759 -23.9810
-50.0000 10.6039 -25.4672
-50.0000 3.1296 -12.4554
-50.0000 6.6792 -3.0585
-50.0000 4.3905 -24.7574
-50.0000 11.6385 -28.0268
-50.0000 -6.1625 20.5799
-50.0000 0.4457 2.1058
-50.0000 -0.0170 -16.4392
-50.0000 11.6877 -15.6164
-50.0000 -2.7533 0.2433
-50.0000 0.0458 -17.4260
-50.0000 12.1775 -5.8405
-50.0000 -14.0619 -11.8832
-50.0000 11.3561 -24.7990
-50.0000 9.2886 -2.9079
-50.0000 -7.4295 -5.2042
-50.0000 -14.1308 -25.6895
-50.0000 -8.8890 15.3763
-50.0000 -2.2379 -0.7131
-50.0000 0.8699 29.8926
-50.0000 -8.3465 -19.1876
-50.0000 9.2824 0.0787
-50.0000 14.8973 21.9862
-50.0000 -6.0911 -0.6930
-50.0000 -0.2140 26.2357
-50.0000 -1.1120 12.2386
-50.0000 -12.6473 10.9945
-50.0000 -12.8998 25.0766
-50.0000 -11.1057 -6.4966
-50.0000 11.5011 -16.1719
-50.0000 12.1969 -7.5488
-50.0000 10.1831 -16.6795
-50.0000 14.1210 -17.6683
-50.0000 1.4900 7.6903
-50.0000 -2.6634 -0.0339
-50.0000 -14.6102 9.5064
-50.0000 -14.3539 -28.6585
-50.0000 13.6406 25.0118
-50.0000 8.5391 22.3652
-50.0000 -0.9538 -21.1997
-50.0000 -3.9687 -22.0510
-50.0000 3.7973 -13.5080
-50.0000 5.3942 2.1349
-50.0000 -12.0122 -7.3199
-50.0000 7.0439 -21.8478
-50.0000 7.1706 24.9388
-50.0000 2.8355 -20.0594
-50.0000 -2.5646 25.4276
-50.0000 4.2566 -11.8314
-50.0000 -9.0660 9.8136
-50.0000 11.4549 -16.1818
-6.0080 15.0000 -16.8049
45.6819 15.0000 23.0975
8.7577 15.0000 -22.3541
-30.4755 15.0000 -9.4897
30.9379 15.0000 -15.0589
-6.5735 15.0000 -1.4803
16.4495 15.0000 -22.8201
-32.9918 15.0000 15.5618
-43.5444 15.0000 -9.9995
-48.7552 15.0000 10.1687
12.8797 15.0000 -16.3055
9.6044 15.0000 -27.1625
-24.5531 15.0000 25.6425
47.9077 15.0000 -19.2786
42.4213 15.0000 5.7284
38.5380 15.0000 -14.8660
26.9928 15.0000 15.1216
-13.6418 15.0000 5.7415
10.0119 15.0000 -21.7733
-41.8433 15.0000 1.3070
-24.0456 15.0000 15.6305
-42.4504 15.0000 11.6571
-9.6245 15.0000 10.8946
33.9839 15.0000 -12.9768
-4.8611 15.0000 -27.6835
30.5023 15.0000 -6.9294
-40.4353 15.0000 -0.8459
-16.9517 15.0000 28.7529
16.0509 15.0000 13.2353
-29.5891 15.0000 -20.8455
-42.7530 15.0000 21.4519
-43.9738 15.0000 -29.3955
36.7272 15.0000 -13.2387
29.5848 15.0000 -14.5377
39.0634 15.0000 -0.6826
-27.7619 15.0000 25.9725
14.4015 15.0000 -0.2115
-36.0262 15.0000 17.7064
8.7776 15.0000 9.0251
-14.4305 15.0000 -7.8307
32.1739 15.0000 23.8134
3.8160 15.0000 -5.2819
-10.6023 15.0000 -29.5041
-11.1683 15.0000 29.7207
-7.5538 15.0000 5.2570
35.5544 15.0000 8.2923
6.4375 15.0000 0.5544
43.5408 15.0000 -14.9140
29.5437 15.0000 -2.5043
25.1111 15.0000 13.4224
-20.3262 15.0000 -14.2720
-39.8082 15.0000 -0.3979
-29.8962 15.0000 25.6083
-45.0631 15.0000 8.8093
-4.8028 15.0000 -25.2276
-29.0006 15.0000 23.8398
21.5948 15.0000 -13.1878
-48.2451 15.0000 -29.9469
31.3510 15.0000 6.4210
-27.0128 15.0000 10.3990
-43.6218 15.0000 -10.6546
-49.8762 15.0000 -14.6345
41.4677 15.0000 3.0817
-45.0803 15.0000 14.9027
33.7051 15.0000 -28.8181
25.4109 15.0000 -2.4155
-3.3281 15.0000 21.4537
-19.2618 15.0000 -26.5647
22.2842 15.0000 27.2128
37.8469 15.0000 3.9032
3.3741 15.0000 -6.1074
-17.9589 15.0000 -6.2602
28.7328 15.0000 5.8849
-13.0886 15.0000 -12.8244
21.0349 15.0000 9.1380
35.9437 15.0000 12.3367
-28.1272 15.0000 12.7346
-43.2981 15.0000 -24.7817
-30.2992 15.0000 -7.4864
13.3478 15.0000 29.0485
-46.0558 15.0000 -13.8795
31.0221 15.0000 -18.4692
-17.9408 15.0000 2.8142
16.1345 15.0000 -9.6093
-24.9240 15.0000 -12.2616
-24.8549 -15.0000 13.8647
39.9338 -15.0000 7.0388
-38.4379 -15.0000 4.2138
43.3408 -15.0000 -3.6853
37.1050 -15.0000 -17.8267
47.0024 -15.0000 7.8257
-31.1139 -15.0000 14.5144
-10.1128 -15.0000 22.2432
30.2857 -15.0000 -17.2161
-11.2600 -15.0000 6.8350
26.2636 -15.0000 20.5063
38.4931 -15.0000 -6.2227
3.6140 -15.0000 -7.3863
-48.4043 -15.0000 -24.0804
44.3162 -15.0000 -10.0347
-5.3147 -15.0000 -24.9148
-45.0353 -15.0000 11.5285
-36.9565 -15.0000 21.7328
-18.7176 -15.0000 22.4732
-19.4305 -15.0000 27.5782
-12.1664 -15.0000 -4.3342
11.5399 -15.0000 12.4067
29.5296 -15.0000 5.0227
14.8733 -15.0000 -28.8128
32.7897 -15.0000 7.7417
-24.5330 -15.0000 -14.6426
-2.0965 -15.0000 7.6634
-46.5046 -15.0000 1.9173
2.5528 -15.0000 16.2938
14.8928 -15.0000 16.2900
24.9878 -15.0000 -2.8829
-29.9881 -15.0000 26.4969
-4.2833 -15.0000 1.4576
8.5964 -15.0000 -19.1893
-29.1355 -15.0000 18.9819
40.1388 -15.0000 3.9756
-22.3660 -15.0000 12.8304
17.7626 -15.0000 -19.8551
-2.9295 -15.0000 -21.3545
-31.3047 -15.0000 5.0820
24.8466 -15.0000 -8.3985
14.2241 -15.0000 -4.3041
18.6177 -15.0000 -27.9103
-24.7100 -15.0000 27.4499
-40.0137 -15.0000 13.9090
34.2043 -15.0000 3.0692
15.7737 -15.0000 3.5575
-37.7850 -15.0000 -29.8629
23.1948 -15.0000 25.9953
-8.5980 -15.0000 12.9172
-23.7957 -15.0000 23.9570
47.1831 -15.0000 -12.6398
4.6561 -15.0000 10.5553
-23.1675 -15.0000 26.0441
-19.4677 -15.0000 27.9569
-26.7566 -15.0000 -4.0505
9.3501 -15.0000 -22.1483
0.7879 -15.0000 26.9645
-40.4958 -15.0000 -8.8419
26.9443 -15.0000 24.2695
16.7149 -15.0000 29.5077
-37.2170 -15.0000 -16.2506
11.4911 -15.0000 3.5556
-4.1363 -15.0000 -27.1142
-7.1397 -15.0000 -10.9137
-31.1784 -15.0000 -19.4241
16.8613 -15.0000 7.8424
38.5842 -15.0000 12.0939
40.2002 -15.0000 -14.6652
-49.8315 -15.0000 -5.9672
49.0467 -15.0000 -22.5639
12.3890 -15.0000 -22.3369
-14.2968 -15.0000 -17.7621
43.8021 -15.0000 19.2208
-37.4708 -15.0000 17.5334
43.3842 -15.0000 -11.9566
-9.0625 -15.0000 -6.8468
34.6616 -15.0000 -18.5634
40.3612 -15.0000 -2.9724
42.9582 -15.0000 -27.1279
48.3178 -15.0000 -29.0771
-10.3305 -15.0000 17.4534
-10.0630 -15.0000 13.1733
41.6037 -15.0000 -29.2306
-42.8327 -15.0000 -19.1145
-37.8064 5.9874 30.0000
1.6257 -4.5441 30.0000
-38.3422 -8.0016 30.0000
-21.3999 -11.3228 30.0000
7.1158 -0.2295 30.0000
-36.4678 -14.4598 30.0000
20.8268 7.6964 30.0000
-11.4939 8.9047 30.0000
36.4832 -11.4415 30.0000
11.7612 -14.8569 30.0000
42.7319 13.9532 30.0000
9.2548 -12.1013 30.0000
13.2778 -8.6183 30.0000
-1.4732 -14.8608 30.0000
-38.6391 4.5472 30.0000
47.7496 -4.5697 30.0000
-8.5905 -7.9655 30.0000
-36.0843 -5.8245 30.0000
1.6954 -0.5572 30.0000
36.7152 3.4923 30.0000
5.6271 10.3863 30.0000
19.8580 13.5077 30.0000
-13.7775 4.9222 30.0000
30.1729 -10.1508 30.0000
-47.9878 3.1313 30.0000
37.6722 -4.4512 30.0000
-16.2653 10.1550 30.0000
-48.4933 -8.3965 30.0000
-20.9951 -10.8286 30.0000
-13.0336 7.5648 30.0000
41.2289 -4.5959 30.0000
-35.1420 -1.7271 30.0000
-25.2772 1.2863 30.0000
17.5190 3.2018 30.0000
-27.9876 14.1616 30.0000
-33.0890 -4.7578 30.0000
34.4144 13.9279 30.0000
19.1748 2.5084 30.0000
-40.8207 5.8957 30.0000
35.2814 -12.6071 30.0000
20.3648 9.0819 30.0000
17.0105 -0.1464 30.0000
-46.9670 -12.8182 30.0000
-34.9045 11.4327 30.0000
-12.4239 9.9048 30.0000
-23.0427 13.0343 30.0000
0.6811 8.8441 30.0000
9.4916 -2.4552 30.0000
31.8735 8.1698 30.0000
36.5087 0.9426 30.0000
11.3152 -12.7187 30.0000
8.9372 8.2643 30.0000
22.1857 6.6531 30.0000
47.3418 8.9070 30.0000
44.8143 -5.2106 30.0000
-16.5813 -6.8500 30.0000
49.9450 -9.9862 30.0000
-35.0721 9.0600 30.0000
3.4426 -10.3422 30.0000
5.9671 -9.7518 30.0000
-13.9566 -11.9074 30.0000
30.3921 -12.3432 30.0000
22.9027 -3.6839 30.0000
-42.0220 -12.9871 30.0000
-35.4180 -5.9709 30.0000
10.5975 8.4907 30.0000
7.8849 8.1151 30.0000
8.1852 5.5439 30.0000
-40.7916 -4.9348 30.0000
-47.4605 -10.6999 30.0000
41.7535 -2.6320 30.0000
22.7019 -13.7200 30.0000
37.5526 -11.9222 30.0000
41.8837 6.2664 30.0000
-25.2242 11.3462 30.0000
5.2714 -4.1910 30.0000
-46.9748 -10.5733 30.0000
45.1144 5.2917 30.0000
-37.7884 13.4031 30.0000
35.8478 12.2831 30.0000
12.5751 -8.3977 30.0000
-15.0006 -6.5023 30.0000
-11.3728 12.8637 30.0000
38.4755 -7.9999 30.0000
-8.0961 -4.4617 30.0000
3.2131 -12.2828 -30.0000
-26.2200 -3.9298 -30.0000
41.1694 6.0694 -30.0000
32.5557 14.5395 -30.0000
25.4806 9.8290 -30.0000
16.4585 12.2902 -30.0000
-6.7440 -2.0893 -30.0000
-43.0138 10.8806 -30.0000
6.8995 4.7503 -30.0000
-29.0376 -14.8208 -30.0000
-13.1484 -0.4601 -30.0000
-36.0690 -10.3149 -30.0000
5.7489 14.4173 -30.0000
-36.0155 -6.0424 -30.0000
16.9402 -4.2694 -30.0000
-26.0177 -6.7728 -30.0000
33.3766 9.2367 -30.0000
18.2764 -2.9958 -30.0000
-35.0514 3.9471 -30.0000
-22.5779 -13.1933 -30.0000
-20.4608 -7.8618 -30.0000
2.9402 3.5433 -30.0000
-8.8778 12.4148 -30.0000
22.1010 -10.9484 -30.0000
38.2491 3.9709 -30.0000
-20.8742 -4.2247 -30.0000
34.8844 -11.4372 -30.0000
13.0655 14.0411 -30.0000
-7.2498 2.8884 -30.0000
-35.1985 13.5287 -30.0000
-11.3875 0.5046 -30.0000
44.9345 1.5275 -30.0000
-2.3719 2.9684 -30.0000
-45.4814 5.9057 -30.0000
-6.1217 3.0658 -30.0000
6.2042 -2.8531 -30.0000
-33.9653 -3.5937 -30.0000
40.2436 13.9631 -30.0000
-6.5567 13.6408 -30.0000
48.5364 10.9112 -30.0000
-19.1467 -9.4024 -30.0000
-42.3026 11.3185 -30.0000
-32.6219 -12.3830 -30.0000
-34.2649 6.6274 -30.0000
49.7027 -3.9105 -30.0000
-49.9695 9.1808 -30.0000
-12.9269 -3.2091 -30.0000
15.9382 10.6203 -30.0000
26.1918 13.3752 -30.0000
-20.7541 -13.8822 -30.0000
47.1079 11.8543 -30.0000
-36.9372 -1.6713 -30.0000
-38.0346 -4.4499 -30.0000
-31.4004 -0.0841 -30.0000
-30.2313 -2.6017 -30.0000
-23.3585 -6.6976 -30.0000
10.4933 -9.7363 -30.0000
-44.4437 2.4884 -30.0000
-33.6177 13.5000 -30.0000
21.7532 12.0584 -30.0000
49.7295 -4.0757 -30.0000
-45.9811 -9.8005 -30.0000
18.8484 7.7984 -30.0000
13.3770 5.7336 -30.0000
-14.5274 -4.1692 -30.0000
3.5028 -6.9430 -30.0000
41.7812 -5.4180 -30.0000
10.2758 -14.3963 -30.0000
-25.0358 -11.2063 -30.0000
-17.7017 0.4036 -30.0000
-35.5135 -3.9759 -30.0000
38.7751 -7.1601 -30.0000
-45.5959 10.1429 -30.0000
47.0878 9.6515 -30.0000
-0.5163 -1.7971 -30.0000
31.0475 4.7102 -30.0000
-11.4136 -5.1356 -30.0000
14.7020 -6.7242 -30.0000
-34.7749 -0.9332 -30.0000
-20.0855 -10.0766 -30.0000
-21.0725 -3.0636 -30.0000
-0.5117 14.6386 -30.0000
-16.7324 -3.4579 -30.0000
-47.6574 13.5853 -30.0000
28.4065 6.4939 -30.0000
15.0000 6.7009 21.3600
15.0000 51.0437 16.1112
15.0000 52.4937 22.7372
15.0000 82.1294 -21.9737
15.0000 37.1620 23.2709
15.0000 56.1667 6.5122
15.0000 24.7680 26.4441
15.0000 8.1870 -14.4389
15.0000 50.6707 0.1494
15.0000 19.0267 15.8692
15.0000 40.4681 9.2604
15.0000 -7.3753 -20.8545
15.0000 -10.8501 -22.6846
15.0000 47.4826 -0.1319
15.0000 -9.0410 29.8508
15.0000 81.8376 26.4683
15.0000 84.3876 -0.9782
15.0000 34.7790 16.9319
15.0000 46.2741 -0.9356
15.0000 28.1256 -13.1363
15.0000 7.8530 -17.0122
15.0000 75.7429 17.5771
15.0000 47.7819 5.1571
15.0000 -5.0130 -1.3838
15.0000 41.4405 16.8631
15.0000 22.5683 1.5581
15.0000 51.0395 -10.6799
15.0000 80.8261 -10.1105
15.0000 19.2145 3.8955
15.0000 34.0925 0.9596
15.0000 76.3283 -18.5521
15.0000 44.0934 17.5357
15.0000 53.3388 -4.5941
15.0000 36.1417 -6.2044
15.0000 66.6324 19.7088
15.0000 32.6304 -20.4533
15.0000 83.2855 -19.3244
15.0000 31.7019 -2.7865
15.0000 8.5571 18.1229
15.0000 63.8792 -24.1186
15.0000 7.6950 6.1193
15.0000 24.1110 25.3443
15.0000 -11.2250 3.6204
15.0000 62.0758 -9.2869
15.0000 23.9465 -20.4512
15.0000 66.7773 -3.2000
15.0000 34.0627 25.5436
15.0000 15.0669 7.6027
15.0000 8.1944 -16.5542
15.0000 45.0544 3.5912
15.0000 13.8857 -3.9586
15.0000 57.1414 -22.5228
15.0000 75.1920 28.0586
15.0000 50.6389 14.7590
15.0000 16.7631 24.4327
15.0000 -9.7745 9.7756
15.0000 52.0081 -1.6454
15.0000 3.2975 4.7664
15.0000 -2.2148 -17.5087
15.0000 73.7945 9.6594
15.0000 -9.7721 6.6641
15.0000 64.2913 -13.9110
15.0000 75.5830 3.5951
15.0000 48.6929 6.4297
15.0000 10.0552 21.9493
15.0000 74.0443 1.9333
15.0000 47.8579 -4.7782
15.0000 17.5880 29.3912
15.0000 20.6763 -14.2054
15.0000 -1.9043 -14.3053
15.0000 51.4941 -18.8689
15.0000 10.4330 -7.6635
15.0000 57.2652 24.8451
15.0000 45.5224 -1.8134
15.0000 78.2385 18.8943
15.0000 17.5501 -2.1444
15.0000 66.5947 24.6346
15.0000 29.9053 -19.5786
15.0000 27.2947 -4.2618
15.0000 12.2797 24.8027
15.0000 39.3390 7.7602
15.0000 -6.7531 20.9862
15.0000 25.2066 22.0550
15.0000 20.3222 26.2182
15.0000 40.6016 16.0566
15.0000 43.6348 8.0322
-15.0000 23.7847 17.4146
-15.0000 70.6786 -12.1956
-15.0000 -12.9857 21.8006
-15.0000 35.2802 15.4682
-15.0000 -5.4733 24.4612
-15.0000 -7.4631 -26.9489
-15.0000 33.7488 2.3422
-15.0000 30.6272 16.2163
-15.0000 68.7819 14.7812
-15.0000 82.0348 -17.3377
-15.0000 50.2138 -23.5703
-15.0000 -0.0337 19.1295
-15.0000 16.0871 -11.6807
-15.0000 -14.8186 1.9345
-15.0000 25.0048 -6.0350
-15.0000 -14.7345 -11.9325
-15.0000 84.0348 21.6369
-15.0000 47.4233 22.7377
-15.0000 67.3190 3.2131
-15.0000 49.1952 21.1082
-15.0000 37.3444 -6.6933
-15.0000 77.0170 26.5932
-15.0000 51.6668 -18.5181
-15.0000 74.1171 -23.8071
-15.0000 -3.2219 -15.2673
-15.0000 6.9509 8.1057
-15.0000 18.4368 -18.2499
-15.0000 76.2794 18.9908
-15.0000 72.3065 -15.1348
-15.0000 61.8914 -1.2346
-15.0000 0.3798 24.3946
-15.0000 54.3349 0.5564
-15.0000 27.5799 -15.9329
-15.0000 15.5300 -16.8219
-15.0000 52.0297 -28.3755
-15.0000 28.1780 -10.9241
-15.0000 12.3206 11.7159
-15.0000 20.0140 25.8411
-15.0000 66.3372 6.8830
-15.0000 51.4596 -20.0878
-15.0000 0.2764 13.3811
-15.0000 72.0873 -23.6134
-15.0000 72.5825 10.3421
-15.0000 26.8061 -6.1947
-15.0000 81.4153 0.8488
-15.0000 6.3421 -10.9780
-15.0000 47.2696 -5.6407
-15.0000 23.7396 15.3798
-15.0000 62.0154 -15.1810
-15.0000 38.3212 -26.6782
-15.0000 -5.5436 14.0785
-15.0000 26.8403 -20.4649
-15.0000 -9.3332 -19.8384
-15.0000 58.4023 -17.9203
-15.0000 51.5608 28.4110
-15.0000 78.1840 -9.8521
-15.0000 0.8895 -7.1451
-15.0000 -8.2783 16.0543
-15.0000 -0.3649 -21.2530
-15.0000 61.6382 8.8253
-15.0000 66.0691 19.9337
-15.0000 30.2643 27.5790
-15.0000 52.5717 -12.3515
-15.0000 -3.1101 -4.4307
-15.0000 -4.8996 2.6990
-15.0000 -1.1353 -13.9051
-15.0000 -3.3022 -9.0138
-15.0000 -6.8842 -21.8176
-15.0000 -8.1799 24.1005
-15.0000 -0.1542 -1.4761
-15.0000 58.5707 25.0072
-15.0000 11.3242 -11.6019
-15.0000 29.4595 -27.2573
-15.0000 49.5166 28.4911
-15.0000 62.1580 -24.5614
-15.0000 -5.2266 13.4310
-15.0000 35.6810 8.1573
-15.0000 -8.9476 11.1866
-15.0000 76.0989 -7.1305
-15.0000 -7.8955 2.4690
-15.0000 80.6474 29.6513
-15.0000 30.1565 -22.0035
-15.0000 60.3621 -13.2831
-15.0000 -0.2473 12.2190
-15.0000 47.4431 8.8104
-15.0000 42.2402 -27.2275
4.1273 85.0000 3.8866
13.9454 85.0000 -12.3756
12.9793 85.0000 26.1861
-8.6018 85.0000 22.4172
-7.0806 85.0000 19.5305
11.0451 85.0000 24.9716
4.7791 85.0000 24.9993
-2.2445 85.0000 12.0303
-3.6061 85.0000 4.1825
1.1216 85.0000 -26.6439
-6.0897 85.0000 5.3160
8.0144 85.0000 1.3666
-4.1086 85.0000 18.5578
3.7960 85.0000 26.7239
-12.4014 85.0000 10.8023
8.7395 85.0000 25.6426
-5.8578 85.0000 25.2099
-8.6037 85.0000 -21.4118
8.1556 85.0000 5.9866
4.0210 85.0000 -23.4338
4.5834 85.0000 -13.3380
-12.8919 85.0000 -5.2658
2.8278 85.0000 5.5063
-2.9338 85.0000 -8.9216
-4.2239 85.0000 10.1442
-12.1038 85.0000 -25.6321
-7.4648 85.0000 -8.3157
2.1822 85.0000 25.6318
-12.3966 85.0000 14.5539
0.8513 85.0000 -4.5564
-4.7995 85.0000 28.3080
2.4740 85.0000 22.9407
-10.5321 85.0000 -17.5660
-11.7392 85.0000 8.4601
-1.9385 85.0000 5.2799
-3.1645 85.0000 26.3709
-5.8164 85.0000 -8.5697
-2.2655 85.0000 -3.7536
-11.4344 85.0000 -20.2571
-9.3417 85.0000 -26.3413
9.2844 85.0000 0.0943
-8.0394 85.0000 -10.3659
2.3605 85.0000 -16.3777
9.5133 85.0000 19.9204
7.4541 85.0000 -7.7781
-5.6651 85.0000 14.8571
-0.1551 85.0000 -29.5669
-13.3429 85.0000 20.1511
-4.1116 85.0000 -12.0297
-0.8439 85.0000 -9.2010
8.8108 85.0000 -24.7692
6.3366 85.0000 -29.9456
14.7397 85.0000 -17.9237
-13.8406 85.0000 19.0322
-2.2475 85.0000 -11.6593
-2.8382 85.0000 15.0812
3.1844 85.0000 -7.2587
-13.9276 85.0000 3.1192
7.2899 85.0000 1.6579
-5.4427 85.0000 -6.5188
-14.8053 85.0000 -20.4283
-13.6906 85.0000 23.2392
-3.0592 85.0000 26.6746
-4.9573 85.0000 11.6149
8.5381 85.0000 24.2843
-4.5293 85.0000 6.8972
-12.4056 85.0000 13.9137
0.9110 85.0000 -1.6834
-3.6986 85.0000 -17.2805
-0.9721 85.0000 18.1349
10.1171 85.0000 19.4987
14.9251 85.0000 -24.0615
2.6749 85.0000 26.0365
-12.3100 85.0000 -23.5789
5.5395 85.0000 26.7235
-14.7791 85.0000 23.0808
2.4433 85.0000 -11.6474
-4.1398 85.0000 -21.6349
4.9127 85.0000 -1.0034
-0.1350 85.0000 -26.1502
-5.3592 85.0000 -4.9706
-0.6960 85.0000 10.6343
6.4607 85.0000 4.2927
-10.6520 85.0000 -22.9057
-9.5104 85.0000 -8.8403
11.1383 -15.0000 27.4954
-13.8181 -15.0000 16.8379
-7.5595 -15.0000 -29.8453
-8.3869 -15.0000 -9.4521
3.3622 -15.0000 -23.2926
8.0506 -15.0000 -14.8396
13.7815 -15.0000 -28.9845
13.4120 -15.0000 4.0838
11.1489 -15.0000 0.4005
-3.5188 -15.0000 -14.1669
-12.3432 -15.0000 29.5361
-5.5717 -15.0000 -16.1097
-4.2270 -15.0000 -3.7892
-13.5033 -15.0000 17.3106
-4.4453 -15.0000 24.5978
-14.7030 -15.0000 -0.0467
-6.5072 -15.0000 -14.4316
-4.3984 -15.0000 6.0287
-0.9176 -15.0000 14.8641
-7.2351 -15.0000 -14.3648
-10.7870 -15.0000 -6.0511
-1.8556 -15.0000 -15.9613
6.8043 -15.0000 25.1820
7.9364 -15.0000 -12.2493
-7.9731 -15.0000 -13.8206
-8.9012 -15.0000 -22.0086
9.6090 -15.0000 -29.8141
1.7864 -15.0000 5.6100
-1.1983 -15.0000 22.1353
7.0880 -15.0000 -2.3823
-6.5344 -15.0000 -22.6536
-1.7045 -15.0000 1.9635
3.4448 -15.0000 22.5318
3.5836 -15.0000 -14.9155
-11.5140 -15.0000 -11.7290
-5.0376 -15.0000 27.7832
7.7437 -15.0000 -10.5087
-4.6190 -15.0000 1.7721
-8.3410 -15.0000 -2.5694
-0.7610 -15.0000 27.7616
-1.5421 -15.0000 -18.2615
-11.3638 -15.0000 -19.1052
-5.5992 -15.0000 -26.0666
10.2764 -15.0000 5.6682
0.4820 -15.0000 -27.9651
14.1341 -15.0000 2.4694
1.1171 -15.0000 -7.6684
-13.4587 -15.0000 22.1766
13.9592 -15.0000 -12.1534
8.2276 -15.0000 -4.4420
-2.2505 -15.0000 22.1258
3.0518 -15.0000 1.2578
-14.3051 -15.0000 19.1049
6.6358 -15.0000 2.7734
13.7775 -15.0000 -5.3432
2.9904 -15.0000 21.2633
9.3144 -15.0000 -22.2750
4.4189 -15.0000 -29.0078
2.7051 -15.0000 -3.5893
-3.2132 -15.0000 -22.8036
-0.3466 -15.0000 19.5412
11.5686 -15.0000 4.0904
6.4982 -15.0000 -17.4894
7.0300 -15.0000 16.5349
13.7555 -15.0000 -17.4707
-7.7721 -15.0000 22.7542
10.9850 -15.0000 23.2686
1.9239 -15.0000 14.6765
-11.2314 -15.0000 -4.9093
-13.7337 -15.0000 -3.8469
10.1941 -15.0000 29.5753
8.9064 -15.0000 1.1740
-7.8046 -15.0000 -18.6954
11.3578 -15.0000 -23.5960
-5.3850 -15.0000 -1.4862
5.8070 -15.0000 11.4497
-0.1697 -15.0000 4.8376
-7.7542 -15.0000 -11.5720
1.2325 -15.0000 -0.7271
3.9984 -15.0000 -28.1967
1.8820 -15.0000 -29.8251
6.7651 -15.0000 -11.7555
-9.4029 -15.0000 29.0667
9.9181 -15.0000 -3.7363
1.2230 -15.0000 11.9815
8.8887 46.2361 30.0000
14.0225 51.2660 30.0000
3.0471 2.7694 30.0000
-3.2745 -3.8537 30.0000
-11.6726 20.8592 30.0000
6.2403 -4.9389 30.0000
-10.6722 -1.4569 30.0000
-1.4520 62.5533 30.0000
9.5451 18.6207 30.0000
13.7331 -2.3767 30.0000
5.1010 1.0952 30.0000
3.8514 30.0485 30.0000
-5.7591 52.9796 30.0000
-2.7078 82.5788 30.0000
-10.1562 38.8373 30.0000
5.8473 70.2223 30.0000
-4.8448 65.1861 30.0000
6.3007 40.4474 30.0000
12.4205 66.4135 30.0000
7.2670 50.0202 30.0000
10.2063 59.3634 30.0000
-10.2995 56.7108 30.0000
-10.6781 15.6899 30.0000
2.0115 -13.5608 30.0000
-11.1946 43.1414 30.0000
5.4363 -7.8434 30.0000
3.9266 37.6451 30.0000
-11.3414 -3.6075 30.0000
-4.0231 75.6175 30.0000
7.0785 5.9314 30.0000
-11.0819 41.4582 30.0000
-1.8934 51.9458 30.0000
-12.6017 23.5121 30.0000
-8.0295 65.5743 30.0000
-5.7433 20.1727 30.0000
6.6915 84.8040 30.0000
7.5500 -13.9593 30.0000
10.5445 -7.0577 30.0000
-3.6935 46.3536 30.0000
-4.9937 -5.9802 30.0000
9.6323 35.7054 30.0000
-1.1022 62.1943 30.0000
6.9010 37.0296 30.0000
-1.8814 47.0702 30.0000
11.8093 40.5320 30.0000
-2.2656 9.9214 30.0000
-11.0854 27.8479 30.0000
4.1429 20.4560 30.0000
-14.9115 76.9626 30.0000
-10.1734 12.3470 30.0000
2.6033 53.4449 30.0000
8.9976 64.1700 30.0000
-6.8771 -2.0044 30.0000
-0.3097 54.4190 30.0000
-13.8450 5.0649 30.0000
-7.2244 14.3784 30.0000
-2.1507 48.2584 30.0000
14.1486 6.1156 30.0000
4.1912 43.3168 30.0000
-4.3497 0.9936 30.0000
13.7656 25.6551 30.0000
-3.0573 55.7715 30.0000
10.0148 33.6960 30.0000
-2.1304 67.6091 30.0000
13.5913 58.8740 30.0000
14.4973 80.8175 30.0000
-7.4516 70.4344 30.0000
-7.3269 63.4908 30.0000
3.2180 68.4091 30.0000
4.0458 16.8601 30.0000
-14.6087 31.0026 30.0000
-12.9813 52.9158 30.0000
4.5971 54.0671 30.0000
-4.0028 18.3999 30.0000
-2.8047 26.4959 30.0000
-5.1264 47.1990 30.0000
-9.7140 53.4627 30.0000
-9.5512 56.9911 30.0000
6.4730 24.0523 30.0000
-3.5986 46.4454 30.0000
-10.5481 58.7179 30.0000
-8.3715 -8.1257 30.0000
-5.0410 17.1171 30.0000
-1.3651 22.9224 30.0000
-7.4147 72.6196 30.0000
2.2944 7.3207 -30.0000
-14.1257 35.1520 -30.0000
-0.5009 7.2594 -30.0000
4.4145 81.7340 -30.0000
-6.1360 -13.8147 -30.0000
-1.4696 83.9729 -30.0000
-12.1377 30.7589 -30.0000
-6.3569 81.9532 -30.0000
-5.6457 17.2976 -30.0000
-12.7740 56.0067 -30.0000
-3.2320 60.9007 -30.0000
-9.7092 78.6038 -30.0000
5.3366 53.2314 -30.0000
7.7658 73.9062 -30.0000
14.1970 68.6367 -30.0000
-2.8509 -6.7244 -30.0000
11.1760 50.7929 -30.0000
11.4188 -9.7481 -30.0000
-5.5871 49.6728 -30.0000
5.7905 23.0022 -30.0000
3.8924 56.8922 -30.0000
-2.0103 23.1738 -30.0000
13.4812 22.5722 -30.0000
-10.8920 64.4186 -30.0000
-8.9844 5.7780 -30.0000
12.2641 10.4059 -30.0000
-6.8436 -1.3757 -30.0000
6.8818 -5.0490 -30.0000
6.5148 67.7957 -30.0000
3.6325 65.2191 -30.0000
-12.7155 -9.8066 -30.0000
-10.7180 27.5322 -30.0000
2.5704 4.2635 -30.0000
-2.6705 16.7648 -30.0000
-6.4373 -0.9066 -30.0000
-11.2030 57.7511 -30.0000
-7.0098 67.5822 -30.0000
-2.8520 60.6529 -30.0000
-13.4672 24.1219 -30.0000
-2.3922 3.7817 -30.0000
-4.4951 74.6742 -30.0000
-4.4781 -4.1789 -30.0000
-12.3578 7.9207 -30.0000
-2.8943 -3.7098 -30.0000
-14.9418 55.1259 -30.0000
-6.1428 31.3336 -30.0000
3.6711 12.6222 -30.0000
-13.4818 64.7992 -30.0000
-9.6389 -10.0203 -30.0000
12.9068 65.7841 -30.0000
9.8179 -11.8016 -30.0000
11.0912 19.0041 -30.0000
0.1740 82.8499 -30.0000
6.9668 16.7052 -30.0000
-1.2554 -9.0522 -30.0000
-6.0979 68.0209 -30.0000
-13.3672 64.1544 -30.0000
12.0626 41.5858 -30.0000
2.6338 -14.3187 -30.0000
-12.2140 2.6076 -30.0000
-10.2207 68.1962 -30.0000
-0.6600 -1.9982 -30.0000
-1.4817 82.2848 -30.0000
6.7286 8.3007 -30.0000
0.8321 71.8102 -30.0000
-10.5367 10.1649 -30.0000
-11.5157 71.7182 -30.0000
6.5029 -9.3434 -30.0000
1.8279 76.4574 -30.0000
8.3264 36.1975 -30.0000
-13.0020 45.3001 -30.0000
-10.8238 34.4105 -30.0000
-14.4747 -9.1341 -30.0000
-5.3880 26.1071 -30.0000
6.5133 -0.4905 -30.0000
14.8549 16.5329 -30.0000
-3.7446 51.3989 -30.0000
-6.9792 33.8882 -30.0000
-9.5243 49.0891 -30.0000
-1.7192 1.1339 -30.0000
-13.6089 -9.9691 -30.0000
4.0676 60.3022 -30.0000
4.8513 5.5554 -30.0000
7.3341 12.9170 -30.0000
5.9831 11.7170 -30.0000
