ply
format ascii 1.0
element vertex 1024
property float x
property float y
property float z
end_header
50.0000 8.7042 -26.5193
50.0000 -4.7048 5.3503
50.0000 -5.4651 -18.9754
50.0000 -7.0108 16.1975
50.0000 8.5393 -21.2108
50.0000 12.3032 15.1934
50.0000 3.4505 -17.2212
50.0000 1.5294 14.5231
50.0000 8.9200 3.1160
50.0000 -2.3573 25.2003
50.0000 -3.1695 23.7526
50.0000 9.5441 12.6485
50.0000 2.9294 -1.6790
50.0000 0.4131 3.0544
50.0000 -9.7780 26.9609
50.0000 -10.8071 37.8196
50.0000 -10.1658 -11.2086
50.0000 10.4594 39.6680
50.0000 9.6396 24.0645
50.0000 0.1500 -26.4079
50.0000 -8.7432 17.4661
50.0000 2.4798 -25.7000
50.0000 6.3618 -17.1052
50.0000 -6.8738 -32.8857
50.0000 2.9063 36.2044
50.0000 -9.6165 -28.7929
50.0000 1.7813 14.2915
50.0000 -2.8980 -27.5590
50.0000 -8.2314 4.8708
50.0000 3.5587 1.1616
50.0000 -12.1589 -21.5672
50.0000 -5.9664 -8.2806
50.0000 10.6575 -20.3183
50.0000 -4.8069 32.1733
50.0000 -7.8997 34.5879
50.0000 -2.5715 -35.8003
50.0000 -2.5359 19.1048
50.0000 5.6910 -22.8197
50.0000 -7.4031 -14.6401
50.0000 3.8030 20.7511
50.0000 -0.4290 2.5568
50.0000 -5.4782 33.0704
50.0000 -7.1061 -13.0070
50.0000 -1.4745 11.5297
50.0000 -2.7774 11.4558
50.0000 2.4509 -8.0519
50.0000 -12.4051 -30.4513
50.0000 -5.3233 -24.8874
50.0000 11.8023 -4.6272
50.0000 -14.3655 9.6628
50.0000 -7.6032 -36.9055
50.0000 4.4650 -4.5309
50.0000 1.5933 6.7483
50.0000 2.4471 33.2474
50.0000 5.2340 39.2915
50.0000 0.6394 4.7852
50.0000 -5.6869 -6.3005
50.0000 -11.9579 -5.1917
50.0000 2.5977 -4.3999
50.0000 12.3638 26.2781
50.0000 7.4973 -26.8142
50.0000 5.1772 -24.6237
50.0000 -1.4070 33.3753
50.0000 -6.5938 5.3917
50.0000 0.1838 14.8969
50.0000 1.2367 34.5379
50.0000 9.1902 -34.5482
50.0000 -2.7085 19.5154
50.0000 -12.1394 7.6973
50.0000 -4.3609 37.4653
50.0000 1.3695 27.3913
50.0000 8.7766 14.0333
50.0000 9.6905 -8.4194
50.0000 -7.0010 -2.8891
50.0000 -10.6832 14.3920
50.0000 -1.3830 6.7668
50.0000 14.4749 -15.0974
50.0000 -7.1822 -17.5664
50.0000 8.6405 30.4810
50.0000 -10.6141 -6.9497
50.0000 1.6761 -37.0375
50.0000 -8.9664 34.1959
50.0000 3.9079 -18.8889
50.0000 9.8253 -3.3909
50.0000 -9.9203 -38.1892
50.0000 -11.4956 -9.9331
-50.0000 6.6764 -6.2911
-50.0000 8.7685 -12.4840
-50.0000 -13.4131 8.5803
-50.0000 -9.0578 10.7727
-50.0000 2.9475 27.2727
-50.0000 -10.1669 31.5527
-50.0000 -5.7205 -27.3171
-50.0000 4.9874 -16.9971
-50.0000 -7.5175 -21.0046
-50.0000 3.1961 0.8371
-50.0000 0.5322 -24.4194
-50.0000 -1.6813 -35.0518
-50.0000 -8.8294 -13.8599
-50.0000 -6.7013 -4.5650
-50.0000 3.2152 -29.7160
-50.0000 12.7002 16.4885
-50.0000 -0.1255 37.2509
-50.0000 11.9620 21.6605
-50.0000 13.2045 -2.2475
-50.0000 2.7366 -38.1230
-50.0000 -0.8631 20.3386
-50.0000 -7.0208 14.3906
-50.0000 -9.7387 -9.8564
-50.0000 -5.2505 27.2543
-50.0000 11.0024 19.9880
-50.0000 0.4620 -18.0989
-50.0000 -10.3874 -9.4056
-50.0000 -5.7707 24.1646
-50.0000 -13.6585 7.5858
-50.0000 2.6349 -13.2634
-50.0000 2.0970 -7.5925
-50.0000 -5.9143 -18.5676
-50.0000 3.4104 -22.4979
-50.0000 -12.6299 20.6009
-50.0000 2.9802 34.7862
-50.0000 -3.1686 -22.6152
-50.0000 -11.5994 35.8267
-50.0000 -8.8926 -16.8184
-50.0000 1.2765 5.4812
-50.0000 3.6908 16.4507
-50.0000 6.6293 -18.8538
-50.0000 -14.1585 -8.3169
-50.0000 -14.3006 -11.3049
-50.0000 -9.5954 -19.5403
-50.0000 -11.4595 -16.9087
-50.0000 5.3136 17.5559
-50.0000 -6.5598 -3.0519
-50.0000 7.3665 9.0789
-50.0000 -12.0035 -2.9708
-50.0000 4.0021 -28.7239
-50.0000 -6.3469 27.0692
-50.0000 11.1314 -23.1186
-50.0000 5.2725 -35.5506
-50.0000 2.4264 -12.0609
-50.0000 4.3574 33.7206
-50.0000 -4.1406 32.0909
-50.0000 -2.6370 15.5679
-50.0000 -14.1756 -30.6232
-50.0000 -5.0560 -23.9657
-50.0000 -4.9613 39.1818
-50.0000 11.9377 -9.8788
-50.0000 -11.6327 9.0936
-50.0000 10.4989 30.1675
-50.0000 14.3959 -20.6124
-50.0000 -13.0890 -19.7021
-50.0000 -9.5497 -25.9973
-50.0000 -2.9256 11.3211
-50.0000 13.9705 -24.1648
-50.0000 -6.4966 -1.8240
-50.0000 2.1674 4.7295
-50.0000 -10.6815 2.6291
-50.0000 1.8910 -24.8046
-50.0000 12.9384 27.2622
-50.0000 10.8299 34.9271
-50.0000 -14.2145 -20.5744
-50.0000 -12.4891 11.6465
-50.0000 -5.9338 19.4076
-50.0000 7.8685 -12.1637
-50.0000 13.7593 11.7603
-50.0000 8.8099 -9.1522
-50.0000 -13.9691 6.8570
-50.0000 12.7970 23.9777
-50.0000 -3.9444 -31.4111
-50.0000 5.0398 24.3095
-50.0000 9.2569 1.6450
-50.0000 -10.7752 -18.8917
-19.4771 15.0000 7.0745
-7.2223 15.0000 -10.4894
21.6517 15.0000 8.9655
5.8598 15.0000 32.8633
-12.8727 15.0000 -9.6520
22.9317 15.0000 17.0173
-47.7045 15.0000 -8.2159
-3.2102 15.0000 -32.4440
-14.9882 15.0000 3.6660
-19.7573 15.0000 38.4417
38.1679 15.0000 33.3067
-38.4207 15.0000 23.8824
9.0561 15.0000 -28.6230
9.3572 15.0000 -34.8208
44.3522 15.0000 35.3802
4.9150 15.0000 21.0201
-6.1426 15.0000 39.5022
-46.7833 15.0000 -22.8913
-2.5379 15.0000 -8.6019
-0.0147 15.0000 -24.9466
-39.4122 15.0000 34.1193
40.9014 15.0000 33.3072
-14.6602 15.0000 19.0105
-38.2308 15.0000 17.1788
-1.1510 15.0000 -22.2265
36.6877 15.0000 30.2129
30.5439 15.0000 -35.5326
25.0279 15.0000 -32.2217
-23.8779 15.0000 -0.5584
-45.9927 15.0000 -25.5577
-49.7104 15.0000 20.2783
-18.7736 15.0000 9.5214
-1.7823 15.0000 0.6741
-46.0099 15.0000 -5.7361
27.1574 15.0000 -2.5109
31.2723 15.0000 -17.3070
-7.2685 15.0000 -23.0157
-9.5491 15.0000 -32.2697
-7.7245 15.0000 36.6745
-41.2550 15.0000 -16.4403
-17.6626 15.0000 -8.1348
-42.5044 15.0000 -8.0184
-7.2952 15.0000 34.6431
8.0889 15.0000 -33.3172
-20.1765 15.0000 13.3303
-4.7730 15.0000 -4.2013
-14.4999 15.0000 15.5824
-28.6988 15.0000 -4.0624
27.2405 15.0000 2.4995
25.1216 15.0000 18.3461
44.2962 15.0000 8.4867
27.9250 15.0000 -4.3940
7.6517 15.0000 3.1809
28.9865 15.0000 34.1957
-26.0949 15.0000 14.7771
-49.6646 15.0000 -12.0610
-18.5291 15.0000 0.1917
-12.2088 15.0000 27.1050
-1.8128 15.0000 -21.0423
-8.1324 15.0000 19.0358
-16.3591 15.0000 7.1516
-15.0207 15.0000 17.1400
8.4728 15.0000 -12.0041
-25.4146 15.0000 29.3833
-47.6503 15.0000 -23.0804
7.7194 15.0000 1.6934
14.4616 15.0000 -6.9285
7.9644 15.0000 35.4919
26.9701 15.0000 15.6245
-44.4821 15.0000 -15.9039
12.6965 15.0000 -4.4147
13.5666 15.0000 13.3245
49.3165 15.0000 -27.9145
38.2828 15.0000 -4.2847
-18.0456 15.0000 2.6519
-28.2877 15.0000 -1.5384
-36.7284 15.0000 38.7946
5.9580 15.0000 -32.8795
19.9229 15.0000 -23.3880
-4.9260 15.0000 35.1576
-37.8219 15.0000 10.1750
14.2374 15.0000 -13.0594
-36.7987 15.0000 6.5172
-35.4161 15.0000 -7.9650
13.6109 15.0000 0.2084
33.2000 -15.0000 9.7638
31.8911 -15.0000 -24.8349
-48.4245 -15.0000 5.7012
-34.2020 -15.0000 25.0210
-14.4061 -15.0000 -3.2764
42.2256 -15.0000 -31.5352
3.8538 -15.0000 6.9666
28.3584 -15.0000 -14.8588
-26.8209 -15.0000 8.5348
-14.6712 -15.0000 36.4215
-49.5955 -15.0000 21.8445
35.2822 -15.0000 -0.3083
-47.9032 -15.0000 -32.3049
34.4863 -15.0000 -8.6017
-5.3892 -15.0000 -19.7779
-14.7227 -15.0000 -34.3075
37.7760 -15.0000 15.2407
-9.8335 -15.0000 9.5226
-24.0012 -15.0000 -32.8019
6.7563 -15.0000 -7.0266
-5.6675 -15.0000 -10.5548
-31.8887 -15.0000 4.7521
-24.3912 -15.0000 -17.1281
-0.0251 -15.0000 -2.8623
-19.5279 -15.0000 -3.1453
-3.4296 -15.0000 -25.5009
15.4228 -15.0000 -27.2795
17.5032 -15.0000 -16.4978
-28.5161 -15.0000 14.1689
-45.5866 -15.0000 -29.1493
12.0159 -15.0000 30.5173
40.0038 -15.0000 2.1329
-10.4949 -15.0000 -1.9399
8.6810 -15.0000 -23.7021
-24.1961 -15.0000 -1.0278
-26.0329 -15.0000 -33.2641
-17.3039 -15.0000 11.3642
38.9710 -15.0000 -9.1786
39.0349 -15.0000 19.5292
-36.3033 -15.0000 -17.2704
-11.5516 -15.0000 21.2536
26.2345 -15.0000 -14.0362
15.0880 -15.0000 -5.9772
-39.5730 -15.0000 -21.4786
-41.1655 -15.0000 6.4227
5.5522 -15.0000 38.3353
28.0510 -15.0000 38.0612
-9.4181 -15.0000 12.5323
-42.1869 -15.0000 -32.6734
-11.0765 -15.0000 -25.2628
15.6008 -15.0000 0.1995
43.4846 -15.0000 -10.7474
-38.7862 -15.0000 -18.5298
46.1306 -15.0000 -32.4773
11.0034 -15.0000 -34.8250
-15.4944 -15.0000 36.4793
30.3165 -15.0000 6.0086
-37.4365 -15.0000 -34.9459
12.3111 -15.0000 21.2902
-12.2474 -15.0000 -8.7278
-25.9330 -15.0000 2.8536
29.2865 -15.0000 -19.2995
-25.3141 -15.0000 9.7129
35.5828 -15.0000 -11.6531
-41.4840 -15.0000 -29.5031
9.0357 -15.0000 -2.8694
21.4425 -15.0000 31.9399
29.3336 -15.0000 -16.5514
-4.3237 -15.0000 -28.1344
35.6227 -15.0000 13.5975
49.4566 -15.0000 17.7784
-9.6449 -15.0000 29.6958
-44.5083 -15.0000 13.3346
-9.2183 -15.0000 38.9826
-5.4742 -15.0000 30.2559
45.2912 -15.0000 -4.2198
-20.6462 -15.0000 -33.1785
-1.0593 -15.0000 -32.6654
-5.2149 -15.0000 -19.6265
-8.0278 -15.0000 10.7565
-31.1038 -15.0000 -2.0991
-11.4030 -15.0000 -14.1230
14.1953 -15.0000 12.8241
-6.5646 -15.0000 -8.6692
-30.8761 -15.0000 -37.1501
-10.5227 4.0384 40.0000
-41.7535 -14.1224 40.0000
14.5129 -7.3994 40.0000
29.1036 14.7234 40.0000
15.9063 4.4381 40.0000
-8.2356 -7.4042 40.0000
26.1691 3.7058 40.0000
-12.0786 -13.0539 40.0000
45.1200 6.8560 40.0000
47.3460 -9.0337 40.0000
32.2433 8.4299 40.0000
-3.0058 13.4417 40.0000
1.7523 -1.0721 40.0000
36.7366 -11.5181 40.0000
-45.3035 -14.2347 40.0000
-33.4291 6.3249 40.0000
-17.3232 -5.7994 40.0000
-26.2183 -10.5065 40.0000
-31.9878 -10.0337 40.0000
28.1266 6.3123 40.0000
38.0532 -4.7100 40.0000
-1.9150 9.0039 40.0000
-43.6885 9.0122 40.0000
-42.8476 1.2696 40.0000
-8.1420 -11.1023 40.0000
-0.7086 2.4572 40.0000
36.3007 -0.6230 40.0000
9.7172 13.5951 40.0000
-38.6746 8.7223 40.0000
-5.3667 -13.9959 40.0000
-11.9082 -0.3218 40.0000
-11.1384 -5.2925 40.0000
-3.3224 -14.6489 40.0000
20.0969 -14.7200 40.0000
49.2533 10.2365 40.0000
34.8526 -11.6337 40.0000
6.0796 9.8088 40.0000
-36.8438 0.1403 40.0000
46.6739 5.1785 40.0000
45.8399 -6.5408 40.0000
-8.6319 1.3978 40.0000
-46.6299 0.1710 40.0000
-28.9655 9.8973 40.0000
19.4299 -3.0881 40.0000
7.8142 9.0154 40.0000
-42.7153 11.1858 40.0000
39.3410 10.6085 40.0000
-13.4270 13.7301 40.0000
24.8923 -13.9827 40.0000
39.0188 -8.1950 40.0000
-46.4649 2.6088 40.0000
11.6748 3.6332 40.0000
-37.7006 -0.1918 40.0000
-6.5935 -6.1104 40.0000
43.7429 6.3797 40.0000
18.9189 4.4309 40.0000
32.0907 -5.8597 40.0000
-35.8957 -4.5453 40.0000
22.1771 5.5220 40.0000
-8.4097 -10.1291 40.0000
27.9235 9.2957 40.0000
4.0242 -1.0502 40.0000
-47.3625 -11.8420 40.0000
49.4052 -9.9958 40.0000
-6.9867 2.1600 40.0000
-46.8695 12.4566 40.0000
18.3855 -13.2177 40.0000
-38.0461 -13.8626 40.0000
-47.6874 -6.4149 40.0000
22.1381 13.2949 40.0000
-33.7565 -4.3263 40.0000
19.3026 -13.1320 40.0000
-36.2107 12.0995 40.0000
-42.6623 12.2354 40.0000
-0.2845 -5.4072 40.0000
24.6379 2.2309 40.0000
-14.4329 13.4948 40.0000
38.0591 1.4412 40.0000
20.2826 13.0876 40.0000
8.4598 -4.9000 40.0000
15.8393 14.8469 40.0000
25.7035 4.6257 40.0000
-27.9524 -2.3840 40.0000
22.9586 5.3349 40.0000
33.1121 -4.4297 40.0000
9.2109 8.5128 -40.0000
-18.8284 7.0855 -40.0000
-46.4413 -3.8071 -40.0000
-33.4954 -14.9884 -40.0000
37.2015 13.6896 -40.0000
40.1943 2.8918 -40.0000
7.1469 -0.1805 -40.0000
-27.9268 10.1239 -40.0000
-32.4820 -4.6096 -40.0000
14.4091 -8.2200 -40.0000
-35.6414 -11.3135 -40.0000
-35.3106 -5.4670 -40.0000
-44.0947 0.0832 -40.0000
-16.1695 -8.8950 -40.0000
-27.6239 6.3171 -40.0000
-29.3626 1.7646 -40.0000
-43.5525 -6.8921 -40.0000
-39.3180 0.1521 -40.0000
22.2218 -4.3327 -40.0000
16.8012 -1.3260 -40.0000
-21.4876 -9.1063 -40.0000
-3.0622 10.0168 -40.0000
-0.6074 -13.9123 -40.0000
-6.4490 -9.9738 -40.0000
-0.0150 -14.9837 -40.0000
22.4700 4.1874 -40.0000
46.8520 9.2050 -40.0000
-35.5071 -12.0923 -40.0000
-6.9186 6.8033 -40.0000
18.2643 10.0797 -40.0000
-2.8663 -9.6185 -40.0000
-15.2715 -8.4146 -40.0000
-24.0607 -4.2555 -40.0000
-14.9631 9.3447 -40.0000
-1.9266 -4.3308 -40.0000
4.4727 9.0200 -40.0000
-17.5028 -12.7658 -40.0000
-42.3614 -12.2990 -40.0000
-45.5530 0.9531 -40.0000
-22.8143 -2.8208 -40.0000
39.7386 -1.4319 -40.0000
-47.3072 11.6235 -40.0000
12.9260 -9.6431 -40.0000
12.3279 7.3193 -40.0000
49.4878 13.6463 -40.0000
11.8264 12.7808 -40.0000
48.7992 11.2216 -40.0000
14.5347 7.0117 -40.0000
29.0381 -12.5808 -40.0000
-12.3103 -8.8723 -40.0000
-15.0980 6.8381 -40.0000
-48.5478 -1.7149 -40.0000
39.4053 -10.1005 -40.0000
27.8861 2.9952 -40.0000
25.0859 -7.9289 -40.0000
19.4768 -3.6942 -40.0000
35.2128 1.7327 -40.0000
7.2763 7.8574 -40.0000
-5.7440 -7.2076 -40.0000
-10.0899 -1.3028 -40.0000
15.2675 3.9819 -40.0000
-32.9949 7.4787 -40.0000
-9.6891 8.8952 -40.0000
16.8610 9.7480 -40.0000
-3.6148 -3.2916 -40.0000
-8.2258 -10.5173 -40.0000
-8.9888 -0.0504 -40.0000
-0.4586 9.2667 -40.0000
-49.8924 1.2933 -40.0000
-25.9874 -8.0229 -40.0000
-44.6774 -11.3529 -40.0000
-5.2103 13.8915 -40.0000
38.4993 -11.0153 -40.0000
-16.0890 5.4311 -40.0000
-49.1047 3.8030 -40.0000
7.3213 -11.3715 -40.0000
-48.0611 -3.8945 -40.0000
26.3093 -5.9574 -40.0000
11.0953 -8.3102 -40.0000
-7.7062 -5.9910 -40.0000
10.3474 -7.6629 -40.0000
-6.0637 4.2786 -40.0000
16.1847 -13.3673 -40.0000
-18.7055 -11.5014 -40.0000
34.0619 6.0602 -40.0000
50.0000 -73.2244 -23.5793
50.0000 -52.1056 4.2542
50.0000 -48.6402 -26.3671
50.0000 -68.1674 -30.3706
50.0000 -62.6568 22.9410
50.0000 6.4667 20.0104
50.0000 -10.6915 26.8399
50.0000 -4.4280 12.7327
50.0000 -26.3863 -25.5438
50.0000 -17.9854 13.5391
50.0000 -18.2629 -24.3312
50.0000 13.1346 -10.9466
50.0000 -26.2362 -9.0374
50.0000 12.4913 31.5420
50.0000 -27.3183 -37.2249
50.0000 -80.9881 -10.9608
50.0000 -18.4729 6.5849
50.0000 -5.2123 -29.6181
50.0000 -67.5381 8.3897
50.0000 -29.8569 36.9115
50.0000 -38.8164 -15.3641
50.0000 5.8365 35.4143
50.0000 -79.9107 -22.2926
50.0000 -31.6396 17.2653
50.0000 -23.0606 38.3555
50.0000 -7.8510 -4.7372
50.0000 0.2997 39.1220
50.0000 -64.6440 32.5472
50.0000 -42.9623 -16.2092
50.0000 -52.8569 -8.1243
50.0000 -53.7555 -25.4471
50.0000 -57.7952 -21.8194
50.0000 -67.9322 24.9898
50.0000 3.7411 14.0601
50.0000 -52.7231 35.8128
50.0000 -26.8066 -16.1455
50.0000 -37.1050 -35.0019
50.0000 -84.4444 -19.5982
50.0000 -45.2872 -11.3372
50.0000 -66.7309 11.0259
50.0000 -61.4616 10.7109
50.0000 -77.5883 -21.7747
50.0000 -64.6532 15.6605
50.0000 2.1261 -12.8874
50.0000 -37.7164 -11.8153
50.0000 -25.3128 -21.9958
50.0000 14.3239 4.7628
50.0000 -30.4102 -24.4512
50.0000 -38.7100 30.3426
50.0000 11.5751 -25.8992
50.0000 1.9032 -10.1166
50.0000 -8.5595 22.5018
50.0000 -37.3203 -21.3024
50.0000 -38.1711 33.0502
50.0000 -13.8375 -29.8805
50.0000 -42.7064 25.0224
50.0000 -45.7990 14.2425
50.0000 8.0002 -9.9725
50.0000 -82.0862 21.7046
50.0000 -52.0913 -36.2583
50.0000 -14.9471 37.1463
50.0000 12.3619 7.2944
50.0000 -10.1419 29.2634
50.0000 -66.9754 -39.7144
50.0000 -83.7963 37.5198
50.0000 -11.2523 36.0362
50.0000 -75.0479 -5.0182
50.0000 -64.0704 24.4747
50.0000 -58.2421 22.5302
50.0000 -33.8339 5.5526
50.0000 -31.0552 17.9015
50.0000 -4.8479 13.4337
50.0000 -76.0570 26.8970
50.0000 -7.1401 13.9643
50.0000 -12.5737 32.6887
50.0000 -40.4876 8.5054
50.0000 -24.4801 26.5421
50.0000 -14.8571 -33.1012
50.0000 -63.5597 4.2079
50.0000 -60.3372 -28.1390
50.0000 4.0947 -29.7595
50.0000 -36.8611 -20.5828
50.0000 -31.8926 0.2054
50.0000 -47.5425 -30.7735
50.0000 -4.1131 14.2225
50.0000 -56.6885 -30.5470
20.0000 -35.5041 -33.5934
20.0000 13.1581 -0.6611
20.0000 -52.0969 0.9185
20.0000 6.4474 14.8190
20.0000 -26.7972 -22.8452
20.0000 -40.3063 -17.2924
20.0000 -5.0658 -17.9545
20.0000 -35.0445 20.2913
20.0000 -5.0505 -34.5067
20.0000 -76.5859 -16.5146
20.0000 8.3636 16.2514
20.0000 -62.2139 0.1805
20.0000 -10.5357 -7.7581
20.0000 -17.2675 -25.9050
20.0000 14.9702 14.7441
20.0000 -71.1986 -23.4859
20.0000 -19.4480 -32.2169
20.0000 -66.2890 1.9890
20.0000 6.5083 12.9362
20.0000 -67.1111 32.6528
20.0000 10.1088 13.1335
20.0000 -39.9951 -8.3779
20.0000 -51.6932 -6.3281
20.0000 6.4425 1.9270
20.0000 -24.9680 10.4592
20.0000 -51.3360 -3.7834
20.0000 -5.6386 22.6170
20.0000 -46.9077 4.1559
20.0000 -48.8531 -20.1769
20.0000 -74.6583 -4.1491
20.0000 -3.6960 -17.4895
20.0000 -42.0877 32.6740
20.0000 -41.6741 0.4228
20.0000 -45.3669 -22.4018
20.0000 -41.9336 -28.9131
20.0000 -28.2385 -35.9125
20.0000 13.2557 -24.4896
20.0000 -57.5718 17.2296
20.0000 -34.6636 1.6431
20.0000 14.3986 -21.7352
20.0000 -75.6132 31.9432
20.0000 -58.2229 -37.2627
20.0000 -20.1952 28.7109
20.0000 -4.0588 -7.4085
20.0000 -72.5301 13.2419
20.0000 0.4959 -20.0486
20.0000 -8.2974 -23.6524
20.0000 -36.8603 31.7401
20.0000 -2.6436 -8.9254
20.0000 -42.2383 -14.2711
20.0000 -44.4818 36.2032
20.0000 13.1129 -8.1534
20.0000 -70.6236 -38.9665
20.0000 -42.6850 -37.7760
20.0000 -21.7412 -29.8072
20.0000 -11.0661 34.8836
20.0000 -72.1070 3.8843
20.0000 -13.3704 28.5267
20.0000 -16.1744 33.5338
20.0000 -11.3406 34.7553
20.0000 -75.0501 -18.2840
20.0000 -43.3687 -9.1066
20.0000 -60.4230 -35.0142
20.0000 -48.5483 -18.8723
20.0000 6.9057 5.9854
20.0000 6.4201 12.4058
20.0000 -66.6788 -21.1092
20.0000 2.5313 -20.3933
20.0000 -57.5530 15.0499
20.0000 -59.4318 34.1328
20.0000 -6.0059 -19.4194
20.0000 -26.7685 13.5380
20.0000 -48.0175 -18.4044
20.0000 -72.1918 -23.2339
20.0000 -45.0783 -14.3967
20.0000 9.4255 18.4995
20.0000 -42.8452 -38.0025
20.0000 -53.9917 5.5659
20.0000 3.7732 -30.4246
20.0000 -54.0419 -2.6600
20.0000 -53.3899 -13.0807
20.0000 1.5431 5.3176
20.0000 -12.1948 -9.1150
20.0000 -40.1003 -13.7643
20.0000 -52.3698 34.0692
20.0000 -21.2817 -9.2248
24.7714 15.0000 -26.3718
39.2271 15.0000 -32.5839
30.4136 15.0000 30.6034
48.0345 15.0000 19.2119
28.0980 15.0000 34.9351
41.3923 15.0000 25.1104
40.3313 15.0000 -16.8903
48.9010 15.0000 -17.0482
46.8063 15.0000 19.4646
34.2264 15.0000 12.7819
20.3285 15.0000 -12.5246
25.1562 15.0000 12.9747
48.9569 15.0000 37.8914
31.8538 15.0000 -24.7493
43.4962 15.0000 -34.0769
36.3967 15.0000 -38.1344
48.9492 15.0000 -2.3732
44.7672 15.0000 37.7303
42.4585 15.0000 -39.7401
43.3410 15.0000 -34.6938
28.3340 15.0000 -36.5199
29.3164 15.0000 -37.3699
29.9934 15.0000 -32.4065
33.5382 15.0000 34.2143
27.6905 15.0000 3.6990
29.9550 15.0000 18.8472
36.3663 15.0000 24.3574
48.7549 15.0000 -34.8079
38.6333 15.0000 -30.7012
46.8064 15.0000 -28.8707
44.9867 15.0000 29.5527
28.1226 15.0000 12.7292
32.1819 15.0000 0.6341
34.3949 15.0000 26.1339
37.8460 15.0000 -30.3333
43.8693 15.0000 -5.3997
41.4437 15.0000 -30.9588
47.4494 15.0000 -33.0944
46.8164 15.0000 13.4343
21.9331 15.0000 17.6975
45.7594 15.0000 -11.4809
30.2025 15.0000 -38.4865
49.6636 15.0000 0.9482
26.6148 15.0000 32.7056
38.1539 15.0000 -36.7054
35.8804 15.0000 -7.7847
20.5946 15.0000 -31.8428
30.8820 15.0000 13.2955
25.1777 15.0000 4.2421
24.4060 15.0000 20.0531
44.9069 15.0000 -6.3633
21.3724 15.0000 -18.3072
26.4766 15.0000 -0.4696
29.6162 15.0000 11.7498
42.9882 15.0000 -2.6271
41.8997 15.0000 16.8419
30.6157 15.0000 3.4206
30.9938 15.0000 -30.3651
20.1240 15.0000 30.1072
30.3179 15.0000 -21.4393
31.3109 15.0000 -28.9519
37.2342 15.0000 -6.0343
41.6095 15.0000 -7.7996
28.9674 15.0000 -23.8790
49.3700 15.0000 -26.1730
24.5666 15.0000 -25.8115
44.2760 15.0000 36.8813
46.8189 15.0000 -33.5844
47.6911 15.0000 15.9273
46.3820 15.0000 17.0436
30.2904 15.0000 30.7181
41.1744 15.0000 13.9423
36.3293 15.0000 -15.5295
41.2490 15.0000 26.2734
42.2110 15.0000 34.8177
31.5284 15.0000 22.2361
35.4318 15.0000 -37.1804
40.3253 15.0000 -11.5529
43.8160 15.0000 -7.8029
41.4404 15.0000 -24.9925
27.7886 15.0000 32.4298
33.2825 15.0000 -24.3287
44.2927 15.0000 21.4219
41.0919 15.0000 -9.0894
25.8228 15.0000 -19.7594
21.0055 -85.0000 33.4946
33.9066 -85.0000 34.1712
41.6153 -85.0000 -27.2774
20.4129 -85.0000 21.3340
46.9784 -85.0000 39.6676
42.2943 -85.0000 -32.5297
25.3796 -85.0000 -8.5839
28.8705 -85.0000 -38.6711
33.1743 -85.0000 24.6211
20.9213 -85.0000 16.9048
26.7307 -85.0000 -0.0986
20.2235 -85.0000 7.0478
25.4689 -85.0000 22.7571
23.7989 -85.0000 -13.1177
48.7870 -85.0000 35.8738
40.3831 -85.0000 -32.8424
36.6718 -85.0000 35.7284
44.4656 -85.0000 -23.3367
38.8695 -85.0000 -32.5293
39.5022 -85.0000 -24.2968
30.7207 -85.0000 -32.9235
49.1875 -85.0000 -37.1251
47.2809 -85.0000 11.2658
28.3056 -85.0000 7.1824
40.8565 -85.0000 15.4890
25.4390 -85.0000 39.1098
43.8439 -85.0000 7.3311
38.5345 -85.0000 2.0037
36.2258 -85.0000 -19.8839
26.3832 -85.0000 -11.8653
32.9144 -85.0000 36.2353
41.6778 -85.0000 -21.1098
36.0152 -85.0000 4.8650
22.9730 -85.0000 -28.2482
28.2371 -85.0000 17.4096
32.1000 -85.0000 5.8246
43.2782 -85.0000 33.1228
41.7872 -85.0000 7.8546
32.6793 -85.0000 15.8506
29.6598 -85.0000 4.2851
39.3826 -85.0000 6.9311
42.7858 -85.0000 34.1407
31.5294 -85.0000 -12.8252
33.1571 -85.0000 31.7357
48.3083 -85.0000 13.9673
31.7949 -85.0000 23.5833
35.8103 -85.0000 -23.3548
26.7970 -85.0000 4.4141
48.4528 -85.0000 27.1353
28.6229 -85.0000 -31.7675
33.1446 -85.0000 -27.0661
22.8924 -85.0000 25.6755
39.9169 -85.0000 -4.4849
43.6719 -85.0000 -0.8959
30.3942 -85.0000 28.0460
27.0466 -85.0000 15.3354
49.1622 -85.0000 1.6289
39.7737 -85.0000 26.0804
20.1055 -85.0000 -29.8212
47.9649 -85.0000 14.3798
32.3645 -85.0000 36.0933
31.8751 -85.0000 -25.9351
49.0869 -85.0000 16.5996
40.0460 -85.0000 38.0876
41.5916 -85.0000 28.0689
26.1363 -85.0000 -13.4345
27.4198 -85.0000 10.1962
30.4447 -85.0000 32.7042
24.2170 -85.0000 26.0171
48.2724 -85.0000 35.9095
36.5292 -85.0000 -13.5871
43.5682 -85.0000 14.0457
40.9212 -85.0000 -30.5554
25.5704 -85.0000 -34.1387
47.4548 -85.0000 -28.5918
34.5689 -85.0000 2.0352
43.4715 -85.0000 -5.3769
23.2355 -85.0000 35.8375
20.5666 -85.0000 7.7281
37.3270 -85.0000 -31.6715
24.7637 -85.0000 -10.4051
21.3163 -85.0000 16.0647
31.0343 -85.0000 35.5918
28.0907 -85.0000 6.4358
36.7679 -85.0000 35.3519
46.5813 -43.7978 40.0000
38.7296 -1.7018 40.0000
20.9038 -34.8159 40.0000
47.3881 -26.0375 40.0000
36.6510 -4.0534 40.0000
30.4747 13.6816 40.0000
21.6193 -21.9814 40.0000
46.6575 -84.9970 40.0000
38.6565 -40.8663 40.0000
39.9474 -53.5466 40.0000
31.0272 4.9198 40.0000
26.7921 10.6433 40.0000
27.9073 -34.3496 40.0000
46.8091 -17.7559 40.0000
25.1579 -42.2247 40.0000
24.3902 -80.2517 40.0000
36.9277 -20.6515 40.0000
22.1622 -63.1530 40.0000
29.6994 -44.6313 40.0000
32.2001 -80.3295 40.0000
49.0495 12.1442 40.0000
23.0286 13.4681 40.0000
47.8851 -15.7044 40.0000
40.0030 -45.7550 40.0000
33.2604 11.2715 40.0000
32.9739 -41.7093 40.0000
44.4707 -7.5548 40.0000
22.6666 -13.8765 40.0000
26.2064 -84.5173 40.0000
43.4151 7.0108 40.0000
47.9551 -74.4671 40.0000
31.3505 12.6281 40.0000
43.9921 -4.0764 40.0000
36.9189 -36.7509 40.0000
49.5357 -77.8896 40.0000
41.8507 -3.1548 40.0000
36.6748 -83.6923 40.0000
42.8502 -46.5913 40.0000
46.4302 -41.8839 40.0000
22.3317 -73.8178 40.0000
21.6678 8.9727 40.0000
43.9078 -7.7314 40.0000
47.6196 -76.9434 40.0000
49.6721 -29.0185 40.0000
22.9626 10.7836 40.0000
42.9490 11.6863 40.0000
31.2965 -38.1717 40.0000
27.2776 -80.7220 40.0000
41.5608 0.9434 40.0000
36.1374 -83.4832 40.0000
48.7132 -2.3132 40.0000
28.5526 -76.6851 40.0000
42.0200 -52.5465 40.0000
34.4137 -18.5802 40.0000
40.7147 -16.0010 40.0000
20.3290 -7.8605 40.0000
27.7760 -1.6913 40.0000
40.8738 -4.3936 40.0000
39.5751 -33.8996 40.0000
44.1205 7.2163 40.0000
27.9476 -81.5026 40.0000
40.3663 -60.0749 40.0000
27.5804 -79.0508 40.0000
46.2773 -45.3157 40.0000
32.5392 -82.5891 40.0000
36.5728 -64.5796 40.0000
36.5369 -77.8519 40.0000
36.7988 -18.5960 40.0000
49.5572 -37.5043 40.0000
43.1611 -71.4771 40.0000
32.8072 -49.0526 40.0000
27.4533 -71.2190 40.0000
27.5821 -68.0189 40.0000
23.1721 -77.5037 40.0000
48.2153 -44.0172 40.0000
33.7453 5.2928 40.0000
26.7694 -10.0796 40.0000
32.1497 6.0911 40.0000
41.9499 7.1986 40.0000
31.7129 -26.9221 40.0000
37.9800 -49.1867 40.0000
48.8597 -49.2021 40.0000
30.5861 -37.4026 40.0000
42.1929 6.7736 40.0000
28.9668 -4.6702 40.0000
43.7964 -32.6540 -40.0000
48.2397 -34.0358 -40.0000
36.1788 10.1531 -40.0000
25.3544 -65.3139 -40.0000
24.3643 -35.0181 -40.0000
43.9281 3.8019 -40.0000
32.3133 -58.3165 -40.0000
30.6098 -59.3989 -40.0000
46.4530 -83.3324 -40.0000
28.0265 -16.5085 -40.0000
35.2751 -23.2039 -40.0000
37.4284 -4.2422 -40.0000
42.9358 -34.0142 -40.0000
36.5632 -60.2846 -40.0000
45.2547 -4.4647 -40.0000
46.0477 -56.8528 -40.0000
35.4006 -43.5780 -40.0000
42.8942 13.3646 -40.0000
31.6793 -10.8962 -40.0000
38.7550 -82.1767 -40.0000
23.0297 9.5461 -40.0000
39.1646 -61.5004 -40.0000
27.4541 -27.6974 -40.0000
35.4303 -0.9266 -40.0000
22.4743 -38.6539 -40.0000
31.4181 -1.8025 -40.0000
21.6584 2.6056 -40.0000
21.7452 -50.0319 -40.0000
28.1922 11.6050 -40.0000
20.3522 7.0610 -40.0000
21.8935 -16.6962 -40.0000
48.9576 -13.0825 -40.0000
49.9331 -73.5769 -40.0000
35.0290 -55.3167 -40.0000
40.1720 -51.8062 -40.0000
37.5011 -71.0850 -40.0000
46.4753 9.1682 -40.0000
34.8252 -3.3723 -40.0000
28.6963 13.7898 -40.0000
21.2031 -75.3504 -40.0000
22.2572 5.9901 -40.0000
41.2768 -67.1316 -40.0000
28.0491 -12.8350 -40.0000
45.3414 -47.2839 -40.0000
47.5817 -15.8176 -40.0000
33.8292 -84.7031 -40.0000
29.5571 -54.2591 -40.0000
44.9760 -45.9044 -40.0000
47.7796 -54.8779 -40.0000
32.6395 -30.5433 -40.0000
22.6964 11.3113 -40.0000
26.0374 -72.9917 -40.0000
28.5983 -16.2885 -40.0000
44.4673 -65.7421 -40.0000
22.4563 -80.6583 -40.0000
49.4735 12.7628 -40.0000
30.6746 -58.2191 -40.0000
20.7033 9.2236 -40.0000
47.0143 -7.0993 -40.0000
24.9558 -49.3479 -40.0000
33.7607 -25.9734 -40.0000
46.0904 -62.8998 -40.0000
41.6059 -63.0180 -40.0000
48.2064 -61.1316 -40.0000
27.5091 -51.1235 -40.0000
23.8560 -20.3666 -40.0000
48.1306 -66.2576 -40.0000
43.6568 -47.4980 -40.0000
22.4263 -11.8709 -40.0000
46.3861 -58.3551 -40.0000
35.9289 -72.0150 -40.0000
35.1502 -39.7906 -40.0000
25.8791 -49.8875 -40.0000
43.4587 -6.8861 -40.0000
25.1877 -16.8701 -40.0000
38.7872 6.7360 -40.0000
25.2769 -12.9535 -40.0000
33.1248 11.9960 -40.0000
26.8480 0.9907 -40.0000
31.6890 5.5134 -40.0000
27.1765 -72.0428 -40.0000
20.0775 2.9145 -40.0000
45.2988 -37.3558 -40.0000
27.9981 -83.1887 -40.0000
43.1376 -29.9500 -40.0000
