ply
format ascii 1.0
element vertex 1024
property float x
property float y
property float z
end_header
50.0000 6.5219 -4.6637
50.0000 8.1362 -22.1381
50.0000 -10.1572 7.8676
50.0000 -5.3462 24.8010
50.0000 11.1266 20.5783
50.0000 -13.7871 -27.2348
50.0000 4.8271 -5.9975
50.0000 -7.0729 26.0492
50.0000 10.5052 -27.1149
50.0000 7.1461 33.2932
50.0000 12.2165 -10.1812
50.0000 -3.5525 21.4783
50.0000 -1.6193 -3.1155
50.0000 14.8154 34.1961
50.0000 -6.9399 -37.9108
50.0000 8.2299 -7.3373
50.0000 11.1904 15.6225
50.0000 14.5385 -21.1548
50.0000 1.2059 -23.7253
50.0000 8.0320 20.2618
50.0000 7.0199 7.5827
50.0000 -14.0458 -24.9424
50.0000 -3.2631 21.6682
50.0000 5.9431 -7.3683
50.0000 -4.5819 39.1893
50.0000 -5.0514 9.5444
50.0000 1.0251 -2.6677
50.0000 9.1418 9.5028
50.0000 -6.7186 16.6180
50.0000 -13.9509 -17.6127
50.0000 6.5379 28.0077
50.0000 -3.1659 2.4787
50.0000 6.3553 -28.5960
50.0000 9.8937 -5.6342
50.0000 -3.5287 -4.8718
50.0000 12.3478 18.4106
50.0000 -6.8391 27.3881
50.0000 -13.3004 17.7994
50.0000 4.9298 31.6747
50.0000 2.2895 -21.4100
50.0000 8.7644 -8.2130
50.0000 9.2161 -3.2310
50.0000 -6.0739 8.7043
50.0000 4.2897 5.1285
50.0000 -0.6570 12.1046
50.0000 -1.3674 -6.6455
50.0000 4.5425 -37.7921
50.0000 -5.1363 39.2775
50.0000 3.9257 -6.2667
50.0000 -5.6127 34.6243
50.0000 -7.9637 -12.7287
50.0000 -6.3788 -30.6574
50.0000 11.6303 29.4629
50.0000 -2.0280 -3.6869
50.0000 1.7920 12.1007
50.0000 -1.3453 1.3115
50.0000 -1.4956 36.7208
50.0000 13.6585 -12.6013
50.0000 -10.3324 2.5377
50.0000 2.6282 34.2215
50.0000 0.0213 -21.3274
50.0000 12.3395 18.1521
50.0000 -13.0135 -19.5929
50.0000 -10.7890 -10.6276
50.0000 -3.1438 -38.1751
50.0000 -10.2981 -19.1848
50.0000 -1.4287 -31.9864
50.0000 -8.8784 -9.0031
50.0000 12.0843 29.2819
50.0000 -14.3404 -8.5766
50.0000 -11.5705 10.6738
50.0000 -7.2123 -28.2112
50.0000 -2.3572 -36.4141
50.0000 7.3371 13.5715
50.0000 -4.6997 5.1263
50.0000 10.1793 32.2710
50.0000 -11.2143 -37.9089
50.0000 -8.1799 -9.1900
50.0000 7.6858 -1.0759
50.0000 9.2309 -14.6958
50.0000 0.3443 -17.5430
50.0000 -0.8831 -6.4235
50.0000 14.8110 -8.0679
50.0000 -9.9076 -26.6260
50.0000 11.0720 -38.2094
50.0000 5.1937 -14.4007
-50.0000 3.0428 -38.0203
-50.0000 1.5882 -1.2168
-50.0000 -0.8949 -12.2373
-50.0000 -11.7338 26.9943
-50.0000 -6.5130 -38.2357
-50.0000 -6.4522 25.8006
-50.0000 4.0532 8.3387
-50.0000 8.6685 4.2414
-50.0000 0.9614 3.4822
-50.0000 -3.3948 26.2101
-50.0000 -3.8115 -21.5942
-50.0000 -3.6945 26.4393
-50.0000 9.5236 35.5654
-50.0000 3.0012 -9.5208
-50.0000 8.1941 -32.0461
-50.0000 13.3927 25.1283
-50.0000 10.1053 -16.5918
-50.0000 0.5319 -38.5931
-50.0000 -11.5171 -33.0675
-50.0000 -5.9638 11.6775
-50.0000 -9.2888 -25.1155
-50.0000 -2.9179 10.5888
-50.0000 -5.7321 -13.5150
-50.0000 -3.9288 -25.1076
-50.0000 -2.2926 -19.0817
-50.0000 -13.9673 -19.4874
-50.0000 -9.3175 5.3913
-50.0000 12.1508 -31.9352
-50.0000 6.3742 1.8248
-50.0000 11.5138 -30.4332
-50.0000 -13.8573 -24.0316
-50.0000 4.9233 -21.8850
-50.0000 4.9818 9.8947
-50.0000 4.4955 20.3428
-50.0000 -8.4384 -12.6201
-50.0000 1.5194 32.2086
-50.0000 11.8501 -19.4631
-50.0000 11.4948 33.7887
-50.0000 10.8187 6.9808
-50.0000 -8.6293 16.4539
-50.0000 -6.4930 26.0220
-50.0000 -4.2308 -23.9080
-50.0000 -9.2591 33.9559
-50.0000 10.6747 -10.4056
-50.0000 -10.1340 19.6587
-50.0000 9.7321 21.1861
-50.0000 -14.0589 21.6799
-50.0000 8.1815 -31.7690
-50.0000 -12.1532 -11.0212
-50.0000 2.4118 -14.9058
-50.0000 0.0334 14.5070
-50.0000 -13.5105 20.7765
-50.0000 -8.4508 -28.4912
-50.0000 4.1378 -34.3141
-50.0000 -10.5469 5.8500
-50.0000 -0.0570 30.8616
-50.0000 14.9548 29.6297
-50.0000 0.5215 -15.7356
-50.0000 14.5506 16.9238
-50.0000 -6.5990 -6.3407
-50.0000 -9.4071 2.8621
-50.0000 6.6395 36.8244
-50.0000 5.9919 -29.3809
-50.0000 8.1412 -31.8656
-50.0000 10.9310 30.9605
-50.0000 -5.0211 -27.6203
-50.0000 10.1623 28.0415
-50.0000 -1.9626 18.7998
-50.0000 5.7245 -16.4342
-50.0000 9.7843 -23.2320
-50.0000 -8.5546 -0.1793
-50.0000 -8.9648 -32.9683
-50.0000 1.5362 19.3817
-50.0000 -12.3448 1.5617
-50.0000 -6.8429 25.2767
-50.0000 -0.8687 -24.4268
-50.0000 -13.4058 39.0294
-50.0000 -13.4519 -7.8815
-50.0000 11.4168 -10.2608
-50.0000 4.1569 -1.5489
-50.0000 13.8086 -20.1751
-50.0000 -0.2967 14.7549
-50.0000 -3.5365 -38.6408
-50.0000 -4.6010 34.8495
-50.0000 -8.1497 -32.3205
-50.0000 -3.5865 33.3998
3.2985 15.0000 -29.1236
-28.8167 15.0000 -0.8053
-11.8300 15.0000 10.4618
12.0093 15.0000 27.0121
15.3985 15.0000 34.7517
2.2310 15.0000 -14.3990
14.4458 15.0000 -38.5727
8.5778 15.0000 -35.1949
-34.2797 15.0000 38.8457
-14.8947 15.0000 -10.7173
4.1524 15.0000 -4.2821
-34.4164 15.0000 1.7151
13.7933 15.0000 21.1990
-40.2051 15.0000 -22.1553
-11.5416 15.0000 -4.5538
-38.3088 15.0000 -39.0858
44.9700 15.0000 -12.3851
-7.0604 15.0000 27.7915
27.1663 15.0000 13.4364
33.8537 15.0000 -12.0727
-39.5768 15.0000 -36.9428
8.8775 15.0000 25.9582
-6.3219 15.0000 19.3594
38.4611 15.0000 17.9475
-9.9345 15.0000 3.8394
-49.1548 15.0000 37.9931
-49.1565 15.0000 2.9458
48.5424 15.0000 26.9473
42.6567 15.0000 -38.3110
49.8236 15.0000 4.6684
23.0232 15.0000 35.0119
-38.4269 15.0000 -27.3545
2.1105 15.0000 -39.9991
-22.5007 15.0000 33.2206
-1.3972 15.0000 5.7488
8.3592 15.0000 7.4819
8.0680 15.0000 -35.1229
13.8484 15.0000 13.6077
-3.8857 15.0000 -39.0307
30.2810 15.0000 -34.2483
17.7007 15.0000 -14.8993
31.7463 15.0000 -17.8665
-8.5838 15.0000 3.7959
3.6395 15.0000 -24.8103
28.6859 15.0000 10.4409
40.6615 15.0000 -9.7543
34.3246 15.0000 -24.7718
36.5158 15.0000 -29.9801
-6.5478 15.0000 39.0499
17.0316 15.0000 24.5138
35.5396 15.0000 -9.0842
-19.5612 15.0000 36.7855
33.8076 15.0000 -25.7742
-38.6429 15.0000 11.8847
-32.2098 15.0000 22.1651
-32.4852 15.0000 -18.5692
24.6841 15.0000 31.5359
8.3340 15.0000 22.7866
-9.6934 15.0000 11.6346
36.9075 15.0000 37.9047
-48.7723 15.0000 22.3040
-29.7733 15.0000 -0.2194
-6.8931 15.0000 -37.3237
-13.6366 15.0000 13.8726
-29.8044 15.0000 -24.0670
43.5028 15.0000 -32.4620
-30.8258 15.0000 39.8593
-9.2273 15.0000 -35.9360
7.4523 15.0000 0.4495
42.1522 15.0000 17.7882
23.5743 15.0000 -30.2127
-35.4243 15.0000 12.3491
33.4922 15.0000 15.4739
25.7020 15.0000 -36.5990
-21.7696 15.0000 -31.1458
14.9613 15.0000 8.6998
3.5141 15.0000 36.8431
-8.1370 15.0000 8.4287
-8.0758 15.0000 -19.2885
27.2065 15.0000 28.2939
-19.8837 15.0000 0.3533
47.9772 15.0000 3.8565
9.0107 15.0000 4.6572
-31.6448 15.0000 -0.2947
0.5909 15.0000 37.6280
-28.2528 -15.0000 -34.3276
39.4939 -15.0000 -6.1107
44.0117 -15.0000 9.2313
-18.4957 -15.0000 -27.8429
26.8691 -15.0000 -34.8821
15.5304 -15.0000 -24.0461
-20.8068 -15.0000 -5.9998
6.0426 -15.0000 -17.2558
13.3758 -15.0000 -38.2313
-41.8392 -15.0000 29.2493
32.8827 -15.0000 1.2402
-23.5977 -15.0000 14.5976
13.0813 -15.0000 -28.2176
-17.5576 -15.0000 23.0723
29.6499 -15.0000 -12.1601
20.4339 -15.0000 20.4589
36.4222 -15.0000 37.7915
-1.7124 -15.0000 -13.0464
-14.8511 -15.0000 25.4699
-38.8114 -15.0000 -19.2313
-47.6574 -15.0000 8.0050
21.3731 -15.0000 5.7723
-15.8603 -15.0000 39.3409
-16.5115 -15.0000 -25.3152
49.7423 -15.0000 8.0654
33.4951 -15.0000 -10.8600
31.3026 -15.0000 -8.1788
17.0352 -15.0000 -23.4092
31.5496 -15.0000 -32.6053
-23.5256 -15.0000 -31.6091
-2.8479 -15.0000 -26.8643
-43.1818 -15.0000 -10.9920
-41.6657 -15.0000 -11.8487
-26.5544 -15.0000 17.7584
32.8138 -15.0000 19.9933
40.3856 -15.0000 -9.1631
-14.1213 -15.0000 -12.0560
-47.2038 -15.0000 -0.3706
-49.0776 -15.0000 -28.4195
-45.5197 -15.0000 -27.0505
2.8588 -15.0000 -31.3615
37.3076 -15.0000 -11.2355
-46.6918 -15.0000 -23.8311
-33.1397 -15.0000 12.1867
29.6269 -15.0000 24.4019
-14.1161 -15.0000 -28.0674
-48.3833 -15.0000 -32.8731
-47.0666 -15.0000 32.3959
12.2559 -15.0000 -15.7894
9.8726 -15.0000 0.1538
21.8034 -15.0000 9.7257
-0.7440 -15.0000 22.0073
15.3566 -15.0000 -24.4086
40.9970 -15.0000 -15.8844
-16.7092 -15.0000 -13.3139
23.1539 -15.0000 11.9079
38.4254 -15.0000 16.9200
46.5468 -15.0000 -26.7341
10.3593 -15.0000 -38.9311
13.8886 -15.0000 12.3373
-49.4387 -15.0000 29.5460
-26.0442 -15.0000 33.8360
-15.1743 -15.0000 17.4682
2.0698 -15.0000 27.1058
-17.2582 -15.0000 39.2760
-2.4608 -15.0000 16.7953
-49.4288 -15.0000 -39.1051
-7.9573 -15.0000 0.5642
32.1142 -15.0000 -1.6184
36.9477 -15.0000 -37.6235
-11.5077 -15.0000 -38.9464
11.3705 -15.0000 -10.5401
-35.4559 -15.0000 5.5117
-1.2364 -15.0000 -10.2035
-19.7560 -15.0000 0.4919
44.6044 -15.0000 -2.4320
-6.7429 -15.0000 5.5643
23.7570 -15.0000 -25.0162
0.5836 -15.0000 23.9449
-7.7240 -15.0000 -28.1251
20.5031 -15.0000 -29.1304
22.0001 -15.0000 -29.0724
47.3552 -15.0000 22.4959
3.0761 -15.0000 11.4598
-2.9597 -15.0000 -17.7956
-33.2249 -5.1850 40.0000
17.0082 4.3587 40.0000
31.7389 4.4461 40.0000
17.9070 5.1429 40.0000
-0.3906 -6.4437 40.0000
5.7415 13.4038 40.0000
-28.4633 -4.5404 40.0000
40.7266 13.7003 40.0000
4.3436 -10.6447 40.0000
-4.9615 14.4234 40.0000
-14.7800 -8.4754 40.0000
-33.8324 -13.6515 40.0000
4.5193 3.5052 40.0000
30.0169 5.6259 40.0000
24.1367 8.2119 40.0000
16.7252 -0.3163 40.0000
-21.0957 -5.4682 40.0000
-40.8191 -3.6715 40.0000
44.3573 -10.8133 40.0000
39.5346 5.1290 40.0000
7.0757 -5.2396 40.0000
22.9304 2.5099 40.0000
-28.0782 13.8665 40.0000
-24.8242 4.8033 40.0000
-34.8893 8.9840 40.0000
-9.4670 -3.5115 40.0000
36.2090 6.3739 40.0000
-39.6397 6.8639 40.0000
23.9007 -0.4339 40.0000
17.7175 0.9219 40.0000
-37.7367 9.3247 40.0000
22.8583 8.9004 40.0000
-20.6949 -6.0822 40.0000
-8.5563 11.2348 40.0000
-27.3490 -10.3430 40.0000
-1.0880 5.2757 40.0000
-42.5337 14.7339 40.0000
-47.0682 -12.8332 40.0000
-16.8499 2.9162 40.0000
40.4157 -13.8362 40.0000
-7.7470 -3.3918 40.0000
16.9073 2.9286 40.0000
-47.3224 7.6904 40.0000
48.6173 12.3726 40.0000
31.3045 -9.1466 40.0000
-31.5002 10.7894 40.0000
46.1940 2.0394 40.0000
-33.6682 5.8453 40.0000
44.7219 12.7919 40.0000
33.4449 -5.8017 40.0000
8.0505 4.5211 40.0000
-2.0640 6.8492 40.0000
41.5601 -1.7850 40.0000
33.8653 -12.9288 40.0000
20.5832 14.5818 40.0000
27.9971 7.2576 40.0000
-29.3232 -12.8860 40.0000
11.9378 10.5644 40.0000
28.4771 -0.0739 40.0000
-38.3702 13.1606 40.0000
47.8096 5.3557 40.0000
17.1202 13.0486 40.0000
4.5701 5.5709 40.0000
2.6096 -3.7873 40.0000
-49.2915 -11.4262 40.0000
-33.7728 -6.5580 40.0000
15.8081 -12.8543 40.0000
7.3740 4.3574 40.0000
-32.0970 -9.1263 40.0000
-16.1632 3.1549 40.0000
-40.8095 7.4142 40.0000
46.4651 -5.4115 40.0000
-32.2313 12.9700 40.0000
27.3124 9.4006 40.0000
13.3268 -8.7383 40.0000
-7.3520 11.4487 40.0000
15.9934 -8.8598 40.0000
42.9826 -11.5632 40.0000
-17.1064 -10.2782 40.0000
42.9988 9.9342 40.0000
11.7933 12.1266 40.0000
-10.8123 -11.4841 40.0000
-27.2333 -12.0340 40.0000
-11.5793 8.3505 40.0000
32.5699 2.9716 40.0000
2.5036 -14.4797 -40.0000
49.4340 4.6031 -40.0000
25.4097 1.7261 -40.0000
37.3987 -8.5239 -40.0000
-22.1802 14.4172 -40.0000
7.3128 1.0799 -40.0000
3.3517 -10.4528 -40.0000
29.8669 14.6309 -40.0000
39.7217 -3.6311 -40.0000
2.9530 -5.2411 -40.0000
-24.0605 10.2913 -40.0000
46.0547 9.3923 -40.0000
37.4797 6.6408 -40.0000
-43.6282 -9.3700 -40.0000
-33.2058 -7.3075 -40.0000
-8.0916 2.9774 -40.0000
2.7690 -12.5314 -40.0000
3.1154 7.3810 -40.0000
16.6130 12.3421 -40.0000
-25.3619 10.3780 -40.0000
-24.8805 4.2982 -40.0000
-27.6357 -5.8373 -40.0000
-30.2414 9.6383 -40.0000
-7.5948 12.1079 -40.0000
-38.2177 -1.5709 -40.0000
-25.2262 -5.9300 -40.0000
-32.2490 9.5225 -40.0000
-15.8860 -8.6716 -40.0000
-29.7413 -8.5520 -40.0000
16.1101 -2.3842 -40.0000
38.7470 -9.5532 -40.0000
35.9129 5.4509 -40.0000
-33.3982 -5.2329 -40.0000
11.1380 4.5927 -40.0000
23.9005 -10.1472 -40.0000
35.0232 11.1657 -40.0000
22.0820 -14.6402 -40.0000
20.4565 9.7925 -40.0000
-32.6298 1.8561 -40.0000
-18.9569 6.8996 -40.0000
-11.5954 -5.7232 -40.0000
17.1137 1.5731 -40.0000
20.2041 -11.4641 -40.0000
42.4915 0.5477 -40.0000
12.7846 -13.9173 -40.0000
35.1367 1.1253 -40.0000
3.7359 -10.1880 -40.0000
-0.4876 6.7589 -40.0000
-36.6282 -11.4960 -40.0000
37.2910 10.4549 -40.0000
-22.2171 -8.0460 -40.0000
44.7510 2.5921 -40.0000
14.0161 -3.1976 -40.0000
-3.4321 -13.5883 -40.0000
40.4094 -1.1317 -40.0000
0.0441 -1.3600 -40.0000
48.8102 -7.1492 -40.0000
47.4052 -10.0602 -40.0000
26.1526 2.3576 -40.0000
-22.3167 12.7168 -40.0000
-3.4504 -7.0516 -40.0000
6.0143 3.9166 -40.0000
46.3167 -10.3057 -40.0000
-44.3039 -2.1729 -40.0000
45.9199 0.7102 -40.0000
27.8175 -10.8868 -40.0000
-39.7081 -6.2079 -40.0000
-45.1588 10.7863 -40.0000
36.4083 -2.8222 -40.0000
-33.9579 4.0299 -40.0000
28.4396 -7.4967 -40.0000
24.9474 -11.8479 -40.0000
7.1971 -7.1515 -40.0000
-33.9696 0.5222 -40.0000
-4.4016 -3.7143 -40.0000
-23.0323 5.7677 -40.0000
-21.4642 10.1798 -40.0000
41.3114 -14.7520 -40.0000
42.2030 1.3577 -40.0000
-37.7174 13.9374 -40.0000
17.8317 13.3792 -40.0000
22.5801 -3.7402 -40.0000
-16.1232 0.6825 -40.0000
-49.3089 1.0644 -40.0000
31.0400 -7.2091 -40.0000
50.0000 -27.5224 -37.8025
50.0000 -3.8705 5.1349
50.0000 -59.8437 27.3821
50.0000 -73.9174 25.6857
50.0000 -46.5520 -28.3630
50.0000 -59.3132 -29.7559
50.0000 -14.9145 -4.5891
50.0000 -82.2174 24.2453
50.0000 -26.6184 2.5247
50.0000 -15.1499 38.0122
50.0000 -84.7062 -16.8939
50.0000 -76.8079 -2.4610
50.0000 -70.9428 8.9185
50.0000 -52.9995 -26.4489
50.0000 -48.1972 24.1550
50.0000 -83.3937 -15.3805
50.0000 -8.0262 -3.0397
50.0000 -8.3657 30.8335
50.0000 -28.8112 29.2292
50.0000 -72.5362 37.1825
50.0000 -16.5666 35.4123
50.0000 -0.9275 -4.2654
50.0000 -32.6753 5.8216
50.0000 -38.8764 -39.0351
50.0000 -50.0737 37.5371
50.0000 -74.6572 -32.9138
50.0000 -28.6569 15.8069
50.0000 -9.7342 -26.7645
50.0000 -13.9190 -34.3764
50.0000 -84.7399 -35.0755
50.0000 -1.7176 0.9191
50.0000 -68.4952 36.3345
50.0000 12.0820 29.4895
50.0000 -35.3346 18.5109
50.0000 -0.9927 -4.0979
50.0000 -57.7758 7.1985
50.0000 -66.7950 -16.7113
50.0000 -55.3174 -1.2985
50.0000 -45.1194 15.6409
50.0000 -59.8148 -10.0065
50.0000 -52.5341 33.0689
50.0000 -76.8138 -7.6823
50.0000 -19.8365 22.9239
50.0000 -79.9698 -21.5266
50.0000 -36.3528 1.8138
50.0000 -23.6150 38.4098
50.0000 -82.7337 -4.3776
50.0000 12.2192 -22.8089
50.0000 -36.2595 -19.6726
50.0000 -52.3520 36.4045
50.0000 -58.2871 -20.4421
50.0000 -35.5755 4.0138
50.0000 -30.6639 38.8930
50.0000 -42.1739 11.6436
50.0000 -55.7475 -29.3735
50.0000 -82.5880 -8.1084
50.0000 -51.2827 32.9322
50.0000 -47.0414 -28.3234
50.0000 -77.8859 17.4209
50.0000 -9.5678 39.6906
50.0000 -19.3189 11.0492
50.0000 -77.7331 -27.7782
50.0000 -2.7148 -17.8184
50.0000 -38.3204 9.5865
50.0000 -47.5296 -36.6709
50.0000 -5.5532 -0.0322
50.0000 -16.6857 32.8803
50.0000 -23.9137 31.0391
50.0000 -12.1622 -13.1517
50.0000 7.6419 23.3952
50.0000 -17.7678 8.8139
50.0000 10.0679 -10.0095
50.0000 -68.4002 15.3980
50.0000 -43.6462 21.9608
50.0000 -0.2942 -39.6476
50.0000 2.8189 27.3686
50.0000 1.6198 -15.9365
50.0000 2.7890 5.5750
50.0000 -78.6207 -6.7563
50.0000 -45.5159 -12.2064
50.0000 -27.4471 -24.5682
50.0000 -43.2970 -20.7158
50.0000 -26.9308 37.5702
50.0000 -75.8740 -1.9673
50.0000 -49.2473 -7.2320
50.0000 -76.4858 -14.0011
20.0000 -76.8528 9.8291
20.0000 -9.7267 27.7658
20.0000 -29.5002 13.0679
20.0000 -21.9301 -13.8506
20.0000 -30.0645 -25.3663
20.0000 -7.4657 -30.8233
20.0000 1.0981 23.1724
20.0000 -68.6322 -39.6907
20.0000 -7.9144 -18.9691
20.0000 -83.4951 1.1306
20.0000 -35.5627 0.6976
20.0000 6.0051 -11.1701
20.0000 -68.2810 2.3103
20.0000 -54.9712 0.7973
20.0000 4.7497 2.6654
20.0000 13.3167 10.2744
20.0000 -25.8849 5.0979
20.0000 10.7464 -0.5444
20.0000 -0.5202 -3.3526
20.0000 -43.9057 26.6318
20.0000 -79.0290 32.1540
20.0000 -15.7818 36.0453
20.0000 5.4477 25.8896
20.0000 -43.1528 -8.6601
20.0000 -0.9470 36.9167
20.0000 -27.0135 33.7106
20.0000 14.8676 28.7919
20.0000 6.0462 28.6685
20.0000 -36.7744 15.5451
20.0000 -65.6090 11.6284
20.0000 -71.3452 -5.0155
20.0000 -73.9024 -5.6140
20.0000 -22.5687 -32.4147
20.0000 8.6405 -5.5100
20.0000 -72.7904 -28.7193
20.0000 -22.9624 -6.2786
20.0000 -29.9437 30.5901
20.0000 -38.2181 2.5451
20.0000 -68.9794 -5.1810
20.0000 -36.8011 7.2919
20.0000 -46.6073 -13.1554
20.0000 10.0263 -3.7023
20.0000 1.6450 -38.2030
20.0000 -32.5674 10.9792
20.0000 -25.7957 26.0676
20.0000 -48.6545 39.4841
20.0000 -45.7410 30.7046
20.0000 -52.4150 -38.8980
20.0000 -68.4218 -25.3615
20.0000 7.6489 -22.5020
20.0000 -70.5968 -27.8053
20.0000 -24.5263 11.5036
20.0000 -31.3053 8.5091
20.0000 -1.6722 39.1781
20.0000 -73.8218 -30.1738
20.0000 -60.8489 31.9892
20.0000 -4.1217 -10.9189
20.0000 -10.1765 10.1757
20.0000 -77.9228 3.2049
20.0000 12.5897 -6.3203
20.0000 -38.1670 -10.0430
20.0000 7.7903 38.8828
20.0000 -2.2015 -29.1978
20.0000 -9.1676 -15.6245
20.0000 -37.4776 19.3681
20.0000 -10.8655 1.4450
20.0000 -59.1568 33.9857
20.0000 -45.0942 -5.9204
20.0000 -70.7689 -18.1425
20.0000 12.4659 -10.9776
20.0000 -12.5380 36.2259
20.0000 -74.6498 -34.6508
20.0000 -32.4188 -25.0079
20.0000 -79.0779 -10.2508
20.0000 -48.5789 -30.3052
20.0000 -20.3977 3.2504
20.0000 -37.4019 2.3965
20.0000 -60.1527 12.2904
20.0000 -84.5730 -23.6659
20.0000 5.9546 26.3841
20.0000 -40.7923 21.3404
20.0000 -21.8930 -36.5524
20.0000 -19.2235 -37.5793
20.0000 -82.7634 -17.8314
20.0000 -23.8077 -7.0111
20.0000 -9.9506 -36.9848
27.1696 15.0000 -37.5242
32.1375 15.0000 -20.6126
36.7304 15.0000 -18.0481
48.3591 15.0000 38.0508
40.2098 15.0000 -20.7636
20.6585 15.0000 -19.1420
25.7890 15.0000 28.5265
45.4351 15.0000 15.7443
44.4782 15.0000 7.0290
21.0376 15.0000 0.8701
39.5422 15.0000 -23.9824
38.1357 15.0000 -38.7830
39.0840 15.0000 12.1202
48.9316 15.0000 39.3529
44.3625 15.0000 -17.3999
31.6887 15.0000 9.2344
38.7339 15.0000 21.8705
41.2992 15.0000 -28.9779
42.8870 15.0000 -33.6831
28.1732 15.0000 -38.0592
26.3016 15.0000 -24.6596
44.6041 15.0000 -23.1300
30.2432 15.0000 9.3020
37.9554 15.0000 -11.0559
29.3079 15.0000 21.9988
40.0261 15.0000 -15.5094
39.6245 15.0000 -6.0390
26.5487 15.0000 -38.4060
28.3583 15.0000 3.2028
35.4647 15.0000 -19.2321
44.9458 15.0000 -16.3490
42.5975 15.0000 -24.2730
26.6794 15.0000 -16.4851
24.6667 15.0000 8.0347
30.6653 15.0000 16.7495
23.7129 15.0000 38.3153
35.3104 15.0000 -33.5490
31.3415 15.0000 0.3203
38.9995 15.0000 28.9131
23.4723 15.0000 4.7499
36.5039 15.0000 -14.8140
29.8597 15.0000 34.3644
37.5311 15.0000 -28.8431
43.8985 15.0000 -8.5073
41.7215 15.0000 -13.3425
34.8007 15.0000 -35.2492
45.8410 15.0000 -7.1601
32.6471 15.0000 27.9277
23.2651 15.0000 -27.5894
46.5910 15.0000 37.9697
23.1764 15.0000 -9.8007
32.8669 15.0000 -23.5032
22.1812 15.0000 -30.9104
40.3132 15.0000 36.3732
21.1578 15.0000 -34.5881
40.0745 15.0000 -24.4029
34.3182 15.0000 -36.9519
46.8688 15.0000 -34.3320
23.4259 15.0000 32.7456
28.5488 15.0000 -23.1802
32.2371 15.0000 -38.2503
26.2590 15.0000 30.0101
27.4742 15.0000 -27.2968
29.0126 15.0000 22.6104
28.4732 15.0000 -7.4099
21.7709 15.0000 22.8317
36.1230 15.0000 36.1191
22.9183 15.0000 -10.6145
35.2826 15.0000 18.7315
25.8982 15.0000 -23.0644
36.0222 15.0000 32.2765
37.6838 15.0000 23.9107
36.8394 15.0000 38.6118
49.8290 15.0000 25.2040
33.0942 15.0000 26.2338
25.4137 15.0000 3.9591
45.3856 15.0000 -13.8401
29.9868 15.0000 26.0453
28.5725 15.0000 15.1999
48.8073 15.0000 32.5102
43.6131 15.0000 -27.3422
38.4774 15.0000 29.7124
29.7110 15.0000 -31.0420
28.9101 15.0000 39.2734
26.5925 15.0000 22.5201
24.9336 -85.0000 20.3858
47.0651 -85.0000 29.4885
35.4088 -85.0000 -16.4503
47.2480 -85.0000 3.0560
21.0040 -85.0000 -33.0716
32.2186 -85.0000 18.5285
36.7242 -85.0000 -27.2205
46.3818 -85.0000 -29.6905
21.8086 -85.0000 25.4993
22.7964 -85.0000 32.9970
41.6327 -85.0000 7.8006
48.3443 -85.0000 -18.4693
24.9459 -85.0000 1.0155
42.9076 -85.0000 27.9244
23.4533 -85.0000 -23.1939
24.7401 -85.0000 26.3609
42.2929 -85.0000 -19.0762
43.8676 -85.0000 5.2672
48.7746 -85.0000 29.2319
36.9449 -85.0000 -25.4183
29.8191 -85.0000 -30.7712
39.4976 -85.0000 10.2817
36.9092 -85.0000 -38.6255
21.3105 -85.0000 -32.3593
42.3102 -85.0000 -6.0944
47.5623 -85.0000 32.1819
29.9671 -85.0000 -0.7077
21.8097 -85.0000 35.2873
44.5767 -85.0000 9.2174
45.4122 -85.0000 -35.0694
49.3340 -85.0000 -2.8197
27.2714 -85.0000 -34.0146
40.2279 -85.0000 38.4077
35.1297 -85.0000 -15.3015
27.4229 -85.0000 17.6778
41.0666 -85.0000 6.5465
49.3205 -85.0000 8.8942
21.5549 -85.0000 -11.1458
26.7452 -85.0000 9.0102
26.4891 -85.0000 -9.9412
40.5997 -85.0000 5.8676
45.6028 -85.0000 -27.7755
29.7101 -85.0000 19.7456
25.2110 -85.0000 -35.2898
31.9223 -85.0000 -5.6340
38.8444 -85.0000 33.4442
31.9830 -85.0000 0.8841
21.7912 -85.0000 -13.1509
22.1219 -85.0000 10.9362
36.5076 -85.0000 -36.4412
21.8007 -85.0000 -12.8715
30.5856 -85.0000 -20.8497
49.2195 -85.0000 7.9676
29.4298 -85.0000 -3.5024
30.2879 -85.0000 33.9238
47.2219 -85.0000 3.3990
25.9834 -85.0000 -24.3850
48.8626 -85.0000 14.4731
36.4959 -85.0000 35.2425
24.2765 -85.0000 18.0778
22.9724 -85.0000 4.5942
39.5054 -85.0000 24.7363
26.6537 -85.0000 -3.4513
28.5916 -85.0000 -22.4049
40.4673 -85.0000 -27.5441
21.6987 -85.0000 -18.3964
46.0105 -85.0000 35.2519
33.7302 -85.0000 34.4894
27.0128 -85.0000 31.1552
23.7768 -85.0000 9.8253
46.7131 -85.0000 20.1274
46.4803 -85.0000 -34.5467
35.3086 -85.0000 25.9337
47.4320 -85.0000 12.7666
43.2778 -85.0000 6.7089
35.9949 -85.0000 26.5546
42.3373 -85.0000 -36.5686
39.3114 -85.0000 16.3377
28.2149 -85.0000 -22.0322
41.3274 -85.0000 -6.4584
24.1806 -85.0000 17.9320
25.3972 -85.0000 21.4696
30.5286 -85.0000 36.1408
21.1632 -85.0000 -15.6702
41.9196 -85.0000 30.2236
33.0683 0.4181 40.0000
21.6468 -64.8350 40.0000
27.6996 -83.1539 40.0000
25.0199 -28.8539 40.0000
49.6377 -81.4376 40.0000
45.5542 -14.5008 40.0000
31.1004 -30.2440 40.0000
31.4451 -62.3992 40.0000
40.8487 -57.0386 40.0000
33.4459 -82.1640 40.0000
42.5587 11.8864 40.0000
39.8452 -54.9818 40.0000
27.9587 14.0627 40.0000
24.7696 -67.5098 40.0000
32.4854 4.1070 40.0000
27.9697 -66.2723 40.0000
47.6216 -17.6200 40.0000
20.4090 -36.2895 40.0000
26.5540 0.4059 40.0000
41.3704 5.8924 40.0000
37.3658 3.8492 40.0000
35.6527 -30.7895 40.0000
27.8487 13.1950 40.0000
45.7082 -19.3084 40.0000
34.8629 -3.7479 40.0000
33.8655 -26.0582 40.0000
46.9807 -52.0506 40.0000
22.0594 -65.0254 40.0000
26.6967 -61.9106 40.0000
21.0893 -83.1121 40.0000
40.5040 -77.1717 40.0000
20.4003 -14.9171 40.0000
29.4357 -56.5269 40.0000
35.8166 -19.6748 40.0000
37.7676 -17.9698 40.0000
48.3498 -40.5539 40.0000
41.2528 -62.0097 40.0000
33.1756 -54.0740 40.0000
32.7465 8.5329 40.0000
35.5012 -19.0444 40.0000
23.5227 -28.0792 40.0000
42.3531 -32.2240 40.0000
37.3969 -18.4529 40.0000
44.6138 -70.7764 40.0000
32.8991 -55.5727 40.0000
48.1649 -20.8658 40.0000
25.6406 -9.6270 40.0000
25.7374 -81.8549 40.0000
48.2235 -49.9257 40.0000
32.0110 -20.6215 40.0000
40.0726 -66.4913 40.0000
39.2575 -44.6232 40.0000
28.2012 -36.1647 40.0000
27.2226 -0.9394 40.0000
32.0845 -83.3453 40.0000
30.8942 -76.9873 40.0000
45.8335 8.7992 40.0000
23.9055 11.4386 40.0000
33.1204 -47.0137 40.0000
24.4426 -26.6969 40.0000
36.5688 -75.5947 40.0000
23.0060 -82.2089 40.0000
38.7843 -68.3000 40.0000
42.1957 -0.6820 40.0000
40.8736 -49.4486 40.0000
45.7025 -51.4173 40.0000
29.5692 8.7965 40.0000
28.3038 -65.5650 40.0000
35.6518 9.0548 40.0000
23.6578 -38.2799 40.0000
22.1269 -11.8766 40.0000
49.6968 -79.7748 40.0000
47.9093 -49.7101 40.0000
39.8893 -65.1852 40.0000
45.5044 -38.7092 40.0000
22.2601 -46.6850 40.0000
36.5658 -27.8898 40.0000
28.4636 14.3046 40.0000
27.8241 -73.8334 40.0000
45.1932 -16.9322 40.0000
45.7441 -59.8664 40.0000
43.2405 -0.5762 40.0000
23.6413 -70.9303 40.0000
43.8005 -27.0971 40.0000
29.2060 -0.9691 40.0000
37.3225 -0.3803 -40.0000
39.4738 -17.4712 -40.0000
28.1614 13.1251 -40.0000
44.0214 -19.6297 -40.0000
43.5543 -32.0452 -40.0000
33.9275 -23.8518 -40.0000
22.8299 -27.4455 -40.0000
31.0714 -12.3511 -40.0000
25.4086 -4.9834 -40.0000
48.5217 10.9888 -40.0000
30.4606 -49.6568 -40.0000
27.4249 -45.7513 -40.0000
47.3455 -27.5778 -40.0000
44.8943 8.8457 -40.0000
29.9839 12.3648 -40.0000
34.6680 -38.3133 -40.0000
33.5546 -52.7430 -40.0000
45.5319 -43.6180 -40.0000
37.8069 -20.2200 -40.0000
26.9594 -48.7548 -40.0000
48.8639 -30.8654 -40.0000
22.0653 -35.9069 -40.0000
43.8569 -67.1645 -40.0000
27.2064 -11.7489 -40.0000
27.7533 -71.5025 -40.0000
36.3118 -75.4561 -40.0000
48.3087 -24.1283 -40.0000
21.2417 -65.0733 -40.0000
38.7803 -28.9607 -40.0000
40.2302 -37.6599 -40.0000
27.3801 -49.1356 -40.0000
38.0446 -77.0331 -40.0000
47.0049 -39.8191 -40.0000
33.9583 2.9229 -40.0000
37.5037 -24.5091 -40.0000
27.3806 -58.6625 -40.0000
27.4971 -21.8978 -40.0000
26.4290 -12.5079 -40.0000
27.0725 -12.7153 -40.0000
30.5915 -59.8184 -40.0000
23.2061 -58.0306 -40.0000
42.3646 -68.8816 -40.0000
44.3302 -1.5566 -40.0000
28.4473 -49.9366 -40.0000
35.2749 2.9259 -40.0000
25.8353 -4.8157 -40.0000
27.9397 -60.3013 -40.0000
35.6101 -49.4874 -40.0000
24.3581 -44.0725 -40.0000
27.4104 -15.8909 -40.0000
41.4394 -23.3648 -40.0000
24.7942 -74.8294 -40.0000
27.9790 -15.9418 -40.0000
32.8137 -26.5681 -40.0000
20.2327 10.4479 -40.0000
36.1171 -63.4345 -40.0000
27.9888 -48.2456 -40.0000
28.0109 -33.8849 -40.0000
32.4306 -8.9990 -40.0000
28.4470 -9.7470 -40.0000
42.5950 -52.1742 -40.0000
38.3810 -9.7207 -40.0000
43.0694 -53.5536 -40.0000
33.7961 -73.1820 -40.0000
20.9061 -56.6484 -40.0000
32.2159 -1.3201 -40.0000
37.9754 -63.8565 -40.0000
36.3404 -44.3638 -40.0000
25.4099 -4.0469 -40.0000
44.0649 -68.6996 -40.0000
44.9233 -65.8358 -40.0000
42.6469 -49.0793 -40.0000
20.1037 -20.4917 -40.0000
46.3793 -75.7399 -40.0000
45.0912 -42.6381 -40.0000
27.6596 -37.2673 -40.0000
21.6437 -30.9616 -40.0000
39.6326 -33.9101 -40.0000
45.9680 2.3971 -40.0000
30.3781 -77.5541 -40.0000
37.1883 -28.6032 -40.0000
43.6423 -38.7337 -40.0000
42.4506 -20.9449 -40.0000
37.2290 2.5297 -40.0000
22.1254 -33.2060 -40.0000
