ply
format ascii 1.0
element vertex 1024
property float x
property float y
property float z
end_header
50.0000 -6.8495 14.9030
50.0000 11.7356 17.3838
50.0000 -12.7236 -8.0412
50.0000 5.5488 -22.6581
50.0000 -11.8527 -24.6716
50.0000 1.8991 3.9791
50.0000 -12.9345 -1.4872
50.0000 -0.3054 -26.0319
50.0000 12.4677 16.9142
50.0000 -1.9452 4.8499
50.0000 14.8975 1.2568
50.0000 3.3547 -23.0328
50.0000 -11.3529 -8.3903
50.0000 6.4471 -11.9597
50.0000 13.5453 19.6913
50.0000 8.3655 7.7983
50.0000 0.4221 -16.5352
50.0000 2.8860 -20.5564
50.0000 9.4917 18.3350
50.0000 6.7460 8.4488
50.0000 6.5690 -18.3397
50.0000 7.5138 29.2667
50.0000 -5.0024 -20.9161
50.0000 -9.6123 -4.5820
50.0000 -5.9808 2.5994
50.0000 10.9918 -10.0948
50.0000 -4.1176 -3.8662
50.0000 -1.9724 0.5419
50.0000 -0.1991 14.2809
50.0000 14.1675 29.8373
50.0000 7.3549 -25.2186
50.0000 -13.2949 -17.3903
50.0000 -10.9579 1.8298
50.0000 -2.2849 -3.7920
50.0000 13.5195 0.5385
50.0000 -0.2208 2.2446
50.0000 -6.6467 -2.5228
50.0000 -8.6947 -10.7915
50.0000 11.5042 22.7006
50.0000 5.7711 -9.5603
50.0000 -14.6798 -6.3520
50.0000 -2.9127 20.0698
50.0000 11.9084 11.0593
50.0000 8.8000 21.9891
50.0000 -4.3354 4.0269
50.0000 -8.1181 -10.3067
50.0000 -1.4633 -5.5165
50.0000 -8.6890 17.0729
50.0000 4.4409 -25.7751
50.0000 -13.0414 18.1042
50.0000 4.3859 -15.0247
50.0000 -14.6757 -6.3169
50.0000 -13.0595 -1.5746
50.0000 3.2085 0.6648
50.0000 6.8617 15.7068
50.0000 6.8333 -22.8500
50.0000 2.7759 27.8483
50.0000 -0.9894 -25.6734
50.0000 9.4841 -24.5066
50.0000 2.3429 -16.3784
50.0000 0.6226 26.4687
50.0000 -9.2732 23.9571
50.0000 -4.6251 13.6667
50.0000 6.3253 -8.1684
50.0000 12.5086 15.6340
50.0000 12.2905 -20.7280
50.0000 7.1479 17.7056
50.0000 12.9672 -7.8183
50.0000 -7.7938 -8.1002
50.0000 -11.0654 -18.2699
50.0000 -13.3412 17.6877
50.0000 -10.8675 -19.7224
50.0000 -7.3829 -11.7325
50.0000 4.0983 29.7506
50.0000 11.5794 -3.3626
50.0000 9.0906 -21.2485
50.0000 5.5491 -17.2396
50.0000 8.0902 -3.7701
50.0000 0.1217 18.9556
50.0000 0.2148 20.6837
50.0000 -6.5983 19.8612
50.0000 6.3409 -18.7529
50.0000 -14.4990 6.7013
50.0000 -10.1800 0.1087
50.0000 13.2394 5.3349
50.0000 -13.4817 24.9663
-50.0000 9.7869 19.9153
-50.0000 9.4221 -11.0398
-50.0000 14.7664 27.9537
-50.0000 -12.5084 26.2004
-50.0000 6.8382 -9.9624
-50.0000 7.1335 6.1206
-50.0000 7.8657 22.8464
-50.0000 9.8465 9.5780
-50.0000 -9.9337 -6.7895
-50.0000 -9.8266 29.9391
-50.0000 -13.5521 -13.1711
-50.0000 1.2577 -24.4205
-50.0000 -0.0935 -20.0412
-50.0000 -2.8214 20.7271
-50.0000 13.3007 -7.0533
-50.0000 2.2651 -24.7826
-50.0000 3.0548 -28.7250
-50.0000 -11.1509 21.6741
-50.0000 4.2875 22.7886
-50.0000 14.7494 -14.6546
-50.0000 14.2814 -12.2536
-50.0000 -1.1294 17.5033
-50.0000 3.1303 5.7839
-50.0000 2.4002 -11.7114
-50.0000 6.4441 1.7493
-50.0000 9.8031 1.9751
-50.0000 0.7256 24.0181
-50.0000 -2.4948 -2.9645
-50.0000 2.8992 -3.0695
-50.0000 0.7400 -11.8759
-50.0000 2.1853 1.9955
-50.0000 -5.3856 13.2652
-50.0000 -14.8369 6.4434
-50.0000 7.8507 12.4729
-50.0000 5.7195 -27.5624
-50.0000 1.2770 -0.1282
-50.0000 -10.3375 8.4519
-50.0000 -13.8116 -1.9084
-50.0000 7.0409 0.9151
-50.0000 11.0875 27.7735
-50.0000 -13.2022 4.8047
-50.0000 4.1117 -7.5715
-50.0000 9.5341 -26.3492
-50.0000 4.2528 18.0197
-50.0000 -11.9639 -21.9571
-50.0000 8.5192 -10.6453
-50.0000 13.5565 -15.1148
-50.0000 -4.3897 -22.9158
-50.0000 -11.9113 9.2568
-50.0000 14.1642 -8.8833
-50.0000 8.2332 -14.6284
-50.0000 14.0792 7.2759
-50.0000 -6.0072 -29.8486
-50.0000 5.8459 -25.5902
-50.0000 -14.5901 -5.0957
-50.0000 -2.7520 -18.5036
-50.0000 13.0548 -0.5402
-50.0000 -6.2905 5.2356
-50.0000 -3.0112 -18.0455
-50.0000 9.6076 -29.1761
-50.0000 6.8066 -25.9288
-50.0000 -1.5983 10.7614
-50.0000 7.4401 26.4418
-50.0000 0.0968 -12.5980
-50.0000 -8.5298 6.9566
-50.0000 9.4161 18.5420
-50.0000 -8.1075 6.2385
-50.0000 -4.0911 1.1333
-50.0000 10.8167 27.7902
-50.0000 -11.0059 -10.0733
-50.0000 -8.7272 -17.2841
-50.0000 -2.2100 -10.6301
-50.0000 2.1228 -16.0081
-50.0000 -1.6912 28.4306
-50.0000 -1.3191 -22.8136
-50.0000 -10.7720 13.9570
-50.0000 1.2514 -0.1572
-50.0000 0.8150 21.7884
-50.0000 4.2136 14.6272
-50.0000 -7.4560 -27.5817
-50.0000 5.4605 -2.6837
-50.0000 12.5909 18.4589
-50.0000 -9.4847 -25.8929
-50.0000 1.3565 3.7234
-50.0000 -0.7435 29.8761
-50.0000 -1.5504 -13.3115
47.1796 15.0000 -19.0982
25.0481 15.0000 28.5677
14.7013 15.0000 -27.3559
15.8505 15.0000 -19.7664
-31.5794 15.0000 2.5759
-10.6592 15.0000 -26.0344
-39.8748 15.0000 19.4085
-17.8980 15.0000 -7.1262
21.1142 15.0000 8.1876
-5.8240 15.0000 27.1396
-17.0143 15.0000 19.5738
-38.8753 15.0000 3.2486
-2.9638 15.0000 10.1345
38.7175 15.0000 4.6841
-3.3978 15.0000 -21.1119
28.9638 15.0000 -9.2973
-15.7271 15.0000 -14.2893
8.9537 15.0000 -17.4568
-28.2770 15.0000 -29.3826
5.1421 15.0000 23.9219
49.8611 15.0000 -16.3786
-40.8886 15.0000 -22.1452
-13.2712 15.0000 -13.1002
-30.4559 15.0000 21.7979
-22.4669 15.0000 25.3412
42.1484 15.0000 17.6256
-40.0891 15.0000 -5.2090
-27.7411 15.0000 -29.2772
18.0285 15.0000 -15.4505
6.2074 15.0000 14.6982
-32.9660 15.0000 -25.9210
27.9467 15.0000 19.4787
-43.2538 15.0000 27.2861
39.4350 15.0000 7.7883
2.1320 15.0000 22.1651
-40.3353 15.0000 21.3763
-1.7297 15.0000 -2.7284
-46.8011 15.0000 -1.1609
-30.7929 15.0000 0.3839
-5.9600 15.0000 14.1799
3.9400 15.0000 -22.3672
41.1351 15.0000 1.1374
-19.5510 15.0000 6.1575
28.9078 15.0000 22.3497
21.0561 15.0000 19.7458
-14.6559 15.0000 -15.5256
5.0739 15.0000 20.3129
19.6957 15.0000 1.4980
46.5481 15.0000 -14.7159
33.9899 15.0000 20.1545
-34.8145 15.0000 29.2767
-36.6230 15.0000 19.0381
46.4358 15.0000 14.7891
18.2230 15.0000 -0.0784
21.9444 15.0000 -22.3922
35.8805 15.0000 4.1917
31.8246 15.0000 -29.7083
-2.1985 15.0000 -16.7620
24.6202 15.0000 -13.2010
4.9292 15.0000 -10.1896
32.5721 15.0000 -23.0104
47.2381 15.0000 -20.5172
4.5631 15.0000 -27.5985
-26.4881 15.0000 -1.6868
-6.7957 15.0000 7.3015
15.6612 15.0000 15.8674
-37.7522 15.0000 -3.0677
39.6829 15.0000 16.1324
10.7181 15.0000 -9.2726
-18.7911 15.0000 -23.7694
-31.0593 15.0000 -19.8141
-36.1013 15.0000 -5.3210
43.3015 15.0000 -11.0431
-30.1019 15.0000 -14.9461
-11.3637 15.0000 10.9126
40.2708 15.0000 16.1862
-5.1706 15.0000 17.3522
10.7846 15.0000 -27.7129
0.8265 15.0000 7.4218
-34.0114 15.0000 14.8366
-13.8903 15.0000 23.4392
10.2580 15.0000 -1.8018
-6.0549 15.0000 -0.7549
-23.4999 15.0000 -6.3474
-46.9578 15.0000 -1.5642
-18.5430 -15.0000 -0.5291
20.8970 -15.0000 0.8944
-41.7397 -15.0000 21.5301
15.4650 -15.0000 5.2573
-48.1847 -15.0000 6.4528
38.8862 -15.0000 8.9933
44.2478 -15.0000 -28.4768
33.1349 -15.0000 6.9267
-10.0164 -15.0000 7.1502
25.6484 -15.0000 2.6072
-3.0492 -15.0000 -18.0259
43.6180 -15.0000 -10.1959
21.7536 -15.0000 -17.8636
20.9610 -15.0000 22.3883
22.3916 -15.0000 -25.7453
35.2434 -15.0000 27.5869
28.3348 -15.0000 -9.8387
-49.1687 -15.0000 27.5288
-21.6083 -15.0000 -19.6417
38.6693 -15.0000 -16.4329
-23.2645 -15.0000 23.9763
-14.7445 -15.0000 -17.7385
41.5671 -15.0000 -7.4253
-36.4171 -15.0000 -27.9391
13.8258 -15.0000 -26.5278
48.3428 -15.0000 -18.0848
10.0621 -15.0000 2.0658
20.6847 -15.0000 -20.7124
-7.4758 -15.0000 -11.3113
8.5425 -15.0000 -9.6971
-32.7862 -15.0000 -3.0144
-45.3093 -15.0000 13.8253
27.3658 -15.0000 -24.2654
1.3096 -15.0000 -25.3433
-25.0630 -15.0000 -13.7717
7.8770 -15.0000 14.0941
-25.4111 -15.0000 -21.7896
-42.0168 -15.0000 -29.6298
32.9509 -15.0000 7.4592
35.9410 -15.0000 -18.1211
-39.4225 -15.0000 -11.9042
34.1872 -15.0000 -13.1144
9.3986 -15.0000 14.9674
-2.9481 -15.0000 5.7695
7.7907 -15.0000 -10.5725
12.3917 -15.0000 1.6567
41.2064 -15.0000 -24.9763
-48.1458 -15.0000 6.3632
35.1833 -15.0000 -28.6996
-46.5095 -15.0000 -1.8491
-11.7563 -15.0000 -4.6661
11.7907 -15.0000 26.2925
2.1001 -15.0000 0.6414
32.6653 -15.0000 22.1384
-35.0871 -15.0000 25.5477
-40.1255 -15.0000 -7.6225
22.1329 -15.0000 -24.9022
-30.7637 -15.0000 -6.3856
34.9977 -15.0000 5.0369
41.1269 -15.0000 -19.3551
27.5179 -15.0000 -0.7425
43.1698 -15.0000 8.0775
-36.2891 -15.0000 12.0815
3.4702 -15.0000 -12.8535
17.2190 -15.0000 26.8396
-49.8054 -15.0000 -27.2779
31.8789 -15.0000 26.5185
46.3964 -15.0000 2.1998
9.2760 -15.0000 -9.6716
-47.8773 -15.0000 -16.1130
16.8085 -15.0000 -29.5726
-34.7744 -15.0000 24.7925
-0.4491 -15.0000 1.6073
41.8751 -15.0000 -19.7026
49.8616 -15.0000 -7.5124
19.9978 -15.0000 5.2269
16.2403 -15.0000 -12.4672
-4.9414 -15.0000 -9.8619
-24.7494 -15.0000 -27.6172
-25.3682 -15.0000 -18.0993
48.8083 -15.0000 -4.5534
32.4762 -15.0000 26.4995
17.6099 -15.0000 -21.1350
-17.7166 -15.0000 -16.4233
-36.8043 -15.0000 -11.9837
-20.7079 -8.3906 30.0000
1.3437 -9.2180 30.0000
17.4883 -4.7516 30.0000
-0.9374 12.2880 30.0000
2.3381 10.2077 30.0000
-15.7607 -5.1355 30.0000
-22.8440 1.3424 30.0000
-2.8823 12.3789 30.0000
22.9980 4.6754 30.0000
13.7081 6.5186 30.0000
49.3728 -1.4736 30.0000
40.6152 -12.7376 30.0000
4.5420 9.6611 30.0000
23.4595 -2.7114 30.0000
-13.3087 -6.7764 30.0000
-31.1368 -13.5418 30.0000
1.3686 5.0284 30.0000
43.6238 10.6304 30.0000
-18.0295 5.1694 30.0000
25.3978 12.6932 30.0000
-23.2833 14.9024 30.0000
-12.3525 9.1259 30.0000
-43.8076 -4.0525 30.0000
-34.2670 -12.6050 30.0000
29.1747 -5.7283 30.0000
14.5315 -5.6196 30.0000
45.5234 8.3053 30.0000
-41.9540 9.7964 30.0000
-27.0066 -10.0551 30.0000
4.2886 8.1956 30.0000
39.9402 12.5894 30.0000
-12.6986 -10.8483 30.0000
17.7225 3.6612 30.0000
-37.0510 -3.2372 30.0000
-4.8274 14.9664 30.0000
-0.5590 -6.4767 30.0000
39.4033 14.8786 30.0000
2.9038 10.6897 30.0000
2.3490 13.8025 30.0000
-29.5888 -6.3558 30.0000
35.3612 4.6176 30.0000
-12.2562 8.3771 30.0000
32.0582 1.9978 30.0000
38.0139 13.1920 30.0000
13.0187 8.4252 30.0000
-10.5048 -4.8159 30.0000
-17.6201 -5.3912 30.0000
31.2907 11.3616 30.0000
1.5958 -11.2673 30.0000
2.5751 -12.0494 30.0000
2.2980 5.7442 30.0000
-5.9577 -10.9979 30.0000
-37.3091 6.5097 30.0000
-41.4825 -4.8599 30.0000
33.7153 -12.1219 30.0000
4.4017 -4.5342 30.0000
28.5254 -13.2929 30.0000
15.2891 -10.6386 30.0000
-43.6810 2.4074 30.0000
-17.7986 -10.5884 30.0000
-38.8361 10.8137 30.0000
47.1231 -1.6753 30.0000
-13.3420 -1.3612 30.0000
-28.9622 -11.7765 30.0000
-21.1584 -1.0227 30.0000
-6.8062 8.5213 30.0000
38.7769 4.4333 30.0000
-20.5292 10.2591 30.0000
-43.0350 5.0051 30.0000
20.8957 5.9448 30.0000
-27.0272 -13.8261 30.0000
25.5869 -4.8068 30.0000
43.3971 -4.4627 30.0000
-24.5920 -1.7483 30.0000
-17.0600 10.2251 30.0000
17.2395 -6.7827 30.0000
10.8181 6.9516 30.0000
10.8404 8.5939 30.0000
35.3353 8.3156 30.0000
0.1454 -0.1193 30.0000
-17.1019 13.9053 30.0000
25.5321 -1.9648 30.0000
48.8758 3.7373 30.0000
-46.6382 14.2760 30.0000
35.8437 -2.5968 30.0000
-37.0201 -6.2691 -30.0000
30.5900 -3.0973 -30.0000
-38.0771 8.8794 -30.0000
28.7941 -0.2734 -30.0000
45.1799 8.8556 -30.0000
-28.6320 6.1116 -30.0000
-32.8250 4.6810 -30.0000
43.5639 -14.7108 -30.0000
-2.1431 2.9721 -30.0000
35.0599 -9.0778 -30.0000
17.0178 3.5027 -30.0000
-45.5167 6.5249 -30.0000
-35.3462 13.7705 -30.0000
-20.0437 -1.9097 -30.0000
-15.7651 9.8021 -30.0000
-18.7860 10.6590 -30.0000
10.2510 1.9164 -30.0000
-35.8357 7.6483 -30.0000
-6.3144 11.8924 -30.0000
-9.2722 -7.2230 -30.0000
49.7903 9.9607 -30.0000
2.5380 -14.6980 -30.0000
-38.5963 11.0806 -30.0000
38.5409 7.1311 -30.0000
39.8182 7.6447 -30.0000
4.7484 5.4525 -30.0000
-16.2947 -3.0588 -30.0000
39.5389 4.2445 -30.0000
6.4520 -1.1528 -30.0000
-46.0230 5.9379 -30.0000
10.0860 13.4517 -30.0000
22.4830 -1.0990 -30.0000
41.7923 -2.0877 -30.0000
24.8066 14.1041 -30.0000
39.2599 14.9672 -30.0000
11.4722 -12.4371 -30.0000
-0.5593 -9.1419 -30.0000
-2.7375 -6.1488 -30.0000
-8.9942 11.6468 -30.0000
17.6038 -5.0829 -30.0000
20.9647 8.4134 -30.0000
-30.0682 -10.8921 -30.0000
14.6946 -0.1242 -30.0000
29.8806 -8.5959 -30.0000
42.8628 7.0645 -30.0000
-35.6074 13.5560 -30.0000
-14.8992 10.3806 -30.0000
-47.1424 1.3685 -30.0000
-3.2523 -11.8685 -30.0000
-41.4441 -1.5832 -30.0000
41.4868 6.4978 -30.0000
-23.3081 -13.5085 -30.0000
-48.9670 1.7793 -30.0000
-46.6402 3.8245 -30.0000
46.5062 -7.0604 -30.0000
-43.6877 -8.5744 -30.0000
47.8505 0.0814 -30.0000
40.3678 -1.0582 -30.0000
6.4565 11.9370 -30.0000
6.6141 3.4202 -30.0000
18.0858 -10.1279 -30.0000
-0.2801 -3.8356 -30.0000
36.6020 -5.7148 -30.0000
11.8777 5.0859 -30.0000
-25.8537 -6.2840 -30.0000
-9.2727 -13.8212 -30.0000
48.3064 -12.7801 -30.0000
32.6962 2.7463 -30.0000
4.6134 4.5471 -30.0000
49.7784 -4.2507 -30.0000
28.3762 -1.4970 -30.0000
42.9024 -10.3537 -30.0000
-18.6476 -4.6252 -30.0000
-33.8836 2.6783 -30.0000
34.6977 3.4627 -30.0000
-42.8859 -0.6213 -30.0000
-33.1370 4.9477 -30.0000
-12.5815 -10.4247 -30.0000
40.2246 12.3753 -30.0000
-7.5646 -14.5826 -30.0000
-16.8387 6.0914 -30.0000
1.7637 4.1747 -30.0000
10.5190 -9.8103 -30.0000
2.7510 9.7956 -30.0000
-22.8128 5.3680 -30.0000
15.0000 40.0024 29.0029
15.0000 42.4130 -22.0541
15.0000 24.3859 29.8375
15.0000 13.0559 -12.8699
15.0000 75.6964 -0.8833
15.0000 -2.6782 -5.0546
15.0000 15.8881 3.1405
15.0000 -3.7933 8.9778
15.0000 47.4932 9.2526
15.0000 51.1055 -5.6830
15.0000 74.7680 -1.7710
15.0000 53.7779 19.7852
15.0000 59.6753 -29.8789
15.0000 -11.0030 -28.2521
15.0000 4.0587 -12.8216
15.0000 28.9115 -16.4506
15.0000 75.5558 -15.9646
15.0000 72.3617 5.0070
15.0000 -9.5632 7.7685
15.0000 80.0767 4.9882
15.0000 45.9856 -20.6817
15.0000 -6.8162 26.3600
15.0000 -2.8772 -13.5432
15.0000 23.2794 15.9083
15.0000 40.8083 26.0566
15.0000 70.4861 -16.0402
15.0000 45.7746 29.9446
15.0000 51.9727 17.4918
15.0000 74.5788 4.9683
15.0000 12.0173 8.9577
15.0000 5.7496 -15.1590
15.0000 81.1364 10.3232
15.0000 79.3370 15.7094
15.0000 70.2203 -14.6957
15.0000 50.8032 26.9105
15.0000 59.4641 -3.4996
15.0000 30.1087 9.0094
15.0000 -2.2153 -1.7250
15.0000 1.3256 -24.9578
15.0000 36.7440 -1.8784
15.0000 -8.1077 5.7538
15.0000 17.3276 6.0708
15.0000 19.0890 -26.2125
15.0000 39.4895 3.6210
15.0000 21.5768 -27.7986
15.0000 38.0749 7.6905
15.0000 68.0562 4.7744
15.0000 71.6454 -4.3151
15.0000 84.5684 1.7253
15.0000 -8.2990 20.2816
15.0000 -3.4922 -17.6642
15.0000 -1.3167 21.5681
15.0000 59.1742 5.6392
15.0000 37.6371 0.9563
15.0000 82.6296 -8.0463
15.0000 29.6028 -23.1960
15.0000 75.1121 -9.4750
15.0000 -6.1488 19.5079
15.0000 76.2528 -26.2608
15.0000 44.3706 17.3828
15.0000 -12.9389 17.1317
15.0000 24.5789 -9.3901
15.0000 30.8268 -11.8061
15.0000 49.6578 14.1709
15.0000 73.6489 -29.5598
15.0000 53.0730 -23.5076
15.0000 58.7574 9.6692
15.0000 4.8803 -24.4796
15.0000 16.8604 -6.9868
15.0000 13.7178 11.1225
15.0000 10.8973 -1.1043
15.0000 62.3939 9.0462
15.0000 79.3648 -6.3472
15.0000 20.9378 11.2030
15.0000 -10.7498 29.6514
15.0000 49.0054 8.5783
15.0000 80.8065 -18.0290
15.0000 73.2480 14.2192
15.0000 22.6285 8.4203
15.0000 8.7717 -10.8249
15.0000 74.5068 1.3224
15.0000 39.9337 26.6140
15.0000 32.0120 15.3890
15.0000 -14.5494 22.0339
15.0000 11.9279 18.6323
15.0000 48.1278 8.4857
-15.0000 -13.5100 -26.5718
-15.0000 28.0202 14.4069
-15.0000 28.9720 -26.2705
-15.0000 58.3736 -7.5290
-15.0000 65.1107 -2.4719
-15.0000 73.9268 -14.5704
-15.0000 23.5034 -20.9668
-15.0000 42.7097 -17.4917
-15.0000 35.1621 -27.7415
-15.0000 58.8159 5.5253
-15.0000 66.6780 -22.2951
-15.0000 75.1678 3.9673
-15.0000 40.6271 20.0312
-15.0000 46.1877 -15.5993
-15.0000 12.6294 28.8883
-15.0000 -6.2445 -28.4881
-15.0000 70.2878 -28.0573
-15.0000 73.8003 17.8577
-15.0000 76.3653 -3.8549
-15.0000 18.0173 19.0867
-15.0000 37.3520 -26.5512
-15.0000 -6.8157 18.7609
-15.0000 55.4826 -1.4829
-15.0000 53.3922 -27.6925
-15.0000 -0.1507 29.7724
-15.0000 2.2214 26.8967
-15.0000 11.0026 -2.6546
-15.0000 20.7199 20.9676
-15.0000 76.1610 0.7276
-15.0000 77.4179 -20.7151
-15.0000 -8.8858 12.9630
-15.0000 36.3843 3.8808
-15.0000 81.5898 23.8375
-15.0000 -3.6295 -28.8907
-15.0000 65.7538 0.5468
-15.0000 83.9924 -27.5126
-15.0000 64.2329 12.8209
-15.0000 45.2656 -25.2186
-15.0000 9.9751 15.9844
-15.0000 3.3834 1.6392
-15.0000 18.2008 11.0379
-15.0000 83.0888 15.2455
-15.0000 31.2155 -22.1267
-15.0000 84.8475 29.7159
-15.0000 -14.3576 21.5218
-15.0000 54.1348 -8.2619
-15.0000 19.7418 -26.1106
-15.0000 73.3320 -21.2789
-15.0000 56.3246 -10.0830
-15.0000 10.0099 -2.6911
-15.0000 78.6989 24.5529
-15.0000 5.7135 26.0706
-15.0000 -6.9869 20.3252
-15.0000 -6.8740 -2.5696
-15.0000 29.5982 -3.4228
-15.0000 43.1672 26.0137
-15.0000 72.4574 -29.4233
-15.0000 46.3747 15.3708
-15.0000 69.5763 -11.5054
-15.0000 54.7382 4.3347
-15.0000 50.3434 -11.7474
-15.0000 35.3239 -19.8418
-15.0000 -6.1776 0.5193
-15.0000 83.7891 -18.1732
-15.0000 7.6442 12.5358
-15.0000 35.6260 18.3051
-15.0000 52.8981 11.0785
-15.0000 55.5523 20.6903
-15.0000 42.5443 19.8365
-15.0000 28.7783 -29.7052
-15.0000 54.2557 -14.4276
-15.0000 -13.3605 -9.2900
-15.0000 56.9112 23.7199
-15.0000 24.1387 -10.1091
-15.0000 54.1720 -6.2379
-15.0000 22.4125 -13.2201
-15.0000 83.8167 -0.6850
-15.0000 -7.2703 -25.1799
-15.0000 77.3913 -10.4196
-15.0000 -11.3234 -28.0530
-15.0000 41.6801 22.7307
-15.0000 58.5120 -0.6850
-15.0000 49.2777 -13.6621
-15.0000 28.6638 22.4825
-15.0000 13.7984 -27.8744
-15.0000 18.8437 2.1335
4.1460 85.0000 4.6500
-4.3256 85.0000 20.0971
-13.8418 85.0000 -18.4268
-7.6611 85.0000 -26.0209
-1.8554 85.0000 11.9170
-14.8080 85.0000 23.1442
-3.9829 85.0000 -10.0513
2.1030 85.0000 21.7386
13.7752 85.0000 -3.8140
-11.4965 85.0000 -5.5408
5.2229 85.0000 -1.7438
-4.0634 85.0000 -10.2084
-6.0560 85.0000 21.7129
6.5897 85.0000 5.1940
1.7786 85.0000 -2.5001
-0.1772 85.0000 -2.2447
11.2925 85.0000 -21.8784
8.4484 85.0000 -7.6501
2.4351 85.0000 14.5114
-9.8367 85.0000 -13.2175
1.7729 85.0000 1.3110
13.3972 85.0000 6.0852
-14.3409 85.0000 8.4894
-8.0732 85.0000 17.8085
-9.2542 85.0000 1.1226
9.3236 85.0000 -14.4909
-10.8438 85.0000 -12.4315
9.2264 85.0000 -22.1399
-2.8539 85.0000 -1.2829
-13.7280 85.0000 24.4786
5.8261 85.0000 -8.1184
4.2619 85.0000 -12.8383
-12.6610 85.0000 -11.8314
-1.3942 85.0000 17.2017
-3.6706 85.0000 7.2571
-6.2123 85.0000 -16.4143
11.6310 85.0000 29.7076
-12.6206 85.0000 3.9123
7.4808 85.0000 0.3090
6.4476 85.0000 -16.4036
1.6304 85.0000 -9.4307
-12.7097 85.0000 18.8310
-9.6730 85.0000 7.0992
7.9425 85.0000 -5.7868
-13.2447 85.0000 13.1741
2.6512 85.0000 -21.2056
10.6460 85.0000 -3.6602
-3.7218 85.0000 -10.2402
-13.5834 85.0000 -3.4489
-0.5605 85.0000 -13.6539
3.2988 85.0000 14.0271
-13.8138 85.0000 9.8420
9.6387 85.0000 -14.2862
-6.3230 85.0000 -10.0529
3.0014 85.0000 -28.0375
-9.7906 85.0000 -16.5444
6.8046 85.0000 -27.8692
-6.9650 85.0000 1.5898
-1.9582 85.0000 -5.4845
-0.3384 85.0000 29.3970
-9.3010 85.0000 -28.2424
8.9261 85.0000 -3.8773
-11.3426 85.0000 1.1652
-1.5752 85.0000 20.2829
-5.4185 85.0000 -29.5973
5.7698 85.0000 29.2498
-1.4107 85.0000 -24.4625
-6.6135 85.0000 -24.9983
10.7932 85.0000 -1.9400
-3.5347 85.0000 18.4981
1.0375 85.0000 -9.1469
2.9787 85.0000 23.1769
-12.5415 85.0000 15.7109
2.6536 85.0000 26.0576
8.1833 85.0000 14.0115
5.2136 85.0000 7.7544
-1.8829 85.0000 4.1523
13.8329 85.0000 -22.5693
14.6520 85.0000 5.9023
12.5151 85.0000 -2.5776
9.8856 85.0000 -8.4717
-9.4985 85.0000 24.6105
5.0239 85.0000 -16.6750
9.5061 85.0000 6.5317
-12.0013 85.0000 -23.7131
-5.8898 -15.0000 20.9376
13.1385 -15.0000 -22.6542
2.4036 -15.0000 29.4127
-5.1597 -15.0000 -6.9581
9.0385 -15.0000 -10.3452
10.2043 -15.0000 -27.0162
0.2193 -15.0000 26.0507
-14.3628 -15.0000 21.0683
-12.8251 -15.0000 14.9306
3.5967 -15.0000 -25.8567
6.5390 -15.0000 26.6348
3.1294 -15.0000 -14.0907
-0.2686 -15.0000 4.7295
-0.3969 -15.0000 7.5926
14.8319 -15.0000 27.0937
7.0053 -15.0000 4.0797
-5.9278 -15.0000 8.5423
-4.3119 -15.0000 -20.6758
4.9258 -15.0000 -6.6379
14.8210 -15.0000 5.6663
-8.7723 -15.0000 23.6937
-14.0323 -15.0000 27.3419
5.4757 -15.0000 19.7824
-2.8318 -15.0000 9.9435
-6.9404 -15.0000 24.1880
9.7654 -15.0000 11.3060
-0.0703 -15.0000 20.7131
8.1126 -15.0000 1.0452
1.7642 -15.0000 14.2123
-7.3899 -15.0000 -9.5102
-14.4311 -15.0000 -1.2672
-8.7757 -15.0000 -24.4479
5.1626 -15.0000 2.7910
3.7999 -15.0000 18.1343
-11.1220 -15.0000 -29.1353
0.7306 -15.0000 22.8162
-2.3510 -15.0000 0.7244
-4.6624 -15.0000 19.3639
0.3388 -15.0000 -27.2359
-11.7538 -15.0000 -15.8281
-0.6650 -15.0000 20.6620
13.3856 -15.0000 21.3779
7.2165 -15.0000 -29.6049
4.3480 -15.0000 -21.5886
7.1203 -15.0000 14.6513
14.7064 -15.0000 -11.5653
9.6808 -15.0000 11.3110
3.2946 -15.0000 -16.9008
-13.8266 -15.0000 9.6890
-12.1010 -15.0000 -5.3935
-0.7052 -15.0000 29.0635
9.3739 -15.0000 26.3211
-10.1459 -15.0000 -13.0069
-8.2931 -15.0000 -23.2359
2.6139 -15.0000 -10.0997
-3.2976 -15.0000 -3.3765
-11.7688 -15.0000 -6.3224
-14.1983 -15.0000 3.8866
9.3117 -15.0000 -29.5640
-14.2399 -15.0000 -12.3982
-3.1336 -15.0000 7.7107
8.8390 -15.0000 -17.0531
3.0406 -15.0000 -26.5268
-7.5781 -15.0000 -3.8653
1.5463 -15.0000 -1.5985
1.6450 -15.0000 -10.1776
-6.0798 -15.0000 -10.8314
-4.7207 -15.0000 -2.1769
-14.2706 -15.0000 -16.1025
5.2026 -15.0000 0.5417
-14.7696 -15.0000 1.8444
-4.0276 -15.0000 3.6259
4.8852 -15.0000 9.9946
2.8184 -15.0000 14.5825
-0.3974 -15.0000 5.2823
13.3530 -15.0000 18.3185
-6.7973 -15.0000 2.1995
12.0769 -15.0000 25.6222
7.0737 -15.0000 -24.8010
-1.0527 -15.0000 10.6441
4.4031 -15.0000 -10.5959
1.9603 -15.0000 -20.1319
0.1281 -15.0000 -12.7841
-12.0292 -15.0000 25.2036
-4.9425 -15.0000 12.0042
-5.9670 29.3007 30.0000
-9.9684 29.0851 30.0000
-4.4448 31.6762 30.0000
-5.4368 30.4572 30.0000
0.6282 55.2868 30.0000
11.3903 45.3283 30.0000
-8.0530 6.4164 30.0000
-5.4303 -11.3990 30.0000
9.8072 82.6931 30.0000
-11.2306 42.6288 30.0000
14.3483 50.6934 30.0000
-5.7776 71.6454 30.0000
-0.1655 82.9812 30.0000
9.2165 49.6908 30.0000
-2.4669 25.1720 30.0000
-7.7591 76.4829 30.0000
-2.3881 79.2505 30.0000
-1.3665 83.9813 30.0000
10.2199 68.1261 30.0000
1.9266 75.4130 30.0000
-7.5745 -0.3902 30.0000
6.4646 10.7954 30.0000
-12.2652 -14.1915 30.0000
12.8599 17.8488 30.0000
9.0329 51.0686 30.0000
6.0774 28.0267 30.0000
12.3929 3.9041 30.0000
-11.5678 26.7067 30.0000
0.5208 34.0021 30.0000
-6.0283 22.8727 30.0000
-6.0446 -10.1219 30.0000
5.9721 66.7183 30.0000
11.6693 59.9590 30.0000
-6.1477 74.0554 30.0000
3.0417 76.3556 30.0000
-14.5782 31.5201 30.0000
9.0808 16.3273 30.0000
13.7659 21.1151 30.0000
7.0490 69.4677 30.0000
6.8015 36.9589 30.0000
12.5332 15.1898 30.0000
2.4348 31.9866 30.0000
14.1621 -2.0764 30.0000
-8.4812 64.9564 30.0000
4.6962 8.2867 30.0000
9.7744 84.0697 30.0000
11.5351 30.0217 30.0000
2.4781 8.6483 30.0000
-1.6225 5.7253 30.0000
-4.9132 24.3496 30.0000
-13.2124 73.7812 30.0000
-1.7485 26.8213 30.0000
14.0364 4.0043 30.0000
-11.5865 33.6938 30.0000
-5.5831 36.4859 30.0000
-14.4592 38.4736 30.0000
-5.6389 12.7089 30.0000
-4.1508 40.0545 30.0000
13.0043 54.4780 30.0000
-12.0732 -7.4420 30.0000
6.9768 52.7950 30.0000
-0.5878 29.4717 30.0000
10.7735 48.5335 30.0000
5.8394 61.5062 30.0000
-7.3970 72.9121 30.0000
-4.9425 34.4370 30.0000
3.6975 -2.2532 30.0000
11.2227 0.4969 30.0000
-8.9642 41.9392 30.0000
7.9572 15.4983 30.0000
0.4090 -5.1784 30.0000
5.1477 65.1136 30.0000
13.4160 67.4456 30.0000
-2.1089 9.2429 30.0000
-7.8141 38.3530 30.0000
2.5188 -11.9269 30.0000
14.2919 19.3012 30.0000
-8.1591 25.5747 30.0000
6.7832 3.0933 30.0000
-9.8321 21.6328 30.0000
-11.5074 15.1079 30.0000
-5.9687 72.3724 30.0000
-9.2228 63.6875 30.0000
-9.9873 78.5360 30.0000
13.3161 -10.5238 30.0000
-5.3980 54.9130 -30.0000
4.3269 71.7998 -30.0000
-9.8408 10.4945 -30.0000
-7.0106 22.2682 -30.0000
1.0574 36.1951 -30.0000
0.5474 68.4039 -30.0000
-6.8443 28.7737 -30.0000
3.4470 34.7327 -30.0000
-13.0978 78.4891 -30.0000
-13.7310 23.4585 -30.0000
-14.5505 2.8708 -30.0000
-12.2617 49.0521 -30.0000
14.7397 37.2360 -30.0000
-2.4548 80.7622 -30.0000
1.2349 8.9905 -30.0000
-0.0042 83.8346 -30.0000
12.9692 7.6402 -30.0000
-13.0068 48.3210 -30.0000
-9.9703 20.7374 -30.0000
12.5583 73.9302 -30.0000
7.0722 21.7126 -30.0000
6.0750 12.0492 -30.0000
8.5003 8.4885 -30.0000
-2.3687 67.9819 -30.0000
-8.5262 18.2958 -30.0000
-1.3076 49.7026 -30.0000
-9.9287 18.2955 -30.0000
-5.4200 79.1644 -30.0000
-9.5470 56.7981 -30.0000
2.4286 1.9960 -30.0000
-10.3583 20.7384 -30.0000
-9.7722 36.9834 -30.0000
7.5792 78.0018 -30.0000
-7.6661 33.9409 -30.0000
0.5090 16.6863 -30.0000
1.6013 33.0558 -30.0000
6.1777 53.4014 -30.0000
-14.1665 7.4948 -30.0000
10.5371 10.9399 -30.0000
-13.1756 83.6614 -30.0000
-9.2920 71.0213 -30.0000
12.7346 55.5705 -30.0000
10.2534 50.6178 -30.0000
11.8908 -10.7011 -30.0000
0.5203 40.6452 -30.0000
-9.4478 77.9627 -30.0000
-5.6944 60.9793 -30.0000
-1.3640 51.7151 -30.0000
-1.2175 44.9480 -30.0000
-11.6652 -12.5981 -30.0000
-6.7305 69.8652 -30.0000
12.0502 35.8177 -30.0000
5.7059 50.3269 -30.0000
10.3712 82.6269 -30.0000
-5.2924 37.7734 -30.0000
-8.0536 -2.4251 -30.0000
-4.8321 61.7957 -30.0000
9.3543 18.6339 -30.0000
2.0223 56.8289 -30.0000
-8.6589 16.6614 -30.0000
6.5271 58.5829 -30.0000
8.7637 17.7079 -30.0000
-13.7133 63.2939 -30.0000
1.7324 2.3705 -30.0000
-5.6789 30.5872 -30.0000
-4.5354 81.6719 -30.0000
6.2922 42.0456 -30.0000
2.4506 46.3630 -30.0000
6.2541 39.1565 -30.0000
7.7672 3.0783 -30.0000
-4.8102 -10.9528 -30.0000
12.6447 34.4280 -30.0000
-13.7573 52.6483 -30.0000
-14.4367 66.1234 -30.0000
-13.7392 31.2828 -30.0000
13.3813 47.9216 -30.0000
-14.5926 -3.3800 -30.0000
9.1419 33.5117 -30.0000
2.6822 76.0530 -30.0000
-4.1445 71.9221 -30.0000
-14.4287 64.0014 -30.0000
12.4593 45.2359 -30.0000
7.6516 38.8636 -30.0000
-0.3441 15.9917 -30.0000
8.1968 13.3864 -30.0000
