ply
format ascii 1.0
element vertex 1024
property float x
property float y
property float z
end_header
50.0000 4.2897 11.1203
50.0000 -14.8798 22.4010
50.0000 -12.1728 -15.6150
50.0000 -14.4526 -35.2774
50.0000 -10.3583 -5.7331
50.0000 -11.3872 -36.2127
50.0000 1.8225 -38.3279
50.0000 -2.2911 -19.5594
50.0000 -6.0534 -8.3596
50.0000 8.8143 2.0194
50.0000 -7.9698 -19.2820
50.0000 7.9148 -20.8744
50.0000 -6.2278 -30.7464
50.0000 2.6852 38.4776
50.0000 -2.4937 20.5196
50.0000 -14.8543 -24.9730
50.0000 -5.7079 -6.2261
50.0000 -5.2041 12.4339
50.0000 10.5271 -7.1701
50.0000 -2.7879 -34.8296
50.0000 -2.2423 -7.9587
50.0000 1.2461 -13.5858
50.0000 4.3106 -14.4159
50.0000 -4.6715 -30.1202
50.0000 -9.2848 -35.5199
50.0000 14.2703 -33.7947
50.0000 -13.4981 -5.0318
50.0000 4.9379 -2.9386
50.0000 5.7626 -28.4136
50.0000 6.7357 -15.0021
50.0000 13.2331 39.1030
50.0000 -3.0195 -0.3262
50.0000 -13.0414 8.0001
50.0000 -5.1962 20.3276
50.0000 8.9033 5.5026
50.0000 5.9306 -35.0509
50.0000 9.2250 -30.3458
50.0000 13.8779 28.5939
50.0000 -8.5781 -21.7936
50.0000 8.8841 23.9207
50.0000 -8.1699 -21.5697
50.0000 5.8854 23.3760
50.0000 -6.6676 -26.0901
50.0000 4.8447 39.7721
50.0000 0.3136 33.1001
50.0000 7.3611 -5.2775
50.0000 0.1357 -5.0507
50.0000 10.0005 -12.4333
50.0000 -9.2028 2.3325
50.0000 12.0750 3.9160
50.0000 6.6041 -19.6468
50.0000 -5.7679 -3.8608
50.0000 -5.5762 27.3110
50.0000 10.9580 23.7813
50.0000 1.0293 -26.7098
50.0000 -11.8241 -9.1011
50.0000 4.7582 15.4076
50.0000 2.7836 -10.9030
50.0000 -1.3015 -2.8993
50.0000 -4.0504 12.9840
50.0000 -5.2929 12.4630
50.0000 0.2300 -30.0870
50.0000 3.7144 7.8774
50.0000 8.9276 28.8636
50.0000 7.0420 -16.4361
50.0000 -14.0292 -14.4527
50.0000 -0.1324 -34.3177
50.0000 11.2916 5.4863
50.0000 9.3217 -21.6998
50.0000 9.8834 -27.1837
50.0000 -1.3505 10.1196
50.0000 12.4603 8.9791
50.0000 2.3503 -12.7261
50.0000 -12.4954 5.7852
50.0000 4.4029 -23.2244
50.0000 13.1516 19.9372
50.0000 -0.9192 -8.5030
50.0000 2.4418 24.7806
50.0000 0.1583 -21.3740
50.0000 8.7189 -34.9271
50.0000 3.2990 -12.4727
50.0000 -13.4596 14.4771
50.0000 0.2081 29.2745
50.0000 -9.9885 3.1629
50.0000 -8.2024 28.8001
50.0000 -5.9117 -33.5415
-50.0000 -5.4780 -6.5573
-50.0000 -8.0036 30.4735
-50.0000 0.0616 -2.9131
-50.0000 8.6582 17.4665
-50.0000 -2.7163 -25.6959
-50.0000 -13.0121 26.7121
-50.0000 6.0706 28.6275
-50.0000 -3.3092 -28.9593
-50.0000 9.5806 -7.6062
-50.0000 0.3568 -16.6033
-50.0000 -6.1774 19.3468
-50.0000 10.9200 9.7181
-50.0000 12.7689 -9.0615
-50.0000 8.2078 14.9693
-50.0000 5.1259 36.2965
-50.0000 -3.5545 5.6866
-50.0000 0.2171 24.3509
-50.0000 -2.6711 22.3297
-50.0000 -13.8990 -19.3075
-50.0000 -1.8540 25.9913
-50.0000 3.6912 10.6477
-50.0000 -6.8215 25.6623
-50.0000 10.0917 39.6941
-50.0000 14.0056 -29.4754
-50.0000 -8.4929 -8.4053
-50.0000 4.9448 -22.7065
-50.0000 -4.9874 -11.6730
-50.0000 9.1574 -28.3409
-50.0000 -5.3141 -39.6818
-50.0000 -9.4346 -34.0625
-50.0000 9.1321 -31.9887
-50.0000 0.9312 -39.1085
-50.0000 1.2831 25.5785
-50.0000 -11.3153 -30.5395
-50.0000 -7.8581 -32.2025
-50.0000 5.5562 -39.1693
-50.0000 -5.7450 -9.8407
-50.0000 8.0414 34.4348
-50.0000 1.5666 -10.4080
-50.0000 5.3726 -7.3907
-50.0000 -13.9627 9.3365
-50.0000 0.8569 35.0578
-50.0000 13.8751 -32.9600
-50.0000 10.7231 25.7270
-50.0000 -13.5836 -18.2863
-50.0000 5.9625 25.8598
-50.0000 -2.4022 -11.3588
-50.0000 8.2120 -11.7699
-50.0000 1.5926 -6.1555
-50.0000 -5.3785 15.9389
-50.0000 3.2530 39.0312
-50.0000 6.8758 28.0062
-50.0000 -14.5081 31.0401
-50.0000 -14.4326 -2.6464
-50.0000 -6.9249 16.7299
-50.0000 0.8956 16.4409
-50.0000 -2.0488 -37.2236
-50.0000 1.8040 27.3016
-50.0000 11.3733 -37.2722
-50.0000 -0.8023 -21.1128
-50.0000 -6.6624 -26.2061
-50.0000 -1.2984 38.2073
-50.0000 -8.3148 38.0623
-50.0000 -13.3789 -18.1390
-50.0000 7.2291 32.9889
-50.0000 -1.0320 -13.3856
-50.0000 -9.0982 -33.0464
-50.0000 -9.4405 -34.3740
-50.0000 4.1782 -31.0916
-50.0000 -0.3937 17.2713
-50.0000 13.7576 -22.7438
-50.0000 -3.8847 38.9220
-50.0000 -7.3408 12.9560
-50.0000 14.0238 35.4057
-50.0000 0.1843 19.7087
-50.0000 12.9343 -2.3908
-50.0000 2.7749 35.9125
-50.0000 -7.2920 4.1690
-50.0000 13.6480 1.0373
-50.0000 -8.6914 1.2295
-50.0000 6.3098 38.9632
-50.0000 -2.5674 -24.2606
-50.0000 -11.6033 -26.1424
-50.0000 3.7480 -13.0063
-50.0000 -5.9357 -36.3516
-50.0000 8.5233 -9.4409
27.2016 15.0000 -28.8647
1.0932 15.0000 6.6203
-33.2121 15.0000 0.8950
-7.6866 15.0000 -15.3751
-1.6616 15.0000 24.3804
-3.4795 15.0000 -14.2957
39.4355 15.0000 4.1493
-30.9791 15.0000 -4.3639
-7.4695 15.0000 -9.7264
-39.2977 15.0000 8.9610
16.5617 15.0000 38.5024
45.9337 15.0000 1.7732
-27.7490 15.0000 -5.0350
20.7253 15.0000 7.0735
-22.0749 15.0000 24.3707
24.3366 15.0000 39.8812
-29.1560 15.0000 -12.7169
12.2433 15.0000 -18.0575
2.2532 15.0000 13.4051
37.2397 15.0000 -34.0280
-38.3589 15.0000 37.4151
32.5387 15.0000 30.3470
49.3528 15.0000 -1.8049
36.3626 15.0000 36.9500
-34.7677 15.0000 -26.1086
-24.8890 15.0000 9.9076
-38.9897 15.0000 20.6289
30.2177 15.0000 -7.4317
13.8607 15.0000 -39.5938
-46.9602 15.0000 1.4198
-32.8264 15.0000 -26.9583
-44.5115 15.0000 -31.9273
42.3308 15.0000 -20.5404
28.9492 15.0000 12.0171
16.2813 15.0000 -28.9479
25.5462 15.0000 38.8302
24.4915 15.0000 0.1891
-17.2510 15.0000 -29.2524
-49.4930 15.0000 -21.9413
48.7801 15.0000 3.9445
-14.9095 15.0000 -31.5571
46.0763 15.0000 23.8462
0.1439 15.0000 22.2005
-21.0633 15.0000 11.2416
-38.5850 15.0000 30.3850
-6.0502 15.0000 0.1385
-29.2372 15.0000 25.2869
-23.0975 15.0000 17.4414
38.0001 15.0000 26.8937
41.3171 15.0000 5.6173
5.9152 15.0000 -15.2913
15.8452 15.0000 19.1079
0.6271 15.0000 11.6042
5.5472 15.0000 -14.3563
-42.1253 15.0000 19.6172
-25.5959 15.0000 -39.7960
33.1671 15.0000 20.2472
-9.2878 15.0000 5.1324
6.7321 15.0000 -4.6488
-25.9059 15.0000 6.9871
12.7245 15.0000 33.6394
4.6916 15.0000 3.8162
28.3774 15.0000 4.4449
31.4730 15.0000 5.3175
9.9604 15.0000 -19.2408
-47.5704 15.0000 -33.3004
-34.8174 15.0000 28.2894
16.6701 15.0000 3.3245
23.8796 15.0000 38.3097
11.2033 15.0000 -20.3844
-25.5318 15.0000 -8.4636
-7.8580 15.0000 22.1689
0.7813 15.0000 17.9609
0.4208 15.0000 -18.8046
5.5843 15.0000 -5.2684
26.8563 15.0000 38.0679
-33.3165 15.0000 -35.2186
-40.0297 15.0000 -12.0023
-43.3107 15.0000 32.9641
22.3324 15.0000 -10.7503
0.1372 15.0000 0.9180
8.3153 15.0000 -15.2521
-12.2861 15.0000 5.6915
47.6165 15.0000 -31.3173
-16.8571 15.0000 4.8744
15.7357 -15.0000 -22.1707
30.1539 -15.0000 -33.4789
13.1049 -15.0000 0.6832
-33.8924 -15.0000 24.5478
-5.4230 -15.0000 21.1073
14.2617 -15.0000 2.9483
32.4472 -15.0000 32.6960
12.2392 -15.0000 -7.8641
16.6644 -15.0000 23.7970
-36.3660 -15.0000 -30.8170
48.6277 -15.0000 -29.4842
10.8109 -15.0000 36.0860
15.1634 -15.0000 -8.3315
-28.5410 -15.0000 -31.3689
-23.4960 -15.0000 33.3269
-33.8563 -15.0000 1.5886
-28.7863 -15.0000 37.4760
-16.1864 -15.0000 8.4917
-26.8724 -15.0000 -19.0789
1.7240 -15.0000 7.2045
29.5421 -15.0000 23.1365
2.4100 -15.0000 3.3677
-3.7335 -15.0000 7.7666
-46.3015 -15.0000 -24.6646
11.5403 -15.0000 34.5244
-26.6932 -15.0000 31.8391
5.8607 -15.0000 -23.8230
-0.8753 -15.0000 23.4131
9.9576 -15.0000 39.4344
-5.0871 -15.0000 -32.4504
-43.5446 -15.0000 -3.0714
31.5596 -15.0000 12.7251
22.4418 -15.0000 31.7146
15.0823 -15.0000 -31.2982
-30.3379 -15.0000 -14.8495
-41.2013 -15.0000 28.7304
42.4372 -15.0000 -11.9683
39.6264 -15.0000 -31.0206
-28.4705 -15.0000 8.2587
-15.4529 -15.0000 -21.8460
21.8683 -15.0000 11.7242
-37.5731 -15.0000 33.2674
33.6465 -15.0000 -19.2690
-46.1685 -15.0000 22.7786
-38.5520 -15.0000 1.8456
-14.5878 -15.0000 13.4969
43.2091 -15.0000 -9.2307
13.0763 -15.0000 12.8218
-39.8958 -15.0000 15.9125
43.2547 -15.0000 1.4151
-31.5588 -15.0000 20.4591
20.4343 -15.0000 21.7454
-29.8648 -15.0000 -14.7182
37.0334 -15.0000 -28.0174
-28.8056 -15.0000 25.1896
-3.4850 -15.0000 23.9966
-18.3753 -15.0000 -3.8860
35.3123 -15.0000 25.7313
-7.3653 -15.0000 34.8487
3.7149 -15.0000 -12.6804
-15.6488 -15.0000 38.6183
-47.0157 -15.0000 30.6940
-9.8927 -15.0000 39.9894
-34.0905 -15.0000 7.6436
-20.4601 -15.0000 35.7095
14.9144 -15.0000 -32.6562
2.9747 -15.0000 -6.2228
-34.0251 -15.0000 7.8401
24.3556 -15.0000 -18.3039
18.3561 -15.0000 28.0263
1.6824 -15.0000 7.2273
-31.9686 -15.0000 7.9219
-4.5168 -15.0000 34.1896
-11.9120 -15.0000 -27.1035
20.4707 -15.0000 2.6299
-26.6352 -15.0000 4.6080
24.8029 -15.0000 15.8892
-40.3991 -15.0000 -3.6777
47.8579 -15.0000 14.1729
24.9337 -15.0000 16.8772
-28.2677 -15.0000 -3.0546
4.2551 -15.0000 -22.1491
38.0553 -15.0000 14.7091
-41.2107 -15.0000 -15.8204
20.9315 -15.0000 -8.8346
-48.5723 -3.4982 40.0000
-27.2646 -4.6391 40.0000
19.7305 11.0388 40.0000
41.8805 -5.3773 40.0000
15.6000 6.9927 40.0000
3.5741 -11.0427 40.0000
-14.3243 7.3496 40.0000
37.3802 -7.7720 40.0000
-37.8769 0.1161 40.0000
47.5977 4.7520 40.0000
-21.0619 -3.9725 40.0000
-40.6701 -0.5762 40.0000
-49.9643 7.4366 40.0000
-19.1205 0.9565 40.0000
25.3936 -4.2524 40.0000
12.3618 -8.3092 40.0000
-11.9747 -4.1240 40.0000
5.7777 3.0865 40.0000
-29.7493 6.7302 40.0000
-45.4952 -5.4281 40.0000
15.6160 -0.3900 40.0000
42.9330 11.7311 40.0000
38.6961 -4.0375 40.0000
18.1984 -4.3517 40.0000
8.6947 -8.2156 40.0000
-34.8406 -12.6392 40.0000
-22.2379 -2.5637 40.0000
-49.9410 13.5494 40.0000
47.7203 7.4035 40.0000
-28.1758 -5.5401 40.0000
-36.5068 2.2278 40.0000
21.9925 6.8259 40.0000
-19.2611 -2.3099 40.0000
17.5636 7.1314 40.0000
16.5029 -3.4405 40.0000
-21.9809 -14.4825 40.0000
-2.0166 -2.0511 40.0000
20.1730 -14.9669 40.0000
42.2356 1.4728 40.0000
5.1344 -11.1286 40.0000
-37.4776 -9.4082 40.0000
15.4918 14.2982 40.0000
6.2311 -8.9957 40.0000
-18.7584 14.0069 40.0000
-7.0639 10.8888 40.0000
-16.8176 -5.7912 40.0000
-13.5631 7.3186 40.0000
15.6770 -9.7698 40.0000
-4.0507 12.0759 40.0000
-28.7926 11.9207 40.0000
-20.5834 -8.4337 40.0000
21.4157 3.3668 40.0000
-42.3961 -11.4229 40.0000
18.5764 1.6599 40.0000
-8.3711 10.8326 40.0000
-16.0457 -5.3588 40.0000
22.9893 10.2906 40.0000
7.1518 5.8763 40.0000
-37.9291 4.6274 40.0000
-34.0426 -2.6926 40.0000
-1.1975 8.8599 40.0000
35.3262 -8.3002 40.0000
27.5046 -13.1823 40.0000
22.6268 -13.1140 40.0000
22.9246 -2.4569 40.0000
19.3856 -12.1171 40.0000
25.6202 -14.2964 40.0000
33.5636 6.2657 40.0000
41.1030 10.9259 40.0000
33.9605 2.2021 40.0000
15.0743 -9.7515 40.0000
28.3220 -11.9986 40.0000
36.3654 -0.9702 40.0000
-1.1161 -1.5263 40.0000
-38.8347 -11.0998 40.0000
-24.9112 -11.8810 40.0000
-30.5831 -13.8259 40.0000
-10.0534 12.8044 40.0000
-41.7064 11.7720 40.0000
-20.9918 -6.9706 40.0000
17.1218 0.4119 40.0000
19.7961 6.7872 40.0000
3.0738 1.6001 40.0000
-17.5745 -2.9362 40.0000
-16.2197 -13.7918 40.0000
45.4088 -9.2302 -40.0000
7.9377 -2.4356 -40.0000
44.0402 -4.5589 -40.0000
23.5998 14.6140 -40.0000
25.4310 -6.8261 -40.0000
-22.3610 -9.5290 -40.0000
-14.1315 3.1568 -40.0000
-41.6232 9.9313 -40.0000
26.1129 -10.6618 -40.0000
25.6640 -13.0741 -40.0000
11.5534 -3.6583 -40.0000
-10.9825 4.0532 -40.0000
40.3461 -10.6899 -40.0000
-34.7365 2.4546 -40.0000
11.6112 -8.7399 -40.0000
-37.5953 10.4448 -40.0000
-1.9017 -11.5123 -40.0000
-3.4980 3.4135 -40.0000
32.6831 -10.2205 -40.0000
-11.4712 11.8355 -40.0000
-12.7544 4.7285 -40.0000
-32.2697 -11.3297 -40.0000
30.2218 4.7498 -40.0000
48.5839 -11.6660 -40.0000
8.4004 -8.4380 -40.0000
38.4978 -4.4156 -40.0000
10.4003 -11.6653 -40.0000
28.0889 -6.9043 -40.0000
16.2970 -2.8833 -40.0000
44.5843 0.8842 -40.0000
-17.5999 5.2449 -40.0000
-35.9487 12.6360 -40.0000
5.4945 1.3502 -40.0000
-19.0468 -4.7236 -40.0000
-31.7978 -3.6268 -40.0000
24.0682 -2.9652 -40.0000
38.2666 14.5428 -40.0000
-43.9318 -1.0897 -40.0000
-25.3844 -10.7681 -40.0000
-14.4819 -10.6160 -40.0000
12.4769 -4.3975 -40.0000
-48.9566 1.4191 -40.0000
-20.0343 -13.7035 -40.0000
-13.9739 5.9033 -40.0000
-18.3840 -0.1361 -40.0000
-36.4960 -14.8692 -40.0000
-28.2745 12.0170 -40.0000
11.7012 -12.8050 -40.0000
13.6080 4.1507 -40.0000
22.0738 -8.5139 -40.0000
37.7123 11.5169 -40.0000
-31.0140 -13.4074 -40.0000
44.3507 14.5970 -40.0000
38.9608 -12.8557 -40.0000
13.6869 1.2464 -40.0000
-19.3797 13.0193 -40.0000
45.3962 8.1292 -40.0000
34.3712 -1.7097 -40.0000
-7.6041 -8.7961 -40.0000
-32.1894 5.0106 -40.0000
-46.7595 -4.6245 -40.0000
0.9650 7.6406 -40.0000
-1.0934 -7.5521 -40.0000
42.8073 7.6270 -40.0000
-16.4679 2.8849 -40.0000
3.3108 -9.1133 -40.0000
-48.5943 -1.2912 -40.0000
-43.0294 2.0645 -40.0000
29.6541 9.3612 -40.0000
-23.7882 -12.9345 -40.0000
-18.3424 -2.3076 -40.0000
15.9958 -3.3140 -40.0000
-4.7289 -3.0278 -40.0000
-29.4854 2.5010 -40.0000
-45.8061 -4.4739 -40.0000
42.7350 10.4293 -40.0000
21.9081 -2.7779 -40.0000
40.1291 7.3765 -40.0000
4.6382 -11.3382 -40.0000
-31.3772 4.9681 -40.0000
38.5914 -1.6527 -40.0000
36.4237 0.9540 -40.0000
1.8066 5.2499 -40.0000
22.6276 -0.2489 -40.0000
10.6721 -11.6789 -40.0000
50.0000 -45.5524 -31.0632
50.0000 -52.4283 27.3351
50.0000 4.5146 -12.1375
50.0000 -82.4345 14.5973
50.0000 -3.7582 25.5072
50.0000 -36.0277 -9.4677
50.0000 -58.2543 12.3959
50.0000 -4.5596 -39.4579
50.0000 -8.1258 -20.6739
50.0000 -28.8796 -8.0284
50.0000 -10.6520 17.4916
50.0000 -41.0794 -6.2878
50.0000 -51.3750 34.2928
50.0000 -68.4479 4.4871
50.0000 -80.7645 0.2325
50.0000 6.3189 -32.6672
50.0000 -52.3530 -35.5638
50.0000 -40.3873 4.1428
50.0000 -39.5867 29.2101
50.0000 -0.5919 4.8576
50.0000 -11.5958 -13.3053
50.0000 0.8291 32.6950
50.0000 -64.4171 22.6537
50.0000 -0.0074 20.3046
50.0000 -81.7405 9.2694
50.0000 -43.7171 24.2732
50.0000 -1.9101 4.9101
50.0000 -66.5220 -33.7343
50.0000 -26.6346 -2.0313
50.0000 -13.3843 -1.0135
50.0000 2.0576 -21.4265
50.0000 -1.1212 -4.4694
50.0000 3.0269 -37.8529
50.0000 -65.7837 35.4820
50.0000 -52.0263 -20.7253
50.0000 -33.5058 -33.6035
50.0000 -6.2890 -23.2792
50.0000 -6.7304 -6.2677
50.0000 -55.5433 36.1506
50.0000 -49.4287 -35.4808
50.0000 1.5212 -18.8472
50.0000 -15.7344 19.5555
50.0000 -68.8043 -19.6429
50.0000 -42.2188 9.6513
50.0000 -36.8655 -5.6024
50.0000 -26.3150 -22.1703
50.0000 8.3576 37.6415
50.0000 -79.4413 29.2998
50.0000 4.9606 -20.5681
50.0000 -80.8888 -28.5033
50.0000 -78.9325 37.1460
50.0000 -47.3823 -36.5071
50.0000 3.1037 30.4393
50.0000 -59.1482 39.3530
50.0000 -10.8915 3.9584
50.0000 -21.1685 14.9661
50.0000 -58.8843 -19.3151
50.0000 -54.5336 -1.7988
50.0000 -64.1703 22.2397
50.0000 -62.2904 -17.8033
50.0000 -18.7075 21.8956
50.0000 -14.8220 21.9259
50.0000 -30.4819 -38.0103
50.0000 -45.7032 -8.4745
50.0000 -62.8068 12.7582
50.0000 -14.2633 2.4266
50.0000 -36.0258 10.7640
50.0000 -14.7390 -28.3876
50.0000 -67.6052 -19.1554
50.0000 -55.7119 -35.4675
50.0000 -54.5493 -30.4644
50.0000 -11.4613 -16.3525
50.0000 -6.1879 -23.6008
50.0000 -76.0505 31.4931
50.0000 -76.6158 -8.1027
50.0000 -15.3887 -19.6703
50.0000 -24.1270 -0.5418
50.0000 -37.4991 -32.0258
50.0000 -48.5241 -37.9134
50.0000 -81.2035 13.0540
50.0000 -59.1998 24.9413
50.0000 2.8428 3.2152
50.0000 -69.7637 29.7729
50.0000 -28.3386 -37.1766
50.0000 -22.8622 11.2873
50.0000 -61.5371 14.5716
20.0000 -83.5101 -12.1612
20.0000 -67.8812 -15.0647
20.0000 -53.6246 -14.5912
20.0000 -65.3100 -14.5745
20.0000 -77.1655 39.2374
20.0000 -82.6470 27.0462
20.0000 -63.1591 4.1111
20.0000 -11.7596 0.1350
20.0000 -83.1128 27.3067
20.0000 -47.2602 -22.0049
20.0000 -56.4384 -37.0250
20.0000 -25.4788 -26.4130
20.0000 -80.9456 4.3937
20.0000 -76.0691 3.6033
20.0000 -60.6843 23.4131
20.0000 -19.5496 -10.3405
20.0000 -78.6055 33.7149
20.0000 -37.5168 34.9654
20.0000 -31.4386 -31.4146
20.0000 -8.7548 17.0638
20.0000 -59.1691 -12.7812
20.0000 -2.8992 -9.0383
20.0000 -71.7986 28.7363
20.0000 -32.6437 -35.4377
20.0000 11.8469 20.3111
20.0000 -15.3391 -36.4521
20.0000 -33.7673 8.8352
20.0000 -67.3187 27.3352
20.0000 -77.9701 -24.1058
20.0000 7.5592 29.7053
20.0000 -52.8694 30.4411
20.0000 2.5963 15.2048
20.0000 -52.6576 37.3425
20.0000 -67.0647 -17.6611
20.0000 -60.9933 15.2419
20.0000 -18.0091 -4.4888
20.0000 -27.6160 30.3461
20.0000 -13.4048 20.5537
20.0000 -79.9395 20.6882
20.0000 12.2278 -39.2340
20.0000 -43.5043 4.0035
20.0000 -19.4536 14.0778
20.0000 -1.3350 36.4209
20.0000 -70.4605 -8.0512
20.0000 -59.8251 25.0105
20.0000 -77.1058 -19.0150
20.0000 2.4533 -17.0651
20.0000 -14.8554 -17.7398
20.0000 -13.8604 -0.2573
20.0000 -23.2047 32.7118
20.0000 -66.4564 -3.0265
20.0000 -62.3106 -18.3830
20.0000 -45.2120 1.5097
20.0000 -53.2209 13.1369
20.0000 7.2515 -37.1474
20.0000 -29.9858 33.1582
20.0000 -73.6064 -6.7868
20.0000 -54.2908 34.2756
20.0000 -29.3492 9.5506
20.0000 -70.8109 36.8685
20.0000 -38.0639 -20.7300
20.0000 6.7978 13.8041
20.0000 -27.2624 -26.3107
20.0000 -7.0069 -35.7947
20.0000 -4.6171 4.2975
20.0000 -4.1405 5.0905
20.0000 7.7821 -3.5241
20.0000 -47.0397 25.2837
20.0000 -74.9377 39.6453
20.0000 -55.0977 -6.1613
20.0000 -59.2323 -35.0194
20.0000 -79.6924 18.6969
20.0000 0.8966 -22.3887
20.0000 -81.2523 -22.8288
20.0000 -82.6244 12.2918
20.0000 -84.8244 14.4183
20.0000 -36.7641 -30.6455
20.0000 11.2087 -8.1940
20.0000 -58.0194 -22.4234
20.0000 -9.6078 29.9905
20.0000 -67.6536 22.1048
20.0000 -84.0485 22.4713
20.0000 -19.4942 -35.0501
20.0000 -83.1730 6.2539
20.0000 -56.7697 -19.0961
20.0000 -6.6623 10.7420
33.9277 15.0000 -0.6666
43.6893 15.0000 32.5685
36.0859 15.0000 -1.5757
22.0527 15.0000 -26.9116
24.9936 15.0000 -33.8955
41.9280 15.0000 -13.8884
40.7135 15.0000 -11.7682
20.7005 15.0000 -31.2982
38.5011 15.0000 -28.8767
38.9157 15.0000 -39.6545
36.1578 15.0000 38.4176
30.3648 15.0000 27.8498
34.4872 15.0000 18.6148
39.8787 15.0000 -26.1047
45.7637 15.0000 7.0476
30.9028 15.0000 -29.0549
49.2742 15.0000 -32.0424
30.2282 15.0000 2.4527
42.9805 15.0000 33.7454
35.0916 15.0000 10.6470
36.5031 15.0000 11.4293
24.7582 15.0000 2.2472
34.9603 15.0000 30.3021
20.5581 15.0000 -10.2165
23.4964 15.0000 -25.3529
31.7486 15.0000 18.7187
46.7071 15.0000 23.8644
34.5230 15.0000 -36.4640
24.4355 15.0000 -38.6043
26.3652 15.0000 39.7809
23.9056 15.0000 -10.0291
20.4180 15.0000 28.1695
21.5606 15.0000 20.5144
33.6249 15.0000 12.9826
30.0532 15.0000 -18.2196
46.4927 15.0000 -5.0955
39.7596 15.0000 26.8227
45.3729 15.0000 -24.2993
28.3708 15.0000 -34.2167
44.1209 15.0000 -9.3543
37.9000 15.0000 19.1790
31.1075 15.0000 34.1754
22.6463 15.0000 -16.2865
44.3084 15.0000 7.8332
41.8879 15.0000 11.2524
33.9610 15.0000 0.4468
40.0620 15.0000 -19.5656
20.3898 15.0000 4.5397
28.9309 15.0000 -6.4314
21.5163 15.0000 -11.6410
45.4335 15.0000 -33.5400
22.0873 15.0000 18.6619
42.0161 15.0000 18.3166
32.8211 15.0000 -25.5886
28.8318 15.0000 12.5464
41.2338 15.0000 -10.0368
45.7793 15.0000 -2.5581
46.8222 15.0000 -19.4279
44.3553 15.0000 -15.2777
45.6855 15.0000 26.3869
48.2567 15.0000 17.3773
37.6444 15.0000 -26.4445
48.1827 15.0000 -3.5631
44.5355 15.0000 30.5372
22.3815 15.0000 23.0355
33.0783 15.0000 35.7972
28.7720 15.0000 -34.4466
36.4757 15.0000 0.0151
45.3537 15.0000 25.7754
34.6341 15.0000 -1.9808
36.4513 15.0000 -26.0143
37.3746 15.0000 -6.0863
28.8085 15.0000 22.2761
20.9276 15.0000 15.6760
27.9370 15.0000 23.5887
36.9004 15.0000 -35.8532
45.6002 15.0000 -21.7682
25.8145 15.0000 -32.8699
26.4743 15.0000 4.3389
34.3604 15.0000 -32.8619
41.0779 15.0000 6.7523
43.7742 15.0000 16.6545
31.5120 15.0000 -25.1410
44.4531 15.0000 -28.4483
24.5345 15.0000 -37.0613
24.2774 -85.0000 20.2615
29.1062 -85.0000 -4.2055
44.4468 -85.0000 10.8992
46.7940 -85.0000 -4.3160
29.8766 -85.0000 -12.0985
34.4313 -85.0000 -37.2665
30.6895 -85.0000 -27.3323
41.8375 -85.0000 -39.0286
35.0356 -85.0000 34.3821
20.5017 -85.0000 -12.9341
47.6898 -85.0000 -6.9929
42.4477 -85.0000 1.1003
41.9221 -85.0000 10.0876
35.8847 -85.0000 -13.6071
31.7033 -85.0000 -12.5573
45.3996 -85.0000 -24.5763
31.3103 -85.0000 -37.9720
25.0360 -85.0000 -18.0623
49.0696 -85.0000 -25.4664
46.4494 -85.0000 23.9850
22.5099 -85.0000 -2.1968
37.1154 -85.0000 31.4203
41.6965 -85.0000 1.5985
38.8759 -85.0000 24.5879
42.8755 -85.0000 -37.9061
29.9514 -85.0000 -10.3158
47.8317 -85.0000 36.5447
38.7077 -85.0000 -31.4939
42.6779 -85.0000 -22.0289
42.0635 -85.0000 26.9326
29.2527 -85.0000 -14.2334
38.0478 -85.0000 -15.5374
33.8022 -85.0000 -4.8893
26.4821 -85.0000 -16.2752
41.5305 -85.0000 -6.2190
24.0159 -85.0000 3.3016
47.8415 -85.0000 13.5842
32.6793 -85.0000 0.7653
29.5032 -85.0000 35.2401
31.0280 -85.0000 -5.8758
29.8903 -85.0000 -30.7127
24.5350 -85.0000 -22.7096
27.8758 -85.0000 22.3201
26.9399 -85.0000 3.2627
23.0342 -85.0000 39.1810
34.2706 -85.0000 -3.8576
40.8674 -85.0000 -35.2808
38.6096 -85.0000 4.6780
30.0290 -85.0000 -5.2161
49.9229 -85.0000 -6.2440
21.2750 -85.0000 22.1820
46.3025 -85.0000 11.3315
40.0716 -85.0000 27.0225
48.1404 -85.0000 -18.1582
21.7689 -85.0000 33.8818
49.8036 -85.0000 -17.3323
44.9628 -85.0000 -31.7864
34.3639 -85.0000 24.2138
26.3119 -85.0000 -4.2884
23.6499 -85.0000 11.4740
49.4588 -85.0000 -36.5189
27.0473 -85.0000 13.1868
23.8365 -85.0000 29.8365
22.9032 -85.0000 -22.1609
38.0138 -85.0000 11.4344
44.7247 -85.0000 -16.0842
33.2775 -85.0000 6.8228
48.5997 -85.0000 -14.9526
34.8076 -85.0000 -22.9301
47.4480 -85.0000 37.8980
33.0154 -85.0000 35.4746
30.1115 -85.0000 25.0846
45.3792 -85.0000 -2.4699
39.8699 -85.0000 27.3573
46.0767 -85.0000 -8.6932
21.5019 -85.0000 13.3416
26.7847 -85.0000 -33.5992
25.9565 -85.0000 -3.4715
25.0450 -85.0000 28.1780
40.2164 -85.0000 29.3300
36.9222 -85.0000 -39.7635
29.5113 -85.0000 26.3869
38.2418 -85.0000 1.0541
46.7388 -85.0000 16.3662
35.2608 -85.0000 -8.9221
42.4435 -54.8839 40.0000
49.0318 -79.3140 40.0000
43.5387 -5.0972 40.0000
22.0283 -49.4070 40.0000
39.2247 -9.0902 40.0000
26.9814 -64.9759 40.0000
39.8420 13.4444 40.0000
37.0463 -76.2917 40.0000
47.0703 -48.1855 40.0000
48.0819 -74.6633 40.0000
28.0647 -9.4143 40.0000
49.4819 -13.5358 40.0000
36.9801 -61.3498 40.0000
28.3845 -15.0727 40.0000
28.3773 13.9677 40.0000
22.5658 -2.2904 40.0000
25.2578 -75.0499 40.0000
45.3215 -29.3758 40.0000
48.2393 -17.3680 40.0000
38.9178 -13.6331 40.0000
43.5227 -22.6854 40.0000
22.5788 -80.0847 40.0000
44.3914 -61.7065 40.0000
42.4853 -9.3947 40.0000
41.0616 -13.9860 40.0000
49.0506 -64.1514 40.0000
47.2670 -28.8953 40.0000
23.1262 -16.1215 40.0000
40.1145 -39.9457 40.0000
40.9348 -43.5310 40.0000
32.6160 -40.3315 40.0000
32.2016 -52.9013 40.0000
42.5612 -18.5778 40.0000
22.5228 -56.3877 40.0000
42.6316 -56.0470 40.0000
26.1118 -80.6357 40.0000
40.8142 7.6047 40.0000
43.6702 9.0885 40.0000
33.1523 -38.1098 40.0000
49.7511 3.0039 40.0000
44.4530 -23.4810 40.0000
36.8697 -73.2956 40.0000
49.2596 -30.1276 40.0000
32.0643 -62.9700 40.0000
34.2273 -19.7432 40.0000
44.0613 4.5784 40.0000
28.5623 -20.5375 40.0000
38.9899 -5.7968 40.0000
23.1699 -35.9206 40.0000
36.4504 -55.6183 40.0000
45.1764 -18.3686 40.0000
28.8880 -23.4864 40.0000
21.1331 -36.4227 40.0000
29.8530 -21.4955 40.0000
33.4436 -48.2450 40.0000
32.9368 -19.0166 40.0000
47.8297 -40.6625 40.0000
42.4006 -6.2506 40.0000
36.0886 -76.4647 40.0000
40.2143 -71.8193 40.0000
48.0457 -60.4540 40.0000
40.6760 -79.2545 40.0000
49.0207 -5.2127 40.0000
24.1560 12.9191 40.0000
37.0288 -39.9793 40.0000
48.3115 -9.8373 40.0000
32.9289 -69.9914 40.0000
23.4219 -32.9918 40.0000
38.1036 -62.6479 40.0000
40.7703 -48.8625 40.0000
41.4209 -61.8683 40.0000
34.6670 -7.3277 40.0000
29.1645 -29.0203 40.0000
44.7068 7.5719 40.0000
23.3087 7.2588 40.0000
41.3228 -45.5800 40.0000
45.0292 -66.5818 40.0000
28.3059 -34.0441 40.0000
29.0120 -69.6250 40.0000
46.9745 -20.4124 40.0000
20.8958 -1.9137 40.0000
46.6581 -56.4017 40.0000
48.0287 5.1433 40.0000
24.9896 -21.1861 40.0000
33.2732 -45.3319 40.0000
21.9540 -57.3858 -40.0000
34.5390 -35.5124 -40.0000
26.9831 -48.1991 -40.0000
35.8061 -61.0520 -40.0000
42.9605 -79.1310 -40.0000
29.7530 -10.4326 -40.0000
38.1916 -25.1821 -40.0000
21.0387 9.1375 -40.0000
43.0885 -32.8052 -40.0000
40.1095 -36.3592 -40.0000
40.0373 -17.9923 -40.0000
30.5507 -23.5469 -40.0000
22.0938 -55.4277 -40.0000
49.8365 -52.5701 -40.0000
39.2476 -6.3311 -40.0000
22.1635 -10.9865 -40.0000
43.9373 -33.7180 -40.0000
35.3932 -78.7755 -40.0000
32.2440 -19.2955 -40.0000
32.1244 -45.7734 -40.0000
23.7790 -65.7543 -40.0000
35.0078 -27.4689 -40.0000
20.7974 -10.2637 -40.0000
29.5814 -44.5131 -40.0000
32.4095 -21.4495 -40.0000
24.6606 12.2198 -40.0000
23.7884 1.8491 -40.0000
34.3121 -50.0976 -40.0000
43.5722 -11.5825 -40.0000
48.9244 -58.4278 -40.0000
26.8075 -16.5986 -40.0000
47.6051 -52.4430 -40.0000
49.2724 -56.8464 -40.0000
33.8449 -58.6142 -40.0000
46.6780 -66.5433 -40.0000
23.3833 -55.8312 -40.0000
47.2923 4.1939 -40.0000
48.2821 -59.9073 -40.0000
35.7962 -30.3790 -40.0000
23.1236 -14.1893 -40.0000
38.2595 -19.7702 -40.0000
22.4560 14.2214 -40.0000
34.5945 -81.9951 -40.0000
23.5690 -20.1666 -40.0000
32.3600 -16.0191 -40.0000
49.8726 -25.2575 -40.0000
28.1018 -29.9335 -40.0000
42.9645 -2.4190 -40.0000
41.7637 7.1400 -40.0000
44.8848 -29.9680 -40.0000
43.7088 -30.6659 -40.0000
22.1114 -32.9363 -40.0000
45.1050 -38.3675 -40.0000
24.3067 -21.8459 -40.0000
40.7174 -75.7687 -40.0000
36.1438 8.1466 -40.0000
23.7210 -43.7007 -40.0000
20.6671 -44.5011 -40.0000
33.4390 -15.5315 -40.0000
31.1445 -74.2105 -40.0000
24.4547 -57.2258 -40.0000
41.4072 -38.1975 -40.0000
36.9588 -2.0268 -40.0000
24.6670 -33.2395 -40.0000
24.9478 -45.8742 -40.0000
44.2594 -61.9522 -40.0000
42.6005 7.1749 -40.0000
34.8053 -45.2678 -40.0000
20.0224 -2.3769 -40.0000
23.2423 -56.7425 -40.0000
41.4306 -2.9206 -40.0000
36.0444 -49.3196 -40.0000
35.5393 13.3203 -40.0000
33.6396 12.2640 -40.0000
31.8308 -60.5718 -40.0000
29.8898 -23.8940 -40.0000
43.2791 0.4455 -40.0000
24.5094 -73.1601 -40.0000
24.1198 -78.4067 -40.0000
28.0311 -18.9792 -40.0000
36.6119 -83.3700 -40.0000
23.6455 -44.3660 -40.0000
28.4717 -6.8100 -40.0000
30.6529 -8.1387 -40.0000
44.4415 -51.8597 -40.0000
