ply
format ascii 1.0
element vertex 1024
property float x
property float y
property float z
end_header
50.0000 -9.2085 -15.3271
50.0000 5.5427 8.9745
50.0000 -9.1739 -20.2044
50.0000 -7.9619 19.2852
50.0000 9.7128 26.0661
50.0000 -5.9947 -16.7059
50.0000 4.4939 25.7444
50.0000 11.8578 -19.6754
50.0000 -11.0905 -6.6620
50.0000 -5.1331 8.3017
50.0000 -5.1477 20.1276
50.0000 -8.5831 12.1558
50.0000 -5.3624 -7.3039
50.0000 -6.9708 25.3854
50.0000 9.7105 27.4744
50.0000 13.0355 4.7409
50.0000 -4.7005 13.0847
50.0000 5.9948 18.0418
50.0000 -6.4668 -10.1056
50.0000 -1.8722 -9.9355
50.0000 -0.9525 -6.1467
50.0000 -13.3487 13.7449
50.0000 9.8147 -22.3499
50.0000 -2.2518 -29.6735
50.0000 -6.0218 6.4487
50.0000 6.6824 3.2841
50.0000 -10.0493 17.9586
50.0000 0.9924 17.3573
50.0000 11.0719 -21.8182
50.0000 14.5035 -23.4585
50.0000 10.8835 -28.4489
50.0000 14.7291 -24.9585
50.0000 -3.2238 -15.1821
50.0000 1.5815 -6.7689
50.0000 -4.3378 -26.3041
50.0000 9.6980 21.3744
50.0000 -7.4108 22.5225
50.0000 1.0143 -13.3352
50.0000 -10.0956 9.2027
50.0000 -10.7438 21.9918
50.0000 3.5675 16.2881
50.0000 -11.9677 2.6514
50.0000 0.2064 26.0897
50.0000 -6.4823 -5.8639
50.0000 -9.8608 -20.1847
50.0000 3.3582 21.7952
50.0000 -7.4710 -20.4163
50.0000 -6.9261 -18.1195
50.0000 -3.8197 -19.8830
50.0000 -3.3869 8.2199
50.0000 -1.8483 -21.2582
50.0000 8.5857 19.1489
50.0000 14.4994 6.2144
50.0000 7.4911 -18.0811
50.0000 -11.4259 -5.8677
50.0000 0.6731 20.9831
50.0000 -0.6402 -28.3806
50.0000 -5.9877 27.5541
50.0000 -7.0386 21.6724
50.0000 2.0425 -19.0189
50.0000 12.3856 3.3748
50.0000 14.2083 24.4624
50.0000 -7.5210 -11.7443
50.0000 -7.4789 -8.1551
50.0000 -2.2163 4.0714
50.0000 6.3614 -20.1559
50.0000 0.5506 -26.1291
50.0000 8.3997 10.4905
50.0000 -4.0995 -27.2754
50.0000 -8.8232 -21.2293
50.0000 1.2600 -7.6875
50.0000 -10.7979 4.9251
50.0000 12.8788 28.2314
50.0000 -14.5758 -22.6087
50.0000 9.7133 11.8750
50.0000 14.9884 -0.2034
50.0000 5.3662 -2.6352
50.0000 1.4938 1.3081
50.0000 10.1323 17.9546
50.0000 -3.3662 24.3264
50.0000 -4.6989 -22.7857
50.0000 13.9080 -24.0543
50.0000 -11.0353 -0.3709
50.0000 10.7163 -19.5846
50.0000 -14.5102 1.6090
50.0000 9.1333 25.6777
-50.0000 -11.0409 0.9240
-50.0000 -6.4557 -16.0714
-50.0000 7.4496 8.5420
-50.0000 10.0310 20.6230
-50.0000 -13.0320 21.7274
-50.0000 -4.6223 6.8683
-50.0000 8.7503 -28.2750
-50.0000 1.4860 -4.4237
-50.0000 -12.7381 -28.3878
-50.0000 -11.3447 -0.6839
-50.0000 -6.6699 27.0471
-50.0000 -1.5132 -17.1264
-50.0000 9.8260 26.1721
-50.0000 -8.6260 29.6501
-50.0000 -9.8990 -29.9043
-50.0000 4.7553 -1.3326
-50.0000 -7.2530 5.1175
-50.0000 0.1846 27.0299
-50.0000 -12.0911 -25.1524
-50.0000 -5.4000 -1.6381
-50.0000 -10.2555 9.7665
-50.0000 7.6644 -17.8786
-50.0000 1.2869 -14.8916
-50.0000 -3.8382 -5.7515
-50.0000 -13.8195 -22.2296
-50.0000 -2.6516 -14.9469
-50.0000 6.1619 28.3310
-50.0000 14.2072 12.8719
-50.0000 -12.2057 -4.8649
-50.0000 -5.6115 19.5326
-50.0000 5.6968 -8.9510
-50.0000 -10.5075 -22.4314
-50.0000 4.9807 15.4875
-50.0000 8.7504 15.1188
-50.0000 -11.9718 -28.4177
-50.0000 3.2378 26.9668
-50.0000 -8.9042 -29.5838
-50.0000 0.1241 29.5385
-50.0000 -6.3008 -16.4580
-50.0000 4.9990 -6.5139
-50.0000 -10.9414 21.6469
-50.0000 -10.1765 -28.2328
-50.0000 -14.2828 23.1854
-50.0000 -13.6047 -19.9419
-50.0000 -6.6108 -29.6201
-50.0000 14.7234 10.2567
-50.0000 5.1985 -18.8920
-50.0000 10.4255 19.8641
-50.0000 -6.7378 0.2392
-50.0000 -7.3273 28.0927
-50.0000 -13.3571 4.5164
-50.0000 -10.6960 14.9166
-50.0000 -7.1765 0.6654
-50.0000 10.8341 3.0107
-50.0000 -3.7329 25.7705
-50.0000 -6.0273 -21.8313
-50.0000 10.4912 -18.1303
-50.0000 -7.6806 -2.3729
-50.0000 12.0856 -26.3358
-50.0000 14.6887 23.0619
-50.0000 -14.1165 -16.4756
-50.0000 14.4554 -13.2396
-50.0000 14.2346 22.3514
-50.0000 2.1509 -4.7402
-50.0000 2.6819 15.3444
-50.0000 -12.9797 -28.1006
-50.0000 -13.6139 4.5960
-50.0000 -11.8933 29.1723
-50.0000 3.6964 -17.9054
-50.0000 0.4124 -24.0774
-50.0000 -4.8692 -0.3515
-50.0000 5.3844 -10.8217
-50.0000 2.5055 17.2736
-50.0000 2.1093 12.4854
-50.0000 -1.5391 19.8281
-50.0000 -4.3818 -16.9464
-50.0000 -5.5394 -29.3850
-50.0000 12.8643 -13.7048
-50.0000 -5.8239 -26.3850
-50.0000 7.2496 -18.6397
-50.0000 -12.1865 -17.6369
-50.0000 -7.3841 -10.5252
-50.0000 -8.9577 11.4029
-50.0000 -6.4110 -0.7334
-50.0000 -6.6073 25.2211
-50.0000 0.0860 11.3197
-18.9258 15.0000 -22.1300
-42.1235 15.0000 -7.7455
-0.6194 15.0000 5.2337
-28.4158 15.0000 24.9047
-38.9203 15.0000 -19.9528
45.5298 15.0000 9.1886
-0.2348 15.0000 -27.2988
39.1037 15.0000 9.8877
32.3733 15.0000 6.5344
-20.3066 15.0000 -25.8101
15.0070 15.0000 0.9140
3.3832 15.0000 13.8796
-23.1941 15.0000 -24.8659
-28.3756 15.0000 4.2413
25.3532 15.0000 -29.8019
32.9282 15.0000 -16.1458
49.5943 15.0000 22.2635
2.7604 15.0000 -6.0987
-22.2185 15.0000 17.6153
-32.9875 15.0000 26.8693
31.4183 15.0000 -13.9706
-27.3863 15.0000 -9.8804
-38.2097 15.0000 -22.4359
44.7125 15.0000 -16.8907
10.2913 15.0000 -9.4794
37.2026 15.0000 12.4436
-38.4896 15.0000 -17.2656
-0.5885 15.0000 -20.0913
33.5058 15.0000 10.4584
-29.3011 15.0000 -16.7631
-0.8643 15.0000 19.7919
-23.2176 15.0000 -27.5334
13.3415 15.0000 -3.2380
38.7765 15.0000 18.6548
-47.3833 15.0000 -0.0737
28.8298 15.0000 9.5183
4.9427 15.0000 -4.0312
38.1256 15.0000 18.0804
-7.2195 15.0000 -9.7990
-22.6003 15.0000 9.3305
46.4842 15.0000 19.9962
26.9499 15.0000 13.2090
-28.9141 15.0000 10.2346
7.1578 15.0000 -5.3598
48.1492 15.0000 17.7494
-29.1411 15.0000 -0.5119
-1.8994 15.0000 3.2822
-27.6212 15.0000 20.3744
46.5432 15.0000 21.3253
30.4561 15.0000 -4.0639
-40.0608 15.0000 -27.4332
12.7273 15.0000 15.4008
-30.8003 15.0000 -13.2279
-30.5562 15.0000 -3.0817
-25.0678 15.0000 24.9120
31.3100 15.0000 25.6029
-37.4190 15.0000 27.7929
-34.2244 15.0000 -21.1682
-34.1082 15.0000 25.4788
21.8124 15.0000 -12.9743
39.1983 15.0000 1.6339
-22.5615 15.0000 -4.1375
-27.0496 15.0000 12.6801
42.0588 15.0000 -2.9848
-25.1385 15.0000 23.5810
-47.8100 15.0000 -29.5132
-31.7646 15.0000 -19.9704
33.5064 15.0000 -9.2306
27.2549 15.0000 -24.9965
-34.4615 15.0000 16.6017
-0.8058 15.0000 -7.1406
-38.4142 15.0000 8.9446
36.2552 15.0000 -23.3811
29.6993 15.0000 24.1443
-33.7912 15.0000 -0.8554
9.4091 15.0000 28.8216
-32.9474 15.0000 -5.3066
2.0575 15.0000 -29.9812
-6.0690 15.0000 23.5945
1.1280 15.0000 -7.8299
30.7159 15.0000 -10.7986
-4.2870 15.0000 0.5754
21.5853 15.0000 20.1564
-27.3253 15.0000 18.9783
-18.2962 15.0000 -28.2163
-0.1965 -15.0000 -28.5436
-0.0395 -15.0000 -11.3084
0.1452 -15.0000 -4.5480
-46.2526 -15.0000 -23.5594
-20.1549 -15.0000 2.1353
-35.8429 -15.0000 -15.7191
46.5072 -15.0000 8.7956
-9.8106 -15.0000 -15.4928
-49.5073 -15.0000 -21.8255
-16.8230 -15.0000 -23.8240
20.2058 -15.0000 17.4142
5.0727 -15.0000 -29.8890
-41.5483 -15.0000 -23.8784
-43.7389 -15.0000 20.7212
-10.5970 -15.0000 2.4233
8.8490 -15.0000 -6.9994
13.6983 -15.0000 -17.8053
-46.0194 -15.0000 -5.5312
-8.1839 -15.0000 7.1694
39.6603 -15.0000 -1.0193
12.3445 -15.0000 19.7959
-36.7516 -15.0000 -3.1907
36.1070 -15.0000 -10.8821
-43.0489 -15.0000 -25.8360
40.8032 -15.0000 -2.6878
47.0236 -15.0000 22.0446
-26.9298 -15.0000 -24.3472
-41.2786 -15.0000 -27.7301
33.5447 -15.0000 11.9324
-38.6114 -15.0000 16.7370
38.5465 -15.0000 -13.5351
33.0495 -15.0000 21.9926
-3.4717 -15.0000 18.7892
-5.6691 -15.0000 -12.4718
43.0355 -15.0000 -9.4957
-7.0081 -15.0000 26.6797
7.1314 -15.0000 -4.4288
6.8696 -15.0000 -11.8347
16.2201 -15.0000 29.5341
6.4210 -15.0000 3.0063
-24.8235 -15.0000 25.7004
-24.3787 -15.0000 28.2528
-19.2878 -15.0000 -23.7517
-16.9549 -15.0000 -6.7432
4.6918 -15.0000 26.6806
22.3287 -15.0000 8.4848
39.4584 -15.0000 29.1628
-16.6013 -15.0000 -23.2739
-11.3579 -15.0000 -4.0788
32.1794 -15.0000 -27.1208
-16.9762 -15.0000 13.8019
18.6436 -15.0000 1.3865
14.8459 -15.0000 -18.8874
36.9387 -15.0000 -0.2821
49.7532 -15.0000 -27.4131
0.2682 -15.0000 -7.3810
20.0489 -15.0000 -7.4608
-23.5217 -15.0000 3.1849
-23.6665 -15.0000 26.3124
41.7412 -15.0000 11.7037
0.6356 -15.0000 -5.9680
24.6676 -15.0000 12.1137
-45.7609 -15.0000 -19.0511
31.2398 -15.0000 14.9762
-38.0762 -15.0000 -11.1093
-32.3110 -15.0000 14.2598
7.3846 -15.0000 -18.5411
41.7905 -15.0000 -3.7219
18.3661 -15.0000 -20.1200
28.3856 -15.0000 27.2136
17.1367 -15.0000 -5.2026
11.8392 -15.0000 -15.9411
-40.5207 -15.0000 -18.5435
-34.3775 -15.0000 16.1983
13.0287 -15.0000 14.5666
-21.3549 -15.0000 -3.6608
3.3059 -15.0000 10.1800
-18.4850 -15.0000 5.7615
39.4384 -15.0000 20.3890
-29.0877 -15.0000 -8.0305
-41.5437 -15.0000 -8.7130
-14.9913 -15.0000 -17.9264
-7.6506 -15.0000 -6.1021
38.8439 -15.0000 6.9699
-26.3349 -15.0000 -11.4788
-7.1572 2.8710 30.0000
12.6300 11.4702 30.0000
-37.8599 -13.1478 30.0000
-14.6390 9.5172 30.0000
10.3300 -1.7311 30.0000
-6.8963 11.6514 30.0000
49.7776 8.9527 30.0000
19.2989 -6.0014 30.0000
-3.7184 14.7945 30.0000
37.8707 8.7633 30.0000
13.3254 -1.0996 30.0000
-25.9326 -1.7561 30.0000
14.3517 -7.3140 30.0000
-40.3403 -11.8311 30.0000
-32.0405 -13.8460 30.0000
-33.4131 4.8665 30.0000
-43.9161 -12.4730 30.0000
36.2999 9.0215 30.0000
-35.7900 9.8875 30.0000
-1.0999 -11.6690 30.0000
36.2425 5.8414 30.0000
-49.7158 12.2095 30.0000
34.2747 5.6382 30.0000
-25.3866 10.3261 30.0000
12.5508 0.5959 30.0000
-30.0201 -2.2757 30.0000
-24.5837 -13.8684 30.0000
-15.9797 -10.6118 30.0000
38.0720 12.0214 30.0000
47.2953 -0.1895 30.0000
38.2222 14.7023 30.0000
-29.3827 8.7418 30.0000
5.3040 7.2069 30.0000
30.0027 -0.1400 30.0000
-39.3515 -12.6538 30.0000
25.1146 -4.1901 30.0000
36.2531 11.9106 30.0000
28.6813 11.0288 30.0000
-44.5168 -14.8246 30.0000
-26.5668 -3.6271 30.0000
6.9899 -2.6617 30.0000
4.6558 4.5607 30.0000
6.0821 11.6269 30.0000
39.4764 -6.7490 30.0000
-23.9470 -12.0931 30.0000
-20.8588 -11.4008 30.0000
48.5606 -7.8092 30.0000
-42.5669 -14.1342 30.0000
13.3892 -14.9516 30.0000
-30.9598 -4.3614 30.0000
46.5844 6.7806 30.0000
27.8450 -4.4983 30.0000
24.6909 -0.9748 30.0000
-0.9483 5.9459 30.0000
31.2928 -9.0991 30.0000
-46.7524 8.1462 30.0000
22.3023 7.9877 30.0000
-16.7172 -3.5220 30.0000
-49.3279 -13.7193 30.0000
-20.4573 8.9987 30.0000
39.9655 -10.8326 30.0000
41.5302 -11.8717 30.0000
47.5682 -4.8618 30.0000
-35.3968 12.1239 30.0000
-17.5414 -12.9759 30.0000
28.0415 6.4337 30.0000
-6.2317 -14.2116 30.0000
-41.6584 8.0916 30.0000
-30.3649 -2.3314 30.0000
-17.0791 9.2177 30.0000
-49.1704 1.0841 30.0000
-17.6842 -1.5917 30.0000
22.0307 3.5805 30.0000
-1.2665 -9.3585 30.0000
12.9125 7.6434 30.0000
41.0494 -1.2071 30.0000
47.0939 8.6226 30.0000
-36.0465 5.3955 30.0000
-0.6501 10.8482 30.0000
-46.9902 11.2914 30.0000
4.0906 -11.5822 30.0000
-24.4328 -1.5972 30.0000
21.2741 6.4430 30.0000
-16.5016 9.7335 30.0000
49.9161 13.7160 30.0000
16.1645 2.2649 -30.0000
38.1361 1.6504 -30.0000
6.2150 0.0482 -30.0000
46.9022 10.6573 -30.0000
41.1724 -3.3028 -30.0000
32.0517 -9.6077 -30.0000
15.4289 -12.3674 -30.0000
-19.5631 8.0272 -30.0000
-45.8512 -0.2546 -30.0000
-10.9727 11.4728 -30.0000
-17.7037 8.1614 -30.0000
18.2576 3.1109 -30.0000
5.7870 8.1210 -30.0000
19.6185 1.3339 -30.0000
-23.0844 5.1209 -30.0000
-16.9547 -2.7861 -30.0000
-49.6611 -1.3589 -30.0000
47.7207 14.4287 -30.0000
-47.8533 6.3103 -30.0000
-34.2234 3.8856 -30.0000
36.3770 -7.6582 -30.0000
-38.5134 -4.3458 -30.0000
-10.2797 -9.7774 -30.0000
-45.2562 10.5083 -30.0000
-28.4525 -5.2286 -30.0000
-16.7351 8.9810 -30.0000
43.4638 5.4637 -30.0000
33.2360 -14.4601 -30.0000
-11.2644 -4.8063 -30.0000
-43.6288 -6.7405 -30.0000
-15.6071 -10.3424 -30.0000
21.4315 13.6231 -30.0000
18.7129 -2.9403 -30.0000
48.0427 5.9416 -30.0000
4.1797 6.6423 -30.0000
23.2968 -0.0965 -30.0000
36.8032 -0.1771 -30.0000
-25.9468 10.9010 -30.0000
23.7877 0.2127 -30.0000
-36.6568 -12.0460 -30.0000
11.9710 6.4682 -30.0000
-44.9699 -7.2565 -30.0000
-31.8877 3.8043 -30.0000
-28.9566 -0.4971 -30.0000
43.9278 3.7504 -30.0000
-27.6966 -10.9842 -30.0000
36.5667 -5.9335 -30.0000
30.3514 -5.8561 -30.0000
2.8788 3.2363 -30.0000
-15.6705 -5.1526 -30.0000
-43.7035 -13.1768 -30.0000
-45.1688 -6.1468 -30.0000
18.7602 -3.7869 -30.0000
47.4084 -13.9379 -30.0000
32.0662 -6.4039 -30.0000
14.2230 -11.1957 -30.0000
-29.2365 10.6433 -30.0000
4.1424 -0.8834 -30.0000
-8.4628 9.6663 -30.0000
-0.8729 11.2543 -30.0000
-40.8588 -5.7649 -30.0000
-24.7780 -14.0594 -30.0000
25.6845 2.1937 -30.0000
-37.2928 -0.9337 -30.0000
-18.4062 -8.8783 -30.0000
-30.4891 -13.6940 -30.0000
-42.5449 -0.6844 -30.0000
0.6516 12.2349 -30.0000
49.3154 -14.9271 -30.0000
2.4576 13.2845 -30.0000
-17.1730 5.5987 -30.0000
-35.0526 6.7812 -30.0000
20.1057 -1.0824 -30.0000
20.0239 -11.8707 -30.0000
-18.1256 8.3787 -30.0000
21.8079 -11.5195 -30.0000
44.0565 -13.3976 -30.0000
26.7592 -14.0354 -30.0000
45.8144 14.9059 -30.0000
0.0901 8.2224 -30.0000
-29.9143 -2.7096 -30.0000
30.6567 7.6962 -30.0000
6.6479 7.0888 -30.0000
29.9751 -8.8300 -30.0000
-24.4019 8.9727 -30.0000
15.0000 84.9814 -26.1680
15.0000 47.9223 -18.8166
15.0000 50.3423 3.1626
15.0000 0.5556 26.6949
15.0000 -6.6647 9.0750
15.0000 54.6329 27.8903
15.0000 0.7216 23.6544
15.0000 58.0882 19.7130
15.0000 24.1616 26.2631
15.0000 8.9357 6.2242
15.0000 48.8312 11.8840
15.0000 78.7002 -22.4575
15.0000 53.1443 27.0207
15.0000 13.8953 1.1865
15.0000 75.3560 -9.6917
15.0000 79.4954 3.8979
15.0000 4.5584 26.2032
15.0000 57.5359 8.2328
15.0000 35.2570 29.2830
15.0000 7.2367 7.8769
15.0000 76.7514 -7.6003
15.0000 -2.4797 8.1699
15.0000 1.9828 -3.9962
15.0000 52.7957 2.9569
15.0000 72.5092 26.9860
15.0000 49.9675 -2.1928
15.0000 20.3161 -16.4269
15.0000 -3.7452 -24.1121
15.0000 -1.9422 24.0220
15.0000 -8.1938 -18.5063
15.0000 37.2893 1.1193
15.0000 20.6233 2.1271
15.0000 54.4995 -28.0202
15.0000 -13.5981 -2.4125
15.0000 10.9378 -7.5960
15.0000 79.8655 -16.7233
15.0000 38.3160 -24.2227
15.0000 69.4166 -12.2331
15.0000 57.6817 -22.2308
15.0000 41.5955 -7.9824
15.0000 67.8260 -19.2653
15.0000 68.1430 3.5117
15.0000 54.8481 2.7600
15.0000 5.0240 -1.8810
15.0000 14.9052 29.3750
15.0000 9.3942 15.0224
15.0000 -7.7966 -10.7650
15.0000 15.6189 29.6898
15.0000 33.6863 25.2915
15.0000 68.0782 -28.5044
15.0000 4.5373 -5.2224
15.0000 80.7823 -21.4340
15.0000 2.9289 23.8331
15.0000 -5.4603 24.9522
15.0000 23.8741 21.0328
15.0000 1.0605 -11.1589
15.0000 10.3824 22.7758
15.0000 43.4732 -16.4096
15.0000 19.6158 5.0151
15.0000 51.7201 -1.8222
15.0000 81.6498 13.6574
15.0000 21.5829 -21.2741
15.0000 17.0675 -11.4928
15.0000 23.0505 16.4119
15.0000 59.2072 13.8029
15.0000 43.8825 4.7522
15.0000 -1.3850 16.1103
15.0000 48.1018 -11.0220
15.0000 -3.7815 -14.8007
15.0000 78.7090 27.8186
15.0000 53.6408 14.1761
15.0000 83.0572 -14.1488
15.0000 44.9517 -7.0886
15.0000 35.5144 -27.4949
15.0000 77.3665 -22.2866
15.0000 31.6758 -9.0049
15.0000 76.1730 8.1363
15.0000 -5.3149 1.9617
15.0000 10.8382 -21.3221
15.0000 21.5379 -8.5502
15.0000 72.5352 -14.4698
15.0000 70.0359 -17.9210
15.0000 19.3927 -3.0097
15.0000 65.2448 14.4793
15.0000 62.6269 -21.9144
15.0000 24.2953 -1.7740
-15.0000 18.0977 -15.5325
-15.0000 29.3384 3.2902
-15.0000 21.1284 -6.9680
-15.0000 42.9109 -8.1206
-15.0000 23.1991 -3.5533
-15.0000 49.7534 3.6886
-15.0000 2.6353 4.8505
-15.0000 14.9071 -27.4848
-15.0000 29.8400 -26.3253
-15.0000 19.8529 -15.1697
-15.0000 11.7560 5.9286
-15.0000 79.9598 -3.5250
-15.0000 18.3274 29.8550
-15.0000 24.0419 -8.9962
-15.0000 21.7525 29.6113
-15.0000 43.0748 5.9677
-15.0000 -9.2777 2.5269
-15.0000 36.0250 14.5843
-15.0000 52.8823 -13.0956
-15.0000 -11.0357 9.8083
-15.0000 75.5166 -10.1746
-15.0000 20.0800 -21.0944
-15.0000 71.8724 -19.6072
-15.0000 70.8571 -11.3173
-15.0000 77.8035 -28.5074
-15.0000 46.2141 -27.9002
-15.0000 59.2298 5.5786
-15.0000 53.7999 -28.3194
-15.0000 84.1400 -28.9316
-15.0000 27.5274 28.2143
-15.0000 24.5254 -27.9108
-15.0000 1.8202 -18.2773
-15.0000 16.9668 19.1394
-15.0000 16.9726 25.4927
-15.0000 54.9026 -20.6757
-15.0000 -11.6636 19.6212
-15.0000 30.2211 -18.7956
-15.0000 46.8171 9.8588
-15.0000 60.4577 -28.9417
-15.0000 25.8628 16.0406
-15.0000 20.1250 -20.3391
-15.0000 33.2141 -1.9178
-15.0000 83.1457 -13.5141
-15.0000 65.5603 20.6318
-15.0000 0.1707 9.4478
-15.0000 -2.4486 -25.7969
-15.0000 77.9445 -2.7326
-15.0000 31.6363 -13.8640
-15.0000 80.6301 23.4976
-15.0000 67.5749 -6.6293
-15.0000 2.8229 28.4309
-15.0000 50.9332 -10.8315
-15.0000 56.7179 -7.5812
-15.0000 30.6080 24.1088
-15.0000 58.0077 23.4218
-15.0000 28.7877 -16.3211
-15.0000 70.9496 -11.8786
-15.0000 70.7683 -9.9382
-15.0000 27.5171 1.4810
-15.0000 -3.0716 5.3896
-15.0000 32.6619 -2.1983
-15.0000 55.8514 28.6394
-15.0000 11.7559 -5.8340
-15.0000 13.3416 -21.0403
-15.0000 63.6398 4.8593
-15.0000 31.6097 -4.4903
-15.0000 78.1081 -26.6422
-15.0000 7.7654 26.8968
-15.0000 -5.1171 28.6269
-15.0000 13.7534 16.4040
-15.0000 67.7768 -9.8142
-15.0000 37.3951 18.0794
-15.0000 41.7089 -28.5800
-15.0000 -9.5686 8.1280
-15.0000 11.3018 27.9535
-15.0000 5.4661 2.3446
-15.0000 79.7312 10.8949
-15.0000 63.5188 10.4682
-15.0000 36.9767 10.2868
-15.0000 52.3697 -10.6841
-15.0000 -10.7618 12.1417
-15.0000 0.9784 2.2634
-15.0000 70.5732 -10.8346
-15.0000 47.1682 -10.3603
-15.0000 69.0931 29.5278
-15.0000 73.3954 -3.6642
-0.4077 85.0000 -17.3395
-11.5544 85.0000 -8.7827
10.6083 85.0000 -23.5934
-5.2651 85.0000 27.0703
-10.5736 85.0000 12.2195
7.8260 85.0000 -29.4413
-8.6098 85.0000 -15.1122
-1.6589 85.0000 5.0460
-4.6976 85.0000 20.6142
1.1018 85.0000 19.9774
-9.5659 85.0000 19.3211
8.1395 85.0000 14.9634
0.6098 85.0000 -7.5423
-2.4097 85.0000 5.5314
-5.1907 85.0000 -28.6760
0.7161 85.0000 -15.7249
9.0111 85.0000 12.6716
5.1563 85.0000 -27.5999
-9.2956 85.0000 29.7226
-6.0956 85.0000 28.7321
1.3770 85.0000 29.9031
13.2281 85.0000 7.8695
5.4327 85.0000 -8.9494
-7.1036 85.0000 22.5816
-8.7489 85.0000 -18.2770
-5.0113 85.0000 -19.5084
-3.1619 85.0000 16.0890
3.0077 85.0000 25.9386
-6.4812 85.0000 9.0457
12.7213 85.0000 1.6146
9.3338 85.0000 23.4541
13.9201 85.0000 -17.7723
8.7501 85.0000 22.7849
5.5278 85.0000 -5.6060
-14.7493 85.0000 13.7144
4.4996 85.0000 -27.6653
-1.2602 85.0000 22.9264
-13.2080 85.0000 -17.5566
-3.8555 85.0000 -16.5751
-14.7087 85.0000 14.4582
8.2127 85.0000 -23.8508
-6.1281 85.0000 23.3029
-6.5374 85.0000 -10.9921
5.4857 85.0000 -14.3578
-8.3115 85.0000 1.3309
-7.2947 85.0000 -29.8396
-9.4260 85.0000 5.6676
-11.2600 85.0000 28.6792
-4.1382 85.0000 15.8214
-11.5674 85.0000 13.9078
12.9777 85.0000 -25.1928
-5.3360 85.0000 -7.8456
-8.8122 85.0000 0.4237
6.3749 85.0000 12.7484
-12.9448 85.0000 27.0024
-2.0382 85.0000 -21.7788
-10.5206 85.0000 6.3872
-3.6271 85.0000 5.0087
13.3927 85.0000 -4.4402
11.3355 85.0000 19.6944
5.5284 85.0000 -1.2937
8.1120 85.0000 25.4548
-4.2504 85.0000 -14.9843
-9.2501 85.0000 -25.1127
11.7665 85.0000 -3.4224
0.4873 85.0000 -2.5061
-2.8012 85.0000 -25.8104
14.0577 85.0000 -15.0437
-11.7277 85.0000 28.6369
7.9147 85.0000 18.8043
12.9930 85.0000 -29.2369
-4.6148 85.0000 9.0422
-4.4889 85.0000 -14.1652
-10.9494 85.0000 14.2492
-9.8851 85.0000 -10.5325
2.4823 85.0000 4.9174
10.9592 85.0000 -4.9382
-10.7226 85.0000 -25.3142
6.6328 85.0000 21.9267
1.7109 85.0000 -1.3718
5.7974 85.0000 -11.5197
-7.5691 85.0000 2.5509
-12.6564 85.0000 -22.2782
14.0665 85.0000 -2.6452
-7.7537 85.0000 22.5998
-13.1868 -15.0000 -8.4393
-13.0516 -15.0000 -17.1192
-6.8277 -15.0000 8.6400
-11.9174 -15.0000 28.5734
12.0166 -15.0000 21.5297
-2.2697 -15.0000 7.7292
10.8836 -15.0000 -27.0187
11.5266 -15.0000 7.3357
-6.1909 -15.0000 -29.6978
-9.8601 -15.0000 20.4140
4.5747 -15.0000 16.6974
10.7470 -15.0000 -28.5019
-4.5049 -15.0000 21.8039
-9.7892 -15.0000 27.7111
9.5639 -15.0000 -6.9195
8.6902 -15.0000 -12.7503
-2.9871 -15.0000 13.4121
-4.9542 -15.0000 -25.9189
1.8708 -15.0000 5.4383
9.6285 -15.0000 -9.7638
-3.8507 -15.0000 8.4551
-11.2924 -15.0000 27.9765
8.2215 -15.0000 11.7922
-11.8959 -15.0000 -14.7172
-0.5121 -15.0000 3.0573
3.2281 -15.0000 -15.0429
-0.6220 -15.0000 3.4795
2.4047 -15.0000 8.1123
-14.6772 -15.0000 -29.0227
8.6389 -15.0000 23.5394
-6.2450 -15.0000 -28.3097
-14.0607 -15.0000 21.7798
-2.4979 -15.0000 24.8824
-9.6441 -15.0000 2.2765
-5.2642 -15.0000 -6.5900
5.0255 -15.0000 21.8695
-4.4474 -15.0000 22.3938
-1.3346 -15.0000 -18.1007
-10.9624 -15.0000 -12.2683
4.8717 -15.0000 15.1854
11.0745 -15.0000 -29.7171
8.8007 -15.0000 20.2454
-14.9441 -15.0000 11.5405
-2.0749 -15.0000 15.2605
-6.5891 -15.0000 12.8938
-13.1383 -15.0000 24.0286
2.6486 -15.0000 5.2292
10.4529 -15.0000 -1.2685
2.7258 -15.0000 -6.9540
-13.7142 -15.0000 -26.4115
-0.3977 -15.0000 2.4411
11.2621 -15.0000 6.1813
2.0551 -15.0000 -15.7183
8.5566 -15.0000 -16.8771
-2.0671 -15.0000 -15.4551
13.6449 -15.0000 13.0763
-2.5535 -15.0000 -22.1588
-3.3987 -15.0000 28.8552
-5.0590 -15.0000 -22.9594
2.0461 -15.0000 15.0852
10.6528 -15.0000 6.7970
2.7182 -15.0000 23.4941
14.2329 -15.0000 4.6883
2.6614 -15.0000 -18.3306
3.3448 -15.0000 18.2878
3.6319 -15.0000 4.6055
-13.3798 -15.0000 -7.9983
4.1523 -15.0000 -15.3991
-6.1733 -15.0000 18.7843
11.9873 -15.0000 -26.3729
-4.8309 -15.0000 8.3982
-3.3532 -15.0000 10.5323
3.0987 -15.0000 4.6535
-4.5609 -15.0000 21.3589
-8.3495 -15.0000 -12.0615
10.4228 -15.0000 -9.3354
12.4056 -15.0000 8.8984
2.0641 -15.0000 6.2543
-6.7053 -15.0000 -26.9689
-1.8092 -15.0000 -5.5682
3.1591 -15.0000 21.4258
2.3825 -15.0000 23.2833
7.9000 -15.0000 12.9256
-13.6601 -15.0000 -11.4557
2.1870 -15.0000 21.8113
2.8080 2.0184 30.0000
-12.7657 59.8989 30.0000
8.0911 27.2029 30.0000
13.4163 74.3546 30.0000
-12.3537 70.3172 30.0000
9.3302 20.7293 30.0000
6.7194 65.2896 30.0000
14.2675 84.7124 30.0000
7.9452 64.1447 30.0000
-0.7169 64.1724 30.0000
-5.9660 40.5317 30.0000
-1.8341 -14.1251 30.0000
-8.9410 2.9987 30.0000
-8.7622 46.8627 30.0000
14.7458 25.6613 30.0000
-9.3299 39.7740 30.0000
-12.7134 3.6515 30.0000
3.3160 46.7753 30.0000
-3.0375 62.6847 30.0000
-7.8809 23.2707 30.0000
-8.3122 57.5301 30.0000
11.9286 22.9850 30.0000
5.3294 78.0211 30.0000
3.9663 77.3432 30.0000
-4.9218 -11.4051 30.0000
-9.2215 63.6674 30.0000
2.0784 -11.0954 30.0000
-5.6260 42.9545 30.0000
-3.1562 36.3597 30.0000
-12.2886 71.9452 30.0000
-4.9698 19.4404 30.0000
2.1956 12.2901 30.0000
-8.9816 59.0765 30.0000
1.8310 72.5448 30.0000
13.1757 -8.4315 30.0000
10.3416 2.6050 30.0000
3.1360 53.9369 30.0000
-8.9568 58.9973 30.0000
-13.3058 60.0376 30.0000
-14.1266 71.5898 30.0000
11.8383 20.3633 30.0000
-11.9604 84.3548 30.0000
-12.8100 30.2591 30.0000
8.6855 51.5754 30.0000
-9.4055 47.6085 30.0000
3.8669 67.7925 30.0000
-10.5730 80.7653 30.0000
-9.9090 68.2919 30.0000
-10.1320 32.8815 30.0000
0.4554 46.6544 30.0000
-6.8076 79.9211 30.0000
2.8385 34.9682 30.0000
-4.8814 58.1121 30.0000
8.3830 18.9255 30.0000
-5.5541 51.6528 30.0000
-10.4858 -4.3929 30.0000
1.8100 69.8776 30.0000
-1.1033 -1.2922 30.0000
-11.5047 80.5306 30.0000
3.3839 54.5187 30.0000
-0.8910 65.7412 30.0000
2.8565 84.0567 30.0000
14.9708 25.7414 30.0000
-1.6418 14.0499 30.0000
1.2040 2.1058 30.0000
3.5148 27.9545 30.0000
-0.3239 68.6171 30.0000
-5.3726 48.0830 30.0000
0.3699 15.0247 30.0000
8.8846 9.3040 30.0000
7.4458 15.3330 30.0000
0.4099 83.0717 30.0000
11.1873 74.0322 30.0000
12.9449 -1.4100 30.0000
9.0892 63.2932 30.0000
-0.2795 -10.2271 30.0000
8.2826 36.3020 30.0000
5.7774 61.2515 30.0000
-3.7879 34.6168 30.0000
12.0998 62.8253 30.0000
8.3777 46.0999 30.0000
4.3566 28.6496 30.0000
-13.2704 41.4704 30.0000
2.3496 69.4303 30.0000
2.8134 22.6085 30.0000
12.1717 11.5171 -30.0000
2.8849 78.2479 -30.0000
-0.5949 40.5146 -30.0000
-8.5952 39.8791 -30.0000
-11.8583 23.4647 -30.0000
3.0351 35.9482 -30.0000
14.4127 58.2875 -30.0000
-0.3737 -0.9244 -30.0000
7.8182 30.1375 -30.0000
-7.0971 -13.5220 -30.0000
-3.7038 49.8319 -30.0000
0.2695 -1.4146 -30.0000
-8.5987 11.1407 -30.0000
1.1786 74.2569 -30.0000
-12.5450 74.8612 -30.0000
1.9997 -1.6117 -30.0000
14.3021 73.8432 -30.0000
3.6196 84.0233 -30.0000
4.1210 62.5452 -30.0000
3.2283 83.5554 -30.0000
1.2363 11.4698 -30.0000
10.9021 24.4771 -30.0000
8.7857 30.3844 -30.0000
-3.6181 19.5294 -30.0000
-10.2930 -8.3310 -30.0000
-14.3499 -6.1082 -30.0000
11.6443 25.7417 -30.0000
1.8930 25.8192 -30.0000
-0.8060 39.3205 -30.0000
10.3095 84.0786 -30.0000
2.6626 -8.5318 -30.0000
-1.3497 33.1226 -30.0000
7.6160 57.3268 -30.0000
0.7435 59.9428 -30.0000
0.1762 72.5115 -30.0000
-1.8120 65.4950 -30.0000
-2.0666 44.6800 -30.0000
11.7924 44.4892 -30.0000
5.6253 24.0268 -30.0000
-8.4624 3.8191 -30.0000
6.4935 23.8842 -30.0000
-6.3635 40.7184 -30.0000
11.0987 43.2431 -30.0000
-0.2034 33.5965 -30.0000
-2.5171 17.6494 -30.0000
6.0359 77.3106 -30.0000
-0.9115 -5.9879 -30.0000
-0.5478 34.6962 -30.0000
-11.0839 55.6775 -30.0000
-10.5923 10.9049 -30.0000
0.5764 69.5915 -30.0000
11.7013 25.6277 -30.0000
-10.3720 32.2918 -30.0000
7.9399 42.8713 -30.0000
-1.0771 58.0285 -30.0000
-13.9900 -4.3897 -30.0000
-4.3613 40.9039 -30.0000
1.5575 14.5956 -30.0000
-6.2300 79.3920 -30.0000
7.4144 25.4842 -30.0000
13.0416 45.5144 -30.0000
-5.6619 63.1235 -30.0000
3.4289 56.2740 -30.0000
12.7345 1.9682 -30.0000
8.9745 22.1368 -30.0000
2.6445 18.0035 -30.0000
2.3727 22.1583 -30.0000
-0.6063 5.5684 -30.0000
3.3506 26.9416 -30.0000
11.2265 68.4399 -30.0000
-11.6860 58.2836 -30.0000
2.8151 -6.3127 -30.0000
-4.8588 43.4093 -30.0000
-9.6131 -3.0117 -30.0000
-14.0093 63.7628 -30.0000
-9.4080 21.0743 -30.0000
-13.4273 14.4367 -30.0000
-10.7070 18.6872 -30.0000
-12.8897 33.6256 -30.0000
-12.4460 31.9363 -30.0000
1.2971 61.7580 -30.0000
10.2835 -7.4447 -30.0000
-2.7926 17.0301 -30.0000
-9.7536 28.2833 -30.0000
0.6083 52.3716 -30.0000
