ply
format ascii 1.0
element vertex 1024
property float x
property float y
property float z
end_header
50.0000 10.3192 -7.0119
50.0000 -13.5261 13.2967
50.0000 -11.3392 -18.8800
50.0000 10.0324 15.6101
50.0000 -4.7676 4.5762
50.0000 5.8651 -4.7141
50.0000 0.8381 12.6072
50.0000 5.7402 -8.4339
50.0000 13.9846 27.2705
50.0000 -12.3684 4.3552
50.0000 12.5379 -26.7114
50.0000 8.3314 3.3248
50.0000 -1.4965 -2.2412
50.0000 -11.7366 -28.5023
50.0000 8.2110 12.3622
50.0000 -4.4938 -14.6184
50.0000 11.7163 4.3771
50.0000 11.2320 -27.7959
50.0000 -9.2851 14.3164
50.0000 -9.0055 -16.0315
50.0000 -4.7020 18.9613
50.0000 2.9702 21.4024
50.0000 4.9430 5.9718
50.0000 10.8459 23.0840
50.0000 9.1997 14.6019
50.0000 -0.7513 -6.9680
50.0000 -3.5264 -19.3034
50.0000 -1.6110 3.8417
50.0000 -6.3975 4.8806
50.0000 -13.1316 -8.9899
50.0000 -10.3641 6.0682
50.0000 11.9389 -27.2923
50.0000 -8.6980 28.5312
50.0000 14.8931 24.1723
50.0000 9.5691 11.1304
50.0000 -13.6743 14.4306
50.0000 2.5959 18.8126
50.0000 -3.7608 22.5662
50.0000 -1.5214 -10.4351
50.0000 -13.1118 -20.2049
50.0000 4.9430 -8.3888
50.0000 -4.7506 13.6031
50.0000 -4.6607 -8.9048
50.0000 -2.8148 -4.9753
50.0000 -7.3794 -20.0460
50.0000 3.5863 25.0499
50.0000 -7.3755 8.1206
50.0000 5.0019 -1.6202
50.0000 13.2691 -18.8189
50.0000 9.4719 -7.6452
50.0000 -9.4462 17.8516
50.0000 -3.0528 11.5772
50.0000 -13.0982 -29.1203
50.0000 6.7861 28.7381
50.0000 4.4707 -27.8750
50.0000 -5.4474 -2.6447
50.0000 14.1236 -8.4782
50.0000 -6.4984 12.6068
50.0000 6.3829 -4.3200
50.0000 -5.4053 -27.1367
50.0000 10.8553 -9.1699
50.0000 -7.7609 23.3576
50.0000 12.2375 -15.7091
50.0000 0.4942 20.0691
50.0000 -12.6449 18.5894
50.0000 -11.4789 -1.1974
50.0000 -12.1054 -1.2111
50.0000 13.4459 14.3879
50.0000 -13.3670 -2.2557
50.0000 -6.5537 20.9887
50.0000 -13.0901 17.5133
50.0000 -12.6557 2.1662
50.0000 -11.9433 -17.7996
50.0000 6.6992 -20.8552
50.0000 6.5321 4.5734
50.0000 13.6443 -4.3532
50.0000 3.2417 29.3165
50.0000 -13.6130 14.3853
50.0000 10.3390 4.8600
50.0000 10.6720 13.9906
50.0000 -1.7041 -6.0750
50.0000 -5.0972 5.3967
50.0000 -14.4702 23.7570
50.0000 -9.8530 3.5105
50.0000 10.0288 -18.3191
50.0000 -3.1153 1.3334
-50.0000 0.6534 -1.7736
-50.0000 -10.8604 7.2616
-50.0000 4.0305 26.2313
-50.0000 -14.7042 -2.4437
-50.0000 -13.7890 1.8078
-50.0000 7.0987 -21.7319
-50.0000 6.5598 -14.0554
-50.0000 -10.1481 -11.4458
-50.0000 -0.1793 10.5961
-50.0000 -12.7565 -20.5246
-50.0000 9.0411 -8.1016
-50.0000 -14.9524 -16.0834
-50.0000 -7.6529 21.5721
-50.0000 8.0438 -22.8845
-50.0000 -12.7146 -22.4683
-50.0000 -1.2904 18.5694
-50.0000 9.4353 -15.5851
-50.0000 2.5955 23.8023
-50.0000 13.1164 8.4203
-50.0000 -12.6831 -22.5274
-50.0000 9.5821 16.3682
-50.0000 12.0583 28.6783
-50.0000 -9.1921 -21.0002
-50.0000 2.7608 16.8097
-50.0000 8.5764 10.7891
-50.0000 -0.6326 -19.3145
-50.0000 5.4047 -10.9340
-50.0000 2.3516 14.2275
-50.0000 4.6291 -18.6030
-50.0000 -12.6974 22.5266
-50.0000 -8.9807 -8.7941
-50.0000 10.7491 -15.7248
-50.0000 8.2945 -12.6611
-50.0000 3.2175 3.0238
-50.0000 -5.6103 21.4020
-50.0000 -2.5177 4.4827
-50.0000 10.8434 12.6430
-50.0000 -6.2898 11.1093
-50.0000 -1.6270 -17.0326
-50.0000 5.1543 0.5889
-50.0000 -3.4609 9.7802
-50.0000 0.0713 -7.7208
-50.0000 -10.7243 -20.9225
-50.0000 -12.0319 -17.2249
-50.0000 11.9814 12.6193
-50.0000 -10.7722 -9.7308
-50.0000 2.7452 23.6285
-50.0000 -2.8491 4.8839
-50.0000 -0.6760 3.3273
-50.0000 -8.3587 -29.2761
-50.0000 -14.9185 15.8941
-50.0000 -10.1444 -28.8121
-50.0000 7.5777 14.3296
-50.0000 11.8550 -27.6387
-50.0000 -14.8311 -0.2001
-50.0000 -12.1606 6.1191
-50.0000 9.5172 4.5010
-50.0000 -9.0576 6.4368
-50.0000 13.8490 0.9672
-50.0000 -12.2114 20.9821
-50.0000 -1.6306 27.6780
-50.0000 7.7179 20.2947
-50.0000 12.3220 -15.1652
-50.0000 0.4271 -12.4219
-50.0000 3.6812 10.0033
-50.0000 -8.6729 17.4992
-50.0000 14.0891 24.7567
-50.0000 -5.8289 -22.5171
-50.0000 -5.3681 -4.3309
-50.0000 -0.1479 22.9033
-50.0000 -13.0213 -24.7721
-50.0000 -12.6521 6.4764
-50.0000 2.3225 7.3300
-50.0000 -6.0400 -16.5848
-50.0000 4.4120 27.8070
-50.0000 -0.8803 0.0625
-50.0000 -8.6348 -25.6406
-50.0000 6.2548 -15.3257
-50.0000 4.4124 0.7317
-50.0000 -11.9696 27.2931
-50.0000 6.1982 -10.0854
-50.0000 6.3772 27.4589
-50.0000 8.4673 -26.9357
-50.0000 4.4127 5.2926
-50.0000 6.2543 22.6421
-50.0000 5.5692 22.3435
10.1409 15.0000 12.7373
0.2875 15.0000 24.6978
8.9998 15.0000 22.0335
28.5362 15.0000 -16.8171
-10.0778 15.0000 -23.2809
3.8488 15.0000 21.1208
-24.0578 15.0000 -7.4688
13.8219 15.0000 22.2715
9.4722 15.0000 -15.2358
-37.5766 15.0000 12.9798
-19.5138 15.0000 26.1951
39.2772 15.0000 14.5903
27.5267 15.0000 17.6467
-39.4299 15.0000 7.1919
-18.8083 15.0000 -10.4460
-11.3154 15.0000 25.0027
-12.4948 15.0000 -17.3636
37.4933 15.0000 -13.1607
-33.0561 15.0000 -12.2420
-45.9997 15.0000 -26.9800
-17.0420 15.0000 17.5740
26.8592 15.0000 -23.7796
-8.4088 15.0000 -14.6927
-13.9945 15.0000 26.1446
41.3900 15.0000 19.8781
15.6554 15.0000 23.7756
12.8848 15.0000 16.4775
-41.3337 15.0000 -4.8040
-44.9577 15.0000 12.5845
-25.5874 15.0000 -10.8353
-45.3721 15.0000 11.2307
35.5895 15.0000 -22.7761
0.2225 15.0000 -19.0729
22.6404 15.0000 -13.8751
26.7738 15.0000 -22.0954
38.8597 15.0000 -23.2453
37.1357 15.0000 13.2531
-4.7470 15.0000 25.1242
-32.4425 15.0000 6.0193
-38.9117 15.0000 19.3574
18.1155 15.0000 9.8370
49.8353 15.0000 28.5456
39.0324 15.0000 -9.2824
-38.3549 15.0000 18.1183
28.9989 15.0000 -17.8151
-48.6210 15.0000 9.1318
12.3450 15.0000 4.1143
-42.1955 15.0000 24.1594
-30.7753 15.0000 -17.3147
-43.4997 15.0000 14.8041
-40.4739 15.0000 11.8171
23.8849 15.0000 27.8064
36.4149 15.0000 29.3845
-27.1652 15.0000 -22.1226
23.6134 15.0000 4.0373
23.9023 15.0000 -8.9363
-25.3021 15.0000 28.8081
-19.1753 15.0000 5.3498
-40.2423 15.0000 3.9253
-6.2355 15.0000 -24.9130
28.0896 15.0000 18.0779
-36.4759 15.0000 8.1885
-43.0512 15.0000 -2.0414
-44.7552 15.0000 -21.5877
18.6938 15.0000 13.1177
-34.6519 15.0000 -20.1293
-23.9517 15.0000 -11.2435
-43.9658 15.0000 6.2449
-20.8817 15.0000 -7.9313
15.4616 15.0000 -13.9089
-7.2830 15.0000 3.7067
21.5078 15.0000 1.0069
-20.4027 15.0000 -7.2917
45.1373 15.0000 17.4761
-15.3980 15.0000 6.4994
22.9212 15.0000 26.4800
47.9404 15.0000 2.2838
-37.1714 15.0000 4.7063
-12.4808 15.0000 27.0242
41.5815 15.0000 -15.6209
6.9301 15.0000 0.0280
-47.8335 15.0000 -25.1282
-36.2512 15.0000 -23.1021
27.1456 15.0000 -21.1443
-14.8692 15.0000 -8.9187
-16.2819 -15.0000 6.4790
18.2702 -15.0000 -8.0289
-43.0779 -15.0000 18.2518
20.6064 -15.0000 18.4822
-37.5210 -15.0000 25.1081
-21.0568 -15.0000 0.4841
27.6262 -15.0000 -20.6489
42.6820 -15.0000 0.2853
-13.5625 -15.0000 -28.0260
-23.9661 -15.0000 -26.4270
26.1621 -15.0000 -12.0536
44.1062 -15.0000 -12.3091
30.8959 -15.0000 -19.4220
-10.5121 -15.0000 -2.6003
28.1665 -15.0000 4.0076
15.6351 -15.0000 22.3601
19.5263 -15.0000 19.4067
-40.6872 -15.0000 -27.1795
-43.0717 -15.0000 -11.1883
31.7904 -15.0000 -18.9078
22.0146 -15.0000 -28.2260
41.7850 -15.0000 -5.0424
40.1911 -15.0000 21.8822
24.1842 -15.0000 7.5771
44.8779 -15.0000 -4.8243
26.6895 -15.0000 8.2210
-37.0772 -15.0000 7.2840
-15.1947 -15.0000 -11.5291
-47.3402 -15.0000 -13.5746
-26.9397 -15.0000 9.5310
27.7130 -15.0000 4.7568
-5.8542 -15.0000 -22.7610
-26.3284 -15.0000 12.4726
6.9078 -15.0000 26.0534
-36.9802 -15.0000 14.4592
0.7915 -15.0000 9.7542
-10.5958 -15.0000 26.5094
-5.3292 -15.0000 -0.4552
35.3181 -15.0000 -8.3181
4.1829 -15.0000 -17.1366
-10.4149 -15.0000 17.5574
18.9983 -15.0000 21.8284
-25.8951 -15.0000 -7.0709
17.9464 -15.0000 2.6581
25.2652 -15.0000 -10.0310
32.2147 -15.0000 0.4096
36.4204 -15.0000 23.5012
26.6457 -15.0000 25.9506
-42.3830 -15.0000 -21.0606
-15.3437 -15.0000 -5.7250
-16.3916 -15.0000 -26.1402
-28.2414 -15.0000 -9.4287
6.9604 -15.0000 11.2038
32.6888 -15.0000 -16.3377
-49.0970 -15.0000 26.3853
46.8880 -15.0000 16.1770
15.5930 -15.0000 20.8514
42.4065 -15.0000 -25.4916
40.4129 -15.0000 27.2559
-42.5426 -15.0000 -1.3407
-46.1975 -15.0000 26.3252
2.1562 -15.0000 -19.8861
-26.4370 -15.0000 20.8986
0.7292 -15.0000 8.4797
-4.0023 -15.0000 -22.4704
-8.6947 -15.0000 -24.2614
-3.6665 -15.0000 18.4795
-42.7112 -15.0000 -8.6592
-3.6041 -15.0000 -7.5696
3.8158 -15.0000 15.0041
-25.9198 -15.0000 -18.8700
16.8713 -15.0000 -14.0231
-36.2643 -15.0000 -19.3557
35.5612 -15.0000 -2.6451
31.5003 -15.0000 15.6885
-28.9830 -15.0000 29.6359
43.5746 -15.0000 5.8969
-1.9139 -15.0000 -7.0366
38.9291 -15.0000 -3.0454
36.8467 -15.0000 -5.9460
19.2882 -15.0000 28.7369
38.5741 -15.0000 -24.9184
41.1204 -15.0000 -28.1092
7.7294 -15.0000 -9.7409
-8.6817 -15.0000 -25.8423
19.6740 -3.1611 30.0000
-29.3258 9.7730 30.0000
-36.7471 7.7956 30.0000
-3.1246 13.1513 30.0000
23.3521 -0.7276 30.0000
-30.0708 -5.1000 30.0000
-39.9223 3.4546 30.0000
7.5320 -8.5508 30.0000
-4.5466 -6.3559 30.0000
-3.3330 4.1656 30.0000
-45.3571 -3.4836 30.0000
-17.3692 9.6797 30.0000
-37.8545 12.6179 30.0000
-42.4212 12.8264 30.0000
4.5183 6.1147 30.0000
39.7356 10.4368 30.0000
10.2695 12.6520 30.0000
22.6393 1.7420 30.0000
14.7376 -12.2298 30.0000
-9.7372 -9.4587 30.0000
-4.2624 -8.5384 30.0000
49.6790 -1.9132 30.0000
49.4664 -7.2434 30.0000
-41.6094 -1.6426 30.0000
13.3502 12.5020 30.0000
26.0238 -13.9277 30.0000
7.9458 -6.1359 30.0000
16.9789 -1.3688 30.0000
12.0058 -3.1953 30.0000
-30.9462 -6.9979 30.0000
46.5215 -2.0681 30.0000
49.9325 8.5664 30.0000
-25.5269 -4.9232 30.0000
-10.4475 0.6950 30.0000
-30.7492 9.2702 30.0000
-32.1982 -6.6230 30.0000
27.5841 -0.6607 30.0000
41.7839 -0.6638 30.0000
5.4326 5.9554 30.0000
-2.5509 -11.8040 30.0000
-23.3550 13.9416 30.0000
-22.5766 10.1112 30.0000
-2.9159 6.4357 30.0000
-25.4315 -14.5810 30.0000
-41.4586 11.1890 30.0000
-13.8821 7.0513 30.0000
-20.4555 -7.1495 30.0000
8.3096 -11.5509 30.0000
-38.5058 -5.2956 30.0000
-46.1629 -12.9251 30.0000
36.8880 -3.4890 30.0000
-32.2324 -4.8221 30.0000
28.2244 -5.4404 30.0000
-3.7838 3.3805 30.0000
35.7958 11.3899 30.0000
-38.4192 6.4064 30.0000
31.4698 -1.4483 30.0000
25.4002 -12.7272 30.0000
21.7576 4.3776 30.0000
5.1476 -0.9490 30.0000
-13.9194 3.8009 30.0000
41.1610 -13.7926 30.0000
20.7974 7.3473 30.0000
-8.0771 9.9768 30.0000
43.6996 -4.4484 30.0000
-4.3454 -5.2867 30.0000
37.0537 -12.6755 30.0000
22.1895 -2.2815 30.0000
10.6849 9.4995 30.0000
-48.2842 5.5343 30.0000
27.3715 -9.5193 30.0000
-48.3527 3.9996 30.0000
48.3290 11.0492 30.0000
1.5767 6.6451 30.0000
-36.8321 9.5975 30.0000
40.3810 -4.8587 30.0000
-33.9798 2.6926 30.0000
-8.7321 7.4514 30.0000
-42.9082 8.6371 30.0000
-48.1394 -6.9033 30.0000
-41.4660 -4.1484 30.0000
34.8472 -3.7990 30.0000
-43.7272 9.2284 30.0000
-5.6472 14.2510 30.0000
15.5938 -3.2175 30.0000
47.3441 -10.1125 -30.0000
32.5412 -9.0571 -30.0000
-49.5406 -0.5314 -30.0000
-48.3809 -9.9789 -30.0000
46.4299 -4.5685 -30.0000
1.8689 -12.9376 -30.0000
12.2820 -2.0894 -30.0000
11.7914 1.9306 -30.0000
-30.0462 13.6472 -30.0000
-29.9247 14.8972 -30.0000
-43.5370 -6.7136 -30.0000
18.3668 9.4487 -30.0000
-28.5499 10.8472 -30.0000
42.1212 3.2650 -30.0000
-9.3272 14.6277 -30.0000
-1.6903 -0.4351 -30.0000
42.7273 5.0253 -30.0000
12.1816 -14.2581 -30.0000
12.5866 3.6378 -30.0000
-28.6079 -13.8385 -30.0000
18.0692 6.1128 -30.0000
-23.1770 -14.3142 -30.0000
26.2129 9.3777 -30.0000
-33.8926 14.6201 -30.0000
-41.1805 -11.5473 -30.0000
41.9830 11.6380 -30.0000
-14.1996 0.0878 -30.0000
35.3033 -0.1821 -30.0000
0.0823 0.4027 -30.0000
36.9202 5.5689 -30.0000
18.5225 8.3796 -30.0000
-49.6280 7.2702 -30.0000
29.0788 -12.5543 -30.0000
-44.4744 -4.0396 -30.0000
5.4431 -9.4213 -30.0000
-31.5894 -3.8896 -30.0000
8.8312 -5.4885 -30.0000
41.9750 -4.7581 -30.0000
11.1213 2.8071 -30.0000
16.8924 -2.4081 -30.0000
-35.5123 8.4020 -30.0000
-21.9425 -14.5727 -30.0000
46.1487 1.3938 -30.0000
28.0843 -6.6072 -30.0000
22.2846 12.7451 -30.0000
5.0080 2.2033 -30.0000
-4.2511 -0.3358 -30.0000
12.5494 -11.9331 -30.0000
-20.9741 0.7387 -30.0000
28.0156 1.0346 -30.0000
-5.6714 2.3264 -30.0000
8.5389 6.4347 -30.0000
-13.3251 5.1625 -30.0000
-28.3592 7.8443 -30.0000
27.0682 -3.4370 -30.0000
36.1554 4.3831 -30.0000
-16.0091 -14.1490 -30.0000
-40.7413 11.8926 -30.0000
23.7288 11.4853 -30.0000
8.5566 13.3412 -30.0000
-19.4348 -13.4815 -30.0000
-10.0779 -14.3048 -30.0000
-48.3573 12.2401 -30.0000
-38.4314 6.5677 -30.0000
39.3327 -6.6598 -30.0000
11.5914 -9.3712 -30.0000
-0.7565 12.3608 -30.0000
44.3844 -13.8079 -30.0000
44.1334 -8.3760 -30.0000
46.3055 4.0502 -30.0000
-19.1305 7.8746 -30.0000
-18.0696 -5.4212 -30.0000
36.7088 -6.6740 -30.0000
-15.3971 12.7650 -30.0000
-28.4800 13.9049 -30.0000
20.7788 9.9947 -30.0000
12.7352 -11.6953 -30.0000
-16.7135 0.2034 -30.0000
-14.2980 2.9689 -30.0000
2.3418 -1.1920 -30.0000
-31.1231 -5.2617 -30.0000
-48.3878 14.8241 -30.0000
2.4991 -8.9466 -30.0000
-3.5814 6.8873 -30.0000
-10.9897 6.2037 -30.0000
15.0000 33.4689 21.7558
15.0000 -2.7477 22.6938
15.0000 22.9657 -7.8912
15.0000 14.7527 -13.1126
15.0000 82.3069 4.3798
15.0000 2.7906 18.1198
15.0000 55.0420 21.2143
15.0000 33.1098 -4.9843
15.0000 52.9895 4.0221
15.0000 11.2828 -19.1888
15.0000 17.3856 -2.6293
15.0000 0.5295 12.6392
15.0000 84.1967 -25.4611
15.0000 13.2433 6.9977
15.0000 69.0372 16.2891
15.0000 19.7538 -23.0038
15.0000 46.0759 20.7581
15.0000 -12.9873 21.4728
15.0000 84.6126 12.0549
15.0000 71.5550 -23.0477
15.0000 84.9162 19.6117
15.0000 47.6040 -2.6741
15.0000 61.1244 -6.8976
15.0000 78.2888 24.4582
15.0000 -12.0302 -10.6615
15.0000 35.0321 15.0499
15.0000 83.1170 -1.5214
15.0000 45.2122 1.3058
15.0000 56.4242 -19.4695
15.0000 12.0527 3.6680
15.0000 21.5267 -15.6884
15.0000 6.3651 -16.8142
15.0000 13.5224 -23.6638
15.0000 12.7406 -12.6147
15.0000 31.5772 25.2481
15.0000 11.1831 21.6678
15.0000 42.3583 14.6114
15.0000 64.5547 -23.7593
15.0000 14.4718 -11.3789
15.0000 18.6515 -2.8407
15.0000 33.2893 29.1150
15.0000 21.3643 6.6115
15.0000 54.3971 27.9788
15.0000 13.4518 -26.2430
15.0000 68.7867 25.6503
15.0000 75.1337 17.5166
15.0000 12.2773 28.2777
15.0000 22.2559 -11.7429
15.0000 0.1502 -17.8867
15.0000 22.3057 21.1132
15.0000 31.8071 -18.1331
15.0000 31.3540 18.3205
15.0000 51.7878 7.6565
15.0000 15.9364 -4.0533
15.0000 5.2303 9.5175
15.0000 49.9626 25.5741
15.0000 70.4514 17.9406
15.0000 22.5236 -16.1820
15.0000 17.7431 10.1832
15.0000 72.8931 -22.2410
15.0000 76.5132 27.1233
15.0000 36.3314 -19.6317
15.0000 18.4460 11.9306
15.0000 28.1147 -0.1874
15.0000 62.3850 -14.3751
15.0000 -0.1259 14.5988
15.0000 -11.5493 -4.3664
15.0000 76.1853 17.3705
15.0000 -11.5459 -24.6864
15.0000 6.3731 -13.7003
15.0000 13.1580 -18.4488
15.0000 4.3237 -7.3860
15.0000 22.7917 19.7708
15.0000 79.0951 -10.8226
15.0000 79.0378 20.2818
15.0000 82.6476 6.5245
15.0000 47.1892 21.2121
15.0000 74.2216 19.5391
15.0000 36.1359 11.3605
15.0000 -13.5275 -29.6349
15.0000 64.6710 -26.8343
15.0000 26.4678 -15.8584
15.0000 11.6687 -8.0900
15.0000 0.0857 -1.9264
15.0000 47.6101 14.5480
15.0000 41.9588 -11.3970
-15.0000 8.3472 -26.0995
-15.0000 44.8074 22.5981
-15.0000 55.4316 -14.6849
-15.0000 -9.0204 0.3583
-15.0000 -6.2818 29.6844
-15.0000 50.1981 -24.8915
-15.0000 0.0786 -0.9564
-15.0000 83.1527 -4.1110
-15.0000 64.1838 -14.1040
-15.0000 28.1215 24.6470
-15.0000 0.4015 -27.7809
-15.0000 -11.5119 1.6828
-15.0000 33.0865 -9.8898
-15.0000 19.4843 -13.5369
-15.0000 74.8464 27.8238
-15.0000 39.7710 1.2702
-15.0000 72.4657 -7.2739
-15.0000 55.4290 -17.5113
-15.0000 77.0898 29.2602
-15.0000 6.8840 -8.8512
-15.0000 31.6009 7.1536
-15.0000 83.7585 -28.5274
-15.0000 60.3588 -29.7923
-15.0000 12.8437 17.5724
-15.0000 79.9176 27.0951
-15.0000 5.8036 -29.6311
-15.0000 32.5283 5.9780
-15.0000 -13.9949 -27.0097
-15.0000 57.0294 20.9897
-15.0000 28.7444 12.4236
-15.0000 28.4905 5.4602
-15.0000 28.7766 -11.0509
-15.0000 32.7675 -13.7135
-15.0000 4.9584 -10.3495
-15.0000 -8.6404 11.3402
-15.0000 22.0590 -11.5107
-15.0000 76.2525 12.3976
-15.0000 3.6233 -17.1610
-15.0000 4.7221 21.3569
-15.0000 2.8961 28.1449
-15.0000 32.9043 11.8120
-15.0000 41.1657 0.9946
-15.0000 71.2368 -1.5877
-15.0000 41.5122 11.0317
-15.0000 27.3127 16.4021
-15.0000 60.6212 -2.4149
-15.0000 21.2883 -22.1916
-15.0000 -0.8229 -14.8596
-15.0000 71.8066 -24.4376
-15.0000 69.8355 24.3769
-15.0000 37.1031 -15.8060
-15.0000 78.1841 17.2328
-15.0000 33.2874 -1.2456
-15.0000 80.3016 27.1465
-15.0000 61.3877 -14.8099
-15.0000 44.5534 -3.5095
-15.0000 55.6029 -3.8080
-15.0000 34.4937 -19.5771
-15.0000 5.2168 19.6663
-15.0000 30.1007 19.4286
-15.0000 8.1518 -26.9228
-15.0000 66.4764 2.0833
-15.0000 18.2362 -16.0099
-15.0000 42.6467 -10.2470
-15.0000 81.9446 -2.8645
-15.0000 28.0340 6.0647
-15.0000 68.8501 -21.8375
-15.0000 30.4472 24.7753
-15.0000 24.4752 -26.4824
-15.0000 -11.9906 22.3921
-15.0000 17.3044 16.8700
-15.0000 36.9562 -5.6566
-15.0000 41.5131 7.5307
-15.0000 38.1862 26.6902
-15.0000 17.2387 8.2455
-15.0000 72.7175 -16.8089
-15.0000 68.6695 -4.6844
-15.0000 46.4443 22.0067
-15.0000 62.3828 11.0360
-15.0000 5.7213 18.6795
-15.0000 16.2726 20.3297
-15.0000 10.9376 28.4805
-15.0000 46.0248 -23.2935
-15.0000 10.7793 29.0334
-15.0000 13.2720 -7.1067
-15.0000 58.3017 -5.3057
-9.1773 85.0000 28.5014
-5.4202 85.0000 -7.9337
-6.7418 85.0000 1.0642
0.4116 85.0000 -21.7495
10.6746 85.0000 13.5134
-2.9339 85.0000 17.7380
-7.6634 85.0000 -5.2663
-5.5895 85.0000 29.6834
1.0127 85.0000 23.8266
0.2819 85.0000 29.4216
-9.6670 85.0000 -4.8723
-13.1601 85.0000 13.9226
-5.9683 85.0000 0.2269
-2.0333 85.0000 16.8762
8.9877 85.0000 15.7951
14.8510 85.0000 14.7999
8.6677 85.0000 14.8814
-0.9773 85.0000 -26.0815
3.1232 85.0000 -10.5341
1.6753 85.0000 4.4716
14.1365 85.0000 0.9746
-3.7600 85.0000 -2.6059
12.3064 85.0000 -3.8776
-1.1494 85.0000 7.5804
-10.9486 85.0000 -29.3390
7.6603 85.0000 -15.6409
13.7708 85.0000 -12.0953
-14.8453 85.0000 -3.4926
-13.6637 85.0000 24.1508
-3.5527 85.0000 2.8947
-14.0040 85.0000 2.0611
13.4886 85.0000 -26.7483
2.8252 85.0000 3.5828
13.6182 85.0000 -21.4482
9.3033 85.0000 27.9835
1.4328 85.0000 0.2846
-14.3222 85.0000 -0.6496
6.2156 85.0000 28.2960
-4.4642 85.0000 -14.0937
-3.4153 85.0000 27.7395
10.1212 85.0000 -23.5196
-14.6573 85.0000 -19.2838
-10.5076 85.0000 22.1551
14.1891 85.0000 24.3623
5.8721 85.0000 -12.4484
8.8697 85.0000 12.4381
-2.9310 85.0000 18.4242
-14.4211 85.0000 27.2246
10.8599 85.0000 -11.4498
-2.3394 85.0000 17.1270
5.8862 85.0000 -11.1804
-5.6326 85.0000 15.2731
2.6592 85.0000 15.8797
13.0533 85.0000 21.2219
-0.4415 85.0000 8.9363
3.6795 85.0000 -5.2150
-5.2614 85.0000 20.3902
8.3079 85.0000 -14.6424
-7.2345 85.0000 14.0007
-6.4368 85.0000 -8.0697
-12.1844 85.0000 12.4807
8.7701 85.0000 -23.5107
-8.9947 85.0000 10.1904
12.5016 85.0000 -25.8169
-6.5594 85.0000 -24.4749
1.9402 85.0000 19.1267
-11.8618 85.0000 28.0678
-10.7945 85.0000 -16.1758
-13.6959 85.0000 5.4826
12.4641 85.0000 6.8676
-9.7797 85.0000 -4.0098
2.1017 85.0000 -16.0497
3.6008 85.0000 16.2702
-1.2499 85.0000 -17.7092
-4.5974 85.0000 18.1959
10.9441 85.0000 20.4691
-6.8251 85.0000 -0.2217
-2.7061 85.0000 8.7094
0.5719 85.0000 -8.5592
-7.0548 85.0000 2.8365
-3.8735 85.0000 15.4997
-8.8408 85.0000 -20.9945
-14.6499 85.0000 -1.2354
-1.0025 85.0000 18.9269
3.7303 85.0000 24.5649
-6.2398 -15.0000 29.2124
11.7809 -15.0000 -17.1325
-6.9724 -15.0000 15.4125
5.9928 -15.0000 -5.3770
9.3878 -15.0000 21.7062
8.8902 -15.0000 17.8575
-0.0502 -15.0000 -0.3253
-9.8497 -15.0000 -16.3940
-5.4546 -15.0000 -14.0839
7.6800 -15.0000 -6.1856
-2.3979 -15.0000 23.6295
-11.1575 -15.0000 -11.4805
1.5709 -15.0000 -27.0809
4.3082 -15.0000 -4.3743
-7.8921 -15.0000 14.4706
-8.1407 -15.0000 12.3652
14.0027 -15.0000 -3.7840
11.8050 -15.0000 -27.8840
-4.9371 -15.0000 -17.8893
3.8248 -15.0000 -9.0554
-5.1369 -15.0000 -10.3084
-2.0777 -15.0000 -27.1882
-14.0876 -15.0000 -24.3520
6.5202 -15.0000 20.3463
-5.3279 -15.0000 -8.9823
9.9633 -15.0000 9.3007
8.4074 -15.0000 -22.9501
8.6465 -15.0000 -27.3023
-8.1132 -15.0000 16.1933
13.8119 -15.0000 10.5870
-8.4314 -15.0000 14.9394
14.9440 -15.0000 0.9092
12.5931 -15.0000 -12.4718
-4.4187 -15.0000 10.1881
-5.9616 -15.0000 -11.8354
-9.2895 -15.0000 -8.9274
-8.7504 -15.0000 2.0913
-0.8450 -15.0000 7.0886
10.5053 -15.0000 -13.9389
10.1947 -15.0000 -10.4716
9.2426 -15.0000 23.1875
-3.3553 -15.0000 3.9932
11.5884 -15.0000 16.0430
-7.2583 -15.0000 -3.3464
14.8712 -15.0000 -17.5210
-0.3316 -15.0000 -23.1820
-10.9845 -15.0000 0.0334
3.1313 -15.0000 -4.5523
-10.0576 -15.0000 24.8892
-11.7265 -15.0000 11.1836
-0.0017 -15.0000 -4.1246
-11.9869 -15.0000 -14.8762
14.5491 -15.0000 -5.9408
8.5297 -15.0000 -11.0564
14.8411 -15.0000 24.4657
-6.6904 -15.0000 22.8234
-5.9632 -15.0000 -13.4937
4.3884 -15.0000 -17.7516
13.3854 -15.0000 -15.4075
-11.1882 -15.0000 -24.3478
-2.5963 -15.0000 -20.8744
-3.1818 -15.0000 -13.0272
-4.3996 -15.0000 20.6750
-0.5423 -15.0000 24.1680
8.4427 -15.0000 -1.8142
-6.3994 -15.0000 28.2399
-12.7712 -15.0000 -7.9086
-3.3819 -15.0000 -27.4058
-11.2557 -15.0000 -25.0919
-6.0063 -15.0000 25.0416
-6.2408 -15.0000 -19.1294
-13.4828 -15.0000 18.8337
1.7305 -15.0000 -22.3567
-7.7425 -15.0000 -5.3263
13.6128 -15.0000 16.8577
-5.5358 -15.0000 1.4720
-9.8783 -15.0000 -24.7635
-4.6041 -15.0000 9.3437
-1.5246 -15.0000 18.7783
-11.2451 -15.0000 -1.3510
6.0993 -15.0000 -22.2205
-12.0446 -15.0000 -10.7335
7.7085 -15.0000 -16.2401
-2.0423 -15.0000 -28.6985
-11.6840 -15.0000 24.7649
7.2556 20.8427 30.0000
4.1326 -0.2488 30.0000
1.3784 13.2001 30.0000
5.9640 16.7596 30.0000
1.9965 38.8768 30.0000
-3.5348 25.3622 30.0000
6.2679 67.1380 30.0000
12.2558 -0.4177 30.0000
-8.7356 -4.2093 30.0000
6.3772 12.6342 30.0000
-12.6433 14.1880 30.0000
3.5955 58.3723 30.0000
10.7822 2.3259 30.0000
8.9809 15.7544 30.0000
-13.2120 83.0110 30.0000
-4.9875 49.3970 30.0000
3.3693 55.8852 30.0000
5.0230 0.1381 30.0000
-14.8327 -2.6555 30.0000
5.3786 55.1240 30.0000
0.6147 -5.5236 30.0000
3.7241 12.4647 30.0000
-6.4121 -14.5873 30.0000
12.7195 40.0219 30.0000
0.1130 -12.7067 30.0000
14.2781 21.0804 30.0000
9.2703 51.9857 30.0000
9.1528 58.8682 30.0000
9.5387 76.3792 30.0000
-11.5956 57.6945 30.0000
9.3469 54.4541 30.0000
-13.6959 80.7675 30.0000
11.1775 25.1415 30.0000
9.1512 11.8292 30.0000
3.6504 26.5235 30.0000
-4.2375 59.5412 30.0000
7.1022 22.8745 30.0000
6.8516 29.3690 30.0000
14.5687 55.3401 30.0000
8.2399 49.2234 30.0000
2.0553 34.0522 30.0000
-12.3111 73.8752 30.0000
0.4242 72.0259 30.0000
8.1389 82.8299 30.0000
-3.2677 -13.4753 30.0000
5.8663 28.5050 30.0000
-0.9520 33.1650 30.0000
6.5736 28.9237 30.0000
8.1195 53.8380 30.0000
-10.6824 36.8663 30.0000
5.4780 34.5851 30.0000
10.6486 39.4224 30.0000
-8.4760 61.8973 30.0000
-3.8816 50.7899 30.0000
-12.9379 47.4448 30.0000
-2.2981 8.6377 30.0000
-13.2853 31.2547 30.0000
-4.8587 4.7262 30.0000
6.5058 27.5155 30.0000
13.3458 -8.8216 30.0000
0.6529 79.7592 30.0000
-4.5992 76.6898 30.0000
-0.2699 28.1670 30.0000
-4.7561 58.6105 30.0000
-14.3175 79.7550 30.0000
-4.2134 57.9212 30.0000
7.5544 25.6760 30.0000
-4.0356 18.3283 30.0000
-11.9156 77.6796 30.0000
-6.7096 49.7779 30.0000
-0.2126 69.8433 30.0000
3.8278 81.4063 30.0000
-5.3017 40.7076 30.0000
-13.2433 -10.8552 30.0000
11.3228 57.8636 30.0000
-2.0607 5.5773 30.0000
-7.6282 -12.3032 30.0000
11.9426 10.7788 30.0000
-2.5168 3.6042 30.0000
14.2060 -3.1929 30.0000
-8.8051 -4.5742 30.0000
9.9492 2.6435 30.0000
-6.3024 39.6735 30.0000
4.3463 38.7503 30.0000
-3.7417 2.2702 30.0000
-11.7210 35.1987 -30.0000
-9.2161 39.4715 -30.0000
-1.4383 32.0397 -30.0000
9.5287 30.6264 -30.0000
13.3756 72.6515 -30.0000
-8.6494 53.7646 -30.0000
-2.8431 79.6186 -30.0000
8.2746 77.2057 -30.0000
-8.9039 -5.3991 -30.0000
-1.4446 15.0827 -30.0000
-1.5863 11.8415 -30.0000
-8.9600 16.5841 -30.0000
-3.1350 51.6675 -30.0000
2.3043 9.4530 -30.0000
10.2897 -3.2284 -30.0000
8.7598 35.7650 -30.0000
-4.7390 39.9333 -30.0000
-2.8830 -7.1004 -30.0000
-4.0575 14.0483 -30.0000
10.1981 20.4870 -30.0000
3.2248 64.5399 -30.0000
-14.9068 6.0577 -30.0000
-12.4684 26.2144 -30.0000
-9.8988 25.4690 -30.0000
7.5273 33.3856 -30.0000
-9.7832 58.8172 -30.0000
-3.5989 76.6080 -30.0000
7.7215 67.8520 -30.0000
2.3892 9.5656 -30.0000
-1.5038 78.5338 -30.0000
-6.8914 14.0026 -30.0000
0.9191 -1.0813 -30.0000
-6.5786 8.3792 -30.0000
6.9448 71.9036 -30.0000
5.5864 -3.3557 -30.0000
10.8034 71.8455 -30.0000
-6.4822 2.3243 -30.0000
-12.6159 -3.8600 -30.0000
2.4622 84.2407 -30.0000
-5.1181 57.4031 -30.0000
-6.1338 -1.2282 -30.0000
-14.8770 64.8719 -30.0000
8.5506 53.9705 -30.0000
-4.9368 17.5095 -30.0000
-12.3953 -4.6295 -30.0000
8.8717 21.1909 -30.0000
13.2158 -13.4012 -30.0000
2.4578 -11.6769 -30.0000
-14.9813 53.6976 -30.0000
-5.1840 64.9123 -30.0000
-8.1002 84.9593 -30.0000
14.5517 72.1865 -30.0000
-4.4018 57.8943 -30.0000
7.4658 35.5108 -30.0000
0.8793 43.9226 -30.0000
1.7478 0.9042 -30.0000
8.4340 -12.0710 -30.0000
14.1251 12.7278 -30.0000
-8.0176 58.4729 -30.0000
-14.5203 13.9426 -30.0000
-0.9592 78.5945 -30.0000
-2.9344 -8.2666 -30.0000
-12.8599 -4.5033 -30.0000
5.9163 19.7387 -30.0000
4.0454 15.6488 -30.0000
7.5654 80.4730 -30.0000
4.2550 41.1670 -30.0000
9.6247 4.2515 -30.0000
14.5250 78.2045 -30.0000
-11.2936 10.8887 -30.0000
14.6269 17.4085 -30.0000
-4.8010 75.7842 -30.0000
7.8727 25.5295 -30.0000
0.9917 34.8324 -30.0000
-6.6918 33.6684 -30.0000
-4.3111 71.0345 -30.0000
-2.4023 51.4064 -30.0000
3.4521 8.1925 -30.0000
13.6977 71.5475 -30.0000
-8.3097 47.9847 -30.0000
-12.1258 46.1432 -30.0000
-6.5264 10.6229 -30.0000
2.9100 25.8795 -30.0000
10.0941 43.2674 -30.0000
-13.6654 44.4720 -30.0000
