ply
format ascii 1.0
element vertex 1024
property float x
property float y
property float z
end_header
50.0000 -10.1764 -20.9924
50.0000 -7.7108 28.5990
50.0000 3.4626 39.1541
50.0000 6.2568 20.8232
50.0000 0.9694 36.4360
50.0000 6.0512 -29.5394
50.0000 13.0289 22.3526
50.0000 4.4976 -19.4851
50.0000 -6.5114 -35.0997
50.0000 -3.3672 39.2119
50.0000 -5.0505 -16.9794
50.0000 -12.5501 -20.8941
50.0000 -11.7180 34.0870
50.0000 12.4804 2.9051
50.0000 6.1023 -8.8129
50.0000 0.4553 -14.2641
50.0000 10.3153 8.7577
50.0000 -7.8418 -36.5282
50.0000 3.7803 -12.2369
50.0000 6.3805 30.1253
50.0000 12.2389 3.1314
50.0000 7.3424 -7.4844
50.0000 14.8625 20.3328
50.0000 13.4832 33.9000
50.0000 10.9513 20.7843
50.0000 11.7340 14.2100
50.0000 -2.1167 21.5195
50.0000 12.5824 4.3072
50.0000 11.6898 -18.9007
50.0000 2.1479 -37.0295
50.0000 -9.7491 -22.4619
50.0000 10.2581 9.9130
50.0000 12.9251 20.9921
50.0000 -8.7692 -4.5621
50.0000 1.5094 11.7041
50.0000 3.7123 -0.6413
50.0000 -13.6011 17.3278
50.0000 -4.5821 -1.4128
50.0000 8.1810 16.4351
50.0000 13.0480 -14.7273
50.0000 4.1375 1.7636
50.0000 -7.5398 12.7865
50.0000 -14.3728 23.1593
50.0000 0.9028 32.0565
50.0000 -10.7586 -25.7971
50.0000 3.7892 12.1805
50.0000 -7.8340 -9.2115
50.0000 -11.3592 32.8520
50.0000 11.5591 -21.6791
50.0000 -13.5980 8.1002
50.0000 -4.7345 -0.2673
50.0000 9.5305 10.4212
50.0000 14.6152 -38.3396
50.0000 -6.9001 -23.4842
50.0000 -13.9952 -34.6657
50.0000 13.1118 35.1186
50.0000 3.8316 17.3551
50.0000 -12.5471 23.6386
50.0000 7.5921 -1.3140
50.0000 -6.5681 -22.0875
50.0000 -1.8193 12.2585
50.0000 5.9693 -27.8114
50.0000 -10.6107 7.5254
50.0000 0.9541 28.4765
50.0000 -9.6150 -24.0552
50.0000 12.3275 -20.8729
50.0000 11.0324 25.6279
50.0000 9.8078 22.4466
50.0000 -1.2377 -37.4040
50.0000 13.2189 -18.3728
50.0000 -0.6203 -33.1534
50.0000 -6.1551 -1.0386
50.0000 13.3238 -7.0673
50.0000 -9.6919 -11.2636
50.0000 -13.5671 1.3519
50.0000 -2.9911 -33.3365
50.0000 -1.2068 -21.3235
50.0000 9.2934 -8.3893
50.0000 3.1518 28.5397
50.0000 0.8159 5.3232
50.0000 -1.6250 12.0963
50.0000 -4.6450 -13.4528
50.0000 -14.8401 27.3754
50.0000 -4.1817 -38.1691
50.0000 1.1106 -15.2508
50.0000 -0.3573 15.8245
-50.0000 1.7142 -26.4834
-50.0000 -11.7071 18.9987
-50.0000 -1.4816 10.0431
-50.0000 1.6057 -17.4907
-50.0000 -9.9130 -18.6383
-50.0000 14.8905 38.7393
-50.0000 3.4494 -12.0227
-50.0000 -0.5204 28.9639
-50.0000 -1.0112 1.5147
-50.0000 6.6794 9.8340
-50.0000 5.3067 -31.6150
-50.0000 14.1967 5.6813
-50.0000 -5.2133 25.3594
-50.0000 -6.1158 20.4880
-50.0000 -6.9066 -31.1939
-50.0000 -9.7158 -5.1209
-50.0000 -6.5675 8.3000
-50.0000 9.6671 -15.5681
-50.0000 2.0975 16.9733
-50.0000 -12.4469 -7.9501
-50.0000 -3.5756 -39.0128
-50.0000 -0.3485 33.8479
-50.0000 8.4970 -29.6362
-50.0000 5.6961 3.4749
-50.0000 -12.8232 -27.2827
-50.0000 3.4776 32.7494
-50.0000 14.5272 -14.9973
-50.0000 10.5768 6.4914
-50.0000 -3.9368 37.1895
-50.0000 14.1347 -32.1635
-50.0000 5.2839 -4.0558
-50.0000 1.6560 20.6173
-50.0000 -14.7514 -11.4544
-50.0000 7.6869 -30.0379
-50.0000 -7.0744 33.5679
-50.0000 11.0942 -31.0038
-50.0000 -11.7534 -11.8556
-50.0000 3.0510 39.0919
-50.0000 -10.1005 0.4786
-50.0000 -14.0557 -22.2329
-50.0000 -8.6083 -10.6129
-50.0000 -0.9892 -35.7478
-50.0000 -7.8819 9.8890
-50.0000 -11.9700 -18.2082
-50.0000 0.9816 -13.9901
-50.0000 6.3218 -35.2370
-50.0000 -14.3885 -27.2862
-50.0000 -7.0665 0.4630
-50.0000 -9.8713 -26.9292
-50.0000 -9.3893 -11.7980
-50.0000 -8.8142 -15.3039
-50.0000 5.5717 14.3971
-50.0000 -11.0668 -26.9208
-50.0000 -1.6951 8.4757
-50.0000 4.8877 3.3855
-50.0000 -13.0583 -17.4067
-50.0000 7.1907 -12.0006
-50.0000 -4.3975 -33.3139
-50.0000 2.1004 38.4582
-50.0000 -2.9197 12.2162
-50.0000 -5.1301 17.2795
-50.0000 -1.4174 32.1955
-50.0000 14.0795 4.3139
-50.0000 -11.1203 12.5845
-50.0000 -8.4263 -1.0889
-50.0000 7.0125 11.8614
-50.0000 -1.1173 -5.6653
-50.0000 -1.2652 1.4365
-50.0000 3.2634 14.2629
-50.0000 10.5749 -17.5634
-50.0000 -8.8650 8.3209
-50.0000 14.1205 -0.6553
-50.0000 11.9627 -26.3068
-50.0000 -10.5269 -14.7581
-50.0000 14.6436 31.4966
-50.0000 3.4264 38.2544
-50.0000 6.3804 20.9780
-50.0000 -7.6830 -3.4266
-50.0000 -12.4215 16.3683
-50.0000 4.3837 22.3174
-50.0000 -7.9123 17.2783
-50.0000 4.7148 12.5348
-50.0000 -6.1192 -28.4318
-50.0000 -5.7767 -28.4197
-50.0000 1.5387 37.4578
-50.0000 4.6088 -9.3969
2.2786 15.0000 -35.8272
45.4822 15.0000 31.4360
19.8784 15.0000 2.6592
48.6055 15.0000 -7.1650
-3.0224 15.0000 -36.8223
43.1318 15.0000 -26.2555
-15.9805 15.0000 -27.7422
-32.0854 15.0000 -34.2831
-42.7594 15.0000 3.6018
9.1256 15.0000 -28.1139
4.7734 15.0000 -22.6006
-9.2631 15.0000 -3.1986
33.3128 15.0000 32.0548
-44.5405 15.0000 0.6625
-8.2952 15.0000 9.6868
-11.1507 15.0000 -21.6697
-7.8823 15.0000 23.1462
35.0447 15.0000 37.4806
-16.4943 15.0000 -17.1397
34.8570 15.0000 -11.9527
3.4039 15.0000 -9.0860
10.6042 15.0000 21.2156
15.8599 15.0000 38.2085
-4.3412 15.0000 -26.8362
-34.8845 15.0000 -37.1587
-20.3952 15.0000 -3.0593
26.8960 15.0000 -19.0586
-15.4939 15.0000 5.4714
-22.9571 15.0000 -15.2377
-12.4626 15.0000 -30.6460
-38.4559 15.0000 -39.6405
9.5350 15.0000 -21.7944
49.0052 15.0000 -0.0519
6.1322 15.0000 -38.9715
-20.6128 15.0000 -1.2515
-40.0382 15.0000 15.6716
10.1905 15.0000 22.1902
-48.8178 15.0000 -34.0470
-29.4151 15.0000 14.3365
-42.5085 15.0000 -30.5263
-40.9027 15.0000 17.5757
-8.3661 15.0000 -35.5867
-32.9826 15.0000 -20.7434
2.0423 15.0000 -16.1564
-32.1978 15.0000 38.8186
9.9480 15.0000 20.3149
-5.9380 15.0000 -5.2489
19.0435 15.0000 11.4722
-43.2086 15.0000 -12.5029
31.8017 15.0000 -8.8981
-49.7008 15.0000 36.2434
-49.8908 15.0000 -22.4064
4.5581 15.0000 -2.6755
35.8867 15.0000 -10.5207
-18.1369 15.0000 -23.0970
7.7991 15.0000 -0.9501
10.1998 15.0000 29.9868
26.6822 15.0000 -20.0213
-7.2216 15.0000 -37.8437
-36.5385 15.0000 -36.5431
48.4042 15.0000 19.0225
-33.0549 15.0000 31.5442
-29.0519 15.0000 -25.3562
-4.1102 15.0000 -36.6805
33.5900 15.0000 13.3925
7.4891 15.0000 -3.9637
-6.8532 15.0000 16.9824
-10.6880 15.0000 37.9894
-30.3828 15.0000 -4.6044
4.6453 15.0000 -29.6359
-43.5824 15.0000 -20.5720
-12.5099 15.0000 -23.9742
22.1380 15.0000 3.6042
29.4350 15.0000 18.5252
-36.7807 15.0000 27.4961
0.9016 15.0000 -39.3926
40.4343 15.0000 16.8220
-45.7250 15.0000 -39.1082
34.6824 15.0000 -35.3090
13.7296 15.0000 23.6482
35.8938 15.0000 -24.0992
-15.5440 15.0000 -31.5591
3.2307 15.0000 30.3462
15.7058 15.0000 26.9651
-20.8825 15.0000 -17.1497
-6.9430 -15.0000 -20.1960
12.2334 -15.0000 -0.8719
-31.8120 -15.0000 23.7152
27.6628 -15.0000 39.2474
41.8735 -15.0000 -20.3004
-6.1100 -15.0000 -15.4442
-14.2298 -15.0000 -13.0939
-30.2931 -15.0000 -11.1412
-27.9585 -15.0000 18.1851
6.9736 -15.0000 -17.4332
-14.8736 -15.0000 -14.8306
44.9735 -15.0000 8.7731
-6.1402 -15.0000 -21.9251
-46.0944 -15.0000 23.8764
-39.5395 -15.0000 -37.5013
17.4684 -15.0000 -34.4057
-5.8662 -15.0000 37.5582
-45.5062 -15.0000 35.1200
-25.3854 -15.0000 18.4336
37.3455 -15.0000 -19.2347
41.2056 -15.0000 -27.4111
-17.6783 -15.0000 -12.4379
10.9000 -15.0000 6.7918
22.6437 -15.0000 -32.5882
-20.7070 -15.0000 33.6761
32.3223 -15.0000 -23.5468
-32.2113 -15.0000 -35.3164
23.3136 -15.0000 -35.6046
-1.7573 -15.0000 17.7617
43.9803 -15.0000 -22.5394
28.5589 -15.0000 0.1153
9.1616 -15.0000 20.1517
-9.5765 -15.0000 25.1365
33.1296 -15.0000 27.1330
6.3068 -15.0000 -25.1912
20.5719 -15.0000 17.1659
15.9311 -15.0000 10.6494
-11.4530 -15.0000 25.4362
2.6282 -15.0000 -4.9478
14.9546 -15.0000 -30.9689
-25.9522 -15.0000 5.2427
-5.3985 -15.0000 23.6866
16.6650 -15.0000 24.9905
3.0623 -15.0000 -31.9025
6.4471 -15.0000 26.8524
-26.5246 -15.0000 -18.8295
22.8587 -15.0000 25.8946
28.1401 -15.0000 7.8579
24.6215 -15.0000 -33.7607
42.0942 -15.0000 2.4795
-27.5267 -15.0000 -8.8741
-45.1036 -15.0000 15.4512
-11.9714 -15.0000 27.9082
-14.3099 -15.0000 1.2939
-34.7460 -15.0000 -16.6576
9.3350 -15.0000 -35.8408
2.6214 -15.0000 -33.8299
-7.5828 -15.0000 -12.3063
8.5934 -15.0000 7.7725
-2.6945 -15.0000 38.9576
-32.4849 -15.0000 12.2581
41.7565 -15.0000 -27.7321
-17.0119 -15.0000 30.4565
-23.0807 -15.0000 -21.1983
-40.5706 -15.0000 27.6020
30.1627 -15.0000 37.6455
-44.9109 -15.0000 5.1677
34.9713 -15.0000 5.6633
-42.1294 -15.0000 -11.4177
-13.6993 -15.0000 -30.7448
39.7445 -15.0000 27.0852
-24.7836 -15.0000 1.9993
13.0691 -15.0000 38.5566
25.5372 -15.0000 -23.9630
6.3737 -15.0000 -15.5296
27.7725 -15.0000 -36.0012
8.0588 -15.0000 19.1289
35.5859 -15.0000 39.4331
29.2292 -15.0000 -15.2133
-45.7065 -15.0000 -0.3080
11.3188 -15.0000 -36.9112
-39.8094 -15.0000 -36.9199
13.6499 -15.0000 -5.9928
22.4285 -15.0000 32.3410
-28.6762 -15.0000 39.3828
41.9037 -3.9676 40.0000
37.3620 -10.1667 40.0000
-19.0101 1.2434 40.0000
37.1869 0.7131 40.0000
-19.3997 -10.3554 40.0000
-38.7516 3.0928 40.0000
36.7148 -8.9319 40.0000
37.0914 4.3167 40.0000
-48.9945 -7.6926 40.0000
17.2761 2.6725 40.0000
-40.4023 5.9975 40.0000
-19.0949 10.2289 40.0000
-6.9516 -13.2695 40.0000
-8.2868 14.6876 40.0000
11.4624 -13.6487 40.0000
35.5076 14.5161 40.0000
27.3404 -13.7944 40.0000
-49.4708 13.6225 40.0000
-41.8809 -5.8736 40.0000
-11.5060 -9.3813 40.0000
-4.4115 -13.7879 40.0000
-20.5088 -2.4150 40.0000
28.6899 4.5803 40.0000
18.8841 -11.0895 40.0000
37.4162 8.8730 40.0000
-36.1162 0.6270 40.0000
-6.3779 -0.6813 40.0000
-44.7245 -1.6811 40.0000
-46.4562 -3.5696 40.0000
-9.3037 -11.0617 40.0000
-9.4608 12.3759 40.0000
-22.0866 8.0882 40.0000
44.5389 -1.2741 40.0000
13.8939 -5.0003 40.0000
48.6899 -4.4865 40.0000
-35.2988 -4.2860 40.0000
19.8097 -3.3188 40.0000
37.8773 8.6258 40.0000
28.2814 -13.3100 40.0000
42.3744 -5.3272 40.0000
24.6225 -0.4409 40.0000
19.9038 6.2258 40.0000
46.1860 -13.0991 40.0000
28.5945 -8.2932 40.0000
-15.4626 0.1290 40.0000
-14.1893 4.9477 40.0000
28.1300 3.4344 40.0000
-19.9409 -0.7234 40.0000
27.9950 -2.4589 40.0000
9.1189 -7.1543 40.0000
42.6135 7.8723 40.0000
-30.6163 14.5671 40.0000
-7.3846 -8.6686 40.0000
-23.5701 -2.3457 40.0000
-30.9717 6.8573 40.0000
-38.8459 -1.6568 40.0000
21.5692 -5.4158 40.0000
-6.5479 -6.3632 40.0000
44.5831 -1.3885 40.0000
44.0840 -0.6631 40.0000
46.9894 -3.8660 40.0000
44.0027 -11.6289 40.0000
-5.2708 -1.7427 40.0000
37.0694 7.8731 40.0000
-20.8734 11.0484 40.0000
21.1956 1.8189 40.0000
-26.2223 12.9386 40.0000
4.9610 7.0162 40.0000
2.5001 -4.5687 40.0000
47.1953 -10.1776 40.0000
-28.8123 -7.5489 40.0000
2.2091 12.3942 40.0000
28.3861 3.1501 40.0000
13.6645 6.8119 40.0000
15.4173 -2.3272 40.0000
18.5482 -7.8309 40.0000
0.9876 3.5456 40.0000
-25.8887 11.0553 40.0000
-1.4614 3.0774 40.0000
15.6863 4.5753 40.0000
12.9557 -0.5474 40.0000
3.6148 6.6682 40.0000
-0.3743 10.0391 40.0000
-34.0409 -13.3781 40.0000
-46.9121 13.6471 40.0000
-17.0915 1.4433 -40.0000
29.1754 3.3627 -40.0000
13.1342 -14.2589 -40.0000
-20.8596 4.4289 -40.0000
-13.4097 6.6825 -40.0000
-10.3095 5.5031 -40.0000
-22.9015 -6.7802 -40.0000
-42.2654 -4.4880 -40.0000
47.5113 5.7899 -40.0000
-33.4565 -8.5264 -40.0000
-1.2113 1.8891 -40.0000
32.0548 -11.6145 -40.0000
33.0719 12.0075 -40.0000
-34.4681 4.0340 -40.0000
9.9071 -14.0931 -40.0000
34.9504 -3.6531 -40.0000
-6.2983 3.2070 -40.0000
4.7576 11.7916 -40.0000
-3.6194 -1.9436 -40.0000
-49.0083 -12.9684 -40.0000
35.5829 -1.5818 -40.0000
5.7230 0.5761 -40.0000
36.8565 -7.7671 -40.0000
0.7283 -7.5673 -40.0000
-48.3025 5.3137 -40.0000
-45.0130 1.5953 -40.0000
10.7760 3.3391 -40.0000
24.1525 -7.1144 -40.0000
30.2013 8.7032 -40.0000
10.8628 -14.2685 -40.0000
-6.5433 -7.0831 -40.0000
-25.0852 1.3568 -40.0000
-2.4697 -3.5116 -40.0000
-4.4398 4.2129 -40.0000
49.4274 6.6302 -40.0000
-9.0732 2.1574 -40.0000
-47.0166 -13.2638 -40.0000
43.0359 10.5196 -40.0000
-28.2737 -1.1446 -40.0000
-6.1216 -10.1160 -40.0000
-23.4265 -2.1139 -40.0000
-19.0475 -4.9125 -40.0000
35.8687 -10.9424 -40.0000
35.4097 11.6344 -40.0000
-2.9533 3.8802 -40.0000
-47.8521 3.4598 -40.0000
-26.5674 -6.3075 -40.0000
45.0244 8.8075 -40.0000
17.9262 -0.8012 -40.0000
39.0713 -9.1526 -40.0000
49.5815 -13.3131 -40.0000
-6.9487 -7.1427 -40.0000
16.4876 1.8185 -40.0000
-36.3583 -2.3562 -40.0000
22.8695 9.2052 -40.0000
11.5344 14.9262 -40.0000
45.3118 4.1509 -40.0000
7.1819 -4.6718 -40.0000
-31.2365 12.0678 -40.0000
33.3032 -12.5812 -40.0000
-11.2962 5.2735 -40.0000
-46.9800 11.5305 -40.0000
-15.6266 -5.1146 -40.0000
-8.9578 -11.7216 -40.0000
39.9730 3.2243 -40.0000
-12.7788 -2.9885 -40.0000
-31.1041 0.2026 -40.0000
-44.7392 -13.4093 -40.0000
16.1357 -2.9426 -40.0000
-14.0036 -9.6198 -40.0000
-18.9888 6.3705 -40.0000
18.4543 1.5011 -40.0000
-32.3789 1.9659 -40.0000
17.7854 11.4209 -40.0000
-33.8290 -1.4216 -40.0000
19.6792 -9.1719 -40.0000
-49.5794 2.8122 -40.0000
-38.1851 -13.4364 -40.0000
-0.9939 -4.5313 -40.0000
-38.6005 -2.8461 -40.0000
25.1321 -13.7005 -40.0000
31.0253 -8.2167 -40.0000
0.8905 -14.9047 -40.0000
-38.7146 8.4216 -40.0000
22.8618 -14.0347 -40.0000
50.0000 -51.6940 -3.2004
50.0000 -54.8338 12.4051
50.0000 -35.6618 -11.4667
50.0000 -45.0013 8.7092
50.0000 -43.5801 -33.5678
50.0000 -0.4427 9.0146
50.0000 -81.2844 -31.0673
50.0000 -67.5507 -3.3735
50.0000 -82.0862 26.6271
50.0000 -78.2221 -11.3132
50.0000 -61.3248 8.6142
50.0000 -81.9895 0.2883
50.0000 -6.7778 -10.4239
50.0000 -51.3303 -7.0803
50.0000 -68.4186 -2.6573
50.0000 -38.6798 -22.3429
50.0000 -8.8497 -19.7514
50.0000 -18.8115 25.0474
50.0000 -14.6696 -19.3658
50.0000 11.3886 0.8065
50.0000 2.1500 8.9699
50.0000 -4.5181 -11.8210
50.0000 -62.9940 20.4452
50.0000 -12.7207 -38.6235
50.0000 -74.0167 -13.9007
50.0000 14.6962 10.1851
50.0000 -82.6677 17.0469
50.0000 -11.3457 -29.0346
50.0000 -30.9383 -38.6504
50.0000 -84.2693 39.6158
50.0000 8.1323 -0.7210
50.0000 -55.9121 6.1036
50.0000 -14.3136 -20.3663
50.0000 -37.0961 0.3092
50.0000 -53.1895 27.8294
50.0000 -80.4372 -2.3455
50.0000 -24.0530 12.7006
50.0000 -80.9599 3.2882
50.0000 -39.5059 -30.2587
50.0000 -0.5194 -12.7170
50.0000 -80.0711 19.0012
50.0000 7.4835 -15.1653
50.0000 2.7259 -27.5769
50.0000 -67.3392 37.6852
50.0000 -56.7862 -0.6923
50.0000 -46.4821 34.5875
50.0000 -13.3864 17.9126
50.0000 -31.4448 -29.5542
50.0000 -3.1372 -32.5313
50.0000 -70.3494 -31.6727
50.0000 -84.3933 -20.6769
50.0000 -46.7283 -37.8599
50.0000 -46.7291 36.6649
50.0000 -63.2168 39.4915
50.0000 7.6124 7.5154
50.0000 -67.6958 -29.0754
50.0000 14.0349 -31.3724
50.0000 -36.1940 -1.2857
50.0000 -61.0594 -10.7672
50.0000 -40.6660 -10.5402
50.0000 8.3431 -2.2458
50.0000 -65.1933 -9.4482
50.0000 -19.3575 -4.8053
50.0000 -29.3373 1.6209
50.0000 6.9109 9.6267
50.0000 -81.0378 -22.1991
50.0000 -47.8987 -7.6532
50.0000 -34.0488 12.7351
50.0000 5.1783 -1.2242
50.0000 -24.8261 35.2896
50.0000 -79.6118 -19.2178
50.0000 -12.2422 21.4202
50.0000 -42.5775 30.3014
50.0000 1.2072 23.8590
50.0000 -41.3208 -12.6933
50.0000 2.2056 -17.0453
50.0000 -33.1261 -0.9848
50.0000 -14.6698 37.0277
50.0000 -61.2412 29.7259
50.0000 -14.7959 25.8665
50.0000 -42.9729 -5.5758
50.0000 -30.2886 -18.9338
50.0000 -70.8363 18.9158
50.0000 -3.3595 -12.2721
50.0000 -28.8791 -15.0975
50.0000 -9.5916 0.0770
20.0000 -48.5707 23.7899
20.0000 -5.7546 -39.0029
20.0000 -54.7469 23.3647
20.0000 -12.9953 -38.1614
20.0000 -7.0992 9.2575
20.0000 -72.2169 -19.7391
20.0000 -6.2168 27.7959
20.0000 4.2212 -9.8519
20.0000 6.9233 -36.0433
20.0000 -84.6388 -13.5576
20.0000 -9.4391 -29.8331
20.0000 -38.2905 -17.0126
20.0000 -48.9533 -17.7449
20.0000 -34.0675 22.1353
20.0000 -75.1694 -32.2352
20.0000 -37.3018 7.9415
20.0000 -15.1364 16.7699
20.0000 -2.3703 -12.7732
20.0000 -20.1279 -35.5217
20.0000 -27.4352 -32.8775
20.0000 -31.4762 8.7792
20.0000 -51.8365 -8.3735
20.0000 -80.1809 -10.2892
20.0000 -66.5491 29.4600
20.0000 -24.4350 10.4323
20.0000 -53.9416 14.6939
20.0000 -59.7682 -25.9390
20.0000 -60.6319 -22.4852
20.0000 -81.8560 1.6715
20.0000 -27.4751 -31.5100
20.0000 -81.1850 -19.6430
20.0000 -40.4773 -10.3910
20.0000 -50.4756 -13.0179
20.0000 -45.4173 38.9899
20.0000 -40.9696 20.3455
20.0000 -59.4844 1.2696
20.0000 9.3849 -18.4636
20.0000 -7.3805 -27.9195
20.0000 -73.9006 17.6886
20.0000 -8.9678 37.3956
20.0000 -60.7848 -35.8693
20.0000 9.4751 11.3215
20.0000 -26.1470 24.8671
20.0000 -68.8171 20.4083
20.0000 -67.7512 16.1983
20.0000 -75.5091 -24.2836
20.0000 -71.1053 -20.0238
20.0000 -34.1750 15.4425
20.0000 -67.2449 7.3683
20.0000 0.6818 -15.3450
20.0000 -1.0160 -9.6025
20.0000 10.7633 -8.5585
20.0000 -44.3168 -38.3257
20.0000 11.0302 38.2810
20.0000 -1.3512 -10.3326
20.0000 -6.7977 13.8124
20.0000 -65.7657 13.5835
20.0000 -67.0973 1.0120
20.0000 -71.5347 -36.5385
20.0000 -27.8838 -30.8707
20.0000 -7.4224 8.7374
20.0000 -15.7847 -9.6096
20.0000 -18.4378 -11.4779
20.0000 -12.3857 14.5097
20.0000 -54.2789 -27.9235
20.0000 -74.8438 -16.0592
20.0000 -25.7136 23.9854
20.0000 -47.5634 -20.4248
20.0000 9.7805 -3.1240
20.0000 -69.3667 22.7316
20.0000 -43.5835 17.3488
20.0000 -55.4665 -14.7521
20.0000 -56.9705 -21.4596
20.0000 -58.9945 -7.0851
20.0000 -82.7358 21.0132
20.0000 -79.7918 -15.6043
20.0000 6.3189 -7.2951
20.0000 -76.8966 -27.4786
20.0000 11.7954 -28.7815
20.0000 -22.2092 -28.1706
20.0000 -48.6086 -3.2184
20.0000 12.6033 31.6986
20.0000 -63.4762 16.8062
20.0000 11.7682 29.3475
20.0000 -44.0544 12.8549
20.0000 -38.8107 -29.2487
48.5890 15.0000 39.3119
37.9892 15.0000 27.6673
36.6767 15.0000 11.3027
20.7232 15.0000 16.2965
31.8067 15.0000 21.0455
27.3785 15.0000 13.4391
38.2154 15.0000 -7.8033
29.3464 15.0000 35.9039
34.5667 15.0000 35.8801
34.1041 15.0000 -13.8040
49.6263 15.0000 -26.7772
27.5127 15.0000 37.6822
22.1463 15.0000 37.7713
40.9686 15.0000 -33.2204
41.8033 15.0000 4.5055
24.3446 15.0000 -20.7204
44.2951 15.0000 31.8453
46.4512 15.0000 4.3768
21.5739 15.0000 26.6436
26.8452 15.0000 -11.6971
43.1890 15.0000 28.3448
24.5430 15.0000 36.2064
33.3732 15.0000 -9.2529
23.0379 15.0000 7.0149
26.4056 15.0000 36.9583
28.7856 15.0000 6.2408
48.4598 15.0000 29.7220
21.1453 15.0000 39.2588
26.7249 15.0000 21.2001
48.3633 15.0000 -2.5499
29.8112 15.0000 -7.1536
23.0670 15.0000 0.7209
43.4986 15.0000 -28.4678
44.5021 15.0000 21.3411
39.6540 15.0000 -36.5197
47.5699 15.0000 11.4113
27.9338 15.0000 -35.7565
23.3162 15.0000 30.6035
23.7099 15.0000 28.3024
22.6786 15.0000 24.7489
47.0336 15.0000 24.6700
32.8260 15.0000 35.9506
28.2172 15.0000 -21.6480
46.7654 15.0000 -7.6743
30.3358 15.0000 7.4733
25.8764 15.0000 -26.5020
39.8427 15.0000 -19.4987
26.9428 15.0000 -37.0808
47.4821 15.0000 19.3170
40.8539 15.0000 36.5124
35.8659 15.0000 -23.0415
47.0889 15.0000 6.7720
41.6375 15.0000 -8.1297
45.4530 15.0000 31.5080
46.4459 15.0000 36.4728
42.0678 15.0000 -25.2188
24.3398 15.0000 -5.8784
43.6940 15.0000 9.4437
36.7899 15.0000 2.0491
31.3387 15.0000 16.0979
32.3830 15.0000 -27.5277
28.9404 15.0000 6.7614
33.8893 15.0000 -1.1128
31.5478 15.0000 34.8315
44.2825 15.0000 2.8492
25.9922 15.0000 -17.6730
24.1073 15.0000 28.2572
34.4289 15.0000 -4.1634
47.9396 15.0000 -22.5013
26.4466 15.0000 -4.0142
27.7763 15.0000 18.5468
40.5368 15.0000 30.5976
33.8567 15.0000 -27.1406
35.0982 15.0000 -8.5755
28.9955 15.0000 -14.7770
30.0727 15.0000 15.6702
26.1196 15.0000 9.9246
34.6397 15.0000 13.2072
45.4179 15.0000 -23.2220
26.4539 15.0000 -5.7136
34.2703 15.0000 -38.3146
28.3485 15.0000 -33.2292
23.9911 15.0000 -13.2080
29.4513 15.0000 -28.8019
35.9142 15.0000 33.5970
35.4361 -85.0000 -8.1595
22.7396 -85.0000 -26.5827
27.8680 -85.0000 -23.6585
32.2952 -85.0000 18.7371
36.1720 -85.0000 -20.2425
40.9375 -85.0000 -12.4708
26.7649 -85.0000 19.7732
49.8159 -85.0000 28.3439
38.1382 -85.0000 -3.2932
35.4037 -85.0000 28.6193
48.6498 -85.0000 1.4528
32.2573 -85.0000 -21.7980
21.1586 -85.0000 17.6524
37.9843 -85.0000 -36.8313
34.4463 -85.0000 -15.1999
36.7262 -85.0000 -4.8895
22.8693 -85.0000 -23.5758
20.6279 -85.0000 31.6676
20.9336 -85.0000 31.3411
35.7152 -85.0000 -16.5923
21.9120 -85.0000 -38.5735
42.2303 -85.0000 26.2955
24.8840 -85.0000 3.8036
38.1225 -85.0000 -4.3746
49.9689 -85.0000 13.3377
27.8168 -85.0000 -10.2153
28.6032 -85.0000 33.3101
43.7396 -85.0000 37.0733
48.4826 -85.0000 34.8917
34.2224 -85.0000 36.7787
21.0833 -85.0000 39.6728
36.6304 -85.0000 28.6548
42.1555 -85.0000 23.4999
21.9341 -85.0000 20.1885
43.8798 -85.0000 -19.4039
48.9111 -85.0000 26.1213
27.6321 -85.0000 -26.4039
28.0450 -85.0000 -34.2841
20.4538 -85.0000 25.5480
39.1524 -85.0000 -30.2075
28.1021 -85.0000 11.7580
30.2799 -85.0000 -12.7667
40.7373 -85.0000 -28.8613
23.2105 -85.0000 -6.1620
35.6045 -85.0000 30.6195
27.5547 -85.0000 -8.4342
45.0490 -85.0000 -7.9020
40.0547 -85.0000 28.2347
37.0815 -85.0000 -31.6713
27.7670 -85.0000 18.9378
28.4154 -85.0000 24.5767
28.5059 -85.0000 -22.1432
38.7036 -85.0000 -30.6607
48.9339 -85.0000 -1.8545
48.0960 -85.0000 -22.9749
33.2904 -85.0000 27.2217
30.5505 -85.0000 7.5013
45.6908 -85.0000 -2.9061
47.1311 -85.0000 31.1763
44.8834 -85.0000 1.3120
30.0085 -85.0000 27.3479
29.6972 -85.0000 -33.9962
32.2175 -85.0000 -0.5604
31.7299 -85.0000 -2.3837
45.2129 -85.0000 -30.6036
25.4550 -85.0000 -4.7593
46.6019 -85.0000 -32.1793
24.0138 -85.0000 30.2064
47.2112 -85.0000 -39.4313
22.9906 -85.0000 -28.7123
44.9075 -85.0000 36.8418
42.0047 -85.0000 -21.0274
25.0974 -85.0000 11.5528
38.1136 -85.0000 -26.6779
49.0957 -85.0000 0.0201
37.6620 -85.0000 19.5643
33.8377 -85.0000 3.5320
26.1135 -85.0000 -1.7487
41.7556 -85.0000 10.2614
49.0140 -85.0000 -9.0523
39.9702 -85.0000 -7.8387
37.8706 -85.0000 28.7171
33.7777 -85.0000 -31.9930
33.2651 -85.0000 -14.5763
39.3407 -85.0000 22.0100
45.6676 -63.8070 40.0000
49.6859 -59.5442 40.0000
32.6320 -39.7590 40.0000
36.9869 -50.1177 40.0000
23.6124 -19.6851 40.0000
48.4210 -49.3832 40.0000
37.5659 -58.5425 40.0000
42.8961 -43.9676 40.0000
46.7348 -9.8509 40.0000
43.0257 -36.1330 40.0000
25.7566 1.7199 40.0000
25.5595 -25.6981 40.0000
44.3915 -36.5262 40.0000
24.8386 -44.2034 40.0000
48.7704 -17.7348 40.0000
28.3045 -39.1415 40.0000
32.6920 -70.1072 40.0000
23.4087 9.7824 40.0000
39.7773 7.4657 40.0000
33.6337 -63.3656 40.0000
46.6252 -35.4147 40.0000
32.3061 -49.7621 40.0000
23.6277 -72.2076 40.0000
22.8351 -62.2974 40.0000
30.4763 -59.3533 40.0000
38.1088 14.4259 40.0000
46.6937 -56.8880 40.0000
42.4559 -48.1801 40.0000
39.0903 -5.2535 40.0000
23.5127 -70.7930 40.0000
20.4195 -68.5749 40.0000
27.4781 0.1178 40.0000
27.6212 -49.1878 40.0000
27.0205 -32.5191 40.0000
35.1181 -81.9663 40.0000
42.0783 8.5580 40.0000
31.8534 -12.5643 40.0000
47.1988 -46.9047 40.0000
29.9589 -24.0082 40.0000
29.8051 -63.9117 40.0000
33.5952 -35.0816 40.0000
34.8330 -73.4897 40.0000
26.9588 -68.8232 40.0000
43.6058 -56.5384 40.0000
25.7481 -82.2734 40.0000
39.8500 -83.7274 40.0000
37.1097 -12.1720 40.0000
35.3281 -35.9597 40.0000
25.4130 7.2850 40.0000
42.7187 -41.1080 40.0000
35.7752 -34.1484 40.0000
40.7442 -2.1284 40.0000
26.7623 -4.3213 40.0000
30.2015 -39.8846 40.0000
46.3630 -26.9051 40.0000
46.7397 -51.6976 40.0000
24.1126 -34.1584 40.0000
28.7679 -55.0980 40.0000
29.1389 -74.5138 40.0000
21.4011 8.4046 40.0000
39.6424 -18.4596 40.0000
46.3563 -22.6492 40.0000
34.7115 -76.9629 40.0000
22.1422 -55.3049 40.0000
34.6048 -18.5726 40.0000
38.5748 -13.4549 40.0000
49.5507 -24.1304 40.0000
49.3822 -27.4085 40.0000
44.7348 -75.2919 40.0000
44.0166 -7.2275 40.0000
23.8575 -38.8801 40.0000
37.5195 -60.9419 40.0000
33.4841 -39.8529 40.0000
30.4940 -30.0497 40.0000
22.0490 12.3315 40.0000
29.9294 -56.4673 40.0000
28.7989 3.2536 40.0000
44.8939 -63.2831 40.0000
21.5240 -26.7335 40.0000
43.2910 -33.5835 40.0000
30.7352 -29.3520 40.0000
21.7191 -82.8796 40.0000
39.5075 -57.9162 40.0000
42.5554 -10.4339 40.0000
41.2056 3.2783 40.0000
34.3499 12.2168 -40.0000
27.7119 -29.4735 -40.0000
34.4090 -47.1474 -40.0000
44.1134 -26.2135 -40.0000
49.0655 5.6616 -40.0000
44.3338 -68.6329 -40.0000
29.9955 -44.2142 -40.0000
49.4322 -16.3623 -40.0000
30.3517 -29.8268 -40.0000
24.9131 -2.2830 -40.0000
39.4498 -16.6316 -40.0000
20.3241 8.8961 -40.0000
33.1647 -28.8969 -40.0000
43.6104 -61.9408 -40.0000
25.8421 -16.3470 -40.0000
24.0176 -74.1415 -40.0000
47.6423 -65.4672 -40.0000
33.5619 -16.0443 -40.0000
38.4874 -84.6096 -40.0000
33.4597 -1.5026 -40.0000
31.2819 14.8152 -40.0000
42.5082 -8.9529 -40.0000
27.5431 -8.9787 -40.0000
28.6517 9.9743 -40.0000
22.1235 10.3880 -40.0000
31.0154 -64.6720 -40.0000
34.0651 -69.2820 -40.0000
40.5767 -39.9517 -40.0000
41.0904 14.0737 -40.0000
21.6077 -82.2119 -40.0000
47.5211 -43.2425 -40.0000
35.9323 -30.9460 -40.0000
34.7151 -36.0927 -40.0000
20.1021 -29.6240 -40.0000
39.2957 -79.6858 -40.0000
31.9215 -66.7280 -40.0000
23.0454 -27.5117 -40.0000
29.4414 -22.7794 -40.0000
30.3954 -12.7441 -40.0000
40.8771 -56.0268 -40.0000
48.5251 -16.9561 -40.0000
28.5596 -36.8301 -40.0000
26.6704 -59.1364 -40.0000
38.1492 -74.8551 -40.0000
49.9043 -66.1507 -40.0000
22.3360 -25.1796 -40.0000
21.6170 0.1818 -40.0000
23.7072 -63.7169 -40.0000
35.6132 -80.1416 -40.0000
20.9013 -83.2708 -40.0000
36.2979 -55.8496 -40.0000
31.7227 -19.1391 -40.0000
42.2526 -16.9059 -40.0000
43.6376 -55.5952 -40.0000
24.0357 -12.9312 -40.0000
35.7729 -53.3089 -40.0000
24.5296 7.4499 -40.0000
43.8872 -51.6970 -40.0000
28.9811 -69.9587 -40.0000
25.0614 2.1760 -40.0000
48.7903 -10.6156 -40.0000
26.2082 -0.2357 -40.0000
27.7495 -25.2574 -40.0000
27.8325 -81.7856 -40.0000
33.2156 -22.8032 -40.0000
33.3123 -29.1731 -40.0000
43.7411 -56.6938 -40.0000
42.9773 4.3831 -40.0000
37.2989 -66.0629 -40.0000
39.3708 -56.3002 -40.0000
36.6933 -80.4807 -40.0000
39.1830 13.7859 -40.0000
20.7568 -47.3420 -40.0000
20.2133 5.3782 -40.0000
42.5067 -8.9639 -40.0000
45.7679 -73.3845 -40.0000
25.4983 -26.0464 -40.0000
44.1006 3.1821 -40.0000
48.3828 5.0210 -40.0000
43.4700 -28.8191 -40.0000
31.0043 -76.5809 -40.0000
21.3006 -72.7471 -40.0000
44.3990 3.1340 -40.0000
46.2337 -80.9618 -40.0000
27.0472 -76.4576 -40.0000
