ply
format ascii 1.0
element vertex 1024
property float x
property float y
property float z
end_header
50.0000 -6.6953 -38.6746
50.0000 -8.5830 -24.6599
50.0000 -4.7600 -1.9344
50.0000 -14.8715 26.4283
50.0000 -1.1060 -27.4815
50.0000 -13.4084 16.4024
50.0000 9.2025 19.8111
50.0000 -11.4601 13.8486
50.0000 9.3884 -33.4159
50.0000 -10.7750 -8.8497
50.0000 11.4708 32.2011
50.0000 -4.5805 3.4405
50.0000 -14.1810 -3.5892
50.0000 13.2488 -32.2409
50.0000 -10.5022 0.9751
50.0000 -1.6419 28.4031
50.0000 -3.0875 9.6186
50.0000 -13.8062 -12.9041
50.0000 2.1052 -38.8821
50.0000 12.6117 -39.6645
50.0000 -1.3268 -34.9420
50.0000 -13.2335 0.8233
50.0000 10.8743 23.7080
50.0000 6.1959 32.0021
50.0000 13.2705 -32.7416
50.0000 -9.1638 -13.7279
50.0000 10.2204 -32.2769
50.0000 -1.6356 29.3174
50.0000 4.0781 37.1798
50.0000 6.0703 12.0949
50.0000 -13.9859 -35.4565
50.0000 9.5671 -29.4412
50.0000 4.5349 -37.8740
50.0000 14.6594 39.8645
50.0000 -3.9680 13.5941
50.0000 12.5563 25.1117
50.0000 2.3810 17.8899
50.0000 5.6187 -19.6917
50.0000 -1.9416 -29.0200
50.0000 -13.3982 -18.9370
50.0000 10.3144 -22.5480
50.0000 14.9265 28.9902
50.0000 12.0402 -26.4899
50.0000 7.8904 -4.9510
50.0000 -5.4520 20.9010
50.0000 0.3932 35.5734
50.0000 -4.8324 -13.0439
50.0000 6.1368 12.3591
50.0000 -4.4563 25.8247
50.0000 1.8212 -14.8183
50.0000 -12.0114 -20.4288
50.0000 -6.9222 36.6177
50.0000 8.4850 -38.1045
50.0000 1.8801 11.4858
50.0000 7.0565 35.1475
50.0000 -14.2465 7.6361
50.0000 13.9633 -35.7636
50.0000 -5.2263 10.5248
50.0000 14.0880 37.1824
50.0000 -2.9489 5.2896
50.0000 1.6175 37.5742
50.0000 -5.7128 -4.3031
50.0000 1.1115 34.9234
50.0000 -11.1102 25.8677
50.0000 -13.2457 -6.7995
50.0000 -13.0292 -0.6355
50.0000 -12.9793 26.8256
50.0000 -5.0496 -15.1237
50.0000 10.1927 14.5943
50.0000 -8.9553 20.6580
50.0000 -0.9452 -15.2325
50.0000 7.3003 23.5937
50.0000 -8.0217 29.6258
50.0000 -12.4312 38.6865
50.0000 0.2346 10.3945
50.0000 2.5637 25.7660
50.0000 -4.9134 8.7208
50.0000 -12.3171 -35.7001
50.0000 -1.6948 -4.8513
50.0000 9.4855 -33.4499
50.0000 5.0343 -12.5697
50.0000 10.8189 -24.2011
50.0000 11.1898 -5.0093
50.0000 4.8843 -14.4976
50.0000 8.6012 -13.2316
50.0000 1.0410 36.5184
-50.0000 -11.0535 35.0503
-50.0000 13.1608 -33.7118
-50.0000 -11.4929 28.6973
-50.0000 -1.6020 17.7854
-50.0000 13.9869 -20.4263
-50.0000 8.2620 -33.1146
-50.0000 -9.7170 -36.1403
-50.0000 14.2772 -27.3178
-50.0000 -7.7000 34.1478
-50.0000 -1.6914 -24.9709
-50.0000 -0.7828 -0.0829
-50.0000 9.5993 -20.3803
-50.0000 -4.5483 29.4842
-50.0000 -1.7755 35.6678
-50.0000 3.8494 -34.6933
-50.0000 1.3293 18.6321
-50.0000 -2.4373 7.6140
-50.0000 11.7510 -22.1011
-50.0000 13.8859 7.3469
-50.0000 -0.0377 33.0790
-50.0000 11.4581 -36.3019
-50.0000 2.7734 21.0124
-50.0000 3.5753 -13.0028
-50.0000 14.0100 -2.1771
-50.0000 14.4065 -30.6110
-50.0000 -6.5719 37.8586
-50.0000 9.0492 5.1343
-50.0000 8.4538 8.6009
-50.0000 2.5715 -3.2425
-50.0000 3.9504 -30.6314
-50.0000 4.6432 3.9767
-50.0000 7.2210 -39.5681
-50.0000 -11.1343 -34.6840
-50.0000 -14.2779 2.5418
-50.0000 13.9948 -2.0963
-50.0000 5.9648 -1.3176
-50.0000 -5.1274 -22.2117
-50.0000 12.0593 0.0602
-50.0000 -2.7974 38.9124
-50.0000 -8.3422 -34.6984
-50.0000 -10.4521 4.4464
-50.0000 12.1385 12.0371
-50.0000 12.6883 -26.0446
-50.0000 -4.3653 2.4296
-50.0000 0.2120 6.2241
-50.0000 -12.8681 -14.5411
-50.0000 -3.1272 31.4307
-50.0000 0.7114 21.2527
-50.0000 14.8624 -22.4735
-50.0000 8.4144 23.5766
-50.0000 -8.3983 20.2454
-50.0000 5.0528 -18.5908
-50.0000 -6.5713 -12.3331
-50.0000 10.2964 -11.5849
-50.0000 -11.1678 -19.2219
-50.0000 -4.8217 -39.0630
-50.0000 11.7632 36.2370
-50.0000 9.8259 35.4907
-50.0000 -2.4264 1.7403
-50.0000 -4.3251 2.5381
-50.0000 14.5694 19.1997
-50.0000 -13.0149 17.2749
-50.0000 -12.7324 11.4807
-50.0000 11.0882 -24.8985
-50.0000 -8.2075 34.9955
-50.0000 11.4730 11.0304
-50.0000 -9.9275 -1.4414
-50.0000 3.8697 22.9543
-50.0000 -1.0000 -25.0966
-50.0000 -5.3698 33.9163
-50.0000 14.3851 -33.9157
-50.0000 -4.0186 -25.3455
-50.0000 14.4685 -21.2491
-50.0000 4.4224 29.9408
-50.0000 10.5943 -21.8079
-50.0000 -2.3210 24.2366
-50.0000 6.8636 -12.7220
-50.0000 3.1150 16.4890
-50.0000 -2.5691 17.4771
-50.0000 -6.7239 -39.5749
-50.0000 7.6912 -39.4754
-50.0000 11.9496 8.6988
-50.0000 8.2224 31.0071
-50.0000 -13.6644 -15.8073
-50.0000 -9.8846 34.7545
-50.0000 -5.9887 20.0230
42.8409 15.0000 -7.0560
31.0263 15.0000 -7.5270
-39.0130 15.0000 -24.0006
-38.9134 15.0000 39.9698
-41.0897 15.0000 13.7807
-5.4669 15.0000 6.3117
-2.4471 15.0000 10.3839
14.6568 15.0000 -2.7350
45.3634 15.0000 -7.7187
-10.3680 15.0000 8.7226
-28.8606 15.0000 -0.3878
-43.0423 15.0000 12.1966
41.7757 15.0000 -18.3769
-25.7791 15.0000 -1.5828
-33.2722 15.0000 -24.4079
-35.2066 15.0000 -27.8340
-2.1338 15.0000 19.4201
20.9843 15.0000 -20.5139
42.0488 15.0000 33.6785
-31.2156 15.0000 -10.0881
-37.6629 15.0000 27.3344
-24.0651 15.0000 -23.5914
18.2466 15.0000 -2.6761
-5.8671 15.0000 18.0085
11.7043 15.0000 -13.3656
-7.1233 15.0000 21.1467
49.7068 15.0000 -24.3661
4.0732 15.0000 5.2462
0.6260 15.0000 -24.8388
-13.9510 15.0000 -39.1637
-33.7291 15.0000 -4.6621
-18.5154 15.0000 7.2909
-3.3978 15.0000 29.4936
14.2334 15.0000 -30.0142
19.7472 15.0000 10.9266
27.0341 15.0000 -36.4524
12.6271 15.0000 36.7306
-24.3583 15.0000 26.2048
37.3507 15.0000 -33.0281
-37.1943 15.0000 8.9823
-1.9338 15.0000 -26.0889
37.2020 15.0000 3.8560
42.0314 15.0000 12.6115
-21.1773 15.0000 -29.1854
11.1479 15.0000 -28.8792
-43.7641 15.0000 -14.4936
9.1144 15.0000 0.7939
42.4559 15.0000 -17.3466
32.1727 15.0000 -5.8975
-31.1557 15.0000 -23.9175
-9.7857 15.0000 -3.6125
4.2261 15.0000 10.7993
21.7400 15.0000 -26.0713
17.4738 15.0000 -36.4648
37.1896 15.0000 -16.5355
-14.4320 15.0000 12.5019
34.4618 15.0000 -22.6487
-47.1451 15.0000 -4.3430
-3.1042 15.0000 -5.5724
0.6682 15.0000 -19.1244
-36.6185 15.0000 -11.4461
49.4205 15.0000 3.3412
-36.2559 15.0000 15.2372
42.9597 15.0000 -16.8031
7.7814 15.0000 -37.2101
20.5872 15.0000 -30.7414
24.7955 15.0000 -19.6423
17.6695 15.0000 -10.0852
-47.1427 15.0000 1.4423
-26.9081 15.0000 -6.1516
-22.0571 15.0000 -33.4983
33.2226 15.0000 5.4376
24.3415 15.0000 -32.4397
-15.4437 15.0000 -39.3696
44.7840 15.0000 10.0349
7.9028 15.0000 20.5209
-17.2852 15.0000 -18.0349
-13.5673 15.0000 -34.0239
-19.6891 15.0000 -18.5381
24.3597 15.0000 4.4942
-26.5793 15.0000 28.9039
43.8727 15.0000 15.4961
-0.7638 15.0000 2.0883
-29.8807 15.0000 -15.6016
-43.7812 15.0000 30.5296
27.2425 -15.0000 14.0493
-46.8695 -15.0000 35.0628
-28.0645 -15.0000 -15.3941
-1.6839 -15.0000 38.4641
-11.3629 -15.0000 9.8628
36.0184 -15.0000 -19.1901
-48.7688 -15.0000 -11.4553
44.5751 -15.0000 -36.4429
-36.6229 -15.0000 -26.5594
22.9492 -15.0000 -24.7904
-23.7060 -15.0000 21.2331
-3.9960 -15.0000 -5.7890
30.8329 -15.0000 -31.6499
-5.0082 -15.0000 0.3851
-48.6730 -15.0000 20.2622
34.2152 -15.0000 -30.2848
-22.9927 -15.0000 -2.4215
-41.5652 -15.0000 18.8744
-19.9129 -15.0000 34.1254
0.9122 -15.0000 1.3902
21.3708 -15.0000 -29.8513
19.7720 -15.0000 31.5770
37.7933 -15.0000 30.7433
31.0117 -15.0000 -16.7906
38.6150 -15.0000 32.3121
-5.6752 -15.0000 14.2981
4.8262 -15.0000 -2.1176
37.0250 -15.0000 -1.7999
-0.2258 -15.0000 25.7099
-49.9801 -15.0000 21.6023
-8.5200 -15.0000 -19.1612
-36.0739 -15.0000 23.9026
-30.2803 -15.0000 35.3094
-2.5902 -15.0000 -29.6719
4.6034 -15.0000 30.2046
33.7651 -15.0000 1.6972
18.3529 -15.0000 -3.7736
18.1170 -15.0000 -22.6947
30.3588 -15.0000 26.6150
-13.0386 -15.0000 15.2893
36.3494 -15.0000 -20.9756
15.3714 -15.0000 -9.9729
8.8022 -15.0000 -30.0015
44.4555 -15.0000 2.2195
-44.4001 -15.0000 22.3447
1.2565 -15.0000 -24.2165
28.8769 -15.0000 7.9864
-28.2059 -15.0000 -9.3290
45.3206 -15.0000 -34.6927
-1.7306 -15.0000 -11.1187
30.0991 -15.0000 39.1216
38.0930 -15.0000 19.4549
9.5340 -15.0000 6.0567
-22.9869 -15.0000 -0.5489
33.6553 -15.0000 7.4280
2.8937 -15.0000 16.3148
-20.4850 -15.0000 18.0558
17.4940 -15.0000 29.0405
-42.9740 -15.0000 38.8486
-16.3460 -15.0000 -20.2768
36.8297 -15.0000 31.4041
30.4167 -15.0000 36.7125
-25.3608 -15.0000 -27.8755
4.7340 -15.0000 0.5766
35.4200 -15.0000 22.0853
49.7111 -15.0000 24.0325
-36.7956 -15.0000 -38.8037
-37.8862 -15.0000 2.0820
26.9911 -15.0000 -10.8197
-39.7910 -15.0000 30.8697
-42.1676 -15.0000 33.1172
-30.8246 -15.0000 22.4347
23.4024 -15.0000 12.4087
-9.0582 -15.0000 13.3273
-39.9728 -15.0000 -11.3617
-17.4913 -15.0000 -26.9834
-4.4748 -15.0000 29.2426
-21.9765 -15.0000 -38.4908
-5.9407 -15.0000 38.0794
-12.5659 -15.0000 17.7409
30.9821 -15.0000 -15.2594
-4.1635 -15.0000 -3.7742
45.5615 -15.0000 6.7891
-37.9482 -15.0000 38.6638
-16.6259 -15.0000 35.7985
-4.7581 4.3151 40.0000
-22.1452 2.3729 40.0000
29.4026 8.3856 40.0000
27.9941 3.4229 40.0000
-31.2972 -3.6372 40.0000
-6.4748 -12.1913 40.0000
16.4607 0.4990 40.0000
2.8245 -9.7499 40.0000
26.4469 0.1657 40.0000
49.7029 -9.5156 40.0000
28.7874 -13.0554 40.0000
46.3416 -9.4278 40.0000
17.7598 0.0576 40.0000
33.5740 -12.5875 40.0000
-17.7393 -4.5733 40.0000
-27.9294 13.0697 40.0000
-30.6239 12.0746 40.0000
-20.6351 6.3086 40.0000
-0.2808 7.9662 40.0000
-4.0922 10.9998 40.0000
-44.1641 -13.8279 40.0000
16.9687 -7.9068 40.0000
19.8834 -5.6854 40.0000
21.6764 7.0309 40.0000
23.9661 2.5898 40.0000
-31.1522 3.1492 40.0000
42.4360 -2.4281 40.0000
5.6880 -13.2302 40.0000
-42.7196 6.9360 40.0000
-24.7317 6.6973 40.0000
-12.6655 4.7234 40.0000
-34.6497 -3.6916 40.0000
31.3205 -7.0067 40.0000
23.1615 2.2002 40.0000
-46.3107 13.6545 40.0000
39.4796 6.9387 40.0000
-11.6526 -3.2391 40.0000
-1.6702 1.4231 40.0000
10.3834 -9.6796 40.0000
-41.4295 1.1989 40.0000
48.2682 -3.2184 40.0000
15.2727 -12.8175 40.0000
-47.1797 6.1280 40.0000
-38.5075 -2.6237 40.0000
27.6488 9.7231 40.0000
-32.8703 9.8137 40.0000
-29.6879 -9.9507 40.0000
38.9597 3.6784 40.0000
-11.7379 -7.3357 40.0000
48.4995 6.4859 40.0000
-11.0625 -3.5114 40.0000
10.7027 -7.2450 40.0000
41.4608 -9.4830 40.0000
42.2502 -7.2548 40.0000
-9.5194 7.1456 40.0000
-10.2057 1.8648 40.0000
46.6360 13.8878 40.0000
36.4522 -2.8724 40.0000
-21.8286 -12.1961 40.0000
21.3798 1.0967 40.0000
-23.0007 -13.9690 40.0000
-46.6983 12.0554 40.0000
-3.4870 1.1421 40.0000
-17.4470 -8.1287 40.0000
-5.7400 -14.0223 40.0000
-38.0162 10.2770 40.0000
8.5114 4.4590 40.0000
46.6666 -8.3370 40.0000
14.0419 12.1483 40.0000
-22.4538 12.1358 40.0000
-21.0197 -9.9859 40.0000
9.8886 11.8351 40.0000
-11.0426 -5.9311 40.0000
20.1868 -13.4031 40.0000
28.2482 3.6525 40.0000
-43.2998 -14.6005 40.0000
-5.4706 11.4160 40.0000
-47.7412 -11.7682 40.0000
-14.9563 -13.9219 40.0000
35.7000 -6.6252 40.0000
43.3372 -3.5679 40.0000
-40.0297 -6.5091 40.0000
49.8292 -11.9376 40.0000
41.1626 -11.5693 40.0000
-26.2516 -2.1672 40.0000
15.9237 -7.6369 -40.0000
-1.5512 14.3307 -40.0000
15.7008 -12.4014 -40.0000
-1.8032 0.5451 -40.0000
-17.1742 -6.9077 -40.0000
15.3327 -10.4590 -40.0000
43.9792 -12.7250 -40.0000
6.6232 -1.9351 -40.0000
23.0301 1.6184 -40.0000
-17.8548 -14.3088 -40.0000
-13.8667 -9.0358 -40.0000
17.0397 -3.1463 -40.0000
-44.8057 -9.6900 -40.0000
23.0676 -4.9352 -40.0000
-18.6924 -8.3638 -40.0000
12.3610 -0.0868 -40.0000
34.7412 -1.8838 -40.0000
35.6540 -10.4633 -40.0000
6.0149 5.9831 -40.0000
39.9367 10.9522 -40.0000
24.1408 4.0155 -40.0000
29.7666 11.1042 -40.0000
10.1151 -10.0377 -40.0000
-43.1507 -0.6017 -40.0000
37.0045 -3.9681 -40.0000
28.5547 -6.7424 -40.0000
-1.7503 -4.8407 -40.0000
-40.8842 4.9528 -40.0000
8.9032 8.3294 -40.0000
31.8604 -9.4781 -40.0000
22.0761 0.0925 -40.0000
-27.2119 10.6362 -40.0000
-32.5077 -1.6197 -40.0000
-0.5909 -2.0707 -40.0000
-38.5047 -12.3868 -40.0000
-1.5350 6.2247 -40.0000
-1.2921 7.2250 -40.0000
-40.0870 9.0014 -40.0000
24.0538 4.7611 -40.0000
22.6214 -1.4175 -40.0000
-49.4019 -7.4459 -40.0000
-44.2626 -2.1622 -40.0000
-13.4234 13.3882 -40.0000
0.2259 2.8074 -40.0000
-43.9427 8.2149 -40.0000
39.0785 7.9845 -40.0000
15.1797 -10.7234 -40.0000
21.1692 -13.8015 -40.0000
-39.8087 7.5222 -40.0000
8.4586 -14.1646 -40.0000
48.9839 6.0714 -40.0000
-25.1256 -10.8854 -40.0000
49.6076 -5.4510 -40.0000
-15.5995 9.4665 -40.0000
48.1027 6.6953 -40.0000
-13.7380 -0.2709 -40.0000
-49.1603 1.6821 -40.0000
-20.7080 -10.9421 -40.0000
1.0576 -8.5869 -40.0000
12.4156 5.7824 -40.0000
-43.9984 -10.9566 -40.0000
-48.2560 -12.9258 -40.0000
36.9608 -8.2114 -40.0000
19.0489 -9.3339 -40.0000
30.5284 -11.6762 -40.0000
6.4215 14.2018 -40.0000
27.2196 -2.3523 -40.0000
24.6233 -11.6600 -40.0000
27.5387 -0.9797 -40.0000
-27.3736 13.9226 -40.0000
-33.4824 10.0296 -40.0000
6.5431 -5.2857 -40.0000
3.8955 -9.5869 -40.0000
45.4064 -4.3784 -40.0000
-25.3276 -12.3183 -40.0000
19.2747 13.8206 -40.0000
4.2614 4.4731 -40.0000
-6.0310 -12.1591 -40.0000
-33.5848 7.5178 -40.0000
4.3669 -5.6070 -40.0000
29.4315 5.2732 -40.0000
6.0256 -5.6880 -40.0000
-16.7548 -2.2382 -40.0000
20.3140 1.8137 -40.0000
-15.2541 -13.7371 -40.0000
50.0000 0.5053 4.8379
50.0000 -18.6361 -29.3507
50.0000 -1.2520 -16.5595
50.0000 -0.8163 -14.5306
50.0000 -46.9230 10.3639
50.0000 -53.0773 26.2349
50.0000 13.4255 -38.2876
50.0000 1.6746 -12.0278
50.0000 -6.6672 21.0529
50.0000 -11.9542 35.2147
50.0000 -72.6251 -3.7628
50.0000 -30.9466 19.2093
50.0000 -56.4099 -36.5053
50.0000 -49.7438 37.2758
50.0000 4.9913 5.1833
50.0000 11.1921 -26.0344
50.0000 -73.2590 -12.4893
50.0000 -66.2059 5.7966
50.0000 -12.8357 -33.0272
50.0000 -70.6897 -19.4194
50.0000 -14.7006 -19.1589
50.0000 -3.2560 -26.8026
50.0000 -44.4261 -12.0225
50.0000 -42.9969 -5.2214
50.0000 -84.4061 -11.2629
50.0000 -51.5416 -29.3001
50.0000 -33.3791 0.4013
50.0000 -36.2510 -8.7592
50.0000 -14.5367 -2.5939
50.0000 10.1479 -9.6587
50.0000 -69.9946 -14.8934
50.0000 -76.7465 -15.9880
50.0000 -16.2931 7.5961
50.0000 -24.9852 33.4601
50.0000 -24.2094 -6.8912
50.0000 -80.1477 2.7239
50.0000 -52.1533 -8.4006
50.0000 -52.5713 -18.0735
50.0000 -34.7583 -19.0899
50.0000 -4.6906 7.9674
50.0000 -47.1722 8.4910
50.0000 -56.0447 -27.5617
50.0000 3.0936 -10.5022
50.0000 0.9216 -4.7778
50.0000 -1.9797 39.6534
50.0000 -21.5246 35.9956
50.0000 -1.3834 33.1368
50.0000 -62.7992 35.9112
50.0000 -14.5417 -16.1079
50.0000 -45.2284 -26.5395
50.0000 -9.1859 -32.3502
50.0000 -25.0690 -23.0524
50.0000 -59.7204 -8.0661
50.0000 -17.1483 27.9714
50.0000 -75.5565 19.4192
50.0000 -45.2646 -6.1903
50.0000 -81.9169 -26.9439
50.0000 -63.6133 -11.3890
50.0000 -64.1594 -18.5064
50.0000 -15.9902 -7.2808
50.0000 -65.4391 11.3417
50.0000 -3.0574 21.3569
50.0000 -68.9131 0.1833
50.0000 -12.2313 25.8288
50.0000 9.9932 -7.4909
50.0000 1.6229 -29.9362
50.0000 -75.5992 -31.7884
50.0000 -83.6186 -30.4056
50.0000 -10.0807 13.8663
50.0000 -84.7863 -25.4629
50.0000 6.9265 -1.6267
50.0000 -29.8595 32.8592
50.0000 -23.1162 -22.0023
50.0000 -51.8285 19.5734
50.0000 13.3002 -17.4826
50.0000 -32.8609 34.8572
50.0000 -18.4715 -38.1636
50.0000 12.0798 24.1557
50.0000 10.2505 7.5682
50.0000 -33.0010 -1.1675
50.0000 -14.1879 -19.2523
50.0000 -53.0728 11.2552
50.0000 -78.7355 -14.7279
50.0000 -58.3874 4.8681
50.0000 -34.2213 6.4814
50.0000 -27.4383 6.1563
20.0000 -12.5591 19.5370
20.0000 -55.9642 30.4014
20.0000 -34.4330 14.9787
20.0000 -49.1513 29.4609
20.0000 -53.8867 -5.4443
20.0000 -32.5113 15.8336
20.0000 10.1378 30.6814
20.0000 -51.5260 21.6754
20.0000 6.9004 -0.1727
20.0000 -11.6042 -11.2218
20.0000 -50.7336 35.9482
20.0000 -73.6216 -10.9352
20.0000 -45.1575 11.3939
20.0000 9.7168 36.8335
20.0000 -31.4953 17.7336
20.0000 -70.4976 -22.9399
20.0000 -33.8593 5.6401
20.0000 -61.0964 -30.7081
20.0000 -52.4607 -8.2252
20.0000 10.5174 31.1056
20.0000 -9.2759 -34.6407
20.0000 12.7617 21.3201
20.0000 -44.0308 -26.0892
20.0000 -64.7303 -30.8974
20.0000 -44.9992 10.5318
20.0000 -31.7933 -30.7815
20.0000 -1.1153 22.7776
20.0000 -24.9892 -34.0444
20.0000 -0.6121 -32.0984
20.0000 -83.0830 -0.7441
20.0000 -47.7412 -0.5153
20.0000 -84.3507 -13.9857
20.0000 -70.7844 -33.5695
20.0000 -73.8948 -19.2339
20.0000 -36.5341 -12.3248
20.0000 0.4197 14.3526
20.0000 -39.0222 7.5366
20.0000 -23.9453 38.1394
20.0000 -12.5856 7.6752
20.0000 14.7595 -8.6928
20.0000 -60.0002 29.2904
20.0000 -32.0441 -8.8647
20.0000 -42.6671 -33.6046
20.0000 7.8383 0.3693
20.0000 -33.9659 36.4468
20.0000 -12.1633 0.9543
20.0000 -76.8385 36.2845
20.0000 -58.7054 -22.3236
20.0000 -62.8997 10.2945
20.0000 12.3551 17.4864
20.0000 -8.9229 -1.8151
20.0000 -4.3006 38.3548
20.0000 -33.5309 -13.4313
20.0000 -38.7536 -23.3103
20.0000 -69.5948 31.9179
20.0000 -51.9104 15.1719
20.0000 -21.6553 -34.1282
20.0000 -47.4323 -23.5633
20.0000 -59.9334 -5.8862
20.0000 -71.5406 24.9932
20.0000 -79.2701 -26.9283
20.0000 -18.4643 15.3045
20.0000 -6.4927 -37.8277
20.0000 -8.4492 -17.4466
20.0000 -16.6245 10.6616
20.0000 -10.7306 9.6382
20.0000 -0.7955 14.3219
20.0000 -50.0148 -0.4374
20.0000 -38.5839 26.5921
20.0000 -41.7024 -2.4213
20.0000 -69.1492 -0.9941
20.0000 -21.4194 19.8551
20.0000 1.3655 25.1744
20.0000 -32.0851 32.0313
20.0000 0.1164 31.7094
20.0000 -12.0934 -5.2761
20.0000 -53.5660 -27.1523
20.0000 2.0285 -0.1822
20.0000 -68.5493 6.0489
20.0000 -32.8289 36.6762
20.0000 -29.1498 5.0412
20.0000 -30.0917 -38.3363
20.0000 -49.1341 4.4899
20.0000 -57.3991 11.5277
20.0000 -70.2183 -5.2541
20.0000 -15.0410 -12.4160
26.3516 15.0000 -7.4855
23.2632 15.0000 6.1808
36.2129 15.0000 -32.2109
29.8401 15.0000 -23.5054
37.6090 15.0000 -29.8355
25.8288 15.0000 4.2848
42.1539 15.0000 4.1147
23.3627 15.0000 -34.8524
43.2557 15.0000 -39.9922
45.3298 15.0000 -34.3463
20.9766 15.0000 30.4189
38.5841 15.0000 -19.4014
40.5583 15.0000 14.4061
27.3999 15.0000 -31.9474
24.2289 15.0000 -24.2668
24.1217 15.0000 38.1658
37.3765 15.0000 -8.5409
22.5937 15.0000 -14.5344
40.1888 15.0000 4.7577
42.1841 15.0000 -33.2647
43.4461 15.0000 36.3313
22.2012 15.0000 10.7247
21.9841 15.0000 -19.2463
27.8255 15.0000 -0.4681
40.5751 15.0000 -15.4070
30.0884 15.0000 -25.2050
24.9469 15.0000 -5.2297
33.7119 15.0000 -36.5598
23.0525 15.0000 22.5980
40.8881 15.0000 7.9733
41.1688 15.0000 -27.8312
31.3273 15.0000 -15.6011
34.1641 15.0000 29.5924
21.5228 15.0000 35.4270
27.2903 15.0000 39.2280
32.0432 15.0000 28.7530
26.0978 15.0000 -9.3579
27.2291 15.0000 -35.2181
27.1445 15.0000 -28.1636
44.6729 15.0000 -37.3287
21.3542 15.0000 -32.4255
44.7903 15.0000 13.4120
21.9307 15.0000 -7.2385
46.1992 15.0000 -9.6610
48.1561 15.0000 -25.0447
30.8658 15.0000 -29.7579
30.3545 15.0000 -6.7717
37.5373 15.0000 -19.2632
32.2854 15.0000 21.9480
40.2366 15.0000 6.0500
30.8811 15.0000 -26.5841
48.4033 15.0000 7.3409
20.6471 15.0000 -5.9221
38.8290 15.0000 16.2795
41.2903 15.0000 -38.8158
36.8910 15.0000 -18.9881
32.1328 15.0000 22.5382
29.2646 15.0000 -37.5768
44.3423 15.0000 4.7087
28.0687 15.0000 18.7592
20.0639 15.0000 16.0073
34.1357 15.0000 -6.8578
41.5217 15.0000 -9.2566
33.3508 15.0000 21.3366
38.8883 15.0000 13.3732
37.0811 15.0000 -13.5748
49.5704 15.0000 32.5335
36.3104 15.0000 -12.8985
45.4661 15.0000 -27.7491
38.2371 15.0000 23.9124
34.4723 15.0000 -33.4248
45.0256 15.0000 -1.2350
48.7181 15.0000 -22.4610
32.9142 15.0000 -24.0817
22.4448 15.0000 29.8033
49.0300 15.0000 -33.4745
49.2197 15.0000 30.9088
28.2428 15.0000 19.6122
49.1049 15.0000 9.2805
38.4178 15.0000 8.7201
33.8070 15.0000 17.6958
42.2732 15.0000 -24.2425
20.3398 15.0000 15.8129
43.6660 15.0000 25.2998
40.0151 15.0000 1.0262
46.1684 -85.0000 3.3437
36.4153 -85.0000 -13.9423
33.6830 -85.0000 -19.2098
36.3745 -85.0000 -12.3000
40.1328 -85.0000 17.9996
35.6807 -85.0000 -6.0415
20.2656 -85.0000 7.7638
35.0043 -85.0000 16.1023
20.5224 -85.0000 34.6491
43.8488 -85.0000 -22.0977
33.7868 -85.0000 -18.1988
43.9930 -85.0000 -21.2103
25.3314 -85.0000 -21.9034
43.0727 -85.0000 23.6743
26.7830 -85.0000 23.8363
43.2172 -85.0000 9.3423
37.2520 -85.0000 2.3115
45.2038 -85.0000 2.4354
45.7854 -85.0000 5.7310
37.8141 -85.0000 -27.1265
32.6313 -85.0000 -26.0188
27.9964 -85.0000 2.7563
47.3378 -85.0000 -3.0377
48.8767 -85.0000 27.4422
27.2686 -85.0000 27.7070
44.3752 -85.0000 -16.3634
35.4448 -85.0000 17.0808
29.5709 -85.0000 20.2071
42.2478 -85.0000 -39.3532
24.1195 -85.0000 5.2863
24.4948 -85.0000 -6.4882
34.3683 -85.0000 -28.7224
33.4046 -85.0000 -38.5886
42.0264 -85.0000 -17.0831
48.4509 -85.0000 34.3430
28.5542 -85.0000 38.7582
30.1452 -85.0000 0.7463
38.6126 -85.0000 -29.1293
32.8292 -85.0000 29.3793
31.2424 -85.0000 33.9304
27.2544 -85.0000 6.5058
34.3504 -85.0000 -32.1685
41.0060 -85.0000 -27.9513
29.1494 -85.0000 9.2222
24.0982 -85.0000 1.9545
24.2969 -85.0000 -4.9318
21.2784 -85.0000 32.1954
29.5234 -85.0000 30.3368
25.4064 -85.0000 30.3605
46.3253 -85.0000 -6.0234
24.9867 -85.0000 0.0723
33.9763 -85.0000 -37.9077
26.3557 -85.0000 18.3171
42.2633 -85.0000 -11.3936
26.0129 -85.0000 13.8429
33.9510 -85.0000 22.2844
46.9980 -85.0000 -21.3890
32.1633 -85.0000 -11.2397
32.9633 -85.0000 3.8362
42.8845 -85.0000 1.0280
27.8500 -85.0000 29.3062
33.5543 -85.0000 -17.6184
26.6682 -85.0000 -29.0877
39.1675 -85.0000 30.2342
22.2606 -85.0000 -0.0166
28.2005 -85.0000 8.8500
49.7850 -85.0000 -9.7520
49.6221 -85.0000 -12.1794
21.5114 -85.0000 -36.2817
38.6154 -85.0000 -4.5281
31.4404 -85.0000 -19.4325
32.8104 -85.0000 10.6467
49.3005 -85.0000 35.5534
48.2406 -85.0000 33.7685
22.8214 -85.0000 -3.8242
21.8355 -85.0000 18.7439
44.3995 -85.0000 -13.6527
29.1406 -85.0000 -7.8209
35.7860 -85.0000 12.8620
41.6792 -85.0000 32.6797
40.4615 -85.0000 26.4771
36.0641 -85.0000 22.9115
29.2912 -85.0000 26.3187
24.8365 -85.0000 32.3679
40.9871 -85.0000 30.3770
24.7370 -33.2391 40.0000
22.5366 -68.1532 40.0000
42.6555 -25.1860 40.0000
42.7342 12.7860 40.0000
21.6948 -21.4330 40.0000
30.4112 -11.3685 40.0000
29.6139 -6.4392 40.0000
32.8653 -29.7567 40.0000
45.2754 -68.1274 40.0000
38.6425 -27.8094 40.0000
33.2858 1.0582 40.0000
44.7206 -51.1432 40.0000
42.1430 -11.0571 40.0000
47.5097 10.7395 40.0000
37.7090 5.6348 40.0000
43.3564 -42.5110 40.0000
31.3538 -53.5043 40.0000
46.6712 -17.2004 40.0000
42.5030 -12.0305 40.0000
39.1594 -34.3436 40.0000
33.3441 -40.6451 40.0000
26.1614 -42.0688 40.0000
43.6581 -46.7628 40.0000
46.9190 11.1789 40.0000
31.9895 -78.7645 40.0000
41.9905 -20.0585 40.0000
21.1991 -25.7107 40.0000
38.3145 -84.9580 40.0000
48.7809 -75.1826 40.0000
41.6043 -8.6790 40.0000
24.1996 -14.6738 40.0000
35.1111 -74.9513 40.0000
37.9721 -33.8899 40.0000
30.6631 -72.9938 40.0000
49.1586 -6.0434 40.0000
34.9431 -36.9400 40.0000
45.5593 -9.6562 40.0000
36.4342 -60.1649 40.0000
32.8474 1.0696 40.0000
20.3575 10.5240 40.0000
36.3069 -35.2024 40.0000
22.9715 -11.9559 40.0000
34.8389 -66.5619 40.0000
44.0519 -35.9382 40.0000
42.1097 -0.5632 40.0000
26.6895 -26.8493 40.0000
22.0272 -63.0468 40.0000
28.1104 -29.5252 40.0000
39.0483 -27.1778 40.0000
38.0043 3.5181 40.0000
44.2211 -30.0952 40.0000
38.0421 -13.7761 40.0000
30.3749 -9.8437 40.0000
39.3233 -21.2482 40.0000
38.0863 -32.6516 40.0000
28.1864 -21.5009 40.0000
20.3691 -79.8310 40.0000
31.1660 12.3919 40.0000
38.7273 -64.6743 40.0000
42.8606 -33.1723 40.0000
49.0630 -84.7458 40.0000
30.2695 -51.6823 40.0000
22.9426 2.6722 40.0000
22.9885 -12.4296 40.0000
24.9138 -47.5073 40.0000
42.5864 -40.4979 40.0000
46.2733 -49.0847 40.0000
38.2951 9.7933 40.0000
45.0618 10.2359 40.0000
29.7397 -75.6836 40.0000
35.4622 -67.8750 40.0000
38.7412 -16.1372 40.0000
37.0467 13.2927 40.0000
47.3604 -74.1439 40.0000
31.0597 -43.6138 40.0000
24.0973 -39.0657 40.0000
20.6302 -15.3663 40.0000
44.3404 10.6175 40.0000
27.9741 -71.1544 40.0000
33.6597 -19.9351 40.0000
43.6312 13.2531 40.0000
34.4497 -18.2130 40.0000
47.4872 -27.3210 40.0000
32.1727 -43.5383 40.0000
20.3529 -6.2102 40.0000
42.5026 -58.2088 -40.0000
25.7397 -57.8221 -40.0000
45.7720 -31.0133 -40.0000
28.0522 -83.8456 -40.0000
27.5614 5.1825 -40.0000
36.6695 -65.4630 -40.0000
39.2170 -22.2369 -40.0000
31.1680 -43.9440 -40.0000
29.1101 -5.0822 -40.0000
28.2470 12.0117 -40.0000
22.6370 -74.1137 -40.0000
21.4406 7.9004 -40.0000
23.4031 -11.9415 -40.0000
21.7394 -4.0029 -40.0000
44.8925 -57.5911 -40.0000
40.9393 -66.4438 -40.0000
41.6534 -34.5235 -40.0000
30.1803 -21.0153 -40.0000
36.8861 -19.2090 -40.0000
45.9406 -39.4912 -40.0000
34.9201 -59.7900 -40.0000
38.6913 -77.4527 -40.0000
38.4475 -14.8085 -40.0000
22.2720 -84.1453 -40.0000
41.7319 3.1922 -40.0000
39.1383 -39.7156 -40.0000
32.9275 10.6959 -40.0000
34.1246 -77.1844 -40.0000
47.6600 13.1506 -40.0000
23.0842 -32.7014 -40.0000
27.1177 -49.8873 -40.0000
20.9135 -10.8785 -40.0000
27.9454 -46.6001 -40.0000
48.2038 -28.1240 -40.0000
45.7236 -75.8553 -40.0000
39.8083 -7.2829 -40.0000
41.3940 -18.7473 -40.0000
21.1217 -81.7337 -40.0000
37.5744 -29.4493 -40.0000
47.0504 14.5108 -40.0000
34.6802 -43.1822 -40.0000
31.3304 -15.4676 -40.0000
29.0612 -72.8917 -40.0000
30.3346 -36.8456 -40.0000
21.2820 -41.2216 -40.0000
31.5013 -54.4607 -40.0000
48.1512 -43.0894 -40.0000
48.9147 -53.6743 -40.0000
28.8195 9.3671 -40.0000
34.2686 -10.6430 -40.0000
25.5554 -36.9919 -40.0000
30.3873 -40.1347 -40.0000
36.3411 -8.4434 -40.0000
37.3007 -41.8355 -40.0000
29.0459 -57.1528 -40.0000
22.2978 4.0574 -40.0000
33.1064 -63.3396 -40.0000
41.1367 -48.1730 -40.0000
42.7654 -2.2835 -40.0000
37.6418 -18.5969 -40.0000
24.4273 12.4373 -40.0000
34.8653 -18.1223 -40.0000
41.2016 -5.1461 -40.0000
41.9977 -77.0395 -40.0000
22.9130 -54.3332 -40.0000
34.8381 -59.7879 -40.0000
44.7847 5.9951 -40.0000
24.3860 -82.4017 -40.0000
30.7671 3.3382 -40.0000
36.8554 -74.5091 -40.0000
31.2617 12.9357 -40.0000
36.8521 -81.1030 -40.0000
21.2843 7.7594 -40.0000
33.8798 -53.4397 -40.0000
29.9950 -25.2881 -40.0000
21.8804 -66.2097 -40.0000
41.9993 -11.5834 -40.0000
24.6365 -45.3254 -40.0000
22.3838 -68.7927 -40.0000
23.0930 -6.8540 -40.0000
22.8106 -43.0801 -40.0000
36.0274 -44.2145 -40.0000
22.9068 -49.7838 -40.0000
46.7143 -47.0375 -40.0000
44.8652 -13.2067 -40.0000
