ply
format ascii 1.0
element vertex 1024
property float x
property float y
property float z
end_header
50.0000 9.5121 -17.3035
50.0000 9.8854 25.3831
50.0000 13.0528 0.8270
50.0000 3.8707 -15.6872
50.0000 7.8564 -16.6545
50.0000 -13.7958 -30.9019
50.0000 2.8053 31.7120
50.0000 -12.5511 -25.3738
50.0000 -11.2594 -4.9733
50.0000 -10.9767 -8.1792
50.0000 6.3227 18.1410
50.0000 5.6779 -20.7364
50.0000 -11.4565 -39.8581
50.0000 6.0529 29.0861
50.0000 -1.4934 36.1539
50.0000 4.6128 -33.3066
50.0000 -2.1831 38.5330
50.0000 -0.5488 -24.9413
50.0000 7.9436 -20.1360
50.0000 5.1880 24.1455
50.0000 2.1365 -18.9390
50.0000 -2.0009 -3.0027
50.0000 0.2744 30.8008
50.0000 3.4005 27.1134
50.0000 13.7211 17.0502
50.0000 -12.8684 17.3183
50.0000 -9.9582 -26.5095
50.0000 13.2233 -39.4356
50.0000 -2.9178 -24.3173
50.0000 12.6486 -4.9498
50.0000 9.4415 4.4182
50.0000 0.7931 6.3966
50.0000 4.3074 22.0910
50.0000 -8.8691 32.1794
50.0000 -9.7705 -20.9195
50.0000 1.6922 -11.0649
50.0000 9.7343 9.2562
50.0000 2.3112 22.6915
50.0000 -10.8182 11.1300
50.0000 -13.5279 -22.5166
50.0000 -11.8462 -27.4615
50.0000 12.0708 -33.4703
50.0000 -10.6999 4.4172
50.0000 -5.4831 -7.3700
50.0000 8.8989 -17.3742
50.0000 5.8482 2.6175
50.0000 -2.9636 -31.5926
50.0000 5.4008 -38.8633
50.0000 -6.7784 -12.3240
50.0000 14.2203 -13.8018
50.0000 -2.0518 39.2565
50.0000 1.8663 -12.2524
50.0000 1.2819 -32.7478
50.0000 7.6348 -17.8551
50.0000 5.1749 -34.8921
50.0000 3.5535 17.5824
50.0000 6.8134 -6.3207
50.0000 10.4175 12.5453
50.0000 -12.6408 -15.8153
50.0000 -0.4293 -36.2111
50.0000 -10.0140 28.3498
50.0000 -0.9775 -34.3174
50.0000 9.8428 -12.8237
50.0000 -8.9656 -28.7124
50.0000 3.6017 27.6359
50.0000 -2.0533 30.7264
50.0000 -9.9593 -26.2082
50.0000 6.9057 -0.6217
50.0000 11.2755 -13.3820
50.0000 -12.7820 -25.2209
50.0000 -3.3375 37.1457
50.0000 7.8138 21.7666
50.0000 -8.5776 -7.3971
50.0000 13.6663 9.5484
50.0000 -5.7896 12.0405
50.0000 8.6128 -29.9988
50.0000 8.6200 -5.6273
50.0000 -14.8537 -34.3285
50.0000 -3.7320 -17.7831
50.0000 12.8373 -5.5307
50.0000 1.4077 39.8712
50.0000 -3.7181 -23.3615
50.0000 -11.9102 -11.0352
50.0000 4.1144 -8.3003
50.0000 -12.9407 11.9448
50.0000 -12.9310 -16.0041
-50.0000 3.9313 -30.6923
-50.0000 -14.3835 21.6577
-50.0000 0.1321 1.0657
-50.0000 10.2714 -29.6524
-50.0000 11.5847 -13.8849
-50.0000 3.2673 -21.5162
-50.0000 -8.7099 -23.7988
-50.0000 -4.1228 -12.8038
-50.0000 4.1202 -36.7686
-50.0000 -14.8655 28.3842
-50.0000 3.1836 18.9820
-50.0000 -12.8059 -29.8901
-50.0000 -0.7035 -32.3328
-50.0000 -5.7368 25.6835
-50.0000 -0.7810 6.6359
-50.0000 3.9458 15.2929
-50.0000 -14.2457 -0.6672
-50.0000 3.3755 -18.8601
-50.0000 10.7402 1.3624
-50.0000 13.6615 -23.3541
-50.0000 -3.4222 -13.8029
-50.0000 -10.5976 -1.6283
-50.0000 -8.4490 -11.7548
-50.0000 -11.4997 34.3774
-50.0000 -8.8951 -8.4767
-50.0000 9.2913 -4.8700
-50.0000 -3.6957 -17.7272
-50.0000 -13.7070 -9.3713
-50.0000 -14.1127 38.4265
-50.0000 -7.4217 29.0307
-50.0000 -7.0949 -29.8033
-50.0000 -9.8535 13.0480
-50.0000 5.6065 -27.8379
-50.0000 8.6434 28.3478
-50.0000 -11.0491 -9.3507
-50.0000 -0.1354 -21.3787
-50.0000 1.8227 8.0948
-50.0000 -6.3083 2.3741
-50.0000 3.7307 11.6957
-50.0000 -11.1781 19.0803
-50.0000 5.8289 19.1067
-50.0000 14.4206 -30.8860
-50.0000 -3.3795 0.0518
-50.0000 -13.0452 29.4309
-50.0000 -2.1414 -19.1013
-50.0000 11.6983 -27.7191
-50.0000 7.2167 -26.8608
-50.0000 -11.1232 2.9482
-50.0000 -5.6497 25.9810
-50.0000 -5.8656 18.7740
-50.0000 4.6923 2.3503
-50.0000 -2.3043 39.1721
-50.0000 9.6268 25.9539
-50.0000 -12.1772 -5.9161
-50.0000 2.7808 35.8124
-50.0000 10.9243 -16.3119
-50.0000 3.6629 34.8348
-50.0000 10.5591 -38.1112
-50.0000 7.9974 -5.6585
-50.0000 -13.9155 33.4866
-50.0000 -1.8326 -23.8485
-50.0000 -10.3096 10.4191
-50.0000 6.2497 4.5521
-50.0000 -6.9944 -32.0450
-50.0000 -4.5603 27.0178
-50.0000 0.9447 -9.3835
-50.0000 -1.8796 -0.7973
-50.0000 -5.4288 30.9534
-50.0000 14.0972 -30.8267
-50.0000 -8.9310 17.7252
-50.0000 11.4870 18.8569
-50.0000 -8.6057 17.1020
-50.0000 -11.2891 -23.8366
-50.0000 -8.9800 -8.6055
-50.0000 3.3574 -14.2106
-50.0000 9.2816 -22.6568
-50.0000 6.2115 9.9799
-50.0000 7.7658 30.7047
-50.0000 2.5365 -18.6379
-50.0000 -12.4313 15.9271
-50.0000 11.8761 10.1986
-50.0000 11.3868 -0.0967
-50.0000 6.8067 -1.1898
-50.0000 -8.0433 14.8555
-50.0000 5.6276 -34.6912
-50.0000 0.6512 23.2414
-7.5942 15.0000 -22.7693
26.5254 15.0000 3.6200
-21.0634 15.0000 -25.1566
2.5852 15.0000 -39.1532
-43.5438 15.0000 5.5388
5.9377 15.0000 7.9381
-9.4235 15.0000 -35.8634
-44.9749 15.0000 -16.3057
43.0441 15.0000 -36.7881
34.4922 15.0000 -39.1565
48.5879 15.0000 7.9420
-41.7572 15.0000 -33.1093
47.1349 15.0000 -12.5833
35.3940 15.0000 -6.5881
24.3012 15.0000 -1.1308
21.2782 15.0000 30.6591
3.9073 15.0000 -33.7826
37.9821 15.0000 7.7650
-49.3484 15.0000 -19.1934
-38.0968 15.0000 -10.1939
-23.4533 15.0000 35.1250
-39.6766 15.0000 38.5833
-46.2497 15.0000 1.3267
28.8739 15.0000 -9.3058
19.1613 15.0000 -23.3286
34.8901 15.0000 -32.1841
-5.8947 15.0000 27.5133
-24.1374 15.0000 28.6442
2.8887 15.0000 14.0482
-33.2755 15.0000 35.3929
17.4801 15.0000 -3.6761
-45.4877 15.0000 13.3807
-20.4271 15.0000 7.5870
-11.5913 15.0000 -8.4686
-16.2963 15.0000 -9.6225
-3.1012 15.0000 2.7909
-12.3503 15.0000 29.0447
-45.2504 15.0000 -32.3210
9.8949 15.0000 22.1764
-21.1721 15.0000 25.4627
-36.8306 15.0000 -20.0336
-35.1507 15.0000 -8.0244
36.0799 15.0000 -5.2949
-28.7868 15.0000 -36.2118
-31.6736 15.0000 16.9142
3.2738 15.0000 31.7864
28.8469 15.0000 -14.6414
48.4480 15.0000 -2.6026
1.5026 15.0000 6.5197
18.8989 15.0000 8.3006
-49.2458 15.0000 -39.2282
22.4889 15.0000 -33.8744
39.6619 15.0000 -1.4641
17.5082 15.0000 36.4558
-27.0199 15.0000 35.3692
-9.7565 15.0000 -26.9232
-37.0405 15.0000 -18.8161
-27.6838 15.0000 -24.2116
-13.7977 15.0000 30.9697
-0.4033 15.0000 1.7494
-13.4561 15.0000 -22.6250
-25.2721 15.0000 24.1488
21.2436 15.0000 -19.9876
35.6226 15.0000 0.5968
-21.1625 15.0000 -13.0178
1.5065 15.0000 39.0795
32.2394 15.0000 39.8820
-19.3548 15.0000 6.7279
-37.0280 15.0000 8.5235
-9.1274 15.0000 -38.0777
31.9867 15.0000 6.5553
48.5148 15.0000 19.1774
-19.4845 15.0000 18.4715
35.6862 15.0000 25.3967
29.5469 15.0000 3.4431
-14.1730 15.0000 -25.8460
-6.4650 15.0000 -31.3168
-42.9827 15.0000 -34.8847
30.8764 15.0000 18.3644
-48.5217 15.0000 -37.6179
-18.3856 15.0000 15.5105
35.1155 15.0000 11.0313
24.2398 15.0000 -4.3308
16.5530 15.0000 7.5993
-33.6028 15.0000 15.6100
-24.8199 -15.0000 -14.4279
14.0897 -15.0000 18.7339
-26.5531 -15.0000 2.6060
-5.0684 -15.0000 -31.0838
15.0832 -15.0000 2.7356
-22.6114 -15.0000 -21.0214
-35.5220 -15.0000 -2.1934
27.4006 -15.0000 -16.9840
-15.3029 -15.0000 -8.7475
-7.0219 -15.0000 -22.2241
-16.3987 -15.0000 -26.1191
38.2519 -15.0000 36.7620
38.7135 -15.0000 15.7173
15.6105 -15.0000 15.1439
-11.0838 -15.0000 -29.5839
22.0473 -15.0000 -33.0037
-22.6494 -15.0000 27.7948
-40.0533 -15.0000 21.5735
-24.6391 -15.0000 -33.4170
29.3717 -15.0000 15.0416
-15.5609 -15.0000 -12.7679
13.0727 -15.0000 30.9997
-18.9372 -15.0000 26.3366
-28.1390 -15.0000 19.8533
27.8699 -15.0000 -9.2565
34.7256 -15.0000 13.6663
26.3604 -15.0000 29.0474
5.9284 -15.0000 14.3342
-4.5649 -15.0000 19.8271
-38.1283 -15.0000 7.6798
3.2416 -15.0000 -25.0801
40.6563 -15.0000 -27.9529
-22.6806 -15.0000 14.4661
0.3317 -15.0000 -32.0236
6.8046 -15.0000 37.7220
-14.6547 -15.0000 -34.4332
-3.7951 -15.0000 28.3322
-17.9579 -15.0000 -38.4795
0.8697 -15.0000 -35.2549
-36.2843 -15.0000 31.5809
-1.9499 -15.0000 -20.0649
-11.3192 -15.0000 -39.6984
37.7906 -15.0000 -11.2010
-19.0437 -15.0000 -18.8804
2.4188 -15.0000 -0.8436
-6.7800 -15.0000 17.5861
-11.8346 -15.0000 15.0462
-28.3982 -15.0000 31.0179
-37.4220 -15.0000 11.7133
-14.1350 -15.0000 -4.9674
-19.5314 -15.0000 -0.8028
36.7008 -15.0000 -1.1284
-29.7082 -15.0000 -10.6224
-12.7015 -15.0000 -39.7780
48.8416 -15.0000 -30.1052
-17.5840 -15.0000 7.7836
-11.4340 -15.0000 17.4412
15.0475 -15.0000 37.9962
29.7417 -15.0000 5.2231
43.6866 -15.0000 -7.7445
27.1992 -15.0000 11.9433
8.3021 -15.0000 -30.4916
-39.4754 -15.0000 -28.8615
21.8070 -15.0000 -19.6918
48.4101 -15.0000 -3.6349
18.6473 -15.0000 11.2809
-42.0432 -15.0000 -11.1637
-24.3653 -15.0000 -39.3731
-5.7228 -15.0000 -11.3461
44.0427 -15.0000 -33.2666
2.4546 -15.0000 4.4601
-16.7760 -15.0000 39.9531
-40.8469 -15.0000 36.4952
37.4380 -15.0000 -21.4042
-40.9563 -15.0000 -38.9637
39.7258 -15.0000 -16.4913
46.2045 -15.0000 -33.2679
31.8824 -15.0000 -34.0433
-24.4241 -15.0000 -5.7816
-21.7448 -15.0000 23.6666
1.2652 -15.0000 34.8268
22.3547 -15.0000 8.7813
25.9180 -15.0000 -19.8980
-26.0856 -15.0000 -4.5901
-10.0369 -15.0000 5.8569
11.9200 1.1334 40.0000
-32.5549 -1.8697 40.0000
-17.9384 4.5587 40.0000
19.8489 -12.9985 40.0000
10.3667 4.0393 40.0000
37.5732 -13.5985 40.0000
-36.3845 4.3726 40.0000
8.9892 9.5567 40.0000
2.6086 4.2149 40.0000
-2.1528 8.3032 40.0000
-32.2492 -14.7709 40.0000
-40.6900 12.5459 40.0000
15.9843 10.2318 40.0000
34.0805 -8.4043 40.0000
-39.7314 -9.9583 40.0000
-35.7313 -1.6195 40.0000
30.1725 14.1005 40.0000
-24.7476 6.2058 40.0000
36.1809 0.8000 40.0000
-37.5101 3.2246 40.0000
-7.6859 6.9716 40.0000
-33.5856 2.5122 40.0000
14.4322 -4.6678 40.0000
14.8760 -4.1625 40.0000
-7.0298 -0.5465 40.0000
-12.9406 -6.7446 40.0000
-26.1002 2.0902 40.0000
27.2763 -4.3264 40.0000
-15.2189 9.4433 40.0000
-12.5596 5.6038 40.0000
-9.3547 14.1785 40.0000
-20.4725 5.6693 40.0000
-43.2593 -2.2456 40.0000
28.5758 2.8207 40.0000
0.4119 -12.6235 40.0000
28.8620 3.2049 40.0000
-9.8806 9.3855 40.0000
-41.9771 7.5639 40.0000
-5.4288 8.3580 40.0000
7.8496 -14.5190 40.0000
-28.1219 8.0148 40.0000
-11.8072 -1.9704 40.0000
27.1904 5.6651 40.0000
-2.8801 4.8238 40.0000
-31.5829 -10.4350 40.0000
43.5757 14.8441 40.0000
-27.8633 -10.6852 40.0000
-7.4350 -7.3231 40.0000
11.8398 11.0842 40.0000
-13.4519 7.8154 40.0000
21.0713 9.5157 40.0000
-44.6406 14.9367 40.0000
35.0900 -12.2714 40.0000
-29.1572 -11.0488 40.0000
39.8690 9.9271 40.0000
-47.0125 8.5139 40.0000
-28.9384 8.1823 40.0000
-31.3561 8.1670 40.0000
44.5351 8.4446 40.0000
29.5816 -12.0206 40.0000
1.7022 3.1722 40.0000
42.0328 -14.6772 40.0000
38.1490 -5.3499 40.0000
-11.7825 -2.8248 40.0000
-17.1061 1.3216 40.0000
8.2600 -10.6699 40.0000
-18.1899 8.0660 40.0000
-45.5213 4.7640 40.0000
12.2746 -8.8954 40.0000
3.7970 -4.9219 40.0000
49.9205 9.1841 40.0000
-28.9877 -10.5972 40.0000
35.2381 -11.9772 40.0000
-12.2044 11.2633 40.0000
44.0688 -2.8949 40.0000
-18.1133 3.8902 40.0000
-45.1293 -2.0009 40.0000
25.4754 -14.7058 40.0000
41.5748 -2.8758 40.0000
-2.0624 4.5672 40.0000
24.3566 -8.9079 40.0000
27.5154 6.2570 40.0000
-30.2338 -8.0262 40.0000
-21.6809 11.2734 40.0000
20.8269 7.7808 40.0000
49.9602 8.5588 -40.0000
48.7202 -0.7333 -40.0000
4.0378 5.0479 -40.0000
-8.6102 -1.4949 -40.0000
14.2493 -5.6390 -40.0000
7.5875 11.4498 -40.0000
26.0811 -11.6727 -40.0000
-44.5318 -12.4364 -40.0000
23.1819 -4.5323 -40.0000
29.2642 4.5480 -40.0000
-33.6178 -1.6778 -40.0000
-31.3085 9.6579 -40.0000
-32.6913 11.9938 -40.0000
45.2908 6.0244 -40.0000
25.2615 3.6022 -40.0000
-10.7324 -5.1885 -40.0000
26.4216 -1.1258 -40.0000
-33.1947 -13.8143 -40.0000
-44.5615 -0.2662 -40.0000
35.8826 -2.2167 -40.0000
30.3523 3.7159 -40.0000
-1.9386 -11.9642 -40.0000
-20.2043 -7.8012 -40.0000
13.5160 -8.5245 -40.0000
-35.3256 1.0786 -40.0000
38.8356 -0.0498 -40.0000
-29.4448 -10.7873 -40.0000
42.1741 0.6376 -40.0000
30.2905 3.3838 -40.0000
10.3568 6.3549 -40.0000
-45.2200 13.1559 -40.0000
-45.4431 8.0943 -40.0000
-39.2832 14.6298 -40.0000
-17.5425 -11.4566 -40.0000
-38.4219 14.4426 -40.0000
18.9786 12.8402 -40.0000
-49.6991 2.9563 -40.0000
8.6198 3.8532 -40.0000
38.7035 -14.6409 -40.0000
-30.0352 0.8811 -40.0000
44.7397 12.5120 -40.0000
-23.2331 -0.8253 -40.0000
47.9475 1.6895 -40.0000
28.1046 -0.6743 -40.0000
-44.5961 3.4416 -40.0000
-20.6262 -0.4294 -40.0000
-30.3874 -12.5541 -40.0000
-23.3140 -12.8551 -40.0000
-17.7128 3.1722 -40.0000
-49.1957 3.9117 -40.0000
12.7662 -8.7116 -40.0000
-27.6540 1.4659 -40.0000
-15.7611 3.8546 -40.0000
47.0799 -9.3754 -40.0000
-12.7078 -1.3956 -40.0000
-15.4461 3.4228 -40.0000
23.0040 -3.0953 -40.0000
7.7958 8.8172 -40.0000
38.0311 -8.5958 -40.0000
-47.9169 6.2113 -40.0000
-48.1937 -4.3855 -40.0000
-16.6576 4.9701 -40.0000
-33.2981 4.3446 -40.0000
15.3250 -9.9576 -40.0000
11.6436 -9.1700 -40.0000
11.1884 5.8689 -40.0000
-27.4465 1.5460 -40.0000
-0.8014 2.3551 -40.0000
21.8031 4.9569 -40.0000
-37.7487 6.6963 -40.0000
41.2027 -10.8370 -40.0000
16.5172 -9.5306 -40.0000
-7.0056 9.3662 -40.0000
24.7147 3.2223 -40.0000
2.5319 4.6058 -40.0000
15.2012 -7.1962 -40.0000
-37.5088 2.3451 -40.0000
-47.1830 -5.7855 -40.0000
-23.5107 14.4723 -40.0000
42.4628 4.5314 -40.0000
-48.2139 -2.3066 -40.0000
35.8412 10.0006 -40.0000
42.6232 13.8448 -40.0000
-41.7845 1.4178 -40.0000
-27.6703 -1.2125 -40.0000
50.0000 -42.9628 -34.3498
50.0000 0.8422 -15.7963
50.0000 -76.2182 -33.6403
50.0000 -40.5970 -6.4753
50.0000 -9.6629 28.9492
50.0000 -47.8153 36.5423
50.0000 -83.2774 29.2753
50.0000 -49.7711 28.2512
50.0000 -53.9764 -17.3625
50.0000 -84.3113 -5.6553
50.0000 -55.9823 6.0658
50.0000 -0.2087 22.9560
50.0000 -59.7521 -16.2357
50.0000 0.3095 -11.3525
50.0000 -32.8416 38.2930
50.0000 -80.8975 -6.6254
50.0000 -15.7696 -33.8943
50.0000 -50.9046 -11.9840
50.0000 5.5112 33.1360
50.0000 -5.7081 17.9831
50.0000 -13.0670 -39.6526
50.0000 13.5400 -34.5248
50.0000 -67.2841 15.7389
50.0000 -40.8127 20.6232
50.0000 -48.1071 30.2274
50.0000 -74.2395 -17.2071
50.0000 -62.0301 -1.4849
50.0000 0.6382 -19.7262
50.0000 -62.7028 -26.1860
50.0000 -10.4405 29.8834
50.0000 -24.7260 -33.7803
50.0000 -34.1269 8.1449
50.0000 -51.7021 0.6820
50.0000 -14.4524 32.3957
50.0000 6.5437 22.3171
50.0000 -45.3759 20.3900
50.0000 -74.1917 8.1059
50.0000 -11.7927 17.2982
50.0000 -60.6622 -2.5403
50.0000 -41.7927 21.4951
50.0000 -42.0124 5.1138
50.0000 -29.5535 37.4685
50.0000 -81.5315 34.3879
50.0000 -80.7373 12.7714
50.0000 -80.5746 -24.8663
50.0000 -59.7020 -6.1424
50.0000 -29.1190 34.2153
50.0000 -6.4496 -18.0277
50.0000 -45.0673 -13.8362
50.0000 -35.9046 -32.8807
50.0000 -38.2277 -23.7211
50.0000 -68.9045 -16.2764
50.0000 -43.5544 -10.8670
50.0000 -5.1055 -16.5153
50.0000 -82.4717 0.7790
50.0000 -76.8564 10.7316
50.0000 -34.8485 -31.8092
50.0000 -27.4550 4.5010
50.0000 7.6565 27.2432
50.0000 14.3703 -33.7922
50.0000 -58.3452 -27.2965
50.0000 -20.9524 -24.9982
50.0000 -47.6466 36.6152
50.0000 8.4823 27.8798
50.0000 -6.0936 29.7448
50.0000 -48.1551 -28.1181
50.0000 -23.4956 23.1862
50.0000 -53.5110 32.6896
50.0000 -1.2901 -25.8929
50.0000 -8.2219 -4.2776
50.0000 -19.1146 -27.8216
50.0000 2.3482 -12.7011
50.0000 2.4275 37.6091
50.0000 14.6273 37.5909
50.0000 -69.6296 36.0390
50.0000 -10.1269 6.4076
50.0000 -56.3108 -37.7556
50.0000 -61.9942 34.8807
50.0000 7.3490 -14.6403
50.0000 -3.3768 -25.1437
50.0000 -22.3736 23.1877
50.0000 -44.9921 31.4218
50.0000 -62.4591 -31.1411
50.0000 -16.5402 4.3910
50.0000 -71.4628 -26.5079
50.0000 -22.1438 -16.7711
20.0000 -68.5462 -1.0499
20.0000 -69.3145 -33.3042
20.0000 -77.3361 12.8622
20.0000 -31.3127 -16.2966
20.0000 -4.0938 8.6667
20.0000 -0.6429 14.8847
20.0000 1.1424 -20.1731
20.0000 -55.9153 -26.4892
20.0000 -44.0436 -19.7145
20.0000 12.4218 -38.4498
20.0000 -8.6311 13.6224
20.0000 -43.5707 -12.3290
20.0000 -31.9225 13.6175
20.0000 -24.3179 3.4426
20.0000 -13.1092 30.7550
20.0000 -59.8483 -13.2630
20.0000 -51.5813 37.5057
20.0000 -5.5045 4.7604
20.0000 9.5401 -5.6853
20.0000 -21.6726 -26.1014
20.0000 -26.2347 26.3501
20.0000 -48.4433 4.7176
20.0000 -84.0714 -23.0195
20.0000 -24.3322 -29.0734
20.0000 -36.3457 -35.3488
20.0000 -83.3355 2.0167
20.0000 -11.5669 13.0554
20.0000 -47.0804 14.4365
20.0000 -75.5145 -34.2709
20.0000 -44.8352 -24.5985
20.0000 -38.0184 14.3077
20.0000 -9.6695 37.4554
20.0000 -18.9555 12.8859
20.0000 -56.3307 34.5915
20.0000 -30.7365 -1.7519
20.0000 -38.4440 21.9593
20.0000 3.6048 -6.5799
20.0000 6.8191 -9.0724
20.0000 -63.4488 29.4243
20.0000 5.9888 26.9773
20.0000 -61.4369 -11.2226
20.0000 -55.3340 14.6798
20.0000 -55.5903 31.5703
20.0000 -19.0710 6.0345
20.0000 -51.3938 -38.5647
20.0000 -1.4127 -16.7164
20.0000 -8.2065 -16.1677
20.0000 9.6114 -35.7789
20.0000 9.3791 12.3862
20.0000 -42.5488 22.6124
20.0000 -47.5333 -6.7349
20.0000 -1.0798 -10.0329
20.0000 -39.4317 -1.3173
20.0000 -20.7567 8.3223
20.0000 -78.6133 17.4412
20.0000 -57.0694 30.3421
20.0000 -71.7638 -5.7778
20.0000 -62.3860 7.0297
20.0000 -75.4333 -34.9342
20.0000 -34.0911 -22.0832
20.0000 -60.3529 14.4326
20.0000 -53.7710 11.1799
20.0000 -3.8733 35.6865
20.0000 -36.7162 -12.5472
20.0000 -53.8807 -15.9141
20.0000 -71.8514 -37.6062
20.0000 -9.0819 -1.5129
20.0000 -12.9676 0.6928
20.0000 -35.8031 -16.1691
20.0000 4.5620 -18.3814
20.0000 -1.9310 1.5543
20.0000 -2.5737 6.0305
20.0000 -71.9941 4.1001
20.0000 -71.0193 -32.1257
20.0000 -22.6068 -13.4867
20.0000 -36.1772 3.3878
20.0000 -45.5943 24.3884
20.0000 -37.0375 -22.5363
20.0000 -63.4037 -23.2558
20.0000 -24.3757 8.0335
20.0000 14.0999 33.8969
20.0000 -54.5774 14.9718
20.0000 -84.3484 -19.8557
20.0000 -0.0434 -1.6011
20.0000 -36.1044 11.4085
20.0000 -34.9233 -9.3843
26.0639 15.0000 32.8840
44.1689 15.0000 -0.4982
23.9475 15.0000 15.1844
24.9266 15.0000 -13.6013
32.7382 15.0000 6.8116
22.2239 15.0000 -25.3894
32.6548 15.0000 -32.9640
38.0306 15.0000 -9.8312
34.3549 15.0000 37.3975
30.3356 15.0000 23.7067
32.9178 15.0000 -2.0153
40.5322 15.0000 -22.9878
33.8684 15.0000 13.2101
32.1735 15.0000 -17.0246
49.7458 15.0000 -9.1652
45.2522 15.0000 -19.7090
22.2228 15.0000 -2.7497
27.6852 15.0000 32.4847
22.0905 15.0000 13.2604
49.6178 15.0000 33.5769
43.3848 15.0000 -1.8805
23.0759 15.0000 36.7411
28.3448 15.0000 11.9875
26.2657 15.0000 34.7082
31.8357 15.0000 -24.8184
47.7597 15.0000 8.6260
36.7625 15.0000 -6.4911
31.1515 15.0000 -39.8348
23.8440 15.0000 -28.5792
44.8066 15.0000 -36.1634
43.8978 15.0000 14.1230
32.0071 15.0000 -38.8746
48.3819 15.0000 37.7318
41.1867 15.0000 30.2626
39.5704 15.0000 3.6938
45.1252 15.0000 16.4195
35.9118 15.0000 26.1885
30.7712 15.0000 -23.9260
42.2551 15.0000 -34.7334
30.8356 15.0000 14.5024
42.1675 15.0000 22.7278
31.0374 15.0000 37.3239
45.0646 15.0000 -10.5767
24.1247 15.0000 -28.8744
32.5578 15.0000 11.4943
42.5750 15.0000 39.7381
26.2857 15.0000 1.3504
29.8718 15.0000 -10.4164
49.7301 15.0000 -28.3789
22.8130 15.0000 -14.2416
46.0541 15.0000 -19.4090
26.2867 15.0000 22.0321
42.6382 15.0000 0.4010
30.5710 15.0000 28.1693
49.9848 15.0000 -31.3226
25.1974 15.0000 -14.5632
48.0891 15.0000 25.6336
39.5559 15.0000 -3.8483
27.4332 15.0000 20.6150
30.8857 15.0000 -19.7443
38.8156 15.0000 -32.9257
35.7680 15.0000 23.1782
30.0897 15.0000 23.7030
49.1775 15.0000 -28.7947
32.4541 15.0000 -7.9898
35.8432 15.0000 -11.8961
25.0045 15.0000 -3.8237
48.6052 15.0000 38.8759
34.8336 15.0000 -11.1527
30.0874 15.0000 37.2305
39.8933 15.0000 26.6432
31.3012 15.0000 7.0101
33.6003 15.0000 -4.5464
48.9117 15.0000 4.9579
47.9445 15.0000 -6.0145
23.3224 15.0000 -12.3348
33.7665 15.0000 30.3767
33.6219 15.0000 -13.4204
46.5734 15.0000 -29.7027
47.8637 15.0000 -20.1027
48.0020 15.0000 14.7287
31.3024 15.0000 -8.0168
42.8066 15.0000 22.1846
39.9138 15.0000 29.3699
39.8080 15.0000 -16.1461
49.8535 -85.0000 4.2395
46.9510 -85.0000 -5.9350
20.7441 -85.0000 26.8300
27.5631 -85.0000 27.8595
46.0245 -85.0000 -17.0381
44.8320 -85.0000 4.7873
25.6798 -85.0000 21.9802
40.1353 -85.0000 -24.7849
32.5703 -85.0000 16.0339
23.9135 -85.0000 37.5002
48.3821 -85.0000 -16.9287
42.6730 -85.0000 -13.2635
23.6650 -85.0000 32.1904
20.7795 -85.0000 -21.5217
20.0867 -85.0000 16.7408
41.8995 -85.0000 -13.1684
44.7197 -85.0000 -15.9335
37.1059 -85.0000 -13.4488
43.6934 -85.0000 13.0618
23.4359 -85.0000 -16.0321
49.0372 -85.0000 2.9105
20.0464 -85.0000 -0.1376
33.2366 -85.0000 -36.5975
42.3303 -85.0000 2.8654
22.4282 -85.0000 16.4582
45.8676 -85.0000 34.3677
41.2083 -85.0000 -37.7429
20.6255 -85.0000 25.6647
42.4816 -85.0000 2.2587
49.6960 -85.0000 12.9369
28.3339 -85.0000 29.4618
29.2584 -85.0000 12.4536
42.4924 -85.0000 -32.6436
22.3733 -85.0000 -4.1038
20.3686 -85.0000 -20.9935
31.2751 -85.0000 13.6418
36.3216 -85.0000 21.2640
40.5638 -85.0000 27.6245
48.9760 -85.0000 -19.4420
37.7043 -85.0000 -7.5811
44.2570 -85.0000 -35.5608
42.2152 -85.0000 17.4621
41.2339 -85.0000 -23.3695
22.0340 -85.0000 -16.7729
40.4538 -85.0000 32.5003
30.7643 -85.0000 -35.4430
41.0833 -85.0000 37.5738
33.3685 -85.0000 30.2176
24.0198 -85.0000 24.4541
34.7180 -85.0000 -36.8697
38.0751 -85.0000 -24.7175
22.6588 -85.0000 11.0033
42.9982 -85.0000 -25.2978
32.5391 -85.0000 -25.2952
33.0613 -85.0000 25.5203
21.6901 -85.0000 29.0327
45.4922 -85.0000 27.2808
39.3890 -85.0000 -17.5302
29.5413 -85.0000 38.7141
29.5795 -85.0000 -18.4715
44.5880 -85.0000 22.2714
47.5565 -85.0000 -5.1117
22.7216 -85.0000 -1.2673
27.5050 -85.0000 -16.9133
39.1256 -85.0000 8.9809
21.0617 -85.0000 -3.0433
22.6253 -85.0000 -20.9440
22.4002 -85.0000 -4.0852
27.0114 -85.0000 24.3639
39.5508 -85.0000 10.7194
27.8269 -85.0000 23.0411
29.7803 -85.0000 34.0219
25.8988 -85.0000 -31.1777
24.6476 -85.0000 -14.7625
27.4708 -85.0000 5.1122
28.5146 -85.0000 -39.3496
40.0431 -85.0000 10.6329
32.5270 -85.0000 0.5568
40.6377 -85.0000 -34.6639
30.5196 -85.0000 19.0558
28.5042 -85.0000 34.9499
29.4490 -85.0000 -14.0232
21.9026 -85.0000 -1.9268
21.9415 -85.0000 -37.0037
33.5069 -85.0000 32.9079
21.9060 -78.2080 40.0000
20.2920 -62.1629 40.0000
48.8944 -65.9633 40.0000
36.7273 -15.2717 40.0000
27.1381 -71.1277 40.0000
27.0669 -29.9989 40.0000
48.9881 -82.5478 40.0000
41.3074 -18.8093 40.0000
34.8164 -25.6003 40.0000
47.8741 -64.7919 40.0000
30.1893 -64.5396 40.0000
26.4923 -26.6572 40.0000
43.7693 -6.1044 40.0000
29.0685 -25.4475 40.0000
48.0717 -40.8507 40.0000
26.2947 -23.6298 40.0000
41.9048 -59.5862 40.0000
27.4748 -14.9051 40.0000
37.1446 9.8596 40.0000
29.7295 -49.0991 40.0000
39.9201 -15.0950 40.0000
28.9388 -17.5488 40.0000
20.0746 -65.3268 40.0000
29.8393 -14.6707 40.0000
23.5986 -67.3150 40.0000
35.2658 -9.0657 40.0000
22.0766 -26.0825 40.0000
47.9463 -42.4421 40.0000
25.4692 -34.3726 40.0000
29.0614 -29.9590 40.0000
41.6959 -61.7309 40.0000
30.3949 -22.2914 40.0000
42.4465 -52.8802 40.0000
38.8661 -42.6778 40.0000
23.8512 9.9398 40.0000
40.5451 4.9513 40.0000
30.0264 -2.2091 40.0000
36.6404 -60.1915 40.0000
21.7910 8.4845 40.0000
46.0666 6.5866 40.0000
48.7258 0.2998 40.0000
46.2879 -53.5870 40.0000
25.3229 -47.0674 40.0000
43.0452 -58.3865 40.0000
44.2603 -17.9389 40.0000
29.1454 -36.8411 40.0000
21.9587 -37.3572 40.0000
46.7147 -41.8517 40.0000
45.7670 -71.9835 40.0000
48.8425 -4.6471 40.0000
23.4014 -32.6249 40.0000
36.8538 -50.5906 40.0000
20.0325 -68.1701 40.0000
47.6577 -1.5773 40.0000
37.8080 -16.1404 40.0000
44.2263 -49.1432 40.0000
36.8294 -47.4176 40.0000
22.8176 -69.8705 40.0000
27.4744 -81.5100 40.0000
34.6975 -74.8306 40.0000
22.7265 -56.0365 40.0000
25.6710 5.9889 40.0000
49.2290 -68.3826 40.0000
47.5963 -46.6601 40.0000
30.7089 -13.6253 40.0000
25.5183 -33.5070 40.0000
22.0009 -3.7632 40.0000
25.7501 -3.5389 40.0000
40.4932 -14.7499 40.0000
41.1315 -55.5365 40.0000
34.0953 -69.2206 40.0000
21.7721 -1.9446 40.0000
43.3210 -44.2367 40.0000
35.2091 -30.7427 40.0000
46.2451 1.9515 40.0000
30.7794 -64.1981 40.0000
36.7800 -6.0687 40.0000
40.5878 -50.7597 40.0000
44.1984 -45.8667 40.0000
49.3080 -24.9815 40.0000
41.0629 -38.4532 40.0000
32.7424 -81.4656 40.0000
35.1103 -79.9294 40.0000
24.4862 -66.2055 40.0000
31.7099 -12.3059 40.0000
30.9081 -27.2534 -40.0000
25.6026 -36.1391 -40.0000
38.3607 -40.0671 -40.0000
29.5849 -35.3269 -40.0000
27.0205 -41.6876 -40.0000
45.7122 -78.4772 -40.0000
32.2203 10.4101 -40.0000
37.2467 -77.3688 -40.0000
21.2548 -56.2592 -40.0000
34.8851 -68.9467 -40.0000
29.6374 -1.7582 -40.0000
27.7337 -78.0466 -40.0000
22.2934 -77.9718 -40.0000
48.2926 -52.5967 -40.0000
34.4005 -48.5418 -40.0000
49.1682 -6.2646 -40.0000
37.4740 -83.7825 -40.0000
20.0819 -21.2987 -40.0000
26.6663 -12.1003 -40.0000
33.6990 -64.0189 -40.0000
45.0683 -60.9000 -40.0000
36.0426 -28.0357 -40.0000
43.1108 -36.8846 -40.0000
25.9542 -66.9405 -40.0000
46.6018 -24.2971 -40.0000
37.3979 -78.8111 -40.0000
27.8957 -75.3669 -40.0000
42.8638 -2.2073 -40.0000
42.9472 -46.9526 -40.0000
48.8237 -74.2835 -40.0000
31.7089 -83.0590 -40.0000
33.2559 4.5733 -40.0000
41.3938 -12.4378 -40.0000
47.2622 -10.3881 -40.0000
40.0166 -55.1523 -40.0000
43.6494 9.8911 -40.0000
37.0453 -69.7438 -40.0000
38.0738 -6.0259 -40.0000
37.2222 -72.6173 -40.0000
27.2161 -17.1395 -40.0000
41.4330 -15.6482 -40.0000
25.0801 -18.4028 -40.0000
24.9067 -27.4123 -40.0000
29.3121 -60.3209 -40.0000
29.5012 -13.4048 -40.0000
28.6714 0.2873 -40.0000
21.6963 -32.8803 -40.0000
28.3154 -9.6561 -40.0000
24.1267 -30.0021 -40.0000
35.4631 -19.2981 -40.0000
46.1368 -61.8570 -40.0000
23.2384 -20.0908 -40.0000
25.3368 -39.7030 -40.0000
36.7443 -52.0302 -40.0000
35.3525 -76.5462 -40.0000
33.5841 -69.6196 -40.0000
40.3371 -69.6789 -40.0000
44.4574 -70.1696 -40.0000
42.0405 -81.2172 -40.0000
43.8050 2.4090 -40.0000
26.5408 -35.4440 -40.0000
30.8740 -55.3453 -40.0000
25.9971 -61.5175 -40.0000
28.4056 -12.4602 -40.0000
26.3548 -83.9281 -40.0000
26.8000 -50.4333 -40.0000
38.8757 -18.3885 -40.0000
46.5456 -26.0468 -40.0000
31.6180 -54.9445 -40.0000
40.8628 -2.6941 -40.0000
33.5652 -12.3880 -40.0000
43.7737 -35.9527 -40.0000
33.4530 -19.1095 -40.0000
41.8254 -0.7478 -40.0000
35.9413 -55.7565 -40.0000
22.4304 7.5247 -40.0000
32.1889 6.9889 -40.0000
42.2506 -69.6404 -40.0000
41.7387 -5.8644 -40.0000
42.9294 -81.5112 -40.0000
49.8025 2.9595 -40.0000
36.5162 -35.9190 -40.0000
48.2797 -48.2134 -40.0000
25.2027 4.8096 -40.0000
44.9449 -33.4801 -40.0000
