ply
format ascii 1.0
element vertex 1024
property float x
property float y
property float z
end_header
50.0000 -13.1260 24.9786
50.0000 -11.3603 18.6243
50.0000 4.6090 6.0615
50.0000 4.3014 -24.9979
50.0000 3.8018 -0.5866
50.0000 -2.8190 -11.9314
50.0000 -10.6064 24.7855
50.0000 9.3738 -4.0173
50.0000 -5.6879 -14.6458
50.0000 -1.2959 -6.9293
50.0000 3.6621 -14.5816
50.0000 -4.8790 25.4667
50.0000 -14.7057 -11.4355
50.0000 7.9685 10.5780
50.0000 -4.4172 -15.2758
50.0000 11.6051 -15.6955
50.0000 12.2283 -22.7677
50.0000 -12.9280 1.6923
50.0000 -10.5999 -19.4604
50.0000 -3.2763 21.0303
50.0000 -4.0066 -5.3539
50.0000 -5.4150 11.0335
50.0000 -2.7076 13.9699
50.0000 -10.5694 29.3358
50.0000 -4.5800 -8.8223
50.0000 14.1423 -6.2760
50.0000 7.4004 29.3400
50.0000 -7.0213 -24.7285
50.0000 -2.9625 -22.0159
50.0000 -1.3187 -16.8675
50.0000 -3.3467 26.6587
50.0000 7.0662 -4.1373
50.0000 -5.4569 -2.8534
50.0000 -12.0880 23.7137
50.0000 -7.2940 1.9570
50.0000 -10.2198 -22.8833
50.0000 -13.1492 4.7492
50.0000 -5.4472 12.1632
50.0000 11.3807 -15.7905
50.0000 0.8416 -0.6332
50.0000 12.1905 -9.4403
50.0000 -2.5822 -0.7938
50.0000 10.5817 -27.9255
50.0000 6.2395 13.8965
50.0000 11.7495 26.6589
50.0000 -7.6524 -26.3176
50.0000 6.6184 -24.7996
50.0000 5.7999 -27.6630
50.0000 10.3233 -28.9959
50.0000 5.9636 -4.0190
50.0000 -5.4843 0.1594
50.0000 2.7954 -29.9481
50.0000 1.8143 5.9059
50.0000 -6.3497 23.2694
50.0000 7.6224 14.5744
50.0000 -14.8571 9.7236
50.0000 5.9415 5.5986
50.0000 14.7346 -22.5381
50.0000 14.8912 16.1247
50.0000 10.4604 -27.1350
50.0000 5.3772 -23.0158
50.0000 -11.8933 17.2823
50.0000 -11.5642 0.6428
50.0000 -9.4328 -7.3682
50.0000 -4.1527 -9.1655
50.0000 0.9916 -11.8648
50.0000 10.4411 25.0462
50.0000 -3.4980 -17.0826
50.0000 1.4247 18.1132
50.0000 14.5511 -15.7962
50.0000 -10.6566 -2.0929
50.0000 -0.5754 11.0182
50.0000 -3.2695 -16.6968
50.0000 -11.3159 24.5574
50.0000 -10.8642 6.9732
50.0000 -12.9050 -10.4825
50.0000 1.4101 -29.1967
50.0000 4.0172 19.2135
50.0000 13.2080 -23.8974
50.0000 12.5913 21.3475
50.0000 8.3482 -9.5923
50.0000 -2.2181 9.9737
50.0000 4.7380 18.1807
50.0000 -4.1634 15.4345
50.0000 12.1835 26.9162
50.0000 9.3854 -22.9392
-50.0000 0.5611 -15.5136
-50.0000 4.2975 2.3337
-50.0000 12.0345 24.7266
-50.0000 12.9470 16.8227
-50.0000 -12.7165 -7.6689
-50.0000 -12.3433 17.3900
-50.0000 13.6631 -9.1448
-50.0000 -4.9350 28.9840
-50.0000 -9.3751 -1.7906
-50.0000 10.9106 22.9895
-50.0000 -2.1422 4.4870
-50.0000 0.8287 -4.8310
-50.0000 -6.4353 -4.7571
-50.0000 0.9044 9.1213
-50.0000 -0.4119 -3.4945
-50.0000 -8.1469 10.7377
-50.0000 -7.5697 12.8113
-50.0000 -5.3876 6.0184
-50.0000 -0.6429 29.0068
-50.0000 12.3192 -1.0398
-50.0000 -0.0319 -23.4812
-50.0000 -12.3793 15.4630
-50.0000 0.1378 -17.5914
-50.0000 -6.8171 -13.9603
-50.0000 12.1706 15.7133
-50.0000 -12.3670 -28.6832
-50.0000 4.0764 1.7651
-50.0000 11.4901 20.1026
-50.0000 -10.2316 22.4368
-50.0000 -2.3055 21.4769
-50.0000 -6.3745 -26.0285
-50.0000 -10.3958 25.7841
-50.0000 5.7704 -14.2466
-50.0000 -5.7082 3.0905
-50.0000 0.5710 -29.3167
-50.0000 13.4598 5.3708
-50.0000 9.2474 2.6850
-50.0000 -3.2987 -0.1504
-50.0000 -11.2753 -18.6048
-50.0000 10.5932 3.5826
-50.0000 4.1748 2.7975
-50.0000 5.6902 -29.5548
-50.0000 9.3478 -4.6539
-50.0000 13.9924 -16.8808
-50.0000 0.1854 -29.6816
-50.0000 -8.6417 6.9659
-50.0000 -4.9483 -12.0788
-50.0000 11.3641 -6.6232
-50.0000 -14.5436 -20.7007
-50.0000 5.2170 -2.2430
-50.0000 -2.2408 27.7857
-50.0000 3.0409 5.0665
-50.0000 -6.5709 -17.1551
-50.0000 10.4576 -7.1617
-50.0000 2.6860 -22.1574
-50.0000 -1.1085 9.1273
-50.0000 10.8071 16.1012
-50.0000 6.0395 2.3036
-50.0000 3.2286 -8.6240
-50.0000 7.0146 -16.1072
-50.0000 -13.0174 11.7097
-50.0000 -13.8591 12.7380
-50.0000 -13.4418 16.6772
-50.0000 -8.3973 -27.5674
-50.0000 14.7286 3.8253
-50.0000 8.4256 26.3466
-50.0000 -8.0464 11.2552
-50.0000 2.2016 23.4616
-50.0000 2.0963 4.6624
-50.0000 2.4928 -10.6403
-50.0000 -3.4106 3.9764
-50.0000 -1.6090 27.5955
-50.0000 -1.4728 -27.0713
-50.0000 3.0124 -28.3025
-50.0000 1.9481 -24.9270
-50.0000 -10.8055 16.3714
-50.0000 -1.3857 29.2487
-50.0000 0.4882 14.2755
-50.0000 0.2676 -18.9539
-50.0000 -4.1403 21.3196
-50.0000 -12.4265 -27.5570
-50.0000 9.2307 -7.6649
-50.0000 7.5395 -27.7641
-50.0000 -0.5931 17.0697
-50.0000 -2.8839 -23.7468
-50.0000 7.2077 25.6633
-42.2544 15.0000 22.0796
-16.4094 15.0000 -27.2616
17.3430 15.0000 23.7315
10.2305 15.0000 -13.5389
-7.9194 15.0000 10.4676
3.1612 15.0000 -26.5125
-28.8659 15.0000 23.2714
30.5810 15.0000 -4.8727
26.1602 15.0000 -15.3907
-13.5197 15.0000 12.4492
9.7321 15.0000 6.1252
47.9319 15.0000 -23.0688
30.5961 15.0000 -7.1392
-17.6856 15.0000 -25.0189
-8.3374 15.0000 -21.5239
27.4014 15.0000 6.3028
-18.3976 15.0000 -10.6718
31.0252 15.0000 7.9117
-33.3315 15.0000 1.2430
40.0869 15.0000 15.0537
-25.3032 15.0000 8.0186
-9.4926 15.0000 25.1911
23.9303 15.0000 22.4811
-15.8369 15.0000 -6.9828
30.3609 15.0000 -21.5335
48.1748 15.0000 -7.3739
41.4662 15.0000 -10.2272
-38.4478 15.0000 -29.0879
-20.6600 15.0000 0.4353
27.7648 15.0000 -20.0221
19.7197 15.0000 -16.6288
42.4385 15.0000 -6.7618
24.6771 15.0000 21.1237
29.8667 15.0000 5.5353
23.1306 15.0000 -3.8651
-39.0420 15.0000 -11.1084
-38.9227 15.0000 -2.1148
-41.0645 15.0000 -11.7822
49.2702 15.0000 24.7872
6.3101 15.0000 -12.3030
-19.4542 15.0000 16.7720
49.5772 15.0000 -17.5722
-39.2830 15.0000 9.6994
9.0873 15.0000 -1.9115
45.2643 15.0000 3.6564
42.6355 15.0000 -29.1983
-38.1093 15.0000 -6.4753
30.4650 15.0000 15.6494
38.4742 15.0000 -21.5520
49.7558 15.0000 4.2928
36.0188 15.0000 24.7308
11.9312 15.0000 -4.2870
-8.2091 15.0000 12.6733
24.3605 15.0000 2.8515
7.6266 15.0000 29.2347
9.0118 15.0000 -3.9373
36.5093 15.0000 -19.4497
32.0405 15.0000 -26.1108
42.8322 15.0000 28.9197
-31.0576 15.0000 -12.2907
2.2181 15.0000 -18.0009
44.0844 15.0000 19.6392
-14.6918 15.0000 -15.0105
-38.2483 15.0000 5.3119
49.5427 15.0000 0.6177
40.8295 15.0000 -23.1336
-15.4180 15.0000 6.4170
20.4516 15.0000 -0.8141
-3.6459 15.0000 -26.7897
-45.9863 15.0000 -7.2326
-2.8626 15.0000 -25.5730
-8.9446 15.0000 -16.7375
-48.1588 15.0000 0.5352
4.1398 15.0000 -14.5881
7.5013 15.0000 5.5522
-34.3973 15.0000 0.0162
-11.1523 15.0000 9.3456
-42.1290 15.0000 -1.0077
-19.4292 15.0000 -3.4476
7.6466 15.0000 11.7039
18.2211 15.0000 -5.0373
-25.9395 15.0000 -18.4710
20.0132 15.0000 25.8241
4.8640 15.0000 2.1386
39.6385 15.0000 -12.5652
-27.5765 -15.0000 -3.0176
44.5388 -15.0000 13.5766
-44.1549 -15.0000 -13.1388
26.2312 -15.0000 -16.8060
-8.3819 -15.0000 -12.4344
-12.6716 -15.0000 -16.8079
-23.6256 -15.0000 21.7612
-48.0158 -15.0000 2.3109
9.7353 -15.0000 -19.5334
4.5527 -15.0000 26.7268
-36.1709 -15.0000 2.6574
31.2748 -15.0000 1.9437
36.0203 -15.0000 13.3871
-12.5123 -15.0000 -13.4507
-37.1780 -15.0000 -4.9948
30.4739 -15.0000 -9.0213
-33.0385 -15.0000 -7.8899
-15.9170 -15.0000 -20.2590
-9.9446 -15.0000 -25.3773
44.8387 -15.0000 27.2775
15.0917 -15.0000 -7.0704
8.9432 -15.0000 -3.7991
-12.3552 -15.0000 7.0469
41.6767 -15.0000 10.9301
2.3871 -15.0000 -14.1911
-38.8107 -15.0000 25.6016
20.1696 -15.0000 -7.4580
-28.1012 -15.0000 29.2446
-22.3946 -15.0000 -19.6655
-6.4870 -15.0000 6.5256
-40.8329 -15.0000 11.9272
0.9570 -15.0000 27.2571
6.6612 -15.0000 28.2658
15.9977 -15.0000 9.8188
-13.3384 -15.0000 10.7804
24.5975 -15.0000 3.2839
-11.0205 -15.0000 -5.0242
22.6268 -15.0000 25.1884
-23.3327 -15.0000 18.8616
15.2807 -15.0000 13.8361
-4.6464 -15.0000 -25.3397
32.6240 -15.0000 24.7705
-27.7915 -15.0000 -16.0001
4.3036 -15.0000 28.3955
-35.4244 -15.0000 5.2413
20.8948 -15.0000 29.3799
30.6126 -15.0000 -11.7261
19.6982 -15.0000 -22.2665
23.2763 -15.0000 14.9143
6.0685 -15.0000 -2.5855
-38.0055 -15.0000 27.5409
-9.9903 -15.0000 0.4041
-42.9771 -15.0000 11.8337
-26.6310 -15.0000 -5.2410
33.2964 -15.0000 12.6920
-16.7796 -15.0000 -25.4935
45.0158 -15.0000 22.7874
39.0569 -15.0000 -3.4201
-12.5677 -15.0000 17.1112
-21.2600 -15.0000 3.9012
30.7666 -15.0000 -20.4054
-10.1869 -15.0000 15.7853
-20.0449 -15.0000 -8.0531
31.9989 -15.0000 -9.5510
-19.6341 -15.0000 -4.9714
-8.4420 -15.0000 -25.1520
-37.8628 -15.0000 -3.7358
6.0407 -15.0000 1.6399
-41.7508 -15.0000 -20.8283
26.8937 -15.0000 26.1640
-43.4886 -15.0000 -9.9127
39.9484 -15.0000 18.4129
-22.6341 -15.0000 -25.6189
-36.6166 -15.0000 0.2921
37.8724 -15.0000 -20.8810
-23.0888 -15.0000 -25.3603
20.3339 -15.0000 23.8868
29.3293 -15.0000 -11.3628
-40.2702 -15.0000 -5.2459
-3.5090 -15.0000 -27.7439
-6.4510 -15.0000 -17.6974
-8.5296 -15.0000 1.0997
-17.7377 -15.0000 -8.6021
-23.5545 -15.0000 16.4970
-12.7318 -15.0000 -0.9598
34.7509 -12.1831 30.0000
-37.0510 -5.5676 30.0000
-26.5655 -7.0888 30.0000
-44.8422 -13.1281 30.0000
-34.4451 -12.1484 30.0000
-4.2328 9.3380 30.0000
-22.3264 11.1316 30.0000
17.0035 7.1694 30.0000
48.9523 1.9857 30.0000
-1.5779 6.7687 30.0000
18.9767 0.9794 30.0000
-23.1341 -12.2259 30.0000
28.9842 10.1586 30.0000
17.1452 12.7037 30.0000
1.1813 14.6052 30.0000
-5.2360 7.1789 30.0000
-6.4638 -14.8185 30.0000
-42.8225 -0.3762 30.0000
-6.7389 9.3246 30.0000
-22.8863 2.7936 30.0000
-13.6112 -13.4355 30.0000
38.0152 4.0916 30.0000
-47.8617 13.7463 30.0000
12.1043 3.3693 30.0000
42.6756 0.8727 30.0000
-13.0752 -1.4459 30.0000
32.9042 -5.2028 30.0000
16.7596 7.1921 30.0000
36.0871 -10.5054 30.0000
-18.6502 8.7112 30.0000
-15.6905 -14.9113 30.0000
-38.4038 11.4024 30.0000
48.4536 -3.1103 30.0000
47.8296 2.2005 30.0000
-21.5130 13.2662 30.0000
-25.6215 3.4305 30.0000
23.3344 -6.9365 30.0000
31.4546 -10.6248 30.0000
31.0047 7.7013 30.0000
-35.8972 -0.7300 30.0000
-36.7824 8.2941 30.0000
9.3014 -10.5861 30.0000
-13.6007 -9.5655 30.0000
-30.3109 -4.0527 30.0000
23.7894 9.1831 30.0000
-7.4045 -12.5110 30.0000
-4.7176 11.2687 30.0000
33.4749 -7.6942 30.0000
48.1609 -10.9411 30.0000
-29.9890 -11.6831 30.0000
-28.9202 5.8389 30.0000
22.7644 -5.5086 30.0000
-42.6543 2.3217 30.0000
24.0508 11.3511 30.0000
6.2905 -1.3059 30.0000
1.5611 -5.0465 30.0000
34.4165 13.3471 30.0000
-6.7930 -13.2305 30.0000
1.1429 13.7286 30.0000
-18.3279 11.4809 30.0000
-17.4246 -8.5441 30.0000
-6.3158 3.5260 30.0000
14.1471 -3.6128 30.0000
41.6817 11.6081 30.0000
34.2453 -0.2336 30.0000
12.5109 13.9065 30.0000
39.9207 0.9297 30.0000
-44.9678 -0.2138 30.0000
-27.8137 12.5051 30.0000
-27.2176 0.9320 30.0000
-7.2507 -5.3096 30.0000
36.8614 10.3331 30.0000
43.4334 3.7447 30.0000
-1.3607 -3.1215 30.0000
45.0030 6.2490 30.0000
11.0092 0.3766 30.0000
48.1561 1.0877 30.0000
10.5835 9.8100 30.0000
-15.3884 -3.0432 30.0000
4.9918 10.0871 30.0000
27.1640 8.9584 30.0000
1.0844 8.1956 30.0000
20.8752 -2.5736 30.0000
-12.3439 -7.7603 30.0000
-11.8543 0.0770 30.0000
23.3940 7.5911 -30.0000
8.3983 -2.3476 -30.0000
34.2225 -14.6978 -30.0000
-19.1282 8.2344 -30.0000
8.1959 -0.2311 -30.0000
9.7454 0.9268 -30.0000
30.4338 -5.0490 -30.0000
-4.1150 10.6456 -30.0000
-12.7901 -0.2954 -30.0000
24.9092 -9.6115 -30.0000
41.5542 -12.1701 -30.0000
10.8557 0.4497 -30.0000
10.1581 4.1504 -30.0000
42.1213 -14.2336 -30.0000
16.9606 5.3548 -30.0000
-9.3091 -6.6526 -30.0000
-4.6586 14.4744 -30.0000
24.1041 0.2604 -30.0000
-5.6382 9.7325 -30.0000
-31.4322 -10.2449 -30.0000
-46.9233 -6.5559 -30.0000
-0.2129 -2.7850 -30.0000
29.0740 7.0990 -30.0000
-39.0250 2.4828 -30.0000
12.9810 -2.2729 -30.0000
-42.1229 -11.2821 -30.0000
-19.7094 6.2652 -30.0000
23.9780 -13.5069 -30.0000
-39.4440 3.2506 -30.0000
8.4933 0.0085 -30.0000
-40.9133 9.1262 -30.0000
4.9733 -10.0016 -30.0000
42.5855 -11.0711 -30.0000
-43.2067 12.9779 -30.0000
-12.1452 12.1449 -30.0000
-35.2164 -1.0328 -30.0000
-42.3633 7.1751 -30.0000
47.5683 -2.6905 -30.0000
47.2529 3.1604 -30.0000
-18.6294 -2.8237 -30.0000
5.3725 4.3530 -30.0000
43.3360 10.5418 -30.0000
39.4540 1.5578 -30.0000
28.2746 -14.8655 -30.0000
-47.3519 5.4605 -30.0000
34.8617 -2.7736 -30.0000
-44.3502 -8.2313 -30.0000
33.4551 -4.3841 -30.0000
14.0073 -2.1051 -30.0000
29.0988 -0.8240 -30.0000
45.2011 6.2521 -30.0000
2.3672 -6.3446 -30.0000
33.3144 6.8294 -30.0000
39.7721 1.5984 -30.0000
-9.7972 -10.4609 -30.0000
-21.5536 -6.7089 -30.0000
-41.9672 5.6259 -30.0000
-2.2089 -1.1486 -30.0000
25.0682 -6.9520 -30.0000
0.6943 -3.6383 -30.0000
21.0130 3.0332 -30.0000
47.7700 -10.0634 -30.0000
-21.8133 1.9258 -30.0000
-29.1696 2.4220 -30.0000
-0.2414 -3.9734 -30.0000
32.9960 -2.9702 -30.0000
-9.2777 -1.7541 -30.0000
12.5612 -0.5180 -30.0000
-43.1080 -0.5801 -30.0000
-34.5854 -6.5334 -30.0000
-44.8458 6.1386 -30.0000
47.5998 -10.9634 -30.0000
22.0873 -14.9575 -30.0000
36.7687 3.3183 -30.0000
-25.4977 -11.2743 -30.0000
1.2287 4.2039 -30.0000
16.0494 -8.9344 -30.0000
20.5103 -11.2201 -30.0000
-3.3263 -9.1053 -30.0000
24.9697 5.7313 -30.0000
-4.9696 10.2703 -30.0000
-0.2989 -2.5424 -30.0000
-18.1625 -14.9956 -30.0000
24.0972 11.7645 -30.0000
-33.5071 11.3255 -30.0000
15.0000 15.3873 9.9180
15.0000 -13.8880 25.2391
15.0000 70.2142 1.6027
15.0000 40.8935 4.3647
15.0000 -13.7491 -24.6467
15.0000 -2.6291 18.7853
15.0000 26.0441 -12.5888
15.0000 -13.7916 0.5661
15.0000 81.0006 11.4001
15.0000 53.5365 13.3463
15.0000 57.3972 -20.9462
15.0000 24.6066 15.3259
15.0000 21.4878 13.8608
15.0000 -3.6143 26.6520
15.0000 21.5372 -25.2363
15.0000 42.0232 13.7302
15.0000 22.0344 5.4484
15.0000 42.4674 -2.0489
15.0000 65.8820 -3.1178
15.0000 59.0110 16.2854
15.0000 10.3669 -27.6903
15.0000 42.8182 -19.8961
15.0000 55.3455 1.8129
15.0000 83.6682 5.6368
15.0000 69.0606 -24.1175
15.0000 51.3473 6.9288
15.0000 60.0459 -10.1181
15.0000 45.8318 15.6930
15.0000 17.6360 15.2204
15.0000 5.5903 -2.6057
15.0000 18.7219 -2.3471
15.0000 16.1927 -22.2980
15.0000 57.2060 19.5965
15.0000 24.3967 25.2762
15.0000 21.6595 -29.6075
15.0000 77.9901 8.6455
15.0000 52.5432 -26.9951
15.0000 23.5033 20.1606
15.0000 63.7055 -0.8222
15.0000 46.1414 -19.1258
15.0000 -9.3118 -9.6159
15.0000 4.6043 -26.5366
15.0000 78.0697 -6.9546
15.0000 82.7406 -24.3819
15.0000 46.1928 -18.2276
15.0000 78.9772 -16.4648
15.0000 77.6827 -8.4085
15.0000 47.3178 -12.5630
15.0000 63.0551 -8.5076
15.0000 4.6859 8.9681
15.0000 60.4903 -20.8641
15.0000 50.9216 27.8770
15.0000 6.9804 -17.6053
15.0000 33.0489 -17.2437
15.0000 69.0648 -19.0069
15.0000 74.0120 26.1309
15.0000 63.8209 -12.6114
15.0000 40.1924 -11.8118
15.0000 82.0748 7.2371
15.0000 84.4794 -15.8491
15.0000 56.1476 13.1523
15.0000 64.5280 22.1226
15.0000 0.5323 1.1909
15.0000 -8.9303 11.5326
15.0000 56.1747 -6.1856
15.0000 74.5515 26.6698
15.0000 54.7966 -22.6556
15.0000 40.2826 24.8603
15.0000 30.6920 -20.0052
15.0000 -12.9226 -12.6935
15.0000 7.4116 -20.5049
15.0000 -1.8330 -26.8437
15.0000 53.6335 -29.4142
15.0000 51.9183 1.6959
15.0000 84.4457 11.2367
15.0000 65.4886 -26.1225
15.0000 52.3614 12.7252
15.0000 37.3569 16.5471
15.0000 56.6823 -5.8596
15.0000 -2.9445 -6.1840
15.0000 45.2606 -20.4260
15.0000 6.6278 1.7392
15.0000 76.2966 3.8845
15.0000 -1.2936 -6.9446
15.0000 84.1197 -17.8471
15.0000 39.7983 26.4072
-15.0000 59.2745 -9.7124
-15.0000 45.3245 20.0801
-15.0000 51.3217 -10.1120
-15.0000 -12.6914 22.5222
-15.0000 53.4726 5.8319
-15.0000 47.0992 22.1864
-15.0000 6.4607 -21.7220
-15.0000 77.0069 -21.3531
-15.0000 76.6723 3.9173
-15.0000 -3.7719 -19.2709
-15.0000 -2.9664 1.7175
-15.0000 32.8382 -24.9908
-15.0000 17.8175 -8.9175
-15.0000 76.5951 28.7556
-15.0000 81.0054 4.7371
-15.0000 48.6721 6.9413
-15.0000 52.1394 20.8138
-15.0000 27.0112 -0.1923
-15.0000 8.5676 -19.6592
-15.0000 45.8776 16.4705
-15.0000 29.4208 -1.2350
-15.0000 50.5512 -29.3695
-15.0000 27.8409 -12.6196
-15.0000 42.9541 5.7299
-15.0000 75.5513 -4.5237
-15.0000 -11.8368 -14.5632
-15.0000 5.7825 3.6399
-15.0000 38.1050 19.8556
-15.0000 82.2220 -5.4652
-15.0000 21.8626 14.9356
-15.0000 -1.8197 27.9686
-15.0000 61.2826 -9.6283
-15.0000 -6.0380 0.6685
-15.0000 53.2821 -13.7390
-15.0000 77.5887 1.3359
-15.0000 7.9962 3.9447
-15.0000 -1.5350 2.5476
-15.0000 1.4105 -0.0529
-15.0000 65.9998 -15.5662
-15.0000 38.0928 18.1156
-15.0000 41.7698 -16.9918
-15.0000 35.9673 -10.3288
-15.0000 66.3310 -11.8808
-15.0000 9.2157 -13.0244
-15.0000 64.9450 -24.8752
-15.0000 56.8210 19.5570
-15.0000 19.7687 -27.3588
-15.0000 -10.4319 5.4859
-15.0000 47.9925 -19.4267
-15.0000 2.9829 11.1588
-15.0000 66.3427 -18.6475
-15.0000 -12.8905 23.2925
-15.0000 -8.8236 -12.6732
-15.0000 36.5923 -2.3765
-15.0000 -6.9371 -20.5573
-15.0000 76.8321 7.2081
-15.0000 26.7886 -29.3535
-15.0000 39.0369 -18.7663
-15.0000 84.2197 28.9770
-15.0000 71.8112 12.0654
-15.0000 43.8646 -27.1754
-15.0000 21.2960 -25.9472
-15.0000 18.6479 7.8605
-15.0000 7.4049 4.6852
-15.0000 -6.9109 -15.8989
-15.0000 79.9956 22.4482
-15.0000 -2.3158 -0.1520
-15.0000 71.0214 -0.6308
-15.0000 15.0238 -23.4153
-15.0000 -3.4499 23.5847
-15.0000 14.2592 -11.9013
-15.0000 64.1864 9.0233
-15.0000 5.2250 -14.8022
-15.0000 54.4695 23.0615
-15.0000 36.6915 29.2902
-15.0000 3.2093 -8.4882
-15.0000 54.2281 -14.2046
-15.0000 -2.4950 5.0841
-15.0000 65.7885 14.6436
-15.0000 9.0136 17.0234
-15.0000 31.1843 10.7685
-15.0000 51.9239 -4.2534
-15.0000 17.6115 -21.3282
-15.0000 41.6594 -8.6161
-15.0000 -11.0784 11.4118
-15.0000 60.5663 -6.4096
14.9831 85.0000 0.5318
-4.9703 85.0000 19.1441
-11.6364 85.0000 -23.0384
-5.0890 85.0000 -6.2528
-6.9249 85.0000 -11.0377
-8.9657 85.0000 -3.6544
8.1704 85.0000 17.3799
13.2177 85.0000 4.3577
-13.3416 85.0000 -12.9570
11.6777 85.0000 -19.5481
1.8402 85.0000 -11.4171
4.3691 85.0000 12.4080
14.2527 85.0000 -27.5042
-5.9400 85.0000 -19.8856
-14.5874 85.0000 -15.9956
-2.6262 85.0000 2.9455
-14.3503 85.0000 -10.1332
9.4107 85.0000 23.3184
-7.3349 85.0000 8.7790
-11.2417 85.0000 0.8197
-14.7678 85.0000 25.3585
-9.1469 85.0000 28.8153
-9.9330 85.0000 29.5969
12.0541 85.0000 -14.3205
-6.6985 85.0000 -4.2957
8.4095 85.0000 -29.8030
-13.8592 85.0000 -24.2686
-10.7453 85.0000 28.5065
-6.3260 85.0000 -24.2536
-14.8568 85.0000 -23.9327
13.5110 85.0000 -13.1891
10.5795 85.0000 -17.7217
11.7104 85.0000 22.9611
-6.2863 85.0000 -2.0772
9.7155 85.0000 -25.8425
7.8540 85.0000 -7.2077
-6.6984 85.0000 1.9984
-5.8369 85.0000 28.5017
-8.8763 85.0000 11.0237
2.4296 85.0000 -27.4981
-7.6416 85.0000 21.8407
-2.8678 85.0000 -12.4017
-10.3237 85.0000 -13.6289
-12.8912 85.0000 17.9430
-12.6288 85.0000 12.1204
9.8817 85.0000 -7.1394
-9.2786 85.0000 -17.0793
-11.6821 85.0000 -28.0356
-0.0273 85.0000 -10.9957
-9.9658 85.0000 4.4665
-14.6076 85.0000 21.4990
-10.5205 85.0000 -20.9668
-0.4274 85.0000 10.9020
4.1670 85.0000 29.7907
3.9101 85.0000 17.7059
6.5498 85.0000 -3.8063
8.4816 85.0000 24.1729
-9.8607 85.0000 20.7160
2.2052 85.0000 -20.1596
-3.9841 85.0000 24.2741
0.1259 85.0000 4.7310
-6.4876 85.0000 7.2955
13.9653 85.0000 10.1451
9.0006 85.0000 -26.9698
1.1783 85.0000 11.4798
-10.8709 85.0000 17.4646
10.8461 85.0000 13.4903
1.3569 85.0000 10.9985
14.7078 85.0000 -2.8977
-11.0482 85.0000 0.0600
-4.3937 85.0000 -1.5280
8.0964 85.0000 11.4946
2.0280 85.0000 -4.5331
-10.6228 85.0000 -10.6334
12.3694 85.0000 8.8749
4.3744 85.0000 -8.1467
-9.1622 85.0000 23.6736
-8.1689 85.0000 1.9916
-4.8225 85.0000 -21.5874
-3.6932 85.0000 23.3933
-5.0026 85.0000 -23.9206
-9.5575 85.0000 15.9419
13.9420 85.0000 -9.4885
2.6402 85.0000 -2.6402
-3.9834 85.0000 21.4866
-8.9038 -15.0000 -11.6679
-12.7235 -15.0000 -21.8146
11.3590 -15.0000 -23.6885
0.1319 -15.0000 5.2049
8.8080 -15.0000 -6.4151
-3.3768 -15.0000 -0.5581
10.5602 -15.0000 -29.7973
12.9572 -15.0000 27.1039
12.8119 -15.0000 8.4113
-11.9538 -15.0000 27.7609
11.5803 -15.0000 1.8016
14.0532 -15.0000 22.9916
-4.5676 -15.0000 18.9926
-2.6008 -15.0000 -1.4247
10.0969 -15.0000 -10.0891
3.0761 -15.0000 6.2744
1.6944 -15.0000 -25.5497
-0.1337 -15.0000 13.4238
-5.5239 -15.0000 -9.0477
-14.5122 -15.0000 14.4847
5.8049 -15.0000 -11.2148
8.1926 -15.0000 -17.9384
-13.7653 -15.0000 -2.8778
4.8224 -15.0000 -27.0179
-11.1912 -15.0000 -21.2962
5.3343 -15.0000 25.5332
6.5751 -15.0000 25.2424
-3.0077 -15.0000 23.6948
7.6719 -15.0000 2.5219
-3.9636 -15.0000 -25.4288
-10.6766 -15.0000 16.5864
4.1694 -15.0000 -11.2677
0.8909 -15.0000 13.6029
-11.1313 -15.0000 -10.1885
-10.6296 -15.0000 -10.1455
4.5928 -15.0000 8.0151
-6.9654 -15.0000 0.6847
7.8391 -15.0000 0.3686
-12.5011 -15.0000 -11.0952
8.7519 -15.0000 -1.3388
5.4438 -15.0000 -17.2271
-9.1488 -15.0000 -13.8336
2.6467 -15.0000 -12.0528
-12.4560 -15.0000 -21.1143
8.5180 -15.0000 -16.3557
-13.0281 -15.0000 7.8043
-8.4056 -15.0000 -15.4428
3.7197 -15.0000 14.1819
-6.6281 -15.0000 19.5068
-3.4230 -15.0000 25.7544
-0.8887 -15.0000 -26.7612
-14.2426 -15.0000 -23.3745
7.9718 -15.0000 8.2873
5.3690 -15.0000 27.8146
3.4443 -15.0000 2.8653
12.7175 -15.0000 -4.1637
1.8119 -15.0000 14.9325
-7.4378 -15.0000 -13.7018
-11.6828 -15.0000 26.1529
0.3459 -15.0000 -28.6382
-1.7984 -15.0000 26.5818
10.5497 -15.0000 22.6835
-6.0615 -15.0000 17.9487
-3.9871 -15.0000 19.1939
14.0767 -15.0000 1.6190
-14.6643 -15.0000 22.6665
1.3989 -15.0000 -29.3693
-12.7308 -15.0000 -21.8620
7.5473 -15.0000 13.8203
8.5137 -15.0000 13.9806
-3.5863 -15.0000 -5.7906
8.2056 -15.0000 -26.1904
-5.0645 -15.0000 -21.6020
13.0314 -15.0000 13.4268
-3.0984 -15.0000 12.2837
-13.1086 -15.0000 19.3889
12.1896 -15.0000 5.7587
-0.6448 -15.0000 -10.3732
12.5919 -15.0000 22.6163
-7.5898 -15.0000 28.3866
6.6952 -15.0000 5.0642
5.1377 -15.0000 26.7723
-3.0315 -15.0000 -1.1223
-12.5524 -15.0000 -6.5003
8.8533 -15.0000 17.3342
6.7208 15.4036 30.0000
14.6682 36.4451 30.0000
-14.6982 50.6703 30.0000
-14.1440 51.6149 30.0000
-13.9585 19.6376 30.0000
4.4492 73.6424 30.0000
3.9703 16.9962 30.0000
-12.5597 -6.4587 30.0000
-13.2977 59.5830 30.0000
1.8969 -9.2011 30.0000
-5.4251 59.3017 30.0000
-9.2308 -3.2620 30.0000
-10.3669 36.2470 30.0000
-6.4225 8.2621 30.0000
-1.7752 51.6646 30.0000
-9.8081 68.3223 30.0000
8.0450 -8.3706 30.0000
-2.8640 83.7570 30.0000
-0.4378 6.4095 30.0000
0.9944 14.7738 30.0000
13.6828 -8.2592 30.0000
-10.8055 50.5574 30.0000
-14.1757 45.0120 30.0000
10.2867 77.0683 30.0000
1.2855 16.0814 30.0000
-8.7345 -0.4931 30.0000
2.1568 -7.9542 30.0000
2.2760 49.0853 30.0000
0.0838 71.8854 30.0000
6.2163 2.9987 30.0000
-8.0211 26.8416 30.0000
5.9331 74.3952 30.0000
-1.7491 -13.5142 30.0000
4.4957 55.4576 30.0000
-1.1102 29.5595 30.0000
2.2258 11.1930 30.0000
-11.9943 51.3767 30.0000
12.9899 58.8905 30.0000
-5.3538 50.0181 30.0000
-12.8294 67.7437 30.0000
-4.4015 60.6769 30.0000
12.6592 59.9746 30.0000
-0.1487 71.3438 30.0000
14.7185 31.2079 30.0000
-0.0501 13.7022 30.0000
9.4519 47.0110 30.0000
8.2820 -8.6984 30.0000
-5.6514 51.5753 30.0000
-2.2263 5.0280 30.0000
6.1332 -12.9061 30.0000
-4.7698 18.4114 30.0000
9.2293 82.1684 30.0000
11.0694 84.2386 30.0000
3.7209 71.8421 30.0000
14.9428 27.9071 30.0000
-7.2666 0.0829 30.0000
-5.3134 72.9884 30.0000
-11.6746 0.3595 30.0000
4.1842 37.9028 30.0000
-11.9151 70.8984 30.0000
-1.1327 39.0792 30.0000
-3.4936 54.5857 30.0000
-9.2954 -2.6340 30.0000
-14.6219 78.6258 30.0000
14.4323 37.9643 30.0000
3.0042 49.1883 30.0000
11.6902 -2.7872 30.0000
-6.9211 63.7929 30.0000
3.7569 0.0164 30.0000
4.3202 68.5939 30.0000
11.5042 3.7248 30.0000
-8.2003 80.9076 30.0000
-10.5734 61.4013 30.0000
-13.5308 42.6463 30.0000
0.9370 27.8097 30.0000
-6.8005 -5.6296 30.0000
-7.8135 56.9576 30.0000
-6.4381 2.9893 30.0000
-11.0156 50.6842 30.0000
-8.6810 1.8291 30.0000
9.0278 50.1886 30.0000
7.4233 42.6571 30.0000
-1.1128 66.4915 30.0000
-1.7566 65.7589 30.0000
1.1379 4.5578 30.0000
5.8457 77.4013 -30.0000
-11.5775 71.0829 -30.0000
1.6761 -9.5810 -30.0000
2.9363 40.4708 -30.0000
-7.7636 24.3002 -30.0000
9.1942 46.3443 -30.0000
-8.9269 -11.8571 -30.0000
-0.0552 31.2063 -30.0000
2.9131 80.3746 -30.0000
-3.2130 83.3295 -30.0000
-1.5481 6.6767 -30.0000
-9.7503 18.2210 -30.0000
11.4244 25.0121 -30.0000
-11.6286 43.1829 -30.0000
2.0979 71.5034 -30.0000
-3.9536 4.3369 -30.0000
8.3436 69.4302 -30.0000
-9.3939 59.9202 -30.0000
-1.4919 69.9189 -30.0000
-7.6838 40.5586 -30.0000
-14.5712 -11.3916 -30.0000
4.5008 23.9270 -30.0000
6.1992 16.4993 -30.0000
-12.7853 82.6035 -30.0000
2.6913 78.2921 -30.0000
13.3401 -5.9526 -30.0000
-6.2287 5.9124 -30.0000
-9.0612 15.5128 -30.0000
-1.2523 3.7181 -30.0000
2.1646 29.9227 -30.0000
11.3313 66.1966 -30.0000
1.9816 71.1763 -30.0000
0.8446 74.3251 -30.0000
2.6514 40.6787 -30.0000
-9.0768 64.2424 -30.0000
-5.9519 27.7122 -30.0000
-13.2814 8.5347 -30.0000
-3.3329 12.9107 -30.0000
-7.4282 -10.1680 -30.0000
-8.9612 66.6831 -30.0000
-3.0880 3.0473 -30.0000
-3.1359 58.7642 -30.0000
4.2386 74.7469 -30.0000
-11.9020 28.8829 -30.0000
14.5666 37.7013 -30.0000
-5.6351 26.3119 -30.0000
-10.1504 13.7467 -30.0000
-3.3927 -11.6267 -30.0000
-6.4901 51.3702 -30.0000
2.8307 17.7820 -30.0000
-12.0094 83.6739 -30.0000
-5.5673 40.2217 -30.0000
13.7665 41.2693 -30.0000
-6.9771 5.3304 -30.0000
-5.8654 61.4175 -30.0000
-1.8429 15.2119 -30.0000
-11.1185 5.5174 -30.0000
2.7686 2.5708 -30.0000
-2.5905 -5.3755 -30.0000
5.3587 -10.5370 -30.0000
-9.7670 43.9491 -30.0000
7.8232 -9.0268 -30.0000
4.3108 18.6319 -30.0000
-14.4802 -14.0414 -30.0000
3.8185 32.1725 -30.0000
-11.9387 18.1592 -30.0000
6.4920 74.0969 -30.0000
11.8750 17.7475 -30.0000
-2.4723 40.8352 -30.0000
13.3444 22.3178 -30.0000
-9.0374 36.8381 -30.0000
-12.7655 44.4910 -30.0000
-4.4925 7.5836 -30.0000
12.1486 33.6115 -30.0000
6.0410 83.2886 -30.0000
12.5467 83.4360 -30.0000
2.4050 40.3558 -30.0000
-3.9168 57.5319 -30.0000
-3.5566 66.0277 -30.0000
9.8556 7.2896 -30.0000
11.4405 15.2217 -30.0000
6.7717 45.4724 -30.0000
-6.9655 44.4545 -30.0000
0.4722 32.7910 -30.0000
12.6784 12.6559 -30.0000
