ply
format ascii 1.0
element vertex 1024
property float x
property float y
property float z
end_header
50.0000 2.7589 13.8160
50.0000 -8.3993 16.6306
50.0000 4.7468 -10.6528
50.0000 -3.5129 -15.0905
50.0000 -8.9706 -0.4030
50.0000 2.2418 -26.3921
50.0000 12.9047 26.9725
50.0000 6.0482 19.2662
50.0000 -11.1529 -17.5010
50.0000 8.4902 -17.1387
50.0000 2.3844 20.4257
50.0000 7.6855 -26.1567
50.0000 -10.9981 -15.9524
50.0000 -9.5124 14.3940
50.0000 1.7277 -24.2201
50.0000 0.4782 4.7974
50.0000 -8.3421 1.9625
50.0000 -0.4094 -9.6500
50.0000 -7.6329 8.8547
50.0000 -6.1772 18.7268
50.0000 -13.1524 13.4566
50.0000 -13.8039 -25.0514
50.0000 -8.8864 -4.6920
50.0000 -0.2179 28.6078
50.0000 12.5476 -2.5476
50.0000 11.2914 24.2791
50.0000 -3.8429 -14.1049
50.0000 -9.3429 -14.6208
50.0000 -10.2460 28.4284
50.0000 14.5363 26.4057
50.0000 12.9459 1.2821
50.0000 -12.1526 9.3651
50.0000 8.8318 -3.6049
50.0000 -6.3673 -15.5827
50.0000 4.4291 11.8493
50.0000 -0.2683 -14.6003
50.0000 -12.0097 14.7452
50.0000 -2.8856 -21.9903
50.0000 11.3372 -19.7346
50.0000 7.5844 18.1438
50.0000 -3.5234 -8.3791
50.0000 3.6905 -21.0799
50.0000 -9.2589 27.7754
50.0000 13.5052 -25.5367
50.0000 13.1673 25.7108
50.0000 14.9754 -12.3612
50.0000 6.8283 3.2883
50.0000 -6.9485 -19.9784
50.0000 6.1674 -13.8283
50.0000 -6.2370 -1.7644
50.0000 -0.8662 -0.2180
50.0000 5.4513 9.8921
50.0000 6.2665 25.2482
50.0000 11.9068 12.2702
50.0000 -5.4249 -8.8914
50.0000 -0.6096 -25.9745
50.0000 -6.4831 -6.7000
50.0000 6.1494 -16.7656
50.0000 0.5509 -29.3657
50.0000 -12.5575 15.4953
50.0000 4.5995 8.1098
50.0000 9.9367 28.4610
50.0000 -0.3318 17.0460
50.0000 -14.0287 18.6832
50.0000 -4.4732 -26.8646
50.0000 -9.7107 9.4795
50.0000 -12.5313 -29.2661
50.0000 6.0094 -26.1211
50.0000 3.6189 -3.8108
50.0000 -4.1585 -19.9585
50.0000 -10.1822 -3.9630
50.0000 -4.2527 -3.8584
50.0000 7.5818 2.3132
50.0000 12.1586 9.6127
50.0000 5.9972 -12.3310
50.0000 13.8169 -29.4607
50.0000 0.8163 22.6560
50.0000 5.2873 2.4038
50.0000 -14.1630 -3.7581
50.0000 -2.5606 17.3280
50.0000 -2.9011 -20.9723
50.0000 -9.0893 -14.6801
50.0000 4.7816 14.7356
50.0000 4.0269 -16.5889
50.0000 -12.7918 -10.6622
50.0000 4.0026 9.8510
-50.0000 -11.0737 -17.2296
-50.0000 1.4856 -19.7268
-50.0000 1.8261 1.6560
-50.0000 7.1686 14.0288
-50.0000 -12.5026 7.2285
-50.0000 -12.5053 4.6947
-50.0000 -1.8792 27.6637
-50.0000 -9.4901 -22.1590
-50.0000 -12.9390 15.3562
-50.0000 -3.5979 16.1508
-50.0000 -6.8971 16.3836
-50.0000 2.8951 7.7036
-50.0000 -7.8247 21.3188
-50.0000 4.7721 -22.7198
-50.0000 -8.9388 -22.1417
-50.0000 13.8377 -12.5437
-50.0000 1.5518 3.5801
-50.0000 9.7667 20.4945
-50.0000 11.2144 19.1127
-50.0000 -12.5003 5.0862
-50.0000 -0.3847 28.2785
-50.0000 -7.0387 -16.9036
-50.0000 13.1570 -21.8992
-50.0000 -10.2920 2.9057
-50.0000 0.5334 -26.0695
-50.0000 -14.4564 -13.8298
-50.0000 -12.4432 29.9386
-50.0000 6.6932 14.8836
-50.0000 -5.0589 -12.0309
-50.0000 11.8687 21.8886
-50.0000 -8.5822 -21.4822
-50.0000 -14.7761 18.5546
-50.0000 9.7012 26.9463
-50.0000 -12.9989 20.0835
-50.0000 9.2088 7.3078
-50.0000 -14.2552 -8.2796
-50.0000 -1.4858 -21.5698
-50.0000 -11.9179 3.3857
-50.0000 -0.8402 23.3249
-50.0000 6.2313 5.1271
-50.0000 0.7816 28.1712
-50.0000 -1.5820 5.6502
-50.0000 -3.4850 17.5709
-50.0000 13.9427 -21.4741
-50.0000 -1.5981 -17.8837
-50.0000 -5.5478 -6.5095
-50.0000 -1.0532 -13.4375
-50.0000 -2.1772 -17.3758
-50.0000 12.6458 -7.1309
-50.0000 3.2385 -3.8915
-50.0000 6.9920 -1.2897
-50.0000 -13.8249 -24.6173
-50.0000 -7.0802 -0.3465
-50.0000 -13.7758 -28.7694
-50.0000 12.5887 -8.8500
-50.0000 -11.0221 -16.4083
-50.0000 2.5766 26.1504
-50.0000 -7.8082 15.5392
-50.0000 2.8417 10.3301
-50.0000 -14.6383 -28.5434
-50.0000 1.8133 -23.9591
-50.0000 7.4669 4.1683
-50.0000 8.5743 29.6364
-50.0000 0.8608 -7.4509
-50.0000 -2.0343 21.8562
-50.0000 -14.8326 16.3665
-50.0000 8.3052 -27.4509
-50.0000 -6.8308 -5.5441
-50.0000 0.6561 11.8697
-50.0000 10.6945 -8.5230
-50.0000 8.8951 23.6186
-50.0000 -0.9976 23.9931
-50.0000 -8.4200 11.5556
-50.0000 9.8669 0.5746
-50.0000 -5.6708 12.8839
-50.0000 -6.2153 23.5910
-50.0000 11.2140 1.6766
-50.0000 3.9326 -4.5985
-50.0000 6.6452 -19.0373
-50.0000 6.6806 -0.4216
-50.0000 -12.3597 12.1161
-50.0000 2.0864 -8.4895
-50.0000 -2.9311 -22.6757
-50.0000 -4.9101 -0.8747
-50.0000 8.8971 -4.2486
-50.0000 13.5304 19.0502
-3.7491 15.0000 -10.1615
3.8032 15.0000 -1.5533
-19.8748 15.0000 24.7326
-37.0068 15.0000 -17.6344
8.0879 15.0000 16.0026
-44.5572 15.0000 13.3132
-32.7435 15.0000 -14.0972
42.5343 15.0000 6.5120
-17.9937 15.0000 -28.0424
-25.4428 15.0000 7.3886
23.6433 15.0000 28.1345
27.5335 15.0000 15.3972
24.6346 15.0000 26.9224
-40.3872 15.0000 22.4918
-11.1529 15.0000 -29.4526
20.8263 15.0000 22.5544
25.7123 15.0000 -6.5738
6.7722 15.0000 18.0897
26.1398 15.0000 -21.0007
-7.2606 15.0000 -24.3684
-9.7143 15.0000 -18.6670
42.3948 15.0000 -29.6024
49.5282 15.0000 -28.9908
7.4025 15.0000 13.4082
-10.2425 15.0000 6.6225
10.4186 15.0000 -6.6330
33.0866 15.0000 -22.0752
4.9247 15.0000 -22.4229
18.0612 15.0000 -2.3960
20.6490 15.0000 -0.4998
41.8826 15.0000 -17.8931
40.6798 15.0000 20.6466
-39.2226 15.0000 -14.6714
34.9018 15.0000 -19.5225
33.3531 15.0000 1.1664
22.3832 15.0000 6.0823
-16.0005 15.0000 29.1661
22.1134 15.0000 9.4004
-17.5064 15.0000 12.6453
-14.7560 15.0000 15.9053
-48.3365 15.0000 -27.5359
-34.5793 15.0000 -3.1462
-6.7513 15.0000 19.6512
-9.9711 15.0000 23.5587
-10.3879 15.0000 -1.1495
46.5615 15.0000 -27.4499
19.5636 15.0000 -10.9827
0.3123 15.0000 14.0759
15.4113 15.0000 -13.5709
24.6390 15.0000 -8.7415
14.6568 15.0000 20.2108
21.3892 15.0000 1.8986
37.5640 15.0000 -18.9144
-28.2483 15.0000 -2.1506
41.6857 15.0000 -1.8962
31.7114 15.0000 10.1008
-8.6867 15.0000 14.8536
36.3981 15.0000 -2.2903
26.7179 15.0000 -18.3026
30.1109 15.0000 -6.9561
18.9963 15.0000 -23.8287
36.8461 15.0000 26.2307
15.3576 15.0000 11.8211
34.5175 15.0000 -17.5395
12.5930 15.0000 14.0295
-25.4381 15.0000 -0.0832
13.8069 15.0000 13.6892
-48.9540 15.0000 8.4297
-34.5600 15.0000 16.7936
45.3398 15.0000 -6.7409
-28.1894 15.0000 -14.9540
7.4636 15.0000 17.6109
28.0664 15.0000 -21.1231
43.0132 15.0000 -7.9826
43.7703 15.0000 -25.0045
15.7326 15.0000 27.1615
3.6374 15.0000 13.0746
-3.3815 15.0000 -25.8007
-1.3065 15.0000 22.4049
9.9450 15.0000 -1.2711
-41.3143 15.0000 -25.1742
21.1394 15.0000 14.7829
-7.6231 15.0000 3.6300
45.9871 15.0000 19.0840
11.5233 15.0000 16.0467
10.5554 -15.0000 10.4590
10.0366 -15.0000 -18.4206
24.3607 -15.0000 -22.2670
30.3545 -15.0000 18.9762
-27.1664 -15.0000 29.7215
-40.0896 -15.0000 17.2498
-1.4745 -15.0000 4.2254
-46.9035 -15.0000 7.7009
-15.0019 -15.0000 -4.6268
12.7941 -15.0000 22.1615
31.1004 -15.0000 -18.2122
44.6878 -15.0000 18.5842
-21.4507 -15.0000 -9.6172
41.1232 -15.0000 -24.0890
-38.6622 -15.0000 -5.4531
-33.5433 -15.0000 19.8458
-13.3038 -15.0000 -10.2950
-3.6235 -15.0000 -2.6169
44.0690 -15.0000 18.7631
37.0131 -15.0000 5.7087
35.1402 -15.0000 -9.2091
-39.0177 -15.0000 12.8906
23.0405 -15.0000 -20.1062
30.4435 -15.0000 21.0323
-22.5173 -15.0000 -5.1687
41.6847 -15.0000 -6.9707
16.6649 -15.0000 2.7059
38.1740 -15.0000 6.0494
-2.4595 -15.0000 -12.1635
7.0608 -15.0000 -12.7925
38.1779 -15.0000 1.5252
13.1470 -15.0000 -10.6302
-17.2323 -15.0000 16.7329
-1.7454 -15.0000 -13.6720
10.8971 -15.0000 -28.5959
-45.7454 -15.0000 6.7117
31.3977 -15.0000 -4.6052
-27.0949 -15.0000 -13.7274
6.7064 -15.0000 29.2353
6.3323 -15.0000 14.8154
38.1683 -15.0000 -10.0597
-24.4851 -15.0000 3.1117
-41.2851 -15.0000 -4.4565
-16.5688 -15.0000 -12.8802
-14.8636 -15.0000 -11.3986
-14.8446 -15.0000 -24.2191
9.3318 -15.0000 10.4974
-19.6994 -15.0000 11.2879
38.6787 -15.0000 9.0121
20.2276 -15.0000 -10.9344
21.0897 -15.0000 10.4685
3.2222 -15.0000 4.7893
-26.4907 -15.0000 -12.0769
-44.4067 -15.0000 26.3095
10.1685 -15.0000 12.5670
7.2293 -15.0000 10.4384
31.3425 -15.0000 18.3977
25.9533 -15.0000 -25.5178
0.9854 -15.0000 10.4811
34.2656 -15.0000 26.7637
-33.7053 -15.0000 5.9607
-29.7686 -15.0000 -23.2091
45.0131 -15.0000 0.2702
20.8730 -15.0000 -7.2142
-48.2984 -15.0000 -8.1992
44.0324 -15.0000 27.7054
29.6630 -15.0000 5.2194
2.8276 -15.0000 -28.3706
26.9010 -15.0000 -19.4140
-14.6097 -15.0000 11.6658
42.2833 -15.0000 -17.6706
28.0114 -15.0000 -29.6728
24.7785 -15.0000 19.5235
-26.6147 -15.0000 22.5838
-11.5696 -15.0000 22.5140
-1.3496 -15.0000 26.2828
18.9385 -15.0000 22.2877
-36.5682 -15.0000 17.3903
39.0588 -15.0000 19.6565
-38.0183 -15.0000 -3.0110
-41.0033 -15.0000 24.9199
-21.5446 -15.0000 8.6569
29.0157 -15.0000 3.1687
-7.3192 -15.0000 -21.2058
3.8227 -15.0000 23.6419
3.7829 -7.6918 30.0000
-19.3670 3.4721 30.0000
-32.1656 4.7148 30.0000
-26.7179 1.0751 30.0000
30.8994 3.2111 30.0000
33.6156 -7.4258 30.0000
48.7094 -5.9511 30.0000
-49.9217 -13.6884 30.0000
9.5082 -8.0785 30.0000
3.0823 -13.4536 30.0000
39.2549 11.1356 30.0000
-29.3100 -2.1258 30.0000
-11.1012 13.2245 30.0000
-17.4249 0.6195 30.0000
-35.0920 -7.8463 30.0000
-31.9664 4.3595 30.0000
-35.5897 5.0047 30.0000
-41.6967 7.7775 30.0000
-0.3891 -4.1741 30.0000
-41.6932 -0.9880 30.0000
-43.4900 13.9209 30.0000
2.7339 -13.8300 30.0000
-17.2139 9.1997 30.0000
-41.5882 1.1289 30.0000
-29.2667 5.1306 30.0000
3.8664 -11.2404 30.0000
16.4972 -14.3974 30.0000
47.5001 -2.5036 30.0000
-18.3296 0.2068 30.0000
-19.2342 -2.3687 30.0000
-45.7684 -7.8032 30.0000
-11.6558 5.2959 30.0000
-21.7046 -0.6790 30.0000
-22.3398 -4.0330 30.0000
19.0695 14.6949 30.0000
41.2374 -12.2375 30.0000
0.2520 6.9269 30.0000
27.3293 -11.8773 30.0000
-25.5250 9.5814 30.0000
31.6859 11.2534 30.0000
-26.6771 -1.6486 30.0000
-39.4986 -9.6137 30.0000
-44.0409 14.6280 30.0000
1.6030 -8.3426 30.0000
-38.0348 9.8477 30.0000
-17.1422 0.9575 30.0000
9.9764 9.9100 30.0000
-40.6644 6.0556 30.0000
-47.0654 5.4576 30.0000
-1.4610 7.2477 30.0000
-25.3451 11.7207 30.0000
-13.1572 -13.7243 30.0000
-11.8078 -9.7124 30.0000
47.0031 -3.2082 30.0000
-14.2049 3.0423 30.0000
8.5790 -10.2390 30.0000
39.3460 14.2040 30.0000
19.5499 1.0678 30.0000
-17.9876 -7.9318 30.0000
-24.7151 -11.3783 30.0000
-25.6106 9.2972 30.0000
-47.6719 3.8303 30.0000
-43.3379 1.7723 30.0000
-2.1911 13.3995 30.0000
36.3249 0.6364 30.0000
18.6232 14.2145 30.0000
-0.3835 -13.4432 30.0000
-22.5526 12.8517 30.0000
9.6345 -0.8344 30.0000
17.5134 -11.0650 30.0000
47.0172 0.9941 30.0000
-2.6277 -6.2542 30.0000
-17.4284 2.3294 30.0000
-2.7746 9.6200 30.0000
-0.2088 9.7058 30.0000
-30.3721 -13.2445 30.0000
-39.3374 -0.7399 30.0000
-11.3830 -1.2660 30.0000
1.7312 -5.8550 30.0000
-0.2834 -10.9730 30.0000
-2.2437 -12.2131 30.0000
46.2474 4.7919 30.0000
2.8110 2.2425 30.0000
42.5202 9.8725 30.0000
-30.5198 5.6499 30.0000
2.6510 8.1735 -30.0000
0.7682 -3.6054 -30.0000
-5.9870 -11.8424 -30.0000
40.8658 8.5929 -30.0000
33.4669 -14.5996 -30.0000
-15.7078 14.7135 -30.0000
16.6943 10.3471 -30.0000
-12.3017 14.7165 -30.0000
-15.1533 -12.7878 -30.0000
-11.9750 2.7296 -30.0000
-43.8136 -4.0105 -30.0000
13.6027 -2.9819 -30.0000
-39.4023 11.3425 -30.0000
34.2447 -5.7141 -30.0000
12.0256 -14.3805 -30.0000
-39.7564 10.6103 -30.0000
-37.3876 0.1633 -30.0000
7.4063 -13.1161 -30.0000
31.9999 5.3256 -30.0000
36.4781 10.0845 -30.0000
27.7186 -10.6820 -30.0000
23.0042 -2.4411 -30.0000
-30.3889 -10.0497 -30.0000
12.9390 -3.9512 -30.0000
28.2647 -12.9038 -30.0000
22.2071 -12.4507 -30.0000
46.7376 -6.4361 -30.0000
10.7125 10.0073 -30.0000
39.3777 -6.6434 -30.0000
-27.1439 -11.6290 -30.0000
-37.0790 -5.8043 -30.0000
47.2625 11.1326 -30.0000
43.1851 -5.0733 -30.0000
-16.3105 10.8739 -30.0000
13.6168 10.6344 -30.0000
-28.2184 7.4817 -30.0000
-12.8883 -5.1402 -30.0000
20.5770 -10.0074 -30.0000
-30.9625 -12.3961 -30.0000
34.2124 1.5123 -30.0000
3.4571 1.2344 -30.0000
-21.9038 -10.8663 -30.0000
-25.3248 -11.5481 -30.0000
10.8835 -1.1695 -30.0000
-48.7895 14.8477 -30.0000
-16.2207 -6.6016 -30.0000
46.5579 -1.7950 -30.0000
40.8647 8.5485 -30.0000
12.3226 -10.7392 -30.0000
-37.3204 11.6602 -30.0000
25.3446 -8.9832 -30.0000
29.4140 -13.0172 -30.0000
3.6941 6.3811 -30.0000
-8.4079 14.7838 -30.0000
-15.2642 9.0956 -30.0000
48.6639 -11.8310 -30.0000
-28.7493 -2.5649 -30.0000
42.4776 5.3702 -30.0000
-39.8701 -14.3592 -30.0000
-46.4304 2.7800 -30.0000
34.6168 -1.6061 -30.0000
-26.7638 -10.1098 -30.0000
29.9125 3.0197 -30.0000
28.6188 -4.7172 -30.0000
20.3244 6.6424 -30.0000
9.9982 8.5096 -30.0000
-26.0223 14.9471 -30.0000
-4.3380 10.9624 -30.0000
39.3776 6.8153 -30.0000
33.6675 -10.0891 -30.0000
41.7181 -4.3924 -30.0000
-43.3985 9.6361 -30.0000
1.5567 -1.6701 -30.0000
-46.8296 13.5794 -30.0000
35.9734 -14.4802 -30.0000
-31.7196 3.0301 -30.0000
-12.2440 6.7428 -30.0000
26.2026 -12.3490 -30.0000
-42.5118 10.0207 -30.0000
-0.8891 3.4890 -30.0000
43.4107 -9.3246 -30.0000
-35.9526 -14.6269 -30.0000
-18.1953 -10.5380 -30.0000
15.6747 -13.6873 -30.0000
-39.4666 -0.9690 -30.0000
15.0000 57.8637 -18.8641
15.0000 79.3795 -6.4112
15.0000 23.7051 23.5276
15.0000 62.1551 -7.8365
15.0000 60.2590 -24.1805
15.0000 -4.6978 -28.6766
15.0000 47.6568 5.9336
15.0000 61.1798 -4.5959
15.0000 76.5800 10.0084
15.0000 84.9886 12.8299
15.0000 56.5260 -24.5216
15.0000 71.7999 -26.1956
15.0000 -9.1639 27.1585
15.0000 8.4637 -2.8607
15.0000 1.5426 -21.0390
15.0000 42.6458 -4.7337
15.0000 11.2218 10.4843
15.0000 23.2668 -9.8612
15.0000 2.9762 13.2899
15.0000 46.4005 24.4689
15.0000 3.4060 -9.5324
15.0000 65.4066 -1.1180
15.0000 40.6144 -16.0940
15.0000 67.6871 -22.4542
15.0000 0.8491 -1.4189
15.0000 25.1976 -8.4599
15.0000 7.3253 11.0311
15.0000 74.3684 15.6018
15.0000 37.6193 -12.6889
15.0000 -7.6699 1.7938
15.0000 13.0024 14.5384
15.0000 82.9361 -23.7670
15.0000 67.8826 -29.6560
15.0000 51.2288 18.8680
15.0000 31.6824 11.9985
15.0000 -7.3352 11.8489
15.0000 -8.0079 29.7498
15.0000 54.5647 11.4048
15.0000 -4.5359 -28.3670
15.0000 57.8227 6.2002
15.0000 -2.3479 -23.0431
15.0000 11.7834 -25.6193
15.0000 35.5660 0.6541
15.0000 35.6874 16.2838
15.0000 48.2449 8.0178
15.0000 56.3906 -19.0178
15.0000 -7.9122 -17.1376
15.0000 51.1156 20.0276
15.0000 -7.2949 25.6266
15.0000 19.3234 -5.7085
15.0000 57.0835 -18.7438
15.0000 82.5297 -3.4124
15.0000 77.4385 8.2473
15.0000 3.4392 -4.1161
15.0000 7.1114 13.7619
15.0000 67.4157 11.4476
15.0000 64.5654 24.6167
15.0000 3.3977 -14.1393
15.0000 14.5270 -28.4723
15.0000 16.2564 -29.5342
15.0000 64.4456 -14.7727
15.0000 42.6269 21.0720
15.0000 -3.8005 8.6697
15.0000 53.5920 5.6596
15.0000 -14.2387 -14.1833
15.0000 15.6875 -23.3729
15.0000 60.7368 22.6763
15.0000 37.7767 -22.9057
15.0000 -7.5520 -7.6930
15.0000 -8.5798 -11.1218
15.0000 46.0684 2.1778
15.0000 53.3501 -29.6377
15.0000 17.9659 -23.9898
15.0000 26.3681 2.6141
15.0000 -5.7013 -0.7099
15.0000 59.9786 -22.8487
15.0000 -12.6228 4.0907
15.0000 73.7054 -10.6474
15.0000 28.1309 28.5896
15.0000 50.8918 -2.8522
15.0000 15.4234 24.8646
15.0000 -4.3981 10.3165
15.0000 75.2643 -27.4237
15.0000 26.0603 -6.4276
15.0000 31.9375 -29.2680
15.0000 34.7001 -2.0021
-15.0000 0.5520 -28.4641
-15.0000 37.3161 13.6411
-15.0000 71.0297 -0.7863
-15.0000 34.1923 27.7577
-15.0000 19.8773 25.2882
-15.0000 -8.9860 19.4726
-15.0000 77.8752 8.7969
-15.0000 75.9397 -26.5676
-15.0000 24.6539 14.4380
-15.0000 41.9340 0.2280
-15.0000 58.0911 15.3788
-15.0000 9.1313 -16.0976
-15.0000 6.9546 -2.1173
-15.0000 78.3190 -27.8100
-15.0000 48.4442 3.1046
-15.0000 65.5786 -12.2672
-15.0000 -14.4638 -24.0103
-15.0000 -2.5792 -16.0010
-15.0000 82.3689 -4.6974
-15.0000 56.8476 23.4977
-15.0000 79.7106 -16.1593
-15.0000 39.1406 11.8653
-15.0000 52.9583 27.6349
-15.0000 -6.4298 28.2856
-15.0000 40.5416 29.5971
-15.0000 32.6641 -24.7858
-15.0000 4.8910 -9.3995
-15.0000 13.9207 -26.8564
-15.0000 16.9829 16.9306
-15.0000 19.5789 -23.8683
-15.0000 -0.6460 28.8569
-15.0000 -11.3724 -7.1881
-15.0000 16.5819 -28.7048
-15.0000 66.6589 -6.6891
-15.0000 2.0565 26.4411
-15.0000 80.8340 -3.0247
-15.0000 7.3999 -16.4208
-15.0000 27.5885 22.2599
-15.0000 4.0952 7.2678
-15.0000 81.9018 19.8861
-15.0000 -12.5832 11.9352
-15.0000 16.9467 24.1041
-15.0000 21.0513 -6.8869
-15.0000 35.2352 6.7978
-15.0000 -4.3878 3.2956
-15.0000 6.8500 24.5561
-15.0000 5.0227 -13.0983
-15.0000 -12.3945 -9.3722
-15.0000 49.8382 25.0518
-15.0000 65.0827 4.1251
-15.0000 29.1022 17.6449
-15.0000 55.4485 10.9563
-15.0000 64.8473 0.9030
-15.0000 70.1320 7.4639
-15.0000 59.5423 -20.7196
-15.0000 -6.2656 -9.6283
-15.0000 66.1366 -14.0586
-15.0000 60.4908 26.0284
-15.0000 -8.6084 -1.2641
-15.0000 -12.6558 3.0524
-15.0000 72.9839 -22.0241
-15.0000 2.7253 -8.0651
-15.0000 63.2800 26.2532
-15.0000 76.0571 -13.5145
-15.0000 19.2858 -10.3654
-15.0000 13.6773 28.4969
-15.0000 -9.2598 -19.5652
-15.0000 63.0320 -12.3582
-15.0000 77.1845 -20.4893
-15.0000 -3.9987 -22.7606
-15.0000 63.2352 -6.3445
-15.0000 29.7778 -28.8091
-15.0000 54.2633 -15.9456
-15.0000 -5.7985 -23.5513
-15.0000 34.2620 29.2570
-15.0000 73.0093 -18.5601
-15.0000 24.8266 22.2395
-15.0000 50.2396 2.1149
-15.0000 15.8915 7.0353
-15.0000 81.1394 5.0677
-15.0000 61.8695 -5.6755
-15.0000 62.6662 15.5696
-15.0000 31.9414 -27.7146
-15.0000 51.2029 22.4731
-15.0000 35.6763 25.4896
-15.0000 65.6712 19.3656
-3.3593 85.0000 14.4057
9.0787 85.0000 28.8484
11.3438 85.0000 28.7168
-13.4250 85.0000 -9.0140
-3.6099 85.0000 26.5590
-3.6794 85.0000 28.8743
-0.9975 85.0000 13.8859
-8.8033 85.0000 -29.1679
8.6211 85.0000 10.2359
2.2325 85.0000 17.4640
-11.6423 85.0000 2.7339
1.4570 85.0000 -22.2387
-5.4539 85.0000 -12.1825
4.5548 85.0000 -18.7147
14.3174 85.0000 12.2781
14.3401 85.0000 -14.0901
10.4120 85.0000 -29.5551
9.4943 85.0000 4.8837
-0.9955 85.0000 -18.4942
2.8982 85.0000 -19.3680
-9.5704 85.0000 6.3993
-12.3806 85.0000 3.6163
-2.6806 85.0000 -21.9537
-13.9266 85.0000 -26.5253
-6.3919 85.0000 27.8923
-11.5956 85.0000 21.2578
-0.8105 85.0000 -15.6479
-2.6853 85.0000 -20.1109
14.9833 85.0000 14.2724
-9.2994 85.0000 -9.2040
8.8327 85.0000 12.3644
-12.4574 85.0000 -18.3474
-13.0959 85.0000 20.1018
10.8545 85.0000 -24.4536
7.7767 85.0000 5.5844
12.6888 85.0000 -29.2630
-4.4074 85.0000 -13.7750
-4.7215 85.0000 5.2692
8.4291 85.0000 6.0290
-2.5926 85.0000 24.9374
4.0447 85.0000 14.4435
-0.6674 85.0000 28.9555
0.3824 85.0000 26.8470
1.7673 85.0000 -26.4748
-5.3525 85.0000 19.2950
7.0459 85.0000 28.5447
-6.6224 85.0000 -19.0518
-9.0919 85.0000 -3.8261
-6.3356 85.0000 17.5131
-5.8146 85.0000 -6.4614
-10.4248 85.0000 -2.4729
11.2747 85.0000 -20.9042
13.0259 85.0000 -19.9308
8.5894 85.0000 17.9739
-1.4807 85.0000 -29.2703
-8.2438 85.0000 1.4580
3.6785 85.0000 -21.8349
14.1343 85.0000 -13.5815
12.2858 85.0000 -3.2555
-11.3342 85.0000 16.7703
2.7450 85.0000 -6.7290
-6.1202 85.0000 -7.8657
13.0078 85.0000 4.5748
5.7991 85.0000 9.0611
-7.1420 85.0000 -0.9500
0.4748 85.0000 21.7236
-2.7472 85.0000 3.7077
-13.8842 85.0000 9.1467
5.1841 85.0000 9.4794
-0.2509 85.0000 -5.2700
-5.5387 85.0000 -15.4848
-14.0000 85.0000 -16.7114
3.0243 85.0000 -15.3392
-3.9797 85.0000 9.7414
-5.7652 85.0000 -24.2361
9.7607 85.0000 -7.2469
11.0409 85.0000 -27.7822
13.9137 85.0000 9.2272
14.8616 85.0000 -7.6391
13.4412 85.0000 23.3917
-10.0434 85.0000 0.3049
-11.5736 85.0000 11.4787
-3.9304 85.0000 -12.4930
-5.2969 85.0000 -21.6041
6.4221 85.0000 -23.1011
-5.8450 -15.0000 26.7219
6.6715 -15.0000 3.2279
-11.0121 -15.0000 -24.1910
2.4584 -15.0000 6.3463
14.2380 -15.0000 26.5740
3.3821 -15.0000 -11.2187
10.4051 -15.0000 24.5172
-5.9444 -15.0000 26.8807
9.6289 -15.0000 -29.4724
2.5359 -15.0000 -28.8227
-4.0388 -15.0000 -4.9361
-10.0382 -15.0000 0.4191
11.0239 -15.0000 6.8118
2.0723 -15.0000 22.5397
8.2692 -15.0000 2.5070
-5.1949 -15.0000 4.6338
-11.7672 -15.0000 -3.6416
-4.2363 -15.0000 -1.7829
12.5355 -15.0000 15.5333
-9.2999 -15.0000 -29.1132
10.0855 -15.0000 5.7019
1.1948 -15.0000 -16.4417
3.6113 -15.0000 3.6481
8.2949 -15.0000 -0.8427
0.2962 -15.0000 15.8195
-13.9640 -15.0000 -1.6699
5.7913 -15.0000 29.9613
-8.1080 -15.0000 26.3535
-0.7738 -15.0000 -7.7518
-1.8843 -15.0000 -6.8266
7.3679 -15.0000 -9.0080
0.7285 -15.0000 -29.5388
-10.2996 -15.0000 13.2393
-9.1828 -15.0000 -22.7660
3.0851 -15.0000 -15.4117
-13.6948 -15.0000 -23.1726
-10.2116 -15.0000 -22.5334
-13.0725 -15.0000 15.9864
8.1107 -15.0000 -23.5418
10.2507 -15.0000 21.2305
-5.7071 -15.0000 16.7404
7.5095 -15.0000 -19.2931
6.3659 -15.0000 -28.1402
13.7321 -15.0000 2.6304
9.8359 -15.0000 -11.9654
-11.1870 -15.0000 -9.1936
14.9190 -15.0000 11.9718
-8.5797 -15.0000 14.1039
8.5557 -15.0000 -19.5257
2.3059 -15.0000 -18.7268
-10.5952 -15.0000 16.3871
8.6969 -15.0000 -26.5340
13.7253 -15.0000 18.8939
11.2219 -15.0000 3.5534
0.6097 -15.0000 -8.2250
-12.0506 -15.0000 8.4821
-8.8064 -15.0000 -25.0157
-1.6156 -15.0000 8.3369
-11.2399 -15.0000 18.6291
-7.2067 -15.0000 -4.6502
11.5529 -15.0000 -14.2200
6.3505 -15.0000 -25.2066
-2.6120 -15.0000 -3.7470
-8.1711 -15.0000 1.4694
-14.1897 -15.0000 -17.8649
-14.8747 -15.0000 26.2996
8.8890 -15.0000 -4.0663
-8.2707 -15.0000 18.8183
-9.0766 -15.0000 7.9933
-6.5024 -15.0000 -13.4115
-11.5652 -15.0000 -10.3352
9.0244 -15.0000 -20.2648
8.2397 -15.0000 22.7480
-0.0345 -15.0000 0.0857
-14.5317 -15.0000 -3.4504
-12.2759 -15.0000 17.2828
14.3303 -15.0000 -16.0950
11.1876 -15.0000 -10.0715
-6.7199 -15.0000 -4.0633
-11.1016 -15.0000 -1.5120
5.0600 -15.0000 8.7429
2.4157 -15.0000 -20.2326
3.5687 -15.0000 13.6376
14.5694 -15.0000 -29.3815
-7.3690 -15.0000 16.0191
-3.7799 12.8137 30.0000
-1.0101 80.5679 30.0000
-3.6447 28.2413 30.0000
13.7844 34.5200 30.0000
-12.6086 39.0364 30.0000
12.2750 42.3752 30.0000
-11.4679 43.2277 30.0000
-14.8801 17.7987 30.0000
-7.3134 66.7687 30.0000
-0.8375 84.1386 30.0000
13.7921 76.0184 30.0000
0.4709 71.3189 30.0000
-3.3177 -5.7314 30.0000
-13.8296 63.2193 30.0000
-4.2236 33.5326 30.0000
2.8062 52.0029 30.0000
1.7714 34.7102 30.0000
-12.2441 23.1323 30.0000
-14.9917 39.1774 30.0000
-7.0947 57.7212 30.0000
3.4945 48.4349 30.0000
13.6701 56.7296 30.0000
-13.0449 13.9837 30.0000
13.1502 36.6736 30.0000
-9.9893 10.7769 30.0000
-9.2074 11.7818 30.0000
1.1254 70.1360 30.0000
-2.2505 31.3780 30.0000
-11.5842 75.8737 30.0000
14.8126 75.2698 30.0000
-8.1737 -1.1212 30.0000
-12.7132 6.1126 30.0000
-6.0830 -14.9922 30.0000
10.4083 35.5578 30.0000
2.1857 57.2600 30.0000
5.2346 80.5567 30.0000
5.5801 -5.9021 30.0000
6.7092 6.1414 30.0000
-0.0814 57.7358 30.0000
4.4317 78.2622 30.0000
14.5760 60.2132 30.0000
13.0996 49.7122 30.0000
-3.3061 58.5617 30.0000
7.8798 61.1740 30.0000
3.8258 28.9071 30.0000
0.3834 50.6740 30.0000
-1.8832 -13.8563 30.0000
-14.7507 82.5542 30.0000
8.1212 -4.0570 30.0000
-3.3322 3.2267 30.0000
-6.1005 61.2125 30.0000
-0.4212 53.2604 30.0000
-12.5421 57.4543 30.0000
-9.4468 -0.6693 30.0000
4.4854 -1.1130 30.0000
2.6539 -10.0696 30.0000
-14.0708 43.7100 30.0000
-4.2889 20.8735 30.0000
-2.5508 -4.7621 30.0000
-14.4448 45.3156 30.0000
-2.3603 74.0592 30.0000
-2.9084 73.7700 30.0000
-11.4248 61.6608 30.0000
-4.7302 9.0084 30.0000
14.2863 32.7408 30.0000
2.4404 -6.8635 30.0000
14.1459 36.6991 30.0000
-13.1168 41.5166 30.0000
-3.2043 59.7718 30.0000
-2.6696 -11.3444 30.0000
-14.9178 29.1681 30.0000
-6.4156 49.3111 30.0000
-1.2150 22.2647 30.0000
14.4307 37.3333 30.0000
-12.5246 78.5030 30.0000
1.8701 31.4221 30.0000
-14.8931 12.5692 30.0000
-4.6163 7.3375 30.0000
-0.4217 7.5551 30.0000
9.9248 77.6551 30.0000
12.3127 82.7556 30.0000
1.4509 3.4023 30.0000
-7.8879 30.0517 30.0000
-7.0095 78.4287 30.0000
-9.1602 72.5087 30.0000
-0.0934 -7.1730 -30.0000
12.3347 2.9289 -30.0000
-11.5263 10.5205 -30.0000
-10.0543 33.4922 -30.0000
-1.7826 -12.8648 -30.0000
12.7165 60.1291 -30.0000
2.7321 27.7494 -30.0000
1.6489 9.5146 -30.0000
-9.9701 27.8007 -30.0000
10.6352 53.7614 -30.0000
2.9020 28.2735 -30.0000
13.8027 -13.7554 -30.0000
4.4151 19.5101 -30.0000
-3.6420 -2.8301 -30.0000
-11.7223 78.7851 -30.0000
-11.8862 65.7390 -30.0000
-1.7579 16.8391 -30.0000
-0.5614 47.8027 -30.0000
-5.4599 29.5339 -30.0000
-10.4676 78.3894 -30.0000
-7.6988 57.2211 -30.0000
-13.0071 52.0214 -30.0000
-8.4847 52.2678 -30.0000
1.9371 0.4617 -30.0000
8.3177 51.1291 -30.0000
3.9134 -5.2478 -30.0000
-10.0255 34.8219 -30.0000
-6.6004 16.0130 -30.0000
-2.6185 15.1026 -30.0000
7.6539 63.0175 -30.0000
-8.4321 79.9314 -30.0000
-9.1222 44.9755 -30.0000
1.9122 41.8475 -30.0000
-5.7586 21.4202 -30.0000
7.0566 66.2867 -30.0000
5.9336 23.1558 -30.0000
4.4643 31.7384 -30.0000
-6.6232 58.8345 -30.0000
-10.8036 -4.2144 -30.0000
7.6211 6.7167 -30.0000
-0.7006 -11.7972 -30.0000
-11.8891 44.2523 -30.0000
-3.7739 17.4685 -30.0000
5.9195 41.8253 -30.0000
14.4038 36.3885 -30.0000
-10.9305 38.4813 -30.0000
-10.1032 -5.2573 -30.0000
-11.3482 50.1413 -30.0000
12.0447 73.0329 -30.0000
-11.5888 9.7411 -30.0000
6.1816 82.8374 -30.0000
4.4336 44.0029 -30.0000
-8.1806 45.2585 -30.0000
6.0341 19.9886 -30.0000
7.2420 49.3563 -30.0000
14.1872 -12.7051 -30.0000
-6.2395 80.3673 -30.0000
8.9712 -3.4514 -30.0000
-12.2185 80.5205 -30.0000
-12.1030 50.8436 -30.0000
11.5145 73.9164 -30.0000
0.7828 47.9421 -30.0000
8.7278 -10.0943 -30.0000
9.0482 31.4428 -30.0000
6.2543 83.6825 -30.0000
-8.6511 -7.5226 -30.0000
-7.6502 76.0939 -30.0000
-10.5858 71.4625 -30.0000
4.1674 35.9716 -30.0000
-9.0706 -10.6482 -30.0000
4.3912 47.6938 -30.0000
5.7549 38.5026 -30.0000
5.0101 66.1792 -30.0000
-12.8697 28.3149 -30.0000
-1.5080 57.9092 -30.0000
-10.8832 32.3279 -30.0000
11.3812 3.9794 -30.0000
9.3503 59.5022 -30.0000
3.1415 40.8589 -30.0000
-1.5734 61.5665 -30.0000
11.2980 56.9881 -30.0000
-4.1642 65.5224 -30.0000
7.0363 31.7706 -30.0000
-8.9969 -0.3752 -30.0000
-12.4418 42.2325 -30.0000
