ply
format ascii 1.0
element vertex 1024
property float x
property float y
property float z
end_header
50.0000 2.5856 -33.7772
50.0000 -10.2760 -37.2578
50.0000 -8.8901 8.4383
50.0000 6.7471 38.0935
50.0000 -0.8951 23.8284
50.0000 -1.0447 20.9138
50.0000 -4.2275 -18.1962
50.0000 12.5442 23.5138
50.0000 14.9208 6.9737
50.0000 5.4015 13.9624
50.0000 -12.2796 13.4844
50.0000 -9.7492 7.2925
50.0000 -2.9321 -24.3570
50.0000 0.6352 -31.7150
50.0000 10.9730 -26.2969
50.0000 9.5675 28.1712
50.0000 6.2614 38.4415
50.0000 -12.3362 -14.1769
50.0000 6.5243 -10.8372
50.0000 2.1247 4.3444
50.0000 -1.8459 -21.1990
50.0000 -8.7225 0.7461
50.0000 -1.5378 28.2662
50.0000 -4.9205 -34.0776
50.0000 -6.6495 9.9371
50.0000 -11.2465 -6.3741
50.0000 5.3450 -20.0984
50.0000 -14.4451 36.2290
50.0000 11.0358 14.8316
50.0000 -12.9627 -28.1844
50.0000 -0.7368 39.5657
50.0000 9.1936 -23.1176
50.0000 -2.5922 -19.1004
50.0000 4.0346 13.8396
50.0000 11.2406 -4.1129
50.0000 -10.3363 -26.6439
50.0000 -6.2422 2.9152
50.0000 9.1501 37.4162
50.0000 -6.1092 -16.6233
50.0000 3.4089 -6.4549
50.0000 -0.9004 17.9499
50.0000 7.5216 -37.5038
50.0000 3.6436 38.7095
50.0000 -6.3087 -7.2923
50.0000 -12.2057 27.2617
50.0000 -11.8465 21.7684
50.0000 0.2574 -34.3580
50.0000 13.3389 33.1366
50.0000 6.6782 21.5150
50.0000 -8.0483 36.5740
50.0000 7.4110 39.9183
50.0000 5.9169 31.7634
50.0000 10.2405 -32.0877
50.0000 5.1442 16.1794
50.0000 13.8146 -36.2606
50.0000 3.4449 20.7249
50.0000 -13.9817 -4.2579
50.0000 7.6879 13.7184
50.0000 -4.3205 18.7732
50.0000 -13.1342 -29.9740
50.0000 13.0737 -24.4678
50.0000 -12.0432 -17.9256
50.0000 14.4369 -21.2920
50.0000 -4.1090 28.8346
50.0000 12.0088 -0.5824
50.0000 -11.3708 4.4761
50.0000 6.2097 -25.8504
50.0000 3.7112 -31.8159
50.0000 1.4398 36.9146
50.0000 2.7594 -34.3535
50.0000 2.9258 23.0677
50.0000 13.9755 -37.1692
50.0000 7.2068 7.2130
50.0000 12.9564 -1.7976
50.0000 -3.3966 7.8586
50.0000 -6.6027 -3.1316
50.0000 6.1458 21.9339
50.0000 -10.7549 4.2976
50.0000 12.6881 21.6538
50.0000 -4.8468 -19.8006
50.0000 11.1245 20.4410
50.0000 -3.3390 34.1618
50.0000 -3.0185 5.9638
50.0000 3.2670 29.4900
50.0000 -10.4041 9.9840
50.0000 -10.5094 13.3830
-50.0000 9.1363 -7.8794
-50.0000 8.3055 -1.4372
-50.0000 -9.4642 -34.5066
-50.0000 10.4424 16.8119
-50.0000 -13.3583 -25.3902
-50.0000 13.6976 -2.2185
-50.0000 13.9635 13.7759
-50.0000 8.2297 17.4815
-50.0000 11.3296 -23.3112
-50.0000 12.5733 -8.1827
-50.0000 8.7941 -21.7255
-50.0000 3.7168 -3.5124
-50.0000 -8.3639 -34.9764
-50.0000 8.9687 -30.4670
-50.0000 11.8054 14.8190
-50.0000 -11.7427 24.8365
-50.0000 -3.6510 12.2861
-50.0000 -6.2231 -24.3138
-50.0000 -4.9998 28.8587
-50.0000 -0.7321 18.6409
-50.0000 6.8506 -28.3207
-50.0000 6.9311 -19.5258
-50.0000 -2.7539 7.0639
-50.0000 5.3670 24.8946
-50.0000 -12.0757 -15.5567
-50.0000 11.2568 3.2492
-50.0000 9.5312 -11.5317
-50.0000 7.4615 -4.2158
-50.0000 -0.7787 -3.8691
-50.0000 11.9311 9.2259
-50.0000 0.8402 15.3100
-50.0000 6.6939 -8.0469
-50.0000 -5.4801 16.3283
-50.0000 -14.8847 -9.5211
-50.0000 9.5162 -12.0281
-50.0000 14.3813 -21.7679
-50.0000 12.9695 20.9063
-50.0000 -11.4628 28.1579
-50.0000 8.6424 -38.5879
-50.0000 0.3591 32.5010
-50.0000 -6.5409 -36.6012
-50.0000 -12.0924 -17.2544
-50.0000 13.9947 -23.0119
-50.0000 1.9805 14.0545
-50.0000 -3.9445 -12.1609
-50.0000 14.0824 33.3633
-50.0000 -10.2883 -37.3914
-50.0000 6.0426 -38.8674
-50.0000 -10.3590 4.9881
-50.0000 1.7283 19.8668
-50.0000 6.8578 -6.7150
-50.0000 -11.3535 -2.5901
-50.0000 2.4814 -23.9279
-50.0000 13.5434 30.4984
-50.0000 -12.1724 33.6281
-50.0000 14.6387 -26.0943
-50.0000 -13.8837 16.3486
-50.0000 1.5887 -23.5437
-50.0000 -2.2347 15.7997
-50.0000 0.6178 21.4311
-50.0000 2.0134 7.8590
-50.0000 -13.2089 33.5886
-50.0000 13.4295 -28.7478
-50.0000 -10.2308 -10.2075
-50.0000 7.8746 -35.4031
-50.0000 -11.2459 3.0968
-50.0000 6.8236 26.9166
-50.0000 6.7139 33.7544
-50.0000 12.4872 10.5690
-50.0000 -1.9390 32.6640
-50.0000 -10.7408 -35.0372
-50.0000 10.0600 -25.4178
-50.0000 12.9232 -9.7618
-50.0000 -7.8049 25.8008
-50.0000 4.2547 37.0686
-50.0000 2.9177 -29.5845
-50.0000 -7.3581 24.4143
-50.0000 -7.9539 23.1083
-50.0000 -12.8647 -28.1585
-50.0000 5.9654 -11.3744
-50.0000 -6.8208 -26.5196
-50.0000 2.1190 -29.2108
-50.0000 3.1975 33.0936
-50.0000 -8.9002 -5.0081
-50.0000 13.6991 -38.8202
-50.0000 10.6517 29.5362
20.4337 15.0000 -25.5359
-14.4050 15.0000 0.2207
28.9176 15.0000 12.6372
19.8075 15.0000 26.7767
30.7647 15.0000 -23.9617
-19.4435 15.0000 -22.9503
5.1074 15.0000 36.7278
-4.2205 15.0000 -6.3869
-12.8747 15.0000 -29.8574
-17.4244 15.0000 -29.3317
3.3405 15.0000 30.4719
-22.2469 15.0000 -3.7891
-38.4166 15.0000 0.6723
34.0061 15.0000 -18.8446
-1.7651 15.0000 -6.9910
-46.0983 15.0000 -11.0818
-41.2747 15.0000 28.3912
-41.9738 15.0000 3.4632
12.0180 15.0000 7.2132
-17.1003 15.0000 34.8582
19.4186 15.0000 -33.0185
34.4127 15.0000 37.7929
30.3402 15.0000 28.4907
-2.6127 15.0000 -39.3446
-10.2063 15.0000 16.0905
13.6876 15.0000 7.9386
-39.5759 15.0000 11.5986
-2.5602 15.0000 -32.0793
-33.0906 15.0000 23.3967
-49.6620 15.0000 26.3452
-33.9393 15.0000 -4.0925
40.1285 15.0000 13.9883
-34.6230 15.0000 -39.6569
14.9533 15.0000 35.7587
19.7937 15.0000 -29.4474
46.4231 15.0000 12.6575
-8.4621 15.0000 4.8040
-15.3882 15.0000 8.7219
49.9780 15.0000 27.2811
-43.9753 15.0000 32.8571
3.2206 15.0000 4.9237
-19.2766 15.0000 10.8290
-48.3826 15.0000 -8.4180
13.9328 15.0000 28.0329
19.6447 15.0000 14.7091
-35.1471 15.0000 3.6050
-17.7883 15.0000 35.4768
-39.3600 15.0000 -27.5970
24.4040 15.0000 -19.6411
1.2935 15.0000 -22.1601
21.1147 15.0000 -18.9577
20.7938 15.0000 13.8446
15.1543 15.0000 29.9923
-36.3769 15.0000 -33.8316
2.6903 15.0000 1.3324
-17.5173 15.0000 20.4829
25.2353 15.0000 -33.2841
-8.2573 15.0000 -22.9223
5.6448 15.0000 -21.3110
-41.4032 15.0000 10.3407
4.7075 15.0000 -30.4924
-13.1496 15.0000 12.2828
40.2037 15.0000 16.3651
-6.8838 15.0000 18.4487
7.7657 15.0000 -2.7390
36.9359 15.0000 -9.6045
-42.6088 15.0000 -35.5040
-32.9566 15.0000 36.4339
39.3072 15.0000 -18.5660
19.2643 15.0000 39.0824
-11.4692 15.0000 2.2266
-37.8520 15.0000 22.9266
24.5169 15.0000 38.8242
-27.7527 15.0000 20.2275
15.4010 15.0000 33.7801
7.0697 15.0000 -14.2739
38.4095 15.0000 1.9202
44.4525 15.0000 -26.7354
-31.4642 15.0000 25.6623
-13.3917 15.0000 33.3568
-23.0672 15.0000 8.8371
5.8182 15.0000 2.7678
41.5010 15.0000 -16.7502
15.1731 15.0000 15.4557
-9.6459 15.0000 33.2526
20.2611 -15.0000 30.2438
-18.8422 -15.0000 -12.8159
30.9934 -15.0000 27.9748
24.6716 -15.0000 5.4804
39.6718 -15.0000 25.1208
-49.0665 -15.0000 -27.6586
-25.4936 -15.0000 14.1768
-26.7096 -15.0000 22.3327
-47.1326 -15.0000 1.6396
30.1579 -15.0000 -26.4083
-10.3235 -15.0000 -2.6945
35.3651 -15.0000 -32.0392
19.7023 -15.0000 -2.1639
1.0283 -15.0000 -38.6133
-3.4210 -15.0000 -23.0376
-43.8261 -15.0000 22.2940
-1.3256 -15.0000 34.6524
-2.6453 -15.0000 6.4279
-28.5556 -15.0000 5.1073
-49.3362 -15.0000 -12.1608
32.5454 -15.0000 -0.3630
34.8834 -15.0000 -16.1208
-49.4605 -15.0000 -11.7059
27.7200 -15.0000 38.7997
-34.6371 -15.0000 -1.3234
16.3906 -15.0000 17.1310
12.3391 -15.0000 10.5360
-15.2123 -15.0000 -4.7278
45.6765 -15.0000 -16.4029
47.9143 -15.0000 28.9984
45.0114 -15.0000 8.9931
23.3574 -15.0000 31.4421
-6.2543 -15.0000 18.1430
-12.1325 -15.0000 -9.3908
38.9149 -15.0000 -9.6343
8.7311 -15.0000 -36.3335
17.5166 -15.0000 23.9769
-33.1143 -15.0000 23.5811
-11.5202 -15.0000 -27.2158
-3.6596 -15.0000 -38.4196
-21.2340 -15.0000 8.5765
-44.4827 -15.0000 -1.0453
16.9981 -15.0000 -18.5418
-16.3956 -15.0000 -15.7443
31.8588 -15.0000 -9.5260
25.5342 -15.0000 29.5656
-19.1540 -15.0000 2.0271
-0.4251 -15.0000 -3.7139
-6.1219 -15.0000 15.8321
-24.3935 -15.0000 -31.9742
25.7624 -15.0000 -39.6949
-27.2967 -15.0000 -39.5392
7.9164 -15.0000 -2.0980
41.8327 -15.0000 -10.7427
-6.8764 -15.0000 5.3287
39.0148 -15.0000 -19.1550
45.7918 -15.0000 -24.1978
47.3235 -15.0000 -13.9062
31.2588 -15.0000 18.3725
2.4802 -15.0000 35.5250
35.0844 -15.0000 26.0901
-27.1529 -15.0000 35.5506
-6.9478 -15.0000 -10.4637
-25.1436 -15.0000 0.9602
-39.4662 -15.0000 -14.9537
10.4141 -15.0000 20.1902
-15.6359 -15.0000 19.0462
-24.4963 -15.0000 16.7441
36.5063 -15.0000 38.5273
-43.4239 -15.0000 20.9492
16.5553 -15.0000 -32.3718
-16.9450 -15.0000 -11.9063
-33.4730 -15.0000 34.1671
2.8096 -15.0000 -37.1111
25.2597 -15.0000 -35.8864
-1.3451 -15.0000 -35.1941
-24.7140 -15.0000 38.5207
-11.1971 -15.0000 29.6052
25.5541 -15.0000 -11.1854
-13.4582 -15.0000 0.4259
-16.9721 -15.0000 -21.9859
-5.5887 -15.0000 -36.3788
-42.5775 -15.0000 23.2981
27.3519 -15.0000 25.4156
22.5462 -15.0000 30.6098
18.0223 -12.2700 40.0000
24.7522 -6.2356 40.0000
26.1610 -11.7135 40.0000
-44.7054 1.0557 40.0000
-37.1374 -14.9315 40.0000
18.0516 10.4037 40.0000
-29.1950 -8.4895 40.0000
40.1856 9.6684 40.0000
-11.8577 4.4147 40.0000
-8.9912 7.3641 40.0000
-2.7395 0.6254 40.0000
8.2645 11.7231 40.0000
43.1047 3.6210 40.0000
-44.1733 -10.3536 40.0000
10.9217 -8.8554 40.0000
26.1455 -2.9787 40.0000
6.7454 9.6472 40.0000
7.6536 -9.3226 40.0000
44.9969 10.6976 40.0000
-10.0902 13.7286 40.0000
22.8057 3.9732 40.0000
10.7858 6.5088 40.0000
28.0025 13.9390 40.0000
-10.5689 -14.9389 40.0000
-37.2145 0.1663 40.0000
18.5722 12.7432 40.0000
-22.2779 6.8002 40.0000
-17.6586 5.9470 40.0000
-44.4679 -3.3659 40.0000
-42.4814 -9.4276 40.0000
12.4906 -13.7678 40.0000
32.7328 10.3936 40.0000
15.0914 7.7822 40.0000
46.6931 -1.4663 40.0000
35.0653 -4.7778 40.0000
9.0187 -11.1193 40.0000
18.1423 5.3314 40.0000
-36.3448 14.0129 40.0000
1.8628 3.1638 40.0000
9.3464 10.8326 40.0000
12.6379 -5.9039 40.0000
27.6366 14.8399 40.0000
-34.8830 8.7530 40.0000
11.7926 6.0694 40.0000
35.4253 3.2231 40.0000
38.2996 0.1112 40.0000
-34.3971 13.4338 40.0000
39.2375 0.2092 40.0000
23.3846 12.0630 40.0000
48.7887 -5.7865 40.0000
-5.4206 11.6792 40.0000
-11.1932 6.0437 40.0000
-13.7376 10.0441 40.0000
-39.4135 12.7061 40.0000
28.4895 5.3041 40.0000
-1.8645 2.4780 40.0000
42.3930 11.6578 40.0000
-0.0644 7.9781 40.0000
45.9273 8.4180 40.0000
-20.4583 -13.8286 40.0000
37.3103 -8.7411 40.0000
48.6925 -0.7837 40.0000
-42.7831 -5.8934 40.0000
10.0064 -12.3280 40.0000
5.9589 8.5881 40.0000
-7.3885 7.0052 40.0000
33.7405 7.7418 40.0000
0.7165 1.9723 40.0000
32.7669 0.4223 40.0000
-11.1175 4.1152 40.0000
-23.4239 -8.5001 40.0000
-46.0074 9.8168 40.0000
18.6528 2.0176 40.0000
-46.9833 -1.4023 40.0000
1.4099 -0.4191 40.0000
-25.6031 8.2162 40.0000
-49.4776 -9.4681 40.0000
-4.3948 -13.0044 40.0000
30.9392 4.4636 40.0000
27.8930 -13.9334 40.0000
-8.5459 -3.9230 40.0000
-44.8329 10.7644 40.0000
29.5394 0.5566 40.0000
-42.0928 3.5815 40.0000
1.6204 2.4102 40.0000
-37.9391 14.9110 -40.0000
-34.7119 14.1921 -40.0000
22.4426 -14.2243 -40.0000
15.6910 2.5754 -40.0000
-22.5492 2.2347 -40.0000
-39.8180 12.0334 -40.0000
-37.3861 -11.7076 -40.0000
-23.8583 -5.7766 -40.0000
23.4808 -7.0137 -40.0000
31.4476 10.7534 -40.0000
42.1616 8.5281 -40.0000
-48.7160 12.2623 -40.0000
-17.5591 -1.6682 -40.0000
-9.3078 13.0219 -40.0000
-16.8363 8.6018 -40.0000
9.3400 -0.3417 -40.0000
-14.1471 -8.2961 -40.0000
11.1934 -13.2709 -40.0000
14.4351 -14.3734 -40.0000
-25.2304 -8.1205 -40.0000
-0.4850 -4.7015 -40.0000
-12.8315 0.8094 -40.0000
-20.5058 -12.6783 -40.0000
46.1875 1.8036 -40.0000
45.4275 4.2579 -40.0000
-22.5898 -13.0823 -40.0000
-41.7938 -11.1521 -40.0000
1.9463 3.8494 -40.0000
35.7358 -12.4070 -40.0000
-33.9536 -6.0617 -40.0000
-10.2687 -11.5833 -40.0000
49.7358 12.7814 -40.0000
-12.7254 -1.4086 -40.0000
11.4929 1.8264 -40.0000
-23.1421 -5.0033 -40.0000
40.3182 -4.1665 -40.0000
-30.1034 -1.6602 -40.0000
17.4733 3.9595 -40.0000
46.9658 7.2494 -40.0000
-7.9031 13.4540 -40.0000
19.2082 11.5842 -40.0000
7.3200 -1.4744 -40.0000
12.7724 11.5679 -40.0000
49.8283 10.2332 -40.0000
-30.6106 5.8772 -40.0000
-40.0656 -12.4736 -40.0000
-35.4078 8.4364 -40.0000
18.3856 -12.9319 -40.0000
40.0297 3.3646 -40.0000
-4.7941 -4.2521 -40.0000
-42.8872 -12.4204 -40.0000
-14.5674 -7.4259 -40.0000
38.8482 7.2106 -40.0000
-7.2277 -11.3995 -40.0000
-19.7994 -8.3243 -40.0000
44.8335 9.2063 -40.0000
35.9353 -0.9651 -40.0000
-10.9323 -8.3619 -40.0000
6.3436 4.4907 -40.0000
37.8527 -13.6776 -40.0000
-23.6124 0.3262 -40.0000
12.3763 -13.4532 -40.0000
-31.1476 -5.6806 -40.0000
-4.2301 -2.8410 -40.0000
48.8886 3.8716 -40.0000
-27.0030 7.1360 -40.0000
12.8384 -0.5473 -40.0000
-14.4161 2.4235 -40.0000
-30.2267 13.9432 -40.0000
7.5281 -7.2324 -40.0000
22.6083 11.7478 -40.0000
-7.5436 6.5851 -40.0000
2.9272 9.8790 -40.0000
-23.4438 -3.1222 -40.0000
9.7204 -5.4035 -40.0000
-19.0820 -8.5964 -40.0000
41.6210 -3.6875 -40.0000
-24.0051 6.2439 -40.0000
-33.6552 3.3557 -40.0000
17.1431 -9.8823 -40.0000
48.9067 -12.5127 -40.0000
-26.6040 13.2552 -40.0000
39.7600 14.0660 -40.0000
-16.0771 -9.1167 -40.0000
-29.0499 3.8213 -40.0000
50.0000 -75.5984 10.0574
50.0000 -77.8177 -26.7712
50.0000 -79.7439 -37.8420
50.0000 -33.8040 -13.9353
50.0000 6.5611 -25.5561
50.0000 -19.0183 -13.9141
50.0000 -81.0586 13.9260
50.0000 -12.1301 33.9408
50.0000 -58.6135 21.6147
50.0000 -27.3615 -19.2795
50.0000 -64.4887 -32.6283
50.0000 -14.8253 -18.6822
50.0000 -19.8142 -22.3792
50.0000 -68.9607 -14.9441
50.0000 -57.7128 4.1944
50.0000 -15.6984 21.8195
50.0000 -67.6277 2.6061
50.0000 2.7312 24.8206
50.0000 -40.1896 9.3594
50.0000 -77.0851 -32.6545
50.0000 10.6635 -35.8161
50.0000 -29.7998 -37.9144
50.0000 -39.2079 14.9124
50.0000 -37.3247 -13.4156
50.0000 -23.9870 33.5192
50.0000 0.4370 -26.1711
50.0000 -17.2207 13.2642
50.0000 -73.8370 34.7761
50.0000 -4.8391 31.1857
50.0000 -6.5642 1.8054
50.0000 2.5368 21.4463
50.0000 4.0688 -32.2977
50.0000 -71.7644 9.6529
50.0000 -16.3474 -9.3672
50.0000 -44.1133 16.6186
50.0000 -31.1550 -3.9499
50.0000 -44.1515 -30.0808
50.0000 -39.4781 3.9892
50.0000 -55.7172 -5.2419
50.0000 12.9399 -18.9583
50.0000 14.6494 -17.0602
50.0000 0.0867 3.8284
50.0000 -28.8686 9.8743
50.0000 -43.1513 -26.7548
50.0000 -77.8428 -36.7175
50.0000 -3.9086 11.8230
50.0000 -23.6546 12.1410
50.0000 -47.6927 -17.1051
50.0000 -66.8898 -27.6612
50.0000 -70.7440 1.6281
50.0000 7.1306 0.2439
50.0000 -3.7785 -2.3752
50.0000 -32.7548 31.4931
50.0000 -66.9299 -5.8735
50.0000 -81.3128 -39.9247
50.0000 -23.6607 -26.7905
50.0000 -4.1391 -31.4069
50.0000 -59.2917 23.2436
50.0000 -60.9687 -37.6352
50.0000 -17.5553 38.4280
50.0000 -19.3238 -15.7835
50.0000 12.0497 -9.2290
50.0000 10.4004 33.9048
50.0000 -58.0467 31.1216
50.0000 -8.8052 -38.9137
50.0000 1.1384 8.2108
50.0000 -75.2577 -39.6588
50.0000 -73.2713 13.0042
50.0000 -39.7634 -17.8351
50.0000 -8.2698 -15.8759
50.0000 2.7825 -3.8775
50.0000 -28.2184 -15.9752
50.0000 -32.5202 5.5934
50.0000 -82.1898 -30.2093
50.0000 -25.7564 -1.1247
50.0000 -73.9543 -0.9923
50.0000 -64.5086 30.2849
50.0000 11.2165 37.1858
50.0000 -44.6344 -38.5508
50.0000 -37.3174 20.6356
50.0000 -74.3863 15.0781
50.0000 -39.7358 -26.2918
50.0000 6.0531 20.0590
50.0000 -41.4581 -10.1752
50.0000 -49.1633 36.5871
50.0000 -29.5021 25.4980
20.0000 -34.4271 37.1527
20.0000 1.4582 -34.9501
20.0000 -32.8789 14.1319
20.0000 -39.2584 30.1106
20.0000 -26.4106 -19.9238
20.0000 2.0868 -29.9912
20.0000 -18.6944 -30.0460
20.0000 -70.7848 9.4150
20.0000 -75.7503 -35.7676
20.0000 -72.9131 9.9514
20.0000 -76.6078 -4.5293
20.0000 -34.3925 -12.5569
20.0000 -12.1153 -0.3293
20.0000 -42.3237 11.2007
20.0000 -29.2637 -30.0026
20.0000 -15.3258 -8.5419
20.0000 10.4266 -23.0619
20.0000 -44.9425 -24.3344
20.0000 -47.5162 -10.6580
20.0000 -15.2335 -5.9565
20.0000 -45.5373 -23.0343
20.0000 -36.6059 -39.5237
20.0000 13.6931 -28.5543
20.0000 -10.6560 -5.6245
20.0000 -81.5203 6.1158
20.0000 -1.6338 -25.8748
20.0000 -5.5258 -36.9775
20.0000 -46.0085 36.1116
20.0000 -72.6896 -27.9733
20.0000 -41.0644 9.9048
20.0000 -43.1411 9.8712
20.0000 -11.0744 -29.1467
20.0000 -18.7385 -2.7089
20.0000 -21.7936 28.3291
20.0000 -21.5748 28.8642
20.0000 -34.7979 -16.3400
20.0000 -36.4839 12.3643
20.0000 -42.1754 6.7268
20.0000 -82.3584 -25.3433
20.0000 -5.3883 -30.4047
20.0000 12.9536 -32.9731
20.0000 -80.6795 6.9342
20.0000 -28.4261 -31.0821
20.0000 -39.5436 10.9839
20.0000 -31.4946 -4.2031
20.0000 -31.3178 -32.1009
20.0000 -73.5637 -20.7833
20.0000 -18.1858 30.6112
20.0000 -52.5844 20.1242
20.0000 -35.1043 -30.3918
20.0000 10.8100 -8.6892
20.0000 -9.5992 11.9547
20.0000 -0.3201 -38.3210
20.0000 -53.2349 -7.7693
20.0000 -44.4587 22.4368
20.0000 -19.9109 9.6420
20.0000 -50.9266 -33.2272
20.0000 -17.1425 35.0954
20.0000 -19.4045 -8.9213
20.0000 -36.1993 -31.9623
20.0000 -26.1613 5.1502
20.0000 -4.7269 -25.8984
20.0000 -39.8752 6.8491
20.0000 -75.6080 21.9278
20.0000 -38.2729 20.0923
20.0000 -41.4423 0.0608
20.0000 -66.2968 16.1634
20.0000 -62.5415 -16.6380
20.0000 -10.0830 -5.5408
20.0000 8.9478 -16.0858
20.0000 -9.4193 31.3432
20.0000 -50.2964 -12.2882
20.0000 -84.9875 -30.0881
20.0000 -76.4060 22.4660
20.0000 -61.8593 -14.3879
20.0000 1.9176 -17.3135
20.0000 9.7360 -8.9569
20.0000 -32.9321 -23.2197
20.0000 -22.7609 -25.5306
20.0000 13.0244 -10.5148
20.0000 -66.0434 35.2057
20.0000 -56.0480 1.5963
20.0000 -52.3882 -24.9807
20.0000 -45.7081 38.2542
20.0000 -54.1633 17.1686
20.0000 8.6144 -4.0809
39.3014 15.0000 16.7383
30.4989 15.0000 -9.5905
46.7985 15.0000 -20.8490
28.6812 15.0000 39.5322
25.9746 15.0000 2.0790
29.1481 15.0000 -25.8716
29.7044 15.0000 -5.0276
49.1866 15.0000 -0.8580
28.8220 15.0000 -1.7804
37.6379 15.0000 -31.4487
27.6680 15.0000 -2.5455
41.0789 15.0000 1.9034
37.2508 15.0000 -34.4805
41.2115 15.0000 -22.7662
40.4597 15.0000 5.5602
43.7307 15.0000 -3.6560
34.6253 15.0000 -30.7371
43.3682 15.0000 -4.4560
40.5985 15.0000 -22.4125
32.7709 15.0000 6.6631
34.5659 15.0000 30.9339
24.6122 15.0000 -28.0148
32.6366 15.0000 10.7673
32.0474 15.0000 6.2456
49.0855 15.0000 -17.6797
31.9546 15.0000 15.5390
41.2688 15.0000 -27.5071
39.9293 15.0000 -4.0006
35.3599 15.0000 6.8090
44.3165 15.0000 -22.1391
47.7847 15.0000 -34.0073
39.3874 15.0000 1.8562
23.9553 15.0000 -35.2485
36.3169 15.0000 -36.1514
38.2831 15.0000 5.8294
44.4825 15.0000 -12.6719
29.6639 15.0000 -22.7346
30.0893 15.0000 35.7773
46.3626 15.0000 -9.1554
42.9756 15.0000 34.2846
41.8262 15.0000 -37.3723
28.1112 15.0000 7.0225
35.1854 15.0000 8.9466
24.9453 15.0000 2.4341
49.4271 15.0000 -7.3278
29.4375 15.0000 -25.8695
49.9962 15.0000 -1.9180
33.4405 15.0000 3.8113
24.5664 15.0000 37.1007
41.9246 15.0000 -38.1865
27.0592 15.0000 0.3936
36.2231 15.0000 6.1506
46.0460 15.0000 19.4567
45.8091 15.0000 39.7835
47.6503 15.0000 37.0110
27.4028 15.0000 29.1397
38.8714 15.0000 -9.3327
40.3158 15.0000 -2.3286
27.4785 15.0000 20.2008
44.5638 15.0000 -19.7368
31.1237 15.0000 29.6918
28.0614 15.0000 29.4708
32.0991 15.0000 31.0404
29.8152 15.0000 3.9590
35.5617 15.0000 26.1533
46.5798 15.0000 -23.4183
23.2579 15.0000 -36.8369
46.4785 15.0000 -13.1215
33.1373 15.0000 -3.9067
47.1813 15.0000 -22.3294
20.3072 15.0000 -11.5023
31.6514 15.0000 37.1455
24.1798 15.0000 -5.1001
36.3705 15.0000 24.3060
47.4914 15.0000 -20.1212
44.0784 15.0000 19.3335
31.4255 15.0000 -10.4703
30.1167 15.0000 -16.6468
27.8701 15.0000 -12.0881
37.0301 15.0000 -36.5539
27.8776 15.0000 26.2535
20.3370 15.0000 -29.2268
31.7523 15.0000 -28.1982
26.4334 15.0000 29.2214
28.9840 15.0000 -2.3461
30.8962 -85.0000 -16.4144
40.7976 -85.0000 14.6722
37.1451 -85.0000 21.9260
25.2631 -85.0000 3.7650
20.5910 -85.0000 -32.0216
44.5486 -85.0000 -17.7914
48.3614 -85.0000 -10.3996
45.2642 -85.0000 -19.4628
47.9336 -85.0000 -7.5864
32.7060 -85.0000 39.5957
41.9813 -85.0000 -23.5818
44.8683 -85.0000 35.3160
41.6559 -85.0000 37.4497
33.1086 -85.0000 12.8816
46.6090 -85.0000 -6.6737
21.4811 -85.0000 -22.7181
31.5710 -85.0000 0.9809
43.5823 -85.0000 -10.9765
30.7792 -85.0000 -18.7279
22.5675 -85.0000 36.5247
30.6000 -85.0000 -39.0992
40.8145 -85.0000 -7.3390
36.6490 -85.0000 28.8993
23.1776 -85.0000 29.3279
32.5903 -85.0000 34.2318
23.2935 -85.0000 24.2330
45.5663 -85.0000 28.8053
22.8846 -85.0000 -17.0129
21.5425 -85.0000 12.6919
48.2392 -85.0000 -39.1084
41.1176 -85.0000 11.0671
22.2041 -85.0000 -39.1100
28.5292 -85.0000 -30.7943
27.5570 -85.0000 -21.4285
37.5688 -85.0000 12.7354
36.8428 -85.0000 -16.4030
40.0465 -85.0000 -30.2573
32.0626 -85.0000 0.3960
37.3938 -85.0000 10.5108
42.7673 -85.0000 -7.6180
49.3452 -85.0000 18.3901
49.8985 -85.0000 -0.9614
23.8349 -85.0000 -36.2558
43.5406 -85.0000 21.5642
35.8780 -85.0000 36.5713
38.9563 -85.0000 -21.3200
47.2771 -85.0000 -0.5441
24.3592 -85.0000 -33.7180
37.6603 -85.0000 -25.8477
33.7358 -85.0000 10.0122
31.7069 -85.0000 -22.1487
30.0624 -85.0000 -29.2519
41.9183 -85.0000 37.2087
48.1568 -85.0000 34.5710
49.8765 -85.0000 -30.2346
39.7406 -85.0000 20.8202
47.4698 -85.0000 21.8799
38.4501 -85.0000 -20.7301
35.3286 -85.0000 7.2016
33.7460 -85.0000 28.5805
43.4505 -85.0000 17.0216
27.9800 -85.0000 -25.0930
46.4175 -85.0000 14.7012
44.6718 -85.0000 -28.2354
23.5118 -85.0000 -23.0729
23.2772 -85.0000 11.0612
38.6995 -85.0000 33.4485
38.5676 -85.0000 -23.4928
21.3542 -85.0000 23.1005
40.6210 -85.0000 17.3444
31.5370 -85.0000 3.4747
43.9807 -85.0000 31.9350
33.6056 -85.0000 -14.3466
38.3907 -85.0000 -10.9076
23.5396 -85.0000 10.6505
41.9559 -85.0000 0.7134
36.5801 -85.0000 -35.4784
31.9458 -85.0000 -27.0076
39.4011 -85.0000 22.3419
49.9445 -85.0000 11.3041
45.5404 -85.0000 15.5927
27.4050 -85.0000 -29.6536
37.7958 -85.0000 -21.8450
27.1497 -85.0000 -17.1665
45.6023 -85.0000 21.7388
23.5309 -19.2000 40.0000
33.4017 -22.2927 40.0000
38.6168 -30.0559 40.0000
24.5415 -70.6396 40.0000
34.2784 -37.5904 40.0000
35.5329 -4.4548 40.0000
27.1052 -24.2705 40.0000
35.7043 -44.9433 40.0000
23.5068 -35.8273 40.0000
39.9581 -19.9553 40.0000
43.1272 -6.0309 40.0000
29.8624 0.0513 40.0000
24.2707 -70.0803 40.0000
31.8602 -6.3817 40.0000
29.7925 -83.7736 40.0000
26.9244 -11.6995 40.0000
35.5602 -80.6029 40.0000
37.2347 -25.5098 40.0000
47.4831 -1.9885 40.0000
27.6566 -70.7379 40.0000
37.2748 -23.8745 40.0000
28.4996 -54.3034 40.0000
49.0100 -0.4820 40.0000
30.5002 -13.5148 40.0000
32.3234 -64.8932 40.0000
24.2836 -44.7287 40.0000
38.5779 -2.6402 40.0000
36.2124 -46.7411 40.0000
34.6414 -16.7173 40.0000
49.5600 -37.9292 40.0000
41.8818 5.2845 40.0000
40.2571 -63.3568 40.0000
32.4668 -21.2214 40.0000
45.7557 -29.9402 40.0000
30.4947 -40.4250 40.0000
30.6312 -70.2556 40.0000
48.2344 -35.0576 40.0000
41.6703 -13.5046 40.0000
24.3156 -10.3978 40.0000
46.6548 8.8648 40.0000
36.8871 -31.3849 40.0000
40.1167 -56.1842 40.0000
30.4467 -48.3375 40.0000
36.7313 -25.1534 40.0000
24.0946 -45.1410 40.0000
46.5250 -59.6769 40.0000
45.6417 -82.9907 40.0000
42.1403 -14.4783 40.0000
26.0019 -20.3920 40.0000
36.9980 -80.8143 40.0000
26.1801 -26.4959 40.0000
34.2787 -64.6241 40.0000
47.9946 -71.3743 40.0000
27.8328 -26.5988 40.0000
26.9616 -58.8745 40.0000
31.2489 -9.0456 40.0000
43.6448 -30.9779 40.0000
35.0795 -40.7811 40.0000
38.5781 -83.5142 40.0000
31.9160 -57.5349 40.0000
35.1908 -33.8031 40.0000
26.5037 -60.0104 40.0000
45.1853 8.1295 40.0000
27.6691 12.5971 40.0000
44.4481 -59.0899 40.0000
36.8652 -41.6512 40.0000
42.7414 -33.6773 40.0000
24.8103 -58.1126 40.0000
36.9275 -40.8384 40.0000
27.8711 -20.1265 40.0000
48.3463 -59.1510 40.0000
30.5004 -22.9514 40.0000
37.2480 7.9297 40.0000
44.2903 -68.0089 40.0000
24.2170 -11.9911 40.0000
28.2734 -78.7306 40.0000
30.1467 -60.4784 40.0000
24.6369 -19.7705 40.0000
47.2474 -74.9419 40.0000
37.0017 -75.8095 40.0000
31.9356 -11.9697 40.0000
39.3235 -34.8038 40.0000
43.9209 -49.0211 40.0000
40.5021 -32.0468 40.0000
22.1417 -50.7592 40.0000
26.2693 -19.9728 -40.0000
41.1341 -82.3327 -40.0000
24.3664 -15.8582 -40.0000
32.6138 -71.4529 -40.0000
20.1864 -10.0229 -40.0000
38.4219 -67.5184 -40.0000
32.3440 -66.9299 -40.0000
32.3886 -70.4103 -40.0000
31.9357 -15.2358 -40.0000
20.1224 -10.4384 -40.0000
34.1205 -39.2882 -40.0000
30.2071 -16.5382 -40.0000
47.4628 -19.3395 -40.0000
32.4673 -32.3030 -40.0000
41.4267 -35.1902 -40.0000
31.8438 -6.0860 -40.0000
26.6609 -20.6917 -40.0000
29.6256 -22.7644 -40.0000
41.5761 -57.4641 -40.0000
49.2880 -21.7738 -40.0000
25.0880 -19.3870 -40.0000
22.0221 -52.4614 -40.0000
47.5840 -2.8850 -40.0000
44.1240 12.4662 -40.0000
21.0326 -64.7034 -40.0000
35.3718 -33.5604 -40.0000
42.1216 -21.0406 -40.0000
20.3531 -56.3876 -40.0000
41.2501 13.7473 -40.0000
21.2758 -76.3789 -40.0000
37.4021 0.2860 -40.0000
45.8986 -20.2307 -40.0000
22.5075 -48.2379 -40.0000
28.4361 -63.8644 -40.0000
28.9895 -75.8817 -40.0000
31.8888 -64.9210 -40.0000
20.6031 -80.9525 -40.0000
26.9586 -62.1224 -40.0000
39.8183 8.1479 -40.0000
35.5567 -5.0196 -40.0000
45.8180 -39.5672 -40.0000
28.0840 -2.2376 -40.0000
21.7625 6.2532 -40.0000
33.7364 0.3795 -40.0000
33.2646 -38.3385 -40.0000
25.9169 -74.2703 -40.0000
43.0751 -77.3249 -40.0000
44.6547 -32.4910 -40.0000
24.2467 -74.0140 -40.0000
48.7205 -20.6994 -40.0000
28.5948 -1.3937 -40.0000
39.1634 -52.1070 -40.0000
29.6362 14.5839 -40.0000
20.2547 -70.9430 -40.0000
40.1991 -52.5635 -40.0000
31.9369 3.5160 -40.0000
28.9857 -20.6226 -40.0000
32.0132 -39.4929 -40.0000
25.4673 -15.0444 -40.0000
43.4310 -10.5891 -40.0000
30.5892 -59.6500 -40.0000
26.4855 -67.6363 -40.0000
43.8611 10.5966 -40.0000
36.0163 -19.9151 -40.0000
44.8190 -42.4645 -40.0000
26.2669 -20.6383 -40.0000
21.5727 -79.7137 -40.0000
32.9051 -56.8253 -40.0000
30.9642 13.2691 -40.0000
27.2961 -62.5061 -40.0000
34.8488 -29.7310 -40.0000
49.3107 -61.6184 -40.0000
22.7672 -22.9285 -40.0000
25.8882 -58.8677 -40.0000
32.6497 -83.3650 -40.0000
24.6165 -12.0171 -40.0000
30.1032 -1.3620 -40.0000
39.7761 0.3380 -40.0000
32.6367 13.8427 -40.0000
41.8274 -5.9994 -40.0000
47.2756 -1.4620 -40.0000
32.6963 14.0132 -40.0000
46.4183 7.4730 -40.0000
41.7038 -14.3066 -40.0000
25.7022 -43.2302 -40.0000
