ply
format ascii 1.0
element vertex 1024
property float x
property float y
property float z
end_header
50.0000 -9.0495 13.1674
50.0000 9.0514 -26.8782
50.0000 -8.1571 21.9048
50.0000 1.5659 23.0288
50.0000 -13.2514 29.5170
50.0000 -14.9611 -15.5150
50.0000 -9.6304 6.2367
50.0000 -8.4261 -18.8261
50.0000 9.3494 16.2740
50.0000 -5.5468 -17.9552
50.0000 5.8504 -25.9550
50.0000 -0.0535 3.6804
50.0000 10.2407 -27.0789
50.0000 -8.6132 -29.3871
50.0000 -8.1725 -2.5919
50.0000 12.2413 -18.1927
50.0000 -12.8318 4.6007
50.0000 -3.3735 -16.6811
50.0000 -8.4581 21.5546
50.0000 -12.6847 16.2349
50.0000 -6.0310 -17.6791
50.0000 -3.6697 -0.8088
50.0000 7.0167 15.6831
50.0000 -0.2000 15.9511
50.0000 13.9664 6.8877
50.0000 -1.4600 1.8080
50.0000 -7.2339 16.8279
50.0000 1.5585 -3.0770
50.0000 13.0452 14.6225
50.0000 11.5894 -12.9890
50.0000 6.1965 20.8188
50.0000 12.4818 1.2588
50.0000 8.9940 18.3456
50.0000 -6.5467 -16.4517
50.0000 -13.0985 -25.3495
50.0000 1.7475 -5.2804
50.0000 -9.3246 -20.9274
50.0000 3.8756 -21.9711
50.0000 5.4997 24.9739
50.0000 13.6660 -16.8186
50.0000 4.2891 0.6468
50.0000 -13.6316 7.9812
50.0000 -12.5035 -24.3382
50.0000 -13.5158 -1.0077
50.0000 -14.3788 -10.8577
50.0000 -7.2311 -27.2188
50.0000 -5.9264 -26.8319
50.0000 8.5273 -23.2804
50.0000 -14.7860 -4.9472
50.0000 -3.4208 20.7628
50.0000 14.6162 19.1798
50.0000 1.2693 3.8076
50.0000 8.1840 -19.7340
50.0000 14.6124 14.8441
50.0000 11.5663 -23.2783
50.0000 -5.0144 8.0458
50.0000 -1.6453 -15.7367
50.0000 2.0958 18.5118
50.0000 10.2336 8.7845
50.0000 11.0301 6.2970
50.0000 5.1446 -29.7265
50.0000 0.9161 19.4996
50.0000 7.3167 24.4399
50.0000 11.2851 -23.4460
50.0000 9.9506 -5.4748
50.0000 -4.9870 -19.6662
50.0000 -13.3048 -28.0298
50.0000 6.8439 10.6104
50.0000 -2.3342 3.8187
50.0000 -3.8974 2.4734
50.0000 -9.0107 -11.2379
50.0000 14.3286 8.7030
50.0000 -3.0710 9.7398
50.0000 -14.6603 14.7168
50.0000 3.0938 11.9762
50.0000 12.7537 -27.8158
50.0000 -1.2373 25.5675
50.0000 3.9739 18.9194
50.0000 -0.9415 -21.0698
50.0000 1.4330 -0.5165
50.0000 -13.1852 17.0701
50.0000 -7.8928 4.7003
50.0000 -14.7036 -21.3669
50.0000 -11.2377 24.1469
50.0000 4.5928 18.4796
50.0000 5.9423 22.7902
-50.0000 1.2740 25.4066
-50.0000 2.7726 -17.7836
-50.0000 -1.3842 8.1193
-50.0000 -2.1022 0.3368
-50.0000 1.0836 -25.3893
-50.0000 -6.0628 10.6112
-50.0000 1.9265 8.7578
-50.0000 11.0288 26.6344
-50.0000 11.6432 -26.4776
-50.0000 -6.4077 -3.9976
-50.0000 -5.2573 9.7442
-50.0000 4.5309 -3.1028
-50.0000 -4.0982 -25.0278
-50.0000 12.1157 2.2969
-50.0000 -11.8199 18.7282
-50.0000 7.4695 -22.1126
-50.0000 -2.8876 13.3604
-50.0000 -7.7989 4.0788
-50.0000 13.6819 25.7325
-50.0000 -1.7362 6.6328
-50.0000 -13.2534 28.0083
-50.0000 -6.7917 -8.5660
-50.0000 12.5517 12.5390
-50.0000 1.6170 2.3752
-50.0000 -10.9331 -11.6062
-50.0000 13.7409 -26.6509
-50.0000 4.0822 -11.1771
-50.0000 -4.6259 -1.7231
-50.0000 -10.1645 9.8607
-50.0000 13.2135 -9.9009
-50.0000 0.9660 -15.8180
-50.0000 13.8058 13.0840
-50.0000 13.5985 5.1779
-50.0000 -14.7835 19.2704
-50.0000 -11.7158 5.7653
-50.0000 0.2054 23.8176
-50.0000 8.6912 20.7364
-50.0000 13.9668 -3.2566
-50.0000 -0.2330 3.3643
-50.0000 -14.4173 -15.9530
-50.0000 -4.9631 -5.9801
-50.0000 -7.2816 22.3039
-50.0000 -3.4380 -10.9947
-50.0000 3.6225 -5.7075
-50.0000 -4.5921 -21.9694
-50.0000 14.8101 -21.0633
-50.0000 -7.4597 23.8074
-50.0000 9.3170 21.7975
-50.0000 -6.4817 21.0490
-50.0000 -2.4635 -27.9686
-50.0000 11.6539 -10.3836
-50.0000 -1.2447 0.9271
-50.0000 -0.9653 -23.0423
-50.0000 8.2324 24.0156
-50.0000 5.1990 -17.9321
-50.0000 -6.0715 -14.3784
-50.0000 5.6987 -10.1803
-50.0000 11.3024 -5.1627
-50.0000 12.5631 13.2781
-50.0000 12.4010 -12.2727
-50.0000 11.1343 -28.1253
-50.0000 -3.4789 -24.7130
-50.0000 9.8753 -16.4233
-50.0000 13.4101 -18.6197
-50.0000 -9.3095 -18.3339
-50.0000 -11.9530 -24.6867
-50.0000 -7.1368 -4.7813
-50.0000 -1.9708 -15.6145
-50.0000 2.4134 -24.4683
-50.0000 -1.0904 -28.7200
-50.0000 -0.3443 16.1139
-50.0000 13.3050 -7.2982
-50.0000 6.1485 23.1879
-50.0000 0.9544 -9.5791
-50.0000 -12.6511 7.7867
-50.0000 12.7895 -16.7402
-50.0000 13.0430 -26.9873
-50.0000 -9.5316 28.8726
-50.0000 -12.2881 0.1113
-50.0000 6.2220 -3.5953
-50.0000 4.4008 -13.9071
-50.0000 -2.7117 12.2738
-50.0000 -6.0216 -11.4207
-50.0000 10.0607 18.6320
-50.0000 4.6692 -0.8318
-50.0000 5.7389 1.3664
31.5300 15.0000 25.9420
7.0995 15.0000 4.1030
-30.2349 15.0000 19.2186
20.6795 15.0000 16.6150
13.5081 15.0000 -8.8554
-38.5244 15.0000 10.9447
36.9615 15.0000 -20.5037
31.0410 15.0000 16.9703
10.2311 15.0000 -12.4947
47.1087 15.0000 -28.0871
-49.8773 15.0000 22.7486
4.8617 15.0000 11.8643
5.9982 15.0000 9.6527
12.5320 15.0000 -25.0443
14.2843 15.0000 -17.5729
-17.6110 15.0000 17.8583
-36.0892 15.0000 -13.9072
-37.1090 15.0000 13.6662
21.1147 15.0000 -16.2827
-42.6737 15.0000 -20.8339
-6.2870 15.0000 16.2986
45.1128 15.0000 16.8295
-34.7515 15.0000 17.2387
-36.3121 15.0000 3.5051
15.6907 15.0000 -15.6748
-18.8278 15.0000 9.1389
-4.7690 15.0000 -22.5488
47.5450 15.0000 6.3880
-46.8225 15.0000 10.4075
-35.9073 15.0000 -24.9701
19.9422 15.0000 29.6400
11.7377 15.0000 -1.0797
-8.4902 15.0000 11.8591
-6.4952 15.0000 -15.2156
-44.5791 15.0000 14.9214
47.9098 15.0000 29.9641
-38.4311 15.0000 -18.3974
41.9575 15.0000 -18.0048
-8.8165 15.0000 -17.6456
26.8081 15.0000 -2.1811
25.3790 15.0000 -18.3109
27.1499 15.0000 6.9700
21.5305 15.0000 4.4104
0.7394 15.0000 -12.3771
28.4147 15.0000 26.7708
13.4289 15.0000 -10.8511
26.2527 15.0000 21.8807
-41.3037 15.0000 -21.1652
-49.1946 15.0000 -28.3737
9.6292 15.0000 20.8072
14.0281 15.0000 -28.2555
-32.7880 15.0000 -14.4224
18.4566 15.0000 -12.0734
17.2112 15.0000 -28.9762
48.3417 15.0000 28.5027
-29.2679 15.0000 -29.1378
-7.3541 15.0000 27.8513
-5.7949 15.0000 22.6221
16.7328 15.0000 5.7493
-41.2474 15.0000 29.7722
-46.2583 15.0000 -26.8630
-4.4072 15.0000 4.4621
-11.9147 15.0000 -7.6330
-45.3528 15.0000 -9.8705
-14.5992 15.0000 27.4430
-32.2361 15.0000 -29.1352
-37.8624 15.0000 -11.8316
-25.4444 15.0000 4.8120
-18.4504 15.0000 28.5589
39.2046 15.0000 -4.9911
-26.9260 15.0000 14.7016
7.2767 15.0000 -28.7262
21.2353 15.0000 20.8092
35.0365 15.0000 -23.9680
19.1065 15.0000 -8.3394
-24.5993 15.0000 -9.6049
31.8002 15.0000 -21.9487
-28.4375 15.0000 -6.4458
48.0729 15.0000 -14.9089
-20.0200 15.0000 1.4425
41.9787 15.0000 16.8872
-14.7981 15.0000 6.1777
-13.1736 15.0000 -24.6838
-42.9901 15.0000 -14.4538
45.8282 15.0000 7.1910
-46.6600 -15.0000 28.6809
-23.4558 -15.0000 -29.9586
-19.1422 -15.0000 8.3354
-9.2060 -15.0000 -9.4918
-35.4699 -15.0000 -0.5347
-42.2593 -15.0000 28.1530
-14.5633 -15.0000 -1.8271
-22.9866 -15.0000 -22.7347
13.8106 -15.0000 7.4603
11.4988 -15.0000 -8.3286
40.8001 -15.0000 29.6509
35.8285 -15.0000 21.4553
13.2388 -15.0000 0.9826
-28.8338 -15.0000 -7.1269
48.6407 -15.0000 -21.7260
0.2368 -15.0000 7.1540
25.0554 -15.0000 -2.2901
36.2151 -15.0000 -13.0226
-5.8954 -15.0000 -22.0628
-34.4701 -15.0000 8.7887
-40.1770 -15.0000 7.0083
33.4460 -15.0000 -14.7225
46.0734 -15.0000 -17.4607
-21.3852 -15.0000 -2.2906
28.7846 -15.0000 3.5821
40.4038 -15.0000 8.8736
-12.3211 -15.0000 4.9392
6.8606 -15.0000 26.0350
34.1813 -15.0000 25.2339
30.8518 -15.0000 12.2823
8.8521 -15.0000 -4.1291
34.6156 -15.0000 3.1561
19.0868 -15.0000 -26.5723
48.2580 -15.0000 -0.9191
11.5916 -15.0000 7.5896
33.9501 -15.0000 -21.5561
-31.3194 -15.0000 2.4072
26.8063 -15.0000 26.1158
21.8388 -15.0000 -17.5239
26.5698 -15.0000 -17.4458
17.5181 -15.0000 24.9671
15.4315 -15.0000 23.7366
-10.6982 -15.0000 -26.8668
-44.6706 -15.0000 21.0437
42.3579 -15.0000 -24.7837
9.2574 -15.0000 -17.9803
-30.8072 -15.0000 16.9218
-32.4495 -15.0000 20.7511
-34.9289 -15.0000 -8.5428
-3.5828 -15.0000 5.8440
-8.0747 -15.0000 -19.6019
44.6992 -15.0000 -12.7204
-35.2393 -15.0000 -17.6155
-6.7665 -15.0000 26.2322
5.0629 -15.0000 -1.0542
38.0316 -15.0000 -11.0481
-6.0135 -15.0000 -0.3516
16.7812 -15.0000 -2.9737
-40.0392 -15.0000 18.3654
12.3454 -15.0000 -16.4996
40.9273 -15.0000 -8.7923
19.8564 -15.0000 -2.7533
22.4143 -15.0000 17.1407
42.1539 -15.0000 9.3459
-46.8799 -15.0000 -21.8945
25.3598 -15.0000 3.4750
30.0993 -15.0000 12.7177
-5.6195 -15.0000 -9.7604
6.5440 -15.0000 4.0622
-42.5179 -15.0000 -19.6390
1.5117 -15.0000 1.9583
-37.0105 -15.0000 -6.4859
-37.4009 -15.0000 -11.3497
49.4720 -15.0000 -8.4518
19.8896 -15.0000 -6.9721
-2.5108 -15.0000 17.1534
-45.1659 -15.0000 -25.2387
21.3123 -15.0000 -25.7530
-4.3965 -15.0000 3.1982
-17.4388 -15.0000 17.5024
41.5569 -15.0000 -22.2655
5.3550 -15.0000 13.4380
-14.0236 -15.0000 -27.2371
19.2699 -15.0000 11.7175
-9.8867 -15.0000 -20.0678
41.8862 -11.2006 30.0000
46.3979 -13.3298 30.0000
7.6109 13.6926 30.0000
47.1249 13.5888 30.0000
34.6705 -12.0697 30.0000
5.0746 -4.3729 30.0000
4.4332 6.8512 30.0000
-18.7280 12.3844 30.0000
-29.5214 1.6183 30.0000
-8.5335 4.1903 30.0000
-32.8205 -4.9355 30.0000
-9.7497 -13.1963 30.0000
33.2115 -3.9864 30.0000
-9.3769 -3.4239 30.0000
25.3421 -9.7882 30.0000
-0.2667 -4.9886 30.0000
-20.7878 -3.8743 30.0000
-23.3383 5.5424 30.0000
18.3303 -8.5910 30.0000
-9.7891 -9.5956 30.0000
31.7054 0.2692 30.0000
-19.0188 -6.5299 30.0000
-45.9961 7.0831 30.0000
-39.5812 -1.1684 30.0000
8.2924 6.6114 30.0000
40.6285 -8.7677 30.0000
-8.4884 -7.5096 30.0000
1.2074 6.9863 30.0000
40.4501 3.4491 30.0000
-33.4309 1.1647 30.0000
41.2458 -2.4691 30.0000
41.7426 13.8060 30.0000
3.6912 -3.6909 30.0000
-3.5340 11.1960 30.0000
26.8406 -1.4978 30.0000
-5.9452 13.8875 30.0000
27.9589 -5.6137 30.0000
-42.3810 5.1218 30.0000
-38.8783 -7.7958 30.0000
-21.3661 -8.3623 30.0000
41.4706 -13.1110 30.0000
-14.7563 7.1029 30.0000
12.9047 8.9725 30.0000
-33.6807 -1.6258 30.0000
-10.4376 -1.0673 30.0000
-46.9640 12.0934 30.0000
44.9220 -9.2162 30.0000
40.8958 2.9961 30.0000
-42.4578 0.4807 30.0000
-7.9694 5.8146 30.0000
39.2939 -8.8048 30.0000
-35.5580 8.0014 30.0000
-26.5279 -14.8547 30.0000
-45.8591 1.0302 30.0000
-41.0005 5.3850 30.0000
41.9770 -14.5436 30.0000
-45.8942 6.7590 30.0000
-23.6533 12.6135 30.0000
49.5106 -4.1586 30.0000
-31.2981 -7.9533 30.0000
-26.6964 -9.4788 30.0000
18.9668 -1.8749 30.0000
16.8706 -3.3541 30.0000
-11.7960 -12.1124 30.0000
-11.0414 8.4115 30.0000
21.2163 -13.8202 30.0000
-48.0908 6.8447 30.0000
-0.6487 -2.5294 30.0000
-7.2214 2.2429 30.0000
-6.1128 -11.9859 30.0000
19.4457 5.0762 30.0000
-10.9948 -5.9434 30.0000
-41.6339 1.9189 30.0000
46.6466 -0.1530 30.0000
-24.1864 -1.7673 30.0000
-34.5499 -7.7945 30.0000
-16.1508 -14.2381 30.0000
10.3845 -3.2541 30.0000
18.8566 12.7312 30.0000
-3.2321 2.4379 30.0000
40.2801 -11.2199 30.0000
-36.5588 0.6260 30.0000
-24.0098 6.9308 30.0000
-45.0500 5.8897 30.0000
-23.7643 -9.1238 30.0000
-2.6508 -8.6196 -30.0000
-9.3237 3.6795 -30.0000
11.3018 6.1372 -30.0000
-5.2805 1.0382 -30.0000
20.0831 11.1614 -30.0000
-26.8733 14.8888 -30.0000
-27.8215 9.1332 -30.0000
-28.1990 -3.6913 -30.0000
-42.9695 -14.2929 -30.0000
-46.6475 13.9433 -30.0000
19.4533 -2.2277 -30.0000
-30.5658 6.3693 -30.0000
44.6101 11.3740 -30.0000
17.7946 -0.0698 -30.0000
8.3310 9.9867 -30.0000
11.1392 11.5366 -30.0000
-5.2942 10.1932 -30.0000
38.2256 7.2218 -30.0000
35.4182 7.0947 -30.0000
34.8456 3.4270 -30.0000
37.5027 0.3032 -30.0000
-16.8330 -8.9756 -30.0000
-27.5392 7.4607 -30.0000
47.5975 1.8357 -30.0000
20.8548 3.7791 -30.0000
-15.1081 -3.5753 -30.0000
18.3024 -9.7877 -30.0000
17.8455 -13.0706 -30.0000
19.3972 11.8353 -30.0000
-24.6688 13.8920 -30.0000
16.9368 -10.7575 -30.0000
38.3277 5.1894 -30.0000
22.3100 0.6535 -30.0000
7.3448 -1.6072 -30.0000
32.9702 0.2272 -30.0000
10.5190 9.7602 -30.0000
-34.1924 8.6045 -30.0000
-44.9952 -0.1934 -30.0000
-23.9428 8.1271 -30.0000
14.7524 -9.2094 -30.0000
32.4406 -5.9988 -30.0000
25.0601 6.0076 -30.0000
-45.3950 8.3344 -30.0000
27.7331 -11.1570 -30.0000
-37.7226 0.0286 -30.0000
25.2679 -6.7060 -30.0000
12.3061 8.7892 -30.0000
-32.5506 0.8309 -30.0000
-18.4170 11.3794 -30.0000
-22.6624 -10.7006 -30.0000
-42.8394 3.6057 -30.0000
-41.8089 -14.7130 -30.0000
11.1280 9.1487 -30.0000
12.2857 -0.9933 -30.0000
-37.4464 -14.9626 -30.0000
27.0343 -1.0867 -30.0000
-15.6952 -10.1643 -30.0000
49.0704 -1.7606 -30.0000
-37.0563 7.4855 -30.0000
33.7487 -4.4074 -30.0000
18.8713 -2.0920 -30.0000
-44.9345 0.8010 -30.0000
34.8920 8.3089 -30.0000
-33.3683 4.5163 -30.0000
-10.3197 1.5851 -30.0000
3.2947 7.8617 -30.0000
9.5105 -8.5959 -30.0000
45.8138 3.9069 -30.0000
28.0507 -9.8612 -30.0000
10.8446 10.8456 -30.0000
22.1444 4.8152 -30.0000
-33.4229 8.9947 -30.0000
-7.7476 -6.2960 -30.0000
2.5402 7.5146 -30.0000
15.5229 -3.0293 -30.0000
48.6917 -0.4011 -30.0000
-36.9608 5.3346 -30.0000
0.4159 9.0999 -30.0000
-32.2209 -0.1666 -30.0000
25.8682 -10.4451 -30.0000
-1.2379 7.4908 -30.0000
38.8824 1.9900 -30.0000
29.6245 12.6065 -30.0000
-37.0586 -1.5507 -30.0000
10.4465 13.9902 -30.0000
15.0000 54.1465 -4.7944
15.0000 46.2925 -23.8419
15.0000 55.9464 4.6682
15.0000 -0.2590 -4.8757
15.0000 80.7165 -21.4403
15.0000 16.7829 -9.4592
15.0000 60.3079 27.8846
15.0000 69.6539 18.6203
15.0000 73.5346 27.5117
15.0000 79.7708 4.9190
15.0000 61.0598 -9.4495
15.0000 74.0146 20.3412
15.0000 -7.6238 -7.7257
15.0000 8.5849 -27.5014
15.0000 32.3629 4.8039
15.0000 58.1883 0.6686
15.0000 29.8707 -5.6710
15.0000 52.1926 20.5269
15.0000 23.1953 26.9242
15.0000 27.1049 -7.0202
15.0000 2.2850 2.0183
15.0000 41.4519 -26.3834
15.0000 3.9240 26.9949
15.0000 -10.3374 0.7590
15.0000 69.5078 -3.9794
15.0000 19.3478 -20.6028
15.0000 -10.6731 -1.5983
15.0000 53.8078 -17.0091
15.0000 34.9438 2.2975
15.0000 38.9345 -13.7133
15.0000 12.1990 6.5437
15.0000 76.2980 -16.4203
15.0000 -6.5792 -14.8790
15.0000 15.3871 17.0860
15.0000 18.1380 -18.9817
15.0000 72.5699 13.5463
15.0000 76.8332 -28.4088
15.0000 -6.5915 -7.4942
15.0000 59.9162 25.0402
15.0000 56.8331 13.1583
15.0000 37.2283 -10.5122
15.0000 0.7492 8.9253
15.0000 66.6677 20.8236
15.0000 18.2558 -2.9524
15.0000 71.9798 20.1607
15.0000 33.1804 7.7667
15.0000 44.6348 14.8518
15.0000 31.3641 -1.4046
15.0000 26.5452 27.3515
15.0000 32.2806 -19.5716
15.0000 13.8062 4.3026
15.0000 79.3883 4.8757
15.0000 -10.9653 -11.5387
15.0000 61.2222 -13.5595
15.0000 -13.6993 15.2015
15.0000 12.9974 -8.3618
15.0000 76.8922 15.8664
15.0000 -2.9172 -18.2083
15.0000 54.6084 -12.1918
15.0000 61.8432 -28.1112
15.0000 0.5286 -23.1588
15.0000 63.4966 13.2242
15.0000 1.2885 -26.5560
15.0000 -7.6450 24.5001
15.0000 51.0998 -24.3034
15.0000 18.9728 13.8848
15.0000 48.3467 -27.1263
15.0000 -13.9883 -24.6034
15.0000 37.3097 8.7044
15.0000 53.0894 23.2570
15.0000 -5.2936 8.1643
15.0000 84.2084 -9.8041
15.0000 84.7764 -5.2725
15.0000 -8.7073 13.2073
15.0000 71.8998 -0.5028
15.0000 38.5656 -9.5778
15.0000 78.3928 -1.0996
15.0000 38.8466 22.7939
15.0000 37.1794 -17.6757
15.0000 17.3031 -10.3048
15.0000 28.0760 16.5732
15.0000 67.1726 -11.4344
15.0000 50.6090 12.6047
15.0000 9.9857 -16.2309
15.0000 84.5509 25.1306
15.0000 -0.6821 -12.7242
-15.0000 25.7975 3.7381
-15.0000 -1.7220 0.8985
-15.0000 62.6120 2.1899
-15.0000 74.9351 -20.9545
-15.0000 66.1858 -6.4507
-15.0000 81.8713 29.7672
-15.0000 -3.3800 13.4060
-15.0000 47.6497 -2.3715
-15.0000 56.9276 -14.4341
-15.0000 28.1203 27.4918
-15.0000 51.2348 -13.2579
-15.0000 42.6174 -4.2915
-15.0000 82.8089 -5.5973
-15.0000 54.0589 11.2961
-15.0000 4.9422 9.0374
-15.0000 6.6506 -21.6198
-15.0000 27.3681 16.7627
-15.0000 82.9932 -7.0844
-15.0000 81.5574 -28.2667
-15.0000 66.3998 -28.1283
-15.0000 74.9884 -5.4992
-15.0000 -5.2890 -11.4622
-15.0000 -4.8775 -28.3849
-15.0000 31.2251 6.4639
-15.0000 10.9750 9.3658
-15.0000 5.5631 7.7981
-15.0000 34.7924 -12.1781
-15.0000 40.9361 4.0218
-15.0000 79.5238 29.5748
-15.0000 12.3127 23.6916
-15.0000 80.1961 -5.0844
-15.0000 -14.7091 -20.0116
-15.0000 50.5686 -25.8711
-15.0000 43.8771 3.6396
-15.0000 84.4080 4.0516
-15.0000 5.8711 26.0548
-15.0000 19.0536 23.7234
-15.0000 81.8963 25.7146
-15.0000 25.9571 -9.3892
-15.0000 12.6385 10.1950
-15.0000 4.4068 24.5361
-15.0000 77.5328 -3.5508
-15.0000 -7.0432 22.1492
-15.0000 20.2636 -22.2184
-15.0000 81.0803 -26.0892
-15.0000 -2.2650 -26.9375
-15.0000 77.9194 11.4915
-15.0000 35.3882 -19.6371
-15.0000 53.2414 16.7218
-15.0000 14.5650 -10.9683
-15.0000 8.3522 -25.9684
-15.0000 38.7726 -16.0887
-15.0000 9.3394 -27.0298
-15.0000 65.0849 27.1967
-15.0000 73.9612 -5.8034
-15.0000 5.5544 -3.7562
-15.0000 -14.5450 -29.1389
-15.0000 84.3458 -15.5931
-15.0000 23.0619 -17.6561
-15.0000 36.6158 25.1777
-15.0000 -2.2097 -15.2681
-15.0000 5.9827 -19.1152
-15.0000 -10.5768 -0.4235
-15.0000 20.3662 -22.6993
-15.0000 0.7968 -16.7048
-15.0000 -13.2349 25.0035
-15.0000 21.4308 13.6617
-15.0000 44.7110 -10.2441
-15.0000 51.2886 -27.3808
-15.0000 52.6775 -16.9783
-15.0000 8.5953 1.5944
-15.0000 79.9148 -3.7220
-15.0000 3.7483 -23.1449
-15.0000 48.5596 -25.7614
-15.0000 -3.3695 8.1441
-15.0000 40.8690 18.2406
-15.0000 65.3364 19.5393
-15.0000 52.4482 -24.7903
-15.0000 77.4967 12.9752
-15.0000 58.7648 -8.9103
-15.0000 36.8237 14.4056
-15.0000 35.9804 24.7444
-15.0000 52.8255 -0.3513
-15.0000 38.0319 -12.6323
-15.0000 83.0537 4.8720
-15.0000 -9.6505 6.3248
-14.8947 85.0000 -16.7146
10.2575 85.0000 -11.4367
-5.1334 85.0000 -26.8716
-0.5615 85.0000 6.1314
-12.4672 85.0000 16.7199
3.1755 85.0000 9.4823
-3.4589 85.0000 1.8170
0.1414 85.0000 8.3531
-1.3502 85.0000 29.0508
10.9334 85.0000 10.5158
14.2571 85.0000 20.4108
-10.1216 85.0000 19.3281
-5.2592 85.0000 25.1993
-7.2419 85.0000 23.2648
4.2689 85.0000 -10.1273
-1.0529 85.0000 5.5038
2.9228 85.0000 -1.0755
10.6652 85.0000 -18.0082
-7.4052 85.0000 -10.3522
8.7216 85.0000 10.1060
9.8231 85.0000 -0.6395
1.7128 85.0000 26.1435
-1.6874 85.0000 -25.6462
-0.4969 85.0000 13.7396
6.6908 85.0000 -8.6249
7.0621 85.0000 -16.8034
1.1725 85.0000 28.0555
-12.4177 85.0000 10.7736
-8.3125 85.0000 -8.2182
13.4708 85.0000 1.6129
7.5957 85.0000 -20.5340
-2.9832 85.0000 5.9651
5.1278 85.0000 -24.0926
-1.7718 85.0000 14.5114
4.2220 85.0000 -24.4537
-6.7785 85.0000 -3.4224
5.6918 85.0000 11.3810
14.5958 85.0000 5.7017
5.6628 85.0000 -18.7067
9.1222 85.0000 -24.5135
-4.4306 85.0000 23.5414
-13.6046 85.0000 18.1368
5.5690 85.0000 -29.6060
-12.5995 85.0000 23.5984
6.4334 85.0000 26.7897
-10.6285 85.0000 26.3340
4.4711 85.0000 -21.4101
11.4959 85.0000 -3.1004
-7.1227 85.0000 29.5391
-14.9748 85.0000 26.8143
-0.2347 85.0000 -5.6168
5.0963 85.0000 -5.6765
-9.2782 85.0000 3.0163
2.1160 85.0000 -5.5479
13.6455 85.0000 -14.9732
4.3790 85.0000 19.2205
-11.6665 85.0000 -9.4580
1.1706 85.0000 12.1307
6.2362 85.0000 -19.0985
2.8064 85.0000 4.0986
-13.0519 85.0000 -20.1976
14.3117 85.0000 -20.7607
11.8412 85.0000 22.2167
6.9397 85.0000 22.0169
8.7536 85.0000 20.3110
11.2922 85.0000 -16.8822
-6.1020 85.0000 29.7046
-2.6713 85.0000 21.4435
14.5944 85.0000 -18.0787
-10.5998 85.0000 8.0009
-2.2573 85.0000 -6.6590
-12.0791 85.0000 -29.4325
9.1253 85.0000 21.8584
7.7264 85.0000 3.1843
-9.1217 85.0000 -22.3361
11.7890 85.0000 12.5568
-0.7804 85.0000 -0.9278
-13.0091 85.0000 -7.6153
-1.2293 85.0000 -21.2885
-9.8788 85.0000 -20.6003
11.0964 85.0000 13.8840
-0.6070 85.0000 13.6039
-9.2273 85.0000 27.8900
-11.2129 85.0000 -27.8494
-12.8342 85.0000 -21.5976
-11.9022 -15.0000 19.6178
12.7804 -15.0000 -11.1965
7.1454 -15.0000 -24.1835
-0.2300 -15.0000 -22.8887
3.1612 -15.0000 0.0144
-6.3113 -15.0000 -2.0822
-9.0312 -15.0000 -11.0962
14.7058 -15.0000 -5.8862
0.1622 -15.0000 16.9781
-12.6361 -15.0000 26.8024
-8.8633 -15.0000 7.1945
4.3932 -15.0000 1.3879
9.9650 -15.0000 -24.3466
14.0321 -15.0000 27.3121
-13.5137 -15.0000 23.8852
-2.0175 -15.0000 -11.1099
-4.5037 -15.0000 16.1326
-0.7754 -15.0000 0.0224
-14.1738 -15.0000 10.9019
-4.5205 -15.0000 23.6813
8.5940 -15.0000 -18.6707
0.9611 -15.0000 -4.9985
-1.7333 -15.0000 -25.0421
-0.4391 -15.0000 12.4852
0.4646 -15.0000 -26.2121
1.7433 -15.0000 -24.8295
-7.0408 -15.0000 -18.8007
-5.7276 -15.0000 -12.6950
9.9336 -15.0000 -15.7240
9.5057 -15.0000 13.8754
0.4879 -15.0000 -20.2431
-3.2737 -15.0000 14.3470
-0.9239 -15.0000 -20.4113
-9.7693 -15.0000 -4.1865
-4.4790 -15.0000 -8.8256
3.5648 -15.0000 -3.0103
6.8569 -15.0000 20.1662
2.7525 -15.0000 23.9031
8.2755 -15.0000 -10.4508
-3.3832 -15.0000 0.9784
-1.1566 -15.0000 -19.8054
-0.4417 -15.0000 -10.8859
-6.3681 -15.0000 -11.3316
-12.3639 -15.0000 -4.6299
-2.0532 -15.0000 -1.0879
12.3009 -15.0000 -16.6082
1.4855 -15.0000 -2.5959
9.5872 -15.0000 -24.3479
-8.9477 -15.0000 27.9083
9.1588 -15.0000 22.4411
-10.2481 -15.0000 -2.3053
-3.7830 -15.0000 -8.4765
-12.5983 -15.0000 22.5482
-9.6552 -15.0000 -14.9735
6.2051 -15.0000 -12.3246
11.5445 -15.0000 -18.3983
1.3289 -15.0000 -8.2120
5.8922 -15.0000 -23.3151
2.8960 -15.0000 -22.3001
-4.3928 -15.0000 16.8839
11.2410 -15.0000 -0.5167
8.8518 -15.0000 -29.3236
13.3047 -15.0000 -20.2052
-6.8509 -15.0000 13.7008
-3.4870 -15.0000 -22.1367
-2.0132 -15.0000 -25.6441
8.6631 -15.0000 22.4889
-0.0618 -15.0000 -16.6687
10.6961 -15.0000 18.7673
0.7898 -15.0000 14.1243
-14.9992 -15.0000 -2.1957
5.8352 -15.0000 -4.5287
13.9759 -15.0000 25.0018
-9.5488 -15.0000 -18.0766
2.7449 -15.0000 23.9784
12.1497 -15.0000 29.2200
-9.9685 -15.0000 -13.7742
0.1645 -15.0000 -3.5528
-1.3552 -15.0000 15.7141
-13.9121 -15.0000 16.1294
11.3444 -15.0000 -26.2966
-12.6046 -15.0000 -11.2530
4.6744 -15.0000 7.3915
-2.4047 -15.0000 -15.5025
-6.8412 -15.0000 25.3035
-1.8105 5.5016 30.0000
-5.4040 64.6794 30.0000
13.2311 25.8141 30.0000
-9.1644 60.1757 30.0000
-4.8308 32.3974 30.0000
4.9255 49.0602 30.0000
6.4727 23.2021 30.0000
10.5666 44.4484 30.0000
-0.4098 71.4899 30.0000
6.3424 5.6150 30.0000
14.2246 64.1655 30.0000
0.8151 31.6452 30.0000
3.8660 57.7393 30.0000
-14.9015 0.6423 30.0000
2.3414 83.1597 30.0000
0.4256 -7.9005 30.0000
0.0943 21.3021 30.0000
-8.7977 12.9480 30.0000
-11.0789 1.2318 30.0000
1.3192 -6.8090 30.0000
-0.5609 66.6579 30.0000
4.7339 79.5499 30.0000
1.7136 60.3530 30.0000
11.6948 -14.9780 30.0000
-9.7417 -3.9471 30.0000
-4.6446 24.5137 30.0000
-8.8808 82.5635 30.0000
-0.4944 62.7359 30.0000
11.0437 59.1814 30.0000
-14.2408 65.5489 30.0000
-9.1247 30.2492 30.0000
-11.7216 33.0947 30.0000
-14.9524 19.4842 30.0000
3.8945 3.6948 30.0000
11.7046 -13.8352 30.0000
-13.2642 4.9848 30.0000
1.5364 1.8106 30.0000
-10.7287 17.5353 30.0000
-11.5620 7.4754 30.0000
-14.3380 49.2838 30.0000
-0.6704 39.6187 30.0000
7.2247 15.9012 30.0000
3.7058 19.0051 30.0000
-8.4683 -9.5418 30.0000
2.8648 26.9481 30.0000
-2.1155 -9.7356 30.0000
6.5528 -6.0355 30.0000
-12.6742 81.1719 30.0000
1.2433 33.8953 30.0000
12.6512 29.7149 30.0000
-6.0496 29.7754 30.0000
14.0248 -8.3002 30.0000
3.8171 -13.0396 30.0000
-6.5066 44.7813 30.0000
-10.8153 47.8684 30.0000
4.3805 20.5016 30.0000
-13.4911 34.9027 30.0000
10.5702 42.6660 30.0000
3.4042 72.2012 30.0000
-9.0631 -4.5673 30.0000
6.1749 23.5075 30.0000
-9.5801 14.9536 30.0000
5.3044 33.8994 30.0000
-12.9636 72.5000 30.0000
-12.2444 18.9920 30.0000
-10.9840 57.2663 30.0000
-7.3698 24.8255 30.0000
8.6417 30.2906 30.0000
10.3636 60.0629 30.0000
-10.5615 84.2089 30.0000
13.2249 47.9194 30.0000
-9.1053 19.6182 30.0000
6.4717 20.0541 30.0000
0.6602 -4.1349 30.0000
9.3429 19.0583 30.0000
0.6168 -11.7844 30.0000
5.0781 -9.2050 30.0000
12.0591 79.2033 30.0000
-11.5184 67.2874 30.0000
-1.9494 24.3976 30.0000
7.5805 77.7127 30.0000
-5.3864 78.4096 30.0000
10.1530 24.5138 30.0000
14.9189 19.6627 30.0000
-4.1738 62.0099 30.0000
10.5752 9.9120 -30.0000
11.6435 58.9513 -30.0000
10.8771 67.5835 -30.0000
-9.3769 25.1087 -30.0000
10.9620 21.1031 -30.0000
4.7351 48.8612 -30.0000
5.2624 -8.4974 -30.0000
6.4105 61.4384 -30.0000
4.6024 52.9787 -30.0000
4.4672 60.7904 -30.0000
13.9969 11.4827 -30.0000
-3.2393 -9.8531 -30.0000
-7.0228 41.8830 -30.0000
4.2308 78.2119 -30.0000
8.1028 76.0524 -30.0000
-14.8860 44.7874 -30.0000
-4.6966 43.6201 -30.0000
13.0723 59.2463 -30.0000
-13.0298 30.4625 -30.0000
8.7045 84.8174 -30.0000
6.8185 78.2199 -30.0000
0.9407 61.4789 -30.0000
-9.0505 59.8019 -30.0000
-14.8415 64.9997 -30.0000
13.3268 41.5905 -30.0000
8.7618 57.6326 -30.0000
0.0116 76.0259 -30.0000
11.6197 76.5701 -30.0000
-13.0310 50.8771 -30.0000
-5.5900 14.3975 -30.0000
10.7494 -9.7601 -30.0000
-11.7819 64.3600 -30.0000
-3.7987 40.1349 -30.0000
0.8866 75.9631 -30.0000
6.8859 41.7997 -30.0000
14.2247 2.4591 -30.0000
-14.9316 62.3344 -30.0000
7.6698 58.8285 -30.0000
-8.2552 33.0118 -30.0000
-1.7413 55.3059 -30.0000
4.8359 33.7405 -30.0000
-13.6920 -2.8277 -30.0000
-14.8753 13.0499 -30.0000
13.2275 54.9231 -30.0000
-11.5261 -2.0984 -30.0000
-5.1024 1.6424 -30.0000
-6.1496 79.2033 -30.0000
7.2751 -10.5745 -30.0000
6.5090 14.6171 -30.0000
-14.1279 42.0141 -30.0000
13.5540 70.0067 -30.0000
12.5827 48.2050 -30.0000
1.8561 67.9275 -30.0000
-0.7357 7.9065 -30.0000
3.3918 44.2532 -30.0000
13.1770 16.4059 -30.0000
4.8751 64.2277 -30.0000
13.4685 -1.9197 -30.0000
9.1338 39.2642 -30.0000
4.4913 34.7367 -30.0000
5.4478 21.7533 -30.0000
-4.8159 4.2487 -30.0000
-5.2276 7.2921 -30.0000
-10.8675 7.8774 -30.0000
-2.8337 7.6928 -30.0000
4.4685 16.9837 -30.0000
3.3026 35.7866 -30.0000
7.3038 -8.9382 -30.0000
2.0827 61.1974 -30.0000
-5.7705 -12.0727 -30.0000
-5.3802 27.9192 -30.0000
5.6395 5.0890 -30.0000
-9.5265 11.3294 -30.0000
-9.4282 16.4212 -30.0000
-7.1802 58.4734 -30.0000
-13.4456 0.5534 -30.0000
14.8204 -3.1678 -30.0000
-5.0787 -9.6633 -30.0000
7.5901 49.1428 -30.0000
-0.1403 38.6531 -30.0000
-6.6416 1.6381 -30.0000
14.9377 17.8004 -30.0000
-10.4272 -13.2819 -30.0000
-8.0775 51.0552 -30.0000
9.2179 29.8753 -30.0000
