ply
format ascii 1.0
element vertex 1024
property float x
property float y
property float z
end_header
50.0000 -1.1784 15.6864
50.0000 3.8976 -12.2326
50.0000 -10.1878 17.2922
50.0000 -1.5901 -15.3765
50.0000 8.5745 0.3873
50.0000 8.8752 18.0100
50.0000 -2.8618 24.1845
50.0000 -0.0469 -14.6907
50.0000 -6.4666 0.4955
50.0000 -6.1121 16.6996
50.0000 2.9894 -6.5721
50.0000 7.8814 23.0953
50.0000 -9.7619 -21.7992
50.0000 8.9776 3.5948
50.0000 6.1566 19.2346
50.0000 -7.3805 14.7636
50.0000 -7.1743 17.9217
50.0000 10.7358 3.8604
50.0000 5.9570 -26.8690
50.0000 3.5839 -4.1640
50.0000 -4.8093 -24.6666
50.0000 4.1755 -27.9726
50.0000 -10.8854 -10.1561
50.0000 -3.8784 28.1562
50.0000 -1.5020 -28.8197
50.0000 2.1146 -2.3462
50.0000 2.4949 22.8542
50.0000 9.8094 3.9463
50.0000 12.9678 12.1485
50.0000 5.1332 -18.1124
50.0000 12.9832 -9.6143
50.0000 -1.9299 12.1669
50.0000 -14.8685 -26.3471
50.0000 13.2250 -19.5227
50.0000 7.1455 -9.7867
50.0000 -8.5988 4.9049
50.0000 3.2765 -14.2784
50.0000 0.7317 1.5391
50.0000 14.7612 -0.1327
50.0000 -4.5818 26.0678
50.0000 -4.6908 28.5996
50.0000 -3.6444 14.1488
50.0000 6.0265 -7.0441
50.0000 2.1716 -22.3820
50.0000 -2.9577 -14.2444
50.0000 -1.0116 -3.6824
50.0000 2.1358 -22.6999
50.0000 -4.2582 25.5278
50.0000 1.0151 -28.9542
50.0000 8.5592 -14.3135
50.0000 9.7258 -25.9308
50.0000 9.4733 27.0024
50.0000 -12.3521 -8.2139
50.0000 -13.3575 11.5189
50.0000 10.0848 -23.2877
50.0000 -13.1051 -22.8230
50.0000 7.6085 20.4343
50.0000 -4.2240 20.0624
50.0000 -2.0183 14.7282
50.0000 -6.1382 27.5616
50.0000 11.1126 -18.2165
50.0000 8.8475 11.5844
50.0000 -3.3788 -11.9629
50.0000 -11.0830 3.5509
50.0000 4.4488 24.9359
50.0000 14.2958 -28.3820
50.0000 1.5935 -29.5323
50.0000 -12.7411 15.8848
50.0000 8.3214 16.2688
50.0000 5.4979 -4.7699
50.0000 7.2642 0.8329
50.0000 14.6713 -0.0414
50.0000 9.3309 18.2929
50.0000 -10.2293 24.9821
50.0000 8.8138 -3.2314
50.0000 -10.2007 -14.4475
50.0000 6.0844 -19.7803
50.0000 -7.0272 4.0431
50.0000 14.0053 -8.2319
50.0000 -3.8631 -13.8470
50.0000 2.2021 19.7866
50.0000 13.8039 11.3249
50.0000 0.2361 -24.2943
50.0000 -8.9033 -1.1682
50.0000 -11.3385 -29.8729
50.0000 13.1327 -5.9206
-50.0000 -13.7168 11.9811
-50.0000 -13.1507 -4.0956
-50.0000 -11.6989 -7.0655
-50.0000 0.1457 -18.8058
-50.0000 -12.9927 5.6076
-50.0000 6.5531 -26.9038
-50.0000 13.7696 4.8583
-50.0000 -5.3103 -26.2002
-50.0000 -1.4479 -8.1574
-50.0000 1.7034 -2.4395
-50.0000 0.4481 25.9814
-50.0000 9.8701 -8.5202
-50.0000 -6.4314 9.8799
-50.0000 -10.1355 5.7612
-50.0000 -1.4120 -8.6241
-50.0000 -6.8354 -18.2172
-50.0000 9.4474 -20.3811
-50.0000 4.8722 3.4112
-50.0000 -8.1190 15.9901
-50.0000 11.2549 -21.3426
-50.0000 8.3239 -14.5576
-50.0000 12.6435 -12.5353
-50.0000 0.4865 -2.0379
-50.0000 -13.9564 26.2032
-50.0000 -9.2366 -19.7397
-50.0000 12.9646 6.9878
-50.0000 -5.7120 -11.2246
-50.0000 10.7364 -11.3445
-50.0000 7.3069 4.9943
-50.0000 -8.0793 -22.9367
-50.0000 -13.4286 0.8645
-50.0000 -9.4645 29.6595
-50.0000 -1.2037 26.5571
-50.0000 7.0014 29.7967
-50.0000 -14.9652 -1.0805
-50.0000 -0.3191 -15.9196
-50.0000 5.0277 -29.3586
-50.0000 -9.4887 10.6092
-50.0000 -8.3251 -10.1028
-50.0000 -3.6198 18.7364
-50.0000 -4.5472 -9.5434
-50.0000 -0.8911 -29.9274
-50.0000 12.7778 3.9630
-50.0000 -4.3905 -11.9096
-50.0000 -8.6716 -28.4001
-50.0000 3.6105 -9.9479
-50.0000 4.0878 -12.4561
-50.0000 0.0318 -5.7943
-50.0000 -13.7658 -2.3729
-50.0000 13.7174 24.3564
-50.0000 5.3951 -0.7611
-50.0000 1.3550 -10.9504
-50.0000 0.1310 -23.0699
-50.0000 -3.8347 -25.7336
-50.0000 0.1212 29.8623
-50.0000 0.9014 -11.0978
-50.0000 -12.0676 8.9141
-50.0000 1.3531 10.3916
-50.0000 2.2096 -12.0750
-50.0000 4.1454 -26.7357
-50.0000 7.7560 22.9478
-50.0000 -13.1562 -0.4845
-50.0000 -12.7459 11.4264
-50.0000 12.6028 13.0029
-50.0000 5.9672 -20.1838
-50.0000 -3.9200 -10.6548
-50.0000 -3.4663 22.3671
-50.0000 9.9434 -11.2829
-50.0000 4.1908 -7.4073
-50.0000 -1.8928 -26.0726
-50.0000 -0.0967 20.7617
-50.0000 -5.8873 29.2195
-50.0000 4.3135 19.4967
-50.0000 -3.6637 1.0294
-50.0000 2.0147 -10.9039
-50.0000 -4.6556 24.9220
-50.0000 6.8564 25.7198
-50.0000 -4.2048 15.8829
-50.0000 7.9103 -27.6952
-50.0000 -4.1355 -19.9720
-50.0000 -0.1875 -24.2185
-50.0000 2.9849 -15.1655
-50.0000 2.0838 -29.2501
-50.0000 3.1191 -22.9001
-50.0000 -7.7736 -5.1880
-50.0000 -5.2400 -17.7805
31.0087 15.0000 9.7759
-7.8556 15.0000 9.0428
-13.5453 15.0000 5.7864
-4.1551 15.0000 17.3119
-38.2357 15.0000 4.7228
15.6187 15.0000 -4.4012
-19.2350 15.0000 -19.7442
28.9278 15.0000 -21.7442
44.6149 15.0000 17.5853
-27.4060 15.0000 18.3358
24.3020 15.0000 14.5999
-10.4116 15.0000 -27.6028
26.4696 15.0000 -1.9974
0.0966 15.0000 0.7185
36.2754 15.0000 24.4366
-48.0201 15.0000 2.1652
-3.2093 15.0000 12.9711
-24.3311 15.0000 18.0935
-43.7464 15.0000 -2.3395
-18.9809 15.0000 8.6562
-11.1435 15.0000 -15.9285
-48.0039 15.0000 -12.6103
9.7172 15.0000 -26.3372
-2.3218 15.0000 19.9697
3.9893 15.0000 18.4775
29.3765 15.0000 -24.4620
5.8593 15.0000 9.2897
-25.0555 15.0000 -28.9406
-38.5549 15.0000 11.6572
-26.7547 15.0000 5.5592
-48.8437 15.0000 10.4297
29.7464 15.0000 -28.3017
-12.9168 15.0000 29.9992
-49.5610 15.0000 9.6716
-27.4203 15.0000 27.8910
2.2897 15.0000 -6.4045
4.9021 15.0000 20.8400
31.6273 15.0000 -26.2861
-49.4011 15.0000 24.6797
49.6779 15.0000 -8.5689
-2.3301 15.0000 3.2137
34.8394 15.0000 21.3579
13.6460 15.0000 14.1540
45.7244 15.0000 -10.0732
-20.9601 15.0000 23.8337
5.5671 15.0000 15.8859
-17.0590 15.0000 29.0026
23.4599 15.0000 12.1267
35.6926 15.0000 7.4485
29.1736 15.0000 -20.8579
-47.0392 15.0000 -5.7831
12.9571 15.0000 -20.2111
17.0928 15.0000 17.7450
-16.0718 15.0000 -22.1764
4.0578 15.0000 -12.3619
-35.0171 15.0000 -3.6291
-10.3993 15.0000 -8.5485
38.8841 15.0000 8.9131
10.4539 15.0000 9.8399
-37.4930 15.0000 -5.3374
-12.5987 15.0000 -17.3276
-36.1970 15.0000 28.4157
-20.4213 15.0000 -12.0443
38.9531 15.0000 0.7311
34.0443 15.0000 29.8410
-1.4350 15.0000 29.6825
-17.6572 15.0000 -21.1548
-40.5050 15.0000 15.6634
-33.3066 15.0000 -9.2695
20.7358 15.0000 -18.0550
-20.5195 15.0000 10.5580
-27.9162 15.0000 29.6295
44.5416 15.0000 24.6506
32.2804 15.0000 -1.2278
47.0691 15.0000 11.8965
17.2647 15.0000 16.7787
48.2861 15.0000 13.5487
-15.1259 15.0000 -5.5439
-36.7951 15.0000 -2.1427
-40.8831 15.0000 -6.8653
-46.7374 15.0000 -5.2549
-17.0300 15.0000 26.4359
37.0202 15.0000 -6.8746
42.4275 15.0000 -11.5979
16.1798 15.0000 29.6145
-29.0741 -15.0000 -7.8454
-31.9325 -15.0000 -19.9416
31.5495 -15.0000 -27.5035
-41.4299 -15.0000 -0.6919
4.1575 -15.0000 -24.9759
-31.0099 -15.0000 -22.8284
17.8003 -15.0000 -27.3831
14.1111 -15.0000 -15.9878
20.1885 -15.0000 -4.2634
-27.0019 -15.0000 -2.9927
35.2542 -15.0000 23.7977
-10.3931 -15.0000 -17.1874
-46.1370 -15.0000 13.8763
10.0084 -15.0000 -5.8268
-24.0718 -15.0000 21.1085
21.2443 -15.0000 10.6863
-24.4168 -15.0000 2.5208
-32.3866 -15.0000 27.8560
12.6132 -15.0000 1.8492
3.5469 -15.0000 -3.7920
23.7382 -15.0000 25.4211
-1.5518 -15.0000 -13.7983
27.9178 -15.0000 16.9826
3.4242 -15.0000 4.3084
-17.6210 -15.0000 8.9288
-19.6688 -15.0000 -29.1538
-7.9976 -15.0000 7.4064
30.8204 -15.0000 -19.9159
-5.7994 -15.0000 -25.4999
23.8451 -15.0000 3.0167
1.4048 -15.0000 -29.3865
26.9938 -15.0000 13.4582
-32.5494 -15.0000 9.9394
41.0876 -15.0000 -11.2830
-32.2979 -15.0000 23.7706
-38.6480 -15.0000 -21.2619
-18.2132 -15.0000 -18.2915
33.1012 -15.0000 29.7373
9.6762 -15.0000 -27.5521
18.8437 -15.0000 -10.6840
27.4259 -15.0000 25.8880
-18.1461 -15.0000 -28.9364
-16.5073 -15.0000 16.0144
-6.9625 -15.0000 -16.5856
-2.6672 -15.0000 -1.7553
-8.0627 -15.0000 -16.5962
-36.1366 -15.0000 9.6606
9.8199 -15.0000 -14.8444
-27.5393 -15.0000 21.7530
-34.7003 -15.0000 0.5854
2.5962 -15.0000 14.1853
-33.5417 -15.0000 13.0884
35.2046 -15.0000 26.5813
-6.8810 -15.0000 -21.9033
45.6516 -15.0000 7.2166
-2.6345 -15.0000 -26.5654
-1.0339 -15.0000 3.8327
-20.0917 -15.0000 -24.5136
-14.9521 -15.0000 -11.4146
-27.0711 -15.0000 -5.3965
-29.8171 -15.0000 3.2361
37.5043 -15.0000 11.5349
-24.5914 -15.0000 5.6910
45.9282 -15.0000 -10.6187
33.8288 -15.0000 -28.4463
48.1933 -15.0000 13.8186
-26.0909 -15.0000 -7.5489
-6.9146 -15.0000 5.5629
9.5259 -15.0000 -23.1325
-40.9096 -15.0000 -24.5891
-36.1305 -15.0000 -15.2748
19.7819 -15.0000 -22.0976
-14.4532 -15.0000 -26.5624
13.1021 -15.0000 4.2018
-27.2425 -15.0000 -26.7214
0.8413 -15.0000 -1.4580
-43.5613 -15.0000 19.2882
-40.0854 -15.0000 -20.3560
-19.2459 -15.0000 29.7389
20.7734 -15.0000 5.7733
1.9551 -15.0000 -0.5616
-6.2997 -15.0000 11.9532
-23.9101 -15.0000 9.4170
-9.5079 -15.0000 24.3577
-31.5625 -15.0000 -24.0485
49.5147 -9.3684 30.0000
-2.2515 -11.0746 30.0000
-16.9521 7.3276 30.0000
24.8554 6.0390 30.0000
24.8260 8.7115 30.0000
-4.3658 -6.2873 30.0000
-5.8209 3.0053 30.0000
-22.8851 4.3031 30.0000
44.7823 -7.6045 30.0000
-12.9035 -4.0796 30.0000
4.6505 -10.3027 30.0000
-20.7435 14.4992 30.0000
45.1092 -7.1783 30.0000
-25.9357 6.3216 30.0000
-46.4898 -0.3462 30.0000
-18.3647 -3.2660 30.0000
-44.7908 1.6958 30.0000
43.8509 -14.9824 30.0000
42.3886 10.0002 30.0000
-37.8640 -11.1486 30.0000
-49.6848 7.5236 30.0000
1.0090 9.1581 30.0000
39.5775 9.8835 30.0000
-23.4790 -6.3766 30.0000
39.9512 8.1175 30.0000
43.1442 9.5720 30.0000
44.5177 -8.3667 30.0000
43.5281 -14.1788 30.0000
34.7431 -13.2197 30.0000
-34.8009 -14.4985 30.0000
-18.8527 9.6980 30.0000
-31.3755 7.3290 30.0000
-2.6987 7.2734 30.0000
-4.9881 -13.9370 30.0000
-35.2877 0.1532 30.0000
47.7457 -10.2196 30.0000
47.1675 11.3308 30.0000
15.5604 -14.7418 30.0000
-5.4712 -7.8175 30.0000
-4.2827 1.1188 30.0000
17.1537 -13.8956 30.0000
21.2362 -8.5557 30.0000
11.1948 10.7737 30.0000
-21.9105 -14.8112 30.0000
-32.3128 14.6209 30.0000
14.2468 10.2130 30.0000
15.3518 -0.3151 30.0000
-7.4284 -2.8342 30.0000
28.9209 -2.3864 30.0000
-48.4218 2.2234 30.0000
26.3787 6.1495 30.0000
12.9345 -0.8336 30.0000
49.8547 -14.5107 30.0000
12.6625 -12.9417 30.0000
-13.7458 9.4065 30.0000
46.1073 2.1116 30.0000
-25.1569 -7.5721 30.0000
1.3022 11.8704 30.0000
-21.6868 7.1299 30.0000
20.8621 7.6867 30.0000
44.8147 -9.6339 30.0000
40.7006 3.8745 30.0000
-28.3670 -14.8845 30.0000
-18.1771 -10.4494 30.0000
18.0012 4.8525 30.0000
6.6808 8.1314 30.0000
-7.9931 5.2295 30.0000
17.9630 -13.4629 30.0000
41.6111 0.9754 30.0000
-27.2964 6.4826 30.0000
-44.5582 -12.6065 30.0000
-40.7124 -6.4967 30.0000
33.5442 12.6454 30.0000
47.6067 -2.0842 30.0000
-49.0738 5.5802 30.0000
43.7815 6.8602 30.0000
15.6526 -1.4866 30.0000
23.3598 -13.8133 30.0000
35.4791 5.6396 30.0000
-8.6649 -6.6746 30.0000
-6.7312 -7.3052 30.0000
48.6900 0.6788 30.0000
-19.9604 -1.2650 30.0000
-39.3148 -12.3996 30.0000
-26.2110 12.7598 30.0000
37.3367 -8.8602 -30.0000
36.9874 14.1189 -30.0000
13.6586 13.6504 -30.0000
-32.3937 3.5826 -30.0000
13.9654 -4.9017 -30.0000
-14.3773 -0.3410 -30.0000
-35.6366 -4.1093 -30.0000
-2.1272 14.8614 -30.0000
36.6064 -6.8776 -30.0000
-17.8819 -2.8984 -30.0000
-34.4916 9.3137 -30.0000
12.8422 -5.7620 -30.0000
40.2155 11.1149 -30.0000
-12.1131 10.6969 -30.0000
17.3925 -8.1862 -30.0000
14.5119 7.7044 -30.0000
20.3556 12.2767 -30.0000
-6.5849 2.9166 -30.0000
-48.7052 -3.0782 -30.0000
13.8918 3.1309 -30.0000
-47.2155 -9.5223 -30.0000
9.1333 -7.8164 -30.0000
30.7466 13.5633 -30.0000
-1.8815 5.9114 -30.0000
17.6439 8.1669 -30.0000
-47.3683 1.8424 -30.0000
-25.4169 9.9698 -30.0000
-23.4636 -3.5276 -30.0000
35.1066 6.7006 -30.0000
-14.5574 8.4249 -30.0000
24.9724 -10.9728 -30.0000
-18.6971 3.7985 -30.0000
-22.4637 -7.3930 -30.0000
-47.7064 -0.5130 -30.0000
-29.1853 -13.4916 -30.0000
-34.2416 0.6765 -30.0000
45.8906 4.5042 -30.0000
-27.4931 -0.3577 -30.0000
32.4575 3.6228 -30.0000
11.6441 12.8596 -30.0000
-2.8220 -1.7704 -30.0000
-14.1522 5.3236 -30.0000
22.8526 5.9075 -30.0000
-9.8622 -11.0824 -30.0000
-45.7564 -3.1730 -30.0000
-36.9155 5.0916 -30.0000
0.5409 11.6269 -30.0000
14.9583 11.6588 -30.0000
-28.3497 3.9685 -30.0000
42.7255 -5.0071 -30.0000
-22.2626 -7.2253 -30.0000
49.9966 10.8778 -30.0000
8.3882 -14.6424 -30.0000
16.1499 -11.6411 -30.0000
11.2889 11.0416 -30.0000
-7.4192 -3.0061 -30.0000
22.5767 14.6470 -30.0000
33.9546 -0.1719 -30.0000
-31.7937 8.4512 -30.0000
32.1603 -9.6555 -30.0000
-7.5206 13.3195 -30.0000
9.6936 -9.1927 -30.0000
3.7591 6.2550 -30.0000
-22.7261 9.6262 -30.0000
-48.4633 -2.5254 -30.0000
1.1918 -2.4147 -30.0000
25.4326 6.5940 -30.0000
-9.1128 -8.1229 -30.0000
11.8975 -2.2717 -30.0000
48.6455 -1.9094 -30.0000
-13.5632 -12.8345 -30.0000
21.8734 9.1199 -30.0000
42.1255 -4.9951 -30.0000
15.4906 -9.0002 -30.0000
-48.2617 -9.5292 -30.0000
37.2168 14.5573 -30.0000
5.5089 4.8380 -30.0000
29.8994 4.3179 -30.0000
-33.2766 2.8510 -30.0000
-41.8539 -0.9829 -30.0000
-0.5710 8.7181 -30.0000
-18.0542 -3.6018 -30.0000
-36.8167 3.3551 -30.0000
35.3969 -5.9792 -30.0000
-18.1126 7.9382 -30.0000
15.0000 17.7408 24.6559
15.0000 -12.7881 -22.8981
15.0000 61.0749 -17.8531
15.0000 67.3334 6.6181
15.0000 84.3421 24.8162
15.0000 15.8801 25.3531
15.0000 61.5287 24.4015
15.0000 43.9778 -4.7600
15.0000 3.4848 15.8791
15.0000 -0.4484 18.3700
15.0000 57.8389 -3.8432
15.0000 43.1491 -6.7182
15.0000 27.0617 25.5600
15.0000 -12.7863 14.9992
15.0000 57.6648 -8.9290
15.0000 -13.4078 21.0544
15.0000 10.5466 25.3532
15.0000 80.1065 25.9375
15.0000 21.4793 27.9474
15.0000 47.0022 -17.8716
15.0000 -13.3310 19.2987
15.0000 -12.1942 -9.8129
15.0000 31.8615 -14.2323
15.0000 60.5931 25.6838
15.0000 65.9135 -5.8172
15.0000 40.8115 -17.8562
15.0000 -6.3446 19.9325
15.0000 82.0937 -13.8862
15.0000 -5.1487 -21.0381
15.0000 19.6156 -10.3264
15.0000 20.5983 10.6717
15.0000 33.5481 2.8380
15.0000 80.8879 17.0576
15.0000 79.4683 6.1854
15.0000 20.4960 -10.4172
15.0000 22.1667 -27.3458
15.0000 -8.0590 -1.8418
15.0000 70.4984 26.1117
15.0000 36.8964 19.8320
15.0000 42.6910 -2.8229
15.0000 6.8849 -20.0603
15.0000 -0.4240 6.0765
15.0000 14.5852 15.8603
15.0000 81.5257 -0.5859
15.0000 84.6474 -3.9747
15.0000 6.2515 -20.3415
15.0000 24.5527 21.9196
15.0000 -14.2868 19.5136
15.0000 12.3490 -23.4223
15.0000 50.6116 10.2504
15.0000 58.8637 23.0720
15.0000 19.3569 -10.8072
15.0000 26.0782 -15.7635
15.0000 29.9688 -24.7972
15.0000 69.1921 7.7906
15.0000 16.5858 23.1397
15.0000 47.4212 -23.1373
15.0000 15.0289 -15.7856
15.0000 58.6250 -14.8822
15.0000 10.8144 -21.2615
15.0000 75.5040 16.1940
15.0000 36.1681 17.3118
15.0000 27.5495 -2.6677
15.0000 -1.2356 -22.8374
15.0000 39.3259 -19.3698
15.0000 17.3875 0.6409
15.0000 59.0022 27.7350
15.0000 17.0934 8.8751
15.0000 54.0574 13.7913
15.0000 19.7771 9.1452
15.0000 60.0428 2.9285
15.0000 45.7407 2.9624
15.0000 -7.4251 -13.7346
15.0000 -14.1022 -13.3395
15.0000 78.1349 -11.7066
15.0000 3.2136 11.4191
15.0000 73.6872 28.9396
15.0000 73.4856 -15.2566
15.0000 -3.3787 -20.0824
15.0000 17.6450 -24.3555
15.0000 68.6351 23.6486
15.0000 21.0569 -10.0401
15.0000 23.7827 -6.2674
15.0000 47.4471 7.9573
15.0000 80.2141 27.8185
15.0000 38.8691 -1.3502
-15.0000 66.0230 -29.8780
-15.0000 34.5274 6.0403
-15.0000 52.8222 -10.1002
-15.0000 35.4633 -7.5568
-15.0000 42.6187 20.2886
-15.0000 63.5125 -9.5737
-15.0000 47.1645 -23.0023
-15.0000 24.0068 22.5235
-15.0000 45.1776 -3.5568
-15.0000 49.6511 15.5191
-15.0000 -12.1198 22.4380
-15.0000 12.9391 -5.5214
-15.0000 74.8636 26.2575
-15.0000 75.3228 -10.7274
-15.0000 -7.8489 24.2972
-15.0000 29.3274 -2.1355
-15.0000 48.2507 -28.7997
-15.0000 38.2604 -22.5098
-15.0000 81.4361 -6.8215
-15.0000 -8.2870 11.3424
-15.0000 40.8874 11.3733
-15.0000 81.1563 -6.1312
-15.0000 38.8324 -17.4790
-15.0000 22.2193 -12.3544
-15.0000 17.1441 4.7981
-15.0000 -3.5366 3.6860
-15.0000 63.4638 -28.6145
-15.0000 -10.5251 -24.9425
-15.0000 80.2355 19.9702
-15.0000 50.5589 10.1111
-15.0000 -11.7751 11.9441
-15.0000 81.0591 -21.5665
-15.0000 22.5281 -12.1734
-15.0000 74.7914 27.3589
-15.0000 -12.3225 1.6954
-15.0000 41.3926 -0.9327
-15.0000 0.8500 8.7342
-15.0000 -5.1527 -22.4007
-15.0000 81.4546 17.6592
-15.0000 -11.0758 -27.1163
-15.0000 32.7298 -20.9632
-15.0000 69.4322 8.3707
-15.0000 76.4362 -9.1180
-15.0000 51.5022 -8.1638
-15.0000 45.9592 2.9750
-15.0000 80.1434 -1.2515
-15.0000 58.7003 -5.7154
-15.0000 17.5112 -23.9487
-15.0000 83.4188 -2.9651
-15.0000 3.7079 -5.3604
-15.0000 23.2058 -1.6208
-15.0000 39.4464 -12.9057
-15.0000 77.6419 23.8726
-15.0000 54.3692 7.3599
-15.0000 36.1965 -21.5964
-15.0000 -3.7096 13.6560
-15.0000 -2.5734 26.0184
-15.0000 53.7059 -24.7343
-15.0000 37.0970 5.2691
-15.0000 41.2940 25.2669
-15.0000 17.4534 3.9950
-15.0000 75.8015 27.3344
-15.0000 65.3893 -25.5016
-15.0000 68.0176 -16.4630
-15.0000 70.4487 -12.9463
-15.0000 4.1521 -8.2678
-15.0000 81.3817 -21.0378
-15.0000 83.2516 15.8605
-15.0000 83.5771 18.1700
-15.0000 1.3254 -10.8594
-15.0000 57.1806 -16.8585
-15.0000 34.0369 -7.9708
-15.0000 70.5029 5.7357
-15.0000 72.2831 22.1051
-15.0000 0.8713 14.7458
-15.0000 -1.5841 7.5778
-15.0000 55.4113 -13.6779
-15.0000 -5.3179 19.0171
-15.0000 -3.4189 -26.9549
-15.0000 45.8750 23.3254
-15.0000 -10.1253 -16.4275
-15.0000 2.6111 -23.9334
-15.0000 55.1457 -1.7500
-15.0000 77.0379 13.5174
-15.0000 8.2792 -20.4858
-15.0000 71.3540 11.9961
-9.3676 85.0000 15.1470
-5.0965 85.0000 -17.2994
0.2515 85.0000 3.2845
-0.7905 85.0000 4.5241
-6.6929 85.0000 28.6490
9.3512 85.0000 24.0317
-11.8798 85.0000 -18.6296
12.8091 85.0000 -26.9510
-10.9636 85.0000 2.7640
-10.1077 85.0000 20.4653
0.6533 85.0000 -24.2536
4.2308 85.0000 -22.2492
-7.8125 85.0000 -1.5095
-11.4465 85.0000 22.8446
1.8936 85.0000 -12.4866
12.8666 85.0000 -22.0418
14.0838 85.0000 -4.0830
5.3200 85.0000 -23.3419
-12.1529 85.0000 -17.0527
-1.3037 85.0000 21.6538
8.1008 85.0000 17.1183
8.1925 85.0000 14.8043
-8.4426 85.0000 6.4602
1.4521 85.0000 -20.0788
6.8512 85.0000 -29.9304
1.8277 85.0000 28.6294
13.7784 85.0000 29.5821
-5.8565 85.0000 1.4861
0.2284 85.0000 -4.2630
1.8993 85.0000 11.4074
-11.2091 85.0000 3.1494
4.7667 85.0000 29.3772
-11.6161 85.0000 0.9142
0.3253 85.0000 -29.6205
12.7204 85.0000 -24.1854
-7.8898 85.0000 -6.6098
-2.0772 85.0000 5.6092
-9.3051 85.0000 -19.9778
7.9865 85.0000 -6.8901
10.1017 85.0000 6.0892
8.3495 85.0000 -13.7503
5.4209 85.0000 -10.6956
-3.5813 85.0000 10.8830
7.6444 85.0000 -12.8714
0.0738 85.0000 -17.6923
9.6262 85.0000 -7.6514
10.1260 85.0000 -19.5849
3.5015 85.0000 27.7215
9.5667 85.0000 4.2469
2.3714 85.0000 -25.8952
-8.3272 85.0000 -0.1640
5.6568 85.0000 17.2011
-2.6209 85.0000 25.6304
-12.8793 85.0000 18.4857
14.8793 85.0000 -2.0182
11.3449 85.0000 2.2024
3.8928 85.0000 -13.2545
-1.9757 85.0000 -8.0598
13.7491 85.0000 -28.9442
8.7633 85.0000 6.1827
-6.7253 85.0000 16.9672
0.7905 85.0000 27.0809
10.9760 85.0000 -2.6087
2.8605 85.0000 -4.0190
0.0423 85.0000 27.8107
8.6162 85.0000 -12.2281
-12.1289 85.0000 -16.9474
14.0856 85.0000 -12.1215
5.9345 85.0000 27.8565
6.1011 85.0000 -26.4563
13.2750 85.0000 -11.8822
-13.7272 85.0000 -11.2117
-4.7972 85.0000 -8.2842
-5.1559 85.0000 -2.9456
3.9586 85.0000 9.0906
12.0611 85.0000 15.6349
-5.1216 85.0000 14.3406
-6.0543 85.0000 -12.2269
-2.2369 85.0000 -26.5778
-9.0955 85.0000 22.6840
12.2931 85.0000 9.6263
11.7515 85.0000 3.1805
-1.7940 85.0000 6.9384
3.5076 85.0000 29.5399
-14.7807 85.0000 -4.5402
12.9122 -15.0000 -21.4363
12.3628 -15.0000 -9.1131
-7.8899 -15.0000 -2.7197
3.0981 -15.0000 -4.3614
-14.5664 -15.0000 -16.1159
-3.8814 -15.0000 -26.7669
-10.3172 -15.0000 -8.0423
12.2031 -15.0000 27.4756
11.8333 -15.0000 19.5858
-12.4551 -15.0000 23.7004
-13.3083 -15.0000 -24.8049
5.2518 -15.0000 -20.8096
-8.4079 -15.0000 -26.5298
1.9521 -15.0000 17.3850
-3.1118 -15.0000 11.3217
-2.7593 -15.0000 19.0971
-3.4085 -15.0000 -6.6338
6.0423 -15.0000 -17.0899
12.1740 -15.0000 -8.6650
0.0920 -15.0000 -4.0634
1.3234 -15.0000 28.1934
-10.3142 -15.0000 -0.6465
-4.7481 -15.0000 -24.4124
-13.3991 -15.0000 28.5682
-6.4629 -15.0000 3.8220
-3.1935 -15.0000 19.7500
-3.9736 -15.0000 -7.2210
-13.3703 -15.0000 0.9046
-1.3687 -15.0000 3.7787
9.4047 -15.0000 17.0055
-1.8470 -15.0000 1.4113
-1.2227 -15.0000 -20.0761
-13.4677 -15.0000 0.5614
13.5592 -15.0000 13.3996
12.1362 -15.0000 -4.3873
10.6322 -15.0000 14.1604
-5.6625 -15.0000 25.4626
2.0844 -15.0000 -21.1107
12.1216 -15.0000 21.6954
11.2768 -15.0000 27.5207
8.7409 -15.0000 11.6329
-10.6770 -15.0000 16.1247
6.6489 -15.0000 13.4534
7.3054 -15.0000 -18.8748
-11.6732 -15.0000 25.9913
9.8503 -15.0000 14.7720
-13.5363 -15.0000 6.9111
-3.0204 -15.0000 -15.0405
-13.1729 -15.0000 20.7373
-5.7438 -15.0000 -11.4701
-7.8540 -15.0000 -20.0693
-9.7959 -15.0000 -23.2951
9.5823 -15.0000 27.2065
4.8953 -15.0000 -7.6524
-1.8724 -15.0000 6.1339
-3.2105 -15.0000 -16.1092
-8.7915 -15.0000 6.8414
13.1774 -15.0000 0.7452
8.7221 -15.0000 -10.4284
2.6258 -15.0000 -23.9406
-0.9230 -15.0000 -12.1121
-0.6829 -15.0000 1.1263
-9.9608 -15.0000 2.0491
12.4893 -15.0000 -23.9812
-3.6120 -15.0000 -13.6768
14.1226 -15.0000 -15.6559
11.9589 -15.0000 18.4008
4.5506 -15.0000 -13.2117
-4.3382 -15.0000 8.6135
14.2513 -15.0000 1.4267
-9.8065 -15.0000 -15.9436
11.0042 -15.0000 -11.1470
-14.2267 -15.0000 -27.6149
-5.8414 -15.0000 -27.5015
-11.2746 -15.0000 18.0073
6.5107 -15.0000 7.8541
-9.9670 -15.0000 -24.8874
1.3234 -15.0000 -20.7978
3.2279 -15.0000 -12.2142
6.5939 -15.0000 -6.7737
0.2119 -15.0000 28.7016
12.9818 -15.0000 -5.7167
3.4623 -15.0000 22.5852
13.7244 -15.0000 3.2937
2.6730 -15.0000 22.4228
-0.0009 67.8753 30.0000
13.4178 33.6339 30.0000
3.5828 -2.2936 30.0000
3.9986 70.0785 30.0000
8.5542 73.6841 30.0000
-6.9756 11.5224 30.0000
11.2388 16.0360 30.0000
-3.5794 71.3214 30.0000
-5.3371 9.0613 30.0000
12.6026 37.2919 30.0000
-0.5009 54.7232 30.0000
11.3649 19.2835 30.0000
-6.3588 11.4373 30.0000
14.7410 79.7930 30.0000
0.9239 1.8003 30.0000
-9.4165 -9.8726 30.0000
11.9057 18.0115 30.0000
-9.2717 25.2686 30.0000
-4.7848 -4.1828 30.0000
-1.2356 25.6857 30.0000
-13.5746 -9.6057 30.0000
12.4704 51.0585 30.0000
14.2120 -10.7998 30.0000
12.8109 45.6774 30.0000
5.6417 50.9353 30.0000
11.3021 67.3677 30.0000
13.0481 40.6422 30.0000
-6.2586 23.7245 30.0000
13.9382 -10.3306 30.0000
-2.1144 41.9935 30.0000
-9.5190 43.0158 30.0000
-9.4835 62.9680 30.0000
12.1530 16.5681 30.0000
-7.7661 15.3799 30.0000
-11.8057 55.8764 30.0000
-14.7450 39.0021 30.0000
-12.8573 -1.6058 30.0000
14.1263 39.3185 30.0000
2.8866 31.0102 30.0000
-7.6556 2.0457 30.0000
4.2425 -4.8755 30.0000
13.2722 74.3268 30.0000
13.3337 38.5669 30.0000
3.7661 51.9429 30.0000
-9.3210 9.9629 30.0000
1.9913 75.8829 30.0000
13.7105 45.4543 30.0000
6.2260 -14.7515 30.0000
-1.1298 14.1943 30.0000
6.2202 3.0329 30.0000
-1.3515 70.5551 30.0000
9.2716 23.7092 30.0000
3.3960 45.7684 30.0000
-4.1381 74.1870 30.0000
-10.9274 -3.6270 30.0000
10.5329 69.9033 30.0000
0.5577 10.1441 30.0000
-6.1263 56.3828 30.0000
14.8849 66.4583 30.0000
-13.0504 -0.3526 30.0000
13.2383 82.2841 30.0000
13.7839 22.4576 30.0000
-2.9995 79.4311 30.0000
-14.5970 13.3601 30.0000
5.8092 3.0452 30.0000
-1.9406 -1.6002 30.0000
-10.0949 14.3462 30.0000
14.2814 60.0225 30.0000
0.6028 57.6979 30.0000
-10.2825 7.6939 30.0000
-1.0821 25.8790 30.0000
7.2478 58.3851 30.0000
10.0855 62.5341 30.0000
7.4029 42.1824 30.0000
9.1799 80.3536 30.0000
7.3893 44.9923 30.0000
-13.7423 11.1483 30.0000
-14.8590 -0.2511 30.0000
13.7967 28.8493 30.0000
8.2293 72.4762 30.0000
-12.9508 45.4187 30.0000
-2.6949 12.4266 30.0000
-2.3803 54.5697 30.0000
6.1948 31.6842 30.0000
11.5614 54.4438 30.0000
-7.5232 0.6312 -30.0000
13.5196 53.5326 -30.0000
-11.1164 -2.7725 -30.0000
-0.4196 -0.9846 -30.0000
0.3197 52.1839 -30.0000
-1.3058 18.6181 -30.0000
-12.0229 22.5491 -30.0000
-11.7670 31.4842 -30.0000
-3.6017 53.8074 -30.0000
-6.8741 30.7755 -30.0000
2.8842 -7.5634 -30.0000
-3.5703 -9.2860 -30.0000
8.7132 4.1869 -30.0000
-5.1753 7.7814 -30.0000
-11.1420 33.5735 -30.0000
11.2696 69.8219 -30.0000
10.5151 6.2071 -30.0000
2.9999 36.2049 -30.0000
3.5860 54.8720 -30.0000
-14.9752 15.0558 -30.0000
8.6391 29.0508 -30.0000
4.8687 42.6875 -30.0000
-1.5495 22.4394 -30.0000
-0.2008 61.5014 -30.0000
1.5597 70.2855 -30.0000
14.1457 72.6781 -30.0000
14.2927 67.5466 -30.0000
10.4166 54.7073 -30.0000
-10.1888 29.5400 -30.0000
-11.5903 6.7211 -30.0000
-10.5847 64.6831 -30.0000
14.6087 73.7080 -30.0000
-1.9473 14.8809 -30.0000
1.8560 4.8097 -30.0000
-5.6363 46.7349 -30.0000
-13.7820 35.0842 -30.0000
-14.0060 -14.5683 -30.0000
-7.0110 73.8098 -30.0000
-12.9886 -3.4804 -30.0000
-8.2968 68.7923 -30.0000
2.4746 16.2374 -30.0000
-2.5008 62.8307 -30.0000
-4.7074 13.3586 -30.0000
-7.9158 43.1606 -30.0000
-3.3836 61.4909 -30.0000
11.7820 31.1485 -30.0000
-1.0963 36.5392 -30.0000
-11.9603 37.3193 -30.0000
-3.1503 74.9665 -30.0000
11.2834 79.3645 -30.0000
11.7204 -6.9098 -30.0000
9.5675 12.0692 -30.0000
-6.3693 38.3861 -30.0000
-1.4551 19.9223 -30.0000
-5.2932 69.8803 -30.0000
13.9359 45.8731 -30.0000
-6.9618 -3.2054 -30.0000
-14.8819 32.9717 -30.0000
9.9903 -5.4124 -30.0000
-3.4198 -11.2821 -30.0000
-9.8563 26.4187 -30.0000
-5.9606 65.0863 -30.0000
-1.0421 70.7312 -30.0000
14.2544 28.6425 -30.0000
8.2033 38.5165 -30.0000
5.8863 5.1585 -30.0000
2.8932 80.0916 -30.0000
-9.6712 81.0819 -30.0000
-3.4956 57.6531 -30.0000
-5.2663 56.0760 -30.0000
-4.5389 41.6233 -30.0000
-2.8312 -8.3434 -30.0000
14.0468 44.2506 -30.0000
0.4911 -7.7995 -30.0000
-4.9335 63.7566 -30.0000
-1.9209 10.2106 -30.0000
-1.3368 55.6093 -30.0000
1.8351 23.2955 -30.0000
7.1942 -7.5695 -30.0000
1.2315 63.5040 -30.0000
-11.1601 70.0009 -30.0000
-3.2111 -0.9273 -30.0000
0.2255 37.3733 -30.0000
-9.1507 35.2106 -30.0000
-7.8637 0.7448 -30.0000
