ply
format ascii 1.0
element vertex 1024
property float x
property float y
property float z
end_header
50.0000 1.1260 -10.3999
50.0000 -5.1583 -33.6726
50.0000 0.9727 -1.3818
50.0000 -14.7125 -4.1902
50.0000 -5.8823 32.7574
50.0000 -1.4516 -17.6243
50.0000 6.0829 32.5133
50.0000 -9.4552 23.7680
50.0000 -0.6282 15.5855
50.0000 -4.9107 -36.9421
50.0000 -8.7211 -17.9027
50.0000 -12.8996 -28.5361
50.0000 5.5961 -30.7402
50.0000 -10.1665 20.6529
50.0000 -9.6481 -39.9429
50.0000 -7.6467 24.1149
50.0000 -4.3571 27.6211
50.0000 -7.4768 -4.1344
50.0000 -8.0025 31.8145
50.0000 7.0791 -26.2880
50.0000 -5.0073 33.4365
50.0000 -1.5036 -9.7396
50.0000 12.4350 31.2283
50.0000 -6.6599 21.8947
50.0000 -11.3332 0.3641
50.0000 0.0946 -13.4857
50.0000 -11.7115 -3.6924
50.0000 2.7614 23.6329
50.0000 11.3185 29.6340
50.0000 -2.8073 -12.0606
50.0000 -5.4639 11.3364
50.0000 13.2518 -33.8287
50.0000 8.7469 11.5303
50.0000 0.2694 -22.3806
50.0000 12.9067 25.7200
50.0000 5.4939 8.7714
50.0000 2.6854 7.6527
50.0000 -11.4518 -13.1643
50.0000 9.2560 -37.1486
50.0000 -3.1915 15.9618
50.0000 -14.9546 -23.7899
50.0000 2.9466 25.5315
50.0000 -4.7498 24.9485
50.0000 -2.1754 16.6288
50.0000 -6.1330 -30.7633
50.0000 10.3558 -9.7770
50.0000 4.7393 -13.5266
50.0000 5.7704 2.7007
50.0000 -6.3955 -12.1317
50.0000 8.7223 38.0335
50.0000 0.9670 -30.1074
50.0000 -2.8432 -4.4462
50.0000 -0.2610 -34.9138
50.0000 11.2611 -22.5859
50.0000 -2.8898 -8.7201
50.0000 -8.3573 -11.5302
50.0000 -3.2863 8.3393
50.0000 13.1974 -9.7610
50.0000 13.4612 0.7039
50.0000 -11.2612 -20.8523
50.0000 -7.9359 21.6915
50.0000 -2.9643 -16.1674
50.0000 0.4751 -26.0731
50.0000 11.3489 1.0434
50.0000 10.4867 23.7869
50.0000 13.9167 -6.4120
50.0000 4.4286 28.6558
50.0000 -8.3333 7.0088
50.0000 4.3692 -23.6579
50.0000 -9.2547 37.3471
50.0000 -12.5435 -13.7667
50.0000 -5.5634 24.3996
50.0000 12.8870 6.4693
50.0000 13.1136 2.0050
50.0000 9.9593 -12.6276
50.0000 -8.0047 18.4550
50.0000 -4.7807 24.9117
50.0000 -3.5930 -38.5036
50.0000 14.5918 16.4579
50.0000 -2.1629 -35.5647
50.0000 8.9904 -35.5304
50.0000 13.0418 -35.5785
50.0000 13.2315 33.9451
50.0000 -9.9265 -39.6642
50.0000 5.1833 -17.8732
50.0000 12.2687 -14.5861
-50.0000 2.9428 -5.1939
-50.0000 -1.8324 17.6206
-50.0000 9.3163 33.7268
-50.0000 0.9502 34.7651
-50.0000 -2.8532 -39.0811
-50.0000 -8.0093 -2.8588
-50.0000 2.1518 -23.9757
-50.0000 6.0974 6.4223
-50.0000 -14.9119 8.9164
-50.0000 -12.5010 -7.8547
-50.0000 11.6187 6.5956
-50.0000 11.9915 34.2140
-50.0000 4.7852 -19.1559
-50.0000 9.5272 -30.5305
-50.0000 3.9887 -3.5318
-50.0000 -13.0829 20.6166
-50.0000 -5.5981 1.8920
-50.0000 -11.4992 -16.9799
-50.0000 -13.7322 29.5412
-50.0000 13.7157 -25.4060
-50.0000 -11.4158 -2.9063
-50.0000 7.5396 27.1043
-50.0000 -14.1205 -24.6211
-50.0000 -11.6513 12.0351
-50.0000 -11.5635 16.2294
-50.0000 13.9431 -26.5688
-50.0000 -6.1458 4.4613
-50.0000 -7.2885 -22.3929
-50.0000 8.3760 -28.8286
-50.0000 -7.4783 -4.9062
-50.0000 7.6985 -27.9867
-50.0000 12.5595 13.8321
-50.0000 13.7315 7.2155
-50.0000 -7.0335 17.2776
-50.0000 2.5028 -38.0547
-50.0000 8.5541 -19.5595
-50.0000 1.5760 -38.2867
-50.0000 14.7005 16.2050
-50.0000 -1.7536 -9.0382
-50.0000 3.6969 17.7717
-50.0000 -6.3034 -13.5392
-50.0000 10.0537 14.1924
-50.0000 -5.5761 -30.0560
-50.0000 -6.1273 -21.3798
-50.0000 11.5457 -6.6604
-50.0000 5.2581 -34.7800
-50.0000 -3.3389 -0.3516
-50.0000 2.7758 15.3500
-50.0000 8.1269 12.2360
-50.0000 -8.4285 -33.0038
-50.0000 -6.9576 38.1253
-50.0000 -14.3351 -14.1097
-50.0000 -5.9503 -28.6797
-50.0000 -7.0328 8.1299
-50.0000 -3.5392 38.0512
-50.0000 -2.6376 -30.4107
-50.0000 -6.3056 -31.4528
-50.0000 -11.6351 22.6406
-50.0000 10.9382 26.7689
-50.0000 6.5806 -29.2326
-50.0000 -9.0509 -24.4328
-50.0000 -3.1717 -2.2771
-50.0000 -5.0559 -21.3165
-50.0000 1.6533 -0.7755
-50.0000 -4.2207 2.8925
-50.0000 -7.6946 2.9173
-50.0000 -14.1578 29.6175
-50.0000 -10.8138 -37.7550
-50.0000 1.6134 39.3667
-50.0000 -8.5131 18.7440
-50.0000 7.3758 36.0736
-50.0000 1.9722 -38.8640
-50.0000 -14.0720 29.1066
-50.0000 6.4361 21.4504
-50.0000 -0.0570 33.4120
-50.0000 9.5860 -32.1676
-50.0000 2.5954 7.8456
-50.0000 11.3782 -17.3424
-50.0000 -0.4411 39.0572
-50.0000 5.2808 19.3617
-50.0000 -1.2947 -14.9248
-50.0000 -7.4006 -38.2751
-50.0000 -14.3681 -18.1233
-50.0000 -13.9344 -36.8550
-50.0000 -3.1852 13.5634
-50.0000 -13.7890 -14.7890
-26.8546 15.0000 -12.3964
-1.2853 15.0000 16.0465
8.0034 15.0000 15.6921
-27.6963 15.0000 11.3279
27.9447 15.0000 19.5381
41.7904 15.0000 23.7275
27.8589 15.0000 -15.4240
12.9027 15.0000 -7.5129
-10.0234 15.0000 -32.4467
35.4624 15.0000 -0.1498
-15.4496 15.0000 29.8488
14.5436 15.0000 5.8214
-1.4398 15.0000 -26.6099
24.2148 15.0000 -32.3772
48.8120 15.0000 8.5232
-13.1849 15.0000 -2.5838
-10.6693 15.0000 -22.7998
-16.4260 15.0000 -24.7744
-39.7578 15.0000 -24.3027
-14.9755 15.0000 -7.6793
-3.5919 15.0000 6.6183
5.6559 15.0000 -19.6850
39.4257 15.0000 7.3102
-41.4961 15.0000 20.9819
-47.6297 15.0000 33.0591
-5.1828 15.0000 -37.0845
3.8152 15.0000 -12.4710
-30.9979 15.0000 -16.1516
21.6874 15.0000 8.8859
-22.2801 15.0000 38.9863
11.0938 15.0000 -39.6132
19.9125 15.0000 38.6386
-17.2490 15.0000 -15.2977
-30.8444 15.0000 26.3534
-24.0183 15.0000 -28.3035
21.6100 15.0000 -26.3591
8.8436 15.0000 5.6987
-11.7940 15.0000 -34.7709
40.1223 15.0000 -30.6176
25.5396 15.0000 -17.6587
-10.1422 15.0000 24.9202
-34.7658 15.0000 17.6253
29.8454 15.0000 4.4536
-43.3424 15.0000 -34.3327
21.1258 15.0000 39.2635
14.6190 15.0000 20.1866
-24.0281 15.0000 -34.8055
-1.8141 15.0000 -30.7842
37.8766 15.0000 -36.9887
-4.0354 15.0000 -3.8210
-2.2355 15.0000 9.6689
37.0284 15.0000 26.3272
-3.2771 15.0000 -23.0520
9.5617 15.0000 38.1824
12.5770 15.0000 10.1287
38.7461 15.0000 -1.9764
21.6489 15.0000 -39.8362
-6.4156 15.0000 15.7402
-33.2107 15.0000 -16.4268
-34.3121 15.0000 -19.7820
37.5994 15.0000 13.6413
-32.3222 15.0000 0.0703
-48.4360 15.0000 29.6638
-40.0523 15.0000 36.5665
10.6307 15.0000 -31.7779
-26.7421 15.0000 13.0187
35.6726 15.0000 29.4123
31.9394 15.0000 -15.3659
-36.4606 15.0000 21.8741
-47.2459 15.0000 -26.3927
-0.8898 15.0000 21.1589
35.2523 15.0000 -19.6036
30.8578 15.0000 35.1045
-25.0107 15.0000 -24.1029
-34.2200 15.0000 8.1266
15.3307 15.0000 22.1244
14.9274 15.0000 -18.1413
-8.1324 15.0000 8.4668
-44.5047 15.0000 11.9426
-21.5309 15.0000 27.8647
4.2746 15.0000 30.1039
-36.4892 15.0000 24.2295
-5.5316 15.0000 -36.6900
41.1208 15.0000 -20.9631
34.5606 15.0000 35.2584
26.6539 -15.0000 -9.8409
-45.2170 -15.0000 -6.0056
48.0000 -15.0000 -12.5696
47.7684 -15.0000 -33.0376
-32.2145 -15.0000 13.4767
48.3633 -15.0000 -30.5633
47.7400 -15.0000 -26.0531
-10.4813 -15.0000 0.7289
12.2420 -15.0000 -1.2888
3.8185 -15.0000 -22.9839
-10.1189 -15.0000 18.8161
-4.8828 -15.0000 -38.2403
-36.6790 -15.0000 -25.0936
-36.2375 -15.0000 -15.3481
25.5168 -15.0000 1.7561
-28.6490 -15.0000 14.4835
-5.4977 -15.0000 4.4811
-11.2564 -15.0000 -0.2043
33.8132 -15.0000 -14.4623
1.4746 -15.0000 -2.1651
13.6958 -15.0000 -31.0758
-17.0691 -15.0000 -10.9755
33.2929 -15.0000 17.8064
-0.4194 -15.0000 -29.9834
18.7204 -15.0000 30.8938
-9.4774 -15.0000 12.0671
31.4553 -15.0000 -8.2836
30.8546 -15.0000 32.9793
-22.7302 -15.0000 18.3471
-38.0514 -15.0000 -36.0396
5.7425 -15.0000 -32.2196
35.3378 -15.0000 25.7561
-9.9868 -15.0000 -39.3587
25.2735 -15.0000 -34.7015
9.5699 -15.0000 -38.5561
-20.4413 -15.0000 36.1743
23.9574 -15.0000 33.9517
17.8100 -15.0000 23.1180
-21.6349 -15.0000 0.7948
-17.5149 -15.0000 -3.7380
-43.8926 -15.0000 22.1107
-48.1302 -15.0000 -4.9707
47.8097 -15.0000 4.9142
-44.3834 -15.0000 -14.4482
-10.4093 -15.0000 -14.8985
-9.4105 -15.0000 -35.0862
-41.3626 -15.0000 28.4125
-20.5866 -15.0000 12.8158
30.8057 -15.0000 -35.7035
22.1939 -15.0000 -15.1028
-36.6056 -15.0000 10.2277
46.0781 -15.0000 14.0298
-28.0331 -15.0000 -29.0236
-36.5032 -15.0000 -36.8586
-27.6887 -15.0000 27.5636
-31.3757 -15.0000 -21.6779
42.2569 -15.0000 -14.5795
-3.0060 -15.0000 32.2948
-42.5044 -15.0000 32.4752
40.0247 -15.0000 -36.5278
-43.1825 -15.0000 -10.5906
-42.3544 -15.0000 -1.3525
3.3230 -15.0000 -0.2827
26.9279 -15.0000 -13.2383
21.0139 -15.0000 38.1117
-48.7377 -15.0000 28.8571
33.0330 -15.0000 25.7473
-7.2593 -15.0000 9.8900
14.5628 -15.0000 13.8057
-30.3130 -15.0000 -6.0481
-34.4072 -15.0000 33.8925
48.2558 -15.0000 37.3185
13.1921 -15.0000 -1.5624
-16.0749 -15.0000 17.1800
30.8418 -15.0000 21.6656
40.4967 -15.0000 -24.8891
36.0700 -15.0000 28.2016
17.5010 -15.0000 10.6722
-5.4262 -15.0000 21.0275
0.7469 -15.0000 -23.2430
-16.8407 -15.0000 -3.0009
-17.6408 -15.0000 -26.8068
-10.8326 -15.0000 33.0840
12.4202 -15.0000 13.5039
28.0306 -15.0000 -37.6491
-16.8593 -4.4842 40.0000
-30.0588 -11.1872 40.0000
14.9478 1.0590 40.0000
6.9498 9.3393 40.0000
28.6225 14.0337 40.0000
-40.4447 -11.9069 40.0000
20.0229 14.0565 40.0000
-4.8138 1.4296 40.0000
-43.6361 -8.4086 40.0000
46.1525 -3.6097 40.0000
16.0635 -12.3730 40.0000
38.5220 3.0399 40.0000
-48.1227 -3.2348 40.0000
-30.4614 8.0960 40.0000
41.9598 5.7554 40.0000
9.6423 -1.2430 40.0000
5.3556 -7.2550 40.0000
46.7693 8.5617 40.0000
-9.9693 6.5018 40.0000
49.0640 9.6882 40.0000
-5.0703 12.1004 40.0000
15.3550 -13.2015 40.0000
-17.7317 -0.8017 40.0000
21.3347 6.8358 40.0000
12.7042 -5.6111 40.0000
-37.1589 -11.0306 40.0000
37.5517 8.3595 40.0000
-17.0447 -3.1372 40.0000
14.2767 10.0058 40.0000
20.1813 -10.2982 40.0000
13.9135 14.1969 40.0000
-46.9152 -5.4826 40.0000
7.5984 -8.7781 40.0000
-20.2235 7.8813 40.0000
-19.2404 5.9955 40.0000
42.0522 -14.5631 40.0000
-15.4675 -8.3916 40.0000
-29.3369 5.2360 40.0000
46.7451 6.9786 40.0000
-15.2394 -4.6389 40.0000
0.4618 1.4181 40.0000
-47.2398 -6.9250 40.0000
-43.2743 -5.3289 40.0000
48.0961 11.3493 40.0000
13.5320 -2.4436 40.0000
-49.7619 -14.8833 40.0000
-16.6977 -9.5759 40.0000
29.8314 3.1307 40.0000
3.1361 -6.9878 40.0000
-48.3044 -1.2132 40.0000
25.3553 5.9718 40.0000
-1.4238 -11.2864 40.0000
6.1354 8.8533 40.0000
9.1094 0.2714 40.0000
-49.6515 2.6506 40.0000
-9.2307 5.4561 40.0000
16.3855 8.7919 40.0000
26.9792 9.5939 40.0000
-12.8440 4.5941 40.0000
0.7481 8.1144 40.0000
-38.4378 4.2723 40.0000
27.9254 -2.6098 40.0000
18.4861 -0.9164 40.0000
-27.0708 -13.2996 40.0000
31.0580 -3.4441 40.0000
39.3999 -3.8053 40.0000
10.5566 13.8844 40.0000
23.5552 4.2122 40.0000
-15.3320 8.9343 40.0000
44.3357 13.1833 40.0000
-25.5076 4.3622 40.0000
10.2809 13.2751 40.0000
-29.5594 11.8777 40.0000
40.9607 -10.6089 40.0000
-15.4071 -10.0360 40.0000
-28.1375 13.8741 40.0000
16.7704 -5.1272 40.0000
2.0848 6.6350 40.0000
18.7832 8.7162 40.0000
-1.3516 -6.0177 40.0000
-1.0318 8.3094 40.0000
0.9429 13.0094 40.0000
5.2027 -1.9274 40.0000
9.4816 -2.6892 40.0000
-13.8245 6.0238 40.0000
27.8943 13.5731 -40.0000
-28.4260 -9.4571 -40.0000
10.7375 -6.0065 -40.0000
10.1594 13.9461 -40.0000
35.9467 -12.4325 -40.0000
17.3387 -14.0270 -40.0000
15.4882 10.4322 -40.0000
22.8603 -13.4649 -40.0000
17.3296 -9.5545 -40.0000
-35.3695 -1.0766 -40.0000
41.8626 12.7890 -40.0000
41.5828 6.0855 -40.0000
-49.7485 13.3575 -40.0000
25.5611 5.9149 -40.0000
-9.2141 13.8368 -40.0000
2.7432 11.3611 -40.0000
-2.2539 3.3155 -40.0000
14.9590 2.2990 -40.0000
36.9954 7.2270 -40.0000
47.6413 -2.6974 -40.0000
-17.2990 -14.1712 -40.0000
37.8743 14.4000 -40.0000
23.6349 12.7847 -40.0000
-46.9633 -4.7788 -40.0000
-10.3416 4.1281 -40.0000
36.3673 -6.2510 -40.0000
31.6313 -14.8860 -40.0000
-3.1222 -12.0474 -40.0000
34.3598 -7.4793 -40.0000
48.0166 14.2592 -40.0000
-19.3611 1.5922 -40.0000
6.7909 -1.3611 -40.0000
45.7123 -5.3828 -40.0000
6.1512 -2.3635 -40.0000
-29.5945 6.2864 -40.0000
-15.7930 6.0724 -40.0000
-22.1294 9.8676 -40.0000
-3.9036 -3.0992 -40.0000
-39.2678 10.2548 -40.0000
44.6435 2.0910 -40.0000
29.3061 -9.7422 -40.0000
-1.8441 1.5757 -40.0000
-4.7259 2.2834 -40.0000
44.9163 10.9035 -40.0000
-1.5220 12.6954 -40.0000
-48.4143 -9.1213 -40.0000
-2.5156 7.4676 -40.0000
21.0528 -4.8619 -40.0000
-14.5642 -10.0873 -40.0000
13.1496 12.1774 -40.0000
8.1303 3.5848 -40.0000
17.8426 5.2726 -40.0000
-47.9341 12.2523 -40.0000
22.9671 3.2802 -40.0000
21.1859 -14.0942 -40.0000
-47.4382 6.3869 -40.0000
-24.8894 6.1318 -40.0000
-3.5015 14.6242 -40.0000
-1.9463 5.5107 -40.0000
-43.6111 -3.8859 -40.0000
20.3251 13.5160 -40.0000
30.3948 -7.4082 -40.0000
-20.9753 -1.5218 -40.0000
-18.9909 -3.3786 -40.0000
49.5430 2.3353 -40.0000
-45.5585 -11.9421 -40.0000
19.2879 1.3834 -40.0000
-10.8119 -11.9707 -40.0000
10.0396 -0.1860 -40.0000
27.4182 5.7372 -40.0000
-11.7647 -3.4734 -40.0000
20.0418 6.8813 -40.0000
-40.0076 5.8560 -40.0000
-34.8946 -6.9845 -40.0000
-14.6976 -9.7509 -40.0000
20.3361 12.9365 -40.0000
-5.9207 5.7954 -40.0000
-11.7356 13.2267 -40.0000
46.0600 -4.1689 -40.0000
-20.9896 -12.0487 -40.0000
24.7983 -12.4638 -40.0000
-28.7346 7.8459 -40.0000
14.0966 7.9239 -40.0000
2.0918 -9.1189 -40.0000
32.2201 -11.4582 -40.0000
50.0000 -25.1096 0.9646
50.0000 -71.9342 36.7176
50.0000 3.0713 27.4927
50.0000 -12.8245 12.9703
50.0000 -67.9910 -1.2967
50.0000 -49.0902 -25.4963
50.0000 -6.3718 -20.8492
50.0000 -23.7245 -39.5764
50.0000 -63.4358 13.6758
50.0000 -19.6621 15.9651
50.0000 -64.3594 16.2406
50.0000 -55.9410 -38.2335
50.0000 -37.8060 -27.5085
50.0000 -50.5862 1.5404
50.0000 -7.2731 -39.2894
50.0000 -83.6925 3.8540
50.0000 -55.9539 38.5545
50.0000 -65.1486 25.8428
50.0000 11.7145 9.8550
50.0000 4.5416 11.1879
50.0000 -45.5579 29.4138
50.0000 -29.1726 -15.6241
50.0000 -43.2183 26.4007
50.0000 -7.4091 29.6592
50.0000 -47.0759 -17.4667
50.0000 -34.7804 23.9548
50.0000 14.9572 22.8521
50.0000 -38.4920 -1.6748
50.0000 -53.1848 -14.0481
50.0000 13.0984 -5.6117
50.0000 -52.5853 -37.9942
50.0000 -3.1333 -32.3284
50.0000 -18.0605 23.1508
50.0000 -31.4859 -16.4431
50.0000 -73.7496 -14.6146
50.0000 -50.5371 7.2335
50.0000 3.5021 15.8035
50.0000 -80.5727 24.8013
50.0000 -71.1951 -39.7738
50.0000 -54.4987 -31.9741
50.0000 -16.2089 -28.8343
50.0000 -52.6405 33.8449
50.0000 3.5509 14.3598
50.0000 -51.7627 15.4053
50.0000 -30.9005 -21.1366
50.0000 -33.2593 27.7321
50.0000 -55.5509 10.2157
50.0000 -30.5762 -21.4806
50.0000 -56.0582 -34.6725
50.0000 -50.7418 -31.4444
50.0000 -12.7067 -25.9707
50.0000 -38.3263 -19.9200
50.0000 9.3566 36.8234
50.0000 -4.3121 -5.5033
50.0000 -16.3242 11.1946
50.0000 -24.6663 30.5289
50.0000 -26.6498 -11.9462
50.0000 -41.2936 -0.2737
50.0000 -51.9279 11.1534
50.0000 -32.6552 -0.0296
50.0000 -52.8481 24.9646
50.0000 -35.2016 13.1682
50.0000 -46.5173 -23.6454
50.0000 -8.4204 -15.3823
50.0000 -13.9436 -5.5247
50.0000 -68.3468 30.7696
50.0000 -16.8895 -6.8148
50.0000 -74.7157 31.7347
50.0000 -53.9984 13.7813
50.0000 -37.3838 23.3707
50.0000 -34.2154 2.8379
50.0000 -51.6784 -10.7394
50.0000 -1.0824 11.7350
50.0000 -30.6004 -37.9873
50.0000 -67.2933 -16.7981
50.0000 -46.3015 -34.1672
50.0000 -71.8837 -34.2738
50.0000 -1.6858 36.2565
50.0000 -10.2668 36.3833
50.0000 4.6840 -5.7024
50.0000 -49.8626 27.1499
50.0000 -65.2009 17.8010
50.0000 -79.1299 -17.8839
50.0000 0.4290 -2.4225
50.0000 -11.6428 -2.9889
50.0000 -63.5064 18.4839
20.0000 -79.3365 -34.2135
20.0000 -19.2761 -38.5416
20.0000 -19.2675 11.9519
20.0000 -14.4945 29.5283
20.0000 -55.4988 -23.1556
20.0000 -56.7152 -19.5057
20.0000 -33.3911 -11.9608
20.0000 -13.2717 7.1191
20.0000 -71.5421 -3.9865
20.0000 6.5167 -11.3290
20.0000 -40.9606 9.2343
20.0000 -72.1056 -33.5735
20.0000 -64.4674 -17.4402
20.0000 -40.2476 32.6259
20.0000 -1.1661 -19.2590
20.0000 9.4611 -14.8107
20.0000 -68.9059 34.0988
20.0000 -14.2444 -14.0145
20.0000 -49.9305 -14.4664
20.0000 -2.7006 3.1311
20.0000 -24.9379 -1.8125
20.0000 7.2588 1.4287
20.0000 -66.5902 -3.5736
20.0000 -45.5487 30.0356
20.0000 -72.9461 -18.4715
20.0000 -18.6371 39.1862
20.0000 -4.5627 -31.2129
20.0000 -33.2500 -6.8692
20.0000 -49.1402 15.5623
20.0000 -30.9076 35.2719
20.0000 12.8333 14.9666
20.0000 -24.1800 25.0182
20.0000 -13.9883 -34.9643
20.0000 9.2198 23.1749
20.0000 -70.1257 -2.7878
20.0000 -50.5214 -21.0857
20.0000 8.1238 2.5236
20.0000 -29.2063 -20.4711
20.0000 4.4268 29.9681
20.0000 1.2674 -31.5846
20.0000 -23.6413 18.0644
20.0000 -68.6365 9.7548
20.0000 -84.5209 -16.4499
20.0000 -70.9024 -16.4797
20.0000 -34.8775 12.8257
20.0000 -35.8408 -34.6417
20.0000 -4.6740 -3.1096
20.0000 -42.5001 -10.4089
20.0000 -79.4553 16.7826
20.0000 7.3139 -13.3546
20.0000 -51.7741 12.9017
20.0000 -6.8750 -15.8332
20.0000 -56.3132 23.6770
20.0000 -31.9127 -16.2722
20.0000 7.9267 -27.2355
20.0000 6.0622 20.2041
20.0000 -84.3055 -31.4879
20.0000 -69.4078 0.3357
20.0000 -63.3010 31.4160
20.0000 -57.6470 23.6587
20.0000 -21.3685 -5.1789
20.0000 -3.6984 -15.7096
20.0000 2.1892 -33.9886
20.0000 13.7031 -21.8493
20.0000 -30.3096 -23.5179
20.0000 9.9895 29.0579
20.0000 14.3364 39.4983
20.0000 -73.4344 -21.6605
20.0000 -73.4768 -1.8002
20.0000 -17.5028 21.9841
20.0000 -30.0651 39.1911
20.0000 -50.5604 4.0564
20.0000 -36.9859 19.2867
20.0000 -37.0796 38.3226
20.0000 -26.3019 38.6714
20.0000 -80.3888 -1.8859
20.0000 -54.2314 -14.2048
20.0000 -52.8244 -0.5112
20.0000 -62.7354 27.1830
20.0000 -22.1537 21.4558
20.0000 -52.4920 -9.2167
20.0000 -1.6347 -29.2451
20.0000 -42.6129 -1.0919
20.0000 -36.1928 3.7388
20.0000 -15.4916 -8.3697
20.0000 -18.1981 30.9369
44.4780 15.0000 -4.0775
25.2402 15.0000 -31.4569
24.4389 15.0000 5.2942
36.2406 15.0000 -17.7450
45.5366 15.0000 35.1874
31.3757 15.0000 -31.3295
21.6706 15.0000 11.4916
20.1464 15.0000 34.9655
43.0199 15.0000 -25.4943
30.3159 15.0000 32.2076
45.0299 15.0000 4.0313
24.1809 15.0000 1.7146
33.5476 15.0000 -14.9276
34.1171 15.0000 21.0253
40.6165 15.0000 -33.8161
23.9535 15.0000 4.0118
45.8996 15.0000 -8.6556
46.4373 15.0000 -3.3009
43.9218 15.0000 -12.5879
39.5226 15.0000 -28.7957
32.5252 15.0000 0.4838
38.8510 15.0000 30.5949
25.0750 15.0000 -26.9162
38.7435 15.0000 1.6985
31.8155 15.0000 -9.2574
41.4819 15.0000 -18.5967
47.7235 15.0000 -18.0725
49.3016 15.0000 -20.9012
28.0977 15.0000 32.1159
21.4916 15.0000 4.7705
48.8491 15.0000 27.6425
45.7688 15.0000 24.0362
37.9363 15.0000 -21.6830
42.5268 15.0000 -9.1552
26.5223 15.0000 -13.1736
31.5465 15.0000 -13.9949
43.6005 15.0000 -22.2337
49.1599 15.0000 36.1897
20.8017 15.0000 -3.5614
31.7150 15.0000 -19.8131
23.5226 15.0000 -25.5900
21.4559 15.0000 16.8206
26.1553 15.0000 -7.7752
28.0924 15.0000 -0.8582
47.1033 15.0000 22.4795
29.8143 15.0000 -3.7337
27.5715 15.0000 5.2446
30.4701 15.0000 -12.0400
23.8746 15.0000 -29.1304
25.9383 15.0000 -36.8615
49.9074 15.0000 4.0283
49.8035 15.0000 28.4698
36.3434 15.0000 8.3266
48.8610 15.0000 -36.9707
23.6278 15.0000 -19.1768
35.0667 15.0000 8.7437
22.4178 15.0000 9.3520
42.1281 15.0000 9.2391
36.1893 15.0000 -6.8024
25.7947 15.0000 -17.6503
38.7998 15.0000 -19.4351
48.3822 15.0000 -17.3339
46.2204 15.0000 -35.3411
48.0642 15.0000 -15.6413
41.2326 15.0000 -38.6748
29.5398 15.0000 33.6878
24.9824 15.0000 -3.1442
35.1995 15.0000 -11.2964
31.1372 15.0000 14.8540
27.5779 15.0000 10.2881
42.0672 15.0000 -35.5749
41.2703 15.0000 -5.5458
43.3121 15.0000 -4.7575
33.8178 15.0000 38.3157
33.5421 15.0000 -9.4087
30.5940 15.0000 -11.2726
21.3739 15.0000 31.0244
40.5397 15.0000 -1.1709
41.2236 15.0000 -35.3779
43.4805 15.0000 -35.7657
21.6885 15.0000 6.5117
29.6387 15.0000 12.1306
24.8917 15.0000 -6.8640
27.8391 15.0000 -0.1763
49.2018 15.0000 -39.6402
49.4320 -85.0000 26.1741
36.2731 -85.0000 35.4319
37.8536 -85.0000 -18.3200
46.7879 -85.0000 -10.9258
46.6332 -85.0000 22.5708
24.9168 -85.0000 30.8619
42.0338 -85.0000 16.1425
39.3119 -85.0000 29.1455
34.9532 -85.0000 34.8030
42.7700 -85.0000 10.3173
43.2411 -85.0000 30.7068
31.5002 -85.0000 -0.8615
21.2851 -85.0000 -37.8398
43.0804 -85.0000 5.4679
25.6912 -85.0000 16.6995
29.9793 -85.0000 34.2246
35.5300 -85.0000 -9.0687
39.9175 -85.0000 -2.6708
41.9969 -85.0000 -38.4713
37.5315 -85.0000 -8.7479
22.6357 -85.0000 37.7787
20.7584 -85.0000 -4.0282
41.5984 -85.0000 -19.2607
43.2683 -85.0000 30.1554
34.7038 -85.0000 -24.5952
39.6014 -85.0000 -2.1420
48.2813 -85.0000 -1.1312
42.8634 -85.0000 35.9439
49.5360 -85.0000 0.6322
49.0771 -85.0000 -33.8966
38.0849 -85.0000 -6.8329
28.5624 -85.0000 27.1204
28.2494 -85.0000 11.4090
23.8537 -85.0000 -11.7626
38.5332 -85.0000 -37.2223
31.5012 -85.0000 2.8032
42.3025 -85.0000 37.3240
34.7666 -85.0000 32.5101
42.2458 -85.0000 -25.4758
24.2096 -85.0000 21.2055
29.7225 -85.0000 4.5005
21.2354 -85.0000 -25.0755
44.4535 -85.0000 -11.2158
29.4987 -85.0000 -1.9353
38.7620 -85.0000 -13.5269
23.0571 -85.0000 15.4864
27.9314 -85.0000 24.2959
44.5095 -85.0000 31.5377
27.7498 -85.0000 21.8314
20.3201 -85.0000 20.6894
40.0955 -85.0000 -2.0500
41.4844 -85.0000 28.8694
23.4330 -85.0000 -37.2911
46.8003 -85.0000 12.3480
32.2917 -85.0000 3.7883
37.6823 -85.0000 -7.1555
45.5331 -85.0000 18.9656
43.7300 -85.0000 -22.7753
32.7155 -85.0000 -30.2020
46.7188 -85.0000 -13.3706
40.9016 -85.0000 -9.6014
49.7933 -85.0000 -3.6441
41.9442 -85.0000 27.7868
20.0312 -85.0000 -13.7330
48.4983 -85.0000 -26.8512
44.0254 -85.0000 22.8416
41.2084 -85.0000 -25.0324
36.5561 -85.0000 6.4129
37.2832 -85.0000 -3.9768
40.5144 -85.0000 17.7944
21.3531 -85.0000 -16.6146
46.4843 -85.0000 -12.3841
42.8527 -85.0000 6.5573
22.0233 -85.0000 -21.1205
37.6959 -85.0000 -5.3066
40.1849 -85.0000 -11.0315
29.3625 -85.0000 -17.0947
44.6690 -85.0000 15.6172
20.7961 -85.0000 6.8339
27.9315 -85.0000 -27.0049
20.6037 -85.0000 12.5909
42.9200 -85.0000 -5.2072
31.4892 -85.0000 30.2765
43.4150 -85.0000 -30.2944
38.7551 -85.0000 32.7744
39.3719 -4.2293 40.0000
39.0946 -6.9024 40.0000
26.8200 -9.0807 40.0000
46.9914 3.3963 40.0000
34.1823 -1.3264 40.0000
35.9666 12.2819 40.0000
41.8251 5.8980 40.0000
44.5056 -66.5294 40.0000
39.7068 -37.3222 40.0000
41.5238 -76.5019 40.0000
27.2635 -26.0676 40.0000
30.3865 -25.5113 40.0000
36.5256 -56.0140 40.0000
48.5631 -78.7909 40.0000
25.3516 -15.2286 40.0000
49.1914 6.1146 40.0000
37.4735 -13.3095 40.0000
24.0022 -36.5506 40.0000
29.9306 -74.1066 40.0000
40.1774 -60.7260 40.0000
40.4579 1.6249 40.0000
24.6289 -68.5392 40.0000
45.8962 6.3266 40.0000
22.7593 -18.6155 40.0000
23.2655 -31.8707 40.0000
24.1100 13.1373 40.0000
32.6720 13.2092 40.0000
25.2804 -14.9071 40.0000
23.7952 -74.1503 40.0000
36.8244 -9.8614 40.0000
34.1738 -66.6816 40.0000
40.5609 -41.6837 40.0000
28.7281 -50.1960 40.0000
46.2179 -44.4425 40.0000
48.6258 -41.9534 40.0000
31.4831 4.7330 40.0000
29.1958 -17.1685 40.0000
40.0890 -37.7208 40.0000
32.3344 -17.3505 40.0000
39.5879 12.5287 40.0000
30.7220 -48.1626 40.0000
41.9816 -6.9706 40.0000
43.8348 1.1316 40.0000
21.0921 -56.4805 40.0000
41.6239 -32.5755 40.0000
30.6241 -50.2774 40.0000
22.0003 3.7483 40.0000
29.6997 0.5218 40.0000
31.8028 2.2194 40.0000
48.2183 -58.3705 40.0000
43.4148 -70.2565 40.0000
28.7018 -17.8714 40.0000
40.0598 -32.9541 40.0000
30.4840 -51.7190 40.0000
29.2798 -39.2515 40.0000
30.0293 -37.9291 40.0000
32.1448 -45.7200 40.0000
30.1539 -5.4793 40.0000
25.7999 -54.7876 40.0000
25.4904 4.5337 40.0000
38.7312 -23.8947 40.0000
34.1600 -18.0113 40.0000
43.1081 -66.0209 40.0000
25.5633 6.7687 40.0000
33.1388 6.9494 40.0000
41.6292 -17.4417 40.0000
23.8299 -53.2829 40.0000
48.9497 14.0295 40.0000
44.2953 -65.9645 40.0000
34.4711 -30.1526 40.0000
27.8532 -78.6137 40.0000
42.1268 -76.1947 40.0000
31.8312 -23.5483 40.0000
46.2179 -77.2127 40.0000
34.6986 4.3611 40.0000
26.6881 10.4262 40.0000
25.3355 -45.5805 40.0000
39.7416 0.4114 40.0000
44.9546 3.5532 40.0000
28.2364 -41.4933 40.0000
20.2595 -65.4681 40.0000
42.5892 -19.0320 40.0000
28.0300 -41.8159 40.0000
30.4935 -2.7064 40.0000
48.3954 10.6683 40.0000
32.4752 -40.3709 -40.0000
32.0384 -41.9015 -40.0000
27.6312 -40.3093 -40.0000
24.5840 7.4324 -40.0000
23.5169 -24.6269 -40.0000
29.2664 -38.3953 -40.0000
36.9527 -64.5748 -40.0000
29.2715 -14.6272 -40.0000
41.1840 -65.1020 -40.0000
36.7724 -25.3363 -40.0000
40.5179 -83.9299 -40.0000
22.5767 -72.4759 -40.0000
42.8996 14.7688 -40.0000
21.5326 -69.8359 -40.0000
39.9746 -73.0817 -40.0000
28.8038 -52.6758 -40.0000
31.0075 0.0358 -40.0000
33.9387 -38.2562 -40.0000
42.5403 -10.7634 -40.0000
40.9809 -22.4370 -40.0000
20.7102 -14.4631 -40.0000
26.1922 -73.3794 -40.0000
48.0065 -24.1053 -40.0000
23.3261 -45.3984 -40.0000
37.0072 14.7192 -40.0000
38.2798 -62.6910 -40.0000
29.4007 11.7939 -40.0000
25.8706 -24.1219 -40.0000
46.6446 12.0662 -40.0000
30.0121 -50.3828 -40.0000
30.3815 -23.6566 -40.0000
35.6470 -18.9510 -40.0000
37.6561 -67.5956 -40.0000
41.4171 4.3175 -40.0000
31.2149 6.6397 -40.0000
23.1513 -70.1906 -40.0000
43.9178 6.3196 -40.0000
33.0912 -3.9242 -40.0000
33.7081 -46.6098 -40.0000
25.4208 -26.4784 -40.0000
44.2148 -43.3824 -40.0000
26.9387 -24.7149 -40.0000
26.9711 -15.8195 -40.0000
31.5009 -59.9178 -40.0000
33.9778 -31.5701 -40.0000
35.5569 -53.1743 -40.0000
37.1295 -43.5121 -40.0000
32.8689 -23.1262 -40.0000
27.9122 -59.3816 -40.0000
40.4966 -76.4091 -40.0000
33.7871 -77.3798 -40.0000
35.5355 -33.8021 -40.0000
23.2727 0.1691 -40.0000
31.6864 9.7917 -40.0000
27.4761 -65.2982 -40.0000
46.8610 -1.1399 -40.0000
38.8535 -12.9325 -40.0000
35.3689 -40.4137 -40.0000
31.7862 -9.7480 -40.0000
45.6748 -9.3283 -40.0000
22.5084 -84.8788 -40.0000
26.4197 -6.5770 -40.0000
20.5065 -9.4633 -40.0000
40.0647 -83.4767 -40.0000
46.0272 -8.8478 -40.0000
42.1466 2.7670 -40.0000
41.2477 -62.4513 -40.0000
42.0418 -29.4387 -40.0000
49.3424 -59.9100 -40.0000
31.1957 -50.0389 -40.0000
45.9791 4.3928 -40.0000
39.1374 -9.6477 -40.0000
21.2165 -14.6488 -40.0000
30.0987 -78.9831 -40.0000
26.4224 4.8065 -40.0000
42.6836 -63.8650 -40.0000
45.2095 10.8726 -40.0000
30.1203 -44.5637 -40.0000
34.8881 -83.5340 -40.0000
41.3067 -35.8083 -40.0000
28.4144 -26.4235 -40.0000
46.8191 -29.2096 -40.0000
35.1174 0.4023 -40.0000
42.5169 -15.7721 -40.0000
49.4864 -59.5327 -40.0000
