ply
format ascii 1.0
element vertex 1024
property float x
property float y
property float z
end_header
50.0000 8.9227 1.9024
50.0000 9.6871 5.2190
50.0000 -2.6238 -9.4332
50.0000 6.2826 16.6445
50.0000 0.0334 -7.9657
50.0000 -6.6822 29.2884
50.0000 -11.7767 26.2415
50.0000 -6.7076 11.3717
50.0000 -4.5314 -11.3556
50.0000 2.9465 -10.9410
50.0000 5.4310 23.6997
50.0000 -0.1715 -12.4275
50.0000 11.0673 -14.1456
50.0000 14.6950 -22.4750
50.0000 -14.6042 7.3716
50.0000 -5.1298 -3.6476
50.0000 14.1700 13.1007
50.0000 -9.4538 19.8360
50.0000 -12.5071 -26.3682
50.0000 -13.4998 24.9820
50.0000 5.5523 1.1736
50.0000 -7.2747 29.3132
50.0000 -0.5070 7.2745
50.0000 7.3347 -12.0142
50.0000 7.7208 14.0433
50.0000 8.0424 -26.5128
50.0000 -12.2976 -14.2225
50.0000 -4.0011 -12.2087
50.0000 3.1926 -8.3635
50.0000 14.0970 -3.4356
50.0000 6.7097 16.6250
50.0000 7.9867 -18.0669
50.0000 2.5218 16.1481
50.0000 8.9992 -28.3447
50.0000 -0.8494 13.9986
50.0000 14.1868 -17.9395
50.0000 14.2414 -29.2779
50.0000 -2.0266 -7.7517
50.0000 12.4619 0.6794
50.0000 4.6908 6.1592
50.0000 4.7916 -4.1901
50.0000 9.6131 20.3561
50.0000 4.6068 8.9571
50.0000 -6.8736 -8.5811
50.0000 -8.1848 21.5770
50.0000 5.1116 -0.8953
50.0000 1.4051 11.3335
50.0000 -6.5559 -18.8036
50.0000 2.0888 -26.7459
50.0000 -0.7877 -14.6429
50.0000 4.2859 14.9506
50.0000 13.3818 -23.3243
50.0000 5.4755 -16.9632
50.0000 -2.9382 -27.1579
50.0000 5.5878 8.8049
50.0000 -4.4370 -19.8145
50.0000 0.5932 -12.6543
50.0000 -2.6039 -2.6223
50.0000 8.1426 -14.7636
50.0000 13.1286 -4.2192
50.0000 -13.4930 -15.8031
50.0000 9.2697 11.2241
50.0000 6.7371 7.3860
50.0000 -8.5767 25.0710
50.0000 10.5600 -28.1382
50.0000 5.7703 17.8816
50.0000 -0.3818 16.6633
50.0000 1.5439 -25.5775
50.0000 -2.5408 7.8464
50.0000 6.7147 -2.6981
50.0000 -8.3227 2.9603
50.0000 3.2580 -7.6935
50.0000 -12.2742 -11.8895
50.0000 10.6803 23.0024
50.0000 -1.1370 14.8240
50.0000 10.0760 10.5699
50.0000 -3.1018 -5.1069
50.0000 6.6052 13.8148
50.0000 4.7841 -20.1098
50.0000 -2.0899 29.6338
50.0000 12.3443 2.1100
50.0000 5.3703 -12.1421
50.0000 9.2135 10.7309
50.0000 13.5467 -27.9777
50.0000 -5.0254 8.5966
50.0000 7.5977 14.3248
-50.0000 11.5532 15.3792
-50.0000 -7.6226 -22.6504
-50.0000 -7.8107 17.2167
-50.0000 1.3725 -2.1689
-50.0000 6.5781 11.3802
-50.0000 -7.4344 15.3961
-50.0000 5.9634 -13.9696
-50.0000 -9.3092 -9.0342
-50.0000 13.5358 -29.4742
-50.0000 -4.3032 27.9883
-50.0000 -13.0979 -12.4317
-50.0000 -13.5325 0.5523
-50.0000 -11.5739 -18.3206
-50.0000 -12.5549 11.2678
-50.0000 5.3408 27.2422
-50.0000 6.3239 -26.0898
-50.0000 9.0384 -7.8553
-50.0000 0.8200 -14.5723
-50.0000 13.2990 9.6239
-50.0000 -3.3388 -29.5952
-50.0000 -13.4090 -18.1392
-50.0000 -3.3322 13.0454
-50.0000 -13.6979 -1.5253
-50.0000 -13.7321 -27.6451
-50.0000 2.6728 29.8984
-50.0000 10.9352 -9.2991
-50.0000 -5.1630 -29.5913
-50.0000 7.7855 29.7234
-50.0000 -6.8434 29.0346
-50.0000 -6.0954 -24.2835
-50.0000 -7.9273 8.3655
-50.0000 13.9978 -26.0739
-50.0000 13.7969 -6.0509
-50.0000 -12.5575 28.2675
-50.0000 3.9073 -2.6708
-50.0000 -3.9392 -22.1971
-50.0000 5.9973 -12.5839
-50.0000 14.1301 -15.0350
-50.0000 -5.1738 -24.1615
-50.0000 -0.4447 -25.0183
-50.0000 11.9165 -5.8280
-50.0000 -0.0268 -29.7238
-50.0000 11.3883 -28.3871
-50.0000 -13.1812 15.6742
-50.0000 -5.8607 19.9565
-50.0000 12.9050 16.9316
-50.0000 9.9444 -0.8850
-50.0000 8.2342 -27.4352
-50.0000 -5.2109 -14.4853
-50.0000 -9.2147 2.0329
-50.0000 12.0735 -11.7405
-50.0000 7.1607 -1.0104
-50.0000 -0.6207 3.6592
-50.0000 -8.8953 19.5019
-50.0000 -4.6476 -1.3621
-50.0000 4.7156 -4.5741
-50.0000 0.8555 15.2765
-50.0000 4.7481 19.6958
-50.0000 -13.5900 -7.3298
-50.0000 -7.9859 18.3798
-50.0000 11.7139 26.4016
-50.0000 12.3489 29.1024
-50.0000 2.5546 25.4341
-50.0000 -5.5558 16.0887
-50.0000 3.8735 28.6172
-50.0000 -2.7538 29.3560
-50.0000 8.4303 20.6316
-50.0000 -1.4912 26.7887
-50.0000 -11.9996 -28.4721
-50.0000 5.3063 27.3174
-50.0000 0.2859 4.2105
-50.0000 -8.7584 13.8819
-50.0000 8.4819 27.3899
-50.0000 10.5528 22.2616
-50.0000 -4.2398 22.0690
-50.0000 4.0028 -10.0234
-50.0000 -6.9958 -25.1730
-50.0000 13.3114 -27.0357
-50.0000 3.1738 3.8750
-50.0000 -8.6192 -9.1189
-50.0000 14.2900 -14.2361
-50.0000 10.3943 9.9890
-50.0000 6.8902 -6.6776
-50.0000 9.4290 -29.9288
-50.0000 6.0379 -19.8074
-50.0000 -7.0322 28.7494
1.5573 15.0000 11.5966
-6.3668 15.0000 9.3696
-32.6506 15.0000 20.0920
-44.9521 15.0000 16.5565
-22.3441 15.0000 29.0995
40.3487 15.0000 21.2301
-4.2824 15.0000 -18.7669
31.1362 15.0000 -4.2115
-45.3651 15.0000 12.3343
-21.0285 15.0000 -21.5832
-43.8264 15.0000 -9.5726
17.0197 15.0000 15.7620
0.4769 15.0000 -5.6026
-40.1682 15.0000 -25.2830
-26.8470 15.0000 -19.8064
-39.8403 15.0000 -25.0743
8.0143 15.0000 5.0076
24.1529 15.0000 0.5777
35.8947 15.0000 -2.8852
32.4970 15.0000 22.9085
-33.0659 15.0000 10.3162
30.8106 15.0000 10.8948
38.2948 15.0000 -4.8657
-26.5427 15.0000 20.4427
-46.9543 15.0000 18.7297
-41.0850 15.0000 0.0020
14.7004 15.0000 3.4126
-29.7821 15.0000 9.4970
38.2035 15.0000 -13.5563
-19.0900 15.0000 -16.1883
-39.9231 15.0000 6.5326
19.3351 15.0000 -25.9579
49.6832 15.0000 11.1813
-41.8860 15.0000 -19.0422
-38.9048 15.0000 -3.3318
-48.5707 15.0000 8.3168
33.3924 15.0000 -4.8466
-9.2037 15.0000 -9.3241
49.5784 15.0000 -16.7411
-9.9870 15.0000 -16.8876
-48.1278 15.0000 -22.7173
-2.7379 15.0000 -18.5477
-5.4088 15.0000 -8.2267
-35.4616 15.0000 9.0973
22.5025 15.0000 28.0259
-46.3428 15.0000 -11.7005
7.2621 15.0000 -6.2202
-12.7657 15.0000 8.5486
0.9069 15.0000 24.4161
40.4552 15.0000 -25.4641
-46.1803 15.0000 2.5739
36.2059 15.0000 -2.4969
-40.6860 15.0000 -16.6541
-38.9175 15.0000 -19.1058
14.6506 15.0000 -14.7661
-8.2764 15.0000 1.1907
21.2481 15.0000 26.9473
3.5548 15.0000 29.9133
-33.6767 15.0000 24.8030
-33.3625 15.0000 25.8463
38.1770 15.0000 11.3136
-46.7343 15.0000 -21.6542
24.9200 15.0000 7.6118
-35.3591 15.0000 -12.2660
17.0774 15.0000 -12.2679
-29.3671 15.0000 11.4984
7.6076 15.0000 -9.7316
-45.3597 15.0000 -10.3534
4.4237 15.0000 27.2778
-47.9243 15.0000 -17.9340
-11.8882 15.0000 3.3858
-49.0774 15.0000 -28.0923
-31.6505 15.0000 23.4674
5.2101 15.0000 21.8838
18.0245 15.0000 28.4764
-36.7096 15.0000 -27.6535
4.7626 15.0000 0.3613
48.3897 15.0000 3.3856
47.1340 15.0000 23.0153
-25.5884 15.0000 -8.1663
-8.4250 15.0000 10.3463
-27.2765 15.0000 5.8106
-26.6884 15.0000 -7.6265
5.9825 15.0000 23.6794
-49.8835 15.0000 -12.4299
21.7700 -15.0000 4.9032
-39.3080 -15.0000 19.0717
-45.0302 -15.0000 18.6892
-19.6581 -15.0000 -22.5220
4.2149 -15.0000 -27.5167
-0.8238 -15.0000 -14.4505
-7.6815 -15.0000 -4.6072
-39.4624 -15.0000 -25.4023
21.7884 -15.0000 -29.3188
-17.6851 -15.0000 -1.6145
13.2456 -15.0000 -1.7476
-24.6722 -15.0000 24.9986
28.2213 -15.0000 -2.7952
-2.8050 -15.0000 27.7701
35.5003 -15.0000 -20.2753
-6.6403 -15.0000 0.3171
-25.9513 -15.0000 27.4219
41.7633 -15.0000 28.8375
-14.8291 -15.0000 2.1904
-15.2085 -15.0000 -17.0955
31.7439 -15.0000 -2.6887
-20.4545 -15.0000 19.4212
31.2917 -15.0000 23.0455
-5.0966 -15.0000 -26.7871
-30.0363 -15.0000 -27.7075
16.0770 -15.0000 -16.4578
2.8414 -15.0000 -28.9765
-38.7588 -15.0000 12.6514
11.7851 -15.0000 27.2503
28.3482 -15.0000 3.6424
-4.6736 -15.0000 29.7023
-6.7093 -15.0000 -16.5446
39.0800 -15.0000 -5.2423
18.0674 -15.0000 -19.7823
48.2427 -15.0000 1.1387
-44.7294 -15.0000 1.5833
29.9205 -15.0000 25.2503
-24.5484 -15.0000 -25.8854
4.0045 -15.0000 14.5400
13.6423 -15.0000 23.5487
10.5827 -15.0000 -23.6667
33.8859 -15.0000 5.1833
-35.3953 -15.0000 14.7048
42.6011 -15.0000 -26.1809
23.1507 -15.0000 -27.1693
-46.7046 -15.0000 -9.0060
30.7445 -15.0000 21.9796
14.8845 -15.0000 -13.7937
-26.1611 -15.0000 23.8752
-16.7960 -15.0000 24.0776
16.5807 -15.0000 -10.4028
-18.9284 -15.0000 26.0048
-35.6149 -15.0000 -4.0327
36.3460 -15.0000 4.2769
-32.5725 -15.0000 -18.8128
34.2307 -15.0000 -3.0149
-44.9095 -15.0000 17.2576
10.1078 -15.0000 26.9131
12.5425 -15.0000 -21.5935
-26.0861 -15.0000 -15.0361
17.5081 -15.0000 -11.3043
-34.7333 -15.0000 10.2949
-43.6713 -15.0000 12.9870
-13.1880 -15.0000 9.6251
-23.2331 -15.0000 -2.9416
31.0428 -15.0000 -2.8882
-36.0352 -15.0000 -12.4498
39.6857 -15.0000 -13.1732
33.6582 -15.0000 -15.6762
14.6297 -15.0000 18.3229
29.3712 -15.0000 -27.5626
-13.1018 -15.0000 25.2377
-8.1421 -15.0000 -25.8654
-2.3922 -15.0000 -24.7528
-49.3801 -15.0000 -25.6666
44.1100 -15.0000 -8.1609
-36.9858 -15.0000 -22.4225
46.3573 -15.0000 26.9993
27.5336 -15.0000 23.5663
-45.8537 -15.0000 15.8047
-15.9032 -15.0000 -22.1201
-47.0770 -15.0000 -26.1183
-43.0433 -15.0000 18.5879
-39.5462 -15.0000 27.1619
-48.8669 -15.0000 -18.4645
3.2388 -8.8570 30.0000
15.1685 -11.8484 30.0000
47.7184 1.5857 30.0000
42.6599 -6.2305 30.0000
-18.7750 -5.6530 30.0000
-0.8157 -9.5261 30.0000
-1.7390 -4.8890 30.0000
-5.3923 -4.0242 30.0000
35.6125 -13.6047 30.0000
48.2707 0.8414 30.0000
-13.1762 -9.2750 30.0000
-27.1942 -0.6507 30.0000
-9.4275 1.2142 30.0000
-15.8626 8.3400 30.0000
-20.1303 -5.1321 30.0000
-47.9328 -12.7366 30.0000
32.7868 -10.4960 30.0000
9.2065 14.1337 30.0000
41.9009 -6.7702 30.0000
1.7149 14.9450 30.0000
45.3562 11.7185 30.0000
46.6703 -12.5133 30.0000
33.2058 -10.9749 30.0000
49.9919 14.5975 30.0000
-37.0512 9.7198 30.0000
36.4416 -3.6495 30.0000
-34.9452 10.6607 30.0000
15.1097 1.9245 30.0000
43.1278 -2.2323 30.0000
18.1107 14.9747 30.0000
18.7204 -9.9265 30.0000
-3.0082 6.4143 30.0000
14.3647 -8.7518 30.0000
1.6088 -9.4704 30.0000
40.7449 -14.8538 30.0000
47.5344 -8.4890 30.0000
-26.0311 -1.7614 30.0000
24.1135 -10.1291 30.0000
40.1033 11.6251 30.0000
15.3174 4.1340 30.0000
-36.1307 9.2343 30.0000
-13.5954 14.7110 30.0000
39.5459 -9.1323 30.0000
-46.3818 -3.8082 30.0000
2.2590 -10.9236 30.0000
-12.9679 13.5751 30.0000
-16.2089 -10.4793 30.0000
0.8231 -0.1245 30.0000
47.3879 7.5086 30.0000
-16.1172 4.0817 30.0000
46.7173 5.4513 30.0000
-22.2844 6.7735 30.0000
38.6843 10.7612 30.0000
-12.5020 5.9490 30.0000
20.2630 -4.3703 30.0000
49.9256 13.4557 30.0000
-0.1965 6.1036 30.0000
32.1154 6.7368 30.0000
32.4175 -1.8518 30.0000
-32.6082 10.0472 30.0000
-12.8380 -8.1351 30.0000
32.5107 14.2558 30.0000
25.4228 -1.8047 30.0000
9.0665 -13.2493 30.0000
20.0833 6.1396 30.0000
-14.2532 11.8667 30.0000
43.8504 2.9362 30.0000
29.2708 7.1421 30.0000
24.5724 4.5955 30.0000
-5.9114 3.8882 30.0000
37.6789 -12.5141 30.0000
4.4430 -12.1793 30.0000
23.9202 -10.8258 30.0000
-39.9166 1.2717 30.0000
33.0634 10.0332 30.0000
28.3955 -6.0592 30.0000
-22.2049 -1.2583 30.0000
22.6472 -12.2936 30.0000
-26.4870 2.6735 30.0000
41.7173 0.6475 30.0000
-45.9513 -5.8596 30.0000
-24.9665 3.3516 30.0000
-12.2120 0.7698 30.0000
-6.1372 -5.1267 30.0000
25.2132 -13.4000 30.0000
-36.0494 1.4507 -30.0000
-26.3515 5.7915 -30.0000
-15.1347 10.6705 -30.0000
-15.1112 3.7828 -30.0000
-13.1376 12.8289 -30.0000
39.8628 2.8710 -30.0000
23.5510 2.2475 -30.0000
22.9529 5.6604 -30.0000
44.5403 -0.4012 -30.0000
6.5912 9.1356 -30.0000
-13.7344 10.4878 -30.0000
-24.0090 9.9195 -30.0000
28.5286 10.3895 -30.0000
-39.3553 1.1174 -30.0000
16.1639 -14.7223 -30.0000
33.7531 2.2288 -30.0000
28.2450 -6.7815 -30.0000
37.4115 -10.8965 -30.0000
-8.6819 -3.1674 -30.0000
-39.9422 13.9497 -30.0000
-47.6322 8.9555 -30.0000
35.5646 6.4550 -30.0000
34.5343 -4.7827 -30.0000
-6.9600 -3.5438 -30.0000
-12.4758 -1.6927 -30.0000
-27.3743 13.4647 -30.0000
1.6861 -1.1009 -30.0000
-22.9339 -4.6476 -30.0000
-2.8098 6.5638 -30.0000
-4.5739 -12.6364 -30.0000
13.4322 -1.1490 -30.0000
-37.5938 4.4800 -30.0000
-40.3095 -2.2970 -30.0000
-24.5786 -14.8859 -30.0000
24.0923 9.5109 -30.0000
16.8717 -6.2895 -30.0000
-7.4043 -5.1298 -30.0000
20.7175 2.0930 -30.0000
31.9658 4.8528 -30.0000
35.3939 -10.9711 -30.0000
8.6496 4.8269 -30.0000
-46.9388 0.6744 -30.0000
20.6364 6.6325 -30.0000
31.2101 3.3562 -30.0000
17.4066 8.0382 -30.0000
1.2686 3.9965 -30.0000
-8.0320 -2.5548 -30.0000
-6.6669 -9.7296 -30.0000
0.9181 5.2047 -30.0000
16.2006 6.7100 -30.0000
-20.6423 -6.5553 -30.0000
-0.7121 -0.1367 -30.0000
-17.7053 0.1989 -30.0000
31.0796 -4.8518 -30.0000
21.6847 8.7353 -30.0000
1.0935 7.1548 -30.0000
-0.1654 13.0387 -30.0000
-4.7016 7.1283 -30.0000
-8.6359 -13.3967 -30.0000
-10.7706 5.0345 -30.0000
-41.1908 3.8559 -30.0000
39.8418 -6.7482 -30.0000
16.2370 13.0718 -30.0000
-5.4150 -5.1301 -30.0000
-28.1208 12.5556 -30.0000
-28.9130 1.8425 -30.0000
-29.1511 -4.4794 -30.0000
-29.7450 4.1966 -30.0000
23.0947 3.7653 -30.0000
-2.2983 7.2754 -30.0000
-6.8155 5.2766 -30.0000
0.6685 -13.7519 -30.0000
-49.0989 8.3512 -30.0000
-15.6409 2.5465 -30.0000
47.8092 0.4575 -30.0000
-1.5966 -3.9274 -30.0000
9.9241 -2.7130 -30.0000
23.4800 1.9172 -30.0000
-39.4276 0.2322 -30.0000
-47.0953 13.0756 -30.0000
-17.5973 5.8691 -30.0000
-21.0523 13.9948 -30.0000
-1.5715 7.3975 -30.0000
45.4492 14.8521 -30.0000
-17.6876 13.8138 -30.0000
15.0000 0.3073 -10.9611
15.0000 0.1699 -28.8217
15.0000 43.1536 -27.7164
15.0000 25.3145 21.7202
15.0000 51.2842 -1.9624
15.0000 72.1984 -0.1177
15.0000 4.7994 20.8545
15.0000 81.4597 27.3004
15.0000 70.5267 27.3791
15.0000 4.8222 -3.2122
15.0000 -0.5030 19.4134
15.0000 -7.9521 8.9773
15.0000 -6.3342 7.6270
15.0000 58.1023 20.8556
15.0000 36.5847 -25.7678
15.0000 20.3532 -10.1129
15.0000 71.7338 -18.4058
15.0000 14.2787 26.1904
15.0000 78.8647 -27.0706
15.0000 29.7844 19.6773
15.0000 -13.7146 -28.5215
15.0000 54.0002 -18.6592
15.0000 4.2211 22.0672
15.0000 3.4525 1.0189
15.0000 0.8252 -10.7460
15.0000 34.5704 -3.0527
15.0000 83.2498 -24.6741
15.0000 59.8976 0.3729
15.0000 6.5920 26.6112
15.0000 55.9333 17.5324
15.0000 60.7941 5.1593
15.0000 83.4366 8.3476
15.0000 20.1579 -14.8279
15.0000 79.9728 11.7410
15.0000 -2.6779 17.8229
15.0000 -8.1279 6.4292
15.0000 59.6185 -10.8089
15.0000 37.3779 19.8240
15.0000 46.9465 29.5484
15.0000 40.3753 -9.4446
15.0000 16.3278 23.5311
15.0000 72.0099 -5.5841
15.0000 79.6768 29.3100
15.0000 9.8943 -23.8693
15.0000 76.6795 -28.7240
15.0000 78.3959 12.1642
15.0000 15.8710 -21.4578
15.0000 60.5577 -18.2852
15.0000 -6.0207 -10.8910
15.0000 -1.9982 -15.1328
15.0000 -3.2748 28.6089
15.0000 15.3800 -29.5085
15.0000 48.3094 1.9278
15.0000 69.0835 -1.1225
15.0000 25.5489 -28.3050
15.0000 43.8199 -28.4675
15.0000 -7.4538 12.8852
15.0000 14.4046 2.5374
15.0000 20.0018 -9.5865
15.0000 30.4107 -29.7865
15.0000 56.0320 -22.1356
15.0000 50.0312 -16.6430
15.0000 10.5101 -3.7474
15.0000 -8.9748 -6.4672
15.0000 39.4514 -3.7389
15.0000 34.5584 4.3122
15.0000 9.0924 -5.2791
15.0000 8.1236 7.2779
15.0000 81.5903 17.0303
15.0000 76.7808 13.0275
15.0000 26.2216 2.0929
15.0000 18.7641 23.5770
15.0000 -12.0560 -6.8326
15.0000 65.9729 -8.2156
15.0000 41.3597 -19.9022
15.0000 27.8106 -11.5118
15.0000 62.2720 24.5337
15.0000 17.0700 -4.5303
15.0000 30.1829 14.8677
15.0000 -13.1492 -1.6541
15.0000 -0.2304 -15.5865
15.0000 44.8551 26.8068
15.0000 41.2163 22.5330
15.0000 49.1208 -6.6770
15.0000 66.7308 13.1970
15.0000 -12.2096 10.2259
-15.0000 74.0714 4.8728
-15.0000 -14.3328 -10.1408
-15.0000 64.2591 7.2036
-15.0000 40.3658 -2.5180
-15.0000 39.5626 -16.6069
-15.0000 10.7137 27.1557
-15.0000 50.5157 -18.6578
-15.0000 26.8837 -23.4155
-15.0000 8.9471 20.6898
-15.0000 17.3256 1.6441
-15.0000 0.9847 -19.8508
-15.0000 56.5169 -14.8259
-15.0000 -2.3493 17.3495
-15.0000 42.3980 -6.0295
-15.0000 1.8676 -27.0703
-15.0000 78.5055 -7.3641
-15.0000 84.0874 9.6462
-15.0000 27.3712 -15.0737
-15.0000 79.3668 -16.8115
-15.0000 54.2890 16.5172
-15.0000 3.3213 16.7801
-15.0000 17.5228 20.9890
-15.0000 18.8477 2.9474
-15.0000 82.9611 -5.5022
-15.0000 69.6944 15.9502
-15.0000 22.8269 -20.8329
-15.0000 51.7352 -13.6249
-15.0000 24.1690 -13.2194
-15.0000 66.3355 -26.7881
-15.0000 13.2995 22.0808
-15.0000 79.4177 -6.3232
-15.0000 84.9133 -1.2361
-15.0000 -3.7806 -22.2636
-15.0000 57.6947 -24.5395
-15.0000 78.2571 2.3117
-15.0000 41.4349 16.6618
-15.0000 -13.0954 26.4616
-15.0000 16.4877 -2.4543
-15.0000 -0.0025 -25.8963
-15.0000 82.3868 -28.9710
-15.0000 33.1780 2.6616
-15.0000 73.5666 -15.7884
-15.0000 24.4002 -10.4755
-15.0000 4.9887 18.2283
-15.0000 -9.9833 -12.8524
-15.0000 14.0872 20.9730
-15.0000 82.4973 29.0615
-15.0000 49.9465 0.6634
-15.0000 43.2688 -27.1936
-15.0000 -13.4098 -27.9100
-15.0000 49.1449 -9.9408
-15.0000 70.0129 16.3655
-15.0000 78.1022 -24.8278
-15.0000 64.7501 -24.6522
-15.0000 38.4925 4.2681
-15.0000 47.7836 -11.6565
-15.0000 68.4213 -4.9441
-15.0000 74.0002 2.3413
-15.0000 63.4043 -21.5854
-15.0000 -0.0967 7.4879
-15.0000 2.4856 -17.4411
-15.0000 15.5137 -11.5708
-15.0000 71.1547 -7.0523
-15.0000 54.0687 -12.2067
-15.0000 39.1182 -27.8426
-15.0000 3.5398 -7.3155
-15.0000 -0.5173 24.7006
-15.0000 -4.2161 -28.7188
-15.0000 -9.3254 -10.3380
-15.0000 51.7649 0.3313
-15.0000 56.5412 22.5256
-15.0000 5.1323 -2.6579
-15.0000 71.0885 6.4685
-15.0000 81.8676 -25.6836
-15.0000 27.5384 -2.1014
-15.0000 54.5158 1.6640
-15.0000 -10.9428 28.8328
-15.0000 3.9153 -8.3699
-15.0000 47.3478 -8.2609
-15.0000 -5.3985 -15.4524
-15.0000 -2.4417 -14.8008
-15.0000 27.0173 -20.4476
-15.0000 61.7441 -14.2643
-15.0000 6.6878 -0.2167
-15.0000 46.8958 -11.9482
-15.0000 77.9710 8.5631
-4.7538 85.0000 -1.6531
4.0221 85.0000 -18.0204
-7.8456 85.0000 -5.0377
-5.0558 85.0000 -1.8491
12.3062 85.0000 23.8882
11.3233 85.0000 6.2560
-10.8101 85.0000 -28.0417
-9.3824 85.0000 20.2632
12.5908 85.0000 21.5456
-5.7015 85.0000 0.6208
-1.2719 85.0000 -22.4193
6.0307 85.0000 -22.9454
14.1766 85.0000 -10.0302
2.5504 85.0000 2.7921
12.8005 85.0000 -18.3081
-6.1730 85.0000 -6.7272
13.4187 85.0000 -10.8357
10.6469 85.0000 -10.8326
-9.1070 85.0000 -13.1693
11.2927 85.0000 0.2668
6.6591 85.0000 23.0208
-4.0324 85.0000 20.1555
14.0709 85.0000 -29.6187
10.0994 85.0000 -26.6953
-2.7254 85.0000 -27.4450
-6.3539 85.0000 -25.6504
1.8693 85.0000 -7.0535
1.2571 85.0000 17.6688
-11.1614 85.0000 4.4320
0.2473 85.0000 13.8227
-14.1527 85.0000 19.5512
3.9754 85.0000 15.5184
-3.9725 85.0000 -23.7850
-13.3586 85.0000 -9.6371
-5.8108 85.0000 -10.0779
-1.0760 85.0000 -28.2763
11.4249 85.0000 13.6710
3.6835 85.0000 -17.9315
-11.6506 85.0000 -19.9120
-12.1358 85.0000 9.7072
5.9193 85.0000 0.7400
9.3215 85.0000 27.5168
3.6373 85.0000 29.0914
3.9460 85.0000 11.9486
9.9934 85.0000 -5.5103
-7.4488 85.0000 9.7781
14.3301 85.0000 25.5398
0.8785 85.0000 -25.8835
-10.5897 85.0000 -1.9365
-2.4848 85.0000 -29.4104
-9.2646 85.0000 5.0005
-4.8865 85.0000 -16.6489
-9.2442 85.0000 -20.6294
-6.9943 85.0000 4.6120
11.4323 85.0000 -14.4818
-7.5104 85.0000 20.8260
-6.9754 85.0000 22.6277
2.1669 85.0000 29.6864
11.5025 85.0000 1.1369
6.5916 85.0000 24.1570
1.0570 85.0000 0.4060
-9.5206 85.0000 -7.4134
-10.0664 85.0000 23.8303
-10.7222 85.0000 -19.0892
9.1370 85.0000 -29.5850
-14.0358 85.0000 -20.9222
0.5950 85.0000 -19.5752
-6.4260 85.0000 22.3070
-7.0160 85.0000 4.4388
7.6100 85.0000 -22.0170
12.9919 85.0000 4.8512
-3.1000 85.0000 26.5100
1.6692 85.0000 -29.6890
-0.1663 85.0000 17.7412
11.3969 85.0000 -7.0277
-2.0761 85.0000 21.0890
-3.8863 85.0000 17.5588
12.6963 85.0000 -16.9263
4.2309 85.0000 1.6662
4.0595 85.0000 2.9798
10.3893 85.0000 -27.6564
-9.9806 85.0000 -8.4627
10.7168 85.0000 -17.9378
-8.5252 85.0000 -9.4954
-8.4122 85.0000 -4.0214
-0.7178 -15.0000 -27.3595
-14.7249 -15.0000 -26.4943
-4.3016 -15.0000 -7.9657
5.1070 -15.0000 17.0430
13.3221 -15.0000 -24.2081
-0.1051 -15.0000 -7.3602
-4.3316 -15.0000 -8.7498
-7.2461 -15.0000 21.1083
11.4480 -15.0000 13.6215
8.6229 -15.0000 5.9370
4.0208 -15.0000 2.9246
4.7779 -15.0000 16.3379
-9.8262 -15.0000 -21.4625
-6.8733 -15.0000 -9.6473
10.2575 -15.0000 -2.0882
2.3248 -15.0000 6.0296
10.8391 -15.0000 15.6432
11.3271 -15.0000 2.5731
-6.1918 -15.0000 21.3411
5.9325 -15.0000 -3.8693
1.0266 -15.0000 -24.8760
-5.6888 -15.0000 -20.3692
-8.4114 -15.0000 -24.8927
5.8551 -15.0000 4.2039
-12.1762 -15.0000 -7.7488
3.8430 -15.0000 -25.5404
4.2259 -15.0000 0.3547
-3.2322 -15.0000 5.5874
7.8618 -15.0000 -13.7316
1.8655 -15.0000 24.5839
12.1134 -15.0000 -21.4932
-7.3447 -15.0000 1.2323
-4.3116 -15.0000 -23.8290
-2.3079 -15.0000 8.4368
4.4474 -15.0000 12.1194
13.9777 -15.0000 -11.8567
2.2010 -15.0000 -13.9017
13.6829 -15.0000 1.9480
-5.5583 -15.0000 -29.7634
10.1941 -15.0000 -9.7098
6.6339 -15.0000 29.1053
14.7869 -15.0000 1.2341
7.2125 -15.0000 -28.1136
-3.7688 -15.0000 6.3282
-6.6380 -15.0000 -10.8068
10.2244 -15.0000 -10.1088
-7.4376 -15.0000 -27.2301
14.7616 -15.0000 -20.7299
-1.3686 -15.0000 6.8276
-0.9874 -15.0000 -15.2555
5.9680 -15.0000 10.9166
6.4896 -15.0000 28.2161
-5.0368 -15.0000 11.7560
11.5546 -15.0000 21.0544
14.7990 -15.0000 -24.3357
11.1323 -15.0000 16.8227
-2.0967 -15.0000 22.1682
4.1474 -15.0000 5.9945
1.8914 -15.0000 12.5791
-3.9524 -15.0000 11.7742
-10.7629 -15.0000 1.2774
12.2075 -15.0000 -13.9681
10.6179 -15.0000 27.1561
-0.3898 -15.0000 -14.7658
-11.8332 -15.0000 12.0560
-10.0706 -15.0000 -2.5003
-9.4698 -15.0000 -9.3575
14.3549 -15.0000 -28.1646
-1.2945 -15.0000 -25.1668
-12.2450 -15.0000 -3.1115
2.6324 -15.0000 29.4001
7.5089 -15.0000 9.8324
11.4688 -15.0000 13.8038
10.9748 -15.0000 28.6592
-14.4680 -15.0000 5.0142
-0.4857 -15.0000 -24.5016
-14.1745 -15.0000 2.8194
-2.5317 -15.0000 7.7858
10.3069 -15.0000 -22.3560
9.8588 -15.0000 -18.2299
6.2491 -15.0000 10.8548
-6.3756 -15.0000 -22.4933
0.6892 -15.0000 16.3400
9.2359 -15.0000 22.5249
11.5838 -15.0000 17.5918
-12.9321 40.8072 30.0000
5.1093 12.8476 30.0000
-5.2631 15.0016 30.0000
-6.4461 -2.7938 30.0000
-4.8299 33.5456 30.0000
9.9831 37.5719 30.0000
-12.3612 8.3798 30.0000
-7.9035 -13.5423 30.0000
-10.1630 19.0753 30.0000
7.1028 73.9567 30.0000
-11.2484 25.5691 30.0000
11.2688 67.4974 30.0000
-3.5770 -8.2135 30.0000
12.5936 16.7472 30.0000
4.5146 54.9636 30.0000
-0.8183 82.2497 30.0000
-1.0756 74.6594 30.0000
12.6966 -2.9316 30.0000
5.0192 10.8045 30.0000
-0.4701 33.0750 30.0000
1.2119 81.8967 30.0000
-8.4404 25.6731 30.0000
6.2113 69.7279 30.0000
0.2653 83.9481 30.0000
-12.7045 56.3778 30.0000
-6.0446 37.1749 30.0000
4.4738 15.3595 30.0000
-8.5769 14.4336 30.0000
-8.5521 4.5450 30.0000
-8.6357 45.7714 30.0000
-1.6018 65.4836 30.0000
1.1042 1.1506 30.0000
10.9478 62.9302 30.0000
2.7259 -0.8245 30.0000
-7.6637 31.4676 30.0000
6.5264 66.3857 30.0000
-4.6224 30.7028 30.0000
-0.9669 69.4389 30.0000
1.9977 28.3226 30.0000
-0.4832 -5.1600 30.0000
-2.4894 29.3485 30.0000
-14.2394 69.5346 30.0000
6.7584 15.1713 30.0000
6.6241 9.6438 30.0000
-3.6154 -4.7203 30.0000
5.1571 -2.7726 30.0000
-13.6562 14.4399 30.0000
-0.5282 6.1517 30.0000
3.9530 67.9556 30.0000
-3.9055 5.7181 30.0000
0.1711 20.8924 30.0000
-4.0898 70.4010 30.0000
-5.8253 61.1674 30.0000
-9.2068 24.5733 30.0000
-5.8907 6.4705 30.0000
0.3137 62.0276 30.0000
14.5069 63.2428 30.0000
9.8244 -7.3322 30.0000
7.7735 75.4336 30.0000
14.6071 -0.4700 30.0000
-1.2113 11.4567 30.0000
-14.1942 50.3404 30.0000
-11.1133 6.3432 30.0000
7.4759 56.5783 30.0000
9.1260 82.2061 30.0000
4.7012 -4.4139 30.0000
9.2924 22.7206 30.0000
-11.4619 28.2921 30.0000
2.4285 52.9262 30.0000
3.2940 66.1549 30.0000
-10.0192 1.0814 30.0000
0.9026 27.2703 30.0000
10.1060 77.3281 30.0000
-10.2560 76.0242 30.0000
5.1821 31.2636 30.0000
-7.4654 84.6036 30.0000
-11.7076 23.4474 30.0000
-2.7793 -9.0181 30.0000
-14.4947 66.5123 30.0000
-1.3239 6.2275 30.0000
-11.4678 -0.8628 30.0000
-13.0009 31.3668 30.0000
-3.4913 -6.6495 30.0000
-2.2001 58.8423 30.0000
14.9601 42.9664 30.0000
5.7423 59.8281 -30.0000
3.5801 55.2841 -30.0000
-9.0250 25.0355 -30.0000
2.9770 53.0399 -30.0000
0.5661 28.5274 -30.0000
2.7909 13.5596 -30.0000
-5.7400 11.4399 -30.0000
-2.2391 13.5241 -30.0000
-5.4882 48.5877 -30.0000
3.3405 50.6710 -30.0000
-9.0162 75.8679 -30.0000
-0.8867 39.5086 -30.0000
-1.1514 21.1000 -30.0000
-3.3258 81.5145 -30.0000
-2.5853 -3.2958 -30.0000
-12.7370 67.9593 -30.0000
8.0033 75.6290 -30.0000
-4.4783 65.6457 -30.0000
11.3012 10.4058 -30.0000
5.3855 37.6890 -30.0000
5.7985 28.3004 -30.0000
3.1872 17.7919 -30.0000
-8.6726 -2.2058 -30.0000
0.0570 36.6546 -30.0000
-11.7432 -9.5708 -30.0000
4.6611 14.0265 -30.0000
14.6828 32.8094 -30.0000
8.0296 -6.9044 -30.0000
4.9036 -9.8929 -30.0000
-8.0143 61.9264 -30.0000
-9.3482 34.7627 -30.0000
-10.7051 -13.4746 -30.0000
-14.7098 23.7619 -30.0000
-11.1860 74.6888 -30.0000
1.1128 38.7993 -30.0000
-9.5455 20.4007 -30.0000
13.3248 68.4770 -30.0000
0.9524 18.7840 -30.0000
-3.9860 0.7950 -30.0000
-3.6653 36.0134 -30.0000
3.7361 -8.9461 -30.0000
2.6812 -8.2975 -30.0000
-6.6546 66.7561 -30.0000
7.5908 39.9873 -30.0000
3.3513 41.0398 -30.0000
-3.9715 37.6668 -30.0000
13.3526 55.5274 -30.0000
14.9317 -11.7245 -30.0000
-2.6172 70.8932 -30.0000
-3.0580 10.9676 -30.0000
-5.6256 9.3478 -30.0000
13.2443 70.5513 -30.0000
5.0711 7.6797 -30.0000
12.5483 39.4176 -30.0000
5.7212 3.1662 -30.0000
-14.7489 13.6558 -30.0000
-8.1620 28.6049 -30.0000
-11.1270 65.8221 -30.0000
-14.1109 7.5134 -30.0000
-0.4506 5.2094 -30.0000
-0.1839 44.0874 -30.0000
13.4597 81.9463 -30.0000
-5.6067 47.4450 -30.0000
-13.8564 23.2806 -30.0000
-3.4586 15.0431 -30.0000
-0.0586 1.6603 -30.0000
-0.3431 19.1060 -30.0000
7.5254 19.5362 -30.0000
6.2039 39.8911 -30.0000
11.6212 31.3996 -30.0000
-12.3760 32.1611 -30.0000
-9.9371 34.2782 -30.0000
4.4330 0.0649 -30.0000
-13.7538 26.7017 -30.0000
-5.7370 70.1034 -30.0000
-4.5261 12.5610 -30.0000
2.7750 64.9409 -30.0000
-9.5939 13.4249 -30.0000
-2.5098 -11.0407 -30.0000
14.1961 -14.2472 -30.0000
10.0094 40.0016 -30.0000
-0.9032 55.3977 -30.0000
-2.0214 18.9950 -30.0000
13.1435 52.1118 -30.0000
-10.8071 29.1057 -30.0000
