ply
format ascii 1.0
element vertex 1024
property float x
property float y
property float z
end_header
50.0000 -4.1440 36.6882
50.0000 4.7141 -29.6600
50.0000 2.9135 17.4078
50.0000 -10.5818 -15.5898
50.0000 -8.0507 22.6055
50.0000 -5.8682 -14.6264
50.0000 -13.6044 17.3015
50.0000 -13.6915 -28.7987
50.0000 -7.1464 25.4582
50.0000 -8.5407 20.3290
50.0000 0.8448 -11.5612
50.0000 8.1898 -22.4365
50.0000 7.1663 39.4437
50.0000 3.4164 3.0755
50.0000 -9.4442 31.1744
50.0000 11.7715 -24.9092
50.0000 14.8370 -26.5039
50.0000 -12.5176 -30.4394
50.0000 -3.2992 -17.3987
50.0000 -7.9372 36.5440
50.0000 -7.2545 4.7381
50.0000 -3.8643 39.5306
50.0000 8.7819 22.3587
50.0000 -7.2740 -22.6672
50.0000 -0.1031 -19.4416
50.0000 -11.5611 -29.6677
50.0000 -3.3497 37.3516
50.0000 10.7540 -30.0843
50.0000 -10.6149 14.2485
50.0000 0.1809 16.4999
50.0000 -6.3490 28.5612
50.0000 -13.7851 9.6979
50.0000 -7.2224 -32.7947
50.0000 -9.7287 16.2056
50.0000 -9.9643 -36.4092
50.0000 4.0121 3.3913
50.0000 11.1246 4.0073
50.0000 -6.7770 -8.0715
50.0000 9.7267 -28.9580
50.0000 -9.4948 36.1260
50.0000 -8.5604 -6.8417
50.0000 11.4889 18.8614
50.0000 14.0433 -1.0661
50.0000 14.4378 14.3320
50.0000 3.3529 21.6954
50.0000 -0.9333 4.5789
50.0000 -13.7604 -12.4081
50.0000 -2.0291 -18.9333
50.0000 2.3269 -23.5382
50.0000 4.3951 29.0140
50.0000 -9.7292 18.6375
50.0000 -14.5360 25.9475
50.0000 -8.1711 -7.6098
50.0000 13.8109 29.4164
50.0000 9.8885 -30.1992
50.0000 7.2690 36.0084
50.0000 11.0925 8.3233
50.0000 3.5506 -30.2320
50.0000 -3.7957 29.1422
50.0000 1.3757 -4.4682
50.0000 -1.5784 4.8338
50.0000 -11.3729 37.1155
50.0000 2.1775 -34.8339
50.0000 -10.9877 4.8007
50.0000 1.6815 24.8977
50.0000 -14.1370 -6.7849
50.0000 1.3377 7.5922
50.0000 12.4379 -33.8605
50.0000 11.6648 1.3979
50.0000 8.3124 0.5861
50.0000 14.2255 28.0578
50.0000 -11.4310 -34.2867
50.0000 -12.4766 16.9407
50.0000 3.8383 -1.6795
50.0000 -10.1235 -15.0843
50.0000 14.5947 23.8489
50.0000 1.3448 23.6475
50.0000 -8.2304 -19.3661
50.0000 -14.3169 35.2635
50.0000 -0.6794 -31.8193
50.0000 -0.4718 -38.3600
50.0000 11.6385 33.0558
50.0000 -4.2410 -24.2228
50.0000 11.4201 29.3405
50.0000 8.3678 33.9752
50.0000 7.9934 23.3200
-50.0000 -9.1050 -18.6121
-50.0000 8.3374 -16.2054
-50.0000 2.5234 -13.2671
-50.0000 13.6933 2.3198
-50.0000 -1.1364 14.4220
-50.0000 -0.5609 0.3335
-50.0000 -13.4840 12.7852
-50.0000 -13.4751 28.8898
-50.0000 10.9799 -32.0449
-50.0000 -8.1883 5.2537
-50.0000 -13.9432 -2.4508
-50.0000 -3.4696 -11.0423
-50.0000 -6.3470 -10.6976
-50.0000 8.1373 9.4851
-50.0000 9.3790 -32.8356
-50.0000 9.6528 -23.1563
-50.0000 4.4625 -2.2067
-50.0000 13.0826 39.5109
-50.0000 -11.9577 31.6462
-50.0000 -11.8971 3.3699
-50.0000 2.8154 26.5983
-50.0000 4.3759 -33.8164
-50.0000 5.0304 -12.6283
-50.0000 4.0336 -10.3403
-50.0000 13.4643 29.2561
-50.0000 -1.9292 22.3355
-50.0000 7.8808 -36.6480
-50.0000 -11.8350 -17.8022
-50.0000 -2.3107 -18.9944
-50.0000 -8.6956 -4.0606
-50.0000 -0.3065 -32.7468
-50.0000 0.2420 -36.5693
-50.0000 12.5522 -17.2440
-50.0000 -9.6569 31.3978
-50.0000 -3.7478 -18.5634
-50.0000 0.5451 -7.3748
-50.0000 1.6820 -5.3755
-50.0000 -0.5454 29.0006
-50.0000 -5.8151 8.0205
-50.0000 6.6910 28.3982
-50.0000 -14.3281 -36.8579
-50.0000 7.8014 18.3290
-50.0000 6.4099 -7.8433
-50.0000 14.8030 -34.1097
-50.0000 -2.6696 23.7914
-50.0000 -6.9612 20.4360
-50.0000 1.7784 34.6411
-50.0000 12.1154 -4.2886
-50.0000 1.4128 -25.6260
-50.0000 -11.3247 -18.7839
-50.0000 -11.6313 -39.5229
-50.0000 11.3096 5.6811
-50.0000 -8.9479 26.6731
-50.0000 -12.6240 12.8084
-50.0000 -0.8598 -12.6097
-50.0000 -9.6055 23.8723
-50.0000 13.4214 24.2559
-50.0000 -4.7332 -20.9908
-50.0000 0.0571 -19.7931
-50.0000 13.3344 -2.3468
-50.0000 -5.3994 -19.3057
-50.0000 -7.9309 15.8260
-50.0000 14.9690 -17.2751
-50.0000 12.3818 12.1030
-50.0000 -8.2142 21.6034
-50.0000 11.7854 4.7223
-50.0000 3.1655 15.0659
-50.0000 -1.9433 34.7425
-50.0000 10.3623 37.1196
-50.0000 9.9412 -22.0324
-50.0000 7.4996 -18.1618
-50.0000 -14.5418 -13.7819
-50.0000 -13.2534 -36.9390
-50.0000 -6.9780 -3.2319
-50.0000 13.4564 -13.3174
-50.0000 -5.7383 -25.4600
-50.0000 -11.0761 8.1165
-50.0000 11.6881 21.7864
-50.0000 1.9843 33.9019
-50.0000 14.8496 29.6393
-50.0000 11.3983 35.5252
-50.0000 -2.1056 -5.6680
-50.0000 -3.0003 9.8763
-50.0000 -4.5859 -15.9371
-50.0000 -10.9904 37.1896
-50.0000 -8.2372 24.3726
-11.4766 15.0000 23.2206
46.0036 15.0000 14.1248
49.1245 15.0000 -21.2771
11.5776 15.0000 0.7080
-30.0580 15.0000 -9.1592
12.1247 15.0000 -38.0940
-39.0152 15.0000 30.8887
-16.5027 15.0000 -28.7493
26.2320 15.0000 -35.9953
1.0300 15.0000 26.8000
4.5135 15.0000 -0.7389
-0.9895 15.0000 -28.5454
-13.1221 15.0000 30.8932
33.3020 15.0000 -7.3925
6.1941 15.0000 -20.7112
32.8369 15.0000 22.5367
13.5797 15.0000 13.9844
-36.5530 15.0000 39.7168
-16.1433 15.0000 32.3011
8.8701 15.0000 -12.3289
33.3792 15.0000 -33.1956
21.2661 15.0000 -24.6824
-23.3666 15.0000 -11.8690
37.5180 15.0000 -7.4527
23.2715 15.0000 -33.8577
-9.1734 15.0000 -22.9395
21.2877 15.0000 0.6247
-20.1992 15.0000 7.0038
38.8565 15.0000 19.5295
-1.3137 15.0000 17.5847
40.7609 15.0000 -28.5801
-0.3973 15.0000 -14.3277
2.4189 15.0000 -0.4010
18.5362 15.0000 -20.1231
-29.5632 15.0000 -0.0899
19.0782 15.0000 -22.1813
-15.6741 15.0000 28.2312
-2.3852 15.0000 8.6704
-43.6239 15.0000 18.2727
-37.1138 15.0000 8.9556
13.0169 15.0000 13.5510
-13.2481 15.0000 -6.6698
19.1510 15.0000 -23.9959
18.1515 15.0000 -14.7940
-30.4826 15.0000 1.9758
-19.4546 15.0000 36.3523
-45.3157 15.0000 -14.1869
-33.3885 15.0000 35.4221
-0.9817 15.0000 17.1470
2.6014 15.0000 -30.8500
-35.9993 15.0000 -6.5207
0.5621 15.0000 -37.1203
7.3684 15.0000 -29.6726
-14.6467 15.0000 20.8176
-41.4512 15.0000 11.2002
-42.9507 15.0000 -21.2554
-42.4852 15.0000 33.5581
41.7216 15.0000 -37.0609
40.5659 15.0000 28.5958
4.8871 15.0000 -27.1316
-30.4318 15.0000 -24.8216
-1.5166 15.0000 -27.7680
-33.7142 15.0000 -9.0975
23.3127 15.0000 7.1653
46.7837 15.0000 6.0046
-40.6243 15.0000 -0.8062
-13.1230 15.0000 9.7870
7.6094 15.0000 6.7243
8.3070 15.0000 9.6582
33.4819 15.0000 -13.7589
-27.8278 15.0000 -32.6371
31.2337 15.0000 6.5063
-43.7312 15.0000 -27.0661
-23.8185 15.0000 33.2468
39.6934 15.0000 39.0318
-3.8678 15.0000 -34.3268
15.0014 15.0000 16.3075
-38.3893 15.0000 26.2167
-29.7874 15.0000 -39.2388
-47.7952 15.0000 -27.5773
-33.9769 15.0000 -13.5912
15.2386 15.0000 38.0219
-22.5460 15.0000 18.9625
-4.1003 15.0000 5.2064
-25.5817 15.0000 -29.2756
-21.5932 -15.0000 23.3715
0.3650 -15.0000 3.5789
13.9515 -15.0000 -2.6816
-23.7166 -15.0000 11.9691
5.1570 -15.0000 -36.1563
30.8653 -15.0000 30.3783
27.2058 -15.0000 -10.1761
-5.1463 -15.0000 22.2089
-46.0007 -15.0000 -28.1788
-23.4235 -15.0000 -22.0387
27.4699 -15.0000 1.4725
15.2530 -15.0000 -9.6867
16.3971 -15.0000 9.9420
-48.3424 -15.0000 -36.8577
-8.7597 -15.0000 10.4439
-42.1730 -15.0000 -5.4429
-10.6017 -15.0000 -12.9045
0.8283 -15.0000 21.4816
3.0287 -15.0000 -14.7592
13.0976 -15.0000 -10.3179
-5.1629 -15.0000 21.3304
47.2767 -15.0000 -0.9622
-16.1431 -15.0000 -6.4429
-17.4244 -15.0000 -29.5282
25.2672 -15.0000 -22.9591
-0.0806 -15.0000 36.9857
-26.6736 -15.0000 -8.9579
-22.8699 -15.0000 -38.4008
5.0071 -15.0000 38.4450
38.5243 -15.0000 -11.5749
-11.8691 -15.0000 -11.8902
18.6576 -15.0000 -2.5287
-29.0109 -15.0000 9.2202
19.5919 -15.0000 -37.2651
14.4144 -15.0000 -14.8205
21.3011 -15.0000 -29.0433
25.0290 -15.0000 -17.6648
-20.8470 -15.0000 31.5237
21.8844 -15.0000 14.8411
-3.3234 -15.0000 26.7759
-43.4271 -15.0000 -16.8693
35.9037 -15.0000 -2.3079
46.7889 -15.0000 7.4008
-16.1796 -15.0000 -2.5666
-18.9751 -15.0000 -17.3240
-3.8400 -15.0000 -35.9809
-6.2511 -15.0000 3.2077
-45.8948 -15.0000 -15.2043
48.3131 -15.0000 34.1732
24.4608 -15.0000 29.9072
47.1385 -15.0000 -8.5990
-39.9447 -15.0000 -32.8085
-28.0047 -15.0000 39.2255
25.0400 -15.0000 24.0385
-24.2213 -15.0000 -31.4061
-9.4770 -15.0000 -19.7519
-15.1888 -15.0000 21.4810
8.6142 -15.0000 -4.7071
-30.9450 -15.0000 9.6572
2.3884 -15.0000 7.1209
5.3994 -15.0000 11.6809
4.5411 -15.0000 -26.9794
31.7247 -15.0000 -13.5817
-29.7210 -15.0000 -5.8413
-40.1518 -15.0000 25.9127
46.7443 -15.0000 -2.6736
43.8547 -15.0000 -35.2229
-32.7416 -15.0000 3.8144
-10.6620 -15.0000 -34.1292
45.7907 -15.0000 27.6833
-5.0742 -15.0000 -5.6030
-28.7966 -15.0000 24.2727
-12.0299 -15.0000 -9.2219
-24.8207 -15.0000 33.1909
-22.8183 -15.0000 -29.4500
30.2977 -15.0000 35.6452
-7.7563 -15.0000 22.9972
-38.0608 -15.0000 -12.6095
34.8631 -15.0000 -21.6010
-0.4731 -15.0000 -26.5017
40.2163 -15.0000 33.1227
10.4186 -15.0000 -27.6483
-17.3890 -15.0000 12.1370
-34.4477 -15.0000 -12.1375
-42.7269 -15.0000 -0.2460
-31.6700 9.3891 40.0000
2.9923 4.7375 40.0000
38.1091 -8.6397 40.0000
-23.9083 11.3690 40.0000
26.4810 -3.2414 40.0000
49.0387 -0.7465 40.0000
35.2056 4.5189 40.0000
-32.9504 13.2208 40.0000
-24.8299 11.2580 40.0000
3.1617 10.0001 40.0000
-11.2295 13.5232 40.0000
-9.0917 -0.1699 40.0000
-26.0807 -3.9392 40.0000
20.2993 -4.5591 40.0000
48.3163 -9.9610 40.0000
-20.7238 -2.8453 40.0000
43.2621 6.7388 40.0000
33.9415 -7.8756 40.0000
-24.2092 -14.6318 40.0000
-44.8588 9.6718 40.0000
13.2791 -2.1502 40.0000
-46.3234 13.7969 40.0000
2.7776 -5.0089 40.0000
13.1058 6.7537 40.0000
-37.5530 -8.6773 40.0000
12.9046 -0.1483 40.0000
20.2506 5.9623 40.0000
4.4467 -7.0284 40.0000
-38.3316 -10.3510 40.0000
18.8621 -12.8609 40.0000
19.9960 -12.0645 40.0000
24.1608 13.8975 40.0000
16.9927 11.5679 40.0000
9.8666 -6.2957 40.0000
15.8945 5.1547 40.0000
21.0433 -2.9825 40.0000
-22.2929 1.2318 40.0000
44.5312 9.6789 40.0000
28.7887 13.8500 40.0000
-48.9387 -12.2364 40.0000
-9.5469 9.9257 40.0000
16.9386 -5.2335 40.0000
38.8580 -14.8288 40.0000
-36.3462 -4.1302 40.0000
8.2592 14.2513 40.0000
26.7911 -2.2756 40.0000
-22.3795 -4.0007 40.0000
-0.4541 1.9708 40.0000
4.1354 13.3680 40.0000
-41.1811 -2.8994 40.0000
-44.4414 -3.4008 40.0000
-43.6822 -13.6942 40.0000
-25.3903 8.0637 40.0000
13.3128 -2.6235 40.0000
7.9930 -13.2484 40.0000
15.8962 -0.1548 40.0000
-22.0243 -3.7484 40.0000
-44.2342 12.8906 40.0000
44.8425 -10.8217 40.0000
7.3125 -9.5032 40.0000
-18.3096 8.8697 40.0000
-12.1331 0.3651 40.0000
-1.0263 -2.0327 40.0000
19.4180 -13.5420 40.0000
-19.1631 0.4109 40.0000
-32.3713 -1.4613 40.0000
18.0878 4.0939 40.0000
-21.6908 -6.2915 40.0000
-35.0965 -8.7658 40.0000
29.0977 -3.5191 40.0000
-40.6383 -5.4376 40.0000
26.9600 -14.1079 40.0000
-12.8668 7.4569 40.0000
28.1015 6.3205 40.0000
-47.8563 9.4269 40.0000
-23.6508 -8.2775 40.0000
-22.1035 -10.8235 40.0000
8.2749 4.7564 40.0000
39.3234 12.5637 40.0000
20.1246 1.2713 40.0000
43.1987 -4.7681 40.0000
-6.3474 6.8271 40.0000
24.9640 5.0647 40.0000
-26.1025 -1.6008 40.0000
29.5306 -8.6743 40.0000
28.0942 -1.3319 -40.0000
40.2111 1.8938 -40.0000
-39.2293 -7.8850 -40.0000
-7.9972 -12.3150 -40.0000
-45.2225 -1.2328 -40.0000
-2.7740 -0.3695 -40.0000
1.8418 -11.8904 -40.0000
8.4371 2.5001 -40.0000
39.6930 0.2138 -40.0000
-3.9198 5.2968 -40.0000
17.7665 -11.7042 -40.0000
-44.3500 6.8998 -40.0000
34.0430 -10.8488 -40.0000
-5.1268 8.6886 -40.0000
12.7622 1.5843 -40.0000
49.7556 -13.7486 -40.0000
35.6930 -1.2699 -40.0000
27.9324 10.0705 -40.0000
-19.1496 2.2911 -40.0000
2.5112 3.0908 -40.0000
-30.2047 -4.2519 -40.0000
39.1825 3.9543 -40.0000
20.4919 -6.4158 -40.0000
-6.4839 -13.7116 -40.0000
-7.8896 0.5764 -40.0000
47.1258 7.2954 -40.0000
33.2041 8.2642 -40.0000
-4.0292 8.3172 -40.0000
9.2992 13.5415 -40.0000
-33.9970 -12.6725 -40.0000
-26.0623 -1.1293 -40.0000
42.1406 11.8633 -40.0000
46.3932 -6.7054 -40.0000
35.9770 13.9418 -40.0000
41.1031 -6.0099 -40.0000
40.2411 -13.1877 -40.0000
14.8274 -14.1509 -40.0000
18.7626 -3.7239 -40.0000
2.6094 0.6169 -40.0000
-25.4585 -8.0962 -40.0000
-34.3772 4.2955 -40.0000
14.1240 5.2483 -40.0000
-8.3324 -1.1444 -40.0000
-5.3845 11.5611 -40.0000
-26.1851 14.4486 -40.0000
7.0454 -3.8377 -40.0000
1.0311 11.1231 -40.0000
47.1008 -9.1008 -40.0000
-3.4294 7.8953 -40.0000
-47.9031 4.5375 -40.0000
-49.1680 3.5346 -40.0000
-13.2323 -4.1691 -40.0000
19.3169 10.1664 -40.0000
-39.3933 7.1063 -40.0000
-47.8716 -4.6956 -40.0000
23.2824 0.8460 -40.0000
5.1246 1.2858 -40.0000
30.0026 -9.8754 -40.0000
11.1907 8.1881 -40.0000
33.2453 10.3818 -40.0000
-42.7053 14.0479 -40.0000
43.8441 -9.5322 -40.0000
20.6348 -0.1542 -40.0000
33.1215 5.8977 -40.0000
45.1379 10.7191 -40.0000
-49.3795 -5.9782 -40.0000
-4.6752 10.4578 -40.0000
-20.2986 13.9141 -40.0000
16.5659 -8.7483 -40.0000
-30.9890 0.3067 -40.0000
23.5973 0.8875 -40.0000
38.0625 -1.4164 -40.0000
49.0867 -8.9780 -40.0000
-22.2012 12.8308 -40.0000
48.1821 -14.7021 -40.0000
-48.2349 -9.2963 -40.0000
34.9540 -9.9756 -40.0000
-21.5171 0.5338 -40.0000
-11.6200 -12.4230 -40.0000
-30.7169 -0.2940 -40.0000
-49.4062 0.0295 -40.0000
18.1729 -6.3862 -40.0000
24.9406 1.7477 -40.0000
-9.7949 -6.4930 -40.0000
-33.8613 -3.8564 -40.0000
50.0000 6.5037 22.9070
50.0000 -33.4971 18.7934
50.0000 -5.3579 1.2308
50.0000 -25.3657 5.1755
50.0000 6.0397 -37.5859
50.0000 -65.5556 33.6656
50.0000 4.1868 -26.5667
50.0000 -7.8833 -20.0275
50.0000 -35.6320 13.2785
50.0000 4.4656 31.4947
50.0000 -24.7385 -21.3960
50.0000 -81.8651 29.7137
50.0000 3.8842 7.9696
50.0000 0.5127 -39.5795
50.0000 0.5833 4.7276
50.0000 -35.9356 33.3549
50.0000 -2.6654 17.1899
50.0000 -7.9112 -20.1438
50.0000 5.7868 9.1476
50.0000 -67.1150 -29.3512
50.0000 -76.0802 16.9700
50.0000 -26.7162 -39.0430
50.0000 -63.7943 23.9859
50.0000 -10.9710 -19.6574
50.0000 -50.3011 6.8256
50.0000 -73.9436 -18.5788
50.0000 -22.4598 23.8384
50.0000 -34.2201 -27.8719
50.0000 -54.7162 -7.8549
50.0000 -80.8713 -30.9448
50.0000 -39.3895 13.9234
50.0000 -68.1422 -27.2155
50.0000 -36.1639 -33.0825
50.0000 -40.4492 36.0528
50.0000 -65.4052 -6.4987
50.0000 -1.5272 -11.3596
50.0000 -46.1592 -30.7848
50.0000 -62.0680 -11.9410
50.0000 -5.4976 6.6644
50.0000 -10.7411 34.9444
50.0000 -59.2492 -32.8062
50.0000 -26.3793 -38.8392
50.0000 -12.8732 35.4060
50.0000 13.7536 5.5388
50.0000 -12.8383 33.1477
50.0000 -18.2487 4.9085
50.0000 -77.8070 0.9777
50.0000 -30.5433 1.3410
50.0000 -26.7510 36.1741
50.0000 -69.6659 19.6051
50.0000 -2.3922 9.8485
50.0000 -59.1456 32.0393
50.0000 -30.8641 -3.0133
50.0000 -61.1152 -3.8413
50.0000 -58.1277 -9.6084
50.0000 12.1012 -25.8039
50.0000 -7.5830 -19.6431
50.0000 -23.1484 -25.0056
50.0000 -64.6559 33.9648
50.0000 3.6047 16.5271
50.0000 -26.2489 1.5301
50.0000 -60.8763 18.5987
50.0000 -75.9917 20.4709
50.0000 -71.3718 -5.4539
50.0000 -49.3809 6.0703
50.0000 9.6546 -17.3902
50.0000 -62.7303 -29.1082
50.0000 -34.7445 -39.0952
50.0000 -10.6874 1.0792
50.0000 -81.6717 -31.8758
50.0000 -44.0058 -11.4524
50.0000 4.7122 37.1886
50.0000 -70.1911 21.4715
50.0000 -84.7100 -12.7624
50.0000 -28.0408 8.7197
50.0000 -38.5906 29.5107
50.0000 -23.1371 8.2559
50.0000 -35.4129 -37.2468
50.0000 -27.0867 15.2126
50.0000 -39.4451 8.6722
50.0000 -60.6504 0.1223
50.0000 -67.0684 -18.7402
50.0000 -62.4422 -38.3442
50.0000 -66.0628 8.1351
50.0000 -22.4852 -24.1755
50.0000 -53.7468 30.9155
20.0000 -73.0815 38.1904
20.0000 -59.2955 -31.2775
20.0000 -37.4645 -5.5911
20.0000 -68.5102 -12.9606
20.0000 -67.2303 19.6370
20.0000 1.7444 -32.3330
20.0000 -30.9483 16.8906
20.0000 -70.0128 -11.7304
20.0000 -80.4186 2.0848
20.0000 3.4126 -27.0576
20.0000 12.0456 -31.5117
20.0000 -13.0024 3.8466
20.0000 11.2377 -30.2733
20.0000 -26.1839 -5.3651
20.0000 -77.4787 -13.3887
20.0000 -47.1036 21.1438
20.0000 2.2736 29.8728
20.0000 -55.0887 -38.0300
20.0000 -62.5680 -26.5616
20.0000 -33.3711 -28.5975
20.0000 -63.7419 6.3254
20.0000 -84.0279 -11.8166
20.0000 -18.1731 17.1992
20.0000 -47.9797 2.4692
20.0000 -70.6086 -1.4201
20.0000 -84.2747 35.4781
20.0000 -14.3643 -35.0849
20.0000 -18.2747 -23.7120
20.0000 2.3373 -4.2799
20.0000 -46.4332 8.3268
20.0000 -51.1779 17.5022
20.0000 -54.5282 8.2049
20.0000 -25.2754 -10.7500
20.0000 -61.8578 -36.5155
20.0000 -79.8494 8.2319
20.0000 -60.6028 24.5914
20.0000 -84.3028 1.4615
20.0000 3.9918 -14.4520
20.0000 -27.7852 34.6712
20.0000 11.8952 -30.4231
20.0000 -57.3764 -27.8110
20.0000 6.7744 -4.1200
20.0000 -36.4179 -11.2544
20.0000 -77.3461 19.6297
20.0000 -6.1575 -36.8468
20.0000 -52.7178 -8.0999
20.0000 -73.4771 -27.1465
20.0000 -16.8458 29.6721
20.0000 -38.1844 -21.6971
20.0000 2.3933 29.7092
20.0000 -0.2673 35.8529
20.0000 9.4717 34.3573
20.0000 0.7474 -26.5488
20.0000 -45.6489 19.7346
20.0000 -11.6725 1.6499
20.0000 -63.6298 -14.1037
20.0000 -54.6317 5.3769
20.0000 -1.6350 -34.3518
20.0000 -75.8501 32.9491
20.0000 -80.9722 -11.8149
20.0000 -16.5425 -5.5312
20.0000 -54.4335 -13.7252
20.0000 -64.8674 -25.2751
20.0000 -45.5708 17.5070
20.0000 -38.5808 8.2005
20.0000 13.5372 5.5214
20.0000 -35.3335 14.5509
20.0000 -52.7735 32.9153
20.0000 -54.0816 -23.3819
20.0000 -71.4310 2.5511
20.0000 6.5449 -29.9737
20.0000 -83.6033 -15.4686
20.0000 9.2980 -23.3027
20.0000 -0.7073 -29.3230
20.0000 -72.6325 36.7986
20.0000 -43.0726 -18.4465
20.0000 5.1752 2.7517
20.0000 -9.5676 -29.7498
20.0000 0.6591 15.1268
20.0000 -70.8178 -21.5527
20.0000 -44.3578 -28.1449
20.0000 -20.3741 -9.7177
20.0000 13.2756 -17.6797
20.0000 -31.6339 6.2836
20.0000 -72.8588 -9.2647
20.0000 -39.0371 -31.5819
48.9650 15.0000 -17.1265
49.3939 15.0000 32.7162
29.0698 15.0000 22.7207
30.8759 15.0000 -23.1402
41.7391 15.0000 3.5161
29.1551 15.0000 5.7132
27.0518 15.0000 -33.3978
48.2475 15.0000 -36.6912
31.1294 15.0000 -3.5437
25.7640 15.0000 11.2426
41.8648 15.0000 -32.0851
23.0161 15.0000 -37.5201
48.2404 15.0000 -5.1170
48.0029 15.0000 -20.6230
35.5885 15.0000 -19.5466
24.6412 15.0000 13.1234
43.5276 15.0000 -36.4614
37.7168 15.0000 -5.9128
31.2761 15.0000 27.0360
44.9958 15.0000 -37.0329
27.8660 15.0000 -39.2825
27.0929 15.0000 -38.6586
26.3453 15.0000 -34.4578
26.9795 15.0000 -29.4935
28.0776 15.0000 21.1142
29.8750 15.0000 -37.0259
40.8152 15.0000 8.2691
22.0552 15.0000 35.8049
49.3866 15.0000 -8.1910
34.8564 15.0000 -39.0171
48.1220 15.0000 22.3278
33.2569 15.0000 -5.3133
32.8727 15.0000 10.0076
29.3888 15.0000 6.8292
21.5462 15.0000 17.3816
38.5399 15.0000 34.0458
29.0245 15.0000 -31.9924
28.2506 15.0000 -31.2055
46.4088 15.0000 -21.9543
31.0145 15.0000 -13.6142
36.1954 15.0000 -0.4295
37.4959 15.0000 16.2853
24.5706 15.0000 6.8000
31.3951 15.0000 -39.6123
35.6577 15.0000 34.1069
48.5704 15.0000 27.3479
21.4941 15.0000 -0.1426
38.3222 15.0000 24.2770
35.1017 15.0000 -31.0165
33.3101 15.0000 4.0333
46.1985 15.0000 9.9787
30.3020 15.0000 14.9256
24.0486 15.0000 0.9625
31.3627 15.0000 -2.1912
21.7994 15.0000 -35.0843
24.2542 15.0000 34.8364
40.5561 15.0000 14.8668
25.0285 15.0000 39.7047
45.9357 15.0000 -13.7942
48.7326 15.0000 -19.6768
48.3057 15.0000 -2.3294
24.4370 15.0000 -28.7000
28.1439 15.0000 -9.6442
28.2331 15.0000 -4.2527
41.6393 15.0000 28.7539
45.3547 15.0000 29.1580
33.6562 15.0000 -22.4995
41.8973 15.0000 14.3009
22.4778 15.0000 -20.8750
23.5939 15.0000 -32.3854
34.6315 15.0000 12.8612
28.2725 15.0000 -25.0603
36.9763 15.0000 -16.0560
43.3868 15.0000 -9.1537
38.4959 15.0000 11.0603
34.3333 15.0000 38.8205
29.6494 15.0000 -16.5692
44.5246 15.0000 -2.2482
43.8994 15.0000 -20.1731
31.2067 15.0000 -38.1756
47.6076 15.0000 -10.3485
28.5675 15.0000 34.9206
27.9271 15.0000 -31.8884
37.3907 15.0000 32.2258
28.5198 15.0000 -0.9936
20.2080 -85.0000 -18.8172
35.1858 -85.0000 -16.8672
31.9536 -85.0000 -15.6590
33.5139 -85.0000 -5.5379
20.5895 -85.0000 -22.3466
44.5920 -85.0000 24.4261
26.6088 -85.0000 10.8980
40.4472 -85.0000 10.9128
46.3549 -85.0000 -32.5204
22.9201 -85.0000 8.7092
30.0832 -85.0000 29.5557
31.2163 -85.0000 -16.7351
43.6331 -85.0000 -17.1554
29.6511 -85.0000 7.6081
26.0307 -85.0000 -13.7605
47.7215 -85.0000 39.8826
33.9665 -85.0000 -0.5772
25.9265 -85.0000 -29.4072
47.4618 -85.0000 26.4695
41.7827 -85.0000 -9.1494
38.2198 -85.0000 -24.8783
26.4708 -85.0000 17.3720
25.1244 -85.0000 -28.3942
38.9399 -85.0000 -1.8453
36.0617 -85.0000 36.9120
36.0623 -85.0000 -0.5775
38.4842 -85.0000 -38.8524
31.0904 -85.0000 6.6687
40.3425 -85.0000 0.6258
25.1105 -85.0000 -33.1669
48.8412 -85.0000 5.0902
46.0707 -85.0000 24.4267
22.6369 -85.0000 -23.9217
49.9726 -85.0000 22.0898
24.6228 -85.0000 -4.2058
22.4504 -85.0000 -30.2472
36.2565 -85.0000 -8.3793
46.3672 -85.0000 -36.8804
35.7467 -85.0000 -17.6991
29.6403 -85.0000 22.3407
48.6516 -85.0000 19.2550
38.0172 -85.0000 -1.2162
24.0308 -85.0000 15.8514
27.3741 -85.0000 -26.7474
43.3491 -85.0000 -31.2839
37.8943 -85.0000 13.4563
39.6776 -85.0000 -19.1621
33.3164 -85.0000 -13.6682
41.3244 -85.0000 -2.4212
27.8054 -85.0000 -34.8282
48.1535 -85.0000 -6.7339
26.7003 -85.0000 3.5775
20.5589 -85.0000 -27.1131
32.6398 -85.0000 -4.4604
23.4740 -85.0000 -8.8097
39.5757 -85.0000 39.2548
38.1532 -85.0000 -34.7985
34.9432 -85.0000 2.8451
36.2167 -85.0000 -5.8208
36.2651 -85.0000 -30.2653
21.9529 -85.0000 -22.6770
45.7604 -85.0000 2.1398
46.6897 -85.0000 -12.7831
36.7735 -85.0000 -35.7164
24.6303 -85.0000 32.2040
33.6600 -85.0000 8.7551
21.1512 -85.0000 9.9278
29.6876 -85.0000 -36.5255
48.8044 -85.0000 24.7787
37.4442 -85.0000 -13.7719
32.1299 -85.0000 20.4866
49.1437 -85.0000 -17.5293
22.6052 -85.0000 23.2875
20.6905 -85.0000 -4.1397
38.6683 -85.0000 28.0418
36.3807 -85.0000 -22.7321
20.3334 -85.0000 -3.5926
33.0627 -85.0000 -5.8239
48.6576 -85.0000 -6.0631
44.6070 -85.0000 -32.5152
48.0888 -85.0000 -26.2451
29.4653 -85.0000 -23.9712
24.6433 -85.0000 9.1693
23.2742 -85.0000 -13.7976
21.9667 -85.0000 15.9102
25.3743 -13.4326 40.0000
28.3582 4.8585 40.0000
40.2128 -77.7758 40.0000
24.5899 -70.3257 40.0000
20.9723 -39.5045 40.0000
31.6423 -44.4097 40.0000
26.5508 -39.7626 40.0000
47.1649 -81.7715 40.0000
34.7549 -83.5611 40.0000
22.9749 -26.2317 40.0000
46.3559 -13.3645 40.0000
23.3502 -51.0142 40.0000
49.4568 -55.6772 40.0000
47.4368 7.6525 40.0000
22.6332 -17.4122 40.0000
24.2665 -17.1943 40.0000
37.2329 -56.5110 40.0000
25.9855 6.5457 40.0000
39.9423 -50.6641 40.0000
26.7005 -63.4755 40.0000
39.1003 -9.8468 40.0000
46.9666 -29.0147 40.0000
44.3298 -71.4566 40.0000
49.4583 9.8123 40.0000
40.5547 -64.5977 40.0000
24.2901 -56.0406 40.0000
37.0231 -80.5554 40.0000
24.0143 -23.1555 40.0000
48.4722 -79.5048 40.0000
37.8106 -14.1757 40.0000
44.3825 2.6218 40.0000
20.7665 -9.1784 40.0000
45.7234 -57.8068 40.0000
30.9862 -46.5604 40.0000
43.2843 -64.5111 40.0000
44.4056 -76.8966 40.0000
31.0850 1.8068 40.0000
30.7178 -51.9271 40.0000
38.3520 -38.3190 40.0000
20.6297 -18.1239 40.0000
47.3837 -64.7798 40.0000
32.2741 -20.7467 40.0000
40.6081 -66.4627 40.0000
31.5815 -76.4025 40.0000
25.4572 -58.2617 40.0000
24.4645 -31.2554 40.0000
40.4830 10.8492 40.0000
48.9587 -8.0976 40.0000
45.2925 -1.4970 40.0000
38.9607 -58.5235 40.0000
40.3910 -63.2568 40.0000
25.9439 -23.1781 40.0000
46.2396 -4.1293 40.0000
48.2314 11.3886 40.0000
27.2682 -10.8463 40.0000
44.5034 -16.6794 40.0000
33.7417 8.5555 40.0000
43.8942 -59.4782 40.0000
44.4689 14.6087 40.0000
48.5357 -38.9732 40.0000
27.4021 -52.7111 40.0000
38.6763 -36.4140 40.0000
34.5101 -62.1487 40.0000
46.3607 -42.8464 40.0000
34.5771 -47.1532 40.0000
39.7923 -31.2659 40.0000
39.3411 -39.6629 40.0000
36.9082 -72.6962 40.0000
46.3945 13.8748 40.0000
37.9507 -21.6399 40.0000
28.0032 -74.3570 40.0000
45.6138 -56.2738 40.0000
45.0294 -63.3744 40.0000
29.7612 -67.5675 40.0000
26.6150 -26.8681 40.0000
22.2083 -40.9993 40.0000
29.3215 -47.8593 40.0000
37.1682 -23.0315 40.0000
34.0608 0.2691 40.0000
45.6508 -15.6309 40.0000
30.3981 -63.5383 40.0000
28.7966 -69.1867 40.0000
29.3774 -12.1343 40.0000
25.0158 -79.8529 40.0000
47.0810 7.3797 40.0000
27.2548 -14.6636 -40.0000
36.5548 -13.3823 -40.0000
23.8568 -24.8830 -40.0000
20.2095 -13.7204 -40.0000
28.6525 -12.4307 -40.0000
24.1129 -32.9234 -40.0000
41.3537 -53.3111 -40.0000
30.6824 -11.3254 -40.0000
45.1837 -12.6056 -40.0000
22.8145 -47.1853 -40.0000
44.6449 -6.4099 -40.0000
39.3332 5.7191 -40.0000
31.2198 -0.3416 -40.0000
39.6915 -67.9279 -40.0000
24.9577 -8.6993 -40.0000
37.9926 -41.3067 -40.0000
21.1787 -23.2784 -40.0000
37.5240 -10.9873 -40.0000
33.6542 -14.6765 -40.0000
24.9314 -84.7583 -40.0000
49.2848 -40.2148 -40.0000
27.0781 -74.5193 -40.0000
25.9348 13.7694 -40.0000
43.3172 -83.0350 -40.0000
33.3564 -64.4184 -40.0000
45.9867 -5.8118 -40.0000
49.0247 14.8713 -40.0000
44.0326 -16.8425 -40.0000
24.3904 11.4892 -40.0000
30.8562 -62.4547 -40.0000
33.4072 -17.9731 -40.0000
35.8273 -28.1450 -40.0000
31.2039 -41.1933 -40.0000
32.8255 -74.1830 -40.0000
33.1392 -41.0981 -40.0000
45.8451 -33.4643 -40.0000
49.1819 -19.7679 -40.0000
31.4255 0.7623 -40.0000
38.1786 14.0566 -40.0000
34.5752 -55.9410 -40.0000
41.6546 -52.4132 -40.0000
32.1800 -63.7404 -40.0000
29.2805 -22.7794 -40.0000
47.4767 -3.4190 -40.0000
45.1736 10.9557 -40.0000
42.0777 -81.0253 -40.0000
42.0247 -80.4735 -40.0000
48.7634 -66.8089 -40.0000
20.6828 -46.1088 -40.0000
24.8077 -2.9233 -40.0000
37.7317 -51.5856 -40.0000
26.8780 -43.9210 -40.0000
48.9975 -0.8053 -40.0000
39.6666 -50.5909 -40.0000
26.9571 4.8085 -40.0000
25.0121 -55.9010 -40.0000
23.1948 -44.4065 -40.0000
22.3228 -26.8050 -40.0000
46.4911 -6.1550 -40.0000
47.5525 -56.3079 -40.0000
30.7813 -71.3932 -40.0000
44.1870 -27.1897 -40.0000
32.1740 -77.3486 -40.0000
31.9935 -2.1849 -40.0000
34.5281 -36.9262 -40.0000
21.5910 -80.2231 -40.0000
21.7297 10.1481 -40.0000
40.8534 -3.2164 -40.0000
28.6346 -3.1946 -40.0000
40.5129 -72.5562 -40.0000
40.7889 -6.7704 -40.0000
46.3041 9.4917 -40.0000
29.2745 -32.1416 -40.0000
31.5455 -83.9955 -40.0000
37.4928 -3.1474 -40.0000
24.8916 4.3397 -40.0000
37.4999 -8.3220 -40.0000
32.4539 -29.7656 -40.0000
31.4767 -9.2793 -40.0000
45.2565 -81.4524 -40.0000
49.7174 -9.2292 -40.0000
48.8543 -41.6442 -40.0000
45.9208 -33.8739 -40.0000
47.2477 -30.8922 -40.0000
31.6819 0.4968 -40.0000
