ply
format ascii 1.0
element vertex 1024
property float x
property float y
property float z
end_header
50.0000 11.5448 2.5160
50.0000 -3.0462 20.8110
50.0000 -12.8352 24.6642
50.0000 -4.9667 -19.9346
50.0000 -13.8895 -2.3696
50.0000 -5.6204 15.3512
50.0000 4.0705 27.2410
50.0000 -13.6945 13.3724
50.0000 -10.2698 1.0136
50.0000 10.5041 -1.3937
50.0000 4.9069 -7.8567
50.0000 13.3349 7.0258
50.0000 -10.0802 29.4801
50.0000 -10.8291 19.9817
50.0000 4.6408 -7.3467
50.0000 -5.0156 -0.1354
50.0000 4.9504 26.5693
50.0000 7.9050 -25.1545
50.0000 8.4170 -3.1303
50.0000 -3.5786 -16.3130
50.0000 -2.6929 -10.1003
50.0000 -8.2260 -5.7736
50.0000 12.9816 29.4151
50.0000 13.6457 -8.6488
50.0000 -8.9938 23.3570
50.0000 11.8209 -18.0973
50.0000 4.8427 -21.8790
50.0000 3.2881 5.5823
50.0000 11.5223 -4.4043
50.0000 -10.3037 12.6894
50.0000 -0.9472 4.2428
50.0000 -0.3034 16.9510
50.0000 3.5816 21.1538
50.0000 14.7342 1.2453
50.0000 -13.3247 7.4360
50.0000 -0.3258 -23.7827
50.0000 4.9062 23.4853
50.0000 -4.3452 -22.4468
50.0000 -9.0087 -20.2446
50.0000 -9.9031 17.5095
50.0000 3.3010 -11.3565
50.0000 -10.2535 -10.2589
50.0000 4.2352 5.5788
50.0000 -5.1966 1.3092
50.0000 -10.4283 -2.5464
50.0000 -1.1178 -23.6684
50.0000 6.3741 -27.2511
50.0000 -4.0343 14.5699
50.0000 5.3312 -1.6650
50.0000 11.4391 -12.2363
50.0000 10.1422 -3.1453
50.0000 -9.7966 21.8285
50.0000 12.2094 -22.0315
50.0000 -7.2832 18.5208
50.0000 9.9260 -13.5249
50.0000 -0.7336 3.1134
50.0000 7.6763 0.6431
50.0000 3.8375 27.5084
50.0000 -7.1989 12.3213
50.0000 -14.7956 -8.4244
50.0000 1.4399 10.8396
50.0000 -6.3964 -13.5469
50.0000 -0.7191 -8.8223
50.0000 -14.7859 -5.9883
50.0000 -5.3537 -23.2895
50.0000 -1.1268 -23.5367
50.0000 -11.8549 12.5027
50.0000 -10.7600 26.2220
50.0000 -14.2962 -28.8644
50.0000 -4.6048 2.6557
50.0000 -9.5071 -28.8678
50.0000 -1.6370 23.7937
50.0000 14.6431 -1.1361
50.0000 4.6963 -7.8963
50.0000 -10.6793 17.6411
50.0000 -7.1965 -7.2721
50.0000 -7.1892 16.1826
50.0000 2.9835 14.2947
50.0000 12.0575 26.2291
50.0000 -12.7970 3.6030
50.0000 3.8571 -13.9090
50.0000 -14.1749 -29.2068
50.0000 -5.9924 29.2982
50.0000 -4.5771 27.4085
50.0000 -7.4737 28.8777
50.0000 -6.7890 -2.7897
-50.0000 11.7176 -21.2919
-50.0000 14.3068 -4.1955
-50.0000 -14.7210 -18.4654
-50.0000 -11.1515 -25.2414
-50.0000 0.1614 -5.1525
-50.0000 1.1211 8.3479
-50.0000 0.0785 -24.9478
-50.0000 5.8717 12.7916
-50.0000 -6.2139 -26.7183
-50.0000 -8.0984 13.7373
-50.0000 -11.5941 -1.8013
-50.0000 -12.4343 6.6573
-50.0000 6.5824 -0.8813
-50.0000 5.3238 -5.4695
-50.0000 -5.0523 -17.6100
-50.0000 5.3504 -5.6434
-50.0000 -13.9667 -23.5720
-50.0000 7.7899 19.9114
-50.0000 -13.9510 -28.1523
-50.0000 9.5832 -26.6276
-50.0000 -7.5823 11.0312
-50.0000 11.9143 -5.6002
-50.0000 8.9122 16.5148
-50.0000 -2.5694 8.9067
-50.0000 1.4921 -16.7585
-50.0000 -4.1522 16.8991
-50.0000 11.2706 -21.6128
-50.0000 9.1223 -21.3814
-50.0000 4.9890 -13.4577
-50.0000 9.6195 -3.3374
-50.0000 9.9143 11.0153
-50.0000 -2.8098 25.8488
-50.0000 -4.5581 -11.7349
-50.0000 -1.5222 15.1530
-50.0000 14.9979 29.8143
-50.0000 -4.9080 -7.9498
-50.0000 -12.8094 9.4167
-50.0000 5.0109 24.4070
-50.0000 4.2548 14.9927
-50.0000 -5.9504 11.3600
-50.0000 7.4737 -25.6229
-50.0000 -11.1715 19.0251
-50.0000 -7.7017 -12.4175
-50.0000 3.1491 -16.2527
-50.0000 12.1989 -16.4047
-50.0000 14.0919 23.9938
-50.0000 -12.6468 11.9278
-50.0000 11.0430 13.9806
-50.0000 -6.2446 -21.8436
-50.0000 3.5833 -1.1685
-50.0000 -9.5504 17.7095
-50.0000 -10.6617 -19.2418
-50.0000 7.8715 -0.1397
-50.0000 -7.1950 25.5543
-50.0000 1.1105 -18.5485
-50.0000 11.1786 4.1529
-50.0000 9.0709 18.5004
-50.0000 -5.9915 -8.8305
-50.0000 1.9491 -3.2252
-50.0000 -5.1010 -16.5993
-50.0000 3.5523 -12.1663
-50.0000 6.9445 0.4440
-50.0000 10.2168 7.9689
-50.0000 -11.1888 -8.6737
-50.0000 8.5890 -25.1590
-50.0000 0.9827 20.4950
-50.0000 5.7221 3.1886
-50.0000 11.1240 24.8387
-50.0000 -5.1792 18.5884
-50.0000 9.8699 -4.9769
-50.0000 2.3371 16.3362
-50.0000 3.4273 -23.9874
-50.0000 2.1982 -1.4404
-50.0000 -4.9893 -3.8827
-50.0000 8.9184 2.5215
-50.0000 -2.3381 -24.7245
-50.0000 -12.8521 -21.2825
-50.0000 -1.4127 -4.3772
-50.0000 6.5416 -25.3398
-50.0000 10.8634 -23.8395
-50.0000 -9.5328 14.7175
-50.0000 -1.0019 12.4861
-50.0000 7.7264 -2.6523
-50.0000 2.8214 3.3626
-50.0000 -8.9397 -15.0051
-50.0000 12.3064 -1.2283
-38.6436 15.0000 -17.5063
-16.1585 15.0000 -25.8430
-2.8527 15.0000 26.4634
48.5549 15.0000 -5.0364
45.8117 15.0000 -25.9241
-20.7880 15.0000 11.5790
-21.6488 15.0000 7.9779
40.0595 15.0000 -28.6104
-43.4122 15.0000 -17.4376
-2.6343 15.0000 7.5815
-37.7393 15.0000 -23.9071
-35.4081 15.0000 10.8769
-16.0689 15.0000 -20.6366
-10.2566 15.0000 -27.9432
26.5277 15.0000 -14.5359
18.3697 15.0000 20.1604
-38.9309 15.0000 29.2530
-4.2217 15.0000 6.8514
-49.0050 15.0000 -13.0990
-5.0695 15.0000 11.1108
-47.6544 15.0000 15.3976
16.0656 15.0000 13.9356
-17.4877 15.0000 -4.0591
2.6132 15.0000 -6.9659
35.1851 15.0000 -8.9645
26.2458 15.0000 -7.0749
1.2160 15.0000 5.9409
3.4665 15.0000 20.9252
-43.1527 15.0000 -10.6692
11.7858 15.0000 16.8961
-49.6087 15.0000 -5.6314
-36.2080 15.0000 -21.6964
-30.7621 15.0000 15.9351
31.9360 15.0000 17.1297
-30.4454 15.0000 14.1400
-2.9474 15.0000 -22.4802
-13.6251 15.0000 -10.2097
-33.5392 15.0000 -5.6015
-22.8920 15.0000 16.6554
-19.3556 15.0000 -20.4638
28.0542 15.0000 23.0983
14.2690 15.0000 15.5050
29.1163 15.0000 -11.7608
39.6874 15.0000 12.1792
13.9905 15.0000 26.5096
44.8658 15.0000 -8.1515
-7.5337 15.0000 -12.1798
15.9386 15.0000 25.6089
-40.4651 15.0000 20.6487
35.7891 15.0000 7.5253
-42.1562 15.0000 -16.7983
-31.5814 15.0000 -9.5932
3.8313 15.0000 10.2105
-34.5665 15.0000 18.0103
-32.3171 15.0000 1.5894
-31.3559 15.0000 23.2698
-13.1908 15.0000 6.3599
-48.5277 15.0000 16.5598
32.6546 15.0000 18.9958
-27.1690 15.0000 -14.2867
24.2466 15.0000 -21.0137
33.7816 15.0000 -29.3979
5.1797 15.0000 5.2012
17.8493 15.0000 27.0929
-45.2931 15.0000 -25.2851
13.7743 15.0000 -7.4715
-3.0859 15.0000 -3.7348
-2.3662 15.0000 -16.5362
49.1316 15.0000 4.8877
42.5028 15.0000 12.3976
-8.0349 15.0000 2.6644
-30.0180 15.0000 -23.0190
-40.4222 15.0000 25.5534
40.0441 15.0000 -16.4529
3.9398 15.0000 11.9437
-27.3561 15.0000 -26.9973
-4.1834 15.0000 22.2787
-15.8220 15.0000 6.7257
-32.6357 15.0000 -0.3489
-34.6471 15.0000 -14.7550
-19.3547 15.0000 -1.7190
-16.4092 15.0000 -9.9581
0.1957 15.0000 -16.9190
1.8833 15.0000 -7.0247
-0.7926 15.0000 -6.6092
-34.5041 -15.0000 -5.8960
48.7389 -15.0000 -20.9252
33.8307 -15.0000 9.5338
-7.3837 -15.0000 18.6868
31.5441 -15.0000 26.8113
8.3459 -15.0000 -6.6170
1.5538 -15.0000 24.1089
39.1049 -15.0000 17.6207
45.2104 -15.0000 -16.9791
-47.5813 -15.0000 -2.1996
-47.7115 -15.0000 18.9134
-5.3155 -15.0000 22.0725
15.5395 -15.0000 15.7970
36.0383 -15.0000 22.5001
21.0284 -15.0000 14.0398
-12.2101 -15.0000 23.7720
-35.9583 -15.0000 -1.5636
-17.1514 -15.0000 -3.1466
-0.1360 -15.0000 11.4491
-11.5520 -15.0000 -12.5143
16.5061 -15.0000 20.2998
-49.3299 -15.0000 1.6239
8.7616 -15.0000 -23.7001
9.0053 -15.0000 -18.8387
2.1122 -15.0000 -20.1797
-46.1218 -15.0000 18.7941
1.6839 -15.0000 -2.9398
-19.5044 -15.0000 4.4000
-38.6714 -15.0000 -27.6972
-43.2494 -15.0000 2.2243
47.4070 -15.0000 5.5401
-12.5773 -15.0000 -10.9313
26.5908 -15.0000 13.4039
-26.0794 -15.0000 10.2120
-11.4537 -15.0000 -1.2443
36.4472 -15.0000 -10.4994
-31.1809 -15.0000 -22.6717
-24.5078 -15.0000 18.5497
-31.7845 -15.0000 -11.4876
0.6360 -15.0000 6.4755
36.1666 -15.0000 -15.5213
24.5651 -15.0000 7.2563
-23.4508 -15.0000 -5.5278
-0.9086 -15.0000 -9.7871
25.6831 -15.0000 17.3387
-33.1373 -15.0000 17.5164
-18.0222 -15.0000 -3.8972
1.8297 -15.0000 -11.3636
35.1288 -15.0000 8.8422
-37.2220 -15.0000 -4.5290
-46.3014 -15.0000 27.5337
-39.6725 -15.0000 10.5382
46.4173 -15.0000 4.3587
45.0566 -15.0000 29.3466
-32.9448 -15.0000 21.1391
25.5868 -15.0000 -10.4647
11.9241 -15.0000 19.6736
-4.9789 -15.0000 27.4169
-3.3804 -15.0000 -7.3924
13.2942 -15.0000 -6.5678
-49.2120 -15.0000 3.5880
3.8226 -15.0000 -24.5371
30.1701 -15.0000 -5.8702
26.8180 -15.0000 -7.5317
25.0471 -15.0000 28.6790
34.9370 -15.0000 -6.7968
31.7832 -15.0000 -11.3439
-22.1141 -15.0000 9.5088
23.7785 -15.0000 -22.0645
15.0499 -15.0000 23.4044
39.6538 -15.0000 0.4563
23.6170 -15.0000 -0.0841
-45.9117 -15.0000 -25.0040
-45.2848 -15.0000 -23.9896
34.9948 -15.0000 -13.0870
-1.5078 -15.0000 -23.2416
31.5347 -15.0000 4.9793
33.6103 -15.0000 -4.4802
13.2928 -15.0000 -29.9720
-30.2968 -15.0000 -20.2662
9.8313 -15.0000 18.6668
28.4003 -15.0000 11.4919
-37.7306 -15.0000 -2.1353
48.2883 -15.0000 4.7248
-12.1712 -15.0000 19.6868
-6.8247 2.8271 30.0000
-21.2369 12.9031 30.0000
-28.4890 14.0774 30.0000
23.8895 -10.2795 30.0000
38.1165 14.8587 30.0000
14.2900 -7.2063 30.0000
-44.1789 4.3935 30.0000
8.3948 10.9540 30.0000
-44.6539 -8.9248 30.0000
-0.1480 12.3372 30.0000
39.4386 11.9795 30.0000
29.0502 1.8093 30.0000
14.3516 0.5478 30.0000
43.7490 5.4677 30.0000
13.7212 14.4906 30.0000
13.2696 -14.6199 30.0000
-11.4570 -9.6679 30.0000
6.6105 -5.9884 30.0000
-29.9789 -5.4908 30.0000
-25.5829 7.8190 30.0000
8.8103 -4.3110 30.0000
-37.4873 -11.3932 30.0000
40.2512 -6.1771 30.0000
16.7788 10.2001 30.0000
24.5618 10.2381 30.0000
-18.2049 -8.8083 30.0000
42.9028 -13.3985 30.0000
-41.0641 14.8741 30.0000
-16.3335 13.4391 30.0000
-48.3442 -2.5153 30.0000
-5.9985 -7.4314 30.0000
16.4231 -12.8050 30.0000
-49.8297 -7.2539 30.0000
-20.8746 7.7064 30.0000
-35.6886 5.6261 30.0000
41.5717 -4.5035 30.0000
-24.0913 14.9044 30.0000
18.2900 8.2874 30.0000
-21.9948 -9.4096 30.0000
-27.6930 14.1854 30.0000
20.4024 -4.0341 30.0000
42.3671 -11.5445 30.0000
-27.7730 -13.9087 30.0000
45.9847 3.9616 30.0000
37.7539 14.9047 30.0000
-29.5491 6.0421 30.0000
13.2971 11.6017 30.0000
-13.9415 12.4167 30.0000
-14.3683 -0.0134 30.0000
-27.8529 -13.1460 30.0000
-9.5251 -10.4711 30.0000
-2.8602 -7.0337 30.0000
-9.7775 0.0755 30.0000
7.4860 -11.5228 30.0000
31.6387 -9.0292 30.0000
49.7561 9.3717 30.0000
40.5839 -2.1410 30.0000
-5.4445 -2.7340 30.0000
38.7038 4.6067 30.0000
-35.2288 14.8652 30.0000
-4.7932 -1.0520 30.0000
-2.6548 11.6344 30.0000
38.8707 0.8143 30.0000
-7.1679 -12.7398 30.0000
24.2136 2.4886 30.0000
15.3311 -13.3267 30.0000
47.7244 -11.9972 30.0000
-32.3448 6.0591 30.0000
29.2973 13.3044 30.0000
-21.3781 -4.1748 30.0000
3.7669 12.0051 30.0000
-26.8885 3.7869 30.0000
-25.9727 9.7379 30.0000
23.3273 8.1132 30.0000
40.7722 8.1607 30.0000
-47.2800 -12.5810 30.0000
8.1663 0.5014 30.0000
16.8411 7.2225 30.0000
-22.2182 6.3223 30.0000
18.7789 3.5914 30.0000
44.3589 -12.1104 30.0000
31.6317 -5.1335 30.0000
-24.2903 -14.9439 30.0000
49.4134 6.5768 30.0000
-44.7473 13.8303 30.0000
14.1530 -14.4520 -30.0000
-25.6753 -2.5676 -30.0000
7.2598 -7.9672 -30.0000
-33.6399 -9.0558 -30.0000
-1.9391 -4.6063 -30.0000
42.4798 -5.4453 -30.0000
-13.6359 6.8320 -30.0000
-9.6682 13.1906 -30.0000
-10.0942 -6.9292 -30.0000
1.1796 -5.8825 -30.0000
-39.7233 9.9059 -30.0000
-35.5412 -1.5152 -30.0000
1.4384 -9.9451 -30.0000
28.4166 -1.7341 -30.0000
24.0645 -1.3199 -30.0000
-19.1751 6.8436 -30.0000
-26.2208 -4.0605 -30.0000
-3.9348 7.7162 -30.0000
19.9368 -2.6941 -30.0000
-42.0741 6.6488 -30.0000
25.5955 -14.7835 -30.0000
12.8616 -5.6332 -30.0000
21.9375 -6.8885 -30.0000
1.0257 -0.3306 -30.0000
-47.7048 11.2658 -30.0000
36.1645 -14.7739 -30.0000
-34.9067 6.3404 -30.0000
-15.6647 -12.5303 -30.0000
-23.6626 -3.8988 -30.0000
19.4097 4.5646 -30.0000
26.1032 -9.7884 -30.0000
-3.4148 -3.9139 -30.0000
12.9591 10.8607 -30.0000
7.5690 -10.9937 -30.0000
-43.2208 -0.7862 -30.0000
-31.0933 -14.2128 -30.0000
5.8068 -6.4742 -30.0000
-7.5277 -7.4135 -30.0000
-35.1661 -1.0178 -30.0000
3.8357 -12.7357 -30.0000
17.4587 14.3746 -30.0000
10.4847 13.3690 -30.0000
-3.0267 1.5608 -30.0000
28.5588 -14.2041 -30.0000
-14.8532 -7.1817 -30.0000
22.5413 7.9023 -30.0000
41.9704 3.1676 -30.0000
-19.4459 7.5840 -30.0000
11.8266 11.1023 -30.0000
-15.5000 -10.1321 -30.0000
20.7392 -5.1785 -30.0000
25.6090 -6.1816 -30.0000
-42.1169 3.1499 -30.0000
36.0618 -12.7740 -30.0000
32.8134 -10.6949 -30.0000
-13.2798 13.4271 -30.0000
-21.9847 -9.8043 -30.0000
-37.6086 -5.5733 -30.0000
12.4478 2.7713 -30.0000
27.8627 0.5801 -30.0000
36.9825 5.7493 -30.0000
30.3780 -0.7798 -30.0000
13.1245 -9.8364 -30.0000
42.0873 13.8631 -30.0000
25.4530 -14.4030 -30.0000
-23.7897 -13.9623 -30.0000
27.2037 -12.0653 -30.0000
5.4300 -11.5521 -30.0000
-1.9974 -9.2771 -30.0000
23.5522 -9.3538 -30.0000
-24.3187 11.6614 -30.0000
-37.5815 5.9165 -30.0000
-17.4462 12.7884 -30.0000
40.4012 2.6438 -30.0000
-18.3352 3.2162 -30.0000
26.4959 -6.5139 -30.0000
-29.2671 -6.4883 -30.0000
-29.2357 3.2770 -30.0000
27.7170 7.1472 -30.0000
36.3039 -9.8957 -30.0000
-1.2583 -12.8803 -30.0000
-37.6998 14.9199 -30.0000
24.0483 -14.1696 -30.0000
8.9594 7.1697 -30.0000
5.6890 -13.4873 -30.0000
15.0000 72.1125 4.0336
15.0000 4.1810 1.7453
15.0000 71.9058 17.5740
15.0000 65.8573 18.5074
15.0000 32.9194 10.0529
15.0000 47.9777 3.7063
15.0000 16.7474 -2.1229
15.0000 -14.9974 -23.5646
15.0000 7.5259 -5.3922
15.0000 23.7053 15.9837
15.0000 79.8131 23.1149
15.0000 -14.9844 26.4467
15.0000 76.4103 26.4145
15.0000 50.3751 5.8158
15.0000 26.6791 13.8470
15.0000 77.1483 -26.6437
15.0000 -8.8701 29.6151
15.0000 -6.9211 -4.5238
15.0000 63.3117 6.7948
15.0000 73.8749 -3.3713
15.0000 5.5875 29.1774
15.0000 58.8325 -22.1237
15.0000 21.1317 14.2461
15.0000 16.2120 -14.6485
15.0000 52.7689 -27.6811
15.0000 59.6006 14.6146
15.0000 37.8251 12.3750
15.0000 76.8494 -25.1769
15.0000 24.2254 -29.5079
15.0000 58.3131 -23.2623
15.0000 77.0085 1.1656
15.0000 79.3426 24.8771
15.0000 -13.2752 20.7738
15.0000 63.2848 -17.3420
15.0000 64.2146 12.4052
15.0000 34.7114 -22.3267
15.0000 69.8409 4.9717
15.0000 3.6407 -1.1623
15.0000 4.9941 -8.6995
15.0000 80.6726 -7.2076
15.0000 79.7055 -0.1557
15.0000 84.7294 28.1380
15.0000 32.4923 -29.3596
15.0000 1.9797 3.2762
15.0000 30.5073 -22.2828
15.0000 -4.9350 -17.7847
15.0000 83.9894 -11.6039
15.0000 16.6617 -2.7045
15.0000 0.0928 23.9653
15.0000 52.3780 26.6353
15.0000 6.2724 20.1352
15.0000 54.4724 5.9400
15.0000 79.5057 -18.1222
15.0000 -8.9228 2.2059
15.0000 4.9504 -17.0772
15.0000 28.9519 9.8975
15.0000 7.0647 14.8284
15.0000 36.7469 7.1548
15.0000 35.1643 29.9115
15.0000 20.3657 24.4857
15.0000 49.1289 15.0039
15.0000 71.4065 22.4055
15.0000 79.2605 24.7338
15.0000 28.1568 -9.8757
15.0000 54.9808 18.5895
15.0000 70.3613 29.6850
15.0000 80.1989 -2.4383
15.0000 76.3749 -20.8993
15.0000 76.9530 -16.8547
15.0000 4.7420 -25.3018
15.0000 -8.4989 26.5711
15.0000 82.7449 -9.4423
15.0000 22.9524 12.5572
15.0000 -7.4586 -10.4762
15.0000 -9.0142 -19.7723
15.0000 36.2869 23.6411
15.0000 39.3899 24.5164
15.0000 -13.8288 -21.6189
15.0000 8.3373 -28.8849
15.0000 23.9430 29.8544
15.0000 22.2696 15.8008
15.0000 37.5325 -29.4120
15.0000 -14.8446 -11.1243
15.0000 -3.3606 17.8001
15.0000 20.6846 -22.7610
15.0000 -1.3157 -6.3670
-15.0000 52.5412 -28.6254
-15.0000 -0.1986 -0.6810
-15.0000 -12.4461 -22.8868
-15.0000 63.3111 -18.1668
-15.0000 42.1773 14.1802
-15.0000 21.8483 -3.1936
-15.0000 -13.1364 2.8737
-15.0000 -13.7291 17.0393
-15.0000 15.2031 23.4414
-15.0000 27.0127 -14.1512
-15.0000 63.4043 -11.6598
-15.0000 41.5403 -6.3980
-15.0000 15.4558 22.4477
-15.0000 47.7714 8.4739
-15.0000 8.3629 2.7917
-15.0000 54.0325 -19.3187
-15.0000 -6.4748 -27.8767
-15.0000 23.7062 -25.3972
-15.0000 42.8609 17.1471
-15.0000 34.6553 -8.1810
-15.0000 30.5131 -6.3885
-15.0000 72.6504 -14.4914
-15.0000 59.3205 -10.8591
-15.0000 41.4258 -3.0015
-15.0000 8.1593 -29.3254
-15.0000 37.8088 -2.1625
-15.0000 83.4752 -13.6736
-15.0000 63.5529 8.7848
-15.0000 22.5025 18.2398
-15.0000 84.7390 -26.3220
-15.0000 30.8531 -5.9929
-15.0000 83.1283 -9.6476
-15.0000 61.1554 -28.0922
-15.0000 73.4257 -11.1583
-15.0000 47.2847 -3.0915
-15.0000 32.8988 -5.1096
-15.0000 67.9098 -25.9208
-15.0000 68.5040 -12.4746
-15.0000 -6.1678 -12.4537
-15.0000 51.3971 -3.3957
-15.0000 16.3214 0.8555
-15.0000 38.4791 27.9495
-15.0000 21.9891 -18.3649
-15.0000 81.1124 20.3134
-15.0000 61.1689 -15.1790
-15.0000 32.7088 13.3871
-15.0000 52.3244 -11.8615
-15.0000 61.4095 14.2551
-15.0000 13.4380 -2.6711
-15.0000 21.2330 22.2320
-15.0000 82.8242 4.7383
-15.0000 42.5824 26.9434
-15.0000 -6.1430 -22.2508
-15.0000 47.1185 22.9345
-15.0000 0.6455 -19.3503
-15.0000 22.2761 9.1810
-15.0000 -3.2349 14.3763
-15.0000 -3.6862 19.5855
-15.0000 62.6390 -22.8794
-15.0000 51.2905 -28.9300
-15.0000 29.0017 -8.6021
-15.0000 44.1325 -5.2028
-15.0000 1.1227 -19.0522
-15.0000 75.6886 13.0708
-15.0000 36.8493 16.3958
-15.0000 3.1156 3.6647
-15.0000 61.4508 12.5175
-15.0000 49.1942 25.9669
-15.0000 28.7184 -8.4854
-15.0000 -8.6671 -8.2792
-15.0000 44.8915 -24.2106
-15.0000 29.8577 -3.9649
-15.0000 9.8161 -6.9740
-15.0000 71.5851 -2.9430
-15.0000 35.1465 -20.8144
-15.0000 2.1453 23.0300
-15.0000 23.5242 24.0103
-15.0000 10.9282 -5.3056
-15.0000 -11.6704 -27.8151
-15.0000 66.7956 20.6804
-15.0000 -12.6627 20.1729
-15.0000 52.4155 6.7862
-15.0000 60.8748 2.2023
-15.0000 -14.2703 -23.5155
-15.0000 33.6685 1.8883
-15.0000 67.5080 -8.3051
6.3527 85.0000 1.0542
0.4369 85.0000 14.0769
-7.2787 85.0000 -9.1768
7.7912 85.0000 11.3486
9.4901 85.0000 -9.8711
-4.9002 85.0000 -3.9533
-3.7052 85.0000 11.5010
11.3290 85.0000 -11.9271
11.6405 85.0000 -9.3000
9.8438 85.0000 17.2538
7.5149 85.0000 27.7468
-8.4555 85.0000 17.0347
0.2932 85.0000 -0.5713
8.2327 85.0000 17.1652
-1.2726 85.0000 9.6132
9.4911 85.0000 -7.6790
14.7455 85.0000 27.8152
5.0171 85.0000 22.8040
-8.0929 85.0000 -5.9463
1.2344 85.0000 18.0306
11.3055 85.0000 -1.3182
5.9021 85.0000 -0.6183
-6.1252 85.0000 13.8799
12.3602 85.0000 12.0746
-1.1988 85.0000 29.0600
13.2317 85.0000 -7.4688
-2.5427 85.0000 17.6189
-12.0039 85.0000 -29.6390
14.7140 85.0000 22.3075
12.8090 85.0000 -0.2984
-11.3814 85.0000 -29.5790
0.4358 85.0000 -2.4490
-3.3443 85.0000 11.9758
-1.7574 85.0000 -26.5234
-11.1440 85.0000 15.4699
-2.1073 85.0000 -26.7278
-8.1518 85.0000 -22.5654
-7.5599 85.0000 26.5020
-11.6688 85.0000 5.6022
-0.1691 85.0000 20.0048
9.4794 85.0000 -20.9082
6.5985 85.0000 -18.9216
-0.9124 85.0000 22.9113
-13.9978 85.0000 -7.7045
-14.9991 85.0000 -17.3668
4.0875 85.0000 20.6799
9.5909 85.0000 18.4746
-3.9854 85.0000 -11.3528
-1.1923 85.0000 -24.6660
1.9189 85.0000 -1.0812
6.6706 85.0000 -4.1324
6.4884 85.0000 -26.4994
-13.1487 85.0000 -1.1777
-0.4680 85.0000 2.4027
0.9852 85.0000 4.5981
4.7139 85.0000 -11.7896
-14.6174 85.0000 -27.8730
-8.2938 85.0000 18.3865
1.2308 85.0000 20.1630
-6.9906 85.0000 13.6443
-10.9575 85.0000 -9.7922
3.7298 85.0000 26.5863
-10.9885 85.0000 -17.9391
-5.0498 85.0000 -26.7590
-9.5797 85.0000 25.4460
11.1271 85.0000 -17.6242
13.2908 85.0000 28.0470
2.7651 85.0000 8.7272
-5.2221 85.0000 -8.6827
5.6401 85.0000 -15.0918
-10.0895 85.0000 -1.2446
-14.5753 85.0000 0.3402
6.8731 85.0000 24.5725
0.8275 85.0000 -9.6291
4.6942 85.0000 -14.7511
-2.6439 85.0000 -13.0041
-5.4284 85.0000 -12.0353
-8.7149 85.0000 0.8704
13.6559 85.0000 16.5373
-6.9917 85.0000 -28.3211
-10.4080 85.0000 27.2183
13.9950 85.0000 8.2027
14.7516 85.0000 23.5232
2.2731 85.0000 -4.7838
8.7472 85.0000 -22.6475
-13.4788 -15.0000 -7.2093
8.2064 -15.0000 -2.4238
2.6884 -15.0000 -11.2959
13.3937 -15.0000 -17.9247
-2.8304 -15.0000 23.1816
5.6108 -15.0000 5.6442
12.5721 -15.0000 -0.2232
-13.0693 -15.0000 23.8446
12.1652 -15.0000 13.0686
8.4325 -15.0000 22.0094
-11.5157 -15.0000 -9.7118
11.3309 -15.0000 27.3030
-11.6046 -15.0000 10.2147
13.5521 -15.0000 -24.2054
-8.5250 -15.0000 -14.6242
-4.1453 -15.0000 -0.0059
-11.5164 -15.0000 -8.6655
2.6426 -15.0000 -20.6110
3.4071 -15.0000 4.7268
-2.5919 -15.0000 -25.7789
12.9144 -15.0000 -9.8559
-8.8435 -15.0000 -18.5822
5.1682 -15.0000 -25.0541
14.3275 -15.0000 -12.4013
-0.3925 -15.0000 -29.4130
4.4526 -15.0000 -15.8202
9.3815 -15.0000 -7.5364
-2.5591 -15.0000 18.0495
13.2284 -15.0000 -25.4857
-0.7528 -15.0000 16.3055
-12.8620 -15.0000 -29.3553
7.3318 -15.0000 -11.4455
-9.7340 -15.0000 2.5350
14.1061 -15.0000 -0.4631
4.4965 -15.0000 -8.4450
12.3062 -15.0000 19.4221
-3.7264 -15.0000 -17.2023
-3.8576 -15.0000 5.6228
3.8635 -15.0000 29.4120
-3.7986 -15.0000 20.8277
-13.1127 -15.0000 24.9293
-8.4502 -15.0000 -2.7585
0.6558 -15.0000 -27.3625
-9.1622 -15.0000 28.1453
-6.4723 -15.0000 -21.7932
1.5255 -15.0000 27.7379
-6.5292 -15.0000 14.9126
-7.4037 -15.0000 29.3731
0.0332 -15.0000 24.5856
6.2409 -15.0000 -29.4736
-1.0820 -15.0000 -21.2488
3.7403 -15.0000 6.7196
-2.1287 -15.0000 -20.5335
14.3250 -15.0000 4.2741
-0.3819 -15.0000 15.1934
-5.3210 -15.0000 14.8521
-11.4485 -15.0000 -23.9643
13.2603 -15.0000 -19.0987
7.5644 -15.0000 -8.1801
-2.6063 -15.0000 25.7815
-0.9064 -15.0000 12.6888
5.2926 -15.0000 13.5263
-10.7407 -15.0000 26.9836
9.8504 -15.0000 -13.7594
-14.3260 -15.0000 2.4108
7.4078 -15.0000 29.1909
0.3097 -15.0000 -10.8584
0.9679 -15.0000 7.3827
9.7095 -15.0000 -15.8906
14.6893 -15.0000 -12.1978
7.6838 -15.0000 16.9697
-4.3144 -15.0000 -7.1838
11.4979 -15.0000 15.1492
-12.2051 -15.0000 3.6889
2.2825 -15.0000 15.5904
-1.6006 -15.0000 2.2077
11.3290 -15.0000 11.8900
-13.3320 -15.0000 -5.4912
5.9020 -15.0000 0.3917
3.8010 -15.0000 -29.2326
-8.4722 -15.0000 -24.8020
-5.4032 -15.0000 -27.7703
3.4404 -15.0000 23.2365
7.0276 -15.0000 15.4770
-4.6008 -15.0000 22.0887
-5.4932 18.3066 30.0000
-11.6330 14.6535 30.0000
1.5951 16.0707 30.0000
-11.2550 77.7000 30.0000
11.1205 40.5868 30.0000
-14.8195 45.0994 30.0000
1.6875 27.1026 30.0000
0.2616 -9.9316 30.0000
6.5210 8.5121 30.0000
-12.7074 6.4503 30.0000
6.4789 81.9098 30.0000
-6.6279 29.0844 30.0000
-2.0377 9.0758 30.0000
-12.6644 58.8725 30.0000
-13.7255 24.1451 30.0000
7.2278 72.9840 30.0000
8.1112 0.7282 30.0000
8.8296 -13.8549 30.0000
-3.8798 23.6262 30.0000
-8.3718 0.3782 30.0000
-2.5874 9.4677 30.0000
-6.6060 51.4054 30.0000
-10.8947 19.5833 30.0000
-14.9533 79.0902 30.0000
-10.2952 -13.1249 30.0000
8.3346 50.0790 30.0000
8.0582 -5.1931 30.0000
-4.2218 42.8231 30.0000
6.4989 -13.8270 30.0000
13.8609 51.7005 30.0000
12.8757 32.8018 30.0000
6.0516 -12.3458 30.0000
-2.2065 46.7287 30.0000
0.1984 16.1549 30.0000
-5.9920 59.9778 30.0000
1.1013 28.1953 30.0000
5.5734 9.5326 30.0000
-2.2458 5.8783 30.0000
2.5456 67.9618 30.0000
-13.1974 79.2506 30.0000
-2.3275 35.2748 30.0000
12.2617 71.2639 30.0000
-14.9580 38.6681 30.0000
1.7945 73.1548 30.0000
-12.1396 56.3958 30.0000
5.2846 66.3883 30.0000
13.5305 37.4547 30.0000
3.2916 1.3749 30.0000
12.9645 66.3170 30.0000
-14.0125 3.7282 30.0000
9.2682 36.7589 30.0000
8.7181 8.7584 30.0000
-13.6158 29.3794 30.0000
-6.1973 -14.1507 30.0000
14.8503 11.0505 30.0000
6.7640 40.2989 30.0000
-0.5524 3.7657 30.0000
-0.7486 16.3157 30.0000
0.0758 3.4774 30.0000
-4.4313 76.7109 30.0000
-9.9863 -10.0530 30.0000
12.3423 5.4173 30.0000
-9.8903 -3.3490 30.0000
4.0203 38.5196 30.0000
-10.8181 46.9135 30.0000
-3.7454 76.0067 30.0000
-10.2565 55.9897 30.0000
1.0662 52.6187 30.0000
3.7375 1.0442 30.0000
8.4831 40.4866 30.0000
13.8495 55.8969 30.0000
-6.3389 -2.9903 30.0000
-13.8075 43.2280 30.0000
4.4232 -2.9145 30.0000
14.3892 61.2395 30.0000
-13.6709 68.1436 30.0000
-11.1871 69.6265 30.0000
-2.6721 26.7135 30.0000
0.9162 7.1269 30.0000
-9.3189 26.4348 30.0000
1.6747 41.8663 30.0000
13.7723 52.3989 30.0000
-9.7143 -13.3708 30.0000
-1.8389 7.8103 30.0000
14.4139 76.8529 30.0000
10.7582 -14.8222 -30.0000
-14.7165 26.2943 -30.0000
4.5171 82.8266 -30.0000
-0.0166 0.1409 -30.0000
5.0261 35.0448 -30.0000
-2.9826 -1.6585 -30.0000
2.3915 78.6603 -30.0000
4.4570 52.0014 -30.0000
-0.5264 50.1429 -30.0000
-8.4316 -0.1520 -30.0000
6.2221 79.0231 -30.0000
13.8768 57.6067 -30.0000
2.5963 53.8285 -30.0000
-11.6654 81.8707 -30.0000
8.1386 77.6775 -30.0000
5.5479 34.0771 -30.0000
10.0406 71.1611 -30.0000
-2.5278 74.6072 -30.0000
1.8002 20.9819 -30.0000
-14.7644 -6.3661 -30.0000
-4.3100 2.1590 -30.0000
-11.3512 24.1192 -30.0000
-14.7629 46.3181 -30.0000
8.0535 76.4137 -30.0000
-1.3331 49.3059 -30.0000
0.8076 45.3657 -30.0000
11.9103 45.7902 -30.0000
10.8035 0.5371 -30.0000
-12.6806 -3.7444 -30.0000
-4.6457 66.8086 -30.0000
-12.9319 52.8483 -30.0000
14.2381 12.6095 -30.0000
-9.8242 -14.9576 -30.0000
-12.0525 -3.6978 -30.0000
-8.5946 64.4320 -30.0000
-11.3256 -7.3158 -30.0000
-12.2356 74.6913 -30.0000
11.7722 68.9841 -30.0000
-9.0209 40.3366 -30.0000
-3.8474 42.0461 -30.0000
14.3904 13.1967 -30.0000
5.3360 12.8345 -30.0000
-11.4999 84.0922 -30.0000
11.5113 37.4405 -30.0000
-3.6411 18.8084 -30.0000
-0.7464 -6.4375 -30.0000
0.2027 -14.5424 -30.0000
-1.2057 54.6486 -30.0000
7.6247 -5.0980 -30.0000
-7.1826 -12.9604 -30.0000
7.1837 56.6626 -30.0000
-13.4229 -13.0441 -30.0000
8.0785 52.6552 -30.0000
-5.3233 -4.6303 -30.0000
-8.5026 56.8999 -30.0000
-13.2950 11.2355 -30.0000
-4.7063 83.2338 -30.0000
13.5486 64.3046 -30.0000
10.2219 51.7938 -30.0000
7.5409 53.6021 -30.0000
-5.0902 27.7479 -30.0000
8.8323 -0.8291 -30.0000
-3.2509 84.6808 -30.0000
-10.2459 41.2500 -30.0000
6.2525 10.3832 -30.0000
11.5801 84.3296 -30.0000
10.1148 -2.1254 -30.0000
1.2514 1.1854 -30.0000
-10.9711 25.0912 -30.0000
8.2947 51.9034 -30.0000
8.3094 78.6395 -30.0000
4.8265 58.5078 -30.0000
-11.3448 -1.6312 -30.0000
-3.2603 58.5805 -30.0000
-4.6320 -4.3898 -30.0000
4.2886 46.5724 -30.0000
-3.6316 65.8373 -30.0000
2.4842 -4.2390 -30.0000
-1.3612 30.8166 -30.0000
2.1245 56.7969 -30.0000
-0.8336 56.7207 -30.0000
0.2047 -14.1817 -30.0000
1.5701 60.0663 -30.0000
-7.8298 27.0180 -30.0000
-2.2793 23.7813 -30.0000
