ply
format ascii 1.0
element vertex 1024
property float x
property float y
property float z
end_header
50.0000 2.5021 -2.0328
50.0000 -13.3951 6.6244
50.0000 7.8428 6.3327
50.0000 -1.0166 -8.5336
50.0000 9.9751 -28.0859
50.0000 8.7777 25.5779
50.0000 11.6043 0.0096
50.0000 3.1063 -3.5781
50.0000 1.4072 -21.2997
50.0000 -7.9627 6.1829
50.0000 12.3079 22.7744
50.0000 -3.3900 -24.6330
50.0000 11.3928 -19.3807
50.0000 -6.3190 28.1947
50.0000 13.9765 -8.4137
50.0000 -10.3839 11.6383
50.0000 -4.1378 -22.6213
50.0000 6.9598 27.8138
50.0000 4.0526 26.1143
50.0000 8.9721 -13.9674
50.0000 10.5109 0.3917
50.0000 9.6624 9.0928
50.0000 4.5342 10.7470
50.0000 -12.6796 -29.9666
50.0000 -9.6272 -2.8641
50.0000 -5.2314 -20.3956
50.0000 -10.1272 28.1078
50.0000 0.7488 11.6471
50.0000 5.5265 -26.1642
50.0000 2.2760 -22.1243
50.0000 10.5209 17.3478
50.0000 -14.4377 8.2051
50.0000 3.4167 12.7724
50.0000 -0.5771 -9.7097
50.0000 -10.7990 13.6488
50.0000 -10.1645 -0.8288
50.0000 -9.6460 -11.0903
50.0000 -9.8474 1.0835
50.0000 -7.7667 26.8735
50.0000 8.0849 12.0336
50.0000 -7.7626 -3.6141
50.0000 9.8875 -13.0693
50.0000 7.4912 -21.5760
50.0000 -13.0706 -13.3968
50.0000 1.0676 -26.4221
50.0000 1.8142 -8.4687
50.0000 2.1393 -27.1118
50.0000 10.0802 12.6296
50.0000 14.9024 -10.5076
50.0000 10.9765 6.1984
50.0000 -9.9258 -19.9495
50.0000 -13.5321 9.1705
50.0000 -4.8795 -6.2169
50.0000 0.8764 4.2583
50.0000 -3.1912 14.7103
50.0000 -1.7279 23.1986
50.0000 -12.7676 6.7736
50.0000 1.6919 1.6003
50.0000 -6.4006 -1.3471
50.0000 -5.9187 25.6702
50.0000 8.4344 -17.2844
50.0000 14.1742 -25.3639
50.0000 -2.7194 8.9536
50.0000 2.6174 18.1541
50.0000 9.1761 -1.6615
50.0000 0.2670 27.4727
50.0000 -10.2564 0.7563
50.0000 8.6792 -2.8441
50.0000 7.6784 -3.6359
50.0000 3.6925 28.8380
50.0000 11.1252 29.6359
50.0000 -0.3548 -9.1098
50.0000 -6.2840 1.5321
50.0000 -10.6292 -23.7435
50.0000 -1.3205 3.6096
50.0000 -0.3565 17.4624
50.0000 10.0839 1.2653
50.0000 13.0564 25.5760
50.0000 0.1353 3.6067
50.0000 5.4444 -1.5329
50.0000 -2.7991 17.4369
50.0000 -8.9950 -7.7451
50.0000 14.7394 4.5404
50.0000 -4.3425 -6.4294
50.0000 8.9772 8.7216
50.0000 -8.7826 -1.0552
-50.0000 9.1393 -0.5530
-50.0000 11.4032 -9.7238
-50.0000 -13.4849 19.7620
-50.0000 3.9623 6.3936
-50.0000 9.9789 -1.2159
-50.0000 -5.1125 -11.9806
-50.0000 12.7114 4.0571
-50.0000 -3.2158 -25.9952
-50.0000 12.5859 11.7523
-50.0000 1.5965 -3.8973
-50.0000 12.7109 15.2121
-50.0000 7.5114 26.4868
-50.0000 -8.9294 -26.1464
-50.0000 3.6821 12.1157
-50.0000 6.4229 -15.4373
-50.0000 1.8684 -25.6944
-50.0000 6.1818 -17.6380
-50.0000 14.4064 -2.8140
-50.0000 14.9895 1.1632
-50.0000 11.5435 -6.3915
-50.0000 11.5073 -20.2754
-50.0000 12.0608 3.3169
-50.0000 6.8155 -29.5934
-50.0000 6.8425 -2.6330
-50.0000 -14.4083 6.2702
-50.0000 4.9320 17.2146
-50.0000 -3.1152 -10.5767
-50.0000 -2.0477 -15.8623
-50.0000 9.1115 13.2514
-50.0000 3.0416 -20.0137
-50.0000 4.9296 -11.5384
-50.0000 7.0420 -21.4382
-50.0000 10.0629 0.7992
-50.0000 10.6864 0.9425
-50.0000 -2.4573 9.1994
-50.0000 -13.1463 12.2954
-50.0000 -9.7418 -25.8426
-50.0000 -6.3352 -5.7662
-50.0000 9.6872 11.9577
-50.0000 -7.0749 11.7508
-50.0000 -13.3472 6.0950
-50.0000 -4.6674 -19.0305
-50.0000 0.9641 0.3814
-50.0000 -11.9915 6.7197
-50.0000 -11.2172 23.1622
-50.0000 -0.8884 -19.1041
-50.0000 3.7958 28.7900
-50.0000 8.0606 -1.0308
-50.0000 -14.2272 26.3843
-50.0000 5.1388 20.4805
-50.0000 5.4352 16.8335
-50.0000 -8.8653 7.1402
-50.0000 2.8172 2.1343
-50.0000 -10.6482 -8.8098
-50.0000 9.4878 8.6228
-50.0000 4.6002 -2.3550
-50.0000 -1.8717 -28.1600
-50.0000 4.2897 -1.1987
-50.0000 6.7312 4.7051
-50.0000 -12.8937 -4.1496
-50.0000 -12.0820 -11.8049
-50.0000 1.4981 -28.6334
-50.0000 -8.8932 -16.8449
-50.0000 4.4574 -2.3473
-50.0000 0.9658 18.7581
-50.0000 7.6437 9.3469
-50.0000 -4.8907 -24.2650
-50.0000 7.3883 -3.0430
-50.0000 14.9948 7.4407
-50.0000 0.0094 23.3420
-50.0000 -12.7844 -10.2114
-50.0000 10.6148 -0.9771
-50.0000 5.6416 12.5487
-50.0000 -7.4961 -18.8228
-50.0000 11.4991 19.2538
-50.0000 9.9689 -7.5783
-50.0000 11.3877 18.3758
-50.0000 -2.5908 -5.3312
-50.0000 6.4194 -4.7340
-50.0000 10.3437 22.5408
-50.0000 -9.1849 25.4122
-50.0000 -9.7656 9.2824
-50.0000 -8.4381 -23.5844
-50.0000 1.6039 23.3491
-50.0000 -1.0408 1.3241
-50.0000 -1.0839 6.7955
-38.2736 15.0000 -7.2273
24.2094 15.0000 -18.8127
-6.4474 15.0000 -27.5378
10.5040 15.0000 -3.9546
12.4121 15.0000 -14.4934
-23.9447 15.0000 15.7031
1.4312 15.0000 -26.0329
11.0053 15.0000 -28.3349
48.0398 15.0000 -28.4623
-18.4280 15.0000 26.9933
41.9430 15.0000 20.8427
15.9926 15.0000 -25.0868
2.7835 15.0000 -3.5791
-10.0643 15.0000 -24.3739
13.1218 15.0000 -29.9829
39.5822 15.0000 -15.2746
9.3468 15.0000 -10.4147
46.8034 15.0000 -5.4265
-5.2435 15.0000 27.0851
3.9710 15.0000 25.7788
-31.1532 15.0000 -3.8121
-24.8121 15.0000 8.0126
0.7231 15.0000 0.8188
-41.1284 15.0000 -21.6773
35.5041 15.0000 9.9927
38.2864 15.0000 8.2302
-6.8032 15.0000 -13.1471
-3.8737 15.0000 24.4317
-15.2794 15.0000 24.3517
34.9413 15.0000 -2.8417
49.6902 15.0000 12.9527
-47.8428 15.0000 2.0036
29.9278 15.0000 -6.7511
48.4399 15.0000 16.6442
31.9133 15.0000 12.5803
-34.6638 15.0000 10.4283
-5.6632 15.0000 25.7488
-3.3049 15.0000 -18.6583
7.9933 15.0000 21.4932
9.0125 15.0000 -9.1010
49.8071 15.0000 -3.9559
34.0650 15.0000 -9.4214
-1.2764 15.0000 22.7882
42.1709 15.0000 29.7362
44.8587 15.0000 6.9824
27.1740 15.0000 -5.7783
-28.9679 15.0000 -19.0664
-10.4972 15.0000 -19.5533
-46.6204 15.0000 -6.4158
23.5481 15.0000 3.9922
-0.8884 15.0000 13.0442
45.9671 15.0000 13.0069
33.6208 15.0000 25.7572
-39.3423 15.0000 4.4761
-20.2121 15.0000 1.8431
16.1144 15.0000 -7.6344
24.9997 15.0000 -14.9975
48.7047 15.0000 -6.9894
-14.9834 15.0000 -19.8557
-30.3328 15.0000 -25.6100
10.1602 15.0000 -29.2693
-31.8516 15.0000 18.1910
22.3337 15.0000 19.8101
5.2601 15.0000 -0.1338
38.7181 15.0000 -18.4466
-20.7902 15.0000 -2.2099
-3.9960 15.0000 5.7650
-22.8029 15.0000 25.2989
8.9900 15.0000 -5.9867
-25.3159 15.0000 -6.6965
42.6137 15.0000 8.7820
44.6893 15.0000 -3.1463
-17.2674 15.0000 8.6617
49.3900 15.0000 17.1895
48.6610 15.0000 28.3745
29.7221 15.0000 18.5713
40.1145 15.0000 10.4117
41.1730 15.0000 15.8256
-2.5098 15.0000 22.7702
46.9199 15.0000 -25.6284
15.2750 15.0000 6.5535
-14.9009 15.0000 -10.7714
-2.8901 15.0000 3.5124
-44.8081 15.0000 -24.1777
20.0641 15.0000 -7.6584
-16.8168 -15.0000 9.8318
20.4045 -15.0000 11.6236
45.4825 -15.0000 -3.1594
31.6303 -15.0000 -26.9991
-39.1298 -15.0000 -6.5395
-22.6253 -15.0000 29.4243
-44.0572 -15.0000 22.3357
12.2692 -15.0000 -21.2669
1.6773 -15.0000 -19.7557
44.7954 -15.0000 21.9475
-11.4749 -15.0000 2.1893
-9.4941 -15.0000 -29.1094
18.2908 -15.0000 -28.6859
-36.6928 -15.0000 -14.4847
-15.2596 -15.0000 -10.9494
12.1965 -15.0000 -4.0483
-9.1641 -15.0000 -23.5015
19.4801 -15.0000 0.0156
-46.7525 -15.0000 -4.3640
-19.3319 -15.0000 -24.6638
48.8467 -15.0000 -25.3851
-30.7796 -15.0000 -1.8102
-11.9714 -15.0000 -28.7718
-37.1108 -15.0000 8.4899
-15.7012 -15.0000 -29.5636
-45.3860 -15.0000 26.0341
-49.1457 -15.0000 14.4906
39.9381 -15.0000 9.5946
-1.6109 -15.0000 -8.7419
25.0754 -15.0000 -13.7682
26.1045 -15.0000 28.2692
36.9009 -15.0000 15.0465
43.5431 -15.0000 17.7490
-27.1443 -15.0000 8.0864
-14.4718 -15.0000 6.0716
46.1706 -15.0000 17.1886
29.5358 -15.0000 -22.0513
-31.5592 -15.0000 26.4480
-30.2662 -15.0000 19.2389
24.7858 -15.0000 -11.7121
-34.6745 -15.0000 17.6762
-29.9945 -15.0000 -9.6951
27.0584 -15.0000 -9.7959
-18.1115 -15.0000 -10.4794
-48.6512 -15.0000 7.6523
17.3254 -15.0000 12.4991
-41.1123 -15.0000 2.0996
-26.5988 -15.0000 -22.5313
-37.7806 -15.0000 -10.3317
-44.8904 -15.0000 -25.3185
44.7555 -15.0000 1.1758
9.0051 -15.0000 9.3767
-26.6848 -15.0000 -22.6245
-14.1323 -15.0000 15.2829
5.1569 -15.0000 -28.8082
31.0184 -15.0000 26.3622
6.1055 -15.0000 2.1771
0.7078 -15.0000 12.0882
34.4808 -15.0000 22.6747
37.9842 -15.0000 -23.0719
45.2450 -15.0000 -5.8955
14.3620 -15.0000 21.7061
-22.1789 -15.0000 -17.2268
-48.1656 -15.0000 -17.1955
-37.7005 -15.0000 27.4473
28.4314 -15.0000 18.8464
0.8298 -15.0000 -22.5358
21.7957 -15.0000 22.0894
29.5908 -15.0000 -14.6951
-38.4780 -15.0000 18.9016
-4.6561 -15.0000 20.8932
-22.7109 -15.0000 -4.3375
21.9539 -15.0000 -25.3583
9.8775 -15.0000 -27.2596
-12.2057 -15.0000 -22.6490
30.3002 -15.0000 -23.2277
-5.2230 -15.0000 -13.7321
-9.0446 -15.0000 16.4943
-44.3431 -15.0000 -3.6993
-5.9075 -15.0000 5.8200
22.0346 -15.0000 25.5962
13.8112 -15.0000 -19.8360
-21.3923 -15.0000 -20.7570
44.1130 -15.0000 4.6213
44.8439 -15.0000 -18.4827
36.0627 -4.1059 30.0000
19.1064 -3.7539 30.0000
-4.5768 -14.1431 30.0000
21.2711 -4.9404 30.0000
26.8610 -5.2623 30.0000
-3.2747 6.9710 30.0000
-34.5971 0.2591 30.0000
-38.9446 12.8073 30.0000
-26.3098 4.1383 30.0000
11.2604 -7.0726 30.0000
3.2474 11.3829 30.0000
39.1098 2.0843 30.0000
-14.8288 10.8403 30.0000
-5.9112 3.9771 30.0000
1.4824 -13.2929 30.0000
-15.0654 -8.7586 30.0000
43.2519 14.1752 30.0000
-9.3327 2.6920 30.0000
-1.1358 -1.5279 30.0000
-39.2153 0.9559 30.0000
39.7929 -3.1198 30.0000
32.2475 5.6134 30.0000
-20.5181 6.9607 30.0000
-3.8871 8.0819 30.0000
0.1531 5.2308 30.0000
-33.9715 -1.7810 30.0000
44.7180 12.3628 30.0000
23.1353 -1.1087 30.0000
3.1758 -6.7971 30.0000
-14.0586 -6.3723 30.0000
1.3039 -14.9388 30.0000
25.6004 8.4454 30.0000
-10.8382 -10.7393 30.0000
29.8320 8.9776 30.0000
-4.4786 -13.9310 30.0000
-22.6572 -10.4180 30.0000
-31.0225 12.2969 30.0000
17.0445 -3.2187 30.0000
-12.8556 1.5858 30.0000
35.9545 -13.5022 30.0000
20.5254 -11.9328 30.0000
-1.9303 -14.1568 30.0000
-12.7029 -7.3595 30.0000
-14.5994 9.2718 30.0000
-32.1933 11.5093 30.0000
-38.3033 -0.0414 30.0000
-3.0906 0.1879 30.0000
-39.9165 -6.1117 30.0000
42.7923 -6.7263 30.0000
22.7425 11.4198 30.0000
42.7747 10.3357 30.0000
16.8745 -7.4171 30.0000
27.6008 11.8120 30.0000
41.7414 -14.4508 30.0000
-43.2709 -2.0376 30.0000
-17.7366 0.3699 30.0000
9.6981 -10.0756 30.0000
-11.1896 5.9851 30.0000
-49.3570 12.2357 30.0000
-3.6673 4.3589 30.0000
-23.4922 4.6764 30.0000
14.9371 10.8519 30.0000
-28.7732 10.5039 30.0000
20.2138 -9.7205 30.0000
-33.4577 -7.0835 30.0000
24.3926 2.6305 30.0000
38.8272 -3.2957 30.0000
-24.7190 -5.1858 30.0000
12.3229 -14.0836 30.0000
-30.9904 11.4371 30.0000
-22.4990 -4.3337 30.0000
32.8636 10.5418 30.0000
13.4882 11.5962 30.0000
-36.1826 8.5738 30.0000
23.6442 -14.8793 30.0000
36.2025 3.4045 30.0000
14.3857 7.0956 30.0000
23.4507 -6.2385 30.0000
-35.8739 9.2524 30.0000
-20.6330 -0.6324 30.0000
-35.0040 -3.4756 30.0000
7.0468 14.0255 30.0000
-38.7242 -5.2048 30.0000
42.6097 -2.6650 30.0000
19.1969 7.3300 30.0000
8.0708 7.0986 -30.0000
-20.1024 -8.9075 -30.0000
-47.6940 13.9976 -30.0000
-5.4414 10.6906 -30.0000
46.3402 14.8965 -30.0000
-20.0827 2.6484 -30.0000
8.2047 -3.6823 -30.0000
-34.5075 7.0979 -30.0000
2.2438 -10.2025 -30.0000
10.3088 -0.9463 -30.0000
21.4019 -4.2898 -30.0000
23.8769 0.1035 -30.0000
-11.9144 -9.9695 -30.0000
41.8572 -12.0075 -30.0000
27.2662 -0.6232 -30.0000
-45.1189 -11.0125 -30.0000
41.6805 10.2884 -30.0000
-45.0250 14.0385 -30.0000
-12.1410 4.2852 -30.0000
42.2120 2.9147 -30.0000
-37.5423 8.7055 -30.0000
21.4226 4.4445 -30.0000
33.9284 -6.1158 -30.0000
-38.3692 -8.4188 -30.0000
39.1309 -3.4754 -30.0000
4.1482 -13.1655 -30.0000
-6.0499 14.5616 -30.0000
-0.4730 -3.3504 -30.0000
-28.6692 -13.6474 -30.0000
31.3773 12.4679 -30.0000
13.5287 -5.4997 -30.0000
-17.2276 6.6053 -30.0000
42.6197 13.6444 -30.0000
-22.4744 -8.0814 -30.0000
14.8332 -11.5488 -30.0000
-0.4983 -13.9337 -30.0000
7.0611 -8.8288 -30.0000
-9.3960 -12.2232 -30.0000
-27.8317 2.6281 -30.0000
-38.2050 -8.0965 -30.0000
-45.5127 2.0837 -30.0000
-0.1799 9.7027 -30.0000
29.8368 11.3285 -30.0000
29.7066 -7.7455 -30.0000
45.4582 4.3597 -30.0000
-10.6369 3.7679 -30.0000
36.9968 14.6800 -30.0000
-21.9624 -8.1529 -30.0000
-21.5116 -2.9187 -30.0000
-45.3710 -2.5161 -30.0000
27.3533 -6.7236 -30.0000
6.4426 5.5820 -30.0000
31.1728 -8.0061 -30.0000
48.5150 0.2515 -30.0000
-8.5945 6.7027 -30.0000
37.3940 -14.9751 -30.0000
23.0948 -13.6462 -30.0000
-22.7329 -14.1355 -30.0000
-2.8666 10.8260 -30.0000
44.3945 9.3847 -30.0000
-24.4279 -0.3688 -30.0000
-7.0441 -5.8674 -30.0000
-25.3180 5.6471 -30.0000
-26.9293 -1.3284 -30.0000
-35.8036 -5.4491 -30.0000
30.9384 14.4284 -30.0000
24.8758 1.4437 -30.0000
-33.8601 -6.9834 -30.0000
-36.9610 3.3188 -30.0000
30.4601 -9.9604 -30.0000
25.4157 8.4409 -30.0000
-29.7323 -14.7573 -30.0000
14.6810 9.7555 -30.0000
-41.4188 -0.6254 -30.0000
7.6103 9.0427 -30.0000
16.9546 4.8267 -30.0000
-40.5002 -0.8063 -30.0000
-15.3147 14.1491 -30.0000
-39.1839 8.4892 -30.0000
-43.9674 -14.1333 -30.0000
-9.4854 4.9496 -30.0000
18.4375 -14.7263 -30.0000
-41.6139 -4.7333 -30.0000
-10.0342 3.0727 -30.0000
-28.3248 -10.1929 -30.0000
15.0000 76.2631 13.1995
15.0000 30.3611 -11.2121
15.0000 81.6628 -4.0192
15.0000 21.2202 21.4187
15.0000 38.4502 27.2666
15.0000 68.9738 -24.1777
15.0000 81.8226 27.1035
15.0000 33.2768 -25.2109
15.0000 34.1861 20.5419
15.0000 44.4142 29.8152
15.0000 -3.6324 -20.3524
15.0000 13.8489 4.7825
15.0000 32.2202 21.7572
15.0000 -14.1197 -3.3677
15.0000 7.1829 -16.9628
15.0000 21.7328 21.9874
15.0000 68.5882 20.6000
15.0000 54.3307 -25.5275
15.0000 52.9370 12.7371
15.0000 70.6201 -4.7501
15.0000 40.5063 -0.0369
15.0000 23.6502 8.1175
15.0000 32.6357 -3.8068
15.0000 84.5140 28.2459
15.0000 -2.7035 28.7333
15.0000 45.1179 13.2313
15.0000 47.9036 -10.7178
15.0000 -8.4763 5.9292
15.0000 82.6506 -3.0976
15.0000 1.2017 -24.3318
15.0000 82.6575 -17.8404
15.0000 17.1407 -15.1607
15.0000 24.0377 -3.1307
15.0000 -11.1271 16.3274
15.0000 40.0992 -18.5769
15.0000 44.6470 24.9354
15.0000 64.5444 -29.3365
15.0000 28.9681 -19.1982
15.0000 73.0957 -25.2417
15.0000 12.5306 18.6725
15.0000 80.4440 1.1906
15.0000 30.5390 28.0555
15.0000 60.5257 16.2104
15.0000 71.4636 -9.5868
15.0000 59.1381 11.4390
15.0000 3.9255 15.1673
15.0000 -2.6109 23.5625
15.0000 53.3795 7.7059
15.0000 68.5533 23.4384
15.0000 16.5663 2.1551
15.0000 51.4825 8.5955
15.0000 70.5410 -20.4286
15.0000 73.3120 21.1036
15.0000 83.6087 -11.2194
15.0000 4.9670 16.5007
15.0000 6.3083 24.2447
15.0000 28.4075 11.8865
15.0000 15.3849 -9.0415
15.0000 30.3130 8.4998
15.0000 10.6936 -20.4524
15.0000 32.9453 -16.3855
15.0000 -2.2198 -17.7180
15.0000 54.2876 15.3610
15.0000 1.8907 19.2611
15.0000 78.1917 16.2707
15.0000 -2.9026 7.7561
15.0000 51.2345 -18.8785
15.0000 49.8340 -27.3906
15.0000 58.7989 23.6195
15.0000 29.8244 -28.2554
15.0000 62.8506 -11.3365
15.0000 41.3560 4.8272
15.0000 78.0687 18.3481
15.0000 65.4960 -3.2841
15.0000 49.5580 3.3558
15.0000 49.7192 8.1750
15.0000 38.5603 -17.7521
15.0000 42.0602 17.8277
15.0000 18.2818 25.0536
15.0000 -9.6571 13.4956
15.0000 65.5433 11.6262
15.0000 26.0539 14.2916
15.0000 -11.9799 21.1434
15.0000 36.3395 -10.7547
15.0000 16.3659 9.2058
15.0000 32.7148 -26.1527
-15.0000 55.3776 -2.5188
-15.0000 9.0169 -17.9256
-15.0000 -9.9813 26.2648
-15.0000 68.2314 -12.5369
-15.0000 16.4852 -9.5266
-15.0000 47.3508 -18.9834
-15.0000 45.0071 15.2252
-15.0000 50.8567 18.0193
-15.0000 73.5274 -9.8254
-15.0000 43.3578 -16.7410
-15.0000 -3.9993 28.9722
-15.0000 33.8696 -13.5440
-15.0000 57.7994 -27.3631
-15.0000 24.7628 27.3325
-15.0000 65.3591 -21.1400
-15.0000 45.7666 -0.4691
-15.0000 40.1956 7.4355
-15.0000 73.2760 -3.6262
-15.0000 36.0788 1.6435
-15.0000 51.3587 10.3033
-15.0000 38.5026 -0.4116
-15.0000 39.2339 12.7626
-15.0000 36.1468 5.2690
-15.0000 -8.2458 -11.8012
-15.0000 13.3421 -17.3048
-15.0000 72.2111 -22.8162
-15.0000 17.7548 0.1915
-15.0000 26.8729 22.2255
-15.0000 53.2268 14.8518
-15.0000 -5.6271 29.4915
-15.0000 20.3883 -14.2347
-15.0000 22.4512 -12.8361
-15.0000 13.1052 27.9899
-15.0000 60.1118 -16.8000
-15.0000 10.0776 -25.2982
-15.0000 55.7797 -1.1886
-15.0000 84.8813 -27.5325
-15.0000 18.9648 19.4425
-15.0000 -11.3416 -28.3629
-15.0000 83.0712 7.7973
-15.0000 62.4093 18.3083
-15.0000 13.0413 -24.2455
-15.0000 71.8398 -12.5174
-15.0000 -2.5936 -12.0200
-15.0000 84.9670 -25.7164
-15.0000 76.2559 2.9914
-15.0000 24.9241 -6.1930
-15.0000 51.8490 -9.9892
-15.0000 18.1050 -27.9547
-15.0000 65.7998 -25.2559
-15.0000 -11.1437 -10.8740
-15.0000 41.5814 2.3133
-15.0000 56.3378 8.3130
-15.0000 20.1042 22.0789
-15.0000 36.9429 2.7650
-15.0000 68.4716 6.4504
-15.0000 -8.7322 -17.8086
-15.0000 77.3297 14.6308
-15.0000 74.7794 1.7601
-15.0000 -0.1131 -3.6627
-15.0000 47.4131 -13.0035
-15.0000 26.9267 -23.6012
-15.0000 20.2338 -9.9671
-15.0000 11.2778 -10.7674
-15.0000 -4.2363 -16.2862
-15.0000 32.4518 9.3647
-15.0000 77.6374 11.6359
-15.0000 80.8571 5.5067
-15.0000 81.6782 -24.2776
-15.0000 74.2886 10.1329
-15.0000 82.7336 21.6716
-15.0000 41.7994 10.9048
-15.0000 19.1898 11.8592
-15.0000 25.6581 -21.2562
-15.0000 39.2807 26.4544
-15.0000 42.7846 14.3530
-15.0000 59.0848 9.6399
-15.0000 2.0245 -27.6065
-15.0000 70.0291 0.1833
-15.0000 52.5419 -28.8818
-15.0000 61.3746 -27.4028
-15.0000 22.3778 6.3085
-15.0000 56.2351 11.4726
-15.0000 4.1208 -18.0728
-15.0000 60.1033 2.5734
-15.0000 -12.7301 -25.0868
-9.5701 85.0000 17.9191
-10.4852 85.0000 -5.8903
7.3436 85.0000 12.7701
7.2104 85.0000 -9.8792
14.2235 85.0000 28.8919
-11.4236 85.0000 11.3197
-10.2376 85.0000 7.2830
12.8218 85.0000 -11.9785
-14.8935 85.0000 -3.2855
10.8317 85.0000 16.1828
1.4474 85.0000 -11.6227
2.5014 85.0000 -12.1755
-0.1075 85.0000 10.6555
-8.9263 85.0000 -6.9765
-2.5063 85.0000 22.0617
2.3370 85.0000 4.9795
4.0177 85.0000 14.7188
-6.9070 85.0000 0.9476
4.2577 85.0000 -26.2380
-8.5307 85.0000 10.0288
12.7322 85.0000 29.7885
13.1617 85.0000 13.3598
-3.3146 85.0000 25.7142
11.1909 85.0000 -6.9786
7.1277 85.0000 -8.7945
-12.6718 85.0000 18.7366
-2.1947 85.0000 16.2335
-13.7902 85.0000 -13.0632
-4.2578 85.0000 4.7980
2.4448 85.0000 -5.4903
-4.7259 85.0000 0.7981
3.6950 85.0000 2.1678
6.3502 85.0000 14.1602
11.6004 85.0000 -27.3300
3.1236 85.0000 -13.9979
5.7070 85.0000 4.3078
-10.8636 85.0000 -21.2792
-7.5298 85.0000 -14.6839
5.5063 85.0000 16.2114
-10.0839 85.0000 9.8679
-14.4569 85.0000 20.3540
14.1271 85.0000 -15.5032
6.9091 85.0000 -12.3234
0.1575 85.0000 -18.0291
6.8052 85.0000 16.2651
-10.3494 85.0000 -2.0161
-11.6607 85.0000 25.4539
8.6806 85.0000 -13.8844
9.9922 85.0000 2.2301
-1.4081 85.0000 21.9922
-1.1957 85.0000 -5.7730
8.1646 85.0000 -20.2062
-4.0205 85.0000 28.8249
12.7463 85.0000 12.0888
4.0186 85.0000 -4.6716
7.3204 85.0000 16.7376
-0.3007 85.0000 25.4048
2.8633 85.0000 -2.3505
10.1727 85.0000 -2.2367
-0.0615 85.0000 -2.0991
-1.3409 85.0000 -1.5429
-14.7066 85.0000 0.4845
13.8392 85.0000 23.7475
12.5172 85.0000 -12.6364
-4.9118 85.0000 -17.7336
4.7909 85.0000 -15.7507
-14.7751 85.0000 -10.0344
-13.8744 85.0000 3.1717
-8.0737 85.0000 -21.6380
11.2926 85.0000 7.2583
-8.5502 85.0000 -25.5369
13.9538 85.0000 -22.7796
12.6128 85.0000 19.9060
-0.6895 85.0000 28.1967
-11.3658 85.0000 -6.1252
-8.3943 85.0000 -29.9947
8.6754 85.0000 -22.5876
4.5177 85.0000 29.7007
4.8013 85.0000 1.9377
-4.1615 85.0000 -21.1517
-3.4144 85.0000 16.9106
-14.0840 85.0000 17.7298
-10.5310 85.0000 -7.5077
-13.3898 85.0000 -26.7458
-12.7517 85.0000 -4.3520
-1.0771 -15.0000 4.5167
-7.0805 -15.0000 -16.6420
7.8951 -15.0000 14.6432
7.1357 -15.0000 20.3893
7.6422 -15.0000 23.7741
-3.0088 -15.0000 15.8802
-0.2119 -15.0000 -1.0570
-12.2445 -15.0000 3.2837
13.9097 -15.0000 -5.9811
3.4635 -15.0000 -26.6924
6.8863 -15.0000 -15.0997
-11.2528 -15.0000 -25.2458
-0.4177 -15.0000 22.0610
11.8377 -15.0000 -22.4408
1.8908 -15.0000 -21.6107
-1.3425 -15.0000 17.2932
8.6133 -15.0000 -7.8059
-3.5258 -15.0000 -21.9900
7.5324 -15.0000 6.4705
-11.6700 -15.0000 -2.9321
0.8077 -15.0000 -22.8563
0.5661 -15.0000 3.5004
-11.2788 -15.0000 12.4115
4.0795 -15.0000 -18.2439
14.5364 -15.0000 -1.4424
11.6684 -15.0000 15.3418
-4.9958 -15.0000 -20.3564
6.3467 -15.0000 19.5239
9.2073 -15.0000 -6.0849
-0.9167 -15.0000 -0.7535
6.1895 -15.0000 17.0250
7.2655 -15.0000 -13.1751
-1.4109 -15.0000 11.0023
-10.5310 -15.0000 -0.6146
-1.9077 -15.0000 -20.9312
-1.6766 -15.0000 12.8616
-1.9596 -15.0000 -24.9660
1.0377 -15.0000 -17.8710
-10.1120 -15.0000 -5.5045
11.7944 -15.0000 -1.3020
12.7002 -15.0000 -7.7908
-6.9535 -15.0000 -8.6987
-7.5076 -15.0000 -5.1053
-4.1983 -15.0000 29.5222
7.5255 -15.0000 11.9482
-11.4662 -15.0000 10.1314
5.8025 -15.0000 -16.0096
2.6027 -15.0000 13.6896
11.7428 -15.0000 -1.4451
2.2635 -15.0000 -28.5089
-1.8435 -15.0000 28.9921
14.0026 -15.0000 20.2356
10.9656 -15.0000 -0.1099
10.3589 -15.0000 6.0621
-0.1131 -15.0000 -14.1029
-8.0195 -15.0000 29.9732
-4.6891 -15.0000 -25.5320
3.1143 -15.0000 22.4144
3.0664 -15.0000 -7.4675
-9.0562 -15.0000 -23.7318
6.2721 -15.0000 -20.9202
5.5705 -15.0000 1.5950
6.0266 -15.0000 22.0831
-8.8633 -15.0000 -14.0700
-12.6561 -15.0000 4.6766
-3.1215 -15.0000 -24.9406
-9.2204 -15.0000 6.0508
8.1323 -15.0000 29.5475
-2.2726 -15.0000 -24.1491
-12.2191 -15.0000 1.3174
13.5145 -15.0000 22.8309
-8.0755 -15.0000 -18.1976
11.1192 -15.0000 -8.9188
-8.4088 -15.0000 -7.6040
-1.8969 -15.0000 -23.2368
1.3843 -15.0000 18.9764
3.3550 -15.0000 27.4561
-14.0388 -15.0000 -0.5845
-10.8483 -15.0000 -21.2599
13.7706 -15.0000 17.0493
-10.6807 -15.0000 19.0495
14.9506 -15.0000 21.4930
11.9529 -15.0000 -15.2574
10.1642 -15.0000 4.2002
-10.6825 -15.0000 9.3803
2.6012 76.8849 30.0000
-0.4838 50.3550 30.0000
-10.9755 32.1132 30.0000
-13.6571 -11.1321 30.0000
2.8571 59.9626 30.0000
2.2703 6.3585 30.0000
-3.7195 68.2291 30.0000
-10.9009 61.7177 30.0000
-12.2338 31.0209 30.0000
-13.4804 70.2120 30.0000
-7.9805 53.3300 30.0000
-4.7761 27.9273 30.0000
7.4072 65.9132 30.0000
3.5308 48.2655 30.0000
-1.7791 84.3431 30.0000
-0.6468 53.7442 30.0000
-4.6980 5.4600 30.0000
5.8448 25.7005 30.0000
7.9926 9.9083 30.0000
13.2427 71.0697 30.0000
4.4561 66.3878 30.0000
9.5131 56.1025 30.0000
1.5570 -5.3893 30.0000
-5.4055 -7.3044 30.0000
7.9088 15.7529 30.0000
14.4364 32.7935 30.0000
2.4597 65.2743 30.0000
-8.6396 73.7220 30.0000
-13.3776 -2.8395 30.0000
3.3824 58.6889 30.0000
9.5709 68.4070 30.0000
12.4422 35.9235 30.0000
-6.0196 73.5040 30.0000
-3.0563 30.1223 30.0000
7.8639 21.6249 30.0000
7.8710 -8.9020 30.0000
3.3806 19.3277 30.0000
7.3846 16.0349 30.0000
-6.3428 78.5195 30.0000
14.7302 28.8347 30.0000
-12.0176 -3.3907 30.0000
1.9461 25.4006 30.0000
14.1795 19.7960 30.0000
-13.4885 3.4910 30.0000
6.0937 52.4256 30.0000
5.8906 37.7272 30.0000
-3.8744 57.5401 30.0000
-9.3020 -0.9063 30.0000
1.7684 80.4903 30.0000
5.3282 5.7093 30.0000
5.3653 53.1161 30.0000
1.0204 49.5108 30.0000
-3.8783 80.3674 30.0000
6.2213 56.7778 30.0000
5.1050 52.6625 30.0000
-10.8115 82.8169 30.0000
3.1316 25.9713 30.0000
12.4179 -4.7442 30.0000
-8.9887 14.2601 30.0000
-9.1236 36.8466 30.0000
11.2786 61.6752 30.0000
2.9067 -5.3219 30.0000
-9.6645 38.3313 30.0000
-0.7301 82.3948 30.0000
-11.1505 17.3687 30.0000
4.5324 29.2517 30.0000
13.1674 70.7924 30.0000
9.5839 62.4300 30.0000
12.7668 11.9529 30.0000
-12.0026 47.4853 30.0000
-6.6223 35.8744 30.0000
12.8879 21.5163 30.0000
3.5691 82.6840 30.0000
-10.4755 46.9190 30.0000
5.1911 76.0235 30.0000
-4.3840 -8.5258 30.0000
-8.1454 35.9596 30.0000
-4.6312 17.8867 30.0000
-9.6278 51.6643 30.0000
0.1382 49.5412 30.0000
-1.1153 -11.5626 30.0000
6.8489 47.6228 30.0000
2.9859 25.5697 30.0000
2.7116 29.4893 30.0000
11.9762 25.5812 30.0000
4.7144 78.3712 -30.0000
9.8569 59.4190 -30.0000
7.7301 14.8220 -30.0000
-3.5573 -14.5167 -30.0000
-2.8066 72.5561 -30.0000
-9.0650 38.0506 -30.0000
-2.6395 0.1764 -30.0000
11.0944 58.3473 -30.0000
-6.9899 51.8179 -30.0000
-3.0251 65.9275 -30.0000
11.9087 44.6387 -30.0000
-3.0492 61.6583 -30.0000
6.6077 75.9370 -30.0000
7.9841 26.6178 -30.0000
6.5159 70.3411 -30.0000
-11.5407 81.0970 -30.0000
-13.7237 69.0736 -30.0000
11.1223 6.0570 -30.0000
-4.9763 71.5120 -30.0000
13.4572 72.8024 -30.0000
-6.0027 84.4182 -30.0000
9.9245 80.3565 -30.0000
12.4007 53.6486 -30.0000
-12.3361 -1.2185 -30.0000
-8.3585 28.4441 -30.0000
9.8450 11.2182 -30.0000
0.2489 -4.6789 -30.0000
-12.4907 -12.1722 -30.0000
10.7576 -1.4625 -30.0000
-1.3142 68.4986 -30.0000
5.8393 12.2835 -30.0000
9.4218 69.7731 -30.0000
-10.8467 76.2269 -30.0000
-14.8579 55.2208 -30.0000
-3.9641 23.9354 -30.0000
3.7658 12.1018 -30.0000
11.1825 66.7526 -30.0000
12.8431 77.4121 -30.0000
-13.5611 41.3036 -30.0000
-7.5637 69.1980 -30.0000
9.0193 27.4442 -30.0000
3.5298 36.4094 -30.0000
-4.8018 7.8684 -30.0000
12.4610 2.9448 -30.0000
-3.5665 74.4952 -30.0000
4.8645 6.7480 -30.0000
-14.9418 -0.1579 -30.0000
-10.4494 5.4235 -30.0000
7.3018 51.5460 -30.0000
14.8536 30.4499 -30.0000
-1.5636 56.6918 -30.0000
0.9122 56.2995 -30.0000
-14.0606 45.4418 -30.0000
-13.0697 45.8540 -30.0000
-2.3538 -1.3989 -30.0000
-8.8205 37.8304 -30.0000
11.2132 -9.2901 -30.0000
-14.6690 67.8764 -30.0000
8.4348 -12.2570 -30.0000
12.6268 44.1054 -30.0000
-2.2182 42.0336 -30.0000
-6.4930 -5.3570 -30.0000
11.3993 56.8239 -30.0000
13.3399 55.4239 -30.0000
-8.5681 53.3621 -30.0000
1.5191 37.8902 -30.0000
-7.9258 42.2729 -30.0000
-3.7433 59.4964 -30.0000
0.8740 9.9224 -30.0000
-6.7213 32.8238 -30.0000
3.2576 40.1483 -30.0000
11.7528 67.9201 -30.0000
9.9514 34.1516 -30.0000
-2.0856 53.5758 -30.0000
-13.7436 18.9299 -30.0000
12.1196 -5.8860 -30.0000
-10.3749 84.5531 -30.0000
-3.8856 76.8198 -30.0000
10.7687 32.6260 -30.0000
6.3899 57.5322 -30.0000
-12.5706 40.3607 -30.0000
5.0607 74.8596 -30.0000
-6.1823 69.5493 -30.0000
-14.9017 8.9729 -30.0000
-2.7615 35.3787 -30.0000
