ply
format ascii 1.0
element vertex 1024
property float x
property float y
property float z
end_header
50.0000 -10.5702 -5.2520
50.0000 -8.3146 4.0896
50.0000 11.8773 -10.0504
50.0000 7.0820 -1.9192
50.0000 -7.5665 4.5308
50.0000 10.8622 3.7914
50.0000 -1.2805 -18.2232
50.0000 11.6966 -4.4284
50.0000 -5.7926 -29.6459
50.0000 8.5528 -10.0638
50.0000 10.6359 -15.4619
50.0000 -4.5872 1.0200
50.0000 12.8678 17.2859
50.0000 10.7352 13.1920
50.0000 13.7487 -25.7686
50.0000 14.5825 15.2385
50.0000 1.1979 -2.6157
50.0000 -7.1624 27.6945
50.0000 7.4751 -3.2213
50.0000 13.2391 26.7340
50.0000 -1.9537 -6.0942
50.0000 6.3306 -19.6531
50.0000 -2.2173 -19.1362
50.0000 5.8298 -19.6910
50.0000 8.2960 9.2106
50.0000 -7.8616 -1.4918
50.0000 14.2621 -29.6862
50.0000 13.9008 24.7329
50.0000 13.8495 -16.5335
50.0000 -2.9682 28.2401
50.0000 -5.9619 -23.9108
50.0000 2.0991 1.5374
50.0000 -13.7704 18.2264
50.0000 -6.6970 18.8574
50.0000 5.8683 16.3108
50.0000 5.5341 -25.2643
50.0000 1.9145 5.3561
50.0000 -12.1477 -0.1337
50.0000 -7.5555 7.1864
50.0000 2.1947 14.9131
50.0000 -9.0950 -8.3586
50.0000 -2.8309 20.3685
50.0000 9.1920 25.9614
50.0000 5.0463 6.3504
50.0000 -11.7685 17.4686
50.0000 -10.6363 2.5941
50.0000 14.4453 -12.2983
50.0000 -7.2034 11.7818
50.0000 9.0124 21.4566
50.0000 -2.1587 -22.4618
50.0000 -9.3211 12.2272
50.0000 -2.8952 -28.9985
50.0000 13.0606 -11.4384
50.0000 11.3133 -25.1159
50.0000 12.8057 -9.5013
50.0000 5.9783 -27.5429
50.0000 -11.3385 0.7014
50.0000 -8.9484 27.1162
50.0000 -10.2916 24.2167
50.0000 -6.8755 -6.5023
50.0000 -1.0386 2.4924
50.0000 8.4208 -1.2737
50.0000 7.3701 21.2986
50.0000 3.2312 -21.3338
50.0000 -12.2354 24.4447
50.0000 -3.8754 -7.5598
50.0000 13.7785 -18.2745
50.0000 -3.9730 -20.7145
50.0000 -4.2340 13.9521
50.0000 4.9212 3.1757
50.0000 9.1230 -14.8436
50.0000 6.1168 1.2673
50.0000 -12.1235 -19.2584
50.0000 1.5435 -27.1696
50.0000 -12.3941 23.9388
50.0000 -1.2394 12.6661
50.0000 3.6961 -20.4865
50.0000 8.1363 -17.0917
50.0000 10.2786 -8.8378
50.0000 -4.4142 7.2119
50.0000 -10.2071 14.7695
50.0000 -0.6824 1.2608
50.0000 -14.5927 -12.8639
50.0000 0.7185 -16.3617
50.0000 11.1482 -29.8499
50.0000 0.9687 10.0855
-50.0000 -9.7086 -13.2606
-50.0000 -0.1709 -16.9178
-50.0000 -11.6263 -26.1013
-50.0000 -14.4224 16.7797
-50.0000 9.5420 -26.6922
-50.0000 -6.7698 -4.7729
-50.0000 -5.9226 3.7602
-50.0000 0.6391 -17.8410
-50.0000 3.7137 -28.8507
-50.0000 9.3879 -16.5354
-50.0000 14.2021 -14.1384
-50.0000 5.1224 9.9108
-50.0000 -13.8159 -12.0992
-50.0000 -12.2718 -21.2606
-50.0000 6.5569 -23.2291
-50.0000 -4.8574 18.5917
-50.0000 -1.5775 20.4557
-50.0000 7.7241 3.7895
-50.0000 12.7143 19.3117
-50.0000 2.8962 19.5452
-50.0000 -7.4264 29.3171
-50.0000 -5.1187 25.2743
-50.0000 4.4530 0.2208
-50.0000 -3.7463 -23.7688
-50.0000 2.3658 -14.5078
-50.0000 12.7795 11.5947
-50.0000 -1.7367 7.6970
-50.0000 9.1516 26.0400
-50.0000 -3.9526 0.5686
-50.0000 -1.8091 -10.1350
-50.0000 5.8056 12.1619
-50.0000 -14.4750 24.9057
-50.0000 7.4473 22.7976
-50.0000 -13.8615 26.7591
-50.0000 -2.1227 -6.0447
-50.0000 14.2745 -1.4569
-50.0000 2.9096 -9.2688
-50.0000 -14.2489 -15.2587
-50.0000 -9.9304 11.1778
-50.0000 -9.2198 -19.2143
-50.0000 0.8226 -3.8289
-50.0000 -1.1482 -18.0295
-50.0000 -6.3620 -16.5156
-50.0000 5.6373 -28.6354
-50.0000 -11.5164 -7.4716
-50.0000 8.6973 4.6095
-50.0000 -0.9446 -11.6054
-50.0000 0.6811 10.6030
-50.0000 11.2486 10.8885
-50.0000 2.0983 -26.0769
-50.0000 -10.4354 -2.6794
-50.0000 4.1184 29.2104
-50.0000 -9.2013 19.7912
-50.0000 4.2924 -12.4392
-50.0000 7.7227 26.1177
-50.0000 8.9575 27.0801
-50.0000 13.9758 17.0880
-50.0000 7.5666 -11.4689
-50.0000 -2.1739 -15.7755
-50.0000 8.9544 3.9533
-50.0000 -7.2032 24.6954
-50.0000 -1.6785 -6.0366
-50.0000 -5.8592 -28.8718
-50.0000 5.5359 -22.2342
-50.0000 6.6865 23.4201
-50.0000 -10.6913 -9.6322
-50.0000 1.8414 -3.6725
-50.0000 -11.1734 -25.3956
-50.0000 -8.0541 -5.8684
-50.0000 8.6258 -3.0499
-50.0000 -14.0731 11.6579
-50.0000 -8.2928 15.4255
-50.0000 10.8855 26.6889
-50.0000 -3.8504 -19.9235
-50.0000 -1.5129 -17.5141
-50.0000 -12.8597 20.7652
-50.0000 6.4596 4.4736
-50.0000 -7.0174 -8.5978
-50.0000 -9.2376 3.1193
-50.0000 13.2292 28.1823
-50.0000 -0.3976 -14.5524
-50.0000 -0.9482 3.3194
-50.0000 -5.4249 -5.6824
-50.0000 5.7905 -14.0186
-50.0000 6.5507 -13.9424
-50.0000 -3.5237 -5.3246
-20.5980 15.0000 5.4444
-21.7224 15.0000 -17.5287
18.1852 15.0000 -11.1754
-9.6654 15.0000 -3.8402
17.7831 15.0000 11.5412
-37.3241 15.0000 5.5268
15.8592 15.0000 -28.4767
34.8387 15.0000 0.7344
18.8080 15.0000 10.7871
-44.6494 15.0000 -15.1577
-2.4135 15.0000 13.1054
6.8910 15.0000 0.2192
38.1189 15.0000 -9.6783
-42.6614 15.0000 -24.2577
40.7392 15.0000 0.5805
24.7679 15.0000 13.0114
-43.4090 15.0000 14.9880
-13.5867 15.0000 -13.0593
-41.4952 15.0000 -4.1956
12.0520 15.0000 6.6947
-39.5990 15.0000 -29.3291
-49.0266 15.0000 -18.8231
33.0388 15.0000 -5.2319
41.6466 15.0000 -29.1249
30.3221 15.0000 -20.0834
-49.5170 15.0000 3.5184
-31.0082 15.0000 15.2618
14.2899 15.0000 -14.7687
-5.6675 15.0000 28.7793
-19.8453 15.0000 -15.8875
17.6416 15.0000 -26.6693
-8.9694 15.0000 -2.3589
0.6869 15.0000 1.9512
-33.1414 15.0000 12.4948
-32.0474 15.0000 -2.6956
-5.2022 15.0000 11.6199
-10.7183 15.0000 -9.8902
21.2240 15.0000 -26.0333
7.3991 15.0000 -24.3553
-27.9058 15.0000 -15.1474
38.9736 15.0000 -9.6564
-1.8080 15.0000 -2.3999
-39.5537 15.0000 10.1878
47.2736 15.0000 -11.6183
-4.2277 15.0000 -9.3620
6.5823 15.0000 24.5749
-7.8704 15.0000 28.0189
4.6090 15.0000 -12.6294
47.0254 15.0000 7.7132
-34.2578 15.0000 6.2149
19.8018 15.0000 24.5956
-10.8491 15.0000 -13.6044
-15.7250 15.0000 -15.5729
-42.3302 15.0000 -20.7224
46.9573 15.0000 7.1325
8.3261 15.0000 -21.6008
31.2910 15.0000 -25.1924
-27.6128 15.0000 -21.6610
28.3545 15.0000 15.8685
-35.1792 15.0000 12.8888
44.6802 15.0000 -3.0981
-15.7739 15.0000 -19.0756
-16.5017 15.0000 -26.4255
28.5995 15.0000 -17.3756
43.4465 15.0000 29.5898
36.7421 15.0000 -20.5350
-38.9616 15.0000 -27.0686
46.1701 15.0000 -12.2081
-6.5620 15.0000 -12.3274
-6.9437 15.0000 -12.0612
9.2532 15.0000 11.6082
12.9700 15.0000 12.8150
-18.7767 15.0000 -13.8779
19.8755 15.0000 20.4743
-11.0481 15.0000 17.6269
15.2414 15.0000 -11.6500
8.0550 15.0000 -4.0908
43.3629 15.0000 -26.0828
-23.0567 15.0000 -8.1432
3.1667 15.0000 19.7397
23.2514 15.0000 26.7668
-1.7982 15.0000 11.1002
-30.4885 15.0000 -23.3620
35.8100 15.0000 -13.1146
-9.1616 15.0000 -19.7146
48.8256 -15.0000 -9.5068
-19.2188 -15.0000 10.0651
-22.8424 -15.0000 12.1003
40.0449 -15.0000 26.6477
-26.5911 -15.0000 29.1019
-43.2431 -15.0000 -1.4870
3.5033 -15.0000 -15.4780
-26.4713 -15.0000 -9.0663
38.2941 -15.0000 -9.9228
20.6217 -15.0000 8.2856
40.9478 -15.0000 -29.3598
5.6852 -15.0000 -27.6200
40.7996 -15.0000 16.1774
-46.9628 -15.0000 -4.0055
-17.9379 -15.0000 -28.4805
-44.0418 -15.0000 -21.9765
-43.7051 -15.0000 15.9058
-11.8733 -15.0000 8.7352
-14.0815 -15.0000 3.6823
24.3544 -15.0000 2.3087
-25.9228 -15.0000 29.9804
0.1717 -15.0000 -27.9966
6.0823 -15.0000 -27.6552
-18.6627 -15.0000 15.3588
18.7171 -15.0000 -17.9659
-28.7280 -15.0000 -28.3762
-19.6137 -15.0000 -20.7357
49.8210 -15.0000 25.6057
-19.9916 -15.0000 -22.2878
1.6254 -15.0000 -13.1966
15.0020 -15.0000 -14.7004
-32.5689 -15.0000 -5.9542
-22.9389 -15.0000 -0.7813
-40.8145 -15.0000 -9.9400
40.9099 -15.0000 8.9209
22.2369 -15.0000 -14.6223
17.9499 -15.0000 -2.8111
-8.0525 -15.0000 -29.1402
33.5723 -15.0000 -21.4455
-34.2797 -15.0000 -12.3414
0.5881 -15.0000 22.6958
6.0455 -15.0000 -19.8155
-32.6916 -15.0000 -17.3731
-30.2607 -15.0000 8.9743
-37.3113 -15.0000 16.7408
18.3815 -15.0000 27.2036
-10.0678 -15.0000 9.6666
8.3316 -15.0000 -0.2273
40.5865 -15.0000 -0.5110
34.1376 -15.0000 -0.6940
-46.9500 -15.0000 -27.6074
13.3665 -15.0000 13.7280
46.7419 -15.0000 -6.7229
-21.5995 -15.0000 -23.0573
7.0146 -15.0000 14.7175
-41.9425 -15.0000 5.2720
-21.6579 -15.0000 22.5034
-30.4263 -15.0000 3.8228
-12.8540 -15.0000 26.0256
21.2585 -15.0000 6.3803
14.5934 -15.0000 -7.3226
-8.8433 -15.0000 -26.6522
5.7904 -15.0000 -20.6709
-41.3165 -15.0000 -10.5924
38.0329 -15.0000 4.2721
-18.4869 -15.0000 -7.0636
38.6165 -15.0000 3.9533
41.2367 -15.0000 -6.8232
5.5261 -15.0000 9.9826
5.7846 -15.0000 -11.6428
10.9230 -15.0000 -10.1395
25.5557 -15.0000 5.3414
24.6529 -15.0000 -0.7514
-47.2335 -15.0000 -15.4059
-40.9265 -15.0000 -13.3215
-10.8254 -15.0000 11.2502
25.8799 -15.0000 -26.9921
-11.2387 -15.0000 10.6247
14.2084 -15.0000 1.4829
14.6836 -15.0000 -16.3932
-1.8724 -15.0000 19.4830
12.6927 -15.0000 11.6496
11.9083 -15.0000 29.3020
2.8178 -15.0000 -1.4927
-31.3976 -15.0000 -11.1283
44.7723 14.2655 30.0000
25.6300 0.6090 30.0000
-9.6650 -10.1399 30.0000
3.1665 6.4453 30.0000
34.7931 -9.1034 30.0000
1.0504 -10.4464 30.0000
-41.1878 -10.0360 30.0000
32.8958 -11.3252 30.0000
-16.9122 -13.3518 30.0000
-9.1989 13.7552 30.0000
2.5197 -13.1681 30.0000
49.8024 -7.2397 30.0000
-32.7875 -1.7946 30.0000
13.3118 -1.1803 30.0000
27.7126 -14.5302 30.0000
-16.9039 12.5187 30.0000
-43.1391 14.9154 30.0000
-32.2563 -9.2420 30.0000
-19.9497 10.3207 30.0000
-32.6405 9.8795 30.0000
3.5806 -6.6460 30.0000
47.4518 1.0579 30.0000
-30.4206 -7.4938 30.0000
-9.9621 -13.7648 30.0000
-14.7548 12.6662 30.0000
-15.7693 4.8672 30.0000
27.4077 -6.9119 30.0000
-6.5405 6.0689 30.0000
20.3602 -7.5641 30.0000
29.3543 -11.4809 30.0000
-3.1130 3.9873 30.0000
-37.6474 -8.2332 30.0000
26.2568 -8.2949 30.0000
48.0058 -4.3585 30.0000
-3.6804 -6.9799 30.0000
44.7734 -3.1031 30.0000
34.6623 -7.1803 30.0000
-11.1906 12.7297 30.0000
33.8739 14.9486 30.0000
7.4423 -5.1464 30.0000
33.5130 5.0985 30.0000
-19.7465 -12.5548 30.0000
42.4077 8.6869 30.0000
-37.7622 9.8376 30.0000
30.6669 10.4991 30.0000
-34.7581 12.2371 30.0000
-3.2079 3.8237 30.0000
-14.5360 -0.1395 30.0000
11.6430 -2.8858 30.0000
13.5315 -3.8082 30.0000
-14.1836 1.3179 30.0000
47.0975 -1.2878 30.0000
-23.6514 -13.9137 30.0000
6.6114 9.4298 30.0000
-19.6424 10.5185 30.0000
-40.3823 -8.6046 30.0000
-14.2659 -12.3128 30.0000
8.0816 6.6393 30.0000
-16.7529 -12.2154 30.0000
-37.9363 9.8994 30.0000
-26.4313 4.8646 30.0000
21.7039 -4.4344 30.0000
-39.5275 1.6297 30.0000
41.9810 12.9354 30.0000
-8.9360 5.2893 30.0000
37.4197 8.6104 30.0000
-10.0095 9.3474 30.0000
49.1624 11.5416 30.0000
12.4216 -14.0057 30.0000
-40.4541 -12.0140 30.0000
46.9184 4.7961 30.0000
15.3627 -13.8248 30.0000
-17.2580 1.1839 30.0000
-2.8372 5.7147 30.0000
16.7280 13.8717 30.0000
29.5989 3.9021 30.0000
27.5869 -0.2490 30.0000
-21.0061 14.3124 30.0000
-9.2779 -1.0488 30.0000
-8.7638 -14.6628 30.0000
28.7059 6.3883 30.0000
5.0908 8.8673 30.0000
-49.8319 2.6281 30.0000
21.6780 14.8037 30.0000
41.5353 -2.0514 30.0000
14.6990 0.4854 -30.0000
39.2874 -2.6757 -30.0000
2.2561 13.9795 -30.0000
21.9120 10.1225 -30.0000
27.2193 8.3390 -30.0000
-25.9550 13.6347 -30.0000
-40.2345 -11.3163 -30.0000
32.6501 -1.0947 -30.0000
-36.8061 -8.9001 -30.0000
-32.7963 -12.1051 -30.0000
14.5286 -12.7391 -30.0000
18.6194 1.3946 -30.0000
-32.5609 8.6907 -30.0000
0.4736 -7.1070 -30.0000
0.5140 -0.6055 -30.0000
14.9417 0.6902 -30.0000
-36.6211 6.8454 -30.0000
19.6541 12.1395 -30.0000
-43.1711 4.8931 -30.0000
47.3721 -9.4113 -30.0000
2.3771 -14.8385 -30.0000
-16.6336 8.2187 -30.0000
0.2787 -13.1003 -30.0000
48.0670 2.3117 -30.0000
-9.9482 -3.3776 -30.0000
31.0624 13.5949 -30.0000
39.2325 -2.0541 -30.0000
-47.1291 -5.6678 -30.0000
-49.5841 12.8622 -30.0000
-25.1899 8.8643 -30.0000
14.7324 13.8854 -30.0000
16.3300 14.7526 -30.0000
7.9671 -7.9302 -30.0000
34.0542 -4.0582 -30.0000
-49.9976 -7.2786 -30.0000
-18.9432 12.1256 -30.0000
-7.4683 -1.1316 -30.0000
8.4217 7.4493 -30.0000
-33.0754 -13.4793 -30.0000
-34.1601 3.7256 -30.0000
28.8280 6.3304 -30.0000
-21.8458 -10.1819 -30.0000
15.7794 1.9681 -30.0000
-9.4463 -8.3548 -30.0000
49.6171 -13.9060 -30.0000
-15.3569 -12.6759 -30.0000
-49.3412 5.5744 -30.0000
16.4557 -8.3689 -30.0000
48.1574 8.1346 -30.0000
-42.8471 14.5905 -30.0000
-25.4524 6.6280 -30.0000
46.6163 12.9569 -30.0000
40.7252 -14.4577 -30.0000
-38.4384 -5.8553 -30.0000
-8.8115 -7.8544 -30.0000
-15.3262 10.3769 -30.0000
41.4209 -11.8628 -30.0000
22.2602 -13.3610 -30.0000
30.0035 11.6991 -30.0000
-46.3921 -6.4377 -30.0000
36.2315 6.5805 -30.0000
40.5195 -9.9135 -30.0000
-20.3397 5.1190 -30.0000
49.6227 -6.7980 -30.0000
-21.5037 -9.6662 -30.0000
-41.0456 -9.0227 -30.0000
17.7088 -8.5100 -30.0000
-16.0023 -13.3223 -30.0000
41.8545 6.1327 -30.0000
40.9685 -11.5877 -30.0000
44.0978 4.6422 -30.0000
48.0441 0.3534 -30.0000
12.5439 10.3245 -30.0000
0.9924 9.4270 -30.0000
18.0004 8.8379 -30.0000
39.2684 -7.2161 -30.0000
-30.5565 6.5653 -30.0000
44.8100 -11.2262 -30.0000
5.1790 0.9759 -30.0000
-41.4724 14.9125 -30.0000
-38.4132 -11.7989 -30.0000
-48.4869 2.2920 -30.0000
20.9488 -13.4380 -30.0000
9.2498 7.9318 -30.0000
-9.2265 4.6503 -30.0000
15.0000 22.0115 15.5029
15.0000 48.0907 -20.9476
15.0000 -1.6165 -18.2625
15.0000 64.6357 -22.1147
15.0000 28.1959 -13.3207
15.0000 -11.9731 21.9334
15.0000 45.8886 -10.4006
15.0000 30.4205 13.7424
15.0000 13.6165 -20.4163
15.0000 77.4784 -19.6650
15.0000 60.9873 -12.8263
15.0000 83.5576 11.9752
15.0000 49.8695 -13.4913
15.0000 56.3433 6.9601
15.0000 5.9149 18.1342
15.0000 51.9308 16.9148
15.0000 -3.1036 8.2493
15.0000 8.1610 18.0893
15.0000 49.3063 -25.1359
15.0000 6.3768 4.2309
15.0000 35.2591 7.5153
15.0000 63.3742 -19.3930
15.0000 42.5763 -5.0111
15.0000 72.3205 9.0253
15.0000 77.7455 27.9160
15.0000 79.8080 -4.6242
15.0000 -7.5880 14.7145
15.0000 71.8266 -4.0644
15.0000 26.6237 22.2610
15.0000 29.4108 9.0638
15.0000 20.7016 18.4463
15.0000 48.8594 18.2636
15.0000 55.8081 12.8696
15.0000 -9.7565 -9.9546
15.0000 0.2753 -5.3862
15.0000 59.4519 -13.7834
15.0000 50.8524 -26.6768
15.0000 36.1086 21.4953
15.0000 -0.5706 6.2705
15.0000 17.3620 -2.5885
15.0000 38.4300 4.6098
15.0000 48.4322 -27.0883
15.0000 65.3040 -5.3310
15.0000 70.5676 12.4625
15.0000 -14.7206 -4.9517
15.0000 22.5164 0.3980
15.0000 40.1180 6.2400
15.0000 67.6452 0.5062
15.0000 16.2753 -2.2848
15.0000 13.5738 -29.6198
15.0000 -5.8901 -20.4807
15.0000 82.4768 -6.0422
15.0000 49.5982 27.2646
15.0000 61.1715 2.1171
15.0000 81.1408 17.2335
15.0000 -3.5328 23.0063
15.0000 -13.3311 7.1629
15.0000 8.2760 1.8486
15.0000 3.4451 -23.5914
15.0000 26.2065 23.2156
15.0000 38.4170 10.3150
15.0000 -11.8851 -23.3804
15.0000 29.4181 24.8529
15.0000 29.2250 -2.1834
15.0000 16.4707 16.9470
15.0000 73.1063 -1.5803
15.0000 58.8575 8.5356
15.0000 19.0618 25.1842
15.0000 1.4211 11.3641
15.0000 53.9785 18.3787
15.0000 52.6295 -29.0494
15.0000 23.5506 11.5848
15.0000 40.3787 -12.6737
15.0000 -7.4968 23.6231
15.0000 42.6812 -19.1617
15.0000 50.2711 9.3298
15.0000 67.7512 29.7728
15.0000 -12.2425 0.3374
15.0000 32.4557 12.4298
15.0000 38.2304 25.5601
15.0000 42.0200 22.8927
15.0000 -4.1014 -5.6507
15.0000 74.5861 -17.7222
15.0000 55.7853 13.9902
15.0000 71.5779 -3.3819
15.0000 1.0774 -19.0791
-15.0000 77.3979 17.8078
-15.0000 72.0538 -28.9633
-15.0000 17.4266 -4.8570
-15.0000 84.3766 5.9483
-15.0000 58.2846 -23.0840
-15.0000 58.5681 -4.9919
-15.0000 57.5228 7.0578
-15.0000 -4.5498 -26.7817
-15.0000 16.5774 8.4898
-15.0000 56.0293 29.2993
-15.0000 6.7356 -26.7665
-15.0000 17.7929 -15.8351
-15.0000 38.2752 2.9618
-15.0000 56.2488 -13.0662
-15.0000 6.6861 27.1293
-15.0000 49.2638 -5.1120
-15.0000 28.8049 -6.3784
-15.0000 52.7162 -14.6226
-15.0000 51.0137 -22.2953
-15.0000 7.3179 -8.5097
-15.0000 16.2350 11.8636
-15.0000 36.2158 -16.1118
-15.0000 62.8795 -25.7387
-15.0000 17.9827 -15.5263
-15.0000 45.4567 2.7948
-15.0000 39.6013 14.5656
-15.0000 28.1925 7.7474
-15.0000 77.7647 29.9724
-15.0000 70.6653 -25.0410
-15.0000 -14.1971 21.8913
-15.0000 55.6203 0.2536
-15.0000 15.7402 -25.3786
-15.0000 68.3622 21.5382
-15.0000 61.6290 28.9945
-15.0000 58.1847 0.3180
-15.0000 75.6530 13.5608
-15.0000 -12.3207 7.3309
-15.0000 -4.2435 -17.5623
-15.0000 0.7380 13.6848
-15.0000 70.7614 14.1986
-15.0000 49.6903 23.8547
-15.0000 47.5144 -2.9003
-15.0000 60.3575 -7.0194
-15.0000 46.8751 -7.8288
-15.0000 73.1931 16.1655
-15.0000 46.5102 -1.8613
-15.0000 68.7218 -21.6855
-15.0000 7.2289 -1.5499
-15.0000 2.7375 -29.3416
-15.0000 68.5915 -27.0260
-15.0000 35.7490 -15.8117
-15.0000 43.2519 -6.2280
-15.0000 72.8089 15.0145
-15.0000 72.4957 -28.2316
-15.0000 67.0517 7.6846
-15.0000 52.5567 12.5172
-15.0000 52.0083 15.6334
-15.0000 40.2400 -18.6002
-15.0000 8.2125 -1.8022
-15.0000 79.1609 -24.0475
-15.0000 81.9520 21.4226
-15.0000 6.8036 21.2258
-15.0000 40.9963 -27.4000
-15.0000 21.6459 -15.8571
-15.0000 5.4969 7.9935
-15.0000 23.2406 -2.2175
-15.0000 -8.6848 -10.1701
-15.0000 16.7212 12.9039
-15.0000 72.1815 24.6367
-15.0000 19.1397 -8.6792
-15.0000 -10.7861 -14.5670
-15.0000 42.8358 25.1615
-15.0000 -13.6554 -26.4581
-15.0000 78.2612 22.7964
-15.0000 45.4428 -24.5483
-15.0000 74.4694 27.1600
-15.0000 14.4261 -9.0715
-15.0000 41.8058 21.4832
-15.0000 53.5116 0.4208
-15.0000 31.0542 -20.5642
-15.0000 10.4018 -26.1366
-15.0000 -7.9170 -23.6812
-15.0000 -12.2395 -3.8470
-15.0000 66.2802 -24.8633
-15.0000 41.7486 -26.9211
-15.0000 -2.4290 -5.7113
-1.4565 85.0000 -4.3698
3.1778 85.0000 1.5322
-12.6977 85.0000 -25.2125
8.3396 85.0000 23.6382
-12.7432 85.0000 13.7514
-2.4889 85.0000 -8.0898
-7.3172 85.0000 -11.9270
-6.4203 85.0000 18.8116
-0.8663 85.0000 -13.7007
12.7533 85.0000 -27.5280
-0.3725 85.0000 9.9389
14.3965 85.0000 2.5659
6.1258 85.0000 20.9212
-11.6440 85.0000 -29.4922
-11.6880 85.0000 17.5926
11.9888 85.0000 26.1642
-10.9904 85.0000 22.7607
3.5022 85.0000 1.5543
-1.4663 85.0000 29.2145
12.5004 85.0000 -19.4209
-11.0674 85.0000 -5.9806
11.2616 85.0000 -24.8615
-12.5962 85.0000 14.7298
-3.5679 85.0000 -15.2309
-10.2852 85.0000 4.5814
12.7259 85.0000 -4.9573
4.1739 85.0000 23.8304
5.8046 85.0000 2.8193
9.9933 85.0000 -19.4359
-7.6839 85.0000 12.1151
6.9558 85.0000 1.5695
3.4065 85.0000 -10.4561
8.6673 85.0000 -22.5034
-5.0153 85.0000 29.3241
-14.0067 85.0000 8.6250
12.4850 85.0000 23.8114
9.7345 85.0000 9.6358
2.0094 85.0000 1.7400
-2.5366 85.0000 -19.6625
13.2680 85.0000 27.7919
7.1637 85.0000 19.8950
10.8133 85.0000 29.7930
8.6077 85.0000 -3.5690
-9.1287 85.0000 0.4870
-10.1094 85.0000 6.4480
-11.4550 85.0000 3.6888
-4.8796 85.0000 -1.2231
-2.2440 85.0000 -18.5801
2.5112 85.0000 5.1099
-10.4792 85.0000 -8.7526
10.6064 85.0000 24.6032
14.8354 85.0000 -12.5030
6.2449 85.0000 1.0806
-0.3798 85.0000 -13.3621
9.6986 85.0000 24.5023
0.7762 85.0000 29.3036
-10.7205 85.0000 19.1328
-4.7912 85.0000 -4.8784
-13.1350 85.0000 -3.2303
-6.6756 85.0000 -3.0279
5.8801 85.0000 13.1001
-9.9263 85.0000 29.0770
-8.5031 85.0000 23.1123
4.3536 85.0000 19.4187
-7.4187 85.0000 -6.8328
-8.0094 85.0000 -5.8939
-2.2337 85.0000 1.9333
12.4519 85.0000 -10.9879
-6.8657 85.0000 15.5297
-0.9120 85.0000 21.7821
-7.3833 85.0000 29.9277
-3.7076 85.0000 24.4196
-9.1239 85.0000 -5.9610
-10.2373 85.0000 8.1955
1.6124 85.0000 28.9501
11.8243 85.0000 8.4627
-6.8443 85.0000 2.1684
-14.4331 85.0000 23.0650
-8.6745 85.0000 7.9081
7.4764 85.0000 -25.7228
-7.4311 85.0000 20.0756
14.2442 85.0000 5.1804
1.0731 85.0000 5.3171
3.0699 85.0000 -27.4239
-6.9581 85.0000 -5.7303
10.5006 -15.0000 -13.4932
0.1394 -15.0000 -4.3770
0.7120 -15.0000 9.3341
-6.2899 -15.0000 -13.9142
12.2052 -15.0000 -15.5010
-9.1240 -15.0000 15.1924
10.0714 -15.0000 6.6726
5.0909 -15.0000 -3.6509
4.0428 -15.0000 18.8953
-9.0683 -15.0000 -2.4326
2.5791 -15.0000 -21.8421
5.9653 -15.0000 -8.4239
-10.0659 -15.0000 -0.8200
-3.4709 -15.0000 -15.3348
-9.8284 -15.0000 3.1636
8.2808 -15.0000 -14.0847
0.5027 -15.0000 23.6233
-11.7316 -15.0000 25.3448
14.2920 -15.0000 8.6652
0.0558 -15.0000 11.8398
-11.2595 -15.0000 17.2378
2.0688 -15.0000 -14.1660
9.4891 -15.0000 3.4989
-4.8657 -15.0000 28.4471
-7.1294 -15.0000 13.7184
-14.5292 -15.0000 -3.5328
12.4296 -15.0000 -20.2179
-6.9191 -15.0000 26.1984
-9.3591 -15.0000 1.4001
-10.5010 -15.0000 -10.4605
5.3910 -15.0000 -3.5055
-4.1286 -15.0000 12.6488
7.0570 -15.0000 -13.6695
-4.2607 -15.0000 5.5972
0.4457 -15.0000 -6.8503
9.9691 -15.0000 -15.4235
-12.6113 -15.0000 -22.4027
11.8704 -15.0000 17.2474
13.0558 -15.0000 26.3152
-4.5686 -15.0000 18.8314
-2.6368 -15.0000 18.5716
3.5383 -15.0000 2.5225
6.0298 -15.0000 6.6808
-0.0446 -15.0000 -22.7931
-6.1413 -15.0000 -4.2689
-8.5460 -15.0000 7.4262
12.9204 -15.0000 27.7948
3.9523 -15.0000 28.7348
0.6979 -15.0000 4.6172
-4.4363 -15.0000 11.9615
-14.1451 -15.0000 -7.5012
12.8051 -15.0000 -14.3215
6.7910 -15.0000 -16.1665
12.5957 -15.0000 -17.4053
10.0848 -15.0000 28.4238
14.8017 -15.0000 -9.0017
-4.7729 -15.0000 17.9052
-8.5286 -15.0000 -0.3886
-7.4283 -15.0000 -6.6391
9.0737 -15.0000 15.3464
14.0562 -15.0000 7.3451
-3.1033 -15.0000 -3.5431
-10.7372 -15.0000 -7.0642
-8.5033 -15.0000 -11.7376
3.0790 -15.0000 -0.5097
-4.4957 -15.0000 -21.4973
2.6496 -15.0000 -8.8578
11.9800 -15.0000 3.3783
-11.4260 -15.0000 -28.3220
3.2535 -15.0000 -17.9934
8.1067 -15.0000 13.1580
13.1665 -15.0000 22.3041
-11.7910 -15.0000 -18.2608
11.5153 -15.0000 -19.1220
13.9490 -15.0000 26.6161
3.8299 -15.0000 19.4786
11.0649 -15.0000 17.7010
-10.1945 -15.0000 5.0967
11.6605 -15.0000 10.9573
12.9717 -15.0000 17.8841
-14.7032 -15.0000 19.9869
6.9422 -15.0000 -16.4450
2.8031 -15.0000 7.5416
-8.6887 -15.0000 -10.4900
6.6985 -15.0000 -29.5404
2.2858 -7.6397 30.0000
12.4771 -9.5809 30.0000
-4.1933 -7.3299 30.0000
-4.7003 35.9471 30.0000
7.3055 -6.6451 30.0000
-8.8309 16.8916 30.0000
-7.5151 12.2891 30.0000
-3.1640 28.0677 30.0000
-2.3510 13.8223 30.0000
-2.6862 20.3896 30.0000
-12.9422 66.1683 30.0000
3.7857 1.9934 30.0000
-8.2366 -8.0437 30.0000
10.1100 76.6721 30.0000
-2.2887 38.2009 30.0000
-11.5241 20.0478 30.0000
-4.3221 42.7485 30.0000
13.3261 80.3381 30.0000
-7.9330 31.7142 30.0000
-9.9183 44.8977 30.0000
-0.0968 19.8006 30.0000
-12.4791 29.3006 30.0000
-9.6959 39.7880 30.0000
2.0214 33.6412 30.0000
8.0393 78.9132 30.0000
-11.4539 33.4575 30.0000
-12.6198 -4.9657 30.0000
-2.2041 -3.5516 30.0000
-4.1845 78.5378 30.0000
-6.3557 -0.0357 30.0000
-6.3463 29.6060 30.0000
11.0124 4.6564 30.0000
12.8108 16.0623 30.0000
-0.2408 9.1774 30.0000
-13.3412 -12.2738 30.0000
-2.3834 48.0700 30.0000
-1.2143 55.3011 30.0000
-10.7582 8.0893 30.0000
4.3420 34.8652 30.0000
-4.9298 46.3477 30.0000
4.3102 77.8513 30.0000
9.1601 15.1909 30.0000
14.0555 20.8113 30.0000
8.3626 19.2763 30.0000
-4.7145 67.8507 30.0000
4.3349 2.4392 30.0000
-11.8504 6.7481 30.0000
-12.2949 -8.0723 30.0000
6.1810 4.9150 30.0000
14.1701 60.9861 30.0000
-11.9387 26.8157 30.0000
-6.3534 78.5390 30.0000
7.9510 40.0257 30.0000
-6.1663 -14.7475 30.0000
-8.5761 25.7686 30.0000
-4.7106 37.3932 30.0000
-3.9049 61.5935 30.0000
11.6074 41.5763 30.0000
1.4812 41.9082 30.0000
-8.7671 68.4180 30.0000
11.5552 65.6918 30.0000
5.4924 52.5761 30.0000
5.1340 33.1033 30.0000
-10.8461 24.2590 30.0000
-11.1691 -13.7722 30.0000
7.1413 22.5078 30.0000
9.1941 75.9991 30.0000
12.3921 46.9390 30.0000
11.9480 46.0957 30.0000
7.1920 45.8423 30.0000
9.6260 83.7945 30.0000
-4.4660 32.1842 30.0000
2.9817 21.1394 30.0000
10.9934 7.8185 30.0000
-7.3632 43.8915 30.0000
-10.4628 24.0905 30.0000
3.6243 61.8701 30.0000
-12.7291 34.0637 30.0000
-11.6253 64.8185 30.0000
11.1767 67.0649 30.0000
-5.8078 60.9435 30.0000
-5.4024 8.9605 30.0000
-6.3352 -10.2699 30.0000
-9.5675 75.2676 30.0000
7.9831 20.0908 30.0000
6.9649 46.8162 -30.0000
12.9671 14.1471 -30.0000
-13.0340 7.3435 -30.0000
-13.1615 37.2832 -30.0000
-9.7900 49.4552 -30.0000
3.4889 47.6512 -30.0000
-7.5219 73.8252 -30.0000
7.5793 74.0074 -30.0000
10.1207 11.7733 -30.0000
0.9474 -14.4240 -30.0000
6.7342 38.9677 -30.0000
3.9969 40.6190 -30.0000
11.6438 34.1066 -30.0000
3.2811 15.9279 -30.0000
-6.0346 52.2608 -30.0000
-5.9922 60.6715 -30.0000
-11.2510 61.0369 -30.0000
-13.0835 84.6101 -30.0000
-10.6102 73.0779 -30.0000
0.9705 11.2647 -30.0000
-2.2690 10.7917 -30.0000
7.1507 65.2067 -30.0000
-7.6282 68.7234 -30.0000
4.1497 -3.7171 -30.0000
9.4543 -8.3165 -30.0000
-11.1539 35.7448 -30.0000
13.3980 53.2999 -30.0000
-6.3962 74.9512 -30.0000
-3.3519 2.6365 -30.0000
12.1309 33.1591 -30.0000
1.1348 82.5381 -30.0000
-14.0042 55.4577 -30.0000
-2.5076 -4.2037 -30.0000
13.0534 71.7774 -30.0000
0.4478 41.1499 -30.0000
-2.6876 70.3856 -30.0000
13.0783 19.7109 -30.0000
-5.2709 15.6621 -30.0000
-9.1200 50.8578 -30.0000
-11.1349 -2.7802 -30.0000
2.0809 71.1378 -30.0000
-3.8509 71.7758 -30.0000
-13.5982 46.0948 -30.0000
6.7677 49.8400 -30.0000
-5.1080 22.8068 -30.0000
-7.0541 23.3932 -30.0000
-10.2001 3.9691 -30.0000
10.7540 52.4369 -30.0000
-7.3173 -14.1281 -30.0000
-8.9278 2.2098 -30.0000
1.2465 58.9225 -30.0000
12.1504 9.6355 -30.0000
-2.5753 25.1592 -30.0000
5.8154 20.4914 -30.0000
8.3353 51.8333 -30.0000
12.9642 -5.0948 -30.0000
10.3672 16.8136 -30.0000
4.7592 55.0115 -30.0000
-2.2313 12.8887 -30.0000
-6.7947 54.5450 -30.0000
-13.1183 18.5543 -30.0000
10.8087 13.0674 -30.0000
10.9867 9.2381 -30.0000
-4.2427 76.9723 -30.0000
-1.1261 68.6434 -30.0000
14.2634 46.7936 -30.0000
3.5078 -12.1346 -30.0000
-0.9762 -14.1908 -30.0000
12.8794 36.6272 -30.0000
12.5861 -9.3250 -30.0000
-5.6956 -0.2944 -30.0000
-2.5013 5.4422 -30.0000
-9.4873 23.7707 -30.0000
-2.0118 29.7065 -30.0000
-14.7330 62.0339 -30.0000
10.0215 26.8499 -30.0000
-9.8786 -12.0376 -30.0000
0.2570 38.2408 -30.0000
-0.5465 72.7069 -30.0000
-0.2806 52.7741 -30.0000
2.2137 49.1925 -30.0000
-5.6857 84.4568 -30.0000
-5.7110 24.8809 -30.0000
-3.6126 -13.3153 -30.0000
4.7437 47.7900 -30.0000
