ply
format ascii 1.0
element vertex 1024
property float x
property float y
property float z
end_header
50.0000 -1.8707 3.8943
50.0000 8.4876 27.4204
50.0000 -14.5641 -15.9949
50.0000 -3.5538 9.4866
50.0000 14.9791 20.1312
50.0000 -6.9480 10.3697
50.0000 -13.9702 -1.9471
50.0000 8.0549 19.3109
50.0000 -8.9838 -20.2068
50.0000 10.7949 -12.4310
50.0000 -0.2225 -26.2481
50.0000 8.4490 -27.4155
50.0000 -5.7048 -29.1248
50.0000 2.6357 9.3314
50.0000 -11.5380 9.7061
50.0000 -2.3057 15.4362
50.0000 -13.7308 -24.7630
50.0000 -8.0566 10.7029
50.0000 -12.2800 -29.6462
50.0000 -9.1225 -18.4490
50.0000 -5.9202 -11.8209
50.0000 10.2964 -16.4904
50.0000 9.6284 1.8273
50.0000 13.6886 -22.3763
50.0000 -7.9136 -5.4741
50.0000 2.9802 -24.5475
50.0000 6.2050 29.4379
50.0000 -4.0291 2.7663
50.0000 -9.7533 -28.5126
50.0000 5.9655 27.3347
50.0000 8.4603 -3.2807
50.0000 -7.1769 28.3169
50.0000 8.9185 3.7566
50.0000 -8.6754 -29.2031
50.0000 -3.6941 -26.6720
50.0000 -11.9353 -21.2934
50.0000 6.8612 -22.8000
50.0000 11.7862 -0.6094
50.0000 10.3172 14.4833
50.0000 -13.5208 21.0769
50.0000 -5.3133 21.0659
50.0000 5.7778 1.0043
50.0000 14.1806 28.4169
50.0000 6.4282 -17.1431
50.0000 -12.8619 5.4726
50.0000 -5.5271 12.3185
50.0000 -11.9220 27.5727
50.0000 -10.2474 -19.3212
50.0000 13.3370 22.4382
50.0000 12.0533 22.7615
50.0000 -14.3556 15.8008
50.0000 5.1064 25.2380
50.0000 5.8601 -29.3477
50.0000 -2.9883 -29.2194
50.0000 -12.8142 -21.9472
50.0000 13.5854 -16.1205
50.0000 12.0847 -27.9538
50.0000 -4.7239 19.4526
50.0000 -3.2989 -27.1526
50.0000 -4.5819 -9.5049
50.0000 -10.6974 -20.5502
50.0000 -5.1802 27.4757
50.0000 8.3775 11.0744
50.0000 -11.2670 9.1575
50.0000 -6.5989 -25.2994
50.0000 12.9165 -1.8460
50.0000 3.2178 -22.6114
50.0000 -12.9370 16.2531
50.0000 7.8887 11.5187
50.0000 3.9916 22.4725
50.0000 -7.2573 -26.2273
50.0000 -7.5924 -0.5069
50.0000 -10.0818 20.8535
50.0000 -0.5768 29.6133
50.0000 11.7894 -2.4258
50.0000 -4.4212 -8.4453
50.0000 -1.7539 0.7438
50.0000 -9.2192 -9.4761
50.0000 13.3388 12.3138
50.0000 -7.0486 -0.4152
50.0000 5.3026 14.9455
50.0000 0.6442 -27.3729
50.0000 -6.8969 28.2032
50.0000 5.0429 -19.3376
50.0000 -4.5372 4.4838
50.0000 -1.3973 5.2994
-50.0000 -3.9979 16.5536
-50.0000 11.8137 25.1795
-50.0000 -6.6908 -7.2760
-50.0000 -4.9748 24.5590
-50.0000 13.1212 23.8341
-50.0000 6.1244 24.8683
-50.0000 -9.4924 20.6242
-50.0000 5.0251 2.9016
-50.0000 -13.8611 -11.0999
-50.0000 14.1323 20.5015
-50.0000 3.4604 -1.9195
-50.0000 6.9492 26.7947
-50.0000 14.3257 28.4731
-50.0000 -4.8848 22.1168
-50.0000 9.4890 15.2894
-50.0000 3.8839 22.9671
-50.0000 13.8583 -24.6276
-50.0000 13.7350 2.6563
-50.0000 -9.2804 29.6254
-50.0000 -14.0068 -7.1161
-50.0000 9.1501 0.5780
-50.0000 -10.0516 29.8197
-50.0000 6.2468 20.9397
-50.0000 -10.1243 3.8459
-50.0000 0.0214 -9.5528
-50.0000 1.4984 7.1352
-50.0000 13.3322 -24.9184
-50.0000 4.8299 29.8233
-50.0000 13.6674 11.8477
-50.0000 -12.7412 23.3715
-50.0000 0.8118 7.0177
-50.0000 0.6161 -15.4619
-50.0000 -1.6548 -1.1807
-50.0000 -11.0445 -1.9009
-50.0000 0.7002 -21.8031
-50.0000 -8.7686 1.8491
-50.0000 12.1335 14.9579
-50.0000 -11.9646 27.8692
-50.0000 -7.8822 3.3299
-50.0000 13.9044 -17.0867
-50.0000 14.7873 -1.7763
-50.0000 3.8188 -15.1070
-50.0000 -12.0421 -2.2022
-50.0000 -2.3625 -11.4506
-50.0000 -0.7653 2.5222
-50.0000 -12.4213 -21.1219
-50.0000 -1.5491 28.3618
-50.0000 -7.6724 19.6420
-50.0000 -10.2958 8.9338
-50.0000 9.3954 24.2691
-50.0000 5.5025 -8.1423
-50.0000 -10.4114 -1.4249
-50.0000 -4.3342 -29.1516
-50.0000 13.6187 -8.4396
-50.0000 8.1611 14.5141
-50.0000 3.8129 21.0739
-50.0000 -6.3249 3.5046
-50.0000 -7.5492 -2.3609
-50.0000 8.8235 -24.8043
-50.0000 -11.6573 -13.1562
-50.0000 -1.4104 5.7619
-50.0000 -3.5819 -0.2588
-50.0000 6.0986 -28.8027
-50.0000 6.0358 -13.8896
-50.0000 0.3791 -24.8255
-50.0000 -5.5832 10.6247
-50.0000 0.8560 11.0067
-50.0000 -12.1879 20.1245
-50.0000 -0.9256 16.8687
-50.0000 8.7105 5.2606
-50.0000 -11.3979 2.9220
-50.0000 14.7945 -18.2389
-50.0000 12.6473 -23.0805
-50.0000 -11.4545 25.0887
-50.0000 13.6327 -28.0167
-50.0000 -1.8009 -0.1960
-50.0000 14.9745 -17.4518
-50.0000 6.0612 -24.1562
-50.0000 -12.8246 12.9608
-50.0000 -2.0525 -23.6492
-50.0000 2.1156 27.8218
-50.0000 0.1356 -2.3216
-50.0000 12.4593 -14.1634
-50.0000 -14.4068 19.3640
-50.0000 -0.9596 13.1696
-50.0000 -4.1745 -4.9841
18.9045 15.0000 18.8185
-34.9171 15.0000 -18.5195
12.4776 15.0000 -28.5228
27.7246 15.0000 -23.0882
-8.9618 15.0000 -18.9120
-40.1687 15.0000 23.6922
45.3635 15.0000 -7.8379
33.2280 15.0000 -2.2477
25.6873 15.0000 -7.6371
40.8447 15.0000 -11.2443
-34.2828 15.0000 27.6669
-7.8731 15.0000 -29.8641
2.1100 15.0000 1.4954
33.2378 15.0000 -11.1168
7.0332 15.0000 14.4217
-47.3733 15.0000 27.5493
-29.1639 15.0000 -10.0832
26.9114 15.0000 12.9413
43.0018 15.0000 22.3599
-28.3873 15.0000 16.2068
-3.3705 15.0000 23.1547
25.7925 15.0000 4.4105
4.4835 15.0000 -29.0034
32.4748 15.0000 17.3254
14.0746 15.0000 4.6370
-13.0565 15.0000 -2.1705
0.9159 15.0000 24.1689
10.3636 15.0000 -12.5961
36.0513 15.0000 13.6488
-33.0601 15.0000 -29.1455
16.5486 15.0000 -16.0084
-38.0903 15.0000 18.6045
-44.7277 15.0000 -0.4484
3.4621 15.0000 8.4689
41.7389 15.0000 -6.1071
-33.3354 15.0000 -25.0190
14.9202 15.0000 23.5364
48.1951 15.0000 6.0814
-2.4275 15.0000 -19.2195
-6.0069 15.0000 28.0135
14.7754 15.0000 11.8337
41.6446 15.0000 -22.1696
15.8350 15.0000 -29.7391
34.3791 15.0000 -13.2647
27.1391 15.0000 25.1843
-0.2102 15.0000 5.0427
11.4673 15.0000 15.4996
22.2457 15.0000 20.9029
-27.5213 15.0000 -16.6991
8.6843 15.0000 -26.1115
18.4698 15.0000 10.6848
-16.3585 15.0000 -15.6055
-27.8388 15.0000 11.5539
5.6751 15.0000 -17.2683
1.1228 15.0000 0.8051
-26.8564 15.0000 13.5249
45.3733 15.0000 21.0109
-17.7975 15.0000 -4.6649
-10.8844 15.0000 -3.0756
-45.1603 15.0000 -21.4791
-16.4658 15.0000 7.4807
8.1774 15.0000 -6.5050
-31.7884 15.0000 -24.3414
-16.9635 15.0000 -12.6148
24.6366 15.0000 23.6015
-7.2753 15.0000 18.4299
18.9883 15.0000 -17.5125
-23.1485 15.0000 26.5113
-27.3864 15.0000 5.8635
-48.7463 15.0000 9.5129
-8.1935 15.0000 13.0310
-19.5831 15.0000 3.2175
14.5372 15.0000 27.8526
-38.5042 15.0000 -10.1100
-36.5580 15.0000 -0.5644
-15.9856 15.0000 -14.4631
-18.0149 15.0000 16.7107
1.2926 15.0000 -3.6283
0.8228 15.0000 -25.3901
-47.1504 15.0000 19.0872
32.8443 15.0000 -0.9070
5.6014 15.0000 -24.0064
-9.6525 15.0000 0.5095
32.7346 15.0000 19.0049
-1.7118 15.0000 -2.8590
24.0498 -15.0000 -4.1115
-42.6114 -15.0000 26.7131
-32.0155 -15.0000 22.2912
-46.9466 -15.0000 19.5680
8.0178 -15.0000 -29.2440
28.2324 -15.0000 25.7959
-46.1316 -15.0000 -15.1970
34.1359 -15.0000 9.6491
-33.4520 -15.0000 -18.7595
-23.0163 -15.0000 22.9058
25.3298 -15.0000 -28.4636
-15.3081 -15.0000 -16.5321
7.6796 -15.0000 -13.9259
11.8043 -15.0000 -21.9045
34.2597 -15.0000 -22.1958
13.4945 -15.0000 20.1137
14.0513 -15.0000 -10.1174
22.5121 -15.0000 20.1186
-33.8911 -15.0000 -19.1782
18.1652 -15.0000 -26.6649
26.0343 -15.0000 1.6394
32.2918 -15.0000 -24.3881
-33.4475 -15.0000 -18.1664
36.8898 -15.0000 27.1545
27.8180 -15.0000 -19.9805
-22.1289 -15.0000 -24.2590
42.3300 -15.0000 -24.7938
1.8288 -15.0000 20.4888
-11.5186 -15.0000 -1.9984
44.8664 -15.0000 -7.3271
9.4340 -15.0000 20.2247
-33.8989 -15.0000 -19.6696
-12.9574 -15.0000 -25.7981
8.1092 -15.0000 -17.9282
-27.3829 -15.0000 -6.1476
30.5519 -15.0000 -16.4759
-34.1925 -15.0000 -25.9712
-36.6680 -15.0000 -15.2644
-12.1182 -15.0000 3.4815
24.9830 -15.0000 -2.2611
26.1899 -15.0000 -14.2079
-16.6857 -15.0000 4.2211
-8.4133 -15.0000 13.1226
30.0750 -15.0000 -20.9013
38.7190 -15.0000 -19.5234
-38.1741 -15.0000 6.6878
-9.9092 -15.0000 24.1765
-29.9612 -15.0000 18.4202
-26.6937 -15.0000 -28.1844
-41.2514 -15.0000 -17.4329
33.0088 -15.0000 -12.5031
47.8650 -15.0000 18.1952
-8.4917 -15.0000 8.6101
16.0817 -15.0000 4.1778
47.9333 -15.0000 -7.4646
19.2759 -15.0000 -16.9611
24.6084 -15.0000 -5.9332
46.3823 -15.0000 -3.8398
-30.5748 -15.0000 -27.9458
18.6212 -15.0000 -2.4956
-19.6760 -15.0000 -27.7814
12.7245 -15.0000 -19.5253
39.6106 -15.0000 -25.1314
-32.3475 -15.0000 -19.6126
-48.2434 -15.0000 22.9036
43.4917 -15.0000 0.7543
-42.3262 -15.0000 11.0793
31.1881 -15.0000 11.0018
29.5127 -15.0000 15.0682
-28.3500 -15.0000 26.0448
-29.4361 -15.0000 -26.3870
22.9590 -15.0000 -24.1097
44.7065 -15.0000 -5.3770
34.8304 -15.0000 -13.2614
39.5792 -15.0000 -26.2818
14.4667 -15.0000 0.4875
2.2674 -15.0000 -0.0344
7.7024 -15.0000 19.1802
28.3899 -15.0000 -26.5024
-31.6636 -15.0000 18.5689
-23.9053 -15.0000 7.8338
47.4178 -15.0000 -13.1772
47.2174 -15.0000 27.3382
-7.9787 -15.0000 -7.7945
-31.8497 -15.0000 -7.8619
-30.5943 -1.5941 30.0000
12.0517 -0.2418 30.0000
-38.4395 -11.4276 30.0000
-23.8940 10.2712 30.0000
38.8035 10.2706 30.0000
27.5871 -13.0641 30.0000
7.3474 6.3010 30.0000
-4.9455 13.5873 30.0000
-25.0446 6.1665 30.0000
-33.3106 11.2694 30.0000
26.8470 1.3713 30.0000
-30.9544 12.9681 30.0000
-40.0769 -7.0034 30.0000
-40.1776 -12.4491 30.0000
-30.4396 -5.3340 30.0000
-8.1661 -0.9956 30.0000
-9.1444 13.0452 30.0000
-20.3155 -11.9553 30.0000
-7.5718 -5.4658 30.0000
-24.9294 9.8419 30.0000
49.1960 -3.9043 30.0000
36.1903 -6.4782 30.0000
39.4768 8.1605 30.0000
-28.1791 7.8053 30.0000
4.5629 -13.7112 30.0000
-11.1923 -7.9667 30.0000
4.2068 7.6085 30.0000
34.0185 -5.2085 30.0000
12.9807 -1.6168 30.0000
0.0786 -10.6902 30.0000
-24.3114 -1.2877 30.0000
-44.0309 -9.7167 30.0000
-7.1134 3.8951 30.0000
-24.3072 1.4644 30.0000
-9.3148 0.2164 30.0000
-48.4385 4.0583 30.0000
-36.3818 13.3311 30.0000
11.1756 -8.5897 30.0000
-10.1391 8.1516 30.0000
-20.1535 -0.1175 30.0000
-14.7796 -5.3195 30.0000
40.9325 -14.0683 30.0000
-44.4917 -14.5983 30.0000
23.8681 7.9845 30.0000
-28.8835 -11.6578 30.0000
-4.9538 -14.3891 30.0000
40.2505 12.9734 30.0000
-41.7784 -14.4513 30.0000
-8.1030 -7.3169 30.0000
-23.4403 1.8482 30.0000
-41.4869 6.1632 30.0000
-19.7970 8.5505 30.0000
-30.1159 -13.4845 30.0000
8.7302 -11.4524 30.0000
19.2900 5.9786 30.0000
33.7997 -8.0044 30.0000
-44.1406 -10.8280 30.0000
-28.9309 4.0699 30.0000
16.6072 -1.8468 30.0000
24.4027 0.1652 30.0000
-35.9882 7.3802 30.0000
33.9371 -2.8065 30.0000
-22.1818 -0.5999 30.0000
29.2470 -7.2322 30.0000
-32.2734 9.7681 30.0000
-37.3980 4.8874 30.0000
-45.3888 4.9497 30.0000
-40.9999 -0.8389 30.0000
28.7966 -4.1314 30.0000
-30.8588 -4.7211 30.0000
-46.0257 1.6555 30.0000
-8.4166 -13.8264 30.0000
-12.4309 3.4718 30.0000
44.4799 11.0847 30.0000
13.8252 -3.1685 30.0000
-43.4289 -5.2852 30.0000
40.8225 13.2454 30.0000
-3.8097 -7.8080 30.0000
-10.4745 12.7467 30.0000
13.6573 -9.2249 30.0000
32.7876 2.4403 30.0000
47.7365 14.8403 30.0000
8.0758 1.0751 30.0000
6.0111 -11.7912 30.0000
-10.9439 14.1532 30.0000
-26.3272 13.6717 -30.0000
1.7108 2.1584 -30.0000
-18.1972 -14.5127 -30.0000
30.5181 14.5286 -30.0000
6.0053 -1.3746 -30.0000
20.5514 -11.8794 -30.0000
4.2654 14.8471 -30.0000
0.4048 4.8928 -30.0000
-7.5241 14.7359 -30.0000
42.7347 3.7611 -30.0000
-7.5976 -12.8396 -30.0000
11.7244 -13.0226 -30.0000
-39.3423 6.4265 -30.0000
-36.4171 -9.5314 -30.0000
36.1706 5.9766 -30.0000
12.7060 -4.5789 -30.0000
-35.9801 7.7716 -30.0000
17.0746 1.9730 -30.0000
39.6422 -2.6070 -30.0000
3.7372 -13.4535 -30.0000
41.5481 1.2253 -30.0000
32.9112 0.0080 -30.0000
-25.7426 -6.9714 -30.0000
-33.8375 -6.0888 -30.0000
-25.7515 -1.1856 -30.0000
-29.9231 -1.8320 -30.0000
-34.6324 -8.9841 -30.0000
9.4157 12.0993 -30.0000
-1.5822 1.7648 -30.0000
-21.5363 -13.5275 -30.0000
40.4509 -0.5696 -30.0000
-9.2275 9.2707 -30.0000
11.3386 1.3272 -30.0000
1.4464 11.8679 -30.0000
37.0323 -13.4035 -30.0000
7.9967 10.6768 -30.0000
27.1612 10.4628 -30.0000
-15.9478 5.1847 -30.0000
14.3006 -1.4528 -30.0000
-39.5537 -14.1817 -30.0000
36.8965 -2.9505 -30.0000
-34.3587 -0.8019 -30.0000
-30.3640 -12.4524 -30.0000
6.9606 1.7645 -30.0000
-48.2538 -7.6320 -30.0000
48.1435 -12.1457 -30.0000
8.2369 -12.7386 -30.0000
-13.9752 -12.3754 -30.0000
-45.1112 12.6440 -30.0000
-12.1695 12.9774 -30.0000
26.8952 -3.8111 -30.0000
46.5917 4.6835 -30.0000
-23.0388 2.3095 -30.0000
-38.3266 6.5606 -30.0000
0.9524 9.5065 -30.0000
-9.5006 -0.6721 -30.0000
6.7915 12.4819 -30.0000
-19.3111 -1.0119 -30.0000
-27.4499 -2.9995 -30.0000
-19.4148 -8.2591 -30.0000
-46.8371 -4.8535 -30.0000
-13.4042 -8.7918 -30.0000
-25.8804 -14.3738 -30.0000
-3.6577 13.1583 -30.0000
18.4508 12.3115 -30.0000
-9.4071 0.9695 -30.0000
3.7503 7.7954 -30.0000
25.0830 6.2133 -30.0000
26.8234 -8.7048 -30.0000
19.2998 14.2278 -30.0000
-7.8895 -1.5920 -30.0000
17.9433 -0.7947 -30.0000
-49.7341 -12.4692 -30.0000
-10.5595 -7.6412 -30.0000
4.4390 -8.9708 -30.0000
-47.0247 -5.9790 -30.0000
35.1642 -7.1127 -30.0000
-6.6190 13.4748 -30.0000
6.4950 9.7924 -30.0000
-38.1962 5.0889 -30.0000
19.8696 -0.9011 -30.0000
7.2277 6.6992 -30.0000
43.3170 -13.9726 -30.0000
-21.8300 -11.3660 -30.0000
41.3135 -4.5620 -30.0000
15.0000 39.3900 19.8108
15.0000 27.3360 23.0524
15.0000 18.0647 -14.4507
15.0000 1.5787 15.2833
15.0000 13.3721 -2.6775
15.0000 2.0920 29.4175
15.0000 -0.6995 -21.1833
15.0000 64.9865 -24.8828
15.0000 15.6850 10.5974
15.0000 61.8414 1.4804
15.0000 11.0832 -6.8561
15.0000 40.8821 -12.4991
15.0000 52.1322 -28.3557
15.0000 61.2417 -24.2929
15.0000 17.1691 -20.1508
15.0000 58.5839 15.6068
15.0000 -7.0215 4.4144
15.0000 59.2189 -5.6136
15.0000 28.5520 10.4173
15.0000 54.9491 13.6720
15.0000 42.7369 -7.6290
15.0000 79.5647 -3.5721
15.0000 78.2891 -24.7755
15.0000 17.8836 22.6590
15.0000 27.0208 -2.1295
15.0000 -3.6280 -13.2142
15.0000 42.4670 -1.8636
15.0000 19.4879 21.3130
15.0000 83.1194 -28.1636
15.0000 -5.4453 -16.2076
15.0000 45.6250 9.1729
15.0000 47.0050 22.8955
15.0000 17.1987 23.3038
15.0000 20.4998 -2.0421
15.0000 55.7900 7.5668
15.0000 44.6262 19.8615
15.0000 -12.8654 7.0211
15.0000 21.1994 -6.2255
15.0000 46.9469 -23.6626
15.0000 41.7113 -18.6991
15.0000 30.1937 12.2078
15.0000 65.1698 13.5650
15.0000 11.1850 -18.1567
15.0000 9.5144 -23.1660
15.0000 12.4315 -28.9637
15.0000 7.9732 -9.3093
15.0000 34.0474 18.0183
15.0000 5.2308 -17.1661
15.0000 -3.8822 -15.0208
15.0000 11.6717 12.1206
15.0000 51.4498 8.4409
15.0000 28.2199 0.7741
15.0000 42.4911 -0.8955
15.0000 66.4411 10.4300
15.0000 -14.9773 9.5379
15.0000 -5.5085 -15.1723
15.0000 77.9772 -4.0572
15.0000 27.5643 -1.5580
15.0000 80.1212 -11.9633
15.0000 2.0129 -24.9332
15.0000 -9.1767 7.8550
15.0000 -11.5235 24.0796
15.0000 2.9342 15.3721
15.0000 67.1204 21.9850
15.0000 84.2408 -21.0575
15.0000 54.3226 1.6469
15.0000 24.6992 14.1594
15.0000 62.8584 -9.2501
15.0000 52.0745 -7.9539
15.0000 33.1743 2.8531
15.0000 25.9867 29.6849
15.0000 46.2933 -20.9588
15.0000 65.4524 -24.6230
15.0000 11.9269 25.1151
15.0000 -8.3518 -24.7371
15.0000 5.1693 -26.5881
15.0000 67.4078 6.8679
15.0000 58.6834 26.0349
15.0000 17.7818 -29.9392
15.0000 37.0941 8.4220
15.0000 30.2853 -25.7276
15.0000 -9.1799 -21.1865
15.0000 14.8573 12.5668
15.0000 23.9558 -24.1707
15.0000 -4.2074 -11.7104
15.0000 -14.9049 18.8846
-15.0000 35.6314 21.6121
-15.0000 11.7551 -12.2003
-15.0000 52.1296 -14.9276
-15.0000 21.9779 -21.0236
-15.0000 67.4879 14.7110
-15.0000 46.2815 16.3969
-15.0000 25.7740 -11.7565
-15.0000 80.7416 18.2806
-15.0000 32.0599 11.9084
-15.0000 23.7988 21.6662
-15.0000 50.5761 -3.8113
-15.0000 20.3666 29.5066
-15.0000 -8.5350 11.6120
-15.0000 83.9056 10.6436
-15.0000 48.7616 12.8766
-15.0000 46.6863 2.8230
-15.0000 -8.2513 -9.0993
-15.0000 79.2288 -13.3861
-15.0000 -3.6505 -8.7334
-15.0000 39.0531 13.1209
-15.0000 66.4824 -29.8446
-15.0000 44.3791 3.8174
-15.0000 62.8070 -28.6104
-15.0000 8.3279 -7.0520
-15.0000 18.1785 -8.1172
-15.0000 82.6154 -8.2466
-15.0000 84.8843 -17.7917
-15.0000 10.4573 17.1868
-15.0000 21.8449 -26.2292
-15.0000 25.7578 5.4437
-15.0000 33.4776 17.5848
-15.0000 38.7419 18.9477
-15.0000 66.6798 6.2632
-15.0000 45.3597 28.9744
-15.0000 51.4313 -8.2982
-15.0000 16.4396 -20.1810
-15.0000 25.3969 0.4268
-15.0000 51.6813 22.2774
-15.0000 77.5152 -23.3788
-15.0000 80.1739 18.7040
-15.0000 24.9971 4.0962
-15.0000 48.3575 -12.5535
-15.0000 -9.4361 26.5785
-15.0000 35.8896 -27.3513
-15.0000 17.0201 5.5085
-15.0000 52.6490 -26.0979
-15.0000 36.3923 20.1761
-15.0000 27.8572 -4.0262
-15.0000 79.3314 18.3520
-15.0000 0.9864 -21.7308
-15.0000 58.9751 25.7758
-15.0000 19.4394 -19.0396
-15.0000 73.5583 9.1978
-15.0000 19.1957 10.7137
-15.0000 37.6460 15.2971
-15.0000 72.2398 3.6425
-15.0000 2.7576 -12.5726
-15.0000 35.4070 14.4059
-15.0000 44.0427 -27.5823
-15.0000 32.0243 -4.2092
-15.0000 73.1648 2.7709
-15.0000 56.3376 5.5380
-15.0000 25.8804 23.1717
-15.0000 20.8430 -25.2115
-15.0000 35.9332 -8.6467
-15.0000 62.6594 11.6902
-15.0000 11.2791 21.2170
-15.0000 29.7499 14.2136
-15.0000 66.1268 14.3244
-15.0000 58.8512 6.5627
-15.0000 42.3704 21.2431
-15.0000 32.6033 -19.3834
-15.0000 67.9089 -8.9061
-15.0000 -11.9677 6.2654
-15.0000 25.7622 26.4340
-15.0000 15.5518 -27.3932
-15.0000 83.4319 22.9327
-15.0000 44.0122 -5.9172
-15.0000 59.9475 24.0200
-15.0000 20.6887 12.1789
-15.0000 69.0064 -3.1525
-15.0000 81.9080 -1.1494
-15.0000 28.3571 8.4488
-15.0000 12.7810 8.5825
-15.0000 17.1917 24.2879
-15.0000 54.1800 -25.0939
-12.0134 85.0000 27.3924
-0.0290 85.0000 10.1939
4.0569 85.0000 -0.9569
-5.9219 85.0000 21.0067
14.2949 85.0000 5.0495
-2.1078 85.0000 -8.5595
-14.7517 85.0000 -27.4917
-1.6357 85.0000 -18.4823
-13.4041 85.0000 -20.9941
-13.7272 85.0000 20.9707
0.6338 85.0000 -27.2202
-6.6076 85.0000 -23.9475
2.5133 85.0000 -16.6426
14.7887 85.0000 -15.6457
13.7521 85.0000 14.7557
0.5631 85.0000 2.9917
4.4158 85.0000 -25.1742
-12.9341 85.0000 -16.6895
-8.3180 85.0000 19.7339
9.6970 85.0000 25.6434
-5.5416 85.0000 2.5067
-0.8295 85.0000 -18.1706
-6.8244 85.0000 29.8183
1.1442 85.0000 28.6153
11.0041 85.0000 9.9616
-5.0777 85.0000 -15.0309
1.0670 85.0000 -14.3901
12.1039 85.0000 -10.5266
4.5255 85.0000 -27.3138
-13.4807 85.0000 4.9802
4.0699 85.0000 2.4924
-9.5115 85.0000 -8.9685
14.3038 85.0000 28.0914
4.1961 85.0000 25.6647
8.8686 85.0000 26.8291
12.1128 85.0000 18.2558
-8.3152 85.0000 -14.0142
-10.8902 85.0000 -11.6354
3.3561 85.0000 -7.3589
-1.0675 85.0000 5.0399
6.0784 85.0000 -18.0794
-6.7042 85.0000 -25.6933
9.7595 85.0000 -0.3949
13.2724 85.0000 17.2154
-11.6470 85.0000 -1.1477
-2.6549 85.0000 -2.3319
12.7255 85.0000 0.5872
-13.1402 85.0000 -9.3121
10.5812 85.0000 12.1747
-14.3133 85.0000 0.9882
-11.9969 85.0000 -8.8638
-6.6619 85.0000 27.4198
-3.8658 85.0000 26.8625
-1.4731 85.0000 16.4542
4.0944 85.0000 14.5265
-10.8721 85.0000 -28.9025
-8.6801 85.0000 9.2118
-6.8873 85.0000 24.9769
8.1628 85.0000 4.0146
-12.6137 85.0000 -27.2403
-9.9467 85.0000 -14.5917
-9.0163 85.0000 -29.0476
-13.7241 85.0000 9.9122
12.9603 85.0000 24.9900
5.7252 85.0000 19.4331
-11.8530 85.0000 -26.1219
7.4348 85.0000 -5.3905
1.0471 85.0000 -8.1039
9.3390 85.0000 25.0481
-3.9606 85.0000 2.8208
-7.1051 85.0000 8.0690
-10.0372 85.0000 -1.3981
-9.8453 85.0000 29.8696
-14.3618 85.0000 6.9293
-11.7496 85.0000 -1.8966
12.7655 85.0000 8.4765
4.2739 85.0000 2.1287
4.3376 85.0000 1.5158
-14.6321 85.0000 -22.6311
-14.3362 85.0000 27.4955
-12.8648 85.0000 15.2491
-1.9715 85.0000 -19.7549
-0.6138 85.0000 0.9840
12.7141 85.0000 -7.4142
-8.2803 85.0000 1.5228
-13.9702 -15.0000 14.8233
10.6807 -15.0000 7.7727
13.2576 -15.0000 -12.4016
1.6312 -15.0000 -0.1610
-1.7489 -15.0000 0.8405
-11.3283 -15.0000 -28.4071
7.0842 -15.0000 -1.2171
1.5656 -15.0000 9.4245
14.8711 -15.0000 -16.0796
-2.7152 -15.0000 -2.5571
6.4208 -15.0000 -22.1124
-5.2794 -15.0000 6.9455
14.7033 -15.0000 -16.6609
10.0732 -15.0000 2.2187
-3.0301 -15.0000 -19.9648
-11.2801 -15.0000 3.4221
2.9024 -15.0000 -15.0750
8.1476 -15.0000 28.6476
9.4562 -15.0000 13.0376
8.8293 -15.0000 -27.6087
0.1462 -15.0000 -6.2262
-4.5603 -15.0000 25.1855
14.0349 -15.0000 9.9168
-13.1993 -15.0000 -20.0283
-6.5358 -15.0000 -19.0765
-1.5910 -15.0000 18.2004
7.3906 -15.0000 23.6643
6.4156 -15.0000 -7.8923
-9.0526 -15.0000 17.6126
10.6836 -15.0000 -7.4089
-4.7117 -15.0000 16.2255
5.4866 -15.0000 26.3888
-0.2405 -15.0000 5.2328
7.1559 -15.0000 7.7448
4.7504 -15.0000 -29.6998
-9.9265 -15.0000 -0.0200
3.4049 -15.0000 17.3308
-1.6612 -15.0000 -2.6125
2.3199 -15.0000 -28.1270
-4.9136 -15.0000 4.7562
-12.5270 -15.0000 17.2817
-8.6050 -15.0000 -8.6790
-0.1927 -15.0000 -26.1644
-6.9573 -15.0000 16.6868
3.5980 -15.0000 -15.1773
1.8397 -15.0000 -7.9027
-5.5308 -15.0000 18.9606
-5.7782 -15.0000 -22.6615
-14.3510 -15.0000 24.6150
0.9152 -15.0000 29.4214
8.7761 -15.0000 -17.0036
12.0209 -15.0000 16.7596
7.1113 -15.0000 -19.8795
-10.6028 -15.0000 -29.6592
1.5535 -15.0000 19.8947
-8.5364 -15.0000 -22.7541
-9.9990 -15.0000 -20.3718
14.8923 -15.0000 26.4541
-8.3446 -15.0000 -4.6200
0.9628 -15.0000 3.1029
11.3910 -15.0000 -22.0542
8.9977 -15.0000 -20.2709
7.7769 -15.0000 -3.7290
3.4174 -15.0000 5.7480
9.9062 -15.0000 12.1230
12.9470 -15.0000 4.9084
2.7159 -15.0000 -22.2775
11.3964 -15.0000 22.2664
-5.7801 -15.0000 20.0636
13.2609 -15.0000 -20.0185
11.8939 -15.0000 16.1292
-1.9167 -15.0000 -28.4728
12.6663 -15.0000 -5.6063
12.6582 -15.0000 -15.1280
-1.8247 -15.0000 22.9809
-5.4282 -15.0000 -21.7575
-5.5366 -15.0000 -19.9496
4.6015 -15.0000 -29.9261
7.9205 -15.0000 -10.4441
7.5550 -15.0000 -29.6182
-8.5420 -15.0000 2.0299
10.8270 -15.0000 12.6734
-2.3113 -15.0000 -19.6224
-8.4954 -15.0000 -9.9458
0.0276 -15.0000 -10.9612
-7.8712 65.6710 30.0000
2.6970 48.1270 30.0000
6.4622 59.6492 30.0000
2.2266 27.4575 30.0000
12.2811 11.5074 30.0000
-4.3098 -11.0748 30.0000
-1.7390 -8.1492 30.0000
-11.0534 57.5801 30.0000
-2.3967 31.2008 30.0000
12.3510 25.9386 30.0000
-10.2883 76.0140 30.0000
9.8796 6.0351 30.0000
11.8746 32.2459 30.0000
11.8830 60.4219 30.0000
10.7190 47.9543 30.0000
-13.0906 47.3044 30.0000
-1.5282 50.8723 30.0000
10.2676 60.9520 30.0000
-0.9709 11.2319 30.0000
-14.3109 41.4156 30.0000
-14.6253 18.3482 30.0000
-11.2135 66.1181 30.0000
8.9720 48.6992 30.0000
8.4469 -13.8650 30.0000
12.4862 15.1646 30.0000
-9.2724 38.3539 30.0000
-9.2153 46.2682 30.0000
7.1157 26.6476 30.0000
3.0531 -6.8926 30.0000
9.9990 76.7824 30.0000
-0.8357 72.2210 30.0000
-5.8957 79.6237 30.0000
-9.0922 25.9219 30.0000
-9.7446 84.7810 30.0000
7.7643 36.8107 30.0000
-9.7819 45.0612 30.0000
-9.8108 26.6325 30.0000
0.9401 10.9933 30.0000
2.7624 8.9714 30.0000
2.8482 39.1338 30.0000
-9.2088 83.4224 30.0000
6.7353 -11.0900 30.0000
3.6849 17.1893 30.0000
2.8532 14.3468 30.0000
-11.2662 54.9619 30.0000
-6.0782 15.5881 30.0000
10.6611 49.2241 30.0000
-4.7392 -4.7133 30.0000
5.6507 56.4625 30.0000
-14.5722 84.8618 30.0000
-11.6855 68.6709 30.0000
-6.0823 52.7309 30.0000
-5.1391 10.8874 30.0000
11.3466 32.1407 30.0000
-13.8353 57.3680 30.0000
-14.6371 34.7060 30.0000
3.0589 59.0439 30.0000
1.0007 66.5463 30.0000
-5.6015 3.9284 30.0000
2.0462 73.1076 30.0000
8.1474 51.5240 30.0000
-7.4314 2.1183 30.0000
-7.9844 -11.1781 30.0000
12.0529 33.0475 30.0000
-13.0781 61.4299 30.0000
-6.1244 54.5834 30.0000
11.0248 -10.7153 30.0000
11.7862 75.6840 30.0000
-4.9018 -5.6815 30.0000
-13.0002 50.1759 30.0000
0.3797 33.2521 30.0000
-6.2937 39.2360 30.0000
9.7410 44.4694 30.0000
-5.0336 25.0284 30.0000
6.2119 75.7957 30.0000
-5.1019 23.3128 30.0000
1.1716 61.8120 30.0000
0.1055 25.8507 30.0000
8.8853 62.8250 30.0000
-5.1184 36.2670 30.0000
0.5173 77.4501 30.0000
-3.2175 71.9407 30.0000
-11.9619 82.9769 30.0000
-8.1283 11.0758 30.0000
3.0823 35.6961 30.0000
0.3438 -2.8464 -30.0000
0.0250 -0.9932 -30.0000
-14.9378 20.5668 -30.0000
0.7333 15.3004 -30.0000
-11.1704 62.6994 -30.0000
5.2135 19.8839 -30.0000
-13.5854 17.3898 -30.0000
9.5336 42.7098 -30.0000
-6.6424 68.3380 -30.0000
-3.8734 47.6189 -30.0000
-14.2908 77.6865 -30.0000
-10.2509 20.5286 -30.0000
-9.9253 15.2392 -30.0000
9.7838 35.5622 -30.0000
14.2795 10.6964 -30.0000
0.2489 52.7770 -30.0000
6.5839 -6.7661 -30.0000
-10.4818 61.8854 -30.0000
-8.1765 12.6671 -30.0000
-2.7801 67.6196 -30.0000
7.1735 47.9241 -30.0000
-6.6869 2.2491 -30.0000
-2.0910 68.7535 -30.0000
13.0504 9.2481 -30.0000
13.3960 77.4193 -30.0000
-6.0072 79.8380 -30.0000
-0.4060 68.7271 -30.0000
4.3874 7.4356 -30.0000
2.8584 27.9897 -30.0000
13.4499 6.9904 -30.0000
-0.1821 34.1757 -30.0000
6.8034 56.9416 -30.0000
-7.1314 -12.0932 -30.0000
9.8994 1.7254 -30.0000
-0.3048 63.2844 -30.0000
-10.0137 51.7951 -30.0000
-5.2952 80.1027 -30.0000
6.2915 57.5105 -30.0000
9.9820 26.1693 -30.0000
11.3892 65.3607 -30.0000
3.6555 58.7766 -30.0000
3.2125 6.1743 -30.0000
-14.4574 10.0641 -30.0000
-4.4005 24.8791 -30.0000
7.1638 10.0933 -30.0000
-4.5594 14.8848 -30.0000
9.0261 -14.2143 -30.0000
-8.3403 9.8772 -30.0000
10.8021 73.6755 -30.0000
-4.7440 -6.3398 -30.0000
1.1594 76.3269 -30.0000
-12.6818 12.3807 -30.0000
4.2976 -14.7345 -30.0000
-4.6350 66.9373 -30.0000
0.7312 77.4651 -30.0000
-0.9627 71.3533 -30.0000
-14.3743 5.7269 -30.0000
12.6395 61.8307 -30.0000
3.0990 -6.9382 -30.0000
3.8651 0.9852 -30.0000
6.3806 -6.9542 -30.0000
-7.7106 43.0353 -30.0000
2.0207 55.9220 -30.0000
6.2880 68.5610 -30.0000
-8.5113 25.8087 -30.0000
8.6194 45.0022 -30.0000
11.6350 55.0212 -30.0000
4.7729 70.2801 -30.0000
-4.4413 23.7023 -30.0000
-3.9339 12.3799 -30.0000
2.3487 68.3927 -30.0000
-5.0673 26.3529 -30.0000
-9.5265 7.3581 -30.0000
-1.1824 31.7829 -30.0000
5.5290 40.9367 -30.0000
1.1368 10.4962 -30.0000
10.8263 44.7166 -30.0000
-4.9783 10.2486 -30.0000
-11.8992 20.9466 -30.0000
-11.9364 44.8525 -30.0000
1.1531 68.8938 -30.0000
12.1802 70.3075 -30.0000
-6.2017 72.5346 -30.0000
-3.4766 46.8601 -30.0000
10.0927 9.1097 -30.0000
