ply
format ascii 1.0
element vertex 1024
property float x
property float y
property float z
end_header
50.0000 -5.8303 5.1677
50.0000 -3.9915 9.2238
50.0000 8.8403 -6.9677
50.0000 -14.4227 -4.2917
50.0000 1.4553 8.3774
50.0000 13.3247 20.2803
50.0000 -6.3287 -25.9639
50.0000 8.0944 28.1358
50.0000 -10.1109 17.5582
50.0000 12.4929 18.6254
50.0000 11.2889 19.4653
50.0000 -3.5943 23.0856
50.0000 3.7528 28.9770
50.0000 13.5990 12.5186
50.0000 -5.3902 18.6308
50.0000 -2.3554 -8.6864
50.0000 9.8190 -27.8969
50.0000 -11.3905 7.4803
50.0000 -14.0102 -6.3012
50.0000 -1.8745 3.0871
50.0000 6.2957 -25.3346
50.0000 0.6782 -16.4077
50.0000 5.7125 10.2980
50.0000 13.5588 -7.9001
50.0000 -12.0567 14.1013
50.0000 -4.3669 23.4102
50.0000 9.4766 3.4713
50.0000 -8.5558 -22.2827
50.0000 14.4910 27.1041
50.0000 4.8856 14.4525
50.0000 -11.9270 -0.6122
50.0000 7.3285 13.2704
50.0000 5.8194 -9.4750
50.0000 4.3153 25.3724
50.0000 -9.3185 -4.9860
50.0000 -10.8714 24.9104
50.0000 4.2406 2.4999
50.0000 -2.4793 -22.3472
50.0000 -6.3844 -17.3050
50.0000 12.9259 -4.7661
50.0000 -13.1593 26.4915
50.0000 -7.3599 27.2315
50.0000 -1.7605 9.1333
50.0000 -14.9489 24.3412
50.0000 4.2611 -15.4747
50.0000 -0.8414 -1.7704
50.0000 12.0310 2.3542
50.0000 -10.2124 -9.5139
50.0000 12.6190 -13.6593
50.0000 7.9131 -1.7759
50.0000 4.2179 25.1874
50.0000 1.5517 -29.6651
50.0000 -14.0110 -21.9188
50.0000 0.1079 4.7281
50.0000 12.4449 29.0830
50.0000 -13.0038 21.1081
50.0000 -0.9406 -28.5006
50.0000 3.1697 21.7890
50.0000 2.0999 -4.1750
50.0000 -3.7947 14.2842
50.0000 10.3818 15.4925
50.0000 1.4453 21.8172
50.0000 4.1169 -14.7882
50.0000 0.3004 -1.2162
50.0000 10.4295 -2.7953
50.0000 10.6488 -20.1303
50.0000 -7.3584 -1.0749
50.0000 3.2757 20.0921
50.0000 -1.8378 17.8636
50.0000 12.4391 -26.2824
50.0000 0.9075 10.5634
50.0000 3.8250 -26.1902
50.0000 14.4000 3.9590
50.0000 1.6339 -19.6482
50.0000 -1.1162 11.7488
50.0000 0.8454 0.9505
50.0000 3.4585 -5.4207
50.0000 -7.0801 -14.6739
50.0000 -3.0940 23.0651
50.0000 -2.0729 -10.0134
50.0000 -7.9088 8.9168
50.0000 2.9465 -15.7906
50.0000 -5.2535 -6.0812
50.0000 -6.3392 11.4596
50.0000 1.8595 9.8827
50.0000 5.5576 -24.9149
-50.0000 -13.5208 28.4334
-50.0000 -10.7179 8.0308
-50.0000 -5.9693 0.3750
-50.0000 -13.4274 -20.6305
-50.0000 13.1699 14.9573
-50.0000 -12.7047 8.9074
-50.0000 -2.4425 14.5636
-50.0000 1.8746 -22.1815
-50.0000 3.1058 -28.7928
-50.0000 -1.1321 -14.9701
-50.0000 -0.7804 5.2100
-50.0000 -8.7309 11.9120
-50.0000 -7.1128 17.2347
-50.0000 -10.7368 20.2407
-50.0000 -2.2303 5.6837
-50.0000 4.5380 5.6976
-50.0000 6.7715 24.9359
-50.0000 4.0060 -13.3131
-50.0000 -2.8429 9.5569
-50.0000 3.1005 -19.0880
-50.0000 6.8115 14.1335
-50.0000 -5.5636 6.7537
-50.0000 -9.8597 15.9304
-50.0000 6.0690 -3.4468
-50.0000 10.0120 6.4955
-50.0000 7.7462 -1.0805
-50.0000 -2.7709 5.9232
-50.0000 -8.8933 -15.9958
-50.0000 -12.2808 21.4558
-50.0000 9.7851 -23.1682
-50.0000 -13.8975 1.1326
-50.0000 -10.9270 9.5120
-50.0000 3.2346 24.4024
-50.0000 4.4723 -16.3781
-50.0000 1.2493 9.4099
-50.0000 -13.4802 4.7221
-50.0000 13.7943 -8.6599
-50.0000 13.3897 -6.8320
-50.0000 2.9402 -17.9097
-50.0000 -0.5642 -19.2954
-50.0000 -8.4726 22.7196
-50.0000 -3.7410 19.6789
-50.0000 -5.5011 15.5219
-50.0000 -6.1246 -15.2033
-50.0000 7.2972 -13.2217
-50.0000 0.4601 -24.2499
-50.0000 10.4124 4.4649
-50.0000 -1.0388 -6.7063
-50.0000 -3.4859 16.0554
-50.0000 -9.1804 11.5895
-50.0000 -14.4016 13.0862
-50.0000 2.8534 -5.8199
-50.0000 5.8709 -15.7663
-50.0000 11.0534 20.9622
-50.0000 -8.3412 25.5843
-50.0000 -2.7893 -29.4057
-50.0000 10.2870 16.7754
-50.0000 -6.6928 26.9736
-50.0000 2.4317 -16.0931
-50.0000 -3.5060 -2.4853
-50.0000 5.9884 4.5419
-50.0000 -14.7099 26.6549
-50.0000 10.6648 -10.6009
-50.0000 -14.9620 11.4303
-50.0000 -14.5660 23.8420
-50.0000 -11.6456 -25.1094
-50.0000 0.6813 -8.9487
-50.0000 -2.1229 22.2437
-50.0000 10.4869 -19.4441
-50.0000 4.3232 -25.0964
-50.0000 13.2193 0.7874
-50.0000 0.6942 -25.1352
-50.0000 -13.3750 -26.3672
-50.0000 7.9228 3.9349
-50.0000 3.3088 6.6260
-50.0000 6.7314 -26.9009
-50.0000 -3.7156 5.0950
-50.0000 6.1797 -1.9912
-50.0000 -10.4534 8.7835
-50.0000 1.4684 9.2999
-50.0000 -2.8254 -16.6851
-50.0000 -5.1168 20.8588
-50.0000 -13.0576 21.0364
-50.0000 -14.4841 -23.7824
-50.0000 -0.8364 -1.1100
-50.0000 9.6442 -14.6589
14.1208 15.0000 11.7571
29.9923 15.0000 -12.9556
-8.0146 15.0000 22.2046
32.5093 15.0000 6.6986
-18.5134 15.0000 -2.3157
21.9161 15.0000 -8.4280
1.0955 15.0000 11.1808
28.8788 15.0000 -5.9566
-11.5930 15.0000 17.0460
-40.4457 15.0000 -22.5661
20.8446 15.0000 -18.4407
-6.9715 15.0000 -24.7834
-17.8908 15.0000 -0.0828
-14.9392 15.0000 27.7903
0.2368 15.0000 -1.5630
-25.7473 15.0000 -11.5726
27.2246 15.0000 -15.3491
-26.4593 15.0000 -22.0765
-32.2028 15.0000 -0.0271
-46.2983 15.0000 -8.0367
19.6056 15.0000 -27.1909
2.8690 15.0000 15.2373
-8.1894 15.0000 -20.5088
-5.5274 15.0000 -14.3863
-7.1298 15.0000 -24.0826
-12.1510 15.0000 -10.7033
37.3675 15.0000 7.9056
40.6146 15.0000 -24.1622
17.2376 15.0000 1.3027
-22.3271 15.0000 8.0278
-15.2173 15.0000 -25.5036
29.5846 15.0000 -15.1959
41.1557 15.0000 -20.2031
33.2254 15.0000 20.8307
19.6254 15.0000 -17.6511
-39.6581 15.0000 10.8911
-18.4924 15.0000 -11.9462
32.0837 15.0000 1.1949
-48.2321 15.0000 7.9536
-34.8580 15.0000 -17.0561
3.6185 15.0000 5.0953
36.1917 15.0000 29.0154
-44.0397 15.0000 -5.9745
39.3155 15.0000 -27.5830
-29.8053 15.0000 5.0428
-6.4928 15.0000 25.9617
-29.8063 15.0000 -25.8450
15.6876 15.0000 -19.7103
17.2069 15.0000 -9.4465
-24.0582 15.0000 8.2663
23.7513 15.0000 21.7326
47.6813 15.0000 2.1824
7.9933 15.0000 -12.0214
-30.6725 15.0000 -12.5174
28.4716 15.0000 5.5602
27.4748 15.0000 -26.8759
47.1095 15.0000 2.1054
-27.9157 15.0000 -29.9424
-12.4183 15.0000 22.0295
-43.3608 15.0000 9.3485
33.2221 15.0000 29.5973
-1.0349 15.0000 -12.5039
6.5150 15.0000 -3.3694
-45.3636 15.0000 16.1936
-13.3750 15.0000 27.3215
-31.3236 15.0000 -18.1806
-25.6909 15.0000 4.9225
-31.4062 15.0000 8.1300
-48.1999 15.0000 7.4222
-25.5040 15.0000 -16.3661
-11.6320 15.0000 15.5506
39.0635 15.0000 -13.4289
12.5142 15.0000 -19.2692
33.8287 15.0000 -0.0873
-44.6864 15.0000 -8.6468
-4.8408 15.0000 -29.2124
39.8730 15.0000 9.3798
2.1316 15.0000 -6.0366
-26.0613 15.0000 -0.3381
13.7853 15.0000 -14.6478
-46.2641 15.0000 1.3013
3.7207 15.0000 21.2691
44.3237 15.0000 -5.4331
28.0760 15.0000 -7.0437
-41.5375 15.0000 3.8186
-31.5873 -15.0000 -4.5176
-17.1645 -15.0000 20.8090
-4.6532 -15.0000 3.0062
-43.7514 -15.0000 -29.4191
-14.6373 -15.0000 -21.8922
4.1964 -15.0000 -14.7490
16.0915 -15.0000 13.2763
-34.4848 -15.0000 -28.8156
-18.6651 -15.0000 12.1576
15.3790 -15.0000 22.6945
-11.1216 -15.0000 7.6111
-4.7896 -15.0000 -20.7013
-33.3102 -15.0000 3.5886
27.6430 -15.0000 -6.7768
-12.8657 -15.0000 -28.7835
-44.1661 -15.0000 -22.2799
-31.2088 -15.0000 1.7687
0.4147 -15.0000 14.8740
-17.1837 -15.0000 -18.8568
-44.0910 -15.0000 18.0172
-10.9215 -15.0000 -21.6704
-6.4135 -15.0000 12.3951
0.0067 -15.0000 -5.6464
-39.5880 -15.0000 21.4955
-21.8550 -15.0000 17.0798
-46.5808 -15.0000 -2.0064
-32.5285 -15.0000 -22.8759
-3.4642 -15.0000 -25.9230
12.6819 -15.0000 -16.3780
17.7033 -15.0000 -1.4316
8.2846 -15.0000 9.5310
-15.7858 -15.0000 -13.8345
48.5240 -15.0000 -15.5527
-49.9435 -15.0000 9.2536
-38.8932 -15.0000 -27.4460
32.5170 -15.0000 7.6026
-7.0117 -15.0000 24.9680
-47.2323 -15.0000 -4.9868
-18.2656 -15.0000 -9.0442
-23.2977 -15.0000 -7.9043
46.9952 -15.0000 23.7371
-35.3034 -15.0000 22.0739
-8.7396 -15.0000 -14.9009
-17.8427 -15.0000 5.3417
-34.8134 -15.0000 -12.1660
43.5385 -15.0000 21.2699
38.6382 -15.0000 -21.4452
36.8271 -15.0000 23.2105
-2.1912 -15.0000 9.3298
-24.7820 -15.0000 -18.9426
-20.8868 -15.0000 -15.1840
5.0022 -15.0000 18.7402
30.7909 -15.0000 9.1614
-8.0334 -15.0000 1.4887
-5.3019 -15.0000 -4.1210
42.5362 -15.0000 -0.5973
11.7751 -15.0000 5.9013
24.4848 -15.0000 14.8761
5.9206 -15.0000 11.4633
4.0418 -15.0000 17.5924
-35.6839 -15.0000 -2.7265
49.4628 -15.0000 -15.8460
44.3692 -15.0000 -24.1783
29.9306 -15.0000 -11.0031
7.5593 -15.0000 -9.8048
-11.5062 -15.0000 -27.6625
28.4140 -15.0000 22.9913
-49.8101 -15.0000 13.8173
37.5635 -15.0000 28.7264
-10.1728 -15.0000 20.7216
-22.1150 -15.0000 19.2135
-45.1407 -15.0000 22.7187
2.4936 -15.0000 9.8911
49.5719 -15.0000 22.8092
-18.6801 -15.0000 20.4842
37.7169 -15.0000 7.9051
16.7251 -15.0000 -29.8419
-32.1135 -15.0000 -12.1618
-12.8686 -15.0000 7.5871
4.4899 -15.0000 5.4324
10.3591 -15.0000 -18.2038
-19.0948 -15.0000 26.6933
41.7406 -15.0000 -20.7864
42.2938 -15.0000 -26.1782
34.8807 -15.0000 -6.4940
-39.5371 -5.5519 30.0000
16.8929 -0.4011 30.0000
-24.2614 -1.3800 30.0000
-46.3454 -5.3121 30.0000
-33.4921 -7.2007 30.0000
-6.9997 10.7855 30.0000
30.5471 7.3367 30.0000
-30.6289 11.5443 30.0000
-4.7341 7.7499 30.0000
34.0155 -10.6025 30.0000
-20.6676 13.9882 30.0000
31.7365 -5.7244 30.0000
-8.9582 -2.2268 30.0000
5.3228 -14.1221 30.0000
-39.0985 -7.7061 30.0000
-23.3870 12.7052 30.0000
5.2652 4.2189 30.0000
43.4960 -2.3839 30.0000
6.6603 5.7330 30.0000
-38.5327 3.8237 30.0000
-14.8198 14.0533 30.0000
-44.8470 -1.6712 30.0000
-10.2734 -8.0508 30.0000
2.2621 -1.1916 30.0000
27.7208 9.5471 30.0000
25.6841 4.4363 30.0000
-28.2359 9.9987 30.0000
14.5107 1.5730 30.0000
12.6848 -7.8519 30.0000
-38.4677 6.4921 30.0000
-19.5470 -2.4618 30.0000
17.9906 14.4619 30.0000
42.4101 7.8867 30.0000
34.4037 7.8282 30.0000
37.0763 9.2527 30.0000
15.3748 4.5896 30.0000
-41.6755 11.3451 30.0000
-12.4851 -1.6650 30.0000
47.0328 7.8515 30.0000
43.9807 -9.4959 30.0000
-11.1731 -10.9149 30.0000
7.9258 9.9197 30.0000
-23.2384 0.7410 30.0000
-27.1897 -7.9324 30.0000
21.6805 3.9140 30.0000
-10.7960 0.2707 30.0000
-43.7981 1.2537 30.0000
-22.5451 1.1728 30.0000
42.5332 -12.1813 30.0000
49.6918 -2.0684 30.0000
-10.7444 10.7463 30.0000
6.6753 -5.7578 30.0000
-49.8813 -12.0872 30.0000
16.0147 3.2951 30.0000
-20.0324 8.3594 30.0000
-35.5968 -0.3891 30.0000
26.8071 -3.8610 30.0000
24.7271 8.8693 30.0000
-32.1866 -12.8446 30.0000
41.3630 0.8702 30.0000
-37.3954 -5.6872 30.0000
-25.8592 11.4370 30.0000
-47.3695 -7.1868 30.0000
35.4197 -13.8640 30.0000
-30.9394 7.8579 30.0000
-20.4133 1.4326 30.0000
-22.4715 -7.7424 30.0000
-39.3547 1.8330 30.0000
-40.0683 13.1553 30.0000
-28.8273 -5.7620 30.0000
-36.9530 -13.1953 30.0000
-46.4727 11.0324 30.0000
28.0356 14.0462 30.0000
11.4316 8.6446 30.0000
24.5113 -13.1237 30.0000
-38.8417 4.0179 30.0000
22.7446 9.2071 30.0000
45.2381 -13.7740 30.0000
12.7514 -14.1936 30.0000
-32.7098 -9.1581 30.0000
-9.5961 -12.0994 30.0000
-40.9036 -13.4387 30.0000
-16.2140 13.2912 30.0000
15.8572 0.8467 30.0000
-41.2357 -0.4568 30.0000
-45.3338 -5.6068 -30.0000
32.6577 -2.0560 -30.0000
31.6895 -4.6193 -30.0000
-8.2134 2.4413 -30.0000
-37.2500 9.5363 -30.0000
-3.8933 -7.4691 -30.0000
29.1335 6.6936 -30.0000
-18.3007 11.8063 -30.0000
10.6825 3.4485 -30.0000
35.7240 3.7757 -30.0000
38.0804 -6.8027 -30.0000
-37.7482 -3.5346 -30.0000
10.4400 6.2989 -30.0000
33.6374 13.3563 -30.0000
-0.6812 -9.6304 -30.0000
27.9910 14.6562 -30.0000
-10.2384 3.2839 -30.0000
7.6783 8.5997 -30.0000
29.1908 5.5661 -30.0000
-28.4835 -7.6522 -30.0000
26.3278 -1.7172 -30.0000
-3.0485 8.4524 -30.0000
-17.9829 6.7863 -30.0000
16.7882 -5.5524 -30.0000
-23.5525 5.0621 -30.0000
24.4304 8.4005 -30.0000
-28.2973 -2.3755 -30.0000
-42.9727 0.9663 -30.0000
-47.3160 0.0600 -30.0000
-14.6957 3.0156 -30.0000
35.0651 12.8843 -30.0000
35.3306 -1.5483 -30.0000
-34.6947 4.7384 -30.0000
-44.0397 3.6649 -30.0000
-21.3929 -10.6856 -30.0000
-12.6152 -9.9100 -30.0000
-3.7177 11.1080 -30.0000
-43.7933 12.4724 -30.0000
4.1314 -4.6108 -30.0000
-25.6870 -12.2890 -30.0000
-37.3724 -7.3077 -30.0000
-22.3729 8.2955 -30.0000
44.6843 1.3067 -30.0000
3.0164 -6.6164 -30.0000
-35.3774 1.3642 -30.0000
43.7831 10.1688 -30.0000
33.7090 3.4697 -30.0000
34.5868 3.0193 -30.0000
13.6018 -13.7063 -30.0000
35.7460 -5.9577 -30.0000
-44.0725 -8.1638 -30.0000
36.9647 7.3335 -30.0000
48.2117 -11.7579 -30.0000
-18.2655 13.4494 -30.0000
-42.5600 -10.5763 -30.0000
47.5381 8.3848 -30.0000
-8.7992 -4.6950 -30.0000
47.6552 -8.5515 -30.0000
-48.3421 -9.5849 -30.0000
-48.7872 9.4810 -30.0000
-36.6516 9.8476 -30.0000
45.1588 -6.6107 -30.0000
39.4483 13.5478 -30.0000
-48.1714 -10.3447 -30.0000
6.3844 7.2524 -30.0000
5.0452 -11.0659 -30.0000
-38.3400 5.7286 -30.0000
15.1750 10.8833 -30.0000
-18.7864 6.7743 -30.0000
-19.0438 -7.2490 -30.0000
-12.9495 -1.4325 -30.0000
11.1405 2.8937 -30.0000
29.5577 10.9155 -30.0000
-12.2347 -1.4718 -30.0000
1.6251 12.0575 -30.0000
-31.2972 -4.1014 -30.0000
-39.2078 -5.5393 -30.0000
43.3970 -6.4597 -30.0000
-40.0560 -9.0816 -30.0000
7.8545 -7.3369 -30.0000
-22.0490 0.3804 -30.0000
19.2652 -0.6437 -30.0000
-41.7820 -4.3711 -30.0000
-0.5698 -6.8511 -30.0000
-32.0201 2.1694 -30.0000
15.0000 -13.7668 19.9258
15.0000 81.3175 -4.3389
15.0000 5.4413 25.5959
15.0000 79.6977 11.6527
15.0000 -1.3313 17.7875
15.0000 72.9110 22.7254
15.0000 83.1883 24.2755
15.0000 16.6487 24.3681
15.0000 62.7847 7.4664
15.0000 56.9527 8.6814
15.0000 -4.7296 24.0269
15.0000 56.8821 16.7703
15.0000 80.4748 7.0476
15.0000 42.2973 12.8855
15.0000 25.3919 20.1888
15.0000 -8.4992 27.7890
15.0000 53.2790 5.1079
15.0000 30.5271 29.2880
15.0000 -11.7625 27.5289
15.0000 25.1763 -17.5511
15.0000 26.6973 -24.4589
15.0000 25.0577 27.3580
15.0000 36.0550 -24.1450
15.0000 34.5972 -19.7994
15.0000 48.3987 -9.7806
15.0000 21.6638 28.9467
15.0000 54.4945 -12.1519
15.0000 74.9834 -1.5634
15.0000 26.5446 2.2379
15.0000 36.7978 -20.2695
15.0000 46.5471 29.5722
15.0000 26.4823 -7.4542
15.0000 32.1232 -8.1261
15.0000 54.6633 29.2974
15.0000 14.9788 29.8614
15.0000 -7.6634 -12.3708
15.0000 -3.4671 18.3669
15.0000 -1.8435 -24.9334
15.0000 55.4263 19.2853
15.0000 22.8264 15.3378
15.0000 -6.6694 8.7453
15.0000 -5.7029 -4.7482
15.0000 54.9200 -16.7580
15.0000 41.6073 -1.4888
15.0000 57.9852 29.0700
15.0000 10.0604 1.3923
15.0000 24.6106 29.1098
15.0000 32.5600 -12.8664
15.0000 6.4328 15.3425
15.0000 69.6780 4.8664
15.0000 48.5669 -9.1745
15.0000 78.3505 -6.9198
15.0000 52.2940 -21.5475
15.0000 36.5942 0.9519
15.0000 82.0414 -10.8974
15.0000 26.6726 10.4030
15.0000 8.8838 -18.0678
15.0000 -1.2741 -15.0270
15.0000 -4.2115 -20.8679
15.0000 20.5487 8.3469
15.0000 62.1021 -15.5089
15.0000 59.5352 -0.4637
15.0000 62.4922 -21.1900
15.0000 30.7651 14.6834
15.0000 -0.9123 24.0520
15.0000 73.9648 -22.3114
15.0000 7.5666 -27.8822
15.0000 -13.2163 27.5746
15.0000 -0.5172 22.6093
15.0000 67.5158 -27.7824
15.0000 -2.0501 -25.1362
15.0000 59.7126 5.8340
15.0000 57.8337 16.1657
15.0000 -5.2650 22.2687
15.0000 12.1954 8.3915
15.0000 14.4676 -17.0422
15.0000 75.8183 -4.5163
15.0000 54.7309 -23.0992
15.0000 8.9910 6.1250
15.0000 67.2638 8.4862
15.0000 16.1012 -27.3487
15.0000 79.5401 -8.5104
15.0000 -2.1732 11.7169
15.0000 11.6173 -26.7457
15.0000 68.8030 19.7637
15.0000 26.2547 4.5320
-15.0000 -7.5947 29.9615
-15.0000 8.3861 16.1586
-15.0000 7.8707 -8.4128
-15.0000 76.4647 -20.0372
-15.0000 57.9721 15.3632
-15.0000 74.9989 -11.4548
-15.0000 56.6240 5.8191
-15.0000 10.9954 13.2510
-15.0000 36.8303 -14.2030
-15.0000 -6.2264 18.4141
-15.0000 23.9109 -1.9906
-15.0000 -6.6099 0.1798
-15.0000 39.7203 -21.9852
-15.0000 10.0310 18.2760
-15.0000 73.2171 7.8300
-15.0000 -5.6066 -1.0410
-15.0000 73.7427 -22.6834
-15.0000 -6.1226 -27.2825
-15.0000 -6.1097 -0.8468
-15.0000 36.0309 -21.5589
-15.0000 -3.2325 23.6813
-15.0000 84.6107 5.5139
-15.0000 68.0880 -24.8697
-15.0000 61.8638 -22.2320
-15.0000 83.7400 20.8885
-15.0000 -7.2592 1.1885
-15.0000 5.2688 19.0447
-15.0000 82.4501 29.2300
-15.0000 70.3176 -17.7546
-15.0000 61.0848 -5.0934
-15.0000 4.5520 27.7027
-15.0000 43.4561 1.6347
-15.0000 38.7961 -27.4496
-15.0000 68.9869 17.7344
-15.0000 -6.9663 28.7722
-15.0000 42.4208 -22.0827
-15.0000 53.0411 -27.2362
-15.0000 51.0033 29.6242
-15.0000 36.6954 -25.3908
-15.0000 5.3545 -19.0723
-15.0000 31.7620 -21.5478
-15.0000 -11.1475 -2.9032
-15.0000 2.3203 28.5637
-15.0000 43.2405 26.1808
-15.0000 31.0788 -18.2761
-15.0000 42.1864 -14.1168
-15.0000 73.9154 11.8406
-15.0000 32.6746 4.8897
-15.0000 5.3473 -22.1427
-15.0000 -14.7822 -17.7366
-15.0000 32.3539 23.9400
-15.0000 26.7004 7.0197
-15.0000 36.2603 -8.1950
-15.0000 22.0656 -22.6389
-15.0000 41.2240 28.2398
-15.0000 16.6259 -23.2207
-15.0000 22.1345 12.8385
-15.0000 54.2338 -3.9771
-15.0000 74.2500 17.3519
-15.0000 14.8292 13.6524
-15.0000 41.0423 12.2148
-15.0000 59.2701 16.3532
-15.0000 -1.8258 -8.3568
-15.0000 75.1031 11.0833
-15.0000 15.9294 19.0706
-15.0000 17.6392 -12.6367
-15.0000 12.4591 3.1883
-15.0000 0.3584 -21.3804
-15.0000 -14.2500 -24.4469
-15.0000 74.3026 -14.1624
-15.0000 7.6780 27.3490
-15.0000 6.9949 -20.9534
-15.0000 -0.9178 1.6885
-15.0000 47.4903 -16.1828
-15.0000 70.2665 -9.0967
-15.0000 74.0994 17.0070
-15.0000 25.5521 -10.3555
-15.0000 29.1195 0.3605
-15.0000 28.4151 -7.4838
-15.0000 23.2403 -1.7698
-15.0000 32.4860 -19.9090
-15.0000 31.3326 8.7693
-15.0000 28.8016 -20.4756
-15.0000 18.0514 12.2930
-15.0000 17.8713 8.4104
-15.0000 38.3595 -15.2471
-8.5032 85.0000 -28.7605
12.4909 85.0000 18.6714
14.0601 85.0000 -17.6945
5.4205 85.0000 -20.9459
6.2455 85.0000 -5.4272
-12.3170 85.0000 -1.4605
-8.2392 85.0000 -15.8326
-0.9076 85.0000 22.7186
8.6481 85.0000 -15.8421
13.3552 85.0000 -12.5986
6.5056 85.0000 -27.2995
8.0804 85.0000 4.5843
7.3975 85.0000 2.6031
8.1249 85.0000 23.6646
9.7585 85.0000 16.4377
-13.4238 85.0000 9.7290
-11.6098 85.0000 -14.3954
0.3657 85.0000 -7.9280
10.0152 85.0000 18.3989
-4.2033 85.0000 22.1337
9.2382 85.0000 -16.1663
1.3493 85.0000 -5.1476
-12.5923 85.0000 -7.5681
8.7101 85.0000 -13.4339
11.0427 85.0000 -28.0498
-6.9838 85.0000 10.9189
-11.7898 85.0000 -3.9489
13.0023 85.0000 -13.7446
-7.9796 85.0000 21.3577
-6.2174 85.0000 -4.6482
14.4751 85.0000 23.0311
11.3267 85.0000 -14.2343
0.5840 85.0000 -20.3915
1.9751 85.0000 11.8581
11.7125 85.0000 8.9728
7.5653 85.0000 5.9303
-8.2749 85.0000 -15.5323
9.4530 85.0000 -23.5975
-13.1595 85.0000 21.9228
2.6151 85.0000 -26.4041
-11.6095 85.0000 19.6067
-1.0531 85.0000 9.9105
-9.5070 85.0000 27.8160
-3.7221 85.0000 -16.3115
-6.4881 85.0000 -16.5465
-12.0303 85.0000 20.3383
-7.8981 85.0000 23.0670
8.7975 85.0000 -24.6413
13.7424 85.0000 1.7865
-3.0438 85.0000 -8.6773
10.8028 85.0000 -3.1163
-10.4936 85.0000 -25.1829
12.8123 85.0000 6.1026
4.8849 85.0000 -4.9067
3.5931 85.0000 -4.8615
13.5325 85.0000 23.4997
14.5188 85.0000 -10.5651
-12.9012 85.0000 5.0135
-7.4224 85.0000 8.0995
10.0211 85.0000 -14.3816
-3.3646 85.0000 -9.9825
14.4441 85.0000 -22.3988
-5.1002 85.0000 -11.6903
-14.5498 85.0000 -18.5426
10.8795 85.0000 -21.3858
-8.9419 85.0000 -4.6759
-0.7871 85.0000 27.6651
-4.5880 85.0000 -20.6264
14.7763 85.0000 -10.8987
7.6593 85.0000 29.5118
-5.8914 85.0000 5.9849
11.5221 85.0000 -7.7703
-9.2383 85.0000 -9.9530
8.6086 85.0000 -10.5590
-14.3031 85.0000 -5.8662
-9.4712 85.0000 4.9581
0.3138 85.0000 9.4304
-8.0750 85.0000 -15.1441
4.7530 85.0000 -1.9258
11.2928 85.0000 27.0397
1.5428 85.0000 6.1408
-1.7137 85.0000 -29.2301
-13.5518 85.0000 6.9224
-10.2017 85.0000 12.5969
-2.1866 85.0000 7.5839
-3.2150 -15.0000 14.2175
14.0770 -15.0000 17.9937
2.0145 -15.0000 24.7274
9.3564 -15.0000 -14.2348
-7.0331 -15.0000 -17.4940
-14.1322 -15.0000 24.8667
-6.5424 -15.0000 24.4859
3.7132 -15.0000 7.5509
2.7841 -15.0000 21.1559
12.6686 -15.0000 11.6056
-13.7574 -15.0000 2.0266
-9.7658 -15.0000 -3.8581
-8.1051 -15.0000 -0.2041
-7.4044 -15.0000 -17.8205
-10.8745 -15.0000 -16.4079
6.1335 -15.0000 -27.8800
-13.0981 -15.0000 14.5174
6.4815 -15.0000 -22.4297
-8.6486 -15.0000 20.7921
-10.5708 -15.0000 -10.7852
8.9800 -15.0000 1.4157
-9.2487 -15.0000 11.7266
-11.1476 -15.0000 4.6525
-4.0814 -15.0000 8.1000
11.7024 -15.0000 22.0335
11.4100 -15.0000 -0.4530
10.9869 -15.0000 9.0537
-2.2501 -15.0000 -1.9187
-5.2181 -15.0000 -9.0428
-3.7488 -15.0000 17.6784
3.5240 -15.0000 9.5644
4.5307 -15.0000 -2.1537
3.5559 -15.0000 25.6847
7.9394 -15.0000 -14.7178
-3.3690 -15.0000 7.8753
-2.1986 -15.0000 -3.4930
6.3412 -15.0000 -0.8731
-12.8635 -15.0000 22.0288
-14.3399 -15.0000 25.4806
1.6402 -15.0000 19.6484
14.4885 -15.0000 13.5929
-1.4189 -15.0000 -24.6417
3.9273 -15.0000 -4.8664
6.8774 -15.0000 -27.0850
-13.2051 -15.0000 -9.8073
8.9499 -15.0000 19.7180
11.9755 -15.0000 -13.1759
-9.9706 -15.0000 -11.6094
12.6885 -15.0000 -13.4288
13.0665 -15.0000 11.7700
-0.0901 -15.0000 -9.4749
-8.9752 -15.0000 -23.6359
0.3288 -15.0000 13.8586
-0.2512 -15.0000 23.3589
-2.7967 -15.0000 9.6979
2.8527 -15.0000 -12.4187
-2.1210 -15.0000 -29.3860
-7.4250 -15.0000 -1.6615
4.7572 -15.0000 -15.5944
-7.3551 -15.0000 -15.8040
-4.8649 -15.0000 10.4894
-10.2760 -15.0000 -21.8215
11.2493 -15.0000 -12.1751
8.8463 -15.0000 10.0051
-9.7922 -15.0000 19.6977
-4.2929 -15.0000 -10.0404
2.6984 -15.0000 -5.9156
14.2762 -15.0000 22.3731
-6.8779 -15.0000 -21.6082
-0.1703 -15.0000 -11.4243
-11.7996 -15.0000 14.9141
-14.1683 -15.0000 -7.1076
4.9814 -15.0000 -5.9148
-9.7766 -15.0000 24.3298
1.0001 -15.0000 -26.7121
-5.1910 -15.0000 -18.9370
-12.0938 -15.0000 25.1827
-4.9042 -15.0000 26.9192
4.2586 -15.0000 20.9174
14.3695 -15.0000 14.4072
-14.9486 -15.0000 -6.3092
-3.5079 -15.0000 -24.7439
-12.3718 -15.0000 23.1601
4.4756 -15.0000 -15.4515
-4.9958 -15.0000 -23.0858
1.0753 -5.6043 30.0000
12.6084 32.0150 30.0000
9.7700 18.9037 30.0000
-4.5109 84.8607 30.0000
-10.4323 67.2524 30.0000
-6.6090 57.3974 30.0000
-0.6719 59.3135 30.0000
4.4334 9.4982 30.0000
-13.6745 1.5574 30.0000
-0.9539 -13.1510 30.0000
10.6549 77.2915 30.0000
14.4891 80.8489 30.0000
3.9452 82.1822 30.0000
-9.6476 0.1364 30.0000
8.0273 6.8378 30.0000
-13.0938 54.0042 30.0000
-12.4123 -14.9960 30.0000
0.6023 13.3538 30.0000
7.5863 0.4156 30.0000
10.4737 34.5398 30.0000
13.6670 81.9247 30.0000
-5.9777 26.1219 30.0000
4.4460 51.0179 30.0000
9.7616 38.3692 30.0000
10.7046 1.1849 30.0000
2.4391 39.4749 30.0000
14.5337 48.6556 30.0000
10.3448 78.4777 30.0000
-3.4114 51.3838 30.0000
5.7020 75.2845 30.0000
11.2859 60.0639 30.0000
8.8990 80.5414 30.0000
-14.4576 72.2343 30.0000
-7.7330 18.2375 30.0000
11.3119 -13.3978 30.0000
0.9990 57.6275 30.0000
2.1235 83.6352 30.0000
-1.5643 4.5602 30.0000
8.2122 27.5141 30.0000
-0.7952 42.3708 30.0000
11.5545 55.4764 30.0000
4.9380 31.4451 30.0000
-8.9477 39.7281 30.0000
-14.9756 67.5712 30.0000
-6.4914 69.6715 30.0000
-8.6301 -2.4963 30.0000
-14.2827 64.3268 30.0000
-1.8144 4.5641 30.0000
-2.1426 -7.2988 30.0000
3.0981 9.2602 30.0000
14.8548 70.8352 30.0000
12.2249 -13.7151 30.0000
-11.3143 33.6573 30.0000
9.4555 25.5476 30.0000
2.6880 -8.3858 30.0000
-11.9052 38.3990 30.0000
0.6971 29.7495 30.0000
-12.5568 42.8279 30.0000
-6.1047 40.6744 30.0000
11.0572 37.6670 30.0000
-7.7825 27.9398 30.0000
-5.2352 24.5759 30.0000
3.8021 36.3801 30.0000
-7.4600 62.6258 30.0000
-1.7004 12.0910 30.0000
-1.2466 -13.8838 30.0000
0.6630 60.1473 30.0000
6.6008 45.9583 30.0000
-1.2845 -6.1921 30.0000
-3.3092 18.6062 30.0000
1.9812 6.8988 30.0000
-9.3668 65.0652 30.0000
-14.1593 79.7042 30.0000
-10.7975 52.6813 30.0000
1.0518 58.6951 30.0000
-1.9365 -3.7144 30.0000
10.9080 64.4285 30.0000
9.3364 8.1967 30.0000
12.9880 48.4581 30.0000
14.0396 10.9271 30.0000
-3.4644 61.4621 30.0000
-10.3147 73.1268 30.0000
12.4748 -4.6682 30.0000
-12.9929 3.5020 30.0000
4.5241 81.0395 30.0000
-10.6201 -9.6318 -30.0000
13.1232 47.5636 -30.0000
2.7445 24.9076 -30.0000
8.3337 12.9722 -30.0000
6.4209 45.2280 -30.0000
7.5674 80.9336 -30.0000
7.1659 61.7761 -30.0000
4.1404 0.8141 -30.0000
7.0171 30.1732 -30.0000
-2.1773 -6.9364 -30.0000
12.6184 20.1407 -30.0000
-4.5231 84.7771 -30.0000
10.5864 41.6373 -30.0000
5.8071 -12.3255 -30.0000
10.6114 10.5963 -30.0000
0.3833 77.1042 -30.0000
9.9096 11.4987 -30.0000
11.0693 36.8449 -30.0000
10.9275 -10.8317 -30.0000
5.9600 25.2722 -30.0000
5.1366 2.9606 -30.0000
9.9258 21.9358 -30.0000
-10.4628 -5.2719 -30.0000
12.9528 12.0783 -30.0000
9.0124 44.7490 -30.0000
-12.7114 78.0191 -30.0000
-11.7374 -14.3076 -30.0000
-1.1233 18.9114 -30.0000
-3.8085 65.2577 -30.0000
-6.1266 50.6183 -30.0000
-13.5206 59.3728 -30.0000
-9.5935 70.2479 -30.0000
2.7444 -8.8537 -30.0000
-9.5671 43.7964 -30.0000
-12.1566 55.6421 -30.0000
-10.9526 38.5126 -30.0000
10.8446 45.5076 -30.0000
-14.6437 -4.0611 -30.0000
12.8280 -6.1905 -30.0000
-9.9722 59.4580 -30.0000
-1.6416 60.3301 -30.0000
-13.4685 33.8884 -30.0000
0.3894 23.7335 -30.0000
-6.3560 -4.3840 -30.0000
10.2659 61.2158 -30.0000
1.0661 24.6789 -30.0000
5.2874 32.6860 -30.0000
-9.7179 65.6340 -30.0000
-7.3834 46.1642 -30.0000
-14.3368 0.8368 -30.0000
-10.1264 22.6076 -30.0000
-3.4652 11.1448 -30.0000
13.6276 79.1493 -30.0000
10.9218 -7.7365 -30.0000
-3.9041 62.7779 -30.0000
4.6409 19.7203 -30.0000
10.3511 63.4156 -30.0000
7.9831 -7.8464 -30.0000
1.1360 -5.0313 -30.0000
11.7156 2.1503 -30.0000
1.4737 5.4215 -30.0000
-10.6388 9.2644 -30.0000
6.9513 7.2552 -30.0000
0.4749 75.7862 -30.0000
-5.2578 15.5722 -30.0000
-13.7428 14.3724 -30.0000
6.0786 39.0582 -30.0000
-2.6012 79.8962 -30.0000
12.6560 9.3019 -30.0000
-1.7353 82.7771 -30.0000
-10.0300 -6.9135 -30.0000
9.6474 58.3358 -30.0000
12.8448 70.9647 -30.0000
-0.8121 55.6289 -30.0000
-14.5011 84.8650 -30.0000
-10.0093 34.9105 -30.0000
13.2027 35.4641 -30.0000
14.7719 66.7469 -30.0000
-14.3791 66.6316 -30.0000
-11.0114 34.3576 -30.0000
6.2620 19.3145 -30.0000
1.4428 15.5765 -30.0000
-10.9376 40.9659 -30.0000
0.2980 82.6595 -30.0000
12.2300 -9.3492 -30.0000
