ply
format ascii 1.0
element vertex 1024
property float x
property float y
property float z
end_header
50.0000 7.4581 20.1731
50.0000 -14.5832 -18.5918
50.0000 -8.6607 -6.9112
50.0000 -1.3461 -27.4401
50.0000 8.6047 -2.0860
50.0000 9.7038 25.2760
50.0000 10.2309 -23.1273
50.0000 -7.8158 25.8245
50.0000 1.1291 16.8192
50.0000 11.9497 -4.8754
50.0000 9.0914 27.0296
50.0000 -1.8108 -7.8954
50.0000 -10.6105 18.6379
50.0000 -10.9304 21.9326
50.0000 8.7759 18.0986
50.0000 -12.1843 23.7700
50.0000 9.5593 13.1687
50.0000 13.7039 -4.1538
50.0000 -13.8614 4.2580
50.0000 1.6435 14.6536
50.0000 0.1488 15.0743
50.0000 12.7805 10.4199
50.0000 -3.8405 8.2901
50.0000 7.9137 2.2237
50.0000 -4.4741 9.0685
50.0000 -6.5927 -21.2389
50.0000 13.9248 -14.3861
50.0000 -7.2912 -2.0158
50.0000 -3.7800 -20.2349
50.0000 3.4542 7.4299
50.0000 1.6558 19.0854
50.0000 -7.5774 -9.0780
50.0000 6.8788 -23.8304
50.0000 8.8049 -3.7208
50.0000 9.3133 2.1288
50.0000 -12.9879 -11.2735
50.0000 14.2879 -23.3892
50.0000 -4.3396 23.0509
50.0000 -12.2498 20.2290
50.0000 1.9865 5.3460
50.0000 4.9141 -17.9735
50.0000 -10.3427 17.6829
50.0000 2.5662 3.9068
50.0000 3.5540 -1.1662
50.0000 -11.4381 18.0751
50.0000 6.6156 -28.5374
50.0000 -6.3339 18.8263
50.0000 3.8865 20.5219
50.0000 -6.7660 -10.3705
50.0000 6.8790 -26.4171
50.0000 0.4432 -20.4832
50.0000 3.4168 18.0636
50.0000 11.4177 26.2898
50.0000 4.0536 -27.2523
50.0000 -6.2955 -11.8235
50.0000 -14.2428 -26.4294
50.0000 6.2074 1.6728
50.0000 -0.7931 28.5311
50.0000 10.0375 -25.5709
50.0000 -6.1837 20.6637
50.0000 -6.1074 -10.9416
50.0000 -7.8254 13.0888
50.0000 12.1158 24.5802
50.0000 13.3163 -2.6149
50.0000 -14.4011 -1.5611
50.0000 -2.0446 17.2292
50.0000 6.2783 -25.6634
50.0000 14.8154 27.2236
50.0000 -0.2673 2.3930
50.0000 0.3331 2.2024
50.0000 8.1841 -13.6909
50.0000 8.4544 -10.3561
50.0000 14.1853 27.0252
50.0000 1.5558 15.6264
50.0000 3.1914 13.9564
50.0000 14.0383 6.9877
50.0000 9.7142 -28.5365
50.0000 -2.2702 -9.2633
50.0000 10.5378 -25.7903
50.0000 9.5921 10.8146
50.0000 -10.4740 -5.0474
50.0000 11.4299 -3.7802
50.0000 -9.4160 6.7881
50.0000 -5.9285 -27.3852
50.0000 -7.3566 5.7574
50.0000 6.1954 -10.3974
-50.0000 -2.3155 23.2321
-50.0000 4.6488 22.6383
-50.0000 3.7435 -26.3435
-50.0000 2.0386 0.2572
-50.0000 -12.5805 15.1608
-50.0000 7.3991 14.2940
-50.0000 -11.7620 0.5317
-50.0000 9.8635 25.4510
-50.0000 10.4007 -27.8738
-50.0000 8.4322 -22.0838
-50.0000 4.5056 13.4044
-50.0000 -8.6661 29.5131
-50.0000 7.7686 18.7908
-50.0000 -7.4490 -25.9834
-50.0000 -0.6721 11.4713
-50.0000 7.4104 12.9040
-50.0000 -14.1074 -9.0064
-50.0000 -10.2857 25.3425
-50.0000 -14.9325 16.5854
-50.0000 -5.4207 -19.5424
-50.0000 -1.5168 -10.2811
-50.0000 12.4965 -14.1711
-50.0000 -1.3434 12.7916
-50.0000 10.0799 -18.3196
-50.0000 -8.3127 -24.5705
-50.0000 13.8481 -20.6248
-50.0000 10.4896 -3.2481
-50.0000 -5.2576 -9.9902
-50.0000 4.6709 -23.9039
-50.0000 -7.0580 -11.2088
-50.0000 -2.7006 16.5334
-50.0000 3.3454 13.5463
-50.0000 2.9369 15.5056
-50.0000 -0.7930 4.3614
-50.0000 7.2115 17.2180
-50.0000 0.8167 -19.8332
-50.0000 -3.1717 17.2349
-50.0000 2.2830 -10.3735
-50.0000 13.2147 -19.3239
-50.0000 2.4978 19.6612
-50.0000 7.0455 10.3763
-50.0000 -6.3843 10.6314
-50.0000 -1.7101 -24.1427
-50.0000 -6.6172 -19.6809
-50.0000 -10.0486 26.7954
-50.0000 9.2693 19.4424
-50.0000 9.4373 17.8173
-50.0000 -4.0365 -28.3029
-50.0000 -14.6833 -4.2624
-50.0000 -6.4969 -0.7729
-50.0000 -6.4730 28.7586
-50.0000 6.7395 20.0727
-50.0000 13.7920 18.3942
-50.0000 2.9834 -14.3227
-50.0000 5.0560 -17.9456
-50.0000 13.4389 19.8613
-50.0000 -12.4490 -5.9887
-50.0000 -7.7366 24.8276
-50.0000 -9.5727 -29.5581
-50.0000 -14.7928 26.8971
-50.0000 -2.2371 -10.9756
-50.0000 -0.3153 -7.0230
-50.0000 12.3034 5.9944
-50.0000 -0.4622 -1.9299
-50.0000 4.1956 -23.0410
-50.0000 8.3255 -1.6956
-50.0000 -14.7851 19.2107
-50.0000 -1.0995 23.5377
-50.0000 -6.3617 7.8107
-50.0000 -0.8231 22.8157
-50.0000 4.6211 -18.4463
-50.0000 4.1016 8.3961
-50.0000 8.3773 -19.5238
-50.0000 -3.9518 -1.5923
-50.0000 12.9290 1.3363
-50.0000 -11.2183 15.9814
-50.0000 8.4474 -2.6994
-50.0000 8.5641 -9.0448
-50.0000 -6.3746 13.5249
-50.0000 -7.6709 -25.6929
-50.0000 4.4999 -7.5126
-50.0000 -8.0705 2.5879
-50.0000 12.8304 26.8032
-50.0000 -12.5245 1.3570
-50.0000 -11.9233 -7.5009
-50.0000 1.9543 8.8207
-45.8073 15.0000 13.7192
34.8432 15.0000 1.4183
15.7006 15.0000 28.5385
34.7782 15.0000 28.1282
-48.9974 15.0000 -28.9878
28.5751 15.0000 28.0128
4.6019 15.0000 26.7239
36.5846 15.0000 15.8808
23.8825 15.0000 -21.3765
-31.6495 15.0000 20.9982
28.8907 15.0000 8.2362
-3.3105 15.0000 -21.2097
19.0652 15.0000 8.9617
-8.6483 15.0000 17.3563
-2.1346 15.0000 -8.6070
39.4644 15.0000 21.6649
-28.1985 15.0000 -5.8770
-7.4065 15.0000 5.1028
-22.4589 15.0000 -16.5865
28.2215 15.0000 -11.5296
-21.5930 15.0000 -17.7916
1.9582 15.0000 -29.2838
-4.2510 15.0000 -4.9609
-42.5225 15.0000 -20.2477
-19.9627 15.0000 2.8540
-25.6481 15.0000 -8.3329
-34.8259 15.0000 -0.5169
-11.5924 15.0000 -22.6586
44.9863 15.0000 -3.8001
-31.2355 15.0000 27.6479
10.3216 15.0000 -6.1729
-31.8053 15.0000 12.0254
-39.8412 15.0000 -18.7461
-40.6510 15.0000 9.7370
46.1767 15.0000 19.4278
-35.0628 15.0000 26.3308
5.8206 15.0000 8.6831
-36.6387 15.0000 -15.8010
33.4195 15.0000 -28.4886
30.2559 15.0000 -11.8374
42.3582 15.0000 -25.9238
-36.2049 15.0000 -15.0984
-14.5961 15.0000 -20.1692
36.0521 15.0000 25.3964
21.9283 15.0000 13.9469
-34.0595 15.0000 -9.6451
-33.3511 15.0000 -17.8289
-21.7751 15.0000 26.3471
44.5721 15.0000 0.9480
27.1768 15.0000 -10.7096
-15.1794 15.0000 -7.0166
-13.3715 15.0000 3.7739
14.9582 15.0000 17.7265
-45.9185 15.0000 -24.8497
49.0984 15.0000 -15.9256
13.0597 15.0000 -14.3383
38.1297 15.0000 -19.1303
38.0053 15.0000 18.3958
-36.8093 15.0000 -12.1973
-31.3207 15.0000 -28.1516
-43.1136 15.0000 4.7388
40.2454 15.0000 5.1453
49.0152 15.0000 10.9891
12.0646 15.0000 -8.0674
1.7117 15.0000 -18.8161
-16.1489 15.0000 11.2935
42.3731 15.0000 18.5245
-37.1170 15.0000 -18.8102
11.8792 15.0000 -21.1692
-48.2547 15.0000 -5.2483
-12.7493 15.0000 2.7609
8.7308 15.0000 21.4689
5.0810 15.0000 -10.6529
17.0926 15.0000 4.0147
13.4727 15.0000 6.4599
29.5870 15.0000 -27.7593
8.4883 15.0000 -17.9161
14.1886 15.0000 8.6098
36.3170 15.0000 -10.1698
1.7506 15.0000 28.2682
-43.7431 15.0000 5.9580
17.9836 15.0000 6.7114
-7.7166 15.0000 -14.3164
-43.5753 15.0000 -26.7844
28.4223 15.0000 3.2408
17.1526 -15.0000 25.8696
23.3195 -15.0000 -17.5134
33.0847 -15.0000 29.5957
-21.9963 -15.0000 -28.8435
37.7192 -15.0000 27.6415
38.0666 -15.0000 15.5245
24.5598 -15.0000 19.8118
-5.4063 -15.0000 -19.8966
-10.6870 -15.0000 4.7084
11.6233 -15.0000 -19.2571
-25.1372 -15.0000 -7.8826
-39.7288 -15.0000 22.7525
37.3594 -15.0000 2.8253
-35.7039 -15.0000 -22.0496
37.4669 -15.0000 -3.5925
-25.8962 -15.0000 14.4254
4.5622 -15.0000 -26.0701
-31.8489 -15.0000 1.5832
7.7871 -15.0000 -25.0784
-38.6923 -15.0000 9.8340
-20.9492 -15.0000 0.6067
29.4366 -15.0000 -15.4001
37.7693 -15.0000 19.2633
2.3375 -15.0000 -26.4154
45.1148 -15.0000 10.9384
6.4265 -15.0000 22.0131
-33.1105 -15.0000 10.7220
7.4482 -15.0000 -14.8727
28.9754 -15.0000 12.2017
24.2774 -15.0000 -22.4061
16.3874 -15.0000 -2.6280
-6.5527 -15.0000 2.7622
2.7439 -15.0000 -7.7144
-28.5860 -15.0000 -9.3692
-44.6741 -15.0000 6.3123
-45.4765 -15.0000 -4.2467
-6.8819 -15.0000 1.2272
1.5013 -15.0000 -11.3064
-29.0386 -15.0000 2.5632
2.2950 -15.0000 -13.5298
-41.5440 -15.0000 -11.3671
16.4349 -15.0000 20.0761
-10.6425 -15.0000 -21.6015
-41.4289 -15.0000 29.2593
30.4357 -15.0000 -28.9060
-17.9089 -15.0000 24.6234
44.9328 -15.0000 0.0843
-15.6708 -15.0000 -7.1528
19.2567 -15.0000 -10.5067
11.9880 -15.0000 -12.0769
8.8356 -15.0000 14.2357
19.4080 -15.0000 20.1631
-43.9253 -15.0000 -19.9009
6.3521 -15.0000 18.2387
-40.4803 -15.0000 26.0119
8.7410 -15.0000 -19.6946
10.3004 -15.0000 23.9096
-12.0376 -15.0000 -10.5356
9.1905 -15.0000 12.1671
39.5832 -15.0000 -19.8832
23.5957 -15.0000 -3.0320
17.2936 -15.0000 10.1003
-40.4019 -15.0000 -28.8994
20.1993 -15.0000 26.3620
21.4793 -15.0000 19.0941
-30.5902 -15.0000 26.0355
-49.6968 -15.0000 16.5434
-4.7941 -15.0000 -28.8785
48.2882 -15.0000 2.7960
-3.1386 -15.0000 10.4164
-0.7200 -15.0000 -16.7002
-18.4879 -15.0000 9.2669
22.7826 -15.0000 20.0523
5.4420 -15.0000 -15.0421
-8.0765 -15.0000 26.1514
-0.1328 -15.0000 25.4783
37.9436 -15.0000 -22.0489
9.0363 -15.0000 -15.4340
10.1356 -15.0000 20.5610
36.3861 -15.0000 -21.1722
-15.9837 -15.0000 -1.4587
25.5999 -15.0000 22.7862
-29.2219 -15.0000 9.7520
-37.3388 -15.0000 -14.0293
-7.3658 -15.0000 -15.3533
27.9802 7.8154 30.0000
17.0001 7.4173 30.0000
18.4771 -0.4293 30.0000
42.1762 3.1535 30.0000
-18.8673 -0.9894 30.0000
17.0087 -4.9017 30.0000
46.7700 11.1259 30.0000
49.4312 -10.6435 30.0000
-33.1299 -0.7292 30.0000
-9.5539 -11.3836 30.0000
-37.1480 2.8660 30.0000
-27.9284 -13.3019 30.0000
-22.7178 -2.6793 30.0000
-1.2541 -4.2351 30.0000
-48.8046 12.5143 30.0000
1.1812 10.5749 30.0000
19.5925 2.1185 30.0000
-16.9634 9.5645 30.0000
-44.6007 -12.6660 30.0000
37.7897 13.9863 30.0000
27.7734 -3.9048 30.0000
-31.9026 -2.6607 30.0000
-9.4524 -8.5100 30.0000
32.2985 2.7929 30.0000
-13.1054 -4.0642 30.0000
16.5939 -5.3861 30.0000
-20.3774 -10.3283 30.0000
13.2952 12.1726 30.0000
-41.7510 9.7731 30.0000
-8.5814 0.9396 30.0000
-15.5954 -10.9906 30.0000
-17.0438 -13.5133 30.0000
41.4860 -2.9878 30.0000
26.8361 2.1387 30.0000
-21.7444 6.7837 30.0000
47.8787 6.1860 30.0000
-15.6877 -3.5474 30.0000
35.1448 -11.7099 30.0000
30.9794 4.3258 30.0000
-18.2152 13.9167 30.0000
-4.3893 10.6499 30.0000
28.9993 13.9112 30.0000
-6.6062 4.6213 30.0000
-1.5819 14.6117 30.0000
39.2322 -7.0328 30.0000
40.6996 -9.6541 30.0000
-42.1356 -13.3117 30.0000
48.8241 -12.6263 30.0000
4.3991 -3.2739 30.0000
-23.9284 -4.4652 30.0000
-8.0841 13.5355 30.0000
-44.3309 -13.0720 30.0000
3.8853 -2.2578 30.0000
5.8726 -11.2892 30.0000
14.3794 -11.9389 30.0000
41.2529 -11.0223 30.0000
-1.6021 7.8608 30.0000
-41.9544 4.1846 30.0000
14.2629 5.0157 30.0000
-36.0537 7.3551 30.0000
1.1780 -4.9246 30.0000
25.8419 6.0745 30.0000
-15.0544 12.5221 30.0000
22.5919 4.7719 30.0000
-0.1077 -1.8048 30.0000
-23.5285 13.0210 30.0000
4.9161 -2.8164 30.0000
4.0944 6.7244 30.0000
25.4752 -9.5689 30.0000
9.5377 -12.7090 30.0000
-26.9113 11.0347 30.0000
35.2049 14.4373 30.0000
40.0461 0.3953 30.0000
26.7916 4.0967 30.0000
6.5517 -1.9765 30.0000
-7.0499 2.9926 30.0000
26.9523 14.0301 30.0000
-24.2186 -3.0190 30.0000
35.6467 4.7774 30.0000
-11.0525 -1.7097 30.0000
24.6468 -13.6890 30.0000
-7.8894 -10.6427 30.0000
-19.8537 -14.1832 30.0000
-44.3438 14.0320 30.0000
33.3595 -11.2626 30.0000
-48.4641 8.5201 -30.0000
0.4336 -2.1438 -30.0000
-34.5677 10.4076 -30.0000
36.9864 -5.3297 -30.0000
16.3546 11.7187 -30.0000
35.4574 -2.7729 -30.0000
-37.1735 -0.9253 -30.0000
-20.6416 -6.5331 -30.0000
-32.7612 6.4405 -30.0000
23.7872 7.6956 -30.0000
25.3250 -8.5653 -30.0000
-16.7977 -12.2018 -30.0000
23.8015 4.4412 -30.0000
3.6183 0.7460 -30.0000
12.7268 -14.7623 -30.0000
22.1299 10.6870 -30.0000
22.8706 -10.0121 -30.0000
-36.3498 2.5445 -30.0000
48.5640 12.8009 -30.0000
-27.5922 2.4953 -30.0000
-0.3711 8.6504 -30.0000
18.3956 -6.8454 -30.0000
42.7132 -8.9486 -30.0000
25.9081 -12.0461 -30.0000
-22.3110 2.8637 -30.0000
-48.9458 13.2959 -30.0000
-19.3000 6.1803 -30.0000
39.5164 -0.9522 -30.0000
-14.5480 2.6824 -30.0000
-48.2741 12.8215 -30.0000
3.4282 11.3537 -30.0000
2.2904 -1.9286 -30.0000
-4.1059 1.5726 -30.0000
-3.8757 -4.3443 -30.0000
47.7524 9.8795 -30.0000
16.0567 9.9493 -30.0000
-16.2177 12.6046 -30.0000
0.4439 -4.7790 -30.0000
7.5015 9.2601 -30.0000
-43.0074 -9.7583 -30.0000
38.8193 1.0163 -30.0000
41.0649 0.7965 -30.0000
-37.8677 -4.2859 -30.0000
-1.9008 4.6285 -30.0000
30.6459 -13.3202 -30.0000
36.4755 3.6644 -30.0000
6.1330 12.0229 -30.0000
13.8191 13.9250 -30.0000
-18.3114 9.9160 -30.0000
49.0454 4.5976 -30.0000
6.9870 1.3163 -30.0000
-15.7840 -3.4524 -30.0000
-34.3189 -4.1441 -30.0000
-15.4498 12.0140 -30.0000
-37.8533 2.7556 -30.0000
27.2279 -3.8190 -30.0000
33.5228 -14.0105 -30.0000
-2.8496 -10.4288 -30.0000
15.7148 7.9273 -30.0000
-30.9228 -11.1319 -30.0000
32.8399 10.6069 -30.0000
48.5900 6.8283 -30.0000
-24.3418 -14.3403 -30.0000
-15.9095 14.5003 -30.0000
-3.5587 -4.0240 -30.0000
-21.0244 0.4257 -30.0000
2.5783 -3.2573 -30.0000
49.1320 8.4906 -30.0000
-2.9347 0.4522 -30.0000
-23.0966 9.1745 -30.0000
46.0262 -7.5499 -30.0000
-7.2167 -13.2798 -30.0000
10.7120 13.4068 -30.0000
-25.4898 -5.2193 -30.0000
34.3812 -11.7796 -30.0000
-28.1363 2.5980 -30.0000
-24.9746 -14.8856 -30.0000
-38.0209 -11.5654 -30.0000
-12.4507 -0.1685 -30.0000
-45.9648 9.1850 -30.0000
-13.8629 -0.4547 -30.0000
35.5742 13.6895 -30.0000
10.2457 -12.4288 -30.0000
-30.2259 -2.9169 -30.0000
36.1399 12.9500 -30.0000
15.0000 24.8253 -17.8623
15.0000 60.3477 24.5527
15.0000 76.1639 -2.8756
15.0000 44.3230 20.3387
15.0000 17.4964 -2.4071
15.0000 12.7903 -17.8223
15.0000 84.1517 15.4844
15.0000 -7.6386 -7.3012
15.0000 78.5171 -29.4051
15.0000 47.6917 -23.9901
15.0000 10.4917 0.1157
15.0000 60.8209 19.8499
15.0000 29.8472 -18.6076
15.0000 44.5255 -19.6696
15.0000 11.8797 18.7090
15.0000 -3.1551 -19.6993
15.0000 60.0667 25.7293
15.0000 50.9045 -13.0068
15.0000 22.8747 -25.2549
15.0000 -5.0656 11.4727
15.0000 84.7524 -1.4953
15.0000 24.6079 14.7615
15.0000 29.6738 18.3567
15.0000 73.5634 -26.1701
15.0000 10.5967 3.5473
15.0000 20.3667 17.7460
15.0000 46.7346 6.8208
15.0000 31.7163 16.0520
15.0000 52.2759 6.1771
15.0000 41.3887 4.3671
15.0000 74.3182 5.2243
15.0000 1.8621 1.3362
15.0000 48.3084 -23.2193
15.0000 -14.8035 25.1405
15.0000 82.5823 5.6124
15.0000 41.6478 -22.2269
15.0000 50.0854 -24.0163
15.0000 67.6290 6.4041
15.0000 12.8274 -22.5097
15.0000 46.7115 7.8028
15.0000 55.3902 0.5846
15.0000 48.5616 -7.4237
15.0000 58.4606 -24.4016
15.0000 64.4255 17.7596
15.0000 49.1943 -23.0482
15.0000 64.2946 -10.8355
15.0000 79.7318 5.1304
15.0000 42.9120 -1.6930
15.0000 59.1767 26.3063
15.0000 -10.8223 10.4706
15.0000 58.3095 -24.0568
15.0000 49.2861 29.5908
15.0000 12.2320 0.8271
15.0000 52.9863 29.9177
15.0000 79.3430 -10.4763
15.0000 -1.8534 14.9220
15.0000 75.3997 -1.6807
15.0000 33.0282 1.7838
15.0000 51.6016 -6.5174
15.0000 73.3012 22.5612
15.0000 7.2812 -29.8580
15.0000 74.6832 4.7750
15.0000 38.6549 -23.2695
15.0000 -14.3206 -4.0247
15.0000 68.8071 16.8506
15.0000 -12.3023 -0.3421
15.0000 5.6815 17.5074
15.0000 26.8779 27.8845
15.0000 26.9614 12.3392
15.0000 -0.1524 -3.6676
15.0000 -6.0584 -19.7092
15.0000 25.3812 -13.1440
15.0000 13.2788 1.5135
15.0000 59.4862 27.7422
15.0000 13.1041 -20.2991
15.0000 67.9643 -3.1415
15.0000 -5.4558 4.0203
15.0000 26.1162 -29.8933
15.0000 50.7669 5.4593
15.0000 7.9057 4.8243
15.0000 -0.8928 -21.3847
15.0000 42.8418 -29.8505
15.0000 -4.9785 17.9263
15.0000 45.2811 10.1205
15.0000 56.3803 -4.8321
15.0000 35.7739 25.6838
-15.0000 8.0978 -20.0654
-15.0000 46.7765 1.8176
-15.0000 -13.6513 10.4772
-15.0000 75.6435 -20.7206
-15.0000 7.4575 -2.2054
-15.0000 41.0067 -21.2925
-15.0000 44.6081 1.0577
-15.0000 9.8566 -26.7593
-15.0000 18.6238 25.9932
-15.0000 70.5330 22.2134
-15.0000 -10.7028 -17.2743
-15.0000 -7.0523 25.3664
-15.0000 44.4425 15.2155
-15.0000 23.7987 18.5353
-15.0000 44.3475 -20.6833
-15.0000 16.0473 26.9025
-15.0000 6.6861 8.0407
-15.0000 -11.3879 -21.7110
-15.0000 7.9884 25.4062
-15.0000 46.9955 -25.5033
-15.0000 6.3624 19.6210
-15.0000 46.0051 11.2323
-15.0000 -10.5227 14.7688
-15.0000 76.6385 6.3148
-15.0000 3.5985 -28.8582
-15.0000 -11.0863 3.9941
-15.0000 5.9829 29.2517
-15.0000 17.1134 23.1101
-15.0000 33.3144 18.1560
-15.0000 40.8503 25.3874
-15.0000 56.5482 -20.3492
-15.0000 79.7051 -26.8124
-15.0000 19.8716 -26.6670
-15.0000 -2.4251 -29.8462
-15.0000 20.8605 15.7182
-15.0000 64.2058 -27.3168
-15.0000 -4.7577 24.7205
-15.0000 -8.9284 -4.2819
-15.0000 55.3670 15.3102
-15.0000 19.5271 -11.2732
-15.0000 84.3512 20.6101
-15.0000 59.9531 20.6101
-15.0000 15.7974 -10.7315
-15.0000 8.3027 6.2083
-15.0000 78.1454 -28.7280
-15.0000 22.8075 1.7509
-15.0000 15.4756 -25.6261
-15.0000 69.0824 -24.9257
-15.0000 83.6302 -29.3334
-15.0000 7.3041 -26.8173
-15.0000 -4.3771 -17.3447
-15.0000 11.5871 16.2910
-15.0000 0.7800 18.3822
-15.0000 51.2222 -16.2226
-15.0000 31.5726 29.0226
-15.0000 84.0395 -11.4768
-15.0000 -14.0754 12.0703
-15.0000 28.2749 19.0973
-15.0000 0.6356 -3.2760
-15.0000 54.9558 10.5158
-15.0000 -5.2964 -2.4814
-15.0000 54.3680 -28.7017
-15.0000 65.8994 -22.4886
-15.0000 6.3094 -25.1772
-15.0000 35.7877 16.6674
-15.0000 67.9776 -26.0661
-15.0000 12.8453 0.8156
-15.0000 -9.0607 27.2419
-15.0000 51.3259 -27.1145
-15.0000 -12.4085 -23.1099
-15.0000 58.9523 -5.6059
-15.0000 84.2997 18.0579
-15.0000 60.9151 0.3332
-15.0000 -0.7163 3.4673
-15.0000 33.9532 24.2198
-15.0000 84.6551 17.3561
-15.0000 47.6180 22.6826
-15.0000 73.1698 -16.7886
-15.0000 71.3757 12.7909
-15.0000 -0.6932 -25.0132
-15.0000 -12.1981 20.2568
-15.0000 38.9781 -22.7131
-15.0000 23.7451 6.5183
-15.0000 5.7670 22.3995
-15.0000 -12.7397 -11.8720
-15.0000 -6.7682 -0.3935
-14.8235 85.0000 -8.0495
7.5860 85.0000 -18.4936
1.9982 85.0000 24.6802
-5.0287 85.0000 24.7885
13.7079 85.0000 14.1397
-4.6185 85.0000 28.0130
-13.0905 85.0000 23.5084
-7.2799 85.0000 23.8890
-0.6414 85.0000 -10.9122
-8.3527 85.0000 -9.6959
-5.4032 85.0000 -13.5066
-9.0699 85.0000 -17.7182
14.2297 85.0000 28.2130
4.7245 85.0000 4.0013
9.9736 85.0000 4.1154
-10.2524 85.0000 9.7522
13.1518 85.0000 -23.4110
2.5199 85.0000 -14.3297
-14.3331 85.0000 27.1302
-5.3692 85.0000 9.0623
-9.1538 85.0000 -23.9059
-0.3991 85.0000 23.3528
5.2736 85.0000 -27.8210
-5.7049 85.0000 22.5655
-2.6595 85.0000 -10.0216
-2.8116 85.0000 -13.4599
2.5409 85.0000 17.1084
2.3863 85.0000 3.9971
6.7202 85.0000 8.7784
10.4267 85.0000 -26.1149
11.2980 85.0000 16.4123
-5.3303 85.0000 -1.4665
3.8918 85.0000 -22.9824
-9.5441 85.0000 21.9149
-8.7165 85.0000 20.4448
-14.1267 85.0000 -6.3481
-11.6077 85.0000 6.0203
9.5805 85.0000 9.1138
-7.1069 85.0000 -15.6997
8.8996 85.0000 -3.1199
8.6534 85.0000 -17.3351
-4.2032 85.0000 -17.3114
13.2290 85.0000 23.9442
4.7520 85.0000 22.2958
13.0155 85.0000 10.6799
-11.3135 85.0000 16.7692
1.5263 85.0000 -5.1745
13.9829 85.0000 27.9508
13.1454 85.0000 -1.2773
-8.7780 85.0000 15.7748
8.8601 85.0000 -19.7090
-0.3469 85.0000 -22.7806
-9.0179 85.0000 -15.4725
6.4674 85.0000 3.9379
-7.8646 85.0000 -6.9212
5.0782 85.0000 -0.0735
13.9853 85.0000 26.2579
-10.8424 85.0000 20.8025
11.2460 85.0000 1.2137
-14.3269 85.0000 -5.8166
8.7528 85.0000 -23.0899
-5.4012 85.0000 6.4074
13.5437 85.0000 -16.9783
9.6427 85.0000 -14.8401
2.6032 85.0000 20.9380
5.2704 85.0000 10.4311
10.2097 85.0000 12.2759
-8.7150 85.0000 -17.0662
-14.9477 85.0000 -20.6494
14.9996 85.0000 -4.9688
-0.8485 85.0000 -25.3095
7.2546 85.0000 -28.5924
12.2347 85.0000 24.4024
14.6446 85.0000 18.6258
-0.9776 85.0000 13.2963
3.7749 85.0000 19.5051
10.5886 85.0000 -4.9977
13.1538 85.0000 14.0946
12.5145 85.0000 -28.5600
-13.7338 85.0000 -23.8655
-1.7155 85.0000 26.4822
-9.2071 85.0000 23.1339
-11.1605 85.0000 -8.1482
-0.8321 85.0000 22.5227
-9.2138 85.0000 -25.4066
10.6056 -15.0000 -19.9998
10.5017 -15.0000 -20.9319
-2.4870 -15.0000 18.9664
8.5051 -15.0000 13.5515
-6.0712 -15.0000 26.9907
13.7735 -15.0000 12.0262
4.3554 -15.0000 -22.4365
14.3651 -15.0000 25.9095
-1.5829 -15.0000 11.2485
4.8594 -15.0000 21.1470
-7.4947 -15.0000 -8.8094
1.8888 -15.0000 15.8159
6.4498 -15.0000 -21.7757
-1.3698 -15.0000 7.4933
8.0803 -15.0000 -23.5221
-9.8493 -15.0000 15.6635
6.8816 -15.0000 -14.2652
-4.6735 -15.0000 20.5441
-1.0242 -15.0000 22.7183
-10.3220 -15.0000 12.0463
-3.1889 -15.0000 5.4926
12.8234 -15.0000 -29.5772
-6.0367 -15.0000 -17.0313
5.0343 -15.0000 -20.2654
6.6129 -15.0000 -29.2178
-4.2049 -15.0000 -22.0979
12.4781 -15.0000 -1.3648
-2.4156 -15.0000 -29.3780
-1.6106 -15.0000 25.7267
14.8849 -15.0000 27.6642
-2.4255 -15.0000 -8.7410
-14.9183 -15.0000 -22.0306
-7.7872 -15.0000 -13.7257
3.5227 -15.0000 -5.7376
2.0273 -15.0000 6.1092
6.6429 -15.0000 -12.4287
0.6813 -15.0000 -1.4565
14.3572 -15.0000 -2.1493
10.8293 -15.0000 6.9799
-10.7712 -15.0000 3.2354
14.2936 -15.0000 1.0350
12.8062 -15.0000 -17.9095
-5.8088 -15.0000 1.5063
-11.2390 -15.0000 8.2461
-5.8168 -15.0000 19.0585
-2.2792 -15.0000 -21.8022
-14.9292 -15.0000 -5.7367
-7.9003 -15.0000 -2.0909
11.2485 -15.0000 8.7045
-10.8110 -15.0000 -4.4606
-11.5607 -15.0000 -26.5398
-6.4901 -15.0000 -26.7577
-5.9304 -15.0000 13.0298
12.8782 -15.0000 -26.0256
6.6991 -15.0000 -6.0568
12.7125 -15.0000 24.6579
8.8097 -15.0000 19.3317
-7.4147 -15.0000 25.0322
14.9674 -15.0000 13.8626
-3.6658 -15.0000 3.9200
0.5329 -15.0000 6.5521
-4.9675 -15.0000 -11.8794
-1.3526 -15.0000 29.1972
12.1988 -15.0000 6.2685
2.1582 -15.0000 23.0511
-9.1283 -15.0000 11.1469
-5.6146 -15.0000 -24.0164
-3.0891 -15.0000 27.4150
10.4504 -15.0000 -14.8346
11.2911 -15.0000 4.2785
0.2244 -15.0000 -26.1038
0.3392 -15.0000 1.0807
-3.3977 -15.0000 16.5961
-2.8797 -15.0000 6.7086
-14.2709 -15.0000 19.8926
-4.3475 -15.0000 -26.9443
-11.9468 -15.0000 14.4245
-3.0017 -15.0000 10.4063
-3.2777 -15.0000 -0.7115
11.8003 -15.0000 29.7396
8.4561 -15.0000 24.4246
13.6628 -15.0000 25.5249
1.9229 -15.0000 -6.1217
10.3896 -15.0000 -28.2003
14.8290 -15.0000 28.7569
-14.0070 67.9618 30.0000
-14.6131 58.7822 30.0000
5.7087 68.1204 30.0000
-1.7381 82.0861 30.0000
4.2975 44.6969 30.0000
-1.0365 45.4792 30.0000
-5.7277 25.4372 30.0000
-10.8313 -1.5721 30.0000
0.4131 24.6398 30.0000
-8.4762 12.3977 30.0000
-6.3950 31.9475 30.0000
3.2557 26.4699 30.0000
4.5682 53.2675 30.0000
6.0481 19.8867 30.0000
4.1233 -8.8659 30.0000
-12.0111 6.0209 30.0000
11.5431 54.6191 30.0000
8.5907 41.4858 30.0000
2.0495 19.8048 30.0000
-9.0178 -11.9633 30.0000
6.3617 47.2429 30.0000
-1.7061 43.2234 30.0000
-8.7443 11.4565 30.0000
4.6929 -14.0994 30.0000
8.8012 60.4558 30.0000
-6.0488 -2.4973 30.0000
-8.7269 68.3794 30.0000
9.5986 67.4115 30.0000
-7.3140 37.9400 30.0000
2.4398 31.5070 30.0000
-3.3933 -11.3901 30.0000
-7.7551 15.9872 30.0000
0.1921 60.5192 30.0000
-14.4870 8.4708 30.0000
-10.8006 60.1538 30.0000
-4.0100 15.7283 30.0000
-4.1758 67.5653 30.0000
-12.4710 36.2676 30.0000
8.9412 -9.6273 30.0000
-14.7062 54.0816 30.0000
4.7263 15.1797 30.0000
8.9027 -7.4236 30.0000
14.4596 -5.8280 30.0000
-10.7976 22.5063 30.0000
-2.2400 -7.4593 30.0000
1.0602 15.5698 30.0000
1.5423 77.9982 30.0000
4.4051 3.9284 30.0000
-3.2191 9.8652 30.0000
-13.8372 -0.2404 30.0000
4.8871 -2.7043 30.0000
-9.1894 52.9156 30.0000
9.4406 55.4210 30.0000
14.6351 2.5509 30.0000
-4.7955 45.7828 30.0000
5.7567 14.1242 30.0000
-9.7167 67.7639 30.0000
12.6383 57.5079 30.0000
-7.3295 72.1144 30.0000
13.3739 41.1288 30.0000
-14.0766 37.3113 30.0000
8.8026 71.7129 30.0000
-0.1536 75.4286 30.0000
-10.2170 58.9506 30.0000
5.0693 59.1012 30.0000
4.3791 -7.1068 30.0000
3.5129 83.2714 30.0000
12.2427 71.7768 30.0000
6.8936 20.4194 30.0000
-5.4635 6.0924 30.0000
6.0046 22.5816 30.0000
-9.2524 70.4439 30.0000
10.2048 48.6575 30.0000
-6.9728 18.8754 30.0000
-2.8624 58.0799 30.0000
1.5920 32.2671 30.0000
-6.0110 41.1447 30.0000
-13.6099 82.4068 30.0000
7.3147 32.5785 30.0000
-10.4482 77.3647 30.0000
2.0336 82.2244 30.0000
-2.4630 32.2962 30.0000
11.7917 14.7674 30.0000
9.2260 -12.3754 30.0000
4.7362 -13.5805 30.0000
8.8629 53.1556 -30.0000
-12.4826 12.6906 -30.0000
14.4285 27.7725 -30.0000
-14.7561 23.9411 -30.0000
13.2017 27.7319 -30.0000
0.9801 54.0369 -30.0000
-6.6442 38.7540 -30.0000
-8.4949 53.0642 -30.0000
5.6199 -2.6918 -30.0000
6.1091 14.9649 -30.0000
5.3651 22.4689 -30.0000
-7.8322 -13.5444 -30.0000
9.9939 45.9445 -30.0000
14.7260 59.2276 -30.0000
10.5168 23.0184 -30.0000
-5.2012 4.9426 -30.0000
-9.0110 47.7116 -30.0000
12.4123 19.8014 -30.0000
8.0302 8.3945 -30.0000
9.1822 -3.9095 -30.0000
-6.3997 18.1800 -30.0000
7.1739 30.1724 -30.0000
1.5039 32.2981 -30.0000
-13.1034 52.9794 -30.0000
7.4621 14.0033 -30.0000
-0.5029 45.1249 -30.0000
5.7836 62.7696 -30.0000
-7.3651 44.1508 -30.0000
-7.9477 -1.1711 -30.0000
-12.7384 50.8716 -30.0000
-12.4424 83.2281 -30.0000
-0.6413 1.1438 -30.0000
2.6958 5.8965 -30.0000
-2.1938 29.2985 -30.0000
2.6345 42.8185 -30.0000
-10.1963 4.8658 -30.0000
13.0011 71.3245 -30.0000
-4.6887 30.9222 -30.0000
-8.7498 64.2868 -30.0000
-6.6829 15.7462 -30.0000
-6.6975 7.3960 -30.0000
-14.3566 61.3405 -30.0000
14.5018 29.0951 -30.0000
-7.6279 4.5300 -30.0000
-11.3410 62.1670 -30.0000
0.7446 -6.5624 -30.0000
9.0388 17.2504 -30.0000
-12.6210 83.3900 -30.0000
8.5728 74.5925 -30.0000
12.2407 62.6478 -30.0000
14.7684 43.5280 -30.0000
-6.0652 55.3794 -30.0000
1.4510 39.4565 -30.0000
-14.2604 56.1376 -30.0000
-10.0136 -4.1622 -30.0000
9.8704 21.6435 -30.0000
8.2665 20.8495 -30.0000
9.5844 30.9106 -30.0000
-12.6632 39.9381 -30.0000
-5.5279 83.3879 -30.0000
-3.4035 65.7249 -30.0000
-10.4327 21.3774 -30.0000
-9.5192 36.3753 -30.0000
-12.3147 62.8770 -30.0000
-9.8067 26.9250 -30.0000
-14.4726 3.5585 -30.0000
-7.0964 24.0133 -30.0000
12.1092 9.4634 -30.0000
-8.9032 36.1506 -30.0000
5.4384 34.0384 -30.0000
7.2551 70.2705 -30.0000
-6.8306 72.8474 -30.0000
-0.5930 56.8839 -30.0000
14.3766 -1.5466 -30.0000
11.9924 23.9993 -30.0000
2.9726 65.2178 -30.0000
-7.5137 78.8535 -30.0000
-9.7268 55.7189 -30.0000
11.0729 -4.0967 -30.0000
-1.7938 29.7245 -30.0000
6.7121 49.7311 -30.0000
14.7771 4.7186 -30.0000
1.1678 81.5116 -30.0000
12.3752 1.1266 -30.0000
6.4385 23.7633 -30.0000
