ply
format ascii 1.0
element vertex 1024
property float x
property float y
property float z
end_header
50.0000 -8.1627 25.7872
50.0000 -5.6881 -12.0072
50.0000 -3.7849 -10.0132
50.0000 -0.8811 11.0893
50.0000 4.6201 15.0363
50.0000 -6.4876 19.1484
50.0000 -14.6012 -3.9210
50.0000 9.9069 23.3582
50.0000 14.5513 -16.7000
50.0000 11.4789 -23.9360
50.0000 2.8599 -11.4720
50.0000 0.6265 2.0400
50.0000 -5.3639 7.3265
50.0000 3.0797 -20.0146
50.0000 -3.3359 8.7346
50.0000 14.5803 10.4354
50.0000 -2.6326 24.8685
50.0000 11.4125 -3.8255
50.0000 0.5814 -2.1743
50.0000 12.2099 28.0193
50.0000 4.7416 -21.3925
50.0000 -3.9237 21.5552
50.0000 -7.5206 -8.8159
50.0000 -0.1844 -12.6851
50.0000 -3.4735 2.5808
50.0000 8.1391 -5.2161
50.0000 -12.3475 -19.1363
50.0000 7.3992 17.8851
50.0000 -13.1023 -0.7239
50.0000 -8.4317 0.8348
50.0000 -3.2291 -1.0427
50.0000 -1.5511 -7.4375
50.0000 -7.2821 25.5133
50.0000 -2.9198 24.9088
50.0000 -4.0387 26.7262
50.0000 -0.2486 16.9838
50.0000 -9.1364 -10.6276
50.0000 7.4867 5.6179
50.0000 9.3585 20.0610
50.0000 4.4161 -4.9607
50.0000 7.8546 -18.6650
50.0000 9.7824 -20.7968
50.0000 -1.4637 18.7547
50.0000 -0.4468 4.2575
50.0000 6.9804 -15.9044
50.0000 -3.3665 -18.3921
50.0000 10.5899 2.4411
50.0000 -12.1215 -16.1646
50.0000 -6.0787 1.4053
50.0000 5.5808 -19.9986
50.0000 1.9136 29.8639
50.0000 -12.0514 -21.5697
50.0000 -12.7292 -29.8147
50.0000 -9.2888 21.1496
50.0000 10.8973 1.3447
50.0000 -9.3419 19.7547
50.0000 5.6780 -18.3805
50.0000 7.6030 -8.3517
50.0000 -2.9304 -7.5936
50.0000 10.4546 14.4758
50.0000 1.2669 -8.5412
50.0000 -3.6264 0.6365
50.0000 11.7958 16.6612
50.0000 -5.8777 21.4900
50.0000 -1.9267 25.1304
50.0000 2.5740 24.9974
50.0000 3.5265 18.4168
50.0000 -11.2814 -14.3488
50.0000 -2.0340 -2.2279
50.0000 5.3379 -29.4533
50.0000 -12.9433 -23.5702
50.0000 -7.7050 -28.0595
50.0000 -12.8697 -13.4918
50.0000 4.2729 -20.0618
50.0000 -6.5987 -13.2881
50.0000 12.7664 -13.8852
50.0000 0.1122 -11.5300
50.0000 14.3888 -8.4541
50.0000 11.4586 -8.9452
50.0000 5.0300 19.6711
50.0000 6.8990 7.3122
50.0000 -4.0358 -0.4024
50.0000 -14.3352 -10.6863
50.0000 12.3759 -29.7318
50.0000 -10.0055 -18.4425
50.0000 8.4322 -12.9882
-50.0000 -5.2941 -10.0625
-50.0000 -7.9778 -25.2531
-50.0000 -14.5652 -10.8005
-50.0000 -4.4457 -10.6558
-50.0000 -8.4367 16.9135
-50.0000 7.7237 29.5685
-50.0000 12.1667 27.0804
-50.0000 -7.9245 6.9697
-50.0000 3.6675 12.3756
-50.0000 2.2155 18.9519
-50.0000 -2.9644 -6.3055
-50.0000 11.0918 -4.3290
-50.0000 -7.0971 -29.5795
-50.0000 -8.5596 7.8858
-50.0000 -7.0560 -14.5694
-50.0000 9.8417 21.7292
-50.0000 -9.1743 -21.9428
-50.0000 5.0370 -0.5405
-50.0000 -12.3836 13.3227
-50.0000 13.9185 -15.4987
-50.0000 -2.1697 -11.5917
-50.0000 1.5826 21.2041
-50.0000 -6.5047 19.4915
-50.0000 -6.1659 -28.2688
-50.0000 -9.9244 -17.6550
-50.0000 -12.4626 14.6042
-50.0000 -1.8176 2.9276
-50.0000 3.3738 -11.3408
-50.0000 -6.5419 2.4549
-50.0000 1.6267 24.4807
-50.0000 14.8707 25.1443
-50.0000 -5.9464 9.3217
-50.0000 -12.5247 20.8503
-50.0000 4.1675 6.4996
-50.0000 10.0582 -7.6741
-50.0000 11.0527 18.8038
-50.0000 -7.7065 0.3169
-50.0000 -8.7272 11.0718
-50.0000 12.8516 -21.3254
-50.0000 -14.6916 22.6470
-50.0000 1.7189 11.3721
-50.0000 -11.0281 5.1477
-50.0000 3.4530 -28.3686
-50.0000 -12.7778 -21.7430
-50.0000 -7.2275 -12.6691
-50.0000 2.4642 -18.0298
-50.0000 11.3802 -17.6591
-50.0000 10.7349 19.6694
-50.0000 -0.3380 -21.5254
-50.0000 10.0700 10.1879
-50.0000 11.6652 -29.9121
-50.0000 -13.8733 13.3015
-50.0000 0.5130 -1.1273
-50.0000 6.7246 -23.4099
-50.0000 6.9531 8.0488
-50.0000 2.8691 20.6960
-50.0000 -8.2082 16.0178
-50.0000 0.4634 5.3711
-50.0000 -13.1535 -13.2650
-50.0000 -11.6307 -12.0047
-50.0000 6.5990 -29.6946
-50.0000 6.6781 5.5198
-50.0000 -13.8036 2.6830
-50.0000 1.8970 -12.8783
-50.0000 14.1633 -2.8101
-50.0000 4.0760 -9.9953
-50.0000 12.3886 2.8881
-50.0000 -10.9411 -16.2236
-50.0000 -14.1339 1.0267
-50.0000 10.9065 12.9867
-50.0000 -11.0284 2.8316
-50.0000 -13.8299 8.3627
-50.0000 -5.0207 -26.3917
-50.0000 -8.5977 -12.5969
-50.0000 8.7053 -13.9174
-50.0000 2.4855 9.1195
-50.0000 -0.7119 4.0468
-50.0000 9.8403 -29.0856
-50.0000 -3.7346 -26.3846
-50.0000 -5.4580 -6.0575
-50.0000 10.0743 10.1347
-50.0000 -9.4258 -15.1592
-50.0000 4.4118 -1.9904
-50.0000 -0.9009 26.0398
-50.0000 9.7518 4.1092
-50.0000 4.3902 -0.0017
-21.3498 15.0000 7.3557
-41.7835 15.0000 -19.8364
-1.5505 15.0000 15.9216
46.5899 15.0000 9.8720
28.0311 15.0000 22.4186
2.8899 15.0000 -24.4804
29.3339 15.0000 6.7967
2.7150 15.0000 14.0049
-28.1500 15.0000 10.1211
9.3418 15.0000 -1.2594
-38.1947 15.0000 -10.4656
18.5872 15.0000 -13.1572
-12.5759 15.0000 5.5354
-14.6757 15.0000 -10.8759
-41.9323 15.0000 10.8813
-17.4317 15.0000 -12.3727
-39.9745 15.0000 -27.2776
39.6969 15.0000 -24.7816
-12.3051 15.0000 19.4861
-7.0108 15.0000 -12.0510
-44.9952 15.0000 -3.7196
-2.7128 15.0000 3.2487
-3.6537 15.0000 -11.4494
48.4743 15.0000 -6.6414
-24.8341 15.0000 -11.7002
22.7986 15.0000 -11.3868
20.4637 15.0000 22.0737
0.2230 15.0000 -8.5535
30.7149 15.0000 -16.5041
-32.9151 15.0000 24.0439
48.7176 15.0000 2.5187
-10.0019 15.0000 4.3006
-42.3420 15.0000 -7.6147
8.5572 15.0000 5.5565
-39.2542 15.0000 -4.3330
36.0994 15.0000 -13.4864
42.5658 15.0000 -3.6292
-19.4946 15.0000 -6.2869
-1.1300 15.0000 27.3274
38.8919 15.0000 -22.7107
31.7181 15.0000 11.4305
-13.1938 15.0000 5.8374
-46.7431 15.0000 3.2065
-33.2352 15.0000 -7.9515
-42.1619 15.0000 -14.3542
46.9924 15.0000 6.1697
-24.8901 15.0000 24.4765
28.7252 15.0000 2.2212
-20.1621 15.0000 -3.0241
24.6271 15.0000 -21.7364
47.5428 15.0000 22.4286
3.8285 15.0000 29.3427
47.4723 15.0000 -24.9139
7.9794 15.0000 -22.4681
12.3365 15.0000 25.5353
34.5241 15.0000 -16.0592
-36.8859 15.0000 -8.7195
-22.6513 15.0000 -15.2427
-9.4732 15.0000 -15.3616
-13.1265 15.0000 24.0556
28.9124 15.0000 -15.8620
-49.7037 15.0000 -18.2239
11.3666 15.0000 17.7068
15.3214 15.0000 25.8810
-46.0264 15.0000 -3.2709
-1.9152 15.0000 18.6621
-19.7855 15.0000 19.9203
-11.3175 15.0000 -2.0487
28.2643 15.0000 -26.4236
-22.2275 15.0000 -27.6812
-33.6691 15.0000 9.6205
-45.8351 15.0000 -7.1570
-4.3175 15.0000 -13.6750
17.4673 15.0000 -2.2800
-45.6440 15.0000 29.0868
-22.3971 15.0000 -1.7395
-42.6245 15.0000 18.0199
3.2463 15.0000 -14.1590
29.1726 15.0000 -0.4381
-22.5271 15.0000 -5.3161
15.3998 15.0000 -6.3660
-7.2163 15.0000 21.7303
44.0951 15.0000 -10.2223
-11.6071 15.0000 -5.6662
36.8554 15.0000 5.9126
-14.0331 -15.0000 18.6184
34.6528 -15.0000 3.8973
3.2996 -15.0000 22.7853
0.2106 -15.0000 16.5266
45.1522 -15.0000 8.6841
11.8869 -15.0000 8.2709
-38.8839 -15.0000 24.7506
39.8993 -15.0000 -19.4589
-5.7365 -15.0000 -20.1379
-25.0342 -15.0000 16.6432
34.1161 -15.0000 -3.3942
47.1900 -15.0000 -7.8244
12.4872 -15.0000 -15.7605
-43.8336 -15.0000 19.0877
49.8516 -15.0000 -9.2619
10.7471 -15.0000 25.8310
48.5694 -15.0000 16.1381
24.5299 -15.0000 -14.7929
-49.6966 -15.0000 15.8981
33.3933 -15.0000 22.5492
14.5755 -15.0000 -16.3801
36.4695 -15.0000 -9.2722
41.1510 -15.0000 1.0945
44.3651 -15.0000 -10.6415
-25.1069 -15.0000 -28.6478
-38.6144 -15.0000 17.8032
-24.2619 -15.0000 23.0748
-1.9363 -15.0000 0.6708
-17.9921 -15.0000 5.2724
33.7709 -15.0000 -21.9255
-20.5787 -15.0000 11.0026
4.0078 -15.0000 -5.4858
-48.1689 -15.0000 5.0403
31.9688 -15.0000 -19.8645
23.5221 -15.0000 -11.4063
17.2521 -15.0000 2.3689
-41.6728 -15.0000 1.3244
-16.2344 -15.0000 25.5270
33.3926 -15.0000 -0.8703
-22.1050 -15.0000 -14.2648
31.1893 -15.0000 24.4765
39.1252 -15.0000 3.4024
-14.9814 -15.0000 9.6978
49.4895 -15.0000 -10.9094
-43.5678 -15.0000 15.3054
33.9193 -15.0000 -12.6197
8.4630 -15.0000 13.9818
28.7001 -15.0000 18.0912
6.3866 -15.0000 -2.7150
-25.4888 -15.0000 22.2297
-26.5578 -15.0000 10.1667
-2.9391 -15.0000 15.3144
2.3712 -15.0000 -16.4910
36.9761 -15.0000 11.5591
-2.0539 -15.0000 -10.5644
-15.8008 -15.0000 -8.7667
39.4993 -15.0000 7.2679
10.0013 -15.0000 -25.4742
-32.9356 -15.0000 -10.6519
32.1530 -15.0000 -8.5311
-14.4012 -15.0000 9.1943
19.4484 -15.0000 -17.1629
23.2774 -15.0000 -29.0656
-18.4745 -15.0000 3.6912
1.6257 -15.0000 15.2473
17.3663 -15.0000 3.9071
49.3212 -15.0000 20.8957
-3.6197 -15.0000 9.7397
34.3669 -15.0000 -5.4038
7.8185 -15.0000 -14.5184
45.7344 -15.0000 19.3127
0.7456 -15.0000 -7.0286
29.2005 -15.0000 -21.0267
-33.3949 -15.0000 -22.0802
-44.3344 -15.0000 -15.8564
-18.1482 -15.0000 23.4757
-26.9648 -15.0000 19.5247
27.9980 -15.0000 -21.1330
42.4952 -15.0000 -14.5862
2.6290 -15.0000 10.0941
23.4106 -15.0000 23.8851
-43.1184 -15.0000 -29.1692
-15.0434 -15.0000 -0.0213
1.9612 -15.0000 23.7480
-24.0629 -15.0000 -2.2853
30.1450 12.6168 30.0000
44.3272 13.4725 30.0000
23.6352 -14.8654 30.0000
34.7648 13.8308 30.0000
45.7289 12.1055 30.0000
7.8453 -2.5405 30.0000
37.9470 -1.7743 30.0000
44.0640 8.5177 30.0000
-3.5024 12.6259 30.0000
-36.6362 12.8766 30.0000
33.6292 -6.5279 30.0000
-3.1816 -10.0206 30.0000
-34.4478 -10.6457 30.0000
-3.7528 6.2455 30.0000
-25.8578 -5.2450 30.0000
44.3057 -1.2856 30.0000
21.3045 -5.5574 30.0000
-3.4537 -3.7611 30.0000
7.6618 2.0789 30.0000
-2.3355 1.3759 30.0000
-2.1358 11.3770 30.0000
37.2425 3.5598 30.0000
-21.5133 13.6131 30.0000
33.2087 -10.1458 30.0000
-23.0048 -1.4199 30.0000
-31.0711 -6.1289 30.0000
-37.8379 -3.1287 30.0000
48.5224 -10.8418 30.0000
-25.2592 -10.5196 30.0000
5.8069 -12.0076 30.0000
-14.8157 -4.2506 30.0000
-24.4622 8.9924 30.0000
-23.5663 -1.3573 30.0000
-18.6008 14.5165 30.0000
-37.3234 3.5841 30.0000
3.9615 6.3997 30.0000
-13.8986 -0.8874 30.0000
-20.3079 -4.7018 30.0000
-3.6610 -8.7526 30.0000
-36.2367 7.8744 30.0000
28.9433 9.2802 30.0000
-25.6847 2.2586 30.0000
7.7268 1.3385 30.0000
-46.6435 -2.4885 30.0000
-39.2674 11.3791 30.0000
28.6598 -0.8571 30.0000
-17.1196 -9.3893 30.0000
11.7467 -4.4258 30.0000
12.5104 9.4368 30.0000
33.7717 5.1060 30.0000
2.6405 11.0010 30.0000
13.7728 -0.2866 30.0000
36.6203 -14.3571 30.0000
-43.4707 1.9124 30.0000
41.0777 -4.9176 30.0000
10.9445 -3.9280 30.0000
-32.7486 7.5597 30.0000
38.9877 14.4193 30.0000
-5.2332 2.4357 30.0000
-12.2247 10.3006 30.0000
25.8640 14.3635 30.0000
-4.9939 -7.8445 30.0000
-20.2552 -4.8278 30.0000
-8.4342 -13.4360 30.0000
-30.4436 -0.9009 30.0000
22.8131 -11.3305 30.0000
23.2373 4.0070 30.0000
37.6369 11.6727 30.0000
24.8440 -3.4326 30.0000
-7.2732 -14.5560 30.0000
8.9672 -5.6233 30.0000
-9.4051 12.5037 30.0000
22.2605 -0.9736 30.0000
6.5343 -8.1240 30.0000
8.5351 -10.6473 30.0000
-15.1322 -10.3808 30.0000
-26.8579 0.0698 30.0000
2.5874 10.7330 30.0000
-15.9186 7.6497 30.0000
-40.2236 -1.5206 30.0000
-9.0454 -4.9497 30.0000
-15.4304 5.0620 30.0000
47.7128 -9.2153 30.0000
-44.6011 5.1303 30.0000
33.5333 0.1557 30.0000
10.9380 4.3319 -30.0000
-26.7413 -14.6413 -30.0000
41.5705 -2.7675 -30.0000
37.9810 13.7296 -30.0000
31.1215 -9.2607 -30.0000
32.9353 -0.4257 -30.0000
42.6805 -10.8095 -30.0000
-24.4314 -12.5251 -30.0000
4.0763 -11.3026 -30.0000
-14.9168 13.9569 -30.0000
-27.7475 5.5646 -30.0000
41.3996 -12.5239 -30.0000
1.5568 -0.8547 -30.0000
-21.3134 -3.4361 -30.0000
-31.6414 4.9276 -30.0000
-14.4714 2.4709 -30.0000
3.1953 -9.5971 -30.0000
-41.4560 -11.4331 -30.0000
6.3387 5.0318 -30.0000
1.7507 -3.9126 -30.0000
33.1503 14.4226 -30.0000
11.2068 -7.1729 -30.0000
20.2015 -4.9389 -30.0000
-45.0923 -9.9950 -30.0000
-14.9319 9.0430 -30.0000
5.0759 -11.2519 -30.0000
-32.5525 -10.6689 -30.0000
39.6769 -14.9005 -30.0000
16.9053 -12.8634 -30.0000
-20.8656 14.9472 -30.0000
10.5714 4.9237 -30.0000
-7.6730 -12.6297 -30.0000
-44.4111 10.3127 -30.0000
-40.6150 2.0278 -30.0000
-0.5020 -11.0615 -30.0000
21.5384 3.2042 -30.0000
22.7751 4.2647 -30.0000
-49.1382 -11.4375 -30.0000
44.3986 -10.4108 -30.0000
46.9233 -5.0519 -30.0000
-39.7355 9.1708 -30.0000
-22.9701 11.0036 -30.0000
15.6841 -4.7386 -30.0000
-7.3825 -7.5140 -30.0000
44.9016 -4.9883 -30.0000
13.8044 14.7592 -30.0000
37.3797 -1.5770 -30.0000
-46.1027 0.9745 -30.0000
47.5642 3.5975 -30.0000
41.2076 10.2714 -30.0000
31.9676 3.6593 -30.0000
30.5862 -12.1044 -30.0000
-16.3620 2.7731 -30.0000
46.7505 -7.3551 -30.0000
49.8654 -12.4184 -30.0000
-27.9692 2.1327 -30.0000
37.8800 4.0308 -30.0000
19.6884 -6.6920 -30.0000
-33.1004 3.1587 -30.0000
-42.3998 -3.7330 -30.0000
-6.7802 -6.2633 -30.0000
22.0069 -1.5998 -30.0000
-40.6041 10.1340 -30.0000
-43.2164 -6.8055 -30.0000
38.3271 -3.8533 -30.0000
-35.4352 -5.9644 -30.0000
-2.0066 3.9727 -30.0000
-31.7642 -11.9902 -30.0000
34.2991 1.2257 -30.0000
42.9735 -11.7020 -30.0000
-20.9100 13.9277 -30.0000
36.6634 9.6532 -30.0000
9.3395 -4.8175 -30.0000
11.5221 -8.9385 -30.0000
12.3131 14.3347 -30.0000
2.9447 1.4782 -30.0000
-34.2208 -6.5211 -30.0000
-35.2513 -0.3239 -30.0000
-12.3521 5.1578 -30.0000
49.0581 -6.7229 -30.0000
9.2622 -8.7520 -30.0000
-27.6453 10.0226 -30.0000
22.2534 7.9014 -30.0000
-24.8944 8.2837 -30.0000
11.9602 -12.2622 -30.0000
15.0000 80.9886 -21.2052
15.0000 69.5804 16.6615
15.0000 42.4821 -14.5880
15.0000 44.1885 29.7414
15.0000 47.0493 27.8917
15.0000 19.6147 -26.8124
15.0000 71.0920 7.6222
15.0000 45.0199 7.0026
15.0000 19.0604 6.0013
15.0000 30.5105 -15.8780
15.0000 6.4775 17.0720
15.0000 72.9586 19.8684
15.0000 75.9615 2.2574
15.0000 -11.4503 -21.7136
15.0000 64.2172 11.9056
15.0000 0.5846 -5.3340
15.0000 72.9567 18.8938
15.0000 44.3936 -17.8928
15.0000 -4.7294 -11.6654
15.0000 57.4858 -0.5490
15.0000 76.3956 7.5043
15.0000 5.2113 -14.8166
15.0000 35.7932 -19.7585
15.0000 78.7748 6.1082
15.0000 12.8564 -6.7532
15.0000 3.2978 3.2930
15.0000 64.9281 5.0888
15.0000 -11.7045 0.1346
15.0000 75.0328 27.7117
15.0000 64.9732 26.8180
15.0000 84.9968 -2.1828
15.0000 34.1034 -9.9409
15.0000 44.8111 -5.3459
15.0000 84.8152 0.4177
15.0000 14.2989 12.6782
15.0000 -6.9572 2.5573
15.0000 4.9636 -19.8114
15.0000 46.3864 15.0033
15.0000 0.3121 7.5370
15.0000 32.4878 22.6934
15.0000 48.2213 -16.5516
15.0000 28.2982 19.2508
15.0000 3.0616 4.2766
15.0000 -9.9314 0.6720
15.0000 -0.4866 18.2219
15.0000 11.8736 -27.6014
15.0000 79.1954 0.7368
15.0000 -14.9276 29.0489
15.0000 2.6464 23.1528
15.0000 -8.9508 -27.3666
15.0000 10.0199 25.6282
15.0000 48.2017 -21.7147
15.0000 22.5421 -15.2385
15.0000 20.4845 -6.2032
15.0000 -10.2930 6.2038
15.0000 -1.0936 -10.0167
15.0000 25.5435 11.4212
15.0000 21.3028 -13.8270
15.0000 57.2124 13.9659
15.0000 22.5222 19.7392
15.0000 83.0600 24.0311
15.0000 64.3229 25.3009
15.0000 -1.5836 17.0880
15.0000 61.5319 -2.9812
15.0000 84.1709 24.7780
15.0000 80.5535 -6.9777
15.0000 84.3003 -25.7646
15.0000 14.0071 13.7557
15.0000 6.6302 -13.8172
15.0000 69.4410 -21.1711
15.0000 41.1104 -27.6187
15.0000 41.6934 15.8488
15.0000 51.7077 -15.6590
15.0000 21.1609 -6.9613
15.0000 45.2667 -9.2625
15.0000 63.3091 -26.4975
15.0000 39.0562 24.6984
15.0000 63.9827 2.0777
15.0000 -14.6288 7.9923
15.0000 84.4233 12.7759
15.0000 39.7717 28.6043
15.0000 66.0918 -15.7169
15.0000 46.3908 -6.5693
15.0000 -5.4557 -6.8260
15.0000 39.3642 -18.9596
15.0000 -8.7627 -1.9031
-15.0000 82.2183 4.0024
-15.0000 12.1702 15.6769
-15.0000 3.9570 -26.9495
-15.0000 75.8608 -0.6329
-15.0000 -13.5309 22.4021
-15.0000 3.8698 -20.4324
-15.0000 0.9833 -13.0541
-15.0000 80.1548 -10.3514
-15.0000 61.8716 6.5796
-15.0000 23.5738 -0.9516
-15.0000 15.1738 23.3726
-15.0000 18.0474 23.5517
-15.0000 47.1055 15.5229
-15.0000 -7.7944 -10.4708
-15.0000 58.0440 27.9007
-15.0000 6.7299 29.1496
-15.0000 71.9540 4.7183
-15.0000 29.3002 5.8201
-15.0000 13.0449 -9.7957
-15.0000 -2.7368 20.3596
-15.0000 23.0993 12.1823
-15.0000 79.3408 18.9705
-15.0000 83.1201 -23.9166
-15.0000 25.8109 2.7855
-15.0000 78.0910 11.9929
-15.0000 84.7313 -16.8207
-15.0000 23.5442 16.4402
-15.0000 -14.8240 15.6820
-15.0000 72.3064 9.2848
-15.0000 4.0433 25.6601
-15.0000 78.3863 6.6817
-15.0000 64.8171 -13.1831
-15.0000 22.8168 23.0423
-15.0000 45.7565 -0.4087
-15.0000 9.6946 -27.6620
-15.0000 73.6363 -16.6823
-15.0000 -9.9943 -14.5933
-15.0000 62.3846 24.3738
-15.0000 63.4619 24.1521
-15.0000 1.8708 4.3765
-15.0000 63.0090 -8.6460
-15.0000 70.7622 -13.7210
-15.0000 24.7281 -2.9077
-15.0000 21.8966 10.5755
-15.0000 56.8979 5.0392
-15.0000 12.9260 -17.3942
-15.0000 31.5906 5.2101
-15.0000 13.4557 18.9171
-15.0000 77.8743 18.9029
-15.0000 37.5140 -8.7972
-15.0000 31.3021 -11.4129
-15.0000 73.2281 -11.1532
-15.0000 74.8919 1.8251
-15.0000 42.1136 25.4247
-15.0000 69.4460 -2.3578
-15.0000 12.3416 22.0917
-15.0000 47.0607 -21.8514
-15.0000 7.9477 26.0396
-15.0000 80.3144 2.3426
-15.0000 49.6417 -10.9979
-15.0000 -12.7898 13.1403
-15.0000 -5.6036 14.4087
-15.0000 0.4049 -15.3350
-15.0000 22.9942 -24.4920
-15.0000 -0.9461 23.9446
-15.0000 13.7954 9.3979
-15.0000 0.1033 29.8956
-15.0000 22.0846 14.5668
-15.0000 25.2898 -28.3755
-15.0000 50.9599 21.0587
-15.0000 -5.9595 26.3123
-15.0000 22.7325 -16.4543
-15.0000 -0.5670 24.9083
-15.0000 5.2489 3.9608
-15.0000 78.6519 -19.3799
-15.0000 -13.5516 -10.2142
-15.0000 1.9618 11.5983
-15.0000 70.5343 -29.8184
-15.0000 79.9953 25.4521
-15.0000 76.3266 -26.2489
-15.0000 36.4205 -13.1620
-15.0000 29.3475 1.7151
-15.0000 22.5947 26.2342
-15.0000 36.1700 6.2799
-15.0000 33.5385 13.3744
-15.0000 42.6442 -5.8029
-1.5794 85.0000 -29.4234
4.1410 85.0000 -22.9842
-1.9695 85.0000 8.8910
-5.5291 85.0000 26.7360
-6.5847 85.0000 24.9972
9.5282 85.0000 4.4674
-10.6593 85.0000 -21.4719
1.2026 85.0000 -24.2800
-1.5029 85.0000 7.2254
1.7149 85.0000 -29.7075
-6.3527 85.0000 2.7033
-13.6985 85.0000 20.5845
-1.6047 85.0000 4.3453
-0.7196 85.0000 20.7583
-8.3085 85.0000 -4.5025
-4.9096 85.0000 -18.7950
-8.6251 85.0000 1.8658
3.1726 85.0000 -21.4442
-8.3153 85.0000 21.9114
-11.1161 85.0000 -21.4432
-9.3409 85.0000 -21.0462
-11.1065 85.0000 -7.9240
-7.0245 85.0000 19.9494
-12.0663 85.0000 -13.2720
-3.6398 85.0000 -20.9319
6.2945 85.0000 17.9526
-12.6097 85.0000 27.8993
5.1769 85.0000 -29.2947
-10.8877 85.0000 -4.7188
-7.6881 85.0000 -26.0922
-1.1449 85.0000 0.8166
3.7705 85.0000 -23.1966
-14.6545 85.0000 26.1252
14.1053 85.0000 4.7406
-10.2505 85.0000 -24.1856
3.6366 85.0000 26.7967
7.7144 85.0000 -23.1212
12.8021 85.0000 -2.0926
5.1422 85.0000 -7.3280
0.9800 85.0000 -11.4721
4.9796 85.0000 9.1710
-2.3807 85.0000 -6.2583
1.7601 85.0000 -4.0656
6.4155 85.0000 2.5188
-13.9132 85.0000 8.0247
-10.8389 85.0000 8.9755
-8.3367 85.0000 23.8679
-11.9313 85.0000 -11.6301
10.0757 85.0000 21.2983
-3.4293 85.0000 25.9869
-1.8310 85.0000 20.1891
2.9819 85.0000 11.8617
2.0788 85.0000 -5.8761
8.3093 85.0000 -17.1040
-0.7022 85.0000 -18.8166
2.7918 85.0000 -20.8358
12.6154 85.0000 7.0505
4.6997 85.0000 6.7344
-6.7479 85.0000 27.0585
-11.3921 85.0000 28.0328
11.3859 85.0000 -8.8137
7.7849 85.0000 -6.7373
1.0030 85.0000 19.0467
-6.3555 85.0000 20.0425
5.6010 85.0000 -15.2759
8.7476 85.0000 -29.9693
2.2631 85.0000 20.8057
1.6565 85.0000 4.7150
-14.4329 85.0000 -16.5767
11.3829 85.0000 23.2962
-11.8958 85.0000 -12.5906
-2.1150 85.0000 17.7959
-4.6161 85.0000 21.8521
-6.3120 85.0000 14.3599
5.7726 85.0000 -23.1690
-8.7528 85.0000 1.6847
-10.7851 85.0000 6.3564
13.7204 85.0000 11.0124
13.2094 85.0000 8.9447
-6.5344 85.0000 -13.0287
2.7661 85.0000 -27.0830
13.5554 85.0000 -19.1895
1.2099 85.0000 18.3786
14.8217 85.0000 5.8693
8.8131 85.0000 -26.1448
11.1516 -15.0000 -27.0393
-10.2378 -15.0000 6.2263
3.3522 -15.0000 -1.5868
-9.3706 -15.0000 27.2776
-4.7818 -15.0000 -27.4135
11.3278 -15.0000 5.2231
-5.7303 -15.0000 23.7700
4.1709 -15.0000 -9.7211
5.9362 -15.0000 16.9548
-13.0307 -15.0000 -11.8093
12.8121 -15.0000 9.1455
1.3101 -15.0000 27.6852
12.2861 -15.0000 -15.0811
-1.2236 -15.0000 -12.7330
-14.1935 -15.0000 7.4632
8.2258 -15.0000 18.9095
-10.4162 -15.0000 1.7601
5.0505 -15.0000 16.4739
-10.8448 -15.0000 7.0032
2.2718 -15.0000 9.7648
11.0795 -15.0000 1.2121
-9.7689 -15.0000 23.8918
-6.6670 -15.0000 8.7783
-0.6915 -15.0000 27.4558
8.5232 -15.0000 13.1167
4.0801 -15.0000 10.6120
10.5403 -15.0000 7.6355
-0.5346 -15.0000 3.0279
12.7936 -15.0000 18.9824
-4.2337 -15.0000 2.8661
6.6889 -15.0000 14.1565
13.7560 -15.0000 4.5787
-0.0904 -15.0000 -10.3111
-2.4009 -15.0000 5.4819
4.7896 -15.0000 -17.0680
6.9343 -15.0000 6.5156
-5.4303 -15.0000 23.4817
-7.4487 -15.0000 -2.0724
1.2681 -15.0000 -28.8560
3.5638 -15.0000 19.4803
14.4022 -15.0000 14.6022
7.0937 -15.0000 9.7291
12.9157 -15.0000 9.4652
-9.1004 -15.0000 -23.1269
12.1958 -15.0000 -19.2794
8.7133 -15.0000 3.3477
-4.8289 -15.0000 15.4385
1.4605 -15.0000 -14.3297
-2.9325 -15.0000 -5.5546
5.0132 -15.0000 -29.9468
11.5611 -15.0000 -0.0957
-13.4651 -15.0000 27.5263
13.5078 -15.0000 8.8289
-12.9065 -15.0000 23.1315
3.9671 -15.0000 -0.0435
5.3255 -15.0000 16.1395
2.6615 -15.0000 21.8905
4.7382 -15.0000 -12.9963
-8.8633 -15.0000 -19.8243
1.8267 -15.0000 10.6985
-7.7447 -15.0000 2.3438
6.6114 -15.0000 25.5916
5.6609 -15.0000 1.8436
-8.3573 -15.0000 16.4906
1.3389 -15.0000 0.1579
-12.6584 -15.0000 -16.0641
-13.0999 -15.0000 15.0271
4.9526 -15.0000 4.9099
-7.3750 -15.0000 -1.5996
-13.4014 -15.0000 -15.0641
14.2727 -15.0000 -24.2201
-12.6217 -15.0000 -19.6379
-10.6534 -15.0000 -4.6986
14.7794 -15.0000 -23.7766
3.3810 -15.0000 -29.0079
-13.5001 -15.0000 -27.3605
1.1095 -15.0000 -14.4094
4.5896 -15.0000 9.7356
-3.9464 -15.0000 -1.9430
6.7051 -15.0000 10.1071
-1.9859 -15.0000 4.1782
-10.5120 -15.0000 28.3155
7.3591 -15.0000 4.6450
0.6254 -15.0000 26.6638
12.1613 -15.0000 -28.2071
-13.8167 27.8574 30.0000
11.0704 52.7725 30.0000
-0.0963 63.9275 30.0000
-3.9258 63.3396 30.0000
3.8981 35.7586 30.0000
-8.9286 15.1960 30.0000
10.4286 65.1353 30.0000
-7.0067 10.2583 30.0000
-0.3991 53.1167 30.0000
2.3185 32.3135 30.0000
13.2252 2.1556 30.0000
10.9115 78.0073 30.0000
8.6779 45.3902 30.0000
-12.6162 47.1070 30.0000
-0.2502 -14.8723 30.0000
8.1261 -3.6016 30.0000
1.5074 52.2165 30.0000
1.5242 19.8935 30.0000
-6.5878 64.2399 30.0000
-3.0512 72.3447 30.0000
5.6949 37.4914 30.0000
-12.0659 63.6623 30.0000
-7.2431 -12.4784 30.0000
7.5738 51.4181 30.0000
4.9103 16.2842 30.0000
-4.6034 69.7093 30.0000
14.5055 -14.5083 30.0000
-1.1636 35.8706 30.0000
-2.9680 21.1992 30.0000
-8.8803 23.1966 30.0000
8.6284 51.0555 30.0000
2.9955 36.2008 30.0000
-6.7914 11.2070 30.0000
9.0835 46.6800 30.0000
-5.7820 24.7813 30.0000
-6.0528 13.3604 30.0000
2.4458 80.7647 30.0000
7.3963 -13.7565 30.0000
8.6793 8.7934 30.0000
-0.2032 56.5741 30.0000
3.8618 74.3152 30.0000
-6.4017 70.3095 30.0000
-14.8706 54.9463 30.0000
10.1862 26.6344 30.0000
-13.7804 21.5510 30.0000
14.1621 69.1967 30.0000
2.3666 29.7703 30.0000
9.8691 38.8169 30.0000
4.3293 52.5881 30.0000
-8.8700 71.4412 30.0000
11.2246 6.9866 30.0000
-1.2899 20.8986 30.0000
2.4318 69.0114 30.0000
14.9991 67.7676 30.0000
-1.1640 76.9456 30.0000
-8.0430 76.8700 30.0000
8.3182 65.9351 30.0000
5.1943 5.5581 30.0000
3.8845 61.8727 30.0000
-7.7847 58.2172 30.0000
-14.3477 43.7449 30.0000
-2.4217 1.0799 30.0000
13.7868 38.6795 30.0000
8.8909 31.6321 30.0000
-2.1811 14.8801 30.0000
-14.4077 39.8078 30.0000
2.1123 4.7380 30.0000
14.8833 3.3099 30.0000
5.8885 48.4135 30.0000
0.5762 -6.1149 30.0000
-13.5606 24.7773 30.0000
-1.6286 80.9744 30.0000
-12.2609 -1.4658 30.0000
14.4355 70.5848 30.0000
12.9071 63.9435 30.0000
-10.3427 -5.3228 30.0000
-0.2638 6.1528 30.0000
-9.0259 -14.7742 30.0000
2.1319 78.5808 30.0000
8.7562 24.5636 30.0000
-4.9962 -13.3308 30.0000
2.5955 -2.4909 30.0000
14.2999 72.1677 30.0000
6.6862 4.3585 30.0000
11.3955 35.1634 30.0000
8.3587 63.5038 -30.0000
-5.8002 52.1893 -30.0000
0.2568 21.1531 -30.0000
6.1835 82.1329 -30.0000
11.4359 0.4047 -30.0000
-8.1879 35.2788 -30.0000
-8.9688 56.0742 -30.0000
-13.7996 1.8305 -30.0000
4.5033 52.7704 -30.0000
4.4097 10.3533 -30.0000
7.8050 19.0667 -30.0000
-6.1471 16.4571 -30.0000
-1.3187 63.7093 -30.0000
8.5494 16.0305 -30.0000
-6.9037 -13.7429 -30.0000
-11.3975 57.7284 -30.0000
-11.5239 50.2472 -30.0000
5.2323 61.9880 -30.0000
-11.1433 76.7783 -30.0000
10.3369 72.6196 -30.0000
-5.5993 76.8625 -30.0000
-11.5732 -4.6677 -30.0000
12.0462 -6.6298 -30.0000
9.7658 -3.2790 -30.0000
-14.8869 12.9938 -30.0000
5.2784 41.0962 -30.0000
10.0865 -0.6847 -30.0000
-4.2463 17.1825 -30.0000
2.6350 -2.9304 -30.0000
6.1691 47.2991 -30.0000
7.1747 78.3110 -30.0000
8.0398 83.8412 -30.0000
-8.7390 9.3993 -30.0000
8.0987 53.1603 -30.0000
6.1370 50.6973 -30.0000
-14.8167 80.8885 -30.0000
2.2970 34.0351 -30.0000
-10.4889 81.8835 -30.0000
10.6478 67.4494 -30.0000
14.6753 26.5098 -30.0000
11.1327 45.9357 -30.0000
-4.8657 -7.2039 -30.0000
-10.5037 -10.9067 -30.0000
-0.9763 70.0977 -30.0000
7.8487 69.5914 -30.0000
13.4466 63.8140 -30.0000
-3.8726 26.3954 -30.0000
-12.6280 34.2570 -30.0000
7.0037 83.2653 -30.0000
13.2055 34.3229 -30.0000
-4.8999 -14.9796 -30.0000
-2.7044 81.2325 -30.0000
10.6597 -5.9340 -30.0000
8.4508 72.6474 -30.0000
-2.6644 29.2589 -30.0000
-6.4812 53.1841 -30.0000
4.3256 19.0509 -30.0000
-7.7834 40.1620 -30.0000
7.5523 55.0170 -30.0000
-1.8077 39.4372 -30.0000
-14.9438 11.4554 -30.0000
-8.3099 13.1748 -30.0000
13.1192 8.9599 -30.0000
-0.7220 49.9046 -30.0000
-1.0291 -7.3696 -30.0000
9.8828 33.2627 -30.0000
-0.2962 4.0736 -30.0000
13.7891 31.5338 -30.0000
-1.3058 45.4234 -30.0000
6.6724 0.6328 -30.0000
5.8560 16.3067 -30.0000
-6.9825 24.2044 -30.0000
10.0266 61.5405 -30.0000
0.6745 14.6300 -30.0000
-1.5559 81.0985 -30.0000
11.2927 55.2529 -30.0000
-6.4831 -2.4140 -30.0000
6.0740 51.7025 -30.0000
3.0298 30.0174 -30.0000
0.2263 52.8135 -30.0000
4.1134 38.7193 -30.0000
7.9706 62.8154 -30.0000
-10.2526 -13.9021 -30.0000
0.1336 26.7496 -30.0000
-10.5440 71.8253 -30.0000
