ply
format ascii 1.0
element vertex 1024
property float x
property float y
property float z
end_header
50.0000 5.5354 3.7090
50.0000 11.6034 34.6207
50.0000 9.8333 -39.6540
50.0000 -3.0360 -39.5232
50.0000 -7.5825 -29.5393
50.0000 -12.6960 -34.5898
50.0000 8.4152 17.9151
50.0000 -5.1186 -28.6233
50.0000 10.9060 20.2854
50.0000 6.7895 4.0831
50.0000 -6.1512 -30.2347
50.0000 -14.4655 10.1197
50.0000 -3.7419 -2.8316
50.0000 2.1414 -15.8847
50.0000 -10.3251 34.8140
50.0000 -13.5962 -12.5475
50.0000 -3.6203 -39.5417
50.0000 8.5277 7.0780
50.0000 10.8784 -7.6891
50.0000 2.6265 -11.7548
50.0000 -2.3648 15.5029
50.0000 -0.8219 30.1915
50.0000 -7.5392 -12.6887
50.0000 -10.1887 20.5170
50.0000 -0.4365 -30.9310
50.0000 0.5779 26.6667
50.0000 -7.4273 23.2448
50.0000 -3.4144 -14.3676
50.0000 -6.0739 25.0650
50.0000 7.7754 29.9104
50.0000 0.6020 -16.6673
50.0000 10.5043 -34.1961
50.0000 5.8210 -3.7909
50.0000 -7.2790 8.1654
50.0000 -0.8479 -9.7181
50.0000 1.8539 38.9804
50.0000 -12.2251 31.5486
50.0000 1.4066 18.4689
50.0000 -7.3844 -28.7383
50.0000 14.3175 21.7289
50.0000 -4.1276 19.4422
50.0000 -12.6709 39.9900
50.0000 -9.2922 24.6605
50.0000 14.5524 8.8209
50.0000 -11.3338 -25.4963
50.0000 -6.2770 -25.0306
50.0000 -2.6205 12.1020
50.0000 -0.9096 -36.6323
50.0000 13.3458 1.2428
50.0000 10.3506 -1.8553
50.0000 6.4380 -32.7292
50.0000 2.4999 -31.6559
50.0000 -1.8301 -25.3664
50.0000 1.6327 3.9510
50.0000 13.5434 -17.0167
50.0000 4.1351 36.4302
50.0000 -10.7289 -16.5395
50.0000 -11.3165 38.1091
50.0000 3.0742 -37.4154
50.0000 6.7425 -13.7191
50.0000 6.9703 7.8100
50.0000 4.1270 30.9660
50.0000 -0.7947 7.4596
50.0000 -12.0254 -5.2075
50.0000 -6.8485 -14.3581
50.0000 -10.8776 9.2537
50.0000 8.3212 -11.4036
50.0000 -1.1066 -18.7321
50.0000 2.3374 5.1903
50.0000 -1.9298 -0.9151
50.0000 2.0391 15.8606
50.0000 -5.5348 14.4479
50.0000 -14.0271 -38.4438
50.0000 12.3761 20.9591
50.0000 7.3045 30.9468
50.0000 14.6969 -35.8382
50.0000 -1.7793 7.5825
50.0000 -12.1804 5.1579
50.0000 -8.6938 12.1123
50.0000 2.2838 -12.4076
50.0000 6.0559 11.5760
50.0000 -2.3080 27.5008
50.0000 -2.0146 7.1527
50.0000 0.4165 -32.7326
50.0000 5.7761 16.5310
50.0000 -4.1821 3.7872
-50.0000 -4.4690 27.9781
-50.0000 7.4363 -3.0522
-50.0000 -9.3605 32.5896
-50.0000 7.8459 7.3726
-50.0000 -3.1398 -2.6345
-50.0000 3.1411 -13.4310
-50.0000 -6.6213 -24.0325
-50.0000 7.6939 -9.1357
-50.0000 3.2706 -27.3445
-50.0000 -10.4518 20.4045
-50.0000 1.6596 -3.6510
-50.0000 2.9362 -33.3465
-50.0000 -3.1302 -28.4058
-50.0000 3.0811 -10.3186
-50.0000 -4.2789 16.7205
-50.0000 -9.7535 -2.8614
-50.0000 7.1401 -6.1643
-50.0000 -13.4365 -14.9281
-50.0000 -10.4682 -29.6002
-50.0000 5.5812 24.4217
-50.0000 4.3351 -35.5607
-50.0000 1.5693 15.9729
-50.0000 -10.1524 16.6287
-50.0000 -1.3531 10.4384
-50.0000 -4.8845 18.9374
-50.0000 -9.7642 0.1598
-50.0000 0.5116 27.2327
-50.0000 -10.6439 0.4174
-50.0000 14.6577 10.6526
-50.0000 13.7640 37.2129
-50.0000 1.2852 -15.5194
-50.0000 -4.8190 26.0560
-50.0000 -9.6276 34.1796
-50.0000 -9.4731 10.9338
-50.0000 -2.6949 27.4626
-50.0000 10.9358 -38.9607
-50.0000 6.9483 -26.4885
-50.0000 10.0286 20.9115
-50.0000 -0.7958 18.5583
-50.0000 -1.4628 16.2131
-50.0000 -0.5045 19.0158
-50.0000 -4.5779 -29.5116
-50.0000 11.7585 -1.8900
-50.0000 4.6498 -30.7499
-50.0000 8.8858 -18.8587
-50.0000 7.6778 -2.2104
-50.0000 -0.7823 -20.6703
-50.0000 -13.6685 -26.3167
-50.0000 8.2103 -25.4151
-50.0000 -2.7362 -27.3070
-50.0000 -1.4245 1.2289
-50.0000 6.3456 -11.4904
-50.0000 -8.0871 20.6767
-50.0000 -11.7668 -10.9755
-50.0000 6.4375 25.7162
-50.0000 4.0789 11.0740
-50.0000 -9.1593 -31.1604
-50.0000 14.5912 3.6637
-50.0000 -12.0430 -36.7709
-50.0000 -5.3205 -28.8950
-50.0000 -14.8811 -30.8922
-50.0000 -8.6741 -17.2874
-50.0000 -11.2178 38.0262
-50.0000 10.2605 27.7382
-50.0000 -7.2619 -25.9027
-50.0000 12.6550 -1.4528
-50.0000 2.5745 13.3180
-50.0000 13.9515 -32.8195
-50.0000 5.5337 26.1992
-50.0000 13.9322 -30.1411
-50.0000 -7.0200 34.0761
-50.0000 -2.1270 22.6826
-50.0000 -6.8334 3.0606
-50.0000 -13.2456 -1.0651
-50.0000 1.0992 -13.9257
-50.0000 6.0746 -29.8124
-50.0000 1.6546 24.9264
-50.0000 -1.8548 -27.4102
-50.0000 -11.5751 -21.6037
-50.0000 9.6492 24.9093
-50.0000 -8.4031 -11.7161
-50.0000 10.3769 27.0058
-50.0000 5.7425 28.7785
-50.0000 8.3858 20.5837
-50.0000 4.9959 -25.8147
-50.0000 4.3394 15.4075
34.8811 15.0000 7.2255
22.2734 15.0000 33.9492
30.2592 15.0000 3.5326
-14.6027 15.0000 -22.2265
36.1602 15.0000 6.0910
-45.5322 15.0000 -13.5937
49.3197 15.0000 11.0041
-42.7325 15.0000 -13.7419
2.6675 15.0000 -16.2730
-38.0097 15.0000 36.5401
-16.2580 15.0000 20.1866
-38.3572 15.0000 19.0433
-14.2558 15.0000 -16.3836
29.4422 15.0000 11.0657
-38.2915 15.0000 26.6559
-37.9830 15.0000 -5.0222
-45.9916 15.0000 -5.3462
42.9972 15.0000 -28.4613
-11.1142 15.0000 28.7015
-12.9279 15.0000 -6.8868
-18.7233 15.0000 29.8308
-22.5478 15.0000 -29.9370
-41.5212 15.0000 23.5678
2.5433 15.0000 -16.0159
10.4132 15.0000 34.8624
0.5472 15.0000 -0.7688
47.0167 15.0000 18.3059
-31.8015 15.0000 9.3248
30.3802 15.0000 28.6782
-14.4004 15.0000 -2.4860
-49.5800 15.0000 27.4460
-32.0521 15.0000 -23.8662
-19.2143 15.0000 10.8603
-42.7408 15.0000 -14.1039
-41.3784 15.0000 35.5934
-48.3330 15.0000 -33.4975
-7.0199 15.0000 -10.0942
21.1312 15.0000 -4.0079
-23.3857 15.0000 -29.4618
-46.2612 15.0000 14.7581
-41.9840 15.0000 21.8400
24.2928 15.0000 -32.0937
-26.6312 15.0000 28.4046
37.9068 15.0000 7.0936
12.3499 15.0000 -18.2145
-44.9534 15.0000 -29.5562
-47.7243 15.0000 -36.6417
-45.6530 15.0000 22.8003
-28.3843 15.0000 4.1540
30.5314 15.0000 17.0291
35.5134 15.0000 31.9691
30.4245 15.0000 13.3587
38.8060 15.0000 18.2092
34.5046 15.0000 -20.4667
11.0633 15.0000 18.9476
-19.4373 15.0000 17.7538
40.6528 15.0000 36.1387
-4.5569 15.0000 28.5649
-24.8602 15.0000 35.2564
2.9565 15.0000 -2.1757
-5.8548 15.0000 39.2519
8.6579 15.0000 29.0377
49.5285 15.0000 -2.7985
-18.4611 15.0000 -13.8080
23.6988 15.0000 28.7781
18.4778 15.0000 -33.9039
-2.6119 15.0000 0.6241
-49.0595 15.0000 1.3090
-30.6781 15.0000 -8.1605
-26.0237 15.0000 -14.8870
31.6424 15.0000 35.9514
19.3730 15.0000 25.3699
-36.6478 15.0000 -24.2175
-30.5047 15.0000 18.7690
28.9704 15.0000 -16.1678
41.8087 15.0000 -13.1513
30.5112 15.0000 1.8286
34.3089 15.0000 -9.7803
34.3726 15.0000 30.2492
-40.0014 15.0000 -32.0284
-47.2631 15.0000 18.8277
-12.9086 15.0000 17.4146
-32.1437 15.0000 23.7934
-17.7292 15.0000 22.9412
35.0948 15.0000 11.2886
-19.6169 -15.0000 28.8273
-35.5256 -15.0000 18.3677
-47.0662 -15.0000 -34.8834
-20.5498 -15.0000 -29.6801
36.4325 -15.0000 6.0479
-7.9577 -15.0000 13.3999
6.1080 -15.0000 38.4471
-32.2331 -15.0000 -0.3765
-16.0777 -15.0000 -11.3592
38.2150 -15.0000 -35.7284
-2.7341 -15.0000 19.1323
-18.3892 -15.0000 -7.9061
-41.8816 -15.0000 -8.0933
-31.8117 -15.0000 12.9457
-0.6757 -15.0000 33.3786
4.7995 -15.0000 29.4246
19.0085 -15.0000 -17.5553
19.3620 -15.0000 -17.1941
21.0251 -15.0000 -12.7852
-12.9412 -15.0000 -13.0935
10.0041 -15.0000 -32.1196
-34.7684 -15.0000 -2.1101
12.8606 -15.0000 -27.1904
-29.0717 -15.0000 -12.3153
6.0441 -15.0000 -3.3098
-31.4423 -15.0000 3.9025
32.9056 -15.0000 16.9413
5.4422 -15.0000 -12.7119
15.2841 -15.0000 -7.1836
-34.4170 -15.0000 -36.3452
-28.5078 -15.0000 10.1390
44.4392 -15.0000 30.9379
14.7266 -15.0000 34.6576
-45.9522 -15.0000 3.4404
43.9646 -15.0000 -22.4556
-27.0757 -15.0000 16.2225
27.5047 -15.0000 -17.1626
-26.5968 -15.0000 17.5287
32.0463 -15.0000 -31.6355
-30.4189 -15.0000 -16.9339
38.6881 -15.0000 -32.6020
14.2902 -15.0000 -33.5581
33.2804 -15.0000 12.2137
-3.3212 -15.0000 -27.2595
-37.1296 -15.0000 -0.6936
-6.4786 -15.0000 21.5738
-16.4772 -15.0000 -3.7207
38.0226 -15.0000 -32.9426
6.7615 -15.0000 19.7944
-17.2653 -15.0000 9.0653
1.3937 -15.0000 -39.6181
-11.7822 -15.0000 -39.1362
28.1956 -15.0000 24.7812
38.8692 -15.0000 -10.5954
-10.8726 -15.0000 -17.2286
8.0122 -15.0000 8.7095
36.3760 -15.0000 -31.2215
23.7643 -15.0000 3.7894
30.5799 -15.0000 2.6238
-3.0783 -15.0000 30.2262
-44.7188 -15.0000 -19.2281
-1.3212 -15.0000 39.4534
-8.1664 -15.0000 -26.8539
-31.7674 -15.0000 5.1204
-32.6069 -15.0000 -28.3824
-1.9822 -15.0000 -36.1387
48.2459 -15.0000 13.5337
-11.1232 -15.0000 28.7314
9.5630 -15.0000 27.3318
-33.3077 -15.0000 24.4250
0.3529 -15.0000 17.1832
-36.4487 -15.0000 -4.4071
-20.6047 -15.0000 -7.9021
14.1110 -15.0000 -17.0788
-40.2878 -15.0000 19.6702
33.4589 -15.0000 30.3819
-14.6578 -15.0000 14.7050
39.4652 -15.0000 -20.8536
-34.5490 -15.0000 -23.2724
-40.0619 -15.0000 25.7661
-26.8319 -15.0000 35.2845
-37.9942 -15.0000 19.5438
-35.0946 -15.0000 -16.0605
-43.5933 -15.0000 5.5574
-34.1670 -15.0000 -35.2024
3.4486 -0.2675 40.0000
-28.0629 -6.2641 40.0000
-46.0226 13.2711 40.0000
-12.1597 -11.9497 40.0000
-34.3345 5.8139 40.0000
12.0160 11.0915 40.0000
49.4401 11.2573 40.0000
-23.9228 -11.9743 40.0000
7.8063 13.0158 40.0000
0.1945 12.5308 40.0000
-34.9788 9.5932 40.0000
15.1371 14.3273 40.0000
1.2429 2.9426 40.0000
-33.4100 3.3386 40.0000
-9.3533 -5.8972 40.0000
-26.8392 12.2740 40.0000
-29.5913 -8.9828 40.0000
48.1479 9.8485 40.0000
25.4591 9.3773 40.0000
40.2640 4.9556 40.0000
28.1833 -2.9690 40.0000
-40.9758 -6.6070 40.0000
-13.3250 -6.1629 40.0000
15.8525 -7.3416 40.0000
-35.6974 -9.4889 40.0000
-38.1683 -10.8335 40.0000
-28.0339 5.2388 40.0000
-23.8876 0.7024 40.0000
-32.3963 6.3319 40.0000
-23.3871 0.2851 40.0000
19.5396 14.2458 40.0000
-1.7842 10.8670 40.0000
-36.8128 7.1647 40.0000
-9.0856 0.2601 40.0000
-5.7217 -3.7424 40.0000
23.7165 -2.7097 40.0000
-36.1830 -1.0016 40.0000
38.6448 14.0510 40.0000
44.6817 -7.1213 40.0000
-10.6315 -12.3105 40.0000
47.5803 10.8029 40.0000
5.9041 0.7796 40.0000
6.0081 -0.1800 40.0000
-16.8905 -6.6712 40.0000
20.4370 0.4230 40.0000
37.5428 13.0358 40.0000
35.4051 2.2717 40.0000
-31.0236 0.9343 40.0000
-5.6024 3.5043 40.0000
-1.1873 -7.7068 40.0000
-46.4771 -1.5423 40.0000
30.3446 6.9285 40.0000
-37.0149 0.8156 40.0000
35.1825 11.1821 40.0000
34.6581 -5.7937 40.0000
-19.8989 -7.6131 40.0000
44.9187 -13.1190 40.0000
42.4765 7.7091 40.0000
-0.7806 7.2022 40.0000
5.7636 11.3708 40.0000
-41.6442 -2.4110 40.0000
19.5991 11.7311 40.0000
-41.0012 -3.1364 40.0000
-18.7508 0.3983 40.0000
-8.1252 -9.1001 40.0000
18.3078 0.0905 40.0000
-29.2548 8.5748 40.0000
25.6751 -8.0422 40.0000
37.8202 -7.1358 40.0000
11.0419 -6.9775 40.0000
22.6703 5.9214 40.0000
-31.9727 10.3400 40.0000
-33.7586 1.5667 40.0000
-42.5783 -11.2955 40.0000
-31.2186 -1.3173 40.0000
33.5631 -9.2773 40.0000
26.5416 5.3628 40.0000
-29.5714 13.1208 40.0000
-41.7374 6.1604 40.0000
-10.6220 -14.8606 40.0000
-45.3563 3.7617 40.0000
26.2747 14.0789 40.0000
-2.7298 3.0597 40.0000
-39.9187 11.4172 40.0000
20.7742 2.9144 40.0000
1.8545 4.2573 -40.0000
41.6550 -13.9034 -40.0000
47.3715 5.4112 -40.0000
13.1254 -9.4133 -40.0000
16.3448 14.1992 -40.0000
23.3706 -7.8380 -40.0000
-49.8275 2.4814 -40.0000
30.3008 4.6244 -40.0000
-1.8638 -11.2415 -40.0000
0.4790 10.7702 -40.0000
-28.2858 7.3416 -40.0000
17.4529 -12.3868 -40.0000
30.6339 -10.0825 -40.0000
-38.3052 -10.6705 -40.0000
-27.8513 -9.8901 -40.0000
-15.0896 5.2853 -40.0000
23.9261 -12.1365 -40.0000
-41.5900 14.1226 -40.0000
-13.1392 -10.4014 -40.0000
11.4550 -4.9586 -40.0000
19.3152 4.8336 -40.0000
11.0345 -3.5190 -40.0000
-21.9806 14.1089 -40.0000
22.1119 -2.5597 -40.0000
47.3682 -6.2499 -40.0000
9.7227 -8.6842 -40.0000
39.8022 -7.5887 -40.0000
-49.2674 -11.2797 -40.0000
-15.7740 -14.7259 -40.0000
-35.0137 9.0869 -40.0000
24.6218 1.6727 -40.0000
-26.4545 14.9939 -40.0000
19.1274 2.7797 -40.0000
11.0441 11.1726 -40.0000
-18.8181 7.3533 -40.0000
45.7841 -2.0808 -40.0000
-13.9111 -14.8085 -40.0000
13.6513 -5.9136 -40.0000
33.3551 -4.5296 -40.0000
12.9995 -9.9192 -40.0000
-0.9663 -10.4391 -40.0000
-26.9589 -3.6596 -40.0000
-46.3931 -0.8843 -40.0000
-10.3108 -13.2215 -40.0000
-18.4150 11.9280 -40.0000
14.7810 -10.7523 -40.0000
-32.6965 2.9533 -40.0000
1.1772 1.3968 -40.0000
7.7969 12.2049 -40.0000
39.3373 1.8210 -40.0000
18.2110 -11.8744 -40.0000
-46.5248 -9.2605 -40.0000
16.3832 3.2608 -40.0000
-41.4444 -1.5420 -40.0000
-36.3274 6.0099 -40.0000
-9.2753 -1.0151 -40.0000
29.5256 0.6308 -40.0000
-32.7876 -10.7954 -40.0000
-25.3597 12.9860 -40.0000
45.5820 3.1581 -40.0000
-40.7841 -0.9196 -40.0000
10.9236 -11.2643 -40.0000
-30.6668 2.9336 -40.0000
-26.1168 12.0745 -40.0000
-28.3331 9.6603 -40.0000
23.1866 -8.6663 -40.0000
-36.1569 -10.0738 -40.0000
-33.5771 -5.7266 -40.0000
38.7776 -12.1652 -40.0000
27.7296 -2.4737 -40.0000
-2.1624 7.6802 -40.0000
22.2297 8.8614 -40.0000
20.8510 -0.2141 -40.0000
38.9067 6.4451 -40.0000
12.8071 12.3116 -40.0000
-1.8546 -11.7529 -40.0000
-30.4369 -11.0528 -40.0000
21.3891 -6.8359 -40.0000
-29.7882 -7.8285 -40.0000
42.8139 -12.2119 -40.0000
-17.9364 6.2789 -40.0000
17.2177 -7.8663 -40.0000
24.4714 3.6168 -40.0000
34.7573 -13.0536 -40.0000
-12.9265 9.2383 -40.0000
50.0000 -4.5552 -6.6707
50.0000 -54.0498 -6.5225
50.0000 -73.5094 38.1652
50.0000 -5.9045 -10.7790
50.0000 -34.8480 35.0532
50.0000 -72.9567 -12.1027
50.0000 -17.1566 18.1544
50.0000 -32.9991 16.0227
50.0000 -48.9854 5.5947
50.0000 -42.1098 -10.3445
50.0000 -41.2568 -11.4281
50.0000 -43.6363 4.4713
50.0000 -36.9288 13.2570
50.0000 -39.8320 -5.2581
50.0000 -15.3511 36.6955
50.0000 -49.1471 -19.7528
50.0000 -43.1020 34.8577
50.0000 -62.4962 -2.3374
50.0000 4.6347 1.9700
50.0000 5.6279 16.7649
50.0000 -45.2969 34.8611
50.0000 2.3741 35.2104
50.0000 -24.2288 31.7964
50.0000 -69.9077 -21.7227
50.0000 -22.7736 -38.5075
50.0000 -29.4783 -23.4283
50.0000 -0.6097 -26.2099
50.0000 -26.1883 -37.2537
50.0000 -26.3974 38.5393
50.0000 -38.5633 0.8200
50.0000 -19.9662 -19.8794
50.0000 10.3329 -29.7187
50.0000 -42.0212 22.4507
50.0000 -26.6994 -10.8491
50.0000 -53.8847 -21.9146
50.0000 -47.3221 14.9640
50.0000 -61.0040 29.7196
50.0000 -54.4397 32.3068
50.0000 -13.7191 -10.9892
50.0000 -37.0722 -25.1501
50.0000 -57.2815 4.7303
50.0000 -18.3432 -22.3996
50.0000 8.1478 36.3294
50.0000 -45.9459 29.8591
50.0000 -24.7645 -31.8859
50.0000 0.8783 -24.1550
50.0000 8.7009 26.9650
50.0000 -22.8071 16.4681
50.0000 -80.1376 -19.7298
50.0000 -44.0597 -18.8056
50.0000 -78.9710 22.7965
50.0000 -65.8597 -32.8585
50.0000 -13.2612 -6.0211
50.0000 -39.7414 38.4286
50.0000 0.3068 30.5923
50.0000 -32.0747 -28.3870
50.0000 -14.5600 31.4209
50.0000 3.0007 5.9757
50.0000 -43.3515 4.4911
50.0000 -49.4172 19.0742
50.0000 -71.5653 -4.3066
50.0000 -57.9495 25.5600
50.0000 -27.1246 19.6084
50.0000 14.7070 -33.0714
50.0000 -63.3489 20.9519
50.0000 -29.2537 19.5701
50.0000 1.7061 15.3362
50.0000 -39.0906 -4.7020
50.0000 -77.1295 -30.5650
50.0000 5.6226 33.1760
50.0000 -13.5594 10.9792
50.0000 -54.0189 -20.6464
50.0000 -53.6484 34.3600
50.0000 -81.3688 12.0551
50.0000 -63.7829 -30.9885
50.0000 -61.7948 12.2904
50.0000 -21.6897 -7.9755
50.0000 -54.3857 -7.1038
50.0000 -66.7395 25.8115
50.0000 4.8991 -16.3981
50.0000 -70.3136 17.1223
50.0000 -0.4887 9.4675
50.0000 -23.7951 21.8281
50.0000 -70.9741 -21.8662
50.0000 -4.3644 -13.5299
50.0000 -61.8494 -18.4397
20.0000 -83.3336 35.1991
20.0000 -5.2030 18.0942
20.0000 7.8395 -31.8101
20.0000 -32.3770 -31.0724
20.0000 -49.0607 31.4986
20.0000 -74.4099 23.6834
20.0000 6.2329 -25.3878
20.0000 -61.7329 2.1241
20.0000 -22.0125 4.9950
20.0000 -33.4139 -15.6443
20.0000 -33.9144 1.8822
20.0000 8.1815 12.7415
20.0000 -10.5792 -30.2486
20.0000 -18.1654 -19.0054
20.0000 -52.2700 31.0081
20.0000 -45.7908 -18.6598
20.0000 5.5592 3.4003
20.0000 -21.2136 -30.1030
20.0000 -56.7961 15.4862
20.0000 9.5930 10.1306
20.0000 -3.8077 11.6935
20.0000 -41.5553 -38.6573
20.0000 -52.9845 -38.3649
20.0000 -14.0865 28.3591
20.0000 -29.1921 1.5524
20.0000 -54.3257 -10.5707
20.0000 -6.5073 -23.9649
20.0000 -2.4934 38.0703
20.0000 13.2509 9.0595
20.0000 -63.8038 -12.6920
20.0000 5.6676 22.1166
20.0000 -53.2257 -32.4009
20.0000 -60.4895 -34.3690
20.0000 -54.7132 26.7074
20.0000 14.1871 -3.1239
20.0000 -46.8078 36.1604
20.0000 -46.2574 23.2102
20.0000 -80.6605 -26.1152
20.0000 -4.3052 33.1910
20.0000 -64.5847 -34.3135
20.0000 -48.8745 10.1756
20.0000 -20.5069 16.9282
20.0000 8.6170 -27.9522
20.0000 -68.0016 -14.3863
20.0000 -5.6741 -29.3844
20.0000 -76.4111 -9.7166
20.0000 5.8966 26.0104
20.0000 -61.6836 -1.5963
20.0000 -2.9555 -23.2806
20.0000 -78.9151 -9.0713
20.0000 -46.5677 -9.1846
20.0000 -32.8057 -5.8514
20.0000 5.8080 -2.4836
20.0000 5.1114 16.3317
20.0000 -11.9509 12.5790
20.0000 -2.0904 -26.0522
20.0000 -68.5729 3.8322
20.0000 -11.6523 -35.2339
20.0000 -62.8255 -25.5925
20.0000 6.9681 3.0293
20.0000 -78.8986 38.3046
20.0000 -21.1333 5.7733
20.0000 -52.3418 9.0132
20.0000 -23.3166 0.0937
20.0000 -47.4143 -36.3088
20.0000 -73.2536 -8.4040
20.0000 12.7709 -8.5345
20.0000 2.3863 -29.3676
20.0000 -17.2540 -29.3086
20.0000 -28.9298 -9.7278
20.0000 -65.9980 30.1602
20.0000 -32.8566 1.4473
20.0000 3.5363 -5.6717
20.0000 -81.1041 10.6850
20.0000 -6.3850 27.0597
20.0000 -0.8665 -21.9351
20.0000 -73.2882 33.2480
20.0000 -43.7416 -5.2637
20.0000 -46.1637 -21.5546
20.0000 -71.3866 -27.2852
20.0000 -17.7276 16.8746
20.0000 1.1797 -25.8707
20.0000 -24.4487 31.1357
20.0000 -77.8813 10.0707
20.0000 -55.6831 14.9770
20.0000 -15.6798 4.8383
25.9242 15.0000 -25.4556
20.2429 15.0000 -38.7241
43.5976 15.0000 -13.4674
32.9608 15.0000 0.4402
39.8349 15.0000 -24.4860
24.8827 15.0000 24.6883
46.1017 15.0000 2.2825
23.4130 15.0000 35.9340
38.5637 15.0000 16.1342
33.2825 15.0000 -8.1094
31.3701 15.0000 22.2304
33.8094 15.0000 -22.9536
34.8559 15.0000 16.0991
43.7852 15.0000 -22.8485
23.9822 15.0000 -38.3104
30.2081 15.0000 25.1114
32.3517 15.0000 5.5493
23.5259 15.0000 26.8599
29.2451 15.0000 -24.4821
26.7198 15.0000 8.4695
43.2283 15.0000 -2.1886
33.3416 15.0000 25.6307
37.6122 15.0000 8.9099
26.9096 15.0000 23.1382
24.9017 15.0000 -27.3449
35.5951 15.0000 4.7010
35.1647 15.0000 7.0371
20.7155 15.0000 -31.3197
44.3001 15.0000 -36.0033
41.3963 15.0000 36.1626
24.9061 15.0000 37.2352
41.7181 15.0000 -6.5701
38.1629 15.0000 -35.3285
45.1625 15.0000 15.2393
23.0267 15.0000 -25.4842
33.9422 15.0000 -24.1887
33.5565 15.0000 14.0580
20.7207 15.0000 32.6859
30.6614 15.0000 -34.7826
21.9515 15.0000 -27.3301
27.9895 15.0000 13.9786
21.1576 15.0000 4.4525
20.4803 15.0000 23.8588
42.3068 15.0000 -37.7836
29.5650 15.0000 -1.6700
42.1730 15.0000 32.2622
27.5204 15.0000 -27.1170
27.5337 15.0000 3.4253
29.5844 15.0000 -39.0801
36.1205 15.0000 14.4807
37.0929 15.0000 1.9968
33.5490 15.0000 35.0390
31.8965 15.0000 3.6199
39.7743 15.0000 6.6540
39.6621 15.0000 12.6457
47.7010 15.0000 -12.4587
40.0912 15.0000 9.8419
39.7012 15.0000 -24.6387
32.5009 15.0000 -21.7591
47.0182 15.0000 36.9225
34.3546 15.0000 -4.9141
38.7214 15.0000 10.9706
32.2110 15.0000 27.6942
39.5312 15.0000 -36.8815
28.1151 15.0000 38.1650
36.6871 15.0000 8.1690
40.2735 15.0000 -38.3708
33.6903 15.0000 5.1494
41.9729 15.0000 -0.2977
27.5708 15.0000 -21.4026
34.8173 15.0000 9.8711
41.7531 15.0000 14.5234
30.4440 15.0000 -34.0364
35.9009 15.0000 31.3117
48.9520 15.0000 -5.0598
21.8442 15.0000 -20.8294
46.0545 15.0000 26.0509
28.5537 15.0000 -0.9632
48.7673 15.0000 32.3771
39.5186 15.0000 26.7447
21.8664 15.0000 22.9319
30.1646 15.0000 31.1836
25.4510 15.0000 -2.0916
42.6011 15.0000 -34.6900
22.9898 15.0000 21.9041
43.3804 -85.0000 -4.3429
25.0220 -85.0000 23.4659
36.8702 -85.0000 -8.4446
43.3055 -85.0000 -37.8587
41.7725 -85.0000 -12.1205
25.8537 -85.0000 13.7437
31.0230 -85.0000 -6.4187
40.5372 -85.0000 29.9841
48.8149 -85.0000 12.3051
27.8842 -85.0000 -6.5293
25.5794 -85.0000 1.4431
45.3296 -85.0000 -12.5889
27.1259 -85.0000 32.2366
24.6332 -85.0000 5.0622
22.7312 -85.0000 -39.6173
30.7989 -85.0000 -12.1148
42.5403 -85.0000 25.6159
28.7509 -85.0000 -4.6180
21.2079 -85.0000 -29.7156
35.1691 -85.0000 5.1106
20.7792 -85.0000 4.3010
23.0688 -85.0000 31.3447
25.6570 -85.0000 -32.4286
25.6788 -85.0000 -9.5325
36.9511 -85.0000 37.0139
24.0640 -85.0000 9.6996
24.7266 -85.0000 3.1099
20.8144 -85.0000 -28.6707
49.5433 -85.0000 -6.4341
33.1871 -85.0000 12.7288
31.5140 -85.0000 2.5142
31.5518 -85.0000 -21.6867
24.7479 -85.0000 21.3442
42.6944 -85.0000 15.8474
37.1738 -85.0000 -17.2468
48.0270 -85.0000 16.0075
29.8344 -85.0000 33.6946
48.7037 -85.0000 -7.5088
39.3448 -85.0000 37.0843
40.9686 -85.0000 -15.5927
49.9481 -85.0000 -18.5873
48.0402 -85.0000 11.7837
44.5440 -85.0000 28.6758
46.0701 -85.0000 19.3937
29.4552 -85.0000 39.9617
38.3498 -85.0000 37.4543
29.1825 -85.0000 25.3287
29.4499 -85.0000 30.5413
48.3790 -85.0000 22.7585
30.3731 -85.0000 25.6738
21.2316 -85.0000 14.8891
39.2809 -85.0000 24.8739
26.9264 -85.0000 12.5159
44.6541 -85.0000 9.4641
25.1207 -85.0000 -10.0679
43.8727 -85.0000 -23.7429
24.4455 -85.0000 25.4620
46.7598 -85.0000 -33.6084
40.1279 -85.0000 4.3919
29.1436 -85.0000 6.6710
40.7916 -85.0000 -8.4401
25.2281 -85.0000 -6.6064
41.2212 -85.0000 16.7534
27.6625 -85.0000 -15.4729
28.8449 -85.0000 7.9828
41.0830 -85.0000 -19.8440
21.0943 -85.0000 -20.7501
44.5102 -85.0000 -30.7051
44.7756 -85.0000 -15.2037
30.1807 -85.0000 -36.0087
36.5908 -85.0000 -16.7148
33.1326 -85.0000 -35.3964
22.3964 -85.0000 -17.4204
47.9542 -85.0000 32.5682
44.9971 -85.0000 -34.8114
28.3821 -85.0000 -14.7314
44.3846 -85.0000 -22.6900
31.6036 -85.0000 3.8393
34.8115 -85.0000 8.9536
43.6102 -85.0000 11.9115
33.3913 -85.0000 -5.4553
21.3813 -85.0000 35.3754
39.5331 -85.0000 30.8789
49.9054 -85.0000 38.5356
43.2388 -85.0000 -25.3116
42.2463 1.5422 40.0000
31.5219 -28.2570 40.0000
44.2397 -57.1926 40.0000
33.0032 -36.1690 40.0000
34.8397 -60.4008 40.0000
49.2631 -79.3078 40.0000
43.4175 -75.7400 40.0000
27.3629 -14.5848 40.0000
23.3971 -69.9634 40.0000
46.5409 -15.3175 40.0000
45.3031 -10.6836 40.0000
21.4116 -24.9667 40.0000
46.5392 -8.6465 40.0000
43.0468 -18.3992 40.0000
25.2318 -51.9664 40.0000
26.1076 -22.9732 40.0000
22.8724 -46.3320 40.0000
46.7981 -79.7045 40.0000
44.9353 -54.8706 40.0000
30.8617 -22.7162 40.0000
24.8630 -24.8373 40.0000
22.9029 5.9500 40.0000
33.8153 -14.6129 40.0000
23.6140 -26.3344 40.0000
33.9424 -80.9981 40.0000
22.2726 -35.0981 40.0000
33.0576 -52.3992 40.0000
31.8796 -39.0178 40.0000
25.1928 -53.0634 40.0000
25.7911 -33.8953 40.0000
23.7547 -41.1647 40.0000
36.3385 -80.5876 40.0000
38.9454 -6.6457 40.0000
49.4737 -31.0185 40.0000
33.0099 -75.6641 40.0000
24.8719 -62.4052 40.0000
30.6586 -82.7532 40.0000
47.9333 -39.1912 40.0000
29.2931 -12.0087 40.0000
22.6350 -75.0568 40.0000
43.5332 -76.2438 40.0000
38.5449 -39.2972 40.0000
47.2006 10.5931 40.0000
31.5911 -2.6793 40.0000
27.9801 -0.9305 40.0000
38.7252 4.1337 40.0000
40.9718 -4.2198 40.0000
34.4327 -28.4036 40.0000
44.5679 -14.4019 40.0000
29.2415 -56.6317 40.0000
29.1841 -32.1513 40.0000
39.7649 -44.9092 40.0000
44.9970 -19.5075 40.0000
20.2947 -73.7466 40.0000
39.8445 2.6174 40.0000
44.0514 -82.7682 40.0000
45.4797 -8.6802 40.0000
43.3025 -74.2711 40.0000
21.1667 8.5618 40.0000
33.7629 -3.6421 40.0000
40.5141 3.6711 40.0000
48.1078 -18.9623 40.0000
27.5561 -28.3755 40.0000
40.8984 -84.3321 40.0000
33.2215 1.7163 40.0000
49.2938 -25.6324 40.0000
46.4927 -60.0945 40.0000
47.6218 -33.7505 40.0000
20.5999 -75.9995 40.0000
28.8601 -34.6503 40.0000
48.1597 -63.7169 40.0000
35.0609 -58.2384 40.0000
29.5802 -71.3678 40.0000
39.8639 -79.3693 40.0000
29.1753 -72.8711 40.0000
47.0340 -2.8629 40.0000
20.9909 -26.3801 40.0000
40.0408 -36.8670 40.0000
38.4426 -31.8875 40.0000
47.8979 -32.8932 40.0000
33.7745 -13.6556 40.0000
42.5560 -44.5150 40.0000
32.2936 -36.9197 40.0000
34.4321 -25.6993 40.0000
20.8842 -30.1396 40.0000
36.6588 -21.3289 -40.0000
47.4142 -52.9645 -40.0000
47.6212 8.4485 -40.0000
36.9086 -4.2896 -40.0000
30.3893 -35.1482 -40.0000
37.5785 -13.2751 -40.0000
33.5563 5.6512 -40.0000
36.8421 -23.1577 -40.0000
42.3812 3.4689 -40.0000
35.0381 -9.3431 -40.0000
48.8375 -38.1819 -40.0000
42.0492 9.3491 -40.0000
39.0133 -55.2216 -40.0000
20.1064 -35.4602 -40.0000
44.8466 -54.6807 -40.0000
23.7544 2.9055 -40.0000
46.2420 2.4269 -40.0000
40.3869 -11.9127 -40.0000
37.7394 -73.9586 -40.0000
35.8407 12.1532 -40.0000
37.4340 -11.8837 -40.0000
28.3604 -8.3666 -40.0000
26.9343 13.3349 -40.0000
48.5541 -53.1316 -40.0000
41.3512 -71.1924 -40.0000
27.0320 -52.1936 -40.0000
22.7477 -71.8203 -40.0000
45.7235 -46.4818 -40.0000
22.4085 -56.2036 -40.0000
47.4848 -82.6330 -40.0000
41.9489 -28.5435 -40.0000
46.6483 9.9009 -40.0000
27.5456 -2.6968 -40.0000
21.5777 -10.9213 -40.0000
38.4305 -7.3310 -40.0000
36.9189 -22.3634 -40.0000
28.6143 -56.3967 -40.0000
22.7546 -49.1955 -40.0000
31.7360 -44.8387 -40.0000
32.0843 6.8825 -40.0000
21.2916 -33.7930 -40.0000
41.0379 -29.6445 -40.0000
40.6002 -17.7554 -40.0000
30.1352 -33.8065 -40.0000
48.7414 8.0058 -40.0000
38.7574 -26.9419 -40.0000
30.5740 -63.6780 -40.0000
42.6361 -28.9202 -40.0000
43.9881 -38.9538 -40.0000
26.6304 -44.4809 -40.0000
35.5126 -58.9376 -40.0000
29.5540 -55.6877 -40.0000
34.1518 -52.5601 -40.0000
22.5894 -74.6391 -40.0000
24.2640 -66.3362 -40.0000
35.4901 -70.8075 -40.0000
26.6951 -83.5063 -40.0000
40.3362 -49.8991 -40.0000
33.6658 4.2886 -40.0000
38.5069 -10.0475 -40.0000
35.9935 -14.5790 -40.0000
39.3041 12.4236 -40.0000
37.6066 -41.8468 -40.0000
49.2814 -73.1782 -40.0000
41.0460 -58.1483 -40.0000
24.3150 -28.4623 -40.0000
37.0347 -43.1395 -40.0000
20.3226 -43.5056 -40.0000
21.8579 3.6425 -40.0000
38.9149 13.5933 -40.0000
34.8412 -76.3788 -40.0000
21.7315 -25.7695 -40.0000
33.3911 -3.7856 -40.0000
39.1527 -75.6607 -40.0000
44.4802 -54.7746 -40.0000
38.7400 0.7905 -40.0000
39.1361 -45.4156 -40.0000
29.7385 -36.8920 -40.0000
24.0462 -52.2094 -40.0000
44.4500 -14.8762 -40.0000
37.5418 -6.6868 -40.0000
21.0075 14.4270 -40.0000
26.5335 -76.4078 -40.0000
30.0792 -3.1429 -40.0000
43.6815 -59.7565 -40.0000
