ply
format ascii 1.0
element vertex 1024
property float x
property float y
property float z
end_header
50.0000 2.9695 -27.1337
50.0000 3.2578 5.2932
50.0000 -12.0093 -35.9032
50.0000 -13.2637 -27.8470
50.0000 -1.0458 -25.9174
50.0000 12.8821 31.3965
50.0000 -13.8279 25.5985
50.0000 4.3982 -14.9446
50.0000 -1.8253 -9.1117
50.0000 11.1465 12.3425
50.0000 -1.0746 16.6403
50.0000 -7.5324 28.8979
50.0000 -7.3416 -4.8354
50.0000 8.9982 12.8391
50.0000 -4.1693 -5.3654
50.0000 12.7890 37.4960
50.0000 -0.6836 15.3599
50.0000 -6.1893 15.7347
50.0000 1.9992 -2.4768
50.0000 0.2916 7.3808
50.0000 4.3161 -34.8433
50.0000 2.5525 -37.6448
50.0000 1.7411 29.6207
50.0000 11.6194 -29.0925
50.0000 13.4694 -27.0659
50.0000 -4.7961 39.7955
50.0000 6.6632 -7.1507
50.0000 -5.7637 -7.1879
50.0000 -10.7509 -34.6745
50.0000 14.8692 6.5008
50.0000 -3.7451 -30.5351
50.0000 13.3198 7.2443
50.0000 0.7810 -9.9338
50.0000 -5.9589 -18.1198
50.0000 -11.8167 -12.5013
50.0000 11.1074 -34.9919
50.0000 -11.2742 22.4747
50.0000 -0.2459 26.0608
50.0000 -13.9214 -28.3569
50.0000 -11.3959 -19.7954
50.0000 13.1198 9.0810
50.0000 14.6211 33.4837
50.0000 7.3249 -39.0610
50.0000 -8.4836 39.4537
50.0000 14.0020 39.8957
50.0000 5.9303 -11.3804
50.0000 -12.0065 12.1746
50.0000 10.2006 -32.1432
50.0000 0.9056 22.9569
50.0000 -13.9682 21.9184
50.0000 -9.5332 14.9764
50.0000 13.7568 -19.2583
50.0000 3.1677 -31.1574
50.0000 -1.9119 8.1651
50.0000 -2.2520 -6.3380
50.0000 -4.5961 36.8529
50.0000 -6.6351 -7.4849
50.0000 -8.7536 -2.1346
50.0000 -8.7342 11.5199
50.0000 5.4826 15.4346
50.0000 -7.8246 13.0758
50.0000 -5.5890 -22.3157
50.0000 14.7833 18.0843
50.0000 -13.5325 -30.0861
50.0000 -7.7633 6.5780
50.0000 -1.7297 25.7905
50.0000 -11.7328 31.5624
50.0000 -10.5409 -17.9693
50.0000 3.7981 26.2196
50.0000 2.1603 34.9285
50.0000 -13.9395 7.8768
50.0000 -11.4099 -32.4847
50.0000 1.8673 -32.9942
50.0000 -7.2034 17.0735
50.0000 -12.0381 16.9589
50.0000 -4.8908 22.4883
50.0000 -10.8206 33.1990
50.0000 10.1688 -2.2907
50.0000 -5.2028 15.0865
50.0000 5.3104 -33.0468
50.0000 6.5802 15.7242
50.0000 6.8952 33.4084
50.0000 -2.1448 14.3591
50.0000 -12.3239 -13.0151
50.0000 -9.5701 39.3028
50.0000 -4.5969 -39.4580
-50.0000 -3.6657 27.4523
-50.0000 -4.9367 25.7709
-50.0000 -7.3364 35.9942
-50.0000 -5.1462 -14.9564
-50.0000 7.2560 14.9557
-50.0000 -11.2860 -24.2745
-50.0000 1.4125 -19.6429
-50.0000 -9.7534 10.8989
-50.0000 13.2878 -16.8996
-50.0000 -1.3850 -30.8388
-50.0000 -4.2262 24.1931
-50.0000 2.9997 -38.7302
-50.0000 14.9912 -18.5311
-50.0000 1.4335 -7.5415
-50.0000 5.5973 -14.0374
-50.0000 6.0206 -24.8055
-50.0000 -9.7332 14.5307
-50.0000 9.2161 14.1580
-50.0000 8.6285 21.6623
-50.0000 -6.5816 19.6721
-50.0000 1.7897 28.5269
-50.0000 -7.7701 -20.0760
-50.0000 -0.3360 -37.6802
-50.0000 9.1634 33.9559
-50.0000 4.5214 -38.6468
-50.0000 10.3403 -22.7788
-50.0000 14.5955 9.0955
-50.0000 10.1184 -1.3203
-50.0000 9.2230 -13.4970
-50.0000 -11.6949 -39.4080
-50.0000 13.7842 -10.0070
-50.0000 -11.7041 -27.9219
-50.0000 11.4431 -22.4705
-50.0000 -1.0671 -27.8377
-50.0000 -11.4962 -10.0454
-50.0000 6.8963 20.5460
-50.0000 3.6866 10.3348
-50.0000 -0.3412 4.8969
-50.0000 1.0177 30.1001
-50.0000 14.4522 -9.5269
-50.0000 2.6627 -0.9206
-50.0000 3.2027 31.1218
-50.0000 -11.1631 -8.8801
-50.0000 -6.6213 29.3010
-50.0000 -14.8583 -28.5705
-50.0000 -13.7986 -18.4396
-50.0000 -3.7568 34.2419
-50.0000 6.3384 -32.3294
-50.0000 -12.1647 0.8027
-50.0000 0.5472 -22.3484
-50.0000 -14.0546 33.4515
-50.0000 5.4499 23.1093
-50.0000 8.6892 35.9228
-50.0000 -11.3337 -25.6279
-50.0000 9.2972 -11.1015
-50.0000 -12.2999 34.0131
-50.0000 -4.3553 -14.6470
-50.0000 14.9400 -29.1251
-50.0000 4.3656 7.9481
-50.0000 -13.6772 -3.8501
-50.0000 -5.5627 11.8365
-50.0000 -12.2002 -8.7374
-50.0000 -12.0250 25.8908
-50.0000 3.6566 -27.6024
-50.0000 12.8414 -26.1412
-50.0000 13.2936 -15.8238
-50.0000 -9.4365 -5.2473
-50.0000 4.6871 36.7815
-50.0000 4.2181 -31.6601
-50.0000 0.6010 35.4407
-50.0000 12.0810 -9.0578
-50.0000 6.8568 4.6902
-50.0000 -4.1623 24.9177
-50.0000 5.2433 -15.6175
-50.0000 -5.5498 -22.2045
-50.0000 3.2853 -28.0991
-50.0000 -9.7268 10.4301
-50.0000 -3.3860 -8.8505
-50.0000 11.6591 -28.2469
-50.0000 9.6067 -28.4050
-50.0000 9.7451 38.1400
-50.0000 10.7340 -21.2031
-50.0000 1.3816 -22.8936
-50.0000 5.8876 -39.9181
-50.0000 -11.6997 19.7543
-50.0000 -5.8829 -10.8911
-26.4532 15.0000 -25.7829
-25.8814 15.0000 26.0180
3.0837 15.0000 -25.8224
39.9618 15.0000 24.2491
-41.1997 15.0000 -5.3622
29.3914 15.0000 -12.4358
-23.8871 15.0000 17.1467
43.8559 15.0000 -28.3831
11.1529 15.0000 -37.8131
38.1902 15.0000 21.7745
19.4011 15.0000 18.9396
-38.7621 15.0000 -0.0498
-0.4036 15.0000 -27.2569
-45.1479 15.0000 -15.7946
22.8548 15.0000 -19.8239
-7.5525 15.0000 -6.1508
-16.6870 15.0000 38.4842
30.4809 15.0000 -25.2127
-13.3276 15.0000 21.4422
48.4515 15.0000 -12.0606
14.4266 15.0000 14.9447
-12.5271 15.0000 25.3956
-33.1880 15.0000 -29.1308
-23.8450 15.0000 25.2108
8.6783 15.0000 8.9767
48.6407 15.0000 -36.4774
40.8733 15.0000 -14.7525
31.9202 15.0000 -17.2080
15.3533 15.0000 -30.0251
21.3106 15.0000 37.6904
46.2821 15.0000 -18.8197
-46.5084 15.0000 -32.6936
13.1237 15.0000 34.6883
8.1663 15.0000 19.3547
19.1391 15.0000 15.9536
31.5276 15.0000 -25.4842
-2.0071 15.0000 32.6298
-23.0978 15.0000 22.8063
32.4821 15.0000 -34.0049
-41.2439 15.0000 33.2853
45.1426 15.0000 29.1557
-33.0268 15.0000 -11.8209
11.0086 15.0000 36.9501
-4.9108 15.0000 28.2483
-43.5236 15.0000 6.2843
7.9676 15.0000 -17.4304
31.4917 15.0000 -39.4799
-5.6192 15.0000 -32.9510
-43.7266 15.0000 7.0217
15.4766 15.0000 13.1300
-31.9496 15.0000 -33.6886
34.2677 15.0000 33.0950
11.1183 15.0000 33.4212
33.7074 15.0000 -37.1073
12.8624 15.0000 -2.5687
16.6227 15.0000 13.0008
23.6884 15.0000 -31.6298
-45.4026 15.0000 -4.3534
37.2177 15.0000 -10.7461
40.9681 15.0000 -32.1401
45.9203 15.0000 14.6755
34.3083 15.0000 -19.8497
5.0329 15.0000 11.2570
-16.1130 15.0000 -20.7420
49.8269 15.0000 -0.9415
39.9148 15.0000 10.9518
-7.3146 15.0000 32.1769
-14.6013 15.0000 -15.7975
17.9689 15.0000 -3.7459
15.5169 15.0000 -24.3369
-36.6128 15.0000 17.2047
-45.3803 15.0000 32.0674
14.3914 15.0000 7.9200
44.9456 15.0000 5.9530
-46.7165 15.0000 11.6012
4.1733 15.0000 -25.8757
16.8129 15.0000 2.5088
-32.6809 15.0000 -23.1329
39.6885 15.0000 5.4989
-20.3405 15.0000 -6.4604
16.4619 15.0000 2.2555
15.8281 15.0000 6.9632
-9.6797 15.0000 31.2974
-13.0862 15.0000 17.8857
23.1015 15.0000 -27.0961
15.0588 -15.0000 -35.3848
17.1228 -15.0000 19.5305
-16.0489 -15.0000 24.2773
10.1802 -15.0000 -3.8386
-9.9033 -15.0000 -8.9743
-43.8173 -15.0000 -28.9010
-14.1870 -15.0000 -38.9391
15.1365 -15.0000 -13.0347
13.5492 -15.0000 -23.5453
43.2773 -15.0000 -27.8804
22.3416 -15.0000 -9.4570
16.2978 -15.0000 -31.8155
-29.9766 -15.0000 39.7175
-3.8664 -15.0000 -37.7076
-0.4843 -15.0000 27.0731
-22.8799 -15.0000 36.7838
-38.0565 -15.0000 -31.4205
-24.2325 -15.0000 30.0078
12.4248 -15.0000 5.8569
-26.8631 -15.0000 -1.2499
27.1175 -15.0000 -28.1201
34.4611 -15.0000 6.0142
-25.2800 -15.0000 -19.3612
-7.2850 -15.0000 -28.3167
26.8116 -15.0000 -38.2672
44.0457 -15.0000 26.6120
24.9476 -15.0000 32.8585
-30.8508 -15.0000 -30.7719
19.7180 -15.0000 11.1953
12.4036 -15.0000 -31.0182
5.4635 -15.0000 -7.3254
-43.9865 -15.0000 21.4713
-46.0938 -15.0000 -29.6102
18.3098 -15.0000 9.9276
12.8982 -15.0000 32.6969
41.9885 -15.0000 -30.4669
31.9631 -15.0000 -26.7564
-37.6536 -15.0000 -32.2475
-25.8945 -15.0000 18.8601
-11.7571 -15.0000 -12.7230
5.9089 -15.0000 14.8785
11.2750 -15.0000 -35.9582
-47.8090 -15.0000 35.4730
45.0252 -15.0000 12.6117
-37.3791 -15.0000 -26.6870
-24.5076 -15.0000 14.0671
-34.6753 -15.0000 12.6126
-8.5551 -15.0000 11.0857
4.4149 -15.0000 -5.2243
-43.5098 -15.0000 -32.9502
10.1626 -15.0000 19.0985
38.0562 -15.0000 -39.0648
-35.5182 -15.0000 20.2082
-0.0641 -15.0000 39.7547
49.1698 -15.0000 31.3443
9.2340 -15.0000 -31.3756
21.3200 -15.0000 -14.9634
-36.5055 -15.0000 15.6896
36.3819 -15.0000 8.7062
4.9361 -15.0000 -21.1140
-12.3199 -15.0000 12.2845
-43.7529 -15.0000 7.4212
-40.3306 -15.0000 -18.1693
1.2897 -15.0000 31.5244
11.7159 -15.0000 -24.3579
-36.0517 -15.0000 32.8980
19.1786 -15.0000 10.5570
16.2158 -15.0000 -35.1863
-45.7899 -15.0000 -33.1579
-34.5407 -15.0000 29.5631
-48.2358 -15.0000 8.8865
2.9192 -15.0000 39.5927
-3.0548 -15.0000 5.1390
14.1664 -15.0000 35.9381
31.1590 -15.0000 -33.2104
-34.4921 -15.0000 -27.9813
-2.2939 -15.0000 -9.9447
32.2618 -15.0000 -0.9916
-5.8086 -15.0000 14.0534
-0.0539 -15.0000 -30.1007
14.2146 -15.0000 -17.8939
9.5602 -15.0000 -37.8803
-14.0522 -15.0000 -8.7465
-45.2154 -15.0000 3.8178
-18.8680 -15.0000 25.7040
-33.8989 11.3132 40.0000
-23.3785 12.2698 40.0000
-2.9186 -13.2391 40.0000
39.5673 -12.4052 40.0000
16.5045 -14.7758 40.0000
41.8299 6.9332 40.0000
39.2292 1.0709 40.0000
28.2419 14.3460 40.0000
-16.5759 -13.7603 40.0000
31.0331 8.7533 40.0000
4.2823 -9.7085 40.0000
-22.3798 13.9250 40.0000
-27.8394 13.1446 40.0000
-40.1395 10.0019 40.0000
-47.5620 -3.9911 40.0000
-1.1441 4.6932 40.0000
27.7507 -4.4170 40.0000
25.8071 6.8867 40.0000
-8.2287 -7.7700 40.0000
44.8944 12.5532 40.0000
46.4380 1.6794 40.0000
-2.0896 -7.3373 40.0000
31.0662 4.0154 40.0000
-43.6710 10.3731 40.0000
28.1733 -6.8873 40.0000
38.2447 1.9158 40.0000
-27.3016 -10.5016 40.0000
-49.6888 -12.6249 40.0000
44.9517 -12.8992 40.0000
8.4772 -3.1941 40.0000
49.0385 6.4154 40.0000
43.3723 6.2795 40.0000
35.0344 10.8056 40.0000
-25.8328 -4.5115 40.0000
-24.5527 3.0515 40.0000
-45.0609 -10.9384 40.0000
-44.5836 -2.4502 40.0000
-7.6415 -0.2674 40.0000
47.9887 4.8437 40.0000
30.1169 9.8987 40.0000
25.6898 -7.4588 40.0000
-40.0227 11.7078 40.0000
0.6968 -13.4491 40.0000
-6.0171 2.0132 40.0000
-12.1664 6.3842 40.0000
-6.5095 0.1430 40.0000
17.5038 1.5786 40.0000
45.3713 -12.3675 40.0000
37.3452 -7.1626 40.0000
17.3106 14.2237 40.0000
-38.3794 9.9389 40.0000
-41.3029 -8.1602 40.0000
-28.6909 10.7289 40.0000
-38.2874 -2.2998 40.0000
35.6003 -6.2986 40.0000
-38.8961 -2.7381 40.0000
23.9836 7.9931 40.0000
-32.0355 6.1250 40.0000
10.6077 3.3105 40.0000
33.0314 11.3723 40.0000
20.8936 14.4460 40.0000
-36.1690 -11.6564 40.0000
-40.7327 10.5726 40.0000
2.5373 -12.7898 40.0000
12.3913 11.8987 40.0000
28.8032 9.0847 40.0000
-28.2017 10.9489 40.0000
-1.5471 4.3912 40.0000
21.4329 -10.0347 40.0000
34.2981 -6.8247 40.0000
14.1437 12.1448 40.0000
24.2440 8.8143 40.0000
2.0876 13.0252 40.0000
44.1648 7.4734 40.0000
28.7884 -9.5204 40.0000
-15.3014 -9.0777 40.0000
-11.0382 7.4686 40.0000
1.1812 7.9210 40.0000
31.6441 7.6449 40.0000
-30.8742 -0.0088 40.0000
-27.2438 -0.9240 40.0000
20.6364 12.4134 40.0000
42.8926 -2.8501 40.0000
-34.5885 7.9620 40.0000
-33.6646 -12.0345 40.0000
28.2768 -8.1826 -40.0000
31.8929 7.6362 -40.0000
14.3989 -14.8781 -40.0000
0.8004 11.4317 -40.0000
-15.4287 -13.8151 -40.0000
15.1298 -4.0626 -40.0000
49.7102 9.8501 -40.0000
16.0263 5.6330 -40.0000
-40.1517 7.0431 -40.0000
-3.4973 4.2100 -40.0000
-16.1581 -8.2645 -40.0000
2.7034 1.3640 -40.0000
-39.6924 -10.2172 -40.0000
12.8584 -10.1129 -40.0000
-28.8121 -1.9957 -40.0000
-12.9490 14.3095 -40.0000
-40.1220 2.5130 -40.0000
30.3385 13.2701 -40.0000
9.6266 -10.5559 -40.0000
6.8308 -0.7782 -40.0000
-13.2758 0.4280 -40.0000
-14.7157 -13.4221 -40.0000
-11.6573 3.2204 -40.0000
29.3683 8.2923 -40.0000
-33.9098 1.7709 -40.0000
-2.0876 -10.4246 -40.0000
18.2241 10.1974 -40.0000
-9.8082 9.0592 -40.0000
-32.3593 12.5381 -40.0000
-17.9513 5.8502 -40.0000
-13.6524 -5.8807 -40.0000
16.7901 3.6171 -40.0000
37.4161 -11.6849 -40.0000
-13.9714 0.3480 -40.0000
23.0465 1.2086 -40.0000
21.1602 1.4888 -40.0000
-44.0766 1.2950 -40.0000
-45.0047 -3.0369 -40.0000
9.8795 10.8551 -40.0000
16.2903 -2.0837 -40.0000
30.2267 5.7908 -40.0000
12.3451 -8.1481 -40.0000
-49.7598 -1.8735 -40.0000
2.1433 -11.0313 -40.0000
-4.3585 -3.7457 -40.0000
-10.8927 9.5517 -40.0000
-0.4540 -5.3009 -40.0000
0.0750 2.6172 -40.0000
-33.4848 -13.5352 -40.0000
-34.4500 10.4750 -40.0000
32.5267 11.8480 -40.0000
31.2617 -9.9466 -40.0000
17.1905 7.5132 -40.0000
-19.9257 -8.8382 -40.0000
-49.9772 -1.8345 -40.0000
-29.9440 3.8681 -40.0000
-5.7710 8.7545 -40.0000
-3.1258 0.5538 -40.0000
-40.6975 11.0037 -40.0000
-5.5974 7.9547 -40.0000
-28.0633 12.4230 -40.0000
-17.5637 5.6672 -40.0000
-4.1123 9.3977 -40.0000
-13.3867 -0.7259 -40.0000
36.7229 1.3614 -40.0000
-7.0322 -13.1753 -40.0000
-15.7851 -11.5840 -40.0000
38.7121 -0.8544 -40.0000
-26.3027 3.9226 -40.0000
9.3964 -3.6684 -40.0000
-6.2736 8.5950 -40.0000
-1.9534 -3.8519 -40.0000
-33.5300 -11.1479 -40.0000
47.4535 -5.6378 -40.0000
-15.5298 1.8698 -40.0000
-31.5794 10.9889 -40.0000
40.4892 10.4362 -40.0000
1.2475 0.2234 -40.0000
-6.9686 -6.7512 -40.0000
-23.3272 -8.8728 -40.0000
41.5581 -10.4094 -40.0000
49.4024 -3.9640 -40.0000
-41.1955 10.0803 -40.0000
-44.4004 10.6964 -40.0000
11.4208 8.7337 -40.0000
50.0000 5.0174 -28.0001
50.0000 -64.8534 25.7195
50.0000 2.3780 36.6306
50.0000 8.1650 -22.2471
50.0000 -7.5185 -11.0555
50.0000 -23.9380 -1.2487
50.0000 -8.0503 32.1581
50.0000 -53.7525 -27.8906
50.0000 -59.8668 5.5240
50.0000 -68.8021 -28.6577
50.0000 -29.9791 38.5552
50.0000 -8.6294 -26.9946
50.0000 -72.4233 -13.4844
50.0000 -45.4003 -8.6844
50.0000 10.4127 15.0176
50.0000 -15.7787 -32.8191
50.0000 -41.1610 -7.4584
50.0000 -82.1780 -11.1676
50.0000 -50.9792 4.9955
50.0000 1.9595 6.3884
50.0000 -4.3136 -2.7144
50.0000 14.9741 17.3633
50.0000 -38.8753 -31.3554
50.0000 7.3458 -36.8540
50.0000 -3.1815 -35.9669
50.0000 -1.5018 31.3208
50.0000 -15.6785 25.3886
50.0000 -6.9533 3.1077
50.0000 -58.2686 33.3461
50.0000 -32.4012 -24.9864
50.0000 -5.2407 -5.3160
50.0000 5.8708 16.3874
50.0000 -77.9772 -27.4389
50.0000 5.8461 5.3824
50.0000 4.3113 3.5990
50.0000 -68.6757 2.7378
50.0000 -42.3779 -29.4125
50.0000 -16.9405 10.0080
50.0000 -41.4520 30.8804
50.0000 -14.9184 -9.4314
50.0000 0.1853 14.3138
50.0000 -78.2889 -31.3193
50.0000 -62.8231 35.1277
50.0000 7.2801 31.5923
50.0000 13.4545 36.4189
50.0000 -84.3031 39.1472
50.0000 -24.7944 9.8996
50.0000 -51.7967 13.2569
50.0000 -11.2075 -28.0536
50.0000 -73.3267 -37.9401
50.0000 7.7893 -36.4662
50.0000 -78.2377 -33.3825
50.0000 -40.5144 32.9530
50.0000 -72.1558 -25.0895
50.0000 -81.1804 17.6744
50.0000 -31.3591 -15.1373
50.0000 14.4738 29.6715
50.0000 -27.5076 -38.8224
50.0000 -13.8886 39.2441
50.0000 -36.8118 -35.0228
50.0000 -78.2774 10.2411
50.0000 -45.1728 -21.8418
50.0000 -37.9095 22.9129
50.0000 -16.7349 -30.3074
50.0000 -40.0257 -6.8914
50.0000 -60.8441 25.3956
50.0000 -3.0985 -0.9376
50.0000 -2.6712 2.6071
50.0000 -22.8516 12.3525
50.0000 -27.2347 -12.4789
50.0000 -41.6696 -37.0760
50.0000 -40.8771 21.1863
50.0000 -81.1119 33.3459
50.0000 -51.5590 39.4454
50.0000 -9.6969 -29.8865
50.0000 8.6136 -27.0855
50.0000 -46.7347 -6.1102
50.0000 -22.4310 6.0288
50.0000 -23.4494 -19.6682
50.0000 10.4950 31.2649
50.0000 -39.0992 -38.6043
50.0000 -7.5329 -35.0058
50.0000 -78.7379 -26.6407
50.0000 -26.6621 -5.1325
50.0000 7.9320 -26.0244
50.0000 -68.0457 35.3926
20.0000 12.5850 38.1904
20.0000 -53.7146 25.4025
20.0000 -81.8277 7.5029
20.0000 2.1269 -39.5658
20.0000 -65.9947 27.3759
20.0000 -46.6732 34.1969
20.0000 13.6415 -39.1541
20.0000 -79.8607 22.0110
20.0000 -56.7561 -38.0361
20.0000 -21.4632 -33.9241
20.0000 -59.5734 -28.6159
20.0000 -60.9347 -19.6467
20.0000 -1.7610 -32.9404
20.0000 -12.2291 31.5755
20.0000 -55.1827 -17.5650
20.0000 -51.4081 -32.4824
20.0000 -54.9418 26.4090
20.0000 -41.8366 11.1023
20.0000 -52.0880 10.5419
20.0000 4.1752 23.5313
20.0000 -34.2303 -29.4160
20.0000 -84.3632 33.9270
20.0000 -40.9733 -18.7506
20.0000 4.6316 -19.7143
20.0000 -38.8398 -8.8798
20.0000 -28.1919 18.4286
20.0000 5.9711 -20.4097
20.0000 -51.3070 -24.1960
20.0000 -28.9978 30.8253
20.0000 -22.5208 18.3774
20.0000 -40.2585 -37.6547
20.0000 -70.2614 5.6106
20.0000 -24.1423 16.4740
20.0000 -31.7141 10.8290
20.0000 -30.8356 -14.1949
20.0000 -28.3060 1.6643
20.0000 -7.2933 14.5289
20.0000 -69.3386 -15.8378
20.0000 12.9592 -8.8453
20.0000 -10.5820 -1.7180
20.0000 -82.3377 16.2427
20.0000 -67.8971 4.4131
20.0000 -40.4936 -1.5876
20.0000 6.8540 38.6592
20.0000 6.8688 15.6864
20.0000 -68.8432 13.6682
20.0000 -58.4377 -16.1045
20.0000 -7.5697 -26.3696
20.0000 -16.3489 9.4995
20.0000 -47.5860 27.9791
20.0000 -65.8600 17.2234
20.0000 -37.5104 -13.3691
20.0000 -77.9537 -11.0851
20.0000 -78.4975 -13.4581
20.0000 -2.8622 24.5970
20.0000 -29.1415 -13.6423
20.0000 -24.0950 31.3450
20.0000 -4.6718 -39.3517
20.0000 -45.7784 -18.7366
20.0000 0.4193 -37.6438
20.0000 -18.4896 19.7043
20.0000 -41.0969 -16.9325
20.0000 -22.4406 39.3299
20.0000 -10.8496 29.1510
20.0000 -27.9113 -5.0704
20.0000 -36.2206 -22.0720
20.0000 -51.8269 -28.3685
20.0000 4.9203 -9.5802
20.0000 -17.7847 -10.2868
20.0000 -9.0108 35.1152
20.0000 -42.3391 5.6544
20.0000 12.4748 11.7177
20.0000 -47.3939 8.2256
20.0000 3.4626 -26.9124
20.0000 9.0484 31.6078
20.0000 8.6425 -9.1490
20.0000 -47.5307 -29.2360
20.0000 -56.0426 25.4628
20.0000 -7.2040 -19.7789
20.0000 -79.3156 -3.4299
20.0000 -48.1569 29.8970
20.0000 -38.8451 0.0453
20.0000 -58.7464 28.8695
20.0000 -65.6037 -15.3402
20.0000 -62.9851 19.7911
20.0000 -3.3861 -23.2668
20.3900 15.0000 -7.3931
47.7503 15.0000 9.3316
31.5788 15.0000 -20.0545
43.4674 15.0000 -9.9695
29.7803 15.0000 -12.4373
26.8811 15.0000 -38.0931
44.5616 15.0000 25.0267
29.9528 15.0000 32.0118
42.6042 15.0000 1.5614
29.3716 15.0000 30.3865
23.8523 15.0000 -21.1824
38.1798 15.0000 -22.5674
39.4294 15.0000 -6.5592
23.2995 15.0000 -12.2571
40.3183 15.0000 0.7846
47.1966 15.0000 20.4396
47.2795 15.0000 -17.6967
47.5964 15.0000 -35.2374
42.4475 15.0000 14.9403
41.2224 15.0000 6.1795
24.7200 15.0000 22.5328
38.2683 15.0000 35.0774
28.7900 15.0000 -8.0073
30.1580 15.0000 6.5837
45.4220 15.0000 -4.9420
45.4999 15.0000 -29.0510
21.6075 15.0000 21.2126
44.1654 15.0000 -11.0455
24.4089 15.0000 27.4787
35.2168 15.0000 2.5694
41.5095 15.0000 20.4508
27.1765 15.0000 -24.9776
32.0413 15.0000 18.9433
27.7920 15.0000 -39.8721
38.7093 15.0000 -35.4240
31.0442 15.0000 27.8195
37.4175 15.0000 36.7567
33.7714 15.0000 -32.6525
45.4245 15.0000 24.2225
26.1539 15.0000 7.1430
42.7190 15.0000 2.4398
46.8263 15.0000 21.9463
33.8021 15.0000 22.2020
37.8014 15.0000 -14.2907
30.4255 15.0000 -12.3297
38.5522 15.0000 -15.7201
34.5349 15.0000 33.0387
38.0688 15.0000 39.2253
32.5441 15.0000 22.5435
39.9469 15.0000 32.4354
35.6786 15.0000 -12.4752
37.8193 15.0000 6.9482
30.1189 15.0000 19.8504
36.3015 15.0000 28.9830
21.8586 15.0000 -23.0621
39.5813 15.0000 -35.2399
42.9994 15.0000 28.0501
40.8951 15.0000 -20.6421
48.7777 15.0000 38.7367
45.0416 15.0000 39.3412
41.1095 15.0000 -37.6777
47.5855 15.0000 36.7764
22.6467 15.0000 13.7580
23.8639 15.0000 28.3689
22.0231 15.0000 24.1029
31.5206 15.0000 -15.2286
21.3696 15.0000 9.9411
46.0978 15.0000 -26.7307
32.2754 15.0000 -21.3527
23.5854 15.0000 -23.7766
42.1392 15.0000 26.0075
49.7958 15.0000 -21.8118
31.3564 15.0000 -19.8100
33.8423 15.0000 -10.6736
29.6679 15.0000 17.9693
23.8206 15.0000 -32.4420
43.6950 15.0000 -30.4936
48.1577 15.0000 21.2298
30.8279 15.0000 -13.4890
28.9845 15.0000 -24.3972
25.0651 15.0000 10.0206
23.4239 15.0000 31.4082
28.3003 15.0000 -13.0334
43.7568 15.0000 38.4702
21.1035 15.0000 -10.2628
49.3379 -85.0000 15.2822
43.4925 -85.0000 27.5501
49.0031 -85.0000 15.7192
27.7269 -85.0000 -25.4106
36.3684 -85.0000 -25.8857
31.5945 -85.0000 36.2304
20.7502 -85.0000 -32.0220
28.8151 -85.0000 35.7499
48.4215 -85.0000 -22.5820
25.3505 -85.0000 -22.5197
22.9326 -85.0000 38.1396
47.2174 -85.0000 -23.9048
32.7795 -85.0000 31.2511
33.9884 -85.0000 6.7995
40.8144 -85.0000 -12.0379
21.4179 -85.0000 -16.5204
33.4932 -85.0000 19.8728
46.7376 -85.0000 -0.3036
47.6257 -85.0000 19.4772
45.9194 -85.0000 31.5079
41.7114 -85.0000 32.4909
48.0079 -85.0000 2.8545
38.3297 -85.0000 -23.5489
37.7984 -85.0000 -39.1166
49.2705 -85.0000 36.1538
28.1313 -85.0000 -39.2152
39.7427 -85.0000 2.9134
33.3945 -85.0000 5.8025
24.7902 -85.0000 22.9249
30.2126 -85.0000 -21.8368
32.2798 -85.0000 33.7785
23.5092 -85.0000 14.4430
20.6323 -85.0000 -26.9505
47.5813 -85.0000 27.9776
47.1099 -85.0000 25.8378
33.7217 -85.0000 -38.8294
35.7562 -85.0000 30.0596
41.6479 -85.0000 -23.1460
25.3608 -85.0000 2.6915
23.9114 -85.0000 31.2696
41.2081 -85.0000 7.3914
42.2691 -85.0000 -6.7695
27.4583 -85.0000 -2.8648
43.9917 -85.0000 20.6221
34.0422 -85.0000 34.7282
24.6689 -85.0000 -18.7392
25.0751 -85.0000 30.5296
30.3208 -85.0000 14.9425
21.0748 -85.0000 -26.1543
45.7762 -85.0000 -10.2514
49.6770 -85.0000 -2.9670
28.8497 -85.0000 -13.2143
43.0034 -85.0000 10.5872
35.9803 -85.0000 -10.6630
29.3599 -85.0000 -30.4360
20.3067 -85.0000 39.1341
49.4006 -85.0000 -38.4307
44.8004 -85.0000 -18.9554
21.4039 -85.0000 -34.4361
49.6556 -85.0000 16.3663
27.7463 -85.0000 7.1368
41.2714 -85.0000 12.7586
39.3664 -85.0000 -9.0533
28.4583 -85.0000 27.1484
42.4691 -85.0000 7.4000
49.2265 -85.0000 -38.4265
24.5789 -85.0000 5.1413
36.0515 -85.0000 23.5812
27.8049 -85.0000 29.0029
29.7797 -85.0000 -36.8377
48.0761 -85.0000 -7.3537
49.9461 -85.0000 8.6692
35.2643 -85.0000 -6.3086
41.8571 -85.0000 -16.5183
23.3276 -85.0000 -35.7981
48.9982 -85.0000 20.5280
24.5570 -85.0000 5.0557
31.3269 -85.0000 5.5279
32.9209 -85.0000 -24.6878
48.2956 -85.0000 7.8554
46.4990 -85.0000 9.2664
42.1280 -85.0000 -15.0956
45.1023 -85.0000 29.6566
34.8270 -85.0000 -11.8206
31.6802 -85.0000 1.6619
38.3302 -14.4213 40.0000
48.7719 -22.1324 40.0000
22.4776 -62.2912 40.0000
35.9670 -75.4875 40.0000
25.3723 -57.8888 40.0000
22.7375 -12.8466 40.0000
48.7973 -38.0059 40.0000
41.7363 -64.2375 40.0000
27.5438 -38.5497 40.0000
33.5337 -32.1002 40.0000
37.4784 -68.3281 40.0000
45.1416 -7.1369 40.0000
48.6849 -40.9903 40.0000
31.2486 -77.6098 40.0000
27.1189 -50.2451 40.0000
43.8448 -67.6501 40.0000
45.9802 0.5645 40.0000
49.6805 -71.4301 40.0000
45.8333 9.4935 40.0000
30.7707 -83.0605 40.0000
44.3960 -12.3180 40.0000
28.3646 -55.6480 40.0000
28.9213 -81.2935 40.0000
42.5766 -28.3061 40.0000
36.0527 -50.4605 40.0000
46.6184 -77.4818 40.0000
34.4795 -64.8136 40.0000
49.3378 -80.9027 40.0000
45.2642 -76.5669 40.0000
42.0670 -19.2341 40.0000
32.1723 -63.6340 40.0000
28.8745 -14.9041 40.0000
40.0032 -11.1827 40.0000
26.9327 10.6338 40.0000
22.5921 -56.9383 40.0000
43.4721 6.1721 40.0000
33.2572 2.0167 40.0000
38.8440 -15.7435 40.0000
41.9910 13.1638 40.0000
24.4709 -29.4152 40.0000
48.3231 -14.5105 40.0000
22.8644 -20.5669 40.0000
27.5890 12.0943 40.0000
24.4561 -12.5409 40.0000
30.8438 -11.4064 40.0000
24.2796 -61.8885 40.0000
22.1965 -20.4947 40.0000
37.1910 -8.9787 40.0000
22.5950 -6.5575 40.0000
49.2265 -13.6314 40.0000
25.3514 -34.9955 40.0000
48.9691 1.6382 40.0000
26.5475 -36.3770 40.0000
45.8522 -29.5428 40.0000
27.4291 -5.2929 40.0000
48.9794 -27.0762 40.0000
33.4991 1.4396 40.0000
38.4102 -77.1068 40.0000
36.6493 -67.1782 40.0000
23.3039 -30.6772 40.0000
23.3593 -11.4932 40.0000
26.9209 -2.5174 40.0000
34.3901 -40.4707 40.0000
28.9886 -38.4408 40.0000
33.3164 -51.1825 40.0000
43.7388 -38.9420 40.0000
34.5006 -76.2212 40.0000
28.8910 -61.2864 40.0000
25.5737 -4.6664 40.0000
33.8135 9.8801 40.0000
48.9527 11.5438 40.0000
30.5924 -42.6957 40.0000
22.4583 5.3561 40.0000
30.6259 -20.6483 40.0000
40.5070 -77.0294 40.0000
35.0188 -70.1581 40.0000
20.5771 -0.8263 40.0000
28.3140 -49.4267 40.0000
48.1088 -77.3792 40.0000
47.9588 -0.1784 40.0000
36.0027 -69.3836 40.0000
22.1964 -60.1335 40.0000
37.6071 -45.6873 40.0000
28.1660 -54.8573 40.0000
21.0009 -43.9111 40.0000
38.0360 -76.9686 -40.0000
48.4209 -76.1952 -40.0000
32.7575 -52.0309 -40.0000
49.9277 -79.0045 -40.0000
36.3996 -12.8601 -40.0000
43.2305 -40.9133 -40.0000
37.4023 -19.4802 -40.0000
28.1236 -13.5322 -40.0000
49.8177 -82.1501 -40.0000
37.1301 -16.7306 -40.0000
25.9534 -78.1307 -40.0000
41.2095 -42.5367 -40.0000
40.3432 -25.4890 -40.0000
39.5134 -9.5842 -40.0000
27.5800 -0.9040 -40.0000
40.1154 -49.2906 -40.0000
28.2589 -26.5609 -40.0000
34.7115 -2.3872 -40.0000
47.3430 -0.8061 -40.0000
49.1613 -21.3345 -40.0000
22.5612 14.2070 -40.0000
39.2435 -60.8494 -40.0000
49.4969 -7.2635 -40.0000
43.6580 -9.8315 -40.0000
26.4009 -13.7505 -40.0000
37.1889 -72.1707 -40.0000
44.5000 -7.5813 -40.0000
26.0937 0.7873 -40.0000
45.8471 10.3628 -40.0000
20.1721 -75.8032 -40.0000
25.5094 -7.4199 -40.0000
35.7799 -49.9159 -40.0000
23.2548 -9.4460 -40.0000
37.1161 -4.0126 -40.0000
45.7351 2.4665 -40.0000
23.6581 -4.5866 -40.0000
47.8696 12.9252 -40.0000
26.0765 -33.4582 -40.0000
46.2642 -77.0168 -40.0000
38.1533 -21.3762 -40.0000
34.2056 -22.9181 -40.0000
21.1529 -45.2403 -40.0000
48.4577 -43.6123 -40.0000
42.6354 -43.7588 -40.0000
47.2282 -56.4885 -40.0000
29.6505 -77.0389 -40.0000
44.3836 -18.7695 -40.0000
37.7548 -12.8302 -40.0000
38.8737 -74.7542 -40.0000
43.7017 -0.9929 -40.0000
44.4212 -52.2758 -40.0000
47.2480 -35.9905 -40.0000
48.6285 -4.1264 -40.0000
48.3087 -31.6483 -40.0000
27.8318 -52.6596 -40.0000
32.6135 3.5893 -40.0000
25.8663 -22.1292 -40.0000
45.5146 -29.6635 -40.0000
48.8743 -80.5134 -40.0000
35.7139 -26.8822 -40.0000
44.6232 11.1394 -40.0000
42.6308 -56.8835 -40.0000
20.6787 -5.5463 -40.0000
41.8007 -32.7222 -40.0000
28.4992 -15.3360 -40.0000
33.1636 -22.1720 -40.0000
23.2083 -14.0656 -40.0000
44.0011 -70.1491 -40.0000
48.4422 -11.6032 -40.0000
29.1299 -1.5760 -40.0000
44.5857 -50.0127 -40.0000
28.7735 -53.7933 -40.0000
43.6037 -56.5723 -40.0000
20.2783 -83.1255 -40.0000
31.8121 -44.3547 -40.0000
37.5446 -68.3557 -40.0000
21.0670 12.6117 -40.0000
40.4390 -4.5901 -40.0000
36.2773 -10.8035 -40.0000
39.2442 -68.9656 -40.0000
29.6571 4.6744 -40.0000
21.8565 -27.4222 -40.0000
45.6553 -29.7679 -40.0000
34.5424 5.3468 -40.0000
47.9933 -3.4133 -40.0000
