ply
format ascii 1.0
element vertex 1024
property float x
property float y
property float z
end_header
16.1956 17.1344 -18.8852
-11.2500 -34.9755 -70.3171
33.6790 0.9313 -58.4062
-4.9922 23.1999 -19.4860
21.2505 -3.5672 -10.9557
-4.6360 12.2146 22.1899
-11.0203 15.7886 -1.9941
-16.3424 33.5037 -72.4142
-2.1626 9.2025 36.3015
-30.0821 1.9492 -44.5483
-3.2827 3.1326 55.5084
-1.7376 -4.7483 53.4818
-4.4988 13.1822 18.8143
-23.7438 23.6697 -57.7596
-0.2453 -0.0468 72.2621
-13.7059 18.1974 -15.7762
12.7033 9.5355 11.1746
-2.7765 -13.4469 19.5885
10.4202 -6.0465 26.1650
-9.0862 -21.5792 -18.2479
21.6161 4.9802 -13.4351
0.1934 -27.6514 -34.8070
-1.1685 0.2233 68.5897
16.1850 -18.1223 -21.6998
2.7043 -3.6759 55.4070
11.8583 -18.0673 -11.2038
-16.9106 -23.0708 -38.5292
0.2489 -0.0487 72.2468
-23.9732 14.4622 -36.1574
0.3989 1.0985 68.6714
16.7393 -16.6431 -18.9940
6.6170 -6.6038 36.7105
-23.9135 21.7292 -53.0115
10.8981 -1.7784 30.0926
6.2713 -21.9497 -15.9580
-2.5525 -35.4461 -65.6191
16.1764 22.8187 -36.0525
-9.5014 10.1401 18.9424
10.4159 18.3429 -9.1824
-18.5529 26.9303 -54.5404
-24.2527 22.2078 -55.2508
6.9030 -31.9230 -54.3774
-11.0454 8.2520 19.3659
3.4294 7.7135 40.2543
24.0027 6.1449 -23.5723
0.2216 -6.6825 47.1130
-0.9121 1.6743 65.7880
-16.6003 14.4867 -12.8498
0.2070 -4.4851 55.6947
16.8075 -19.7198 -28.0025
-19.0695 -17.5216 -27.9493
-27.3892 -24.1024 -69.3163
5.7297 20.2653 -9.0487
13.3442 -2.8297 19.9386
-31.4270 3.9242 -50.5101
15.6634 -29.9499 -58.8226
10.0118 6.8632 25.8099
-12.1815 -28.9942 -49.6434
-1.9784 -8.5654 38.8891
31.3980 16.2584 -64.9153
25.5616 -16.3057 -45.2292
-15.5921 -33.0613 -69.5875
-13.5581 17.4041 -12.9641
16.1876 19.8179 -26.7450
2.5221 -3.2438 57.1834
10.5396 21.7802 -21.3039
26.1910 0.5216 -29.1182
-30.0402 19.3485 -66.3778
-7.7793 20.3840 -12.0116
23.4963 -25.5797 -62.4750
-20.1771 -20.6839 -39.6647
-34.2829 -14.3896 -72.0366
-8.7390 0.8941 38.9136
-5.3694 24.7867 -25.8573
-14.5983 4.1028 13.9883
3.9579 -8.7678 35.6509
-30.8881 -14.0206 -59.3024
10.4864 10.7501 14.5598
-25.0828 10.6060 -33.1691
14.5903 18.3105 -18.2423
-16.9650 1.2023 6.7845
0.1189 0.2523 72.1480
-24.8352 1.8412 -24.0670
5.7766 -3.3682 47.1103
-18.1498 -7.0474 -2.8370
-0.9538 -3.7515 58.1133
-2.4942 9.6754 34.1974
-15.3432 -23.7579 -37.2669
-7.4750 23.2098 -22.0369
-8.6773 -6.6947 30.4154
-2.0262 30.2191 -45.1020
11.9705 -3.2640 24.7579
7.0759 -9.3839 27.3166
-0.8310 1.6881 65.8860
12.9614 -32.6148 -63.8922
-8.6850 -7.9766 27.1623
-6.2172 -4.3486 43.5927
-16.8249 -2.1993 6.9389
-15.9994 23.8917 -39.1126
2.4622 -24.5459 -23.1514
-20.2117 -12.1473 -18.9005
-8.7180 -13.1889 11.4644
-3.0871 1.6861 59.4937
-5.6909 -11.9180 21.6343
-16.1767 -12.3583 -6.3032
7.2732 36.2104 -71.0728
-23.9705 17.6039 -42.9661
-3.8059 8.9169 35.3560
1.5943 -34.6751 -62.3909
-0.4933 -25.8016 -27.5949
-18.9482 6.8253 -5.4549
-4.2138 6.4765 43.0478
-27.1590 7.5755 -36.9310
-1.7248 12.3964 24.3350
14.5591 -17.1868 -14.7718
-12.0216 0.0188 26.2659
-26.9313 4.6474 -33.5458
-9.3946 30.3224 -50.7967
-7.2014 -16.2475 3.7978
24.6509 -22.2098 -56.4080
6.1152 10.0815 27.1663
-1.4233 5.0560 52.7149
-11.7521 -12.1783 7.1107
-12.8421 13.3811 0.7714
-6.8831 -4.7605 40.5381
9.1154 5.7139 31.2025
20.8573 -16.5382 -30.7681
-27.2544 18.8016 -56.1344
-8.5686 -13.4608 10.8906
13.7946 -10.1496 6.3208
-2.0184 0.4215 65.1814
14.0283 -4.9829 15.0702
-6.0297 4.1229 44.6972
-19.4709 2.6211 -3.5268
-6.7708 -7.5236 33.6897
9.0181 -24.3902 -28.3674
-9.0496 -15.9994 1.4164
-13.4410 10.4027 6.8281
5.6873 -9.7817 29.0272
-0.2117 0.0915 72.3369
-20.3411 4.4257 -8.1004
-9.3157 17.9696 -5.8488
-0.6529 0.2657 70.4835
19.9040 20.2004 -37.5686
-19.7947 -6.3762 -8.0194
1.7335 1.0605 65.2976
31.7649 16.8468 -67.2523
-16.0715 26.1018 -46.5318
7.2198 -7.4212 32.7829
8.4818 12.3704 14.6328
6.8287 5.2655 39.5450
14.9234 -28.5853 -52.7582
18.1201 11.2618 -10.1227
-0.8074 1.8727 65.2697
-19.4394 -14.3728 -21.2239
14.7530 -13.0956 -3.8403
-17.9043 1.3777 3.0739
-31.9694 18.1583 -70.4191
-24.6402 12.0801 -33.9865
-11.6516 12.5881 6.2165
-7.0878 -32.6444 -57.2854
23.6377 -7.9914 -24.2568
-9.7936 5.5586 29.2375
1.5533 -0.3283 67.0346
-1.4276 11.1119 29.4636
-2.5619 0.9203 62.6014
-13.4423 2.4030 19.8822
0.4029 -16.8575 7.3518
-0.3622 -25.2444 -25.4094
0.2949 -0.6218 70.5490
-3.2382 6.3318 45.4498
1.9386 -26.5560 -30.8004
4.5563 4.1341 49.1992
-5.4778 0.2862 51.8053
23.8094 13.3629 -33.4428
-20.9883 18.6819 -36.5511
-7.4012 -0.2721 44.2998
17.4000 -15.5812 -18.0236
2.9681 36.2868 -69.0188
11.0478 -34.8903 -69.7598
-0.5746 -1.8619 65.6244
19.0873 10.7634 -12.3824
15.2032 20.3765 -26.0981
20.4513 9.8310 -15.4245
-0.1611 -22.4780 -14.5926
0.5769 22.8943 -16.2453
4.8264 5.5785 44.4154
-0.7918 0.3372 69.8751
-36.7890 -6.8958 -73.0109
31.5468 -4.1419 -51.0828
-15.5194 20.5483 -27.3768
-19.1526 -23.1722 -44.2265
4.5430 22.6433 -16.9991
14.7176 1.9056 15.2519
-11.2485 -0.2358 29.2770
37.1549 -1.2411 -72.0183
-20.4808 -23.2397 -47.7965
-2.4742 -4.5576 52.9752
3.4298 -0.2410 59.8036
0.6431 0.3836 70.3121
6.7825 -7.3735 34.0926
2.4541 -27.9817 -36.5146
14.3402 18.4259 -17.9917
-12.9548 27.5440 -45.6941
-0.9153 2.6167 62.4064
0.1818 18.4115 1.2951
-3.9519 -3.0180 53.8087
28.7311 -16.5040 -56.2260
19.7241 12.3350 -17.6597
-18.0781 13.8290 -15.6957
4.8787 -26.1413 -30.6673
0.6563 8.6065 39.5123
9.2424 8.9783 22.8909
-8.0537 -21.9098 -17.9705
-6.9322 -14.7377 9.6012
22.3042 -6.0738 -17.0847
12.7359 -0.3248 23.4590
-11.1694 33.6025 -65.1202
25.7632 8.9379 -33.3124
-6.1503 -8.5457 32.0988
-0.8876 5.8452 50.1373
-35.0063 -0.7978 -63.5775
18.5147 -22.5648 -40.8099
-3.5640 -0.2069 59.2887
5.1207 -16.8378 4.4727
15.9989 -21.5641 -31.6767
-6.9488 12.6667 16.7871
26.3978 -0.9016 -29.9661
-23.8189 0.1224 -19.8309
0.2807 -0.0397 72.1303
1.1659 2.0228 64.1153
2.5396 11.4414 27.4448
1.5244 -2.2039 62.7675
-9.7405 26.3278 -36.4473
5.7742 2.3528 48.8754
-4.6295 8.9211 33.9665
-0.4009 -1.2984 67.9284
1.6142 7.7065 42.4731
2.5716 24.5613 -23.2549
-29.8337 -13.0211 -53.9502
-34.1387 5.8984 -62.1284
-14.2912 3.4475 15.7964
-19.7117 22.8216 -44.5900
0.5318 1.1656 68.2320
0.0455 0.5680 71.0116
9.0630 20.0855 -12.8615
1.6744 -25.1202 -25.1320
-1.0220 -0.6529 68.4993
6.4954 -19.5084 -7.1014
9.6023 -7.8982 24.6576
-14.0157 -3.0819 17.1661
25.7020 -10.7266 -35.5823
-2.4635 -3.4069 56.8106
1.2399 -21.9072 -12.4969
-19.7750 18.9219 -33.7030
6.3059 24.8017 -26.7527
1.2831 -0.2108 68.1571
-10.0179 -24.1856 -29.0483
9.1916 -6.2475 29.8131
3.1858 24.6920 -24.0406
20.7054 25.0750 -53.8224
-13.8327 11.1744 3.7571
18.1255 -4.6700 0.1034
-23.7874 -5.1887 -21.8918
6.2563 -0.2523 48.7729
-2.1849 0.3980 64.5605
-25.1474 -3.6600 -26.0554
-20.6611 -6.8365 -11.7958
-6.1608 0.8942 48.9136
-6.0392 -20.0759 -8.6767
31.0773 -9.0026 -53.1827
5.4352 7.1104 38.2684
14.9304 23.0182 -33.9641
18.9267 -22.8146 -42.5872
15.2348 -5.5416 9.8953
9.6102 -4.1122 32.3949
-0.8645 -0.4866 69.3618
-2.2309 -18.1388 1.8302
-18.2124 -8.3572 -5.0577
21.8429 7.3899 -16.8609
-20.8079 2.6402 -8.7167
-27.5640 9.2428 -40.3562
-25.5238 -24.2565 -64.3435
-25.3254 13.3135 -38.5562
0.3294 -18.9504 -0.8181
7.8787 -13.6129 11.7821
-16.9527 9.2727 -2.2627
-29.2426 -4.7765 -42.5356
12.2896 -10.7360 9.4763
12.2662 -7.5757 16.9065
-7.2301 6.3593 35.6150
-1.3664 0.5498 67.4830
-21.1172 -23.2874 -49.5927
-14.8498 8.8124 5.7678
32.4842 2.7149 -54.1298
32.6402 1.3159 -54.4007
-4.9848 -21.3913 -12.5834
-10.0446 31.1012 -54.4641
1.8321 12.1948 25.0544
3.2351 -7.3938 41.7036
-1.1279 -25.4644 -26.3564
-4.1520 18.3339 -0.2120
30.9611 -9.0671 -52.8172
22.5809 0.5908 -15.0226
15.5336 2.3583 11.8481
31.9718 -7.2437 -54.8516
3.3267 -10.5064 30.1775
-5.6924 -30.0034 -46.0853
-2.4141 -17.4320 4.4760
-18.4207 -12.8056 -14.4201
21.5187 9.1257 -18.0902
2.9994 -5.0152 50.4048
-14.5450 9.9594 4.3602
13.6902 -14.4328 -4.4895
-16.3868 29.6574 -59.1547
-2.3279 10.4979 31.2233
-10.6176 -27.2153 -40.9064
2.8097 -19.3952 -3.3361
-0.0447 0.1332 72.6890
11.3123 -5.6733 23.7901
11.6475 -10.8746 10.9757
3.8004 -2.5989 55.2485
-5.5116 -25.5233 -28.7880
-1.0376 -5.2534 52.3147
-27.8126 -21.8089 -64.8598
-11.0459 -5.2853 25.3920
-21.5333 -24.5812 -54.4486
-21.4782 -15.6567 -30.6142
13.2508 -2.1401 20.7921
19.0759 -17.7410 -28.5494
-2.9059 -23.2119 -18.1656
3.8797 25.3434 -26.9397
27.9661 3.5542 -36.9128
9.0976 2.2064 36.6603
0.9938 0.5258 68.8448
20.9325 22.4673 -46.7454
-25.7694 19.1201 -52.1395
-5.5500 -7.9875 35.2341
-12.0115 9.2899 13.9064
-28.6369 6.9492 -41.9021
0.5425 17.2443 5.8260
36.6315 -4.6693 -71.0501
-0.0493 3.1112 61.0801
2.2067 18.0322 2.2552
19.4085 -4.3269 -4.4586
-16.6029 -2.6398 7.5508
17.3506 -3.7642 3.8669
-13.7386 28.2819 -49.6164
-0.6640 0.4536 70.0956
10.3841 11.7595 11.9399
1.0664 32.2418 -52.8091
-3.0175 0.5607 61.2457
26.3037 9.4553 -35.9770
1.7271 -4.8180 53.2397
-27.1074 -1.7171 -32.8908
20.4090 8.0785 -12.5260
-17.6276 13.0078 -12.3609
-0.1312 -0.0219 72.7182
11.1787 -18.1673 -10.1088
2.7896 -11.2923 27.7892
-1.7625 19.1858 -2.0423
-1.4013 -1.1113 66.2498
9.4378 -3.0972 34.4266
6.1672 13.6199 14.8195
-30.7056 -2.9671 -47.2966
3.2389 16.0222 9.3682
15.6557 -8.3978 3.8217
6.9520 8.5882 30.0650
0.3097 0.9502 69.3332
-14.0410 -1.7996 17.9269
-0.0229 1.7988 66.2090
0.4087 5.7301 50.7920
11.0395 29.9060 -51.3209
-31.8060 13.2481 -61.3870
34.1275 -6.8953 -62.8027
22.6914 4.1438 -16.8904
31.8736 7.2259 -54.4621
6.9146 -7.3164 33.9037
0.3533 1.0430 68.9349
15.2958 27.0063 -48.0332
-9.9740 20.9438 -17.4015
5.3839 21.1859 -12.1729
14.2902 3.9226 15.3364
-1.3593 0.6861 67.2885
16.5589 -2.1263 8.0062
-3.2096 -8.2625 38.6036
13.8561 -10.2645 5.8609
-10.1643 6.4684 26.1629
-13.6769 16.1769 -9.5332
-13.8893 7.0677 12.3463
10.9731 14.8381 1.1295
-2.9419 -0.4997 61.5783
-6.4976 -3.7433 43.9381
-1.2305 -14.2573 17.3234
3.6898 -6.1169 45.3258
9.2154 -4.9518 32.3617
8.5559 12.6727 13.4932
11.6856 -5.5069 22.7629
3.7222 -13.9919 16.6659
-14.9572 -4.8259 11.8292
-2.9741 -10.1357 31.9650
-9.5761 23.9904 -27.6915
10.7573 15.4222 -0.2320
18.6456 -16.7618 -24.7267
-13.1574 16.6716 -9.7460
5.0528 5.2336 44.8136
-2.0766 8.1241 40.4740
14.8374 -17.9988 -17.9039
-30.1703 14.2545 -57.1416
-7.2602 -6.2885 35.7083
-1.1078 -25.9126 -28.1026
-18.7845 16.2373 -23.7786
1.7716 1.7274 63.5698
9.1997 -24.5355 -29.1469
-11.1052 14.9099 0.5969
18.7870 -9.1612 -8.4310
-0.6733 21.9729 -12.6570
-7.9185 0.8335 42.1272
-6.1412 -0.8092 49.0352
1.1856 6.0399 49.1880
0.5612 3.3047 60.1405
-18.9196 -19.0628 -31.7034
-27.7641 -23.9323 -69.9847
9.9224 32.2232 -58.5015
1.3726 -12.8729 22.6546
1.3567 30.8296 -47.3391
18.2418 24.7699 -46.9589
-3.8249 -27.7818 -36.3378
-29.0220 -16.5917 -57.3828
7.8929 4.9536 36.8274
4.3329 -8.6620 35.3948
14.4581 4.5547 14.0088
2.2076 15.2365 13.0827
-13.2747 -1.7331 20.9294
-11.8488 -25.4201 -36.3459
-2.8347 5.5985 48.7186
-11.3539 14.5890 1.0056
1.2313 12.4038 24.5344
-6.3480 13.1592 16.1511
-17.6808 18.1546 -25.7795
-30.8192 7.5562 -50.7484
5.4053 25.7003 -29.3778
14.5593 -0.9125 16.2387
-25.3893 -18.5042 -49.5170
5.8086 -5.1765 42.8373
-4.5412 -1.5711 54.4623
2.4418 6.2654 46.9637
19.0102 -28.5683 -60.8419
10.2595 -8.7868 20.4584
3.5217 -3.3779 54.1710
-20.0787 30.6707 -69.9975
4.3479 -19.9227 -6.4381
-13.7274 17.2825 -12.9999
-3.6354 -6.2160 45.1015
21.1825 -27.5581 -62.5733
-15.7005 10.3357 -0.2083
7.1664 20.2992 -10.8747
-19.1233 -18.7449 -31.3922
-19.6900 -4.7216 -5.8776
-0.5218 -0.4177 70.6263
-2.5966 -29.2812 -41.6213
-1.4632 0.5201 67.1705
0.0282 0.0721 72.9352
-8.0064 9.6326 24.2968
-2.8125 3.9394 54.3253
0.4637 -1.5616 66.8731
0.5358 1.2374 67.9694
-8.2842 -16.1852 2.1952
11.9579 -2.6047 25.4194
-7.3171 -3.7980 41.0258
7.4912 4.4003 39.2913
8.1650 19.3957 -8.9883
31.9813 14.6277 -64.1731
1.6475 13.5062 20.0740
27.6723 -8.9560 -40.4078
-8.0062 12.0251 16.7910
0.9603 -0.4104 69.1576
4.8860 0.8217 53.8787
-19.0016 -21.9389 -40.1661
-9.4914 -13.7863 7.8391
19.8906 -20.2392 -37.6399
-22.8843 -3.1399 -17.0154
1.7092 6.4506 47.1639
-19.6812 -25.5575 -52.8009
-20.2275 31.3970 -72.6942
-3.4566 22.6533 -16.2995
-13.4878 10.8642 5.5670
3.9971 -15.0155 12.5248
4.7341 -9.6608 31.2016
2.6238 -0.5962 62.7246
-6.0425 -5.2424 41.9806
4.4166 -0.1555 55.9701
-2.3224 -19.2318 -2.4524
4.8547 -12.4169 21.1450
8.9712 -22.4246 -21.1330
-6.2069 7.6037 34.8864
19.0341 16.4125 -24.9640
9.4659 14.6459 5.1000
-19.7325 14.8401 -23.2335
-30.5501 15.0098 -59.7596
-9.8585 -9.0246 21.0153
28.9165 17.4015 -58.6284
-28.9999 -17.1342 -58.3733
0.2167 -24.3886 -22.0591
2.2634 24.7467 -23.8583
-2.3774 -19.9327 -5.1971
13.2185 -11.5440 4.6659
-0.2318 0.8094 69.9481
-1.1072 4.8183 53.9205
2.6406 10.3864 31.3641
32.4524 2.1481 -53.8408
-2.9450 -4.5683 52.0007
-8.8381 -17.3243 -2.7529
3.7642 -0.9143 58.1025
10.5490 22.3855 -23.4543
-12.3935 3.3727 23.0518
6.3181 -6.7126 37.2193
0.6062 0.9262 68.9127
-21.7628 14.4833 -28.9051
3.5679 -4.5077 50.7757
-15.0367 -6.2046 9.6797
15.2234 -0.7968 13.6740
0.5898 0.3034 70.6465
-15.2698 24.7449 -40.3749
5.5753 -7.0143 38.2278
-36.4954 -2.4001 -69.6682
-35.5912 4.8443 -67.1096
-14.0376 27.1726 -46.2642
-6.7029 -6.1953 37.5743
12.8172 6.0067 17.9307
12.4421 4.4216 21.6444
10.2690 -11.8477 11.9766
-36.8878 0.5719 -70.9110
-18.1613 -28.0011 -57.1683
-2.8559 16.1708 9.0762
19.4956 -9.0128 -10.6834
-4.5363 2.4525 53.0885
-8.6450 25.6557 -32.5446
-8.1879 11.0428 19.5236
6.0455 -33.9207 -61.3888
-8.1598 30.7747 -51.1628
17.5672 2.0279 4.1419
-7.6051 2.5943 41.8410
4.5308 -8.7436 34.7597
10.8295 -5.2079 26.2853
-1.6561 5.1513 52.0955
-4.5251 8.9764 33.9598
-3.4836 -3.9107 52.7742
-5.4316 -15.0116 10.8619
-9.6414 -18.6980 -8.9612
1.0366 4.9852 53.3428
-0.9123 1.0748 67.7294
4.9255 -20.4254 -8.8577
20.7470 -11.5582 -19.5575
-21.2088 16.2029 -31.0471
26.4870 -1.1037 -30.3442
2.4487 -3.7669 55.6830
10.3204 -5.3075 27.8929
-18.5824 -1.1004 0.5039
-13.0788 15.6209 -6.3661
0.8760 0.5239 69.2497
1.3760 1.3256 65.7722
0.6217 3.7501 58.3852
15.1944 1.3616 13.6311
-31.1625 19.4072 -70.2050
4.8792 5.7825 43.6753
12.2439 -16.0840 -5.7444
0.1490 -0.1969 72.2732
2.2906 -0.3311 64.1948
-3.7545 -15.5320 10.8021
-10.1908 -4.7779 29.2605
-1.9160 4.1041 55.5405
-14.1960 11.1990 2.5877
-0.4735 2.0267 65.1057
8.2857 31.5119 -54.0734
-4.6165 31.7938 -52.2926
0.9070 -14.3733 16.9655
-22.0747 -23.7604 -53.4842
-8.1606 -2.3332 40.0744
-7.6916 -10.3055 22.9925
-28.4615 -0.7818 -38.0116
-1.8493 -10.0216 33.4196
18.7099 8.7210 -7.4186
-12.2493 -6.1703 19.6469
-8.1299 12.6662 14.4299
-3.2880 -14.2098 16.2489
-16.6269 5.6101 4.6735
-7.6967 -26.3747 -34.1141
5.1675 -11.0988 25.4017
-30.0770 18.2169 -64.1567
27.9367 -20.7748 -62.7926
21.3112 -4.1081 -11.5642
-10.0563 36.0723 -73.0818
-22.6743 -15.5780 -34.2515
-5.4500 33.7404 -60.3045
29.4750 -10.1436 -48.5586
-28.1051 -1.7475 -36.7892
-6.1944 16.3603 4.8850
-15.8178 -15.6376 -13.6708
-23.9025 7.2871 -24.3999
1.3082 3.2688 59.4807
18.5184 -27.3912 -55.9516
-1.2814 -24.3663 -22.0998
16.5205 -14.1783 -11.8256
0.3246 1.5852 66.9155
-13.1712 -3.1601 20.3137
18.1032 16.4557 -22.3525
-1.0847 1.9574 64.4941
-19.1179 -30.1559 -66.2735
-28.3755 -2.5624 -38.0845
16.2720 -11.4863 -4.5862
-15.1499 -18.9332 -21.5078
-25.1763 17.6754 -46.9560
-0.1182 -0.7002 70.4633
25.5694 19.4406 -52.2667
25.6552 24.1441 -64.4147
3.9610 -21.2875 -11.3664
0.4574 4.9159 53.9470
25.4561 11.5699 -36.0179
8.8515 0.1911 38.6444
-10.8455 -15.8681 -1.8617
-1.0527 -0.5670 68.5660
-2.8537 -2.1249 59.3360
9.4551 -6.5728 28.2445
-3.3768 10.3493 30.7022
-8.6886 -27.8077 -40.5954
-8.9561 -17.2557 -2.7255
15.5527 16.6757 -15.8592
19.4688 9.5186 -11.4376
-14.8383 -26.3720 -44.9963
6.8113 30.0655 -47.2139
-22.8995 0.1698 -16.2396
8.7845 -17.5831 -3.5613
6.2056 -3.3075 45.7617
-10.2660 0.6220 33.0521
24.7519 -27.8114 -72.2338
-7.3609 15.9793 4.4960
5.7166 11.7323 22.2443
13.5322 -20.7172 -23.4489
3.1789 -0.5551 60.6292
5.8444 -4.3919 44.6729
10.4424 -12.0009 11.0805
26.3907 -17.7340 -50.9972
-3.1485 30.1807 -45.3269
1.3542 -8.5531 39.4022
26.7734 2.9271 -31.9971
1.8132 7.5596 42.8624
-19.5403 24.8395 -50.2489
3.9626 -35.3971 -65.9329
-14.0844 6.7117 12.2770
2.0259 -7.7050 42.1090
-34.5920 12.2108 -70.0967
2.6170 3.6416 55.7158
1.8266 -2.9316 59.7415
-28.6287 -1.3360 -38.7447
22.5847 0.6013 -15.0386
4.1621 4.3450 49.7285
-29.1765 10.4333 -47.8327
4.7409 9.6776 31.1311
6.3384 2.6527 46.3903
-13.0930 -20.7470 -22.6195
-35.2735 2.7900 -65.0166
-3.0322 4.1889 53.0325
10.8166 25.5313 -35.1037
-7.8585 9.4692 25.1573
5.7656 -34.9023 -64.9838
-19.1501 31.8281 -71.8987
22.9237 -25.9006 -61.9079
-17.7507 32.6894 -72.1052
-1.0424 29.9796 -43.9721
18.4047 15.8419 -21.6458
3.2951 6.6107 44.3769
18.1569 27.3534 -55.0429
-1.3054 -4.3911 55.3386
-4.3939 -17.1417 4.0950
0.5136 -3.4840 59.4776
0.6745 5.0649 53.2732
0.7437 15.9998 10.6545
-7.7404 -29.9870 -47.7707
-31.9907 -3.4567 -52.4867
12.0732 12.7353 4.6706
-17.5219 -21.0648 -33.8208
-27.2597 9.3051 -39.3083
10.2766 -5.4328 27.8183
-14.6307 14.9933 -8.6155
20.4853 12.2877 -20.0996
18.4300 -14.3541 -18.0377
13.6860 10.8447 5.0095
2.9149 -26.6819 -31.6365
-3.2866 -15.3111 12.0502
-3.0799 -0.6585 60.9319
-6.3162 15.3252 8.4715
3.3928 2.9279 55.7274
-8.4973 -28.2831 -42.1524
-30.4889 -14.3090 -58.3584
-24.9789 17.2524 -45.3786
5.0788 -15.7094 8.7284
-21.8922 3.0410 -13.1228
-13.8743 12.7579 -0.4083
-8.2309 17.8402 -3.5304
-0.2825 -2.0123 65.2983
14.7404 -9.0510 5.6519
11.7420 -0.2342 27.3493
12.3805 -35.3374 -73.0646
13.1823 34.1495 -69.7905
-33.3030 -9.9049 -62.5201
24.6532 -7.4986 -27.4470
-23.0228 12.6374 -29.3799
1.4399 -5.3690 51.5182
1.7612 -2.6960 60.6553
-7.3549 -10.4328 23.3625
-4.8373 1.7823 53.0952
4.4067 22.7733 -17.3946
6.0963 -32.9522 -57.7009
-28.3424 17.3235 -56.5522
-6.0152 -11.0336 24.1359
-3.6508 -5.9161 46.0749
-10.2543 -9.2908 19.1716
-8.4214 -1.3355 39.9216
7.0435 -10.3559 24.3021
-3.1497 -2.9320 56.4244
7.2336 -21.8810 -16.8083
-2.7468 -23.4960 -19.1933
-25.8700 -26.9153 -72.6297
12.8974 -22.4583 -27.9539
18.9003 -3.0493 -1.5660
-12.3565 10.7107 9.3441
-5.9872 -1.9499 48.6348
2.8642 0.7334 61.6857
-2.1842 12.4936 23.6815
19.7461 -16.0220 -26.1190
-9.6589 23.1412 -24.7419
32.7073 -10.7974 -61.3429
22.5059 -22.1245 -50.0747
0.8472 -0.8471 68.5568
1.1632 3.5907 58.4901
-18.6345 -25.5708 -50.3902
-11.8521 2.5902 25.8353
-2.3628 7.4933 42.5382
-2.5798 -23.7133 -19.9637
4.5743 -23.7002 -21.0748
-27.9241 -20.5727 -62.2833
-0.9556 12.0042 26.1857
-8.0220 5.0204 36.2615
17.8547 -8.3749 -3.8189
21.9007 -29.1494 -69.2219
-36.6427 5.4137 -71.4899
27.9279 10.0760 -42.7694
-23.5139 17.1788 -40.5452
-2.7191 32.1733 -52.9206
8.0978 -12.5505 14.8779
20.1901 16.6975 -29.1337
17.9009 10.1151 -7.1001
-0.3397 -0.3583 71.3087
30.2885 -0.7123 -45.1407
-4.6568 31.3215 -50.4896
27.4606 -5.6989 -36.3448
-0.2912 4.4539 55.7980
-0.4572 0.2448 71.2115
14.0547 1.1943 18.1241
-0.4411 -1.9199 65.5409
-18.6237 30.4490 -66.2249
-7.5462 -5.9785 35.6206
-31.4263 -13.3690 -60.2030
-28.1705 0.1774 -36.8347
-31.5862 12.2086 -59.0768
-0.1335 -0.2003 72.2975
9.4321 3.9270 33.3173
11.1229 31.4618 -73.2379
34.3599 -10.3024 -73.2379
-28.7892 -17.5325 -73.2379
-1.5116 6.8793 -73.2379
29.9377 14.1383 -73.2379
-1.9730 0.4500 -73.2379
2.3107 1.2167 -73.2379
-1.2842 23.4876 -73.2379
4.4840 -4.5664 -73.2379
22.9645 21.8013 -73.2379
0.0500 0.3462 -73.2379
20.7848 -26.7580 -73.2379
5.7660 -1.7218 -73.2379
-0.9359 26.7115 -73.2379
3.0772 -21.8858 -73.2379
-24.7040 0.7217 -73.2379
-15.8975 4.3149 -73.2379
-0.4713 0.1420 -73.2379
-14.9187 -26.4896 -73.2379
-4.5001 18.5980 -73.2379
8.2088 -0.1973 -73.2379
15.6268 -5.6039 -73.2379
5.8872 15.3471 -73.2379
2.0249 10.9424 -73.2379
-31.7197 -18.6131 -73.2379
-4.7368 3.3401 -73.2379
6.4908 4.1354 -73.2379
11.5178 0.6946 -73.2379
17.5509 -4.6978 -73.2379
-29.0452 14.2564 -73.2379
-13.8287 25.2285 -73.2379
-0.4791 0.0398 -73.2379
10.0637 -27.6621 -73.2379
1.5643 -9.4807 -73.2379
6.3782 -15.8602 -73.2379
26.5829 -4.0850 -73.2379
-18.5628 -3.1859 -73.2379
0.7148 0.7863 -73.2379
-29.9393 -21.0853 -73.2379
-4.3209 -7.3548 -73.2379
0.1349 -0.1056 -73.2379
7.3579 -0.5658 -73.2379
30.0234 5.8561 -73.2379
-18.8089 -23.3224 -73.2379
-2.9925 34.6069 -73.2379
12.9191 20.8046 -73.2379
2.0876 -5.2563 -73.2379
4.0231 -21.5789 -73.2379
8.7203 11.4997 -73.2379
12.4964 -28.2374 -73.2379
-0.9392 -2.2170 -73.2379
-33.7039 1.9987 -73.2379
0.9863 8.9463 -73.2379
15.5617 -33.4520 -73.2379
25.5137 -16.9088 -73.2379
-22.3010 -5.9705 -73.2379
18.4062 -10.5430 -73.2379
3.5697 6.0361 -73.2379
-2.9256 3.6304 -73.2379
2.7331 -12.7776 -73.2379
-29.6250 -4.7302 -73.2379
10.3114 -4.7436 -73.2379
-10.4056 7.6227 -73.2379
1.1610 3.5261 -73.2379
19.5607 -13.9199 -73.2379
12.0612 0.5722 -73.2379
-3.8755 8.0723 -73.2379
2.1809 -1.3876 -73.2379
4.6716 8.3307 -73.2379
-1.0836 20.0036 -73.2379
-10.7849 -31.0757 -73.2379
1.4178 7.5971 -73.2379
-4.5780 0.4138 -73.2379
9.2330 -0.2636 -73.2379
1.0954 35.2434 -73.2379
32.5691 11.0672 -73.2379
16.6406 -0.5104 -73.2379
-17.5353 -11.0408 -73.2379
-14.7567 28.4202 -73.2379
-6.3063 -35.2270 -73.2379
-0.1000 0.1858 -73.2379
1.5727 -28.9300 -73.2379
19.9783 -21.0329 -73.2379
-30.6631 16.7161 -73.2379
16.2879 -31.6441 -73.2379
13.0666 2.2487 -73.2379
5.0918 -5.5361 -73.2379
-24.3889 11.6610 -73.2379
-2.0193 0.8858 -73.2379
-10.1834 4.1876 -73.2379
-17.7744 13.8078 -73.2379
0.5858 15.3972 -73.2379
-11.5885 4.2550 -73.2379
22.0373 23.5595 -73.2379
13.4385 -9.1253 -73.2379
-26.9991 7.2551 -73.2379
-24.8017 -13.2856 -73.2379
-16.3848 3.7114 -73.2379
7.6797 -20.4619 -73.2379
3.2131 5.0585 -73.2379
19.6743 -15.2742 -73.2379
-6.1996 -0.7864 -73.2379
1.2856 0.0400 -73.2379
0.3606 -2.5432 -73.2379
-1.9350 4.5077 -73.2379
-29.6529 12.9390 -73.2379
-9.6020 -0.2987 -73.2379
-3.9001 -17.2245 -73.2379
6.2762 -4.3573 -73.2379
-5.4683 2.2429 -73.2379
20.5286 -11.6629 -73.2379
-22.7340 27.1105 -73.2379
-2.9947 3.2953 -73.2379
-3.0184 24.1971 -73.2379
9.8749 2.3020 -73.2379
0.4605 -17.9764 -73.2379
-4.1552 7.7898 -73.2379
-10.0372 0.9961 -73.2379
2.6868 16.4013 -73.2379
11.0971 -24.9671 -73.2379
-1.2256 1.7164 -73.2379
10.4217 -16.5736 -73.2379
-4.1179 2.4575 -73.2379
1.0900 -1.7276 -73.2379
-12.7789 -23.4773 -73.2379
15.2924 1.5907 -73.2379
2.7549 3.9725 -73.2379
1.8495 21.6097 -73.2379
-0.0332 25.1045 -73.2379
23.5973 -25.4559 -73.2379
-12.8269 12.8769 -73.2379
6.8210 6.3349 -73.2379
1.1091 -19.8474 -73.2379
-0.0477 0.6865 -73.2379
-12.0328 -19.3072 -73.2379
-5.5826 6.6428 -73.2379
-6.3926 3.2655 -73.2379
9.8589 -11.8723 -73.2379
-3.1030 14.6080 -73.2379
7.0812 8.2928 -73.2379
-7.4654 -2.6126 -73.2379
21.3036 -12.7013 -73.2379
20.8919 4.2228 -73.2379
-30.9835 -1.8867 -73.2379
7.7877 0.4623 -73.2379
2.0135 8.4360 -73.2379
-1.1996 -9.2558 -73.2379
22.9806 20.6246 -73.2379
23.4871 24.1483 -73.2379
-2.0767 -0.0412 -73.2379
-6.8992 23.0468 -73.2379
21.8235 6.7738 -73.2379
-0.3690 1.4352 -73.2379
-12.6548 9.5338 -73.2379
-23.9112 25.6605 -73.2379
-7.3854 -4.1354 -73.2379
-6.3574 4.2895 -73.2379
5.6770 11.9690 -73.2379
-12.4159 -11.7780 -73.2379
22.9647 23.8774 -73.2379
7.8511 -8.2451 -73.2379
-34.5023 -6.7952 -73.2379
-7.5296 23.1830 -73.2379
-1.8015 -14.2947 -73.2379
18.0638 -13.5794 -73.2379
-11.5838 7.3747 -73.2379
-10.3289 -21.3894 -73.2379
-7.3271 31.7898 -73.2379
8.8878 8.1629 -73.2379
-10.8893 1.2377 -73.2379
-8.5290 22.2230 -73.2379
-21.4786 -13.3281 -73.2379
-11.0892 21.4741 -73.2379
-10.0933 -14.3981 -73.2379
26.5176 5.4112 -73.2379
2.7952 -22.0105 -73.2379
-12.2807 19.6526 -73.2379
-36.3162 4.2500 -73.2379
-0.4300 -9.1917 -73.2379
-18.5136 7.0150 -73.2379
2.3179 0.1427 -73.2379
9.3313 -3.7195 -73.2379
33.8283 15.1178 -73.2379
5.3151 17.9697 -73.2379
0.6457 -0.3354 -73.2379
-14.3508 -3.1327 -73.2379
-3.2531 0.4246 -73.2379
-3.3086 -0.5479 -73.2379
-8.8652 1.0093 -73.2379
-19.5608 10.3598 -73.2379
-34.6416 -10.7063 -73.2379
-6.0806 0.9383 -73.2379
0.8319 -3.8541 -73.2379
11.4828 25.1479 -73.2379
0.4478 -0.4622 -73.2379
1.3553 13.4145 -73.2379
17.8486 0.0403 -73.2379
-18.1187 0.9189 -73.2379
-21.2232 -17.1195 -73.2379
19.9245 -31.4020 -73.2379
-34.6740 8.5609 -73.2379
-1.6553 31.6827 -73.2379
-29.2829 -11.0215 -73.2379
-1.8766 29.8337 -73.2379
23.3426 22.5466 -73.2379
-5.7174 -19.2541 -73.2379
-8.5507 -7.4135 -73.2379
7.8228 10.9313 -73.2379
-18.8112 -3.8730 -73.2379
-7.3640 -9.2712 -73.2379
18.2656 -21.1873 -73.2379
8.6063 -16.9899 -73.2379
-28.7054 3.7192 -73.2379
2.0668 -1.3248 -73.2379
2.6317 20.0821 -73.2379
8.1910 17.7323 -73.2379
6.3007 -19.7634 -73.2379
7.0424 13.4164 -73.2379
-2.9003 6.1301 -73.2379
-31.8397 10.9097 -73.2379
14.6982 -4.3940 -73.2379
-15.5601 -17.4031 -73.2379
-16.8827 -4.2174 -73.2379
28.4339 4.3952 -73.2379
11.8170 26.4587 -73.2379
22.0703 -22.1380 -73.2379
-27.2621 4.1477 -73.2379
15.8138 -14.0838 -73.2379
5.1188 -1.5251 -73.2379
7.4570 2.5196 -73.2379
8.4418 -5.1531 -73.2379
-19.8292 -5.6669 -73.2379
0.6660 0.5640 -73.2379
-19.6716 17.5742 -73.2379
11.1589 18.0187 -73.2379
-0.6121 -1.2093 -73.2379
3.8016 12.6475 -73.2379
-34.3604 4.8636 -73.2379
-1.4157 -0.9890 -73.2379
16.0931 11.6792 -73.2379
17.6387 -0.1212 -73.2379
9.9853 -2.7947 -73.2379
-25.2617 -6.9572 -73.2379
-8.0212 -32.7908 -73.2379
10.5441 -9.4533 -73.2379
0.2059 0.2178 -73.2379
-18.4856 -23.4473 -73.2379
-21.0241 -10.0025 -73.2379
-5.0973 14.2263 -73.2379
-2.4963 10.7582 -73.2379
-0.8176 -0.0653 -73.2379
7.9064 -34.4641 -73.2379
-6.2461 30.9939 -73.2379
9.6768 0.9640 -73.2379
3.4896 -1.9501 -73.2379
4.1041 -7.9766 -73.2379
