ply
format ascii 1.0
element vertex 1024
property float x
property float y
property float z
end_header
13.5503 -39.6797 -10.7518
-1.3269 -44.5053 -15.2389
10.8948 -2.9725 42.2144
-10.0198 10.1257 37.1106
-1.8891 -10.1020 43.9708
-28.2545 -34.6689 -15.5831
-35.1260 57.7590 -55.1344
49.4934 9.9693 -25.5470
16.9375 12.1435 25.7075
-6.5220 18.3906 28.0036
-29.8417 -2.9350 9.8976
-5.9268 40.8321 -9.5941
-19.1219 -15.2063 19.5006
59.4639 -35.8404 -58.2954
-20.7034 31.9990 -4.1526
4.6392 -35.1504 0.4416
-13.0135 60.5998 -45.4181
-58.2517 -28.0850 -50.0641
-2.3445 -38.6182 -5.1496
19.1944 4.2428 27.7531
4.8346 10.2486 42.1476
-27.6671 -59.7019 -52.0220
14.0607 -37.3954 -7.3319
0.3663 -11.9761 41.0237
2.2902 -1.7179 56.7888
-17.8813 -7.1745 28.4287
6.2997 42.7855 -13.0290
55.4280 2.0996 -34.1572
2.7075 1.5742 56.3239
15.3680 1.7278 35.0019
21.3184 51.6794 -34.9111
17.5133 -7.7211 28.6485
15.8406 19.7510 17.9664
-9.1131 -17.3040 27.9272
0.8249 70.4588 -60.0827
37.2796 -24.6258 -15.5047
3.6480 -29.2987 10.6941
-7.3754 -3.9917 47.2397
-10.5713 -1.7653 43.2091
39.9559 38.9481 -34.7283
35.1553 -58.1939 -55.8036
63.3637 -22.9930 -54.7975
-28.6083 24.9544 -3.8933
34.6975 56.9337 -53.5304
-19.1109 27.7380 3.5035
-56.3760 -22.4594 -43.1772
-1.4870 -46.8176 -19.2432
13.7906 64.8698 -52.9182
12.3728 66.0292 -54.4033
56.5897 29.6801 -48.7365
-38.1436 10.1814 -6.5151
0.9663 31.5342 7.1949
34.7645 -18.2050 -6.1065
-17.6962 -10.6044 26.0717
44.3070 46.9733 -49.8979
37.7586 -12.7354 -7.1537
-4.1671 31.4519 6.8876
-44.0935 24.1486 -25.1765
-43.6871 -44.5769 -46.1683
42.9165 34.6868 -33.6624
-23.2656 14.2501 14.5704
29.6987 25.6382 -6.0918
-6.4411 10.8067 39.9883
4.5749 -62.4065 -46.4428
20.5885 38.2949 -13.4296
3.0269 -27.4248 14.0371
0.0206 14.9193 35.9451
18.1660 5.0945 29.1205
-34.9465 27.0770 -14.6922
-6.7758 6.2407 45.8125
50.1107 43.1452 -52.5830
-37.8723 25.1353 -16.8455
-11.7471 13.6776 30.5677
2.5941 -14.3070 36.6004
-3.4807 22.6437 22.1310
70.1241 -13.5191 -61.7283
-10.6913 -27.6478 10.4901
47.2678 20.2392 -27.1567
58.5078 -16.5790 -43.3955
-30.5449 -14.1303 3.5539
-13.8585 42.8078 -16.0517
-37.2888 -56.2827 -54.9840
5.3315 23.1814 20.6149
-9.6341 4.4502 43.3914
-5.2933 -48.7310 -23.0059
-26.4815 12.1126 11.3939
-15.2082 -26.5558 8.8315
-0.8049 -2.3922 57.3749
-8.6106 1.1462 46.7205
34.7747 17.5104 -5.5737
0.4725 22.3631 23.0673
-10.1527 -24.5829 15.7562
43.1411 19.7182 -20.2676
57.7866 22.3448 -45.3749
-9.6426 -4.1579 43.5840
-3.0206 -3.6942 53.4885
15.6056 0.4699 34.7464
37.0874 14.6696 -7.2138
-29.2275 -3.6209 10.8220
57.2014 8.9846 -38.3668
-13.4990 -29.4166 5.7824
-3.8249 -3.9242 52.2645
12.2832 14.9751 28.2534
-6.1688 7.2775 45.2447
50.5913 -4.2450 -26.0338
60.3213 -28.6945 -53.7462
-1.6388 9.1070 45.7408
-33.4604 -38.9428 -27.0268
-49.2653 14.2937 -26.9466
11.5149 18.2341 24.4547
7.2809 -19.7439 25.3570
-31.6230 6.9318 5.7687
-14.4107 -4.3388 35.7196
-7.0836 -17.7225 28.7420
52.0561 6.3186 -28.9194
-4.1551 26.7770 14.8909
15.7377 22.6706 14.0261
-24.8577 39.4715 -18.9067
22.9094 -5.8000 20.8819
2.7441 -4.6448 52.4115
-26.6690 -5.3934 14.6981
60.9913 -3.1983 -43.8515
-1.1459 -17.9344 30.6693
-13.1156 18.4275 22.6345
-0.8981 -0.0853 60.1787
6.7589 49.9986 -25.4880
-35.8287 19.1816 -8.5226
30.5883 -24.2486 -5.7453
6.3699 -0.1753 50.7216
-27.6804 -36.0816 -16.8832
-62.6961 25.8910 -55.5326
8.5149 -41.4827 -11.4743
41.6670 10.3128 -12.4714
24.9368 -1.2992 18.5679
48.9460 -24.5527 -32.9318
1.8029 -13.7817 37.7087
-7.4749 16.3373 30.6776
-25.7098 48.7358 -33.5239
-16.6788 1.7763 32.7401
-1.7651 1.6674 57.5405
60.3407 10.4776 -44.1427
-30.6168 -46.0221 -33.8254
-4.4610 2.2390 53.1091
-49.6661 -41.7522 -50.4369
-0.7917 16.3678 33.4078
2.4804 -2.2007 56.0056
53.6940 8.1983 -32.1664
0.9443 -0.8335 59.5608
52.8844 46.6659 -60.1975
-30.4015 -10.0941 6.3573
34.0846 -13.7493 -1.8027
21.2016 12.9534 18.7841
-18.9333 -5.8674 27.4698
-27.3910 26.8177 -4.5346
-8.1754 29.9571 8.0531
-6.0223 8.8384 43.2481
-23.0422 6.1903 20.4892
19.1408 -21.4545 12.0307
-19.9153 -46.3336 -25.4517
4.4060 68.3912 -56.7450
12.1949 6.2088 38.0800
-3.2988 21.4274 24.2571
17.0693 29.8166 2.3405
37.3966 0.6556 -2.9247
0.0501 -0.0132 61.6488
7.8200 -9.1983 40.8656
-19.9084 2.9767 26.9371
-44.1237 -47.8713 -50.8172
1.8054 1.4965 57.6842
-25.5820 20.7244 4.8190
35.4292 48.5686 -42.1963
-48.3963 17.7425 -27.3773
-30.6828 8.1502 6.8529
-7.8892 -0.5555 48.0653
12.9307 31.6119 2.6906
-9.7117 -8.5530 39.3652
-34.7817 -1.2055 1.5698
-63.4566 32.3958 -61.4384
47.7092 30.5689 -36.2225
-32.9398 19.1882 -4.1674
6.6749 -19.1547 26.6697
-4.1123 -36.2703 -1.3695
-1.0507 -0.8066 59.4484
-8.6399 9.8006 39.1505
6.4800 -20.8604 23.9738
18.3151 19.4034 15.6090
27.1629 -65.6130 -61.0332
17.3430 -67.5907 -58.9013
-1.6092 41.5278 -10.1110
-16.8181 14.6291 23.2016
-36.2584 45.9246 -39.4215
18.6226 5.5179 28.1591
-15.0898 -37.8675 -8.7355
-0.0998 12.4210 40.2636
-8.3861 5.9149 43.9965
16.4664 -13.1251 25.3335
-8.9974 8.4608 40.3860
26.3562 34.0283 -12.6741
-7.1210 -41.8408 -11.6383
-28.0328 34.3103 -14.8603
-6.5883 -1.5172 50.0500
-16.7312 -48.1801 -26.4374
-37.5857 7.5377 -4.5356
0.9841 -20.1732 26.8204
-38.7524 -34.9193 -28.4458
7.3443 6.9245 44.2876
-47.1740 19.6769 -26.6289
-17.3814 29.7610 2.1537
-22.2230 -17.4731 12.8644
-18.0565 22.8232 11.4250
-14.7572 -12.1019 28.7434
6.9198 -4.6856 47.2905
-61.4616 20.4939 -50.2710
-1.4108 -17.8924 30.7090
0.4593 -2.0795 58.0566
-6.5998 -35.8248 -1.2396
-25.1654 4.8065 17.4447
46.6844 3.9166 -19.2556
42.6581 33.2017 -31.7167
-28.4718 15.1842 5.9523
-9.9486 -3.1318 43.7067
4.8899 7.9876 45.5469
-3.8986 15.0170 34.9156
19.4470 29.6094 0.4944
51.7150 -15.4920 -31.5947
-0.6677 28.4988 12.4546
-21.9276 17.1931 13.5650
-11.6852 -15.5235 28.1468
4.1377 -37.4709 -3.4371
18.4818 -40.7585 -15.6330
23.6708 -55.1656 -42.0439
4.9168 61.2006 -44.4093
48.5251 11.5194 -24.4858
20.0714 68.2799 -61.3021
-40.0740 -23.3754 -18.4687
14.5579 63.1079 -50.2312
11.7008 -46.6687 -21.4422
-10.1336 24.6561 15.6518
-33.1157 -28.1736 -13.4299
-23.7341 5.4764 19.6275
-0.2766 -0.3867 60.9164
15.4674 -6.5905 32.6713
1.5687 -1.0753 58.4503
-4.2240 16.5365 32.2312
-31.8805 30.3988 -14.4185
35.4756 0.2206 0.4051
-26.3793 -3.4334 15.7478
24.4260 57.7750 -46.7061
-3.9944 -41.0718 -9.6036
35.2779 -16.6767 -5.7233
-17.2262 16.9556 19.9504
-2.7686 -63.4900 -48.1308
-0.2167 -3.1809 56.2262
-10.0502 -60.5530 -44.3809
-29.0592 -34.7830 -16.6206
22.8969 -26.3284 1.4152
-6.0625 -0.4058 51.2337
15.7396 0.0465 34.5267
38.6250 -16.9167 -11.1624
-24.7693 -64.6914 -58.0212
-7.9229 -26.0173 14.7189
-25.9663 53.9783 -41.8184
-58.1628 14.8340 -42.0354
20.7933 -42.3216 -19.7835
-23.1772 13.0878 15.7213
5.1979 -0.8684 52.6274
-20.9991 -18.7931 13.0184
24.7675 66.9701 -61.7073
31.5064 -0.1616 7.2677
-6.3113 -65.6336 -52.2559
41.7972 39.7402 -37.9715
25.8009 -35.6405 -14.3297
-7.2571 -14.2651 34.0681
-69.9361 -4.1733 -59.3859
1.7505 -30.1921 9.4531
49.1530 -31.6686 -39.3502
3.8036 12.3631 39.3757
6.2170 -58.9198 -40.6907
-14.4954 -17.4514 22.5171
21.5099 -42.0962 -19.9903
2.6183 8.6518 46.1108
53.3618 21.2718 -37.5761
28.9589 -63.1126 -58.3119
-36.0917 -2.0812 -0.7624
57.9956 27.1405 -48.9634
26.4473 -58.5530 -49.3383
19.2540 48.4022 -28.3195
18.7583 -5.6273 27.8802
-11.7649 16.5835 26.5858
-34.4831 -43.5455 -34.2914
46.5647 -37.2002 -41.3007
0.2610 7.3351 49.0490
-6.7444 28.3367 11.3799
-12.1206 2.5993 40.3071
-50.1949 50.6254 -61.5140
12.7422 -12.1631 31.2838
2.1402 -0.3966 57.9753
-3.9429 13.3532 37.6673
-38.9319 -49.3845 -46.9805
31.4755 39.6811 -25.8259
27.0637 -23.9992 -0.7974
-36.8768 54.6581 -52.2532
58.1735 -27.6437 -49.6127
52.0439 -44.1281 -56.2278
34.8813 15.1852 -4.0329
-61.0391 -10.7121 -45.4019
9.2900 18.3853 26.1256
-16.7906 -21.7791 14.1949
0.8683 -0.5675 59.9451
61.5044 32.0559 -58.1693
16.8937 -31.8641 -0.6136
1.0236 4.3063 54.0860
6.1344 -1.9891 50.5893
-2.5950 -49.5991 -24.1284
-23.7884 -64.2937 -56.7803
33.6196 -8.1202 1.9437
-1.5358 -48.6889 -22.4794
2.1888 63.0899 -47.4004
63.7823 -11.7484 -50.3868
-19.5038 32.3002 -3.4947
-34.6482 3.7725 1.4828
-8.3188 -10.0036 39.2450
-11.7698 -19.4101 22.4938
-41.1794 -10.9216 -11.9161
0.4235 11.5480 41.7602
8.2690 14.0574 33.5424
-3.9217 69.9899 -59.4536
46.7975 -7.1541 -20.1075
-5.2055 -45.4110 -17.2847
18.1890 -23.7342 10.0416
57.6937 39.1680 -58.8198
-10.5823 20.0847 22.4900
-23.6096 19.2241 9.1011
-49.5035 -26.1277 -35.0349
63.5818 -31.8162 -61.1795
-10.8826 67.5071 -56.4782
-62.6734 28.0319 -56.9589
-40.2228 -1.4421 -7.8455
8.3395 -0.9075 47.2356
8.9151 -24.8659 16.0693
-28.1323 65.3537 -61.2721
28.3895 -4.1831 12.1272
3.2636 1.0586 55.8067
20.2380 22.1590 9.8556
20.0722 -18.2932 14.7869
-10.5870 1.6997 43.2006
-60.5016 -0.0069 -42.8600
35.3435 -41.9228 -33.0602
51.1420 11.6406 -28.9400
-2.9077 35.8482 -0.4415
11.0839 -5.6802 40.2061
-25.8756 19.8614 5.3444
63.7386 -32.0813 -61.6272
2.5133 11.0159 42.2042
0.7821 -15.9412 34.1452
8.0410 -27.4159 12.3437
-6.1428 -2.7552 50.0991
-8.2680 9.7959 39.5767
-22.5063 -27.9793 -0.3411
38.2255 8.2301 -5.8623
7.9421 13.9260 34.0222
11.3527 50.0302 -26.9553
24.6529 10.3503 15.5132
3.4853 26.3811 15.7331
4.9971 -3.9537 50.7221
6.3382 -0.4967 50.7469
9.7040 -11.3171 35.9650
-35.0452 -24.9092 -12.5949
-4.7340 -34.1274 2.1722
1.7060 0.4174 58.7019
5.2182 -12.6582 38.0677
31.4412 -4.1883 6.9011
-43.0027 -5.6853 -13.2539
4.6755 -20.8572 24.7844
-13.2561 17.7972 23.3725
65.1785 21.0189 -56.6601
54.8607 -3.0607 -33.2552
-5.6923 32.1302 5.3250
-23.2148 43.5812 -23.6300
-27.0752 14.1397 8.9306
24.4630 44.2398 -25.6602
-11.4070 -27.8822 9.6562
0.6061 3.9826 54.7738
-13.1577 -7.8727 35.2296
5.2760 16.1677 32.3362
32.8542 -22.2820 -6.8927
-19.7105 2.4685 27.3956
18.4033 62.0824 -50.2094
0.6691 -52.8250 -29.5955
39.5467 -30.8571 -24.9822
-6.5905 22.5103 21.1877
-7.7344 -62.3891 -46.9489
-0.4474 0.2563 60.8469
-27.8734 -23.1772 -0.9336
-9.4486 24.0393 17.0830
2.7764 -13.7101 37.5544
0.0117 0.0640 61.6259
2.0239 -0.1842 58.2249
-1.3186 8.2643 47.2699
55.2914 4.7173 -34.1995
-11.5850 64.3771 -51.3479
-9.1038 24.7322 16.1753
52.0439 45.3347 -57.5875
0.8141 16.7791 32.6956
8.9244 -40.0579 -9.2138
50.9707 20.6788 -33.3583
0.8259 27.6190 13.9679
-4.2919 68.9115 -57.6302
-38.3789 9.3931 -6.5714
-37.6928 -3.0095 -3.6343
3.8592 -33.6635 3.1580
49.6813 -28.0659 -36.9112
-34.3815 40.2287 -29.7510
6.8602 -4.9870 47.0755
0.0667 -5.4983 52.2320
1.2551 -1.7063 58.0763
-0.0146 2.2488 57.8504
-14.9024 1.7839 35.7904
-43.6278 -28.4249 -28.2842
-18.9888 -20.7531 13.1068
0.2001 1.4986 59.1246
-66.5402 -10.9566 -54.8490
-22.6940 -21.1295 8.1308
20.1575 -29.7954 -0.4545
43.3182 -6.6646 -14.0336
-16.3020 -12.5537 26.1664
-5.8108 29.9398 9.0111
-12.4221 -65.2932 -53.1687
29.7753 -49.9421 -38.7849
21.0873 60.9562 -49.7737
5.6087 -16.0998 32.2635
4.4039 4.2013 51.2157
44.5149 -44.3662 -46.9175
13.2056 -45.6606 -20.4372
-0.2725 -13.0506 39.1710
33.2380 16.4568 -2.3829
-0.1556 -0.4093 60.9814
-4.4127 -21.0127 24.6180
8.5383 -9.8739 39.1706
0.3030 13.8398 37.8057
-12.2795 -17.7045 24.4884
-8.9745 49.7811 -25.7132
-3.8966 -24.1619 19.4264
-14.8093 50.2996 -28.9130
-5.2092 52.5415 -29.5434
-40.6673 -58.3676 -61.2485
-5.8783 -58.0367 -39.1118
-52.7453 18.2170 -34.7359
-12.7301 -11.4106 32.1828
-22.4739 -36.8814 -12.9295
21.3325 -18.1787 13.2829
23.3815 -15.4065 13.3288
-29.2081 28.2436 -8.5052
-39.7588 46.2442 -43.6973
3.2100 2.7104 54.4751
-18.6631 -14.8824 20.4700
-16.2380 27.6480 6.3048
-29.7482 30.1623 -11.5029
-18.8316 -9.5480 25.2356
-1.6231 4.8667 52.8690
22.6430 -9.9457 18.9822
27.9067 -16.6635 5.5452
-16.3347 -11.2332 27.4649
0.1474 -67.4120 -54.8073
-1.0777 10.6223 43.2798
29.5531 -18.9094 1.0819
39.6780 -1.4631 -6.9057
51.8363 27.0370 -39.3367
62.1366 -19.3805 -50.7906
0.8036 5.3806 52.3330
-8.4685 -6.3417 43.4474
-16.9217 16.9677 20.3091
-36.8735 -23.3783 -13.7433
-11.2262 -21.3084 20.0994
-37.8751 35.4254 -27.9202
-10.6214 8.3448 38.3862
-4.8767 9.3938 43.4397
15.1818 -50.0423 -28.6712
-33.5221 -39.5709 -27.9219
4.8424 11.4693 40.2148
36.2815 -40.7059 -32.5326
32.7250 -34.1773 -20.0678
0.5693 1.8759 58.3492
3.7037 -25.8651 16.5654
17.5326 9.6174 27.1662
14.7389 -0.0963 36.2564
8.9800 -3.5776 45.0265
43.7278 -19.4083 -20.9723
-6.4781 21.7577 22.4907
-0.5673 1.3566 59.1962
26.2158 44.1891 -27.0907
-11.1044 -31.3035 4.3150
-33.8920 48.8024 -40.9843
-3.0620 49.5388 -24.0704
-42.7928 -19.8622 -19.8249
-5.3852 -0.2762 52.4159
8.6725 13.5194 33.9696
-18.2253 36.7355 -9.1584
-5.0207 15.2451 33.9893
-43.1447 2.5087 -12.9783
11.1036 26.8092 11.5712
9.9594 12.7933 33.7087
17.6831 -44.5242 -21.0861
36.5843 -27.9113 -17.8160
12.9274 -7.0301 36.2978
16.8593 -5.0035 31.3347
-54.3475 -17.0459 -36.7337
19.3058 53.4285 -36.4769
-21.1248 1.3941 25.1373
-0.8810 0.5132 59.9757
6.2362 -44.7454 -16.3675
29.3333 19.9937 0.3657
-33.9645 10.1068 0.4742
15.9250 9.5109 29.6700
-1.3250 11.2188 42.2079
-23.8333 12.8413 14.9339
22.1847 -20.1391 9.9378
-14.6704 -31.5025 1.6591
64.0491 -23.1456 -56.0014
44.3593 -28.4319 -29.3530
-0.2465 0.5328 60.7235
-9.1407 -8.8753 39.7117
59.9622 38.7197 -61.6620
-13.7689 -3.2906 37.2637
6.6437 -8.3843 43.2440
-0.6417 17.5031 31.4578
-0.0532 -0.8879 60.2006
26.2194 -18.3276 6.4325
3.9854 26.2152 15.8954
30.7473 25.4277 -7.2418
-46.1279 36.4181 -39.8685
18.8692 48.9383 -28.9400
-57.0408 -26.5403 -47.0287
-0.4278 4.0000 54.7835
-45.0814 1.1349 -16.2254
-1.6791 20.0060 27.0293
-1.4488 -70.4370 -60.0625
-21.8778 -17.4683 13.3372
2.7003 9.9799 43.8642
15.7274 -20.3217 17.3125
-1.3845 -59.7368 -41.5654
50.6751 -8.3051 -27.0402
2.0234 10.4780 43.2887
39.8154 -14.1658 -11.3235
67.7205 19.5529 -60.1227
-3.7162 65.2878 -51.3173
28.6095 34.8185 -16.1720
-5.0677 -40.9251 -9.5555
8.9294 3.0751 45.4110
17.0117 -41.9957 -16.5966
13.4684 -19.8814 20.2219
49.4049 -28.7997 -37.1282
29.9289 -25.2268 -5.9332
26.8415 39.5377 -20.8800
-16.8478 -39.6679 -12.7707
2.6446 -22.6207 22.3641
24.9747 -58.6819 -48.5200
-7.3999 -0.9584 48.8382
23.4403 15.4479 13.2046
33.5104 45.7145 -36.2551
-59.7004 -38.5834 -61.1538
-15.5640 50.8294 -30.1654
-12.3870 -20.8536 19.8049
-12.5460 -6.2562 37.5010
41.8621 7.4127 -11.7610
-5.8823 -33.2597 3.3449
25.7024 -14.2326 10.9449
-2.1348 -60.8579 -43.5407
17.3077 -50.4056 -30.3995
-6.3556 -30.0493 8.6382
0.4930 -21.1902 25.0937
36.6993 -26.7451 -16.7702
8.7153 -15.8777 30.4248
-21.4220 -5.5484 23.4809
31.6539 21.5029 -4.4192
51.8711 -24.0777 -37.1293
-39.7636 -47.5730 -45.4551
1.3451 -32.2775 5.8869
-48.6335 11.9278 -24.8336
-12.1716 -3.6867 39.7513
-4.0944 15.0804 34.7228
29.0673 -18.8006 1.8898
10.6881 -53.4606 -32.5161
-3.8214 -16.6574 32.1920
-31.1589 -36.2340 -20.8815
-24.7991 13.4487 12.9656
-13.1831 56.0831 -37.8637
11.7562 -38.7783 -8.3167
-46.0943 -0.9216 -17.9678
0.0481 0.4304 60.9896
41.7254 19.2153 -17.6805
-24.8231 -49.9905 -34.7562
-3.2232 -57.4353 -37.7150
11.2092 -48.0075 -23.4918
-45.9091 -37.7431 -41.0112
30.5891 -15.3592 2.5621
-10.8120 -43.3110 -15.4377
7.9770 -30.4438 7.3287
20.2115 -26.7398 3.7890
41.6734 47.5221 -47.5357
2.8990 -15.9880 33.6467
-0.6986 51.5144 -27.3305
35.5012 58.3381 -56.3268
12.0297 33.3223 0.4900
-11.9476 -8.7209 36.1655
0.8321 4.9308 53.0932
-55.4694 -4.6739 -34.4998
50.2944 -11.8822 -27.6068
51.9845 20.4795 -34.8579
-4.8047 -69.1771 -58.1467
60.8563 -31.6654 -56.8637
3.9952 2.2863 53.7802
-48.3658 23.9326 -31.5560
19.0491 6.8501 26.7406
5.1852 -31.8346 5.9757
-11.4482 3.1534 41.2091
-19.9593 6.7974 25.2855
-2.3112 0.1359 57.7357
-5.5307 1.5572 51.8049
-36.2836 36.4915 -27.2283
42.9931 3.4512 -12.8294
-4.6120 -9.9781 42.7341
-29.9866 46.9553 -34.5820
-33.7866 6.6959 2.1903
53.9001 -27.4186 -42.8107
-9.1196 47.8459 -22.4692
1.9722 9.2575 45.3744
-10.5535 19.4636 23.4606
4.7892 11.4007 40.3598
43.3328 -3.0874 -13.3676
-18.0815 -31.9343 -1.7070
6.1001 48.2946 -22.4192
50.7194 -20.9551 -33.1372
63.1755 10.6775 -49.0316
6.9398 3.2340 48.5016
9.5886 -14.1479 32.1904
-1.9811 -31.7150 6.8010
-56.5110 9.2898 -37.2722
3.0341 1.8017 55.6378
-3.4488 -57.8151 -38.3931
6.2833 -2.7272 49.8964
-2.4707 13.4921 38.0247
52.9137 -2.9618 -29.8849
-13.2596 0.1524 38.8130
26.1188 27.8444 -4.2645
38.3503 -3.2236 -4.7974
-31.2220 -42.7565 -29.7917
14.1604 -11.7089 29.9719
38.7809 -50.3463 -48.1316
-9.7788 23.6873 17.4341
0.4166 -32.8284 4.9783
59.5194 -14.7293 -44.2659
38.8481 -8.8093 -7.1293
13.8489 12.3388 29.6710
16.9255 -13.8079 23.9744
-7.9200 1.3225 47.8562
-41.9327 -20.4016 -18.8821
16.0982 -14.2241 24.5992
-16.7044 3.1144 32.3612
4.3761 17.9002 29.8802
-1.8527 -21.9989 23.5708
39.8497 8.6003 -8.7420
-25.9009 13.8180 10.9856
-21.9022 -11.7858 18.7386
-62.1512 32.2575 -59.3222
-0.6312 46.1037 -17.9756
51.6779 1.2346 -27.6306
-10.8457 -37.5543 -5.8408
3.0005 -2.5172 54.9672
-17.0148 -50.9617 -31.1477
-24.1236 -53.8281 -40.2406
-8.6452 -9.6464 39.3436
1.0360 -34.7365 1.6573
24.7067 58.0914 -47.3991
-39.9214 -29.9415 -24.5348
16.7982 30.0030 2.2911
25.6798 33.1934 -10.8169
3.6780 16.1639 33.0791
53.2515 -46.7436 -60.7625
-56.3796 15.0224 -39.1343
4.6685 -6.6920 47.6318
-17.2541 0.0452 31.9084
55.5835 -7.0138 -35.1194
31.0344 12.2149 4.0782
-37.9267 5.6672 -4.5592
-0.3396 -0.2394 61.0200
0.7449 -28.7321 12.0481
43.4296 33.1893 -32.7598
0.5928 -0.4912 60.4074
-65.4413 8.3461 -52.3164
24.7975 -1.4120 18.7977
8.9981 15.3012 31.0499
10.2058 39.3534 -8.5485
31.8678 9.1115 4.4359
2.4113 17.2644 31.6011
-3.0238 -10.6735 42.5593
11.1857 42.5346 -14.2979
-18.4087 7.9118 27.0976
-2.6802 5.9987 50.3795
62.5524 11.1697 -48.1161
-66.6414 17.9116 -57.5637
11.3484 -40.6141 -11.1670
-41.3357 -40.9424 -38.8463
-41.4511 -35.6617 -32.7960
-5.2500 58.1540 -39.2102
11.5817 -51.7212 -29.8943
-59.8330 11.8080 -43.6991
-52.2740 -25.7398 -38.9976
15.6350 29.5021 4.0138
-35.0173 9.9007 -1.1746
-0.1493 -0.0262 61.4763
23.1702 -43.6301 -23.6684
6.9239 -26.6666 14.1072
-22.5125 25.2955 3.1950
-0.6392 -1.7687 58.4871
3.2149 -11.7484 40.6804
-43.0320 35.9185 -35.1683
-10.1454 19.1826 24.2218
33.1999 15.5931 -1.6748
-1.5553 -35.1535 0.9037
3.2214 -1.9057 55.2674
16.2778 -25.9280 8.8110
5.1075 14.5457 35.0858
-49.0665 -49.1062 -58.2760
-3.5975 -15.7624 33.7867
0.4270 15.4936 34.9420
-0.3926 -0.0857 61.0435
48.7773 47.0805 -55.4646
-13.0687 42.1230 -14.5104
-24.3138 -26.2588 -0.1315
-15.7022 32.1292 -0.0870
-17.5389 -9.6411 27.1370
-2.9182 -21.8993 23.5430
26.1908 3.7087 16.0065
37.6486 22.9544 -14.4944
41.4700 45.5083 -44.7056
25.8006 14.9757 10.1634
16.2056 -17.0333 21.0918
18.8362 -11.9750 23.1496
18.4889 0.6933 29.7514
-32.8661 -8.1946 3.1782
-26.9644 40.4556 -22.3154
-19.9868 11.2443 22.0912
8.3943 -25.6139 15.1383
-30.7048 -19.4367 -1.0875
22.8504 3.3362 21.8146
-9.4957 -3.1190 44.4588
-2.7595 -37.0122 -2.4278
-5.8319 -31.7940 5.8543
23.4058 38.9440 -16.8144
-14.5633 0.7214 36.5297
19.5056 -43.2595 -20.3020
-11.8999 8.6505 36.3038
30.7538 -4.4895 8.0060
6.5580 8.7940 42.7727
46.5873 -7.2463 -19.7726
41.0447 -0.3903 -9.2250
-10.8049 -34.4641 -0.7046
-17.9727 -6.8579 28.4811
46.4916 -7.8538 -19.7775
21.3027 -46.5222 -26.7228
-11.0173 55.7170 -36.4532
0.2240 -28.1423 13.0830
-27.8344 -25.5806 -3.6187
30.6465 -20.1889 -1.7084
-22.3885 26.4863 1.7801
-68.6134 -5.1424 -57.2168
-9.4269 7.9461 40.4232
0.1487 0.6164 -61.7384
-2.0530 -66.8712 -61.7384
-10.6343 -64.2892 -61.7384
-3.0329 -1.1917 -61.7384
5.4303 -3.5939 -61.7384
-49.3796 29.3706 -61.7384
-21.9646 28.7985 -61.7384
51.2955 10.9433 -61.7384
-11.8254 45.1982 -61.7384
9.4778 -15.4490 -61.7384
-6.1248 -16.7226 -61.7384
-24.3682 56.5456 -61.7384
-13.4430 4.8681 -61.7384
-44.7327 28.4169 -61.7384
-25.0361 -21.1227 -61.7384
-9.0590 -6.0606 -61.7384
-31.3526 55.6553 -61.7384
-19.1408 19.9982 -61.7384
-24.7074 -11.4923 -61.7384
5.3170 26.1759 -61.7384
-53.9694 8.2471 -61.7384
-25.2368 -14.9187 -61.7384
-6.2377 -2.6022 -61.7384
5.6937 -46.5551 -61.7384
2.7258 -23.8140 -61.7384
-67.2240 16.4852 -61.7384
-14.4317 -12.6332 -61.7384
2.3788 -5.1604 -61.7384
34.8216 2.0731 -61.7384
4.0237 -4.1234 -61.7384
40.9009 34.2015 -61.7384
42.1238 38.9921 -61.7384
7.0819 5.0170 -61.7384
17.6220 -36.0169 -61.7384
7.2113 -2.8584 -61.7384
-9.1164 15.9842 -61.7384
20.2689 -1.2640 -61.7384
-16.7317 -40.9544 -61.7384
54.2210 -30.2615 -61.7384
-43.5774 35.3855 -61.7384
-38.8262 -55.7426 -61.7384
-16.6120 9.4523 -61.7384
64.9833 -7.3075 -61.7384
-2.0047 -1.9261 -61.7384
7.8881 -12.4276 -61.7384
-58.4906 15.8498 -61.7384
-6.2891 1.1673 -61.7384
0.2849 -1.7461 -61.7384
17.6687 -3.4610 -61.7384
-8.4098 -8.5902 -61.7384
-8.5281 -0.3596 -61.7384
-22.0067 18.5578 -61.7384
-12.5896 -7.3083 -61.7384
-39.8413 39.2738 -61.7384
17.2682 -50.5596 -61.7384
-2.1018 41.5486 -61.7384
-8.5717 -11.8955 -61.7384
38.9301 -47.2625 -61.7384
29.3066 33.5393 -61.7384
-15.6480 -13.7784 -61.7384
-12.3653 57.6151 -61.7384
29.7020 -6.1322 -61.7384
26.2254 59.3947 -61.7384
0.5688 -23.4727 -61.7384
34.2959 1.1190 -61.7384
-1.4491 -0.8800 -61.7384
-46.4018 36.8335 -61.7384
43.5717 -27.5461 -61.7384
10.7489 -20.1288 -61.7384
-16.2054 44.5460 -61.7384
-55.2729 17.9549 -61.7384
22.6386 -8.4311 -61.7384
53.1265 -11.6993 -61.7384
-8.0395 -10.7535 -61.7384
-5.7600 -58.7700 -61.7384
-56.6319 -0.1670 -61.7384
1.1973 64.0820 -61.7384
9.9788 6.9107 -61.7384
23.9067 53.9484 -61.7384
-31.2416 -9.3357 -61.7384
-0.4766 30.5999 -61.7384
51.8877 -14.8484 -61.7384
21.6510 -15.4784 -61.7384
-31.6737 50.6144 -61.7384
64.8303 -28.8519 -61.7384
58.1059 -32.3773 -61.7384
19.5752 40.9888 -61.7384
-12.2429 -15.0390 -61.7384
-6.1005 -47.4040 -61.7384
15.9395 42.5538 -61.7384
14.2226 7.6100 -61.7384
54.9659 14.6724 -61.7384
-15.4067 -2.6750 -61.7384
-0.2901 -1.8143 -61.7384
-60.0862 -19.1308 -61.7384
29.7465 -4.6016 -61.7384
-5.4596 -0.2167 -61.7384
-10.9639 24.7491 -61.7384
-14.9215 -6.5705 -61.7384
11.5931 1.4172 -61.7384
-9.7713 59.5590 -61.7384
2.4802 11.4292 -61.7384
3.1117 -12.3110 -61.7384
6.7554 -27.6770 -61.7384
28.6434 -33.7028 -61.7384
42.2467 -27.0354 -61.7384
2.3059 3.7500 -61.7384
-7.1300 -0.1262 -61.7384
17.3018 3.6855 -61.7384
19.5392 13.8751 -61.7384
46.1807 -21.1746 -61.7384
-46.5529 40.2964 -61.7384
-34.3813 60.5822 -61.7384
52.8480 35.8503 -61.7384
30.8358 -18.7347 -61.7384
9.1595 -28.4347 -61.7384
-17.5916 -8.6209 -61.7384
-0.6326 20.8768 -61.7384
4.3772 -15.8644 -61.7384
-17.1521 -69.0280 -61.7384
10.6648 -38.5034 -61.7384
-44.3230 50.2965 -61.7384
-19.4974 7.2160 -61.7384
1.7771 -3.7437 -61.7384
11.4050 -47.4297 -61.7384
6.5649 4.2336 -61.7384
-37.6116 -26.4096 -61.7384
-52.6644 37.5519 -61.7384
2.1007 42.9267 -61.7384
-37.4326 47.5599 -61.7384
-2.8234 -56.0053 -61.7384
60.9301 12.3323 -61.7384
-23.6504 19.2827 -61.7384
3.3881 19.2146 -61.7384
20.3312 -8.7351 -61.7384
-9.2419 -3.6878 -61.7384
63.0928 26.3174 -61.7384
24.5702 28.3625 -61.7384
-4.3684 -3.4075 -61.7384
29.6146 -55.4308 -61.7384
5.7537 -18.8499 -61.7384
1.8455 26.3790 -61.7384
-51.5067 10.2706 -61.7384
-8.3070 20.3474 -61.7384
65.1979 -20.2240 -61.7384
50.8801 -12.3720 -61.7384
33.6067 50.8711 -61.7384
-15.1854 -29.0661 -61.7384
-0.8411 -44.0340 -61.7384
-20.2724 6.0933 -61.7384
0.1873 0.8030 -61.7384
-31.8899 59.3165 -61.7384
52.9833 43.6322 -61.7384
28.8320 -23.9825 -61.7384
-16.5535 24.9985 -61.7384
3.1707 -10.9457 -61.7384
-26.1306 55.1589 -61.7384
0.0212 -44.2182 -61.7384
-1.4078 -2.9552 -61.7384
24.9266 -48.4451 -61.7384
9.5924 -9.7857 -61.7384
33.3782 -42.8971 -61.7384
45.6217 -31.2019 -61.7384
25.2594 14.0296 -61.7384
-6.8721 -3.5480 -61.7384
51.2032 -12.1590 -61.7384
-33.5663 52.2416 -61.7384
-2.2096 -0.8966 -61.7384
-3.7812 -2.2959 -61.7384
-56.7334 -29.2397 -61.7384
-3.6042 -4.1974 -61.7384
7.5702 -69.8843 -61.7384
14.4082 -14.3493 -61.7384
-49.1209 -9.7441 -61.7384
-16.0061 -68.2014 -61.7384
-44.7168 -25.7175 -61.7384
29.6389 -39.6101 -61.7384
12.9137 14.9011 -61.7384
-9.0017 -47.5889 -61.7384
-5.1666 -18.5700 -61.7384
-43.9880 8.2006 -61.7384
-39.0654 -29.2087 -61.7384
8.9215 30.4921 -61.7384
-2.6719 -1.4372 -61.7384
14.6532 0.4077 -61.7384
25.9131 -48.0997 -61.7384
48.4159 -27.4021 -61.7384
27.7204 -29.3867 -61.7384
28.9656 16.2913 -61.7384
-11.2597 -32.8155 -61.7384
-14.6769 9.3117 -61.7384
-0.6496 51.4211 -61.7384
-8.9732 -26.6216 -61.7384
-24.9444 -23.5601 -61.7384
-0.8249 -5.9169 -61.7384
-35.5761 -23.0542 -61.7384
-10.9588 14.9903 -61.7384
33.9739 -6.5845 -61.7384
-39.1319 -6.0377 -61.7384
-24.9435 -0.3320 -61.7384
-10.6401 44.7143 -61.7384
14.2282 8.4488 -61.7384
-21.3791 -46.2952 -61.7384
38.8761 50.7509 -61.7384
24.0565 31.1009 -61.7384
-13.1363 20.7597 -61.7384
-17.5590 -0.3629 -61.7384
-0.7337 19.7155 -61.7384
22.0667 33.0308 -61.7384
17.5118 -3.2645 -61.7384
15.1891 40.5163 -61.7384
-15.7639 59.4223 -61.7384
59.5036 30.2018 -61.7384
-1.5658 -34.2425 -61.7384
4.9347 -39.4148 -61.7384
-6.0409 -32.9503 -61.7384
-44.3615 53.7922 -61.7384
-50.1925 -6.1738 -61.7384
-59.7867 1.6983 -61.7384
-8.7017 -4.0313 -61.7384
3.1267 0.3439 -61.7384
21.1218 -6.8456 -61.7384
-1.0870 -23.6077 -61.7384
-49.1889 -20.3052 -61.7384
-68.5725 18.5194 -61.7384
-39.8769 45.7806 -61.7384
-9.2722 -26.0316 -61.7384
40.6979 4.4554 -61.7384
-16.4805 -22.9426 -61.7384
-31.0112 19.0720 -61.7384
-13.8930 23.2146 -61.7384
-4.7663 -24.2091 -61.7384
-34.8287 1.3569 -61.7384
-42.1238 4.5510 -61.7384
13.1084 27.9316 -61.7384
-1.4729 7.6864 -61.7384
49.6933 -9.5405 -61.7384
-57.6263 -31.0822 -61.7384
36.6097 27.6306 -61.7384
-6.7949 -51.1739 -61.7384
17.4262 -7.2812 -61.7384
-13.8153 45.4215 -61.7384
14.6041 4.8832 -61.7384
-18.4068 42.6074 -61.7384
-3.6419 26.8794 -61.7384
13.7650 3.0029 -61.7384
-0.1231 -31.5660 -61.7384
-70.1059 -3.4729 -61.7384
10.4842 55.7701 -61.7384
-14.0130 -18.1670 -61.7384
18.7035 53.8478 -61.7384
-10.5861 35.5150 -61.7384
-7.0324 17.1523 -61.7384
-18.1260 -10.2942 -61.7384
-15.9231 -4.0240 -61.7384
-18.4876 -4.3676 -61.7384
