ply
format ascii 1.0
element vertex 1024
property float x
property float y
property float z
end_header
16.8912 14.4616 -5.0578
17.3106 -6.6193 9.2890
2.8499 0.5803 69.8200
3.2268 -1.0391 67.9542
17.5824 -28.2409 -47.7915
-22.1741 -12.6335 -17.7812
-2.8030 -11.8318 33.9813
25.3325 28.6295 -67.0113
-6.0571 -4.0430 52.8744
6.4622 25.1797 -19.6221
-20.2763 24.2845 -41.4747
1.1228 -15.9795 19.0288
14.1375 12.1927 8.7620
-1.5841 9.4513 43.9617
2.8616 5.3409 57.6135
23.1921 7.9916 -13.9455
8.4934 -3.1063 46.0517
-1.1186 -0.9310 75.4492
31.5344 -19.6004 -62.7551
1.0024 1.2738 74.8079
-5.7249 -15.2477 17.9901
-5.7777 32.4731 -46.6917
-7.4490 6.3800 43.0913
17.1511 -16.0496 -9.9123
-13.5535 38.0109 -75.2513
-10.4515 -26.8792 -30.6397
-4.1734 22.1225 -6.1289
29.5868 -16.9464 -51.0047
-19.0246 12.9365 -8.0406
11.7596 -22.0185 -15.6175
-4.3765 38.2425 -68.0344
2.5531 3.4309 64.5195
-4.0521 -5.2863 55.2833
20.3556 14.4124 -15.5373
14.6326 -8.1701 16.1617
-3.1086 -11.0828 36.4946
31.5877 27.0649 -80.0621
3.2932 7.7258 48.5512
4.4560 -21.6870 -4.6850
14.4726 1.7438 24.6136
13.8289 -30.2970 -47.9346
-12.5435 -3.5907 30.5411
-4.0550 -4.3866 57.9446
37.9359 9.8883 -70.7903
-14.6592 -10.0760 12.1746
22.7523 -1.9992 -7.3968
-10.3383 -24.8831 -23.3008
-8.2862 6.8507 39.4352
-13.3418 -30.0580 -46.3158
10.9701 -23.1723 -18.2356
8.0530 32.7837 -49.6951
35.2865 18.0274 -72.4225
5.5335 11.3223 32.2657
-2.8096 -14.0315 25.6490
0.8997 -21.6690 -2.9326
-19.3975 5.4929 2.9848
-1.4243 32.4912 -44.9071
10.5790 -18.7756 -2.4023
-16.4508 -13.0933 -0.3666
16.2325 18.9646 -15.6212
15.1818 -3.2068 20.9740
8.5200 9.8162 30.7320
-15.1172 -17.5455 -8.6354
-22.5489 33.3538 -74.8862
-7.1795 6.4644 43.6598
5.4115 -26.9654 -25.4617
31.5352 -2.3047 -41.4085
-23.5557 5.2808 -12.4345
4.9388 -18.9449 5.2403
0.0779 0.0045 80.7852
-12.0075 -26.7207 -32.4026
31.7318 -4.2370 -42.9355
1.7013 -6.9979 53.1871
-1.6336 -4.2129 63.5821
29.6738 -11.7899 -42.6127
29.6178 -2.9441 -34.2199
16.6328 -11.6993 2.3068
18.1553 -34.4083 -69.6313
-0.1683 35.7626 -57.4614
13.9024 -11.9396 10.0919
-1.4500 1.4268 73.2065
1.0147 5.0957 60.9587
3.4577 37.2158 -63.7109
-8.6695 -20.7527 -6.0439
5.1861 -1.8954 59.6962
9.1387 -18.8200 0.0356
9.2737 13.9283 16.2617
-23.9267 -24.0580 -50.3620
-0.0197 37.5691 -64.4587
19.2321 -3.0096 5.6737
-8.8995 -2.0892 45.6725
-0.6988 -0.8521 76.8183
0.4633 18.1721 10.6641
25.8449 -8.3385 -24.1201
-3.2954 21.1525 -1.8477
2.0265 3.5098 65.3864
8.4524 -26.3721 -26.1995
9.9855 -32.9496 -52.2952
-2.1726 -0.3617 72.5548
11.6858 14.4804 9.0004
-18.0830 -11.8340 -2.6358
-6.0183 -20.4445 -1.4768
-8.3391 0.9751 48.5607
3.8594 -18.3567 8.4172
8.4457 11.6857 25.2297
4.0623 -0.9970 64.8827
-15.0083 -4.7532 20.0977
-32.7430 15.4709 -59.2087
-0.7451 -1.7535 73.7064
-14.4973 33.0421 -58.6996
-22.6159 29.6442 -63.3624
-16.1507 20.2858 -19.3670
-10.9407 -0.6760 38.6213
40.4243 -2.2213 -75.7560
-17.1156 -13.7373 -3.9360
-9.9635 -26.7662 -29.5583
-2.6995 1.6832 68.7627
6.5691 11.5221 29.7047
3.0154 -0.9429 68.8477
5.3893 -3.5215 56.1465
-30.8470 -0.3109 -38.4226
1.7213 -41.6031 -80.2246
-15.1549 10.0028 10.7403
38.6813 4.4411 -69.7518
4.3794 8.8779 42.7366
-0.9302 0.7620 76.4288
6.7341 9.0949 37.2459
6.9858 32.9503 -49.4023
14.2107 -6.8065 20.0447
-0.9056 -28.4313 -29.1140
-22.2138 10.0750 -13.4085
10.3476 -7.2116 32.2248
-7.8764 -4.8633 45.2257
-2.6348 2.1035 68.0259
-3.4579 5.3435 56.4297
-11.3389 0.3813 37.1348
24.2872 10.5057 -21.4289
0.1247 3.4568 67.6866
-2.6103 9.2610 43.8115
14.7084 -4.8168 21.1279
1.8920 -0.3089 73.6604
13.5451 -16.4436 -1.4463
2.9980 -12.5573 31.0719
-0.1708 -1.5007 75.2358
38.1930 -11.6275 -73.5805
5.4156 17.2773 10.9423
10.7214 13.9518 12.9210
-14.6656 -8.1580 16.0728
-19.4964 15.3338 -15.0051
29.2494 24.6067 -66.9929
3.2416 11.3771 35.2575
-8.3478 -2.4714 47.3599
-1.6411 -1.5417 72.3640
-22.2719 -9.8253 -13.2190
-41.2759 -0.3156 -78.8237
12.7064 5.9127 26.7932
-1.9432 -10.8917 38.2256
0.7550 -1.4817 74.6449
7.7214 -8.5677 36.4050
-15.4573 37.0066 -74.2831
-21.7554 6.6272 -7.0185
14.0816 22.2696 -20.9879
-10.3703 22.5113 -14.9321
-2.6750 -25.2854 -17.4171
-3.2237 31.1714 -40.3174
-13.5761 -31.4736 -51.7040
2.9337 -21.8945 -4.4917
8.5412 -7.1217 38.0047
4.1286 -27.7395 -27.5614
12.2453 -22.1969 -17.1227
-10.7270 -5.9994 33.4722
-19.9417 -2.0135 3.4385
-0.3739 8.4291 48.4002
-23.2137 18.5930 -34.1348
9.5203 34.2225 -56.5282
-0.6532 -0.5734 77.7202
17.7635 24.3912 -35.8095
11.3293 36.3955 -66.5852
-11.2538 -16.9661 2.2141
6.7348 15.8918 14.2206
40.2489 5.8884 -76.5002
-19.3635 19.6759 -25.8603
29.5505 1.3652 -33.5157
-20.9546 -6.7721 -4.2266
2.2882 -7.6616 50.1102
-25.0643 26.0234 -58.8864
-0.1810 -36.8589 -61.7090
1.8373 -16.7863 15.6675
-0.8574 -1.1041 75.6717
-24.6343 8.5188 -19.8932
-3.7434 -0.5149 66.4485
13.2786 -24.0826 -25.4530
-18.2412 -6.3070 6.3146
-25.6645 -4.4180 -19.8017
-3.6191 -12.5376 30.5327
-3.5087 -0.3940 67.4090
18.4260 -29.5284 -53.7533
24.5986 -24.2207 -52.6516
3.0024 14.8927 22.2311
-1.2881 -2.9815 68.5048
2.0232 -3.8933 64.0893
-18.3573 -18.7096 -20.4579
5.7613 -0.1613 58.7587
-25.5798 -6.1685 -20.8515
-4.3754 18.0868 8.9962
-30.5299 -4.2733 -38.3410
9.5974 27.0312 -30.0384
-8.6377 6.5521 39.0860
-11.5767 -28.6955 -38.7872
-33.8178 -20.1279 -71.3752
15.0914 -36.6321 -72.3997
22.4128 -30.1146 -64.3443
15.0456 -27.0942 -38.9759
-5.3553 10.7963 34.3987
26.7067 21.8521 -52.5972
5.2998 -16.4324 14.1979
7.8913 12.0452 25.3005
-3.3314 4.3001 60.0138
-5.5537 8.5960 41.4400
-7.3319 -9.8503 33.5157
11.0154 -23.1672 -18.2933
-4.7402 -2.6755 60.0002
-17.8638 36.9638 -77.9598
-28.5034 -6.3265 -32.0245
-4.4256 7.0852 48.7241
9.6850 16.7999 5.9624
-28.9893 -23.0352 -62.3584
-10.5151 -27.4448 -32.7729
-22.7471 -17.2039 -29.4024
-9.1224 -12.8907 19.9076
7.2593 10.7664 30.7821
2.0005 -10.0513 41.3842
26.7612 2.1950 -22.9359
29.3910 -10.2308 -39.4771
-21.0134 -4.0545 -1.8219
6.1943 7.4165 43.6519
-24.9832 -10.6643 -24.1484
26.8766 -21.8672 -53.1443
-2.5216 9.4378 43.2421
-30.2066 -26.5275 -74.6559
-4.1729 -5.9839 52.8250
-1.7213 -0.6218 73.9971
5.0710 37.8928 -67.0212
0.1516 2.4514 71.5721
11.5044 -11.2989 18.6176
-12.7153 20.9031 -13.6986
-13.4029 -11.6730 12.2313
-11.3859 8.9366 25.0132
-13.3182 4.9580 26.0322
36.9613 16.1067 -75.1093
-39.5089 -7.1359 -74.4499
33.7925 21.8823 -74.8785
14.0295 -12.1712 9.1331
2.8104 -0.6955 69.8712
2.4098 -2.5204 67.5782
-16.7631 10.2713 4.9242
32.6279 -8.2580 -49.3017
37.2479 -14.5961 -73.8979
-38.0539 -1.7564 -66.4938
37.2835 12.9298 -71.7914
5.5868 7.3946 45.1831
-1.4298 -8.1689 48.9591
-1.4302 -41.4672 -79.6555
14.8430 -0.7165 23.5172
1.9318 0.4283 73.4215
-7.8287 -25.5546 -22.4548
-19.7627 -33.7231 -70.3400
-2.1678 21.4760 -2.5353
22.5651 -2.6439 -6.9297
-15.7753 19.9640 -17.4868
8.4654 -29.6974 -38.5460
3.7425 2.4942 63.6636
-14.8822 -15.4092 -1.9053
11.1742 28.7579 -38.4380
22.6786 9.2760 -13.8367
12.7598 0.4483 31.6241
-6.6939 12.3555 26.6477
3.6806 -1.0748 66.2329
-12.0475 -18.8523 -5.5875
-8.3474 -11.9366 24.6584
29.5429 3.6023 -34.2122
-5.0941 -1.5372 60.4734
9.4757 3.7061 41.6698
16.1000 28.7476 -46.5597
-15.5667 8.0194 13.2486
-28.3984 4.6260 -30.3806
8.8814 -12.6820 21.1061
-33.7518 0.3791 -49.6781
26.6377 29.7124 -73.5074
38.8687 -3.4721 -70.0929
-15.8901 -0.6454 19.4768
-6.2037 3.5203 53.4539
-13.5266 -35.8713 -67.4332
16.6620 4.8227 13.8876
-0.1059 2.6301 70.8900
-14.2214 9.1382 15.5987
-26.6527 1.3063 -22.2914
1.1838 15.3283 21.5274
-7.3865 -3.2204 49.8700
6.3262 -23.4792 -13.1169
5.7500 4.9831 51.6103
11.4886 -9.9594 22.1836
17.8213 7.0640 6.8202
-22.2894 -22.7721 -42.3608
-0.3010 12.5060 32.6241
-10.4416 -10.6855 23.2082
-1.4366 3.7773 65.4309
-11.4307 27.1100 -32.8934
-6.1017 2.4152 55.6644
31.2682 -22.2021 -67.4793
-26.9445 -26.3745 -64.9826
3.9756 -5.1956 55.7427
4.8693 -33.7947 -51.1881
11.9445 -29.7949 -43.2705
14.9849 -33.5952 -61.4233
23.8337 -16.3270 -30.8340
11.5353 -3.0927 34.8204
-12.7332 21.5110 -15.7539
-21.6388 -3.8733 -4.0755
30.2326 7.6268 -39.7057
-6.6810 15.0404 17.3295
-22.9195 1.0527 -7.7985
7.3996 -2.3964 50.9549
24.6768 -11.6533 -24.6363
-3.6062 3.3810 61.9369
-11.5238 -3.8700 33.9928
-9.1455 -0.4155 45.6203
-2.2903 -34.1116 -51.3614
10.4314 -6.8319 32.7794
15.7565 11.8357 4.7422
-13.2896 24.7501 -27.7450
-26.1863 -20.8775 -48.6563
0.4946 -9.1943 45.4163
-0.0490 -0.2709 80.0209
-0.1164 6.2684 56.7990
2.1069 17.5405 12.6456
20.8822 17.6213 -24.7665
-13.0894 -14.2940 6.0010
11.9456 -7.2253 27.0024
17.6594 -30.2098 -54.4774
-16.6838 5.3903 13.1631
2.2322 3.4843 65.0563
1.2854 -6.3951 55.8166
-13.4126 -7.0767 22.3370
-0.0199 0.1265 80.5911
12.1409 -7.2680 26.2687
-19.4982 30.8970 -60.4522
25.1669 14.7166 -31.8573
4.8550 2.7090 59.5487
-3.3634 1.1623 67.3012
-1.8577 2.6064 68.6875
0.8246 -11.7979 35.2699
-6.4817 -1.8980 54.9223
10.3255 7.1341 32.4663
0.3334 -1.7211 74.2958
-2.8233 -38.5885 -68.8075
-0.8082 -18.3437 9.9534
-7.0489 7.2800 41.8296
0.6551 4.9441 61.7663
38.7245 9.0526 -72.9793
-13.0766 -7.0373 23.5573
25.1024 -29.1725 -68.0103
-8.5844 -14.6627 15.2635
7.0389 27.5230 -28.9710
8.0157 28.7561 -34.5633
-3.6969 13.9719 25.0963
-28.2032 17.1992 -46.8884
-31.0101 5.1858 -40.7164
0.6566 -37.1170 -62.7297
16.5947 38.0056 -79.5734
6.8409 15.1220 16.7879
5.1373 -8.5925 42.3034
-5.5115 -3.5966 55.5912
27.9226 25.2164 -64.6698
-3.8813 -4.4588 58.1859
-33.3087 -8.5684 -52.1545
-2.1153 0.5068 72.6606
0.7270 1.9355 73.0777
-24.0659 -1.3458 -12.2916
-28.5415 24.9187 -65.6970
-2.1629 -6.7462 53.6415
3.9250 -1.0097 65.3865
-3.2986 1.3936 67.2148
3.2366 27.4101 -25.8396
8.6748 27.6704 -31.2546
2.0967 -23.1001 -8.7722
0.0283 -0.2154 80.2455
11.8976 19.2745 -6.6638
-6.0397 -21.1997 -4.3103
32.5933 18.4184 -63.9483
16.5575 18.9382 -16.3677
-3.0218 -3.8111 62.2449
-31.6274 -23.2175 -70.9104
-1.6972 2.6493 68.8981
6.0949 26.7285 -25.1190
-8.0879 -12.0542 24.8505
-30.7099 23.8015 -69.4351
34.6967 13.0887 -62.5767
5.3365 -7.4304 45.6466
2.2012 -0.5984 72.2504
13.8839 -21.2354 -17.2034
-22.0679 11.8166 -15.8905
-4.9636 4.2442 55.7866
-0.0813 -0.8884 77.6313
23.2871 -7.0849 -13.2120
-11.5686 11.6619 17.4493
8.1963 -15.1878 14.2272
1.2432 0.1752 76.2233
-3.3140 -3.0171 63.7251
-2.8241 -18.8661 7.1843
4.3643 -1.8682 62.6958
8.4628 1.5425 47.7616
-0.0088 -2.6030 71.0030
-26.1471 -28.5854 -68.9950
-0.2573 1.3853 75.6287
-7.5901 12.0616 25.8779
-8.3462 24.1507 -17.9041
5.3190 32.2265 -45.4500
-13.5457 -31.8564 -53.0206
34.7017 13.1881 -62.7312
15.1917 14.3346 0.1694
3.7220 20.5798 0.0661
-17.4883 4.8208 10.8092
-15.7244 -38.0364 -78.3643
-27.0443 -22.8611 -56.1025
-15.9226 16.6145 -8.0647
-28.2953 -18.1400 -49.1234
17.7196 -0.2245 12.4346
0.4332 0.1975 79.2430
3.2374 -8.5530 45.6579
5.5986 11.1563 32.7300
23.7832 19.8900 -39.0252
6.5097 1.1163 55.4999
-1.0042 9.5243 43.9849
-11.4409 20.4397 -9.6586
22.4531 -22.4414 -41.8961
15.1315 -29.2571 -46.5188
30.4486 24.8439 -71.1567
-8.4422 8.0730 35.8345
-5.2501 -14.9413 19.7340
19.8409 -11.3181 -7.4046
17.5066 -25.5582 -38.9281
-3.7327 -37.9401 -66.6054
-10.3218 20.3968 -7.4732
1.3651 -28.4800 -29.3732
-21.8208 -2.3910 -3.9544
7.4015 -32.2060 -46.9340
11.4194 -8.5764 25.7602
1.4726 2.2942 70.5260
8.1435 1.0691 49.2680
-23.1195 -22.8697 -44.8970
-12.8880 -19.2289 -8.5917
24.4952 3.4029 -14.7205
-14.9845 -2.8462 21.9983
-41.4741 -3.8079 -80.2627
-2.8899 3.5809 63.2605
-2.5873 -31.8187 -42.5879
13.4391 -14.4220 4.7173
-14.6513 7.2722 17.7196
6.7146 9.8787 34.8127
-5.5726 31.9094 -44.4032
4.9438 15.2032 19.1531
-0.0976 17.1117 14.7940
-21.9047 -30.5131 -64.4290
-7.8081 -0.1135 50.8349
0.4963 1.3753 75.4228
3.1768 4.2809 60.4351
-19.2784 9.8676 -2.8138
-34.5689 -18.0590 -70.0086
3.9246 -5.5734 54.6794
-20.5069 -19.8696 -29.5334
-1.6304 1.0570 73.5599
-0.0038 -19.5285 5.4323
-16.3276 25.5421 -36.3548
10.4496 3.3627 38.5601
22.5982 20.7733 -37.8295
-8.4915 -3.0083 46.1872
3.7953 19.9497 2.4144
3.1369 -9.1737 43.5274
-28.2479 9.7085 -34.6303
-14.8466 28.5631 -43.6241
-6.9494 -2.1231 52.9364
-11.4473 29.7480 -42.3973
29.9690 22.4879 -64.0666
-19.2221 15.7474 -15.1795
38.2029 -16.9855 -80.8831
0.4233 -1.3912 75.4536
4.0579 13.1686 27.7039
-27.0116 -29.5351 -73.9706
-8.9915 7.0932 36.7194
26.1313 -18.9696 -44.0099
15.6169 -21.7712 -22.7115
12.3415 34.9367 -62.4572
-2.4123 -0.5544 71.4984
20.9858 32.5181 -68.8467
1.6738 22.0057 -4.4110
15.6223 -4.2338 18.3822
-11.9855 27.2019 -34.0710
3.2639 -41.5356 -80.3210
-29.9638 -28.6942 -79.6375
-8.0784 2.8093 47.9524
-3.6081 5.8704 54.3925
-22.0807 29.9855 -63.1766
22.4144 -2.9883 -6.5162
23.3707 -12.9255 -22.3772
-2.4457 -19.8384 3.6497
-7.9658 -1.4768 49.7014
-23.9686 -0.7714 -11.8170
2.3154 32.0408 -43.3652
-19.1659 24.7016 -40.0359
-0.9001 -14.4945 24.8262
13.6417 13.1394 7.7103
-16.5784 -12.1041 1.5643
26.8185 9.7689 -29.4878
-11.6764 -1.6629 35.3954
-18.8703 -32.6579 -65.0342
-13.3036 -4.9082 26.1522
2.7008 -32.0798 -43.6321
-0.6249 -14.5292 24.7479
25.8421 17.6219 -40.0885
2.1562 12.3532 32.5065
1.1035 0.6556 76.1148
3.6551 4.2808 59.2804
-0.2269 0.2258 79.8472
9.6230 6.8015 35.4351
39.1571 -4.2956 -71.5208
-1.7788 3.4170 66.1633
-10.6762 -21.4620 -11.7776
40.3256 -7.2948 -77.6731
15.8102 2.0267 19.3361
15.9572 -23.2502 -28.1591
5.5352 -2.2283 57.9711
-0.6035 -0.8337 77.1001
-12.9056 -8.4019 21.4282
27.2528 12.4821 -35.0393
-26.9292 -8.1403 -27.9008
11.6778 -10.3072 20.7450
8.0194 -12.2254 24.4447
1.7482 -14.1337 25.9149
-31.2138 -22.0139 -66.8862
25.4949 7.1798 -21.5240
5.4291 -2.6731 57.6432
6.5482 -2.3586 54.1236
-23.5941 5.8751 -13.1091
-13.5484 6.8411 22.2881
-12.9583 -25.7417 -30.5613
-9.6614 28.6448 -36.0271
-22.1715 23.6279 -44.4383
-18.2724 -13.9110 -7.8814
-7.7055 2.9003 49.1909
3.2500 0.5572 68.3129
1.0288 -1.6963 73.4014
31.3559 -16.7989 -56.7233
-18.3523 9.8265 0.4386
-2.3034 13.1670 29.3026
19.1565 -7.2540 1.7309
-0.5770 -1.9895 73.0621
0.7171 3.6303 66.7516
37.3115 -18.4252 -80.1244
8.3260 -21.5062 -8.2555
14.4367 15.5378 -1.0799
18.2251 -27.9690 -48.2408
2.0429 -4.6343 61.4668
-41.2633 -5.3442 -80.1051
1.3931 -7.5226 51.4485
-11.7118 3.2765 33.9729
-11.8850 14.2842 9.0990
-2.8131 8.4780 46.4819
9.7930 26.3637 -27.8665
26.4486 3.7330 -22.3923
-9.1574 -26.1535 -26.2648
26.1784 -30.7168 -75.2657
12.8847 12.6311 11.1859
2.4023 -6.5698 53.9871
-4.5313 1.8948 62.0596
-5.7508 -0.2685 58.7840
-3.2115 14.5361 23.4152
-3.7507 15.1341 20.6828
23.9589 28.2653 -62.4606
0.6885 -17.0178 15.1051
-20.0963 -7.8442 -2.4880
24.2472 -13.2220 -25.9068
9.7851 18.9422 -1.5093
-28.5249 22.9066 -60.6415
4.7673 0.0376 62.6177
-15.7003 30.9471 -53.3508
3.6073 2.5136 64.0542
-14.9916 9.6993 11.9132
2.6739 -9.0865 44.3931
-25.8291 26.4776 -62.2123
-18.3381 -20.0423 -24.1552
-2.5593 7.0329 52.0933
2.4611 -21.2923 -1.9500
-4.1334 20.8204 -1.1468
-7.4090 -9.7707 33.5828
13.0761 19.7483 -10.6705
-12.1842 23.0230 -19.8260
11.3179 -17.3301 0.8996
-1.9196 1.0184 72.6688
1.2423 22.5954 -6.5814
-32.0975 -7.5470 -46.6519
2.4098 -33.3455 -48.4328
3.4304 0.4503 67.6838
-28.2991 25.8969 -67.5224
-1.3035 1.8908 72.1904
-26.5898 0.1803 -21.9262
22.4310 14.3075 -21.9849
-4.1220 2.6200 62.1657
-1.8170 6.5736 54.6656
-16.7817 -17.8169 -13.7342
-0.6999 6.5455 55.5850
34.4068 16.5608 -66.8444
19.6857 -5.4498 1.9549
-6.1132 -7.4407 43.7803
-1.3640 6.3377 55.9722
-18.8023 -36.8572 -79.2072
2.1113 0.7474 72.4107
-13.1309 -38.7024 -77.2435
0.7529 22.9267 -7.7805
15.3979 32.2487 -57.3577
4.3000 -27.4529 -26.5643
-26.2179 -17.0121 -39.9920
-11.9315 -8.3499 24.6690
-1.5632 1.8143 71.8095
5.5278 -1.8537 58.5000
2.5690 1.4027 69.7478
10.3941 27.6182 -33.2346
28.4581 0.7549 -29.2004
-7.1298 27.8435 -30.2609
-4.8743 -5.5321 52.5233
15.6734 -13.5140 0.9130
20.2509 1.0434 2.5295
7.4317 29.5907 -37.1096
-13.1157 -37.7937 -73.8947
-15.7464 32.0638 -57.3011
26.7393 17.0961 -41.8662
23.5484 -21.2922 -41.9041
16.6364 0.6657 16.5848
-11.7188 -2.1386 34.9380
-0.6917 -1.5507 74.5092
-4.7502 -8.3387 43.9085
5.3238 -1.3841 59.7768
41.3584 4.2770 -79.9929
8.1608 5.9260 42.0157
-23.6955 30.6349 -68.9539
4.1720 5.1758 55.3328
-33.1736 -6.8700 -50.1567
19.8918 22.9481 -36.5662
6.0859 -0.5380 57.4182
-17.5874 -11.9846 -1.3630
9.7494 7.3893 33.6945
-1.7468 21.1120 -0.9820
20.1997 14.6386 -15.5566
-20.3105 10.5330 -7.5488
22.7806 7.6042 -11.9535
-16.4240 7.3178 11.4293
24.1895 28.4219 -63.5015
0.3915 6.7034 55.0737
31.7750 9.4977 -47.3931
-1.2427 -0.3266 76.1095
-16.5276 24.0620 -32.0030
32.4897 7.6933 -48.2612
39.7834 8.5178 -76.5297
-26.1077 25.3364 -59.8542
-6.2203 -40.3953 -77.2520
-23.3413 0.7699 -9.3881
-22.0581 -8.4449 -10.4161
-5.3048 28.1365 -29.8364
28.4392 16.4032 -46.1014
-16.0838 2.8980 17.7738
10.1149 3.8252 39.1930
-3.1405 -20.9767 -1.0837
1.4285 -2.0919 71.2741
-8.6560 -3.4062 45.0502
-5.0258 32.8802 -47.7728
26.7693 -3.8022 -23.6600
-7.3381 18.2644 4.8322
4.5409 -4.7305 55.6840
-14.9036 6.5760 17.9790
0.1887 -1.1767 76.4704
-6.9288 12.8372 24.5733
19.6456 -23.9380 -38.8826
-17.7750 -1.9257 11.8224
16.3354 -17.8650 -12.6946
-14.4662 26.3232 -35.2759
-29.9321 9.0235 -40.0268
-36.1121 11.0719 -65.2417
3.0945 -9.8526 41.0793
-9.5941 -5.0022 39.1704
-7.0090 13.0790 23.6010
-3.7812 -5.7002 54.5873
-19.4458 -19.6462 -26.0023
21.7760 8.0625 -8.8715
26.2678 -12.7509 -32.0322
-4.7074 3.4069 58.5755
12.5657 -18.0632 -4.1580
-18.0329 -27.2121 -45.3814
-14.0035 -22.9175 -22.9599
1.4240 -24.9646 -15.7849
9.5071 6.0931 37.3409
-0.3859 3.2813 68.2878
-4.9273 -1.2880 61.3572
-13.0431 -20.4149 -12.7655
-20.6197 9.0415 -6.1372
-0.2585 3.2800 68.3408
0.0487 5.2140 60.8869
38.3371 9.0014 -71.4728
-23.1061 7.0478 -12.4991
-33.5532 16.0267 -62.9676
-31.9307 12.1432 -51.2580
-11.8053 24.5699 -24.5158
10.8367 20.9900 -10.4276
1.7251 0.3624 74.2583
-23.6230 12.2406 -21.9865
14.6640 21.6843 -20.3249
11.4094 10.7176 20.4434
-6.4249 21.5428 -6.0040
5.6415 -18.6125 5.7414
-6.0122 34.1299 -53.1707
31.1870 -4.0879 -40.7672
21.2580 12.8592 -15.1633
24.8212 -14.1152 -29.5332
-13.5748 -15.7544 0.5216
-16.7322 10.7057 4.1326
-3.0906 -0.7682 68.7499
23.1246 -19.6657 -36.5144
-3.3172 2.9082 63.9968
-12.2024 -0.8334 33.7042
3.7152 -31.4515 -41.6054
-18.5877 -32.5028 -63.9676
26.9221 -26.3237 -64.7831
-7.1123 21.1496 -5.3569
-30.1013 -5.0284 -37.1436
9.2081 -1.6736 44.8298
12.1058 -1.7227 33.7160
8.3520 -19.2005 -0.0294
7.1916 27.9825 -30.8422
7.5153 -8.0095 38.5373
-35.6680 2.7131 -57.4928
-19.4428 -9.3336 -2.4655
11.3587 -10.1899 21.9704
6.6317 23.5764 -13.7944
21.0786 -3.6198 -1.7684
-16.7289 -18.5227 -15.6055
6.0877 23.7661 -13.9571
-8.9332 -5.3379 40.7716
23.8308 22.7372 -46.5160
-4.7140 -8.5906 43.1253
-22.5424 8.8205 -12.6912
-11.4028 -2.9613 35.4463
0.3901 0.4820 78.6852
-10.6820 15.9506 6.7162
33.0795 4.8366 -48.4282
1.5225 22.5787 -6.5830
20.6684 -32.0710 -66.7248
0.1074 -1.9992 73.3310
-30.5215 -12.6066 -46.8449
0.2689 1.1785 76.4046
35.8592 19.5386 -77.1176
-3.9006 -20.7610 -0.7498
-34.7255 11.8685 -61.0826
-7.6147 -33.6957 -52.7442
13.7521 -11.8730 10.7016
13.5604 25.4150 -30.5111
23.3458 21.9308 -43.0034
4.4251 -4.6855 56.1197
8.2619 -6.1557 41.1727
-14.2599 20.6885 -16.2561
-14.1779 -17.5429 -81.0873
0.0000 0.0000 -81.0873
18.0426 -6.0420 -81.0873
17.1197 23.5593 -81.0873
39.6739 2.5137 -81.0873
-1.1525 4.0589 -81.0873
15.1495 6.9023 -81.0873
-1.1302 11.6091 -81.0873
14.7150 -21.5540 -81.0873
7.9689 -10.2596 -81.0873
5.5906 -8.2839 -81.0873
21.1087 -6.2014 -81.0873
-16.3087 22.6006 -81.0873
-21.0875 -18.3219 -81.0873
-15.1061 21.2909 -81.0873
-16.5224 -29.8579 -81.0873
-8.5668 -24.0825 -81.0873
2.9846 3.2882 -81.0873
-32.1220 -1.4492 -81.0873
28.4754 -10.5363 -81.0873
0.6772 -0.9283 -81.0873
6.2307 5.6319 -81.0873
-1.4161 0.0499 -81.0873
-22.7688 17.9545 -81.0873
-21.4479 -35.2596 -81.0873
-3.6062 22.1574 -81.0873
7.7970 12.3816 -81.0873
-27.0666 -26.4400 -81.0873
6.7898 18.7210 -81.0873
-9.8549 -0.1842 -81.0873
-15.1365 5.9627 -81.0873
4.5176 -13.0417 -81.0873
17.6508 -0.6138 -81.0873
18.0890 -19.2933 -81.0873
28.5325 -5.5199 -81.0873
5.4042 15.1511 -81.0873
15.7673 14.4748 -81.0873
-38.9359 -6.7018 -81.0873
0.6294 0.1034 -81.0873
15.9463 16.1570 -81.0873
3.6648 2.7001 -81.0873
-1.6271 -20.4978 -81.0873
-21.5923 18.2965 -81.0873
13.3554 11.1066 -81.0873
-35.2396 -9.4233 -81.0873
-18.7634 8.2987 -81.0873
4.6164 -8.0253 -81.0873
14.4401 4.3203 -81.0873
9.3998 11.4450 -81.0873
-19.6078 -8.4167 -81.0873
10.2680 -25.3267 -81.0873
32.2557 17.9265 -81.0873
-29.9622 10.3959 -81.0873
-13.2722 -9.2290 -81.0873
36.4337 4.7063 -81.0873
-7.9666 16.7269 -81.0873
1.5436 -30.7977 -81.0873
-8.9622 -8.4162 -81.0873
-3.0813 -0.0853 -81.0873
-2.6429 -1.5075 -81.0873
-8.6794 -0.9416 -81.0873
0.0737 -0.0402 -81.0873
8.6045 -1.8754 -81.0873
-19.0171 19.3377 -81.0873
-17.6135 -35.0083 -81.0873
11.1111 -1.8096 -81.0873
5.3230 2.7529 -81.0873
32.9151 21.4244 -81.0873
-11.5257 -36.0124 -81.0873
-2.8876 -4.1570 -81.0873
-18.2377 -29.4027 -81.0873
-26.1022 -7.1473 -81.0873
24.7107 21.9013 -81.0873
1.5313 -5.8002 -81.0873
-1.9605 -6.0564 -81.0873
15.1270 -32.8698 -81.0873
0.3389 -5.0652 -81.0873
-0.8408 3.0509 -81.0873
-34.9442 7.6429 -81.0873
-11.8870 -33.2678 -81.0873
-0.5747 -1.6877 -81.0873
-11.2632 -3.2043 -81.0873
-6.4896 14.2557 -81.0873
9.9939 -15.4453 -81.0873
23.0652 24.5085 -81.0873
26.2546 20.3669 -81.0873
-5.2377 -15.0889 -81.0873
4.6287 11.0487 -81.0873
25.5990 -14.3288 -81.0873
-7.2248 1.9109 -81.0873
-4.0842 4.1481 -81.0873
0.4576 25.4640 -81.0873
10.3251 16.9354 -81.0873
9.6821 -3.8408 -81.0873
34.3116 -18.6364 -81.0873
-3.9972 -3.2014 -81.0873
22.3154 11.7482 -81.0873
9.5754 1.1719 -81.0873
5.3580 1.2466 -81.0873
11.8722 -7.8122 -81.0873
-1.5919 -4.4063 -81.0873
32.2886 3.3187 -81.0873
4.9840 3.6911 -81.0873
10.7714 33.0564 -81.0873
36.0895 10.9272 -81.0873
0.9315 -1.6666 -81.0873
1.8434 17.3114 -81.0873
-4.7935 28.7468 -81.0873
-1.4628 -19.9189 -81.0873
31.3072 -22.7334 -81.0873
13.4645 13.1987 -81.0873
-9.1555 -0.5292 -81.0873
2.0483 -20.4652 -81.0873
-1.1099 18.8527 -81.0873
12.7072 7.3631 -81.0873
21.0243 -13.4968 -81.0873
15.1324 9.7820 -81.0873
0.5974 8.0828 -81.0873
-1.7199 -0.6374 -81.0873
18.3619 31.5537 -81.0873
13.5453 -13.8838 -81.0873
23.5076 14.5795 -81.0873
13.3699 30.3185 -81.0873
-15.9595 -9.1455 -81.0873
1.4730 -1.7313 -81.0873
-22.0349 -9.8085 -81.0873
8.5312 2.4868 -81.0873
7.8973 36.8616 -81.0873
-18.5978 22.3566 -81.0873
-12.5612 -28.4256 -81.0873
22.9935 -22.2774 -81.0873
-16.7471 20.1529 -81.0873
12.0629 4.1859 -81.0873
-20.6561 35.5749 -81.0873
24.0234 -0.2820 -81.0873
-9.5077 4.3687 -81.0873
13.6693 -17.5281 -81.0873
5.7768 -15.2718 -81.0873
11.4824 22.1458 -81.0873
-9.9909 2.0226 -81.0873
-1.5731 -10.7168 -81.0873
-1.3449 -27.8307 -81.0873
-24.3251 -28.6566 -81.0873
20.9388 -12.0951 -81.0873
-36.9401 1.3945 -81.0873
10.4157 -35.5640 -81.0873
-0.6969 -0.9752 -81.0873
-0.8939 -31.4712 -81.0873
0.8611 0.3434 -81.0873
38.5011 11.9259 -81.0873
3.9446 2.3000 -81.0873
2.3752 39.6988 -81.0873
-10.9374 7.2910 -81.0873
19.0988 -15.7275 -81.0873
-27.5912 -5.5422 -81.0873
7.2352 18.4498 -81.0873
-1.0449 -0.6112 -81.0873
-2.4065 22.9371 -81.0873
-30.0364 -11.5084 -81.0873
14.4331 -19.7832 -81.0873
-21.0233 -4.9945 -81.0873
2.9138 22.7162 -81.0873
23.2623 31.7452 -81.0873
-11.9341 16.4228 -81.0873
-29.6131 -5.0277 -81.0873
-1.1643 12.8275 -81.0873
-3.3711 12.9776 -81.0873
-7.7789 2.3702 -81.0873
10.5613 22.5467 -81.0873
29.9470 -15.0662 -81.0873
10.7562 3.8992 -81.0873
33.1511 -3.0256 -81.0873
-27.3321 -10.9366 -81.0873
-14.5121 21.2971 -81.0873
-5.1474 0.4277 -81.0873
-0.0003 -0.0068 -81.0873
25.8338 -14.3883 -81.0873
16.5816 -14.0830 -81.0873
20.1694 -1.0540 -81.0873
-15.4874 -2.0043 -81.0873
23.7139 20.2630 -81.0873
32.8226 -24.0642 -81.0873
18.4312 -0.9560 -81.0873
0.6877 -1.1520 -81.0873
1.1884 5.0165 -81.0873
26.8416 -0.5701 -81.0873
-18.3672 -26.2194 -81.0873
-37.6628 -9.8659 -81.0873
-21.1804 -29.7289 -81.0873
0.0502 -3.6596 -81.0873
-3.6768 0.9762 -81.0873
6.3853 38.6824 -81.0873
30.1926 -15.4663 -81.0873
34.0226 3.8957 -81.0873
-11.8802 -11.6652 -81.0873
-5.1938 40.1171 -81.0873
-1.8095 15.9179 -81.0873
-1.0907 0.9061 -81.0873
20.7407 -29.3697 -81.0873
-22.6452 6.4988 -81.0873
0.2095 1.2698 -81.0873
26.8475 -18.5865 -81.0873
-4.2374 2.9431 -81.0873
34.6551 12.0755 -81.0873
-12.2718 23.6898 -81.0873
10.5045 25.9786 -81.0873
-24.8462 -12.5990 -81.0873
-39.0901 0.8389 -81.0873
-38.9954 -14.5820 -81.0873
-4.3184 4.6023 -81.0873
-11.5279 -8.0561 -81.0873
-7.9079 31.3785 -81.0873
27.5275 9.8137 -81.0873
16.4488 -25.4975 -81.0873
15.3079 -20.6041 -81.0873
-10.0018 40.0683 -81.0873
12.5042 -5.4422 -81.0873
21.1596 7.8996 -81.0873
0.3189 6.5722 -81.0873
12.1542 9.9707 -81.0873
-13.6450 -3.0330 -81.0873
3.3340 -9.4053 -81.0873
7.0738 -4.1610 -81.0873
37.4975 -7.4038 -81.0873
-15.1238 -28.3298 -81.0873
0.7136 -21.4462 -81.0873
-12.3716 23.9660 -81.0873
-16.0817 22.7223 -81.0873
-6.5191 -3.1309 -81.0873
-0.7989 -0.1678 -81.0873
-24.0754 -19.6270 -81.0873
30.8312 20.7884 -81.0873
-24.2094 -14.6959 -81.0873
12.7374 -12.3065 -81.0873
8.8484 -14.3486 -81.0873
-5.9024 23.9634 -81.0873
11.2131 -12.0637 -81.0873
-0.5921 -17.7569 -81.0873
-6.3900 23.6832 -81.0873
-0.2740 -3.5088 -81.0873
0.4589 -0.2557 -81.0873
5.9801 -22.0096 -81.0873
15.9257 18.6717 -81.0873
-23.0731 -13.9006 -81.0873
-0.8983 -7.7203 -81.0873
5.9805 -3.6216 -81.0873
-1.4466 19.6008 -81.0873
-6.0942 -0.5426 -81.0873
1.8144 -4.7764 -81.0873
5.2210 0.5585 -81.0873
-1.5551 8.9676 -81.0873
2.0516 22.5427 -81.0873
22.0863 -26.1279 -81.0873
-28.8485 8.8677 -81.0873
19.8723 -26.4410 -81.0873
9.8342 -3.4562 -81.0873
