ply
format ascii 1.0
element vertex 1024
property float x
property float y
property float z
end_header
15.2970 -14.1108 45.5034
-1.1677 7.7800 68.0250
-23.6586 -56.2389 -24.4427
-76.5059 2.5299 -51.4720
47.7686 -25.2346 -12.2836
-4.6293 -68.2967 -37.3888
-87.4858 -28.1180 -78.1718
31.8519 -49.1157 -20.1399
29.3512 4.8297 29.9583
3.2734 -62.6526 -27.4447
-48.5147 46.1797 -34.8243
-10.2280 -17.6548 46.2129
33.6270 1.7324 23.1280
-38.8152 -4.8220 13.6594
0.2860 -54.1451 -12.4951
-49.4345 65.6021 -61.2066
17.6939 14.9992 41.3546
-14.2846 -26.9954 28.5735
-36.6032 -2.5149 17.8772
25.9435 -11.6609 32.2240
-39.7105 -32.9644 -8.0828
-72.3701 -9.0619 -45.1867
-46.0024 17.6831 -4.0359
39.4884 -76.5035 -68.0811
41.1610 15.1107 5.4238
-2.8559 3.8488 73.3743
16.1333 -45.8786 -2.9027
-34.3171 -1.7425 21.9279
-3.7594 -44.7360 3.6026
-11.7685 -7.3806 57.5435
-86.5481 4.1792 -69.0471
49.3673 16.3938 -8.7932
-36.7639 48.7947 -24.5846
-3.1457 40.6478 10.7787
20.3878 17.5298 34.9309
1.6012 -8.7341 66.2633
-37.3244 -39.1758 -12.4321
41.6722 -58.0764 -42.6553
40.2281 45.4192 -23.8516
-3.7296 4.3533 71.7391
4.6942 -53.4183 -11.5874
-1.9367 23.3150 41.0077
-28.8641 65.9540 -43.5482
-42.9694 30.8359 -10.3079
12.3109 5.7516 58.0709
12.9748 61.1944 -27.1259
15.2114 -40.1595 6.9953
-62.3251 -15.3364 -29.9610
53.0950 -25.7093 -20.9268
-23.6689 11.7568 35.7311
13.0741 54.7369 -16.2026
-0.6424 -0.6252 80.1534
4.6006 -6.2582 68.1988
-1.9088 67.6545 -36.0456
28.5117 35.8075 2.0742
-10.0278 8.9949 58.2752
-2.8106 3.3210 74.1433
71.9127 20.0550 -48.1822
-92.6765 5.8796 -79.8587
43.4736 -57.4483 -43.6351
43.5127 48.1919 -31.2573
-74.8360 -28.9575 -57.9017
-2.6925 -4.0425 73.2622
2.2250 49.5126 -4.5207
-59.3620 35.4012 -38.5426
3.9580 65.6371 -32.6962
28.4988 -67.3066 -45.4586
-53.7052 8.9596 -13.0198
-38.7410 -52.4546 -31.7457
60.5609 -22.3321 -30.5925
16.3793 -23.7131 31.5692
-23.8829 89.0242 -78.6569
36.2284 40.2713 -12.5354
55.9932 66.8011 -69.9440
24.9522 39.9019 -0.1689
55.2613 -18.2482 -19.5424
-84.1071 -37.3674 -78.4173
-32.5377 20.0437 15.2213
58.1655 0.7984 -19.4984
-75.4971 48.6506 -74.5554
2.8596 -8.6358 65.8853
60.7937 51.7832 -57.2324
-40.5518 38.8728 -16.0243
-14.7572 46.2002 -2.6717
36.6998 24.1064 5.3161
-21.6980 87.8951 -75.8063
-25.2270 31.5363 11.4475
-39.6004 -20.7549 3.9228
-65.8543 1.8560 -32.9121
-15.7493 -18.2064 39.8284
16.1918 -54.3523 -16.9615
20.2447 -19.1183 33.2652
-6.4491 -21.5934 42.5030
11.7591 21.6772 38.8050
70.5433 -35.9821 -56.0695
84.9140 35.5667 -78.4650
1.4220 -6.1644 70.7060
-70.0743 19.5183 -44.8502
71.3753 -32.2883 -54.5885
69.4824 -5.4749 -39.5539
63.9363 36.9889 -46.8044
17.2486 6.2082 49.8175
17.4490 -52.9778 -15.3338
-26.1212 35.5222 4.9968
-45.3940 68.4546 -61.1986
-28.0358 28.9339 11.6149
-0.1988 4.8621 73.2464
-81.9195 9.4023 -61.7541
14.7547 -43.1463 2.3748
-27.2038 -82.4259 -69.3083
57.4419 -36.1405 -36.3657
-13.1163 -22.3359 36.6457
10.4799 -1.5060 63.2918
66.7290 -38.7626 -52.5557
21.8698 -59.6496 -28.8268
42.9364 -33.9252 -13.4968
-63.0756 39.7860 -48.0401
-44.0626 -14.1702 1.1817
8.9778 -28.2405 30.1544
-19.2964 -3.0989 47.7092
26.5187 -17.7733 26.1689
31.6386 81.7484 -70.8016
-46.5609 21.4018 -7.4464
9.6169 31.4975 24.4132
3.6397 -4.3964 71.7825
29.5558 9.2887 27.8092
9.7016 5.0641 62.6721
6.2802 -67.6326 -36.4670
7.0986 1.6490 69.0333
-84.4906 -22.6913 -70.5011
11.8401 34.7340 17.8649
-0.6947 -8.2518 67.3050
-46.6561 15.1263 -3.6235
0.6254 -8.0271 67.7044
43.4774 22.7076 -3.6292
-47.5126 -76.3989 -74.8220
-66.8194 16.4681 -38.0247
46.2890 -10.6256 -0.9197
-36.1878 -47.0210 -21.5222
-46.8941 -23.6785 -9.6891
-6.4986 27.8895 31.8883
37.9989 23.3717 4.0943
77.6722 -51.8210 -80.7452
59.2777 58.9278 -63.7149
10.3911 10.3063 56.2491
-63.4368 -13.3065 -31.0625
13.6771 -6.1750 55.6033
3.3320 -3.8330 72.8765
8.4136 -74.6384 -48.9726
-48.0801 12.5433 -4.7413
-45.4254 -25.1199 -8.6021
4.1423 6.7342 67.9571
-20.7973 -43.0307 -1.4418
49.8004 -76.1993 -76.6694
4.0041 -12.2693 59.2576
4.2170 2.8572 72.8503
-59.1053 -49.4314 -52.3482
-22.9681 22.7183 25.5045
-22.6586 31.6687 13.9616
-52.4933 21.6809 -17.1035
-14.1359 -56.1495 -19.0297
3.1701 7.6078 67.3731
18.7243 12.8148 42.2355
-5.6834 0.0146 71.8245
-84.1817 -33.2957 -75.7948
14.3529 -6.6085 54.2206
-27.5559 -59.0559 -31.6733
-28.2123 -48.4242 -15.7963
-71.9280 -36.3018 -58.4696
83.6632 9.4131 -64.7707
-81.7250 43.3640 -79.2572
46.9279 12.7098 -2.8783
18.3078 39.0233 6.7158
-17.7146 14.3696 42.0261
23.7791 -87.8131 -76.5753
-32.3285 -7.6155 23.9251
34.3280 36.0329 -4.8768
-45.6572 24.8565 -8.7352
4.7900 63.2484 -28.6478
9.1013 -18.9077 45.2028
16.0890 5.0282 52.3846
-27.2139 -12.7770 29.4047
24.4054 7.2199 37.4311
-21.9758 -64.3482 -36.5951
-23.8471 -65.5998 -39.7315
8.1923 -4.2160 65.6825
-34.4123 -61.5656 -41.0025
-1.0029 -2.4440 77.1167
-25.0484 -35.9779 5.4382
-42.3164 73.4937 -65.8401
16.9266 -68.4444 -40.9607
-15.1155 -33.8629 17.1918
18.4642 -20.5313 33.6698
5.2703 50.5034 -6.6347
-71.7122 -16.8426 -46.4538
0.9198 0.6364 79.7669
7.0050 0.9659 69.4098
-56.3329 64.1464 -66.8232
-67.4496 -3.8318 -35.8315
-11.5850 48.1666 -4.4818
-32.9536 44.7592 -14.9933
-22.5947 -23.0224 25.5881
65.6698 -34.8790 -47.6617
1.7745 -29.1711 30.8646
31.8808 85.9955 -77.8614
-18.5086 -65.0458 -35.9525
-25.2432 -3.0105 37.4813
82.1977 -27.2580 -68.9611
-22.5501 -4.1900 41.8067
61.5915 14.5902 -28.4155
8.8995 5.9155 63.1202
-55.5085 -7.4099 -15.7227
36.3923 -53.4470 -30.7895
-0.5902 5.6595 71.8127
67.4447 3.1765 -35.7638
52.9148 47.8911 -42.4616
-66.3464 66.4519 -81.6678
-3.9340 -82.9546 -62.7816
-1.9513 73.0480 -45.4283
-15.9210 33.6765 16.9014
31.1732 -36.0896 -1.2607
-30.9091 -26.3425 11.0530
0.4730 1.5086 78.9623
-1.2927 65.8992 -32.9668
78.4889 48.6255 -78.9328
0.6567 5.3242 72.3794
-37.1018 7.4321 15.8774
48.7059 0.1028 -3.0304
20.4357 -29.7890 18.8596
-0.0111 4.4425 73.9836
-9.2731 56.4190 -17.7673
56.9631 37.5584 -37.0013
-32.2306 26.5855 9.0195
-35.0525 -23.3317 8.4502
6.7878 28.1054 31.4066
-30.9389 37.9325 -3.4547
-21.9464 -62.9061 -34.2067
-5.0628 -82.0741 -61.3588
-11.7499 0.3407 61.2608
-6.0124 -23.6078 39.3267
11.9992 17.1731 45.2625
-28.5688 6.4659 30.7490
43.3718 -12.1822 3.3304
-56.6379 -69.3504 -74.0764
-11.5036 19.0028 43.0638
-28.6302 24.4454 16.2119
-24.9600 -74.5022 -54.9944
3.2617 -28.5887 31.6490
9.5878 -11.1948 56.0681
3.9773 60.6460 -24.0314
50.3807 -35.1481 -25.1682
-12.0808 18.6155 43.1014
13.0349 74.0122 -49.0424
0.1194 -0.9807 79.9941
14.2804 -70.8766 -44.0832
-28.3814 10.3128 29.1735
-4.0202 -61.3921 -25.3316
55.0173 -62.0403 -62.5611
-60.2374 -4.4772 -23.3830
27.6308 32.2051 7.8826
13.2387 5.2099 56.9596
-60.9991 -54.1833 -60.2430
-12.7307 -6.4797 56.8589
-0.6672 0.5461 80.2129
-19.1635 2.3362 48.1237
-2.3379 24.7703 38.4237
-55.4216 26.2933 -25.0164
11.8151 -36.5084 14.9486
-19.1202 -4.8406 47.3963
18.6566 -26.9923 24.6228
-6.3475 2.1139 70.0728
-23.8686 0.9001 40.1546
-12.6947 66.5414 -36.1502
-49.7363 37.6895 -26.8627
-12.8195 70.4723 -42.9136
-13.8142 2.5244 57.2797
30.8292 56.4114 -30.1378
33.0519 40.9610 -9.8629
4.5670 -2.1913 72.8996
18.6429 32.3860 16.6955
-41.4433 -64.2669 -51.3381
-26.5026 61.5352 -34.8596
2.4493 -15.7864 53.9178
-57.3966 69.5004 -75.1160
-53.2680 39.2681 -33.4289
-30.6463 66.2446 -45.2820
7.2470 -17.7574 48.3431
4.3855 0.0158 74.0827
-11.3664 33.3018 20.4893
-55.9810 -47.1024 -45.5792
8.4404 -3.7233 65.6622
-7.0990 3.5123 67.9325
-8.5024 55.2587 -15.5628
10.2847 -0.3269 63.8097
11.7404 5.3257 59.2826
-58.9815 -69.9957 -77.5441
-32.8179 -43.0974 -12.5373
-86.2096 -15.8945 -70.8109
2.6452 -3.0702 74.6620
37.9724 -17.0553 9.2868
72.4311 -6.4705 -44.8114
65.8360 -8.3129 -33.7443
2.0771 17.9139 50.3358
38.5256 36.6238 -10.7723
16.3730 41.5323 4.0386
-12.6526 -40.3781 8.0910
9.5452 10.5360 56.9772
-68.4740 40.3540 -56.5746
-42.5173 82.2762 -79.4234
-4.6036 -9.6965 63.0373
-46.2946 59.6345 -49.6401
-8.9053 1.8869 65.8747
-24.3411 34.9259 7.6435
10.1741 -21.9464 39.6250
-0.5087 -0.5695 80.3844
12.4070 -74.3971 -49.5178
-25.1880 -46.2360 -9.8955
-28.5079 -2.9518 31.8471
-7.2864 -4.6684 66.6566
26.1788 -64.5710 -39.5160
11.7426 -26.4351 31.3852
29.0780 44.3511 -10.5598
-55.4099 -7.2975 -15.5269
-63.2350 21.2399 -34.3499
-74.8757 -2.0476 -48.6117
12.5513 8.1524 55.6729
52.6645 -49.9974 -44.6338
-0.3049 -0.1361 81.1321
64.5399 -41.3626 -51.6619
-4.1570 0.2588 74.4664
4.1242 93.2161 -80.6319
80.1821 17.0301 -60.9074
-17.6435 -2.0657 50.8055
37.9149 -29.6721 -2.0548
49.4698 -16.1100 -8.8083
2.6021 8.2549 66.6537
-41.7993 19.7976 1.2416
-6.2628 -62.3527 -27.3200
-40.7790 -9.9330 8.6873
-1.2533 -78.9648 -55.6948
-12.9616 -8.7954 54.4592
23.9812 4.5945 39.2294
-27.6090 52.7545 -21.8846
4.3049 -0.1188 74.2201
17.2794 3.4381 51.0593
12.2824 -15.4540 47.3668
43.4521 25.7254 -6.1455
-7.2664 23.0069 39.7344
51.6784 -73.8965 -75.1805
18.7885 64.8474 -35.7550
2.0506 -26.9158 34.7467
7.1721 -9.5563 60.9242
0.7573 -4.5927 73.6144
46.3128 35.3810 -19.6901
-26.5812 -34.2730 6.2489
11.7691 -25.3930 33.0172
-9.7723 6.8108 60.9882
0.8822 1.2250 79.0865
-53.2707 32.6191 -26.9681
-18.9874 -80.7284 -62.5787
1.8781 60.6058 -23.7855
-3.9388 26.7878 34.6039
-20.9637 -78.8471 -60.2389
0.0359 -0.0066 81.6496
-3.3440 -53.1194 -10.8922
-2.0568 -8.3147 66.8103
10.1113 -30.7754 25.3510
65.5274 16.4276 -35.8261
-2.2059 4.7426 72.6124
-5.5731 -8.0942 64.6145
0.1021 -0.4851 80.8505
-41.2017 48.7526 -29.3463
32.0178 -23.1687 12.9502
-1.9261 -0.6865 78.1554
1.4741 -37.3093 16.7481
45.2909 19.9639 -4.4043
-20.7153 5.4679 44.4362
26.6929 -3.5705 34.8566
23.4724 15.6037 32.6730
-28.9359 70.8990 -51.5221
-49.8975 -50.2032 -41.4406
41.0743 44.2215 -23.2972
-54.4708 35.0957 -31.0288
-52.0125 19.0027 -14.6339
5.1928 61.4826 -25.6413
-76.3435 -38.8448 -67.3225
23.5171 -13.6163 34.4321
-86.2959 -31.5027 -78.1248
1.2589 -48.0917 -1.9902
0.9267 -5.0264 72.8202
-22.4016 -3.4008 42.2899
2.3091 30.7757 28.0160
76.8751 2.7920 -52.1298
-40.7158 6.4392 9.9914
7.4630 21.6396 41.8863
20.3848 82.8831 -66.7925
12.9111 -20.3041 39.8486
0.5119 22.2988 42.9052
-1.4050 -11.1361 62.1838
-3.4979 1.1635 75.2993
-0.7631 -0.5970 80.0273
-31.0910 22.1670 15.2767
-50.8767 51.2581 -43.9435
48.3407 -47.4419 -36.1328
51.5522 49.0500 -42.0954
-5.4567 44.8940 3.0273
76.9114 -49.9785 -77.8765
45.1649 39.8079 -23.0358
-2.5262 7.0871 68.6224
48.4620 12.0629 -5.1787
-24.8266 13.2740 32.7308
58.3884 19.7363 -25.5234
63.8101 45.6732 -54.8191
-45.2524 29.3654 -12.1464
-7.4879 16.5124 50.1672
-46.8398 21.9116 -8.2596
9.7504 -0.2882 64.7410
-0.5104 -33.8564 22.7997
-11.8904 14.3235 49.3235
-48.1047 -19.5159 -8.6097
51.5908 23.1720 -16.6881
-46.3962 3.5948 0.7465
-12.0830 7.7343 56.7518
-17.1232 -0.4778 51.9089
1.5797 18.7410 48.9901
27.4761 7.9611 31.9412
66.5870 5.5215 -34.5391
5.4428 -15.4369 53.2338
39.2994 6.8467 12.3063
18.9949 -15.5537 38.9979
10.8839 2.8346 62.1445
22.4785 -18.2203 31.3683
34.4960 70.1092 -54.2361
0.1400 46.4552 0.8854
51.0961 -72.3377 -72.3789
74.7451 34.8943 -61.8093
-7.4364 13.2302 55.3067
13.6923 -30.2334 23.9669
-2.2712 10.6488 62.7686
-67.0691 -56.8447 -71.2552
2.7064 28.7911 31.3987
-15.1250 -38.4158 9.8796
72.2621 13.9406 -46.3338
36.7759 -19.1789 9.5484
5.4504 13.2905 56.7199
-71.4276 0.6074 -42.5681
5.2302 11.5833 59.6002
0.7045 -25.0351 38.1374
2.2075 8.5700 66.3155
-51.7681 -18.6514 -14.0257
56.2635 11.9575 -18.3660
3.2894 27.0499 34.3023
-9.5643 -52.3692 -10.9110
-60.6580 -2.1388 -23.8911
-1.2647 -6.4337 70.3048
-40.1565 -81.3991 -76.2094
-22.9626 7.1458 39.8708
9.4462 64.5284 -31.7563
-56.4828 -1.1748 -16.5824
4.8897 8.3142 64.9309
31.9954 15.2002 20.0815
-30.8246 63.8819 -41.6977
10.1513 -15.5174 49.4504
-44.9740 -32.6026 -14.9350
-50.2719 -3.7834 -6.0023
-92.3793 13.2315 -80.6578
-13.4604 -37.7470 11.9864
-22.0547 0.9631 43.3035
6.7977 -4.2781 67.7384
-18.5652 12.6619 42.6141
23.1589 82.9588 -68.1455
-55.3657 -25.5333 -24.3680
-51.2932 67.6744 -66.0329
-16.4443 3.9222 52.2991
32.1513 72.3618 -56.0571
-48.0362 -47.4926 -35.8173
-10.0075 -51.1579 -8.9835
13.9238 35.1631 15.9111
-8.8141 -0.2602 66.3708
40.2117 -46.1400 -24.7749
2.1831 -6.4284 69.9009
-57.8916 37.9586 -38.7336
-33.6266 -56.4414 -32.5967
-21.4614 20.8877 29.6065
6.3041 67.8197 -36.7949
-3.7003 -12.2502 59.4479
32.2923 -14.5327 20.1003
11.3665 2.0896 61.6052
69.5458 -14.6936 -41.9607
10.7900 -4.9053 61.0906
48.9203 22.2755 -11.8118
-1.7625 -17.9660 50.3040
42.5702 37.1694 -16.6148
-31.0035 10.4720 24.7762
50.2676 30.4901 -20.5787
-13.2596 -17.4132 43.6321
82.3989 27.7851 -69.5838
35.6706 -45.4159 -18.7650
29.2349 21.7069 18.3591
13.4673 -2.6944 57.8170
-75.4119 -3.8441 -49.6662
33.7587 14.5493 17.7537
31.4549 56.9883 -31.5417
-1.6925 -67.8570 -36.3878
-53.1386 59.5771 -57.1864
57.0211 -7.1419 -18.2730
-82.9790 6.2966 -63.0768
-2.4813 -17.4224 51.0940
-65.7304 12.8131 -34.8037
-37.1354 21.4593 7.0892
1.3593 1.0923 78.6790
5.3167 -27.4609 33.0466
-1.2309 -20.3616 46.2212
57.9309 -16.5459 -23.1113
-18.1788 -36.4811 10.7957
-56.9067 46.9463 -46.6429
-2.7238 9.4341 64.6282
7.2187 -42.0324 7.5103
-53.3031 -19.3590 -16.9559
-8.2652 20.4271 43.3728
-14.4892 -6.7671 53.8893
30.3501 -11.8413 25.0303
-8.4931 -46.7307 -0.9255
-86.4032 -14.1995 -70.6362
-17.5020 4.2062 50.3943
-80.1966 -2.5321 -57.8903
-7.0414 -56.1925 -16.8207
12.9341 -16.1601 45.6993
-1.3527 -0.9288 78.8581
24.6635 -47.6921 -11.7055
70.6270 -33.8528 -54.5576
4.8118 18.1594 49.0272
-32.1859 72.5623 -56.4004
6.5245 -43.5894 5.0272
-10.2276 -20.0748 42.5132
21.1418 -20.6670 30.2727
6.3268 -10.4701 60.4285
5.7885 1.4289 71.3393
10.2407 -27.7602 30.2315
20.3655 48.5560 -9.8994
35.6284 -34.8732 -5.0296
-22.9187 47.2344 -9.6333
-6.7688 -2.3940 69.2212
-22.5179 42.6344 -2.1772
-2.7935 10.9070 62.1234
-30.8771 23.4378 14.2659
-18.1936 -46.4909 -5.1496
-15.5137 -12.1110 47.4698
19.3726 -41.8903 1.4116
-0.9851 -0.0996 79.9903
13.0987 -16.1814 45.4909
-5.1892 8.8995 63.7888
-69.9566 25.1281 -47.6181
59.9205 -39.8706 -43.5127
24.2948 -18.5661 28.5126
-13.5199 -2.3177 57.8467
37.5872 52.4313 -30.5317
5.3760 30.4548 27.9057
23.4937 51.4154 -16.6412
-2.4280 2.1592 76.0597
10.0637 -5.2094 61.9965
0.7458 -29.5701 30.2477
2.8503 25.2787 37.4520
0.0269 -0.7169 80.4649
38.7753 -27.8888 -1.3897
-78.2550 -42.7748 -73.4555
40.8230 81.6336 -77.0907
45.5407 -31.0097 -14.1481
-0.6642 -33.6930 23.0794
23.9636 84.1774 -70.5660
11.8294 -9.1941 55.6456
26.6747 68.3680 -45.9736
-59.6518 31.7475 -35.8587
48.1050 12.2824 -4.6699
42.5112 -11.5526 5.0655
87.3726 26.5820 -77.1860
35.5477 -84.3087 -77.4814
17.5341 56.3694 -20.9991
-9.9181 -3.8044 63.2307
-15.5268 -45.6956 -2.2570
5.9773 -23.2279 39.9822
0.0233 0.6954 80.5024
-3.7568 7.5638 67.0189
7.3722 -21.7309 41.7871
-35.4645 4.9060 19.4209
-21.0343 9.5854 41.4947
3.8108 -2.9338 73.3454
51.0110 9.1359 -8.4530
-42.5447 6.5611 6.8147
22.4976 53.0346 -18.5209
-2.8222 -0.9544 76.5296
5.8450 -66.0951 -33.7344
-14.5852 4.2471 55.2823
-6.1165 -16.3481 51.3433
-10.0753 3.9474 62.8857
23.7944 -1.7391 40.2029
-33.9338 68.0879 -50.6504
91.6134 -10.1264 -78.6556
-45.2637 76.2354 -72.5466
27.4497 22.7550 19.6771
34.6734 41.5628 -12.4619
1.4002 -56.9592 -17.4201
-61.2475 35.2067 -41.2026
-0.2210 5.2478 72.5743
-33.9535 67.1619 -49.2257
4.4438 -9.7192 63.1190
10.9417 -44.5940 1.8227
-11.0788 42.3824 5.4943
-33.4228 19.6595 14.2468
0.3389 -2.4994 77.3246
5.6358 -8.6867 63.6968
-53.6003 -2.2858 -11.6308
-75.6915 8.9348 -50.8966
-15.2896 -6.4312 52.8532
-8.0844 -15.5359 51.2415
1.3336 -2.3968 76.9408
-4.1599 -26.2216 35.5196
41.0451 28.6934 -5.4211
-15.6324 47.5321 -5.3457
36.4115 69.8771 -55.3816
-1.0587 0.1580 79.8507
48.5496 18.7175 -8.8185
-2.2888 -28.1926 32.4995
-50.3680 35.6193 -25.6214
-5.8310 81.5104 -60.4691
-25.0301 -26.8375 17.8619
-66.5843 7.5379 -34.8768
55.4238 50.4022 -48.6304
-5.9962 -26.6471 34.1905
-33.7421 -25.9972 7.6011
2.9271 -57.7775 -18.9428
75.4895 29.8263 -59.5111
-28.9199 32.9880 5.3839
55.5403 -46.4348 -44.2454
-73.8567 -21.6273 -52.1861
-65.0876 34.8854 -46.7731
4.8062 0.1211 73.3481
-40.2313 -47.2526 -26.2638
34.8232 27.7318 4.2592
-8.2823 -54.0830 -13.4828
15.1729 -6.6297 52.9037
64.7831 5.3613 -31.3881
2.2253 -34.2400 22.0134
3.5425 -7.8896 66.6658
-8.4387 -58.5628 -21.2325
-31.3713 -59.2792 -34.9791
-0.3981 11.3074 62.0272
-70.1221 -13.6217 -42.5728
16.5330 6.9118 50.5348
20.1683 -71.6903 -47.8626
-67.6998 5.5095 -36.4670
-40.8697 7.5584 9.3982
42.2643 -62.4847 -49.5380
5.0017 -1.0218 72.8309
-24.2325 -28.5759 16.5239
77.7355 48.3184 -77.5372
-61.9683 12.1674 -28.1641
9.6337 52.6587 -11.4283
67.6666 -54.6158 -69.5845
-86.8341 -13.4001 -71.1577
4.3481 22.3910 42.0273
27.7151 -10.0985 30.3904
-6.0870 9.1494 62.5930
-20.3016 82.8287 -66.6660
-49.9641 64.3182 -59.9923
-41.5420 -49.6236 -30.8872
-12.8995 -28.2912 27.6141
-54.5773 24.1673 -22.1392
38.4784 -13.9755 10.4855
-11.8656 -22.5257 37.4157
40.8120 7.8492 9.4031
-25.0752 -60.2082 -31.7649
-3.8992 13.4747 57.3066
37.2064 12.3011 13.5315
-73.2541 40.9614 -64.3139
-41.4175 59.1031 -43.8563
-47.7207 -19.1715 -7.7658
-51.1025 22.3408 -15.3255
53.1134 22.9185 -18.9350
-11.4650 5.7126 59.4261
62.2137 6.1912 -27.0671
-57.4107 -37.5224 -37.6179
8.7594 9.0506 59.7986
21.3223 36.9984 7.4148
39.0443 -32.5920 -6.7773
-8.4451 16.2226 49.8918
5.5753 -2.6124 71.0006
6.3112 -5.9685 66.5996
-8.6919 0.0577 66.5898
17.8472 -3.0187 50.2197
-18.7944 68.9736 -42.6693
-22.7121 22.0909 26.5870
-0.1778 -0.0873 81.3684
13.5564 49.6944 -7.9096
-9.4511 -37.3552 14.6709
56.5356 17.5327 -21.2746
39.9929 -31.7926 -7.1785
5.3144 72.5699 -44.8891
44.9434 16.9933 -1.8867
11.3933 55.1201 -16.2175
-18.6195 18.8530 35.6100
-12.0107 16.5312 46.1605
-3.0434 -47.0141 -0.2578
65.6164 -0.5613 -32.4568
-78.0099 -1.0653 -54.0289
-33.5960 70.7873 -54.6169
85.6259 35.4131 -79.5059
3.0051 -29.2002 30.6394
-3.8822 84.2495 -65.0279
-0.6135 0.2511 80.5598
-9.6531 -70.5134 -42.1173
29.7235 12.2493 25.7778
-58.0153 -8.7086 -20.3585
-48.5424 -18.4478 -8.6392
37.4254 50.6598 -27.8738
5.6869 -82.1655 -61.5884
-44.9391 12.1886 0.6987
-18.1364 5.7731 48.5974
-29.9676 53.7940 -25.4264
6.4825 -28.8832 30.2091
-5.4391 2.3204 71.4244
0.1438 14.6372 56.2445
55.9732 42.7328 -40.8119
-90.0293 25.9425 -81.3022
-0.1392 -6.8284 69.8298
71.1004 -40.7615 -60.8817
5.9711 14.2974 54.7547
-2.3466 -23.4310 40.7417
54.6519 -62.9079 -63.2762
-18.2559 -11.6609 44.0229
4.0901 13.9182 56.4729
-66.9673 -31.8327 -47.2970
-14.2685 28.7816 25.8201
23.1989 -30.5249 15.0053
80.0325 -31.0013 -67.6172
-62.7391 57.8769 -66.8005
-77.1148 9.0518 -53.3799
14.5750 -81.8227 -62.8909
-21.9817 -45.8855 -6.8112
9.0644 -83.9113 -65.1332
9.6852 -2.8925 64.1264
6.7945 71.6338 -43.4817
51.6025 -18.0806 -13.4216
-0.6791 2.6318 76.9839
-39.8135 -7.2492 11.3028
-28.6689 13.6553 26.4628
-61.5695 3.6859 -25.6034
-3.0219 6.4292 69.3530
25.4051 -17.3685 28.1682
71.2200 -37.0970 -58.0049
-2.8091 -82.8184 -62.4652
14.1642 7.5950 53.7495
2.5810 -15.4289 54.4954
79.7904 1.0185 -57.1254
30.5191 14.4862 22.9348
-1.0322 -0.5490 79.6790
56.8263 -73.7322 -80.2531
-22.4543 -11.9950 37.4199
-53.1597 -4.8173 -11.1583
-1.9174 -9.0045 65.6948
12.5176 11.1636 52.5307
-19.4862 11.3943 42.4383
4.2956 53.9657 -12.4786
-26.6528 -79.4415 -64.0787
2.0913 1.9387 76.7514
-74.1423 20.9752 -52.3499
12.3298 18.2472 43.3964
44.5236 52.0683 -37.4852
-70.0844 -13.7262 -81.7131
13.3286 3.5579 -81.7131
-32.4933 16.0012 -81.7131
-6.7144 -36.1288 -81.7131
-23.7723 43.3769 -81.7131
-3.2493 -25.2785 -81.7131
-23.7405 -88.3404 -81.7131
6.5328 -4.9979 -81.7131
45.0328 47.9159 -81.7131
-77.5902 -6.9154 -81.7131
67.7917 9.1305 -81.7131
9.0517 -21.5726 -81.7131
89.8829 -9.1510 -81.7131
-2.3863 -4.7292 -81.7131
35.8350 -25.3871 -81.7131
-89.7840 12.2755 -81.7131
28.7311 18.6199 -81.7131
7.3874 -72.3240 -81.7131
-43.1495 -0.0974 -81.7131
42.3828 46.0965 -81.7131
16.2276 71.8025 -81.7131
-66.6273 22.1775 -81.7131
20.2381 -39.4952 -81.7131
-30.6962 21.4736 -81.7131
-70.6456 33.3987 -81.7131
6.5215 5.3290 -81.7131
2.2585 22.2687 -81.7131
20.2376 34.0449 -81.7131
-74.3846 4.1164 -81.7131
-9.5056 -23.0370 -81.7131
15.4731 55.6270 -81.7131
-25.5915 -35.4501 -81.7131
-26.4618 -39.9639 -81.7131
-17.8127 12.5230 -81.7131
-54.2310 -37.6122 -81.7131
13.4468 16.0664 -81.7131
10.7448 6.4272 -81.7131
25.0947 38.2944 -81.7131
37.7412 20.5649 -81.7131
0.7714 18.4917 -81.7131
-4.5474 -25.6449 -81.7131
-1.8120 2.1654 -81.7131
-5.7498 -4.3434 -81.7131
-73.4963 -32.0446 -81.7131
74.1269 -13.6530 -81.7131
-8.3799 4.0864 -81.7131
-11.7112 -30.3637 -81.7131
-1.1097 0.1286 -81.7131
71.6044 -55.7962 -81.7131
-0.7571 -0.1603 -81.7131
-5.3204 3.5514 -81.7131
-25.7712 12.5170 -81.7131
24.9793 -75.0411 -81.7131
-33.6232 31.0452 -81.7131
-22.9039 -3.7622 -81.7131
5.7957 12.5043 -81.7131
-65.0419 6.7717 -81.7131
32.2760 2.8209 -81.7131
-69.8482 -38.1645 -81.7131
7.3634 -9.9644 -81.7131
-4.7654 6.3308 -81.7131
-79.8521 -16.1667 -81.7131
14.1557 -1.8478 -81.7131
66.0995 37.3749 -81.7131
-8.2043 2.7444 -81.7131
-47.3724 -7.0573 -81.7131
-24.1691 -24.6897 -81.7131
-32.1215 -1.9638 -81.7131
77.7849 22.7018 -81.7131
10.5625 -55.2683 -81.7131
82.7195 15.2862 -81.7131
-52.6863 -27.2211 -81.7131
-10.9797 -60.5816 -81.7131
60.4473 69.9310 -81.7131
64.6763 38.5261 -81.7131
5.3958 39.9521 -81.7131
-54.6166 37.6475 -81.7131
-26.0732 -80.7279 -81.7131
-39.7306 -43.3003 -81.7131
12.4838 85.5339 -81.7131
-79.1875 -34.8102 -81.7131
-50.6643 29.0708 -81.7131
-21.5978 33.0413 -81.7131
-35.9322 30.4661 -81.7131
-86.5480 -7.6128 -81.7131
-16.0668 6.0208 -81.7131
7.2860 8.9889 -81.7131
3.0862 22.0260 -81.7131
32.6612 -38.2972 -81.7131
-5.7643 -50.0140 -81.7131
15.6458 6.9702 -81.7131
-2.8173 4.8955 -81.7131
66.7481 54.2142 -81.7131
58.1101 -71.9405 -81.7131
-29.5679 37.0366 -81.7131
-47.3546 39.6602 -81.7131
-36.0653 -55.0761 -81.7131
-24.7739 -41.3664 -81.7131
69.9547 -2.7959 -81.7131
17.8822 23.5966 -81.7131
-7.1024 63.1077 -81.7131
-66.8532 25.9246 -81.7131
-47.9134 25.7605 -81.7131
-30.8056 11.4718 -81.7131
1.4318 -8.2844 -81.7131
9.8873 85.4966 -81.7131
-1.0465 -2.8423 -81.7131
-43.7652 73.5904 -81.7131
-52.7901 -13.6043 -81.7131
72.9871 -34.9511 -81.7131
-72.6336 -3.6643 -81.7131
-16.4854 27.0395 -81.7131
-24.0318 10.0030 -81.7131
-44.3213 -72.0666 -81.7131
22.7322 -41.1571 -81.7131
24.8598 47.6245 -81.7131
-50.9439 76.7920 -81.7131
53.2629 -30.8402 -81.7131
-5.8378 -62.3025 -81.7131
1.8623 -1.3092 -81.7131
36.7593 37.9074 -81.7131
-4.5107 -81.3698 -81.7131
7.7775 -52.6698 -81.7131
-20.3396 4.6352 -81.7131
4.4402 45.5564 -81.7131
-10.9141 -15.7103 -81.7131
-34.1110 -16.2466 -81.7131
-6.4403 34.9675 -81.7131
63.1110 -1.8264 -81.7131
-29.0243 26.8489 -81.7131
-27.7748 -53.0192 -81.7131
21.9820 60.3499 -81.7131
-20.4139 -28.8763 -81.7131
-19.8710 37.1395 -81.7131
-3.5977 -84.2624 -81.7131
66.9051 60.4079 -81.7131
-17.1332 -40.7231 -81.7131
-19.0333 5.6195 -81.7131
32.8327 57.8952 -81.7131
6.6277 -10.1098 -81.7131
-21.5208 21.7675 -81.7131
-86.1926 9.7003 -81.7131
40.0798 -62.5635 -81.7131
-61.2653 19.2419 -81.7131
-9.0554 -88.6254 -81.7131
-3.1102 71.6524 -81.7131
61.7070 -28.9824 -81.7131
-20.1950 -6.0509 -81.7131
84.5845 2.4764 -81.7131
-2.5593 82.5438 -81.7131
1.0775 8.1642 -81.7131
-22.1820 -46.1851 -81.7131
21.3587 10.1785 -81.7131
10.9784 -8.3928 -81.7131
45.3002 29.6894 -81.7131
-28.3519 -58.5724 -81.7131
19.9430 -1.8960 -81.7131
55.3515 -19.2110 -81.7131
8.8923 -11.9467 -81.7131
-31.2907 26.5664 -81.7131
-2.5916 -3.4738 -81.7131
48.2842 -58.8386 -81.7131
-39.4624 0.6992 -81.7131
10.7645 -29.9584 -81.7131
62.3496 55.4964 -81.7131
5.2487 -35.8068 -81.7131
-17.5783 -29.8984 -81.7131
2.5835 -46.1331 -81.7131
-6.9464 -15.8025 -81.7131
34.8549 87.0208 -81.7131
-29.2998 51.6321 -81.7131
-13.5888 -47.3556 -81.7131
-8.6848 -73.5000 -81.7131
-32.8387 10.9767 -81.7131
-6.2968 -21.9308 -81.7131
22.5108 53.2667 -81.7131
-12.9736 -31.5875 -81.7131
33.3491 10.8543 -81.7131
-14.2958 10.5261 -81.7131
-4.4952 -3.3123 -81.7131
-13.2917 25.0089 -81.7131
-2.5771 -2.1345 -81.7131
-46.0674 -23.6750 -81.7131
-12.6337 -54.6750 -81.7131
-26.5514 33.4277 -81.7131
15.5184 9.5584 -81.7131
-11.2144 -60.3761 -81.7131
-79.2960 -17.6446 -81.7131
28.7811 3.2497 -81.7131
21.3513 77.5223 -81.7131
-9.3828 0.7495 -81.7131
-91.9833 -15.4549 -81.7131
58.7883 -29.9986 -81.7131
-34.3473 81.6591 -81.7131
15.6435 59.5013 -81.7131
46.3488 -15.9198 -81.7131
-9.0505 -19.6861 -81.7131
89.7986 8.8980 -81.7131
43.3896 45.5997 -81.7131
2.7969 37.9487 -81.7131
-20.5700 -72.6968 -81.7131
-34.0154 -1.5065 -81.7131
-7.9974 33.6025 -81.7131
-17.2500 -0.1469 -81.7131
40.4648 -52.3975 -81.7131
55.0784 10.1760 -81.7131
50.2353 -75.4682 -81.7131
6.0477 3.1460 -81.7131
-6.6552 -9.1775 -81.7131
-48.1108 -61.8514 -81.7131
44.9607 -64.2657 -81.7131
-50.8199 26.0469 -81.7131
-25.4866 -25.6636 -81.7131
-13.9945 -11.3043 -81.7131
-65.8728 43.9229 -81.7131
20.2044 -40.9495 -81.7131
24.1119 63.7019 -81.7131
88.0256 31.2621 -81.7131
-9.0094 0.8532 -81.7131
-30.2761 -21.1702 -81.7131
-6.4313 -66.2897 -81.7131
38.6679 -10.8143 -81.7131
5.5635 13.9644 -81.7131
-3.0672 28.3214 -81.7131
-15.9581 36.2294 -81.7131
-1.5522 37.0930 -81.7131
40.2937 -24.5816 -81.7131
-12.2146 26.5140 -81.7131
-11.3715 4.0456 -81.7131
-19.0347 -17.0797 -81.7131
-53.8415 12.7722 -81.7131
11.1520 -10.6146 -81.7131
-9.9424 3.1721 -81.7131
16.8161 -16.9145 -81.7131
52.7435 -23.5062 -81.7131
-0.6586 -2.3957 -81.7131
15.9351 -0.6813 -81.7131
-3.7067 77.6860 -81.7131
-15.6395 43.2546 -81.7131
1.0810 -1.3968 -81.7131
-46.6044 55.4209 -81.7131
-27.0209 46.7500 -81.7131
4.5509 62.8546 -81.7131
-45.5557 -56.7198 -81.7131
-20.7722 -3.7590 -81.7131
5.7010 45.7915 -81.7131
25.3588 35.7875 -81.7131
18.3407 -77.8920 -81.7131
22.1679 38.9545 -81.7131
58.9898 53.0527 -81.7131
24.4838 -59.0808 -81.7131
59.1093 -52.1769 -81.7131
5.3500 1.1596 -81.7131
-46.6957 -18.5891 -81.7131
17.2837 -23.0058 -81.7131
-60.5514 -31.7430 -81.7131
