ply
format ascii 1.0
element vertex 1024
property float x
property float y
property float z
end_header
14.4588 -3.5650 45.5454
-12.8882 -8.0735 44.9757
27.7945 16.9229 13.7488
16.1085 25.6961 17.7361
-67.7488 -20.9576 -55.3880
-53.5091 -44.2060 -52.6696
-44.0117 65.8437 -70.3095
6.9678 -39.4416 0.2165
54.9956 -56.8992 -70.1913
-16.4716 -21.7721 23.1894
-6.6940 0.1354 60.3122
3.9715 -4.3459 61.7681
-6.0501 -10.5293 50.4965
4.5506 -45.3130 -9.6719
-27.6550 67.3578 -58.8069
3.0202 -28.3165 21.0702
20.0971 -4.3020 35.3474
16.7852 43.0009 -10.7886
-1.8565 -5.6508 61.6588
54.0421 -36.6340 -45.2491
35.8998 19.4520 -1.1865
-11.8142 65.3341 -47.2401
10.8515 70.4007 -55.9571
-62.3284 -16.0007 -43.5572
65.4452 29.5834 -57.0180
12.3905 3.5732 49.1422
-0.7972 -1.0129 70.0524
-35.4248 70.7619 -70.1927
27.9705 21.5091 8.8063
2.3942 21.0417 34.2213
-31.6208 68.5999 -63.7124
-27.3091 53.4150 -35.7054
-8.8940 28.7035 18.2369
39.9972 49.6671 -42.5131
-53.1817 40.4435 -47.9954
-28.6528 -44.6004 -23.1302
-29.0670 3.1240 19.7059
-6.7734 8.9871 52.0999
-5.7834 43.6193 -6.8975
-7.3356 -5.6055 55.7420
8.9432 -18.1203 35.9696
1.5714 3.5374 65.4010
47.7954 -2.8414 -13.8856
-68.6865 -26.4096 -60.2028
15.8265 45.6291 -14.6352
11.1064 39.2347 -1.0881
-50.7048 -4.4381 -19.3244
-16.4754 4.7463 41.4854
-45.1915 50.8233 -50.1510
-42.9648 -1.3904 -5.0713
2.2051 -25.1399 26.9086
-28.9674 51.0953 -33.4429
1.3103 0.3230 69.9433
-7.1575 5.1294 56.5102
-1.6460 9.1849 55.5634
-9.4033 -16.2784 38.5062
6.7471 -9.5529 51.3043
0.2037 -0.2749 71.7582
-37.6714 -55.0565 -47.8117
29.9654 -0.4824 18.3821
-38.5000 42.9793 -31.5804
10.4353 9.2606 47.2389
-9.1211 -5.4871 53.1978
6.9069 22.0772 30.6992
44.2181 36.2761 -30.6667
-55.6734 5.1345 -28.3521
28.5063 0.3585 21.0136
14.6861 -41.1780 -6.3886
5.7386 4.4099 59.3359
20.0212 2.1569 36.0958
-9.6174 -0.1124 55.0467
8.5875 -2.2277 56.3913
-36.7942 -26.5539 -9.3736
31.9534 17.5094 6.7312
-35.5230 23.6478 -4.5075
23.7435 -34.8841 -3.6489
26.5051 0.6953 24.6067
36.8891 34.5248 -18.6510
24.4315 -23.9574 10.7278
-53.2797 -31.9658 -39.5646
-35.3545 -5.3676 7.9501
62.6508 7.6608 -41.3377
27.2882 3.0998 22.8960
-0.9602 4.7296 63.6800
31.0301 -28.8580 -3.9684
-16.2045 77.2313 -69.7949
-5.3627 7.0792 56.3745
-49.7452 52.4200 -57.8206
0.0925 -1.4171 69.8161
65.4604 -34.2794 -60.7504
-19.4631 9.4515 33.3941
-3.9051 1.0395 65.0943
38.1527 48.9926 -39.4973
-0.3287 -63.8489 -42.6570
-0.4807 27.0442 23.6442
-1.3323 0.3478 69.8938
-0.0060 54.0903 -25.0743
22.5626 -61.2668 -45.2505
0.7824 34.6397 9.9519
29.7683 -14.0157 13.0971
36.0041 -20.2419 -2.0387
38.4370 55.0270 -48.5524
26.3011 37.6470 -10.3625
-69.7355 8.2695 -54.1410
50.4598 -47.1591 -52.0553
4.6840 -20.1823 35.0478
11.7056 11.4315 42.8977
-72.4999 -26.7501 -66.8484
-42.9151 0.3332 -4.9436
-23.4173 -46.4678 -21.3712
39.5311 48.8267 -40.8076
66.2835 38.9603 -66.1425
-37.9707 68.9791 -69.4821
-22.7784 -1.6119 31.2345
-4.3973 26.9363 23.2038
60.8046 -30.2916 -50.0119
-28.5775 -4.4169 20.2782
-27.3252 67.8901 -59.4716
1.4458 0.2467 69.7322
-41.7805 12.9428 -6.4260
10.2375 13.8561 41.3370
-49.3004 -48.1746 -51.8092
-18.4959 -14.5174 30.0139
-29.6535 7.9805 17.0500
-18.8390 -2.5193 38.1321
-30.7630 66.8497 -60.2020
2.0968 6.8678 59.4378
-3.6577 32.4834 13.4827
-1.7003 -1.8914 67.7925
-41.6021 -8.1799 -4.0107
-31.5613 -11.7513 11.7004
-2.6991 -3.5770 64.3014
-30.7318 69.5927 -64.6842
-36.3850 -13.4482 2.4893
-3.0673 -1.6811 66.0730
-21.7427 -69.5561 -58.9172
18.0258 -19.1609 24.9796
-21.9753 17.0634 22.2502
0.5260 13.5629 47.9213
-14.2937 16.9326 32.4528
-11.6861 62.7797 -42.6720
4.0997 4.2104 61.7872
5.3570 -31.9590 13.9941
8.7517 -7.3249 51.8138
-12.0718 35.7246 4.4379
-76.8634 -20.8034 -71.0848
-9.8562 -20.5928 31.2441
-3.1812 10.2725 53.0005
57.4653 -11.0553 -33.0533
-23.6947 -54.3371 -34.4217
-12.9880 -21.3957 27.2819
51.1831 -3.2948 -20.0277
68.7803 -25.5033 -59.7840
23.6417 8.0587 27.3752
-50.1839 -54.7654 -61.4501
-16.9535 71.1218 -59.3483
-9.4099 -44.4119 -9.4141
-21.1354 -24.9658 13.4429
68.0265 -19.4585 -55.0970
13.1327 33.2851 7.9094
-9.3558 39.5228 -0.7973
1.4017 -2.1177 67.7993
-0.2116 -1.5112 69.6255
-12.3019 21.7746 27.3177
-21.4793 4.0907 32.9819
19.5284 -6.6221 35.2245
52.1949 16.7685 -26.3932
-8.7530 21.8839 29.9118
11.9518 -5.2928 48.8253
-47.6795 59.5808 -65.1053
-56.8711 8.6273 -31.2565
-41.1182 -8.4388 -3.2479
26.6607 40.6048 -15.1383
-4.2310 -70.2000 -54.3270
20.8105 17.4709 23.4219
-18.5663 -21.6002 21.0598
2.0925 -6.6093 59.8848
-47.3540 41.2420 -40.7581
-46.3483 31.3604 -28.4448
-41.7892 16.0418 -8.2693
0.3633 28.6656 20.7265
-39.3604 -28.6235 -15.3050
31.0696 26.0951 -0.7240
-9.7325 -2.2991 54.3580
26.5986 10.4439 20.8929
-40.3016 -18.2455 -7.3268
4.7303 4.3855 60.7535
-60.7117 39.5772 -58.1918
-53.1196 -35.6814 -42.9116
-49.6812 58.6416 -66.0914
-44.2516 12.8685 -10.6516
2.4432 1.7528 66.9573
-35.5310 34.7289 -17.1368
3.3194 -11.2645 51.2177
37.8482 -11.5417 1.0874
18.6439 -23.3681 18.5173
45.8832 15.4357 -14.8408
10.0857 -9.8968 46.9172
46.4886 -33.5320 -30.8931
9.4925 -10.2360 47.2241
23.3750 6.2319 28.7912
1.9471 3.0720 65.8221
-24.3376 -55.7067 -37.1465
-25.4947 -4.0840 25.8578
-26.4278 25.2566 6.5158
48.3277 13.3589 -17.9577
36.5169 57.6069 -50.5050
-17.6546 20.2755 23.9393
-49.9613 44.1910 -47.7932
1.1016 0.2502 70.3395
2.8850 -78.0741 -68.3796
-24.6755 -26.0746 7.6983
2.0552 -71.0343 -55.6543
-14.5043 -15.8520 33.6649
-68.3862 16.5224 -54.3748
72.1836 20.1193 -62.6282
12.2500 2.8420 49.7188
7.2862 25.2645 25.0031
-22.3747 3.4678 31.5832
39.7948 5.8305 -0.0850
-8.4389 2.2973 56.6178
-4.0201 6.1597 59.1230
-1.7372 3.0289 66.0838
31.9701 -64.5835 -57.4546
19.1002 -58.1227 -37.8482
25.3681 43.0200 -17.6019
40.7596 -57.8184 -55.0725
-30.6029 -41.9877 -21.2306
-44.2445 33.6197 -27.7375
37.3917 57.1069 -50.6013
-64.3568 1.1969 -43.5906
41.2491 0.3844 -1.9430
2.8001 1.5449 66.6130
-10.0877 -46.3178 -13.0275
22.8870 -12.2139 25.6372
1.0787 41.0231 -1.5580
4.1525 28.1887 21.0417
13.7829 -11.5158 40.0168
18.3287 -54.0458 -30.4411
-6.5654 10.9471 49.3773
28.6230 -18.9558 10.5245
-42.1505 15.2330 -8.3706
55.9472 -14.6722 -31.8282
5.6733 6.9632 56.1930
37.4879 -37.8813 -23.6412
-41.7811 -25.4923 -15.8029
-5.2048 31.8951 14.1523
-0.1875 2.6320 67.6208
-58.8506 19.9961 -39.6037
-55.8837 -11.1367 -30.2851
0.7675 0.6884 70.5171
-5.6442 -23.6220 28.6193
58.2965 46.3235 -61.7731
-63.3243 -40.6672 -63.2103
-43.9935 4.2185 -7.2476
-38.4729 -17.3176 -3.6363
-32.8838 12.8185 8.7892
11.4412 54.1233 -27.2887
-18.9452 -29.0592 9.8781
-66.1436 34.9803 -62.4278
-42.6889 62.0286 -63.2833
25.6437 50.2683 -29.2920
-23.3273 -61.5242 -46.1671
-17.4793 9.8243 36.2507
2.7108 -1.1403 67.0764
-10.4601 -13.2023 42.0288
-3.8407 14.5085 45.3358
-36.6021 3.2904 6.1664
15.9937 1.6093 43.4148
58.5439 -8.4627 -34.1942
-28.2312 -32.1668 -4.7310
-14.2151 25.4443 19.8654
-48.4288 18.2250 -20.8483
-35.2101 -19.8289 -0.4273
-17.6361 54.5974 -30.9924
-37.0301 15.9137 -0.2383
36.9810 -42.1571 -28.6566
9.9910 -14.3413 40.8856
-29.9878 -1.6228 18.2695
-6.2025 75.7760 -64.5999
32.8102 -26.7548 -3.8977
-2.9071 15.5108 43.9437
-9.0264 -43.3524 -7.4040
-58.0945 34.2349 -49.1097
35.1071 30.9130 -11.8994
-75.7418 12.8462 -66.0304
-0.2298 0.0495 71.9510
-7.1058 5.3360 56.3652
17.8594 -6.2593 38.2803
3.6087 9.8348 53.5012
-11.4440 42.5629 -7.0300
-0.1849 -5.5421 62.3844
11.5109 13.5033 40.4076
7.9795 64.0681 -43.9422
54.7774 9.2631 -27.7134
-42.6830 52.3264 -49.2818
-23.1328 -2.3119 30.4909
-30.3176 -56.1544 -42.5960
43.9013 -16.2815 -11.9819
20.8208 -2.2747 34.6406
-0.7306 -24.1705 28.8092
-26.2081 -52.8576 -33.9165
-67.7832 -2.1769 -49.8064
-34.2924 -36.0487 -17.2625
36.6278 -15.5987 0.6513
-8.6914 -48.9494 -17.1920
2.7539 -2.2653 65.9503
-22.1971 -32.5633 1.3752
18.2582 53.8656 -30.0929
-34.2877 -1.0114 10.5750
-6.7787 43.4738 -6.8941
54.4800 -33.6870 -43.0244
17.0323 -60.9375 -41.6181
6.6844 -33.5817 10.6869
-4.0139 7.1905 57.5384
55.3224 -45.5591 -56.7411
-71.2853 13.0863 -58.1990
-6.0753 -44.1897 -7.9864
-76.9140 14.3074 -68.5706
27.7495 -2.6623 22.1516
-22.7740 -29.3846 5.3971
33.6266 -3.8376 11.3997
33.9059 23.9239 -2.3855
56.1518 -5.1708 -29.2164
-40.0808 9.4686 -1.8225
20.4990 42.1919 -12.1349
1.3600 -3.7695 65.1549
21.3493 58.6932 -40.1450
-35.7202 43.1687 -28.5706
29.1027 14.8481 13.5136
28.4566 -30.4908 -2.7645
-8.8476 -43.0061 -6.7277
7.7765 -46.7285 -12.9692
-1.9976 69.7656 -53.3665
5.6257 56.1130 -29.2252
-4.8653 -1.5816 63.1578
-14.4613 -20.6042 27.0236
43.1003 -4.9599 -5.7873
-10.4478 -19.2387 32.9330
-3.7632 -0.4242 65.5519
-33.0628 44.5118 -27.5199
-3.6785 -1.0603 65.4776
7.2224 -49.5280 -17.7987
44.4672 -15.5504 -12.4948
-42.8466 1.4882 -4.8642
15.0087 25.6007 18.9106
-1.7240 -2.6788 66.6354
4.1100 -46.9324 -12.5022
2.2309 -1.3460 67.6805
-2.0571 -38.0117 3.7926
6.2068 2.2182 60.4998
-24.8690 72.5396 -65.7795
-4.0506 0.0572 65.0763
2.6132 15.7162 43.6715
15.6829 23.1069 22.0624
-10.5364 77.0947 -67.8103
-22.5619 -45.8650 -19.7122
4.8081 -34.6395 9.3698
-20.7510 -45.4374 -17.6180
-41.0017 13.5434 -5.4194
-21.1339 14.4535 26.2471
-17.7047 39.8669 -6.2136
-12.8016 30.6781 12.4860
-53.7931 -28.4797 -37.2833
51.3533 9.2384 -21.6287
-0.9172 -39.1467 1.8285
-10.6769 28.0659 18.2758
27.2580 73.6891 -69.1751
1.7117 -26.0508 25.3403
2.7745 66.9899 -48.4177
24.4246 46.5717 -22.3676
-28.4244 37.3434 -12.1753
-1.9792 11.0850 52.0880
9.7776 27.3286 20.0831
-56.2730 -27.9553 -40.8275
17.9391 10.7648 34.6832
-33.1596 -36.4767 -16.4372
-54.3127 2.5094 -25.5795
0.0308 -8.5829 56.9116
-0.2041 -0.0255 72.0040
-17.6596 13.3023 32.5428
35.3326 -61.0429 -54.6940
-41.8757 -54.7392 -51.7914
-7.0602 2.9024 58.6221
13.4780 2.4800 47.6849
23.3079 12.7508 24.5103
0.5072 -10.7882 52.9172
-37.5103 5.6374 4.0372
44.7724 -26.6138 -21.4619
-21.8814 36.6132 -4.4698
-50.2815 38.5812 -41.8067
-23.7799 22.0418 13.9593
27.1535 -65.4050 -55.2102
4.7733 2.2441 62.8720
-11.3881 -49.6031 -19.3151
23.9540 -19.7158 16.4812
-18.4895 33.0759 4.1068
-39.9790 -40.0695 -29.6010
17.0021 -53.5886 -28.9131
41.0157 -30.5672 -19.7827
21.2289 -52.9884 -30.4655
0.1750 0.0854 72.0238
-64.0964 -16.9819 -47.0856
25.8755 -49.2746 -27.8942
-48.0875 -49.5886 -52.0719
-19.8491 15.0124 27.5383
55.6972 23.6587 -36.6469
34.3863 -14.3792 5.2260
16.0332 -27.9180 14.3732
-3.9728 -7.0822 57.7448
42.6688 23.9287 -15.7603
0.3735 0.4347 71.3420
40.4937 54.2361 -49.5670
-7.8743 7.7965 52.4109
-33.3345 -48.6281 -33.8415
52.1648 48.6184 -56.0947
-16.7995 2.9541 41.6443
6.8281 14.3797 43.6959
-21.4682 32.1735 2.6917
-17.7005 29.0818 11.0392
-3.4146 40.1722 -0.2606
-21.7752 -0.5847 33.1303
-66.1103 40.7048 -67.4955
-15.2495 -25.3049 19.1470
-37.1088 17.9347 -1.8792
-31.1218 0.4695 16.2991
-4.1737 -0.0291 64.8550
8.8467 -1.1558 56.3009
-59.2915 6.4559 -35.0762
-28.0838 12.6037 16.9171
-1.8317 54.4703 -25.8145
-0.2128 -0.3603 71.6206
1.7442 34.6972 9.7853
22.4138 32.6285 1.0577
-7.8037 14.8598 42.1360
41.1549 64.1834 -64.9875
59.7037 -48.6201 -66.3420
5.7529 45.2985 -9.8907
-36.4993 42.5392 -28.6078
4.2242 13.8557 46.2778
53.3070 26.1383 -34.5870
-19.7451 -16.5329 25.9784
-1.6775 -5.5566 61.9176
-65.3408 -29.0312 -56.4394
-3.3374 12.1221 49.7229
53.8152 43.7179 -52.5391
42.3057 -10.0395 -5.9601
2.4327 78.3765 -68.8963
-13.5037 42.0533 -7.1988
64.9202 -9.6656 -45.8746
6.5330 5.8241 56.6067
5.5044 8.7140 53.8056
2.3688 11.8706 50.5668
-68.5545 13.6567 -53.5598
37.4800 49.9910 -40.1907
-2.6592 -7.7246 57.6564
-63.7439 -7.8224 -43.3277
1.5266 -5.2189 62.5782
2.5197 4.1363 63.6489
-13.9061 60.9350 -40.2282
-1.7450 -6.6040 60.0685
-6.6216 -1.5846 60.1083
-44.6240 2.7165 -8.1688
5.8059 0.4040 61.8894
1.8083 -0.6131 68.9345
-9.3397 5.4834 52.8625
26.1544 1.9124 25.1291
3.2673 27.7019 22.1210
-54.3422 -11.9498 -27.8673
5.6700 7.0297 56.1038
21.4139 9.7604 29.9769
-22.4782 -60.7510 -44.3261
-40.2871 48.1918 -40.7896
2.6610 48.7670 -15.6146
33.0020 46.3641 -30.1546
-17.4715 15.4790 30.3215
0.7479 23.5804 29.8709
-47.9700 -9.2659 -15.6455
9.6386 32.1418 11.9204
1.7738 4.2614 64.0588
-42.3426 -19.0168 -11.2501
-43.9859 -46.8587 -43.4122
-12.2181 8.5590 45.4988
-70.9185 33.1327 -68.6481
-20.7410 -25.4295 13.2544
-64.9769 40.8547 -65.9044
13.7930 30.1272 12.6795
-25.2936 -23.2091 10.5290
-57.9632 -41.1565 -55.6985
-54.6518 0.1667 -26.0864
7.9226 35.9971 5.9702
-76.3310 17.2195 -68.5990
-15.2532 -23.6381 21.6917
62.9256 7.3025 -41.7529
43.1654 14.2176 -9.5018
-64.3693 17.4807 -47.7933
6.7865 -8.5490 52.7097
-3.6048 -49.4977 -17.0365
-15.1690 21.9826 24.2569
-21.4941 -25.3750 12.4626
24.1142 1.7976 28.8100
9.9555 0.9535 54.3567
14.9160 -21.1778 25.7070
-28.1716 39.9686 -15.7221
-8.7904 61.8140 -40.1098
-30.6522 30.6107 -5.6697
-35.8132 3.1867 7.5987
-13.2387 -49.5170 -19.9685
-3.1238 9.3857 54.5534
54.2192 -47.7044 -57.7332
-6.0502 -34.0996 9.9813
29.0649 17.4442 11.3041
0.5507 0.1334 71.3537
39.5204 -10.7340 -1.4048
33.7661 17.6440 3.7372
43.0437 -16.8428 -10.8981
-25.1392 9.2498 24.1154
65.0749 21.3866 -51.0333
-62.7409 -8.9907 -41.8140
65.6832 39.6446 -65.8442
79.9437 5.6992 -72.0174
38.5315 -26.4916 -11.8678
-31.5868 45.2074 -26.9821
1.2551 -6.2258 60.9325
40.6794 -60.6683 -59.2216
-0.9638 -15.2008 44.9339
24.4527 -46.6761 -22.5577
11.2434 -22.5618 26.9596
0.6564 -1.2866 69.7724
-45.4875 10.7837 -11.8470
0.1124 0.5172 71.4210
-27.3609 33.4551 -5.4883
22.0728 -35.0952 -2.3186
-2.6371 -5.0997 62.0313
-61.9856 29.8961 -51.6087
43.2616 -19.0904 -12.8166
21.5344 10.9607 28.8419
15.6926 -1.2157 44.0182
-7.3551 4.3025 57.0230
-60.3688 -21.0741 -42.8221
-8.1851 -4.4419 55.5968
13.4671 -32.5910 8.8434
48.5203 61.3928 -68.6032
-38.6224 10.5163 0.2593
1.2348 -34.3979 10.3635
27.5343 61.4313 -48.9085
-5.5204 -4.9644 58.9989
6.6895 -6.2625 55.8658
9.0250 -15.9715 39.3241
55.4723 11.9431 -29.8542
-15.5712 -17.3002 30.4411
-39.9197 -67.1244 -68.3263
-44.7653 -26.5538 -21.3957
-35.4127 22.7711 -3.4764
-32.4112 65.7900 -59.7553
41.3325 6.0127 -2.8738
5.9072 -7.4030 55.3116
-11.8264 54.8686 -28.7467
6.7872 -68.7154 -52.0253
-69.4304 -36.5178 -68.9578
-15.4101 -4.1852 43.6060
-24.7415 5.2064 26.8242
46.8291 22.8856 -21.5286
-29.1695 -17.4447 11.1421
-29.3834 -42.5521 -20.7885
27.3335 -18.2723 13.1406
8.4536 3.2132 56.0816
-8.4497 13.4491 43.7595
-20.2401 -23.2183 16.8821
-6.6476 27.1320 22.0479
-55.9846 -22.4034 -36.2632
-5.2075 -9.9977 52.0659
4.9201 -2.1194 62.7231
-1.7128 -5.2674 62.3957
-12.0626 42.8488 -7.8223
-4.6735 -21.4028 32.9069
37.0156 16.5731 -0.6919
30.3801 -8.1509 15.7061
-20.9694 1.1490 34.5394
2.9472 7.1207 58.4905
15.7112 1.8767 43.8681
11.2011 -56.8888 -32.0839
-4.1027 39.9578 0.0083
-75.2643 25.6051 -70.8534
1.6444 22.0993 32.4504
-73.6281 -7.8679 -61.0288
48.8327 -54.7532 -59.8012
-5.4294 51.3259 -20.6100
72.4899 -7.1056 -58.8490
27.0841 34.3580 -6.4445
-0.7609 0.9381 70.1985
46.8656 -25.1118 -23.4154
25.9085 -48.9915 -27.4706
1.5841 -9.5134 54.9992
-10.6992 6.3715 49.9399
-27.4252 -25.8858 4.4322
-0.6133 -40.3801 -0.3824
-26.0057 -4.4839 24.8315
70.7412 17.4598 -58.8970
79.6570 -6.4274 -71.6017
-48.0462 33.6426 -33.2958
-12.2373 -25.5307 21.3677
31.8634 -30.1844 -6.6983
48.0983 50.0510 -52.6847
65.8250 18.9308 -51.0224
-57.5907 -0.1395 -31.3810
-39.9642 -43.0234 -33.4170
33.5534 33.1961 -12.6603
31.7781 -6.2155 14.0385
-17.8852 11.6859 33.8844
-41.8775 22.9721 -13.6778
-25.8633 15.7138 17.8533
13.6022 6.0712 45.5387
-4.1638 0.3344 64.8489
23.6846 -33.0767 -0.9181
17.2045 -64.8883 -48.5674
-17.9537 18.5166 25.9087
-47.4799 23.6489 -23.1885
19.2940 -16.3861 26.7702
45.8989 5.4657 -10.9010
35.7204 3.7952 7.6586
-65.5569 31.5735 -58.7168
44.1377 -2.5829 -7.2798
-14.7383 -1.8568 45.6123
-17.7723 -44.9635 -14.7298
11.8571 -0.8718 50.9552
13.7339 -2.7464 47.1417
5.3982 6.8598 56.6482
16.1593 4.4657 42.1707
-2.0901 -4.7592 63.0100
-21.3844 -29.9468 6.0791
-13.1064 -62.2233 -42.1866
-19.2729 46.5420 -18.3802
-55.8857 -47.5696 -59.8445
68.4847 -39.7500 -70.2844
20.8114 -37.7712 -5.3196
5.0118 -61.1505 -38.1635
63.0607 -36.4761 -58.8723
-21.8819 -9.6835 29.2645
-9.6646 -30.9630 13.9374
-66.5645 24.0276 -55.1216
-35.9604 56.4830 -48.2583
23.6320 35.9097 -5.0727
-27.6180 19.6367 11.3231
-61.2336 10.8794 -39.6715
-67.7188 42.6281 -71.7868
0.8223 -3.1666 66.4804
-17.6610 21.2218 22.6337
-58.4918 13.7678 -35.8840
65.7447 -25.2574 -54.5109
4.2640 -0.3914 64.6603
53.9355 -40.2596 -48.8808
37.3131 41.7172 -28.4600
-2.7894 -3.4005 64.4509
30.7317 49.7846 -33.0295
-17.0698 5.0414 40.3084
-2.1211 -11.9464 50.5154
49.3758 36.0417 -37.7584
8.3312 -28.8464 18.2808
57.7939 -50.2147 -65.5584
36.2119 51.3741 -40.8628
-2.1101 -9.1171 55.5150
-1.1492 4.5697 63.8855
-3.8178 -3.6264 62.8881
-59.9133 -45.0626 -62.6881
-42.0200 44.2361 -37.5452
-5.5752 -7.0462 56.1870
-64.8283 -28.7928 -55.4212
-23.7809 -75.1902 -69.7017
-3.5772 -1.1813 65.5876
-43.0651 11.7891 -8.0659
65.9066 -32.5419 -60.0478
-8.4962 18.1361 36.2929
32.6988 58.4893 -48.3487
-15.9817 -40.1107 -5.4135
22.9001 39.6296 -10.0850
-12.9814 13.8697 38.1496
42.7124 -57.9061 -57.2587
-4.3368 5.8115 59.3106
-8.3713 -13.6254 43.5641
15.5459 -15.4575 32.8785
-11.0391 -11.4479 43.7232
23.1780 -54.4643 -34.2639
-2.2205 0.7509 68.1515
0.1006 -0.5785 71.3166
-41.1463 3.5542 -2.0306
39.4154 59.7629 -56.6024
2.4350 51.1416 -19.8664
-6.9524 5.0665 56.8761
-19.8743 -49.5753 -23.8500
-23.6384 27.5698 6.9474
-5.0327 11.8338 49.2069
-49.2640 6.1521 -17.0686
-32.7413 70.4815 -67.6368
-25.9503 -38.2541 -10.9052
-75.1657 2.8366 -63.1403
-72.9569 12.6265 -61.0183
20.2458 17.7147 23.9084
3.1127 9.0481 55.1360
33.6181 -54.3878 -42.8180
-27.6725 11.3991 18.4557
0.8266 4.7713 63.6505
63.0565 -0.9396 -41.2406
-31.8736 35.8252 -14.0152
51.9920 5.6819 -21.8518
-16.5084 -73.6598 -63.6227
-14.7711 20.4311 26.9537
-69.9491 30.3506 -64.9970
63.5709 13.6019 -44.7470
-19.6643 -18.8442 23.3066
17.5428 56.2680 -33.8103
-0.0540 21.1237 34.3181
43.6850 -18.2949 -12.9512
-1.5179 8.2241 57.3078
-4.5646 -10.6080 51.5690
20.3880 -5.2329 34.4530
-3.6361 -2.6607 64.2574
63.1097 34.0090 -56.7819
-39.3153 0.6536 1.5344
34.1126 42.7623 -26.1761
-37.9606 14.3905 -0.7643
28.5068 -39.3132 -15.1128
-75.2606 15.6243 -66.1058
61.4116 -32.0808 -52.4510
-18.3097 32.2844 5.5081
-25.5615 -7.5358 24.3634
16.7382 -49.8157 -22.3040
-1.5869 48.8551 -15.6890
-2.0437 -0.3062 68.6515
-11.3642 30.4394 13.8379
72.0891 24.3512 -64.7105
44.0108 51.9779 -50.3280
-6.7358 12.4207 46.9187
-2.0011 17.0537 41.4398
-11.2262 -7.7102 47.8387
19.8107 -55.9982 -34.6388
33.0289 -22.5770 0.2965
1.4375 1.1494 69.0586
12.7232 -1.9222 49.1924
-1.0365 6.8653 59.8659
-35.2525 4.5249 8.3426
1.3754 1.2318 69.0482
-25.3880 -53.8787 -34.9296
62.5307 -6.0785 -40.8117
-11.7280 5.8110 48.7940
45.9375 -12.7980 -13.5380
70.5654 26.7393 -63.5770
4.3428 -10.4851 51.9285
45.9878 -11.6972 -13.1151
-18.9787 -17.0099 26.4594
-39.0673 -61.1167 -58.3065
50.5626 19.0395 -24.9631
0.0803 29.6296 18.9937
-46.5887 22.2547 -20.6441
4.1156 27.5299 22.2257
5.2729 1.1541 62.6500
-42.1501 -48.9825 -44.0471
-63.2035 -49.5022 -72.2607
-72.8435 19.1030 -63.2978
-10.4687 6.3487 50.3170
18.7940 21.4098 21.0498
9.7393 4.6279 52.9482
10.7717 -8.7293 47.3960
23.6764 3.5923 29.2310
53.5487 0.7963 -24.1092
-6.7968 -7.2056 54.5291
21.3222 -14.7065 25.7094
-27.5590 18.0760 12.9973
47.1628 15.0839 -72.3746
-47.3896 34.8537 -72.3746
6.2722 -6.9256 -72.3746
-37.0320 24.6177 -72.3746
63.1002 -0.1596 -72.3746
6.9744 -11.7838 -72.3746
9.3565 -50.1016 -72.3746
0.9145 -0.2735 -72.3746
24.0656 17.0269 -72.3746
0.4810 8.7499 -72.3746
-9.9776 34.9726 -72.3746
21.3398 74.5046 -72.3746
-12.6228 -66.6805 -72.3746
-10.9292 -17.4084 -72.3746
5.5913 -11.4250 -72.3746
4.1883 -56.8527 -72.3746
-31.2887 40.6315 -72.3746
6.7633 14.5282 -72.3746
-49.6979 3.7589 -72.3746
-15.1459 -62.1859 -72.3746
42.3582 -15.5770 -72.3746
13.3290 -11.7772 -72.3746
-30.1899 -10.2049 -72.3746
28.6172 1.8362 -72.3746
-42.2809 -14.4825 -72.3746
-1.9606 -7.4640 -72.3746
-50.7268 25.3397 -72.3746
-36.0657 43.7856 -72.3746
32.4984 -62.0935 -72.3746
20.8718 -8.8087 -72.3746
53.7824 17.8809 -72.3746
4.5067 5.5602 -72.3746
-12.8123 -71.6704 -72.3746
2.7321 36.5974 -72.3746
-36.4697 -15.3314 -72.3746
-26.0369 37.5693 -72.3746
-9.2268 19.5203 -72.3746
23.6570 45.5271 -72.3746
-49.7747 55.0426 -72.3746
-58.9920 34.2134 -72.3746
-11.5458 -63.5102 -72.3746
-21.8380 -32.9264 -72.3746
-25.0485 -9.3965 -72.3746
-3.9949 20.6175 -72.3746
56.9001 38.0859 -72.3746
-61.1298 -45.6231 -72.3746
6.4873 -1.2074 -72.3746
-34.0443 -10.8196 -72.3746
-9.9794 -68.6885 -72.3746
20.0520 -70.6198 -72.3746
-27.3656 72.3401 -72.3746
10.9723 25.1399 -72.3746
-2.6602 -1.7289 -72.3746
-0.0462 24.5111 -72.3746
9.5104 16.0792 -72.3746
27.0900 42.6839 -72.3746
9.9920 3.1761 -72.3746
-42.5010 20.4692 -72.3746
-52.7064 13.3010 -72.3746
-15.7490 -11.8906 -72.3746
-45.5994 -3.4893 -72.3746
-30.9424 -53.7961 -72.3746
44.2282 -21.7755 -72.3746
-52.5011 5.7443 -72.3746
64.1553 -44.1088 -72.3746
41.4186 2.1859 -72.3746
-57.7992 -53.6813 -72.3746
-2.5925 42.2528 -72.3746
65.4261 -33.8615 -72.3746
-0.0118 0.0006 -72.3746
-20.9629 -16.8455 -72.3746
-17.5283 -50.8781 -72.3746
69.8265 29.4155 -72.3746
45.8255 -23.3815 -72.3746
-18.3585 -15.2417 -72.3746
-45.3627 -35.9481 -72.3746
18.4930 -33.6604 -72.3746
-2.6342 -5.4348 -72.3746
-22.1987 -40.1795 -72.3746
-17.2225 -9.4605 -72.3746
8.8587 -62.9692 -72.3746
-30.0878 8.6919 -72.3746
-61.5782 -1.9885 -72.3746
2.9225 -5.0861 -72.3746
-26.5549 -75.5114 -72.3746
-62.0643 -17.9572 -72.3746
72.1765 8.2829 -72.3746
-21.3342 -73.7047 -72.3746
0.3805 -37.2156 -72.3746
3.9886 -34.3700 -72.3746
-56.4948 -14.1072 -72.3746
1.0363 -8.5021 -72.3746
-22.0453 27.9324 -72.3746
-32.4328 -16.6716 -72.3746
-22.7865 34.5793 -72.3746
-75.0630 -10.9779 -72.3746
17.4599 -55.6722 -72.3746
3.1470 -15.3792 -72.3746
2.5448 11.4917 -72.3746
-14.3062 37.2656 -72.3746
30.6088 -36.3885 -72.3746
72.5845 15.2662 -72.3746
1.5798 1.4009 -72.3746
17.5890 -45.9925 -72.3746
-2.6366 24.8316 -72.3746
30.8964 70.3041 -72.3746
6.9208 9.2786 -72.3746
74.8474 22.7295 -72.3746
-4.8773 -63.2392 -72.3746
-9.3520 -2.3596 -72.3746
26.4966 54.0992 -72.3746
11.1786 3.6555 -72.3746
27.9601 2.7888 -72.3746
11.2775 63.6688 -72.3746
-28.3050 23.4723 -72.3746
0.1222 -7.7871 -72.3746
1.7711 -1.6698 -72.3746
-50.6522 26.4893 -72.3746
24.5431 -36.2091 -72.3746
9.0870 14.8300 -72.3746
-11.5678 -0.5343 -72.3746
66.9352 -24.2706 -72.3746
4.2214 -5.4693 -72.3746
26.1160 -2.3381 -72.3746
-4.8932 57.2379 -72.3746
66.5034 2.5142 -72.3746
41.0666 -21.7634 -72.3746
43.3416 -35.2449 -72.3746
25.5927 17.8574 -72.3746
-3.5283 4.7054 -72.3746
5.2420 -9.1992 -72.3746
6.2237 -14.2932 -72.3746
-20.2618 -13.0637 -72.3746
-9.2598 70.6615 -72.3746
-5.2109 -8.0325 -72.3746
34.9068 58.8330 -72.3746
19.3111 12.0098 -72.3746
75.2352 -23.0819 -72.3746
-25.9634 71.5544 -72.3746
-36.2530 -26.0426 -72.3746
48.2262 1.0508 -72.3746
60.8647 -43.6557 -72.3746
11.6216 -6.6826 -72.3746
-16.1618 -29.5341 -72.3746
24.5742 -7.9756 -72.3746
9.0953 -22.8926 -72.3746
5.1130 25.2937 -72.3746
-15.7133 -1.2751 -72.3746
-11.2187 -0.1826 -72.3746
2.3650 -3.0366 -72.3746
9.7904 -8.1683 -72.3746
-16.1728 16.3691 -72.3746
-14.6451 -5.4427 -72.3746
15.6249 -18.8543 -72.3746
36.9592 -10.1381 -72.3746
-12.4142 8.1047 -72.3746
-11.5355 26.6113 -72.3746
34.1558 -13.8909 -72.3746
-60.1267 48.6774 -72.3746
14.2553 -43.9331 -72.3746
12.4309 61.7516 -72.3746
-33.2709 -10.5293 -72.3746
-2.7177 5.6479 -72.3746
-17.2566 41.2058 -72.3746
3.8317 26.9637 -72.3746
32.5129 -21.7080 -72.3746
28.7924 -71.0059 -72.3746
-10.8085 32.4112 -72.3746
-11.3356 8.6764 -72.3746
8.2262 -23.4119 -72.3746
-28.2531 10.8495 -72.3746
-68.0626 -25.2144 -72.3746
58.8867 17.3045 -72.3746
3.1603 -2.1703 -72.3746
-0.4419 1.9170 -72.3746
4.7085 -72.0094 -72.3746
3.1927 -9.1297 -72.3746
-1.0475 -2.1156 -72.3746
42.6130 -23.4158 -72.3746
-9.9759 6.8186 -72.3746
19.3414 47.5196 -72.3746
-3.2772 3.8429 -72.3746
-7.1224 -35.1577 -72.3746
-0.7160 1.0032 -72.3746
1.3331 -15.7277 -72.3746
-62.8308 -5.6192 -72.3746
17.9244 21.4812 -72.3746
71.9670 -4.0689 -72.3746
-16.8194 -13.1324 -72.3746
-60.1973 -23.6262 -72.3746
-4.7888 -33.7789 -72.3746
1.7429 2.8376 -72.3746
-43.1664 -35.4922 -72.3746
-9.1624 -7.5801 -72.3746
-61.7893 -3.2271 -72.3746
-61.6930 -36.6467 -72.3746
-14.2402 -6.6078 -72.3746
5.9806 -34.3216 -72.3746
-8.6857 -18.3904 -72.3746
-25.4151 -7.8467 -72.3746
22.0462 -15.6753 -72.3746
26.7678 42.9227 -72.3746
1.8055 55.0733 -72.3746
16.9748 17.3320 -72.3746
-34.7646 18.5470 -72.3746
-9.5511 13.6361 -72.3746
7.7137 -0.1352 -72.3746
76.3209 23.2712 -72.3746
12.5685 74.8950 -72.3746
36.3994 -10.6221 -72.3746
16.5222 17.2829 -72.3746
-3.0470 53.8693 -72.3746
-23.6983 31.9867 -72.3746
-64.5671 -31.0150 -72.3746
67.0085 0.5299 -72.3746
4.3673 -56.2474 -72.3746
52.6836 14.1754 -72.3746
-49.1877 -20.0097 -72.3746
32.0234 57.6369 -72.3746
62.9292 -14.8932 -72.3746
18.9015 -47.8585 -72.3746
-62.1178 10.8851 -72.3746
31.3820 -54.3633 -72.3746
-4.2955 8.8035 -72.3746
0.0001 0.0031 -72.3746
7.6968 14.2213 -72.3746
-29.6889 -58.4056 -72.3746
-5.4158 6.0593 -72.3746
-18.4795 -3.5366 -72.3746
-28.5917 -25.1057 -72.3746
5.7591 34.7638 -72.3746
-12.1533 78.8185 -72.3746
27.4730 19.4495 -72.3746
-29.4756 -58.9019 -72.3746
-7.8677 -5.6184 -72.3746
-12.0560 5.2018 -72.3746
-23.6503 -56.7314 -72.3746
27.7851 -14.3880 -72.3746
-0.0762 2.4597 -72.3746
14.2344 14.8378 -72.3746
58.7320 -7.3274 -72.3746
-12.2865 3.1357 -72.3746
-12.8017 -45.6445 -72.3746
-4.3760 65.6539 -72.3746
-12.4285 53.1947 -72.3746
55.0376 -40.7072 -72.3746
16.5917 -21.0837 -72.3746
49.4128 27.4459 -72.3746
-6.7152 48.1407 -72.3746
10.6993 10.4150 -72.3746
-59.6933 -2.4209 -72.3746
61.2602 -20.8226 -72.3746
-55.7151 -21.1044 -72.3746
22.2094 60.4142 -72.3746
-68.7512 14.3085 -72.3746
-22.6386 -34.7218 -72.3746
