ply
format ascii 1.0
element vertex 1024
property float x
property float y
property float z
end_header
-25.0961 -62.1113 -24.4450
-0.2381 3.6859 57.7981
-2.4490 3.9457 56.5633
-3.6359 -1.3975 57.5360
21.9010 -31.3292 12.9297
-13.5564 -18.1069 33.2070
-14.2292 37.3002 10.7250
46.7303 67.7966 -44.3920
-61.4618 26.0529 -24.1407
43.0781 80.6911 -56.2533
-9.4419 -65.1200 -22.9004
-15.9405 -18.4863 30.8807
0.7282 32.1410 20.8245
79.7537 -17.0157 -43.3621
-3.4134 -19.0647 37.4319
-49.2176 58.2686 -36.5074
8.8262 26.5605 26.2307
18.8132 40.0081 5.1527
-5.2572 -1.9637 55.3055
41.4318 35.6911 -8.4570
35.1058 68.5863 -37.5150
5.8087 16.8231 39.4721
-55.1342 -6.0345 -9.4684
-68.6781 3.0651 -26.7276
1.2945 89.5976 -53.8324
11.5245 31.4996 19.0154
48.8186 45.1201 -23.7777
-6.2957 -10.1377 47.0916
-2.2989 -1.0166 59.3313
-55.8526 -6.6782 -10.4910
-28.8673 34.7089 3.9393
84.7596 -15.8335 -49.4392
17.7260 62.4710 -21.7781
26.7821 -23.7469 16.0890
-11.0641 4.4124 47.1203
5.2260 -30.9885 21.7641
41.4096 0.5456 8.7875
-5.2187 20.8556 34.6633
-42.2223 42.7321 -15.4577
-1.6056 -0.7377 60.3014
-71.3809 -47.0557 -48.4902
26.1491 41.9878 -1.6739
60.8987 34.5017 -28.3472
3.4967 82.4395 -44.6158
14.4002 -11.2147 38.8819
0.4901 -0.1863 61.9160
84.5967 2.1173 -47.3569
-16.7984 -5.4796 39.6386
0.8517 -0.6819 61.1797
-20.9381 -0.5579 35.3819
-20.1894 -65.6722 -26.6745
-31.2015 -85.8659 -56.1090
83.2678 44.9610 -60.3603
6.8148 -25.6166 28.1550
-44.6969 25.1238 -4.0249
-58.6020 -8.1820 -14.2851
-26.4973 35.0792 5.4758
-12.9482 -36.8905 11.7973
14.4258 -48.6544 -3.3414
-41.3333 -79.1666 -53.4430
39.8727 8.2894 9.6814
-75.0505 19.3682 -38.1136
-45.6254 76.5645 -53.2101
-53.1805 15.5931 -9.4113
-4.8874 -44.7455 4.1120
-13.2450 -83.7544 -47.5804
44.0937 70.6514 -45.6141
-8.8392 33.2407 17.9055
45.3682 1.6656 3.6089
67.4592 24.5393 -30.6742
70.1389 36.1918 -39.9543
43.5432 7.0492 5.2833
2.2763 9.3232 50.1275
35.3694 88.3403 -61.0448
-40.9160 10.5532 7.6937
-85.7956 -38.9840 -59.8486
-43.4998 11.8215 4.0265
-10.7906 -19.6060 33.5191
27.3422 -54.2502 -16.3387
-18.8422 -29.8045 16.7814
-4.0712 -2.8435 56.1449
-14.5473 -12.7014 37.5046
7.8730 -35.5713 15.2596
24.7301 5.8173 29.5875
-60.2912 5.5537 -16.0730
77.7033 -50.2750 -57.6556
0.2064 0.5970 61.7765
-6.9088 -13.4383 42.9640
65.9153 16.5021 -25.6921
71.8692 -7.8794 -31.3446
67.1460 64.9498 -58.7852
68.8433 -18.7372 -30.1074
-9.1915 24.9530 28.0452
75.7759 46.3604 -52.8266
-42.5769 -80.9710 -56.2698
-40.5570 -28.8600 -2.0801
-19.9664 -56.9476 -15.8130
-25.7773 0.1031 29.1036
0.8442 -14.4633 43.7726
-9.1190 15.2396 39.5217
-74.8167 -39.4337 -47.2913
-18.8450 15.9764 30.4960
-0.8356 -12.4197 46.4235
47.3792 -48.0111 -25.0464
37.5282 24.3131 4.4965
48.4652 58.6593 -36.2702
40.3619 1.0331 10.1364
1.1355 7.0694 53.2941
-69.1347 -48.9934 -47.5017
26.9231 7.0476 26.4364
-46.0683 -43.7525 -19.9548
41.4519 -66.5169 -39.2394
-53.7694 77.0285 -59.4613
42.3983 52.4392 -25.0236
39.3929 -60.3242 -31.0165
11.8869 4.6522 46.0114
1.9252 -13.3674 45.0494
-2.9036 -52.6623 -5.9328
13.7780 -1.6895 44.5609
40.8798 80.5213 -54.7383
-53.2320 -55.3962 -37.2269
-10.5965 -11.3312 42.4395
31.4067 -41.5715 -5.1002
-13.8978 22.9582 27.7269
3.3017 1.5430 57.8620
-89.3627 9.8477 -54.2180
-48.8270 -65.7198 -43.7833
26.7515 18.7770 20.1303
-0.8963 -7.6436 52.5977
-28.4428 70.1151 -35.7166
95.5211 8.3183 -61.9866
61.4605 41.6882 -33.8981
18.9522 -48.0276 -4.4898
-7.9578 52.5118 -6.4123
7.3532 88.5469 -52.8511
9.4240 -2.1392 50.0408
4.2250 -22.3670 33.0211
27.7385 49.6344 -11.2824
-1.1698 -14.5663 43.6098
-42.5855 7.0549 6.5102
-14.2403 -15.5047 35.2438
88.0058 -8.8269 -52.3258
-53.3308 4.6485 -6.9602
19.6169 -19.2789 26.8596
-1.6816 74.5943 -34.3506
51.6273 51.8458 -32.4710
45.1479 -28.0572 -6.4701
8.8355 -49.8090 -3.1318
54.6717 33.2419 -20.5401
42.8629 59.5691 -32.7577
-74.3707 -39.7500 -46.9722
13.3843 -70.9914 -31.2696
-18.8678 -19.9575 26.9117
77.9725 27.0416 -44.6352
29.5679 29.2755 8.5331
-16.1221 68.6171 -28.9874
-66.4981 -48.2228 -44.1339
-46.2694 64.9174 -40.9848
9.4203 31.6960 19.6330
48.2760 2.3423 -0.2033
40.0201 -4.6544 10.2471
-21.2383 23.3959 21.5408
-2.7704 8.5626 50.9038
-39.3948 39.6284 -10.0072
17.9409 55.1060 -12.7033
0.6630 -75.9732 -36.1214
-35.3591 -23.6357 7.3348
-25.9667 6.2366 27.8983
7.0617 1.7660 53.1392
-43.7941 79.6115 -55.4633
-34.5146 -28.6513 4.3128
36.2699 -32.8965 -1.0263
43.4106 21.2077 -0.1789
2.5718 6.7082 53.2625
-38.6562 -43.2267 -12.7513
-49.6189 -62.0331 -40.6175
19.5680 -7.7528 35.2490
3.7273 -40.1878 10.1557
-77.2975 26.3682 -43.5212
-27.1237 23.0432 16.3532
-61.7316 -10.2044 -18.7013
-14.9070 29.0744 20.1438
-24.5007 -72.6100 -36.9738
50.5445 44.1984 -24.6448
20.3224 -46.8663 -3.7765
26.0815 38.4619 2.2157
-2.8082 16.9565 40.2650
31.6670 -35.0969 1.1757
-49.1303 75.5516 -54.5007
-46.1212 -14.2692 -0.1323
31.3795 -14.7974 17.5188
-23.3946 -6.7542 30.9583
-1.1332 31.3393 21.8503
43.8488 23.8826 -2.2799
24.8840 -30.7330 11.2162
-35.1610 30.6179 2.0176
-12.0758 53.1643 -8.2407
13.4788 59.8852 -17.1604
85.4456 25.4671 -53.2518
31.1920 20.6135 14.0178
14.5230 -56.3236 -12.9798
45.9566 81.9841 -59.5225
77.4167 4.7199 -38.1800
-5.9902 34.5680 17.0124
-38.0303 8.8627 11.8589
54.7813 -67.2978 -50.1534
76.5808 -27.3164 -43.0478
6.0642 0.9650 54.6187
-3.7623 0.1743 57.7035
36.1488 36.4441 -4.0995
51.4860 -43.1227 -24.6654
61.3346 -46.1924 -37.1701
-74.3594 -0.8624 -34.0273
-8.4519 -5.9511 49.1662
-25.4529 -9.5416 27.2780
-44.5029 -59.5934 -34.0431
68.6819 58.7759 -54.8603
1.1958 2.5859 58.8954
11.6238 -44.2218 3.1864
19.8480 -92.9655 -60.9187
5.8717 -78.2058 -39.3045
-12.4791 6.7043 44.1909
2.9717 -9.2269 50.0020
27.7700 18.6891 19.1043
-33.7516 8.8341 17.2653
-74.4947 -34.5561 -44.1035
11.2741 43.1857 4.6038
-5.2032 2.3428 55.1828
36.4751 -5.0261 14.7560
-31.3658 -89.6902 -60.8613
17.4506 66.6514 -26.9244
83.1082 8.2470 -45.9188
38.9096 -87.8803 -62.2806
32.3212 -88.2154 -59.4756
33.8655 15.0261 14.4577
1.7635 -1.1131 59.8877
48.1115 -82.1118 -61.0589
25.5504 -76.0686 -41.6680
1.4846 48.6466 -0.6406
58.1351 -75.8880 -61.6148
-27.9754 -4.5238 25.7757
-63.3886 -0.7736 -19.7720
-61.0682 -56.8067 -45.7735
67.2647 8.8552 -25.5564
40.7463 25.8590 -0.1077
86.4031 6.4843 -49.9852
29.1587 22.4927 14.7479
30.2150 9.3003 21.5201
-9.9149 -1.8132 49.5009
-88.0770 36.7799 -61.4218
80.9957 -30.9679 -50.0735
2.4672 -17.7735 39.2820
-28.7354 48.2023 -10.3184
-45.1010 -17.1968 -0.1196
-43.3846 -60.2606 -33.8829
15.2055 21.5362 28.3427
37.6553 -43.5833 -12.2408
-33.6938 13.0447 15.6512
61.9371 -50.6675 -41.3773
-35.5732 -10.1799 14.5203
-1.7607 27.9182 26.2500
12.5292 -45.2525 1.5869
-0.2225 -0.0272 62.3060
33.5966 -2.6751 18.8059
1.7711 -28.2321 25.8422
-20.5733 -37.2775 7.2743
-3.2470 -1.7457 57.8073
-74.4825 21.8188 -38.2476
31.0840 24.9815 10.7818
-41.6209 -70.6590 -43.9563
-27.4483 21.3286 17.4312
5.3550 72.7357 -32.1668
36.4574 51.2184 -19.0903
29.4065 -10.5474 22.0049
0.8091 10.7794 48.5519
-11.7463 11.9387 40.8355
70.6767 -56.7250 -55.1554
23.4468 89.3885 -57.4777
20.0598 -43.1819 0.7309
47.8533 -29.6580 -10.5537
-32.1642 52.7601 -17.6905
23.5435 37.9477 4.5717
80.1789 31.5611 -49.3628
44.3294 -4.2583 4.7333
20.4220 -60.7757 -20.7099
-63.8246 56.4609 -48.1243
14.5308 -9.0767 40.3361
-62.9887 11.7795 -20.6652
-14.8378 -0.4556 43.3089
-4.4893 -52.6103 -6.0097
75.1230 -40.3702 -48.2143
38.3040 36.4070 -6.0671
45.3100 -72.1320 -48.0833
-79.5984 27.0555 -46.6392
73.0634 53.7120 -55.2294
-73.7603 54.0204 -56.1965
41.8447 -32.3986 -6.1652
24.6650 -75.1832 -40.2138
15.8179 -30.9674 17.4150
28.9568 -36.5965 1.9613
6.5601 61.6523 -17.9621
25.4522 -35.0811 6.2818
-39.7306 -20.9483 4.2377
62.0773 -43.1918 -35.6651
36.3087 34.8661 -2.8095
-42.0080 50.7963 -23.0501
-67.4739 -27.0811 -31.8720
44.3890 -42.1320 -16.9228
88.6627 29.4959 -58.8132
-56.6558 43.5106 -30.2218
-30.3314 -71.9154 -38.8162
-57.6761 -6.4140 -12.8054
11.6650 -4.8593 46.1780
-53.0484 20.2774 -11.1945
-21.5741 42.5339 0.6286
7.2451 70.3875 -29.3431
-18.2332 62.1474 -21.5568
36.4980 22.4985 6.8879
-56.3325 4.9360 -10.8781
-7.1440 4.5344 51.6029
1.5794 74.9741 -34.8410
43.2919 75.4357 -50.4132
-23.5032 -11.5713 28.5583
-10.0703 23.8310 28.9817
-36.8916 -5.9640 14.0403
17.2348 15.8552 32.1688
-1.9980 19.2134 37.4980
91.8762 16.9412 -58.7935
1.6898 -46.0667 2.7008
-11.5913 14.8657 38.1039
-76.2485 -33.7548 -45.7493
46.0345 24.0597 -4.8938
9.6519 17.1427 37.0353
-17.6331 -83.0750 -47.7499
49.8429 -30.6306 -13.4173
2.2110 2.0255 58.7012
-44.8424 -9.1446 3.1328
-10.7170 -66.8157 -25.3286
11.9916 12.3254 40.2535
-5.1426 -40.8712 9.0730
6.2531 57.2165 -12.1890
62.2359 -39.8787 -33.4450
-17.4590 -65.0288 -24.8893
67.2379 47.4747 -44.3500
-61.8948 -39.8845 -33.0762
6.6755 2.4462 53.3596
15.4746 49.2291 -4.4536
12.7955 38.4377 9.9592
-58.6873 -27.4059 -21.5622
-69.5394 6.5415 -28.1567
19.3321 51.1693 -8.4757
13.6433 22.6283 28.2648
-16.0345 -44.1505 1.5648
3.1546 1.3981 58.1139
74.0152 60.6493 -61.7365
2.1912 11.9603 46.7982
49.8830 -50.1076 -29.2714
11.4343 -7.4460 44.8679
8.8686 35.8097 14.6627
-1.6599 81.4857 -43.3021
6.8103 25.1927 28.6885
43.3352 -34.2349 -9.1606
-60.1770 -69.4362 -56.7911
1.6386 9.5310 50.0316
-63.2827 64.4454 -54.7605
-18.1958 75.0474 -37.7399
-1.9138 -27.9112 26.2461
-0.9310 2.4784 59.1573
19.6115 -69.5346 -31.2764
-5.1403 -37.2657 13.7181
48.8784 82.7295 -62.2559
66.1854 -10.5017 -24.4757
-7.3378 18.3237 36.9506
13.9429 -0.3205 44.4759
-77.5563 -37.5562 -49.3681
22.8597 14.8774 27.1584
-10.3444 9.1193 44.6792
-12.0579 19.6733 32.6158
55.5802 26.6206 -17.4763
-4.3774 -81.7047 -43.7170
95.1133 -6.1534 -61.2454
-15.7993 -0.4088 42.0618
68.7631 -43.3818 -43.0441
5.8107 56.4781 -11.1742
2.8567 0.5583 58.8152
25.5468 -82.9041 -50.1215
85.1653 5.1176 -48.2609
-3.8637 -11.8039 46.4594
-38.4221 -12.8617 9.9512
26.3661 8.3254 26.6715
1.3898 -1.5793 59.8639
8.6693 69.0776 -27.8619
-21.9051 9.9937 31.3130
2.0799 -18.4622 38.4569
18.3219 -12.0675 34.0912
4.2169 -57.7392 -12.6253
-39.7833 -86.1166 -60.6604
-14.9231 -56.9225 -13.8638
33.7627 7.2452 17.7295
39.9118 -62.6028 -33.8698
-36.9782 51.5472 -19.8313
-40.5369 45.1237 -16.2179
-19.1762 -91.0824 -58.3440
61.7894 36.3849 -30.5734
6.6977 -2.8001 53.1648
-17.1511 84.5568 -49.5079
-43.4943 46.1732 -19.8233
16.0667 5.6083 40.4859
23.0733 0.2659 32.6153
23.3370 -16.3499 25.5734
-79.7504 -16.8204 -43.3051
9.5064 -42.0785 6.5452
-12.5744 53.3117 -8.5733
-6.0588 9.2965 48.1791
-12.8045 9.3207 42.0189
26.5423 14.4160 23.3514
-10.6353 -76.2216 -37.3997
17.4657 -37.4449 8.9114
67.4314 -51.6763 -47.7886
12.9291 3.2044 45.2898
2.7970 -7.4794 52.2217
16.7704 -29.6769 18.3060
2.2778 -19.9656 36.4870
-5.6414 12.2850 45.0324
-46.2981 -21.7740 -3.8803
-29.0430 43.5877 -5.4585
70.5741 30.9796 -37.5482
0.0313 0.9219 61.3987
51.8595 -12.3142 -6.6593
-22.3070 42.1310 0.6552
51.3144 -20.0398 -8.9815
27.8671 5.0772 25.7925
-10.0304 1.8552 49.3434
-48.5608 -43.8590 -22.4251
-37.5299 68.8599 -39.3008
23.5226 -25.8063 17.2268
26.5642 -40.7152 -0.5695
19.1648 -7.3961 35.9058
5.9446 65.7061 -23.1258
-38.7466 24.7389 2.8657
-33.2319 39.7353 -4.7086
-56.4100 -0.8095 -10.7059
-12.8113 14.4981 37.4584
-41.7462 84.6545 -60.0448
35.4935 11.1132 14.2715
-24.5554 -47.2833 -6.6304
-22.9779 -13.6546 27.8675
-70.7069 -31.2550 -37.8504
-13.8562 -32.3687 16.8480
7.6446 70.9730 -30.1540
-62.6816 52.6907 -43.8001
-13.5432 -30.5865 19.1335
16.3813 19.1461 29.8571
-22.9597 21.0401 22.1332
7.0126 10.3308 46.3737
-1.4981 -3.9254 57.1381
-17.3067 28.1574 19.6530
-6.1642 -42.5232 6.7678
-79.6781 -18.6504 -43.7298
-20.4439 -30.0174 15.4079
-0.5792 -41.0177 9.2961
-0.3100 -53.8438 -7.3651
13.6415 -19.4656 31.7124
-85.3599 44.4944 -62.4776
37.9164 -37.2720 -6.4862
19.1454 8.4562 35.4025
-44.4621 3.5967 4.6372
-29.9864 -34.4653 3.2382
-18.9003 55.6275 -13.7396
-30.0758 -52.4834 -15.9998
4.0360 18.4100 38.1085
36.4958 -38.6385 -6.4620
-22.0701 0.1951 33.9197
-20.5451 -11.7953 31.8156
-13.3858 21.2977 29.9125
-15.0853 69.4388 -29.7317
-68.8030 32.7350 -36.4037
-37.2842 12.2254 11.6147
25.8185 52.9610 -13.9586
-30.9341 15.8839 17.4143
20.8702 -12.5802 30.9343
-15.3089 -12.8324 36.6420
0.7521 3.7839 57.5846
-4.2692 2.7572 55.9939
3.6395 -14.6753 42.9516
31.7839 88.0305 -59.0112
59.6198 -44.9019 -34.3815
48.2042 46.4885 -24.4178
-57.1275 -45.8180 -32.5551
-56.6476 51.6683 -37.0253
0.8791 -23.7499 31.7171
54.6105 -13.0609 -10.3614
60.5758 -7.0863 -16.6478
-0.3782 86.9337 -50.3601
26.7214 -8.9373 25.9867
-50.1808 -59.0610 -38.1020
-92.8510 -15.8636 -59.7957
55.6465 55.9687 -39.9519
-65.5422 -30.7555 -31.4740
56.5102 -8.4430 -11.6435
-19.6412 -69.9223 -31.7717
1.0381 41.5842 8.5485
33.6174 -14.3603 15.0985
-21.8628 1.3504 34.1360
-8.4053 43.9314 4.4801
79.5307 -43.9895 -55.4939
7.6984 -5.9983 49.9166
75.1657 -56.9934 -59.9691
79.4233 51.9123 -60.6889
59.5852 -11.1390 -16.1653
17.4474 11.3039 35.5851
-32.0556 12.8777 17.7110
13.4729 -89.7578 -55.3350
33.2920 -76.1606 -45.4026
-8.8685 0.6570 51.0426
19.4523 72.1177 -34.4569
-69.6513 63.7890 -60.1220
76.6089 -1.3267 -36.9585
5.3125 -30.7679 22.0279
-3.3196 -29.9555 23.4367
-10.1891 -56.5626 -12.0796
11.1305 -10.2839 42.9069
-7.1334 -10.6057 45.9898
-60.0707 7.3446 -16.0361
21.0285 48.5876 -6.1935
-24.4446 -26.2842 15.9585
-4.5869 -69.7233 -28.1927
25.6004 -43.3744 -2.8450
57.1608 -40.6661 -28.5519
-36.9972 -46.2821 -14.3914
-43.2017 -12.8094 4.0481
-47.0415 66.2682 -42.9964
78.1336 26.6928 -44.6856
-32.9615 -27.4652 6.8499
-1.0946 -0.0349 61.1743
-63.5024 -25.0582 -26.1055
22.1965 -60.3716 -20.9797
77.2639 3.1046 -37.8757
-23.6683 -32.2002 10.6719
-33.3362 33.7441 0.9647
46.8973 55.1201 -31.4373
4.4739 -1.1005 56.6110
17.1286 17.0296 31.2137
-19.0865 -19.2448 27.3794
20.5729 59.8594 -19.6456
-25.9207 88.9543 -57.7915
37.8476 12.7247 10.7155
14.2627 -15.3696 35.3530
0.9489 -0.4001 61.2593
-66.7802 -11.5658 -25.4645
75.5003 -41.3896 -49.2771
-27.5177 -12.7486 23.1917
48.9547 54.6184 -32.7049
-6.5879 -15.9584 40.1646
-15.7702 -15.2641 34.0802
-39.5390 -54.6249 -25.0210
42.2295 28.9399 -3.9212
14.8545 -64.7022 -23.6599
1.0019 1.3470 60.4161
11.5751 -15.7038 37.2489
-51.9320 70.4663 -51.1407
-56.2992 -5.1013 -10.8541
22.8875 -42.2413 0.1727
10.0555 -61.2040 -17.9935
2.5973 -0.8035 59.0647
42.8546 -30.2837 -5.5854
-7.5214 65.6216 -23.2256
9.9344 0.5827 49.6669
-34.9009 -55.4287 -22.5109
-50.9997 -65.5936 -45.3612
-7.2144 -4.2970 51.6866
-6.1259 -0.2324 54.6320
-85.6885 -27.8920 -54.4908
-18.0130 42.7989 2.2625
-1.2161 -7.7158 52.4481
5.0887 19.5608 36.3352
3.3539 10.4545 48.3314
-1.4506 6.8349 53.5187
15.2857 35.4486 12.4379
-22.2116 -13.3404 28.9316
30.2901 10.8599 20.7871
-47.4395 -75.1458 -52.8714
6.5382 36.9949 13.7835
54.5050 13.8238 -10.4654
40.5805 2.8728 9.7376
63.0920 -35.6554 -31.5657
-80.2726 -19.3435 -44.6894
-33.3945 28.6989 5.3848
-9.5355 -27.5370 24.7330
-14.8358 -3.9355 42.6539
1.2721 -0.8547 60.6060
22.3486 -41.0084 1.9145
23.1574 -57.3377 -17.7506
21.0871 22.8589 22.1881
-24.6528 -0.1843 30.5641
-17.9818 -23.8228 23.8154
-31.3967 -45.2449 -8.9590
64.8101 54.9251 -47.7862
31.4708 14.2061 17.7330
-24.0770 -63.3393 -25.4473
-53.0155 -48.9052 -31.1206
16.9653 51.5341 -7.8981
2.1816 -6.6109 53.5518
24.8261 -60.3051 -22.1395
16.9927 76.0603 -38.6671
-7.5685 21.8742 32.5221
5.9187 9.6370 47.9025
-3.8124 -25.4695 29.1352
3.3969 -0.5885 58.1178
24.2259 -69.2503 -32.7293
42.7816 -23.5785 -0.8739
94.4266 14.9746 -61.6279
-1.6078 60.0993 -15.5200
10.1838 -3.6207 48.5537
-62.8102 -64.5128 -54.3938
-37.0626 12.7250 11.6812
-33.0902 1.2106 19.5732
2.7647 -64.9763 -21.9052
16.5845 -10.5764 37.0395
69.0559 43.4715 -43.4281
2.2465 -11.3867 47.5169
1.0192 -2.6237 58.9401
-18.4410 -47.2445 -3.3000
91.5948 14.3314 -57.8633
-19.4598 79.1866 -43.3542
51.8042 6.2845 -5.2074
81.3146 -47.9445 -60.0559
-69.3775 34.7298 -38.2116
-68.1381 -53.9347 -50.3162
67.4628 -6.2582 -25.4361
2.8438 -37.2077 14.1109
73.2598 13.7731 -34.2595
-7.6197 10.0211 46.2400
-77.8939 -22.0656 -42.5958
22.9784 82.5263 -48.7113
24.0019 -46.9475 -5.9132
3.2170 67.6549 -25.4086
-6.3175 31.9828 20.2379
3.2223 0.6518 58.3256
-56.1714 61.4854 -45.6125
14.6955 -3.9888 42.8120
30.5293 -37.8735 -0.6104
-12.9670 0.5195 45.7352
-11.4154 -39.6707 8.9600
31.3068 -45.5904 -9.2621
14.2321 48.7988 -3.4505
6.6333 24.6273 29.4577
16.0691 12.9468 35.7844
-14.9680 -2.9495 42.7748
75.5239 -17.4357 -38.1149
28.1284 21.4108 16.6655
-3.7761 5.8308 53.5711
76.9438 -11.6177 -38.5119
-33.7055 84.0046 -55.0113
-44.9692 3.5501 3.9854
1.3027 -1.4363 60.0778
-0.3277 -3.2072 58.4083
-5.6657 67.2746 -25.1246
56.8737 59.6595 -44.5006
-3.7437 -5.1362 54.3390
22.2001 -72.8127 -36.3106
27.3447 -8.6788 25.3207
14.6942 -7.8011 40.9807
-4.4077 -0.0002 56.8702
-56.0688 -32.9711 -21.9177
71.8819 15.8914 -33.0568
50.3640 -18.5500 -7.1402
-25.2669 -31.0755 10.5572
76.6226 9.5156 -37.7261
-42.7610 -18.0692 2.2795
-6.6932 -80.0654 -41.7975
-3.5661 -5.1538 54.4541
-15.2464 94.4724 -61.7426
79.2494 -28.2916 -46.7394
49.3481 5.9759 -1.9910
27.7457 19.5469 18.4982
72.6721 -10.2742 -32.7673
-31.7550 13.4653 17.7806
70.2436 -50.4472 -49.7717
-87.6227 9.5196 -51.9241
3.4669 -1.8232 57.5077
-0.4292 1.1398 61.0148
-86.6181 -12.5371 -51.1218
-0.8824 95.9408 -62.0675
14.1499 -15.3392 35.4815
5.2970 -8.3968 49.6976
12.7245 -49.2080 -3.4436
-38.0759 21.7567 5.6168
3.9733 25.9922 28.4323
29.5939 -15.0401 19.4640
-26.0541 -85.7867 -53.8960
-0.0312 -0.3082 62.1948
4.1089 3.1544 55.8666
-11.9064 28.8619 22.0302
26.1175 6.0659 27.7586
35.5956 -21.8984 8.2951
-8.3164 -8.7580 46.9046
-12.4012 81.5015 -44.5196
4.5429 -0.2823 56.6832
65.2790 -38.1613 -35.6522
47.6285 32.0175 -11.9715
16.5298 12.5814 35.6059
22.9829 75.6456 -40.1283
-5.0184 5.2028 53.2048
-59.0335 14.6499 -16.4338
45.6277 5.7028 2.8503
6.4336 -55.4331 -9.9125
13.1594 4.5137 44.5209
73.9115 2.0809 -33.4768
17.2202 48.7482 -4.5789
3.3181 6.8385 52.7210
34.0540 -55.0158 -21.4731
-6.6167 -27.8539 25.3985
-16.0337 9.9471 38.0806
-58.8418 27.2008 -21.6319
-9.5028 12.8027 41.8806
-10.0291 60.3432 -16.8844
-15.8654 -68.4840 -28.7433
12.1403 -69.8063 -29.4661
-81.4549 28.7704 -49.6481
-13.6451 -58.8165 -15.8549
-82.2133 28.0576 -50.2751
15.3101 12.5362 36.8863
-1.5816 4.3850 56.5404
-29.8622 41.1212 -3.4355
19.3561 -70.6931 -32.6378
10.3969 1.2649 48.9887
-45.7969 -81.4514 -58.8174
-8.5176 58.8055 -14.6083
1.6281 -3.6864 57.3611
62.5722 20.7737 -23.0687
37.3584 5.6046 13.5129
-60.8185 -7.8063 -17.0748
10.4599 -10.8168 43.0462
5.8792 20.7079 34.6274
-26.2578 -88.3177 -57.1217
-24.7250 -12.8117 26.4144
31.0327 -19.1351 15.2262
45.3080 -65.3161 -40.6899
5.9094 2.1210 54.4393
26.4179 -6.9019 27.1194
-13.8262 -5.4977 43.2643
-42.0078 -13.5987 5.2263
-49.0652 -9.4076 -2.3163
18.9518 54.0608 -11.8372
-54.6310 12.1041 -10.1082
-24.6794 -49.8925 -9.7273
52.7439 56.2140 -37.5608
-5.8480 -78.6594 -39.8900
-49.0921 35.5459 -16.1553
65.3230 -33.0073 -32.4994
-24.6535 40.1024 1.4318
79.4894 23.4138 -45.0737
-83.7666 0.2895 -46.2445
3.7050 5.6243 53.8464
86.9167 -4.6011 -50.4950
-26.9565 61.6633 -24.8455
4.8354 -3.8764 54.5448
-8.2017 -3.3064 51.1072
-20.3928 6.4643 34.8008
15.6491 46.5301 -1.1887
26.8056 69.9935 -34.7892
52.9108 20.2366 -11.0085
94.0885 8.5967 -60.1647
-59.2940 -64.8565 -51.5830
-4.7690 -6.7946 51.8113
-0.2905 21.1639 35.0956
-28.0498 0.7237 26.1390
-0.3945 -3.5596 -62.5973
2.3163 47.9008 -62.5973
29.4643 76.9286 -62.5973
49.9654 -68.6507 -62.5973
28.6996 -29.3260 -62.5973
-24.2793 47.8056 -62.5973
17.8553 -24.8085 -62.5973
15.1237 14.0303 -62.5973
0.5331 -61.2540 -62.5973
-22.5273 -1.5239 -62.5973
1.6725 59.1693 -62.5973
-55.0314 0.5917 -62.5973
-21.2572 14.4850 -62.5973
-76.7821 13.0841 -62.5973
35.6253 5.4714 -62.5973
-5.9651 -9.6619 -62.5973
-8.2011 9.5682 -62.5973
-26.2678 -86.8276 -62.5973
65.8989 67.6802 -62.5973
-30.0806 38.7625 -62.5973
17.9880 -62.3808 -62.5973
-47.2169 -63.8378 -62.5973
72.1457 4.8098 -62.5973
-54.6036 -53.7002 -62.5973
-76.6981 -46.2219 -62.5973
4.3191 -1.6019 -62.5973
-55.3302 77.9841 -62.5973
-42.9648 23.5375 -62.5973
53.7590 -10.7386 -62.5973
38.3607 -18.3480 -62.5973
-44.5038 12.4405 -62.5973
33.9491 -78.1942 -62.5973
-31.7855 -83.9824 -62.5973
-68.6889 -36.3809 -62.5973
54.8729 66.9173 -62.5973
-0.0823 -0.0097 -62.5973
86.1754 -2.0732 -62.5973
-83.7860 15.8530 -62.5973
-24.3814 -30.5414 -62.5973
-89.0629 -34.5532 -62.5973
16.4632 0.0690 -62.5973
-28.6885 45.2668 -62.5973
44.4630 -67.2873 -62.5973
50.5794 -77.2926 -62.5973
-40.1035 16.9749 -62.5973
-10.7492 -21.4318 -62.5973
-0.3686 -46.3321 -62.5973
-4.8537 7.4552 -62.5973
-30.9411 31.6956 -62.5973
73.0139 20.7045 -62.5973
8.2750 6.6445 -62.5973
-27.4351 -14.2238 -62.5973
-66.0636 -54.4858 -62.5973
-5.4205 -70.2069 -62.5973
-5.5833 -93.2368 -62.5973
-49.4489 -40.7321 -62.5973
-9.3577 33.7337 -62.5973
26.5561 -47.3489 -62.5973
-12.5622 -37.0481 -62.5973
-29.6637 -9.7949 -62.5973
65.0552 -4.1438 -62.5973
63.4215 59.7511 -62.5973
33.1943 -27.1259 -62.5973
-11.1816 27.7040 -62.5973
6.4933 -3.9482 -62.5973
51.2551 18.6938 -62.5973
-39.9563 -13.5472 -62.5973
53.2841 -1.1727 -62.5973
-40.1518 16.3712 -62.5973
6.4878 52.8844 -62.5973
69.3907 -12.2700 -62.5973
-72.7795 -8.4906 -62.5973
-2.2886 -5.7221 -62.5973
42.7702 46.0167 -62.5973
-69.2689 28.6174 -62.5973
14.3816 -9.8758 -62.5973
-28.8622 -4.6611 -62.5973
-76.4396 -5.7508 -62.5973
12.2770 48.2083 -62.5973
-86.8099 15.4502 -62.5973
-27.2270 12.1790 -62.5973
-65.2279 -26.8707 -62.5973
-8.6680 0.9385 -62.5973
1.7193 2.3346 -62.5973
40.2097 11.5149 -62.5973
30.1754 29.3050 -62.5973
29.9865 81.9609 -62.5973
-67.0069 -59.3066 -62.5973
-81.1814 -39.1365 -62.5973
54.6200 17.9366 -62.5973
52.4319 63.9191 -62.5973
39.2867 2.7938 -62.5973
29.1869 65.4198 -62.5973
3.8301 1.6759 -62.5973
40.6833 -1.9895 -62.5973
29.4920 -89.4320 -62.5973
-54.1588 -76.9162 -62.5973
-17.1994 -20.3862 -62.5973
2.1513 -3.7705 -62.5973
46.2299 -69.9526 -62.5973
-26.7641 -13.6061 -62.5973
18.8189 -73.3284 -62.5973
43.0626 -46.0462 -62.5973
34.2261 17.9350 -62.5973
-56.8986 70.5513 -62.5973
-2.1727 -13.5661 -62.5973
-55.1599 -9.2675 -62.5973
38.1712 4.9241 -62.5973
-91.8467 7.9480 -62.5973
-20.2098 -69.4865 -62.5973
50.3597 36.2859 -62.5973
-19.8050 39.1179 -62.5973
-38.6636 -9.3820 -62.5973
-25.9362 44.4888 -62.5973
48.4975 -53.9140 -62.5973
20.0996 4.5117 -62.5973
-44.8993 19.3308 -62.5973
-1.3119 5.0571 -62.5973
-24.5975 -25.8976 -62.5973
4.2812 6.2850 -62.5973
2.9263 -29.3500 -62.5973
-17.2626 5.5997 -62.5973
21.2639 -17.5564 -62.5973
-10.6855 -4.6574 -62.5973
-59.9137 -8.0936 -62.5973
57.3126 58.9311 -62.5973
4.0214 9.2156 -62.5973
21.4759 10.2054 -62.5973
-55.8258 -52.2372 -62.5973
-21.8644 -18.3507 -62.5973
-19.3855 -93.0622 -62.5973
-2.1460 -39.9337 -62.5973
37.0165 55.2808 -62.5973
1.1834 14.2403 -62.5973
-62.0131 9.3839 -62.5973
3.8780 29.2669 -62.5973
0.4904 73.2894 -62.5973
49.4031 29.8551 -62.5973
-3.9159 3.9004 -62.5973
24.1295 34.5099 -62.5973
-73.3092 32.5177 -62.5973
3.3803 10.4974 -62.5973
-66.5351 52.6168 -62.5973
38.5082 30.1663 -62.5973
52.8266 -63.4895 -62.5973
86.7524 -7.1608 -62.5973
-84.6883 19.5697 -62.5973
7.0029 1.9610 -62.5973
-28.3787 -39.3891 -62.5973
9.4782 -4.7974 -62.5973
4.4035 1.9506 -62.5973
-15.6689 -64.7704 -62.5973
32.4740 65.6326 -62.5973
-46.4638 60.9379 -62.5973
54.3795 -78.7462 -62.5973
6.2913 84.0489 -62.5973
17.4089 84.1727 -62.5973
0.7239 -79.0391 -62.5973
-4.2938 -7.1522 -62.5973
8.2062 -1.5923 -62.5973
4.3819 18.5833 -62.5973
-1.8370 -33.1859 -62.5973
0.7982 -2.2403 -62.5973
-2.5530 -2.9611 -62.5973
1.4070 0.3434 -62.5973
2.0793 17.1053 -62.5973
-41.7962 -77.3400 -62.5973
21.2638 -51.4721 -62.5973
79.0219 36.9154 -62.5973
11.2848 10.3456 -62.5973
6.2481 -8.8555 -62.5973
-31.6896 75.9801 -62.5973
93.8429 11.8854 -62.5973
-2.5037 -4.7026 -62.5973
-87.8002 -26.5659 -62.5973
3.8321 -2.2134 -62.5973
17.0909 -83.7870 -62.5973
50.5341 79.1404 -62.5973
10.2608 21.1700 -62.5973
-10.4993 -91.7270 -62.5973
-63.3896 -13.3160 -62.5973
-15.5402 -43.9282 -62.5973
-5.2100 -0.9208 -62.5973
31.7952 89.3490 -62.5973
-22.7729 -5.7116 -62.5973
-2.3062 -4.3716 -62.5973
80.3857 7.6649 -62.5973
58.4934 51.2284 -62.5973
1.4456 -0.9081 -62.5973
-5.4192 -52.6400 -62.5973
48.4522 -81.1269 -62.5973
53.0096 -0.7766 -62.5973
-16.5783 -3.3369 -62.5973
-4.5239 0.4532 -62.5973
29.6741 -37.9318 -62.5973
86.1785 -22.1686 -62.5973
35.6801 44.3720 -62.5973
-48.6993 49.6352 -62.5973
-13.2474 -91.7750 -62.5973
48.3070 59.4793 -62.5973
-3.0275 4.0242 -62.5973
0.3393 -9.2596 -62.5973
79.8649 -44.4636 -62.5973
-32.2272 81.2439 -62.5973
-3.6813 -31.5490 -62.5973
-4.0431 -12.6696 -62.5973
70.4695 48.4271 -62.5973
-41.9566 61.5155 -62.5973
5.4457 -44.4058 -62.5973
-0.7090 6.0623 -62.5973
26.2262 4.4112 -62.5973
1.7230 41.5686 -62.5973
34.9444 -63.4582 -62.5973
-13.0959 0.3173 -62.5973
34.2864 41.5064 -62.5973
37.9350 41.1067 -62.5973
-0.1169 -0.2279 -62.5973
-78.5240 47.0393 -62.5973
53.8483 -16.9087 -62.5973
-9.8930 -54.9159 -62.5973
-8.1781 -0.2851 -62.5973
-55.5049 -30.8825 -62.5973
22.9803 54.6926 -62.5973
-18.4274 24.8807 -62.5973
-80.7985 -36.3924 -62.5973
-6.7722 -22.2597 -62.5973
-44.8646 2.1379 -62.5973
7.1858 91.2513 -62.5973
53.4633 76.3918 -62.5973
34.3234 -51.3063 -62.5973
54.3410 48.2805 -62.5973
-23.9041 86.2334 -62.5973
22.6413 83.4237 -62.5973
90.2407 -18.8591 -62.5973
-5.4928 75.9861 -62.5973
8.4965 -61.2544 -62.5973
-75.0369 -3.2152 -62.5973
-4.9785 6.4403 -62.5973
-57.4939 74.2900 -62.5973
67.1822 -45.9992 -62.5973
-2.0549 14.2105 -62.5973
-55.6282 -43.2224 -62.5973
72.9348 -51.9445 -62.5973
-7.1458 87.5201 -62.5973
-2.5888 -9.1951 -62.5973
-15.7923 13.6376 -62.5973
5.8956 11.4621 -62.5973
73.1379 -39.4074 -62.5973
38.6856 62.7872 -62.5973
-19.0030 -38.9328 -62.5973
17.7703 -41.2933 -62.5973
-2.2638 -22.8979 -62.5973
8.7271 -0.0555 -62.5973
-29.5507 -76.3326 -62.5973
4.2205 -82.5737 -62.5973
3.1633 -4.8908 -62.5973
