ply
format ascii 1.0
element vertex 1024
property float x
property float y
property float z
end_header
41.8158 -16.7694 -40.3538
24.0405 -1.2945 19.5378
3.0980 -5.3132 70.7138
0.7642 21.2219 27.6452
33.1357 -17.6853 -18.9609
2.4377 4.5457 73.5468
-4.2354 -5.6948 68.0109
-6.6490 -11.8743 49.4191
38.0338 33.7409 -56.8845
-47.8789 25.7272 -66.9063
-32.8609 -50.6007 -83.9832
-42.1101 -39.6490 -76.8569
-11.5335 -8.5366 47.3064
18.4701 7.3383 31.5313
14.5647 -7.5415 41.4471
23.1140 14.2547 10.7422
46.1732 2.5852 -43.7584
0.2820 -1.9802 82.5627
14.0141 38.5617 -28.8659
-9.1715 -35.1340 -15.3964
-11.1627 26.1685 7.0482
13.2606 -0.0491 50.4137
17.1275 10.4867 30.9363
17.5969 -6.3165 34.8953
-25.0853 -40.0134 -46.5593
-47.0942 -28.9577 -69.5660
-8.6512 26.7465 8.0162
-13.6124 -2.8014 48.5952
-10.9612 42.7626 -37.7617
-0.6213 1.8035 82.8272
-47.3061 4.7224 -47.4577
8.5362 -56.4756 -74.7971
40.8165 -18.3056 -39.4414
-8.2072 33.4187 -9.9727
-43.6029 33.8884 -69.3907
-8.2812 -28.4215 3.7550
19.5746 40.8601 -41.0786
43.3396 -1.3948 -35.5262
46.0338 -5.9718 -44.2553
-5.7776 -18.9370 31.7475
-1.3047 3.7552 76.9235
-39.9346 -15.4051 -33.9297
5.2702 -3.9220 69.5174
-21.2430 17.8740 9.0116
-5.8495 10.6270 53.6404
-28.8748 -36.4696 -44.5322
-34.1930 -14.8977 -18.2116
8.2180 27.0221 7.6359
-11.0836 -18.0540 27.7905
1.2497 0.4206 84.5089
-23.7806 -31.5726 -24.5755
-11.5224 54.5169 -70.8118
-17.7365 -0.9617 37.5610
23.8921 -17.0990 4.3917
-12.6370 -4.5595 49.9179
9.2112 -54.1576 -68.5682
6.4889 -13.1536 46.3985
6.2710 19.8214 28.9183
-15.1839 -10.0347 36.3116
4.2941 9.9849 57.2419
-0.0546 -14.0510 48.1571
5.2717 4.0463 69.3002
-24.2266 4.9255 17.6909
-13.1802 2.6050 49.9156
-41.0901 -42.2730 -80.0373
-7.5492 1.5233 66.2860
-48.2839 17.2650 -58.1257
-22.6663 36.0226 -33.2376
-2.5049 7.4862 65.7353
13.6645 9.1826 41.2704
38.5948 0.8369 -21.9415
-32.2731 -28.7933 -35.2078
55.0281 6.9392 -70.0772
23.5304 -21.3540 -2.4460
-9.1523 26.6141 7.9221
3.7736 -21.9727 24.6225
-23.3860 -41.8354 -48.5625
-11.2887 -8.9059 47.2216
-11.4499 6.8626 50.1618
-5.2536 -23.3263 20.0080
-5.5532 25.2179 14.5509
-4.9614 -5.2839 67.5799
35.8023 -11.0340 -18.6871
13.2415 0.1424 50.4663
33.5198 10.4890 -12.0023
-8.8732 -26.8385 7.5697
21.6502 -56.0570 -83.2922
-53.6677 20.0370 -75.2797
-22.0470 19.8565 3.5631
9.4737 15.8553 35.5411
20.9846 -23.5491 -1.7805
-31.0955 2.4573 -0.7816
25.5240 19.8299 -4.0060
9.3085 60.7914 -87.3102
-25.8220 -20.3721 -5.6303
4.4207 -43.7877 -37.3769
-0.1436 -14.2575 47.5659
-18.1000 27.8678 -6.5985
43.4593 33.6871 -68.7147
1.3611 55.2420 -69.4916
-46.8028 18.7814 -55.7068
-4.5598 -1.0984 74.8826
1.8625 -9.3660 61.0097
-39.8546 25.8846 -47.4046
-23.8497 35.4990 -33.8262
-1.3326 2.4487 80.3141
-1.2760 54.1328 -66.3198
17.6684 -53.7234 -73.1900
-1.3975 -9.5451 60.7313
-25.4592 -43.2446 -54.9982
-1.0392 4.5262 75.0148
0.3657 1.5810 83.6403
-39.2627 29.5002 -51.9375
17.1832 37.0942 -28.4422
-39.6294 6.4677 -26.3662
-16.7092 -30.3584 -10.6616
12.7478 53.9748 -70.0655
-37.7288 -41.0792 -70.9681
-55.1967 6.2348 -70.3165
-7.1991 3.0982 65.8972
31.9737 -23.0786 -24.3079
-1.0003 5.9692 70.9935
9.7586 38.1821 -24.2412
-18.3326 -9.7351 29.0113
4.7754 34.1800 -10.2589
-28.3149 -38.3246 -47.7681
-8.3519 -12.2590 45.9230
-48.5387 -14.5962 -56.4358
-42.6807 -40.7963 -80.2931
7.8230 -13.5987 43.4829
-54.6293 -10.1872 -70.3829
-0.0228 -4.6647 74.9555
-31.1589 28.2509 -31.8069
0.5358 2.4757 81.0416
-9.0636 -41.4521 -32.8691
-3.4348 1.1199 77.9588
4.0762 -9.7232 58.1728
50.8806 -33.9588 -86.3743
-19.0603 -13.7913 21.1049
-36.8255 -3.8377 -17.4337
2.8059 -54.3660 -67.1493
-2.5135 13.1919 49.9327
2.3510 -13.6132 48.8322
-42.7513 0.7647 -33.8019
3.2775 -7.5380 64.8058
16.5644 23.3888 6.4473
51.1271 27.1542 -77.0055
-6.1236 -13.2942 46.4851
15.2484 -46.8702 -52.4456
17.9196 -41.1330 -39.8223
7.1479 -1.0033 67.6660
6.1118 -2.8783 68.9860
3.9952 1.4920 76.0975
-35.2106 11.7295 -17.6847
12.7504 -33.5217 -14.1212
-4.2306 -21.4313 25.9057
27.4149 2.4431 9.6930
-39.3740 10.3039 -27.9257
-7.1254 2.0033 67.1414
-11.8133 34.2947 -15.2847
-23.9694 -12.5686 11.0028
32.5879 -33.9844 -46.1525
-18.8360 18.9898 11.9098
-41.0223 21.1576 -43.5060
22.5290 -5.7818 21.8683
45.5163 4.6676 -42.3581
-28.2168 1.4322 7.6101
-55.6545 15.0872 -76.3562
-54.7840 7.1816 -69.4743
11.5015 -18.2474 26.6912
13.3084 2.1737 49.7742
45.9030 -38.3720 -82.5393
-11.2319 25.9351 7.5826
-22.6662 -5.9228 21.3882
-18.0344 29.9082 -11.4376
6.2233 -1.2867 70.1298
-6.7609 -1.6342 68.4149
21.3701 0.3484 27.2531
17.1556 13.3853 26.1492
-7.6880 -31.3293 -3.8262
25.5270 -21.4814 -6.9782
28.2741 -8.7825 3.7456
-52.2034 -23.8593 -75.5973
45.9811 -34.3117 -75.5249
-37.5804 -19.4914 -32.5922
-2.1839 2.8499 78.0225
-1.4952 -9.9160 59.6428
-8.7463 12.3704 45.0197
-50.5840 5.1109 -56.8803
21.3824 2.4127 26.8388
5.8918 -23.7711 18.3528
-46.0368 -11.6811 -47.3275
-38.1980 27.2425 -45.6766
-2.3063 0.1007 81.6826
-12.3133 -45.7234 -46.9187
7.4471 -4.9081 62.8092
2.3772 -0.4228 81.3798
-25.9327 27.5273 -19.6999
4.3804 14.8578 44.0490
0.1667 0.4333 86.9478
33.0846 29.4424 -38.1703
5.3700 -3.4736 70.0140
-7.8126 2.8556 64.5248
58.3220 8.8546 -80.1452
-10.5076 -5.0712 54.9630
39.7545 -45.8394 -84.9600
17.2373 -7.5057 34.5973
-0.8245 -17.4337 38.4441
2.0856 3.0913 77.6269
-48.2060 -16.3014 -57.0118
0.4571 -6.0272 71.0161
6.9550 -4.6717 64.3530
9.1688 15.4166 37.0627
22.8583 10.2028 16.8068
-38.9351 3.0760 -23.2336
28.7925 5.1430 4.7692
18.4041 -24.6741 0.3906
46.9915 -8.0523 -47.8437
54.7698 4.0624 -68.5251
4.4967 5.8873 67.1230
7.3308 -39.6000 -26.7063
-15.1318 -7.9966 39.4102
0.2495 0.3964 86.9361
8.4568 -28.3107 3.9165
-24.1876 -55.7791 -85.3049
1.5288 12.5962 52.0470
18.1095 46.7632 -54.8981
-55.8596 -15.5652 -77.2825
-9.3959 -24.9181 12.2423
27.0169 29.6806 -26.3141
-2.6525 2.2573 78.3294
8.6990 -15.1889 38.3002
8.0117 60.0805 -84.7760
40.0338 -18.9902 -38.2310
15.3867 -10.4364 35.1922
-11.4360 -4.9857 52.6553
8.2864 -14.4201 40.7904
-26.4177 -53.3692 -81.7423
18.4057 45.0797 -50.7444
-15.7210 4.6801 41.4429
0.6658 0.1893 86.2972
9.7875 17.9704 29.8513
0.5012 -12.4408 52.7258
24.3312 -10.9926 12.0468
-15.6571 19.6834 16.4663
-1.3940 -0.4131 84.1224
-7.7698 17.0312 34.8277
-42.3134 -33.6531 -66.0814
2.2488 10.6953 57.0703
47.8939 -21.9798 -62.1765
-0.0644 -1.7916 83.1551
-16.9823 2.9749 39.0504
7.3783 3.4869 64.9742
-21.6158 -4.6999 25.1179
-49.0093 -33.8678 -81.8087
-8.7816 -3.8309 60.9200
21.9603 -22.7969 -2.0985
-0.0558 0.4239 87.0527
51.4587 28.1872 -79.2391
-12.9203 -26.0444 5.2691
-0.2411 -2.2126 81.9188
35.1494 -27.1442 -38.5194
-4.5705 3.5003 71.8374
33.2415 8.5753 -9.7387
9.9980 -7.1214 53.2282
41.0235 -27.5940 -52.8800
20.3669 -24.4134 -2.4976
-2.2762 -7.8852 64.8417
-28.4195 50.9585 -78.3102
14.6376 -0.7667 46.4254
-6.2222 -47.0328 -47.1763
7.0038 -29.3095 2.2380
12.3834 22.3496 15.3247
-45.2005 14.4334 -47.1944
-2.7809 -7.1015 66.4992
-28.1058 35.2050 -40.3397
56.8277 -9.7280 -76.3309
-52.4640 30.2133 -84.5747
19.4624 21.1615 6.1899
2.2359 -19.7475 31.5336
3.9624 4.6246 70.8865
30.3116 22.2557 -19.0887
42.6051 -18.2000 -43.9986
3.4628 2.6713 75.7872
-6.4486 55.7357 -71.9146
-23.0636 -47.3166 -62.0101
9.2416 29.1236 1.0390
2.3111 34.1820 -9.5398
17.9205 18.0867 15.5812
0.7940 -3.2468 78.7305
21.9464 -4.6076 24.2499
21.8053 10.2786 19.4490
4.6289 -33.9522 -9.5576
-4.5653 5.1014 68.7283
21.4521 23.0439 -1.6127
-10.3882 -56.5250 -75.8093
5.3434 2.1584 71.8203
14.9785 -14.2590 29.2306
7.1833 -52.7075 -63.5987
-28.1963 11.5177 1.3153
-13.6846 -38.7150 -28.9606
30.5262 -31.7487 -37.4716
31.0464 25.1026 -25.7139
-7.0719 1.9820 67.3049
-0.9030 -23.8006 20.2734
-17.7146 -10.8949 28.8980
-28.2410 3.1865 7.1332
11.8590 47.9440 -52.7329
36.2588 -41.9103 -69.9467
-23.8205 45.6396 -58.7085
-0.6525 -5.5986 72.1809
-44.6495 -22.9050 -54.9968
-53.3089 3.5213 -64.2563
24.6076 -23.6752 -9.2183
5.6188 -8.1747 59.9530
56.6363 -12.8994 -77.5654
-11.5052 33.8672 -13.8452
-23.5414 28.9806 -18.3253
37.0314 -39.4642 -66.2342
-51.4911 -27.9624 -79.0130
-41.5814 -40.1576 -76.7667
-32.6119 -26.0404 -30.8749
-22.0833 36.6697 -33.9382
-1.7088 0.7162 82.9836
-0.5121 -0.0858 86.7908
-8.9023 -39.2580 -26.6547
-6.7607 5.4562 63.4695
29.0180 -52.4656 -82.9013
-10.2822 -12.9145 41.1433
-50.2689 19.0741 -65.2298
51.9586 28.7311 -81.2383
-47.3885 15.8241 -54.3654
9.1327 11.7594 45.7642
-9.7563 36.4123 -19.3516
10.4664 -7.9692 50.7156
25.2734 -17.4363 0.6113
52.0834 25.7679 -77.6291
-27.1370 -12.1304 3.4086
17.0340 1.4243 39.4712
-13.5508 -3.1034 48.5838
-20.7338 5.0726 27.3321
9.8077 29.7310 -1.1086
31.5076 0.6284 -1.6994
-55.8616 -20.3368 -81.4528
-20.8304 -9.2719 23.1768
-9.1118 -21.8848 20.5927
51.1552 -28.8288 -79.3714
36.9944 -43.4788 -74.7128
-53.5340 -6.1932 -65.5867
-55.1429 17.7124 -77.0830
4.4878 49.8212 -54.5430
-0.1341 -43.6723 -36.4126
-15.8241 -0.0807 43.0945
-44.3165 32.8075 -69.1489
-13.6620 1.3301 49.0836
4.3266 1.0842 75.5390
34.0192 -13.2448 -15.9536
-2.2211 -1.0979 81.1997
30.5038 -41.5516 -58.8922
1.4221 -7.7609 65.7468
16.6339 -0.3581 40.7723
-8.1093 5.2178 60.7425
-35.0457 -26.7156 -37.5395
-6.0343 -5.3969 65.1602
-12.1206 9.3051 44.6472
-8.2296 -24.7246 13.8766
11.5168 41.9103 -35.8169
0.7911 -0.8470 84.9643
5.5935 -3.2231 69.8422
-0.5497 12.1279 53.6123
-4.4423 39.5338 -25.3067
6.3530 -39.2600 -25.2728
-52.9227 -5.6024 -63.6663
-10.6534 22.6586 16.7891
-24.5000 -4.5266 17.1414
-53.7601 9.6520 -67.6669
0.7857 -53.6397 -64.8856
33.4376 -41.3674 -63.5894
-34.9669 7.8548 -14.0455
12.0951 -28.2082 0.6474
-31.4445 2.1883 -1.7185
35.6323 36.4503 -57.2567
-35.4155 14.4160 -20.8944
35.9490 -38.8225 -62.7871
-44.4345 10.4151 -42.0264
32.6082 -7.9954 -7.5814
29.3392 -25.0831 -21.9300
-16.7717 18.4932 16.9958
-38.1677 37.4461 -64.3832
7.2998 -2.9022 65.8455
30.0212 -34.2287 -41.7124
5.9340 6.7550 62.6031
-31.7550 -6.4977 -4.2663
17.2051 -47.2259 -55.2267
9.1329 35.6599 -16.8224
-16.2345 -54.1982 -73.2563
-21.9869 45.5270 -56.0713
-15.1853 -58.9002 -85.3867
12.7097 -47.5564 -52.2664
16.0131 24.2857 5.2215
7.8041 -31.3476 -3.9565
28.1588 -40.6764 -52.9704
32.4681 34.5902 -47.1718
-28.7868 -5.5661 4.5642
-31.7998 52.8376 -87.7922
2.2530 -2.7749 78.0685
1.1891 -18.0228 36.7061
20.9993 1.3421 28.1977
-18.2020 -5.3092 34.1407
-36.3071 15.6435 -24.5965
-9.8947 -11.0278 45.9731
-25.2465 38.5107 -43.1960
10.3944 -43.1106 -38.3354
-25.2178 -33.8486 -32.2364
5.5647 -0.8001 72.2227
-13.2546 -7.7213 44.4787
-3.0244 53.4203 -64.4870
-5.6059 -3.2140 69.8244
-3.4575 2.8071 75.5585
-5.7947 -2.1035 70.6731
-57.3620 15.4170 -81.3082
-17.5796 27.8248 -5.6938
-4.8055 2.6289 72.6348
-20.8838 29.7184 -15.4279
-31.3909 9.4540 -5.3245
-2.4357 2.3337 78.6427
-19.1589 -1.0621 33.4903
-10.0191 7.5044 52.5344
18.8969 30.5319 -14.2410
0.7066 -18.2881 36.0215
20.6522 35.4379 -28.8297
10.6321 -18.3605 27.6991
-41.9063 4.8280 -32.1613
-37.6787 -33.3308 -55.3495
39.5296 -37.2585 -66.8145
7.2638 12.9748 45.8200
-4.2339 -2.6744 73.9759
22.1275 39.5176 -41.0331
54.6220 6.6850 -68.8370
-33.2230 -24.3061 -29.2535
-3.1977 -24.3694 18.1018
15.6608 -14.6590 27.0303
-2.7443 -9.4240 60.2500
-15.4391 47.0219 -53.0264
1.1196 20.6488 29.2339
17.8956 -41.0985 -39.7048
-11.8613 -54.5085 -70.9913
17.5466 -3.3581 37.2684
49.9154 -11.0544 -57.6890
52.3112 1.4801 -61.1360
40.3671 -8.8356 -29.7040
-3.8103 -46.5566 -45.0912
42.2859 -30.3579 -60.3440
-0.5299 -11.3715 55.7722
4.0276 3.3882 73.2466
-4.9860 48.2138 -50.1122
-21.4757 25.7085 -7.3649
-24.0021 9.7146 14.3468
-21.6004 -49.7186 -66.4919
-18.5552 2.6028 34.7793
-46.5434 4.6523 -45.2711
21.8822 -12.0322 16.9776
-33.8595 13.7638 -16.0780
-4.9943 43.0860 -35.5616
-1.4548 -35.7381 -13.8440
-22.3210 36.1503 -33.0255
29.1410 19.9168 -12.5002
-7.8901 -1.1685 65.5012
-16.3877 -30.3397 -10.1754
-4.3934 17.0052 38.1290
-14.6793 21.1149 14.8534
-1.2140 0.0075 84.8073
-0.7297 0.8046 85.1722
12.2310 32.7943 -11.6550
-28.3652 -16.6348 -5.6086
3.7156 5.2527 69.9040
-0.3417 0.9440 85.4072
-3.8081 -2.9573 74.5078
49.4223 -5.0187 -53.5539
-6.3860 34.7417 -12.5767
18.2377 -44.7742 -49.7556
0.2986 2.0124 82.4650
-7.2713 45.7961 -44.1131
-18.6198 -26.6429 -4.5276
39.8238 -43.9129 -80.9760
-15.3268 -7.5729 39.4650
48.4895 26.1567 -69.0226
-18.1926 -27.3676 -5.5505
-17.0503 22.6310 7.3763
-5.9816 2.1752 70.1017
9.0745 -1.7135 61.9077
-37.6185 48.3526 -86.6329
0.7289 21.3832 27.1885
11.3482 41.5304 -34.6437
-23.5364 -34.0612 -29.9302
-40.7497 -9.1446 -30.9614
22.1786 25.8147 -8.8933
-12.2261 39.5451 -29.9014
29.9034 41.9639 -58.8414
-20.0750 13.5979 19.0482
38.9197 -15.9606 -31.8236
13.7561 55.4938 -74.9576
35.3470 -25.0854 -35.4741
29.2985 2.8854 4.2208
3.0396 2.4108 77.1971
34.1507 8.8169 -12.4247
15.7030 35.7324 -23.1599
14.8317 -15.5017 27.0214
24.5871 33.7098 -30.8490
-18.2600 3.7984 35.0247
-61.3819 0.2098 -86.9743
14.1607 -5.6767 44.7166
-4.0083 2.0453 75.4259
-23.0130 9.2170 17.4969
19.0037 -55.2070 -78.4206
-24.2707 -26.0075 -13.2889
-0.9170 -0.2630 85.5498
4.9083 -25.9857 12.7719
11.7788 -10.1366 43.9064
26.4178 15.8185 0.3627
-4.0869 25.7827 13.7441
4.6868 -34.3841 -10.8018
-31.7008 20.5011 -19.5101
-15.6947 3.6283 42.2829
-29.7726 8.9318 -0.4707
-24.5963 48.2336 -66.3059
40.7785 -5.3797 -29.1587
6.9442 -40.9477 -30.3023
47.7947 27.9273 -69.7686
34.2332 19.4088 -24.0785
7.3242 41.7448 -32.7295
-11.7169 -47.0998 -50.2960
-57.4418 12.4194 -79.5135
-0.6041 -0.2026 86.4542
-17.8581 40.5342 -38.1861
33.9726 26.9608 -35.5511
26.8397 -1.0429 11.5877
-0.9202 -38.8160 -22.5783
8.7067 -23.0755 17.8588
-9.7161 3.2146 59.0549
20.0705 40.1052 -39.7657
31.4571 -9.8512 -5.8381
25.8162 26.9565 -18.2892
7.1675 -3.5770 65.4032
-0.6718 -16.2203 41.9243
-10.4826 -0.7213 58.2744
-3.9268 12.6735 50.3933
0.5788 4.0446 76.6084
25.0868 10.6150 10.5021
21.1892 -2.5550 27.3396
-3.3641 -12.7999 50.4884
-0.1818 -6.5318 69.6176
16.7787 38.0107 -30.3505
-37.1620 -32.8312 -53.2994
-11.9784 -3.4917 52.6513
1.6437 6.9434 67.9018
-18.7730 -2.6674 34.1378
49.9519 -33.2225 -83.0021
-12.9279 4.6906 49.0097
-52.5673 -10.6247 -64.8421
-17.4481 20.2448 11.9696
-1.8881 -10.6235 57.4678
53.2880 -1.4714 -63.9230
-2.2993 10.3237 58.0767
45.9546 15.1417 -49.8663
2.8575 -1.8379 78.5734
30.6377 41.5317 -59.0730
13.9180 -50.6226 -61.6180
-9.8796 -28.9611 0.9103
-9.3697 -57.9557 -79.3399
8.6427 -11.3004 47.6561
38.7344 11.3152 -26.9362
29.8847 15.5079 -7.8519
5.3475 -6.3602 64.5496
34.1221 -1.9213 -9.3003
-27.6651 39.0293 -48.3101
-40.9011 20.6430 -42.5301
-6.4155 5.1768 64.7375
30.4055 25.6826 -25.3584
-35.5535 -37.4606 -59.1781
-24.2038 -25.7101 -12.5389
20.6429 21.6375 2.8939
4.3702 -2.4590 73.9567
22.3703 -21.0165 0.6413
-15.1431 -1.8552 44.7162
21.2305 -45.3367 -54.6532
3.0974 -23.0617 21.8405
-29.2614 24.3290 -20.3723
-4.0948 10.4175 56.3161
7.9323 12.6870 45.5547
16.2951 32.8017 -16.2952
16.6536 -26.0296 0.0499
2.3903 20.6404 28.9508
31.1825 -17.7835 -14.2136
-0.8673 25.1531 16.4181
-40.9127 -21.4150 -43.5670
28.9847 4.6843 4.4478
2.6765 -6.0046 69.5040
29.1627 -6.8964 2.7170
52.2961 -25.7624 -78.1669
7.8319 -7.0395 58.2084
13.7711 -13.1241 33.9615
-10.8545 1.8583 56.8326
3.9090 -11.7183 53.0049
-30.7409 -31.7407 -37.8808
41.4673 10.0679 -33.5561
14.1599 6.4231 43.8818
-23.9604 18.2316 2.3143
1.0197 0.4558 85.0844
50.1174 -29.0143 -77.0612
5.8355 41.1268 -30.3207
38.6894 23.8788 -41.5300
59.1192 -3.4579 -80.8017
-32.1770 -5.5858 -4.9666
-18.5878 -9.3173 28.9110
18.5745 -15.0822 19.9623
-49.4859 -25.0773 -70.1153
-37.4858 5.9702 -20.0981
19.0795 -26.0663 -3.9523
42.7043 -29.2038 -59.4312
35.8899 -16.9908 -25.0955
-19.5563 7.1222 28.8524
3.7436 15.6385 42.3637
17.7752 42.0501 -42.0660
-19.8823 17.9762 11.7476
40.1756 -25.7434 -47.9564
-40.5710 6.4862 -29.0287
-5.3168 16.0642 39.9630
-43.4374 3.4750 -36.1376
27.6617 -32.0602 -32.6201
22.3078 -25.2193 -7.8544
-50.0212 12.7272 -59.0884
4.8271 42.0570 -32.5884
-20.0213 -51.8829 -70.4999
6.0314 -1.3196 70.6462
-14.8592 1.2489 45.7006
52.4324 -8.6983 -63.4682
-17.4169 -28.0425 -5.9738
-5.5716 20.9855 26.2835
4.5206 -6.4484 65.7896
7.2407 25.9108 11.4635
-34.7560 -6.8182 -12.8471
11.4803 3.5967 53.9259
-10.4297 11.8086 43.2922
-10.1149 -22.5850 17.6214
0.4286 -0.1116 87.0089
-21.4607 25.0688 -5.9427
1.2038 13.2529 50.2804
-54.1137 -25.7167 -82.7812
10.5600 18.3607 27.8015
-7.7940 36.8183 -19.1730
44.1329 -11.6932 -42.0746
2.4865 -45.2249 -41.0397
3.8421 10.4944 56.3667
34.5749 -0.4255 -10.4462
-45.4767 5.9348 -42.6645
12.6675 -15.3161 31.5274
-24.2876 -32.2001 -26.8776
-53.6669 -5.0411 -65.6213
-3.2563 -3.8869 73.7966
30.3113 -9.0889 -2.0725
-10.8559 10.1960 45.7528
-51.9530 -31.2498 -84.8187
-18.8706 12.1879 24.1373
2.4400 -6.4039 68.7079
-6.9369 15.5205 39.7374
25.4529 -50.5810 -73.3896
-9.8411 40.7300 -31.3579
9.3960 -17.4380 31.7202
51.7779 -29.7185 -82.1725
20.4916 -30.9763 -17.7644
14.0431 -1.2175 48.0297
-44.1493 -28.4455 -61.6711
17.0994 34.0551 -20.5227
-0.2466 12.0189 53.9520
2.2439 40.7420 -28.2220
-9.3578 14.3293 39.4117
-7.6206 -9.1423 54.2932
17.4999 -20.5325 11.2496
-22.7209 1.3539 23.2897
-12.5609 27.9516 0.7834
5.5939 -9.2517 57.4067
13.7345 -45.9688 -48.7010
-21.4533 10.8805 19.5966
-50.7065 23.2064 -70.9356
-30.1815 -51.7219 -82.6961
-33.1017 -9.3221 -9.9087
-2.0054 44.5793 -39.1303
0.3384 2.8025 80.2140
-22.9228 -25.4214 -9.4545
-33.9567 -1.2321 -8.7375
3.4264 33.6281 -8.2325
8.2054 6.9900 57.4988
-26.1443 17.7078 -1.8787
15.7766 23.9596 6.3704
23.9111 -31.9137 -25.5780
11.9378 -8.5476 46.3548
37.5071 -22.1235 -36.0506
38.8189 -44.2975 -79.8865
19.7229 8.4654 26.9963
13.4243 -14.6200 31.6060
-8.6967 14.7695 39.3391
13.1770 4.7663 48.2673
1.6366 2.0809 80.7150
35.8310 33.0716 -50.9391
24.1946 -30.0550 -21.8832
1.7211 -39.5697 -24.8058
-11.1387 47.9554 -52.2849
-57.8363 -5.9806 -77.7309
27.4221 0.2095 9.9803
14.2000 -46.0712 -49.3668
-29.0714 6.5017 3.2235
-39.5935 46.7938 -86.7304
38.1500 6.4117 -22.1731
27.3941 -9.5269 5.4681
-4.2570 -2.2015 74.5905
-11.6343 -24.6367 10.4865
11.8637 -0.3182 54.3901
14.9738 15.8265 26.0697
-13.0384 -7.6525 45.1105
7.9357 1.2818 65.3232
-16.6699 -10.3880 32.1959
-8.7116 21.5089 22.0195
-10.6602 13.2431 39.7365
4.8214 -14.3096 45.1623
-9.1029 42.6314 -36.1839
22.3909 39.7608 -42.0068
-37.6305 1.9816 -19.3113
28.8920 -37.9536 -47.9091
-2.6467 48.7000 -50.9712
3.5945 -13.9307 47.1983
-3.4781 -11.1964 54.8004
29.2115 29.4704 -30.1951
-10.3712 36.9018 -21.1638
10.2410 7.4154 52.1750
7.7574 -18.9726 29.7532
3.2978 -4.7084 71.8613
-10.9681 -25.8171 8.1891
17.2950 48.0537 -57.5362
-33.2539 -26.7436 -33.5607
-2.2169 -8.8823 62.1362
-36.5026 12.2497 -21.6539
-44.5605 18.3060 -49.2648
1.3901 6.4760 69.3629
18.8134 -10.0495 27.3779
-17.4371 41.4492 -40.1102
6.5699 15.7344 39.5925
21.1046 22.9997 -0.8467
-20.4896 -0.9930 29.7065
-0.1269 21.7815 26.0856
49.2249 -23.7697 -67.7917
2.2851 1.0698 81.0698
-3.6797 4.5334 71.6033
-23.7794 -55.1480 -83.1886
2.8948 -1.1550 79.3750
0.8479 3.4243 78.2015
3.5062 2.5069 75.9676
-38.0216 -18.4668 -32.4053
-9.9209 -3.5341 58.2055
-0.6473 3.7368 77.4459
0.0169 -14.0955 48.0303
6.9446 -17.7127 33.9553
-27.3606 -45.9131 -64.3198
14.1980 -47.7415 -53.9293
14.4456 10.7464 36.8702
-36.3017 11.1023 -20.1076
-12.5018 -50.1892 -59.3964
44.3229 -27.5101 -60.6625
-4.8166 -5.0815 -88.2733
27.4667 7.5648 -88.2733
-11.7527 -13.5421 -88.2733
15.4559 20.9325 -88.2733
-6.9541 36.4486 -88.2733
-39.3033 16.3315 -88.2733
-43.1839 39.4299 -88.2733
11.6818 1.8668 -88.2733
4.6400 -31.2051 -88.2733
35.0355 27.8116 -88.2733
-8.7773 1.5792 -88.2733
48.8783 4.6840 -88.2733
2.4734 29.4869 -88.2733
10.5485 -26.3439 -88.2733
-36.5736 31.8728 -88.2733
1.1013 13.0890 -88.2733
-9.5093 -1.4434 -88.2733
6.6597 -6.3853 -88.2733
7.4267 7.4066 -88.2733
1.1487 1.0045 -88.2733
-13.1112 -29.7861 -88.2733
-1.6813 14.9957 -88.2733
17.4136 -35.1106 -88.2733
44.5714 13.1296 -88.2733
27.6172 -49.0478 -88.2733
24.2064 44.4570 -88.2733
0.3578 2.8425 -88.2733
11.5165 -12.1257 -88.2733
19.3280 -14.6105 -88.2733
-4.1895 2.1545 -88.2733
-8.4328 15.3571 -88.2733
1.5429 -16.3580 -88.2733
-6.0039 -2.7324 -88.2733
-40.1592 39.9915 -88.2733
-21.2003 -41.2764 -88.2733
-9.2630 -5.1429 -88.2733
-13.2605 44.7674 -88.2733
-8.1122 43.1185 -88.2733
-17.2148 -5.7220 -88.2733
16.4797 -15.5561 -88.2733
29.1164 9.3228 -88.2733
-3.3744 6.7399 -88.2733
13.5070 7.3155 -88.2733
19.0507 3.7762 -88.2733
43.5166 16.3497 -88.2733
4.5364 -8.1477 -88.2733
38.8016 -29.9213 -88.2733
-1.8904 -22.2061 -88.2733
-2.4929 34.1507 -88.2733
-3.5222 -32.6602 -88.2733
5.2310 -61.3825 -88.2733
3.7529 -5.8131 -88.2733
0.7410 -25.7968 -88.2733
-45.8760 -15.3476 -88.2733
-42.7278 -2.8799 -88.2733
32.8460 -5.7631 -88.2733
-24.4595 -29.3843 -88.2733
-24.9389 -7.6705 -88.2733
-8.1885 45.8252 -88.2733
-22.6115 9.0937 -88.2733
22.2509 55.8840 -88.2733
8.0147 -1.0030 -88.2733
15.0540 -5.5886 -88.2733
32.6364 -20.9722 -88.2733
16.8065 7.7887 -88.2733
9.1757 -7.4341 -88.2733
2.5582 0.2854 -88.2733
48.9504 -28.2989 -88.2733
7.6765 -30.0463 -88.2733
-4.9269 -42.3885 -88.2733
1.6568 -1.0929 -88.2733
-30.7055 -27.7591 -88.2733
27.3501 38.6826 -88.2733
12.9561 -51.5526 -88.2733
3.5552 47.6209 -88.2733
-22.2638 -16.0158 -88.2733
27.1329 18.2192 -88.2733
5.8428 38.8259 -88.2733
-40.8829 36.7326 -88.2733
10.9568 36.1391 -88.2733
24.3530 -23.5788 -88.2733
6.9160 -8.6819 -88.2733
16.3471 21.8604 -88.2733
54.1295 -19.5012 -88.2733
4.6592 -6.6299 -88.2733
31.1140 13.9502 -88.2733
-34.0713 -6.5949 -88.2733
-27.6101 -23.1491 -88.2733
1.4738 -1.2411 -88.2733
-11.7485 -2.4493 -88.2733
15.4238 -56.6347 -88.2733
-52.1295 -17.5983 -88.2733
-27.9840 15.5822 -88.2733
5.5818 -8.1409 -88.2733
0.9961 -0.3189 -88.2733
-14.7726 41.5714 -88.2733
-44.2026 34.6773 -88.2733
-42.2325 -42.4726 -88.2733
7.4743 46.0727 -88.2733
-34.3121 -27.8673 -88.2733
-16.8568 12.9500 -88.2733
5.3863 -34.0100 -88.2733
9.5108 25.3307 -88.2733
3.6226 9.0991 -88.2733
-44.6723 9.9305 -88.2733
3.5996 27.6913 -88.2733
17.8893 14.9983 -88.2733
19.2734 -15.8552 -88.2733
6.5511 1.1550 -88.2733
-1.8868 3.0010 -88.2733
15.8361 49.5803 -88.2733
-6.2199 27.3016 -88.2733
-28.1515 33.5773 -88.2733
-16.8137 -5.3586 -88.2733
-43.2153 -12.9257 -88.2733
1.6829 14.9727 -88.2733
-25.0243 5.3199 -88.2733
-4.2761 -10.9432 -88.2733
-16.1872 2.6634 -88.2733
26.4305 -0.7798 -88.2733
-24.6633 -10.1700 -88.2733
-24.6153 33.0302 -88.2733
-2.5258 1.4620 -88.2733
-33.6674 -48.0147 -88.2733
42.7337 1.7044 -88.2733
1.8864 12.0518 -88.2733
-24.0738 25.7351 -88.2733
16.1268 -32.7639 -88.2733
40.4467 26.6018 -88.2733
35.5884 34.9808 -88.2733
20.3064 5.9844 -88.2733
33.4675 36.4983 -88.2733
-31.8693 -21.7162 -88.2733
1.9293 4.5934 -88.2733
24.8369 50.7973 -88.2733
-17.5334 -38.3641 -88.2733
-20.4333 -41.7192 -88.2733
-29.4694 -49.6351 -88.2733
33.0531 -34.3460 -88.2733
24.7311 -16.3900 -88.2733
-1.6269 -30.8824 -88.2733
14.5523 24.5314 -88.2733
2.7096 23.6084 -88.2733
40.6124 10.3922 -88.2733
-0.9785 5.3456 -88.2733
28.6881 -6.9227 -88.2733
-22.4555 13.3362 -88.2733
18.3596 -29.5385 -88.2733
-22.6338 33.9532 -88.2733
-23.9375 -31.6560 -88.2733
22.3475 34.1038 -88.2733
-4.9584 8.2892 -88.2733
-37.0450 -28.5180 -88.2733
4.4858 17.5340 -88.2733
42.6397 -21.0998 -88.2733
45.3731 10.5385 -88.2733
-7.9543 -23.5197 -88.2733
34.4282 -50.2816 -88.2733
-7.7999 -19.7604 -88.2733
46.6350 -5.5314 -88.2733
58.9427 14.0403 -88.2733
10.6265 46.5071 -88.2733
12.3227 -24.3761 -88.2733
-10.1241 54.3830 -88.2733
-5.3615 22.4703 -88.2733
-6.8762 54.1683 -88.2733
-45.4463 -6.1921 -88.2733
-2.6244 -19.4001 -88.2733
40.8793 -8.8433 -88.2733
52.6150 12.9921 -88.2733
-4.1877 -20.0466 -88.2733
-17.1590 -43.3521 -88.2733
5.9679 25.1825 -88.2733
6.6006 15.3854 -88.2733
-7.0229 37.7644 -88.2733
-4.1677 -9.7301 -88.2733
0.2786 1.0203 -88.2733
29.9552 32.6004 -88.2733
22.2797 -3.5947 -88.2733
3.5470 -1.4694 -88.2733
23.9309 -9.5467 -88.2733
-59.4705 -0.0199 -88.2733
-55.7396 -10.0498 -88.2733
40.3314 -32.8827 -88.2733
-37.0190 -20.6414 -88.2733
25.8986 25.6772 -88.2733
-48.2084 21.8302 -88.2733
-28.6731 48.3961 -88.2733
-0.3668 -1.6602 -88.2733
31.6872 48.1565 -88.2733
-23.9310 31.9108 -88.2733
13.1485 -33.1766 -88.2733
29.5582 -45.3216 -88.2733
-25.0061 9.0481 -88.2733
29.9324 4.6634 -88.2733
-0.6413 0.8680 -88.2733
-37.2544 23.3783 -88.2733
-17.3917 -34.9400 -88.2733
14.8971 -38.5826 -88.2733
-11.7980 -17.9101 -88.2733
11.8967 -6.6275 -88.2733
-6.4517 15.4125 -88.2733
-3.7399 0.9046 -88.2733
-28.8281 15.0041 -88.2733
20.4608 -31.4349 -88.2733
-4.4527 -5.1971 -88.2733
1.8163 21.0445 -88.2733
-37.8314 -41.3980 -88.2733
-9.2722 -47.5729 -88.2733
4.3445 -20.0107 -88.2733
19.3384 -14.4740 -88.2733
-5.5057 5.1439 -88.2733
-13.4409 15.6946 -88.2733
38.2693 -46.9034 -88.2733
-32.2468 -4.4952 -88.2733
-30.8483 -39.4232 -88.2733
26.7645 19.8013 -88.2733
7.2433 -51.8379 -88.2733
5.3707 0.9262 -88.2733
3.5036 6.5791 -88.2733
-2.1333 -21.1924 -88.2733
-11.8370 27.7460 -88.2733
28.4344 -28.8184 -88.2733
-43.8216 -37.5370 -88.2733
14.9488 1.3528 -88.2733
-14.6274 38.5269 -88.2733
15.7416 -20.6943 -88.2733
-9.9224 46.8089 -88.2733
-2.2146 -10.7967 -88.2733
21.8882 -11.2628 -88.2733
12.7402 8.4222 -88.2733
47.1774 2.6536 -88.2733
6.2245 -11.2911 -88.2733
58.7889 11.3872 -88.2733
-32.5485 4.7093 -88.2733
29.9901 -47.0543 -88.2733
9.5985 -26.5215 -88.2733
-1.9355 1.1174 -88.2733
-4.1183 -19.0074 -88.2733
18.0557 49.1583 -88.2733
-27.1617 12.9672 -88.2733
-43.6257 -24.2579 -88.2733
7.0955 56.7134 -88.2733
-0.2682 1.2706 -88.2733
-5.8855 5.4599 -88.2733
7.9519 -4.6916 -88.2733
3.9639 -17.3413 -88.2733
42.9524 -3.1732 -88.2733
30.7943 39.1800 -88.2733
27.3853 54.0083 -88.2733
-28.3069 30.0473 -88.2733
0.2981 9.6000 -88.2733
-18.0722 -10.1427 -88.2733
38.8252 -19.2979 -88.2733
48.3079 23.1035 -88.2733
-17.7550 11.2844 -88.2733
