ply
format ascii 1.0
element vertex 1024
property float x
property float y
property float z
end_header
-18.3285 17.2770 -56.0385
-4.5031 -0.4289 44.1290
-7.4512 -17.8731 -27.8084
18.6061 8.3937 -32.8873
3.6625 -6.4148 30.2497
-2.0702 5.1765 39.0312
3.9994 2.3625 43.5394
9.9497 -8.1670 3.6592
-13.2739 -15.4062 -32.5194
0.7256 24.0132 -50.3975
8.3683 25.6928 -64.9258
18.0939 -15.6887 -50.0302
17.6250 10.3544 -33.0312
1.4891 -15.3724 -8.8082
-11.2004 -10.4458 -8.1838
-21.1403 -3.6630 -37.9455
-11.3529 17.0279 -33.1477
-4.1734 3.7324 38.9158
5.4182 2.3726 37.3842
-8.8130 1.4475 22.7638
-7.9072 -7.4890 13.2642
2.3882 -2.7551 48.3820
-1.7530 -7.2496 29.9017
-12.0439 -16.7679 -34.0179
0.8133 5.1650 40.7107
-17.9896 -20.2308 -65.1730
-0.9644 -8.3071 25.5181
-14.6214 7.2410 -13.0345
-2.0087 -1.0552 55.0573
23.7265 4.6179 -51.1130
2.1077 22.2173 -42.1225
-6.5772 9.2651 10.9789
18.9711 -12.8584 -45.0363
-22.4798 -13.6982 -61.5485
8.6304 -16.8837 -25.8579
4.8362 -20.9791 -38.3041
14.5860 -0.6119 -4.7096
5.3727 -12.2847 1.0617
26.4511 4.9046 -64.3474
22.8261 5.6959 -47.9830
-23.3634 7.8472 -53.4124
12.7170 -22.3865 -58.7463
2.4735 -1.3363 52.4283
0.0994 -10.9144 13.1479
-6.5140 -5.4028 25.0324
-14.4665 -9.9425 -19.0332
-20.1004 2.1935 -31.9565
17.6157 7.8469 -27.4221
10.0271 -4.2737 13.2203
20.2093 -16.9283 -61.7327
-12.5830 -4.5973 1.1179
7.7545 11.8409 -2.5541
-2.2956 5.6434 36.5235
14.8209 -3.7922 -8.1007
-6.8540 -1.4128 32.1338
4.7862 19.2468 -30.0818
-7.0259 4.0974 26.6303
20.9950 -17.0605 -65.0784
22.9470 12.7309 -61.1483
-21.3770 1.3723 -37.7791
6.0407 -4.1222 30.6064
-12.6139 -7.5734 -5.2621
-5.4033 -9.7938 11.8361
13.2770 -12.5550 -22.5204
-6.1029 -16.8843 -20.9707
16.1465 -16.5780 -46.1204
11.0553 4.1258 8.8566
7.8792 -1.8083 26.8697
-8.9725 2.0549 21.4369
1.2285 10.7033 13.8326
17.8629 12.4017 -39.3541
15.5241 3.9209 -11.5581
-0.8229 6.8393 32.6642
0.4235 17.9044 -20.7573
11.0747 10.9210 -9.3384
20.4038 -9.9001 -43.8761
2.4014 23.6779 -49.3079
8.2708 -6.6493 14.6147
-8.7643 -19.5463 -37.7805
-17.5292 -13.6951 -41.7724
-7.1231 1.1489 31.0814
19.1528 -6.7123 -32.3207
0.0356 0.1884 65.1263
1.8874 -1.2862 54.9847
-20.3676 13.6319 -52.7457
-17.9962 -17.5453 -55.7759
2.2968 -1.6096 52.4604
-11.6550 11.4713 -13.2142
-0.2778 -3.9684 46.7726
0.2423 -2.1818 55.4148
1.6658 4.9834 40.5859
-8.2882 -1.8123 24.9309
22.0447 2.5617 -41.5217
-6.4322 26.0890 -64.1936
-1.3330 -0.0575 59.5883
3.4372 -0.1195 49.3846
9.4225 -3.0644 18.0271
-2.0167 7.6773 27.5786
-16.4206 5.1729 -17.3970
9.6916 0.7155 18.9496
-4.3996 19.0465 -28.7005
-9.8797 0.8626 17.9830
-24.1712 -5.2891 -53.8827
-14.2323 13.6641 -29.5818
15.7556 8.0606 -19.7317
7.2596 23.8244 -54.6717
12.4727 13.5037 -23.0509
-4.7537 -2.3361 40.3810
-6.2265 -12.6991 -2.5023
-26.5223 4.8951 -64.6786
9.1024 -15.5965 -21.4795
4.3429 5.5028 32.0752
0.7034 6.3795 34.9449
1.8592 3.3733 47.3853
2.7226 -2.5916 47.8353
-6.6522 1.5502 32.9465
-4.0670 3.3296 40.5776
1.7818 -15.6845 -10.4617
-8.3672 -17.0612 -26.0560
-0.5879 2.3762 54.1902
1.1335 10.3876 15.4044
-0.4055 2.1020 55.6790
-13.2326 16.2415 -35.4943
-10.4311 -4.6449 10.7063
-4.0466 3.0852 41.3895
9.1672 4.5533 16.4395
4.6521 -19.6856 -31.9954
4.8139 -13.4203 -3.0555
5.8407 5.3175 27.7681
-2.7446 -19.5503 -29.6405
-26.5423 -2.4250 -63.1398
-13.2277 8.3248 -9.7050
-7.6882 -11.7338 -1.9440
-24.9455 -10.6114 -65.3492
-12.9226 -2.3168 2.4169
0.3279 -0.1479 64.3122
19.6516 -6.3598 -34.0665
0.8799 16.3446 -13.2870
-15.6360 -13.4931 -34.0568
-13.8779 17.8961 -43.7202
8.2553 -7.1394 13.1507
1.9554 24.4564 -52.8711
2.3201 4.8237 40.1098
8.0606 -6.1299 16.9686
4.2511 6.3390 29.0585
-19.9153 12.9889 -49.1980
0.4302 22.4662 -42.8657
-8.2551 25.0843 -61.9517
-2.3003 4.2090 42.8051
-10.0075 9.1546 0.3108
5.6795 -3.7812 32.9819
-15.6100 -17.9758 -49.3479
6.1047 0.9926 36.0756
-20.9277 -13.5972 -54.9194
-12.6388 4.2013 1.4950
-10.4550 1.6595 14.7422
5.3734 11.4471 4.7586
-7.5904 -5.3438 21.0591
-12.5444 -5.2334 0.1691
-4.6128 7.9547 21.4825
-0.0288 0.2254 64.9541
-11.8783 16.1232 -31.0188
10.0877 -6.5051 7.8721
-21.9332 -13.9099 -59.8402
-22.1451 -4.7209 -43.7012
6.1510 -15.7116 -15.7323
-7.0925 -0.6034 31.5516
2.0187 -0.8725 55.3956
-26.4477 1.7223 -62.4172
-0.6042 -2.9390 51.5114
4.8145 1.6687 41.3563
0.7311 1.3832 58.4718
3.0768 -4.8112 38.3732
6.3003 11.4932 2.5226
-1.4606 0.9639 57.5731
3.9582 -14.5388 -6.9839
17.2860 -17.2867 -52.4455
-1.0118 1.3050 58.0513
11.4752 3.7695 7.5070
-4.7567 1.7219 41.5342
-13.6547 -22.1258 -59.9757
4.0685 13.8128 -3.7436
9.7189 -2.0212 17.9369
-14.6700 12.5343 -27.4762
7.8247 -1.0270 27.8014
7.4207 20.8608 -41.2714
3.6048 -2.8317 43.8354
-1.8224 24.5232 -53.1444
-18.4547 -15.7452 -51.5347
-0.7333 -2.9933 51.1170
-9.5813 -1.2025 19.2475
14.1921 20.9504 -56.6056
14.0436 -5.5418 -7.1271
1.5588 -1.0990 56.8108
-1.6439 -18.6490 -24.6927
1.0468 3.4448 48.6037
-0.9465 0.8670 59.8337
15.0698 4.1627 -9.7284
-7.0803 2.8512 29.0569
24.2749 4.6634 -53.7647
7.0468 -9.6847 7.9986
6.5932 11.1585 3.2302
-9.7613 4.7338 13.4691
-7.5174 14.9480 -15.0493
-21.8075 -5.0139 -42.4109
-3.1923 -13.8126 -2.6635
5.2356 8.0997 19.3054
-14.3421 -6.5975 -10.4685
-7.7895 -22.1632 -47.8192
-13.9769 0.1126 -1.6975
-7.3704 -25.0560 -60.5451
-8.3922 24.1273 -57.7708
-0.8172 -10.5357 14.8321
-5.1220 -4.8751 31.7792
8.4272 5.9550 16.0365
9.2498 10.8046 -2.8887
-1.0316 3.8730 46.6276
-10.6432 16.7606 -30.1853
-5.8153 14.2458 -8.5306
7.4616 -2.1912 28.3597
-5.5052 13.0606 -2.6477
11.5063 -5.4847 4.2682
-11.6194 22.3299 -55.9622
-18.4302 1.8992 -23.7549
11.1372 -0.5908 11.9938
-1.4721 -3.0905 49.4624
8.7690 -21.1950 -45.1296
8.6641 14.8961 -17.4764
2.7462 3.2993 45.2477
3.6408 6.0255 31.9306
0.7729 0.1965 62.1900
-12.4506 -21.7821 -55.5612
20.6498 2.6868 -34.8846
13.3147 8.2902 -9.9734
10.4276 9.3697 -1.8982
-3.7136 -12.2917 3.8139
-18.0425 6.0974 -26.2618
10.7609 -21.0748 -48.6475
9.8351 -2.7534 16.5486
-18.0508 12.3518 -39.9670
-8.0092 11.2248 -0.7856
6.1327 15.3808 -14.2082
-4.4253 -1.0112 44.0518
-0.7604 -0.4371 61.8041
9.3878 -10.2063 -1.1635
0.1843 0.1430 64.9251
-12.4750 -20.6205 -50.7673
-8.0495 -1.0403 26.7127
-9.2772 5.9066 12.7451
1.7862 -6.0473 35.4906
14.3229 -7.5486 -12.4245
-14.4123 -13.7662 -30.5538
3.1236 -2.2841 47.2983
7.1571 11.8441 -1.0248
18.0383 -0.5596 -21.4242
19.4418 -7.5778 -35.0911
1.5106 -3.6883 46.7359
14.8925 -1.7140 -6.6098
-0.0388 12.6020 4.9692
-0.6796 7.2554 30.7323
-3.4101 -0.8431 49.0281
-5.0059 -23.5039 -50.4310
6.6931 20.3428 -37.7529
4.9402 -1.5424 40.9689
-10.7375 -0.9789 13.7917
-1.3149 12.5839 4.7253
21.1504 -11.7476 -51.2209
9.4654 -5.3886 13.2596
17.8308 -17.8061 -56.0930
-16.3015 -13.9153 -37.8373
-12.4529 -22.6786 -59.3579
21.5266 2.5551 -39.0237
-12.4164 3.8636 3.0224
-1.4423 -0.6513 58.3845
4.2595 5.3022 33.0879
-5.4568 -9.2659 13.9306
-6.6110 -25.9028 -63.5290
0.0510 -0.5380 63.4363
2.9627 -5.8217 34.3917
-19.3367 8.1385 -35.6394
-11.8657 -19.4054 -44.2003
10.2683 3.8236 12.9427
-0.7556 16.0092 -11.6329
6.7622 10.5257 5.4119
-1.6418 -19.5416 -29.0028
-4.7068 12.8120 -0.1065
24.8718 10.7355 -65.2578
22.7063 0.5596 -44.0431
-14.2580 1.1737 -3.2916
-5.0363 -12.5551 0.4831
1.9697 23.7186 -49.3124
6.1700 14.6836 -11.1490
-2.0686 -0.2914 55.9293
20.6687 13.6020 -53.8812
7.7096 5.8873 19.0345
-21.7123 -4.9943 -41.9397
4.7119 -13.3167 -2.4164
5.5886 -7.7226 19.8477
-21.1968 -1.7477 -37.0413
6.0129 20.4116 -37.0903
12.1777 7.6024 -3.5323
0.6047 0.4593 62.3752
11.5598 8.0451 -2.2133
1.5161 -0.0657 58.7001
11.8272 9.6303 -7.8762
-12.8825 0.4862 3.5651
19.0667 -0.7301 -26.4346
-0.1940 0.1877 64.7473
22.1541 8.3092 -48.6377
10.8738 -12.2845 -13.4686
10.1341 -24.4205 -62.1070
-20.4328 -1.0860 -33.1290
2.3274 -0.7068 54.2653
12.1932 12.1169 -17.2699
-14.9979 -3.6957 -8.8190
8.2604 14.2606 -13.8296
15.7448 -6.2769 -16.1063
-5.0273 -5.0206 31.6159
14.8380 16.8408 -42.7429
-22.0299 9.1235 -49.5262
3.7063 -15.2068 -9.8146
7.1796 15.0029 -14.5666
13.4070 6.0648 -5.2724
-11.9650 -20.0731 -47.2201
13.3840 10.5233 -16.4734
7.4285 -5.3559 21.6641
-2.1516 -2.5223 49.9851
-2.9512 3.1420 45.1605
9.4349 2.3502 18.9239
-0.5851 1.3901 58.7450
7.7924 -1.5194 27.5718
-5.0673 1.4444 40.5143
0.2616 -0.1471 64.6010
-23.9227 11.9263 -63.5176
9.2398 -0.6577 21.1541
1.7043 1.4011 55.3612
8.7665 20.7225 -43.0120
9.2153 -3.5781 18.1371
-0.0382 2.6032 53.4358
-6.8464 -4.8098 25.4980
3.9036 -2.3116 44.0650
8.3398 8.0367 9.9141
-19.9833 4.4650 -33.1988
15.0771 -22.5075 -65.2622
-8.9284 4.7371 17.0623
3.8688 -1.0014 46.6845
-19.2993 -2.5903 -28.3334
-5.7107 -25.1250 -58.8401
-6.7400 5.4045 24.1783
-7.3910 -11.5751 -0.5153
19.4301 7.6637 -35.1900
0.3399 2.8189 52.2925
-15.7174 -1.7424 -10.5988
-1.6850 -2.2639 52.3759
-12.9711 -0.0471 3.1799
10.9586 -0.6415 12.8449
-2.5638 -3.5849 44.6919
13.2320 -4.3335 -1.4367
-4.0412 9.0452 18.0335
10.2002 -3.0611 14.4332
-14.3683 -17.2783 -42.8735
-4.6016 3.1659 38.9811
9.2116 9.0020 3.6229
6.8359 -5.5043 23.5130
-12.4713 11.5919 -16.4784
-0.5564 -4.5939 43.6251
-13.1538 -8.4499 -9.7277
5.2096 -0.3353 40.7509
5.6163 20.4852 -36.9075
-14.2464 -15.3646 -35.5108
-0.1043 -19.4930 -28.4347
6.9395 -0.7973 32.1965
5.3187 -4.7256 31.5680
18.4402 11.3265 -38.8453
2.5858 -8.5160 22.9148
23.1091 -3.7840 -47.4538
-17.3113 11.5731 -34.8830
6.7093 1.8142 32.3658
-4.2102 -3.2349 40.3188
14.4395 -14.1552 -31.9599
-3.2526 -5.3155 35.8487
-0.0176 0.2387 64.8954
5.1322 -23.0307 -48.3202
12.6007 -14.4171 -26.7595
3.9875 -21.4678 -39.7859
4.3887 -2.6320 41.2499
12.4207 19.3468 -45.3879
-16.8462 -5.9112 -20.4847
0.9482 10.1947 16.4251
-3.6073 -11.2135 8.9567
14.6139 -7.3769 -13.2966
-13.2923 -13.3920 -25.4079
-14.7779 21.9564 -62.2358
6.2649 18.2525 -27.4873
13.2733 -16.1663 -35.3372
2.8758 -5.9616 33.9714
-9.0315 6.9121 10.9268
-4.4921 5.2521 32.5553
1.6742 -8.4173 24.4550
-17.1727 -4.9068 -20.5178
0.2032 1.8450 57.0584
10.8792 -20.9451 -48.3515
11.3246 10.3424 -8.2861
-15.5365 14.4278 -36.7200
4.8601 16.1955 -15.9079
7.2361 25.3694 -61.8232
15.8540 -15.8848 -42.7318
-9.9509 4.4053 13.3048
-13.9678 -4.7548 -5.4664
-8.1194 -1.2617 26.2259
4.1201 24.6769 -55.2177
-5.9711 -5.1339 27.8844
10.5632 -13.7873 -18.1362
4.3950 23.5331 -49.9897
-0.1606 0.0693 65.2080
2.6226 -4.3170 41.5709
1.3708 1.1547 57.3680
18.2628 -12.7160 -41.8158
-2.1082 -26.3217 -61.9432
0.2055 -0.1979 64.6729
18.1112 11.1726 -37.0961
13.0624 -7.1086 -6.0309
-0.8556 -2.2118 54.5603
5.0176 21.4239 -40.6035
5.3033 0.7953 40.0612
16.0855 8.9567 -23.1887
-4.1394 -9.8516 14.2574
-2.5446 0.0250 53.7205
4.0595 -2.5523 42.8118
-6.0647 -0.2320 36.6364
-11.2170 -3.0524 9.7056
-12.8615 -6.1693 -3.0896
-3.7143 6.6577 29.1013
-0.0380 -0.0073 65.8685
-0.3344 -0.2569 64.0117
-2.7408 4.2921 41.3703
-2.9415 18.5107 -24.7978
22.8680 -14.0008 -63.9191
1.8788 11.2076 10.9705
-5.0238 -14.7199 -9.3380
-5.0244 -13.5343 -3.9247
18.4747 -2.6687 -24.4272
2.2345 1.2082 53.7422
-1.4588 1.9225 54.3575
-11.7468 -0.6188 9.0359
-12.2649 6.2326 -0.6326
7.6028 18.1932 -29.5236
6.3293 0.4488 35.2984
21.9204 0.4511 -40.2225
12.4958 -5.5055 -0.1340
-7.6730 11.8413 -2.3403
-8.0588 22.2731 -48.7593
4.2311 -17.5664 -21.5300
6.3220 7.2330 19.4901
6.0189 -16.0483 -17.0273
-7.1791 3.9648 26.3020
2.6722 0.8148 52.5140
9.1955 18.1383 -32.5203
-8.7377 -8.8307 5.8376
-11.5585 -21.0938 -50.5376
1.0552 -2.3096 53.7471
1.0969 -0.9716 58.9529
-0.3635 0.5798 62.7386
-2.2954 -9.5728 18.3378
-6.7097 -21.9019 -44.9803
-0.9111 -1.5634 57.2846
-19.4819 7.1730 -34.5774
1.5013 -2.5405 51.7518
-12.4705 -13.0025 -21.2745
7.9478 -10.8460 0.8770
0.8965 1.6723 56.8583
1.3112 -23.3120 -47.1241
-8.7538 4.8855 17.4617
3.6703 4.0337 39.6200
-9.9531 -5.0234 12.0130
4.9130 -10.3406 10.5615
-8.6246 -8.4210 7.6263
16.1697 -3.3539 -13.9925
-11.0808 7.1029 2.2557
4.0198 -21.7151 -40.9931
9.6094 3.4034 16.6406
-12.0931 9.8154 -9.4424
-18.6712 -10.7774 -38.4456
-23.0990 12.7388 -61.8114
-18.0349 6.3125 -26.5660
-11.3241 -10.4098 -8.5050
15.2615 -6.0124 -13.4558
-10.9350 9.1486 -3.0544
-3.8611 2.8722 42.7293
-7.7492 -13.4912 -9.3611
-4.1304 -9.8271 14.3836
-0.7547 -2.2241 54.6708
-1.3277 18.3262 -23.0105
19.1266 -5.4472 -30.3443
11.2602 15.7418 -27.7621
22.4107 5.3300 -45.6066
2.7180 -13.3336 0.0941
5.6690 4.6697 30.4537
-8.3852 0.4019 25.3634
15.3050 11.3901 -26.4229
-2.6000 1.3516 51.8512
10.3432 -18.0029 -34.5877
2.1654 -2.8802 48.5886
-19.3389 13.4624 -48.1639
-1.3698 6.0645 35.9185
-4.2624 9.7549 14.4534
13.2339 -6.8188 -6.1083
10.5140 5.2439 9.1035
4.5080 0.8785 43.7931
1.4436 12.3759 5.6588
-6.3352 4.9293 27.1459
1.0861 -9.0851 21.7035
-15.0334 19.5261 -53.3970
-1.7430 1.1798 55.8534
-10.3828 -0.9060 15.5354
-14.6183 -22.7541 -65.0417
1.8172 -18.8397 -25.6905
12.3280 16.8496 -35.1469
-4.2641 7.3330 24.9372
-8.6216 12.4391 -7.3080
-15.9633 5.0961 -15.1714
4.0785 -19.7010 -31.4667
0.1927 0.2973 64.3386
-7.8655 3.2942 24.7201
21.9287 -8.8934 -48.6493
-11.5018 -11.2127 -11.8066
-0.1417 -0.2868 64.5051
-1.5508 -24.2423 -51.6954
-3.7316 -21.0686 -37.6607
-0.5565 -5.0023 41.6584
-18.1530 -13.8497 -44.6238
4.7474 -6.0354 28.8338
5.8597 8.8047 14.7886
-10.0085 -0.3607 17.5097
1.9565 -12.7137 3.7025
2.4553 -23.4966 -48.4607
-5.7337 5.0964 28.8705
1.4704 -11.3676 10.4940
21.1156 -16.8360 -64.8514
9.4072 -1.1977 20.0877
6.4378 6.7533 20.8290
5.0620 7.2283 23.2802
4.2819 0.5623 45.1220
-25.1227 1.1029 -55.8400
-0.0860 0.2033 64.9856
17.7664 3.5580 -21.7742
-21.3983 -13.5886 -56.8166
-6.8916 -19.6534 -34.8985
-17.3716 -17.0996 -52.1009
8.9375 -1.7815 21.8805
5.6729 12.3342 0.2473
-14.2070 4.0554 -5.5610
15.5119 4.6381 -12.4250
8.5172 -15.5671 -19.9595
-10.5435 3.2488 12.5765
3.7459 19.3836 -29.6417
6.3739 17.5883 -24.6266
0.1213 0.0954 65.3079
0.8609 -22.7768 -44.4301
-14.2693 0.7070 -3.1973
-7.4378 2.0232 28.6922
-0.7788 -2.3122 54.2290
11.4223 11.0964 -11.1373
-9.8239 7.0229 7.5193
-2.4528 -3.3870 45.7848
-14.2685 -11.3239 -22.2431
17.9311 -2.0347 -21.4203
3.0550 13.1242 0.7372
-26.0402 -1.9041 -60.5072
-5.0341 -0.8087 41.3408
-4.2509 26.5318 -64.1932
-19.8499 -4.5282 -32.6354
-16.0957 -6.0688 -17.3272
-3.9988 -17.1286 -19.2050
-4.8413 -8.2413 19.7245
10.8201 -4.3970 9.4417
1.8888 -1.7128 53.6962
-14.6919 -16.6338 -41.5222
-8.6467 -11.8052 -4.8761
14.6592 -7.6618 -14.1226
-24.1496 0.7813 -51.0669
-3.2553 5.6349 34.5112
-16.9209 15.3855 -44.8026
-1.9265 -0.8867 55.7759
10.9460 -1.1842 12.6869
-2.4515 -5.5501 36.6451
-2.6930 16.2689 -13.8781
-7.5263 21.0726 -42.4098
-4.6695 16.0323 -14.8874
1.9736 -8.1855 25.2410
-2.3165 -26.5752 -63.2519
1.6898 3.8149 45.8305
14.1756 3.0350 -4.2154
0.1355 -0.1191 65.1813
9.5443 -17.7574 -31.6659
-24.0793 8.3065 -57.4144
-12.0625 5.3375 2.1163
-2.5621 25.1476 -56.4742
25.8002 -5.5558 -61.8734
-7.7011 10.9920 0.9982
14.3963 -7.8726 -13.4807
0.6400 -3.3522 49.5131
-0.8672 26.1659 -60.8491
23.5371 3.2958 -49.1497
15.5146 22.1803 -65.1515
-7.5029 18.6187 -31.2478
2.5656 -0.8329 52.9806
-4.7942 -0.9261 42.3868
22.5511 8.4479 -50.6757
-9.9324 5.1912 11.7305
-2.6258 18.9231 -26.5500
6.1033 5.8805 24.9732
-0.3171 10.0830 17.1557
-5.8778 -9.4995 11.9065
3.2453 -12.6415 2.7912
9.8898 -8.8493 1.7267
13.8504 10.0756 -16.9671
26.5309 5.6608 -65.4434
0.7219 -8.0719 26.7723
6.7415 1.2753 32.7977
-4.3221 -5.5525 31.9480
-10.4282 5.0724 9.8442
19.8271 9.9776 -41.5366
-9.4392 2.6473 18.5352
3.4760 1.6498 47.4049
16.2638 11.5147 -30.5390
4.0625 5.3502 33.4923
10.2534 11.8694 -9.9741
-3.5500 -2.5774 44.7905
3.3832 -13.9867 -3.6979
2.9744 0.0996 51.6298
0.5535 0.8727 61.0465
25.4035 -0.6737 -57.1270
13.5756 -2.1837 -0.5956
12.7614 -2.1522 3.3234
-2.6711 -20.0529 -32.0061
-1.5796 3.5258 47.3281
-1.1789 -4.3605 44.1602
-8.1819 -25.4391 -63.4777
8.0822 2.8427 24.5257
-1.5740 3.2875 48.3878
-1.3556 13.8061 -1.1892
-3.6380 -6.0205 31.9580
0.8625 -3.4422 48.8543
-5.7006 -2.7593 35.3560
15.6105 -2.2651 -10.4059
-2.6472 -11.8959 6.9816
-9.7918 -21.7613 -49.6156
-8.2159 -3.4823 22.8010
-12.5613 -0.1671 5.1616
1.2090 -0.8639 58.8530
3.1733 -5.4961 35.2926
18.6924 16.2289 -53.9378
7.0968 22.4425 -48.0406
0.9005 -26.1786 -60.9159
24.4151 -1.5253 -52.5236
-1.0195 1.0194 59.0671
1.9739 -6.5281 32.9971
-2.3896 6.0080 34.7140
-16.5143 13.2746 -36.6505
-22.6353 9.2954 -52.5570
17.5360 7.4204 -26.2444
3.8192 0.2847 47.4913
3.6393 -13.6063 -2.2174
0.9344 0.3496 61.2197
-11.6097 13.2883 -19.4782
12.2187 -21.3062 -53.0008
15.5449 -5.0646 -13.1941
1.3642 1.8748 54.8168
8.9341 6.0463 13.7638
-8.1270 9.5655 5.2130
10.2368 17.8330 -33.6170
-16.9357 0.8628 -16.1439
7.5143 -15.9972 -19.6171
0.3883 0.5856 62.6498
1.0552 -3.2188 49.6359
7.3878 4.4460 24.2600
16.8587 19.6735 -59.5328
22.9335 -3.3421 -46.2853
10.5810 5.6588 7.8917
-9.2722 1.6689 20.3879
-21.3831 8.0067 -44.6236
-23.8914 5.3093 -52.5794
17.2751 13.7359 -40.9270
8.7195 12.0536 -6.0573
2.4400 4.1231 42.8321
-11.6591 -15.5105 -28.0017
1.0108 14.0412 -2.1827
-17.3060 -1.5227 -18.1564
-9.2548 15.0411 -19.5498
13.4801 13.7847 -27.4026
9.5594 2.3705 18.3144
7.3243 -3.7786 26.1061
2.4034 -0.0601 54.4022
-13.2050 9.0667 -11.5889
-10.6607 -6.0718 6.5858
-11.2147 -4.3084 7.8205
-14.7854 -12.4908 -27.7662
-10.3122 -23.4891 -58.2937
-0.5365 0.6925 61.8092
-1.2466 2.4287 52.8229
18.8511 -2.3681 -26.0404
-4.9521 -6.2962 27.2270
1.3178 -12.9706 2.8589
-10.5313 -0.4446 14.9614
6.1199 17.4800 -23.7189
-15.2222 19.7640 -54.8689
-21.4624 -10.1945 -49.1199
-7.2828 5.2437 22.5549
-13.6580 -7.2093 -8.8062
-12.1478 15.2472 -28.4421
0.2132 -0.1592 64.7661
16.8008 13.0629 -37.1036
16.0304 13.8794 -36.7278
-5.7667 5.9094 26.0318
-16.1084 -18.3142 -52.1729
3.0622 7.2848 27.7511
1.2047 19.0984 -26.7049
-7.8311 5.1877 20.5223
15.7032 16.8410 -45.5606
-4.2862 7.5170 24.1109
-1.6377 9.7747 18.0142
-4.7792 -0.0145 42.8892
6.3252 -3.2444 31.5972
0.0248 -0.0474 65.7966
2.3810 2.3524 49.8312
-0.4635 0.0311 63.8038
2.7782 2.7086 47.2477
6.1391 -0.2526 36.2725
26.5222 6.1772 -65.9477
-5.3348 -8.4304 17.6960
-8.3024 -23.2244 -53.4980
0.8359 8.3022 25.6086
9.5807 -2.0182 18.5956
10.0708 2.7071 15.5060
2.7684 -18.6228 -25.2075
12.4514 -16.8274 -35.4149
5.7252 26.1180 -63.5531
-10.5967 15.6542 -25.5764
18.4500 6.2912 -28.4342
7.1120 -5.2396 23.2358
-7.9856 0.9727 27.0609
-10.2389 10.7123 -5.7750
3.1266 -0.2194 50.8629
-22.8325 11.4997 -57.8662
5.7164 21.6051 -42.2752
6.0509 -1.7885 35.4705
-13.2004 18.8231 -45.3867
16.1848 -3.8384 -14.5739
-21.8314 -7.1240 -45.2606
13.2460 2.2577 0.9219
4.8525 -2.7552 39.0069
-1.1462 -2.1671 54.1725
-11.7662 -1.4333 8.5994
9.6571 -21.0325 -46.1293
-1.8242 3.0286 48.9176
14.5757 2.4124 -5.5591
-17.2522 -1.8410 -18.0465
-3.0474 -2.8439 45.8507
22.1461 -7.8526 -47.8428
-13.0536 10.4887 -15.1150
15.7108 -0.9913 -10.2513
26.8998 -3.1101 -65.2056
0.6764 6.9770 32.0774
2.6577 -0.8299 52.5594
-0.5075 -2.4852 53.7608
2.1062 -9.3225 19.7275
0.8864 -2.3502 53.8803
-11.8300 1.3025 -66.0558
5.0401 2.3111 -66.0558
-3.5148 -8.3849 -66.0558
5.1952 6.3121 -66.0558
1.5485 -1.7806 -66.0558
-4.0533 0.9509 -66.0558
0.4439 -1.5605 -66.0558
21.9156 15.6389 -66.0558
4.5843 0.0351 -66.0558
4.1257 -26.5961 -66.0558
0.5408 22.6414 -66.0558
4.0502 -2.6744 -66.0558
2.4197 1.7872 -66.0558
19.4424 -6.4504 -66.0558
8.2465 14.0227 -66.0558
9.3291 16.2239 -66.0558
9.6396 9.4329 -66.0558
-17.1954 -3.0962 -66.0558
-0.8326 1.7543 -66.0558
9.1990 -0.5141 -66.0558
4.4376 5.3050 -66.0558
-13.7726 -7.8236 -66.0558
-4.6894 14.3331 -66.0558
10.7457 -0.0038 -66.0558
2.8313 6.1022 -66.0558
1.7971 -3.8434 -66.0558
4.8685 2.7065 -66.0558
26.0355 -7.5032 -66.0558
7.1992 -7.8180 -66.0558
-1.5540 0.5083 -66.0558
-0.6125 -0.5305 -66.0558
9.9522 -11.1355 -66.0558
0.2208 -1.0783 -66.0558
-2.1139 -13.2770 -66.0558
-9.2494 8.6636 -66.0558
-19.3103 -14.7660 -66.0558
-19.6580 3.7510 -66.0558
-20.4434 16.7585 -66.0558
0.4916 11.2564 -66.0558
-23.9085 -12.0162 -66.0558
-2.5328 -2.2998 -66.0558
-1.0822 -2.2635 -66.0558
-17.2128 -13.9345 -66.0558
4.3180 0.0874 -66.0558
6.9358 -3.8252 -66.0558
-17.9068 -0.3964 -66.0558
-4.4800 -22.0545 -66.0558
-24.5642 1.1227 -66.0558
0.6895 -3.4529 -66.0558
12.3027 21.0995 -66.0558
7.7513 -1.8112 -66.0558
-7.7911 -5.3200 -66.0558
12.9940 20.9638 -66.0558
1.6966 -0.4409 -66.0558
-9.0789 5.4002 -66.0558
-8.2571 4.6747 -66.0558
0.0235 0.6099 -66.0558
-5.5886 7.7646 -66.0558
-3.2787 -2.9428 -66.0558
-6.1441 8.1954 -66.0558
-15.5686 -18.7580 -66.0558
-0.1718 1.7611 -66.0558
10.8809 4.0086 -66.0558
3.4996 -1.7648 -66.0558
6.4542 -24.4043 -66.0558
3.1566 1.5147 -66.0558
10.4885 11.5099 -66.0558
-1.3019 -1.8306 -66.0558
9.2757 -1.8539 -66.0558
-16.8573 2.3791 -66.0558
2.1291 4.6232 -66.0558
12.4631 -2.6198 -66.0558
-16.1559 18.6883 -66.0558
-1.9080 1.0312 -66.0558
13.8854 -7.4296 -66.0558
-9.0878 1.7005 -66.0558
-17.2137 20.5358 -66.0558
-13.9880 -14.0091 -66.0558
-0.5656 12.7661 -66.0558
17.1502 -5.1462 -66.0558
-9.0857 18.3386 -66.0558
-14.7418 -12.2255 -66.0558
3.6141 -11.5207 -66.0558
5.3602 -7.7614 -66.0558
0.9831 1.4409 -66.0558
0.0110 1.6810 -66.0558
3.4152 3.0529 -66.0558
-1.2615 -2.9407 -66.0558
1.2568 -2.2020 -66.0558
-8.5358 -23.7059 -66.0558
10.6641 -6.5745 -66.0558
1.3288 3.9340 -66.0558
-7.0447 -12.8031 -66.0558
18.8580 9.5801 -66.0558
-0.1124 -9.6047 -66.0558
20.3866 -7.9807 -66.0558
3.1235 -10.8291 -66.0558
8.6095 0.8289 -66.0558
-26.1068 -2.0883 -66.0558
-21.6744 -10.9874 -66.0558
-11.9851 18.0719 -66.0558
0.5959 1.4019 -66.0558
-9.0881 12.2725 -66.0558
6.1871 -18.8492 -66.0558
0.6243 -0.0402 -66.0558
15.9435 -14.2294 -66.0558
2.3022 -11.7455 -66.0558
-7.5982 -3.7602 -66.0558
1.8238 -6.1160 -66.0558
15.8861 -3.8127 -66.0558
22.7795 12.2530 -66.0558
-15.3444 2.5265 -66.0558
-5.4158 1.8336 -66.0558
-10.4185 -4.6268 -66.0558
16.1534 -14.5033 -66.0558
4.4136 -3.1772 -66.0558
-8.7422 4.4022 -66.0558
-2.2856 -1.6344 -66.0558
10.5240 -7.3531 -66.0558
-16.5335 5.7588 -66.0558
-13.4860 22.5844 -66.0558
2.5628 -8.2586 -66.0558
-10.9617 19.6697 -66.0558
-9.4720 -5.9782 -66.0558
-20.8287 8.3569 -66.0558
10.9919 -1.7201 -66.0558
12.9369 10.0305 -66.0558
-23.5091 -11.1265 -66.0558
-0.8944 0.7469 -66.0558
5.9012 -19.6958 -66.0558
4.6466 0.6552 -66.0558
2.1009 -0.9992 -66.0558
3.3702 9.1982 -66.0558
-6.3942 0.9051 -66.0558
22.6915 -6.4743 -66.0558
10.2926 -20.4174 -66.0558
11.2169 7.1221 -66.0558
1.1026 -7.2616 -66.0558
8.5509 -2.2239 -66.0558
-16.1631 3.5550 -66.0558
20.1700 11.3181 -66.0558
0.0598 -0.0539 -66.0558
14.4301 2.2588 -66.0558
-11.6366 9.9662 -66.0558
-4.8733 0.0166 -66.0558
-7.1179 -3.5320 -66.0558
21.1498 -0.3324 -66.0558
13.0292 4.0691 -66.0558
-10.5252 11.8523 -66.0558
-6.2840 1.5099 -66.0558
-11.3266 -3.2040 -66.0558
-14.5005 -3.6599 -66.0558
-5.9394 -16.4627 -66.0558
-12.8699 8.0027 -66.0558
4.7212 -9.3112 -66.0558
4.9114 1.3437 -66.0558
-3.7386 -20.5412 -66.0558
-4.6161 -2.8108 -66.0558
19.7074 -12.3404 -66.0558
-0.0776 -1.5529 -66.0558
0.3017 -3.7528 -66.0558
20.9214 -5.7160 -66.0558
0.4058 -0.7108 -66.0558
-3.5366 4.9551 -66.0558
-9.8073 -10.8503 -66.0558
3.2815 5.8308 -66.0558
8.7293 -0.2951 -66.0558
-4.0107 -9.6011 -66.0558
0.1047 -4.0041 -66.0558
23.1573 12.0657 -66.0558
2.9916 11.2615 -66.0558
-1.2098 -4.4494 -66.0558
18.7283 -12.5843 -66.0558
1.1251 -9.4157 -66.0558
-11.8802 -23.6522 -66.0558
-12.8627 1.1187 -66.0558
-8.5043 -12.7378 -66.0558
-8.9150 -18.8767 -66.0558
2.8715 -6.0711 -66.0558
2.3062 -0.7758 -66.0558
23.0099 14.4825 -66.0558
16.0143 -16.6873 -66.0558
14.2708 -10.8841 -66.0558
14.2754 -13.3493 -66.0558
25.5937 -7.8405 -66.0558
-6.1390 9.5406 -66.0558
-0.0072 3.8942 -66.0558
8.1351 -18.6138 -66.0558
10.8677 -3.7554 -66.0558
17.4301 -12.2785 -66.0558
6.5265 14.9705 -66.0558
-7.8668 5.1989 -66.0558
-20.4266 13.1294 -66.0558
-6.4961 16.8043 -66.0558
-6.8890 0.8990 -66.0558
-3.5407 -2.7027 -66.0558
10.5370 -6.3854 -66.0558
12.9868 -8.3602 -66.0558
-4.0568 10.9436 -66.0558
11.2991 0.4121 -66.0558
1.4877 4.1156 -66.0558
0.0538 5.0926 -66.0558
-14.1871 -20.4224 -66.0558
-15.2128 -7.0266 -66.0558
-0.1622 2.0770 -66.0558
0.5993 -17.4232 -66.0558
-5.2168 -15.4662 -66.0558
-1.1921 -2.7244 -66.0558
4.1109 -23.5477 -66.0558
-4.4095 -5.9139 -66.0558
4.9624 10.9318 -66.0558
-22.6375 -6.8239 -66.0558
-6.3180 -15.2447 -66.0558
1.8489 1.3997 -66.0558
-11.0416 1.1450 -66.0558
17.8187 6.2700 -66.0558
25.7452 -6.1591 -66.0558
-9.9030 -14.2360 -66.0558
-2.5407 -8.2111 -66.0558
2.3560 4.2268 -66.0558
-10.0350 -0.5382 -66.0558
-15.0083 -3.1908 -66.0558
-1.5687 -0.7499 -66.0558
3.5148 -0.5586 -66.0558
0.4147 0.5097 -66.0558
-3.0628 -0.6995 -66.0558
-9.9387 10.7619 -66.0558
11.3434 -5.5629 -66.0558
19.2774 -5.4145 -66.0558
5.0094 -15.2894 -66.0558
0.3167 -2.2188 -66.0558
22.8541 -5.6620 -66.0558
5.7704 -25.1142 -66.0558
-7.7953 -2.1668 -66.0558
-21.5834 -6.0794 -66.0558
-18.4971 8.1589 -66.0558
-16.9665 17.2932 -66.0558
3.1574 3.2718 -66.0558
-26.0210 8.1035 -66.0558
2.1166 13.4600 -66.0558
-18.5539 -9.3452 -66.0558
3.5951 -4.5931 -66.0558
-22.3530 8.8235 -66.0558
14.4801 5.8662 -66.0558
-3.1828 -12.4993 -66.0558
-15.4776 -18.1992 -66.0558
2.6817 0.4655 -66.0558
2.1739 -2.5897 -66.0558
-22.6522 14.7830 -66.0558
-9.5943 5.5958 -66.0558
15.4675 -6.9285 -66.0558
11.7825 -20.5233 -66.0558
-11.2836 8.8451 -66.0558
15.5404 4.5377 -66.0558
15.8335 9.6158 -66.0558
-23.8134 6.1574 -66.0558
