ply
format ascii 1.0
element vertex 1024
property float x
property float y
property float z
end_header
-6.7100 -3.5970 12.9393
10.1518 4.6201 -3.1664
13.4207 1.7723 -14.0100
-3.4901 -4.3364 22.2510
-7.6165 1.7992 11.9710
3.1764 16.4531 -28.6570
0.6920 3.0497 33.3475
-9.2132 4.7105 0.5006
17.0828 -2.7226 -31.1204
-0.1599 -0.4212 45.5243
-16.3954 11.6649 -43.9638
2.7132 -5.9333 17.8939
11.9999 -14.8236 -39.1887
5.8421 3.0669 17.5573
-3.2377 0.8763 32.3150
7.2043 -3.0002 12.0716
-9.7099 7.3702 -7.8821
-13.6039 -12.3914 -36.1383
10.7923 9.4321 -17.6306
-1.7940 -3.7221 28.7770
-10.7737 -7.3060 -11.6446
10.1747 4.7506 -3.5100
-0.7025 -2.4511 35.9747
15.2434 12.5482 -42.2453
-0.2055 0.2403 46.1354
1.7047 3.0315 31.7522
-3.5037 -0.5520 31.4385
13.1858 -1.4457 -12.7709
1.4574 -3.4616 30.4878
13.4326 14.2721 -41.5870
-12.3885 7.8468 -19.1380
14.1571 -6.7458 -23.7677
-2.0583 0.8851 37.3814
-5.0297 -0.1964 24.6756
-9.1784 -5.2487 -0.5259
-7.3002 -10.5584 -10.8215
-8.6016 13.9249 -26.8851
1.4433 -2.1118 35.9375
-11.2872 -7.8020 -14.8473
-1.6268 0.3141 40.0367
-2.1221 -17.9908 -34.8376
4.7304 -0.0218 26.0542
-12.4225 8.1879 -20.1104
-0.0863 6.7644 16.7987
2.4798 2.0904 32.8194
-16.2626 -1.3885 -26.6776
-11.5312 7.4124 -14.7874
8.3106 -14.7534 -29.4583
11.8452 13.0299 -32.5346
-0.5720 -8.1767 10.2854
1.7158 19.2020 -40.1283
-2.1034 8.6391 7.1247
-14.1564 -7.8807 -26.1331
10.1812 -10.3385 -18.4357
6.5357 3.0264 14.8086
0.2362 2.2466 37.2974
-5.6191 19.1928 -43.4039
-0.0618 -0.0272 47.2668
-9.1812 0.3817 5.7706
10.2438 -5.3578 -5.0166
8.7000 -13.1747 -24.2496
-1.6956 -6.3347 17.7415
-19.2286 -2.6276 -40.7144
-2.2447 -0.4255 37.1805
0.9785 2.4780 35.4542
17.2148 7.6664 -38.1551
-4.4535 -5.4540 15.5417
-12.6905 0.1776 -10.1636
-18.7550 -1.9502 -38.2067
1.1009 -0.2413 42.4472
5.4298 5.2578 13.1897
-5.5681 -4.6623 14.5364
-8.8605 -2.5791 5.5925
-9.5015 -3.2191 1.9364
-7.8755 -7.4886 -1.8650
-0.2615 12.2314 -8.0821
6.4659 -15.6766 -29.5705
5.0759 -4.6609 16.2245
1.5852 2.5987 33.7258
-10.5976 17.5609 -45.7348
-10.7543 12.5388 -27.5748
-12.0537 10.3272 -24.6348
3.7753 14.9988 -22.7875
-0.0636 -14.2429 -17.2208
13.4895 4.7252 -17.4487
-17.5971 1.2224 -32.6723
-1.7911 18.7954 -38.3178
-7.5697 -3.2383 10.1188
-19.1516 6.7083 -44.7412
7.7136 4.2873 7.4270
6.0460 5.6503 9.9278
-0.0255 -0.2585 46.3927
-9.6050 15.0490 -33.6435
13.0108 1.2388 -11.8828
7.8468 -9.6610 -9.0465
-4.6614 1.2184 25.6557
0.8039 -4.4332 27.0777
1.1503 1.8455 37.6811
-7.9905 16.2150 -34.6622
8.5927 -0.8207 8.3059
-9.0870 -17.7666 -43.2085
-2.8981 2.5971 29.8704
16.5264 -6.2857 -32.8628
11.6305 -9.8524 -21.7684
1.3886 1.3065 38.9005
11.3856 17.3890 -46.9812
0.9131 3.0975 32.8833
0.0966 -1.3860 41.2535
-0.1927 7.3383 14.1791
9.4470 -17.1574 -41.5288
-14.4816 14.0241 -44.1346
1.8259 -5.9489 19.2651
2.7142 -1.1466 34.1698
8.9913 15.1389 -32.5273
8.5464 -6.4751 -1.2041
-12.2713 10.6623 -26.3799
8.6823 -10.8496 -15.6418
0.8713 -11.1962 -3.5143
1.3039 -14.3772 -18.0998
-5.0573 3.2442 20.2405
-9.8152 6.3372 -5.5757
-10.0551 6.5411 -6.9961
3.5767 -13.8564 -17.5283
1.3842 -4.3682 26.7283
-1.1759 0.9672 40.6477
3.3412 -9.7480 0.6956
7.4485 0.3470 13.6522
-5.0131 -13.3270 -17.2012
-2.8087 0.1284 34.7832
-14.1599 11.3837 -35.0783
14.3151 -13.0328 -40.4952
4.0406 2.5000 25.9585
4.9645 -5.9781 12.2232
14.2812 -6.1217 -23.1117
-4.4598 -3.1056 22.8511
-8.6367 18.9092 -46.9964
3.0383 -16.7312 -29.7848
10.7682 12.1540 -26.2966
-10.4625 -13.0130 -28.3863
0.6571 0.3214 44.2465
-1.0150 -1.8055 38.1516
5.0679 -3.1979 20.3127
8.7049 -17.1574 -39.9501
9.9046 -7.6024 -9.2271
-18.3229 -9.6775 -46.6932
10.3419 6.5149 -8.0307
-1.3223 -15.9573 -25.2682
12.6275 2.4025 -10.9021
11.9640 5.2897 -11.9355
-0.1516 0.4567 45.3850
-10.8101 -15.4672 -38.2719
-2.4316 -10.3956 -0.9945
-5.6412 -4.3069 15.2866
1.9975 -0.2306 38.4266
7.4184 -0.4637 13.7600
-1.9120 10.4439 -0.7276
1.9578 -3.6159 28.8680
5.5216 13.8519 -20.2636
0.5061 -1.6007 39.9370
-12.2561 3.5289 -10.4470
13.0576 -1.5603 -12.2508
-0.0628 -12.8459 -10.8656
9.1491 -3.0152 3.7508
1.5736 -10.8893 -2.4783
1.3265 -1.8282 37.2985
-3.2995 0.6191 32.3020
18.6506 7.5324 -43.9303
5.7044 -0.1194 21.6179
1.2202 0.4866 41.5979
1.6596 -18.7397 -38.0108
8.1823 -17.3633 -39.7467
-15.9449 -7.0470 -31.7315
-7.0015 12.3430 -16.9820
-7.4473 -15.6663 -31.3386
-7.2965 -12.6795 -18.9767
-7.3790 -3.7608 9.8967
6.3572 -0.8996 18.3655
1.5826 -9.7242 2.7546
-13.0037 -0.3626 -11.6057
7.6130 -1.8367 11.9471
-5.2183 -8.5386 2.0503
-8.8457 -5.1295 1.0564
2.6101 20.0340 -44.3358
-12.8204 -10.8409 -28.8054
-14.1566 -13.2071 -40.5024
1.1313 2.7347 34.1107
-1.8315 -14.5048 -18.9357
7.0652 -14.5896 -26.1705
5.0141 2.6408 21.7934
6.4909 -7.0628 3.9356
-2.2395 4.0894 26.3635
2.5221 -8.9159 5.4218
-13.8463 3.4806 -17.3759
-3.9798 -15.0427 -23.2130
-0.0603 3.3388 32.3826
5.1823 -9.8070 -2.8862
-2.6949 -6.5173 15.4907
7.9216 12.0904 -18.1824
-13.4742 7.2589 -22.0525
8.6566 0.7155 8.0590
12.5829 0.6716 -9.7499
0.0085 -0.0087 47.5187
-0.5494 13.4720 -13.7641
-2.7908 0.8401 34.3152
0.5652 9.8117 2.8645
3.1576 2.5537 29.0998
0.0541 -0.0290 47.2947
-3.7758 -4.7760 19.8773
5.0467 -1.6480 23.4225
-4.7897 -4.0361 19.0799
-5.5853 2.0139 20.5640
-6.2425 12.7927 -17.1824
-15.6351 -1.1172 -23.7349
1.6536 -16.3595 -27.2285
-16.2877 8.6118 -36.2420
0.2462 3.6507 30.9285
-0.3273 1.5080 40.5542
-4.2085 7.3786 8.9307
-15.9571 11.4747 -41.8387
-6.7301 13.0568 -19.2509
7.8100 -3.8363 7.9897
2.4715 2.6560 31.0694
3.5678 5.8507 16.3994
-6.7068 7.5951 1.4791
-18.4223 -3.1348 -37.4379
-3.4095 1.7374 30.1659
-9.4134 -6.1170 -3.4968
9.0984 14.2935 -29.5064
14.8048 -4.4667 -22.7751
-9.0103 -1.9392 5.6454
-14.1398 0.7012 -16.8303
-12.5248 15.7273 -43.8893
7.6711 6.1110 2.9569
-13.5768 -4.2716 -17.1749
-0.1460 -0.2573 46.2285
14.4033 -10.2323 -32.8014
-10.1102 -5.0874 -3.9145
2.5801 8.0316 9.1974
-0.4349 -7.1816 14.8433
3.0278 -2.7616 28.9310
1.1071 3.3739 31.4201
-3.3886 -9.1595 3.1454
3.1278 -6.8581 13.2835
-1.3058 2.4438 34.9691
-2.8799 -18.2784 -36.6043
-0.3451 -0.4250 45.0834
-7.0283 -2.5436 13.5713
-12.4024 -10.9923 -27.8185
0.3861 -7.3079 14.2824
2.9146 20.2474 -45.4855
-0.1639 -0.8753 43.5230
0.3196 -9.3353 5.0806
-1.2203 8.3681 9.1031
1.4563 -6.4319 17.5731
19.4099 7.4287 -46.9724
-10.5818 -17.4503 -45.2669
-4.5925 -0.5172 26.5495
-0.0538 -0.0780 47.1430
-5.5800 -3.8986 16.6072
-14.4637 -6.2872 -24.1724
5.2482 -1.7647 22.3852
2.0839 13.7381 -15.6388
4.8730 -13.7162 -18.6453
-17.3336 -2.7076 -32.2369
8.9777 -13.9550 -27.9130
18.4006 -7.2972 -42.4770
-3.2380 -9.1818 3.2827
-6.6364 -1.4810 16.6407
-10.2800 -6.0694 -6.7347
16.3571 6.9763 -33.3236
5.8802 -10.0223 -5.2878
-17.6519 7.0482 -38.8934
5.9816 -12.9609 -17.3645
4.7784 16.7001 -31.4475
10.0892 -11.6717 -22.6112
0.5886 -10.2663 0.7936
3.1068 3.3470 26.7994
18.4491 5.0595 -39.4542
1.1359 8.9524 6.5212
-6.5171 -12.1272 -15.0573
5.2029 -4.2290 17.0722
3.7215 4.5691 20.7659
16.2587 1.2862 -26.6216
-13.0753 12.6187 -35.0914
3.8160 5.7701 16.1035
4.3359 -20.0241 -45.6316
-0.2314 4.7095 26.1236
12.0029 -10.7818 -25.8248
4.3569 10.2590 -3.1311
6.8638 10.9906 -11.3740
16.1578 -5.9646 -30.7800
7.0694 7.6065 0.3331
0.0502 6.5489 17.7807
-0.8344 -7.9002 11.4342
0.1823 3.3289 32.4073
0.2053 18.9404 -38.5955
-16.6696 -1.5959 -28.6066
12.2515 -12.7672 -32.9232
-8.1353 12.1145 -18.8110
-4.4248 8.5804 3.6550
9.9331 17.9523 -45.7631
3.6149 2.3421 27.9790
-7.0606 9.1810 -5.1152
-3.9788 -8.5618 4.6238
14.1888 -4.4202 -20.0338
-2.8690 6.7864 14.0556
16.5378 -6.1325 -32.6663
0.3575 -5.7963 21.1554
-0.0880 -14.0564 -16.3732
-5.7654 -2.2052 19.4931
-11.7034 -10.0848 -22.7071
0.9536 -0.6838 42.2358
-3.6971 -0.8010 30.3651
6.3739 4.6790 11.6035
2.3959 -4.8109 23.1244
16.8634 3.5179 -30.7930
-8.0857 0.5241 10.7131
-12.7179 -10.8389 -28.4442
-4.2574 5.4166 16.2320
-1.7571 12.6802 -10.6624
-12.4243 6.1694 -15.5319
-10.2728 -12.1410 -24.7766
17.4116 0.4416 -31.6610
-1.4868 -6.1142 18.9485
-16.0052 13.0095 -46.2564
-7.4516 -8.5467 -4.0096
-0.0348 -4.0320 29.2307
0.3843 -11.7588 -5.9482
6.7542 10.7716 -10.2651
-4.9546 -11.5709 -9.6873
-0.9006 13.3817 -13.4401
-0.0195 0.0121 47.4696
-2.5402 -1.7874 33.4441
-8.8579 -9.3993 -11.1812
-3.6508 -1.0269 30.3212
11.5546 -10.2121 -22.5782
7.4863 -9.4038 -7.1071
-8.6453 10.6285 -14.7531
0.1841 0.3325 45.8452
7.9242 -4.5164 6.0809
-5.4852 4.2628 15.9709
8.2448 3.5399 6.7554
3.5545 -4.1581 22.6884
-1.9299 -0.4445 38.5649
8.9952 -3.7688 3.2061
3.2073 4.4977 22.4438
-15.8916 -5.2038 -28.4977
3.3146 -0.6611 32.1984
9.9808 3.7916 -0.9968
17.1414 6.5922 -35.9741
-0.9829 -0.4473 42.6615
-9.3673 -4.8710 -0.4573
3.4344 -0.7920 31.5399
1.4774 -7.7708 11.5897
4.8969 3.2889 20.7389
2.2618 1.4928 35.2458
0.9084 13.4455 -13.7321
-2.4207 -0.7879 35.9932
5.9869 9.8796 -4.9790
2.0627 12.6113 -10.5599
14.0334 -14.3382 -43.6970
-9.6610 -10.9661 -18.9121
2.6509 7.1546 12.8638
-6.5843 -6.2411 6.3027
15.3280 3.7331 -24.1950
-9.3912 9.6543 -13.6973
-9.1074 16.6240 -38.6578
-0.9064 -1.8760 38.0959
6.9531 -15.4583 -29.5359
4.1129 1.2343 28.0393
-7.5784 0.4810 13.0288
2.0457 -2.3466 33.4117
-0.1631 -0.1243 46.6412
-0.2992 0.5194 44.8472
-4.0376 -7.5588 8.5890
16.5246 -5.8336 -32.1469
-1.7533 -0.1164 39.5805
7.2196 -1.1570 14.3111
-7.5597 8.9602 -5.7575
6.0606 6.0427 8.6403
-3.9341 -2.2127 27.0403
2.6036 3.0715 29.2566
8.4693 0.8292 8.8609
-15.0393 -10.9760 -37.1264
-5.5194 -2.9285 19.1497
-4.1696 5.8443 14.9142
1.0107 6.4998 17.6497
-5.1577 18.8502 -41.3319
-0.2929 -1.7501 39.5016
-17.6359 -2.2202 -33.2893
2.5456 -14.6737 -20.1772
0.1748 4.9401 25.0863
-2.8291 2.8575 29.2812
-11.8809 -0.8634 -6.6174
-11.2641 -17.2439 -46.1264
2.4910 2.6337 31.0825
-2.3555 3.8199 27.1582
0.7018 -0.7451 42.9179
17.7986 3.4277 -34.8840
-2.4368 4.7983 23.0918
-1.5425 -3.8953 28.5145
4.7174 8.7690 2.2757
-2.2290 -12.1278 -8.5221
-2.1162 -2.6200 32.2528
-3.2506 1.0466 32.0389
4.7048 4.3557 18.4064
3.1479 -5.6088 18.3146
18.5097 4.3518 -38.9269
-7.0752 2.1310 13.9592
-12.9547 -15.4704 -44.2209
13.9803 -1.7770 -16.5373
3.3198 1.8936 30.1873
16.3573 -6.1812 -31.9749
0.2756 -0.2843 45.7727
-2.6093 5.2811 20.7768
-14.5407 -0.5994 -18.6312
-1.3733 7.9393 10.9200
-3.5191 13.0331 -13.8400
6.6121 13.4586 -20.6422
3.8142 14.7405 -21.6926
0.0567 -0.0679 47.1718
-9.0087 1.4948 6.0309
5.3087 -4.8605 14.8300
1.2213 -3.0799 32.5016
-5.0309 -6.7450 9.2941
-13.7333 15.4417 -46.4369
6.5737 4.0655 12.4117
-11.0497 5.9468 -9.5112
-1.5780 -11.8710 -6.9048
9.5696 -7.0468 -6.4898
8.2993 4.6258 4.3502
-2.7426 -1.6323 33.0547
-1.9258 -1.0810 37.5273
-9.2130 4.7440 0.4317
6.8389 -6.4608 4.7742
-8.0009 7.4545 -2.1739
11.8247 13.9897 -35.7573
-1.3889 4.2770 27.1168
10.2787 -5.3996 -5.2458
12.3075 -9.1572 -22.2133
-2.4976 -4.2203 25.2648
1.4187 4.1883 27.4572
-6.7991 5.6077 7.4804
-9.4493 -6.0208 -3.3974
8.4743 16.1437 -35.3710
-18.5920 -3.3798 -38.3915
-5.6718 -17.8806 -37.7635
0.5801 -1.3294 40.9759
-4.1281 1.2314 27.9766
11.8807 -1.9724 -7.2136
-15.7463 12.3088 -43.3483
19.0661 -0.3319 -39.1751
-13.5844 2.8525 -15.5722
15.8724 -1.1623 -24.8264
1.1401 -7.7424 11.9722
1.4948 -3.1608 31.6681
2.8157 -5.7368 18.5021
-7.8258 5.3278 4.5052
3.3243 -1.6389 30.7130
4.5926 4.3703 18.7333
7.6611 4.6504 6.8033
4.5044 13.0674 -15.3051
10.3788 17.6876 -45.7206
-9.5272 1.6945 3.5524
-8.2273 1.2048 9.7472
0.7919 1.5908 39.4898
-4.5005 10.1938 -3.1183
9.8962 -17.1710 -42.5857
10.1899 -6.7663 -8.0711
2.3160 -10.8168 -2.7492
9.8420 3.1906 0.5064
7.4304 0.0720 13.7698
1.8187 -8.0535 10.0142
2.6540 6.2255 16.7864
18.2107 -1.5260 -35.5613
14.2178 4.1243 -19.7725
-6.5880 -8.0922 0.1035
0.3921 -0.3550 45.1678
6.5641 -12.9172 -18.3412
-13.9980 12.8607 -38.9024
-11.7104 -1.8218 -6.3400
-1.1457 -15.4087 -22.7174
-0.5439 5.7312 21.3843
-3.1256 2.0204 30.6429
0.3510 0.0917 45.9239
-6.1052 8.9084 -1.5562
-2.8937 -14.7300 -20.7172
-4.6611 -2.5927 23.3098
-1.3935 14.0072 -16.4624
-10.5854 6.5682 -9.0985
13.6626 4.5684 -17.9627
1.9319 1.3611 36.8233
-5.3967 4.6007 15.3127
1.8424 4.4336 25.7325
-9.6452 -15.5658 -35.7311
16.6892 5.4623 -32.3121
-15.3482 1.3459 -22.5164
-1.8503 18.3209 -36.1961
-0.5407 10.3274 0.5280
-6.5047 3.2797 14.4342
-10.5905 -7.9934 -12.7873
0.1836 -10.8323 -1.7117
-5.5822 -8.4328 1.5677
-0.2698 0.4339 45.2499
-11.7343 4.6565 -9.8576
0.3732 -0.9616 42.8815
-1.8864 -1.3180 37.1051
0.0328 0.1239 46.9912
0.5100 2.6884 35.1259
2.8227 -0.3431 34.6385
-0.1639 -15.3022 -22.0434
-4.4469 -18.6620 -39.7010
6.7440 -1.9469 15.6411
-0.9972 7.6044 12.6837
8.9551 -14.2496 -28.9888
1.3878 -15.0508 -21.1860
-5.9645 -3.2157 16.7476
4.1501 8.5099 4.5020
-1.0920 -0.1513 42.5590
20.4837 -0.3054 -45.6216
-6.5664 -5.4044 8.8853
5.8673 -17.5895 -36.7792
5.4617 -0.7338 22.5043
14.7138 6.6459 -25.8737
1.6131 -4.1103 27.4869
-5.5520 4.4623 15.1699
-14.6249 -14.1213 -44.9108
-1.9232 11.6584 -6.1797
7.2724 12.1436 -16.8187
-8.8269 11.5470 -18.5459
-4.5596 -8.3722 4.2050
6.4293 0.8597 18.0654
-0.0371 -19.1544 -39.5640
-19.3734 5.3754 -43.8896
-2.6113 -2.3075 31.7211
0.9839 -10.1349 1.2511
-17.5578 -6.3857 -37.4194
-12.1287 5.2154 -12.4874
0.4130 0.8045 43.4600
3.9148 -1.8147 27.9446
15.3614 -9.7742 -35.2556
10.3615 -12.9068 -27.7220
0.5132 4.2430 28.1311
9.7948 -1.7813 2.2845
11.5666 -1.1842 -5.3203
2.3576 5.5143 20.2916
0.7441 -0.1187 44.1462
-3.3109 0.5087 32.3354
-0.6227 17.4095 -31.6767
0.4547 2.0030 38.2302
15.9012 6.1604 -30.0031
-2.4014 -0.0590 36.6464
4.3713 -20.3467 -47.0999
0.2413 4.7512 25.9318
-4.0080 -9.3346 1.3598
-3.3203 -16.1751 -27.5447
-7.9550 7.6016 -2.4811
18.4262 -5.4976 -39.9026
-0.1538 -0.0662 46.8124
-0.2772 1.7980 39.2977
-1.5817 0.1494 40.3466
19.5931 -2.8280 -42.4832
-17.1191 10.7749 -44.4468
0.0969 -2.0202 38.3733
-1.3204 0.4676 41.2019
0.3000 3.3761 32.1549
11.7932 14.6694 -38.0522
1.2000 -19.7923 -42.6311
-0.6963 1.0333 41.9057
0.1141 1.1017 42.5352
0.2151 -3.8309 30.1191
-7.6964 -4.8004 6.3090
-2.6557 18.3482 -36.7662
-6.5180 -13.0565 -18.8129
11.2624 13.1450 -31.1727
4.7155 1.4643 25.1115
10.9693 3.9792 -5.5099
-7.1740 15.6101 -30.5802
-2.5520 4.7011 23.2396
0.0450 8.3238 9.7064
-0.1796 3.0628 33.6167
-0.4666 4.3864 27.5067
-6.2386 1.3404 18.5457
10.7647 0.2486 -1.4103
7.7843 17.5482 -39.7587
0.5403 -10.0074 1.9816
-1.5706 1.9028 36.3501
-11.1807 -17.4986 -46.8933
0.5621 3.8534 29.8587
12.5934 11.5674 -30.2163
-6.4023 3.0254 15.3603
12.2884 -5.5551 -13.7754
-9.9544 7.6739 -9.6050
-8.5769 -6.4471 -1.2381
-13.8458 -3.9983 -17.9874
6.6801 -3.7214 12.7874
-0.7306 8.8589 7.1360
0.7346 7.8435 11.7361
12.2301 15.6396 -42.7457
-3.4122 4.2941 22.6228
3.8933 -4.5295 20.4026
10.0181 4.8799 -3.1198
19.2811 -2.0664 -40.6426
4.3211 4.4329 19.4119
9.5206 12.0155 -22.1664
-3.4960 -0.8562 31.2000
-11.6081 -2.3240 -6.2820
-3.7782 8.1706 6.6225
4.5428 0.6185 26.7173
-2.8833 11.6809 -7.1599
-0.0368 1.2841 41.7300
-3.6453 -19.4871 -42.6149
16.1490 -5.1933 -29.5969
2.9696 8.8735 5.0059
-1.5739 -2.5161 34.0729
1.4549 -1.1618 39.1041
13.5347 -1.6473 -14.4528
1.2182 2.0847 36.5899
-1.9870 -2.5518 32.8612
-0.3424 -2.1666 37.5955
2.0755 -1.5822 35.7016
-2.5684 0.3944 35.7528
4.8266 -8.5782 2.7967
-0.2006 -0.0106 46.6601
16.9871 -0.7755 -29.7848
-0.6069 -5.0472 24.4480
-2.1974 -2.7764 31.4662
-10.0670 -3.7092 -1.2329
-2.1207 -7.8699 10.4948
-3.7500 -16.2180 -28.1521
-12.2797 6.0931 -14.7880
-6.4238 -10.3182 -7.7192
-13.7310 -1.8349 -15.4469
-5.4666 -12.1100 -12.8701
0.0512 -2.1362 37.8533
1.3731 -1.3892 38.6884
-2.6004 -5.2225 21.0336
-3.4859 -1.2600 30.7118
-9.3385 3.2351 2.6140
-2.1310 -19.3215 -40.8570
17.5971 -8.6066 -41.5411
-7.0518 1.8000 14.4652
-1.9240 -0.6503 38.3350
-1.2789 -3.0697 32.4457
-13.0087 4.1516 -14.5463
-13.4750 11.1080 -31.8702
18.0171 -3.4373 -35.8683
-10.6041 -13.6233 -30.9632
-0.5031 2.1841 37.3781
14.5814 7.4636 -26.9449
-1.4224 -2.5103 34.4481
-8.0211 -1.0985 10.7438
6.0527 -15.6356 -28.6995
-5.7627 -2.2165 19.4858
-3.4927 5.0324 19.7070
0.2713 -13.5914 -14.2687
-5.9531 7.1704 5.1772
-14.4042 3.6772 -20.0557
-4.1048 -0.7927 28.5555
18.5200 -5.8101 -40.7266
-11.2607 -11.0031 -24.0487
0.8925 6.2749 18.7405
-14.5026 2.4416 -19.3304
14.5796 10.0262 -32.9215
18.7788 8.7478 -46.6693
3.4918 5.3293 18.5894
-11.4322 -2.5042 -5.6669
7.0103 -12.7355 -18.5604
5.8235 9.6082 -3.5377
-4.3546 -0.5224 27.6221
-4.9277 -17.1759 -33.7155
-7.3315 14.5235 -26.4377
-9.8746 -17.2860 -42.9905
-7.6541 17.8210 -40.6591
1.3271 -0.2606 41.4216
-18.9076 -7.6339 -45.1872
-9.0373 -17.0857 -40.3562
-15.0613 8.8095 -31.8031
12.8407 -3.8388 -13.3959
1.9124 -8.7326 6.9057
1.9829 0.2053 38.5054
-9.2197 1.5132 5.0702
2.2250 5.6736 19.8496
-8.1453 12.1066 -18.8066
13.7537 3.7627 -17.2942
16.8600 7.1114 -35.6697
-0.7724 6.3775 18.3492
12.5840 -8.7830 -22.2381
20.4825 2.5798 -46.3418
7.4327 10.3505 -10.3955
9.6725 1.2706 3.1936
-9.0521 16.5410 -38.2060
-18.8279 -8.5884 -46.5689
0.4940 2.2501 37.0941
6.3252 16.8965 -34.5017
-8.6780 -4.3802 3.3519
8.2622 -0.9457 9.7418
-5.8832 3.3322 16.8154
4.7982 -2.4754 23.0122
-16.3614 -0.5519 -26.9003
0.4184 -1.0519 42.4241
5.1550 -7.5132 6.1231
-13.1920 -7.2007 -20.7977
0.4951 0.1801 45.1773
-0.3762 1.1222 42.1897
1.3367 2.8316 33.3294
-3.9670 1.6271 28.0684
11.5373 -5.8104 -11.1922
-7.3451 -1.4584 13.5071
0.9849 6.2547 18.7695
1.4522 1.3228 38.6378
-1.3893 0.6109 40.6698
-17.2536 7.6497 -38.2855
-8.8235 5.4400 0.4179
-3.3100 3.8364 24.5233
11.6361 -14.8626 -38.2964
-14.2782 -9.5064 -30.4606
-2.1868 -3.4798 28.8772
14.7121 2.8824 -20.6272
-0.9001 -0.9442 41.6396
-4.0514 -18.7657 -39.7626
3.4947 2.3710 28.3623
-0.3968 12.4207 -8.9594
-0.2435 0.8917 43.3691
3.8523 -2.2203 27.3467
-11.2242 7.7191 -14.3969
-4.3936 -6.8476 10.5618
0.7337 -1.8026 38.7202
-17.2344 0.1091 -30.8310
-6.6632 -18.5262 -41.9912
3.4509 -5.6668 17.3905
-12.1718 4.7592 -11.8808
-5.5380 -3.8703 16.8377
1.5911 1.8531 36.4631
2.8012 6.8152 14.0534
0.7497 -0.3009 43.8993
3.2415 -20.2423 -45.6863
9.7931 -4.6176 -1.6813
1.6199 -9.8556 2.1369
-11.4335 -12.4981 -29.4851
6.9270 -10.3345 -9.0242
-9.9104 2.1311 1.4589
1.7574 1.6121 36.7251
0.6476 -0.3426 44.2412
-10.1031 14.5582 -33.0404
-3.6850 -7.6894 8.7837
14.8483 2.5090 -20.9321
5.8959 -3.8899 15.4406
-8.1085 3.5110 7.3771
5.1222 7.4166 6.5695
0.0369 0.1889 46.6985
-9.7903 8.8766 -12.5454
-2.0756 13.8084 -15.9493
-3.5374 9.9851 -0.6166
-2.7322 1.3898 33.6289
15.5906 4.5875 -26.3579
-1.4183 16.1462 -26.1616
15.2536 10.8982 -37.7096
-8.9187 17.5294 -41.8995
2.8303 -0.3020 34.6251
-15.0630 8.1736 -30.3894
-5.3327 7.9947 3.8558
14.3069 -3.7414 -19.7001
2.5667 -8.5214 7.0878
-17.1016 5.0375 -33.5300
-14.3815 -0.1646 -17.8550
0.1468 0.2838 46.1204
-4.0738 19.8383 -44.5582
-1.2827 16.6211 -47.5741
6.3428 -15.7379 -47.5741
-13.4888 2.1121 -47.5741
-1.6595 -0.3071 -47.5741
2.1082 13.6515 -47.5741
0.5747 -2.9477 -47.5741
-3.3378 2.1193 -47.5741
-7.1113 3.2040 -47.5741
-1.5467 14.5058 -47.5741
3.1035 0.6890 -47.5741
4.6734 -8.3537 -47.5741
-4.2198 9.4066 -47.5741
11.3080 -5.0089 -47.5741
14.0694 -5.7554 -47.5741
-8.3736 5.1808 -47.5741
-9.4407 -7.9469 -47.5741
5.6337 -18.4627 -47.5741
-1.7555 -0.0682 -47.5741
10.7720 -15.1793 -47.5741
14.6384 -11.3560 -47.5741
-6.6055 -2.5229 -47.5741
17.7597 0.1379 -47.5741
-5.3006 -11.3055 -47.5741
-1.9870 -17.9565 -47.5741
-17.2529 -2.5093 -47.5741
18.8956 -4.3104 -47.5741
18.7162 8.2764 -47.5741
-0.0560 0.0944 -47.5741
7.2024 -6.7073 -47.5741
-0.5365 1.4920 -47.5741
6.6208 0.9284 -47.5741
-14.8460 8.0000 -47.5741
-6.4848 -11.7309 -47.5741
5.0170 5.8654 -47.5741
-11.9546 4.9919 -47.5741
-18.9862 1.3679 -47.5741
-0.6668 12.9815 -47.5741
3.7045 1.2595 -47.5741
-3.1331 2.6999 -47.5741
14.4208 3.1950 -47.5741
3.8891 14.4468 -47.5741
-2.6141 0.9410 -47.5741
4.3141 8.3906 -47.5741
-1.9913 -0.6870 -47.5741
-3.4609 1.7808 -47.5741
1.9441 9.3804 -47.5741
0.1382 -12.6880 -47.5741
-0.1356 0.7457 -47.5741
0.7155 -0.4884 -47.5741
-9.7689 3.4861 -47.5741
3.8573 -20.5531 -47.5741
7.9443 12.2265 -47.5741
-2.6340 -6.7346 -47.5741
15.8356 0.6768 -47.5741
17.8963 10.5181 -47.5741
-3.3644 -6.4410 -47.5741
-2.9407 -1.9297 -47.5741
4.1258 -8.4580 -47.5741
7.0785 6.3825 -47.5741
-7.3748 -8.1050 -47.5741
8.0761 0.9920 -47.5741
1.2944 2.9307 -47.5741
5.1459 -9.8271 -47.5741
0.0040 -14.7008 -47.5741
13.7992 6.7181 -47.5741
1.6945 1.5570 -47.5741
-1.7423 3.3215 -47.5741
-4.2585 14.2806 -47.5741
-8.5658 -17.8267 -47.5741
3.7818 -3.1471 -47.5741
19.2618 -6.4023 -47.5741
-9.7248 -0.7415 -47.5741
3.1764 4.8672 -47.5741
0.3007 -9.4082 -47.5741
-10.3789 -12.0776 -47.5741
15.2537 -7.7878 -47.5741
-0.9502 -1.9136 -47.5741
8.3497 -14.1004 -47.5741
-4.6691 -5.6762 -47.5741
-15.0969 8.6986 -47.5741
15.7511 -9.2446 -47.5741
13.3618 8.4066 -47.5741
-19.1183 2.1400 -47.5741
1.1838 8.3056 -47.5741
0.8392 1.2966 -47.5741
-5.8784 -17.7348 -47.5741
-10.0528 -12.6081 -47.5741
1.2851 -1.2480 -47.5741
1.1727 -0.5704 -47.5741
-16.5538 -1.8616 -47.5741
4.3311 2.8968 -47.5741
0.1281 2.4659 -47.5741
-9.1590 -13.2894 -47.5741
-5.9272 6.3246 -47.5741
-12.6743 -3.3338 -47.5741
-3.0018 -3.5593 -47.5741
-8.5770 6.9724 -47.5741
-10.2668 2.3202 -47.5741
3.2277 -17.2931 -47.5741
17.8804 0.3607 -47.5741
-9.6817 10.3279 -47.5741
15.4936 -2.2077 -47.5741
0.8264 1.2491 -47.5741
4.5597 -10.6160 -47.5741
-8.3998 -12.2053 -47.5741
-7.0245 -7.5865 -47.5741
-0.7954 1.0351 -47.5741
1.1509 2.1788 -47.5741
11.0349 8.7377 -47.5741
15.1856 -4.4869 -47.5741
-1.3205 -11.4863 -47.5741
2.4241 7.9319 -47.5741
-18.4838 -5.4972 -47.5741
-12.1943 -12.4658 -47.5741
-19.3879 -0.8018 -47.5741
4.2527 -0.0434 -47.5741
9.7139 6.5664 -47.5741
-4.4501 5.9522 -47.5741
18.7487 5.6709 -47.5741
-5.1024 1.2399 -47.5741
-4.8044 1.8142 -47.5741
-10.4154 -13.9160 -47.5741
-0.1698 1.6305 -47.5741
-3.1685 -2.1348 -47.5741
15.8305 -9.0901 -47.5741
-19.1233 2.4691 -47.5741
-1.6557 1.1515 -47.5741
14.3983 4.3163 -47.5741
1.1245 9.5531 -47.5741
9.2661 -17.3518 -47.5741
-4.0161 -0.1205 -47.5741
-7.8948 -15.3284 -47.5741
2.6108 -10.8964 -47.5741
-12.9547 -9.3607 -47.5741
2.6828 -1.1606 -47.5741
-0.1213 0.1365 -47.5741
-5.4928 0.1645 -47.5741
6.3184 -0.5468 -47.5741
-4.0544 -10.7603 -47.5741
5.7515 12.9615 -47.5741
2.0590 0.1578 -47.5741
-3.6488 3.6544 -47.5741
10.8465 -2.9126 -47.5741
-5.8471 -4.1180 -47.5741
-8.7208 11.0205 -47.5741
-11.1744 0.3541 -47.5741
-3.0916 -0.6957 -47.5741
17.2794 -6.5979 -47.5741
-0.6746 6.8930 -47.5741
-16.8858 9.5705 -47.5741
8.9378 8.0709 -47.5741
-7.0974 12.3271 -47.5741
3.5990 3.3156 -47.5741
3.7852 -1.9776 -47.5741
-6.4410 1.7993 -47.5741
-3.0461 -8.4874 -47.5741
-4.5672 -10.3388 -47.5741
8.6737 16.7432 -47.5741
-1.4835 1.4110 -47.5741
-13.3329 9.3945 -47.5741
3.9437 6.2896 -47.5741
-0.2441 -2.5584 -47.5741
4.0767 3.0045 -47.5741
6.8890 -0.5188 -47.5741
-3.4399 -2.6862 -47.5741
11.3532 -6.9400 -47.5741
-6.4891 17.9852 -47.5741
19.2582 5.4044 -47.5741
4.5541 -4.1301 -47.5741
5.0339 -5.2187 -47.5741
-8.8824 -18.0680 -47.5741
5.1133 -4.3646 -47.5741
-15.1633 6.0711 -47.5741
3.8426 -19.3249 -47.5741
-2.6574 -4.1079 -47.5741
-3.2329 9.3017 -47.5741
-6.5920 5.0093 -47.5741
-12.1928 1.5413 -47.5741
8.0271 -16.4669 -47.5741
6.0617 6.4905 -47.5741
1.5499 1.6899 -47.5741
-1.6087 12.8236 -47.5741
3.8090 8.0388 -47.5741
12.2484 0.7802 -47.5741
-1.3116 9.3145 -47.5741
8.0236 -3.6526 -47.5741
-1.6292 -2.2542 -47.5741
6.9507 17.1906 -47.5741
-1.6820 -18.4510 -47.5741
-19.9029 -0.1360 -47.5741
1.4647 -7.2154 -47.5741
-8.0878 -10.1611 -47.5741
-8.2757 -15.9904 -47.5741
10.4653 11.2707 -47.5741
15.1444 1.4150 -47.5741
-1.4870 4.2095 -47.5741
-14.9846 -14.4698 -47.5741
-9.1328 -6.7095 -47.5741
8.0303 17.9871 -47.5741
0.7660 -9.7296 -47.5741
18.4618 9.6099 -47.5741
11.9305 -3.9471 -47.5741
-0.8563 9.2554 -47.5741
3.7350 11.1448 -47.5741
-11.3930 0.8723 -47.5741
16.8839 -12.1398 -47.5741
-0.6249 -0.3835 -47.5741
-3.8586 3.6414 -47.5741
-7.6456 -0.1580 -47.5741
6.9565 -2.4721 -47.5741
0.1591 8.8791 -47.5741
-4.0445 -1.8802 -47.5741
-20.3179 0.8291 -47.5741
-8.8978 18.3525 -47.5741
17.4245 -10.0102 -47.5741
-14.8168 -8.5719 -47.5741
-12.4473 -6.7264 -47.5741
-1.6051 -19.0601 -47.5741
-7.3624 -15.7516 -47.5741
3.2837 2.5805 -47.5741
-0.6786 -0.0774 -47.5741
-0.1346 16.3208 -47.5741
1.2716 -14.9615 -47.5741
9.4898 -3.7518 -47.5741
5.5868 2.9794 -47.5741
-18.5413 -3.4576 -47.5741
-5.6977 19.3601 -47.5741
12.2696 -6.3673 -47.5741
10.3745 -12.3187 -47.5741
5.5057 -14.1020 -47.5741
10.5978 -11.9222 -47.5741
0.5365 1.8430 -47.5741
-14.5728 -10.8907 -47.5741
17.3283 6.8831 -47.5741
1.9807 -2.7993 -47.5741
-0.4653 -2.9258 -47.5741
-10.4911 11.5649 -47.5741
-0.1978 -7.6950 -47.5741
-3.7170 4.1899 -47.5741
10.4988 -0.8880 -47.5741
2.3816 -9.5729 -47.5741
-6.2175 4.2549 -47.5741
4.8407 2.2629 -47.5741
-0.3501 4.6926 -47.5741
5.6135 -12.3104 -47.5741
8.3313 5.2317 -47.5741
-2.7000 5.4738 -47.5741
-19.2772 -7.1082 -47.5741
0.7841 1.6555 -47.5741
2.9247 4.3062 -47.5741
10.7900 -9.1013 -47.5741
-9.1238 -13.6403 -47.5741
2.3156 -20.2777 -47.5741
1.6023 -0.2592 -47.5741
-0.1938 0.2144 -47.5741
5.1688 1.6449 -47.5741
