ply
format ascii 1.0
element vertex 1024
property float x
property float y
property float z
end_header
8.4312 -18.5032 16.4792
-15.0896 6.1793 21.2167
4.8832 -3.5586 33.2885
6.5721 8.2433 27.9954
45.9978 -14.9421 -16.4898
2.5339 14.6977 22.8531
62.8980 -23.8220 -38.7130
-24.4989 32.5368 -7.5095
0.4563 -51.3363 -19.9883
-2.2991 0.7099 37.5653
1.4601 6.5453 32.5077
-38.1316 -4.6016 -4.7801
-1.0574 0.4690 39.0348
22.4872 50.7379 -24.8807
-31.2033 60.8963 -40.0858
16.3193 28.9093 1.3489
6.5645 5.0157 30.6785
7.0838 12.4682 23.5288
18.9877 57.5351 -30.8669
-54.9908 -9.7338 -25.2898
-28.2774 24.9085 -3.9276
14.8154 -7.4365 20.8976
15.3754 -48.9239 -19.9233
34.1760 -10.3748 -1.6135
-0.4764 0.3478 39.7017
5.9629 -4.6073 31.5323
-46.5550 -48.4294 -38.6179
-29.9339 27.3447 -7.2915
-3.5086 4.1514 34.0023
-25.8569 40.1819 -15.8060
26.2723 -33.9166 -10.0654
-1.4256 -43.2874 -10.5465
10.1982 -8.3447 24.8966
-22.1851 6.7559 13.1184
-1.2405 -20.9795 15.6764
11.5005 5.0724 25.6113
6.7644 28.3466 6.1182
-0.2225 -1.9850 38.0461
7.4947 -40.2710 -7.7843
13.9895 12.0058 18.7125
-12.7366 2.6561 25.0925
5.8270 -53.2632 -22.6261
-10.1010 -56.9152 -27.5939
24.4899 35.2425 -10.0821
-9.9807 -12.8532 21.2550
-49.1053 -32.8927 -29.1221
-35.7193 17.3372 -6.3047
11.7226 34.8941 -2.9009
19.1395 -8.1561 15.9249
29.7522 -52.8914 -30.9821
14.3316 -41.8547 -11.6398
-13.5974 42.5737 -12.1714
0.0916 6.4127 32.8521
-20.5617 29.7949 -2.1841
6.3279 -48.7671 -17.4450
30.1708 14.4645 1.0413
-24.0019 46.8290 -21.4978
-4.2250 -57.8891 -27.8744
-41.7975 39.4820 -27.2316
9.0644 28.4588 5.2655
-37.8562 38.7515 -23.3231
51.6137 -22.1582 -25.6701
10.4678 43.9968 -12.7977
41.7326 -31.5719 -21.1543
38.4128 15.7201 -8.4224
34.1807 37.5344 -19.3147
6.6838 64.2090 -35.5348
12.8419 -47.9844 -18.0297
-18.0022 -6.1171 18.0324
22.3556 -24.4534 1.4256
59.7818 -23.1934 -35.0259
-7.6075 21.1137 13.9988
35.3634 37.4450 -20.1836
67.6026 -6.9105 -39.5326
-0.1344 1.1738 39.0057
-19.1755 47.2989 -19.6351
28.4661 -5.5837 6.2758
-24.4105 53.4736 -28.7432
-31.7140 -28.9963 -10.1475
-57.6887 0.5952 -27.4612
60.6447 -16.6525 -33.5747
-12.0829 -34.1841 -2.2494
-13.5841 10.4345 20.2483
19.1735 -6.4165 16.6144
-63.2078 -25.2828 -39.6759
28.5151 -14.2443 2.9044
53.5609 -37.1928 -36.3016
41.4185 50.8281 -36.7235
-12.6987 -3.8751 24.7793
-56.2011 -16.0415 -28.3479
0.7214 -60.9180 -31.2609
-12.1381 48.6714 -18.6049
59.8572 -4.5636 -30.2125
-3.1771 1.3417 36.3390
-11.8076 55.6617 -26.5303
-30.5996 26.6158 -7.3055
50.9007 -33.8876 -31.5281
-1.1162 19.2813 17.6789
37.8616 -21.1366 -10.6066
43.9473 -9.0761 -12.3858
49.7133 -23.9892 -24.5288
-18.0021 -35.9608 -6.9053
-1.0050 -2.7952 36.9017
-21.8441 18.5815 6.6644
-13.8040 -13.4740 17.7069
41.8346 35.7053 -24.2952
-4.5051 -38.4375 -5.1240
57.9519 -11.4784 -29.0914
34.4651 -19.0964 -5.9489
-3.3413 -8.4478 29.7102
-7.3415 -22.9997 11.9987
1.7349 1.3924 37.7789
-25.6096 -31.7893 -7.6188
24.9601 13.2671 7.1480
-35.4522 42.9178 -25.0795
-23.4785 -34.0937 -8.2941
-3.5700 -31.3706 3.2594
-13.4365 40.5278 -9.8246
-10.9374 7.5839 24.7409
8.7221 4.0986 29.0603
19.8717 2.5400 16.8324
63.2253 18.6637 -37.1421
4.7053 -2.7903 33.9612
43.6651 -51.5865 -39.0982
-12.8678 2.5318 24.9702
-3.7446 -60.8243 -31.2811
20.8696 -30.3351 -2.9127
23.7644 -59.2904 -34.7347
-17.0213 21.8980 7.7734
17.8352 14.0286 13.7060
-2.8940 12.4909 25.3145
39.5919 23.4444 -13.7243
-18.0286 27.8243 1.3994
16.7672 -7.5351 18.7740
61.8789 28.3929 -39.6821
-1.6442 -59.9465 -30.1397
-7.2888 8.1539 27.5317
7.3882 -61.6514 -32.6374
7.2745 53.7446 -23.3950
-10.0644 -3.5067 27.8598
9.9264 -29.4387 3.8544
-7.4071 18.7138 16.7229
2.6508 2.0603 36.4466
-51.9080 -7.2009 -21.2430
6.0921 -41.8361 -9.3309
1.1012 -1.6317 38.0800
2.5653 -28.5092 6.7276
-4.1962 -0.9464 35.3359
37.4642 8.5939 -4.8141
3.9423 6.4717 31.4824
-53.9936 -40.6354 -39.0872
-6.6604 32.0752 1.8640
1.5867 -48.5803 -16.7748
2.5274 -16.4370 20.8351
-30.1280 -60.6222 -39.2281
-12.6303 -6.2749 23.8074
-21.7641 5.7527 13.9175
19.3510 60.7714 -34.6197
-23.5774 -41.8186 -16.0702
29.4593 -61.8687 -40.2024
60.8553 -12.7303 -32.7315
-9.6300 36.5613 -4.0744
47.9987 1.4272 -16.0852
1.4391 -21.3892 15.1808
-48.5342 1.8004 -16.7293
-7.4702 8.2128 27.3373
-5.0284 18.8987 17.3936
-43.2311 40.9911 -29.6765
2.0150 5.3285 33.6950
-23.0439 -38.7287 -12.6107
-44.9488 26.8355 -21.1785
3.5876 -8.5536 29.4856
-1.7227 4.1148 35.1485
-28.7999 -10.6983 4.2596
14.6635 -1.6372 23.0412
17.4164 -14.3257 13.8709
1.2689 -6.6831 32.3944
20.6604 23.7671 3.3551
8.3442 7.8207 26.9442
3.1185 -23.0589 13.0269
-42.1120 -12.8906 -11.4050
-20.9854 -47.9198 -21.1353
-10.2682 -62.6089 -34.2285
2.4013 -0.3510 37.5410
-4.0883 6.8221 31.0408
2.0117 -2.1868 36.9005
34.9931 55.9714 -37.2450
28.6831 47.6057 -24.9762
16.8393 -48.9881 -20.5331
23.3692 -35.8526 -9.9413
-27.5702 -38.8242 -15.6120
-49.2390 45.5128 -38.4699
1.9060 -6.3982 32.5431
-27.4347 1.3285 8.0891
-31.8438 48.7841 -28.1264
-1.6008 8.0697 30.7190
-5.9849 7.9245 28.7151
18.4726 25.2126 3.6328
53.4310 34.3375 -34.3084
-31.0536 20.9365 -3.6555
-4.7002 45.5763 -13.4954
-1.7718 -27.0280 8.5371
-31.6728 22.2782 -5.1505
-11.5109 -44.2731 -13.4095
-1.5108 -5.4694 33.7214
1.6179 46.3094 -14.1066
-15.4373 -53.5132 -25.1131
-17.3678 -24.2364 5.3251
-7.8480 -43.8324 -11.9798
-3.2911 -2.0807 35.8157
36.2185 -49.7123 -31.9484
-14.2086 -30.0532 1.2955
-13.0310 5.1827 23.9007
-53.6809 -17.8898 -26.1576
-14.4049 0.4708 23.4435
6.4871 13.9815 22.2666
7.2822 12.9734 22.8966
-4.8370 -26.8969 8.2520
-7.6802 -18.6157 16.7095
-16.8834 -21.0622 8.6455
-1.9444 -1.7051 37.3537
-21.9902 -15.5829 8.6950
12.1003 -1.8023 26.0061
-16.9402 6.3040 19.1356
-2.6753 5.5325 33.1673
60.4527 26.2784 -37.1359
-36.0368 -3.2072 -2.1583
7.8428 16.2687 19.1529
-2.7642 -29.4782 5.5713
29.8374 17.1065 -0.0578
-0.3426 -7.2396 31.8707
-43.7014 44.0567 -32.5931
25.2248 -17.0476 4.5860
-13.4081 -9.6438 20.9694
-28.1068 -36.3228 -13.6242
37.8801 -11.2043 -6.0670
-0.8951 -11.1312 27.2608
1.5292 8.7411 29.9581
-35.9741 -17.8611 -6.8453
-13.0927 42.2900 -11.6750
-30.0966 -12.0854 2.2487
4.1871 11.5595 25.9348
56.7605 4.9913 -26.6234
29.3293 -50.8965 -28.6969
-63.0802 -26.7875 -40.2118
5.1751 12.2361 24.7691
-5.7306 -24.8613 10.3870
-52.9803 -19.7365 -26.1031
-41.0537 23.5414 -15.2673
-3.4750 -2.7282 35.1990
-17.6066 5.4476 18.7181
-8.2279 -0.3167 30.7106
-0.6325 0.4079 39.5103
0.1921 -34.4884 -0.1702
-53.9727 -4.4264 -23.3000
-26.1217 31.6001 -7.8272
1.7317 1.8755 37.3930
32.9424 -4.4122 1.3028
15.5832 -41.4451 -11.6839
-4.2947 -23.9705 11.7526
18.2682 25.7773 3.2345
-40.7692 -14.8119 -10.6237
-5.3366 -3.7632 32.7149
4.6368 52.6370 -21.7556
38.2799 -22.2942 -11.7085
-3.6102 -8.9389 29.0564
-12.7968 -11.6004 20.0801
5.7005 15.3594 21.1257
13.4213 14.5455 17.1168
-32.3223 2.3187 2.2805
-34.8419 21.3014 -7.6374
-22.3332 35.7198 -9.1540
34.0293 55.9330 -36.6114
0.2018 -11.5856 26.7665
30.8539 -9.5459 2.4081
-1.2872 11.0165 27.3497
29.4491 41.5631 -19.5182
52.7689 -36.0302 -34.7589
-8.7676 24.2043 10.1163
41.3260 -33.9552 -22.5148
-20.1666 23.8118 3.6935
15.7904 -48.5936 -19.7018
4.8203 -1.3255 34.5153
36.5729 29.5541 -14.9109
0.2177 1.6568 38.4300
2.6653 -8.4791 29.9412
-57.6436 12.7960 -29.0549
-6.0640 -6.0473 30.3225
-44.5305 46.6460 -35.4559
61.1516 15.8080 -33.8950
-0.6899 2.1559 37.7330
15.2223 -45.6701 -16.2266
14.0353 -29.8009 1.6509
-9.9014 42.5479 -10.9863
-1.3676 53.8855 -23.0047
13.0265 -34.6129 -3.1036
-4.7557 -2.4166 34.1210
26.4353 26.6070 -3.7198
-31.7526 8.2389 1.8115
-9.0748 -4.5995 28.4291
9.4318 27.0596 6.6902
35.7668 -28.0183 -13.0442
32.1903 9.4482 0.9363
-9.3037 -29.6923 3.7973
-3.0537 -4.8942 33.6103
-2.3030 11.6458 26.4324
13.8635 27.8576 3.7963
21.2434 11.5921 11.9311
19.1905 -43.1030 -15.0997
-12.1376 55.2812 -26.1747
15.2463 -17.8503 12.7842
-14.8998 -16.1037 14.5906
-3.3295 0.2414 36.4690
-18.0943 64.4649 -38.3578
1.6366 -0.8793 38.2102
-0.3450 3.6524 36.0803
59.1820 -26.0975 -35.6814
-2.4088 9.0644 29.3640
27.0744 -61.8295 -38.9946
7.4814 -16.9826 18.5682
44.3593 18.3256 -16.0566
-8.2772 -42.9422 -11.0426
-0.7446 -3.8558 35.7765
-6.8174 3.0309 31.6201
-27.7778 -1.3554 7.6845
-10.7880 17.1285 16.5861
4.7932 -7.9203 29.5066
-10.5975 32.2286 0.4916
-3.5119 8.2942 29.8014
-47.3785 -13.0361 -17.4018
-27.9611 7.9062 6.2184
15.7012 5.4002 20.8660
-8.4719 11.1625 23.9130
35.0600 50.3261 -31.7458
23.7778 2.2619 12.3019
24.3408 53.5069 -28.7449
-35.1659 5.8346 -1.5319
-24.9035 0.2641 11.1025
-1.2911 2.0733 37.5226
7.8902 16.1757 19.2269
37.7910 -16.1107 -7.9247
-10.8377 50.8227 -20.7259
-23.9142 -16.7438 6.0586
-2.0730 -9.8531 28.5526
2.4630 -0.6659 37.3944
-16.4812 -21.0212 8.9772
-6.7888 -0.0061 32.4105
2.5525 -10.1420 28.0945
-3.5870 1.1466 35.9661
-16.3583 12.7120 16.0284
-19.2114 -22.2577 5.8129
25.1678 -51.7738 -27.3144
-22.4056 23.3002 2.3749
-4.4672 18.7690 17.7028
41.9439 -9.9549 -10.3091
5.9355 4.4989 31.6354
-18.1812 -48.1892 -20.1842
27.0207 11.4479 5.8792
-34.4819 30.8755 -14.0446
-17.4604 26.6626 2.9091
21.0550 -20.2860 6.0064
4.2742 -34.1297 -0.0612
-6.0970 0.3865 33.2098
0.0890 -19.6885 17.2377
-15.9252 25.4564 5.0775
1.0643 -24.5839 11.4529
-23.0917 -62.1002 -37.5326
-35.0489 -16.7890 -5.3144
7.8604 6.1718 28.6408
-41.1579 -20.4518 -13.6614
40.0320 50.0086 -34.9491
13.8963 -1.9806 23.8855
5.0040 20.4080 15.6807
-18.5666 -23.0940 5.5426
-23.9077 -6.9070 11.1254
-40.6087 -44.9334 -30.8403
34.1432 28.8880 -12.2091
3.4624 0.0289 36.3229
-13.6906 21.1499 10.7622
-28.4202 -33.8522 -11.5928
44.4437 51.9333 -40.0024
23.0586 0.1120 13.2737
10.2520 -5.9458 26.4559
14.8942 -33.5991 -2.8324
3.9818 4.6884 33.1605
4.0784 -42.0917 -9.3443
1.7624 49.2856 -17.6110
-29.5324 -32.4043 -11.1722
56.8076 9.0234 -27.2589
37.0922 36.4516 -20.7728
-9.7126 30.6429 2.5863
48.5994 0.5181 -16.7701
-15.5505 13.3886 16.2599
-23.4028 0.8299 12.8520
46.3280 1.5195 -14.1245
13.6014 -27.9361 3.8496
-1.5941 -1.6739 37.6767
31.0347 4.2279 3.5555
-9.5680 -4.3010 28.0569
5.6107 -2.7871 33.0268
-16.6524 -19.5326 10.2054
-18.6143 39.5098 -10.9749
34.8253 55.5733 -36.7434
-17.6668 -7.2189 17.9481
46.7947 20.0561 -19.4864
-0.4601 1.2504 38.8283
-10.9532 51.1960 -21.1836
-9.2955 55.5465 -25.8464
21.5340 5.6744 14.2027
-15.9611 34.3801 -4.1875
-17.4537 1.1790 19.8197
-29.4978 -18.4536 -0.5296
-21.5352 -7.8588 13.4320
-31.9309 -28.9316 -10.2849
16.1688 64.7428 -38.0933
49.5993 26.2949 -25.6340
-6.8557 -3.7156 31.2237
26.7832 -18.1931 2.3128
29.5353 27.3738 -6.9696
30.0244 3.4580 4.8475
2.8704 38.1822 -4.6409
-5.1456 -2.2218 33.8032
-0.5704 -1.6763 38.3128
20.9817 41.2919 -14.0821
-2.9758 1.8487 36.2748
9.0029 3.0334 29.2214
-6.9928 -68.1179 -40.1453
-3.5362 -2.8320 35.0668
43.4411 -31.7188 -22.8703
10.8970 12.9944 20.4487
-8.0765 13.3191 22.0745
-13.4113 -1.9371 24.4575
5.2386 -37.0969 -3.6706
26.0713 -27.7675 -4.4042
-4.6413 59.3544 -29.6299
-47.1631 12.6448 -17.0366
18.2519 -59.5408 -32.8526
19.0953 37.3380 -8.9311
-0.1304 -13.6886 24.2942
-39.4153 -5.1872 -6.3643
-26.3022 4.1441 9.0773
-50.2233 -12.2923 -20.4204
60.0721 -31.7180 -39.5051
10.1825 -2.0256 28.1842
17.4332 -27.3243 2.2728
-1.5990 4.2468 35.0581
-13.1969 29.5788 2.2995
-35.4854 1.8713 -1.4003
-25.7434 0.5818 10.1085
40.8847 -38.2831 -25.4835
51.4815 2.6305 -20.2357
3.7330 49.4079 -17.8834
56.2063 -8.8309 -26.5249
4.2706 -38.9675 -5.7123
1.6774 55.8238 -25.2937
-4.5867 -28.5468 6.3883
9.2935 -45.7944 -14.5656
-36.2844 47.6581 -30.0570
-3.6399 -25.1021 10.5617
-8.3249 3.2654 29.8774
13.4001 -27.7544 4.1453
-45.1554 12.6637 -14.7652
-15.5040 -46.6472 -17.4217
-6.4053 -39.0085 -6.1004
-17.9936 -4.1868 18.6661
-58.3418 -2.9168 -28.3115
25.4095 -41.1800 -16.5186
-18.9925 -41.9411 -13.7576
-38.1421 20.7267 -10.6629
-15.2737 9.5731 19.1936
-30.2757 6.7193 3.9189
-7.1093 3.0289 31.3062
-0.9056 1.4556 38.3791
16.6743 -7.4013 18.9380
-7.6447 9.1256 26.3934
15.1529 7.6120 20.4503
27.5380 -20.5302 -0.0052
10.9539 47.5260 -16.9698
-20.6492 49.1208 -22.2775
-30.8077 -1.1746 4.1333
-4.5599 -48.6264 -17.0495
15.7575 -24.1320 6.4963
-47.2291 -20.7714 -20.2901
-0.9484 -2.6741 37.0582
1.4778 -5.6756 33.4972
-0.2268 1.9178 38.1240
-2.1550 -1.9130 37.0061
-22.0564 34.1114 -7.3828
-53.0290 -38.3205 -36.5579
-54.2206 -25.1788 -29.9193
21.1333 21.6428 4.8164
61.5503 -12.3049 -33.4321
-8.6048 15.8171 19.2167
55.2956 36.8878 -37.7866
5.9201 -7.9075 28.7770
16.9460 -16.7171 12.3974
21.5707 3.1270 14.7590
-35.5838 16.7081 -5.8420
4.5927 -20.8433 15.2916
-7.4949 33.5375 -0.0241
-20.6078 61.1987 -35.5575
-3.5319 -26.2759 9.2120
-0.4775 -8.8030 30.0262
19.9466 31.4814 -3.4396
3.0657 -5.3060 33.1877
-27.9366 -1.7663 7.4710
-53.0920 43.0561 -40.0048
33.6806 42.0557 -22.9779
61.0317 17.8011 -34.3807
-35.7629 11.4420 -3.7691
36.9524 -32.6012 -17.5650
-20.1149 -21.5229 5.7458
-36.7458 36.5178 -20.5378
22.7949 15.2005 8.1698
-21.1399 25.7029 1.2522
-21.5711 37.0868 -10.0678
55.2231 -20.9389 -29.0700
-15.4162 -16.7990 13.5775
9.2106 -47.7615 -16.8164
-60.7969 -10.9011 -32.2539
17.3153 -38.1143 -8.8437
-13.9604 -4.6119 23.1025
56.0295 -16.8439 -28.4196
40.9059 -9.6593 -9.0410
-4.3849 2.8119 34.2686
24.0698 -7.0336 10.9007
-25.4640 -8.8254 8.6971
-28.3485 -49.7652 -26.9688
11.4641 -14.0290 19.0859
3.6801 -17.7532 19.0703
-0.2822 8.3741 30.5403
59.9861 -27.2457 -37.0965
-52.8347 28.5599 -30.2464
-57.3678 -16.3386 -29.7633
-15.0112 -4.9958 21.7872
39.0934 45.9107 -30.5290
0.0045 -13.3586 24.6832
35.4602 -21.5191 -8.3917
-9.1954 7.6294 26.3419
5.0668 -21.2193 14.7358
-6.1728 2.7454 32.4493
-27.3323 4.0158 7.9023
41.3311 15.3743 -11.4722
-22.9978 33.5672 -7.4635
-39.8535 20.7317 -12.4430
36.6183 44.5980 -27.4769
35.0461 -10.5257 -2.6446
11.0606 -19.3125 14.2186
59.7897 20.1217 -33.8045
-16.4923 2.2927 20.8107
-52.8066 22.8015 -27.2581
-2.0971 2.7744 36.3049
1.2943 -31.7704 2.9963
-8.1580 40.2710 -7.9332
28.0991 -16.5511 2.0383
0.5690 -46.4228 -14.2108
-7.1696 -50.9540 -20.1266
-38.8239 9.7717 -6.6931
-16.5428 10.3269 17.4578
5.3568 13.7907 22.9942
-6.4286 63.3854 -34.5405
18.1715 12.2092 14.6461
-49.4263 -13.7319 -19.9413
-5.2960 -0.4952 34.1392
-3.6623 -4.3865 33.6742
1.6573 -0.4079 38.3879
-59.9969 -28.5874 -37.7738
-2.5492 2.6983 36.0294
-6.9500 16.1332 19.7338
-34.9232 46.2015 -27.7244
13.6122 11.6469 19.3241
-54.4195 -25.9467 -30.5156
3.6846 14.9970 22.2315
30.8828 -7.3125 3.0670
2.2433 39.8617 -6.5638
2.2376 -1.3915 37.2962
-0.8387 -0.3440 39.3292
-3.0886 -48.0208 -16.2030
23.5521 17.3055 6.0196
11.1754 -50.6508 -20.6125
-19.5112 22.4302 5.4286
32.2949 -18.1182 -3.1591
2.8288 -14.9025 22.5543
-4.9175 -8.6913 28.6499
-48.0649 -19.9112 -20.7970
6.5665 -6.4973 29.5302
4.4356 -33.9240 0.1547
-14.7781 4.0806 22.3631
-33.8573 -24.5788 -8.8143
-24.7117 -9.4422 9.2802
14.0165 -8.3097 21.2299
5.5491 -4.3562 32.0978
-23.2796 22.0899 2.6490
-2.7050 1.1583 36.9344
-31.9037 21.8865 -5.1107
0.0692 -0.3065 40.0259
2.1191 2.3135 36.7053
18.9303 -30.2854 -1.6123
-33.4790 -8.7552 -0.3066
-2.9682 7.2113 31.2231
-21.3859 -39.2128 -12.1397
-12.9412 -42.7721 -12.1651
-53.0553 20.2316 -26.3910
25.1810 -17.5923 4.2656
-11.3698 18.3355 15.0195
8.8419 4.9194 28.4944
29.3543 11.3008 3.3989
-4.5307 26.4854 8.7910
-61.3505 8.7186 -32.4895
-26.8890 56.8703 -33.5949
-0.3160 0.1197 39.9980
-27.4779 46.6311 -23.2658
-19.7364 -11.3857 13.5958
2.7203 -52.7816 -21.7682
21.3479 -19.3272 6.5245
14.1342 -16.6850 14.6756
8.6801 5.5476 28.2790
-10.0846 20.3375 13.6953
8.0518 10.6300 24.7106
-15.3553 -25.2724 5.6136
-9.0600 9.3050 25.1200
10.5412 35.7946 -3.4936
-2.1380 -5.3634 33.6043
-26.3295 16.3202 3.9602
-0.8943 -0.3579 39.2624
59.5351 8.3276 -30.3110
-35.9352 5.2102 -2.3132
7.4169 68.0861 -40.1607
12.4939 24.7804 7.7539
-1.0007 -58.0405 -27.8816
16.2333 22.8617 7.4163
-12.2870 2.0928 25.7354
61.4770 24.2511 -37.3360
-37.1353 30.1114 -15.8375
-15.2826 -26.9063 3.9998
2.7616 -1.0078 36.9378
31.0265 -41.1339 -20.2058
7.3539 34.1566 -0.6999
-9.8158 -1.0168 28.7884
-67.0949 -2.5912 -38.5799
39.3404 -35.4481 -21.8899
2.7078 1.0643 36.9734
-49.5679 -31.7273 -28.8263
5.7892 -24.1225 11.2171
16.7891 60.1553 -33.0628
7.0538 14.6246 21.2978
-5.3981 -2.1078 33.5794
11.6576 36.7350 -4.9355
11.3159 27.8979 4.9855
58.0951 0.6649 -27.9401
28.1717 25.8525 -4.5776
-41.7700 -6.0796 -9.2518
-10.0856 -64.6694 -36.5877
23.2624 -17.9167 5.8596
41.4628 12.8304 -10.6543
-20.7126 62.4382 -36.9793
-45.2854 -33.9734 -26.1916
3.8923 24.5794 11.1251
10.4667 -3.4724 27.4247
-20.1300 27.3478 0.4548
13.6413 11.1266 19.6903
38.7949 -26.6024 -14.9323
-34.7352 56.1286 -37.2418
64.8407 11.9861 -37.1617
-12.3779 17.2427 15.4301
-53.8560 41.5548 -39.6140
-66.6584 7.6278 -38.5193
8.8884 54.9340 -25.0579
-7.7950 3.3378 30.4218
-14.5940 -50.3227 -21.2326
19.8610 -2.1716 16.8958
29.3030 -11.7359 3.2681
-8.9999 22.5010 11.8914
-6.5198 -0.7808 32.6721
-2.2307 4.7360 34.2380
-46.0064 35.5393 -27.9820
1.3502 30.0076 5.0650
24.4838 4.0836 11.2000
0.0814 -2.4897 37.4655
36.1789 31.1035 -15.7219
-16.2119 -22.3169 7.9515
-41.6575 -46.8507 -33.3429
-2.5268 0.3433 37.3961
-28.2321 -50.5943 -27.7511
-46.1372 -26.3247 -22.0828
10.6675 -56.9629 -27.7686
17.1218 -0.4197 20.2509
21.7827 -36.2009 -9.2977
27.4490 -4.6215 7.6557
-31.4763 11.7141 0.8926
0.0401 -4.2418 35.4060
-0.3841 -8.8815 29.9393
1.2514 1.6269 37.9813
-2.7517 -9.4553 28.8128
-24.7225 -19.9738 3.0126
-42.8271 -21.8345 -16.1463
2.6905 -3.3404 35.3505
13.5157 -17.1979 14.6682
-39.0029 -48.5600 -32.8625
4.4708 13.3640 23.8205
2.4962 -16.7149 20.5175
-18.5494 -38.9172 -10.3124
-62.3720 -20.5447 -36.8433
-62.3902 -3.2301 -33.0857
19.9067 32.8090 -4.7420
-18.0299 6.8054 17.7285
3.0569 -5.0470 33.4553
11.3172 0.2521 27.0810
-21.1159 60.3506 -34.8080
1.6071 -3.6366 35.7190
0.3894 -0.2810 39.8306
12.9122 -29.0032 3.0542
-15.3243 40.1035 -10.1004
57.2168 -1.2768 -26.9192
-28.3558 -4.6622 6.5958
-1.2248 -0.9041 38.6049
13.2617 -20.6203 11.5591
-1.0772 -17.9582 19.2352
12.3451 40.3075 -9.1876
-24.6219 -27.6599 -3.1604
-9.7439 4.6369 27.7032
-0.5330 -0.4346 39.5865
-1.2275 0.3908 38.8803
-10.5281 -67.8364 -40.3484
14.6525 24.8065 6.5085
57.5640 -11.4055 -28.6272
-66.8406 9.2837 -38.9766
-8.5291 25.1521 9.1571
33.1937 50.1674 -30.3580
45.1906 28.6987 -22.5699
-51.6176 10.5977 -21.5832
15.7267 34.5860 -4.2924
-28.8905 9.4248 4.6522
-2.0980 28.1902 7.1467
-8.3561 -11.0980 24.0556
-12.4132 2.0340 25.6005
3.1548 -18.0874 18.8001
19.8320 -12.1633 13.0315
48.7557 47.6014 -39.7499
-39.8195 -6.2235 -7.0086
16.2422 -1.2357 21.2362
38.9499 48.7490 -32.9971
-2.3588 -19.3250 17.4968
-44.9733 -20.8887 -17.9292
-34.2566 -9.5979 -1.4486
4.7967 -7.9102 29.5146
-41.9577 -25.4983 -17.3533
-0.5804 25.8043 10.0370
-15.2932 -23.6898 7.2299
-0.7111 -8.7025 30.1255
-13.9274 -3.4664 23.5144
-22.2130 31.2805 -4.7294
9.1530 -1.0848 29.5543
41.3397 -47.1765 -33.3829
1.3730 10.3570 28.1070
28.5537 4.3028 6.4316
-23.2889 35.3331 -9.3785
-4.0941 14.3947 22.7931
-16.8678 10.5526 16.9931
-19.6038 36.4696 -8.3043
-48.7245 -6.5923 -17.4362
-1.1277 -2.6347 37.0246
-47.8433 17.6079 -19.5675
-39.3868 24.6878 -14.2793
-13.3812 20.0723 12.0213
-21.6079 60.0036 -34.6170
19.9141 62.0040 -36.2023
-41.7545 -18.9923 -13.5577
-8.5842 -6.4855 -40.3954
-1.7458 50.8941 -40.3954
-8.8113 9.6595 -40.3954
-4.7264 -2.7225 -40.3954
15.4659 -55.1984 -40.3954
-8.5737 -20.6970 -40.3954
55.2879 30.6234 -40.3954
30.9857 12.1864 -40.3954
-7.2517 7.5835 -40.3954
8.0449 -4.6215 -40.3954
-4.4599 -7.8863 -40.3954
-56.2151 -3.0296 -40.3954
54.0487 38.1141 -40.3954
5.6391 58.5375 -40.3954
8.8963 -50.8738 -40.3954
30.6070 -54.6422 -40.3954
44.7547 -35.8701 -40.3954
56.6609 -23.0485 -40.3954
22.1223 38.1898 -40.3954
-8.7850 -37.0927 -40.3954
5.0924 68.2689 -40.3954
-0.5441 15.2223 -40.3954
30.1432 33.2074 -40.3954
3.9734 2.7277 -40.3954
14.1610 -2.4890 -40.3954
-30.7486 -0.7515 -40.3954
2.9811 -15.5385 -40.3954
51.4511 8.9691 -40.3954
17.2456 33.1238 -40.3954
40.0049 8.5552 -40.3954
46.5523 29.9080 -40.3954
-2.7237 43.1927 -40.3954
3.8383 -13.6741 -40.3954
2.1975 -39.1227 -40.3954
0.1582 -8.0557 -40.3954
-9.0752 10.4221 -40.3954
15.1193 14.0088 -40.3954
53.5718 -17.3133 -40.3954
42.5740 45.0198 -40.3954
-50.3524 44.3094 -40.3954
-16.6917 20.9386 -40.3954
28.8992 -30.4238 -40.3954
43.1161 40.5105 -40.3954
-1.5564 -3.4361 -40.3954
-3.2716 -10.2370 -40.3954
13.9790 -27.2440 -40.3954
0.3607 -0.2368 -40.3954
27.8690 12.3705 -40.3954
-21.2414 -22.7482 -40.3954
11.4778 12.8573 -40.3954
-21.0751 5.9853 -40.3954
36.3096 -24.4866 -40.3954
56.4831 -32.0320 -40.3954
-40.7540 -47.6911 -40.3954
-1.9388 -10.4810 -40.3954
-22.4996 -44.3925 -40.3954
12.9126 -20.4167 -40.3954
12.8720 -15.7212 -40.3954
2.9081 19.8421 -40.3954
-28.6936 32.7491 -40.3954
0.3992 0.3081 -40.3954
22.0373 20.6493 -40.3954
39.8747 -15.3919 -40.3954
-5.2793 11.8371 -40.3954
-2.7123 -4.4084 -40.3954
-44.6375 31.6296 -40.3954
16.8025 -6.4065 -40.3954
37.4082 31.5420 -40.3954
-1.5771 -0.5583 -40.3954
-67.1510 7.6172 -40.3954
26.7973 2.0796 -40.3954
14.0280 -4.1710 -40.3954
-27.3610 21.8883 -40.3954
14.5572 36.3907 -40.3954
36.9040 -44.0576 -40.3954
21.7400 -24.5305 -40.3954
-19.5237 -60.3505 -40.3954
-65.5665 -10.9020 -40.3954
39.4838 -36.1761 -40.3954
-18.4022 5.8613 -40.3954
-46.8675 -7.4655 -40.3954
-34.7470 33.4855 -40.3954
-29.0145 52.5404 -40.3954
-0.0464 -32.9373 -40.3954
-5.7871 12.0480 -40.3954
-11.4736 -19.7929 -40.3954
31.6938 8.3334 -40.3954
23.4766 -25.9522 -40.3954
32.7592 46.6034 -40.3954
11.2881 -16.5028 -40.3954
13.1736 3.0131 -40.3954
-51.5771 35.4311 -40.3954
44.2670 -22.2067 -40.3954
-9.4320 4.0566 -40.3954
-25.1301 -53.9551 -40.3954
31.4393 31.5119 -40.3954
-7.0683 24.3328 -40.3954
14.5807 -22.7199 -40.3954
-22.6182 47.4661 -40.3954
22.2452 51.7947 -40.3954
-2.7836 16.6310 -40.3954
-8.5466 15.2767 -40.3954
59.4247 -16.8493 -40.3954
-44.8513 18.7058 -40.3954
-6.5821 -0.3550 -40.3954
-16.2429 -33.4835 -40.3954
36.0002 10.3482 -40.3954
-10.4258 -37.6388 -40.3954
10.9772 -38.2036 -40.3954
13.4045 -48.9278 -40.3954
28.5561 -23.8030 -40.3954
11.5344 48.6015 -40.3954
-0.0615 18.8751 -40.3954
-52.7509 -14.4532 -40.3954
-8.3726 25.1938 -40.3954
1.3865 -2.1574 -40.3954
32.0039 -50.1500 -40.3954
1.2981 -2.0919 -40.3954
-6.4441 63.5206 -40.3954
-36.1356 -56.2479 -40.3954
-18.3413 -28.1140 -40.3954
1.4002 -14.9766 -40.3954
2.6130 26.3758 -40.3954
-1.6965 0.4807 -40.3954
-11.9869 55.0060 -40.3954
27.1610 -5.8026 -40.3954
9.1823 32.6653 -40.3954
15.0482 -52.9741 -40.3954
42.5625 -40.4616 -40.3954
4.2225 -26.9430 -40.3954
0.2695 -30.4955 -40.3954
36.0204 4.7365 -40.3954
8.7499 -40.7233 -40.3954
12.0822 31.5166 -40.3954
-21.5760 36.3351 -40.3954
-46.9965 -33.7138 -40.3954
14.4902 17.6419 -40.3954
17.0975 15.5977 -40.3954
-20.7763 14.2044 -40.3954
-28.7608 20.0243 -40.3954
-18.7766 -6.5990 -40.3954
36.1149 6.6400 -40.3954
-38.0507 26.1358 -40.3954
-60.9752 -29.7788 -40.3954
6.9705 6.0311 -40.3954
1.9879 6.1617 -40.3954
-0.0272 -1.9155 -40.3954
-33.7018 -44.3207 -40.3954
-1.6329 22.2090 -40.3954
-10.0086 -6.2467 -40.3954
-17.8688 65.9767 -40.3954
-2.8438 43.3598 -40.3954
-8.2268 3.2061 -40.3954
-26.3585 53.0844 -40.3954
14.6373 9.9788 -40.3954
56.4920 13.2251 -40.3954
-0.0466 56.9868 -40.3954
-0.0807 -6.4024 -40.3954
0.8266 57.1280 -40.3954
-58.5548 4.2279 -40.3954
50.2814 -7.6879 -40.3954
17.1783 27.1522 -40.3954
-15.0320 6.8430 -40.3954
-6.1849 0.9460 -40.3954
-21.2933 -18.6870 -40.3954
10.8142 48.2043 -40.3954
11.0728 15.7300 -40.3954
14.3301 -3.2792 -40.3954
-11.6164 0.4950 -40.3954
-2.7048 -28.1252 -40.3954
45.0408 -37.7729 -40.3954
-17.1852 9.9272 -40.3954
41.0877 -47.7657 -40.3954
-46.0804 26.5326 -40.3954
-17.8064 40.8892 -40.3954
-13.5715 -64.6658 -40.3954
-17.5912 43.5604 -40.3954
-52.7243 -21.3945 -40.3954
12.8136 19.1244 -40.3954
-12.7897 -51.6808 -40.3954
35.0914 -9.0087 -40.3954
26.0314 -28.7055 -40.3954
26.1866 57.3451 -40.3954
16.6838 10.0807 -40.3954
-22.4070 -31.5195 -40.3954
0.2994 3.9885 -40.3954
-25.7909 -63.5296 -40.3954
-12.5327 23.2558 -40.3954
16.2565 14.1882 -40.3954
53.1723 18.3243 -40.3954
-20.1671 -30.2829 -40.3954
2.4600 0.3517 -40.3954
-7.6958 -11.2218 -40.3954
8.1452 7.5503 -40.3954
4.5973 -56.9402 -40.3954
-5.8427 17.6597 -40.3954
26.7821 -34.7625 -40.3954
36.2608 -52.8044 -40.3954
2.2339 -21.7402 -40.3954
-3.1115 -2.1811 -40.3954
30.2891 55.8051 -40.3954
-14.9046 54.6525 -40.3954
6.5797 11.4453 -40.3954
-16.3790 7.9787 -40.3954
36.4434 16.8675 -40.3954
-0.0184 0.0934 -40.3954
4.4496 10.1555 -40.3954
-16.1379 30.1199 -40.3954
9.8120 -48.5680 -40.3954
-15.2604 51.9488 -40.3954
18.4971 -31.9776 -40.3954
3.6990 -24.4904 -40.3954
-2.2271 -59.0700 -40.3954
0.5550 -2.8397 -40.3954
-25.3576 33.2025 -40.3954
-4.4162 -40.4105 -40.3954
-27.7133 14.7272 -40.3954
-0.3718 -56.9505 -40.3954
-2.9948 1.2950 -40.3954
-16.6391 -15.8288 -40.3954
12.9489 4.6414 -40.3954
-2.7651 0.8290 -40.3954
44.8214 -23.1598 -40.3954
-12.0232 1.1677 -40.3954
6.7929 -8.9354 -40.3954
-27.2858 50.9221 -40.3954
-11.2216 -14.0590 -40.3954
33.4121 45.1091 -40.3954
-30.2379 -28.8553 -40.3954
-33.0398 12.2979 -40.3954
-46.4308 -4.6438 -40.3954
32.7836 0.3983 -40.3954
-21.4951 16.7471 -40.3954
-58.3935 -3.1487 -40.3954
-4.3472 10.6848 -40.3954
67.8695 8.7404 -40.3954
-12.8825 -59.4752 -40.3954
-27.4967 -29.5490 -40.3954
-2.4691 -3.4090 -40.3954
8.7130 10.5579 -40.3954
45.9159 -27.8980 -40.3954
-1.7676 1.7059 -40.3954
-41.0598 38.8711 -40.3954
2.2154 -6.0594 -40.3954
8.7728 -22.8086 -40.3954
-19.7939 0.4758 -40.3954
21.2692 -31.5534 -40.3954
14.0233 56.7492 -40.3954
-32.7458 23.8107 -40.3954
20.6278 -7.1654 -40.3954
-2.9631 37.9647 -40.3954
-30.9858 -28.4846 -40.3954
15.9625 5.2260 -40.3954
-0.7555 67.2022 -40.3954
59.3461 -2.6232 -40.3954
12.5472 -2.9021 -40.3954
