ply
format ascii 1.0
element vertex 1024
property float x
property float y
property float z
end_header
17.6520 -14.0341 -11.9860
13.9499 -3.7842 22.1470
-0.4399 0.7625 79.3671
26.4383 -20.3930 -57.6755
-6.8398 -9.6799 33.1135
-14.9824 -7.9853 11.5089
-1.5171 -4.3898 63.4991
-6.3340 13.3677 20.7207
2.5447 -6.7161 52.8022
-12.6760 -16.2955 -3.9519
-13.9098 14.9724 -3.0725
22.6981 7.1633 -17.2576
-17.8703 -19.0453 -27.0160
31.2580 -15.8690 -64.6983
-21.6924 13.4918 -24.6104
7.2175 11.3455 26.3937
-9.4934 14.5103 9.9814
-21.4411 2.7656 -8.0556
-1.7686 -0.6476 75.1386
7.4153 8.9335 34.1355
-11.5323 -25.6488 -35.4711
-11.9031 -31.8557 -60.2779
3.9642 -2.6803 62.9058
16.7400 19.4278 -25.0286
21.2924 -14.9231 -26.5304
-22.3450 22.8021 -51.5037
-15.5354 19.1942 -21.0173
9.0802 22.5106 -19.2447
1.1386 8.9651 44.9820
-8.4334 33.5803 -62.8756
0.7632 0.4872 79.2610
23.7187 12.3081 -29.5685
18.2631 -27.2457 -55.1924
-1.4196 0.7065 76.3936
-37.6146 4.1019 -76.4265
25.3410 16.2156 -43.7458
-4.6255 32.5884 -55.6754
10.5000 -2.2044 37.8503
23.3674 15.1602 -34.3424
-0.1494 -0.0518 82.4115
21.5011 -9.9045 -16.7142
8.8232 28.5473 -42.8798
-1.1339 -0.9159 76.9336
0.7253 -3.1018 69.6497
-1.7457 0.6123 75.2793
-33.8968 -13.3857 -70.5519
-1.1883 -27.2401 -31.8619
16.0301 32.6401 -70.2146
-3.0825 3.0742 64.7260
-19.2935 26.7236 -55.8666
8.5813 18.8457 -4.2142
0.0201 -0.8648 79.4314
-12.2052 -27.9225 -45.3832
-2.4289 -21.4544 -7.9406
17.6390 -11.6423 -6.0153
6.2558 -14.1369 17.9100
-12.8817 -6.8662 21.5427
-33.2211 4.3854 -58.1803
-9.2172 -2.7440 42.5377
5.5177 -5.6023 49.9306
-4.4705 33.6314 -59.9422
-4.3263 14.0678 21.0342
27.1228 -1.6755 -31.4762
4.6447 -7.6515 45.3454
-12.6745 -0.3159 29.6322
-11.8011 -17.6069 -6.2736
1.6071 1.2905 74.3897
-17.8909 -12.7159 -9.4498
-12.4322 -15.9710 -2.2410
-9.7774 3.2311 39.6691
31.6831 -20.8423 -76.7903
-12.1886 -15.0066 1.5802
19.4590 15.7873 -22.5530
0.6368 -11.9762 32.5211
-6.2417 9.5854 34.8591
-0.7605 23.9954 -18.1255
0.2280 -10.3536 39.4216
-2.4753 3.6778 64.3899
-16.6515 20.7678 -29.1346
25.6310 -23.5913 -63.7702
-0.6094 -27.0292 -30.8927
12.1824 17.2410 -5.9142
0.8113 1.3762 76.3435
8.2781 -36.7230 -75.6123
-1.6945 19.7107 -0.3188
4.1728 -1.0653 64.9233
-18.4927 -14.0351 -14.7873
33.5137 20.6583 -82.8828
-0.6768 -10.6196 38.2203
-14.8603 -8.7347 10.4144
-5.3706 0.0234 60.4380
-16.2483 7.6782 7.3206
-8.2670 12.3866 20.3008
-3.5823 -35.1035 -65.6695
3.0153 5.2465 57.5691
-0.5215 18.5747 4.7453
18.0299 27.0937 -54.1135
-13.8542 2.2185 23.9316
-24.1395 20.1167 -49.3850
-9.1489 8.2793 31.0634
1.2916 0.1981 77.5696
-2.5717 -2.1809 68.8636
-0.0098 0.0308 82.9419
-7.2232 -0.9571 52.3624
-2.5941 10.4340 37.7546
5.6281 14.5673 17.2458
5.4434 10.5479 33.0412
6.0483 9.8012 34.5275
-24.1911 1.0866 -19.0023
-20.0759 1.6650 -1.8424
10.7510 -9.4502 22.7374
4.5673 -6.8851 48.2486
12.5404 23.6124 -29.6271
-31.6416 8.0114 -54.5163
11.3717 16.5512 -1.5744
-5.4324 -9.0823 38.4655
2.3002 7.3959 50.4276
13.7561 14.1859 -0.2217
4.5075 -14.6430 18.4919
7.2214 5.2903 45.3416
2.2778 30.4614 -45.6904
-12.4566 -13.9914 4.1090
2.8719 -0.9540 70.3212
-15.4195 12.7373 -1.2320
32.2420 3.4860 -53.6304
-27.0787 15.3163 -48.0669
-19.6154 -27.7455 -60.1605
0.0110 -0.6138 80.4902
-1.4165 7.9355 49.0969
-23.3590 31.1236 -80.9651
-7.0727 16.2757 8.2696
-0.8232 2.3026 72.7697
5.9401 30.0937 -46.2296
-32.5106 13.2060 -64.8456
5.0472 9.7143 36.9300
-3.7442 -2.6566 63.7251
-5.6449 36.2669 -71.6462
-2.0677 -7.6096 49.8364
34.4255 14.8766 -75.0133
-0.3111 0.9029 79.0520
21.2524 16.7472 -30.9849
-7.2036 -4.6855 46.8526
15.0641 4.0088 17.3650
11.6978 8.9697 20.9377
-37.6724 -11.1159 -82.4992
29.7607 14.4152 -56.3204
0.1832 0.0157 82.3028
9.9928 -11.3900 19.2041
-20.6879 -5.5305 -7.1942
13.4978 -21.2621 -23.0881
1.3224 -37.5527 -75.3235
-21.6670 -2.7798 -9.0078
-26.9640 -17.9540 -53.4809
-15.7439 12.7979 -2.4516
13.7963 -11.2073 8.1485
-2.4302 -14.2299 22.2233
-16.6411 28.3267 -55.4144
13.7943 -17.4469 -10.6803
-20.5979 21.0101 -40.9537
2.0936 39.1759 -82.3035
-0.1436 1.2950 77.5854
-3.4198 -16.6975 11.2284
-28.2835 -3.1462 -36.8863
16.0285 -3.6931 13.7395
-19.7077 -5.2238 -2.8689
-6.6647 -8.4185 37.8148
13.7722 3.4883 23.1878
-25.4628 -25.7777 -69.6631
25.0179 9.3308 -29.4814
-10.2984 10.5120 21.0429
2.5941 -1.8092 69.7456
-2.0819 9.1647 43.4600
-3.8493 24.5359 -21.6181
12.5768 -35.3812 -75.2142
-4.1028 27.0278 -32.1629
11.6167 -13.5416 7.8668
4.0923 -23.6313 -18.0225
-22.2065 -15.9986 -32.2979
8.8204 -10.7781 24.3678
0.9513 -14.8673 20.2769
23.3110 -20.8718 -48.8230
10.7535 20.2342 -13.5167
-8.3324 -8.5760 32.6720
-23.0156 -29.9177 -76.0416
-20.3168 -2.5009 -3.2139
-7.7909 3.4865 47.0969
-33.4598 -3.1625 -58.6005
-27.8836 26.2792 -78.4418
-12.3511 -32.1124 -61.9594
2.0627 -7.7372 49.3228
-0.2223 0.1883 81.8497
-1.7786 -1.0633 74.3427
1.7986 4.3089 63.3948
6.0199 -31.7568 -53.1770
-2.4920 2.2132 69.0280
21.3679 9.8855 -16.1708
13.8401 15.6874 -5.1100
-3.0799 2.2854 66.9106
15.1930 17.1601 -13.5383
8.2702 -23.3961 -21.5289
19.3568 -30.2828 -68.4303
-11.6513 -8.2416 22.9165
-18.2705 3.1790 4.9017
8.6741 -5.4434 39.9086
4.7860 0.3678 62.8431
4.6641 16.7029 9.9732
28.7932 -7.6255 -42.4842
10.7089 1.5514 37.4632
2.4082 0.2087 72.8880
14.7305 1.5015 20.6600
36.9404 7.3901 -75.7298
-0.0076 -0.3199 81.7292
-7.8836 -17.8467 0.8320
-6.4245 1.5967 55.1716
-33.2832 1.4046 -57.3521
-20.0552 -24.8029 -51.3822
0.3674 2.3309 73.1308
-0.5542 -29.7694 -42.4367
-1.6053 2.3717 71.0051
5.9112 -28.9814 -41.6085
36.5277 13.5446 -81.1498
7.1423 18.4625 -0.3715
-9.4323 -9.9933 25.1500
12.3472 0.5668 30.9737
-4.0769 -0.7565 65.5985
2.6891 9.4470 41.6723
-10.7707 29.0950 -47.7064
-4.9097 3.9073 56.6267
-15.9670 6.8103 9.9024
5.4838 5.0157 51.7499
23.7769 -13.2806 -31.7287
-18.6823 24.5366 -46.9258
-4.4337 1.6298 63.1652
-0.5225 -30.0865 -43.7709
26.0973 19.9561 -55.4133
36.1362 -10.3457 -75.3741
-3.3078 -1.8742 67.0515
24.7083 -8.2683 -26.7569
21.6352 -28.4696 -67.6579
23.0328 -28.1892 -70.3768
0.6090 0.4785 79.8131
-34.2650 14.9865 -74.5777
2.7481 28.5062 -37.6470
-34.8375 -13.3808 -74.2397
-1.4502 29.8927 -43.0830
9.2308 4.5845 39.6308
-0.2005 2.1430 74.0049
4.4609 -32.2302 -54.0837
-8.7622 -33.0950 -61.2410
15.7206 -6.6604 11.1053
-14.0778 -7.6010 15.6353
27.6909 -16.1506 -52.0566
-2.4579 34.1822 -61.3892
3.3775 -6.2502 53.1294
-7.0901 -1.0697 52.8512
-0.5538 -4.6341 63.4039
-1.8912 3.9131 64.7569
-13.4844 13.0609 3.9416
19.2176 -27.8689 -59.6273
0.1267 0.4406 81.1453
-27.5820 -10.2393 -40.9474
34.1488 3.0681 -61.4563
0.6783 0.4383 79.6735
0.2519 -0.3929 81.1104
-2.6709 -0.0263 71.8181
-21.3384 -14.1868 -24.9404
20.1598 10.0425 -11.8664
-14.1780 -13.8093 -0.3539
4.5445 8.7372 41.5619
-1.1697 -0.6662 77.4036
12.2847 34.2408 -70.2729
13.4405 13.8979 1.5761
6.5237 35.5836 -69.4249
2.4338 -36.0562 -69.2628
-8.5227 -2.1873 45.9862
-26.2866 -13.1528 -40.8306
38.7053 -0.6745 -80.1088
-2.0431 -11.7985 32.6014
-7.5295 -0.0637 51.3361
23.2355 23.6907 -56.8066
-1.3997 -10.5058 38.3995
-6.5377 -7.5961 40.8299
4.8272 -2.6010 59.9631
-11.2572 13.4564 9.1204
1.6674 8.2892 47.4348
-26.9390 10.8959 -39.4204
0.3566 -5.7732 58.6949
-1.0075 13.0094 28.0725
-4.9841 -23.2337 -17.0917
32.6910 12.0758 -63.8325
-7.1590 35.2873 -68.7060
-5.2569 -7.7260 43.6848
7.9144 17.7650 1.0941
-3.5309 1.9145 66.1463
11.4765 18.5088 -8.7276
-26.4030 -1.8446 -28.4950
-17.5657 -2.7628 8.1193
7.8761 -13.8345 15.9698
-4.4040 -4.2347 57.3228
3.8423 -18.2635 4.4027
-2.3559 -5.2558 58.7982
32.8992 -8.9864 -60.6893
-8.4047 6.7007 37.7661
-27.3759 -17.3349 -53.5158
-15.4299 -32.8859 -70.0535
28.1578 -13.1037 -47.8451
35.7316 8.3405 -71.5978
-0.5493 -1.2837 77.1919
0.9610 9.4102 43.2029
-2.0582 1.2836 72.8527
9.1083 -27.5310 -39.1655
4.9399 -9.2690 38.8016
-4.2003 -1.1111 64.7627
-4.4240 -2.9296 60.7104
25.2962 -4.7420 -25.4157
24.8492 13.2088 -35.5534
16.7265 -17.1235 -17.8293
-7.5286 12.4113 21.8849
-29.4216 4.6604 -42.4953
7.2317 24.0567 -22.8162
22.2332 31.1157 -78.1340
-22.5948 -18.6296 -40.3711
-21.2939 -19.1465 -37.6372
-14.1038 6.5889 17.4554
5.8594 -1.4584 57.6240
-0.6943 -21.7411 -8.6183
0.9496 -22.8310 -13.2495
8.3189 30.4390 -49.9436
7.1782 -36.8413 -75.1471
11.5245 -9.8575 19.1490
-14.0381 1.5316 23.5491
18.0201 10.1687 -4.1459
-3.5993 -36.0521 -69.6552
3.4255 -8.1685 45.7384
-7.8807 -4.9435 43.8617
0.5421 23.1947 -14.7260
-10.9721 13.4398 9.9397
8.1809 -20.3457 -9.3633
-3.4497 0.5954 68.3210
4.8208 -9.1820 39.3607
18.1244 -12.4543 -9.6249
11.6257 -3.9610 31.3032
-3.3163 3.3270 63.2756
0.0851 3.4905 68.3593
-14.4517 12.0399 3.7849
-19.6157 -2.1731 -0.1180
-8.2382 1.6981 47.6197
16.3933 8.3152 5.5904
-15.6875 -4.9626 13.7173
-20.2398 30.3266 -70.6202
-2.4033 3.3252 65.7827
-27.6303 12.2402 -44.3149
17.0990 -0.1678 10.9938
1.9660 -17.4037 9.2462
10.0611 -1.1702 40.3795
18.1089 0.9377 6.6377
-15.7881 -12.4267 -1.6198
3.0231 -35.5784 -67.4431
15.4337 1.1657 17.8321
5.5770 29.7351 -44.4559
7.4354 34.9313 -67.4740
-12.5769 -19.0896 -13.2895
8.8567 30.3453 -50.1796
3.3646 -38.9997 -81.9361
-4.2705 27.7556 -35.3025
-36.8611 11.8383 -80.1271
-0.5694 -11.7163 33.6296
-1.5880 0.3619 76.2121
11.7421 33.0307 -64.6995
-20.3358 1.8269 -2.9929
-8.5738 0.2764 46.9165
3.6076 -3.2964 62.4775
1.7743 0.9473 74.5992
-13.6888 24.4532 -35.0568
-1.8571 -2.5184 69.8872
12.4796 6.6911 23.3858
2.1187 -0.4775 73.9227
-4.8008 -2.9019 59.4304
-34.0586 -12.9257 -70.4878
-4.1573 0.2209 65.5282
27.2359 -11.6368 -41.7756
-3.2787 -34.9694 -64.9822
21.5618 23.6243 -51.7531
3.5697 -9.5843 39.9638
6.9203 -4.9865 47.1212
3.9067 -34.4542 -63.0942
-14.2093 -5.3655 19.0507
-1.6514 2.3174 71.0824
20.7591 -10.3890 -14.7790
23.5720 -11.5970 -27.6648
-3.6433 -10.7653 35.1685
4.8408 7.2882 46.1949
-5.0099 -27.5742 -35.0639
17.5637 0.9262 8.9354
-10.3646 10.0846 22.1171
-20.9184 -5.2979 -7.8877
3.1481 -11.4464 33.0342
-2.7439 -1.4866 69.9227
-16.5734 -26.0671 -47.1374
-19.3098 -19.7144 -33.2521
-4.9902 -10.8304 32.8093
-23.9157 3.9700 -19.1183
-13.6338 -30.0887 -56.1746
-12.6047 -15.2033 -0.1737
23.3494 30.2148 -77.8930
-1.3615 -3.2991 68.0330
0.2043 0.2373 81.7580
-33.2704 0.0088 -57.1733
-4.6407 6.2055 50.4129
36.9561 -6.1527 -74.8548
-28.3898 -15.9383 -54.1694
11.4936 2.9557 33.0503
29.7293 -7.0395 -45.7115
-22.8858 21.7968 -50.1519
-10.3993 13.5852 10.9566
20.4034 -21.5530 -42.0330
19.5540 19.9345 -34.6352
-12.7675 37.1543 -82.5354
-2.2140 0.9800 72.8713
20.0025 3.2167 -2.3260
16.2625 -25.9485 -46.0151
12.6721 -31.0426 -58.2654
-10.8270 22.7627 -23.1797
-33.7893 15.9173 -74.3741
0.4251 -2.2694 73.3449
-17.5908 5.8572 4.9213
-25.3414 -5.9824 -26.6852
-13.8834 12.1382 5.3385
-3.2465 3.3208 63.5008
23.0277 -18.6471 -41.8309
-6.0246 -5.2341 49.4354
7.2543 -22.4086 -16.2120
37.0432 -10.2128 -78.9035
0.7430 -3.4666 68.1327
6.6523 1.2214 54.5664
-18.8891 3.5649 2.0452
-0.9989 -1.5092 75.4487
12.0566 30.7616 -56.2018
-23.7780 14.2747 -33.8337
-1.1348 -12.2871 31.0611
9.8669 4.0708 38.0832
-32.8272 9.6285 -61.1346
21.8563 21.4075 -45.8902
35.9410 14.2466 -79.9002
11.0153 -0.9330 36.4767
-1.8544 -13.2159 26.8206
29.1251 8.8625 -45.2572
13.4233 12.8354 4.7862
-13.1775 -16.8742 -7.1754
25.7247 19.1855 -52.2023
32.0379 -20.3788 -76.9844
-20.7571 8.3597 -11.2533
28.6215 13.7154 -50.7138
-23.9437 -30.0993 -79.0554
-21.3807 -5.2282 -9.7080
-0.7990 -29.2749 -40.3762
8.0153 -9.6361 30.2412
14.2767 -23.2102 -31.7924
12.6229 -2.5951 28.7532
-30.4450 -5.3945 -47.2620
-11.0852 8.2483 24.8312
5.2014 1.8727 59.7739
-3.1468 -33.0328 -56.8023
-23.1554 -0.1008 -14.5347
-19.4711 -28.7358 -63.2473
25.7991 28.3671 -78.5623
25.8178 9.7312 -33.2312
-23.2692 -6.1544 -18.3861
-25.1439 -23.2256 -61.2156
22.1571 10.7536 -20.7445
-8.3952 -32.1767 -57.1038
-32.5583 -8.0010 -58.2551
-20.3936 -3.1710 -3.9244
-5.5990 -1.5261 58.6145
-1.6864 13.7812 24.5502
-7.3334 19.1578 -3.3962
16.6928 -4.9388 9.6941
-3.0747 22.9801 -14.6580
6.0675 15.3651 13.4391
-7.1813 -3.4959 49.4089
-16.2702 -5.8969 10.1253
-1.1332 -20.9911 -5.5390
0.1840 20.3999 -2.9214
-13.0029 7.4683 19.8664
-15.3562 -0.0792 18.3429
9.6707 -7.0081 32.7323
-17.8497 3.4902 6.4078
5.4319 -21.1678 -9.0462
3.3907 -6.3137 52.8673
25.5259 4.2845 -26.0317
-32.7356 -20.3445 -79.3975
-20.6335 5.4940 -6.9331
-5.8711 13.6474 20.4496
8.0373 9.7331 29.8672
1.0816 19.5655 0.4735
-3.4742 -8.5704 44.0939
-8.9138 31.6063 -55.3558
8.3864 -11.0929 24.4562
-11.3362 30.5170 -54.1557
38.0119 -7.6839 -80.4025
-0.7381 -1.0824 77.5554
-20.9137 18.1344 -33.6113
-24.9971 -12.7665 -35.2447
20.7090 -1.4573 -4.4366
-12.4762 -0.5774 30.4282
-5.9966 -16.8881 7.5316
-10.9421 16.6308 -0.8428
10.8696 7.7258 26.8621
4.1670 13.5748 23.2183
-6.6204 -8.9687 36.0855
1.0348 1.7542 74.4925
-24.3858 -12.8526 -33.1244
-9.9704 17.1168 -0.4267
13.7806 32.9680 -67.5516
4.4034 -12.2695 28.1260
38.2490 -8.5034 -82.0972
28.9665 16.0419 -56.5054
-7.8600 12.0845 22.3084
-17.0280 6.0254 6.9350
11.8022 36.3311 -77.9540
14.2565 -28.5096 -51.2929
21.5604 -0.9531 -7.8986
-14.5349 34.5743 -75.0256
-34.2226 18.6921 -81.3037
-24.1593 10.3008 -27.6365
31.5738 -17.7242 -69.5588
6.9005 -20.2806 -7.2280
2.1454 -1.2694 72.5695
8.2126 1.2784 48.0410
4.0336 5.8625 53.0800
7.2420 13.7225 17.6692
-6.3308 -27.9948 -37.9139
-16.5507 8.6277 4.3980
-25.4252 -7.5123 -28.6826
-4.9725 11.8689 28.8309
1.2793 -5.6469 58.6704
-10.8185 -6.0876 30.7483
1.7199 -0.2820 75.7310
0.7015 -21.8943 -9.2646
-6.7811 0.3168 54.4609
-18.2890 34.4232 -81.2426
-7.4483 -5.3186 44.4964
30.3778 23.0191 -77.5922
29.3058 8.4990 -45.5510
6.0187 -5.5491 48.5681
1.7782 0.7163 74.9967
-15.7005 -1.8307 16.4441
2.5665 1.1632 71.1996
0.6945 -0.5540 79.3330
14.9518 -6.0663 15.0584
-27.5660 -17.3946 -54.3277
25.9035 7.6720 -30.8071
6.4440 -15.8624 10.9031
-1.7351 6.6205 54.2266
-16.9789 -7.9289 4.0836
-25.2572 1.4666 -23.5731
2.8989 27.9170 -35.2391
-22.0832 -0.0933 -10.0146
2.2798 -14.2360 22.3017
-13.6144 15.1686 -2.8436
-8.4236 14.2977 13.1233
-10.0126 -34.4028 -67.9642
-6.3355 0.3113 56.3387
-15.4800 -2.5175 16.9648
-2.9051 2.8166 66.0205
-1.2234 7.6185 50.5508
-25.0474 17.3008 -45.2485
-0.9909 1.9334 73.9197
-19.7640 33.9472 -82.5128
-1.4699 -20.3746 -3.0345
-14.9961 25.0665 -40.0556
10.4226 -11.9581 16.2086
13.5946 17.9560 -11.8627
-5.4984 1.3521 59.2090
-7.3026 -15.5943 10.4896
-37.8455 2.1447 -76.7158
-19.7469 7.1498 -5.4533
-0.6141 -0.4929 79.7586
-24.5368 4.1734 -21.8422
-26.0578 2.7140 -27.3627
21.6557 8.9887 -15.7631
2.8696 -1.3279 69.7490
-7.4408 -35.5545 -70.0490
-18.3552 6.9574 0.3295
6.4396 -14.2443 17.1802
-0.0077 -3.3623 68.9043
-20.2380 -19.8973 -36.5622
21.4091 -24.3142 -53.4892
5.3197 4.0888 54.7942
23.3491 10.9295 -25.5997
-3.4933 -9.4233 40.7123
35.3283 0.8323 -65.8897
-8.1510 -0.8106 48.5480
10.7038 -31.7268 -58.0728
1.8786 2.3606 70.3603
1.2610 5.2042 60.5047
-0.2074 33.3559 -57.5363
-13.9294 30.4687 -58.1487
-22.4545 -17.1858 -36.1212
-3.4605 -18.7249 2.8067
4.0038 -0.7661 65.8939
19.0473 5.8456 -0.9123
-6.8071 6.4132 43.6533
8.7890 -14.3646 12.0885
-24.5996 3.0152 -21.3979
1.1059 7.4916 51.1548
-23.7416 24.9292 -62.0437
5.4140 -19.3880 -1.7789
11.6827 7.7578 23.9605
6.9128 7.8694 38.9228
-5.0572 0.0614 61.7577
19.4714 -21.7176 -39.8808
-2.3779 6.4993 53.9041
-18.5802 -18.5476 -27.5932
-3.8256 -8.0292 45.5854
-35.3115 14.0586 -77.1414
-5.0719 0.1484 61.6884
-37.9166 5.0986 -78.1980
-14.1934 -17.0041 -10.2924
8.4399 -26.3598 -33.5985
5.1809 8.1704 42.2950
-16.1788 -0.1969 14.8713
-9.6731 0.1509 42.2962
33.1318 1.9787 -56.8378
34.1374 -11.8259 -69.2185
-10.8598 -24.7613 -30.9011
-1.6987 -3.4898 66.7166
-2.0355 -28.2328 -36.2463
7.0344 5.9256 44.3055
19.8276 16.3369 -25.2224
-18.7588 20.8278 -35.0832
-5.2390 -14.3519 18.6727
34.2362 0.6138 -61.2679
10.6277 -21.9254 -19.6342
-2.1356 -11.2008 35.0106
2.4697 0.5588 72.4039
9.1067 -11.5544 21.0605
-25.3763 15.6659 -42.6385
-19.7656 -24.1202 -48.3796
-26.9701 5.7734 -33.1904
9.8578 7.3048 31.3566
-4.2651 19.8841 -2.6499
-28.5317 8.1449 -42.0023
-10.5313 -28.0511 -43.2305
-0.7721 0.7318 78.5936
-20.7601 13.6153 -21.5786
-18.2029 0.1899 6.3395
13.3102 29.4077 -52.9969
0.4806 -14.2450 22.9942
-7.5601 20.1309 -7.5709
-9.4864 21.5996 -16.3698
14.4460 -15.8151 -7.2170
3.1942 -4.9600 58.2085
0.3182 0.4088 80.8941
-11.8445 -3.7311 30.7287
-19.1032 6.0546 -1.3995
-5.5006 -2.2658 57.9999
-15.9460 -4.8795 12.7811
-12.1726 -16.3689 -2.9133
-1.2128 -19.3664 1.2788
3.7478 1.7268 65.6828
1.1317 1.1908 76.1527
-2.8526 -12.2725 29.9643
11.3355 18.1209 -7.0254
-20.0447 -3.3943 -2.6234
23.8358 -15.3152 -36.3556
6.6677 25.1357 -26.5460
1.4120 -10.1686 39.8011
31.1957 15.0375 -62.9085
-3.1060 16.9808 10.3076
-8.6596 -33.7424 -63.7725
-0.2463 -1.9335 74.8615
17.5761 -6.6921 3.7970
10.8620 -20.5998 -15.0927
-1.8724 -5.1384 60.0239
17.2654 -0.3936 10.2766
-17.4332 -1.1026 9.4414
1.9749 0.6254 74.3452
6.9502 -0.0020 53.7796
6.5805 31.4433 -52.3428
19.1188 4.5972 0.1856
-1.0322 -1.3393 75.9499
0.2183 -1.0236 78.6662
-19.1493 -6.0825 -1.6202
29.2714 13.6049 -52.9923
-5.9983 15.9915 11.0797
6.7644 -22.8455 -17.3602
-8.9170 10.2876 25.6872
36.1850 15.5055 -82.8743
-8.7102 -14.9688 10.0716
-6.2328 -21.1047 -9.6874
-1.6226 2.6272 70.0611
-24.7374 22.7117 -58.4877
-21.8108 -9.2074 -16.7223
1.7528 -0.2004 75.6409
-1.3050 12.5036 30.0826
0.6662 0.7410 78.8775
-14.3053 -21.7548 -26.6800
9.2167 -35.9906 -73.5364
8.9207 -20.9638 -12.9632
13.4904 -9.1833 14.2833
8.9169 24.3440 -26.2117
18.1354 -4.4569 4.3533
0.3782 4.4722 64.1583
-3.7177 -3.0747 62.7406
27.7083 16.3291 -52.5008
-6.4683 1.9030 54.6555
0.2588 4.5035 64.0621
27.4019 -25.3976 -74.4204
0.6475 0.2453 80.1591
0.4378 0.4337 80.4803
-17.0667 30.7293 -65.0992
-2.8678 27.6502 -34.1068
0.8148 -2.3507 72.5904
21.3803 -2.0167 -7.4508
16.8857 1.5874 11.5826
-9.3723 -26.9502 -37.2042
-9.3738 -0.7481 43.4372
4.6998 3.5068 58.3584
-38.7419 -6.4688 -82.4996
-17.2136 5.8192 6.4799
-1.2436 10.6755 37.7711
37.2588 8.6406 -78.1548
-4.5848 -2.7568 60.5259
-3.8696 17.2963 8.3631
-11.8590 6.0193 27.0154
-14.0002 -0.1624 24.0563
1.0927 6.5640 55.0268
8.2363 24.0773 -24.1942
-0.6734 8.3360 47.8232
16.8893 -12.3595 -5.1465
-12.3455 1.1775 30.7995
7.5574 11.4320 25.3082
6.0937 -2.4489 55.3931
20.7535 26.5287 -58.9086
-3.3249 5.6121 55.5799
-12.1313 -2.6430 30.7387
15.1933 -13.4884 -2.5676
-24.1737 5.2769 -21.2258
-27.0631 23.4468 -67.8676
-35.5459 -11.2803 -74.1299
35.6142 6.1524 -69.2775
23.5434 -8.8590 -22.9626
-17.2446 -9.7244 -0.3781
7.7936 -2.3364 48.7793
31.3303 10.5828 -56.3258
3.3035 -2.9863 64.3056
-10.5821 -3.3480 36.2898
-26.1195 -17.4762 -49.4016
37.7345 -2.0242 -76.2204
-33.3334 -10.0166 -63.6462
-1.4506 -3.3818 67.5657
33.0096 6.8216 -59.0144
3.7630 28.1774 -36.7582
-5.0848 37.8747 -78.0152
29.0526 -19.2231 -63.7751
-24.0380 -1.5761 -18.4719
0.5305 15.8260 16.3261
-17.5863 -30.1869 -64.1951
2.2418 -25.1977 -23.5623
15.5395 23.0470 -34.0977
14.6237 -9.5196 9.5207
-16.0141 -6.5731 10.1052
-9.3970 -0.9062 43.2812
-15.1516 -6.4144 13.7184
11.8924 12.8230 9.3539
2.4689 8.0915 47.4157
17.8041 -6.3461 3.3995
12.2056 -24.8510 -83.0780
-21.2123 -31.1202 -83.0780
32.4673 -18.9499 -83.0780
-3.4427 13.5703 -83.0780
-20.5928 -7.7832 -83.0780
-5.1476 -4.4844 -83.0780
-3.2022 -4.2299 -83.0780
-23.8130 21.1840 -83.0780
-4.7255 -5.1671 -83.0780
-12.6508 -24.7131 -83.0780
-15.6535 -26.1503 -83.0780
-25.4845 -27.0368 -83.0780
-23.2062 -12.0327 -83.0780
12.0914 4.6111 -83.0780
0.0136 -17.9121 -83.0780
-1.4776 8.5925 -83.0780
4.3662 -6.6411 -83.0780
-8.6572 22.0986 -83.0780
37.3725 3.0414 -83.0780
5.8179 -11.2549 -83.0780
-9.4757 35.6575 -83.0780
-21.2856 -4.6702 -83.0780
23.3401 20.9750 -83.0780
12.7912 -5.9155 -83.0780
-4.9799 -1.3751 -83.0780
-21.9723 -0.0946 -83.0780
-16.5472 -15.5913 -83.0780
-12.5103 -29.0628 -83.0780
0.5769 19.0224 -83.0780
2.5773 -29.6261 -83.0780
-5.7510 27.6421 -83.0780
-8.6423 -11.3935 -83.0780
-30.8439 0.1992 -83.0780
30.9255 24.1925 -83.0780
24.3922 -2.1818 -83.0780
31.2474 -18.8372 -83.0780
17.5092 -16.9883 -83.0780
4.8295 -30.9404 -83.0780
10.5364 -22.6635 -83.0780
0.5953 2.0686 -83.0780
0.4702 6.9843 -83.0780
-8.4264 -11.9050 -83.0780
-5.3132 -3.4291 -83.0780
-0.1755 1.4771 -83.0780
29.8376 -11.0985 -83.0780
-16.3242 -15.3679 -83.0780
-3.5877 -8.3257 -83.0780
21.1763 -23.4353 -83.0780
-2.7665 12.8768 -83.0780
-3.1125 20.1587 -83.0780
-9.8393 -16.7253 -83.0780
16.3646 -3.3229 -83.0780
12.0806 -8.2901 -83.0780
22.4724 -22.8059 -83.0780
-25.9997 -9.2197 -83.0780
-39.1767 -3.5861 -83.0780
0.7283 -0.1628 -83.0780
5.4371 -25.2722 -83.0780
12.7600 25.6514 -83.0780
11.5455 30.0769 -83.0780
-15.2013 2.6791 -83.0780
4.6711 -0.2320 -83.0780
-15.7691 -14.8678 -83.0780
-0.2119 0.3266 -83.0780
26.3344 0.7694 -83.0780
4.7872 12.7566 -83.0780
-36.7514 -3.7960 -83.0780
2.4521 9.9700 -83.0780
-9.0095 1.2927 -83.0780
-1.2671 18.2242 -83.0780
4.3793 17.0725 -83.0780
15.9850 -12.5052 -83.0780
-0.3296 4.5658 -83.0780
22.3741 -17.0455 -83.0780
15.6941 -22.4912 -83.0780
18.0448 -34.8985 -83.0780
12.2360 9.7754 -83.0780
21.7348 -4.8271 -83.0780
-11.8364 -11.0714 -83.0780
10.6962 22.8078 -83.0780
2.5488 -36.3811 -83.0780
0.0096 0.0719 -83.0780
14.0277 8.5410 -83.0780
1.0996 0.7907 -83.0780
10.9057 3.3382 -83.0780
-13.4655 -7.0365 -83.0780
23.7582 15.9814 -83.0780
-6.4152 24.7162 -83.0780
3.8277 2.9089 -83.0780
24.7255 -6.0785 -83.0780
-16.7874 14.5986 -83.0780
9.3714 -1.7110 -83.0780
-27.7407 1.8519 -83.0780
-3.3593 -1.5458 -83.0780
9.0632 -33.2884 -83.0780
28.0496 -9.7561 -83.0780
-10.9609 0.0825 -83.0780
18.3102 34.3428 -83.0780
0.3276 -0.4393 -83.0780
-2.1719 1.9797 -83.0780
-2.5629 7.8490 -83.0780
6.2757 7.2650 -83.0780
23.5185 16.9896 -83.0780
-2.7689 2.4139 -83.0780
-12.0841 -31.9619 -83.0780
10.1425 27.9287 -83.0780
4.5040 -11.4233 -83.0780
-5.2740 17.8561 -83.0780
-22.2671 27.1346 -83.0780
10.9166 27.4681 -83.0780
0.0608 -15.8330 -83.0780
-36.2115 -1.7438 -83.0780
-23.6650 -24.1104 -83.0780
4.9779 8.4856 -83.0780
-0.3419 0.1274 -83.0780
22.0910 -17.0964 -83.0780
-18.3714 22.1066 -83.0780
5.6401 -21.8640 -83.0780
18.3350 -25.0000 -83.0780
12.1153 28.5121 -83.0780
-6.1955 17.0987 -83.0780
31.4616 -5.2823 -83.0780
-2.1801 3.8086 -83.0780
1.7846 -2.9049 -83.0780
10.1798 -12.1917 -83.0780
13.0308 -17.1994 -83.0780
-21.3377 9.5704 -83.0780
-21.3527 12.0090 -83.0780
-4.5308 -28.2054 -83.0780
9.9002 -23.0703 -83.0780
18.3148 19.7456 -83.0780
-0.4150 0.5004 -83.0780
11.5965 35.6625 -83.0780
-0.0311 -3.6029 -83.0780
-23.0748 -7.5956 -83.0780
-21.1294 -10.4013 -83.0780
-0.5781 3.3706 -83.0780
4.5596 -9.3733 -83.0780
-5.4479 4.0763 -83.0780
23.6976 14.8873 -83.0780
30.3063 -16.7102 -83.0780
9.9544 10.5321 -83.0780
13.3727 0.4251 -83.0780
3.7725 -26.6227 -83.0780
-19.6154 0.1206 -83.0780
8.9673 19.6005 -83.0780
-0.8554 -7.9512 -83.0780
14.1446 -3.3281 -83.0780
0.4720 2.1620 -83.0780
-23.6745 7.6942 -83.0780
-33.2261 16.2272 -83.0780
8.5598 -7.4810 -83.0780
-4.0382 -15.5641 -83.0780
-15.1916 -18.6733 -83.0780
-9.8013 -28.6940 -83.0780
16.6878 15.0026 -83.0780
-31.9793 -9.2974 -83.0780
19.0913 3.6767 -83.0780
-39.3592 1.9993 -83.0780
17.3190 -18.8348 -83.0780
-22.1826 -10.6656 -83.0780
-4.2306 28.2117 -83.0780
-0.9654 0.0651 -83.0780
6.3698 0.6818 -83.0780
-16.6673 6.8820 -83.0780
-23.5750 14.3394 -83.0780
-7.9104 -21.9280 -83.0780
10.7918 2.0509 -83.0780
-3.7447 -3.7574 -83.0780
5.0911 8.7512 -83.0780
5.9278 8.8036 -83.0780
24.4223 -20.7676 -83.0780
-27.5224 -16.6257 -83.0780
1.2105 9.4110 -83.0780
-14.8454 -8.4428 -83.0780
19.4270 18.0504 -83.0780
-5.1435 3.3637 -83.0780
-3.7229 -30.2546 -83.0780
-13.9532 -29.7277 -83.0780
28.7715 9.8020 -83.0780
-2.7138 -0.6141 -83.0780
-30.9810 11.7174 -83.0780
-11.2174 -3.7658 -83.0780
-1.5456 22.3292 -83.0780
15.3089 -29.3324 -83.0780
-8.9819 -33.5007 -83.0780
0.8775 12.6897 -83.0780
-3.8451 -9.3877 -83.0780
-1.1517 4.9797 -83.0780
10.6444 -1.1036 -83.0780
19.8449 22.6044 -83.0780
-7.5270 -0.4380 -83.0780
-18.9428 -15.6265 -83.0780
8.4698 12.2885 -83.0780
-34.0608 17.5719 -83.0780
-2.7566 6.6928 -83.0780
4.5780 20.4667 -83.0780
32.9051 3.8615 -83.0780
-23.8321 -19.3061 -83.0780
-21.0174 0.0170 -83.0780
-20.6202 2.7377 -83.0780
20.9327 -15.6991 -83.0780
26.2176 29.0769 -83.0780
1.8252 28.2278 -83.0780
-24.2536 -13.3466 -83.0780
-7.8701 -3.8368 -83.0780
13.2423 -2.5697 -83.0780
-3.2993 -30.2371 -83.0780
5.2765 -10.3529 -83.0780
-8.9233 -34.9089 -83.0780
-8.8056 34.2230 -83.0780
16.5843 2.9853 -83.0780
-10.7315 -17.4364 -83.0780
27.7614 -8.0255 -83.0780
25.8140 25.0031 -83.0780
38.6828 -2.7104 -83.0780
23.9308 2.9190 -83.0780
4.2139 1.0301 -83.0780
-7.8450 -0.9159 -83.0780
5.9932 -7.7703 -83.0780
2.7060 3.9789 -83.0780
-13.7937 -24.8421 -83.0780
0.0353 5.7125 -83.0780
6.1447 -22.7411 -83.0780
2.0916 -0.5059 -83.0780
29.0681 14.7896 -83.0780
-8.2311 -4.0113 -83.0780
-24.5624 11.7708 -83.0780
21.5472 -29.9266 -83.0780
-7.3547 -23.7260 -83.0780
28.2531 -7.7803 -83.0780
-13.6184 6.0729 -83.0780
-1.1899 2.2979 -83.0780
-22.6130 12.5472 -83.0780
18.3716 -13.5588 -83.0780
14.6685 -5.7476 -83.0780
0.1648 2.0929 -83.0780
-0.3404 1.7539 -83.0780
-2.3001 -2.2506 -83.0780
27.9846 17.8588 -83.0780
27.3765 10.7702 -83.0780
0.1187 3.5165 -83.0780
9.2476 -28.0838 -83.0780
2.5425 1.0730 -83.0780
-31.8222 -12.7019 -83.0780
14.6028 0.5531 -83.0780
-2.0317 -34.5319 -83.0780
-2.7048 -7.6159 -83.0780
-38.1547 -7.3842 -83.0780
13.5124 18.6645 -83.0780
14.7434 -12.2700 -83.0780
-10.7660 0.2420 -83.0780
-2.2047 38.6447 -83.0780
24.7375 0.5668 -83.0780
-30.2914 20.6616 -83.0780
12.3333 10.2039 -83.0780
