ply
format ascii 1.0
element vertex 1024
property float x
property float y
property float z
end_header
-16.1265 2.9122 -13.2053
-18.0066 3.4470 -18.1607
-0.3026 3.2880 20.1113
10.0577 1.8771 2.4681
-2.3947 3.7667 17.1539
11.6373 6.2513 -5.1157
6.0518 -6.0030 6.8152
19.5407 6.0020 -23.5280
3.2028 11.4042 -1.6413
-9.6277 -7.4390 -2.4596
-0.7745 1.5767 24.0456
12.0160 -15.6140 -21.6454
-1.9599 3.6290 18.0170
-1.2938 -12.6519 -3.8626
-11.4391 12.0348 -13.7567
-1.7295 5.0796 14.8559
-2.3918 -3.8683 16.9386
-3.8868 -2.4128 16.8704
0.3387 13.7226 -6.4314
-0.0333 -0.0229 28.4154
-18.0807 10.0974 -24.2090
-7.2421 1.2965 9.7860
-9.5391 -3.6547 2.5092
0.2104 12.7572 -3.9671
-12.3767 17.3836 -25.8139
0.7929 5.4998 14.3704
17.5966 -13.3766 -27.7597
1.3072 -3.8507 18.1645
1.3269 9.1165 5.0621
-16.0705 -3.3624 -13.2845
8.0224 12.1022 -8.4503
2.5909 -2.5936 19.1843
-21.6580 -0.1782 -26.6268
-3.8479 -2.4221 16.9417
0.3792 -0.7779 26.3147
-11.3442 -14.2025 -17.7618
2.7769 2.5431 18.9311
-1.5975 0.3555 24.3513
1.4946 1.6551 22.8404
-7.6026 14.7556 -13.7444
16.1100 -0.6078 -12.5283
-19.2121 -3.5711 -21.2354
-11.2503 12.4806 -14.2632
-15.6009 -8.2616 -16.4288
0.3807 0.1184 27.5031
-2.8143 8.4644 5.8072
-12.0793 -5.0023 -4.7695
0.7603 -2.0195 23.0241
19.1812 -3.6886 -21.2137
-0.0492 -12.2139 -2.5798
9.7866 -19.4206 -26.8518
-1.8529 -1.7935 21.9525
-1.8550 -4.4017 16.3565
3.5068 -3.8277 15.3009
1.9973 3.1034 19.1218
4.3511 -5.9059 9.8410
13.5011 11.9263 -17.3479
-7.2037 -18.3337 -21.6349
2.6573 3.7534 16.8091
19.2408 8.7905 -25.3411
0.4982 7.6335 9.0413
-0.6097 -4.8170 16.1559
8.7948 4.6646 3.1713
12.1951 -16.1792 -23.0668
-3.8011 -6.0027 10.4284
6.5567 -3.6652 9.3931
17.7065 -1.7463 -16.7828
1.4159 14.7624 -9.2406
-1.9196 9.0822 4.8833
-2.1578 -7.7745 7.9753
18.4261 -7.0732 -21.7339
-7.3527 5.1404 5.6763
0.3041 -1.1365 25.5227
11.5665 -15.1679 -20.0480
5.8306 -10.0207 -1.0001
9.7565 -2.4384 2.9132
-5.1433 13.2374 -7.6399
-2.5887 10.4087 1.2095
-2.4509 -4.6429 15.1511
-5.7758 3.1800 11.7310
-20.6507 1.6185 -24.2214
-9.4472 -7.7775 -2.6378
-0.1120 -0.6579 26.8191
-0.4075 0.8230 26.1800
-3.1431 1.0803 20.0560
21.0921 -6.9264 -28.0054
1.3569 5.3592 14.4425
-2.2190 -3.4445 18.0859
10.2473 16.2166 -20.3231
-1.2747 19.2096 -20.4985
-1.4741 -1.0522 23.9070
5.1528 -3.2075 13.0646
-2.9512 -2.6230 18.4653
-5.2521 -7.9770 4.2011
10.3505 -7.9303 -4.6809
-8.0619 -12.6094 -9.5874
7.0709 -12.7694 -8.6455
-0.7320 1.1389 25.0712
12.5737 1.3569 -3.6814
10.3555 15.1544 -18.2144
-7.9249 -16.7550 -18.6726
-10.3468 -1.7728 1.7905
1.4694 -1.0897 23.8605
-3.8814 3.9031 14.5034
7.4041 -12.5709 -8.6273
0.7733 -12.9440 -4.4971
-1.3085 15.8786 -12.0470
0.9481 15.0528 -9.8836
-3.0283 10.3670 1.0197
13.9069 1.5918 -7.1211
-5.5299 2.1985 13.3666
-5.7941 1.9015 12.9918
-3.3683 10.4658 0.5253
15.7922 12.4185 -22.6331
-3.3399 9.8315 2.0814
-1.6704 0.4690 24.1008
12.2983 -18.1845 -27.3753
4.4624 -2.8070 15.0957
19.8664 0.8000 -22.1043
-3.0054 5.0188 13.6240
-4.3104 3.8538 13.7968
-0.9181 12.8331 -4.2396
-1.4472 15.2874 -10.5788
13.2797 -1.9165 -5.6432
3.3282 -3.4944 16.2313
-19.5055 6.1713 -23.5709
-12.7788 0.7751 -4.0776
-14.6308 3.9290 -10.0529
-12.0833 14.8432 -20.2131
9.1285 -8.1262 -2.5987
-12.4882 1.5043 -3.5078
8.8370 15.0032 -15.8151
-7.5467 -5.7346 4.3855
-5.3440 -12.2662 -5.5478
9.3523 1.7160 4.3089
1.4405 12.3571 -3.1571
-5.3309 -0.8167 14.7870
4.2212 -2.9069 15.4687
-13.9664 1.3812 -7.2148
-19.5716 -4.8477 -22.8187
-3.9391 -2.8084 16.2008
0.1301 -0.3368 27.5988
3.3465 -1.3628 19.3181
1.6274 0.0831 24.3693
-3.9335 -0.6238 18.3779
1.0453 -4.7418 16.1554
-10.0086 -17.3746 -22.5337
0.3718 -3.1949 20.3289
-19.5459 -2.1958 -21.5603
-5.8680 -3.7240 10.8230
7.4376 4.2110 6.7568
-13.3176 -15.7457 -23.9884
-3.6106 -3.6478 15.4502
17.7817 -12.1589 -26.3279
1.6953 1.5462 22.6762
2.5302 5.2041 13.7851
-22.1724 2.5175 -28.2974
11.6803 -7.3779 -6.6569
2.6902 -9.8578 2.5016
6.9566 2.7960 9.4290
9.2538 9.6652 -5.5509
3.1680 -5.2138 12.9849
4.6882 -10.5289 -0.8266
-0.3054 -4.6944 16.5406
4.5147 6.8127 7.7095
-9.1305 3.1237 3.9484
0.1363 0.1293 28.0398
9.1028 -12.2679 -10.3762
-19.4657 -10.5435 -27.8464
-16.8784 -6.2787 -17.3326
12.4778 12.7248 -16.8575
2.1976 2.6196 19.8122
-4.3369 2.1046 16.2446
-0.3865 -21.3807 -25.9277
0.1101 -1.1687 25.5293
15.2560 -2.9148 -11.0276
-1.7253 3.8007 17.8909
12.9369 7.7527 -9.8820
14.4806 -6.7288 -12.1367
-2.0292 -17.5163 -16.3781
8.6301 -12.8681 -10.9310
-6.7399 -9.8898 -1.9535
-2.0895 11.4942 -1.2267
-7.0089 1.5637 10.2342
10.5306 -1.0498 1.5735
-11.1220 -9.4023 -8.5623
-4.4709 -7.9010 5.4041
-19.1397 6.7982 -23.1959
-3.2278 10.0282 1.6954
1.7740 -1.2544 22.9863
3.0092 12.5245 -4.2777
-0.7034 0.0916 26.7122
-11.9378 -4.4424 -3.9127
0.7284 1.8523 23.4505
17.5172 -4.2230 -17.3599
3.3051 18.2577 -18.7230
11.7041 3.8909 -2.8849
4.1113 6.3589 9.2389
-9.4626 15.8626 -18.5095
-5.0278 -14.4063 -10.3311
-0.7502 3.0589 20.4992
14.4032 -9.5421 -15.4712
6.9806 15.6224 -15.0480
-8.6426 -6.8028 0.5145
2.1822 -4.9837 14.6662
-4.6700 -8.7861 3.1844
0.0037 -0.7999 26.4816
-7.5183 -9.2565 -1.8441
-9.5086 -3.3929 2.8133
-10.0049 -9.7052 -6.9711
-18.9273 0.6324 -19.6993
1.7034 -8.6576 6.0527
5.5014 5.1016 9.4154
6.5558 3.2492 9.8889
-4.3302 6.7808 8.0337
0.1667 0.1862 27.8819
-14.6930 15.3716 -25.6225
-11.2778 8.8785 -8.0265
-16.1748 -8.8758 -18.4571
-4.7822 -2.1026 15.2173
14.3496 8.0962 -13.4312
-8.6912 0.6206 6.3333
-3.0982 -1.4897 19.7653
-6.3115 6.4566 5.5296
3.1346 -0.7708 20.2994
-12.0128 2.0102 -2.4927
-1.9399 -10.8596 0.4309
-5.1460 -0.6950 15.2970
9.2762 1.8806 4.4198
10.8877 -4.7387 -1.7145
4.3143 -1.0331 17.2232
-7.2129 12.1904 -7.5458
-0.9223 -0.5853 25.7370
14.3627 -2.0445 -8.4192
-17.0720 -11.0453 -23.2527
-15.6777 -14.9640 -26.6626
-1.6916 -9.1171 4.9092
-11.3353 -5.8269 -3.9324
-5.3689 0.8323 14.6852
9.1630 -1.8154 4.7349
13.3340 1.3398 -5.6022
-14.3187 8.7363 -14.1883
2.8424 -21.1177 -25.7341
-15.5463 3.9461 -12.3193
-2.7069 16.9297 -15.1336
1.4383 -20.1974 -23.0363
6.3992 12.2142 -6.5899
-1.6104 4.7084 15.8485
-13.6033 2.9851 -6.9410
17.8601 -4.9124 -18.6438
-6.4058 -7.8459 2.7295
-2.5123 -18.1392 -18.1066
0.0774 0.6318 26.8977
-20.0719 1.6139 -22.7514
-3.0666 2.5083 18.4311
2.5491 -1.8029 20.5686
-12.6693 1.7356 -4.0402
14.3756 0.0670 -8.0838
-5.0774 -10.3341 -0.7977
18.7858 -4.6328 -20.7450
-1.5540 1.9049 22.2589
7.2806 -17.5668 -19.8974
-5.1950 -5.2001 9.8032
-13.4272 4.1007 -7.2275
3.3458 0.8474 19.7307
0.0676 5.8594 13.5987
0.9824 -7.8950 8.2618
-1.4264 -4.6746 16.0744
0.1176 0.0762 28.1614
-0.1095 0.0457 28.2161
15.5708 -3.3304 -12.0232
-4.6041 4.8789 11.4383
-2.0806 -14.0977 -7.7645
0.1745 -3.5658 19.4286
11.5488 0.6486 -0.9325
-0.5534 -1.6807 24.0129
0.3150 -0.6656 26.6433
-0.9384 -7.3490 9.6550
11.8528 15.2083 -20.5744
-3.0709 8.5387 5.4147
-0.0017 -0.1154 28.2245
2.5257 10.7839 0.3185
6.7221 8.5678 0.7913
11.3888 18.5036 -26.8020
-6.3671 1.2480 11.9984
9.0008 -10.6685 -7.0206
2.6020 0.4506 21.7946
20.5057 -0.2537 -23.6950
12.9616 17.6100 -27.1540
-3.6150 8.0854 5.9681
-19.8978 5.3232 -23.9248
-2.1799 0.8062 22.6005
18.1137 7.1719 -21.0843
4.1106 -1.7447 17.1485
6.2764 14.2084 -11.0300
13.0967 -11.1173 -15.2210
-16.1743 -3.4119 -13.5693
1.4173 0.4369 24.7420
-11.2767 -3.2976 -1.3957
-0.1732 -14.7625 -9.0711
3.4851 0.2564 19.6209
0.3439 0.1793 27.5307
-17.4773 -2.2110 -16.3350
1.9520 -0.0113 23.5482
3.9549 -1.1955 17.9987
-2.5126 4.3419 15.7457
-0.1352 22.0857 -27.7150
-6.6022 -11.8399 -5.9973
17.2990 11.5787 -24.4821
4.2140 3.6346 14.3494
3.2558 -17.0385 -15.6482
-10.8788 -15.2482 -19.1729
-10.7573 19.5027 -28.1901
13.3780 -5.0376 -7.8782
-10.4107 16.0888 -20.2732
17.1645 9.2288 -21.1005
11.4179 -7.1943 -5.8423
17.5241 -3.9870 -17.2397
0.0457 -0.4343 27.4063
-8.5069 4.2503 4.3060
1.6223 -2.6901 20.5200
19.7074 -0.8342 -21.7035
8.6563 8.9654 -3.2121
2.9003 -1.8871 19.7082
6.1287 -0.4344 12.8749
-4.0892 -1.1033 17.7345
-1.4345 15.0902 -10.0760
0.5217 -1.2689 25.0250
18.3813 10.3287 -25.1647
-3.1928 -3.8633 15.7573
3.2628 -9.5589 2.8017
4.7333 -4.5530 11.7966
-17.7003 10.6656 -24.0976
19.7697 -9.7146 -27.5660
0.9554 10.1692 2.5126
-3.5221 0.8245 19.3082
-0.4053 -20.2854 -23.1403
7.7320 -2.8766 7.5135
7.5670 -1.5542 8.8497
3.4196 -2.8952 17.1101
-4.5435 -13.0896 -6.7596
-0.1641 -0.2046 27.8504
10.5657 -16.1265 -20.5690
4.4670 -8.7653 3.4700
-14.3597 1.7084 -8.3006
5.4057 8.0548 3.8197
16.7872 -10.9679 -22.5374
10.9628 -15.4446 -19.7044
20.8271 4.3577 -25.6576
10.4787 3.0548 0.7279
0.1962 17.6393 -16.3958
-7.4811 4.9279 5.7096
2.3265 4.3216 16.0219
-0.9514 -18.2417 -17.9899
0.1890 0.0248 28.0327
-0.7619 -19.8875 -22.1542
22.3317 0.8296 -28.3794
-19.9324 -0.1708 -22.2333
7.6340 12.3428 -8.4328
-2.0668 -0.3410 23.1848
-8.8316 19.7361 -26.5332
-10.6473 -12.8885 -14.0463
2.8151 -19.3307 -21.2186
16.2703 -12.5450 -23.7914
-8.9405 -6.0821 0.9868
-3.2728 8.5827 5.1312
-10.1735 19.9514 -28.5027
-2.3470 9.4749 3.6652
-0.0587 0.0920 28.2404
-5.5578 18.9616 -21.7907
1.6517 4.2074 17.0099
20.6893 -5.6478 -26.0859
8.5554 -6.3258 1.4277
-7.4581 1.9087 8.9172
-4.6822 -4.2747 12.3759
-3.5942 -10.0624 1.3133
-0.5304 -7.3464 9.7649
-12.0215 6.8798 -6.7476
1.6119 -14.2465 -7.9861
5.9516 -5.9836 7.0305
1.0636 4.9664 15.5867
4.1844 -3.4616 14.6913
-3.8399 -16.1878 -13.8409
-5.5418 10.7588 -2.2950
10.6277 -8.0510 -5.4285
9.9868 -15.9135 -19.3168
-5.5744 -5.8116 8.0149
-3.3691 3.6742 15.8259
17.6710 -10.2563 -23.5027
1.3915 -2.4477 21.3495
0.0801 -0.2478 27.8550
-5.9865 -11.5319 -4.5636
5.4093 -1.8656 13.9495
-11.1108 -8.5948 -7.2469
1.4094 20.3062 -23.3075
21.8656 -0.8035 -27.1911
-7.3664 4.8087 6.1202
14.1103 -5.5087 -10.0486
-0.3666 -0.4883 26.9636
4.3618 4.6042 12.3703
12.8136 -1.0580 -4.2173
16.7340 -8.6202 -19.4089
5.8843 -8.8364 1.4880
0.1160 -2.9652 20.9628
20.9004 2.4570 -25.0624
-6.3676 3.0904 10.4972
-9.8832 -3.2260 2.0481
-1.7496 -17.0694 -15.1696
14.0356 4.1638 -8.7570
15.1869 11.3946 -19.8226
10.0742 -2.9603 1.7840
-20.5961 2.7364 -24.3820
6.9218 9.5847 -1.5836
-0.5331 6.6660 11.4917
0.7861 2.5339 21.7633
2.5145 5.1791 13.8598
-1.9954 -12.2497 -3.0817
-13.3970 11.3557 -16.1968
1.9800 6.5411 11.1176
10.0819 -0.6203 2.8004
11.5571 -7.2915 -6.2740
-9.0131 3.1204 4.2337
8.8170 18.2302 -23.0411
-10.6007 16.1242 -20.6131
-2.2212 5.1187 14.3115
-0.2603 0.0865 27.8199
16.4208 -1.8359 -13.5511
13.1159 -9.8503 -13.2450
-10.8660 7.6102 -5.2579
-0.3724 20.3055 -23.1901
-12.1236 1.9695 -2.7542
-8.9998 -6.8027 -0.2056
-17.1359 -13.2827 -26.6837
18.1129 9.4237 -23.4671
-9.4382 -16.7892 -20.5199
0.6744 -0.5555 26.2936
3.1245 2.1973 18.7927
-3.6660 6.7503 8.9604
4.9257 4.9045 10.8201
-15.1243 -7.9097 -14.9379
-16.9643 5.6919 -17.0406
-14.3324 1.8065 -8.2620
-12.3631 7.7760 -8.6678
0.9902 0.5353 25.6523
-0.0060 0.1581 28.1153
14.3343 3.8079 -9.2440
11.0512 -9.5584 -8.6835
-2.7405 7.3077 8.6469
4.3143 0.7911 17.3505
14.9031 -16.0442 -27.2357
-10.0531 -1.8968 2.4705
-8.1608 -16.9944 -19.4814
-14.6555 6.8497 -12.6702
19.9973 -0.7043 -22.4282
6.2608 4.1779 9.3543
8.5939 14.6363 -14.6959
4.2145 6.1356 9.5662
12.5339 -4.8824 -5.7300
-5.8686 6.4691 6.2797
12.9749 -14.6750 -21.3555
-7.1722 -3.0844 8.6401
6.6594 -6.1179 5.4939
4.0132 -5.1844 11.8255
-5.6565 -2.8167 12.4294
15.3580 -9.5096 -17.4737
-11.3105 7.8453 -6.5288
-10.8697 11.5690 -11.8990
0.2753 -0.8215 26.3123
9.3571 7.7902 -2.4817
0.1554 4.1828 17.8610
1.5930 -8.6275 6.1806
-5.9531 8.0839 2.9572
4.2224 5.5829 10.6960
-1.7152 2.4998 20.7994
16.2644 -5.2960 -15.0323
-8.5521 7.1510 0.1348
-9.1898 -7.1033 -1.0547
19.4115 -10.4638 -27.6284
-1.9420 -19.4253 -21.1867
4.1288 15.4516 -12.2031
4.0548 -3.5536 14.7907
10.3088 -4.8185 -0.4545
6.3273 18.4339 -21.1040
-3.2087 -1.1656 19.8263
-0.5984 -0.4432 26.6222
-5.8313 -9.9838 -0.9196
-2.9086 -6.0398 11.4500
4.0598 13.3922 -7.1117
3.9126 -9.8741 1.4761
7.7868 7.4973 0.9965
19.3333 -2.9913 -21.2917
2.8682 11.6428 -2.0116
7.4877 -6.8105 2.7476
-0.1863 14.3733 -8.0805
-2.0777 6.2522 11.7437
6.7475 -13.2546 -9.3504
-16.1925 9.0876 -18.7583
-8.1859 0.7540 7.5878
-2.7916 -19.8492 -22.5170
21.1080 3.6710 -26.0313
-1.6305 6.0526 12.5585
10.2376 -13.4376 -14.4931
-6.3781 -4.3993 8.7906
5.4211 1.6568 14.0855
-3.2175 0.4690 20.2397
8.2112 1.7482 7.1433
-5.5421 -0.3127 14.3850
-7.3660 -8.7452 -0.5937
0.3145 0.2777 27.4499
-0.3423 0.6716 26.5991
-2.6745 -1.6881 20.4656
0.2072 18.0908 -17.5455
0.8854 -0.5709 25.8358
-8.5102 3.0018 5.5420
-0.4431 0.2114 27.2681
6.6512 -0.8307 11.4522
-9.5799 14.7324 -16.2246
8.4553 -2.3009 6.2074
0.1383 1.2944 25.2037
-3.9411 5.9864 10.2699
9.8461 -16.0742 -19.4758
-2.6386 -10.7698 0.2863
16.5633 -3.3201 -14.4923
-2.1878 -1.7928 21.3165
3.0192 -3.0463 17.5979
-7.8997 2.5019 7.4202
-0.8426 -0.9958 25.1970
-13.6562 17.0358 -27.0722
-3.5438 -1.0971 19.0729
-8.2326 -13.0762 -10.8238
0.6371 4.4288 17.1261
18.6068 -1.8634 -19.0932
-7.7747 2.5658 7.6730
-0.9680 -2.4794 21.7415
-0.7026 -6.2764 12.4382
21.6135 -0.8356 -26.5528
10.2681 -13.4428 -14.5506
-0.5768 0.3658 26.7791
-8.2558 8.7584 -2.1267
19.8838 5.2618 -23.8503
-0.1879 -15.8947 -11.9539
-16.6800 1.3642 -14.0924
4.1114 12.8065 -5.7273
-8.3794 9.7498 -4.2140
4.5638 -1.4233 16.3464
12.4568 -5.6783 -6.3377
-0.5768 3.0991 20.4920
-0.5765 -0.9694 25.6464
3.5172 -5.9538 10.9117
2.0200 16.5945 -14.0446
-12.4356 -17.2924 -25.7122
3.0187 5.8145 11.8377
-12.2135 8.7297 -9.7050
2.5793 8.2320 6.5542
13.6313 13.3974 -20.1447
-0.7664 15.5323 -11.0764
-4.1253 15.4191 -12.1210
0.4104 3.8278 18.7164
-8.0542 -5.6243 3.5064
-13.3615 15.7679 -24.1037
3.6763 6.4864 9.5351
3.3822 3.3802 16.3434
-10.0055 8.9616 -5.6810
-0.4939 -0.4705 26.7814
-9.0912 14.1343 -14.2703
-15.5528 -12.0081 -21.5098
9.4531 11.1810 -8.7605
-0.9938 14.7193 -9.0438
2.7330 -0.3949 21.4874
14.8546 -7.7338 -14.1218
-10.1695 5.3425 -0.7299
0.5225 -4.5051 16.9709
-17.9823 1.7573 -17.4844
-5.6067 16.0475 -14.7622
-3.5086 19.1001 -20.9259
-4.7505 9.4128 1.6732
-13.2946 1.9393 -5.6892
3.1491 -2.3023 18.5860
-5.7015 -9.8677 -0.4981
-7.9867 -17.4581 -20.3621
9.8696 -3.4723 1.8795
1.5828 -5.3443 14.3268
-9.9843 -17.5751 -22.9461
11.5830 1.8487 -1.3462
15.3361 -10.1211 -18.2656
-0.7287 -3.2811 19.9607
-9.6169 -15.9714 -18.9492
-8.3792 3.6702 5.2273
-16.6040 -14.9077 -28.2961
-6.8627 18.9627 -22.8270
12.5368 -1.6997 -3.6937
-3.5123 -10.4295 0.4985
-5.0916 -18.8554 -21.2087
2.2543 0.4830 22.6483
18.5239 9.8349 -24.8803
-7.6475 -4.1507 6.3640
11.0883 -6.3946 -4.0719
-2.6044 -2.4949 19.3356
6.7480 0.4231 11.3035
-0.3154 2.1210 23.0586
5.6658 -7.4838 4.6191
0.0591 -1.4963 24.7054
6.4578 9.4086 -0.5368
-4.7442 -4.5552 11.7725
-20.6281 -3.7995 -24.8862
12.8903 -13.0281 -18.1447
-19.9258 5.9083 -24.3977
-8.9263 2.6058 4.8424
-13.5525 -9.8449 -14.1309
1.2347 2.2743 21.9294
-9.1257 -18.2433 -23.4180
-11.0590 -10.8882 -10.9957
0.6582 -2.4426 22.0774
3.1935 -12.9125 -5.3486
0.1180 -0.4171 27.4144
-10.8122 -2.7925 0.0860
-8.9507 2.1519 5.0795
10.1717 5.2642 -0.6426
-10.0622 -9.3319 -6.4228
-2.2340 -7.3899 8.8620
8.0932 2.6016 6.8738
-16.5297 14.1837 -26.9378
3.2239 -10.2510 1.1580
-2.6289 -0.8222 21.5051
-11.9057 -7.7146 -7.6021
3.4042 4.2537 14.6468
9.0499 -1.9193 4.9638
3.3017 -9.0363 4.0232
16.8742 1.6814 -14.6578
2.0454 -0.5468 23.1276
-19.9894 1.5757 -22.5345
-0.1942 -0.0506 28.0072
-6.5915 0.3117 11.7169
0.7433 15.6333 -11.3305
-7.7644 12.7550 -9.5010
-3.9152 1.4572 17.8816
5.0708 -12.4422 -5.6906
-16.1727 0.5389 -12.6817
8.0105 12.8974 -10.1378
-7.0620 -0.6024 10.4723
3.6449 -3.5964 15.4809
-0.5442 2.1213 22.9424
14.6058 -4.0404 -10.0662
-1.9081 16.5591 -13.9216
0.9889 -13.1421 -5.0373
-1.1494 -13.7120 -6.5162
-19.6962 -0.0418 -21.6300
11.6205 5.1641 -3.8587
-20.9989 5.3591 -26.6605
1.3573 -3.1829 19.7083
16.2832 11.4065 -22.1004
-0.0875 5.8789 13.5485
3.9828 -2.8173 16.0970
4.8477 -5.5400 9.7751
-19.8854 -6.4012 -24.6704
0.5226 3.4772 19.5655
-16.2472 -6.4543 -15.9932
0.0559 -0.1031 28.2196
-6.9119 -8.0066 1.5874
-10.0763 9.0756 -6.0092
-10.3690 7.1719 -3.5820
6.8673 13.4056 -9.8315
-18.8291 10.3731 -26.2159
0.0322 -0.7105 26.7073
11.9168 15.5761 -21.4153
21.1530 2.1913 -25.6273
11.3634 4.0946 -2.2349
0.3461 1.0078 25.8052
-12.9777 -4.1655 -6.1845
1.8125 16.7994 -14.5028
2.1628 -4.7732 15.1760
1.3391 9.0611 5.1972
11.7938 -8.8176 -8.9745
-0.7797 0.7436 25.7750
-2.5211 -3.1520 18.2415
-2.8044 4.5580 14.8924
15.7894 -14.7152 -26.4348
0.0146 0.2748 27.8175
-10.5544 15.8073 -19.8752
10.8374 10.5278 -9.9507
-0.8384 0.2471 26.2928
-7.4594 -3.0561 7.9938
3.3329 8.7279 4.7311
5.5075 -1.8512 13.7247
-0.1261 0.3642 27.5369
-12.8464 9.7995 -12.6199
-8.9734 0.7522 5.5912
-20.5984 -4.4582 -25.1414
6.5938 3.3710 9.6631
-6.5964 2.1389 10.8623
2.3707 2.5896 19.5792
12.8371 -3.3455 -5.2580
-6.1045 2.6832 11.5404
-0.8300 -1.0167 25.1766
-1.9684 2.9756 19.4346
3.1313 -12.4891 -4.2643
-12.0639 9.0947 -9.9480
0.2015 0.3465 27.4976
-17.4858 9.5304 -22.1854
-12.0368 12.6965 -16.0263
0.5968 -10.9734 0.5377
0.8423 2.8641 20.9172
-5.7374 8.6006 2.1951
9.9107 -6.5475 -1.7247
-10.2078 -0.1315 2.5260
9.3425 -4.8020 1.7734
9.4170 -0.9434 4.4216
4.0274 -11.5890 -2.7193
4.8624 -1.1053 15.8222
9.5000 -1.1277 4.1606
-17.4454 5.6088 -18.1385
-0.2243 0.3023 27.5597
3.2416 -20.7688 -25.0012
1.9735 -7.7171 8.2374
4.9791 9.5376 1.1247
0.1649 -3.7439 18.9768
9.3261 -3.9481 2.7330
6.0962 -9.7791 -0.8220
-0.0415 1.7673 24.0173
-0.3000 -1.1392 25.5187
-11.5726 17.3954 -24.6777
-0.3645 -1.8835 23.6336
-13.3868 -13.1558 -19.2697
-2.1431 16.0441 -12.6943
10.5578 -6.8580 -3.5361
-0.1548 7.9350 8.3112
4.8453 -8.2846 4.0823
18.9427 -3.4843 -20.5206
-8.5624 5.5634 2.5200
1.9387 15.6291 -11.5798
-0.1220 -1.9030 23.6629
-22.3097 0.4438 -28.2954
2.4942 -8.5788 5.7714
2.6604 0.1798 21.7291
2.8348 19.0027 -20.3998
9.9547 8.6925 -5.1302
-8.0173 2.5160 7.1239
-8.5930 -0.8408 6.5352
8.8897 14.2861 -14.3228
-2.1706 7.0682 9.6925
-12.5532 -17.0313 -25.3510
1.6634 1.0706 23.4817
0.5107 -7.0769 10.4529
1.3220 -3.8957 18.0439
-9.3938 -16.9315 -20.7813
-6.4610 13.7050 -10.0592
-19.0307 8.2471 -24.2897
0.2937 0.0345 27.7652
8.5446 10.6410 -6.2282
0.5327 16.6512 -13.8989
14.7365 10.6110 -17.7167
0.7934 -20.7373 -24.3193
-22.2676 -1.2859 -28.2714
8.8443 4.1682 3.6243
15.4762 6.3934 -14.1156
7.2111 12.3309 -7.8518
-13.9221 2.2301 -7.3806
10.7114 -11.5670 -11.6203
-13.3854 17.1588 -26.8902
5.6958 -0.0026 14.0161
-6.3858 19.5373 -23.8152
-6.3676 9.8664 -1.3798
-9.1110 0.7147 5.2495
5.9625 -3.0074 11.5154
-2.5387 11.8856 -2.4262
-0.0404 0.6191 26.9386
-3.1927 -5.1514 13.0875
-0.5006 0.9187 25.8545
2.6793 -0.8813 -28.5182
-4.3217 2.6792 -28.5182
-2.9996 14.4645 -28.5182
3.3571 0.1992 -28.5182
-14.8094 -14.4277 -28.5182
17.9869 -10.7517 -28.5182
6.7871 -1.1434 -28.5182
0.3793 1.4901 -28.5182
2.4101 -3.8934 -28.5182
15.6988 -0.7303 -28.5182
8.0305 5.6728 -28.5182
10.1088 -15.8894 -28.5182
18.4869 3.2684 -28.5182
-2.9917 -4.3833 -28.5182
9.0632 -2.9222 -28.5182
5.7274 -1.0737 -28.5182
2.7061 10.8634 -28.5182
-3.9052 10.3840 -28.5182
-11.3737 3.2586 -28.5182
12.1000 -12.4646 -28.5182
1.0785 13.9864 -28.5182
9.9994 -4.7031 -28.5182
0.4638 -13.7270 -28.5182
-15.9523 10.2977 -28.5182
-13.8082 10.0050 -28.5182
5.6794 -7.7273 -28.5182
0.4294 -3.1471 -28.5182
0.5466 -1.3234 -28.5182
-1.1704 -9.6587 -28.5182
4.6802 -4.6685 -28.5182
-12.7576 -6.4898 -28.5182
0.6159 -15.7953 -28.5182
0.2488 0.2005 -28.5182
9.6458 9.0779 -28.5182
6.7147 -1.4069 -28.5182
7.2056 2.9949 -28.5182
17.9509 -12.9260 -28.5182
4.1521 -9.6006 -28.5182
-2.3849 -6.6339 -28.5182
0.4731 -3.8226 -28.5182
-5.6973 0.5375 -28.5182
-7.5168 -12.7751 -28.5182
-1.6662 22.3279 -28.5182
-0.7466 0.1792 -28.5182
-3.5622 -19.0901 -28.5182
-1.1313 -14.5006 -28.5182
6.0032 7.2510 -28.5182
18.5938 0.3110 -28.5182
17.8407 -5.4022 -28.5182
-12.9922 -10.7129 -28.5182
12.1937 -15.1027 -28.5182
15.7812 12.2377 -28.5182
21.0926 -0.4222 -28.5182
-0.0433 -0.3716 -28.5182
16.3942 -5.9068 -28.5182
-6.7719 -6.3002 -28.5182
-14.1921 -8.4975 -28.5182
-0.0357 0.0469 -28.5182
-5.0740 3.6377 -28.5182
-8.8077 -18.7882 -28.5182
6.9892 4.6956 -28.5182
-4.0826 12.7431 -28.5182
21.4158 1.7352 -28.5182
-2.9069 -12.2109 -28.5182
-10.4177 -11.4967 -28.5182
16.5365 -14.8675 -28.5182
-4.7204 7.9380 -28.5182
12.4854 -12.7417 -28.5182
16.3286 -3.5870 -28.5182
1.6976 -2.5324 -28.5182
-2.3459 3.3855 -28.5182
-0.9668 -5.5587 -28.5182
-8.1209 17.3859 -28.5182
5.1553 7.1147 -28.5182
9.2808 -8.7223 -28.5182
-0.5510 1.4557 -28.5182
7.1751 -18.2648 -28.5182
-6.2862 -0.6579 -28.5182
-4.4344 -3.8101 -28.5182
-2.1521 0.9176 -28.5182
21.0069 -3.5150 -28.5182
9.5140 -4.5000 -28.5182
0.1417 -6.9108 -28.5182
16.8992 -11.2562 -28.5182
-3.5610 -11.1506 -28.5182
7.4833 2.5555 -28.5182
0.3698 -0.6798 -28.5182
-0.1994 0.3745 -28.5182
16.8285 -8.3638 -28.5182
-16.9429 -12.1106 -28.5182
-9.8413 2.1666 -28.5182
-7.6499 0.3058 -28.5182
3.2440 10.7711 -28.5182
-18.7200 -12.2058 -28.5182
0.3357 0.3489 -28.5182
9.0300 -12.8570 -28.5182
-0.4030 3.4327 -28.5182
2.3007 3.2555 -28.5182
-2.3535 19.2732 -28.5182
13.0841 -2.1515 -28.5182
-15.9007 6.6864 -28.5182
-1.1621 2.7898 -28.5182
-11.0300 5.4506 -28.5182
7.4079 3.3690 -28.5182
-19.9509 -5.8648 -28.5182
-4.6986 -3.6502 -28.5182
-1.0151 -4.1124 -28.5182
-20.7564 -4.8053 -28.5182
3.1838 15.4935 -28.5182
-6.9752 3.2614 -28.5182
-5.9108 -8.8118 -28.5182
-1.6627 -0.8699 -28.5182
-10.7056 -5.3619 -28.5182
13.8264 16.6070 -28.5182
7.3680 -2.1734 -28.5182
-3.5289 21.7911 -28.5182
10.1940 12.6693 -28.5182
0.6900 9.3783 -28.5182
-13.8690 1.7294 -28.5182
0.8999 21.0681 -28.5182
0.2141 0.2255 -28.5182
-6.4278 2.6448 -28.5182
8.8588 11.0805 -28.5182
-20.4323 4.9247 -28.5182
7.1072 6.7791 -28.5182
1.7036 -5.1429 -28.5182
0.8473 -0.7748 -28.5182
7.0023 -6.1074 -28.5182
1.5114 -9.9709 -28.5182
-2.8654 7.5424 -28.5182
-4.8446 18.7513 -28.5182
-8.6369 -3.3801 -28.5182
10.3802 6.7900 -28.5182
8.4940 -16.3995 -28.5182
-6.1159 1.8951 -28.5182
7.7479 -8.7087 -28.5182
-9.0807 8.4591 -28.5182
4.9561 8.7235 -28.5182
-5.3001 -9.4726 -28.5182
-4.7271 -19.4038 -28.5182
4.5121 -15.5477 -28.5182
4.2551 -4.7616 -28.5182
-16.6918 13.2299 -28.5182
0.5137 2.0872 -28.5182
9.6542 -16.3957 -28.5182
-0.9489 0.9018 -28.5182
-11.2048 -12.1631 -28.5182
-7.7781 3.3071 -28.5182
-13.3556 -5.1981 -28.5182
0.5268 -1.6469 -28.5182
-3.6667 -9.3140 -28.5182
3.8039 3.7112 -28.5182
0.1248 -14.2360 -28.5182
0.9961 -13.2725 -28.5182
9.7285 18.1389 -28.5182
-2.3621 -7.9706 -28.5182
-15.0671 2.0808 -28.5182
-6.7690 -15.1702 -28.5182
-4.1413 -3.4257 -28.5182
-1.8492 21.4612 -28.5182
-3.5160 6.1622 -28.5182
10.6466 2.4037 -28.5182
15.1259 4.0812 -28.5182
11.9542 -3.5420 -28.5182
-8.3620 -17.9315 -28.5182
7.4183 -12.2766 -28.5182
10.5456 -11.6091 -28.5182
12.4444 -3.4010 -28.5182
0.6570 -0.8407 -28.5182
-1.3499 -1.7529 -28.5182
-13.6169 6.8706 -28.5182
-2.2361 4.5053 -28.5182
0.1492 -20.8349 -28.5182
-19.6303 -4.9906 -28.5182
-5.0371 -5.0194 -28.5182
-1.3811 22.0888 -28.5182
5.5439 6.9050 -28.5182
-6.5118 -0.2760 -28.5182
13.1321 10.8692 -28.5182
-6.0797 0.6783 -28.5182
5.9471 -4.1749 -28.5182
-11.3835 7.1513 -28.5182
-1.1728 -2.2400 -28.5182
12.1545 0.3926 -28.5182
-1.8888 -4.3944 -28.5182
9.1401 -2.0363 -28.5182
0.0718 0.2486 -28.5182
-5.3498 7.9265 -28.5182
-3.2268 -5.8682 -28.5182
10.6455 -10.7281 -28.5182
10.5768 4.6819 -28.5182
-2.9468 11.9979 -28.5182
4.4707 -17.3429 -28.5182
-15.1890 14.7166 -28.5182
9.2921 19.3374 -28.5182
4.2824 4.4197 -28.5182
2.8994 -10.9208 -28.5182
-3.0904 -6.5567 -28.5182
-4.6319 -1.4448 -28.5182
4.4245 0.3886 -28.5182
-0.2690 -0.3434 -28.5182
-0.4073 17.5091 -28.5182
-6.6391 3.8659 -28.5182
-8.4087 -4.9341 -28.5182
-5.0289 4.4085 -28.5182
-14.8083 -2.9259 -28.5182
2.3193 7.3623 -28.5182
-6.0828 4.9964 -28.5182
7.3926 -2.0899 -28.5182
-7.1976 7.6719 -28.5182
2.9094 2.9574 -28.5182
-15.4903 -16.0360 -28.5182
-16.9789 -7.0944 -28.5182
-7.7001 -1.9703 -28.5182
-6.4145 0.4703 -28.5182
-15.0862 14.9250 -28.5182
-7.4579 14.6336 -28.5182
-1.2596 -0.8305 -28.5182
-0.7537 0.3031 -28.5182
-2.0597 -1.8669 -28.5182
7.9030 5.2262 -28.5182
3.3362 0.6232 -28.5182
-9.1977 -1.2508 -28.5182
-7.6294 7.3387 -28.5182
-0.8880 4.5579 -28.5182
7.8299 0.9017 -28.5182
-12.5023 12.9944 -28.5182
-11.3943 3.5897 -28.5182
-8.9837 14.1464 -28.5182
-14.7240 11.7635 -28.5182
-5.1765 -14.4199 -28.5182
2.5378 -9.5853 -28.5182
-19.2106 11.2468 -28.5182
8.9170 -2.5559 -28.5182
-19.4499 -8.4546 -28.5182
-0.9343 -2.2792 -28.5182
-6.9118 8.6532 -28.5182
-9.8120 2.1720 -28.5182
7.5138 -4.8235 -28.5182
3.7489 -11.7128 -28.5182
0.4099 0.8324 -28.5182
0.9840 -22.1107 -28.5182
-17.2096 -14.1027 -28.5182
4.8540 -9.9789 -28.5182
-15.4523 -7.2123 -28.5182
-7.5971 -4.6272 -28.5182
-0.1482 3.6969 -28.5182
0.9556 -14.7400 -28.5182
-3.5725 0.8246 -28.5182
-15.5354 -8.0709 -28.5182
-15.6901 8.2713 -28.5182
-12.4368 9.1866 -28.5182
0.0078 -0.0105 -28.5182
-11.9721 12.3566 -28.5182
-5.9075 -15.6065 -28.5182
5.2211 6.5464 -28.5182
