ply
format ascii 1.0
element vertex 1024
property float x
property float y
property float z
end_header
-6.8859 20.6284 -14.2622
21.2708 -3.8943 -14.0302
0.6377 -8.9589 9.8218
15.8870 -0.2969 -3.2114
3.2557 8.5315 9.5388
-17.1855 18.0108 -20.1995
-0.2358 8.4356 10.8456
-1.9288 -7.7212 11.7519
-11.4839 -4.5388 3.4701
-4.4490 -2.7646 16.8845
2.3178 -2.7472 19.9854
-0.0971 -0.0690 26.5416
5.9637 1.4622 15.1820
-5.4661 0.6025 16.3917
-2.2964 -26.6007 -23.6053
14.6861 -14.3365 -11.9534
1.1335 -2.6020 21.4119
-4.1696 11.5687 3.5666
20.3474 -17.5761 -23.9596
-5.5564 -3.4970 14.3804
-0.5007 23.4780 -17.5374
4.7933 9.0045 7.5215
10.4247 -15.3905 -8.3032
-7.4541 20.6560 -14.6630
3.9580 -8.9704 8.2686
-8.0214 2.7223 10.7855
-3.4284 4.5033 16.0886
4.0158 -5.1461 14.4514
-1.8376 -24.9476 -20.4274
18.0068 8.6440 -10.9168
1.1981 -0.9793 23.8471
0.5107 -17.9999 -7.2059
-24.1963 1.4102 -18.9598
12.6380 -8.1255 -1.5794
-2.2452 -5.3116 15.8871
-17.7119 13.5612 -15.3187
4.8775 -5.9055 12.3163
-20.3796 -16.8439 -23.1144
24.7131 -2.6869 -20.1322
-6.1874 -1.6434 14.6885
13.9193 0.4086 0.4949
19.2224 17.0680 -21.7313
19.4388 15.7880 -20.4789
-11.7920 -15.6859 -10.2562
-19.3785 8.0762 -12.8411
-10.6692 -2.2072 6.2117
23.8228 8.5844 -21.0068
0.7555 -0.2766 25.2486
-8.3548 -11.5749 -0.1652
-1.5245 17.6211 -6.6017
-1.3868 -24.0336 -18.6510
6.0898 -12.9934 -0.3059
3.9739 0.1231 19.2656
22.9326 -2.6707 -16.7907
6.6873 -5.6981 10.1914
24.4516 -7.1640 -21.3033
-0.4422 8.2131 11.2492
0.0602 -1.6504 23.6508
9.1151 5.9964 6.1823
-0.2925 -6.6951 14.1235
2.5052 -1.2714 21.4662
14.5146 -4.2176 -1.7495
11.8266 -13.0411 -6.4474
1.3969 7.9648 11.5106
-22.1277 2.6865 -15.2864
0.7399 -17.7751 -6.7972
10.7760 -0.4790 6.4163
9.2253 22.1651 -18.5278
-2.0368 -1.8231 21.6093
-16.3468 14.6207 -14.6093
-5.3717 -7.2808 9.6965
-21.0541 4.1407 -13.7153
-9.9805 1.7413 7.6528
5.7873 0.2647 15.8367
-8.9707 12.4465 -2.1786
4.7098 -4.4409 14.5539
17.8108 10.2134 -11.9682
10.3847 -8.6045 1.3232
18.2147 5.0799 -8.9088
9.5421 18.1662 -11.9464
25.5354 9.4261 -24.5862
6.1647 -7.9118 7.8439
-13.8419 -3.1741 -0.0256
-5.9913 -5.3057 11.6682
-3.1837 -15.3813 -2.8670
0.6551 -0.0965 25.5172
20.3173 10.6419 -16.5040
-20.2270 4.0904 -12.1663
0.1513 20.3318 -11.5928
-2.7602 1.7386 20.6121
-20.1962 8.6060 -14.6509
14.4298 -23.5344 -25.3151
-0.5780 0.6339 25.1480
-3.3967 3.8680 17.0548
2.5614 -8.2108 10.5397
-0.7091 11.0643 5.8496
3.4894 -6.6919 12.5281
8.5871 -5.7298 7.2906
0.7136 -0.3582 25.2600
-24.8370 -2.2161 -20.2774
15.5986 15.1231 -14.2221
-20.1177 -10.6248 -16.1557
-19.8939 13.9190 -19.0398
0.8635 -22.2903 -15.3181
8.3734 -0.0286 10.9690
-2.4507 15.4163 -2.6833
-1.2575 -15.8012 -3.1385
-5.9640 14.4656 -2.7530
-1.2033 1.5198 23.1092
-2.9682 3.1227 18.6384
4.7825 -14.5559 -2.1391
2.2524 -13.9698 0.0706
-0.8904 -20.3991 -11.7552
18.3053 9.4227 -12.0752
-5.2859 1.0615 16.5948
2.3019 2.2699 20.6673
-8.5931 12.3581 -1.6307
-14.4954 -8.1776 -4.6324
-19.1519 11.0882 -14.9844
-10.9934 12.0852 -4.0555
3.2977 -27.9420 -26.3150
3.0440 -4.1100 17.1174
-12.8134 17.3261 -13.8888
-5.7262 -6.7952 10.0016
5.9661 4.9925 12.0898
-19.6081 2.1139 -10.4406
-27.3803 -4.2838 -25.5178
4.9467 -15.5034 -3.9351
10.3653 -7.1476 3.0127
-5.1148 -0.4510 17.0794
-4.6927 3.7513 15.4321
2.9234 -10.2937 6.5783
4.4297 -1.0218 18.1899
-24.8649 8.7576 -22.9683
2.8066 -2.1637 20.0806
0.3656 -0.0438 26.0717
6.1752 0.7595 15.0284
0.4566 -0.0925 25.8875
4.3467 -16.7867 -5.9479
-7.8352 21.8094 -16.9540
12.1646 15.5286 -10.4488
8.2195 -21.8447 -17.2668
-2.0222 -4.6320 17.2312
-6.2455 10.8976 3.0699
-13.5584 19.5240 -18.0783
-5.9187 23.5697 -19.0809
16.3388 3.5099 -4.7617
8.6530 -19.4913 -13.4667
-1.3892 22.5725 -15.8995
-0.0956 -0.2146 26.3232
1.7212 8.9823 9.5122
-20.2518 -2.2201 -11.6697
15.0295 4.7967 -2.9974
-6.4916 -26.7179 -25.1062
8.1064 19.4245 -12.9432
-2.3821 3.5462 18.7069
-5.0071 4.1636 14.4809
19.5996 19.4926 -25.3840
24.4770 -11.4682 -24.2293
-1.6493 -19.0308 -9.2717
-9.3943 12.4861 -2.7126
3.9002 -16.4044 -5.0448
11.9758 13.2858 -6.9787
-18.1083 -3.5990 -8.0650
-0.6404 0.9634 24.5840
-4.0429 17.7547 -7.5872
3.2313 2.1805 19.4121
-3.8935 -7.3336 11.1018
-15.5058 -0.7376 -2.5200
0.8852 15.7739 -3.0395
-5.4629 24.6810 -20.9238
-16.6341 -1.8520 -4.8094
7.2603 -3.6355 11.4480
-4.5140 -4.2388 15.0841
6.8777 -3.1027 12.5316
-25.3108 -9.3466 -24.1368
24.5152 10.5977 -23.6207
-2.3777 2.2223 20.6264
5.6601 0.0388 16.0878
-22.6067 2.0341 -16.0559
-0.3496 -7.4153 12.7612
-8.2094 -9.6628 2.8456
3.3311 -16.4200 -4.8426
3.8975 -9.4203 7.5331
19.5367 19.8589 -25.7902
11.7503 -18.1847 -14.0800
3.5433 7.0550 11.8720
-2.8227 -1.9721 20.2702
10.4556 2.6110 6.4351
7.8217 -20.9145 -15.3600
-3.3522 -10.3305 6.2764
-22.7689 15.8942 -25.6204
-12.0327 2.6200 3.5335
3.4174 -22.2570 -15.7158
-7.2348 6.5402 8.3667
0.5186 2.5148 21.9222
3.4308 -6.9036 12.2223
-1.1589 15.3627 -2.2993
-5.8598 2.5922 14.6779
23.0990 14.0911 -24.2810
2.0831 5.3258 15.9775
0.0486 0.6399 25.5558
2.3774 20.7298 -12.5988
-5.8991 3.2472 14.0625
5.1347 -5.4344 12.6613
12.2280 6.8797 0.2964
21.0635 10.5276 -17.6590
-2.3185 -1.6661 21.3801
2.8250 0.3167 21.4033
-18.1242 15.7012 -18.4733
19.7109 -11.3233 -16.1197
11.0792 -23.2349 -21.7970
21.8690 6.5404 -16.2974
16.7296 8.6471 -8.7625
8.8027 5.1618 7.5146
-12.9378 14.8890 -10.4465
20.1642 6.6605 -13.2971
-12.1405 -10.0679 -2.9889
0.7606 19.4102 -9.8810
1.2293 -7.1826 13.0187
11.8926 -8.0504 -0.3273
28.0539 -1.8894 -26.2801
0.7779 7.0428 13.3986
0.9043 27.9501 -25.9919
16.8729 -21.0240 -24.0916
18.0474 -10.7941 -12.9070
0.7212 0.3607 25.2452
-1.1712 -4.1060 18.7111
4.4609 -13.9316 -0.8315
-7.4134 13.3914 -2.1108
0.8490 -19.8804 -10.7742
2.0122 -13.9504 0.1753
-5.5815 -17.0536 -7.0864
-0.7458 -0.9346 24.5106
-24.6861 -12.7829 -25.6801
16.9824 -8.3326 -8.9215
7.6976 -5.2093 9.2313
7.4448 -0.2908 12.7104
9.8038 2.8669 7.4959
-9.0674 -12.8060 -2.8365
-3.2822 -4.6891 15.9681
6.8375 -8.6698 5.9353
-9.5382 -3.1092 7.8397
0.6691 -1.0582 24.4045
-0.7056 0.1467 25.4068
-4.8613 16.8685 -6.3530
-10.0512 16.1767 -9.1640
4.7032 -5.4514 13.1833
0.1782 0.0123 26.4294
-17.5404 -4.7082 -7.4968
8.6345 12.2757 -1.5482
15.9028 -0.1861 -3.2380
-0.9111 9.3848 8.9777
-5.7722 13.2102 -0.4314
-8.6756 -7.9038 4.6251
-5.8921 -4.0447 13.2833
2.7862 -25.3824 -21.4077
-16.4250 -12.9197 -12.6587
6.8609 6.8998 8.4091
-0.0908 2.4069 22.2224
-0.7571 -14.5518 -0.7242
-11.2201 15.3225 -9.0627
-9.7028 17.7261 -11.3579
0.0114 -0.0430 26.6825
24.5579 5.7716 -20.8269
-15.0330 14.7183 -12.9250
11.3648 -5.1675 3.2131
-5.9544 2.6097 14.5013
-15.3549 -5.2604 -3.8551
10.9184 -3.4569 5.1599
-7.5990 6.8401 7.4776
-9.5119 -4.9893 6.5025
-16.3538 -17.7934 -18.8275
0.6146 -13.6419 1.0034
21.7216 11.2134 -19.3521
-11.6032 6.1206 2.0169
8.8291 21.6049 -17.2657
3.6982 7.3243 11.2869
-4.7625 5.1951 13.4702
-5.7253 18.7122 -10.1516
4.0627 12.1656 2.5688
7.0925 -11.7121 0.9346
-0.4894 -3.7380 19.6542
6.1800 -2.5108 14.1818
-0.9738 13.7079 0.8399
-16.2066 1.3577 -3.9160
11.7775 25.2030 -25.7171
0.9664 2.0863 22.4286
-14.5264 -14.1992 -11.5569
-5.5510 0.9757 16.1333
17.8301 19.8643 -23.5923
7.7939 1.9021 11.6308
-16.9976 4.8986 -6.6065
13.6682 23.7120 -24.8686
-25.2066 -4.4994 -21.5402
7.4712 -24.3020 -21.1995
15.0420 19.5971 -19.8411
8.4992 21.7598 -17.3060
-0.9344 -0.8838 24.3400
9.5526 24.8128 -23.3948
-8.4901 14.2033 -4.4519
-4.0642 -13.3319 0.4717
-0.0337 0.2528 26.2853
-6.5138 2.8558 13.3483
-3.6143 -25.3218 -21.4899
-7.8711 -20.9599 -15.4730
3.3248 -11.5195 4.1465
11.4969 -1.3295 4.9318
10.7346 15.7933 -9.2602
16.5287 7.7601 -7.6824
0.5302 -0.3064 25.6111
1.0746 17.7678 -6.8156
-3.8491 13.4075 0.4500
5.4032 -23.3912 -18.5256
-1.6412 1.3221 22.7905
6.1552 -2.6755 14.1044
-0.0920 7.9017 11.8581
-10.0555 -0.3381 7.7849
9.1595 13.5325 -4.0624
-8.2287 -25.4848 -23.7575
4.0827 -10.2308 5.9847
10.2719 -3.9593 5.9976
-2.4802 3.2953 18.9854
15.7571 22.7438 -25.4338
-0.8986 -24.9597 -20.3531
-2.4411 1.8872 20.9452
-0.9857 13.1490 1.8899
-3.3888 11.8888 3.4436
0.3330 -2.6890 21.6546
1.4009 1.0395 23.4754
25.9060 9.2069 -25.1028
4.0621 26.8398 -24.4463
-2.7905 -16.8372 -5.4320
-4.5337 22.1096 -15.8135
-6.7991 -0.1988 13.9338
8.8743 -21.5655 -17.2293
-3.7372 1.7732 18.9625
7.0318 -22.1903 -17.1495
-3.6717 -6.7579 12.2567
1.2312 -1.3731 23.2871
-1.3932 8.0261 11.3978
-5.0123 -3.8164 14.8811
14.5213 14.8065 -12.3596
-6.3369 9.3087 5.5216
-5.4813 -7.5666 9.1393
-21.6716 -0.5142 -14.1308
1.1306 12.1608 3.7248
10.3150 -0.2287 7.3013
-9.3331 -16.2575 -8.6000
-3.2762 6.3526 13.2816
12.1984 -13.0384 -6.9188
-17.9853 5.2245 -8.5673
-7.2568 2.2432 12.4366
-2.2030 1.2918 21.9484
8.9589 3.4231 8.6728
16.9575 -10.8897 -11.2542
22.9378 -7.7717 -18.9246
8.4113 23.8346 -20.9179
7.1830 26.5790 -25.1766
9.3767 24.5495 -22.8121
6.5288 -18.0303 -9.4109
-1.1315 0.2868 24.5643
11.2276 -4.7037 3.8006
-18.6560 6.5046 -10.5079
-3.0376 2.8697 18.8828
-1.8405 -7.7675 11.7064
1.6510 0.3276 23.5910
7.2474 -0.1126 13.0917
15.7433 -18.1994 -18.6325
-0.0651 0.1487 26.4602
8.8182 18.1865 -11.3649
12.6246 -2.4449 2.5063
-3.0314 -17.5062 -6.7523
-6.6670 -1.2495 13.9695
18.8074 12.5306 -15.8698
-11.1991 -6.8870 1.9627
13.4450 -9.7491 -4.5655
-0.0585 -2.8659 21.3585
2.5510 -10.0714 7.1657
-5.5063 3.1522 14.7965
-0.2780 0.5503 25.6032
10.1321 -20.7241 -16.7543
0.5598 -0.2204 25.6313
3.6629 0.4427 19.8057
-14.5561 -11.7828 -8.5646
19.7781 -17.2552 -22.7517
2.7141 -2.2533 20.1113
26.0215 8.6562 -24.9709
-12.9534 9.3769 -3.4025
20.8761 11.1624 -17.8951
-21.7327 -11.3267 -19.4690
15.6317 12.0965 -10.5232
-11.2245 -5.1093 3.4996
6.8367 4.4593 11.3671
8.9068 -10.2275 1.1799
-27.4254 0.7101 -24.9917
-20.8041 -12.9221 -19.4377
-16.5513 -11.1581 -10.8924
16.1871 15.1254 -15.0294
4.1829 -4.4290 15.2733
3.2358 3.3863 17.9301
-5.1141 -0.3483 17.0958
25.6099 -4.1519 -22.1801
-7.7162 -14.1793 -3.6888
-12.0138 16.0546 -11.0638
1.0438 22.5706 -15.8608
-2.2918 6.1214 14.4348
7.5861 3.0257 11.3581
-20.6331 11.2378 -17.5593
-9.0926 -4.7539 7.4092
6.1354 -0.2136 15.1843
7.7088 -5.1846 9.2398
19.0023 5.8561 -10.7472
1.1150 -9.7725 8.2100
-5.8281 -17.8186 -8.6026
8.5466 -11.8939 -0.8650
-0.4560 -10.1529 7.5926
-14.5509 4.3477 -1.8846
-3.0066 -5.9824 14.1348
0.0964 15.7288 -2.9081
-5.4710 1.9564 15.8047
-1.6355 1.2814 22.8465
-4.6016 -14.7628 -2.4068
3.6740 7.3093 11.3326
-4.3274 0.5284 18.5418
11.0941 -1.5730 5.6270
-5.0895 24.7870 -20.9723
6.9804 -0.8584 13.4980
5.4499 6.3916 10.9196
10.1708 10.3953 -0.6709
8.3758 20.5624 -15.1216
-9.4520 -4.8220 6.7478
16.1144 -1.2942 -3.7330
-11.1324 17.7997 -12.8415
13.5054 -7.8836 -2.7363
16.0454 -12.8343 -11.9973
-3.1506 -14.5518 -1.3231
12.4694 7.8598 -1.0418
13.8221 -9.1460 -4.5023
-12.7666 18.5107 -15.6564
17.5413 -6.9435 -8.8255
-10.2368 -6.8671 3.5107
-12.7266 -11.2839 -5.3221
-10.1338 0.6417 7.6096
-25.0156 -11.7145 -25.3467
-0.6297 -0.2970 25.4529
-9.7999 4.0845 6.7363
-1.8697 -2.1986 21.3215
4.8397 1.2431 17.3395
1.3092 1.7598 22.6284
4.7095 4.3203 14.7092
-12.8985 24.7322 -25.8578
-1.8326 14.6531 -1.0935
-8.6368 -17.2181 -9.5749
-3.8036 -2.7450 17.9171
5.0724 1.5425 16.7642
0.8760 1.9234 22.7791
2.2984 -0.2137 22.4115
14.9846 -11.7592 -9.1692
-12.6267 -15.9089 -11.5520
-1.2173 -0.8002 24.0182
-9.5046 6.8732 4.6376
20.9946 -18.8370 -26.4481
2.0460 -1.8411 21.5737
-12.3693 16.7197 -12.4708
-14.8256 -3.2319 -1.8605
-25.4250 0.0839 -21.2008
-13.0689 -16.6721 -13.1991
0.8792 -22.5266 -15.7647
2.2460 -7.5112 11.9758
-0.0928 -0.9117 25.0375
6.5997 1.2985 14.0767
-13.8925 -14.9086 -11.6790
12.9203 -7.4266 -1.3489
0.0827 3.9141 19.3804
-10.6830 -4.8533 4.6294
4.4567 4.5519 14.7481
-0.2045 1.2447 24.3867
3.5853 9.5372 7.5441
9.0107 11.6693 -1.0484
12.3315 -3.2328 2.7156
-10.9372 -8.1626 1.0193
10.6268 9.5216 -0.1526
-16.0003 3.8711 -4.2907
-8.2364 19.8335 -13.7497
8.7469 4.0392 8.5900
10.5717 3.1658 5.9468
13.1015 -1.3451 1.9191
-3.5805 1.2380 19.6190
17.7118 10.7995 -12.3705
24.8719 -4.8181 -21.0294
-17.1416 18.1237 -20.2968
-0.4932 1.4932 23.7997
-0.7694 5.2414 16.7720
-9.3841 6.5376 5.1897
-3.5187 -16.4157 -4.9069
24.6059 6.4561 -21.2265
15.2294 2.1854 -2.2598
7.6613 17.3318 -8.9839
-3.6345 -4.7983 15.4102
11.2180 -20.1255 -16.7024
-23.2214 -3.0701 -17.4245
15.8649 -9.4074 -8.0307
16.1686 20.8821 -23.0587
-0.5775 -1.4293 23.8582
-0.8788 -8.3058 11.0092
16.8886 -0.0014 -5.0958
-0.5108 -2.0522 22.7765
4.9759 6.5011 11.3212
-8.4545 -0.1599 10.8133
-8.1841 2.5196 10.6112
8.0042 0.0167 11.6657
6.9421 12.5638 -0.3142
0.0019 3.5863 20.0006
5.4204 11.9223 2.0583
1.3533 -27.9539 -26.0333
-0.1465 -24.5853 -19.6172
0.9146 -0.9745 24.2451
-8.0606 17.7661 -10.0396
13.9270 19.1271 -17.8711
11.1704 -25.1031 -25.0703
-9.1036 -3.8552 8.1150
13.8352 4.1888 -0.5052
5.3595 -9.1746 6.7206
1.4268 1.3803 23.0212
-2.2023 14.3831 -0.6851
0.4524 -2.4318 22.0999
-4.1267 9.7877 6.7268
-20.5968 19.1963 -26.3517
0.5074 3.3307 20.4102
8.2220 -14.6127 -4.8663
-7.4810 10.1223 3.0202
2.2370 0.7534 22.3132
-14.7011 -4.3680 -2.1671
3.3029 -12.9199 1.6078
5.6552 6.3389 10.7399
22.2170 7.4377 -17.4347
26.4532 -2.8238 -23.4238
3.3671 8.0301 10.3389
-2.0831 -2.9544 19.9464
10.3656 15.9498 -9.1208
-6.7556 1.5670 13.6829
-0.4749 -2.4358 22.0846
-0.1171 0.5144 25.7711
9.5670 -10.5670 -0.1261
-22.5914 -6.3311 -17.4967
-0.0871 0.0179 26.5986
-17.4404 -10.3453 -11.4900
-0.7378 -7.0355 13.4204
14.1942 6.1975 -2.4537
22.3397 -7.7500 -17.8439
10.2925 -8.5346 1.5413
7.3483 -17.8091 -9.5801
12.2061 -10.3984 -3.4850
-12.7652 -5.9457 0.1993
0.5731 -0.8292 24.8647
15.4575 -8.1716 -6.2201
15.7388 17.9322 -18.2469
-0.4853 -1.0626 24.5626
-3.9352 -27.9418 -26.4690
-15.0727 0.4254 -1.6812
-26.0521 -4.7550 -23.1955
-8.2951 -3.5737 9.7264
-3.0559 16.2885 -4.4996
-9.2043 3.4968 8.1906
-4.2404 -5.1244 14.2178
-7.2035 -4.1586 11.0742
8.9625 -0.0749 9.8571
3.0910 -1.5483 20.2443
6.1771 6.2929 10.1303
0.3771 -10.0942 7.7094
-5.0716 -14.6471 -2.4765
-9.7279 8.4132 2.5022
-0.8748 -12.8574 2.4536
-10.3323 -10.3464 -0.8196
0.0272 0.5363 25.7533
-5.0750 -5.6732 12.4058
16.6412 -5.4258 -6.2555
25.9732 0.8528 -22.2612
-5.7424 -21.3338 -14.9146
-25.0328 4.7694 -21.3101
21.8429 -1.1903 -14.5036
-14.2686 -16.3897 -14.2304
2.8140 -7.1800 12.2174
-15.3307 8.3780 -6.1936
12.1971 15.9191 -11.0686
1.4093 -5.5974 15.8767
1.4247 4.5666 17.7415
5.9546 -6.4458 10.2109
25.3279 -3.9214 -21.5867
-0.0223 -0.0563 26.6522
-24.9806 -7.2670 -22.3157
0.9967 -6.4690 14.4179
-2.0633 1.3921 22.0708
-9.9921 1.3858 7.7348
16.8795 9.5602 -9.8314
-9.5985 -7.6802 3.5745
-9.1803 0.7012 9.3964
1.9752 11.0845 5.5250
-5.8611 13.5850 -1.1468
-3.5564 -11.9156 3.3065
-23.8241 6.6462 -19.8964
-4.6574 -13.5435 -0.2535
2.3151 8.4953 10.1547
-27.0171 0.8499 -24.2294
-6.7549 -4.5231 11.4295
-21.3393 11.7112 -19.1567
4.8755 5.1493 13.3880
-1.7069 -7.8664 11.5803
-2.2821 9.6812 8.0012
15.1029 3.4041 -2.4416
4.5457 -11.6081 3.2473
-16.1061 -4.5298 -4.7983
21.3284 7.5095 -15.8930
17.5280 13.9642 -15.5133
-4.4528 7.2297 10.7474
8.0933 25.3822 -23.4951
3.2107 -5.8040 14.2529
15.4047 22.9396 -25.3644
1.9734 -26.0899 -22.5954
-5.2489 4.2565 14.0169
5.1657 17.7004 -8.0202
4.1397 10.5488 5.3875
7.7183 17.5276 -9.3653
-19.7552 3.4434 -11.0658
0.2665 25.1469 -20.6786
15.8288 15.0099 -14.3879
0.5948 0.3052 25.5052
2.9202 -1.6690 20.4208
1.4291 27.2826 -24.7757
-1.4440 5.3913 16.2367
16.4413 -9.6190 -9.1703
4.8494 2.6966 16.2982
-3.4980 21.6688 -14.6432
-24.3291 -10.6197 -23.3152
-1.6608 -2.6068 20.9351
7.0065 8.0693 6.6050
-12.0152 13.1467 -6.8342
8.0242 9.7054 3.0085
12.0810 -7.1733 0.2592
20.4832 -13.8579 -19.8904
3.3738 4.4631 16.2112
16.2443 -6.7863 -6.4470
0.9585 -1.6834 23.1117
8.2864 9.2445 3.3448
7.5223 -12.6382 -0.9807
-4.5210 -4.3881 14.8801
2.7968 8.5568 9.7827
0.1349 -6.7272 14.0722
0.7346 -1.8646 22.9855
-10.2079 -1.3777 7.3336
-12.9219 -0.2169 2.3845
-4.6303 -3.1856 16.1631
0.1986 8.8375 10.0893
9.7555 23.8789 -21.8981
4.6725 1.4731 17.5235
6.8825 2.9352 12.6504
18.2863 -8.1985 -11.0413
28.2537 -2.1941 -26.6977
-1.5369 1.0747 23.2283
0.7938 0.3140 25.1560
1.7531 -21.4638 -13.8621
1.2087 -7.0671 13.2401
-10.6259 -11.6334 -2.9585
-11.1940 -18.2442 -13.6157
-0.4694 -0.2501 25.7630
-0.4384 -0.4073 25.6374
-7.3481 16.0944 -6.6122
1.1836 -0.1279 24.5204
9.7360 8.7780 2.0351
6.3123 -6.8411 9.2052
-6.6266 17.0857 -7.8070
1.8772 -6.6972 13.6445
9.5995 17.6354 -11.1143
11.0817 -6.5531 2.4778
21.8138 8.7145 -17.5502
-3.7663 7.3563 11.1749
7.1740 3.4678 11.7337
-4.9948 -5.2600 13.0817
25.0009 10.5341 -24.4163
-3.4719 -2.5823 18.6032
3.6318 -11.2695 4.4286
-13.6438 -2.6382 0.5491
-13.0474 -5.5313 0.0305
25.4330 -10.3639 -25.0464
0.1191 -0.4543 25.8805
0.7888 -9.6159 8.5640
16.9087 -11.4229 -11.7307
-0.9487 26.0941 -22.4954
-5.1896 14.8260 -2.8684
11.8528 10.3599 -2.9329
-3.8451 -5.1627 14.6218
21.0183 -15.8243 -22.8687
-14.6967 -22.6639 -24.1944
-3.7761 -20.0752 -11.7716
-19.8645 -16.1583 -21.5428
-14.1310 -10.5861 -6.5444
7.9610 7.7125 5.8549
7.1437 16.9515 -7.9381
7.2794 1.1313 12.8682
0.8584 -2.7846 21.2691
3.8435 -5.1017 14.7158
6.6166 -1.8474 13.8061
-0.4118 0.3107 25.7933
11.6553 0.7177 4.7359
-1.5272 -16.1686 -3.8732
-1.2684 -20.8038 -12.5549
4.6381 -3.5119 15.7908
16.9170 -9.2190 -9.5807
-7.3901 19.0949 -11.8620
11.4838 -9.8241 -1.7451
7.8256 13.2541 -2.2721
-7.2898 -19.0323 -11.6838
-0.2276 4.2158 18.8013
18.9693 -1.2487 -9.0986
3.3862 -23.2249 -17.5130
-7.7879 -5.3992 8.8882
8.1255 -6.4035 7.2487
3.6123 -21.5649 -14.4849
4.0737 -6.2975 12.6164
-4.9231 11.9260 2.4251
2.8614 15.3399 -2.6731
23.3279 1.9399 -17.3960
-11.4120 20.2475 -17.0822
-5.6057 -22.4354 -16.8615
12.2454 -24.4218 -24.7754
3.1781 21.1961 -13.6692
2.3456 3.2767 19.1640
2.0574 13.8810 0.2924
-9.6916 24.7873 -23.4448
10.3580 21.8253 -18.8110
-1.2816 -11.2617 5.3829
-5.6870 -5.4806 11.8659
-2.9773 10.8905 5.4664
-23.1890 3.9539 -17.6134
2.6906 1.8006 20.6585
2.6036 -0.6764 21.6914
-17.4475 -15.0146 -16.6605
16.5241 11.8251 -11.5684
-14.7266 -21.0295 -21.6688
2.0739 -0.1922 22.8370
15.1824 8.9514 -6.4845
16.8407 3.1243 -5.5474
9.6941 -1.7650 8.1769
4.6808 -0.2602 17.9219
24.1344 -0.4942 -18.7751
6.6862 1.8015 13.7023
25.7867 2.0642 -22.0385
-6.4705 -13.0172 -0.6585
-23.0530 8.0632 -19.3091
9.3289 2.6922 8.4482
-2.6385 3.7669 18.0898
6.8997 14.5190 -3.5608
-8.5379 4.5668 8.4994
4.8117 -16.2886 -5.2764
-1.6042 -7.9347 11.4938
-0.7606 -2.7402 21.4014
24.1048 8.6324 -21.5380
-4.2595 0.0973 18.7284
0.0734 21.7438 -14.2557
2.8891 -7.5001 11.6032
0.0224 -3.4474 20.2624
18.1932 11.7504 -14.0934
-4.3424 19.1117 -10.2088
0.3245 -4.0968 19.0132
24.6517 -12.7563 -25.5994
17.5530 -6.5515 -8.5806
24.4206 -6.0497 -20.6982
9.8492 15.9578 -26.7664
4.8060 -10.5586 -26.7664
10.1506 1.3449 -26.7664
-4.4790 -6.6380 -26.7664
22.6447 3.7058 -26.7664
-22.3473 -16.2081 -26.7664
-14.0790 -10.3547 -26.7664
-2.8939 -8.8877 -26.7664
-11.6509 13.1782 -26.7664
0.4860 -24.9987 -26.7664
-2.5729 12.6521 -26.7664
-13.4870 3.2902 -26.7664
-1.3160 7.8172 -26.7664
-11.9743 -5.9514 -26.7664
-12.0305 -7.1457 -26.7664
11.1786 2.8960 -26.7664
13.0562 15.2491 -26.7664
-9.2990 -23.8201 -26.7664
-0.0987 -13.0264 -26.7664
-0.8439 12.4014 -26.7664
22.6837 10.8498 -26.7664
4.1322 2.7448 -26.7664
-1.5784 6.6335 -26.7664
17.2615 15.4480 -26.7664
-8.0427 5.3276 -26.7664
1.4115 -18.7222 -26.7664
-25.1408 6.7411 -26.7664
-8.5955 -3.7453 -26.7664
15.1897 16.5639 -26.7664
1.9782 -6.7539 -26.7664
13.9834 -10.8582 -26.7664
-13.7218 -8.4772 -26.7664
-12.1144 -24.5665 -26.7664
11.8075 -18.3586 -26.7664
5.0712 -12.8182 -26.7664
-9.1841 2.5348 -26.7664
-19.9895 -4.9388 -26.7664
13.0961 3.6000 -26.7664
-3.1384 20.2767 -26.7664
14.5348 -3.4509 -26.7664
-2.9059 0.4047 -26.7664
-11.7921 9.3635 -26.7664
2.2156 1.4065 -26.7664
-4.8569 -3.5477 -26.7664
2.5566 -18.7456 -26.7664
18.7797 21.0153 -26.7664
14.9036 -20.0773 -26.7664
-23.0737 8.4755 -26.7664
-3.9258 -3.9208 -26.7664
8.6127 12.8923 -26.7664
10.9826 0.0340 -26.7664
5.7750 -9.9618 -26.7664
-7.4665 2.9289 -26.7664
-9.0714 -20.5211 -26.7664
-7.3894 -14.1719 -26.7664
0.6622 -5.4546 -26.7664
8.2845 -11.7585 -26.7664
20.2278 7.4472 -26.7664
-23.2553 -15.8258 -26.7664
10.2890 16.1906 -26.7664
6.3604 -7.3996 -26.7664
-6.8247 -19.3215 -26.7664
6.5580 -8.2031 -26.7664
-6.6810 -15.1232 -26.7664
-16.5810 -18.5289 -26.7664
-0.1283 -1.4667 -26.7664
-3.3973 -11.6222 -26.7664
-17.1995 1.1596 -26.7664
-6.7109 9.3284 -26.7664
5.7634 1.1475 -26.7664
17.8380 20.6544 -26.7664
-10.2153 15.7887 -26.7664
14.6215 -8.9372 -26.7664
16.8020 -1.3071 -26.7664
11.4486 3.3724 -26.7664
0.8491 0.4391 -26.7664
-7.2017 -19.5671 -26.7664
13.9755 1.1494 -26.7664
-8.7737 -11.0623 -26.7664
-4.4157 26.3065 -26.7664
-0.0450 23.3131 -26.7664
-17.6481 3.3333 -26.7664
0.3943 24.3417 -26.7664
24.1067 12.2487 -26.7664
-13.5308 -8.6928 -26.7664
-2.8019 -1.6214 -26.7664
21.5947 -15.1435 -26.7664
-7.9313 22.8380 -26.7664
12.0344 -9.1601 -26.7664
3.2725 -10.2791 -26.7664
0.1818 0.2118 -26.7664
9.5467 18.4194 -26.7664
-6.5923 -19.9636 -26.7664
-2.7063 0.0306 -26.7664
-16.4326 -15.8488 -26.7664
-6.2396 16.0650 -26.7664
-5.0800 -6.4370 -26.7664
0.0860 -0.4267 -26.7664
11.7352 -7.8405 -26.7664
12.5080 -14.1121 -26.7664
22.3247 -7.7839 -26.7664
-9.8352 -2.5746 -26.7664
-13.4041 22.1974 -26.7664
-1.4093 -1.7288 -26.7664
-15.3502 -16.3038 -26.7664
-2.2099 -2.2627 -26.7664
15.7451 0.2520 -26.7664
-3.0119 -10.2572 -26.7664
4.1915 -7.6070 -26.7664
-0.1797 0.2941 -26.7664
3.0792 0.1489 -26.7664
-5.3190 -5.1810 -26.7664
16.7500 -8.5779 -26.7664
-23.0857 -11.7714 -26.7664
7.4466 13.4141 -26.7664
-0.0050 3.5231 -26.7664
-13.7849 -11.3410 -26.7664
-15.4061 8.8943 -26.7664
-10.3867 -4.4268 -26.7664
-15.2954 1.7665 -26.7664
-9.8216 24.8140 -26.7664
2.5267 1.4300 -26.7664
-12.3450 9.9296 -26.7664
-12.1516 -9.3289 -26.7664
19.2398 -14.2924 -26.7664
-6.5422 -1.5414 -26.7664
3.5191 -14.7853 -26.7664
-3.1042 6.9282 -26.7664
3.3155 5.3082 -26.7664
8.8791 -6.1451 -26.7664
-2.0638 1.3666 -26.7664
-1.7525 13.6271 -26.7664
-4.2474 2.9773 -26.7664
0.4780 -11.7634 -26.7664
3.3744 -2.1317 -26.7664
-6.4019 -7.3158 -26.7664
-3.0485 2.6400 -26.7664
6.8433 -10.1763 -26.7664
13.1294 9.0645 -26.7664
0.4563 25.3982 -26.7664
14.4132 8.5510 -26.7664
-21.1784 -15.5101 -26.7664
-12.4110 4.4959 -26.7664
16.3599 20.4077 -26.7664
-21.7841 -8.7264 -26.7664
0.3747 0.8741 -26.7664
21.8684 10.6731 -26.7664
-7.2130 0.0314 -26.7664
8.8648 12.9703 -26.7664
12.4569 -8.8383 -26.7664
24.4176 -3.6477 -26.7664
17.9781 -10.7289 -26.7664
18.2439 10.7927 -26.7664
-6.3313 -0.3887 -26.7664
-4.3697 -1.1343 -26.7664
-15.9356 -5.1812 -26.7664
1.8598 -5.1102 -26.7664
-1.7906 -5.2181 -26.7664
-13.8451 4.7797 -26.7664
-1.5668 0.5629 -26.7664
-10.0265 7.3674 -26.7664
-1.1286 -0.1816 -26.7664
8.6799 -7.9326 -26.7664
-2.9610 27.5318 -26.7664
-12.6209 5.0730 -26.7664
-11.9709 6.5422 -26.7664
-2.4804 1.0787 -26.7664
-5.4292 -4.2317 -26.7664
-7.4071 4.8558 -26.7664
6.5033 -18.0459 -26.7664
-4.1979 9.1356 -26.7664
-0.8528 -19.2645 -26.7664
-4.8145 8.9533 -26.7664
-0.6692 5.0498 -26.7664
-1.8623 2.8217 -26.7664
5.2320 -8.5013 -26.7664
11.4009 9.9803 -26.7664
10.2042 -0.1773 -26.7664
9.4040 10.9731 -26.7664
-7.8170 -5.7004 -26.7664
24.8684 5.9349 -26.7664
18.1732 9.1200 -26.7664
-11.4786 0.9935 -26.7664
3.3183 1.1064 -26.7664
-15.4479 10.7074 -26.7664
-14.2273 1.9548 -26.7664
-8.1433 3.7765 -26.7664
-0.6165 -0.1571 -26.7664
2.6801 -21.9228 -26.7664
-25.4166 -11.5418 -26.7664
-11.5432 3.0181 -26.7664
-0.1817 -0.0279 -26.7664
-23.6028 -4.7404 -26.7664
-0.4856 -4.5278 -26.7664
2.3916 2.9038 -26.7664
-4.3952 -7.3134 -26.7664
-1.8587 -0.1678 -26.7664
7.4579 -24.2016 -26.7664
26.9027 -7.7782 -26.7664
5.1997 20.7353 -26.7664
9.0865 -20.5527 -26.7664
17.1035 22.0130 -26.7664
22.6425 13.2561 -26.7664
6.3253 8.7110 -26.7664
26.1137 3.2057 -26.7664
3.9907 6.9867 -26.7664
-2.1345 -1.5638 -26.7664
1.6011 18.6503 -26.7664
-2.9836 15.1181 -26.7664
19.5473 6.4184 -26.7664
13.5990 -21.4184 -26.7664
6.9997 21.8949 -26.7664
-20.3741 -1.2115 -26.7664
-19.3138 -13.3898 -26.7664
19.0392 7.7784 -26.7664
8.5754 0.3521 -26.7664
-18.8740 -9.2485 -26.7664
-17.1580 8.3209 -26.7664
4.8696 2.9539 -26.7664
-3.8228 0.5248 -26.7664
-8.5132 25.9549 -26.7664
-2.9542 8.5639 -26.7664
11.4532 -18.3352 -26.7664
10.6895 10.1813 -26.7664
0.0475 0.5014 -26.7664
24.5605 6.6079 -26.7664
3.3244 22.3016 -26.7664
-14.5664 -2.7493 -26.7664
-0.0320 -0.0427 -26.7664
5.4503 16.0967 -26.7664
13.1351 -2.4752 -26.7664
2.4386 4.1271 -26.7664
-0.1089 0.9167 -26.7664
-2.8485 -13.1290 -26.7664
11.1066 15.1235 -26.7664
15.3225 -8.8832 -26.7664
16.7265 -9.9211 -26.7664
9.1542 2.0577 -26.7664
4.6236 10.6020 -26.7664
-9.5470 7.0813 -26.7664
5.3391 -10.1808 -26.7664
-3.8457 0.9461 -26.7664
-1.2084 -7.5776 -26.7664
7.1459 -6.5055 -26.7664
-7.9993 1.6824 -26.7664
8.3067 12.6470 -26.7664
25.9562 3.1104 -26.7664
-2.6832 16.2235 -26.7664
-5.7180 16.6073 -26.7664
3.4139 -1.5917 -26.7664
9.7341 -2.5554 -26.7664
5.2739 14.9935 -26.7664
-0.0609 -9.1269 -26.7664
0.5871 0.3893 -26.7664
-7.4432 -3.5441 -26.7664
-8.4161 -4.5222 -26.7664
