ply
format ascii 1.0
element vertex 1024
property float x
property float y
property float z
end_header
48.1501 28.4870 -13.4061
22.2134 37.0399 -0.6688
-65.6945 30.7673 -29.9786
-25.2090 -21.8237 9.1640
-0.2777 -3.8440 38.6105
29.2513 -4.6951 12.8761
-65.2185 -13.9850 -24.1458
-58.1208 22.0398 -19.6105
4.0511 -10.7324 31.0040
-7.8982 -40.4456 1.3090
47.4206 -30.3011 -13.7347
-6.0998 9.1691 31.4622
-22.9728 4.1451 19.1489
1.6158 -0.3044 40.8171
29.0909 4.1858 13.1110
-20.1795 75.2428 -35.3304
7.2699 -8.9078 30.9778
-40.3965 16.7934 -1.2260
-24.8119 -80.9464 -42.0825
66.5172 52.1331 -41.9317
-1.6852 0.3166 40.7468
-49.6313 21.7745 -11.6605
-12.8298 24.2424 15.0705
-69.1862 -16.8218 -28.6401
23.0463 10.0229 17.3638
18.8343 -8.8618 21.6741
39.6822 0.8382 2.8253
3.2604 4.4091 36.9833
-15.5098 -31.0650 7.7875
-75.8752 -2.7591 -33.3567
-4.9238 -25.8132 16.2184
52.0575 25.0541 -15.2303
11.4799 -10.0219 27.2420
59.3186 5.0847 -16.9912
-42.8785 47.8011 -21.6628
7.0066 -5.9758 33.2635
-4.3164 7.5885 33.7414
-1.2598 -35.6384 6.8498
-18.8298 26.1259 10.3011
6.9361 -8.4876 31.5136
41.8432 -38.4737 -14.3015
-13.8082 35.3621 4.5514
-53.2799 39.5803 -23.8180
0.6732 -12.9849 29.4755
-28.9212 55.9449 -20.4284
-45.9290 19.3516 -7.3083
-17.6616 -2.8696 24.5916
3.6768 27.7668 14.4903
3.6264 -2.7219 37.9313
1.6526 -11.0342 31.3178
-6.6314 0.0654 35.8369
15.4983 -29.8547 8.8698
-15.1466 -23.9888 14.1295
1.7096 -16.2597 26.1333
3.4871 -38.4314 3.9254
-22.2492 34.0899 1.8097
15.7263 -61.3369 -20.7704
-10.0061 3.8941 31.7374
-49.5980 -39.9778 -21.1529
3.8318 -56.1228 -13.7132
37.1397 -32.1116 -6.5671
37.5611 -13.7443 2.5200
-31.3230 -37.5664 -6.3822
-59.5103 -33.1090 -25.5433
10.4483 -13.7058 25.2497
13.0440 -82.4690 -40.9147
18.0985 -10.9513 21.3357
-8.9633 -35.7992 5.6080
7.6776 14.5935 25.9930
25.4154 -25.3803 6.5928
-37.6886 -34.0818 -8.2810
-47.2752 41.5071 -20.3611
16.1110 0.2581 26.3692
11.0976 53.1466 -11.7555
-41.3931 -9.5032 0.0503
58.3029 29.7129 -22.8841
17.7822 -31.9453 5.9507
46.7056 20.1112 -8.3191
-0.9029 -4.0919 38.2747
-25.7773 25.0394 6.5743
-31.1854 5.3027 10.8717
6.9004 10.0675 30.2713
-3.9506 -41.5052 0.8264
-37.5677 30.7774 -6.0361
-27.1869 -56.6950 -20.3267
38.9302 27.8159 -5.3183
0.8169 37.3962 5.1079
21.4511 -4.1846 20.6351
-25.4518 -37.5627 -2.8490
-1.5355 -48.4311 -5.9265
4.8632 -11.6899 29.8161
8.1196 -12.1143 27.8964
-41.6923 57.8786 -28.7695
-28.4965 68.4506 -31.5793
68.0456 50.9096 -42.4006
-14.0126 -12.7096 23.5684
0.8953 -49.8653 -7.3423
-8.6405 18.7669 21.8283
31.5018 -18.5879 5.9349
-69.8531 24.2200 -31.3671
1.4907 -12.0776 30.3073
41.4535 -8.0575 0.2906
34.6512 -5.1104 7.4836
-13.3203 30.0800 9.6091
6.2321 -36.5471 5.4379
5.8771 -44.2327 -2.0980
-1.2143 -9.8908 32.5084
3.4188 -27.3275 14.9583
3.4067 -1.1371 38.8728
-18.9723 27.6950 8.9372
39.8444 -10.9911 1.1861
-13.7933 -20.9161 17.4405
52.7871 60.7319 -37.8912
24.3895 -12.3796 15.1470
-16.7577 6.0888 24.6552
31.7528 -2.0188 10.6880
-24.5532 61.0944 -23.2896
1.5865 -1.1348 40.5112
3.1214 64.7294 -22.2521
9.0514 2.8895 32.9713
-48.7134 -24.9913 -12.2119
-1.6736 -1.3509 40.3114
-30.9987 -35.5715 -4.6560
-42.6119 14.1629 -2.3801
-9.0081 -1.8516 33.2758
-34.2356 56.0430 -23.1188
-1.8505 21.4668 20.9437
30.7731 76.7809 -40.1397
38.6912 -37.9037 -11.6264
63.4804 -40.9675 -32.9839
3.0017 -0.4625 39.4262
12.3012 -51.2987 -10.2178
17.0792 14.1652 20.3020
-77.3556 -28.9747 -40.0258
-1.2508 -33.1461 9.3372
-47.1288 8.5917 -5.3774
-32.0785 3.1794 10.2699
-55.7380 -48.1313 -31.0780
3.5135 6.8641 34.7591
0.1176 1.5447 40.9121
12.1228 8.2981 27.7894
0.2199 2.1414 40.3095
-19.5992 -33.2103 3.9523
-0.5792 15.5515 26.9192
24.9230 -34.5285 -0.0632
-18.6685 -3.6623 23.4622
-46.3499 44.2317 -21.5169
-13.2009 1.3870 29.2046
0.6660 5.5645 36.8629
-19.1552 -8.9335 21.3536
15.3470 11.4461 23.3413
-23.9259 -58.1762 -20.3542
-26.9703 -73.5685 -35.7842
8.2815 60.6934 -18.7084
-10.0718 5.1483 31.1640
24.6636 -11.8061 15.1548
-35.6056 -44.4683 -14.4253
-26.0149 66.9178 -29.2341
-37.7028 2.4860 4.7289
-35.0996 11.0679 5.7089
-19.7924 -14.0424 18.2262
-59.4596 0.1664 -16.9150
14.8983 29.2539 9.6773
59.9317 -59.4192 -41.8138
11.8236 -19.7019 19.5148
62.4536 -56.6957 -41.7688
78.8067 -6.3942 -36.4925
-31.2255 -30.5391 -1.1548
33.9444 -43.1248 -12.3432
-60.8980 11.8852 -19.4984
-7.7770 -3.7900 33.8202
-0.8119 0.4180 41.5472
8.2947 63.2628 -21.2531
24.1305 -3.6900 18.0832
-35.5167 -50.6340 -19.3002
-23.5080 -23.8422 9.0249
39.1113 -47.8816 -19.2769
-33.2819 17.8004 4.7704
24.0319 52.1069 -14.8399
17.2646 -11.8114 21.5709
26.7412 20.1909 8.9997
25.6355 48.9893 -12.7525
5.3181 -21.1758 20.6571
-3.6385 -23.9432 18.2759
-38.1929 31.8091 -7.1735
37.3734 -15.7146 1.9747
-6.2946 50.7465 -8.6025
-23.8927 -72.7291 -33.9836
8.5379 12.7743 27.1163
1.5240 -49.6694 -7.1620
-20.1304 8.2282 20.7433
-7.8708 61.3900 -19.3442
-60.5838 -54.7998 -39.1140
-25.8224 15.8527 12.2026
-5.4385 -42.2984 -0.1260
-18.2805 48.9378 -9.7062
-3.7302 -59.0808 -16.6539
-15.7118 -3.7145 26.3374
60.4535 37.9630 -28.8230
8.3302 -5.7547 32.3490
-59.7119 -22.0047 -21.0865
39.4883 -41.9841 -15.0945
-10.3371 26.7402 13.8317
3.0436 -1.2627 39.1686
4.7516 -24.3880 17.6483
-46.0560 -7.4631 -4.1303
-2.3896 -0.8242 39.9349
60.9378 -38.2252 -29.3718
-25.6988 17.3392 11.5026
45.3722 36.3860 -15.6170
-11.3232 43.1828 -2.1192
37.8913 -34.9249 -8.9981
-19.1582 39.5090 -1.3865
12.2574 -44.8912 -4.0083
9.8566 11.6889 27.1911
2.5163 10.1231 32.0429
-1.6808 4.1371 38.0000
27.7049 61.9853 -25.3381
-5.2314 6.4680 34.1522
9.0566 -29.8532 11.3073
66.5896 -6.8103 -24.3813
18.1670 52.3615 -12.8845
-38.7522 -33.8843 -8.9436
33.4396 2.9914 8.9343
-4.5615 -5.1748 35.5707
-5.9515 -42.4740 -0.3680
-41.1823 -9.8004 0.1878
-2.2445 7.4448 34.6945
12.5980 15.4667 22.5397
-42.1865 25.1991 -6.6096
31.0597 -62.3421 -27.0913
40.7873 19.1625 -2.5404
-10.6198 -11.8482 26.5709
-17.9350 -13.1908 20.2277
-1.7043 -8.8148 33.4939
40.8623 72.7573 -40.8672
68.4605 20.2701 -28.8362
13.7226 25.2332 13.7773
7.3322 -0.5902 35.1138
53.6156 7.8553 -11.6507
-3.2824 64.1624 -21.6946
-22.4798 71.7485 -32.6201
16.4573 83.3479 -42.3755
2.3958 -5.4489 36.5153
8.2799 -12.4143 27.5584
27.4173 10.5529 13.1233
-6.2090 27.8782 13.9390
3.0672 -20.4912 21.7694
18.0753 44.1537 -5.1823
-33.4576 6.0767 8.5031
-24.9642 -23.0415 8.5356
-12.1594 21.8220 17.5141
0.6626 -43.2446 -0.7282
-66.5752 -24.6030 -28.4144
15.5181 -24.3695 13.6098
-44.7218 -42.0021 -18.8056
-31.0487 6.5205 10.7788
-11.3327 -50.0818 -8.8149
61.7709 5.5992 -19.4756
-11.0188 -10.3964 27.3316
-8.3895 -17.9962 22.6320
21.4063 13.7520 17.0527
-4.3810 -6.1072 34.9538
-78.8434 16.7720 -38.0322
-6.5324 9.0830 31.2871
-2.8949 -1.3608 39.2648
61.8992 2.4034 -19.3974
65.4595 -40.3426 -34.3226
22.0115 -32.2686 3.4543
-4.3323 -39.4007 2.8780
-0.0681 64.9440 -22.3913
2.3987 -6.8362 35.2246
12.7702 21.4729 17.5118
-25.0558 21.6109 9.4186
36.7381 57.7236 -25.8652
23.7056 -22.0313 10.1432
51.1094 9.9422 -9.5333
-65.6836 -47.3612 -38.4020
-8.7668 25.8178 15.2327
-3.0566 9.6913 32.3118
-28.9495 -2.0113 13.4816
-3.8908 29.8315 12.4182
12.4495 -69.8758 -28.4147
-19.4849 45.2674 -6.7527
-23.9506 -14.4763 14.5138
10.3782 27.2099 13.3792
15.2580 -4.6706 26.5252
-62.7256 -6.7827 -20.5411
38.4562 57.3572 -26.4973
43.0975 42.8278 -18.2119
2.6128 77.4589 -34.9321
-14.5151 55.0814 -14.4206
-57.7312 48.5393 -32.8572
8.6563 10.3874 28.9571
-0.6094 -20.0473 22.4314
-1.7733 22.5122 19.9097
2.3279 11.5148 30.7282
-6.2182 13.4975 27.6195
58.8243 50.5467 -34.9872
-9.9648 49.5191 -7.9799
-0.1720 66.8662 -24.3109
7.7463 17.9541 22.9333
12.0444 -1.1741 30.3750
-75.7491 25.1375 -37.2369
30.2979 -43.5197 -10.4920
-30.3607 16.4801 7.9637
17.1221 13.9036 20.4346
-24.9101 13.6567 14.0920
-0.4306 -9.4254 33.0374
22.9222 -55.1045 -17.1368
-3.5916 24.7032 17.5321
-31.5494 11.2430 9.0145
57.7513 -37.1392 -26.1044
-8.1040 -65.9229 -23.8643
-0.0454 -7.1587 35.3105
27.7344 8.2745 13.5583
26.3153 -29.9423 2.6539
47.2366 -37.0523 -17.4890
-60.4592 36.9264 -28.2828
-43.7383 -16.4363 -4.1982
-56.5381 7.7155 -14.5208
44.4202 21.9196 -7.0035
-26.0879 -3.7631 16.1392
-22.6022 28.5416 6.1044
9.1511 33.1909 8.0794
31.8630 32.4167 -2.9297
16.5982 9.8755 23.1730
-17.5185 37.6486 0.9941
36.1370 -6.9960 5.7042
2.7841 -4.2975 37.3459
8.7727 61.5787 -19.6517
53.6236 42.9295 -26.1326
80.1054 -2.3768 -37.5660
-9.6975 -4.3732 31.8364
-15.5655 8.8963 24.5565
-62.6527 21.7930 -23.7799
-24.2468 18.2983 12.1263
6.6376 -44.9705 -2.9331
-25.3941 -5.3056 16.5541
41.6707 42.1399 -16.7193
46.8773 -19.9192 -8.4013
-19.5386 80.8151 -40.5644
36.3661 -6.1405 5.6313
-0.3680 -9.4452 33.0203
-22.2093 -30.2751 4.9654
-7.1337 -3.4850 34.5311
-47.5348 50.3990 -26.7202
28.9522 2.6011 13.4321
-33.6165 -3.2951 8.7302
-17.3616 -58.0728 -18.0660
3.0431 12.7181 29.4008
-43.9575 -20.4125 -5.9367
25.5895 70.9263 -32.8335
78.3461 29.0616 -40.9828
-42.6343 -10.0863 -1.2889
-77.8592 -17.5114 -37.2300
49.4660 31.3310 -16.0100
8.5915 0.4064 33.8703
-44.1198 41.7119 -18.1694
65.3606 -30.9438 -29.7520
10.1608 -77.5366 -35.6276
2.0928 -8.9374 33.2931
-24.0656 53.1319 -15.7847
-49.2997 -32.5560 -16.5349
27.0009 -42.8187 -8.0889
-0.6594 -0.0078 41.8005
22.9750 -2.8929 19.3360
13.1148 -33.0387 6.9638
-28.8352 -67.2207 -30.5797
-3.0437 -0.9608 39.2719
15.1009 -81.1836 -39.9979
46.4859 -8.1769 -4.6724
29.4062 62.3040 -26.3365
-15.7042 14.8650 20.8665
-22.7899 12.9784 16.2706
44.0695 50.7639 -24.6682
40.7477 -45.0143 -18.1713
-15.3527 47.9545 -7.8204
-8.6909 0.4165 33.7707
6.5940 -1.2768 35.7522
-18.3084 31.6941 5.9098
6.1822 46.2010 -4.0865
7.9806 -12.0320 28.0417
-4.6910 67.1279 -24.7355
0.1007 1.4024 41.0550
18.4956 33.3157 4.4086
37.7903 48.3616 -18.8279
-31.6966 -59.4580 -24.8227
-31.3672 -50.1755 -16.6288
-32.2868 -30.0210 -1.5647
5.1972 17.3331 24.3897
-1.4676 58.1011 -15.5767
-11.5800 17.9578 21.1222
-15.8704 37.9172 1.4138
-23.3307 26.0558 7.5348
-18.1958 -43.1458 -4.2991
-37.1200 -74.8946 -41.0092
-32.1097 66.3268 -31.1250
54.0862 -27.1438 -17.9690
17.2619 -13.7978 20.3922
-20.7329 -37.9043 -0.6827
58.8928 -40.6270 -28.9843
27.9412 15.9901 10.3124
4.4860 -0.2555 37.9722
11.1003 7.9615 28.8185
8.9150 -43.0361 -1.4273
-51.9411 -11.2142 -10.6022
9.7811 4.2221 31.8210
32.8126 45.9327 -13.9084
23.8457 -60.0182 -22.0295
27.5298 21.7098 7.4496
20.8121 -1.0079 21.6526
-53.0759 34.4003 -20.6987
-12.3895 -36.1243 4.3243
-61.6154 4.3529 -19.2208
-15.6468 53.5048 -13.2062
-17.0817 37.6920 1.1367
39.7569 -64.3029 -33.0326
0.2895 -5.8997 36.5607
32.8848 -11.6826 7.6111
65.2573 -2.9009 -22.7684
-42.8612 -57.7383 -29.3454
-26.1097 3.9378 16.0922
48.2646 -38.7355 -19.3379
-11.5840 51.6472 -10.3950
-66.0686 -27.8985 -29.1548
13.8035 5.6308 27.5727
-49.0005 -56.3785 -32.1298
-8.6270 -37.1516 4.3740
-3.4435 9.1001 32.7433
-22.6761 4.2074 19.4291
-12.7185 13.0153 24.2876
45.9690 63.3185 -35.6737
-69.5374 -8.2625 -27.4664
6.5728 -3.7919 34.8819
2.6577 0.1934 39.7981
10.2944 -55.6537 -14.0571
49.0297 17.8295 -9.6366
-3.5803 -6.0241 35.4614
9.0539 -4.2015 32.4922
-41.2356 15.2052 -1.4272
-51.3634 -56.8962 -34.0813
-3.5576 13.6608 28.3630
-1.5422 -2.8980 39.1810
-16.1308 4.5421 25.7251
-3.4598 -2.0814 38.4272
-34.4011 57.4880 -24.4391
2.1897 8.4846 33.7090
-11.7705 -15.1192 23.3259
4.3899 -3.9176 36.5838
-23.0994 -33.7194 1.6453
-7.8010 6.1232 32.5562
-1.2077 43.8053 -1.2996
25.0236 8.6436 16.0229
72.6457 -37.0946 -38.9916
-43.3282 45.6243 -20.3700
17.1179 6.7597 24.0814
47.5155 -64.6337 -37.6451
-37.0812 -21.9546 -0.5719
2.5389 -61.7766 -19.2805
-12.5881 -4.3415 29.1625
3.1654 -5.4604 36.1566
-4.1798 8.6322 32.8820
1.5550 12.7520 29.6311
-27.3147 -13.4704 12.0474
25.1005 -6.2806 16.6221
0.1854 1.4807 40.9689
9.7908 1.0650 32.6247
4.1625 -24.3975 17.7447
-75.4689 -27.4986 -37.7477
29.7828 12.1249 10.3491
-6.9016 76.4370 -34.1782
21.3499 68.8967 -29.5657
12.3715 18.5266 20.2136
-42.9086 25.6974 -7.4838
14.9145 -58.2181 -17.5524
-17.4456 -36.9299 1.6748
57.1437 9.5136 -15.3876
14.0503 -42.8658 -2.5856
6.0721 75.7548 -33.4290
24.5937 19.5878 11.0635
-19.1571 -5.3614 22.5945
-2.4469 -9.3859 32.7734
-4.0850 1.1500 38.2214
-35.5407 -39.5654 -10.6484
65.7291 -38.6243 -33.6684
47.5708 -39.4756 -19.2684
-15.7120 -0.7555 26.7516
-1.4423 -29.5342 12.9323
15.9984 77.4894 -36.5504
26.6509 -21.9920 7.9558
4.2089 -4.3845 36.3901
14.8053 63.2170 -22.3748
10.4891 -7.9960 29.2888
-22.9703 32.6054 2.6324
-29.3873 27.2677 2.4278
-2.3246 -7.7076 34.4201
-39.3919 -27.9978 -5.7992
-16.3803 46.5371 -6.8056
25.6251 77.8886 -39.4183
-30.4684 20.5479 5.7624
-34.5230 -27.7828 -1.7909
18.9854 -25.0194 11.0971
10.5213 -4.4012 31.0707
-72.0557 -31.6670 -36.1345
18.1164 -41.2596 -2.5376
-66.7417 -40.7780 -35.6412
30.8775 -14.6732 8.3218
1.5570 -1.2289 40.4784
-19.4316 5.6626 22.2484
22.6928 4.9407 19.2681
-36.7867 3.5020 5.5593
-20.2894 12.3744 18.7281
62.5561 -7.3617 -20.4378
-11.4229 2.5414 30.7737
7.4706 1.8269 34.7794
6.4684 17.8071 23.5408
3.5778 -37.7707 4.5740
43.1986 -66.5497 -36.7674
-11.7080 -22.8792 16.7952
1.6317 -1.6129 40.1680
-27.9642 -78.9634 -41.1889
-7.5529 -0.2397 34.9132
-22.0307 -3.1182 20.2409
41.6655 -66.0190 -35.4957
-28.7967 79.9555 -42.4014
25.0312 -64.0873 -26.2439
-6.4883 -16.6121 24.6505
14.8918 12.1185 23.2872
10.4836 -46.5645 -5.2021
12.3438 -69.9791 -28.4978
2.2273 -2.3731 39.2091
0.7283 1.9297 40.3995
-25.1418 -61.5844 -23.9638
40.2355 -45.2903 -18.0350
16.5906 -19.8115 16.6555
-9.4617 36.4579 4.8477
-5.3098 5.7109 34.6723
-9.9255 -53.6999 -12.0716
-18.9281 31.8370 5.4738
-20.5427 -53.2791 -14.5607
-6.6711 80.8503 -38.5489
-13.3417 -29.4210 10.2009
25.3998 -4.8251 16.6423
-81.9187 21.4666 -42.1034
-7.5640 52.9440 -10.9454
-17.6140 12.0986 21.1210
30.4782 -50.0369 -16.0449
32.4318 38.2163 -7.5915
52.7719 -39.7436 -23.5094
-7.2475 40.2977 1.5739
83.4672 15.0909 -42.2390
-35.0581 36.5819 -8.1364
18.5100 -39.9579 -1.5144
54.9684 -19.8524 -15.9002
11.6743 11.2661 26.2586
-7.0629 42.2704 -0.3355
-14.5486 -10.2258 24.7019
-6.0519 16.0537 25.3272
-34.9425 29.9817 -3.5167
10.9010 52.9186 -11.4927
19.8795 -0.8378 22.5906
-67.1500 -19.0351 -27.2361
-11.9646 29.3022 10.8539
-33.5583 -71.1203 -36.0676
7.2155 6.9114 32.4819
49.8480 -61.8109 -36.8329
-32.2365 -66.3831 -31.2309
-23.7373 46.8471 -9.9828
-18.1066 -41.1351 -2.4199
5.6716 -5.8678 34.3100
73.5959 -0.8118 -31.0351
5.4460 57.7951 -15.5083
-11.3485 37.6304 3.2114
18.2731 19.8209 15.5392
54.1563 -46.2547 -28.6590
8.2787 -4.8604 32.8729
-40.7281 4.8187 1.5061
35.4481 -27.0974 -2.0954
-50.0146 -27.9491 -14.7524
-36.7351 -76.3487 -42.1452
-3.6410 -75.9877 -33.5061
-3.9267 1.4539 38.2779
-14.9349 24.2728 14.0007
0.1544 55.6253 -13.0862
0.0103 -0.3742 42.0852
24.1673 -47.7938 -11.0202
42.4687 69.5347 -38.9014
35.1341 53.7392 -21.6535
-39.9664 -14.7040 -0.0649
-3.0979 -2.0968 38.7236
3.5615 -31.4421 10.8615
44.0005 29.8305 -10.6235
-4.4004 33.7720 8.4507
-33.1237 8.8656 8.2189
-30.0533 -9.9482 10.8477
3.7768 -8.8899 32.8141
-18.6928 -57.2395 -17.6685
42.0649 -8.2311 -0.3418
-51.2754 -13.4343 -10.4706
-76.8857 -30.4438 -40.1153
-4.7766 6.0899 34.7305
-26.5916 -46.2867 -10.8453
29.3672 -1.2821 13.1063
-76.5860 27.5769 -38.8231
4.4047 -70.8831 -28.4583
-55.1942 -40.8125 -26.0863
-7.2755 19.7716 21.4217
-12.0686 -7.3561 28.3456
-7.8418 9.9422 29.8148
-6.6860 -40.9438 1.0328
-57.0188 -4.6572 -14.6671
40.2449 67.7127 -36.1969
-22.5190 80.2862 -40.8052
-41.8924 55.2996 -26.8168
1.6741 -74.3471 -31.7996
-0.4907 -0.5702 41.7078
2.1077 -51.3081 -8.8182
-37.1691 43.6536 -14.7922
44.2339 -63.8094 -35.0709
-17.3127 -16.3796 18.6603
4.5058 30.4365 11.7353
-23.4428 3.0352 18.8547
4.1892 -59.8814 -17.4821
0.6899 18.1670 24.3051
10.1948 -7.6881 29.7087
-78.8150 -8.7587 -36.7267
53.3478 3.5827 -10.9318
-49.2260 49.4710 -27.2298
76.4580 -27.5188 -38.6831
-36.8168 -68.7991 -35.4591
17.0482 5.7343 24.4982
23.5366 51.5085 -14.0904
-24.1322 1.8726 18.2892
6.3086 -4.4522 34.7487
-6.2323 -9.4380 31.1653
-0.6476 48.7706 -6.2455
50.1052 8.7333 -8.3281
-0.7282 -26.5534 15.9340
10.1055 63.7233 -21.9674
-39.3370 -3.1386 3.0540
78.7984 -16.3559 -37.9028
-46.1089 -69.4547 -40.7872
13.6842 -33.7485 6.0943
-32.2068 -71.5701 -35.9105
-25.8878 -21.5346 8.8339
-57.9183 -32.7845 -23.9983
49.4835 -2.0038 -6.9935
1.3071 -0.2446 41.1312
0.0400 0.2506 42.2056
-23.0224 -58.1353 -19.9787
30.6768 23.5458 3.8436
18.8488 19.3352 15.4957
47.6202 -36.8630 -17.6750
-6.1976 1.5728 36.0742
-30.6853 -61.3260 -26.0165
-0.9273 -56.2181 -13.6856
-34.3211 -9.7583 6.8291
-61.0105 -54.6013 -39.2982
13.5026 -75.8470 -34.4693
-41.6506 14.8976 -1.7119
61.5433 -33.5315 -27.5251
-71.9142 -29.6343 -35.2094
-5.5652 7.4749 33.1534
-59.1965 60.7219 -42.2205
8.7169 0.0926 33.7542
-31.9933 -16.7999 6.3752
22.7391 -61.6436 -23.1500
-22.6190 -7.9930 18.5039
-22.3434 -39.7678 -3.0899
0.7204 -65.1641 -22.6150
-65.9829 36.4363 -32.8069
0.4316 36.2171 6.2916
-21.4741 18.6008 14.0900
58.5931 -11.8986 -17.2437
3.5015 -4.5409 36.7331
40.0625 23.2965 -3.8177
24.8400 -64.5900 -26.6429
-46.4326 68.7359 -40.3707
8.9716 17.4597 22.8575
11.3787 5.8601 29.6785
-81.9450 -13.1245 -40.4105
56.9094 8.1020 -14.9413
3.8244 -2.1916 38.0575
3.5862 -78.9912 -36.4994
-1.7966 -0.1758 40.6564
0.7469 4.9844 37.4262
-73.7549 13.3988 -32.3948
49.0936 -28.4304 -14.1906
6.6860 -23.9452 17.6338
-13.6456 -15.0918 22.1422
-8.1542 14.4004 25.9341
-70.3871 -46.6149 -41.8424
-56.9824 33.6788 -23.6365
-33.7106 9.3423 7.5283
25.9733 30.5321 2.4317
1.9790 -14.7123 27.6357
2.0206 8.0532 34.1682
1.7429 -33.1987 9.2626
32.4190 18.8094 5.0326
-51.1874 -0.1544 -8.6547
48.9753 65.3030 -39.0507
-0.7278 3.3176 39.0675
46.0719 -30.0701 -12.4782
-74.5573 26.5958 -36.5856
-37.1463 -0.1278 5.3662
0.5536 0.1321 41.8907
-9.5273 18.0474 22.0807
1.7491 -0.2344 40.6968
51.2925 35.5536 -19.8606
20.0589 -38.8638 -1.2129
-2.4569 0.2249 39.9954
3.1344 12.1936 29.8872
-4.0704 -14.4134 27.5035
-13.1309 -70.7922 -29.4367
11.4861 7.2118 28.9161
-0.8544 -1.0379 41.1166
20.1975 -11.1561 19.4186
-6.4547 1.6021 35.8180
-25.2952 54.1436 -17.2157
32.0480 11.7065 8.3891
58.5849 19.3415 -19.1470
-20.6148 -48.9440 -10.5725
69.5385 -25.8893 -31.6354
-23.9040 -32.0739 2.5151
-11.3765 51.6633 -10.3657
52.3171 3.9198 -9.9290
-59.9836 2.5081 -17.4904
-13.0919 -2.1935 29.2038
53.9036 1.1134 -11.3783
-50.4131 -28.2360 -15.2396
30.0577 -11.0425 10.4834
-38.4327 8.4172 3.1722
-76.2835 28.2783 -38.7798
-54.8863 18.6658 -15.4307
-30.6015 -13.5341 9.0465
1.9545 -21.8068 20.5964
18.5362 50.1875 -10.9649
-18.3839 13.9499 19.4149
66.2529 31.4800 -30.7866
-4.5461 -79.3474 -36.9038
14.4951 10.0732 24.8329
38.2313 16.8793 0.7277
-36.2279 62.9494 -30.0659
7.5621 -4.6573 33.5906
-58.2643 -34.4651 -25.1379
-61.5079 -19.3383 -21.9241
20.1568 75.2904 -35.3704
-26.4908 -11.2874 13.7053
46.1481 62.6547 -35.2442
-27.7822 31.8820 0.2316
35.2725 6.5981 6.6265
-58.4876 -16.6002 -18.2509
52.7310 -22.1249 -14.6430
-42.5118 35.6252 -12.9262
6.0959 -3.1472 35.6085
11.1394 -3.2763 30.8646
-12.1096 -49.6895 -8.6109
-4.3129 17.4273 24.5318
-26.7882 23.4399 6.9149
-69.6376 -45.8725 -40.8094
4.4133 -2.7193 37.2827
-0.6065 -1.7313 40.6272
48.4495 35.8262 -17.7107
-35.6084 25.6940 -1.3882
-2.8638 -20.4275 21.8615
47.2526 63.6257 -36.6795
-41.2048 66.7868 -35.9026
28.2309 -39.2712 -42.4590
49.4668 42.7398 -42.4590
-22.9613 -66.1912 -42.4590
-17.0107 52.4987 -42.4590
-34.7576 -41.8181 -42.4590
6.1220 26.6988 -42.4590
-7.3399 3.0000 -42.4590
-26.1543 -64.4185 -42.4590
19.8873 -16.4372 -42.4590
23.0034 -25.2088 -42.4590
8.5940 9.8467 -42.4590
-1.9465 -23.1095 -42.4590
11.3425 -12.6551 -42.4590
35.6360 40.5927 -42.4590
54.7324 47.0433 -42.4590
55.1852 -8.6195 -42.4590
-4.0642 45.4327 -42.4590
-56.1330 -17.0806 -42.4590
34.4343 -1.5190 -42.4590
67.9418 7.9399 -42.4590
-18.9486 3.9777 -42.4590
75.7622 6.6856 -42.4590
-52.5323 -9.6768 -42.4590
-51.4930 -57.5063 -42.4590
-32.8842 71.2916 -42.4590
-32.7242 31.4821 -42.4590
15.9755 -11.7705 -42.4590
-0.4784 -3.8421 -42.4590
16.4260 -16.3873 -42.4590
-3.9679 -11.6850 -42.4590
74.1379 -8.7534 -42.4590
-0.0247 1.6904 -42.4590
-17.7815 3.5156 -42.4590
22.2692 18.3732 -42.4590
71.1520 32.1751 -42.4590
9.3575 31.6562 -42.4590
43.9739 -0.7866 -42.4590
4.7323 3.1182 -42.4590
6.5247 -43.5237 -42.4590
-22.1987 17.1296 -42.4590
-67.0734 24.9578 -42.4590
-37.2561 -66.4536 -42.4590
-61.3396 -50.9440 -42.4590
-67.5945 14.6517 -42.4590
3.6187 34.9434 -42.4590
-21.1569 -9.5554 -42.4590
-2.8703 -26.4403 -42.4590
-28.6266 -30.4610 -42.4590
25.6436 11.2219 -42.4590
-23.9810 81.2321 -42.4590
51.1047 -43.2771 -42.4590
22.6486 68.8584 -42.4590
-20.1879 6.6792 -42.4590
10.4175 -65.9879 -42.4590
34.8723 -6.7785 -42.4590
32.1551 28.0167 -42.4590
-37.5038 16.1705 -42.4590
1.5486 26.8087 -42.4590
-19.9197 18.0709 -42.4590
-21.8531 75.7445 -42.4590
1.5295 -31.2365 -42.4590
27.6893 78.5979 -42.4590
40.6946 -23.8803 -42.4590
-3.4081 15.8960 -42.4590
-5.2487 -14.1193 -42.4590
42.0487 -14.4842 -42.4590
5.4916 -36.3584 -42.4590
9.1486 66.2575 -42.4590
3.2044 -12.8616 -42.4590
-28.0137 6.0058 -42.4590
35.7698 36.0497 -42.4590
-17.1052 5.2303 -42.4590
-75.8250 0.9345 -42.4590
18.0045 -32.1559 -42.4590
-7.5952 -72.2454 -42.4590
-75.0510 39.1304 -42.4590
69.6664 -3.6711 -42.4590
-28.9065 20.5423 -42.4590
1.5949 -27.6612 -42.4590
-6.3451 14.0297 -42.4590
13.2429 -40.8859 -42.4590
1.3759 12.0916 -42.4590
-2.5969 -7.1499 -42.4590
-34.0189 -14.0122 -42.4590
36.9396 1.9265 -42.4590
-1.2331 33.9424 -42.4590
-78.3371 18.6326 -42.4590
-6.2888 -38.5885 -42.4590
-12.2380 -11.3678 -42.4590
47.1892 -67.1938 -42.4590
77.3325 -30.1382 -42.4590
-3.4001 29.8435 -42.4590
13.2661 -8.5034 -42.4590
-3.3453 -54.4640 -42.4590
-5.6653 -40.3207 -42.4590
-12.1636 25.9551 -42.4590
-18.3761 8.8240 -42.4590
29.4052 -51.4124 -42.4590
6.6608 -0.7739 -42.4590
32.4952 17.4147 -42.4590
74.8214 -16.9775 -42.4590
81.4232 7.2364 -42.4590
5.1773 -9.3788 -42.4590
-2.2773 26.9808 -42.4590
23.9455 39.1887 -42.4590
-30.8383 51.1499 -42.4590
-10.0830 17.7652 -42.4590
21.6780 24.7652 -42.4590
20.3831 10.6327 -42.4590
-41.2488 -62.4147 -42.4590
-5.2542 -0.0421 -42.4590
0.6303 -5.6521 -42.4590
-67.3648 -36.1832 -42.4590
-59.0441 25.7079 -42.4590
0.0013 0.0332 -42.4590
-30.4473 -13.8525 -42.4590
-34.6135 23.9407 -42.4590
-23.5492 2.0590 -42.4590
-8.0544 -10.8246 -42.4590
-44.6840 -39.0568 -42.4590
-19.8259 57.2997 -42.4590
-10.9497 -1.4455 -42.4590
-20.4406 57.3290 -42.4590
-0.8523 4.4972 -42.4590
16.4255 -22.4155 -42.4590
29.9410 -36.5994 -42.4590
29.4133 0.0464 -42.4590
-38.4947 45.1897 -42.4590
-30.6832 67.8371 -42.4590
10.1782 -36.8496 -42.4590
-56.2571 11.2899 -42.4590
22.7699 55.1638 -42.4590
35.1813 -27.3727 -42.4590
-49.6912 -6.9661 -42.4590
-38.4081 4.9237 -42.4590
75.6005 -7.7888 -42.4590
-20.6254 4.7902 -42.4590
50.8484 -44.8122 -42.4590
15.8170 27.1678 -42.4590
8.7818 18.7437 -42.4590
20.0342 15.5765 -42.4590
-33.4986 -74.0136 -42.4590
-39.4969 -48.3881 -42.4590
-58.2172 47.6291 -42.4590
34.7300 9.2772 -42.4590
-2.8641 0.2028 -42.4590
-56.3971 -5.0996 -42.4590
-1.0789 -44.6606 -42.4590
53.0984 -26.7885 -42.4590
19.4308 -2.7273 -42.4590
2.2003 -74.5584 -42.4590
-62.2786 25.6946 -42.4590
-59.8191 -46.8158 -42.4590
30.4807 -62.8295 -42.4590
19.2333 -21.5980 -42.4590
-1.7696 -6.9099 -42.4590
15.1806 -27.8072 -42.4590
69.2755 -32.0051 -42.4590
42.3185 -0.6974 -42.4590
-44.1268 -43.5648 -42.4590
1.2647 -0.5126 -42.4590
-28.7104 -33.9467 -42.4590
-23.8307 -15.0073 -42.4590
-21.5332 -4.6379 -42.4590
45.5821 0.8380 -42.4590
15.5596 -68.2277 -42.4590
-25.7154 59.2578 -42.4590
-12.5976 -8.0818 -42.4590
65.3789 -23.5961 -42.4590
57.2981 5.4083 -42.4590
-8.7352 -37.8283 -42.4590
-1.0271 -8.5733 -42.4590
40.8814 -19.6775 -42.4590
-4.3376 -13.6627 -42.4590
7.8554 14.2927 -42.4590
-11.5924 -18.2759 -42.4590
10.1840 -29.8223 -42.4590
-43.6440 -59.5118 -42.4590
-62.9959 7.2058 -42.4590
19.3604 -54.6500 -42.4590
-14.6288 -39.4915 -42.4590
4.1095 7.5006 -42.4590
-2.1805 0.5486 -42.4590
30.0069 -12.3912 -42.4590
-2.0627 0.0317 -42.4590
-6.4970 12.5554 -42.4590
-52.4437 -5.1163 -42.4590
-15.9926 63.1830 -42.4590
-46.6152 7.1499 -42.4590
40.9836 7.1592 -42.4590
3.2782 1.4511 -42.4590
1.9246 -33.6099 -42.4590
-33.4408 74.5101 -42.4590
-11.5825 -5.3538 -42.4590
31.0195 -75.0144 -42.4590
-4.1576 -3.5599 -42.4590
1.5553 -41.9866 -42.4590
26.1536 -33.9900 -42.4590
24.3952 -58.5487 -42.4590
-37.7264 -30.2047 -42.4590
-3.0638 42.9082 -42.4590
-45.7969 -45.3671 -42.4590
3.0052 17.5343 -42.4590
43.7579 21.6033 -42.4590
-32.5137 -31.7475 -42.4590
-43.8349 -59.9959 -42.4590
40.5643 56.3044 -42.4590
58.7610 21.0005 -42.4590
-0.8507 -1.3854 -42.4590
26.7575 21.2200 -42.4590
42.2810 -27.6337 -42.4590
11.7514 -6.6350 -42.4590
22.1459 66.9586 -42.4590
-2.2741 4.4543 -42.4590
40.4766 6.7354 -42.4590
-9.2165 9.5866 -42.4590
-0.5094 1.3524 -42.4590
-42.7978 44.0306 -42.4590
-62.3853 55.7252 -42.4590
-9.6424 -3.8188 -42.4590
6.1729 5.0378 -42.4590
31.2846 -4.7694 -42.4590
-73.6358 -21.3015 -42.4590
-3.4993 -3.8972 -42.4590
57.5798 -4.6667 -42.4590
10.3852 -59.6924 -42.4590
11.2727 -73.9681 -42.4590
-0.7873 -4.3651 -42.4590
6.9941 23.8013 -42.4590
-8.5534 -15.7676 -42.4590
0.5491 -45.5192 -42.4590
29.3002 19.9875 -42.4590
69.0272 12.9102 -42.4590
-65.2887 -0.0282 -42.4590
-42.2803 -13.6364 -42.4590
-24.1304 -63.2919 -42.4590
48.1303 58.4377 -42.4590
-12.8000 44.9849 -42.4590
-18.2774 -25.8720 -42.4590
-66.9641 -11.5433 -42.4590
-59.7036 -57.4334 -42.4590
5.1601 26.5698 -42.4590
19.4702 25.2472 -42.4590
13.3672 71.3344 -42.4590
-1.2149 -36.1513 -42.4590
-1.1160 2.4977 -42.4590
13.5726 -21.8335 -42.4590
-65.2904 27.5954 -42.4590
-14.0620 3.7062 -42.4590
-24.4540 -3.1014 -42.4590
-55.2245 -0.3271 -42.4590
-12.3789 -0.0485 -42.4590
56.4084 14.6155 -42.4590
51.0102 -11.9691 -42.4590
7.1178 -13.9678 -42.4590
-69.7853 38.7506 -42.4590
