ply
format ascii 1.0
element vertex 1024
property float x
property float y
property float z
end_header
27.0491 21.4723 14.9552
0.8900 45.5959 1.5889
4.3995 29.9326 20.1254
64.4769 -64.4462 -53.4246
48.0235 79.4004 -55.3945
-62.9235 45.7295 -37.2710
48.9265 -51.0170 -28.6985
7.6369 39.8004 7.7210
-20.3146 -9.8608 29.3907
-12.7991 23.1263 24.7411
-3.8906 -9.1119 44.6947
28.1074 64.7633 -28.5940
57.0524 -27.3134 -19.7230
-24.1117 11.6305 24.3325
-0.6829 -2.2034 53.8733
63.8850 57.5387 -47.1626
9.7873 -3.2216 44.2164
-30.6446 -11.0815 17.3087
0.2802 -1.9727 54.2528
17.9435 34.5371 9.6607
81.1721 27.1731 -46.7072
-15.5475 -52.8146 -9.8235
-6.5984 9.0330 43.1508
6.8924 -15.5476 36.1223
16.5164 4.0215 36.1317
58.8179 17.6160 -17.4841
29.0879 -85.2638 -52.1285
47.7492 -15.5154 -3.9684
3.8096 -26.8724 23.8846
33.6689 22.3377 7.8676
8.2308 28.9534 20.3108
50.9096 -27.4513 -13.1850
60.6258 50.2000 -38.3897
-60.9341 -13.5157 -18.7107
-12.6505 -25.8504 21.9057
33.8907 -55.5107 -21.8787
-13.6392 30.1827 16.6631
-0.8772 -3.0214 52.8597
-1.3277 -24.2613 27.3183
85.0354 -20.3308 -48.9200
-22.4454 8.2458 27.7837
8.8200 4.4951 44.7048
-14.6929 -12.9073 33.0427
-39.0507 -50.6896 -20.6094
-5.4857 4.7547 47.8927
-9.3154 -6.8958 42.6634
52.3025 -7.2760 -7.1075
38.6897 5.3984 9.4865
-20.3214 87.6128 -51.9469
-40.5453 -82.7491 -54.6154
3.4333 11.2362 42.4713
47.7483 -56.4693 -32.6403
-81.6661 9.3833 -42.6061
-31.8205 2.2438 18.1386
-31.8296 84.0194 -51.8355
-26.7658 44.9041 -6.4673
-52.7304 -68.1619 -47.4050
0.0325 -0.0226 56.6111
36.1203 43.7597 -11.8594
65.6503 19.4309 -26.0168
51.3327 36.5997 -19.4706
55.7382 -16.0962 -13.3983
-24.6229 -14.3886 22.2210
-58.4756 -65.3771 -49.2592
-22.7192 -7.2169 27.8733
45.7694 -45.0016 -20.8504
19.6006 -48.5575 -6.5737
-85.7443 16.7970 -48.8500
32.6402 41.3178 -6.9248
-8.6023 -71.6896 -30.5311
63.1786 -53.5676 -43.3643
-57.6416 6.1748 -13.3446
77.5975 8.6475 -37.6243
-60.2687 -21.8826 -20.7675
-63.6354 -33.0552 -29.9330
28.8121 -20.2129 14.1589
-8.9958 24.0616 25.6390
-42.6279 -72.4965 -44.8968
-1.0752 0.6112 55.1654
-0.3466 0.1618 56.1971
-1.5431 -1.4469 54.1045
5.2927 35.2527 13.6123
0.7982 50.3030 -4.0923
23.7957 38.0999 2.4151
-5.8302 8.8981 43.8129
1.4466 5.3833 49.9277
-16.4570 12.3252 31.8307
-31.6408 31.4673 2.7726
-4.8442 5.8504 47.4868
-85.6760 -26.2430 -51.5441
-3.3825 37.0789 11.6983
-69.5352 -47.9431 -45.3325
-0.3957 30.6075 19.6956
68.6683 -10.5109 -27.2276
58.8458 71.6449 -55.2978
16.2632 34.0537 11.0884
89.2995 0.4324 -51.1763
-1.6455 -4.2707 51.1323
-74.1804 -16.3098 -35.0575
-56.5610 -68.0708 -50.2132
-6.0490 56.4457 -11.8926
47.6984 40.6238 -18.9983
-82.7081 37.0120 -52.7599
12.6211 -10.8502 36.5605
-0.5246 33.4545 16.2559
3.8510 -1.2031 51.7870
-13.4095 13.0979 34.0234
-18.2018 23.5692 20.6986
3.7052 2.9539 50.9369
58.9103 -57.1735 -42.4726
43.5384 -51.5555 -24.8270
3.3940 51.0765 -5.1548
-6.4113 7.3019 44.9249
-57.9607 -36.4392 -26.0145
69.1392 51.6440 -47.5504
1.2378 -0.5544 55.0211
-34.9687 37.6945 -5.4296
2.8845 9.5061 44.6629
-56.3832 -69.0754 -51.0131
-7.5554 3.5502 46.5783
30.2357 -79.7099 -46.2873
0.3880 7.7293 47.3136
-1.4743 19.6073 32.9152
7.4121 -21.3039 29.4208
23.5500 -27.4887 12.9489
36.9896 -56.9577 -25.3518
-15.5988 -18.8115 27.1492
-10.7695 9.3406 39.4442
-23.3437 -69.7134 -32.1180
17.5966 -4.5434 34.7132
-14.5034 -64.9481 -23.7011
36.4769 26.4622 2.2411
-31.9128 7.3059 17.1255
-31.8855 74.5407 -41.2424
-73.6349 24.2819 -36.9691
3.7565 -13.0577 40.2515
-15.6695 -27.2978 18.6506
6.2569 6.2198 46.0054
-65.5972 50.0787 -42.9981
13.8807 0.5617 39.8835
45.9015 -61.2534 -35.7716
-85.5157 -29.3437 -52.5161
-12.1513 -9.8345 37.7819
-5.4706 30.6676 19.0416
-18.5384 19.6555 24.0323
38.0132 -46.6377 -15.9961
-3.4194 -29.3051 21.0313
10.4016 -4.5064 42.9703
29.9583 -17.0848 15.0133
-22.9717 36.6113 4.4668
5.1001 25.9794 24.6886
-8.7696 -40.5847 6.5197
-6.5574 7.0877 44.9990
26.6685 88.0805 -54.4714
0.8045 10.0752 44.4538
55.0892 47.7100 -31.3440
10.6356 6.3982 41.6710
-54.7172 -12.7130 -11.1751
29.8175 -79.4036 -45.7628
-2.6001 -64.2141 -20.9466
-14.3307 -82.8242 -44.8418
55.5285 -24.8151 -16.7858
28.8657 -40.6839 -3.5787
6.6162 42.5701 4.6361
-90.4379 0.6877 -52.5529
21.7071 40.1510 1.5423
39.7721 -55.2578 -25.5546
-59.0865 -66.7590 -50.9962
2.7438 8.0517 46.3870
21.9291 -15.4532 24.2638
-16.0569 88.8079 -52.3202
55.0315 25.2136 -16.4375
-74.2544 -6.7500 -33.3770
-1.5166 -0.2244 54.8076
-16.0112 -9.6958 34.0557
6.3693 -6.4704 45.6951
2.3714 -7.3641 47.3167
15.8315 29.5914 16.1332
-45.2848 24.9805 -5.7933
-43.4310 80.6388 -53.9419
9.5728 18.3400 31.6770
-20.0525 50.1091 -8.5158
28.9166 70.7374 -35.6219
23.7531 54.9686 -15.6509
-75.1292 0.9710 -34.0712
-14.4379 -60.0977 -17.9772
-9.1197 -85.3826 -47.0316
30.9576 4.8067 18.8280
-1.9275 80.9148 -41.0778
-70.9191 -7.8316 -29.5004
74.9513 41.2442 -46.6472
31.3947 62.9874 -28.3262
-3.1033 41.3949 6.5321
22.2765 -33.2372 8.3424
-42.9777 60.1707 -32.6315
-5.8303 3.5293 48.4290
48.5947 7.9174 -2.7955
-44.8957 -77.8868 -51.8999
28.0446 -36.0706 1.4856
-34.1809 3.4541 15.1735
-7.3022 -40.0074 7.5496
5.9279 28.3192 21.7208
-46.1487 7.0769 0.2804
31.8122 -19.7291 11.4562
2.0071 0.7189 54.0845
-20.0269 -19.1431 23.2043
54.8456 56.9213 -38.7919
-50.8186 50.6527 -29.9844
9.5700 24.1943 25.2405
-7.5690 -12.6107 38.8984
-0.4334 1.7679 54.4608
-82.1294 36.1867 -51.7167
-9.1264 -42.4145 4.2689
-13.8259 -30.9369 15.7400
-40.0601 22.7452 1.0307
-42.0757 11.1860 4.0853
-56.4958 1.1405 -11.5767
36.7901 -36.7690 -6.1510
-7.7418 6.5636 44.4026
69.6707 -30.3071 -35.0876
10.1657 24.5987 24.5180
-0.3481 -1.5778 54.7078
-4.2241 -13.6790 39.3712
-11.4440 28.2284 19.8769
-26.4138 21.8189 15.2880
24.5654 12.4741 23.3895
-23.8656 -79.3018 -43.3449
-50.2649 -22.1408 -9.6662
41.6067 29.0934 -4.6480
9.1808 -26.4153 22.8894
-4.1647 -13.4778 39.6244
-22.7634 -13.7743 24.5302
-32.7810 -73.6711 -40.7124
-11.5052 14.2802 34.5144
4.0120 -22.0257 29.6241
-13.5667 14.6329 32.5629
-21.5338 36.7798 5.1931
0.0704 -0.6082 55.9195
21.0989 55.6623 -15.2231
10.9940 61.2713 -18.5111
2.2927 1.7516 53.1749
5.8440 -91.9487 -54.5981
-63.2122 19.5949 -23.2566
6.0873 -2.0665 48.8961
89.1278 -4.2386 -51.0894
-58.8097 -11.9259 -15.8024
-1.4906 -15.5906 37.7465
-45.3975 27.2505 -7.2791
-12.2357 42.5039 3.2488
43.0474 -8.5797 3.6544
-4.8959 -4.7426 48.4279
13.0347 44.5338 0.6257
35.0315 -61.6737 -28.9911
-39.3450 -67.4598 -37.6452
-6.1987 2.4733 48.5998
62.3662 43.4731 -35.1426
-56.8546 23.4982 -17.6288
-64.8404 52.6939 -44.2346
-35.0746 -42.0107 -9.4278
-61.8192 1.6746 -18.0185
-24.1708 -28.9294 11.1366
75.6765 -41.3831 -47.4957
-12.5028 -4.1659 40.7450
-19.2531 11.2377 29.7391
8.4428 7.8362 42.7491
4.0273 35.3153 13.7373
10.5638 9.3787 39.6006
7.3752 14.2669 37.2650
-16.0744 -76.6954 -37.9672
-70.9135 39.3048 -41.2468
19.8443 -9.1266 30.2830
-17.1333 22.0357 22.9528
-4.1597 -17.1379 35.3630
-36.4220 -62.8117 -31.0187
-56.1219 -52.1710 -35.8707
12.3318 23.6266 24.4761
6.9090 19.6282 31.5313
16.5775 -16.1528 28.7091
34.9334 16.4025 10.0563
-6.3605 7.0500 45.1930
63.5985 15.2977 -22.3301
-2.6009 64.4026 -21.1741
-18.5740 3.5952 33.8135
83.1886 -34.8432 -52.2515
-18.4496 -75.6925 -37.4199
40.4367 10.1770 6.3067
4.7571 -19.5593 32.3514
81.5034 -31.3960 -48.8105
13.3843 -0.0033 40.4966
-2.6048 -9.5735 44.6781
-81.7058 -0.0375 -42.0053
7.4491 -11.0418 40.5748
25.2823 -12.5424 22.5788
-67.9779 -7.6199 -25.9421
75.2218 -42.4977 -47.6697
45.2721 4.5031 1.7206
-74.4007 16.9822 -35.4947
11.6797 -49.4799 -4.7328
4.6111 7.7786 45.7395
0.7049 -4.3087 51.3868
26.4640 83.0561 -48.6039
30.2438 -26.6032 8.0195
-70.3689 12.6689 -29.6814
59.4382 -67.2889 -51.7570
67.6441 -30.3405 -32.8654
44.6557 31.2679 -9.1701
18.2321 -2.4134 34.4506
32.7076 -78.2197 -45.7208
23.6335 22.3598 17.3716
-32.0900 -38.2194 -3.6038
39.8015 -13.6359 5.8540
17.9216 3.2498 34.6647
11.0806 17.7087 31.4335
-41.1765 57.2652 -28.5127
37.5498 -65.4039 -34.4106
8.0794 -0.6200 46.8739
-64.8807 -12.5025 -23.1294
-17.0990 -18.2343 26.4733
-87.9446 -30.8221 -55.8722
35.9335 -65.7619 -33.8339
-10.1142 -4.7257 43.1780
-28.0618 -29.3475 7.6266
-31.0360 33.3633 1.6344
38.3263 30.4600 -2.4584
17.1949 -5.9927 34.6702
10.9310 -13.5758 35.6118
-26.7113 -29.4796 8.6210
-49.9283 -24.4082 -10.4510
61.8507 12.6645 -19.5787
-53.5286 27.1187 -15.8017
-65.2323 -9.6707 -22.9736
9.1277 18.0259 32.2601
-19.2439 6.4783 32.1394
-18.6041 91.0662 -55.5797
-40.9889 18.4107 2.3989
-27.0452 -38.5134 -0.1696
-11.6605 24.6351 23.7466
-0.7242 4.5777 51.0624
-2.5102 -88.8928 -50.7267
11.6388 9.4147 38.5819
-48.9757 -24.5220 -9.4809
38.8446 -22.4817 2.4624
-16.8496 18.8593 26.1199
-1.0620 42.3743 5.4735
1.5408 15.4958 37.8546
72.5979 -11.3049 -32.0634
-48.8473 -64.1638 -40.7201
36.6350 69.9383 -38.6804
3.2420 5.1538 49.3065
55.9211 10.0585 -11.9526
75.4263 0.3602 -34.4234
31.1190 -64.2234 -29.5188
72.0816 -23.9146 -35.0489
-22.1796 -36.7932 4.7808
6.2444 -5.4676 46.6364
1.6751 1.3372 54.0707
34.1413 -27.6278 3.6237
25.0522 -55.6428 -17.0289
52.6867 39.9932 -23.2164
-72.8840 -17.2088 -33.7725
13.0730 -4.6215 39.9152
32.0654 20.5674 10.6575
62.0593 -50.6087 -40.0405
55.6399 15.3991 -13.0550
-78.0616 38.0844 -48.2249
45.1020 -22.0990 -3.9905
4.3140 -36.5187 12.2540
8.7247 29.3302 19.7073
20.4029 44.8617 -2.8534
-84.3237 -27.2122 -50.3374
-51.2438 12.7851 -7.1176
0.6732 -0.5146 55.6357
6.0134 8.4758 44.1096
-0.3536 0.3619 56.0479
-30.4773 -56.1139 -20.4511
-4.4637 -18.7612 33.3714
3.2992 4.6155 49.8080
-69.5685 9.8260 -28.1826
58.9797 -34.8384 -26.0591
0.8359 0.9647 55.1175
0.5574 -4.8117 50.8097
-44.4929 -16.0481 -0.4567
8.7690 25.5486 24.0410
47.6222 -12.4470 -2.7793
68.4099 -29.3442 -33.2289
-25.5735 28.0597 10.8139
-81.2681 -21.3148 -44.7959
-76.1631 18.9970 -38.1299
45.9706 23.2539 -5.5511
21.5217 28.8673 13.1785
44.6414 -44.4777 -19.4373
15.1337 35.0492 10.5582
-31.8777 -14.4918 14.3738
4.9765 3.5210 49.2974
73.9998 4.9594 -32.9003
1.1386 0.4361 55.1865
29.6774 -32.0237 3.9361
4.0040 1.1293 51.6352
-74.8192 -5.8271 -33.9629
-49.8291 8.3552 -4.3524
-38.3244 -1.0043 10.3642
-36.1617 -80.2305 -49.6100
10.4561 19.4587 29.9839
-39.5764 11.9746 6.7286
-25.9352 -42.4959 -3.4590
-3.8693 33.7532 15.6331
-17.3127 17.4878 26.9434
-44.7636 2.6960 2.5065
37.1213 -51.6529 -20.1515
-11.2367 3.7004 42.3732
-61.5835 44.4090 -35.0253
76.2425 -19.9051 -38.4940
49.9213 -21.4419 -8.9491
-22.5961 8.0019 27.7124
0.2795 0.0875 56.3052
-45.8017 0.6599 1.3451
55.9917 -41.4345 -27.4539
93.1286 -6.6962 -56.0892
1.7085 2.6976 52.8031
34.8484 31.2291 0.1528
9.0362 68.6366 -26.9387
1.9705 -29.5282 20.9226
-18.0334 -89.4056 -53.4775
4.0805 77.1695 -36.6576
29.1206 78.3933 -44.3256
-45.6698 -78.7033 -53.2215
41.0591 -10.0180 5.6233
21.2947 -18.0834 22.9235
-64.5632 -49.4116 -41.5169
-5.4988 -17.8026 34.1592
-1.1840 -27.7429 23.1273
0.7840 9.0339 45.7090
15.3085 32.5509 13.2220
-61.4393 32.0175 -27.0021
-7.1063 1.6831 47.8403
-20.2275 90.6936 -55.5493
-28.8301 2.4267 21.7218
-0.6636 67.4624 -24.8096
-20.8025 24.1288 18.1884
0.2320 -5.8909 49.5398
41.6823 -17.1324 2.2394
-81.2821 16.2264 -43.4303
-62.8694 -69.2861 -56.3176
77.3265 35.0433 -45.8582
2.8830 -19.8568 32.4294
24.5615 -42.4967 -2.6127
-56.2860 71.5031 -53.2272
11.1872 -21.4676 27.4269
-26.8179 1.3980 24.2308
-3.4189 24.3921 26.9162
-22.8782 -13.9540 24.2990
29.7918 -56.6258 -20.6060
-63.1161 -32.3013 -28.9584
-19.7674 -7.4003 31.1708
-0.1792 -1.1326 55.2743
8.1003 69.1453 -27.4087
-0.0825 60.7135 -16.6559
-13.8640 -0.6605 39.8983
7.8633 -10.0082 41.2895
28.7101 -51.4951 -14.5358
-24.7703 52.5773 -13.5242
-9.7804 -22.6324 26.8864
-1.6710 -0.5119 54.5485
-9.8942 81.6762 -42.6905
-40.0060 27.4520 -1.9304
-46.3598 5.4993 0.2845
-41.4199 64.1736 -35.5738
15.3637 0.4199 38.0995
-58.1072 30.4486 -22.5585
-38.4361 75.3211 -45.4534
-5.6459 -20.0344 31.5239
19.1097 15.0075 27.3175
56.0466 -25.7673 -17.8304
-55.3013 1.5439 -10.1464
-49.3057 -10.4748 -4.2091
64.5606 -34.8742 -31.9486
7.7313 -31.4567 17.5427
4.0266 10.1341 43.4909
-20.5681 9.2565 29.4225
-20.0801 -33.0499 9.9606
-27.2057 -46.5213 -8.4190
-42.3830 -23.4715 -1.8449
-13.3877 -40.9971 4.5800
8.1264 1.2568 46.7292
-91.9445 10.2347 -55.0548
8.1109 37.9613 9.7839
90.5565 22.6060 -56.0487
-46.2149 80.9112 -55.8605
69.1093 -7.4110 -27.2728
-25.8738 67.1050 -30.1888
-84.5860 -37.7982 -55.2175
-66.8006 -33.2203 -33.4307
-23.4078 -20.9300 18.7412
8.8979 0.4107 45.9028
-5.3240 -22.6099 28.6095
76.7071 6.5793 -36.3092
18.5362 -12.1366 29.9043
46.1722 38.2215 -15.7214
-33.5080 29.9836 2.3619
-42.7052 43.9059 -17.3028
5.6382 0.5594 49.8170
47.0380 41.4196 -19.0246
-1.5889 0.1244 54.7343
48.0461 40.0098 -18.8418
31.2632 -86.8082 -54.7575
-2.0370 22.3053 29.6119
-41.0012 -3.9064 6.9235
-6.7121 -84.2865 -45.4438
-59.6500 36.5916 -27.8446
7.6765 5.3743 45.3431
-9.8356 -81.6160 -42.6099
-14.5667 -40.0723 5.1715
-7.3100 53.1830 -8.1663
-47.7467 3.2838 -1.1340
-11.6298 34.2551 12.9751
-48.3774 -6.2434 -2.2439
43.2566 -69.3603 -42.0506
10.2059 -35.1556 12.4539
-57.7635 4.3829 -13.2942
-60.3114 18.4919 -19.5168
37.6048 -16.2923 7.1704
17.3324 -39.7040 4.3449
9.2770 79.6989 -40.2316
33.6679 -62.3257 -28.8819
11.7152 47.5807 -2.5133
-62.9997 62.7486 -50.7140
-51.5317 -1.0018 -5.5802
-83.0221 -40.9613 -55.1328
17.6204 29.3395 15.3315
5.4381 -33.4196 15.7721
-32.9963 9.8755 15.0678
-57.9382 57.5254 -41.9325
-68.3569 -49.2025 -45.0452
75.1298 -25.5875 -39.1817
-7.3049 -53.5602 -8.6166
29.1569 47.8703 -11.0254
84.5746 24.0771 -49.5274
63.9437 4.7319 -20.7677
2.5005 -35.3298 13.8896
81.7303 -39.6309 -53.0257
-2.8799 7.5769 46.8708
-5.0118 24.5137 26.4450
-91.9579 12.6034 -55.4233
40.1839 7.0779 7.3877
4.8963 39.1525 9.0119
-14.0420 14.7486 32.0681
0.3027 0.1402 56.2560
15.8695 -89.4880 -53.0888
38.8209 -1.7395 9.7335
65.1153 37.8181 -34.2708
-19.7998 -37.3981 5.5599
45.5683 21.5225 -4.1962
-16.0357 -17.4505 28.0406
-29.6200 42.0385 -5.4401
-3.9339 -6.9142 47.0529
-10.1954 -7.2418 41.5577
60.3742 -51.0620 -38.8247
-11.4061 -43.0745 2.8514
-1.7507 0.8329 54.3178
-52.5707 1.3839 -6.8450
15.5530 20.4843 25.6010
-26.5705 22.6271 14.5158
-40.3345 -72.2641 -43.2765
21.8823 1.6294 30.1617
53.1250 -58.2547 -38.5456
-3.1942 2.4331 51.8101
2.7760 62.1524 -18.4683
-61.1350 37.4805 -29.9344
49.1604 0.7887 -2.7126
-10.5348 0.8409 43.8971
-56.8170 53.9747 -37.9738
-35.6949 43.9300 -11.6930
-48.6951 -20.8002 -7.2828
-37.3527 -20.7720 5.0482
23.4720 -11.4907 25.1010
-54.1699 73.8385 -53.9262
-16.2078 -58.4608 -16.5985
-2.1313 5.5781 49.4482
-85.8605 1.4561 -47.0372
7.3705 51.0001 -5.5663
-2.7572 -3.2858 51.4793
-49.1672 7.4536 -3.3914
60.9058 39.9577 -31.3032
-35.4654 30.6279 0.0729
86.4288 15.2133 -49.3130
-5.1891 18.1551 33.8577
13.0595 -33.9160 12.7722
25.8658 -36.2167 2.9169
-2.1192 4.6481 50.4903
59.9467 32.7094 -25.8048
22.8287 13.3831 24.7042
-34.5834 -63.5062 -30.6619
-21.8243 24.5720 16.9731
52.2403 -13.9452 -8.6330
-13.4329 7.7999 37.9017
15.4021 39.5833 5.3690
7.2449 32.6895 16.2268
15.8370 -10.0240 34.0260
40.5965 -70.5079 -41.5876
-52.4791 35.7194 -19.9987
-39.7023 79.6581 -50.8180
31.6702 55.0932 -20.0779
-3.6176 -1.9806 51.6785
-51.7626 -66.0741 -44.6976
51.8873 -44.6848 -26.0301
18.3089 -4.6010 33.8625
-66.3542 -15.5189 -25.6297
3.0735 -9.1152 45.0429
-15.8661 -42.9013 1.4240
-56.7678 10.2969 -13.0098
10.3410 0.0062 44.1716
4.4515 -3.2142 50.0287
73.4262 21.9648 -35.8893
-1.8665 -13.9349 39.6814
-0.4009 2.0480 54.1390
-37.2133 -62.7478 -31.4355
-21.2719 31.1505 11.1092
-7.0855 18.1179 33.1670
-18.7337 23.4978 20.3699
54.9926 35.2343 -22.2087
79.2017 27.3658 -44.5295
-7.6263 -10.8996 40.5952
7.6249 -3.9597 46.2839
50.9883 51.0117 -30.4358
13.9520 36.0139 10.0207
-4.0492 20.5035 31.4216
-56.4823 29.5117 -20.2954
-38.3901 -60.0416 -29.3982
16.7831 -5.6166 35.2876
16.5122 -1.9156 36.5858
-21.7675 -24.8874 16.7328
68.2668 34.8234 -35.8828
-29.6630 -67.4225 -32.2887
51.8729 71.3867 -49.8995
-3.7958 43.4545 3.9854
-2.3822 5.6003 49.3098
79.5737 14.2192 -40.9527
7.9434 -7.8482 43.1747
-20.3814 8.1589 30.1485
-36.9304 -22.0947 4.6915
10.0772 0.5631 44.4712
0.4055 1.7323 54.5105
39.5250 18.7228 3.8463
79.5358 1.5805 -39.4038
23.0154 -77.2567 -40.6845
-4.2631 -5.8265 47.9408
-27.6552 -8.7765 21.6224
63.4815 -13.9214 -21.8201
7.5319 13.2339 38.2713
80.6589 -15.6417 -42.5556
19.4166 36.6654 6.5584
-26.5648 -3.3862 24.3209
1.7048 22.6909 29.1811
-8.7458 -21.4924 28.6392
-69.4556 28.8075 -34.1405
-79.2292 -22.1365 -42.6787
-26.2692 5.6247 24.2185
67.0866 -61.0921 -52.9086
84.0662 38.6127 -55.0516
-55.8998 -46.9816 -31.5178
-46.8772 4.6563 -0.2264
-47.9237 65.6811 -41.5226
51.6433 9.9043 -6.8397
2.3859 -21.2031 30.8934
-0.9885 18.5402 34.2388
-1.3000 0.3291 55.0395
22.9215 8.6553 27.0724
-7.6348 -20.9424 29.7416
-8.6057 -36.0723 11.8772
-9.7934 62.7581 -20.0421
-22.0241 22.9264 18.2692
29.2343 -27.0527 8.5611
-1.8087 58.0097 -13.4250
-2.8161 -11.7670 42.0483
-8.1234 36.6211 11.3620
51.4339 50.4016 -30.2998
3.0119 0.7357 52.9149
-1.0024 -5.6764 49.6983
70.2663 -7.5128 -28.6750
1.8723 -1.4157 53.8245
-15.1531 -0.6792 38.3423
2.3907 -2.9098 52.1113
33.4993 53.5231 -19.5886
19.6433 0.9923 32.9083
-30.5181 47.7080 -11.7297
67.7948 -11.5136 -26.3791
-63.2510 -60.9072 -49.3750
-2.5738 -61.4506 -17.6110
57.1917 -7.8237 -13.0464
-41.9044 64.3858 -36.1069
3.7843 -66.0881 -23.2768
21.6908 -15.2707 24.6260
31.3104 16.3142 14.0253
36.5180 22.3734 4.9432
39.5009 22.5765 1.7182
3.0764 -1.1710 52.6840
2.9845 -17.5491 35.1631
-17.9895 2.1713 34.7779
59.0782 14.8511 -16.9007
-33.5426 67.6294 -34.5001
-22.4926 -24.7893 16.2388
16.4956 -39.4058 5.0733
67.4822 -0.3420 -24.8306
-22.6705 -75.0295 -37.9888
3.4647 -20.6345 31.3928
-8.6440 6.4841 43.6105
-30.1933 63.5999 -28.3565
35.5983 -57.3566 -24.8579
91.7125 14.5016 -55.4648
-43.6371 82.3859 -55.9201
42.7778 -31.1724 -7.2578
-39.6450 48.3722 -18.8648
7.7644 -28.5537 20.9268
-42.9607 -55.0505 -27.6641
83.1127 -37.7867 -53.5898
2.0756 -8.2603 46.3740
76.4451 -49.2842 -53.1740
20.8603 -27.2994 15.1709
9.6361 11.0301 38.9725
-0.4360 2.8563 53.1698
-38.6877 2.2167 9.8648
30.4748 -58.9110 -23.4341
61.7382 -55.8874 -43.9022
-7.2366 -65.5280 -22.9507
-30.3575 10.5606 17.8458
78.5940 -34.2514 -46.8685
-10.6035 -5.8051 42.0613
-47.5054 -4.7179 -0.9887
-61.3067 13.0892 -19.0407
14.1730 -88.4358 -51.4948
13.0917 -6.2699 39.1304
58.7005 -25.4540 -20.6024
-34.8847 85.7854 -55.1692
-7.4289 4.1457 46.3858
-22.8676 18.4880 21.1491
-18.3498 55.6950 -14.1521
40.7616 4.7127 7.1092
22.8598 -32.9245 8.2574
47.6550 -31.7577 -12.4945
-17.1921 27.6021 17.3912
-62.8273 -23.1874 -24.2104
-27.4558 0.2252 23.5034
1.2826 19.6170 32.9197
2.3764 -7.3332 47.3503
-21.2557 -36.9442 5.1899
18.2617 11.8418 30.3764
9.4474 -92.2400 -55.3086
5.5829 -9.2274 43.6356
-1.3608 -69.5705 -27.3673
25.9125 23.0394 14.7885
9.3182 -14.6218 35.7217
-4.3009 5.3580 48.3622
-17.9104 77.5726 -39.4785
-0.3305 -3.4986 52.4153
-10.5390 -70.3077 -29.1900
-7.4712 33.7030 14.9727
-47.4368 -5.3656 -0.9889
65.4406 39.1780 -35.4434
-81.7604 -15.5621 -43.8437
16.3602 65.4162 -24.7677
-63.3232 16.6725 -22.4132
20.3037 71.5171 -33.1147
35.2344 -73.7678 -42.0592
1.6961 -1.9407 53.5465
-8.4792 -9.4943 41.2875
-7.1733 -36.6363 11.5785
32.4416 18.6557 11.4684
-17.4211 -14.9425 28.9437
44.7111 3.3622 -56.6589
-17.1552 -30.9259 -56.6589
-7.9356 -66.9374 -56.6589
-13.3170 19.0159 -56.6589
28.6705 62.0384 -56.6589
-6.2124 0.0499 -56.6589
-61.5472 -34.2484 -56.6589
-12.4750 10.9060 -56.6589
-4.7193 3.1728 -56.6589
-44.4341 4.8654 -56.6589
-3.6186 -77.4357 -56.6589
-10.5381 4.8923 -56.6589
-8.8801 2.0693 -56.6589
-3.5811 -0.2672 -56.6589
7.0876 41.4966 -56.6589
41.1285 62.1367 -56.6589
22.6875 3.5947 -56.6589
-28.8968 34.6230 -56.6589
-7.5392 -7.8021 -56.6589
-66.7674 -16.0870 -56.6589
17.3565 17.8365 -56.6589
17.6159 7.4165 -56.6589
-86.1782 2.6358 -56.6589
27.2287 35.1804 -56.6589
-35.3833 -6.6671 -56.6589
-53.7690 47.4649 -56.6589
-4.1680 41.6329 -56.6589
-62.6179 -60.6982 -56.6589
-45.9116 41.0146 -56.6589
-15.6990 -8.8515 -56.6589
-8.7134 -76.3144 -56.6589
26.1950 -31.2922 -56.6589
-0.1844 -1.0000 -56.6589
-41.8206 10.2653 -56.6589
12.8009 24.5816 -56.6589
63.4902 56.8848 -56.6589
23.5782 82.3889 -56.6589
7.0357 7.9406 -56.6589
33.7170 0.1427 -56.6589
55.1376 -30.4086 -56.6589
0.8619 5.3319 -56.6589
19.4199 81.8519 -56.6589
6.4123 0.5989 -56.6589
-8.1122 11.8527 -56.6589
-26.1362 -53.2683 -56.6589
-37.4546 -59.3154 -56.6589
4.5573 -35.9874 -56.6589
8.1386 15.8489 -56.6589
-83.3018 -5.1752 -56.6589
-34.1608 -14.8090 -56.6589
-65.5714 -41.8433 -56.6589
72.5166 -12.2059 -56.6589
-11.4074 -22.7375 -56.6589
59.8740 24.8522 -56.6589
16.1010 -5.1274 -56.6589
35.6779 57.0409 -56.6589
91.0716 17.3499 -56.6589
-28.0832 -53.8858 -56.6589
23.1423 -2.6076 -56.6589
62.0363 -24.6460 -56.6589
-9.6890 65.9938 -56.6589
-16.1129 -49.9279 -56.6589
21.3198 62.2029 -56.6589
4.2104 -37.9699 -56.6589
2.4883 13.3936 -56.6589
-15.6320 -4.7827 -56.6589
-35.8120 -58.8124 -56.6589
-0.2392 -66.7082 -56.6589
-28.6319 -4.2992 -56.6589
84.1342 -14.0323 -56.6589
-0.3866 -1.7557 -56.6589
88.2592 -29.4829 -56.6589
-33.9711 82.5467 -56.6589
39.8950 -2.9127 -56.6589
42.0029 -18.0102 -56.6589
-17.7205 -42.2559 -56.6589
0.9297 14.4978 -56.6589
-80.8392 -8.9732 -56.6589
11.9450 58.2141 -56.6589
45.5565 -34.1610 -56.6589
23.8598 30.9809 -56.6589
32.6736 -8.2444 -56.6589
38.5711 -5.0994 -56.6589
4.6424 -58.1663 -56.6589
16.7438 -8.3200 -56.6589
31.6621 83.0262 -56.6589
-2.7769 -40.0051 -56.6589
46.7679 -8.0191 -56.6589
-2.7931 16.8498 -56.6589
12.0195 -54.8750 -56.6589
7.2824 12.9969 -56.6589
-73.5054 -20.0481 -56.6589
58.4125 38.9971 -56.6589
49.0820 14.8695 -56.6589
3.6870 -5.1100 -56.6589
77.9905 1.1058 -56.6589
-71.8761 -14.2520 -56.6589
-17.4083 70.6483 -56.6589
-16.5304 12.8098 -56.6589
-35.7025 -10.3902 -56.6589
75.4130 -10.0353 -56.6589
0.0650 -22.0319 -56.6589
39.3912 -76.9461 -56.6589
-27.7702 -14.9874 -56.6589
-24.0274 0.9274 -56.6589
76.7878 -10.0494 -56.6589
13.1861 15.0317 -56.6589
25.3060 16.8313 -56.6589
12.1012 3.3279 -56.6589
60.6418 19.5379 -56.6589
1.8068 -9.9928 -56.6589
45.3081 -10.4443 -56.6589
-2.7297 0.5206 -56.6589
-81.7327 11.1857 -56.6589
26.4021 -64.1906 -56.6589
25.9682 -22.2305 -56.6589
2.1620 4.0690 -56.6589
-9.5635 -31.8004 -56.6589
-60.4170 59.0003 -56.6589
19.4542 -52.7111 -56.6589
2.8090 -14.2303 -56.6589
-14.1072 49.1892 -56.6589
-89.8972 19.0614 -56.6589
7.3691 -53.5008 -56.6589
-62.7437 11.0087 -56.6589
2.7696 3.2581 -56.6589
83.5658 -34.6610 -56.6589
32.8003 38.2523 -56.6589
16.3777 46.8542 -56.6589
-38.5986 -42.4797 -56.6589
-39.3505 -17.8976 -56.6589
3.6524 47.7504 -56.6589
-62.5865 20.4699 -56.6589
-85.2164 -13.0256 -56.6589
-3.6962 59.0431 -56.6589
-6.7455 73.6888 -56.6589
-19.1754 -65.6532 -56.6589
9.2251 7.4902 -56.6589
68.1547 11.8227 -56.6589
-2.9586 -17.9207 -56.6589
17.9903 -82.8262 -56.6589
-8.8453 38.0280 -56.6589
25.9170 -15.5095 -56.6589
1.2093 5.7986 -56.6589
-2.0127 -2.9212 -56.6589
-45.5432 19.0242 -56.6589
50.8720 37.6778 -56.6589
38.2724 -20.8026 -56.6589
-63.7474 48.4191 -56.6589
72.1606 -57.0878 -56.6589
-31.8056 -41.2356 -56.6589
7.4242 15.0659 -56.6589
12.6281 24.6052 -56.6589
-63.7285 14.9854 -56.6589
48.8333 -45.3068 -56.6589
31.2422 70.3163 -56.6589
34.8940 1.7982 -56.6589
-62.5182 -3.3028 -56.6589
-44.4905 -49.1108 -56.6589
60.1889 60.7347 -56.6589
-19.3938 57.0946 -56.6589
0.1176 -0.0999 -56.6589
-6.3068 -14.6512 -56.6589
-6.5174 1.4073 -56.6589
4.7575 -31.3453 -56.6589
35.6881 -49.4125 -56.6589
3.6739 -1.9936 -56.6589
-27.0602 71.2483 -56.6589
8.0902 72.5213 -56.6589
21.6785 -69.7771 -56.6589
-23.5053 56.1029 -56.6589
40.7821 -54.8208 -56.6589
22.5966 1.9971 -56.6589
1.4651 2.2793 -56.6589
-6.5564 0.8868 -56.6589
6.6441 16.3506 -56.6589
43.2455 -13.7948 -56.6589
78.7425 40.0397 -56.6589
68.2147 -51.4114 -56.6589
-4.3339 -7.4989 -56.6589
-58.5791 -63.2987 -56.6589
43.4657 47.2287 -56.6589
-62.8667 -1.7218 -56.6589
17.8955 -64.0531 -56.6589
-7.2098 -21.9886 -56.6589
4.9655 -17.9565 -56.6589
-55.9436 -0.8412 -56.6589
-15.0484 47.6316 -56.6589
13.6072 -0.9614 -56.6589
76.2053 -26.3031 -56.6589
5.4678 -1.0939 -56.6589
4.0259 -12.0429 -56.6589
-9.2162 6.7809 -56.6589
-13.7618 -31.9502 -56.6589
-68.8447 3.0210 -56.6589
-0.1864 3.1271 -56.6589
8.2190 36.2979 -56.6589
22.1788 -51.1112 -56.6589
-23.0505 74.7643 -56.6589
-87.3639 31.4201 -56.6589
1.3083 -1.1620 -56.6589
-56.4304 28.3556 -56.6589
-32.0110 1.9279 -56.6589
-33.0460 15.8181 -56.6589
65.9914 35.9079 -56.6589
-68.8681 -31.6741 -56.6589
49.8676 -71.1718 -56.6589
47.6309 -50.2033 -56.6589
16.1612 50.9725 -56.6589
72.5817 32.1905 -56.6589
21.3172 69.6854 -56.6589
28.4140 -39.8302 -56.6589
0.1850 -20.3598 -56.6589
85.7298 11.0630 -56.6589
30.6417 -55.8168 -56.6589
-12.3468 23.0002 -56.6589
-44.7795 6.4118 -56.6589
-80.3151 12.5487 -56.6589
-3.5853 -58.6945 -56.6589
-43.9216 63.1142 -56.6589
75.9550 48.6912 -56.6589
46.7993 67.4162 -56.6589
-73.7875 29.5044 -56.6589
20.6288 -88.9528 -56.6589
-10.4831 -8.1544 -56.6589
-8.2365 -56.6710 -56.6589
13.2836 -16.0348 -56.6589
-17.9949 -81.6879 -56.6589
0.8237 5.6455 -56.6589
38.8078 47.7816 -56.6589
2.5919 11.7795 -56.6589
-35.6063 82.4268 -56.6589
1.3866 6.8605 -56.6589
-47.5747 -19.5532 -56.6589
10.4305 -8.8052 -56.6589
65.3362 53.6662 -56.6589
-4.6954 -11.6848 -56.6589
-3.3081 0.3391 -56.6589
-12.2367 81.5623 -56.6589
-72.4090 27.9404 -56.6589
16.7542 -68.2306 -56.6589
62.5912 64.5735 -56.6589
1.7602 -5.2982 -56.6589
6.5160 8.2763 -56.6589
39.5996 29.8248 -56.6589
34.2178 -22.2633 -56.6589
79.9948 -41.1529 -56.6589
0.8935 -7.8188 -56.6589
-28.2934 68.6977 -56.6589
65.8171 54.1672 -56.6589
-45.6388 16.3313 -56.6589
-61.6364 49.6799 -56.6589
-58.7943 -23.2809 -56.6589
-43.9438 38.8061 -56.6589
-1.9230 8.6233 -56.6589
-5.8436 3.4036 -56.6589
