ply
format ascii 1.0
element vertex 1024
property float x
property float y
property float z
end_header
16.7570 10.0747 23.8213
-43.2625 -7.0245 -47.7089
-17.3351 -28.4842 -16.8165
-35.5173 13.0359 -30.0448
43.5247 18.9069 -58.3894
-35.5889 12.4902 -29.7000
4.4261 -11.1402 46.1120
1.3183 -0.1943 77.5057
0.7719 -3.7580 70.1279
15.3694 -28.9641 -15.1806
-38.9008 4.9586 -34.1154
-1.2203 30.4151 -8.2571
1.0197 23.5459 11.9898
-3.1724 4.7658 64.5632
-1.6262 -15.2979 36.1032
-50.6509 14.2918 -73.6365
9.9539 -43.9255 -51.2745
-28.9535 39.3607 -62.5406
22.6299 -35.6472 -42.9787
0.1417 -1.1072 78.1430
-24.8642 16.1413 -5.9132
18.5271 1.1439 26.7385
12.6250 42.4759 -49.1330
35.7942 7.0133 -26.0399
-9.3021 11.8467 37.0513
-21.7111 -5.9774 15.0807
7.6800 -15.9687 29.2219
-34.5755 19.4739 -35.4911
-11.7484 -26.1195 -2.9551
15.9137 -14.6337 17.7316
48.3140 -21.9107 -74.8786
3.3522 0.9162 71.1926
-2.9275 20.1017 21.5781
-14.7885 -6.4149 33.9352
26.1177 7.6013 1.2841
-0.9815 11.2034 48.2950
8.3512 -22.9762 9.4001
14.6042 -32.9459 -24.7520
47.3599 4.9490 -58.8722
-3.9377 36.5303 -26.8269
6.9552 -21.2130 15.6548
14.7441 -10.6536 27.8348
26.2415 -10.1172 -1.4352
-30.0718 4.3403 -8.0917
12.2764 10.7964 33.2616
-1.8433 1.8859 73.6617
-43.8964 6.9005 -49.4957
-24.8221 26.4884 -25.5281
-1.6115 -17.5560 29.4863
-14.8760 1.0043 37.5004
-20.2918 50.5731 -79.1274
8.1458 6.1158 51.4187
21.0284 -14.4593 6.2384
48.7971 9.3204 -64.9463
-2.6194 31.2550 -10.9827
26.2236 -34.5129 -46.2836
-36.8282 32.5814 -63.4512
5.4391 42.2651 -44.1276
-2.7587 -5.2631 63.9233
35.5721 2.1741 -23.5756
0.1224 24.4779 9.3078
44.4954 -3.7651 -50.1407
-15.3762 25.2779 -5.7455
29.6046 -0.5654 -5.8128
-30.1548 -7.4535 -10.0920
24.3288 4.1560 8.7094
0.6485 1.3477 77.0252
-34.6696 -35.6380 -65.0657
-6.3464 8.7089 49.6809
6.6361 53.3408 -76.9465
23.2865 48.1505 -76.1623
-21.0850 20.0070 -4.2114
22.2344 13.8593 4.2342
-33.3424 14.5922 -25.8067
-13.0909 -18.2760 15.1931
32.7563 22.0448 -34.9050
27.8564 -32.1705 -43.9547
26.0674 0.6370 4.6022
37.9448 8.9841 -33.4622
-15.8684 16.3905 14.2128
-17.7427 -49.8002 -74.3374
52.8391 -8.5818 -76.2968
-9.2428 14.0552 31.8666
45.1407 -23.4759 -68.4851
25.9343 -9.7573 -0.2119
11.0591 41.7377 -45.7905
29.6803 3.1413 -6.5084
-3.1371 0.5442 72.0507
27.6878 -4.5671 -1.2516
-23.0887 -42.6108 -61.3659
33.6844 22.8723 -38.5359
4.6641 19.0106 23.7566
-10.6933 4.8919 46.7841
32.8484 -7.7260 -17.9958
-22.1296 4.1041 15.1161
18.1448 34.1787 -32.5859
18.6527 9.3243 19.9879
-11.0154 -32.4110 -19.4308
5.9913 -5.8011 56.8597
4.1557 2.1851 67.5980
-34.8683 23.3447 -42.2064
-17.5477 33.7557 -30.6644
-12.3733 -16.7481 20.0778
16.9928 11.9902 20.1537
-8.7574 3.5223 53.6198
-33.5929 8.3188 -20.5381
31.1039 -8.2579 -13.3896
-26.2856 -8.4164 0.1090
-7.2716 -10.7134 43.2809
13.4555 -29.6011 -14.3747
38.8270 -4.8689 -33.8664
21.2897 -22.8449 -10.5780
4.4662 12.0122 43.6713
-11.9512 8.4244 38.3489
-1.0988 -6.4622 62.1181
-26.0324 41.7993 -63.6607
-12.2288 -23.8702 2.4067
25.5634 -17.1929 -9.3402
-1.3846 3.5058 70.3258
-53.2084 8.1945 -77.1932
-0.5185 -15.2822 36.3777
-51.7523 4.5341 -71.6386
-23.7382 42.2790 -61.4344
2.5753 1.9377 71.9359
-4.6511 2.4555 65.9351
27.6001 -31.3668 -41.6740
10.7769 5.1150 46.2830
10.5217 6.2944 45.3061
16.4619 47.6049 -66.9839
44.5058 -5.3133 -50.6341
22.1556 0.9970 16.0850
-11.6241 32.1759 -19.3704
3.3274 -18.2390 26.8044
-5.9204 15.7434 31.8730
45.7762 -18.6740 -64.2374
-6.1154 2.1660 62.3164
8.1409 28.5474 -6.0354
28.1764 -47.1674 -80.4542
-8.7973 -5.0411 51.5569
-4.8585 46.1653 -55.3437
-49.6664 -0.4036 -64.9133
15.2841 24.7813 -4.3561
-22.3284 25.6390 -18.7443
36.9875 -38.7305 -76.3657
-28.4960 22.5466 -25.6336
-28.5971 25.6020 -31.6625
23.1106 26.0003 -21.0660
-52.7890 12.3591 -78.3149
-34.5357 12.0026 -26.2965
0.0870 -4.6581 67.7047
2.9007 -54.7124 -80.0027
10.7331 18.3181 18.8758
15.2258 3.9436 35.0893
27.8177 45.8833 -76.6674
-22.0168 -16.8297 -0.2217
31.4608 -19.2199 -27.1959
19.9740 -23.5674 -9.5935
-42.2862 -17.8107 -53.7637
1.6189 46.3471 -55.2116
23.3220 -21.2174 -11.4679
-9.5179 -24.4794 4.0441
21.0302 5.6697 17.2549
9.2203 1.0708 54.0820
20.5271 30.1770 -26.1044
21.2023 -22.5098 -9.6815
-35.6072 -10.6981 -28.1164
40.9119 5.0719 -40.0363
-0.6414 -0.0878 79.5244
12.3021 23.5708 3.0911
-19.0784 -3.1384 24.4625
-26.0523 38.2885 -55.0226
16.2685 -18.3761 9.1178
0.1721 -55.2527 -81.3691
29.1704 3.1203 -5.0081
-8.9565 -12.1161 37.0371
-21.4666 -23.9149 -13.2562
-6.8457 17.8313 25.1539
31.5639 1.6810 -11.7019
-30.0620 26.4515 -36.5521
2.7190 -9.5856 52.0742
3.3429 -1.2606 70.9053
24.4458 -1.7264 9.2238
0.8310 2.2628 74.3294
-3.0665 8.0212 56.1295
26.0004 -42.4232 -65.1750
-40.1436 1.4281 -36.9246
-9.9447 -5.9506 47.2851
8.5241 -8.1800 46.6222
-34.1340 -6.8502 -21.1479
-10.2179 4.0928 48.9999
22.4325 24.6676 -16.8101
6.2240 4.6829 58.4820
25.5407 14.6965 -5.3921
-25.9830 -12.4965 -3.5202
26.2994 -29.0016 -33.9233
-8.2581 -42.2224 -45.3322
12.4075 52.0721 -76.2920
6.0275 30.9735 -11.5425
6.9158 -50.5562 -68.9176
5.1194 5.7970 58.6441
10.4914 1.2862 50.2880
15.2957 -22.4073 1.4939
36.7430 -19.3453 -40.9187
5.2278 -3.7507 62.4742
35.2540 8.7836 -25.6183
-21.4781 26.4446 -18.9481
-1.1754 52.2861 -72.6663
21.8620 3.7336 16.0836
-2.1693 -11.7063 46.3525
41.8958 -21.2252 -56.9505
2.2554 -27.8561 -0.9137
-4.4703 -0.5856 68.1477
-22.9980 27.1322 -23.3671
-4.4437 -11.9897 43.7563
-0.2664 -0.5692 79.5804
-0.9160 15.8614 34.6190
-19.1072 18.7388 2.5773
-12.8514 -30.2965 -15.5350
39.8576 -6.8659 -37.7369
-7.4931 -2.0018 58.5795
-5.1971 -1.2947 65.6509
-20.1066 -11.2977 13.4768
-34.4989 -26.3447 -46.4671
33.1342 13.8714 -24.4070
18.1276 11.8918 17.5524
-6.4193 -19.9546 19.6689
12.4022 25.3671 -1.7662
-12.3428 -12.1198 30.4629
22.0237 -12.1168 7.3671
40.7455 -5.4485 -39.6918
-43.3084 1.0198 -46.2103
-34.7570 -7.4199 -23.2860
32.2248 34.1253 -56.8631
20.7750 9.6253 13.9685
-0.9582 -1.0753 77.1882
38.5943 7.6493 -34.4969
-5.5288 -18.0462 25.8200
-0.4669 0.0114 80.0559
3.3052 5.4240 62.7169
-36.1390 -2.7764 -25.3641
26.1418 1.7346 4.2366
-4.5780 -9.6571 49.9423
22.7216 24.7218 -17.5027
-2.4863 3.5990 68.5431
-10.8310 -22.9700 6.6050
-32.6905 33.9446 -57.4245
-37.2768 2.7780 -28.7075
1.7723 2.8666 71.5018
30.5646 -35.3016 -56.1526
1.0542 28.6621 -3.0770
19.4977 8.1896 19.1207
-43.0440 23.8921 -63.6233
5.6389 0.6113 64.7197
11.9146 -0.5933 46.2825
-23.4506 12.1932 3.5536
-14.8404 -40.8591 -46.6531
-6.0754 -16.8213 28.7349
22.1304 -11.3533 8.1453
-4.7023 29.9577 -7.9182
13.8856 -22.7827 2.8180
-14.8574 -14.4688 20.3265
37.4548 6.6274 -30.6417
-21.1285 17.6330 0.3460
-1.5700 -26.1798 4.1555
44.7367 8.2279 -52.5941
-25.4501 -1.8732 6.2413
-0.7349 -0.1002 79.2467
34.6032 -17.5655 -32.9094
19.1988 20.8629 -2.1071
42.4588 21.2388 -58.4503
47.7183 -26.8764 -79.9359
-1.0250 -0.6406 77.8705
-13.8192 0.8748 40.6326
-0.4849 -1.9375 75.5471
23.6831 13.0084 1.8170
1.4491 8.5244 55.9547
23.8942 10.6167 4.3916
1.0027 25.7211 5.5880
3.2764 -13.2292 41.2749
-27.6984 -5.3767 -1.7039
-9.2806 5.8623 49.0884
-31.9187 -33.9232 -55.8110
-24.1429 1.1629 10.2132
-12.2349 -27.0181 -5.9580
29.2538 -37.6399 -59.0299
-8.5447 16.9872 25.4044
22.8869 -16.0802 -0.9839
16.6791 -45.4656 -61.2607
-2.8446 34.9221 -21.8056
8.4357 -26.8253 -1.4237
6.0146 -32.5953 -16.2302
29.9142 26.5361 -36.3909
-14.6456 -19.2554 10.1503
17.5890 17.4710 8.3853
-0.8150 0.9468 77.7509
-6.1550 -12.3891 40.6711
39.9688 -27.4514 -61.4364
0.9859 -14.1253 39.7110
-7.0990 10.5728 43.9087
-14.0949 -24.9388 -2.9733
6.6100 8.9952 48.5414
-2.5076 2.4942 71.0109
34.6904 2.2390 -20.9948
7.5164 -6.9442 51.2803
-17.8026 -20.9659 0.3905
43.6725 -18.8886 -58.7673
8.2114 -7.9384 47.7796
1.4092 42.4130 -43.6056
-13.5115 28.3313 -11.0526
-0.4814 -11.2151 48.3567
46.8910 10.3398 -60.0498
38.9477 31.3219 -65.8319
6.6393 -5.2046 56.5751
-11.4960 47.4114 -62.3121
-15.4945 -42.9966 -53.2311
-39.1591 -5.7564 -35.1890
-7.9058 -3.9838 55.3474
-27.1677 -38.1741 -56.6232
-6.4765 4.0944 58.8555
28.3045 -5.3987 -3.4697
-1.8484 1.4628 74.4865
20.5331 -26.3373 -16.9669
12.7913 48.2488 -65.6426
2.5332 50.2875 -66.9263
10.6886 -16.4940 23.5206
-5.5168 -4.8311 59.8250
-29.7347 -25.1761 -33.3665
-20.0069 47.4973 -70.4260
-6.0074 -28.6225 -4.7407
20.7168 -42.1353 -56.9132
-18.0601 16.6089 9.1369
15.6754 -20.2976 5.8672
35.3268 -1.5758 -22.7608
-35.3180 35.0930 -65.2677
-0.0705 -2.6176 73.7164
11.9777 11.9777 31.5216
-13.1419 -8.6232 35.1180
-6.5210 -23.1095 10.6816
-31.0172 -1.1611 -10.0231
-1.1411 2.6486 72.9344
-6.3303 -48.9742 -64.0693
50.8173 9.0421 -70.6513
-27.7067 23.4713 -25.5602
1.4625 1.7749 74.6556
-1.8863 0.1137 75.8639
3.6509 11.9979 44.4801
42.6295 -13.5332 -50.3519
12.0495 7.2480 40.0003
-27.4569 -2.7521 0.1259
5.2818 -10.7262 46.2036
-3.1895 -3.0818 68.3639
-1.2374 -0.3809 77.6171
16.6897 -0.6067 32.2238
48.8039 -20.8791 -74.9740
-30.3219 -11.8830 -14.5262
-26.7283 11.7151 -4.5547
-1.0265 0.7128 77.7496
-2.0206 10.3431 50.3803
17.1418 31.0257 -23.0090
7.3207 -30.4317 -10.7921
-27.4326 -25.5874 -29.1003
34.0470 26.7127 -46.0779
-25.7771 -39.2907 -57.0274
30.0539 -34.8513 -54.1647
-10.3601 -5.7599 46.5058
-21.7151 27.1179 -20.9307
-2.0909 -1.8004 73.3022
-38.4890 -11.0885 -36.5871
-7.9845 16.5200 27.3690
-34.3988 -30.5527 -54.1294
39.6623 25.1889 -57.0074
-5.1874 -2.4778 64.4932
46.4728 7.3341 -57.1933
-9.3839 36.5287 -29.6934
-43.2432 -3.9388 -46.5101
19.7583 -18.3250 2.0305
2.5503 -28.1475 -1.8436
36.9998 2.2229 -27.7832
40.2753 -9.0487 -40.1962
2.5100 -4.7437 65.6187
-0.0027 -0.0131 81.3926
-8.0683 -16.3655 27.6699
-16.4048 5.8292 30.1349
-0.1345 -3.3200 71.6417
-30.6548 -8.3639 -12.1931
14.9210 -11.7365 25.4970
-23.0194 8.1899 9.4411
-30.3836 -29.6560 -43.6677
-50.3060 16.7337 -74.7783
-51.1585 16.4079 -76.8679
7.3235 16.8469 27.3059
-22.4495 46.7287 -71.3176
5.2519 25.9872 3.3134
-37.3706 -23.7329 -49.0075
-13.6657 -17.3967 16.2493
41.5422 2.2562 -41.1510
42.3465 32.2901 -75.4762
9.1722 -39.3959 -37.7514
-31.4332 1.2339 -11.2562
-15.3413 1.4874 36.0175
11.4225 11.0095 34.6877
26.2464 -16.2156 -9.4711
3.2354 -3.2472 67.9258
8.2866 44.0587 -50.6617
26.8710 -35.1964 -49.0414
-43.0470 5.1774 -46.3186
-13.3618 17.8822 15.6584
6.4281 7.4644 52.4069
19.8997 39.6438 -49.2674
29.1056 -30.1161 -41.9725
-4.6851 -2.4777 65.8160
-18.2061 -30.8800 -24.1913
-27.6452 26.5072 -31.4177
0.2310 -0.1416 80.6336
-13.0036 3.1381 42.0175
-24.2622 19.9105 -11.0459
33.9394 -28.9427 -49.9937
-34.2953 -6.3771 -21.3500
21.2331 9.9830 12.2995
-5.5431 -1.5839 64.4456
3.9990 14.9219 35.9135
11.0992 -42.8344 -48.9464
10.4547 -24.0023 4.2923
14.6819 17.3060 14.5624
-31.1285 10.2013 -15.0867
0.1015 -8.1062 57.5455
-35.1795 35.1564 -65.1107
-32.7674 4.8549 -16.1702
-49.5450 5.0786 -65.3158
-29.8437 43.0999 -73.0329
-51.5775 5.7815 -71.4912
-26.6544 47.5760 -79.2500
-0.5056 -38.2660 -31.3275
41.2172 5.8678 -41.2375
-6.7921 -3.4183 59.0277
5.2289 -37.8387 -31.1180
13.0408 -26.4496 -5.4587
-15.1790 19.7948 7.9332
-44.0165 14.5776 -55.1888
19.9329 -31.4672 -28.3215
48.3026 -9.9290 -63.8657
-3.0309 -5.1114 63.9225
3.2232 -6.2177 60.7964
-28.9865 28.0403 -37.3978
34.9551 21.4915 -39.4718
0.0906 40.4234 -37.6747
6.1701 -21.0761 16.7255
28.8231 -10.2490 -8.7035
-19.5250 -6.7805 20.5320
14.0243 7.5708 34.4731
2.3292 3.7910 68.3221
14.6499 -0.6198 38.2279
-25.7680 3.3718 4.8602
29.2668 -0.5606 -4.8174
-28.2783 40.1417 -63.2458
-36.8067 -20.1595 -42.2194
8.7113 3.5189 53.7493
6.9170 3.7900 58.1925
-29.2721 11.9407 -11.7171
-20.2787 -4.9014 19.9608
1.1922 2.6737 72.8063
40.3671 2.4616 -37.7294
-0.1772 -4.1946 69.0617
-28.8187 -19.3613 -20.8651
-18.7043 21.3027 -2.0969
-15.2990 32.3757 -24.0764
3.1342 3.2853 68.0535
7.2394 -1.3106 59.7545
24.1991 -3.3656 9.4437
10.6366 3.1420 48.7529
-8.7996 -1.8500 54.9374
27.7639 -35.2208 -50.7111
8.8531 29.1756 -8.4036
-1.5863 -1.1842 75.5991
27.4920 -16.3932 -12.8800
4.7077 10.4755 47.5925
-17.5005 -4.6469 28.0803
-45.2471 -18.7578 -62.8895
-7.8993 -19.5014 19.4368
22.3573 25.1188 -17.6500
-39.5386 -17.4246 -45.8785
-43.1956 -24.2462 -64.5220
4.8688 53.3292 -76.3543
0.5409 1.5662 76.5496
8.3903 -38.4747 -34.5967
-0.0062 0.0330 81.3330
7.9212 24.2983 6.1295
-20.6338 -6.6331 17.5711
14.0115 -11.7072 27.6332
-9.9115 -2.6840 51.1762
5.6914 -3.1301 62.2937
-1.9640 -41.8417 -41.9891
-21.8572 -21.4922 -8.8883
1.0585 -10.0817 51.5632
-21.9069 -10.5255 9.8201
25.3585 33.1958 -41.6518
24.7708 32.0046 -37.8139
33.5703 -42.9467 -79.1812
4.5323 -11.4716 45.0888
-48.8132 -13.3340 -67.6641
-4.8658 -34.5095 -21.2549
-18.9286 31.2154 -26.1320
-7.0709 0.1207 60.5947
4.0099 -9.2649 51.6862
49.4268 14.0346 -69.9598
-29.5203 20.5743 -24.5898
21.1165 17.6468 0.3469
-7.6205 -2.0549 58.1764
0.9186 0.1711 78.6788
-3.8610 41.1715 -40.4108
20.1867 10.7819 14.0002
5.7924 -16.1456 30.8905
-29.5230 23.0222 -28.8789
27.2713 16.7666 -12.8937
16.8354 -4.5952 30.0124
31.4724 44.5785 -79.3533
-8.4248 18.3869 21.8394
2.9382 41.0233 -39.7513
-28.3006 -3.3654 -2.5424
-3.8575 25.5562 5.2785
10.7125 -5.6185 45.7900
0.1636 1.8257 76.0310
41.3667 1.8664 -40.5777
-12.5033 17.3994 18.3010
14.5895 -23.4980 -0.0637
-16.3901 15.9851 13.9739
45.1283 -16.7756 -60.4269
27.8324 0.0664 -0.5757
-9.4057 -31.3902 -15.1210
4.0425 -5.7150 60.8060
-0.7410 1.1346 77.4392
-2.7486 53.2484 -75.6717
14.8844 24.5352 -3.1230
0.7189 -25.3747 6.6362
-20.6852 44.6046 -63.4385
-18.4372 -14.2529 12.7676
24.9128 30.9070 -35.5355
46.6792 -21.5728 -70.0845
-11.1754 12.9901 30.9422
32.8259 10.5249 -20.1383
2.0444 10.8028 49.0369
12.7002 14.8358 23.8892
37.1768 -19.3657 -42.0789
-12.3133 -50.6272 -72.0880
5.7966 18.4051 24.5759
6.7760 8.9578 48.3374
-32.8567 9.4487 -19.3029
-7.6250 31.0996 -12.9161
-27.6271 9.4890 -4.6380
5.7061 -21.5209 15.8302
18.2069 26.3549 -12.9504
-26.8131 -38.4289 -56.6351
-17.6514 19.4057 4.1383
-31.0168 -17.4086 -23.3686
9.4212 6.8465 47.1169
-7.6877 -45.3434 -54.0775
-16.9989 5.5457 28.7471
46.2033 -11.5742 -58.9111
-28.1347 -19.3865 -19.2406
9.0202 13.0589 34.6677
11.2769 -21.3414 10.3112
-31.7052 29.4721 -46.1138
19.9159 -18.8575 0.6187
33.5687 32.2677 -55.7629
11.7135 -19.8044 13.6362
22.8439 -27.3447 -23.5539
-4.3100 6.5914 58.2272
-18.0511 11.5696 18.2581
-48.4875 -4.0502 -61.9324
-14.3725 4.0523 37.4328
-35.9433 -18.3400 -37.4635
5.9865 -8.1928 51.5344
-0.1639 2.3668 74.4416
46.4933 -20.3031 -68.0513
-26.5327 21.4920 -19.1756
1.4800 -2.3775 73.1805
27.8412 -14.9282 -11.6495
-8.2386 -2.5490 56.0218
12.3088 1.2056 44.9910
-17.2476 -3.4435 29.6094
-49.2715 -9.4311 -66.3805
-11.3312 -13.7801 28.8652
-30.6644 34.6614 -54.9266
-29.1039 0.1623 -4.3232
-42.1319 -15.3041 -50.6444
10.9058 6.8841 43.4319
-1.4977 -2.9780 71.6103
-46.2148 -9.1515 -57.3824
-19.5530 -44.9958 -63.1233
15.2779 -25.4299 -5.9791
7.6132 -39.9433 -38.3783
21.2480 -3.1019 18.1619
50.3060 9.7104 -69.5292
-10.8311 32.1523 -18.5345
-5.6880 -45.5408 -53.7950
6.4828 -6.7950 53.7605
2.6644 0.3607 73.5096
-36.0802 -40.7906 -79.0260
-34.2248 31.3697 -55.3616
-14.2901 -40.7394 -45.7757
18.4425 46.7335 -66.6010
6.6879 0.8620 61.5632
43.2624 -6.8263 -47.6164
-33.5389 32.3820 -55.9331
5.8462 -40.0200 -37.7372
0.7155 -27.0742 1.6308
7.3443 25.0889 4.4060
23.7770 -49.3387 -79.9434
-10.3421 -1.9592 50.4174
-1.6670 29.0865 -4.4111
-21.5767 38.1977 -47.8310
38.2323 -26.5827 -55.7718
11.4438 -8.0363 40.2296
-9.3385 0.0214 53.9164
21.6749 6.1575 15.0405
23.8221 -18.3393 -7.1496
-11.2239 10.6895 35.7625
-46.2275 13.6193 -60.5641
-5.7864 -40.2832 -38.4794
-28.4964 3.8664 -3.3010
-26.9528 -2.7820 1.5945
28.2841 19.6349 -20.0189
-37.5291 -2.5096 -29.3931
-17.1063 7.8233 26.0079
-9.5020 -12.9889 34.0132
-42.4310 -11.5818 -48.1632
-34.3206 23.1948 -40.6210
-14.2295 12.5037 25.6182
-20.9959 3.1773 18.8639
-24.0056 -43.1267 -63.9989
24.4273 0.1072 9.4572
-2.6337 1.0511 73.0766
10.4777 8.9604 40.8103
0.6768 23.5192 12.1048
27.6949 -13.6742 -9.5749
-0.5576 -0.5526 79.1189
-12.7545 33.5854 -24.4220
11.2438 12.5931 31.6891
-11.3590 -9.7746 37.2774
1.1137 0.6486 77.6345
-20.8925 15.7612 4.3206
49.1901 -12.7143 -68.2683
29.5202 -6.5901 -7.6893
3.2260 -14.4207 37.8916
8.5491 -12.8219 36.0250
-31.8680 9.5756 -16.6133
-27.4521 -36.6032 -53.3800
-22.4810 -33.9086 -38.4422
-36.1365 -40.9311 -79.4462
2.1460 -1.1217 74.2972
-22.9240 49.0687 -78.1471
21.9817 9.2031 11.2163
0.0456 5.4760 65.2966
32.9955 16.2944 -26.9970
8.7704 46.6748 -58.5005
9.7792 5.9948 47.6346
-11.2114 -35.5840 -28.4960
-2.6884 1.9666 71.6174
-1.0538 8.9439 54.8969
-10.4070 -19.7397 15.6814
-2.7425 44.2104 -49.0829
0.1859 -0.3024 80.3860
-28.1938 8.1280 -5.0234
-7.9131 -8.4165 47.3936
-11.2775 1.1166 48.0408
8.8397 5.0243 51.4730
-16.3740 -2.9735 32.3974
40.1691 26.5999 -60.5227
22.2800 21.4127 -9.6183
-2.8763 -0.8708 72.5771
-5.9363 -10.0892 46.9404
22.7029 -27.8895 -24.5283
20.3449 -4.4804 20.0498
-13.7885 16.4038 18.2917
0.7795 0.6089 78.5174
4.4795 7.0820 56.7413
0.4112 -11.9592 46.1737
-43.3975 -24.9307 -66.0351
-32.4374 26.3222 -41.6528
-10.3864 -23.8434 4.8022
18.4071 3.4798 26.2354
18.9067 -43.2591 -57.6715
7.1038 -24.0623 7.5080
-18.9593 -28.8602 -20.3114
-6.0355 27.0739 -0.2987
-12.1518 -39.1587 -39.3756
32.3558 1.4948 -14.0049
30.3113 -38.5937 -63.1627
8.7838 -17.7599 23.0526
9.9967 -7.1134 45.2812
-25.4771 -38.2282 -53.9287
13.6540 -4.2172 39.3257
40.1022 -9.8923 -40.2698
30.1032 -3.4416 -7.8439
-4.3433 -5.4159 60.9765
-3.6527 -12.7623 42.3184
-43.8596 -1.5607 -47.8806
-10.9044 -49.2006 -67.0538
1.7745 0.9499 75.5015
0.0386 0.0642 81.2112
2.5947 40.6444 -38.5691
-3.4801 -42.9045 -45.3999
13.4839 -35.4782 -30.3987
13.3590 -19.4521 11.9025
3.4631 32.5749 -15.0897
-7.6702 17.9323 23.9647
-4.7276 -5.4471 60.1803
-2.7730 -2.9404 69.5233
-20.0778 -38.6585 -46.9204
19.1089 -30.0717 -23.5490
8.5336 29.4829 -9.0041
3.2507 6.4189 60.2320
30.2371 39.8081 -65.8610
-25.7532 -7.4530 2.4373
20.1490 -4.9562 20.2939
-18.7154 -1.8400 26.0219
-0.3594 0.0004 80.3730
-20.5345 21.9883 -7.2148
9.3746 34.6274 -24.2695
-36.1569 41.6119 -80.9948
18.1033 38.6051 -44.2023
30.0603 -2.9136 -7.5549
4.9816 -1.2267 66.3154
12.6009 9.4788 34.9720
17.6819 -7.3694 24.9889
-7.7775 2.0036 57.7676
36.0266 -31.4501 -59.4765
12.5512 24.8952 -0.7161
-18.9769 19.8164 0.5885
-22.4271 -2.5727 14.9179
17.3265 -34.6376 -32.6831
0.9807 -0.7789 77.7418
10.3806 -15.4930 26.4829
3.5967 -4.5406 64.3645
-43.3681 -5.7971 -47.4874
26.6822 20.8828 -18.4022
2.9295 -1.0021 72.3091
0.7934 19.4566 24.0562
41.6905 34.2718 -77.5860
47.8832 -0.2207 -59.6557
-15.5467 -41.5924 -49.4002
10.1686 31.7913 -16.9150
-15.3156 16.0946 15.9698
34.3702 -25.5182 -44.6993
12.9148 -18.5298 14.8820
-26.2672 11.5315 -3.0932
-15.0500 -1.1455 36.9595
35.8325 -6.4127 -25.8248
-1.7144 -1.2218 75.2290
4.1810 5.9600 59.9808
-0.6583 22.0930 16.3069
-48.0181 -17.5645 -69.2201
-13.4964 -18.7743 13.3039
-15.4404 -12.5386 22.8259
-11.9820 -9.9175 35.6027
-14.1215 -11.8797 27.0584
37.0943 34.7924 -68.4183
-0.0027 2.1832 74.9993
12.0006 14.1750 26.7080
14.1746 13.9730 22.7859
0.8594 -4.8543 66.9064
13.5159 4.1559 39.7677
25.1261 35.4468 -46.5884
-33.7523 27.0431 -46.0023
-26.8965 28.3588 -33.7311
-43.3806 11.7026 -50.9567
5.0858 -2.9591 64.0950
32.8794 20.4294 -32.6239
-11.8011 -25.7982 -81.4320
-48.8902 -18.4530 -81.4320
-32.9093 -21.9043 -81.4320
27.0615 14.4104 -81.4320
-2.3903 9.7292 -81.4320
-18.0121 15.0535 -81.4320
0.3021 26.3121 -81.4320
2.2084 1.8681 -81.4320
-11.3269 -6.1369 -81.4320
-44.7963 18.5895 -81.4320
-25.1504 -14.9963 -81.4320
13.9996 28.3888 -81.4320
19.4726 -25.3481 -81.4320
-44.7101 31.1888 -81.4320
-3.0213 5.8342 -81.4320
2.1565 -0.4202 -81.4320
8.2097 -18.7044 -81.4320
-36.3444 19.8809 -81.4320
7.6339 -1.9176 -81.4320
-30.5513 19.0505 -81.4320
41.7711 -20.6390 -81.4320
-18.8809 38.3743 -81.4320
-1.2348 -52.7679 -81.4320
20.0526 -18.3417 -81.4320
-3.5686 -4.5218 -81.4320
6.7306 -0.9155 -81.4320
23.1435 -32.3843 -81.4320
-43.7768 -9.9420 -81.4320
30.4037 9.6595 -81.4320
-0.2416 -4.8845 -81.4320
8.5258 48.2004 -81.4320
-8.7825 -3.8474 -81.4320
-37.1576 29.4286 -81.4320
-26.9923 0.0328 -81.4320
-35.0843 40.5433 -81.4320
-27.6129 6.3210 -81.4320
-28.2649 25.8295 -81.4320
-48.0983 -25.0638 -81.4320
-16.7242 2.0656 -81.4320
19.6893 -9.9375 -81.4320
-40.8328 24.9336 -81.4320
-54.2432 -10.0972 -81.4320
1.0974 -3.4029 -81.4320
45.9872 -17.7361 -81.4320
-12.4253 4.6014 -81.4320
1.9480 1.6757 -81.4320
10.4657 19.5406 -81.4320
20.2149 10.0739 -81.4320
-27.1984 9.1675 -81.4320
-10.3654 -14.2557 -81.4320
6.3239 -17.2917 -81.4320
-0.9285 12.0677 -81.4320
26.4594 42.3464 -81.4320
-5.2206 -2.5099 -81.4320
0.4098 -0.5827 -81.4320
-15.4333 34.4223 -81.4320
1.4437 16.2373 -81.4320
6.5559 50.0771 -81.4320
-34.8654 -27.3428 -81.4320
6.5118 -13.1993 -81.4320
-37.6868 -26.2579 -81.4320
-23.1860 10.0594 -81.4320
-13.9032 -9.2881 -81.4320
16.6030 -4.4149 -81.4320
-6.5379 -16.0897 -81.4320
9.5688 28.5453 -81.4320
14.5450 13.5900 -81.4320
-6.6946 10.9284 -81.4320
-17.1410 0.6230 -81.4320
28.6429 -32.0664 -81.4320
-5.2692 -14.6682 -81.4320
-14.0185 18.6346 -81.4320
14.6035 -46.5652 -81.4320
38.6484 -39.5163 -81.4320
-3.8032 8.1616 -81.4320
1.8208 1.0635 -81.4320
23.9576 -24.4255 -81.4320
47.4483 10.2611 -81.4320
0.1305 -24.4148 -81.4320
-10.7408 17.4380 -81.4320
10.3835 2.1881 -81.4320
10.9008 -3.7910 -81.4320
-40.9234 -6.3870 -81.4320
-25.3699 -30.7174 -81.4320
-21.2280 -24.7916 -81.4320
29.2439 -14.0214 -81.4320
-31.6800 1.2582 -81.4320
-23.6525 3.5158 -81.4320
-12.7516 -2.4982 -81.4320
-24.6562 15.6415 -81.4320
25.9227 1.1883 -81.4320
28.4424 -3.2971 -81.4320
-5.0595 6.8910 -81.4320
15.9419 14.6951 -81.4320
1.8863 -32.7457 -81.4320
12.4263 -33.9190 -81.4320
-0.2295 1.3880 -81.4320
0.2874 -22.8137 -81.4320
-4.5917 38.3257 -81.4320
21.1956 6.5536 -81.4320
-9.0011 18.7461 -81.4320
4.0257 -33.1620 -81.4320
1.2270 1.4930 -81.4320
-5.5538 -2.7682 -81.4320
17.5229 5.8037 -81.4320
-38.4329 -7.1230 -81.4320
0.9069 6.8010 -81.4320
9.1438 -33.0613 -81.4320
-42.1261 10.0726 -81.4320
-3.5936 7.8031 -81.4320
-34.7764 -7.5487 -81.4320
8.8499 -11.5666 -81.4320
-26.6035 -12.0816 -81.4320
0.6397 -6.4313 -81.4320
14.0647 -13.0193 -81.4320
21.8450 -5.9813 -81.4320
4.0569 3.2097 -81.4320
-10.0815 4.5686 -81.4320
22.5446 -32.5709 -81.4320
16.9061 13.9611 -81.4320
13.9464 52.4755 -81.4320
13.3932 51.2313 -81.4320
-28.0701 -7.7824 -81.4320
-34.3779 18.5429 -81.4320
-27.9258 -14.8285 -81.4320
-19.5908 -3.5939 -81.4320
5.5033 19.0855 -81.4320
1.5723 0.6308 -81.4320
-11.2223 1.9902 -81.4320
31.3412 40.5021 -81.4320
14.7834 -1.7249 -81.4320
12.8684 6.7110 -81.4320
-39.9265 28.1272 -81.4320
47.1970 -7.0565 -81.4320
-8.5428 -19.9048 -81.4320
-43.3405 -9.8341 -81.4320
-9.0392 44.6430 -81.4320
-7.5506 -14.7613 -81.4320
-25.2933 -9.8132 -81.4320
7.0952 3.7685 -81.4320
6.5859 53.8344 -81.4320
-20.5053 6.6272 -81.4320
-4.8353 10.7794 -81.4320
-10.8461 6.6313 -81.4320
1.4832 -1.0666 -81.4320
29.2207 24.6136 -81.4320
46.5508 11.1830 -81.4320
7.1451 -12.4083 -81.4320
36.6074 -36.3623 -81.4320
43.6835 -14.4421 -81.4320
-22.8278 -15.2486 -81.4320
-6.1348 -11.8474 -81.4320
6.9087 39.0282 -81.4320
-28.5378 -16.9468 -81.4320
22.7632 -10.8888 -81.4320
16.9479 18.0206 -81.4320
-1.8638 6.3350 -81.4320
4.4004 -24.9978 -81.4320
9.2669 3.1997 -81.4320
-9.3019 27.8229 -81.4320
0.0736 -0.2036 -81.4320
-12.5949 31.7170 -81.4320
4.2722 0.0472 -81.4320
13.1143 -16.6416 -81.4320
-5.7698 -29.8632 -81.4320
14.2801 -34.6104 -81.4320
7.6809 -32.4080 -81.4320
7.3835 -1.1326 -81.4320
23.8749 -30.7176 -81.4320
-4.2118 -1.7118 -81.4320
-27.8358 5.8618 -81.4320
32.1734 10.3211 -81.4320
3.8077 52.6626 -81.4320
-16.8895 6.2710 -81.4320
-27.4682 11.1023 -81.4320
-17.9141 9.4415 -81.4320
1.2449 -0.9016 -81.4320
9.7958 26.2800 -81.4320
-40.1938 13.0080 -81.4320
-33.7270 32.7430 -81.4320
8.6511 -19.7206 -81.4320
-8.6502 -5.8190 -81.4320
17.1205 21.5618 -81.4320
36.3654 2.6751 -81.4320
0.4760 -3.8703 -81.4320
0.2213 -0.1165 -81.4320
-9.6675 -3.3176 -81.4320
-18.1996 -24.0527 -81.4320
-11.7431 12.8346 -81.4320
19.5584 -20.5612 -81.4320
-41.2769 -18.8824 -81.4320
6.5322 -3.8050 -81.4320
-2.4565 28.3441 -81.4320
-20.2278 36.1436 -81.4320
-3.5256 9.5325 -81.4320
12.0195 -24.6984 -81.4320
-9.3103 13.9831 -81.4320
-30.3520 11.7725 -81.4320
17.4611 32.3128 -81.4320
0.0696 -0.0559 -81.4320
8.7275 34.3775 -81.4320
5.2013 -11.1051 -81.4320
42.1579 1.1342 -81.4320
38.3082 -21.0066 -81.4320
-30.9864 -35.5780 -81.4320
43.1739 12.2080 -81.4320
-2.8819 -15.1093 -81.4320
0.1635 -11.8221 -81.4320
-25.2687 44.7520 -81.4320
-21.2280 46.0449 -81.4320
-22.7790 -14.9210 -81.4320
-0.6179 -49.6256 -81.4320
-35.5561 -12.7484 -81.4320
23.5601 -40.4132 -81.4320
-16.7694 6.0250 -81.4320
8.0578 -11.2056 -81.4320
13.4179 -42.3067 -81.4320
8.3966 29.7444 -81.4320
25.7485 18.5233 -81.4320
-0.1527 15.5776 -81.4320
11.4201 45.2258 -81.4320
22.3374 29.0949 -81.4320
-37.8579 11.5822 -81.4320
-17.1803 -43.6015 -81.4320
5.8207 9.0683 -81.4320
-12.5973 25.9646 -81.4320
4.7582 -44.2873 -81.4320
-0.0601 0.0342 -81.4320
-0.1037 -0.7580 -81.4320
48.4992 14.7034 -81.4320
2.9525 2.0172 -81.4320
-25.1110 45.6120 -81.4320
-8.5772 -12.1863 -81.4320
-10.2944 20.7026 -81.4320
-9.7317 15.2776 -81.4320
-17.1290 -13.0678 -81.4320
-7.7110 0.9708 -81.4320
-2.7729 -35.0853 -81.4320
11.0513 26.1037 -81.4320
12.7362 -3.8931 -81.4320
-11.2602 -53.3277 -81.4320
-2.4629 53.2342 -81.4320
-21.7568 -43.4391 -81.4320
-32.2975 15.0500 -81.4320
-16.7737 28.6697 -81.4320
37.7174 -12.7975 -81.4320
-5.0044 -9.5056 -81.4320
-50.0470 -12.0923 -81.4320
-0.6508 -0.5308 -81.4320
1.9134 24.2417 -81.4320
-19.4661 -18.4353 -81.4320
-25.4180 -46.2667 -81.4320
-6.6628 -3.9157 -81.4320
-38.9870 4.4627 -81.4320
47.9721 13.0815 -81.4320
-45.0459 -14.4262 -81.4320
