ply
format ascii 1.0
element vertex 1024
property float x
property float y
property float z
end_header
1.5987 2.6190 61.2398
10.6922 31.7210 15.9634
27.0373 -5.4250 24.7463
19.4024 -2.6226 36.6548
10.0405 -11.1815 43.4314
-7.8714 33.0118 15.2743
-23.7840 -48.9879 -15.2798
32.9443 -66.2865 -44.4140
-15.7254 65.3306 -34.2507
6.3630 -1.1652 56.1764
81.2975 -24.0731 -60.4436
-29.9561 25.6349 7.0992
-34.0678 78.2984 -61.3401
1.1033 -4.8012 58.4732
68.4503 -12.3720 -37.7692
36.9972 3.9562 10.4037
-26.2975 16.8862 19.2724
-75.9741 -31.9648 -56.9262
25.3141 14.4932 22.3738
10.6848 7.3218 46.5215
-70.0463 -14.5057 -40.7072
-34.0526 18.1074 8.3795
27.1236 -2.8213 25.2024
34.1833 -23.1027 4.3731
-36.8922 -23.8986 0.3550
33.4794 30.6424 -1.7725
-0.0539 -0.1686 65.5453
-59.5158 54.7474 -54.6061
49.7748 -26.1163 -17.8915
-9.6726 -68.4117 -37.0733
8.5871 21.2660 31.6584
-6.4588 84.6843 -60.6572
-2.5070 -13.5847 45.2389
-5.6163 25.3110 27.2026
28.7125 27.1756 6.9407
-21.9374 -37.0103 1.7446
-2.4006 -21.5027 33.5911
-1.8814 -25.4081 27.8711
37.6326 -19.5723 2.6460
15.0366 -4.0807 42.6086
-3.7843 0.3061 60.1553
35.6178 78.0754 -61.9762
-60.0164 -50.6162 -51.0985
-35.4416 -27.9700 -1.4205
47.1244 -5.9794 -4.9248
6.5196 -38.9326 7.0288
-77.7216 13.6799 -51.7021
23.7092 -39.5079 -2.8010
-11.7895 23.4111 26.7776
1.5991 -2.4008 61.5135
76.5469 -5.4349 -48.4609
47.7201 2.1565 -5.3217
24.8663 31.3353 6.2421
-28.9219 -27.2326 6.6558
3.7636 20.9847 34.0628
33.8594 26.4015 1.8746
-57.3603 -62.8204 -60.8627
-15.0793 -0.5285 43.3412
-39.3138 -5.4547 6.7076
29.5988 39.9026 -8.1706
-4.1834 22.5655 31.6350
22.5264 -51.0661 -17.3012
15.8232 3.4639 41.6893
-6.8909 6.3012 51.9047
-48.2983 -45.9809 -33.4899
-9.1508 58.6462 -22.5754
14.9790 2.0817 43.2899
61.5315 9.1702 -26.8271
0.1396 0.1122 65.5422
-2.8701 9.3513 51.2431
-19.1139 0.9212 37.3142
0.0456 -9.5003 51.6622
-60.3239 0.0315 -24.0170
-20.6484 33.8926 6.7125
-48.1192 41.0017 -28.3274
-42.1547 8.1359 1.8797
14.6577 36.9409 6.6297
3.8705 -81.3537 -55.4686
48.4788 -61.3191 -50.5877
12.7311 -18.0342 32.9376
57.6990 42.0809 -40.5309
-64.1386 26.3272 -37.4301
16.5240 -19.9344 27.2534
-1.9602 0.3178 62.8519
54.9124 55.5116 -50.4609
1.0873 69.3127 -37.4144
40.8333 -53.3508 -34.2317
27.6225 35.9686 -1.7220
1.0514 -76.9897 -48.8440
-23.0612 -73.6707 -49.1401
-61.3325 -29.0903 -35.2710
-12.9051 27.4000 20.7098
-64.9836 31.6831 -41.8438
-40.8509 10.3781 3.0473
-17.2142 1.2344 40.1101
-49.4405 20.4875 -13.8814
26.2566 -54.4951 -24.2653
-18.1874 -14.0525 31.5847
1.5668 3.9474 59.4848
-18.3577 77.0047 -52.0690
42.8638 38.5911 -20.0748
-8.4227 -10.7909 45.4253
30.1417 -9.7788 18.6231
-13.5212 51.2882 -13.1717
7.6052 78.9524 -52.3001
10.0022 13.1940 41.1549
-14.5059 2.3372 43.9302
-15.5791 13.2240 35.3802
16.4505 -44.1317 -4.3228
-35.1240 -21.0071 4.8666
-64.8682 -56.1898 -61.9831
-4.5994 -34.5662 13.8841
1.0272 -5.5526 57.4004
-1.8605 7.8362 53.8158
-2.2526 -12.4594 46.9554
6.6679 30.7217 18.9973
-10.6576 -43.9789 -1.5738
2.4090 -8.6720 52.4067
84.5578 1.9006 -60.1344
-1.0282 -0.1737 64.2561
-73.0063 46.4649 -63.0519
62.1521 34.0819 -39.7408
-12.3866 46.3621 -5.6485
16.2012 1.8232 41.5320
-41.6890 -15.1127 -0.2215
87.0442 10.7406 -64.7880
14.2750 -64.9301 -33.1849
-9.8544 21.6317 30.4130
54.4640 -2.2373 -15.3596
-30.2822 -12.8097 16.8485
12.5563 -5.5302 45.3787
-50.5334 -32.1213 -23.3533
-2.3997 64.9519 -30.9744
-37.8955 3.0708 9.1953
4.7340 -1.3070 58.4959
50.6699 25.3266 -18.5418
20.9452 23.7625 18.6417
5.8308 14.9346 41.9355
-28.5903 -48.9263 -18.5721
-50.2910 61.9605 -53.0203
33.1911 30.2739 -1.0855
59.1759 -44.2820 -44.2474
-3.0409 -3.0300 59.4167
-22.2782 34.6224 4.5033
14.8116 -64.0397 -32.0673
2.9656 6.7895 54.7766
-53.2506 -3.4191 -13.6477
-4.6963 -38.5557 7.9729
-40.3807 3.6124 5.4395
8.2187 -5.3345 51.2188
20.2650 -75.5546 -50.6729
-1.3016 10.0493 50.7199
-39.1892 -54.4412 -34.0761
70.0659 -3.1640 -38.6297
67.1945 -52.4382 -61.1097
34.3979 -22.0500 4.9682
-17.1305 1.7134 40.1733
-13.7715 -16.6874 33.5913
20.0584 -16.5648 27.0723
-22.2468 -18.9371 22.3056
-32.5371 31.7294 -1.8641
-54.7958 45.6744 -40.4136
24.0112 -23.1923 16.0997
-40.0474 -71.7047 -56.4876
-34.5168 5.8884 13.6688
-33.3240 -73.8873 -54.8859
-19.2926 -30.0179 12.6747
37.3030 -12.7425 7.1112
75.5033 41.0602 -62.1695
8.4729 -20.2639 33.1032
-9.6133 -35.3966 11.1920
-0.7873 0.2762 64.5665
46.4448 14.9722 -6.8548
-39.9385 -52.2063 -32.0686
0.6838 54.3229 -15.0876
4.3429 16.3956 40.5529
18.2973 -11.1950 33.8680
-3.7443 85.4119 -61.4966
28.0440 24.1366 10.7129
15.1065 -28.5927 17.6556
-37.7811 62.9551 -43.5205
3.9941 -13.3743 45.0246
31.3501 28.2809 2.9389
-2.7580 -1.8147 60.8927
-21.7666 -67.7932 -40.2148
11.8815 23.9547 25.9923
-9.8063 19.6760 33.0729
-5.1793 2.0733 57.5016
8.9709 -11.1874 44.4557
1.3007 -15.1088 43.2278
83.6828 -12.2535 -60.1286
59.4245 26.3569 -30.9908
-55.7308 28.1274 -27.1479
-16.1691 -6.1123 40.0693
18.3470 4.5594 37.6582
-44.6509 71.3445 -59.5176
-8.6727 -24.5241 27.0749
4.9295 -49.7181 -8.5873
-5.8010 -10.4245 48.0446
67.3086 -29.3811 -43.5503
16.7384 50.0767 -12.8135
-0.4790 0.5129 64.7639
38.5258 -19.6522 1.4092
-59.3501 19.1027 -27.0318
36.6752 -24.4457 0.1777
6.2806 28.6920 22.0732
5.7928 1.6641 56.8341
32.1926 1.4433 17.8241
-35.7425 -65.2685 -44.9985
13.7290 10.8058 39.7929
74.8508 38.0102 -59.1959
-37.3367 32.2198 -7.6268
-18.5638 0.7445 38.1441
-13.1413 -33.5485 12.1574
-17.2551 13.2741 33.3918
31.2457 4.3880 18.8256
8.4643 -5.5338 50.7504
20.4516 29.7216 12.0863
19.5161 -3.2900 36.3382
65.6458 45.1086 -52.7949
-23.0455 40.5275 -3.6135
68.6297 -21.7552 -41.3963
-3.8918 1.8908 59.3660
3.9145 -24.7978 28.4263
-20.5509 5.9464 33.9521
-13.5582 3.1218 45.0916
-27.0065 -6.9374 24.2890
17.2955 -8.9591 36.8047
82.8985 -18.7858 -60.7616
0.8139 0.9816 63.9100
-71.6240 27.0871 -48.2156
-22.4708 35.7573 2.9234
-5.7052 20.2546 34.4749
32.0212 -77.5059 -59.0638
47.1699 -32.9347 -19.8565
53.9815 -27.0535 -24.1024
-62.3007 -43.2448 -47.1192
-0.6196 -48.9434 -7.0765
0.9494 -3.5232 60.3754
-1.6569 -47.7427 -5.3256
-2.9231 -2.2040 60.3576
41.0523 25.1454 -5.8763
0.3525 -2.9278 61.4177
44.7006 15.4892 -4.6358
-31.4661 3.4021 18.6809
-2.9978 26.5403 26.0375
53.3449 -22.7585 -20.5518
-11.9149 0.5627 48.0470
-68.5673 -50.7680 -61.2319
-10.2834 50.4622 -10.8767
-28.9118 22.4578 11.2954
63.5932 -51.0090 -55.5837
-42.8141 -15.3358 -1.9103
46.7627 -0.1498 -3.8239
5.0476 0.2624 58.2825
48.6653 -47.5171 -35.4710
-75.3510 15.9758 -48.8873
8.8758 -66.5673 -34.1909
37.1958 -50.3748 -27.4346
-5.0294 1.0867 58.1469
6.1756 36.4806 10.7143
-19.9410 -39.8241 -0.5102
-9.2545 84.3979 -60.6179
12.8045 -0.9751 46.6870
-21.2237 14.3662 27.6461
33.2670 -30.6580 -1.5553
-59.9942 -34.5785 -37.3022
-39.8050 1.7730 6.4781
-0.2860 -12.7343 46.8419
-18.6312 -41.3202 -1.6847
47.9664 14.1845 -8.6735
-52.7437 50.6883 -43.1186
-1.7714 -63.0980 -28.1848
39.2286 36.8662 -14.3517
-18.6508 49.0918 -12.3895
-32.1680 -29.5485 0.7676
4.8122 -36.6719 10.7341
51.2083 36.9889 -28.2552
13.4932 -45.5523 -4.9344
52.5816 61.7219 -54.9281
7.0243 3.2617 54.2767
6.9101 -33.3302 15.1228
19.6003 7.0412 34.7967
-30.0846 49.3372 -20.2381
-14.9613 -12.6977 36.5887
42.8942 -60.0654 -44.0970
-12.7192 -22.4425 27.3968
-27.1294 -8.6930 23.3884
-5.6476 23.0516 30.4686
28.7972 -14.3029 17.9303
27.2768 58.9012 -30.8467
0.1914 10.6121 50.0042
10.2555 85.5023 -62.4215
-42.6222 22.5814 -6.0152
-44.6703 60.7244 -46.4437
-21.1511 -3.6229 33.8550
-37.4750 -10.5307 7.8450
65.2927 -28.4025 -40.2163
-8.9896 33.7680 13.7750
52.6106 -3.9284 -12.7494
-35.9594 -9.3578 10.4799
-24.0016 21.0773 18.2444
86.6221 -5.5639 -63.4423
22.4157 -18.8436 22.2034
64.9871 -17.9005 -34.5646
23.1357 22.5836 17.6664
-2.5100 0.6927 61.9316
-38.7837 -66.6415 -49.0058
-9.8343 -9.3397 45.6134
40.2231 53.0579 -33.3342
-27.2300 -59.5308 -31.6692
6.6875 50.2857 -9.7287
-5.0162 -9.2072 50.1961
24.7344 5.1914 28.1753
-67.3444 -38.3543 -49.5938
36.6767 10.1950 9.1244
19.6837 18.7088 25.3715
-28.6163 48.8303 -18.4683
12.6312 5.4830 45.3046
-2.8332 -15.4861 42.3664
19.3104 -10.9925 32.7220
-29.4661 -0.8469 21.9140
-40.0741 26.2330 -5.5122
-68.1188 17.9527 -39.0875
45.3671 39.7901 -24.0472
43.6791 21.4792 -6.6705
-0.1638 -0.7410 64.6787
-73.2278 35.5831 -55.4235
38.8710 -25.4670 -3.3886
29.2463 -4.3777 21.7743
-4.2594 -12.4720 46.1842
1.3571 0.0835 63.7842
-9.2626 -65.8667 -33.2355
12.8677 -9.4458 42.0398
4.9382 -1.9167 57.9211
6.3989 -18.6385 36.4649
18.0140 -66.5639 -36.8741
0.7081 -1.8327 62.8833
-0.4981 -1.2244 63.8405
-69.6654 -4.6710 -38.1598
49.3801 -0.3146 -7.7225
-10.7603 37.3141 7.9818
54.7891 -21.5331 -21.8501
10.8510 23.4826 27.2891
-3.2055 -41.1392 4.3646
45.1804 -5.9705 -2.0523
-8.9698 -8.4721 47.4364
-21.0215 -39.1949 -0.4189
21.7748 -5.9432 32.1989
23.6077 -38.1968 -1.0550
-14.9597 26.6168 20.3439
-12.3177 1.1195 47.3914
12.6230 13.3165 38.4868
-22.3525 -49.5575 -15.1442
0.7897 -2.3248 62.1528
-12.0272 4.2306 46.8239
-74.3495 -21.3549 -49.3780
25.7662 -42.3019 -7.9462
-61.2168 41.2188 -44.0841
-22.6832 17.1658 23.4507
7.2508 -10.7302 46.5251
-7.8820 -13.7235 42.2430
-45.9934 -54.2772 -40.1281
-0.4052 -0.7231 64.5745
15.3437 -68.2120 -38.3007
51.6705 69.4738 -63.1168
-1.8828 -56.6884 -18.6500
-18.0213 -64.2176 -33.5089
-79.2757 29.6686 -60.2333
-55.2684 37.8137 -33.9077
18.7659 -13.1521 31.6858
26.4504 18.0950 18.0880
-1.7887 -0.9449 62.7966
0.9995 2.2222 62.1806
-51.0019 -59.1301 -50.4670
25.5534 -22.9269 14.6879
51.9694 -15.4980 -14.9444
-48.3273 59.9899 -48.8999
-20.4974 37.7765 1.8104
-19.2336 3.9553 36.5695
-19.6756 44.9381 -7.2395
42.8444 12.0885 -0.4798
-35.2477 -8.1035 11.9538
48.9190 -5.2408 -7.4513
1.7603 -4.6694 58.3781
1.2526 68.0809 -35.5847
-60.9198 39.7334 -42.4936
-15.8063 60.6769 -27.5579
5.4081 -79.8504 -53.3654
-50.3960 4.5060 -9.5331
-30.9090 28.0017 3.7050
62.3052 -15.4644 -29.7822
38.4620 -2.2400 8.4396
4.3617 25.5632 27.1937
44.5491 -70.5662 -58.4557
-16.8613 -15.8019 31.3989
22.3791 40.5642 -3.1762
29.8029 27.3127 5.6134
5.9999 6.7855 52.3215
25.0437 82.2324 -62.1927
6.8855 72.9513 -43.3026
0.9773 -1.1179 63.5977
16.0835 -17.2167 30.7260
-0.4776 31.7910 18.4649
9.3953 -25.1174 25.8767
-48.4260 -59.4413 -48.3578
81.4993 -28.5124 -62.7607
-7.7979 29.0878 20.9660
1.4112 -41.6728 3.7200
-40.3869 36.1367 -14.8888
-45.4464 -2.3230 -1.9519
-25.8693 -6.7518 25.9975
5.4898 -20.1068 34.7727
77.2077 -15.8943 -51.5687
-85.0401 -2.6213 -60.8810
-35.4338 -42.8930 -17.0364
-27.6238 6.9747 23.3845
-73.1176 -0.2085 -43.0680
-2.5276 -7.8453 53.5355
-36.7365 16.4675 5.8615
-33.1328 -7.6068 15.1886
-46.2706 -25.6032 -12.9353
4.7032 -73.0234 -43.1526
56.4031 -59.0990 -55.8391
9.4845 9.7615 45.5421
-2.8763 73.6748 -43.9807
55.7829 -15.5333 -20.4154
-13.6117 -7.9753 42.3174
3.5847 75.7189 -47.0673
-14.2944 53.8624 -17.1718
-35.7663 25.4113 0.4774
48.4004 -7.0030 -7.0126
-34.7739 22.1448 4.4203
0.2774 7.9125 54.0195
-33.7315 -20.4527 7.0688
-61.0326 58.0847 -59.6509
-48.6804 54.7373 -43.2686
0.0017 -0.0040 65.8024
-6.0340 -39.4044 6.4494
-1.6788 4.1091 59.1992
4.8016 44.3821 -0.6643
-21.4604 -56.7497 -24.5351
41.8262 14.1250 0.0716
47.3795 47.2979 -33.8793
-1.3282 -10.2803 50.3736
-22.8345 22.3120 18.2699
-38.0259 60.4844 -40.5763
-20.5714 -82.1978 -60.3633
60.0339 31.6524 -35.2492
59.5888 5.3017 -23.2728
-42.3496 -59.3269 -42.7308
-17.7742 -26.1788 18.6912
-11.2107 50.7529 -11.5869
4.6747 -2.6527 57.8053
5.3585 21.0815 33.4190
32.2881 18.0591 10.7207
-0.4157 8.5673 53.0367
-6.8060 -13.8884 42.7785
27.2090 37.3176 -2.9613
25.6563 7.9624 25.8076
-18.6813 -13.7257 31.2901
45.9755 55.6962 -41.7317
-36.6132 10.2644 9.1878
1.9131 33.0579 16.5014
-0.4841 45.7284 -2.2872
-35.6900 -36.9136 -10.6480
24.9598 -7.0601 27.1840
-69.4267 -33.5512 -49.0105
-48.9375 21.6374 -13.8670
-11.1538 15.4294 37.4591
-23.0189 10.2577 28.2832
50.8180 -37.7932 -28.4944
21.7880 -16.4615 25.1464
-6.5881 -9.8145 48.2072
27.3398 -23.3746 12.2475
2.5999 1.8117 61.0902
50.6956 -54.8073 -45.3618
-53.1612 -23.9352 -21.0047
45.1447 -32.6665 -17.1672
26.7872 -25.3529 10.8886
-30.9718 -53.6843 -26.4798
29.8111 -24.4514 8.3966
-22.8749 -4.9349 30.9631
-36.1335 -14.8656 7.6285
-41.0757 30.1975 -10.1054
25.6859 13.1063 22.8697
50.4678 60.4068 -51.4018
-4.7378 1.2270 58.5213
30.2427 67.4793 -44.3018
-13.1410 52.1800 -14.3163
31.3758 14.6618 14.2390
33.1664 44.5805 -16.9302
-32.4028 -19.1970 9.7272
4.6596 2.8644 57.6643
21.0093 -44.4753 -7.4346
61.0996 -54.2514 -55.8606
16.3337 69.2095 -40.0793
48.2723 -21.0347 -12.5993
0.7743 -24.8114 28.8453
8.9142 -56.5532 -19.4419
-34.9755 77.9511 -61.4133
-64.5639 -21.9831 -35.7506
30.0812 -23.4928 8.9746
-55.2364 -48.3878 -43.5375
-0.5958 24.3485 29.5416
2.2442 -3.0386 60.1839
9.5028 -24.7106 26.3862
-45.9733 -26.7030 -13.3580
-0.2682 -0.1250 65.3683
-10.8608 -47.6136 -6.9117
25.4388 -38.9686 -3.4874
25.6463 -38.8977 -3.5685
0.7820 5.8508 57.0191
34.4497 -42.5344 -15.6952
-56.2600 -27.9652 -27.7443
20.5690 -68.8324 -41.1650
21.7774 -24.0140 17.5365
-6.1712 21.0431 33.1548
35.5752 -22.2054 3.3628
-48.3554 -73.8319 -65.6118
-45.2785 -0.1686 -1.6139
-0.1512 -69.6379 -37.8863
-14.5871 34.7390 9.7052
-43.7272 62.7404 -48.0668
2.7211 -31.5828 18.6060
-7.5418 -26.3857 24.9455
21.3958 49.9540 -15.1114
-31.3964 18.5420 11.5136
-8.1084 -27.1692 23.5891
-6.2158 -6.8201 52.0683
-3.3908 2.1163 59.8570
0.9016 50.5273 -9.4412
35.1726 -3.1691 13.2226
-8.5277 15.8514 39.0063
34.7799 6.6129 13.0917
-49.3635 38.5471 -27.4522
-34.2916 26.7091 1.0855
-74.0601 24.6633 -50.4252
-67.2811 43.7573 -53.7009
72.3315 -29.3542 -50.4284
-12.7953 -23.0411 26.5640
41.1464 12.4631 1.7905
9.5703 -5.9667 49.0153
29.6835 -35.1889 -2.7424
-27.8447 59.9045 -32.5577
4.5325 -1.3279 58.7760
-14.1810 -3.7834 43.9539
-4.6937 78.5153 -51.3138
48.8772 -45.1894 -33.3121
20.8336 -38.6398 0.4415
-3.2959 -2.0315 60.0437
-8.9191 -18.9712 34.5934
22.0921 61.4293 -31.3985
44.8854 -70.9616 -59.2211
52.8266 -25.6014 -21.6039
-23.0493 0.9391 31.4586
-6.3771 -12.3666 45.0900
-5.7379 22.6542 31.0103
-72.2894 19.0674 -45.5157
-8.8310 -2.3732 52.1924
-60.0783 57.6393 -58.1654
-68.0018 27.8608 -43.6189
57.0128 -2.7218 -19.1832
-64.2902 -45.0558 -51.0918
80.0800 -12.3585 -54.8465
54.9011 6.7238 -16.5528
38.5320 59.9580 -40.3190
38.0620 -70.7105 -53.7681
52.3704 11.0034 -13.8764
-79.8559 6.8326 -53.5356
10.6614 -32.5428 14.8164
7.6678 -8.6635 48.5813
-13.4103 -64.7365 -32.6341
-23.7366 2.8238 30.2144
10.1419 -7.2704 47.2274
4.9573 6.0543 54.1570
9.0757 4.0573 51.0055
45.6346 47.8350 -32.6348
37.5553 -32.2718 -7.9239
-37.6622 55.7782 -34.4087
-11.0343 27.8734 21.1698
7.4358 23.6016 28.9618
-29.3637 59.2627 -32.6752
-28.3033 -58.5595 -31.0405
-1.2595 66.9152 -33.8494
83.2007 14.3043 -59.8995
-5.9636 -7.7934 51.1962
-39.4048 17.5135 1.5984
2.2867 4.7446 57.9661
-38.2234 -50.5035 -28.5043
-0.7850 5.4787 57.5675
14.6720 71.1858 -42.4190
-52.6830 -20.1393 -18.1757
-7.9525 29.2906 20.6144
-3.0253 24.6221 28.8694
-3.9703 1.5878 59.4416
-62.1612 47.3720 -50.5676
-4.9728 -6.4237 53.7124
1.9150 1.2005 62.4434
-29.1263 27.0178 6.6518
17.3743 76.5491 -51.0764
-22.1789 20.4541 20.8829
-32.2156 44.1285 -15.5484
-44.8502 62.7213 -49.0080
23.6302 35.2463 2.6215
86.5959 0.2754 -63.1382
14.6263 24.6004 23.1919
35.0784 10.1716 11.4234
22.4693 -29.1413 11.0147
-4.7476 -0.4202 58.7118
-28.0881 12.3361 20.1280
3.6031 -2.0473 59.6380
-31.5911 56.0000 -29.9319
9.2475 -7.1715 48.3832
-31.0728 9.9227 17.2377
18.8522 -2.7733 37.4348
-12.7793 0.0169 46.7797
37.9687 30.5339 -6.7427
-44.4967 70.2551 -58.0226
75.9957 -17.9940 -50.4820
27.5974 15.2307 18.8718
1.3052 -3.3157 60.5028
69.5492 -30.2237 -47.1100
25.7259 -29.6176 7.3926
19.8484 69.8222 -42.2797
-57.5514 10.7010 -21.3573
30.1140 -57.4929 -30.8341
-1.8937 -56.3585 -18.1596
-13.2790 -10.7761 40.3439
65.1285 47.4193 -54.1534
1.5508 10.7825 49.5879
-24.3536 43.5051 -8.4322
-16.0564 37.9206 4.4897
77.7959 -4.9736 -50.2702
8.1725 -45.2728 -2.6946
-15.4963 -58.7968 -24.7328
69.6721 36.8235 -51.5359
1.5585 0.8342 63.1766
1.2482 3.1742 60.7300
-13.3663 21.8880 27.6197
76.3883 -28.2095 -55.4461
0.4333 -10.7552 49.7808
73.9246 5.3918 -44.5616
-0.5335 -7.5229 54.5787
-34.8662 35.1373 -7.9001
43.5662 -67.5577 -53.8919
-13.3233 69.7389 -39.9146
-55.1367 63.5722 -59.4977
-4.8030 19.3307 36.1491
65.2510 -50.1884 -56.7704
20.4795 -53.1767 -19.0435
-4.4004 -38.1511 8.6230
-45.5325 -36.6500 -21.2270
5.7407 -8.4131 50.6426
-23.5299 -22.4096 17.4237
-63.8625 31.5446 -40.2543
57.1869 -8.1853 -20.2137
56.3867 -5.7228 -18.5856
-38.1277 24.1589 -1.4032
22.7135 82.2644 -61.2710
-24.2704 74.8279 -51.3287
4.9391 -37.9080 8.8845
-3.3605 -26.6578 25.7997
-0.7798 17.1084 40.3070
3.2114 17.0168 40.0226
-0.7283 61.8268 -26.2613
11.4533 -17.2659 34.9567
-12.7808 -36.0134 8.9059
-11.8375 -74.8936 -47.0965
-38.4927 10.1352 6.5375
-21.2198 5.7238 33.0820
-0.1822 1.4179 63.6802
39.8701 38.6731 -16.9007
76.1440 1.4265 -47.5939
9.1618 83.8146 -59.7394
-52.8344 14.8328 -15.9062
25.1418 -29.1144 8.5282
2.3808 5.8147 56.4528
54.6891 -65.3061 -61.0305
-42.2384 -10.7462 0.9098
-4.0152 14.9527 42.7547
-9.5904 69.1211 -38.1025
5.2437 -0.3000 57.9879
-5.7233 11.4623 46.7314
23.2032 -0.4755 31.2506
68.8538 27.7879 -44.7533
9.3323 -18.2496 35.2872
-16.9726 6.9027 38.5255
28.9705 -68.0353 -44.3019
30.2791 14.3985 15.8834
32.8718 67.8790 -46.4953
15.8472 -0.7531 42.1848
14.4041 15.7028 34.0791
40.1467 -65.8206 -48.9947
28.5000 -14.6419 18.0978
-8.1623 -17.2120 37.4433
46.5251 59.4332 -46.5819
-14.5985 49.2956 -10.7464
-66.7833 3.0801 -33.7411
-15.6648 -12.4659 35.9985
-17.7048 5.0658 38.3874
-78.0785 30.9457 -59.2532
-7.0094 10.3435 47.2034
37.5226 20.8008 1.9246
-1.6118 2.1099 61.8553
-30.2103 -12.5971 17.0699
29.9996 -1.4083 21.0885
59.4695 6.3170 -23.2429
-11.1329 -2.4425 48.8370
22.8113 15.2713 24.9325
-27.6433 73.9829 -51.7950
28.7641 -6.4312 21.9199
-13.2782 -18.6155 31.7602
8.9623 64.2804 -30.8343
-58.5811 30.7166 -32.6860
36.2120 -24.2104 0.9458
-10.4814 41.4179 2.1909
11.6504 30.0915 17.7598
59.4002 10.9205 -24.1239
-6.6595 4.2806 54.0206
-47.6882 -65.4575 -54.7850
22.8551 -8.7070 29.3903
25.3182 83.4832 -64.0935
1.5685 -26.8382 25.7771
-19.1486 46.1996 -8.6600
26.7725 -17.2877 18.3541
80.1926 -13.6138 -55.3110
35.9533 -1.1933 12.2429
12.7213 10.7834 40.9762
76.6930 -12.8875 -49.9926
59.5463 -10.4112 -24.2041
-4.9924 3.2375 56.9486
-10.9621 -21.7862 29.4928
-6.0970 -19.3047 35.6635
6.4086 -14.8048 41.7868
-9.9425 -1.0537 50.9210
-26.3557 -2.8993 26.3269
11.2794 -21.8804 29.1533
-0.4799 2.8487 61.5072
32.5809 33.3573 -3.6237
66.1211 -34.1658 -45.0164
-14.2358 42.2383 -0.5626
-1.3716 -3.8870 59.6711
10.2601 -10.5157 43.9319
-32.7198 5.9055 16.2999
-30.1125 23.3676 9.0523
-79.1285 -12.6085 -53.5045
-6.9848 18.6923 36.0951
25.3119 18.2337 19.3569
-48.9420 42.7936 -30.9984
-64.9750 10.6052 -32.2229
-63.4602 -3.6272 -28.8414
-28.6168 -50.4397 -20.5448
-82.3752 -26.2658 -62.9372
58.2092 -45.4605 -44.1697
-56.1197 -8.3995 -18.6874
16.9736 -2.7084 40.2145
20.8969 -10.2171 31.1719
66.3338 29.8656 -42.5157
-9.5876 -61.3430 -26.6434
-18.5067 -42.0008 -2.5349
6.4596 -36.8357 10.1214
-3.5049 -76.2239 -47.8129
6.8598 5.7662 52.4648
-39.8336 -78.5544 -65.3425
22.7293 26.9332 13.3310
37.4207 -4.0659 9.7593
39.8618 -15.6207 2.0576
1.9471 -0.7642 -65.8088
-32.3846 24.3464 -65.8088
-3.4460 70.7077 -65.8088
82.7271 -19.0614 -65.8088
73.1455 44.9759 -65.8088
-7.3216 -21.0648 -65.8088
2.6245 3.5990 -65.8088
21.3749 71.4351 -65.8088
37.6591 -19.7224 -65.8088
-45.6799 -4.4209 -65.8088
-27.2489 -25.4913 -65.8088
-13.6222 22.7612 -65.8088
28.7563 51.1980 -65.8088
39.9181 0.9765 -65.8088
-34.3958 0.0682 -65.8088
0.1703 3.5608 -65.8088
-45.0108 0.2954 -65.8088
37.8533 -66.7060 -65.8088
21.4291 -33.4286 -65.8088
-77.5543 -40.7240 -65.8088
20.5632 34.5992 -65.8088
12.7440 3.8416 -65.8088
-59.5282 -58.7447 -65.8088
8.2708 -17.9614 -65.8088
5.0162 18.8176 -65.8088
-9.6628 -57.5101 -65.8088
-27.4698 -31.6616 -65.8088
-36.7292 1.9315 -65.8088
21.0006 5.3971 -65.8088
51.1010 -61.9906 -65.8088
-71.5701 23.3973 -65.8088
-4.0816 -51.1220 -65.8088
-73.8238 -37.2754 -65.8088
-19.5755 -13.5357 -65.8088
24.0325 68.5249 -65.8088
10.2619 1.6193 -65.8088
-35.0953 -38.3864 -65.8088
-6.0018 29.4223 -65.8088
-81.4668 -25.3088 -65.8088
-5.2782 24.3740 -65.8088
54.5856 41.7040 -65.8088
-76.1905 -25.6141 -65.8088
7.4958 -4.4676 -65.8088
-35.0870 -25.2322 -65.8088
-3.6675 -1.8835 -65.8088
74.6723 0.7454 -65.8088
7.5173 -56.6830 -65.8088
3.4300 -29.0158 -65.8088
7.1588 0.0274 -65.8088
-23.5400 -62.5903 -65.8088
17.0497 40.7868 -65.8088
-3.0341 53.2924 -65.8088
67.1605 -21.1048 -65.8088
-3.4199 -0.7924 -65.8088
-23.4057 12.5970 -65.8088
-1.1224 -1.0310 -65.8088
12.3069 5.8666 -65.8088
-5.0625 81.1436 -65.8088
-45.0710 70.3130 -65.8088
-5.4658 11.3935 -65.8088
49.2075 64.3169 -65.8088
-2.5739 -3.0267 -65.8088
60.0846 51.3634 -65.8088
-18.2377 -77.2124 -65.8088
75.8567 43.7650 -65.8088
-58.5756 -30.5656 -65.8088
9.6962 -26.3287 -65.8088
44.0483 61.1720 -65.8088
-52.0794 5.6785 -65.8088
-21.3864 1.3752 -65.8088
6.6462 10.7232 -65.8088
-56.6636 29.9877 -65.8088
-17.9217 -8.4368 -65.8088
2.4063 27.1488 -65.8088
81.4180 3.6940 -65.8088
42.8418 -47.6330 -65.8088
57.1539 15.6568 -65.8088
-48.7629 -15.2840 -65.8088
-37.2104 44.9976 -65.8088
-0.5272 -85.8185 -65.8088
76.0745 1.0651 -65.8088
6.2543 -32.3254 -65.8088
68.6286 -14.7483 -65.8088
0.8233 8.2548 -65.8088
61.3310 -15.4249 -65.8088
-7.9311 10.7061 -65.8088
-0.0183 -2.4950 -65.8088
9.1209 41.2450 -65.8088
-21.5809 5.3881 -65.8088
20.6609 26.3898 -65.8088
-31.1048 -76.5167 -65.8088
3.9176 6.6431 -65.8088
53.0824 19.1621 -65.8088
1.8428 -8.5904 -65.8088
73.3783 15.2828 -65.8088
13.9557 30.8316 -65.8088
24.4257 -75.8969 -65.8088
62.3212 0.4895 -65.8088
-22.0924 3.9810 -65.8088
73.0550 39.5389 -65.8088
-30.0597 -14.2064 -65.8088
-58.1787 3.8008 -65.8088
-30.3421 -78.7257 -65.8088
13.1763 -7.3524 -65.8088
38.3434 -16.3870 -65.8088
45.0734 -40.4388 -65.8088
-27.9997 13.0175 -65.8088
46.4390 30.0789 -65.8088
44.5509 -34.6830 -65.8088
-50.3411 66.0308 -65.8088
11.7435 -4.0528 -65.8088
-30.0265 -54.8797 -65.8088
-7.9973 -45.8592 -65.8088
-1.0776 -9.6073 -65.8088
6.7696 -10.7968 -65.8088
26.3253 25.3176 -65.8088
-35.1439 -0.9157 -65.8088
-73.9141 -21.1293 -65.8088
3.9586 4.8055 -65.8088
26.6755 1.2268 -65.8088
62.9127 -36.3763 -65.8088
8.8279 -26.2466 -65.8088
13.7597 -23.4590 -65.8088
15.7101 60.2419 -65.8088
0.3965 -23.5640 -65.8088
78.6559 -36.3444 -65.8088
45.7312 -40.6721 -65.8088
-7.2472 -63.2883 -65.8088
-7.6690 -19.1069 -65.8088
28.1522 37.5474 -65.8088
-12.4162 -0.7890 -65.8088
8.5402 -10.6218 -65.8088
41.2858 10.3111 -65.8088
6.4195 -13.9012 -65.8088
66.7702 -34.9028 -65.8088
42.4353 20.2836 -65.8088
13.1385 -24.1102 -65.8088
14.5481 20.9086 -65.8088
-11.8706 17.0242 -65.8088
72.0337 -32.1237 -65.8088
13.7814 70.8689 -65.8088
49.6371 -41.8428 -65.8088
32.0145 -3.7462 -65.8088
-38.3230 -51.1382 -65.8088
47.9074 51.7663 -65.8088
67.3857 -2.0291 -65.8088
6.5740 -65.6877 -65.8088
-23.9701 -9.4042 -65.8088
-38.0936 -16.9294 -65.8088
76.4155 12.0640 -65.8088
34.3449 41.8177 -65.8088
-31.0418 52.8472 -65.8088
-40.2407 23.1851 -65.8088
-60.0910 44.2673 -65.8088
16.5952 -61.2699 -65.8088
-1.0876 -1.5666 -65.8088
18.8199 -18.1807 -65.8088
-17.1189 75.7371 -65.8088
-12.8127 80.5773 -65.8088
-17.5414 27.9504 -65.8088
-36.5862 31.4953 -65.8088
-8.9202 -4.6273 -65.8088
4.6692 -46.5948 -65.8088
2.2927 -73.4928 -65.8088
28.4498 43.7479 -65.8088
-52.9725 -23.5038 -65.8088
-54.1473 -58.0194 -65.8088
-10.9863 -0.6919 -65.8088
72.1782 -24.7086 -65.8088
21.2163 22.1159 -65.8088
22.3404 78.9994 -65.8088
-42.3343 20.5059 -65.8088
5.2384 49.0451 -65.8088
-37.6031 -18.6650 -65.8088
1.1733 0.4302 -65.8088
-16.0599 80.9946 -65.8088
10.9153 73.5995 -65.8088
-26.4967 25.8377 -65.8088
-56.7724 6.7404 -65.8088
-8.6489 -17.9249 -65.8088
-23.7846 -17.2163 -65.8088
-27.6354 -61.6939 -65.8088
-3.3223 -7.6270 -65.8088
4.9589 1.5889 -65.8088
25.7287 -40.4600 -65.8088
24.2582 65.0468 -65.8088
13.6494 -2.9714 -65.8088
1.3051 1.2546 -65.8088
7.4556 9.7616 -65.8088
-49.0429 -41.3538 -65.8088
-0.3402 -0.0243 -65.8088
14.8759 -27.3495 -65.8088
44.9283 35.6189 -65.8088
-38.0382 38.0239 -65.8088
4.7685 -3.1585 -65.8088
15.3563 -19.9788 -65.8088
-9.5204 68.9945 -65.8088
-11.7318 11.1384 -65.8088
-4.2317 -70.2806 -65.8088
-0.8642 12.1507 -65.8088
-11.5271 -35.0503 -65.8088
-20.5048 56.6056 -65.8088
42.5937 -61.7846 -65.8088
-12.7129 22.8605 -65.8088
-75.7526 -4.1166 -65.8088
-9.0815 71.0777 -65.8088
2.9934 -21.7768 -65.8088
-4.1247 18.8023 -65.8088
-14.1030 -31.1375 -65.8088
6.8302 -13.9449 -65.8088
-27.8451 22.3617 -65.8088
1.4372 47.8858 -65.8088
-49.6956 4.1568 -65.8088
-9.0018 11.1512 -65.8088
-54.4758 9.5398 -65.8088
23.3208 2.3179 -65.8088
-38.8751 -2.6121 -65.8088
-58.5347 -37.6458 -65.8088
11.4283 10.4441 -65.8088
-18.0878 -18.7924 -65.8088
12.6717 26.0929 -65.8088
-26.4039 -5.8632 -65.8088
27.0951 15.5987 -65.8088
-15.9645 -1.5958 -65.8088
-11.0204 -42.6008 -65.8088
22.8090 -26.2678 -65.8088
-11.2207 0.0172 -65.8088
-2.9939 8.7064 -65.8088
23.2747 38.5934 -65.8088
-27.5980 34.5592 -65.8088
35.9272 56.5377 -65.8088
6.7414 71.5408 -65.8088
-48.8350 5.5078 -65.8088
4.0824 5.5473 -65.8088
69.6995 -8.1900 -65.8088
-80.5199 -14.8452 -65.8088
-23.0624 -4.7441 -65.8088
2.2946 40.7216 -65.8088
-43.7641 62.6876 -65.8088
6.2457 -75.2303 -65.8088
51.2282 9.0907 -65.8088
-10.9970 -64.3129 -65.8088
-53.7770 -46.8577 -65.8088
73.5520 -26.1444 -65.8088
-9.0461 22.4647 -65.8088
16.1534 -15.8396 -65.8088
-1.1271 -76.0303 -65.8088
43.3504 34.5676 -65.8088
-8.2375 -1.3676 -65.8088
21.5739 50.9867 -65.8088
24.1777 -1.4058 -65.8088
58.2292 59.3342 -65.8088
0.5166 5.1237 -65.8088
-4.2138 27.4022 -65.8088
66.5265 -53.6996 -65.8088
-20.0309 -15.5049 -65.8088
