ply
format ascii 1.0
element vertex 1024
property float x
property float y
property float z
end_header
-2.2940 -2.0421 49.9428
74.3716 -11.1871 -41.7034
-75.3332 10.5806 -42.8014
-2.6734 -21.1970 26.7016
-4.9906 -78.3296 -45.8706
5.0029 20.8341 26.6236
-42.5587 33.4715 -14.9425
0.8918 -3.4555 49.3108
83.8071 -6.3713 -52.9349
21.0423 -9.8026 24.3531
-46.0807 49.8259 -32.3778
54.0274 -46.9391 -37.0809
-9.2065 2.0387 41.8650
70.8027 -22.1237 -40.3953
36.5220 -70.5658 -47.1009
13.2950 -25.9789 16.7690
-76.2651 24.2828 -47.8387
25.5978 -26.3641 7.1601
37.3404 11.9007 4.0546
-1.2062 -0.1222 52.3044
-45.5956 28.3334 -14.3552
14.8937 34.2744 6.3674
-12.2122 7.6553 35.5335
-43.1546 30.2120 -13.0812
-0.2632 -0.0098 53.5100
63.3771 -35.9413 -38.7188
-7.3057 1.1022 44.4581
-18.3397 4.0738 29.9771
22.2966 -40.0206 -4.3577
-24.0604 7.5898 21.7924
7.4166 -14.6228 33.0143
-30.4064 -41.1232 -11.1305
18.2613 -49.0585 -12.6594
19.9196 11.8496 24.3987
16.5928 51.0833 -14.3917
-0.9245 2.5457 50.4038
4.9984 8.9619 40.8079
27.5429 1.1912 18.8202
37.1756 3.6505 6.3879
-9.1335 -76.9045 -44.5450
1.3477 28.7026 17.3394
9.5299 34.8409 7.9552
-65.5807 39.0381 -43.1163
-56.8706 7.8576 -19.0927
20.3795 -10.0658 24.9677
-59.9371 -4.8108 -22.5470
6.1042 -6.0960 42.8847
64.0906 30.9577 -36.5802
4.0859 -9.6453 40.5367
24.2846 4.0912 22.5576
31.3249 -66.6159 -39.6771
21.0637 -63.1825 -30.7684
4.7206 41.3031 1.0297
-5.1671 2.7089 46.4327
-25.4035 46.3911 -13.3506
40.8327 -7.2516 1.1573
15.9050 6.1970 32.1587
0.7769 20.9023 27.2711
-18.9222 34.7098 3.6208
63.7675 -35.8535 -39.0958
0.8367 -3.3614 49.4439
-28.6751 45.2305 -14.1932
-3.2399 -83.9436 -52.8806
-5.8234 14.3706 34.1455
9.2736 -26.2699 18.4517
-3.0589 -3.1101 48.3026
1.2483 -6.6701 45.2235
11.9942 12.3499 31.9730
-13.8115 -14.7978 28.1284
-17.2158 54.5579 -18.8371
18.9803 17.5080 21.0390
-0.9732 0.0914 52.6028
-4.4532 5.3077 45.0425
6.1440 -9.4097 39.5675
2.8515 -5.6435 45.8116
-42.7701 37.5592 -18.4701
19.2661 -37.3245 0.4814
-3.5106 -4.7176 46.3738
-60.8345 32.8683 -34.0015
-32.5875 58.1113 -30.7986
3.6740 -43.8863 -2.1056
7.3050 34.3388 9.2429
41.6065 -66.9721 -46.3223
60.9093 -40.2736 -38.9231
-7.6043 2.8708 43.5183
9.9267 6.9620 38.4408
46.4285 -69.0552 -51.8715
-15.1663 -4.5298 33.7356
65.9468 36.3266 -41.8073
-20.6554 6.9427 26.1604
-62.9899 47.8509 -46.6526
-74.9226 -26.4668 -47.1049
-23.2882 55.8059 -22.9794
60.5975 -54.6800 -49.8502
-23.7835 51.2064 -17.8849
71.7047 27.8242 -43.8703
-5.1519 12.7855 36.3323
-34.3503 -16.9250 5.1947
23.6303 21.7379 13.0531
26.0900 -12.1643 17.2731
15.9192 24.7390 16.4702
48.6902 -0.6774 -8.0196
10.1286 -6.7204 38.4019
18.9638 48.8234 -12.6974
4.4427 12.8064 36.6236
-9.0759 0.7892 42.2707
-41.1383 37.9962 -17.3011
22.0764 -16.8143 18.5892
65.2437 -42.0643 -44.7778
-17.2232 -9.5691 28.8132
5.4648 2.0446 46.4319
13.6730 26.8626 15.5507
50.4266 36.0966 -24.9415
-55.9721 -32.9452 -28.6684
34.2668 -36.7043 -9.9491
40.2619 3.0682 2.5458
40.4645 36.9774 -15.7951
-1.8682 0.9214 51.1982
4.9846 -52.9509 -13.7240
3.1419 -27.8992 18.1762
14.3556 14.0446 28.3300
13.1559 -60.6944 -25.0549
-80.9438 -13.5064 -50.4118
10.5518 -13.8502 31.7240
38.3085 48.4972 -24.6718
-39.2305 -38.4993 -15.9863
27.2735 -32.3812 0.0583
-52.0400 54.3165 -41.7215
40.8680 -30.9201 -11.2618
-16.8690 1.4963 32.3294
53.0283 60.9602 -48.8034
7.5263 -34.8752 8.5176
-23.9893 -2.3939 23.2162
29.8472 -30.5065 -0.3767
1.4415 58.2498 -20.1812
-5.7438 -8.5583 40.7500
-38.4543 -71.3937 -49.1774
-76.7522 -18.3481 -46.4124
5.0863 -56.6566 -18.4240
27.4291 -34.5117 -2.1619
0.4908 -29.3385 16.5664
-37.0538 -14.3552 3.3605
19.1301 5.2086 28.6562
-14.6953 68.2137 -34.8054
-1.1373 -0.5758 52.2251
28.9142 23.9715 6.1283
-39.6902 72.1551 -50.7777
-29.0446 22.4091 7.2390
-8.8945 76.1841 -43.6005
-2.5889 73.4007 -39.4650
55.6438 -29.9910 -26.4621
1.2389 0.0884 52.2667
56.9515 12.5089 -20.2338
-0.1827 7.3665 44.4830
-9.9266 2.4034 40.8691
6.2153 -6.1585 42.7286
-38.1706 27.4899 -5.9162
-19.1616 -19.3571 19.2412
-0.5268 26.6719 19.9529
-1.5010 1.0529 51.5153
74.5065 -28.8534 -47.6617
9.1052 -57.9411 -20.6697
-67.5892 26.5118 -38.3933
3.6784 25.6377 20.9398
-41.9931 45.5537 -24.8672
-29.3094 53.0477 -23.1521
-0.6661 7.5219 44.2511
-1.0978 -42.1621 0.2618
-0.5617 -26.9994 19.5360
-23.4214 16.0425 17.7783
36.2097 -53.7535 -28.4953
16.5093 -34.2016 5.5961
39.9471 51.8288 -29.2894
-0.6293 7.3638 44.4553
15.8989 -16.8900 24.3756
-22.3833 -0.1074 25.4076
-5.1686 12.0091 37.2347
53.9218 -29.3517 -24.1516
9.9591 4.7998 39.7994
20.1116 30.2233 7.7233
53.9692 19.0796 -18.8788
-17.1479 74.6677 -43.4860
-11.4319 41.7991 -1.2091
-14.8450 29.8807 11.4561
45.7450 24.5310 -12.1008
66.5862 27.7677 -37.8104
7.2722 -62.6287 -26.2563
22.5249 70.5444 -40.2360
-40.3930 11.1096 0.6219
-17.8024 7.5649 29.2704
0.5949 -22.6129 25.1063
27.6746 -42.7250 -10.8273
20.2005 45.9240 -9.8942
-6.2742 9.1535 39.7460
50.4475 -43.1368 -30.4821
50.2364 30.5621 -20.8608
-7.4800 7.9563 39.9710
-11.1604 58.5952 -21.9357
-26.0814 19.2351 12.6730
-33.4022 72.5266 -47.5987
-57.6154 -18.9635 -23.2154
31.9004 47.9072 -19.2776
-43.1449 -71.8703 -52.6519
19.5529 -30.3632 7.9635
55.3017 38.7099 -31.9150
-29.8354 23.8506 5.3176
2.4508 -4.2958 47.5614
18.4061 -58.6674 -24.2712
25.1584 39.1917 -5.3223
-0.8643 -5.0638 47.3183
56.4046 -55.5892 -46.7666
-27.5825 17.6336 12.2536
16.2942 7.7629 30.9144
-39.1139 -35.4461 -13.2166
-81.4868 -22.6890 -53.6179
-28.7410 -24.8828 5.5477
-58.2059 11.3260 -21.4898
42.0807 1.8870 0.3297
61.6775 46.9339 -44.6202
-28.9983 46.0186 -15.2589
-14.1862 19.4528 23.2573
-11.5298 25.1196 18.7305
9.9712 -11.4595 34.5462
34.5683 25.4631 -0.7008
-7.0134 3.9019 43.6484
5.5048 -57.2152 -19.1799
-16.0690 68.4876 -35.5280
-35.9876 -63.9651 -39.3981
-15.8165 45.8390 -7.7605
69.7528 6.7871 -35.1910
27.5213 -53.2577 -22.3165
17.7352 -4.1377 30.7079
17.5820 11.4614 27.1808
-71.5386 0.7387 -37.0461
-6.9436 61.8997 -25.2888
-76.1185 -18.0717 -45.5478
-2.4150 1.1462 50.4486
-2.8559 -16.2877 32.8364
4.0458 -4.9860 45.6872
-3.9453 5.7527 44.9826
-0.7942 0.2600 52.7830
5.7158 53.9510 -15.0808
-34.1412 -18.3432 4.6062
16.6669 -49.7303 -12.7889
18.5828 -60.3913 -26.4293
-60.3159 -14.7218 -25.0330
-81.6568 -7.2686 -50.3061
-16.9271 -15.3956 24.7753
16.7815 -25.7266 14.8215
-4.0646 -1.7354 48.2298
57.2798 58.5469 -50.2134
-17.6421 0.7535 31.4110
21.2024 -41.0053 -4.8023
2.2429 7.3048 44.1367
38.6714 42.3988 -19.0609
6.3554 13.9751 34.3403
-21.9139 22.7696 13.6963
29.6440 22.1568 6.8264
67.4040 -42.6488 -47.4906
0.3038 -1.1217 52.3683
-52.2269 1.9103 -12.5511
-3.2173 -5.7935 45.4255
35.8659 -45.9305 -20.1905
54.2746 42.6197 -33.8268
-1.8548 10.6003 40.1729
77.0122 6.6967 -44.3644
3.0557 32.7116 12.1054
-53.6207 3.9615 -14.4631
74.0914 30.6238 -48.0080
-37.5652 -53.9200 -29.6431
-14.3433 31.0215 10.4247
-13.3760 14.7327 28.5641
31.3954 -42.1072 -12.8832
32.2770 -13.2708 9.5078
20.2710 -62.3860 -29.4923
10.8516 -18.1498 26.9792
27.7998 78.6728 -52.1613
-42.0023 -12.1138 -1.6920
-31.0716 19.2872 7.3832
-61.0169 -14.2538 -25.7610
31.1330 -8.2792 12.9172
-1.6647 -47.1677 -6.1166
-7.1283 -4.4906 43.1413
-13.5512 -28.6973 13.5259
42.5818 -25.2391 -9.0421
-10.9208 -54.5705 -16.8589
2.2859 74.1260 -40.3731
24.9135 -10.9666 19.2626
26.8435 53.7789 -22.5169
-20.2316 -18.2079 19.2650
3.8975 22.1740 25.2419
21.5435 -35.9156 0.6366
2.6238 9.7352 41.0353
50.1356 47.0226 -33.4814
10.3717 -9.7146 35.7906
-21.0230 -44.0985 -8.2208
-52.7410 51.2134 -39.5520
61.5221 43.3635 -41.7800
-30.8224 -8.2784 13.2986
5.5376 -41.9820 0.0468
42.7347 60.4285 -40.1843
-5.0691 -0.1028 47.4033
-35.8558 -0.8816 8.2781
-2.0715 28.6746 17.3202
-0.8319 -25.9599 20.8470
1.7727 0.6787 51.4331
-14.0083 -59.9682 -24.3927
-64.9178 43.8530 -45.6841
-48.7301 47.8749 -32.9430
17.3332 -55.1115 -19.5527
68.2475 -4.8458 -33.0784
-57.5907 -7.0488 -19.8672
-62.9660 30.8649 -35.2439
12.7730 61.7322 -26.2439
9.6647 -50.3745 -11.3206
37.3169 27.9928 -5.4206
25.9365 17.3896 14.1730
-2.0849 6.5556 45.1051
-13.0512 -8.2914 34.2007
12.4500 -34.9174 6.7486
-7.5467 -6.1306 41.4921
48.4610 69.2876 -53.5755
-7.6886 0.6798 44.0385
-25.7954 23.2900 9.6918
-63.4278 43.7108 -44.0185
3.9313 24.1854 22.7152
-37.6221 -56.9917 -32.9136
-12.0626 -71.4419 -38.2031
28.1784 65.4658 -36.7034
-14.8770 -10.8912 30.4208
0.4196 23.2590 24.2905
-14.5666 57.0128 -20.9137
0.3901 37.9763 5.5953
8.4219 77.7934 -45.5651
35.8717 -3.0021 8.1123
-31.2865 -23.6411 4.0253
-46.9599 -16.2512 -9.2868
40.4628 36.0554 -15.0086
-19.4350 12.0640 24.7834
4.4522 0.7477 48.1091
-30.9062 -59.1744 -30.9694
-71.3364 22.3881 -41.1428
-22.2213 -14.5343 20.1112
2.5911 26.1450 20.4662
53.5113 57.7403 -46.1694
-23.6631 -45.0937 -10.8532
33.3899 61.3964 -34.9448
-43.0289 67.7461 -48.1162
-14.8809 13.3692 28.4302
-2.8953 38.9356 4.2426
13.1533 -40.9098 -0.7494
-22.4076 60.1230 -27.6707
-27.6524 -27.3854 4.4014
54.6616 -21.3029 -20.6874
-18.0327 12.5875 25.9057
25.9819 -2.4095 20.6945
48.4733 -66.2904 -50.4873
-4.0380 59.9643 -22.5092
7.8452 4.8583 42.1215
51.1992 51.8089 -38.6934
-25.1188 5.7333 21.1119
-41.2422 29.1162 -10.2930
-20.4721 3.5698 27.4435
25.4485 23.1937 10.1004
2.2311 1.8035 50.1999
80.9012 -21.4965 -52.5023
6.2684 12.6603 35.8969
1.3905 -4.8856 47.3913
-21.2043 7.1959 25.3968
-73.5895 39.8961 -52.5024
-76.2452 0.1086 -43.0209
65.7874 -43.7247 -46.5112
-2.2552 46.3092 -5.0584
12.9480 -2.4669 37.0991
-76.9605 25.3757 -49.1072
-56.8801 -5.3854 -18.7416
-18.6367 -26.8675 12.3031
57.3288 56.9860 -48.8494
-12.3590 61.5009 -25.8510
-34.5855 10.3838 7.9680
-19.0055 -22.7906 16.1439
-42.3902 1.8037 -0.0586
-39.2581 28.0884 -7.4818
-4.5023 -8.0193 42.1607
-52.9202 21.1791 -18.5719
-71.0213 -24.4266 -41.5716
9.9705 77.1230 -44.9513
-56.9237 0.8149 -18.4812
-21.8915 51.2175 -16.9190
-0.8837 3.8109 48.8747
11.1559 5.1979 38.2088
39.7009 -9.2253 2.0630
-54.7032 34.6731 -28.4373
24.9334 -78.8651 -51.2373
-19.8037 -19.9557 18.1270
-8.0950 -10.1436 37.3571
-21.2538 6.2446 25.7016
26.5116 9.8312 17.9219
-61.9897 -37.9900 -38.5227
-36.3266 -39.5997 -14.4264
68.9702 2.6900 -33.8448
7.1791 1.4876 44.5303
-14.3061 7.4270 33.3662
-76.9927 -15.4462 -45.9194
8.0465 -52.6343 -13.8013
-23.7968 -55.4281 -22.7893
-29.4423 -52.3936 -22.5084
18.4663 82.1936 -53.1808
-18.9728 54.1126 -19.0057
-40.5393 -2.3351 2.2563
19.9079 -9.0501 26.0620
-29.2692 73.9541 -47.2009
0.2402 -22.3708 25.4221
6.3444 15.8404 32.1662
-16.0779 19.9734 21.2697
19.0047 -24.6158 14.3356
0.9084 -2.1479 50.8819
-11.7844 39.7633 1.1558
-5.0487 53.3176 -14.1954
-10.5610 40.4947 0.6775
26.2354 -15.2247 15.3084
-17.9148 10.4381 27.5034
-7.5805 43.5094 -2.2643
-7.5381 -22.9633 23.1393
-50.9192 15.2743 -13.6932
5.6251 9.4399 39.8840
0.3429 8.7973 42.6597
-10.6653 47.0228 -7.4126
-0.9926 50.8939 -10.8256
4.3126 0.9995 48.2206
-41.5836 67.8590 -47.2659
-66.6515 -49.7255 -51.8015
-8.7246 0.4359 42.7467
28.5146 72.2204 -44.8001
14.3907 21.4851 20.9918
-36.4900 6.8948 6.6659
-65.7228 -30.1003 -37.9930
-0.5338 -31.9183 13.2885
-26.7728 -31.9769 0.8607
-14.3216 75.7411 -44.0854
-1.6476 -3.3248 49.1304
-71.0440 -7.2566 -36.8825
-16.3287 0.2917 33.0967
12.2953 28.1197 14.8543
3.7354 46.5208 -5.4477
-5.3629 -0.0564 47.0310
1.5236 -3.5888 48.8914
-3.4566 1.3761 49.1180
-59.2782 34.0399 -32.9987
13.5084 0.8209 36.6513
42.0759 33.5608 -14.5321
-71.8663 -4.6085 -37.6451
4.1561 -10.5813 39.4020
-2.9595 9.2523 41.5034
37.4794 26.2988 -4.3237
3.4956 -31.0458 14.1535
79.3317 -23.1646 -51.1508
27.5257 46.4523 -14.7533
33.8723 -50.3857 -23.2877
57.1874 15.6515 -21.4807
5.4089 13.0785 35.8642
35.8919 56.0355 -30.6968
-24.3140 -47.0620 -13.4530
31.1585 21.8739 5.4789
6.6753 5.5290 42.8327
-29.6910 37.0720 -6.4967
-77.2255 3.2941 -44.3553
24.3014 47.9784 -14.4822
3.6562 4.6380 46.3416
-19.7601 -58.2685 -24.3232
39.5148 -52.0466 -29.1755
-43.2475 17.0549 -5.2169
-22.8829 -13.0519 20.3767
-40.5584 10.2773 0.6889
14.2151 27.6119 14.3895
6.0846 -1.8947 45.7484
7.1851 34.0808 9.5951
-28.0897 54.9182 -24.5228
2.0653 2.0938 50.1083
-2.6228 12.4688 37.6571
-1.7392 -1.0413 51.2694
40.1300 20.4193 -3.3587
13.2434 50.1007 -11.9918
57.9183 41.4188 -36.6165
47.6780 12.9062 -8.9077
3.7196 3.4114 47.4326
19.3650 3.2181 28.9050
-19.6540 -53.6705 -18.7689
26.4618 4.6136 19.7193
-6.5315 -45.8126 -4.9463
20.2597 -34.2551 3.2837
-2.0447 -12.3468 37.9451
-37.3544 13.0308 3.5833
4.6255 2.6822 47.0518
-10.8506 9.5708 35.4634
-18.7921 -66.3766 -33.7976
31.6090 -29.7890 -1.3359
-34.1554 44.9756 -17.9034
15.5897 -20.2592 21.3681
-26.3622 -21.0134 11.0149
-42.5410 -38.4510 -19.0065
-5.7678 -52.7139 -13.5252
-63.2955 -46.1425 -45.6682
-36.8275 -70.6224 -47.3437
-3.3734 -32.7346 12.0369
10.7744 -63.0200 -27.3806
-18.5759 39.5597 -1.6788
-20.0001 -0.5216 28.4270
69.3500 -5.8391 -34.5724
-9.5606 -22.6770 22.5790
-3.3710 37.7629 5.6782
-14.0161 0.5596 36.0237
10.9902 -42.4294 -1.8386
6.1995 47.4849 -6.9943
36.8357 5.6342 6.5026
-24.7810 -48.9647 -15.8754
-7.3879 -27.9280 17.1432
21.2623 -11.9304 22.8703
-50.7634 60.1245 -46.1248
72.7624 41.4544 -52.5458
21.7061 -3.3171 25.9481
-71.6002 -35.8568 -47.8886
15.8598 -13.6792 27.2364
12.7752 6.4453 35.6659
4.1068 -51.9832 -12.4030
18.3352 -20.1445 19.2386
-8.6937 14.2217 32.6682
-62.2888 42.3019 -41.8136
58.7776 59.7390 -52.6271
-41.3389 11.2144 -0.5724
5.8612 -8.2105 41.0285
12.7372 -18.8627 24.9287
-1.1103 -2.8988 49.9009
51.6205 4.4762 -11.9824
-9.7119 -12.6007 33.6331
34.8167 21.4662 1.8804
31.5082 0.2746 13.8137
-22.8566 15.2829 18.9134
12.7850 52.0597 -14.2597
-23.3212 -50.6959 -17.0498
3.7494 43.4390 -1.5474
-11.5437 0.6022 39.1591
12.6821 43.4594 -3.6710
-41.9264 32.0386 -13.1922
-2.7974 15.7051 33.5782
45.6684 -56.9835 -38.9302
-56.9216 -36.8265 -32.2861
24.0173 -6.7862 22.1373
-42.1657 -21.0337 -6.0196
-29.7732 -50.6706 -20.8198
3.5674 -6.2816 44.6671
-12.2791 8.5610 34.8275
10.4741 -22.7962 21.9726
-1.7187 -23.4824 23.9317
7.0357 -20.6761 26.0977
-10.6971 53.4956 -15.4640
3.0798 -9.4227 41.2504
68.7230 34.5701 -43.8883
-24.0479 -68.9205 -38.8921
-14.1660 47.4585 -9.0775
14.1873 -28.3448 13.5752
-1.3007 -5.8221 46.2656
-17.0303 -1.9837 32.0623
-1.5416 -6.1107 45.8382
48.4510 62.4403 -46.5630
15.8199 11.7442 28.8136
-38.6620 -13.0779 1.9927
40.6419 -34.2817 -13.7043
10.5263 17.0230 28.4172
23.9775 13.5340 18.8650
6.8211 45.8742 -5.0768
-9.7011 -5.0866 39.9285
-2.4170 25.0753 21.8402
26.3348 -33.2183 -0.0106
-42.8897 9.2653 -1.9012
10.2241 13.8070 32.0179
81.4115 -20.7548 -52.8924
12.0998 -24.3750 19.2720
-16.8830 -19.0268 21.5280
7.4611 7.4220 40.4746
-21.5973 -64.4169 -32.4707
1.6044 3.4649 48.9937
-10.1088 2.0412 40.7428
-15.5522 -33.5650 6.8471
-6.8593 -46.8565 -6.3185
35.8553 39.3020 -13.7431
-33.5843 -12.8693 8.1523
1.8927 53.6010 -14.2950
3.0154 -1.2266 49.7089
-65.2673 -3.1893 -29.1728
-43.2516 20.3010 -6.8560
1.2828 10.5689 40.3189
-5.1747 30.4564 14.5970
-56.7301 10.8971 -19.5454
-35.0439 12.1179 6.7366
-41.1778 67.1045 -46.1792
55.9493 3.4674 -17.3723
34.1867 45.4128 -18.3705
13.6505 70.5084 -37.3958
65.5305 39.8677 -43.6050
-13.4878 -25.7916 16.8678
25.4136 -28.2000 5.6164
-41.2794 -71.3786 -50.9105
1.3921 1.8470 50.9063
-20.0995 30.9873 6.9206
2.6688 -9.0882 41.8111
-9.4608 22.3733 22.9838
3.7073 19.8800 28.1528
-16.5401 -52.7307 -16.3652
30.7422 -50.2641 -21.0100
8.9956 -32.7342 10.7159
41.6282 -6.9624 0.2237
22.9316 -56.5478 -23.6787
49.0895 -58.8393 -43.5070
30.8591 -35.4773 -5.8923
53.1896 -54.8073 -43.1843
-0.5165 -3.6422 49.1711
-0.2006 10.0671 41.0524
-16.6613 -38.2073 0.8898
-2.9657 16.5266 32.5132
-15.0733 52.9721 -16.1251
-1.5973 6.6548 45.1500
-23.8352 34.7239 0.3369
44.4289 0.7827 -2.6086
16.9184 8.3607 29.8694
28.9675 26.9788 3.5541
47.3918 19.5313 -11.2767
-50.9785 17.3189 -14.5562
24.0350 10.6458 20.4482
-18.5434 6.0813 29.0518
-57.0565 -12.2597 -20.2970
0.5517 2.8381 50.1715
2.6759 0.5603 50.3714
38.5833 -35.2197 -12.5244
14.6049 -9.3859 31.7887
10.3027 -10.8600 34.8267
-40.7197 -2.0246 2.0486
1.3789 -0.7017 51.8791
-13.6964 10.7360 31.7355
-17.9805 33.6839 5.3358
-9.0935 -8.2940 38.2082
-51.4535 35.7105 -25.7252
-55.2644 -0.5983 -16.3698
1.0960 -2.8575 49.9564
-12.9727 -6.3674 35.4853
10.7921 -31.2055 11.8958
-79.3716 19.0508 -49.8566
-12.7922 -1.3457 37.5032
-62.4387 -30.1186 -34.2268
-15.7556 -7.0972 31.8910
-8.6477 -18.9696 27.3587
34.5775 -20.7505 2.6126
-25.5598 -29.9203 3.8510
-17.6504 -23.8968 16.1017
-41.3805 -5.2023 0.8592
34.3557 7.5957 9.1436
-12.2005 -17.9632 26.2573
-60.9275 34.6846 -35.2242
-4.4633 -0.1817 48.1695
5.8465 53.4238 -14.4325
-4.2143 -17.1202 31.4450
9.9521 -31.4112 11.9834
-20.2766 61.5282 -28.4589
39.2087 -0.9719 4.0168
-55.6896 0.7906 -16.9131
-9.4176 -54.7869 -16.7800
-68.8047 -24.3192 -38.8675
-35.7278 -46.6999 -20.8566
-8.5004 6.0927 40.5578
32.3592 -1.0168 12.7137
-0.5787 35.6037 8.6061
51.4277 2.7603 -11.5854
-23.9515 -29.3926 5.6749
0.4115 -0.2958 53.2008
-45.9253 19.6544 -9.6195
-11.7421 -28.0125 15.2563
1.2497 5.2180 47.0280
19.8273 -31.2030 6.8768
-65.0913 -42.1009 -44.6404
17.2275 8.6997 29.3257
-41.2562 -4.5149 1.1180
16.8153 17.6113 22.9096
-0.9407 -58.1519 -20.0438
-36.6280 -30.4187 -6.6439
-23.4588 -30.2883 5.1732
-51.2498 0.5929 -11.2698
-0.1735 -1.6782 51.7012
15.2998 33.1181 7.4971
27.6900 45.2435 -13.5454
-47.9446 -12.4634 -9.0907
-32.9722 21.7138 3.6877
37.5838 -16.5433 1.6755
1.2756 1.1437 51.6681
39.8877 -24.6692 -5.7391
54.0457 -7.3830 -15.4552
11.2723 41.8081 -1.1670
-39.7327 11.1027 1.4327
43.4391 20.2617 -7.0506
-4.1769 2.2999 47.7869
-58.6732 14.7411 -23.0130
66.3460 46.7966 -49.3020
-22.3695 76.3142 -47.1877
-1.7930 25.8820 20.8842
-8.4662 -71.8289 -38.0418
42.1428 -70.9317 -50.9754
-31.4438 -30.4051 -1.7246
-16.3660 -4.3756 32.3223
1.5613 -2.1074 50.5125
14.0656 -2.3202 35.7336
0.6905 -25.6130 21.2929
33.4424 7.7454 10.2332
6.6541 -10.3934 38.1662
3.5311 17.3983 31.2904
10.0376 -36.8111 5.3707
-11.4827 8.4653 35.7208
8.7058 -32.0140 11.6956
43.9210 22.8849 -9.0748
38.9527 -2.5213 4.2538
-0.0635 -60.3561 -22.8346
-5.4611 8.9380 40.5376
10.9347 81.5842 -50.7305
-57.3599 -1.8229 -19.0647
9.3958 -15.1731 31.1715
-21.3333 -19.0444 17.5135
82.5940 -7.0262 -51.4655
-2.5954 6.4694 44.9889
10.5895 -7.5416 37.3282
6.8832 -32.3422 11.8354
12.4383 -9.0964 34.2677
4.8590 74.2633 -40.7045
19.2723 1.6202 29.2739
-50.5153 -38.2382 -26.6454
4.3252 44.6812 -3.1857
-54.6677 -37.6550 -30.4890
54.1942 41.8903 -33.1768
13.9080 22.1940 20.5694
-23.4928 -70.4344 -40.4847
-8.9777 9.3331 37.3922
27.6339 -16.2310 13.1294
41.4190 -49.0412 -27.7074
8.9065 -3.4085 41.7292
-35.5869 -27.3906 -3.2077
-32.5677 0.6538 12.4608
16.2378 35.2999 4.4809
-24.9829 16.7136 15.6574
60.6857 4.1735 -23.4353
51.6837 -29.2377 -21.5951
2.1507 -17.6572 31.2463
-12.0428 9.2144 34.5802
-52.0391 31.7095 -23.5751
-41.9855 -10.2241 -1.0544
-43.9695 -71.7091 -53.0202
-6.3873 -4.2297 44.1120
-40.9133 62.3037 -40.8496
51.6265 -30.4601 -22.3092
5.8662 6.9276 42.3120
46.2366 -4.2214 -5.1407
26.0861 -78.4973 -51.2444
-44.3066 -31.2762 -15.0560
-51.3245 65.1252 -51.4990
-21.9156 -10.1495 23.1611
-24.6668 47.2212 -13.8392
28.0823 -5.8487 17.4020
-9.0670 -22.3958 23.1487
8.7081 -8.9222 38.0054
-1.4593 70.4389 -35.6633
12.7775 -12.9199 30.7593
-50.3344 11.4193 -11.7275
-0.2478 1.3925 -53.8447
-64.0868 4.4291 -53.8447
28.5441 22.2690 -53.8447
1.6500 -11.8614 -53.8447
-12.9987 -45.9367 -53.8447
-26.3287 -37.9049 -53.8447
-62.9545 20.2729 -53.8447
-46.5428 -19.8450 -53.8447
19.7797 -10.7870 -53.8447
-2.9074 -24.0252 -53.8447
41.1487 26.2055 -53.8447
-24.9839 -57.9940 -53.8447
31.5488 -33.4489 -53.8447
-26.3209 10.4280 -53.8447
4.8659 23.0215 -53.8447
20.4761 -18.0469 -53.8447
-29.5822 -73.6520 -53.8447
32.1648 -52.8612 -53.8447
-20.5231 31.4049 -53.8447
14.3377 -75.3464 -53.8447
23.6355 20.5516 -53.8447
-13.6922 76.5993 -53.8447
46.1270 -53.5778 -53.8447
19.3408 -61.1541 -53.8447
58.0883 27.7504 -53.8447
39.1566 -53.5351 -53.8447
46.7822 15.8817 -53.8447
-4.3616 -18.6202 -53.8447
6.4618 -31.5331 -53.8447
-36.8566 -51.7499 -53.8447
-28.8396 0.7807 -53.8447
27.8483 -4.2115 -53.8447
-42.3847 55.0942 -53.8447
-39.2461 27.3830 -53.8447
-9.8526 7.5857 -53.8447
-23.0736 -56.7360 -53.8447
50.1090 -55.3151 -53.8447
7.6499 35.2476 -53.8447
-10.6250 35.8663 -53.8447
-76.4493 26.5779 -53.8447
51.9067 40.6057 -53.8447
0.1322 -5.7730 -53.8447
-24.6695 -42.8066 -53.8447
10.4601 -6.1802 -53.8447
-61.0607 -5.2799 -53.8447
-4.6686 -10.1424 -53.8447
-18.5674 -24.9116 -53.8447
-10.1989 -82.7518 -53.8447
-34.8219 -35.8594 -53.8447
28.0097 -43.3261 -53.8447
-2.6194 -1.0213 -53.8447
-23.9963 -14.0340 -53.8447
44.0688 -32.5902 -53.8447
13.6579 -80.8106 -53.8447
-8.2575 66.1709 -53.8447
21.0951 -45.4060 -53.8447
0.7968 0.3112 -53.8447
9.7297 47.1232 -53.8447
-33.7755 34.7738 -53.8447
8.4217 8.0787 -53.8447
0.9181 -0.2730 -53.8447
-15.7675 -4.5248 -53.8447
80.3217 -23.2344 -53.8447
31.0211 -43.0525 -53.8447
-32.8584 -64.7813 -53.8447
-75.3737 -0.3874 -53.8447
-16.6174 61.0879 -53.8447
-39.4471 -23.1269 -53.8447
3.8346 -65.6640 -53.8447
-13.1981 39.4820 -53.8447
-74.9910 -17.1853 -53.8447
27.2971 -37.1236 -53.8447
1.6170 6.4715 -53.8447
-42.3619 -26.6926 -53.8447
-10.9680 -22.7215 -53.8447
-34.9757 42.3782 -53.8447
-28.0678 -79.2637 -53.8447
-33.4476 16.7613 -53.8447
1.0377 -47.8499 -53.8447
-25.9309 21.4551 -53.8447
-49.2784 22.9287 -53.8447
-1.8855 -0.1182 -53.8447
-40.8706 -68.2184 -53.8447
25.6562 -2.9712 -53.8447
14.8141 -62.2846 -53.8447
55.8355 -52.5084 -53.8447
29.5295 -23.7593 -53.8447
71.5131 -29.8222 -53.8447
16.9653 31.2923 -53.8447
15.3153 7.3410 -53.8447
1.5277 46.6184 -53.8447
5.6807 -59.2128 -53.8447
-77.3961 1.1104 -53.8447
10.9674 -9.9057 -53.8447
-23.1607 3.7815 -53.8447
70.5127 12.5686 -53.8447
20.4571 5.1544 -53.8447
-57.2377 36.0187 -53.8447
-68.4666 -27.9487 -53.8447
57.1292 -44.1804 -53.8447
31.3582 -15.3214 -53.8447
20.9175 -23.1520 -53.8447
3.1644 83.3032 -53.8447
-17.6190 -6.1344 -53.8447
6.4514 29.2564 -53.8447
-47.9675 11.5605 -53.8447
-37.2641 -52.0605 -53.8447
31.3499 -59.1623 -53.8447
-12.1250 54.9597 -53.8447
-12.2666 58.3338 -53.8447
-57.3643 -56.3438 -53.8447
-23.8950 -22.7477 -53.8447
-53.8347 12.2982 -53.8447
-9.4657 -9.6505 -53.8447
50.8828 -57.0224 -53.8447
8.5868 -65.2148 -53.8447
13.3465 -23.4661 -53.8447
-4.6401 -7.9277 -53.8447
-11.4515 31.4635 -53.8447
-67.0313 -20.4100 -53.8447
-11.2024 -29.2446 -53.8447
5.3616 39.1203 -53.8447
-8.8563 -18.1640 -53.8447
44.2635 -6.8710 -53.8447
-0.9003 6.4261 -53.8447
0.8047 -2.7570 -53.8447
29.2093 -4.5138 -53.8447
34.1981 -29.2212 -53.8447
54.8542 -0.3790 -53.8447
60.1630 6.2601 -53.8447
-11.3139 0.4418 -53.8447
0.2347 0.5928 -53.8447
-0.1046 46.1500 -53.8447
-31.9878 -10.2529 -53.8447
-10.0922 -3.7749 -53.8447
-2.0619 -4.3100 -53.8447
20.8236 14.5412 -53.8447
37.3305 22.8902 -53.8447
47.3487 -60.0719 -53.8447
6.7556 -41.0061 -53.8447
37.8624 74.3211 -53.8447
-49.1895 24.8308 -53.8447
15.7520 19.5142 -53.8447
12.2707 17.1300 -53.8447
51.1968 -59.9537 -53.8447
-14.7307 -14.7471 -53.8447
79.3394 -19.4399 -53.8447
0.1605 0.1578 -53.8447
51.5814 -46.7697 -53.8447
-11.7786 37.9977 -53.8447
-4.2661 -12.0750 -53.8447
6.9460 12.3441 -53.8447
5.4436 -39.7848 -53.8447
2.5409 1.4177 -53.8447
-53.4026 -1.9100 -53.8447
-56.6168 21.0735 -53.8447
-1.4304 -10.1007 -53.8447
-42.9838 -17.6048 -53.8447
-24.9688 51.8111 -53.8447
-23.4031 12.9435 -53.8447
-28.5640 -13.0876 -53.8447
-21.5892 -46.3171 -53.8447
43.6790 69.6386 -53.8447
-15.7198 -38.3145 -53.8447
9.4063 -29.5866 -53.8447
56.4648 -0.7956 -53.8447
-44.0736 -54.0755 -53.8447
1.0746 -71.5829 -53.8447
6.5166 80.8035 -53.8447
5.8107 -59.2715 -53.8447
7.1222 1.4705 -53.8447
24.9719 -64.8971 -53.8447
0.4854 47.5843 -53.8447
27.9116 67.1368 -53.8447
25.8593 40.1496 -53.8447
-46.0716 -39.2602 -53.8447
-23.3032 -20.4142 -53.8447
30.9937 -3.3368 -53.8447
63.7581 -45.6791 -53.8447
-24.1679 -19.4110 -53.8447
-6.5872 27.8662 -53.8447
1.1156 7.9159 -53.8447
44.0408 53.3385 -53.8447
-10.6775 -72.8552 -53.8447
-25.7857 76.2758 -53.8447
-21.8664 -9.4731 -53.8447
-13.6668 -38.4269 -53.8447
-31.1628 -6.9784 -53.8447
-55.1045 11.8651 -53.8447
15.8801 -4.0148 -53.8447
3.9254 48.0691 -53.8447
-58.7056 -0.1065 -53.8447
-38.0884 6.1515 -53.8447
-45.3462 -46.4238 -53.8447
36.3260 -62.9537 -53.8447
0.0764 0.0400 -53.8447
-33.0340 46.7040 -53.8447
16.7936 -11.0753 -53.8447
-25.1863 -4.8355 -53.8447
5.9735 14.2068 -53.8447
9.3424 -14.0591 -53.8447
-42.5959 -19.2522 -53.8447
-53.8834 -48.8401 -53.8447
3.9260 -39.1893 -53.8447
-4.9991 -7.6685 -53.8447
-8.7607 -27.6704 -53.8447
-27.1185 15.2479 -53.8447
-27.9061 -58.5706 -53.8447
-27.7810 17.3616 -53.8447
-48.6155 -25.1952 -53.8447
-26.3080 77.4114 -53.8447
-25.4545 17.6801 -53.8447
10.9356 -7.9119 -53.8447
-13.2065 36.4972 -53.8447
-27.9204 72.3913 -53.8447
-16.4580 9.1063 -53.8447
-6.9803 33.8252 -53.8447
-24.2496 11.9579 -53.8447
-53.7067 -59.9601 -53.8447
72.4015 26.2082 -53.8447
6.2472 -2.9083 -53.8447
46.7053 -9.8089 -53.8447
-26.6840 -4.9110 -53.8447
-54.4468 -43.8796 -53.8447
7.3326 25.9710 -53.8447
-29.8708 27.6758 -53.8447
-5.3693 -8.9572 -53.8447
29.2709 -75.1476 -53.8447
-0.1784 45.7176 -53.8447
-44.1678 -42.4824 -53.8447
-70.0124 39.6027 -53.8447
1.5660 76.1532 -53.8447
11.5094 -16.8630 -53.8447
-2.8664 -11.1814 -53.8447
7.5073 80.5935 -53.8447
30.2316 33.3149 -53.8447
-5.1031 80.7427 -53.8447
-29.2278 -29.7608 -53.8447
1.0237 26.1962 -53.8447
-59.2317 -4.5232 -53.8447
-26.7985 -1.5018 -53.8447
-21.0612 -32.4980 -53.8447
-23.7291 -17.5807 -53.8447
1.0039 1.9120 -53.8447
23.2815 12.4477 -53.8447
-3.4560 -14.4750 -53.8447
-4.6892 5.7553 -53.8447
2.9258 20.3734 -53.8447
-40.0717 -41.4726 -53.8447
11.2449 13.5607 -53.8447
25.9639 0.4811 -53.8447
3.9634 -56.0701 -53.8447
-17.0518 -32.1954 -53.8447
19.0744 30.6652 -53.8447
-15.8164 31.3980 -53.8447
-43.4508 43.8730 -53.8447
