ply
format ascii 1.0
element vertex 1024
property float x
property float y
property float z
end_header
-26.3641 18.3863 -39.8593
36.7400 3.4573 -54.8892
7.7814 3.8844 34.1677
-1.6682 2.5712 51.9506
14.7892 11.9248 1.6430
-1.8439 7.7453 36.4895
-11.8496 -15.8437 -0.8412
12.7884 -6.5410 16.2741
3.1335 3.9271 45.7650
-23.4207 -12.1085 -21.6199
8.1269 11.7034 16.6396
-3.7056 7.5774 34.9951
2.8036 16.3925 9.1181
6.5814 33.8031 -47.1077
-19.6229 12.9473 -12.6018
-30.9335 -0.5518 -36.0584
0.8952 -1.5970 55.8476
26.8986 -0.9257 -23.3530
5.8753 -27.4854 -27.1164
1.3046 0.3222 57.3851
6.1794 -3.9373 38.4930
-4.3623 -5.8232 38.6546
-17.2478 -6.1904 3.7678
14.1374 -4.3229 14.9499
8.5744 -6.6048 27.4541
18.4638 -4.5880 1.5568
-19.3830 7.8963 -4.4564
0.0155 -0.0151 61.5599
-29.6076 5.0761 -33.2203
-18.0958 -3.2741 3.5639
29.5426 -7.1506 -34.3448
-4.3069 -17.9085 3.4707
16.4857 -0.5795 9.5432
-24.2987 7.5925 -18.7521
-19.0059 -18.7424 -22.6528
0.4841 1.5605 56.4693
-10.3230 -16.6042 -0.1050
-31.2876 -9.6541 -41.7568
25.4008 5.0116 -20.1199
18.0418 2.0254 4.3041
-29.3067 8.1286 -34.3996
33.1226 2.7844 -43.3239
-14.3475 10.4631 5.5597
37.3167 -8.9648 -59.5500
-13.6848 -1.3360 18.2136
-0.6655 -14.4822 15.8531
3.7729 0.8142 49.4412
6.6269 32.8395 -44.1510
1.3277 -2.6621 52.2354
-18.3810 -16.3915 -16.1338
3.6999 14.7447 13.6291
-21.2958 1.8037 -5.8530
-11.5104 10.9118 11.5493
5.4596 -28.3981 -29.6794
-3.2345 0.9641 50.9715
22.7506 4.0988 -11.3622
-8.5482 -18.9759 -4.0862
-4.0535 -3.6972 44.3053
-25.0618 6.0377 -19.7671
12.3629 -5.3243 19.1268
-18.5310 23.1962 -32.1148
0.0164 -0.1255 61.2286
7.8751 -1.7499 36.1564
-5.1990 2.3337 43.6347
1.9901 -3.9420 47.6852
4.9232 -10.0895 26.1809
-0.5188 0.3447 59.6614
-1.1279 6.6066 40.4664
13.0071 -17.6155 -7.5114
-33.7341 -4.8926 -46.0000
-3.3490 6.9683 37.2169
33.8750 -14.2434 -54.4007
9.1049 8.3773 22.5627
1.9741 3.4190 49.1628
-16.0041 18.5213 -15.6598
3.8292 -9.5645 29.0984
-3.6024 28.6832 -29.6493
4.3083 -30.0402 -34.1928
5.2489 -2.1543 43.7135
-0.6493 -15.0855 13.9522
-1.3056 -6.6146 40.3398
-15.4702 21.7608 -22.6741
-18.2837 -0.5598 3.8711
-4.0467 3.7518 44.2042
-16.0138 -1.7673 10.7584
-28.8781 22.0686 -53.1299
-2.1972 -1.5986 53.0489
30.2183 22.3135 -56.9777
-17.4162 23.2653 -30.1335
-21.9124 -13.1548 -19.0695
-0.3978 1.1076 57.9123
0.5955 1.2535 57.2464
-20.1451 13.5840 -15.0889
-19.3535 -3.2786 -0.3504
-28.5089 -1.2003 -28.4672
16.6233 -14.1263 -7.2512
0.6154 3.1023 51.6419
-18.6958 26.7609 -41.4461
-8.5034 23.8367 -18.2808
11.2277 26.1024 -28.0899
-1.4982 -13.1263 19.9135
23.7448 -14.9741 -27.0080
-2.2379 -1.3314 53.4062
-18.4113 2.6053 2.9161
-4.8910 2.2347 44.6496
28.8629 -2.0609 -29.7371
0.7008 -4.3288 47.7824
-9.8616 -29.3746 -36.2079
0.2778 -35.0122 -48.9246
-30.2376 9.0554 -38.0351
1.1025 3.8405 49.0122
1.1651 -29.7837 -32.4845
-4.8940 12.3470 19.6924
4.7651 24.8484 -18.2590
-12.3722 29.2206 -38.5638
-0.1425 17.4722 6.4586
-11.6479 0.0830 24.8494
11.7676 27.3053 -32.2528
20.1167 -0.9842 -1.9652
13.3265 28.0249 -36.3543
-8.8011 4.0617 31.0226
5.8106 9.2534 27.1283
-0.4975 9.5107 31.5575
-31.1488 -2.1506 -36.9568
10.9472 -30.6460 -41.1235
7.2909 29.6606 -34.8115
-4.5132 -8.5224 31.1787
10.0477 -9.1784 18.6590
-19.0827 0.2840 1.3687
-25.9009 28.4108 -59.7606
-4.0385 5.7705 39.3894
-18.1698 -9.5364 -3.1639
29.6126 8.3690 -35.5344
23.9018 -1.9541 -14.0924
-3.0548 22.8994 -11.3161
9.5913 7.8823 22.4296
25.6443 -4.7882 -20.7418
-6.4765 1.2328 40.8118
-9.1851 1.1240 32.4104
4.0930 18.8167 0.8261
9.6325 0.7479 31.1225
-18.3918 -20.1823 -24.5871
37.0874 -5.0439 -56.5514
0.6548 0.8937 58.1301
-0.2608 -0.9445 58.5343
18.3704 24.0665 -33.9684
-0.5004 10.5646 28.2337
3.5254 7.0335 36.7866
32.2884 -16.6369 -53.0585
1.4458 3.2659 50.3509
1.0282 -22.2020 -8.5488
15.3770 -20.2608 -18.6825
-5.0576 -14.2820 13.7895
11.2354 -21.6024 -15.2542
-14.5407 15.2755 -4.9612
-4.4431 -5.5097 39.2797
5.9383 37.2492 -57.4696
9.6658 4.6307 27.7874
4.9764 -27.4381 -26.4196
35.3707 3.8085 -50.6986
-4.0707 -3.7454 44.1624
-17.4660 -1.6143 6.2451
-7.1889 26.4412 -24.8893
-0.7756 -4.2306 48.0475
6.8231 18.3990 -0.3317
-10.6335 -16.1086 0.6838
23.3878 5.5933 -14.3001
-11.5372 3.7133 23.3597
31.4853 -1.4019 -37.8838
21.5353 -23.8237 -39.7716
5.3652 -3.4556 41.4781
-7.1057 -29.2523 -33.4205
-2.3837 14.8646 14.0943
9.8130 -6.3450 24.7313
27.1113 24.9475 -54.7016
2.1082 7.3839 37.3823
23.0589 -13.0517 -22.0328
-1.6445 27.4391 -25.1648
24.3865 3.7293 -16.2662
-14.7219 -5.7114 11.7689
-7.6546 -7.5612 27.6560
-14.2136 -16.3731 -6.8313
4.4907 11.4647 22.7509
4.3115 -28.5788 -29.6291
7.8950 18.4422 -1.7136
1.3762 -1.5911 54.9858
5.7166 -0.6580 43.4592
2.5829 -33.6512 -44.9363
-8.6836 24.8120 -21.3739
-37.5233 6.9599 -58.8706
-21.2443 24.9298 -41.7907
-15.9139 12.3601 -1.9947
-8.4192 -28.8048 -33.1268
21.8338 6.5960 -10.3883
3.8023 -30.1418 -34.2975
-0.4834 -9.7640 30.7612
8.4498 19.6202 -5.8227
-3.7487 11.5836 23.1859
24.0221 11.7012 -22.7403
-33.4981 -12.9427 -51.7606
-3.6944 -25.4814 -19.6693
1.9933 20.0996 -2.1466
21.3913 -22.4104 -36.1924
0.3790 35.2957 -49.8228
-3.7519 7.3355 35.6128
-7.0017 1.7958 38.8051
2.2880 2.8491 50.0905
-12.9642 -29.3536 -39.6913
0.1758 2.1654 54.7686
-11.9385 27.9249 -34.2632
-3.0465 12.8813 19.8341
-5.9730 1.7566 41.9701
13.3202 -30.6897 -44.0067
3.1447 -3.9396 45.7121
-20.2430 28.1843 -47.9374
-0.8932 0.7094 58.0267
9.3070 -33.8379 -49.1810
-3.4649 -0.0531 50.6868
0.6968 -3.7703 49.5222
25.6495 2.9394 -19.8889
2.6701 4.6377 44.7313
-19.3519 -15.4921 -16.6422
-2.8231 8.8524 32.2902
19.9308 -11.9173 -11.6939
13.3873 33.4922 -52.2569
-18.7597 -17.9753 -20.4070
-24.0725 -0.9750 -14.4420
-10.2184 0.5039 29.3247
34.8584 -6.6420 -50.4158
13.7674 28.1392 -37.2842
-19.3369 -27.8908 -45.5307
26.8980 27.7640 -60.4285
2.7810 5.2551 42.8553
-2.7313 1.0644 52.3724
-6.5791 -21.1232 -8.2275
-6.6654 11.1105 20.7187
-1.1338 1.7006 55.1746
-3.0885 18.1749 3.4192
-7.6091 -17.2145 2.2010
8.7142 -4.3758 30.8393
-4.7551 4.2654 41.4589
-5.5855 -3.4350 40.9241
1.6831 28.5041 -28.5288
-11.1626 16.1268 -0.2995
20.9703 23.2456 -37.2213
4.7213 17.9819 2.9268
4.6408 -4.9274 40.2562
18.4997 -26.7529 -41.0720
-27.1616 -18.5749 -42.2698
10.3563 11.3090 13.2103
-22.8871 7.5082 -14.4260
9.3603 0.1753 32.0683
0.3466 -0.2693 60.2425
-5.7906 -23.1100 -13.5963
-0.2659 -0.5805 59.6120
7.0173 2.5159 38.0903
0.4010 -0.5005 59.6034
-4.6362 5.9157 37.8968
10.5575 11.6274 12.0393
0.1414 1.5366 56.7561
1.9473 -33.5025 -44.3328
20.1188 8.3530 -7.1535
16.2420 32.3301 -52.6106
33.1325 2.1118 -43.1984
15.5871 -11.9906 -0.4647
24.6304 13.8173 -27.5427
-15.8623 2.8539 10.7396
26.1244 18.5146 -39.4733
-3.5759 -4.2938 43.9848
-27.8677 16.7152 -40.9773
-26.8977 -12.3092 -31.7707
-9.1919 -19.2557 -5.7430
0.5279 23.2663 -11.8530
-24.6297 25.4419 -50.1791
-0.3194 2.3502 54.1394
-11.2949 -11.0984 11.6297
17.1335 26.6424 -38.3876
-5.1967 3.9228 41.0697
-4.0266 3.7102 44.3402
13.3507 -35.4670 -58.0283
-28.5477 -25.1971 -58.5985
-6.7778 -0.6469 40.1304
-2.1712 1.8202 52.6824
-2.9988 -0.4805 52.0389
-0.3158 0.3493 60.1414
15.7314 -31.1017 -48.4215
9.1534 9.7526 19.3964
-28.0133 -20.2031 -47.4256
-4.5642 -7.7713 33.1716
-7.1692 -1.8395 38.2584
12.0328 28.2625 -35.3606
4.5296 -24.8398 -18.0956
0.2463 38.1194 -58.7345
-1.9067 3.7414 48.3693
-8.9388 26.0112 -25.2154
-11.1666 0.2653 26.3604
-4.0403 -18.3958 2.1598
-9.9481 7.8545 21.6073
-36.5302 -4.3382 -54.5246
-0.8273 0.8855 57.8018
26.5896 -20.9713 -45.2973
6.9577 -4.5809 35.3257
3.1156 9.3543 30.4974
9.1025 12.6502 12.4201
-3.8361 18.0736 3.2905
24.4365 18.2859 -34.7397
-14.2920 -24.1744 -27.0431
-23.2729 -4.6289 -13.2942
10.0178 0.3932 29.9732
-3.0380 -13.7936 17.0317
-36.9753 -9.0076 -58.5339
-4.0276 -0.4176 48.8429
-2.5959 -4.0781 46.3645
4.5651 -10.4920 25.5003
-7.4697 -6.5372 30.2863
-7.3540 -5.1782 33.2297
-0.6852 23.8594 -13.7378
16.8300 9.7088 0.2801
1.1108 -6.2729 41.5138
-11.1947 11.5509 10.8387
11.3640 6.9622 19.5483
-6.3108 3.1254 39.3923
26.9578 -24.1547 -52.6598
-0.8664 3.5671 50.0379
9.1478 4.2860 29.7314
-10.8455 -9.5764 15.9452
-2.9330 -12.5013 21.0840
7.2373 -3.4802 36.2721
-13.2145 -27.1555 -33.7272
20.3135 -21.7899 -32.4321
-7.1953 -17.7643 1.1119
6.0003 1.4526 42.1351
-9.7037 19.2103 -6.3266
-13.7217 24.6481 -27.4441
-22.1087 -23.7111 -40.7343
-0.4311 5.3797 44.5875
-5.3639 -33.8178 -46.4847
-0.1469 0.2679 60.6636
-21.1502 3.9959 -6.3340
-3.3594 3.2041 46.9701
-12.6056 5.4728 18.2374
-11.9927 -32.1967 -46.8545
-1.9817 2.4382 51.7075
25.4456 11.8050 -26.9402
4.0233 -4.0596 43.5817
-5.0466 -19.9610 -3.3809
2.0227 -0.9439 54.5804
25.1911 8.3710 -22.1880
13.7552 0.5191 18.1659
9.2204 3.6976 30.2613
9.1600 -17.1844 0.1423
-0.5995 6.5704 40.7962
0.0969 0.3997 60.3296
8.0801 -7.1158 27.6328
11.7712 18.8291 -8.4856
15.2461 32.7245 -52.3613
-8.0670 -13.8533 11.0113
3.0442 4.9266 43.3427
-17.2792 17.5144 -16.0558
-9.4576 7.5659 23.3866
-24.4183 -4.5326 -16.7885
-10.7420 -3.1503 26.2822
21.9235 -9.2031 -13.4458
5.9519 0.0399 42.8349
-3.8007 6.2470 38.5399
-27.8684 20.5609 -47.7219
-21.4627 -1.1162 -6.2308
0.0458 -3.0974 51.8473
5.0865 0.0238 45.5676
-11.8713 -5.9629 19.6821
9.8005 -5.7613 25.7327
3.6849 9.7956 28.5831
0.9657 1.3036 56.5057
0.2519 -1.5954 56.5285
-17.1486 6.2643 3.9828
-5.2567 -18.7290 0.2071
-0.9749 -20.6641 -3.6903
6.3458 5.4969 35.1196
5.3939 -24.6765 -18.1263
2.4000 -1.2166 53.1324
14.3988 -17.8391 -10.7567
-29.5374 -3.3204 -32.2222
6.7665 -1.8559 39.4743
-0.9069 3.3994 50.5193
17.2725 -4.0913 5.5819
10.4285 -10.6181 14.6366
-11.3959 -11.3278 10.8936
-29.1353 -12.1382 -38.0294
19.2615 1.1231 0.7076
-33.0510 7.9587 -45.7118
19.4057 -2.9755 -0.3605
32.1556 -15.5105 -51.0958
-5.0811 20.9217 -6.3514
-11.3021 29.7223 -38.7746
-5.4386 8.0127 31.0512
-8.0771 -30.5105 -38.0260
-25.2772 -24.5172 -49.5586
-16.8403 -21.0617 -23.5173
2.4366 6.6276 39.3324
-13.5989 21.9584 -19.9235
9.2399 -6.7614 25.4768
5.5759 -0.0073 44.0226
22.7117 -9.5025 -16.1067
0.5674 -38.3472 -59.4646
-14.9415 0.9265 14.3605
-26.2983 3.7422 -22.2439
4.4445 18.3785 1.9261
-7.8036 -11.3816 18.0558
-3.7284 -14.6536 13.8860
23.6701 0.7816 -13.1498
-25.3402 8.2821 -22.5475
-10.6125 13.7255 6.8472
-13.1232 -11.2751 6.9992
33.0816 3.8156 -43.5178
24.7451 3.9626 -17.4987
-13.9806 -5.6723 13.9903
18.5635 13.5492 -10.9371
3.8864 -4.4665 42.9342
31.0748 -6.6802 -38.7307
2.6063 20.8015 -4.5650
-0.4314 0.2643 60.0307
-4.9704 29.1237 -31.6581
-25.9767 9.8650 -26.1074
-19.7022 -24.0514 -36.5401
4.7053 -8.7048 30.3848
-2.0365 -10.6130 27.5069
-27.9213 17.6203 -42.6191
1.7095 -2.1815 52.8772
5.9019 4.0590 39.0115
4.9810 -25.4107 -20.1317
3.2690 0.3786 51.2375
4.1376 -26.8135 -24.0363
-3.9520 -4.3458 43.0811
2.9435 31.4630 -38.1485
2.6791 1.0034 52.5954
-15.8005 5.8340 8.4466
-10.4692 -10.6466 14.4822
-14.6685 20.2218 -17.2504
16.4092 -28.6783 -42.6971
-1.0121 -25.1942 -17.9853
1.5621 8.5381 34.2222
17.5623 -34.8022 -61.4568
-9.6067 30.4923 -39.3151
-1.0433 9.2603 32.2043
5.5733 28.8645 -31.1934
-8.3304 -16.2970 3.8385
11.3598 1.3610 25.5036
3.8136 8.2591 32.9046
-0.4090 -16.7831 8.6205
18.2419 -5.8222 1.1676
14.4165 -19.8024 -15.7113
-6.3285 -10.5594 22.7581
-0.1966 29.2033 -30.5820
-6.0041 2.2404 41.3936
3.5243 -16.8439 7.2927
-1.5306 -5.0963 44.8266
-10.1302 28.2589 -33.1577
-29.9729 -21.5561 -54.9430
10.2391 4.3033 26.5594
0.6976 0.2863 59.2472
15.9935 7.1259 6.3440
-0.6540 2.8054 52.5328
-14.0866 17.6975 -9.7914
10.6680 -2.3553 27.1334
1.5365 -21.8157 -7.4246
7.5874 17.7556 0.6615
-0.7324 23.5443 -12.7479
27.2518 -20.4206 -45.8950
-9.8755 -26.5368 -27.7746
11.7217 -16.8127 -3.0852
22.2270 -27.8290 -50.8275
15.1605 -3.2269 12.6874
-6.8681 22.9013 -13.8635
-10.2724 -2.4508 28.2833
-0.9709 -0.9196 57.4056
-32.6625 -8.8199 -45.1959
10.4114 -22.5071 -16.6721
1.7933 -27.3260 -24.8379
15.4577 9.5937 4.1852
1.3955 1.7839 54.4769
-4.4761 -14.3212 14.2524
10.1317 -20.3656 -10.1933
-14.0190 -1.0725 17.2344
-8.7485 -2.2804 33.0821
-2.1922 -7.4889 36.9901
36.3019 7.9090 -55.6822
-27.0784 -8.8796 -28.3502
2.7684 -5.3298 42.6649
24.5973 13.0854 -26.3426
-29.9160 -11.8027 -39.9158
-17.6264 2.0137 5.6117
-6.0224 21.0594 -7.5313
-5.5831 -5.3947 37.1149
-4.0583 -21.0597 -6.0901
17.5879 -20.6945 -24.1242
10.2170 20.1099 -9.5928
5.1398 -2.5200 43.5538
-33.8282 -2.7682 -45.5397
-7.3874 1.6537 37.7255
-15.2658 11.6375 1.0185
4.5014 -12.4776 19.7454
37.7134 -5.5667 -58.7403
14.7274 -3.9951 13.4464
-13.1242 30.8987 -44.3689
-0.3045 0.5567 59.6248
16.8601 1.9916 8.0230
12.8513 23.0377 -21.6645
31.4166 -11.9723 -44.5270
3.6280 3.5580 45.5835
-34.6484 -4.0350 -48.5119
7.7542 6.6895 29.2930
-27.6899 11.8089 -33.4202
-4.6283 -6.5716 36.2490
-20.1539 26.2306 -42.8172
-28.0453 -4.6081 -28.1108
23.6540 -0.8397 -13.1052
30.9763 6.6223 -38.3882
35.5518 -11.6014 -56.4507
19.8056 32.9453 -59.7453
-6.2379 27.3648 -26.9913
15.7084 -31.3004 -48.9488
-26.5084 -4.4868 -23.2612
8.7794 -37.5514 -60.1359
-10.6042 24.5292 -22.7491
-5.0476 3.6856 41.8943
-1.6703 1.7297 54.0358
-34.3334 9.8208 -51.1256
1.1679 -18.7947 2.1704
16.7609 10.7705 -1.2783
-0.6751 15.5522 12.4766
-17.9670 -10.4963 -4.0730
-26.0079 1.0618 -20.5591
-19.2282 -18.0447 -21.6313
-23.7306 14.4401 -26.0818
9.3678 -7.7488 23.2420
3.9328 -2.8588 46.2764
-0.7947 -3.0837 51.5734
-27.3124 -9.3826 -29.5562
-8.2125 32.8802 -45.3788
-19.8936 15.6525 -18.2969
-1.1333 -3.7914 49.1337
-15.4709 1.2283 12.6259
3.4879 -0.3870 50.5476
-24.6273 14.9904 -29.4038
-4.0273 -0.0542 48.9111
11.4611 18.4970 -7.0778
-13.2615 -3.6292 18.2161
21.3940 -25.8515 -44.3231
7.3513 5.2861 33.0390
31.5676 7.5140 -40.8297
16.5922 15.4400 -9.9349
-1.6900 8.5633 34.0684
24.1331 22.1129 -41.7217
-2.4511 33.5453 -44.5719
-4.4672 20.3668 -4.2077
-14.8881 0.2231 14.6144
0.5723 0.4034 59.4174
-7.1346 23.2499 -15.1608
26.9100 10.2424 -29.2852
18.0384 -14.6607 -11.7662
0.3276 -8.3588 35.2153
-0.9530 3.8958 48.9647
1.2562 -0.4537 57.4110
-8.7433 -8.9645 22.0896
1.9605 -5.6445 42.7616
-11.6617 22.6861 -18.9120
31.9083 -0.4928 -39.1327
4.5656 -6.8710 35.5804
10.9101 -4.2423 24.6675
17.2190 9.6952 -0.7657
9.0959 10.6157 17.4883
20.9715 17.6191 -24.8559
-3.2800 24.5507 -16.5782
-12.2051 -15.2270 0.0111
6.0165 -5.8141 35.2107
30.3065 17.1328 -48.2956
-10.1145 15.6378 2.8246
-18.0886 8.3130 -1.2284
1.4180 2.1000 53.6275
30.8830 -2.8186 -36.2887
-29.4584 -2.3260 -31.6747
-5.2778 -1.0301 44.6493
0.7270 3.3677 50.7497
6.8752 16.7063 4.5866
-15.5583 -9.7804 3.6034
-7.7988 -28.2033 -30.7643
-22.2467 -13.3570 -20.3030
10.5999 -7.2647 21.0535
-5.3654 10.9145 23.2272
0.8471 -0.3820 58.6941
4.3356 -8.6022 31.2123
-22.2660 22.8204 -39.0417
-15.8065 -14.7544 -6.6443
3.5018 -2.5056 48.0326
8.3052 20.5587 -8.3817
-29.7799 14.5387 -43.0078
11.3607 2.3620 24.9902
-0.7861 2.6755 52.8234
4.5601 -3.5214 43.4364
15.4839 -24.0821 -28.7710
-1.6049 4.6982 45.9523
-1.5133 -4.4481 46.7931
-23.0694 21.6767 -38.3230
0.2071 0.8331 58.9177
19.7772 2.8852 -1.4785
-21.1097 -12.7458 -16.2321
0.1582 23.2122 -11.6649
9.0153 0.8459 33.0378
16.5116 -14.4795 -7.7130
-37.4634 -5.3768 -57.8729
-8.7471 -3.0812 32.3462
37.2384 8.7091 -59.1230
4.2278 -0.4936 48.1884
-24.5907 29.4829 -59.5925
-9.3804 -16.1495 2.6591
27.3380 -3.6378 -25.4510
6.0841 8.5482 28.4993
-2.3322 2.6602 50.4578
-11.2752 10.7950 12.3412
5.2066 -4.1079 40.6880
31.5549 4.2646 -38.9106
1.5005 4.2956 47.2614
16.0733 24.4842 -30.8494
-15.6019 -26.3400 -35.0338
-8.2345 -7.9670 25.4509
9.8212 3.9274 28.2307
-13.4912 -4.4786 16.7446
9.0643 -11.4892 15.4211
-0.4877 13.0220 20.4830
-2.6810 4.1526 46.0213
-4.1001 1.3110 48.0368
1.2682 3.7497 49.1299
-5.2715 -1.6285 44.2075
-6.4635 -13.6166 14.0366
18.8988 -14.7468 -14.0607
4.2257 34.1110 -46.8989
6.6706 -30.2905 -36.3043
-8.5850 35.5449 -53.8302
7.0898 22.9341 -14.1664
10.3042 1.1740 28.8826
-1.7584 3.2764 49.8875
-10.4473 -34.8025 -53.1035
-12.6846 -15.7765 -2.2894
5.8351 10.0365 24.9719
-8.5936 1.7606 33.9308
27.3079 -8.9330 -29.0915
5.7554 1.7971 42.5906
23.8567 -30.3108 -60.1646
-3.9670 -7.0233 36.1595
0.1241 -4.4166 47.6775
15.1477 -21.4766 -21.3534
1.7317 4.9873 44.9587
0.8589 -7.3581 38.2377
17.9324 -19.0321 -20.9372
-22.9883 3.6170 -11.8492
7.9873 -15.0307 7.8847
-20.8955 -24.6708 -40.4542
10.9196 -17.3783 -3.1759
-0.6815 0.6866 58.5737
15.3483 25.2886 -31.7749
-4.0235 -3.3183 45.1610
-17.0333 18.2616 -17.2208
3.4238 -2.4798 48.2800
-4.5221 -13.0621 17.9836
-1.3325 -3.5018 49.7979
6.0731 23.7858 -15.8838
29.3537 23.7097 -57.5123
-15.5520 -14.7498 -6.0491
-15.9895 13.7279 -4.9124
13.2682 16.6805 -5.6696
12.2389 -16.5285 -3.3097
-5.8050 35.3067 -51.3477
-10.1612 19.6717 -8.2811
-9.4568 24.0829 -20.0648
-1.4077 -4.3060 47.3240
-9.2218 -34.1705 -50.1235
4.1865 34.5216 -48.1706
0.8591 -6.5777 40.6831
17.4056 -11.4718 -4.1920
-12.3774 22.0178 -18.1238
-25.4404 -6.6339 -21.3849
23.6592 -11.7559 -21.7884
-6.2209 3.7129 38.7535
-1.7461 11.8609 23.7742
1.0029 -30.7008 -35.3599
-23.1735 0.9381 -11.6009
2.5185 13.4017 18.5723
1.3372 -12.8754 20.7560
-1.0539 -1.6197 55.5267
27.0674 6.4945 -26.2614
-12.2147 -32.0699 -46.7269
19.3931 -7.6494 -4.1958
11.7291 -1.0784 24.4379
-0.3678 2.0756 54.9726
1.6529 -36.3824 -53.3659
-10.4637 -0.2487 28.5803
18.0188 -11.2765 -5.4879
-7.4131 -8.7277 25.4721
-34.0187 7.6735 -48.4829
-9.2393 -0.7196 32.3671
-24.1449 -6.7042 -17.4923
-9.3820 17.0291 0.2393
-0.3385 29.0396 -30.0694
-14.6672 -12.0433 1.7058
-3.3772 0.2715 50.9305
-18.9752 -3.6556 0.6132
-2.0732 -1.8654 52.8225
-1.6289 0.4653 56.2794
-3.3612 -28.2180 -28.0987
-22.8418 27.4214 -51.0571
-4.0090 -32.6875 -42.3544
-0.0009 11.4158 25.5832
7.1929 -3.0609 36.9462
12.0644 2.0928 22.9666
13.0634 -26.2372 -30.9151
3.8892 -5.2293 41.0511
-15.6876 28.5873 -41.3327
-2.9969 -0.2899 52.1213
2.4550 13.6765 17.7550
-1.3562 -13.5835 18.5256
-2.4698 -7.5609 36.5137
-1.0656 0.9578 57.1043
-18.7676 -9.5059 -4.7975
-1.7304 -0.9752 55.3564
1.9755 3.3851 49.2529
24.5152 -18.1536 -34.6896
19.4787 32.8471 -58.9498
-34.2877 -2.2936 -46.8755
-33.7302 -8.8872 -48.5080
-34.3433 -5.5852 -48.2337
4.9539 1.7349 45.0551
13.5676 6.8861 13.5874
-5.2116 -29.0798 -31.6527
-0.2034 5.8453 43.1607
-4.8571 -3.8510 42.0568
-0.1127 -0.8899 58.7960
-23.6814 7.6281 -16.9281
-18.7225 19.0266 -22.6553
-0.1268 0.9118 58.7214
15.1500 23.2141 -25.8974
0.6850 4.2825 47.9345
-1.9419 0.0570 55.4940
7.5861 37.5972 -59.4757
-12.5904 -6.5098 16.8752
-0.1648 18.6924 2.6055
17.5832 -17.6080 -16.9415
28.2567 0.7639 -27.6235
-6.8494 -6.6619 31.4593
-25.1495 -25.1236 -50.6143
11.1970 24.9299 -24.6617
13.7902 31.1713 -45.9950
5.2509 -14.7496 12.1939
-19.1871 -4.8947 -0.8944
8.1305 -11.1359 18.0928
2.7905 3.0283 48.6260
-10.9790 -28.7451 -35.5280
1.8953 32.7001 -41.7942
-1.1377 1.3716 56.0014
3.4434 6.1627 39.3384
1.7292 -2.3610 52.3879
-5.2386 34.0850 -47.2572
21.8517 -29.3043 -53.7912
-15.6069 22.1053 -23.8110
1.1506 2.0818 54.1180
24.6857 -29.2564 -59.2375
-25.0730 24.5125 -49.0862
-10.7755 -14.5730 4.4020
-8.0775 -36.9211 -57.7058
23.4454 -26.3066 -61.6282
-28.7170 -20.2502 -61.6282
-8.7750 -8.5933 -61.6282
1.8565 -4.4726 -61.6282
18.9941 32.4290 -61.6282
5.6852 -1.6836 -61.6282
4.3924 36.6109 -61.6282
4.4894 3.1452 -61.6282
-35.4832 -11.9812 -61.6282
-1.1792 -5.4145 -61.6282
20.5781 1.8699 -61.6282
-35.2065 1.7002 -61.6282
0.8101 -2.0827 -61.6282
-17.7524 2.6017 -61.6282
18.0275 -21.1055 -61.6282
-0.1433 3.5382 -61.6282
-1.9226 -30.7181 -61.6282
-7.3970 11.1327 -61.6282
11.4783 36.4786 -61.6282
-25.1737 3.4680 -61.6282
-36.6466 -12.6211 -61.6282
3.8391 7.6692 -61.6282
0.2252 -5.3976 -61.6282
-0.4516 1.0693 -61.6282
22.3259 19.0263 -61.6282
31.9185 -20.6181 -61.6282
-8.6551 5.5450 -61.6282
-10.7556 -3.7886 -61.6282
-3.4928 2.2080 -61.6282
-8.6966 -18.3410 -61.6282
-17.4648 -22.8367 -61.6282
-13.5865 -16.7130 -61.6282
-14.5079 -12.5021 -61.6282
32.4959 -3.5344 -61.6282
-6.0188 -26.1574 -61.6282
4.3128 3.4038 -61.6282
-23.8000 -7.0949 -61.6282
-33.4706 -6.8307 -61.6282
11.4204 -35.1918 -61.6282
2.7696 3.8115 -61.6282
9.6773 -4.2983 -61.6282
-13.8254 9.0338 -61.6282
5.3708 -29.5258 -61.6282
-4.0683 -25.9953 -61.6282
-3.8551 -4.0667 -61.6282
24.0012 20.7035 -61.6282
-32.8181 19.4442 -61.6282
6.2837 28.7971 -61.6282
2.1211 -3.1804 -61.6282
25.7546 -16.9270 -61.6282
31.9949 0.9107 -61.6282
17.0046 7.6238 -61.6282
-24.1438 -30.0279 -61.6282
-12.3940 32.5252 -61.6282
-12.8349 -13.2013 -61.6282
20.4900 17.6040 -61.6282
1.0255 -30.6358 -61.6282
10.1448 1.6938 -61.6282
6.6804 4.6703 -61.6282
18.3656 -9.8665 -61.6282
-16.5128 16.2056 -61.6282
-27.1522 -8.6538 -61.6282
-9.5400 -33.3489 -61.6282
-2.2198 -5.3792 -61.6282
3.1230 3.1035 -61.6282
0.1821 0.0838 -61.6282
-13.1808 25.9316 -61.6282
-10.1099 -23.2656 -61.6282
7.3682 -3.0461 -61.6282
-13.7922 -10.8378 -61.6282
-17.7733 -15.9777 -61.6282
12.6464 -5.7650 -61.6282
15.5527 -21.9041 -61.6282
7.8581 0.8648 -61.6282
-6.5195 17.7940 -61.6282
3.3832 -0.3396 -61.6282
-23.6473 -23.1200 -61.6282
33.2959 -15.5336 -61.6282
-5.2621 -31.1879 -61.6282
-23.3636 -7.0914 -61.6282
12.5007 -36.3935 -61.6282
-14.5612 -5.3029 -61.6282
2.1006 7.6096 -61.6282
-0.6500 -4.0336 -61.6282
-17.0510 34.8300 -61.6282
-12.3887 -14.8720 -61.6282
-8.3039 -37.3162 -61.6282
0.6344 -7.1041 -61.6282
1.6521 -2.7371 -61.6282
0.7866 20.9141 -61.6282
22.2176 -3.4743 -61.6282
-4.1605 1.4598 -61.6282
5.1545 -9.8934 -61.6282
-18.6236 -17.5079 -61.6282
-26.7519 8.8708 -61.6282
-2.3945 11.7299 -61.6282
25.0457 -4.9618 -61.6282
-6.5902 -3.9670 -61.6282
-2.1629 11.5063 -61.6282
-2.7432 -6.9960 -61.6282
-11.4479 0.8094 -61.6282
-8.3812 4.3989 -61.6282
-7.0818 28.2681 -61.6282
-32.5880 9.7656 -61.6282
-11.4366 16.3499 -61.6282
-20.2713 8.3035 -61.6282
29.9454 -22.7869 -61.6282
-29.8070 19.7583 -61.6282
-18.5022 4.3471 -61.6282
10.9467 -35.3731 -61.6282
-3.7559 -8.8660 -61.6282
3.3179 -4.0604 -61.6282
-8.2085 13.7409 -61.6282
7.5360 15.2618 -61.6282
-15.8294 -28.4259 -61.6282
-0.0987 1.5427 -61.6282
-2.8417 23.5931 -61.6282
-13.2533 24.2271 -61.6282
-26.5157 -8.4079 -61.6282
22.8434 30.7965 -61.6282
-9.2942 -0.6347 -61.6282
-14.5843 22.9377 -61.6282
3.6072 6.8925 -61.6282
-3.9489 -27.8305 -61.6282
-37.7185 -3.7857 -61.6282
-2.0419 -2.7109 -61.6282
-1.3694 17.7233 -61.6282
-23.6706 14.6528 -61.6282
15.0751 20.3272 -61.6282
-18.7170 -24.9781 -61.6282
3.1212 1.1726 -61.6282
1.0852 5.8875 -61.6282
-0.9254 1.6676 -61.6282
-15.7302 11.3499 -61.6282
16.2755 -23.4091 -61.6282
-6.5276 -9.9553 -61.6282
-0.1072 -32.2428 -61.6282
-3.8302 -4.2386 -61.6282
1.5806 4.4012 -61.6282
6.9995 -0.4281 -61.6282
-22.8813 7.6286 -61.6282
-25.2401 -23.1886 -61.6282
25.5351 -20.6274 -61.6282
-27.9166 -9.4593 -61.6282
-14.8063 18.4382 -61.6282
-2.8799 12.5607 -61.6282
21.3940 17.2687 -61.6282
-15.1645 -28.6488 -61.6282
-30.5623 -17.8994 -61.6282
1.3941 1.2419 -61.6282
24.2357 9.6348 -61.6282
-0.0275 10.0307 -61.6282
-0.3060 -30.5932 -61.6282
-4.5598 -3.2254 -61.6282
-30.2312 -21.0597 -61.6282
-0.3647 25.5781 -61.6282
-30.9080 -19.3367 -61.6282
-1.9864 2.5925 -61.6282
3.8850 6.9673 -61.6282
-19.8685 -7.9333 -61.6282
13.0422 0.1747 -61.6282
-3.7233 2.1953 -61.6282
7.7105 7.0146 -61.6282
7.4126 -22.3133 -61.6282
-28.4756 13.9322 -61.6282
1.4942 33.6068 -61.6282
10.3246 -13.7400 -61.6282
-30.3864 -7.0927 -61.6282
9.8081 -4.3186 -61.6282
5.1052 -16.7442 -61.6282
-13.4921 0.2093 -61.6282
19.3587 -19.0122 -61.6282
0.5779 -30.9027 -61.6282
23.8567 26.1864 -61.6282
18.8935 3.4431 -61.6282
-7.3137 -10.5198 -61.6282
-27.5230 -25.4305 -61.6282
-4.6851 14.9586 -61.6282
-11.9365 2.2008 -61.6282
-11.6407 -35.1345 -61.6282
8.6349 26.8117 -61.6282
-22.6327 1.4976 -61.6282
31.6576 -6.5189 -61.6282
15.6864 -3.2438 -61.6282
31.5646 -4.2695 -61.6282
4.6629 -12.0884 -61.6282
9.1856 1.0696 -61.6282
-4.0111 11.0661 -61.6282
-2.7174 -3.3097 -61.6282
-3.0462 6.1999 -61.6282
-32.5954 -12.3703 -61.6282
-14.1568 -7.7702 -61.6282
-21.4691 9.0297 -61.6282
-3.5336 -5.6124 -61.6282
-6.9810 -5.8351 -61.6282
14.6400 -23.2842 -61.6282
6.6670 14.2359 -61.6282
-31.4360 -16.2111 -61.6282
7.3240 29.3746 -61.6282
-10.4516 15.2507 -61.6282
27.0649 8.0343 -61.6282
-29.4355 -3.3745 -61.6282
-5.9502 -5.7477 -61.6282
-0.0504 -25.6585 -61.6282
27.8184 21.0918 -61.6282
4.8199 32.5064 -61.6282
6.3604 -8.0652 -61.6282
5.8696 8.4726 -61.6282
-34.1892 -5.0893 -61.6282
13.5184 7.0660 -61.6282
19.2803 -27.3559 -61.6282
-16.7622 20.8896 -61.6282
-12.3727 30.5274 -61.6282
1.2859 -1.6832 -61.6282
-36.7643 -7.7586 -61.6282
-14.7231 -20.5317 -61.6282
-3.7400 1.4058 -61.6282
-24.6711 11.2391 -61.6282
-26.7675 2.5810 -61.6282
5.7884 -25.1251 -61.6282
5.5891 20.3179 -61.6282
32.3781 -21.4510 -61.6282
-9.7107 -3.2336 -61.6282
21.0564 3.1668 -61.6282
7.4273 -1.2871 -61.6282
-9.4520 3.3695 -61.6282
30.2613 20.8850 -61.6282
-0.9789 -0.2007 -61.6282
-24.8981 -6.8332 -61.6282
21.0532 8.3604 -61.6282
21.7905 12.2241 -61.6282
24.5943 -9.5162 -61.6282
-10.4843 -13.7024 -61.6282
-11.8787 -9.3140 -61.6282
19.9536 21.8141 -61.6282
5.8407 -7.6029 -61.6282
18.6380 10.5627 -61.6282
3.0921 -2.9899 -61.6282
-23.5760 4.2728 -61.6282
-5.1490 15.2213 -61.6282
0.2117 -7.6458 -61.6282
10.0532 15.6429 -61.6282
34.4859 3.2870 -61.6282
-15.9145 -16.0589 -61.6282
7.4114 16.3961 -61.6282
-30.7695 -0.6529 -61.6282
-3.5464 -4.8718 -61.6282
9.8806 -0.6029 -61.6282
1.5903 5.8864 -61.6282
-9.2224 -32.0898 -61.6282
2.7989 8.0572 -61.6282
6.3870 13.5451 -61.6282
-11.1390 -4.9695 -61.6282
-4.6070 -6.1752 -61.6282
19.0373 -27.8614 -61.6282
-10.8360 -12.0510 -61.6282
