ply
format ascii 1.0
element vertex 1024
property float x
property float y
property float z
end_header
4.3024 4.3967 55.8110
-1.8622 38.9795 -24.3589
-1.3623 10.6529 44.6215
-12.6908 28.4456 -5.1512
-11.2877 -21.0832 12.4898
0.0429 4.5695 59.6688
27.3025 -37.0152 -41.3601
-49.1521 8.1339 -50.6899
10.5264 -1.6700 44.8205
6.1436 -5.2797 51.0576
13.6371 -14.1384 22.9068
10.7893 23.9363 6.7809
46.5828 5.7858 -43.6664
30.6317 34.6907 -42.0526
15.6065 5.7058 30.2880
-28.6437 16.5377 -9.8504
15.7468 -34.7536 -22.2387
30.5634 -30.2350 -34.0352
-34.1910 21.1932 -27.2918
-1.7556 2.3877 63.5857
-2.6980 -34.4921 -13.5634
-11.0708 12.1903 30.6531
-14.4418 -23.1648 4.2389
-0.3164 0.0847 70.0146
-33.5521 14.6233 -18.4481
-33.2418 32.3852 -42.3701
5.0354 -45.8697 -41.7264
-1.6610 32.1479 -7.6940
-39.8940 -28.8706 -49.2854
16.1547 -38.6286 -31.3012
-8.8439 -0.3755 49.2254
-7.4415 -0.5836 52.6093
-7.0935 -0.3303 53.4950
26.9820 51.0264 -69.9576
-21.0507 3.7067 18.6848
-0.4508 27.0157 4.9178
-16.7107 -48.3442 -53.9341
-5.7701 7.1422 48.4208
12.9832 11.5104 28.4980
-13.2989 51.6268 -59.2051
-42.6939 -31.8075 -59.0289
7.4086 7.3227 45.4088
-4.1775 8.8045 47.0465
-25.1395 30.0200 -24.6809
2.7571 1.2072 63.4731
10.9926 -12.4881 30.2389
23.1490 31.5069 -24.5366
-33.6899 23.7808 -29.7574
6.0133 44.6429 -39.0456
12.9999 40.1374 -32.0805
-2.1769 -7.2410 52.3732
2.3433 -8.0899 50.2726
-8.8278 42.3914 -34.7894
22.9732 38.6820 -38.9079
-1.8380 -44.7394 -38.3899
19.4234 49.0268 -57.7956
-0.1530 -1.4314 67.3026
-9.9546 -28.6415 -3.1365
39.7033 -12.3559 -30.5962
22.0961 -47.3578 -56.6366
2.4295 -6.2044 54.5634
-7.3807 -28.8780 -1.8786
22.4416 -32.7621 -26.0350
-7.9736 54.7631 -64.1520
-28.0834 -16.0761 -8.1048
-32.0539 12.7504 -13.3178
7.3043 18.5528 22.1861
-17.9792 21.0184 3.3581
32.9584 40.7035 -56.9171
0.6192 0.3801 69.0415
-14.4666 -15.1460 19.7330
12.4837 2.6067 39.7113
3.3101 -3.5882 58.9076
-23.1202 51.6588 -67.2153
-47.1728 4.0136 -44.6480
-16.7081 31.3520 -15.8285
36.5122 -15.2887 -25.7244
-37.7557 -15.7653 -28.9707
-0.8072 16.5728 30.3475
-12.5532 -3.7013 38.8956
10.6778 -11.0362 33.3626
6.7740 -44.7002 -39.4468
0.9901 -8.9794 48.7816
-1.5652 -14.2886 35.7579
4.6959 -20.6220 19.2326
-27.4363 33.1898 -34.2063
-39.1736 15.4629 -31.8973
37.4655 -22.6465 -35.9534
42.2995 -16.1647 -39.6233
8.2875 1.3037 50.3533
-0.5712 9.8306 46.7981
16.1168 33.8259 -20.5671
5.6430 0.3147 57.0299
28.8821 -4.1581 -0.3509
-0.9371 -4.1246 60.4980
-49.6794 25.8061 -65.7167
-16.4089 41.0230 -36.9408
-27.6670 2.1242 3.1402
8.1569 -1.1562 50.7214
2.2334 -40.5377 -28.2006
8.7490 14.8946 28.6851
1.3231 -6.3616 54.9666
20.0464 50.6403 -62.0135
19.7737 47.9154 -55.6031
0.3499 -0.1966 69.8346
-17.7632 -5.6485 25.3547
30.3294 30.8129 -34.6300
42.0873 -3.8171 -32.2510
-13.3574 -18.3886 15.3842
-20.7421 -5.4731 18.4960
-0.0599 -0.5258 69.5229
-16.0713 44.4060 -44.3591
23.2189 23.3565 -9.5064
35.8903 16.0687 -25.0887
-5.9361 -45.5061 -41.1078
-27.6226 41.8317 -51.4417
2.2335 -9.1127 47.9316
-13.9408 -9.4033 29.8030
6.5875 -23.1612 12.0873
10.7994 3.6386 43.0209
33.5972 12.0020 -16.1952
11.5175 24.9830 3.7214
-38.2253 -3.6925 -22.8449
13.4023 -1.3143 37.9709
-6.5560 4.7540 51.0633
19.6329 -11.1166 15.7896
-46.0238 -16.4050 -48.3475
-8.0478 -10.1130 39.2933
12.4776 12.1610 28.3205
-44.2943 12.0684 -41.1501
3.3502 22.3828 15.6178
13.9062 43.7741 -41.2012
17.6578 -16.4438 11.9678
3.4140 -1.1165 62.0533
-26.6732 -34.1827 -34.9288
48.6650 25.6162 -63.3098
-8.5667 7.4173 43.1779
10.1569 -4.7903 43.4260
-0.4204 -12.8083 39.5595
-12.5520 -4.8085 38.0321
41.5236 -39.8861 -69.6064
-3.4121 -6.8548 52.1392
36.8921 -41.1828 -64.0303
19.4851 -20.0026 2.7110
-5.9150 5.6852 50.8051
-4.3776 2.2004 58.8645
-6.8883 -5.4914 49.3292
-16.2240 -48.8519 -54.7257
2.1382 -13.5220 37.4261
-19.7001 -38.5846 -34.8428
-44.4474 -27.2826 -56.3777
13.2801 -37.8835 -27.0899
-6.0758 30.3987 -4.7896
11.9199 1.9754 41.3464
-20.0137 0.2231 22.0006
21.0438 -46.8945 -54.5413
7.9285 39.1678 -26.6470
-4.7476 13.5334 35.8360
-19.3117 28.2954 -12.7341
27.7778 -28.2708 -25.8462
-0.7635 -7.1939 53.1702
22.9170 3.8182 14.1527
-48.6943 23.1807 -60.7128
-8.8715 36.9034 -21.7512
3.2161 54.4786 -62.2813
-15.8804 -37.9702 -29.5618
-47.1463 29.1469 -64.3664
-39.9820 -23.1808 -41.8988
2.0087 -6.9991 53.0549
-30.6768 37.8194 -47.9490
29.4447 -32.1915 -35.5840
-26.8471 -29.3928 -26.2718
10.6128 -2.2613 44.3497
32.2680 -28.4723 -34.1377
19.5120 44.4247 -47.5200
5.9054 -5.2814 51.4919
-23.5690 28.6159 -19.5995
-2.3755 0.6492 64.8075
8.4454 28.7852 -2.3476
42.0139 -36.4905 -64.9025
41.5697 4.8513 -31.2556
30.2638 -13.7763 -10.2817
46.4753 -23.8319 -56.5646
0.0287 2.3491 65.0840
-0.6299 -19.3975 23.4816
-4.5770 -12.3042 38.7969
-11.1600 1.4064 43.3810
30.0200 -23.5187 -22.1924
6.0631 -36.6533 -19.7920
1.9745 11.1748 43.1382
1.4390 0.9252 66.6412
22.7428 28.4076 -17.9349
-54.4472 8.9371 -63.7502
-2.1215 4.2830 59.1567
36.2865 -5.4099 -18.6608
2.7917 3.2578 60.3502
-34.9956 19.5022 -26.8924
22.8124 -43.2384 -48.4136
-1.2366 5.6850 56.6246
7.9037 49.8458 -52.2701
-23.6193 -0.4761 13.1985
-1.3443 -0.9907 66.7409
7.2543 -9.4882 41.6852
5.2024 24.2087 10.4250
-16.1687 -42.3572 -39.7582
41.4650 -16.9561 -38.4405
4.1372 20.8780 18.9057
-24.0034 31.3213 -25.4252
-21.1165 15.8619 6.4035
-42.6573 -6.6638 -34.4817
25.9788 18.2395 -6.6003
16.8230 40.3260 -35.7492
-12.0414 50.5352 -55.8831
-46.0462 23.6992 -55.4858
-1.0139 -42.7756 -33.5377
-1.9543 -22.1614 16.5561
-3.8938 7.0783 51.1112
33.0535 19.8159 -23.1745
-1.3250 28.8104 0.4759
3.6080 17.0885 28.2189
15.8007 -31.9369 -16.0862
0.2946 0.6632 69.0438
7.7134 -11.0984 37.8515
-3.6081 3.4029 58.7179
34.4112 -8.5573 -15.6652
0.6496 0.4179 68.9297
8.7704 -29.1357 -3.3928
-46.6973 31.8539 -67.0456
-5.6056 -3.5492 54.6326
-3.3794 3.7889 58.4316
24.8067 -45.0380 -54.5852
-9.5978 51.1529 -56.1160
-6.0168 17.4067 25.8972
9.7098 -6.0861 42.8658
36.0633 -20.5785 -30.4499
21.6539 -17.5284 2.8700
10.7409 -15.4435 24.9359
18.6858 44.6415 -47.2118
13.5925 -24.0537 3.4324
24.2979 -34.9735 -33.0452
26.8376 -30.6244 -28.4951
-28.8743 -4.4891 -0.4517
-2.3422 -5.9537 55.2102
-0.3206 -10.7581 44.5648
7.5284 -7.4194 45.0352
4.1346 -2.0647 59.5426
13.8958 16.2660 18.6389
-22.4413 -36.1285 -32.9119
17.7637 31.6029 -17.6014
0.8251 2.3391 64.7643
6.4756 -47.1350 -45.2199
-56.5680 2.0428 -67.2354
-28.7574 8.5193 -2.3335
-24.9835 -3.0725 9.4243
0.1325 0.5030 69.5449
17.7367 -22.4194 1.0948
6.8451 -20.3846 18.3710
-5.4814 24.5128 9.5548
-5.7263 -21.7902 15.8668
40.4809 38.5575 -65.5290
-11.8682 -8.4881 35.2283
9.6443 -23.6182 8.5959
19.0096 17.7705 7.3500
-41.9318 -26.9167 -50.7069
9.3925 -42.6739 -35.7515
-22.0814 50.5909 -63.8089
-30.5270 -21.1461 -19.7536
30.0238 16.5601 -12.8088
1.6532 -24.5127 10.8957
38.6659 -22.2940 -38.0373
-0.6735 -34.7707 -14.0019
-5.3255 0.0386 57.8252
-43.0950 -4.6626 -34.9008
19.9239 -18.7475 4.0936
26.4385 17.8717 -7.0147
-47.0802 27.8000 -62.5296
-23.0255 -4.2938 13.6905
1.2711 7.3679 52.5790
55.0455 -16.8128 -69.5547
32.1602 40.4398 -55.1970
-37.9256 -27.7113 -43.7400
-2.6922 12.9717 38.5036
-35.7346 -0.8482 -16.3613
28.8020 -19.8105 -14.4409
-5.1739 42.3914 -33.3385
-14.8731 2.2376 34.1325
-6.4670 36.8735 -20.4868
-24.3994 -40.6506 -44.8133
17.2794 31.8786 -17.6192
-36.0190 33.0050 -48.3322
47.0537 14.7419 -49.4421
0.8811 30.5533 -3.7315
27.9412 18.6058 -11.0553
18.7627 1.7096 24.8651
26.6789 -23.7109 -16.2345
20.9104 4.8647 18.4550
18.1382 36.6768 -28.9750
0.8797 0.7553 67.9859
-19.4367 10.0631 17.4344
0.0213 -0.2572 70.1842
33.5493 34.1959 -46.0187
1.2195 12.1777 40.9658
-27.0682 9.4196 0.9161
20.6281 -51.5758 -64.6580
4.1779 1.3727 60.0885
-10.6627 -50.2310 -54.4205
37.9902 22.4905 -36.8562
-28.6431 15.8706 -9.0481
11.5704 -54.4901 -65.0407
-48.0500 -18.0885 -54.4001
27.9762 5.8184 1.1246
47.5601 -4.5288 -45.7016
11.5686 48.2128 -50.1062
41.0194 2.5183 -29.4137
-37.2190 -42.8461 -67.5997
-24.2471 46.7095 -57.5365
16.2499 15.7676 15.5929
-36.4765 -20.8335 -31.6335
7.9883 14.3138 30.8363
5.4321 -52.5111 -57.9348
10.2307 16.5004 23.4647
21.0211 -22.0226 -3.4357
9.3577 -43.8869 -38.6247
-15.5770 6.6580 29.4994
-18.2536 3.9682 25.2564
31.3764 43.9298 -60.8444
-19.7056 -3.8866 21.8293
-7.9939 38.2979 -24.6010
42.8314 -32.6257 -60.4975
-30.7739 7.9834 -6.7227
35.3700 1.7650 -15.5548
-0.6681 8.6609 49.6285
-15.1385 17.0876 15.1379
-1.7578 2.4103 63.5379
0.5421 1.4866 66.9544
18.0964 27.8690 -10.2257
37.7441 5.4114 -22.1786
-20.0774 -29.9956 -17.2154
-45.7130 14.4019 -46.0742
21.3961 48.1851 -57.7655
-41.8941 -20.6547 -43.1014
-27.6928 40.0347 -47.9062
11.3270 -24.3264 5.3697
0.5392 26.6384 5.8340
-19.3105 -50.3391 -60.6775
-27.2676 -32.3904 -32.4457
1.4246 -1.0441 66.5060
22.3653 33.6702 -27.7670
-9.4577 3.5239 46.1988
-44.9275 27.9591 -58.2411
26.8862 1.3020 5.1662
10.2995 -51.1757 -56.4973
18.3506 -30.9341 -16.9049
20.1346 -23.7008 -5.0306
-19.2513 -4.5442 22.5730
-12.3975 3.9657 39.0691
-35.4250 45.2825 -69.4012
-0.1590 -0.1358 70.3035
-1.1498 -5.0462 58.1913
8.2813 15.1605 28.6832
5.7444 -8.5996 45.5918
-37.3175 -19.2400 -31.5813
-5.5872 18.2400 24.2892
15.5426 -7.2737 28.9624
28.2067 -11.1039 -3.1159
-5.5406 -37.2525 -21.0380
0.4347 42.2698 -32.2802
31.8943 27.2003 -31.4165
-15.7665 33.9462 -20.4690
-23.4917 -15.0514 2.7706
0.9255 -1.1348 67.2422
44.8810 -32.3777 -64.1530
-19.8138 -15.5228 9.4278
-17.9096 13.0709 16.7399
5.7175 -25.8907 6.1494
5.4048 8.4164 46.4194
-19.0744 -45.2368 -48.9174
41.4511 -37.6664 -65.7811
-22.8534 -31.6589 -24.4118
-21.4794 4.7714 17.1523
-2.7436 0.6883 63.9149
-2.6301 2.6075 61.7812
-13.5917 32.0391 -14.0643
19.5020 11.9893 14.9827
-29.1041 5.1087 -1.2513
0.4488 0.6579 68.8711
-27.0760 -7.1554 2.5132
-44.4450 -25.4203 -54.0566
-16.3411 29.3449 -11.1016
15.3907 -4.2181 31.8943
7.3104 1.6651 52.5280
22.8314 -6.8057 12.7108
-30.5845 -47.0221 -65.9884
11.1844 4.9168 41.0175
15.9130 -7.8552 27.5337
-45.3936 -7.9015 -41.5580
13.3440 -45.9154 -45.7988
-0.0856 -19.6280 22.9440
0.4028 1.0348 68.1053
-9.5287 -24.8140 5.9881
-1.5903 -26.6182 5.7807
54.6849 -16.5174 -68.5038
9.5110 -47.0690 -46.2994
24.9434 25.8649 -16.8201
-11.5351 17.3860 19.9286
17.9960 51.5757 -62.4073
0.4508 44.3660 -37.3926
-4.4382 4.8312 54.8140
19.6987 11.5161 15.1646
-13.2577 11.5854 27.8744
19.7408 32.3825 -21.6793
35.9669 23.1308 -33.4772
-32.3766 36.0331 -47.3278
-20.5606 38.2890 -35.1779
-22.5998 31.2191 -23.1801
-34.5649 -34.8086 -48.8222
3.4314 1.7904 61.3742
5.5672 -5.9790 50.8894
-18.7890 -5.4310 23.1146
-9.6440 -34.2476 -15.9585
23.5035 -17.8670 -1.1892
37.4629 -40.7875 -64.2515
-25.2247 -21.1138 -9.4113
-5.7408 -3.2513 54.7233
15.1918 43.5298 -41.6271
-4.5034 1.2104 59.4407
21.1031 33.0063 -24.7295
-15.6793 19.9440 8.9423
-29.0408 20.2385 -15.5139
-18.4365 -42.3844 -41.9101
-22.7320 -7.5983 12.3592
24.0426 35.6994 -34.1547
2.7060 -33.5715 -11.3267
-39.9252 -20.3470 -38.4722
-15.0163 46.8946 -49.2742
-24.4285 17.0979 -1.9062
-23.7621 27.8478 -18.4664
-41.1151 21.0603 -41.8479
20.3283 5.4201 19.5046
16.4024 27.6569 -7.6067
-5.1745 -31.7330 -7.5997
-13.8871 -9.7745 29.3971
24.3331 49.4941 -63.6927
46.2318 -12.5903 -46.0437
-13.6198 -0.9372 37.5188
-27.9918 -17.8380 -10.1368
-1.4245 25.7059 8.0254
-14.4307 -11.4912 25.8244
-31.2920 8.1133 -8.0253
-20.0303 -51.9217 -64.9101
27.8328 9.1533 -0.6420
33.2672 -15.4770 -18.6697
-22.1310 46.7584 -55.3499
1.1595 1.5048 66.1805
9.0033 -42.7918 -35.8328
-13.8465 21.2773 8.9017
-18.5727 2.4164 25.1363
-1.5206 39.9022 -26.5713
-21.6072 -37.3368 -34.3928
19.7572 40.9378 -40.0455
3.3484 -3.3485 59.2645
25.9324 -41.8014 -49.1566
-3.7805 30.1673 -3.3345
-10.5210 -49.5001 -52.6049
42.2120 -4.6671 -32.7612
-37.6372 30.6349 -47.5397
-6.6639 -18.5000 22.8576
-28.9371 -38.1870 -46.0362
-23.2741 8.5393 10.3524
-11.1369 -12.3672 30.2250
-8.5280 -33.6254 -13.7890
2.0297 -39.5974 -25.8841
-30.4233 8.1605 -6.0062
-34.0902 32.5888 -44.2038
7.8568 -49.3142 -50.9716
22.4826 4.5241 14.8834
-21.6800 27.0741 -13.7763
24.4134 23.1104 -11.1723
7.4045 -1.4484 52.4131
0.5970 -18.3802 25.9640
-15.3763 20.7773 7.7745
-22.4690 -12.7967 7.7517
-40.7228 8.7033 -30.7448
-35.9361 43.9176 -67.5808
-29.7705 24.4078 -23.0739
13.7154 -2.3504 36.8765
11.5440 -45.6095 -43.9273
22.1191 0.1002 16.8684
-16.3284 -46.6456 -49.7151
4.3229 -9.9102 44.4449
13.7671 10.8422 28.0759
7.8954 -1.2398 51.3220
56.4199 7.9200 -68.1335
19.8518 38.0238 -33.7973
-45.7896 -19.9826 -51.0295
19.3020 -34.0770 -24.7000
-19.7956 35.9320 -29.2369
-18.2050 32.8477 -20.7768
26.1656 13.1927 -0.6519
-23.9578 22.4293 -9.2247
15.7817 0.7768 32.2781
42.9848 -8.2796 -35.9455
-4.1514 -1.8643 59.7150
-10.1488 -10.7332 34.7883
0.4873 6.6055 54.6600
9.0323 -29.4972 -4.4218
-14.5604 4.9715 33.2906
-35.6817 5.5271 -17.2455
-14.0568 21.6748 7.8094
11.2549 9.9447 34.1848
9.0478 1.9105 48.2609
-27.3391 19.3268 -10.8397
-9.7960 1.4543 46.6611
49.7151 -2.4092 -50.5749
-8.8559 -47.4572 -46.9238
32.2719 -8.4815 -10.5645
-15.6717 9.6369 25.9451
50.5626 -5.6017 -53.2540
30.7747 -39.7674 -51.8211
4.0319 2.0054 59.8313
-7.5444 32.0374 -9.4572
-28.5466 -46.4589 -62.1712
3.0486 -16.5768 29.7076
12.1945 -14.8414 23.9671
-21.1923 48.4824 -58.2287
-27.2972 -25.9360 -21.0175
4.4029 56.1093 -66.4476
-0.6482 12.8654 39.3972
27.5339 -38.1292 -43.8874
-30.2031 -26.3718 -26.9737
19.1195 -20.2534 2.8867
9.2856 -29.1980 -3.9094
22.3087 15.5323 4.5183
-19.2988 9.8075 18.0182
24.2175 -3.5529 11.1193
-3.1961 -25.7024 7.6472
21.5535 4.6526 17.0376
-17.6172 31.0141 -16.1754
-14.7799 56.1045 -70.6834
0.0485 0.0204 70.6851
-4.8231 -11.8529 39.6049
-2.7508 53.6228 -60.1348
2.6463 8.0006 50.2619
37.8531 36.0515 -56.6732
-16.4348 37.8082 -29.7287
-44.9507 -35.8902 -69.4699
10.6432 -32.0251 -11.4902
0.0792 8.9190 49.0608
24.1346 39.5555 -42.1940
21.2835 13.4143 9.4573
-8.9218 1.0018 48.9181
11.3703 6.6628 38.6732
-2.1542 2.0091 63.6295
3.4010 -4.3723 57.3041
8.0997 47.8045 -47.4345
10.3082 -21.8085 11.9844
-20.1009 13.7395 11.4336
-23.2388 23.5744 -9.9181
-1.1155 -6.3904 54.9927
-10.0475 -11.6261 33.3383
-2.1971 24.6718 10.4054
-20.5569 29.8574 -17.5933
0.0557 -3.2491 62.8884
29.3710 -28.1086 -28.3344
-56.0582 8.4672 -67.4529
-0.2712 -0.3819 69.6712
12.6298 -4.0379 38.4758
16.3308 -23.5038 1.0137
-24.0415 9.0653 8.1510
-31.6459 -3.7649 -6.9095
7.5817 9.0033 42.1076
-9.6073 11.8498 33.6090
-55.5009 8.2585 -66.0334
20.0633 -32.9565 -23.2840
-0.0854 0.0078 70.6043
0.3209 -0.4808 69.4036
50.2088 -20.9453 -61.8641
-25.4862 35.1457 -35.0650
-41.8015 -22.6379 -45.1225
-24.7996 -18.1589 -4.1486
10.5497 11.0320 33.5864
-28.7742 -20.4423 -15.2682
-13.9192 29.1850 -8.0439
37.1918 -3.5399 -20.3004
5.8954 -46.0836 -42.4920
0.0196 -43.7299 -35.8357
3.9421 -27.4555 3.1679
-47.3707 7.9028 -46.3117
-11.5209 31.5349 -11.0662
-22.1085 24.2071 -9.1400
-4.2227 26.3212 5.7999
-27.6257 17.6374 -9.1208
-39.2462 -41.9358 -69.2620
54.7376 7.6016 -63.9626
-4.1402 -4.5946 55.7299
-1.7713 -42.0173 -31.7500
-22.7505 -25.4320 -12.4060
0.7011 0.1562 69.0618
3.0652 -46.7960 -43.5579
9.3103 -12.5280 32.7467
15.2789 47.2636 -50.3270
-31.5984 -33.3469 -41.2255
-7.1787 11.7653 37.2005
30.4340 40.4219 -52.5858
28.0788 -50.4705 -70.0415
-11.0682 -2.5684 43.1030
-5.1733 8.0539 47.4684
5.0120 -0.1843 58.5818
-0.3155 0.6486 69.0544
6.6852 -1.4229 54.1443
-18.1494 -43.7304 -44.6574
10.7668 -24.5653 5.4013
-29.7497 -40.4267 -51.5986
24.1508 -36.3177 -35.5546
21.2225 -25.5852 -10.2565
-22.2048 -28.1763 -16.6771
17.5651 -10.6090 20.7681
-6.4826 -45.7593 -41.8994
-37.3644 -16.3658 -28.6693
1.7144 -0.8242 66.1744
34.4395 -17.0302 -22.8862
-11.9631 53.1441 -62.0386
-11.1553 22.4728 9.6256
-49.5957 12.2478 -53.7750
0.9470 -2.9367 63.2883
-37.1022 0.1425 -19.6727
-16.3207 -22.3517 3.3167
-20.4788 -19.2713 2.2326
-2.9815 51.9619 -56.1205
-14.2584 -4.4131 34.4124
3.5929 8.2404 48.8895
-12.6807 -3.3666 38.8162
0.0846 2.7353 64.1394
50.1446 -15.0300 -56.8554
-25.0806 27.5450 -20.0390
6.1126 -12.0294 37.9056
5.8578 -6.8430 48.8452
15.7509 -20.0684 8.5957
26.2534 -19.7700 -9.3377
51.8121 4.1610 -55.9537
49.2631 8.0931 -50.9408
-11.6404 -12.3079 29.4985
-19.4505 -50.6172 -61.4330
1.7121 3.9799 60.2473
25.1263 -26.8514 -18.8717
44.9114 1.6425 -38.7905
-3.8817 10.3528 43.8485
-38.0884 -7.4331 -23.8295
22.5604 -19.1969 -1.4304
-26.7773 3.7932 4.8564
9.9318 -7.0623 41.0921
20.7452 -7.1468 17.3015
-15.3357 -23.0317 3.3308
13.9421 27.4682 -4.3117
-25.5886 21.1651 -10.1736
44.7240 -32.1759 -63.5546
23.6268 -33.7720 -29.7054
0.5942 20.7366 20.2200
9.8077 45.4223 -42.5162
25.0401 -23.0207 -12.1407
42.7651 -4.5915 -34.0822
4.0347 1.5918 60.2355
-36.7887 41.8427 -65.0665
-15.3735 -10.7873 25.0111
3.5300 -4.2260 57.3844
42.7296 -7.1610 -34.8496
37.8308 12.7465 -26.5452
-22.4215 -4.5569 15.0137
-0.0275 -56.5160 -67.0186
-17.1124 -14.1906 16.5967
-1.2289 1.9554 65.1809
8.5507 3.0983 48.6331
53.1340 -16.4669 -64.8510
29.9141 36.1297 -43.5826
-6.1231 15.1501 30.9615
-12.9402 34.8776 -19.9124
-34.6042 27.4702 -36.9387
35.4325 11.8831 -20.3301
-48.2483 -0.7700 -46.8703
32.1961 5.2331 -8.7375
14.7164 15.9037 17.9693
35.2603 29.9068 -41.9461
-7.1686 24.0279 9.6615
17.7532 2.3648 27.1343
33.9554 -1.6176 -12.0915
-31.5135 -33.4303 -41.2312
31.5142 -37.4394 -48.5355
37.3570 -4.2610 -20.8843
2.8066 -49.7539 -50.7201
-7.5315 -1.1731 52.2240
-3.3974 -15.5501 31.9951
-19.5612 34.4388 -25.7794
-6.9262 19.9932 19.2107
12.0106 3.5326 40.2812
-3.2291 17.4093 27.6311
-7.8804 -2.0433 50.9590
-21.8077 12.4694 9.5480
-12.7145 -11.6766 28.7129
19.8690 14.1801 11.2818
3.0610 -1.9298 61.9883
26.7747 26.7114 -21.4236
52.0813 -5.3435 -56.8700
-6.9667 -0.4546 53.7867
-1.0275 -0.7680 67.6849
33.0664 34.2685 -45.3242
8.7307 -6.1997 44.6985
-12.9289 12.9332 26.2140
-3.5727 -9.6484 45.7214
34.5932 -7.5953 -15.5626
-21.1582 19.0644 1.3554
17.0285 -13.9911 17.0642
5.1674 43.0306 -34.8844
-2.3930 9.2136 47.5976
3.0369 54.1373 -61.4250
26.1316 12.9425 -0.3051
41.9491 -31.6331 -57.3203
2.7306 -24.0281 11.8360
31.1459 29.2420 -33.3775
-8.0508 26.5476 3.1570
-39.3273 11.3984 -29.0459
40.5297 19.5148 -38.8922
-4.8514 -11.4450 40.4972
-29.3130 7.5789 -3.0265
-42.5713 5.0573 -33.7401
54.7122 6.1946 -63.4722
-0.4416 0.6303 68.9365
-18.6984 11.2272 17.6226
-0.1994 1.1151 68.0507
-10.2069 -20.0827 15.8727
-4.9118 -12.1960 38.7480
4.1351 12.6404 38.3782
-4.5828 19.7352 21.4022
20.4083 25.5539 -8.9437
6.9742 -8.2424 44.4814
0.9062 4.5991 59.3814
-1.0210 -8.8917 48.9856
-4.2674 -42.8328 -34.1652
21.6645 -51.5540 -65.5679
-25.7378 -49.0980 -64.3825
-10.5277 -10.5120 34.5304
9.9294 -11.1309 34.4357
2.7205 0.6094 64.0143
-45.1677 16.9025 -46.8026
-0.9500 -29.1157 -0.2322
56.0234 15.2676 -70.8002
12.9804 30.6709 -10.4103
-10.6099 6.7640 40.1268
18.2558 -12.1228 17.3685
-48.6907 -3.7494 -48.2858
30.6312 9.5818 -7.4599
43.6381 11.4476 -39.2128
12.9434 -1.8106 38.9395
7.5183 -4.1853 49.8281
15.8791 30.5829 -13.2270
4.0619 1.4434 60.3004
-11.9242 -30.6002 -9.2806
24.8786 -10.7474 4.7196
17.5765 49.0886 -56.3475
17.7805 2.1141 27.1447
-26.9758 -30.0039 -27.5868
19.3422 -51.8206 -64.0840
-16.9265 12.5053 19.4888
-30.7968 -12.2696 -10.0356
-32.3543 -14.2696 -15.4262
-4.9145 0.5120 58.7631
2.7423 18.4191 25.3975
-11.9033 -7.4606 36.5528
-5.0094 24.7132 9.3168
7.1962 19.8657 -70.8135
-30.8482 -6.6191 -70.8135
0.3410 -0.4438 -70.8135
-10.5379 17.9306 -70.8135
52.2832 -12.9632 -70.8135
4.9402 7.2433 -70.8135
35.7129 -18.6372 -70.8135
-13.7581 10.9225 -70.8135
52.6374 -8.4467 -70.8135
30.1465 -29.5172 -70.8135
6.8269 -15.0835 -70.8135
10.0395 24.8819 -70.8135
-42.8702 -11.8817 -70.8135
-39.2158 13.9137 -70.8135
14.2411 4.4498 -70.8135
3.0203 8.9213 -70.8135
-26.2211 15.1049 -70.8135
10.7068 5.1642 -70.8135
-12.7064 24.9059 -70.8135
26.8609 -9.6627 -70.8135
23.7678 -0.6040 -70.8135
12.5852 35.8313 -70.8135
-17.6838 -3.3244 -70.8135
-38.5783 -26.8911 -70.8135
24.2414 -16.8594 -70.8135
6.5952 -27.7898 -70.8135
13.3381 -16.7937 -70.8135
8.2984 25.1650 -70.8135
19.3117 25.4911 -70.8135
19.4283 5.2188 -70.8135
-0.4446 29.1604 -70.8135
1.5126 -16.0328 -70.8135
0.2012 4.1208 -70.8135
-42.9556 19.5571 -70.8135
-17.7457 2.7895 -70.8135
14.2125 -6.0204 -70.8135
2.5573 -30.7662 -70.8135
-15.4251 -18.7654 -70.8135
0.1013 -20.4123 -70.8135
16.1778 -13.1896 -70.8135
47.5689 -19.6480 -70.8135
11.8071 11.6671 -70.8135
-55.1010 -4.4881 -70.8135
-31.8964 -7.7585 -70.8135
34.1737 14.7176 -70.8135
33.4355 -0.3188 -70.8135
9.6090 -22.9378 -70.8135
-18.3397 12.9801 -70.8135
-1.7113 35.0688 -70.8135
6.4395 9.3174 -70.8135
7.8636 17.1718 -70.8135
54.6795 13.0400 -70.8135
-54.6316 -16.3357 -70.8135
-27.5209 -3.9994 -70.8135
-56.4154 6.5517 -70.8135
-6.1475 25.0088 -70.8135
-37.4654 24.1953 -70.8135
13.1119 -43.3847 -70.8135
-28.0944 -24.1003 -70.8135
47.7452 2.1739 -70.8135
-32.8785 -28.3823 -70.8135
4.4039 40.0030 -70.8135
-12.6928 3.5889 -70.8135
40.8928 7.8367 -70.8135
-34.8429 -16.3586 -70.8135
-31.4002 1.8822 -70.8135
-33.0138 30.4721 -70.8135
-12.0981 -0.5658 -70.8135
39.4400 41.9830 -70.8135
-6.3014 -2.7228 -70.8135
-34.9399 25.9092 -70.8135
34.1083 -40.7617 -70.8135
2.7790 -0.3306 -70.8135
-5.7683 28.6372 -70.8135
10.2175 -11.7208 -70.8135
24.9783 25.9145 -70.8135
-20.4317 22.7946 -70.8135
-28.3818 -40.6846 -70.8135
31.9788 20.7785 -70.8135
13.5163 -25.3467 -70.8135
-11.0101 9.4307 -70.8135
-3.2622 48.3955 -70.8135
-0.5781 0.5693 -70.8135
-5.4878 23.7714 -70.8135
20.1580 11.8692 -70.8135
17.8671 -22.9838 -70.8135
-21.5899 49.0373 -70.8135
7.1376 26.3180 -70.8135
4.3060 -40.8749 -70.8135
0.1851 -2.0278 -70.8135
29.3959 24.0307 -70.8135
16.1913 -52.7441 -70.8135
26.5116 6.5765 -70.8135
8.9813 -41.4379 -70.8135
-1.1450 -1.0773 -70.8135
12.2567 -4.4785 -70.8135
1.4704 -11.3962 -70.8135
-26.2738 -46.8165 -70.8135
-14.1012 -11.0406 -70.8135
-46.4741 8.3395 -70.8135
-9.4940 12.8720 -70.8135
15.5882 -28.1885 -70.8135
-17.9738 32.8261 -70.8135
1.7087 -1.5179 -70.8135
1.3835 -3.9930 -70.8135
-55.9359 15.0646 -70.8135
-40.3580 -12.0975 -70.8135
-11.3766 14.0237 -70.8135
-47.2563 -12.4890 -70.8135
4.9038 45.4398 -70.8135
42.2995 -0.7956 -70.8135
-19.5445 1.8981 -70.8135
15.9838 -16.9349 -70.8135
8.2470 17.6533 -70.8135
16.6507 -18.9180 -70.8135
-24.8546 -5.5973 -70.8135
31.5080 15.9015 -70.8135
-29.5393 40.7807 -70.8135
6.3184 16.9780 -70.8135
15.8228 19.2248 -70.8135
-4.4906 2.5354 -70.8135
32.9945 -38.5062 -70.8135
5.7777 19.2877 -70.8135
19.0407 45.5610 -70.8135
6.2949 16.4208 -70.8135
-41.6771 19.3414 -70.8135
2.9700 -1.1922 -70.8135
-12.2687 3.2505 -70.8135
-19.2359 -41.9314 -70.8135
6.3541 -55.0710 -70.8135
4.4221 -3.4077 -70.8135
57.8539 -2.5124 -70.8135
28.8825 -10.9455 -70.8135
9.4804 -9.3746 -70.8135
34.8980 -11.1403 -70.8135
-17.4656 31.2057 -70.8135
0.0558 0.0094 -70.8135
2.4398 -1.8965 -70.8135
22.0832 -19.3333 -70.8135
-17.4775 -0.8025 -70.8135
-1.8654 -4.4951 -70.8135
8.1786 -19.4880 -70.8135
14.1810 30.6966 -70.8135
55.4304 10.2472 -70.8135
0.3639 -0.3680 -70.8135
-14.7405 -14.1930 -70.8135
13.0526 -25.7429 -70.8135
46.1011 -10.9474 -70.8135
6.8618 -1.0634 -70.8135
-1.5768 -0.0953 -70.8135
6.4795 -0.8353 -70.8135
-17.9370 20.7496 -70.8135
10.9582 -54.0849 -70.8135
37.5390 -18.8522 -70.8135
50.8732 25.7760 -70.8135
-5.1829 -4.1504 -70.8135
9.1584 -20.2679 -70.8135
-4.1975 -32.2962 -70.8135
-43.3893 19.0628 -70.8135
50.0251 29.3035 -70.8135
37.5410 15.0413 -70.8135
18.4681 -3.2786 -70.8135
48.5354 30.5482 -70.8135
-1.0857 1.0419 -70.8135
2.3300 8.7420 -70.8135
37.2864 6.4539 -70.8135
-2.2604 -23.3615 -70.8135
-13.7803 -16.9750 -70.8135
-12.0646 -18.0279 -70.8135
-23.7726 -8.2801 -70.8135
9.6457 -3.6937 -70.8135
51.8116 22.3261 -70.8135
26.7484 -31.6597 -70.8135
10.1385 37.7752 -70.8135
5.4768 3.9660 -70.8135
-11.8632 -6.8510 -70.8135
-4.2938 51.8146 -70.8135
-16.8799 9.7264 -70.8135
26.2701 -26.0995 -70.8135
17.2043 -0.5423 -70.8135
19.7148 -30.4737 -70.8135
-43.7211 -29.6440 -70.8135
-0.6120 5.6613 -70.8135
0.6052 0.6252 -70.8135
-27.4473 -49.1026 -70.8135
-12.2402 46.8754 -70.8135
-7.0391 -0.2620 -70.8135
27.9098 29.5346 -70.8135
-0.8837 1.6196 -70.8135
7.3929 16.4765 -70.8135
-42.8948 17.0639 -70.8135
9.3952 5.1295 -70.8135
-40.7214 -19.6095 -70.8135
-40.2768 12.7048 -70.8135
-2.6606 -1.7593 -70.8135
10.1764 -6.0329 -70.8135
-9.6571 -36.6292 -70.8135
-42.6989 -31.0484 -70.8135
-27.1125 -2.3695 -70.8135
14.4485 27.4465 -70.8135
6.8926 57.2753 -70.8135
43.8680 -14.9935 -70.8135
32.1908 9.1770 -70.8135
-42.0164 11.2031 -70.8135
20.5976 -13.1767 -70.8135
4.2196 -8.9004 -70.8135
-20.2419 -40.2499 -70.8135
17.7570 13.5556 -70.8135
15.6279 54.5254 -70.8135
-22.8867 7.0361 -70.8135
5.8049 -8.1058 -70.8135
-35.7985 26.5219 -70.8135
-20.0587 -40.6178 -70.8135
45.1840 26.3980 -70.8135
24.8304 -28.6373 -70.8135
10.1475 12.3933 -70.8135
-2.0938 -5.1003 -70.8135
1.8432 1.8710 -70.8135
20.7216 46.6505 -70.8135
19.0013 -9.5990 -70.8135
-10.1296 7.5175 -70.8135
19.6167 27.8875 -70.8135
-11.9846 15.3120 -70.8135
5.9297 -3.9672 -70.8135
9.3721 -7.8709 -70.8135
-21.7896 -11.8425 -70.8135
35.7089 1.2282 -70.8135
-29.2812 -20.9335 -70.8135
52.9547 -2.0522 -70.8135
-4.7934 -22.3738 -70.8135
-14.6638 51.1741 -70.8135
18.1762 -32.7421 -70.8135
54.6638 -10.5241 -70.8135
14.4002 -3.9440 -70.8135
3.1516 44.0766 -70.8135
17.9633 -49.7020 -70.8135
-4.2009 3.2766 -70.8135
-17.4117 -8.7186 -70.8135
-26.2194 25.9294 -70.8135
-24.7067 34.9233 -70.8135
-33.2412 -35.8403 -70.8135
-5.5754 -7.6386 -70.8135
-13.2362 36.3240 -70.8135
-21.9425 8.0718 -70.8135
4.4487 -0.0532 -70.8135
34.3211 24.5070 -70.8135
-37.2598 28.1044 -70.8135
22.7598 51.9795 -70.8135
-12.3676 27.7740 -70.8135
-22.4521 50.8255 -70.8135
22.5529 40.2357 -70.8135
6.2795 0.0692 -70.8135
-1.8529 29.1793 -70.8135
-1.7359 4.2233 -70.8135
45.8369 1.8630 -70.8135
12.6457 0.5022 -70.8135
