ply
format ascii 1.0
element vertex 1024
property float x
property float y
property float z
end_header
-17.3893 -10.8222 41.8092
64.7061 5.0764 -28.7311
-7.3478 -8.5477 56.4342
-33.5922 -4.2215 20.5715
5.4445 -67.7940 -33.6653
19.5756 -69.1505 -39.7878
32.1588 -20.6048 13.6845
-12.7086 -52.3832 -11.2605
21.0817 -3.6634 40.3551
-15.7270 67.8657 -36.2884
-52.7242 28.3063 -20.6920
36.9514 5.3287 15.0499
78.4393 -18.3002 -53.5675
-15.1093 46.3521 -3.0824
-11.9335 -49.0144 -5.7718
-20.2971 -50.1603 -11.5916
-8.9903 -20.7638 38.4036
2.2701 -92.2623 -72.2169
7.9237 60.8574 -23.1197
-33.1018 -10.5683 19.1558
31.5710 -30.1314 5.0327
-1.5760 89.7653 -68.2295
44.2210 -36.4106 -16.6266
67.7553 -20.9182 -38.2681
87.1664 18.3713 -67.1215
-8.9094 4.8122 58.2537
-43.3158 57.3266 -39.7613
82.0915 -21.5530 -60.4400
0.8150 -1.9995 70.9041
-24.9947 81.1052 -60.4330
-28.2047 -4.0443 29.0879
-17.0676 2.0802 47.0302
-12.3139 -9.2985 49.8308
-30.0419 -75.9419 -55.3499
30.4018 7.6720 24.5437
-55.9816 -3.8995 -14.7770
6.2662 40.6030 9.0951
16.6821 5.2460 46.5640
72.9602 50.6526 -66.7054
-8.5068 21.3316 37.8658
65.7870 27.2864 -38.7611
38.6062 -9.5964 11.1637
-46.9873 51.5713 -36.4514
-36.7164 -11.2545 13.3525
93.0136 -10.3913 -74.2844
-25.9689 -24.7228 17.3975
10.5177 61.0213 -23.9930
81.9615 8.5855 -56.5278
-29.2350 78.6361 -58.8855
-19.5974 -9.5401 39.7223
5.2753 4.5163 63.3056
8.1370 40.6073 8.5697
53.3940 50.4368 -42.2988
2.8391 -0.4916 69.7575
-6.9827 1.5498 62.9751
-12.2228 22.8160 33.2316
5.8213 -90.1891 -69.1784
77.2021 45.5833 -68.0322
-2.2207 -24.5670 35.1633
31.5432 -6.7151 23.1223
16.6846 -15.1941 38.4994
-28.4855 -78.0343 -57.5773
36.6712 -33.2279 -4.2472
-50.1426 -55.5305 -44.4743
-41.8496 15.2173 3.6221
-10.9179 13.6988 46.5167
-28.3370 -67.2415 -41.5354
12.0956 -60.5438 -23.7058
-51.8145 49.6983 -39.6736
-7.5253 49.7799 -5.6118
-67.1665 53.2380 -61.7626
86.3767 -14.5493 -64.7588
-79.0501 1.4812 -51.2146
13.5164 29.8293 22.3303
22.6079 -41.0798 -0.1247
-14.3031 16.6602 39.4657
55.0135 -12.0488 -15.0949
34.4110 14.0205 15.3295
-27.1261 -23.8564 16.9705
-47.9182 -32.4010 -17.5197
-43.7278 23.9615 -4.8451
-25.8469 65.5236 -37.5160
13.8069 89.7947 -69.9298
77.3711 -38.6345 -62.9917
23.7209 -23.6311 21.1645
37.0993 -62.7423 -41.4109
-61.6271 -66.5896 -69.7405
10.3905 -9.0035 52.5011
4.3731 15.8886 48.1648
12.9487 -1.9631 53.5363
-10.4295 -4.3619 56.3816
4.0322 0.8594 67.7861
40.2660 -35.6535 -11.0691
1.2802 -8.8634 60.1124
26.3749 11.0331 28.9348
0.0804 -2.8149 69.8612
-39.7823 15.0044 6.8179
23.8168 14.8617 29.7547
-5.5956 -11.4935 54.0340
-39.0920 31.5450 -5.4320
-31.7657 -9.5612 21.6560
77.3191 3.9942 -48.6076
22.4496 -16.1782 30.3924
-45.0672 30.3148 -11.9140
-13.7843 42.4750 3.4231
-13.6772 -18.4140 37.9095
-20.2813 23.1121 25.5058
-77.6463 -42.1740 -65.9769
-7.8688 19.3013 41.2347
-0.1143 -9.4552 59.3176
25.5956 59.6987 -28.8096
5.5136 1.3970 65.3010
49.5840 27.2539 -15.5125
23.3063 -12.6061 32.2574
-53.0090 -11.4030 -11.7668
-28.8972 4.1149 27.9834
-21.2038 15.0157 33.0753
48.5406 -7.7049 -3.7108
-19.6195 29.5577 17.9989
14.6628 -36.7786 11.4611
3.6350 -4.4271 65.2368
6.0395 -2.8786 63.7089
-50.7942 -23.2740 -14.3883
-25.6641 -51.5138 -17.0564
22.3764 41.3913 -0.3829
8.0931 -37.5073 13.4035
-91.9239 17.0632 -74.1286
-1.8975 -13.9159 52.0310
-40.7497 37.8172 -13.9459
9.0723 -5.5244 57.4660
-39.9513 -14.8540 6.6504
-15.9743 32.5292 16.7868
6.5277 3.8307 62.3143
2.5435 62.6828 -25.2845
3.0610 10.4412 57.0552
5.0447 -1.2079 66.0958
-9.5648 -10.3352 51.9717
-9.4578 7.6815 54.9853
35.5242 12.4010 14.5848
-5.7137 36.6802 15.3851
25.6057 89.6623 -73.7359
-33.4028 86.2696 -72.5666
-23.6036 43.2499 -3.9065
-51.4624 11.3031 -9.3333
-16.2936 60.3632 -24.9497
-0.2342 2.0574 71.0448
-1.7992 3.5302 68.0411
42.0836 13.4463 4.1791
-17.0824 1.8528 47.0482
25.8612 -15.4237 26.5184
-57.3070 3.5439 -16.8401
23.6785 86.2653 -67.7163
-33.5815 8.7028 19.2464
-49.4344 -22.6719 -12.0270
-1.0032 12.6415 54.1960
-71.4128 -51.5547 -65.5276
-36.9630 3.0313 15.4414
-8.4431 -9.4126 54.2544
32.6771 -54.6869 -26.8274
17.1936 30.8682 18.2258
50.5910 -11.0970 -7.9116
-3.1727 30.0186 26.4002
-20.9951 0.9755 40.9583
4.4225 19.7463 42.2005
22.4977 0.7310 38.5894
-81.3023 -38.6114 -68.5881
-0.9072 -1.7578 71.1917
90.6503 10.4610 -70.5681
-22.3673 69.9676 -42.3093
42.8126 -7.3478 5.3559
49.3803 -19.7810 -10.1366
-44.0430 53.7034 -35.9545
-0.0073 -42.6123 6.6678
68.3530 9.7274 -35.3000
26.6038 27.4848 13.5925
-69.1337 4.8173 -35.7124
70.8525 -52.8708 -66.0469
-54.7655 -60.5593 -55.3207
-23.2153 -66.9857 -38.2421
-13.3653 -10.8202 47.0266
-4.0061 42.8735 5.9566
88.1657 1.6751 -65.6928
6.5587 9.1074 56.5112
-4.2476 7.8266 60.1925
-62.1354 -5.5742 -24.7296
-60.2542 -10.8735 -22.8916
59.4005 -60.8695 -60.7201
-34.7649 1.2723 19.0919
56.8331 56.8678 -53.3340
28.7294 27.1128 11.6053
-54.9553 63.0043 -58.4237
-20.6380 9.5262 38.2386
-11.1111 -8.9880 51.6394
10.4297 -14.8833 45.4741
-47.6060 -4.7046 -1.6300
23.4909 -20.0730 25.2677
20.9383 33.0034 12.2690
79.0140 -30.0556 -59.9058
17.5500 44.6955 -1.9154
-29.9255 -17.6103 19.1962
16.2986 40.6525 4.7850
10.3043 -45.8147 -0.2347
-11.0025 8.1894 52.5533
29.6769 -31.4141 5.7102
5.4880 7.6434 59.3912
18.5466 -59.6485 -24.8573
-37.9007 36.6225 -9.3564
3.8361 -10.9281 55.9418
14.4739 60.7979 -24.9075
63.1678 -58.5082 -62.3888
12.7464 26.3305 27.8806
-4.3754 -43.5725 4.7952
83.1359 -29.8322 -65.9225
-7.5573 -1.9280 61.9482
16.4316 90.7506 -72.1151
19.4099 9.7495 39.8417
-6.1385 7.3753 59.0957
3.3544 4.2742 65.7052
0.9101 1.7787 71.1601
25.5355 9.1475 31.2613
9.2841 -78.0661 -50.5037
0.1704 -7.8356 61.8876
-58.7104 60.8417 -59.9252
-36.8077 -51.4303 -26.0947
69.4069 -50.3016 -61.7805
-17.7828 45.6202 -3.4175
-57.1005 -27.9909 -26.6465
48.6655 -9.3476 -4.3568
11.5698 9.1445 50.9152
3.6734 -9.7217 57.8303
0.4495 1.0303 72.5479
2.6570 10.0438 57.8354
11.6005 -22.1279 34.6597
-55.6451 -39.8877 -34.3837
-82.5522 -13.9526 -58.6128
1.1598 -1.6837 71.0864
-28.4755 64.1394 -37.1017
14.4431 -5.7308 49.6589
27.0569 -60.6481 -31.1208
-14.8009 27.9625 24.0941
-30.6708 -3.1731 25.3700
-12.3464 10.1645 48.9384
27.5500 -10.8424 27.3196
26.2479 7.4182 31.0206
-12.4130 -18.3618 39.1383
-19.0126 -54.4059 -17.1828
9.1479 31.4383 22.3409
-8.9331 -4.1914 58.6640
1.7920 -38.8932 12.5079
9.1742 -75.3942 -46.2704
88.0364 25.6321 -71.2669
50.9400 41.4853 -29.9867
18.0373 3.9777 45.0029
-48.6171 13.9980 -6.0036
28.6561 -55.0590 -24.2292
79.0554 -46.9407 -71.6627
4.4443 48.1861 -2.5077
71.8623 56.2698 -70.5992
-81.7115 -40.0736 -70.1825
42.9601 32.0819 -10.8072
-26.4288 13.6806 27.0767
-4.8696 -45.6688 1.4033
16.3672 67.3088 -35.6629
-21.8747 -7.8306 37.4390
-53.7443 24.5402 -19.4845
-48.8635 28.6056 -15.5767
9.3297 -50.2907 -6.8874
4.3343 -34.6803 18.8348
38.5656 -17.4464 7.1189
43.5877 14.8128 1.2313
0.1041 -0.2094 73.9615
13.2871 -3.5447 52.4960
-47.9806 32.6198 -17.7966
44.3435 46.5160 -27.7162
58.8498 42.3939 -40.8385
44.9318 -36.0562 -17.1475
25.4421 -22.2358 20.6778
41.4123 1.1619 8.5474
46.9896 -74.8035 -65.9409
-22.5714 -31.6478 12.6067
65.3305 57.1073 -63.4538
22.8307 -22.6590 23.2553
19.4354 28.5667 19.4681
8.1666 18.1288 42.7596
-23.8511 -10.1297 33.1849
13.8981 -31.6672 19.4181
44.3382 70.9938 -58.5792
14.6363 -31.8617 18.6561
-16.9567 12.2274 41.1366
52.6912 45.4796 -36.1933
10.4817 92.9387 -74.1822
20.4611 29.4075 17.4449
-2.6703 5.0613 65.2460
32.4464 25.8520 8.4562
13.7635 34.0928 15.9510
8.9386 82.7640 -57.8542
-52.6968 -76.8877 -73.6821
-60.6448 17.6594 -25.9661
69.3156 13.7220 -37.8710
44.1728 -7.1169 3.2853
25.5516 -87.8961 -71.0172
26.7448 22.6216 18.7097
-8.0227 -8.6500 55.5990
9.8772 1.8609 58.3727
-39.5008 28.9725 -3.4546
45.5172 40.4467 -22.3578
61.2484 -38.8422 -40.8334
36.6752 -5.2943 15.4918
-20.5658 -59.8595 -26.1728
-18.7835 6.9459 42.5321
-30.7225 49.3500 -17.9758
32.2847 -28.0962 6.3724
-3.9442 -22.2640 38.4289
-70.2993 -32.4145 -48.5922
85.5942 -10.7624 -62.6543
-29.5811 -42.6814 -8.1282
14.2484 43.9381 0.9857
52.6747 57.1715 -49.1092
-59.3476 -47.9505 -46.8225
-53.9448 -71.8447 -68.3302
-0.2143 0.1011 73.9566
-5.4903 -2.1476 64.9715
-6.1903 10.7129 54.6858
-32.1994 18.9642 14.9938
57.5349 1.2698 -17.0504
4.0124 16.3782 47.5564
-20.8906 73.7020 -47.3108
-11.0899 2.5510 56.2630
-19.7520 25.3169 23.3438
0.6061 -5.0896 66.1938
0.9845 -31.3011 24.6046
-15.7530 -47.0334 -4.4303
11.1062 3.7709 55.7083
-28.3259 0.6656 29.3411
-80.6141 0.8102 -53.6826
-31.2821 -4.4580 24.1574
-25.2909 12.3367 29.6498
-45.9731 34.0323 -16.4947
-29.9690 12.9343 22.5014
31.2816 44.5343 -12.0864
-53.6740 13.5003 -13.5520
-27.6768 -5.7651 29.4410
33.4819 22.9211 9.9013
37.3756 -34.2273 -6.1428
-31.5449 -29.8396 5.3818
24.0471 24.7180 19.5727
3.6423 0.7019 68.4427
-54.4094 -72.3253 -69.3836
13.0363 -41.8290 4.7607
61.1566 -39.8018 -41.5346
37.4162 -45.4731 -19.1764
82.6380 5.7820 -57.2107
-13.5572 35.9214 13.3653
57.1373 -5.2517 -16.7792
65.8784 65.7340 -73.4457
45.4487 13.3371 -0.8794
1.0456 -9.5548 59.0700
15.2794 61.5652 -26.3937
52.0550 18.2366 -13.2522
-10.7510 8.2970 52.7684
-8.9974 77.5251 -49.5974
-56.9404 -20.3534 -21.6868
-14.2077 -40.2341 6.5779
62.1218 52.4914 -54.8119
8.1662 71.3658 -39.7300
-49.0934 -74.8055 -67.7487
-21.0622 -3.2628 40.4888
6.0465 24.2454 34.6539
68.3183 -40.5704 -51.8381
42.6048 9.5786 4.9911
-1.5201 1.7559 70.6450
19.2255 -7.5739 41.5207
11.1886 81.7797 -56.7367
28.9535 64.1496 -37.4266
-11.4160 -18.5493 39.7468
34.3914 -2.6163 19.5641
61.0856 -19.6175 -27.5456
40.5015 -19.6060 2.8804
50.2063 -17.2949 -9.9884
-55.3811 75.1335 -73.8817
1.6114 -20.0089 42.4575
25.2080 -8.7665 31.9530
-40.4141 -11.4239 7.6437
-14.1926 33.7320 16.2210
-62.9575 -8.7109 -26.5911
51.8279 -23.0906 -15.7641
52.3671 29.0027 -20.7236
61.3098 49.6200 -50.9122
58.0668 12.5397 -19.9983
-61.0187 -30.8366 -34.2301
4.4271 2.0204 66.6056
-5.1551 26.6084 31.2951
-30.8606 -40.7699 -6.8620
20.3701 -18.5697 30.5633
-73.1157 -15.9815 -44.5104
13.4149 -16.6625 40.3647
13.5699 16.3569 40.5848
-24.3689 78.0368 -55.4849
26.5901 -24.8265 16.5667
-51.1172 -50.0294 -39.2441
-14.0832 -20.3920 34.9802
59.6559 64.5999 -65.2957
10.1570 -2.1783 57.8376
23.4496 -21.0485 24.2963
31.6588 -16.6898 17.5031
2.8451 -40.9870 9.0920
-44.5476 25.2528 -6.9805
52.8263 -11.9757 -11.6797
31.7296 26.6831 8.5010
62.3879 24.8017 -32.2755
-32.7793 -49.2988 -19.6750
-1.6414 -49.6967 -4.6246
20.6366 76.5492 -51.5609
1.5720 -37.0027 15.5224
43.7184 41.3131 -21.1813
43.5120 -5.6976 4.6493
-18.0302 27.6259 21.9488
-73.1197 45.7092 -62.5956
0.7425 -50.8735 -6.4589
-7.1578 -2.5396 62.2726
4.6322 -3.6709 64.9476
29.7147 -17.8107 19.3213
-20.9070 15.3085 33.1859
-2.6447 1.8637 69.1953
-0.7670 -1.2277 72.0341
10.1119 68.9222 -36.2818
-3.6683 0.5235 68.4489
-83.5885 -38.9078 -72.0737
-8.2399 41.0829 7.7971
71.3445 -20.8454 -43.6934
8.0324 -45.8023 0.4924
2.4965 -43.7251 4.7877
3.6026 -30.7898 25.1076
26.2674 27.9430 13.4346
-32.0928 17.0857 16.5999
-10.4822 14.0718 46.4699
19.6417 2.3959 42.9122
-23.5593 31.0056 12.4978
-69.6477 8.2650 -37.0383
76.5987 48.1088 -69.3001
27.5786 5.7040 29.6133
-28.6540 -10.3636 25.9480
26.7554 -77.4611 -55.8000
-69.3772 -51.5592 -62.9242
-2.7441 7.0829 62.2712
-3.3349 9.2694 58.6901
5.7891 1.1708 64.9541
-61.8947 43.2597 -45.5775
-54.7960 -26.5973 -22.3874
-26.3192 48.7415 -13.6277
78.6162 -40.0085 -65.7393
-1.6355 -1.3734 70.9415
9.1996 81.5012 -55.9065
6.0941 36.4166 15.7020
6.7113 -2.8411 62.7603
3.9663 2.4649 66.9176
18.9022 56.2758 -19.9350
9.7447 -90.8019 -70.6815
40.5746 -58.5720 -38.8112
4.0756 -13.7724 51.5259
37.8270 38.6048 -11.4916
5.7511 44.8390 2.5487
43.5750 36.0180 -15.4385
-0.9408 -3.8161 68.0918
9.0505 -17.5358 42.9974
-1.1127 3.9456 67.8232
69.1719 1.9180 -35.5489
30.3193 5.5876 25.3773
-19.2614 62.1851 -29.0406
-45.0364 -63.1915 -48.8867
-1.4471 -4.1394 67.3697
20.8643 83.7987 -62.7954
-1.9717 26.9725 31.3884
-53.1155 7.7684 -10.9077
1.6594 -4.6446 66.5011
3.0797 2.5615 67.9721
48.2912 0.8918 -2.3629
-26.0661 8.3198 30.8846
-20.3725 6.5435 40.3552
7.8395 -7.0075 57.6361
37.2967 32.2761 -3.9887
-32.4069 82.7407 -66.7711
-7.7857 -2.5004 61.3479
4.0971 -12.1757 53.9336
9.1172 42.2904 5.6362
-82.7970 19.2279 -60.6411
28.8712 -14.6392 22.9310
-42.0090 -30.0015 -7.6392
-92.8400 -3.8430 -73.2161
60.2160 -32.1491 -34.0599
13.4439 -6.5105 50.6134
19.6865 -43.8152 -1.9425
-61.7590 -40.9214 -43.3099
-70.4281 -2.5420 -37.5743
-18.7674 -57.9929 -22.4574
42.0213 16.4361 2.6836
45.1645 20.2868 -4.2876
-27.4203 19.5176 20.8877
-25.4883 73.0697 -48.5526
-8.8450 12.7755 49.6588
0.7721 27.0065 31.4311
34.5126 10.0362 17.2594
-14.7962 -12.3313 43.7478
64.3746 30.2733 -38.6281
-20.5854 -53.8258 -17.1758
52.1261 72.8345 -67.8905
-8.1976 23.9728 34.1018
17.3008 31.3837 17.4273
33.6611 54.6312 -27.5622
14.8659 -2.7073 50.3387
11.4947 -36.3990 13.7205
-20.9729 10.6832 36.9579
44.8689 -21.2499 -4.5019
19.7516 -2.6067 42.6968
59.7058 -32.0987 -33.3080
33.9312 -43.3079 -13.0304
71.1094 -43.2098 -57.7956
-22.1747 12.5373 33.8828
32.7542 -26.2300 7.6997
45.8582 43.6240 -26.1717
61.2133 -36.2912 -38.6679
17.0374 5.6501 45.8300
-17.5032 3.2341 46.0687
3.8024 2.0631 67.4634
-37.2691 -30.0859 -1.7243
-37.9525 -80.6404 -67.1908
39.4983 6.4303 10.7869
20.0929 -26.6911 21.2825
-44.1860 28.6033 -9.2492
46.2907 -65.8883 -53.5329
59.4200 -18.6501 -24.5600
-23.4213 -63.7921 -33.5757
3.4100 -14.0414 51.3881
50.6236 30.1113 -19.1989
59.4666 22.2883 -26.5102
0.4326 -69.7266 -36.3897
-32.9145 5.7087 21.2869
31.8246 50.4765 -20.4208
-37.6863 -31.1682 -3.3248
-23.9655 -0.6514 36.2635
53.1588 47.4993 -38.8677
22.9547 3.3838 37.4887
1.4783 -32.3951 22.8385
46.9953 21.7317 -7.8844
46.1884 -13.8617 -2.2425
-21.3044 -69.8845 -41.6802
10.9036 27.1768 27.8345
-32.2371 30.6692 3.6778
-34.6361 17.2616 12.8817
2.8610 -34.7156 19.0203
-86.2478 -16.1596 -65.0051
-26.6585 -6.4095 30.7949
-7.3696 9.0413 55.8108
34.3497 7.8460 18.3834
43.8609 -9.0945 3.2037
-81.3630 -19.6776 -58.5901
3.9277 42.3490 6.7974
-51.7657 24.5794 -16.6627
-6.3582 -83.2100 -58.1834
-8.8750 5.2322 57.9732
-17.1823 6.4166 45.2083
3.7265 9.0408 58.8050
-26.8331 -10.0290 28.8452
-44.6464 -47.4435 -29.1162
6.0248 17.2107 45.3774
-74.3512 50.8803 -68.7293
-43.7763 78.6666 -68.6225
20.8526 15.0009 33.5429
-20.9134 -15.1576 33.3189
-78.3588 8.5133 -50.8271
-10.6441 -2.0081 57.1327
-1.0838 -15.7878 49.2040
-11.9081 61.7428 -25.5167
-3.9356 -8.4878 59.4765
-4.6861 26.8553 31.0444
-28.4354 13.5492 24.3157
-4.4880 50.0335 -5.4354
-61.7878 -68.5874 -72.2553
61.4424 -53.1328 -54.6535
32.8928 -18.7070 14.2454
1.2475 3.8372 67.9257
9.6690 1.3350 58.8335
-24.2702 57.6561 -25.0014
-55.2804 64.1053 -60.0828
27.2129 -19.9042 20.7956
8.1531 -66.8040 -32.5339
-17.7012 40.9329 3.5173
49.9829 45.3164 -32.8003
-11.2997 19.1469 39.0292
-88.8632 -22.2079 -71.1148
7.3727 -50.5372 -6.7658
-11.3497 -26.6613 28.3204
85.0043 -36.8656 -72.7948
-51.0838 -24.9308 -15.9290
-9.0493 27.2946 28.6711
2.5404 -39.0502 12.1931
-19.7700 34.9053 10.6329
-16.5572 83.1650 -60.3184
-15.2631 35.9231 12.3544
65.5682 52.5526 -59.0995
1.6662 29.8669 26.8329
-50.6041 -40.4852 -28.5741
79.7305 -26.1629 -58.9150
-24.7760 -5.6531 33.9794
42.5859 -38.8520 -17.2041
-13.8155 20.2730 35.3765
-11.1965 43.1594 3.5305
4.4644 -1.9574 66.5923
8.4204 14.5818 47.5948
-77.0289 7.2599 -48.5251
13.5068 -6.4581 50.5595
65.4602 18.9192 -33.8672
-40.1895 13.4731 7.0245
-11.5767 14.1633 45.2856
6.4229 -6.0697 60.3001
-37.7429 -7.0178 13.3728
73.6026 -50.2517 -67.1846
23.3553 21.7734 23.6299
32.7720 44.6967 -13.6759
-23.2936 37.1476 4.7077
-29.4234 58.4370 -29.5592
65.8968 51.2793 -58.2558
-27.1175 35.3200 3.6237
-2.9778 -25.3478 33.8058
-4.1826 -31.2060 24.3371
-1.2270 0.4099 72.2787
-25.8502 -83.3362 -64.2188
-61.6892 -7.5783 -24.3611
-12.2479 -15.0897 43.4719
-33.2927 -4.9330 20.8894
62.1197 -5.9634 -24.7619
-7.7737 12.7336 50.6428
-26.7498 -0.0712 31.8561
-26.8748 -0.9584 31.6306
16.4596 -47.4373 -5.3995
29.5249 40.5669 -5.3390
-66.3546 36.4279 -45.8670
-79.2747 -37.1449 -64.6827
-13.4669 -86.5889 -64.8167
-79.0802 -4.3449 -51.4297
-2.0699 -1.9372 69.8311
13.6304 16.7897 39.9925
3.9186 10.8747 55.9778
-4.7779 71.1287 -38.8686
10.5755 55.6941 -15.6854
-15.3263 -62.8371 -28.3726
-61.2937 -69.4500 -72.7555
20.8070 -6.9577 39.4947
0.8249 25.5323 33.7684
4.9038 -7.4413 60.1817
-45.4834 -41.6170 -23.5624
-17.0097 -65.6147 -33.3023
35.2696 12.4454 14.9430
2.4222 63.7491 -26.9688
-19.3452 31.5737 15.5339
-16.7295 10.8344 42.6834
33.2115 -41.6902 -10.3062
37.8039 -4.8495 13.8113
-57.0364 66.5002 -64.7842
37.4049 -39.5637 -12.1239
13.7711 -41.3922 5.0630
17.6761 5.5345 44.9210
13.9122 -20.9132 34.4474
7.7580 6.9980 57.7424
-58.9916 31.7231 -32.0267
-14.6281 60.0681 -23.8383
-43.2631 -50.0779 -30.7523
-0.8409 -7.9940 61.5689
-2.0943 -17.5476 46.2709
-41.5716 -66.8922 -50.7282
24.5529 20.4639 23.5785
2.9637 3.3927 67.1794
-1.0956 -8.2419 61.1301
21.4603 -35.9011 7.9161
-12.9083 -48.6915 -5.6564
12.4972 85.6038 -63.0402
41.3874 -40.5016 -17.6200
-29.3220 26.2919 11.7953
24.5534 28.6559 14.4104
-67.8235 -40.3532 -50.9864
49.7964 -7.7151 -5.6833
-2.1379 -1.0045 70.5819
-83.6223 -18.5843 -61.6926
-48.4712 -77.6514 -71.0223
-46.3598 52.1773 -36.5002
5.1655 3.8047 64.1456
0.9669 18.8446 44.3697
-11.4414 -25.2185 30.3593
14.8169 25.6746 27.2615
-9.2485 -6.8986 56.0114
-23.1076 62.7629 -31.8699
-7.7764 5.2055 59.4733
51.2265 -49.2821 -38.5424
27.0793 49.7317 -15.5852
-2.4121 -4.7564 65.8643
-46.3058 -39.7963 -22.6210
21.6871 -78.3451 -54.7516
-29.7588 8.7868 25.0613
14.0543 -75.4828 -47.5879
0.4748 -2.4167 70.4219
48.8961 -61.1821 -50.0338
35.0580 39.1723 -9.1431
16.6746 -24.2383 27.6162
-4.9021 -14.1992 50.4797
-82.5008 -29.1799 -64.6248
-49.6167 -45.1145 -32.1543
-28.0740 44.3660 -9.0367
-27.2270 35.9622 2.7074
-8.8343 -0.7196 60.2582
19.0933 -30.6845 16.9455
13.9637 -53.4829 -13.4407
58.4989 -31.3059 -31.0240
40.1326 39.8552 -15.4805
9.8272 -1.8822 58.4443
11.0468 -59.3757 -21.5691
-23.4072 -4.2825 36.5471
41.0625 13.7523 5.5691
13.4020 -1.8500 52.8497
-0.6333 -45.6078 1.9042
-5.1090 78.0509 -49.8711
1.5734 -10.9029 56.8405
71.3388 52.0986 -65.9400
3.5455 -0.2030 68.6936
-12.0581 76.8437 -49.1822
53.6019 -50.9623 -43.1124
-10.1200 11.5470 49.9518
22.0160 -37.6812 5.0336
-30.2744 1.4125 26.2072
19.9350 -65.0821 -33.7519
-2.2146 4.7278 66.0426
12.8929 -58.5766 -20.9087
36.7975 12.0474 12.8494
-24.8650 30.7112 11.5859
-69.1150 -10.0359 -36.5673
18.5152 0.3091 44.9281
-21.1250 -4.4299 40.0584
50.3141 44.4699 -32.2956
-41.3894 80.6811 -69.6569
-0.0944 0.1176 74.0933
1.7294 -53.3993 -10.5055
-39.4520 65.7000 -47.3579
20.6604 -39.5443 3.4857
17.1293 -27.0142 23.5397
-31.4795 14.8353 19.0730
-55.0697 -61.9366 -57.2714
33.5780 -6.6488 19.9783
8.4145 -24.3470 33.4279
-0.3665 0.6353 73.1682
-36.8471 65.1498 -44.5198
-12.0593 -0.5222 55.1657
-2.1105 31.6663 23.9377
35.0943 63.7277 -41.1914
-69.5881 -35.4482 -49.6785
63.7450 -56.7798 -61.2220
57.1825 -50.0035 -46.2885
0.2714 -81.9058 -55.7279
-12.4219 -59.4163 -22.0554
-18.5739 -50.5081 -11.1213
57.2572 -58.9404 -56.1510
-46.6249 20.3169 -6.4276
13.5682 2.5886 52.3990
23.2986 -5.8752 36.1783
5.6467 53.7209 -11.4417
-2.1389 12.3032 54.5033
3.1406 -53.0312 -10.0242
-7.9358 54.8064 -13.6031
9.8896 -38.6688 10.9535
-84.9254 28.3235 -67.8244
-23.9617 -49.3963 -74.3329
-71.2799 -50.7130 -74.3329
-61.8259 -5.5050 -74.3329
13.9408 -64.5201 -74.3329
-72.6312 -53.4534 -74.3329
-41.6485 -69.5254 -74.3329
-50.1000 42.7660 -74.3329
75.6304 -2.6797 -74.3329
11.7555 18.2167 -74.3329
61.5605 -1.2172 -74.3329
-47.6364 -15.0507 -74.3329
-17.6361 -3.8653 -74.3329
19.6800 -87.0785 -74.3329
-10.2928 -63.8635 -74.3329
-8.3481 75.5152 -74.3329
17.9898 57.0029 -74.3329
-6.2203 34.4754 -74.3329
15.1643 -22.5292 -74.3329
-55.5402 67.3358 -74.3329
-12.7953 -20.3855 -74.3329
54.1517 38.7108 -74.3329
22.1192 -39.2819 -74.3329
-21.7095 -0.2417 -74.3329
-0.7795 -5.9905 -74.3329
40.4376 -11.5531 -74.3329
3.7114 -23.7481 -74.3329
-1.2309 0.7604 -74.3329
28.3113 14.0577 -74.3329
8.9829 -4.2769 -74.3329
-78.4932 9.9827 -74.3329
10.5062 -21.4184 -74.3329
-22.0186 -9.1037 -74.3329
38.9325 73.9177 -74.3329
-20.3429 76.5935 -74.3329
-74.5463 -7.0519 -74.3329
5.9775 -0.4337 -74.3329
23.8208 -6.4156 -74.3329
-14.1036 25.0605 -74.3329
18.6678 28.7499 -74.3329
-63.0294 13.8963 -74.3329
-9.3808 -8.9820 -74.3329
3.2352 10.4444 -74.3329
-45.8156 12.7537 -74.3329
-47.8028 33.6030 -74.3329
29.8452 32.2397 -74.3329
-39.4154 16.6784 -74.3329
13.7538 38.6441 -74.3329
2.6963 -35.5938 -74.3329
18.2523 9.6634 -74.3329
19.2754 17.2114 -74.3329
7.2154 -6.4706 -74.3329
51.0039 77.1965 -74.3329
6.2237 -3.8347 -74.3329
6.9576 -22.2891 -74.3329
-86.4348 -11.2236 -74.3329
0.3124 0.8786 -74.3329
-27.6387 -56.6357 -74.3329
-59.3205 15.5484 -74.3329
9.0715 41.9701 -74.3329
-81.2440 -0.8519 -74.3329
2.9021 -63.1637 -74.3329
-4.6605 44.5383 -74.3329
0.8100 17.2910 -74.3329
-86.3251 26.8647 -74.3329
54.5676 57.6890 -74.3329
0.8294 23.4433 -74.3329
-30.6606 -74.1828 -74.3329
-28.8166 -54.7445 -74.3329
-34.6373 -17.6130 -74.3329
-0.5679 -38.9123 -74.3329
0.4733 0.6917 -74.3329
85.5257 18.7714 -74.3329
28.2478 -25.4352 -74.3329
-0.0324 -1.3019 -74.3329
0.3668 -13.0568 -74.3329
-27.6808 -84.4992 -74.3329
0.1720 -0.0300 -74.3329
9.4907 11.5805 -74.3329
0.0659 0.4632 -74.3329
44.9448 -50.3139 -74.3329
4.6401 25.2313 -74.3329
-23.8466 44.6519 -74.3329
-7.5802 18.5651 -74.3329
-29.8883 -6.8829 -74.3329
-5.9723 15.2498 -74.3329
5.3273 11.4834 -74.3329
24.1838 -19.5220 -74.3329
20.4512 -28.3846 -74.3329
20.6810 -82.4030 -74.3329
51.0132 17.4748 -74.3329
-12.4666 -13.5738 -74.3329
63.9752 35.7441 -74.3329
13.1717 58.7856 -74.3329
-55.8199 73.3012 -74.3329
-72.4854 -38.2494 -74.3329
-18.8553 27.5370 -74.3329
-81.4406 -1.9161 -74.3329
7.6597 22.7727 -74.3329
-54.7298 -67.6549 -74.3329
-50.5369 -17.0140 -74.3329
-48.2498 -24.9502 -74.3329
22.4951 -46.1101 -74.3329
-56.4137 47.0152 -74.3329
43.5848 27.4282 -74.3329
59.6392 -33.8959 -74.3329
-26.4089 -39.6730 -74.3329
77.0724 0.7122 -74.3329
-54.8211 -9.3267 -74.3329
27.9754 -29.1284 -74.3329
57.1864 -41.2298 -74.3329
21.7309 35.2846 -74.3329
12.6324 -63.7510 -74.3329
6.2329 -13.2758 -74.3329
32.1809 -23.1073 -74.3329
-29.5336 20.5740 -74.3329
-49.2022 -54.4025 -74.3329
-23.2057 27.8055 -74.3329
1.9735 -23.4115 -74.3329
30.4007 -0.8920 -74.3329
46.4030 54.5234 -74.3329
-14.5811 -59.3014 -74.3329
-8.0197 -43.8148 -74.3329
2.4481 -1.7201 -74.3329
-5.3224 -11.4602 -74.3329
-43.0989 27.8482 -74.3329
10.3603 22.3301 -74.3329
10.8119 -37.7734 -74.3329
1.2452 41.3602 -74.3329
-59.0667 42.6409 -74.3329
-25.4856 -29.9980 -74.3329
-20.8525 -29.7423 -74.3329
-27.3179 -17.2387 -74.3329
60.9014 26.6170 -74.3329
82.7910 1.5499 -74.3329
0.6393 -8.3801 -74.3329
-27.9685 50.3486 -74.3329
-12.2296 33.3265 -74.3329
-45.8911 37.7312 -74.3329
-74.3190 56.9115 -74.3329
33.8781 21.2518 -74.3329
18.1741 37.7483 -74.3329
16.7679 -75.1918 -74.3329
17.4451 88.7255 -74.3329
-29.0857 -20.3467 -74.3329
-81.7752 -34.8397 -74.3329
9.8770 -17.6627 -74.3329
22.2249 -43.9581 -74.3329
13.9741 45.1459 -74.3329
-30.6900 16.0268 -74.3329
-76.8453 0.4869 -74.3329
-3.8492 73.7117 -74.3329
-0.0687 0.0031 -74.3329
-72.4509 21.0927 -74.3329
59.2341 -55.6054 -74.3329
21.1515 -79.8011 -74.3329
6.2619 0.6858 -74.3329
-15.1056 -14.4949 -74.3329
46.3700 -15.1303 -74.3329
8.8632 -8.1458 -74.3329
-3.8334 6.3771 -74.3329
-6.3994 -13.1846 -74.3329
-0.1731 26.5049 -74.3329
45.1704 11.1351 -74.3329
89.5927 -24.9103 -74.3329
21.4688 -16.7974 -74.3329
9.3538 -4.6817 -74.3329
-32.7320 10.3119 -74.3329
-58.8356 29.1506 -74.3329
-1.6068 31.4757 -74.3329
-10.7977 -18.9355 -74.3329
6.3027 -10.5858 -74.3329
4.9463 29.8032 -74.3329
43.4734 30.0408 -74.3329
-45.6020 -59.6417 -74.3329
3.3356 -1.0211 -74.3329
-15.4280 -28.9895 -74.3329
-14.5234 5.5101 -74.3329
-9.0068 34.5209 -74.3329
-32.6165 9.2610 -74.3329
-21.7199 60.9131 -74.3329
-24.9677 23.9427 -74.3329
32.9958 82.1622 -74.3329
25.5441 -56.7295 -74.3329
73.7921 6.8503 -74.3329
-9.3461 32.8125 -74.3329
-57.6168 -26.8680 -74.3329
34.1176 47.5244 -74.3329
47.7497 73.3132 -74.3329
81.5339 20.7189 -74.3329
7.4396 -41.1418 -74.3329
0.6096 -11.5707 -74.3329
-31.1189 -69.8184 -74.3329
-69.0170 -44.0733 -74.3329
-6.2650 -13.9781 -74.3329
0.2773 0.2010 -74.3329
39.9682 -11.2731 -74.3329
61.7859 -67.9475 -74.3329
60.0786 13.4400 -74.3329
52.5144 -2.0158 -74.3329
28.8375 -35.4555 -74.3329
79.3435 45.3447 -74.3329
0.3775 -20.4048 -74.3329
22.1776 27.8926 -74.3329
-74.0712 -28.3841 -74.3329
12.5434 2.5392 -74.3329
67.5592 24.7453 -74.3329
-65.6363 -18.8077 -74.3329
10.8997 20.4228 -74.3329
5.6046 -9.5085 -74.3329
55.1544 -63.8947 -74.3329
-27.4819 51.5071 -74.3329
41.2236 -2.7758 -74.3329
-12.7199 40.6069 -74.3329
-4.8547 19.1301 -74.3329
-4.1935 -23.8668 -74.3329
-6.3653 -7.7066 -74.3329
87.8454 6.7470 -74.3329
27.4248 59.2218 -74.3329
-75.8610 18.2753 -74.3329
-14.3757 8.3238 -74.3329
61.6528 14.0805 -74.3329
-20.6955 29.0832 -74.3329
-69.4994 -10.5720 -74.3329
25.2106 -4.6846 -74.3329
-36.6044 -14.4521 -74.3329
6.0859 -6.1985 -74.3329
-19.3612 23.6758 -74.3329
-18.0185 66.8795 -74.3329
-4.0678 -24.3471 -74.3329
4.8705 8.6176 -74.3329
-57.4257 -63.2434 -74.3329
-47.4799 -9.9057 -74.3329
-42.1358 46.8106 -74.3329
-11.3665 23.9984 -74.3329
-67.6652 -46.9728 -74.3329
55.1877 -19.3231 -74.3329
54.4185 5.0740 -74.3329
-37.8624 -43.6400 -74.3329
73.0031 -46.5905 -74.3329
22.1372 17.1443 -74.3329
19.2506 -62.2731 -74.3329
2.3871 7.2588 -74.3329
-37.9780 -18.9453 -74.3329
-0.9769 0.1113 -74.3329
60.0271 22.9921 -74.3329
21.2742 43.1865 -74.3329
-59.4259 15.6738 -74.3329
-5.8516 -0.5781 -74.3329
-27.9416 2.9961 -74.3329
76.1443 7.4788 -74.3329
-13.3204 2.7242 -74.3329
-57.0211 -5.4716 -74.3329
46.8880 76.2075 -74.3329
-32.4806 73.7291 -74.3329
14.3140 64.1036 -74.3329
17.6150 -48.8239 -74.3329
