ply
format ascii 1.0
element vertex 1024
property float x
property float y
property float z
end_header
-2.1158 18.5726 52.1485
-21.7587 19.7851 25.0772
-9.4739 19.2481 45.1749
12.3195 -9.3990 60.2254
-36.3885 -8.3829 5.0381
3.5766 -27.5665 29.1480
-13.0209 -26.2537 25.3393
-2.0103 19.4174 50.0557
30.9152 -47.8423 -44.5257
-11.3709 73.1847 -87.7262
11.8748 29.2747 19.5640
-20.2528 -54.0441 -46.4269
37.1903 44.0290 -46.2239
-30.6970 -34.7379 -17.7380
53.2198 16.2672 -41.2131
10.2772 19.5604 43.5515
-19.5021 14.8252 37.4852
-0.3731 -18.9694 51.4404
27.8908 6.2441 27.1685
32.2085 -41.7601 -33.8560
65.9494 35.0450 -89.2918
-66.2325 -12.6018 -70.9471
-22.3020 -1.4419 42.9132
9.4608 67.7204 -73.3656
46.3010 24.2490 -32.6650
21.0543 40.9947 -17.0500
11.7401 19.6907 41.4572
15.2971 73.7028 -90.7847
-17.4912 16.5764 38.4936
8.4436 -37.3934 2.5289
27.3952 -37.2674 -17.4740
-0.3136 17.0138 56.3825
-6.8028 -1.0997 81.9616
17.7656 22.8517 26.2493
46.3409 30.0169 -40.1086
-3.5722 -45.7809 -16.6327
10.5925 1.7384 72.2532
8.3275 -18.0219 49.2178
-45.5441 19.1101 -25.4006
13.7350 70.1671 -81.2491
-10.2955 -46.0587 -19.8541
2.7856 -2.9684 89.0864
31.9712 -27.1791 -6.6354
4.4165 62.0285 -57.7220
-45.7453 -39.7275 -53.6865
45.8923 60.3931 -92.2445
-17.7684 35.9221 -1.8703
16.0669 12.6889 47.6505
-36.7608 -27.2072 -16.1622
30.8313 18.8606 8.0668
31.3767 -14.4682 12.0856
-2.4951 -47.8967 -21.7901
-71.8495 14.7605 -85.9255
-6.4103 -6.6000 76.1273
68.7912 -2.9986 -74.5743
-52.7733 -12.8411 -37.8349
-16.8517 -8.8459 51.2905
39.5936 -60.7661 -83.8467
-40.8880 -56.5415 -76.8984
54.3777 -47.5785 -83.1569
20.1514 26.7614 14.7427
2.4973 35.5547 9.3309
29.5935 -17.0016 13.1522
34.2289 -40.5593 -34.7005
-56.8017 -9.6496 -46.1774
17.0753 63.9339 -67.7999
62.7788 15.5299 -64.0013
8.7854 -22.0959 39.3013
-60.7954 -28.8673 -70.6442
42.4579 -56.1681 -78.4979
-43.5906 49.2418 -66.7618
16.5820 5.1859 55.4800
70.7279 -11.3603 -81.5919
-17.9969 -6.8301 50.7424
11.6748 48.1059 -25.6820
-18.2271 40.0176 -11.7143
4.4195 -2.6491 86.3532
-16.6813 69.5809 -81.3850
-25.3291 -53.0272 -49.0838
0.9113 1.6216 94.6709
9.3215 2.5807 74.9361
-11.2643 7.9114 64.5970
-68.2450 26.8726 -85.9134
41.0689 -57.0702 -78.2489
34.2149 41.8511 -37.1884
-0.4734 74.6856 -89.3033
-16.6873 62.4464 -63.9164
-45.7725 4.7944 -16.8924
23.1626 28.1644 7.2510
-50.1966 -11.3264 -30.6239
-0.2062 -7.2750 80.9844
-31.7250 66.4932 -86.7435
32.9586 -18.4336 3.9729
-62.0720 37.8819 -84.3301
-3.2413 -30.0214 23.0895
23.9662 54.5590 -51.1672
-50.9029 22.6116 -41.3362
5.7231 0.6116 84.8298
-17.0556 14.4477 42.9035
-5.4463 -52.6985 -34.4653
-2.3469 56.7129 -44.0198
-53.5807 -31.1076 -57.1429
-44.6135 -17.6035 -21.7880
-0.4242 -0.0308 98.2953
32.0614 -0.7869 18.3526
35.6969 -61.4773 -80.2154
-14.2130 16.1378 45.0457
25.0161 -59.8690 -64.5422
-4.6153 -4.9047 82.3565
49.2608 38.2141 -58.1259
0.5529 -8.0017 79.1078
-5.0186 -6.8594 77.8990
-52.7948 -48.5276 -81.7808
-5.2364 -19.6076 48.1016
8.1209 -18.7464 47.7603
52.7724 50.3181 -84.8309
-53.8087 19.0898 -44.8617
-0.1625 -14.0957 63.7592
2.1017 -75.9592 -92.5904
-31.2057 -8.8988 17.3959
7.9705 5.8171 74.4427
-72.7582 -17.6780 -89.7781
46.7690 3.1574 -19.0460
29.0377 32.3844 -10.5100
-51.4706 51.2180 -84.0613
29.6285 31.9255 -10.6594
28.0040 -18.5355 14.5340
-27.9608 -49.7388 -44.7722
-9.9877 -0.2811 74.1290
-21.8665 -12.4077 35.8580
-7.7498 6.0131 74.5904
14.7580 40.7620 -10.1436
-19.0874 20.4347 28.7312
-13.4458 -8.9238 58.6032
-31.6679 7.7721 16.9969
-0.4588 -36.8230 6.3410
11.8214 2.9158 68.6118
-0.4145 17.6353 54.8075
-0.1979 -0.3118 98.4368
-65.2815 29.6574 -81.7635
20.0186 70.9692 -86.9072
2.3014 -0.1784 93.5386
21.7487 60.4155 -62.8386
-5.5795 -62.3296 -58.7156
0.8099 6.3290 83.2512
32.6742 20.8981 1.3899
11.9463 -19.4869 41.6283
1.5320 1.0336 94.7012
-17.3536 -42.8728 -17.4704
-52.0218 -44.2865 -73.2178
8.4284 4.1024 75.6899
-3.1499 14.0684 62.9506
18.9980 -11.1397 43.7355
-26.5055 -19.1530 16.7603
26.6340 31.2617 -4.3780
14.8729 32.5488 8.9682
23.9242 26.5422 9.1014
16.4469 28.6236 15.9748
-7.1385 3.1768 79.6316
61.4487 -39.3781 -84.9994
71.4735 -23.1481 -90.4184
42.9369 33.8239 -38.7094
-21.1895 41.6383 -18.6530
9.9474 28.5678 22.9524
-39.9026 18.9366 -12.2066
-15.5058 13.9610 46.6615
47.5943 -35.7503 -51.0027
-43.2795 -4.2398 -10.4855
-30.3390 -6.1057 21.1913
6.0771 47.6680 -22.0227
0.1267 7.4520 80.5419
38.2986 25.1664 -16.3980
-9.6259 33.6983 10.8368
23.1444 7.6337 37.8046
-28.4112 16.0433 16.9457
-47.6031 -33.0239 -46.9883
37.6684 -7.3653 2.4107
1.0984 -15.4078 60.3481
-53.6965 22.4839 -47.6886
-4.9714 -6.0554 79.5780
-11.8498 70.2090 -80.4993
-7.9584 -12.5922 61.7389
51.5495 26.8597 -47.4705
-36.6872 -53.2308 -63.9449
-26.5240 -42.6602 -27.5294
46.7307 24.2697 -33.6518
-57.3229 34.5744 -69.7392
27.1387 58.4195 -63.3552
-49.0004 -35.3187 -53.2176
-71.2613 0.1372 -80.6494
21.2185 -36.6839 -7.6859
-24.2615 -15.4448 26.7157
-29.5774 -32.6143 -11.8543
-12.0517 -34.1125 7.9756
-20.9421 -25.9326 15.1652
-14.8731 -49.9394 -32.2621
12.8388 -14.9830 49.5249
-6.4421 3.0182 81.3983
-16.0049 25.1788 24.0011
-5.5439 0.2708 85.3481
-13.7314 -35.9337 2.1928
73.6358 2.3430 -86.7418
-3.4839 -29.0813 25.3799
-5.5909 1.0130 85.0162
-67.1073 -33.4520 -90.0505
10.8572 47.1306 -22.8088
-35.3107 -40.3149 -36.0142
-57.0048 21.2775 -54.3392
30.4228 54.8881 -59.1619
14.6149 27.2023 21.3618
-8.0901 43.2027 -11.6651
-9.1006 31.9990 15.3289
0.6001 -5.8496 84.5151
-5.9421 -36.7214 5.3982
-5.3504 0.3274 85.8284
22.6590 12.3314 34.2015
29.7059 3.2995 23.8657
6.6591 -35.6451 7.7659
-24.2790 16.7946 24.7927
-13.5602 65.9058 -70.6078
-71.3675 -18.1484 -86.6554
-20.4891 -4.5271 46.3622
0.4455 0.6992 97.2754
-44.6765 12.6732 -17.9440
28.7409 -61.9811 -73.2201
-23.2421 19.2324 23.1612
-5.7544 -13.0512 63.3376
10.2759 0.1043 73.4097
-1.4292 2.0312 93.0958
-44.1499 51.8511 -72.6657
52.3678 23.8329 -45.9766
5.2386 3.7216 83.1367
24.2579 63.1137 -71.4378
-46.8793 -8.3165 -20.9049
-40.5824 -9.2788 -5.7942
-0.1229 -22.7056 42.0105
-8.8684 9.2077 67.0752
-8.6234 -18.1569 48.5920
-1.8501 -17.6875 54.4442
6.9986 20.9482 43.5757
2.4420 -55.7318 -41.5539
61.7992 29.2352 -73.3337
-70.7538 13.4177 -82.5527
-32.2235 -0.7556 17.9451
-9.4070 31.1754 17.1079
-6.3549 -68.7553 -75.0589
-2.8223 3.7016 87.6110
54.8398 -1.6615 -39.2290
-39.3335 -32.9744 -30.2907
-0.7489 -9.4883 75.3261
25.9207 67.1923 -82.5623
-1.2369 -8.4938 77.6865
-18.0387 58.8872 -56.2130
-0.8052 0.7164 96.6473
70.1323 -17.8025 -83.4159
5.3102 0.5754 85.8767
-4.6032 0.8995 87.5214
18.5566 54.1857 -45.3176
-1.3938 -4.7480 86.8694
5.0379 -1.7733 85.8778
15.0964 14.1709 47.0642
10.3760 10.5422 62.0028
-34.7516 65.3239 -87.5486
8.4457 4.5744 75.1059
22.4736 -0.1883 42.5954
18.3454 68.2062 -79.0551
16.4635 -29.2649 14.5458
-69.8325 5.6939 -77.6253
48.8156 45.8789 -69.8625
-24.8254 -59.9909 -64.6416
-0.2410 0.3097 98.3783
-38.7213 11.7454 -2.8483
0.6038 -2.1304 93.7760
12.2135 59.4403 -53.9241
-9.8636 25.7589 29.6906
5.9095 2.0906 83.5348
19.7782 13.5727 38.7732
-70.5421 -8.9320 -80.2552
7.4344 8.6274 70.5998
9.9735 -49.0960 -27.1887
-13.1695 -36.0784 2.3472
4.2010 0.3528 88.7199
-5.8021 -36.5168 5.9647
40.3011 -36.3070 -37.6594
49.7129 -35.0346 -54.2668
-16.3559 -22.1632 29.7862
-2.0246 50.7739 -28.9962
0.4712 -1.2952 95.8880
-69.0861 12.8490 -78.1470
-13.8924 6.2864 60.8492
23.5572 -18.7555 23.3024
33.1857 -1.2192 15.4802
-59.1783 -51.4330 -98.6968
-76.6553 -0.7482 -94.2845
-61.6458 -41.1588 -87.8789
-16.9710 -57.6863 -52.5318
21.0112 42.0922 -19.4741
-17.2083 -71.6633 -86.8108
-17.1411 18.2988 36.0304
-14.6442 6.2510 59.1465
15.7732 -22.5688 29.8128
47.1740 -25.5551 -36.1628
-14.3928 32.7177 9.0750
-16.8941 37.3470 -4.1792
-20.9126 10.4732 40.2860
16.7031 74.3260 -93.0740
17.1757 -3.1491 55.2577
25.5227 -47.5276 -36.9101
24.8358 -4.5208 35.5990
-4.7962 -1.5990 86.5982
-4.6372 -2.6999 85.8145
-0.0593 -4.9174 86.9468
-12.8051 20.9362 37.3731
27.3567 -56.1953 -58.5176
14.3466 -20.1429 36.8979
0.7194 -14.9293 61.6118
-6.4089 -12.3628 64.1920
50.0083 -25.1548 -42.0421
-16.5158 -1.8237 57.3944
-17.0376 17.8878 36.9649
36.5095 -56.9289 -71.4762
3.7956 78.4896 -99.1409
-56.7295 41.4184 -78.0703
17.5158 47.4836 -28.4833
39.4231 45.7971 -53.2826
0.0857 11.4811 70.3657
21.7600 74.7339 -97.2613
-12.9422 44.9785 -18.8644
66.1743 -32.2766 -86.6233
-1.8830 -3.5096 89.3084
-0.2098 -43.0320 -9.3382
4.0200 70.5050 -79.0278
-47.3809 -18.4257 -29.0552
18.3419 -18.7947 33.0286
-25.9172 -65.7653 -79.2007
-41.7541 -9.7844 -8.9659
-3.9094 -31.4675 19.2659
17.9282 42.0944 -16.2112
-65.9245 -13.7702 -70.7615
-15.7359 13.6216 46.7932
-0.6734 0.7523 96.8192
12.5151 26.9119 24.3937
55.9920 17.7154 -48.9870
12.4189 71.1655 -83.1239
32.4006 -5.2876 16.4373
11.4340 12.4324 56.7004
-0.6526 7.4428 80.4957
-59.0684 11.6967 -52.7451
-6.8411 47.3888 -21.5840
54.1705 53.6149 -93.1675
-15.9991 -30.1459 13.1553
-21.5469 -24.1669 17.5781
-9.7133 28.3061 23.7706
-12.2237 28.8493 20.2192
8.3970 -3.8803 76.0020
-0.9515 20.1609 48.3831
45.9189 -49.3883 -70.9884
23.8251 29.2569 4.0553
-6.9002 0.7759 81.8287
0.6833 0.7451 96.8158
9.9586 36.5786 3.6022
-9.5099 -5.5050 71.6113
-4.2561 -28.9427 25.4690
21.8485 0.3835 44.1680
11.3183 35.4902 5.2662
-1.9804 9.5248 74.7938
31.8403 6.9144 17.0606
-3.3227 20.1324 47.8237
-4.7617 41.5175 -6.1985
-23.7824 -45.5974 -30.5439
-40.1649 1.4319 -2.1586
-10.8756 -18.4375 45.2942
42.5386 43.1166 -53.6379
-4.2929 -2.1216 87.2732
-41.9345 -37.2309 -42.2913
-38.9363 -32.8639 -29.3434
-16.9149 -26.0388 20.9307
10.2503 32.5575 13.1438
16.4871 46.4747 -25.2026
39.2010 7.0651 -1.2544
20.7785 54.3261 -47.5634
4.3616 -77.0866 -95.6763
17.6197 -44.2563 -20.9643
21.4832 -15.2307 32.8444
-13.9643 28.2376 19.7905
27.1208 73.1325 -97.6706
-20.1246 10.0370 42.5594
-0.1482 0.2444 98.6478
2.8513 -1.8626 90.7662
17.1818 10.8137 48.0845
29.2986 55.7149 -59.6505
-42.8537 9.0047 -11.2506
-23.1526 -12.5491 32.8433
-46.0367 11.2199 -20.3313
46.0008 1.4429 -16.8936
6.3212 34.5582 10.6211
9.7412 37.3532 1.8529
-3.4504 56.4401 -43.4743
-24.9555 -5.0531 35.0483
23.5303 -6.0489 37.9954
30.9794 -25.0182 -1.2227
37.2051 -11.9460 0.6569
11.1941 10.8174 60.0454
-19.1153 68.8246 -81.0750
-67.0195 -34.9866 -91.6147
23.1052 0.8865 40.9588
73.3660 19.1210 -92.1571
17.3433 -33.2290 4.6816
1.3899 8.4477 77.7425
-0.4886 33.5177 14.6889
6.9123 -26.8485 29.3338
47.2982 15.7015 -26.5256
31.5546 -22.5455 1.4010
23.4098 -33.9716 -4.8512
-33.7652 -44.5311 -41.8054
-53.1651 -20.1013 -44.2140
27.3297 -42.1489 -27.5300
-14.4851 -0.1909 62.7746
-20.7021 -20.8165 25.2056
3.1168 -48.4299 -23.2260
-19.6854 -56.3472 -51.4100
41.3675 11.6455 -9.1940
-36.1443 68.9159 -97.2154
-51.7331 -7.8817 -32.8254
56.5547 -3.0752 -43.7087
-34.7527 -25.1092 -8.9390
38.6794 10.1287 -1.6360
-11.5976 -29.1914 20.0204
58.1687 -27.9855 -63.6968
17.0938 -3.1857 55.4442
-4.7962 3.6227 84.1859
60.2187 -22.0143 -62.6001
-2.4985 4.8733 85.5352
-0.9557 -2.0703 93.6095
-42.7973 -8.3567 -10.7857
-13.6776 -26.7980 23.3654
-73.8191 19.5573 -93.5443
4.0507 -47.5593 -21.2086
-18.4944 -27.2512 16.1717
0.4114 -1.1554 96.2715
11.6570 -18.1485 44.8807
-18.1541 -33.8828 2.2640
11.5705 57.1378 -47.9004
17.3009 -43.3830 -18.6168
-21.3802 72.8083 -92.3232
-13.8806 11.1642 54.3704
-7.8436 -23.0267 37.9181
-0.5317 -0.2160 97.9201
-59.5446 -23.8866 -62.7025
-70.6125 -14.7349 -82.8526
6.1832 -47.3350 -21.2229
-29.4044 -2.1977 24.8817
23.0831 -11.5389 34.1779
2.2563 10.7635 71.5882
-25.0523 -6.3452 34.0848
48.6228 -17.0994 -30.8343
0.6905 0.9277 96.4484
62.0507 2.2596 -57.4855
-6.9204 16.6464 53.8289
7.0402 -6.9587 74.3635
-28.2600 35.6143 -15.4813
18.5499 45.9119 -25.7209
71.6028 11.7525 -83.9321
-9.6334 8.8842 66.2652
21.9911 -16.9239 29.2698
-1.3542 -16.1057 58.5404
-23.5314 39.8415 -17.5210
-27.0348 -28.4848 0.1624
-6.5649 24.4249 35.4782
45.5733 -37.9023 -50.3692
-24.2930 0.0078 38.0012
8.7172 -33.3937 12.1844
-18.8272 -26.9419 16.3384
13.9170 -23.3992 30.5944
25.4459 -45.3357 -31.9631
1.1211 26.6025 32.1073
45.6833 3.7876 -16.4305
15.3711 -5.4249 58.1923
37.4784 12.5536 -0.4775
19.4906 7.4436 46.6643
36.9533 -21.6273 -8.7934
-36.7535 62.3655 -83.4999
-41.7658 -1.7704 -6.2329
47.9787 1.5995 -21.9003
-27.6390 24.2269 6.5225
-1.5428 2.9875 90.8759
-6.8563 9.0312 70.7256
0.5368 31.5608 19.6300
64.4443 -0.0810 -63.4283
-10.1495 74.2929 -90.0508
26.8545 -15.3992 21.1683
-20.2410 4.1467 47.1754
-35.1977 -1.9068 10.3236
-21.6672 -62.0868 -66.7493
16.0984 11.5174 49.3662
-48.6021 -40.1603 -59.9002
2.0129 3.8931 88.2984
62.0891 36.2201 -82.2158
71.9939 17.9343 -88.0578
20.7771 72.2817 -90.6208
22.5876 -24.5212 15.1495
13.7133 -17.5341 43.1375
-2.8811 71.3182 -80.9398
10.6750 -5.2848 69.2790
23.4211 -58.1577 -59.0132
26.8598 -68.1824 -85.7545
-4.8943 74.5446 -89.3487
-40.8940 13.1810 -9.1697
-9.5449 -2.4028 74.5054
-30.3431 7.3795 20.4833
-54.7969 -26.7654 -54.6877
-23.4659 6.7682 37.6741
-55.3573 -23.6711 -52.7213
-70.3970 3.2687 -78.6573
-7.0365 46.1446 -18.5474
30.4207 50.6950 -49.9828
18.2313 0.1386 53.3128
-1.2866 -43.0106 -9.3313
-66.8466 3.0712 -69.6749
32.0995 -17.9182 6.5024
30.5624 18.3090 9.3697
12.3310 4.2720 66.4030
-48.0270 9.9262 -24.5193
34.3257 12.6506 6.9553
-54.7602 7.8966 -40.3953
39.0168 -45.7709 -52.5645
-71.8928 -26.2137 -93.9405
67.2533 28.9936 -85.6397
1.4518 38.1808 2.8484
-35.3798 -67.4336 -93.0022
-43.1624 -12.9807 -14.4904
-22.8643 -27.8118 8.4177
-45.8860 -49.3387 -70.8399
39.2729 -39.1335 -40.6862
75.9215 -3.7104 -92.6507
52.4608 9.0932 -35.1317
-1.3892 -0.4394 95.6890
-6.3382 3.7324 80.7884
-43.1113 5.7341 -10.4963
-17.9475 -32.2683 6.0939
46.3833 1.1258 -17.8372
-77.0468 -12.4348 -97.7830
50.3666 31.2572 -50.3755
-3.6048 48.0372 -22.3222
-12.4888 -12.9185 53.9788
-0.4370 7.1876 81.1790
-36.3831 38.6900 -34.7951
30.0268 -5.1543 22.4072
43.1976 16.0249 -17.0219
-1.9348 4.1156 87.8814
1.1995 19.0228 51.2194
-0.8805 -1.5814 94.7975
1.4969 -0.3693 95.4751
71.1867 -31.6329 -97.4161
32.2261 67.5672 -89.7372
-77.8149 7.5035 -98.1165
36.1135 -1.3953 8.0726
-0.4782 45.9696 -16.7639
-12.0511 -32.1521 12.6300
-61.1230 -48.2601 -97.3654
1.3103 -64.7282 -64.1788
15.8232 -10.1321 51.9050
-3.7481 18.0564 52.7836
-50.2263 45.7225 -72.2102
-9.9054 22.1982 37.9636
4.0194 -10.6014 70.7285
-2.9733 9.3262 74.6419
-7.4757 6.4801 74.3775
48.8618 18.0416 -32.2095
7.3729 -6.6871 74.2248
-7.4167 58.6705 -50.0221
40.9779 -4.5635 -4.7877
52.6152 13.9736 -38.1533
-0.4657 0.5642 97.5218
-12.0261 -53.9930 -40.3686
16.8790 -10.3288 49.3803
-75.0011 3.3017 -90.2801
-58.0233 -50.1418 -94.3556
-20.3561 1.3055 47.8409
-37.8275 -25.7394 -16.2134
33.1047 1.2477 15.6820
-7.9451 -11.9634 63.0906
-1.6273 1.3147 94.0850
53.3169 14.3627 -40.1199
-35.1312 25.0031 -9.5598
6.9173 -23.2074 38.1950
48.6171 -46.2933 -70.2175
-26.8465 4.6649 30.5344
32.4334 66.8038 -88.2266
0.3562 -0.0962 98.4377
-77.1090 13.6427 -98.4469
-32.9944 -51.8027 -55.7827
47.9317 60.2863 -95.1935
8.5330 -10.2050 65.7655
-20.7733 -48.4279 -33.7479
40.7249 -3.8809 -3.9747
-30.0482 56.5678 -62.4401
-9.2380 -34.8575 8.2736
-32.9979 -67.5345 -90.5105
-2.0290 -1.6159 92.8172
-10.2064 -16.6405 50.0558
68.1931 6.7889 -73.7499
42.9612 -3.7422 -9.5690
0.1297 18.8046 51.8648
35.4708 10.6791 5.7913
58.2678 6.2489 -48.6693
8.2990 50.0285 -28.7384
4.8245 30.2621 21.9567
1.3115 53.8012 -36.5823
-25.4494 -31.1494 -2.2428
11.5277 -4.1556 68.4144
23.8546 9.9466 34.0799
-6.1390 2.4169 82.7029
-2.7152 3.4202 88.3381
-3.7224 7.4463 78.3397
-7.9959 40.0421 -3.7807
54.7549 28.0656 -56.0627
-36.4919 51.8376 -60.7749
-58.4272 15.9849 -53.6521
53.2183 53.3827 -91.0497
-32.9895 51.3638 -54.8422
18.5304 17.1572 35.5745
69.2132 10.5228 -77.4845
14.6478 10.3280 54.0937
50.4501 -45.0568 -71.5041
4.4344 -6.3658 79.7715
-16.7070 13.1697 45.6289
-26.7740 -59.5066 -65.4698
40.8452 -20.9711 -16.6180
-44.7903 32.7607 -40.8148
-32.1886 20.9250 2.3841
-0.4919 -0.3720 97.8118
7.3722 -7.3188 73.1273
-60.9932 43.7338 -90.2255
27.6790 -9.0234 25.8259
18.1822 -36.7978 -4.3166
-58.9238 -41.9075 -83.2898
-46.0679 -28.3579 -37.2876
-45.9692 -43.2008 -59.9895
-48.3346 24.4080 -37.4174
-22.7729 0.6822 41.8155
-5.4306 -29.3283 24.0219
14.6356 -10.1650 54.3550
16.8320 12.8225 45.9165
5.4219 1.5821 85.1019
-31.5058 14.8935 11.3358
-4.6724 -2.8989 85.4792
11.7579 -0.8752 69.5850
-21.3521 4.8439 44.0600
5.3822 10.6221 69.2884
30.6333 19.7617 7.2793
7.5189 19.8855 45.6643
28.7275 46.5440 -38.8012
10.9371 -34.0160 9.1068
13.1319 46.1534 -21.8496
9.8556 -0.9097 74.3669
2.8704 -14.1616 62.8674
0.5887 -0.2268 97.7761
-9.7228 17.9131 47.8820
3.5358 3.8802 86.1085
13.4654 -73.7611 -90.0436
45.4513 -17.2065 -23.4007
-38.4920 -35.2580 -32.4949
59.9685 -22.0456 -62.0337
-30.9621 70.5799 -95.3293
5.5104 -18.1930 51.3492
-46.6694 7.3733 -19.9880
24.4841 12.8271 29.5445
-48.4456 -16.5136 -29.9272
36.7751 16.4312 -2.3821
-21.5096 29.6254 6.8850
0.3149 1.4195 95.6968
48.3792 34.2644 -50.3924
18.6366 -67.4963 -77.5182
31.0039 -63.0690 -78.1642
33.6710 21.2178 -1.1687
-51.5137 -18.9106 -39.2544
-1.9411 -14.7573 61.7690
-14.7741 36.7520 -0.6932
-63.4846 -1.8055 -61.0688
-3.1798 -18.6937 51.4677
-10.0727 58.3133 -50.1217
6.9331 37.8326 2.2064
0.8334 0.8521 96.3588
15.3249 49.5993 -31.7714
-52.8854 -33.6261 -58.9470
-8.3459 -16.9783 51.5779
-64.4827 -29.8323 -80.1132
25.8558 71.9110 -93.6760
24.5529 -64.2835 -74.4640
-36.5694 -48.3967 -53.8669
63.0868 20.3328 -68.0716
68.1859 0.6922 -72.8891
-11.1739 -5.5379 67.8659
71.8315 21.3261 -89.9180
34.6766 -69.4479 -96.7223
8.4629 1.2259 77.7678
4.3197 18.6503 51.0085
-73.9793 0.4214 -87.5183
3.7893 -49.7541 -26.6820
-19.5883 14.4625 37.8602
17.3876 24.2427 24.0049
73.6784 12.1598 -89.2729
3.3846 -19.1955 50.1305
4.7148 74.3757 -88.8939
36.3643 -24.9013 -11.9667
22.9458 49.5460 -38.5633
19.1275 -73.8839 -93.4276
19.9255 20.1671 27.7518
-3.6201 60.4079 -53.5052
-52.6642 -55.3671 -93.6647
1.5098 20.4868 47.4760
-0.4889 0.4399 97.7084
0.1055 -0.0016 99.1032
-33.2729 34.2470 -21.2522
3.4189 -6.2572 81.3574
24.8589 15.1931 25.7719
5.2937 -4.3685 82.0315
29.7936 43.6583 -34.1528
-1.8545 3.5936 89.1541
-18.4299 17.6552 34.8968
-35.5574 -39.0682 -34.0798
41.5959 -56.6138 -78.0995
-32.5847 67.8653 -90.8076
-4.2596 -2.4533 86.9521
-67.1665 -16.3849 -75.2805
64.4082 7.8739 -64.5482
11.2527 -18.6532 44.3382
-25.2837 31.3173 -2.3083
-2.5181 -18.9459 51.0882
11.6631 1.1067 69.7743
-22.4857 52.6182 -45.1816
-4.4805 -73.8335 -87.4901
-69.1776 -2.6079 -75.5095
-46.4272 -58.0019 -88.3121
11.4097 -38.7066 -2.5697
-14.9310 -23.2689 29.5276
-61.6404 38.3401 -84.0092
-8.6770 44.7785 -15.8529
38.0860 -63.4395 -87.5526
51.5516 6.0107 -31.7410
-34.0817 16.9339 3.2314
29.8468 60.9622 -72.0986
17.9130 52.1732 -39.9811
43.8444 -35.6283 -43.3475
-4.6181 -26.6934 30.9358
11.2024 15.4438 51.1729
72.6359 26.3675 -95.8374
17.2038 -20.8069 31.1676
15.8767 18.0029 38.7324
-21.4508 -38.2928 -11.5085
0.0912 48.5826 -23.3589
-1.0201 9.4945 75.2469
-23.4355 -20.3697 20.9300
-32.4989 25.7710 -5.4081
-63.1402 -11.2493 -62.6454
12.4413 25.0726 28.6629
-75.9815 -5.6646 -93.1059
4.9528 11.8213 66.9920
-8.0717 31.3401 17.6154
2.4515 59.0795 -50.0043
-26.7395 -14.9369 21.9965
37.8194 44.7610 -48.6622
36.5829 -4.9648 6.1077
-64.3453 45.0704 -99.0867
2.6323 -3.4498 88.4079
1.0156 -57.0173 -44.6891
-20.1545 -40.9088 -15.8344
3.6347 -5.8530 -99.3698
-34.0602 34.9323 -99.3698
12.5918 -23.6475 -99.3698
-2.5803 18.1077 -99.3698
-30.7048 -38.6497 -99.3698
-30.3813 45.0703 -99.3698
-41.4435 -0.8259 -99.3698
-14.8472 -8.6765 -99.3698
10.9568 34.6048 -99.3698
2.8768 25.9037 -99.3698
-18.6027 15.2714 -99.3698
61.3860 -9.9479 -99.3698
4.4593 11.6881 -99.3698
-64.3993 6.9096 -99.3698
-18.9738 1.3166 -99.3698
1.0973 -3.6540 -99.3698
12.5740 62.1692 -99.3698
-3.0315 -8.5154 -99.3698
5.0838 -7.9685 -99.3698
24.4916 5.3384 -99.3698
15.2101 1.2246 -99.3698
-5.2540 4.4511 -99.3698
58.3201 -46.1015 -99.3698
-8.1285 -17.3036 -99.3698
-13.7584 -4.8017 -99.3698
13.3529 -7.5063 -99.3698
-14.6688 -50.2842 -99.3698
-3.0946 -19.5073 -99.3698
-21.1821 44.9977 -99.3698
31.4906 -47.3196 -99.3698
-2.6667 5.9639 -99.3698
4.9081 -1.9021 -99.3698
-0.3249 2.8061 -99.3698
0.4181 -31.8653 -99.3698
-43.3190 10.2403 -99.3698
62.5387 29.4128 -99.3698
-13.7832 -53.2435 -99.3698
22.0161 -4.8222 -99.3698
-0.8622 -37.6829 -99.3698
12.2019 24.8747 -99.3698
60.1183 1.2973 -99.3698
20.5708 -12.6904 -99.3698
-6.2900 -36.1768 -99.3698
63.9117 23.2421 -99.3698
3.7066 -34.3165 -99.3698
-4.5639 21.8652 -99.3698
9.1887 -3.6425 -99.3698
0.5509 30.5176 -99.3698
13.0025 40.7332 -99.3698
0.3346 0.8150 -99.3698
7.6709 53.8074 -99.3698
-53.6455 38.0962 -99.3698
-72.9686 -10.4049 -99.3698
15.0961 52.4372 -99.3698
-22.3691 -29.3495 -99.3698
5.9784 -2.7485 -99.3698
14.0371 35.2381 -99.3698
-16.8039 30.2646 -99.3698
4.3617 7.5509 -99.3698
20.2858 19.4431 -99.3698
56.1249 10.8293 -99.3698
-0.7943 -26.0874 -99.3698
11.9810 27.9033 -99.3698
-70.5913 22.4274 -99.3698
-61.8944 -13.4747 -99.3698
-37.3710 -43.4129 -99.3698
-7.6511 13.8501 -99.3698
17.4804 -66.5535 -99.3698
-17.6441 18.4266 -99.3698
5.0920 54.6366 -99.3698
14.7351 -27.8033 -99.3698
25.3528 14.8947 -99.3698
-64.6962 8.6331 -99.3698
1.8321 5.5989 -99.3698
-23.1783 -38.2548 -99.3698
33.4104 -7.1756 -99.3698
-38.7191 -66.2218 -99.3698
-40.8658 52.6288 -99.3698
56.4792 37.7219 -99.3698
-13.7798 38.4388 -99.3698
14.8083 33.7028 -99.3698
-17.4082 -56.9441 -99.3698
-7.6269 -65.7493 -99.3698
43.2800 -26.3378 -99.3698
8.3774 27.0170 -99.3698
40.1345 46.8267 -99.3698
14.9803 55.5434 -99.3698
-5.5777 8.8728 -99.3698
50.0708 22.8981 -99.3698
-53.0439 1.8572 -99.3698
2.1042 -2.7466 -99.3698
-12.9476 10.5801 -99.3698
-21.7899 -68.7217 -99.3698
-15.7838 20.7675 -99.3698
-14.3899 -18.5553 -99.3698
1.1348 6.4220 -99.3698
-12.1961 -11.1325 -99.3698
8.5834 38.0748 -99.3698
-34.3069 10.3482 -99.3698
8.1370 44.3857 -99.3698
-3.2271 30.6547 -99.3698
6.6136 -42.7192 -99.3698
-10.9694 -9.0670 -99.3698
-2.4344 -5.8989 -99.3698
-23.6677 -8.1861 -99.3698
15.5122 54.8428 -99.3698
3.8345 -0.1925 -99.3698
16.4788 71.8929 -99.3698
-7.8030 -31.1771 -99.3698
26.0785 -6.3489 -99.3698
58.4011 -51.5861 -99.3698
10.9705 -0.6260 -99.3698
-39.1130 -12.3178 -99.3698
-8.7681 -32.1276 -99.3698
23.1892 67.6207 -99.3698
2.0379 35.7517 -99.3698
-14.3487 -5.5236 -99.3698
17.3127 -24.1112 -99.3698
-34.2540 -5.2492 -99.3698
-22.8615 35.3949 -99.3698
-21.9808 10.4284 -99.3698
-46.4551 23.6258 -99.3698
-3.9169 60.4333 -99.3698
-18.2742 -11.5176 -99.3698
-20.7412 46.9359 -99.3698
2.7629 -46.2056 -99.3698
-8.8033 13.0844 -99.3698
-8.1951 42.1705 -99.3698
-26.7415 -26.6544 -99.3698
8.4072 -38.8520 -99.3698
-13.9894 60.2641 -99.3698
-77.4332 -8.7032 -99.3698
17.7557 67.0574 -99.3698
0.8827 -5.1167 -99.3698
-5.6094 -18.4862 -99.3698
-35.3839 -1.0619 -99.3698
-52.9229 -46.7735 -99.3698
-39.4635 -24.4967 -99.3698
12.1500 -26.6799 -99.3698
44.3913 -8.3187 -99.3698
32.1645 -32.7753 -99.3698
27.5024 -49.2143 -99.3698
2.9770 2.6679 -99.3698
-13.6569 10.0717 -99.3698
54.6923 -31.2963 -99.3698
67.9763 20.9763 -99.3698
60.4112 6.9279 -99.3698
24.0482 -19.3674 -99.3698
-10.4510 -53.7978 -99.3698
-14.9624 -10.7034 -99.3698
7.5728 -35.3032 -99.3698
32.9320 33.2268 -99.3698
-0.9232 -7.5711 -99.3698
-41.7073 52.1790 -99.3698
75.2688 -14.5431 -99.3698
43.1694 -40.0010 -99.3698
-35.7405 -53.7747 -99.3698
-18.0638 -67.1812 -99.3698
-60.7961 -27.0901 -99.3698
54.4642 -12.3814 -99.3698
-0.5996 -43.1411 -99.3698
5.9442 -3.1286 -99.3698
-13.5579 18.4013 -99.3698
7.0014 -13.3731 -99.3698
-29.5331 -72.2926 -99.3698
-12.6213 5.5072 -99.3698
-33.4361 33.2995 -99.3698
25.8094 9.8259 -99.3698
-42.3818 45.1640 -99.3698
4.4221 1.6482 -99.3698
-13.2285 60.0285 -99.3698
-54.6047 -15.8218 -99.3698
27.0345 0.3539 -99.3698
-8.5799 8.0905 -99.3698
0.6323 5.1277 -99.3698
9.1105 -14.6339 -99.3698
31.8122 -23.6886 -99.3698
-25.9747 -12.1511 -99.3698
-12.5529 50.2039 -99.3698
-42.1530 42.7439 -99.3698
-75.4482 -15.5225 -99.3698
4.1644 29.0294 -99.3698
-29.6315 -68.2197 -99.3698
-60.8900 44.3738 -99.3698
-53.3748 -5.5454 -99.3698
1.4061 -11.2002 -99.3698
-11.5685 69.4350 -99.3698
34.1419 47.5566 -99.3698
-51.0425 -55.3909 -99.3698
0.1567 0.2552 -99.3698
-46.2595 -31.8153 -99.3698
-2.0278 -21.2824 -99.3698
-0.2505 54.1908 -99.3698
-8.8642 43.2428 -99.3698
31.9676 -63.7389 -99.3698
1.6295 -1.1412 -99.3698
-33.2271 57.5849 -99.3698
-19.1218 -69.5859 -99.3698
-34.3509 -56.3565 -99.3698
63.8973 -16.1493 -99.3698
3.4520 17.4056 -99.3698
25.5987 63.6659 -99.3698
-62.7810 38.2904 -99.3698
-0.0003 -0.1280 -99.3698
-24.5152 24.7337 -99.3698
-52.1535 43.0052 -99.3698
12.0754 21.7860 -99.3698
4.4462 -29.8942 -99.3698
-31.2695 3.8751 -99.3698
46.7592 -29.5973 -99.3698
4.0116 -66.2424 -99.3698
-1.6842 8.9651 -99.3698
-49.2071 6.2122 -99.3698
-31.8165 46.6733 -99.3698
53.3142 3.5514 -99.3698
30.2490 -10.2027 -99.3698
-8.3312 3.7524 -99.3698
25.4692 41.6196 -99.3698
-32.2378 -54.6002 -99.3698
17.7760 47.0419 -99.3698
-67.4528 -30.0110 -99.3698
2.1861 -43.5144 -99.3698
3.3866 -15.0039 -99.3698
22.5786 -1.1833 -99.3698
54.2548 1.6990 -99.3698
-4.6501 42.6284 -99.3698
-0.0141 -0.2943 -99.3698
31.1867 -62.5132 -99.3698
-2.6329 4.7014 -99.3698
35.2343 39.3953 -99.3698
-37.7081 21.3471 -99.3698
9.3458 -2.2461 -99.3698
-45.7323 41.9925 -99.3698
0.0413 -21.9500 -99.3698
-21.7334 -16.1497 -99.3698
16.3900 9.8945 -99.3698
-9.3227 67.0246 -99.3698
-3.5375 35.5816 -99.3698
42.2831 -15.6536 -99.3698
7.8356 -0.0169 -99.3698
-6.0878 24.5409 -99.3698
0.4855 -5.5217 -99.3698
8.0604 34.5343 -99.3698
8.0938 -25.0494 -99.3698
-47.8002 41.0209 -99.3698
-37.5458 26.1683 -99.3698
76.3889 -8.7375 -99.3698
-56.0566 15.3949 -99.3698
-4.5019 44.3276 -99.3698
0.0628 -28.5095 -99.3698
25.7748 38.8691 -99.3698
-41.6205 18.8739 -99.3698
-49.0405 50.4187 -99.3698
3.2003 -38.5995 -99.3698
-25.9089 -12.5513 -99.3698
-29.4866 43.0271 -99.3698
