ply
format ascii 1.0
element vertex 1024
property float x
property float y
property float z
end_header
0.6245 26.9740 31.6955
-18.0239 9.4840 46.8604
-42.0088 -15.4558 -9.0710
-10.3343 7.7750 63.9057
34.0783 1.4963 15.3483
-5.0512 -8.3110 71.2580
0.6453 0.9184 90.9830
-31.0742 29.5438 -4.7496
59.4075 36.9456 -66.8408
29.5187 28.4179 -0.3881
-14.5515 -17.3477 41.6428
-19.9626 4.4822 46.6478
-3.1933 0.8959 85.9524
-15.9888 -33.3089 8.8452
29.8881 -22.8854 7.2494
-3.7862 0.7923 84.6876
-43.2410 12.4344 -9.6015
-0.4922 -18.1609 51.9028
0.2646 0.3218 92.6012
-59.8797 -5.5530 -44.3214
-42.1910 -35.5382 -32.9199
61.2841 36.3536 -69.8137
18.4451 26.0683 20.3401
-12.7311 -17.0437 44.7814
14.6125 -25.1310 26.9055
-8.4136 -25.2464 32.5432
11.6251 1.0869 66.7869
26.8495 51.0438 -38.6766
10.2717 -12.6769 56.1481
8.8716 -6.4368 68.4262
-3.5688 63.1662 -51.4983
-2.4398 -7.1329 76.2722
-1.3450 26.7016 32.2589
25.7314 -8.6289 31.3321
-55.1676 -53.6935 -82.9468
9.8398 -45.5212 -13.2222
-1.0152 -50.8696 -23.0976
-19.4507 -65.5424 -63.1929
13.7481 -1.2097 61.9139
-26.9878 -0.4226 31.6727
-3.8039 -12.7453 63.0611
0.2560 14.8890 59.4147
2.2740 -2.0685 86.5084
-42.6712 31.5587 -28.1271
-73.0536 4.7167 -74.2852
-0.1830 -81.0439 -92.2566
-26.3591 37.4298 -11.4049
45.1035 39.1452 -43.3697
39.8799 -65.8332 -82.9163
-68.5169 -34.2320 -82.0500
-43.8795 13.5362 -11.7261
-53.6590 -40.5644 -60.6677
3.6021 14.6118 59.0525
-28.1921 69.1983 -77.7590
-40.7458 7.9622 -1.6300
24.8097 -32.3604 0.0668
-37.2370 43.9358 -38.4892
-31.2457 -2.8098 21.6291
-34.3996 -56.5926 -58.2854
-21.3137 -48.2351 -27.3495
21.3092 -12.5775 36.8243
52.7581 -38.5779 -56.2925
-29.9839 -17.0526 14.4710
-1.9408 -2.8344 85.6803
-75.5079 -25.3365 -89.0496
-41.5020 18.7545 -10.8615
-45.4982 -3.4183 -11.0531
41.2529 69.6087 -91.9599
46.7552 40.1094 -47.6811
-1.9998 7.6429 75.4432
56.3555 -46.8696 -74.4985
23.9419 -40.6147 -14.5378
25.4218 25.1936 11.4973
30.6663 -64.0412 -69.2394
7.3142 -76.7390 -83.1836
-0.8618 -2.2979 87.9297
-59.8092 -6.3173 -44.3333
-4.6017 66.8838 -60.1533
-27.1639 4.3420 30.4859
-26.2994 16.2037 22.7327
6.8972 -3.7048 75.6059
-9.1745 -4.3972 70.2303
-2.6248 76.5451 -82.0448
15.7576 -54.0034 -35.4227
-4.3053 -46.5417 -13.6072
1.4845 -38.1830 5.9466
1.9159 -16.3044 55.9174
-29.8252 38.0611 -17.3087
-25.7104 -6.2998 32.8653
2.3010 29.4371 25.8589
51.4472 41.0150 -57.2955
-3.2343 -17.4137 52.9485
-67.2544 -27.3681 -72.9186
-62.5179 -19.2806 -56.4425
-0.6536 0.1535 92.0172
-1.1883 11.3592 67.3705
10.0966 13.3847 55.1168
35.5684 53.8532 -54.4147
-48.6564 -16.8529 -24.5023
-1.9460 28.7480 27.4938
11.6240 -13.7324 52.3064
-16.2536 -16.0332 41.2114
1.5055 12.7643 64.0882
-7.9024 1.0009 75.2935
21.3408 26.7640 15.0742
-14.3126 -45.6954 -16.2301
-31.8468 -42.8901 -28.9236
-63.1481 5.8055 -51.8364
28.5886 -5.4435 26.8324
-60.8646 45.8300 -81.1271
30.3502 -27.9045 -0.9702
-70.6629 13.9984 -71.6037
-56.5601 -2.7128 -36.2703
5.9311 17.7670 50.6114
49.4389 57.0838 -79.5837
2.4237 1.9257 86.4589
-6.3433 -0.1248 79.0099
66.3498 11.0772 -60.6720
60.5506 -39.7733 -72.5413
2.5000 77.2534 -83.6583
-20.4201 5.4406 45.1050
-10.3234 23.7729 34.1340
7.6676 -4.1727 73.5421
-69.6823 30.5730 -80.9079
41.5394 4.1472 -2.1561
-47.4837 -21.6336 -26.0779
3.7393 30.1697 23.8558
-18.8098 -27.6800 16.8269
-12.7507 34.9798 8.1949
-16.9364 -18.2287 36.5077
-9.9580 50.7404 -24.9972
55.9272 34.3541 -56.9293
-1.0705 -2.5813 87.1493
-36.6347 -22.4062 -4.9017
14.8179 -16.7598 42.2657
-0.0250 -1.1181 90.9921
16.0972 20.1052 34.5061
15.0520 27.1420 22.3984
-33.9862 -38.7656 -24.6440
9.8310 -4.9862 68.2832
30.3424 -25.4466 2.7630
-53.4774 7.2294 -30.1688
-13.3809 17.0644 43.8382
-40.4816 67.3138 -86.5356
-67.4069 7.7001 -61.9951
-27.0937 -70.7402 -80.1213
-45.7692 36.9743 -41.3441
-10.1179 5.3277 67.3391
-9.6241 0.5291 71.4574
32.6403 17.6146 8.5188
43.5483 -3.2801 -6.5712
-34.5059 33.0256 -15.9528
-2.3278 -9.5746 70.9649
-66.3755 14.6998 -62.3127
-32.7621 -64.9098 -73.1472
30.5447 -47.3646 -35.6610
8.2356 -42.2853 -5.2145
39.0841 -11.9303 -0.1350
27.9804 38.5459 -15.6485
13.6876 23.2955 31.6087
41.9897 -67.3191 -88.3519
-14.7097 -21.1859 34.4225
19.9069 -38.1199 -5.0424
34.0025 62.7155 -70.0078
9.3692 -70.7971 -70.1782
-0.8441 1.1111 90.3572
18.9532 -67.9564 -68.1963
0.3634 -0.2502 92.5449
-6.6144 9.7383 66.5658
-45.2260 19.8507 -19.6837
-25.9425 26.1867 9.0429
11.2542 -29.8138 20.4931
32.1539 58.5647 -59.6237
0.3630 0.4258 92.2735
30.7974 -5.8997 21.6619
22.9315 19.1228 25.0984
29.8533 -26.3108 2.3216
37.2507 34.8782 -23.4430
-10.3562 0.5913 69.7736
9.5509 13.8869 54.9140
18.5481 -5.1927 49.3954
19.0867 -29.4202 13.1519
-4.7320 -3.1284 80.5505
-0.6708 11.9094 66.2079
6.2263 40.6571 -0.7466
17.3493 26.9760 20.0203
-27.8948 11.1006 24.7228
-4.4344 -0.1165 83.3860
-0.7173 -0.6345 91.3608
-23.9281 -22.3033 18.5593
-40.6258 -9.0237 -1.8580
33.9470 -9.6185 12.6608
-5.0562 17.0760 52.7253
0.7571 2.1791 88.2672
-37.8179 20.4778 -5.0457
-9.8821 15.9253 50.5853
-2.9297 1.3255 86.1839
33.8574 -31.7779 -12.9057
2.7411 -27.0784 31.1554
0.0880 0.3529 92.7225
-14.7325 3.4712 58.8538
-23.1047 -24.5639 16.2393
-17.8285 -1.4422 52.5468
-31.2542 -8.2346 19.4533
58.5049 -36.4751 -64.5140
-68.6614 -29.3217 -77.6201
-22.0066 6.4223 40.9963
-3.2716 2.3989 84.2551
-6.4230 -4.0640 76.1299
-21.5650 22.3383 22.3687
34.3949 14.0304 8.3891
23.6795 -21.9251 19.5670
-8.0796 12.4900 59.4507
-25.6365 73.2010 -84.2693
-14.9974 58.2997 -44.4616
39.5992 17.7203 -5.9100
35.8983 26.4439 -8.6691
50.2858 30.0645 -40.7703
-57.6398 8.7400 -40.1073
12.0557 0.4688 65.8950
49.6056 13.7485 -24.4638
25.2461 -65.0786 -66.4860
-17.4440 25.9523 21.8624
49.2268 -4.2226 -19.7223
-25.0967 -48.9702 -32.6052
-2.0090 -2.2021 86.7221
60.9811 16.2777 -51.1527
-1.7458 5.7920 79.6867
38.2828 29.5807 -17.3655
-0.6810 -41.8209 -2.3408
0.3938 0.6376 91.8381
-70.8079 11.3112 -70.8461
6.8105 76.9393 -83.5351
38.2848 16.2976 -1.8430
-4.2924 7.1251 74.4849
8.1489 6.7071 69.3585
-3.6666 -3.5923 81.7875
-24.3370 8.5497 34.4150
7.9143 27.5577 27.8198
-33.6271 17.6074 6.5287
29.5769 -60.8381 -61.5397
-3.0854 3.0569 83.5984
24.3252 13.5513 29.7145
16.7264 -19.1512 35.2586
-1.6932 13.4991 62.3639
-23.8258 -10.9537 33.4335
-0.0260 -6.9474 77.6276
-37.7880 22.9008 -7.7500
-0.0971 26.1357 33.6335
-67.6344 43.4292 -90.7278
59.0678 -25.7226 -54.1549
1.1343 -0.7928 90.3835
21.7920 -68.7969 -71.9010
-28.2572 -21.9164 11.5673
51.5636 -1.1984 -24.6975
13.3393 11.5503 53.1010
3.5944 -21.3539 43.9087
-11.3265 27.1798 26.0458
10.9062 -25.0232 30.9724
79.3835 7.4020 -89.2388
4.9587 24.1679 36.9913
-31.9126 3.2819 20.0032
-20.4374 -32.8087 4.9338
-30.5177 6.8804 21.8310
3.5085 -11.1032 66.8588
-2.4574 19.2454 49.0733
2.3134 -12.2545 64.9637
6.6773 -27.6467 28.3470
-40.5041 39.7009 -36.4793
-9.9394 50.9864 -25.5426
18.6034 2.9379 50.3750
-39.8404 -23.5272 -12.5255
-26.9319 -5.3659 30.5949
54.0038 42.9678 -64.6700
16.9570 5.1788 52.9055
-65.3668 -24.6270 -66.5961
22.7840 34.4172 -1.0774
-11.7765 -8.3002 60.5235
-8.7764 -5.2285 70.1342
-66.6641 31.7663 -75.7527
-15.4877 8.2551 53.3179
5.0996 37.9640 5.7330
44.6161 -29.5978 -29.1989
62.8482 24.4052 -61.0210
2.8207 -10.0996 69.5145
-3.7859 43.1690 -5.7987
11.3329 17.5239 45.7088
14.0308 -36.6788 3.5186
29.4569 46.1097 -31.8926
-19.3693 -61.7246 -54.7662
-0.8051 13.3212 62.9587
41.7378 65.4244 -84.3697
73.0751 17.9217 -78.9508
-62.7107 10.1407 -52.0905
69.1917 40.9882 -90.8277
15.3475 0.2876 58.3623
-23.5349 32.0094 2.4653
24.4518 18.2554 23.5939
45.0473 4.7855 -10.3066
44.0370 50.4299 -59.9447
22.0330 -19.3476 26.3286
43.4508 8.6280 -8.0099
0.7139 5.0664 81.8258
-42.9695 4.4099 -5.4790
76.2216 24.2838 -89.8546
-38.4637 -17.9250 -3.7370
-18.6510 47.2689 -22.9501
12.5711 79.6180 -91.2483
48.5475 22.8040 -29.4182
-0.8725 38.0336 6.3323
-7.6450 14.7819 55.4009
-38.1768 26.4881 -12.9781
-11.6078 50.6597 -25.6032
-58.4693 28.3819 -55.4574
-40.8394 66.9198 -86.1880
-33.7631 65.9926 -76.4000
9.3038 6.6344 67.3573
-31.8865 45.4253 -33.6897
39.7821 -3.9145 1.9059
74.7279 26.9997 -88.6153
19.0171 4.1343 48.9366
-52.5675 2.6588 -27.1213
-13.7118 34.0175 9.4655
38.8068 21.5932 -8.2639
-50.5426 -34.2692 -46.4497
-11.4943 -11.3058 56.5914
-32.3886 73.7407 -91.1010
-3.8847 16.4579 54.7857
-22.1486 -38.0370 -7.3600
34.4083 -18.5319 3.9528
-9.9179 36.8566 6.0478
13.9349 -2.0032 61.2789
-0.4025 0.6991 91.7069
-4.0709 -6.5312 75.9113
1.0315 -26.3195 33.1663
2.2395 -17.1907 53.8096
-46.1566 -66.6669 -92.3522
5.4494 8.5435 70.3230
0.8471 -43.1165 -5.3175
3.7847 -71.6429 -70.9312
65.1875 -43.0130 -85.5054
4.4564 51.9767 -26.0499
-8.2768 5.5904 70.6568
13.8220 45.7668 -16.0559
47.3203 52.4069 -68.3327
-21.2238 -23.5135 20.9327
21.3787 43.3103 -17.1815
46.3120 17.3132 -19.8021
7.1032 26.6405 30.3428
-26.9815 -6.9362 29.6833
-2.5236 -63.1940 -51.4466
-10.3464 14.1958 53.2818
53.0023 -0.6849 -27.9743
11.0474 19.3709 42.4290
-41.4102 -23.1086 -15.1691
16.3089 50.9542 -29.1064
-77.4789 -12.4675 -86.3677
15.3890 -71.2446 -73.5561
64.9448 13.6614 -58.6038
6.1612 -77.3587 -84.3686
-28.7322 -55.6214 -49.9786
-19.3088 42.9981 -14.5108
45.7118 -29.3640 -31.0096
27.6453 -41.5177 -20.8047
49.0382 -2.8056 -19.0594
-13.3249 8.5867 57.2120
40.3754 -38.6042 -34.5185
-17.7156 -27.9868 17.6149
-51.4772 -47.2841 -66.7008
39.4782 -7.8142 1.2870
-72.8447 -18.3492 -78.6747
-47.6394 26.4526 -31.3769
17.3916 -7.7759 49.8779
25.9948 37.5535 -11.1593
-49.7683 -4.0325 -20.9234
22.7961 46.1812 -24.5221
-30.6349 -50.6256 -42.1119
39.9697 -12.7029 -2.6004
27.3665 -69.8735 -78.4943
0.3782 14.3502 60.6436
8.2861 14.1433 55.9742
-11.7557 -13.0366 53.3091
-33.2240 60.9125 -65.5235
0.7088 -36.5788 9.6750
77.4070 11.8479 -85.9846
3.2230 20.7088 45.5050
-7.6315 -12.2662 60.4343
-62.3663 -27.0824 -62.3332
-1.4959 -0.8437 89.6187
-1.9256 -3.3638 84.6698
0.5047 -1.8051 89.2590
-26.2610 11.0646 28.2208
-35.6995 34.6647 -20.5312
-29.6176 -18.3621 13.6594
7.4619 43.6775 -8.0355
0.3240 5.4200 81.1076
-4.4690 -69.4574 -66.0207
33.1186 29.2231 -7.7099
-51.3804 29.5407 -42.3278
-36.6952 -21.1649 -3.5673
69.6146 -22.4645 -74.1563
-3.0351 -0.8767 86.3132
23.6336 61.7804 -58.1003
-50.0112 43.4491 -58.3355
-53.2480 0.9650 -28.5474
12.9343 -0.7654 63.8495
33.1420 61.0563 -65.7233
41.4212 -13.7877 -6.5347
3.4703 -5.3807 78.8766
-6.2995 -7.6033 70.9180
-40.3644 17.4078 -7.2282
5.2216 63.6715 -52.9158
7.4081 -9.6590 65.6474
-17.3004 48.9178 -25.4068
28.0731 -31.8431 -3.7725
-35.2991 -51.2062 -49.0384
-14.9093 36.9001 2.3093
-31.6615 -10.7478 16.8963
7.6009 -19.4533 45.6713
17.9462 23.7035 25.3914
2.1096 10.8922 68.1194
-73.8431 29.6468 -88.8819
50.7098 -60.2414 -86.9815
25.1163 24.3421 13.3639
68.0866 24.4460 -72.3053
-0.5627 -1.2047 90.5079
5.7660 -20.7954 44.0791
47.7720 0.8846 -15.9911
6.5903 20.3043 44.6132
8.3486 -48.5823 -19.4630
44.1939 -61.0790 -79.2947
75.2564 -1.9790 -79.0466
-4.8284 -45.2512 -10.7819
27.0020 10.9689 26.7347
19.3507 60.7757 -52.6789
-28.4850 7.2126 26.1866
13.8583 9.2987 55.2931
7.3031 -0.9711 76.6649
0.5280 -1.3996 90.1266
46.9418 65.5826 -91.3558
-31.1701 -36.0639 -15.7325
25.2599 -34.1733 -3.8751
-14.2732 -12.5901 49.9199
-9.8527 16.2522 49.9816
4.8877 -18.2207 50.3041
-9.9146 -7.0976 65.6005
-20.1001 -12.1588 39.6965
67.9532 -20.2423 -69.0083
4.4998 -48.5511 -18.2357
-13.0928 -14.7686 48.3055
-35.7300 7.7429 9.7353
3.9774 27.1116 30.7311
67.1429 -14.2929 -63.8341
8.3134 -1.3295 74.2537
2.6525 55.1534 -33.0423
-15.1935 24.2100 28.0239
66.5714 -41.2586 -86.0109
-17.7326 -38.6393 -3.9173
-16.1069 -76.6020 -85.9125
11.4949 10.2505 58.2448
-17.8503 -51.7229 -31.8942
1.0767 18.1554 51.8576
-60.9178 8.7865 -47.5576
-22.4031 -29.7250 8.2161
41.1866 7.9435 -2.6139
13.5012 26.0251 26.3361
-70.8759 -28.5607 -81.6411
-1.2245 -78.8245 -87.1894
16.5686 -53.5521 -34.9669
-25.7012 18.9502 20.3442
13.4810 42.7318 -9.1764
15.0452 -36.2285 3.6160
29.4491 -10.7910 21.6471
41.4472 -36.6299 -33.2638
39.5586 -39.9036 -35.2698
59.5935 -7.1639 -44.0597
12.2204 0.6191 65.5023
-9.9195 0.5990 70.7720
31.0705 7.0415 20.5133
71.4975 -18.7977 -75.9396
-2.1833 -11.5335 66.6433
-55.0064 -48.6289 -74.7762
26.9186 -41.1669 -19.2158
-0.2904 -3.0870 86.4474
-2.0995 -15.4058 57.9084
50.5841 26.2867 -37.1447
0.2364 0.3010 92.6789
18.4676 -69.2417 -70.7463
8.0491 15.0768 54.3713
-44.1215 -15.3529 -13.5522
-6.8450 78.4277 -86.9415
19.1488 38.6728 -5.3842
-68.4994 -36.5643 -84.4689
37.0214 -30.1249 -15.8747
-36.0522 17.0291 2.1410
-5.0766 28.2967 27.6436
-38.5830 -19.8760 -5.9524
-12.4789 16.2606 46.5619
6.9144 38.8788 3.0188
-15.2537 -6.1944 55.8100
54.7250 -12.0131 -34.9014
-49.9263 -55.1671 -77.0339
-1.3911 -1.6955 88.5281
77.3048 -6.4473 -84.2987
26.4563 -23.2652 12.7814
4.6046 -3.5485 80.2280
24.8859 -22.7465 16.2563
40.4918 -15.1450 -5.5621
5.9504 -46.7103 -14.4037
-12.5852 -19.5149 40.3164
-22.2203 -2.2766 42.3443
11.0842 47.0760 -17.3280
71.4063 5.1484 -70.5848
1.7598 -29.2147 26.4534
72.7284 8.6026 -74.3534
19.3897 -11.1068 42.3239
7.5697 1.9985 75.6063
-22.7250 -47.4716 -27.1118
29.8365 52.2102 -44.3158
30.4324 -43.0493 -27.3163
7.4033 0.0291 76.5824
25.2521 33.3636 -2.3776
0.6897 -7.7551 75.7058
15.4214 5.2193 56.2289
7.2279 -37.7899 5.3435
-67.9333 -28.5008 -75.3491
-23.9914 56.9709 -48.1725
-7.2570 -41.5336 -3.1121
17.4925 -46.5557 -20.4695
49.8510 -64.2638 -92.9177
13.1890 41.2802 -5.8018
-68.5916 -35.0952 -83.0958
2.6570 -1.3624 86.7103
6.9070 5.3244 73.5615
8.6375 21.0273 41.4374
-35.1604 -63.3056 -72.4710
31.1332 -28.1287 -2.6431
-34.1030 -6.5243 13.9491
-38.4260 -3.1731 5.1557
14.1668 -19.4102 38.4611
-43.2863 56.1459 -68.9869
-64.5853 26.4042 -66.4178
-64.7187 43.4765 -85.1995
15.1856 -54.3783 -35.8890
-76.1417 13.4206 -83.7077
-3.1291 2.5759 84.2641
-8.2021 24.4090 34.5178
-27.9727 14.6088 21.2027
35.6487 43.2453 -34.9390
-22.9790 18.1924 26.3591
-13.5665 -32.5696 12.6636
0.7633 -10.2924 69.8938
12.1690 -4.6009 63.7284
-33.0222 -26.3518 -3.3070
-1.5626 -1.2052 89.0320
39.8725 -20.1355 -8.8564
-27.3619 -49.0769 -35.2707
17.6102 39.3797 -5.3477
-58.6989 50.6156 -84.1494
13.3620 -3.9397 61.6170
41.3701 61.9714 -77.2788
-28.9106 -71.5047 -83.2783
20.5119 -1.6896 46.3686
-36.3509 31.3766 -16.5400
61.0678 25.1221 -57.8408
-12.1466 0.7041 65.6607
20.2697 15.1648 35.5165
52.1771 -47.9126 -68.8573
-42.9729 51.3812 -60.0178
-20.0142 -13.9342 37.6430
35.2794 -2.9196 12.3933
-25.8541 -44.6858 -24.8089
-12.9020 16.8436 44.9110
3.5478 -9.4339 70.4481
-7.8656 -27.6402 27.6685
1.5180 -68.4813 -63.4919
-39.5591 -31.3786 -22.2108
-32.0138 4.7640 19.3489
-55.8793 14.2539 -38.6628
-0.9844 1.2136 89.9736
-22.4477 59.7646 -52.8150
48.1802 -41.5752 -52.3496
-3.0413 -28.6032 27.6071
-65.5130 -40.9133 -83.5323
-49.8192 2.8698 -20.8555
16.2825 13.7743 44.6586
41.1693 36.0800 -31.9526
-46.7060 -31.6898 -35.8504
38.2559 0.6105 5.8344
11.1710 28.4929 23.3881
-67.5159 -13.4622 -64.2872
-23.8472 -35.2540 -4.0274
27.8389 12.1169 23.9452
-39.1642 -27.6015 -16.2962
54.8691 34.6340 -55.2094
-1.4771 3.4340 84.9856
-51.2330 -51.7042 -73.3284
-29.2714 6.6846 24.7170
73.4464 18.5607 -80.1309
-29.1176 6.5251 25.1416
-41.9149 27.4352 -21.2994
8.5150 -3.4312 72.5082
13.5804 5.6810 59.8055
-46.2507 49.7004 -62.1012
2.0038 -50.6250 -22.6046
25.3661 -5.8220 33.8864
-28.8200 -37.6919 -15.2286
-4.2461 16.2461 55.0570
61.2945 -37.5159 -71.2094
-49.2332 14.6339 -24.2033
38.1413 34.0192 -23.6218
34.1739 -20.8218 1.8066
-0.6554 0.1762 92.0003
-8.0641 20.0004 44.1136
-15.6658 -33.9658 7.7976
8.2451 7.9258 67.3349
-5.4109 34.5799 13.3090
-16.7887 -12.8682 45.0580
2.8288 16.0000 56.3037
-6.5239 27.0865 29.6782
26.9875 -69.6976 -77.8031
6.1837 -4.7546 75.6722
35.8505 61.2906 -69.2411
-11.3011 -71.4698 -72.3411
44.3465 49.7581 -59.2591
-62.0628 24.5780 -59.4894
74.3884 24.9902 -86.3638
-76.8041 -20.3773 -88.6278
13.0644 -20.7738 37.2917
58.0707 15.7936 -44.4210
64.1902 6.3821 -54.3406
6.8797 59.0247 -42.6881
-0.0293 -0.2047 93.0821
-36.4392 33.7230 -20.2766
-20.1911 -13.9811 37.2487
-17.1211 6.0632 51.9133
14.4907 66.1497 -61.7040
-33.1540 21.7645 2.6272
-6.3894 37.4017 6.5618
-19.6359 36.1763 -0.8170
33.0789 36.0404 -18.6034
-0.0647 -0.0239 93.3983
-37.4846 65.5187 -79.5083
0.5641 -0.8386 91.2391
-5.7320 16.2047 54.1474
37.6332 -30.6277 -17.6904
25.9651 -44.7350 -25.0341
-23.3024 -2.1727 39.8984
61.7731 17.0530 -53.3709
6.3692 -2.6755 77.7173
35.4948 -19.3918 0.8230
7.5241 68.8015 -65.1280
-12.8968 -23.1111 32.8767
42.5338 19.1127 -13.3556
49.8592 -31.1277 -41.2067
13.2003 -49.2880 -23.4308
7.7511 -0.3472 75.7672
3.1754 6.0823 77.8252
-49.8740 -22.0995 -31.5148
13.9985 -28.3827 20.9981
9.8064 -18.5002 45.5496
-45.2240 -22.6014 -22.3582
12.1688 78.5936 -88.7855
1.5602 39.8723 2.0695
18.0494 5.6064 50.2233
-11.7346 4.3810 64.8382
47.5619 -6.6604 -16.5547
-41.7186 33.3474 -28.8959
-22.9163 -5.5715 39.4848
-28.8240 -11.9068 22.0540
52.8553 -48.2132 -70.4697
34.9590 -37.5646 -24.0957
-71.9460 -12.5698 -73.8958
-61.5719 29.9972 -63.4743
13.7127 16.6966 44.0197
3.7485 -19.5970 47.8111
-55.8185 -7.5564 -35.5882
-11.2438 -15.2496 50.1168
-9.2877 -20.2443 42.4899
-6.7013 15.9404 53.9110
0.3478 -0.4121 92.3200
-17.4616 31.0106 11.9605
28.3669 17.8819 16.6746
33.5920 11.8719 11.8703
25.3983 -7.9800 32.5182
49.9396 -6.1596 -21.8097
14.7130 -71.8307 -74.5519
-49.2310 -29.9055 -38.5109
-21.6937 -17.6173 29.4832
-12.7166 71.0819 -72.0034
43.7451 -0.2070 -6.7409
-68.1881 -38.9352 -86.4721
-6.2907 -0.9506 78.9696
8.8419 7.0086 67.6880
-34.7461 12.8779 8.5972
-8.2321 38.5304 3.2224
-22.3562 -9.1381 38.1828
58.0891 7.2060 -40.6476
71.8478 -30.9502 -85.8059
20.2893 -11.1296 40.4991
-42.5857 -12.0447 -7.9117
-16.1621 -5.4159 54.4758
55.5160 -59.7895 -93.5066
45.3331 62.9963 -84.3879
15.7719 -24.1380 27.4477
-11.6171 -42.5055 -7.4719
0.8354 -19.3762 49.0905
44.9809 22.0050 -21.2524
13.6589 -16.7541 43.9958
-26.0227 -7.4944 31.4682
-32.5605 35.7005 -17.2262
20.9934 55.1634 -41.7682
-41.7337 27.9667 -21.6259
8.3229 -5.5231 70.6547
-9.8033 39.0221 1.3087
49.9434 24.3268 -33.8121
32.6641 65.0470 -73.3270
-3.9317 0.9881 84.2617
-31.5816 34.9906 -14.5127
36.7724 -34.9571 -22.7696
-52.4220 -8.4074 -28.1695
-4.2208 -21.1482 44.1129
-34.5267 38.4715 -24.9617
-60.3931 22.8242 -54.4678
11.1388 -36.6418 5.7503
-10.9138 13.7890 53.2375
-2.0470 1.9790 87.0284
-14.0888 -36.2715 4.3421
-72.8620 -30.3983 -87.4530
-37.2404 26.0755 -10.6758
-24.2793 38.7047 -11.1980
-18.8210 63.0391 -57.2800
-32.0513 36.9988 -18.6754
-56.2501 -9.9441 -37.4102
-7.4707 -11.0720 62.9330
-12.8967 -29.5017 19.7360
4.8885 -60.4851 -45.5725
21.2811 69.0706 -72.1507
27.5586 -41.8688 -21.3662
-31.3548 -33.5524 -11.7323
1.1139 2.7533 86.7467
5.4235 10.8622 65.7204
40.2401 10.5441 -1.8183
33.7389 -67.9955 -80.4761
-55.8395 42.8789 -67.8606
44.1258 16.9357 -14.8081
-26.0815 28.1722 5.5345
10.6796 -1.3878 68.8650
63.1407 -21.1751 -59.1327
-35.8536 4.8777 10.5963
-61.2753 22.4967 -56.1012
52.1939 8.4976 -27.6863
54.7214 4.4662 -32.3227
12.3999 63.5028 -54.7887
-25.3443 -22.1284 16.4168
2.5108 2.9364 84.6985
2.2859 51.2063 -23.9632
-9.9190 -12.4829 57.0011
-29.3071 -1.8474 26.2295
0.0796 0.3301 92.7778
1.4104 -16.1972 56.2799
36.0208 -56.4934 -60.0572
37.0585 -17.2059 -0.1204
0.6437 -18.7740 50.4871
-34.4930 -7.7192 12.5168
-3.2350 -59.4867 -43.0326
57.3113 9.2418 -39.5409
-23.7501 -4.9434 37.9367
34.5740 -44.6644 -93.5564
18.6780 41.8611 -93.5564
-31.1565 65.9210 -93.5564
7.9013 -65.6009 -93.5564
-53.5035 -26.2857 -93.5564
-25.2437 24.5860 -93.5564
38.6974 17.4420 -93.5564
-0.5085 -29.2401 -93.5564
46.7664 -24.8701 -93.5564
-38.2442 17.6103 -93.5564
-60.3110 4.2266 -93.5564
7.5315 -10.1957 -93.5564
-19.9977 -16.6327 -93.5564
-4.6320 -7.0589 -93.5564
-72.6161 22.2882 -93.5564
-20.7644 -78.2621 -93.5564
-32.3791 -12.7760 -93.5564
5.2954 2.5008 -93.5564
18.4680 33.3061 -93.5564
-25.8268 -38.1147 -93.5564
48.3446 57.2747 -93.5564
45.7127 3.8002 -93.5564
9.0221 3.6436 -93.5564
-3.9569 2.9209 -93.5564
-3.9486 1.7162 -93.5564
67.3573 -44.5200 -93.5564
44.5996 -9.4377 -93.5564
62.8428 0.4259 -93.5564
-77.7343 -22.5395 -93.5564
29.6914 51.5762 -93.5564
-21.1620 -9.9353 -93.5564
-44.2133 4.6961 -93.5564
-14.7554 -13.5643 -93.5564
-19.0481 30.7449 -93.5564
-15.9176 1.6961 -93.5564
-0.5869 -4.5104 -93.5564
-6.3723 -10.1230 -93.5564
9.5169 4.3813 -93.5564
-58.9592 -48.5722 -93.5564
-41.0057 24.7744 -93.5564
4.3064 6.3332 -93.5564
-3.1547 -66.5047 -93.5564
43.2208 37.8034 -93.5564
-63.4644 -49.1045 -93.5564
40.2940 2.1779 -93.5564
0.2214 4.5944 -93.5564
73.5335 29.6508 -93.5564
2.4389 -3.1027 -93.5564
20.4019 -65.7224 -93.5564
49.2388 -64.1726 -93.5564
-20.7963 -70.7736 -93.5564
-58.0393 44.3975 -93.5564
8.1053 68.9098 -93.5564
-0.4171 -16.0975 -93.5564
1.2192 -41.8202 -93.5564
-30.7010 24.1385 -93.5564
27.9180 -24.0602 -93.5564
-8.0313 46.3530 -93.5564
-1.0002 3.0668 -93.5564
4.0586 8.3503 -93.5564
-13.1917 -10.9815 -93.5564
-1.8324 11.1354 -93.5564
-45.7461 -56.4386 -93.5564
-0.3224 8.5993 -93.5564
-15.1735 45.7793 -93.5564
-24.5396 -43.2213 -93.5564
65.9301 34.1021 -93.5564
-17.7404 -58.5799 -93.5564
11.4522 0.4565 -93.5564
-10.0124 -1.5964 -93.5564
56.7730 -18.6850 -93.5564
-19.2212 -67.8705 -93.5564
-19.1272 -70.8732 -93.5564
11.2444 -50.7528 -93.5564
-1.0812 -25.3433 -93.5564
5.0436 -16.8753 -93.5564
2.5631 30.8233 -93.5564
24.3532 68.3550 -93.5564
-33.5775 -5.0647 -93.5564
39.8055 -0.5348 -93.5564
-4.3326 -9.1970 -93.5564
7.6973 -1.3321 -93.5564
24.4999 52.1665 -93.5564
-4.8295 28.4408 -93.5564
26.8492 -26.3467 -93.5564
15.6079 -20.2137 -93.5564
-72.7360 34.1280 -93.5564
8.8692 9.2594 -93.5564
-32.8809 -40.4495 -93.5564
-12.1675 7.6035 -93.5564
-13.7231 -13.5600 -93.5564
-16.7686 6.2714 -93.5564
-72.1453 -13.8601 -93.5564
6.4869 8.4839 -93.5564
-72.4455 -33.5774 -93.5564
-34.8504 50.7318 -93.5564
6.5521 -17.4563 -93.5564
-7.9772 -28.3509 -93.5564
46.8312 -0.9899 -93.5564
27.9175 76.1237 -93.5564
44.5778 -40.8623 -93.5564
23.5611 -30.6921 -93.5564
9.9236 -72.8015 -93.5564
14.2765 -36.6572 -93.5564
0.1449 -5.5475 -93.5564
-4.1967 -0.5755 -93.5564
21.8527 -1.7787 -93.5564
14.2374 -10.4827 -93.5564
26.3665 -75.2398 -93.5564
-3.2405 2.5651 -93.5564
-5.6042 6.5165 -93.5564
-34.1622 14.9225 -93.5564
0.5104 -1.3669 -93.5564
58.9977 13.8265 -93.5564
45.2478 -4.2617 -93.5564
-25.7647 37.6762 -93.5564
-58.4895 -5.6770 -93.5564
-50.3478 38.4051 -93.5564
30.6656 -63.6882 -93.5564
10.8899 5.5745 -93.5564
12.8777 -61.3052 -93.5564
10.4913 28.4917 -93.5564
-5.3449 19.6732 -93.5564
73.1346 -6.9609 -93.5564
-0.9379 10.4964 -93.5564
24.1866 26.0397 -93.5564
28.2507 -43.5442 -93.5564
-9.7691 -54.6139 -93.5564
-1.3107 33.8014 -93.5564
-1.3330 -15.2577 -93.5564
-22.5798 -17.9479 -93.5564
-70.3058 -16.5365 -93.5564
49.8390 52.0220 -93.5564
38.7765 -23.4829 -93.5564
-16.1227 -78.6867 -93.5564
17.7849 22.0772 -93.5564
-33.8123 14.6541 -93.5564
36.1528 -71.4297 -93.5564
-54.7077 -3.6825 -93.5564
-15.7704 54.2144 -93.5564
34.1923 -51.4408 -93.5564
-11.3266 -5.1360 -93.5564
-2.3812 10.4776 -93.5564
12.2383 15.2414 -93.5564
0.1438 0.1842 -93.5564
-38.0336 33.5960 -93.5564
-1.6173 0.3552 -93.5564
-73.6490 18.8746 -93.5564
34.0187 10.1778 -93.5564
-50.5163 20.0192 -93.5564
-2.3198 1.8075 -93.5564
-32.0663 13.2861 -93.5564
-12.6167 25.1477 -93.5564
8.7676 5.2946 -93.5564
-57.1027 -45.5341 -93.5564
14.2571 3.8845 -93.5564
20.6654 73.8088 -93.5564
60.3690 1.2313 -93.5564
33.8287 23.7144 -93.5564
10.2459 -11.4864 -93.5564
-57.9502 -32.8280 -93.5564
-66.2888 39.9363 -93.5564
-0.2107 0.9272 -93.5564
0.8921 -0.2367 -93.5564
-4.1703 11.9429 -93.5564
22.7731 -27.4850 -93.5564
-22.6534 50.3024 -93.5564
-48.0610 45.9213 -93.5564
63.4476 -3.7969 -93.5564
-48.6723 -14.6095 -93.5564
-64.4355 24.2399 -93.5564
-4.7982 -64.0417 -93.5564
3.2490 -19.4909 -93.5564
27.3107 7.5344 -93.5564
21.9461 -25.5025 -93.5564
-7.0614 -26.5130 -93.5564
23.5571 -5.0499 -93.5564
-17.8420 -25.3474 -93.5564
-52.8558 29.6235 -93.5564
-6.6533 54.7447 -93.5564
-52.3761 14.1587 -93.5564
6.2017 -30.1367 -93.5564
69.7039 22.4555 -93.5564
15.7555 18.2467 -93.5564
6.3922 9.4837 -93.5564
-1.7937 -38.0837 -93.5564
-3.7620 28.6165 -93.5564
-56.9483 -21.6043 -93.5564
36.8640 -14.8468 -93.5564
1.7534 -18.4507 -93.5564
-19.5520 -64.5426 -93.5564
-22.7425 -74.7145 -93.5564
9.1275 18.5820 -93.5564
74.8174 25.3664 -93.5564
23.2009 -14.0679 -93.5564
22.6262 -5.2526 -93.5564
-52.5846 58.1041 -93.5564
7.2104 61.0850 -93.5564
13.8423 4.6317 -93.5564
-1.3374 5.6020 -93.5564
4.1764 63.1274 -93.5564
65.1430 14.0352 -93.5564
-0.4633 -19.9308 -93.5564
-38.7946 -2.3346 -93.5564
-74.2661 -32.8087 -93.5564
-24.1695 -8.4090 -93.5564
0.0392 0.1329 -93.5564
-10.8737 -5.7992 -93.5564
31.1726 16.6979 -93.5564
-15.9980 -3.5240 -93.5564
0.1281 0.4773 -93.5564
-23.1709 -8.0458 -93.5564
34.2423 31.0175 -93.5564
13.5052 -22.4411 -93.5564
9.4387 -13.3991 -93.5564
-2.2253 6.4254 -93.5564
-10.6666 -27.8066 -93.5564
-6.3008 45.7944 -93.5564
-66.7574 -15.3822 -93.5564
-0.9297 14.4860 -93.5564
-69.8723 -23.4052 -93.5564
-3.6724 -7.6011 -93.5564
-8.2056 -78.0264 -93.5564
-46.0916 -15.5682 -93.5564
21.5288 -45.3187 -93.5564
31.7957 -54.3425 -93.5564
45.5464 15.2686 -93.5564
-21.3196 14.7435 -93.5564
-18.5178 -67.7177 -93.5564
-11.1254 29.3773 -93.5564
3.0882 35.5439 -93.5564
-19.1955 -4.8447 -93.5564
-2.7840 29.2737 -93.5564
5.8029 -6.1279 -93.5564
-0.8942 -4.3992 -93.5564
17.5569 -39.3470 -93.5564
47.5155 25.9262 -93.5564
8.3652 -12.8737 -93.5564
-31.1611 -24.7452 -93.5564
11.9641 50.5226 -93.5564
-11.1789 -39.6972 -93.5564
-27.6481 12.2071 -93.5564
-8.7043 32.5482 -93.5564
40.7620 67.5952 -93.5564
5.8517 5.3244 -93.5564
-9.2727 -0.4014 -93.5564
-26.2844 -41.1469 -93.5564
21.1177 -22.4534 -93.5564
66.1451 -31.5027 -93.5564
21.2867 -37.8992 -93.5564
-22.7191 12.6390 -93.5564
-4.2269 -21.0318 -93.5564
40.8982 63.7908 -93.5564
74.1035 -0.5141 -93.5564
-23.7945 8.2576 -93.5564
-54.3038 -60.5186 -93.5564
