ply
format ascii 1.0
element vertex 1024
property float x
property float y
property float z
end_header
-35.4622 18.4245 -42.5388
16.2255 20.4558 -6.4862
-3.0682 16.4349 17.9525
19.1130 32.7226 -37.1589
0.9173 -0.8935 58.1299
22.9744 -8.4779 -2.2684
-0.1095 4.6843 49.2683
4.6442 26.1695 -7.7067
14.2375 1.8628 24.0942
-4.2243 -23.9683 -1.8752
5.2786 -3.8171 44.5097
22.3954 26.5907 -29.0122
-0.4062 0.4308 59.9213
8.6971 42.0454 -50.2750
16.0495 -42.5899 -56.9843
-35.5497 -5.5636 -32.1800
-11.1734 -38.9178 -43.9106
21.1385 -21.8786 -17.7098
-30.4744 -17.3634 -29.8156
8.0176 1.8443 40.0521
-14.9088 -6.1172 19.5239
1.5568 -36.1485 -32.6995
14.9469 -23.8524 -11.7930
-32.7027 -21.7447 -40.7413
25.0913 -7.3488 -6.5795
-13.6739 -3.1830 24.9252
2.0471 -5.5829 45.9871
19.5925 11.9123 1.7891
38.2756 4.7140 -38.9006
34.7530 -3.1047 -29.3407
-3.5573 -3.1531 49.0913
-41.3448 -18.9487 -56.8972
27.5003 -26.9729 -38.7844
26.4250 -17.4275 -20.9163
7.0879 3.1014 41.3280
-28.9845 -22.2703 -33.6628
-4.6697 -15.5603 19.1832
-18.5140 7.3401 9.6321
7.7687 3.0490 39.7432
-4.8940 14.7180 21.0975
5.6470 -3.7165 43.8691
-2.6481 -20.6969 7.1606
2.1897 44.5199 -54.5383
-9.6672 -12.3849 20.5749
-21.2096 7.2313 3.1454
-14.5983 -41.1465 -52.1591
12.1121 3.2572 28.8213
-7.3210 3.4904 40.3552
-1.0721 -19.4160 10.8563
7.3351 0.3357 42.3532
29.8186 -6.0306 -17.7102
11.1888 -0.1496 32.3416
-14.5809 -29.2180 -23.5184
23.7173 -34.9617 -48.4841
5.3563 -18.6230 11.0321
11.2924 27.6925 -16.3675
-26.1213 9.1840 -10.5964
-19.5272 -28.3747 -28.1779
14.9337 6.4685 19.1091
-8.2242 -21.9086 0.5615
-1.6579 18.0505 14.2891
-41.7351 9.8042 -50.1078
1.0135 20.4772 8.1064
-31.9146 -13.3745 -28.5921
-2.4573 -35.8353 -32.0162
33.7157 -31.1491 -57.9958
6.5345 -1.5003 44.0143
-27.1531 15.3508 -19.7129
-0.0141 -7.1853 42.7630
-38.1911 20.2102 -50.9866
-2.0251 -17.3606 15.9758
30.3333 -24.3926 -39.8362
-3.1119 -3.1782 49.8865
-19.8208 9.8655 3.8434
4.1715 4.8193 44.8746
5.0281 0.6985 48.2512
17.3999 -27.9733 -24.2710
-16.3848 1.2564 18.6967
-36.9935 -9.2287 -37.7618
-6.7970 -11.4629 26.7807
-30.1545 -4.1722 -17.7606
28.5949 23.5308 -34.9114
-26.9076 -5.2752 -9.8963
21.6584 38.0170 -52.4041
10.7902 28.9808 -19.0166
-14.4320 0.5419 23.8774
11.4083 -34.0114 -31.8971
-10.1293 -27.3615 -14.4673
14.8338 -8.0158 17.5823
-39.3627 7.2945 -42.7212
17.9826 26.3309 -21.5183
-2.3252 -4.4825 48.3209
-33.1974 -5.7886 -26.2356
3.2156 4.2666 47.5583
-19.9732 -2.5628 9.0570
-22.8288 -26.0082 -28.5981
-32.2541 -23.7333 -42.7524
-21.8978 14.6683 -7.1293
14.7643 2.3071 22.5728
20.7306 11.6976 -0.4843
-42.6108 8.4143 -51.5715
6.5423 11.2269 27.6460
-5.6656 1.5081 46.2046
-37.0064 -10.9186 -38.9493
7.6017 7.3038 34.0277
-10.5129 -15.8293 12.0098
8.0650 1.9949 39.8410
32.9689 2.1276 -24.5159
1.3622 -19.9526 9.4159
10.6608 -37.5088 -40.0184
-18.0172 43.2360 -60.4360
-5.6047 -6.4968 39.1327
16.5167 -36.3860 -42.5296
0.9480 23.4676 0.3393
-27.6686 -31.2310 -47.1232
37.2060 -17.9240 -46.0145
11.1152 -5.5410 29.1405
11.7718 18.6505 4.0656
38.7994 21.0402 -53.4022
3.7665 3.0839 48.7937
-26.6311 8.6648 -11.4199
33.6210 -12.2803 -31.6884
-34.8403 24.5271 -49.4222
13.5817 25.0735 -12.7480
-0.0823 20.0928 9.1714
-4.7537 43.7295 -53.0117
-7.7535 20.4062 4.6520
21.0081 -29.1364 -32.0184
8.4307 -1.8721 38.9875
-13.9719 -8.7746 18.5254
15.9535 -2.7187 19.3457
-1.3866 -1.9431 55.2500
39.4672 -0.6402 -41.2626
-2.5425 -1.5678 53.6888
-23.5576 9.1704 -4.3263
-20.6034 31.9818 -37.5448
5.9202 -22.1835 1.7105
-0.0929 16.4212 18.7263
-31.1868 -11.6897 -25.2139
12.1122 -33.0429 -30.1254
-8.8911 16.4886 12.7108
11.9888 -10.5717 19.8645
-31.9506 -32.7968 -57.6964
-23.3952 -19.9097 -18.4854
0.5062 -0.8611 58.8629
-1.6168 0.9024 56.6438
-2.9017 3.7064 49.2123
0.0506 -0.0413 61.2923
1.0573 45.9685 -58.1999
26.6908 -2.9209 -8.4138
-29.8099 17.6736 -28.7261
-9.7484 28.4906 -16.9032
4.5159 1.0913 49.3717
36.3919 4.5643 -33.9877
-5.6514 11.0807 29.0913
31.0790 -5.0752 -20.4904
6.7802 -1.0976 43.5874
-19.0554 -28.7198 -28.2349
-0.3880 -3.4308 52.4770
20.7503 -4.3926 6.2640
9.6758 -0.8155 36.1922
27.1985 5.7104 -10.8636
-3.3850 -3.2851 49.1865
-6.5985 2.8191 42.7885
0.4336 12.5220 28.8550
-6.7681 -33.7018 -27.9960
17.6119 42.2508 -57.6636
38.8240 -2.7495 -39.8282
-8.3540 12.9136 21.4361
-15.4216 17.6964 0.3747
-14.2904 3.9669 22.8660
4.8309 -15.1842 19.9946
-0.3547 5.5377 47.0213
-43.6840 10.7098 -55.5898
11.6229 -26.7239 -14.3783
13.4814 -24.4221 -11.1356
-30.7890 -10.1582 -22.9127
-20.5619 -20.2034 -13.5572
-29.6260 11.9887 -21.7114
-14.6311 -13.0865 10.3771
24.9526 -3.5270 -4.1210
-4.3046 30.5031 -18.7069
13.3724 9.9144 18.1398
1.9560 27.5024 -10.2920
20.7413 -19.3688 -12.3919
4.9021 27.1456 -10.3253
32.0429 -12.6885 -28.2275
6.3853 -2.6186 43.5019
26.9670 -37.8295 -59.4407
-35.5114 10.2655 -34.7381
37.0422 5.3628 -35.9431
5.7155 -4.6825 42.2338
3.2371 4.9909 45.9811
-16.7330 -20.2165 -6.8339
-27.0432 16.8237 -21.4234
-21.8978 -0.0424 4.4744
-5.3891 9.5541 32.9154
3.4288 -4.1250 47.5029
3.7194 -7.5407 39.5807
-33.7369 -3.3040 -26.7561
0.6742 31.7258 -21.1210
3.8558 2.6837 49.2366
0.9907 0.1824 58.8407
-37.4862 -26.6519 -58.2372
-2.0222 -46.1815 -58.8377
32.9777 3.8129 -24.9322
5.4682 3.7471 44.2111
24.7893 -13.7902 -12.3609
-31.2816 -35.0891 -60.8745
3.2188 37.8209 -37.3204
-10.4037 3.6842 32.7396
28.8436 -13.2306 -21.1218
-14.4935 17.5352 2.2576
-13.2929 -16.6117 6.0937
-38.3472 -21.1737 -52.5366
-23.8474 -14.8210 -11.6087
-25.8084 -17.5683 -19.7873
14.6539 21.5294 -6.3140
19.8422 -34.1232 -41.2637
17.9352 3.0660 14.1097
24.3367 -1.9907 -2.0843
3.8505 28.1287 -12.4239
-7.6701 -29.2507 -17.2347
-10.7807 1.5015 33.1354
9.4635 1.8511 36.3674
-2.6078 21.3440 5.5026
2.8696 12.7685 27.4042
41.5054 19.1580 -57.5048
-22.8730 16.6247 -12.1256
-22.0209 -8.4747 0.0568
-9.7124 -2.7822 35.1697
7.7007 -5.6957 36.5356
-2.4417 -9.9474 34.8062
13.5068 -4.3658 24.5210
32.4465 -2.5478 -23.2378
-25.6920 -19.5093 -22.4918
17.2050 -17.0884 -1.6450
0.6096 -0.6083 59.2212
4.6999 -0.6080 49.1291
-17.0017 -2.3497 16.7956
-1.9639 -4.2265 49.3337
0.9326 -12.6733 28.3915
-29.3496 20.8840 -32.2814
-8.7818 -9.2597 28.2505
17.8280 9.9708 8.3026
-13.2969 25.0956 -12.4489
6.2632 -16.4163 15.7359
2.0880 0.6348 55.7829
0.4297 -18.8997 12.2642
0.7254 -37.8962 -37.1786
-7.4729 -10.6974 27.5029
33.1445 -25.8015 -47.8489
-7.4286 -46.4582 -60.9786
13.4658 3.3556 25.3465
11.8376 11.6815 18.1814
1.5622 -1.2890 56.1915
24.7955 -2.6811 -3.4429
-9.8079 34.6972 -32.3735
-4.3102 11.0663 30.5555
-19.7221 -3.1888 9.4700
-16.3570 -12.8262 7.3676
14.5415 6.5587 19.9477
-3.9244 -12.5604 27.2161
-1.4680 0.2591 57.5828
-14.3443 -36.7235 -41.1406
-1.9773 3.0858 51.9243
-1.0165 2.3723 54.7456
12.3174 -11.0461 18.4052
-7.1859 -10.1994 28.9926
8.6145 -4.9602 35.5929
5.4566 7.8747 36.5297
14.0574 -12.3255 12.8078
30.8550 -0.0050 -18.8361
-0.0132 -5.1734 47.9988
-1.3944 -0.0951 57.8251
0.9315 -9.1645 37.4893
14.6103 41.6916 -53.5073
-11.8040 -11.9941 17.6675
4.1986 7.0609 40.0834
-2.1368 0.0240 55.9011
20.4543 -34.7641 -43.5075
-14.7589 17.3551 2.1731
32.3745 -25.7936 -46.2619
-39.0938 -26.0107 -60.7385
5.8999 14.1796 21.4937
12.8813 -27.9597 -18.6521
-17.2097 -7.0183 13.0939
10.7979 8.7562 25.2831
16.5884 -19.9438 -6.0474
-18.7789 -12.5506 2.6813
-28.6802 17.8802 -26.4932
44.2940 -15.2895 -60.4848
17.1895 -28.6593 -25.5090
1.9242 -1.4959 55.1194
-13.2801 -39.8297 -47.8021
-6.9487 0.9174 43.2219
4.9706 5.2015 42.7386
2.3033 6.9425 42.4265
1.8611 -2.0598 54.2379
-6.1918 -10.1855 30.4415
-6.9985 14.1881 20.2908
3.3325 2.1073 51.2012
4.2718 5.8527 42.6055
29.2985 22.4929 -34.6638
1.6374 -39.0456 -40.2410
21.3870 31.4250 -37.4627
31.1013 9.7873 -23.3903
-24.4800 9.3037 -6.6913
38.7422 -17.6537 -49.3363
-6.7030 -19.6213 7.5017
-6.5938 2.1787 43.3899
-38.9492 8.6126 -42.3495
1.7603 -14.2651 24.0567
-15.3471 8.5011 15.8043
6.4902 -36.2715 -34.4316
-8.8991 22.2904 -0.9994
-6.8124 35.2239 -31.9048
10.7746 -18.1417 6.5504
23.6082 -19.0432 -17.4734
-33.7329 2.0887 -26.4938
0.8887 5.1365 47.8962
-3.6290 10.0171 33.7355
11.7328 -0.0695 30.9278
4.4268 -0.7805 49.7640
3.9629 5.8200 43.1382
10.3816 11.7138 20.7284
-9.1471 -6.6618 32.0135
-27.0397 -14.6470 -18.5679
13.8842 -2.8740 24.5635
3.5518 7.7882 39.1856
-2.5920 -1.8352 53.1972
2.5171 -26.1974 -7.0290
37.3400 -6.0300 -36.9720
2.0528 -0.4020 56.0185
3.4277 -20.5272 7.3017
-27.0348 2.9771 -9.3197
-12.7265 -5.1413 25.7418
-46.5454 -2.7140 -59.8753
12.7512 -24.6268 -10.7092
3.2106 1.9539 51.6813
39.9784 4.4115 -43.2109
-18.7153 -27.6834 -25.5012
-39.7267 19.7126 -53.9526
-18.2676 8.1433 9.4122
-6.4702 4.2287 41.3468
22.9429 -25.6584 -28.1137
-22.1183 21.2905 -18.4335
-17.8232 -39.0747 -50.3064
6.7489 -2.4812 42.7494
11.9378 -44.7556 -59.0839
30.0193 9.5327 -20.5058
9.6702 17.7771 8.7965
-22.5329 13.0003 -6.2383
-6.6020 18.5771 10.1542
-20.6946 31.6475 -36.9443
-25.0657 5.2254 -5.1723
8.8077 -1.2927 38.2953
23.3821 3.7443 -0.1635
3.4921 -9.7980 34.3924
20.3281 -14.7367 -3.8795
13.0648 -12.3942 14.5961
-17.8290 12.7883 4.3617
-38.7124 23.7146 -56.6849
-23.6078 -19.7459 -18.6335
5.6393 -14.0391 22.0889
-16.3210 -2.3705 18.5422
31.9781 17.1180 -32.9324
-38.9690 11.2804 -44.1159
-3.4040 -18.7308 11.9180
41.6214 14.1978 -52.9837
-30.4732 -25.8557 -42.5423
-14.2029 5.9959 21.3413
-38.3719 -12.5276 -43.5858
-20.4336 -4.9279 6.7604
-14.0906 -19.4577 -1.0586
-22.3952 7.2956 0.1653
-24.1453 -35.2163 -49.6588
-16.9100 -27.7408 -23.0871
24.2770 -32.0175 -43.1059
11.4860 -12.7070 16.8855
-7.3607 18.4400 9.7913
12.8575 -12.9387 13.9916
34.0128 0.8188 -27.0799
8.5629 -12.8160 21.3496
25.2840 0.4275 -4.3472
7.6186 -2.2553 40.7847
-10.4307 -28.9862 -18.7083
-3.5028 -4.7536 46.0956
-0.2958 1.2712 58.0658
10.1074 2.2623 34.5075
22.4257 -10.1066 -2.5522
21.6601 3.7595 4.2503
-6.6615 -35.9480 -33.6833
2.5185 1.3440 54.0331
-5.6563 9.1859 33.3879
12.3669 -43.8170 -57.0239
-11.0010 25.1988 -10.0931
17.0653 17.0040 -1.2324
-7.7571 -16.3316 14.4097
2.2682 2.0297 53.5412
12.0108 -19.1726 2.5844
-7.1399 -0.0190 42.8810
-23.7702 3.1139 -0.9270
-18.7354 43.1816 -61.0371
4.1171 6.6689 41.0658
-31.9232 6.6314 -23.3897
33.9934 11.3308 -31.7887
-17.8256 23.6194 -15.5466
-37.1052 24.2619 -53.9124
9.8347 -27.7136 -15.0676
7.4211 22.6853 -0.6535
-7.0560 -44.9136 -56.8565
-0.0811 -2.9826 53.6973
3.3331 -28.4554 -13.0977
-0.3287 -0.3827 60.1495
-3.4085 21.8941 3.7977
-27.4384 3.9827 -10.6929
-0.1244 44.5143 -54.3842
-8.6098 23.1525 -2.8221
-2.9334 -3.7632 49.0449
31.4007 -2.4012 -20.4950
-13.4109 5.5994 23.6413
12.7353 -19.3745 1.1238
7.2649 0.5319 42.5053
-33.9364 8.5097 -29.5896
-8.9357 -43.8917 -55.1066
-20.4151 -28.4539 -29.6753
6.6132 -14.1258 20.8715
-3.5295 -3.5468 48.4404
10.7453 4.9089 30.7184
4.1365 -1.7705 49.7525
22.3725 30.3249 -36.6098
28.6597 -12.0231 -19.4204
18.9492 -33.9596 -39.7432
-0.1872 -41.0131 -45.2732
-3.7734 -9.8414 34.0325
-15.9602 22.2308 -9.7582
0.5800 -28.3661 -12.3744
12.5421 40.2619 -48.2835
-28.6472 27.1120 -41.1850
1.3550 -13.6274 25.8229
5.7095 -10.3464 30.7087
-40.3598 -10.5004 -47.0685
1.4139 0.4562 57.5959
-16.7364 2.0220 17.5901
17.0934 6.3230 14.0317
-41.0624 3.9245 -45.8874
9.7002 40.0871 -45.8732
-24.8793 -11.8310 -10.2328
-31.8099 -5.4679 -22.5355
3.0606 -15.5638 20.1827
10.5411 -9.0625 25.2851
9.5058 -17.0265 10.7139
-11.2072 -19.0529 3.9362
-0.6326 0.6208 59.1556
-38.2574 1.6026 -38.1879
3.6902 14.3164 22.9868
8.7900 -41.6162 -49.2310
-12.0761 12.6515 15.9461
-17.1390 33.9260 -37.4553
6.8632 -12.9468 23.3276
4.3120 -2.8663 47.9875
-7.2393 5.2587 38.1763
11.8784 5.1858 27.7319
5.0490 -5.6878 41.6693
-3.8238 1.6919 50.5804
-36.1681 9.9368 -36.1511
9.3336 23.9235 -5.3678
-8.4570 -12.8794 21.3643
-17.5307 27.7820 -24.0298
-14.4730 21.1635 -5.2619
11.3539 -32.0972 -27.1410
16.6662 30.5731 -29.1564
-1.1324 17.4261 16.0162
14.0064 -36.2547 -39.6849
-3.0017 20.0281 8.7582
39.0599 21.9176 -55.0987
-41.9967 10.3895 -51.1266
36.3770 -0.6457 -33.2218
-8.8537 12.4794 21.6421
11.7529 26.0477 -12.9063
9.7339 2.5835 35.2534
6.1112 -24.4775 -4.1943
-23.3416 0.2682 0.7130
-3.5806 -8.4325 37.6206
20.5562 33.0921 -39.9211
5.5671 -4.5829 42.6966
-25.3766 -36.8192 -54.9117
0.6173 -7.2285 42.5821
7.7645 15.4551 16.4507
-9.2922 5.3087 33.6117
4.7315 5.7308 42.1218
-25.4675 -38.2253 -58.0739
21.0914 -41.7376 -60.2385
18.8708 39.9614 -53.5475
3.6859 -2.5701 49.7685
-3.5539 34.1157 -27.8025
-41.5986 10.9462 -50.4811
12.9452 -27.0033 -16.4702
20.8030 17.8914 -9.9447
-0.4254 7.3820 42.2193
3.5317 -12.2360 28.3190
-11.0626 -2.9786 31.6471
-13.5924 -33.5256 -32.6844
-7.4587 12.8403 22.8174
-14.8518 16.5779 3.5379
39.9088 -8.3504 -44.6473
-36.8035 -1.5777 -34.4047
-20.3305 35.8867 -45.8766
8.7261 7.7346 31.1162
36.6260 -16.6728 -43.2662
21.3584 23.7636 -21.6896
0.2499 -2.0249 56.1527
36.2174 10.1936 -36.4537
3.1791 -0.9831 52.8023
-14.5771 -35.9797 -39.5659
-41.0341 -17.1097 -54.2380
-19.4144 -3.5846 10.0834
-21.5932 13.4401 -4.7292
-16.5765 -2.5955 17.7974
-0.6732 0.0865 59.6959
16.2178 13.9349 5.8163
24.0559 -4.6924 -2.3217
-1.6273 11.4116 31.4639
6.0426 46.4805 -60.5185
6.1259 0.2543 45.5062
16.4530 -11.4884 9.2391
-16.9355 37.6108 -45.8830
12.0638 20.3069 -0.0076
8.8952 -21.5575 0.7716
0.3590 -0.1408 60.4589
0.3496 -34.1780 -27.4888
30.9370 30.9037 -52.3373
-14.0451 30.7218 -26.4485
35.5690 -27.2676 -55.1748
15.0281 31.5172 -29.4065
-0.8603 1.9788 55.8471
-10.6577 -18.9094 4.9736
5.4807 -6.7503 38.8337
10.6807 24.0483 -7.0170
-10.4266 -20.9042 0.6685
0.6351 -30.0930 -16.8706
13.9366 20.5490 -3.1545
13.6732 -38.5435 -44.9698
-13.8387 3.1479 24.5278
-6.5167 12.6309 24.4740
-0.0407 -37.1320 -35.1717
15.4791 21.0046 -6.4408
4.7736 -32.8373 -24.8932
-4.9549 26.0608 -7.5744
-3.2872 -19.6492 9.6157
-7.1136 22.3656 0.3839
-9.4005 33.7599 -29.7384
3.2898 24.5202 -2.9221
30.8546 -8.1686 -21.6015
-0.1511 -0.9828 58.8747
-16.8265 -18.4495 -3.5215
-0.4318 3.9663 51.0793
-1.4323 -0.7224 57.2875
0.9365 1.8329 56.1058
6.9074 10.9942 27.6722
32.0206 -34.5751 -61.1779
6.3673 -11.8945 26.3512
3.3713 13.3431 25.6464
-33.1683 0.1011 -24.8568
37.7210 -20.5341 -50.3073
-5.3170 0.6488 47.5226
25.6539 -22.2747 -26.9552
-12.2678 10.7969 18.9323
-28.5991 -23.3721 -34.6581
-6.5047 19.5733 7.7846
42.3879 20.6750 -61.2726
-9.2728 42.3086 -51.2569
34.6222 7.5341 -30.7488
-10.7629 -29.3295 -19.8432
9.9243 -19.0338 5.5989
12.5548 30.6364 -24.7023
0.4875 -18.5374 13.2030
34.0605 17.8271 -38.5857
9.1718 36.9999 -37.7423
-11.4660 -19.5238 2.5384
0.3728 1.4473 57.5729
-4.6244 -9.6822 33.5385
24.4691 20.7873 -22.0939
35.7281 -21.4322 -46.9644
5.8246 -9.1035 33.3366
2.0312 3.9286 49.9527
-10.4343 9.8123 24.1867
-5.6972 -37.8058 -38.0360
37.5346 -12.6060 -41.5813
6.7315 -15.7682 16.8436
2.1953 4.3791 48.7140
37.3561 2.7405 -36.0161
13.2820 -22.3510 -6.2002
-35.6953 8.9835 -34.3295
-3.5772 -11.7423 29.5171
19.3655 10.1599 4.5499
29.3150 -29.8405 -47.4004
5.6043 0.1353 46.8731
1.9907 1.1041 55.5383
27.0682 -29.8197 -43.3456
-6.2790 -19.1359 9.0497
0.2470 -18.6149 13.0137
29.2187 -9.1018 -18.1817
5.8956 8.3844 34.7882
29.3546 -36.8101 -61.0650
-6.8798 3.6868 41.1493
0.3907 -0.2012 60.3187
-13.2789 5.4236 24.1333
6.3935 -12.0207 26.0295
15.2465 -6.4540 18.3755
-1.8731 -1.4588 55.2837
-3.3116 16.0511 18.8104
11.3505 32.6571 -28.5132
22.8880 -17.2437 -13.1152
20.6070 1.7284 7.6455
3.1444 11.7837 29.7228
7.8803 -5.3378 36.6925
18.3240 -17.5983 -4.6557
-6.0041 10.4898 30.0076
-0.9663 -0.1597 58.9136
-41.5933 -19.5002 -58.0877
35.7183 -7.8072 -33.6873
-2.0265 -0.9054 55.6860
-3.7504 12.3671 27.8303
5.8466 9.9843 31.3516
2.3508 -19.7382 9.7318
15.4458 7.1076 17.2138
-33.4616 17.2719 -36.5362
13.3630 -24.1999 -10.4805
25.0972 32.9682 -46.3673
8.9286 -30.5741 -21.4286
-18.3010 -27.6153 -24.7543
-13.7800 25.6679 -14.3546
0.8711 2.0581 55.6463
-30.4157 22.4208 -36.8746
-6.6594 -11.2442 27.4528
-20.3142 16.5895 -6.7932
-0.2145 0.6485 59.6848
43.7000 14.9929 -58.7717
-14.0140 -16.6884 4.7496
21.1124 -18.9193 -12.3149
3.9673 9.2242 35.3307
22.7725 -20.3092 -17.9464
-5.7708 9.8548 31.7421
42.1582 -14.9868 -54.9783
-0.0599 -3.2172 53.0884
41.8831 4.2877 -48.1059
-33.0984 -8.5240 -27.4851
10.1405 35.1893 -33.8427
-26.4467 -6.2107 -9.2363
21.9854 2.4144 3.9026
5.6626 -33.0850 -25.8918
6.1231 11.7756 26.9216
-1.7622 -4.5546 48.7528
26.3980 -28.8309 -40.2688
-14.7999 23.2060 -10.1667
8.0800 5.2426 36.3962
-12.6776 -11.7398 16.4961
-12.0116 36.2412 -37.8988
-4.7978 11.1746 29.8139
2.8507 1.1782 53.4350
-8.0113 -24.2237 -4.9367
29.7025 -31.7519 -51.6894
-20.5790 -11.4191 0.2141
34.4857 16.1930 -37.6862
25.0766 18.5726 -19.7482
7.1439 -21.3682 2.8273
-35.0190 16.7678 -39.5813
-24.1797 -24.8180 -28.7114
-10.1065 -7.0297 29.4240
26.1191 9.4385 -10.8133
-1.9496 19.3882 10.7510
31.6898 -10.3926 -25.3305
-3.3374 -7.5834 39.9002
31.6837 -19.5661 -35.4482
-21.0314 -11.3254 -0.7021
-0.1508 -2.1233 55.9225
17.7126 -18.6104 -5.4000
3.1787 6.8222 41.8752
-10.9289 0.5874 32.9794
-11.2349 23.1842 -5.5844
18.3332 17.4053 -4.3261
30.4945 30.8090 -51.3504
11.2575 30.4647 -23.0604
34.9675 17.9302 -40.8049
-20.3392 15.4383 -4.9905
-7.3847 20.5318 4.6784
-21.5798 -9.5639 0.0338
-12.4092 31.2994 -26.1609
25.0953 32.0900 -44.5548
4.6572 -8.7875 35.5802
6.8117 -15.4898 17.4254
15.9886 43.8695 -60.0519
1.9299 8.8876 37.7939
-6.0023 -2.7233 44.3091
13.7442 11.1576 15.3914
-9.5450 23.7732 -5.2065
4.0932 -2.8246 48.5197
2.5353 -9.9460 34.7506
-0.1420 1.3632 57.8955
11.9618 11.0483 19.0855
10.8385 1.8360 32.8538
-33.2275 27.3205 -50.4874
20.4579 -4.8726 6.7324
6.4985 9.2253 32.0955
-4.9242 0.7471 48.5006
-46.7524 -0.1240 -60.2087
-30.9626 6.1743 -20.7027
-23.0217 40.6170 -60.0399
-34.6859 20.5393 -43.4448
-6.5767 10.1583 29.9690
18.9098 28.2852 -27.0834
-2.4361 1.7004 53.7309
-12.4065 -9.8730 20.1991
28.9063 27.4221 -42.2296
-4.7749 0.0910 49.0337
-27.6556 -29.1227 -43.0564
-1.4646 -0.8043 57.1138
-24.4202 4.0043 -2.9387
-6.2916 -2.0356 44.2531
-26.3253 -14.1299 -16.2928
-5.3962 -2.1266 46.3677
-14.7650 -14.0366 8.4445
-17.5987 22.3861 -12.6435
-12.9028 -4.8385 25.6001
38.8518 21.2353 -53.7647
32.0588 11.3621 -27.0539
-0.3149 25.9818 -6.1590
-11.4540 -41.9340 -51.6665
-11.9382 -28.7895 -19.6471
-26.9301 5.3773 -10.0053
-9.7521 -8.6789 27.4879
-0.7934 44.0120 -53.0953
-5.3821 3.5788 44.6419
26.8446 -16.3555 -20.3447
-21.4464 -3.5203 4.9024
-3.1093 18.0272 13.8548
7.3918 -13.3349 21.7840
-26.5276 23.8026 -31.2913
22.0647 4.4971 2.8597
-40.9010 -13.2082 -50.3928
0.7334 12.2169 29.6112
-0.2398 -1.5681 57.3341
9.4720 16.9194 11.0000
-20.7687 11.7308 -0.6130
-22.7850 -7.9587 -1.3477
19.1316 -6.2596 9.0761
15.0777 -3.5973 21.1220
-20.1740 -24.3593 -20.8493
-31.0092 -11.9280 -25.0019
24.5306 -2.3869 -2.6788
17.6392 16.2304 -0.9187
-13.2154 6.6323 22.9819
-7.9862 8.1903 31.6919
23.3609 -24.5906 -26.8074
3.8340 -3.6656 47.6582
-31.0998 -20.2016 -35.0496
6.1670 2.1154 44.4950
14.5871 6.5448 19.8543
-16.2972 37.4727 -44.8820
13.9129 -16.5128 5.2687
15.7796 4.9396 18.4317
-3.8288 7.9862 38.4135
20.9216 -31.2711 -36.4531
6.9007 0.9382 43.3383
-5.3879 11.9451 27.3600
13.3305 -38.6211 -44.8657
-5.8646 -9.1845 -61.4623
-9.2080 5.0109 -61.4623
-18.5959 -3.5849 -61.4623
-18.1700 -33.0956 -61.4623
-9.6322 26.4343 -61.4623
-26.4958 31.5597 -61.4623
-11.0318 13.9708 -61.4623
3.3504 -28.3222 -61.4623
0.7527 -17.8875 -61.4623
31.8284 -11.7185 -61.4623
32.8699 18.0381 -61.4623
2.2487 -0.2648 -61.4623
-12.8029 8.3568 -61.4623
-23.3865 14.3504 -61.4623
-0.8747 2.8960 -61.4623
1.5665 -26.7667 -61.4623
-18.8485 -27.8503 -61.4623
-31.4453 -5.8965 -61.4623
-0.0350 20.7747 -61.4623
-27.8679 16.9505 -61.4623
-1.0955 2.5249 -61.4623
-13.0218 18.7206 -61.4623
31.0452 -6.6061 -61.4623
-17.8197 -25.3550 -61.4623
-29.8779 -1.3373 -61.4623
4.6249 3.1058 -61.4623
-1.4798 -0.8004 -61.4623
13.9899 15.0250 -61.4623
-22.6262 -34.5627 -61.4623
-0.9796 0.4328 -61.4623
-6.8092 -0.4438 -61.4623
-27.2992 4.7036 -61.4623
-30.3264 10.8974 -61.4623
14.3376 3.3608 -61.4623
-5.5888 8.4568 -61.4623
0.7720 1.6492 -61.4623
26.3520 23.1450 -61.4623
-20.4084 -1.3884 -61.4623
1.7605 -5.6598 -61.4623
8.1018 -16.8525 -61.4623
13.3999 32.5695 -61.4623
27.3922 17.1827 -61.4623
-25.8697 12.7773 -61.4623
5.3167 -9.7613 -61.4623
-37.3475 -21.7618 -61.4623
-5.8906 4.1379 -61.4623
25.1584 19.3914 -61.4623
-44.8179 -7.7575 -61.4623
26.2105 20.5539 -61.4623
-29.2768 3.6961 -61.4623
-32.8868 8.9237 -61.4623
28.1158 -22.1747 -61.4623
21.7132 10.7374 -61.4623
39.9232 -9.1952 -61.4623
-0.1856 -18.5019 -61.4623
-44.1818 4.6032 -61.4623
0.7398 -0.0459 -61.4623
17.6162 -7.7082 -61.4623
9.5256 -0.2233 -61.4623
23.5522 4.2347 -61.4623
6.6634 5.4955 -61.4623
-10.4328 11.3427 -61.4623
-25.6201 -15.9488 -61.4623
-4.3943 -16.7200 -61.4623
31.0807 24.2431 -61.4623
6.5693 -1.0714 -61.4623
-3.7289 5.4227 -61.4623
-3.6265 -3.4755 -61.4623
-0.1137 1.7503 -61.4623
15.1421 10.5523 -61.4623
33.3463 -5.4181 -61.4623
-7.2060 19.2641 -61.4623
-31.1794 8.7940 -61.4623
15.7511 32.2883 -61.4623
2.9616 -40.7029 -61.4623
-33.4850 -24.3469 -61.4623
-24.8924 -3.6442 -61.4623
-6.8429 4.0032 -61.4623
0.3048 0.9506 -61.4623
12.4466 27.4914 -61.4623
31.6993 30.3117 -61.4623
1.0544 15.8969 -61.4623
-2.0242 5.3804 -61.4623
-0.6530 -0.1090 -61.4623
-8.2074 -41.8074 -61.4623
-15.3651 -7.2496 -61.4623
-5.3408 2.7713 -61.4623
4.5895 7.5367 -61.4623
-30.6694 -11.9613 -61.4623
12.8792 6.7972 -61.4623
36.3162 23.5689 -61.4623
1.2011 2.8958 -61.4623
-4.7499 17.6391 -61.4623
-27.4139 -8.4903 -61.4623
-44.1868 1.3444 -61.4623
-5.3546 22.3350 -61.4623
20.8847 25.0880 -61.4623
-8.7477 -22.1624 -61.4623
22.1120 -12.3408 -61.4623
-21.8897 5.2508 -61.4623
2.3417 -4.4956 -61.4623
-24.7622 29.4566 -61.4623
-9.5000 6.8773 -61.4623
-1.9249 -0.9575 -61.4623
5.0998 18.5653 -61.4623
0.6398 1.5249 -61.4623
2.8775 0.0076 -61.4623
-14.4818 -14.4475 -61.4623
4.5217 10.3464 -61.4623
-29.0477 -18.5287 -61.4623
-31.7788 -7.2605 -61.4623
0.0952 0.2561 -61.4623
-15.8467 21.8379 -61.4623
9.4413 -4.9456 -61.4623
35.0328 -12.6052 -61.4623
-11.9186 26.7507 -61.4623
21.9902 -12.5975 -61.4623
32.5039 -16.4761 -61.4623
6.7142 34.6553 -61.4623
5.4009 -3.8596 -61.4623
6.2874 12.5986 -61.4623
-6.6592 37.8430 -61.4623
0.6041 -39.2558 -61.4623
-11.3671 15.0574 -61.4623
-3.8781 -4.6054 -61.4623
8.2463 33.8886 -61.4623
5.6269 35.3326 -61.4623
-2.4059 -5.4711 -61.4623
-5.0275 -15.5974 -61.4623
20.6753 12.1639 -61.4623
-41.0530 14.9915 -61.4623
-28.6108 -21.5884 -61.4623
-0.8050 -20.1510 -61.4623
-3.9320 -0.9945 -61.4623
-4.8855 -10.2543 -61.4623
3.4587 -6.1896 -61.4623
-33.8035 -13.7256 -61.4623
-0.5651 -25.7703 -61.4623
38.6073 1.9108 -61.4623
35.4341 -19.0032 -61.4623
34.4499 -2.9519 -61.4623
-12.9417 42.6072 -61.4623
-1.6001 2.5000 -61.4623
1.2799 5.5527 -61.4623
7.5870 -42.4674 -61.4623
-6.4245 13.5396 -61.4623
-1.6249 17.2441 -61.4623
-43.1686 -16.0872 -61.4623
-1.5785 -0.3902 -61.4623
-38.4941 -4.7496 -61.4623
9.7312 6.5657 -61.4623
-1.4768 -4.4100 -61.4623
19.3241 11.1238 -61.4623
8.4802 -40.5373 -61.4623
-17.0011 -1.8541 -61.4623
12.7099 4.7534 -61.4623
27.9888 -9.3238 -61.4623
-1.6832 -2.2460 -61.4623
-34.9693 -26.8729 -61.4623
-17.3207 43.4548 -61.4623
12.7367 -43.7924 -61.4623
17.9365 -31.0927 -61.4623
-9.6122 -4.4772 -61.4623
32.2840 -18.8215 -61.4623
28.9207 11.6125 -61.4623
6.8516 17.9653 -61.4623
-17.6160 -12.9159 -61.4623
0.0279 0.0547 -61.4623
-36.7064 -26.3634 -61.4623
-3.1424 29.0113 -61.4623
10.5559 40.4370 -61.4623
12.1464 -3.5074 -61.4623
19.0666 19.0263 -61.4623
-0.3402 3.7498 -61.4623
38.8799 -22.6812 -61.4623
18.2247 -3.4740 -61.4623
-28.8834 23.3740 -61.4623
2.4892 9.5256 -61.4623
-20.0516 -34.0809 -61.4623
24.4157 32.4007 -61.4623
-37.4040 -13.8266 -61.4623
12.2100 12.1230 -61.4623
-4.1587 -9.8403 -61.4623
11.2059 -1.3105 -61.4623
-34.7528 21.0264 -61.4623
-8.7813 6.5635 -61.4623
1.5663 3.9397 -61.4623
-26.0705 -16.4593 -61.4623
-23.6801 7.1761 -61.4623
-39.0324 -18.5753 -61.4623
4.0874 9.2158 -61.4623
1.0530 25.8835 -61.4623
23.3904 30.3663 -61.4623
-16.9659 43.3169 -61.4623
-6.1724 -30.5687 -61.4623
15.2718 -6.8714 -61.4623
9.8114 -12.2461 -61.4623
0.2393 -0.6019 -61.4623
3.6232 2.4425 -61.4623
-1.2936 39.2293 -61.4623
-23.3088 0.0709 -61.4623
39.8603 -5.2473 -61.4623
-8.4517 -0.3708 -61.4623
-2.4409 -3.9861 -61.4623
-38.6144 1.3458 -61.4623
-12.6211 5.1924 -61.4623
-19.3531 6.9446 -61.4623
-31.1158 -12.1726 -61.4623
-29.7182 19.6894 -61.4623
-25.6870 30.1233 -61.4623
-28.5120 1.8279 -61.4623
5.5094 -18.0548 -61.4623
7.4809 4.3415 -61.4623
13.9757 17.2789 -61.4623
-4.0117 18.6002 -61.4623
23.6628 7.4935 -61.4623
16.1720 -32.5611 -61.4623
-12.8542 28.7639 -61.4623
27.3262 18.6402 -61.4623
13.0463 -8.4501 -61.4623
4.4296 -38.0521 -61.4623
-21.4712 -18.8353 -61.4623
-21.3019 14.6276 -61.4623
37.9664 -13.1571 -61.4623
0.7915 0.4555 -61.4623
1.2549 -5.4633 -61.4623
-7.9224 24.0167 -61.4623
8.0068 -18.3666 -61.4623
-0.6706 3.0213 -61.4623
-0.5670 -11.9290 -61.4623
5.4278 -12.3817 -61.4623
30.0682 12.4052 -61.4623
23.1426 38.3547 -61.4623
7.2143 3.1642 -61.4623
27.6484 26.8472 -61.4623
8.5898 -0.2119 -61.4623
2.8200 5.6216 -61.4623
5.5689 -6.5833 -61.4623
0.9699 -10.7190 -61.4623
-35.3649 -24.6843 -61.4623
-0.4689 4.1203 -61.4623
-0.2891 0.7857 -61.4623
-16.8296 -38.1511 -61.4623
-0.8894 -6.2059 -61.4623
9.1062 31.2130 -61.4623
-13.6371 -8.2988 -61.4623
-15.4751 4.1149 -61.4623
-16.6928 -36.9961 -61.4623
-13.1450 -23.6401 -61.4623
31.8576 19.2705 -61.4623
-2.1822 -3.2458 -61.4623
2.9395 -5.3850 -61.4623
10.8452 37.8223 -61.4623
-1.2409 0.2701 -61.4623
9.7109 -16.8429 -61.4623
-20.5673 -2.1638 -61.4623
