ply
format ascii 1.0
element vertex 1024
property float x
property float y
property float z
end_header
7.5618 22.3801 29.5954
58.9679 -66.3099 -51.0748
-16.3392 -55.7694 -13.1354
43.8401 -81.0374 -55.2860
-25.4835 -37.7240 2.4609
69.9865 -52.7164 -49.6903
20.5813 29.1972 14.6057
22.3713 43.6070 -1.8577
-4.6485 -0.6421 53.0485
-55.1525 -54.5162 -37.2139
0.1224 0.0006 58.7106
10.7378 0.2101 45.5565
-78.0413 -4.2070 -37.9644
58.4760 -64.5121 -49.0103
10.8625 -4.3483 44.3664
-33.7800 -47.0154 -12.8614
-31.6929 -67.8067 -33.8675
-41.9518 31.0696 -5.8141
-27.0261 -8.9614 23.5867
90.6087 -3.5148 -53.4784
7.4005 10.6253 42.8202
-57.3304 -31.7029 -22.3016
-57.9807 -50.9724 -36.7826
-17.1637 -10.7562 33.7673
47.5713 21.6187 -5.8748
20.1822 -27.5690 16.5326
1.4020 8.8959 47.7050
-1.9845 -30.6905 20.7600
-0.1918 1.6151 56.8473
-17.1423 -0.9400 37.5926
-20.7132 10.6333 30.0166
-47.3346 -74.9807 -50.9942
27.7901 74.5382 -39.6935
37.0712 -87.1253 -58.4431
10.7986 -1.6092 45.3361
4.6214 32.2601 18.4868
11.7842 -18.2670 31.9305
42.0854 76.7278 -49.5573
-51.9866 20.4960 -10.3694
19.1529 -2.2680 34.9678
-63.8509 -1.4410 -20.2636
-11.6129 -78.7710 -39.7829
-0.0258 55.7316 -10.1844
58.8515 -41.3590 -30.2539
29.8850 61.8258 -26.2136
-34.6226 -20.4078 9.0709
21.7826 -9.0884 29.6208
-13.8310 69.4755 -28.9009
14.5244 -16.3947 31.7263
64.2023 -7.9961 -21.2933
-61.6496 -53.1342 -41.9696
67.0486 43.7110 -40.2984
62.5580 54.1702 -43.6604
-16.2524 -28.3223 18.4066
-27.6517 -36.8258 1.8083
17.8933 11.2791 32.6574
-8.4970 1.8956 48.0764
-57.7081 -70.3425 -53.8603
12.7827 3.4377 42.4629
19.0101 32.3411 12.3852
3.8120 2.7122 53.0661
46.8037 -45.1044 -21.6670
44.6202 -66.4074 -40.2577
-49.5944 32.1453 -14.3586
-45.9127 10.8856 0.4035
16.0638 -38.6173 7.0446
-45.7569 7.8680 1.3415
48.3451 35.3112 -15.3084
-38.9635 46.0337 -15.8562
-13.0021 -2.9888 42.3337
-22.2133 -11.0896 28.1030
-27.7659 -22.6489 14.4698
-69.2118 -9.9386 -27.7646
0.5922 1.5477 56.8093
19.7740 -0.4085 34.3588
81.7881 -18.9496 -45.1502
-66.5830 -58.9895 -51.3456
91.7667 -3.5465 -54.9135
3.3644 -1.6674 54.2102
-66.8745 -35.0882 -34.7013
-27.3780 -23.9993 13.7563
-36.2816 56.0829 -23.8915
77.2709 36.8074 -47.1757
13.9785 26.1176 22.1619
-0.6085 -0.6208 57.7853
-17.9676 16.5769 28.5753
-17.8950 -9.8058 33.5816
1.3568 -1.8700 55.9999
-17.6623 15.6768 29.6040
8.0430 -3.2224 48.1277
0.4181 6.3691 50.9545
50.9841 10.1451 -5.5409
-52.0891 -37.6150 -20.7388
-0.2993 8.3900 48.4612
25.0436 -72.8267 -36.5493
-70.7461 62.1195 -57.7788
-68.7927 21.4884 -30.4270
1.1584 -5.1143 52.3656
-8.4247 -7.9589 44.5037
0.9724 -29.0009 22.9125
46.1104 -62.2679 -37.1311
1.3926 -19.6455 34.4621
-31.0567 55.3216 -19.7379
-18.2272 27.1565 18.3419
-33.8493 -57.8731 -24.2009
-10.0866 -6.7912 43.7974
0.0568 -3.0007 55.1440
9.1914 -21.9943 29.3296
-48.8620 41.4412 -20.5139
-13.0910 11.1159 37.5855
8.8580 -0.7386 47.8498
-31.2854 11.2493 17.6729
12.7588 26.0430 22.9334
-1.2109 1.2469 56.7089
82.9987 -17.1752 -46.1443
31.1684 24.6766 9.6102
30.6152 18.1336 14.7786
-15.5227 28.7717 18.3598
21.1896 50.7922 -9.3212
-59.7530 53.8650 -40.8056
58.4166 -28.1238 -21.4614
9.3496 -8.3852 43.3029
-16.1649 82.3571 -45.1179
-43.2515 -39.2103 -13.4646
1.8064 -9.7084 46.6280
-6.2868 -0.1708 51.0706
78.5966 28.2094 -44.5939
-6.2844 23.2118 29.0695
-5.3716 -10.7888 43.9308
-0.2095 0.1452 58.5465
-4.1286 1.3574 53.4779
0.7631 -1.5408 56.7321
-18.7088 -2.5270 35.4732
-43.6475 22.4192 -1.9294
-27.0009 70.3441 -34.4874
3.7344 77.0232 -36.6749
0.4632 5.8056 51.6468
-30.6547 43.5341 -7.1024
-25.8632 11.0572 24.0145
-50.3569 63.4225 -41.4685
2.7618 9.7334 46.3274
-77.8371 -20.9293 -40.9962
20.2733 -20.9422 22.7510
25.7521 -23.1685 15.9460
-19.0176 38.9053 5.2116
-1.7907 30.7820 20.6616
-11.4680 56.0653 -12.0360
-16.2153 -21.5706 25.4294
-12.3966 8.5139 40.2306
-71.3097 9.7181 -30.3009
-7.9805 79.7435 -40.4265
-76.8241 45.8511 -51.9789
-8.4960 28.1672 22.4127
10.7003 23.5021 26.8695
-3.3138 5.5279 50.8774
-19.5093 9.5626 31.9447
-19.4542 70.7955 -32.0985
7.6769 37.4929 11.4481
37.5482 -2.9752 12.1975
4.4166 -2.2085 52.7445
-42.4290 66.3318 -38.6908
-19.8198 -6.7820 32.9095
-38.0325 -15.5082 7.9767
-42.4521 18.7313 1.3756
18.2562 32.0498 13.1654
20.4356 29.0798 14.8286
81.6631 17.5874 -44.6309
-27.3486 -15.1580 20.1235
1.9631 29.9831 21.6364
-9.7395 4.5317 45.5537
-35.0036 6.0941 14.8435
33.1027 61.3784 -27.5344
11.1759 26.1699 23.6074
4.4042 8.6878 46.7948
20.5129 10.3432 30.4007
-15.1163 -21.1512 26.6535
-46.7661 64.6615 -40.0040
0.6561 0.4527 57.8748
-25.0704 89.5983 -56.4057
50.8626 -70.2081 -48.5464
-22.3369 0.6246 31.1780
-40.8602 73.0843 -44.8731
-25.0259 42.9320 -2.7037
-7.8091 -1.1654 49.0803
-0.4311 -0.8595 57.6710
-21.5696 18.0199 24.0410
-61.0357 52.0686 -40.5329
39.3261 -6.2312 9.5329
10.0979 25.2557 25.1643
-48.0863 38.7582 -17.6548
-90.4796 -1.1082 -53.2424
44.4127 14.7502 0.8837
32.0115 56.2388 -21.3092
52.6036 29.2414 -15.7013
-14.7298 63.2064 -21.5432
-84.8725 40.7537 -57.7812
-37.6007 14.6810 8.8534
-43.1872 -32.4215 -8.0423
-73.5174 -50.6847 -51.7675
8.7809 -21.2474 30.3793
23.7896 -47.8259 -7.3154
-36.7413 15.0891 9.6538
-7.1832 51.4080 -5.4465
-24.2138 -36.6179 4.4745
-41.5929 -42.7231 -15.0088
26.3753 31.7551 7.7200
-12.1749 34.2994 13.7706
40.3108 9.1382 7.6536
-9.4443 88.9215 -51.9233
-21.5748 -59.1377 -19.1277
47.6634 43.9577 -21.4674
25.5559 29.6917 10.3275
-66.1511 -4.9915 -23.3262
15.9817 12.6062 33.6441
41.2880 -16.0169 3.9959
67.4963 55.1525 -49.1262
-28.7875 -7.1113 22.1250
-8.5911 -4.4456 46.8780
-30.5495 -9.9610 19.0530
-3.7472 -23.3736 29.5346
-4.1758 94.1877 -57.9426
66.2134 27.2060 -29.8250
16.4434 -78.5708 -40.5890
-29.2717 -85.8454 -53.5056
-30.8131 -41.7025 -5.3768
2.2016 -2.4812 54.7526
3.4275 60.2902 -15.9526
-20.0712 57.4819 -16.5694
17.9900 -54.3622 -12.0799
48.9643 8.8725 -2.7881
8.5007 -55.6678 -10.9047
-28.8959 -23.5343 12.6916
-9.5183 -7.4627 43.8775
70.7571 -6.2504 -29.1409
2.2498 -3.2062 54.0096
51.8812 -8.9952 -6.3729
16.9744 15.1240 30.6959
17.6621 -9.5031 34.0142
-28.3434 41.9255 -3.8357
-48.0769 16.5503 -4.1313
-33.2130 -43.4125 -8.8570
51.9378 8.9739 -6.4375
-55.0245 2.4531 -9.3760
-53.6166 42.1141 -25.6052
-8.1089 38.6282 9.9623
27.0063 8.0102 23.9631
4.4202 -0.7284 53.3121
-15.3794 11.9826 34.7080
-18.7699 -40.2757 3.8116
-7.1062 -0.0927 50.0576
-7.4444 -75.3907 -34.9944
69.2554 -61.3008 -55.7227
15.4776 14.8564 32.2828
-24.0382 -34.5199 6.7475
13.8342 73.1354 -33.3529
11.9422 17.5826 32.5295
-7.0048 -19.4671 33.2305
-39.6075 14.0260 6.8061
7.8263 -20.4635 31.7189
19.1578 -21.4776 23.2060
18.3627 -7.9216 34.0858
-88.7586 -11.0970 -51.9580
-67.1816 -55.7808 -49.3201
24.7062 -75.6325 -39.7125
-1.3444 -0.5863 57.0451
-37.8215 -72.4621 -42.4049
3.0307 31.7945 19.2932
5.4967 -0.6520 52.0045
-26.1098 -5.5731 25.7859
2.5154 -51.5262 -5.0502
-2.7874 -3.0121 53.7779
-49.5066 -61.5731 -39.0208
-87.3040 -28.5783 -54.9472
19.8955 -90.7990 -56.2986
18.9381 82.1427 -45.5750
-38.5077 -27.5159 0.2267
-78.4547 22.2020 -42.1533
-13.2591 -16.0696 33.0513
31.7514 -52.1346 -16.7638
0.0661 10.0572 46.4020
-5.2936 -63.9206 -20.6008
62.1042 -32.8886 -28.2024
-0.0902 -15.3044 39.9012
-42.7734 58.8875 -31.3090
-38.3548 66.9798 -36.7620
-42.1650 -73.9945 -46.6496
32.9385 -8.3514 16.7632
-7.2237 69.4793 -27.6805
87.5209 -10.2163 -50.3047
5.4235 -78.4168 -38.5214
-6.0707 -18.9112 34.2553
-42.1374 -43.5859 -16.2457
-52.5755 -71.9116 -51.5015
74.1576 -6.9733 -33.4178
-10.0969 -0.2679 46.3487
-29.6380 -47.9186 -10.9426
-62.0910 -27.4304 -25.2353
44.4688 -76.4267 -50.6853
-42.5094 -44.6902 -17.5523
32.7107 23.6043 8.8871
-56.6490 9.5526 -12.3117
-50.1343 -31.8492 -14.7235
28.7834 18.7274 16.3187
31.9898 -29.6084 4.8593
-3.8110 0.4436 54.1089
5.6810 -74.9859 -34.3050
-44.4780 -4.5923 3.4650
-22.5404 -1.2337 30.8949
0.6177 -0.4327 57.9279
0.6530 0.3367 57.9520
-52.0893 -43.5078 -25.2217
31.8638 -31.4857 3.3643
-50.7251 68.7610 -46.9985
-5.1890 -7.5502 47.5120
-17.1718 -15.4575 30.2382
38.3357 -14.7723 7.9635
18.6389 -31.3563 13.6696
21.6192 64.0872 -24.9321
32.9603 59.1402 -25.0181
-5.2562 28.3856 23.0971
26.1076 62.7123 -25.2966
-1.1725 0.0862 57.4058
-20.1566 -11.2274 30.2774
-45.3350 -56.7800 -31.1550
-28.1168 -30.2363 7.7087
52.8540 62.7628 -42.7944
-81.6664 -16.3911 -44.3330
16.6808 88.5981 -52.8315
50.4029 -29.9127 -13.7513
83.3491 -44.2046 -58.0238
45.0805 36.6593 -13.1243
36.4171 46.5991 -14.4086
4.4118 -3.9879 51.4944
29.2998 10.9146 20.1256
-34.3702 -12.1412 13.7019
-30.9581 29.4889 5.8925
-0.6845 -0.5212 57.7964
29.7402 -0.5323 22.0108
-15.8828 20.3074 26.9220
-0.8513 -5.9421 51.4253
62.2713 -12.8802 -19.9195
-63.2589 57.5826 -47.1168
-7.7545 20.8256 31.3306
-16.7409 0.1759 38.1206
-21.3023 5.5914 31.5766
10.8077 85.3247 -47.6922
-26.2156 68.4530 -31.9515
57.2035 75.2189 -58.2141
-13.7562 -23.5499 25.0732
-50.3786 4.3963 -3.7896
26.1805 22.7984 15.8525
-52.7835 24.8071 -13.3939
-27.4042 -85.6865 -52.5928
28.4508 -4.6758 23.1414
2.5119 -89.0088 -51.4558
79.6156 14.0356 -41.2955
17.9706 93.1654 -58.6891
-42.7821 21.3667 -0.3837
1.4581 4.6819 52.7870
60.0597 -61.4331 -47.5775
-0.0899 0.0590 58.7291
-47.5508 43.9496 -21.3581
31.4602 -87.0326 -55.7917
7.8391 -1.6058 48.9487
68.9371 -32.5089 -35.5649
0.8451 0.6954 57.5064
-6.9556 -46.7562 0.2980
56.6701 -32.7834 -22.2486
48.2702 -35.1592 -15.1226
-45.3420 12.8159 0.4866
-65.7352 -64.6957 -55.4044
19.1318 -61.6743 -21.1387
24.6093 70.7666 -33.9614
-27.1664 -42.7081 -3.8467
12.9252 -10.7256 38.0538
24.3748 35.9558 5.0451
-67.2818 66.5912 -58.4178
78.1196 41.4828 -50.7202
-13.1729 -21.8918 27.2086
-35.0364 32.1452 -0.0462
-3.0364 -8.3742 47.8265
-45.6273 -4.1028 2.1060
24.1724 34.7763 6.3917
5.8156 16.2119 37.5239
-18.1239 54.3386 -12.1043
-7.5972 -3.1454 48.6752
60.0627 -43.5932 -33.0838
-57.7437 71.9155 -55.4013
-4.5475 -22.8034 30.0546
2.1320 36.1242 14.0297
-25.3809 8.7447 25.6036
61.5303 15.4757 -19.7426
35.8939 -36.3010 -4.3846
-9.2690 -4.6938 45.9904
-48.9650 -48.0491 -26.1301
42.4656 72.0140 -44.7136
-32.8111 -14.8125 14.2618
0.6429 -5.8072 51.6237
14.5477 -31.2196 16.1909
-3.1610 21.4472 32.0040
20.2187 36.7274 6.9210
55.7860 1.5453 -10.2782
38.0209 49.4820 -18.4488
40.9085 10.3593 6.5804
55.7291 7.5717 -10.8155
14.3436 -49.8494 -5.4026
-30.7582 -9.5745 18.9520
64.9675 59.7671 -50.5056
13.8244 -3.9725 41.0420
-78.2871 -13.6825 -39.5988
-29.2198 40.1543 -2.6627
1.0500 2.6395 55.3430
13.4288 -9.5129 38.4737
23.1196 -46.6030 -5.5892
-41.2229 47.6700 -19.2163
33.4141 -5.8305 16.8396
17.8640 -26.7977 18.9615
6.0843 -42.1403 6.1127
-69.7843 27.0779 -33.8747
-27.0587 7.4416 24.0943
-47.1054 -5.3253 0.1311
25.1711 -90.4375 -57.4408
21.8862 -30.1426 12.7124
-87.6987 20.0715 -52.5980
71.6049 34.2275 -39.4638
72.1583 27.6869 -36.8903
-0.4085 8.9563 47.7547
-79.5946 -3.8276 -39.8625
13.0170 -33.8691 13.9091
-55.3203 5.8832 -10.0612
-3.8035 -32.6009 18.1986
1.5891 -1.8485 55.8422
-10.0396 44.2371 2.6627
-1.9906 -44.3598 3.8491
-0.6859 3.2885 54.7005
59.6841 -71.1898 -56.2312
-1.2725 -29.1972 22.6552
-2.0642 2.7723 54.5801
74.4379 -44.0074 -48.2707
11.4784 0.9722 44.5906
11.8665 19.3193 30.7729
59.3306 -27.9151 -22.3727
-17.7371 56.2452 -14.2034
-35.1013 44.9749 -11.8192
66.2091 6.7986 -23.5963
-0.8648 23.2928 29.9847
-56.0200 74.1375 -56.2607
-27.7699 -60.3739 -23.4688
-50.9460 39.3566 -20.8955
34.9691 -36.8701 -4.0940
59.8153 8.1387 -15.9264
0.1427 -0.1932 58.5647
-36.1498 35.8744 -4.2346
70.8435 -59.2315 -55.5422
63.3931 46.9371 -38.8609
-4.6822 -0.1665 53.0578
-38.1606 -29.5963 -0.9680
20.4855 11.9578 29.4751
6.5187 -14.9095 38.7023
-42.0593 -72.8888 -45.3962
-23.6621 -28.4658 13.0025
-64.3274 37.9610 -33.6759
4.8352 -76.0163 -35.5056
26.0359 -22.4274 16.2888
-16.7263 -27.9425 18.5157
48.8015 -11.4249 -3.2333
5.5571 -48.0479 -1.0616
-16.4647 41.6446 3.3822
-37.6446 -81.6931 -52.5770
84.7195 -36.8029 -55.5736
-31.7423 -80.6319 -48.4955
16.0346 57.5163 -15.1127
23.1926 81.3304 -45.9159
-50.3265 40.8097 -21.4111
-9.2630 -4.1985 46.2624
-20.9495 7.5245 31.2843
-46.9768 60.0296 -35.5748
-5.0267 76.2125 -35.7635
60.3365 -30.4967 -24.8953
18.4854 -60.4947 -19.5063
48.7613 24.7739 -8.8986
9.3083 -48.7492 -2.6248
-25.6655 22.1270 16.8794
45.0813 -28.4033 -7.1507
51.0416 -35.8625 -18.4221
42.9815 13.6157 3.0040
-12.5742 45.8544 -0.0446
40.3292 -49.6982 -20.4316
41.0045 12.0883 5.8998
-7.6096 10.2342 43.0621
21.1123 90.4859 -56.2527
33.9374 65.4458 -32.4726
12.9184 -10.6978 38.0821
10.4203 -0.4682 45.9393
69.0689 -22.8820 -31.2817
12.1860 -54.1313 -9.8800
-18.1457 -55.2930 -13.2354
-7.0105 12.8724 40.7028
27.8637 -37.1620 1.3176
-4.9113 -6.1427 49.1186
32.0385 14.0331 15.5288
-57.7500 -22.5924 -17.9650
29.6344 -7.2346 21.0696
4.1562 -18.0220 35.9485
-16.2187 16.8412 29.8952
-13.0733 -22.3458 26.7880
24.5186 15.3300 23.0372
5.5395 9.5171 45.2196
-10.6870 73.4445 -33.0872
33.3962 4.4422 17.1229
-7.3707 -4.3693 48.2468
-7.1273 -17.9461 34.9394
1.5119 18.7697 35.5329
16.2608 75.5176 -36.8418
23.3606 25.7402 15.7973
19.5341 7.5323 32.9244
14.0574 -21.8717 26.6510
1.5921 21.5145 32.1347
-70.5845 34.9059 -38.6945
26.6074 7.2648 24.6914
-22.8524 -33.7426 8.3730
79.1597 -41.6222 -51.9402
35.3027 -6.6435 14.3577
-31.7341 -75.1631 -42.2177
20.6746 -32.3238 11.3251
-35.6642 -5.7355 14.1098
54.7792 21.1992 -13.9091
-8.0166 39.2024 9.2888
44.8728 -25.2798 -4.9464
-4.0423 -50.1704 -3.4959
-3.4187 -7.9585 48.1311
-4.5085 14.2425 40.3541
7.5311 -18.4357 34.1897
-23.4172 -5.0800 29.1756
-10.0162 -9.9530 41.3682
2.0817 -1.3570 55.7836
39.4336 -68.6964 -39.2719
65.0788 23.1931 -26.7318
-7.6606 16.2561 36.5982
-14.7414 -69.8978 -29.6399
-13.9682 60.4159 -17.9621
-12.4478 -48.9941 -3.7656
-1.0951 18.5614 35.8263
-20.4013 -5.0548 32.8226
35.8721 -43.3792 -10.8761
-44.0325 7.0987 3.6055
50.0907 4.4103 -3.4358
52.1329 42.2460 -24.2702
-58.7342 63.2913 -48.1119
-55.2734 -34.1332 -21.6215
41.6024 -17.4303 2.9795
7.9283 -57.8195 -13.4413
14.2042 -33.2472 14.0703
-38.9549 18.5602 5.4026
-16.4439 -23.7918 23.0311
26.2440 -44.3332 -4.9649
2.8689 32.0563 18.9885
21.5082 -66.9032 -28.2029
-24.2838 -13.9060 24.1931
-2.9701 51.1707 -4.6405
4.2927 0.1834 53.5392
16.0234 -41.0611 4.2550
55.0678 -2.0062 -9.4071
33.8887 -30.3015 2.5412
-58.5653 -20.7344 -18.1081
-2.5646 59.6456 -15.1017
-31.3062 0.2155 20.0757
29.0256 27.9448 8.9448
-12.6286 -8.2406 40.1802
2.1219 -15.4085 39.5924
46.9941 -59.7153 -35.2818
-9.8071 -24.2607 26.4425
12.7079 15.8454 33.6978
32.5137 -4.9829 18.1104
39.7309 -60.1786 -30.4770
-28.5613 -56.4455 -19.5115
27.8821 -3.9272 23.9779
-60.0692 -48.5697 -36.8419
-5.6196 30.2106 20.7919
-18.8547 3.9838 34.9872
-45.4343 34.7414 -11.9970
23.4680 7.3779 28.3845
1.7452 -1.9447 55.6251
-86.0353 34.4942 -55.9757
-2.6643 -2.4334 54.3920
-3.3469 -33.9681 16.5750
71.7168 36.3082 -40.7264
50.1047 -7.9159 -3.9830
-2.7651 -75.7544 -35.0533
-9.6794 -56.9506 -12.7063
-7.1553 72.7410 -31.6925
-10.5973 -40.4104 7.1045
-36.7571 -55.4867 -23.5962
-72.8288 33.2122 -40.3056
-82.1731 -6.9970 -43.3114
-55.2401 17.9926 -13.1142
-14.8818 23.6062 24.2897
4.8397 19.3570 34.1424
-48.2057 -37.9382 -17.1377
-69.6276 -64.0056 -58.3097
60.6962 72.2225 -58.0173
51.9008 -60.9050 -40.2748
21.4188 -64.4072 -25.2292
83.6046 7.9827 -45.1876
-1.3551 10.1681 46.1535
2.3853 -2.1808 54.8582
23.0728 52.8326 -12.5623
-77.3076 -36.8067 -47.2164
5.7038 -67.8956 -25.5508
-35.9918 -83.5143 -53.8041
33.1900 28.9464 4.3012
-48.7107 -34.2505 -14.9111
91.7017 -15.0600 -56.2700
-58.2611 3.7277 -13.4658
-66.1498 -14.3216 -24.9902
1.7048 -9.8261 46.5067
-42.4534 39.9115 -13.3273
-39.9376 82.6310 -54.8405
79.6715 -46.1974 -55.2370
-7.1271 -16.9804 36.0471
58.1083 -14.0080 -15.1910
33.8364 -53.1616 -19.2095
-2.2191 -8.1484 48.3995
-16.0722 -19.5778 27.4807
-13.7393 48.9393 -4.1133
26.2703 -82.8256 -48.7893
44.7368 29.7994 -7.7331
29.2672 -69.0928 -34.1006
20.5976 -20.8334 22.5664
-17.7834 62.5531 -21.7065
-11.6477 -24.7032 25.0258
19.1094 -77.5700 -40.1134
-27.3539 1.3362 24.9328
-37.0799 -80.4624 -50.8995
-14.1907 1.9687 41.1129
16.4885 -7.5464 36.3966
-60.4377 -1.3347 -16.0330
1.1001 -18.8322 35.4911
-29.7466 -6.1686 21.2248
-21.9871 -47.7567 -6.2736
-3.2984 -43.0244 5.4024
-3.0166 -6.6990 49.7601
33.3259 0.0611 17.5744
2.9224 -24.8078 27.9151
-51.1609 -13.6704 -6.7453
39.0544 68.8149 -39.1664
45.2517 37.8559 -14.2313
-9.8489 -23.2674 27.5599
92.5905 19.3769 -58.3343
6.0104 10.8497 43.4957
42.9953 -81.3389 -55.1218
-66.6894 55.0540 -48.2762
-41.0187 -23.5329 0.2743
52.5403 -34.4555 -18.9791
14.7105 33.6329 13.3827
-30.3941 38.3577 -1.7700
67.0045 62.3840 -54.5599
-23.3115 -4.6864 29.4035
-2.7507 19.3427 34.6572
-29.7777 -69.8016 -35.1562
-39.6246 -19.2060 4.3081
-22.6923 45.6038 -4.2451
-13.3057 17.6480 31.4800
17.9088 45.3790 -1.5781
10.6027 -10.5000 40.3752
-38.0701 -2.2690 11.6130
14.7499 33.4693 13.5487
43.5028 37.4980 -12.2926
14.8522 83.3716 -46.0540
-9.5105 -15.4865 36.3467
29.6827 -10.7339 19.7574
42.2781 -37.8175 -11.4137
77.8407 17.3458 -39.9409
12.4889 -11.6487 37.7039
0.9760 -10.6951 45.5569
8.8305 -4.0415 46.8307
-6.8388 -0.7880 50.3335
20.2887 -21.1400 22.5613
22.6977 15.6849 24.6808
15.4387 -24.5615 22.9206
35.5954 61.2600 -28.9155
-30.6734 -43.9525 -7.5403
-34.9925 -13.0794 12.5803
8.3151 60.0248 -16.2133
31.0224 -33.1866 2.5804
-39.1034 16.0410 6.4988
7.1563 -60.7480 -16.9196
-6.7818 -2.9669 49.6914
64.8285 27.7308 -28.4941
16.1632 43.2242 1.6897
-27.5075 -88.0262 -55.3952
31.8886 2.7315 19.2104
16.6206 2.9521 37.9485
-79.8826 -3.1028 -40.1799
-84.4411 -2.6771 -45.8054
79.8253 10.5334 -40.8916
-69.8974 -17.4865 -30.4032
-22.5529 -24.8056 17.3273
22.3034 1.2198 31.1890
-48.6760 33.9804 -14.6838
11.6416 -78.1058 -38.9729
5.2702 -16.3656 37.5614
36.0112 36.3661 -4.5441
35.8053 -6.4252 13.7940
3.8761 -6.3287 49.6678
16.0572 39.7554 5.7431
-82.0957 -31.9795 -50.2915
5.7552 27.5029 24.0506
-0.4206 -83.5783 -44.6852
-19.9158 62.9924 -22.9874
-28.1532 -0.4413 23.9786
-9.5565 6.9138 44.2490
23.6226 -10.1250 27.0209
-22.7972 -17.7471 23.0693
-17.3007 9.5068 34.4054
-37.6828 82.4598 -53.4600
-24.2991 -75.5779 -39.4925
31.1526 -36.8265 -0.8974
-52.5149 0.8848 -6.2084
-3.7254 -2.3954 53.3750
-19.7495 12.4728 29.9233
-34.1303 -13.5811 13.3531
7.2049 -53.1553 -7.5946
1.0493 85.6018 -47.1989
55.8723 67.9752 -50.1504
-26.6912 -41.5740 -2.3458
-34.4799 10.2161 14.3091
-0.6375 -63.8242 -20.2143
4.1036 2.8075 52.7022
48.1848 -18.9826 -5.2999
-0.7836 2.6755 55.4083
50.6373 -58.2925 -36.8003
11.5518 13.9251 36.4468
-61.8866 -1.6337 -17.8365
-1.9300 -11.7032 44.1672
12.8064 -16.7191 32.7705
-22.8629 -13.9177 25.7016
3.1194 49.0736 -2.0584
26.5117 10.2413 23.6511
-10.8184 9.9670 40.6381
17.5315 -17.2639 28.3791
1.5297 -0.8199 56.7120
11.4161 -46.6652 -0.6568
-26.9266 70.4159 -34.5375
53.2562 -14.0961 -9.3896
-61.6284 39.4785 -31.8123
41.4937 55.3249 -26.8161
40.6352 71.4131 -42.9326
12.5117 38.2158 9.0434
-24.6622 -21.9542 17.9554
67.5745 -32.0107 -33.7749
-8.6293 3.4205 47.3620
-4.7709 -76.5389 -36.1467
-11.3807 -54.7818 -10.4567
-73.1049 6.1310 -32.0262
51.8888 -0.6396 -5.4283
-73.1155 -3.2836 -31.8127
53.5371 -62.1457 -42.7611
-67.4410 -47.0296 -43.0006
-2.4902 -4.9310 52.0184
-14.2027 11.3558 36.3334
0.0700 -0.0407 58.7620
-19.7684 45.6974 -2.8232
36.8637 -8.3641 12.0306
20.2297 9.7278 31.0523
32.3548 -69.0439 -35.6034
0.2727 10.2272 46.1871
28.0399 -21.5269 15.0664
61.8518 12.7936 -58.8623
-6.9726 -10.4728 -58.8623
5.1367 -36.8547 -58.8623
22.6906 33.7655 -58.8623
1.7045 2.8658 -58.8623
0.7921 -13.3595 -58.8623
-59.0558 -6.7549 -58.8623
-3.2460 19.0561 -58.8623
-70.3015 -4.1969 -58.8623
25.5640 32.5932 -58.8623
-41.9314 17.0569 -58.8623
-9.5431 10.2451 -58.8623
-0.3863 -60.7555 -58.8623
-5.0873 8.5387 -58.8623
0.5207 32.1702 -58.8623
56.0440 28.1390 -58.8623
27.4143 67.7142 -58.8623
-6.9419 -74.5838 -58.8623
28.1474 -56.5047 -58.8623
-56.8682 13.7262 -58.8623
-16.4006 -29.7912 -58.8623
-71.1323 21.4730 -58.8623
22.4791 -5.9711 -58.8623
-33.1399 -68.9649 -58.8623
40.4603 39.6891 -58.8623
54.9450 5.4500 -58.8623
-10.3699 35.5717 -58.8623
11.7397 54.8249 -58.8623
-40.0631 -59.2429 -58.8623
0.0478 -0.3215 -58.8623
30.3193 2.1877 -58.8623
-24.8480 50.1936 -58.8623
12.2923 -2.7782 -58.8623
43.6661 -13.7249 -58.8623
38.2637 -12.1777 -58.8623
57.3566 -48.2763 -58.8623
-37.1646 -58.0911 -58.8623
-24.2968 -29.6204 -58.8623
1.9462 38.2528 -58.8623
-0.0847 -0.2422 -58.8623
-2.9028 92.3464 -58.8623
3.4466 0.5821 -58.8623
-31.4465 83.8505 -58.8623
30.8533 -21.0209 -58.8623
5.4987 -67.8526 -58.8623
18.7216 22.4123 -58.8623
0.5356 3.1741 -58.8623
-17.3778 44.1044 -58.8623
6.2788 -5.3478 -58.8623
-19.7837 26.6256 -58.8623
33.1494 87.7474 -58.8623
2.3704 -8.2634 -58.8623
-18.0711 45.7171 -58.8623
-32.2788 -1.6277 -58.8623
55.0768 31.4545 -58.8623
-47.4706 -42.6662 -58.8623
-1.5025 -42.6185 -58.8623
-55.4374 -76.4969 -58.8623
-69.5083 -63.0101 -58.8623
23.6276 -11.7480 -58.8623
8.9299 79.4789 -58.8623
-72.1551 -17.3915 -58.8623
-6.1941 20.0614 -58.8623
24.9486 43.9454 -58.8623
42.6903 -35.9875 -58.8623
5.6205 -48.5061 -58.8623
6.1364 -0.8047 -58.8623
28.7139 82.9362 -58.8623
-77.4815 -34.4115 -58.8623
-21.8814 21.5189 -58.8623
-86.8500 34.4222 -58.8623
57.4797 -59.1394 -58.8623
-24.9634 76.6556 -58.8623
22.5928 -44.9882 -58.8623
-33.1358 -52.0073 -58.8623
-78.7718 10.0287 -58.8623
24.3887 -27.8273 -58.8623
-2.6942 21.4662 -58.8623
-19.4224 -64.1205 -58.8623
-46.0298 -65.7792 -58.8623
62.9623 51.3977 -58.8623
42.9340 -64.2441 -58.8623
-9.6017 -3.9800 -58.8623
31.3548 -49.1860 -58.8623
-55.9605 28.1859 -58.8623
3.2436 2.9658 -58.8623
14.0560 -57.1766 -58.8623
53.0936 65.6449 -58.8623
-70.5026 34.4718 -58.8623
20.5532 -24.4042 -58.8623
41.1756 -44.1638 -58.8623
4.9241 15.8678 -58.8623
-44.1627 70.9147 -58.8623
0.5744 81.7792 -58.8623
16.6364 -38.7620 -58.8623
-23.1104 -24.2193 -58.8623
31.0080 17.5356 -58.8623
9.5465 7.3261 -58.8623
-74.7765 38.0753 -58.8623
47.7185 20.3381 -58.8623
-14.9056 10.3408 -58.8623
13.4157 1.0964 -58.8623
76.9561 -42.9759 -58.8623
-82.5233 24.7894 -58.8623
-81.3160 44.1290 -58.8623
-25.3019 17.4909 -58.8623
-48.4228 -61.6522 -58.8623
30.6667 -8.7340 -58.8623
-30.6658 72.8287 -58.8623
-2.0671 -2.9696 -58.8623
-53.5849 -28.0981 -58.8623
13.5833 -28.1979 -58.8623
-30.8446 67.8838 -58.8623
-17.3495 1.1614 -58.8623
-0.5109 0.2623 -58.8623
16.0424 -4.9292 -58.8623
8.4833 2.2783 -58.8623
20.9832 2.2742 -58.8623
-51.0897 -20.5080 -58.8623
-2.5091 1.4780 -58.8623
46.5807 6.7565 -58.8623
-6.7809 10.7602 -58.8623
-11.5593 15.3863 -58.8623
0.1502 -0.3743 -58.8623
5.7800 -0.4013 -58.8623
0.0542 0.4075 -58.8623
44.8645 9.8948 -58.8623
37.3399 62.9492 -58.8623
49.9663 -3.0000 -58.8623
35.8540 13.4132 -58.8623
35.6711 -48.4783 -58.8623
-37.3728 -39.6547 -58.8623
45.7082 -76.6694 -58.8623
-9.2229 -72.2818 -58.8623
-44.5388 -4.3758 -58.8623
13.6912 11.4299 -58.8623
-17.9046 -20.0109 -58.8623
-67.0795 -36.6957 -58.8623
16.1733 50.2532 -58.8623
7.1683 2.7062 -58.8623
7.6041 -2.3332 -58.8623
-80.8543 16.6233 -58.8623
-11.5664 45.4939 -58.8623
26.5138 29.5851 -58.8623
-63.1073 57.1636 -58.8623
-59.2452 68.3810 -58.8623
-34.6809 72.1088 -58.8623
0.7626 1.3518 -58.8623
11.1422 -46.1093 -58.8623
1.5422 0.4922 -58.8623
-62.5586 43.4800 -58.8623
-22.3334 -61.3312 -58.8623
-7.2862 43.4160 -58.8623
5.2597 -19.7060 -58.8623
42.5585 22.0212 -58.8623
-33.1408 23.2843 -58.8623
40.6478 8.6227 -58.8623
-35.5274 2.6694 -58.8623
-56.8965 67.8451 -58.8623
0.3967 -2.2899 -58.8623
1.5214 3.7449 -58.8623
-7.6486 -2.9809 -58.8623
-0.0945 26.3541 -58.8623
26.1857 -12.6435 -58.8623
68.1620 -14.3181 -58.8623
-52.8545 -10.9711 -58.8623
18.0541 -39.3085 -58.8623
64.6374 18.3268 -58.8623
-29.9719 -75.2392 -58.8623
5.1290 13.5431 -58.8623
-88.7366 31.1596 -58.8623
5.9575 -17.1820 -58.8623
31.7638 85.7278 -58.8623
52.6766 -22.7621 -58.8623
26.4164 25.8492 -58.8623
-45.7611 -31.7249 -58.8623
42.0052 -38.7479 -58.8623
-39.5593 -21.9438 -58.8623
8.1625 -69.0499 -58.8623
-18.8737 -29.9586 -58.8623
-34.7564 -46.2409 -58.8623
26.4795 -13.3907 -58.8623
-76.6597 43.2030 -58.8623
-67.5242 37.4007 -58.8623
13.0031 85.1095 -58.8623
11.4473 -4.4800 -58.8623
29.1168 -19.8277 -58.8623
13.5618 63.8492 -58.8623
-31.2282 76.3024 -58.8623
-38.2376 36.4655 -58.8623
7.3348 23.7788 -58.8623
-29.2724 -18.4510 -58.8623
5.8196 -70.2603 -58.8623
-80.8202 8.3280 -58.8623
-56.6911 -58.6765 -58.8623
-0.0397 -0.8965 -58.8623
78.0323 -11.3605 -58.8623
29.0362 -54.9966 -58.8623
8.2290 -7.4972 -58.8623
-17.4579 17.1409 -58.8623
8.7937 10.0728 -58.8623
27.7862 35.8858 -58.8623
36.5026 77.0939 -58.8623
75.9654 -43.6460 -58.8623
52.3982 -27.2782 -58.8623
-49.8567 62.9175 -58.8623
14.1870 35.7801 -58.8623
-8.3082 49.5799 -58.8623
29.0703 -65.3567 -58.8623
-10.7081 -3.5184 -58.8623
-2.0926 22.8638 -58.8623
-4.2542 -5.9294 -58.8623
91.5303 10.4576 -58.8623
49.6492 -1.4319 -58.8623
-0.5976 -67.7818 -58.8623
-17.9767 72.8431 -58.8623
2.3755 65.9970 -58.8623
-55.2696 -2.5819 -58.8623
23.3546 36.9590 -58.8623
23.6883 23.2090 -58.8623
-1.8190 77.9747 -58.8623
-33.3493 -60.5556 -58.8623
11.8020 -1.6659 -58.8623
2.0482 -3.7741 -58.8623
41.2807 -45.0869 -58.8623
13.8783 10.6313 -58.8623
5.6937 3.2620 -58.8623
16.7257 -16.1782 -58.8623
6.0537 33.4790 -58.8623
14.3239 -74.9424 -58.8623
-27.3348 10.9452 -58.8623
-64.3024 43.9939 -58.8623
-4.9686 22.5970 -58.8623
-17.0293 1.3781 -58.8623
-41.1338 59.8567 -58.8623
39.5304 5.5066 -58.8623
74.3493 41.9652 -58.8623
-70.8832 5.6407 -58.8623
85.4414 -23.0238 -58.8623
-23.3017 76.8215 -58.8623
49.4110 50.5055 -58.8623
26.7319 1.7070 -58.8623
-57.0607 -11.9932 -58.8623
-3.1682 -50.9168 -58.8623
23.8096 57.8042 -58.8623
-70.3743 45.2252 -58.8623
14.6031 -1.0071 -58.8623
-17.1590 -14.5161 -58.8623
18.5897 -26.6399 -58.8623
-12.0688 -48.2887 -58.8623
82.9369 -42.7739 -58.8623
38.9876 44.7772 -58.8623
3.6935 1.8655 -58.8623
33.7370 34.0598 -58.8623
-3.2695 32.2390 -58.8623
-11.8365 -22.4622 -58.8623
