ply
format ascii 1.0
element vertex 1024
property float x
property float y
property float z
end_header
14.7830 5.5981 17.7275
-24.9329 -0.6027 -20.5297
24.9763 -3.6233 -21.7761
-9.9357 -8.3503 29.5772
15.8054 32.0261 -65.6605
8.5659 28.9788 -42.6396
-37.0729 -9.6097 -76.4862
13.6093 27.2719 -43.7317
-4.9164 -20.9324 -6.1269
14.9332 -6.1734 16.2549
3.6449 28.5709 -36.7086
-0.3552 -10.5745 39.6235
-32.7290 -1.9009 -53.3881
-26.4738 -25.6098 -70.3515
1.4247 -6.1090 57.6678
-4.7487 -1.6913 62.8285
-23.5458 15.9761 -35.2498
-35.9918 -4.1559 -67.8268
-37.7060 -2.2137 -74.2777
-11.8021 -11.2906 15.5261
15.4274 28.4679 -51.6924
-9.0790 -24.4670 -25.3764
14.7922 27.9103 -48.3769
-24.6796 23.1666 -57.8499
2.8355 32.5088 -52.7515
17.3978 25.7511 -46.2382
4.6123 -10.7950 34.7701
-28.5619 -11.7323 -45.4018
-3.5665 9.6256 40.9444
-16.2248 11.1904 1.3812
0.9252 -17.0588 12.3806
4.1192 7.6767 47.4504
-1.3957 -22.4859 -10.4300
0.0650 -0.0190 83.6612
-0.2917 -6.8903 55.0557
32.8248 -6.1048 -55.9162
1.9456 -2.5227 70.5997
-5.0170 18.9100 1.9903
5.6230 -7.8453 43.5114
-1.5563 29.3427 -39.1444
14.6234 22.8463 -29.6844
-1.4862 -16.0340 16.4906
-5.1560 -13.1202 24.8928
8.8329 36.6841 -74.1167
5.0075 23.4225 -16.3894
0.5352 6.2393 57.7125
-0.6454 7.2010 53.6592
11.0973 14.7914 6.4839
0.3052 39.4137 -81.1641
11.9145 19.1285 -10.4567
-27.1669 15.1813 -46.4207
9.7311 -20.7661 -12.1216
23.0207 -32.7644 -83.7962
21.3905 13.6538 -22.3585
0.5161 1.4071 77.6668
1.1779 -1.9078 74.5527
-3.4183 -9.5351 41.5132
-23.8386 29.6590 -75.4539
-15.3288 -5.4840 15.7471
12.9059 15.2067 0.3951
-1.1590 -2.5675 72.1449
0.0697 -6.6469 56.0997
23.2678 15.6917 -33.6176
-3.4415 -0.2096 69.5016
6.0080 -27.7442 -34.9694
-8.0924 2.8042 48.0685
12.9406 -0.4031 29.7104
21.4499 -25.8627 -56.8068
-17.5876 4.4933 7.9041
4.7563 -3.9924 57.9321
14.1532 -1.0981 24.4788
-16.8847 -14.2307 -8.5556
-6.0706 -26.9057 -31.5962
-2.0187 -28.6218 -36.2496
-1.4521 -10.3939 39.9820
0.1841 0.3373 82.3353
25.9559 -24.0571 -64.3040
32.9679 -19.8999 -77.3665
-9.8521 20.9443 -13.0127
-27.1565 5.5343 -32.1520
-5.0423 -9.4987 38.8960
1.0576 -15.4729 18.9776
-11.7027 18.5886 -8.0692
-5.4680 -5.2536 52.1804
-11.0037 -15.5044 4.3023
-10.9512 -29.6134 -48.3165
5.7221 2.0398 58.4977
-15.1901 -1.4773 20.0135
5.6075 -21.5458 -9.3170
7.5097 3.3248 49.5414
-13.0062 4.2986 26.5632
-8.6559 4.9087 42.2609
18.8234 -13.5937 -13.3186
0.0159 6.8794 55.1271
-3.5617 -0.6551 68.7746
3.9327 -2.8750 63.5381
-5.3005 2.9748 58.4833
4.8869 -0.5222 63.3572
-0.4565 -3.1841 70.4705
20.7018 -6.0535 -6.4064
-25.0326 7.8912 -26.0037
4.4763 -3.3569 60.5068
19.8740 12.8298 -15.1478
8.4223 -36.4128 -72.6156
23.1992 15.6362 -33.2494
21.8917 -4.1717 -9.4097
-12.2060 -22.2010 -22.1839
4.7190 -17.1025 9.6255
-15.4184 -20.2125 -22.5473
30.0896 22.9857 -74.6699
-2.2035 -6.8382 53.8493
-19.8414 -32.8975 -76.9875
-0.1047 -0.4221 82.1233
-21.2983 -25.5514 -55.3979
-8.6814 -21.6498 -13.7659
-3.8444 25.8296 -25.4471
4.7609 2.4147 61.5832
1.7337 10.7087 38.5020
-1.9061 -0.1281 75.9424
-26.4300 6.0514 -29.6353
-23.6801 -15.5404 -34.7044
15.9575 -18.1915 -17.4232
3.8045 -2.1726 65.5924
-8.1882 9.4570 31.5438
-21.7578 16.3616 -30.0933
-3.9911 -17.0951 10.4079
-18.4268 -21.8828 -35.8931
17.9026 5.5535 5.4254
10.4029 32.5237 -59.0967
1.3468 19.1748 3.4236
-2.8292 -12.7320 29.3096
-1.7396 -0.2560 76.5792
18.9158 -5.9457 0.8843
20.0436 5.0588 -2.6507
14.0327 -2.2103 24.4373
-34.9127 7.3149 -65.4803
35.1084 -8.6430 -67.5154
11.2379 -23.5698 -25.4374
19.3744 18.2095 -27.4348
31.5301 1.0133 -48.2031
20.2040 33.2260 -78.9511
13.0350 10.0337 15.0378
6.3842 35.6506 -67.7714
-28.7825 0.2854 -36.6309
7.5164 1.7966 51.5719
13.7822 -33.9687 -69.6162
6.3533 12.8476 23.9054
1.7247 -3.8427 66.3011
-25.9276 7.3418 -28.9361
3.2848 0.3382 70.1123
25.4317 -26.2047 -69.0231
6.6971 6.4101 45.1113
7.8488 -5.6725 43.3785
-0.3899 -2.9341 71.5461
-2.6944 -23.5371 -15.2958
24.9335 -21.7793 -54.7370
1.3944 -25.6968 -23.8572
15.0914 -17.5729 -13.0881
21.4928 7.7084 -11.7038
1.7178 5.9685 57.9279
-9.4973 12.1053 19.4920
-6.4081 0.8771 56.8509
-3.1762 -3.7911 63.2269
21.4731 -0.5922 -6.0401
2.7637 12.8610 28.8402
2.2332 -25.8708 -24.8307
3.1785 -36.3105 -68.7415
-8.9753 -10.1784 27.0983
4.6384 25.8647 -26.1310
9.2812 -18.6221 -3.2150
4.7082 28.0648 -35.2615
24.2428 3.3787 -18.5897
0.1953 3.4823 69.3346
17.4753 -19.7915 -26.6549
16.7402 9.9855 2.2920
-2.3537 11.5521 34.5590
9.2481 -5.1044 39.6955
-2.7255 0.9788 71.8142
-9.1352 5.3960 39.5005
-13.8910 -2.6926 24.6726
11.9022 3.2074 32.3078
9.0853 -10.7205 25.0791
11.3389 -35.0977 -70.5619
-3.9133 -5.6939 55.0030
16.1035 16.5635 -12.8267
-5.5135 -2.0465 59.3093
1.8024 10.7816 38.1540
-17.4112 -35.0805 -80.1115
9.4459 36.8063 -75.2331
-1.8103 0.4067 76.1726
-1.6699 -2.1833 72.4307
23.3968 23.8315 -55.9547
-27.5971 -1.3307 -31.7939
3.8927 -36.8491 -71.2752
24.5517 30.2539 -79.2697
23.2035 29.0398 -71.7660
1.1775 1.0733 77.2708
-18.9206 -1.0982 4.5530
32.2246 -7.5675 -54.7164
11.6045 -22.8644 -23.4640
-32.5867 -18.9729 -74.0122
17.3185 -25.2406 -44.2835
27.3601 -3.7625 -31.7453
19.7115 26.4945 -54.3874
15.7428 -11.7157 1.7407
10.3172 -19.1191 -7.0619
7.2232 1.5545 52.9941
-34.2708 -16.0804 -74.6333
-7.1654 0.3852 53.8859
-8.5287 -28.0064 -38.6933
-13.6806 27.9728 -46.4965
-11.9729 -35.1610 -71.6500
-8.5220 -13.9053 15.6266
-2.1266 20.4657 -2.2473
33.7800 9.5786 -63.1386
-6.7556 -2.5648 53.6748
-17.8962 14.4847 -12.5006
2.8662 -18.0455 7.4049
-17.2631 -3.9923 9.7211
19.8608 3.0971 -0.2577
0.0691 -0.0782 83.5077
2.0251 -7.8061 50.1627
-0.7492 2.9021 71.3893
11.0967 -25.7323 -33.4435
-24.1616 -8.9141 -23.9367
7.4949 -13.0274 20.9863
7.5620 -0.2948 52.2436
1.9440 -36.4028 -68.7639
22.1747 23.4142 -51.1427
4.3303 0.5685 65.6495
-21.4460 23.9282 -50.6577
15.1200 0.8964 20.4960
5.9337 14.8978 16.7700
-23.1311 -4.8203 -15.0327
-8.9771 -32.9498 -59.1130
-3.1829 13.8496 24.4166
-5.8675 -7.8221 42.9840
13.5546 -30.6164 -56.3140
-20.1375 -4.0787 -2.1240
-33.0412 -12.8279 -64.5300
3.2722 1.4079 69.0226
0.2071 -1.7746 76.4607
-19.2556 -14.3062 -16.5426
5.5656 -2.1088 59.0130
-0.0385 2.3682 74.0235
-4.5476 -24.7086 -21.2981
-7.2357 3.8803 49.5513
9.3233 -12.5516 18.4479
-0.5599 -15.2866 19.8665
14.0443 6.1450 19.7282
12.8310 11.0700 12.9568
12.1062 -23.1961 -25.6613
-21.8435 17.5669 -33.4768
-1.7123 3.4238 67.9088
0.0460 -1.6836 76.8899
0.4861 -0.3319 81.4795
-7.5429 22.6179 -15.9313
1.7784 17.4364 10.5247
9.4131 4.2835 40.6228
-6.3783 0.0871 57.2238
11.1763 -3.9408 34.3023
-11.6617 -3.6411 32.7683
-13.1355 -4.1434 26.2477
3.2809 6.1058 54.9093
-31.5990 1.8559 -48.6515
4.9206 -6.9984 48.1077
-20.8430 19.1473 -34.6157
-25.0996 -21.1800 -53.6295
9.6605 3.3749 41.0786
-7.5098 -15.4059 12.1503
-15.0774 -14.1598 -2.7004
-2.9497 1.4851 70.1111
8.1384 33.3524 -59.8676
23.3774 6.0512 -17.2107
8.8981 -0.2510 46.6561
-22.2504 -7.5949 -14.5425
-10.9310 0.7858 38.0370
14.3124 34.0568 -70.8050
10.5181 6.6980 31.7094
24.3342 1.1471 -18.1044
-0.2102 7.8871 50.8943
8.2351 13.0538 19.2905
11.4527 19.6919 -11.4812
4.4476 17.3998 8.7136
-8.7631 18.5930 -2.1585
-7.3178 -9.7733 32.8001
12.2341 -0.4605 32.6598
0.1624 -1.3712 78.1608
20.6657 11.1225 -14.3655
-38.7054 0.0285 -78.1920
19.6971 4.4921 -0.6850
-4.6769 15.8230 14.8277
-22.0526 -15.8042 -29.7068
-10.2657 10.7211 21.7659
13.8564 34.1606 -70.4779
-0.7559 0.5969 79.9104
-33.3530 21.4246 -82.1129
18.4339 -15.0017 -15.6143
-14.5535 32.0768 -63.6082
18.4830 1.4659 6.2766
17.4609 -2.7595 9.8936
-16.3980 1.1996 15.0700
-5.6344 -8.4781 41.3025
34.5717 -1.7195 -61.0551
15.0717 2.7574 19.7617
10.3446 19.4623 -8.3835
3.9766 -21.4047 -7.2537
-12.7298 -0.3779 30.5965
10.3449 -15.8970 4.4938
-17.2524 4.4308 9.3293
19.1663 20.9327 -34.9465
-18.9686 -8.3377 -2.8519
-10.4821 9.8325 23.7409
0.7494 2.9006 71.3953
-20.1292 19.1972 -32.5753
13.4811 -9.4116 15.0720
-9.1465 31.1201 -51.9312
-4.2542 17.9227 6.7809
-2.5840 -24.3207 -18.5081
-15.7253 -10.4829 4.7766
-22.0728 18.9452 -37.9063
3.5484 12.3579 30.0859
-10.0634 -18.1702 -3.0644
2.0238 11.6321 34.4861
22.4196 -17.8525 -36.1084
-4.4918 14.6361 19.8119
9.9229 7.3113 32.3133
0.5523 -1.4565 77.4196
15.6593 25.1040 -39.9975
-6.3789 25.4249 -25.8609
-33.5119 -11.2358 -64.1165
7.1590 14.2395 17.1812
20.9047 -4.2954 -5.4543
-32.3945 -5.6881 -53.8320
15.3568 4.9571 16.3470
4.8200 18.6643 3.1953
-9.1392 13.2622 16.4758
-0.2584 -0.9833 79.6859
0.6705 -0.2964 80.8741
-11.6918 -30.3719 -52.3844
0.0723 -0.8170 80.5093
-0.2785 0.5513 81.3575
31.9210 -14.6488 -63.1804
-5.0109 -14.3747 20.1755
38.7280 -9.6078 -83.2045
-1.3190 0.4590 78.0946
1.4974 1.1654 75.9967
-0.6512 -0.1543 81.1417
-0.3868 -0.1492 82.2081
28.7487 18.0033 -58.1485
29.1930 -15.4206 -54.3573
1.7746 2.4907 71.1342
23.6375 20.8924 -48.2063
-6.0801 -5.6691 49.1217
-17.5641 10.8993 -2.6462
23.0943 -18.7873 -40.7657
-31.4169 5.0803 -49.3702
19.4635 -28.9927 -62.3351
24.2433 14.8414 -35.1293
13.0665 -31.8464 -60.2521
-28.8341 -1.7805 -37.0713
3.5636 0.3856 68.9298
-27.0751 7.2948 -33.5174
-21.2956 18.1230 -33.1936
-1.1543 1.5700 75.7820
-25.0881 17.0626 -43.1517
-2.7868 2.7704 67.4840
2.3713 -33.8568 -58.2288
30.9827 -10.7104 -53.3779
-2.8588 31.5439 -48.7340
-7.8947 -5.0655 44.6520
3.4884 4.4513 60.2548
-10.0981 8.6773 28.1720
5.4611 13.1348 24.3568
-7.5281 -0.4546 52.3521
-16.2302 -0.8253 15.8687
6.1803 -30.3541 -45.8173
-7.3852 -0.7869 52.8331
5.6224 4.4013 54.0345
3.9216 36.9065 -71.5271
-27.9734 8.1309 -38.0855
9.8952 13.9082 12.4426
-10.1575 -2.5313 40.0939
-0.8015 34.2323 -59.4936
12.7488 -13.9493 4.7833
2.7184 27.1297 -30.2705
7.3335 9.5194 33.6071
8.5649 -2.5818 46.4720
-27.4369 15.0757 -47.1956
13.4420 -7.0979 20.2684
1.2658 -0.5844 78.1046
-26.2324 19.6769 -53.4211
8.4406 -5.8608 40.8995
16.4230 -19.6427 -23.3089
25.7534 -4.9552 -25.9151
1.3247 0.5237 77.9778
5.4450 -19.1064 0.7216
6.0240 -8.6053 39.9425
10.3943 10.3312 22.5543
1.7753 -9.3890 43.9177
10.8263 19.8258 -10.6811
-1.6960 2.9782 69.5883
-1.7693 -1.0170 75.3963
9.9029 -11.1800 21.3815
-13.9677 -24.7468 -35.0923
-16.2604 23.8072 -36.8251
3.6477 -33.2778 -56.2907
5.3468 6.3014 49.3265
18.1344 10.2143 -3.2418
-31.9440 5.7790 -52.0406
-22.0942 5.0590 -11.0030
1.3710 -17.3159 11.1814
-1.2304 -32.8351 -53.6978
-27.2385 -8.4608 -35.5350
4.4704 5.8330 53.1598
-2.2858 0.9503 73.5752
-1.3021 -9.0687 45.5666
-0.8536 -0.4912 79.8196
0.3302 0.8291 80.2065
-7.7488 -36.4480 -72.1480
1.3377 7.7022 51.1975
25.1961 12.9451 -34.7172
10.9587 -36.6680 -76.3704
34.0283 13.7770 -69.8396
-9.7468 6.8926 33.9381
3.5748 -2.7217 65.1239
-18.3330 8.3008 -0.3574
-0.8968 9.3047 44.7868
8.2444 -27.3590 -35.7525
-8.0800 -4.5278 45.1456
18.4910 20.1708 -30.6822
4.5007 27.5614 -33.0391
-4.7936 3.9097 58.0326
16.6069 -17.1078 -15.9317
-19.1273 -23.8044 -43.9742
-23.0714 25.7022 -60.7361
1.4264 -8.4305 48.1276
18.8627 -21.9202 -37.1960
4.7340 -18.5693 3.6700
10.1411 -5.5670 35.4838
-6.2501 -9.8197 35.1849
-2.3757 -1.5405 72.0842
11.1014 16.9083 -0.7860
0.0393 -2.2207 74.6409
-0.5359 17.6261 10.0750
6.2852 -7.7237 42.2312
-9.2634 -18.9939 -4.5787
-25.2985 19.2477 -49.2159
0.2230 0.0705 82.9655
-12.0608 -9.6752 19.1749
-3.9557 30.1083 -43.2627
5.0294 24.0827 -19.1142
-7.4315 12.8122 21.8997
4.5450 -15.8251 14.9735
2.9631 25.2928 -22.7313
-4.3166 38.4385 -78.0863
14.6031 -8.0448 14.1041
6.0448 -22.0935 -12.0063
-13.7452 -11.7795 8.1150
7.9706 26.8532 -33.3938
22.2198 22.4290 -48.3096
-0.4323 1.6266 76.8948
-0.1778 -10.4802 40.0371
28.2775 -14.2339 -48.6698
7.5300 3.3124 49.4847
-16.8623 -25.6635 -44.6891
-26.5770 13.9167 -41.7262
9.8576 -27.0468 -36.6449
31.0050 9.4044 -51.7784
-6.7781 0.4967 55.4752
14.1816 -25.7203 -39.0900
-18.9422 7.5798 -1.5211
-7.2598 10.3457 31.0012
3.3331 4.7546 59.6212
-5.7664 -14.2354 19.6061
-4.2210 5.8016 53.8903
0.7308 8.8676 46.6726
9.9533 4.0374 38.9511
-34.8463 -16.8434 -78.1845
0.3962 -2.3562 73.9364
-23.8770 0.4141 -16.0909
-31.9031 21.2067 -76.5290
0.4405 -10.6463 39.3094
32.4796 15.3534 -66.5478
-12.1276 -28.1560 -44.4765
2.9027 -26.1411 -26.2334
8.9041 -19.9285 -7.4894
5.7412 -0.9716 59.5532
3.8420 -14.4639 21.2543
-4.6440 -0.7558 64.2352
1.3496 1.4818 75.5490
-0.2314 0.3682 82.1233
10.0366 -15.2081 7.6155
7.3810 -12.6077 22.7463
6.2092 6.9630 44.8640
-18.6507 0.3605 5.8026
-12.1154 -19.8015 -13.2977
0.2913 3.9935 67.1716
8.3713 -13.6756 16.7771
0.2127 18.4774 6.5379
-27.6042 15.3057 -48.2749
-33.2983 -21.7650 -82.6957
13.0707 -12.4173 8.4229
13.6612 -3.3244 25.0481
15.4178 23.8353 -34.9688
-2.7803 0.5894 72.0393
9.3464 -27.4031 -37.3400
-19.1322 30.0453 -65.2662
3.7051 -30.4957 -44.7411
20.9683 -25.5552 -54.5294
17.3444 -28.0597 -54.2399
-14.7789 0.7347 21.9596
-5.6349 -3.7618 55.5639
-6.8057 15.9598 11.2644
-31.0407 -13.7757 -58.3144
37.3313 11.7375 -79.9834
15.7595 -18.5524 -18.0257
21.8265 -17.4548 -33.1277
-15.5310 -30.0176 -57.6329
-3.5072 -3.5829 62.9424
0.6682 -7.1659 53.7966
-0.2677 -0.0420 82.8098
-16.7769 35.0101 -78.6821
1.6188 1.0923 75.7645
10.5445 -12.3849 15.8081
28.8321 1.8184 -37.0729
21.0998 18.5149 -33.6464
-5.8496 14.5096 18.4107
-0.8004 -0.6186 79.7073
31.3022 -19.6485 -70.8721
-6.2782 20.3947 -5.4450
17.4160 18.0264 -21.0535
3.0030 7.1648 51.4018
10.9326 -7.0879 29.3657
-0.8960 -1.2290 77.5737
1.1468 5.8050 59.1580
-36.4649 16.0094 -82.8801
10.1996 32.3492 -58.1422
-4.5815 -2.9668 61.0806
-10.1010 11.8982 18.5645
-9.0192 -17.4692 1.5889
4.7993 -2.9079 60.4382
11.5911 -0.4779 35.3484
21.4256 12.1137 -19.1588
-20.2049 -31.1165 -71.4708
0.3663 0.4265 81.5899
9.9221 18.5017 -4.0001
0.0321 0.0117 83.8019
30.0300 17.7418 -62.1649
0.5602 38.5689 -77.6373
-34.1160 11.5771 -66.9716
-5.3051 14.9996 17.2972
-15.2278 -6.3356 14.8548
12.3538 -17.5515 -5.9649
-11.1187 24.1068 -27.2623
-12.2077 6.8416 25.3236
3.5062 -4.3440 60.5599
0.6848 12.1997 32.7600
-0.1153 -4.1968 66.3578
1.5900 4.2984 64.7467
-3.9245 11.2434 34.0598
10.5938 27.0884 -37.8974
-20.2823 27.1295 -57.9491
18.0489 2.1354 7.8106
-9.5953 22.4790 -18.4394
-15.2324 -24.6820 -37.5526
16.9699 14.7509 -10.2440
-4.8215 -1.9445 62.1671
17.7710 18.0433 -22.1428
1.8239 -8.0955 49.1829
-28.2349 -17.9773 -56.2705
-14.6486 -6.5111 16.7933
-12.6390 -24.2067 -30.4472
7.0539 -31.4953 -51.2575
-8.2749 -8.6191 33.8932
-7.2851 -39.2032 -83.0887
-1.9305 -0.4395 75.6512
8.5345 -0.7876 48.0422
-8.9828 -12.5208 19.3934
-0.3035 -0.0040 82.6736
-0.6051 1.0122 79.0052
23.0511 24.4600 -56.8483
-14.6406 -14.5241 -2.4435
10.8563 0.2337 38.4574
-5.6286 -0.7769 60.1431
24.0594 18.5411 -43.2951
5.8186 35.2580 -65.7485
-31.2756 -23.3070 -79.4468
-18.7913 -22.1376 -37.6939
2.9256 4.5386 61.3251
-0.9830 -0.5970 79.1273
16.5293 -2.0268 14.1853
2.1755 8.5379 47.0370
9.6913 13.6290 13.8905
-16.0601 -14.1926 -5.8362
0.9465 -7.2931 53.1378
12.1164 5.1076 28.8639
8.5241 2.9618 46.1435
0.6374 -6.5243 56.4844
-29.0090 -1.7340 -37.7908
8.3003 22.7869 -17.6448
-22.5564 16.3359 -32.7213
-5.2683 11.3099 31.6798
8.8988 -4.4129 42.3362
17.9613 3.0555 7.6241
16.8046 -9.2017 3.6881
4.9266 -26.0460 -27.0967
-4.3548 29.6882 -41.7501
-5.6411 10.9175 32.4674
16.8964 30.7017 -62.8544
12.0472 36.6538 -77.6787
-12.8317 31.1465 -57.1664
23.4801 0.6675 -14.4531
3.5833 5.6131 56.0491
-0.7146 0.3797 80.5553
-16.9862 -2.4152 12.0739
4.1128 -9.7006 39.8078
-29.3473 -18.7183 -61.8685
-24.2350 -5.0117 -19.7235
6.4734 3.8960 52.2954
12.3565 30.9370 -55.6049
3.1589 -6.2511 54.6056
12.7495 -5.0762 26.4599
31.0194 -20.7144 -72.3050
-14.8980 4.1449 19.1668
-6.1752 4.4603 52.0350
0.8718 -4.0934 66.4130
12.8944 5.9630 24.4344
-8.1256 11.3255 25.5551
12.6718 -1.4169 30.5320
-12.8555 2.3944 29.1669
-0.2415 -2.7482 72.3883
18.1460 21.4733 -33.8234
1.4165 8.2715 48.7911
1.2322 -12.3271 32.0492
-24.9945 -23.4962 -59.7566
0.9414 -0.1024 79.9783
-11.7104 -10.3138 18.5767
12.7933 -30.4847 -54.5450
-3.5038 3.9836 61.7214
-7.2810 -12.1003 24.7879
-7.0579 14.0492 18.0838
11.4156 14.5735 6.3970
-0.8797 -1.0447 78.2239
-11.9089 7.5233 24.9378
-2.8154 25.4499 -23.3153
14.3445 4.1931 21.3412
-10.8735 11.9776 16.1796
36.7670 -14.2748 -81.2729
-21.5014 7.3638 -11.2602
-25.3272 9.2620 -29.0226
-2.5817 -26.2073 -26.3690
-18.7855 -4.0328 3.4595
1.0006 0.0669 79.7441
2.1252 0.1409 75.0230
9.9154 -13.1224 15.0473
-8.4395 -25.9799 -30.4832
0.3796 -0.0428 82.3448
31.6821 7.1022 -52.0654
-7.1181 -29.0059 -41.1661
11.5576 -21.6755 -18.9549
-3.9784 -24.5906 -20.4047
11.3567 4.1881 33.2400
-35.6825 12.1291 -73.9287
-1.0814 -8.1756 49.3991
29.0242 -5.5033 -39.8038
3.6967 20.9024 -4.9741
-25.5397 -30.3829 -82.3220
-0.1032 6.5809 56.3741
39.8579 0.7448 -83.0489
22.2806 -24.3061 -54.1787
-4.6702 20.8482 -5.5527
-7.0660 11.7092 26.6560
15.0366 11.5709 4.4658
-18.5089 20.0888 -30.4801
12.5499 14.3988 3.9335
-28.3306 -2.9239 -35.3622
5.2037 -13.4247 23.6318
9.2918 -19.9717 -8.3280
-17.5848 -25.5496 -45.9821
-6.5950 -22.9307 -16.0056
-0.1232 -7.4493 52.7354
-11.2303 -20.6184 -14.4064
-5.4987 16.9291 9.3818
-21.6284 32.6131 -79.9839
-11.6137 -7.7204 25.5263
-13.7699 3.4504 24.4795
8.7082 -6.7994 37.6639
29.3325 -6.2443 -41.6824
-7.5884 -2.4483 50.5437
8.5664 8.5737 33.1749
19.2295 23.5394 -43.3812
27.1432 25.6967 -72.6291
2.8731 2.7531 67.2762
-8.6682 -8.3498 33.5277
-13.8199 -12.7087 5.2967
20.4221 12.7066 -16.8110
27.3145 26.6631 -75.9524
-10.4006 -0.8079 40.2456
26.0665 17.5950 -47.7954
-3.3447 1.0918 69.2064
12.1956 11.6986 13.1533
-15.3812 5.9072 14.9245
3.4394 -19.7593 -0.0714
13.8743 -8.1704 16.4964
-15.6159 13.1566 -1.5922
0.2681 -0.6720 80.9143
-23.1246 14.1771 -29.6798
1.0335 1.5818 76.0298
-21.6910 3.9723 -8.4299
-6.8792 -13.1722 21.6948
32.5442 -2.2911 -52.7204
-18.6383 19.6073 -29.3776
0.4037 2.3522 73.9476
11.5617 -0.3336 35.4928
-1.1114 -4.5914 64.1562
0.7023 -1.1318 78.3651
2.3871 0.2576 73.8875
-16.5721 4.0233 12.5079
6.6502 -39.0808 -82.1182
-1.7493 5.0416 61.5906
1.9380 -2.5038 70.6818
11.8219 23.7208 -27.0783
14.2663 -14.4462 -1.1051
33.6626 1.6017 -57.2273
27.7447 -23.0376 -67.1207
7.0763 -8.4465 37.7868
0.2075 -0.3404 82.2751
1.9399 -8.7715 46.3133
-8.3758 -18.3359 -0.4986
-1.6466 -2.7964 70.3509
8.3713 -28.1173 -38.9481
-3.6943 34.7340 -62.3766
32.0973 0.0251 -50.5109
-5.8908 15.1970 15.6694
-11.3415 -9.0297 23.2165
24.7085 24.6226 -62.1774
23.2102 -17.5791 -38.0217
18.8987 -34.2971 -80.0936
-2.9033 -0.1938 71.7559
-0.4379 11.9530 33.8402
15.9211 -18.2564 -17.5274
10.5250 -14.8767 7.6070
4.3115 26.0598 -26.7036
-11.8028 -11.5840 14.6685
5.4346 -0.0342 61.1790
25.5922 0.4882 -23.2804
-15.5929 16.8840 -12.3300
-27.1278 12.4573 -41.1024
33.3810 -21.0457 -81.3596
1.7634 39.1973 -80.4187
-28.3433 -28.0150 -82.9953
-25.9425 22.0630 -58.7143
5.7112 -2.8057 57.2898
3.5596 5.0242 58.1517
3.0897 -1.4185 69.7035
26.5408 18.3339 -51.1819
-1.4809 -1.9630 73.6444
-3.9986 18.1543 6.0737
-22.4195 14.3461 -27.5520
-4.5154 4.3979 57.5408
-13.3578 -28.5065 -47.9289
-3.9460 -12.2778 29.9221
-0.5993 0.0613 81.4213
-4.0967 19.1988 1.7107
-8.8465 24.1588 -23.8280
-30.7798 -10.5391 -52.3405
4.5716 -5.8368 52.8877
-33.8759 2.0420 -83.9450
3.0882 11.3377 -83.9450
25.6757 -10.2094 -83.9450
4.0981 6.7868 -83.9450
-28.0192 -1.9614 -83.9450
-9.2273 -30.0900 -83.9450
-16.2970 -32.5779 -83.9450
-4.9347 35.5866 -83.9450
1.8836 -1.6270 -83.9450
-2.0808 -5.2246 -83.9450
-15.1151 27.8725 -83.9450
1.9182 -5.8045 -83.9450
30.6658 4.3577 -83.9450
-17.2624 34.6172 -83.9450
-14.4509 -15.6276 -83.9450
10.3434 -1.3665 -83.9450
19.0774 -15.9129 -83.9450
-26.7979 16.4714 -83.9450
0.7603 -30.7442 -83.9450
21.2656 28.0957 -83.9450
25.1893 -2.1322 -83.9450
-0.8297 26.1971 -83.9450
9.5548 -11.2947 -83.9450
-9.1143 -7.9122 -83.9450
4.9494 17.6416 -83.9450
-18.4484 -23.7323 -83.9450
-15.9592 -22.3176 -83.9450
12.4489 25.6923 -83.9450
-1.6639 -0.6102 -83.9450
8.4586 24.3271 -83.9450
-9.3331 4.1314 -83.9450
9.7995 -4.1244 -83.9450
12.3179 15.7537 -83.9450
17.4349 -17.4922 -83.9450
0.9970 3.7055 -83.9450
-34.4488 4.0917 -83.9450
0.0865 -0.9778 -83.9450
-10.2642 -18.8497 -83.9450
-0.7574 -9.9003 -83.9450
-1.8881 30.2306 -83.9450
-0.5482 0.0479 -83.9450
-0.4678 -22.8782 -83.9450
7.4896 -0.9746 -83.9450
-34.2872 0.7914 -83.9450
-17.3500 -30.1470 -83.9450
-13.2772 6.1361 -83.9450
-17.2330 -14.5752 -83.9450
15.8774 36.5566 -83.9450
8.5654 29.8457 -83.9450
-11.6674 4.3516 -83.9450
-2.0981 -4.6626 -83.9450
-0.6892 -1.9708 -83.9450
-6.2500 -4.2202 -83.9450
19.9498 -11.6084 -83.9450
39.3385 -6.4045 -83.9450
-24.6404 1.9501 -83.9450
24.6123 19.9183 -83.9450
-17.9879 -19.0662 -83.9450
2.5836 -0.2521 -83.9450
17.2870 -22.9399 -83.9450
4.4010 -19.6055 -83.9450
0.9381 -15.3967 -83.9450
-13.8506 -27.2117 -83.9450
25.4664 1.0981 -83.9450
1.9888 15.4280 -83.9450
-5.2647 1.5758 -83.9450
19.9359 -12.2534 -83.9450
-3.6805 -1.0758 -83.9450
-30.1174 -23.7132 -83.9450
1.1291 5.7335 -83.9450
0.0009 1.0222 -83.9450
0.5295 -0.3683 -83.9450
-29.4721 9.1514 -83.9450
-4.1003 -28.1595 -83.9450
-25.6812 -23.2248 -83.9450
-34.3282 -19.4498 -83.9450
-2.6932 5.7997 -83.9450
12.6281 0.3687 -83.9450
29.7057 -15.0799 -83.9450
-4.1633 -19.6916 -83.9450
-6.8726 10.6735 -83.9450
24.5912 -18.0006 -83.9450
-0.9979 1.5990 -83.9450
4.3212 -4.0255 -83.9450
26.9148 -13.5002 -83.9450
24.1184 -3.9851 -83.9450
1.5415 1.6348 -83.9450
-12.6011 -35.8882 -83.9450
-14.3782 32.0089 -83.9450
-8.5848 -18.1431 -83.9450
-22.8363 2.7202 -83.9450
-6.5498 -11.6429 -83.9450
-23.0469 -32.0383 -83.9450
-24.8254 1.0081 -83.9450
18.1507 -9.8863 -83.9450
20.3762 24.9329 -83.9450
25.0345 24.9473 -83.9450
-11.5399 27.7422 -83.9450
-27.8103 -25.7700 -83.9450
-5.6375 -36.7992 -83.9450
20.6806 15.0893 -83.9450
23.2449 -3.7069 -83.9450
-12.0586 -23.6769 -83.9450
0.1591 -0.8120 -83.9450
-2.5107 3.1182 -83.9450
-17.4622 -7.3226 -83.9450
-18.7815 22.8967 -83.9450
24.5993 -14.4042 -83.9450
-4.5887 -17.7078 -83.9450
13.5882 26.3711 -83.9450
-2.4469 8.7914 -83.9450
19.8003 34.7815 -83.9450
-22.1450 6.1992 -83.9450
-6.6874 0.7795 -83.9450
22.5919 19.9958 -83.9450
5.9805 -21.0088 -83.9450
2.5165 -0.2794 -83.9450
-5.8218 -21.5728 -83.9450
-23.2908 25.9845 -83.9450
30.8920 4.4715 -83.9450
2.9633 0.6711 -83.9450
24.1896 24.8698 -83.9450
-6.4871 26.5714 -83.9450
1.8834 -4.0049 -83.9450
-1.9899 -8.8593 -83.9450
-4.4933 35.2565 -83.9450
3.3873 -7.8558 -83.9450
6.6865 3.3673 -83.9450
1.1075 22.5445 -83.9450
31.5365 10.0103 -83.9450
-9.7795 0.5333 -83.9450
13.9383 7.2177 -83.9450
0.7737 9.3172 -83.9450
-20.4469 -14.9710 -83.9450
7.7170 -5.5224 -83.9450
4.9349 4.9388 -83.9450
-23.5730 26.3383 -83.9450
-0.8242 36.3576 -83.9450
23.7647 16.3526 -83.9450
-1.4544 -1.4197 -83.9450
15.0683 -19.8013 -83.9450
-2.3314 3.6649 -83.9450
8.6404 30.7605 -83.9450
-19.2299 -19.2739 -83.9450
1.8332 -0.5380 -83.9450
-10.1908 2.8075 -83.9450
-4.5661 3.6258 -83.9450
10.8397 0.1726 -83.9450
2.2076 -10.4314 -83.9450
10.1705 -1.5324 -83.9450
0.0335 -0.0412 -83.9450
-32.4223 4.8753 -83.9450
16.8462 8.8647 -83.9450
36.4268 -7.3777 -83.9450
-8.0457 20.4641 -83.9450
-5.0871 0.4311 -83.9450
26.2467 -25.3393 -83.9450
-17.4691 -22.7455 -83.9450
-0.5575 2.0783 -83.9450
32.4391 18.5091 -83.9450
17.5452 -29.3028 -83.9450
-32.3142 10.7646 -83.9450
3.1636 14.8192 -83.9450
-10.0901 -13.6655 -83.9450
-10.4899 -9.7484 -83.9450
-9.8157 3.8529 -83.9450
-22.6032 19.8551 -83.9450
-5.0624 -0.1476 -83.9450
-3.1786 -26.7019 -83.9450
-0.6208 4.7623 -83.9450
2.9326 26.5067 -83.9450
-2.7998 3.2849 -83.9450
-25.6073 16.5612 -83.9450
2.3470 -0.8060 -83.9450
-32.6935 7.0171 -83.9450
-3.0886 -11.6786 -83.9450
24.7164 3.6985 -83.9450
-11.5731 -8.2702 -83.9450
-8.3728 7.0031 -83.9450
10.0016 -32.4126 -83.9450
1.2383 3.6522 -83.9450
6.6883 -0.7427 -83.9450
-2.6635 11.3003 -83.9450
-5.3297 5.4114 -83.9450
14.5553 22.8024 -83.9450
30.5149 -7.5041 -83.9450
39.5675 -2.4069 -83.9450
-1.7100 10.6334 -83.9450
14.8379 -10.1969 -83.9450
-4.7601 12.3569 -83.9450
17.8751 -23.9998 -83.9450
-11.1352 9.7927 -83.9450
-11.8057 -17.9923 -83.9450
-21.2469 0.0376 -83.9450
23.2754 -23.2412 -83.9450
11.5753 23.9819 -83.9450
-15.0011 -35.6325 -83.9450
-3.7354 -15.9494 -83.9450
0.5359 3.7662 -83.9450
1.7650 6.7615 -83.9450
4.4975 14.8091 -83.9450
18.9102 -3.2060 -83.9450
-31.9683 4.5927 -83.9450
5.3921 -28.0217 -83.9450
2.2282 -1.5314 -83.9450
26.1844 -20.9723 -83.9450
13.7530 1.1759 -83.9450
14.3379 31.8648 -83.9450
9.7611 12.1832 -83.9450
-6.6275 -2.7274 -83.9450
-0.8141 17.3868 -83.9450
-6.7850 -9.1168 -83.9450
-23.1241 3.5313 -83.9450
9.7767 -6.5879 -83.9450
-25.5202 26.8409 -83.9450
-16.1337 3.9842 -83.9450
-4.0892 -8.8486 -83.9450
-30.4813 11.6749 -83.9450
-17.1286 -0.9089 -83.9450
36.2274 -4.5522 -83.9450
12.3889 2.5748 -83.9450
-0.3488 -0.3832 -83.9450
-13.0671 32.1148 -83.9450
-23.4513 5.4946 -83.9450
-15.2683 3.4891 -83.9450
-10.1666 36.4768 -83.9450
17.7136 -3.8570 -83.9450
12.7700 -26.2730 -83.9450
-12.2150 -3.9142 -83.9450
18.0818 -6.5185 -83.9450
11.2750 16.8764 -83.9450
16.5565 -33.7090 -83.9450
1.6839 -1.8736 -83.9450
-22.8128 -9.0481 -83.9450
-34.5763 14.3606 -83.9450
9.2761 0.0668 -83.9450
-0.9009 -28.3841 -83.9450
-16.9743 -5.6023 -83.9450
8.9426 16.1599 -83.9450
-2.2134 -6.1186 -83.9450
-30.0906 -9.1541 -83.9450
-25.0765 26.1410 -83.9450
27.9205 -23.1721 -83.9450
19.9411 21.3006 -83.9450
-1.3884 -0.9213 -83.9450
-13.1798 20.5442 -83.9450
-13.1198 4.5715 -83.9450
-0.9856 2.3040 -83.9450
-1.4174 20.3636 -83.9450
-8.6430 2.8793 -83.9450
-25.0433 -2.8414 -83.9450
1.5988 6.8959 -83.9450
15.9678 0.1592 -83.9450
19.9205 11.9756 -83.9450
-21.7997 2.5099 -83.9450
-33.7587 -17.5377 -83.9450
