ply
format ascii 1.0
element vertex 1024
property float x
property float y
property float z
end_header
22.2331 -14.7219 -3.4141
41.5834 16.1654 -32.9230
10.2984 -18.7192 5.2995
-1.4948 4.9746 31.8838
-24.7363 -15.0967 -7.2181
38.3162 26.1854 -35.8725
15.3763 14.6364 5.5238
31.7655 19.3192 -20.6984
32.8180 14.9876 -18.8889
-25.2499 6.8230 -2.5760
6.6277 -2.2503 28.9165
-28.6251 -7.7292 -8.3213
-16.4825 -20.7245 -3.1090
16.6298 -35.4182 -23.9024
10.1693 4.9883 21.8021
11.4501 -38.8205 -26.1151
-23.2606 24.7530 -15.4181
21.5784 -11.5019 0.2239
29.1488 -1.1946 -7.5370
14.1620 -14.3001 7.3365
38.3329 -9.3605 -24.4471
-35.8120 10.0992 -20.7473
-6.0149 2.2764 29.8504
26.4301 -1.8334 -3.1318
-17.2133 -25.7671 -10.5200
3.8054 -20.1330 6.7390
-7.9340 0.3705 27.3656
-10.0288 15.1161 10.6008
-0.5223 -17.8601 11.0490
9.6499 6.3921 21.3943
46.3825 -10.7605 -37.8538
13.7297 16.4643 5.1800
32.4196 -21.7552 -23.7620
3.5331 -44.3580 -32.7315
-3.4130 -0.1911 34.8036
-28.2849 -37.3892 -36.6511
0.0523 1.5055 37.9467
23.1040 13.9395 -3.9369
21.2517 23.6412 -11.8374
-6.4364 -5.8963 26.0732
27.9499 36.0543 -34.5738
-11.3754 31.2040 -14.1780
-4.9530 -7.9716 24.9945
9.2060 -18.0722 7.0802
37.1251 14.1201 -24.8751
0.5420 -34.0044 -15.4864
9.2851 31.5542 -13.6505
4.1271 -1.8505 32.9875
28.8438 -21.0365 -18.2671
-20.3191 -26.8469 -14.9285
-22.9539 -20.5000 -10.1712
37.7882 -22.6675 -32.0196
1.3782 -1.5969 36.9554
35.6529 14.7500 -23.0075
-11.1466 7.8539 18.0064
0.4649 0.5754 39.2072
18.1961 34.2883 -23.3918
-0.9076 2.7145 35.7178
-0.0052 -0.4082 39.7522
-4.1390 2.8080 32.2007
-7.5350 -40.0587 -26.5874
-30.8509 25.9527 -25.8543
10.4074 -12.7435 13.3744
-21.4839 34.1336 -25.8816
-21.4526 -21.9391 -10.0216
43.6374 18.9813 -37.8088
-30.0027 -2.9091 -9.1320
-14.7647 -20.7630 -1.4611
31.4204 13.9670 -16.1048
-15.4777 -41.4013 -32.2405
-3.9626 2.9467 32.3050
-14.3387 -1.7960 16.6665
0.8982 0.0477 38.9445
1.9443 30.4704 -9.7714
-7.2116 -7.4501 23.3773
23.6781 19.2704 -9.7655
3.3639 30.1884 -9.5131
2.8830 3.9800 32.3440
1.9397 4.2663 32.7187
-3.2691 -12.4312 19.2917
19.2438 7.1255 6.6876
0.5621 -11.7799 21.0352
0.0187 -0.0213 40.3766
40.2318 17.6133 -31.7779
-23.8749 -6.0910 -0.0839
-25.8914 -8.2034 -4.2272
7.9959 -5.9355 24.0523
5.8269 -9.7187 21.7943
24.6021 -3.0396 -0.3296
2.8745 6.4136 28.8689
-13.4607 11.0616 11.7807
23.3242 -20.1812 -10.2824
2.0047 0.0086 37.1275
-27.7697 -12.4943 -9.6377
2.0729 -19.5920 8.0346
25.4657 -10.7594 -5.0253
14.9683 37.0957 -25.3390
9.0668 -6.0174 22.5336
34.4981 24.3253 -28.9723
-0.5399 -1.1168 38.3840
8.9291 7.3974 21.3608
38.0070 11.5918 -24.9011
-19.9465 -17.4059 -3.0982
-22.0451 23.5043 -12.5537
11.4396 25.7045 -5.8305
-27.9476 -25.0181 -21.2419
-1.6742 0.6847 37.4497
-3.0691 11.0014 21.6465
0.0118 7.5439 28.0212
-42.4269 -22.5231 -38.5450
-30.5527 -8.3524 -11.6480
-3.5733 -24.5528 -0.3663
21.1095 13.9055 -1.1333
3.3703 -5.4923 29.8295
-41.1371 -4.6133 -27.6293
19.2676 37.3092 -28.6086
-29.7218 -8.0660 -10.2062
4.2704 -9.6149 23.1276
-9.2089 -44.1630 -33.7416
36.0080 -32.5826 -39.4108
-43.9867 7.8005 -33.0183
-6.7040 -9.5086 21.2967
5.1281 -12.7016 17.9045
8.8495 -0.1392 25.8730
-32.7664 4.2944 -13.9048
-9.1012 17.8763 7.4453
47.9467 -0.7763 -38.4106
-3.4615 -29.1286 -7.8007
-4.3835 26.3634 -3.5128
12.9545 18.5711 3.1986
-1.0327 2.3923 36.1396
-37.8848 -26.4751 -35.5598
24.6464 29.1999 -22.3949
13.0135 -0.8549 18.9831
2.0499 -5.1177 31.3599
-3.8635 0.6961 33.9695
0.2416 -35.7189 -18.2993
31.1161 25.2523 -25.4570
28.7278 21.1102 -18.1848
-37.9904 11.4598 -24.8120
6.2079 17.8481 9.3571
-14.6126 14.9559 6.0485
5.9836 2.9092 29.4853
-0.9867 -5.9033 30.5837
-21.9572 23.8804 -12.9085
2.5532 -12.5096 19.4338
-7.4995 -31.6123 -12.9893
-6.0324 13.8252 15.6254
-6.6649 -46.2946 -36.4690
-1.1087 13.3472 18.4051
30.6411 -13.0435 -14.3243
1.2380 -5.3166 31.4491
-29.2041 39.0141 -39.6942
6.3739 2.1765 29.3506
32.4898 28.4024 -30.5214
0.9473 6.2032 30.1072
11.6290 -1.6030 21.1246
-17.3284 -21.6326 -5.1434
-8.1237 1.3618 26.8818
13.2849 -2.6321 18.1586
11.1602 22.2376 -0.4807
-1.3293 0.7975 37.8748
18.3368 -3.6749 9.6785
-3.1285 -37.5924 -21.5916
-7.2997 8.0503 22.5580
-16.3712 -43.3086 -35.6925
48.8393 2.4362 -39.9675
4.6569 -3.5543 30.7923
12.0975 -26.2846 -7.1452
28.5712 35.3681 -34.3232
21.5413 15.2095 -2.9280
4.0598 48.9906 -40.3925
-16.6572 13.7826 4.8804
-6.1351 9.0893 22.3951
0.3967 -3.8539 34.0540
-24.6900 29.3676 -22.6519
4.2919 -13.6367 16.9206
-6.7997 11.2217 18.8524
4.0090 3.0074 32.1842
-13.2748 21.6427 -1.3166
23.2426 9.3619 -0.7704
-32.5301 -6.5843 -14.1401
9.4790 18.5206 6.2195
-8.7097 7.7521 21.2545
2.5049 0.4963 36.2252
-11.8892 11.0990 13.6843
11.0090 -35.6906 -20.9794
-26.9750 -37.9431 -36.1116
31.3379 6.1978 -12.0935
-16.0045 8.3604 10.7385
33.2188 1.2556 -14.2268
-32.5210 -2.9074 -13.2540
7.3116 -5.6809 25.2013
14.0172 28.6629 -12.0309
7.9653 -43.6263 -32.4832
10.5418 -15.5875 9.4875
6.8617 -23.6151 -0.0052
-9.3694 0.7840 24.9663
-18.6214 -6.6354 7.9246
-4.8276 -2.5344 31.4596
18.8186 -16.2484 -0.4504
11.5282 -10.1283 15.1957
-8.4000 36.7896 -21.6146
5.9069 -14.5820 14.5586
37.7929 8.8978 -23.4063
-13.3383 -0.7809 18.4579
25.1250 19.9078 -12.2763
-40.0725 9.8367 -27.4111
-6.0773 -12.7608 17.1871
20.2693 -25.6750 -13.3541
-32.9667 19.5892 -22.6196
-2.0139 -1.5725 36.2228
0.5213 15.4033 15.0861
-29.9302 23.8483 -22.4913
8.9068 -26.7164 -5.8745
0.3004 -31.1434 -10.7784
-28.7949 23.0831 -20.2478
6.7567 -45.2438 -34.7817
17.5975 -5.0864 10.3090
-43.3968 11.7716 -33.4984
-10.1141 2.8077 23.1671
-7.4485 -19.7096 5.7844
-46.8169 3.4182 -36.7478
40.2954 -14.5343 -29.9992
2.9491 -45.1827 -34.0143
-18.2143 -32.5790 -20.9383
-0.9137 -2.4121 36.1829
-2.6674 1.6053 35.3053
-40.5368 10.4857 -28.4120
-43.7678 -20.5388 -39.0588
25.6731 -8.2150 -3.8910
0.1665 -3.6595 34.4009
-14.6108 15.8060 5.0373
22.2214 -18.0749 -6.6675
37.2634 -15.8690 -26.1608
8.3186 13.0675 14.9570
25.8253 -23.4864 -16.9646
13.6093 -9.2630 13.3591
4.7874 -10.3552 21.6682
-14.4239 0.2578 16.7068
-23.4240 -1.9053 1.7875
-18.6540 38.3191 -29.6407
-0.3862 0.6570 39.1704
-27.8023 19.8220 -15.7105
-24.4745 -36.8418 -32.2906
16.9094 -13.6319 4.7159
-3.4778 -0.8402 34.5413
-17.7943 5.9591 9.5730
-47.7206 6.2969 -38.7086
24.1489 5.8470 -0.4243
-17.4265 -1.7411 11.6318
-21.0654 -3.7831 5.2380
-0.5464 0.9728 38.5889
-28.1531 -6.3941 -7.0386
7.5772 13.6146 14.8081
-20.7956 25.0286 -13.0727
21.3816 -14.5478 -2.0924
33.9687 11.5885 -18.5809
-14.0812 4.0649 16.3287
-23.6974 -22.2059 -12.9661
12.2530 14.4859 9.2319
-18.0544 -12.1599 4.6379
19.4152 -40.5193 -33.4420
-4.9030 -31.1733 -11.4550
-14.2277 16.7263 4.3231
-18.6032 20.4173 -4.9860
2.3075 -30.6343 -10.0817
20.0607 -22.3671 -8.9706
1.8412 11.7557 20.8614
-4.4765 0.0981 33.0622
-0.3539 0.4329 39.5041
-43.2503 -2.5243 -30.8005
-8.0336 -1.7198 26.9169
11.8223 -24.6491 -4.5193
10.0533 -3.4124 22.9696
5.5895 5.0779 28.0085
3.2886 -38.5508 -23.1837
-27.7260 -14.0245 -10.6571
14.4060 -18.6219 1.7177
-2.9042 -3.4991 32.9475
-4.5319 -11.2623 20.4654
-6.1429 0.1687 30.3206
-13.8396 0.4568 17.6587
-0.0774 9.8160 24.2854
11.9969 -34.5764 -19.7441
27.6253 -2.9637 -5.2528
-9.7817 -6.9368 20.7091
-43.3107 -15.1949 -35.0336
-8.1299 -4.0493 25.4918
-11.1762 -8.0215 17.8071
-41.6813 -8.2969 -29.4444
3.5561 -4.3254 31.2177
-2.6370 19.3214 8.3647
-2.7638 17.9219 10.6116
-4.5385 2.3543 32.0179
-8.3882 -7.3726 22.0639
-1.5860 -19.8373 7.7070
-26.1387 18.4787 -12.2020
-9.0733 -30.9793 -12.6457
-19.8436 34.3992 -24.8632
-18.8753 -16.6756 -0.9827
-23.0884 -34.2631 -27.5000
-28.3527 24.8699 -21.5788
2.8023 22.1359 3.7418
15.6342 25.4872 -8.7323
-2.9345 22.5260 3.0780
11.0789 34.6941 -19.4506
-5.0933 34.5020 -16.9121
0.7270 26.1892 -2.6479
-4.1987 18.0481 9.9601
1.5676 0.7464 37.5689
-22.7271 26.5472 -17.0286
-7.9584 -23.6886 -0.6595
-22.8311 -33.1412 -25.7375
-14.8666 -7.6887 12.9077
3.7585 -20.5758 6.0373
-16.1053 4.6818 12.8504
2.3547 -7.2305 27.9219
-18.5226 1.3402 9.8929
-17.4805 36.1283 -25.5581
22.3489 5.5437 2.5685
-7.6558 -43.0392 -31.4431
-1.6892 -0.6493 37.4481
-43.3184 -13.1381 -33.9948
-9.7887 20.2939 3.3822
6.4360 -45.3078 -34.8097
0.1410 -0.0604 40.1710
13.4224 -33.7457 -19.2814
23.3408 14.8146 -5.0252
-16.0563 37.8474 -27.1648
35.4233 27.0523 -32.8519
-0.3716 7.5546 27.9886
19.1960 -23.0186 -8.8507
-3.6653 -41.3640 -27.8449
20.9077 4.0576 5.4101
-18.4691 -42.7315 -36.1074
-3.5457 -5.5740 29.5628
13.2337 -1.5388 18.5206
0.2233 46.7421 -36.4208
-12.0182 25.4938 -5.9117
-23.2709 11.8373 -2.4988
-2.4311 -3.0320 34.0342
30.8311 14.4649 -15.5637
-0.4606 33.7388 -15.0479
17.2659 27.5616 -13.0442
11.5797 2.4552 20.9632
-5.9689 0.8533 30.5107
-3.9271 -0.9839 33.7675
-2.0995 17.3490 11.6938
2.5487 4.4965 31.9262
-0.1361 0.0385 40.1908
2.8441 13.7103 17.4040
3.6424 16.6834 12.3500
-21.0657 38.1575 -31.2317
10.2762 -6.1312 20.7509
3.4707 -5.9482 29.1016
-26.8607 13.3287 -8.8730
-10.6069 -10.2714 16.1496
3.2045 -15.6071 14.2302
14.4591 33.6681 -19.8148
36.6017 13.5236 -23.7251
3.8291 -33.8160 -15.5250
4.8676 -10.4175 21.5197
28.9361 4.2794 -7.6646
-25.9335 -15.6539 -9.3758
13.3358 -11.2857 11.7024
29.7230 0.1519 -8.4416
-36.0722 -16.5415 -24.8167
40.9272 -2.7790 -27.0152
-10.2707 2.0992 23.1894
2.6294 18.1969 10.1972
-19.4985 6.4985 6.6347
-2.4178 28.5804 -6.7303
-6.1920 -20.4536 5.2908
27.4412 -13.8705 -10.1251
5.8879 14.8848 14.1079
-47.0319 -3.8371 -37.1532
-33.2672 16.4218 -20.5679
0.1017 -9.6554 24.5491
1.6848 6.8268 28.8633
3.3666 21.7850 4.1840
14.1806 -16.8198 4.2559
12.3578 26.6273 -7.8362
-26.5969 -38.7372 -36.8258
-11.8061 -4.1835 19.8317
16.1333 19.2805 -0.9066
6.8836 3.5713 27.6744
3.7535 0.6077 34.1722
7.3427 -31.0484 -12.0277
14.7681 -38.9752 -28.0968
-6.8183 -0.2804 29.2046
10.3838 -6.7505 20.0622
-29.9109 -32.1616 -31.7817
0.5227 6.6667 29.4297
1.9487 -3.3547 34.0453
-5.1058 14.3611 15.3662
-17.7286 -37.3918 -27.6077
1.1878 -0.6419 38.2037
19.0241 -33.5428 -22.9721
3.2543 -3.6355 32.4018
4.6745 -42.2212 -29.4117
-1.3782 -15.2868 15.1901
-26.1178 8.0493 -4.5069
34.1022 -10.0814 -18.0386
-37.9868 23.0400 -32.6154
-20.6158 -1.3578 6.4578
17.4790 22.8183 -6.8305
-25.9396 -41.6180 -40.1976
17.6321 -0.4033 11.4288
-15.8007 -11.6762 8.1243
3.1479 -18.5671 9.4637
-28.1294 18.1642 -14.6243
-10.8881 -11.1438 14.8101
26.0707 -8.6485 -4.7332
-31.5251 9.4394 -13.6768
13.6684 4.1444 16.9425
-13.5596 -45.5797 -37.7544
0.1964 1.4337 38.0443
-40.9847 7.0019 -27.9311
-7.8187 -0.6923 27.5191
3.5810 -4.3673 31.1386
33.7542 4.6335 -15.5884
-2.0736 10.4693 22.8775
7.3999 -4.3751 26.2907
16.0876 -21.1009 -3.1984
-3.6357 47.5880 -38.0385
3.7308 6.1755 28.5620
1.7436 34.9353 -17.0813
-35.0864 12.0494 -20.5649
-8.3261 11.9415 16.4908
30.8125 -15.2437 -16.0919
-45.1944 -10.9074 -36.0087
45.3592 5.9384 -34.7828
-1.2711 43.0508 -30.3823
-20.1532 -33.5161 -23.8705
13.4755 -7.4391 15.1183
-8.9302 4.2868 24.1382
4.3135 -0.5261 33.2795
-2.0154 11.8754 20.6211
14.6033 9.2817 11.9768
-35.7929 -21.6789 -28.3712
-26.7716 -16.6315 -11.3902
7.4491 -19.0847 6.7431
-1.3450 -41.0925 -27.1682
6.8891 -26.3646 -4.3749
0.0933 1.4848 37.9774
-26.9783 -4.9417 -4.6665
-0.6832 -0.1494 39.2736
-21.5819 -16.9606 -4.7022
-4.0532 -33.8491 -15.6216
5.4357 37.0664 -21.1650
2.5229 0.6763 36.1292
41.2096 17.3554 -33.0876
-14.0009 22.3670 -2.9576
-23.6739 22.4578 -13.2220
-13.0135 -12.9579 10.2321
43.7913 11.3120 -33.9321
-36.6013 -7.6156 -21.0373
19.2792 13.2183 1.9944
-25.7327 -5.9002 -2.9787
1.9770 18.1188 10.4595
26.2286 -5.4754 -3.6256
25.1919 -15.0625 -7.8301
-3.8002 -0.2162 34.1657
-46.8335 9.9973 -38.3048
-27.1062 -1.5639 -4.2129
36.9126 -16.0167 -25.7269
-3.0692 15.3862 14.6303
-23.9248 25.9454 -17.5970
-10.5231 3.9927 21.9201
7.5296 -26.6541 -5.1105
-37.8784 12.5354 -25.1695
35.5206 -30.3402 -36.3745
-21.1246 -43.5905 -39.2104
4.6107 -4.2662 30.0963
-7.1745 -7.9769 22.7855
7.0608 6.5624 24.5760
17.6033 -3.0117 11.0632
11.2209 -16.2661 7.9366
-0.6454 -0.3332 39.2291
5.7727 35.3539 -18.4677
5.4537 21.7616 3.5412
9.6925 -9.0503 18.6225
30.1143 -8.7454 -11.1294
12.6188 12.2100 11.5566
25.8012 -30.4537 -25.1947
18.2361 12.2239 4.3312
22.4459 18.1883 -7.0714
-17.6207 -13.4668 3.9638
-7.2814 -27.1687 -5.8179
-2.5127 40.6472 -26.5275
39.5656 10.6943 -26.9561
-16.3629 36.1165 -24.7611
12.9930 -26.2206 -7.6850
-11.5022 10.9571 14.3072
-0.7348 0.3193 39.1062
-0.2714 15.7142 14.5855
-7.9867 21.9766 1.9822
11.3239 -2.7071 21.2824
18.4498 43.2391 -36.8616
-33.7521 11.7607 -18.3366
-23.8115 -34.8790 -29.0052
-4.5201 39.2101 -24.4643
22.4837 10.9291 -0.6751
36.4415 12.0784 -22.6908
-39.3166 10.6829 -26.5560
0.9694 -1.9950 36.7769
-6.3978 13.0446 16.5377
-5.8556 -40.5693 -26.9632
4.2878 -0.1765 33.3682
-2.8189 5.4357 30.3568
-3.3702 -2.6568 33.3681
-12.0348 7.2139 17.3561
26.3263 8.6906 -5.1539
-45.4276 1.2383 -34.2867
24.4051 -15.5590 -7.1584
1.0045 -28.7581 -6.8834
31.3852 -22.5425 -23.1033
0.5383 -0.4292 39.2915
3.4591 34.0035 -15.7664
-26.4953 -19.0722 -13.2460
-1.0228 -2.4107 36.1181
-21.1678 -18.0709 -5.3325
-10.8017 -32.0205 -15.1324
-38.2907 29.9629 -39.5079
-25.4734 -18.5406 -11.3727
3.7253 -24.7746 -0.7636
7.9611 1.7683 27.0164
4.7426 7.0836 26.4089
-18.8543 17.0298 -1.3449
0.0380 -17.9309 10.9450
-26.0679 -20.1610 -13.7533
-42.3762 -22.3633 -38.3484
-31.4532 -34.2991 -36.0834
29.2828 -17.2571 -15.4550
17.4330 -10.9205 6.6049
-4.5197 0.1722 32.9875
-13.3357 30.1857 -13.8287
0.9134 -0.4273 38.7655
-12.8716 -32.5427 -17.1092
-14.9211 35.9384 -23.5488
-3.6658 -22.0485 3.6783
-2.6016 -19.5129 8.0605
18.8056 30.2378 -18.1168
3.1293 -0.7317 35.1399
-10.5962 2.1182 22.6587
-14.0346 -22.4145 -3.0531
6.1305 -19.3453 7.0612
-17.9497 4.3010 10.0790
-43.4068 -18.5950 -37.2090
-21.3696 -27.2978 -16.5694
-12.0968 -9.1109 15.5268
-21.0413 26.8789 -15.6943
-0.0612 0.4318 39.7062
2.6565 23.7885 1.0723
-3.0101 25.1535 -1.2237
0.2205 -22.3341 3.7046
-16.1592 -32.9838 -19.9592
-12.4352 14.3606 9.1936
26.1784 4.1670 -3.1553
-15.2922 33.4301 -20.0124
6.9489 5.0208 26.3294
5.1271 9.1283 23.2114
20.7508 2.1336 6.1294
-25.7640 4.6749 -2.6240
-7.6595 13.8522 14.4010
-28.7469 -3.6296 -7.2113
29.5259 -13.1650 -12.7234
-35.0272 26.3092 -31.5951
-3.4382 45.2459 -34.1747
-13.1847 18.1926 3.4863
4.3719 -1.6413 32.7461
36.6485 -12.4358 -23.2004
-2.0306 2.6082 34.9891
-23.4882 -2.1076 1.6539
24.6066 -14.7688 -6.7565
-9.1346 23.1151 -0.4372
9.2833 13.1511 13.9592
-7.3788 12.1707 17.0248
5.8457 0.0397 30.8129
33.7656 31.8617 -35.8987
-40.3661 -10.7928 -28.2690
27.4467 15.7319 -11.5852
1.0469 3.0218 35.1657
20.9394 -12.1528 0.6216
24.0567 -6.0831 -0.3704
0.8087 -9.6404 24.5189
-6.0900 -12.5323 17.5167
-30.9322 10.2324 -13.1389
30.1185 -2.6526 -9.2827
-35.9309 9.8441 -20.8234
36.9050 -0.9973 -20.2701
34.5229 22.6683 -27.4730
27.3778 6.0680 -5.6776
-8.9234 -4.0546 24.3100
1.6384 -14.7912 15.9580
-7.0843 -5.7739 25.3985
4.7486 22.6269 2.4147
-0.9502 -10.0725 23.7907
-0.1839 0.0665 40.1018
13.3448 -43.9735 -35.1239
-38.8571 24.5355 -35.1260
27.9305 -16.9317 -13.2722
-9.8712 -7.1956 20.3413
32.7852 -6.6245 -14.5642
40.6883 24.2795 -37.4716
-1.3407 0.6096 38.0020
-30.1955 4.5735 -9.7837
28.3358 -28.9986 -26.2307
3.2484 -38.5631 -23.1983
-5.8372 -39.4200 -25.0892
3.4443 28.3203 -6.4779
12.5640 -36.1014 -22.4183
-18.3356 -21.2873 -5.7648
19.0036 -10.2040 4.9629
0.1997 16.2202 13.7555
17.8728 -3.8856 10.3543
-1.5741 -5.7561 30.6129
17.4813 -16.0628 1.3943
33.4938 -5.6338 -15.4135
-10.5858 2.4671 22.5541
16.1834 24.2753 -7.5403
24.9224 -2.3051 -0.7237
33.2569 10.6798 -17.0004
21.3736 -31.6128 -22.3114
22.5665 16.0970 -5.1468
-10.0869 -14.9417 10.7860
3.4216 4.6950 30.8725
12.8901 20.7211 0.3047
-21.0879 20.7540 -8.2183
-26.0358 -9.9470 -5.3965
-30.5121 20.3300 -19.8528
6.9538 -11.9315 17.7199
-8.9715 -7.6352 21.0560
6.4328 15.4518 12.9073
26.1772 29.3855 -24.2744
0.3770 -0.0451 39.7990
-15.4268 -12.5182 7.7625
-10.0934 0.6811 23.7921
18.3187 -24.0040 -9.2176
12.2250 3.7365 19.4078
5.8204 -4.9064 27.9084
19.1874 16.3238 -0.9915
-15.7232 43.5340 -35.6707
-5.8266 23.8264 0.0989
2.8173 5.3219 30.5238
-6.1107 -4.6177 27.8316
-33.8255 -18.0522 -22.6089
29.2040 -15.2679 -13.7529
32.1976 12.4173 -16.3091
13.5604 11.8396 10.8288
5.2957 -1.0650 31.5429
-6.0713 -15.9985 12.2918
1.1215 0.3748 38.4793
-25.6092 23.5412 -16.7632
-2.8959 6.4918 28.7371
-37.3423 -17.8009 -27.5851
-8.2016 8.0133 21.5726
41.9529 1.1682 -28.5732
0.6014 5.0456 32.0697
-24.2553 20.9300 -12.2454
6.3506 -6.1005 25.9464
24.5271 -14.6336 -6.5302
16.8102 0.7469 12.7603
22.9746 5.5411 1.5704
-2.8077 -9.7150 23.7984
-17.2580 13.4911 4.4111
-1.0249 -8.7809 25.8896
4.6902 -32.2953 -13.2266
15.6295 6.2935 12.7237
29.1426 30.0521 -28.3970
-10.2882 -4.6140 21.8865
-1.4232 -43.1234 -30.5094
1.8439 -5.8418 30.3524
-6.8485 -10.5088 19.8022
-23.3352 -0.0551 2.0605
6.2732 -31.7187 -12.7317
-15.6644 8.7466 10.9288
8.6449 -19.6359 5.1522
-1.5807 -23.3732 1.9104
12.3132 33.2191 -17.8193
-14.0058 0.0914 17.3975
-21.7630 43.7821 -39.9555
24.7797 -12.0437 -4.8708
34.4484 -11.7460 -19.4109
-10.1279 -24.7279 -3.5066
-25.7348 0.7557 -1.9025
1.9175 -18.4663 9.9018
27.0555 16.0541 -11.2965
20.7460 9.9593 2.5908
13.5665 -11.7675 10.8991
-11.8232 2.6002 20.5216
-26.1431 36.0048 -32.7258
6.9571 1.3748 28.7647
36.0508 5.7753 -19.5993
33.7244 9.8615 -17.3408
-9.6764 -5.8084 21.8696
31.1947 -1.3369 -10.9073
-5.4539 15.0562 14.0972
8.8667 13.6127 13.7155
-12.6171 -1.0471 19.6096
-2.3057 29.4383 -8.1210
19.0243 25.9584 -12.4854
-11.1283 -45.4902 -36.5670
-29.0171 14.1713 -12.6654
11.1899 -0.7302 21.9881
-5.8356 -28.2008 -6.9205
11.6235 28.9870 -10.9193
0.9982 -1.3282 37.6918
-26.3068 -0.5408 -2.8337
-21.4768 18.4382 -6.1110
-15.0739 -3.6013 14.9447
-16.7115 1.1982 12.8794
-0.7455 -44.4344 -32.6364
34.9965 1.0442 -17.1360
-5.4679 9.5139 22.3833
-16.6037 -3.3564 12.5750
-15.1910 -12.3650 8.2222
-7.5877 12.6388 16.1884
5.5765 -48.6553 -40.0889
-0.3603 1.5428 37.8187
27.3924 -15.1837 -11.0648
-19.5896 14.0293 0.8113
12.4639 24.6478 -4.9835
31.2530 26.6247 -27.0727
6.4914 -8.0457 23.4279
-4.6525 -1.8268 32.2061
-34.8159 23.7092 -28.8248
-13.0993 -1.8475 18.6750
8.0169 -5.0965 24.8059
-6.1730 -8.9507 22.5483
20.2360 -1.1883 7.0983
-36.0541 -5.2063 -19.4638
-41.4746 -13.5306 -31.2970
-18.2893 0.0000 10.3559
-1.9387 0.2444 37.2108
3.3958 -8.9013 24.7610
0.6888 0.8646 38.6060
30.4927 34.8075 -35.6519
-15.5951 37.1980 -25.8866
5.9924 -16.9141 10.9233
-5.4388 -40.5812 -26.8880
11.5061 4.8125 19.9196
-1.4712 3.7101 33.8619
39.1677 9.0291 -25.6565
-1.6194 2.8398 35.0490
-6.8404 -1.4709 28.9207
-42.5226 -1.9730 -29.5584
-3.9218 21.5363 4.4356
15.0862 3.2863 15.0402
-15.3387 -10.4211 9.9375
9.0966 17.0432 8.6634
-11.9316 -3.3796 20.0362
-2.2507 -0.1776 36.7117
-7.3042 30.9732 -11.8929
-4.7284 -9.3765 23.1593
-12.4773 -41.7310 -31.1827
-5.9016 39.9251 -25.9262
-16.2205 23.4805 -6.4934
20.8749 -33.7896 -24.8720
-34.5415 -4.7209 -16.8903
1.6133 -21.1508 5.5506
5.5497 0.5226 31.2593
-11.2462 3.1660 21.2160
-11.2154 -0.7761 21.9412
3.2586 -32.3819 -13.0810
6.8197 32.7034 -14.4971
1.5178 -4.6531 32.3769
-13.7069 -7.5307 -40.4233
-47.6760 10.6182 -40.4233
3.9183 -31.3042 -40.4233
29.1860 -3.5153 -40.4233
-11.4909 32.4458 -40.4233
8.9749 38.0501 -40.4233
0.9491 -36.2591 -40.4233
-11.8423 -29.8283 -40.4233
13.9113 28.3997 -40.4233
8.5448 27.5142 -40.4233
23.9518 24.0808 -40.4233
-6.8270 -13.2601 -40.4233
-29.0022 9.4418 -40.4233
15.4736 27.2814 -40.4233
-19.4261 30.6154 -40.4233
10.6891 10.2008 -40.4233
14.4323 -11.7401 -40.4233
5.7795 35.5941 -40.4233
37.5564 -9.9665 -40.4233
-2.1349 -23.0621 -40.4233
-25.6958 -21.1553 -40.4233
-11.6688 37.3833 -40.4233
-15.1773 0.2050 -40.4233
-0.6979 -4.6034 -40.4233
21.2265 19.7129 -40.4233
-16.6635 3.2002 -40.4233
16.6787 -6.5607 -40.4233
14.0240 -9.5555 -40.4233
28.9809 -0.4679 -40.4233
-13.8061 -20.9915 -40.4233
-6.3403 23.4243 -40.4233
-16.9885 7.0811 -40.4233
40.3092 6.2977 -40.4233
-22.9434 38.7933 -40.4233
12.7455 25.2935 -40.4233
2.9634 -33.9889 -40.4233
-0.4075 -1.2633 -40.4233
-23.8918 -23.3647 -40.4233
10.9084 30.2623 -40.4233
10.0077 -1.3431 -40.4233
-0.9511 4.1016 -40.4233
-25.5860 33.2247 -40.4233
10.3068 -19.4898 -40.4233
5.3995 -8.1923 -40.4233
28.8135 5.9697 -40.4233
0.0445 -0.0073 -40.4233
-21.7124 35.5935 -40.4233
-31.4145 1.7304 -40.4233
-0.0570 -0.0969 -40.4233
6.6839 8.5682 -40.4233
-19.9372 43.8920 -40.4233
-20.3792 -32.6716 -40.4233
14.6739 20.3110 -40.4233
2.6234 -42.6792 -40.4233
-10.6864 21.6435 -40.4233
5.3945 6.2927 -40.4233
37.6082 15.3077 -40.4233
-7.0868 -33.4171 -40.4233
11.1212 20.9106 -40.4233
19.3175 2.4304 -40.4233
24.3377 19.4934 -40.4233
5.6504 -29.3089 -40.4233
25.0144 -31.3690 -40.4233
31.9660 36.5870 -40.4233
12.5105 -2.1152 -40.4233
9.8206 -3.9466 -40.4233
-7.4133 -7.5239 -40.4233
40.3169 17.6969 -40.4233
-38.0674 -9.7161 -40.4233
-8.4311 -13.7543 -40.4233
-17.8859 45.1048 -40.4233
2.1451 48.2869 -40.4233
4.7044 1.5932 -40.4233
-19.7166 -3.0438 -40.4233
-25.7543 -41.2730 -40.4233
-10.1709 -23.3394 -40.4233
-7.9876 -30.1323 -40.4233
7.5506 -43.1188 -40.4233
43.7787 5.7777 -40.4233
37.8202 26.1485 -40.4233
-31.6102 -29.0613 -40.4233
15.4538 -36.0960 -40.4233
-15.5766 -10.4012 -40.4233
-24.0080 16.0128 -40.4233
4.2155 27.9464 -40.4233
10.5303 -4.1988 -40.4233
29.3883 10.3772 -40.4233
9.7625 16.4882 -40.4233
8.2064 25.7803 -40.4233
-19.8281 -21.6829 -40.4233
1.4158 7.7527 -40.4233
-39.8617 -1.1417 -40.4233
-10.3470 4.3274 -40.4233
28.7538 27.5545 -40.4233
-4.7096 -29.0696 -40.4233
-10.3344 33.0371 -40.4233
-5.3634 10.9402 -40.4233
-7.5669 -22.3885 -40.4233
8.9014 -11.2371 -40.4233
-0.5477 -27.9516 -40.4233
-8.2447 26.9901 -40.4233
-21.6676 28.9961 -40.4233
-12.5720 22.3948 -40.4233
2.9203 -13.6438 -40.4233
6.9746 -43.6517 -40.4233
-4.8726 -15.3910 -40.4233
10.5375 22.8513 -40.4233
-28.1902 3.3772 -40.4233
10.8136 37.5223 -40.4233
-2.5855 6.0371 -40.4233
46.8348 -3.6694 -40.4233
-46.1472 -5.3473 -40.4233
-6.8776 1.2678 -40.4233
36.1314 16.2532 -40.4233
-22.9039 -23.3044 -40.4233
7.2009 10.4556 -40.4233
6.0497 5.7879 -40.4233
-21.1113 -7.3736 -40.4233
16.7208 -6.0806 -40.4233
9.2862 11.0135 -40.4233
-2.8929 8.9497 -40.4233
-48.3164 -7.6512 -40.4233
-9.3449 23.4296 -40.4233
-12.2274 46.4188 -40.4233
37.9731 18.7678 -40.4233
3.9459 15.0422 -40.4233
-17.2670 -2.4552 -40.4233
-29.8622 1.0060 -40.4233
-34.9023 3.3086 -40.4233
-0.2833 5.3271 -40.4233
-2.3601 13.8675 -40.4233
-34.2495 18.3413 -40.4233
41.7939 -14.0719 -40.4233
-32.9676 3.9725 -40.4233
1.2803 2.9962 -40.4233
-5.8206 2.2868 -40.4233
-5.7106 -4.2754 -40.4233
0.0091 0.0013 -40.4233
-1.3979 -10.7782 -40.4233
30.1510 -35.4655 -40.4233
-26.3919 4.6115 -40.4233
-12.6675 41.8696 -40.4233
-5.5288 -1.9552 -40.4233
-7.6082 -2.8014 -40.4233
-2.9654 5.5754 -40.4233
31.6951 -30.9058 -40.4233
2.0824 37.8707 -40.4233
27.8700 23.9238 -40.4233
1.9598 5.0682 -40.4233
-6.5606 -6.3838 -40.4233
-30.7086 10.6849 -40.4233
-0.9938 38.3154 -40.4233
15.6820 17.7317 -40.4233
-3.0464 -27.8034 -40.4233
-24.3768 17.0572 -40.4233
-32.7892 -28.4259 -40.4233
24.6083 5.4809 -40.4233
-18.4726 9.4254 -40.4233
-27.2319 1.2407 -40.4233
-39.7657 -6.5799 -40.4233
5.7469 -2.3315 -40.4233
-29.7221 31.0121 -40.4233
-5.1216 -20.6201 -40.4233
25.1020 -30.1708 -40.4233
-9.3813 -25.4569 -40.4233
12.6203 -35.4686 -40.4233
-0.5983 -36.6152 -40.4233
27.4476 10.9061 -40.4233
-31.2452 31.2707 -40.4233
6.8168 -8.2343 -40.4233
9.3964 1.4894 -40.4233
14.1822 -39.6006 -40.4233
-12.4316 1.3468 -40.4233
-5.1242 -24.0584 -40.4233
19.6982 23.9861 -40.4233
-18.9017 -8.7308 -40.4233
-18.8470 -16.2288 -40.4233
47.4009 -1.0904 -40.4233
0.9530 4.8019 -40.4233
3.2655 15.4402 -40.4233
42.0182 18.4166 -40.4233
32.8512 -5.8967 -40.4233
30.9082 -13.9342 -40.4233
-15.9024 32.7986 -40.4233
15.7880 -21.0179 -40.4233
-18.8353 -4.5115 -40.4233
4.1890 37.9200 -40.4233
12.8621 40.4813 -40.4233
-18.3528 -15.4777 -40.4233
-4.2234 23.6554 -40.4233
26.7214 19.1958 -40.4233
4.4794 -8.9257 -40.4233
14.5315 -15.4064 -40.4233
33.8310 17.1293 -40.4233
1.5626 0.5289 -40.4233
-6.7424 12.0943 -40.4233
24.4181 -41.1946 -40.4233
-8.7477 8.6307 -40.4233
-18.6537 -8.9943 -40.4233
-28.9593 20.6835 -40.4233
-1.8618 2.4774 -40.4233
38.0366 -8.2874 -40.4233
-2.0062 18.4425 -40.4233
7.4695 29.2420 -40.4233
-4.0976 -6.6812 -40.4233
2.5918 -1.4277 -40.4233
24.9225 -6.3222 -40.4233
2.4459 -6.1947 -40.4233
20.8550 20.8722 -40.4233
7.2343 7.6067 -40.4233
32.1635 -0.8687 -40.4233
6.5985 5.2056 -40.4233
-21.3491 -5.6995 -40.4233
23.0396 -43.0228 -40.4233
-2.5803 -13.3023 -40.4233
-13.3111 21.6792 -40.4233
-0.1008 6.5461 -40.4233
-2.3777 -0.9689 -40.4233
-1.2396 -7.2977 -40.4233
-31.9320 15.2531 -40.4233
-5.0607 -27.7424 -40.4233
30.9091 23.8111 -40.4233
3.4229 0.0198 -40.4233
10.0118 28.3919 -40.4233
-22.3854 -7.4883 -40.4233
31.6609 -2.3757 -40.4233
0.0337 2.0316 -40.4233
-27.6114 -26.3586 -40.4233
-1.2625 8.1460 -40.4233
22.1842 3.5780 -40.4233
-10.9437 29.8110 -40.4233
-15.7409 31.5963 -40.4233
19.7855 21.7290 -40.4233
13.5385 -32.6713 -40.4233
42.4694 -1.2273 -40.4233
42.2404 -23.8937 -40.4233
3.6106 -1.2845 -40.4233
-1.2213 40.4884 -40.4233
-29.7203 7.9832 -40.4233
-10.3389 -14.4479 -40.4233
-4.3109 -5.1248 -40.4233
1.2569 -0.6160 -40.4233
-5.6494 -14.3484 -40.4233
-16.7552 -9.4354 -40.4233
-0.1496 -9.9819 -40.4233
-7.0800 -27.6298 -40.4233
18.5093 21.9842 -40.4233
22.1407 -14.0518 -40.4233
-10.1730 -3.2153 -40.4233
3.7842 5.6191 -40.4233
22.8668 -6.0589 -40.4233
15.4153 10.0114 -40.4233
10.0360 -16.1404 -40.4233
-0.5473 0.3073 -40.4233
36.0958 -22.7722 -40.4233
23.6044 -10.0818 -40.4233
