ply
format ascii 1.0
element vertex 1024
property float x
property float y
property float z
end_header
-0.3444 -25.0623 24.5833
-10.9940 -1.8986 39.7472
4.3872 9.2245 40.7743
-14.6576 -18.4159 26.2489
6.3129 -8.3659 40.4845
15.4410 -56.2824 -11.7214
-63.1368 -44.8494 -32.5276
-30.0710 15.1186 15.2142
59.1888 2.4063 -12.6761
21.0983 -31.4651 10.6062
-2.3811 -0.1309 49.3114
4.0473 -3.8813 45.7975
3.5192 -13.8872 36.2915
-41.5270 77.9216 -44.3591
30.7695 52.0731 -14.0354
18.4105 -38.9346 4.9540
45.7564 16.3360 -1.0614
22.4079 11.7327 24.3336
-6.2828 -13.5423 35.6345
59.7354 45.4166 -29.9053
0.1042 0.0312 51.7929
0.9522 -26.5565 22.9380
-12.0181 -3.5673 38.2430
66.2193 2.8155 -20.3533
9.6706 -9.5780 37.0713
9.1660 -12.8680 34.6860
4.8578 -13.4147 36.3558
-7.2305 5.4540 42.0367
-18.3340 -7.2280 30.4243
-62.1941 32.8757 -24.7903
2.1970 -16.6969 33.5498
42.1681 50.3406 -19.6874
7.5121 13.2697 35.2859
41.7099 13.9850 3.9465
-61.9583 -27.3709 -21.9405
0.1595 -8.7064 42.4172
-3.7339 7.8064 42.4765
25.4226 -61.9866 -21.1365
65.1426 2.2254 -19.1556
30.9129 -31.9595 3.4323
48.5922 -42.6538 -18.5849
49.0686 -39.2999 -16.6326
-13.3931 2.2114 37.1112
-19.5667 28.8694 13.8864
-12.4201 -36.1048 10.2820
12.9458 37.3345 8.8275
0.8532 16.2750 34.1423
-5.5906 4.5251 44.0695
0.1729 0.2102 51.6147
-51.3908 68.8329 -41.7473
-57.6533 6.8443 -11.3899
10.1752 20.5726 26.8873
-16.0081 49.5788 -4.8927
-22.7352 6.2076 26.2156
-21.9792 -11.2311 25.0000
28.4271 5.2608 20.3908
20.4770 49.6546 -6.6503
-1.5479 6.0504 45.1022
7.1903 -75.8084 -31.1142
-24.3693 91.2256 -51.0405
63.4339 -58.9645 -42.5165
1.7888 -94.4219 -51.0562
53.5771 -27.8418 -13.9208
-87.6988 36.4768 -51.6487
-87.1354 -17.8917 -45.0753
44.1459 10.9614 2.3171
-2.1035 -21.7858 28.0478
31.8045 -52.1951 -14.7301
-36.6209 82.3172 -46.3207
-37.1849 57.2877 -22.5544
9.0365 -73.3658 -28.6846
-9.1043 7.8406 38.8113
-11.7134 -32.3595 14.3893
-36.8685 14.7856 8.6013
0.9050 8.2832 42.8265
-26.2729 -17.5808 17.4441
-60.4991 23.7770 -18.9628
3.0247 10.8822 39.5967
57.7682 -15.3913 -13.2710
-65.3228 52.6096 -39.5372
-8.4659 -73.3754 -28.6213
25.6400 -10.9908 21.4958
4.0618 0.5370 47.4443
-9.5514 14.4568 33.0195
22.8076 26.4577 13.8255
47.8849 61.3901 -32.9768
10.4905 23.6646 23.6882
-55.4851 -19.8971 -12.3567
67.6882 59.1602 -46.1051
-34.2112 3.7215 14.3906
-89.6126 -3.5253 -45.8697
23.6738 -43.0800 -1.6841
-51.8955 -33.3123 -15.3250
-20.3729 -31.3193 11.1748
30.9686 22.0515 10.4607
-70.7065 30.8290 -32.1899
-12.9199 -7.0210 35.8791
-32.8184 64.0123 -26.5199
34.1638 17.7675 9.9260
19.1346 36.2443 7.2249
-15.0353 15.2390 28.5705
0.9726 1.2458 50.1883
32.2267 77.6957 -39.7990
65.9288 65.6754 -49.5511
-41.3931 29.0290 -3.2120
25.7261 35.9442 3.7176
-12.1360 -23.5118 23.0628
38.0757 7.5736 9.5838
2.8900 -50.3867 -3.1159
-21.7507 -10.7288 25.4684
-17.9363 2.6581 32.1418
-5.7886 3.9149 44.2922
-55.1526 68.3251 -43.8258
47.1193 -20.0289 -3.9119
28.0448 48.5200 -9.1917
61.1000 -23.6913 -19.5392
-38.0138 71.4932 -36.3722
-39.3927 -75.9808 -41.4033
-1.2574 8.8048 42.2141
-55.4063 -10.0772 -9.4896
-13.7331 -38.1921 7.6599
-41.1666 -22.4788 0.7716
-10.9229 -53.3350 -7.4472
40.2761 -28.4431 -1.8484
-0.6331 5.1314 46.2742
-1.8394 22.0371 27.8006
-9.6493 13.0550 34.2115
1.6188 24.8009 24.8133
37.1055 -67.6899 -32.2528
58.0084 6.6347 -11.7480
32.8723 -85.1568 -47.6135
40.1078 66.6875 -32.9358
20.9066 -42.6626 0.1110
33.9907 79.0352 -41.8928
1.7920 -19.9699 30.0506
-21.8982 -29.0198 12.2733
3.2666 35.0921 13.4848
-23.3613 79.5689 -38.5052
-32.2257 -1.8436 16.7180
8.7498 -51.7002 -5.2594
-11.1532 -91.0571 -48.1111
49.3351 -61.3041 -33.8853
6.6184 9.8223 38.9978
63.9009 7.0006 -18.1772
-17.0268 65.2853 -21.6509
8.1108 2.8245 42.5473
31.8775 -87.1937 -49.3109
-27.4725 -23.0752 12.7937
-67.8512 -30.1556 -29.0447
-41.8108 -80.2611 -46.7600
21.0913 -49.3222 -6.5756
-53.1921 -41.8358 -21.8731
-2.2995 -41.1274 6.9998
52.2343 -47.9536 -25.4005
17.8881 -76.2556 -33.4877
-33.7591 67.8269 -30.6947
-70.4202 20.4733 -28.0475
64.7600 22.5291 -22.8478
7.0813 -6.0048 41.7884
47.3116 -18.3150 -3.4031
-13.9922 -30.2786 15.5439
-36.9720 -26.2102 2.4986
30.8920 65.9521 -27.4943
22.0169 20.8884 18.8216
2.0460 0.6094 49.5838
-9.0025 -17.6381 30.3204
-28.8280 -1.8838 20.4130
-19.5134 -21.2108 20.4873
-76.2741 36.5734 -40.3172
6.1123 20.3024 28.7941
-15.2555 -18.9873 25.3552
-77.1065 -45.4271 -45.6639
73.1387 -35.3582 -36.6623
-23.2601 49.5253 -7.7454
-27.2731 25.1517 11.4607
17.6598 -33.2946 10.8197
37.3717 -44.1137 -11.1256
-86.1405 -39.3593 -51.3481
-66.5528 -49.0950 -38.2592
-36.0396 0.3140 12.6156
-0.1760 -0.9332 50.8761
-28.2083 -59.3936 -19.7785
-19.0103 -11.9926 27.4047
-62.1965 23.3002 -20.5044
-41.2219 -6.4303 6.4233
-34.1163 75.6110 -38.5313
0.2287 -56.6077 -9.8090
-21.2935 -68.5828 -26.3864
-28.3643 -81.2738 -41.9438
-21.0343 60.0879 -17.5012
89.5191 3.3948 -45.7624
-61.5366 -5.2755 -15.4287
42.6941 26.6901 -2.9860
-36.1374 60.7830 -25.1888
3.1980 4.3800 45.9985
-21.2010 36.9009 5.5104
27.5481 1.6999 21.8184
28.3775 -55.3378 -15.8946
73.5867 38.0157 -38.3950
0.7415 66.4433 -20.5369
-23.3450 -3.5921 26.1586
-16.8384 -77.3085 -34.3550
23.1545 55.1875 -13.3415
38.3349 -3.4203 9.9485
-62.8112 -23.0575 -21.0407
77.9786 51.3518 -49.8892
48.3699 -26.9761 -8.4739
-3.3227 4.8399 45.5106
38.3034 -17.8887 5.8188
-29.9148 -18.8759 13.3448
0.2090 -5.6432 45.7545
-29.2727 39.6562 -1.8299
41.4907 -76.2994 -42.7830
1.5277 11.8696 38.8631
-16.2727 -10.8135 30.6090
79.4003 28.2346 -39.9702
-3.6341 -66.1930 -20.3681
32.9156 43.7118 -7.7491
-0.3349 -16.7217 33.6760
64.2724 57.4847 -42.1049
-31.1043 -33.8231 1.8108
30.4377 11.9193 16.2711
-10.6735 -40.8950 5.8295
42.9052 58.9111 -27.5494
60.0873 47.0934 -31.3263
-27.8426 11.6037 19.0235
21.2012 26.6905 14.7468
20.4355 -11.4999 26.3448
87.1286 -1.7255 -43.1044
-6.6801 41.5401 6.0380
13.0087 19.0345 26.7742
-13.6107 59.0343 -14.1428
-35.8139 -27.2762 2.8278
22.3334 -85.6854 -44.6335
31.6442 81.9840 -43.9040
34.7829 63.0372 -26.5874
-8.8196 38.5016 8.8455
17.1161 37.6738 6.7947
-39.8118 7.4517 7.7505
21.7706 -42.7834 -0.4277
-43.0532 -5.1867 4.6307
-55.6122 -11.2535 -9.9521
-50.3242 -38.7525 -17.3407
59.4476 -43.3749 -28.3238
30.3515 50.5983 -12.4205
-40.8002 -4.9700 7.0978
77.4387 -44.5923 -45.5188
87.4935 7.0997 -43.7972
-24.4910 11.0829 22.6017
0.4535 -0.2930 51.3228
-27.8071 -0.7253 21.5828
-10.4397 59.2687 -13.7046
-41.3377 -72.5813 -39.1595
11.5208 -2.7383 39.0003
-25.2568 53.2746 -12.3715
15.1048 73.9063 -30.3351
0.7990 48.8232 -1.3282
51.6429 -77.0641 -49.2343
19.8751 4.7506 29.6311
-63.6622 16.0002 -19.6587
-21.3578 -9.8935 26.2477
-28.0226 -13.5930 17.9533
-0.9741 6.5078 44.7369
-4.4378 -53.6168 -6.7474
-9.6088 -3.0967 40.9043
-20.2644 -42.2095 0.8611
-57.3950 52.0056 -32.5350
17.6961 -78.1663 -35.4708
-48.0584 -21.7273 -5.5933
-0.3524 -43.8980 4.0474
-47.1107 -29.8263 -8.8828
17.2038 5.4120 32.2477
48.5156 -51.4105 -25.1604
-9.7648 48.7249 -2.2702
65.3682 49.2374 -37.3165
52.6323 32.0810 -15.2940
1.5040 -0.0790 50.2694
17.7146 40.4638 3.7508
-93.4370 2.3944 -49.9974
25.1009 -28.5553 10.4587
55.8604 -42.6098 -24.6900
-49.1505 -76.3708 -47.1106
-6.0995 -2.3242 44.7947
-11.1843 4.9147 38.5917
-55.5271 66.3549 -42.4255
-20.0876 61.5459 -18.6765
0.8800 -3.0264 48.4751
-15.7977 -4.2620 34.0713
15.5102 -0.3394 34.9965
-20.8504 7.5787 27.7230
27.6645 32.8303 5.1023
25.6268 -86.0517 -45.9839
-6.1092 27.0327 21.6941
19.0783 31.4439 11.8108
22.1067 39.2947 2.7534
-43.0937 -56.6824 -25.7226
-58.0347 -11.7171 -12.6411
37.0618 9.7746 10.1209
-35.2707 -6.7266 12.7624
51.6090 1.0944 -4.3710
5.4379 -14.5432 34.9827
-47.3590 40.2739 -15.8710
-2.8757 8.2764 42.3584
4.6978 -5.6876 43.8684
10.7356 0.8929 40.1660
-12.8047 -29.9557 16.3918
-37.4512 20.9101 5.1446
-12.5692 6.7591 36.3514
21.8997 64.0782 -21.9212
-38.6024 -45.9337 -13.5076
-84.7489 -12.9403 -41.5621
-10.3104 -11.1015 35.3924
-4.4315 2.6351 46.2901
11.3949 86.0286 -42.7056
-64.9006 -31.2357 -26.6193
-91.8752 2.2453 -48.2910
11.0994 -84.5088 -41.0207
68.7079 9.3649 -23.6942
10.3547 6.4848 38.5904
-14.0584 -13.9747 30.2988
-13.7270 -70.4421 -26.3370
-15.4976 -20.7789 23.6486
24.1518 -25.9511 13.2589
48.2972 38.0303 -15.1131
8.3377 9.0513 38.4939
17.9671 16.6843 25.1781
4.1713 -94.7527 -51.4985
8.3489 -4.1617 41.7403
-57.3875 -73.9373 -50.1363
-65.0931 5.7228 -19.3340
-26.7433 79.0540 -39.0805
-13.0413 -15.9729 29.4286
2.5446 -52.6119 -5.5189
0.4228 0.3373 51.3218
1.6677 -4.4205 46.7602
21.6089 11.3392 25.3043
3.3042 11.1783 39.2023
-30.6736 26.2469 7.8952
-12.8095 3.7752 37.3512
-6.4245 9.2680 39.6161
-3.5107 0.8504 47.9731
-60.7948 -11.1851 -15.4862
-31.1411 -39.0279 -2.5271
80.0634 4.4272 -35.5159
-69.7968 14.0687 -25.7193
-13.2893 -6.4002 35.8292
-40.9318 -25.3788 -0.5992
21.1729 -11.6490 25.5632
-21.9963 -2.1833 27.8108
-40.7818 8.5972 6.4694
-47.5784 39.6949 -15.6472
-54.3428 46.3578 -25.9690
-7.7596 -16.5544 31.9776
18.4373 46.4440 -2.5711
-31.9685 -25.9542 7.0149
-30.3142 -23.4719 10.1100
76.1865 5.3118 -31.3572
-11.9900 -4.6881 37.8748
-13.4606 -57.9801 -12.9861
34.8716 -26.0685 4.4410
43.5673 28.0208 -4.5670
-31.1964 -19.1525 11.9990
45.9216 56.8341 -27.7552
1.2130 25.6692 23.8929
3.7293 37.6311 10.6810
0.1987 -4.8500 46.6190
14.1115 -15.5426 29.0226
-21.9262 2.8293 27.8070
5.3427 -10.6849 38.8865
-2.8185 11.6065 38.8890
-2.3362 53.2719 -6.2272
-44.3968 63.0730 -32.1859
19.3357 75.3124 -32.8656
19.9539 66.1385 -23.4105
0.8922 1.2494 50.2375
30.3994 -22.4874 10.6838
0.8431 -68.1787 -22.4302
54.3350 48.7423 -27.6746
48.2617 7.2093 -1.2926
7.0658 -0.3501 44.1981
62.0774 -34.7866 -25.6748
35.2894 54.9499 -19.2920
-16.2305 47.8948 -3.2258
11.2390 -8.8516 36.3134
25.2820 -25.3146 12.9032
9.5820 -73.1462 -28.5220
-7.5393 -0.8238 43.6424
-77.4551 46.1087 -46.3696
-72.5507 -57.5070 -49.0272
-12.1734 25.5324 21.0710
8.4269 14.8205 33.3230
-8.7773 -9.0906 38.1338
41.4289 -75.1191 -41.6219
54.9714 -56.5835 -34.1025
19.6287 -25.7281 16.6282
60.3046 -45.1241 -30.2088
52.4431 -33.3915 -15.8746
-4.7669 -0.7493 46.6503
-3.5731 1.7859 47.5562
7.4319 -6.4363 41.1921
-62.9231 -48.9323 -34.9972
41.2254 -12.5043 4.9408
17.0031 -24.7879 19.1378
41.1255 43.6805 -13.5007
-29.0322 -66.4742 -27.1769
-43.4039 -59.8421 -28.6903
-44.6127 54.6104 -24.9735
-5.8899 -16.5876 32.7195
12.1364 7.5696 36.3162
-16.0394 -4.0622 33.8714
-25.6949 6.1406 23.1072
31.0950 -12.5425 15.3542
24.0290 82.5886 -41.8697
-21.7079 71.9055 -29.9826
63.8901 -12.1918 -19.0055
92.1031 -9.9828 -49.0976
51.8871 -28.2049 -12.4795
-19.5839 4.5726 29.9847
25.1000 32.9125 6.7821
-3.2296 -1.1036 48.1903
-61.1521 -40.7462 -28.2085
37.7617 -8.7240 9.6551
-62.0755 -9.7316 -16.5968
-11.3201 -64.8122 -19.8238
23.7287 26.0979 13.4535
48.3645 80.9738 -50.9245
-84.9817 5.2986 -40.9249
24.9120 5.9666 23.9815
30.6624 41.9460 -4.7390
5.5807 -43.7447 3.8296
5.5216 -1.8647 45.5572
-7.0551 52.2497 -5.5739
-27.0497 -13.8130 18.7961
-55.8902 15.1951 -11.2382
-47.3178 61.2862 -32.5083
52.1597 37.7123 -18.2664
42.5502 76.0310 -43.0848
38.3707 21.3755 4.0218
22.4190 -89.0538 -48.2144
2.5965 74.1780 -29.0151
48.0883 -54.7971 -27.5781
6.3123 -47.5609 -0.3994
25.2312 40.9157 -0.4996
-88.3049 -5.9683 -44.5880
29.9275 -86.0289 -47.4004
63.9570 -41.6790 -31.3217
79.4203 4.7465 -34.8359
-21.0091 15.7416 23.2884
11.5734 -86.5383 -43.2822
70.5603 19.3865 -27.8721
26.3620 -31.3087 7.2860
74.6185 39.6279 -40.2072
-4.9248 7.0017 42.5782
-67.9665 -53.6373 -42.4896
4.0887 4.8041 45.0332
-3.3086 -8.6109 41.8538
83.6803 -31.9881 -45.7650
-81.3453 -5.6644 -36.9949
5.0387 -28.3351 20.5328
-40.1244 40.2692 -10.0694
46.2535 66.2780 -36.2094
54.9400 -9.1374 -8.8130
35.2076 28.8011 2.3164
-87.2925 1.5704 -43.2798
65.9405 16.6956 -22.2529
-42.4164 -27.4653 -3.1842
58.2379 -62.7575 -41.4370
-17.6478 -28.9710 14.9250
-2.8834 77.9238 -33.1079
-11.4622 8.1773 36.5597
-4.1688 4.8062 44.9747
-14.2662 -65.8389 -21.5392
64.8399 -0.9579 -18.7918
15.9673 83.7895 -41.0891
0.4725 0.9560 50.7488
-49.9892 -43.5956 -20.4075
-10.5131 33.7168 13.4041
-9.9666 9.8483 36.6346
15.9669 -15.2930 27.8056
-51.4116 -18.2253 -7.5611
-19.8993 -20.9946 20.3724
13.1759 15.8665 29.4249
22.0147 2.3828 27.7684
-74.9524 -18.5668 -32.2799
-37.4192 -35.6127 -4.4109
-36.2312 18.9721 7.3200
80.7494 42.7568 -47.7110
-7.5250 -11.0963 37.2934
0.2644 -3.2243 48.3842
-3.6986 -0.4200 47.8530
-38.3041 41.5973 -9.7421
20.0254 42.8356 0.3557
-23.1767 -42.6702 -1.0322
42.0549 -34.8000 -7.6045
-33.6825 5.7568 14.6546
-3.2931 -18.6860 31.2240
60.6742 -0.9900 -14.2510
-1.5273 44.2521 3.6342
31.1085 -52.6061 -14.7238
-53.2313 13.7625 -8.0355
-73.3355 -56.8769 -49.2766
-25.3338 -2.4927 24.1564
61.5854 -32.1082 -23.8136
27.0691 -15.5406 17.8797
-69.6071 -18.8051 -26.7028
-28.4771 3.4796 20.6316
-69.8399 -45.2877 -38.8440
-57.0780 15.4175 -12.5516
29.9068 -2.5118 19.1890
18.4764 -30.1373 13.3688
-8.7973 -48.2674 -1.5819
88.2635 0.4180 -44.3242
-25.6357 8.5942 22.4318
-52.8560 4.1291 -5.8935
-69.1518 55.6910 -44.8960
31.3804 -84.9285 -46.8058
-7.9739 -5.6437 41.2601
47.2845 60.0516 -31.4243
64.2053 31.4097 -26.0201
-8.9630 -16.0585 31.8602
-13.1719 -42.3086 3.5981
23.4303 21.0692 17.5557
32.1133 -50.4006 -13.2476
55.2797 36.1475 -20.1026
11.0317 -47.4724 -1.2273
13.5687 -27.3131 18.6594
82.8342 -36.4993 -46.7824
73.4401 24.4999 -32.4993
-17.7639 9.2684 30.0656
-33.4693 -14.6923 12.0583
15.6643 63.8057 -19.7224
40.8535 63.3261 -30.2549
17.9512 -20.2053 22.4428
5.7274 6.7723 42.2411
-4.4341 4.1974 45.2544
-3.2220 -9.3691 41.1090
30.7817 9.4958 16.7892
-69.8404 42.7874 -37.3905
-14.1273 86.6456 -43.8067
-27.1296 14.4699 18.3874
0.2157 -45.9304 1.8325
4.8436 -1.0956 46.4971
45.5542 79.0311 -47.5468
9.3386 -2.4822 41.3760
-66.5467 -48.7471 -38.0291
1.3148 3.5062 47.8287
9.5800 -24.3661 23.3653
-30.8933 -43.4548 -6.2207
-11.8907 -23.8046 22.8992
-0.1455 -0.0263 51.7502
23.0759 -1.8976 26.6667
18.3351 -46.8523 -2.9445
-17.6378 39.8707 4.3764
39.1136 49.9259 -17.2393
-43.4617 -55.1562 -24.6523
21.5003 -47.9553 -5.3892
84.7311 -16.0132 -42.1071
-12.7405 17.7083 28.1261
38.1067 30.0713 -1.0153
-30.5402 -4.3037 18.2841
-19.4531 10.8895 27.6046
-5.1992 -3.6146 45.0074
-2.5788 -0.7253 48.9907
-15.9017 -40.2469 4.7289
6.6794 -46.3353 0.8694
-22.4420 -22.1305 17.5468
-15.0938 34.1462 11.2064
32.5469 -10.6713 14.5665
-23.4258 42.3680 -0.8737
25.0933 -21.0402 16.2071
0.4318 1.5833 50.1222
13.4526 11.4211 32.6709
14.5172 -11.6027 31.6490
34.6477 5.4952 13.6626
11.2043 8.4488 36.6114
30.3324 9.2787 17.3270
-32.5751 35.8739 -0.9216
7.9483 -2.7709 42.7339
36.0767 -40.2473 -7.0195
-2.8006 -55.1302 -8.2751
67.2015 -37.0622 -31.7634
-21.4112 -18.3311 21.1796
44.9915 2.0266 2.8070
66.2654 63.0196 -47.7943
-10.1177 28.2951 19.1480
24.6426 20.8217 16.7365
0.6870 -0.4097 51.0394
-71.0025 25.5418 -30.3600
18.1055 24.7144 18.5079
52.3663 -8.6886 -5.9647
-1.4235 89.1007 -45.2484
-32.5800 -54.9396 -17.7305
-37.6654 45.3781 -12.3877
0.5602 -11.1203 39.7715
17.9904 -13.6806 27.2692
21.0586 -11.8869 25.5458
-14.3086 66.6830 -22.4487
-6.3291 -41.1947 6.4694
7.3671 -20.3431 28.3216
30.9712 28.8177 5.7864
21.1296 -36.3923 6.0295
-55.4127 -12.0843 -9.9256
-0.0510 0.0832 51.8051
-53.7433 53.1861 -30.5286
70.6302 -23.4339 -29.2254
16.6534 -17.7784 25.3516
-8.0403 53.0858 -6.6286
16.8367 25.6594 18.4498
17.5872 -18.4276 24.1377
-31.2296 -34.2902 1.3429
-72.2994 -11.8166 -27.9633
25.3647 20.3417 16.4612
2.3664 10.3160 40.3718
-62.9912 6.6910 -17.1549
-19.2848 22.5235 19.5821
42.9268 -43.7973 -14.9533
-55.4987 -15.6985 -10.9735
-10.4146 13.1518 33.6204
-47.9762 -44.4264 -19.3804
-93.5858 5.4690 -50.3002
4.1157 1.8963 46.9706
-20.8584 16.1564 23.1450
11.2239 -7.5121 37.1860
77.2534 33.1459 -39.7443
58.0051 18.8143 -14.5757
8.4349 41.6970 5.5279
42.2366 -70.0978 -37.3186
38.0686 -84.8001 -49.4363
74.7583 56.4487 -50.2249
9.3245 -9.4554 37.4325
58.1419 69.5699 -46.9434
8.7018 66.9838 -21.7353
31.8430 -21.5309 10.0010
7.2995 48.5966 -1.6683
-58.8646 -16.8327 -14.8418
3.1062 4.7551 45.7189
-55.2948 10.8725 -9.5315
-1.2270 -65.2963 -19.2943
78.7863 -16.8986 -35.9438
-21.5463 19.2082 20.4395
-10.6444 -31.2830 15.8829
15.2316 7.4737 33.4129
-12.0406 -2.9209 38.4027
-14.2345 5.6868 35.1987
0.3995 -4.0528 47.4713
22.5049 -88.2938 -47.4341
65.6114 -28.9770 -26.2914
-50.7141 -71.6289 -43.7791
8.1557 -88.4161 -44.8988
-13.1947 -61.8904 -17.0848
-46.5165 47.0246 -20.2066
52.4109 30.2219 -14.0525
-22.2232 5.7150 26.8929
-39.9418 78.7318 -44.3454
5.1662 -0.1373 46.2767
-5.6577 -8.5826 40.7036
10.5623 60.4757 -15.0240
43.8492 -12.8983 2.0768
73.9396 -57.4115 -50.1544
-1.8129 -0.8423 49.7319
-75.7264 -0.0919 -30.6539
32.6920 30.7884 2.9482
5.4678 -7.5906 41.7117
-33.5901 -3.1651 15.1256
-3.4529 3.9829 46.1642
-2.2658 -0.7704 49.3021
-10.9462 3.9466 39.2247
43.8014 -10.7097 2.7475
-43.1353 -39.9244 -12.1726
11.6046 2.9536 38.8555
25.3440 28.9049 9.9974
-11.7158 69.5079 -24.9428
-7.1486 51.1439 -4.3933
-61.8568 4.9207 -15.7447
-92.8192 -6.5342 -49.5408
64.6084 -57.1200 -42.1144
53.6443 28.5312 -14.3355
-0.4095 70.1040 -24.5249
-26.6986 -5.0605 22.2834
-74.2638 58.4823 -51.1520
-43.1066 16.2602 1.6793
1.2238 6.5505 44.6458
18.0448 68.7167 -25.5513
47.7406 67.0542 -37.8353
31.2748 -47.5871 -10.1755
0.4556 15.0524 35.4921
11.2605 3.3638 39.0980
56.8891 28.8981 -17.6592
20.2250 -53.2037 -10.1471
42.4131 36.7981 -9.3110
-7.0825 -24.6719 23.9250
67.0646 6.8829 -21.5938
12.6965 -6.9057 36.1532
22.1646 -9.3737 25.6729
1.5027 4.3956 46.8467
37.8526 -79.4317 -44.0248
-53.3043 -69.4045 -43.5037
-29.5658 -69.0042 -29.9397
0.7136 -0.3650 51.0376
-3.5434 -35.7717 12.7183
19.8774 -14.1200 25.3274
8.0164 -92.7445 -49.5858
-51.4695 -32.1113 -14.2323
10.7218 -11.4533 34.8060
-20.1989 32.0400 10.6154
24.5912 -29.9909 9.6251
-89.7685 -11.0506 -46.7028
-13.9303 -6.8624 34.9803
-4.7569 -18.6750 30.8998
17.6525 27.5940 16.1959
-83.6752 17.5509 -41.3058
6.9018 -5.2508 42.4562
-21.3716 53.7116 -11.1164
-26.5460 77.7971 -37.7136
-64.8917 -57.3814 -42.5346
47.0418 57.8706 -29.4022
-26.7030 -28.7665 9.1168
77.8345 -9.1729 -33.5396
-24.5142 29.3822 10.1900
5.5570 -8.5292 40.8123
49.7443 -7.5011 -2.9385
-37.4316 -29.5221 -0.0665
-0.0997 -15.0013 35.5551
5.5331 -25.9258 23.0077
-42.1817 -10.4887 4.5198
64.7118 -12.8828 -20.0291
4.5214 11.6016 38.3355
80.5560 -40.2997 -46.2972
58.7334 63.3986 -42.3168
17.2825 -7.6911 31.2865
46.0382 51.0683 -23.0547
-74.4275 -31.0592 -36.0200
-21.6581 11.4662 25.1923
5.3834 25.2327 23.7808
24.9541 -37.0896 3.1715
-17.9454 16.6250 25.2395
12.9234 -15.7393 29.7071
58.8340 19.4348 -15.6451
-5.0528 -12.7991 36.9085
34.0784 4.4755 14.4364
-1.5703 -2.8547 48.3591
40.8601 -82.3249 -48.2960
-3.9126 24.8800 24.4512
21.1941 74.5934 -32.6377
-46.3849 -47.9839 -20.8541
64.4732 22.2412 -22.4495
53.9341 -57.8555 -34.3275
60.0595 25.8671 -19.3873
-29.1903 -83.5489 -44.5826
-80.0473 -36.3241 -43.9306
15.2444 89.3461 -46.9113
-63.5773 -64.6784 -46.9729
11.0905 43.2012 3.2814
35.1284 -33.8232 -1.2574
-39.4496 10.7096 7.3423
-32.4201 71.5106 -33.6958
-0.3856 2.5955 49.0505
0.6620 3.2705 48.2733
-4.0209 0.2014 47.5220
53.5862 -5.7285 -6.8471
-51.7608 70.8964 -43.7969
43.4357 17.7506 0.7511
-25.1712 -18.3930 17.9208
36.8578 24.5571 3.6223
-12.3910 -78.3746 -34.6025
4.9638 -51.4475 -4.4427
23.9973 -15.8854 20.5337
52.5211 -67.0875 -40.9840
-54.1827 71.3937 -51.9115
-33.4945 -1.7338 -51.9115
-47.2149 1.1955 -51.9115
-70.1033 19.7611 -51.9115
-12.1519 -58.8832 -51.9115
-29.3622 -56.8630 -51.9115
-38.1878 43.5977 -51.9115
13.0994 4.9471 -51.9115
80.0557 38.6084 -51.9115
15.0342 -48.4002 -51.9115
39.9067 19.4371 -51.9115
78.8273 52.3897 -51.9115
27.0957 -18.5712 -51.9115
21.8315 22.8256 -51.9115
19.8943 12.2047 -51.9115
22.5787 65.6357 -51.9115
65.7489 56.2036 -51.9115
27.2232 74.0528 -51.9115
29.0533 39.5538 -51.9115
-34.4638 46.7199 -51.9115
-23.9400 -66.6410 -51.9115
25.8310 -2.0771 -51.9115
-0.4504 32.8199 -51.9115
0.8566 12.0778 -51.9115
39.1386 -6.4543 -51.9115
20.2879 -83.4658 -51.9115
-36.4373 5.6523 -51.9115
-38.2920 58.0345 -51.9115
-21.4890 1.2443 -51.9115
-9.3203 20.0175 -51.9115
5.0147 -72.4683 -51.9115
58.1289 -60.9952 -51.9115
28.5688 77.0360 -51.9115
6.0824 -11.3034 -51.9115
-0.2592 -1.4791 -51.9115
14.4948 -31.6381 -51.9115
21.2688 80.7197 -51.9115
23.5114 36.6479 -51.9115
16.8183 -33.1326 -51.9115
-13.8732 -24.1479 -51.9115
61.0538 -13.4883 -51.9115
12.4396 33.3788 -51.9115
1.9215 -17.6871 -51.9115
-16.9724 9.7815 -51.9115
30.7429 88.3574 -51.9115
-34.1343 10.6963 -51.9115
38.4292 5.7189 -51.9115
-4.6818 7.4033 -51.9115
85.1771 -33.3428 -51.9115
7.7402 -17.5722 -51.9115
-4.3690 3.5349 -51.9115
-21.4482 -37.5625 -51.9115
39.1830 68.6834 -51.9115
55.1721 52.4820 -51.9115
13.3041 21.8504 -51.9115
-68.5422 3.7269 -51.9115
3.8250 5.3002 -51.9115
-25.4163 -50.0779 -51.9115
7.7767 66.9935 -51.9115
3.8596 3.0614 -51.9115
-68.6309 -9.4243 -51.9115
-13.5062 -34.0869 -51.9115
-19.2635 3.5856 -51.9115
-0.2811 91.6316 -51.9115
9.9719 -66.6927 -51.9115
52.9475 65.4885 -51.9115
12.2329 81.2462 -51.9115
-24.9988 88.4955 -51.9115
-46.7743 -71.9205 -51.9115
-77.0831 -4.0971 -51.9115
-12.5537 -5.6453 -51.9115
0.4831 2.7231 -51.9115
54.5058 -45.5645 -51.9115
-23.3016 -25.8077 -51.9115
-18.0374 90.7176 -51.9115
16.4564 67.2656 -51.9115
44.6066 -1.7039 -51.9115
23.7132 0.9604 -51.9115
30.1923 53.3392 -51.9115
44.3586 -8.3762 -51.9115
71.4104 -23.2518 -51.9115
-16.5525 10.1676 -51.9115
-66.3241 66.7756 -51.9115
-25.8966 -16.3451 -51.9115
-22.1130 -17.2611 -51.9115
-22.2516 42.2870 -51.9115
-14.5728 13.1736 -51.9115
30.1053 -16.0736 -51.9115
31.3783 60.0788 -51.9115
-29.5583 -4.3629 -51.9115
0.4183 20.6495 -51.9115
-3.5144 3.5933 -51.9115
5.3771 -3.4870 -51.9115
-17.5594 -24.3446 -51.9115
-12.1190 55.8365 -51.9115
-49.5737 -32.1297 -51.9115
-29.5193 -57.1466 -51.9115
-42.6641 -48.6341 -51.9115
-10.1716 49.0280 -51.9115
-5.9814 87.1333 -51.9115
31.7957 -32.9363 -51.9115
51.6230 -36.1824 -51.9115
-51.9179 -7.5978 -51.9115
33.6834 -56.5519 -51.9115
-14.3635 -64.1654 -51.9115
6.6527 0.2266 -51.9115
16.3642 43.8069 -51.9115
-30.3240 28.4072 -51.9115
5.5383 18.6515 -51.9115
19.5043 -12.2164 -51.9115
9.5125 -5.8779 -51.9115
-6.4835 9.5001 -51.9115
20.4837 24.9550 -51.9115
-14.7882 -33.4465 -51.9115
-19.8598 26.6793 -51.9115
-70.2395 -57.7188 -51.9115
6.1737 2.6429 -51.9115
1.2540 -1.5808 -51.9115
63.6874 16.9536 -51.9115
57.3351 -46.5839 -51.9115
22.9330 -17.4669 -51.9115
5.3963 -10.3243 -51.9115
45.8711 49.4422 -51.9115
-77.8187 -37.8084 -51.9115
-1.9292 26.6264 -51.9115
11.7000 -40.5381 -51.9115
9.2411 0.2595 -51.9115
49.1227 -11.6465 -51.9115
0.5687 -6.2204 -51.9115
36.3493 -65.2040 -51.9115
-17.6529 82.7426 -51.9115
-19.6467 61.2039 -51.9115
-48.9121 -50.2396 -51.9115
-16.7133 2.9721 -51.9115
-69.7718 18.5747 -51.9115
-37.4546 20.6333 -51.9115
-42.9318 29.4667 -51.9115
9.0202 -16.2701 -51.9115
-6.1725 46.0554 -51.9115
2.1150 -57.0012 -51.9115
-68.2613 38.3804 -51.9115
34.1537 30.4796 -51.9115
-48.6472 79.4944 -51.9115
13.5720 -45.7460 -51.9115
4.7068 58.6523 -51.9115
-83.4112 -35.1116 -51.9115
-1.7684 -1.8891 -51.9115
58.0945 -64.8762 -51.9115
-59.8755 49.5715 -51.9115
-64.1744 -26.8945 -51.9115
68.5906 17.8409 -51.9115
3.0383 12.9508 -51.9115
-82.7614 24.7842 -51.9115
-64.1731 -36.8374 -51.9115
-60.9394 38.9194 -51.9115
60.6210 -30.3122 -51.9115
-12.8285 26.9532 -51.9115
39.1088 34.1985 -51.9115
24.8897 7.0970 -51.9115
6.1086 13.3980 -51.9115
-16.7102 49.2659 -51.9115
-9.9149 -64.8763 -51.9115
80.0675 30.1305 -51.9115
-6.8120 -40.9160 -51.9115
61.6535 24.3461 -51.9115
-5.9543 59.2384 -51.9115
38.7137 -0.7687 -51.9115
-51.0476 3.3129 -51.9115
22.1243 10.8554 -51.9115
14.9299 21.2926 -51.9115
-1.4957 -0.4661 -51.9115
54.3415 -77.4634 -51.9115
-8.5476 0.4922 -51.9115
-35.0008 3.8845 -51.9115
-35.5911 17.0405 -51.9115
0.9872 -92.9383 -51.9115
-11.6738 -65.1346 -51.9115
16.9129 -18.7643 -51.9115
-0.5953 -10.5334 -51.9115
-36.9147 71.6423 -51.9115
-20.5490 -5.9793 -51.9115
-50.8408 46.9791 -51.9115
49.8557 -56.9173 -51.9115
-6.9315 79.3719 -51.9115
1.1374 69.2974 -51.9115
-5.8475 -20.4455 -51.9115
-37.5608 52.6804 -51.9115
67.3756 -3.0988 -51.9115
5.9345 7.9173 -51.9115
-5.0625 53.1941 -51.9115
9.0492 -2.7618 -51.9115
-31.0492 67.8641 -51.9115
32.5262 4.8212 -51.9115
23.0426 16.2424 -51.9115
13.2602 6.4318 -51.9115
-31.2844 -61.9402 -51.9115
20.0228 -3.4459 -51.9115
-93.2114 6.5549 -51.9115
-33.9119 57.3698 -51.9115
64.5807 -10.5129 -51.9115
-38.8701 51.4244 -51.9115
-18.9405 19.7620 -51.9115
74.2329 -37.8022 -51.9115
82.5574 43.9846 -51.9115
66.1429 63.5618 -51.9115
-9.7961 44.9624 -51.9115
-3.3718 6.6551 -51.9115
-10.5818 -16.3421 -51.9115
67.2975 -14.4311 -51.9115
-42.5095 25.7604 -51.9115
-76.0301 2.6294 -51.9115
-0.7402 -2.2944 -51.9115
78.9883 -24.5849 -51.9115
-9.6123 9.7729 -51.9115
-49.1990 80.6185 -51.9115
81.0130 2.4555 -51.9115
-14.3843 57.3932 -51.9115
2.4658 -3.4662 -51.9115
84.1923 -26.3158 -51.9115
-34.3998 -53.8644 -51.9115
90.5781 0.6235 -51.9115
-55.6677 51.4707 -51.9115
-17.0030 -48.3027 -51.9115
-40.4559 -2.8148 -51.9115
42.1179 -24.3648 -51.9115
21.2729 -27.7605 -51.9115
54.2859 8.1489 -51.9115
13.6172 2.8360 -51.9115
1.4754 10.4518 -51.9115
-15.4961 -50.6127 -51.9115
25.9291 -65.5776 -51.9115
37.8136 -21.0954 -51.9115
-15.3770 -89.0834 -51.9115
10.2436 -63.0316 -51.9115
3.3071 -63.7068 -51.9115
-48.0430 -51.9307 -51.9115
21.6679 -80.1284 -51.9115
-0.0099 0.0031 -51.9115
26.2071 37.1913 -51.9115
10.2179 -40.1685 -51.9115
-22.6543 -22.4888 -51.9115
8.2148 -5.0341 -51.9115
0.2923 -81.2134 -51.9115
59.2189 -30.4069 -51.9115
57.0075 4.9701 -51.9115
65.3464 49.9599 -51.9115
4.7423 -75.1572 -51.9115
-52.6989 -64.9073 -51.9115
-26.5988 78.9855 -51.9115
-0.2669 4.3277 -51.9115
2.3895 4.7392 -51.9115
24.8036 -89.0580 -51.9115
-48.6221 40.6057 -51.9115
6.1018 -11.5344 -51.9115
-0.2640 -11.2370 -51.9115
-17.7887 -21.3942 -51.9115
