ply
format ascii 1.0
element vertex 1024
property float x
property float y
property float z
end_header
8.0686 0.2426 57.9366
10.0295 24.0346 32.1326
-51.2626 53.1474 -36.4984
-50.9572 2.1031 -3.7027
85.0499 -10.0914 -53.4495
27.5869 -14.1589 25.0036
-0.1496 0.8967 68.2219
-8.3562 -5.1227 55.4537
-43.1582 43.1754 -18.1280
-73.6331 49.1435 -57.5847
-96.1877 3.7848 -68.6921
90.5519 -22.3701 -64.4018
32.9779 4.0898 21.8127
-34.4404 31.5849 2.4284
-27.6098 -21.6524 19.1465
86.3382 32.5789 -62.9748
-11.8679 -13.5096 43.7073
-40.8901 64.9733 -40.7030
-4.1353 -2.1000 62.8678
-15.1108 4.2550 46.9865
-58.9313 33.4985 -27.8054
47.1102 7.3780 1.0588
69.1543 -35.2332 -41.9136
-38.4012 37.9431 -7.9873
-15.1548 -2.5565 47.4596
54.8344 -13.1570 -11.4423
8.9455 1.3137 56.5450
-18.5746 70.4443 -35.0784
-3.8781 21.1107 38.7079
9.4166 -0.1618 56.0042
-46.4680 78.3153 -61.2275
-21.2072 -44.7088 -1.5244
-6.7233 6.2172 56.3786
14.3936 -86.0570 -55.7553
-24.2930 -21.6333 22.8198
24.6533 71.3946 -38.9255
71.3255 12.7035 -34.4981
-5.0577 42.1709 8.5416
-1.4560 10.3368 54.5385
47.6294 -24.0234 -7.0689
35.2675 45.6834 -13.3405
-1.5584 -11.5703 52.7639
-21.0891 -37.2497 8.0647
71.4019 17.7431 -36.1141
-35.2848 -1.8612 18.7926
-48.0769 -47.4162 -27.4301
-81.5582 -1.3374 -47.5950
2.3867 -82.6295 -49.1670
90.7132 -22.6113 -64.7099
19.0819 -72.2710 -37.8002
-5.5195 40.3006 11.1209
-11.4246 10.1886 47.5473
8.3277 -5.5147 55.1857
-34.0332 17.8605 14.3397
-67.8415 -58.6371 -59.2272
-2.9750 77.4366 -41.7432
-50.0215 11.3868 -4.1342
-6.4401 -32.1492 22.4483
40.4439 -41.3537 -13.5278
24.0065 6.5574 33.7944
-65.1753 25.0703 -30.7403
-39.0872 -3.1590 13.2204
-6.5372 13.1426 48.4507
5.0157 32.0110 23.0029
-1.0010 -15.1000 47.7981
-68.2596 6.2903 -28.8996
-26.0164 -4.4690 31.6242
-13.3119 -85.6072 -54.8703
-73.5036 11.3360 -37.2616
-59.9237 66.2218 -58.7089
72.3481 38.2662 -47.9906
21.5281 -23.9507 23.2867
-11.5565 -23.5320 31.8838
-52.8590 27.0079 -15.7044
39.7139 -11.5113 10.1563
-14.7793 50.8617 -6.5239
-13.5377 -87.4298 -57.5061
-7.5241 89.6669 -59.6746
10.3215 -2.4835 54.2840
0.3213 -19.3671 41.7150
-41.5464 -5.6943 9.3145
-92.3428 -22.9253 -67.0895
-8.6086 12.6135 47.6000
-64.1721 18.6148 -26.4135
30.4365 30.4736 7.6846
60.6122 -21.0338 -22.5950
77.6881 -28.2467 -49.1668
68.7667 -29.5347 -37.9341
-48.6737 -2.2363 -0.4353
14.5438 49.9062 -5.1121
60.3080 34.0154 -29.8912
23.5596 19.5208 25.5956
-38.1868 43.8585 -13.9729
52.4113 6.8587 -6.3699
47.5575 3.4025 1.0666
16.5370 -46.8270 -1.7796
1.1854 1.5018 66.7801
22.2849 -28.0419 18.0968
-20.0863 58.8011 -19.6932
-39.4044 51.2611 -23.3100
-4.0065 -8.6874 55.7906
25.3366 -2.3704 32.9884
22.3641 -42.6181 0.4197
-29.5458 54.6560 -19.6841
50.2379 14.6993 -5.6319
2.8317 6.6345 59.1696
24.0097 -1.0118 35.0220
51.8241 24.4985 -12.7806
-20.9859 -18.5984 29.2638
-46.4280 50.9718 -29.4713
-12.0341 16.5991 40.0886
-6.9976 11.3982 50.3229
-25.1502 -83.6818 -55.9378
59.3223 -60.7001 -52.3407
75.4498 32.6469 -48.5152
-6.0659 36.1237 16.9324
4.3985 -27.3803 29.7089
-71.9593 57.2131 -62.4744
-0.0469 -7.4204 58.8724
-64.7563 -50.1037 -48.0363
-6.2202 -59.7944 -16.7927
22.1965 -5.0834 36.8310
-44.3126 29.4166 -6.8433
-6.2512 -3.1690 59.4640
41.9002 1.7405 9.3124
90.8500 28.1788 -67.0517
26.0917 -9.1220 29.8395
9.8246 -58.3014 -15.3659
59.5650 18.2223 -19.9126
49.6719 -5.5284 -2.2352
-23.3114 74.6791 -42.8046
4.3835 -2.5418 62.2515
18.9740 31.7255 16.4485
-27.4714 41.2180 -1.5966
-10.0244 -3.0346 54.4886
11.9370 22.3770 33.1111
3.4905 -56.0121 -11.0545
-10.7368 -47.9434 -1.0181
65.5696 -50.3488 -49.1760
11.5882 0.4858 52.8735
53.2648 56.5006 -41.9669
54.3147 61.0451 -47.7978
50.3956 -45.0794 -27.5595
12.4464 -71.3032 -34.4025
-65.8124 50.8692 -49.9082
52.3378 -29.8358 -16.9759
-0.0423 68.4007 -28.6869
57.3745 46.1832 -36.2280
1.3955 4.0048 63.4377
-49.2771 -39.3360 -21.0068
-10.2793 6.1404 52.3347
22.0604 -34.7664 10.4058
20.5873 11.3154 35.7959
49.2541 -11.2430 -3.0140
17.6102 46.6490 -2.0682
-59.1020 11.3033 -16.8732
70.8722 -2.9796 -32.3255
-0.7213 7.3192 58.9669
12.0534 -28.6950 24.8378
36.2279 -2.6217 17.3729
-41.0694 -51.2234 -24.7439
4.2975 2.2497 62.5623
-2.8844 0.6690 65.2757
-7.0097 7.6594 54.6191
-35.5846 -14.8313 14.1723
46.3690 -12.0465 0.7375
-2.3256 1.4153 65.6183
-2.1674 0.6003 66.2981
4.2610 91.6620 -62.2290
6.1945 8.2177 54.7508
26.0089 -4.9554 31.5103
27.0716 -46.8342 -8.1464
16.0148 89.6690 -61.2625
-29.6127 68.4539 -37.5660
66.3845 10.4732 -26.9708
-19.4366 19.9855 29.4977
-69.5407 25.4856 -36.8181
52.7594 9.9020 -7.5508
20.0874 0.7456 40.6646
64.7459 -38.1977 -38.4120
74.1319 -30.2237 -45.4228
-1.1067 -1.7804 66.5171
-8.1411 65.2342 -24.8667
-18.6697 -12.7010 37.1049
-71.2748 -16.5330 -35.5309
67.5429 16.4489 -30.2897
2.5264 25.8246 32.2696
-5.5717 58.0138 -14.1560
-79.3764 6.6537 -44.8462
-40.9961 -53.2279 -26.9420
91.4553 26.6153 -67.2379
10.2094 -28.7226 25.7577
-35.4091 -43.7318 -11.2683
-4.2775 -4.3716 60.7452
-39.3810 68.7770 -44.2702
-82.2881 -18.9701 -51.7264
-1.5795 0.9187 66.9036
33.9900 -14.4416 16.4998
-22.9314 61.1223 -24.2092
-33.9921 -47.6204 -14.4820
0.8961 3.5485 64.2721
-62.0984 -69.3519 -64.1385
39.7351 11.6331 10.0782
-33.7898 53.0716 -20.8107
10.1129 3.5104 54.1565
-30.4590 -14.5406 21.0644
-15.7374 35.6459 13.5783
-1.1761 52.9210 -6.4789
-51.0571 -8.0647 -4.6927
65.2005 -69.9837 -67.8124
-30.6939 -7.3055 24.2239
-19.0783 11.5729 37.4874
-3.1282 3.7753 62.4873
-12.3335 0.8832 51.7726
-1.8115 -27.6020 29.8092
4.2531 -12.7708 50.1999
50.4667 63.5111 -46.9508
68.5140 -5.6350 -29.1817
-32.5199 -8.3763 21.3090
-42.9157 6.1467 7.2773
0.8543 -57.8396 -13.5316
1.0495 8.7503 56.8729
77.5829 -18.3475 -44.9440
-22.7314 44.7003 -2.4786
4.2973 -61.6242 -19.1716
-89.9091 3.1479 -59.6491
-42.1154 -71.6609 -49.8223
-24.7361 -21.3192 22.6384
84.3771 -5.7044 -51.9033
-14.8733 -65.6694 -27.1533
64.2370 70.5623 -67.4862
31.1248 23.3681 13.6424
-0.8489 10.3756 54.5795
-3.6173 -82.0047 -48.3349
40.4505 -6.7980 10.6314
15.8291 48.5527 -3.7993
65.8429 -35.5919 -37.9429
-23.4401 36.6486 7.0620
16.0733 -21.5775 30.8936
-3.1206 -15.7911 46.4148
61.5900 -23.4606 -25.1061
25.0445 -82.2621 -53.9426
31.9465 56.2257 -23.3267
28.4482 54.1927 -18.3559
76.7340 -3.7396 -40.7831
39.5049 -29.4596 -1.2319
5.6769 -16.9771 43.8237
-23.5270 -22.2221 23.0589
-19.9942 -56.5607 -16.6112
22.5845 35.6144 8.9746
-26.5717 -22.7636 19.2877
22.9360 -21.9908 23.9026
-10.3433 -65.8520 -26.1865
-0.5565 -20.9941 39.3719
50.4426 -29.8134 -14.6063
47.7666 29.0606 -10.7550
-94.6742 2.6705 -66.4661
-60.7211 -44.1499 -38.2703
-37.3694 35.8243 -4.8035
80.2462 51.7815 -67.6017
-1.5445 2.4474 65.3719
-24.1941 3.0320 34.5162
29.1083 -50.7249 -14.4469
6.4363 -16.0968 44.6353
-89.0952 34.8363 -67.8326
-9.0525 -44.4927 4.3328
66.8532 12.0454 -28.0106
32.9212 -4.6440 21.7889
33.3853 -18.4672 14.7454
26.2095 -61.0520 -25.8717
9.7309 -51.9549 -6.3701
-47.5631 34.4526 -14.8012
11.2782 17.2811 39.8972
45.5861 -19.2837 -1.5437
-12.5488 86.2245 -55.5837
-64.4918 40.9842 -40.1910
-17.2743 -7.0385 42.7438
-90.6592 5.3644 -60.8747
49.1271 1.8222 -1.0611
-58.0574 39.2133 -31.0688
-12.6635 32.2199 19.8189
-58.7108 -25.6586 -22.4726
-23.2712 17.8034 27.4560
65.1050 26.8403 -31.5872
23.8716 -81.6799 -52.6602
29.2965 -33.5111 5.6147
20.9858 -57.5825 -18.4731
-2.6127 -37.9867 14.8547
72.2192 3.8596 -34.3177
15.9215 -17.4110 35.6507
42.9644 -32.0214 -7.4130
74.4003 36.1085 -49.2181
81.9700 -19.9963 -51.6220
7.8842 -12.4959 48.3120
9.5401 -15.8662 42.9444
32.3443 -42.2989 -6.9297
9.8013 6.4082 52.7129
31.5251 -10.1228 21.9851
-82.2133 44.3464 -64.5983
-27.2205 -91.9569 -68.1738
15.1171 0.1561 47.8199
72.4458 -24.5673 -40.3135
-31.6027 -53.5824 -19.7946
-48.6402 -9.6776 -1.6824
1.3173 -1.2317 66.9377
-10.9027 -93.6695 -65.8774
-26.5686 -10.7591 28.3690
36.2809 48.3776 -17.3003
51.9941 -22.3607 -11.7405
-2.5124 -1.2555 65.4944
2.1081 -17.6710 43.9742
-6.4388 3.0135 59.3195
6.0469 -62.4772 -20.6007
-18.8296 -23.9891 25.7386
-3.4950 65.8603 -25.1723
-11.6095 61.3145 -20.0763
22.8042 -64.0761 -28.1302
-82.2222 -22.5873 -52.9063
-41.2723 86.0517 -67.5080
-52.1065 16.9885 -9.1667
-6.3935 -27.1201 29.5190
17.3752 22.7668 28.4047
8.8706 24.5886 31.9941
-24.8602 -20.4567 23.2999
-63.5156 3.9575 -21.8493
0.0547 0.6497 68.5911
-36.5704 24.2254 6.5410
-23.9495 -60.5815 -24.0102
38.6826 25.1622 3.2674
84.4542 39.4414 -64.3099
-57.8422 -28.6970 -23.1859
81.7812 44.7052 -64.2990
-87.9503 37.3933 -67.6974
57.8462 -63.3035 -53.6018
-17.1542 -30.5246 19.2511
-71.2839 0.0920 -32.8267
3.2513 2.0114 64.0376
84.4224 35.2436 -61.8308
-13.7183 -32.3612 19.0583
-54.4069 38.7773 -26.4052
2.2102 2.9679 64.2138
-29.8418 15.8973 20.9777
-49.1016 59.7644 -41.5343
-13.3126 -17.5090 37.9451
39.6133 29.1539 -1.0958
-3.9896 -32.8636 21.9931
-30.4212 -19.3223 17.7803
4.3918 -3.4871 61.4752
23.7520 25.1340 19.8730
19.8807 13.2661 35.2094
-82.1894 -4.4776 -48.6605
74.8308 41.2742 -53.1800
15.3924 50.7109 -6.5670
-4.7528 0.3126 62.6881
0.6639 -3.6797 64.1584
10.5550 -18.1201 39.4170
8.5776 2.5985 56.6582
-36.9985 -53.1123 -23.4144
47.6306 -66.8996 -48.3906
19.8833 -86.3954 -57.7677
-24.9246 23.0790 20.7527
-28.5261 40.9293 -2.1071
4.7880 42.5727 8.0133
-20.4114 6.6029 38.7239
-3.1941 -7.4224 57.9247
61.4273 -30.0411 -28.6567
-1.0024 -1.9997 66.3154
-30.2498 83.7210 -58.2909
66.9211 51.1535 -51.4191
43.1974 13.6384 4.4837
39.0545 -27.4007 1.0250
46.5329 49.8290 -28.3671
-13.2050 33.1253 18.3239
28.6316 13.0825 24.3278
-3.5395 11.0039 52.9299
5.4330 21.3599 37.8808
-0.2562 3.5075 64.4776
1.3375 1.1242 67.0185
-79.9318 -18.6870 -48.3387
42.8427 41.4809 -16.0984
9.8152 -18.5948 39.3363
57.7621 11.8448 -15.1371
-11.9815 -42.6538 5.9118
-0.0409 0.0530 69.4312
14.0825 -30.6629 21.0781
10.2591 20.4186 36.7162
29.8689 -6.5765 25.6123
17.6001 8.2567 41.6132
29.8117 44.4246 -7.2920
-38.9266 -57.1039 -29.7047
-1.0310 -1.1731 67.2847
18.3719 7.6126 40.9728
3.2731 85.8407 -53.8179
-26.8960 -78.5333 -49.6657
-26.7482 -85.6250 -59.2779
44.7433 44.6924 -21.2776
-0.2365 6.9078 59.6028
-17.1426 77.5754 -44.5477
34.7516 -69.3970 -41.9130
34.8140 11.5933 16.8402
89.6506 21.8689 -62.9733
4.5945 12.3895 50.5538
39.3422 -71.1124 -47.1652
-64.0024 -34.7583 -35.0491
-10.2991 56.6270 -13.1153
5.5995 -32.8629 21.6605
87.8524 37.9466 -67.8811
-49.8729 54.8787 -36.9494
30.3544 -23.9400 14.0183
66.2389 -27.4045 -33.4013
25.7621 44.1269 -3.8407
-1.2425 77.8907 -42.3274
3.2465 21.7495 37.9520
-1.0996 -57.1344 -12.5251
45.8368 54.9863 -33.2600
0.4614 -0.4507 68.6012
24.7973 27.6657 16.1815
1.1377 6.6640 59.8203
-25.3696 -5.3475 32.2994
88.6448 24.6952 -62.6015
-49.4546 -37.5437 -19.6269
65.1580 -22.6083 -29.5026
18.8550 1.3610 42.3836
9.1234 54.9786 -10.4941
59.4377 -8.5406 -16.6937
32.9427 14.7216 17.7178
-65.7838 41.6540 -42.2727
-70.9329 -13.1224 -34.0509
52.1925 -67.5539 -53.0487
-44.1947 31.7613 -8.6180
-58.4944 36.8078 -29.7076
-38.4831 -26.6355 2.3264
13.2755 -48.8455 -3.1525
-14.1265 -33.1359 17.8054
75.6888 35.0008 -50.2092
-10.6332 -65.3797 -25.5825
24.1387 24.9542 19.6759
29.0151 -87.2294 -62.4695
-25.4243 36.0059 6.2381
29.9860 -0.5726 26.4636
-14.5797 17.8471 36.4373
-66.0894 -43.0115 -43.6950
5.1849 -81.4352 -47.6394
-27.9570 -11.8463 25.9298
-6.5546 -68.9713 -29.9523
38.2707 -73.4315 -49.3709
0.1772 3.3124 64.7643
-42.0797 67.8093 -45.0616
14.2609 -7.2691 46.5439
-1.3113 14.9000 48.0501
-59.7144 3.6057 -16.3706
63.7669 38.0428 -37.0896
53.5274 17.8626 -11.4974
-44.6955 70.4695 -50.2934
14.1586 6.3606 47.2401
-37.1382 34.7401 -3.4920
53.3683 56.9889 -42.5797
11.8633 -69.0784 -31.1120
5.7069 4.3237 59.2467
-23.0391 6.0323 35.3311
21.7281 82.4753 -52.9368
55.0210 -22.9723 -16.0848
75.6480 36.7197 -51.2131
-25.6201 2.1720 32.6083
-6.2883 6.5299 56.5105
-3.6087 -10.6384 53.3970
13.1806 22.3092 32.3212
-27.8839 -47.6392 -9.7320
29.2019 -22.9224 16.2223
-9.6019 -82.5983 -49.8714
0.8794 27.0006 30.7375
-6.6245 -2.3615 59.4292
-72.8797 15.3113 -37.4026
-9.9261 -2.7508 54.7375
-31.9723 65.5189 -35.1527
54.9352 10.6310 -10.8156
0.1460 -0.0078 69.3174
21.5283 7.0537 36.9986
-18.1873 5.3941 42.2883
-37.4037 30.0317 0.6515
24.2216 -68.8334 -35.2487
20.8064 -41.8433 2.4282
-7.7774 -2.5234 57.7868
37.6494 9.8070 13.6640
24.6477 13.8376 28.9406
-24.8778 -24.1600 19.7334
47.3349 -37.3611 -17.0595
-43.4286 -45.9983 -21.3062
11.0687 -17.7555 39.4846
-12.7054 86.0074 -55.3079
-13.4753 5.8516 48.4330
73.2567 17.3458 -38.5679
0.7138 19.6095 41.3520
-41.6009 5.2958 9.3120
-35.2189 18.0214 12.7218
-13.4398 43.6319 3.9730
2.1003 -65.0085 -23.8648
50.6149 20.4500 -8.8566
24.9538 -89.2461 -63.5330
-12.4128 12.4935 44.2396
5.8479 4.7529 58.7069
54.9115 36.9857 -25.5354
4.3939 17.2842 43.9201
0.8580 1.2277 67.3766
-57.7145 57.2059 -47.1537
0.2637 -94.5559 -66.2427
67.5861 -50.5337 -51.6441
-20.2452 19.0855 29.5771
8.0369 -3.8690 56.7197
2.9305 1.1016 65.0320
-8.7528 6.2445 54.0888
-25.4451 -58.5307 -22.1130
1.8317 86.0278 -54.0249
-0.5694 1.1302 67.7101
-55.6056 63.9398 -52.1429
33.8682 12.1185 17.8778
-16.3433 71.0469 -35.1508
-2.8723 5.0122 61.2325
80.0320 48.3308 -64.7164
-4.7111 -3.6435 60.9758
-25.2489 15.2614 27.1652
9.5799 45.9877 2.0776
-25.2279 28.1027 15.3016
61.3886 58.4170 -52.1499
28.5324 49.2273 -12.1710
-15.1695 -20.0600 33.4154
-35.4551 84.1396 -61.5738
-31.9679 -84.3604 -60.0082
34.8961 -23.5252 9.0985
58.8542 -28.5244 -24.3816
67.7980 -53.4247 -54.4134
-43.7055 6.2829 6.1270
-10.3395 0.3209 54.6740
60.8201 -37.1143 -32.7780
86.4481 -15.6958 -56.6298
25.0323 -41.2241 0.2768
7.7456 -0.0281 58.4056
-14.1031 45.0325 1.7700
34.1735 -56.7598 -25.6036
77.3576 12.8360 -43.0665
-21.2115 -89.7873 -62.9439
43.1081 12.5765 5.0495
-62.3186 -68.6829 -63.6366
49.2500 70.6284 -54.1066
-13.7934 -62.4518 -22.3062
-39.0403 74.5260 -51.2755
35.9136 30.1648 2.1838
7.5414 11.8084 49.4092
-13.6723 52.8759 -8.8923
33.1506 10.2695 19.6958
79.7338 53.0510 -67.9854
9.2065 45.9716 2.2076
-50.8728 40.0937 -23.4780
47.7788 -36.8800 -17.1370
-9.2737 0.1347 56.2101
4.3885 -0.4660 63.1905
-41.8344 25.7230 -0.9879
-5.2475 -36.9392 15.9550
62.6309 -6.3853 -20.8683
21.0708 31.4335 15.1908
8.1081 28.3742 27.1551
-34.8141 89.4690 -68.3210
33.5445 -44.4990 -10.4878
51.2939 -12.2704 -6.2018
-0.5640 1.8373 66.7676
62.9248 7.7923 -21.5144
74.8478 -21.3540 -42.2324
-2.8830 -12.9233 50.5150
-2.2086 17.0224 44.8805
23.6960 37.8573 5.3990
-7.0553 -41.5707 8.9839
46.5161 62.1215 -41.9057
-20.4282 -74.5151 -41.4141
-49.1815 -50.5544 -31.7451
-58.9367 -32.7387 -27.2777
25.3278 11.4500 29.6164
-39.2450 9.3734 11.5918
-0.5413 41.0962 10.5135
-49.2198 -8.9190 -2.2966
61.1176 28.2379 -27.1432
-41.9919 41.4865 -15.2306
-1.5575 -43.1836 7.4812
5.2859 -11.5696 51.2632
-30.1912 40.0593 -2.4990
-1.1163 -9.9857 55.0999
-80.2404 40.4658 -59.5089
-1.6143 -13.9620 49.3462
-6.5472 92.7250 -63.9448
60.7355 41.3515 -35.9745
61.0911 -13.7673 -20.3911
16.2257 -17.6530 35.0995
-79.5326 -20.2781 -48.3241
29.2465 -61.5287 -28.2923
78.8813 -22.2358 -48.1496
-6.9436 -10.6802 51.2358
-54.7207 74.4161 -63.1027
-19.4472 56.4599 -16.2158
13.3999 -22.1761 32.3238
-5.3044 69.0191 -29.8671
-16.5212 -4.8464 44.8054
61.5283 -56.6854 -50.5968
1.0872 0.2428 67.9277
-16.4744 -23.3974 28.4393
-24.7829 35.8961 6.8946
-66.5822 17.4513 -29.3050
59.7648 -14.4747 -18.7678
-44.0036 -51.8697 -28.1408
11.8147 6.8803 49.8960
56.1485 35.1314 -25.5750
-53.7435 57.5687 -43.5557
0.9533 16.5109 45.7804
-8.4302 14.8333 45.0292
49.6554 -59.3351 -41.5673
-42.2887 -36.3049 -10.5006
-68.4213 -37.8788 -42.7668
-54.9891 -24.5866 -16.9626
-78.8755 31.3456 -52.3428
-7.2779 1.8075 58.7597
8.8446 -38.0890 13.3815
30.5806 -30.3041 7.7098
7.7872 -8.9117 52.5343
-20.6987 -0.8673 39.7806
-36.6763 -83.3841 -61.2708
46.3451 73.6764 -55.4513
-78.1016 -25.8070 -48.5795
67.2451 54.6947 -54.9333
-13.9084 -4.3687 48.5947
-2.7358 -6.1375 59.8788
-0.0567 -0.9287 68.1913
-16.3749 -78.0404 -44.9683
9.3456 66.6829 -27.1561
-12.2230 -23.2514 31.8093
-47.0143 -71.4269 -53.2550
-4.5265 -25.9188 31.7481
-33.1753 -39.7508 -4.8157
62.4184 -0.2356 -20.0978
-19.4903 -42.2898 2.6662
-89.3634 -18.5804 -61.5306
23.0241 -0.5265 36.4591
-0.3628 33.7752 21.0279
38.4953 -60.7233 -33.7073
-18.8911 63.9896 -26.2734
-40.5782 72.5712 -49.8584
7.3734 41.5429 8.9450
63.7667 -32.8910 -33.4954
-81.6032 39.3941 -60.5828
-50.2974 -35.5243 -18.8899
-40.6407 -44.9208 -17.4527
-55.8762 13.6780 -13.0722
-1.9682 -77.3181 -41.5270
-63.5909 15.3818 -24.4139
26.7625 -39.7773 0.6886
70.2135 56.1853 -59.5945
-28.5567 -59.1848 -24.8291
1.9318 -1.3239 66.1646
75.8927 14.6232 -41.4488
-31.9846 11.2321 20.8522
-5.1870 0.1334 62.0770
-25.0032 21.1615 22.4938
57.2018 47.6257 -37.3482
88.9559 -9.8688 -58.9849
53.7672 -9.0544 -8.7622
-59.6859 65.8984 -58.1356
23.6034 -38.1690 5.0892
-8.1495 -51.7749 -5.7297
13.1850 -75.9305 -41.1301
-10.3949 49.2951 -2.8104
6.2345 -76.1061 -40.1168
-50.2974 -22.3462 -9.4999
-0.7547 10.8925 53.8496
18.1152 -3.1827 43.1179
17.9321 -71.0832 -35.7362
16.8151 45.6270 -0.2942
2.4457 -11.6334 52.4582
39.6288 -73.2039 -49.9972
5.8722 86.2997 -54.6738
5.9966 -2.2271 60.3424
14.0891 -0.0263 49.2972
-13.1528 3.6794 49.9166
-17.8912 6.7903 42.0499
-19.0066 2.6902 41.9644
-53.3100 52.4453 -37.8507
-14.6388 13.5432 40.8921
-13.1001 -15.4815 40.4075
26.3310 53.7867 -16.4609
-59.4720 21.3233 -21.1894
-42.9548 -54.5029 -30.1146
-26.6766 19.5642 22.0264
25.4118 28.8152 14.3617
40.0557 -45.3769 -17.3814
1.9159 -19.8406 40.9064
94.9158 12.2850 -67.8957
-27.9323 -71.2753 -40.3926
-76.2266 29.1961 -47.6774
39.1638 -16.0970 8.7287
7.6002 -29.8202 25.3407
51.7356 54.1605 -38.0182
-10.3081 -18.5424 39.0653
9.7905 3.0350 54.8095
-8.5828 0.9582 57.1269
65.3860 -32.6100 -35.3866
52.7780 -46.0928 -31.0864
29.4617 -5.7812 26.4175
45.1348 -16.4182 0.5653
59.1236 -7.1045 -15.9769
-7.3252 -16.8908 43.0919
7.3982 -66.8675 -27.0712
8.3864 90.2472 -60.6137
-8.8168 -24.1519 32.6099
8.8311 -38.4719 12.8501
61.5521 38.7577 -34.9146
-40.5613 -53.9774 -27.4205
29.4898 65.4275 -33.5195
-38.0309 22.8065 5.8537
-30.9568 81.9455 -56.2514
21.7919 -21.3172 25.7555
-41.1369 -51.9242 -25.5912
41.8618 -64.0080 -40.2899
1.7479 47.2263 1.6703
-14.2409 -18.7502 35.7197
-71.6166 34.6996 -44.7390
71.6971 23.1497 -38.6533
-16.7416 -42.6195 3.7795
8.5439 -5.4903 54.9448
26.4038 40.3089 0.3375
-64.5857 55.9272 -53.1460
-12.4526 22.5584 32.5291
-6.1190 -19.0229 40.8347
33.1232 27.3336 7.8641
-25.1403 0.0359 33.4292
-12.5825 12.3418 44.2202
84.8641 7.0874 -52.7502
33.7662 -65.1655 -35.8568
-63.1311 31.4445 -31.7423
7.5947 24.4571 32.7560
82.6851 -26.5529 -55.1689
27.9586 37.3907 2.4899
3.0767 5.8208 60.0736
-71.3706 27.7974 -40.4496
-29.7992 -20.8593 17.2984
0.4596 51.0489 -3.7750
44.1382 -2.3584 6.0604
-4.1698 1.3085 63.2521
-11.7877 -8.3256 48.8058
-50.9453 -25.7154 -12.4140
-2.0490 2.2330 65.1756
-81.6484 -12.6496 -49.1074
-12.3411 24.3193 30.3692
-54.6251 23.4605 -15.8347
23.2511 16.5750 28.5272
19.8764 -43.3245 1.0848
8.5329 -7.8191 52.9091
-28.9846 21.0814 18.0653
-68.1353 -11.7261 -29.7441
-36.9695 -38.3936 -7.0032
26.2852 18.3707 23.4811
30.4350 4.7440 25.2991
-6.0078 -3.9384 59.2126
-3.7884 -1.0220 63.8931
16.9808 -17.7532 34.2528
3.9332 62.4780 -20.3602
-39.3148 31.6298 -2.9248
60.1837 -50.4692 -43.2518
-4.3024 77.9930 -42.6304
26.6681 -13.0938 26.8689
44.5757 -78.5206 -60.1185
71.6298 -61.1264 -65.6825
32.6872 18.3325 15.7153
12.6321 16.3149 -69.5273
54.8055 -16.8386 -69.5273
84.5631 24.6688 -69.5273
24.0154 5.4535 -69.5273
74.4548 -15.2403 -69.5273
-4.6518 -18.3096 -69.5273
46.7869 -38.7315 -69.5273
-0.5121 0.0100 -69.5273
-53.6626 57.6693 -69.5273
1.6438 -5.3736 -69.5273
-2.3770 6.1933 -69.5273
36.5463 -12.8801 -69.5273
-27.1510 -22.1963 -69.5273
68.9619 26.5186 -69.5273
0.8955 -37.0406 -69.5273
7.1147 58.3681 -69.5273
32.0276 33.9814 -69.5273
57.3597 72.4987 -69.5273
33.6421 -36.4494 -69.5273
6.8574 26.6225 -69.5273
-68.7859 -28.4175 -69.5273
-31.8642 -6.2301 -69.5273
45.3352 24.3859 -69.5273
-32.6750 75.2777 -69.5273
10.1798 -63.3431 -69.5273
54.3842 3.7213 -69.5273
-64.1292 13.8303 -69.5273
-78.2736 -56.3617 -69.5273
16.3982 -27.1451 -69.5273
-56.5000 1.0319 -69.5273
19.8306 -7.5604 -69.5273
-77.2615 33.6451 -69.5273
-27.3559 15.2051 -69.5273
-24.5961 -6.4827 -69.5273
58.9445 30.6753 -69.5273
7.7519 46.6822 -69.5273
-11.5868 9.1625 -69.5273
-67.8200 37.7299 -69.5273
16.7248 6.8439 -69.5273
-28.0295 1.7315 -69.5273
0.5343 0.2674 -69.5273
-74.5531 -44.9633 -69.5273
1.1846 -16.1542 -69.5273
-13.1167 8.3389 -69.5273
-44.4577 -9.5049 -69.5273
54.4196 69.6909 -69.5273
-21.2456 -78.4659 -69.5273
1.0346 -3.5728 -69.5273
80.1376 -51.1423 -69.5273
-5.5112 5.2745 -69.5273
-38.4594 22.1583 -69.5273
-88.0155 -3.7328 -69.5273
0.7326 -2.5370 -69.5273
-41.1076 1.1789 -69.5273
-38.0937 -44.0346 -69.5273
39.3733 -26.7345 -69.5273
-54.8672 -52.7907 -69.5273
38.3827 -53.3212 -69.5273
24.5678 10.8026 -69.5273
14.3478 -24.2857 -69.5273
21.2721 -79.7628 -69.5273
-30.9871 75.3811 -69.5273
26.7582 -70.0095 -69.5273
36.4812 43.3071 -69.5273
10.6119 -68.2386 -69.5273
-48.7116 4.1640 -69.5273
-63.7759 -64.5351 -69.5273
59.4896 -62.2301 -69.5273
51.3740 -8.9246 -69.5273
-24.2579 61.2104 -69.5273
-5.5495 5.8834 -69.5273
-49.3275 4.3539 -69.5273
-61.4057 -54.9273 -69.5273
33.5657 -27.9606 -69.5273
-51.9319 -7.4790 -69.5273
-58.3082 34.8102 -69.5273
-34.5161 -69.8610 -69.5273
4.3135 -1.1814 -69.5273
-77.0191 -16.5381 -69.5273
42.7702 9.0687 -69.5273
40.9612 -7.8526 -69.5273
-15.5488 -4.8009 -69.5273
20.5379 -24.1306 -69.5273
-49.2760 49.2223 -69.5273
20.3363 15.7822 -69.5273
3.7740 6.9423 -69.5273
88.6089 14.2320 -69.5273
-15.3974 0.2292 -69.5273
9.4354 70.7449 -69.5273
78.8853 17.8747 -69.5273
-52.2120 -77.3932 -69.5273
-65.0478 61.0164 -69.5273
0.0966 0.0587 -69.5273
-37.9747 -6.2163 -69.5273
9.4081 23.6904 -69.5273
-60.9208 52.8164 -69.5273
0.7351 -56.5727 -69.5273
10.9230 -10.1066 -69.5273
-53.2475 14.4571 -69.5273
-67.4748 -52.8478 -69.5273
33.9107 6.0887 -69.5273
3.4255 -16.0690 -69.5273
-18.5115 3.1489 -69.5273
6.7929 0.5070 -69.5273
9.2229 -5.7726 -69.5273
62.4812 68.4416 -69.5273
-11.2822 -24.8027 -69.5273
-46.8954 0.7450 -69.5273
-47.7925 72.0957 -69.5273
-1.2068 0.0198 -69.5273
-39.6857 -77.3208 -69.5273
-58.5281 14.8034 -69.5273
-55.1032 -59.1083 -69.5273
22.4852 -1.4733 -69.5273
46.3096 40.6209 -69.5273
31.2630 42.9477 -69.5273
-16.1407 -62.6039 -69.5273
-19.9478 52.7235 -69.5273
-4.9859 -23.6923 -69.5273
10.6613 91.5110 -69.5273
21.9830 11.8870 -69.5273
-21.3824 86.4881 -69.5273
8.2080 9.5120 -69.5273
-31.8643 -77.2077 -69.5273
-40.8247 -43.2392 -69.5273
-9.8112 1.6644 -69.5273
-14.0659 35.7590 -69.5273
0.6607 5.5100 -69.5273
-15.2705 1.8555 -69.5273
-3.7427 0.2121 -69.5273
-21.9617 56.7028 -69.5273
26.5979 28.0314 -69.5273
-6.0552 13.1354 -69.5273
-47.5684 13.8001 -69.5273
-51.3419 23.7538 -69.5273
-86.9346 33.1674 -69.5273
-11.1403 -14.6227 -69.5273
-33.2474 69.7947 -69.5273
-35.4084 -54.7638 -69.5273
-58.6693 17.8660 -69.5273
-11.4107 -42.9140 -69.5273
65.4653 58.3783 -69.5273
15.8948 -39.0812 -69.5273
29.3533 -17.0773 -69.5273
-5.0808 -88.1318 -69.5273
-43.8602 13.5562 -69.5273
37.5256 7.4826 -69.5273
-52.5381 21.8786 -69.5273
-77.6294 -56.8585 -69.5273
-37.1819 78.0801 -69.5273
65.7713 -1.6020 -69.5273
-75.0539 -47.1246 -69.5273
-25.5224 -55.6553 -69.5273
-17.3631 25.2787 -69.5273
3.1491 -6.2804 -69.5273
28.7916 -25.8941 -69.5273
-9.0954 -0.1390 -69.5273
0.2177 -0.8339 -69.5273
-9.5104 12.8326 -69.5273
50.2410 7.3016 -69.5273
16.5191 -38.2371 -69.5273
10.9907 60.9048 -69.5273
-86.0071 27.1684 -69.5273
20.4860 39.7890 -69.5273
-17.3780 5.8432 -69.5273
-23.2638 25.2116 -69.5273
84.0113 -2.1326 -69.5273
60.7024 7.9622 -69.5273
36.1060 -49.2574 -69.5273
-36.1440 -13.1456 -69.5273
-56.6247 -8.5243 -69.5273
-16.4686 24.2896 -69.5273
-3.5823 -33.8583 -69.5273
-11.2835 -30.6342 -69.5273
18.4580 1.7994 -69.5273
44.3063 6.3776 -69.5273
-1.9259 9.1084 -69.5273
-21.3320 -14.3827 -69.5273
-2.7399 -17.6673 -69.5273
-59.8980 -34.7011 -69.5273
30.8990 -26.9598 -69.5273
92.3765 -16.4010 -69.5273
21.4759 26.4022 -69.5273
-29.9906 57.5332 -69.5273
3.3055 0.1939 -69.5273
8.5481 30.9786 -69.5273
15.0821 52.9717 -69.5273
32.3817 -41.7009 -69.5273
-3.0552 42.8701 -69.5273
-12.2661 -38.1307 -69.5273
-12.1907 -70.9000 -69.5273
-30.6811 76.8760 -69.5273
7.1830 5.6852 -69.5273
46.7729 -58.9555 -69.5273
-0.6866 -22.0012 -69.5273
7.8288 16.7724 -69.5273
-20.3936 -8.7609 -69.5273
-21.7550 -13.3658 -69.5273
33.6957 25.6607 -69.5273
-4.2541 0.5576 -69.5273
-28.9228 6.6461 -69.5273
-0.5491 0.1626 -69.5273
6.4765 -8.1099 -69.5273
19.8358 -20.2086 -69.5273
-31.7117 -65.0973 -69.5273
27.5508 -3.6979 -69.5273
-13.2432 22.1147 -69.5273
-59.1720 2.6502 -69.5273
-6.1658 -13.5054 -69.5273
45.9167 -45.1345 -69.5273
7.0683 -0.7102 -69.5273
45.9736 23.6359 -69.5273
94.6137 -4.0631 -69.5273
0.0359 -34.4144 -69.5273
27.5965 62.7856 -69.5273
-23.3805 -56.1666 -69.5273
-39.8394 82.5387 -69.5273
75.3865 -52.7912 -69.5273
42.0865 66.0517 -69.5273
39.5353 -62.9713 -69.5273
-17.3358 -74.1107 -69.5273
-25.9259 -3.8082 -69.5273
40.2436 -10.7574 -69.5273
18.4436 -56.3853 -69.5273
-6.2491 -5.2496 -69.5273
24.8689 5.0801 -69.5273
0.0251 -4.0383 -69.5273
67.5765 -11.2785 -69.5273
35.7372 31.6987 -69.5273
-12.2873 4.2175 -69.5273
-18.8160 59.9487 -69.5273
29.9796 36.3806 -69.5273
64.5817 -5.4594 -69.5273
-68.1748 47.0798 -69.5273
-29.5035 27.4952 -69.5273
-23.8228 7.4194 -69.5273
4.8973 78.1199 -69.5273
18.1510 -90.5621 -69.5273
2.8706 6.1616 -69.5273
-30.2915 19.9603 -69.5273
27.8001 85.0776 -69.5273
11.3994 3.5591 -69.5273
1.0412 -1.0243 -69.5273
-46.8935 -19.8836 -69.5273
-8.3543 -56.4886 -69.5273
67.8313 56.7096 -69.5273
9.2862 -1.5689 -69.5273
5.2140 -6.8470 -69.5273
-63.2694 -46.6132 -69.5273
-66.6593 -11.1291 -69.5273
-6.3095 -41.3434 -69.5273
18.5435 -80.0665 -69.5273
66.3085 59.9834 -69.5273
29.5856 -28.6455 -69.5273
13.2228 7.0886 -69.5273
52.6552 35.7071 -69.5273
