ply
format ascii 1.0
element vertex 1024
property float x
property float y
property float z
end_header
28.5331 -5.8964 13.7374
-13.8940 -19.6579 18.3819
41.2994 5.1454 2.2879
35.4361 63.0290 -25.8606
-26.8094 62.2277 -21.6869
-42.5731 -48.6753 -18.8521
-0.7913 18.8161 23.1878
-10.5656 2.2696 30.5496
-0.0503 -0.0472 40.3983
-29.9506 31.5335 0.5713
2.9166 3.2377 36.4647
-0.0064 0.0339 40.4300
-29.9506 -22.3281 6.1964
27.8045 -74.0663 -32.1031
-2.7568 55.6402 -10.6356
76.5624 4.2605 -29.8720
-27.8693 26.3845 5.2608
4.4846 29.6499 12.9567
-35.2960 19.4285 3.5068
-75.7184 2.8676 -29.0390
4.8457 -44.2358 -0.3553
23.1977 -50.8481 -10.8018
10.7553 -12.2197 25.5304
-5.1960 -2.9677 34.9732
-67.5293 -25.4450 -25.7291
-6.0534 7.7252 31.4597
-4.5462 -14.4793 26.5416
-57.1619 28.5852 -18.1590
-10.3250 -11.2551 26.4523
31.0014 -77.7972 -36.3528
-46.8110 -3.1172 -2.5697
-45.7460 -44.1036 -17.8224
1.7232 -64.1725 -18.4203
7.5147 -11.0053 28.2385
30.8108 24.3567 4.4373
8.3369 -48.0386 -4.2592
-57.7937 65.4084 -39.5968
-8.7670 7.2755 30.0120
4.0798 19.3502 22.3229
3.7867 0.2880 36.9784
-0.2755 -6.7993 34.2200
-33.5470 47.1511 -12.6157
-10.6826 0.1706 30.6620
0.8650 2.3354 38.1774
55.5535 -10.8473 -11.4557
48.7041 -15.1432 -6.3205
-19.6759 -28.8883 8.4023
12.4380 34.7219 6.6321
47.6385 70.0012 -37.2030
-54.8303 -51.6180 -28.6096
-8.0388 -13.4237 26.1102
16.3568 42.5012 -1.3089
-58.3006 61.3641 -37.1755
21.1782 -67.3124 -24.2628
43.8417 43.3632 -16.0983
-59.9668 55.6776 -34.5942
-14.3606 -26.0042 13.2146
-23.8100 22.0688 10.6843
33.4024 67.9585 -28.9941
63.4700 56.2523 -37.3284
-83.8037 21.7229 -38.9456
-2.0655 -14.5594 26.9736
6.0080 -20.1905 21.1399
40.9283 -64.7755 -29.8184
15.8556 5.9401 24.9314
23.1145 14.4448 15.4610
-3.3452 53.5857 -8.7842
-13.8102 2.5605 27.5787
-0.8062 -1.6734 38.7579
47.1374 -47.9691 -21.2245
23.5699 -33.9619 2.5441
-3.6887 -8.5763 31.8985
-13.9264 -11.3294 23.9950
21.2446 12.5167 17.8450
4.4593 -3.3095 35.3681
43.0064 29.4957 -7.3710
-63.9574 52.6927 -35.5468
21.3287 -17.1083 15.3825
-29.5477 52.1584 -14.5227
-52.8478 30.7305 -15.6112
8.9802 37.4179 5.1664
-70.7434 -0.3649 -24.4269
70.0762 -42.0948 -34.5193
-3.1075 -39.0557 4.5255
-42.5243 2.2955 1.4005
-2.9567 28.9023 13.8134
-41.6768 -52.5386 -21.0490
56.0525 41.0902 -23.2858
-54.3182 -4.7380 -9.5496
-25.4051 -4.2620 16.8338
8.3303 -5.4771 31.3173
-3.7662 21.0675 20.8317
10.6234 -6.9718 28.8067
1.3685 1.2004 38.7919
15.0359 5.5679 25.7551
38.7572 13.3706 2.8566
5.7766 -28.4318 13.8504
8.1827 -3.3778 32.3419
-9.3116 80.7368 -34.0831
9.7922 1.5624 31.3664
-81.2188 -1.6677 -34.0500
31.4830 -12.2474 9.4765
47.7606 -24.8368 -8.9150
-39.0281 -22.8014 -0.9975
14.2427 -58.2205 -14.5144
21.9634 -27.2975 8.3254
16.3501 62.2174 -18.5433
1.3351 -1.0203 38.9204
20.6318 21.3503 13.2290
37.5044 -36.4293 -7.4951
30.5172 -62.2743 -23.1477
-11.3325 25.0828 15.2159
-43.8973 69.0359 -34.5769
-7.9557 -24.9216 16.4664
-19.1928 38.3026 1.1657
1.5192 -13.3749 28.1149
-6.2556 -22.2369 19.2737
-87.0685 -0.0496 -39.3998
-7.2373 68.5144 -22.7312
-64.0752 -7.8372 -18.7477
35.7454 24.1334 0.9021
-13.6436 -18.9841 19.0185
-1.2654 -2.5094 37.8839
43.0437 40.3374 -13.6458
0.4306 -47.3479 -2.9689
-13.7765 -34.3539 6.5121
-3.1621 30.5838 12.2599
-24.0461 -46.3846 -7.4606
-14.3593 25.0218 14.0004
6.6497 -14.8212 25.5617
61.9369 -23.0301 -20.1486
3.5300 75.6469 -28.9991
4.5370 83.9306 -36.6340
-0.5883 11.8164 29.6099
23.2358 -33.4739 3.0865
-35.3273 -30.9249 -2.6027
38.4244 64.8107 -28.6466
-81.9339 -31.4162 -40.0253
-30.0744 5.3847 12.4379
7.6789 -15.7547 24.3859
-22.8235 41.5546 -3.0239
-25.6040 22.6463 9.1088
-42.5626 -1.3582 1.4023
3.0984 -10.5005 30.4198
46.8470 50.3880 -22.6445
6.1789 20.6168 20.7203
43.5670 -23.2341 -4.8265
45.2820 6.7790 -1.5350
-27.3567 -5.2060 14.9190
49.6474 -72.4426 -40.0914
-56.7509 26.6727 -17.0543
-2.6096 7.6716 33.0291
-43.5882 -20.3211 -3.6500
70.4637 -19.6759 -26.6419
34.4579 -18.5707 4.5581
63.5492 -58.0565 -38.4894
-51.0693 -4.2464 -6.5420
-13.2169 4.2939 27.7151
42.0136 -51.2431 -20.3180
16.4524 20.2718 16.5147
18.1166 52.4204 -10.4102
32.8907 -14.5529 7.4723
-26.4541 29.3241 4.2374
-4.8699 -10.6406 29.7282
20.0721 -20.9530 13.8476
38.6035 -7.5520 4.3823
42.4529 -41.4505 -13.9600
-15.7384 0.8887 26.0030
-10.1343 5.8838 29.7131
-5.7636 81.8429 -34.7926
56.0440 52.6448 -30.0659
-2.8209 -59.1695 -13.8718
-25.5098 50.6419 -11.5488
-9.1451 37.0706 5.4402
0.3821 6.0697 34.8834
-11.9475 81.2378 -34.8533
35.8287 -26.4318 -0.3764
-26.4782 -0.1686 16.1746
19.0473 -10.2011 20.6432
-25.8082 14.9584 13.1010
14.0123 -11.9791 23.5527
-8.9107 12.1152 26.6673
-37.5638 -60.5336 -24.8829
0.5696 1.9462 38.6017
-16.4509 -24.6968 13.2436
9.8804 82.2791 -35.5490
9.5813 -13.0766 25.5924
-13.2785 -36.1253 5.1591
-19.7414 6.0582 21.5209
-4.5425 -4.0106 34.9036
-32.2855 -15.6955 7.5346
13.6918 27.1507 12.5709
-62.1209 49.6058 -32.4549
-2.9084 -9.4706 31.3746
-25.4321 -71.4223 -29.0780
58.5738 45.8877 -27.7874
-30.1444 42.7222 -7.4968
31.2993 67.6644 -27.9201
0.2505 0.0808 40.2202
-22.2428 7.9673 18.7906
43.9121 1.7194 0.1535
-17.1027 21.7580 15.0773
64.6267 44.7062 -31.6165
-41.1573 39.1820 -11.6602
64.6734 -53.9739 -36.8025
-15.1563 25.6444 13.1390
-7.3341 3.0587 33.1730
-11.0732 -80.8583 -34.3959
-71.1856 20.3080 -27.4366
-64.4103 -32.9326 -25.8915
17.1462 -10.6842 21.9313
20.5739 26.7940 9.4762
-4.3414 -6.6043 33.2124
-78.7696 -1.6604 -31.8039
-41.3449 67.7975 -32.3749
17.7338 1.3892 24.1459
-27.5354 -76.4203 -34.0443
-34.5663 34.8178 -4.5396
2.8720 -86.0996 -38.5550
22.2757 8.6577 18.5409
53.0492 39.0728 -19.9702
-21.2058 20.4132 13.4636
33.4606 -49.9384 -14.6746
16.2806 23.6420 14.1322
-6.6607 -23.8058 17.7878
-18.4461 18.7046 16.3660
38.8532 -20.7704 0.0518
1.0113 6.2972 34.6117
41.9779 1.8192 1.9223
-9.4216 -79.5720 -33.0336
-6.7953 -3.1565 33.5892
33.3680 0.7544 9.8479
-26.7776 64.2605 -23.3924
-4.0752 14.8096 26.3730
-23.7792 -33.3262 2.9104
15.8810 49.3983 -7.1317
53.6206 -8.3794 -9.3175
-44.3434 -60.8946 -28.6322
22.9989 68.0701 -25.4415
-70.9709 -39.3088 -33.9527
33.8703 3.3465 9.2437
3.9867 68.7113 -22.6681
-46.2860 -5.3565 -2.2764
-10.9440 -85.6298 -38.7191
-29.8214 32.5409 -0.0235
-62.0434 -59.4792 -38.3726
33.7430 -6.3791 8.9635
-11.8898 -16.6954 21.6618
-4.0000 8.9804 31.4444
28.1489 13.9115 11.6618
6.7507 -4.4554 33.0427
-24.8430 -49.4302 -10.2810
1.7394 -5.1351 35.4887
76.9177 18.0245 -32.0004
8.6024 -21.7854 18.9781
35.6310 -30.4491 -2.5279
15.6410 5.7969 25.1618
17.5536 7.4452 22.9726
-34.2181 16.2575 5.7137
-20.6837 -12.5413 18.2751
-27.2225 38.6230 -2.8796
-20.2977 4.9426 21.3001
-26.4225 34.2644 0.7743
61.5616 -19.0189 -18.6375
-2.6181 -10.0243 30.9587
9.0624 74.4019 -28.2861
-60.3685 -16.8925 -17.0368
2.8379 24.7666 17.5964
25.7625 -10.1238 15.0726
31.3359 -79.1342 -37.6059
0.7987 3.2942 37.3526
11.9942 -16.8548 21.4871
-46.6000 67.6608 -34.8936
-1.9464 26.0573 16.4947
-47.3985 37.0613 -14.7257
18.7318 -73.2184 -28.8591
-21.5577 -37.7485 0.5893
-21.4815 41.6706 -2.5395
-22.0011 66.2019 -23.5259
-16.5073 -5.5240 24.4955
4.3736 -21.8991 19.9786
-36.8936 12.8315 4.6336
-29.3518 51.2838 -13.7366
35.4785 -18.6957 3.6782
11.7740 -39.4037 2.7406
-44.3388 -49.7341 -20.6521
3.3362 12.9702 28.1778
-15.9008 61.2894 -17.6157
-6.3310 13.5419 26.7503
-15.8748 9.0268 23.7115
-31.5296 -4.3890 11.2630
-15.4244 -2.3038 26.1571
30.1066 -34.6002 -1.6068
35.6944 -11.1094 6.1727
22.8561 20.1263 12.5281
78.4234 10.3542 -32.0945
-75.2937 39.5994 -37.5686
-19.9741 -21.8738 13.2921
-47.3816 -9.5547 -3.8728
47.3885 -73.5481 -39.7890
-58.9846 -25.6876 -18.5484
-75.5906 -32.8996 -35.1542
19.5094 1.8308 22.4885
8.7757 -0.4612 32.4013
-0.8825 2.4997 38.0301
0.2992 12.3503 29.1303
18.8806 -71.9699 -27.7848
12.7596 -31.6477 9.1631
72.9333 35.0731 -33.7679
-24.7003 62.2573 -20.9724
-12.2625 72.8861 -27.3309
-18.4638 9.1381 21.5655
45.4782 63.1599 -30.9256
7.8400 -1.6993 33.1036
-21.6258 34.6278 3.0150
-30.0714 24.7586 4.7336
-32.7442 42.2553 -8.5709
-36.6229 -52.5066 -18.2564
26.6836 10.1697 14.2694
22.8309 62.5187 -20.5862
3.2197 86.0540 -38.5245
-1.2592 -48.9063 -4.4113
-62.5499 42.9963 -29.1580
22.9125 23.2495 10.5212
-14.1456 -10.9744 24.0401
20.1902 -8.8532 20.2406
-4.7666 -6.3351 33.1899
33.1051 27.3318 1.0853
-51.9848 66.1054 -36.6745
-24.5838 -21.1516 10.7153
-7.3767 -0.0907 33.6950
28.9542 22.3207 6.9288
-50.5849 -18.2713 -8.8700
-5.6551 -1.1658 35.1656
-19.0917 -2.5100 22.7995
3.6591 -6.3459 33.7427
11.4504 63.4584 -18.6840
31.3548 72.5622 -32.0421
21.1177 12.7250 17.8472
29.7905 16.3852 9.2767
-3.4796 3.5626 35.8939
75.7455 1.9378 -29.0368
-21.7146 4.6287 20.0970
-7.8784 20.8948 19.9793
28.9436 30.9204 1.6141
-38.8568 47.9362 -16.1374
22.3418 24.0582 10.3471
-10.0536 -0.4304 31.2318
24.3430 -19.3155 11.9587
10.4833 -12.3877 25.5767
-57.3621 3.1987 -12.2341
-17.9260 -2.2730 23.8878
-8.8813 23.0929 17.7677
59.7726 58.3563 -36.1595
5.9649 5.8216 32.8167
-16.6038 -57.8876 -14.7753
24.0715 -58.1357 -17.2522
-19.7563 -46.2055 -5.6308
53.9029 -67.7416 -38.9430
26.8664 -17.3732 11.1157
4.8846 -1.5382 35.7645
-12.0747 -36.8318 4.9095
30.0676 -15.2287 9.5473
-63.9237 -3.8195 -18.2754
28.8698 2.0703 13.9135
-12.6820 -4.7071 28.0540
2.5540 -1.2220 37.8647
-12.0821 -7.4982 27.4190
-80.0966 -25.6371 -36.6766
-8.5050 2.9137 32.2156
-30.1169 -2.5493 12.7389
61.8748 22.9716 -20.0766
11.7550 9.5677 26.5597
-4.2067 68.1813 -22.1949
-24.8695 -12.0008 15.1337
19.0987 23.2729 12.8474
20.3070 -55.6928 -13.9111
33.5556 -35.2958 -4.2080
-37.7221 -4.3222 5.6356
-8.8497 -4.0425 31.5377
-24.7952 -32.3317 3.0895
-37.2437 76.3321 -37.4414
-5.0750 -31.5207 11.1777
12.7285 -17.1885 20.8437
15.8673 5.3333 25.1076
-4.5350 49.4766 -5.1098
-6.3683 -10.5025 29.1959
-1.7053 -35.8192 7.5701
-52.4066 -14.9242 -9.5182
4.9888 29.8153 12.7341
6.1514 -0.8767 34.7624
-29.0277 -19.9980 8.1299
-86.5603 12.9341 -39.8151
-29.9101 21.6616 6.5883
55.6492 21.1015 -14.1276
42.7880 24.9012 -4.9469
23.5887 -54.0126 -13.5986
14.3156 -28.2892 11.3809
-66.8881 -35.9744 -29.2003
10.1030 65.5090 -20.3353
-4.9850 -47.8563 -3.6709
16.9951 -49.1324 -7.2237
71.3484 37.9943 -33.6815
-32.9468 48.3598 -13.2110
-5.8322 1.4929 34.9398
-5.8832 59.9523 -14.7923
24.1677 24.2451 9.0622
29.8220 67.4585 -27.1896
-8.7828 -45.0520 -1.6391
46.1008 -52.0983 -23.3467
14.1094 -5.1018 26.7001
77.0964 -39.0274 -38.7975
-14.3740 -20.8718 17.2168
14.9964 21.2094 16.6361
4.6632 -7.3858 32.4500
-83.7999 7.2617 -36.6898
40.2173 36.5084 -9.3589
6.4665 -61.7580 -16.4941
1.7778 -19.9775 22.0654
21.3411 -11.8105 18.0894
0.6791 -40.3083 3.4846
-0.1650 -0.0439 40.3051
11.5047 -20.3412 19.0267
12.7113 -0.7858 28.7803
-30.6488 24.9307 4.2238
-0.2435 -7.5943 33.4924
-6.6833 6.4084 31.9688
32.5305 -43.1638 -9.1139
-65.1156 -37.3845 -28.4075
-80.9616 10.5752 -34.4293
65.4767 -22.7981 -23.1316
15.3357 8.9129 24.1923
35.9989 -22.7656 1.3940
-82.2036 -26.3421 -38.7143
74.2121 -23.0978 -30.8283
-52.9832 -9.1406 -8.8538
-4.0294 2.7732 35.9751
-1.9848 -4.2254 36.1797
28.0952 60.8308 -20.9974
13.0651 60.4047 -16.2243
69.7533 15.4675 -25.0719
53.7913 60.8816 -34.0545
35.6174 33.8710 -4.6212
26.0698 -10.6143 14.6437
36.7916 -9.5090 5.6065
-13.7404 -50.7025 -7.7214
-7.1333 -7.7558 30.7965
-17.3162 17.2740 18.0273
-7.5281 -61.0762 -15.9829
15.7201 36.5800 3.9425
9.8538 -1.2139 31.3552
51.1784 11.3860 -7.6282
20.8828 73.2768 -29.4258
-44.0846 0.4271 0.0242
-14.9361 1.3018 26.7099
29.6201 -8.8982 12.0939
-4.7278 0.5211 36.0989
-2.3651 1.7395 37.7687
21.6203 26.6107 9.0132
76.6642 9.2980 -30.3720
46.5341 -65.9093 -33.5413
-10.6828 78.7973 -32.4745
-6.1032 53.5955 -9.0152
75.0710 -24.5938 -31.9964
-45.9342 69.9882 -36.3244
-38.7990 -22.9072 -0.8655
-18.7857 -21.9355 13.9719
-9.2418 4.5312 31.0208
-9.0865 -2.9138 31.7093
73.9920 20.0808 -29.8606
-26.8975 -24.4844 7.0998
-0.7659 -13.7623 27.8190
-64.2710 -4.6325 -18.6423
-10.3452 -7.0903 28.9580
3.0341 -10.1121 30.7781
1.1165 -24.4334 18.0273
-14.0783 5.7067 26.5281
-42.8892 35.0507 -10.3433
-18.8684 -36.3288 2.9136
-34.1414 17.1848 5.4031
-9.8173 9.9713 27.6268
2.6074 28.4233 14.2816
5.4543 53.2852 -8.6683
4.2148 -56.8686 -11.8427
10.7693 52.9159 -9.0691
-18.0220 -22.1833 14.2462
-10.1134 -36.5869 5.6447
56.7886 -65.3779 -38.9683
35.2842 34.1816 -4.5979
-27.7705 34.2667 0.0058
-17.0508 -3.9237 24.4135
-17.5983 25.7503 11.8539
14.5016 16.2956 20.4534
-29.4749 72.3208 -31.1705
4.8891 30.7414 11.9104
-18.7771 65.5290 -22.0621
10.1571 -7.1950 29.0447
-41.8215 21.6964 -2.7529
23.4765 1.8072 18.8647
-22.7793 55.3788 -14.4625
-34.7280 15.3472 5.6364
20.0259 -51.8475 -10.5183
-66.0021 53.7465 -37.6102
50.3149 -60.6183 -31.7966
-24.0746 -13.3859 15.1960
70.3002 -39.8748 -33.6699
7.1755 3.2475 33.2374
-2.7787 8.7195 32.0676
72.3543 9.6889 -26.4960
29.9450 -25.2417 4.5391
-4.8445 -5.2794 33.8894
13.5149 16.7686 20.7074
10.2985 19.8942 19.9142
16.7763 -21.1745 15.6829
-54.1131 -43.7047 -23.3388
-72.0572 -35.0886 -33.0507
5.1356 19.0395 22.3740
-33.8076 -28.3644 -0.0159
-14.8994 17.7920 19.1759
58.0329 55.9450 -33.4741
-7.9544 -37.6449 5.1704
-14.9746 8.3085 24.7541
82.4828 31.1678 -40.4148
17.1949 -12.8753 20.7586
-56.7130 27.3638 -17.2954
-26.7723 10.0416 14.2349
4.2699 4.1098 35.0258
-49.3793 -9.2135 -5.6120
-29.5272 -1.8424 13.3259
41.2461 -8.4305 1.8475
58.9082 13.5014 -14.9714
26.7642 65.6294 -24.5485
38.1004 -11.9891 3.8256
-50.8840 -37.0567 -17.2754
7.8620 -29.1964 12.7280
-7.0476 1.8370 33.7814
-1.9153 0.6599 38.6035
9.9441 -85.4108 -38.4085
-29.7367 -9.3146 11.8796
26.4823 -53.6532 -14.4186
-15.6968 -56.5153 -13.3379
-79.6135 1.5990 -32.5766
42.2028 34.9948 -9.8247
14.9180 -9.2480 24.3625
-2.5513 -8.0543 32.7122
-1.5041 -22.2866 19.9733
-1.2578 0.0052 39.3080
69.3285 19.6333 -25.6289
7.4166 -82.5221 -35.5348
77.7457 -26.4132 -34.8518
29.8775 -23.2389 5.7436
-44.8533 23.1024 -5.8154
-32.8979 -54.2013 -17.6940
14.5747 38.2710 2.8992
-0.2373 0.5394 39.9212
1.3354 43.8155 0.2543
10.4942 42.9960 -0.1330
21.4341 -25.9085 9.6195
-0.4471 0.2895 39.9731
14.0907 59.9806 -16.0518
75.9376 19.1564 -31.3723
38.8136 -24.6042 -1.6895
-1.8520 -5.4299 35.1995
22.5451 -52.2105 -11.7011
22.3675 -36.7089 1.0333
-9.4062 -32.5915 9.3477
0.3747 1.1746 39.3308
-32.4838 -19.2612 5.8227
14.7514 -71.2871 -26.3099
-1.5558 4.2347 36.3236
-53.8824 67.5780 -38.8139
80.4456 29.4196 -38.1045
-8.4863 1.4837 32.5597
1.7813 -3.1261 37.1615
-44.9173 25.9843 -7.1348
29.0839 77.0873 -35.1098
61.1127 -12.0721 -16.6757
38.7759 -68.4528 -31.6987
-77.4116 -20.1879 -32.9170
-35.8091 2.7891 7.5172
30.7522 -3.6345 12.0586
-22.1165 -16.4799 15.1634
-34.6263 3.9841 8.4920
-66.2289 -25.9137 -24.7697
11.7934 57.5491 -13.4208
69.2508 -2.4450 -23.0965
-4.3845 44.7720 -0.8008
17.8005 28.9070 9.3236
-0.5437 1.0529 39.3747
6.0396 8.0065 31.2628
33.8465 49.7627 -14.7391
-1.0744 0.8714 39.1927
-65.4289 -26.5977 -24.3206
-17.8464 20.5684 15.4842
-12.3556 9.8458 25.9706
30.6707 39.2545 -5.2306
4.3314 -11.9295 28.8207
45.1018 17.9435 -4.0606
41.3622 65.2907 -30.4305
-74.0417 27.9064 -32.1149
32.6334 36.6792 -4.5693
0.3017 -3.4527 37.2827
-15.2760 -0.9864 26.4209
87.0922 6.0742 -39.6156
4.0753 -10.0850 30.4847
-31.5469 36.4563 -3.7584
9.9263 27.1174 13.9748
-29.6763 22.4351 6.3387
58.3555 -56.2299 -33.8686
-6.2895 56.0037 -11.2293
-4.2055 -0.4819 36.5790
-0.2199 0.2057 40.1854
10.4836 7.0227 28.8877
4.5283 -2.3796 35.7696
-15.0278 -40.1310 1.1563
31.3928 -12.3575 9.5168
13.4658 -19.5986 18.6511
60.7299 -9.2580 -15.8849
3.8331 -5.2708 34.4839
47.2509 -1.8649 -2.9118
28.8726 15.6210 10.3515
23.8194 -79.0046 -35.2252
-7.4711 -4.3879 32.5145
1.2425 -2.7387 37.7032
85.5940 -18.8207 -39.9229
0.8348 19.6499 22.4220
-37.3053 -4.4079 6.0062
-78.3948 -14.2985 -32.6303
1.0599 61.2317 -15.7100
-11.9995 -33.6215 7.7179
23.7662 82.7106 -38.4724
48.9948 -9.4357 -5.3034
3.9553 -0.8933 36.7424
-23.7596 10.7074 16.5580
24.2201 30.5909 4.6732
16.5062 15.9295 19.4213
1.5922 15.8890 25.8148
8.7135 29.9554 11.8470
5.7183 5.9894 32.8662
-5.1866 -4.7697 33.9986
24.0424 54.8531 -14.4717
3.5875 -17.2114 24.3356
-33.6648 -26.7790 1.0057
7.3790 -58.5202 -13.6397
19.3758 4.7146 22.1711
-13.1246 -40.1143 1.7485
-7.0661 45.8827 -2.1193
67.0376 4.2000 -21.1475
-60.0843 62.8086 -39.2633
-8.2505 34.4909 7.9332
-17.6008 48.6801 -7.0179
14.7430 -5.5374 26.0166
17.7867 48.0463 -6.5305
-5.9355 -5.6863 32.9223
-47.2228 -20.0849 -6.6072
-55.8837 -58.2422 -33.5736
-64.5625 20.5676 -21.6891
-37.1777 1.8021 6.3212
-15.2135 44.0253 -2.2625
25.3265 80.4337 -36.8850
2.7928 0.0192 37.8999
36.7482 -5.8490 6.3310
18.0322 3.8891 23.5417
10.2215 -40.3112 2.3171
48.9564 -68.6179 -36.8531
4.7342 55.0124 -10.1836
64.3790 -2.8144 -18.6448
1.0176 0.8173 39.2645
-19.0394 12.2700 19.6859
53.5705 29.1893 -15.4952
41.6184 17.2784 -0.8709
-66.6614 28.3593 -25.9849
-2.4038 -12.5362 28.7536
25.7764 -25.1353 7.4389
-40.9025 -44.7807 -15.1673
-17.3734 53.6633 -11.2750
-1.2134 20.3002 21.8085
-30.2357 -32.3342 -0.1426
8.5864 -37.4255 5.2421
-12.5846 5.0757 28.0152
7.3206 -85.4972 -38.2456
-13.2586 4.6268 27.5813
-50.1013 -25.7170 -11.1929
22.5598 -61.3375 -19.4834
37.3781 -5.6421 5.7891
-2.3466 10.7492 30.3700
-63.5596 6.2729 -18.1200
64.4672 21.3072 -21.8153
-40.2283 55.8854 -22.6971
49.6079 -67.3157 -36.2370
2.2869 1.6507 37.8747
-0.2202 -1.9558 38.6564
-0.0191 -0.3513 40.1390
-8.3323 17.7266 22.4957
-0.6650 -1.7111 38.7778
-14.0856 15.2408 21.4265
8.5125 25.6537 15.6698
38.8989 61.1362 -26.0025
25.3297 -13.9443 13.9407
8.9034 37.8451 4.8015
-20.4980 -5.0991 21.0873
-31.7546 59.0199 -21.0110
-25.4892 3.8119 16.8223
-47.3132 -23.2340 -7.8854
1.5110 2.8358 37.5144
6.0788 7.5864 31.5450
-52.1416 -0.8096 -7.3697
25.6943 -32.9888 2.1083
29.4470 -47.2943 -10.6392
-69.1027 19.4176 -25.3759
49.9651 33.7569 -14.8467
-26.8940 -51.1116 -12.5130
-0.5548 7.0760 33.9514
4.3509 62.4050 -16.9168
15.4046 3.3835 25.9953
9.3058 22.6147 18.0314
2.1421 0.0537 38.4963
13.6960 -48.4252 -5.6975
57.7328 59.4502 -35.5486
2.8017 24.8141 17.5569
-1.6539 -31.1689 11.8325
-3.5386 3.7505 35.7321
0.0443 10.7709 30.5822
19.5063 36.9136 2.1669
60.0674 24.8010 -19.1452
57.1901 33.0750 -20.1354
-27.8962 27.5734 4.4848
-64.4633 -0.5039 -18.6675
54.4157 -29.0613 -16.1218
-46.9882 -55.1377 -25.9853
-2.3499 48.9661 -4.5030
30.6120 -47.5277 -11.3919
15.4122 -16.5587 19.7127
-26.4003 -2.6527 16.1247
0.7493 -1.3795 39.0218
-53.4463 -58.7088 -32.3595
-21.7295 16.4212 15.4797
-34.2139 49.3945 -14.6514
10.6019 12.1193 25.6924
40.0229 -7.1121 3.1765
-33.2879 45.4609 -11.2195
-64.0235 11.0233 -19.1264
6.8832 -4.3446 32.9957
21.0477 36.0442 2.1770
-52.6770 20.5825 -11.4124
-85.8850 19.8083 -40.3823
15.4928 -68.6770 -24.1137
8.5461 -48.1643 -4.4060
-54.5544 7.5214 -10.0504
4.2014 -15.8366 25.4335
-6.0238 -2.3231 34.5398
0.9476 -19.4422 22.6076
-3.0563 -49.4931 -5.0212
14.0177 -58.0563 -14.3193
-0.2836 -24.3365 18.1380
0.0111 -1.9254 38.6956
-46.6289 -3.6506 -2.4384
-25.2472 -65.8241 -24.2026
73.1736 27.8327 -31.3463
-58.9500 34.1580 -22.0301
-8.5870 -0.5172 32.5711
21.9529 13.1299 16.9993
29.2907 13.4142 10.9121
38.6472 -40.7524 -11.0532
-0.4530 -0.2026 40.0065
-37.8053 44.1541 -12.8545
-80.4065 36.0297 -40.3549
58.7237 26.9019 -18.7842
3.0822 5.6434 -40.4616
-26.4209 -13.8984 -40.4616
-9.3257 -34.4565 -40.4616
1.6238 2.5261 -40.4616
-4.3343 16.0331 -40.4616
-4.0844 2.5619 -40.4616
-13.3194 -47.9941 -40.4616
13.4165 35.6554 -40.4616
13.5974 -32.6239 -40.4616
-63.4041 7.3309 -40.4616
-28.0911 25.1717 -40.4616
-31.2933 -4.4949 -40.4616
-20.8690 -9.8515 -40.4616
-30.7721 -21.0099 -40.4616
-21.0216 -60.0160 -40.4616
18.9061 -36.6037 -40.4616
-14.5659 -35.8236 -40.4616
27.7711 10.3647 -40.4616
-33.8695 -14.7816 -40.4616
3.7596 5.1584 -40.4616
79.6687 -18.4421 -40.4616
-28.8291 11.2769 -40.4616
-8.9628 -80.9233 -40.4616
7.7748 12.2539 -40.4616
-8.0240 -4.2383 -40.4616
29.7074 23.7502 -40.4616
-6.1588 -64.4358 -40.4616
-17.0132 -3.6472 -40.4616
0.3170 80.5954 -40.4616
-31.8782 5.4473 -40.4616
-61.5538 38.4713 -40.4616
11.7446 16.8210 -40.4616
66.0602 6.5540 -40.4616
-18.5782 8.5924 -40.4616
-5.0873 -40.6459 -40.4616
-80.4876 17.6020 -40.4616
63.0976 59.0801 -40.4616
-43.0274 -11.2102 -40.4616
-62.6171 -4.8325 -40.4616
-0.6108 -1.6836 -40.4616
-6.2117 8.6332 -40.4616
26.1255 -28.7084 -40.4616
-3.8499 -26.8963 -40.4616
-2.2063 56.6635 -40.4616
-6.3481 1.5989 -40.4616
-43.6766 23.7704 -40.4616
10.3503 51.4072 -40.4616
-24.9051 -4.4712 -40.4616
-7.7006 79.8516 -40.4616
3.6109 -4.2418 -40.4616
17.7694 30.9577 -40.4616
40.0038 -37.2650 -40.4616
-6.7313 -53.2507 -40.4616
5.5333 -47.7580 -40.4616
-19.4025 74.7874 -40.4616
-26.9650 70.4023 -40.4616
0.5767 -35.9733 -40.4616
20.9922 -81.6727 -40.4616
41.0453 8.7727 -40.4616
-3.8847 -23.3874 -40.4616
-12.7405 -31.0983 -40.4616
5.6709 2.5392 -40.4616
-6.4388 30.1134 -40.4616
-2.8380 9.9791 -40.4616
23.7132 9.0187 -40.4616
-74.5238 -32.6730 -40.4616
-57.0743 -31.6202 -40.4616
2.0627 -4.9567 -40.4616
3.2499 1.4595 -40.4616
37.3452 39.1692 -40.4616
43.8303 -5.6061 -40.4616
11.8059 -39.0289 -40.4616
-14.1319 16.5049 -40.4616
35.8306 34.2494 -40.4616
-1.4289 41.2341 -40.4616
6.7891 82.3104 -40.4616
7.9372 29.0470 -40.4616
64.7196 -37.5183 -40.4616
9.9566 57.7890 -40.4616
-4.3528 -46.4091 -40.4616
51.3346 -16.8201 -40.4616
-21.7182 53.5607 -40.4616
0.6959 53.8446 -40.4616
9.0193 67.8014 -40.4616
-1.8413 16.3385 -40.4616
-0.5584 0.3943 -40.4616
9.3519 -81.4924 -40.4616
-24.6377 -6.7131 -40.4616
2.1157 -2.3396 -40.4616
7.2444 37.5059 -40.4616
-24.9925 -13.2816 -40.4616
-9.4517 -74.9107 -40.4616
-1.1568 -0.0711 -40.4616
-70.3694 -23.8028 -40.4616
-9.1055 -7.2579 -40.4616
13.3921 -54.5686 -40.4616
35.2114 -9.7200 -40.4616
-2.1615 9.4839 -40.4616
2.0182 -3.8105 -40.4616
-9.3670 25.6344 -40.4616
26.2584 22.4651 -40.4616
12.6429 5.6599 -40.4616
-19.1377 -32.1294 -40.4616
-44.1742 61.2653 -40.4616
-63.4781 44.2122 -40.4616
1.9866 0.8413 -40.4616
25.1501 64.5754 -40.4616
-16.5788 -44.7629 -40.4616
-31.4164 48.0889 -40.4616
-20.5110 19.7566 -40.4616
-31.4518 -5.7760 -40.4616
-35.1989 -7.5200 -40.4616
17.3098 -20.0269 -40.4616
58.4470 -37.7873 -40.4616
-5.2402 20.8651 -40.4616
66.6908 0.7540 -40.4616
-2.4538 -5.1758 -40.4616
19.4108 -33.3565 -40.4616
7.5830 -4.1639 -40.4616
-8.0779 -7.6255 -40.4616
-46.4464 -34.6481 -40.4616
52.3387 20.7722 -40.4616
24.9238 -44.9458 -40.4616
36.3462 27.7240 -40.4616
-60.3899 44.6358 -40.4616
-1.7755 -0.5269 -40.4616
31.7340 53.5551 -40.4616
-67.0435 31.6179 -40.4616
20.8653 6.1612 -40.4616
38.9867 -21.4560 -40.4616
68.6158 10.9538 -40.4616
26.1909 -9.5798 -40.4616
-25.8526 -3.6846 -40.4616
-40.2829 37.2940 -40.4616
9.6843 10.0917 -40.4616
0.8222 0.8448 -40.4616
-49.1369 7.9666 -40.4616
41.8997 -6.4700 -40.4616
-52.5071 59.5460 -40.4616
18.5650 34.0910 -40.4616
49.9437 -7.5862 -40.4616
29.8147 -33.5698 -40.4616
-0.3109 -0.3866 -40.4616
14.6106 -39.6737 -40.4616
-12.9365 -25.3559 -40.4616
-6.4775 -18.0266 -40.4616
14.8600 -56.3982 -40.4616
-69.2477 -36.6691 -40.4616
-28.9494 -34.1980 -40.4616
-29.4033 -75.3955 -40.4616
3.6941 35.2867 -40.4616
-34.2034 6.0648 -40.4616
-46.4245 8.8523 -40.4616
-63.9010 53.3596 -40.4616
-63.4589 31.3348 -40.4616
-50.5000 7.0317 -40.4616
-71.8042 -19.7377 -40.4616
4.6634 4.3008 -40.4616
9.0984 5.5529 -40.4616
-32.3105 -5.9467 -40.4616
-14.9727 -69.3674 -40.4616
50.1128 -20.7245 -40.4616
13.2382 68.5204 -40.4616
-3.0367 -0.5684 -40.4616
11.0398 -21.6225 -40.4616
3.8376 -2.6775 -40.4616
9.3715 -39.7181 -40.4616
-12.1658 -3.5555 -40.4616
3.1177 2.8594 -40.4616
-19.9507 7.9732 -40.4616
-25.5475 -22.2025 -40.4616
-4.1871 3.5604 -40.4616
50.5447 63.9215 -40.4616
46.2324 35.8263 -40.4616
-3.2833 -30.2727 -40.4616
6.3924 -6.3061 -40.4616
28.1606 -39.0891 -40.4616
12.6332 18.6685 -40.4616
46.2033 -53.0008 -40.4616
13.5969 -75.1880 -40.4616
45.1947 53.0473 -40.4616
56.9068 -20.6865 -40.4616
-49.5649 20.3187 -40.4616
-49.9161 -39.3756 -40.4616
-3.5842 -6.0190 -40.4616
-38.9388 -39.6485 -40.4616
3.5510 10.8827 -40.4616
66.8268 8.2319 -40.4616
-6.4002 -18.7047 -40.4616
-17.8986 29.2566 -40.4616
17.1564 32.8020 -40.4616
29.7796 34.6779 -40.4616
-2.3836 -2.4597 -40.4616
1.1719 6.6545 -40.4616
-9.0337 31.6095 -40.4616
-70.9578 -8.1310 -40.4616
-6.1357 -52.5926 -40.4616
84.8174 14.4478 -40.4616
-32.0898 58.7046 -40.4616
-13.1681 11.8933 -40.4616
26.7150 17.4858 -40.4616
16.2741 51.1389 -40.4616
-1.5428 -8.0650 -40.4616
6.5294 24.2474 -40.4616
-0.3242 -0.3733 -40.4616
42.9835 40.5262 -40.4616
2.2578 70.0866 -40.4616
52.5585 -36.6904 -40.4616
31.6615 -10.2567 -40.4616
79.0226 -3.8096 -40.4616
-26.4951 70.0061 -40.4616
69.9321 24.6124 -40.4616
-44.2647 -53.9491 -40.4616
-12.6700 -10.0481 -40.4616
-18.4053 5.8869 -40.4616
-17.5154 13.9281 -40.4616
80.8646 34.5194 -40.4616
3.0498 77.3259 -40.4616
26.8801 9.1273 -40.4616
-48.3880 -66.5018 -40.4616
39.9942 41.5692 -40.4616
-46.5994 -67.0361 -40.4616
85.8945 -14.0210 -40.4616
-49.4227 -14.0683 -40.4616
49.5103 -42.4923 -40.4616
44.9047 -26.4188 -40.4616
46.7318 33.3535 -40.4616
-10.5700 -3.4982 -40.4616
23.0087 15.1571 -40.4616
-71.7702 27.7254 -40.4616
-61.3423 -42.9305 -40.4616
34.7199 -49.0761 -40.4616
-10.1049 -0.8174 -40.4616
10.6585 -5.3951 -40.4616
68.2699 -45.1325 -40.4616
-19.5396 -13.3387 -40.4616
66.9370 1.7155 -40.4616
55.1770 36.2445 -40.4616
-17.2843 28.7665 -40.4616
36.3019 -79.4205 -40.4616
31.5167 -73.5331 -40.4616
53.1329 58.8018 -40.4616
-0.6035 -38.9062 -40.4616
-9.8538 -2.6586 -40.4616
78.6402 -4.0285 -40.4616
-16.5716 -0.6495 -40.4616
3.0812 -21.0096 -40.4616
-51.2646 60.4517 -40.4616
0.2527 2.1509 -40.4616
-0.1622 4.3400 -40.4616
-44.1914 69.1693 -40.4616
30.4967 -53.9711 -40.4616
28.3394 61.9686 -40.4616
-72.4805 -14.6603 -40.4616
51.3473 37.2508 -40.4616
-16.7958 22.3408 -40.4616
