ply
format ascii 1.0
element vertex 1024
property float x
property float y
property float z
end_header
19.2098 52.2682 -16.0374
2.5418 0.5295 56.1313
-22.3178 -25.1652 13.9373
-31.0042 -2.9134 17.3290
72.0365 -19.2290 -41.6918
42.6476 -36.8797 -16.9830
-31.8593 74.8699 -50.9462
-7.7283 11.6951 40.6052
-1.6065 -5.5234 51.8413
-0.4783 0.0740 59.0028
-57.1861 2.4073 -18.1450
-6.0945 -0.3230 51.3644
-34.7888 31.4609 -4.0999
-32.5476 -76.2868 -53.0849
47.3936 -34.4886 -20.0173
-31.8600 16.8709 10.6540
-2.5562 -67.0650 -31.5713
48.5785 69.5857 -55.7016
-22.2118 -58.6222 -25.5567
-34.7562 20.9780 4.4753
60.5429 60.5256 -56.7123
-30.3915 -10.1261 16.1147
22.0743 -9.2410 27.1303
70.4565 -13.5836 -37.8792
10.3580 2.8503 45.0570
84.2372 -22.1989 -58.7579
-43.8538 34.8142 -16.4538
1.0488 2.8841 55.4890
3.5772 6.4527 49.6314
42.8410 -71.1315 -53.2160
-20.1529 -38.4570 0.6404
-53.8589 -1.6600 -13.5879
-8.5435 4.6372 46.4464
-73.2448 29.3819 -47.6180
-49.9993 62.4453 -49.0829
31.0088 -5.3462 16.8866
-84.6431 1.1957 -55.4117
-84.9103 6.9811 -56.1528
7.2890 0.5412 49.7250
9.3716 -7.0214 43.7423
-1.4097 -29.3022 19.7823
17.9044 61.8400 -27.8549
-87.1378 -6.1070 -59.0819
-42.0052 0.4156 2.5576
9.7761 -15.0318 35.2857
37.8784 8.6500 6.8446
7.8052 -36.6671 8.7000
-3.6783 4.6809 51.5681
-42.1467 41.9839 -21.2071
-11.1566 10.4624 38.8695
-19.9945 -13.1198 27.1521
-8.0174 0.1042 48.7612
-15.1602 -17.8137 27.8633
50.3141 8.1618 -9.6286
-2.8576 2.8975 54.1287
26.9524 4.0373 22.6137
2.2119 57.8256 -19.0029
-0.4869 -0.3919 58.8111
-1.6906 -12.1146 43.0329
74.6084 -29.7001 -49.4998
-16.8048 82.5771 -54.8925
44.2429 -18.6401 -5.6013
-48.1029 11.1874 -7.4739
17.4652 -8.3854 33.3245
6.6805 -5.4769 47.9177
-12.9539 6.4048 40.0168
40.9461 9.1048 2.6406
25.6639 37.3860 -1.9824
-20.1239 5.1108 31.4365
-17.9171 16.5533 26.5013
3.0592 -0.8612 55.3405
-84.0420 -9.5991 -55.3258
55.4084 -30.7211 -26.4620
-1.0163 1.3420 57.3723
58.0446 37.2909 -34.1236
36.5447 -25.5994 -0.9926
-69.0759 1.1058 -34.2507
46.8557 37.0537 -21.5428
-1.4884 -33.4321 14.1692
5.3207 -34.5619 12.1250
-57.7449 -11.0684 -20.2646
-34.6579 2.1574 12.4568
69.1195 -42.0471 -50.3175
-6.3146 14.8266 37.7542
-83.2939 14.5073 -55.2707
0.7668 36.3846 10.1898
1.7514 4.7984 52.7171
-35.5617 8.5572 9.9396
-48.5460 53.0564 -38.0974
52.7865 -39.4403 -29.9125
46.7065 -69.7297 -54.4265
48.9676 -6.7390 -7.5315
-45.3773 28.8740 -13.4524
-18.2349 0.2210 34.8710
-66.8069 -16.1189 -33.7603
-72.9146 -48.3267 -59.2507
17.6963 16.5394 26.7340
-0.0510 -51.8376 -10.8056
-48.0408 -37.1177 -22.8656
-7.1438 77.9479 -46.7430
17.9874 -32.9616 8.6164
22.6784 0.6039 28.8215
14.3408 -7.8969 37.4062
-51.5645 65.4041 -53.5557
22.7363 24.5746 14.1504
-15.6222 7.4064 36.1587
12.7219 42.2533 -0.3239
-14.6242 7.5102 37.3129
-69.9706 23.8962 -40.8488
18.2394 26.9725 15.3990
24.0059 78.9730 -52.5426
32.0614 -15.9420 10.9871
69.0895 -38.2471 -47.6877
8.5573 15.0393 36.1391
-27.0954 22.9738 11.3707
-32.6524 -14.0385 11.3456
27.1852 -22.4396 11.7429
43.7018 45.0051 -25.6150
55.9213 41.5982 -35.0822
-25.9465 -51.5377 -18.7754
6.2089 20.7276 30.2473
-18.3019 -12.4779 29.5496
-53.2310 -28.9927 -22.7364
-13.9064 -53.1799 -15.0610
-10.8213 -36.0791 8.4576
-62.4124 -16.2233 -27.9999
21.9714 51.9309 -16.9906
-27.5702 83.0399 -59.2797
-11.5128 13.2741 35.7750
22.9353 4.3951 27.9159
-69.5488 -50.5136 -57.1866
3.8300 -36.1576 10.2343
72.3226 -11.8849 -39.9707
-21.3591 21.4182 18.5425
6.8473 -1.9500 49.9827
-9.3502 11.7912 39.2043
-3.6372 -61.4701 -24.0457
31.7589 -74.4432 -50.3590
23.5722 3.8840 27.1855
-48.5829 54.4887 -39.5759
-3.3558 54.9464 -15.1707
6.4948 -63.7640 -27.4663
50.0077 -1.0315 -8.3325
-55.3945 33.3554 -28.2381
-35.3447 -62.1961 -37.5847
15.4668 10.1030 34.5477
-4.8935 -10.2513 44.2192
-29.0325 57.3472 -27.7158
43.3364 7.5895 -0.1459
-3.2500 2.2427 54.2929
31.1237 -7.0392 16.2836
25.3086 -64.4274 -34.4346
-36.7232 -29.6374 -4.4888
33.5201 16.1414 9.0868
-17.4895 16.1202 27.3277
-22.5790 47.5178 -11.8547
-18.3558 -10.1323 31.1594
0.1374 22.7562 28.7262
52.9737 -9.4218 -13.4800
33.0030 -9.5729 12.9484
42.2351 3.5890 2.0408
27.3775 -41.6746 -8.1210
36.4520 -1.1394 10.0849
-23.6950 -40.0007 -3.5389
-13.8041 5.3411 39.5403
-35.7600 -4.4089 10.6818
0.3218 27.2552 22.6083
5.6493 -25.5833 24.0458
-3.1301 4.0138 52.7415
56.8315 -17.4580 -21.1569
-22.4148 -13.1234 24.3526
0.3403 5.0011 52.8466
-39.1659 61.0228 -38.9073
3.8548 1.8214 53.8652
29.5859 62.5264 -34.3704
-23.2958 2.8056 27.7644
59.6394 30.1656 -31.1914
12.8694 -51.3547 -12.3078
54.1706 -31.7593 -25.6995
38.9067 -10.3680 4.9266
-7.7119 -23.9684 25.4339
2.2867 -40.3062 4.7818
15.5908 20.1889 24.9858
-37.4277 -41.2600 -16.0649
-62.7698 29.8269 -34.8097
24.1872 20.8399 16.2605
31.2434 -67.5544 -41.5161
17.2468 -64.6475 -31.2924
-2.0703 27.4777 22.2027
6.1316 -13.7701 39.1702
-5.5532 -5.7899 48.7552
-15.5871 -34.2069 8.5611
-2.9100 -73.5919 -40.4557
-17.0496 42.5749 -2.6823
-42.3727 -53.9681 -33.6119
-47.8099 26.5102 -14.6530
-2.8420 3.6608 53.3607
-4.1208 -45.6521 -2.6494
-71.5229 -8.5446 -38.2564
-24.6478 24.0346 12.8627
31.3790 -6.9807 15.9624
-0.8821 1.9611 56.7376
9.7260 28.8267 18.3044
-25.9816 41.4050 -6.7873
3.8591 8.4986 46.9728
63.1758 55.6181 -54.7568
-5.0427 -63.0381 -26.3048
-2.2004 -5.0840 52.1302
2.2098 79.7739 -48.8227
-8.6411 -28.1784 19.5954
6.6121 16.9174 34.9697
72.7778 -32.3424 -48.6001
-47.9704 2.3443 -5.6264
20.7956 -73.2564 -43.8561
-6.6844 -57.0687 -18.4468
-49.4832 -9.6112 -8.8622
-41.1338 -28.6003 -8.4429
8.7707 -11.9442 39.5170
-1.2812 -78.3124 -46.8087
27.1032 -58.3013 -27.7374
1.5376 -72.4840 -38.8937
-44.9178 47.0965 -28.8097
47.9485 -46.2277 -30.8780
-63.5809 7.8428 -27.4240
-50.8329 -13.2026 -11.7323
-28.3091 -28.3642 5.1854
-28.1155 14.4429 16.6936
49.7996 19.1359 -12.8609
1.2315 27.3638 22.4256
-49.0457 -7.5138 -7.7881
75.5639 -18.9774 -46.2480
18.2098 34.0000 7.2309
-39.8143 13.3601 2.5727
-41.5581 17.2960 -1.5293
-23.6754 64.8755 -34.2178
49.5463 41.2971 -28.0187
12.2119 17.6319 30.5051
7.2581 -15.1741 36.7954
-28.7852 5.5808 19.8025
-32.5392 -63.0274 -36.7608
9.4824 -7.2217 43.4581
25.4609 -10.8206 22.0541
41.2622 -29.6615 -9.4182
-3.5456 1.9708 54.1464
39.5028 -59.4321 -37.3473
-30.9469 -29.1070 1.9087
23.4088 -32.5716 5.1354
4.9604 22.7365 28.0265
-27.0256 35.4503 -0.9357
14.2238 -26.4291 18.8614
-21.5195 0.3969 30.4028
-58.6873 -49.2245 -44.4639
-48.6752 -71.0488 -57.4122
8.1386 82.0713 -52.4513
-1.2763 -64.8901 -28.5656
-27.2224 10.0024 20.2366
22.0018 10.4184 26.5685
-13.0028 2.4053 41.6852
-48.4263 -39.9076 -25.6412
-7.8522 -4.5728 47.3087
-20.4582 10.4804 28.4138
-18.8912 63.9545 -30.9902
-64.8345 38.2172 -42.6451
82.8268 -2.0398 -52.9652
-68.5407 19.0468 -37.0417
20.3141 4.3134 31.4307
80.6890 28.0481 -56.4628
85.2488 17.4345 -58.6222
7.7247 -4.1258 47.7561
-82.0095 2.9549 -51.8925
35.6097 -7.6767 10.1421
0.3349 -2.4018 56.3641
84.9299 -12.2202 -56.9790
-12.2433 24.8256 22.0328
49.5784 -50.3425 -36.3876
40.1570 -15.4500 1.1718
6.5988 20.2156 30.7533
15.5432 -24.0206 20.7681
-7.0738 -5.7534 47.2658
63.6067 -48.7552 -49.2827
30.2239 38.7200 -7.1106
12.7809 -1.0421 42.2292
-14.5622 -37.2708 5.2663
-7.3425 -20.3258 30.2830
-81.8551 -13.0667 -53.0190
5.7344 6.7987 47.5704
-14.3448 -14.0284 32.3863
74.3429 14.4347 -43.2858
-70.0502 17.7929 -38.5868
18.9688 30.3725 10.9828
-3.2205 3.7099 52.9824
0.4881 -3.9362 54.2691
32.0112 8.0639 14.7864
27.3489 27.6995 6.7462
0.4704 1.8828 57.0227
-17.0291 -11.3753 31.8223
27.8746 -24.4887 9.2232
22.6861 1.3913 28.7641
0.6837 32.6996 15.2003
-55.7639 54.9240 -46.7373
-2.2670 58.6942 -20.1857
-1.5507 -37.7451 8.3080
5.1414 61.7399 -24.5569
-72.7522 46.6479 -57.8196
-32.8186 -69.5117 -44.8332
-26.9654 -55.0155 -23.6256
-0.6910 1.5139 57.3985
-12.9892 4.6022 40.9282
-52.2604 63.9229 -52.5778
-46.9988 60.3020 -44.2683
4.6492 18.6320 33.5565
-34.1335 6.7078 12.3734
48.9644 -14.7775 -9.8650
36.3036 -60.1802 -35.8786
-30.5758 16.5398 12.4055
-33.5151 7.2936 13.0351
2.2411 -54.0033 -13.8127
63.1728 -16.5197 -29.1017
-3.8238 2.8660 53.1648
-15.6088 24.7393 19.8969
-22.0509 -8.8630 27.3548
-7.5540 55.9546 -17.0920
8.8930 28.2469 19.4048
17.4617 16.0074 27.4593
36.3633 -59.0809 -34.6447
-46.8618 7.8912 -4.9385
-13.0899 42.1294 -0.3093
30.2270 7.7994 17.2254
-17.5793 -13.1562 29.8129
14.3408 9.7234 36.1078
-19.9617 -16.1825 24.7289
-0.6443 -1.8992 56.9344
4.2206 -43.2415 0.6004
36.8292 -10.1472 7.7309
-77.7402 -13.9205 -47.6975
-48.2813 58.3656 -43.3072
72.2699 25.3044 -44.4284
-30.0183 -4.2085 18.4558
1.1642 15.6195 38.3692
-63.7262 28.5294 -35.2514
-77.9010 22.5100 -50.5675
-0.3519 -5.6657 51.9441
-73.3815 -2.6902 -40.1585
50.3771 20.3820 -14.2127
2.4519 1.1480 55.9804
-20.5416 66.5234 -34.9819
-7.8143 1.6327 48.8088
-51.0188 -16.0439 -13.0408
-6.7108 -1.3036 50.3678
-32.1176 -20.5762 7.8098
20.7398 -30.3276 9.7162
-45.1156 38.7249 -21.1619
58.0829 -17.8236 -22.9290
-80.4720 6.0067 -50.0345
25.1777 -9.2370 23.2044
-4.2298 -0.0354 53.9106
59.8927 10.9726 -23.1103
-6.1406 8.9945 44.8563
-23.5339 6.2594 26.5574
33.9978 -25.3706 1.9955
27.6440 -0.9896 22.0584
-18.2372 -29.8236 12.1404
20.9051 -9.6583 28.3568
81.7156 -26.7776 -57.2327
-10.2135 -6.8679 42.9298
5.8581 2.7174 50.8824
23.8310 -6.9107 25.9310
1.8570 23.5682 27.5236
37.0564 31.9165 -6.8210
-28.3117 -14.2434 16.5788
-43.8034 -36.8533 -18.1551
78.0650 -26.9027 -52.5828
-51.1890 68.6881 -56.7883
83.6551 18.3822 -56.7701
26.3441 25.0605 10.2344
-14.2372 8.2221 37.3116
29.1931 -28.9774 3.7459
35.2277 25.4258 0.6032
-13.2064 -34.3368 9.6511
-20.7892 40.8543 -2.6520
-42.1777 60.9501 -41.0963
-10.1163 -62.9743 -27.0418
21.8877 3.1683 29.5973
-31.8871 -23.7130 5.6424
-3.0132 -44.6793 -1.2127
-10.2236 32.5375 13.2983
14.5177 -23.2015 22.4560
46.8251 31.7914 -17.2760
51.4442 -28.4828 -20.2738
-4.8508 12.4163 41.5400
-6.2109 14.5926 38.1020
-26.2107 12.7890 20.0157
17.1262 10.0226 32.6862
-70.9985 48.9133 -57.5391
-24.4478 27.2369 9.9083
14.4086 54.2261 -16.6102
21.9458 55.1225 -20.9911
40.6307 -22.4968 -3.4724
-17.6528 -13.5902 29.3766
0.1553 4.9048 52.9900
-37.3476 6.1216 8.2142
-4.5131 -42.1305 2.0623
-25.4585 29.0436 7.1592
26.1028 80.7737 -55.7312
-20.3667 -50.3373 -14.1548
64.8039 18.2703 -31.8655
-22.9863 -6.9740 27.0074
7.6515 76.3989 -44.7128
13.8004 -80.1963 -50.9576
-27.5047 -23.4122 10.5607
1.0829 -0.6006 57.9774
-3.3452 -66.9598 -31.4756
-17.2666 -22.8783 20.6976
-13.6288 -2.5272 40.8184
24.8824 62.4790 -31.7586
22.3605 42.5309 -5.6578
-38.3476 -61.1523 -38.4601
58.1714 -0.2268 -19.4160
-53.9445 -62.5245 -52.5945
-10.1472 -76.1175 -44.7262
74.2860 35.2918 -52.1376
-38.4322 -78.7250 -59.4267
20.8662 -34.0752 5.3453
25.9986 2.9686 24.0895
25.8796 73.4327 -46.1789
42.8167 61.5579 -42.2703
-0.5484 1.5693 57.4010
-4.5635 1.7343 53.0243
33.2344 10.1626 12.4180
1.1278 17.2991 36.0950
-30.2031 -29.2079 2.5459
-5.8448 -15.4046 37.2636
30.6073 -31.5601 -0.1026
-7.4539 -36.6477 8.8231
-15.3698 13.1648 32.1510
0.3044 7.3686 49.6355
-4.1302 52.0650 -11.3369
-30.9194 -76.5974 -52.6263
-19.8926 -11.4850 28.4361
9.4417 -10.6860 40.2766
40.4310 67.5856 -47.3973
-3.7467 30.0182 18.5384
43.3706 72.5327 -55.2197
41.9751 38.6075 -17.8642
-38.5720 20.3313 0.3893
1.6926 13.1101 41.6914
22.3554 43.2523 -6.5241
62.2146 44.4891 -44.3102
-18.4065 -84.6360 -58.0798
-14.6178 -71.3141 -39.2967
13.0221 6.2116 40.0482
-35.0283 44.9889 -17.8468
37.2288 -58.6163 -34.7330
-4.3730 25.1129 25.0094
17.8393 -21.9002 21.2635
9.4340 62.2454 -25.9198
52.9726 34.7428 -26.4544
-2.8313 1.0882 55.5374
-57.1911 4.1250 -18.2848
14.7710 -1.3550 39.4973
-50.8438 16.3429 -12.9373
-38.8223 27.1668 -4.7509
-42.3783 34.5084 -14.6301
62.1719 -48.9047 -47.8668
-50.0185 57.4829 -43.9202
18.0863 10.4393 31.2733
25.3201 83.8677 -59.4284
16.6853 -0.5181 36.9683
-67.0271 27.9205 -39.0425
58.6484 -59.7110 -54.1129
5.5108 -5.9456 48.6408
-41.3297 -24.5751 -5.7031
8.2222 3.1808 47.6765
-19.6363 35.3916 4.6417
31.5120 -75.8558 -51.9986
-54.3944 -49.4916 -40.3074
-57.2823 -65.1275 -58.2430
-0.3443 0.7747 58.5083
49.3025 26.4214 -16.3766
54.8337 66.6398 -57.6518
-3.4265 -33.6025 13.7458
38.8634 -45.2671 -21.4408
18.6789 -29.5822 12.1022
30.6985 17.0934 11.8972
78.3981 -11.4272 -48.0371
-34.2472 22.2636 4.1337
64.6390 -22.1487 -33.2224
24.0647 -33.2842 3.8282
4.1910 -23.4016 27.3433
-15.6149 9.2906 34.9613
10.7607 5.2705 43.3727
0.7256 3.5388 54.7501
-29.7964 -8.9019 17.3875
10.7181 -36.7682 7.5990
-19.2669 35.5177 4.7329
-1.4133 4.1427 53.7105
81.5017 -4.9749 -51.3361
-36.5788 -62.3668 -38.6246
-24.3603 22.3216 14.7465
-57.1386 48.5362 -42.2517
19.1186 -6.0484 32.4021
-51.2904 -25.9246 -18.4619
-8.8962 -19.6053 30.3946
15.4380 25.3000 19.3716
35.8324 7.9376 9.7706
60.6010 6.1745 -23.1447
-6.1754 1.2333 51.1004
36.1351 65.0415 -41.4832
63.0342 44.3121 -45.0799
-56.1359 3.0538 -16.7614
6.4369 8.8776 44.7544
-50.3861 61.0634 -47.9569
6.7424 29.7852 18.1474
45.5859 36.5230 -19.7431
-14.7728 -15.1360 30.9098
-44.4857 21.4444 -7.4710
30.4596 75.2206 -50.6568
-22.2503 -6.5488 28.1316
19.0894 33.9393 6.7278
-18.9079 10.4879 30.2687
-42.6539 12.2906 -0.6807
-6.1586 7.5886 46.3754
-2.6018 9.9212 45.7182
-69.9990 -7.7743 -36.0786
59.2838 50.9463 -46.5969
2.0515 -35.7662 10.9615
22.7174 -38.0897 -0.6269
-27.4731 -30.8066 3.5498
4.1373 32.1122 15.6477
-23.7846 64.3832 -33.6407
9.1634 5.8302 44.8967
-43.8439 40.8188 -21.7704
-3.5250 -47.4375 -5.0020
68.7123 26.0303 -40.2221
20.1527 11.9607 27.8042
-20.0028 56.5603 -21.8919
45.9864 61.7787 -45.0312
-39.7930 67.2783 -46.5948
7.6873 0.5455 49.1846
13.7119 81.6590 -52.8977
-39.0005 45.2031 -21.4964
29.4086 1.2040 19.6502
47.3633 -52.6904 -36.6487
4.2392 53.4710 -13.2539
9.1373 8.2136 42.9591
-23.9085 26.0095 11.6362
27.6194 1.0879 22.0867
4.3015 -78.0330 -46.5756
-62.2951 53.7961 -52.2267
35.7756 56.8178 -31.6109
-31.0958 9.2476 15.5606
41.2391 4.3509 3.2905
22.4110 -31.8982 6.6672
-19.9790 -52.3436 -16.5003
5.4520 22.0340 28.8052
-59.5053 -26.5280 -28.9028
-19.4882 -20.6699 21.0434
-51.4742 45.2840 -33.5350
-4.4777 -44.6373 -1.3222
-2.6870 11.2362 43.9560
-6.6288 -2.1095 50.2045
-8.4241 9.6344 42.2636
0.2637 71.0991 -36.9895
17.7648 14.1080 28.8231
42.0075 -43.8733 -22.9088
-2.4461 14.9937 39.0094
-24.5753 -2.3491 26.1016
-3.1380 -39.3446 6.0072
3.6713 -1.7985 54.1035
-62.0674 26.3989 -32.0261
12.1597 27.9556 18.2196
85.3866 -3.4821 -56.5073
-5.3721 2.6145 51.5391
-13.0062 -44.4307 -3.2715
18.8748 -34.8990 5.7263
-7.3928 -0.8897 49.5387
-11.1246 26.1090 21.0816
-13.2316 -0.0813 41.6738
0.4042 -0.3648 58.9206
6.4229 -3.0487 49.9960
32.8258 5.7814 14.3516
-1.8952 -28.7316 20.5191
-25.9103 -62.1193 -31.8332
-23.3182 -6.9559 26.5825
-16.2943 42.1860 -1.8145
-0.3917 -7.3997 49.5877
30.9488 -4.6947 17.1088
-20.3510 15.2943 25.0548
4.2223 -5.1145 50.6452
81.1726 -5.0948 -50.8996
-21.2332 -10.9881 27.1612
-53.4877 26.9264 -21.7420
77.7785 -23.9897 -50.9836
-87.0289 6.7682 -59.0006
5.0873 -3.3375 51.3898
-41.8276 51.8385 -30.8855
60.1726 -47.0428 -44.1664
1.0448 -5.8389 51.5974
-21.5426 -68.0836 -37.4123
23.0671 -29.8081 8.4249
1.4919 -2.8782 55.2538
35.6578 -67.6114 -44.2465
-22.5152 -81.6844 -55.5192
42.7528 17.5594 -3.1669
-3.8019 -5.8034 50.2295
-6.5424 -10.5047 42.8379
79.2283 -20.5435 -51.6011
26.4825 49.5612 -16.7259
75.0129 10.3347 -43.2724
-70.1148 -14.2279 -37.5934
-71.5785 1.7088 -37.6683
51.4054 -44.9386 -33.1551
-67.8474 -3.9436 -32.7244
-21.1404 -10.0562 27.8375
75.0465 25.3663 -48.0249
-78.7987 -36.1074 -58.1656
8.8210 4.5507 46.1681
38.3572 63.4075 -41.0771
-19.3483 -37.6421 2.1275
32.1850 -70.1766 -45.2892
-2.8922 -7.9159 48.2044
35.3966 0.5182 11.5386
-49.2213 -32.8121 -20.7532
-50.3304 9.8682 -10.0593
23.9089 37.2729 -0.5348
-14.0857 -0.7758 40.4841
-46.5545 55.3948 -38.7024
35.6686 -27.5961 -1.6434
-2.4624 6.8238 49.7992
42.3000 52.2327 -31.7058
11.3413 7.2999 41.3262
12.8726 16.8126 30.8766
13.8348 -84.5879 -56.8530
-44.0877 59.1474 -40.6208
-68.2513 18.3176 -36.4010
-31.2797 11.7928 14.2187
65.5338 -13.2652 -31.2303
25.5202 6.4784 23.8690
42.7068 -13.8329 -1.3629
34.8936 17.1477 6.8095
36.3583 26.5875 -1.5684
-8.5214 -74.9063 -42.8211
-3.3010 -5.8106 50.5763
35.8574 -37.5480 -10.9165
31.8296 70.5312 -45.5279
63.2935 -25.5239 -33.1108
-11.3245 -25.5933 21.6165
18.5611 28.7586 13.1320
-0.4172 0.7709 58.4691
-1.8871 1.9537 55.9682
53.7184 50.6569 -40.7096
-69.0078 50.8332 -56.8496
-60.7297 -2.5716 -22.9670
-43.8185 -72.1542 -55.0933
-52.4843 -46.7621 -35.8949
-7.2815 -24.4217 25.0185
14.0907 -61.5338 -26.1512
-5.2049 8.5474 46.0569
-20.1678 -20.7315 20.3439
-45.5148 -67.7410 -51.2791
35.6741 19.0899 4.6599
41.2875 1.5572 3.4960
-28.7606 50.5469 -19.3950
7.1615 40.5135 3.7342
-0.8283 -44.3602 -0.6515
48.9722 56.6438 -42.1265
9.1222 55.8926 -17.3230
52.1827 67.9731 -56.8281
14.9215 36.4286 6.1477
0.5258 44.2711 -0.5241
16.5687 74.7181 -44.3758
16.1408 30.4814 12.7746
6.1032 -36.9914 8.6960
80.5586 3.5269 -49.9527
7.8894 -3.1830 48.0962
-18.7518 -4.7602 33.3616
58.6526 -0.0029 -20.0696
15.5237 80.4686 -51.7424
34.3375 76.6927 -54.5650
0.3938 0.5398 58.7524
22.0151 13.9604 24.2244
0.3821 2.2980 56.4940
-0.7221 34.4505 12.8196
-11.3705 35.9698 8.3797
2.0870 2.6706 55.0534
-39.7910 -22.8407 -2.7076
-71.7349 13.6571 -39.6047
-31.8739 -45.5588 -15.9223
-5.9547 9.5207 44.3956
41.0585 -41.3980 -19.5985
-37.6075 -41.7580 -16.7310
-51.0297 -69.3903 -57.4266
-15.9738 19.2689 25.6372
1.6584 0.5905 57.2677
-1.8332 6.1175 50.9794
37.6100 -30.4208 -6.0957
-30.3732 58.5671 -30.0227
-32.6385 3.9607 14.9676
-70.9587 -4.1807 -36.9654
-39.4992 -2.8315 5.8291
28.5178 -12.5542 17.3045
-36.9291 1.2184 9.4333
-28.6652 -43.6807 -11.3614
-38.1751 -2.0647 7.6910
-0.7445 -68.3522 -33.2603
-57.1129 56.5069 -49.5541
-3.5020 -1.0991 54.6712
-16.3483 0.4868 37.4275
-20.1076 23.8129 17.2937
4.0291 4.3652 51.5854
4.9417 -19.2357 32.6633
-4.8155 9.6846 44.9582
-38.8686 13.0889 3.9087
-47.0562 10.8289 -5.9778
24.4538 -11.9552 22.6592
-11.9033 -45.9142 -4.8168
-2.1320 43.2568 0.7876
0.8136 78.9574 -47.6770
1.9691 -40.0180 5.1958
1.3220 4.2682 53.5868
0.2483 -19.8176 32.7192
52.5371 6.1811 -12.2490
52.7686 20.9791 -17.5322
-2.6365 -1.7904 55.3284
-71.4655 -20.5253 -41.4143
9.7302 23.2954 25.3423
-6.7540 -21.6376 28.8477
-68.3502 -19.8797 -37.1023
-15.6697 -5.5301 37.0723
55.6448 -23.5040 -22.4519
-9.9487 -19.7002 29.6598
-15.4323 -81.4607 -53.0437
-19.0863 -3.1093 33.3734
9.4287 -20.7469 28.6823
-1.2817 10.4835 45.3036
1.5985 0.2912 57.4520
-30.8248 3.9980 17.4075
-18.2153 -14.3783 28.1148
34.5869 17.6911 6.8510
-33.5059 -30.3926 -1.8323
5.4253 56.2028 -17.0945
62.6332 10.9869 -26.7808
76.1106 -26.7954 -50.0259
68.2057 -7.6008 -33.6297
10.8153 23.6732 24.2809
19.2526 49.0441 -11.9610
27.4756 13.5055 18.0431
26.1215 33.5112 1.9024
12.9898 68.7433 -35.4402
12.2975 83.1415 -54.5886
43.0431 31.4198 -12.7810
27.0159 -18.4428 15.1948
2.8230 27.0807 22.6486
20.9396 -12.8163 26.2877
-22.5842 -18.6782 19.8213
-28.2608 9.3104 19.2129
-23.7170 -53.6205 -20.0409
17.1309 -47.4661 -8.9367
42.0307 -56.9169 -36.5197
4.9601 -3.3215 51.5459
51.3657 -39.3657 -28.3112
-1.6320 80.0746 -49.2126
32.0147 1.0087 16.1195
5.3888 -4.9629 49.7020
3.7279 -8.5267 47.0104
-26.0764 -9.7055 21.8377
-1.8156 -5.6530 51.5896
-34.9855 -36.0834 -8.6599
18.5563 -1.6220 -59.6607
16.5910 -1.4700 -59.6607
-35.4290 31.3949 -59.6607
-22.1546 -39.9273 -59.6607
-43.5774 42.4571 -59.6607
-18.5785 3.4814 -59.6607
-29.5666 54.8492 -59.6607
15.5537 -14.5568 -59.6607
-5.8716 2.1586 -59.6607
-43.6919 -72.2004 -59.6607
-25.3740 34.3860 -59.6607
-3.2510 -1.5857 -59.6607
8.3078 5.4984 -59.6607
60.8193 11.4705 -59.6607
-11.9215 -3.9200 -59.6607
7.8722 46.0523 -59.6607
43.0566 64.1360 -59.6607
-5.9300 4.1221 -59.6607
-63.1619 31.0279 -59.6607
-16.5417 22.5281 -59.6607
-34.8955 -14.2024 -59.6607
-20.5241 75.0728 -59.6607
65.3631 -21.6249 -59.6607
63.8973 39.8667 -59.6607
-1.3680 56.5008 -59.6607
51.3899 -31.8196 -59.6607
-39.1944 36.1932 -59.6607
-24.3471 -5.5647 -59.6607
15.3774 -12.3951 -59.6607
-0.0486 -6.4426 -59.6607
-37.0445 55.5500 -59.6607
-7.4693 18.5358 -59.6607
18.4419 -20.7987 -59.6607
-38.6028 -12.8882 -59.6607
-1.7608 2.9094 -59.6607
-15.6822 -7.6986 -59.6607
6.6995 49.2107 -59.6607
0.7576 -5.1285 -59.6607
-3.6853 22.4812 -59.6607
51.6347 47.6824 -59.6607
-15.9264 -54.2996 -59.6607
42.7404 -17.9915 -59.6607
-6.7429 5.6982 -59.6607
-59.8565 12.0599 -59.6607
-64.7764 -41.8989 -59.6607
-0.2695 -82.7199 -59.6607
29.4504 -17.9320 -59.6607
-10.4570 -3.1128 -59.6607
30.6732 -66.5116 -59.6607
-7.7482 -4.9534 -59.6607
81.7869 -19.9865 -59.6607
-6.2519 2.0367 -59.6607
-26.4755 -77.5998 -59.6607
40.5136 23.9028 -59.6607
47.2375 -35.9930 -59.6607
-46.2318 41.7985 -59.6607
73.4115 29.1366 -59.6607
-49.3915 -16.2984 -59.6607
30.6761 48.3746 -59.6607
-4.1445 -26.5588 -59.6607
9.3810 28.2590 -59.6607
69.8346 27.8441 -59.6607
-46.5662 73.0040 -59.6607
-24.3251 55.5526 -59.6607
56.5383 35.4884 -59.6607
20.4029 -85.2670 -59.6607
-20.9172 -16.3866 -59.6607
-31.3510 46.5750 -59.6607
-17.5656 17.3576 -59.6607
-17.6462 -1.8163 -59.6607
15.6051 -47.1836 -59.6607
-40.3856 45.8248 -59.6607
-0.0437 -0.0042 -59.6607
28.6983 -31.8052 -59.6607
14.2966 47.7033 -59.6607
5.1919 -4.4556 -59.6607
1.2942 -12.7334 -59.6607
-65.2462 19.1209 -59.6607
-24.0605 3.7542 -59.6607
-24.0067 -29.3322 -59.6607
-21.2182 84.4335 -59.6607
49.6652 -56.4825 -59.6607
22.9917 70.1098 -59.6607
11.0736 -30.2395 -59.6607
5.8216 -9.1972 -59.6607
-10.4654 73.0798 -59.6607
-29.1983 82.1383 -59.6607
52.1754 -0.9265 -59.6607
-71.3448 -30.0973 -59.6607
-71.5807 -45.1869 -59.6607
31.7958 21.7582 -59.6607
-20.5828 43.3007 -59.6607
-12.0523 -33.4738 -59.6607
2.7257 16.0173 -59.6607
-1.3658 0.2677 -59.6607
-38.9373 31.4160 -59.6607
30.7022 -13.2716 -59.6607
25.3421 29.7562 -59.6607
-1.2587 -15.4342 -59.6607
15.8511 17.1719 -59.6607
-52.1038 30.3451 -59.6607
69.1254 -6.1209 -59.6607
11.1581 13.0572 -59.6607
6.6109 24.2318 -59.6607
-44.3899 66.0332 -59.6607
4.4589 1.8956 -59.6607
-76.3218 17.7521 -59.6607
-5.6830 77.2506 -59.6607
55.9770 23.7846 -59.6607
9.4123 -5.9396 -59.6607
-14.9457 79.0518 -59.6607
36.8121 60.9023 -59.6607
19.3797 1.7864 -59.6607
69.3049 -34.4643 -59.6607
-78.9454 -11.1828 -59.6607
-56.7460 51.0690 -59.6607
-18.9713 59.1023 -59.6607
24.5187 18.6632 -59.6607
-58.1658 63.7989 -59.6607
-3.4242 29.7622 -59.6607
-77.9024 -30.5148 -59.6607
-58.7489 55.3852 -59.6607
-22.9262 -46.2709 -59.6607
4.6797 7.3454 -59.6607
27.7966 18.5462 -59.6607
19.4736 -8.9018 -59.6607
-8.0976 -32.0117 -59.6607
-26.2736 50.1653 -59.6607
24.7875 -18.1425 -59.6607
-2.9418 3.4792 -59.6607
41.8482 -26.9133 -59.6607
-12.8839 4.3265 -59.6607
-20.4198 -13.3519 -59.6607
16.4059 -83.8219 -59.6607
57.6493 -2.6052 -59.6607
17.7354 17.8178 -59.6607
11.0139 20.1022 -59.6607
-40.6741 51.0213 -59.6607
-34.0351 5.8227 -59.6607
77.3567 -25.7491 -59.6607
-8.3113 -20.0919 -59.6607
-11.6674 7.5450 -59.6607
-4.3067 -5.2353 -59.6607
8.1001 -0.2062 -59.6607
29.6434 -9.2589 -59.6607
-20.2911 -3.3506 -59.6607
-3.2865 22.5082 -59.6607
-26.0522 -60.1616 -59.6607
-7.7257 7.4483 -59.6607
24.6009 72.6276 -59.6607
35.1004 8.1857 -59.6607
-0.1542 -2.3536 -59.6607
-15.6473 -11.6626 -59.6607
-8.5249 14.9624 -59.6607
-38.8027 1.6240 -59.6607
26.2778 -33.3042 -59.6607
30.8872 53.3744 -59.6607
-81.0851 17.5808 -59.6607
-8.6555 -4.2790 -59.6607
5.3312 2.7002 -59.6607
-36.1226 18.1288 -59.6607
-14.4086 57.1252 -59.6607
-47.7800 -9.7205 -59.6607
3.0690 -4.5077 -59.6607
-17.4983 26.0025 -59.6607
-17.9283 -62.5290 -59.6607
42.9852 52.9575 -59.6607
9.3399 -9.6438 -59.6607
49.1175 -12.1117 -59.6607
14.8978 -3.7211 -59.6607
20.5840 -43.5654 -59.6607
30.5628 41.8137 -59.6607
12.6609 7.1942 -59.6607
-23.2737 69.1882 -59.6607
-29.1995 -4.6846 -59.6607
4.4908 -48.6022 -59.6607
-7.9117 1.5817 -59.6607
58.1956 -61.3061 -59.6607
-20.1825 -59.2879 -59.6607
31.7562 14.8838 -59.6607
-23.5039 12.1941 -59.6607
6.7881 -0.6892 -59.6607
64.7229 21.7614 -59.6607
4.8594 -27.0263 -59.6607
54.1150 -55.6772 -59.6607
-7.0666 3.9160 -59.6607
10.9440 -55.7591 -59.6607
-0.2648 1.0272 -59.6607
35.4318 -9.4948 -59.6607
15.9540 70.7352 -59.6607
6.0922 45.4018 -59.6607
-44.0163 16.8660 -59.6607
-62.8056 -52.4265 -59.6607
74.7275 21.2547 -59.6607
-26.3461 -15.5536 -59.6607
64.6249 -56.2766 -59.6607
2.2209 -2.6252 -59.6607
26.7661 -14.5715 -59.6607
3.0728 -19.1013 -59.6607
24.6512 36.0039 -59.6607
16.5545 10.5665 -59.6607
-74.1392 30.6842 -59.6607
3.3442 76.9473 -59.6607
52.3110 64.4214 -59.6607
7.4712 39.0494 -59.6607
-12.2180 20.8081 -59.6607
8.9477 -67.3397 -59.6607
31.2348 66.0154 -59.6607
-53.4353 18.4031 -59.6607
4.1633 -33.6657 -59.6607
4.9639 5.2312 -59.6607
-75.0128 14.6541 -59.6607
-46.2839 -63.8667 -59.6607
-40.7316 -31.6251 -59.6607
-15.2988 24.9241 -59.6607
56.2114 -65.6978 -59.6607
23.6492 35.4788 -59.6607
10.1141 19.9455 -59.6607
44.7308 6.4364 -59.6607
59.3867 -31.1332 -59.6607
-63.7490 2.2635 -59.6607
29.1264 -15.4272 -59.6607
-56.7741 11.9647 -59.6607
-20.9067 10.7074 -59.6607
-51.6526 -53.1490 -59.6607
-23.7271 24.3287 -59.6607
-7.4283 -2.3583 -59.6607
-10.2387 -1.4128 -59.6607
-72.7905 47.4396 -59.6607
1.0290 42.6842 -59.6607
-3.4944 3.9360 -59.6607
9.3245 9.9283 -59.6607
-28.9770 -61.5086 -59.6607
51.6372 -62.0305 -59.6607
-11.1196 -38.6382 -59.6607
19.8799 13.3886 -59.6607
35.5841 1.4963 -59.6607
13.0519 1.7878 -59.6607
-2.5167 5.2095 -59.6607
-22.9220 -29.4096 -59.6607
-79.9865 -9.6340 -59.6607
-59.8791 -31.2955 -59.6607
-56.6023 -5.3680 -59.6607
13.0483 24.5719 -59.6607
31.4974 -26.5439 -59.6607
-49.6411 -63.3524 -59.6607
-16.7062 -42.5092 -59.6607
-0.5152 25.7996 -59.6607
-8.5302 13.5777 -59.6607
-9.9805 -52.5154 -59.6607
56.2826 44.3281 -59.6607
-10.7172 -34.5233 -59.6607
-14.5449 -24.8353 -59.6607
-6.0297 -27.6781 -59.6607
-69.3495 17.3528 -59.6607
-32.9628 53.9709 -59.6607
