ply
format ascii 1.0
element vertex 1024
property float x
property float y
property float z
end_header
5.7872 -6.1191 71.6484
-33.4544 -45.8055 -84.4094
-18.8524 -56.2346 -92.7746
-41.5927 1.9496 -35.6744
24.8531 -29.0360 -24.6297
1.0275 4.6746 83.3970
-52.6662 21.0890 -84.4418
58.7947 7.1851 -92.5211
35.0260 38.8510 -70.1517
-14.1764 1.2608 52.8760
-50.4131 3.5242 -64.4238
1.9474 -6.7882 76.0438
-6.8580 -1.7402 76.0004
-33.5360 36.0518 -60.2301
-13.0103 19.1151 24.1509
13.8544 -20.1603 19.8238
-33.9048 -5.3760 -12.0556
-17.4967 2.0010 41.9600
-49.7041 -26.5286 -83.1783
5.7694 3.6890 76.7352
3.9454 -36.6823 -20.3449
-58.3598 5.3879 -90.5044
-4.8818 -30.8653 -2.1059
-33.2659 -7.1438 -11.0731
1.4347 -4.6105 83.2601
14.3914 57.2151 -91.7624
16.7100 -1.5226 44.6466
13.1683 -22.4457 14.7785
-3.7756 24.3052 19.3880
21.9767 -45.1564 -63.4034
0.0856 -0.1199 98.3854
38.2801 -29.7186 -57.7221
-44.8175 -32.3699 -79.7672
-9.5326 2.9468 66.6229
-32.2553 -31.0296 -45.7529
15.1547 28.2489 -4.7173
-44.1381 -11.3560 -48.3957
2.2998 -18.0091 40.2005
-32.4328 -1.5976 -6.0579
12.1010 35.2957 -21.6973
13.3427 0.2276 55.7440
-17.4634 41.4626 -46.5046
-8.3620 1.9545 71.1151
-43.2305 19.8914 -54.8958
-33.8799 20.4056 -28.9284
-4.8712 18.2626 37.7910
-8.2448 -1.7378 71.6366
0.8396 0.8762 94.9404
-2.6060 -31.6323 -3.6906
-23.4006 -5.9897 20.8151
32.7325 6.3627 -8.8787
38.0392 -32.8337 -63.4983
3.3582 -13.3773 54.2975
40.3534 1.3580 -31.5967
-1.0167 -30.1936 1.2490
48.1785 -31.9635 -87.9496
-28.7450 -3.4661 5.3119
7.1485 13.7003 48.9315
-33.3766 -19.3203 -25.7448
-49.2378 -2.5420 -60.4407
20.6505 31.0097 -21.5164
-33.8011 -31.0116 -49.3534
-0.8325 -8.8223 70.2295
-10.9466 26.9930 4.7466
44.8380 -10.9713 -50.2869
12.1967 12.6944 41.9812
-20.6000 19.8107 6.5174
46.9759 -37.4755 -95.3019
-39.2873 -20.5120 -44.3381
5.8356 3.9206 76.1460
8.0054 18.3334 34.2241
0.0565 -0.0662 98.5802
-8.7627 -1.9232 69.8748
-4.5216 17.1900 41.4303
-5.0576 22.7627 23.5204
21.7831 20.3990 2.4359
26.0111 20.9947 -9.1426
-46.0794 24.5153 -69.7836
-5.3811 42.2085 -38.6205
26.6119 -18.3861 -5.6493
-30.8597 52.3537 -97.4965
41.4234 -32.8711 -72.0004
41.8282 -26.4424 -61.0285
17.8690 2.1687 40.7019
7.3812 27.8117 5.8894
35.0003 -3.5678 -14.8127
6.0277 -18.3849 36.3475
-13.8493 23.3466 11.1534
-6.2256 -42.8297 -40.9781
26.3112 -35.6027 -44.1775
-20.4459 -5.4011 30.5335
6.4030 -7.1808 67.7756
-9.5773 -18.7764 30.7576
-13.6532 27.6383 -0.7413
13.6510 11.5090 41.1705
15.8964 53.5081 -81.4944
6.1429 60.5322 -97.7262
-58.0471 -19.1456 -98.6306
-23.1106 1.5874 24.0138
21.6292 -10.2510 21.5245
35.9887 15.6531 -27.9431
39.3265 -5.2588 -29.3357
18.6384 16.7921 17.8034
-0.3501 4.6437 83.8148
40.7309 11.2332 -37.6556
23.6761 -23.4682 -8.8504
-0.3000 -47.8488 -55.7439
16.7941 28.1522 -7.0555
-5.7447 -3.1456 77.6996
34.5499 -12.7801 -20.1637
-10.5575 45.7333 -52.7918
-0.3113 -6.5324 77.7308
-2.2833 -0.2962 91.4220
10.7536 11.8241 47.2200
-7.8559 38.6117 -28.4514
0.4628 -2.5299 90.5515
35.7707 -28.4117 -48.7371
11.2085 -8.9785 52.4597
-4.8971 12.5880 55.2193
54.6443 2.2321 -77.8449
27.4820 18.1248 -7.5073
23.1701 1.2587 23.8872
2.1027 -9.6595 66.9202
13.9065 -0.8930 53.8360
49.5997 22.9608 -77.7369
1.8723 26.4919 13.0509
-16.4764 -19.8086 15.6120
28.8745 39.1585 -58.3395
8.9351 7.1594 61.8671
11.1800 7.9718 54.4956
-21.9441 11.7375 18.4533
0.1982 0.0858 98.1635
-2.5225 -3.0112 86.1694
-5.5079 1.5821 80.3455
16.1771 17.8918 20.9256
-39.7871 -44.5152 -94.0472
-26.3809 10.8924 6.6435
-20.7848 35.3479 -33.6309
17.0288 30.6761 -14.5024
-0.9245 -5.5206 80.7756
-16.5058 -37.3789 -33.1630
-2.6069 -0.8836 89.9675
-1.6110 -4.1761 84.3991
46.5843 11.0003 -55.7948
26.4752 16.1664 -1.3685
-5.7110 49.7231 -62.8531
-47.2357 8.2031 -56.0442
19.1341 -35.3191 -30.9273
-54.8857 -16.9360 -86.7283
12.2741 -48.6711 -63.3214
-38.6860 -40.3413 -81.7321
-35.0244 -0.4680 -14.3145
-11.8810 15.4638 35.8528
31.0356 -50.7639 -93.3848
-36.1467 6.9621 -20.0773
-9.6255 -56.4275 -86.0927
51.3759 -24.7573 -85.4055
-19.1704 -44.2112 -56.8387
14.0629 26.4709 2.0119
-32.7690 33.7278 -53.0798
-32.0486 20.7753 -24.5433
1.4254 3.2844 87.2931
15.6280 28.5466 -6.2917
18.3163 -44.1987 -55.7241
25.9660 -12.6531 5.5327
36.3911 -18.9700 -33.7370
-4.3446 -2.6124 82.4816
45.4586 -7.9825 -50.2655
-36.5247 -31.5471 -57.0778
2.2248 -29.1855 4.2878
-17.1093 9.5617 35.5332
30.1081 8.2130 -1.9740
33.3094 11.2727 -14.7595
53.9073 -0.9166 -75.3415
-46.6639 28.9505 -78.5720
-7.3202 -5.6108 69.0610
6.9936 4.7028 71.6310
-2.6637 -13.9632 52.9320
14.9545 8.5871 43.1432
7.4436 -13.2508 49.7545
3.5179 -12.8357 55.8591
37.7271 16.6569 -34.3893
-11.7818 -2.3395 60.0504
7.9521 6.9954 64.6408
-12.6511 0.4149 57.9631
-7.3756 -15.1914 44.2979
-11.0272 4.1447 60.7984
-4.1056 -21.1187 29.3480
-14.6063 7.9640 45.1083
-24.4055 12.7946 9.8265
-17.4714 -0.9588 42.3253
48.7401 -0.8066 -58.6422
6.2379 -11.9285 55.3679
7.8810 -42.6230 -41.1902
15.0329 -19.0776 20.3830
1.3221 17.1781 43.1937
50.6196 -1.6186 -64.7771
26.4940 -29.1541 -28.4231
55.8704 10.5092 -84.8248
-25.9922 13.1363 4.7630
-5.5847 19.2858 33.9879
22.6321 22.9818 -5.3558
-20.3126 -21.4930 3.3100
-38.1869 -24.5340 -47.7930
-35.2670 -28.9511 -48.5658
0.4347 -12.3456 58.9473
1.3235 -0.7393 93.9632
41.6225 -38.8450 -85.0924
-32.1470 14.6899 -15.3381
0.5431 -14.2178 52.8894
0.7486 -1.7860 92.6042
-21.4139 -18.9601 6.4485
1.9580 0.4567 92.3650
-2.2672 -17.0546 43.2723
-43.9813 21.8350 -59.7940
-18.9762 -15.7831 19.1123
16.6643 10.0335 36.0116
40.1389 14.5503 -39.0880
0.1288 0.6074 96.8554
6.1172 1.9040 78.1610
4.6836 -30.2024 0.1092
8.4705 -3.4866 69.2650
46.8598 3.8504 -53.0557
-7.2724 14.6315 46.0686
-7.3790 33.8711 -13.1451
12.7164 6.8191 52.2392
31.7685 -32.6306 -48.2845
-29.3219 18.7780 -13.6421
-10.9827 16.2068 35.6054
-35.4494 -1.3468 -15.7604
-1.1155 26.8023 12.1868
-0.1698 -6.7144 77.1600
-52.2659 -29.4881 -95.0363
-30.2484 21.7395 -21.4960
-13.4426 -26.8586 1.8173
-48.5269 5.7878 -59.0433
-5.8184 -30.0423 -0.0107
-4.0445 2.7764 83.0108
-9.0335 0.0318 69.6735
-18.1883 -18.6801 14.6205
45.2961 -5.9354 -48.7441
2.2923 -4.3917 82.8548
-48.7603 -0.1300 -58.6865
-23.1921 -5.3987 21.9228
8.5171 50.0706 -65.2436
-3.7652 2.6466 83.9911
-5.6698 30.0307 0.1163
-0.6191 0.5221 96.2448
0.2579 -55.7205 -81.1767
-3.6780 -6.4118 74.9780
24.8408 -54.7155 -95.2941
25.0343 -53.0264 -90.6042
-8.2920 -24.5876 15.0215
-17.8042 33.6558 -24.1609
20.7116 53.7935 -87.3865
45.8797 24.6044 -69.3498
35.8620 -36.7965 -67.1554
10.4565 -2.5621 64.0763
-44.5073 -15.3068 -53.2112
20.7615 26.8202 -10.7264
0.9835 -1.6508 92.6529
7.7178 19.8863 29.9384
-6.7921 9.6646 60.6942
58.3907 1.4723 -89.8622
-26.2474 -20.3443 -8.4379
14.1952 -34.6112 -22.0095
27.4865 -44.7446 -70.8102
-3.9043 -18.3116 38.3658
14.0544 -8.2170 46.2590
24.8867 26.5804 -18.7894
-31.6767 -30.9168 -44.1568
-41.6978 30.4963 -68.0544
-20.1360 23.7177 -1.6649
-25.6450 -10.8246 8.9220
4.9534 -14.1783 50.3353
-0.7558 -15.2143 49.6425
26.6538 -53.6276 -94.6342
-38.7933 -14.5256 -34.9805
-39.2326 5.2387 -29.0264
35.2325 -46.3708 -89.3065
-27.0289 -47.4281 -77.5197
-26.4565 -14.3762 1.5738
20.6002 41.5247 -50.9101
-6.3173 -57.3705 -87.6264
-32.0564 15.2954 -15.9010
23.2881 43.6859 -61.0936
35.6879 23.9974 -40.0931
-4.1309 6.4265 74.1773
58.0864 5.4466 -89.6425
-15.9266 -1.9673 47.0104
-2.8753 -6.5822 75.6534
43.9831 35.1518 -83.0609
-9.2533 -8.5861 58.0751
-9.8759 -0.8659 66.8294
-5.3335 19.8613 32.4147
-10.6094 3.2416 63.0174
-10.6782 59.2907 -95.7924
53.9106 10.7936 -78.7837
-34.7546 37.6636 -66.7262
10.3028 -5.3857 61.2985
11.6929 10.7092 47.6299
-41.6649 -17.3184 -46.9265
-15.0804 11.8408 36.9107
-13.9379 10.3050 42.8551
11.4296 -7.9505 53.8757
13.8995 23.1796 11.5338
49.4522 -29.5138 -87.2148
25.2483 8.9916 12.2640
6.9504 -9.0704 61.9395
-17.0718 13.1015 29.3302
-3.8719 -56.8791 -85.3437
-35.5204 19.2243 -31.6379
0.2577 -47.0154 -53.0504
41.6971 3.1031 -36.2369
22.9253 -43.6959 -60.5744
-14.6719 -22.7476 11.4008
48.5569 -9.0501 -60.7306
11.7169 7.5607 53.8059
-9.8087 57.2085 -88.6798
-5.6832 -18.3608 36.7597
26.8156 -26.7303 -23.4753
38.1962 -10.6765 -29.2831
-31.2065 3.7365 -2.6888
6.7835 4.5682 72.4369
29.0147 -43.5597 -70.2467
-50.7777 2.2715 -65.3684
-42.2751 -36.4645 -81.5243
20.2808 -53.4840 -85.9554
-1.0095 -42.6020 -38.8269
-11.0614 10.1565 50.3407
26.6941 -30.0511 -31.0110
-17.5586 22.7103 6.1090
39.8658 -26.0841 -55.0695
1.1894 -2.0061 91.3261
12.4169 -4.0442 56.6675
23.9267 8.4363 16.8883
31.6228 -10.6056 -8.9068
-25.1092 10.7480 10.6119
-1.0022 7.1750 75.4536
-2.2237 -3.8870 84.3923
-22.3053 38.1185 -43.8383
-16.4116 6.0091 42.3917
-11.8976 24.6196 10.5124
50.9646 -1.7172 -65.9016
-0.0483 -0.0489 98.6393
-10.3069 -6.1680 60.0516
-37.4628 31.6857 -59.6729
1.7386 8.9098 69.5305
7.9577 3.1915 71.1590
-21.5032 -33.8556 -30.7273
5.5609 1.6955 80.0772
20.3418 5.2737 30.9631
-10.5421 -0.6367 64.7372
-0.4454 0.5464 96.5837
1.7910 -34.0627 -11.3493
15.4711 -2.5970 48.1741
1.6288 0.0902 93.5907
-39.3607 24.7529 -51.3732
-56.7378 8.3836 -86.4522
-28.9946 -13.5089 -4.4909
5.4055 -22.4279 24.3204
-10.6574 48.5200 -61.6467
-19.6944 -25.5494 -5.3692
-13.6199 7.1933 49.0943
41.7435 19.8840 -50.5342
-4.1154 21.6761 27.5736
-10.6291 -1.9522 63.9436
31.9090 -22.4025 -27.1108
2.8026 -52.1224 -69.7923
7.7794 13.4020 48.7921
-12.4471 -53.7720 -79.4732
19.7672 -50.1299 -75.2488
-0.0749 -4.5708 84.0909
20.6979 -13.4421 19.1196
13.9608 -41.0486 -41.2299
32.1392 -30.7758 -44.9144
35.0824 43.5164 -81.7443
28.8072 34.2292 -45.6898
-10.1004 58.4571 -92.8156
-11.6954 5.5774 56.9958
-1.3588 26.5094 13.0956
-2.8562 2.1881 87.2360
3.0724 -8.0583 70.9964
-26.2204 -38.6084 -51.9331
14.6149 -48.4344 -64.6023
-32.3755 46.4823 -84.1654
30.3448 21.8425 -21.9432
-17.9658 1.8313 40.5122
13.6140 -11.0965 42.1130
-2.8099 20.4870 32.0471
48.0344 29.9608 -84.0563
19.7728 -7.1221 30.9564
-0.4033 6.4124 78.1017
-26.7777 -19.4060 -7.9903
-14.7068 -5.7076 47.8898
-28.2250 2.7424 7.2354
1.2854 7.7660 73.4277
7.0183 -3.2965 73.8079
56.7920 16.3434 -92.0840
-11.7093 21.6466 19.3431
4.9543 9.4489 64.3894
23.0829 -23.4447 -7.4437
22.6079 3.5108 24.9386
-32.4411 -23.9092 -31.3496
-12.1951 -19.7615 23.8315
27.3891 -12.4748 1.6188
-31.6578 -19.7432 -21.6883
-17.2780 6.0565 39.7049
-14.2748 26.1834 2.5054
-44.2645 0.3045 -44.1633
-7.3105 4.5656 71.0128
-25.0893 -39.0023 -50.9793
-24.7168 1.6122 18.8302
28.2041 -10.0665 2.1019
-22.4662 -19.0618 3.6641
-5.0312 -1.4154 81.9743
-3.2418 -15.2434 48.5076
29.2037 -46.0420 -77.3046
-0.6214 49.6966 -61.7237
-13.9022 -29.3386 -6.0373
2.1677 -37.5247 -22.5853
13.3696 40.4649 -38.8345
1.4614 2.2415 90.2158
-36.8820 -18.5320 -34.5042
-5.3647 52.0042 -70.0589
2.6222 -29.9845 1.6100
3.8228 11.6030 59.3890
-50.4742 1.7514 -64.3218
0.7050 3.1965 88.2851
-1.4764 -39.8261 -29.9073
9.8119 -2.7212 65.9620
-5.0072 4.1468 77.8550
54.6826 2.3057 -77.9783
19.8554 -47.4929 -67.4616
-36.6703 9.9692 -23.9228
-30.9191 -45.1049 -77.8288
16.9153 0.3477 44.1956
-8.7935 -21.4381 23.9930
6.4690 -47.0983 -54.7448
1.6354 2.8274 88.3076
-46.7335 -4.0107 -52.6924
9.6777 0.4105 67.5642
40.1261 -6.4443 -32.4496
38.3920 46.1547 -95.1152
-33.6201 42.0714 -75.1460
46.7333 -6.3774 -53.5363
-25.1939 8.9136 12.5137
27.5136 34.7670 -44.3932
-6.2030 -47.3863 -55.5526
56.8009 2.8347 -84.8942
-44.3881 5.4177 -45.6235
-47.6607 0.6931 -55.1493
-28.0556 -46.5336 -76.7042
48.7906 -11.6893 -63.2452
52.2230 6.8546 -71.3214
1.9652 20.6289 31.9065
13.7319 3.5707 53.0172
38.3722 34.7291 -68.3606
54.0908 4.9723 -76.6460
5.6477 12.0736 55.7939
16.2399 26.9372 -2.7678
12.1727 42.1110 -42.7720
-56.5644 -4.1358 -84.3894
14.1221 -10.9498 41.1227
-7.6267 -23.3193 19.5879
53.5517 21.9675 -88.1595
-37.2611 -12.5035 -28.1290
-1.2226 11.7075 60.8282
-2.7109 21.0727 30.2132
20.9184 -45.5875 -63.2011
37.1255 12.7469 -27.9669
20.5006 -4.0792 31.3243
-3.6796 -4.7265 79.5076
-1.1316 -33.5895 -9.7299
-4.2643 26.4455 12.3109
-4.3843 54.7476 -78.5977
-26.7323 -4.2997 11.3778
-15.3787 37.8733 -33.2130
52.9918 26.7362 -92.9162
20.8585 -8.5470 26.0280
3.2627 -49.0382 -59.9343
-9.0055 5.7526 64.3340
40.7098 43.4794 -93.5901
32.5127 -32.0231 -48.5879
-55.8163 -23.8273 -97.2295
-8.0334 9.0145 59.8477
30.9217 -6.1357 -2.9964
-37.2103 20.0616 -37.7277
-4.1206 1.5209 84.6694
-50.1764 -31.3931 -92.3780
44.4713 17.5064 -55.5605
-36.4046 -41.4477 -79.3807
-22.7774 3.9772 24.1528
-26.3586 -25.3641 -19.3314
14.8677 -21.4214 14.6105
23.0771 49.9183 -78.8288
-32.3089 42.5607 -73.7895
-0.0229 -3.7793 86.6500
-15.8224 -8.1776 41.3140
22.1119 33.6787 -31.3142
-0.4743 -1.0488 95.1422
-2.9430 0.6436 89.1277
-5.0127 8.3964 67.2652
55.9053 -22.4745 -95.8217
9.5141 13.4395 45.6578
-5.7000 -14.4798 48.5818
-7.6225 45.6392 -50.6440
10.6611 4.4255 61.5648
1.6873 -2.0609 90.2555
-4.5377 -5.0974 76.8110
18.2055 21.9677 6.6760
-2.3263 21.3513 29.4660
-2.2746 -4.8352 81.5964
54.9136 -5.9676 -79.6121
38.4790 34.0615 -67.1791
-22.6584 24.3438 -8.5937
-41.7007 43.6970 -96.3003
-10.2884 -32.7172 -11.9533
-30.2749 -50.7874 -92.1793
29.1806 -18.5729 -12.9005
55.8176 -23.4313 -96.7347
46.2992 -32.7547 -84.3851
-31.5641 14.1633 -12.9206
20.5762 -3.7975 31.2557
20.2931 -44.0926 -57.9688
7.8380 -41.3296 -37.0571
-16.4516 1.2399 45.5544
-21.0474 9.3458 24.4532
20.9446 48.2841 -71.1926
6.0706 -26.5681 10.8058
-2.3752 -4.9783 81.0392
-0.0491 1.2731 94.7450
-40.7841 -23.7242 -53.5876
-52.4271 -0.9145 -70.5592
16.0008 -4.4009 45.2420
-14.9581 6.5963 46.0401
24.4009 -36.1576 -42.0801
-44.9946 -18.3405 -58.1324
-40.2131 3.7245 -31.6257
5.3830 -12.6051 54.5754
-40.1571 -44.0283 -93.6806
-1.1808 2.3141 90.4671
2.1801 -3.5797 85.3192
-2.3182 -19.2110 36.3393
-39.1131 -10.7597 -32.2099
-39.1860 31.4141 -63.4133
10.8893 -25.4160 9.5211
39.3847 44.3144 -92.6976
9.7214 -10.5544 52.4980
-5.4469 -2.8714 78.9663
33.2321 26.0249 -37.5208
0.8301 -57.0020 -85.3349
-9.7830 45.0642 -50.1353
4.7134 -49.6995 -62.4410
5.8280 22.6727 23.2230
-33.5377 27.0151 -40.2840
-43.9591 41.2614 -95.9396
-4.7871 -52.1849 -70.4589
-38.2469 30.9094 -60.0272
-49.0469 -24.5040 -78.2891
-5.4643 -4.1836 76.6254
57.1895 -5.9297 -86.9119
-6.6215 -15.7013 43.8030
-2.2669 7.8352 72.5071
4.6239 16.7336 42.7678
-31.9590 20.9121 -24.5420
-42.8069 4.4465 -40.1944
33.0257 11.1675 -13.7822
26.3678 10.1596 7.5601
18.6748 4.7520 36.5993
-6.5560 -11.9655 54.7774
49.8066 -2.7081 -62.3044
-5.3201 -18.6331 36.2509
-1.0976 -0.1310 95.2897
-48.4968 11.1536 -61.9253
10.7935 40.0395 -35.1267
-16.0098 10.7121 36.6216
-28.2103 20.7137 -14.2201
0.7289 -9.4474 68.2456
25.4196 -19.8654 -5.3768
14.8570 -14.4220 31.9601
-49.0963 16.8173 -68.8199
-10.8639 11.4078 47.9621
18.2974 3.2690 38.8054
-26.4944 -15.6796 -0.6113
-0.4180 -0.1336 97.4435
49.2601 24.8751 -79.4428
-15.0634 -49.8715 -69.4663
22.0381 -28.5317 -17.6243
9.5172 13.5372 45.3941
33.6983 5.4699 -11.4447
-41.6204 -18.9956 -48.9603
-21.3351 -0.0260 29.9265
-15.1080 0.7431 49.9876
34.5546 12.5190 -19.8882
-1.3065 -6.6629 76.9234
18.5223 -22.2277 5.3757
-37.8196 -5.2235 -24.4959
6.0589 -4.0475 75.3184
11.1969 7.4856 55.3433
30.6259 -20.6155 -20.4232
-15.2322 34.8193 -23.9360
27.8106 12.5831 0.2339
47.7775 -35.4202 -93.3061
41.1645 -4.4180 -34.9073
-3.7158 0.9808 86.4441
6.0479 -0.9482 79.0816
52.8704 -4.4365 -72.5665
9.4324 24.8211 13.0673
-37.8024 -17.7796 -36.1155
37.5302 -39.0327 -76.0957
39.5281 15.7240 -38.5902
49.9386 -14.6716 -69.3126
24.4825 1.6087 19.5866
5.0541 41.0298 -34.7104
26.1184 -46.1008 -72.3376
2.1711 -17.0922 43.1919
16.8270 -2.5245 43.8840
1.6969 -3.0121 87.6909
6.1682 -6.4018 70.1378
-8.5068 14.7255 43.9137
29.8867 -2.4154 1.9810
-0.0541 1.5962 93.7009
-14.0375 -59.2208 -97.7865
-4.7130 22.4323 24.7988
25.9451 -5.0154 13.4793
-19.8174 -1.7130 34.5914
0.7782 -10.9308 63.4539
-16.4318 -14.0603 28.9856
9.9345 -53.4407 -76.7670
-10.2366 51.7521 -71.5923
-15.8601 10.5843 37.2530
-41.5431 -26.6247 -60.5678
-10.3884 -11.6985 48.3106
-30.8830 12.9240 -9.3086
-13.5395 2.2897 54.4933
9.8761 -4.2391 64.1357
21.6667 38.0083 -42.4980
-49.4796 -13.8047 -67.1157
-24.5538 25.1966 -14.8129
-0.4231 -0.0256 97.4920
-13.6461 -31.9225 -13.3108
26.5083 19.1729 -6.8438
11.4927 51.5804 -71.8848
-31.3758 -51.6778 -96.4783
6.4894 -33.9602 -12.8513
3.7142 3.5293 82.3068
8.5031 -3.0741 69.6472
21.2057 26.6930 -11.2887
50.2103 -32.8639 -95.0320
3.5046 -20.3631 32.0996
36.3967 -33.4613 -60.8842
-9.3386 -49.8718 -65.0779
-2.3164 2.0562 88.8536
16.2951 45.0128 -55.8143
-8.0630 12.2816 51.3913
1.8329 38.3412 -25.1626
32.3727 -28.6739 -40.8678
32.8509 -28.7908 -42.2767
1.7608 17.0155 43.5896
-27.4906 37.6476 -51.7584
16.1689 21.3971 12.2071
-42.2046 6.6259 -39.1743
-0.4004 -0.0364 97.5624
2.3955 5.5653 79.2844
14.8882 -31.0347 -12.3551
0.6934 30.3797 0.6774
-6.5963 10.5286 58.7178
14.1405 -5.3124 50.0547
0.8187 -0.0800 96.2037
-30.5656 36.5814 -55.1640
10.9540 -51.5069 -71.2824
27.9953 16.5492 -6.2158
7.5708 -13.6112 48.5374
-12.4619 -50.4910 -69.1735
12.6578 -43.7696 -48.3559
-28.5140 15.6329 -6.2068
39.0673 -17.6231 -39.6160
-8.4182 39.9294 -32.9890
17.2144 -3.9350 41.8061
4.4441 45.4702 -48.7556
-4.1660 48.8502 -59.5494
-1.6958 -57.3484 -86.5157
19.3995 9.5855 28.9462
-12.2150 49.4575 -65.7402
25.9416 -36.3844 -45.5199
0.9650 -0.5614 95.2542
-3.3859 -6.0036 76.5911
-27.4308 46.2283 -74.8211
5.0474 -21.2908 28.1629
3.1396 2.2135 86.4494
15.5901 -24.8152 4.1720
-6.1783 12.7566 53.0643
41.7518 -29.8576 -66.9862
-33.6309 -5.5874 -11.2914
-5.2077 27.2270 9.2947
6.1951 -38.9044 -28.4248
28.1499 4.9963 6.4859
12.4642 3.6730 56.8768
-7.0719 -12.0943 53.5939
12.3854 -38.4242 -31.5796
8.8572 -48.9923 -62.0016
-33.8425 -34.3679 -56.9837
4.1678 -52.9270 -72.6781
-38.1639 -44.7087 -91.0673
-6.1679 6.6352 69.5905
-3.9328 28.0354 7.3906
-12.0422 4.5153 57.3071
32.4665 23.5277 -30.6886
-35.5922 30.7533 -53.1210
-19.6011 31.1401 -20.0270
11.6853 -3.2256 59.6936
-41.0841 -16.5788 -44.2841
-13.9875 -26.8241 1.1155
19.2997 46.0995 -62.6153
-13.4000 4.0539 53.6273
-11.3610 30.9037 -7.5237
-35.2745 44.3045 -84.1196
19.6395 13.1544 22.4860
11.0367 29.9303 -4.2104
37.1120 -2.9747 -21.4341
-0.0105 -1.9299 92.6257
-42.6188 -32.3224 -73.9656
60.1551 9.5433 -97.9338
-26.9372 30.7112 -33.1301
-2.9078 7.2283 73.6872
21.8945 2.9949 27.4601
-11.1307 -1.3795 62.6222
39.3962 1.5901 -28.5336
21.9773 -56.7453 -97.7568
-5.3207 19.6392 33.1184
49.0551 22.5523 -75.5862
0.7166 -1.4207 93.7203
29.1755 -5.2182 3.0978
40.9702 3.6189 -34.0311
-8.9992 32.5296 -10.1916
-17.8871 -18.2377 16.3230
-30.8426 -28.2337 -36.2418
-13.0095 6.2740 52.1941
-1.2898 1.6943 91.9811
-2.8936 2.3753 86.7653
-7.2774 9.2073 60.9413
25.0821 -43.3437 -62.9429
-38.8158 -15.8089 -36.5577
-7.3867 -51.0764 -67.8864
4.3980 -0.8192 84.4069
13.1771 11.6304 42.0736
-14.7353 -26.6034 0.5995
0.1751 0.2656 97.8333
-6.2382 -31.9977 -6.4715
-26.7092 -6.9592 9.6811
54.9561 -9.1292 -81.1384
-13.2213 -33.3640 -17.0954
-38.3046 36.2315 -71.4975
2.6638 -3.8642 83.6970
-17.6448 -25.6671 -1.7764
-22.5681 12.7946 15.0391
-44.2060 -7.4838 -46.0032
-21.8040 -26.4841 -11.9796
-26.5938 -28.4917 -27.0673
-18.4216 -50.3740 -74.4419
43.7122 14.5374 -49.9812
11.8298 -44.7724 -50.7654
0.5292 0.4673 96.5804
1.5156 -7.7840 73.2386
-51.4726 -9.8744 -70.4824
0.4243 -18.2578 39.8535
24.3726 -49.1934 -78.5239
7.7764 5.5627 -98.8614
22.1623 17.6806 -98.8614
-34.7412 9.8606 -98.8614
-26.1050 27.5657 -98.8614
-2.1015 19.0028 -98.8614
18.5928 -7.8205 -98.8614
6.7724 7.4368 -98.8614
-20.0565 -6.4174 -98.8614
25.2119 -40.6095 -98.8614
-11.3455 55.9890 -98.8614
-32.9552 19.3849 -98.8614
0.7152 -0.5560 -98.8614
0.0000 0.0001 -98.8614
-44.3087 -2.2099 -98.8614
-8.8679 -52.7488 -98.8614
14.5030 24.6997 -98.8614
10.5702 27.9572 -98.8614
-46.7119 34.4119 -98.8614
21.6046 3.3532 -98.8614
2.8015 3.5231 -98.8614
1.4177 -37.6182 -98.8614
-13.5291 15.9406 -98.8614
-11.6313 -16.8599 -98.8614
30.0129 28.6976 -98.8614
38.0658 -20.4785 -98.8614
-17.3463 22.0733 -98.8614
-14.1095 -37.0958 -98.8614
4.8593 2.6988 -98.8614
16.8832 -4.9925 -98.8614
-35.7375 -43.1347 -98.8614
16.2465 20.5195 -98.8614
0.0150 0.4065 -98.8614
-32.7862 -30.7518 -98.8614
14.7462 17.3096 -98.8614
-17.2360 19.6083 -98.8614
-22.6674 -25.6787 -98.8614
-3.4600 5.6552 -98.8614
-43.5134 -29.1518 -98.8614
-2.9488 20.0971 -98.8614
5.0343 -6.5282 -98.8614
1.7257 18.1194 -98.8614
-42.2807 -28.6480 -98.8614
-27.7155 -29.0357 -98.8614
-39.8360 1.8686 -98.8614
-1.1586 5.1884 -98.8614
19.7060 8.0807 -98.8614
9.4876 24.4335 -98.8614
-4.1903 -17.5332 -98.8614
4.5824 -56.1076 -98.8614
5.9070 -21.3898 -98.8614
-0.6848 0.7110 -98.8614
33.0979 39.2502 -98.8614
-6.1996 2.1151 -98.8614
10.8012 48.2035 -98.8614
8.0963 -10.2823 -98.8614
8.5151 -20.1349 -98.8614
-6.9602 -2.7959 -98.8614
-15.5381 46.8404 -98.8614
43.7796 -11.9450 -98.8614
-0.2331 -8.0367 -98.8614
-6.8162 -1.6537 -98.8614
11.6401 8.4450 -98.8614
35.2390 37.2290 -98.8614
-0.8577 -7.6882 -98.8614
-35.5444 7.8758 -98.8614
24.9786 -41.2634 -98.8614
12.8945 -9.6640 -98.8614
-58.9064 2.7490 -98.8614
-8.2491 -56.2834 -98.8614
-46.3064 -11.2238 -98.8614
5.4009 -4.3149 -98.8614
28.2061 -6.2766 -98.8614
4.3830 2.4774 -98.8614
9.6858 -21.5581 -98.8614
-46.6918 18.8707 -98.8614
-7.6481 -1.3653 -98.8614
-5.2336 11.1109 -98.8614
-12.3434 7.0879 -98.8614
3.9050 -2.2212 -98.8614
7.7325 -33.7769 -98.8614
35.6539 27.9008 -98.8614
0.6873 -1.7656 -98.8614
-4.0440 -2.6047 -98.8614
-49.9145 -7.3250 -98.8614
-12.2215 -42.8621 -98.8614
40.0474 32.4343 -98.8614
-31.9469 -34.2521 -98.8614
-1.6363 -2.5590 -98.8614
20.4136 -27.8638 -98.8614
-5.7312 4.9992 -98.8614
9.7871 -7.2272 -98.8614
1.4378 1.8692 -98.8614
-22.0984 6.0690 -98.8614
10.4255 52.0648 -98.8614
-18.1163 -40.2602 -98.8614
43.4766 14.7477 -98.8614
-13.9177 -2.9482 -98.8614
5.8579 46.6026 -98.8614
17.7380 -18.8324 -98.8614
19.2347 31.9990 -98.8614
-4.2101 0.6355 -98.8614
14.0705 -9.9975 -98.8614
49.4771 -19.3053 -98.8614
42.2711 40.2723 -98.8614
-31.9966 34.6629 -98.8614
5.2119 -3.2674 -98.8614
0.4714 -0.6435 -98.8614
8.0390 13.9221 -98.8614
33.6279 -28.0830 -98.8614
23.0092 -7.5924 -98.8614
-35.1308 -6.8532 -98.8614
-2.1349 -37.7182 -98.8614
5.5753 -35.3084 -98.8614
-6.7994 -26.3355 -98.8614
-1.3087 -4.8691 -98.8614
-1.6682 28.4912 -98.8614
20.2504 12.5095 -98.8614
-4.9818 24.3998 -98.8614
-22.7174 -35.7595 -98.8614
2.1341 -7.9582 -98.8614
6.0772 -1.7564 -98.8614
-17.0718 -47.9712 -98.8614
-37.2064 42.6970 -98.8614
-10.8074 45.5804 -98.8614
-16.7958 -24.2911 -98.8614
-36.6080 -28.8633 -98.8614
-3.0329 8.6950 -98.8614
-48.3479 -18.5818 -98.8614
15.1352 -11.2624 -98.8614
-23.7788 38.0208 -98.8614
-41.6163 -7.0990 -98.8614
8.9642 38.6838 -98.8614
35.1648 -22.3228 -98.8614
43.9774 23.7678 -98.8614
-5.0033 4.5703 -98.8614
33.0600 35.3654 -98.8614
-6.0265 -8.0530 -98.8614
-0.6263 0.7596 -98.8614
-1.8258 -16.2823 -98.8614
-22.5163 -6.0651 -98.8614
53.0604 -13.5338 -98.8614
-8.9863 -23.3618 -98.8614
8.3089 -3.3731 -98.8614
0.8724 -1.4473 -98.8614
36.3955 24.6100 -98.8614
9.3870 6.8847 -98.8614
-13.0126 17.8324 -98.8614
1.1235 34.6710 -98.8614
-14.5226 -13.1544 -98.8614
50.5643 27.7990 -98.8614
4.0285 49.9015 -98.8614
0.6228 -19.9986 -98.8614
-19.4733 -38.3645 -98.8614
-26.7640 10.7297 -98.8614
-41.2484 -29.1068 -98.8614
-2.9808 -20.2189 -98.8614
6.8170 -23.6759 -98.8614
18.9582 -28.8850 -98.8614
1.5743 -7.2193 -98.8614
24.1232 11.4193 -98.8614
42.0621 -26.7503 -98.8614
5.3765 49.7843 -98.8614
0.3030 -2.4245 -98.8614
-16.7424 -5.2174 -98.8614
8.9173 -54.8701 -98.8614
13.3467 4.0493 -98.8614
-4.9852 -2.9444 -98.8614
-23.1671 -48.5424 -98.8614
0.5290 0.4446 -98.8614
-0.3358 0.0678 -98.8614
-51.6664 12.7790 -98.8614
-2.5232 3.2603 -98.8614
-6.1559 -19.1327 -98.8614
-3.6228 34.0870 -98.8614
-30.9119 -49.6698 -98.8614
-5.2083 -18.6144 -98.8614
-10.6345 27.9572 -98.8614
-19.8194 2.0668 -98.8614
22.9859 -21.0377 -98.8614
11.2598 -25.0126 -98.8614
20.0046 38.2934 -98.8614
-15.6041 52.3946 -98.8614
-11.8443 35.5564 -98.8614
-12.8963 32.6215 -98.8614
-13.8407 30.5687 -98.8614
7.7589 39.1034 -98.8614
-23.2347 -16.8767 -98.8614
-53.1813 3.8717 -98.8614
-3.1134 -49.0354 -98.8614
-43.9004 -27.0535 -98.8614
-3.5168 10.2113 -98.8614
-7.0670 -16.8032 -98.8614
-4.2076 -19.2705 -98.8614
-25.6343 6.7225 -98.8614
-20.3376 -17.3810 -98.8614
3.1145 -42.0519 -98.8614
-40.5610 -9.0598 -98.8614
10.7703 -4.4960 -98.8614
1.6914 -2.3429 -98.8614
0.7060 4.9190 -98.8614
44.7361 16.1386 -98.8614
-8.2831 -3.7409 -98.8614
-2.6008 -43.4982 -98.8614
4.5224 30.2481 -98.8614
54.3729 -25.0451 -98.8614
-21.4006 -9.2421 -98.8614
-14.7109 6.8136 -98.8614
-56.7831 1.7305 -98.8614
-3.8790 37.7062 -98.8614
-20.7100 17.1121 -98.8614
8.5672 6.7823 -98.8614
-36.9588 -15.2421 -98.8614
-9.5341 -13.9308 -98.8614
-8.2948 -14.0288 -98.8614
23.1862 11.3017 -98.8614
26.0397 -4.4904 -98.8614
24.8042 3.1244 -98.8614
3.3851 -28.2817 -98.8614
21.9376 7.2841 -98.8614
7.0313 2.8137 -98.8614
-33.4855 42.8546 -98.8614
36.1204 -34.8470 -98.8614
-10.3484 17.4388 -98.8614
4.9381 16.1684 -98.8614
-38.6868 -44.3342 -98.8614
0.2499 2.6524 -98.8614
2.6625 -27.0430 -98.8614
-17.8802 -48.3263 -98.8614
-26.0903 10.5429 -98.8614
-0.2234 -3.4088 -98.8614
-1.7659 -0.1141 -98.8614
23.9892 -32.1855 -98.8614
-30.5078 -37.7197 -98.8614
0.9026 59.8613 -98.8614
-11.6525 23.4988 -98.8614
0.0024 -24.8170 -98.8614
38.0024 -2.7544 -98.8614
-14.2387 -46.7591 -98.8614
-36.6393 -39.9746 -98.8614
-21.5749 24.9664 -98.8614
-4.4135 23.0745 -98.8614
14.1054 -11.6665 -98.8614
-3.0370 -52.2470 -98.8614
18.0950 -11.1058 -98.8614
56.3599 7.2883 -98.8614
31.7628 11.7144 -98.8614
-3.4906 20.7742 -98.8614
-10.5805 10.6838 -98.8614
43.5740 -21.6842 -98.8614
19.4533 26.0610 -98.8614
2.2004 5.3578 -98.8614
8.1070 14.0823 -98.8614
10.0421 -39.1068 -98.8614
-0.4097 -18.1496 -98.8614
-1.0147 -20.5084 -98.8614
52.7722 3.0838 -98.8614
