ply
format ascii 1.0
element vertex 1024
property float x
property float y
property float z
end_header
3.7820 -23.4526 -18.3264
-6.4844 -31.5657 -41.8569
-12.1555 -30.1480 -42.6389
-5.4203 -20.5746 -11.4389
7.4694 -0.3139 26.9040
-4.4610 5.6134 27.7539
4.9684 6.7517 24.3848
10.0125 -8.7564 10.7193
-9.9092 16.8509 -6.6377
-32.3344 6.2887 -43.8446
-19.8640 -14.9682 -21.4287
8.3034 -3.3864 22.7603
-4.0258 -11.2424 14.4973
6.8275 22.8142 -18.4883
4.1229 20.4778 -10.3613
4.1092 5.4482 28.7152
21.2408 -12.8283 -21.2672
-13.2932 -25.1868 -31.4511
-6.2694 17.0943 -2.9123
15.1909 -12.0167 -6.1393
-16.8527 -28.6406 -44.6522
-21.2726 -10.2410 -17.9200
22.1832 19.0847 -33.6278
-5.6292 -4.8632 27.0069
16.0926 16.1137 -15.5971
-3.3687 3.6593 33.8559
-0.5037 0.9801 44.6133
0.2982 25.9661 -24.4728
-7.5847 17.5009 -5.3188
-4.5670 -12.2131 11.4479
27.3749 -5.8197 -30.0819
-8.5434 9.5598 12.0535
-9.0252 15.1221 -1.2535
-7.3651 -5.7344 21.7412
14.2162 -9.0195 0.8986
4.3631 -4.1034 31.0340
20.0504 6.0455 -10.5092
-23.1461 -15.9247 -30.3832
30.2764 -5.2445 -37.6960
-1.4773 -6.0983 30.2417
17.5828 13.6627 -14.1909
-4.7279 -9.2428 18.8306
-3.9020 -1.4238 36.1347
-27.9308 -18.9330 -46.0748
2.1174 27.1001 -27.8480
-3.6598 -16.1533 1.6580
0.3225 -8.8252 23.1391
-1.1412 17.1106 0.0300
-15.3067 10.3406 -3.6473
3.3681 0.4910 38.2182
13.2656 2.8886 9.9549
-1.1600 -5.2383 32.7685
5.7830 -1.3178 31.1959
14.0821 -4.3223 6.7484
0.6999 -2.6623 40.0267
-12.4899 -15.8364 -8.3616
-3.1216 -10.5165 17.1963
-23.3204 -8.8208 -21.5974
-14.9594 26.6038 -37.1236
22.2635 -22.1010 -39.4837
3.1596 6.7151 27.0559
-21.3709 -1.9735 -11.9534
-5.5530 5.6936 25.5782
-26.3717 15.2749 -36.9980
-6.6348 5.8082 23.1756
12.1516 -7.8769 7.4410
4.8162 -5.6415 27.0660
10.3023 13.0926 1.3877
-20.9857 23.0662 -38.9654
-5.8445 1.3580 31.0041
3.5066 18.2334 -3.9122
-5.2168 12.2289 10.7363
19.7900 2.1203 -7.6233
17.9170 23.2742 -33.9304
-0.6153 -0.1539 45.9128
0.7983 0.7538 44.6245
-32.9109 3.0644 -44.1585
24.0195 -1.6298 -19.2130
6.1524 -22.0030 -15.8019
-7.7184 -8.5205 15.7332
19.1830 26.0115 -42.1215
-25.8603 13.9016 -33.8974
-18.7199 13.1645 -15.9085
-24.8421 -7.9282 -24.7747
10.3916 1.6133 18.4574
-28.8928 4.6235 -33.6205
-6.4775 -0.3253 29.6556
5.5407 2.7427 30.4983
6.3527 10.5292 13.5090
32.7160 -6.1084 -44.7922
-15.6843 -7.5581 -0.6973
25.8205 21.3246 -45.3659
-13.9648 19.9439 -19.9695
-20.0863 7.2658 -11.6706
6.6257 -8.1869 18.4131
3.4160 2.4121 36.0565
5.9271 -12.8516 8.3543
9.4909 -12.8192 3.3596
-11.6254 24.1429 -26.7739
-32.7567 -2.4718 -43.5933
-11.2596 7.0169 10.8143
-10.2876 -16.4392 -6.2051
5.0573 7.9622 21.4680
-2.5636 -1.1735 39.8416
13.6388 -11.3122 -1.5563
8.5406 -23.3293 -21.3489
14.0836 22.6963 -26.5373
9.6020 32.4523 -46.3527
-6.3109 -15.8755 0.2100
-5.6833 14.8367 3.5328
-16.0248 -15.9549 -15.1521
19.2938 1.4283 -6.0767
21.1674 13.2497 -21.7068
10.8847 13.0984 0.3578
3.6426 0.9590 37.2097
20.8462 -23.1486 -38.8751
10.8715 20.8063 -17.5477
-0.8564 6.7229 28.8455
4.9975 13.5546 7.5374
-4.3284 18.1114 -4.0618
-13.6827 13.2147 -5.1755
14.5128 -28.6945 -41.6651
-20.7183 0.6321 -9.9144
-7.1923 8.7670 16.1692
-33.0709 -2.0001 -44.3754
21.4301 14.6144 -24.3924
12.7037 0.0319 12.3795
4.5952 14.8052 4.6051
21.2707 -0.5161 -11.4398
5.9900 14.9638 2.8930
-10.2610 16.1246 -5.4266
13.4834 -8.1096 3.9598
15.0613 -10.1515 -2.7884
-1.7419 5.8956 30.5950
7.4675 15.4678 -0.0460
-1.1569 -8.3680 24.2046
-1.3305 -5.2484 32.6318
4.9399 -3.7347 30.4692
26.8295 -17.3188 -41.0480
12.0882 14.4460 -4.6593
12.2532 16.3703 -9.1371
9.6661 3.5965 19.0205
3.4639 5.9568 28.5301
5.8984 -0.2286 31.2747
0.2607 -1.7920 42.6436
-17.6410 23.6700 -34.3439
30.1237 -7.4824 -38.5623
3.2198 9.9714 18.5625
10.8353 25.5347 -29.3922
17.0276 -1.6362 0.1485
-0.9007 23.5749 -17.8723
-14.6256 7.2047 2.3770
2.4022 33.4762 -45.5729
-3.9216 -2.4345 34.8505
29.0618 -1.2358 -33.1418
0.4526 -1.9470 42.1213
-4.9500 14.5635 4.9390
4.3731 -17.4340 -2.2635
-19.2048 -0.5011 -5.7008
-15.0410 1.7122 5.6160
12.2242 -3.1810 12.5807
1.6189 -8.2922 24.2013
8.2422 30.6464 -40.4972
10.1204 20.5997 -16.0924
26.7944 17.4531 -41.1693
2.7417 2.4364 37.4843
-8.1941 23.3813 -21.1603
-12.7010 0.4534 12.3646
29.0011 -10.8090 -38.3146
-13.5197 5.5278 7.0939
5.9497 -21.7911 -15.0845
0.5839 -0.6710 45.2036
-13.8055 -18.8083 -17.1472
-1.7492 13.5424 9.7368
-2.4504 1.4398 39.7786
-18.8116 1.5577 -4.7691
0.0335 0.0120 47.5761
-13.2364 -3.7276 9.4691
6.5729 21.1038 -13.7367
-1.7500 2.0796 40.1235
13.5329 -29.6482 -42.8734
-3.1557 -4.3010 32.8538
-3.7625 -1.7605 36.1336
5.7058 -27.4616 -30.2525
-11.2216 16.4927 -7.7483
8.9375 -0.5329 22.7993
12.1907 25.4056 -30.6162
-22.4400 25.4843 -46.6662
5.8465 29.3064 -35.3529
10.4654 -6.2306 13.8356
-17.9820 11.4370 -11.5342
10.0110 26.8236 -31.8716
-8.0646 -1.2534 24.9995
14.3812 0.5980 7.6844
-4.6817 -10.4083 15.9663
12.2411 -31.0405 -45.0301
-3.6319 6.2263 27.6482
-8.8177 20.0435 -13.1635
21.3317 -5.9173 -13.8299
16.1765 26.4570 -38.4832
-15.0810 30.7567 -47.4977
25.4997 -10.2203 -28.6508
14.3257 -8.4230 1.5032
19.6807 -2.7664 -7.5424
2.3623 31.8959 -41.1857
-0.4041 -3.9126 36.7464
-19.5686 4.9715 -8.4207
-27.6822 4.5859 -30.2841
8.1702 -28.5483 -34.8265
-3.0311 3.0023 35.8216
-0.0691 0.0057 47.4823
28.7085 10.9998 -37.7416
-7.9075 13.0847 5.1981
-6.2302 -20.1516 -10.9279
-5.7882 -9.9185 15.7686
21.4852 -18.9870 -31.9876
11.2005 -11.3650 3.3417
7.4450 25.0944 -25.0498
3.3989 9.6533 19.2408
4.7276 8.1870 21.4086
-2.3253 19.8093 -7.7402
-5.9942 4.2173 27.3119
0.0433 0.0875 47.4035
21.1417 19.3467 -31.9463
2.8790 -27.3405 -28.7066
-0.2819 -20.8415 -10.2352
-23.3632 -15.0080 -29.4752
-23.8892 -10.0089 -24.2878
1.8482 5.0091 32.8407
-21.3986 -23.6826 -41.0047
1.3656 -4.2596 35.2470
-19.1467 -20.8684 -31.0109
7.2668 -21.9813 -16.6475
-1.8070 -2.6536 38.7552
5.7369 27.6282 -30.7233
26.4755 12.2530 -33.3791
-1.2714 10.4547 18.4142
3.4392 -2.8898 35.1942
-20.4161 -18.0117 -27.9676
17.4106 -10.4113 -8.6868
-29.4698 14.8043 -43.9531
9.7139 16.5212 -5.5730
-9.1195 -25.6249 -27.8942
-1.2917 -5.4115 32.2175
0.4889 8.6615 23.5720
0.4074 -3.4610 37.9925
-3.7688 -0.1968 37.1897
24.3898 23.5157 -46.4555
-5.1025 7.3207 22.8824
-21.8377 3.5660 -13.8015
-31.5099 6.2709 -41.5873
21.0299 2.0159 -11.0213
3.2575 1.2034 38.0267
2.3443 2.4589 38.2359
-23.0143 21.0985 -39.0702
27.6525 6.9621 -31.5511
-3.1916 0.1321 38.8000
24.5597 19.2747 -39.0653
-4.1792 1.2615 35.5462
-2.6059 9.5197 20.2529
18.9975 -5.1765 -7.0312
0.9287 -2.7180 39.6946
20.1549 -27.0533 -46.0547
23.6043 6.1367 -20.0862
26.1202 4.2114 -25.8332
14.7378 14.0049 -8.8110
0.3328 0.4051 46.2183
-18.1240 -19.0739 -25.4276
-6.1833 7.8462 19.9198
0.4471 0.6581 45.4645
8.5777 -2.3425 22.9705
9.4741 5.0998 17.7815
-23.2013 -21.6563 -40.5040
-24.9999 11.7966 -29.1280
-12.6432 -3.9622 10.8631
-2.7215 -17.5551 -1.6818
-0.8208 0.4092 45.1269
-7.2444 2.1029 26.7166
24.1491 2.1965 -19.6967
5.6170 -25.7685 -25.6000
-22.1950 -14.6518 -26.2152
-2.8359 -11.5439 14.6484
6.9432 -1.3480 28.0242
-28.6242 -2.5048 -32.1571
-8.5400 -22.0716 -18.0780
-8.3350 21.7520 -17.0447
-9.7214 7.8497 12.9596
0.0442 -4.4482 35.3157
3.3208 22.7077 -16.0860
7.1837 7.6981 18.4208
-8.5872 17.7343 -7.0695
-24.8167 -13.5746 -30.9154
-1.9774 -15.8961 3.1697
20.3591 17.6785 -27.2387
15.7459 -12.7607 -8.6352
2.9017 14.8328 5.6831
14.5026 5.8690 4.2072
-19.3632 3.4572 -6.9736
9.6031 -32.6708 -46.9358
-1.8269 -2.6605 38.7082
-28.6833 -3.0940 -32.4794
2.1448 -13.5350 9.6007
22.1736 13.4278 -24.3468
-13.7194 -26.4024 -34.9925
-10.8505 -27.2437 -33.7999
-2.2912 -2.6002 38.0462
5.7235 20.8587 -12.4199
6.4574 2.0070 28.8874
-0.9157 13.5515 9.9382
18.6657 21.1060 -30.6071
11.6423 22.7057 -23.2188
-19.7789 0.7877 -7.3212
14.2563 7.0223 3.5214
0.0314 14.4228 7.6034
-3.3293 -10.4746 17.1382
-0.4831 -13.0730 11.3287
-0.9611 2.1999 41.0050
-12.2733 -13.4104 -2.8324
22.9297 -4.7052 -17.3593
6.4444 2.0222 28.9092
-21.5035 -8.4964 -16.5638
10.2229 -13.3899 0.8702
-3.0065 -12.9837 10.6471
0.7759 2.0280 41.6421
0.3571 0.4241 46.1345
-29.5685 -6.3456 -36.3470
8.8034 7.1066 16.2409
-3.1535 21.5586 -12.8596
-5.6244 -14.4151 4.6841
1.3791 -1.0359 42.8827
1.1807 30.4546 -37.0021
-2.2902 3.1451 36.8654
20.8470 11.4735 -18.4378
-10.9588 4.2838 14.9839
1.1492 5.4273 32.2616
6.1214 -9.7265 15.7447
31.8472 3.5132 -41.3444
2.1440 -15.7113 3.6189
12.2207 -28.6520 -38.8688
8.6990 27.4954 -32.4490
1.0627 14.8065 6.4316
-5.6067 12.4017 9.8611
3.5398 -9.1920 20.3082
-26.4478 -14.6936 -36.3850
-5.5638 -2.0944 31.1577
25.8819 6.7662 -26.6508
-8.0043 5.8218 20.1759
-3.6861 -3.9033 32.7588
-6.4929 21.6511 -15.1261
-8.6429 -31.2333 -42.3633
-26.1202 -16.3659 -37.9643
8.8057 -5.8183 18.3514
2.4239 -28.1268 -30.7607
8.1797 -32.9946 -46.7705
0.2719 -0.3662 46.4076
18.6108 11.3868 -12.9428
-14.4907 -17.9444 -16.4069
-4.0374 10.0562 17.5675
25.0044 -2.4643 -22.1325
-2.1653 -2.2967 38.9051
1.2297 2.6097 39.6596
-3.8422 0.5778 36.8800
9.4028 -6.5174 15.8887
4.0701 -17.0018 -0.8967
-25.4222 3.6092 -23.6650
8.7758 11.9465 6.4901
4.8210 1.2635 33.8280
30.3957 7.3653 -39.2188
-5.0673 6.9583 23.7592
4.7405 26.0522 -25.8957
-8.4078 -3.3578 22.5212
0.6560 -0.2286 45.7449
-15.3612 18.8722 -19.9325
6.7767 -0.3171 28.8263
-8.8808 3.0407 21.5949
17.3064 22.7732 -31.7940
-10.8824 15.3232 -4.5421
2.6052 5.4044 31.0061
-13.0277 13.1237 -3.7020
9.0765 4.4036 19.6459
-17.3568 1.6852 -0.7749
-4.7711 30.6278 -38.4461
0.7301 1.5122 43.0095
30.7436 1.8168 -37.8904
-8.7356 -15.4088 -1.5373
0.1162 -16.1017 2.9375
-27.3186 -7.4742 -31.0152
-32.7223 2.6313 -43.5324
5.6451 -0.8518 31.8134
9.6641 -20.3266 -14.8573
-15.1893 7.5463 0.5525
0.3763 -6.1281 30.6170
-0.8847 11.0205 16.9577
-27.3201 -19.4023 -45.4241
11.4498 12.3073 0.9716
-1.4698 14.5538 7.0336
13.4109 -0.0511 10.4145
19.5974 1.7558 -6.9915
19.0872 4.9510 -7.1110
-7.6586 -0.7075 26.3060
-14.6418 17.6532 -16.0466
19.3826 25.6963 -41.7510
-9.9721 0.5567 19.9257
2.0938 0.0244 41.8572
-13.0293 -30.7414 -45.0901
16.8280 8.4102 -4.5929
4.0779 -32.9710 -44.6281
1.4948 -3.7036 36.5785
6.9715 -31.6409 -42.3429
2.0050 -29.2464 -33.7725
22.2204 -4.9604 -15.5808
-5.2042 -10.7023 14.6110
-5.3121 2.0830 31.8218
7.6669 13.9128 3.5396
-15.9448 26.6233 -38.5450
-2.5713 -5.2472 31.4401
1.5346 12.3297 13.1544
-17.7605 2.9269 -2.3354
0.7395 3.7330 37.1018
-3.6012 33.7607 -46.6560
1.1478 10.8414 17.3853
-0.8010 -0.3827 45.2084
-23.7675 5.0286 -19.8213
-11.3524 -26.2350 -31.7467
19.1787 -0.3957 -5.6214
-31.4095 2.2161 -39.8085
31.6162 -1.3972 -40.2516
0.3453 32.7466 -43.3115
-2.3045 3.3612 36.3521
-10.0486 -8.5805 10.9630
1.8584 22.4507 -14.9142
-26.0244 21.9509 -46.9158
-2.5707 2.4344 37.8385
-1.6780 1.0265 42.2098
19.1978 27.3466 -45.1564
8.4229 -9.6479 12.0917
33.7367 4.2530 -46.7992
-4.3938 5.0691 29.0371
-2.8637 2.8802 36.3905
22.6709 -20.5361 -37.3126
17.0929 -15.1034 -15.6981
-27.0387 -14.6492 -37.7650
8.4686 -9.3229 12.6817
-8.7026 1.5663 23.1076
0.6416 3.6901 37.2687
-11.1135 4.0461 14.8151
4.5306 0.6649 34.9524
-31.5595 6.4858 -41.8407
-2.5028 7.9159 24.6088
6.3926 30.8638 -39.8955
-20.0139 1.8663 -8.1719
9.5738 -6.1064 16.1256
-1.8162 -1.4268 41.2580
-8.3989 -7.6409 16.1282
2.9062 -7.8651 24.3789
-5.6078 6.2463 24.3527
7.7161 0.3699 26.2122
-4.4439 -14.6854 5.0467
-3.8347 14.2587 6.6516
22.8414 -7.1025 -18.7836
3.1185 -2.2902 36.9252
-1.2602 -16.6747 1.2147
-8.1443 11.7665 7.9164
-0.8392 -11.6989 15.0879
-3.9396 -12.6563 10.8471
-1.2248 13.0058 11.3804
-26.3183 21.5542 -46.8395
-10.5389 12.9509 1.2845
17.3612 -5.9180 -3.2859
-9.3335 8.1431 13.2611
-0.7203 -1.9155 41.9891
-8.2268 15.5055 -1.0928
-16.3119 12.5021 -9.4253
6.4328 -16.7270 -2.1166
-1.0692 -4.7474 34.1545
11.3644 -10.8343 4.0510
-0.9442 0.6319 44.5182
0.6746 0.1105 45.7755
-8.1832 2.6832 23.7482
-31.9353 7.2818 -43.3297
-0.7109 2.4034 40.7113
-14.9588 -21.0311 -24.0298
14.6579 -7.9128 1.3950
19.3994 26.4389 -43.4344
-22.9570 -3.1328 -16.6988
-22.0933 -26.0261 -47.1750
-9.6391 14.5187 -0.7435
4.7107 0.2622 34.5666
-16.3296 -29.0926 -45.0168
2.0493 -13.2194 10.5080
10.7511 -10.3427 6.2264
1.5335 30.7717 -37.9258
-22.7473 -5.9528 -17.6533
4.1867 -10.1693 17.1203
-4.6230 -5.2810 28.1747
24.1888 -8.8752 -23.9109
19.1018 -27.8091 -46.0599
6.8175 6.2696 21.9416
19.2757 -11.1907 -14.2506
-4.7566 9.3819 18.4501
-31.6456 9.0406 -43.7652
21.4401 -13.4394 -22.6286
-3.7458 2.7286 34.7994
-1.9726 -0.3877 42.0894
20.0879 -16.9058 -25.2708
1.8604 0.6878 42.1640
2.7061 19.9738 -8.3263
-30.0062 -2.2468 -35.9262
3.4827 6.7633 26.5392
24.2803 -4.4989 -20.9325
18.8693 9.2117 -10.6641
12.2477 -0.2614 13.6389
18.0525 -22.2527 -31.9369
-16.1393 -2.4750 2.3102
-5.1477 31.3153 -40.4977
2.4261 4.5604 33.3232
14.9718 -1.6200 5.8352
-25.0071 -14.1012 -32.0882
-10.1091 3.2011 18.2138
-5.9801 4.1995 27.3726
6.9817 -8.8057 16.4528
-16.9877 -6.9565 -3.3268
10.3352 -0.7790 18.8786
16.3734 14.8650 -13.7673
-12.6178 -23.9622 -27.5663
-0.9189 -5.3345 32.6355
-23.0547 15.4930 -29.4988
-9.5346 -1.7296 20.7521
10.5641 5.2963 14.8422
-2.2597 -26.6754 -26.7041
-11.6835 -27.8975 -36.3567
-24.1312 -9.1834 -24.0609
-5.8865 -0.3014 31.2988
-19.7351 5.8338 -9.5016
3.6982 0.9339 37.0773
-5.2746 -29.3455 -35.1635
1.6432 -7.0490 27.5652
-0.7818 -7.5905 26.4742
-13.7894 -29.7965 -43.5454
13.2494 11.8678 -1.7448
5.7547 11.6054 11.6846
3.5333 -10.0595 18.0523
-2.5258 19.1308 -5.9385
4.4321 11.1315 14.3866
-13.7235 11.8534 -2.7073
24.1129 -10.7479 -25.6728
9.4746 1.7330 20.9145
-4.2190 19.6819 -8.2504
4.3689 -8.7220 20.5720
16.5034 -21.1321 -26.8203
0.9092 -13.2398 10.8036
-27.1523 13.6549 -36.7661
28.2796 17.1009 -44.1442
-4.1693 4.6897 30.2406
-4.0992 1.6999 35.3456
-19.1970 -19.9884 -29.3241
4.4511 14.1947 6.3437
0.0193 -5.9693 31.0900
-9.8076 21.2103 -17.2496
-16.1487 -0.6949 2.7668
-17.3977 -22.1169 -30.5066
-0.8062 -6.0524 30.7106
13.4881 0.7288 10.1457
-16.4442 -16.4299 -16.9091
-24.3547 -23.5660 -46.4822
1.6979 19.0254 -5.3942
-22.7120 2.0743 -15.6894
-12.7005 -5.2631 9.4787
-10.4494 0.7754 18.5629
31.4736 -12.7107 -46.6314
-10.4031 -30.5267 -41.9286
-1.3481 0.4006 43.7676
-22.2905 21.9239 -39.1913
-15.9495 -5.0647 1.1811
-18.0977 17.3743 -22.0274
-20.4051 6.8580 -12.1339
0.1296 -22.5088 -14.8634
1.4023 9.1194 22.0402
-21.7753 -3.4943 -13.5984
9.6185 -15.9393 -4.0483
-14.6701 -11.7463 -4.5393
-5.0670 -12.5606 10.0447
-7.9322 18.2184 -7.5317
-20.6430 -12.4882 -19.3568
-5.5602 -1.8624 31.3833
-16.1205 10.4362 -5.6798
13.7271 -30.1353 -44.3288
13.4848 8.2059 3.8177
6.0712 -4.9254 25.9543
12.6162 -14.5225 -5.7729
2.2513 -3.8238 35.3465
-11.8469 21.1890 -19.7722
8.4288 -5.1092 20.2906
-4.0512 -31.7119 -41.1477
-1.6733 -7.0789 27.4653
-3.7081 -9.1876 20.1480
-5.0870 -29.5433 -35.6147
-4.8824 -10.8905 14.5157
3.6601 -8.7671 21.2795
-2.4622 4.3916 33.6867
5.5877 11.4064 12.3856
4.3501 -5.5863 28.0035
1.9124 0.3158 42.2897
-10.5645 -27.0843 -33.0967
-2.1285 5.9939 30.0030
-19.1159 5.2402 -7.3950
12.8090 18.7941 -15.5156
11.1549 2.6895 15.7946
-2.4491 2.9841 36.9493
-24.6153 -1.5649 -20.8530
-23.6579 8.8689 -22.5217
-23.0207 -20.6003 -38.1541
10.4393 -7.7288 11.5871
-12.7345 14.7044 -6.3700
-9.3192 15.2619 -2.0079
9.9252 2.8723 18.9677
-10.9862 0.3040 17.1397
19.3821 -12.8283 -16.9019
10.5816 16.6679 -7.1781
25.3924 21.2859 -44.3829
1.2233 -6.0740 30.4605
-10.1840 -3.7793 17.4946
-23.3475 -21.0603 -39.6838
-3.4226 -26.8451 -27.5139
-6.7318 -3.5420 26.5408
0.8282 -0.5910 44.8480
-4.6423 -10.5683 15.6045
-17.5701 -1.7083 -1.3710
8.5758 1.0860 23.6580
0.1082 7.7303 26.1954
5.9180 -32.6543 -44.5280
-27.5232 7.5435 -31.6142
12.8273 -1.0211 11.9234
1.3992 0.3769 43.6488
2.7126 -0.9319 39.7059
0.8972 14.8752 6.2713
-17.9837 -6.6970 -5.6420
-12.6901 -23.4768 -26.4710
8.6080 5.3932 19.4525
23.5422 -8.5140 -21.8794
-2.6872 5.9651 29.4978
-12.5345 2.3993 12.2175
-8.9400 -5.1021 19.0761
-1.5871 21.0288 -10.9166
7.8211 -23.4956 -21.1257
-10.1061 25.4092 -28.2996
11.4141 10.1038 5.3228
-7.3708 -11.3560 10.0608
-13.1575 -20.7567 -20.6048
-0.4390 14.3039 7.9151
-16.6295 6.7946 -2.2354
-5.9861 18.4732 -6.2775
23.5913 -18.9700 -36.4320
-2.9534 1.5506 38.4071
-6.8420 7.7965 18.8552
-12.1037 -10.7625 2.6750
1.8385 2.3510 39.3830
9.8029 -26.8828 -31.8256
-8.0283 -27.7523 -32.5922
4.4407 -7.5379 23.3681
-5.8028 32.4657 -43.9556
-29.5817 -7.8451 -37.3545
6.8970 12.8457 7.1664
9.0849 -10.6425 8.7980
-0.4685 -12.9595 11.6455
-11.5554 19.4632 -15.2129
-25.4551 6.6087 -25.3928
0.2648 -0.1457 46.8353
19.8543 10.9374 -15.3036
10.8088 1.3307 17.4175
31.1393 2.0441 -39.0270
4.4899 -28.1071 -31.4064
-0.4745 29.1075 -33.2067
-18.4738 24.4827 -37.5386
-10.4744 -4.3897 16.1210
-7.6975 -18.2865 -7.4489
-29.3959 1.5187 -34.1060
-12.8309 23.6297 -27.0308
19.1085 9.8218 -12.0177
1.7191 -0.4922 42.7067
10.6035 2.6847 17.2850
14.5109 -12.2452 -5.0780
-19.7676 4.2300 -8.4898
-23.2750 -18.2381 -34.4794
-24.0657 -4.8484 -20.5315
14.6208 -17.4049 -15.4798
-2.0601 5.7734 30.6439
-7.2082 3.2578 25.6977
-2.9307 33.8020 -46.5910
-18.1385 4.0967 -3.9895
-4.6423 11.8980 12.1909
-17.0046 3.8327 -0.7551
27.7611 13.2551 -37.7960
9.9422 8.5950 11.1608
-5.2857 2.8469 30.9947
-15.6639 -12.3875 -7.8093
5.9172 13.5977 6.4737
5.1198 22.3785 -16.1066
11.0220 -8.2864 9.3630
8.9592 19.9977 -13.2068
4.5127 -5.5326 27.8386
-0.6004 5.0328 33.5930
-9.8565 18.1129 -9.6176
1.3222 -24.7240 -21.1152
-14.6955 -10.6829 -2.8025
-9.8582 -2.6485 19.3142
3.6215 -4.2184 32.2281
-22.8539 18.5051 -34.0264
-32.4427 -9.7813 -46.4697
-4.3298 -5.5199 28.1836
-28.8701 -11.1542 -38.3149
17.7036 28.5437 -45.6445
4.9864 -18.3209 -5.0787
13.8413 -3.4967 8.0108
6.2614 -10.6481 13.3551
7.2869 4.2669 24.2139
-22.5866 -6.8735 -17.9201
1.6845 0.0069 42.9947
-4.5297 18.5888 -5.4825
1.5031 -2.9285 38.5294
2.8920 5.6704 29.9898
-5.4850 1.3408 31.9871
18.0260 -2.8500 -3.0297
0.7313 -3.5869 37.5043
0.6418 1.0187 44.3296
16.4605 -3.8143 0.7302
4.5730 -7.0009 24.4419
-1.8867 27.1227 -27.8633
17.2811 -25.6744 -38.3108
-14.5582 -17.6764 -15.9484
25.9128 -21.8492 -46.4968
-21.3689 -2.9986 -12.2769
-1.3545 18.7273 -4.4920
-19.2229 -17.2360 -24.0581
-5.7345 1.3776 31.2892
14.4394 -13.7857 -7.7906
8.3445 -19.7516 -11.8982
-27.3441 12.3672 -35.7055
-23.8554 -13.2017 -28.0760
0.2390 1.6664 42.9977
12.0082 4.3971 12.1455
-0.2726 -0.0989 46.8693
3.5117 10.2363 17.6079
-10.1491 9.0476 9.8994
-1.0564 3.2121 38.2802
-27.7433 18.5937 -45.1159
-9.2026 3.8562 19.9530
-32.8134 4.6770 -44.4136
7.5419 -20.0041 -11.7222
-15.8841 8.5309 -2.4188
-7.7295 -9.7838 13.0326
-1.3826 7.2634 27.1324
13.3273 -27.4861 -37.1945
-26.4541 -16.2203 -38.5398
0.4756 0.0700 46.3392
14.6271 -9.7605 -1.1814
18.2890 -13.1429 -14.8980
-1.4836 14.2979 7.7370
22.7704 -6.9999 -18.5110
8.6444 -9.0250 12.9539
-22.5405 -5.0953 -16.5304
-6.8182 4.4819 25.0053
28.0018 15.5589 -41.3267
-8.6796 -28.2137 -34.3380
18.0034 -1.3388 -2.4830
10.3501 8.3447 10.7365
0.6104 0.8628 44.7385
-0.4774 -8.1715 24.9328
-23.5636 -24.9471 -47.6749
-8.1849 -6.8747 -47.6749
9.8741 -18.5959 -47.6749
-23.8165 16.8629 -47.6749
-7.6111 -12.9389 -47.6749
-12.2692 -2.0233 -47.6749
14.1444 -17.0967 -47.6749
22.4203 -4.2238 -47.6749
-9.8662 9.5584 -47.6749
-23.5020 12.7316 -47.6749
-26.0136 5.6066 -47.6749
22.4801 9.2381 -47.6749
4.7431 14.8636 -47.6749
-1.1237 0.4196 -47.6749
-12.8176 13.0306 -47.6749
10.6402 11.9758 -47.6749
18.3832 -17.5632 -47.6749
10.1725 -5.1716 -47.6749
3.7184 -8.6558 -47.6749
24.4725 22.7746 -47.6749
-16.6674 -8.6160 -47.6749
10.4209 -1.8638 -47.6749
20.3685 -20.7585 -47.6749
-20.5228 6.7164 -47.6749
-29.3387 0.3140 -47.6749
16.2582 7.0038 -47.6749
32.9767 -5.7283 -47.6749
-16.5400 -20.0009 -47.6749
20.7953 -24.3644 -47.6749
-14.8845 -0.5009 -47.6749
8.2016 6.1944 -47.6749
5.4849 6.8774 -47.6749
-20.9726 -15.5054 -47.6749
-1.8458 -26.2253 -47.6749
4.3056 -25.1491 -47.6749
0.2588 5.4518 -47.6749
-5.6124 -11.4583 -47.6749
6.0075 -4.0874 -47.6749
-0.3389 -0.2393 -47.6749
17.2208 -15.5971 -47.6749
3.9147 -3.4899 -47.6749
9.0664 -14.0722 -47.6749
-4.3606 22.3231 -47.6749
-26.3538 4.4517 -47.6749
25.2729 -9.9224 -47.6749
15.0329 5.2258 -47.6749
2.5358 -2.4698 -47.6749
23.2547 12.5944 -47.6749
2.8429 3.3931 -47.6749
18.1874 12.2171 -47.6749
-2.9421 -1.1624 -47.6749
-15.8733 -14.3795 -47.6749
32.3445 10.9471 -47.6749
1.0604 27.4541 -47.6749
7.5551 22.2168 -47.6749
-26.0630 4.5976 -47.6749
12.7421 1.0035 -47.6749
2.2962 -9.7611 -47.6749
1.3136 31.6310 -47.6749
-7.0407 -1.1917 -47.6749
-8.6943 14.6517 -47.6749
29.0836 6.4815 -47.6749
-21.8915 0.5016 -47.6749
-5.1134 13.3495 -47.6749
-1.5165 33.2567 -47.6749
-3.1810 9.1839 -47.6749
24.5368 12.6059 -47.6749
-12.2606 -14.8327 -47.6749
7.9551 16.3563 -47.6749
-15.7578 7.7453 -47.6749
-2.2324 -28.6535 -47.6749
4.2868 -2.4326 -47.6749
-1.9379 1.2002 -47.6749
10.2720 -25.9062 -47.6749
28.7548 -6.9393 -47.6749
9.3379 -8.7492 -47.6749
2.1652 -2.7787 -47.6749
-5.0594 -7.6229 -47.6749
-0.0849 -2.7468 -47.6749
-2.7175 -2.0261 -47.6749
-26.4973 -9.2480 -47.6749
22.9155 23.7940 -47.6749
24.7134 -0.7146 -47.6749
-11.3903 -0.7554 -47.6749
-0.1956 -4.0016 -47.6749
4.8330 -2.1866 -47.6749
-17.7649 17.8378 -47.6749
4.4161 2.9807 -47.6749
1.6507 1.4740 -47.6749
23.1959 14.7191 -47.6749
12.1742 15.2817 -47.6749
-19.3640 -10.7820 -47.6749
-17.4631 27.7898 -47.6749
0.1025 1.7435 -47.6749
9.1451 -1.9790 -47.6749
14.7467 -22.2843 -47.6749
0.7803 28.0261 -47.6749
-6.9815 28.1681 -47.6749
1.7026 1.8506 -47.6749
-1.3353 0.5434 -47.6749
-4.2817 -2.7233 -47.6749
11.6634 -13.7153 -47.6749
-2.4893 -28.0715 -47.6749
-20.2129 4.2382 -47.6749
8.1141 7.1161 -47.6749
4.7734 -15.6860 -47.6749
-28.4281 6.6805 -47.6749
-7.7948 -3.0675 -47.6749
0.8542 10.1749 -47.6749
27.1130 -12.2680 -47.6749
18.0661 -7.2833 -47.6749
4.3450 -3.1579 -47.6749
12.0721 6.7696 -47.6749
26.2291 19.7877 -47.6749
-20.8309 11.0241 -47.6749
-12.4288 29.9464 -47.6749
-26.5875 18.3023 -47.6749
4.7685 -19.4339 -47.6749
21.8929 -8.9062 -47.6749
1.6610 -0.4304 -47.6749
-1.1813 -0.1670 -47.6749
-3.2650 1.4337 -47.6749
-2.8471 14.8185 -47.6749
-17.7542 -13.2321 -47.6749
9.0495 19.9553 -47.6749
-13.6016 24.7441 -47.6749
1.9575 2.6396 -47.6749
-27.9131 -6.7198 -47.6749
4.7173 -14.2470 -47.6749
-3.1343 -27.9242 -47.6749
9.8072 9.1518 -47.6749
24.0571 -13.4844 -47.6749
-10.7179 15.5025 -47.6749
-12.9178 18.5330 -47.6749
-0.6366 -4.5143 -47.6749
-5.0469 21.3092 -47.6749
11.0746 0.1744 -47.6749
-0.3823 5.6838 -47.6749
7.3537 -19.4207 -47.6749
-2.3540 17.8365 -47.6749
9.4421 9.1768 -47.6749
16.0347 -0.9590 -47.6749
-0.8509 1.3639 -47.6749
0.0033 -8.2623 -47.6749
-23.3697 1.7495 -47.6749
0.4199 9.9457 -47.6749
-0.1607 -0.7104 -47.6749
3.9472 1.0449 -47.6749
-12.3333 -13.3562 -47.6749
-7.9707 -11.4992 -47.6749
-15.3292 -5.1876 -47.6749
21.4714 -3.6690 -47.6749
18.3672 7.3977 -47.6749
-2.8239 -0.4452 -47.6749
-16.7488 2.4136 -47.6749
-22.9113 9.1241 -47.6749
5.3150 8.1901 -47.6749
9.6147 -17.0569 -47.6749
-18.2794 -9.6865 -47.6749
2.7023 -2.0132 -47.6749
23.4490 9.6161 -47.6749
-30.9492 5.6851 -47.6749
-10.8927 9.0085 -47.6749
-6.4487 -7.5122 -47.6749
-15.1741 -14.8436 -47.6749
12.5856 -21.1979 -47.6749
-10.7652 3.6296 -47.6749
9.9303 21.5633 -47.6749
-6.2392 -32.3298 -47.6749
1.3077 -2.6074 -47.6749
-5.7379 -7.1430 -47.6749
-29.2375 8.8153 -47.6749
-10.0181 16.5588 -47.6749
-2.2965 -13.1727 -47.6749
-22.8647 -8.0919 -47.6749
0.9482 -18.5800 -47.6749
22.4447 -24.0321 -47.6749
-10.5903 5.5863 -47.6749
-3.3646 -27.9006 -47.6749
18.3772 -2.0479 -47.6749
-14.2399 -4.9808 -47.6749
-0.5122 5.7700 -47.6749
-17.9435 -27.2611 -47.6749
-14.7909 -27.8679 -47.6749
-5.6240 32.3300 -47.6749
1.6777 -0.0087 -47.6749
-13.1114 13.0261 -47.6749
-7.3289 20.4716 -47.6749
20.4710 -26.8965 -47.6749
-4.8194 1.1031 -47.6749
-26.0570 15.9287 -47.6749
-18.9984 -19.9347 -47.6749
-9.9638 6.2740 -47.6749
-6.1582 23.7371 -47.6749
-14.9862 -20.3482 -47.6749
-8.1376 15.9979 -47.6749
-18.6336 -11.5778 -47.6749
-7.1447 14.6495 -47.6749
26.4342 20.7412 -47.6749
12.2596 -25.4090 -47.6749
-3.6129 -1.1444 -47.6749
-0.9134 -3.3729 -47.6749
-10.9713 -0.9247 -47.6749
-10.7079 -31.6465 -47.6749
-9.1185 4.7448 -47.6749
-17.7668 21.1472 -47.6749
-4.5983 -6.9762 -47.6749
-8.4210 7.7392 -47.6749
-22.0708 -10.6622 -47.6749
8.5326 30.5649 -47.6749
-20.6066 25.3866 -47.6749
5.0878 -1.7109 -47.6749
-4.7579 13.4365 -47.6749
-8.2112 20.6224 -47.6749
11.3125 -0.9803 -47.6749
-7.7732 9.8022 -47.6749
19.9000 -0.8560 -47.6749
32.2228 11.2032 -47.6749
5.5936 0.6493 -47.6749
-1.7444 3.2154 -47.6749
0.3404 0.2576 -47.6749
17.0937 23.1860 -47.6749
19.5399 -10.5858 -47.6749
-31.1825 13.6869 -47.6749
15.9330 -14.1933 -47.6749
27.7493 8.2791 -47.6749
11.4916 -21.3783 -47.6749
12.6042 -21.5251 -47.6749
0.2376 1.6685 -47.6749
-0.2975 0.1319 -47.6749
-6.9307 11.6720 -47.6749
-8.7143 15.4173 -47.6749
9.8363 13.0738 -47.6749
12.2793 28.1518 -47.6749
-8.1801 -8.7434 -47.6749
-3.2011 1.4996 -47.6749
29.2379 5.8954 -47.6749
11.9049 26.3882 -47.6749
9.0299 -5.3959 -47.6749
0.5933 0.0715 -47.6749
-3.4303 32.7228 -47.6749
19.5994 -9.1428 -47.6749
11.8771 -7.7129 -47.6749
-0.2481 -0.3533 -47.6749
-9.2056 -16.3064 -47.6749
-24.9158 19.5237 -47.6749
-5.0384 -2.1404 -47.6749
-0.8483 -5.0022 -47.6749
21.3586 -18.4517 -47.6749
9.6904 16.7581 -47.6749
31.9237 12.2856 -47.6749
-25.0193 13.1975 -47.6749
-10.9500 2.5936 -47.6749
22.6179 -7.1793 -47.6749
-11.6060 1.9746 -47.6749
4.8204 -15.4109 -47.6749
