ply
format ascii 1.0
element vertex 1024
property float x
property float y
property float z
end_header
-26.9565 -24.8844 -35.0693
4.7690 -18.2387 3.3101
2.9303 2.5105 35.5753
31.3921 19.5668 -35.7246
35.2792 9.1513 -34.5538
11.6818 32.6742 -30.7941
-19.0879 -24.1251 -22.3226
-31.4857 -3.6993 -24.3436
-34.2872 1.3761 -29.9657
7.1142 -27.2563 -16.7410
-7.9631 -9.1369 17.7971
3.3025 -3.3045 33.8252
-3.8351 -30.6164 -22.5217
4.0297 -3.3264 32.6343
-25.5555 -3.5101 -11.6323
-13.5601 -1.0936 14.6034
-19.1445 -14.5721 -7.8964
26.4618 4.0616 -13.7331
-10.0135 -20.6108 -5.4325
-20.1891 -6.7860 -1.9561
14.8669 -2.6732 11.3727
2.3202 18.4674 3.8252
-8.8973 -9.3364 16.1251
-33.1919 -8.6558 -29.9381
-18.7849 -33.4186 -38.6200
7.8952 -6.9825 21.1974
4.7514 7.1209 25.4569
-18.6117 -13.3691 -5.4350
-14.2253 -2.6968 12.7212
-8.4533 19.1717 -1.2106
-12.2231 -15.7536 0.9699
0.1840 4.5780 34.0193
-6.1390 1.2387 30.4019
2.2076 -0.8497 38.7887
0.0999 -1.4696 40.7092
22.5759 16.6459 -16.4823
-20.7340 24.4322 -25.0794
2.4936 0.4600 38.4224
-35.8089 3.6688 -33.5845
-1.2454 0.2566 41.1427
-20.3826 0.4137 0.0072
-3.4223 25.2802 -11.0197
-3.6881 5.1411 30.2632
1.9100 33.1207 -27.5145
22.5087 22.0661 -23.9528
-27.9473 19.4010 -29.3341
0.0856 14.8649 11.8897
-8.1763 -11.9086 12.7931
19.8013 29.0854 -31.8405
-6.6027 -5.6012 25.2463
-35.5250 -11.4709 -36.4566
-9.8754 -0.4488 22.6055
-9.7218 0.8535 22.8775
-29.7982 -0.0189 -20.2461
-9.6498 10.6957 12.8789
-5.2422 -2.0000 31.8047
21.6998 -16.0619 -14.2191
11.3779 -19.3540 -4.4344
5.1073 -24.8571 -10.7303
-0.2929 -1.7507 40.0592
40.2122 6.6911 -43.8466
-30.0446 -26.2599 -41.9918
-30.4109 -1.6941 -21.6661
-5.0956 -14.1642 11.4856
-20.9137 16.0027 -12.7907
11.6501 -22.4639 -10.5771
20.5067 26.2921 -27.8760
8.1954 -39.2408 -42.3885
9.8312 -34.6614 -33.6540
5.7708 6.4809 25.2047
-22.4847 -1.1111 -4.5667
-3.4355 -31.1253 -23.5087
-2.7580 4.9812 31.6263
35.6731 -9.2396 -35.4220
22.0949 -2.5221 -3.9776
-1.4443 -1.1578 39.8955
-3.7414 -2.3644 34.3547
-24.3775 -26.9997 -34.4024
-26.7147 13.1101 -20.1600
-34.8816 11.0088 -34.8353
6.0057 -4.4777 27.7581
-31.2877 13.1418 -29.1498
17.3770 -23.6306 -19.2427
-7.2071 19.7488 -1.3615
1.4090 5.1663 32.3552
20.9989 -11.4457 -7.5869
-5.6984 -13.3793 12.5844
9.0792 32.9764 -29.7262
12.2147 -0.3199 17.5842
-11.3508 -11.4519 9.1803
15.7648 36.5690 -41.8178
-29.2954 9.9376 -22.6926
4.9369 11.9569 16.0410
10.5810 -11.9638 9.5086
-15.8303 36.9384 -42.6039
0.8997 -0.6593 41.4787
3.2773 -2.5566 34.9344
-0.2524 28.8980 -18.3112
32.3557 -8.8485 -28.3065
-29.4699 -20.5623 -33.4512
-0.5350 -0.6218 42.1139
-24.0582 13.2685 -15.2455
-3.6246 -22.6336 -5.4487
-10.1685 -7.9811 16.0613
1.3472 0.0811 40.9747
4.3709 24.4530 -9.5774
0.5739 -13.8923 13.9576
-25.2961 -4.8773 -11.5602
-8.5768 -17.0708 2.7670
20.8617 28.4703 -32.0761
-0.8274 20.7173 -0.7398
-30.6091 26.7851 -43.6502
1.7920 18.7077 3.4362
1.3922 -1.1393 40.0078
11.2110 15.5901 2.5556
-3.8153 5.6120 29.2755
5.9245 3.9459 28.5606
22.4550 0.2782 -4.4473
-0.8579 0.6309 41.5873
-37.4399 -9.1769 -39.0759
-24.7657 30.8068 -41.1827
38.3125 9.1690 -40.8969
3.3411 0.9970 36.3758
-35.1519 -9.3730 -34.4101
-6.0451 5.0208 26.9684
-5.2228 -2.6764 31.2500
1.3359 8.8681 24.5797
-13.6225 35.7697 -38.4900
-7.8778 -15.9062 5.6813
13.5549 -13.3085 2.9998
24.0454 3.7605 -8.4952
24.8084 29.8250 -39.6051
7.5678 2.6714 26.6084
-17.2097 -9.0985 1.9870
-39.2224 -1.4819 -40.5870
1.4927 7.4727 27.4802
31.1193 24.8226 -41.7841
12.2116 -34.5752 -35.0304
-25.5968 14.4361 -19.3614
-34.5734 3.7252 -30.9528
-6.3234 -7.1320 23.3674
10.9558 17.2104 -0.0249
25.1877 1.3263 -10.3995
-14.7176 14.5132 -0.6020
-0.5544 -18.6555 3.7151
-14.7309 22.9695 -14.8427
-6.9231 -1.0378 28.8143
-1.6804 -0.9866 39.6856
-12.8708 -4.2628 14.7017
2.5139 -10.7854 20.0469
10.0717 -8.5730 15.4163
21.0994 25.5736 -27.4678
-33.6996 18.8503 -39.2162
-15.5454 -20.2527 -11.0631
5.5016 -5.6453 26.9157
3.6314 -6.6415 27.5897
6.2991 5.9862 25.1787
14.4134 -6.9965 9.4006
24.0020 -31.5817 -41.4843
-2.9313 -34.3855 -30.3864
-1.1169 9.6210 23.0357
-24.3443 10.1572 -12.8865
-20.0696 -30.2066 -34.1649
22.1167 2.2469 -3.9606
9.1385 37.8171 -39.8450
-12.7921 -27.6927 -21.7660
1.9969 -16.4534 8.2118
9.6770 26.4322 -16.6948
4.8282 -2.5522 32.1266
3.0226 2.8303 34.9680
-9.8199 8.4156 16.0484
21.7425 5.2284 -4.2442
-8.9410 5.9441 20.7742
-0.0664 -0.1769 43.4724
8.4913 28.3466 -19.8004
-5.0701 -0.7510 32.8494
-12.8637 16.6306 -1.3664
-3.6138 28.9090 -18.8167
3.7218 -24.5358 -9.5254
-34.1904 -5.3002 -30.5768
-4.7755 -16.0112 7.9233
24.3393 -5.1013 -9.6368
10.7292 2.0401 20.3764
-17.7659 5.6326 3.7717
-6.4081 -34.5363 -31.7110
13.8547 34.3195 -35.7670
26.5904 -29.2522 -41.1919
1.7223 -38.6636 -39.4068
-18.0939 -18.4671 -11.7580
-18.3163 5.2635 2.8674
8.9461 1.8215 24.2321
-7.8903 5.2947 23.4307
-16.8422 24.5773 -20.2379
12.9971 20.1112 -7.6511
32.3594 13.1910 -31.3213
-3.7743 -0.6274 35.6455
-7.1716 31.1368 -24.8811
3.5031 -12.6465 15.6392
-36.6006 5.0374 -35.6273
14.8231 2.1774 11.6377
-4.7075 5.9643 27.5279
-15.8440 -2.9467 9.1983
-12.2445 -16.9996 -1.2055
1.0661 -1.6764 39.6039
28.0843 8.5914 -19.3225
19.9351 15.7410 -10.7824
-0.6815 0.4140 42.1631
-6.3030 -4.2997 27.4596
-0.3534 0.2120 42.9922
-19.8223 -4.2997 0.2298
11.0090 -2.0485 19.7813
-28.8253 17.0173 -28.1556
4.1706 22.8230 -6.0489
0.0766 0.9419 41.8455
-0.9835 5.0520 32.8033
7.0795 13.5680 10.9453
27.9491 -26.7406 -39.3615
-35.0335 -8.9039 -33.9092
-14.8784 -10.6821 4.4635
26.2041 16.7707 -23.0718
-5.1796 20.3030 -1.2121
-4.1272 -0.9878 34.7466
-0.5719 -0.1425 42.6107
-16.7457 6.7219 5.0477
5.5476 -24.0810 -9.3002
27.9789 -20.2738 -30.4763
-23.7928 -19.2031 -21.9188
-10.0003 27.9427 -19.9881
22.7217 4.6309 -6.0229
14.8563 -4.6703 10.3661
16.1445 9.6139 3.4428
-0.8598 -2.9521 37.2622
-17.1476 -28.4582 -27.6209
-3.1236 0.5161 37.0659
-0.6967 -1.3767 40.5588
2.3408 19.4780 1.6611
28.8145 -25.5396 -38.9804
-2.3334 -7.0860 27.8246
0.3508 -0.0908 43.0992
-31.0160 -25.2779 -42.2262
31.1550 17.3214 -32.8313
-29.9302 20.8719 -34.6448
9.3512 3.5493 22.3548
31.7224 -18.6879 -35.3520
-1.3730 25.6126 -11.3179
-2.2599 21.8139 -3.3152
-18.9028 5.5234 1.4996
-12.1181 8.9406 11.4718
17.5128 -26.7943 -25.0056
-10.5889 11.2666 10.6060
-17.4412 -25.8158 -23.1665
32.9542 11.6978 -31.3732
-10.7962 -11.4617 9.9945
-3.7551 -0.9161 35.5611
6.0205 2.9703 29.4322
22.4869 2.6688 -4.8519
28.6914 24.5359 -37.3624
3.1369 23.7675 -7.7116
0.7818 6.7095 29.3427
-6.1251 34.3350 -31.1757
-11.8746 25.8878 -17.4122
8.1199 0.9674 26.2816
-32.2774 15.8514 -33.5055
-23.8829 5.2258 -8.7324
29.7636 15.6741 -28.5103
37.2731 -13.6267 -41.5243
20.6871 -34.6496 -42.9647
-1.1519 -17.8894 5.3016
-21.9991 -31.0306 -37.9770
26.0498 8.1036 -14.8295
-5.1946 -5.5781 27.4761
3.0920 12.4252 16.3249
-9.5395 7.2114 18.1446
2.0922 -27.1618 -14.7458
6.8611 36.2700 -35.5574
30.2732 7.9036 -23.4520
-13.2858 -11.5945 5.9319
13.7541 -6.6035 11.0459
-20.0645 13.2558 -7.8714
20.4611 -11.1378 -6.2535
-23.0098 -14.0463 -14.1346
32.4219 -23.3267 -42.0740
-10.2082 -8.1943 15.7091
-35.5143 -9.2618 -35.1033
3.7565 -12.3748 16.0488
2.7435 25.0414 -10.3321
11.0557 -19.2259 -3.8476
13.4952 25.3699 -17.9601
4.4975 3.9008 31.0674
30.3881 -16.7984 -30.8421
-10.7279 -9.8739 12.5027
3.2504 2.3909 35.1958
0.9227 -4.4122 34.1787
-8.0567 -13.9214 9.2653
-19.5611 10.3782 -3.7737
3.1106 -12.1282 16.9348
25.3872 -10.6424 -15.3598
10.9566 37.1716 -39.5160
2.1281 1.1535 38.6700
1.8184 26.2757 -12.8009
-9.8077 0.5643 22.7382
-14.4291 12.3023 3.0740
-5.4162 27.5841 -16.6148
-4.8508 9.1388 21.6138
-1.0875 -21.7880 -3.0667
18.9937 -13.7927 -6.6351
-20.5871 24.5819 -25.1220
15.0193 8.3908 6.8559
-11.0627 -11.4733 9.5807
-10.5522 -18.0039 -1.0293
-16.6227 -9.5375 2.6374
-3.8454 -2.6177 33.8685
0.9900 3.0595 36.9589
9.4138 0.4584 23.5967
0.5451 -39.3853 -40.8854
-21.8032 7.3817 -5.6571
-34.1023 -0.1697 -29.5093
-13.1914 -13.0781 3.9049
5.5789 -4.7040 28.1753
-2.1828 -3.7376 34.5647
25.9955 -27.0696 -36.8856
6.7315 -36.9706 -36.9889
15.6513 -3.0286 9.5730
-2.3515 4.7253 32.5208
28.1037 -21.2616 -31.9572
5.2471 22.1102 -5.0231
-10.4597 5.7942 18.1471
-31.6601 -9.2804 -27.1196
4.9031 -15.5279 8.8371
-11.1239 18.6585 -2.8681
10.5858 18.3907 -1.7853
11.6073 -23.0805 -11.7169
14.0790 -6.0490 10.9034
-1.1353 10.8887 20.3198
-2.1802 -2.2584 37.1238
-4.6297 5.0216 29.1808
-17.5506 -26.0130 -23.6499
-19.3876 5.3725 0.5851
11.8564 -27.6204 -20.8042
21.2553 0.4334 -1.8714
-9.2894 -1.1299 23.7411
0.2265 14.8467 11.9254
23.6921 -32.7069 -43.0317
-0.8868 -11.2716 19.5479
-3.3179 -12.8532 15.3125
-1.8854 -9.1200 23.8380
-7.8972 -5.7760 22.8239
4.8939 36.3877 -35.1317
-9.5413 24.9501 -13.6052
-0.0164 -0.2605 43.3174
-14.8033 -31.3579 -30.7440
2.9649 -31.3422 -23.8699
-10.1536 32.8040 -30.0187
38.0505 -11.3452 -41.5672
-20.8818 18.3242 -15.9068
-0.0397 -0.5048 42.7893
11.6204 26.5848 -18.5575
-10.6097 -23.9565 -12.5044
-22.8200 -3.1963 -5.7084
6.5585 -2.6730 28.6382
6.9537 -8.9898 19.4211
3.4832 26.1725 -12.9402
-20.7455 4.5013 -1.8036
-18.8457 -35.8233 -43.2289
-0.3761 0.5763 42.3982
7.3566 -28.6723 -19.8217
-0.8190 -5.2356 32.4753
30.0556 -5.9701 -22.0637
-3.7079 -8.4189 24.0824
-1.3618 2.9668 36.8541
25.3779 4.2206 -11.4838
-5.9650 -4.5908 27.6810
16.0835 20.1702 -11.6368
-8.0307 24.5183 -11.6421
1.4238 -9.3437 23.5395
-35.4307 12.9286 -37.2847
5.5235 -6.4349 25.6294
-31.2305 23.7628 -40.5711
-11.2303 -5.1519 17.2900
-3.3762 -31.5161 -24.3310
-1.6103 -40.6986 -43.7722
9.7900 -18.1014 -0.4070
26.8644 9.7909 -17.6525
0.3060 -3.8169 35.6387
-36.1736 -12.6594 -38.5952
0.1614 10.7948 20.6462
12.0782 13.3002 5.2166
-0.8348 0.4381 41.8502
33.5919 7.7095 -30.2895
-6.0945 -10.7270 17.3292
-33.3487 7.6511 -29.7511
-4.7072 9.0323 21.9605
-37.0569 15.6371 -42.6759
25.7654 -25.1479 -33.6004
14.4584 25.3405 -18.9053
-4.6644 10.3097 19.5279
11.4712 13.1030 6.4026
-3.4429 -11.4312 18.1879
1.0459 -1.1479 40.5373
-17.8918 -32.8964 -36.7064
2.9999 -38.9915 -40.2780
-6.0673 15.3055 8.4485
-5.2472 -2.6233 31.2547
-0.9009 10.3937 21.4282
-37.3071 2.7827 -36.6281
-8.4698 13.5153 9.5552
-16.9175 -34.5056 -38.8209
-21.3562 -16.5622 -14.2800
32.2057 -20.8789 -38.7171
28.8556 -21.1834 -33.1542
-21.9137 28.9448 -34.2474
2.6681 9.9129 21.7876
-1.1610 -0.2483 41.3242
18.6639 -10.4013 -2.1013
-18.8469 21.9446 -18.3713
-1.1958 18.5798 3.8129
0.0488 -0.0144 43.7696
-0.5839 -2.5608 38.2268
-1.8141 -22.7132 -5.1549
-10.4064 11.1029 11.1316
0.5088 3.7885 35.6530
14.3922 -10.8255 5.1240
20.2467 -7.5269 -2.6047
38.6874 8.0157 -41.1437
0.7141 0.5252 41.9715
4.4170 20.2644 -0.7535
-37.2245 5.8536 -37.2117
13.6602 -9.2492 8.3780
-3.6399 22.9656 -6.1594
9.7662 -0.1671 22.8593
-6.8464 10.3284 17.2129
6.2471 -3.5785 28.3859
-1.0217 -1.3656 40.2089
-16.0539 12.0130 0.7298
-4.1432 13.5034 13.4830
-1.2202 -10.5032 21.1245
5.2091 -18.2271 3.0843
26.2265 -3.1456 -12.9644
-30.3597 -23.4594 -38.6867
3.2622 -8.9297 23.4204
21.1851 1.3294 -1.8005
9.3494 0.2018 23.7547
-23.9431 -2.6579 -7.9624
-32.3435 4.9860 -26.5458
-12.9470 -8.7489 10.2525
15.4070 -18.8088 -8.4431
-33.4080 -19.9597 -39.8682
-14.4103 -16.8713 -3.8687
7.9186 -37.4121 -38.4147
16.9084 -5.4134 5.6731
-23.7334 32.0855 -42.0051
15.2211 -20.8666 -11.7028
-28.4890 -5.0268 -18.3757
2.3164 -28.3531 -17.3395
6.5772 -3.2850 28.0579
-3.7190 22.2242 -4.6119
2.1735 18.2111 4.4110
-30.0879 -13.4666 -27.0591
5.1261 -6.3910 26.2484
-6.9637 -8.5513 20.1469
27.4327 11.6115 -20.2260
-25.4739 -7.9773 -13.5655
5.1322 -3.0676 31.0122
7.6871 6.6473 22.0094
27.9016 19.9802 -29.9720
-4.1320 -2.5349 33.4471
-1.0502 14.8651 11.8100
18.2544 -3.7074 3.7940
0.2150 -0.3504 42.9945
21.1579 -32.7455 -40.0185
20.4277 2.9212 -0.5282
1.3368 5.1906 32.3444
9.6079 -31.6375 -27.2746
34.0303 -22.0677 -43.4035
10.1637 -9.7048 13.6374
-17.7551 1.0536 5.6032
16.0766 11.7844 0.9835
-14.3028 -24.2060 -16.6257
-22.6747 -23.3041 -26.0925
-9.1490 10.3576 14.1394
14.4870 29.6549 -27.1456
-3.9627 -12.1046 16.4699
-21.0054 18.1716 -15.8916
-5.6453 7.0788 24.3945
-20.5956 33.3883 -40.5421
-0.4439 -27.4888 -15.2840
37.4653 -5.3137 -37.5524
19.8474 -14.5848 -9.1241
-19.8275 23.2717 -21.9132
-34.6924 13.5009 -36.2323
0.5855 0.4844 42.2437
5.8582 2.4020 30.2537
-0.7735 -0.6213 41.7440
0.3699 7.2257 28.3092
4.1250 -11.5261 17.5345
4.4853 -4.0242 30.9112
-27.7350 19.5503 -29.1439
5.0762 -18.8610 1.8463
2.5503 -30.4550 -21.8888
-21.3362 14.1338 -11.1964
11.0131 30.4701 -25.8436
24.0741 -7.1495 -10.1643
13.7830 0.7780 14.1712
19.6334 -27.6864 -29.1617
31.2436 4.9403 -24.1919
10.9973 25.6983 -16.2743
-0.8521 -3.3726 36.3931
12.0998 -17.6795 -2.2241
21.9779 24.3510 -26.7111
1.2751 -3.1128 36.6401
-33.2398 -9.2685 -30.3811
-3.3573 -18.6239 3.1548
-3.4001 2.7730 34.4372
-7.7201 1.8497 26.7954
12.1877 -1.8991 17.3348
7.1887 14.2613 9.5104
-24.6355 2.3467 -9.3761
1.3028 -16.7630 7.6966
7.4111 -2.8925 26.7588
5.2081 -8.4002 22.6096
-2.7873 17.4574 5.8354
-15.4122 7.7416 6.7633
2.1125 34.4180 -30.3273
-12.1948 17.0832 -1.2894
-2.0906 1.8338 37.8947
17.1624 -26.7262 -24.4726
-1.6535 -7.0315 28.3346
15.5480 -32.3853 -33.4291
-1.8246 -35.2645 -32.1110
-4.7797 15.5688 8.8319
24.1983 -13.8095 -16.0782
-30.0800 15.7736 -29.2127
-1.1453 -14.7931 11.9494
18.5349 22.7417 -19.2561
-11.0725 -7.3785 15.2454
-10.0424 -35.3474 -35.1983
-0.1539 -26.9791 -14.1804
-2.0701 8.7212 24.5898
-7.1187 -11.2644 15.2033
-15.5694 5.1398 8.5956
2.7686 -21.0911 -1.8980
20.2425 4.4582 -0.7264
-8.8084 24.5923 -12.3353
-7.2138 5.1397 24.8179
-32.1823 -3.3092 -25.7418
-0.2499 -13.2352 15.3922
-11.6613 38.4316 -42.5485
-0.0930 -0.9330 41.8613
-0.5451 1.0449 41.3428
3.4717 -17.0979 6.3339
-28.2039 19.5374 -29.9551
-20.4573 0.4583 -0.1558
4.7227 -27.9944 -17.2156
31.7720 -4.1590 -25.0770
-2.4240 -5.7941 30.3632
-9.9362 -21.9084 -7.8898
-17.7328 -9.3552 0.7334
0.9348 8.4590 25.5646
-19.9068 -28.2683 -30.5241
26.8881 0.2878 -13.9869
35.4822 8.0703 -34.4280
-13.0852 4.6870 13.9681
22.2322 3.6907 -4.6190
26.7975 10.9858 -18.4465
-5.9326 35.2785 -33.1055
11.7676 9.4702 11.3734
3.6211 -5.1655 30.3036
16.2743 4.7374 7.4033
0.2365 7.1265 28.5346
2.1202 -0.5697 39.1547
13.7275 21.1501 -10.3820
23.3081 13.5418 -14.1307
-13.7645 34.3085 -35.6726
-20.1738 14.3193 -9.3590
13.1957 8.1457 10.5075
24.8592 -22.3319 -28.0336
-3.7114 -1.0501 35.5787
23.4316 -27.8918 -34.5132
-24.4075 -1.4118 -8.7332
-26.5452 29.6622 -41.7820
15.5208 -2.7609 9.9543
-11.1194 27.4887 -19.9326
-13.6705 1.5755 14.2658
0.2568 -0.1129 43.2754
26.6664 -9.3579 -16.9375
-17.0192 -2.8090 6.7586
15.9207 -24.5319 -19.0560
-29.0003 -9.0169 -21.4761
30.8590 17.5524 -32.5198
20.0281 24.0182 -23.4198
-5.0662 30.3615 -22.3617
10.4387 6.8916 16.9613
-8.8768 4.1933 22.7522
34.1718 -2.1715 -29.8063
20.0748 -6.5586 -1.5686
-9.0190 -30.6003 -24.7728
33.3059 -14.4775 -34.2731
-25.7929 -24.1877 -32.2147
9.4649 -5.2639 20.5727
4.4674 -38.5414 -39.6166
-6.8725 -10.2829 17.2632
-27.1083 -3.7497 -15.0128
-24.8463 25.4612 -32.6785
-9.8429 -5.9028 19.1804
14.0463 5.5760 11.3571
6.5641 -10.7991 16.6833
-31.2563 -25.0601 -42.3336
-40.4123 2.8884 -43.3094
1.2765 1.1919 40.1208
7.5692 2.1032 26.9732
1.6396 -0.1956 40.3257
17.8513 -36.2977 -43.1683
-18.1138 -30.1805 -31.8686
8.2190 1.0305 26.0534
-35.5993 -17.7199 -41.6958
29.9918 5.4219 -21.7089
-30.1841 -7.8085 -23.2149
13.5310 -11.3974 5.8073
-14.1665 10.4543 5.9907
0.4367 -0.4302 42.5599
26.4582 -5.5486 -14.2971
18.1568 -9.1470 0.1278
7.9912 -33.7346 -30.7263
-20.4478 -29.5871 -33.5178
19.5226 -9.2253 -2.5877
2.4310 2.0807 36.9929
-12.3658 -17.9515 -3.0306
13.2811 -0.5323 15.2754
-15.8700 -6.5710 6.9154
19.2237 -18.3455 -13.3048
9.3251 -7.8753 17.6127
0.0527 0.2098 43.4136
27.0645 25.0826 -35.5294
-4.5120 17.6381 4.7001
0.8724 28.7836 -18.0911
0.3269 -6.7380 29.3619
16.6146 30.7985 -31.4278
-16.1428 23.4670 -17.4161
25.0587 -20.5579 -25.8719
-6.5905 6.7147 23.6320
2.3710 -20.9398 -1.4709
3.6207 15.5632 9.4929
-18.8340 22.8059 -19.7712
-24.0705 -0.5335 -7.9330
-4.7436 -1.1405 33.3801
20.0932 7.3917 -2.1941
-17.6000 22.3663 -17.3678
-17.2012 -7.5120 3.4865
11.2100 13.1582 6.6801
0.2086 -8.1174 26.4048
-19.8352 5.5406 -0.4399
-6.0112 21.8045 -4.7943
8.4011 19.1979 -1.2170
-5.9024 -8.4469 21.7034
19.7901 26.5327 -27.3522
8.2571 -21.8020 -6.2904
-37.6375 -14.3795 -42.8261
4.1870 0.8872 34.6686
28.6600 -16.9167 -27.7392
16.4750 25.1598 -20.8394
-2.1230 -12.1243 17.3909
5.0659 0.8495 32.8252
11.3287 6.6529 15.6069
4.7451 14.5124 11.0217
-27.0423 -16.8375 -24.6738
-26.9947 -29.7655 -42.5947
13.3205 -35.2565 -37.2268
-12.5857 -2.1892 16.3883
-3.8527 -25.1190 -10.8087
4.6579 -0.1132 33.8524
2.1225 -5.1181 31.9554
-23.1873 2.4949 -6.3076
29.3029 -13.8764 -25.8934
4.8191 8.5876 22.6877
-13.3385 14.8679 0.8949
-4.5005 6.1302 27.5135
0.3680 1.2062 41.1654
32.7466 4.7696 -27.3346
-0.3239 3.3982 36.5331
-7.2517 -28.3483 -19.0903
-11.1471 -5.9935 16.6432
32.6600 6.0486 -27.5998
4.8160 -15.6998 8.5394
19.4617 17.4711 -12.4024
-23.4652 -11.5686 -12.4210
6.7022 8.1540 21.1649
9.2822 15.5189 4.9648
23.5040 -17.0942 -18.6637
-0.4994 5.1952 32.6475
16.0275 28.0264 -25.5989
27.8694 7.8178 -18.4103
24.3531 27.5618 -35.2696
-12.4857 -10.5765 8.6657
-1.1626 -13.5708 14.5680
2.5206 -7.3349 27.1885
12.4693 6.4702 13.6481
-23.5080 13.7231 -14.6987
-0.1856 1.2535 41.1521
-17.2921 -32.8428 -35.9959
15.6985 7.5216 6.4187
-31.6365 22.5556 -39.7338
-4.4000 5.4701 28.7720
6.4448 9.5599 19.0682
11.4053 15.1331 3.0996
-35.5172 -0.1104 -32.5537
3.9406 -1.5566 34.7615
-1.1326 -7.0224 28.5718
35.8198 -10.4175 -36.3982
-0.2613 -1.3528 40.9141
-12.4993 -2.9961 16.2190
-13.8426 -3.9583 12.8961
-27.4563 -14.6456 -23.0867
-25.3790 21.6251 -27.8739
-4.0095 -16.9833 6.3266
5.9922 4.5042 27.7472
-15.2882 19.6061 -9.6238
0.6420 5.0320 32.9625
2.4649 18.5960 3.5109
-0.8733 -0.3406 41.8618
-1.0106 2.8959 37.2786
34.7750 -10.4665 -34.2722
14.7446 0.6917 12.1142
5.8239 7.6868 23.1256
2.1007 0.6285 39.1604
-21.3441 -5.7306 -3.6797
-13.6133 -1.2415 14.4619
-0.9211 4.6531 33.6714
5.7882 -17.8447 3.5080
-25.1023 -24.1561 -31.0902
-10.4220 4.3931 19.5401
-0.9388 -22.1633 -3.8587
35.5971 -15.2424 -39.4524
3.3418 -13.5291 13.8897
-5.1581 -10.0659 19.5391
-8.5132 -28.2813 -19.6792
7.8856 29.2089 -21.2282
1.9668 0.4874 39.5185
-32.2862 4.5601 -26.2897
9.5309 27.7322 -19.2261
-12.4541 -1.1344 16.9671
-33.7690 16.3636 -36.8736
-11.5955 36.9212 -39.4010
-3.2073 -19.4851 1.3833
-0.7467 4.4975 34.0681
-22.3912 -4.2017 -5.1474
-20.9174 22.3434 -21.9858
-8.2828 2.5230 25.2461
-23.0405 10.4190 -10.5376
-6.5092 -6.4848 24.1063
-1.1527 0.2659 41.3334
-33.9255 -22.1917 -43.3601
6.3418 12.6401 13.4461
-34.5773 -3.3679 -30.8828
-5.9543 17.7560 3.5772
-3.1349 -0.0878 37.1302
-0.6604 -3.2525 36.7370
4.0670 -20.0766 -0.2030
10.5037 3.0076 20.3670
-2.9607 2.0494 36.1302
-2.5945 0.2254 38.2748
2.0004 -26.6197 -13.5675
-22.4916 -23.9197 -26.7776
6.4655 23.1844 -7.9171
-10.4494 2.7859 20.6067
-31.3636 14.0157 -30.0475
2.0715 -5.8972 30.4282
3.8016 20.4356 -0.8523
5.6806 9.2008 20.6094
-5.7050 -23.2796 -43.8791
0.2245 -0.2188 -43.8791
3.7937 -8.0392 -43.8791
2.9282 -3.2662 -43.8791
-4.0259 3.0231 -43.8791
-19.8819 20.5982 -43.8791
5.1100 -6.2818 -43.8791
-3.3393 37.9169 -43.8791
9.7763 -7.3523 -43.8791
-29.7884 7.3089 -43.8791
-5.1319 7.1428 -43.8791
22.2749 16.7295 -43.8791
14.0742 -18.2332 -43.8791
-36.4036 14.2491 -43.8791
22.7332 -8.9046 -43.8791
-28.8843 -11.9218 -43.8791
-16.9253 9.6214 -43.8791
-0.2099 0.7195 -43.8791
27.4872 -21.5052 -43.8791
5.3314 -8.2609 -43.8791
-30.8913 13.5161 -43.8791
39.8916 -5.1492 -43.8791
-11.2396 1.1217 -43.8791
-21.2482 30.3625 -43.8791
28.3030 5.9814 -43.8791
11.4019 34.1713 -43.8791
6.8340 8.0014 -43.8791
25.1185 15.0428 -43.8791
20.1940 -16.4232 -43.8791
-3.0436 -29.3402 -43.8791
-0.6810 -7.9800 -43.8791
-6.8024 -35.5450 -43.8791
3.5291 -3.3826 -43.8791
24.0838 4.0537 -43.8791
-23.8760 -24.2425 -43.8791
8.0282 -20.4416 -43.8791
-9.0064 34.4113 -43.8791
-0.1091 1.4316 -43.8791
17.2754 -13.5005 -43.8791
-30.4787 -1.6793 -43.8791
15.8609 -7.2676 -43.8791
-15.5087 -11.2747 -43.8791
-5.6426 0.1381 -43.8791
28.1352 3.4294 -43.8791
17.2534 9.5136 -43.8791
-9.8295 2.1223 -43.8791
10.8173 6.5223 -43.8791
-36.4268 0.1622 -43.8791
8.6565 12.3089 -43.8791
-25.7070 -31.4769 -43.8791
8.8449 34.2960 -43.8791
-0.2390 -1.8361 -43.8791
3.3164 -15.3372 -43.8791
22.1416 -22.1185 -43.8791
3.6508 0.3188 -43.8791
-26.7535 2.7153 -43.8791
-16.5980 -29.9695 -43.8791
15.7571 -4.1334 -43.8791
7.6305 12.5519 -43.8791
10.0863 -1.0203 -43.8791
13.3088 19.5911 -43.8791
19.5930 27.5502 -43.8791
-2.5853 -15.1291 -43.8791
9.6583 -4.1012 -43.8791
-0.0807 24.2905 -43.8791
-23.3296 -21.0474 -43.8791
1.4617 7.5399 -43.8791
9.2920 -14.6062 -43.8791
5.9701 -7.7554 -43.8791
1.7043 -22.4160 -43.8791
-6.9616 12.4224 -43.8791
-0.8528 9.4518 -43.8791
15.9043 -8.7521 -43.8791
21.7859 14.1865 -43.8791
-37.4743 12.4860 -43.8791
-5.9512 -6.2240 -43.8791
-6.2201 3.9018 -43.8791
-9.6056 0.9683 -43.8791
-40.4841 -4.6212 -43.8791
29.0027 -22.6392 -43.8791
-32.8633 20.1905 -43.8791
-0.7918 -0.9387 -43.8791
-12.2327 9.1051 -43.8791
3.6860 -31.2001 -43.8791
35.2808 15.2130 -43.8791
-31.3845 21.3692 -43.8791
11.7779 11.2593 -43.8791
-13.4853 28.9331 -43.8791
-31.1386 -16.9492 -43.8791
-22.7525 13.4223 -43.8791
-4.0585 3.5226 -43.8791
0.4885 -2.0648 -43.8791
-0.4140 -0.8497 -43.8791
19.8327 24.5933 -43.8791
23.2949 6.7139 -43.8791
2.5069 0.4544 -43.8791
9.2896 12.6260 -43.8791
15.3722 -9.3695 -43.8791
23.7179 24.6348 -43.8791
2.2864 -15.8681 -43.8791
-18.3558 -29.0784 -43.8791
-9.5235 -16.1067 -43.8791
15.8306 -19.0625 -43.8791
-11.4308 31.7644 -43.8791
-8.4415 -17.5246 -43.8791
-16.1239 26.1269 -43.8791
-32.0629 3.6424 -43.8791
4.8089 27.9198 -43.8791
24.6161 -27.8756 -43.8791
8.2409 0.2874 -43.8791
24.3205 -11.9321 -43.8791
-20.5664 4.8561 -43.8791
-23.0225 11.0756 -43.8791
-39.5745 -8.6586 -43.8791
30.6966 16.8631 -43.8791
-2.4111 21.5387 -43.8791
21.9863 -11.4050 -43.8791
-7.9389 -6.3879 -43.8791
-21.5589 -5.2692 -43.8791
11.0416 -4.7607 -43.8791
-0.8286 -1.7467 -43.8791
13.1433 -11.5392 -43.8791
-0.4082 -38.0689 -43.8791
29.7454 -20.2770 -43.8791
-5.4112 9.0511 -43.8791
29.6605 -7.2604 -43.8791
-0.9852 -21.8158 -43.8791
-1.7109 23.1795 -43.8791
27.4826 -9.1076 -43.8791
-5.2967 4.8273 -43.8791
-9.8365 -37.3280 -43.8791
-1.0110 18.9272 -43.8791
26.5559 27.1194 -43.8791
-31.8074 4.9535 -43.8791
-20.8367 14.7302 -43.8791
-2.7311 14.9246 -43.8791
1.1445 -27.0110 -43.8791
10.3097 15.3036 -43.8791
-7.5947 19.1939 -43.8791
12.2710 -5.3186 -43.8791
5.8831 5.9315 -43.8791
7.4477 9.8127 -43.8791
2.5497 -5.9008 -43.8791
21.8421 -18.0990 -43.8791
22.6794 28.0515 -43.8791
13.7234 -3.9491 -43.8791
-18.3385 32.7206 -43.8791
-2.8392 11.9152 -43.8791
-8.0413 30.2492 -43.8791
-24.0172 -20.2114 -43.8791
-37.8492 -10.1489 -43.8791
-18.6326 -15.1708 -43.8791
-5.2035 1.2037 -43.8791
-15.1618 -12.8095 -43.8791
2.0517 12.8579 -43.8791
-34.0449 17.2841 -43.8791
0.0800 -0.2667 -43.8791
33.5487 1.5123 -43.8791
-16.3559 -28.9788 -43.8791
-5.8415 -31.8141 -43.8791
5.7758 28.9204 -43.8791
-0.7774 -3.7994 -43.8791
-14.1244 -30.9945 -43.8791
-19.8243 -7.4278 -43.8791
-3.7048 1.8562 -43.8791
-20.8367 -7.5013 -43.8791
8.4676 6.2798 -43.8791
18.7498 23.8587 -43.8791
-14.3598 -2.4311 -43.8791
-12.7221 -3.2847 -43.8791
-1.2770 -1.5719 -43.8791
-5.8076 -25.5503 -43.8791
9.8079 2.2390 -43.8791
9.8056 15.0229 -43.8791
1.9559 0.8019 -43.8791
-1.8035 -0.7947 -43.8791
12.9877 17.9710 -43.8791
-26.0609 20.9816 -43.8791
-7.9594 -7.3262 -43.8791
6.9657 13.8011 -43.8791
-30.1745 22.5084 -43.8791
-4.7092 -7.0629 -43.8791
13.6745 4.1570 -43.8791
-34.3270 4.5096 -43.8791
13.4567 -22.1857 -43.8791
6.4393 -1.7262 -43.8791
24.9504 -23.8919 -43.8791
-28.7799 3.2067 -43.8791
22.3028 24.5850 -43.8791
-25.8648 -1.8506 -43.8791
-25.4463 11.4528 -43.8791
11.3180 32.6786 -43.8791
28.5768 -9.1341 -43.8791
0.7489 0.9444 -43.8791
3.8815 -8.6446 -43.8791
6.0264 20.3330 -43.8791
11.4452 5.6781 -43.8791
-11.9486 27.4514 -43.8791
17.5891 -12.5621 -43.8791
11.5414 -27.8319 -43.8791
29.2821 -14.4493 -43.8791
0.4469 -2.5753 -43.8791
2.7371 14.2751 -43.8791
-36.6356 10.7365 -43.8791
-37.5602 -12.0420 -43.8791
12.5310 17.7674 -43.8791
-27.8154 -6.0866 -43.8791
7.1582 5.1319 -43.8791
-0.6298 -1.1282 -43.8791
-2.1070 1.4361 -43.8791
18.8839 1.6808 -43.8791
4.6746 35.8195 -43.8791
3.8777 21.6624 -43.8791
36.5689 -9.7833 -43.8791
-6.6330 39.7165 -43.8791
-17.4104 -14.8401 -43.8791
-24.1477 -9.4301 -43.8791
23.7995 19.4950 -43.8791
7.3667 12.4161 -43.8791
-11.7429 14.1651 -43.8791
17.6550 16.6830 -43.8791
-6.4030 6.4767 -43.8791
-2.3114 -13.6411 -43.8791
-11.8681 29.7080 -43.8791
18.3679 27.8036 -43.8791
-4.5868 13.2908 -43.8791
-2.2678 23.8917 -43.8791
-19.3305 28.8598 -43.8791
18.0128 23.3832 -43.8791
-8.4387 34.6474 -43.8791
2.4362 -2.5981 -43.8791
23.5663 6.6599 -43.8791
-35.5646 0.7218 -43.8791
12.8656 19.8846 -43.8791
-0.1588 -0.1982 -43.8791
2.4734 4.3660 -43.8791
3.5798 39.1952 -43.8791
0.8065 -7.0105 -43.8791
0.0856 8.4046 -43.8791
37.9548 -2.2281 -43.8791
29.7650 17.3839 -43.8791
0.5774 -30.7942 -43.8791
-5.4713 -34.7866 -43.8791
0.1286 9.0687 -43.8791
-1.1373 14.8215 -43.8791
-28.4053 19.8836 -43.8791
-1.1331 7.7056 -43.8791
-19.7518 -0.1861 -43.8791
0.2237 -4.9294 -43.8791
-7.9373 -2.1007 -43.8791
-4.7643 1.1311 -43.8791
30.7336 12.2984 -43.8791
-25.1958 -2.4591 -43.8791
-31.5638 -14.9527 -43.8791
12.6130 -10.4045 -43.8791
0.2818 -9.7866 -43.8791
