ply
format ascii 1.0
element vertex 1024
property float x
property float y
property float z
end_header
19.1309 -19.3853 -8.7896
17.2222 7.0814 17.1310
33.5976 -31.1357 -64.6682
-7.3438 -5.7096 45.1714
-0.3222 0.3150 71.8055
12.9806 8.0596 27.1872
-29.1436 -10.4240 -19.9710
-6.2602 -25.8544 -6.8814
-12.3266 20.2163 1.9157
2.0081 -14.1324 30.2106
-3.5126 -3.8296 57.5252
-5.8765 16.0776 21.6543
-9.6888 -26.1014 -10.6129
17.1112 17.7866 -1.1030
0.4050 -2.3799 65.8974
-1.5006 2.3967 64.6531
17.0426 -11.9803 10.4784
-0.7057 4.9841 58.0148
-6.6313 39.1599 -46.3465
1.6889 2.6933 63.5959
-2.1364 -12.1573 36.0200
23.3821 -15.5961 -11.4090
37.6520 -23.9381 -61.0903
-37.7924 -0.4624 -40.5627
14.5683 12.0177 16.3359
-36.5285 3.1356 -37.1554
24.9271 30.1563 -44.5640
1.8298 29.9432 -17.1044
21.4265 20.9478 -17.0023
13.7824 43.0570 -62.8708
32.1085 -1.8482 -23.6115
-5.1907 -39.7546 -47.4738
-3.1707 1.2547 62.9011
26.3623 -7.5895 -9.3834
3.0979 -0.0767 63.8371
-24.4535 15.2837 -13.6075
2.7973 19.3778 14.2501
3.2681 20.4197 10.9376
1.9369 -3.3949 61.4007
-0.3994 40.0175 -47.2557
-13.9082 -33.5776 -36.1963
27.9003 -1.9150 -10.9870
-2.1460 -6.2721 53.2148
-34.9155 -15.1100 -41.3136
3.3742 -11.6137 36.7712
4.2182 -1.9944 59.1217
-12.6200 -10.0511 24.6166
-6.9954 -7.8101 41.6128
-9.3932 -9.8831 32.1350
6.8180 -10.0135 36.7102
1.3760 -31.1674 -20.7114
5.9635 -11.1473 35.1214
-17.2134 -24.2555 -16.3333
-25.6442 21.9867 -28.4790
-36.5877 6.2653 -38.5320
-22.1494 -26.6361 -31.0752
-9.4679 -16.7466 15.2760
-27.0369 -6.8138 -10.7350
-36.0972 9.0010 -38.7792
-7.0288 7.3104 42.6466
20.1024 -25.6782 -24.9635
-41.7040 -15.6478 -60.8666
-32.4511 -16.7510 -36.7242
-1.8704 -7.6788 49.3807
-15.3265 -39.6635 -54.7847
-1.6394 34.6324 -31.1626
-4.7335 -20.8905 8.7095
17.1947 23.6834 -14.9018
3.3846 -2.6078 60.3049
-11.1131 -7.4000 32.9876
-16.5609 5.7778 20.3847
1.6670 12.4165 35.4656
1.0148 -34.9683 -32.1010
-26.6459 -5.1886 -8.5210
-26.8026 -20.3110 -28.0271
-27.5241 -4.3171 -10.6699
-1.5918 -8.1826 48.0787
29.1149 -34.9547 -63.7216
43.9271 -20.1984 -72.3167
3.0564 -13.5963 31.2298
-31.6145 -22.0349 -42.7914
40.5668 -24.3925 -69.2694
7.0722 7.5135 42.1140
-21.6501 19.4088 -14.3277
20.0971 14.7207 -1.7969
-2.8435 -24.8845 -2.2021
1.2075 0.1481 69.5008
-10.6885 1.0046 40.8584
5.3834 -11.0917 36.0637
43.1150 9.8339 -59.9016
35.7985 25.8077 -59.6278
37.2016 -30.1677 -70.9561
20.4774 33.1508 -44.0836
-47.3519 -6.3366 -70.5884
-28.9677 7.2871 -16.7168
20.0852 -25.4017 -24.2777
9.6126 -31.0638 -24.6811
32.0484 10.1862 -28.0246
23.0982 29.8116 -40.3148
-14.5592 5.7465 26.0645
-28.1748 5.4703 -13.1985
3.0472 45.8007 -64.9555
17.5034 -0.3093 20.4862
45.4443 -10.2765 -67.0310
31.6150 -36.2500 -71.5682
34.3819 -11.3423 -35.7763
-18.3291 20.3036 -9.1429
33.0228 -10.4050 -31.0185
-47.7674 -3.4243 -70.9376
-5.5371 -6.0614 48.4586
30.4966 31.3378 -58.4129
31.1553 -24.8938 -46.8335
-5.1428 -20.0333 10.9274
-1.1354 -2.9156 63.7467
-15.1744 3.9995 25.9429
5.1920 7.1862 46.4851
-4.5618 -4.5811 53.7085
-27.6817 -19.0736 -27.9897
-16.7155 -17.8250 -0.3669
-16.2609 6.1724 20.8267
-1.3229 -1.6533 66.7902
-35.0770 15.5059 -42.2363
27.8070 -33.8131 -58.5662
33.4725 7.1945 -29.8561
-36.2738 -25.1569 -59.6649
26.3637 17.5044 -22.0590
8.2317 33.6210 -30.9907
-1.8528 39.6100 -46.1538
4.2570 23.3573 1.7227
5.1546 -2.6559 55.7138
2.2249 -32.1525 -23.8154
39.9091 -10.4143 -50.9446
-2.2246 4.2827 58.6402
-31.0658 1.4169 -20.4116
-4.3389 23.6297 0.8720
-26.5503 3.1868 -7.3007
-5.8847 -16.6078 20.1450
-16.3019 6.9733 19.8103
-17.4277 9.6650 13.1981
0.9860 -0.2458 70.1038
39.7583 -8.3893 -49.1038
44.5809 17.2036 -70.6220
3.3571 -3.9391 57.5883
1.9914 -1.7959 65.0926
2.3047 -17.7946 19.1711
-35.3627 12.0901 -39.2904
20.1656 22.9808 -18.8343
5.1479 7.7400 45.1913
33.9637 24.9798 -53.6981
-0.6169 -21.1345 9.5416
-27.1625 -39.6267 -71.3961
-44.9437 16.4380 -70.8336
-13.3280 -15.8323 10.8899
-15.1409 22.2501 -7.8189
-22.4284 27.2944 -33.1370
-0.0223 -0.3273 72.1744
-17.1011 -20.8253 -7.9209
36.8579 4.9302 -38.7302
5.4570 -4.2722 52.3080
-37.2534 -0.6830 -38.9513
5.8571 -5.6170 48.7433
14.0288 -6.3454 26.8320
-27.6636 -33.9619 -58.6393
-5.1989 -7.6717 45.2762
-6.3575 -35.4309 -35.1514
3.9995 11.5029 36.5172
0.1223 -0.4024 71.8960
8.7299 -3.5489 44.8058
-8.7673 -0.5012 46.7381
8.2858 -23.8245 -2.7371
33.8659 9.7116 -32.8469
-17.2679 16.6279 1.0300
-6.5258 -19.8507 10.2866
10.9631 -45.9498 -68.9805
-34.6680 -0.9649 -31.1936
14.0128 -29.3343 -24.6579
4.7568 7.9160 45.3730
12.0349 15.3124 14.5595
2.0999 -1.4913 65.4117
22.4098 -6.1954 3.2019
-12.8176 20.1116 1.4013
17.0553 -11.1323 11.8781
1.1030 -7.4021 50.6428
-10.1803 -44.7115 -64.8167
-23.3603 -41.7493 -70.7885
4.4864 3.7083 55.6474
-21.9905 -5.5103 4.9471
43.8352 -5.4516 -59.7530
-25.3082 -2.2380 -3.2870
10.2337 -2.7242 41.2964
-32.7703 5.6133 -26.8791
-0.3429 -0.1442 72.0420
5.2155 3.6327 54.0367
9.3284 9.9964 32.0204
-6.8875 8.1740 40.9990
0.5231 0.0175 71.5867
12.8524 31.1621 -28.2660
22.2192 5.9497 3.9493
-33.5446 18.5299 -42.1487
18.7118 -44.1261 -71.0567
-0.3521 -4.8541 58.5171
7.3209 -3.9786 48.0903
7.9385 -1.2168 48.9957
39.5162 16.4135 -55.5900
25.6754 -1.6520 -4.2545
0.2239 13.7066 31.9132
-5.4398 10.5577 37.4247
8.9513 8.5734 35.8663
19.8028 12.9177 2.0189
-46.8592 10.8353 -71.5561
-2.3595 -10.6566 40.3197
3.8041 20.2128 11.2742
28.5388 12.4073 -20.4750
-0.7418 -2.2832 65.9378
-18.2180 7.9602 13.3400
24.7591 -13.0780 -11.0919
38.5821 4.0698 -43.5746
-30.7204 -12.5707 -26.7146
-16.0205 5.3976 22.2939
0.4711 -3.5577 62.3631
25.1292 -6.1812 -4.7051
14.9165 16.5693 6.0784
15.1828 12.5592 13.8725
1.5167 -2.1772 65.1775
-8.9826 -15.4655 19.3466
22.1415 4.3521 5.2639
-7.5762 -40.4559 -50.6847
-0.8558 17.9472 19.0976
-8.8503 46.3442 -68.8062
4.9587 3.3403 55.1715
-9.1350 13.5558 23.9756
-31.9742 -0.6094 -23.0650
-33.8463 -33.7977 -70.7616
-0.1626 -0.1792 72.4333
16.4443 -25.8275 -18.9673
18.1873 9.4956 11.4268
43.8990 -5.0085 -59.7856
5.2747 30.9017 -21.1654
6.9154 24.5996 -3.7269
40.9016 -11.7543 -54.8910
-2.4016 9.2800 44.3183
-3.7789 6.7962 49.7634
-9.7017 13.1413 24.0115
18.6228 23.5454 -17.1673
-13.0428 -44.3261 -65.8680
24.8212 -4.0003 -2.4884
-10.5328 36.8315 -42.1055
-17.3761 14.4913 5.0814
0.9443 -3.7314 61.5798
0.2299 -2.5657 65.4103
25.4483 18.9612 -22.3295
20.9531 32.2046 -42.4456
37.8192 22.4773 -59.2164
-33.5581 4.8599 -28.8667
44.7947 14.6686 -68.6664
-17.6160 -31.7676 -36.1388
-3.5507 -29.6434 -16.6719
-17.5567 -3.6753 19.1889
7.9549 -23.0912 -0.3264
-17.5419 -11.9349 9.3204
-7.3510 -1.8167 50.3770
-11.2952 -16.3631 13.3343
6.3726 5.0514 48.6933
11.5154 -18.7997 6.8255
-0.5366 18.2027 18.3664
-9.5290 14.6963 20.4588
-26.6483 -22.4452 -31.6747
-2.0118 3.9469 59.8317
15.7016 -9.0614 18.6130
10.1885 -41.3232 -54.9019
20.9374 -2.0151 9.8707
-33.0823 12.3905 -33.1347
35.3393 -3.6577 -33.7412
-20.3219 -6.7890 8.6917
6.0488 17.2750 18.0874
-15.3079 4.5761 25.0866
3.4468 -4.4805 56.1520
-0.6812 -1.2928 68.7646
-6.2275 11.4403 33.9683
-1.0685 -14.9261 28.1345
2.2134 -8.8404 45.7398
-18.3734 -11.2982 8.2604
-0.2118 -0.4213 71.7426
17.6420 -1.1271 19.9691
-20.7184 5.5073 8.6557
27.7018 11.1141 -16.6503
-27.6486 15.2787 -21.8895
-0.8457 -5.2227 57.2417
-24.9544 -32.3591 -49.7953
8.6700 -45.9168 -67.4415
34.0631 12.2127 -35.7216
-1.8125 -28.8814 -13.9123
-40.0005 25.8412 -70.1297
-35.1923 -16.4932 -43.7831
3.2866 5.9378 52.7406
-31.9520 -9.8556 -27.4503
-10.8197 -12.0472 24.4385
18.6216 4.4212 15.5722
-12.9900 44.4680 -66.2329
27.6022 23.8845 -36.6697
-18.6891 -22.1287 -13.9926
29.7567 11.5008 -22.8301
-25.0705 -23.9188 -31.0998
-24.6958 -17.1425 -17.2951
-26.2045 32.7335 -53.0053
6.1874 26.3985 -8.4231
-14.0165 27.8626 -20.6867
-7.2210 9.7264 36.7113
-15.9355 -10.3344 16.0117
31.6820 1.7079 -22.3069
27.6712 -0.0905 -10.1004
22.5198 32.7221 -46.3619
17.7307 6.0636 16.7769
-23.2073 -37.1741 -58.7013
-4.0728 2.6787 58.4936
-10.6069 -30.1294 -22.9507
19.0757 27.8085 -28.3076
-6.5630 -42.3168 -55.6903
-10.2139 -24.7742 -7.4700
-30.0016 -3.7461 -17.8131
-0.6324 0.2666 71.0963
2.9963 31.2349 -21.2546
0.5187 0.1094 71.5662
41.1481 -13.7487 -57.3798
-4.6277 2.4504 57.4054
-12.3158 36.0285 -41.4055
-36.6650 -7.8490 -39.6617
40.4161 26.3008 -71.9313
32.1067 10.2165 -28.2194
-34.4179 13.8783 -38.5029
1.8968 12.8953 33.9426
46.7164 13.3878 -73.0645
18.5072 -7.1000 13.5166
25.9845 -31.1009 -48.7836
-6.8547 -3.2818 50.2938
29.4107 1.7692 -15.4941
-24.4967 -5.5775 -2.4346
27.1587 13.4039 -17.9686
-8.0036 -8.4403 38.1621
-4.9607 42.5712 -55.8003
-26.7062 2.0055 -7.4226
-10.7441 42.6333 -59.1312
30.0740 -18.3345 -32.8206
-26.7682 -37.8782 -66.4001
-24.3397 -7.7510 -3.6996
14.6307 6.9052 24.4814
-6.7098 -10.2544 36.2879
5.6929 -10.9302 36.0794
-1.5569 0.7762 67.9267
-44.9986 -13.4703 -68.1739
-0.9977 0.4466 69.8722
-20.0916 13.1049 0.9834
-6.4779 10.2962 36.5590
6.5146 -5.1832 48.1119
29.1846 -5.2050 -16.0395
-38.1085 -0.4836 -41.5148
10.4642 1.0756 41.5093
10.9323 -30.1365 -23.3003
-15.5285 -24.6534 -14.5083
-11.1731 -21.6288 -0.0893
10.1085 3.7026 40.7692
-5.9498 23.0128 1.6399
20.9069 -2.4844 9.8108
-3.5235 34.4929 -31.1663
15.0508 -10.3947 18.1232
26.1192 1.8819 -5.6339
1.3481 11.5332 38.2223
17.4764 24.7580 -18.0247
7.3227 -29.4795 -18.2368
-0.0376 0.0181 73.0357
3.4130 4.5800 55.9748
4.7095 12.5300 32.8841
6.0633 -5.2815 48.9664
5.8925 -3.6737 52.2676
15.4858 13.7043 10.9394
27.1166 -8.1606 -12.0459
-12.0446 -27.7963 -17.9909
-21.5454 -22.1527 -19.8219
-2.8363 1.2222 63.8685
7.5900 42.9021 -57.9337
-11.1502 20.2740 3.5405
-18.7916 6.4799 13.3511
21.9157 2.9940 6.6054
-34.3273 -31.6809 -67.3940
29.2795 36.3828 -67.3605
33.3560 -14.8961 -36.7591
-35.1158 13.2012 -39.7204
-0.9123 35.3241 -33.1629
20.0983 2.3234 12.2836
8.2545 8.3803 37.7673
-3.7314 19.9604 12.0608
-15.4338 23.7262 -12.0052
-34.6661 -11.9410 -37.1621
-2.1197 -26.4770 -6.7616
-0.7793 1.4861 68.1123
-34.1660 -28.9179 -61.5228
24.1033 -21.5036 -24.0317
0.1807 27.4005 -9.2873
37.7465 11.7489 -45.7909
29.0100 19.9506 -32.7781
-12.6975 34.1567 -36.4862
41.6961 -23.2454 -70.4800
-13.2826 13.9223 15.2627
-11.8778 2.2229 36.8012
43.3172 -0.4380 -57.1847
-6.4089 2.0235 52.9389
28.6360 -38.7493 -71.8169
15.1722 16.0041 6.8055
-21.3751 -27.6380 -31.9694
-46.7314 -10.7061 -71.0944
-15.1888 -36.8758 -46.8398
-15.7026 29.3502 -26.9971
4.9748 15.5499 24.0363
-0.5576 16.5274 23.4030
-27.3071 -20.3652 -29.3386
1.1628 2.2464 65.5503
2.4773 40.3298 -48.4179
41.6784 -16.4233 -61.6324
-3.1073 7.0112 50.0859
13.6013 13.5940 15.2991
-38.4250 8.4280 -45.2062
-6.9884 30.6141 -21.3246
31.5681 2.6414 -22.1576
43.9669 -0.5348 -59.1429
-12.5547 1.9996 34.9087
45.8131 -12.5986 -69.8058
-23.2963 -0.6712 3.0346
-4.9282 11.8735 34.4794
-17.6761 -13.0159 7.1109
22.5310 -5.9954 3.0075
-0.0668 0.2210 72.4666
-25.0298 -18.8769 -21.1697
-19.5370 17.9614 -6.6926
27.0624 -23.7582 -35.1954
1.3166 11.6168 37.9831
-23.5281 -6.5380 -0.3163
-22.2775 -10.2088 -0.5737
-40.4314 -5.2136 -49.5022
-4.2680 -0.7159 60.1399
11.9128 -9.3440 27.6053
-9.0714 7.0655 38.5634
-4.2820 -8.9141 43.4053
-6.0783 9.4038 39.4695
-14.7171 7.1216 23.9662
-1.9266 0.6302 67.0620
3.6636 25.8871 -5.5081
1.8723 4.3919 58.7955
-16.6070 -8.8667 16.5154
-15.5389 -1.5389 26.1768
-0.4514 35.5421 -33.7918
1.6873 48.4390 -72.6779
-5.5670 -11.0225 36.0051
-3.5269 -10.6308 39.4593
-4.7780 -8.0600 44.9682
-28.5997 20.8492 -33.3333
-27.8780 -22.4383 -34.5180
-9.6291 7.0072 37.3282
-37.3242 25.2776 -62.4772
10.1135 18.3697 10.0646
16.7419 11.9941 11.1923
32.7673 -18.2914 -39.7556
-18.5733 7.7409 12.6157
-1.0393 -0.8638 69.0950
-2.0039 -5.9866 54.1656
21.0818 20.6503 -15.6349
-4.2595 0.6627 60.1906
-28.6846 -19.5753 -31.3322
-5.0430 7.7865 45.2477
-14.5335 -17.2084 5.3863
17.0172 16.5000 1.8399
5.3725 3.7977 53.3649
7.8172 -13.8753 25.2414
29.1872 -18.6123 -30.9986
-5.0486 3.6633 54.3927
3.7434 -37.5194 -40.2933
8.3875 21.4102 3.9721
13.3701 -41.6237 -58.3851
18.1729 -41.0697 -61.9731
11.1303 -9.4432 29.2411
43.1980 -9.9965 -60.2545
15.5921 6.4421 22.3987
-7.5372 -7.0007 42.2086
-3.8985 16.6304 21.7648
5.8600 33.6003 -29.4664
-0.0303 0.0092 73.0662
-19.2687 13.7824 1.8778
-30.4576 33.0155 -61.9970
5.3484 -9.1327 41.3159
-20.8807 -4.9583 8.5852
13.2405 9.2953 24.4839
36.9838 22.0102 -56.3375
-14.8141 -16.3646 6.7420
-41.0315 13.6853 -56.9868
43.7082 20.9173 -72.6393
4.6943 -1.9042 57.9188
2.9671 4.6018 56.6861
-29.1777 30.4066 -53.6403
-10.0097 3.4136 41.3394
-43.7003 18.7886 -69.9691
-1.6919 35.4283 -33.5624
8.9870 32.7902 -29.1416
32.0168 32.5267 -64.1692
15.1060 9.7667 19.0354
7.7633 1.8413 49.1539
-42.1767 16.7203 -63.3553
-16.6401 -8.5822 16.8249
-9.7687 1.5450 43.4025
-39.7933 11.0574 -51.1115
14.7546 -11.4872 16.8966
32.3409 26.0097 -51.7171
40.1977 -22.3638 -65.2503
22.3493 -37.1824 -57.3740
14.3401 -9.0257 22.1773
6.5568 -30.6269 -21.0819
3.8983 12.8367 32.7944
-1.1986 16.6402 22.9620
-0.4181 -14.4285 29.7284
21.8899 -21.0498 -18.2169
-28.1323 18.9247 -28.8583
-26.5069 -8.1956 -10.3219
-32.7762 6.2191 -27.2204
-40.7838 24.3945 -69.8323
-2.4856 -15.7324 25.2361
-0.7103 -3.8171 61.4787
-18.8101 10.2488 8.7067
-1.9946 -0.5450 66.9398
24.9031 -3.7416 -2.6119
11.7149 -19.8794 3.7314
19.1669 1.0073 15.4093
8.1702 15.6544 20.0286
1.7868 9.9174 42.8398
27.8677 28.2765 -46.2973
-10.5384 -30.7965 -24.7791
-14.0148 -32.0916 -32.2074
-24.5194 -19.4146 -20.9438
4.3714 45.0419 -63.0044
0.0943 -16.7309 22.8182
-10.7155 -18.8679 7.8720
4.2319 48.2905 -72.6994
-11.0537 6.9175 33.9251
31.7347 -3.3450 -22.8558
9.1751 -6.8292 38.7458
4.1781 22.9292 3.0324
-45.5434 14.2819 -70.4568
6.2715 7.5910 43.5335
3.9711 35.3265 -33.8041
12.2923 -45.3000 -68.0736
-13.7229 6.8170 27.0557
-6.4225 3.1129 51.6861
-34.4850 -10.2602 -35.0978
-18.7702 5.7160 14.1219
5.0466 -10.9565 36.8649
-19.2871 25.9759 -24.1883
34.7521 19.2659 -46.4000
14.0782 -11.9488 17.5999
25.6205 -1.2147 -4.0161
15.5137 -24.8047 -14.8705
7.1728 -21.7129 4.3555
21.6817 -12.9789 -2.8735
2.4733 -7.3469 49.8357
-3.2938 -1.6770 62.0398
24.3673 24.1763 -30.1233
0.5100 41.9625 -53.1113
-0.5879 -15.7412 25.7639
40.3019 17.6816 -59.2629
41.2022 -25.1177 -72.0351
-0.5907 -0.8125 70.1388
-5.0461 25.7968 -5.9310
23.0310 -29.8951 -40.3900
10.8657 -45.3716 -67.2201
-14.4951 -16.2273 7.6911
-7.4134 9.6532 36.5383
-14.3550 -4.0846 28.2534
24.2086 6.0571 -1.9267
5.8115 18.3020 15.3818
-13.5033 -13.5083 15.6901
20.3060 -13.4214 -0.0785
-19.1248 -28.3155 -29.6518
-11.0245 4.2485 37.6113
6.3233 -37.0552 -39.9478
-12.0258 19.9334 3.1127
5.9069 4.6894 50.4677
10.6173 34.5995 -35.7386
-1.7232 -5.9985 54.3821
14.3200 22.6271 -7.4117
-5.3483 40.1886 -48.8304
-5.9130 -26.9349 -9.8145
0.1443 -0.6086 71.2794
-0.1177 -20.0384 12.8658
16.7259 21.3854 -8.5300
-13.4519 -45.7186 -70.2351
-10.2075 -20.3454 4.6702
-0.2596 -22.0617 6.7740
-30.8211 -25.5677 -47.3338
-28.3162 -31.5140 -54.3183
2.3587 8.9931 45.1865
35.0919 -9.6945 -36.3838
-17.9206 -14.8133 3.2019
15.9969 -30.4232 -30.2642
-0.9619 35.6971 -34.2888
-2.8275 3.9320 58.5889
-3.2457 25.6457 -4.6208
-29.4137 -32.5381 -58.8180
31.4184 -15.7371 -32.5712
-20.5745 31.1305 -39.1182
42.4530 16.5894 -63.9846
-9.9405 -11.7345 26.8868
-16.2270 -10.0665 15.7030
35.4632 -5.6380 -34.8859
17.6824 -25.8311 -21.0296
7.4667 44.9650 -63.9889
7.3800 10.1972 35.2858
-29.8686 35.3980 -66.2009
35.3747 16.2807 -44.0116
4.7794 -30.1467 -18.6818
-0.2420 -9.5649 44.3717
5.1419 -26.3959 -7.7556
7.6268 -36.5925 -39.3101
25.3532 -28.9244 -42.5723
-34.0337 -1.6228 -29.3609
-14.0581 3.8013 29.3420
-7.4740 -12.1863 30.1464
16.5303 9.3616 16.0001
7.9306 18.0712 13.7802
11.4728 4.1312 36.4704
-4.2991 1.7869 59.1527
-29.2966 27.7844 -48.3299
-1.6067 -24.7760 -1.5452
-5.5885 -13.2007 30.0282
-0.5589 -39.0691 -44.4080
-21.1469 12.2819 -0.4219
-12.4628 39.8844 -52.5714
-13.9760 -3.5362 29.7830
36.2360 23.6470 -57.0339
26.6071 -24.7196 -36.1180
-39.8286 7.2416 -48.6458
26.7268 -18.7813 -25.1288
2.8166 14.6347 28.3181
-5.3801 -5.1196 50.8150
-5.4648 12.0312 33.4004
3.3009 -1.3374 62.4449
25.2633 18.5610 -21.1656
23.8616 3.2491 0.7003
-16.3757 -19.9607 -4.5253
-2.9199 -34.6072 -31.3402
4.9441 -2.4577 56.5482
-8.6098 -8.9932 35.6994
20.3588 -0.5363 11.8815
9.1737 7.2471 37.9840
24.5728 -13.5061 -11.2095
-29.9401 33.3251 -61.6375
0.2600 -3.6643 62.1079
13.4163 29.9816 -25.6724
-1.7314 0.9721 67.1868
11.3102 -4.2888 36.7650
4.1674 -23.5946 1.0675
-9.2206 2.8073 44.1596
8.1147 13.2808 26.3308
8.4377 7.5725 39.0475
-7.6952 5.4864 44.7246
-10.8784 -1.3387 40.1818
-47.8709 3.8266 -71.3396
-14.1396 41.0278 -57.4153
-25.2128 11.4481 -10.1571
-16.9413 -6.3297 18.7440
2.7038 -8.8103 45.4313
22.2120 6.3602 3.6406
-19.6389 -36.6220 -51.8772
0.5928 -36.2772 -36.0098
-6.6602 7.2175 43.6106
-20.1373 -30.5402 -36.9111
-29.7735 7.1299 -18.9587
10.4825 -22.0422 -0.2806
26.8468 -9.3836 -12.4118
33.2307 11.9069 -33.0531
22.4029 -0.8061 5.7086
1.5616 2.7800 63.5670
-2.0903 -1.8605 64.7411
19.4442 32.7373 -41.4085
14.9089 -1.8915 27.9416
13.0532 17.1626 8.2808
29.5611 22.5863 -38.7782
0.9476 27.9972 -11.1292
-1.1060 0.9141 68.8440
-4.2956 -2.2942 58.5082
-16.7254 -3.0334 22.0145
23.6545 26.8625 -34.5378
-2.2364 -12.5503 34.8032
1.3428 2.4977 64.6287
-8.7068 4.2231 44.0438
31.3556 34.8175 -67.8245
26.4482 6.0279 -8.4610
-1.8269 -9.5941 43.7744
-32.8938 29.1870 -59.1602
15.8456 -11.1178 14.9172
-13.2365 19.7268 1.6805
13.5655 23.1085 -7.4667
5.9722 -6.8427 45.8330
3.7543 -39.3042 -45.6416
-21.7374 3.1320 7.0791
11.5980 -9.0420 28.9113
-3.4950 -0.4698 62.5505
27.0022 6.8396 -10.6530
14.2547 -18.0979 3.8423
1.9191 -0.1789 67.3619
17.4264 8.8000 14.4197
3.7548 -19.6776 12.8841
18.0101 -11.4281 8.9807
1.3659 -31.9605 -23.0942
3.7705 36.2426 -36.4796
-10.3839 -15.5738 16.8395
47.8065 1.4538 -70.7529
1.2224 45.5842 -64.0489
23.6674 -2.7998 1.4507
-3.8040 -0.3189 61.6751
-20.1240 -13.2604 0.6454
-30.6427 -11.0266 -24.8290
-10.2307 -1.6504 41.9798
-0.0013 -47.8995 -70.9660
18.6139 -13.1044 4.6652
-2.0621 -3.9600 59.7271
2.4750 -3.3492 60.6307
-22.1731 -13.5923 -5.0945
18.0456 20.2153 -8.3753
30.2474 24.9665 -44.8508
-45.1062 0.1316 -62.5619
-20.7608 22.8213 -19.6698
36.1189 25.3015 -59.5313
6.9132 27.3749 -11.7944
10.3323 -8.4739 32.9535
-35.5046 15.7261 -43.6810
36.8091 16.7983 -48.5841
39.8376 -4.9963 -47.6472
-16.1155 15.3695 6.1534
-11.6778 -17.1740 10.6707
37.1274 -14.2489 -46.4980
-20.4968 -24.4462 -22.8304
1.9971 -18.7667 16.3745
35.1379 23.5528 -54.1215
-27.0029 -24.3354 -36.2160
19.8246 18.7320 -8.9067
16.9965 -45.4598 -72.8730
15.2643 -5.2756 24.5661
12.0032 -45.8514 -69.4527
2.3954 0.5233 65.7838
7.9759 5.7336 43.6049
20.5911 -23.9281 -21.8256
1.3912 23.5125 2.2897
26.2976 21.2085 -28.4936
6.1199 6.6962 45.8656
0.4753 -17.5592 20.3070
3.9847 -4.2965 55.5295
-27.8353 25.7660 -40.9685
-1.8084 -1.5538 65.9874
-5.2443 -41.2297 -51.8964
-25.5602 -18.4503 -21.6917
7.5839 17.3254 16.2545
23.9555 -8.3981 -3.2206
-0.6083 35.9648 -35.0706
6.9756 9.2355 38.3364
18.8069 -31.4635 -37.1344
-3.1562 -11.8916 36.1414
37.1832 -26.1051 -63.5416
-23.2026 -14.3082 -8.8616
25.2825 -17.9889 -20.2039
-20.2118 18.3023 -8.8840
-25.2379 -40.4872 -70.3935
-29.1664 3.9752 -15.4103
-26.7426 -0.0940 -73.1614
18.3676 33.6546 -73.1614
25.8437 -6.2776 -73.1614
-7.4830 -3.1485 -73.1614
0.0855 0.0001 -73.1614
-23.7230 24.7868 -73.1614
-27.4268 14.8849 -73.1614
25.5880 -29.4831 -73.1614
-37.2590 7.8475 -73.1614
-4.1528 0.5603 -73.1614
-27.7687 -38.1071 -73.1614
-1.2211 -4.2093 -73.1614
7.7529 21.3255 -73.1614
-3.2165 -20.1040 -73.1614
21.1415 4.3337 -73.1614
3.3350 -10.4854 -73.1614
26.0391 -33.0483 -73.1614
-33.7568 -7.2623 -73.1614
30.3604 29.7172 -73.1614
-9.1705 21.4126 -73.1614
23.8554 11.8003 -73.1614
33.5253 30.6753 -73.1614
-3.8385 -33.5770 -73.1614
-6.4666 9.9192 -73.1614
-6.6222 -5.4327 -73.1614
24.3803 35.7132 -73.1614
-0.2322 -28.5588 -73.1614
-1.5671 4.3240 -73.1614
-25.7589 -32.9193 -73.1614
-27.3965 -9.9052 -73.1614
-14.4732 39.9950 -73.1614
-8.3258 28.5295 -73.1614
-12.5880 8.9158 -73.1614
-8.6788 16.9004 -73.1614
12.8681 -4.9570 -73.1614
-20.3326 19.4156 -73.1614
5.4303 6.9217 -73.1614
-28.6289 -13.2858 -73.1614
1.0571 -1.3063 -73.1614
9.7371 -4.3502 -73.1614
-14.3088 3.3384 -73.1614
-8.3342 19.1449 -73.1614
-31.3164 31.6944 -73.1614
22.0843 14.6629 -73.1614
0.7295 -1.8448 -73.1614
-4.3793 -39.5557 -73.1614
18.6455 38.5906 -73.1614
-5.7778 -7.8366 -73.1614
0.7798 5.5645 -73.1614
-6.5210 43.8284 -73.1614
-29.0820 -0.5257 -73.1614
-17.8214 40.2885 -73.1614
-5.1379 41.0431 -73.1614
3.2682 24.7469 -73.1614
28.7789 38.2849 -73.1614
3.9229 -0.7437 -73.1614
-28.7716 3.6022 -73.1614
-4.3419 -2.7457 -73.1614
-12.4787 27.2060 -73.1614
-6.4438 21.0866 -73.1614
-5.6525 -4.3623 -73.1614
27.6339 0.7483 -73.1614
-31.8516 27.3547 -73.1614
7.8686 -1.0123 -73.1614
0.0185 40.8892 -73.1614
-19.0182 5.3277 -73.1614
1.2494 33.6980 -73.1614
41.2990 -10.7019 -73.1614
-3.1970 44.5501 -73.1614
-41.8528 4.0527 -73.1614
-7.9704 7.8605 -73.1614
-3.3084 -21.8631 -73.1614
0.2222 -6.9029 -73.1614
-9.0163 -12.4589 -73.1614
7.0539 -7.9356 -73.1614
15.0749 24.5283 -73.1614
29.5938 16.5679 -73.1614
1.7192 -18.9755 -73.1614
16.0059 -7.9677 -73.1614
26.8686 7.7835 -73.1614
2.4735 -0.8509 -73.1614
-12.3745 45.9252 -73.1614
-19.6887 -31.2507 -73.1614
-14.8252 22.7144 -73.1614
16.4548 21.0113 -73.1614
-27.9810 0.5004 -73.1614
4.0322 -10.6435 -73.1614
-9.6167 20.1226 -73.1614
26.8744 -4.6100 -73.1614
-3.3427 -20.3401 -73.1614
1.9713 -16.0804 -73.1614
-38.6271 -3.9955 -73.1614
37.1756 -9.0945 -73.1614
-4.6516 2.4337 -73.1614
38.0162 -14.1033 -73.1614
-12.6364 8.7447 -73.1614
-3.4761 13.8629 -73.1614
-19.8583 27.2602 -73.1614
15.6514 -16.9188 -73.1614
14.5860 -15.0295 -73.1614
-0.9706 24.7669 -73.1614
-34.2077 -21.0806 -73.1614
18.4274 16.0828 -73.1614
1.1751 21.2157 -73.1614
17.5815 5.1588 -73.1614
26.9980 36.8264 -73.1614
0.3417 2.6663 -73.1614
-9.2420 13.7771 -73.1614
39.1057 5.3481 -73.1614
10.5275 -4.2112 -73.1614
35.6566 19.1039 -73.1614
43.1946 8.1279 -73.1614
-26.6689 27.5892 -73.1614
21.1413 -43.2818 -73.1614
-16.6101 12.1000 -73.1614
-24.6294 18.1966 -73.1614
-40.5420 9.1817 -73.1614
-11.5700 6.4323 -73.1614
5.5683 19.7591 -73.1614
8.9097 -3.3288 -73.1614
19.4232 39.7742 -73.1614
7.2216 -2.4489 -73.1614
25.5735 18.4732 -73.1614
-3.7504 14.2394 -73.1614
7.2234 -13.7471 -73.1614
29.2522 -11.1827 -73.1614
-12.7445 -12.1358 -73.1614
-36.5381 21.4498 -73.1614
2.7433 27.1771 -73.1614
-5.7061 -18.0350 -73.1614
26.1196 -4.0927 -73.1614
-7.1696 -11.8572 -73.1614
-1.1782 -0.3763 -73.1614
-3.3084 -4.9638 -73.1614
3.0551 5.5276 -73.1614
-6.6874 -33.7516 -73.1614
-5.6180 7.8122 -73.1614
-20.3407 22.1372 -73.1614
-22.0961 1.0918 -73.1614
37.0952 27.8001 -73.1614
2.1813 0.5698 -73.1614
1.2739 0.5822 -73.1614
1.6485 2.3595 -73.1614
28.3791 -5.4036 -73.1614
15.0119 -2.3409 -73.1614
-20.3741 -0.0587 -73.1614
-7.3110 6.6880 -73.1614
6.2903 3.8538 -73.1614
-1.5777 -6.6564 -73.1614
4.0568 3.2347 -73.1614
41.7840 17.3947 -73.1614
-10.3920 -35.3243 -73.1614
-10.8362 -21.7011 -73.1614
-14.7305 35.3750 -73.1614
16.7449 5.0463 -73.1614
26.1489 14.8438 -73.1614
-6.3170 -6.4954 -73.1614
-6.6857 -36.4647 -73.1614
3.9420 16.4846 -73.1614
33.1750 29.3877 -73.1614
3.1615 -3.2192 -73.1614
4.4071 41.7883 -73.1614
-11.7818 -27.7612 -73.1614
9.7527 25.1060 -73.1614
20.8245 -15.1416 -73.1614
6.5142 18.5899 -73.1614
2.6171 22.4977 -73.1614
-0.0414 -4.1751 -73.1614
-9.6923 1.5431 -73.1614
0.6086 2.4748 -73.1614
4.4299 44.3784 -73.1614
28.1124 -20.2904 -73.1614
8.8826 15.1231 -73.1614
13.2105 -39.5906 -73.1614
25.4295 35.9316 -73.1614
-35.0675 -0.6518 -73.1614
-21.5023 -18.4427 -73.1614
-14.9278 -0.7947 -73.1614
2.1179 34.8790 -73.1614
-31.5555 -0.1656 -73.1614
-14.2079 -13.7339 -73.1614
13.1114 -10.0013 -73.1614
13.9936 -43.2707 -73.1614
7.0934 -15.7015 -73.1614
10.7570 -6.6518 -73.1614
-19.2483 26.9590 -73.1614
-8.1064 11.4100 -73.1614
0.4384 0.1978 -73.1614
29.2998 27.4646 -73.1614
-11.7221 0.9616 -73.1614
-18.2990 -3.7695 -73.1614
32.7558 18.3928 -73.1614
3.3245 -29.9378 -73.1614
-2.7919 -3.6914 -73.1614
24.0356 3.7926 -73.1614
-6.2302 -10.9971 -73.1614
-0.2242 -0.1172 -73.1614
-31.7274 15.9181 -73.1614
24.5885 33.9325 -73.1614
-6.3147 45.6908 -73.1614
-40.9168 -19.4206 -73.1614
34.2789 -30.7190 -73.1614
-1.0459 -1.1224 -73.1614
33.2914 -25.2514 -73.1614
-1.1194 7.9522 -73.1614
40.0774 -9.4774 -73.1614
0.9639 -13.9971 -73.1614
-5.0027 33.7090 -73.1614
-3.8472 23.4323 -73.1614
-3.1216 -2.4374 -73.1614
5.0178 -27.3673 -73.1614
7.2451 32.8120 -73.1614
26.0727 -13.1755 -73.1614
31.2574 6.5472 -73.1614
-20.2976 18.4544 -73.1614
-22.9699 13.3546 -73.1614
14.1757 -2.1173 -73.1614
-28.3678 16.6154 -73.1614
2.9238 -4.2262 -73.1614
-4.5618 -24.7728 -73.1614
4.9240 1.7034 -73.1614
-7.8022 -36.9844 -73.1614
-2.7399 4.7998 -73.1614
-40.0219 -13.8698 -73.1614
-0.7116 24.3080 -73.1614
6.1142 0.0151 -73.1614
-16.2541 -30.8593 -73.1614
-8.9326 -1.7159 -73.1614
-20.5988 -15.2411 -73.1614
-3.2125 7.3825 -73.1614
-1.8895 2.5164 -73.1614
9.4835 18.9870 -73.1614
13.1245 3.9700 -73.1614
-34.9560 -25.0314 -73.1614
-35.6884 1.9683 -73.1614
29.9465 1.9489 -73.1614
4.5375 -7.7592 -73.1614
-3.2813 20.1500 -73.1614
-12.8769 -3.0792 -73.1614
2.1901 15.2031 -73.1614
-14.9845 -33.2799 -73.1614
-47.0377 -9.9206 -73.1614
1.4071 1.9725 -73.1614
29.7141 15.7030 -73.1614
-30.2137 35.5368 -73.1614
1.6973 -33.3453 -73.1614
-36.4492 -8.8264 -73.1614
-24.9575 21.1753 -73.1614
-3.3169 5.1746 -73.1614
11.6423 -0.1858 -73.1614
-7.5502 31.2898 -73.1614
-4.1441 -2.2494 -73.1614
-37.4398 7.8664 -73.1614
-14.7991 19.5656 -73.1614
-4.6689 4.7706 -73.1614
-36.9879 -26.8113 -73.1614
