ply
format ascii 1.0
element vertex 1024
property float x
property float y
property float z
end_header
12.5320 8.3509 -15.4246
0.6823 -6.2881 11.3526
-16.5247 -7.1034 -24.3985
2.3530 1.8819 21.5062
-0.7398 4.7384 16.0405
12.8313 -8.8449 -17.0339
-8.8246 9.8266 -9.7468
13.6062 -5.7301 -14.5175
0.0783 -0.0754 30.4096
-1.2573 2.1670 23.0625
-10.7257 3.9583 -4.3063
-8.8720 4.9231 -0.3626
0.5300 2.5665 22.7088
-3.0822 0.7816 20.9947
-12.1254 -0.7183 -6.4947
-14.3344 11.0203 -24.6874
-8.2756 3.0264 3.7293
-3.9837 -14.9856 -16.7935
-4.3137 1.6910 16.5386
1.9624 13.8675 -12.1938
-4.3719 9.8713 -2.3546
-2.4513 -1.5115 21.9142
-1.4359 -14.1668 -12.9105
-10.8085 -4.3959 -5.0280
2.4084 -1.3037 22.3471
10.0920 3.0952 -1.6184
-7.5625 2.0544 6.7184
-9.3852 17.4477 -29.9933
3.3991 -3.3223 16.1715
-3.5070 2.4037 17.7086
0.4669 5.1921 14.7615
-7.2203 6.5765 0.8021
-16.9622 9.6311 -29.0553
-4.4278 -12.7182 -10.5423
3.7599 12.7407 -9.9811
-0.9856 17.9530 -24.3781
2.3358 -16.9680 -21.7662
-1.1533 -0.2142 27.1469
8.3668 11.2837 -12.3214
-11.4194 -7.8485 -11.7366
1.5657 -8.6529 3.7853
8.8116 -10.0598 -10.2551
-1.3375 1.8224 23.8128
-5.5998 5.6936 6.2606
14.9060 -3.5630 -16.2414
14.3512 10.1004 -23.0573
5.0544 -0.6412 15.1234
2.1813 7.4158 7.0454
2.7579 -14.7556 -15.2763
-0.7193 -0.2192 28.4377
-3.3554 2.7895 17.3657
-2.3789 -2.2031 20.8027
-6.2434 3.0769 9.4047
5.4041 -2.7765 12.1170
8.4630 -7.3270 -3.5745
19.1043 1.9714 -28.1357
-18.9775 -5.1919 -29.5737
17.3570 1.2782 -22.6122
-14.3805 -2.6792 -14.1017
1.4362 -13.4297 -10.6629
-3.7000 4.8538 12.0323
-4.6812 -12.2402 -9.4323
-3.0158 -1.8167 19.9494
13.2756 11.7712 -23.6503
2.2099 -7.5200 6.7141
-4.0270 4.0556 13.2216
-4.7589 2.9593 13.5630
-4.6905 8.8115 0.1410
-4.7388 -0.9357 15.9347
0.0260 -9.3303 2.1392
-10.9110 -10.8384 -16.4048
8.2474 11.4723 -12.5725
2.9457 13.7967 -12.5064
-0.5002 -1.2641 26.5751
16.8302 -1.7682 -21.1369
-5.0443 13.1999 -12.5780
-4.9207 5.6168 7.8502
-0.0358 -4.0967 18.1834
-0.2336 3.3799 20.3564
5.5682 -8.7681 -1.0993
2.1496 8.3869 4.2004
0.1875 -0.9082 27.8999
0.1785 -1.0416 27.5031
7.2126 -7.8689 -1.9811
0.8083 1.0803 26.6065
-4.6602 17.9970 -26.2498
0.8072 -0.4344 27.9327
0.4308 0.9554 27.5300
-2.3268 0.8679 23.1297
-9.6812 15.6504 -25.6738
0.3600 1.4251 26.2368
15.4269 -3.3342 -17.6430
0.5024 1.2841 26.5157
-8.4375 -15.6384 -23.7322
-0.3647 -4.0025 18.4218
-16.6145 -10.9483 -30.2559
-12.1845 -8.9003 -15.5149
-0.1696 0.6064 28.8125
9.0524 14.4274 -21.4724
-7.3610 5.4614 2.6436
-0.9455 -1.5172 25.2624
-4.9745 -4.1530 10.8768
3.4051 -9.0738 1.0313
-1.3312 0.8680 25.8709
-0.3048 -3.6644 19.4703
0.4474 0.9886 27.4162
-3.8230 -0.5252 18.9127
-1.1455 -1.7884 24.2320
10.2742 -3.3750 -2.4104
-13.7954 0.5985 -11.5890
4.8462 -4.6260 10.2041
-0.5687 3.0633 21.1913
-0.4619 0.0914 29.2995
0.5373 5.2078 14.6928
2.0651 -0.0283 24.4114
9.6771 -16.1134 -26.8793
-4.4663 -15.9978 -20.1767
-6.7613 -16.0146 -22.5491
-11.3073 -13.1042 -22.3184
-9.7683 4.7307 -2.5306
2.2989 -2.9511 19.2746
9.5570 -6.9509 -5.4855
11.2524 -9.8514 -15.1057
-7.6318 8.1515 -3.4900
3.1742 4.4040 14.1001
6.4812 6.6693 2.2328
7.6831 9.9277 -7.7418
-1.2024 -0.2281 26.9910
7.1033 1.4499 8.5173
7.2933 3.7266 5.6343
5.9645 2.3101 11.1342
-15.2871 -12.9753 -30.7279
10.2390 7.5636 -8.2824
8.1643 15.1174 -21.9289
6.1101 -11.0663 -8.0103
-8.6895 -9.6797 -9.1348
0.1363 -11.7834 -5.3835
-10.7599 -12.3064 -19.3714
-14.6004 5.9483 -17.5893
-5.2788 2.7237 12.5326
0.1443 1.7453 25.3742
2.9945 -7.7169 5.3666
10.3308 -16.2038 -28.1699
-1.4098 2.8155 21.0900
-3.0748 -9.4260 0.3472
10.0388 3.5942 -1.9459
-2.0147 0.7215 24.1825
-1.7473 2.4315 21.5636
15.8405 -0.3791 -17.8329
2.2153 9.6227 0.4713
3.5384 16.1769 -20.0228
-1.0889 0.6520 26.8520
2.1530 1.3038 23.0267
9.3017 6.7152 -4.4276
-4.4067 5.5647 8.9820
-4.5631 -10.5721 -4.5577
1.6120 2.2114 22.3534
1.7855 -0.3819 25.1452
0.4775 -0.0785 29.2595
-4.8988 -0.2136 15.7106
0.4409 1.9117 24.7285
-9.3586 -9.0552 -9.1792
11.0812 -5.5752 -7.2858
-15.5717 -2.3212 -17.5224
9.0181 1.3099 2.8063
-0.3999 19.7654 -29.8638
-9.1001 7.1032 -4.6475
-19.0653 -0.4386 -27.7206
5.3950 -2.7370 12.1970
12.3319 9.3999 -16.7933
-7.9703 -13.2226 -16.5879
-7.8238 -3.4097 4.5790
-2.3034 2.3636 20.6252
5.5695 11.0007 -7.0576
5.7694 -4.4758 8.3572
14.4319 9.1023 -21.5654
11.8330 -1.6247 -5.8736
-9.6675 -1.0254 0.9392
2.0741 -13.8361 -12.1478
5.8228 15.0763 -18.8035
-5.6988 -1.9790 12.2486
-0.4468 -9.3728 1.9762
-4.2985 -6.6274 6.5262
-3.3052 7.0799 6.7894
10.7834 -8.0837 -10.5731
-7.2202 0.7760 8.4808
9.7459 -10.2123 -12.5334
8.8928 -12.4352 -16.1246
16.7228 6.7668 -24.5619
2.4441 -3.2671 18.2346
-6.1382 -0.7078 11.8006
8.0153 -17.8149 -29.1450
-1.6104 10.6431 -2.2569
1.2425 -0.7957 26.2195
-3.1416 13.4539 -11.6121
3.9172 2.6202 16.2951
0.0550 14.0884 -12.4477
14.4181 -8.9750 -21.3223
0.1135 3.3825 20.3674
-5.9184 -5.2521 6.4848
16.7140 10.6332 -29.9869
15.3495 8.5638 -23.1421
8.3869 -10.3456 -10.0860
-0.7170 5.8690 12.6168
-17.1883 -7.2453 -26.4408
0.2087 1.7344 25.3874
-2.7239 5.7899 11.1268
2.1262 -1.4896 22.7841
9.7629 6.9443 -5.9862
-7.3268 12.1168 -12.6662
-3.4185 -3.7305 15.2310
6.7362 15.7610 -21.8034
0.3943 9.9737 0.1429
3.3807 0.5453 20.2449
19.2932 -2.7424 -28.9982
5.4280 0.1917 14.0920
-8.2599 -11.3766 -12.3572
10.3318 -13.0041 -20.1744
-13.2316 6.4912 -14.4391
3.9595 12.7382 -10.1513
0.0458 -0.0232 30.5853
6.2902 18.5585 -29.3305
2.1590 -1.3463 22.9426
12.7508 8.3800 -16.0332
0.7049 6.3294 11.2190
15.1384 4.7120 -17.8628
5.5388 -10.0935 -4.5533
-2.4935 -15.3073 -16.8029
2.2758 0.9595 23.1712
-1.8325 2.9367 20.1309
8.9165 -6.5706 -3.2125
4.0001 -18.1709 -26.2970
1.5532 -7.1927 8.1841
3.8669 -10.5481 -3.6987
-2.9546 -13.8878 -12.7855
-1.2843 2.4931 22.1454
14.6130 10.4375 -24.3096
0.6599 -2.5872 22.5574
8.9061 -13.9769 -20.0653
-14.9510 2.0509 -15.5213
15.6030 -10.2454 -26.4811
1.4855 1.3723 24.5429
3.6834 12.9241 -10.4559
4.7360 17.8678 -25.9254
3.9247 -3.9150 13.7483
-2.6195 0.7529 22.3872
-2.3463 -1.0406 22.8742
3.4315 -9.9920 -1.6452
-0.9259 0.6835 27.2147
-2.9041 0.2787 21.7990
-7.8339 4.0420 3.7185
-10.8918 -12.5782 -20.2656
-0.3327 -10.3684 -1.0597
14.6978 4.4367 -16.3238
7.2035 9.6776 -6.2421
8.3756 -0.7966 4.9502
4.9144 -19.4256 -30.6858
10.9956 15.5123 -27.5480
9.8758 2.4920 -0.4822
1.5496 -1.4928 24.1465
-0.0856 0.4400 29.3688
0.1479 3.5805 19.7568
-11.7792 12.8216 -22.6335
-0.3637 2.3294 23.5152
3.7066 12.7764 -10.0405
-13.9564 10.2269 -22.3004
-13.8948 -5.0280 -14.5571
4.0210 -2.5266 16.1843
17.3035 7.6061 -27.2027
6.5802 -6.7587 1.8248
-1.8488 18.9048 -27.4894
7.5204 -3.1100 5.7942
-1.4480 -4.4549 16.3824
-11.8765 -3.9607 -7.6379
6.0058 -3.2815 9.7620
5.3179 -16.6956 -22.9741
5.7882 4.0130 9.1507
0.6825 2.2409 23.5615
5.5504 -12.0664 -9.9747
-0.3289 9.1348 2.7206
0.7766 -9.7802 0.6656
-17.3716 5.9646 -25.5644
0.7663 4.2926 17.3751
-9.4316 1.0962 1.6341
-0.9450 -2.1744 23.4745
1.1540 -6.9467 9.1547
2.9065 0.0837 21.8289
6.0333 12.7003 -12.3620
-0.7672 -1.3738 25.9192
16.0435 -9.9303 -27.1003
16.0052 -8.1350 -24.2979
-0.0367 -0.0183 30.6171
-11.6643 -3.8113 -6.8765
-15.9282 -2.0829 -18.5034
-16.0618 11.6330 -30.0555
7.5328 6.9595 -0.6975
6.3966 -10.0991 -5.9054
9.1076 -13.3191 -18.7225
0.9694 -2.5617 22.3461
15.6284 1.3015 -17.3344
14.8004 4.6748 -16.8397
-4.8800 -12.7856 -11.2117
5.2288 -13.2885 -13.0355
7.6077 14.1329 -18.4624
-2.6489 -3.0525 18.3527
11.4424 -13.4979 -23.5049
8.2363 -2.0940 4.6898
17.9619 -4.5302 -26.0469
-12.4698 -6.6758 -12.6191
1.1143 0.3463 27.1655
-0.5327 -8.4423 4.8100
-5.3845 3.3465 11.3075
19.4447 4.2878 -30.3002
14.3635 1.7370 -13.6117
-9.1913 15.8816 -25.5107
16.4321 -8.9941 -26.6849
18.9113 3.1649 -28.0392
10.4425 -5.6262 -5.6212
-5.6015 -3.4806 10.5254
15.3434 9.6105 -24.7603
5.8714 -12.3485 -11.1749
-5.9521 -4.9445 7.0211
6.2429 -2.0550 10.5940
-5.6308 -16.2314 -21.9264
9.8385 -4.2179 -2.0736
-6.6965 8.7701 -3.0848
-4.5404 2.9401 14.1601
9.5375 -11.1189 -14.1663
-5.9999 6.6103 3.3751
2.8873 -0.3299 21.8338
9.0573 5.4641 -1.6855
15.5352 -2.1272 -17.3274
2.3368 -4.8722 14.1772
-0.3768 0.0100 29.5874
-1.1382 0.3085 27.1277
-3.0055 16.1602 -19.6486
-0.5266 -6.1457 11.8332
1.5832 11.9408 -6.1842
-11.4777 0.3158 -4.4572
-2.8995 -2.5149 18.9763
2.4779 4.2607 15.6326
-1.5147 0.6076 25.7396
9.9819 1.1523 -0.0617
7.3956 -0.5830 8.0000
2.7452 -3.8594 16.2235
-3.9136 -11.2155 -5.6732
16.2977 4.3952 -21.0056
-3.3918 14.2321 -14.1099
-0.1938 0.3734 29.4530
-19.3714 -3.2056 -29.4511
13.0131 3.6904 -10.7243
1.7641 6.0826 11.3271
6.4840 -11.5512 -9.8667
-16.1983 -2.6001 -19.5515
-1.8486 3.3986 18.8824
-10.9257 14.8026 -25.6596
-0.3414 -0.0112 29.6956
8.2720 11.3501 -12.3133
8.9782 -10.9169 -12.5891
7.5312 7.9121 -2.7446
11.8024 2.7140 -6.3838
-0.5601 -9.8345 0.5447
4.5476 -2.7044 14.5224
3.9006 -4.2783 12.9941
-7.1180 -12.3055 -12.8384
1.2199 -2.0903 23.3234
-3.6110 -8.3421 2.8757
-4.7694 5.5934 8.2081
-8.4919 -10.0445 -9.5800
8.8745 17.3524 -29.0074
7.7601 -0.8500 6.8106
1.6829 19.6731 -29.7886
-11.9449 -4.8605 -8.7919
-2.4319 14.7112 -14.9688
0.0832 -0.4216 29.4254
8.2373 -8.8468 -6.3150
0.4387 -2.8710 21.8391
14.4598 -3.3024 -14.7274
18.6388 -5.6928 -29.0033
-15.9043 9.8283 -26.5731
16.8631 8.7837 -27.5465
-6.0985 1.0718 11.7603
-0.6527 -5.4699 13.8549
17.0893 2.7979 -22.3448
-0.8478 -0.3870 27.8860
-8.5513 -13.1010 -17.2191
-0.0259 0.0001 30.6635
-3.2379 0.0415 20.8157
-14.0320 13.5506 -29.0585
15.4490 0.7757 -16.6784
3.9544 -0.9367 18.2845
2.8830 -14.4816 -14.5242
-0.3339 1.2658 26.7298
0.1878 -5.5562 13.6997
2.4042 11.1101 -4.1054
-10.9405 11.7793 -18.5418
-3.5948 -12.3676 -8.7412
-1.1070 -16.0130 -18.4650
2.9318 11.2494 -4.8960
-11.9829 4.2857 -8.2716
-3.3884 11.9900 -7.4540
-2.9869 -5.3004 12.0911
10.6473 13.8580 -22.8327
11.7107 -5.0451 -8.3483
-6.8465 15.0059 -19.8222
-17.9281 -8.6986 -30.3465
-7.1525 2.8599 7.1278
-0.4973 -10.9620 -2.8975
-16.7153 -5.4381 -23.1443
4.0386 8.0813 3.0469
-3.3654 10.9659 -4.4225
6.2339 6.7800 2.5072
-5.5057 0.4399 13.8105
0.9995 -1.4991 25.2193
12.4461 -7.0929 -13.1737
-17.2534 5.2069 -24.5066
-6.7916 4.5531 5.6761
3.1192 8.2766 3.6274
5.7008 -5.3676 6.7384
4.7960 13.5171 -13.2270
-4.9377 -11.7095 -8.2156
2.3213 14.7915 -15.1580
5.6918 -17.8308 -26.6379
-3.4111 -2.8030 17.2079
8.8061 -10.2726 -10.7369
0.9658 17.6968 -23.5904
-15.6714 7.8298 -22.9631
10.6139 0.4609 -1.8265
-9.7459 -12.2640 -17.2805
2.6694 -4.9898 13.3944
2.3488 8.5329 3.6109
-3.1017 6.4653 8.7596
11.5317 7.2433 -11.0050
-2.3595 1.1720 22.6664
8.6006 11.3134 -12.8246
-1.8295 -3.5005 18.6343
0.0292 -0.3024 29.8114
-3.8760 2.0229 17.3393
11.2709 -2.2154 -4.4713
-2.1208 17.8575 -24.3872
-8.7682 4.9962 -0.1952
-12.9008 4.1404 -10.7938
0.1346 -0.6983 28.5627
-2.2995 4.5721 15.0534
2.8499 -7.6267 5.7827
-8.2405 -3.9352 2.7475
-7.7692 15.5930 -22.6650
8.4111 -7.1332 -3.0672
8.7665 -9.7978 -9.5622
-17.7412 2.2899 -24.0971
0.8432 3.2912 20.3271
-10.5747 8.8979 -11.6252
17.4584 -4.4572 -24.4957
5.0730 -10.7435 -5.6804
6.7927 -3.8636 6.7857
-13.7962 -3.4765 -12.8740
10.1764 -3.0345 -1.8122
2.9367 -5.0665 12.7902
-5.9898 -12.6160 -12.0713
-4.0514 -8.8525 0.8969
2.2249 -8.7973 2.9240
-8.1485 -5.0477 1.3575
-0.6244 8.5926 4.3313
0.3531 -0.3996 29.1081
-12.2879 -0.9660 -7.0441
-16.3821 10.6267 -29.1202
2.5728 0.6411 22.6144
5.7508 -14.3444 -16.6347
-16.0275 -5.4154 -21.1211
1.1237 -1.2975 25.4808
0.1595 4.2945 17.5683
13.7945 -3.8138 -13.1331
-0.8778 -17.0599 -21.6265
3.0286 -13.7294 -12.3589
0.3159 8.1647 5.6938
7.9274 5.1679 1.7319
0.8505 -1.4262 25.6522
-2.0552 1.4941 22.9533
3.4680 -13.8196 -12.9371
8.3460 -6.1240 -0.9922
-8.5846 -10.6577 -11.2113
-2.5262 -2.3036 20.2620
16.8343 7.6227 -25.9097
-8.6012 13.9679 -19.5455
3.1782 4.0359 14.9945
-2.0747 -1.9176 22.0820
15.8773 -8.3943 -24.3158
-1.4628 -14.2084 -13.0456
0.0263 -0.1044 30.4129
-9.2140 -10.6819 -12.5040
2.8440 1.1092 21.3844
1.7463 -10.6819 -2.4390
5.9237 3.8904 9.0164
-10.3402 15.5540 -26.5161
5.8987 14.9151 -18.4280
0.0720 -0.2074 30.0697
-3.8302 -12.3826 -8.9926
-10.5617 -12.6192 -19.7053
5.4625 18.6621 -28.8695
10.3285 8.2349 -9.7531
-1.4551 0.0462 26.2798
7.9950 -15.5446 -22.8455
5.9033 -13.1193 -13.3607
15.4424 9.3113 -24.5387
-9.0003 -0.1003 3.1493
7.6691 -0.8290 7.0951
-2.3035 -7.1915 7.5926
4.6372 -8.6040 0.7788
-0.0592 -1.5490 25.9906
0.9027 2.7314 21.9238
4.1425 -0.8397 17.7850
-9.9194 -6.4769 -5.5753
1.2100 18.4756 -26.0185
-3.7331 -7.2197 5.8260
-11.1272 -16.2541 -29.6446
-6.6257 13.0263 -14.0604
0.3522 -10.1484 -0.3874
-3.9443 3.0634 15.4324
5.6703 1.9908 12.3195
-1.9228 3.2962 19.0441
-0.3861 -3.2913 20.5837
1.9537 -15.1354 -16.0424
0.8224 15.6623 -17.3386
8.1790 -15.6521 -23.3976
7.7811 -7.3795 -2.1332
-15.1810 1.4759 -16.0163
6.9157 17.6805 -27.4587
-5.9463 -0.8684 12.3200
-19.5575 3.6258 -30.2357
10.5850 -1.3162 -1.9571
-7.2880 -8.2455 -2.9939
0.6165 15.6239 -17.1920
7.3190 -2.5679 6.9642
-4.0336 1.7256 17.2930
8.1573 16.4834 -25.6392
-11.4091 3.9454 -6.2659
6.1306 -3.5093 9.0871
0.1085 6.0463 12.2039
1.3363 1.0720 25.4909
-2.8807 -10.5062 -2.6545
8.1321 5.0672 1.3689
1.0202 -2.3054 23.0143
0.9870 -1.8027 24.4422
-8.6145 3.3336 2.4253
-7.0261 -1.1591 8.9121
2.5190 0.1750 23.0019
2.8014 5.7994 10.9982
5.7666 6.8436 3.3074
-4.2741 5.4836 9.4287
-13.2916 -8.7829 -18.0972
7.5100 15.0256 -20.7539
14.6635 9.8197 -23.3595
-9.0400 -10.9989 -12.9036
-1.7170 -3.4577 18.9076
6.1010 -17.5251 -26.1459
0.6850 2.5044 22.7830
8.8688 -4.7984 -0.1704
-16.8507 9.1961 -28.1080
-7.2502 -13.6982 -16.7707
-0.0743 0.0722 30.4254
2.5949 -17.7761 -24.3304
-6.7664 3.1455 7.8675
-15.0576 -4.4840 -17.4220
5.6734 6.2397 4.8891
-2.5216 7.8440 5.4837
-5.8403 -0.1791 12.8301
-3.8664 1.4235 18.1118
-0.6543 1.2035 26.5434
-5.6284 4.0289 9.5230
2.4294 6.1949 10.3432
1.7987 4.4902 15.9138
-4.6827 7.6811 3.1642
5.2861 -3.3340 11.5833
14.1927 1.8156 -13.1217
-4.7140 17.1406 -23.7557
-11.6807 5.0218 -8.2354
-2.4314 -17.5919 -23.7007
13.9208 7.1438 -17.2251
-5.0342 12.7743 -11.3501
4.7069 -4.7392 10.2658
2.8769 6.5290 8.8701
0.5023 -0.4092 28.7568
6.4535 9.9865 -5.7086
9.1040 9.0251 -8.5570
3.2679 -0.0806 20.7216
-10.7498 10.0574 -14.3870
-7.4484 -3.2222 5.8635
8.3700 -1.3057 4.7728
3.9309 -8.1521 2.9976
18.7789 -5.1536 -28.9558
-0.0373 -0.0211 30.6115
-2.2315 1.9755 21.6063
-15.6908 5.3309 -20.0603
3.6656 12.0689 -7.9255
1.4673 -13.9966 -12.4012
-0.3469 1.3290 26.5321
-15.4615 -4.5681 -18.6826
-2.5149 -5.5067 12.1838
14.4271 -5.2655 -16.3396
-15.8082 -2.9492 -18.5560
-5.4417 17.7108 -26.0577
2.3801 -0.5403 23.2606
6.5571 9.8561 -5.5485
-11.9978 -1.2790 -6.2469
-8.9462 -5.9843 -2.2534
-3.3141 8.7539 2.0475
-6.4345 -18.8179 -30.2259
1.1919 0.6354 26.6021
-1.1734 -1.5524 24.7771
-0.2575 -3.3869 20.3299
-4.2728 -2.7517 15.1625
0.7224 -0.9089 27.1835
12.8944 -4.3024 -10.9294
1.0965 2.4139 22.6149
4.4352 -0.1263 17.1406
-2.0123 -14.3375 -13.6420
1.8684 -6.2452 10.7588
0.6980 7.9594 6.2482
-12.4067 9.0319 -16.3031
5.6974 1.7429 12.4776
4.0752 -1.8244 17.0547
-13.0430 -6.3915 -13.7855
-0.3263 0.4441 29.0535
18.8640 -0.7484 -27.1333
6.1980 -7.1158 1.8134
-2.8954 3.2066 17.4979
-9.1408 -17.6037 -30.0661
-5.9581 -4.2480 8.3101
4.7987 -0.9198 15.7639
1.6456 -12.6146 -8.2569
6.7510 0.7998 9.9019
-4.0171 0.1911 18.4138
8.9821 -14.6321 -21.8917
4.3913 7.3317 4.5430
-0.1066 0.6323 28.7770
-8.3850 3.7658 2.5639
6.9849 -15.2611 -20.7102
8.7023 0.3362 4.0446
5.9800 -1.2413 12.0193
-0.6423 -0.2115 28.6697
11.3074 9.8111 -15.1517
9.0025 2.4179 2.1661
-4.5419 -8.5830 0.9732
11.8836 0.2366 -5.6955
-5.1562 -13.0974 -12.4090
-4.7089 -2.6927 14.1133
6.3071 -2.2663 10.1969
-6.0831 -10.1790 -5.6105
-1.0836 0.6402 26.8843
-0.9321 -12.3157 -7.1211
12.1829 9.7196 -17.0358
-8.2566 -4.5331 1.8669
3.8614 17.9937 -25.6758
5.3988 -6.6457 4.4938
6.2301 -4.4810 7.2161
-1.8294 1.4495 23.5873
-2.2337 17.2479 -22.5751
13.9090 -2.3056 -12.4793
10.0421 -14.9215 -24.3963
5.8276 2.3519 11.4772
-6.0374 -3.3784 9.5336
2.7792 -5.6654 11.3975
6.1818 1.0319 11.5291
10.4808 0.9053 -1.5073
-0.9082 -0.4746 27.6015
-2.6164 -2.4896 19.6707
14.3322 -8.6324 -20.5493
9.6974 2.2627 0.2153
-2.2224 17.2988 -22.7254
-0.0757 -5.2181 14.7443
5.1418 -5.0393 8.6718
-12.8387 -11.7611 -22.6347
3.2479 5.9774 9.8877
-0.9461 -0.0645 27.8356
10.8529 11.7251 -18.2371
11.8844 7.4081 -12.1896
1.4006 -6.2508 11.1049
-1.4865 -18.6066 -26.4806
5.4325 12.8988 -12.1645
1.5772 7.6716 6.7324
2.6114 -5.6693 11.6074
-10.5988 -6.4769 -7.3364
-15.4458 -9.2362 -24.4292
1.2990 2.1259 23.1052
4.2426 4.1749 12.4954
-14.6917 -0.6512 -14.3414
16.6439 9.5533 -28.0897
8.5188 -11.3478 -12.7576
-0.1828 -14.9235 -15.0112
11.9504 -6.4373 -10.8703
-3.8597 0.3976 18.8475
1.9496 -2.1999 21.7314
3.8553 -16.5761 -21.4303
10.2968 -11.0881 -15.6460
-8.6294 -4.7259 0.5806
-4.5917 -12.7111 -10.6899
-10.6281 -10.7376 -15.5733
-3.4484 -3.4891 15.7037
-18.2450 -0.9631 -25.2682
1.1234 -4.1906 17.4423
1.2182 11.0786 -3.4252
-0.8268 4.5500 16.5657
0.0003 -4.1529 18.0113
15.7807 7.3194 -22.5862
-14.5888 -3.5472 -15.2848
2.7550 -9.0664 1.6934
-0.9720 -9.0743 2.7649
-5.0406 1.9388 14.1863
12.3164 -0.8115 -7.0970
3.7605 -3.1607 15.6832
-2.4272 2.9054 19.1367
-5.1157 13.6931 -14.0697
8.3222 4.9729 1.0218
-4.2052 0.4025 17.7920
-2.7748 6.4985 9.0804
10.0761 0.2576 -0.1573
0.0898 4.9328 15.6182
-15.4181 -4.6122 -18.5935
-0.2437 0.0597 29.9737
10.1193 7.7387 -8.3115
-17.2288 6.2805 -25.4749
-13.2133 -4.7843 -12.3384
-0.5134 7.6533 7.2277
7.0704 -10.3655 -7.7229
-3.8042 -2.0573 17.4842
-0.9288 4.7366 15.9456
-10.4016 3.5760 -2.9767
-0.0134 0.3781 29.5831
0.6902 1.8272 24.7549
-15.2146 -7.9910 -21.9420
-0.0067 -0.1658 30.2342
5.2874 4.1414 10.1531
3.7906 -2.3661 17.0441
4.2776 0.4261 17.5643
-2.7754 1.6445 20.8530
0.5281 3.2207 20.7373
-7.7732 -17.2104 -27.1505
14.7658 -7.8443 -20.5154
-1.7790 -18.3084 -25.6489
-15.0748 -9.7744 -24.3359
-13.0538 14.0897 -28.1404
0.2358 -5.4894 13.8988
-1.9005 -16.2637 -19.4555
1.4157 1.9862 23.2654
-9.7289 -9.6627 -11.2936
-6.7999 -2.8524 8.1368
9.1050 -16.4167 -26.8076
18.6021 0.9044 -26.3524
-11.5977 -4.0249 -6.8922
-3.8932 2.2048 17.0265
-1.7501 15.0543 -15.7194
-6.3373 0.0554 11.3142
3.3759 -12.4908 -8.9239
9.0515 -7.7528 -5.7934
-3.4437 -15.6456 -18.3696
4.0331 0.4804 18.2913
6.3522 -2.5007 9.8144
-16.5589 -3.9181 -21.4231
-2.8738 3.8819 15.9359
-6.1924 0.0610 11.7581
0.0617 1.9946 24.6252
-0.3532 12.6621 -8.0902
-15.2483 -11.4080 -27.6381
-1.1667 9.7430 0.6607
11.7659 9.3216 -15.2758
-5.4072 3.9344 10.2426
9.2052 7.6660 -5.9817
0.3504 -15.3686 -16.3845
-5.5716 7.1140 -30.7429
-2.9166 -3.2340 -30.7429
-1.4428 -16.1022 -30.7429
-16.5291 3.7848 -30.7429
14.0638 -0.8375 -30.7429
12.9508 -4.9627 -30.7429
-11.1845 8.3316 -30.7429
-7.4385 1.1258 -30.7429
1.9105 4.3531 -30.7429
-2.0256 -15.4181 -30.7429
-9.8207 -6.3087 -30.7429
-15.3894 -9.8025 -30.7429
-6.2511 5.8468 -30.7429
-11.9777 15.0232 -30.7429
-13.7321 -7.4506 -30.7429
-7.0588 -4.1666 -30.7429
3.6093 -4.8417 -30.7429
10.6166 12.3610 -30.7429
-1.0698 -0.2369 -30.7429
13.2529 7.4644 -30.7429
2.2624 -6.5420 -30.7429
-0.0349 -0.0183 -30.7429
-11.9011 -6.5558 -30.7429
4.5574 -4.8854 -30.7429
-2.3122 0.0095 -30.7429
0.7547 -4.2858 -30.7429
-14.4219 1.1089 -30.7429
-6.6254 3.1408 -30.7429
7.6711 9.5791 -30.7429
0.3286 -1.7869 -30.7429
3.7371 4.3508 -30.7429
-1.6683 -10.5146 -30.7429
4.0597 15.8569 -30.7429
-0.1938 -13.4229 -30.7429
-0.7628 -9.0750 -30.7429
3.3223 1.3507 -30.7429
3.0601 -0.3741 -30.7429
-2.7124 -5.3137 -30.7429
-3.5060 4.6504 -30.7429
-18.5325 -4.7766 -30.7429
-0.7211 -0.1762 -30.7429
-14.4989 0.3225 -30.7429
-6.9429 -17.2332 -30.7429
-2.6945 4.0750 -30.7429
4.7636 -15.1776 -30.7429
1.4328 -2.6578 -30.7429
-12.0770 -7.4845 -30.7429
-8.9960 -17.7644 -30.7429
12.6649 4.2151 -30.7429
-12.8160 -7.3337 -30.7429
-6.8785 -5.1693 -30.7429
-8.6074 4.3069 -30.7429
-2.1260 0.4418 -30.7429
18.7369 -5.9942 -30.7429
-2.4235 -4.1048 -30.7429
0.6151 -1.5766 -30.7429
1.4334 12.6500 -30.7429
13.3147 3.0925 -30.7429
3.9496 4.9206 -30.7429
-0.3768 0.7745 -30.7429
6.0521 15.5855 -30.7429
1.2197 -4.3857 -30.7429
6.8561 -12.8189 -30.7429
-10.9667 -5.5885 -30.7429
-10.5009 -16.3210 -30.7429
-9.0919 -4.0000 -30.7429
15.1306 -9.7364 -30.7429
7.1401 3.6387 -30.7429
14.0681 -7.6801 -30.7429
-9.9966 -9.9018 -30.7429
6.8995 12.4526 -30.7429
11.2133 -0.1088 -30.7429
17.8377 1.5546 -30.7429
-12.2053 -14.8252 -30.7429
0.4138 -0.5266 -30.7429
6.1898 -3.2223 -30.7429
-5.2215 6.2151 -30.7429
-5.1585 -8.9680 -30.7429
2.9419 6.7182 -30.7429
-6.6045 -9.7052 -30.7429
-5.1584 -13.5946 -30.7429
-17.3977 7.6714 -30.7429
-5.1743 18.7882 -30.7429
8.6124 10.9798 -30.7429
8.6929 6.1496 -30.7429
-1.8853 -11.0497 -30.7429
2.9947 -0.9129 -30.7429
-3.7523 -3.5657 -30.7429
-15.2676 8.8647 -30.7429
-1.4613 -15.2702 -30.7429
-1.4535 6.2227 -30.7429
8.8890 -2.9283 -30.7429
1.2648 -4.0070 -30.7429
8.1737 2.9888 -30.7429
9.7005 -2.1513 -30.7429
-2.3963 -1.3237 -30.7429
2.6566 2.8401 -30.7429
1.2399 -1.4209 -30.7429
1.7264 -13.1671 -30.7429
-2.9209 -0.2691 -30.7429
-18.5276 -7.5005 -30.7429
4.9605 -2.3236 -30.7429
-14.0619 -5.6997 -30.7429
-5.9934 13.3503 -30.7429
6.2455 14.6183 -30.7429
1.0227 1.2319 -30.7429
-8.3654 -2.0112 -30.7429
-0.3806 6.8183 -30.7429
2.9777 4.6569 -30.7429
-2.0183 0.0865 -30.7429
-5.9702 -15.0311 -30.7429
7.2799 16.1149 -30.7429
3.6840 18.8759 -30.7429
-2.4513 0.7689 -30.7429
-6.5436 6.0075 -30.7429
8.4743 -12.8819 -30.7429
-0.5876 -2.1381 -30.7429
9.2922 -8.3334 -30.7429
10.8692 -6.4251 -30.7429
-3.5765 10.8703 -30.7429
1.4313 18.0793 -30.7429
15.2720 9.4392 -30.7429
6.4538 6.0475 -30.7429
10.6475 0.1788 -30.7429
13.3525 -2.3565 -30.7429
3.3107 3.1820 -30.7429
1.9381 -2.5943 -30.7429
8.9946 -6.6124 -30.7429
-0.7932 1.6292 -30.7429
-16.5815 -1.1423 -30.7429
-4.5938 -0.4155 -30.7429
-7.8927 12.4675 -30.7429
12.0519 4.3022 -30.7429
7.7959 -5.2593 -30.7429
0.0477 0.1609 -30.7429
-4.4135 -15.1256 -30.7429
-1.9376 3.7906 -30.7429
0.4323 -7.2712 -30.7429
9.8336 13.8105 -30.7429
7.3282 2.2956 -30.7429
2.3615 -5.7906 -30.7429
-1.9076 -0.4553 -30.7429
-0.7752 9.9708 -30.7429
-1.4811 2.4000 -30.7429
1.9771 -5.0219 -30.7429
-11.8319 4.1163 -30.7429
2.4921 -7.6481 -30.7429
5.6704 -1.0955 -30.7429
-15.7592 -7.5112 -30.7429
1.5099 -2.8104 -30.7429
-1.8120 -0.4976 -30.7429
-7.0485 0.7212 -30.7429
-2.5049 -0.8109 -30.7429
7.3434 -12.3968 -30.7429
7.0515 -3.6222 -30.7429
9.6955 4.1871 -30.7429
-1.2856 -9.4568 -30.7429
-14.5180 -1.2007 -30.7429
-14.1304 7.6427 -30.7429
-5.3938 6.0928 -30.7429
1.2597 -8.9006 -30.7429
-18.1087 -0.3072 -30.7429
-6.5606 3.3060 -30.7429
-0.8570 5.0970 -30.7429
-3.5739 -7.9629 -30.7429
5.0831 -5.0995 -30.7429
-10.8189 -0.7227 -30.7429
4.9604 -9.0730 -30.7429
-15.0136 -1.9757 -30.7429
-1.6224 0.4479 -30.7429
-0.3595 -5.2316 -30.7429
2.4524 0.4591 -30.7429
-4.1779 3.8673 -30.7429
0.4801 0.2144 -30.7429
-4.7383 15.4984 -30.7429
-7.9378 -7.4941 -30.7429
-11.0305 12.2321 -30.7429
7.6106 3.3172 -30.7429
2.5482 -16.9652 -30.7429
-1.5062 -13.9216 -30.7429
5.3681 17.5662 -30.7429
-1.5102 -0.4383 -30.7429
-5.9508 -15.0098 -30.7429
-4.0654 -13.7444 -30.7429
-0.6725 -16.5955 -30.7429
1.5905 -0.6220 -30.7429
7.1035 -1.8139 -30.7429
-0.1737 -12.8209 -30.7429
-18.2934 1.2064 -30.7429
-3.7582 -6.5945 -30.7429
3.3277 8.7413 -30.7429
-0.9919 3.3589 -30.7429
4.8647 0.7632 -30.7429
1.6340 -0.5517 -30.7429
7.7921 0.5706 -30.7429
16.6728 0.7901 -30.7429
0.3539 -8.8151 -30.7429
1.0346 13.3659 -30.7429
-15.5072 -6.0858 -30.7429
3.5604 -3.5762 -30.7429
-0.5680 -4.4632 -30.7429
12.4494 -8.4598 -30.7429
-0.0011 4.1290 -30.7429
17.3415 1.7371 -30.7429
6.0717 -2.5142 -30.7429
2.1522 -9.6236 -30.7429
-9.5042 11.9577 -30.7429
-0.9112 -11.0656 -30.7429
-3.2151 2.2297 -30.7429
-0.2984 -12.3790 -30.7429
4.9217 -12.2547 -30.7429
-3.2025 -6.1072 -30.7429
-7.7972 3.8256 -30.7429
-11.9635 4.0987 -30.7429
1.6142 -9.2443 -30.7429
3.1352 -4.7406 -30.7429
0.0443 -0.2535 -30.7429
-0.9102 1.1930 -30.7429
7.9844 1.8899 -30.7429
12.9530 -12.5175 -30.7429
19.8073 0.5124 -30.7429
-10.5106 -8.0245 -30.7429
3.0523 -4.2652 -30.7429
3.1951 12.0668 -30.7429
2.4609 17.6587 -30.7429
-5.0980 5.9228 -30.7429
-2.6147 3.4092 -30.7429
-3.2986 -11.9338 -30.7429
-2.3735 -1.5197 -30.7429
0.3732 0.7253 -30.7429
5.2816 -16.6334 -30.7429
2.2389 -1.5486 -30.7429
-12.8487 2.7248 -30.7429
0.1854 -0.8614 -30.7429
6.4000 12.3505 -30.7429
5.9447 -10.7822 -30.7429
12.3086 -11.7218 -30.7429
7.5434 -16.6404 -30.7429
11.3907 -15.0840 -30.7429
-1.3195 -1.1461 -30.7429
2.8829 -0.4057 -30.7429
-1.7141 0.2942 -30.7429
-0.9136 18.4639 -30.7429
-3.3156 6.9380 -30.7429
-0.2402 0.6850 -30.7429
-2.5283 -0.9929 -30.7429
12.5702 13.8358 -30.7429
17.4726 2.5322 -30.7429
2.5087 9.8482 -30.7429
-6.1935 -1.2598 -30.7429
1.5526 -13.5743 -30.7429
-1.0671 -1.0203 -30.7429
12.4964 7.2094 -30.7429
0.1803 6.2985 -30.7429
12.3340 -1.7905 -30.7429
-13.3777 3.6884 -30.7429
