ply
format ascii 1.0
element vertex 1024
property float x
property float y
property float z
end_header
-5.7529 32.5492 0.2302
-11.2020 2.9859 57.4487
-14.1078 44.5504 -36.2356
0.6359 -36.3913 -8.6833
28.7569 0.7794 11.6582
64.1932 1.0244 -82.8157
-4.7816 66.0032 -88.0811
-36.0442 -45.5090 -66.4252
36.0664 -40.6175 -56.4677
12.5479 49.7076 -48.3298
-3.7094 -4.0085 73.7968
30.2547 -12.8839 0.6835
51.0892 -17.3586 -55.5039
42.9125 19.9369 -37.8004
-53.2511 30.6468 -75.4539
-1.4292 1.0691 83.5996
29.6399 -4.5298 8.4146
-6.2475 -19.8323 32.9196
-22.7380 3.7451 26.9172
21.7296 57.9959 -76.7678
-12.2274 52.4709 -55.2883
15.8611 14.8599 30.4095
-20.8437 3.5221 31.9968
-7.6485 -47.8616 -40.8698
-0.4786 -3.5505 78.8062
-4.3278 2.5948 74.9043
18.7008 -55.4324 -67.6197
12.3440 -28.2077 6.2648
-17.8783 5.0759 38.8070
55.2587 30.9422 -80.4978
-3.3616 35.5231 -6.7768
12.1310 4.7858 53.5886
0.3784 20.4129 33.9240
-31.8245 0.0870 3.5073
-57.6807 -12.1129 -68.7847
-46.8529 46.4105 -87.4724
-22.7781 -21.4482 4.9411
23.1311 54.0906 -68.4917
25.4952 -19.3471 3.0266
46.7173 -23.3609 -50.9045
24.4524 36.7664 -29.3687
4.6664 6.9797 65.9731
-20.4639 -62.1036 -85.9802
-10.2719 -29.2208 5.7762
-21.4888 -20.4183 9.3253
-19.8391 -7.2055 32.0824
19.8458 4.5879 34.0496
-12.0265 10.5553 45.6946
3.0484 23.0280 26.4253
11.1904 31.4057 -0.5326
22.9443 -28.9721 -10.1768
-5.5009 -9.4920 59.1079
55.3968 -19.3545 -68.0960
-55.9764 11.2946 -63.8940
-47.8078 21.3901 -51.2837
-26.3416 44.2878 -49.0299
48.8930 -31.5741 -66.8196
-40.9141 48.0922 -79.9894
-0.2948 27.4290 15.2228
-5.8308 18.8462 35.7604
-4.4745 3.5241 73.1724
5.8879 -45.3924 -33.6810
-1.7160 1.4672 82.3386
20.7230 -39.9359 -31.6008
19.5407 18.4691 16.6702
4.5751 44.7935 -31.6916
0.5341 0.0974 86.9108
-5.8051 -6.3180 65.4821
13.8869 -3.8287 49.9515
-36.7158 -20.5400 -23.8108
-9.5204 5.0585 59.6142
-1.9887 -0.5444 82.8607
14.6193 16.2118 30.1551
20.9523 -15.0411 19.5911
-10.2342 -1.8797 60.6154
-0.9685 -7.3424 68.6124
46.3342 11.9910 -39.2481
32.8369 -29.5664 -29.4516
-7.2175 55.0732 -59.7339
4.2181 0.4866 77.0373
-19.8886 -34.2093 -17.1452
-31.4577 26.2958 -20.9580
11.3331 -27.6794 8.6129
0.6645 -18.8127 38.1684
-31.9121 6.0665 1.7504
11.8704 55.8743 -63.9388
24.3552 24.6606 -4.0526
-0.0071 -0.1481 87.9628
7.9108 15.5273 41.8960
-1.3599 11.7837 56.7319
1.9626 -15.2304 47.4150
-8.4679 -6.8887 59.2537
19.1753 12.2220 27.7311
-30.3375 -36.6069 -38.4036
44.2414 -21.5516 -42.8496
-18.6264 -25.0207 5.1923
-10.1178 -22.0379 23.7040
37.9097 24.4528 -31.9193
47.7807 -38.7615 -75.6826
30.6133 -16.7143 -4.6361
-33.4859 22.0074 -18.4773
45.4358 -40.2383 -73.4592
7.7776 36.1980 -10.3556
8.1901 -15.9930 40.4515
37.1009 36.1120 -49.6819
-19.2669 -37.1530 -23.2268
17.6012 -60.9998 -80.9149
-25.8239 -18.9488 2.9593
-43.8688 1.5947 -28.6823
-6.4746 -31.6969 2.1029
18.6208 -36.1563 -20.0751
-43.1477 46.1703 -80.1286
0.0219 -0.1509 87.9515
46.0996 9.8259 -37.3136
29.5537 -6.5358 7.6582
-2.3166 -8.5087 64.8465
-46.5171 5.8458 -36.6414
34.5788 -41.2372 -55.1272
11.3597 -11.7630 44.7585
30.3619 11.2108 2.0652
-58.9491 10.0189 -71.0659
-8.5536 -6.0185 60.4729
24.1057 -46.2323 -50.6559
32.6660 -24.1878 -20.0130
5.8071 -33.2030 -1.5115
-17.8542 8.3475 35.8093
-26.9295 1.7987 16.3986
-9.3675 -40.4422 -22.3237
9.7046 27.0293 11.7883
-0.8210 0.8600 85.1882
1.0965 -1.2667 83.8913
-15.1521 10.9134 38.5715
-3.6518 13.8093 50.2742
-13.8978 24.1250 14.1264
14.6448 14.6251 33.1759
-41.3184 -5.8088 -22.8884
-33.5775 -38.6955 -48.2386
47.6901 23.9263 -53.8986
4.0404 -53.8834 -55.7091
2.6748 -10.8298 58.6161
-13.8332 11.4779 40.4334
-12.7909 27.3312 7.9025
-8.2385 2.4379 65.4513
11.9821 -3.2123 55.2832
-49.0117 35.1214 -72.4042
-9.0714 -53.4463 -56.1786
-27.7711 34.9504 -30.6622
17.3451 -6.5202 38.9530
48.0188 44.8648 -86.8553
1.5683 -3.1797 78.9053
27.0074 10.2568 11.3331
41.5435 6.6999 -23.8364
-45.3354 -32.5402 -60.4283
38.5125 22.3888 -30.4141
-0.6230 12.6674 54.5435
-51.8675 14.9728 -55.5778
13.9939 -15.7479 32.1888
-13.1559 10.4820 43.5095
10.7006 4.8189 57.0685
-29.4562 22.7554 -10.8831
22.3466 27.7783 -6.6950
14.6964 15.2878 31.8182
28.5686 -43.0251 -49.3409
13.6831 46.6071 -41.1505
9.9027 -0.6142 61.9047
3.0063 0.7955 80.0670
4.3337 -9.7593 59.8877
-0.0032 -61.0452 -74.4009
-3.7506 49.1189 -42.9839
4.5605 48.6262 -41.8582
-18.3867 56.6926 -70.5468
-18.8846 17.9871 18.8237
-8.3571 61.4321 -76.9408
-3.0165 -2.1455 78.4889
-2.6357 -31.5867 3.8490
-35.9091 30.5449 -37.3344
8.1914 22.3270 24.9499
38.7368 -32.8130 -46.9956
-7.9071 -9.7848 54.8166
18.3676 17.0129 21.6067
-0.6832 -57.6846 -65.4514
-25.6429 -19.3054 2.7796
-3.4688 2.4543 77.0287
3.3655 -57.8805 -66.2235
-6.9575 56.5608 -63.5811
38.2715 -53.0459 -86.0404
22.7404 -17.7419 11.4577
-41.2747 44.9675 -74.3823
27.2157 27.8563 -15.4757
-18.6055 -10.2474 31.7257
-12.0439 3.8361 54.6571
-9.3642 -20.3462 28.6413
3.1252 -6.3525 69.4823
14.7978 -1.9624 48.5588
24.2924 -7.7719 20.3556
13.6823 -24.2146 14.2035
-3.7949 0.8140 78.0100
-2.9277 -8.8747 63.4422
-2.3434 9.3738 62.5966
-17.1385 14.4068 28.6635
-0.5698 13.0692 53.4800
17.9889 16.6729 22.9636
-5.5619 -0.5927 73.4449
18.4657 -15.7229 23.6956
55.5011 -5.0617 -60.2333
-8.2841 52.0237 -52.0950
-30.4926 44.1853 -54.7784
5.8911 14.5003 46.6285
46.5321 -27.4482 -55.6818
41.8596 19.7630 -35.0615
-7.7171 -36.1041 -10.0772
2.4854 3.1164 77.7304
-5.8817 42.0503 -24.8478
39.9986 48.6388 -79.5410
65.4176 -1.2046 -86.0880
10.0952 -34.6010 -7.7415
-42.9672 9.4403 -28.9334
5.2347 17.8064 38.8738
-55.6167 -0.3092 -59.9296
1.3837 0.2469 84.6108
-4.6803 -3.6857 72.4747
0.7144 -2.8752 80.4591
-61.9861 -11.2980 -79.6321
-9.2478 -8.0237 55.7147
-2.8562 2.8494 77.6015
-0.0967 -0.2775 87.5746
-15.7836 1.6415 46.0490
22.9674 -10.4026 21.1341
63.7121 -2.0606 -81.6001
-43.8684 29.6719 -52.8464
-2.6918 3.1180 77.3757
9.3299 -30.3488 3.7048
0.8308 0.9983 84.8954
-31.7449 -1.2707 3.6522
37.7966 45.0498 -68.4287
52.5594 3.2475 -52.0432
-55.7942 22.5124 -72.0533
-48.0443 -34.3822 -69.1600
16.9647 -5.6601 40.6758
-37.4153 41.0127 -59.6569
0.8302 0.4901 85.7878
-32.2128 -10.1182 -1.6650
47.3333 17.7791 -46.4510
-57.6490 -4.1837 -65.7501
-9.7541 -7.7425 55.1547
28.6385 -30.3023 -22.8065
52.2357 6.0200 -51.8347
30.2543 26.7032 -19.2319
-37.7302 -23.2282 -29.7735
-30.1482 51.9472 -71.7788
13.4229 -56.0579 -65.3287
-46.6611 -16.8651 -43.9267
12.0182 6.2433 52.2494
7.8909 11.5369 51.0918
-3.5113 -47.3886 -38.3357
-15.3779 -20.5553 19.9141
43.2546 -23.7508 -43.2091
37.9608 -15.3768 -20.8412
-36.5054 -29.4314 -36.6652
7.0373 1.8177 68.9794
57.0476 0.8348 -63.7586
44.4068 4.2666 -30.5847
5.1169 0.0340 74.7151
-16.7746 -57.6518 -71.7277
11.2083 10.6878 47.0661
-14.0205 -13.4742 36.5125
0.1031 0.0294 88.0722
-44.5200 -45.6226 -81.5996
13.3679 4.2793 50.9349
-40.6049 44.3942 -72.0489
-31.3043 -47.8997 -64.2069
-2.4020 -21.8870 29.6526
-18.7992 -46.7809 -46.0634
-42.7766 -28.7700 -49.0885
-1.7164 -0.3530 83.6861
28.7477 -37.4096 -37.4322
10.4483 2.3000 59.8340
6.7698 -23.7163 22.6001
-28.6551 -45.4216 -54.8305
37.7398 1.0078 -12.2997
1.1564 -0.0477 85.2722
-44.1614 -47.9590 -85.4631
-60.4939 9.1292 -74.7571
-11.2065 -1.9117 58.0478
-19.4025 7.9042 32.4993
-7.6037 1.4153 67.7369
18.8142 35.8018 -19.4746
-61.3072 -4.2464 -75.4910
-24.1659 -2.0311 23.6998
3.0712 4.6811 73.4309
17.8136 2.7630 40.2955
-13.6585 5.5237 49.0767
-21.0532 -53.3599 -64.5833
-28.9733 25.3162 -14.2254
0.9209 1.5452 83.5622
2.7902 17.8761 40.1197
42.7991 0.5133 -25.7610
-12.8075 40.8911 -25.8883
15.9633 38.5370 -22.8556
1.7245 5.7060 72.4652
27.4105 43.4859 -48.6951
-12.1790 -26.8039 9.8622
39.8565 2.2162 -18.0714
0.0251 -8.9604 64.4678
-3.8302 -10.6210 58.2553
39.3434 36.2270 -54.2352
-51.7972 19.7187 -59.4124
26.9757 52.0836 -68.0275
25.0751 29.3262 -14.5168
17.4955 -1.2817 41.5866
-3.1887 3.2590 76.2017
6.5447 6.8313 63.1349
-52.8309 37.4561 -84.3094
-57.2039 -4.9338 -64.7252
54.4792 10.8619 -59.7532
-21.8502 -0.6996 30.0713
-27.5207 3.1041 14.5172
45.4095 -44.1341 -80.4746
51.4707 1.4269 -48.9258
-41.9524 22.6977 -38.8169
36.0225 -35.6665 -46.7981
-19.0963 5.9164 35.0560
-2.7463 4.5218 74.2527
16.9248 -0.8707 43.1736
6.0802 -15.4377 44.1209
-31.8906 -28.7381 -26.0990
-30.3832 53.6316 -75.9865
26.2858 -40.5972 -40.5901
1.1058 -64.4022 -83.3764
14.0370 5.3530 48.3037
-9.7752 16.4893 37.2496
25.1937 -8.4923 17.4732
0.5298 0.7815 85.8409
30.0078 46.3674 -58.8974
15.8360 2.7256 45.5154
1.8877 11.1764 58.1376
46.7509 4.8647 -36.9623
18.6286 24.3594 6.5965
2.5531 30.7265 6.1526
54.4975 -32.3002 -80.5470
54.3767 5.2456 -57.2943
-41.1469 2.0072 -21.4782
-5.2091 -29.1248 9.4732
-10.9812 -40.5546 -23.6624
-1.0015 3.6319 78.3133
11.1926 47.1979 -40.9711
25.7651 16.1091 7.3415
30.0814 -18.0540 -5.1811
51.3103 -28.5544 -68.2027
-48.3117 19.1519 -50.2027
-60.3120 -25.0831 -85.7982
3.7833 26.2955 17.5270
-22.4556 -8.2483 24.5759
30.6330 -32.0031 -29.7573
39.4749 3.0176 -17.1969
-17.8490 2.2517 40.3918
14.6926 -2.4936 48.6247
-46.6545 11.5017 -39.7564
-10.4223 17.3241 34.4542
-8.7103 1.7382 64.6767
-8.4308 37.3044 -13.6114
9.1151 37.4349 -14.3669
32.3749 -53.6728 -78.7619
-51.4887 35.4074 -78.2480
14.3965 1.1711 49.8475
11.6409 15.7651 36.1081
-32.0727 -32.5822 -33.5389
30.8881 27.6043 -22.0907
34.2901 11.2068 -7.8251
10.0623 -18.1171 33.1041
43.8598 -33.0067 -57.9948
-24.8793 14.6289 11.4077
-14.2654 -35.8820 -14.5939
7.4641 3.1756 66.7311
-2.6322 6.4770 69.7178
65.6592 -4.6498 -87.1411
0.5441 4.2473 76.9414
18.2073 26.0720 3.5723
2.5761 -3.3857 77.0153
-29.1559 19.5738 -5.2708
-55.2469 28.3436 -77.1952
-5.9866 -48.6614 -42.3611
4.2469 -25.3212 19.9036
26.7306 7.1814 14.5618
-43.3975 -0.5754 -27.3586
-5.1692 2.6196 72.9074
2.9797 3.3261 76.4520
-16.0797 40.1903 -27.0555
-2.7456 65.3617 -86.0632
9.7752 65.4779 -88.1540
0.3336 18.6789 38.5485
24.9396 -35.0122 -26.2526
56.6523 -11.7373 -65.8961
34.7129 9.0900 -7.3140
-27.7307 -31.9441 -24.4261
43.4398 -24.8888 -45.1243
18.2454 -3.9311 38.5959
30.2049 38.8023 -42.7463
-4.7670 33.1498 -0.9350
-37.4791 -26.6585 -34.2687
11.2664 5.9598 54.3758
-54.6808 2.5824 -57.5944
33.8823 14.3271 -9.7232
45.6839 17.4152 -41.9945
-26.1965 34.2028 -26.5081
-46.6351 15.9118 -43.0188
27.4546 58.3614 -83.6029
-4.9154 -1.0180 74.9746
23.3666 -42.5422 -41.0513
16.1238 -6.7580 41.7455
-39.1193 -37.6393 -56.3809
-27.8726 -4.6507 13.0168
14.5287 -15.9613 30.8122
11.3602 -5.9160 54.2085
3.8359 16.3963 43.4620
-7.3841 -9.0731 57.1686
-12.0979 10.7034 45.2907
-12.7243 -19.4227 26.4501
-1.7302 2.8029 79.5760
-14.5174 -42.8405 -32.2434
47.4750 -6.6134 -39.4422
-29.7909 -25.2852 -15.8231
-38.4867 -39.2935 -58.2880
11.0363 55.8531 -63.4369
-37.6994 10.1762 -15.7537
-14.2102 56.7491 -67.6180
-3.7758 25.8436 18.7224
-22.1879 -57.0532 -74.8555
-2.9696 -14.1703 49.7566
-51.9119 -8.9394 -52.0866
3.2138 -9.8050 60.8476
9.7743 3.9574 60.2429
-4.3587 2.9832 74.2757
26.0149 -23.6859 -5.4451
-3.2327 -3.4189 75.8131
-23.4634 -38.5599 -31.9877
-35.6701 -15.6544 -15.5011
-3.6890 10.1705 59.5128
-25.6087 -5.7937 18.3547
65.4128 -5.0800 -86.5709
13.2880 8.5015 46.2993
2.6676 -5.6243 71.7615
-33.8117 3.9205 -2.3946
-2.3410 3.3053 77.5592
-27.2812 -53.2284 -71.1141
-10.5745 2.8330 59.1701
18.5767 -1.5056 38.6666
29.0225 29.1491 -21.3123
-0.2060 -2.3269 82.1299
-2.2639 -44.7445 -31.0924
-26.7558 27.3035 -13.5646
9.8321 -3.0505 60.9109
-62.3129 -22.4878 -88.2685
-60.9930 -0.5251 -74.2677
12.4403 -15.4414 35.4894
19.2859 -3.3268 36.1786
31.6195 16.3775 -6.5832
2.7256 36.0437 -8.0161
33.6089 22.2366 -19.0876
10.5820 -1.0835 59.9969
-46.9669 -30.5813 -61.0707
50.4448 29.8117 -67.8690
14.5258 13.4272 35.6180
22.9716 59.0262 -80.5155
3.9067 57.4223 -65.0953
41.6907 30.6481 -49.6014
28.0602 -47.9753 -59.8261
57.6961 28.9240 -83.7191
61.5044 11.2359 -78.3389
2.8589 5.0425 72.9033
-10.4194 -53.9014 -58.0143
-10.8287 -17.2170 34.1297
-24.5728 49.9001 -59.9423
-13.4600 20.1942 23.6525
-20.8759 34.7603 -19.7491
-1.0796 -25.5084 20.2867
-45.6168 33.1994 -62.0660
-59.7143 -27.3717 -86.7814
-11.1568 52.8323 -55.6100
-0.4544 2.7756 80.8593
-6.7883 20.0011 32.0434
4.3699 -6.0060 68.5547
-4.1578 -8.1295 64.0131
9.4308 -39.2990 -19.3958
-3.5547 -57.7891 -66.0107
-2.5125 -9.6593 61.7477
36.7183 20.1511 -23.3140
22.2320 16.1980 15.0187
46.1248 -42.4843 -78.8365
-6.7084 -17.0245 39.5706
0.8030 11.2729 58.2261
19.6505 15.7068 21.2860
-0.3368 -0.5219 86.7020
-18.4423 6.2886 36.4073
-15.3199 -44.3336 -36.7026
6.5275 43.4509 -28.7907
15.7029 -60.3115 -77.8056
-27.1670 -45.3168 -52.5136
-6.2470 40.6707 -21.3498
36.8163 -51.1187 -79.6034
-26.1434 -16.0325 6.5914
13.0063 1.9589 53.2896
41.8164 -25.8852 -42.7652
25.1102 24.1337 -4.4990
-15.5036 38.2644 -21.7184
16.2609 -38.6849 -23.5251
-37.3237 28.2930 -36.5144
-42.6344 -45.0861 -77.0851
5.5237 56.9091 -64.0861
-3.3519 27.9801 13.2242
-23.3845 6.5390 23.6187
5.2362 14.0673 48.3378
7.2861 0.7334 68.8337
0.3544 -1.1044 85.2656
-10.6791 -6.3804 55.1908
20.7845 -20.7547 10.0448
-4.3988 -53.0826 -53.6560
-20.0187 -17.9166 16.7294
19.3038 -18.0731 17.8537
-7.8953 18.3192 35.1724
26.2523 -49.2819 -60.5174
16.0333 1.5746 45.4045
-9.8698 -3.6127 60.3357
2.2393 -22.9410 26.9020
-12.6981 28.3844 5.4517
13.4410 -7.7799 46.9515
-37.1172 30.6373 -39.9615
36.7559 4.3065 -10.3108
-25.9269 -0.1470 19.2305
-11.4472 -40.5605 -24.0086
18.2829 -47.1360 -46.4384
12.6004 -16.5936 32.8065
36.4103 41.3478 -58.5335
38.7149 43.0381 -65.9852
14.0539 -11.4139 40.0868
-11.2255 8.4886 50.8348
-40.6297 -51.7831 -87.1311
27.8540 -15.1890 3.7696
-31.5007 -0.2738 4.3677
11.4292 21.6876 22.9965
-40.5117 -13.1090 -25.1684
37.6279 -11.6047 -16.6283
-35.9435 -13.9118 -14.4021
-14.7264 21.6563 18.5330
30.8204 0.1063 6.1842
-17.5163 38.4828 -24.3736
-28.5714 25.5912 -13.9086
39.6264 -3.5559 -17.7185
56.7132 13.0008 -66.7729
-4.8024 -17.2097 40.7207
3.3469 59.2378 -69.8339
-23.7896 -45.6849 -48.9723
40.8032 -48.4541 -80.5349
4.6573 -15.5125 45.1749
-0.2512 13.0834 53.4688
-28.0100 -31.3267 -23.6835
-15.6971 -39.5189 -25.0147
2.3597 1.5723 80.7980
-15.3505 29.9842 -1.4534
20.6469 46.4069 -47.0654
-25.3010 -31.9209 -20.2413
-38.0990 15.8763 -21.6883
-14.1409 48.0830 -45.2700
1.8124 -6.3185 70.8323
-36.9561 -25.1436 -30.8171
-5.8578 53.3555 -54.7533
2.5016 -9.4881 62.1966
24.4280 -35.3871 -26.2878
11.9665 62.7714 -82.0170
-10.8871 50.0417 -48.1842
3.1930 -10.6497 58.7153
-43.7623 16.7569 -36.5822
-44.4673 -26.3050 -49.3917
37.5779 4.1457 -12.4399
45.2416 -43.5886 -79.1414
0.0392 -11.9508 56.4947
-20.1579 49.3159 -53.6880
15.4700 0.6402 47.0767
39.0014 7.6376 -17.6027
-1.0127 39.8239 -17.8548
31.4189 0.0224 4.5890
-6.1793 -12.7790 50.5124
4.0165 18.0709 39.0016
21.6814 -8.9335 25.8365
-30.1415 -2.8464 7.6374
25.8681 0.2223 19.3860
1.8656 9.5913 62.3066
-21.2412 -45.0954 -44.5456
-31.8172 -9.6907 -0.3203
-26.5760 -6.3976 15.4769
33.3593 28.3294 -28.3289
-0.2130 -5.2372 74.3831
-26.0965 -7.5872 15.8986
20.9492 54.1211 -66.3728
-38.8074 -28.6598 -40.2678
13.1590 16.4919 32.1056
55.6104 30.9368 -81.3097
-6.5933 17.2725 39.0651
-17.2264 -20.8613 16.2255
21.0051 -29.5869 -8.3848
-28.4458 2.3284 12.2621
-0.7400 24.8357 22.1116
28.9081 41.1312 -45.6820
28.1176 -45.3834 -53.9845
-34.5014 38.1583 -48.7999
-6.3977 31.0025 3.9574
15.6859 -0.1632 46.5340
-3.5580 29.3879 9.4318
-12.4386 -21.0406 23.1901
-2.6740 42.1567 -24.2661
62.3939 8.1320 -79.4037
12.2685 -12.4701 41.7173
-33.9219 -33.9115 -39.5275
1.2896 20.5932 33.3451
-25.6125 -9.0083 15.9694
11.9411 -51.0917 -51.5337
-23.2655 -5.8272 24.4114
14.6776 22.3633 17.0380
-2.4580 -0.4227 81.7084
-2.0043 17.0926 42.4735
15.2365 -44.2691 -36.4675
-30.5758 -3.6731 6.2507
-10.0595 -21.2755 25.6123
-7.9160 -9.6843 55.0094
-6.7291 -6.0620 64.2103
8.3356 -21.0297 28.0448
-57.1010 -14.4481 -68.6827
16.7233 3.1634 42.9797
38.2493 -39.5229 -58.2848
44.1799 46.2096 -82.0951
16.3307 -5.1849 42.6755
38.8680 34.6554 -50.4821
32.2494 20.1806 -13.0726
48.5954 8.0617 -42.9779
18.0932 -43.9407 -38.3397
-0.0081 -0.1226 88.0306
7.1510 -40.3666 -20.9431
-23.8069 -1.3691 24.7792
-1.1586 -16.1244 45.2565
34.1494 -1.9895 -2.8453
-4.9850 -13.3878 50.2694
-7.4778 -8.4419 58.2899
23.8050 -9.3875 20.1323
16.5234 -1.6261 44.0907
-37.0397 -33.7406 -45.2281
-31.9736 -10.4823 -1.3544
-7.0972 -7.0505 61.6855
-2.4692 -9.3297 62.6267
-1.7608 6.4731 70.4724
2.7376 -0.7016 80.8234
-7.2338 13.4641 47.6071
44.1923 -32.4168 -57.7683
5.4742 -7.7784 62.9983
30.4253 37.5424 -40.4814
-11.9451 -16.9046 33.1703
-15.2277 29.5639 -0.3069
35.6065 8.7489 -9.3999
1.7231 38.3955 -14.1151
27.3633 -10.7358 9.9877
-18.2454 53.2958 -61.8355
-11.5450 -1.7753 57.2151
26.6194 -19.7632 -0.0366
-24.6066 28.9751 -12.9941
27.1463 -15.3916 5.1562
-41.5984 -40.4878 -66.4124
3.3314 49.7765 -44.6531
9.7072 10.8289 49.5839
-12.2803 -3.2567 54.4845
7.0539 2.1530 68.6945
54.9522 14.7108 -63.3148
4.2787 5.4127 69.9625
-0.1507 0.0082 87.9559
17.0236 -5.4268 40.7193
-20.1309 -26.7045 -0.8057
-0.8559 -1.7206 83.2344
-4.7771 -22.0455 28.2163
9.1162 29.2752 6.6077
19.8124 -27.1656 -1.2873
17.3874 39.0494 -25.6101
-9.1805 45.1716 -34.5406
-12.1385 -22.6168 19.9212
-10.4431 43.7519 -31.5703
21.5968 -34.1820 -19.4444
19.8556 -5.9379 33.1026
-4.8874 53.3365 -54.4435
29.4958 6.0266 8.0917
-1.5721 61.3686 -75.3166
-3.1503 -59.1521 -69.5768
-38.6941 -37.0538 -54.4820
-31.2762 29.3071 -25.9193
13.2610 -29.7208 1.5865
-0.3897 1.9644 83.0186
-44.8770 37.6874 -67.8888
26.6779 43.5880 -47.8955
27.2265 -39.2386 -38.9778
-22.0284 5.2182 28.0006
-20.9603 54.2302 -66.6548
-31.0685 -18.0092 -7.3872
21.9271 39.8554 -32.9246
-29.8468 -40.6318 -46.0612
13.3502 31.6409 -3.2046
-12.7107 30.1163 1.2034
8.7915 47.5989 -40.6968
34.2722 -23.7980 -22.8877
-52.0644 -5.0791 -51.1151
31.3402 -10.3357 0.3720
-8.8373 -31.8827 0.1475
52.1403 34.8566 -78.8616
-23.2461 12.6397 17.8098
-4.8409 -1.1706 75.0794
2.0263 14.3618 49.6874
-28.6807 -7.7726 9.1313
24.1557 -27.9123 -10.0604
9.1184 12.6801 46.7166
2.6535 -14.0278 50.2939
7.5366 -20.5088 30.1022
-26.3262 -10.6709 12.6202
1.2801 -23.4062 25.8592
-24.3936 5.4029 21.7436
-13.5074 46.1573 -39.8678
20.5519 27.1782 -2.4899
14.5707 28.6777 2.5944
-37.0643 -24.9271 -30.7327
-22.2746 -16.4109 14.5918
6.3439 7.6660 61.8281
3.8404 -51.6550 -49.7447
26.2797 16.7473 5.2730
15.7316 -0.9419 46.3395
55.2199 -0.5528 -58.8768
-0.4482 50.7215 -46.8809
23.0973 -23.3896 0.7151
-34.8561 31.1315 -36.2455
11.0654 16.0479 36.3859
3.5302 1.0872 78.5096
52.6031 -5.1887 -52.5730
3.1905 -20.6500 32.6479
-5.8908 -13.9811 47.9079
30.6452 26.3121 -19.3332
-34.2774 28.8217 -31.0457
-8.2416 -2.5808 65.3323
-39.7311 -45.0725 -71.8381
-40.2630 -27.2677 -41.2928
32.2341 24.5181 -19.6206
-5.5575 7.4050 63.6731
-53.5889 28.6705 -73.6840
38.7494 -50.8552 -82.1073
-37.6864 12.0445 -17.1283
55.1230 30.7231 -79.8973
48.2049 10.1488 -42.9835
-13.7528 -31.0157 -2.1010
35.2974 36.8537 -47.6993
-62.5936 -7.0503 -79.5843
-27.3127 -59.1469 -85.3412
16.1626 49.1264 -49.5294
44.3146 21.5753 -43.0528
-13.3197 -17.2370 30.2784
4.1534 62.9075 -79.7310
-0.0444 -0.1045 88.0554
-51.0727 23.0988 -61.0914
-5.5542 -12.0006 53.1013
8.9072 6.1438 59.5084
-54.5135 2.8090 -57.1788
-39.7034 -11.1331 -21.5820
-14.8184 -23.9530 13.2614
15.6694 -13.3634 33.4507
15.9126 -10.2152 37.9421
-58.4057 11.7089 -70.4619
2.4955 0.2081 81.6815
58.4202 8.2345 -88.3582
-59.7556 2.4472 -88.3582
-11.8337 -37.6849 -88.3582
7.2068 42.5449 -88.3582
-30.8339 17.0230 -88.3582
1.2821 3.1446 -88.3582
11.9827 3.0818 -88.3582
-33.2333 -16.4392 -88.3582
32.6956 26.0303 -88.3582
-14.0548 -62.0047 -88.3582
16.6682 48.2867 -88.3582
13.6034 -38.5228 -88.3582
-4.0554 -10.9180 -88.3582
23.0507 -23.9038 -88.3582
31.0304 -12.4250 -88.3582
-1.1988 -1.5732 -88.3582
-9.5272 16.8936 -88.3582
-14.6719 5.2884 -88.3582
-1.3139 2.5484 -88.3582
-23.1021 -28.2154 -88.3582
-15.1568 -21.5865 -88.3582
-14.1551 25.8983 -88.3582
9.2477 -54.9570 -88.3582
-3.9311 -28.4775 -88.3582
46.7636 -18.9548 -88.3582
3.0596 11.1987 -88.3582
-44.7490 -4.0553 -88.3582
-0.5358 0.0274 -88.3582
-47.0184 -43.3712 -88.3582
4.5658 39.8278 -88.3582
9.2861 44.2150 -88.3582
-10.2841 26.2913 -88.3582
-10.4534 8.8794 -88.3582
2.5984 11.9058 -88.3582
-4.1417 -0.6590 -88.3582
1.6285 1.4210 -88.3582
5.8855 -15.2506 -88.3582
31.5685 -18.3021 -88.3582
40.3719 20.2931 -88.3582
-20.9680 -21.4072 -88.3582
-27.8340 8.5455 -88.3582
1.4132 6.0795 -88.3582
-8.7815 5.8973 -88.3582
-29.6526 28.8075 -88.3582
-32.9454 21.0972 -88.3582
-20.6468 41.6991 -88.3582
-12.3412 18.2114 -88.3582
10.7781 -10.2213 -88.3582
-17.1495 -55.7441 -88.3582
-39.7995 -12.6778 -88.3582
-8.1371 -59.7850 -88.3582
-3.5733 39.9730 -88.3582
-11.0531 -20.1431 -88.3582
43.1183 -32.2518 -88.3582
25.2196 10.8162 -88.3582
16.3696 17.2878 -88.3582
-8.1958 8.6890 -88.3582
16.3678 -0.8575 -88.3582
-5.7740 -29.6822 -88.3582
23.1084 -56.5747 -88.3582
26.7859 -28.0255 -88.3582
13.5650 -36.0753 -88.3582
30.7000 -4.9263 -88.3582
-4.1709 -6.1204 -88.3582
-28.8775 -52.2929 -88.3582
-23.7592 16.2352 -88.3582
-15.5135 51.6750 -88.3582
-1.7779 -0.8542 -88.3582
18.6586 -18.4211 -88.3582
-26.1212 -34.0511 -88.3582
40.8968 14.5605 -88.3582
-2.7237 26.5848 -88.3582
-15.3001 41.1395 -88.3582
-31.2903 -8.4471 -88.3582
58.2552 -11.9244 -88.3582
37.2388 -50.9621 -88.3582
-59.9352 9.4140 -88.3582
-57.7134 -13.9327 -88.3582
40.6474 16.8386 -88.3582
0.4663 -49.4741 -88.3582
24.4135 -3.8534 -88.3582
43.2518 41.6657 -88.3582
6.5673 10.7921 -88.3582
3.1515 57.3397 -88.3582
-17.0241 -46.3460 -88.3582
-2.6341 32.5114 -88.3582
20.3349 -20.0975 -88.3582
-18.7598 -27.5018 -88.3582
-0.6401 -0.7436 -88.3582
-14.4119 32.4412 -88.3582
28.5162 13.6369 -88.3582
46.5846 39.8437 -88.3582
34.3451 45.0493 -88.3582
38.2703 31.6863 -88.3582
38.5355 -6.2745 -88.3582
21.6610 -29.2752 -88.3582
-15.8041 5.8358 -88.3582
12.8844 9.4358 -88.3582
-32.4041 -23.9234 -88.3582
-40.4074 -37.3928 -88.3582
-4.7441 -38.4045 -88.3582
56.4132 20.7954 -88.3582
41.9915 -25.5164 -88.3582
-7.2268 -48.4132 -88.3582
13.0612 -41.1458 -88.3582
10.6967 -24.8953 -88.3582
9.3469 61.9610 -88.3582
11.8049 4.9878 -88.3582
0.9294 26.2923 -88.3582
13.5997 -52.1276 -88.3582
-30.6875 19.2771 -88.3582
30.0622 -13.0336 -88.3582
-26.2488 14.3364 -88.3582
2.6341 2.0234 -88.3582
16.7488 60.3573 -88.3582
24.7234 29.6482 -88.3582
22.8010 -36.7717 -88.3582
41.4283 -19.6482 -88.3582
-0.4234 -0.3616 -88.3582
35.8703 -48.7706 -88.3582
-26.0774 15.8365 -88.3582
-13.5397 44.1923 -88.3582
14.4434 -8.5632 -88.3582
4.2095 -7.8700 -88.3582
-24.9315 2.7901 -88.3582
6.3806 20.7028 -88.3582
15.3636 63.1317 -88.3582
-14.5840 -13.2730 -88.3582
4.7259 -3.2223 -88.3582
-3.3069 1.0878 -88.3582
11.4536 -10.6498 -88.3582
-8.1176 16.6790 -88.3582
29.9339 33.9417 -88.3582
7.5325 -8.0403 -88.3582
-1.7213 -0.6743 -88.3582
5.5112 -16.8092 -88.3582
39.8410 -34.0819 -88.3582
10.6463 -3.4105 -88.3582
-7.4936 2.6524 -88.3582
45.3463 -42.8054 -88.3582
7.9117 -5.4341 -88.3582
1.7048 -2.7089 -88.3582
-20.8422 37.3078 -88.3582
4.1159 -0.2036 -88.3582
-49.1261 19.3473 -88.3582
-5.2168 24.1492 -88.3582
-22.9336 -7.4149 -88.3582
1.9575 33.1183 -88.3582
4.1902 0.1713 -88.3582
33.5016 -11.0563 -88.3582
6.5831 18.5023 -88.3582
-39.0707 -20.1569 -88.3582
-16.7782 -36.4769 -88.3582
5.6326 47.7579 -88.3582
-13.6316 -64.6723 -88.3582
46.7851 42.0967 -88.3582
27.5989 -14.1538 -88.3582
-8.2858 4.7870 -88.3582
34.4696 55.9035 -88.3582
-31.1472 -2.5245 -88.3582
48.0842 -6.6284 -88.3582
50.1646 -9.4848 -88.3582
-13.7228 10.2924 -88.3582
1.9857 2.6208 -88.3582
5.7298 -61.7775 -88.3582
-7.6347 -5.1386 -88.3582
-16.7572 -7.8402 -88.3582
12.4033 -1.9579 -88.3582
-7.4916 -9.5694 -88.3582
33.4571 34.6738 -88.3582
9.9358 -25.4930 -88.3582
50.5773 -6.3464 -88.3582
-0.0552 -0.7154 -88.3582
20.1645 0.2912 -88.3582
22.3820 16.9137 -88.3582
-0.0940 -15.3794 -88.3582
-6.6584 -2.1232 -88.3582
-49.5681 33.4529 -88.3582
12.8711 53.3339 -88.3582
6.6220 23.5066 -88.3582
-3.2535 -2.6291 -88.3582
42.6140 12.1641 -88.3582
-26.1403 -11.6026 -88.3582
10.6386 7.6734 -88.3582
6.3042 32.3978 -88.3582
10.1593 -10.0216 -88.3582
-28.0223 22.6611 -88.3582
36.7564 35.3035 -88.3582
2.9719 27.6550 -88.3582
-5.6564 45.9011 -88.3582
-13.0454 14.6870 -88.3582
-12.0921 37.8251 -88.3582
-18.7393 -8.7827 -88.3582
63.1070 11.8965 -88.3582
-1.3800 4.8083 -88.3582
9.2070 -5.1846 -88.3582
4.6930 53.2106 -88.3582
-49.9335 35.7163 -88.3582
-33.8114 -52.7728 -88.3582
5.5830 -62.3055 -88.3582
-25.9683 0.2070 -88.3582
-2.5807 4.4364 -88.3582
1.1451 -0.6666 -88.3582
62.3042 16.9169 -88.3582
31.9482 40.0161 -88.3582
-4.9618 -5.1438 -88.3582
25.6214 15.5924 -88.3582
22.9217 -9.7212 -88.3582
-9.5190 16.6627 -88.3582
33.3868 28.8551 -88.3582
-8.2636 -47.7400 -88.3582
19.3854 43.8378 -88.3582
6.0514 -61.8910 -88.3582
-25.6343 -7.7523 -88.3582
6.3180 -26.3310 -88.3582
31.0251 30.1496 -88.3582
1.6394 4.9895 -88.3582
-6.6225 -16.9708 -88.3582
21.1674 34.5125 -88.3582
22.7289 -12.3734 -88.3582
17.2710 25.6404 -88.3582
-4.1367 -10.3131 -88.3582
-26.4569 -12.0876 -88.3582
17.4436 -41.3581 -88.3582
22.6570 -0.1369 -88.3582
-13.5419 -15.1052 -88.3582
10.5283 -58.1812 -88.3582
2.4652 9.7293 -88.3582
-20.9124 8.9671 -88.3582
2.9664 6.0614 -88.3582
62.5374 -8.5095 -88.3582
-5.1813 -21.8031 -88.3582
1.5649 -43.8464 -88.3582
13.3171 23.2259 -88.3582
25.8681 39.6541 -88.3582
14.5837 -32.8187 -88.3582
6.4289 -8.4323 -88.3582
26.6498 2.1943 -88.3582
24.4752 -11.6282 -88.3582
-26.2414 41.1081 -88.3582
0.0815 -40.3643 -88.3582
-5.7434 56.5577 -88.3582
-13.8805 -52.1077 -88.3582
-44.9267 -28.6303 -88.3582
1.7493 -1.3859 -88.3582
33.0296 -28.2920 -88.3582
-23.3808 -4.5199 -88.3582
-25.6625 19.0347 -88.3582
-29.2760 29.5487 -88.3582
2.0282 -10.6849 -88.3582
-3.3744 10.2315 -88.3582
-32.3877 -29.8606 -88.3582
0.8184 -18.9665 -88.3582
-3.3674 -25.6740 -88.3582
-53.5346 34.8476 -88.3582
0.5967 -40.8728 -88.3582
