ply
format ascii 1.0
element vertex 1024
property float x
property float y
property float z
end_header
-20.5298 -38.8162 -33.6906
6.5026 -23.3178 -2.4854
-5.1272 -5.5120 23.9309
0.2459 24.6356 -3.1654
-11.6393 25.0285 -7.8622
25.8836 -6.8587 -6.5547
-1.6292 -3.0559 30.3687
-7.7714 -25.0624 -5.7037
-37.1895 5.2745 -23.6351
14.2087 11.6373 6.7660
-3.3691 14.7429 11.9024
-6.5977 -29.9991 -12.7932
4.0896 -0.4279 29.3411
-10.3596 11.6341 11.1816
-31.9203 -23.4038 -26.8329
6.8610 -7.1365 20.1748
-27.0076 9.6174 -9.5511
-9.3819 25.5941 -7.3188
-40.3311 17.6103 -33.8447
-35.0915 -12.7663 -23.2864
21.0363 10.5638 -1.4278
38.1857 5.5235 -25.2527
-34.3033 3.5744 -18.7686
-12.2926 13.7935 6.5917
1.9143 13.4168 14.3892
26.4910 13.5697 -11.2859
18.0794 16.1959 -2.5888
-7.7028 -14.1371 10.3559
0.5525 0.4896 34.6842
6.3135 -2.5656 25.0603
-41.3968 5.6608 -30.3191
13.5948 -3.4346 13.6460
-1.2425 -42.2839 -31.1427
37.3998 17.5277 -29.5608
9.8539 22.4411 -2.9631
-10.3014 -7.0045 16.1242
12.8110 -31.6649 -18.2449
-4.3059 -0.2322 29.0239
-38.6071 11.0055 -27.7265
37.5378 -1.0803 -23.6218
21.6158 15.2943 -6.0835
-0.2527 -27.6786 -7.9845
30.1046 -12.3298 -15.6688
35.8736 12.3652 -24.2419
6.4989 10.0841 16.8533
-1.2345 -0.5797 33.6933
-29.9293 9.7132 -13.9811
4.3094 -2.4496 28.0028
-1.3451 -1.6235 32.5142
9.4103 11.8858 11.8436
22.2396 -22.9689 -14.7815
-33.4161 3.8017 -17.4109
40.6815 -12.9439 -31.7588
3.6913 39.9281 -27.6525
1.0785 -4.7720 28.1051
-30.3114 -15.9031 -18.3584
-5.7785 -8.8105 19.1663
-28.0892 30.0551 -29.2986
24.1660 -6.7272 -3.8749
-37.9023 -15.8462 -29.2094
31.9012 -23.3187 -26.7288
-1.1786 -37.9343 -24.2542
19.1629 6.4146 3.8488
14.9584 39.9690 -31.7354
-11.3584 8.0235 13.8289
-1.6090 -4.4532 28.3543
-4.5028 22.5201 -0.5189
17.7065 -7.4392 5.4360
0.7793 -4.1220 29.2094
32.7681 6.2556 -16.9804
20.6255 9.4415 -0.0721
-0.5124 -26.6830 -6.4137
-27.1551 17.9022 -15.6584
-19.2675 -30.4292 -21.1875
-0.2876 39.3848 -26.5240
-2.1932 32.0705 -15.0571
5.9540 0.9261 26.3103
0.6398 0.3404 34.7055
38.6842 -2.3056 -25.5216
19.1654 -7.5531 3.2280
0.5962 40.6144 -28.4767
-8.8327 -30.5594 -14.5262
-4.8050 -5.7382 24.0001
-26.1854 27.2140 -23.9586
-12.6895 -15.8137 3.7419
5.9318 -4.8147 23.7537
-0.8845 -8.3356 22.5776
32.4845 -0.5544 -15.6016
-2.6409 -2.8533 29.6958
-41.7075 -14.8614 -34.2690
4.8258 44.3127 -34.7418
17.5495 4.6546 7.0982
24.7007 27.9120 -23.1763
-14.5858 18.4208 -1.3588
4.9968 6.8555 22.4180
-21.3222 -18.4234 -8.7752
-6.6500 32.1296 -16.1104
-4.7156 -37.9619 -24.7310
31.3231 -15.6859 -19.6274
32.4775 8.2079 -17.2002
22.6154 17.4851 -9.4205
2.3325 2.0491 30.9363
10.3607 12.4674 10.1800
12.7720 -20.5819 -2.5094
-5.3188 -10.1911 17.6471
-39.5110 -2.8776 -26.8880
34.5386 25.0627 -31.7314
-10.0074 -0.6112 19.9745
5.3539 30.9705 -13.9238
14.2693 21.0991 -4.4867
-31.9916 -23.2299 -26.7618
31.0448 0.6145 -13.3235
6.0631 2.1014 25.6905
3.9603 -13.2562 13.9420
6.8702 3.9167 23.3285
30.7277 14.2531 -17.7922
22.7470 -3.1383 -0.5135
-1.7302 -36.5602 -22.1137
-31.0758 -17.5041 -20.6335
-13.9877 -5.7053 11.9284
3.4915 7.3156 23.0153
0.3126 -0.5047 34.9131
16.6980 25.6148 -12.5728
5.6212 -1.6974 26.5538
-1.4560 0.1195 33.5397
-11.8935 10.3059 10.9291
-0.1670 4.9353 28.0326
25.5783 -26.8552 -22.8833
11.9888 37.6712 -26.7569
12.2362 3.3864 15.7458
16.7702 -35.6258 -26.5078
19.4930 -20.3983 -8.8318
17.5671 -30.5497 -19.9588
2.7880 0.9633 31.1817
-23.1176 37.9084 -34.4671
9.6542 15.2451 7.2748
-11.2155 19.3262 0.4648
-27.3801 0.0795 -7.5101
-5.6427 -16.2962 8.5408
-1.4852 -2.1105 31.7661
-4.4729 -1.4164 28.4227
-0.3915 -0.5468 34.7881
-24.9254 21.1012 -15.8686
4.5673 5.8177 24.1393
30.7170 21.9507 -23.9396
1.4900 1.7387 32.2268
-1.6270 0.9526 32.8674
-2.4585 -6.1280 25.3962
-15.9706 32.5615 -21.5849
7.0605 29.7105 -12.5111
-25.0170 13.8478 -9.4323
15.0486 2.8812 11.5871
20.5699 -15.6746 -5.1047
-22.7239 -27.1313 -20.1964
0.4381 1.2551 33.7479
-4.2483 -14.2975 12.2312
3.2736 7.5010 22.8915
34.0438 14.5477 -22.7801
-1.1705 23.5472 -1.4856
-17.3830 -0.8463 8.2903
-8.2742 -3.5374 21.6018
-30.9705 -29.4767 -31.8611
-30.2544 -28.3988 -29.8641
-21.0324 -34.7874 -28.5282
5.8250 5.0135 23.6815
-3.3357 6.7591 23.9159
-35.0622 18.5611 -26.9773
-26.2597 -20.8841 -17.2843
-2.1418 1.6171 31.6030
-25.5353 -12.8225 -9.4007
4.6768 7.4768 21.8862
24.2863 -36.8183 -34.0009
-6.2262 1.1352 25.8301
8.5338 7.2519 18.1171
-19.9499 -1.8088 4.1280
1.7216 -29.0641 -10.2577
-18.2616 -16.7609 -3.4037
-24.3131 -13.5170 -8.2033
-13.3765 -13.2768 6.0046
-45.1989 1.0809 -35.7509
35.8965 -21.6756 -30.5583
-27.0769 -4.6598 -7.6602
-6.4514 29.4593 -11.9085
-10.9566 13.2822 8.5841
11.2065 -13.3081 8.2992
-3.3177 -26.7378 -6.8174
0.8015 -5.4689 27.0994
3.3989 20.1766 3.4484
-0.2091 -0.0751 35.5014
21.4151 -19.9814 -10.5336
34.2769 -17.0202 -24.7568
7.6940 7.2839 19.0736
37.4268 -4.3185 -23.8146
-31.4211 3.1975 -14.1670
21.1064 -9.2518 -0.6444
18.7655 12.9599 -0.2653
-31.8298 10.0532 -17.0118
5.7727 -24.9972 -4.7780
-42.2348 -0.0250 -31.0361
34.2963 19.3300 -26.4967
40.4264 -10.5194 -30.3042
15.8767 -20.6599 -5.4125
9.2186 4.3333 19.7207
-1.8719 1.6815 31.8682
0.4141 0.0519 35.1924
-10.6418 -40.1592 -29.9440
9.4610 -5.7302 18.3354
-19.0015 -16.0619 -3.5512
3.1855 26.5067 -6.4287
-26.0763 32.5778 -30.2347
-16.4062 15.5919 0.0077
-19.8076 17.4672 -5.9722
5.1335 9.0316 19.4004
-3.2908 1.5625 30.0838
16.2681 -12.0315 3.8080
-6.9147 6.3670 20.9667
6.4966 28.3449 -10.2020
-17.8680 -28.3370 -17.2024
-22.5723 -7.7327 -1.9352
-40.6981 16.4386 -33.6616
4.1156 4.7422 25.9088
-5.5794 -26.2703 -6.6804
-7.2379 -12.0846 13.5441
-3.7270 -18.5419 5.9003
9.9633 13.5729 9.1874
-21.6468 29.1944 -21.7068
-15.2145 4.2255 10.8453
11.2730 -0.2679 17.9947
-9.8012 0.7147 20.2894
34.1619 12.5424 -21.7818
22.7859 36.0347 -31.6691
-22.8406 15.5697 -7.9256
-16.2178 -35.7853 -26.3703
-10.6490 -33.5947 -19.9613
-12.3986 -40.9018 -31.8357
-3.7067 -29.6994 -11.5480
-3.3988 -20.4639 2.9996
21.3973 22.4336 -13.2458
-6.2914 -42.7640 -32.6033
14.8867 4.5291 11.2096
27.4009 14.5678 -13.2948
-20.6871 12.4087 -2.3519
0.0583 21.5212 1.7689
13.0851 -32.7949 -20.0673
2.0863 25.2905 -4.3366
1.0481 -18.3559 6.7347
-34.3528 -19.2741 -26.5312
-3.8852 -13.2385 14.0026
-26.3690 -10.6320 -9.1755
-5.1909 28.3051 -9.7225
14.1573 -20.2623 -3.2942
-4.0270 -2.7862 28.0978
-17.7603 -3.1719 7.2804
-25.8873 17.6204 -13.7418
43.2441 8.3226 -33.8913
-12.3560 -2.2049 15.9754
5.0978 -7.1227 21.9812
-8.3070 -17.1965 5.6071
36.6076 -13.8702 -26.1461
-30.3277 22.3221 -23.7858
-33.6983 17.6565 -24.3984
7.7810 -4.7028 21.4542
13.9869 -22.5869 -6.2220
-17.2840 37.9559 -30.1985
25.9059 -26.7482 -23.1206
-43.0557 -10.8122 -34.4533
2.0079 36.7184 -22.3864
9.6469 -25.3490 -7.1020
-18.2637 -30.2825 -20.1540
14.5497 39.5741 -30.9240
-1.7499 -1.8562 31.8132
5.9903 29.1630 -11.2979
-10.2304 19.1245 1.5035
-0.3129 0.9303 34.2988
21.3735 14.0856 -4.6867
0.0065 0.3040 35.3717
-4.1841 44.0016 -34.1486
1.1810 -1.3413 33.0228
-34.3578 -28.0091 -34.3512
-7.8606 32.8967 -17.7136
-13.9411 0.5116 13.7592
25.7319 32.1234 -29.3319
34.0722 -3.2751 -18.3573
3.5716 -7.2056 23.1165
24.4908 27.4051 -22.3554
-29.8959 23.2907 -24.1669
5.1232 -12.1355 14.9912
35.5863 -5.1725 -21.0988
-2.5520 -4.9638 27.0138
20.9009 -9.9175 -0.7860
-3.8994 -13.0143 14.3367
-14.9564 38.1633 -29.0638
10.1982 43.3235 -34.6357
-11.9701 8.9427 12.1893
-11.3095 6.4043 15.2694
7.4806 -2.9866 23.0965
9.6023 -40.2107 -29.6211
10.3603 3.7632 18.3963
8.9195 -1.1710 21.6059
25.6232 25.2427 -21.1121
-38.2135 -6.5276 -25.5439
1.5592 -2.0432 31.7827
-20.0671 -15.7487 -4.5466
-1.4174 32.2146 -15.2160
1.3611 11.1570 18.0524
-43.4833 9.0690 -34.4953
-26.2887 21.7457 -18.1795
-3.8367 3.7672 27.3375
-24.8078 -20.2378 -14.8514
4.5310 3.2523 27.0201
-26.3341 -6.5581 -7.1271
13.6452 -14.2265 4.6335
19.9972 0.6855 4.1642
-10.9067 -3.4095 17.7554
0.0295 -0.1184 35.6600
-14.9602 -7.3283 9.4701
-19.3840 19.9081 -8.1531
32.1161 3.7373 -15.3538
6.7343 37.3736 -24.2904
0.6303 -0.2146 34.7988
-21.5911 -11.6907 -3.0324
-37.5610 -20.2434 -31.7234
-16.9567 -1.3308 8.9155
-5.8543 -25.6467 -5.8095
40.2866 -13.4174 -31.3962
12.6305 34.7708 -22.7357
-3.7079 16.9448 8.3820
14.2259 -16.5934 1.2376
0.6369 -1.9067 32.6695
-26.9155 12.8802 -11.4036
-1.0096 -1.7802 32.6121
-27.4493 -23.0269 -20.8906
6.7777 -2.4057 24.4629
28.4483 -0.7228 -9.2163
16.3236 26.5724 -13.5372
24.0663 14.4689 -8.6197
-9.3566 -4.1514 19.6417
9.0630 -33.5474 -19.1822
-29.9256 5.1168 -12.2292
-19.2281 -21.0663 -9.3185
0.4524 -1.0842 33.9927
-18.9698 -19.3024 -7.0086
-37.4765 7.8503 -24.7883
-5.0751 21.7469 0.4862
23.6759 27.5108 -21.6303
-1.1609 6.7141 25.0620
-30.8651 -1.7230 -13.1054
-37.5325 15.5975 -28.5174
-4.2667 -12.1887 15.4008
-10.6787 12.8917 9.3412
-31.2574 13.9697 -18.3698
0.0434 -0.0741 35.7173
1.7692 -10.7211 18.6442
-20.8417 -26.9901 -18.1533
-7.4776 -3.2463 22.9428
-15.3455 -4.8263 10.3762
-0.9832 -0.3652 34.1921
-38.1172 -1.7162 -24.5761
-10.3762 -9.2216 13.8680
14.4577 39.3516 -30.5430
-9.9456 40.4337 -30.0923
-13.3355 6.8370 12.1192
9.4310 -5.1458 18.8382
1.7435 30.4060 -12.3813
0.9832 9.8920 20.1097
20.8330 0.0707 2.8588
-29.9623 -12.9904 -15.8676
-0.9007 -0.5494 34.1825
28.2688 15.5268 -15.2262
-1.7260 0.3571 33.0619
-7.1038 5.3812 21.7391
32.0266 9.8974 -17.2357
39.3687 18.1158 -32.7814
-18.5770 -27.8728 -17.1964
10.5045 -2.2390 18.8431
-14.1754 -33.4471 -21.6796
2.2863 41.2857 -29.6331
-19.9642 -22.9205 -12.2865
40.3308 -4.2485 -28.3741
8.5294 36.1509 -22.9727
26.1265 -31.8059 -29.3351
-14.4411 -35.2371 -24.4582
-24.3510 13.1891 -8.0061
-1.0151 -2.3886 31.7429
-4.1013 17.7274 7.0359
22.9538 22.5402 -15.0966
-10.3315 20.5042 -0.5097
-5.3954 -5.1333 24.0588
22.3352 33.6170 -28.0675
1.6786 -1.3045 32.4864
-0.3536 -4.7389 28.3272
-2.5337 11.9191 16.5546
-0.3934 11.0002 18.4206
-0.2332 -2.8803 31.2767
-9.7550 -19.0525 1.9536
-2.1990 -3.4602 29.3603
-13.2992 3.6227 14.0233
-3.2330 -39.6136 -27.0934
5.5036 -39.8610 -27.8755
-0.6084 0.3830 34.7148
-0.4623 -23.4313 -1.2633
16.6238 10.0944 5.0516
-5.6098 -1.4308 26.6844
5.1761 20.1420 2.9170
-2.2082 -20.1859 3.6932
-21.3756 24.2728 -15.3703
-4.9074 10.9394 16.8646
0.0152 9.6706 20.5374
1.7379 -0.8519 32.7881
25.4506 -20.0718 -15.4810
0.2063 -0.3874 35.1582
13.8023 6.5535 11.6549
13.4341 25.8444 -10.2773
-30.1658 -2.6221 -12.1019
-3.3663 -0.3398 30.4948
1.3995 17.9671 7.3116
31.9173 -23.2985 -26.7306
5.3005 1.7623 27.0068
16.0216 -18.0432 -2.3623
19.2054 -30.2511 -20.8967
11.1021 -16.2732 4.6540
8.0193 -8.6036 17.2261
4.8372 -12.2117 15.0510
13.6026 -16.0242 2.5642
-22.5265 36.1353 -31.5856
10.2222 -11.1831 11.8577
1.2532 33.1647 -16.7088
15.4799 -32.1429 -20.6490
-5.3227 40.8866 -29.4473
-30.3994 11.3611 -15.5441
33.3508 18.8466 -24.8163
0.1555 0.4069 35.1634
-14.5588 11.4469 6.5223
14.6300 7.6757 9.6877
-5.3888 8.1447 20.3864
16.6237 8.7334 6.1133
21.3184 -13.3851 -4.0130
-10.0309 42.0832 -32.6632
-41.5875 -8.8142 -31.4740
-2.3366 -0.1285 32.1471
-5.9026 40.0969 -28.3346
9.7650 19.1325 1.8337
-4.1723 31.8355 -14.9973
-7.9826 4.6481 21.2239
17.1066 16.0343 -1.2799
42.4475 -0.5804 -31.3793
-13.5345 -22.5319 -5.7746
11.3943 28.3692 -12.5650
-10.9837 17.3286 3.3605
19.4154 15.1098 -3.1103
-20.1086 12.8751 -1.9624
13.4702 16.2377 2.4400
-17.5286 -24.4909 -11.8451
5.9921 30.0304 -12.6449
1.7697 2.0243 31.5949
-7.7672 9.9159 15.9047
11.4027 -14.9835 6.0330
-6.5522 22.2052 -0.8133
-28.2648 -26.3473 -25.3434
3.1350 -26.0054 -5.6310
-9.2750 6.6941 17.7377
-34.5102 -11.9980 -22.0112
10.7608 -43.0507 -34.4259
13.3745 -3.0908 14.1132
21.5998 -8.9030 -1.1473
16.1066 16.3399 -0.4839
7.7241 4.3756 21.7937
32.4378 20.7353 -25.1192
-41.3696 -2.3716 -29.7734
-0.7089 6.7174 25.1556
-10.0293 -15.1519 7.0757
-13.2186 20.2097 -2.3923
17.9130 10.3755 3.0682
-25.0775 -6.9468 -5.3590
-6.8284 -44.6981 -35.7587
-22.1353 -6.5700 -0.7151
-42.1357 15.6347 -35.3251
11.1952 21.5670 -2.6311
3.3398 2.8651 28.8843
-21.5631 -28.7672 -21.0851
21.9594 17.3664 -8.4863
-1.5493 -43.8493 -33.6364
-7.1035 40.1864 -28.7786
18.6763 -6.9636 4.2856
-16.0110 16.3346 -0.3718
6.7583 -7.2196 20.1912
-20.4634 3.8592 2.8731
1.5670 2.5822 31.0697
-10.3515 -8.6391 14.4998
-17.2591 32.8216 -22.8766
-21.8281 13.3754 -4.6910
-2.5501 -4.7145 27.3644
-0.2587 6.6127 25.3724
-14.0859 27.8718 -13.6057
7.2644 -8.4413 18.2155
-27.6935 33.9865 -33.5795
-30.7097 -28.2604 -30.2431
37.3437 1.2059 -23.3207
-3.0007 -40.7619 -28.8781
11.1383 -10.3062 11.8200
-26.3603 10.4307 -9.0444
-14.1422 42.1553 -34.5671
4.6234 -29.5811 -11.5646
-1.4053 -37.8657 -24.1578
-8.0760 -37.0991 -24.2785
-35.1385 22.3007 -30.0588
9.0077 6.9196 17.8640
-29.7931 -28.0183 -28.9191
31.0822 17.4713 -20.6169
-1.5885 -13.2299 14.7499
35.0695 15.5348 -24.8934
1.1031 6.7839 24.9681
-28.4282 -4.7923 -9.8051
22.0799 -14.6730 -6.1331
25.8518 -11.1833 -8.7563
5.6777 -22.6586 -1.1418
-37.0895 -1.1670 -22.9163
-0.2974 -0.0045 35.3823
-3.1961 5.0663 26.3662
-9.3331 -27.5994 -10.2889
-0.3204 11.2561 18.0192
-11.7064 15.7845 4.7299
-4.0850 -3.6056 27.2241
-31.5841 -30.6213 -33.8178
-0.1929 -0.2182 35.3920
-2.7653 -0.1671 31.4657
5.3760 -3.3627 25.8106
1.8086 1.8505 31.7553
-0.1757 4.4415 28.8135
8.3462 12.0307 12.6636
-3.5254 -2.3889 29.1088
4.4609 -3.4261 26.9450
15.8087 4.6956 9.7352
16.5418 0.5010 9.6432
4.9065 -1.1878 27.8581
-28.5434 9.2960 -11.6893
6.4094 -35.0864 -20.6344
0.6278 -1.0826 33.8713
-28.8329 12.9050 -14.1760
-37.9624 6.0014 -25.0163
-8.8609 -10.1270 14.5419
-21.6596 15.4268 -6.2614
-5.1725 11.2080 16.3034
-1.6109 0.9177 32.9171
3.7171 23.5997 -1.9836
-4.1748 10.8039 17.5095
9.1831 7.4636 17.1118
-35.2112 -22.7006 -30.4971
25.7544 3.2112 -5.2511
-9.0904 22.0868 -1.9736
-13.3584 -37.7640 -27.5871
12.3763 -3.4036 15.5247
0.7223 0.2831 34.6246
8.6376 6.1268 19.0815
-21.4884 0.2106 1.8194
5.2757 -5.4736 23.8133
-6.2122 -6.8813 21.1710
-24.4635 19.7081 -13.8995
0.6312 1.4035 33.4161
38.0919 -18.1168 -30.9504
-2.5652 8.1046 22.3901
5.7019 -40.2419 -28.5165
35.4808 -20.4572 -29.0106
9.1648 -29.2899 -12.7524
7.9173 -37.8856 -25.4442
7.6401 5.5338 20.9127
28.2301 19.3521 -18.3527
-10.8667 15.0775 6.4187
-6.2467 -7.5195 20.3710
4.2148 -21.7329 0.7926
13.8474 -5.8493 12.0462
-28.0222 20.1949 -18.8509
-26.3008 36.5223 -35.4262
7.2952 -10.4832 15.6261
8.8407 10.0987 14.5967
8.6167 1.5119 21.9982
23.1053 -28.1356 -21.8062
42.1626 -9.0333 -32.4371
-17.5688 -4.7506 7.0294
-12.7159 25.2834 -8.9683
24.0368 18.8965 -12.5702
-13.6776 -12.9862 5.9830
9.0775 -8.8802 15.7417
-18.8714 18.8819 -6.4260
-4.7317 34.6376 -19.5135
35.6833 -9.9453 -22.8140
-18.0636 -13.5345 0.1056
19.6358 8.6657 1.8613
1.1463 12.3624 16.1904
-39.0879 -16.5276 -31.3587
-21.6319 -16.7294 -7.4562
12.9973 -39.3920 -29.8420
28.9427 13.8215 -14.9433
0.4401 10.8079 18.7221
-3.6211 2.1227 29.2057
34.1740 -2.4021 -18.4033
-4.7843 -1.1106 28.0747
-7.9551 -24.4180 -4.8193
1.6487 1.1904 32.6326
-44.9203 3.5624 -35.5127
0.8001 -18.7535 6.1254
18.7245 -17.1518 -4.3624
13.2906 11.5835 7.9318
14.8246 -3.6144 11.6871
29.2509 10.9101 -13.5903
12.3365 4.1180 15.2556
-8.5658 -6.8514 18.4814
-2.1073 -23.5337 -1.5673
-29.1166 -15.0584 -16.0622
0.0013 -1.1210 34.0779
2.4853 23.2055 -1.1085
16.5358 10.8792 4.5050
-7.8450 -18.3265 4.2812
27.2766 5.2120 -8.1277
-24.8483 -13.7502 -9.1237
14.9157 30.3738 -17.7384
11.9405 -3.6631 16.0727
-0.0717 -1.6423 33.2499
3.4695 -35.8309 -21.1593
-43.2281 -0.8932 -32.6239
-2.3481 -1.1204 31.7328
-1.2664 -2.9990 30.6975
15.6456 15.1583 1.3523
16.2547 -0.1978 10.1080
32.8804 -22.9230 -27.6269
-12.1930 1.0156 16.4758
-0.4312 2.7984 31.3691
15.6284 0.4419 11.0919
-7.9604 1.8120 22.9235
7.5205 43.0802 -33.4068
-0.4515 2.0874 32.4709
-11.7891 5.3146 15.3727
1.2567 -18.0779 7.1534
-5.7639 12.3437 14.2777
-30.5045 20.8781 -22.6903
-9.3215 -0.2372 21.0855
4.4354 10.9292 17.1731
5.5443 -0.5304 27.0324
-9.9518 13.1699 9.7101
31.2496 27.1433 -29.7012
25.9527 29.4129 -26.2705
4.3485 35.0867 -20.1404
-13.8363 -23.0498 -6.7238
4.6417 21.6557 0.7771
5.5845 11.7004 15.3202
4.4538 4.0150 26.3566
-43.2478 -9.3666 -34.2284
-30.5967 -29.9726 -31.9807
29.1563 23.3069 -23.2632
-15.2723 -1.3285 11.5744
-24.0952 6.4770 -3.6621
-19.6399 -30.3982 -21.4639
-3.1171 -1.0918 30.6226
21.1651 -36.9600 -31.6005
3.9000 -9.0289 20.2768
5.3536 -26.8438 -7.4978
15.4129 0.6695 11.4202
-33.7409 -9.9995 -19.8812
-2.8304 16.5318 9.2900
26.8210 -15.3720 -13.1064
-13.3672 -8.8815 10.4361
-1.7658 -7.8998 23.0332
23.4336 7.0266 -2.8922
-0.7207 -5.1112 27.6784
-0.7915 7.7849 23.4604
-7.6824 -6.2595 20.1589
-4.1447 19.8638 3.7165
-27.3273 -13.5700 -12.4686
-19.1768 5.0093 4.4630
-0.2537 1.9268 32.7755
19.9763 15.8839 -4.5664
6.6180 32.4398 -16.5815
25.8118 28.9987 -25.6316
2.4208 -7.5618 23.2785
31.7796 -7.8526 -15.9914
12.9895 -2.4461 14.9197
-22.6966 31.1570 -25.1961
-3.9764 -21.0761 1.8852
-19.7392 -13.5005 -2.0212
-27.8519 -6.3314 -9.3825
3.5390 -14.2418 12.6119
-0.0772 0.6551 34.8086
27.0467 -24.9517 -22.4259
0.0901 21.1710 2.3235
8.1182 14.5872 9.4141
3.4234 5.0006 26.2555
11.4277 9.0942 12.7232
-13.9258 -0.5841 13.7790
7.1599 -28.7229 -11.0286
5.5653 -6.2626 22.5845
27.6329 -33.5487 -32.9824
-4.8247 19.6539 3.8022
13.2862 15.0695 4.0355
4.3232 37.2017 -23.4615
24.5114 1.4847 -3.0378
-12.8829 37.9069 -27.5541
12.3060 -9.3256 11.3996
-26.1913 -16.7637 -13.3962
2.0184 -8.4918 22.0298
12.3604 -8.0469 12.4946
-18.5967 -2.5740 6.1200
41.0757 9.2515 -30.8300
22.3341 -4.4828 -0.2238
18.8695 -30.2764 -20.6473
2.1041 13.3502 14.4490
14.9633 25.2491 -10.6296
3.0368 9.3123 20.3406
28.7615 26.2214 -25.7867
-39.4449 -20.5381 -34.5784
-9.0387 3.8733 20.2793
21.1060 -34.3847 -28.0440
33.1938 17.0572 -23.2522
13.3242 -13.6444 5.6495
24.0752 34.9740 -31.3917
-6.3270 -25.1634 -5.2396
-28.7468 33.2865 -33.8024
14.6350 -16.7207 0.6611
35.0379 12.5586 -23.0948
-14.6693 -39.8029 -31.3294
-38.1675 17.0428 -30.3469
-8.9079 14.8241 8.4628
43.5052 -3.0507 -33.2172
0.8674 4.6506 28.3608
25.2809 -14.6825 -10.4481
35.2492 8.3086 -21.5024
-0.4329 -2.5888 31.6963
-1.8657 -29.3181 -10.6731
-2.0699 21.2603 2.0230
-2.7575 -12.4932 15.5910
-1.5415 -2.1129 31.7110
-7.7469 -15.2269 8.7960
2.7725 3.8027 28.4000
0.7164 24.2503 -2.5698
-37.4576 -3.3940 -23.7133
26.4608 18.8227 -15.5751
24.3823 11.8833 -7.1043
-12.2842 12.0920 8.5541
3.5044 32.8781 -16.5124
1.8723 -11.9653 16.6727
-0.7145 4.2173 29.0789
-5.1458 -1.7711 27.2344
-25.0658 -36.5787 -34.3748
-20.7660 17.1716 -6.8225
2.1664 3.0872 29.8802
-1.9604 -8.6888 21.7465
-2.6042 -2.0769 30.5778
-9.4881 16.1440 6.1964
-5.1714 -20.8960 1.7609
-11.4162 -12.5182 9.0213
-18.5996 -0.7029 6.3751
-27.9806 11.7169 -12.1895
26.2546 31.6231 -29.2411
-14.7637 14.3203 3.2790
35.1724 -15.7304 -25.1682
-7.5005 -33.1956 -18.0456
-0.9051 1.4049 33.2065
39.5895 -3.2226 -27.0539
29.6089 -6.8430 -12.2759
19.0706 10.3024 1.5246
-27.5052 3.6283 -8.0854
12.3189 -9.2428 11.4623
32.3046 19.1451 -23.6192
9.8596 -0.9086 20.1720
27.9536 -24.3253 -22.8337
-6.2521 2.8116 24.9963
-30.4129 9.9782 -14.8392
26.3810 -18.2491 -14.9500
21.8038 -18.5821 -9.5177
11.4058 13.5248 -35.8533
25.2821 5.1080 -35.8533
-3.7214 -4.0746 -35.8533
-7.5355 28.5633 -35.8533
17.2812 -4.8539 -35.8533
38.4714 -12.8145 -35.8533
15.0997 41.4583 -35.8533
1.1983 -0.7154 -35.8533
-3.8203 11.7057 -35.8533
15.7437 -3.9080 -35.8533
14.9685 -24.6285 -35.8533
-13.3352 37.0616 -35.8533
1.8005 -6.3183 -35.8533
-10.8597 -10.1204 -35.8533
-25.9890 -6.8007 -35.8533
36.8591 -18.4612 -35.8533
-41.9619 -8.8632 -35.8533
-3.4853 19.5303 -35.8533
1.4608 -21.0856 -35.8533
-36.3453 -18.8873 -35.8533
-37.2595 -11.8004 -35.8533
-25.7817 11.1206 -35.8533
-40.4005 -17.4234 -35.8533
-5.4906 -36.8199 -35.8533
10.4737 -27.7018 -35.8533
-28.1207 -7.4858 -35.8533
-23.1023 32.8390 -35.8533
-27.8609 -16.4813 -35.8533
-0.4986 40.1128 -35.8533
12.1366 0.9183 -35.8533
-37.4725 5.6270 -35.8533
16.3291 1.5684 -35.8533
9.6188 4.9829 -35.8533
-17.8421 -11.5854 -35.8533
-10.4316 -10.0668 -35.8533
-14.2761 15.2974 -35.8533
-6.4849 -15.4142 -35.8533
27.0677 1.1944 -35.8533
-9.9210 18.5639 -35.8533
10.4478 -11.4634 -35.8533
40.7524 -1.0970 -35.8533
-14.9956 -38.7500 -35.8533
-2.1280 -8.9233 -35.8533
12.4554 36.3821 -35.8533
-11.2615 12.0533 -35.8533
-20.3061 27.3257 -35.8533
5.2193 -25.6523 -35.8533
29.7616 -11.4296 -35.8533
8.1583 3.1807 -35.8533
-10.7439 31.3502 -35.8533
-26.0533 -34.2369 -35.8533
-11.0840 33.4455 -35.8533
-8.2926 -11.1319 -35.8533
22.4301 -37.6803 -35.8533
-0.3887 -7.5211 -35.8533
14.2345 -27.0629 -35.8533
-21.7869 -2.4632 -35.8533
-13.6876 2.8663 -35.8533
1.3768 -20.5210 -35.8533
-0.0587 4.5279 -35.8533
15.0168 33.9528 -35.8533
18.2384 16.2834 -35.8533
-9.1029 -1.1306 -35.8533
18.2145 -19.2507 -35.8533
6.2763 21.2965 -35.8533
-1.3445 0.6278 -35.8533
27.5836 1.6314 -35.8533
-13.0837 -7.5037 -35.8533
2.5446 -21.5087 -35.8533
-40.3094 -1.5274 -35.8533
-10.5235 22.1284 -35.8533
-1.3600 -0.1392 -35.8533
4.0221 -36.4353 -35.8533
-28.3784 11.2523 -35.8533
-6.2701 3.6663 -35.8533
1.8654 20.5987 -35.8533
6.7978 -16.8649 -35.8533
-7.8736 -4.8527 -35.8533
5.7499 -7.4523 -35.8533
9.9598 23.8931 -35.8533
-13.0122 -15.0212 -35.8533
-2.0032 29.4910 -35.8533
1.3558 -0.5615 -35.8533
-0.6258 -0.0277 -35.8533
7.0130 -7.0315 -35.8533
-27.2937 -10.7057 -35.8533
6.1723 31.1963 -35.8533
26.6706 -8.3350 -35.8533
-34.0740 -15.1579 -35.8533
-4.8203 8.6045 -35.8533
-27.2055 33.8470 -35.8533
1.3431 2.6286 -35.8533
35.9282 -12.7824 -35.8533
-0.5414 4.2743 -35.8533
6.5869 25.1812 -35.8533
-16.3525 15.7761 -35.8533
-4.4355 16.1474 -35.8533
3.2676 -13.9327 -35.8533
-10.9825 -15.7315 -35.8533
25.7849 13.3463 -35.8533
-25.6904 -11.4784 -35.8533
0.8280 16.2878 -35.8533
-3.4878 -3.8540 -35.8533
8.7369 2.8650 -35.8533
19.2034 -11.5968 -35.8533
-5.1571 -37.4674 -35.8533
7.3583 8.3205 -35.8533
2.5515 -8.5201 -35.8533
13.9159 1.5812 -35.8533
-0.3942 -15.3924 -35.8533
-12.9156 -7.1773 -35.8533
13.6497 -43.1626 -35.8533
-8.6478 -14.3645 -35.8533
-16.1791 39.3389 -35.8533
0.5392 9.3020 -35.8533
12.3218 3.8992 -35.8533
7.8027 8.2800 -35.8533
31.5823 -0.4664 -35.8533
1.0600 -32.1832 -35.8533
23.8888 -29.9540 -35.8533
-4.1919 -2.3382 -35.8533
2.6511 -6.9938 -35.8533
-17.0898 -28.9543 -35.8533
-19.1644 12.8027 -35.8533
25.4895 -6.4767 -35.8533
-9.2433 3.1155 -35.8533
3.3384 -8.4233 -35.8533
1.9292 -9.3212 -35.8533
-24.0610 -14.3044 -35.8533
20.6677 -11.7636 -35.8533
13.9522 -4.0865 -35.8533
-4.5293 -1.9721 -35.8533
1.3104 30.1413 -35.8533
0.3020 2.1152 -35.8533
27.3169 -18.2751 -35.8533
-8.0751 1.2200 -35.8533
-3.0957 -3.9279 -35.8533
6.3484 9.0087 -35.8533
-17.1359 -38.7004 -35.8533
-8.0990 -42.1034 -35.8533
-1.3306 -2.1797 -35.8533
-0.0469 -0.1744 -35.8533
-8.5405 13.2949 -35.8533
-3.1054 7.4160 -35.8533
-3.9082 0.8569 -35.8533
-18.4351 -5.9871 -35.8533
5.6258 -4.9599 -35.8533
22.0513 -16.6280 -35.8533
-7.2898 25.1126 -35.8533
-19.5973 -32.5801 -35.8533
1.7034 2.9502 -35.8533
10.0681 -40.5080 -35.8533
33.0676 1.0517 -35.8533
25.6669 36.9901 -35.8533
-5.4501 23.3631 -35.8533
-27.4269 -24.3294 -35.8533
2.6490 3.3733 -35.8533
14.3156 -4.6897 -35.8533
4.6384 3.8048 -35.8533
-8.6671 12.8671 -35.8533
1.8217 3.4969 -35.8533
17.9075 26.2134 -35.8533
-8.4022 16.2083 -35.8533
-9.1754 -24.9388 -35.8533
12.3977 0.8687 -35.8533
-37.1949 -12.5811 -35.8533
-6.1275 4.2829 -35.8533
0.9745 -33.0704 -35.8533
-1.6514 1.8618 -35.8533
-35.6238 -3.4144 -35.8533
-5.6365 -2.2780 -35.8533
0.0481 -7.2370 -35.8533
21.6041 -10.5042 -35.8533
0.4324 1.4597 -35.8533
-11.4740 1.5963 -35.8533
-11.4302 4.9349 -35.8533
-8.5877 6.3911 -35.8533
27.8064 -2.2225 -35.8533
-22.2016 -34.1269 -35.8533
-28.6917 -8.5122 -35.8533
-34.1615 12.1284 -35.8533
5.8692 2.4926 -35.8533
-4.7841 43.1216 -35.8533
-6.3558 -15.0706 -35.8533
1.1715 -41.9993 -35.8533
-4.9819 -20.2289 -35.8533
22.5192 11.7446 -35.8533
-24.2626 -19.6437 -35.8533
9.6798 -1.1251 -35.8533
-19.8466 2.3187 -35.8533
-20.9986 -33.4221 -35.8533
-35.9394 4.6382 -35.8533
-8.8893 -5.4281 -35.8533
31.0350 -20.5032 -35.8533
-1.0979 -0.1972 -35.8533
-25.8049 2.3713 -35.8533
-8.9524 -33.6907 -35.8533
-2.0383 -1.1408 -35.8533
-4.4966 -20.4466 -35.8533
-7.5018 7.7163 -35.8533
12.6975 26.3058 -35.8533
-0.4138 1.6704 -35.8533
-16.4166 12.1487 -35.8533
-43.9212 -0.7239 -35.8533
-17.3920 -23.7369 -35.8533
5.4477 1.9020 -35.8533
29.8075 -29.8918 -35.8533
-30.0142 8.0380 -35.8533
40.0733 9.0352 -35.8533
3.5238 0.6377 -35.8533
13.4547 -20.9143 -35.8533
-9.2749 41.5795 -35.8533
0.1504 -8.9219 -35.8533
0.0133 0.1231 -35.8533
29.5711 23.6992 -35.8533
-19.1736 26.8788 -35.8533
-22.4889 4.8843 -35.8533
-17.0636 -26.4505 -35.8533
16.8091 24.5514 -35.8533
-2.3999 -17.3116 -35.8533
35.6543 23.7105 -35.8533
6.9330 -3.5515 -35.8533
18.4078 -2.5325 -35.8533
6.9876 -2.0855 -35.8533
-25.9181 19.1058 -35.8533
-17.4226 -4.4698 -35.8533
0.5975 24.8649 -35.8533
34.6140 6.8888 -35.8533
-5.1341 -5.7739 -35.8533
-15.9450 -7.5002 -35.8533
5.5781 14.3379 -35.8533
36.4342 -15.5981 -35.8533
0.0681 33.6868 -35.8533
38.2906 7.3527 -35.8533
-21.9197 0.8832 -35.8533
-37.4595 8.1814 -35.8533
5.1358 5.9713 -35.8533
-16.7409 -5.7303 -35.8533
-1.8396 5.6286 -35.8533
-17.2491 31.5129 -35.8533
-14.2882 4.0122 -35.8533
33.6469 19.5109 -35.8533
-11.0302 8.4221 -35.8533
10.9052 -14.6083 -35.8533
1.9276 4.1749 -35.8533
-12.3959 28.4360 -35.8533
5.6113 29.6230 -35.8533
-3.6920 -7.8692 -35.8533
21.6198 4.2537 -35.8533
2.2346 0.5493 -35.8533
0.1661 0.0678 -35.8533
-6.7322 -22.1025 -35.8533
-34.4431 -9.9681 -35.8533
-21.5683 29.2721 -35.8533
1.9632 25.8269 -35.8533
18.3406 1.1081 -35.8533
