ply
format ascii 1.0
element vertex 1024
property float x
property float y
property float z
end_header
88.3314 -31.7379 54.0485
89.3871 28.6299 17.0161
17.1820 -92.2741 -42.5876
93.6412 -6.4070 -2.4385
-92.9777 -12.8409 -16.4054
83.6375 42.5970 4.3857
46.9257 81.2878 -12.6038
-90.9894 -23.0362 57.2120
-88.0245 -32.5793 61.1754
-11.7644 -93.1200 -35.5549
-40.8872 -84.4865 -53.7951
1.5534 93.8473 28.9249
-7.8908 -93.5279 31.8365
-53.7323 76.9582 -8.5389
-52.0254 -78.1222 -34.1838
-93.8425 -1.8229 -29.4514
-77.7902 -52.5206 39.9550
-93.8561 -0.8707 -27.2728
57.4281 74.2412 63.6548
-65.1839 -67.5336 35.6609
-73.6522 58.1815 -35.2290
-81.8881 -45.8702 13.2422
-80.8667 -47.6478 7.2041
40.4880 84.6785 -40.4118
76.3615 -54.5771 -27.0283
-54.4671 76.4400 9.4356
-3.3640 93.7999 25.7540
38.1390 85.7621 51.2626
93.8236 2.6194 60.4656
-35.9346 86.7089 26.9773
-73.8583 -57.9197 -40.0827
-76.4374 -54.4707 -18.3121
93.4433 -8.8360 21.7240
-83.3968 43.0664 63.4489
-11.6648 -93.1325 6.2908
69.7369 62.8211 2.2688
69.6958 62.8668 -35.6101
75.4672 55.8071 51.5919
17.9502 92.1277 51.5064
-37.7173 -85.9485 35.1222
-14.4215 92.7456 -30.8300
41.9958 83.9410 10.8969
15.0436 92.6468 43.0926
90.5450 24.7253 -53.5902
35.0804 87.0580 -62.2046
-85.2421 -39.2877 31.1440
93.8572 -0.7460 -21.3725
-34.7472 -87.1915 39.8047
-65.7189 67.0131 1.3705
20.9397 -91.4946 -55.2988
9.3357 -93.3947 46.8139
-18.0500 92.1082 16.3043
-93.6553 -6.1988 -24.2789
-82.2810 45.1615 43.8220
-92.0131 18.5291 -30.7130
-40.4757 84.6844 -0.8996
-43.5936 83.1224 -16.9115
-53.1369 77.3705 -26.8850
93.8580 0.6390 -33.8355
-91.5579 20.6610 14.6537
-43.2322 -83.3109 -48.5411
76.2203 54.7740 -25.2739
93.2232 -10.9167 14.3082
3.9422 -93.7773 -40.4476
-52.1411 78.0451 16.4658
-88.5650 -31.0801 -19.4049
-48.5596 80.3224 -35.9181
91.5624 -20.6414 18.3983
-15.6710 92.5427 -17.3628
51.3912 78.5409 22.2966
10.1033 -93.3148 -53.1411
15.1034 -92.6370 -62.7821
84.6719 -40.5018 55.4832
69.4718 63.1142 46.7813
29.2411 89.1891 54.4000
-91.1971 22.1995 27.8861
30.5917 88.7349 38.8497
-7.5598 -93.5552 -33.4234
-32.3969 88.0918 -12.0338
-93.6448 6.3549 6.5337
-88.4573 31.3853 -44.5068
91.7235 19.9131 -63.6918
-81.7786 46.0650 -23.1448
91.6711 20.1529 9.7634
88.2191 -32.0489 -42.1660
-92.6992 14.7171 -17.8172
52.0107 78.1321 36.7180
-69.5939 62.9795 -50.8709
51.9651 -78.1624 28.4921
-19.2828 91.8581 -29.0876
-81.9345 -45.7873 -24.9632
-0.7869 93.8569 -45.4098
83.3428 -43.1708 -10.8380
-67.6049 -65.1100 -18.2330
73.3529 58.5584 -63.0267
-75.9612 55.1328 24.0866
-85.4220 38.8950 -14.7491
60.4486 -71.8032 43.5239
81.0680 -47.3045 -37.3104
-68.5594 -64.1041 39.4496
-87.1155 -34.9374 40.2453
-63.6488 68.9823 -11.7211
78.1998 51.9089 31.5730
-85.5189 -38.6814 46.9135
-88.7280 30.6116 55.5869
71.2770 -61.0681 34.5555
72.2229 59.9465 55.4813
89.6848 27.6832 -11.5460
-20.5417 -91.5848 53.4496
-41.9249 -83.9764 -49.1607
40.4393 -84.7018 -58.5138
58.6841 -73.2524 -8.2159
93.2690 10.5182 3.5954
93.4032 9.2506 41.8632
-57.3889 74.2714 -13.7555
74.0805 57.6351 20.0703
-91.7252 19.9054 35.0726
-85.5706 38.5668 26.6515
12.0064 -93.0891 -6.2000
93.7878 3.6857 53.1049
91.5754 20.5832 58.1268
-16.2276 -92.4467 -23.1818
90.5852 -24.5775 -1.3448
-93.1092 -11.8495 -14.1729
-41.0479 84.4085 41.2893
57.9247 73.8543 -4.2617
84.4520 40.9584 -35.3343
-57.1828 -74.4302 34.9983
-50.6990 -78.9895 17.4669
83.8721 -42.1332 -5.4233
39.9458 -84.9357 -13.9561
82.3700 44.9990 25.4871
74.3779 -57.2509 31.4587
54.9428 76.0988 -38.2820
1.7079 93.8446 6.7855
43.8508 -82.9870 37.4033
-73.5423 -58.3204 -26.5212
28.7709 -89.3418 -52.6754
-93.7908 -3.6086 30.9702
-20.3203 -91.6341 41.4134
53.9115 -76.8328 34.7090
61.3619 -71.0243 -56.9708
64.5944 -68.0977 -29.0558
48.1405 80.5743 31.8271
0.7112 -93.8575 -46.8197
2.0989 93.8367 -5.3718
-78.5750 51.3391 -63.4015
49.8563 79.5241 53.8411
39.6143 -85.0908 6.0985
87.2320 34.6455 -25.7097
11.8133 -93.1138 -59.0542
-91.3718 -21.4693 -52.7883
78.0981 -52.0617 35.2110
-92.6817 -14.8266 57.5972
92.4634 16.1321 48.1322
39.3468 85.2148 60.9873
-92.5382 15.6973 -23.9275
-64.9256 -67.7820 34.2086
90.5297 -24.7812 -29.5509
85.0505 -39.7006 3.3142
44.9296 82.4079 11.3531
39.5102 85.1391 0.0976
93.4899 -8.3290 -60.1659
-88.5167 -31.2173 -26.1473
-59.7576 -72.3793 56.9938
-92.7330 -14.5026 -60.0503
-37.5844 -86.0067 26.5536
-63.8029 68.8398 -52.8728
68.6907 63.9634 -29.3944
13.7624 -92.8457 33.9792
-51.1469 -78.7002 58.8599
-53.9549 -76.8024 39.2036
73.1474 -58.8149 6.5691
-38.5581 85.5746 11.6281
-43.6514 83.0920 -20.1207
-83.5415 -42.7850 36.2835
48.2942 -80.4823 -0.0898
75.4047 55.8916 -39.1006
-0.7537 -93.8571 -47.5331
-77.6472 52.7319 26.1421
-39.3024 85.2353 -63.8559
69.9153 -62.6226 46.9217
-70.1519 62.3574 -1.0991
-89.5659 28.0658 46.6857
90.9379 23.2384 63.3168
-83.7210 -42.4326 61.2496
-14.7201 -92.6987 -30.6413
-87.1443 -34.8654 -37.7446
80.7041 -47.9227 28.1488
-67.4534 -65.2670 8.5276
59.1768 -72.8549 12.1822
89.1231 29.4415 -15.1084
41.7778 84.0497 -12.5882
-82.5159 -44.7310 -21.3260
63.2272 -69.3689 40.0545
-2.1189 -93.8362 -24.7988
-56.5518 -74.9108 48.2323
-88.2303 -32.0179 1.7178
-45.4190 -82.1392 5.4077
-10.1457 93.3102 -62.9154
72.9769 59.0263 54.8613
35.1786 87.0184 -44.5288
86.1479 37.2595 -40.2399
-2.1662 -93.8352 -11.9859
-9.2005 -93.4082 4.7099
-58.5220 -73.3819 -61.3602
13.5802 92.8725 37.0791
71.6004 60.6887 -58.6265
-89.4436 -28.4532 24.3238
-41.9760 83.9508 37.5678
-93.7457 4.6344 15.9303
41.7802 84.0485 -55.5775
86.8313 -35.6380 12.7567
93.2778 10.4392 21.4859
89.7693 -27.4080 -26.3719
-87.8882 -32.9454 47.2969
-88.6826 30.7429 34.3210
-7.5068 93.5595 43.2551
-44.4281 82.6794 9.7463
-86.1375 37.2836 -47.7808
66.7606 65.9754 -24.8887
-70.3896 -62.0890 -0.4351
74.7212 56.8020 -17.0874
-4.1385 93.7689 10.4793
84.3590 41.1495 -53.6359
-93.8352 -2.1635 -30.5993
39.9592 -84.9293 -9.7523
-93.6024 -6.9516 57.4006
-92.5433 -15.6677 5.7114
92.4668 16.1127 -24.3971
-92.6554 14.9901 5.6916
11.6275 93.1372 -40.8420
-0.9092 93.8558 38.6445
45.4791 -82.1059 23.6305
-61.4662 70.9341 -13.7321
-17.0136 -92.3053 61.8499
-70.0074 62.5196 38.6450
74.5428 57.0360 -9.0650
13.6261 -92.8658 22.5854
90.5264 -24.7932 29.6394
25.1912 90.4165 -59.6096
-22.1142 91.2178 -31.9687
88.5585 -31.0988 43.4013
-82.3863 -44.9692 62.6586
-81.6209 -46.3440 -48.9319
92.0703 -18.2424 50.7260
-11.5761 93.1436 -47.6390
-93.4086 9.1956 19.2678
90.1888 -25.9946 48.6093
-19.3050 91.8534 -40.6160
85.5868 -38.5310 -4.2057
-72.8853 -59.1394 4.5549
54.6746 -76.2917 20.1172
-30.4385 88.7876 44.5105
25.4381 -90.3473 41.2023
-72.1630 60.0186 -44.4452
71.8323 60.4140 -34.0741
3.6788 -93.7880 -26.4595
4.2237 93.7651 28.0859
69.9135 62.6246 46.7476
-19.1461 -91.8867 46.4828
-26.1693 -90.1382 -45.9706
85.1837 39.4140 -16.0058
-19.1603 -91.8837 21.2896
-81.8645 -45.9122 -41.7327
-45.2797 82.2160 -62.2156
-24.6636 90.5618 19.4626
91.4743 -21.0280 -47.2186
49.7330 79.6013 -12.2287
-10.8800 93.2274 -60.1537
27.4498 -89.7566 28.4272
-91.5193 -20.8314 -6.0955
66.0878 66.6494 -20.4774
-73.6990 58.1222 -0.9614
-43.1432 -83.3570 43.4184
91.3628 -21.5073 0.6417
90.5091 -24.8563 -17.3446
-63.3977 69.2131 60.3753
36.6195 86.4219 13.1452
24.9212 90.4912 -34.1570
-46.2528 -81.6726 63.2126
50.2160 79.2975 -56.0420
-82.2949 45.1363 63.8050
38.7383 -85.4931 -37.4963
44.6219 -82.5749 -35.9416
-54.8918 -76.1355 55.9062
38.4685 -85.6148 -5.7117
-69.0264 63.6010 12.4184
57.2970 74.3424 56.5259
24.7746 -90.5315 -40.5140
63.4607 69.1554 -58.2545
91.9067 19.0498 63.8365
-24.7603 90.5354 -17.7350
27.3605 89.7838 58.1535
42.4249 83.7249 60.0203
-31.5658 88.3930 9.5228
-0.6385 93.8580 -63.1217
-24.8695 90.5055 -45.1451
90.0279 26.5463 -62.8947
28.8584 89.3136 7.3783
-61.7042 -70.7271 -51.4790
-79.0723 -50.5697 58.0719
91.9574 -18.8032 -14.4225
-67.4037 -65.3183 24.5640
-83.7715 -42.3328 18.8642
91.5705 20.6052 -14.0201
48.3317 -80.4598 62.1527
-36.4990 86.4728 -5.7611
-53.3059 77.2542 -42.7358
-88.5474 -31.1301 58.7792
-84.6288 40.5919 19.4630
22.3464 -91.1612 35.0930
41.8993 -83.9892 63.2881
34.5023 87.2887 2.2032
-93.3156 10.0963 57.4716
-76.4664 -54.4299 51.9726
30.8238 88.6545 62.6304
17.0358 -92.3012 -25.3187
7.1608 -93.5866 -8.6472
-83.1165 43.6049 -63.5800
-53.9384 76.8139 -58.7033
89.3656 -28.6971 54.8053
13.6231 92.8663 27.4376
4.4266 93.7557 47.8302
-48.1139 -80.5902 -29.5504
81.2077 -47.0642 40.0020
7.2962 93.5762 -42.1950
-24.3180 -90.6552 13.3011
92.9944 12.7188 27.5940
-46.1268 81.7438 -46.5739
-39.0887 85.3335 8.3120
90.0344 -26.5245 4.1191
-0.6808 93.8577 60.0461
-20.7063 91.5477 59.5653
-13.9007 -92.8251 27.9273
-92.6483 -15.0341 49.5220
5.8417 93.6782 -16.5676
93.1344 -11.6498 -22.1963
-62.5584 69.9727 -27.7850
81.9508 -45.7580 43.4572
92.2672 17.2191 8.8834
5.5593 93.6954 11.7951
45.6352 -82.0192 -36.1523
-64.6562 -68.0391 57.9348
-92.8964 13.4164 -57.8816
-66.3963 -66.3420 -41.0704
93.8402 -1.9384 21.4266
74.0342 57.6946 -57.4942
61.4125 -70.9805 -10.7469
10.8576 93.2301 39.7378
-5.9840 -93.6692 18.4114
-6.4357 93.6393 -53.6988
-93.8359 2.1339 13.9842
93.1796 11.2823 -14.8205
82.0159 -45.6413 61.6742
81.3379 -46.8388 -44.9943
-47.3090 -81.0653 -6.7914
-12.8936 92.9704 10.0662
19.0347 91.9098 -24.4129
-16.9427 92.3183 35.8947
-88.2992 -31.8275 53.4638
-2.9132 93.8149 7.1438
-87.2977 34.4797 -62.4671
17.3308 92.2463 -55.9482
28.5509 89.4124 13.0696
80.4392 48.3660 36.4060
64.4315 -68.2519 -53.8456
-36.9873 -86.2651 -10.2357
-3.8177 -93.7825 24.3208
-81.8001 -46.0269 -60.2693
77.9761 -52.2443 -28.2887
-67.5029 -65.2157 -41.0916
93.4189 -9.0911 11.0146
93.1797 -11.2814 -33.7211
89.4669 28.3797 20.2706
73.9048 -57.8603 32.1051
-78.5903 51.3157 -36.7707
-63.4401 -69.1743 -37.7528
-78.0536 52.1283 -52.4293
-27.1447 89.8493 9.9685
-53.2828 -77.2702 -2.1661
-67.8022 -64.9045 10.8575
42.4581 -83.7081 -12.6157
-85.6147 38.4688 -1.5500
30.8305 -88.6522 12.5756
-90.3175 -25.5436 -62.6608
93.4884 -8.3457 21.9372
-4.3552 -93.7591 -17.7466
38.9011 85.4192 -4.9607
-89.5990 27.9598 2.6504
61.4116 70.9813 -38.6300
61.8322 -70.6152 30.9426
-25.8777 -90.2224 -26.0646
-18.4415 -92.0307 55.4108
-93.8422 1.8366 24.3114
93.3970 -9.3133 18.9750
90.8115 -23.7277 -26.7604
49.3240 79.8554 38.6723
-55.3358 75.8135 -32.9779
92.0064 18.5621 -16.8976
-78.7477 51.0738 -6.2721
45.6147 82.0306 -8.3279
84.9278 39.9624 8.3453
-56.2230 -75.1579 16.6899
57.5226 74.1679 61.9592
93.7032 -5.4265 -42.0610
-84.9950 -39.8193 -42.3434
58.5915 -73.3264 -4.4022
-93.8597 0.3086 -38.4780
14.1855 -92.7820 53.3885
46.4308 81.5715 -47.0228
-10.5945 93.2603 -13.7311
-93.8319 2.3034 42.0771
67.7543 64.9545 41.7031
93.2965 10.2715 -45.3819
-55.3972 -75.7686 31.9042
72.8813 59.1443 28.1513
21.4660 91.3726 45.6217
-4.6149 -93.7466 31.5465
-40.7865 -84.5352 34.3181
74.8604 -56.6184 -29.7565
-79.6005 49.7342 21.3151
-27.4445 -89.7582 13.1543
32.4300 88.0797 55.0938
-10.4891 93.2722 -8.2328
6.9891 -93.5996 -23.9263
-3.9998 93.7749 6.3471
-78.2065 51.8987 -62.8968
87.2618 -34.5705 39.1807
32.5783 88.0249 -56.9125
-57.3194 74.3251 -6.9127
2.2963 -93.8321 -20.9879
1.7844 -93.8432 -42.8186
-56.5358 74.9229 21.1046
83.1535 43.5342 54.7491
31.3611 -88.4659 14.1818
-7.1478 -93.5876 53.6320
28.8136 -89.3281 48.0755
4.8246 -93.7361 -40.5640
46.0380 -81.7939 -28.5011
-93.8055 3.2033 41.8167
-92.9426 -13.0922 32.0089
93.4510 8.7544 31.0870
-79.0027 50.6785 10.4312
-53.0975 -77.3976 29.4536
89.8026 27.2987 59.2162
-80.0657 48.9817 22.2273
-23.2788 90.9276 43.4008
-86.6800 36.0044 16.4108
-90.1076 -26.2744 -23.5235
-92.7772 -14.2172 7.2171
-90.7760 23.8629 57.4638
81.8293 45.9749 -55.7863
60.9454 71.3820 -46.3758
-4.5521 93.7497 55.5416
57.3154 -74.3282 -55.7411
-90.1791 -26.0282 50.7338
91.2060 22.1631 43.1691
-77.2305 -53.3403 31.6192
92.3239 -16.9122 -45.9288
-80.7840 47.7878 -37.3095
-80.7944 -47.7702 -26.5101
23.9273 90.7591 13.2768
74.6128 -56.9444 25.7634
-34.5218 -87.2810 -21.4202
21.3081 -91.4095 58.9172
-73.6562 58.1765 -35.4367
50.4875 -79.1249 -47.4891
73.2933 -58.6329 -40.1291
64.9466 -67.7618 -8.2329
63.4982 -69.1210 -19.6368
61.8100 70.6347 -1.8328
-74.0815 -57.6338 -37.4084
-4.6229 93.7463 21.2648
-27.5045 -89.7398 39.2983
53.1099 77.3891 63.8459
-58.1782 -73.6548 37.9884
-80.8141 47.7369 45.9782
-21.7633 91.3022 -4.3191
56.5577 -74.9063 10.4521
-18.3458 -92.0498 47.3775
-20.7093 -91.5470 63.0226
89.8476 27.1505 32.7764
92.0401 -18.3943 -52.7921
52.4790 -77.8183 15.1263
81.5435 -46.4800 -31.7250
-59.4327 -72.6463 -39.0849
71.7259 -60.5403 -18.0450
-28.8131 -89.3282 17.0607
74.5475 -57.0298 58.5626
-73.2322 -58.7092 21.1036
2.9022 93.8153 -44.4989
-75.5203 -55.7352 -21.0730
64.7081 -67.9897 -38.1115
-71.4497 60.8660 -42.4459
-90.1955 25.9711 42.7083
5.8852 93.6755 -54.4130
-32.1138 88.1954 6.9464
93.8442 -1.7323 -12.3246
-41.2020 -84.3334 27.1863
75.3062 56.0242 -43.9170
89.5123 -28.2362 4.2254
-84.5236 -40.8105 25.4223
-84.3041 41.2620 42.6176
26.4124 -90.0673 -61.8563
-36.2911 86.5603 -10.1473
85.6420 38.4082 -33.9670
91.3941 -21.3743 35.8782
65.6387 67.0917 36.3498
61.3583 -71.0274 -20.3520
63.1172 69.4691 48.9857
87.5169 -33.9194 -4.1320
-59.1680 72.8621 9.9662
86.6138 -36.1632 6.9478
-8.7696 93.4496 36.1493
87.4336 -34.1336 -9.7237
-15.4193 -92.5850 -20.6311
93.5008 -8.2052 3.1710
77.2870 53.2583 33.4396
36.4298 -86.5020 -25.0746
93.4452 8.8165 -10.8718
82.3652 45.0078 -6.4003
-66.5616 66.1762 -32.7357
65.5637 67.1650 5.2009
54.1257 -76.6821 63.2840
42.9004 83.4822 4.2327
91.0533 -22.7823 52.1415
90.3559 25.4075 -28.0964
38.9636 85.3907 31.2364
-76.4620 54.4361 -44.9589
0.0269 -93.8602 40.8335
49.1205 79.9807 32.1895
93.0587 -12.2398 -56.1704
91.1770 -22.2820 -52.7292
7.1904 93.5843 -43.8384
90.6069 24.4975 47.5363
-77.6614 -52.7109 -25.7165
39.2965 -85.2380 10.5377
35.3510 86.9485 -47.2668
28.6300 -89.3871 -61.8221
73.1663 -58.7914 46.4051
89.8077 -27.2819 48.1793
8.6487 -93.4609 42.9057
-56.9630 74.5986 58.4610
-84.4168 41.0309 -7.0566
26.6124 -90.0084 7.3499
93.2777 10.4406 -29.4705
-51.3413 78.5735 -13.0774
-93.0237 -12.5031 -1.4985
21.0331 91.4732 47.2745
11.5338 93.1488 -19.8556
-83.0125 -43.8024 -61.6263
-68.6182 64.0411 1.0083
-92.3961 16.5135 -19.9928
-23.9451 -90.7544 38.7700
15.5140 -92.5691 56.3314
-91.3681 -21.4851 63.0774
92.9452 -13.0735 43.8527
63.9194 -68.7317 -22.6283
26.9862 89.8970 32.0039
-89.6109 -27.9216 -63.8145
81.2205 -47.0421 19.2098
-72.0151 60.1960 25.8641
-86.8952 35.4817 -17.4892
71.6401 -60.6418 -62.6289
-40.7646 84.5457 16.3312
86.9728 35.2912 -63.4499
-53.1730 77.3457 52.0602
-78.3738 -51.6458 24.4243
93.8031 -3.2727 -2.9554
-89.9819 -26.7020 33.1803
-68.2862 -64.3951 -59.0104
-80.7263 47.8853 28.7799
-4.7121 93.7418 9.8790
35.0195 87.0825 40.6312
91.7437 -19.8196 22.7563
84.0282 41.8210 9.8199
56.0054 -75.3202 -61.6516
43.2724 83.2900 54.9874
-41.1254 84.3708 18.0992
12.6014 93.0104 -46.8116
-38.7622 85.4823 12.6415
-10.2544 -93.2983 -39.0314
82.3394 45.0550 -31.5592
39.0690 -85.3425 -15.9989
82.3623 45.0131 32.5839
17.7150 92.1733 43.5999
52.7269 -77.6505 38.4754
-58.6559 73.2749 -49.3887
60.1397 -72.0621 -12.8416
43.4246 83.2108 47.0668
-93.2820 -10.4022 49.3634
-93.3495 -9.7774 -62.9090
93.3263 -9.9966 57.6114
93.6852 5.7276 9.3629
-54.9784 -76.0731 -38.4619
86.3749 36.7303 49.1777
-0.3290 -93.8596 38.8638
87.7163 -33.4003 52.1442
-12.5898 93.0120 47.3587
-4.4151 93.7563 46.5779
-85.5188 38.6815 44.7205
75.0024 56.4302 -51.4924
-84.9531 39.9087 -3.2197
-69.5565 -63.0208 -59.2591
42.2986 83.7888 -19.1740
88.7344 -30.5932 52.7017
93.7275 -4.9893 57.5445
88.9027 -30.1006 -28.4125
-22.5041 -91.1224 52.8941
-92.2927 17.0817 -35.6656
-10.4978 93.2713 -31.6330
-13.6082 92.8684 -61.1824
-77.5929 -52.8117 -42.3690
-92.7640 14.3026 36.5315
-19.9571 91.7139 -53.7180
86.8607 35.5661 -6.8497
90.8363 23.6327 16.3997
73.6786 58.1480 -44.2273
-35.9862 86.6875 -16.2562
42.9050 -83.4799 -24.9458
74.8688 56.6074 -13.6740
90.0755 -26.3844 61.0308
-88.3802 -31.6017 -2.0971
79.7331 49.5213 52.6933
16.9885 92.3099 51.9184
93.7870 3.7065 -40.0669
-89.1869 -29.2478 -56.8955
-54.0138 -76.7609 -61.1951
-67.8834 64.8196 -17.7869
-90.6769 24.2369 7.9032
-81.6975 46.2087 49.3637
-10.3685 -93.2857 -20.2837
-6.6429 -93.6248 -5.5075
-44.4534 82.6658 -4.8725
93.5205 7.9779 -52.0778
91.4572 -21.1022 -21.0062
67.9793 64.7189 32.3920
-59.4132 -72.6623 24.4227
-7.1209 93.5897 43.2162
67.3584 65.3650 46.9759
65.1050 -67.6097 -31.7587
-92.8923 -13.4443 -51.8250
-59.9460 72.2233 -8.9854
93.7191 -5.1446 22.1319
0.9773 -93.8551 41.0427
64.2072 68.4629 -14.9319
22.3958 91.1491 -3.1605
89.2267 29.1259 8.4197
54.6900 76.2806 58.6205
-40.5924 84.6285 52.0037
-10.0039 -93.3255 57.2218
66.8749 65.8595 61.2434
5.9920 93.6687 -62.1437
23.6637 90.8282 -44.2106
-70.8252 61.5915 50.6488
93.4426 -8.8433 -16.6605
-93.8441 1.7363 -7.3972
-10.9137 93.2235 0.9404
-93.7096 -5.3137 1.5901
84.4323 40.9990 -43.2921
30.0955 88.9044 -11.4678
82.4822 44.7930 21.4640
85.7057 -38.2656 -9.2598
39.7845 -85.0113 57.9066
84.5419 40.7726 -22.8003
-15.2577 92.6117 54.1997
-66.5636 -66.1741 48.7421
-42.3466 83.7645 -23.1413
-38.2974 -85.6915 33.5939
-90.6286 -24.4170 28.5349
7.9054 93.5267 2.6679
93.3805 -9.4772 -51.5738
82.5292 44.7064 -52.8371
35.9107 -86.7188 12.3417
-73.2868 58.6411 49.8454
-54.2303 -76.6081 -38.1223
-53.0718 -77.4152 41.8744
28.8664 -89.3110 20.3495
-13.3642 -92.9039 -30.4174
-87.7756 33.2442 -41.0598
-86.3214 36.8558 4.8237
1.2205 -93.8522 7.6521
-38.7618 85.4825 -60.0692
-74.1834 57.5026 -44.4344
-35.6469 86.8276 -59.1052
92.7412 14.4502 -24.0892
-93.4318 -8.9570 -30.4931
-16.9265 -92.3213 57.3960
77.9969 52.2132 -34.6735
-58.5992 -73.3203 -61.8856
84.4289 41.0059 22.6513
79.5239 49.8565 0.1360
7.5348 93.5572 5.3332
-19.3902 91.8355 -4.4503
-93.1952 -11.1525 36.7437
-58.9504 -73.0382 15.2663
39.9716 84.9235 -60.6553
-10.3669 93.2859 22.0179
78.5316 51.4055 -41.9193
88.9333 30.0100 52.8298
-17.0383 92.3007 -15.4619
88.4044 31.5341 -17.7796
-79.1576 -50.4362 -16.7312
-58.6967 -73.2423 40.9614
91.6689 -20.1629 37.5556
-90.9943 -23.0166 34.9086
93.5579 -7.5272 -13.1223
-57.7479 -73.9927 5.8964
-13.6852 92.8571 -11.9838
-84.6972 -40.4488 15.8874
84.6103 40.6304 48.9434
43.6996 -83.0667 27.0249
93.2671 10.5348 -49.0910
1.2010 -93.8525 -35.0947
64.3557 -68.3233 -54.6039
19.9263 -52.4318 63.8602
-12.2252 2.0653 63.8602
-6.6342 -35.8579 63.8602
12.5863 -24.3566 63.8602
-1.6096 -0.2373 63.8602
1.9377 1.7036 63.8602
7.3808 37.0224 63.8602
40.4992 78.6458 63.8602
-14.6225 20.7841 63.8602
-6.1125 81.9846 63.8602
-32.9807 71.6262 63.8602
-13.6131 8.3807 63.8602
0.0199 -0.2470 63.8602
-54.8351 27.6859 63.8602
-1.2877 -1.4726 63.8602
-86.5334 -19.1253 63.8602
8.4194 46.0443 63.8602
7.6220 1.2977 63.8602
-73.9889 -38.2838 63.8602
42.2445 20.9633 63.8602
-38.4033 -26.9184 63.8602
44.8719 19.2677 63.8602
77.7365 -0.5672 63.8602
29.2090 28.2828 63.8602
48.0594 -9.8181 63.8602
-30.7130 -11.7406 63.8602
59.9190 13.0694 63.8602
-16.4965 72.7329 63.8602
15.3376 21.2007 63.8602
-88.9092 25.0139 63.8602
7.5243 -33.7471 63.8602
39.8190 -75.5624 63.8602
5.3634 2.9502 63.8602
-23.2325 -89.4097 63.8602
79.5737 -38.3791 63.8602
20.5829 32.2225 63.8602
-29.7877 47.1069 63.8602
11.7113 -5.9204 63.8602
-75.1768 -29.1391 63.8602
2.0923 -20.6669 63.8602
76.9230 -19.0827 63.8602
28.3369 -4.1984 63.8602
27.2371 -18.1186 63.8602
37.2044 -65.0160 63.8602
-66.8904 18.7772 63.8602
25.9042 60.2035 63.8602
12.5352 -43.9520 63.8602
-18.9989 10.7921 63.8602
59.4525 72.4206 63.8602
-51.5451 25.2080 63.8602
6.0292 -2.2012 63.8602
-78.0381 26.0526 63.8602
33.9752 -71.5043 63.8602
20.1825 62.0126 63.8602
23.2229 49.9366 63.8602
13.2950 -13.5805 63.8602
1.2032 -4.2225 63.8602
-11.8110 -51.4449 63.8602
-1.0475 7.9060 63.8602
-11.6107 -40.4505 63.8602
-5.7390 -52.0982 63.8602
-54.5495 -2.5198 63.8602
-12.3260 60.4340 63.8602
0.6066 36.1664 63.8602
-28.1910 52.0196 63.8602
14.4543 39.5188 63.8602
-37.0626 53.6241 63.8602
1.7916 17.2311 63.8602
-0.3659 -18.9269 63.8602
25.6194 16.7760 63.8602
-9.3355 -26.6797 63.8602
8.1473 28.2453 63.8602
36.5020 27.9265 63.8602
-48.1710 -3.7728 63.8602
-54.1508 40.8360 63.8602
-20.7105 -4.7060 63.8602
-71.9790 -12.4058 63.8602
-7.3257 13.5441 63.8602
-13.4401 -5.6713 63.8602
17.1670 -42.3596 63.8602
-26.5778 -21.4038 63.8602
-0.1306 0.1338 63.8602
-0.8567 -66.9281 63.8602
-22.7626 5.2631 63.8602
52.2447 -10.2690 63.8602
-49.5634 -24.1612 63.8602
69.3626 23.1930 63.8602
55.6531 39.9386 63.8602
-31.2019 8.4904 63.8602
29.6859 42.6736 63.8602
78.4666 -11.3106 63.8602
16.4672 23.9639 63.8602
30.3766 81.2365 63.8602
-21.7881 -28.8151 63.8602
5.9893 5.1484 63.8602
37.5203 -41.0870 63.8602
-13.1868 5.4647 63.8602
4.2006 -12.6154 63.8602
34.7338 -87.1104 63.8602
-8.2567 -20.9779 63.8602
7.2085 21.3149 63.8602
-22.6287 -0.4991 63.8602
-19.8761 62.7177 63.8602
74.6993 -9.2806 63.8602
9.6053 16.9410 63.8602
33.5054 30.1832 63.8602
7.0377 -82.6592 63.8602
0.1915 -58.4565 63.8602
66.6734 13.1344 63.8602
-27.8079 -16.1017 63.8602
74.1250 53.8233 63.8602
18.7054 -0.2193 63.8602
32.6009 -47.9989 63.8602
30.4474 30.5401 63.8602
0.5578 -3.5412 63.8602
0.2824 1.2832 63.8602
-12.2421 -5.4523 63.8602
-89.1106 3.0661 63.8602
-32.5004 -53.7237 63.8602
-8.3062 5.7818 63.8602
45.3002 36.9672 63.8602
44.3146 -44.3100 63.8602
-4.3580 -26.3366 63.8602
7.0393 34.5239 63.8602
31.5617 40.9190 63.8602
-21.3727 55.6215 63.8602
-9.8836 -28.8474 63.8602
44.1640 18.9981 63.8602
-4.1454 36.6608 63.8602
0.4451 -87.8237 63.8602
27.1410 -33.8406 63.8602
13.8527 9.8532 63.8602
-40.1418 12.5320 63.8602
68.9683 29.7668 63.8602
-0.9001 5.8554 63.8602
-16.8478 -3.7994 63.8602
4.5570 19.6051 63.8602
14.6872 7.4046 63.8602
19.3875 -69.4600 63.8602
-12.6245 -63.2113 63.8602
22.2946 -56.5187 63.8602
-71.6019 -38.8037 63.8602
26.8380 29.1541 63.8602
33.5707 -19.6867 63.8602
7.2947 -28.9466 63.8602
-8.1409 32.1462 63.8602
-64.2479 5.4719 63.8602
17.8143 48.6235 63.8602
-4.1691 18.3548 63.8602
-13.9400 -35.7480 63.8602
-65.6587 -15.3322 63.8602
-46.4536 18.6430 63.8602
-50.3629 -28.5267 63.8602
61.4287 1.4598 63.8602
-14.0884 49.4144 -63.8602
75.2007 -7.3632 -63.8602
-20.6189 29.5701 -63.8602
-21.7759 2.3653 -63.8602
-66.6806 -38.2179 -63.8602
23.5538 24.2512 -63.8602
61.1227 69.0069 -63.8602
6.7211 -48.5111 -63.8602
-5.2600 69.0469 -63.8602
-53.1414 -45.9622 -63.8602
-1.5865 0.4911 -63.8602
23.0396 66.4899 -63.8602
-35.7782 42.5723 -63.8602
10.8945 -67.3884 -63.8602
-13.7198 57.0707 -63.8602
30.8274 14.2470 -63.8602
-64.2053 -18.5599 -63.8602
2.7503 91.4622 -63.8602
3.2073 6.4947 -63.8602
62.8409 -43.8063 -63.8602
88.6194 30.2864 -63.8602
-9.2872 -19.8033 -63.8602
-10.4674 7.5060 -63.8602
-12.6176 -48.8994 -63.8602
44.3318 10.4569 -63.8602
-8.5472 5.8195 -63.8602
-62.8142 -29.0086 -63.8602
-8.8113 -23.6835 -63.8602
-33.0103 -1.2546 -63.8602
-2.3862 -68.9963 -63.8602
12.9830 14.2979 -63.8602
-4.5054 -37.6490 -63.8602
-74.4873 18.6375 -63.8602
-16.5988 21.8967 -63.8602
-24.9783 2.1289 -63.8602
50.9695 -76.1483 -63.8602
-58.1997 3.1691 -63.8602
-8.7297 20.6338 -63.8602
-62.6928 11.2823 -63.8602
-6.4081 -63.0853 -63.8602
-11.2911 10.3673 -63.8602
19.5823 -4.0515 -63.8602
-31.6034 -79.1432 -63.8602
-25.2258 4.0907 -63.8602
13.6104 -9.5014 -63.8602
-65.2890 -32.7236 -63.8602
58.8090 64.2619 -63.8602
19.8123 42.6248 -63.8602
10.9598 7.2440 -63.8602
11.2542 10.7200 -63.8602
45.9902 -61.6815 -63.8602
-79.3044 -6.4926 -63.8602
-28.8643 -71.6832 -63.8602
17.7535 -34.3224 -63.8602
82.6765 6.9183 -63.8602
-10.7085 -4.7263 -63.8602
17.4888 -11.0166 -63.8602
37.3158 36.3042 -63.8602
4.2159 -26.7030 -63.8602
9.6310 -30.9807 -63.8602
22.2864 -4.3319 -63.8602
-7.4340 18.9072 -63.8602
0.5162 -31.6391 -63.8602
-15.6502 47.0668 -63.8602
22.2941 -34.2321 -63.8602
-77.2555 -14.8505 -63.8602
53.3275 -24.2362 -63.8602
-63.2454 -31.3311 -63.8602
-24.3817 12.1840 -63.8602
86.8030 -24.0660 -63.8602
15.8655 68.7926 -63.8602
27.7185 -21.7437 -63.8602
10.9330 -16.5136 -63.8602
21.3785 33.7717 -63.8602
0.9588 -5.1319 -63.8602
-56.1401 68.2242 -63.8602
-62.6513 -19.8499 -63.8602
13.4509 -63.1719 -63.8602
-23.9277 -55.1058 -63.8602
-39.1418 -83.9993 -63.8602
25.6478 25.0883 -63.8602
16.2116 -7.5729 -63.8602
6.0493 63.8110 -63.8602
25.3738 17.6852 -63.8602
19.4670 -2.6336 -63.8602
53.2236 13.9821 -63.8602
-73.8247 -7.2333 -63.8602
3.9775 9.3109 -63.8602
-57.6291 -50.8430 -63.8602
-64.5015 -9.1423 -63.8602
-18.6615 0.7139 -63.8602
-49.5833 -7.4714 -63.8602
-30.0191 -35.8440 -63.8602
-6.6939 38.9115 -63.8602
-79.8052 34.5856 -63.8602
37.8609 -75.9143 -63.8602
-15.4763 -4.9741 -63.8602
35.7805 -61.4687 -63.8602
7.9478 -52.1274 -63.8602
-10.9352 -20.6303 -63.8602
53.4562 70.1484 -63.8602
-9.6232 0.8348 -63.8602
-0.7793 16.7175 -63.8602
4.6284 26.0297 -63.8602
-4.5253 4.8536 -63.8602
-24.6789 -9.7261 -63.8602
1.4811 -9.0447 -63.8602
11.8874 53.7534 -63.8602
-27.2607 -60.2734 -63.8602
29.5035 5.3538 -63.8602
36.9522 -59.1054 -63.8602
20.5154 8.7672 -63.8602
-8.9088 19.5168 -63.8602
-2.1887 -2.5500 -63.8602
10.0559 -20.8805 -63.8602
-70.4743 -52.1283 -63.8602
-19.6962 -28.2767 -63.8602
16.7264 -44.8128 -63.8602
-46.7097 -57.8820 -63.8602
-10.4303 -73.3727 -63.8602
-34.9196 54.2301 -63.8602
15.5800 45.9207 -63.8602
-13.2646 30.2974 -63.8602
28.7734 -61.2133 -63.8602
24.6728 -24.9289 -63.8602
20.2977 39.7325 -63.8602
-32.6449 -38.2170 -63.8602
-65.5063 -58.5894 -63.8602
-49.8278 -1.1806 -63.8602
-8.5620 54.8191 -63.8602
-68.0748 -62.6654 -63.8602
31.0709 65.6858 -63.8602
-0.6646 -7.6573 -63.8602
26.4889 44.1040 -63.8602
25.0923 -65.9760 -63.8602
42.8280 52.2986 -63.8602
-21.0475 11.2118 -63.8602
-28.7086 -7.3241 -63.8602
-63.9799 58.8724 -63.8602
-26.8519 19.5983 -63.8602
5.1125 0.1426 -63.8602
-19.0327 -15.6946 -63.8602
-15.8676 -17.9662 -63.8602
21.2486 39.0028 -63.8602
-14.9820 -32.6585 -63.8602
-33.4840 22.5519 -63.8602
-38.1814 21.1992 -63.8602
25.3375 -28.7427 -63.8602
-56.2081 -36.4839 -63.8602
-20.0239 -22.1061 -63.8602
4.6402 35.3986 -63.8602
38.1472 19.1480 -63.8602
46.3469 27.2689 -63.8602
-0.2908 0.7820 -63.8602
