ply
format ascii 1.0
element vertex 1024
property float x
property float y
property float z
end_header
-5.2843 43.1900 -76.2593
-34.9954 25.8578 5.8905
31.4717 -30.0473 51.1488
37.8963 -21.3816 23.4190
42.9561 6.9340 -47.5721
-37.2253 -22.5295 -4.3873
38.4617 -20.3470 -83.6548
2.7942 43.4223 -10.7388
-25.3320 35.3779 82.8021
10.9934 42.1005 -18.5893
9.1130 -42.5471 -53.0608
28.8485 -32.5740 23.8243
-29.7700 -31.7341 -34.4679
4.0110 43.3268 24.3963
-25.0979 -35.5443 -9.6146
-34.6515 26.3168 43.0703
43.4999 -1.0326 -64.5014
32.8694 -28.5115 68.3578
40.5294 -15.8326 43.0142
38.8671 -19.5615 -69.0808
-34.5575 26.4402 -53.0502
41.2252 13.9206 -13.4553
-18.0992 39.5692 67.4979
-42.3270 -10.0859 71.6600
-43.4634 -2.0581 49.8632
15.8975 40.5040 46.1681
-14.4770 -41.0332 -14.6220
23.6080 -36.5509 9.8668
-1.9040 -43.4704 -24.0445
-4.1854 43.3103 68.7442
11.6512 -41.9232 -55.5145
38.8932 -19.5095 -70.4546
-36.8185 23.1884 11.5951
37.1507 22.6524 53.0548
36.2075 -24.1314 -22.4873
-43.2960 -4.3317 7.7827
30.0274 31.4907 3.3225
-27.1321 34.0170 -63.7263
18.8388 -39.2225 74.8901
-42.1834 -10.6707 82.2021
-42.3968 9.7885 42.6691
39.3436 18.5845 71.4626
-0.9885 -43.5009 -72.5207
-22.7552 -37.0878 24.5641
-43.3978 -3.1522 44.9324
-34.5558 26.4423 -9.9522
32.7187 -28.6844 71.9323
-15.7543 -40.5599 80.0193
-14.8038 40.9164 12.2750
-30.8001 30.7352 -3.3411
-39.0635 19.1664 64.3758
41.0057 14.5546 5.2267
-8.2413 42.7245 21.3933
-9.6101 42.4376 13.3014
-31.8847 -29.6086 1.0351
8.7450 42.6243 71.8105
-34.1229 26.9988 29.9291
18.7035 -39.2872 43.8981
-0.7861 43.5050 69.0727
33.9169 -27.2570 -74.8350
-43.0747 -6.1544 82.0263
30.3817 -31.1489 -66.6162
-8.1758 42.7371 -4.1497
-12.2448 -41.7537 2.2404
12.6422 -41.6351 35.5823
-24.8973 -35.6852 1.8087
32.9470 -28.4218 -19.4875
2.6657 43.4304 65.2619
11.7576 41.8935 50.1834
24.6293 -35.8706 -55.9992
25.5705 35.2059 -71.8598
-41.7522 -12.2498 -70.7713
25.9293 -34.9425 -44.7365
34.7436 -26.1952 6.0234
-26.4765 -34.5297 -41.8512
-11.8093 -41.8789 -28.5836
-7.1176 42.9260 53.8692
43.4857 1.5170 60.7113
27.5453 33.6833 -47.6182
-12.1363 -41.7853 -72.0106
43.3136 -4.1513 63.2990
3.7470 -43.3505 -67.5176
-12.3577 41.7204 28.3897
-17.1463 39.9913 9.6922
1.7098 -43.4785 -28.5823
28.6744 -32.7274 24.3555
22.2931 37.3674 45.7610
17.4029 39.8803 -33.8937
38.6266 -20.0322 -59.5026
34.1557 -26.9573 31.8024
9.4958 42.4633 -72.9226
1.2370 43.4945 76.3023
-43.3927 -3.2217 -64.2935
-2.9910 -43.4092 2.1506
-18.6348 -39.3198 -76.6418
39.0660 19.1613 29.5334
8.8742 42.5976 7.0065
42.2481 10.4117 -56.0044
-43.1180 -5.8434 -29.8826
9.3280 -42.5005 -43.6426
41.9804 11.4433 69.0111
25.8210 -35.0226 75.5847
-11.4000 41.9922 -36.4028
-15.6448 40.6023 18.0240
-36.2784 -24.0246 -64.0155
-27.5132 -33.7094 9.0819
-23.0785 -36.8875 -59.9427
23.8086 36.4205 -57.9648
-43.4564 2.2007 -48.2834
-9.9331 -42.3632 11.9846
39.7593 -17.6778 10.3990
40.9909 -14.5962 -18.0552
14.0699 41.1745 77.6542
30.2118 -31.3138 -32.1448
-43.0459 -6.3526 21.7408
-43.4104 2.9736 -10.7017
-35.3336 -25.3938 -66.4110
-6.8841 42.9641 -2.9349
38.5270 -20.2230 -22.5503
29.2301 -32.2321 6.1334
14.9994 40.8451 12.9380
-16.3584 -40.3200 -48.3386
-41.0424 14.4508 24.9793
38.5283 -20.2207 72.5433
-24.5921 -35.8961 32.6264
-43.1009 -5.9679 -70.8353
38.2939 20.6611 -36.3829
25.6901 35.1187 -23.1034
15.1551 40.7876 36.7685
-42.3279 10.0822 19.6542
39.0698 19.1534 11.5329
-37.5856 -21.9231 66.1045
-2.7364 -43.4260 28.8045
32.7447 -28.6547 60.6255
17.5131 -39.8321 47.5295
30.8740 -30.6611 71.8280
-16.7274 40.1684 19.7173
-21.8859 37.6073 -16.0486
-40.9012 14.8458 48.7280
-42.7670 8.0181 -22.9970
-30.8595 -30.6756 49.7472
-17.5084 39.8341 18.7551
19.7966 38.7479 -26.5896
25.6638 -35.1379 13.9948
-21.1328 38.0356 62.0025
-38.1940 -20.8452 -2.7788
-11.9918 -41.8270 40.4605
33.4908 27.7789 -66.4583
21.3291 -37.9259 -52.3933
40.4676 -15.9899 -8.5266
-21.5861 37.7802 -32.0360
-42.9199 -7.1547 -52.0685
11.5508 41.9509 30.7694
41.0799 -14.3438 16.4328
41.8839 11.7916 -81.9968
-6.9183 42.9586 17.2045
-37.6549 -21.8039 58.9387
-28.4872 32.8904 -42.1594
-22.0233 37.5270 -59.1695
27.4401 33.7690 -79.7785
-10.4287 -42.2439 26.1225
-27.5868 33.6493 12.9946
41.8781 11.8123 -48.0806
20.1268 -38.5774 -24.5906
41.2896 13.7286 15.6547
-13.1593 -41.4745 64.5503
-43.4671 -1.9788 -55.9749
-20.6789 38.2843 -70.2648
21.3341 -37.9231 -84.0267
-14.1922 -41.1325 28.2403
20.5917 -38.3313 25.2718
33.0744 28.2734 37.9648
33.8381 -27.3548 -45.0851
6.7294 -42.9886 14.5157
37.8990 -21.3768 78.7596
4.6770 43.2600 -51.1517
-20.6787 -38.2844 -21.6963
-39.1373 19.0151 -81.1868
43.4716 1.8778 -53.3113
-26.5816 34.4488 28.3666
-12.2898 -41.7404 22.4802
-26.1346 -34.7891 -46.6876
26.7518 -34.3169 51.0395
41.5158 -13.0284 -62.8900
34.1025 -27.0245 81.7003
-5.1221 43.2096 -60.6344
10.4794 -42.2313 -45.7382
-21.5656 37.7919 12.3850
-23.3745 36.7006 -34.4432
-37.0057 22.8884 78.7684
4.7987 -43.2467 -39.9896
29.1972 32.2618 84.1523
-38.4421 -20.3840 -59.2511
-43.4238 -2.7712 -4.8069
-41.9756 -11.4610 -47.0818
42.8759 7.4137 83.8844
40.5727 -15.7214 19.4445
10.5640 -42.2102 68.0212
19.6732 -38.8107 66.9780
-42.4977 -9.3409 -11.6593
37.5609 -21.9656 42.2016
-31.3240 30.2011 69.4921
29.5509 31.9382 22.4700
-42.2004 10.6031 -67.1192
43.1400 -5.6783 -1.5452
-29.5973 31.8952 -39.5566
-7.3702 -42.8834 0.8941
-42.4502 -9.5544 -55.8739
-38.3080 20.6349 -20.8451
2.2963 -43.4515 32.2172
5.5944 43.1510 79.0070
0.8486 -43.5038 45.5981
-29.8931 -31.6181 46.5152
-42.5870 -8.9246 -4.2579
34.8466 -26.0580 28.0709
40.1958 -16.6614 -76.4610
37.5940 21.9088 58.6088
13.1157 41.4883 15.5882
43.4675 1.9708 48.3210
38.4621 -20.3462 -67.4263
-1.9540 43.4682 59.6888
41.8143 12.0360 -35.3643
-30.7098 30.8255 21.1007
-40.3719 -16.2301 84.3396
-31.0696 -30.4629 -67.0543
-26.7132 -34.3468 26.6933
-1.4694 -43.4873 48.3934
38.6695 19.9493 -49.6673
15.6792 40.5890 -2.2508
-32.3063 -29.1480 28.3397
6.0609 43.0879 58.8010
7.2125 42.9102 -53.5661
41.1679 -14.0891 61.2839
1.3090 43.4924 -74.9118
-38.5952 -20.0926 -75.0081
-42.6078 8.8247 -63.6076
-9.5954 -42.4409 -23.3900
19.9893 -38.6488 -13.1459
43.4924 -1.3088 -84.4499
-26.1021 -34.8135 -25.0101
-41.7919 -12.1138 68.0584
-42.6530 -8.6037 84.1408
5.2344 -43.1961 -34.7682
-36.7337 23.3225 -66.2487
36.6700 23.4226 57.2566
41.9193 -11.6653 31.2897
23.1207 -36.8611 39.2530
35.2384 -25.5256 -10.2786
16.0982 -40.4247 73.3122
33.6462 -27.5905 -42.6570
36.1466 -24.2225 13.8641
4.2666 43.3024 15.4515
-40.0720 -16.9571 -68.3935
38.6205 20.0440 18.4291
33.8214 -27.3755 -41.0195
-43.0878 -6.0618 -45.3107
7.1395 -42.9224 51.2207
-33.8582 -27.3299 -0.1561
-25.8967 34.9666 -73.7693
-32.0385 29.4421 58.2877
-28.4990 -32.8803 75.7469
-35.1533 25.6428 -56.6120
-42.2994 -10.2014 0.4151
21.1803 38.0092 -63.8033
4.4077 -43.2883 -49.8005
-24.9235 -35.6668 -38.5629
43.4340 -2.6066 -75.4705
17.8386 39.6874 29.0155
-35.2620 -25.4930 -76.3790
-43.4674 1.9713 -3.0081
-29.1149 -32.3361 -43.8018
-35.2432 25.5191 65.6107
37.0906 -22.7506 10.9124
-32.7223 28.6802 39.8867
38.1772 20.8759 -82.0039
5.2857 -43.1899 62.0763
24.0589 -36.2556 29.9547
39.1979 18.8898 54.2757
6.9695 42.9503 -76.0381
-42.3381 10.0394 37.2029
-43.2349 4.9035 48.3876
41.1287 -14.2032 81.9464
-30.8228 -30.7125 17.7324
12.9090 -41.5531 -10.2642
11.6270 -41.9299 -83.1472
42.2897 10.2412 61.2046
-36.5640 23.5877 -34.2730
32.9405 -28.4294 11.3240
-41.7608 12.2206 -29.3114
-43.3953 -3.1862 -15.0375
-22.7062 -37.1178 56.7718
18.0733 39.5810 69.4224
-4.2505 43.3040 13.8265
42.9167 7.1735 -66.7030
35.6324 -24.9727 -37.5586
-20.9566 38.1330 -7.9720
29.7925 31.7130 -81.2832
-39.4259 -18.4093 46.1932
-11.8377 41.8709 -65.0537
36.2785 -24.0245 -57.4710
-29.8617 31.6478 50.1695
-42.4897 9.3768 -77.1309
-36.5930 -23.5427 -36.7318
40.9241 -14.7823 -1.8850
-13.9949 41.2001 -5.7339
-26.8136 -34.2685 -5.5438
39.2407 18.8008 24.5892
-43.3087 -4.2026 77.9170
3.3794 43.3807 35.3475
-19.6786 38.8079 -20.6166
-33.6056 27.6400 29.6252
-6.4328 43.0340 61.7423
34.6967 -26.2573 73.3143
-42.2338 10.4693 -62.3484
3.6886 43.3555 -62.4410
23.9864 -36.3036 -61.8942
14.3994 41.0605 44.4333
40.9721 14.6489 4.6452
25.2543 35.4334 -58.0100
19.1475 39.0727 9.9895
-39.8472 -17.4787 63.3944
20.3376 -38.4667 7.2307
24.6596 -35.8498 2.7792
43.3625 -3.6052 -29.8272
23.0082 -36.9314 4.4838
43.0309 6.4535 9.8087
6.8794 -42.9648 -76.0822
42.9852 -6.7510 -53.7723
43.3703 -3.5103 80.4318
-33.1623 28.1703 -24.7900
30.1989 31.3262 -66.6421
39.8529 -17.4658 -70.6848
19.0170 -39.1364 11.1365
25.5838 -35.1962 66.2748
-33.1250 -28.2141 0.4808
-42.6889 -8.4241 -55.3620
42.8008 7.8353 -64.7128
43.3641 3.5861 55.8265
-9.8407 42.3847 -36.1091
-0.3518 -43.5107 -59.0179
41.1507 -14.1393 5.7417
43.4768 -1.7515 72.8319
-12.3051 -41.7359 -25.5959
0.9487 43.5018 -62.7139
-34.9515 -25.9171 81.7218
-39.2565 18.7679 32.0591
28.8858 32.5410 61.5231
21.2560 37.9669 -1.4869
21.4275 -37.8704 82.8624
41.7531 -12.2468 -12.4465
-9.4427 42.4751 -12.1326
-16.5351 40.2479 69.5676
-33.1776 28.1523 -47.8169
13.1693 -41.4713 -35.8845
40.1226 -16.8370 13.8791
0.4975 -43.5093 -8.7907
35.3081 -25.4292 -58.0257
-43.1122 -5.8858 34.4738
0.4652 -43.5096 -4.3429
-27.8200 -33.4567 53.3093
-42.3655 -9.9232 22.4897
1.2982 -43.4927 72.7393
42.3759 9.8786 66.9753
-29.1791 32.2782 51.7114
-9.5203 42.4578 26.9848
-43.2265 -4.9773 64.8634
15.0065 -40.8425 7.0489
34.0487 -27.0923 34.9497
36.6822 -23.4034 54.7682
17.9612 -39.6320 -0.0244
42.7056 8.3389 41.1650
-39.4558 18.3451 81.1156
31.6335 29.8768 55.3850
-37.1463 -22.6595 -71.6487
38.8322 -19.6308 -8.3516
-20.7474 -38.2472 -75.2402
-29.3303 32.1409 -54.4937
38.2413 -20.7582 -8.8826
36.9799 22.9300 -39.9696
-42.5000 -9.3301 74.4282
17.4771 39.8479 4.5789
-30.9113 -30.6234 -48.7637
43.4199 -2.8308 -52.4417
34.3782 26.6728 -22.9249
24.9994 -35.6136 83.0727
-24.7910 35.7590 5.2469
29.1732 32.2836 -21.6646
42.5336 -9.1759 70.6371
-16.1356 -40.4097 -73.3884
34.9206 25.9587 19.3425
-36.1712 -24.1858 -54.2573
-37.7752 21.5948 9.0593
33.4526 -27.8249 -64.9286
42.5030 -9.3166 -52.1675
-43.3009 4.2816 50.1999
38.6666 19.9550 71.5827
-27.4250 33.7813 -54.9350
43.1013 5.9649 -46.6504
-29.7535 -31.7495 9.0804
-43.5095 -0.4747 -22.0878
42.3708 -9.9005 48.5609
9.9647 42.3557 -67.3490
-40.6267 -15.5811 -55.7288
-2.1106 43.4609 41.7036
-25.3354 -35.3754 -73.6623
-26.7056 -34.3528 16.4750
42.4344 -9.6243 -58.0097
43.2506 -4.7632 6.6298
23.7003 -36.4911 -5.7457
42.8423 -7.6051 22.9903
-40.0433 17.0246 -4.0675
-27.1084 -34.0358 -81.1802
-9.5699 42.4467 68.9405
17.5630 39.8101 -43.1953
43.2964 -4.3275 -60.2961
2.2247 -43.4552 2.1865
43.4573 2.1825 -71.9426
34.2769 -26.8029 -17.8617
19.3300 38.9827 63.0229
-35.5714 -25.0596 19.7764
-41.6706 12.5245 73.3593
-20.1933 -38.5426 -53.2021
-29.0910 32.3576 -2.9221
42.8451 7.5898 -59.3257
32.9596 28.4072 16.6025
-20.5620 -38.3472 68.6835
27.5435 33.6847 -67.9938
43.4808 -1.6515 -74.4113
-39.1349 19.0200 -47.0198
-34.4070 26.6357 -56.8235
-42.6664 -8.5371 46.8893
-23.1338 36.8528 37.1529
-33.7444 27.4704 24.0418
-38.2549 20.7332 0.7164
39.5814 18.0726 -5.1703
-32.3352 29.1159 -47.9193
43.1060 5.9307 55.4524
40.7253 15.3216 -34.4319
-43.4568 2.1925 -43.3658
-43.3184 4.1013 -64.9985
2.7520 -43.4250 -14.4496
22.3930 -37.3076 5.9905
43.5021 0.9316 40.3516
28.1666 -33.1654 24.7459
29.4715 32.0115 41.5091
37.1914 22.5855 -79.5099
42.7261 8.2330 -51.4161
34.7156 26.2323 48.0845
-25.4930 -35.2620 77.2018
40.5855 15.6881 -65.5335
43.4900 -1.3868 -46.5641
8.6926 -42.6350 -60.6530
-1.1809 -43.4961 59.9282
-43.0515 -6.3143 53.2896
32.1811 29.2862 -67.9723
25.8397 -35.0087 70.6913
-42.1947 -10.6259 67.6010
12.9101 -41.5528 1.5343
18.4256 39.4183 -8.2890
-36.8239 -23.1798 -22.3840
31.9874 -29.4976 49.7969
-37.7478 21.6428 22.0537
20.1680 38.5559 -2.1814
14.1844 41.1352 -39.2294
28.3817 32.9816 -54.0419
33.8387 27.3540 -12.4529
-32.8827 -28.4962 34.0232
-35.7585 24.7918 -5.6047
30.5704 30.9637 -31.5348
-26.6729 34.3782 41.5158
-34.7077 -26.2427 -24.0055
-0.7457 -43.5057 -64.0360
-33.7611 27.4497 5.7739
-11.9433 41.8409 -45.6663
-41.1935 14.0142 14.2751
-38.5812 20.1195 25.7129
-9.6030 -42.4392 44.3603
30.6779 -30.8573 -20.5673
-20.1271 38.5772 -0.5659
-23.8527 36.3916 69.8442
-11.2462 -42.0336 -59.0355
-33.6131 -27.6309 15.7636
-43.2532 -4.7400 61.1733
-11.9893 -41.8278 -34.7517
-20.3219 38.4750 12.1017
37.2561 -22.4785 -18.4986
16.1509 40.4036 -29.6186
34.0034 -27.1491 -20.2534
26.3253 -34.6451 31.7906
1.7424 -43.4772 43.1083
1.3219 -43.4920 26.5385
30.6066 -30.9279 60.3522
22.0102 -37.5347 29.3619
43.4811 1.6415 79.9403
9.4572 42.4719 11.0245
-43.1954 5.2401 44.7134
-41.6059 12.7378 42.1798
14.8747 -40.8907 -43.6873
39.5013 -18.2469 -56.3681
-40.4443 16.0487 50.2162
21.0167 38.0999 47.6807
31.9437 -29.5449 53.8094
-11.0439 -42.0872 41.6771
42.6205 8.7635 -43.2611
42.7951 -7.8663 -78.2227
-42.6135 -8.7972 -66.5088
25.6798 -35.1262 -15.5733
31.6969 -29.8096 -51.0480
-31.1727 30.3573 -48.9607
-34.7692 26.1612 80.5917
12.8618 41.5677 -80.3610
0.5062 43.5092 24.2085
40.8573 -14.9661 -58.1246
31.7889 -29.7114 -0.9272
-32.5047 28.9266 56.5789
-37.2876 -22.4263 34.9285
43.3766 -3.4313 -39.8659
-24.9107 -35.6758 12.6411
17.2539 39.9450 -29.6242
43.4860 1.5068 56.9081
-33.3525 27.9448 -73.5733
-12.5302 -41.6689 -68.8795
-13.0329 41.5144 11.0170
18.2988 -39.4773 12.3295
19.0449 -39.1228 70.1495
-21.2917 -37.9469 60.1531
-16.8978 40.0970 15.4628
43.4944 1.2426 -78.6418
-4.1468 43.3141 21.9796
-40.3796 -16.2108 -13.2135
39.6511 17.9191 -29.7102
42.9885 6.7298 -11.8803
-37.6204 -21.8633 57.7931
-41.6505 -12.5911 -65.7053
-23.2332 36.7902 -58.5247
40.1577 -16.7530 -62.8762
-25.6365 -35.1579 6.6207
-11.2355 42.0365 83.6386
22.1369 -37.4601 -9.8814
36.6213 -23.4986 53.0871
42.3008 10.1955 53.1487
21.9043 -37.5966 -20.4556
42.6180 -8.7754 -74.2004
31.2755 30.2514 -81.6316
-22.7995 -37.0606 81.3722
-43.1546 -5.5663 42.2234
25.5097 -35.2500 -21.1789
16.8429 -40.1201 52.9912
-40.8075 -15.1013 -83.7727
0.9828 43.5010 35.4169
-27.8399 -33.4401 74.3955
19.2804 -39.0073 -22.4835
-40.4270 -16.0924 78.4564
-29.1479 32.3064 -15.8067
-2.3575 43.4482 -9.6286
25.2032 35.4697 11.5565
-27.8222 -33.4549 45.9795
-3.5017 43.3710 -34.6112
-40.6888 15.4182 -31.9061
-9.0092 -42.5692 4.0847
39.0327 -19.2289 -58.4030
-2.3026 43.4511 62.1476
-33.4991 -27.7689 15.4390
-38.3923 -20.4777 -52.8185
-42.9231 7.1349 -14.2707
18.6243 -39.3248 -5.5572
7.5448 -42.8530 -8.9305
32.0527 -29.4267 -7.3410
-14.3400 41.0812 18.1711
-32.2488 29.2116 -69.7857
-23.5741 36.5727 -76.4017
-35.9765 24.4743 -61.7291
-8.6246 42.6488 69.9379
-32.1772 -29.2905 -46.4054
-40.8021 -15.1161 53.7367
13.4788 41.3718 0.9912
-41.9608 -11.5149 62.7991
-32.3172 -29.1359 -63.5585
31.4020 30.1201 -69.8581
-35.9323 -24.5392 -52.5508
35.3236 -25.4076 34.9042
37.1409 22.6683 -56.3435
-19.7878 38.7524 68.9844
-34.2387 -26.8518 59.1911
4.4571 43.2832 0.8578
-40.1333 -16.8114 -24.3103
16.0775 40.4329 -37.5791
-34.6934 26.2617 -14.4683
-9.7122 -42.4143 -42.0822
-15.7827 -40.5489 -4.6513
32.2138 -29.2502 -44.2676
32.9399 28.4300 52.5864
-0.1516 43.5118 -15.6153
41.1465 14.1517 -0.1918
32.4822 28.9519 -73.7316
-13.7887 -41.2695 -82.4429
-16.8633 40.1115 7.1415
-6.3578 -43.0451 22.9119
30.7140 -30.8214 71.9597
-39.9672 -17.2025 -47.5801
-40.4834 -15.9497 36.2442
2.1165 43.4606 35.4204
-38.5894 -20.1037 -46.3516
-27.8556 -33.4271 -10.0929
-35.1463 25.6523 51.5244
43.2707 -4.5767 -5.6185
41.8987 -11.7390 -84.1231
-6.2324 -43.0635 -51.5031
-43.3031 -4.2594 34.6284
-36.7735 23.2596 17.7838
-40.6068 15.6330 -49.6265
6.1636 43.0734 -79.2397
11.1935 -42.0477 1.0523
21.9934 -37.5445 60.4075
-29.0515 32.3931 39.2627
-31.9310 -29.5587 -71.4121
-33.2128 -28.1108 71.1573
35.4870 -25.1789 -4.7641
-29.5086 -31.9773 -54.4403
39.8882 17.3850 83.5934
42.0110 -11.3305 -83.5148
29.0120 32.4285 -74.8850
-37.9578 21.2723 -84.3370
42.4998 -9.3310 -29.6444
-17.9068 -39.6566 13.1403
-41.4494 -13.2381 57.0917
4.0411 43.3241 -59.6968
42.5255 9.2133 84.1526
-43.1865 -5.3136 18.9283
41.0639 -14.3895 77.0598
-43.4018 -3.0958 46.0746
41.7689 -12.1929 -46.1070
-6.3952 -43.0396 -16.2665
-11.1731 -42.0531 46.9297
-20.2305 38.5231 -78.5882
-36.5093 -23.6722 -26.4536
-10.7524 -42.1627 4.5745
-41.5866 -12.8009 -68.5266
13.9936 41.2005 8.6211
-16.6282 40.2095 -16.7125
-36.3383 23.9339 68.2034
7.5078 -42.8595 -1.8746
31.9933 -29.4912 -19.2462
37.5536 -21.9779 -2.2386
-36.7959 23.2243 82.0662
-43.3368 3.9019 -51.0395
42.9027 -7.2567 63.4736
37.8246 -21.5082 27.0401
42.9480 6.9835 23.4743
36.1515 24.2152 -61.9570
43.5046 0.8077 -64.6748
38.8733 19.5493 1.5358
-25.4525 35.2913 -59.5163
22.6840 37.1314 37.3547
18.8261 39.2286 75.3972
-26.2895 34.6722 -25.9064
-27.4765 33.7394 30.9850
-39.4271 -18.4066 14.1602
-4.5188 43.2768 -84.1944
38.5767 20.1280 48.8958
-42.8089 -7.7909 -75.8044
40.0633 -16.9775 83.1022
34.6603 26.3053 -7.7196
-40.8533 -14.9771 -35.2944
-2.6057 43.4340 -38.5818
43.5119 0.1220 12.1421
-30.4558 -31.0765 62.3470
-29.4452 -32.0357 12.5621
41.2717 13.7822 -82.1762
7.8506 42.7980 22.9126
-41.0578 -14.4068 -5.1438
-21.9371 -37.5775 64.5436
41.9065 11.7111 -82.8368
6.3769 -43.0423 43.7015
29.2858 32.1814 47.6988
-29.0401 32.4033 -68.3862
-42.5873 8.9232 -63.6440
42.3071 10.1694 -25.7936
16.9635 40.0692 -32.8482
24.4609 -35.9857 -79.3407
42.1910 -10.6405 -67.3866
-32.8807 28.4984 -16.0024
-37.3568 22.3109 -20.7183
14.4688 -41.0361 -49.5769
-42.1648 10.7441 -0.8672
24.8640 -35.7083 -2.8855
-43.3869 -3.2981 -21.5686
-12.2107 -41.7637 79.2619
43.4194 2.8387 -7.3371
11.7581 41.8933 48.1680
42.3784 9.8680 -2.0529
-43.0471 6.3446 -35.6932
-37.7060 -21.7154 7.2606
-37.6788 -21.7626 21.0060
42.7755 -7.9726 79.0461
22.8302 -37.0417 -68.1479
-29.8615 31.6480 -32.5918
-42.8398 7.6193 25.0963
31.0772 30.4551 -35.2270
18.0135 -39.6083 2.2611
-43.0927 6.0270 -58.5626
31.8597 -29.6355 -14.1304
31.8138 -29.6848 10.0447
-37.8913 -21.3906 51.3642
-38.1938 20.8455 -39.2373
-17.1046 -40.0092 -7.2125
-19.3826 -38.9566 -53.3483
-42.4216 9.6803 34.3460
10.2363 -42.2909 17.1455
-30.9898 -30.5440 17.0136
42.6887 -8.4249 -59.2101
-8.4361 42.6865 -41.9641
43.5040 -0.8397 -42.6613
9.9766 -42.3529 -39.6634
-37.3325 -22.3514 24.8932
7.1906 -42.9138 56.4698
-18.8490 18.8824 84.9995
0.6044 2.8903 84.9995
-26.6901 14.9593 84.9995
25.8680 -15.8601 84.9995
-0.9436 11.1840 84.9995
-16.5002 -25.7076 84.9995
15.5218 -8.1492 84.9995
-5.8894 28.3727 84.9995
-21.6104 -15.2191 84.9995
-16.0252 -12.7470 84.9995
3.0119 20.1394 84.9995
1.9216 -43.2716 84.9995
4.1983 3.4608 84.9995
-35.2760 14.4581 84.9995
11.4509 -31.8226 84.9995
6.0178 2.5500 84.9995
-8.9500 -2.6579 84.9995
32.9644 22.2322 84.9995
10.6822 1.4389 84.9995
33.3290 -11.3516 84.9995
6.9769 13.8739 84.9995
-16.9602 -20.0688 84.9995
15.4871 -21.8321 84.9995
1.2431 -1.4985 84.9995
1.5903 6.4926 84.9995
16.8346 -6.8497 84.9995
27.4438 4.0459 84.9995
0.4497 8.2673 84.9995
1.9411 -35.4687 84.9995
27.3587 -18.9317 84.9995
3.1055 13.4656 84.9995
20.7644 14.4381 84.9995
-4.3309 31.8110 84.9995
34.7228 24.3964 84.9995
19.7594 23.8478 84.9995
21.5313 24.2939 84.9995
-13.7716 -10.3949 84.9995
-3.1586 -7.9670 84.9995
-2.6744 -5.2319 84.9995
3.0457 12.3520 84.9995
28.8370 13.8463 84.9995
-1.3679 -40.2721 84.9995
6.6284 12.4725 84.9995
29.0863 7.6873 84.9995
-33.3902 -5.8050 84.9995
34.0554 -7.0081 84.9995
13.0120 -8.3382 84.9995
-21.9195 23.2395 84.9995
-7.1445 -3.7582 84.9995
5.5878 -1.3523 84.9995
-6.3853 -7.5249 84.9995
-9.2145 21.4458 84.9995
21.8283 -20.2645 84.9995
12.4638 -10.0652 84.9995
-31.2000 29.2660 84.9995
13.1007 38.1268 84.9995
5.9276 -6.7737 84.9995
-5.1519 11.2677 84.9995
5.8678 -1.0154 84.9995
-1.9051 7.9235 84.9995
12.3517 -29.6594 84.9995
-35.3715 -0.8478 84.9995
-1.5082 -17.6826 84.9995
-22.2942 -31.9378 84.9995
27.5582 27.0691 84.9995
9.2806 -4.0974 84.9995
-40.0443 -3.8910 84.9995
0.3026 2.3802 84.9995
11.8949 -16.5298 84.9995
7.8128 39.1788 84.9995
-10.3010 4.3913 84.9995
-8.6629 -1.8326 84.9995
3.1277 4.6526 84.9995
12.6415 7.8053 84.9995
-14.4513 38.0673 84.9995
-18.9950 29.5466 84.9995
-16.9720 -13.5806 84.9995
0.0729 -6.8649 84.9995
28.1868 7.7399 84.9995
-8.9599 25.8779 84.9995
10.0330 16.3379 84.9995
1.7449 -4.7046 84.9995
9.6855 -4.1242 84.9995
-38.8060 9.5403 84.9995
-27.7106 -6.6345 84.9995
-24.3906 -15.8982 84.9995
-7.3767 34.6273 84.9995
1.8240 -18.5281 84.9995
26.9201 8.7957 84.9995
27.5947 11.5472 84.9995
-16.5070 -39.1777 84.9995
33.6655 12.7702 84.9995
4.8775 -19.5857 84.9995
18.3561 29.9004 84.9995
-8.2969 27.8148 84.9995
-11.9358 2.0860 84.9995
22.0963 10.5074 84.9995
5.2202 -9.8363 84.9995
-1.0456 -14.0631 84.9995
-35.6594 12.1505 84.9995
42.0294 2.1203 84.9995
-10.1416 41.2258 84.9995
32.4912 2.8207 84.9995
-20.3893 7.4578 84.9995
-2.7276 -10.5939 84.9995
-32.6892 6.5708 84.9995
9.5674 16.6620 84.9995
-18.2676 3.6458 84.9995
5.4594 -36.9377 84.9995
0.8347 0.4657 84.9995
-18.9992 -36.7279 84.9995
4.2225 -12.5605 84.9995
0.2548 -0.1336 84.9995
-26.8240 10.0130 84.9995
1.3510 -2.9791 84.9995
-2.1965 30.5788 84.9995
-6.3499 -19.1056 84.9995
-11.4937 -7.2699 84.9995
-1.2207 1.8739 84.9995
27.0814 -23.3840 84.9995
-21.4904 -0.3925 84.9995
1.4756 16.3775 84.9995
-2.1694 -7.0309 84.9995
3.0304 7.6353 84.9995
-27.6966 9.6553 84.9995
0.6751 8.7466 84.9995
-0.1969 0.3660 84.9995
22.5284 1.4622 84.9995
1.8830 -1.9700 84.9995
12.6663 9.3175 84.9995
-13.4248 9.6852 84.9995
16.1830 22.8725 84.9995
0.0987 0.4779 84.9995
2.6049 -13.1777 84.9995
11.1157 1.9467 84.9995
-19.8592 36.0149 84.9995
12.5574 40.1287 84.9995
2.6153 -4.3125 84.9995
-33.6148 10.9146 84.9995
-9.4001 -0.4467 84.9995
-7.1259 11.6614 84.9995
-1.2353 -0.4684 84.9995
9.7903 -34.9590 84.9995
-20.2136 -15.8975 84.9995
-31.6862 14.8567 84.9995
-19.9638 -0.4049 84.9995
-10.7626 -10.2573 84.9995
4.5750 19.4975 84.9995
11.7148 -2.5493 84.9995
17.0102 -1.3833 84.9995
20.8064 -36.4070 84.9995
18.2195 -18.6757 84.9995
5.7091 -2.2301 84.9995
-13.2559 -16.3903 84.9995
-22.9101 -14.8076 -84.9995
0.0122 -0.9022 -84.9995
8.3163 -5.5277 -84.9995
9.5471 -8.9184 -84.9995
-24.2779 12.7014 -84.9995
0.2633 5.2266 -84.9995
2.2670 -6.0231 -84.9995
-33.2802 -12.5548 -84.9995
-14.5739 11.1084 -84.9995
-4.6818 4.7689 -84.9995
28.8884 -22.0859 -84.9995
40.4166 0.5777 -84.9995
7.4734 5.5560 -84.9995
0.7081 15.6350 -84.9995
0.1600 -1.4734 -84.9995
-8.7487 5.7208 -84.9995
36.4574 21.8485 -84.9995
0.3006 -0.5558 -84.9995
-0.4307 1.5642 -84.9995
-2.0589 -3.7106 -84.9995
-37.5983 16.8459 -84.9995
-2.3865 40.8603 -84.9995
41.0358 10.4816 -84.9995
-22.2318 37.1140 -84.9995
1.4276 5.2094 -84.9995
-38.6328 -1.8369 -84.9995
1.8867 1.5159 -84.9995
18.7838 5.9997 -84.9995
-2.9111 16.8169 -84.9995
5.7826 -4.2428 -84.9995
-25.4003 11.2689 -84.9995
9.9009 28.2816 -84.9995
-4.7191 38.1089 -84.9995
-6.0016 1.6888 -84.9995
-21.7131 35.9908 -84.9995
9.7057 -22.1460 -84.9995
2.0020 -3.9529 -84.9995
-14.7354 -30.5002 -84.9995
-11.4062 10.7207 -84.9995
40.7165 13.5115 -84.9995
-20.9658 28.1070 -84.9995
14.9592 13.7732 -84.9995
0.2159 16.8134 -84.9995
10.2936 33.3611 -84.9995
0.3706 -0.4798 -84.9995
22.8885 -29.1623 -84.9995
17.9778 24.9553 -84.9995
-3.0457 -29.4208 -84.9995
9.6193 37.6696 -84.9995
9.1991 31.1353 -84.9995
5.6488 -3.7242 -84.9995
-1.0664 0.3597 -84.9995
27.0918 25.9075 -84.9995
4.8218 21.6121 -84.9995
25.5130 1.9631 -84.9995
2.9814 33.7245 -84.9995
-15.4115 38.7718 -84.9995
28.8486 6.5827 -84.9995
-1.6661 -18.0297 -84.9995
-6.6323 8.1062 -84.9995
-17.5349 24.0267 -84.9995
11.2052 12.6722 -84.9995
-5.7499 24.2735 -84.9995
3.9831 3.9531 -84.9995
-11.1618 35.4154 -84.9995
22.9307 -2.4005 -84.9995
11.4583 -19.7137 -84.9995
-12.0269 6.3462 -84.9995
-11.7611 6.3505 -84.9995
-18.5629 -25.5399 -84.9995
0.3939 -8.9935 -84.9995
-13.4272 9.3269 -84.9995
25.4515 9.8395 -84.9995
-14.0617 -12.6677 -84.9995
-2.9165 7.4048 -84.9995
-35.0139 -13.1958 -84.9995
36.0732 -6.7094 -84.9995
23.2148 6.8605 -84.9995
-3.0595 -5.4818 -84.9995
0.2747 -1.9463 -84.9995
-0.6357 -3.9932 -84.9995
-12.8990 4.8992 -84.9995
-4.6757 11.9822 -84.9995
24.6346 17.4914 -84.9995
-14.3590 -31.0307 -84.9995
35.5325 -9.1898 -84.9995
2.2722 42.0666 -84.9995
-13.7087 -6.3647 -84.9995
-31.0333 -27.8274 -84.9995
-10.6192 -30.3363 -84.9995
5.7606 21.6294 -84.9995
-8.0241 9.1293 -84.9995
24.4853 -0.3414 -84.9995
-20.8058 -7.0876 -84.9995
6.5134 -2.5367 -84.9995
1.2700 24.9394 -84.9995
0.2655 0.3795 -84.9995
-2.5997 -7.1384 -84.9995
15.3801 10.5071 -84.9995
20.9228 -30.4576 -84.9995
-35.9747 -19.4029 -84.9995
-36.9364 4.8721 -84.9995
28.4304 24.6474 -84.9995
-11.9429 14.5213 -84.9995
25.5934 -16.7865 -84.9995
-14.8147 8.7781 -84.9995
8.2276 -22.9876 -84.9995
17.3466 26.0197 -84.9995
28.0856 1.7012 -84.9995
0.6311 -28.3402 -84.9995
21.9436 17.7722 -84.9995
15.4866 8.2987 -84.9995
15.8895 6.3663 -84.9995
17.8859 -7.9236 -84.9995
5.9233 -2.9709 -84.9995
7.6248 -19.3887 -84.9995
7.3195 11.7798 -84.9995
-4.7982 -2.7921 -84.9995
12.5860 -7.8741 -84.9995
16.3030 -7.6893 -84.9995
-22.1373 9.0391 -84.9995
3.5227 0.7748 -84.9995
-9.1495 12.4768 -84.9995
4.6346 28.7273 -84.9995
-0.4064 -3.9198 -84.9995
-28.0623 13.5720 -84.9995
-4.7475 -1.3630 -84.9995
20.2517 -22.8332 -84.9995
-4.9153 -4.2850 -84.9995
2.7614 -2.6053 -84.9995
-4.1245 -16.6646 -84.9995
-4.5665 2.4679 -84.9995
6.1338 0.3334 -84.9995
24.0139 -19.2034 -84.9995
6.2358 16.6492 -84.9995
-23.9433 13.7231 -84.9995
-14.7161 -32.2978 -84.9995
-14.0613 8.1504 -84.9995
16.9825 24.9594 -84.9995
-10.9477 -1.1020 -84.9995
10.9156 -34.1066 -84.9995
-6.1178 19.0501 -84.9995
17.2827 -39.8472 -84.9995
12.5986 -33.1397 -84.9995
-1.6490 -6.5237 -84.9995
36.4004 0.9533 -84.9995
36.7895 -12.3228 -84.9995
24.3565 26.4574 -84.9995
5.5000 27.6889 -84.9995
-22.1066 -5.6236 -84.9995
5.7028 -1.0632 -84.9995
-13.7008 30.5079 -84.9995
4.9970 4.0096 -84.9995
12.2040 10.7231 -84.9995
