ply
format ascii 1.0
element vertex 1024
property float x
property float y
property float z
end_header
-12.0275 30.3653 -23.1776
-4.4762 -32.3524 6.5465
-3.8696 -32.4306 -24.2127
32.5021 3.2141 5.2683
-30.9125 10.5418 22.0141
-32.1896 5.5265 -19.4930
-26.3372 19.3149 -25.1942
6.8369 -31.9370 2.1475
31.9301 6.8693 11.8529
16.0167 28.4637 3.8728
-2.4992 32.5648 -7.8364
13.9625 29.5257 15.9438
-26.9141 18.5026 2.3158
31.6214 -8.1733 4.8640
6.0028 32.1042 -22.7088
-3.3407 -32.4893 -6.1398
-21.1296 24.9049 -6.6418
-24.2640 -21.8626 -17.7369
-15.1965 -28.9099 25.6692
30.7095 -11.1194 0.4816
0.3127 32.6591 -5.1288
10.6392 -30.8791 -19.8759
-11.0593 -30.7312 16.5157
-26.8234 -18.6339 19.6326
24.6484 -21.4283 24.3407
30.9615 -10.3970 7.0312
5.0534 -32.2673 16.4113
-28.9541 15.1121 -10.4318
5.8021 -32.1411 21.8577
-30.9235 10.5096 -11.7082
-18.7425 -26.7476 -0.6962
-0.2327 -32.6598 9.2081
26.4772 19.1226 -10.8183
-31.1034 9.9647 -6.5381
31.1767 9.7329 24.5446
-30.2698 12.2660 17.8137
13.1446 29.8987 10.7854
-13.8382 -29.5841 23.4578
10.7749 30.8321 19.9661
29.4848 14.0485 4.3654
14.0504 -29.4839 -15.8911
32.1699 -5.6402 21.3970
-2.5517 -32.5608 -25.7718
-19.2477 26.3864 -6.7091
29.1080 14.8136 -14.3047
5.3416 32.2208 3.9465
32.4418 -3.7746 5.7178
21.5427 -24.5485 19.8490
-30.3613 -12.0378 -3.9994
29.4692 14.0813 -7.6289
-19.3276 -26.3279 4.4062
-11.9860 -30.3817 18.0661
22.6192 23.5603 4.7532
-23.1433 23.0456 18.3345
26.8384 -18.6123 17.4444
31.4665 -8.7507 -22.3804
25.8657 -19.9420 -22.3393
-2.4227 -32.5706 -20.9755
13.1235 -29.9080 -14.6719
-30.5566 -11.5329 -21.8815
24.3568 21.7591 24.8465
-13.6241 29.6833 1.9026
-28.5678 15.8303 -12.4187
-32.2781 4.9838 0.1778
26.0971 19.6382 -6.7100
-20.1854 -25.6762 11.8879
32.1852 5.5526 -2.6229
-32.6392 -1.1827 -3.1730
-32.2950 -4.8732 -12.5291
-18.9166 26.6247 -5.1927
-32.2809 4.9655 20.3964
20.6028 25.3424 -1.7608
32.4783 3.4465 -6.1170
-32.6005 -1.9805 21.5248
-0.6265 32.6546 -12.5468
-28.5367 15.8863 8.5412
1.8061 -32.6106 11.5548
-28.1921 -16.4899 -26.4418
19.9838 -25.8334 7.8318
18.3903 -26.9910 21.4466
-32.1130 5.9558 10.8970
-24.5505 21.5403 23.2789
-5.6691 32.1648 22.9218
-5.0776 -32.2635 -1.1712
5.9220 32.1192 1.5112
32.4612 3.6035 -6.6894
32.2915 4.8964 19.1739
-32.5026 -3.2091 -18.1607
30.7731 -10.9421 -25.1176
3.9194 32.4246 21.6122
-22.0202 24.1210 -11.5527
24.2654 -21.8610 -21.2625
0.6099 32.6549 -20.8060
-29.9354 13.0608 -16.6484
27.0141 -18.3563 -19.6612
-24.3766 -21.7370 -12.2719
-32.5750 2.3633 15.8743
12.4272 -30.2040 19.0164
25.4605 -20.4567 -20.1489
32.5288 -2.9311 -15.4358
9.4475 31.2643 4.6804
29.8113 13.3417 21.7773
6.5297 -32.0012 -5.0390
18.0753 27.2029 -11.3987
30.5553 11.5365 -6.7808
30.3309 12.1142 -23.8748
-26.0251 19.7335 20.5722
-17.4592 27.6024 -1.9842
-7.1411 31.8703 -15.0923
-4.7693 32.3105 24.8405
-32.6606 -0.0270 -13.6989
-14.7529 -29.1388 -23.3862
-0.6347 -32.6544 15.9742
-31.8917 -7.0450 25.1767
-5.2511 -32.2357 -12.1224
18.0319 -27.2317 23.2124
28.9087 15.1988 -15.6685
24.9282 -21.1021 -19.2148
-11.6788 -30.5012 12.1466
31.5186 -8.5612 -18.5317
-25.8870 19.9143 -3.4457
28.2502 16.3903 3.4464
-0.1453 32.6603 -7.8680
-20.0864 25.7537 -6.8315
-32.4244 -3.9211 -19.7831
28.5937 -15.7833 -16.3985
30.7949 10.8808 3.1507
-14.8079 29.1108 -3.4881
-26.1152 19.6141 -21.4121
-28.7684 15.4627 17.1341
-26.5139 -19.0717 -19.3626
7.1531 31.8677 -11.7994
31.0172 10.2298 0.2541
-29.5516 13.9076 -1.9380
30.6254 11.3491 6.3844
17.8963 -27.3210 8.1588
21.1833 24.8593 -22.8993
25.4110 20.5182 6.7019
24.9030 -21.1319 -22.1058
12.7982 30.0487 -18.3386
30.3321 -12.1112 -22.1081
29.3088 14.4120 -2.0398
-26.3159 19.3440 -13.7790
-15.6995 -28.6398 17.0970
20.5937 25.3498 1.9632
-12.4462 30.1961 4.9120
-25.3083 20.6447 17.0767
25.5359 -20.3625 12.9573
-1.4984 32.6262 12.3877
-14.5129 29.2590 -16.7815
-0.1381 32.6603 21.9597
12.2604 30.2721 24.7581
-25.2487 20.7176 -16.0158
-32.4000 -4.1178 -16.9422
11.6138 30.5260 16.0011
3.6896 32.4515 14.0764
8.2169 -31.6101 -3.0630
-4.0877 32.4038 7.5253
25.5254 20.3757 9.8378
26.3727 19.2665 1.4300
-32.3899 4.1961 26.2211
11.3141 30.6383 -21.5499
-23.8302 22.3346 -22.4441
9.6309 -31.2083 16.5975
-12.9971 -29.9632 3.5301
-32.6360 1.2668 12.7416
-26.7816 -18.6938 -12.2791
32.2246 5.3186 7.5671
3.4543 -32.4774 18.3053
14.6408 -29.1952 11.6319
24.8185 21.2310 -11.3294
-31.9340 6.8508 20.3000
-19.5863 26.1360 19.8948
10.9482 30.7710 -19.9478
-32.2487 5.1706 18.4695
21.2597 -24.7939 15.4899
10.4186 30.9543 -15.6394
19.3154 26.3369 17.3659
-16.4109 -28.2383 9.1132
28.4165 -16.1003 22.3946
28.1712 16.5257 -0.1832
30.7291 -11.0652 -15.1647
8.1213 -31.6348 -2.2163
-32.1688 5.6467 -13.5389
28.7930 15.4168 -19.4372
-28.5312 -15.8960 -10.3613
-0.0837 32.6605 26.2417
-25.6346 -20.2381 9.8153
7.4603 31.7972 7.1816
-19.6553 -26.0842 -22.3469
2.9722 32.5251 -16.4701
-31.3830 9.0456 -9.5658
-20.1121 25.7336 -5.9665
-6.4723 -32.0129 -15.4434
31.5917 8.2874 -11.4904
-32.1934 -5.5043 -14.1032
26.4273 19.1915 -25.8910
1.6631 32.6182 -24.8264
8.1883 31.6175 18.2686
-30.4925 11.7014 24.1167
-12.6140 30.1264 9.4221
31.4629 -8.7635 -20.4383
12.8573 -30.0234 -11.9244
-14.0183 -29.4992 1.7970
-23.5828 22.5957 -17.5917
-23.7751 -22.3933 -2.7074
-7.4009 -31.8110 -9.8712
-17.5284 27.5585 -6.6417
-2.9790 -32.5245 -18.5462
-2.8331 32.5375 2.4033
-11.9506 -30.3957 -12.8274
-32.2012 -5.4585 -2.4879
31.3800 -9.0561 2.3552
-0.3014 -32.6592 -23.7618
-22.0486 24.0951 -19.5262
22.6568 23.5241 -23.2080
-4.9655 -32.2809 -12.1768
23.8275 22.3376 -25.5172
32.2740 -5.0105 13.5656
-23.8033 -22.3633 -22.1058
25.5665 -20.3241 -21.1164
21.9892 -24.1493 10.6310
22.7411 23.4427 -15.1350
22.4028 23.7662 4.8977
32.3534 4.4689 -2.7519
-31.9720 6.6711 4.7077
-6.6811 -31.9699 -14.6265
-25.6540 -20.2135 1.4196
-32.3244 -4.6739 -24.4913
29.4291 14.1649 5.7147
-17.9616 -27.2781 9.7528
-31.2271 -9.5699 -5.9317
18.5517 26.8803 -21.7139
12.8996 -30.0052 -6.1962
-22.0113 -24.1292 -20.4252
11.1128 30.7119 -15.0641
-31.8776 -7.1087 -13.8136
-15.8088 28.5797 -1.1651
-3.5765 32.4642 25.3884
2.3136 32.5786 12.5425
15.3285 -28.8401 -0.7625
31.3288 -9.2314 21.7991
27.5000 -17.6201 -4.5348
32.1771 -5.5993 -8.8586
14.9749 -29.0253 -22.2813
31.5702 -8.3690 -11.7438
-24.5586 21.5311 25.8285
13.4993 -29.7403 -16.6933
32.4174 3.9782 24.2367
26.4119 -19.2126 -10.5675
-20.1207 25.7269 -9.9732
9.0299 -31.3875 -11.7871
28.4426 16.0541 12.5857
-21.0554 24.9677 2.8694
-2.5633 32.5599 15.5104
-24.1291 22.0114 -21.3889
9.8012 -31.1553 0.2995
-32.0584 6.2428 -16.6791
20.0627 -25.7721 7.6533
-3.6573 -32.4552 10.3547
-20.7219 -25.2452 0.4399
12.6296 30.1199 -1.2210
0.7046 32.6530 12.1629
15.1476 -28.9356 -2.8297
-0.8803 -32.6487 16.6705
27.7951 17.1508 7.0393
-22.7363 23.4473 1.9151
-31.7032 -7.8499 -11.1901
-10.9835 30.7584 -25.8850
-29.2442 -14.5428 17.9253
26.7239 18.7763 23.8613
-17.5932 27.5172 16.7148
32.5291 2.9278 -12.4459
-31.7602 -7.6160 23.4584
-4.3392 32.3711 25.3916
-6.1016 32.0856 18.2834
32.6139 1.7459 22.9134
25.8745 19.9305 -21.8890
-23.3294 -22.8572 -5.7246
-31.7997 7.4495 24.4340
-26.1532 -19.5633 0.3858
30.1561 12.5430 1.9210
-11.1502 -30.6983 7.3649
-29.9139 -13.1100 3.5774
28.6911 15.6057 0.6569
-13.2884 29.8351 19.0572
-30.0857 -12.7109 -11.4094
-26.7009 18.8089 -4.6969
-23.1368 -23.0522 0.5981
-5.1758 32.2479 19.6654
5.5520 -32.1852 -21.2898
31.9150 6.9389 4.8380
22.7653 -23.4192 21.6493
-31.0257 -10.2038 -18.7622
23.0897 23.0994 14.4388
-20.9957 25.0179 -5.0363
-32.4495 -3.7075 -1.6226
9.9202 -31.1176 -1.9940
-18.1630 27.1444 -26.4364
-1.7347 -32.6145 -12.9147
20.4416 25.4727 11.1796
26.9853 -18.3986 -14.4489
28.0818 -16.6771 -16.4959
1.5429 -32.6241 -13.3780
20.8323 -25.1542 24.2759
32.1416 5.7991 2.3412
-31.7409 7.6963 10.0559
31.6546 -8.0438 -10.6109
30.9326 -10.4828 -17.7273
8.7750 31.4597 0.6295
9.8613 -31.1363 7.4410
-5.8188 32.1381 -5.8246
-31.9130 -6.9479 -23.6618
32.1468 -5.7704 -16.9995
1.1617 32.6399 13.5949
18.3134 27.0432 12.7169
6.2759 32.0520 -6.7338
25.4295 -20.4952 13.1818
-6.0151 32.1019 23.2111
-8.8117 31.4495 -3.4085
23.0189 23.1699 19.1021
14.0628 29.4780 7.9543
-9.6193 -31.2119 -6.8021
-30.2034 -12.4287 -4.4470
28.7369 -15.5212 18.1183
25.4611 20.4560 6.5130
32.0776 -6.1434 -9.6058
-9.1421 31.3550 -16.1386
-22.0510 -24.0929 -25.8496
21.3343 -24.7298 12.2689
-2.4989 32.5649 -10.8447
-26.4999 -19.0911 17.8855
15.4434 -28.7787 7.7005
32.6386 -1.1987 -8.6507
31.4296 8.8822 -2.2782
-24.4270 21.6803 -13.8607
21.8325 -24.2911 6.8198
32.5735 -2.3836 -20.4289
-32.6223 -1.5816 -18.6054
-26.5152 -19.0698 -16.4401
27.1881 18.0976 25.8916
32.5096 -3.1369 24.8175
11.3949 30.6083 -20.5059
-29.7679 13.4383 21.7880
-18.5349 -26.8919 7.4722
-32.6541 0.6533 24.0375
-31.3261 -9.2407 3.9599
10.5448 30.9115 -8.4496
6.1388 32.0785 14.9610
27.8235 17.1046 22.9909
-0.3273 32.6590 -17.7018
-32.4487 -3.7147 10.3288
-27.6907 -17.3188 1.6047
16.2227 28.3468 21.4249
28.8407 15.3274 -25.4366
15.0063 29.0091 -23.5933
32.6606 -0.0438 -5.2082
-12.4905 30.1778 -20.4706
-7.5383 -31.7788 15.4004
-29.6943 13.6000 -23.0478
-32.6306 1.4004 23.2733
-26.9249 18.4869 24.2653
-11.5791 30.5391 -14.1246
-26.5652 -19.0002 -22.0550
25.5171 -20.3861 -22.5157
19.9654 25.8476 2.1824
0.2390 32.6597 -24.8642
-32.4630 -3.5876 1.5144
11.9071 30.4128 -11.1871
-30.7462 11.0174 -21.0327
32.5546 -2.6293 9.1456
-16.8324 -27.9890 -18.3073
32.0443 6.3149 3.6790
-23.8391 22.3251 7.6924
5.7797 32.1451 -4.2491
-19.5895 26.1336 -16.1140
-26.3933 19.2382 22.0568
-17.8366 27.3600 -14.9038
-30.7078 -11.1240 -7.8882
-21.8061 24.3148 -23.7481
17.8629 -27.3428 -0.4598
-21.0772 24.9493 -24.0471
-32.6551 0.6003 15.2514
-17.4157 -27.6299 4.0755
-17.0892 -27.8329 18.0384
-17.2583 27.7285 -15.6136
-28.5166 15.9222 11.0277
-15.9864 28.4807 -4.1986
6.9433 -31.9140 22.1114
-32.6539 -0.6604 -14.7660
-29.4402 -14.1417 8.7553
4.1771 32.3924 -14.5347
-22.0213 -24.1201 5.1461
32.3487 4.5031 -20.9018
-27.3313 -17.8806 -26.1872
24.1599 21.9776 -22.0294
-14.9993 -29.0127 -2.5992
32.4262 -3.9062 -3.2321
8.1666 -31.6231 -5.0067
32.4530 3.6769 17.0667
27.4357 17.7200 -10.2683
27.8590 17.0468 8.6346
28.4482 16.0441 -13.4470
-16.7526 28.0369 -11.4388
20.2145 25.6532 -2.3928
-30.4741 -11.7492 7.8310
-22.3272 -23.8372 -14.8563
18.0230 -27.2376 20.4821
-27.1199 18.1996 8.5505
-28.4232 16.0884 -17.6761
5.2077 32.2427 -7.3209
-29.9534 13.0197 19.8489
17.9881 -27.2606 -1.1774
-19.7772 -25.9919 -21.6955
21.8034 -24.3172 6.2972
9.7850 31.1604 23.2908
27.9327 16.9257 14.1924
21.6271 -24.4742 -23.0122
-32.5629 2.5250 -19.2112
24.8689 21.1720 -14.8206
20.4155 -25.4936 23.5704
32.0106 -6.4836 -23.3004
19.3874 -26.2839 14.9937
32.4340 -3.8408 20.6310
20.0884 -25.7521 5.9819
26.2551 19.4264 20.8496
19.2997 26.3484 -5.9586
-23.0902 -23.0989 4.9205
10.5807 -30.8993 -6.4352
-17.5325 27.5559 -12.2337
-19.1523 -26.4557 0.9190
-1.8912 -32.6058 -19.9530
-31.9786 -6.6395 2.0960
28.1178 16.6164 14.5806
-0.8724 -32.6489 -20.3829
15.7796 -28.5958 -20.4118
-27.6679 -17.3552 17.6972
22.9772 -23.2113 12.9200
1.8972 -32.6055 -12.5263
30.4836 11.7246 -0.0973
-31.2307 9.5581 20.1616
-32.1226 5.9039 -13.1893
-22.4756 23.6973 20.9433
31.4106 -8.9491 -23.5473
-25.0114 21.0035 7.5417
24.2234 21.9076 14.8776
8.0674 31.6486 19.2574
32.6557 0.5631 22.1457
8.9331 31.4152 12.5891
-12.1174 30.3296 17.7752
-17.0062 -27.8838 -19.8628
-28.8534 15.3034 19.8670
-31.8642 -7.1686 19.5468
8.0053 31.6643 24.2108
-31.5484 -8.4508 -19.2644
-15.7859 28.5923 -15.7433
11.6401 -30.5159 -24.8307
-22.5045 23.6699 -18.0283
17.1458 27.7981 -23.6632
32.6581 -0.4027 -19.8044
-28.0866 -16.6691 15.4976
-32.0690 -6.1882 -4.7334
32.2867 -4.9280 1.6872
-32.0037 -6.5176 -8.0386
-31.1155 9.9268 17.9300
4.1368 -32.3976 10.5661
-7.4793 -31.7927 7.6647
25.5538 -20.3401 -2.7853
-32.4270 -3.8995 -21.2810
27.1429 18.1653 17.6780
-30.9201 -10.5198 -5.7155
-9.4933 -31.2505 -15.3492
22.6478 -23.5328 -3.6729
25.5432 20.3534 -23.4908
-26.9857 -18.3981 -12.5949
-30.1488 -12.5604 -26.1185
16.3443 28.2768 12.2869
14.4825 -29.2741 -15.1938
-31.6837 -7.9282 -21.8016
-7.8026 -31.7149 18.3642
-30.2844 -12.2299 23.9387
-14.2429 29.3914 -11.8116
25.5211 20.3811 21.1486
-32.4717 3.5077 20.9411
-32.4879 -3.3545 7.4755
-19.7810 25.9890 7.8535
13.1085 29.9146 -19.7090
-4.6869 -32.3226 -8.4651
29.7129 13.5594 -3.7003
10.1684 31.0374 6.2607
-4.8943 32.2918 2.9643
-15.5956 -28.6965 15.0323
-18.7430 -26.7472 25.7606
-5.3535 -32.2189 -18.9311
-19.3258 26.3292 6.0528
10.8875 30.7925 6.0309
-1.2492 -32.6367 17.1508
-29.4610 -14.0983 -24.4804
-30.9433 -10.4512 -18.2339
11.3826 30.6129 -25.2253
11.4179 -30.5998 -10.7663
-32.3342 -4.6060 23.5301
17.4688 -27.5963 5.9030
16.1532 -28.3864 -13.2510
-19.7424 -26.0183 -4.8849
27.9496 -16.8978 -21.7983
-0.6970 32.6532 -7.7948
-32.1315 5.8548 -10.5300
3.4022 32.4829 3.6394
-6.7412 31.9573 -17.5924
31.4033 -8.9749 -16.9907
-11.3230 -30.6350 -15.9018
-5.8539 32.1317 -2.5690
-8.1528 -31.6267 12.7638
15.8981 28.5301 24.3906
15.8491 -28.5573 -6.4881
-6.5624 31.9945 -8.6969
1.1836 32.6392 -14.4818
-29.7394 13.5013 -16.2309
-14.3708 -29.3291 -5.5443
16.9141 27.9397 -20.8022
3.3455 32.4888 -4.6408
30.6003 11.4165 -21.1964
27.7334 -17.2503 14.3899
30.9496 -10.4324 -6.9570
-31.6091 8.2207 23.2026
30.5148 11.6432 10.3904
4.0756 -32.4053 -5.5968
27.3121 -17.9099 20.9911
10.6049 30.8910 19.3991
-31.9553 6.7508 11.7952
-30.4401 -11.8370 21.5649
-19.1126 26.4844 -24.9317
7.4746 31.7938 -21.9286
32.6239 -1.5470 17.4391
-17.6503 27.4806 -10.2321
-5.7944 32.1425 -2.0857
13.1986 29.8750 -6.9955
-32.5055 3.1791 -5.4998
-7.4079 31.8094 18.1582
-16.9148 27.9393 -20.6475
-18.5568 26.8768 -3.3473
-27.3440 17.8611 -20.5149
-11.4968 -30.5702 -1.5318
5.6928 -32.1606 10.1293
-2.5086 32.5641 12.8188
-30.2564 -12.2991 -11.6410
32.3130 -4.7524 -6.5344
32.5126 3.1062 18.6803
-2.6820 32.5503 18.7199
-26.8489 -18.5970 14.9350
30.5662 11.5075 7.1197
30.1497 12.5584 10.7365
-6.8908 -31.9254 18.0628
-32.3136 4.7483 -7.0963
-32.0856 -6.1018 8.7429
1.4755 32.6273 -23.4178
27.2634 17.9840 -1.4689
31.1158 -9.9258 -10.6497
-29.0006 15.0226 -3.3587
-16.1128 -28.4094 9.2424
5.4367 -32.2049 -2.6477
19.2340 26.3964 0.1734
-17.2355 -27.7426 -18.6389
-8.9865 -31.4000 -22.1682
-16.8224 27.9950 -12.8890
18.5418 -26.8871 15.2534
18.9964 -26.5679 -25.5262
-0.7512 -32.6520 -22.0834
25.4371 20.4858 1.8105
9.5266 31.2404 -19.4230
-13.0931 29.9213 -8.9332
-4.2874 32.3780 6.8290
31.3417 9.1875 10.4997
-0.0753 -32.6605 -12.4025
-32.5111 3.1220 -16.1412
11.0929 -30.7191 -25.5909
-9.7028 -31.1861 -25.1004
-31.8277 -7.3288 -8.6958
-17.6417 27.4861 -5.8096
-27.3570 -17.8413 -9.4200
-32.1295 -5.8658 -7.4505
26.6966 -18.8151 2.0419
-27.1594 -18.1406 -11.3042
26.1991 -19.5019 8.9927
-32.0246 -6.4138 24.2082
29.9389 -13.0529 -8.9157
28.8712 -15.2698 -15.8422
-21.9852 -24.1530 24.8039
-7.4777 31.7931 12.4521
19.8916 -25.9045 12.6153
-15.5660 -28.7126 -9.5265
17.5114 -27.5693 6.9880
-3.0489 -32.5180 -2.6537
32.5797 -2.2973 21.3666
27.9492 16.8984 -4.9970
2.2317 32.5843 -7.0117
27.6285 17.4178 16.9729
1.1158 32.6415 24.3504
-8.0807 -31.6452 6.8117
14.5036 -29.2636 1.8769
-2.6099 32.5562 -5.1025
-32.3238 -4.6782 -24.3544
12.3412 -30.2392 2.1893
32.6337 1.3265 25.0733
-8.6135 -31.5043 -15.1966
32.1130 5.9555 -23.9408
-15.8160 -28.5757 -18.3599
-27.0742 18.2675 -5.5300
13.8369 29.5847 8.4268
-32.6287 1.4440 23.1561
32.3970 -4.1412 4.1167
-28.7980 15.4074 -6.0860
19.9816 25.8351 -10.0767
-13.4727 -29.7523 2.8210
-29.6783 -13.6350 -9.5977
-29.6691 13.6550 -18.3643
-28.1010 16.6447 15.2919
24.4433 21.6619 9.8607
18.7408 26.7488 5.7540
-29.4723 14.0748 -25.9877
30.9318 -10.4853 -6.3487
-0.8103 -32.6506 19.3312
19.7297 26.0280 -19.4431
17.4420 27.6132 -21.5237
30.5140 -11.6453 24.3372
-5.7686 -32.1471 -21.4769
-19.3501 -26.3114 16.2421
3.3356 -32.4898 -20.6429
28.1924 16.4896 -9.1221
-15.9094 -28.5238 17.0685
-21.2297 24.8196 19.8830
-28.0214 -16.7784 8.9602
29.7095 13.5669 2.1426
-21.6969 -24.4123 -13.4361
28.0328 -16.7594 -14.7926
-6.9171 -31.9197 -0.5770
-19.4923 -26.2062 -6.4259
7.0470 -31.8913 -5.0269
-30.8017 10.8615 7.3089
-29.2215 14.5884 0.0839
-10.5055 30.9249 16.6002
-29.4610 -14.0983 -4.8519
25.3409 -20.6048 -8.5976
-30.5880 -11.4493 -17.8149
27.7709 17.1898 24.9448
-26.0147 -19.7472 10.4048
22.6510 23.5297 8.2478
32.3028 4.8211 -2.7122
22.4653 -23.7071 -24.0050
-6.2690 32.0533 17.5861
14.3576 29.3356 -2.9969
13.0449 -29.9424 11.2646
-12.7862 30.0537 8.8662
-13.0481 -29.9410 15.4927
25.5883 20.2967 1.5169
-14.3289 29.3496 1.7870
-22.9525 23.2357 -22.6973
27.0526 18.2995 8.8075
-20.1060 25.7383 -11.2893
-32.2541 5.1367 -8.4909
-5.6127 -32.1747 -18.5792
31.2553 9.4774 -13.2349
-25.0412 20.9680 10.5311
32.0010 6.5309 4.4217
7.6285 31.7572 -24.0883
26.2019 -19.4981 7.8484
-30.0554 -12.7824 -17.2799
-31.4976 8.6379 18.0628
31.2914 -9.3576 12.4016
3.3008 -32.4934 13.0157
-32.6437 1.0507 22.8371
27.2671 17.9784 -19.0607
-4.9914 -32.2769 -3.3144
-31.4299 -8.8814 -8.0497
-32.6591 -0.3103 -1.9990
-32.6453 0.9985 -1.7028
4.0293 -32.4111 6.5319
-32.4470 3.7291 -12.2338
31.6636 8.0083 22.3070
15.2079 28.9039 -12.3906
-0.1553 32.6602 13.7015
29.4265 14.1703 -14.7299
-25.0708 20.9325 7.0853
-9.6376 31.2063 -21.0857
22.3820 -23.7858 -12.1092
31.0659 10.0808 1.3247
31.2182 -9.5989 1.1304
22.3272 23.8372 -7.7105
22.5169 -23.6581 -4.0419
-12.5798 -30.1407 0.1984
28.5481 -15.8657 -18.8949
-0.3430 -32.6588 23.3982
-31.5403 8.4810 2.5281
-32.4338 3.8427 -20.9856
-3.6229 -32.4590 -12.8854
13.9366 29.5379 17.7620
31.6863 -7.9181 -10.0098
-32.4361 3.8229 -18.6907
22.7194 -23.4636 -25.9334
25.2885 -20.6689 -26.2779
-18.8200 -26.6931 -11.2302
32.0110 -6.4814 -13.6189
19.2018 -26.4198 -8.6017
-32.5926 -2.1059 18.5917
-13.6342 29.6787 15.8544
28.3237 -16.2630 10.0795
-21.3269 24.7362 -2.9724
15.4099 28.7967 19.6594
23.6575 22.5175 18.2119
23.9290 -22.2288 -16.2106
-14.8038 -29.1129 -5.6250
-14.2558 -29.3852 2.6633
23.7222 -22.4493 23.4946
31.5329 8.5085 -24.5943
-8.7840 -31.4572 -5.7029
14.8946 2.8017 26.4468
4.0841 13.4656 26.4468
10.4431 -28.7402 26.4468
4.6029 -3.3084 26.4468
-0.3314 -20.6542 26.4468
7.2481 -3.0891 26.4468
18.5798 -12.1825 26.4468
7.3534 -1.5138 26.4468
11.6544 -17.9320 26.4468
19.6940 -10.7863 26.4468
7.2289 0.2976 26.4468
8.4603 14.5343 26.4468
19.7598 9.8980 26.4468
2.5054 0.6802 26.4468
29.7578 10.5574 26.4468
6.5878 -24.4186 26.4468
-15.9179 16.1842 26.4468
9.2461 19.7017 26.4468
4.6397 -8.9370 26.4468
-4.7255 7.6638 26.4468
-2.0582 -0.1821 26.4468
8.1274 -26.8686 26.4468
-0.3330 4.8140 26.4468
12.7575 1.3119 26.4468
-15.6466 26.2251 26.4468
17.2202 9.8599 26.4468
-15.0130 -15.5137 26.4468
-1.3517 -7.4271 26.4468
-1.9218 -22.5939 26.4468
6.5413 -9.4824 26.4468
-2.8021 -6.1937 26.4468
-13.3657 3.6846 26.4468
10.5948 2.1960 26.4468
9.3755 -18.5789 26.4468
-4.6595 -0.7355 26.4468
1.4455 -2.3147 26.4468
-6.9654 0.8903 26.4468
0.5428 0.1644 26.4468
-15.6256 10.3468 26.4468
-13.4487 1.1351 26.4468
18.9593 -18.8945 26.4468
-6.3258 -31.3379 26.4468
-3.2013 -0.8843 26.4468
-10.8282 -17.6541 26.4468
-27.4840 -4.7384 26.4468
-12.9867 -8.6335 26.4468
-3.9881 8.7239 26.4468
1.8843 3.0883 26.4468
-14.2143 -17.4280 26.4468
-4.3479 11.5116 26.4468
-9.5626 -0.0847 26.4468
-9.4073 22.4026 26.4468
13.0887 25.3574 26.4468
-2.4973 -1.5741 26.4468
-32.2178 4.8877 26.4468
5.4290 -16.6032 26.4468
-31.8720 -6.2702 26.4468
-14.1536 17.6104 26.4468
-19.7157 -24.2598 26.4468
25.7133 -18.1388 26.4468
2.1624 28.6546 26.4468
-3.5230 6.5507 26.4468
5.0772 -6.4261 26.4468
-14.5650 -19.0124 26.4468
21.5923 -10.4900 26.4468
-0.7091 -9.3799 26.4468
11.0178 -5.9834 26.4468
1.3259 -7.6297 26.4468
-20.5899 -2.6362 26.4468
3.5870 1.3719 26.4468
-2.5774 -14.4804 26.4468
5.5105 -27.1145 26.4468
-6.7877 16.9724 26.4468
-9.5896 1.6485 26.4468
-21.7502 -23.4225 26.4468
16.4488 -23.0385 26.4468
-10.8455 14.2893 26.4468
3.9625 0.6666 26.4468
-28.3727 -11.9479 26.4468
-16.8545 10.0878 26.4468
-19.6271 -2.7121 26.4468
17.8732 2.3326 26.4468
-2.3489 -6.2963 26.4468
-6.9844 -29.0954 26.4468
-9.5266 11.5319 26.4468
-21.5920 12.8360 26.4468
4.4380 -2.9016 26.4468
11.2757 21.3367 26.4468
-6.4294 8.5288 26.4468
11.1366 12.7157 26.4468
0.1033 0.4484 26.4468
-7.5704 -6.9829 26.4468
-10.8418 2.6693 26.4468
1.3042 -14.4413 26.4468
11.5862 9.3102 26.4468
21.6385 -14.6842 26.4468
-14.0635 14.9360 26.4468
-3.4304 -26.6688 26.4468
-1.7735 0.2269 26.4468
20.3399 -19.9571 26.4468
12.6735 12.0096 26.4468
28.2000 5.6055 26.4468
3.2632 -0.4149 26.4468
-10.9570 5.0448 26.4468
-3.1224 -31.6250 26.4468
26.8362 -9.3923 26.4468
-4.0011 13.8398 26.4468
6.7236 -22.1519 26.4468
0.3618 1.4675 26.4468
-0.5655 0.0710 26.4468
-3.3862 2.4071 26.4468
-7.0934 -5.0223 26.4468
4.1806 -3.7947 26.4468
-10.5753 3.4684 26.4468
-12.2141 0.1405 26.4468
-30.6757 -7.7564 26.4468
-2.5192 -7.0145 26.4468
-5.2570 5.5256 26.4468
3.7361 -9.3618 26.4468
2.3844 0.0186 26.4468
1.7242 -1.7025 26.4468
-1.4383 -1.5899 26.4468
-1.7980 4.2307 26.4468
14.8067 23.9298 26.4468
8.4900 4.6718 26.4468
-11.5610 7.4112 26.4468
10.8127 12.7333 26.4468
2.0866 12.2274 26.4468
20.4749 -4.6329 26.4468
1.3329 -10.5939 26.4468
-2.6765 9.9678 26.4468
-5.8964 -22.6597 26.4468
11.4902 -7.8261 26.4468
20.9772 -14.2807 26.4468
-15.7021 19.0790 26.4468
-1.0733 24.1058 26.4468
0.9347 -0.7846 26.4468
3.1296 2.9629 26.4468
16.0637 20.9280 26.4468
15.6826 17.3708 26.4468
-19.9595 -25.2447 26.4468
-4.9776 9.3754 26.4468
-24.9471 17.6096 26.4468
-8.8316 7.2132 26.4468
4.1834 3.7265 26.4468
10.3609 13.7577 26.4468
7.0744 -11.1189 26.4468
-8.3379 1.7964 26.4468
15.8611 -22.0594 26.4468
-2.5172 -14.2545 26.4468
4.9576 -2.4375 26.4468
26.2300 -13.8777 26.4468
-1.8508 7.5966 26.4468
0.7922 -0.5668 26.4468
5.4989 11.6573 -26.4468
-3.9180 -12.3545 -26.4468
-17.6729 0.0926 -26.4468
-1.8559 5.0208 -26.4468
19.4347 -5.6058 -26.4468
-19.7354 -23.5199 -26.4468
4.4498 4.0148 -26.4468
-13.8668 -0.1033 -26.4468
-30.9033 3.3691 -26.4468
14.0779 4.0621 -26.4468
12.5407 -27.1579 -26.4468
2.0268 2.8852 -26.4468
15.2812 23.8975 -26.4468
4.1452 -29.8022 -26.4468
-10.8051 6.5005 -26.4468
0.8921 21.7482 -26.4468
-17.2944 -26.2532 -26.4468
29.7554 8.3811 -26.4468
-25.4209 -5.8847 -26.4468
0.1539 -0.5470 -26.4468
21.9811 -0.6853 -26.4468
-2.6577 16.7693 -26.4468
4.1540 -8.6670 -26.4468
-25.0550 -18.3244 -26.4468
-12.0004 -14.1312 -26.4468
-1.2489 1.8883 -26.4468
-11.5091 -4.9225 -26.4468
4.8864 20.3087 -26.4468
14.7472 -14.0780 -26.4468
0.0614 1.5176 -26.4468
-13.9128 -3.6382 -26.4468
-8.9397 4.4233 -26.4468
-7.4539 5.3055 -26.4468
-12.1344 1.0545 -26.4468
-22.0473 18.6729 -26.4468
5.4967 -5.8497 -26.4468
10.6189 22.5932 -26.4468
15.9069 -9.4658 -26.4468
0.3783 5.3250 -26.4468
10.8589 -15.7820 -26.4468
-12.4651 -21.7231 -26.4468
4.2110 -3.1899 -26.4468
-23.8670 -15.4145 -26.4468
-19.8401 13.0899 -26.4468
-3.7250 0.8226 -26.4468
-12.7577 -9.6133 -26.4468
15.3641 -1.2996 -26.4468
-15.8935 1.1863 -26.4468
-1.1749 -10.0766 -26.4468
12.4411 9.3740 -26.4468
-10.8659 12.7528 -26.4468
6.2911 -23.0573 -26.4468
4.0706 1.9073 -26.4468
1.9125 7.1720 -26.4468
-7.0610 6.0128 -26.4468
28.2821 -11.1227 -26.4468
-0.0805 -28.2923 -26.4468
-0.2651 -11.6094 -26.4468
28.0311 -2.2067 -26.4468
0.5826 -21.1460 -26.4468
24.2805 -9.4411 -26.4468
-20.2098 -12.3110 -26.4468
-15.2642 2.1156 -26.4468
-26.2516 -11.0933 -26.4468
15.4896 -6.6257 -26.4468
-4.5201 -30.7339 -26.4468
-18.3636 8.3497 -26.4468
4.1717 10.5860 -26.4468
0.8084 -20.0205 -26.4468
-3.3233 -28.4335 -26.4468
3.4224 2.1102 -26.4468
1.9221 0.6854 -26.4468
2.5944 29.3474 -26.4468
-24.2747 4.9707 -26.4468
4.2097 10.3410 -26.4468
-20.2358 22.0023 -26.4468
-22.2125 -5.0946 -26.4468
8.0092 -15.8712 -26.4468
2.9773 22.8250 -26.4468
17.7093 6.0598 -26.4468
7.7884 -18.9486 -26.4468
-1.8286 1.8092 -26.4468
-0.0965 1.9192 -26.4468
-0.0953 20.1098 -26.4468
32.1891 4.0003 -26.4468
9.8585 -20.8074 -26.4468
-5.6242 21.9341 -26.4468
0.4394 -0.6492 -26.4468
3.5432 -0.2447 -26.4468
10.7076 22.3484 -26.4468
-26.3164 10.7544 -26.4468
13.2114 1.3066 -26.4468
9.4304 -5.2412 -26.4468
-12.6958 0.7916 -26.4468
-16.1839 -3.7956 -26.4468
10.6159 3.9452 -26.4468
15.6775 -11.2011 -26.4468
1.2016 -1.1280 -26.4468
27.0661 -11.1011 -26.4468
-27.7378 -6.9017 -26.4468
-1.8085 -1.5223 -26.4468
-26.9905 -9.2140 -26.4468
-15.5074 -7.2606 -26.4468
1.1776 -7.6141 -26.4468
16.5272 18.1107 -26.4468
11.6994 7.3538 -26.4468
21.3866 8.9345 -26.4468
-20.9685 -12.4990 -26.4468
-18.2187 -24.0047 -26.4468
-17.2885 6.9560 -26.4468
-14.6878 7.6202 -26.4468
27.7974 16.2701 -26.4468
0.2423 -27.8326 -26.4468
-2.0536 24.7338 -26.4468
1.7856 3.6856 -26.4468
-18.7407 3.0080 -26.4468
-1.5186 7.0680 -26.4468
-21.9948 1.9861 -26.4468
4.1156 -2.7090 -26.4468
0.9506 -30.0214 -26.4468
14.3594 -23.5749 -26.4468
19.3671 -0.3134 -26.4468
-12.9468 24.7407 -26.4468
5.5547 8.1412 -26.4468
-9.1883 -16.9539 -26.4468
-3.4050 9.0694 -26.4468
-0.0669 -0.6461 -26.4468
4.6131 18.6211 -26.4468
0.3906 -0.0360 -26.4468
7.1670 -21.2470 -26.4468
-12.3595 -11.7869 -26.4468
-0.2877 -2.4001 -26.4468
-14.1338 24.2368 -26.4468
-14.6026 1.9400 -26.4468
15.2457 25.0867 -26.4468
22.5867 3.6747 -26.4468
-12.7448 -10.6370 -26.4468
18.3193 19.4384 -26.4468
17.4928 -24.4494 -26.4468
26.5369 0.9905 -26.4468
-22.2080 -5.2303 -26.4468
-9.8780 -8.3707 -26.4468
-12.4712 19.0358 -26.4468
14.3830 3.4146 -26.4468
-5.5319 16.7785 -26.4468
-17.9271 -7.8906 -26.4468
7.4743 7.5656 -26.4468
-28.2285 -7.4824 -26.4468
2.5078 -0.5165 -26.4468
24.3570 6.4689 -26.4468
-5.7272 28.3658 -26.4468
14.0837 -2.0848 -26.4468
-6.7944 -19.9520 -26.4468
23.4185 0.5410 -26.4468
