ply
format ascii 1.0
element vertex 1024
property float x
property float y
property float z
end_header
-49.5608 -19.6623 -36.4279
-43.5310 -30.7886 -90.1767
31.0660 -43.3334 -90.6758
20.3663 -49.2757 -37.5951
-39.9747 35.2832 -42.4620
-49.6115 -19.5342 -34.1527
19.4569 49.6418 -47.8738
44.9450 28.6850 22.8886
-50.8099 16.1628 -86.8920
-25.5766 -46.7838 -34.2663
-12.4380 51.8477 68.6781
-52.3277 10.2321 -37.7829
27.2054 45.8558 -92.2749
-2.9460 -53.2373 -64.2684
46.6884 25.7504 20.0654
-28.4477 45.0956 -37.0584
47.9295 -23.3591 10.9097
52.1900 10.9126 -64.8863
-9.7852 52.4131 -16.2687
51.9728 -11.9043 27.5277
-53.1447 4.3045 12.6532
-50.8105 16.1610 9.8277
-5.5997 53.0238 -53.3242
-8.3034 -52.6682 57.4285
-24.1539 47.5339 28.1248
-51.4921 13.8366 7.1640
-52.1829 10.9468 42.6724
47.8469 -23.5277 90.0185
-52.4693 9.4791 -42.3988
-15.6474 -50.9710 -69.2337
53.3072 -1.1057 -53.2086
-17.0774 50.5099 -55.8083
-49.3100 -20.2833 79.1721
33.3987 -41.5622 -46.9722
3.9349 -53.1733 -59.8941
-50.6418 16.6822 -11.3189
-25.3554 -46.9040 -70.0376
23.2113 -48.0012 59.7783
-40.8451 -34.2719 -46.9513
-45.5266 27.7528 -31.4271
2.1916 -53.2736 6.2987
53.1404 -4.3569 -24.8751
52.6294 8.5460 -90.4066
-50.6806 -16.5637 68.8943
34.3336 -40.7932 34.1475
-44.1000 29.9678 80.1388
18.3689 50.0546 62.6216
53.2396 -2.9037 -30.3338
-52.2435 10.6538 -51.4446
-31.1358 -43.2833 -64.6706
53.2335 3.0124 -49.7021
-51.5605 13.5793 -19.8658
29.6552 44.3109 -12.9307
19.6027 -49.5844 8.4079
-38.9031 36.4614 -38.1481
32.0794 42.5887 62.7272
50.2013 17.9642 69.2017
23.3697 47.9243 44.4222
47.4912 -24.2377 -91.4560
-50.2685 17.7752 -4.7560
-52.8194 7.2797 82.0796
2.5714 -53.2567 -37.1074
46.0836 -26.8176 -86.7198
-53.2998 -1.4198 57.2479
23.1391 -48.0361 -64.8245
49.4657 -19.9005 -26.9330
53.2234 -3.1868 32.9334
-2.2813 53.2699 13.6513
-42.4729 -32.2326 72.9109
-16.2264 50.7897 31.3682
17.4931 50.3674 49.2077
-49.2945 20.3208 64.5386
-15.6723 50.9633 -92.1638
5.0717 53.0769 -69.5620
44.3555 -29.5884 48.3302
-52.6765 8.2507 -42.6813
-46.9271 25.3127 -64.9449
-45.8662 -27.1877 75.5841
-19.1804 49.7493 -2.3861
-43.6685 30.5933 -70.6385
-42.8398 -31.7433 -52.8195
13.5588 51.5659 -65.1742
39.1997 36.1423 -18.4442
-1.9845 53.2818 -89.7762
-43.6569 30.6098 -43.6161
34.6974 40.4842 84.6449
-49.2910 20.3293 -92.3735
52.0307 11.6486 -80.8722
-29.5833 -44.3589 28.8361
14.0266 -51.4406 33.9326
53.0857 4.9795 -73.4336
-13.8756 51.4816 -24.4650
-51.6611 13.1916 57.8996
53.0308 -5.5333 25.0409
45.4368 27.8995 8.8364
-47.0675 -25.0505 57.5039
52.9600 -6.1741 -25.6905
-17.1964 -50.4695 -68.7495
-10.7388 -52.2261 -22.3659
-44.3730 -29.5622 79.5500
-21.5920 -48.7511 53.4066
45.7427 27.3951 -31.3428
-48.3827 -22.4053 -14.9939
53.2045 3.4872 -67.4190
-43.7670 -30.4521 55.4053
-36.1229 39.2176 13.3733
49.0261 20.9600 -57.3480
23.1012 48.0543 -50.5757
-2.3610 53.2664 -88.2304
49.8246 18.9840 64.0364
-32.3612 42.3750 -63.0272
-24.3528 47.4323 49.0705
-53.0907 -4.9253 -85.1740
44.4378 29.4647 -9.0539
19.6438 49.5682 45.2969
-29.2194 44.5994 86.5972
53.2098 -3.4068 -68.7531
-39.9647 -35.2945 40.4355
3.7156 53.1891 62.7636
48.3727 -22.4268 -58.4805
48.2223 -22.7485 41.8438
17.3131 50.4295 42.1079
23.4440 -47.8880 -23.1488
51.2764 -14.6157 -57.1702
-50.1366 -18.1440 49.3026
-7.8990 -52.7303 77.9514
-45.8225 -27.2614 57.4146
52.1587 -11.0614 -32.2062
-21.3857 48.8419 -34.8157
43.9278 30.2197 48.6816
20.1068 49.3822 -6.7824
8.0468 52.7080 -32.7270
36.7056 -38.6727 26.2358
2.4286 -53.2634 47.6596
5.6375 53.0198 41.3106
52.7993 7.4244 50.7429
-52.9880 5.9296 -63.2211
52.7543 -7.7375 -49.6659
-22.6681 48.2601 62.5542
-37.0618 -38.3315 -13.5525
40.2499 -34.9690 92.6798
-31.9691 -42.6715 -87.9719
18.5211 -49.9985 72.1408
-51.5605 13.5795 10.3779
29.7489 44.2480 -74.5999
18.9080 49.8535 52.5603
-29.6805 -44.2939 -73.4685
53.0779 -5.0614 -14.7341
-51.4047 14.1578 -36.3469
48.1894 22.8182 -15.0712
-21.9356 48.5975 -40.6350
52.2851 10.4478 -85.1187
3.6124 -53.1962 77.6236
-50.6278 16.7246 67.2427
13.8950 51.4763 40.0136
-51.7968 12.6483 9.6960
-44.8881 28.7739 -34.9595
-38.4108 -36.9796 -26.3269
-53.3001 -1.4083 59.8748
30.2671 43.8952 1.2010
52.1232 11.2276 72.4400
-29.0547 -44.7069 91.5292
30.5805 43.6774 87.9670
52.0948 -11.3585 -40.3031
4.0826 -53.1622 -74.9503
28.7995 -44.8717 -8.2085
53.2674 2.3378 26.7167
6.5596 52.9137 59.9153
-16.8076 50.6003 -75.4244
-19.2626 -49.7176 90.5846
-27.5304 -45.6614 91.1829
53.0720 5.1236 -67.6709
53.2285 3.0999 74.8434
7.9224 -52.7268 55.9076
6.6343 -52.9043 67.7824
39.3407 35.9888 -60.3329
-44.1433 29.9041 -4.1414
-51.9215 12.1262 83.9863
-19.6922 49.5490 -86.1868
52.2854 10.4459 34.7791
-29.7229 -44.2655 11.0987
28.4866 45.0710 51.1908
-27.5599 45.6436 -85.3189
25.2670 -46.9517 -24.4382
-38.2113 -37.1858 37.8048
-52.2046 10.8427 -82.2765
10.0741 52.3583 -7.6288
33.4223 -41.5432 -66.0220
15.4525 -51.0304 32.8658
-1.1233 -53.3069 73.6966
-39.8398 -35.4355 -8.0627
-49.4334 19.9806 69.2593
53.0422 -5.4231 -90.8668
5.4774 -53.0366 21.6482
53.0513 -5.3330 52.2073
-41.9852 32.8653 -23.1844
53.2218 -3.2128 -54.5441
-33.3496 41.6015 -22.1698
-52.8219 -7.2619 -15.3193
-31.7753 42.8161 75.1944
37.9493 -37.4531 23.6411
-7.8977 52.7305 3.0386
-37.2262 -38.1719 43.2157
3.0856 53.2293 68.9838
53.3130 -0.7782 72.6131
-52.2511 -10.6165 -52.8418
-51.6992 -13.0412 76.6415
32.7875 -42.0460 21.7164
-41.4377 -33.5530 49.6992
-48.9754 -21.0784 -1.3607
-44.4998 29.3710 -19.5051
-24.1627 -47.5294 -42.3826
-52.5664 -8.9250 15.0055
-50.9013 15.8727 -43.7852
6.2387 52.9525 -90.1682
6.3139 -52.9435 -39.7696
20.9160 49.0449 70.0355
35.3913 -39.8790 -77.9757
2.3352 53.2675 50.7040
-41.5913 33.3623 51.7353
-41.5712 -33.3874 61.2560
21.0253 48.9982 -76.4140
53.3181 -0.2523 28.8365
-43.8172 -30.3798 43.2169
21.0407 48.9916 90.1166
48.8104 -21.4576 -0.8272
-32.9607 41.9104 48.7615
31.1690 -43.2594 30.7054
-49.8209 -18.9938 -40.8487
-53.3003 -1.3997 -9.6958
20.3232 49.2935 -6.7940
7.6095 52.7729 -23.9218
-4.9927 53.0844 45.0009
-51.0293 15.4561 -54.1331
13.8639 -51.4847 77.8615
43.7299 -30.5054 71.1204
-16.2178 -50.7924 -11.6002
-16.5269 50.6927 35.7395
-39.4173 -35.9048 -77.8742
53.3177 0.3268 -86.8101
-15.8178 -50.9184 -34.8633
-46.1878 26.6377 13.2125
-9.5347 -52.4593 65.9725
-30.5796 43.6780 76.8350
48.1835 22.8306 68.4471
40.3006 -34.9105 -63.3891
46.7748 25.5931 -70.7836
-36.2581 39.0926 39.5589
-17.2860 50.4388 -59.8909
-47.6398 -23.9443 42.4927
-30.9618 -43.4080 -36.7927
10.2254 52.3290 -57.7299
-14.6037 -51.2798 56.8054
19.5075 49.6220 -60.9937
31.6176 -42.9327 -86.0159
-26.1658 -46.4568 51.5046
30.1823 -43.9535 -35.4257
29.9298 -44.1258 2.2511
-28.2185 45.2394 -86.2636
52.5376 -9.0930 11.7056
41.7125 -33.2107 11.0572
10.8281 -52.2076 31.6530
9.7635 52.4171 48.1608
46.0119 -26.9404 -22.8455
53.2805 2.0187 68.8872
35.0192 -40.2062 49.5056
-29.4552 -44.4441 -19.7568
-11.3846 52.0891 45.9693
-48.5859 -21.9612 -57.5877
34.4074 40.7310 -29.4074
30.6756 -43.6107 0.4825
6.9996 -52.8573 -14.0901
-22.6685 48.2599 20.8087
43.8434 30.3421 47.6931
-10.5715 -52.2602 -64.3293
-33.6613 -41.3498 -62.5353
-22.4940 48.3415 -14.2795
-26.9766 45.9907 -28.1189
26.6133 -46.2019 -37.2652
-22.8736 48.1631 64.6822
45.9971 -26.9657 2.6802
-39.8648 -35.4073 56.2174
52.4758 9.4433 2.7805
-36.6555 -38.7202 -65.7217
37.9803 37.4216 -24.1507
-38.0318 -37.3694 -44.0526
-38.0061 -37.3955 43.5878
-2.4340 -53.2631 -0.1860
9.6259 52.4426 48.9192
52.4957 9.3317 -60.1840
45.9814 -26.9925 -15.5528
24.0015 -47.6110 -16.8970
33.8402 -41.2035 -7.7607
-53.0168 5.6661 -86.0861
-53.2935 -1.6394 58.9180
10.0201 -52.3687 43.3022
-51.9306 -12.0872 -20.5948
30.9672 43.4041 56.5164
-42.2791 -32.4864 -1.0200
-37.6052 37.7986 77.9151
-38.7123 -36.6639 18.5891
9.0708 -52.5414 20.8712
48.4498 22.2598 -3.7146
-35.6398 39.6571 25.4862
-42.7107 -31.9167 48.2994
-18.2412 50.1013 55.7047
11.5030 52.0631 -33.6924
-38.1406 -37.2583 -76.2972
-11.6129 52.0387 36.8811
-14.9611 51.1767 3.7883
44.0502 -30.0411 75.6962
-43.7341 -30.4994 32.6280
-50.4961 -17.1179 -67.2324
53.1623 -4.0808 28.8818
-40.9295 -34.1710 -9.4507
-23.6937 47.7649 65.6760
22.5081 -48.3349 53.3827
-35.2549 39.9997 63.0347
52.7393 7.8388 -15.9270
-51.4069 -14.1496 27.4188
30.7789 43.5378 -43.8222
24.1685 47.5265 -17.0666
52.4889 9.3704 83.3588
41.7097 -33.2143 33.7816
-23.3883 47.9152 36.5118
7.0854 -52.8458 -28.2238
18.9430 49.8402 -74.1885
20.4012 -49.2613 30.8528
-21.5579 -48.7662 -47.4960
-46.7950 25.5560 85.1703
51.8170 -12.5652 -6.9686
-42.2260 32.5553 16.6200
-45.5005 -27.7955 76.1360
37.9384 37.4641 84.9971
-14.6569 -51.2646 -73.1512
45.4220 27.9235 -76.7467
19.5285 49.6137 -42.6159
-4.5710 53.1224 -18.2663
-42.4899 32.2102 91.4821
26.0921 46.4982 -82.7218
-43.9269 -30.2210 -74.0317
-51.1674 -14.9926 78.5334
53.2781 -2.0810 63.9955
43.1625 -31.3031 -55.6608
44.9974 -28.6027 -27.4567
-41.7190 -33.2025 2.9117
50.4128 17.3618 81.1900
-49.1787 20.5996 -70.8309
-44.8323 -28.8608 62.8390
-51.4192 -14.1051 83.0882
3.5913 53.1976 -91.9612
48.6825 21.7463 -13.8236
41.5779 -33.3791 -31.8895
-51.1847 -14.9335 83.0221
-5.6851 -53.0147 3.9247
21.2280 -48.9107 -74.3222
-5.3259 53.0520 72.0566
52.6572 8.3727 -66.3301
38.3067 37.0874 64.3865
-11.5529 52.0520 63.3259
38.4079 36.9826 35.3328
39.4515 35.8673 -15.8262
20.3782 49.2708 -70.7828
-23.9482 47.6379 65.0504
46.4496 26.1785 43.0701
47.9657 -23.2846 -19.5936
25.1156 -47.0329 -60.2466
-29.7350 44.2573 -64.5210
53.2563 -2.5783 -34.8154
52.1951 10.8881 -53.5954
28.6209 -44.9859 16.5333
-50.1013 -18.2411 53.1770
48.3077 22.5667 10.4168
46.9214 -25.3233 48.3797
-48.1106 -22.9839 20.4462
0.2175 -53.3183 10.1429
51.2012 -14.8768 82.4758
16.6214 50.6618 -27.2854
53.1617 -4.0886 2.3937
50.4135 17.3598 -3.0298
-5.4493 -53.0395 77.9392
-53.2681 2.3219 -80.9075
36.9188 -38.4693 -70.9391
-39.2552 -36.0820 -53.4521
37.7903 -37.6135 66.7823
5.4721 -53.0372 81.1838
-51.0486 15.3923 26.7565
-52.4236 -9.7289 -2.2527
33.7323 41.2919 -84.9241
-50.0825 -18.2928 8.4019
-51.4314 14.0603 24.8994
19.0680 -49.7925 88.1016
-52.5557 -8.9881 74.0871
8.3145 52.6664 75.1906
15.6881 50.9585 49.1213
-17.9928 -50.1911 -68.1899
-9.0869 -52.5387 -71.8583
29.7440 -44.2513 46.4229
-52.4701 9.4750 -75.9819
4.0882 53.1617 -40.1374
44.7229 -29.0301 -91.7131
39.3710 35.9556 -47.0489
51.0309 -15.4509 27.4104
-9.6093 -52.4456 77.2218
-24.2073 -47.5068 -89.5995
34.3043 40.8178 -66.3521
-16.1179 50.8242 -62.3530
-52.9792 -6.0069 84.5919
-35.6089 -39.6849 58.2340
-7.5812 52.7770 -60.7943
-44.0244 -30.0789 -68.3439
52.4183 -9.7572 85.8289
23.9247 -47.6497 11.8781
-7.1988 -52.8305 56.8786
-52.7358 -7.8628 51.7802
8.9402 -52.5638 -78.1566
-1.3804 53.3008 -18.9281
16.8584 50.5834 69.2335
52.9870 5.9384 74.5685
-36.1945 39.1515 76.2652
52.2521 10.6112 4.5544
-45.4727 -27.8410 -14.8003
-52.9090 -6.5968 -52.7180
-49.6140 -19.5278 51.1878
-32.8005 -42.0358 72.8181
25.9688 46.5672 -76.3957
-53.1021 -4.8013 79.2507
-41.3504 -33.6604 85.7740
14.7537 51.2368 39.1356
38.6661 -36.7126 -23.1377
49.3695 20.1380 70.1874
36.9019 -38.4855 63.2348
-48.8195 -21.4369 -39.8006
30.0948 44.0135 -90.1156
-30.2083 43.9357 -64.2835
-28.9317 44.7866 49.1737
51.8136 -12.5793 66.4299
34.6399 40.5334 41.3963
35.0613 -40.1695 -82.3988
31.4141 -43.0818 85.6783
25.6906 46.7213 -38.0958
-30.7481 -43.5596 -13.3263
47.9470 -23.3231 48.8791
-48.3370 22.5038 -81.6997
-27.7059 45.5551 -43.9065
41.5666 -33.3932 -63.6797
2.3947 -53.2649 -59.4384
42.9606 31.5797 -42.6923
-34.0654 41.0174 52.1930
45.7303 27.4157 -41.7631
-16.2622 50.7782 33.8398
-53.3157 -0.5634 -85.4781
13.8532 51.4876 -63.3942
20.1045 -49.3831 67.5045
14.3865 -51.3411 -0.8619
-50.6481 16.6630 -68.9714
-51.4401 14.0284 34.7759
-53.0976 4.8509 -6.9488
48.6553 21.8069 15.4473
-29.8166 -44.2024 -44.8540
6.7215 -52.8933 23.3124
52.6988 -8.1067 16.7395
-4.4749 -53.1306 -25.3859
-49.3755 20.1233 57.6523
52.8859 6.7801 9.8435
51.6404 -13.2722 39.6442
33.7148 -41.3061 -17.2829
49.1598 -20.6445 -10.5387
-10.0353 -52.3658 -88.1816
2.5407 53.2581 -40.0913
-13.9984 51.4483 62.2137
-52.9606 -6.1687 58.7987
51.6088 -13.3946 1.0289
-16.1624 50.8100 -71.8194
-45.8346 27.2410 15.0897
5.8897 52.9924 -88.8082
53.0561 -5.2855 -88.0384
-30.8909 -43.4585 -58.7288
-50.6207 16.7460 50.1765
36.1192 39.2210 -40.2339
-3.3996 -53.2102 73.4907
21.2609 48.8964 -88.0762
21.0040 -49.0073 -47.3529
-31.9600 42.6784 13.3944
32.5992 -42.1922 -59.1332
46.8712 25.4159 6.6942
-13.6418 51.5440 -19.4694
6.5403 -52.9160 24.5279
9.5026 -52.4651 -47.9097
-53.3154 -0.5914 -25.4333
34.5607 -40.6010 -22.7232
-41.7200 -33.2012 -31.6677
-51.9360 12.0639 -7.3526
-52.8803 6.8230 51.9041
-14.1946 -51.3945 29.6435
-47.8696 23.4816 -32.5526
1.6261 53.2939 2.3956
15.8020 50.9233 -71.6791
-25.8132 -46.6537 -6.0645
-45.3692 28.0092 -49.7030
-9.5045 52.4647 -36.6434
-4.2189 53.1515 76.4911
27.5776 -45.6329 -54.1202
15.4973 51.0168 41.3061
39.1866 36.1565 -55.7239
44.4549 -29.4389 58.3857
-37.7064 -37.6976 67.4649
-52.9211 -6.4991 85.4143
-18.5412 -49.9911 64.2019
-15.4896 51.0192 -68.4774
52.7911 -7.4825 85.2494
-49.3859 20.0976 -66.5964
-0.1705 -53.3184 32.2343
-53.2997 1.4241 27.4006
51.0914 15.2497 7.2755
-33.9325 -41.1275 33.3368
-24.2971 -47.4609 -73.9640
-33.1798 41.7371 -0.7529
22.2676 -48.4462 -44.7838
36.3341 39.0220 11.5618
26.2314 -46.4198 -39.9186
19.5927 49.5884 -46.0129
8.4173 52.6501 -70.5019
22.9988 -48.1034 -3.1821
-48.2849 22.6154 -61.8688
-2.0898 -53.2777 -84.9162
48.2740 22.6385 71.0132
-18.9891 49.8227 -75.4935
21.8811 48.6220 -2.9174
-48.7423 -21.6119 23.2391
16.3688 -50.7439 -65.5952
-37.3781 -38.0231 -32.6155
-53.1652 4.0423 9.1617
-10.2655 -52.3212 21.1189
39.4734 35.8432 52.9716
52.4471 -9.6011 -47.2578
-50.8883 15.9143 -8.2262
-53.2855 1.8823 -17.2174
52.9962 5.8557 79.1299
47.6178 23.9882 -53.9185
19.6059 49.5832 1.2144
-52.2367 10.6870 -31.8972
-53.1748 3.9150 16.2267
23.5081 47.8566 -91.9014
53.3157 -0.5691 7.6479
-3.8474 53.1797 11.9683
39.9511 -35.3100 69.7008
-53.2639 -2.4175 84.9666
53.2899 -1.7520 12.0164
-53.2689 2.3028 63.5775
53.1194 -4.6054 -68.9160
18.8505 49.8753 -10.1350
23.8838 -47.6702 -22.9360
52.4370 9.6562 -54.7704
-46.9875 25.2004 58.6932
17.8509 -50.2417 74.8445
46.1769 26.6566 31.9031
-18.9197 -49.8490 -17.3328
30.2418 -43.9126 -66.0428
52.9763 6.0327 45.0813
-51.4424 14.0202 -83.8043
-17.2867 -50.4386 75.1561
-41.3343 33.6802 -69.4422
48.6616 21.7929 -39.7605
-35.0850 40.1488 -55.1360
53.2520 2.6664 57.3571
26.6434 46.1846 9.3245
29.8564 -44.1756 71.3964
15.1191 -51.1302 46.5414
5.0231 -53.0816 56.1152
37.6646 37.7394 -90.5438
-13.4203 51.6021 33.9660
-17.6906 -50.2984 -73.4620
-23.7630 47.7305 62.0185
-33.4517 41.5195 -22.1206
23.0653 -48.0716 34.2680
-38.6611 36.7178 56.8539
-52.7930 7.4686 -80.4655
52.4098 -9.8027 -14.0120
48.7131 -21.6775 16.9006
-48.6523 -21.8137 70.2313
-52.7080 -8.0467 78.7046
-24.7227 47.2406 40.7012
-6.5601 -52.9136 -69.0296
-28.1068 45.3089 -48.5752
-44.7509 -28.9869 54.7318
-19.6659 -49.5594 -72.6371
51.6004 -13.4271 -5.0871
-53.1880 3.7308 -88.9110
-51.4509 -13.9887 48.4736
53.1315 -4.4639 -49.4670
-52.8087 7.3568 -51.7619
16.8828 50.5752 76.8862
21.6353 -48.7319 15.6492
-53.3186 0.0863 38.4939
-8.9256 -52.5663 48.6596
6.1043 -52.9681 71.9951
-10.0459 52.3638 -89.9214
44.0985 29.9701 25.8022
-53.2656 -2.3793 86.2503
-53.2366 2.9575 72.3918
32.3246 42.4029 33.5616
-39.1171 -36.2317 -74.0613
50.5131 -17.0678 14.6340
38.1851 -37.2127 -36.6122
38.8155 -36.5547 78.4871
33.8921 -41.1608 -78.9223
52.2929 -10.4084 -51.5921
8.4144 52.6506 -31.2620
49.9831 18.5626 25.0129
-1.9851 -53.2817 13.9014
-48.8084 21.4623 59.7420
-47.3095 -24.5905 -7.5617
-30.7568 43.5534 27.5607
-6.0157 52.9782 -3.2149
46.9160 25.3332 -38.3164
9.7789 52.4143 71.8216
-44.4956 29.3774 -18.7357
48.1802 -22.8375 -52.0427
51.9947 11.8081 47.3296
-47.6166 23.9905 -43.5602
-6.1033 52.9682 -75.8075
-53.2864 1.8545 56.2105
-0.4641 -53.3167 -83.4435
-37.3402 -38.0604 75.0251
45.1951 28.2893 -54.0828
30.4007 -43.8027 27.7293
-29.3854 -44.4903 17.7198
-53.2298 3.0774 7.6254
-50.6670 16.6053 36.4171
-3.9753 -53.1703 54.4807
27.6178 45.6086 11.7060
-42.8751 -31.6956 -61.1607
-43.5803 30.7188 32.2487
18.7012 -49.9314 54.3106
-4.2580 -53.1484 -48.2937
9.3126 52.4991 -29.0996
50.2866 -17.7239 72.0942
49.4910 -19.8375 -82.9836
51.4368 14.0405 77.3163
-36.5109 38.8566 -15.9487
53.2754 -2.1474 39.6117
35.1847 40.0614 68.6812
36.9160 -38.4720 -74.6624
-6.3494 52.9393 -5.4512
34.4159 -40.7238 -59.9723
26.8876 -46.0428 -47.6971
-17.2659 50.4457 32.4421
17.0752 -50.5106 -29.6744
-37.2883 38.1112 66.6290
-30.2335 43.9183 27.7526
30.4810 -43.7469 59.3068
36.3686 -38.9899 80.7075
36.3211 -39.0341 -87.3427
41.4308 -33.5615 31.7893
-26.9492 46.0068 -92.3810
52.8545 7.0202 -49.4025
42.0894 32.7317 -48.6675
-35.3877 39.8823 7.3562
-19.7789 -49.5144 -48.6672
28.6017 -44.9981 -33.3370
46.8206 -25.5090 -20.0262
29.5309 -44.3938 -2.3739
-6.5955 -52.9092 -14.9697
-53.3183 0.2187 1.9687
-0.5175 53.3162 18.2720
-12.1870 51.9072 62.9475
-48.4798 22.1944 -71.3497
-15.8949 -50.8943 -72.3331
9.2920 52.5028 -51.7883
-52.2826 -10.4600 -44.9782
24.9572 -47.1171 -0.2560
-26.6637 46.1728 16.6227
-50.2329 -17.8756 57.3354
48.5552 -22.0291 -1.9541
31.1616 43.2648 -85.4005
-1.5136 53.2972 57.1564
43.6208 30.6613 72.4764
7.1731 -52.8340 55.3196
40.9517 34.1445 51.1725
52.7415 7.8245 -65.6468
31.6245 42.9276 -70.1486
-20.9656 -49.0238 19.1077
50.9580 -15.6895 3.8794
50.1877 -18.0021 -24.6411
-6.9575 52.8628 -44.2781
10.6363 52.2470 -15.1175
45.2913 28.1350 62.9763
-26.8825 -46.0458 -34.3275
-43.3922 -30.9839 -15.7185
-2.7486 53.2478 38.4233
53.1249 4.5423 78.3275
-53.2760 -2.1339 48.6331
-52.5548 8.9929 37.9084
-34.7965 40.3991 47.8796
-38.5843 -36.7986 9.0510
36.0173 -39.3146 -27.4809
10.0156 -52.3696 89.7067
-43.0668 -31.4345 5.7127
-19.3520 49.6828 -85.4547
47.2858 -24.6361 -45.0908
0.2745 53.3180 -86.7658
-1.9616 53.2826 47.1060
39.9855 35.2710 72.0139
53.1738 -3.9286 -59.8815
-19.6999 -49.5459 -60.8377
11.6100 52.0393 -3.1233
52.5510 9.0151 72.4920
53.1211 -4.5860 -5.9848
-53.0699 -5.1447 82.1098
53.0711 5.1323 9.2689
-52.3437 -10.1497 -32.5284
43.4007 -30.9720 66.4105
51.7840 -12.7003 33.0545
-34.2830 40.8358 -8.8742
-52.7677 7.6452 -49.7192
21.3225 -19.2937 92.7157
-6.8981 -5.6992 92.7157
-25.4790 13.4684 92.7157
-18.6568 15.3419 92.7157
38.3667 2.7387 92.7157
-18.2288 -3.7376 92.7157
-21.6351 -44.7444 92.7157
21.0350 17.3802 92.7157
-10.4283 2.9159 92.7157
2.9629 -10.5443 92.7157
-26.9443 29.4019 92.7157
-25.5073 -25.9717 92.7157
-21.9495 45.8487 92.7157
-34.0433 34.4398 92.7157
-26.1847 18.6426 92.7157
25.3623 -39.5517 92.7157
-23.2862 -22.6674 92.7157
32.6474 -3.3813 92.7157
-15.3603 18.7931 92.7157
5.3236 9.3315 92.7157
-22.0907 -40.1395 92.7157
-19.7407 34.0249 92.7157
-31.8587 32.7252 92.7157
-4.4200 -3.1237 92.7157
-21.6960 -5.8928 92.7157
-40.5641 33.7326 92.7157
12.2087 36.8085 92.7157
29.8351 39.8716 92.7157
-48.5667 18.1437 92.7157
8.6751 -3.4878 92.7157
-30.6482 -29.8025 92.7157
17.1955 23.9441 92.7157
10.8942 17.6652 92.7157
9.2909 4.8138 92.7157
7.5154 23.9944 92.7157
-0.4496 1.8952 92.7157
2.5717 17.0370 92.7157
11.3462 1.1361 92.7157
-43.5745 -15.6015 92.7157
-49.6139 -10.5918 92.7157
-4.4305 0.3028 92.7157
-12.2176 9.3477 92.7157
1.3386 -6.2465 92.7157
-28.2828 -4.9100 92.7157
-23.1260 -3.0855 92.7157
12.3819 33.4285 92.7157
-26.7281 15.5248 92.7157
-30.2468 -11.5398 92.7157
-7.5446 16.3148 92.7157
-25.8257 25.3984 92.7157
39.6344 30.7694 92.7157
13.2218 23.4277 92.7157
34.3842 1.4603 92.7157
13.3872 -1.6771 92.7157
-3.7186 -14.9017 92.7157
1.3663 21.4746 92.7157
-3.8012 6.9415 92.7157
5.9315 -0.8716 92.7157
49.4790 -10.4416 92.7157
29.4868 43.0020 92.7157
-22.8343 21.2898 92.7157
6.6345 -0.1758 92.7157
-30.7740 14.0473 92.7157
-22.1928 -21.7959 92.7157
-20.4166 -44.5331 92.7157
13.3111 -46.1551 92.7157
-4.3122 -15.9989 92.7157
22.8323 -14.9902 92.7157
-49.8673 -8.4393 92.7157
0.0666 -42.3732 92.7157
-15.3946 35.0701 92.7157
-46.6930 3.9014 92.7157
-35.8463 -3.9256 92.7157
-23.4401 -14.3562 92.7157
21.4566 23.3759 92.7157
19.8984 -16.2554 92.7157
-14.5967 5.1064 92.7157
7.0417 -13.9848 92.7157
-23.1378 16.6064 92.7157
13.8079 -1.9899 92.7157
-4.0024 19.7325 92.7157
28.5153 16.6552 92.7157
6.4141 -51.4608 92.7157
-10.1035 43.7314 92.7157
23.6342 -11.3340 92.7157
-15.3690 23.9522 92.7157
37.4543 16.2507 92.7157
-30.7474 42.0531 92.7157
12.0187 -15.1069 92.7157
27.6643 3.2070 92.7157
-0.9289 4.5605 92.7157
17.5429 9.1406 92.7157
-20.7856 27.0614 92.7157
-10.4187 -23.6666 92.7157
45.0462 9.3106 92.7157
4.3842 -29.2080 92.7157
8.7945 -35.0224 92.7157
-10.7759 46.8341 92.7157
-0.6377 -21.5762 92.7157
37.5812 -7.1095 92.7157
45.9133 12.2430 92.7157
1.4213 -7.3974 92.7157
8.8794 47.4115 92.7157
28.2758 -1.2019 92.7157
13.0114 7.7462 92.7157
-17.7699 -0.2877 92.7157
-25.6100 -13.0124 92.7157
-13.6633 5.0565 92.7157
3.7388 2.8561 92.7157
-29.3395 -26.1878 92.7157
-28.2726 2.5418 92.7157
1.8680 2.2224 92.7157
-38.7400 3.5744 92.7157
2.1263 -1.6652 92.7157
-3.0501 -26.3069 92.7157
-0.4884 -0.8383 92.7157
-21.5292 4.6841 92.7157
-13.3695 -1.1795 92.7157
8.2518 -48.0363 92.7157
-0.5683 -0.3988 92.7157
40.5191 34.0462 92.7157
15.4035 13.4525 92.7157
0.1993 -0.6387 92.7157
-1.8877 3.3208 92.7157
3.7493 -22.7754 92.7157
-2.1354 -16.1379 92.7157
-44.7533 0.0133 92.7157
-11.9085 29.5217 92.7157
-2.1619 8.6066 92.7157
-16.1037 -16.2068 92.7157
17.3295 -3.6275 92.7157
1.5268 6.2951 92.7157
-27.6233 -20.7693 92.7157
24.8985 10.6640 92.7157
-2.6121 29.8206 92.7157
13.9353 28.1037 92.7157
-0.8135 1.8029 92.7157
-3.2066 -1.2254 92.7157
7.0949 13.4743 92.7157
2.0659 0.1780 92.7157
-19.4554 24.8594 92.7157
3.8159 7.0441 92.7157
-3.6176 -31.4400 92.7157
1.5908 0.5330 92.7157
35.2279 6.5918 92.7157
-3.7094 2.5548 92.7157
-19.3523 -8.6530 92.7157
10.6961 -48.5985 92.7157
26.8629 11.9021 92.7157
0.6117 0.1180 92.7157
-11.9807 9.1961 92.7157
-48.6093 11.6814 92.7157
17.8202 -25.9101 92.7157
20.0766 -23.1612 92.7157
-12.3639 11.3785 -92.7157
-0.3127 1.7209 -92.7157
2.4179 -0.3744 -92.7157
-2.7217 -49.0241 -92.7157
45.6609 -16.6471 -92.7157
43.1970 -6.6081 -92.7157
-7.4962 -14.1570 -92.7157
3.5085 4.0445 -92.7157
-1.2993 2.1863 -92.7157
-0.0164 18.4481 -92.7157
21.0100 -8.2624 -92.7157
14.7159 -24.1286 -92.7157
-0.5167 0.6402 -92.7157
-9.9052 26.7783 -92.7157
-7.0566 -10.1381 -92.7157
-28.1301 -8.4397 -92.7157
1.0362 -2.1078 -92.7157
42.1543 -6.4549 -92.7157
4.7670 -23.4338 -92.7157
15.7123 21.8353 -92.7157
34.2903 -32.6137 -92.7157
1.3271 12.3088 -92.7157
35.7762 -19.7858 -92.7157
-14.2823 10.4591 -92.7157
48.3859 -15.2563 -92.7157
-19.5672 -26.3180 -92.7157
16.4732 46.8865 -92.7157
-17.4105 32.3894 -92.7157
-4.0523 13.3164 -92.7157
43.3103 5.3356 -92.7157
6.6664 5.3600 -92.7157
15.9628 -12.2430 -92.7157
12.4415 -14.3910 -92.7157
14.2338 -27.1138 -92.7157
14.3668 38.2405 -92.7157
7.7898 1.8823 -92.7157
36.5422 15.9815 -92.7157
2.0621 3.6991 -92.7157
37.8811 32.5712 -92.7157
-5.0693 5.2856 -92.7157
8.0982 -15.5762 -92.7157
17.0091 -16.4040 -92.7157
-2.1846 41.3294 -92.7157
-24.4192 17.6530 -92.7157
-0.3330 31.6151 -92.7157
-36.8256 12.9522 -92.7157
20.5788 8.6558 -92.7157
-20.5770 33.0351 -92.7157
-7.9556 -19.1418 -92.7157
-5.6903 -9.6293 -92.7157
-28.1671 9.5070 -92.7157
12.0139 -0.9933 -92.7157
49.8358 -14.4228 -92.7157
0.2627 -8.5127 -92.7157
25.1640 -30.0230 -92.7157
34.1666 32.0560 -92.7157
46.0392 -7.5871 -92.7157
3.0304 -26.9590 -92.7157
14.4183 -43.5479 -92.7157
43.8916 24.2163 -92.7157
-45.4067 -2.3039 -92.7157
40.7265 25.2637 -92.7157
40.6310 -0.0149 -92.7157
36.4734 -28.8293 -92.7157
-2.5342 -10.0341 -92.7157
-6.5608 4.6369 -92.7157
-10.7338 -1.3008 -92.7157
4.7510 28.0727 -92.7157
-32.4208 35.3592 -92.7157
29.8356 6.0925 -92.7157
-3.7792 -46.2901 -92.7157
17.6137 10.3544 -92.7157
-12.2314 -41.7864 -92.7157
-12.6919 -33.0245 -92.7157
-1.2960 3.5877 -92.7157
-37.6825 5.6466 -92.7157
8.7907 10.9454 -92.7157
-27.4794 -16.6820 -92.7157
39.7813 16.6696 -92.7157
-4.8355 -6.7316 -92.7157
-0.8065 -2.2874 -92.7157
44.0763 7.3727 -92.7157
-41.1462 -30.9147 -92.7157
13.7554 8.9450 -92.7157
36.2595 37.0129 -92.7157
-10.4935 3.9337 -92.7157
24.2402 -4.9362 -92.7157
8.5494 44.4082 -92.7157
26.4852 -0.4552 -92.7157
28.7827 9.2940 -92.7157
4.7245 -4.4103 -92.7157
16.5742 18.7701 -92.7157
-24.6966 12.9858 -92.7157
-0.8950 -37.0385 -92.7157
20.2795 7.7982 -92.7157
7.3594 0.8332 -92.7157
-32.9989 -5.3721 -92.7157
-6.5859 -10.0293 -92.7157
6.9589 3.0158 -92.7157
-7.2706 0.7284 -92.7157
-11.1663 34.6836 -92.7157
18.2961 11.2840 -92.7157
3.0345 30.9060 -92.7157
-12.4306 0.3067 -92.7157
25.8628 -24.9046 -92.7157
-11.2545 4.6678 -92.7157
35.0573 17.0671 -92.7157
-21.2054 46.4137 -92.7157
14.3969 10.3371 -92.7157
-1.1593 4.5761 -92.7157
15.3732 -36.5657 -92.7157
27.9213 -7.9977 -92.7157
-1.3884 -3.5065 -92.7157
24.1780 -40.5155 -92.7157
32.3093 -0.2084 -92.7157
19.8012 -19.0885 -92.7157
-2.1470 -4.9252 -92.7157
20.4010 24.2608 -92.7157
-5.2597 1.1167 -92.7157
-5.1544 3.5411 -92.7157
10.8141 1.0738 -92.7157
-6.3292 52.4924 -92.7157
-28.9441 13.8523 -92.7157
7.9232 -21.7989 -92.7157
-26.9684 -0.6550 -92.7157
-23.0082 18.7729 -92.7157
34.9775 -8.7031 -92.7157
34.9380 5.9554 -92.7157
-40.8406 -28.0363 -92.7157
-33.2635 14.5289 -92.7157
14.1661 -1.6630 -92.7157
-16.4577 -49.8110 -92.7157
20.9100 -36.5540 -92.7157
19.3101 -20.0095 -92.7157
24.1837 19.2983 -92.7157
-18.7574 27.3707 -92.7157
-52.3118 -9.8524 -92.7157
0.4701 2.0042 -92.7157
2.3340 -8.4406 -92.7157
-21.2090 -26.2135 -92.7157
11.6785 -12.6771 -92.7157
20.4131 -0.9260 -92.7157
28.8276 36.0509 -92.7157
15.7115 7.4553 -92.7157
-29.0794 -2.6664 -92.7157
-12.6330 -13.9403 -92.7157
-43.4737 20.5918 -92.7157
15.9061 -16.1675 -92.7157
22.3572 -16.7814 -92.7157
1.6408 11.1683 -92.7157
31.4785 15.5847 -92.7157
-2.3936 -41.0793 -92.7157
-17.3832 9.2644 -92.7157
-28.7662 20.2578 -92.7157
