ply
format ascii 1.0
element vertex 1024
property float x
property float y
property float z
end_header
92.1324 -22.0816 6.1062
-81.6264 48.0949 33.6660
82.9245 -45.8204 -66.3799
-84.2223 43.3887 3.9942
17.0218 93.2000 -18.4105
94.7267 1.6826 -25.2789
-89.8744 29.9762 28.7919
-92.8009 19.0783 35.4459
-89.7446 -30.3627 6.5248
76.3667 -56.0724 43.9445
-86.2177 39.2746 52.9760
3.8862 -94.6619 1.7985
22.5714 92.0137 -14.9013
-81.6540 48.0480 2.9127
94.6876 3.1988 -16.1612
-17.4303 93.1245 48.6087
-89.7691 30.2902 -58.8587
-69.3364 -64.5635 63.0872
-79.9788 50.7875 -17.5171
72.4823 61.0107 -1.8003
-90.4120 -28.3133 1.4356
57.0786 -75.6176 36.8800
-90.7400 -27.2441 -20.7286
-91.3867 -24.9892 -67.4184
-91.3874 24.9865 -60.4449
-27.3803 -90.6990 48.1480
4.8709 94.6164 -44.9311
93.6873 -14.0949 20.6635
12.3237 -93.9367 -4.5479
-67.0398 66.9451 -52.7152
24.7058 -91.4637 -14.9865
-56.2328 76.2486 -25.8030
-50.1973 80.3506 55.6853
89.4259 -31.2889 33.2877
26.2148 91.0427 -31.8150
-70.8984 -62.8443 50.9424
-57.2721 75.4711 29.9465
63.5401 70.2755 -61.3845
53.4847 78.2008 55.8497
-1.4347 -94.7308 64.8145
-65.5476 68.4068 53.8589
-88.3451 -34.2217 -9.8915
19.6846 -92.6742 34.2967
26.9847 90.8175 18.5451
-94.7402 0.5314 49.2003
92.4169 -20.8591 63.7875
51.8037 -79.3244 5.0257
-13.4951 93.7756 -50.1520
90.2692 28.7654 43.0989
-86.6623 -38.2835 24.5647
-94.6223 -4.7543 -45.9954
62.1042 71.5475 64.4564
-43.4691 84.1809 49.4136
76.6184 55.7279 51.1138
73.4529 59.8385 8.0375
59.2644 -73.9170 59.1724
6.4097 -94.5246 30.4238
49.9002 80.5354 -43.4210
64.7125 -69.1974 -46.4941
-12.4783 -93.9163 -45.4403
60.7326 -72.7155 54.9106
84.2282 -43.3773 -53.8621
48.1037 -81.6212 23.1931
90.1520 29.1306 -37.1707
27.1807 90.7590 -59.3645
-90.0705 29.3818 60.6120
22.9590 91.9177 -55.7995
93.0608 -17.7671 23.3767
-13.4803 -93.7777 22.1703
-94.7359 -1.0405 -3.3615
-71.1307 62.5812 -57.3643
83.1845 -45.3466 -56.5782
63.8054 70.0347 33.6361
9.9791 -94.2146 -16.3021
-21.5040 -92.2689 -56.6129
-68.5442 65.4039 60.0189
79.8876 50.9309 65.5351
94.2609 9.5327 11.6070
9.2120 -94.2927 37.2969
81.5436 -48.2351 0.1930
94.4503 -7.4251 -39.3184
77.1708 -54.9604 -56.9896
84.4551 42.9339 -35.0019
85.1209 41.5982 -26.9610
34.1258 -88.3822 -14.7623
-89.4003 -31.3618 -45.7620
93.3930 -15.9286 -41.0960
88.5344 -33.7288 17.2971
-18.8288 -92.8518 23.3012
43.4621 -84.1845 -3.2139
19.4058 -92.7329 -46.2494
24.3031 91.5715 -66.5307
76.5100 55.8767 -6.1360
64.8553 69.0635 61.6324
-86.0001 39.7487 -28.6583
-79.7215 -51.1905 17.2931
25.5271 -91.2379 12.6655
-94.0665 11.2906 -48.4134
49.3884 -80.8503 -25.6541
-67.9899 65.9800 18.4336
87.5943 36.1002 -0.7954
-54.6708 77.3763 -27.1150
-84.3958 43.0503 12.9848
-80.7497 -49.5527 -29.5742
93.0078 18.0423 -64.4836
-94.5474 6.0641 -37.1996
-13.8282 -93.7271 19.0053
81.1858 -48.8349 -64.6597
94.0430 -11.4847 -1.0260
93.4298 -15.7117 -10.4932
31.9328 -89.1980 -62.4506
-57.9762 74.9316 51.5098
-50.3522 80.2536 21.1694
88.9920 32.5023 -70.3762
-1.9200 -94.7222 -24.9074
68.2756 -65.6843 68.7737
-94.3141 -8.9909 -38.5245
-78.1331 -53.5836 26.6762
-85.5489 40.7108 10.5403
-80.1247 -50.5571 -30.8849
54.2164 77.6953 -18.5592
-23.0270 -91.9007 -0.7386
-80.8751 -49.3477 -57.4956
-69.8146 -64.0461 10.2612
94.6212 4.7764 14.1192
72.9013 60.5094 18.9828
92.1875 21.8507 37.7301
90.3781 -28.4213 -20.8670
-9.6582 94.2481 -65.6165
74.0911 -59.0466 -28.8015
-5.6669 -94.5720 -32.4569
83.9604 43.8934 -65.8722
62.9617 -70.7941 29.5484
-83.4761 -44.8076 -27.5579
-61.2395 -72.2891 37.2110
-92.9242 18.4681 -17.3155
-89.8989 29.9025 51.9513
-93.8788 -12.7572 -29.0405
66.3942 -67.5854 -31.8741
35.0265 88.0291 -25.8402
-9.2282 -94.2912 22.8458
90.3070 -28.6466 -69.6215
52.9493 -78.5643 -47.2313
-25.6210 -91.2115 -19.8114
94.6268 4.6647 -26.8294
-33.1956 -88.7357 21.8202
27.8356 -90.5603 -18.4517
94.7416 -0.1186 -31.2798
94.3881 -8.1774 -67.7796
34.4922 88.2399 54.2650
52.3331 78.9761 27.3752
-87.3173 -36.7651 28.4029
-35.7604 87.7335 -58.2708
75.0647 57.8037 -11.7644
94.3226 8.9009 61.6055
62.9924 -70.7668 48.1805
94.4264 -7.7225 -7.0397
-93.6214 -14.5261 -44.7873
48.5708 -81.3441 27.1238
52.0344 -79.1732 -44.8367
93.6819 14.1307 -20.1187
-33.9719 88.4415 -65.2993
94.0171 -11.6949 35.1620
-82.5333 46.5214 -38.8119
-43.0095 84.4166 -4.8811
-85.3222 41.1837 -9.1890
26.1027 -91.0749 -15.8781
81.8858 47.6519 -27.4097
-37.4447 87.0280 -64.7901
55.7252 -76.6204 -65.2715
76.3688 56.0694 25.4555
73.0564 -60.3219 -68.6738
72.0304 61.5435 41.3477
-39.2180 -86.2434 -69.0344
-93.9833 11.9633 -13.1809
82.4527 -46.6641 -38.7676
18.4139 -92.9350 -10.0084
-39.2696 86.2199 5.5291
-89.5432 30.9516 40.3736
12.8619 93.8645 -55.2097
-64.4811 69.4131 -43.3665
86.1867 39.3425 39.1594
80.5401 49.8927 -48.8147
75.3370 -57.4484 4.8019
-83.6626 -44.4583 36.6292
-33.5204 88.6136 -14.0065
9.6557 94.2483 -50.6374
-46.3826 82.6114 -57.9264
-90.4683 -28.1330 -66.5906
42.2596 -84.7945 -20.9820
-4.7216 -94.6239 -17.0884
42.8162 84.5148 60.4401
8.2588 -94.3810 25.9289
-93.9624 -12.1265 -0.3849
-90.5352 -27.9171 46.3632
-6.9801 -94.4842 33.2940
-94.4383 -7.5760 -68.1987
56.9151 75.7407 63.2338
84.3145 -43.2094 -15.6898
91.9244 22.9322 -28.3175
-55.2826 -76.9404 -0.2037
-69.2147 -64.6939 1.9484
-42.1664 -84.8409 16.7354
65.5376 -68.4164 67.1423
54.5754 77.4436 42.4585
-67.5080 -66.4729 17.6470
-19.9952 92.6076 36.7267
92.5814 -20.1162 35.1184
50.7298 -80.0154 -17.3822
3.5778 94.6741 44.6268
94.5827 5.4855 20.1023
17.2513 -93.1578 30.9809
94.6993 2.8343 57.5570
59.4711 73.7507 42.5053
93.3253 16.3209 -11.1585
34.0683 88.4044 -27.9244
42.6202 -84.6138 -38.9336
86.8975 -37.7467 21.8605
-14.5648 -93.6154 23.2446
-92.3609 -21.1054 16.5515
-2.4388 94.7103 -41.4226
92.1523 -21.9985 -57.3196
-89.5664 -30.8843 53.6169
-94.0442 11.4745 60.0816
61.3251 72.2164 -6.8680
74.2245 58.8787 45.0461
86.2115 -39.2882 -27.8058
13.2589 93.8093 55.1583
-94.2329 -9.8051 13.6705
66.3098 67.6682 -40.2265
88.9103 32.7253 -13.5305
-64.8430 69.0750 -3.2786
89.8959 -29.9117 41.0578
-92.4892 20.5361 39.7324
83.3040 -45.1268 55.1494
-35.8972 -87.6777 -26.5180
-84.4427 -42.9582 61.6289
89.1881 -31.9605 -31.2472
-16.0645 93.3698 42.6322
68.9460 64.9802 30.2191
-64.2499 69.6271 19.8243
-49.9749 80.4890 -25.3870
-89.2101 -31.8988 -50.2135
-66.7502 67.2339 -59.6119
7.1556 94.4710 -26.8846
76.7917 55.4889 20.1262
-70.2064 63.6164 -52.5083
-93.2855 16.5469 36.7830
18.1076 92.9951 35.9608
89.1965 -31.9369 -43.2840
-69.7501 64.1163 -19.3962
-82.8608 -45.9355 -4.6727
16.8086 -93.2387 4.4869
60.0229 73.3023 5.7518
88.8268 -32.9513 67.1925
38.2875 86.6606 23.9872
-40.3210 85.7333 34.0072
81.9070 -47.6154 -35.1896
8.5954 -94.3509 -8.5421
-45.0050 -83.3698 36.9581
2.8331 -94.6993 42.8259
79.0213 -52.2649 19.2674
-3.7638 94.6669 -59.7868
89.8404 -30.0781 54.2665
-66.5606 -67.4216 -65.5005
91.7849 23.4842 -70.1999
80.1344 -50.5416 54.4411
-5.5715 94.5777 68.8937
-4.7386 -94.6231 -4.9422
-93.7761 -13.4918 22.3941
-15.6385 93.4421 33.2338
-41.4487 85.1938 35.6213
28.6399 -90.3091 68.2061
12.8390 -93.8677 22.9620
33.4812 88.6284 9.5409
-42.8262 84.5098 40.9109
53.8165 -77.9729 65.1494
94.5977 5.2213 -58.3926
-94.4578 -7.3287 39.9437
-2.0913 94.7186 68.4637
-48.7541 -81.2343 43.8021
-12.9383 -93.8541 -28.2540
89.1520 32.0610 -42.6855
-85.7809 -40.2197 36.9363
-70.6470 63.1267 29.1424
94.0624 11.3250 52.8539
71.4002 -62.2736 53.3538
6.5622 94.5141 12.1983
83.8321 44.1379 54.4682
69.2918 -64.6114 -18.6472
73.3809 -59.9268 45.7094
-92.8151 -19.0091 -46.9932
-27.4411 -90.6806 -23.3131
-47.3686 82.0500 -27.8044
93.3081 16.4191 -5.8137
-24.4882 91.5222 67.7903
-84.7335 42.3819 0.4018
49.5612 -80.7445 -11.7053
-5.0804 94.6053 -69.9640
10.1934 94.1917 -10.6755
94.6243 4.7138 58.2105
69.9951 -63.8488 -20.6443
52.3324 78.9766 15.9496
-39.2289 86.2385 -63.7685
-38.0987 86.7437 6.0502
92.4817 -20.5699 -64.0119
-80.0771 50.6324 -13.1206
36.1553 -87.5715 34.3840
-34.0271 88.4202 33.7684
84.7851 42.2784 41.7666
-63.8085 70.0319 -15.5798
92.2911 21.4087 59.3574
-54.8077 77.2793 59.4890
-84.4081 -43.0263 -58.9116
-91.6081 24.1649 -50.7586
-2.9839 94.6947 39.5808
-26.4998 -90.9601 -30.9886
-62.4954 -71.2060 -6.6318
54.7359 77.3302 -39.1354
-93.5030 15.2700 -42.2753
18.9390 -92.8294 -69.6538
-19.6515 -92.6812 -32.6525
39.6858 -86.0292 16.9922
30.2830 -89.7715 -35.4611
4.2374 -94.6469 20.9497
-17.6265 -93.0875 36.2145
19.9756 92.6119 50.0845
94.7163 2.1937 31.6751
1.6249 -94.7277 68.7549
56.6547 -75.9357 17.8257
-52.7377 78.7065 -4.1365
-84.3868 43.0680 -59.2841
-94.6506 -4.1538 57.8795
-73.6906 -59.5456 -43.6196
45.2141 -83.2567 36.7156
-27.6327 -90.6224 -30.7038
34.5195 -88.2292 47.9312
72.0688 61.4985 -40.1490
60.6427 -72.7904 -60.7007
92.7253 19.4423 -53.4533
-82.9499 45.7745 12.8858
-91.5502 -24.3833 52.3524
7.5033 -94.4441 -25.0469
3.4836 94.6776 51.8834
-75.7862 56.8545 -69.9772
-59.9908 73.3287 15.7774
21.8191 92.1949 -43.7855
71.8374 -61.7686 64.2441
-70.0797 63.7560 -41.6346
-92.0192 22.5486 34.2529
-10.7342 -94.1316 -62.7356
-0.4381 -94.7406 20.1083
74.4708 58.5669 62.7713
-67.0238 66.9611 43.8912
-80.8704 -49.3554 -68.5638
-93.6057 14.6272 -16.9711
3.3213 94.6834 -61.6603
94.6832 -3.3278 21.7882
-94.6866 -3.2292 -6.9538
49.5207 80.7693 24.0376
81.1215 48.9416 -23.6380
-24.2697 -91.5804 7.1176
84.6410 42.5662 -29.3855
74.5853 58.4210 21.9222
-71.9763 61.6068 -49.2035
-71.5626 -62.0869 -58.2700
44.4020 83.6926 -28.8517
89.1346 -32.1094 8.0861
89.7655 30.3008 23.1477
16.4685 93.2994 -65.7970
14.6101 93.6084 -0.2482
94.1841 10.2638 -62.5726
94.1999 -10.1174 7.1355
45.4240 83.1423 -66.9321
72.6854 -60.7685 -37.9914
47.3860 82.0399 -15.6145
-44.6816 -83.5436 -47.4069
2.2971 -94.7138 -54.9922
19.0891 92.7986 67.5663
-66.5948 67.3878 -52.7362
72.5314 -60.9523 -1.1693
1.8516 94.7236 -28.2286
-72.1289 -61.4280 -1.7974
-12.4587 93.9189 1.6092
-90.0115 29.5619 -57.0820
-68.0727 -65.8945 17.2151
-8.8727 -94.3253 32.5553
-93.2076 16.9801 -18.9780
59.0345 -74.1007 37.0579
33.5977 -88.5843 46.3629
26.2912 -91.0206 -14.7358
-88.5974 -33.5632 -60.9183
78.5086 53.0320 8.7323
-84.3041 -43.2296 -42.3302
94.6189 4.8209 26.3828
1.3818 94.7316 -61.1787
-94.1150 10.8788 49.2465
-92.7988 19.0886 20.1408
-82.8368 45.9788 43.9809
-45.2562 83.2338 -41.4256
-92.5058 -20.4610 -39.7402
80.4359 50.0604 44.6776
30.4799 -89.7049 -57.2276
-41.5737 85.1329 20.6787
24.7846 -91.4424 -13.3498
-37.6027 86.9598 -61.1019
94.6417 4.3511 14.6326
30.1770 89.8072 54.1409
-47.6553 81.8838 -50.4938
-88.0289 -35.0270 -46.6741
-83.2173 45.2865 -63.3897
40.2439 85.7695 56.2194
45.7955 -82.9383 1.1765
54.7736 77.3035 40.1962
94.0460 -11.4604 6.4100
-79.5129 51.5138 28.3076
65.0168 -68.9115 -55.6062
-94.4949 -6.8339 38.0220
-74.9284 -57.9803 56.3962
39.8102 85.9717 36.7249
-17.5043 93.1106 57.8212
-80.1378 50.5363 -62.4896
9.1038 94.3033 26.0672
-90.2946 28.6856 31.8894
-85.8279 40.1191 26.0491
89.9664 29.6989 21.3128
-8.2878 94.3785 15.6783
-68.1935 -65.7695 13.4275
-49.1338 -81.0053 -65.5542
-0.8260 94.7381 -40.4853
86.4760 -38.7025 -49.0368
-8.2159 94.3848 -43.7855
53.1374 -78.4373 -21.9425
80.8075 49.4584 -17.2287
-37.0095 87.2140 13.9885
-15.8842 -93.4006 -29.4334
93.2167 -16.9301 16.0184
25.2780 91.3072 -57.7154
6.4037 94.5250 -33.4931
91.1022 -26.0072 -23.9891
94.7377 0.8618 -30.4041
83.7168 -44.3563 -9.1611
-94.7349 1.1322 37.3706
-86.3977 38.8769 -13.4200
-33.2965 -88.6980 67.1966
-94.5425 6.1403 -37.6691
-67.4871 -66.4941 -19.5361
49.4068 80.8390 35.3178
80.4717 50.0029 -19.6259
66.3815 67.5979 -39.7012
-68.9211 65.0067 -32.6458
-68.8104 65.1238 -43.7230
-90.4491 28.1947 -37.2096
2.7786 94.7009 -34.6719
-10.0015 94.2123 13.7051
91.8020 -23.4172 60.7815
-58.6767 -74.3843 -24.7918
1.1613 94.7345 -40.4029
-84.1106 43.6048 -56.3759
-93.9088 12.5347 -23.7941
-74.2996 58.7839 18.0947
-94.0159 11.7041 -42.0360
-32.3745 89.0386 68.2877
80.9823 49.1716 2.6755
7.9218 94.4099 35.5146
-50.6067 80.0933 44.9493
-66.0299 67.9414 46.9855
-94.6904 -3.1171 -9.6025
-56.3151 76.1879 35.6609
-52.5490 78.8327 67.8376
51.4976 79.5234 -67.6256
-61.5573 -72.0186 -22.4359
86.0141 -39.7184 17.1753
54.4087 -77.5608 37.4738
93.5619 -14.9047 -24.6361
70.6771 63.0930 64.9103
-45.9324 -82.8625 -30.5956
-21.8836 -92.1797 -63.2884
-94.1377 10.6802 -23.9884
-76.2441 -56.2390 -67.9540
60.0574 73.2741 -22.7535
2.9710 94.6951 58.1949
91.3021 -25.2965 17.2098
-84.1854 -43.4604 -64.9792
-47.8764 -81.7547 -66.3525
-48.3200 -81.4933 -10.0292
43.0507 84.3956 8.0110
94.4470 -7.4669 -36.5879
-62.5833 71.1289 43.2681
93.1622 17.2277 -39.4060
-14.6184 -93.6071 31.4482
-68.0855 65.8813 29.3964
7.8570 -94.4153 41.8067
-93.6196 -14.5382 -14.5443
4.8994 94.6149 -22.7303
-41.1640 -85.3317 51.7812
-93.2291 -16.8619 -0.8943
94.1932 -10.1800 -40.7794
-61.6756 71.9174 -70.0963
85.5599 40.6876 15.9561
84.4818 42.8813 64.1615
-58.1710 74.7805 -6.8750
-90.3882 28.3893 -31.5645
91.7265 23.7114 56.5084
30.7941 89.5975 27.7595
56.6005 -75.9761 4.6740
-8.6418 -94.3467 -5.2003
-93.8360 13.0687 4.7660
-57.2831 75.4628 53.9244
-76.5313 55.8475 35.0882
31.2692 89.4328 -36.3899
-93.6330 14.4515 8.6727
-76.4757 55.9237 46.6908
-16.6685 93.2638 -42.9994
-59.1762 -73.9876 -53.2610
-89.4491 -31.2224 -33.8624
-94.7162 2.1974 -43.6747
-28.2450 -90.4334 45.6793
-30.4545 -89.7135 -14.2209
-33.9657 88.4438 -29.0015
-74.1859 -58.9273 25.1876
94.2835 -9.3064 -2.2396
-41.0852 85.3697 -20.8178
37.6821 -86.9255 69.1373
-91.5018 24.5642 -25.1427
86.3160 -39.0581 -5.7109
-22.7996 91.9574 36.2395
-17.7777 93.0588 -44.6203
-48.4531 -81.4143 14.8094
92.6695 19.7065 -14.4600
-42.9600 84.4418 -61.7171
72.3913 -61.1186 16.5870
26.7018 90.9010 10.9237
90.7754 -27.1257 13.1647
-64.9154 69.0070 17.5832
91.4886 -24.6135 59.7985
-94.7380 -0.8297 7.8968
-94.7333 -1.2548 1.8349
-41.8831 84.9811 38.8022
86.8901 -37.7637 -35.3068
-53.4550 78.2211 8.8501
93.7814 13.4547 41.0342
47.5147 -81.9655 -25.9391
-81.7663 -47.8566 -45.2786
25.3754 91.2802 -3.7595
-94.7356 -1.0712 -3.4675
-82.0154 -47.4285 9.9859
-77.2651 54.8278 41.1144
57.0256 75.6575 -9.9682
-72.4725 61.0223 51.0267
58.8218 74.2696 2.9499
-80.3721 50.1628 37.9530
-71.1068 -62.6083 -21.4743
-44.6702 83.5497 -38.3107
-43.6590 84.0826 0.8813
9.2476 94.2893 -32.4493
-22.6972 -91.9827 -32.1710
-49.6759 -80.6739 35.8018
94.3635 -8.4563 13.3903
-78.6120 52.8785 -8.1040
2.9778 94.6949 -19.4956
36.7424 -87.3268 -5.9430
-83.6740 -44.4369 -54.1814
-93.0364 17.8942 62.8850
89.0949 32.2192 33.9948
-13.1526 93.8243 10.2426
44.0465 83.8802 24.3937
-20.0819 92.5889 -52.3084
94.2294 -9.8390 -27.3841
58.3405 74.6483 14.7476
47.5940 -81.9194 -30.4958
38.1270 -86.7313 -46.5829
-93.3193 -16.3551 58.5356
-12.8247 93.8696 37.4651
-52.8013 -78.6639 -2.8491
-65.5208 -68.4325 69.2146
-28.0816 -90.4843 -69.8301
-66.0657 67.9066 35.0897
15.4809 -93.4683 45.8430
90.0143 -29.5533 28.3099
7.3282 -94.4578 -41.6811
-92.3614 21.1033 -8.9881
88.3516 -34.2050 -0.4354
-65.3022 -68.6412 -37.2218
-94.2674 9.4682 -23.9308
62.3030 -71.3745 29.9649
28.4042 90.3835 -69.0221
-89.1732 -32.0020 20.3776
-85.2943 41.2416 43.7092
53.9045 -77.9121 -2.1424
-9.9550 94.2172 -30.9606
-39.2400 -86.2334 -60.8725
14.1497 93.6791 14.5130
-12.3560 93.9325 10.4928
-34.3612 -88.2909 48.4522
-3.5209 -94.6762 -57.3028
61.8425 71.7738 -6.0923
6.2886 94.5327 4.5128
13.4845 93.7771 -36.9914
-0.5969 94.7398 3.7625
-90.6942 -27.3962 30.3201
2.3038 -94.7136 38.3972
-45.2941 -83.2131 -7.2020
-94.2688 -9.4536 -51.7410
61.9460 71.6846 -17.8971
75.6229 57.0715 0.4859
71.2647 62.4286 14.9438
57.1009 75.6007 38.3916
-65.0921 -68.8404 -8.4376
77.0041 -55.1937 -56.9522
86.5493 -38.5384 -7.5616
29.3077 90.0946 9.2231
-19.8448 92.6400 14.5555
-32.7226 88.9112 -48.3721
7.3559 -94.4557 11.9603
-6.5104 -94.5177 -0.9655
79.8381 -51.0085 -42.2460
-86.8732 37.8025 52.5181
-58.9834 74.1414 2.0603
-93.5553 14.9463 -33.8409
71.2776 62.4138 8.6159
71.9663 61.6185 2.7344
70.5130 -63.2763 12.4949
-89.0398 -32.3712 30.8927
78.9266 -52.4078 47.7657
76.7301 -55.5740 42.8932
-88.7906 33.0486 -18.6001
92.2250 -21.6916 -10.5674
-0.3803 94.7409 40.2436
-7.1703 94.4699 48.2018
55.0896 -77.0786 24.4903
-76.6075 55.7430 -20.7272
90.1349 -29.1836 58.2778
94.5211 6.4602 68.8965
-90.9938 26.3840 -69.3140
-67.6634 -66.3147 -7.7097
71.5692 62.0792 -65.3355
-17.9895 93.0181 -63.0167
-17.8077 -93.0530 -49.4258
34.7149 88.1525 -57.8013
94.7408 0.4050 -67.2085
94.2520 9.6202 -1.2402
-82.8570 45.9423 -17.5555
-94.5442 6.1140 -49.0612
49.8767 -80.5500 -52.4957
2.3549 -94.7124 -31.6933
88.8433 -32.9066 53.5974
-52.8279 78.6460 69.5203
-75.1844 57.6479 32.6156
-35.2918 -87.9231 27.5031
-78.6553 -52.8141 -35.0642
94.6906 -3.1111 -52.2466
33.6267 88.5733 -16.5572
59.3038 -73.8853 -45.4064
-94.2904 -9.2355 -42.3555
-81.4152 -48.4515 65.0485
-90.0898 29.3226 -48.4882
21.9222 92.1705 -38.5692
68.4934 65.4571 3.0953
6.0426 -94.5488 -34.2592
-56.7189 -75.8878 -54.0851
-55.6938 -76.6432 21.6989
-71.2284 62.4699 -49.7424
81.9049 47.6190 -42.6259
48.1973 81.5659 -34.5705
-85.7159 40.3580 -1.2850
10.3005 94.1801 61.8615
-78.3073 53.3286 -22.9940
-37.9605 86.8043 21.1082
8.9403 -94.3189 -30.5852
79.3026 -51.8370 -66.8605
-94.3455 -8.6547 -34.2770
89.8771 29.9681 11.7428
81.1001 48.9770 19.2107
94.6969 2.9118 18.5753
87.7965 35.6055 -56.5220
-48.9087 -81.1414 62.5760
45.9289 82.8645 64.6141
79.1158 -52.1217 -14.7627
-12.1423 -93.9603 -27.1903
36.6222 87.3773 68.9854
80.4937 49.9674 -56.9195
12.5268 93.9099 -48.2748
94.7128 -2.3394 15.0658
-32.4560 89.0089 -6.2060
-93.4136 -15.8077 -24.2450
-49.0249 81.0712 -52.6529
-4.1964 94.6487 47.6871
40.7684 85.5215 -62.9455
-79.4892 -51.5504 -58.3661
7.6264 94.4342 -31.1626
-64.5089 -69.3872 -24.4485
7.5432 94.4409 -66.3685
-27.6858 -90.6062 -68.6156
-57.7197 -75.1294 64.1226
-52.4119 78.9238 16.5964
-32.3101 -89.0620 -35.8993
-43.0916 84.3747 20.7147
91.3747 25.0330 66.4451
-94.5008 -6.7512 -10.2437
-68.2043 -65.7583 52.7236
-88.1991 -34.5963 30.4881
67.9394 -66.0319 -30.7225
-13.1046 93.8310 27.0089
16.4352 -93.3052 20.5649
13.5726 93.7644 -47.9744
-85.5694 -40.6677 -10.1548
45.7699 -82.9524 -52.7983
-48.2330 81.5448 9.8774
73.4769 -59.8091 -40.9324
18.3533 -92.9470 67.7845
-48.5506 81.3562 59.0977
-11.9023 93.9910 17.9201
93.1463 17.3131 61.1060
69.6326 64.2439 51.4937
20.5383 92.4887 -33.8020
12.8213 35.2654 70.4708
-0.0708 0.0601 70.4708
5.5213 11.0743 70.4708
10.5114 -10.8202 70.4708
17.0653 -27.9880 70.4708
50.8228 19.7570 70.4708
-57.9788 -26.7123 70.4708
-0.6520 -3.2641 70.4708
-74.9978 18.1917 70.4708
74.6675 -49.0746 70.4708
58.9911 -7.7703 70.4708
6.3044 -21.5103 70.4708
7.2521 -6.4798 70.4708
-8.7013 25.3060 70.4708
23.0003 -54.1506 70.4708
3.1060 -6.0431 70.4708
-1.1531 6.5405 70.4708
35.2427 0.1069 70.4708
28.4560 34.5461 70.4708
34.0573 64.3274 70.4708
1.6169 26.1025 70.4708
-16.4103 9.1003 70.4708
-2.0925 1.7662 70.4708
-44.8211 -32.8125 70.4708
51.9625 -74.0682 70.4708
0.7194 -0.7659 70.4708
53.0871 77.1446 70.4708
-44.2678 68.8165 70.4708
-17.8234 -9.0778 70.4708
62.4930 -48.3653 70.4708
-55.3903 74.7998 70.4708
-32.3424 36.7647 70.4708
-11.8419 22.8998 70.4708
4.1658 3.1441 70.4708
11.5323 -2.7925 70.4708
-19.1347 -51.4148 70.4708
0.9961 -62.4253 70.4708
-20.5195 -17.4534 70.4708
14.5361 -12.7800 70.4708
54.9293 49.2974 70.4708
78.4823 51.5263 70.4708
61.2997 60.8572 70.4708
4.8684 -10.2216 70.4708
-17.1508 13.8326 70.4708
74.1889 -34.8416 70.4708
71.9228 57.6427 70.4708
27.3059 -23.3339 70.4708
-0.5604 -37.5999 70.4708
11.2308 -12.3225 70.4708
2.9955 -12.3844 70.4708
2.8437 3.2225 70.4708
70.7582 45.9560 70.4708
-53.1711 16.7764 70.4708
2.4380 -15.9462 70.4708
16.4869 -17.3667 70.4708
5.0001 -0.9795 70.4708
18.1775 57.9399 70.4708
-24.6954 -15.5903 70.4708
-13.4185 -54.4884 70.4708
9.0634 24.3144 70.4708
-1.1749 4.4986 70.4708
-39.4456 -37.6984 70.4708
-38.5113 44.2242 70.4708
45.4663 -56.4561 70.4708
3.3119 5.9620 70.4708
22.4353 50.4938 70.4708
-60.2471 -43.5028 70.4708
-63.6216 -58.1557 70.4708
4.6681 13.0728 70.4708
-3.1838 -1.5096 70.4708
-22.1806 39.1910 70.4708
-11.1594 18.3459 70.4708
-12.2147 76.8935 70.4708
-33.5462 -69.2016 70.4708
-0.0184 30.0672 70.4708
-38.7152 -28.2692 70.4708
-75.4229 56.5964 70.4708
-14.8577 90.7032 70.4708
-72.1408 -5.2678 70.4708
-0.7271 56.0415 70.4708
-54.6311 -0.1086 70.4708
-20.4422 -32.3672 70.4708
-46.6232 38.5309 70.4708
0.0573 -0.7791 70.4708
-15.0414 -41.2665 70.4708
-63.9546 -63.4961 70.4708
-19.5963 23.9194 70.4708
-6.7472 -34.4234 70.4708
20.7186 25.7191 70.4708
-88.0633 -7.8548 70.4708
-54.6317 -39.2636 70.4708
79.6436 -26.1539 70.4708
-8.4917 34.5570 70.4708
41.0215 -69.8679 70.4708
0.7729 -32.7905 70.4708
-33.2256 -66.8394 70.4708
12.2103 -31.9190 70.4708
37.7180 17.2595 70.4708
-3.3983 -6.5581 70.4708
-4.3713 30.0336 70.4708
-79.0771 2.0646 70.4708
-5.4438 49.1201 70.4708
54.6718 -73.2443 70.4708
-8.4354 -1.5507 70.4708
-63.8936 32.3972 70.4708
-48.2380 7.4222 70.4708
-0.3604 5.5633 70.4708
-90.0861 -3.1222 70.4708
-15.7587 -29.4364 70.4708
-55.8237 -27.0563 70.4708
-34.8703 -43.6887 70.4708
33.0617 -3.7299 70.4708
-80.3240 -46.7044 70.4708
32.5610 86.5885 70.4708
-17.2179 -15.2388 70.4708
-22.4542 -48.6247 70.4708
61.4149 -46.3192 70.4708
-7.5586 31.2609 70.4708
-39.9477 35.7713 70.4708
59.0468 7.8550 70.4708
19.7715 8.2402 70.4708
-64.8729 17.8625 70.4708
69.1277 34.5360 70.4708
-7.1783 12.8689 70.4708
-69.1218 64.3152 70.4708
66.1570 49.0218 70.4708
-22.1018 35.0718 70.4708
-42.4117 -2.7929 70.4708
2.6713 42.7884 70.4708
0.1625 4.6943 70.4708
-25.4994 15.3788 70.4708
42.2258 32.4031 70.4708
-32.1817 84.5173 70.4708
-16.7402 7.2899 70.4708
-67.6930 25.0928 70.4708
-25.2626 15.3066 70.4708
27.7029 -8.0513 70.4708
43.1351 30.9083 70.4708
-82.7346 -20.6627 70.4708
55.9115 -2.8074 70.4708
36.7430 20.3622 70.4708
25.1413 -3.8171 70.4708
6.1847 -22.0246 70.4708
6.3841 35.3515 70.4708
49.6306 63.4938 70.4708
-23.1329 13.3382 70.4708
69.3579 -64.2578 70.4708
1.4683 -74.7116 70.4708
31.9093 -0.6335 70.4708
-68.9025 26.1387 70.4708
22.7932 -10.9986 70.4708
-16.2985 -48.3337 70.4708
-11.4633 -85.9897 70.4708
47.7254 -20.1591 70.4708
-30.8590 87.8765 -70.4708
-7.1224 -31.1325 -70.4708
-39.3637 21.3487 -70.4708
-56.5419 47.1866 -70.4708
34.2824 -84.9627 -70.4708
-40.3494 25.2902 -70.4708
82.5198 15.2832 -70.4708
-4.6489 -18.0797 -70.4708
31.7084 52.4728 -70.4708
68.6174 -16.9077 -70.4708
72.3956 -3.4700 -70.4708
-79.3670 -24.9059 -70.4708
-70.3989 -31.6779 -70.4708
85.3831 29.7553 -70.4708
-86.3614 11.8337 -70.4708
-43.8563 13.6005 -70.4708
31.1979 -18.8454 -70.4708
0.6729 8.6776 -70.4708
33.7927 22.4462 -70.4708
22.8568 -40.8851 -70.4708
-17.8152 35.3093 -70.4708
80.0074 -22.2325 -70.4708
12.7459 2.0064 -70.4708
-1.7093 -1.3785 -70.4708
38.3989 -28.9675 -70.4708
-50.2453 -26.2624 -70.4708
-3.1131 15.9878 -70.4708
-69.3233 -15.3807 -70.4708
-63.0764 16.4461 -70.4708
3.2519 49.3853 -70.4708
-23.3146 69.3823 -70.4708
-65.3652 30.0849 -70.4708
-29.9297 -2.8035 -70.4708
13.9550 10.1784 -70.4708
-62.7722 -34.0308 -70.4708
-1.3417 -7.4303 -70.4708
-32.8002 -49.8540 -70.4708
-5.2481 -32.0973 -70.4708
-37.5319 -45.1656 -70.4708
-10.6640 -77.4296 -70.4708
-28.9424 44.6702 -70.4708
6.5110 12.5904 -70.4708
-18.0300 7.0268 -70.4708
-19.7464 37.4290 -70.4708
14.2474 -57.6518 -70.4708
-16.2697 -41.7685 -70.4708
57.5490 15.9150 -70.4708
-0.8838 -59.9720 -70.4708
92.2114 -9.3029 -70.4708
22.1092 42.4014 -70.4708
-26.5491 -17.7745 -70.4708
-5.2674 40.4555 -70.4708
-40.3372 -39.4782 -70.4708
74.8502 -1.3751 -70.4708
82.6072 35.8661 -70.4708
43.2984 -26.3636 -70.4708
0.0178 25.3980 -70.4708
-40.4592 -60.9325 -70.4708
-29.5901 -22.3964 -70.4708
-28.4333 -49.8359 -70.4708
20.9536 85.6430 -70.4708
24.7847 -46.7081 -70.4708
66.7936 66.2134 -70.4708
2.4865 -3.9128 -70.4708
-14.9691 17.5931 -70.4708
75.6931 -10.7745 -70.4708
-29.3498 58.7335 -70.4708
-1.2838 -2.1235 -70.4708
-10.3308 29.4476 -70.4708
-31.6191 14.5640 -70.4708
41.6781 84.1806 -70.4708
30.6796 50.0723 -70.4708
-62.2540 40.6818 -70.4708
4.9787 -65.9808 -70.4708
-41.2069 75.1950 -70.4708
-14.9819 -43.9831 -70.4708
-49.0323 62.3570 -70.4708
-25.1086 -45.3086 -70.4708
-3.6403 -13.6363 -70.4708
0.7875 -59.2508 -70.4708
26.0246 -47.8409 -70.4708
9.5021 28.5350 -70.4708
-38.1843 -10.0083 -70.4708
1.7137 4.7477 -70.4708
-68.7669 -3.2007 -70.4708
-11.5875 14.3724 -70.4708
10.1902 -23.7024 -70.4708
-25.9597 -15.7953 -70.4708
14.4220 -5.5170 -70.4708
-1.1438 46.1799 -70.4708
-33.2341 -13.5080 -70.4708
-23.8648 6.2311 -70.4708
40.4950 -69.4998 -70.4708
35.6590 -44.2626 -70.4708
18.8221 61.9684 -70.4708
10.1982 23.0480 -70.4708
18.3851 49.4368 -70.4708
53.1132 -61.2822 -70.4708
-84.4404 10.3805 -70.4708
42.3078 -75.7148 -70.4708
42.9481 17.2159 -70.4708
6.7591 -26.9294 -70.4708
4.1464 -18.0631 -70.4708
-4.7244 73.2026 -70.4708
43.1365 17.2364 -70.4708
51.9408 -63.9445 -70.4708
-36.9056 -33.4275 -70.4708
26.2990 9.6421 -70.4708
-1.4542 -61.5104 -70.4708
-60.3658 -17.2548 -70.4708
-67.5526 6.5696 -70.4708
17.5251 36.4600 -70.4708
57.5945 23.9813 -70.4708
9.2857 30.6048 -70.4708
-28.2435 17.4578 -70.4708
56.5174 -3.8565 -70.4708
79.6459 -12.9515 -70.4708
38.0435 7.2724 -70.4708
-57.1096 -58.3830 -70.4708
92.3073 8.5304 -70.4708
14.3616 71.6723 -70.4708
4.6582 5.2096 -70.4708
10.5865 14.1261 -70.4708
-53.4657 -56.2988 -70.4708
-6.0025 15.6172 -70.4708
8.6682 0.8270 -70.4708
-33.1502 3.7332 -70.4708
11.5486 -48.7725 -70.4708
15.3054 -74.9433 -70.4708
80.0064 30.8765 -70.4708
-74.6146 -58.0985 -70.4708
27.5320 31.1212 -70.4708
-29.3943 -13.5563 -70.4708
36.3898 -35.0593 -70.4708
0.5646 -9.3749 -70.4708
-1.9770 -17.4188 -70.4708
1.5096 -5.9322 -70.4708
23.6661 55.3577 -70.4708
27.6194 -78.8888 -70.4708
63.4609 -28.8128 -70.4708
-70.8016 -59.7054 -70.4708
24.4154 -38.1907 -70.4708
-23.8872 46.0402 -70.4708
-44.5913 24.9928 -70.4708
50.2749 -40.1758 -70.4708
16.9049 -22.1232 -70.4708
32.3017 -15.2373 -70.4708
34.0636 -9.9939 -70.4708
-38.7021 21.6358 -70.4708
38.2302 -50.3021 -70.4708
-38.2552 10.1071 -70.4708
2.3774 -22.0789 -70.4708
1.5552 0.5500 -70.4708
-15.4174 -44.0622 -70.4708
