ply
format ascii 1.0
element vertex 1024
property float x
property float y
property float z
end_header
-90.6632 27.8744 -0.2776
86.2160 39.5425 31.5570
-12.7496 -93.9907 14.7991
84.0691 43.9225 13.9195
41.1440 85.4633 -22.0859
62.9062 70.9902 13.3120
-49.7710 -80.7443 -20.8722
93.9106 13.3268 0.2135
79.3954 51.8958 -22.1056
-73.8064 59.5770 -0.8863
70.0635 63.9368 3.6431
20.4206 92.6272 -3.7789
10.9534 94.2169 26.7154
10.5695 94.2608 7.7550
-78.1751 53.7164 -1.5551
-44.4182 -83.8083 10.4670
-33.1287 88.8780 29.0843
-75.5278 57.3791 30.3982
94.5678 -7.3310 0.7653
-92.4948 21.0122 -29.6086
73.5762 -59.8610 -18.9409
92.5575 -20.7343 16.9671
-85.8606 40.3083 -28.8038
91.4440 25.1952 12.4794
5.5905 -94.6866 25.5852
41.4356 -85.3223 -16.5508
94.4758 8.4336 -3.2572
74.0905 59.2234 -8.2658
-64.0744 -69.9377 -5.2610
-43.6410 -84.2156 11.6334
-81.2195 -48.9918 29.0128
-88.3889 34.4124 -6.1816
48.5767 -81.4685 25.5107
86.4781 -38.9659 2.0300
-73.5124 -59.9394 -26.8863
73.2077 60.3112 4.0803
68.6372 65.4655 -8.7596
-58.7628 -74.4563 21.0699
84.2302 -43.6128 17.0509
-84.2686 -43.5386 3.3395
71.3365 -62.5132 -24.9359
-84.1467 43.7737 -6.7188
93.4623 -16.1741 -28.3583
51.0766 79.9249 -26.8741
-72.2468 61.4590 -4.0712
-16.4696 93.4107 23.8722
94.4922 -8.2483 -3.8881
87.4948 -36.6260 31.5834
79.2466 -52.1228 -6.3481
29.5641 90.1264 26.9785
-77.0748 -55.2836 -30.2757
-77.5218 -54.6551 8.3846
-81.4851 48.5488 23.8752
-94.2672 -10.5116 14.6592
12.1245 -94.0734 -8.3127
-13.6878 93.8587 17.5124
91.1213 -26.3386 -9.1173
-94.7297 -4.8055 0.5120
83.5775 -44.8509 26.1086
-94.6357 -6.3950 -2.9443
-93.5360 -15.7424 -12.8143
-87.1791 -37.3713 -29.3010
-16.4422 -93.4155 12.3766
-94.7801 -3.6787 -13.6353
94.8510 0.3207 -24.3532
-87.3168 -37.0484 -25.7881
87.8376 35.7962 -8.8657
-91.3144 25.6611 -6.4981
25.4750 -91.3665 -2.9049
-13.9965 -93.8131 15.9353
75.4399 57.4946 -27.3448
60.1089 73.3739 -31.9484
-94.7534 4.3133 -21.2587
92.3762 21.5277 26.2303
-86.9787 -37.8354 19.6477
68.2782 65.8399 0.0901
-90.8656 -27.2076 -6.1579
68.8879 -65.2017 -19.2521
-0.0314 -94.8515 -13.6708
-78.2506 -53.6064 -8.4419
-61.5083 72.2048 -1.3123
-82.3218 -47.1161 28.4647
84.1812 43.7073 18.6594
-5.5076 -94.6915 27.9793
-86.2044 39.5678 -14.9859
-81.6237 48.3153 -0.8928
-91.2491 25.8923 -20.5591
-85.5044 -41.0586 30.2807
-87.3457 -36.9803 21.8446
11.8860 94.1038 -26.6504
93.8673 -13.6287 -9.4718
-42.5048 84.7947 -25.5379
-81.5570 48.4279 1.6681
5.8948 -94.6681 -1.0225
81.1419 49.1203 1.7847
91.8774 -23.5658 0.1594
70.0105 63.9948 24.3534
83.0927 45.7428 -20.9999
5.3522 94.7004 -10.0106
-66.7092 67.4292 6.7175
-39.9782 86.0148 -8.1701
-24.9074 -91.5228 29.6679
-32.4694 89.1210 19.3481
80.3669 50.3783 -0.3639
22.9889 92.0235 11.7374
-93.0419 18.4393 -6.7439
-9.3760 -94.3870 8.0429
-93.6408 -15.1062 -10.1228
-87.6512 36.2500 15.4099
-44.2998 -83.8709 -30.6763
-89.7946 -30.5572 27.6021
32.3635 -89.1595 31.3060
-71.6602 -62.1420 -28.6488
88.8337 -33.2473 31.0006
76.9120 55.5099 -29.3611
-87.5663 36.4546 -31.7884
80.9076 -49.5053 11.1442
33.7206 88.6551 -18.6075
63.6422 -70.3312 22.8264
35.2508 -88.0579 -2.2109
-7.4942 94.5550 1.2540
-53.3369 78.4346 -4.6489
30.1841 89.9207 -21.2301
-90.9684 -26.8617 30.5554
54.9423 -77.3185 25.2575
49.3356 81.0111 -5.2717
88.1868 -34.9269 6.1570
-94.2311 -10.8312 -20.1350
-25.4914 -91.3619 -24.1401
-75.5079 -57.4053 24.3260
2.1467 94.8272 -14.3700
-60.9577 72.6703 2.2964
-87.5169 36.5733 -9.7928
-92.5124 -20.9346 29.6611
68.6500 65.4521 -9.5150
30.6924 -89.7484 -5.0857
-69.7485 64.2802 -1.9489
24.9376 -91.5146 -2.7105
53.1673 78.5496 -13.7897
1.9483 94.8315 -4.1302
-60.7164 72.8720 9.5480
75.4396 -57.4950 -8.9136
-87.7859 35.9227 -31.9937
-4.9204 94.7238 -11.0097
-75.4835 57.4373 -26.3677
46.1137 82.8875 -6.1906
-85.6213 -40.8141 0.5620
12.0118 -94.0878 -26.5955
94.6520 6.1480 -3.7575
-81.4174 -48.6622 -27.1770
92.6135 -20.4830 -13.1183
-80.4616 -50.2268 -3.4659
-94.8391 1.5312 6.3464
47.0008 -82.3877 -9.2940
-26.1057 -91.1883 -12.0216
-91.7815 23.9366 -17.2737
-91.0782 -26.4872 -11.8122
-51.6665 79.5448 -28.4429
-76.0017 56.7499 15.0492
-91.7941 23.8884 4.3954
-79.7612 51.3318 -18.0894
-94.6089 6.7792 2.8817
54.6354 77.5356 25.3969
-80.7319 -49.7912 29.6264
-81.6961 -48.1929 -23.4459
-87.1493 -37.4408 -19.9018
-88.6931 -33.6205 28.2458
76.5194 56.0499 -12.2544
92.1742 -22.3768 -8.7663
66.9376 -67.2024 27.9543
-42.8741 -84.6086 3.4640
-30.6067 89.7777 18.6580
-43.2699 -84.4069 -24.0231
-94.8493 -0.6404 10.1726
92.3434 21.6680 28.2218
-94.3052 -10.1656 -27.3192
34.8309 -88.2248 -16.9007
61.2060 72.4612 27.8120
-65.5949 68.5136 -9.5125
-72.0103 -61.7359 -29.2392
-86.8954 -38.0263 2.5745
73.4664 59.9958 16.8335
49.0397 -81.1906 -8.4897
87.0045 37.7759 -2.1945
-87.6398 -36.2777 -26.1048
-19.9637 92.7268 -15.2238
76.2205 56.4557 -25.8280
13.0607 93.9480 27.7882
42.0099 85.0410 -29.5219
75.4572 -57.4719 -3.7866
84.1317 -43.8025 -2.6246
-56.4736 76.2072 -9.1297
90.9395 -26.9593 -21.3865
-83.1931 45.5601 28.6431
-93.5510 15.6532 -23.0789
-94.8485 0.7563 13.5921
-5.8834 -94.6689 32.0611
-84.1178 43.8292 -24.0953
94.7455 4.4823 16.4773
78.0157 -53.9477 -23.8051
-92.2664 21.9937 17.6408
-86.4830 38.9551 2.8233
-50.7496 -80.1329 -13.1752
-93.1230 -18.0252 -0.6277
-61.7289 -72.0163 -20.1729
-64.2361 -69.7892 6.2465
-5.2181 -94.7078 9.1712
57.8983 75.1305 -23.0145
10.0062 -94.3222 9.1476
-46.9688 82.4059 2.2791
71.5728 -62.2426 -22.7851
-78.1741 -53.7180 23.3099
39.4559 86.2556 24.8743
-92.8762 -19.2566 -25.4560
90.8188 27.3634 -27.8177
69.4878 -64.5620 -25.8968
-93.3355 -16.8903 28.6057
9.2561 94.3988 2.2868
10.2031 -94.3011 -15.0158
-93.6426 15.0952 31.7998
56.7386 -76.0101 -25.0013
25.0818 -91.4752 5.7590
-66.5495 67.5867 29.2213
81.6882 -48.2063 3.3997
-27.9366 -90.6441 -13.9626
94.6038 -6.8509 -16.8247
3.4454 94.7889 4.7097
-76.4539 56.1392 -0.0166
69.3403 64.7204 8.5741
82.4690 46.8580 -12.4244
60.4170 -73.1204 -9.2904
60.3985 73.1357 9.5412
77.0691 55.2916 16.8456
-18.4246 -93.0448 27.3888
91.4569 25.1483 0.3902
22.6264 -92.1133 23.2664
-88.7654 -33.4290 2.2026
3.0467 94.8025 -4.9208
91.9460 23.2966 -14.1865
-20.9731 92.5037 -10.0444
17.5286 -93.2178 0.5812
44.6028 -83.7102 24.5099
54.9977 77.2791 25.1630
81.7186 -48.1548 28.3173
-74.0824 -59.2335 26.4843
-91.4941 -25.0127 -6.5935
87.7279 -36.0642 -16.3885
-94.1905 -11.1785 -14.8804
-93.4730 -16.1122 11.4588
-48.4605 81.5376 18.9590
-64.8020 69.2641 -28.4095
-12.2902 -94.0519 -21.0232
94.8040 -3.0013 -17.2470
65.0191 69.0603 -14.0970
8.8373 94.4389 28.9438
-43.8693 -84.0969 15.9367
-53.8609 -78.0756 24.6609
-25.0717 -91.4779 -1.6682
-74.6286 -58.5438 -30.6305
-37.9684 86.9207 -32.0311
-94.4104 9.1368 -25.4385
-71.0347 -62.8560 -21.6991
-4.4949 94.7449 -28.0752
-92.7936 19.6510 15.8285
44.6175 83.7023 -29.1512
51.6591 -79.5496 -20.1276
-85.2151 41.6557 -3.6510
35.8039 -87.8344 26.9172
-93.5456 15.6851 -1.3687
72.2312 -61.4774 -29.0366
-69.5687 -64.4748 7.2588
-61.6268 -72.1037 -24.2670
-89.0894 32.5559 1.5416
-4.0805 -94.7637 11.5602
70.4180 63.5461 18.4547
3.2657 94.7953 -24.4367
9.6800 94.3563 24.5050
-72.5785 -61.0669 0.7933
42.7629 84.6649 3.7620
-59.4190 -73.9337 10.9723
-73.8675 -59.5012 -13.4903
55.4079 76.9855 31.2773
62.1106 71.6874 -22.8527
-52.2939 -79.1338 -10.6353
90.1708 29.4283 -19.2685
-93.7762 14.2419 -14.1588
-8.2920 -94.4883 -15.6122
-52.8829 78.7414 -16.0206
-84.2283 43.6165 -13.8654
-94.8493 0.6485 10.8443
23.5843 91.8727 25.8367
-48.6394 81.4311 29.4651
-80.7023 -49.8391 19.3804
-4.2796 94.7549 -11.4441
-88.3258 34.5740 2.1026
-51.0645 79.9326 -2.6212
22.6239 92.1139 -14.4907
22.2672 -92.2007 -15.3548
55.9260 76.6099 -14.9012
-71.1156 -62.7644 5.6416
-86.4400 39.0504 20.6697
-16.3135 -93.4381 -24.1499
93.6251 -15.2034 -26.6561
79.5213 -51.7027 -21.9331
-58.3904 74.7487 -13.1769
-75.3579 57.6020 2.9069
-21.7626 92.3211 -13.3687
-21.1191 92.4705 -10.0237
1.5904 94.8382 4.7915
-94.8081 -2.8691 -24.6332
13.5703 -93.8757 -16.3470
85.4474 -41.1769 -8.6338
26.0126 91.2149 31.3783
-54.7804 77.4333 -26.8619
58.9229 74.3297 -14.2309
92.1116 22.6329 24.0076
59.4651 -73.8966 0.7289
77.8403 -54.2005 0.6604
70.0033 -64.0027 -20.0500
-94.6808 -5.6885 -3.0923
-49.4161 80.9621 6.5884
-77.0116 55.3716 6.2189
-77.4450 -54.7639 -21.8236
-0.2107 -94.8513 7.4739
-31.9700 89.3013 17.0294
-90.9413 26.9535 -29.0055
-89.1909 32.2769 19.2005
-81.1599 49.0904 2.4328
-11.9235 94.0991 25.2460
-67.9106 66.2190 11.6206
69.8207 64.2018 24.9787
94.5948 -6.9732 -0.5168
94.4239 8.9965 -17.2820
23.4572 -91.9052 22.5146
57.5396 -75.4056 27.9039
-86.9682 -37.8595 21.6189
55.8193 76.6877 17.5314
71.3753 -62.4689 31.2378
-62.4882 -71.3585 19.4635
94.7873 3.4901 -17.1488
-58.2071 74.8915 26.6311
94.4855 8.3249 -4.0498
18.0839 93.1116 9.8076
-36.1106 -87.7088 -14.5981
49.4452 80.9443 -3.7978
-91.0115 -26.7153 -28.8465
66.5951 67.5418 26.3409
-58.3443 74.7846 4.6437
54.8839 77.3600 10.3782
-88.0246 35.3337 9.1718
17.5802 -93.2081 -14.9436
-88.4654 -34.2151 12.9260
-48.5967 81.4565 5.1164
-57.3664 75.5374 -12.6610
-80.4992 -50.1665 -19.8910
-82.6474 -46.5425 -31.2074
32.1241 89.2460 28.5364
-91.2670 25.8291 2.7833
27.0559 -90.9109 28.0168
-84.0799 -43.9020 12.4541
28.3485 -90.5161 14.4397
-31.9855 89.2957 -2.3917
44.2551 -83.8946 -15.6407
25.3272 -91.4076 -16.1862
58.6727 74.5273 5.4113
-14.2699 93.7719 -21.4877
-15.3764 -93.5969 11.0740
57.5258 75.4161 8.2436
1.3853 -94.8414 -13.9471
-93.4424 -16.2890 19.2585
-0.3965 94.8507 -24.2971
72.0639 61.6734 -23.6936
52.5806 -78.9436 -4.5843
17.2534 -93.2691 -17.1353
-4.5479 94.7424 22.4996
-69.9921 -64.0149 4.5769
-18.4824 93.0334 -16.1200
88.2853 34.6773 23.8395
-69.1822 -64.8894 0.8552
-26.3030 -91.1315 -5.6339
-45.1591 -83.4114 20.7506
89.9750 -30.0216 12.5029
-17.7645 -93.1731 -29.9999
-47.5515 82.0711 25.9944
78.6015 53.0906 12.6562
-24.4590 91.6437 -10.8903
-93.8958 -13.4305 16.3745
20.2680 92.6607 -2.5890
94.8314 1.9527 24.4239
-89.6622 -30.9434 -0.1027
-72.4630 -61.2040 -4.9219
-67.1789 -66.9612 -11.9859
14.0549 93.8044 -30.9537
-58.8883 74.3570 12.4047
-59.6038 73.7848 -20.2960
87.8538 35.7564 -15.5404
-93.6731 -14.9049 -24.8348
-88.8063 -33.3203 -14.3338
-8.0823 -94.5065 21.1261
-41.4727 85.3043 14.9690
67.1056 -67.0346 -18.9615
-83.7685 -44.4932 20.2823
-77.9641 -54.0223 31.3519
-71.3867 -62.4559 1.0922
-64.7857 -69.2793 -14.3057
35.3096 -88.0343 0.0944
-93.5876 15.4326 -31.6072
-78.4046 53.3810 -0.1835
-29.9112 -90.0118 -7.9279
83.0269 -45.8622 1.1948
66.4597 67.6751 9.1153
-48.1336 -81.7310 1.3843
-78.7164 -52.9201 18.8715
-15.1695 -93.6306 -5.9550
-30.5804 89.7866 12.4279
-41.6292 85.2280 -5.6834
-38.5984 86.6428 16.9119
68.4021 -65.7112 1.1727
-70.9417 62.9610 -18.4731
-52.0656 -79.2842 2.9262
77.1161 55.2260 -0.8679
59.7909 -73.6332 -9.3687
-17.0882 93.2995 23.1678
93.8346 13.8515 24.2267
-60.1367 73.3511 -5.8879
55.8705 76.6505 29.5033
-46.9727 -82.4037 27.7141
-93.6805 14.8582 -5.6738
-93.2155 17.5405 -9.8473
94.1712 11.3394 -28.5775
-82.9213 -46.0528 2.0135
-52.2258 79.1787 -16.0738
-93.4507 16.2411 12.3866
-23.9009 -91.7908 15.7903
-14.8133 93.6876 22.4321
-86.8946 -38.0280 13.7940
-74.0113 -59.3223 -18.6356
94.8418 1.3581 6.6699
32.9230 -88.9544 -7.2867
-5.8463 94.6711 4.7818
-50.7837 80.1113 20.7172
-75.9283 -56.8481 -30.6798
-93.4680 -16.1414 4.3764
50.4128 -80.3452 12.5744
-79.3289 -51.9974 -12.3058
-37.4543 87.1434 21.4332
-94.7287 4.8243 28.5952
93.7381 14.4907 27.8347
91.5350 -24.8628 1.3106
-85.8957 40.2334 14.0196
-44.0593 83.9975 6.7683
93.5595 -15.6021 29.9474
78.9659 52.5470 6.7332
93.5066 15.9159 8.8357
-19.0561 -92.9176 -28.4077
-24.9482 -91.5117 -16.4999
-88.5611 33.9666 -25.4689
45.6656 83.1352 -28.8499
-6.3256 -94.6403 -1.1488
40.1970 85.9128 16.4969
64.7991 69.2667 22.1625
-53.6730 -78.2050 -17.1149
11.5702 94.1432 14.8268
67.5768 66.5596 26.7790
93.3567 -16.7732 -18.1807
90.6819 -27.8135 5.8577
-94.8178 -2.5270 -26.5329
-38.8472 -86.5315 -18.4599
50.7237 80.1493 5.9799
48.2834 81.6426 22.6668
86.8633 38.0994 16.5644
94.5777 -7.2012 16.6191
-94.7560 4.2553 1.9330
-90.4711 -28.4920 1.8052
6.7572 -94.6105 -16.6701
-33.8890 -88.5909 -7.1781
-64.8365 -69.2317 -31.3885
79.6980 51.4300 14.0182
-93.1895 17.6783 22.7195
94.8481 -0.8047 -17.1376
-48.6882 81.4019 20.4052
93.0206 18.5467 -20.0377
13.2765 -93.9177 20.8771
-57.0250 75.7955 -10.8326
91.7079 24.2172 -30.7508
-94.6666 -5.9187 -10.2604
-79.4243 51.8515 15.7941
94.0224 -12.5137 9.3632
43.8547 84.1045 24.0011
63.3552 -70.5898 15.2434
-22.5843 -92.1236 13.4860
-62.1731 -71.6332 -17.0045
75.1903 -57.8207 1.7462
-91.2194 -25.9965 24.5114
-74.7215 -58.4252 -25.8305
25.3979 91.3879 -22.6124
-68.8027 65.2916 -14.5148
93.8569 -13.7001 -21.8852
-30.2959 89.8830 21.8432
39.1196 -86.4087 7.9387
-83.5040 -44.9877 11.8134
-19.9017 92.7401 -10.1900
-8.1553 94.5003 23.0035
-94.8483 -0.7780 -5.0135
94.7618 -4.1229 8.5424
-77.0798 55.2766 0.5409
43.1346 -84.4761 -7.8430
-88.7209 -33.5472 15.2643
34.5914 88.3190 7.7296
34.0749 88.5195 20.0264
16.7173 -93.3667 4.8423
29.1010 90.2770 18.8047
-22.1002 -92.2409 -30.8492
-53.5388 78.2969 11.3925
-83.2233 45.5048 -4.4745
-68.5032 65.6058 -8.5950
94.8425 1.3081 -15.2711
93.0294 -18.5025 14.7648
-68.4105 -65.7024 -31.3589
94.3346 -9.8888 -14.5983
93.7656 14.3116 17.8825
92.1021 -22.6719 15.8196
-50.2309 -80.4591 19.0448
-94.7820 -3.6299 28.0953
-29.1757 -90.2529 -19.8810
67.9366 66.1923 -11.3291
-73.9730 59.3701 -5.9776
-48.8178 -81.3242 -10.6911
-29.1248 90.2693 -12.5753
-94.8427 -1.2880 -3.6730
28.1508 90.5778 -20.7388
21.2893 92.4314 9.7529
-58.5107 74.6546 12.1672
89.7554 -30.6719 -5.3892
-15.5797 93.5632 -10.9662
94.0313 12.4466 -26.2494
34.7392 88.2609 -16.1916
-29.9913 89.9852 19.8347
-55.5486 76.8841 9.5925
77.9519 54.0398 -19.7070
-84.8978 -42.2986 14.0189
88.2546 -34.7552 9.6877
16.7573 -93.3595 0.2894
-28.1628 -90.5741 -22.6817
-48.7142 -81.3863 25.7073
68.3525 -65.7628 21.3206
66.2818 -67.8493 19.3813
85.7721 -40.4963 -12.8605
-93.4618 16.1768 4.1882
-34.3480 -88.4139 -8.8349
89.9438 -30.1151 -17.5156
-64.4089 69.6297 -22.0467
-50.0995 80.5409 5.1693
-89.0869 32.5628 10.7879
36.2810 -87.6384 24.6665
-62.1831 71.6245 17.4149
47.2706 -82.2332 -23.8474
-20.5632 92.5957 -18.6991
-92.5402 20.8113 -8.0170
83.9566 44.1373 -19.2664
2.0829 -94.8286 -10.7185
16.5515 -93.3962 -21.1864
-86.0791 -39.8395 -24.9398
83.0441 -45.8310 15.6003
93.6868 14.8185 0.1896
79.8866 51.1364 9.6774
-91.8802 23.5550 24.2542
-94.3983 9.2606 21.6743
4.6980 94.7351 -23.8954
-41.2390 85.4175 -2.2513
14.7648 93.6953 28.7667
-49.0006 -81.2142 -23.3138
92.1443 -22.4997 2.0184
31.3581 89.5180 -30.3481
-68.1135 66.0103 -10.5832
68.6872 65.4131 31.6608
46.6198 -82.6039 2.7257
-93.5665 -15.5603 27.4547
32.5515 -89.0910 -17.6134
66.9514 -67.1887 -18.6236
94.8485 0.7556 8.4528
82.3374 47.0889 -9.7690
24.4823 91.6374 -5.3972
51.5928 -79.5926 -23.5065
33.0843 -88.8945 -23.6425
28.0308 90.6150 -16.6293
23.9572 -91.7761 -15.1209
65.2368 68.8546 11.8772
94.1930 11.1569 -25.6317
82.8688 -46.1473 4.3521
91.7782 -23.9495 0.1297
-43.7648 -84.1513 14.5471
-13.4646 93.8910 29.2337
-18.1544 93.0979 -16.8629
54.7726 -77.4388 16.2633
19.1215 92.9041 17.4537
-27.2058 90.8661 -27.8416
66.9020 -67.2378 6.6249
66.5612 -67.5752 1.6513
69.4025 64.6536 -13.1279
-90.8824 -27.1513 -4.7397
-24.3702 91.6673 24.7735
93.7945 -14.1209 14.8606
-67.4419 -66.6963 0.2880
-45.0515 -83.4696 2.1504
17.9190 93.1435 30.0595
-90.4864 28.4433 28.4986
-12.3604 94.0427 11.8621
-78.2562 -53.5983 29.5300
87.9146 -35.6067 -18.8680
-45.8068 -83.0575 21.6105
-84.3449 -43.3906 -8.8139
13.9168 -93.8250 -13.1502
19.2662 92.8742 -9.8241
22.2380 -92.2078 -21.3794
66.0147 -68.1092 -25.4462
29.6320 90.1041 -19.5925
-61.9012 71.8683 2.6407
88.1714 34.9658 -7.7709
-90.7564 27.5695 31.2584
-94.8226 -2.3413 7.8406
46.0238 82.9374 -18.8270
82.5207 46.7668 -27.0455
52.1599 -79.2222 20.7410
-94.4099 -9.1423 12.8579
-18.6843 -92.9930 -8.4413
54.6244 -77.5434 -18.4970
-61.1220 -72.5321 -15.0348
-29.8328 90.0378 14.1978
33.3233 -88.8052 -20.5903
59.7382 73.6760 11.2735
17.3183 93.2571 -3.4219
-91.2649 -25.8365 28.9254
-3.9167 -94.7706 -10.4167
-94.8449 -1.1160 -4.1193
92.0635 22.8279 -3.6207
74.5891 58.5941 4.0148
32.9610 88.9403 18.5891
-61.5303 72.1860 -27.1222
55.2490 77.0996 -18.4860
-66.9556 -67.1844 0.0145
-50.9842 -79.9838 14.4544
86.1346 39.7194 -27.8307
19.0394 92.9210 24.8007
91.7249 -24.1528 23.6867
-80.1835 50.6696 -4.4599
-58.7356 74.4777 29.5723
-94.3648 9.5967 16.6460
57.9182 75.1151 -7.1599
-65.5920 -68.5164 -10.7949
7.4827 94.5559 -9.6248
79.8664 -51.1680 -27.1767
-52.8706 -78.7496 -10.5645
-20.8418 92.5334 -5.2270
94.6375 -6.3683 5.5912
-94.6906 -5.5224 -12.8799
22.0493 92.2531 -18.4218
-38.5028 -86.6853 -25.3814
86.6611 -38.5572 -30.3811
15.6725 93.5477 -8.6927
92.1026 -22.6696 29.1548
-88.6942 33.6177 -13.4671
-77.0696 -55.2909 22.7875
15.1257 93.6377 -5.6340
88.3323 34.5574 11.4556
78.5183 53.2136 -17.7829
-86.5137 38.8869 5.9714
81.5568 48.4282 13.1066
-1.4452 94.8405 -12.5814
89.4401 31.5796 -0.9579
47.2850 82.2249 17.0151
-24.8269 -91.5447 30.3562
83.2598 45.4380 -22.8681
1.0548 -94.8456 27.0902
-69.2044 -64.8656 23.0506
83.5889 44.8297 -29.2108
89.5869 31.1608 -9.3248
69.9245 -64.0888 -15.2088
71.6091 -62.2008 -27.5821
-3.9796 -94.7680 5.6643
-72.1140 -61.6148 10.0193
-87.4271 -36.7874 -25.4217
64.6800 -69.3780 27.5485
49.2164 81.0836 16.2385
-94.6214 6.6026 -5.4005
53.3811 78.4045 6.1089
85.1393 41.8103 -17.5734
27.5778 90.7539 -7.0024
-7.4713 94.5568 -31.1932
92.6697 20.2272 -20.6538
-18.8618 -92.9572 0.3209
-19.2147 -92.8849 14.8152
-0.8880 94.8473 -9.6086
-13.1983 93.9288 31.5814
-52.4838 79.0080 29.9987
53.8878 -78.0571 26.1696
-69.4944 64.5549 2.2767
0.4775 94.8503 10.2660
91.4918 -25.0211 -21.1063
93.4167 -16.4357 -21.7237
-38.8344 86.5373 9.8706
-43.3511 -84.3652 -32.0065
-30.1540 89.9308 21.0778
-83.0115 -45.8900 -10.4023
94.7110 -5.1614 -23.8734
-89.6229 31.0572 -4.0631
-74.2637 -59.0060 -3.3240
-48.5811 -81.4658 30.4723
93.1839 -17.7078 -18.8181
-58.7092 -74.4986 -7.7033
-83.6728 -44.6728 25.3639
-71.9500 -61.8061 27.0749
-84.0628 43.9346 -11.2648
-93.9013 -13.3922 27.5992
-31.8467 -89.3453 18.8190
-30.0128 -89.9780 18.2589
16.5928 -31.9127 32.1428
-73.2718 42.8724 32.1428
17.9319 -23.0274 32.1428
39.9182 17.2700 32.1428
-75.5578 -8.5852 32.1428
7.3777 62.3697 32.1428
34.5787 76.5513 32.1428
26.6187 66.8459 32.1428
-38.1022 27.7283 32.1428
-80.0628 13.0163 32.1428
13.5051 10.2530 32.1428
-4.2055 8.8206 32.1428
-75.5862 40.8291 32.1428
-50.7200 25.7776 32.1428
-19.3770 -22.9099 32.1428
19.2648 -11.8206 32.1428
12.6902 -11.4900 32.1428
84.6395 -39.3312 32.1428
-6.8727 -14.8200 32.1428
0.1090 -1.6436 32.1428
-14.8001 -15.7932 32.1428
82.8785 -10.2136 32.1428
-23.7669 -44.5501 32.1428
-8.2966 -41.0733 32.1428
44.6195 75.7071 32.1428
-11.9086 -47.3265 32.1428
42.1403 20.4761 32.1428
-52.0618 45.6339 32.1428
-58.8366 74.3150 32.1428
0.5840 28.9257 32.1428
-24.2691 -1.7750 32.1428
14.1483 48.0354 32.1428
2.0788 -26.7862 32.1428
-27.2125 -7.2224 32.1428
7.4105 4.1352 32.1428
16.1533 18.9557 32.1428
-29.0519 65.9842 32.1428
28.4222 -27.6119 32.1428
1.9126 63.4511 32.1428
44.3771 -41.3546 32.1428
-59.7309 46.5177 32.1428
-2.4970 -4.2533 32.1428
-5.7638 5.9007 32.1428
-1.5569 35.7847 32.1428
-21.5427 -5.2368 32.1428
-20.0424 10.6483 32.1428
-1.8874 2.7982 32.1428
-39.1627 0.7342 32.1428
39.4457 -40.8269 32.1428
-74.0152 -11.4663 32.1428
-33.3847 30.7235 32.1428
17.0428 -36.4325 32.1428
-21.9114 -26.9354 32.1428
43.7066 48.6564 32.1428
80.7166 44.3885 32.1428
1.3667 84.4238 32.1428
27.7356 -5.9638 32.1428
75.5356 -8.8962 32.1428
-6.9232 -42.0647 32.1428
22.7294 67.6565 32.1428
33.0695 -15.3449 32.1428
-30.5538 -25.3186 32.1428
-62.3013 6.3432 32.1428
-33.6872 -0.2815 32.1428
-1.5736 4.9247 32.1428
35.5184 0.4327 32.1428
47.9062 -49.3552 32.1428
0.4238 -32.9299 32.1428
58.0653 51.8951 32.1428
-24.7193 -26.6867 32.1428
71.8890 -9.2062 32.1428
0.1497 3.3168 32.1428
23.4030 43.5980 32.1428
-2.2543 -0.5881 32.1428
-4.9427 12.2132 32.1428
-12.0227 -54.5462 32.1428
3.5042 -61.8090 32.1428
-3.1198 19.0089 32.1428
30.1729 -60.5245 32.1428
24.0578 38.7966 32.1428
46.1708 8.1281 32.1428
6.4381 17.8537 32.1428
6.1648 21.7807 32.1428
-67.0346 -7.9264 32.1428
-46.6742 -30.9307 32.1428
9.0405 -59.2336 32.1428
-50.0376 20.8529 32.1428
18.2767 -1.5982 32.1428
4.0614 -2.1847 32.1428
3.4750 -3.9596 32.1428
-33.1891 -27.3993 32.1428
0.0727 -0.9365 32.1428
-10.7705 -33.7890 32.1428
2.6974 -0.4124 32.1428
-13.4977 31.8130 32.1428
17.7641 34.6791 32.1428
45.2058 -14.7007 32.1428
39.1119 -38.1604 32.1428
90.2942 11.9429 32.1428
-65.7132 25.8721 32.1428
-5.6326 47.5111 32.1428
-8.9560 -47.6461 32.1428
-16.2143 -20.2579 32.1428
-9.8519 -7.5407 32.1428
-14.6763 -59.2894 32.1428
-62.2575 11.9548 32.1428
-27.9923 80.1344 32.1428
-65.6587 -31.2688 32.1428
-19.8506 -37.4836 32.1428
-58.3299 28.5793 32.1428
-46.5661 51.8318 32.1428
-18.1753 41.7842 32.1428
60.0366 6.1743 32.1428
-9.1215 -1.3204 32.1428
2.5516 62.5281 32.1428
-20.6057 80.3103 32.1428
-28.9594 -9.9120 32.1428
58.1842 -20.3697 32.1428
-3.4761 8.7304 32.1428
91.3931 -9.7461 32.1428
-44.8758 -32.9334 32.1428
0.4423 -4.4538 32.1428
28.7357 -0.2264 32.1428
-20.0413 33.3235 32.1428
4.1772 -54.3286 32.1428
-53.7382 49.9688 32.1428
70.3116 -56.4147 32.1428
-17.3216 -16.2426 32.1428
-6.3408 -39.1909 32.1428
-56.7235 -39.4759 32.1428
-16.3803 -6.4996 32.1428
3.5674 -5.3202 32.1428
17.4650 -61.2971 32.1428
15.9362 -63.1714 32.1428
73.3327 48.8654 32.1428
25.5023 -23.1466 32.1428
-75.6708 -56.6635 32.1428
-67.8452 29.7927 32.1428
21.7935 40.4601 32.1428
9.4576 -39.7099 32.1428
-0.4752 3.1839 32.1428
-58.0292 4.7425 32.1428
-23.1209 -31.3662 32.1428
7.4743 -1.5730 32.1428
-0.7761 -38.9192 32.1428
2.3437 8.2115 32.1428
6.0480 -10.8695 32.1428
71.3359 46.0558 32.1428
11.9944 50.1326 32.1428
80.4981 -30.0218 32.1428
2.6834 35.5895 32.1428
59.0500 43.1401 32.1428
-72.0471 -32.9072 32.1428
11.6869 1.3787 32.1428
64.8201 -18.5775 -32.1428
57.9463 -42.2143 -32.1428
15.7214 29.0693 -32.1428
-20.0331 76.2254 -32.1428
49.0135 3.3091 -32.1428
0.9171 -50.5193 -32.1428
60.8696 43.2531 -32.1428
6.8593 -2.7680 -32.1428
-37.3563 -6.3594 -32.1428
28.1933 -89.9566 -32.1428
19.6502 3.5258 -32.1428
-1.0858 2.8573 -32.1428
-1.2448 -0.1692 -32.1428
5.4700 -73.4034 -32.1428
0.5870 0.4699 -32.1428
-34.3107 -25.7517 -32.1428
49.9293 -23.7306 -32.1428
-49.7650 -43.5172 -32.1428
-37.1616 25.0621 -32.1428
2.8337 16.9123 -32.1428
2.6012 11.2837 -32.1428
61.4873 -18.8707 -32.1428
-8.8813 30.4771 -32.1428
23.4447 13.1019 -32.1428
-55.2394 65.8361 -32.1428
21.0483 -82.6338 -32.1428
-22.7212 79.9608 -32.1428
-10.0745 4.1237 -32.1428
-18.3684 -19.6194 -32.1428
80.4200 -33.0352 -32.1428
-5.8971 -10.2424 -32.1428
-14.3580 35.0398 -32.1428
-19.3257 -7.5153 -32.1428
83.5694 -14.0647 -32.1428
85.8173 -8.0000 -32.1428
-0.5891 8.4111 -32.1428
9.7795 6.6863 -32.1428
-3.1924 -32.6533 -32.1428
-34.3900 -61.9946 -32.1428
-9.9962 -57.7814 -32.1428
14.7280 5.9163 -32.1428
-55.7161 -63.2837 -32.1428
-87.0368 -17.1100 -32.1428
19.5897 -17.6062 -32.1428
12.4131 5.6168 -32.1428
-16.1153 19.8943 -32.1428
62.6058 -15.3281 -32.1428
-32.8250 -57.6224 -32.1428
-14.5897 -53.9854 -32.1428
-1.6314 2.5674 -32.1428
4.0721 85.2436 -32.1428
18.5159 25.3607 -32.1428
1.9167 -48.7253 -32.1428
28.8364 -10.6907 -32.1428
1.1513 -6.7086 -32.1428
-45.1675 31.7262 -32.1428
2.3665 -10.6884 -32.1428
-0.8072 -9.3160 -32.1428
25.9032 -31.7160 -32.1428
3.5296 -12.2923 -32.1428
-35.7779 58.5082 -32.1428
-18.7156 -24.4692 -32.1428
0.3884 -1.0463 -32.1428
42.9654 1.5644 -32.1428
-67.6158 47.9408 -32.1428
58.0184 -7.8095 -32.1428
-0.0385 -2.3113 -32.1428
55.6994 53.0287 -32.1428
23.0063 43.4875 -32.1428
3.8661 6.5225 -32.1428
10.3212 0.5180 -32.1428
-42.1140 -74.8325 -32.1428
4.8906 -48.1382 -32.1428
-23.3251 47.2733 -32.1428
15.1979 81.5427 -32.1428
-32.6440 11.7048 -32.1428
5.9397 61.3893 -32.1428
33.3376 8.9640 -32.1428
-1.1524 -19.3593 -32.1428
30.0965 25.7319 -32.1428
-1.3292 -7.8965 -32.1428
-49.4605 11.8883 -32.1428
8.6795 -80.6536 -32.1428
-44.2634 20.8494 -32.1428
16.5839 -39.1109 -32.1428
7.4838 -77.4360 -32.1428
12.8998 91.5970 -32.1428
14.9864 43.3318 -32.1428
-0.9718 -1.5695 -32.1428
-27.3325 -77.7934 -32.1428
18.1824 -29.5307 -32.1428
31.9487 -47.1346 -32.1428
-10.9827 -55.5029 -32.1428
34.2195 -10.1219 -32.1428
32.0210 -69.7932 -32.1428
34.1257 -11.2421 -32.1428
5.7655 -11.0184 -32.1428
41.0345 -0.7399 -32.1428
81.2465 44.0244 -32.1428
4.5607 -7.4169 -32.1428
-45.4837 21.9575 -32.1428
26.1390 -31.0932 -32.1428
-5.7364 2.4935 -32.1428
26.5428 23.9172 -32.1428
1.4654 -49.7501 -32.1428
44.3696 -65.1437 -32.1428
-58.0537 65.1415 -32.1428
-34.7620 56.8042 -32.1428
-88.5795 -17.3021 -32.1428
27.4619 0.2344 -32.1428
43.7315 -22.8962 -32.1428
-37.2918 9.0732 -32.1428
-14.4204 4.7906 -32.1428
-26.6202 -89.7886 -32.1428
-80.7028 -20.9181 -32.1428
5.0852 -5.6750 -32.1428
51.1956 53.5536 -32.1428
2.2579 41.5327 -32.1428
-33.5238 3.5344 -32.1428
-29.6410 -69.1416 -32.1428
-6.1668 14.0865 -32.1428
23.5486 -22.9774 -32.1428
-40.7671 69.2726 -32.1428
0.5591 0.0543 -32.1428
19.3231 -66.5075 -32.1428
27.0283 -1.4409 -32.1428
89.6075 24.9969 -32.1428
6.0828 65.8461 -32.1428
58.9479 2.6265 -32.1428
22.5337 11.3814 -32.1428
42.2074 -27.1614 -32.1428
-56.5128 66.0017 -32.1428
-14.4925 34.7520 -32.1428
56.5247 -30.0345 -32.1428
14.2485 -48.5104 -32.1428
-28.6752 -17.8351 -32.1428
8.3917 -21.3472 -32.1428
-1.7301 0.2096 -32.1428
31.7569 -75.9666 -32.1428
15.7290 -31.1657 -32.1428
5.7555 14.8764 -32.1428
57.3483 33.5166 -32.1428
-23.6575 -3.3681 -32.1428
-7.9244 -32.2288 -32.1428
46.3372 -34.4175 -32.1428
-69.7738 -54.7824 -32.1428
49.8241 2.8573 -32.1428
-16.0928 90.9061 -32.1428
-6.3744 -84.8530 -32.1428
9.6731 8.4760 -32.1428
39.9925 19.2852 -32.1428
-2.2864 8.5745 -32.1428
-1.5404 -1.4162 -32.1428
63.6888 -30.6231 -32.1428
