ply
format ascii 1.0
element vertex 1024
property float x
property float y
property float z
end_header
54.4306 45.2702 44.8778
-69.8873 11.3070 -38.9407
-61.4040 -35.2368 35.4198
56.7024 -42.3902 -66.2806
52.6268 -47.3550 -8.7022
24.3595 -66.4733 -13.6356
-9.3123 -70.1809 62.2713
65.1531 27.6977 -36.7126
19.5914 -68.0313 30.5315
-68.5114 -17.8401 72.1341
-56.2455 42.9945 27.9704
-11.2293 69.8998 52.8230
-21.6851 67.3932 47.0909
-40.4117 -58.1290 66.3292
-2.4907 -70.7522 67.1015
61.4961 -35.0757 -51.3527
62.4646 33.3206 71.6141
-1.3515 70.7832 -74.4849
-38.1168 59.6589 -52.0527
67.9628 19.8278 -60.3345
2.0263 70.7671 -71.1580
-68.5538 17.6765 34.5773
-13.6951 -69.4588 -32.1877
-69.9654 10.8133 65.8777
-15.6603 69.0423 -71.5144
-70.5452 5.9548 30.6492
47.3220 52.6566 -0.0072
25.3013 66.1206 34.0595
-67.4413 -21.5350 -50.6190
-43.4517 55.8931 -41.7569
7.2063 70.4283 -71.5521
2.0906 -70.7652 68.4382
-46.7323 -53.1806 -40.8816
69.8875 11.3056 12.0310
6.1666 -70.5270 -54.3324
-41.0808 57.6580 -75.2440
65.9184 -25.8235 -72.8322
-69.1409 15.2188 37.2778
-70.6915 -3.8467 -47.8662
54.2325 -45.5074 22.3611
13.1634 -69.5615 73.8089
1.2965 -70.7842 -14.1105
-69.3468 -14.2514 -39.0357
-67.8994 -20.0439 -73.1027
50.2112 49.9091 18.4827
-17.9411 -68.4850 0.9302
-58.0817 40.4796 -31.7820
-70.7673 -2.0169 37.0778
55.7284 43.6627 -66.7883
-68.7407 16.9351 7.7412
-44.6531 -54.9380 72.2680
-53.8096 46.0066 56.6879
-69.9865 -10.6759 52.3734
3.6104 -70.7039 -74.9570
23.0491 -66.9389 -32.8078
66.7495 23.5920 26.0764
-21.8181 -67.3502 71.3218
-34.6835 -61.7182 23.3670
56.2868 42.9404 45.8721
-70.4833 6.6474 57.7087
70.7297 3.0641 -52.9948
20.8995 67.6409 65.6240
38.0022 -59.7320 36.3499
54.5995 -45.0664 -56.4632
46.2516 53.5991 26.2435
64.6220 -28.9151 8.4138
-31.3608 63.4711 40.6282
60.4945 -36.7763 -10.5467
-5.8801 -70.5515 -71.1960
66.8042 -23.4367 -23.9807
-50.9963 -49.1067 -65.1313
-41.2899 57.5085 41.9832
33.9938 62.1008 -42.7612
70.2747 -8.5757 -25.3548
68.9703 15.9742 0.3190
64.7007 -28.7386 13.4547
-31.1054 63.5967 23.5659
65.2190 27.5421 38.8675
-53.0619 46.8670 26.1266
69.5535 -13.2056 -48.8398
-26.5890 -65.6133 18.1076
-65.5958 26.6321 14.0941
-69.3752 14.1126 16.7109
-58.3479 -40.0949 19.4941
55.9152 -43.4232 -38.7059
-21.4780 -67.4594 -45.8756
-61.4752 35.1125 74.5038
67.2352 22.1701 53.5837
70.4278 7.2114 -12.1574
68.0067 -19.6766 -27.8528
-70.5619 5.7529 24.9736
-40.7311 57.9056 57.3172
34.9414 -61.5726 -74.6730
65.5577 -26.7259 -21.6768
37.7491 59.8923 -16.9982
-45.5352 54.2091 -0.1166
60.9455 -36.0240 1.9948
62.9751 -32.3453 49.9649
-37.0934 60.3006 -26.2144
64.5169 -29.1488 6.4957
21.2650 -67.5269 46.4703
-69.3959 -14.0104 -70.7575
70.0575 10.1993 55.3505
-50.0545 -50.0663 -0.2182
50.1281 -49.9926 53.7953
-70.7872 -1.1207 -43.6459
51.1267 -48.9709 -1.4360
-16.0971 68.9418 -48.3683
67.9702 -19.8024 46.7468
50.3752 -49.7436 -3.6932
-11.3611 -69.8785 -70.6638
19.0680 -68.1799 5.1417
-52.5620 47.4270 61.3813
-64.9458 28.1804 -51.3271
-18.0427 -68.4583 22.2334
-25.1676 -66.1716 19.8066
-66.4342 24.4658 44.6642
4.5066 70.6525 0.1410
-59.9388 -37.6752 -58.5568
-19.6632 68.0106 -16.2037
24.5103 -66.4178 -8.8059
46.8603 -53.0679 -11.9341
25.3901 -66.0865 7.6118
69.8365 -11.6167 -35.1946
-39.1081 -59.0139 -49.8521
65.5625 26.7142 34.6063
-0.2647 70.7956 -68.0024
-28.4423 -64.8315 62.0326
44.2651 -55.2511 72.7814
-70.2014 9.1565 54.6344
32.7657 62.7574 -24.5527
69.2730 -14.6059 -41.8946
29.2342 64.4782 -9.7694
-68.9133 -16.2186 70.7165
-52.7195 -47.2518 18.7618
-57.3932 41.4500 48.1006
58.7543 39.4971 -17.9898
9.9676 -70.0909 45.4711
21.9895 -67.2945 17.4891
32.2964 -63.0002 62.8079
-64.9599 28.1477 -18.7982
-69.4485 13.7473 68.0397
35.8674 -61.0378 4.5746
-61.4697 35.1221 42.9074
-48.1638 -51.8877 11.0208
-69.5396 13.2791 27.3490
-70.6131 5.0860 0.6719
-57.8135 40.8618 50.4403
70.7530 2.4686 64.7132
65.6380 -26.5280 -65.8093
-33.1256 -62.5682 50.4397
-57.3569 41.5003 -30.6495
-54.2335 45.5062 -52.5725
-60.6326 -36.5482 54.0278
-65.2904 27.3724 61.0980
-67.2740 -22.0521 45.3360
-59.8438 37.8259 70.1577
41.9931 56.9970 -45.1980
54.6313 45.0278 24.1559
61.7555 34.6170 65.0488
-64.7023 -28.7349 -59.7624
41.0961 57.6472 -42.1745
51.6407 48.4285 -15.1764
-68.7333 -16.9653 25.9796
-20.3563 -67.8064 -66.7630
-9.7565 70.1206 27.4628
-63.9805 -30.3082 -62.3279
-70.4651 6.8376 21.6144
19.2305 -68.1342 -16.8721
-25.4010 66.0823 -4.1609
64.7147 28.7070 8.7207
-20.7663 67.6819 -52.4580
13.2735 -69.5406 -17.3494
-1.8686 -70.7714 23.7357
55.4684 -43.9924 -46.0281
69.3832 -14.0731 22.3333
25.0392 -66.2202 -6.6166
-37.3862 60.1195 -23.8374
-55.8154 43.5514 -59.0970
50.6105 49.5042 59.2695
27.1518 -65.3825 31.3248
5.4547 -70.5856 -62.8844
16.5793 -68.8274 -38.3776
14.1056 69.3766 69.5237
-64.9176 -28.2452 -56.6014
-65.6624 -26.4675 -38.0514
7.7370 70.3720 -3.0388
42.4894 -56.6280 44.2261
69.8109 11.7696 36.5782
-42.2656 56.7953 7.1241
-58.7351 39.5256 62.6380
-70.7214 3.2497 8.9027
-58.2650 -40.2154 47.1133
66.8076 -23.4272 -13.0302
-6.0063 70.5408 -11.3030
-69.8620 11.4622 64.7934
-60.5345 -36.7104 -47.3176
18.4677 -68.3449 -29.9279
-27.9152 -65.0602 29.9546
56.6519 -42.4575 20.4489
-13.5570 69.4859 -61.7167
-70.1839 9.2900 41.5038
-58.2080 40.2978 -47.5213
-67.4038 -21.6521 18.2254
-31.0480 -63.6247 38.3085
-52.8160 -47.1439 56.8664
-45.6852 -54.0827 -54.9910
49.9334 -50.1870 4.2000
64.3825 29.4444 34.2969
-1.4890 -70.7804 36.3308
-52.8762 -47.0764 -22.2364
50.2921 -49.8276 64.3815
-1.0578 70.7882 -25.6756
48.1651 51.8865 -29.1099
-70.7805 -1.4822 -2.1883
58.1638 -40.3616 29.7577
64.9676 -28.1299 -74.6511
-67.6603 20.8366 11.4946
9.9923 -70.0874 -43.5562
43.8339 55.5938 59.0143
-32.7161 62.7833 19.9487
53.2534 -46.6493 13.5920
-65.4751 -26.9277 -67.4737
-28.3295 -64.8808 40.2173
52.5657 -47.4229 47.7247
-48.4037 51.6640 71.3749
10.1924 70.0585 39.8587
-61.9044 34.3501 -50.7567
-8.0518 -70.3367 -34.1486
-37.7892 59.8670 20.9303
-31.7717 -63.2664 -20.6277
62.7079 32.8603 -35.0917
64.9255 28.2271 -59.7832
-70.6026 5.2297 -72.1820
24.5066 -66.4192 -52.7334
-70.4355 -7.1363 0.5258
-70.1774 9.3386 26.3372
36.2374 -60.8188 14.0888
-18.3625 -68.3732 -53.8034
-69.4846 -13.5638 -3.5910
45.4489 -54.2815 -13.7253
17.2789 68.6551 -0.8660
-70.5923 5.3674 -45.1676
53.3489 46.5401 75.1897
-24.0119 66.5996 16.9174
49.1171 -50.9862 52.6285
-64.6751 28.7960 -19.8042
-60.2670 37.1479 25.7692
52.2729 47.7454 50.2687
-44.3615 -55.1737 -38.8469
53.5516 -46.3067 -70.3385
-33.6475 -62.2890 -52.3521
-68.7373 16.9490 48.1012
6.3677 -70.5091 -35.4624
68.9754 15.9522 -60.1607
-70.6886 3.8988 50.4871
36.4606 -60.6853 -58.8464
48.3481 51.7160 2.1724
68.3365 18.4989 -62.1482
42.0443 -56.9592 -7.6260
31.4953 63.4045 -57.6830
0.7027 -70.7926 61.2815
59.8880 -37.7560 35.5130
50.6177 -49.4968 31.0503
4.7716 -70.6351 20.7299
70.3388 -8.0338 -37.3616
69.2851 14.5485 48.2259
-46.7143 53.1964 54.2401
-70.2616 -8.6824 62.0889
48.3214 -51.7410 -59.7182
-35.3584 -61.3341 -17.3314
-70.7426 -2.7520 32.3821
-49.5581 50.5576 75.1513
-39.9781 58.4280 42.3791
-46.9611 -52.9787 -60.5631
-68.2765 18.7190 20.0820
62.6185 -33.0305 42.0483
-53.4283 46.4489 -34.7615
-64.3610 -29.4914 53.0600
63.7401 -30.8104 -47.7575
68.7599 16.8569 -27.9814
-37.5959 -59.9886 -56.6600
69.7399 -12.1832 47.5724
-66.6952 23.7453 -65.4270
61.0096 35.9154 -25.3082
-31.0336 63.6318 -70.8079
62.1520 33.9001 74.6757
-56.7567 42.3174 -19.4397
62.1748 -33.8581 -32.9396
67.2108 22.2440 -61.6303
-13.0107 -69.5903 28.2307
-56.4920 -42.6702 -51.5065
-58.5343 39.8224 -58.2987
62.1219 33.9552 -10.7370
59.0460 39.0595 59.6657
70.7493 -2.5726 -57.5607
57.9461 -40.6734 -25.0367
27.0800 -65.4122 37.9154
-67.6320 -20.9282 7.6782
-59.3663 -38.5711 73.6851
58.2397 40.2520 -11.9581
-40.1279 58.3252 -30.7907
-0.4196 70.7948 -66.3152
67.8906 -20.0737 -32.9393
-70.1530 -9.5207 -46.7323
-35.5014 61.2514 -50.6547
32.9572 -62.6570 5.2139
-69.2228 14.8420 73.5551
70.3309 -8.1022 -9.1869
-43.7931 -55.6259 32.4349
-28.1315 64.9669 14.5753
-57.5394 41.2468 -44.7515
69.3265 -14.3499 -41.8848
-69.5623 13.1595 60.8840
-49.8120 -50.3075 7.7730
63.9945 30.2785 -73.4119
7.9365 -70.3498 8.5957
48.7314 -51.3549 -68.5760
69.0162 15.7748 21.9458
-70.7880 -1.0657 5.1656
-22.8631 67.0027 -19.1774
54.6190 -45.0428 24.0833
-69.9122 -11.1519 39.0662
68.0310 19.5926 -52.5747
46.9468 -52.9914 40.4787
-63.5393 31.2224 -43.7524
-69.9132 11.1457 64.1730
-39.8920 -58.4868 -15.1128
-69.7858 -11.9172 -2.2210
-62.3629 33.5105 -68.1077
47.4256 -52.5633 21.5484
-3.8712 70.6901 -7.9231
46.1812 53.6598 -4.0760
-46.3953 53.4749 58.7550
29.9859 64.1321 -41.0998
64.9906 -28.0768 38.4969
69.9532 -10.8921 13.2373
-52.8457 -47.1107 -22.2756
-70.7806 1.4784 -48.6879
-68.5005 -17.8821 -49.1978
-63.8308 -30.6221 4.7186
69.4540 -13.7194 -25.9562
-64.6918 28.7586 30.3888
41.9420 -57.0347 55.6068
-26.4067 -65.6869 -68.1855
-64.4480 -29.3009 0.4348
-60.9530 36.0113 12.1105
41.4675 -57.3805 -68.4963
-43.5102 55.8475 0.5866
69.8486 11.5438 35.9061
70.0641 -10.1541 -14.7536
-66.1700 -25.1718 -16.9747
55.1127 -44.4372 -31.0486
28.4229 64.8400 -0.0949
-65.7893 26.1505 -13.5355
20.0522 -67.8969 1.6481
4.3672 70.6612 -0.6304
-62.5983 33.0687 12.4376
61.3451 -35.3393 -44.4638
68.6959 17.1159 -33.1012
48.1585 -51.8926 -61.9684
20.4633 -67.7741 -62.4454
36.2704 -60.7992 55.2652
58.8055 39.4208 -7.8788
0.9119 70.7902 9.5785
-27.0830 -65.4109 15.4311
59.4169 -38.4930 29.7114
-36.5615 -60.6246 69.9127
10.6922 -69.9840 -53.3653
-40.7594 57.8857 48.5746
62.8316 -32.6233 -62.9644
-21.8424 67.3423 -25.9965
44.2719 -55.2456 52.7342
-70.7554 2.3993 32.8477
23.4966 66.7832 -27.6496
29.6355 -64.2948 51.9332
-70.2390 8.8634 48.8773
53.2541 46.6485 -65.2051
-25.3354 66.1075 -71.2329
-70.6403 4.6933 -50.0679
-70.7237 3.2005 -56.7950
47.1253 -52.8326 -55.8373
-60.5667 36.6573 -72.3673
-7.3300 70.4156 -16.5871
67.0230 22.8036 13.5834
-45.8302 53.9599 9.4989
62.6988 -32.8776 61.6825
6.2547 -70.5192 50.7136
-5.8657 70.5526 -45.6800
-31.2243 -63.5384 -4.0534
-17.4464 -68.6127 -28.0319
-68.1207 -19.2782 67.4567
-42.5887 -56.5534 -5.5168
39.9539 58.4446 -20.7133
70.3578 -7.8657 -4.3483
-67.1484 22.4317 -58.5586
-1.3471 70.7832 72.9073
-54.1272 45.6326 24.0410
16.0916 -68.9430 30.8078
50.3650 -49.7539 -71.6531
-35.1958 -61.4275 30.7337
-44.9000 -54.7364 -73.4355
-43.4989 55.8563 2.8985
68.7064 -17.0737 -62.9899
33.7928 62.2104 -45.9676
-66.0568 -25.4672 -3.8571
-56.7426 42.3362 0.3759
-50.4431 49.6747 28.2964
-58.1706 -40.3518 -11.4064
68.5301 17.7681 -65.9902
20.0912 67.8854 12.5823
17.1873 -68.6781 59.1711
-41.5463 57.3236 59.6718
-2.1321 70.7640 1.1963
29.8923 -64.1758 58.8140
3.1090 70.7278 8.8984
-62.2313 -33.7542 -40.4101
70.7295 3.0696 46.5369
-44.1003 -55.3827 -62.4746
-53.7309 -46.0985 -53.7445
59.6900 -38.0682 -1.6950
3.1858 -70.7244 -37.7775
9.6625 -70.1336 -66.5223
50.1509 49.9697 -32.6150
45.2342 54.4605 -35.1420
-68.9596 16.0206 -64.9127
-66.1864 -25.1285 -71.7777
-68.8728 -16.3895 23.1206
-17.9512 -68.4824 18.1590
-50.5865 49.5287 -24.1949
-70.7137 3.4139 18.7973
-36.2451 -60.8143 -48.4566
-20.0632 67.8937 57.1869
47.7040 -52.3107 6.3035
-68.4883 -17.9285 -23.2828
-31.3596 63.4717 -10.9282
-69.6626 12.6179 32.0714
44.9959 -54.6576 -48.1933
69.7811 -11.9452 -55.1147
-29.7243 64.2538 -12.5890
70.3059 8.3168 -16.7767
70.3857 -7.6117 -9.4820
-10.2423 70.0513 26.5413
-40.4524 -58.1007 12.4312
58.3827 -40.0442 43.4929
-69.2279 14.8183 50.5738
-62.2164 -33.7818 -72.4632
34.4492 61.8493 62.2910
14.8926 69.2120 -49.6402
53.9892 -45.7958 15.8172
64.9409 28.1916 -28.6350
69.4413 13.7835 37.4029
-35.8288 -61.0604 -58.4463
51.1552 48.9410 -32.7957
69.3505 -14.2332 66.6264
-55.6402 -43.7750 -71.9407
45.0500 54.6130 25.0010
68.2332 -18.8762 -19.9949
25.8281 -65.9166 -43.4285
44.2728 55.2449 58.2146
-57.5788 -41.1919 43.5670
69.7192 12.3013 27.4095
-68.4775 -17.9698 -4.3815
-9.8782 -70.1035 -53.3560
-23.6166 66.7408 67.6224
-68.5851 -17.5546 -66.0133
49.4430 50.6702 -40.4330
-58.7613 39.4867 10.1183
66.9328 23.0670 -61.6084
-12.2943 69.7204 -43.3041
14.6888 -69.2555 -13.7425
-68.2132 -18.9484 -7.5654
-67.4883 21.3871 32.1869
-61.2070 35.5779 68.6499
-1.4059 70.7821 52.5527
67.5653 -21.1427 23.0079
58.5838 39.7495 -6.5680
22.6543 -67.0736 27.4183
-59.8727 37.7803 -18.7240
54.1818 -45.5677 1.7026
70.4359 7.1317 -18.7349
70.7449 2.6921 72.6340
22.5498 67.1088 37.0039
18.4327 -68.3544 -63.4078
-20.6939 -67.7041 37.4753
31.1295 63.5849 -56.8801
17.7988 -68.5221 -48.5317
40.4887 58.0754 45.3116
-47.0721 -52.8801 -13.5758
-70.7055 -3.5803 17.9824
-23.4796 66.7892 60.2659
-35.5609 61.2168 -60.0493
-32.3742 -62.9603 3.4529
-70.3149 8.2397 50.9991
57.5102 -41.2875 28.2050
-70.7313 3.0286 71.4665
40.1168 58.3329 62.3415
27.3588 65.2961 -43.0640
68.2571 18.7895 37.0586
-69.6610 12.6266 -9.8820
-16.5398 68.8369 -53.1567
-3.2929 70.7194 71.3272
-63.4268 31.4503 -24.9811
45.8546 -53.9392 49.9583
-12.2721 69.7243 -28.7163
58.9978 39.1324 -3.5251
56.0235 43.2834 26.7056
-64.3405 -29.5362 -68.6121
-10.9757 -69.9401 73.5083
-37.0274 60.3411 71.8279
64.8763 -28.3400 20.1112
-60.8074 -36.2566 55.8695
-59.1461 -38.9079 44.7760
64.7043 28.7304 33.1333
-31.4046 63.4495 -17.6973
63.8772 30.5251 -19.3771
-48.5082 51.5658 8.0693
-8.9743 -70.2250 -44.7588
70.1357 -9.6472 -13.5195
-69.8364 11.6171 -46.9487
60.5316 36.7152 51.5862
-69.4256 -13.8625 -62.3892
-57.4498 -41.3715 -74.4370
-70.7885 -1.0348 -23.8045
-70.7875 -1.1026 24.2517
-5.2467 70.6014 37.9333
-61.9321 -34.3002 42.7635
-70.6846 3.9706 -20.9546
-38.6227 59.3327 -52.4397
-11.2012 -69.9043 -75.2761
-57.3186 -41.5531 -33.4870
46.2193 -53.6270 -65.4920
49.7034 50.4148 5.1992
-67.7969 -20.3877 -32.5915
70.6379 4.7294 -27.4511
-70.6877 3.9147 -49.7128
67.2261 -22.1975 44.5545
67.5640 -21.1468 -9.4337
62.3627 -33.5108 -4.4033
-63.7885 30.7100 11.8410
-13.2608 69.5430 40.8794
31.6163 -63.3442 9.7268
69.9772 -10.7367 46.7370
-62.2944 33.6377 43.7651
63.2726 31.7594 -65.5615
13.5614 -69.4850 -1.9008
-70.7954 -0.3113 -24.1966
-9.6958 70.1290 -24.1622
34.0872 62.0496 -45.0102
68.9633 -16.0046 11.4296
-37.2229 -60.2207 73.7096
45.1066 -54.5662 -23.1751
70.7819 -1.4149 -44.1671
-58.2258 -40.2721 -54.2508
-70.5014 -6.4523 -47.1489
66.2449 -24.9738 -50.8474
7.4777 -70.4000 67.4237
-22.6766 -67.0661 30.1383
70.6856 -3.9530 -33.6926
-46.7420 53.1720 67.4649
-58.9849 -39.1518 -63.1811
-70.6513 4.5255 58.0369
-20.2464 -67.8393 41.9637
-48.0867 51.9592 -31.4886
-64.9997 -28.0556 68.1707
70.2494 8.7810 24.7643
69.2675 14.6322 10.3596
0.3690 -70.7951 34.6836
29.0823 64.5469 54.7218
66.1527 -25.2171 -67.0891
60.3465 37.0187 -58.7187
28.3558 -64.8694 63.9209
-10.4821 -70.0158 14.1901
-43.7061 -55.6943 45.8504
46.7810 -53.1377 -57.6241
60.9238 -36.0608 -58.6901
-64.3948 29.4175 69.4115
-17.5801 68.5786 3.5331
-68.0687 -19.4610 56.2998
70.7662 -2.0572 -11.7901
-10.6411 69.9918 39.4559
-25.5208 66.0361 25.5201
70.0557 -10.2118 -33.9782
70.7960 0.1249 -51.5195
25.7033 65.9653 -73.7797
-68.5730 17.6021 -16.4676
-4.9796 -70.6207 -36.4471
-40.8707 57.8072 -66.4748
-6.4274 -70.5037 6.9957
5.1400 -70.6092 58.8582
37.7059 59.9195 22.9206
-56.2376 -43.0048 -0.8762
-53.2825 -46.6160 -52.3920
70.6075 -5.1631 19.0085
-68.4694 -18.0009 39.1872
-68.9850 15.9107 71.8252
-35.2688 -61.3856 -22.9634
-70.7474 -2.6240 53.2681
-1.0796 70.7878 25.3847
-61.9867 34.2014 -69.8715
60.9611 35.9976 -7.9053
-4.9153 -70.6252 -51.9798
-44.3418 55.1896 68.4213
55.1393 -44.4043 -9.9104
-46.6661 53.2387 10.1531
-62.3195 -33.5911 22.9133
-52.1575 -47.8715 -65.1731
-18.7588 68.2656 70.1471
21.4314 67.4743 -8.0990
26.3786 -65.6982 41.8363
65.8467 -26.0056 22.9095
66.0070 -25.5961 22.2971
63.1991 31.9055 55.1290
44.0163 55.4495 -57.3005
-62.0480 34.0900 -11.6061
-66.8455 -23.3187 72.5520
-40.0786 -58.3592 -1.4137
11.0352 -69.9307 -25.9613
25.6446 -65.9882 -7.6905
12.9016 69.6106 -74.8044
-15.6219 69.0510 -63.3419
70.7819 -1.4167 49.0617
36.2416 60.8164 65.5148
-67.4325 -21.5624 -51.7106
68.7004 17.0978 12.7962
-70.2548 8.7373 60.2097
-62.6924 -32.8898 48.6883
-50.1150 50.0057 23.5868
66.8800 -23.2195 -24.2735
-53.5576 46.2997 9.6161
-66.8518 23.3006 44.5370
-69.9183 -11.1138 50.5352
54.3675 -45.3460 -12.1770
-36.4934 60.6656 44.0880
5.3551 -70.5932 -7.4450
14.8464 69.2219 -24.4774
8.6296 -70.2682 44.9662
-16.8487 -68.7619 -51.2557
-54.9651 44.6197 -3.2150
68.9681 -15.9838 -38.1577
53.8331 45.9791 -52.9418
-66.8954 23.1750 37.3494
-47.2106 52.7564 -9.7149
58.2846 -40.1869 43.2259
-67.3319 -21.8747 5.8861
70.0859 -10.0022 -9.6917
-63.9774 -30.3145 12.7152
27.7162 -65.1452 -35.5959
46.3816 -53.4867 -46.9112
-69.3660 -14.1579 67.8836
-70.7960 -0.0561 66.1036
41.8182 57.1255 34.8978
52.4064 47.5989 6.4453
-25.5999 -66.0055 -71.4282
-55.1112 -44.4392 -18.6223
-11.0061 69.9353 -20.5705
46.7335 53.1795 30.2698
68.3414 18.4807 60.9572
-24.4186 -66.4516 -67.2929
62.9718 32.3517 -13.8650
-16.5879 68.8253 74.4042
-68.8619 -16.4352 -73.8489
12.5664 -69.6719 24.4746
5.6686 -70.5688 -27.1423
-70.0641 10.1539 -26.9342
66.2951 -24.8403 -17.4803
32.6548 -62.8152 55.9559
70.7724 1.8295 -27.0029
-38.9134 59.1424 -12.7097
-14.4722 69.3011 19.1514
57.7550 40.9444 3.3848
68.8412 -16.5219 69.7135
30.0564 -64.0991 -46.1142
-67.3971 -21.6729 -36.2540
-55.9757 -43.3451 -61.9017
63.8218 30.6408 -64.3781
69.6860 -12.4877 71.7439
-26.4408 65.6732 -26.7729
-52.0094 48.0324 -49.7402
-40.8749 -57.8042 54.8444
56.5551 42.5864 43.8114
-65.8358 26.0332 33.3587
-52.3301 47.6827 8.7901
-64.3393 -29.5387 28.9603
62.3795 -33.4796 -74.8605
-38.6442 -59.3187 -14.5595
-36.6028 -60.5996 50.1598
18.1693 68.4249 43.1624
-30.1216 64.0685 39.6777
-70.7535 -2.4542 -56.2230
-67.7500 20.5430 -57.3936
35.7886 -61.0840 -55.0080
20.5688 67.7422 -56.7486
-70.1302 -9.6872 -60.8104
9.5974 -70.1425 -52.5341
65.3798 27.1581 -38.6594
-6.3666 -70.5092 -63.7537
-70.2982 8.3816 -71.2936
-5.6713 -70.5685 61.0733
-12.7375 -69.6408 73.9264
60.2122 -37.2367 -47.9736
6.6548 -70.4826 -3.9937
-63.2796 31.7454 5.3454
-48.6185 -51.4619 -42.6780
58.5047 -39.8658 33.3621
-55.7993 43.5720 -0.5431
-48.1405 -51.9093 43.8445
-40.7599 -57.8854 -28.6777
-34.0821 -62.0524 48.9363
62.0745 34.0417 55.5227
-45.3450 -54.3683 -32.8278
-46.0052 53.8108 67.1978
58.3255 40.1276 31.5022
9.9059 -70.0996 52.1269
-63.4425 31.4187 -45.8579
29.3973 -64.4041 -58.4030
3.6852 -11.9659 75.3275
49.1786 0.7466 75.3275
43.1888 -48.6240 75.3275
39.1367 38.2725 75.3275
-0.2785 -0.8339 75.3275
56.2879 24.1974 75.3275
62.4025 -30.8411 75.3275
-29.8437 -15.9082 75.3275
-11.9076 67.9036 75.3275
30.7620 7.2576 75.3275
-2.0142 -35.9132 75.3275
-52.3517 2.2015 75.3275
0.5138 -2.1484 75.3275
-13.4126 20.0023 75.3275
-4.2374 10.9287 75.3275
-0.0529 0.6294 75.3275
-17.7136 -9.9495 75.3275
-42.7738 -45.0234 75.3275
6.0526 -20.6397 75.3275
-37.3763 -49.5336 75.3275
10.5661 -6.9412 75.3275
60.2269 9.1531 75.3275
-7.8106 -15.0148 75.3275
6.6064 4.4825 75.3275
-52.3528 -39.7351 75.3275
-5.3467 -8.6592 75.3275
1.6977 14.4137 75.3275
37.5552 26.5758 75.3275
-45.7456 42.7506 75.3275
4.8347 17.0847 75.3275
12.1099 -68.2833 75.3275
-48.0414 -3.9455 75.3275
37.5250 49.3381 75.3275
40.8682 45.2525 75.3275
13.6574 45.1468 75.3275
12.7135 17.3008 75.3275
-2.9046 3.8993 75.3275
-0.2975 -2.4513 75.3275
-38.8446 -27.9072 75.3275
17.2496 0.5901 75.3275
-41.2987 20.3955 75.3275
-0.1888 -26.0802 75.3275
59.1920 13.0569 75.3275
-25.3293 -58.3804 75.3275
-0.4959 -28.1707 75.3275
49.4925 -7.4122 75.3275
1.8939 3.0109 75.3275
8.4752 -29.5110 75.3275
-22.4444 -7.3957 75.3275
21.0831 32.1540 75.3275
0.5812 4.4148 75.3275
-0.0991 -1.6154 75.3275
-35.5763 -48.3025 75.3275
6.6238 -52.7448 75.3275
31.3033 60.8858 75.3275
-7.9099 -10.2117 75.3275
-0.4398 -42.8104 75.3275
-6.6243 0.7093 75.3275
-48.9369 -50.3543 75.3275
2.3473 4.5802 75.3275
-3.9993 11.6722 75.3275
-63.9572 25.6021 75.3275
-7.7334 -44.6010 75.3275
-1.1589 3.7236 75.3275
-1.7771 -3.0425 75.3275
-18.0803 -13.5320 75.3275
18.2769 44.4562 75.3275
-21.0467 24.5751 75.3275
-57.9257 25.5410 75.3275
32.7048 -20.4518 75.3275
4.5918 49.3519 75.3275
34.6937 -4.7208 75.3275
-8.7423 -24.3954 75.3275
-0.4636 1.5945 75.3275
-5.2586 -6.0268 75.3275
1.7588 -28.6810 75.3275
4.7862 -8.4393 75.3275
-11.0409 26.3585 75.3275
22.0172 38.7430 75.3275
53.5135 23.2410 75.3275
5.4470 -39.1029 75.3275
7.8737 21.8839 75.3275
20.1366 -20.3192 75.3275
-0.0595 3.1843 75.3275
-50.0716 40.1404 75.3275
-50.1439 40.6104 75.3275
26.1558 -45.6864 75.3275
-15.4415 -10.9844 75.3275
26.0361 -23.1554 75.3275
-1.6771 -1.6727 75.3275
-54.4724 37.6823 75.3275
42.3359 23.9851 75.3275
45.4728 51.6747 75.3275
-65.5620 1.4340 75.3275
15.6327 -9.0858 75.3275
36.2431 29.0598 75.3275
-42.8583 55.4245 75.3275
-4.0348 -0.1563 75.3275
-28.0638 -10.0334 75.3275
33.1010 4.9775 75.3275
-9.0311 -15.1196 75.3275
-21.1332 6.8180 75.3275
-18.0303 57.5514 75.3275
-7.3366 5.2602 75.3275
1.2202 -38.7291 75.3275
27.5376 -34.2290 75.3275
-33.3288 -36.9933 75.3275
-1.8020 3.5398 75.3275
-49.5033 5.7605 75.3275
-15.9832 -43.9480 75.3275
2.9930 -0.7542 75.3275
58.4249 -20.9510 75.3275
-2.0347 -22.4033 75.3275
3.3957 13.9594 75.3275
-1.6072 -0.0921 75.3275
3.4866 -9.0969 75.3275
-62.8403 23.7793 75.3275
-6.1005 23.2149 75.3275
-0.2433 0.0523 75.3275
30.6008 29.3872 75.3275
17.5386 2.5105 75.3275
31.1314 -29.3762 75.3275
6.2283 -12.0969 75.3275
-1.5466 -50.5405 75.3275
8.3052 0.0437 75.3275
10.7951 -20.7277 75.3275
65.2840 17.1276 75.3275
-61.2861 5.5540 75.3275
-10.5114 4.9871 75.3275
-20.8355 -20.3688 75.3275
54.0293 -36.9653 75.3275
62.5774 -7.0508 75.3275
9.5128 -34.4721 75.3275
7.5102 -10.3465 75.3275
20.2707 -62.5428 75.3275
-34.2745 -32.3959 75.3275
-0.6776 -0.0490 75.3275
-37.1372 10.4804 75.3275
9.5675 -32.6270 75.3275
70.6724 3.3105 75.3275
32.6593 12.1853 75.3275
-5.3537 16.3565 75.3275
24.0316 -15.4815 75.3275
4.1472 14.2484 75.3275
2.1080 -3.5486 75.3275
29.0137 -9.9967 75.3275
20.6912 -6.2501 75.3275
-5.1328 -4.7294 75.3275
57.1215 7.6527 75.3275
-24.9367 -10.2860 75.3275
-17.6335 -8.4142 75.3275
13.6110 -9.2841 75.3275
-55.5755 -13.0619 75.3275
3.3289 11.4829 75.3275
66.2111 -6.4961 -75.3275
-1.2426 -62.1618 -75.3275
3.6277 66.5085 -75.3275
-46.7250 -3.7126 -75.3275
42.7532 3.2268 -75.3275
-3.2831 -25.8858 -75.3275
-20.4227 -6.4036 -75.3275
22.5721 -36.0369 -75.3275
30.8821 -19.4808 -75.3275
11.5986 42.6676 -75.3275
-0.5521 0.0094 -75.3275
-37.0874 51.6365 -75.3275
-56.6755 23.3452 -75.3275
1.0731 24.1002 -75.3275
17.6125 -22.1014 -75.3275
21.7372 -13.8900 -75.3275
-60.3547 27.8852 -75.3275
-61.3435 3.4344 -75.3275
40.3910 27.0183 -75.3275
28.1530 -1.8963 -75.3275
-6.8546 0.6611 -75.3275
-8.8898 7.4511 -75.3275
-37.5167 -39.4086 -75.3275
-53.4685 22.9380 -75.3275
18.5882 17.8187 -75.3275
-16.8471 0.5469 -75.3275
5.7808 63.3617 -75.3275
22.7181 -15.6261 -75.3275
-13.6767 22.0538 -75.3275
13.2346 21.7827 -75.3275
-22.9809 36.5070 -75.3275
-47.4120 -3.3253 -75.3275
1.6778 -11.9554 -75.3275
-2.3514 -2.7382 -75.3275
45.1195 -27.6471 -75.3275
-0.4538 -1.9630 -75.3275
20.0277 10.6875 -75.3275
-5.5594 -2.6931 -75.3275
-66.7374 -22.9525 -75.3275
-57.9838 34.8052 -75.3275
-38.0164 53.1164 -75.3275
-2.2825 41.5960 -75.3275
37.2755 35.5159 -75.3275
-15.3127 -34.5173 -75.3275
-6.0712 69.0987 -75.3275
2.0545 21.0801 -75.3275
-11.3359 -29.0630 -75.3275
11.9662 -45.3268 -75.3275
-32.2416 -42.5065 -75.3275
-52.6503 40.7040 -75.3275
53.1099 -43.5354 -75.3275
-8.0740 -37.8163 -75.3275
-22.4314 -4.2450 -75.3275
26.5167 -41.8675 -75.3275
9.0357 -19.9760 -75.3275
59.4841 -23.0505 -75.3275
-23.3776 -42.8299 -75.3275
0.1181 0.6400 -75.3275
-8.5797 25.4857 -75.3275
-30.3259 4.0473 -75.3275
-6.8265 14.0553 -75.3275
-3.8314 9.6903 -75.3275
18.2695 -23.3712 -75.3275
-11.8811 10.3018 -75.3275
9.8116 46.2152 -75.3275
-58.0621 -23.3378 -75.3275
9.4874 -29.6461 -75.3275
-29.8764 2.7213 -75.3275
-5.3585 -12.3969 -75.3275
-6.8028 41.3755 -75.3275
10.6068 3.3111 -75.3275
45.5525 41.3222 -75.3275
-6.5670 3.7961 -75.3275
-15.3642 -0.6123 -75.3275
-17.4281 1.8147 -75.3275
0.3631 -0.9932 -75.3275
5.2775 0.7334 -75.3275
-4.6695 22.5536 -75.3275
22.0910 28.7324 -75.3275
48.4222 30.1113 -75.3275
22.1726 1.2698 -75.3275
13.1452 5.8509 -75.3275
-15.6666 64.3371 -75.3275
-17.0727 10.4675 -75.3275
-0.8989 0.4202 -75.3275
16.9767 36.0986 -75.3275
7.6686 -13.0631 -75.3275
-8.4639 8.1065 -75.3275
58.0814 -4.6112 -75.3275
7.9067 4.9755 -75.3275
-29.1710 -9.8334 -75.3275
6.0155 -4.5944 -75.3275
-29.2060 -62.1956 -75.3275
-18.1868 -11.1496 -75.3275
20.1491 -30.8097 -75.3275
-10.4307 -8.0569 -75.3275
-8.6528 2.0670 -75.3275
-36.2814 -0.1608 -75.3275
51.1825 35.7943 -75.3275
10.1930 -0.1664 -75.3275
-0.5101 62.7940 -75.3275
6.5674 24.8873 -75.3275
3.8795 12.2949 -75.3275
-16.3920 -24.7971 -75.3275
-3.1390 21.8243 -75.3275
-16.1709 65.4347 -75.3275
-8.5716 39.0306 -75.3275
7.4541 -28.8988 -75.3275
23.3062 -30.4482 -75.3275
22.3888 9.8315 -75.3275
32.3655 -41.0739 -75.3275
-45.2526 38.2827 -75.3275
39.5480 35.3839 -75.3275
13.4984 65.2489 -75.3275
-28.2023 16.6408 -75.3275
1.1930 11.8622 -75.3275
-3.8949 -25.1778 -75.3275
9.6339 -12.7355 -75.3275
28.0893 32.6255 -75.3275
-27.1526 22.8271 -75.3275
-53.9425 -41.9432 -75.3275
-0.6800 -6.7291 -75.3275
-38.3957 0.3657 -75.3275
2.7688 51.0823 -75.3275
-28.6621 7.2625 -75.3275
-29.3214 -33.2386 -75.3275
16.4614 22.6892 -75.3275
0.5556 -0.5818 -75.3275
-51.0122 -9.2879 -75.3275
-3.2071 10.0116 -75.3275
13.1850 17.6020 -75.3275
-34.9142 -41.2296 -75.3275
38.3057 -41.4620 -75.3275
-4.5872 -0.7344 -75.3275
-8.9617 -15.6295 -75.3275
-11.3008 13.1773 -75.3275
23.4428 51.3798 -75.3275
21.3742 -54.9488 -75.3275
-20.6607 -40.0620 -75.3275
45.9633 -33.2732 -75.3275
-43.4097 -2.9294 -75.3275
50.2979 2.7114 -75.3275
13.3089 37.0417 -75.3275
49.0760 -17.8650 -75.3275
59.9151 30.5048 -75.3275
12.4209 6.1264 -75.3275
27.4115 12.6624 -75.3275
51.2733 4.6159 -75.3275
-32.5972 15.3180 -75.3275
33.6712 1.8190 -75.3275
1.3558 -2.8218 -75.3275
-24.0384 59.6478 -75.3275
37.9869 18.8651 -75.3275
-0.0169 0.0064 -75.3275
