ply
format ascii 1.0
element vertex 1024
property float x
property float y
property float z
end_header
-54.5449 9.8964 -35.5007
-52.1875 -18.6965 5.2221
-11.5192 -54.2254 1.8645
9.9445 -54.5362 -23.2680
34.6757 -43.2514 42.6313
-55.4277 -0.9250 -25.6809
-47.2426 -29.0038 -7.6339
0.6243 55.4319 14.9193
-34.0869 43.7169 -19.3484
48.3548 -27.1091 3.5763
32.3912 -44.9878 -36.9580
54.6115 9.5224 -12.0974
-50.2643 23.3792 16.0847
50.7636 -22.2743 -33.3270
54.9625 7.2262 -39.5758
51.0869 21.5225 40.1680
48.7717 26.3516 8.3011
-17.6007 52.5671 -32.4394
38.5635 39.8240 -9.5746
-33.6768 44.0336 -16.9327
-55.1331 -5.7819 33.7867
-51.7109 19.9768 -31.2120
-53.0812 -15.9838 -40.2059
51.2224 -21.1979 23.4402
33.3954 44.2474 41.4656
-20.4159 -51.5391 -34.8011
54.6084 -9.5401 -30.9540
-11.4724 -54.2354 24.7328
46.8599 29.6182 -7.1226
-55.2589 -4.4213 -33.1686
-49.2575 25.4320 -16.0185
-1.6723 55.4102 36.6482
-54.6485 9.3075 -2.9059
-3.8333 -55.3028 9.2766
2.9624 55.3562 39.9840
23.0222 50.4288 35.4358
35.9165 -42.2268 24.7567
-45.5465 -31.6008 15.3879
-32.8575 44.6483 -3.5953
45.9190 -31.0570 15.1105
22.7109 -50.5698 18.8537
47.3391 -28.8461 -23.3815
43.3684 -34.5293 -33.9891
-14.0754 -53.6188 -40.2909
-55.3463 -3.1428 -10.3097
48.9308 -26.0550 35.5868
-33.1765 44.4118 -27.1463
-47.8935 27.9159 18.7661
-2.5626 55.3762 25.9528
-1.5437 -55.4140 -30.1396
-53.2377 -15.4544 29.8329
-12.3794 54.0356 26.8260
-42.5060 35.5855 -21.6025
-49.2021 -25.5391 -31.8206
44.2985 -33.3277 12.4398
-35.2975 42.7455 -2.4568
44.6527 32.8516 31.5748
51.2875 -21.0400 28.8843
16.2119 53.0119 -35.2304
-54.2718 -11.2986 3.2629
47.8046 -28.0680 24.2979
-21.3561 -51.1567 -2.4113
54.1280 -11.9686 -41.2320
-53.6667 13.8917 -17.1524
-53.3555 15.0427 -0.9909
52.0526 19.0686 31.4732
23.0773 -50.4036 35.2505
53.6329 -14.0213 11.6117
-21.1898 -51.2258 -13.3627
-1.2870 55.4205 -22.2445
54.7929 -8.4160 32.4746
-51.3495 20.8882 32.0899
-45.2397 -32.0384 4.2075
23.6937 -50.1168 -36.9026
11.3644 -54.2581 -0.9352
4.9371 55.2152 -7.1092
-20.0599 51.6787 -22.6853
5.4130 55.1706 19.5871
-10.1735 54.4940 3.6951
54.7960 -8.3960 -20.1928
-40.5479 37.8016 -26.9631
7.7922 54.8851 -14.0482
31.4547 -45.6475 15.9616
-22.6015 50.6188 4.4558
26.3172 48.7903 17.0576
-52.6152 -17.4565 5.9797
-52.0704 19.0200 5.1159
-46.3084 30.4733 6.9464
45.8542 31.1526 -19.7070
37.4449 -40.8775 21.2399
50.2879 23.3285 41.0457
54.6842 -9.0953 9.6165
39.8552 38.5312 -24.8682
-0.5142 55.4331 -31.9890
42.4480 35.6547 23.3771
-46.7388 -29.8089 42.4121
-44.0861 -33.6081 12.4913
-6.9866 54.9934 14.7520
-12.6814 -53.9655 21.6861
-52.3956 -18.1049 23.2254
3.8723 -55.3000 -22.8458
16.5733 -52.9000 -39.6592
-11.8023 54.1645 -18.8148
-46.1640 30.6917 -4.4228
-54.3681 -10.8259 14.4180
-36.5070 41.7173 -29.4589
51.3482 20.8914 19.0039
-17.6064 52.5652 31.1188
54.4143 -10.5912 -35.2865
-41.3818 -36.8868 -18.5144
-53.9932 12.5630 21.9508
53.3961 -14.8978 3.8013
-49.7723 24.4093 -42.3341
33.8153 43.9274 -7.7883
-41.4019 36.8643 4.6994
44.3458 -33.2646 39.7611
33.7679 43.9639 31.3741
55.3235 -3.5207 -7.0003
-51.7662 -19.8331 -26.2969
-39.0134 39.3833 9.1959
28.1289 -47.7688 -28.5931
18.2554 52.3434 -31.8170
-27.8572 -47.9277 0.6839
50.3424 -23.2105 5.0898
-55.4352 -0.1642 13.9359
37.1857 -41.1134 6.3081
37.7111 -40.6321 39.5990
-48.9607 -25.9988 -17.3811
-12.7692 53.9448 -12.6382
-24.1259 49.9102 -26.8977
-40.8748 -37.4478 -0.3092
44.7591 32.7065 -9.2819
22.8031 50.5283 -38.6085
-18.4592 -52.2719 14.3083
-35.7928 -42.3316 9.8702
48.3544 -27.1098 27.7764
55.1697 5.4220 2.2493
-36.1107 42.0607 34.5641
-2.1073 55.3954 22.1755
-28.0214 47.8319 7.3104
55.2206 4.8759 -29.1933
54.9422 -7.3786 37.8403
-49.4399 25.0757 -18.7271
-14.9633 -53.3778 -23.8033
50.5416 -22.7737 -29.4379
46.1432 30.7229 -29.0685
-27.8987 -47.9036 -12.5698
-38.3620 40.0181 -24.9082
50.1985 -23.5202 -33.3278
39.2087 39.1889 -3.9412
-50.5206 22.8202 5.4819
47.5182 -28.5502 -0.5272
43.2215 -34.7130 29.2266
29.9844 46.6265 41.1586
47.6597 -28.3134 -2.8270
-55.1063 6.0321 -11.1694
23.7772 50.0773 -20.0864
45.3707 31.8527 20.6846
19.4704 51.9037 -15.2873
52.9432 -16.4350 -10.5046
-46.4459 -30.2633 35.7966
51.7399 -19.9015 23.4936
-31.8971 -45.3394 32.4095
51.7669 19.8313 -4.5336
8.5052 -54.7791 -35.5569
-53.7009 13.7587 19.2143
7.4167 -54.9371 -35.0060
23.2734 -50.3134 28.0724
-13.0760 53.8712 -14.3756
24.4054 49.7741 -1.7924
0.6264 -55.4319 -18.9698
-33.8523 43.8989 12.8119
50.0652 23.8027 30.2324
-20.4132 51.5402 -37.5811
43.8745 -33.8839 -3.4712
17.2973 -52.6678 11.3396
49.2366 25.4726 18.6206
-45.8667 31.1341 -27.0570
42.0756 -36.0934 20.0808
35.0986 -42.9089 34.3961
53.7853 13.4249 21.3995
25.7550 49.0894 38.1547
26.6187 -48.6265 -3.7885
35.5775 -42.5128 34.7421
4.0819 -55.2850 37.7566
-44.6994 32.7881 31.6028
41.2723 -37.0093 15.0367
-17.8424 52.4856 32.2686
-55.3132 -3.6793 -38.3050
-55.2379 4.6760 -1.9951
-31.3895 45.6923 35.3080
7.5472 54.9193 8.2155
-54.6041 9.5645 32.5615
52.4089 -18.0664 -13.7654
-55.1387 -5.7288 -34.6634
-11.0936 54.3141 -17.5108
-50.6471 22.5381 -39.8207
-36.1447 -42.0316 -34.7740
-29.2256 -47.1058 -14.4381
8.6469 54.7569 28.8074
29.6977 -46.8096 4.2899
33.9458 43.8266 1.5137
14.4322 -53.5238 -33.7799
54.1601 11.8224 -13.5147
-29.7524 -46.7748 17.0450
54.1813 11.7249 -15.4081
-31.3912 -45.6912 4.7280
-55.1563 5.5562 32.3508
-3.5563 55.3213 30.3962
14.0999 53.6123 2.9482
49.9094 24.1275 2.5314
-45.7937 31.2415 25.2049
53.6959 -13.7783 39.6620
-24.9960 49.4802 -38.7536
-47.8892 -27.9233 -36.1955
55.3517 3.0463 19.1580
33.7965 -43.9419 31.9038
-45.2045 32.0880 23.9753
53.4618 -14.6602 -17.4433
-55.4020 -1.9247 12.8113
39.8907 -38.4945 -41.7091
42.7400 35.3042 16.2682
-4.0090 -55.2903 31.1324
54.1778 -11.7413 -20.9431
48.6077 26.6530 -4.0496
31.5124 -45.6077 23.6613
26.4591 -48.7135 29.8094
-47.2396 29.0087 -33.8265
47.0021 -29.3921 24.9778
-49.6806 -24.5952 -21.1844
54.9573 -7.2650 -2.4265
36.7482 -41.5049 17.3686
-52.9281 16.4835 35.8931
-40.2010 -38.1703 -0.5450
40.4755 37.8790 -10.6079
-34.9023 -43.0688 8.1088
5.7621 55.1352 -3.8568
-39.1988 -39.1987 6.5791
48.6103 26.6483 -15.5388
-5.9418 -55.1161 -37.0694
14.9253 -53.3884 -22.9811
54.4769 -10.2643 7.0214
-43.7840 34.0008 -13.8092
-42.6238 35.4443 0.6571
32.4731 -44.9287 24.9269
-10.0568 -54.5156 3.1832
32.9421 -44.5859 0.2698
47.9516 27.8160 -6.2908
50.2135 -23.4883 -5.5142
-51.6053 20.2480 -18.9082
-43.0049 34.9810 28.0466
-11.3335 54.2645 -13.9994
-52.2102 -18.6329 -20.7310
49.4089 -25.1367 22.7155
30.5667 46.2468 -0.9041
-55.4354 0.0801 36.4297
26.8983 48.4724 -16.8537
-53.9068 -12.9284 39.4767
12.2799 54.0583 14.6112
-26.7294 -48.5657 -36.7423
-28.8449 -47.3399 -26.1832
40.9316 -37.3858 15.9262
-8.4998 -54.7799 14.2272
-27.0524 48.3865 16.5108
22.8700 -50.4981 -26.1430
15.2657 53.2921 17.2159
40.8670 -37.4564 -21.8065
-9.2491 54.6584 25.2868
40.3958 37.9640 -9.6092
34.1738 43.6491 -37.8280
-49.1090 -25.7177 -7.7939
-50.6318 -22.5724 0.0722
-21.6171 51.0469 -24.2082
50.2823 23.3406 7.2093
-1.3655 -55.4186 -15.7472
-30.4680 -46.3119 25.7781
53.5505 14.3331 -11.8500
-16.4995 -52.9231 -13.8507
-5.8437 -55.1266 4.7809
46.6962 29.8757 -10.8954
-42.3579 -35.7617 8.7756
22.0994 50.8400 -7.0939
-49.1670 -25.6066 -15.7856
-41.1791 -37.1130 -21.9540
21.6897 51.0162 28.1756
-39.6508 -38.7416 -2.8782
-11.7945 -54.1662 34.3104
54.7063 -8.9614 12.4718
-54.0179 12.4564 15.4021
-37.2184 41.0838 9.0084
43.8812 -33.8752 -21.9961
55.4022 1.9186 -0.0137
-19.8624 51.7550 -4.8802
54.2628 -11.3417 -34.2634
32.9109 -44.6090 -27.5259
-30.3823 46.3681 -18.1919
8.6538 -54.7558 -10.0698
-33.2866 -44.3294 -34.4625
11.0578 54.3214 23.9267
-25.3602 -49.2945 -22.4130
-53.9321 -12.8226 29.6649
-55.4110 1.6449 19.4746
-55.2653 -4.3401 -26.5021
-55.3568 2.9514 25.7926
-7.6388 -54.9066 -20.7956
-55.4282 -0.8983 15.0361
38.2576 -40.1179 -32.7127
-54.6795 -9.1238 -29.2166
22.7842 -50.5368 22.3741
22.1110 50.8349 -17.7987
-47.6204 -28.3793 -9.8796
3.5203 55.3236 16.3116
38.2712 -40.1049 -17.6205
-2.1295 -55.3945 7.5562
-19.5693 -51.8665 -5.4682
35.9203 -42.2235 -13.5800
54.3064 11.1312 20.8594
-7.3316 -54.9485 37.6435
23.8559 -50.0398 32.5907
-34.7465 -43.1946 24.5376
-49.5584 -24.8406 -40.5443
44.7244 32.7540 -0.6056
53.8458 13.1804 -33.3679
-44.0837 -33.6113 4.7062
-53.8095 13.3275 26.4306
21.3790 51.1471 -9.9350
-48.9073 26.0992 -7.2940
-15.1913 -53.3134 42.0146
41.6537 36.5795 5.0781
-0.8886 -55.4283 -13.4644
24.2940 49.8286 -32.1560
-55.0849 -6.2247 -11.7992
-37.4859 40.8399 -35.0353
35.3025 42.7414 26.4916
36.3730 41.8341 15.1496
51.1442 21.3860 -9.2313
-44.4997 33.0585 41.2893
21.8433 50.9505 -14.8910
17.5951 -52.5690 -15.5136
52.3092 18.3532 31.9517
28.7771 -47.3811 32.2766
-21.4302 -51.1257 -1.5701
-47.5348 -28.5226 20.5205
16.1031 53.0451 -24.2776
-47.9115 27.8852 3.6287
35.3477 -42.7040 5.7456
41.2026 37.0868 -14.5066
18.5721 -52.2319 -6.9895
-46.9224 -29.5192 5.7422
-53.3712 14.9869 -13.9625
-32.1672 45.1482 -19.3567
52.3280 -18.2994 -12.0083
54.4709 10.2960 -29.3464
17.9583 52.4461 25.1766
-54.5477 9.8812 -13.4531
0.9756 55.4269 40.0480
2.8406 -55.3626 28.7461
33.5859 44.1030 27.4784
7.1340 54.9745 17.9313
-20.9977 51.3048 16.1377
-21.1134 51.2573 -19.6885
13.6001 -53.7413 -24.2778
-53.0479 -16.0938 38.4430
34.7487 43.1928 -25.1534
-51.7503 19.8744 -7.2672
-9.0700 -54.6884 33.6750
-55.3772 -2.5416 40.8333
-41.8059 -36.4055 -18.2891
-4.4484 55.2567 38.6714
16.6146 52.8871 26.3906
-39.2461 39.1514 38.4623
-33.1720 -44.4152 41.9557
41.0076 -37.3023 34.0770
53.9851 -12.5974 -30.8579
-15.7362 53.1551 20.2638
-47.1487 29.1563 -10.0888
23.1113 -50.3881 -4.7894
-39.5607 -38.8335 25.8817
-43.2110 -34.7261 -41.9121
-44.3182 -33.3015 -14.5127
54.5608 -9.8087 39.1546
4.8078 55.2266 -0.7289
52.3713 -18.1752 -10.6675
-55.2885 -4.0345 2.9709
-3.6379 -55.3160 -41.8520
-40.2796 -38.0873 11.1626
-55.4027 1.9052 21.0276
-34.7983 43.1528 33.5009
-53.7626 -13.5158 -34.9374
-20.0362 51.6879 -18.5878
40.1848 -38.1873 -4.1553
-53.2086 15.5544 -38.8294
-3.3871 -55.3319 -22.8595
36.7839 41.4733 -39.9220
3.0272 55.3527 -30.2530
31.9856 -45.2771 -9.1502
-53.6357 -14.0107 -1.6023
-54.2683 -11.3157 -4.7112
35.5441 -42.5406 -36.4900
-55.1121 5.9791 1.3040
51.1032 21.4838 24.9777
-49.0861 -25.7613 -41.6973
39.2976 -39.0997 -11.8416
-1.1148 55.4242 -14.3326
31.6315 45.5251 0.6029
-43.8045 33.9744 -39.6437
20.9950 -51.3060 38.2147
-53.2650 15.3601 -13.0801
-44.7818 32.6754 -14.8014
-36.4204 -41.7928 8.0331
-38.0557 40.3094 27.8030
-5.3028 -55.1813 4.8242
-11.0294 -54.3272 9.0479
47.6594 28.3138 -10.8165
41.0615 37.2431 -3.6144
-54.0489 12.3209 -18.3771
-6.1348 55.0950 -36.0409
25.8944 49.0160 -40.3239
-24.1607 49.8934 -13.7620
-20.6273 -51.4549 -29.9426
-54.7275 -8.8311 9.2505
12.9903 53.8919 -29.4653
42.2768 35.8575 11.9892
29.2136 47.1132 -29.2099
-32.9454 44.5835 -21.4658
31.6512 45.5114 37.9109
50.6455 22.5415 19.9686
12.4483 54.0197 23.8507
-26.2189 -48.8432 -29.9117
54.7558 8.6543 39.0924
-42.4106 35.6992 -18.9355
49.3902 25.1734 16.9820
-5.2237 -55.1888 40.0254
47.7481 -28.1640 -40.1152
-10.4086 -54.4495 26.9552
-17.2922 -52.6694 -16.4303
-3.0133 55.3535 21.6275
28.5008 47.5478 32.3953
55.1897 -5.2146 40.9195
-54.1278 -11.9696 -30.5146
-27.9324 -47.8839 -32.7707
-10.0557 54.5158 2.4959
54.3905 -10.7127 40.1781
-29.3239 -47.0447 -18.8062
-14.8388 -53.4125 41.7620
-6.3278 -55.0731 -13.9082
34.9257 -43.0498 -5.5639
14.4852 53.5095 2.2037
52.5870 17.5412 41.4336
51.8756 19.5450 40.6514
-48.7717 26.3517 -27.0611
-48.0942 27.5688 -20.4431
-0.1661 55.4352 38.9330
-41.2066 37.0824 -1.0330
30.2348 -46.4645 -12.9720
-35.7215 42.3918 -30.9148
36.4907 -41.7315 24.1555
-5.8291 -55.1281 29.5366
-54.0414 12.3540 -6.8765
-55.3395 -3.2605 36.5163
53.2327 15.4716 32.5037
-30.2042 -46.4844 11.0877
-47.3126 28.8896 -17.8732
1.4867 -55.4155 -40.7682
28.2377 -47.7045 -12.6374
54.0605 -12.2701 -2.6069
-20.2130 -51.6190 -37.0398
-20.0457 51.6842 15.9072
36.0164 42.1415 -11.7799
-48.8290 26.2454 12.7905
-17.7868 52.5045 -34.7256
51.5925 -20.2805 -10.1188
-24.7966 49.5804 4.2819
41.9297 36.2628 20.9769
-22.2326 50.7819 -37.4011
15.9127 53.1025 -7.0998
-52.0097 19.1853 -35.1792
55.2758 4.2038 -26.6487
-42.5921 35.4824 -23.8676
2.0562 55.3973 -40.3903
-55.0212 6.7643 26.7893
54.9581 -7.2592 23.4631
-12.4187 54.0265 28.5448
-36.2421 -41.9476 -19.4647
-52.3439 -18.2540 -25.5893
55.0858 -6.2165 19.8928
54.3335 10.9984 -13.9586
-9.6666 -54.5861 13.1831
-47.4769 -28.6187 26.8856
-43.2365 34.6943 -9.0772
-0.1289 -55.4353 -16.4194
22.4182 50.7002 -21.4060
54.4553 10.3786 10.2720
33.6656 -44.0422 25.4844
-10.4270 54.4460 -4.5041
-0.4689 55.4335 11.6619
-54.6860 -9.0847 -10.1127
-40.3569 38.0054 -33.3101
45.5547 31.5889 3.9073
0.7707 -55.4301 42.7657
47.4901 28.5968 -6.3906
26.2037 -48.8514 33.3950
54.9418 -7.3813 20.5783
20.3338 -51.5716 24.7320
31.1102 -45.8829 -10.8620
37.0712 -41.2167 -17.6104
-54.5803 -9.6998 -18.1614
-14.4008 -53.5323 39.8794
-7.4575 54.9316 -18.4159
52.2164 -18.6154 24.9291
-43.4171 34.4680 -18.5900
12.1843 -54.0799 -20.0355
-28.7236 -47.4135 -22.8270
-50.6277 22.5814 17.8767
-49.8494 24.2514 34.9930
55.4322 0.5982 -35.0731
0.1439 -55.4353 41.4914
-0.9093 -55.4280 30.5586
-5.0253 -55.2072 7.2803
-55.1740 -5.3778 8.2781
-53.2350 -15.4636 -33.0324
55.2801 -4.1472 -35.6458
44.5242 -33.0255 -30.2678
-15.3954 -53.2548 29.2774
44.6118 -32.9071 14.6003
-4.2770 55.2702 -37.1774
-30.0350 -46.5939 -19.6519
29.6455 46.8427 10.0335
-52.3564 -18.2182 -29.9939
-3.6504 -55.3151 15.0665
51.6852 20.0432 -28.2910
-55.1338 5.7755 23.3365
-45.5487 31.5976 -16.1200
1.9272 -55.4019 30.8848
-49.2105 25.5229 -42.5837
-53.3678 14.9991 -12.1503
55.2206 -4.8760 -26.6229
-54.8580 -7.9808 1.8325
51.1093 21.4693 -7.8244
-36.4506 -41.7665 -16.8467
-12.5178 -54.0037 -19.4555
-42.9675 -35.0270 7.3941
-13.1642 53.8497 -12.5550
-50.0430 -23.8492 -29.1920
-44.4691 33.0997 8.5207
6.7319 55.0252 33.4278
-51.9052 19.4664 27.1509
33.1594 -44.4246 41.2895
-23.3066 50.2981 20.9889
-35.4711 42.6016 19.2390
48.7181 -26.4506 8.7831
-7.8425 54.8779 20.2988
37.7235 -40.6205 22.0090
53.7736 13.4718 -2.1646
-48.5144 -26.8224 -41.2787
-55.0305 -6.6883 31.1322
-52.1597 -18.7738 -35.5336
48.1307 27.5051 25.8354
-54.4661 10.3215 18.8967
42.6088 35.4624 36.4072
47.8829 27.9341 41.0938
-37.4113 40.9083 -29.0818
-1.6061 55.4122 21.1302
-12.1184 -54.0947 -34.4626
-38.4535 -39.9302 -15.6116
-32.1254 -45.1779 -10.0568
-54.8771 7.8481 -29.5692
-1.6255 -55.4116 20.2488
51.0447 -21.6224 17.5198
-20.4804 -51.5135 10.1946
8.0189 -54.8524 36.8515
-39.7883 38.6003 3.6246
7.0321 -54.9876 -1.8525
6.3637 55.0690 12.0822
-9.6072 54.5966 7.1940
55.0868 -6.2074 -11.0592
-1.5914 55.4126 -31.2571
-22.2768 50.7625 -24.2751
-16.2538 -52.9991 14.2090
26.5977 48.6380 -13.4338
-16.2828 -52.9902 8.4583
52.9037 16.5615 -15.0836
-54.9374 7.4142 28.8934
12.1682 -54.0835 2.6109
51.3658 -20.8481 -26.4173
11.8298 -54.1585 -3.0132
30.6208 46.2110 -15.7750
-54.6575 9.2545 3.1565
-30.4827 -46.3022 -18.3326
35.2118 -42.8161 -15.9123
38.2436 -40.1313 10.8658
-26.8252 -48.5129 -17.0262
-43.7837 -34.0012 31.8934
-37.9426 -40.4160 -24.5166
-0.7176 55.4308 33.6910
-15.5348 -53.2143 34.8535
-52.9929 -16.2741 7.3916
-37.5308 40.7987 -4.9425
-22.7840 50.5369 19.9770
-2.4809 55.3799 -11.5739
-39.4610 -38.9348 -35.1311
-2.1079 55.3954 6.6999
-9.2834 54.6526 -5.1645
-46.8757 29.5931 -28.8851
-2.2438 -55.3900 18.3484
25.2420 49.3551 -37.0755
-19.8511 -51.7593 27.5638
38.3540 40.0257 -18.9717
-48.7946 -26.3093 -14.9001
55.4158 -1.4775 -2.6472
-55.2966 3.9208 12.7519
-21.0313 51.2911 5.6842
30.5486 46.2588 -29.4179
0.1221 55.4353 -38.5234
18.8657 52.1265 -14.2125
-54.8479 8.0499 13.4304
32.3554 45.0135 -13.0625
-41.3752 -36.8942 6.5412
-3.0215 55.3531 -35.1200
27.3058 48.2440 40.7916
14.6437 -53.4664 40.2385
-9.3365 54.6436 -27.8221
-47.6872 -28.2669 -21.9072
-4.8373 55.2240 29.6845
31.6687 45.4992 30.4832
-52.3610 -18.2048 -8.4361
-27.4849 -48.1422 -19.7279
-41.7194 36.5046 35.3551
23.3822 -50.2629 -10.8178
55.0637 -6.4090 -9.8950
45.8301 -31.1880 18.3912
42.1247 -36.0361 25.5122
-32.4699 -44.9310 42.7565
35.5212 42.5597 -34.8766
-12.6124 -53.9816 13.4011
53.6613 13.9125 37.4088
-20.1230 51.6542 -40.0431
-9.1663 -54.6724 36.1732
-49.4377 -25.0799 -26.5231
50.3434 23.2085 5.1344
33.8868 -43.8722 -9.3147
-22.0687 -50.8534 6.8042
-9.4702 -54.6206 39.4275
55.4354 -0.0427 2.4164
-31.9758 -45.2840 -41.7850
55.3136 -3.6730 -27.2435
48.1211 27.5218 -36.4483
44.7874 -32.6677 15.4820
38.5904 39.7978 -27.7468
-36.9684 -41.3090 29.7496
-54.0268 12.4175 19.7825
53.5965 14.1599 42.2139
-1.6192 55.4118 -14.5367
0.9620 55.4271 10.9806
-42.1306 -36.0292 -0.5295
-19.3086 -51.9641 16.5406
25.3330 -49.3085 -40.6232
-5.4695 55.1650 -7.9032
-36.3301 -41.8714 -18.3861
55.1241 -5.8670 9.1285
-55.4097 1.6888 -26.9299
36.2307 41.9574 4.6844
54.5598 9.8142 30.9097
-52.3960 -18.1039 -16.1816
32.5338 -44.8848 29.5612
54.8056 -8.3326 16.3327
-37.6050 -40.7303 -24.7172
47.0999 29.2351 13.3888
-53.9263 12.8472 6.4382
25.3854 -49.2816 3.2122
-40.4372 -37.9200 28.6216
12.9924 -53.8915 7.4343
53.1751 -15.6683 -36.7482
39.2760 39.1214 -39.3475
45.2041 32.0886 36.7560
-19.1903 52.0079 -22.1875
15.2806 53.2878 -7.9437
49.3763 -25.2007 41.7108
41.1468 -37.1488 -2.7115
-48.3454 -27.1258 14.2735
-49.2852 25.3783 -19.1025
19.6731 -51.8272 -35.7597
42.3727 35.7441 38.5068
24.6937 49.6317 19.4317
14.9537 53.3805 -40.7957
48.1093 27.5425 -27.8377
40.2633 -38.1045 -2.2867
33.3927 -44.2495 40.0419
33.3163 44.3071 16.6367
-52.2973 18.3869 29.3753
-55.0571 -6.4661 -2.0932
-55.3345 3.3440 42.4782
-43.8425 33.9253 32.2827
54.9142 -7.5839 -19.5478
54.7687 -8.5718 -41.7795
-49.5060 -24.9449 -24.8888
26.8519 48.4981 -22.9726
-54.0383 -12.3674 -30.7159
-46.9105 -29.5380 -12.0720
-37.9322 40.4257 -6.8288
5.9736 -55.1127 6.5241
-4.4148 55.2594 -23.4496
8.3940 54.7963 -42.4500
12.5816 53.9888 7.8568
0.0764 55.4354 -32.7679
-3.3963 -55.3313 -34.4108
49.7334 -24.4883 33.7455
27.4995 48.1339 -31.8028
-41.8583 -36.3452 -9.2303
-47.9082 27.8907 -34.1363
31.9986 -45.2679 -26.6639
54.7647 -8.5976 40.2411
13.0142 -53.8862 1.0039
49.6111 24.7352 -40.0142
-22.3933 -50.7112 -28.7242
-29.5034 46.9323 -35.1579
-4.5221 4.8811 42.7671
44.3631 -19.4105 42.7671
3.6780 -1.9298 42.7671
10.8744 -18.3706 42.7671
-31.0076 -13.4460 42.7671
5.9226 20.0211 42.7671
-0.2226 -0.0426 42.7671
-28.9384 35.4299 42.7671
13.5828 -16.3302 42.7671
6.3683 42.2194 42.7671
-10.1747 -1.3225 42.7671
-10.3598 -13.6205 42.7671
0.1765 10.7278 42.7671
23.3177 16.0485 42.7671
44.9398 22.3697 42.7671
23.7108 -3.4085 42.7671
17.7531 -49.0616 42.7671
-1.5075 -37.4141 42.7671
-42.3094 -14.4007 42.7671
-7.5754 -48.5890 42.7671
-39.5589 9.9822 42.7671
15.2102 41.1161 42.7671
1.6898 -41.0352 42.7671
7.0345 0.6049 42.7671
-20.6446 31.8814 42.7671
-1.0490 -1.7796 42.7671
46.3678 5.5914 42.7671
-39.7957 -25.9315 42.7671
-37.0160 13.9751 42.7671
36.9048 4.5693 42.7671
-13.9085 20.5547 42.7671
-33.4337 11.0968 42.7671
-8.8868 -21.2622 42.7671
-32.0054 -16.4165 42.7671
-8.7700 19.8095 42.7671
-37.9837 24.7267 42.7671
-29.1022 30.3125 42.7671
-0.1393 1.7627 42.7671
6.8944 -1.5827 42.7671
-2.6215 31.3613 42.7671
41.3957 5.9250 42.7671
9.2116 19.0617 42.7671
-8.9636 -35.7722 42.7671
-14.2150 6.7284 42.7671
-3.9536 -27.5748 42.7671
-1.1817 3.8015 42.7671
1.5009 20.2470 42.7671
-23.0907 4.9813 42.7671
48.3282 -26.9192 42.7671
-2.2337 -0.0072 42.7671
-7.3478 9.6306 42.7671
34.2234 9.2685 42.7671
-3.4626 17.0257 42.7671
-3.9144 -28.6567 42.7671
-11.0418 6.5743 42.7671
7.6861 14.0721 42.7671
-36.9890 5.2305 42.7671
16.7910 9.6661 42.7671
-29.1364 -8.0034 42.7671
18.0710 -20.0050 42.7671
39.5213 -31.8986 42.7671
23.5481 -13.8718 42.7671
-30.6721 11.7608 42.7671
22.6445 -8.6193 42.7671
27.3104 -7.8815 42.7671
-2.5751 -8.3908 42.7671
-24.7529 14.7814 42.7671
-1.9430 -28.5424 42.7671
-7.3382 -3.5083 42.7671
-31.5374 26.2099 42.7671
6.4382 -19.4379 42.7671
15.1163 4.3156 42.7671
23.5867 -20.5447 42.7671
-2.1857 2.0150 42.7671
25.8635 42.0969 42.7671
-29.6101 -33.5634 42.7671
-0.8815 0.3467 42.7671
15.2555 -36.4648 42.7671
11.8008 -21.8242 42.7671
-0.1798 14.8971 42.7671
-32.6969 -8.3118 42.7671
-0.4075 -0.7351 42.7671
-15.0369 13.4559 42.7671
-47.0180 -12.8741 42.7671
-5.4579 -44.5792 42.7671
30.5101 22.7149 42.7671
10.2135 -12.4147 42.7671
-8.8669 18.0254 42.7671
-41.0935 12.3528 42.7671
-6.0213 -30.6610 42.7671
14.0477 -1.4133 42.7671
3.7846 14.5299 42.7671
47.8129 -18.5168 42.7671
-45.5703 11.6740 42.7671
-20.3482 -10.9561 42.7671
0.1128 28.0553 42.7671
-24.5625 40.8706 42.7671
-42.7956 -30.7944 42.7671
36.1433 40.5467 42.7671
46.3707 6.3166 42.7671
40.3796 18.0363 42.7671
11.5166 -12.1610 42.7671
-10.5021 7.3895 42.7671
-1.0211 3.0798 42.7671
7.1218 -0.5096 42.7671
23.3533 1.8211 42.7671
-10.5229 11.0329 42.7671
8.4145 -20.8978 42.7671
-33.7953 -24.9061 42.7671
-22.9782 43.6307 42.7671
-1.0576 6.7601 42.7671
-3.8482 -15.0897 42.7671
20.4213 -20.8051 42.7671
-40.8544 27.4930 42.7671
0.7329 -1.0864 42.7671
-2.6331 7.4576 42.7671
2.6404 1.0464 42.7671
-0.3094 -1.2304 42.7671
-27.7847 -4.2876 42.7671
-26.5715 20.2975 42.7671
-31.7846 -19.9049 42.7671
11.4752 36.0555 42.7671
11.9646 -35.6249 42.7671
-8.7937 -28.1363 42.7671
6.1657 26.3267 42.7671
-0.7009 -4.1035 42.7671
-2.6563 0.8476 42.7671
11.8655 -7.4604 42.7671
-1.7399 -6.6159 42.7671
37.1115 8.3990 42.7671
10.6136 20.1374 42.7671
2.8920 11.3625 42.7671
12.3603 -30.1650 42.7671
-36.2996 -25.0002 42.7671
35.7914 -4.8184 42.7671
-31.7578 14.5477 42.7671
-44.9322 28.7836 42.7671
-51.2817 15.3367 42.7671
3.8236 5.5535 42.7671
5.4662 9.5844 42.7671
16.2261 27.9680 42.7671
-29.9326 27.7946 42.7671
9.3029 4.5512 42.7671
28.1480 -36.8099 42.7671
-3.4167 -8.3222 42.7671
5.9574 23.2531 42.7671
-33.1952 -16.0782 42.7671
-18.3901 41.5129 42.7671
10.3541 -1.3605 42.7671
6.7164 -3.1332 42.7671
1.4325 -0.2079 42.7671
-10.6329 13.2678 42.7671
-14.8429 8.2518 42.7671
-32.8317 35.3250 42.7671
2.3829 -11.2350 -42.7671
23.2240 -4.5714 -42.7671
30.1955 -34.1071 -42.7671
-0.1004 -7.7072 -42.7671
53.1270 -14.2517 -42.7671
-10.0817 -33.7660 -42.7671
49.1757 -11.5374 -42.7671
-13.3188 -8.9395 -42.7671
-12.4553 -9.8983 -42.7671
12.7761 -32.4548 -42.7671
28.1828 3.6038 -42.7671
34.7062 18.0362 -42.7671
4.1981 -47.1989 -42.7671
27.9683 8.7634 -42.7671
-7.7839 16.1846 -42.7671
8.8046 42.7602 -42.7671
1.9089 16.7896 -42.7671
-9.0864 14.4466 -42.7671
-1.2518 3.1200 -42.7671
22.0268 5.1788 -42.7671
-8.7635 -25.4233 -42.7671
6.5105 31.6419 -42.7671
-20.7029 12.5902 -42.7671
5.9453 -3.4801 -42.7671
16.6915 -2.7509 -42.7671
16.1026 -12.7354 -42.7671
1.0789 -3.1065 -42.7671
-3.2374 7.5099 -42.7671
-1.6941 -4.2055 -42.7671
23.5848 -38.4177 -42.7671
44.1378 -9.0588 -42.7671
32.4863 -19.2029 -42.7671
-19.3383 -50.1275 -42.7671
16.9543 -6.2081 -42.7671
-11.1677 -31.5644 -42.7671
16.8796 -45.8271 -42.7671
-7.5671 -42.2357 -42.7671
17.3172 -18.2463 -42.7671
-10.6700 19.4418 -42.7671
6.7529 9.7551 -42.7671
-12.5899 20.0888 -42.7671
8.3148 -1.6736 -42.7671
3.5897 12.7542 -42.7671
32.7124 3.9047 -42.7671
-5.8253 -19.4604 -42.7671
0.7818 -7.9330 -42.7671
18.6646 6.1050 -42.7671
-1.8785 -12.4740 -42.7671
12.3301 -18.4216 -42.7671
11.6209 15.7579 -42.7671
-6.5970 28.3768 -42.7671
-0.8271 -2.2766 -42.7671
-0.3474 -8.6411 -42.7671
-4.1650 -23.6638 -42.7671
-0.0251 0.3975 -42.7671
-17.7943 -21.3311 -42.7671
5.5668 -18.0088 -42.7671
4.1542 -4.2973 -42.7671
-21.0821 -18.3289 -42.7671
1.5642 -0.1414 -42.7671
7.0388 47.7671 -42.7671
-13.8130 18.4198 -42.7671
-30.3779 17.3648 -42.7671
-37.0026 21.7622 -42.7671
9.2068 13.5837 -42.7671
9.6745 -5.3514 -42.7671
10.3339 11.7130 -42.7671
-11.2376 -8.8582 -42.7671
44.5649 6.8034 -42.7671
10.8741 17.1107 -42.7671
2.4709 -0.2919 -42.7671
25.1738 3.0407 -42.7671
42.3111 33.8346 -42.7671
11.8561 -1.1683 -42.7671
11.6774 43.3631 -42.7671
-12.1924 12.8399 -42.7671
-44.2919 -31.2422 -42.7671
31.9266 6.9258 -42.7671
-25.6616 -3.2228 -42.7671
8.8148 -47.2887 -42.7671
31.2578 25.6779 -42.7671
-1.6588 3.8693 -42.7671
-2.7691 10.7949 -42.7671
47.1582 -0.7595 -42.7671
-20.9328 -31.2732 -42.7671
5.1255 -31.4257 -42.7671
31.6133 37.5053 -42.7671
24.1431 30.4890 -42.7671
1.9907 7.3751 -42.7671
-7.3910 -27.3464 -42.7671
2.0228 23.6599 -42.7671
-48.3019 10.2505 -42.7671
-23.3474 20.0334 -42.7671
-12.9533 -11.8507 -42.7671
-12.1843 -18.9573 -42.7671
-6.0333 -36.0718 -42.7671
44.9600 -1.8752 -42.7671
29.8734 -15.1770 -42.7671
-10.3237 -47.5337 -42.7671
44.4751 14.6805 -42.7671
1.2851 54.2152 -42.7671
-32.6323 27.7906 -42.7671
-16.6403 -20.3442 -42.7671
-0.4619 -3.2646 -42.7671
-29.7063 10.8622 -42.7671
4.6850 -7.5029 -42.7671
1.4972 28.6771 -42.7671
5.9198 -2.0285 -42.7671
-26.8421 -21.2889 -42.7671
52.2060 1.6292 -42.7671
-9.9887 -8.0558 -42.7671
-52.8257 -10.2624 -42.7671
-1.4764 -28.5326 -42.7671
1.4634 1.7196 -42.7671
-19.5287 37.9169 -42.7671
-0.3801 1.1969 -42.7671
-7.3609 2.6700 -42.7671
23.0088 19.6140 -42.7671
4.6457 -2.5836 -42.7671
4.0141 4.2437 -42.7671
9.7085 -24.1086 -42.7671
-6.2462 16.2465 -42.7671
1.3209 -0.5072 -42.7671
-31.7460 38.8140 -42.7671
-24.2865 1.7918 -42.7671
-34.1307 -33.2477 -42.7671
-19.8863 -29.9218 -42.7671
-45.0818 14.9873 -42.7671
15.7740 2.0377 -42.7671
17.5007 36.9273 -42.7671
12.1213 -46.2828 -42.7671
-7.9755 54.0462 -42.7671
-17.8550 14.4832 -42.7671
33.1537 42.9712 -42.7671
-20.9861 36.1608 -42.7671
44.6958 5.5163 -42.7671
-6.2929 -16.9634 -42.7671
32.6987 43.8939 -42.7671
3.4593 -0.3749 -42.7671
-7.1446 51.7898 -42.7671
-22.7013 5.9019 -42.7671
0.1946 1.4802 -42.7671
-35.6447 -25.8435 -42.7671
35.2705 34.1043 -42.7671
-8.7518 -30.5464 -42.7671
42.1021 -32.6563 -42.7671
-13.9445 39.9676 -42.7671
-0.0132 -0.0012 -42.7671
23.4424 2.3449 -42.7671
32.3151 -26.7458 -42.7671
26.8902 44.0699 -42.7671
0.5751 5.6682 -42.7671
1.6460 -4.7024 -42.7671
17.3232 45.9432 -42.7671
