ply
format ascii 1.0
element vertex 1024
property float x
property float y
property float z
end_header
68.0387 68.6435 -21.0888
93.3376 25.0853 -15.6661
77.9938 -57.0802 -11.8291
20.6763 -94.4123 -8.4193
14.5674 95.5457 21.1368
95.7739 -12.9822 -24.7250
-96.3800 7.2172 14.9224
-90.6816 -33.4370 14.3109
-42.1911 -86.9546 1.1601
88.2912 -39.3172 -5.8552
29.6079 -92.0030 -1.4555
70.3303 66.2935 -20.0939
28.5122 92.3485 -15.7390
-35.1967 -90.0132 23.8867
49.9589 82.7363 18.4675
-88.3348 -39.2193 -3.7717
37.3536 89.1397 7.6779
12.1253 -95.8862 21.4958
-39.8559 -88.0494 6.0962
-90.1073 34.9550 -8.8570
-75.8780 -59.8641 -21.4300
73.0452 63.2896 -15.5783
47.0116 -84.4458 0.5868
89.2887 -36.9962 -26.1829
62.6464 -73.5976 17.8525
-87.3571 41.3512 -10.0062
19.8795 -94.5832 -2.8025
92.5568 -27.8284 -17.6219
68.5172 68.1658 25.2205
-16.3691 95.2535 26.5728
36.5696 89.4642 24.5867
35.4966 -89.8953 -1.0734
-16.6031 -95.2130 -20.6611
-54.7475 -79.6486 -5.6075
-94.3633 20.8986 -18.8108
-24.5244 93.4866 -24.4060
70.3973 -66.2224 16.3624
48.7097 -83.4778 20.7445
-80.7036 53.1801 -1.6243
95.5886 -14.2832 9.8314
-70.7547 -65.8404 -23.5048
93.9496 -22.6862 -17.6746
6.7475 -96.4140 -22.6785
89.4832 -36.5232 12.2659
23.2108 -93.8213 19.8821
-84.2195 -47.4158 -9.3588
-20.4113 -94.4699 -0.2218
-64.1723 -72.2710 -27.1984
-37.4779 89.0875 24.3687
79.9045 54.3733 19.2215
93.5783 24.1721 17.9132
-83.4852 -48.6970 -13.0714
54.8041 -79.6096 -25.0744
-34.6194 90.2368 -25.3113
25.7349 -93.1606 -4.1062
78.2725 -56.6974 5.7423
75.8843 59.8561 -22.8550
-36.3806 89.5413 24.3655
-95.3717 15.6661 23.4078
-69.1368 -67.5373 -10.8433
95.5838 -14.3153 25.4842
-66.4299 70.2015 -0.6131
96.0842 -10.4411 8.8347
29.0849 92.1697 -10.3988
20.8217 94.3803 -24.4288
23.1099 -93.8462 9.8343
-95.6481 -13.8791 -3.8293
96.2650 -8.6153 21.0389
-65.0736 71.4606 -17.9170
74.0800 62.0752 17.7886
96.1819 -9.4982 15.3414
50.5259 82.3912 -4.4344
69.0437 67.6325 10.0041
65.8592 70.7372 14.2190
-96.1447 9.8680 -18.8640
83.1417 -49.2813 -13.1381
-81.9048 -51.3107 -15.7293
-65.2841 71.2683 -2.8632
-68.2846 68.3988 -25.2003
-63.6534 72.7284 -27.0381
88.6509 38.4995 -17.2416
-88.1052 39.7322 -23.1318
-88.6880 -38.4137 -9.1277
-18.1470 -94.9309 0.5100
-36.4267 -89.5225 10.7101
50.0124 82.7039 11.4499
90.3041 -34.4436 -23.4622
39.4519 -88.2311 -27.2343
94.4893 20.3211 -9.6403
-94.6277 19.6666 -8.9192
-66.6696 -69.9739 6.4842
95.7041 -13.4873 3.1279
8.5836 96.2679 18.7236
75.3524 60.5243 -18.5703
-51.0817 -82.0478 -20.8086
61.6496 -74.4346 27.1913
-63.2921 73.0431 25.5623
-94.7394 -19.1214 -8.9480
73.2726 -63.0263 8.7283
25.0834 93.3381 9.9684
94.3106 -21.1351 12.0941
10.1157 -96.1190 -24.4886
93.0773 -26.0345 11.7291
-43.2266 -86.4445 -1.2627
-49.5533 82.9799 21.2202
-54.1037 -80.0873 -23.6134
-45.6623 -85.1830 10.0568
60.7914 75.1371 -7.6418
-15.4026 -95.4146 -21.9649
-82.9702 -49.5694 -22.5447
-91.1326 -32.1874 -1.2667
-59.2084 76.3907 -14.2882
-12.9440 95.7791 24.4410
84.4359 47.0294 8.7238
13.4362 -95.7113 -16.5085
-75.8972 -59.8397 -1.9669
96.5416 -4.5728 25.9605
34.5319 90.2703 -1.7311
95.6266 -14.0261 6.8089
41.1583 -87.4482 -21.1880
57.3235 77.8152 13.5687
38.0746 -88.8342 -15.9746
95.6420 13.9209 -12.9384
31.7974 91.2694 -26.2910
91.7536 30.3721 19.7741
-20.2370 -94.5074 2.8228
-19.3222 94.6987 -5.3123
-89.2611 -37.0627 3.0281
15.2574 -95.4379 -0.8609
-86.1722 -43.7668 11.0925
-50.6316 82.3264 6.3643
76.8030 -58.6726 15.1641
94.9004 -18.3055 6.0965
-51.2446 81.9462 -21.8830
77.3676 57.9261 11.1926
-79.0711 -55.5783 10.0524
91.9575 -29.7489 -4.1179
-32.5803 -90.9929 -8.4207
-73.6970 -62.5295 5.0137
-88.2649 -39.3763 14.9839
-30.0166 -91.8705 9.8718
12.5972 95.8253 -2.9546
93.5568 24.2552 5.4714
-46.4241 -84.7702 12.1346
-4.9075 -96.5251 2.0974
57.7467 -77.5016 -1.0304
-96.4172 -6.7008 -27.0042
-95.7884 12.8752 -11.1235
-10.6972 96.0560 7.4478
-7.5504 -96.3544 22.6272
-90.8877 -32.8726 -18.5878
-92.9902 26.3442 8.3837
-16.9299 -95.1555 12.2709
7.2953 -96.3741 -12.7354
-25.9806 93.0924 14.7669
85.2112 -45.6097 12.4548
88.0023 39.9596 16.9140
54.9511 79.5083 -20.4395
56.6191 -78.3292 -10.0727
86.3867 43.3418 11.4666
91.5286 31.0435 -22.1493
-96.5591 -4.1860 -16.5036
-0.6326 96.6477 13.3913
-79.1826 -55.4192 -0.2956
29.2324 92.1230 9.1525
92.2248 -28.9098 1.4591
-96.3736 -7.3016 8.2412
90.4073 -34.1716 -11.6432
-47.0628 -84.4173 -19.9145
-96.5602 4.1596 4.8597
-48.9010 83.3659 -18.3460
-94.5056 20.2456 15.1571
96.6462 0.8371 -24.6604
-11.6767 -95.9418 2.4981
51.8329 -81.5753 -21.7641
96.4735 -5.8357 7.2011
15.6916 -95.3675 1.8762
-37.9507 88.8872 -25.6024
20.2224 94.5105 8.6562
92.7273 -27.2549 -26.4653
-93.0982 -25.9596 -14.3140
-72.2801 64.1621 24.0541
7.4499 -96.3622 -7.6736
17.2809 -95.0923 5.0778
79.4491 55.0366 24.0908
-91.7594 -30.3544 -10.8281
-56.0261 78.7544 -11.9075
83.8262 48.1076 -7.3543
35.3206 -89.9646 -23.1380
-95.2468 -16.4081 18.2829
-78.5711 56.2830 -15.3833
3.1383 -96.5988 -18.4477
77.9326 -57.1637 5.4118
-49.2450 83.1632 -15.1777
72.7434 -63.6363 6.5173
79.3389 55.1953 -7.9761
-69.2251 67.4468 26.3664
-22.4003 94.0181 10.9825
-73.2278 -63.0783 10.1118
95.8350 -12.5236 0.9948
-34.7904 -90.1710 10.0558
-88.2163 39.4850 -10.0212
-17.3744 -95.0753 3.5262
89.9318 -35.4041 22.7299
-51.4275 -81.8315 9.6737
-95.4662 -15.0795 -8.6476
40.4368 -87.7841 10.6376
-5.5385 96.4910 -18.5144
-85.7737 -44.5428 3.3535
56.5210 -78.4000 -18.5605
-93.9725 -22.5912 23.2546
81.1024 52.5698 -9.5103
8.4115 96.2831 -8.6030
56.3635 78.5133 10.0289
-46.5084 -84.7240 -10.0090
95.6557 -13.8265 21.3316
28.6457 92.3071 24.4772
-21.0988 -94.3187 -11.6709
-96.1555 -9.7627 -13.2342
-21.5977 94.2058 26.2462
-82.9662 49.5761 14.3251
49.2673 83.1500 20.4040
96.5326 4.7585 5.4861
85.2720 -45.4958 20.2636
61.7779 74.3281 4.0055
96.2669 8.5949 -6.1276
62.8751 73.4023 -16.2530
-84.0359 -47.7405 -10.9033
28.0278 92.4966 17.0389
-86.9962 42.1053 20.3682
-95.0351 -17.5929 20.5337
89.9999 -35.2308 26.4876
17.2493 95.0981 13.3299
-24.7012 93.4400 -15.1908
-81.0111 -52.7104 6.7162
-95.0481 17.5224 23.6845
75.1465 -60.7798 -14.0346
-94.1634 -21.7816 22.4341
-77.7910 -57.3563 -6.6955
96.3204 -7.9727 2.7046
96.2863 8.3747 -14.4150
-83.0339 -49.4626 -12.8503
23.8425 93.6628 -10.7332
-79.6375 -54.7636 2.8800
95.0136 -17.7085 3.4146
79.8750 54.4165 23.1852
28.6494 -92.3060 6.3808
69.9567 66.6877 22.6264
-88.3633 -39.1549 -16.1297
-89.4683 -36.5596 -19.7486
43.0863 -86.5145 -8.0867
72.4759 63.9408 2.9150
2.1767 -96.6253 -11.1368
-59.8384 75.8982 -4.4594
79.5775 -54.8508 -12.6681
95.9773 11.3819 -20.1429
-93.2062 -25.5692 19.2846
-62.0063 -74.1378 -13.2567
33.1083 -90.8021 11.0712
-73.9748 -62.2006 -20.6621
71.5384 -64.9880 -14.9831
82.6336 -50.1286 -7.1227
59.3757 76.2608 -26.6143
65.5558 71.0184 -9.3491
-95.9277 11.7923 -17.2007
-23.4249 93.7681 22.8480
9.2708 -96.2041 25.8783
-17.5621 95.0408 -3.8422
-51.9191 81.5205 -4.5331
69.2440 -67.4273 -3.2133
-55.1409 79.3768 -18.8257
-91.9882 -29.6538 -21.1445
87.6188 40.7937 15.5308
-21.0378 -94.3324 14.9968
66.3656 -70.2623 -2.6278
3.5730 -96.5837 7.7208
95.4058 15.4571 17.3157
10.1693 -96.1133 21.3563
3.9234 -96.5701 -13.1769
11.2815 -95.9891 -16.7077
46.0180 -84.9913 -7.1657
47.2976 84.2859 10.7985
96.2070 -9.2408 -20.2091
96.4824 5.6865 -2.6379
95.3257 -15.9433 9.3823
-96.0873 10.4118 -1.2716
95.9478 11.6281 -25.7990
94.2842 21.2525 -6.7551
-55.7658 -78.9390 24.1362
90.3242 -34.3906 21.9768
-55.9799 -78.7872 -21.8553
73.1020 63.2241 -0.8162
-19.2782 94.7076 -25.7541
-96.3120 -8.0731 13.4727
-38.0763 -88.8334 19.2887
-81.1362 52.5175 12.0094
-81.2006 -52.4179 1.6260
75.6790 60.1154 -7.8808
-90.4084 -34.1687 -10.1751
-79.2218 -55.3633 -10.0790
-71.9503 -64.5317 -15.2838
12.8912 -95.7862 11.5954
96.0647 -10.6191 -2.2185
-72.0459 64.4250 21.8817
-68.1193 68.5634 18.1372
-96.6439 -1.0669 22.4072
-13.8669 -95.6499 0.7525
-73.1660 63.1500 -8.0920
19.0181 94.7602 0.7377
-50.5728 82.3625 12.1941
89.7771 35.7946 12.6035
95.4430 -15.2254 2.9313
-93.8035 23.2826 -6.9221
-4.6504 96.5379 26.2624
-96.6271 2.0950 -24.2529
60.7652 75.1583 -23.8077
-6.3165 96.4432 24.9047
75.1585 -60.7650 20.8743
19.5802 94.6457 -8.8875
-94.6975 19.3279 20.4196
-9.2369 -96.2074 -7.2250
24.1917 -93.5732 18.1927
26.3855 92.9784 0.9342
72.0712 -64.3966 3.7843
-81.1229 -52.5382 -3.4606
73.8745 62.3197 -17.7648
28.6750 -92.2980 -22.0773
87.1834 41.7161 -15.3217
94.0344 22.3321 -13.1286
33.7367 -90.5705 -16.9313
-67.8361 -68.8437 17.0881
-59.3991 -76.2426 25.9248
45.5569 -85.2394 14.6278
-70.3149 -66.3098 12.6510
27.9406 92.5230 20.2681
-87.9981 39.9690 -13.9395
-72.6900 -63.6973 2.6530
87.8416 -40.3117 18.0696
-87.3441 -41.3787 17.2553
85.9969 44.1102 -8.0735
-71.1548 65.4078 9.2903
-82.7846 49.8788 -0.4715
76.5814 58.9616 15.0642
76.0099 59.6965 -12.4049
-5.1035 -96.5150 -23.9992
88.7909 38.1753 -10.6030
84.5539 -46.8169 -12.4582
96.5821 3.6181 1.9548
-41.3248 -87.3696 -19.2643
-45.9771 -85.0135 -13.0282
-65.0383 71.4927 -22.0777
92.8020 -26.9995 17.2350
-96.5958 -3.2310 20.6481
-86.8565 -42.3926 -24.1875
83.5234 48.6316 -25.4246
-91.8686 30.0224 -3.1870
-85.5838 44.9065 -15.1641
81.2478 -52.3449 24.0762
-59.5813 -76.1003 -16.2471
96.4891 -5.5711 -24.3409
28.9931 -92.1986 -20.2161
-4.1636 96.5601 -19.3636
-95.8126 -12.6934 16.6221
-34.0391 -90.4573 1.3821
96.0925 10.3640 22.5164
79.0146 -55.6586 19.1295
-37.2967 -89.1636 20.2756
68.7683 67.9125 17.8629
24.0072 -93.6207 -23.5864
-60.4954 75.3757 16.7370
68.4333 68.2500 -10.7180
-54.4591 79.8460 0.2686
19.9636 94.5655 10.3433
13.9859 95.6325 -25.8180
74.4855 -61.5881 21.1698
91.0198 -32.5049 -6.7320
-31.8789 91.2410 15.9149
-12.7539 -95.8046 -11.0440
94.4234 20.6255 25.3374
16.8150 95.1758 -24.6445
-96.5143 -5.1152 -9.9808
24.6209 -93.4612 0.4405
-95.1712 16.8411 -25.5351
93.8158 23.2332 19.9994
96.6052 2.9354 -15.5741
73.6224 62.6173 24.6486
-35.3179 -89.9657 26.6936
85.5659 44.9407 -2.5764
-85.1713 45.6840 -3.9764
82.4057 -50.5024 17.2807
35.0847 -90.0569 -23.9749
94.2394 21.4504 -22.3536
47.9841 83.8970 -1.7954
-96.4636 -5.9959 -26.5200
78.9065 -55.8117 -22.8542
-70.5728 66.0353 18.6614
-51.5964 81.7251 24.8426
-79.3604 55.1644 -2.7320
80.1963 53.9420 11.1535
-55.3621 -79.2226 22.3383
93.7389 23.5416 23.6410
-96.2089 -9.2214 -13.0516
-31.4524 91.3889 23.0480
10.3948 -96.0892 13.8664
51.2870 -81.9196 27.3015
92.4797 -28.0838 -6.2046
89.7445 -35.8762 -18.6162
13.1917 -95.7453 -12.4918
83.2673 -49.0687 -4.3338
76.7680 -58.7185 20.3913
52.5664 81.1046 -9.4259
85.3188 -45.4079 -2.4657
68.4055 68.2779 -16.6773
-37.9294 -88.8963 13.2768
-93.0762 -26.0384 -26.3531
-57.6327 77.5865 11.9634
-34.5902 -90.2480 -15.9759
-41.5143 87.2797 4.8400
-63.1459 73.1695 1.1124
-96.3402 -7.7302 -17.3910
-96.4500 6.2120 -17.6583
4.3256 96.5530 5.4375
34.7645 -90.1810 0.2386
-42.9387 86.5878 -14.2334
94.8010 -18.8135 -26.3494
-58.2766 77.1040 20.4843
24.3125 -93.5419 -9.0118
6.3921 -96.4382 13.1150
64.8919 71.6256 24.2606
40.2384 -87.8752 -26.0611
8.8964 96.2395 -19.4430
-84.3442 47.1936 -13.2549
4.9090 -96.5251 14.3585
77.6629 57.5296 -8.6251
-88.5162 -38.8081 7.2555
-66.7005 69.9445 20.5117
50.3568 -82.4947 8.2361
-66.8369 -69.8141 -26.2097
-64.1639 72.2784 -16.4682
24.7825 93.4185 -10.9312
96.2439 8.8484 22.4998
79.2254 55.3581 -18.4085
-96.6494 0.2623 -8.3410
-89.0288 -37.6173 -15.0870
93.3989 -24.8561 -19.8535
25.7171 -93.1655 17.4994
-11.6383 -95.9465 -8.9660
96.2645 8.6210 10.2513
-64.3406 -72.1212 12.8134
93.6433 -23.9188 16.0925
15.9756 95.3203 12.7870
25.4999 -93.2252 -25.3330
43.5889 86.2623 -26.0775
96.6369 1.5775 -12.2208
-32.2368 -91.1152 24.7118
-5.7561 96.4782 20.7431
-92.1676 29.0914 -25.4495
-60.9940 -74.9728 0.4396
-86.8904 -42.3231 -20.5980
73.0756 -63.2545 1.9551
39.0481 88.4106 -2.9859
-15.9592 -95.3231 -6.6332
-69.6774 -66.9795 -19.6508
-42.3688 -86.8681 0.5951
76.3331 59.2827 -15.9308
-10.8150 -96.0428 20.6320
78.9021 -55.8179 10.9368
-91.8402 -30.1091 -23.3690
-95.0490 -17.5177 -3.2991
-90.6606 33.4939 24.2785
-45.7322 85.1455 26.9912
18.4637 -94.8698 -9.4693
69.5479 67.1139 -1.7252
23.2207 -93.8189 3.3961
2.5346 96.6166 5.8387
78.1355 -56.8861 -9.1771
61.1108 74.8776 -25.6649
74.2718 61.8457 10.0025
46.2394 -84.8711 -7.3508
92.9076 26.6338 -1.1216
34.3841 90.3267 4.2091
74.7345 -61.2857 -15.3839
-78.9993 55.6803 -14.1421
-95.9989 11.1980 -6.3220
53.5071 -80.4871 -21.4073
7.5591 -96.3537 6.4689
-22.9771 93.8788 -20.5435
-96.3900 7.0812 -7.8042
36.9289 89.3165 18.3061
-80.5660 53.3882 -7.2957
88.1480 39.6373 16.6168
87.6317 40.7661 -9.3752
-15.4618 -95.4050 20.3869
83.1528 -49.2625 2.3984
40.8110 87.6108 -7.5553
-77.1131 58.2645 -26.5825
5.3535 96.5014 -18.0634
-89.1541 -37.3193 -18.5095
94.5703 19.9412 10.8429
82.6293 50.1356 -22.4348
-5.8290 -96.4739 24.7120
-96.0917 10.3715 24.2905
16.0236 -95.3123 -22.2030
-59.1029 76.4724 22.3569
-66.6532 -69.9895 -18.3644
77.0005 -58.4133 22.7106
33.7553 -90.5636 -0.9388
-49.9085 82.7667 -12.1381
-43.7652 86.1731 -8.2208
-8.6826 96.2590 26.3766
46.5718 84.6892 -6.7657
-42.5566 86.7763 -13.8475
-96.6489 -0.4189 -14.2295
29.8572 -91.9224 -23.4875
69.0989 -67.5761 0.9240
57.7538 -77.4963 14.4466
22.3142 -94.0386 10.8656
-10.4969 96.0781 -17.6799
76.9300 -58.5060 -5.7518
-3.8673 -96.5724 -18.6096
-34.4996 -90.2827 -9.8493
-57.5243 -77.6669 1.0811
59.3716 -76.2640 -24.8267
42.5636 -86.7729 -24.8247
-84.2788 -47.3104 9.7426
28.8869 92.2319 -5.4673
-86.3529 -43.4092 13.6920
-89.8897 35.5110 -17.8845
90.3161 34.4121 -19.5019
66.0050 70.6012 2.6697
19.5397 94.6540 -20.7450
28.6959 92.2915 1.7916
-76.2036 59.4491 -8.1983
-69.8515 66.7978 14.4586
39.0997 -88.3878 22.8768
3.5646 96.5840 -1.6656
40.8294 -87.6022 -27.0589
-71.6029 -64.9169 6.5451
82.6778 50.0556 21.7972
-80.5104 -53.4720 -12.9216
95.0586 17.4655 26.6761
43.9459 -86.0810 14.4550
-91.7506 30.3812 -26.4414
95.7165 13.3992 9.1438
43.6190 -86.2471 -25.5863
75.0437 60.9067 23.2295
-35.0255 90.0800 -1.2261
-77.8356 -57.2958 -2.8988
42.3436 86.8804 16.1627
91.8914 -29.9525 -8.7756
92.0370 -29.5022 24.9908
-45.5031 85.2681 16.3821
-90.9312 -32.7520 9.4491
-80.6269 53.2962 -11.3356
-70.7662 -65.8280 22.3583
-16.0172 95.3133 -3.5846
95.1914 -16.7268 -5.1307
90.5819 -33.7062 -8.5399
96.6452 -0.9386 16.8428
58.6544 -76.8170 -19.7550
79.2879 55.2686 26.2691
-96.3693 7.3585 21.7523
-95.7552 13.1198 -15.0894
64.6208 -71.8703 23.0869
32.0641 -91.1761 -21.5165
-60.7330 -75.1843 -1.2796
96.2766 -8.4857 18.8060
42.4433 86.8317 -10.3169
19.2647 -94.7104 -2.3004
6.9457 96.3999 27.3027
60.0200 75.7548 -7.5492
69.0735 -67.6021 6.0447
-93.3282 25.1205 16.6392
-36.0973 89.6558 9.9847
29.9497 -91.8923 -17.2197
-42.6450 86.7328 27.2301
5.0818 96.5161 10.6139
-89.2175 -37.1675 22.8905
0.0448 -96.6498 -26.1275
-26.3329 -92.9933 24.6011
-32.9715 90.8519 -7.3501
-88.3566 39.1701 -1.7516
73.8458 62.3536 5.6978
54.8130 -79.6035 14.9328
-40.6862 -87.6688 20.8612
88.3376 -39.2130 -11.9660
-92.0919 -29.3302 -16.1037
-91.1015 -32.2755 22.2697
16.5583 -95.2208 -27.2095
-95.4068 15.4505 -18.2426
-88.2006 -39.5200 -1.3813
2.4221 -96.6194 -6.1816
-96.6430 1.1451 -9.7328
94.8031 -18.8033 0.2158
48.6106 -83.5356 24.6159
58.3601 -77.0408 -6.0831
28.1857 92.4486 -19.1973
32.5646 -90.9985 13.1754
-88.4516 -38.9551 25.8980
1.9912 -96.6293 8.4065
94.3329 -21.0355 -4.7340
-95.9495 11.6136 25.8629
20.4550 -94.4605 1.2988
33.4233 90.6866 -3.7253
-83.7805 -48.1873 -8.9572
96.5526 4.3336 3.8657
-49.1939 83.1934 -19.7780
-93.8432 23.1222 -6.1153
-75.6199 -60.1899 -8.1362
-50.9745 82.1145 10.3967
25.1358 93.3240 6.9180
-17.1338 95.1190 22.0944
37.3430 -89.1442 9.4672
88.1794 -39.5675 27.3156
-82.5280 50.3022 24.9963
77.8932 -57.2174 24.0369
43.5706 -86.2716 -26.4441
4.3841 -96.5503 1.8098
-60.2886 75.5412 -9.6591
-45.8774 85.0673 9.7048
-88.9443 37.8165 12.7617
38.2231 88.7704 -3.1828
-96.5483 4.4282 4.8509
-89.0256 37.6249 19.8352
39.7437 88.1001 -10.8561
78.7692 56.0054 7.1763
44.8303 -85.6238 -22.2277
-95.5135 14.7768 2.8479
21.5269 94.2219 18.9223
93.7594 -23.4597 -26.3848
-61.5154 -74.5455 23.6533
-49.9282 82.7548 -17.9140
78.9318 55.7760 -22.9031
19.9859 94.5608 15.6036
30.7368 -91.6320 7.9786
86.3106 43.4932 -18.7186
-7.8681 96.3290 -27.3264
-31.4655 -91.3844 11.8705
37.8124 -88.9461 23.1465
-41.2794 -87.3910 -8.0959
-93.9806 22.5574 -22.6635
32.3193 91.0859 -5.5469
-37.6127 -89.0307 -23.5107
21.7836 -94.1629 -9.1419
-57.1807 77.9201 -10.0441
-85.2396 -45.5564 -25.6518
-13.2956 -95.7309 -20.3916
13.5008 -95.7022 12.7881
53.5422 -80.4638 -3.5012
-92.3267 28.5825 -27.0463
93.7278 -23.5855 24.3664
94.7839 18.8998 19.6857
-83.8766 48.0198 -9.2299
10.0420 -96.1267 -14.8237
34.2744 -90.3684 -0.9674
-91.0703 -32.3634 24.3035
96.3144 8.0443 -16.0274
-19.8398 94.5916 -15.4894
94.6307 -19.6522 -5.2168
0.3539 96.6492 24.6123
76.6215 58.9095 -0.5867
1.6270 -96.6361 14.5320
-37.0256 -89.2765 -15.1889
84.1012 47.6254 -16.5295
-95.2457 -16.4148 10.0378
0.6362 96.6477 -22.6739
2.9551 96.6046 -4.0580
89.4773 36.5376 2.7096
74.5518 -61.5078 24.4372
-93.1055 -25.9334 5.6478
78.4607 56.4367 -16.0003
38.6514 88.5847 8.3330
95.9435 11.6633 -3.0856
-66.1296 -70.4844 -18.7504
68.4109 -68.2725 -23.9227
57.6335 -77.5858 15.5354
82.2793 -50.7081 18.4560
50.9620 -82.1222 -26.6557
75.5037 60.3355 24.6767
96.6497 0.1655 0.6934
-35.5082 89.8908 1.8447
87.5279 -40.9884 -16.3775
88.0633 -39.8251 6.1736
-74.6207 -61.4242 -6.5092
-56.0537 78.7348 7.7875
11.8896 -95.9157 19.5094
-27.3351 -92.7037 -5.6191
30.5778 -91.6852 -13.5033
48.7931 83.4291 3.3530
66.3653 -70.2626 19.3417
42.2349 86.9333 -4.8538
-66.5193 70.1169 1.4844
93.7450 -23.5172 5.2997
-95.2414 -16.4393 26.5739
-94.1732 -21.7393 -2.6402
-94.8391 -18.6208 -16.0301
-48.9908 83.3132 -6.8719
-95.0013 -17.7744 -0.7363
-64.2360 72.2144 17.0943
-94.5509 20.0328 -21.4695
-52.9430 80.8593 -3.7940
95.1484 -16.9695 21.9101
-14.3440 95.5795 -14.8042
-46.2952 84.8407 19.2052
77.1067 -58.2729 -26.8296
-57.9119 77.3783 -18.0404
-96.6485 -0.4952 0.3194
-41.0355 87.5059 17.3630
93.3031 -25.2134 -23.9299
-20.5827 -94.4327 10.6238
-96.4134 6.7553 -8.1290
-53.4742 80.5090 -0.0143
-85.7416 -44.6046 20.8832
-15.1656 -95.4526 17.9492
-95.1220 17.1170 15.3402
3.1292 -96.5991 13.8660
14.5740 -18.1360 27.3479
91.4666 21.3170 27.3479
25.3890 -56.6445 27.3479
-64.7901 18.0852 27.3479
25.9696 30.1904 27.3479
-94.0504 -7.3469 27.3479
-8.1724 8.6838 27.3479
-0.3127 15.9536 27.3479
-14.2774 6.8684 27.3479
0.7273 6.2019 27.3479
0.8410 11.1981 27.3479
-26.0865 12.3184 27.3479
0.1930 -0.1133 27.3479
-4.6510 0.4765 27.3479
-18.5837 -75.3938 27.3479
-55.0908 -44.1848 27.3479
-23.5762 57.2379 27.3479
9.4798 15.5549 27.3479
76.3655 -20.5000 27.3479
19.6826 -2.3699 27.3479
1.0334 -90.6849 27.3479
20.5065 -7.2192 27.3479
-19.5009 24.2904 27.3479
11.3892 -36.8563 27.3479
-8.0961 59.8585 27.3479
-18.6146 -76.4658 27.3479
39.4941 -29.1136 27.3479
11.5855 28.9768 27.3479
53.4705 8.0669 27.3479
73.5576 -12.0965 27.3479
-22.1931 -8.0434 27.3479
-3.9923 47.9568 27.3479
66.0911 -53.6190 27.3479
-10.8605 -14.4980 27.3479
94.6005 -11.4810 27.3479
-72.2512 -18.9661 27.3479
-51.8240 -37.1590 27.3479
65.9166 -35.3439 27.3479
-6.7999 25.5640 27.3479
39.6542 -0.5714 27.3479
40.7204 -28.7574 27.3479
44.7154 -36.4141 27.3479
-25.1537 -89.0208 27.3479
-20.2931 5.6284 27.3479
50.1596 -71.5173 27.3479
61.3878 8.5675 27.3479
-25.1300 -90.9066 27.3479
-24.6602 -62.5202 27.3479
-33.2275 4.5498 27.3479
53.2746 35.2723 27.3479
74.4159 3.7798 27.3479
23.9784 -28.9203 27.3479
68.8811 41.1914 27.3479
44.0012 -43.0615 27.3479
-6.4236 12.0706 27.3479
-39.3431 37.0693 27.3479
38.8064 39.3943 27.3479
49.4253 18.9825 27.3479
49.6525 -21.9507 27.3479
1.4751 1.9182 27.3479
-37.0759 -4.4323 27.3479
-8.3714 27.9389 27.3479
-18.8057 -11.4861 27.3479
-0.0656 -21.0144 27.3479
-0.9278 21.3218 27.3479
-11.0553 48.6732 27.3479
-2.3203 9.9342 27.3479
-38.0038 -73.0586 27.3479
-9.2216 48.0791 27.3479
-11.0380 31.5478 27.3479
13.0798 -89.0556 27.3479
-14.6241 -87.1458 27.3479
4.9079 -3.6103 27.3479
-2.0923 88.9605 27.3479
69.2667 18.3250 27.3479
-6.5561 28.9457 27.3479
56.2311 14.0233 27.3479
0.8878 -3.9472 27.3479
43.3597 59.9293 27.3479
1.0017 -2.3359 27.3479
13.3748 -1.7414 27.3479
-11.3686 -32.1443 27.3479
70.8900 -40.0617 27.3479
-23.8088 -40.5319 27.3479
-17.0353 -20.7615 27.3479
-25.5143 -42.6506 27.3479
-21.1608 -26.0139 27.3479
-89.1582 -23.2774 27.3479
37.8590 -40.8473 27.3479
-1.6347 5.1350 27.3479
50.8801 29.6518 27.3479
-28.6427 52.6182 27.3479
35.2890 -11.0145 27.3479
29.0964 -71.0145 27.3479
38.9700 76.4077 27.3479
-58.1282 31.3571 27.3479
29.6736 -62.2257 27.3479
-12.8719 -57.7275 27.3479
-6.5069 11.0931 27.3479
-7.1778 -1.6876 27.3479
-41.2859 38.5402 27.3479
-0.8847 5.5164 27.3479
6.5844 12.2638 27.3479
38.1627 -44.4124 27.3479
-24.4535 -4.9144 27.3479
-14.7699 -20.2525 27.3479
1.9144 -3.2374 27.3479
14.9995 3.7163 27.3479
-66.2194 -1.2569 27.3479
-15.7788 -6.0085 27.3479
5.0839 5.2881 27.3479
-85.3143 -42.7692 27.3479
-7.1200 39.0004 27.3479
-4.6181 41.8767 27.3479
18.5768 -21.0076 27.3479
72.7936 40.9872 27.3479
-93.1146 0.0153 27.3479
8.3588 -34.1609 27.3479
43.0763 -16.1158 27.3479
49.3618 30.2247 27.3479
1.0303 7.0363 27.3479
8.7992 -2.7838 27.3479
-42.6269 15.3369 27.3479
62.0444 3.9680 27.3479
46.9637 -28.6107 27.3479
-4.1809 -16.3700 27.3479
-7.8960 27.1501 27.3479
-63.0226 9.7637 27.3479
-39.4181 25.4908 27.3479
86.9133 -35.1867 27.3479
-17.5821 22.8547 27.3479
25.1178 -85.9720 27.3479
-13.7358 2.8140 27.3479
70.7326 -48.4961 27.3479
10.1048 6.1629 27.3479
1.1040 -2.3142 27.3479
64.3553 12.9951 27.3479
-83.2358 -1.0616 27.3479
-58.3208 -46.9017 27.3479
14.8080 -91.6790 27.3479
-19.3093 -8.8786 27.3479
-0.6998 6.1503 27.3479
-19.3617 4.1046 27.3479
-33.6928 23.9115 27.3479
-14.5996 -0.1137 27.3479
5.1460 -4.2238 27.3479
23.3280 -83.5912 27.3479
2.2169 92.8034 27.3479
-2.3293 66.4130 27.3479
44.4785 -48.5754 27.3479
-3.6097 6.1114 27.3479
35.2217 -7.8437 27.3479
74.5693 17.9056 27.3479
-19.1247 -51.4938 27.3479
0.1014 -0.1446 -27.3479
55.4713 1.2658 -27.3479
54.6780 -30.1239 -27.3479
-28.3156 34.7404 -27.3479
-31.6052 -0.4206 -27.3479
5.5182 16.3291 -27.3479
11.2735 2.9952 -27.3479
15.0567 -1.3346 -27.3479
-43.4369 -21.7766 -27.3479
-29.4723 -33.2281 -27.3479
72.8400 -11.9210 -27.3479
29.3032 1.8282 -27.3479
-34.5494 59.2538 -27.3479
15.7286 -87.3048 -27.3479
37.0209 -64.1045 -27.3479
55.6885 -47.3604 -27.3479
39.6882 -60.4549 -27.3479
4.8401 41.6837 -27.3479
43.2827 3.2202 -27.3479
3.8073 3.5023 -27.3479
-16.0694 54.4399 -27.3479
-63.4657 -47.5709 -27.3479
-10.9719 -76.8075 -27.3479
55.8245 -29.6945 -27.3479
-43.9307 -35.0846 -27.3479
25.7612 2.3169 -27.3479
30.8108 -6.9708 -27.3479
8.9679 -3.7077 -27.3479
-58.9293 1.1314 -27.3479
-80.0380 4.5900 -27.3479
34.5377 -41.3981 -27.3479
84.9046 37.3790 -27.3479
5.1596 18.6588 -27.3479
-31.9061 -20.7148 -27.3479
4.9489 6.6951 -27.3479
24.4022 -20.6916 -27.3479
62.3227 1.4058 -27.3479
27.5032 21.5374 -27.3479
-18.9665 62.1590 -27.3479
7.2296 -50.2820 -27.3479
-5.9735 6.8189 -27.3479
4.6050 4.7167 -27.3479
50.6357 -42.2411 -27.3479
22.1991 28.1923 -27.3479
-18.6994 85.6287 -27.3479
31.7417 -10.7878 -27.3479
37.4459 -9.6443 -27.3479
-48.7660 2.5574 -27.3479
9.4734 -76.1928 -27.3479
17.2327 -1.9883 -27.3479
32.5019 25.8422 -27.3479
-47.1770 4.2903 -27.3479
-64.8365 71.4820 -27.3479
38.1490 43.8879 -27.3479
39.4023 51.1063 -27.3479
62.7560 17.7962 -27.3479
0.4320 0.9685 -27.3479
32.5926 43.3564 -27.3479
67.7876 -63.8699 -27.3479
-0.0402 0.3760 -27.3479
-5.0197 -27.7729 -27.3479
-13.7873 12.3799 -27.3479
5.4783 -4.4536 -27.3479
10.9582 9.1704 -27.3479
-24.9802 -18.3520 -27.3479
43.3087 62.2269 -27.3479
-44.7099 -84.7780 -27.3479
-34.5386 -55.2137 -27.3479
9.8810 -1.3215 -27.3479
23.1084 31.5579 -27.3479
-21.6842 -94.1365 -27.3479
33.1226 -14.7040 -27.3479
-33.5188 -6.1742 -27.3479
23.6604 50.9346 -27.3479
8.6489 4.1184 -27.3479
32.3243 -18.4857 -27.3479
-37.4671 -54.2581 -27.3479
19.0294 -56.2660 -27.3479
10.9270 93.4270 -27.3479
51.9233 20.3606 -27.3479
-66.7357 -5.9762 -27.3479
43.3476 -19.5016 -27.3479
30.7466 -23.2507 -27.3479
-0.9603 53.0826 -27.3479
-17.6015 -27.0991 -27.3479
39.5108 27.0518 -27.3479
-25.2151 5.7506 -27.3479
7.0675 11.3480 -27.3479
26.3934 -17.2142 -27.3479
39.0619 2.7171 -27.3479
1.6097 0.4093 -27.3479
-3.2949 -95.3804 -27.3479
1.7780 3.2131 -27.3479
-2.0793 30.4060 -27.3479
78.3931 -20.4086 -27.3479
-42.4696 -20.7518 -27.3479
-1.3392 -1.4389 -27.3479
-37.5683 -16.9861 -27.3479
4.9165 14.8660 -27.3479
-1.9330 3.9729 -27.3479
-4.9491 2.2837 -27.3479
-15.2465 -23.6443 -27.3479
-42.0247 -37.5222 -27.3479
-11.1836 23.2388 -27.3479
-19.6922 78.6308 -27.3479
-52.2114 52.3831 -27.3479
37.3829 41.3458 -27.3479
28.9282 -72.6757 -27.3479
2.5560 -13.4227 -27.3479
5.6795 -9.8122 -27.3479
34.3629 -9.3241 -27.3479
-10.1042 26.4741 -27.3479
-16.6726 23.5536 -27.3479
77.8763 -14.3330 -27.3479
-57.9356 17.9939 -27.3479
-71.5944 7.7997 -27.3479
15.1275 -8.0922 -27.3479
51.2283 -20.1114 -27.3479
-55.7114 72.9882 -27.3479
-30.0646 -52.8890 -27.3479
90.1371 -0.5004 -27.3479
-25.9933 -53.1532 -27.3479
21.5461 -16.0709 -27.3479
39.9547 -23.9366 -27.3479
-21.7294 14.3349 -27.3479
40.0800 -2.1137 -27.3479
-34.7030 -16.0776 -27.3479
12.5114 -19.8033 -27.3479
82.4968 39.1015 -27.3479
59.2744 -15.6409 -27.3479
17.7562 9.4705 -27.3479
-32.1293 -44.4887 -27.3479
3.0924 -5.5358 -27.3479
-30.6531 12.3703 -27.3479
-75.0156 -24.5723 -27.3479
-8.0623 0.0351 -27.3479
12.3466 11.2936 -27.3479
-68.6350 22.3193 -27.3479
10.9647 -81.4510 -27.3479
75.8655 36.9855 -27.3479
-9.6878 -4.9515 -27.3479
-29.1703 21.9592 -27.3479
-43.4647 3.3960 -27.3479
6.0093 58.3277 -27.3479
-16.1959 -77.0756 -27.3479
-27.8510 -27.5985 -27.3479
1.7646 -1.3517 -27.3479
-31.4870 -86.3017 -27.3479
-2.9968 -81.3070 -27.3479
60.9425 38.1998 -27.3479
-14.7753 85.5100 -27.3479
-3.4722 0.6551 -27.3479
-54.4310 77.6066 -27.3479
81.0013 -25.2039 -27.3479
