ply
format ascii 1.0
element vertex 1024
property float x
property float y
property float z
end_header
80.1447 27.1913 -21.8918
-75.5959 -38.0499 -0.6657
-43.9003 72.3554 15.2245
-19.1056 82.4470 -25.3692
-81.7739 21.8076 28.5377
59.9704 -59.7167 17.1603
57.0966 62.4701 3.3792
29.0253 -79.4989 9.6557
-36.7080 -76.2565 -4.4101
-47.2467 -70.2160 -26.9175
81.3797 23.2353 -18.2527
8.0848 84.2447 -14.4753
65.3640 53.7595 -6.1999
-40.7644 74.1674 9.1901
-58.4972 -61.1606 29.4767
-10.1763 84.0177 -19.7643
-46.0554 -71.0030 0.8597
41.4701 73.7751 -16.3078
30.9837 78.7562 25.9650
13.0949 83.6126 18.3707
-54.7284 64.5549 -17.5388
22.1470 -81.6826 3.5592
8.4023 -84.2136 -22.0273
21.0397 -81.9748 -21.2549
-20.0826 82.2145 -21.1834
66.4397 52.4242 -20.9424
60.5380 -59.1412 6.7193
59.3827 -60.3011 22.6130
75.7426 37.7570 15.9460
84.0708 9.7279 12.3897
-80.4098 26.3969 -12.2344
67.5518 -50.9833 -5.4381
-26.0458 -80.5242 31.6097
-10.6551 83.9584 5.1412
29.0059 79.5059 10.0556
-18.7381 82.5313 -24.7245
83.9235 10.9260 6.2507
81.5172 22.7481 -12.9162
-31.4738 -78.5617 3.9037
1.8202 84.6122 3.4158
-84.2739 -7.7745 -29.8766
16.3899 -83.0296 6.4392
-81.3016 23.5072 -2.7369
-37.4002 75.9194 -19.5826
61.4908 -58.1499 14.8391
41.8697 73.5490 16.2326
-59.3240 60.3589 8.2732
82.8296 17.3721 -29.4592
72.0687 -44.3694 -20.5025
-84.3269 7.1769 16.7619
-79.5882 -28.7795 14.4531
-62.5152 -57.0472 -13.7512
-60.0531 -59.6336 17.1682
-28.5336 -79.6767 -16.3386
45.4989 71.3609 19.4164
4.2384 -84.5256 22.2823
83.8214 -11.6836 -9.9286
-57.0936 -62.4728 7.0142
24.6344 -80.9672 21.0747
11.4137 83.8586 -26.4109
-80.9020 -24.8476 10.9118
10.2393 -84.0101 28.9626
61.2839 58.3680 2.9825
-61.6839 -57.9451 -25.9021
-40.2469 -74.4495 -17.2517
23.6095 -81.2719 24.9481
44.7841 71.8117 -8.5205
-12.0694 -83.7667 -5.3875
19.6603 82.3165 -9.2291
61.6882 57.9405 9.9828
31.0952 78.7123 12.5473
-17.2816 82.8485 8.8302
-83.9559 10.6744 -2.0080
61.1405 58.5181 14.2821
84.1570 -8.9515 -26.4522
41.7174 -73.6356 0.6869
84.5633 3.4043 31.0517
16.5748 -82.9928 20.4047
84.1125 9.3606 3.9095
-84.5592 3.5048 -3.3698
-67.5743 -50.9534 -25.7476
-8.1285 84.2405 -4.4343
78.3083 32.0990 4.2998
6.6651 -84.3689 24.2356
48.3178 -69.4832 -5.2385
-8.8962 -84.1629 -22.8906
-84.6189 1.4731 -17.9003
82.9079 -16.9946 25.0409
-83.5071 13.7514 10.1115
-23.5200 -81.2979 -19.6685
51.1990 67.3884 22.2412
-82.5596 18.6130 -17.4333
-32.0678 78.3211 -16.9665
38.7734 -75.2274 28.3736
84.2611 -7.9124 12.1391
-63.6545 55.7731 24.4260
80.8724 24.9437 10.5299
30.0677 -79.1105 -1.4752
71.3579 -45.5037 27.8065
42.3323 -73.2838 12.7488
42.3082 -73.2977 5.9888
-62.6490 56.9003 3.2091
17.9898 -82.6977 -0.0759
82.6027 18.4209 17.6140
51.8715 -66.8722 14.6445
-48.9636 69.0297 -4.6744
8.4757 -84.2063 -6.1539
-76.5788 36.0309 -10.9915
-42.6842 73.0794 21.0460
-84.1732 -8.7983 -18.4674
-77.1293 34.8368 10.4700
62.4973 57.0668 -14.6580
-66.5594 52.2722 12.0156
76.6507 35.8776 4.5621
-39.8488 -74.6633 21.3052
73.2379 -42.4116 -29.2807
46.4146 70.7688 8.4490
20.2844 -82.1650 -7.2237
-83.8296 11.6245 4.2159
-84.1287 9.2140 10.1915
-62.7893 -56.7454 28.8175
-49.4441 -68.6863 -16.9754
-84.4885 -4.9217 -11.4052
-76.9765 35.1733 28.6770
-60.1326 -59.5534 27.8143
-65.1303 -54.0424 20.7056
-83.9652 10.6007 -24.5133
84.5164 4.4171 7.4463
-83.7633 -12.0929 9.5090
-58.4235 -61.2310 -13.7594
-79.2718 29.6398 10.3792
-60.9558 58.7105 10.3104
21.8750 -81.7559 24.0109
84.3644 -6.7222 29.7908
-20.6529 82.0731 20.4449
65.7444 -53.2936 2.4190
78.0493 32.7236 -16.3063
63.9309 -55.4560 1.9909
39.6136 -74.7883 22.6144
38.8546 75.1855 -30.2022
-84.5940 2.5295 14.7505
-40.1024 -74.5274 -29.8929
72.1300 44.2696 5.2468
34.1190 77.4495 -14.4402
84.4283 5.8647 26.9439
82.2168 20.0733 1.2672
84.6128 -1.7925 -27.6645
-37.7464 75.7479 -29.8772
-23.6126 -81.2710 21.9623
23.3017 -81.3607 -13.4272
18.6918 82.5418 3.0715
-60.6302 -59.0468 -13.1965
-73.0858 42.6733 16.4511
-31.2526 78.6499 14.9554
3.8361 84.5448 21.8098
-83.1177 15.9367 -18.2271
16.4997 -83.0078 2.9972
60.0473 -59.6394 20.7878
-45.5104 71.3536 6.3757
-75.2191 -38.7894 -23.4335
-84.5683 -3.2777 -17.8512
-3.1872 -84.5717 14.2529
-83.1805 -15.6059 -22.5977
-9.4862 84.0984 2.1430
-47.2826 -70.1918 16.3569
-82.1049 -20.5261 2.2882
-47.2978 70.1816 31.1850
79.9296 27.8171 27.1931
81.1579 -23.9985 22.1242
37.0970 -76.0680 6.7977
-51.7062 67.0000 -2.7633
58.4243 -61.2302 -9.5238
-20.5492 -82.0991 31.8190
68.7516 49.3534 -23.4299
67.8482 50.5881 -4.4896
-25.6269 80.6585 10.0313
-73.7158 41.5755 -0.4492
-76.5160 -36.1640 -20.3885
-72.4907 43.6765 -8.3393
-74.5862 -39.9929 28.4789
51.4063 -67.2304 -19.7002
-82.6143 -18.3687 2.8643
-28.4424 79.7093 18.2775
-5.1766 84.4733 15.0281
-11.9382 -83.7855 -8.3721
-84.3399 7.0224 31.3334
55.4968 -63.8956 4.7030
82.4677 -19.0160 -30.5407
-22.4684 -81.5948 -26.6348
40.2918 74.4252 -18.4020
81.7547 21.8792 31.3006
-29.4087 -79.3578 22.2805
2.0747 -84.6063 -19.7087
83.3725 -14.5453 -8.0070
14.7453 -83.3373 -8.2404
-80.2270 26.9474 -5.0474
84.4805 5.0573 16.6693
-74.9941 -39.2226 28.4956
43.5978 72.5381 11.3269
-3.5461 84.5574 -8.3522
59.6933 59.9937 6.4628
-35.8423 -76.6672 -23.6632
-65.7303 53.3109 1.2287
78.9541 30.4761 -29.7384
52.5497 -66.3405 27.6591
-76.5471 36.0982 -22.7391
79.6184 -28.6957 12.2742
-79.6900 28.4964 13.4291
51.8086 -66.9209 -16.6368
-34.8643 -77.1169 27.1694
80.9764 -24.6041 -16.4124
-37.4045 75.9173 -17.3750
84.4592 5.4016 -7.8052
40.4440 74.3426 -15.7413
-10.0462 84.0334 -9.6146
82.5359 18.7178 -6.1148
34.3099 -77.3652 -9.5023
84.6317 -0.1064 -26.9701
-55.4941 63.8979 -24.6588
82.1329 20.4137 0.3488
-30.4539 -78.9626 19.5049
-11.1193 -83.8981 -24.7608
-41.7085 73.6406 -11.4880
-81.4503 22.9867 -14.6864
-65.8407 -53.1746 -22.1068
-69.6212 -48.1189 -23.6234
78.7472 31.0067 25.7565
-58.2034 -61.4402 -21.2406
-83.9067 11.0547 2.2929
-84.5303 4.1435 -31.7405
36.6503 -76.2843 20.7817
80.2346 26.9248 -14.5109
38.2625 75.4885 16.0170
10.1000 84.0269 -11.0156
-4.5021 84.5119 11.9816
-29.0374 79.4944 -9.7098
83.2512 -15.2244 -14.9677
3.4585 -84.5611 -6.7715
-83.9964 10.3509 -3.1951
-84.5868 2.7576 2.3188
23.6066 81.2728 -20.5933
-33.0064 77.9302 20.2828
44.7375 -71.8408 14.2739
55.2178 -64.1368 26.9954
-41.1044 -73.9795 -10.9366
60.1200 -59.5661 20.8012
79.1199 30.0428 26.6990
-44.5221 71.9744 -31.6681
-2.0987 -84.6057 -23.8063
-1.8956 84.6105 12.6969
53.7382 -65.3815 7.5759
80.6004 -25.8092 -11.7282
-69.7927 47.8698 -5.6665
81.3296 -23.4100 24.0359
-84.1259 9.2398 -28.0989
81.6840 -22.1420 12.6838
8.0670 -84.2464 20.4234
82.0261 -20.8387 5.1179
-39.7070 -74.7388 5.8133
-35.6741 -76.7457 26.8985
59.4335 -60.2511 -18.7622
82.1435 -20.3712 -7.9652
82.0901 -20.5851 29.6506
-60.1996 -59.4857 -27.8294
-83.7517 -12.1731 22.6085
-3.3489 84.5655 -23.2714
84.6064 2.0728 -21.5256
-52.2487 -66.5779 -10.0573
-10.7015 83.9524 -2.4644
0.4095 -84.6308 -25.2597
64.2345 55.1041 -31.8743
-53.1861 65.8314 -4.5570
-62.2505 -57.3359 10.3950
19.6640 -82.3156 2.1616
83.9240 10.9226 2.2259
-54.3123 -64.9054 -21.2761
19.8093 -82.2808 -17.9402
74.5278 -40.1016 12.9671
58.6986 -60.9673 -3.8272
-84.1171 -9.3197 -13.3497
-49.6488 68.5385 15.4339
-81.3638 23.2908 22.1767
-51.4616 -67.1881 19.1911
-7.1227 84.3315 -17.2975
-61.5829 58.0524 24.9046
-62.2130 -57.3767 -11.8848
32.9227 -77.9656 5.5439
76.5325 -36.1291 30.3643
52.5384 -66.3494 -15.1162
47.2009 -70.2468 13.8079
48.5733 -69.3049 26.3470
-71.7108 -44.9455 -27.5792
38.8766 -75.1741 -26.3167
7.7152 -84.2794 1.1264
41.7852 73.5971 25.7829
40.5600 74.2793 -4.5212
-81.5470 22.6413 7.1445
76.9898 35.1440 -1.9338
80.4316 -26.3305 -15.3265
57.6833 -61.9288 25.5171
-76.2680 36.6841 -2.9124
-78.3110 -32.0925 4.4159
18.0833 -82.6773 -23.9861
-23.0074 -81.4444 -12.9817
-49.9294 68.3344 19.6427
-65.0511 -54.1377 11.7362
-59.1504 -60.5290 4.5918
-56.4624 63.0439 29.2118
-67.1565 -51.5028 -4.1983
15.1415 -83.2663 -5.5204
30.5576 78.9225 -10.0773
79.2935 -29.5818 -17.6023
-32.8174 78.0100 2.4013
-69.7088 -47.9919 -31.6403
25.7439 -80.6213 20.2538
-36.8195 -76.2027 -9.6953
-40.5896 74.2632 1.7863
33.7152 77.6262 -0.2318
8.2945 84.2243 -27.8630
35.5301 76.8124 -0.2943
-9.1001 84.1411 20.1676
5.8944 84.4262 -1.5250
-51.2630 -67.3397 17.1365
-83.8630 11.3810 6.1824
-64.0654 -55.3006 16.7185
-77.6021 -33.7706 28.3952
-27.0507 80.1922 9.8030
60.9057 -58.7625 -28.3801
70.6794 46.5506 -21.7295
-84.6196 1.4352 -7.4967
82.5411 -18.6951 -16.8227
-30.3124 79.0171 -27.9375
-45.9036 -71.1013 28.8747
-25.3926 80.7326 29.6346
53.7229 65.3941 -22.3759
-84.6293 -0.6494 29.7443
-82.3073 -19.6990 -15.0233
31.6126 78.5059 10.8158
66.7174 52.0703 28.2164
84.5538 3.6319 -18.2169
-3.8862 -84.5425 -20.8492
-71.2156 -45.7261 -9.6899
67.1734 51.4808 -26.6827
5.5589 -84.4490 -4.5563
19.0518 82.4595 10.7239
-9.1432 -84.1364 -26.7069
17.6607 -82.7686 -17.1611
68.9409 -49.0886 -4.4575
46.7542 70.5449 -26.9560
-63.9763 55.4036 -0.0725
-13.0585 83.6182 -30.9339
81.0997 24.1945 29.3829
30.0807 79.1055 -1.9335
-39.1551 75.0294 -1.1047
-7.7604 -84.2752 24.1624
-67.4957 -51.0575 24.0352
-84.3879 -6.4205 11.7253
-75.3456 -38.5433 -17.0533
1.3977 -84.6202 15.0747
-9.3787 -84.1105 -5.3585
60.8263 -58.8447 25.6423
11.9472 -83.7843 -11.5490
75.9013 -37.4370 -24.7494
70.4842 -46.8456 -31.2186
-15.0424 83.2842 12.0013
32.7667 -78.0313 -1.0776
13.7944 -83.5000 -11.0044
82.7425 -17.7822 -29.9897
-84.0948 -9.5181 -23.3490
15.2989 -83.2375 -8.2071
74.0258 41.0210 -13.3437
-83.6144 -13.0833 -6.5318
70.8682 -46.2627 26.2367
40.7384 -74.1816 12.1791
54.8041 -64.4906 -28.7363
56.2977 63.1910 3.5536
-56.3157 -63.1750 28.1268
33.2209 77.8390 -26.8117
-6.3961 84.3897 13.1147
69.0633 -48.9163 -5.4122
-79.1273 -30.0233 -3.3131
82.6741 -18.0976 7.0954
-19.7889 82.2857 27.1099
-65.6263 53.4389 -9.6879
-77.6137 -33.7440 25.6030
-68.5134 -49.6836 -5.4736
41.6785 -73.6576 -28.9936
-8.8666 84.1660 30.0483
-72.2517 44.0706 -11.5439
75.8217 37.5979 -6.2587
-15.5561 -83.1898 -30.0689
84.5660 3.3354 -25.8833
-83.0820 16.1217 10.5013
-84.6317 -0.1292 23.0156
28.0262 -79.8565 2.2666
-83.4043 14.3618 17.7835
-8.3826 -84.2156 -3.3558
84.0455 9.9444 -26.4588
-59.4822 60.2031 28.3732
-84.6316 0.1559 -4.3501
-79.4689 29.1072 26.0962
-81.7090 -22.0494 21.1852
74.4893 40.1732 13.2293
82.9153 -16.9586 22.6146
64.9128 -54.3035 -7.0394
83.1956 15.5252 3.2801
82.1856 20.2005 -25.6307
-0.6376 84.6294 -8.9061
52.6979 -66.2229 11.2238
82.3430 19.5490 0.4970
-81.2871 -23.5574 -8.9896
-10.7840 -83.9419 -20.7462
-81.3634 23.2923 -10.9005
68.5004 49.7014 31.6133
41.7239 73.6319 -2.9401
82.5826 18.5107 -28.3885
58.7305 -60.9365 4.1334
55.9315 63.5153 -19.1646
36.5085 76.3522 -7.4734
-71.6266 -45.0796 -5.8637
-23.5166 -81.2988 15.7321
68.2205 50.0850 -15.0323
-40.7978 -74.1490 1.7778
51.5259 67.1388 -8.8337
40.3801 74.3773 4.1385
25.6148 80.6624 -23.3007
80.6316 25.7115 24.7288
4.0709 84.5338 -23.2947
-11.5242 -83.8435 16.3124
-10.3698 83.9941 -11.0645
-27.5993 80.0051 -18.9907
-64.1690 55.1803 -12.0082
-12.3237 83.7297 -3.1099
37.5764 75.8324 22.9128
-46.0867 -70.9827 -7.6858
84.4924 -4.8547 21.3339
84.6064 -2.0725 -17.5638
35.4088 76.8684 3.3236
83.3515 14.6652 27.8370
-65.5049 -53.5878 -5.7739
-56.6882 -62.8409 -9.1590
39.2205 -74.9953 18.5535
24.5500 80.9928 3.6937
-7.9872 -84.2540 23.8032
81.8361 -21.5728 7.8004
43.8460 -72.3883 12.0520
33.9456 -77.5257 -22.8962
-58.1820 61.4605 -0.7807
34.8669 77.1157 1.5340
-57.0799 -62.4853 11.9055
-31.4378 -78.5761 28.9271
53.2591 -65.7724 8.8744
33.0892 77.8951 -23.8464
-37.0421 -76.0948 -18.1592
-78.9456 30.4980 3.6164
78.2539 32.2315 -13.0010
55.1021 64.2362 3.5460
-51.3770 67.2528 1.1388
67.0376 51.6575 -0.3271
-55.2305 -64.1258 -11.1959
80.2643 26.8361 21.8078
84.6256 -1.0175 -25.5673
17.5167 82.7992 -22.2031
-38.7129 -75.2585 -8.1355
-46.4231 -70.7632 29.3014
70.7148 -46.4969 12.9958
-75.6275 37.9871 6.1650
41.2404 73.9038 -24.3663
80.3694 26.5198 -24.0673
-83.3789 -14.5083 -7.8046
40.3551 74.3909 -9.8452
83.2988 -14.9617 19.8045
-78.9696 30.4359 -31.9445
35.3899 76.8771 9.0680
17.9064 82.7158 8.0624
46.2823 70.8554 18.4798
75.4002 38.4363 0.2954
79.3899 29.3220 -19.1232
-21.0580 81.9701 -27.4808
-15.6635 83.1696 29.5868
-47.0321 -70.3599 -9.6884
84.5869 -2.7564 27.2909
18.2905 82.6317 -5.5811
17.3574 -82.8327 -25.3618
71.1739 45.7909 13.8907
25.6312 -80.6572 -29.2203
-20.0209 -82.2296 -4.5292
-9.8500 -84.0566 -9.6665
-83.3020 -14.9436 -5.8508
-77.6839 33.5819 3.7723
83.0177 16.4497 31.2275
-76.5228 -36.1496 14.1801
-84.5954 2.4801 -26.4952
-59.3027 60.3798 -19.2053
-83.0934 -16.0632 3.1658
55.1857 64.1644 7.1878
38.1154 -75.5629 29.2531
-4.7723 -84.4971 30.9916
47.0788 -70.3287 14.8656
-22.4879 -81.5894 -1.6593
6.5828 -84.3754 10.1390
32.3813 -78.1920 -21.5948
74.2144 40.6787 12.9126
29.8810 79.1812 19.5323
73.8796 41.2837 -20.5666
-38.3775 -75.4301 -14.7514
71.6506 45.0414 -21.0618
-49.6321 68.5506 0.1380
-75.3523 38.5300 10.0920
37.3403 -75.9489 24.1385
-68.0853 -50.2686 15.4496
-34.0145 -77.4955 -17.2267
-81.4054 23.1452 10.9764
14.7483 83.3368 28.3768
-84.5861 -2.7789 2.8762
83.8478 -11.4929 -10.7353
84.5017 -4.6904 -7.7050
-55.7275 63.6944 25.9409
36.2612 -76.4700 -1.9363
-25.5915 -80.6698 -7.0168
-84.2111 -8.4273 -28.3659
-73.8464 -41.3430 30.3952
-72.9104 42.9723 11.8099
-34.0711 -77.4706 24.9251
66.5987 -52.2221 -12.0318
82.9730 -16.6737 -18.6506
-36.1588 76.5185 -27.4063
67.8193 50.6269 -13.4742
78.5454 31.5144 -9.0215
-63.4482 -56.0077 1.1937
-84.3826 -6.4888 -17.5435
59.5876 -60.0987 -18.2520
-26.7873 -80.2806 -25.2082
-73.5565 41.8567 23.3616
-60.0758 -59.6107 0.0819
83.2167 -15.4118 -28.0411
-19.9290 82.2519 13.5132
64.7507 54.4966 8.6659
-84.4639 5.3284 9.1111
83.4208 14.2656 -17.7953
82.9484 -16.7959 4.9533
24.8406 80.9041 2.1078
14.3672 -83.4033 -18.6049
-60.2905 -59.3935 -15.2533
-84.4181 -6.0096 -21.8279
-28.6326 -79.6411 21.9549
-68.0665 -50.2940 -23.3251
0.1546 -84.6316 13.1737
-58.5631 61.0975 -7.7402
33.4992 -77.7196 -2.2175
-18.1504 82.6626 -23.5280
78.5186 -31.5810 13.6993
-83.7229 -12.3700 30.2989
53.2472 -65.7820 31.8332
-50.7393 -67.7352 -9.7107
-67.2801 51.3412 -16.1947
84.6306 -0.4459 6.1011
-44.6295 -71.9079 14.6815
80.4233 -26.3558 28.3056
26.2665 80.4525 -18.9205
84.2461 -8.0705 7.2011
26.6304 -80.3328 -23.7956
70.4936 -46.8315 -30.4163
-80.4009 -26.4241 26.0494
43.1037 -72.8327 -6.5613
-73.8249 41.3813 24.6643
4.9803 84.4851 -4.2602
-51.3868 67.2453 7.8090
-69.3372 -48.5271 21.1049
-70.8188 -46.3383 11.5761
-77.9058 33.0638 -25.5047
37.2308 -76.0027 28.0047
44.6439 71.8990 -18.2519
8.4073 84.2131 -26.4239
58.7879 -60.8812 11.6625
83.0519 -16.2765 -29.0959
61.3259 -58.3238 2.6899
-53.0717 65.9237 -14.0049
37.5997 -75.8208 -21.9682
71.6333 45.0689 15.2791
-40.9418 -74.0696 -15.2416
-79.8813 -27.9555 -22.0543
84.3866 -6.4376 6.3139
72.9145 -42.9652 14.9369
77.0414 35.0308 14.3739
64.8019 54.4357 23.7135
17.2389 -82.8574 7.7556
76.7036 -35.7643 -21.5723
56.1044 63.3627 -22.9964
-52.6839 -66.2340 -28.7368
83.8641 11.3731 -27.8967
83.6158 -13.0741 -27.0130
80.2228 -26.9599 -13.7545
22.6720 -81.5384 20.5721
53.1559 65.8558 11.8657
62.6618 56.8862 16.2120
-71.9191 -44.6114 -1.8299
-6.3444 -84.3936 29.0592
-82.1719 20.2564 5.3287
49.2292 -68.8405 0.6496
69.5107 48.2783 -30.3835
35.5881 76.7856 -21.8688
82.7454 17.7689 22.9777
-73.3638 42.1935 0.1189
-78.9252 -30.5507 -19.0280
-18.9479 82.4834 6.2828
14.8872 -83.3121 -18.1471
14.6050 83.3620 22.6606
82.5726 -18.5551 -20.4472
-74.4748 40.1999 -23.2980
-84.0702 9.7329 -21.2068
78.5643 31.4673 -30.5288
-21.7668 81.7847 -13.0579
-82.0301 20.8229 -29.3112
31.9929 -78.3517 -0.1903
-84.5808 -2.9373 18.0661
62.2893 57.2938 -21.4284
8.2583 84.2279 25.7892
-40.8849 74.1010 8.5806
-77.8430 -33.2114 29.2357
-28.3655 79.7367 24.3574
-82.3353 -19.5813 -11.6326
82.9929 16.5743 10.5284
77.7601 -33.4051 31.0381
73.1894 42.4952 27.3410
-75.1261 38.9693 -4.7384
-64.7566 54.4896 -16.0586
82.1751 -20.2432 -25.6874
-65.0519 54.1368 2.4631
45.0364 -71.6537 2.2156
67.3946 -51.1909 8.0477
84.2619 7.9038 -24.4248
-0.4385 -84.6306 -23.4046
77.6619 33.6327 12.5516
-84.5555 3.5931 10.7991
-50.4541 67.9479 27.1550
-6.8276 84.3559 -31.0382
84.2573 -7.9527 -13.2047
-8.4926 84.2046 -31.8086
70.6725 -46.5610 -0.6628
-27.4054 -80.0717 -4.6665
-40.0194 74.5720 -3.2366
80.0967 -27.3323 -12.7251
12.2636 83.7385 -19.0069
-32.2121 -78.2618 -18.1710
-81.8395 21.5599 -16.2866
-84.4699 5.2321 17.6342
34.6316 -77.2217 28.5147
66.8782 51.8637 16.9159
-67.3690 51.2246 -11.7923
81.1329 -24.0830 -1.2837
18.2419 -82.6424 -12.8023
-30.5584 -78.9223 22.4456
62.1752 -57.4176 -2.8198
60.9524 58.7140 16.6518
-83.6369 -12.9382 -5.4357
18.6952 82.5410 -27.4865
81.3714 23.2643 -25.0688
22.3260 81.6338 4.2277
64.2445 55.0925 -31.3034
-26.3566 -80.4230 12.8351
-84.1894 8.6418 29.4731
78.9840 -30.3985 -2.4818
3.8585 -84.5438 14.6655
-30.3104 -79.0178 -1.4096
-64.4706 54.8277 -24.1916
67.2778 51.3443 5.1029
-57.1539 -62.4177 13.5577
-33.7805 77.5978 26.2582
84.1060 9.4193 -31.4963
75.1754 38.8741 4.7717
-78.4281 31.8052 22.8212
26.2478 80.4586 14.0341
72.1178 -44.2895 6.6742
-13.9077 -83.4812 -3.1467
-83.4279 14.2237 6.3964
84.6269 -0.9077 -11.5313
49.4876 -68.6550 3.9386
51.6346 67.0552 5.3658
-80.7158 -25.4459 10.5400
-84.6299 0.5652 -21.0338
-78.0213 -32.7905 23.3529
47.7720 69.8596 -21.3861
-71.7804 -44.8342 27.3156
28.8973 -79.5455 -4.6288
-20.9575 -81.9958 -22.7103
-57.7119 61.9021 1.1590
32.5025 -78.1417 22.9450
84.6128 -1.7933 16.0634
-73.5202 41.9203 31.7567
80.3175 -26.6764 8.5024
-30.7313 -78.8551 -25.5145
83.1068 15.9938 6.9799
12.7521 83.6655 -27.4516
-82.6694 18.1194 -4.8997
76.7754 35.6101 15.0157
-35.7466 76.7119 11.8921
-79.9046 27.8889 24.6370
-40.0448 -74.5584 17.2515
-81.0054 -24.5082 -2.3289
43.0083 72.8891 0.7552
62.8248 56.7060 -4.2072
-6.7772 -84.3600 -1.8713
-47.9007 -69.7714 -23.1522
40.9227 74.0801 -1.7280
-72.6731 -43.3723 -4.9068
24.0702 -81.1367 -23.5141
54.7670 -64.5222 20.5098
78.9783 -30.4131 20.7231
60.4014 -59.2808 -7.4696
41.2920 73.8749 -12.5911
-79.7320 28.3785 -6.0570
3.4631 84.5609 23.4215
53.6910 -65.4203 -8.6363
-66.0151 -52.9580 26.4350
11.1079 -83.8996 11.2676
-3.7494 2.3108 32.0842
-39.8608 -73.1688 32.0842
-57.0026 -35.8877 32.0842
-16.1771 -61.0533 32.0842
-34.2732 24.7115 32.0842
-4.3762 31.4489 32.0842
-32.5892 -76.1296 32.0842
-26.0783 -37.4853 32.0842
21.8027 -7.1161 32.0842
-34.7885 -73.6108 32.0842
-15.8020 6.9495 32.0842
-18.6729 61.1391 32.0842
14.4155 0.5645 32.0842
36.0932 -22.4514 32.0842
0.0258 2.2232 32.0842
51.1731 13.4055 32.0842
-28.8697 -77.6670 32.0842
-3.6835 -68.0179 32.0842
15.9727 16.4038 32.0842
-5.6127 22.4575 32.0842
25.1422 -9.0046 32.0842
-1.1686 71.5796 32.0842
14.3034 54.5689 32.0842
-50.5204 -15.3833 32.0842
2.6959 5.8219 32.0842
18.7771 -43.3228 32.0842
9.0761 58.7216 32.0842
17.2777 -1.9242 32.0842
-30.9761 -56.1240 32.0842
-79.4286 21.6570 32.0842
-15.2440 -54.7424 32.0842
54.3562 33.1403 32.0842
-17.7003 -52.3183 32.0842
-59.5246 25.5193 32.0842
39.8320 6.4508 32.0842
14.6704 19.5803 32.0842
-25.8344 75.1901 32.0842
34.1605 46.6107 32.0842
14.3423 -11.8669 32.0842
-28.3287 16.6044 32.0842
-44.0044 9.8842 32.0842
45.9420 28.8581 32.0842
13.5262 -4.3504 32.0842
39.4875 67.6069 32.0842
62.3418 20.6232 32.0842
35.6700 -30.9644 32.0842
0.9416 24.5981 32.0842
-21.4807 -6.4685 32.0842
12.9247 4.7366 32.0842
-11.7250 21.2575 32.0842
-0.4295 -3.8251 32.0842
-25.4476 -52.8689 32.0842
-48.4136 -15.7514 32.0842
-26.9477 0.0781 32.0842
2.0006 -78.1159 32.0842
-6.6407 48.5923 32.0842
27.8491 -15.0787 32.0842
-2.4330 -5.5607 32.0842
78.3787 -19.9913 32.0842
21.0793 0.1258 32.0842
-5.9708 15.4374 32.0842
31.2661 73.1635 32.0842
70.7130 -15.3985 32.0842
54.3469 -25.0147 32.0842
-11.5973 18.2948 32.0842
-40.0432 -23.2361 32.0842
-1.4001 4.3664 32.0842
-22.9729 80.7719 32.0842
1.6919 -31.1188 32.0842
-0.1607 -0.1820 32.0842
-39.1339 11.1897 32.0842
69.6773 -12.3138 32.0842
-22.9971 66.1839 32.0842
35.1767 -25.5813 32.0842
-9.1887 -31.3528 32.0842
19.4060 46.5428 32.0842
-37.6471 -2.5407 32.0842
18.9672 3.4502 32.0842
-40.9785 -28.9262 32.0842
80.8341 -16.1116 32.0842
-12.3183 45.3419 32.0842
13.5841 -45.5155 32.0842
-12.9687 -16.3720 32.0842
-16.8689 9.5616 32.0842
-6.0913 3.1755 32.0842
13.2533 -4.5565 32.0842
9.4647 -78.5219 32.0842
55.5031 -43.2393 32.0842
-61.6054 -44.2632 32.0842
11.6606 20.3438 32.0842
-29.3020 27.3736 32.0842
66.4607 -31.3619 32.0842
40.3485 -68.7964 32.0842
10.3395 -4.3495 32.0842
-25.6736 1.7147 32.0842
15.9464 -0.3911 32.0842
45.6720 -8.7339 32.0842
13.1539 8.3795 32.0842
24.8632 -36.0962 32.0842
0.1200 -0.7693 32.0842
-1.5057 -0.5470 32.0842
53.0502 -48.3039 32.0842
-27.1564 -6.7979 32.0842
-0.4625 -13.8862 32.0842
12.9447 -1.8550 32.0842
47.3496 -2.2510 32.0842
43.6013 -52.1406 32.0842
-24.2869 28.0153 32.0842
-12.2668 -59.3994 32.0842
-0.6825 0.8376 32.0842
-11.2038 -28.5474 32.0842
-38.2203 -35.4365 32.0842
-7.7395 41.2648 32.0842
5.3101 -32.3512 32.0842
26.1272 24.4415 32.0842
41.0782 30.0581 32.0842
-78.6027 3.6800 32.0842
11.6378 -19.2852 32.0842
-60.1907 -52.0910 32.0842
-20.1661 -6.9797 32.0842
-3.8405 2.2357 32.0842
34.5290 -14.8579 32.0842
-35.2565 31.5906 32.0842
-1.4761 -3.3687 32.0842
2.6705 -5.7802 32.0842
30.2022 -64.6765 32.0842
13.0722 -26.8160 32.0842
16.6308 -54.2596 32.0842
1.8051 -19.8656 32.0842
-25.6295 -67.1541 32.0842
-25.5177 -21.2441 32.0842
21.3936 -12.7895 32.0842
-17.6703 45.8515 32.0842
-50.0815 28.1842 32.0842
-31.8581 -62.3269 32.0842
-3.0583 -57.7581 32.0842
14.1710 -41.8431 32.0842
-22.2282 -21.5673 32.0842
32.7316 61.6390 32.0842
-45.8628 49.6910 32.0842
22.2100 -26.1006 32.0842
-29.9257 -61.8974 32.0842
4.7943 9.5657 32.0842
-5.9910 8.4613 32.0842
15.2293 -63.6368 32.0842
45.7991 3.9960 32.0842
3.1143 -7.2123 32.0842
24.7860 -2.3560 32.0842
-8.8406 16.3379 32.0842
-20.0035 10.1933 32.0842
6.4522 -6.1730 32.0842
-52.1961 4.2470 32.0842
58.7697 -10.7008 32.0842
-29.2173 -22.6862 32.0842
0.7272 11.4172 -32.0842
-10.5636 -15.3471 -32.0842
-3.5254 32.9508 -32.0842
-38.3575 -43.1540 -32.0842
-50.2549 -32.3790 -32.0842
-43.3749 -24.6572 -32.0842
-65.2791 -8.9712 -32.0842
-0.2872 0.9543 -32.0842
-67.3256 -44.1532 -32.0842
27.6789 28.8812 -32.0842
-20.2763 -4.9281 -32.0842
50.7041 -16.8692 -32.0842
33.1067 -2.6458 -32.0842
2.7616 2.8621 -32.0842
-8.6668 26.3114 -32.0842
40.3744 -31.9104 -32.0842
-23.9309 -5.0511 -32.0842
-44.3126 -1.7548 -32.0842
-0.6111 -19.3248 -32.0842
4.3605 13.3045 -32.0842
-58.1033 -8.1113 -32.0842
-0.4627 -45.7302 -32.0842
-30.0589 -13.4270 -32.0842
-4.5487 -10.1060 -32.0842
74.0348 31.9471 -32.0842
-37.6985 -19.8124 -32.0842
-21.4309 -15.6996 -32.0842
62.7152 43.3981 -32.0842
-58.0529 55.6680 -32.0842
-54.3171 -7.3770 -32.0842
-3.2182 -60.7930 -32.0842
-36.5588 23.4901 -32.0842
37.1236 24.6264 -32.0842
9.4509 -15.1864 -32.0842
1.4740 -2.2908 -32.0842
80.4457 24.3461 -32.0842
59.7681 -5.4500 -32.0842
-58.5084 4.9446 -32.0842
4.9531 -8.7901 -32.0842
51.1782 -9.2636 -32.0842
6.4697 28.9301 -32.0842
2.0324 -0.1939 -32.0842
17.2560 71.7264 -32.0842
-0.0544 -8.0423 -32.0842
-13.8143 24.3044 -32.0842
-10.7987 13.1372 -32.0842
9.5150 52.3751 -32.0842
-3.0507 2.1117 -32.0842
-69.0913 -3.6826 -32.0842
8.7225 2.0947 -32.0842
25.0419 56.7020 -32.0842
-75.2905 35.5887 -32.0842
11.1265 12.7672 -32.0842
10.8290 -51.1049 -32.0842
-2.3194 0.4767 -32.0842
6.0115 7.6266 -32.0842
-48.5328 18.9742 -32.0842
14.9486 82.4495 -32.0842
34.0361 66.5425 -32.0842
-0.9424 1.3607 -32.0842
14.7595 10.6219 -32.0842
-33.1779 -13.0674 -32.0842
-2.2309 5.5653 -32.0842
-1.9869 4.0431 -32.0842
16.7673 -0.5924 -32.0842
19.0836 -8.8294 -32.0842
-20.4440 -0.8151 -32.0842
37.7764 -10.5628 -32.0842
-21.6099 -79.1897 -32.0842
28.4866 47.2201 -32.0842
-2.5453 -1.5765 -32.0842
34.8562 -8.6888 -32.0842
0.4991 12.7309 -32.0842
8.7045 3.2717 -32.0842
49.1261 -51.3666 -32.0842
-20.3571 0.1389 -32.0842
-2.9793 8.8303 -32.0842
-7.4385 17.9723 -32.0842
28.6659 2.7110 -32.0842
78.6305 -5.8984 -32.0842
-1.1716 -19.5029 -32.0842
-26.9005 -10.1709 -32.0842
-6.4425 28.5494 -32.0842
12.6527 -62.7364 -32.0842
-10.8240 43.6034 -32.0842
-22.7166 -13.5390 -32.0842
-61.9324 -13.4398 -32.0842
15.0769 -80.7815 -32.0842
2.3342 32.9942 -32.0842
-16.1471 81.2189 -32.0842
-38.7550 -28.5664 -32.0842
-58.8721 52.0490 -32.0842
49.5969 12.7729 -32.0842
32.6649 7.0369 -32.0842
-30.4936 37.1678 -32.0842
-16.8999 -6.3279 -32.0842
-17.9211 34.2311 -32.0842
57.9109 16.3203 -32.0842
41.2781 53.9234 -32.0842
31.4924 -27.8713 -32.0842
4.5235 2.2638 -32.0842
-9.3246 60.2911 -32.0842
-23.9790 -52.7736 -32.0842
8.2138 -3.2877 -32.0842
-23.0494 6.4127 -32.0842
-22.4669 -9.7846 -32.0842
-36.5293 18.8337 -32.0842
74.4020 -29.2767 -32.0842
-11.7073 -5.2606 -32.0842
-5.5440 4.5608 -32.0842
-3.6749 -0.0661 -32.0842
12.5907 -14.9304 -32.0842
-49.8777 -42.2759 -32.0842
-27.5970 33.5145 -32.0842
0.0140 0.2780 -32.0842
19.6738 -10.1901 -32.0842
-0.8618 -0.2291 -32.0842
-1.4575 13.0237 -32.0842
-0.1461 -4.8699 -32.0842
-24.8162 -41.4201 -32.0842
-4.3125 34.6731 -32.0842
-2.2909 -33.3721 -32.0842
-36.8192 -30.8223 -32.0842
14.5332 58.8548 -32.0842
3.7967 -3.1470 -32.0842
7.4548 14.1188 -32.0842
-10.6060 18.4854 -32.0842
14.0307 -33.1392 -32.0842
-63.8355 2.7247 -32.0842
-1.2771 2.7178 -32.0842
9.0011 -9.5524 -32.0842
3.3308 -13.7927 -32.0842
4.8212 -4.0259 -32.0842
-0.6721 72.4899 -32.0842
2.7186 -38.9499 -32.0842
21.1768 33.5540 -32.0842
-44.3334 56.3436 -32.0842
29.7894 5.5472 -32.0842
65.7878 -29.4348 -32.0842
-1.5727 1.2659 -32.0842
-39.1156 -2.5947 -32.0842
71.4486 -31.1908 -32.0842
41.8730 -54.4825 -32.0842
40.1476 -64.8609 -32.0842
-55.9725 48.4627 -32.0842
12.0592 30.7034 -32.0842
-39.7677 -18.2306 -32.0842
70.0229 -19.0997 -32.0842
-18.5569 40.2394 -32.0842
-13.2223 53.9749 -32.0842
58.5453 27.6841 -32.0842
-26.6922 17.9445 -32.0842
-24.6593 -0.4235 -32.0842
-34.3049 51.6486 -32.0842
