ply
format ascii 1.0
element vertex 1024
property float x
property float y
property float z
end_header
-69.3396 16.4229 33.6838
55.3747 44.8480 -44.0236
15.8776 69.4665 -51.0548
26.2946 66.2291 1.2336
-68.1735 20.7383 29.2703
-70.8760 7.3679 -2.9899
-66.3853 -25.8975 15.5794
-36.3583 61.2844 -1.5569
-18.5279 -68.8070 -37.4637
24.6060 -66.8748 -7.3276
63.5011 32.3311 -20.3203
-66.0395 26.7672 -20.3165
-49.7251 51.0403 34.7114
61.7116 -35.6283 -12.6366
43.7798 -56.2230 21.4999
-45.9456 54.4673 7.2699
-37.2502 60.7463 -39.2274
59.6596 -38.9670 36.4163
18.0805 -68.9260 12.1171
13.8654 -69.8960 45.3280
-70.9340 -6.7869 29.6029
-61.6726 35.6957 -36.2049
-67.2585 -23.5369 17.3789
-70.3665 11.2362 35.3695
-68.5830 -19.3409 37.8792
41.3325 -58.0458 19.7667
-69.0505 17.5990 41.9065
-58.2188 41.0885 -11.0625
42.6985 57.0485 32.8579
62.5234 -34.1837 43.8702
-70.6238 -9.4856 -40.8303
-38.0915 -60.2224 2.5017
-12.6124 70.1329 -5.7328
-8.8025 -70.7122 -35.7623
-18.6907 -68.7630 47.6139
-27.4721 -65.7493 -16.3099
31.3768 -63.9780 43.5154
7.8755 70.8214 5.4384
-67.0250 24.1938 -41.7419
5.5770 71.0394 15.4856
0.2355 71.2576 -23.6202
68.6522 -19.0939 -41.2179
10.5518 70.4724 34.4327
-24.9560 66.7450 -10.0685
38.0639 60.2398 -18.7995
-34.1555 62.5387 -19.9227
65.2803 -28.5688 41.2011
-68.5366 19.5047 38.4748
45.3220 -54.9873 -38.6285
68.0445 21.1576 16.7495
-70.6750 -9.0959 7.5604
-8.9933 70.6881 -41.2742
52.2658 -48.4353 -39.6539
-65.8709 27.1795 -18.3408
-69.2572 -16.7671 9.1488
31.3970 63.9682 -10.9365
39.6345 59.2182 -18.4212
-14.7535 69.7139 43.7638
7.7317 -70.8372 32.7106
55.3136 -44.9232 -5.4036
41.0755 -58.2280 15.1818
-51.9880 48.7334 21.6407
63.2684 -32.7842 -14.6159
-63.5269 -32.2804 13.6516
-38.0873 60.2250 18.4544
-10.9937 -70.4048 16.0019
66.0184 -26.8192 -21.0591
55.2151 45.0443 -2.8142
36.9200 -60.9476 -23.2902
-51.0259 -49.7398 35.6120
28.0182 -65.5185 -10.6587
-32.6524 63.3365 29.4111
-27.0423 -65.9273 -38.4055
43.1341 56.7198 -15.6286
3.0495 71.1927 40.3828
1.5437 -71.2412 38.0587
-49.6285 51.1342 -41.7043
13.9164 -69.8858 -38.7377
-64.7745 -29.6977 -2.5656
48.4577 -52.2451 25.1409
59.2569 -39.5768 -16.9732
-42.1975 -57.4201 -28.9040
-70.3871 -11.1060 -33.5633
15.9575 69.4482 -3.4081
16.0798 -69.4200 -9.2838
-69.6929 14.8522 -21.2349
-56.5071 -43.4124 -19.6359
47.5762 -53.0491 -12.6799
30.3114 64.4896 37.1504
-70.5660 -9.9064 45.5219
-71.2407 1.5694 9.9879
28.3764 -65.3642 8.5749
70.4868 10.4548 -31.5474
-56.2852 -43.6998 -34.7827
39.2864 59.4498 12.4760
31.3147 -64.0084 20.8656
12.6234 -70.1309 6.7624
-69.5815 -15.3658 41.1320
60.9740 36.8764 24.1146
-41.2458 58.1075 36.1132
24.3317 66.9751 26.2951
-71.1126 -4.5492 -35.2693
-71.2555 -0.5869 -1.4868
23.0180 -67.4379 9.9024
69.0353 -17.6584 10.1915
28.3972 65.3551 -31.1796
4.7123 -71.1020 -38.6875
69.1714 17.1174 25.7663
-46.4453 54.0419 -40.9490
-61.8873 -35.3221 34.0301
61.9685 35.1795 9.6369
-19.4151 68.5620 24.5169
-3.9156 -71.1503 -38.2072
37.7702 60.4244 -4.0355
-16.9241 -69.2190 32.9387
70.9988 6.0715 -28.2455
-66.2585 -26.2202 -47.9200
62.1188 34.9135 9.1095
67.5388 22.7203 -24.2708
-62.2873 -34.6119 -11.0830
-43.1982 56.6711 34.8977
-25.9144 -66.3788 35.0566
-46.3464 -54.1267 0.7038
67.8987 21.6210 -46.6378
12.2432 70.1983 -26.3492
-71.2560 0.5242 22.2099
12.0289 70.2353 -21.4766
67.7396 -22.1142 -7.1143
-10.8812 70.4223 12.4884
46.1663 54.2805 -2.7261
70.5461 -10.0467 -17.6457
-21.9709 67.7862 37.7515
-62.3189 -34.5551 4.3326
45.4860 54.8518 7.4552
11.6689 70.2960 27.2565
-57.1317 42.5872 7.5167
-54.1887 46.2739 -18.1629
-8.1195 70.7938 43.8531
-68.0110 -21.2650 -15.9163
-57.1268 42.5938 -7.2572
-62.9582 33.3761 -43.4240
65.2312 28.6807 48.6427
64.3541 30.5982 -19.0621
70.7893 8.1587 -7.2843
54.4369 45.9818 -3.1176
70.3850 11.1193 34.3466
17.2815 69.1306 29.5658
13.6495 -69.9384 37.3267
62.1115 34.9264 -31.6900
37.2739 60.7318 -16.5687
70.8045 8.0260 -33.1707
13.9838 -69.8724 47.0123
18.7147 68.7565 23.2043
-16.8103 69.2467 -12.6875
-57.9551 41.4596 -0.4061
-59.2427 39.5979 -6.3270
-7.1659 70.8967 47.8124
69.5338 15.5804 -40.0639
-64.6380 -29.9936 -31.4856
38.2194 60.1413 5.9213
-26.3602 -66.2030 -33.4947
23.7130 -67.1966 17.4275
28.9022 -65.1334 49.8355
-62.4758 -34.2704 -47.0314
-42.6175 57.1090 32.3402
49.6986 -51.0660 -17.9636
-67.4899 22.8649 42.3735
-70.2162 12.1401 -11.6124
-18.7036 -68.7595 -40.3890
-71.2528 0.8591 39.1954
-70.9449 -6.6718 -7.8805
-51.5741 -49.1712 16.9452
71.2102 2.6090 37.6029
34.9942 -62.0733 36.8814
56.0732 -43.9715 12.9584
54.9078 -45.4184 18.0130
68.6621 -19.0582 -12.5494
-61.5883 -35.8409 29.0553
-22.0622 67.7566 -23.8964
-68.9433 -18.0143 32.1642
65.7594 27.4481 45.1150
45.0643 -55.1987 -8.0715
-66.5083 -25.5800 34.5369
40.9828 -58.2933 8.0268
5.3228 -71.0589 -39.1927
31.8838 63.7269 50.3957
-56.4148 43.5323 -42.2155
20.3140 68.3011 1.2391
-70.8871 -7.2602 -24.6291
-51.0598 -49.7051 34.8875
45.5408 -54.8063 -47.3773
27.6980 -65.6545 -19.2516
35.3363 61.8793 -33.4895
18.2235 68.8883 -19.6418
-26.1960 66.2681 -25.8765
-66.9052 24.5232 7.3420
-30.9668 64.1775 32.5927
-71.0581 5.3328 5.9044
68.9892 -17.8379 29.7410
57.8916 -41.5483 -9.1883
41.5506 57.8899 29.0263
-60.4945 37.6578 -24.4898
71.2542 0.7326 -0.8528
71.1976 -2.9313 17.2308
-46.0268 54.3988 34.9506
63.5086 32.3165 13.1251
-48.2050 -52.4783 -13.4937
67.7946 21.9451 -27.3629
69.8918 13.8863 0.5222
-7.1302 70.9003 15.2976
61.2024 -36.4960 -50.5528
4.8330 71.0939 41.4728
69.5128 15.6739 22.8598
-3.9608 71.1478 -47.9067
64.1717 -30.9787 -26.2182
-36.8129 -61.0123 33.7720
32.7518 63.2852 -5.7289
-62.9610 33.3708 -47.8291
10.4222 -70.4916 -12.2084
-50.5609 50.2125 -43.5089
-70.4067 -10.9815 -7.3538
-70.3120 11.5725 23.8013
-31.9398 63.6988 -35.3077
66.7055 -25.0614 -15.5131
-54.5649 -45.8297 -4.9252
-65.6054 27.8140 -3.6093
-59.1789 -39.6932 13.8500
-35.1132 -62.0061 2.3818
-56.6509 43.2247 31.8536
59.0546 -39.8779 3.4219
-34.1865 62.5218 -28.8791
70.7194 -8.7441 -40.5700
64.6172 30.0385 10.5208
-45.9868 -54.4326 -7.7401
-47.5302 -53.0902 -34.0642
68.0284 -21.2092 -16.0658
55.0917 45.1951 18.0062
23.3717 -67.3161 33.7045
-68.0624 -21.0998 -30.6952
-70.2732 -11.8058 41.6331
-43.2941 56.5978 50.5164
-65.8246 -27.2913 15.2263
-64.7299 29.7948 37.4497
69.2072 -16.9723 -9.1350
-63.0011 -33.2949 -33.6416
58.4216 40.7997 25.7376
-71.0516 5.4194 -13.0180
-47.6096 -53.0191 10.0180
7.2124 70.8920 14.4856
0.1918 -71.2577 -1.8654
-48.5593 52.1506 -15.2128
-50.9630 -49.8043 34.6706
42.4848 57.2078 0.7563
-26.8436 66.0085 42.6203
-59.1983 39.6642 38.2543
62.5715 -34.0954 45.6196
-18.6911 -68.7629 -29.2430
-39.6323 59.2197 -39.0402
41.2114 58.1319 -3.6950
59.4755 -39.2474 20.7314
22.5633 -67.5914 26.5866
-67.6845 -22.2824 -16.5665
69.0070 17.7686 14.8013
-71.2136 -2.5146 -17.7308
-39.4583 59.3358 -15.5277
16.9740 69.2068 -27.4435
69.4667 15.8769 -11.7720
40.7319 58.4689 -22.3350
-71.1604 3.7281 26.9107
-68.7823 -18.6195 43.4726
70.6677 -9.1528 -24.7769
-71.1173 -4.4743 0.3816
-23.1366 -67.3973 4.4632
42.0483 -57.5294 18.5771
68.1683 20.7551 36.0322
49.8039 50.9634 35.4542
15.6222 69.5244 -39.0980
-8.7896 -70.7138 26.3999
-40.7874 58.4301 33.5672
65.6470 27.7157 32.1598
54.0530 46.4324 34.1279
-13.4317 -69.9806 29.6979
-49.7060 51.0589 -4.3787
-49.7846 -50.9822 31.4822
51.7657 48.9695 29.1138
42.9704 -56.8440 -21.2348
-0.5223 -71.2560 40.0867
-59.3372 39.4562 31.4036
-52.4822 48.2008 -49.7850
-22.0714 -67.7536 -1.5723
-64.4193 30.4607 -20.2040
-56.9243 -42.8640 -5.6093
66.4302 25.7822 25.1641
70.9050 -7.0835 45.1367
-71.0959 -4.8024 -10.1366
43.1879 -56.6789 -21.2909
67.0107 24.2334 6.6361
-53.7743 -46.7549 47.9680
-50.8943 49.8745 12.5075
-36.8808 -60.9713 28.7509
-55.2827 -44.9613 10.8556
67.1038 23.9744 45.7343
-60.7030 -37.3208 36.9269
70.9978 -6.0836 -35.8862
-68.6772 -19.0034 31.8646
-63.1732 32.9673 16.9250
-69.8086 14.2986 -21.5795
62.6490 -33.9529 -11.4667
-65.7306 27.5168 -15.6296
-45.8591 -54.5403 39.5933
-31.1584 64.0847 -12.5049
-39.6283 59.2224 -16.3395
1.4123 71.2439 -36.2548
-1.2648 -71.2467 -38.5982
-34.7645 62.2023 45.7142
-25.1031 -66.6898 1.1187
24.9165 -66.7597 16.6719
71.1610 3.7152 40.2537
-10.2305 70.5197 49.0660
71.2249 2.1683 -45.3373
26.6885 -66.0713 -9.3703
2.0737 71.2278 4.9543
64.7646 29.7194 43.4467
66.8132 -24.7729 -23.2048
10.0166 70.5504 -39.8468
-10.5452 70.4734 -10.7845
26.1123 66.3011 -46.2320
46.8773 -53.6676 14.9222
70.8096 7.9810 -0.2860
-70.7637 8.3782 42.2474
46.3881 54.0910 -5.7548
-8.8400 70.7075 -13.2224
-70.6654 -9.1703 -43.4561
-65.0783 29.0260 3.2401
60.3859 -37.8317 -50.2651
-59.6601 -38.9662 -50.6285
63.6389 32.0591 10.8674
-67.2640 23.5212 -20.0090
-53.9556 46.5455 -38.1172
-30.0963 64.5903 3.3944
-33.9404 -62.6558 5.4034
-65.9731 26.9303 -41.0889
-44.8686 55.3579 -16.8600
68.0684 21.0804 -38.2704
-7.4949 70.8627 -29.8739
21.5838 -67.9105 43.9739
-14.7568 69.7132 -44.2314
58.1857 -41.1354 -8.9821
24.6803 66.8474 36.2348
71.0924 4.8547 42.1592
-49.1386 -51.6052 -42.3698
-48.3625 52.3332 -45.3371
39.8364 -59.0826 -1.7491
15.2907 69.5981 44.2196
42.6189 57.1080 -49.7306
-54.5596 45.8360 4.9020
-26.2364 -66.2522 43.5114
70.7574 8.4314 -39.4024
-57.9544 -41.4607 -20.8249
-39.8553 59.0699 17.0875
-22.6096 67.5759 49.6531
-47.9217 52.7371 -2.8933
29.0251 65.0787 35.9061
-32.5128 63.4083 28.1973
53.3088 -47.2849 -10.2556
56.2162 43.7885 8.4668
-55.6208 -44.5423 -19.8948
1.5275 71.2416 -22.5881
66.5599 -25.4454 15.9001
42.7807 -56.9869 -31.3092
56.0432 44.0097 -50.7749
-70.0591 -13.0158 -39.5973
28.0206 -65.5175 19.1096
-3.6560 71.1641 -16.5694
62.1808 34.8029 -26.4336
70.2384 12.0106 13.7072
62.5372 -34.1584 -49.9795
52.1318 -48.5795 10.8110
8.7830 70.7146 -20.9078
22.0085 67.7740 47.9047
24.2577 67.0019 38.5089
-71.1450 -4.0107 36.6034
-36.2163 -61.3684 -0.8698
-47.1287 53.4470 -9.8395
-48.7707 51.9530 -25.1214
70.1023 -12.7813 -48.7750
44.3327 -55.7880 -21.1703
48.2529 -52.4343 13.6654
-56.0714 43.9737 10.5609
-45.0225 -55.2328 -28.7187
-66.6789 -25.1321 -29.2885
26.4570 -66.1644 -1.2556
-25.6072 66.4979 -25.4855
-47.7139 -52.9252 -8.1705
-64.0209 -31.2894 43.2684
55.0455 -45.2514 24.9850
-51.4160 -49.3365 31.9333
-0.5587 71.2558 15.5829
-34.9158 -62.1175 -45.7892
-22.9028 67.4771 18.1025
-36.8122 -61.0128 45.0814
-12.2811 70.1917 -49.0228
66.9563 24.3834 -29.5166
-68.4438 19.8277 -15.8694
1.4980 71.2422 49.3781
36.9946 60.9023 49.1273
-25.2885 -66.6197 49.7483
-37.1063 -60.8343 -11.2423
-22.5390 -67.5995 24.9287
-65.6847 -27.6264 -7.4069
-47.9808 52.6834 33.3868
-16.3534 -69.3560 39.1221
51.7460 48.9902 -28.8814
-65.1400 28.8874 -27.4755
30.2034 64.5403 29.0829
-13.4364 -69.9797 -15.7829
29.0492 65.0679 35.2781
61.5583 -35.8924 -11.2353
68.2247 -20.5690 -9.7319
33.0764 63.1161 -51.1500
-15.5077 -69.5500 51.1512
42.7820 -56.9859 29.6394
-15.9880 -69.4412 -28.1514
-54.2951 -46.1491 41.5715
64.1034 -31.1199 33.1002
65.1241 -28.9232 -16.4775
-29.4725 -64.8773 42.3710
-19.6977 68.4813 36.3080
54.0668 -46.4163 -29.1939
69.4440 15.9758 13.1862
-11.0091 -70.4024 -22.1737
-71.0073 -5.9719 -34.5303
-29.2815 64.9638 -32.1607
-27.7453 65.6345 -10.3811
-24.2322 67.0112 -37.7527
-30.9913 -64.1657 -0.2314
48.1158 -52.5601 21.3064
24.8759 66.7749 -49.9536
1.2477 71.2470 -25.4676
62.9036 33.4789 36.6357
-60.1493 -38.2068 -20.6641
69.1837 17.0678 -49.3041
-50.9046 -49.8640 43.2062
-59.8614 -38.6563 -2.1376
67.0778 -24.0470 -40.6555
-43.6891 56.2935 13.4085
-43.0760 -56.7640 32.0737
68.9169 18.1152 -34.8516
67.9703 -21.3946 -33.8220
-71.1920 3.0642 -50.3849
70.6141 9.5575 27.8042
-63.0774 -33.1502 -36.1068
14.2220 69.8243 39.6974
-42.7904 56.9796 -6.0589
48.5944 52.1180 -40.6209
49.9374 50.8325 49.6100
-46.8802 -53.6651 14.7227
55.3436 44.8863 29.8891
-34.1293 62.5531 8.7846
0.6864 -71.2546 9.4925
38.4462 -59.9965 -3.2947
38.0834 60.2275 41.8171
70.0700 12.9570 2.7028
-70.0879 -12.8598 17.2113
54.8913 45.4384 25.3478
68.1558 -20.7963 -6.5490
48.3008 -52.3901 9.4382
-71.1948 -2.9990 -2.3959
-31.1978 -64.0655 12.9798
-65.3873 -28.3231 35.9396
52.0527 -48.6643 -1.0907
-70.0780 -12.9141 -34.9486
47.0912 53.4800 49.3450
62.6862 33.8841 34.3987
-30.0114 -64.6298 -27.2362
66.9376 24.4346 6.9030
-25.5977 66.5015 4.4733
-9.6079 70.6072 -39.8356
-8.2126 70.7831 21.2554
38.3539 60.0556 39.2169
31.4143 63.9597 46.4192
-16.0819 69.4195 1.1124
46.5270 53.9716 -2.1056
14.1648 69.8359 9.1439
-71.2574 -0.2763 -1.1275
54.6059 -45.7809 14.8521
68.4127 19.9349 -0.9590
-69.0837 -17.4684 3.3385
68.0605 21.1059 -2.3877
60.5355 -37.5919 -0.1797
-65.1103 -28.9542 -1.8258
70.1170 -12.7003 27.5748
-63.6322 -32.0723 4.9936
35.9020 61.5527 51.4249
17.6352 -69.0412 3.8738
1.3602 71.2450 24.2851
-16.6416 -69.2875 -20.8941
59.7739 -38.7914 -38.8705
5.9285 71.0109 10.1342
-70.8831 7.2994 -8.6585
47.0974 -53.4746 51.4719
-25.1769 66.6620 -14.0741
-32.2399 -63.5475 -14.3498
29.8326 -64.7125 35.4924
-56.3315 43.6401 -24.2971
2.9352 71.1975 23.0898
-6.6632 70.9457 -0.8878
3.6233 71.1658 35.3510
24.4522 -66.9312 -27.1302
45.6843 54.6868 15.3133
-60.8387 37.0991 37.7327
19.7902 68.4547 -19.2085
-6.0095 71.0041 2.9380
-35.6258 -61.7130 17.4960
-54.5519 45.8452 13.5080
-47.2933 53.3014 -33.4768
-63.3880 -32.5524 -34.2676
-35.9580 61.5200 42.7809
-20.6245 -68.2080 -31.1548
11.7624 -70.2804 -15.4350
34.1683 -62.5318 -48.7461
57.3481 -42.2952 -40.3830
20.8013 -68.1542 -42.2945
-32.8637 -63.2272 -18.4165
0.9057 -71.2522 -30.5474
-58.0100 41.3828 -39.2344
-67.9956 21.3141 18.8855
7.8898 70.8198 38.1730
-55.4219 44.7896 16.4230
-13.0397 -70.0547 31.2670
-9.3741 -70.6387 -12.8483
13.6736 -69.9337 -28.4249
40.5175 -58.6176 31.8573
-62.3761 34.4517 -16.0368
42.9568 56.8543 12.7043
25.2817 66.6223 27.2306
71.1344 4.1950 -29.7080
-54.2165 -46.2413 -32.5069
-3.4312 -71.1753 -46.5550
-33.9161 62.6689 -23.8455
61.2357 -36.4401 19.6447
68.8267 -18.4550 -19.8039
-15.9232 69.4561 2.5840
61.3477 36.2512 -27.9902
64.6703 -29.9240 -0.3893
-66.3382 26.0181 -33.4357
70.5258 10.1888 43.4516
15.4867 69.5547 -9.7804
-68.0215 21.2313 30.9805
-66.8899 -24.5648 43.3807
-6.6969 -70.9426 -14.1082
42.5766 57.1396 -38.5992
-66.2223 -26.3116 27.3134
-3.8774 71.1524 -47.5549
23.3312 -67.3301 35.8924
-35.8830 61.5638 2.5574
-30.5316 64.3857 31.4255
-6.9683 -70.9164 -41.7529
-52.2301 48.4738 -40.6042
4.0456 71.1430 50.0896
-47.0876 53.4832 -36.5323
35.1519 61.9842 -50.4936
26.5085 66.1438 10.3164
70.7774 -8.2614 -27.7629
-71.2573 -0.3104 24.1130
-47.5508 53.0718 -1.1675
63.0786 33.1479 -29.1371
39.0291 -59.6190 27.0483
70.5733 -9.8540 -14.9532
-26.2117 66.2619 20.7693
-21.9737 -67.7853 -49.2782
43.4696 -56.4632 -2.8497
64.8289 29.5788 4.5223
30.5030 64.3992 39.4932
-2.4940 71.2143 10.0841
61.5090 -35.9769 18.2153
-5.3478 -71.0570 -4.6054
-2.5430 -71.2126 17.7609
-67.7490 -22.0853 5.7813
-61.5699 -35.8726 -33.3042
-52.0738 48.6417 -0.0928
-6.7173 70.9406 7.0340
-13.9821 69.8727 -22.2493
52.4729 48.2108 18.1377
-55.7313 -44.4040 -15.8866
-70.8822 7.3081 -37.5542
69.2387 -16.8432 -32.8751
-53.1988 -47.4086 14.4631
32.6969 63.3135 16.9909
-29.1501 65.0228 -46.1086
-34.8444 62.1575 34.5238
71.2275 2.0840 19.9233
-55.9936 44.0727 -47.1788
-71.1032 4.6938 16.8436
33.5182 -62.8826 47.3985
-69.7031 14.8047 -44.1292
-56.7156 -43.1397 20.2350
45.7850 -54.6025 -3.8651
35.3599 -61.8657 -41.6444
-63.1696 -32.9742 -12.9604
-44.9095 55.3248 -10.5855
30.2455 64.5206 12.7252
-53.3074 47.2865 19.9560
-70.7090 -8.8280 -22.9067
-42.9680 -56.8458 -4.1011
-43.3355 56.5661 6.7903
-61.8405 35.4041 -12.6939
69.9495 13.5929 35.6087
4.1755 -71.1355 -40.4931
70.3112 -11.5769 45.6269
69.2230 -16.9075 46.6312
64.4800 30.3320 27.4808
-20.3456 -68.2917 -14.2206
-52.7991 -47.8534 30.6423
-45.2856 -55.0174 36.5201
-36.9550 -60.9264 -26.9263
-64.3793 -30.5451 -17.7633
-64.7266 -29.8021 -20.0376
63.8023 -31.7325 50.0335
-14.4567 69.7761 5.2864
31.3315 -64.0002 46.6533
-53.9030 -46.6065 9.5454
-29.7917 -64.7314 -11.3053
-71.2296 -2.0108 -48.5291
-7.7816 70.8318 36.8409
42.0538 57.5254 -34.0914
62.6436 33.9629 -44.2242
67.8162 21.8783 20.5482
-59.8697 -38.6434 -44.1550
28.0966 -65.4849 44.1756
-31.8853 63.7261 2.9481
-68.2747 -20.4025 -18.9620
12.1129 -70.2209 -28.0572
6.5060 70.9603 -30.6734
-62.1929 -34.7814 -3.7915
18.5184 -68.8096 -36.5217
11.1249 -70.3842 -16.2772
-51.8253 -48.9064 -40.3671
71.0517 -5.4172 -40.5295
65.3390 -28.4343 -26.6416
-7.1991 70.8934 23.5233
67.0035 -24.2533 5.6743
-56.4198 -43.5259 -36.1059
50.9371 49.8307 -17.8445
-66.3057 26.1007 -0.9503
-48.5742 -52.1368 -49.5827
67.5602 22.6564 -9.9704
23.7395 67.1873 47.3899
-68.5803 -19.3504 -13.8676
34.5371 -62.3288 -34.7334
9.5040 70.6213 -21.0426
-54.7975 45.5514 24.7062
-18.8272 -68.7258 6.3032
-56.5239 43.3906 25.1317
35.9618 61.5179 -10.9380
-48.0426 -52.6271 12.6442
-18.6345 -68.7783 -20.8382
-70.4833 -10.4788 9.7064
25.0695 66.7024 32.4828
-47.4672 53.1466 -50.1904
-70.7596 -8.4127 26.6797
29.9525 64.6571 41.2058
-46.4826 -54.0099 -30.9962
12.1162 70.2203 38.9459
21.0883 68.0660 18.4165
-51.9565 48.7670 33.3547
64.7457 -29.7604 14.7043
68.8339 -18.4279 -24.9165
42.4238 57.2531 -13.8996
64.9874 29.2289 37.1802
54.1570 -46.3111 -14.6793
-31.7470 63.7952 2.4848
-58.1121 -41.2393 -30.7078
-34.9431 62.1021 20.0015
-67.4002 23.1280 -50.9422
71.2056 -2.7304 -28.7456
25.2523 66.6334 -35.2536
-37.1250 -60.8229 17.2094
-47.5052 -53.1126 10.0161
6.1918 70.9884 -7.9911
65.1994 28.7530 45.4764
-43.0695 -56.7689 -4.3901
-65.8630 -27.1986 -9.1300
-37.1577 -60.8030 -11.9047
-23.5494 -67.2541 -17.9658
0.3187 -71.2572 -12.5922
51.0671 49.6975 -5.4165
-70.5280 10.1730 -3.6140
-68.0097 21.2690 -30.3913
-69.0229 17.7067 -37.4715
-8.6067 -70.7363 -48.9724
68.7664 -18.6782 -13.2686
71.2559 -0.5341 25.6134
29.9518 64.6575 25.4170
-54.3723 46.0581 15.7195
70.7664 8.3553 -3.9793
71.2558 -0.5551 49.2638
-19.6362 68.4990 -15.5490
71.2005 2.8603 -5.6327
-39.6705 59.1942 27.5217
-15.2873 -69.5988 -47.8993
-61.2454 36.4239 36.3477
-69.0000 -17.7959 -25.2279
28.1817 65.4483 -31.5032
-70.1724 12.3907 50.2232
-49.0401 51.6988 -19.3776
-56.5496 -43.3571 -48.6454
7.6061 -70.8508 -13.4209
1.9991 -71.2299 51.5404
68.3171 20.2601 -23.7917
-59.5504 -39.1337 4.8495
62.5769 -34.0855 28.9353
56.2859 43.6988 14.2238
31.5326 63.9014 -51.5415
42.0167 57.5525 25.7633
-49.1679 -51.5773 -35.4971
-1.8425 0.5553 51.6148
-44.7417 -18.3575 51.6148
4.6765 23.0459 51.6148
-8.3669 8.9165 51.6148
38.1050 39.6432 51.6148
-5.9381 -5.6875 51.6148
-39.0595 -11.0962 51.6148
11.8035 7.4841 51.6148
12.8107 -54.7598 51.6148
-3.0949 22.6559 51.6148
-19.2184 -61.3421 51.6148
-0.9685 -30.8875 51.6148
-28.7879 -40.5601 51.6148
19.6628 55.2099 51.6148
28.5711 -55.9033 51.6148
-1.2322 0.5496 51.6148
-25.5108 -26.8243 51.6148
-68.4052 16.1657 51.6148
-25.0235 -10.3031 51.6148
-7.3263 12.5113 51.6148
-45.0836 3.7411 51.6148
-21.9217 -39.6609 51.6148
-65.9563 18.6857 51.6148
-55.5598 33.7045 51.6148
3.7721 5.3435 51.6148
-11.8576 41.1634 51.6148
20.7770 2.3668 51.6148
-49.8182 -30.9706 51.6148
48.2902 30.1746 51.6148
-14.7610 -16.9957 51.6148
17.0282 -35.5102 51.6148
-39.2544 11.0920 51.6148
-37.4284 54.7225 51.6148
23.3311 59.0465 51.6148
58.9444 17.9526 51.6148
-48.6767 7.3279 51.6148
42.0041 27.0565 51.6148
-29.7999 -19.5295 51.6148
-21.6027 62.7543 51.6148
-14.8217 -8.3201 51.6148
46.0740 -29.2771 51.6148
48.9389 22.3532 51.6148
16.0599 -2.9164 51.6148
-10.0733 -4.0048 51.6148
32.4842 -6.2368 51.6148
3.5682 37.5754 51.6148
-54.6125 -30.5849 51.6148
4.7679 -20.5133 51.6148
-1.2772 -3.2579 51.6148
20.6046 63.4526 51.6148
41.2004 21.0788 51.6148
-61.9782 -17.1591 51.6148
-4.3079 -44.8367 51.6148
49.3388 -2.6822 51.6148
34.8107 56.9299 51.6148
-17.9466 -66.6788 51.6148
-5.3333 20.9262 51.6148
38.7568 18.7718 51.6148
3.6628 7.9096 51.6148
34.1546 49.1380 51.6148
-3.2691 12.0987 51.6148
45.6773 -10.2896 51.6148
9.3660 -5.5319 51.6148
-55.4582 1.4373 51.6148
52.9600 44.4905 51.6148
-20.1077 15.6171 51.6148
-52.3287 -35.1500 51.6148
-14.1551 -12.2523 51.6148
-45.6118 23.7067 51.6148
40.8982 -12.6966 51.6148
-28.1378 35.3333 51.6148
11.5886 -8.7574 51.6148
-13.2828 -46.0935 51.6148
16.0328 -10.6119 51.6148
24.9315 0.6941 51.6148
-2.2535 2.8406 51.6148
-19.8415 -23.4138 51.6148
-0.1538 1.8404 51.6148
-0.5495 6.5002 51.6148
-36.6183 -0.9112 51.6148
11.5289 -13.7309 51.6148
27.2218 -10.9575 51.6148
-41.0972 10.7459 51.6148
16.7001 -31.9353 51.6148
-27.1913 -35.2045 51.6148
-8.3110 -35.8508 51.6148
24.8264 20.5736 51.6148
-50.7862 7.7668 51.6148
6.4361 -13.1311 51.6148
43.0611 45.9691 51.6148
-11.9461 19.4381 51.6148
-5.9965 13.5911 51.6148
-3.2998 13.6350 51.6148
-25.2378 24.2982 51.6148
42.6688 -49.8421 51.6148
-12.8017 -69.9462 51.6148
-50.7651 42.2617 51.6148
-31.4903 13.8447 51.6148
26.7048 -38.7412 51.6148
4.8649 1.4783 51.6148
-59.4977 37.5117 51.6148
27.0284 -17.3490 51.6148
45.6170 -44.3958 51.6148
-18.5033 -59.9009 51.6148
19.1402 21.1384 51.6148
-38.0489 33.1558 51.6148
-66.5596 -22.8938 51.6148
-3.0776 -58.1794 51.6148
39.0689 9.4289 51.6148
-9.2011 0.4331 51.6148
40.9649 -33.5805 51.6148
33.9976 52.6690 51.6148
-38.2939 -7.7423 51.6148
17.8136 53.6422 51.6148
-6.9877 -11.1389 51.6148
-24.4728 -1.0405 51.6148
-9.4520 -25.1832 51.6148
-24.6126 2.3559 51.6148
-2.3203 6.7266 51.6148
11.1309 -6.4280 51.6148
9.6601 19.7003 51.6148
-0.9116 29.8165 51.6148
61.8657 -17.3213 51.6148
27.3341 16.5199 51.6148
-9.0280 -47.3936 51.6148
20.9190 20.6603 51.6148
-33.7083 -27.9709 51.6148
0.7988 -13.0524 51.6148
11.7224 -7.8898 51.6148
-1.2980 -8.0068 51.6148
-16.5925 -60.7925 51.6148
-16.7345 1.3467 51.6148
-0.0358 25.0652 51.6148
11.3513 4.2999 51.6148
-5.6670 -57.2898 51.6148
-14.8001 -28.8981 51.6148
-0.8835 1.0877 51.6148
-15.6240 -41.7962 51.6148
-10.9045 12.7525 51.6148
-2.4298 0.7788 51.6148
-0.6357 0.4542 51.6148
-9.1140 11.8970 51.6148
32.5307 -52.1454 51.6148
-5.1016 8.0159 51.6148
38.8731 2.1017 51.6148
-10.0504 60.9639 51.6148
16.3937 -62.5817 51.6148
49.8989 -31.1653 51.6148
17.9248 -5.6637 51.6148
-67.8339 -18.6214 51.6148
13.0472 16.7774 51.6148
3.4152 57.5549 51.6148
-13.1203 -43.7864 51.6148
-7.7447 20.4105 51.6148
8.4859 -23.8061 -51.6148
44.4601 -1.3027 -51.6148
-19.0392 22.7701 -51.6148
4.1191 6.9337 -51.6148
57.9842 19.1105 -51.6148
27.4904 -39.2649 -51.6148
45.3471 25.5631 -51.6148
-35.9785 -44.0674 -51.6148
-9.3370 -35.9577 -51.6148
-14.1063 -27.9391 -51.6148
23.2858 -38.7109 -51.6148
15.3428 4.4819 -51.6148
27.0276 25.5329 -51.6148
-57.7271 21.2197 -51.6148
51.0305 9.6567 -51.6148
8.5066 2.4225 -51.6148
-6.6389 -57.2834 -51.6148
26.1587 47.1766 -51.6148
-20.5589 -3.3735 -51.6148
48.3866 26.9151 -51.6148
7.2274 -65.5643 -51.6148
-1.7235 58.3830 -51.6148
-34.6432 59.1070 -51.6148
55.8499 -22.9230 -51.6148
-45.6399 1.2524 -51.6148
5.2418 0.6297 -51.6148
-30.5859 54.2032 -51.6148
30.5813 53.6287 -51.6148
-0.3663 25.7013 -51.6148
-35.1719 -6.6824 -51.6148
14.3214 66.0754 -51.6148
43.1800 5.7612 -51.6148
-5.0368 4.7774 -51.6148
-51.6876 -4.8395 -51.6148
5.8945 34.6705 -51.6148
-20.8939 -39.3927 -51.6148
20.7186 40.9517 -51.6148
6.1955 19.9690 -51.6148
19.0522 1.7740 -51.6148
28.0710 57.9443 -51.6148
7.0163 -45.5898 -51.6148
-28.9055 -5.0716 -51.6148
5.5710 -9.0434 -51.6148
29.3379 25.1150 -51.6148
-9.5243 -6.0760 -51.6148
11.5248 -7.1956 -51.6148
-20.6282 -26.4088 -51.6148
-23.8499 -11.1077 -51.6148
37.7652 4.5766 -51.6148
-37.6206 22.6791 -51.6148
-45.8431 14.6497 -51.6148
14.7349 13.6137 -51.6148
21.1581 -36.5871 -51.6148
0.6177 -66.6477 -51.6148
-13.8748 43.5852 -51.6148
-3.1744 -16.1165 -51.6148
11.9397 13.3714 -51.6148
0.2565 -70.1263 -51.6148
18.3957 54.8365 -51.6148
2.3173 -63.8018 -51.6148
-17.1781 -7.1255 -51.6148
18.7158 47.4350 -51.6148
-28.2204 11.5345 -51.6148
0.0921 0.1396 -51.6148
-45.2632 1.5630 -51.6148
-55.7914 -0.0967 -51.6148
-50.6832 -45.4820 -51.6148
-53.7317 3.1352 -51.6148
15.8827 33.8706 -51.6148
-14.0451 38.0824 -51.6148
-13.4881 11.1494 -51.6148
-7.9171 5.7552 -51.6148
-0.9567 17.2347 -51.6148
23.3820 40.5265 -51.6148
-0.0729 -0.2815 -51.6148
-22.4466 18.9437 -51.6148
-39.1970 -48.9857 -51.6148
27.3116 25.2799 -51.6148
-22.3945 13.6801 -51.6148
5.0595 -5.2604 -51.6148
-8.7699 19.7071 -51.6148
59.7134 2.3377 -51.6148
2.6200 -11.0297 -51.6148
-6.4560 -39.0347 -51.6148
-65.1325 -21.4225 -51.6148
-12.4422 -39.8703 -51.6148
-2.8603 7.9510 -51.6148
-47.9327 20.8652 -51.6148
-16.4125 -48.0094 -51.6148
-8.7761 -7.1400 -51.6148
24.2238 -19.6983 -51.6148
-58.6903 -17.2451 -51.6148
-29.9085 -41.3316 -51.6148
6.8973 17.0110 -51.6148
-0.3241 0.9934 -51.6148
42.3962 37.3825 -51.6148
15.6499 21.5370 -51.6148
17.2233 8.0837 -51.6148
-34.2703 -13.5513 -51.6148
3.5367 10.5793 -51.6148
-12.1214 35.9284 -51.6148
56.9631 9.0147 -51.6148
24.8295 36.3145 -51.6148
32.2003 15.6351 -51.6148
-23.0836 10.4488 -51.6148
-56.4130 -26.7651 -51.6148
13.5901 15.8845 -51.6148
-38.7012 2.9652 -51.6148
-3.0855 -1.1534 -51.6148
-6.9834 -11.1097 -51.6148
-9.9209 -3.9645 -51.6148
4.5379 65.8885 -51.6148
35.1777 19.3849 -51.6148
20.4904 -9.4313 -51.6148
6.8743 27.0850 -51.6148
16.7873 4.1304 -51.6148
-21.2473 2.9740 -51.6148
-17.4188 1.8711 -51.6148
11.9805 4.9251 -51.6148
-27.6943 1.5221 -51.6148
32.8759 46.4805 -51.6148
-2.9743 10.3018 -51.6148
-42.8449 26.7041 -51.6148
0.8771 -2.3498 -51.6148
-15.0968 20.1729 -51.6148
-23.0697 60.4000 -51.6148
-42.6803 -5.0860 -51.6148
-3.1231 22.8603 -51.6148
-60.2241 -32.0292 -51.6148
8.1142 -42.5846 -51.6148
-58.2155 -27.6160 -51.6148
2.6006 -4.4574 -51.6148
-46.0819 -29.7858 -51.6148
-12.3984 9.2043 -51.6148
-35.1190 -2.0910 -51.6148
24.0595 -52.5363 -51.6148
9.4829 -26.2042 -51.6148
-1.4606 6.1062 -51.6148
-24.3949 -37.9492 -51.6148
-48.8561 40.2155 -51.6148
-7.5817 14.7975 -51.6148
4.8561 31.6820 -51.6148
-5.4381 -42.4697 -51.6148
15.3062 65.8154 -51.6148
9.0344 5.2706 -51.6148
-9.8748 64.1624 -51.6148
-6.6766 -26.4239 -51.6148
-15.7902 25.3688 -51.6148
-47.0823 42.5481 -51.6148
39.6363 -23.5390 -51.6148
-68.8639 3.5459 -51.6148
-55.6294 41.5679 -51.6148
11.4206 22.6346 -51.6148
-23.5412 15.4993 -51.6148
