ply
format ascii 1.0
element vertex 1024
property float x
property float y
property float z
end_header
-16.9846 57.9807 38.1991
54.7622 -25.5215 -5.0269
52.1515 -30.5035 2.9026
4.2410 -60.2682 41.2909
31.4917 51.5608 -42.5320
-48.3527 36.2251 39.2370
57.3224 19.0888 9.9598
48.2836 36.3172 2.9619
20.3500 -56.8869 16.8198
41.1317 -44.2542 -33.1216
16.5445 58.1079 -31.5960
15.0717 -58.5072 1.4461
2.5642 -60.3628 48.4947
36.3307 -48.2734 29.3189
-60.4009 1.4042 13.4749
-20.8742 56.6967 -19.5582
50.5067 -33.1560 18.6389
-53.0179 -28.9714 21.9927
-36.6203 -48.0541 31.2057
-5.5644 -60.1605 37.0275
8.8316 59.7683 -20.9828
-38.5149 -46.5494 14.2138
-44.2751 41.1091 -19.4997
56.5688 21.2182 4.8533
-57.8978 17.2651 -17.3200
59.8586 -8.1970 -10.5484
55.9500 -22.7999 -7.0734
44.0425 -41.3582 3.0175
-6.9968 60.0107 -6.2897
-56.1251 22.3655 -21.5287
-58.1868 -16.2646 12.7366
-57.5320 18.4475 32.0864
44.7899 40.5476 6.9237
-32.4371 -50.9714 43.3647
-41.7115 43.7081 -28.4341
0.5617 -60.4146 37.1238
-43.9642 -41.4414 19.1864
54.0619 -26.9732 25.5261
-19.4139 -57.2131 -47.7456
1.1875 -60.4056 -13.5658
-59.0744 12.6671 23.6692
41.0235 44.3544 41.1993
6.3659 60.0809 33.8969
60.4112 -0.8563 24.7408
-60.0516 6.6371 -10.7344
-58.0419 -16.7745 32.1161
46.0242 39.1409 14.5644
-44.3847 40.9908 -40.0109
-55.1643 24.6402 -18.1896
-47.3490 -37.5275 -37.4517
-59.7175 9.1686 46.8551
-36.2381 -48.3430 25.3105
15.8087 58.3123 -23.1096
52.7979 29.3706 -5.0542
-17.9222 -57.6978 -3.2004
-1.3187 -60.4029 10.2863
54.1279 -26.8405 -47.7565
-28.3525 53.3515 38.5508
48.0224 -36.6619 -22.6798
-0.7111 60.4131 3.7803
-54.9104 25.2009 -32.6863
-57.2609 -19.2727 47.1588
-52.9538 29.0884 30.7946
-48.7472 -35.6924 -25.9499
1.7034 60.3932 -40.6376
-24.5510 55.2041 38.0613
52.5180 -29.8681 31.8701
-59.8032 -8.5923 16.6376
-34.0624 -49.8998 23.0495
-59.0340 -12.8544 28.3709
48.8678 35.5271 -20.0206
42.0759 -43.3574 31.3473
60.2403 -4.6204 -1.0958
-58.3517 -15.6627 4.7416
53.4514 28.1636 -43.2074
55.0328 -24.9326 2.3492
7.7671 -59.9159 27.1642
55.8192 23.1185 1.9173
-60.3481 -2.8897 48.5857
-52.9866 -29.0287 28.6624
45.8235 39.3758 4.3371
54.2789 -26.5338 39.0294
-46.9277 -38.0530 -39.8049
56.5793 -21.1903 -15.6090
37.5308 47.3464 -43.1031
10.4938 59.4989 42.3088
22.9741 -55.8788 47.1329
26.6444 -54.2247 -47.9902
-44.9317 -40.3904 -39.1884
-6.2948 -60.0884 35.0755
24.5349 55.2112 41.8007
-38.2426 -46.7734 -19.8821
-60.4143 0.6013 41.2547
-51.0658 32.2882 -41.2263
-29.9943 -52.4460 19.9957
34.1899 -49.8126 35.8037
-38.8612 46.2607 -17.7972
37.1033 -47.6822 19.2104
38.2891 -46.7353 -17.4992
19.4540 -57.1995 46.4545
60.0496 -6.6554 48.0346
-24.0188 55.4377 12.1899
-50.4163 -33.2933 -45.5666
-9.4349 -59.6760 17.4245
-57.7629 17.7113 0.3785
56.3149 -21.8832 -39.3229
-39.0388 -46.1109 16.2572
60.1723 5.4353 9.6423
15.8442 58.3027 22.1165
-59.7574 -8.9049 29.6220
50.9522 32.4672 12.2508
-49.6605 34.4105 -10.3156
5.1062 60.2011 -28.0318
-31.1414 51.7732 -14.6662
55.6438 -23.5374 -40.4574
53.9893 27.1182 -7.9086
-28.9912 -53.0071 9.2690
53.7733 -27.5440 -19.3826
-31.2537 -51.7054 8.7790
16.3156 58.1725 21.3727
50.1196 33.7383 -16.4451
49.1001 35.2054 -23.0156
-58.0384 16.7866 16.0954
-34.3408 49.7087 -24.3485
-30.4945 -52.1568 33.4216
1.0440 60.4082 -25.3076
14.7438 58.5907 7.0276
59.2627 -11.7549 -24.9137
8.9195 59.7552 -29.6094
43.8632 -41.5483 0.2477
-19.9021 57.0451 -18.6361
-25.9063 54.5812 -23.4463
-51.0769 -32.2707 -2.5340
-56.9370 -20.2096 26.6260
20.0886 -56.9797 -47.5589
50.6735 32.9004 -17.9603
-23.8023 -55.5310 -12.0001
-60.4009 -1.4052 44.7861
57.5663 -18.3401 -10.2778
-35.4161 48.9484 -3.5840
59.1074 12.5124 39.3809
-36.2709 48.3184 -38.0784
52.8080 29.3523 12.6618
-42.4313 -43.0097 -44.1457
54.7004 25.6536 5.9190
-49.9801 33.9446 26.2376
27.4044 53.8446 -13.8699
-59.2256 -11.9405 16.6073
51.8465 31.0191 8.4930
-48.1960 -36.4334 -4.6637
-23.7978 55.5329 36.5945
-55.4257 24.0465 -20.5389
-56.3494 21.7942 -7.4212
42.2471 43.1906 39.1294
-22.8959 55.9108 5.4214
42.2282 -43.2090 20.2163
-58.8821 -13.5331 38.7572
-56.1483 -22.3072 -13.3070
24.0181 55.4380 19.5156
-59.7694 8.8241 17.7562
13.3782 -58.9175 -0.0426
-19.9560 -57.0263 15.5239
-26.5605 -54.2658 -13.8135
-53.5546 27.9669 -41.5565
-59.5667 -10.1022 7.0708
-60.4167 0.2648 31.0827
-34.7746 -49.4062 -46.0983
17.9313 -57.6950 -39.7697
34.0255 49.9251 -45.0595
39.8956 45.3716 38.0817
14.5926 -58.6285 -17.8243
-58.9040 13.4375 -14.9282
4.6211 60.2403 -47.6781
31.6375 51.4715 -20.0854
43.2451 -42.1913 4.5136
-39.5119 -45.7062 46.3002
25.3760 54.8298 -43.4760
59.3538 -11.2857 -30.4014
-2.2290 -60.3761 -20.8391
47.2102 -37.7020 3.4008
38.2400 46.7755 22.1461
-18.4776 -57.5224 47.5971
54.3887 -26.3080 13.2862
57.3401 -19.0356 -40.0478
-46.8470 -38.1524 26.4341
-60.3155 3.5054 -4.1530
60.1497 -5.6792 -1.1672
46.0880 39.0658 23.8513
-41.5727 43.8401 -25.4909
-49.2306 -35.0227 -36.3763
-23.0378 -55.8525 0.9830
-52.5955 29.7314 28.5202
5.4887 -60.1674 -3.1148
-50.0494 33.8423 20.3256
-6.7183 60.0426 44.0065
-27.2614 53.9171 -28.4276
38.2616 46.7578 19.5163
50.2666 33.5189 -21.5851
-12.2439 59.1636 31.2283
43.9399 -41.4672 12.6503
14.7280 -58.5946 -1.9635
-27.9459 53.5656 -40.3401
13.2505 -58.9463 -36.5118
-58.6876 14.3530 -46.6928
-56.4909 -21.4247 34.7454
48.4194 36.1359 48.1795
-29.4367 52.7610 21.5998
48.9338 -35.4362 -25.5644
-22.1024 -56.2292 -26.6188
2.6412 60.3595 -4.3165
-49.4560 -34.7038 0.5934
-24.7410 -55.1192 30.9438
33.3772 50.3608 -28.4351
-59.6145 -9.8162 -0.7450
-2.7512 -60.3546 43.6195
-60.3250 3.3378 43.3089
-32.6956 -50.8059 11.5368
43.4933 -41.9354 10.5686
-45.2933 39.9845 -9.5808
40.2927 -45.0194 28.7644
57.3760 -18.9272 -23.1517
-60.4137 0.6520 -14.0554
-56.5819 21.1833 -8.1825
60.3236 -3.3631 43.4444
45.3827 39.8830 9.6968
3.2350 -60.3306 34.8094
-10.6214 -59.4763 -40.6656
-7.4857 -59.9517 -29.5066
28.0264 53.5235 9.7043
40.2796 -45.0311 -0.3808
56.8318 -20.5035 26.0810
60.4107 -0.8924 -43.2153
57.5613 18.3560 -24.5870
40.2886 45.0230 -22.0712
56.6318 21.0494 -13.1597
27.2610 53.9173 4.8871
59.9291 7.6643 -37.8072
-22.2219 -56.1821 41.9820
-33.8074 -50.0730 -17.4533
-40.5674 -44.7720 33.2096
-36.1912 48.3781 22.6524
24.3929 -55.2741 -29.2225
5.0258 60.2078 -18.3529
-36.6404 48.0387 -48.1284
16.2726 -58.1846 -33.4471
-60.3212 3.4050 25.2630
51.0132 -32.3712 45.2464
-29.7695 -52.5739 -21.7088
-18.1733 57.6192 45.5073
15.4595 58.4059 44.3544
32.2151 51.1120 -14.3349
18.2486 -57.5954 -8.5739
-60.1588 5.5827 -8.7520
-59.3934 11.0754 37.2351
59.9966 7.1172 -1.1227
-50.0352 -33.8632 43.1248
60.3884 1.8670 20.1950
20.8448 -56.7075 -46.3806
-20.3665 -56.8810 -15.9471
-59.9222 7.7181 6.8129
57.8163 -17.5361 -7.8819
55.2891 -24.3589 20.2567
58.2012 16.2132 46.6290
11.1565 59.3783 21.7659
33.5380 -50.2538 12.2178
59.7539 8.9281 -7.0757
-3.7875 -60.2984 -2.1261
23.5452 55.6405 39.5436
-46.5644 38.4968 -17.4566
-4.8928 60.2188 1.2272
46.9136 -38.0704 46.6016
-60.4134 0.6816 -28.1113
-29.4759 52.7391 -8.6629
-15.3100 -58.4453 24.6232
54.9289 25.1606 34.5110
2.9521 60.3451 -21.2916
-13.4648 -58.8977 14.0246
5.4678 60.1693 0.7557
59.3731 11.1840 44.9204
27.2182 -53.9390 -33.0429
60.4172 -0.0306 21.3561
-52.0659 -30.6494 31.6044
-12.4948 -59.1111 26.8789
-44.1574 41.2356 28.7920
-60.3690 2.4138 -36.9026
-23.9555 -55.4651 27.4147
19.8558 57.0613 -30.5352
54.9244 -25.1704 22.9053
-35.4574 48.9185 1.4420
45.9634 -39.2124 12.8381
-10.5167 59.4949 -16.1605
56.7321 20.7776 32.9803
-49.8333 -34.1597 -33.9576
59.7823 -8.7362 46.1666
-41.1169 44.2679 29.5486
39.6274 -45.6061 -41.8591
28.7618 53.1319 -45.6791
-9.8989 59.6008 -40.7748
-55.4591 23.9695 -37.9183
-59.9029 -7.8671 -20.1467
-59.8628 8.1665 -42.8161
-27.0052 54.0459 4.0079
58.9209 13.3632 14.8327
37.8846 47.0638 14.6996
-57.7000 -17.9153 28.0166
-58.5823 -14.7768 -1.6865
52.6206 -29.6870 23.7815
59.5907 -9.9593 -44.0364
-14.9235 -58.5451 -42.3372
-40.3661 44.9535 21.3225
-56.3008 -21.9194 4.7546
-45.2249 40.0619 -43.5840
59.7679 -8.8342 -24.6178
-57.4840 18.5967 -20.0110
58.4491 15.2954 31.0191
60.3246 -3.3439 42.9660
54.3805 -26.3249 -7.1002
-35.7580 -48.6991 -43.7474
-49.9426 -33.9997 33.8828
-6.2298 60.0952 18.9723
-55.1177 -24.7442 -37.8567
-56.6456 -21.0123 -23.7014
14.1403 -58.7392 -6.7491
-38.6646 46.4251 33.9120
11.3387 59.3437 -43.6807
56.9802 -20.0873 -27.6428
-60.3322 3.2052 24.3405
-60.0323 -6.8091 -0.0818
9.9520 59.5920 -29.3263
-22.1257 -56.2201 -32.5984
44.8058 -40.5300 37.4479
-60.2319 -4.7283 33.7910
59.8653 8.1479 -24.8108
-1.6196 -60.3955 5.7163
57.2301 -19.3639 35.4495
-44.2621 41.1231 11.3492
-59.1255 -12.4265 -19.9321
-19.8884 57.0499 -16.4305
-44.9297 40.3927 33.9323
48.3683 -36.2043 0.0752
59.7027 9.2645 -7.6045
-34.8633 -49.3437 15.2381
59.9304 7.6545 44.8595
-11.0608 -59.3962 -30.9297
33.5666 -50.2347 -46.9634
38.1283 46.8666 -20.6943
-20.5998 -56.7969 -37.0103
-45.8664 -39.3257 -18.4235
25.0076 -54.9988 11.0744
-53.5058 28.0602 -0.8308
-50.6199 -32.9828 -37.5074
-23.1505 -55.8059 33.9593
30.7286 -52.0192 48.2485
23.7295 55.5622 -24.3605
-51.9262 -30.8856 8.9046
-44.6577 -40.6931 -37.4944
-9.7843 59.6197 -20.8003
50.0662 33.8174 -17.3108
27.4099 53.8418 27.9040
58.9629 13.1767 37.9205
-30.1437 -52.3603 -42.9231
-52.2946 30.2576 37.3761
48.0685 36.6014 -38.5801
60.1316 -5.8678 -41.8722
-59.3610 -11.2477 -32.2759
-7.0520 60.0043 -0.9239
55.2599 24.4250 -37.5592
-55.6129 -23.6102 20.9956
-52.5327 29.8422 25.7927
31.4107 51.6102 -46.1683
24.2963 55.3167 -17.5466
53.3443 -28.3660 33.7462
-1.9672 -60.3852 18.4772
-53.9933 27.1102 -22.4095
-8.4675 -59.8209 43.5759
29.5317 -52.7079 2.9862
14.0149 -58.7693 37.3896
43.8642 -41.5473 25.9996
58.0508 16.7436 -14.6975
20.1932 56.9427 48.0295
-32.4217 -50.9812 -27.3445
57.8920 17.2848 16.2776
60.3054 -3.6746 -11.8465
-17.5137 -57.8231 26.4315
-55.8046 23.1537 -30.4581
-57.8344 -17.4763 -30.4845
32.7541 -50.7682 38.1920
-55.2988 -24.3370 -23.2321
37.0663 47.7109 -13.5756
2.6209 -60.3604 -20.9070
-22.9081 55.9059 -6.2489
55.8841 -22.9610 -26.4589
38.0980 46.8912 5.4956
58.3409 15.7031 -28.4996
47.1836 37.7353 16.1947
-12.7284 59.0612 -27.0275
27.3714 -53.8614 -31.1383
18.0436 57.6600 21.8660
-45.3405 39.9309 -19.1227
-44.0434 -41.3573 1.1953
54.4188 -26.2457 -35.6590
-27.1470 53.9749 21.2576
-10.5491 -59.4892 29.5970
-33.6055 -50.2087 13.9779
-29.3569 -52.8054 27.8173
3.4137 60.3207 15.3297
49.4088 34.7709 -11.1297
60.4172 0.0022 0.4320
-56.6924 -20.8858 25.8530
60.4152 0.4973 1.4158
-49.5047 -34.6341 -6.5411
-1.5616 -60.3971 35.7114
57.4097 18.8246 -2.4045
60.2930 -3.8720 -18.4637
59.8113 8.5353 46.8626
58.3619 15.6248 2.9103
-50.5623 33.0710 44.6719
-11.1640 59.3768 -2.5786
-60.2550 -4.4246 -32.0110
18.6537 -57.4655 36.4234
49.9912 33.9282 37.3602
2.5674 -60.3627 22.3096
32.7729 50.7561 15.2697
32.7002 50.8029 16.0201
-52.6252 -29.6788 -8.8685
19.3394 -57.2384 -28.5591
-40.6538 -44.6935 -3.9934
38.5777 -46.4973 31.2422
37.6316 -47.2663 48.0762
-60.0708 6.4606 -16.2887
33.4362 50.3216 10.2208
-19.7324 57.1041 19.4226
13.8626 58.8054 4.3220
-15.1887 58.4769 -22.3792
11.2269 59.3650 15.2308
-27.9204 -53.5789 12.8175
57.1648 19.5557 3.3702
-52.2691 30.3015 16.6018
44.3701 41.0065 19.2862
49.0243 -35.3110 -20.0768
60.4141 0.6164 -1.4577
-51.7134 -31.2405 -11.8140
-43.5941 -41.8306 -15.6740
40.0032 45.2768 -17.7038
29.9836 52.4521 -4.1860
58.7115 14.2550 14.1843
-13.3815 58.9167 -36.3024
49.0483 -35.2777 -25.0887
-47.6427 37.1540 20.6737
-57.7999 -17.5901 31.3493
29.7702 52.5736 29.4283
-43.5388 -41.8881 -18.6942
38.6658 -46.4241 -36.9195
3.9008 60.2912 7.0005
-41.9030 43.5245 22.2343
60.3772 2.1985 35.1382
-13.8934 -58.7981 6.1786
-29.8642 -52.5202 19.9448
58.5671 14.8369 42.0589
43.2844 -42.1509 -35.1182
-2.1726 60.3782 -17.3963
-16.6826 58.0684 -48.3062
0.9577 -60.4097 41.9713
-33.6151 50.2023 24.9193
18.5765 57.4905 -29.4542
-26.7286 -54.1833 46.9909
0.1629 60.4170 42.7636
48.2421 -36.3723 -25.1365
6.3622 -60.0813 -25.8485
-59.9292 7.6636 17.9516
-21.5380 -56.4478 23.3652
54.8889 25.2479 -47.7745
46.5252 -38.5441 29.4491
-7.9582 59.8908 -41.1666
-20.2452 56.9243 34.7727
55.7873 23.1953 22.7539
6.5844 60.0574 -31.7753
27.5996 53.7448 -36.8361
27.9131 -53.5827 15.0822
-51.0612 -32.2955 31.7844
9.1006 59.7279 7.0716
-15.4034 -58.4207 -30.1616
18.8118 57.4139 -42.0288
60.3437 -2.9807 14.9630
15.2908 58.4503 -17.7955
-55.6205 -23.5926 46.6652
46.3006 38.8137 39.2824
60.2432 4.5820 3.0311
-48.4531 -36.0908 -18.8503
-57.5819 18.2911 -0.7656
-60.2687 -4.2344 -11.8257
15.9076 58.2854 -18.3416
-17.3955 57.8588 22.4259
-60.4119 -0.8000 13.6167
-56.5364 -21.3044 37.4574
38.7560 -46.3488 -4.8511
24.5852 55.1889 -41.2408
49.3586 34.8422 -39.0811
-7.2477 -59.9809 11.9408
56.4522 21.5266 -47.5924
-53.9773 -27.1422 7.5060
2.7948 -60.3526 36.8961
-17.9235 -57.6974 36.8570
-52.9580 -29.0808 -38.9863
12.5966 -59.0895 -39.0226
-32.2709 -51.0767 16.6522
-41.0731 -44.3085 27.9146
-34.8658 49.3418 24.7904
-39.3808 45.8192 44.9428
60.0057 -7.0395 -25.6094
-51.4323 31.7011 -27.8661
11.5166 -59.3095 47.2328
-4.8517 60.2221 -3.4292
60.3731 2.3082 34.6390
59.4846 -10.5747 4.4540
59.3079 -11.5244 -13.9961
47.7416 37.0268 -46.9089
49.5993 -34.4987 -48.5675
19.7275 -57.1058 -8.8411
-49.7233 -34.3196 -44.0782
-57.8662 -17.3708 33.2272
-31.2568 51.7035 -5.0671
-23.4795 55.6683 18.1071
58.6720 14.4165 43.0430
-36.0293 -48.4988 39.6713
57.1268 19.6665 28.6881
-30.9968 -51.8598 -1.3907
-6.6186 60.0536 1.4036
-25.4791 54.7819 -13.0299
-57.5595 18.3615 -1.6240
13.0732 58.9859 -48.4078
-4.5725 60.2440 -40.9275
-50.2625 33.5250 -5.7660
59.9936 7.1419 8.0878
-58.0481 -16.7530 -44.1120
-44.4694 -40.8988 -5.0208
-25.7479 54.6561 13.9309
-22.6134 -56.0257 40.9153
-60.4141 0.6175 39.0969
56.8706 20.3956 4.7478
-6.8748 -60.0248 -16.9404
11.2510 59.3604 -7.7128
57.4765 -18.6198 -36.9065
-48.7041 -35.7513 -0.0722
11.6486 -59.2837 18.7751
12.9697 -59.0087 32.1566
54.4512 26.1784 12.8898
-58.6434 -14.5324 45.1319
6.4602 -60.0709 0.7266
-58.7402 -14.1360 15.5303
60.0019 -7.0718 -30.0038
-54.2085 -26.6774 -27.1779
-49.6029 34.4934 -20.1600
-52.3140 30.2240 -38.3686
60.1685 -5.4769 -37.0201
44.4431 40.9274 46.0032
28.0621 53.5048 -1.4183
-13.8277 58.8136 21.2184
-10.4677 -59.5035 -35.5484
-38.0109 -46.9619 31.5394
5.8676 -60.1316 29.9793
-57.5775 18.3050 31.9786
-46.6497 -38.3934 -31.1648
-51.7584 -31.1659 -29.4948
-37.1267 47.6640 41.7926
57.0107 20.0005 26.0359
-31.3802 -51.6288 4.3527
60.2976 3.8003 21.4999
-50.6164 -32.9883 -32.9356
-29.3103 52.8314 -15.5993
51.3358 31.8572 -4.7130
2.2116 -60.3768 -1.3390
-57.7043 17.9012 -10.2380
-45.8311 39.3670 22.5957
53.8142 -27.4640 -38.5212
47.8750 -36.8542 -9.2329
-28.1796 -53.4430 38.0977
53.3420 -28.3702 47.2726
-48.7549 35.6820 33.4566
-28.4218 53.3146 3.7958
-55.3601 24.1973 -43.1482
15.3456 58.4359 11.0005
-51.2420 -32.0078 -14.5204
20.8255 56.7146 -42.7497
-46.4908 -38.5856 -7.6802
-10.8697 59.4314 -41.5314
53.3604 28.3357 11.3696
14.5215 58.6461 -5.3602
39.9138 45.3557 39.1699
18.8918 -57.3877 -17.4653
-60.2547 -4.4283 26.9622
-23.9448 -55.4697 40.7801
-20.3308 56.8938 32.8252
-56.8779 20.3751 -45.7831
56.8744 20.3850 2.2466
-59.1339 12.3866 33.9484
-57.1711 -19.5375 -6.7475
-59.5933 9.9437 12.2761
-59.1380 12.3668 33.2966
-31.1857 -51.7465 17.9134
-53.1208 28.7824 -22.9035
29.1585 -52.9153 -18.3183
-31.9005 -51.3089 -30.4146
-13.5061 -58.8883 -5.3423
-54.3507 -26.3865 -24.8039
38.1466 46.8517 31.8716
-60.3483 -2.8858 -35.8498
-57.9545 -17.0741 -7.2177
-55.2824 24.3742 -8.9861
-45.6374 39.5913 -45.0933
-54.8422 -25.3492 -3.6974
-50.3316 -33.4212 9.5601
-55.0088 24.9856 9.9857
-59.0809 12.6368 -43.1956
-56.6281 -21.0596 -21.9381
-40.0199 -45.2620 18.4929
56.4194 21.6125 -5.3074
60.4100 0.9386 -18.0044
30.0663 -52.4048 19.0208
-41.4627 -43.9442 -19.9732
-3.9919 -60.2852 12.4277
-28.0690 53.5012 -47.9358
12.7110 59.0650 -5.5070
8.3910 -59.8317 -7.4922
52.1297 -30.5407 8.5339
-60.3234 3.3654 -10.5650
60.1569 -5.6023 -27.0279
-45.8134 39.3876 2.2485
-21.4936 -56.4648 29.2701
-39.8636 45.3997 -32.4134
59.9687 7.3482 0.0240
7.4470 59.9565 35.9037
5.5675 -60.1602 36.0011
-50.2827 -33.4947 -39.1796
-24.8925 55.0509 19.0298
-50.2496 -33.5444 14.7660
20.7513 -56.7418 31.3900
58.7781 -13.9776 -9.9603
-28.6867 53.1725 22.2329
15.3543 -58.4336 -16.7335
-45.4844 39.7670 0.4601
-12.7484 59.0569 -18.3161
40.4127 44.9117 31.4456
38.5504 46.5200 -40.6257
-0.5690 60.4146 -12.2780
-51.7014 31.2603 6.0996
12.2167 -59.1692 9.2893
60.3757 -2.2400 26.5364
-54.5184 26.0383 14.0518
12.6820 59.0712 41.2540
-5.3541 60.1795 42.6586
-42.6891 42.7538 40.5572
-45.1746 -40.1185 3.0675
54.6875 -25.6811 43.8144
-39.0745 46.0806 26.8725
14.9171 -58.5468 44.0293
53.7808 27.5295 18.6988
-59.7862 8.7093 1.6694
-57.9623 -17.0475 0.6127
-7.3333 -59.9705 -35.0913
48.0695 -36.6000 -5.5389
50.4398 -33.2576 -27.4805
-27.2491 53.9234 -26.6890
3.5817 -60.3110 -43.2847
-11.5529 59.3024 -24.7439
56.2398 22.0755 35.9100
32.0155 51.2372 21.0415
52.5829 -29.7536 -5.7672
-23.0392 -55.8519 -7.8477
52.9697 29.0596 -16.5112
-12.1981 59.1731 42.1393
-49.0306 35.3022 38.5069
-40.1521 45.1448 21.3630
-57.9205 -17.1889 12.8234
19.9748 57.0198 -13.1352
20.7569 -56.7397 42.8769
-43.5959 41.8287 -25.9257
17.1290 57.9382 15.2240
-24.4126 55.2654 6.6678
-59.8875 -7.9833 -47.5883
16.6077 58.0898 17.4951
-57.2872 -19.1942 42.6248
52.9471 -29.1007 19.5504
-22.2882 -56.1559 -37.5701
-55.6282 23.5744 9.4567
-22.3455 -56.1331 -16.0400
-60.2650 4.2864 2.4233
-20.8511 -56.7052 -11.0508
-53.7526 -27.5845 2.2837
54.4803 -26.1179 45.1301
-58.5060 15.0760 -32.1985
-52.0490 -30.6781 -4.8505
-14.7765 58.5824 8.4916
-15.4674 -58.4038 14.5672
-14.0726 58.7555 -19.7200
-51.0630 32.2927 -47.2101
-58.3505 -15.6673 12.5591
48.0255 36.6578 -44.1626
21.7179 -56.3789 -5.0649
-60.3921 1.7422 -0.4804
-53.1780 28.6766 37.3433
36.4978 48.1472 -42.0890
56.6499 21.0007 -19.6478
16.5219 -58.1143 -36.3459
25.1923 -54.9144 -28.5648
-52.9395 29.1145 26.2812
-58.9675 13.1561 -42.2497
18.1400 57.6297 -30.4337
-57.9779 16.9944 -22.2064
-54.0513 26.9944 -24.2162
-60.1256 -5.9292 -40.7929
-58.6065 -14.6806 45.5979
22.4058 56.1090 -5.6923
27.2271 53.9345 13.3533
-0.0799 60.4172 -13.2678
-50.4421 -33.2541 -6.3912
-25.6733 41.6876 48.5863
2.7580 2.4837 48.5863
5.4736 6.6012 48.5863
-44.2794 12.3366 48.5863
-48.3470 9.9643 48.5863
43.4794 -38.7914 48.5863
-42.4543 41.8110 48.5863
-46.1321 37.6236 48.5863
11.4281 17.0643 48.5863
-22.0827 3.8193 48.5863
19.9517 6.4517 48.5863
31.6310 -4.5027 48.5863
-1.3116 19.5066 48.5863
-5.1699 3.7720 48.5863
-4.1973 -3.8597 48.5863
-25.8508 -14.3643 48.5863
19.1524 47.2674 48.5863
14.7144 -4.1258 48.5863
-2.3179 -4.2105 48.5863
-11.1050 41.5751 48.5863
58.3139 6.8102 48.5863
1.6909 -23.2904 48.5863
27.6195 -30.7411 48.5863
15.9438 -44.9684 48.5863
7.7366 -8.2107 48.5863
-15.3623 -12.0119 48.5863
3.3525 6.0300 48.5863
-31.6509 -40.9577 48.5863
-1.1784 24.5382 48.5863
-38.1234 32.2558 48.5863
-16.1179 39.6281 48.5863
2.5202 0.7291 48.5863
-17.2785 45.3890 48.5863
-18.1365 11.6961 48.5863
-35.7068 -13.7287 48.5863
-37.3939 -3.4445 48.5863
-44.4135 -10.5426 48.5863
3.5108 -6.7952 48.5863
-44.1869 12.9551 48.5863
26.2762 27.2460 48.5863
23.9493 -12.9137 48.5863
20.1845 41.4542 48.5863
-5.7484 1.8518 48.5863
-8.9468 -4.2996 48.5863
10.0449 -20.8625 48.5863
-34.2910 -0.2766 48.5863
56.0343 15.5872 48.5863
0.1771 -1.6431 48.5863
9.9309 -7.0454 48.5863
7.1871 -28.9297 48.5863
-0.6858 2.1671 48.5863
-22.8635 -6.1837 48.5863
-5.6999 0.8128 48.5863
0.8893 0.4426 48.5863
-2.9139 0.0774 48.5863
-0.5068 6.6568 48.5863
53.5001 -26.4229 48.5863
-33.4749 -24.7615 48.5863
54.8554 -6.8087 48.5863
6.5680 -25.8148 48.5863
18.6675 -9.2213 48.5863
8.4164 48.8005 48.5863
6.4399 25.4794 48.5863
17.7463 -2.3382 48.5863
11.6047 1.5116 48.5863
41.7230 -8.3843 48.5863
-19.6547 36.0017 48.5863
9.8605 -16.1811 48.5863
37.0043 30.1080 48.5863
-11.4185 47.4147 48.5863
-9.7061 10.0370 48.5863
-13.1952 -7.9624 48.5863
31.1225 21.0340 48.5863
2.1070 -9.9954 48.5863
7.3412 -3.8768 48.5863
-37.5183 29.4549 48.5863
-25.6211 22.8680 48.5863
-22.3220 -32.3479 48.5863
31.4153 21.0385 48.5863
9.8936 19.1575 48.5863
-25.2924 -26.1807 48.5863
-19.9453 -10.7814 48.5863
1.8646 2.1825 48.5863
4.3761 -20.0039 48.5863
-33.9410 -42.7067 48.5863
-5.3472 -9.7662 48.5863
-5.5255 -14.3538 48.5863
-31.0281 -25.8392 48.5863
-56.5447 13.4360 48.5863
-43.8904 10.5271 48.5863
-15.8682 -14.9007 48.5863
-35.0892 33.6397 48.5863
12.6365 -26.9855 48.5863
-18.7175 -11.2521 48.5863
39.0275 -14.5030 48.5863
3.7521 -8.6394 48.5863
12.3077 -13.6092 48.5863
0.0573 29.1170 48.5863
10.2655 27.4534 48.5863
-20.3615 20.3074 48.5863
51.6420 -7.6872 48.5863
-48.3474 12.2324 48.5863
-9.0221 4.8718 48.5863
42.8067 39.2656 48.5863
1.1737 25.1234 48.5863
-0.2106 -11.3187 48.5863
-9.2111 -42.5813 48.5863
-8.4960 6.4739 48.5863
-0.5003 -17.4296 48.5863
-1.0413 -41.1996 48.5863
-34.6021 -12.5633 48.5863
24.5037 21.7073 48.5863
2.8488 -0.8202 48.5863
-6.6557 7.5501 48.5863
40.9325 1.4427 48.5863
-13.1984 -28.7168 48.5863
-28.3924 -43.1016 48.5863
-7.5494 3.9830 48.5863
1.6227 4.4034 48.5863
14.9913 14.2741 48.5863
-46.5339 -13.4972 48.5863
18.3544 -30.2999 48.5863
19.6766 26.1677 48.5863
10.2906 51.5369 48.5863
0.0111 5.9515 48.5863
1.6125 -56.2584 48.5863
-43.2322 37.8390 48.5863
-7.3726 15.2261 48.5863
-5.2083 3.8970 48.5863
4.8446 4.7038 48.5863
25.2475 11.8930 48.5863
18.0432 -41.6156 48.5863
-5.0961 -20.7230 48.5863
20.0553 30.6431 48.5863
-22.2726 -2.5460 48.5863
-12.4063 43.5571 48.5863
1.6582 -8.4100 48.5863
8.5636 -4.5183 48.5863
10.0496 29.0016 48.5863
-3.8807 0.4683 48.5863
-31.3946 21.9262 48.5863
-21.0987 20.8822 48.5863
-10.5892 38.2256 48.5863
8.5235 -37.5203 48.5863
-4.1918 11.8198 48.5863
-3.1780 -16.3414 48.5863
40.0397 -24.8954 48.5863
1.4810 0.4113 48.5863
-21.5400 -11.4908 48.5863
-34.5324 -39.5128 48.5863
-19.5002 31.5382 48.5863
39.7395 43.4898 48.5863
1.6565 52.6829 48.5863
-38.5796 39.2629 48.5863
17.0685 1.0676 -48.5863
-4.1174 -7.8645 -48.5863
6.2253 -11.3777 -48.5863
-1.5704 42.8782 -48.5863
-30.2497 47.0812 -48.5863
31.2194 47.3213 -48.5863
11.7003 10.5556 -48.5863
17.7108 -0.5450 -48.5863
42.8013 -6.6043 -48.5863
42.0114 5.4105 -48.5863
3.0769 -0.8963 -48.5863
-11.6892 15.1403 -48.5863
1.5580 14.5861 -48.5863
-26.4940 -43.3728 -48.5863
50.7266 2.3221 -48.5863
-1.2857 36.1498 -48.5863
-35.7626 42.2796 -48.5863
21.7971 51.2982 -48.5863
44.5894 13.6875 -48.5863
-24.2833 18.3008 -48.5863
16.8876 3.3644 -48.5863
2.3455 -1.4247 -48.5863
7.3496 1.5139 -48.5863
11.6348 3.0491 -48.5863
28.1062 22.0406 -48.5863
15.8606 -1.6474 -48.5863
16.0277 -42.1691 -48.5863
-1.5676 3.3364 -48.5863
-4.8582 1.7979 -48.5863
13.3328 -29.1405 -48.5863
-5.6063 27.2042 -48.5863
5.3540 15.8052 -48.5863
2.8244 6.5387 -48.5863
-3.7717 -2.2117 -48.5863
-2.4440 -0.2438 -48.5863
-7.4688 -4.5362 -48.5863
-2.5821 -3.0999 -48.5863
-6.2319 -2.3920 -48.5863
7.3235 -7.8159 -48.5863
-50.9378 -12.6037 -48.5863
-33.1893 37.6900 -48.5863
26.1766 -51.5247 -48.5863
-15.6306 -3.5977 -48.5863
2.6129 4.6563 -48.5863
8.7416 8.5553 -48.5863
0.0943 0.5011 -48.5863
-0.2343 -0.0057 -48.5863
3.0932 -16.2048 -48.5863
28.0388 52.6723 -48.5863
-8.0378 -12.1194 -48.5863
37.8555 -5.8999 -48.5863
2.2100 0.9230 -48.5863
7.2835 -45.0711 -48.5863
4.3733 -2.7422 -48.5863
30.3165 -0.4363 -48.5863
-4.0587 29.2532 -48.5863
-34.0528 9.4923 -48.5863
28.3704 -46.9476 -48.5863
-20.9851 -12.7698 -48.5863
15.9963 -2.1941 -48.5863
53.3570 -18.6874 -48.5863
-42.1594 6.9754 -48.5863
3.6039 -25.8438 -48.5863
33.6357 3.9505 -48.5863
-4.2422 14.7396 -48.5863
-19.9205 -10.3032 -48.5863
0.3297 -0.1880 -48.5863
44.9841 -1.5507 -48.5863
22.2771 -14.4949 -48.5863
-8.6808 -8.2898 -48.5863
-9.5222 1.4566 -48.5863
-3.1016 -26.7603 -48.5863
4.3716 -5.7379 -48.5863
-25.5405 -38.7028 -48.5863
-29.9600 36.3414 -48.5863
-27.6896 49.7105 -48.5863
-23.6026 29.3554 -48.5863
36.3984 -25.9133 -48.5863
-1.7035 -4.7067 -48.5863
26.7370 2.4624 -48.5863
24.6501 31.9864 -48.5863
9.8563 12.9885 -48.5863
-4.7905 2.2532 -48.5863
-8.5672 -3.9197 -48.5863
55.0852 -20.0559 -48.5863
-10.4549 6.9871 -48.5863
-22.3058 29.4443 -48.5863
-33.1567 -23.0082 -48.5863
-48.0346 33.6177 -48.5863
0.4339 -36.2736 -48.5863
-29.1488 -34.6200 -48.5863
-0.3974 1.0043 -48.5863
28.0929 43.3038 -48.5863
-36.3111 -3.5710 -48.5863
-17.6176 26.2431 -48.5863
32.4869 -6.2717 -48.5863
-21.6703 5.1906 -48.5863
27.6693 48.5801 -48.5863
27.5473 -53.0143 -48.5863
45.9629 -37.8198 -48.5863
22.9988 8.4921 -48.5863
-46.1620 -6.8959 -48.5863
-41.3370 24.9978 -48.5863
-28.4559 34.1835 -48.5863
-2.8866 -12.7353 -48.5863
-26.1144 -18.5778 -48.5863
2.0895 -9.5149 -48.5863
-16.7483 11.4616 -48.5863
-11.6612 12.1202 -48.5863
-10.2883 -10.2056 -48.5863
48.1374 -8.8890 -48.5863
-32.3570 20.6307 -48.5863
14.0929 1.7760 -48.5863
14.1378 2.7950 -48.5863
16.5999 -10.6596 -48.5863
1.7950 -2.3294 -48.5863
-16.6645 14.1830 -48.5863
1.1772 1.1530 -48.5863
4.8154 18.7012 -48.5863
4.9547 11.7909 -48.5863
-38.3429 -11.2895 -48.5863
0.8152 12.8130 -48.5863
-4.1944 7.2582 -48.5863
-32.8574 3.5172 -48.5863
-24.4354 -1.8680 -48.5863
38.6923 17.2937 -48.5863
-36.2989 25.1573 -48.5863
2.6097 3.8891 -48.5863
16.8239 27.1360 -48.5863
-29.5204 27.5662 -48.5863
24.4473 19.4700 -48.5863
-48.2280 -30.1494 -48.5863
-8.9336 -11.0028 -48.5863
2.3016 44.2226 -48.5863
4.2647 -10.6889 -48.5863
-20.5725 14.6125 -48.5863
26.6743 -26.1764 -48.5863
-36.2314 12.7456 -48.5863
-9.1394 11.5721 -48.5863
-0.3373 -4.2795 -48.5863
32.0743 -34.7671 -48.5863
-18.1812 -8.0739 -48.5863
-0.2426 -3.9497 -48.5863
-1.7559 30.3585 -48.5863
-23.5260 -8.5115 -48.5863
-26.4434 31.0107 -48.5863
-1.0853 0.0627 -48.5863
7.2669 17.1039 -48.5863
-3.2916 24.7732 -48.5863
4.3221 8.2885 -48.5863
49.6474 -8.0442 -48.5863
-28.3993 24.0804 -48.5863
8.4390 -12.0253 -48.5863
-23.2088 20.7707 -48.5863
