ply
format ascii 1.0
element vertex 1024
property float x
property float y
property float z
end_header
26.9741 -58.1313 31.5886
-10.0245 63.2958 -65.5423
-13.5526 -62.6352 -13.6404
-40.9485 49.2957 6.5845
43.7459 -46.8310 -19.4589
25.9353 -58.6021 16.9746
61.7857 17.0109 -69.2770
60.4099 -21.3890 -43.7694
-57.1011 29.0914 47.2852
54.4204 -33.8417 -14.6877
-29.7420 -56.7649 34.7708
0.4749 -64.0829 -2.5712
-0.9171 -64.0781 61.0431
16.4870 61.9276 -65.9658
-13.9852 62.5400 -7.5698
53.1293 35.8347 -67.9743
-32.6120 -55.1661 -4.6273
57.6576 27.9723 20.2709
59.8825 22.8238 18.1299
-30.0590 56.5977 27.8326
11.6654 63.0140 69.7016
-36.9271 -52.3759 -72.9601
61.8496 -16.7770 -39.2964
-49.7494 -40.3960 49.1670
-37.4296 52.0180 -18.2516
-47.7618 -42.7277 -58.5459
10.3822 63.2381 -52.6603
31.6582 -55.7189 -13.6032
23.6094 59.5772 50.7879
61.9730 16.3155 -25.2627
-11.8101 62.9870 45.3164
-28.6779 -57.3099 -43.9870
46.3902 44.2130 -20.9565
62.6143 -13.6491 27.3696
31.7321 -55.6769 34.3711
-11.8297 -62.9834 -26.6484
57.1944 28.9076 57.7658
-52.8176 36.2925 -24.6519
-41.9637 -48.4344 -23.7281
-46.5881 44.0044 -59.8426
-61.8851 -16.6458 55.0089
-25.3743 58.8472 -55.1128
41.2631 -49.0327 3.5384
7.1302 63.6868 -74.9864
-27.2169 -58.0180 -29.3785
62.7228 -13.1415 31.9373
4.4507 -63.9299 6.2918
56.4486 -30.3380 48.1570
56.0665 31.0385 -0.3111
-58.5860 25.9716 55.5393
64.0413 2.3579 39.8091
8.2830 63.5471 28.3422
37.9550 51.6359 33.9397
-51.5507 38.0706 67.9538
-51.7344 -37.8205 25.0692
62.1405 15.6652 51.6220
53.0495 -35.9526 -64.3848
-35.1395 -53.5916 -65.8873
-53.1048 -35.8709 -65.7753
-46.4436 -44.1569 56.8563
31.5373 55.7875 -64.3397
-58.1846 26.8587 -36.0383
-37.8185 -51.7359 -41.4319
-29.6459 56.8152 -26.6293
54.4473 33.7984 -68.3858
32.6329 55.1538 19.0093
-19.0242 61.1958 29.3711
63.3892 9.4158 -44.2785
-33.7837 -54.4565 -3.4436
-55.7450 31.6124 10.5203
62.8695 -12.4204 -65.1328
-30.5066 -56.3577 29.2756
-22.7689 -59.9034 4.6969
53.3528 -35.5010 4.0492
-23.2778 -59.7075 -26.2018
-12.6835 -62.8170 1.5533
21.5127 -60.3659 67.4317
-7.6391 63.6277 34.0834
-26.9020 58.1647 0.8964
63.3306 -9.8021 -10.8974
-5.4782 -63.8501 56.0838
-44.4543 -46.1591 -2.0203
-64.0275 -2.7052 -47.1796
-4.2979 63.9404 -23.4482
-42.6215 -47.8566 25.7242
-29.6990 56.7875 -68.9291
37.1865 -52.1920 -16.9857
-39.3411 50.5878 74.8935
-14.4681 -62.4301 -10.7943
57.5400 -28.2132 -37.7336
25.2528 58.8994 31.4249
63.0207 11.6292 20.3339
59.2296 24.4683 -6.5640
44.4554 46.1580 -24.5710
-53.4528 35.3503 62.4600
59.2501 24.4186 -73.0147
7.6345 63.6283 -47.6208
-55.5920 31.8807 -49.6654
51.3983 -38.2760 -39.8844
-26.5169 -58.3412 -30.8927
56.0914 30.9935 54.6918
46.2786 -44.3299 53.5390
-63.7927 6.1105 48.1304
37.7282 51.8018 48.8019
-61.8285 -16.8546 -6.4889
-63.4566 -8.9499 1.0673
3.3590 63.9966 -57.4443
-60.9899 19.6741 34.0341
62.5726 -13.8389 -9.0763
-43.4158 47.1372 58.0516
-63.2954 10.0268 71.6759
-6.9588 63.7057 -26.8202
-15.1815 62.2605 -36.8439
24.9933 -59.0100 -0.4022
7.6105 -63.6312 64.5848
64.0572 1.8763 41.1321
48.6162 -41.7529 -69.0467
-47.9069 42.5650 -61.4065
64.0025 -3.2432 9.0557
-57.5104 28.2736 6.1533
-24.0242 -59.4111 44.7760
19.1937 -61.1428 0.1295
-64.0024 -3.2455 -53.8239
62.9581 11.9632 -1.6243
45.0776 -45.5506 37.7352
-27.8631 57.7104 67.9015
-32.6135 55.1652 -63.2622
32.0775 55.4786 10.0017
52.0360 -37.4045 56.0341
61.1160 19.2788 -34.3770
4.5278 63.9245 -20.6899
38.7199 51.0648 -3.6311
19.3180 61.1037 -63.8740
48.7197 41.6321 -7.2517
-61.2681 18.7900 12.7501
63.6854 7.1423 64.1466
3.2139 -64.0040 6.4142
15.5130 62.1787 -17.6367
-64.0699 -1.3760 52.4122
-2.0537 -64.0517 15.2082
39.0092 50.8441 14.0431
45.3569 45.2725 -43.3998
-61.5998 17.6724 -59.2785
37.8509 -51.7122 70.9154
35.6940 53.2239 -55.6480
37.4840 -51.9788 58.6291
11.8394 -62.9815 50.1808
46.0382 -44.5794 66.9261
-36.4556 -52.7051 -3.5779
-62.9176 -12.1747 38.9982
52.8465 -36.2504 -57.1025
-44.1107 46.4875 -33.5171
64.0807 0.7095 75.1020
9.1351 -63.4302 19.7488
-32.3745 -55.3059 59.6899
64.0467 2.2052 -66.0013
-53.3351 35.5276 6.3994
43.2587 -47.2814 56.7947
34.8979 53.7493 -7.9379
60.9693 19.7379 9.4068
62.8024 12.7554 3.2899
-53.2128 35.7105 22.3464
-1.1509 -64.0743 -42.7136
-55.8208 31.4782 29.5175
38.5346 -51.2047 -68.2489
-27.8072 -57.7374 8.8786
-63.8600 5.3612 41.6560
-7.0752 63.6929 -17.5357
2.4087 64.0394 -17.4268
-43.8841 -46.7014 -66.7558
-1.3002 64.0715 59.4802
-53.0468 -35.9566 -67.5683
-36.5246 52.6574 1.0883
2.0472 64.0520 -38.1615
60.8286 -20.1673 -53.0864
-0.4027 -64.0834 14.6435
-39.4254 -50.5221 17.7357
-49.3976 -40.8255 60.1626
-23.8986 59.4617 -58.5605
-62.4665 -14.3101 34.3143
9.8543 -63.3225 18.8772
20.3420 -60.7704 60.8198
-56.2207 -30.7584 -39.0951
-60.7579 -20.3795 -61.6738
1.8112 -64.0591 33.7601
33.0906 -54.8804 40.2318
-8.2440 -63.5522 72.5868
-61.5010 -18.0129 -26.9550
-2.1342 64.0491 6.9506
-6.5395 63.7501 -22.1571
-13.4521 62.6569 12.9497
47.9005 42.5721 -75.6406
10.2172 63.2649 -13.4147
63.4117 -9.2627 -48.0889
-37.7989 51.7502 -9.8148
-52.9276 -36.1320 -34.0497
62.7218 13.1460 54.1191
-17.5676 61.6297 -26.8517
-24.4365 -59.2427 54.8526
63.9750 3.7477 35.9491
-62.9135 -12.1959 64.5050
31.5181 55.7984 -42.9793
52.7873 36.3365 -17.2274
60.0174 -22.4669 4.0341
-63.0842 -11.2794 68.9413
17.8699 61.5428 62.6640
62.3352 14.8715 -14.8684
-37.4027 52.0373 10.7659
27.6206 -57.8269 -60.2919
59.5624 -23.6466 65.7329
-5.4331 63.8539 -29.7318
63.1363 -10.9840 32.7905
28.1621 -57.5651 27.2526
37.1000 52.2536 22.0585
17.7216 61.5856 35.8460
61.5056 -17.9973 -32.2757
-27.6108 -57.8315 51.6928
15.8304 -62.0987 -5.0883
-32.4494 -55.2619 34.5827
20.9889 60.5501 -32.0905
-60.8417 -20.1277 -15.9811
-28.6562 57.3207 47.8530
-49.7326 -40.4167 -57.4757
-39.4627 50.4929 70.0156
-63.6105 7.7815 19.5736
60.3850 -21.4592 -51.3227
36.5651 -52.6293 23.6522
58.7080 -25.6947 49.1579
32.7902 -55.0604 -30.9820
52.1678 37.2205 -75.2593
61.7604 -17.1026 3.6332
6.7747 63.7256 -42.2229
46.5133 -44.0835 -69.7107
11.0807 63.1194 -19.3245
52.3889 36.9087 19.7147
-46.7047 43.8807 3.1836
50.2751 -39.7399 19.8446
26.5008 -58.3485 36.4297
22.8703 59.8648 16.7892
39.2373 -50.6683 34.8092
63.1967 10.6311 -19.4580
-61.3140 -18.6396 56.2870
9.0980 63.4356 -25.5902
64.0754 -1.0909 -13.5677
-15.3237 -62.2256 -30.6083
-46.1667 44.4464 43.5008
36.5639 52.6301 49.2761
-41.2793 -49.0190 -37.3763
5.8020 63.8215 53.8636
-41.6199 48.7301 -44.8373
-34.3408 -54.1069 67.4381
-39.4325 50.5166 26.0372
-60.7102 20.5210 28.9840
21.8299 60.2520 -46.5370
54.6636 -33.4475 1.6126
43.4412 -47.1138 -2.1750
47.6270 42.8779 37.1806
61.2162 18.9586 -18.4562
60.2967 -21.7062 24.7976
-58.6504 -25.8258 35.1709
-37.5942 -51.8992 -63.9615
33.3891 54.6993 -4.2244
-63.1252 11.0478 3.3487
63.8259 5.7535 -41.8668
-63.7696 -6.3470 -42.7896
28.9518 -57.1720 -40.2264
-44.6598 -45.9603 -50.1100
16.9039 -61.8151 66.4991
51.5177 -38.1153 -35.4480
-14.2557 -62.4789 -52.4457
-12.0501 62.9416 6.3192
-46.7111 -43.8739 -14.3904
52.3612 36.9479 -54.3688
-13.4787 62.6512 73.2205
56.2913 30.6290 -47.8169
37.2836 52.1227 -37.2911
64.0787 0.8713 10.6181
1.7927 64.0596 -69.0744
-31.3406 -55.8982 -19.3009
-43.2079 47.3278 52.6941
8.3610 63.5369 -47.1225
53.0490 35.9535 -59.6193
-47.7137 -42.7814 -4.6979
-12.4468 62.8643 -32.3096
-62.3915 -14.6337 55.7286
4.0495 -63.9566 -5.0285
30.3527 56.4407 72.4783
-18.6313 -61.3165 -42.6745
44.7833 -45.8399 67.5716
-59.3819 -24.0964 25.3422
63.8899 4.9929 14.0902
53.7023 -34.9701 59.8974
-62.1760 15.5238 38.1813
50.9064 -38.9279 -52.0618
-14.8163 -62.3484 60.1754
-11.1651 63.1046 -59.7450
-29.4374 -56.9235 -16.7935
41.4521 -48.8730 36.8285
-61.9369 16.4518 -40.9694
-24.8430 -59.0734 -44.5689
8.5401 63.5131 -71.2726
63.1359 10.9866 -55.9029
-52.3027 37.0307 32.4878
-62.7617 -12.9543 40.3465
34.7276 53.8594 74.0720
51.4223 -38.2438 51.6431
-16.3994 61.9508 -62.3744
-34.8976 -53.7495 40.7772
-35.8929 53.0900 -37.6605
0.1132 64.0846 -38.7406
-23.0556 -59.7937 -67.8744
10.2640 63.2574 -52.9294
-15.2058 62.2545 68.4293
63.9037 -4.8123 -70.9055
-30.5712 -56.3227 -52.7517
4.7692 -63.9070 -14.6143
-56.7950 -29.6846 -8.8254
-34.2349 -54.1739 -61.5011
64.0288 2.6762 -25.0351
-61.8811 -16.6604 -50.4894
-62.0827 15.8930 -44.4957
-6.8543 63.7171 28.6643
10.5429 -63.2115 62.4573
63.9923 -3.4403 -26.3596
54.4538 -33.7880 39.5671
-58.5154 26.1303 -28.3611
-56.9323 29.4204 -59.6855
57.3804 -28.5365 -60.8211
-60.4042 21.4051 17.7767
33.2921 -54.7584 18.8404
16.8611 61.8267 50.5130
31.2399 55.9545 -9.7984
14.6157 -62.3957 21.8721
12.0395 -62.9436 -45.5623
9.1821 -63.4234 6.4291
-44.9192 45.7068 -39.4562
-63.3580 9.6234 -67.8143
-5.2453 -63.8696 28.1455
-31.5507 55.7799 -54.0353
-63.6357 7.5722 -40.3704
-32.5617 -55.1958 -11.3599
21.1250 -60.5027 5.7394
47.4312 -43.0944 -11.0250
-27.2121 58.0202 28.2879
9.5776 63.3649 0.3474
30.8053 -56.1950 -40.7148
-24.0647 -59.3947 73.0032
3.7166 -63.9768 47.3608
42.9716 47.5425 46.2517
-50.9641 -38.8523 -41.1747
-51.9300 -37.5516 -7.2184
61.9776 -16.2980 72.7319
-64.0539 -1.9870 41.9460
31.1840 55.9857 -19.1051
56.9369 29.4115 2.2489
-8.3797 -63.5344 -12.5530
-6.1428 63.7896 -69.2522
-8.6940 -63.4922 -13.3310
28.2456 57.5242 8.9324
-62.1068 15.7986 60.9311
-50.8583 -38.9907 -4.4133
-24.5715 59.1869 3.5478
19.6506 -60.9975 71.7596
-64.0825 0.5306 -5.9519
9.3889 -63.3932 -14.3869
54.2381 34.1332 42.9035
63.0376 -11.5371 65.8189
-44.7936 -45.8299 14.2444
-3.3392 -63.9976 -74.0932
-63.1142 11.1106 24.6140
63.7471 -6.5685 -36.4283
-48.1370 -42.3045 -44.6216
-61.9256 16.4944 13.2888
-63.8257 -5.7550 18.3862
33.4540 -54.6596 73.6036
-10.7012 63.1849 -49.0320
22.8627 59.8677 16.7472
34.6461 53.9119 -57.4204
33.0985 54.8756 -19.1109
63.5022 -8.6202 -32.1766
-13.8936 62.5605 70.1971
-34.4784 54.0193 34.9742
-38.9699 50.8743 -32.3115
22.5492 -59.9865 -19.0720
61.4623 18.1448 13.1586
58.7982 25.4877 -42.9608
-32.1763 -55.4214 -11.9483
-19.0748 -61.1800 -7.4292
61.8369 16.8238 -52.0675
-17.9003 -61.5339 -0.9345
-42.6749 47.8089 -65.1973
-17.7894 61.5661 -36.6630
-47.1618 43.3890 -26.2951
-52.7865 36.3377 11.1604
64.0806 -0.7245 34.4650
61.1076 19.3057 35.6743
-7.2139 63.6773 71.5698
-9.5369 -63.3711 10.3784
-62.9344 -12.0874 -11.2392
-59.6738 23.3641 -55.4493
62.8478 -12.5301 27.3876
-36.7760 -52.4821 -6.1945
-8.0546 -63.5765 57.7700
-23.9923 -59.4240 -66.5972
-58.0686 -27.1087 60.1366
-5.8567 -63.8165 -57.3580
-48.8029 41.5346 -11.6196
-13.9632 -62.5450 -4.7534
-57.6267 28.0358 61.9071
-35.3390 53.4602 -40.6580
-62.8277 -12.6303 10.2678
-52.9054 -36.1644 -69.7679
-63.2953 10.0274 -35.2399
62.1707 -15.5450 -27.5615
23.0362 -59.8011 -10.3175
58.4552 26.2646 66.2590
51.1614 38.5922 72.1200
-8.3677 -63.5360 -64.3563
38.8138 50.9934 -53.9965
37.7220 -51.8063 -73.0545
60.6561 -20.6805 -60.3028
-37.4794 -51.9821 28.4015
6.1593 63.7880 -1.4875
37.0966 -52.2560 5.0400
-48.3854 -42.0202 -41.6304
-4.2050 -63.9466 -60.8133
40.8657 -49.3643 -24.0823
-6.4615 -63.7581 -46.3844
44.6002 -46.0181 36.9722
63.9438 4.2468 -26.3683
-50.6215 39.2976 -65.9370
-64.0613 -1.7297 69.5390
29.0733 -57.1103 1.8544
-64.0301 2.6427 -72.1941
-51.2665 38.4525 27.5975
-29.6074 56.8353 -71.9716
7.1298 -63.6868 15.7349
58.6774 -25.7645 0.0153
14.8752 62.3344 -37.6905
-26.2792 58.4487 55.4087
40.1805 49.9237 60.8314
-24.2272 59.3286 -46.1304
63.7384 -6.6528 -65.2692
-40.8401 -49.3855 16.4284
61.4653 18.1346 73.3495
7.8269 -63.6049 75.1042
63.6393 -7.5423 -1.3284
-37.5956 51.8981 -65.7960
47.5017 -43.0166 40.9206
-19.6089 61.0109 15.6998
-38.7621 -51.0328 -50.1962
-33.7284 54.4907 -20.1100
-38.0827 -51.5417 -60.9719
-56.2487 -30.7072 -37.8598
52.0663 -37.3624 69.6130
1.3214 -64.0710 15.0012
63.2205 -10.4886 -1.1713
-59.7530 23.1609 49.5381
18.8141 61.2607 74.5147
-63.9262 -4.5038 -11.3073
-59.6143 23.5154 7.7672
-23.9789 59.4294 -29.4294
-63.9463 -4.2092 -69.5458
1.2432 64.0726 -21.2105
-2.7239 64.0267 74.5050
54.5988 33.5531 -61.5113
52.1276 37.2767 38.8715
55.9793 31.1956 28.6448
-60.7176 20.4992 -43.0589
38.8127 50.9943 43.5017
41.3131 -48.9905 21.4576
48.9114 -41.4067 -26.2533
-44.2316 -46.3725 -12.2216
62.6879 13.3069 -72.8269
62.5912 13.7543 21.0873
-63.5066 -8.5878 1.7473
-24.7645 -59.1064 8.5979
63.4777 -8.7994 -11.4831
-24.5800 -59.1833 64.1129
-57.0082 -29.2730 -30.1052
-24.9381 -59.0333 14.6715
3.2790 64.0007 -34.7359
-50.1937 39.8426 -43.7428
-63.3174 9.8869 53.4503
-55.2098 32.5380 -73.9298
-37.4960 -51.9701 62.4676
-12.7720 -62.7990 39.9509
-11.4925 -63.0458 -14.0067
23.6671 59.5543 -13.4912
63.9447 -4.2328 7.3793
-50.6873 -39.2127 -19.7416
17.5921 -61.6227 34.8303
-30.9862 -56.0955 -28.2656
36.7443 -52.5043 -9.3203
-63.9694 -3.8422 -10.2941
-48.2717 -42.1508 -47.6144
-4.4083 63.9329 1.9916
64.0633 1.6553 -65.2125
-33.2744 54.7692 -20.8062
-31.9852 55.5319 8.8671
37.7558 -51.7817 14.0896
-9.6088 -63.3602 -58.6000
-3.6424 63.9811 49.0455
53.3452 -35.5125 0.7715
48.6399 -41.7253 62.2893
59.8512 22.9057 -74.6859
-52.3627 36.9458 66.5297
59.1649 -24.6243 -40.5269
58.9105 25.2269 -41.5108
-33.5284 54.6140 19.0683
-49.6202 40.5546 -22.9530
-36.0637 -52.9741 20.8118
61.1193 19.2686 44.8647
63.7176 6.8493 -2.1385
-15.3184 -62.2269 -54.0824
36.9666 52.3480 37.0327
63.8770 -5.1550 53.2490
-23.6975 59.5422 -5.8467
-47.7859 -42.7007 -47.7826
-42.5309 -47.9371 18.0018
-38.1606 51.4841 -64.6017
6.3511 63.7692 43.1388
63.5083 8.5757 8.8330
-55.0949 -32.7322 3.9057
17.3841 -61.6817 19.1955
48.8324 -41.4999 8.6569
-64.0323 -2.5901 -42.8338
62.7351 13.0826 -26.6477
24.6649 59.1480 -24.5566
-49.3118 -40.9290 48.9333
-62.1851 15.4874 -56.9612
61.6535 17.4839 -39.5296
53.4537 35.3489 34.7932
12.9032 -62.7722 -71.6429
-63.7049 -6.9663 -40.4711
11.1897 63.1002 -25.8291
61.9016 16.5843 -48.9148
63.9843 3.5859 -2.7869
58.7745 -25.5421 -72.7890
-62.8775 -12.3802 56.8373
-55.8263 31.4686 63.7401
-29.2161 -57.0374 -52.0171
41.5600 48.7812 -19.8340
40.9717 -49.2764 2.3344
-19.4643 61.0572 -9.4307
-27.3028 -57.9776 -3.3425
61.6311 -17.5628 -58.1007
44.9529 45.6737 67.2418
63.4804 -8.7796 -73.3101
-62.7389 13.0643 2.6456
17.8033 61.5620 62.8032
31.4413 -55.8416 -34.2189
45.0340 -45.5936 -44.1970
53.2883 -35.5977 -23.6743
23.1214 -59.7683 -49.8640
-63.9501 -4.1507 29.4510
4.3696 63.9355 51.7943
-45.7978 44.8264 -27.9012
64.0554 -1.9349 -32.3047
-64.0547 1.9586 -53.9511
-59.4137 -24.0179 18.1497
-62.4573 -14.3504 30.5371
60.9967 -19.6530 75.3117
-33.2385 54.7909 -35.6746
13.8531 62.5694 15.5982
-56.3818 30.4620 -21.8417
40.1514 -49.9471 24.9055
60.5454 -21.0025 65.5954
-44.1686 46.4325 -74.3203
-64.0736 -1.1887 -37.7165
-22.9194 -59.8460 -58.0705
-57.8769 27.5156 3.3243
-57.6292 28.0306 -49.1778
-43.7506 46.8265 54.0451
-58.4608 26.2523 60.0798
63.8466 -5.5192 -26.5478
-30.7438 56.2287 26.4096
4.4538 -63.9297 -24.4686
57.0911 -29.1109 -36.2405
62.0069 16.1862 -34.9928
63.2158 10.5167 58.9039
-57.9006 -27.4657 72.0502
61.7245 17.2316 -41.6561
56.2786 -30.6523 21.8272
-29.1559 57.0682 56.4245
-44.7589 45.8638 63.4033
1.0529 -64.0760 72.1544
-46.9810 -43.5847 9.4005
11.6074 -63.0247 53.1716
29.7412 -56.7654 19.0137
-11.9361 -62.9633 72.1853
-63.9977 -3.3365 10.2750
-33.2238 -54.7998 16.4980
50.9236 38.9054 52.9588
-62.5981 13.7232 62.7051
44.5266 46.0893 32.0963
-62.1574 15.5981 62.7637
60.2407 21.8611 29.2798
63.9907 -3.4687 -0.9389
-11.5688 63.0318 8.0367
-58.2521 -26.7121 10.0981
-50.0732 -39.9939 -68.7075
-12.1516 62.9220 1.6630
37.7699 51.7714 49.8470
-59.7242 23.2349 46.4270
-10.8430 63.1607 -11.3743
58.8847 -25.2871 31.1800
43.8663 46.7182 -50.7825
-0.9374 -64.0778 -49.6782
-60.4052 -21.4023 40.4286
-26.0238 58.5628 -42.9727
-61.5287 17.9181 38.5516
64.0833 -0.4193 6.7935
38.7253 -51.0607 -21.0457
7.4051 -63.6554 -74.6157
-63.7709 -6.3332 -37.8221
-46.0303 -44.5876 -65.5900
-17.2399 -61.7222 -53.3313
-51.6093 -37.9910 -19.9816
57.5062 -28.2821 -48.7903
-11.6760 -63.0120 -7.4648
-44.1943 -46.4081 26.4805
58.5885 -25.9659 38.0091
-56.4468 30.3414 57.0674
57.7962 -27.6846 -24.6082
-10.1914 -63.2691 17.5687
9.8442 63.3240 -27.7779
29.1068 -57.0932 -23.4428
-57.6185 -28.0527 9.0732
42.1339 48.2864 40.5443
4.3614 -63.9361 -48.1163
46.7892 -43.7906 54.5058
-63.9866 -3.5446 15.1296
-63.9910 3.4636 -25.3812
46.3017 -44.3057 29.7501
40.0031 -50.0659 -47.4170
26.2937 -58.4421 -44.9801
25.8542 58.6379 -23.8639
-61.3222 18.6125 7.8120
-20.1395 60.8379 16.3294
-57.2864 -28.7248 -42.1582
61.1626 19.1305 -30.1975
61.7377 17.1842 -10.7159
32.9401 -54.9708 11.7202
9.0141 63.4475 -48.8071
-34.6472 -53.9112 -53.1509
-38.0713 51.5502 30.1320
14.4339 -62.4380 -50.2820
60.5508 -20.9868 61.8851
34.6164 -53.9310 -2.3364
9.7014 -63.3461 -55.7438
8.6382 63.4998 34.4669
-63.8904 -4.9855 -64.0909
26.2776 -58.4494 -5.7392
38.4714 51.2523 19.1578
42.9847 47.5306 -8.4068
37.0440 -52.2933 75.3057
61.6506 17.4943 69.7481
63.7144 6.8792 -66.5695
-14.9212 -62.3234 30.3030
-37.1313 -52.2313 57.4390
56.8168 29.6428 22.4512
-55.7498 -31.6038 43.4426
60.2227 -21.9106 68.5957
-27.3686 57.9466 18.9970
47.7166 -42.7782 -35.7229
-43.1498 -47.3808 10.4081
29.2819 -57.0036 -25.5905
58.9548 -25.1233 48.7068
-54.7070 -33.3765 -50.7774
-51.7368 -37.8172 72.3682
-63.2269 10.4501 -29.1408
-61.2959 18.6992 -14.1107
-59.5820 -23.5972 -46.9701
-35.8832 -53.0965 27.5287
-24.0344 -59.4070 -38.6747
17.2386 -61.7226 -53.0849
51.8427 37.6720 9.0172
-39.0260 -50.8312 65.4015
-40.6344 -49.5549 7.9574
-62.9541 -11.9846 7.7309
-61.5195 17.9498 -26.0749
0.2957 64.0840 47.8508
-27.9599 -57.6636 -72.5785
20.3278 60.7752 25.9202
-26.4103 58.3895 40.1748
62.3320 -14.8851 -25.8991
-22.0417 60.1748 -71.6225
-18.2063 -61.4441 -9.0642
34.1495 -54.2278 64.3517
26.5770 58.3139 12.2928
2.5923 -64.0322 -42.2395
-61.5588 17.8147 -8.9064
-10.4620 -63.2249 19.8920
-63.5778 -8.0443 -23.0588
3.8293 63.9701 -54.0812
-38.8941 50.9323 39.6864
41.2560 -49.0386 50.2264
-63.9142 4.6705 -18.4646
-12.2351 -62.9059 -41.3269
56.3518 -30.5176 -19.2918
38.7447 51.0460 -12.2074
-15.1808 62.2606 -47.8819
-1.5604 64.0657 13.1477
58.9627 -25.1047 43.7305
9.0869 -63.4372 25.0210
49.5302 40.6645 -42.8695
63.7430 -6.6082 -32.2673
35.9702 -53.0376 21.9222
63.9593 -4.0058 -59.3355
38.7403 -51.0493 73.4447
62.5755 13.8259 -74.2775
-62.6413 13.5245 -37.0234
-40.7701 -49.4433 -62.5301
64.0569 -1.8868 55.7152
36.7478 -52.5019 -55.5570
-7.4302 26.3403 75.7374
-38.4375 31.0060 75.7374
22.7067 0.0464 75.7374
1.3135 6.0138 75.7374
-46.2457 37.4520 75.7374
16.7142 -46.9885 75.7374
46.5927 14.2217 75.7374
32.6671 -38.9382 75.7374
-1.7297 -17.8829 75.7374
-8.5621 -59.5134 75.7374
-2.1981 -0.5953 75.7374
-0.3594 0.1697 75.7374
39.6112 -14.6438 75.7374
24.0968 40.2421 75.7374
-3.8128 -25.9220 75.7374
8.2617 13.2034 75.7374
-14.6478 21.8379 75.7374
-19.5035 19.2098 75.7374
14.2220 19.9401 75.7374
0.5434 -14.6323 75.7374
-4.6623 17.0036 75.7374
0.1500 8.3514 75.7374
-11.4822 -38.1653 75.7374
14.5014 -26.9437 75.7374
19.5264 -39.8427 75.7374
0.4291 -0.0469 75.7374
13.6827 -35.4864 75.7374
-14.9434 4.2807 75.7374
0.3078 0.1882 75.7374
5.2560 -44.2374 75.7374
-28.5099 -22.7377 75.7374
50.1542 -25.1683 75.7374
18.6665 13.4170 75.7374
-21.9582 14.6804 75.7374
-13.3741 30.8613 75.7374
-46.9705 18.4269 75.7374
-22.3436 -54.0154 75.7374
-12.2240 -38.1915 75.7374
2.5835 1.0336 75.7374
4.8479 -22.2419 75.7374
-16.8903 -39.3259 75.7374
10.1008 -30.9423 75.7374
6.1098 0.0173 75.7374
11.6502 8.8838 75.7374
-11.2627 -0.5605 75.7374
-13.4802 41.3794 75.7374
-21.2251 -2.9096 75.7374
-37.2249 36.3989 75.7374
-12.2475 -52.4509 75.7374
23.6330 -42.2460 75.7374
-26.1969 -11.0716 75.7374
14.4509 -1.5329 75.7374
-13.9571 -1.1676 75.7374
-5.8949 -5.7558 75.7374
-0.9397 5.1772 75.7374
-42.9166 10.3546 75.7374
-48.4537 -12.0011 75.7374
-22.0664 3.1619 75.7374
-6.0053 -8.1534 75.7374
-31.0431 -53.9641 75.7374
-14.9183 57.2250 75.7374
29.8323 3.9575 75.7374
-10.6193 1.8581 75.7374
2.0100 35.4825 75.7374
-9.4098 -53.5713 75.7374
-5.6609 10.5415 75.7374
-14.2495 8.1347 75.7374
-6.1584 -52.4636 75.7374
-1.5101 -4.5766 75.7374
-8.8069 24.1092 75.7374
7.9752 8.6797 75.7374
-6.1445 8.1054 75.7374
6.3382 7.0511 75.7374
-15.6713 -12.6521 75.7374
-19.9440 -18.0048 75.7374
30.9074 -17.8778 75.7374
9.8185 -43.4019 75.7374
24.8568 11.2126 75.7374
1.3903 10.7909 75.7374
32.6498 5.1211 75.7374
-36.4438 -3.4693 75.7374
-30.2024 -33.1789 75.7374
11.5420 -25.5299 75.7374
16.2935 -20.7583 75.7374
58.3516 3.1319 75.7374
53.7487 -32.8262 75.7374
6.1081 2.4318 75.7374
-23.8080 2.3231 75.7374
-7.8294 21.0374 75.7374
27.7960 -10.2693 75.7374
-9.4710 -11.7514 75.7374
54.9053 -27.3135 75.7374
-12.6193 51.4439 75.7374
-1.8982 -38.7358 75.7374
43.4718 29.8599 75.7374
58.4311 14.9182 75.7374
23.1923 -58.4387 75.7374
44.5817 24.8327 75.7374
0.9540 0.3833 75.7374
-30.3908 11.6247 75.7374
9.8400 -5.9829 75.7374
-43.9634 -31.4149 75.7374
4.9751 32.6537 75.7374
6.5818 -6.8164 75.7374
-38.8842 -41.9904 75.7374
31.1876 -37.1497 75.7374
-43.1894 -21.5341 75.7374
5.0797 -27.7570 75.7374
49.8093 27.0501 75.7374
-7.8443 39.1988 75.7374
42.3123 19.7711 75.7374
-4.4401 9.0725 75.7374
37.9586 -2.3811 75.7374
56.8336 -28.5250 75.7374
-28.8326 -6.3680 75.7374
39.0146 -25.0545 75.7374
-14.9953 9.4351 75.7374
-12.7149 0.3623 75.7374
26.2874 -29.2075 75.7374
-21.5564 7.0252 75.7374
29.4532 -24.7656 75.7374
20.6108 12.3691 75.7374
-0.0413 -49.1964 75.7374
-26.2250 21.4348 75.7374
10.6020 19.1034 75.7374
21.9502 -16.3158 75.7374
15.1240 -20.4130 75.7374
3.8255 -13.0296 75.7374
6.2580 17.1705 75.7374
0.1862 -9.5450 75.7374
10.3873 8.2282 75.7374
-12.8216 -21.8155 75.7374
16.6156 22.5920 75.7374
8.4622 9.5625 75.7374
3.9110 8.5583 75.7374
-3.0635 10.3759 75.7374
-1.6833 4.2497 75.7374
0.0512 2.8438 75.7374
-8.2460 3.8185 75.7374
11.1256 5.1179 75.7374
-41.2843 3.5523 75.7374
58.2138 -10.0552 75.7374
-49.7326 -28.8917 75.7374
7.6490 -0.9494 75.7374
3.9127 -4.5915 75.7374
55.5715 -15.7987 75.7374
-28.1871 -42.5492 75.7374
1.2331 29.1686 75.7374
-7.7556 33.6891 75.7374
-18.8114 -17.8167 75.7374
14.9854 -39.4422 75.7374
-23.7788 -0.7048 75.7374
-30.5998 12.9957 75.7374
18.9033 -6.6791 75.7374
1.4185 -59.4320 -75.7374
-0.6972 5.4761 -75.7374
36.2846 0.2706 -75.7374
-3.2345 0.1698 -75.7374
-40.6388 7.0745 -75.7374
7.6614 48.9726 -75.7374
11.0947 -21.4673 -75.7374
24.2703 -34.2744 -75.7374
-33.9702 48.5163 -75.7374
-5.9755 -4.7058 -75.7374
1.2426 1.7793 -75.7374
-0.7374 -58.2363 -75.7374
-43.9233 36.4792 -75.7374
2.2837 -1.6644 -75.7374
3.8508 -52.2363 -75.7374
-43.0467 7.5978 -75.7374
-15.3320 45.0148 -75.7374
13.8135 8.6102 -75.7374
0.4831 -5.1321 -75.7374
-9.6617 -28.2395 -75.7374
-21.4856 36.9093 -75.7374
35.6997 52.2293 -75.7374
14.5651 5.1233 -75.7374
-12.4920 3.4678 -75.7374
-36.5042 1.3956 -75.7374
-8.8430 -25.0426 -75.7374
-11.2329 46.0851 -75.7374
12.8872 -27.1363 -75.7374
17.9898 50.8717 -75.7374
12.3480 -2.1155 -75.7374
30.2117 50.1977 -75.7374
6.0663 -1.0697 -75.7374
-10.2277 8.0405 -75.7374
-12.9260 -59.5731 -75.7374
-35.0567 26.4096 -75.7374
-39.6286 -29.7927 -75.7374
-18.0374 20.1955 -75.7374
3.5826 0.1150 -75.7374
-32.1441 -53.9094 -75.7374
-21.1337 0.8885 -75.7374
-23.1570 6.1143 -75.7374
22.7012 10.2039 -75.7374
-36.9717 16.8512 -75.7374
46.2821 40.4634 -75.7374
53.4181 12.5478 -75.7374
-5.2473 -4.0058 -75.7374
-14.5450 51.2851 -75.7374
0.6688 -1.5812 -75.7374
-4.4431 -25.4753 -75.7374
2.2367 33.7187 -75.7374
-8.3842 -16.2864 -75.7374
33.1435 -25.4316 -75.7374
-10.1704 -7.7293 -75.7374
-8.5284 -3.6293 -75.7374
5.9660 -19.5540 -75.7374
5.7894 -22.7588 -75.7374
-51.1584 5.6467 -75.7374
-25.8605 16.3771 -75.7374
17.8749 -46.6293 -75.7374
-3.1138 2.8631 -75.7374
1.6072 -49.2931 -75.7374
-0.2792 7.6469 -75.7374
23.8032 -19.0567 -75.7374
32.0225 -33.2127 -75.7374
7.5713 -9.8972 -75.7374
51.1197 -14.1162 -75.7374
4.4084 -8.8896 -75.7374
2.8287 -14.6043 -75.7374
2.3678 -1.6856 -75.7374
45.4251 37.3598 -75.7374
-37.8746 14.1189 -75.7374
-14.6094 19.7814 -75.7374
53.6470 -34.5040 -75.7374
-23.0590 -17.9567 -75.7374
1.4855 -15.8698 -75.7374
14.1305 -25.0680 -75.7374
49.1812 21.1709 -75.7374
-7.1930 -13.4487 -75.7374
-42.8311 16.0584 -75.7374
-18.5171 -25.4047 -75.7374
-8.0149 -24.4477 -75.7374
5.8337 -21.5784 -75.7374
23.9732 -13.1760 -75.7374
-9.5430 -7.7489 -75.7374
6.8890 0.4793 -75.7374
-25.3429 -18.9065 -75.7374
-39.8924 34.6339 -75.7374
23.9060 20.8472 -75.7374
41.0074 31.3047 -75.7374
-40.7641 21.6144 -75.7374
-9.1143 14.1162 -75.7374
57.4557 20.4612 -75.7374
8.3267 35.6366 -75.7374
0.7081 -2.2579 -75.7374
-31.6526 -54.7795 -75.7374
3.7644 10.2265 -75.7374
6.8086 13.3666 -75.7374
0.7266 -7.5167 -75.7374
-7.8843 4.1156 -75.7374
1.3476 3.5564 -75.7374
-0.7266 44.3765 -75.7374
-22.7988 38.9291 -75.7374
3.6748 16.0302 -75.7374
21.7139 -3.8124 -75.7374
-59.7268 -10.1123 -75.7374
31.5668 -28.0620 -75.7374
25.0278 17.4247 -75.7374
44.5769 7.0956 -75.7374
-2.6971 -26.7571 -75.7374
0.3355 -8.9256 -75.7374
-7.3455 -12.3208 -75.7374
-22.7412 -4.8694 -75.7374
7.1168 -4.4690 -75.7374
39.3289 -13.0034 -75.7374
-18.9884 -7.2606 -75.7374
27.6706 -42.8233 -75.7374
-21.1314 2.7972 -75.7374
-2.2181 30.1587 -75.7374
-26.9564 32.7593 -75.7374
-8.7025 7.9643 -75.7374
26.6211 -52.7167 -75.7374
2.1927 2.3842 -75.7374
45.2058 -28.7631 -75.7374
-8.3879 -13.8663 -75.7374
34.0761 -11.4468 -75.7374
19.2623 -18.0876 -75.7374
29.2162 -3.8249 -75.7374
14.7829 -5.6986 -75.7374
-6.0106 -7.4119 -75.7374
32.7337 -50.7331 -75.7374
-5.1632 -17.3716 -75.7374
-23.5032 -18.7001 -75.7374
60.3978 10.6956 -75.7374
-7.0631 -28.9479 -75.7374
40.9806 43.8187 -75.7374
-31.8782 -4.5124 -75.7374
0.2489 -19.0367 -75.7374
5.8945 -16.4315 -75.7374
-36.6231 20.1719 -75.7374
33.1368 21.7141 -75.7374
6.8058 -7.2582 -75.7374
-56.0856 -22.0132 -75.7374
22.2646 -23.2866 -75.7374
-24.1214 -1.8026 -75.7374
-50.7233 19.8632 -75.7374
29.3538 37.8500 -75.7374
17.0973 24.6381 -75.7374
15.9659 19.7215 -75.7374
-36.9193 5.6503 -75.7374
4.7435 -1.4987 -75.7374
-25.6080 4.8538 -75.7374
-43.6785 6.4897 -75.7374
-35.0165 -16.7246 -75.7374
21.9778 38.8813 -75.7374
