ply
format ascii 1.0
element vertex 1024
property float x
property float y
property float z
end_header
68.6808 -9.4656 28.8086
1.3052 -69.3177 -21.3533
-64.1609 -26.2684 -6.1246
37.2635 -58.4643 31.8645
-66.3522 20.1005 11.8885
66.8583 -18.3470 -1.3848
-63.8737 26.9592 -33.5775
6.9948 68.9762 -16.4577
-28.4595 63.2195 -20.1565
-17.5340 -67.0761 -23.7559
-22.6238 65.5348 28.7027
61.4806 -32.0434 -17.0629
56.7788 -39.7846 -14.9052
12.1725 68.2530 -20.3016
-61.5584 -31.8938 34.8428
-2.6725 -69.2785 -16.8960
65.2431 -23.4517 29.4751
-63.2721 28.3424 -28.1863
-2.9918 69.2654 -7.7230
-18.0728 66.9330 -3.6815
26.9333 -63.8846 -29.0590
54.4216 42.9527 -19.5961
-47.7619 50.2539 28.1720
68.6252 -9.8604 1.4923
-57.6533 -38.5064 1.0379
-16.7083 -67.2865 -3.2450
11.4706 -68.3745 -30.6002
-50.1149 47.9077 29.7173
45.3870 -52.4087 -1.6776
37.6438 58.2202 31.5590
-67.8530 -14.2342 12.7364
-35.0627 59.8101 3.6735
65.3678 -23.1019 -30.0488
68.1390 -12.7957 -2.3068
54.2645 -43.1510 10.6990
-66.0705 -21.0080 -32.9841
-69.0228 -6.5194 -8.0910
68.2550 12.1616 -4.2913
-20.2722 66.3000 -8.2785
48.4205 49.6195 -1.8934
-10.3980 -68.5458 4.4154
11.3353 68.3971 -2.6818
-28.2134 -63.3297 -15.2782
-59.5249 35.5448 -20.9349
-43.4649 54.0134 24.0579
-68.3439 11.6516 32.7171
-20.6859 66.1721 -5.5696
52.2747 -45.5412 -22.0283
-69.2970 -2.1381 1.0187
-33.7114 -60.5821 20.8743
28.6847 63.1176 13.1462
-50.0091 48.0180 -2.7774
-14.9571 67.6974 9.1851
-13.0139 68.0976 -8.5284
-46.0102 -51.8624 21.4688
25.6917 -64.3940 27.0521
-48.8095 -49.2370 24.5098
50.5138 47.4869 0.1605
62.5306 -29.9429 9.4768
-4.5932 -69.1777 -7.2975
-60.2882 34.2341 32.2190
-15.8513 -67.4936 6.5220
0.0596 -69.3300 16.6895
67.7906 14.5285 -16.4496
24.2909 64.9353 17.7881
58.0418 -37.9183 3.8662
-17.1900 -67.1651 5.6187
-29.2086 -62.8769 -32.3822
-44.0026 -53.5763 10.2901
27.5039 -63.6410 -25.2361
13.2915 68.0440 14.5013
-68.1712 -12.6225 -12.8865
-19.1729 -66.6262 -29.4376
21.8623 65.7927 -11.8298
-11.5560 -68.3601 -2.7864
46.2713 -51.6296 -33.5456
-4.3569 69.1929 19.4222
-47.4403 -50.5575 -2.3691
-64.3822 -25.7212 20.7357
-56.7840 39.7772 15.7371
-59.8457 35.0020 26.5123
-49.8444 48.1890 31.0155
6.5841 69.0166 6.1214
43.1372 -54.2755 30.8076
57.1237 39.2878 -26.8239
64.6720 -24.9836 -5.9026
4.1991 69.2027 -30.0702
-27.1817 63.7793 -9.9270
45.2513 52.5259 -23.9849
-43.2363 -54.1966 -21.4680
19.8321 66.4329 12.7126
47.0585 -50.9131 7.4352
-68.6645 -9.5830 9.3541
69.2866 -2.4528 20.7474
-7.9519 -68.8724 1.5687
52.1673 -45.6642 31.5393
-60.3085 34.1984 -22.9311
-36.4647 58.9659 7.6652
-47.3446 50.6471 12.3860
-11.8515 -68.3095 -3.5079
-27.6146 63.5931 27.4135
-43.2982 54.1471 33.4613
-61.8468 31.3309 -32.5409
-64.4535 25.5419 -32.4551
58.5366 37.1499 -32.4995
-1.8573 69.3051 30.5941
-64.7301 24.8326 -33.7206
17.4774 -67.0909 10.7359
42.6387 -54.6680 -25.9605
-19.5110 -66.5279 31.8344
-18.3195 66.8659 12.7408
28.2800 -63.3000 -25.7607
62.3303 30.3575 23.4894
61.5769 31.8580 24.0953
52.6843 -45.0668 0.1595
25.5572 64.4475 -21.7723
68.8926 7.7755 11.2104
66.5894 -19.3001 -10.1780
68.0412 -13.3059 -9.5326
-18.0221 -66.9466 -28.0723
15.2280 67.6369 33.4034
52.5271 45.2499 -29.8711
16.8113 67.2609 -0.0717
-67.4988 15.8291 -34.0798
27.1841 63.7783 29.5694
67.8235 -14.3742 -15.5542
-13.5107 -68.0008 11.3266
62.5130 -29.9796 8.7581
66.8320 -18.4426 12.9772
-54.5104 42.8399 -24.1728
-39.8069 -56.7631 -28.5428
49.8965 -48.1351 -1.3623
52.4262 -45.3668 9.1052
60.3564 -34.1139 13.7580
65.6832 22.1894 -14.8279
-11.0173 -68.4490 -16.3175
68.9894 -6.8638 31.6579
-15.3690 67.6050 26.7879
26.4358 -64.0921 1.4391
-15.1812 67.6475 -13.2144
4.1040 69.2084 -1.7239
11.7754 -68.3227 20.2671
-66.8669 -18.3157 -2.7218
31.1920 -61.9169 -11.7367
-45.0080 52.7345 -17.3797
10.7157 68.4969 -0.2188
-67.6442 15.1959 9.1125
37.2410 -58.4786 -13.5967
57.4778 -38.7679 -8.3557
13.6340 67.9762 1.2749
68.9960 -6.7968 8.9170
8.5999 68.7945 -24.8113
-64.2898 25.9512 -11.8235
-1.7194 69.3087 -31.1453
31.4056 61.8089 -5.4279
-26.1131 64.2242 16.7527
5.4971 -69.1117 -5.3082
-16.4189 -67.3577 29.2153
-6.1502 -69.0567 -10.8623
-54.9025 -42.3363 -4.2980
21.2084 66.0064 28.0041
-60.6691 -33.5546 3.2826
61.5849 -31.8426 4.5686
19.0671 66.6565 16.4283
19.0394 66.6644 -18.4720
63.8292 27.0644 21.1827
-68.8075 8.4955 31.8163
49.1649 -48.8821 1.4664
2.3187 69.2912 34.6701
-52.0386 -45.8108 25.8783
-6.8342 68.9923 2.2147
42.3052 -54.9265 30.5620
67.6275 -15.2700 -8.7466
41.2703 -55.7082 -26.3926
-57.1609 -39.2336 -24.1784
5.5327 69.1089 -27.3443
-39.6821 56.8505 11.6361
-33.1902 60.8692 19.0365
61.5698 -31.8717 8.5499
-39.5968 56.9099 -12.8742
-62.6787 29.6316 -13.3888
-58.3615 37.4244 -24.4446
27.9507 63.4461 33.1649
59.4202 -35.7195 34.1107
43.6491 -53.8647 -17.8682
-31.7793 61.6176 30.8686
69.3293 -0.3168 -20.7778
-64.4245 25.6149 -24.8407
-52.8817 -44.8349 -30.1602
-31.7418 61.6369 4.9390
63.3712 28.1201 14.9031
-63.2369 28.4207 29.1717
65.8735 -21.6179 25.7632
-51.2624 -46.6778 25.5150
38.1804 57.8697 21.2963
11.7694 -68.3237 -10.3738
-66.5167 -19.5493 -12.0998
-57.6840 -38.4604 -28.6265
53.1325 -44.5375 -34.4738
-66.8731 18.2930 4.9915
-68.2894 11.9665 -9.0580
36.7187 -58.8080 3.2942
-49.3501 48.6951 8.3577
12.4293 -68.2067 -20.0783
22.8038 65.4724 29.6226
15.5774 67.5573 -21.7410
-60.5999 -33.6794 -2.4356
1.4519 -69.3148 22.7415
-40.0115 56.6191 -4.6463
58.1727 -37.7171 2.1142
64.4851 25.4622 22.1583
68.6950 -9.3621 27.5424
-9.0850 -68.7322 -17.4157
-67.5199 15.7388 27.7516
-0.8636 -69.3246 33.5010
-69.2984 -2.0912 11.0923
-58.4298 -37.3176 -20.1569
-41.2718 -55.7071 -9.9321
11.9705 -68.2887 -5.8889
-32.6861 -61.1414 22.0840
42.5088 54.7690 11.3325
-68.1346 12.8189 -19.6709
58.6611 36.9530 25.8027
-69.0977 5.6706 -28.2473
-47.3925 -50.6024 -29.4440
-62.2866 30.4470 30.2982
62.6789 -29.6310 -8.0304
43.3626 54.0956 3.5311
-44.1680 53.4400 4.5803
-3.4709 69.2430 -15.2636
-59.1970 -36.0883 13.8074
-68.9521 -7.2286 4.2061
57.1155 39.2998 -3.7719
58.7688 36.7815 -10.7977
-50.9167 47.0546 -10.1283
-53.3087 -44.3263 2.3807
-47.4684 50.5312 5.4288
-68.5633 10.2818 7.8507
16.0784 -67.4398 3.0249
61.9505 -31.1252 6.3621
-68.9779 -6.9783 1.6084
55.7226 41.2510 32.3349
-31.3945 61.8145 -7.7824
45.6853 -52.1489 14.3160
49.8567 -48.1763 -25.3892
-5.0036 69.1492 30.8144
67.0548 17.6154 -2.6756
-25.5932 -64.4332 -22.5539
5.9183 -69.0769 21.6220
-41.8078 55.3060 26.1022
10.8408 68.4772 -0.4472
35.3152 59.6614 -20.3436
33.4976 -60.7005 9.6500
-47.9592 -50.0656 25.6082
10.1488 68.5832 30.9275
-64.0534 -26.5294 -30.4042
-50.7006 -47.2874 30.7304
15.6536 67.5397 7.4593
-66.7733 -18.6540 17.4957
-68.6183 9.9086 -10.6789
-60.7218 -33.4591 -3.9725
-35.4884 59.5585 28.4271
59.9582 -34.8089 18.3446
-43.2599 54.1777 -11.9258
-63.3010 28.2777 -17.8696
63.6647 -27.4491 27.2367
29.7159 -62.6387 -0.9760
61.3369 -32.3176 -30.9425
-59.2713 35.9661 -31.1205
-53.3825 44.2375 -0.1576
-62.4674 30.0745 -22.4507
-61.8829 -31.2595 8.7234
-67.6497 15.1712 -22.0359
-49.4045 48.6399 14.9775
-69.2449 -3.4334 33.6917
-41.1871 -55.7698 -2.1971
64.4230 25.6189 -22.8479
-58.9313 -36.5206 -15.4070
-69.3111 1.6162 -20.3836
55.4170 -41.6606 12.9106
-18.8594 66.7156 4.6310
-64.6718 24.9841 -28.5593
7.2033 -68.9548 5.4320
61.8960 31.2335 12.6251
-10.1548 -68.5823 13.6364
66.6821 18.9774 2.4320
54.5300 -42.8150 -11.5558
63.9627 26.7473 21.1678
49.6799 48.3586 21.5089
-35.9179 -59.3005 18.7321
-41.3616 -55.6405 14.0683
46.2367 -51.6606 25.3871
34.7745 59.9781 27.2916
15.3249 -67.6150 -8.6715
45.0171 -52.7268 -13.8946
56.7781 39.7857 -29.2939
-60.3707 34.0884 -23.1770
-19.9514 -66.3972 0.5290
67.3884 16.2927 -23.2562
22.5802 65.5498 28.7643
-66.9931 17.8487 31.1811
68.4350 -11.1040 -6.7067
-48.9427 49.1046 10.2112
52.0925 45.7496 -1.7346
-54.4213 42.9531 18.3223
-69.3259 0.7525 0.3883
-16.4953 -67.3391 -28.7331
-23.8477 -65.0994 34.3521
-69.1057 5.5722 -0.1623
21.6269 -65.8705 4.4408
-2.7445 69.2756 5.4356
61.9804 31.0657 -1.0547
63.5640 -27.6814 6.3628
-53.3160 -44.3176 -22.3592
66.1407 -20.7859 18.6153
69.3008 -2.0105 -5.0496
-7.6317 -68.9087 -18.7101
-67.4476 -16.0460 10.1140
52.7410 45.0004 27.6006
-11.3142 -68.4005 11.9354
67.4776 15.9192 28.0350
68.2880 11.9747 8.9951
57.8707 38.1789 29.8069
25.1605 -64.6034 18.8933
-69.2478 3.3740 -16.8383
68.5904 -10.0994 -6.9363
68.6586 -9.6250 -25.0464
60.5389 -33.7888 -32.0614
-22.8024 65.4729 20.6937
-62.3143 -30.3904 -8.9662
-51.1963 46.7502 6.0328
-66.7241 -18.8291 -31.2966
-39.2947 57.1189 32.3213
46.3954 -51.5181 21.5734
-55.7960 -41.1516 -5.4048
-39.9101 -56.6907 -28.6696
33.9158 60.4679 -2.6400
-49.6226 48.4174 26.8253
-23.0730 65.3780 7.1660
65.6268 -22.3556 -17.6293
61.2703 32.4438 1.8456
8.4064 -68.8185 -11.0867
-67.1304 -17.3251 -3.5379
62.4789 -30.0504 34.1493
68.4263 -11.1577 -11.9800
-67.6385 15.2208 10.2331
60.1913 34.4042 -0.7859
-55.4616 -41.6012 8.4094
22.4681 65.5883 -12.2023
9.2044 -68.7163 34.5604
41.6248 -55.4439 -5.6642
15.0933 67.6671 14.0678
-22.3787 -65.6189 -8.4953
15.9260 -67.4760 -18.5798
67.1488 -17.2534 31.4744
36.2714 59.0850 -19.8761
35.9075 -59.3068 11.6102
12.6386 68.1683 10.5950
-63.2520 -28.3871 -20.7760
-1.7108 69.3089 1.0304
68.3652 -11.5257 23.1403
46.9558 -51.0079 17.1338
36.1988 -59.1295 -2.5730
-4.6690 -69.1726 -11.8565
68.2129 -12.3954 -18.1339
-49.7159 -48.3216 11.1546
63.0916 -28.7420 -32.7340
17.7657 67.0151 2.8477
-30.6215 62.2011 -32.5387
14.0620 67.8889 33.3694
60.7936 33.3285 -7.2145
-67.9814 13.6080 19.6826
-19.4447 -66.5474 26.0730
57.1754 39.2124 0.5793
-69.3170 -1.3440 -23.0737
66.1618 20.7186 -13.4229
-7.3348 -68.9409 -17.7884
37.9743 58.0052 31.6589
-12.1160 -68.2631 -28.6298
34.0879 -60.3711 34.3674
-59.8166 -35.0518 -13.7551
-68.0674 13.1711 25.4223
-29.8230 -62.5878 -27.8596
26.9742 63.8674 -13.3858
-50.8242 47.1546 23.9609
-60.1319 34.5080 -2.6465
-44.6531 -53.0353 -27.7688
-31.4177 61.8027 -19.3898
42.3032 -54.9280 16.5995
33.5200 -60.6882 -22.6656
27.9973 -63.4255 -28.4070
-27.9331 63.4538 -2.0043
10.0683 -68.5950 3.0742
28.3375 63.2743 -28.8904
-58.1159 -37.8045 30.9068
-69.0752 5.9384 -7.8861
-55.3615 41.7343 9.1491
23.1439 65.3529 15.4846
0.7330 -69.3261 11.9858
56.8223 -39.7224 -33.4084
-68.2516 12.1803 -20.9395
-27.7639 -63.5280 28.9376
35.1430 59.7630 1.5976
19.2525 66.6032 -6.8340
-25.0942 -64.6291 15.3311
58.6139 -37.0277 7.5670
-55.0963 -42.0838 -31.8420
-36.4842 58.9538 27.9254
-50.4215 47.5848 4.6836
-40.6496 -56.1628 16.6886
37.5643 -58.2715 -12.4243
-14.2358 -67.8527 0.5846
-69.1012 -5.6275 -5.2585
49.4718 48.5715 7.5119
-41.3781 55.6282 -4.3143
65.4289 -22.9282 -1.8252
-18.6986 -66.7608 -31.0996
45.2182 52.5544 -29.6602
-30.7294 62.1478 14.4210
-61.6955 31.6276 -31.4940
-65.3020 23.2872 -3.3105
59.6810 35.2820 -15.9266
67.7808 14.5743 -2.1075
62.2358 -30.5509 30.1126
-43.2839 54.1585 20.1155
-66.3596 20.0762 -25.9439
-67.3895 16.2882 -21.3164
6.6222 69.0130 -6.3894
41.0200 55.8928 11.8269
64.6815 -24.9590 28.8011
-63.5588 -27.6935 -33.1910
-46.1244 51.7609 11.6558
58.9214 36.5365 -17.3777
68.6414 -9.7468 21.1735
-69.2961 -2.1660 11.6390
-58.5261 37.1664 -28.8634
63.4619 27.9148 24.9286
44.8710 52.8511 -34.7498
64.5446 -25.3108 10.9205
39.8102 -56.7609 7.3584
-41.4627 -55.5652 -9.5260
-67.6470 15.1833 -20.2787
-57.9136 38.1137 10.6021
-16.0379 -67.4495 4.0863
-67.4259 16.1369 8.2648
-25.3005 -64.5487 4.2324
69.1170 -5.4307 -4.6040
-8.1422 -68.8502 23.8371
57.6136 -38.5658 -3.2172
-14.0394 67.8936 8.9418
-33.6139 -60.6362 -15.4639
-43.7264 -53.8020 -27.9432
68.8120 8.4593 9.1246
-61.9754 31.0756 -3.8679
-45.7227 52.1161 -32.5074
-57.0631 -39.3758 2.0842
66.2500 -20.4348 -16.2875
-59.6433 -35.3457 -7.4993
50.1288 -47.8931 -27.6423
64.0178 -26.6152 6.3987
-68.9638 7.1161 14.9520
68.9848 6.9099 -6.3145
51.6580 -46.2396 1.3103
65.8280 21.7560 18.5776
62.2080 -30.6073 -22.1199
57.4289 -38.8403 -23.7697
-54.9352 -42.2939 -5.5236
60.4658 33.9195 16.7345
-43.5526 -53.9427 12.8210
24.2007 -64.9690 9.0081
-41.4248 -55.5934 17.9611
49.2075 48.8392 -14.4711
44.2891 53.3397 19.4604
10.2471 68.5685 24.6795
-18.5971 -66.7892 -24.0329
-58.2748 37.5592 -13.4968
-8.0290 68.8635 -31.0536
-38.3823 57.7360 -19.6786
63.2330 -28.4295 -28.2868
64.2107 -26.1464 6.6944
-39.6362 56.8825 -4.1398
33.1377 -60.8978 16.3980
-49.2662 -48.7800 -26.1498
53.3232 -44.3089 -24.3945
66.2766 -20.3483 -26.5865
-51.6687 46.2276 28.1104
-25.6647 64.4047 -7.3489
69.3299 0.1233 -24.2890
-4.2497 -69.1996 -15.9267
-67.1400 17.2877 23.6433
62.2400 -30.5423 21.1457
-57.7319 -38.3884 -1.9597
-45.3267 -52.4608 18.9217
-35.7043 -59.4294 19.2411
-52.1625 45.6697 -26.0753
52.5844 45.1833 28.9042
-62.6140 -29.7681 26.7365
68.9071 7.6456 16.2994
60.6590 -33.5729 -14.2030
-26.1654 -64.2029 -24.4683
-69.1837 4.5011 17.6544
-49.8510 -48.1822 -21.2387
56.8941 -39.6195 -7.7932
24.6699 64.7923 -21.8103
-31.2400 61.8927 -6.5394
5.1503 -69.1384 -8.9060
16.7711 67.2709 3.0614
43.2580 54.1793 19.6595
17.9194 -66.9742 19.6545
38.8545 -57.4193 26.4161
-69.0963 -5.6876 -33.1955
20.4564 66.2434 11.5239
-42.8764 -54.4817 -10.5925
-67.1990 17.0569 -28.6276
4.5365 -69.1814 -20.9909
47.5175 -50.4850 22.6492
-47.8054 -50.2125 33.2924
-9.4141 68.6878 -32.5831
-57.2556 -39.0953 7.6409
68.6217 -9.8846 25.5755
30.1632 -62.4246 7.2175
-52.2591 45.5591 4.7846
-29.3647 62.8042 26.7738
-69.2703 -2.8768 -4.3547
58.6815 -36.9206 6.8963
-40.7799 56.0682 11.5521
-53.9414 43.5542 0.7220
-56.1289 40.6964 -25.0193
68.9306 -7.4308 -13.7659
-61.3300 -32.3307 -0.1064
69.1417 -5.1059 1.7583
-62.4536 -30.1030 20.7936
-69.2835 2.5375 0.4132
50.6215 47.3720 -1.3962
47.1882 -50.7929 -28.6230
66.6007 19.2612 -14.2468
-57.4355 -38.8306 0.3131
-67.8994 14.0114 -19.3047
-69.3182 -1.2784 24.8324
-66.7983 -18.5643 -30.1260
20.5104 66.2267 -23.9224
53.3360 44.2935 -19.7083
60.4259 -33.9905 -31.2185
18.7473 -66.7472 31.1899
7.1188 68.9635 -11.0230
-61.5384 -31.9322 21.6275
67.6964 14.9614 -31.4554
-21.2122 66.0052 31.7269
16.1519 -67.4223 24.1687
55.5523 41.4800 -13.4615
69.2502 -3.3245 -20.4272
-41.7439 -55.3542 20.7130
-65.2412 23.4571 18.6938
-15.4554 67.5853 -6.4855
13.1951 -68.0627 -6.4301
34.8281 -59.9471 -6.2403
61.9035 31.2186 -28.3245
-69.1182 5.4155 24.0172
-55.0337 42.1657 31.3220
55.4716 -41.5878 31.4928
9.1696 68.7209 -11.6683
12.0012 68.2834 -21.3785
39.3126 57.1066 -19.1360
-52.2040 -45.6222 21.2101
-69.3144 -1.4708 5.9490
64.4850 25.4623 -24.2999
38.9860 57.3301 6.8498
52.8097 -44.9198 -18.2504
-66.9074 -18.1670 -2.7508
-62.5407 -29.9217 -21.9802
62.1754 30.6735 6.6430
-11.0712 -68.4403 -2.6691
-8.3113 68.8300 20.4441
-5.1603 69.1377 -15.2480
19.8100 -66.4395 3.8320
-17.4589 -67.0957 -32.2133
68.5883 -10.1136 -11.1018
-68.6306 -9.8225 -21.2005
40.3735 56.3616 -22.7350
2.7680 -69.2747 -17.4885
59.4919 35.6001 -14.4830
-34.6417 60.0550 -28.0457
69.1567 4.8992 16.4092
-58.7195 36.8601 -33.8578
-66.8545 -18.3610 4.1072
-12.2718 68.2353 17.6848
44.3973 -53.2497 -2.3965
-44.0265 -53.5566 -13.8117
61.6858 -31.6467 21.4604
-15.8928 67.4838 -27.7302
-58.8789 -36.6050 -5.2114
-15.1745 -67.6489 23.2224
60.1385 34.4965 15.3014
64.7528 -24.7734 -17.9078
1.8687 69.3048 26.4448
65.6795 -22.2003 -21.5138
-66.8696 18.3059 5.3931
63.9743 26.7195 22.7859
66.3171 -20.2161 30.4517
-48.2557 49.7798 6.2409
34.0399 -60.3981 26.3655
-65.9525 21.3756 7.2343
55.8957 41.0160 -33.5986
-66.3242 20.1929 -8.8360
-47.1997 -50.7822 23.3861
-46.0473 51.8294 -14.2273
-23.9972 65.0444 -27.5471
54.3206 43.0804 10.7867
36.8710 -58.7126 -0.3820
-59.2217 -36.0477 13.6972
-22.3873 -65.6160 -24.6556
53.5196 44.0716 -31.8621
-42.3774 54.8708 -5.6044
-53.5334 -44.0547 -25.1803
8.1153 68.8534 6.9536
68.6854 -9.4323 -21.4210
69.1123 5.4893 26.8755
58.1537 37.7464 9.8661
69.3171 1.3352 3.4526
-19.5269 -66.5233 26.5510
-16.7846 -67.2676 -0.4073
63.1370 28.6419 9.2037
3.2116 69.2556 -19.4022
56.2659 40.5068 -6.2046
-42.4295 54.8305 -19.5143
67.8749 14.1294 10.0410
58.2235 37.6386 -9.7304
0.4829 -69.3283 -15.5060
25.3500 64.5292 20.7676
-17.0794 67.1933 14.5005
55.1350 42.0331 -21.9540
24.6771 64.7896 -3.9160
53.8869 43.6217 -13.6779
64.0590 26.5159 32.0058
56.3190 40.4328 -19.6094
52.8881 44.8274 -32.9705
-34.7320 -60.0028 -1.2444
16.1160 67.4309 1.1802
41.4510 -55.5739 6.5673
69.1648 -4.7825 -27.0753
44.8861 52.8383 -22.5791
49.9033 -48.1280 34.4555
39.3780 -57.0616 23.2061
-54.2498 43.1695 -13.3451
67.9709 -13.6605 -25.7572
-17.1376 -67.1785 -7.4309
-34.3003 -60.2506 7.8209
-51.3754 46.5533 -31.3690
-68.1269 12.8596 -8.0967
-64.1285 -26.3474 14.9445
11.7149 -68.3331 12.9567
-63.7869 27.1640 21.2498
20.6196 66.1927 27.3876
58.0538 -37.8998 34.6616
-52.1343 45.7019 -20.7276
65.1465 -23.7188 -22.1288
31.2366 61.8944 -2.1620
66.7639 -18.6876 16.6835
26.3586 -64.1239 -20.0771
-27.2461 -63.7518 10.7140
-40.1264 -56.5378 34.7990
65.9157 -21.4887 -9.0205
57.1393 39.2650 9.9244
68.0137 -13.4455 -19.9904
13.4155 68.0196 8.8670
-52.7199 45.0251 27.9794
-5.7602 -69.0903 -26.7022
32.3759 61.3062 -8.0522
66.3905 19.9735 34.3990
-69.2670 2.9542 10.1471
50.8232 -47.1556 -15.5711
53.6097 -43.9619 -21.8386
8.6418 68.7893 -27.2718
55.7371 41.2313 -9.1982
-54.8972 42.3432 23.4455
6.7133 69.0042 11.9161
-24.8180 64.7357 6.2946
55.1065 -42.0704 30.1076
68.8113 8.4647 19.7642
2.8102 69.2730 -2.6648
-66.1632 -20.7141 -4.9793
10.4910 -68.5316 -10.8596
69.1598 -4.8543 -26.9806
41.6529 -55.4227 -17.7294
19.7390 66.4606 -25.5623
20.0312 -66.3732 17.3842
57.4159 -38.8596 -0.8399
64.7100 24.8851 10.4439
-38.2318 -57.8358 2.6444
-66.2020 20.5899 30.7443
68.1113 -12.9420 -7.4931
-58.0102 -37.9666 -4.7188
-64.7178 24.8646 2.3140
-42.8280 -54.5198 -3.2435
23.6041 65.1882 14.0552
60.5054 -33.8488 21.6831
-67.7127 -14.8876 -22.7013
-58.3862 -37.3858 -2.0378
-22.8803 65.4457 8.8157
69.0897 -5.7667 28.0183
-27.2500 63.7502 4.3471
-68.6272 9.8466 7.5992
-6.4424 -69.0300 11.7334
-68.1175 12.9093 -29.1184
46.8841 -51.0737 -29.0295
68.8495 -8.1482 5.1937
-6.1164 -69.0597 2.0956
53.4362 -44.1726 -0.4172
-45.9414 -51.9233 -29.5289
16.0155 67.4548 -22.3600
43.2843 54.1582 -34.4556
51.2675 46.6722 19.2745
67.9006 -14.0054 23.0477
64.5174 25.3801 14.8376
-18.1417 66.9143 -12.4548
67.3348 16.5130 28.5123
-8.8922 -37.9834 34.8855
21.5901 -32.3915 34.8855
30.5938 53.2583 34.8855
-63.5918 26.6902 34.8855
-47.8880 -0.4417 34.8855
68.2673 -6.4528 34.8855
-41.4891 15.8819 34.8855
-56.1640 30.4994 34.8855
14.1704 66.0163 34.8855
9.6159 -15.3740 34.8855
42.0730 -21.9711 34.8855
26.2514 -25.3116 34.8855
-14.9965 66.7408 34.8855
11.5428 -17.5273 34.8855
-15.3077 -4.0007 34.8855
-48.9901 47.8427 34.8855
-0.3946 -6.6976 34.8855
-9.1599 -22.5240 34.8855
-21.7337 55.3555 34.8855
-0.2868 8.8105 34.8855
28.4246 46.3282 34.8855
30.9255 27.9968 34.8855
5.1329 56.1429 34.8855
-17.4537 29.8544 34.8855
-8.6276 -31.3462 34.8855
13.5377 -4.7246 34.8855
18.0963 -46.5485 34.8855
-43.6746 -4.2120 34.8855
-0.3074 -0.2708 34.8855
56.9481 -3.8988 34.8855
-34.3037 -48.9922 34.8855
45.3032 34.9926 34.8855
7.0576 -8.7398 34.8855
-36.3405 -4.3668 34.8855
-29.8853 18.3382 34.8855
-20.4613 -47.4696 34.8855
-17.8462 -14.7219 34.8855
-21.8761 18.2106 34.8855
-42.4145 -2.9712 34.8855
55.8879 -28.0775 34.8855
16.7829 5.0255 34.8855
1.2521 -1.8237 34.8855
-61.4209 8.0627 34.8855
-35.8817 -9.9899 34.8855
4.8438 5.4777 34.8855
27.2961 23.0148 34.8855
-11.4491 13.2445 34.8855
1.0374 -37.1032 34.8855
-47.6391 17.8970 34.8855
0.2346 -13.3552 34.8855
-8.7356 1.0651 34.8855
-60.5518 -5.8648 34.8855
51.4202 -31.0351 34.8855
-49.1862 33.3346 34.8855
30.7281 8.4856 34.8855
33.4236 6.9276 34.8855
-1.0154 -19.5263 34.8855
-53.5617 37.2143 34.8855
-21.7306 41.4097 34.8855
16.1278 -20.9291 34.8855
-25.7032 6.3850 34.8855
64.1249 -0.4379 34.8855
-20.8451 43.2707 34.8855
36.2464 -38.1893 34.8855
-13.0318 38.8976 34.8855
42.3907 2.9208 34.8855
1.0038 -0.3768 34.8855
-21.2637 -55.9163 34.8855
29.5915 -8.2428 34.8855
-25.3433 -4.5681 34.8855
-0.3906 -17.7204 34.8855
22.4813 -7.1414 34.8855
-3.8315 -20.5983 34.8855
-41.6250 -17.8145 34.8855
12.0545 18.4123 34.8855
21.3120 46.9437 34.8855
10.5923 12.4197 34.8855
-18.2894 -35.6109 34.8855
31.0560 -15.7082 34.8855
12.6433 -63.8068 34.8855
9.0021 19.9374 34.8855
28.5180 -62.5396 34.8855
30.5056 -11.0603 34.8855
-18.2141 -46.3631 34.8855
-48.1524 14.7193 34.8855
-6.7559 24.3793 34.8855
9.1960 -16.4596 34.8855
22.6309 22.1813 34.8855
9.5521 -35.0512 34.8855
20.0004 -64.5236 34.8855
-13.3917 62.3284 34.8855
42.1962 -5.6100 34.8855
-9.8126 30.8592 34.8855
-11.4492 -35.0191 34.8855
18.5722 41.2588 34.8855
-27.2327 -46.2055 34.8855
11.0327 -24.9736 34.8855
-9.0174 57.1964 34.8855
40.8129 0.7990 34.8855
15.2096 -51.3303 34.8855
-50.2609 1.4514 34.8855
-4.6689 4.0505 34.8855
-36.0553 58.9924 34.8855
-46.9924 5.4307 34.8855
66.1486 -17.3450 34.8855
6.7636 -3.3171 34.8855
-4.4261 1.7747 34.8855
-14.4365 9.9686 34.8855
13.2234 49.3826 34.8855
-6.9421 -17.9438 34.8855
24.4683 2.6804 34.8855
-46.4729 1.5064 34.8855
-20.3886 7.0926 34.8855
-2.9197 -1.9465 34.8855
-7.0969 20.2805 34.8855
-4.9330 -33.9058 34.8855
0.4704 -1.7198 34.8855
28.6020 11.1356 34.8855
7.5142 13.0702 34.8855
-1.6483 -13.0127 34.8855
-30.8269 2.0639 34.8855
50.4574 6.6459 34.8855
5.6262 -5.0338 34.8855
-10.7011 54.5633 34.8855
-7.5679 21.2246 34.8855
-2.4091 -6.3515 34.8855
-22.5891 -60.1088 34.8855
-23.7727 6.9692 34.8855
-50.3598 -10.3907 34.8855
-19.7785 -4.1963 34.8855
-26.0507 62.8518 34.8855
-11.6028 -23.2893 34.8855
-21.7790 52.7894 34.8855
-47.0442 -3.9629 34.8855
57.9423 -22.2186 34.8855
36.7994 -18.9094 34.8855
18.4095 50.7097 34.8855
4.4325 7.7363 34.8855
-41.1624 -17.9760 34.8855
31.4142 -28.7127 34.8855
-17.6463 -7.8888 34.8855
51.7181 -2.6561 34.8855
-11.5168 -49.1292 34.8855
16.2468 -37.0236 34.8855
20.6801 -15.4027 34.8855
1.7082 -7.7445 34.8855
16.3075 25.3999 34.8855
-10.9001 -36.1458 34.8855
-7.7091 24.7865 34.8855
8.2734 -36.9134 34.8855
37.9290 8.7063 34.8855
-10.1510 -28.5872 34.8855
59.8100 -10.9633 34.8855
-6.7318 -19.9527 34.8855
6.7603 -1.6771 -34.8855
-13.5677 -7.9942 -34.8855
46.3412 -22.0085 -34.8855
5.4110 -39.3415 -34.8855
42.3003 -43.7456 -34.8855
24.2250 43.0369 -34.8855
42.2584 -0.5077 -34.8855
-0.9078 -52.7391 -34.8855
-10.4271 -0.3574 -34.8855
-47.8507 21.1022 -34.8855
1.0695 2.0780 -34.8855
-44.4504 10.8559 -34.8855
7.0926 -9.9937 -34.8855
-2.8985 -42.0382 -34.8855
-11.0317 -9.3762 -34.8855
7.9200 -64.9930 -34.8855
-1.6007 6.5070 -34.8855
66.2323 -1.5224 -34.8855
-61.9206 -16.2221 -34.8855
1.3685 11.8971 -34.8855
11.4307 -12.1165 -34.8855
5.8466 -14.7227 -34.8855
-16.2681 -22.7198 -34.8855
-33.5134 -14.0708 -34.8855
60.2086 13.3198 -34.8855
1.2351 34.5631 -34.8855
-16.9595 42.4389 -34.8855
23.1552 0.7396 -34.8855
27.3326 -32.2210 -34.8855
1.5135 1.7935 -34.8855
-16.0208 11.3669 -34.8855
-27.6775 19.8405 -34.8855
0.0787 16.6393 -34.8855
16.1395 -33.7916 -34.8855
8.0364 0.2305 -34.8855
11.8146 2.6004 -34.8855
30.2581 27.1546 -34.8855
23.0758 -14.0178 -34.8855
25.5072 21.0951 -34.8855
-33.9479 -6.3413 -34.8855
-30.4170 42.1252 -34.8855
-4.9341 7.6668 -34.8855
22.5718 54.6836 -34.8855
-11.7549 15.7451 -34.8855
58.2417 -8.9967 -34.8855
-23.8620 1.5752 -34.8855
-1.1584 13.9383 -34.8855
-2.5443 -4.7646 -34.8855
1.8166 -22.2353 -34.8855
0.1150 -0.5466 -34.8855
-24.4674 19.0245 -34.8855
21.6601 -58.4512 -34.8855
10.8213 -11.6194 -34.8855
-3.1700 42.4176 -34.8855
-52.0682 28.0561 -34.8855
7.0938 63.0566 -34.8855
11.2597 -40.6542 -34.8855
-0.7118 -5.8383 -34.8855
11.5367 -11.7841 -34.8855
-1.8556 -6.4046 -34.8855
5.4455 -10.6380 -34.8855
-34.7132 8.8842 -34.8855
19.4030 11.5555 -34.8855
-41.1703 33.5525 -34.8855
-12.8639 51.0512 -34.8855
-0.2431 -1.2260 -34.8855
-14.6783 16.3070 -34.8855
-57.3102 -12.2503 -34.8855
-28.8701 -13.0646 -34.8855
24.0326 -59.5098 -34.8855
4.6545 3.0535 -34.8855
-12.5942 -20.8217 -34.8855
-40.7648 19.2717 -34.8855
-60.8399 -3.3644 -34.8855
32.5605 -35.9953 -34.8855
-13.7113 -19.1500 -34.8855
-55.4260 -1.2813 -34.8855
1.7052 25.6680 -34.8855
53.3298 -42.8266 -34.8855
-15.5011 4.2258 -34.8855
52.3278 -14.7930 -34.8855
7.3762 -15.3957 -34.8855
-4.1555 -34.5784 -34.8855
-12.6263 8.9595 -34.8855
15.4867 12.8691 -34.8855
15.8919 18.0217 -34.8855
35.1248 -2.5392 -34.8855
-45.8922 23.2155 -34.8855
32.9858 -23.0615 -34.8855
12.8087 -34.0716 -34.8855
10.6458 -45.2834 -34.8855
20.4525 -22.9920 -34.8855
47.5524 -46.3480 -34.8855
43.6670 -49.1384 -34.8855
-21.4805 7.3368 -34.8855
-2.8304 -4.1418 -34.8855
18.1249 -5.5186 -34.8855
-15.2345 66.8926 -34.8855
24.7674 42.8135 -34.8855
-23.1486 -42.8381 -34.8855
37.2615 39.0655 -34.8855
-24.3344 -26.3799 -34.8855
7.2180 -3.2082 -34.8855
-11.8862 18.1036 -34.8855
-22.6931 38.1270 -34.8855
-10.8072 9.7505 -34.8855
9.6425 10.1631 -34.8855
1.1216 -14.5142 -34.8855
-15.7051 -9.0503 -34.8855
-3.4096 -14.0203 -34.8855
36.6979 7.7369 -34.8855
50.5779 -10.5450 -34.8855
-12.1336 -59.1418 -34.8855
13.3980 4.2202 -34.8855
62.6360 21.7701 -34.8855
37.0968 -30.7430 -34.8855
-30.0023 -39.9459 -34.8855
11.3371 26.5665 -34.8855
-11.5029 52.6737 -34.8855
-14.3227 2.5927 -34.8855
-9.6743 7.2187 -34.8855
10.4917 2.6147 -34.8855
-11.5981 43.1978 -34.8855
-64.6869 0.9262 -34.8855
-6.3779 42.2182 -34.8855
-34.7842 27.7984 -34.8855
-28.3181 62.7214 -34.8855
-44.3227 -19.1526 -34.8855
-3.0774 -1.7118 -34.8855
8.7201 -45.0358 -34.8855
-18.7407 -46.5697 -34.8855
7.6999 -49.6591 -34.8855
-16.6465 41.1880 -34.8855
-32.3152 -24.8218 -34.8855
2.1318 1.6978 -34.8855
0.2060 3.7515 -34.8855
17.6290 31.9202 -34.8855
17.2741 -42.0820 -34.8855
-0.0308 -0.1116 -34.8855
2.9904 24.2469 -34.8855
-11.2265 -50.6936 -34.8855
-2.8391 2.7386 -34.8855
12.1842 -0.2970 -34.8855
-6.6043 -60.3069 -34.8855
26.9098 -0.2203 -34.8855
-27.0607 33.3378 -34.8855
1.0250 2.0907 -34.8855
-6.1467 0.7458 -34.8855
21.6573 9.4952 -34.8855
-1.4528 0.4880 -34.8855
8.0568 -68.0800 -34.8855
-38.3521 -0.7899 -34.8855
-11.9705 -10.4100 -34.8855
16.0951 44.7996 -34.8855
