ply
format ascii 1.0
element vertex 1024
property float x
property float y
property float z
end_header
45.3657 42.6218 -7.2196
-12.6885 -60.9399 -12.7075
6.0627 61.9509 68.6310
-59.3269 -18.8412 -40.8001
53.0924 32.4941 50.3895
13.5110 -60.7628 53.6352
2.2608 -62.2058 26.6638
-60.7639 -13.5060 -0.5366
-42.5296 45.4522 29.7603
5.1233 -62.0356 -12.8850
51.6717 34.7089 54.0727
29.9397 54.5737 -7.4368
-18.8612 59.3205 66.2637
-61.1501 -11.6336 -15.0416
27.6695 55.7590 34.1425
-46.6515 41.2105 12.8299
55.9995 27.1796 53.7309
-6.7400 61.8809 22.3583
25.7023 56.6927 22.7145
19.7752 -59.0221 -15.7175
-61.9511 6.0609 60.8570
-32.3607 -53.1738 39.7601
41.7922 46.1311 19.9676
25.0099 57.0015 -16.5474
-46.9166 -40.9085 18.0722
48.6817 -38.7913 -2.1923
-58.9381 20.0242 20.8320
5.7690 -61.9789 -12.9379
53.4933 -31.8298 -25.2386
-59.7666 -17.3960 25.4191
-61.8909 6.6475 36.0627
21.7194 -58.3347 -74.6772
62.2462 -0.2734 -12.4460
-14.1803 60.6101 -15.6275
-27.5584 55.8140 49.1889
4.8613 -62.0567 45.6990
29.5249 -54.7992 -1.2801
62.1436 3.5845 -31.7248
14.6024 60.5098 -73.3619
40.8659 -46.9537 23.5632
-33.2336 52.6327 44.0536
35.2768 -51.2857 -2.9330
32.2468 53.2430 -48.7310
-54.2494 -30.5233 6.2087
-25.1791 56.9270 14.1119
-0.9359 62.2398 -64.6274
-26.0944 56.5133 -39.3758
28.3367 -55.4229 39.1212
-1.5197 62.2283 -0.6859
54.7835 -29.5540 -26.1539
-61.2305 11.2023 48.3395
31.9774 53.4052 46.5554
45.4588 -42.5226 -5.8167
19.0393 -59.2636 -1.4013
58.0081 22.5771 -49.8162
9.0852 61.5803 -23.6282
-52.2680 -33.8043 -23.3757
-59.9108 -16.8929 -74.8965
-26.0602 56.5291 32.1648
59.4049 -18.5937 -23.9827
61.7305 -8.0013 17.1375
-55.9152 27.3525 -34.4917
40.9061 46.9187 4.0776
-60.9192 -12.7876 -22.6027
-53.6350 -31.5904 -67.2129
-62.0770 4.5953 72.0021
30.7977 54.0941 -37.6565
-21.2465 -58.5086 62.6770
-61.1028 11.8792 -58.3536
45.4204 42.5635 -43.8453
-60.5610 14.3888 67.5010
18.4586 59.4470 -65.0344
54.5001 -30.0733 46.6222
36.3069 -50.5616 -22.5574
19.6366 59.0684 -17.4967
47.3735 40.3784 1.0013
62.0043 -5.4893 61.9446
-46.0425 41.8899 63.2440
-18.4950 59.4357 -56.4481
-54.8827 29.3693 -41.9371
-52.9614 -32.7071 -43.3891
8.1907 -61.7056 9.2889
-61.9686 5.8788 -0.9247
-27.0971 56.0394 23.9241
59.0361 19.7335 51.0768
4.4247 -62.0894 45.7779
-58.3646 -21.6389 -29.0965
-60.3649 15.1905 28.2180
9.1363 -61.5727 -63.5908
-8.1760 61.7076 30.7903
-60.9669 12.5580 64.2836
-62.2395 0.9535 2.9982
-20.0251 58.9378 75.2646
35.0570 51.4362 72.5998
24.8567 57.0685 40.4087
-32.5407 53.0639 -2.0254
60.7784 13.4410 -62.4791
4.7337 -62.0666 -1.6877
-43.6889 44.3390 65.4735
-20.7270 -58.6946 37.5923
32.5431 -53.0624 73.5029
60.9450 -12.6642 42.2287
-60.9491 -12.6441 -34.1125
-57.9756 22.6605 -68.6303
50.3858 36.5505 67.3655
59.7494 -17.4550 -4.3229
-62.2452 0.4510 23.8193
-13.3980 60.7878 63.5970
52.5752 -33.3244 36.4170
50.8786 35.8614 16.7140
-38.0704 49.2475 -72.4263
-50.2724 36.7063 13.6894
-42.8319 45.1675 51.5076
-12.1724 61.0451 -57.2130
62.2222 -1.7521 57.8962
-13.8888 60.6776 -75.2112
-57.1592 24.6474 68.7025
-5.4232 -62.0102 59.3970
-18.7421 59.3583 -40.4066
-33.0067 52.7753 22.1497
5.5076 -62.0027 37.8094
59.8228 17.2018 40.9030
-58.5020 21.2648 -28.1638
36.2112 50.6302 -5.2851
-19.9316 -58.9695 52.1080
-49.5920 -37.6205 -36.3265
-59.7691 -17.3875 -66.3850
-52.0672 -34.1127 -42.1763
-0.7237 -62.2426 -63.0897
48.0373 39.5864 -11.5381
-0.2780 -62.2462 -65.6002
-6.5867 61.8974 18.9625
11.3315 61.2067 -18.7874
54.1889 -30.6306 7.1493
3.4272 -62.1524 -24.2643
-4.7406 -62.0661 -39.9255
-43.5444 -44.4809 -10.6811
-33.2330 -52.6330 58.7648
43.5028 44.5217 -67.6833
-40.6413 -47.1482 -8.4051
21.0691 -58.5727 49.6891
-13.3352 -60.8017 8.4152
-31.9325 53.4321 42.5332
12.1784 61.0439 -61.9583
32.5361 -53.0667 -20.8417
-39.6707 47.9678 -73.0635
4.5367 62.0813 -26.3584
-28.7064 -55.2323 -19.6300
-32.8487 52.8738 -55.4380
-62.1986 -2.4499 68.3689
-48.9879 -38.4039 48.5959
22.7284 57.9490 17.3409
-1.0138 62.2386 72.3195
-39.7774 -47.8793 -35.9716
25.9984 56.5575 -71.9808
-4.2507 -62.1015 -50.4271
25.9476 56.5808 -54.9985
60.8965 -12.8953 49.9186
-54.3081 -30.4187 45.0247
62.1239 3.9106 -38.6133
-45.4769 42.5032 -36.1379
48.7156 38.7486 35.7396
40.2581 -47.4759 -17.0677
-23.1827 -57.7688 43.4737
21.1535 58.5423 -57.1545
56.6829 -25.7238 71.6336
-58.2233 -22.0163 48.1233
45.3341 42.6554 30.0714
-21.4144 58.4474 -46.7315
7.0720 -61.8438 2.2725
44.0117 -44.0187 -28.3683
13.8374 -60.6893 -25.8154
30.8137 -54.0850 -40.5336
-7.7700 -61.7600 25.6919
62.0616 4.7989 -66.3947
-59.8266 -17.1886 -14.9309
53.7970 -31.3137 -49.8421
23.0078 57.8387 -5.2203
57.5852 23.6351 16.9876
-35.2025 51.3367 68.7891
60.1733 15.9326 -13.7130
-61.3631 10.4520 -1.0468
-61.9706 5.8576 -4.6376
-54.7073 29.6948 25.4898
48.4485 39.0821 44.2825
20.3774 58.8169 -46.7407
60.3445 15.2714 66.0759
61.4518 9.9168 -10.0081
51.9638 34.2700 7.5363
61.1263 -11.7579 58.1508
-60.2441 -15.6626 -36.6807
-32.3862 -53.1583 14.3457
39.4077 -48.1841 72.5090
61.7227 -8.0607 -62.4120
-62.2406 0.8839 55.6755
-45.7192 -42.2425 -4.4469
59.2857 -18.9703 -53.2930
40.8421 46.9744 -74.3920
54.8020 29.5196 -17.9903
5.2364 -62.0262 -24.8961
-46.1435 41.7785 62.5132
-23.6926 57.5615 50.9538
61.6981 8.2473 5.3286
9.8304 61.4657 -13.3839
-49.2587 38.0559 22.7141
-50.9888 -35.7046 -53.8077
17.9482 59.6031 -49.2045
-41.2182 -46.6448 67.8907
-62.2146 -2.0026 -72.0322
-2.6997 62.1883 -41.5521
-17.1584 -59.8353 17.9091
-62.2172 1.9220 -62.3682
12.1493 -61.0497 32.5632
-52.8982 -32.8093 12.2910
-8.9441 -61.6009 -18.1597
49.6657 37.5232 -2.6092
6.1828 -61.9390 -59.4199
10.5200 -61.3514 52.6213
-42.7957 -45.2017 -60.2110
-58.3788 -21.6007 67.9243
-43.2972 44.7216 -71.7384
26.2820 -56.4263 -11.4348
-50.6947 36.1209 -14.9858
2.4948 62.1968 27.0899
16.0251 -60.1487 -65.3966
-33.8740 52.2228 -42.9318
-48.7802 -38.6673 -11.7131
-2.0217 -62.2140 39.6443
62.1880 2.7066 52.5619
-24.3541 57.2848 10.7213
54.7960 -29.5308 20.3964
-55.0633 -29.0294 -62.6439
49.4177 -37.8492 26.9741
-15.3052 60.3359 -21.3542
-16.1321 -60.1201 4.0011
59.6112 -17.9215 73.5114
35.0747 51.4241 -32.4952
-32.2141 53.2628 45.8871
17.0222 -59.8741 32.0941
61.1347 11.7138 -73.7043
48.7620 38.6902 -66.8382
-7.3909 61.8065 -69.6411
-9.6792 61.4897 -12.3041
42.0970 45.8532 3.0446
-47.1927 40.5897 -34.0214
13.3505 60.7983 61.7226
2.2879 -62.2048 34.9122
-37.9869 -49.3119 57.2110
45.0374 -42.9686 33.3723
8.5075 -61.6627 -38.4801
18.9727 -59.2849 42.0585
-44.8172 -43.1982 37.9794
-41.4682 -46.4226 -71.6952
58.6812 20.7650 22.8886
53.0882 32.5009 70.9947
23.3845 -57.6874 47.0296
-41.5833 46.3195 -44.0057
34.2057 -52.0061 24.9775
-33.3412 -52.5645 -41.7186
-60.2246 -15.7376 -26.5984
17.6410 -59.6948 -9.3926
-54.3040 30.4260 -59.7238
55.1799 28.8071 -15.2907
-38.4536 48.9489 -5.2459
-57.7637 23.1953 15.7429
41.4414 46.4466 -3.1307
32.7992 -52.9045 -37.2791
-55.9471 27.2872 -2.3201
58.5214 21.2111 64.6222
0.5621 -62.2443 -5.0582
-62.1092 -4.1368 63.8332
-60.9729 12.5292 7.5246
43.4655 -44.5580 12.5109
13.3254 60.8038 -16.3502
-26.0401 -56.5383 2.0113
-27.6234 55.7819 69.5294
-33.8892 52.2130 22.5149
-60.2630 -15.5898 70.1595
-34.4815 -51.8237 42.5968
-61.4304 10.0489 63.9398
60.0647 16.3373 66.7663
-25.0368 56.9897 3.5894
-57.4896 -23.8665 -4.8551
53.8118 31.2883 34.3185
-60.7826 -13.4217 0.1235
40.6091 -47.1759 -3.0130
-62.0727 -4.6526 34.0110
-11.8475 -61.1090 1.3473
60.2155 -15.7723 -73.1222
-50.2512 36.7354 48.8756
-46.9942 40.8193 50.7313
34.3517 51.9098 -45.7006
-44.3083 43.7200 25.1284
-23.1983 -57.7625 74.3167
61.4137 -10.1505 -15.8233
-46.2790 41.6284 74.7722
-62.0209 5.2987 50.5160
27.6176 -55.7847 19.7804
-6.8679 61.8668 14.1018
28.3502 55.4160 -55.2810
25.6556 -56.7139 -66.6860
5.2579 62.0244 4.0467
-6.8989 61.8634 32.2251
61.7875 -7.5482 -32.7827
28.0714 55.5578 -21.1244
6.9433 -61.8584 33.9413
-51.5260 -34.9248 -69.8808
-61.7301 -8.0037 -36.8370
4.3090 62.0975 -31.8414
-19.1674 -59.2223 -74.8475
-53.3638 -32.0464 -23.4889
53.4920 31.8320 -43.2921
45.2401 42.7551 4.3082
-45.5073 -42.4706 -54.9944
-4.1170 -62.1105 68.5410
-52.0008 -34.2139 -12.3670
-60.9810 12.4896 -24.8286
-1.8268 -62.2200 66.5449
-37.7272 49.5109 72.6524
-61.4007 10.2284 -0.4527
-37.3560 -49.7916 16.1641
-39.7704 47.8851 15.1498
50.5450 36.3301 51.9994
14.7181 -60.4818 29.4562
15.2272 -60.3556 -30.6737
-59.6828 -17.6813 60.8645
33.1047 52.7139 -10.4106
61.5814 9.0774 -45.0106
-52.6691 -33.1758 -16.8907
31.1406 -53.8974 65.9629
0.7723 62.2421 48.9375
20.3478 -58.8272 -70.1819
8.4445 61.6714 -56.7595
-62.0339 -5.1440 43.4233
-25.0447 56.9862 -27.0850
-23.3376 -57.7064 8.6397
-50.8894 35.8461 0.9938
-32.7600 52.9287 50.7539
21.6424 -58.3633 19.2273
-55.3999 -28.3816 73.0588
53.3031 -32.1473 38.8233
-42.7764 45.2201 -39.6824
-18.3534 59.4796 -16.3784
35.6704 51.0127 -30.0185
59.0228 -19.7731 -7.8800
-27.8868 55.6507 8.4341
57.8169 23.0625 -29.6649
-29.7660 54.6686 -13.4094
60.0064 -16.5499 -27.2096
4.0300 -62.1162 -68.2324
-60.5670 -14.3632 14.7305
35.1376 51.3811 17.5631
-37.5506 49.6449 -37.4737
-61.8174 -7.2995 -26.6743
-29.0022 -55.0776 64.9114
23.7390 57.5424 16.2076
42.7263 45.2673 -27.1652
-58.8963 -20.1467 -12.5056
57.4419 23.9812 43.5213
44.8337 -43.1811 -17.2818
-58.1194 -22.2892 52.1490
-46.3995 -41.4941 72.1123
-23.2668 -57.7350 -47.6943
-61.6945 -8.2738 71.6490
56.2213 26.7176 -34.3297
-1.1012 -62.2371 6.9666
-33.2869 52.5990 19.8022
-60.1765 -15.9206 -22.7569
13.6992 60.7207 -45.2664
-61.9263 -6.3091 52.9021
-48.4509 -39.0792 8.1384
-58.4796 21.3261 -16.8362
-50.7586 36.0311 18.8967
54.9442 29.2541 28.2590
14.1983 -60.6059 -66.4658
14.7345 -60.4778 -74.0028
-30.1475 54.4591 63.4971
-61.6631 8.5048 -43.4480
-60.6663 -13.9379 -22.0749
54.2083 -30.5962 63.1786
-38.3811 -49.0057 66.2331
-11.8280 -61.1128 -60.2153
-50.1794 36.8334 -22.8749
3.3193 62.1583 55.3418
-56.7980 -25.4689 -58.9173
12.9499 -60.8849 -62.7282
12.1144 61.0566 8.3113
-6.7225 -61.8828 42.4042
62.1958 2.5192 28.0374
-60.0137 -16.5235 46.7894
-36.7381 50.2492 -68.1587
41.7619 46.1585 58.3879
54.7015 29.7054 -40.5958
-25.1769 -56.9280 49.3875
1.3821 62.2315 34.8710
-12.5037 -60.9781 61.5283
61.8800 6.7480 -40.0801
54.3863 -30.2787 -6.6806
38.4803 -48.9279 -37.8567
-51.6446 -34.7491 -74.6757
9.4676 -61.5226 -39.8188
-38.5782 -48.8507 57.8636
0.4121 -62.2455 48.5177
-49.8118 -37.3290 -13.5365
-59.0818 19.5963 -10.2466
-11.3326 -61.2065 -63.1442
-3.2269 62.1631 27.3113
0.8140 62.2415 -15.0419
-49.4778 37.7706 -38.8304
-59.6822 17.6833 73.7350
-6.4951 61.9070 58.6609
-62.0698 -4.6912 49.4765
23.3012 -57.7211 45.1503
61.7649 7.7313 -65.0645
-35.4559 51.1620 -8.9366
-52.9425 -32.7378 -65.9216
10.0096 -61.4368 -63.8446
-56.2299 26.6995 -63.0474
12.0247 -61.0744 -73.0003
25.0118 -57.0007 8.5632
15.4936 -60.2878 34.8405
-49.2145 38.1131 -55.5574
-14.9927 -60.4143 -60.6474
-12.7652 60.9239 -1.5044
-35.3333 51.2468 -48.4577
48.7770 -38.6713 49.7629
-62.0874 4.4523 -33.9111
-61.1300 -11.7384 -74.9323
-55.3963 28.3887 60.4827
55.1291 28.9041 46.9788
7.7277 -61.7653 46.4522
56.1321 -26.9046 -71.6719
51.0884 -35.5619 49.1021
-60.6232 -14.1243 -52.7980
37.6386 -49.5783 36.4935
-59.6944 17.6422 55.1420
10.5771 61.3416 -70.9602
33.4196 52.5148 -31.2316
-49.2579 38.0569 -68.6409
45.5644 -42.4094 8.6289
-15.2299 60.3549 52.9384
-47.1207 40.6732 -4.3863
24.9602 57.0233 14.9662
6.0895 61.9483 -63.5656
58.1662 22.1668 -14.1456
20.8392 58.6549 66.0710
-31.8464 53.4834 -19.9369
-62.2415 -0.8141 -69.4429
56.4711 -26.1855 62.3611
-51.3435 35.1926 39.0158
-61.9056 6.5093 72.0975
-46.2156 -41.6987 21.1989
16.2374 60.0917 51.0061
2.2680 -62.2055 65.5807
15.9257 -60.1751 -57.4938
32.8860 52.8506 -4.7601
-18.0762 59.5644 -44.2870
11.1800 61.2346 -0.2041
53.0252 -32.6037 48.5922
22.1380 58.1771 -19.7599
-50.4347 36.4831 -28.4460
60.7910 -13.3835 45.0679
31.7666 -53.5308 -21.6214
60.6689 13.9266 -30.2208
2.7793 -62.1848 -10.8062
-45.4700 42.5106 3.1629
18.7070 -59.3693 36.2115
56.9738 25.0731 -68.0141
50.4690 -36.4355 -3.7780
-0.7304 62.2426 67.7218
-51.7031 34.6621 -21.7785
19.4717 -59.1229 -7.7651
62.2281 1.5284 -24.7913
-2.9233 -62.1782 46.1044
-27.1498 -56.0139 4.6915
-54.7536 -29.6093 51.9647
61.1418 -11.6769 -66.7961
-43.6690 -44.3586 -50.1762
-47.8093 39.8615 51.7873
42.3507 45.6190 11.0957
-34.3284 51.9253 -66.6052
-2.2974 62.2044 55.4766
-61.0257 12.2693 -6.8230
-38.0197 -49.2866 -54.7177
45.9041 -42.0415 -23.7192
61.0124 12.3351 63.1182
-61.0289 -12.2534 -26.6426
-57.6881 23.3827 -32.4272
39.7901 47.8687 42.1689
51.3686 -35.1559 -23.0255
-56.6528 25.7901 -19.8490
-61.4023 10.2189 28.7269
-38.7211 48.7375 -54.1418
-36.3847 -50.5057 -51.5287
9.1755 -61.5669 13.3131
61.8494 -7.0225 5.9766
61.4208 10.1071 -48.9917
-50.3787 36.5604 -21.7084
37.0101 -50.0492 -29.5966
-62.1927 2.5963 -21.1486
60.7207 -13.6991 -44.9852
61.6979 8.2485 53.2455
-52.8154 32.9424 31.9511
11.2350 -61.2245 -47.6912
-45.1333 42.8679 -22.1901
-60.6713 13.9162 -43.2133
-35.2090 51.3322 -27.1468
43.3363 -44.6837 67.0401
15.8283 60.2008 -58.1006
-50.4133 -36.5126 63.7258
-40.3251 -47.4189 4.7448
-27.9707 55.6086 63.9104
-45.1144 42.8878 -19.3142
42.2437 -45.7180 11.7488
36.9997 50.0569 11.1200
-28.0528 -55.5671 -64.9840
61.2938 -10.8509 -62.7126
42.2637 45.6996 10.7474
53.1123 32.4616 23.5769
58.1832 -22.1220 -24.4608
9.4382 -61.5271 -45.2460
22.7132 57.9550 3.7752
47.5181 40.2082 -15.0324
37.5097 -49.6759 -61.0986
62.2335 -1.2880 -50.4740
53.4417 -31.9163 -49.1843
54.6835 -29.7386 -34.1542
-35.5921 51.0673 -45.1729
-38.1477 -49.1876 58.3609
-0.2547 -62.2463 65.0639
-61.6407 8.6654 -34.6008
52.2743 -33.7945 -35.1453
45.5176 -42.4596 34.7607
56.5700 -25.9712 -0.4249
-59.7941 -17.3013 38.0677
14.8588 -60.4474 -64.4439
-26.4770 56.3351 -38.7127
47.9890 -39.6449 71.2836
-16.3710 -60.0555 -60.6743
-54.1322 -30.7307 9.0448
4.1144 62.1107 -53.9106
-18.8212 59.3332 -56.1920
-14.0147 -60.6486 -45.3280
57.5401 23.7446 -46.6381
61.6824 8.3635 -6.5687
44.0571 43.9731 -27.1540
62.2163 -1.9492 56.0566
33.7876 -52.2788 -27.2295
40.0844 47.6226 10.2412
62.0157 -5.3589 -28.9181
15.6142 60.2567 54.0936
24.6356 57.1643 53.1521
60.7492 -13.5722 -0.9600
-34.0722 -52.0937 -69.8310
-58.6287 20.9129 -60.4580
60.8733 -13.0044 59.4440
-58.2490 -21.9481 12.2092
43.9409 44.0893 49.3513
-3.8405 -62.1283 26.9942
-47.9933 -39.6398 36.8436
24.3203 -57.2991 69.6674
56.0163 27.1448 -35.1130
26.5432 -56.3039 58.9105
-5.1297 62.0351 -25.3188
13.1224 -60.8479 -70.0807
37.0126 50.0473 9.0125
-53.9124 31.1147 -14.0105
41.4615 46.4286 -15.0240
49.0678 -38.3017 0.3147
18.5988 -59.4033 -0.1064
55.0059 -29.1380 -5.9867
-62.0053 5.4781 -35.4129
-36.7409 50.2472 -68.9117
-46.8147 -41.0250 0.6080
-32.6920 52.9708 -32.4257
-60.3249 -15.3483 2.8455
-51.3548 35.1761 44.3611
-7.2501 61.8232 10.1738
59.8955 -16.9468 62.0379
46.0813 -41.8472 -25.5682
62.1328 3.7659 -54.7070
29.4389 -54.8454 39.9882
-62.2318 1.3682 -4.6900
-28.9269 -55.1172 24.0268
26.9269 -56.1214 9.3232
23.8931 57.4786 -69.9194
-8.4759 -61.6671 -61.3554
62.1721 -3.0488 70.9992
60.5624 14.3830 22.0829
-20.1657 -58.8898 71.9711
-61.5627 9.2035 55.6751
-42.5458 45.4370 -31.8031
-47.8805 39.7759 20.8738
-15.1062 60.3860 69.7463
-50.6376 36.2009 -1.0803
-15.8692 60.1900 34.4486
-59.9640 16.7028 29.2823
-62.0783 -4.5769 64.8114
-43.3857 44.6357 -59.9040
-14.6829 -60.4904 21.7653
43.5335 -44.4916 52.0904
-59.2569 19.0603 -14.0028
14.0379 60.6433 -51.1248
27.8213 -55.6834 -18.1837
23.7164 57.5517 4.2591
59.2173 19.1829 71.3831
37.6010 49.6068 73.4171
-58.7622 -20.5346 -44.3262
59.7310 -17.5179 -28.6041
19.1490 -59.2283 46.3217
51.7425 34.6033 19.2028
-58.3208 -21.7567 -39.5842
43.5582 -44.4675 40.5529
-59.0522 19.6851 -7.9834
-29.3732 -54.8807 -50.0083
-28.3431 -55.4196 66.3606
-55.1679 -28.8301 5.3008
61.3079 -10.7707 15.1805
-42.6058 -45.3807 32.2999
17.4948 59.7378 -7.1516
-20.8543 58.6495 17.1956
-45.1093 42.8931 -57.1044
61.2724 -10.9710 -53.4213
-2.4957 62.1968 -47.6737
-5.7992 -61.9761 67.4748
10.4970 -61.3554 -22.1635
61.7863 7.5582 20.1819
62.2054 2.2708 -36.6246
-8.3882 61.6791 25.7045
14.6781 -60.4915 17.4544
-61.3865 10.3135 58.4241
56.7529 25.5691 74.5394
40.9953 -46.8408 69.3432
-19.3947 59.1482 41.3427
-34.8083 51.6048 43.8877
33.4922 -52.4685 -19.3736
-56.8956 -25.2500 48.3801
-6.4680 -61.9099 38.4994
-25.6537 56.7147 26.7197
-33.2315 52.6340 -73.7369
27.9248 55.6316 29.3562
-62.1213 3.9519 69.7957
-53.8954 31.1442 44.1735
-16.3317 -60.0662 -72.1236
-46.6247 41.2409 -54.8074
62.1819 2.8419 19.6556
-50.9153 35.8093 7.4603
-51.1317 -35.4995 -11.7478
-56.8488 25.3552 -20.6910
-37.9509 49.3396 -37.0819
39.7891 47.8695 -63.2263
50.6286 36.2134 31.9169
28.9964 55.0806 -72.4885
-15.5583 -60.2711 -6.3697
-49.7310 37.4366 -10.6228
4.3819 -62.0924 2.2162
37.4898 -49.6909 -63.1171
-42.5288 -45.4530 24.0928
52.8232 -32.9300 -22.6190
-16.6052 -59.9911 19.7594
-58.2213 22.0216 53.5244
51.0659 -35.5942 -63.5170
44.6086 43.4136 16.3660
50.1971 -36.8092 58.7886
-53.0147 32.6208 -52.9893
46.5279 -41.3500 29.2002
-58.7739 20.5012 -72.7191
-61.9933 -5.6123 40.2664
-3.0415 62.1725 12.2522
39.7467 -47.9048 57.0843
57.8457 -22.9902 1.8732
19.6994 59.0475 36.1320
-57.1268 -24.7224 -45.8759
-39.9526 -47.7332 -11.8658
44.2753 -43.7534 19.9794
57.0293 -24.9466 -26.6720
-45.3467 -42.6420 -58.3673
59.0108 19.8091 -18.2350
26.1331 56.4954 -65.5364
57.4526 -23.9556 63.5349
-31.1695 -53.8807 62.8490
-36.9703 -50.0786 61.1764
-60.1795 -15.9091 -24.0213
61.5652 -9.1870 -5.6986
36.8662 -50.1553 -5.8365
62.0302 -5.1883 -2.8816
57.5166 -23.8014 70.7406
-11.1630 61.2377 -63.3584
-50.6342 -36.2056 -23.3223
-58.5561 -21.1154 -32.8498
59.0766 19.6119 -55.6445
59.7368 17.4982 -41.3872
46.8826 40.9474 -6.3465
-57.9712 -22.6719 -39.1424
22.4226 58.0680 -8.4366
60.7259 -13.6762 38.7582
2.2344 62.2067 -7.3878
1.6264 -62.2256 45.4446
-61.8355 7.1440 -50.2773
58.8482 20.2868 -56.3496
16.4537 60.0329 -13.8271
3.2469 -62.1621 49.9976
-51.1498 35.4734 46.0883
31.8267 -53.4952 27.1948
-53.9131 -31.1135 30.3414
60.9734 12.5263 -25.0731
7.4865 61.7950 -25.8602
30.4281 -54.3029 -15.1347
11.4228 -61.1898 -56.2999
29.2124 54.9664 -68.0641
-38.2959 49.0724 42.5335
-1.9747 62.2155 65.8697
-51.0712 35.5866 13.4227
49.5139 -37.7232 -22.1525
62.1721 3.0488 -11.7076
-62.2340 1.2632 8.7119
-1.5949 -13.9592 75.2665
-45.0691 32.4610 75.2665
15.5585 0.4242 75.2665
3.6607 9.7477 75.2665
-47.6140 -18.7397 75.2665
-12.3169 9.9432 75.2665
2.1972 3.2060 75.2665
41.1889 -17.9849 75.2665
-34.5611 37.0536 75.2665
25.3903 -1.0950 75.2665
50.8919 -18.9267 75.2665
-11.4947 28.2993 75.2665
-14.0704 -35.5145 75.2665
23.4575 -33.6568 75.2665
23.1184 -14.1559 75.2665
-15.6644 -20.8782 75.2665
-27.3257 31.6931 75.2665
-51.1161 -27.6771 75.2665
-8.4282 20.3114 75.2665
1.3185 -0.0292 75.2665
13.0901 -15.4981 75.2665
-39.8512 -43.9063 75.2665
0.1969 -0.5893 75.2665
-25.8368 -54.1254 75.2665
7.2447 -46.0539 75.2665
-47.3800 37.6971 75.2665
-47.4231 22.4563 75.2665
-26.1171 -25.7948 75.2665
-28.6182 4.0601 75.2665
-27.9611 2.6864 75.2665
-16.6523 5.9027 75.2665
5.7733 -12.4324 75.2665
42.0123 -2.5625 75.2665
18.3053 50.0622 75.2665
-47.9367 -15.7531 75.2665
10.4682 15.1241 75.2665
-0.6323 -4.7553 75.2665
4.2971 8.6702 75.2665
18.8287 -23.4347 75.2665
41.3135 -42.5813 75.2665
-15.4520 -9.2224 75.2665
-19.2678 54.2987 75.2665
30.7270 1.3419 75.2665
52.4264 -0.1494 75.2665
41.1873 -5.4198 75.2665
-6.3463 -39.8298 75.2665
-42.3017 21.8636 75.2665
6.3011 -5.8050 75.2665
-14.5501 -48.8917 75.2665
-0.8155 -0.7497 75.2665
40.3856 -6.5451 75.2665
-10.0008 -29.1968 75.2665
-1.3169 4.1007 75.2665
11.6099 -44.0495 75.2665
-0.2228 -0.6023 75.2665
47.5093 37.3252 75.2665
57.1996 13.5556 75.2665
-0.0044 0.0044 75.2665
-7.7850 17.0280 75.2665
-0.7179 -2.3555 75.2665
3.2143 -61.4596 75.2665
-20.4762 -7.3299 75.2665
13.0926 -10.7028 75.2665
-13.8822 28.2226 75.2665
-0.0077 0.1265 75.2665
10.8200 -34.2106 75.2665
-20.6131 -18.9550 75.2665
-20.3836 -17.9149 75.2665
7.4807 -34.1870 75.2665
19.8449 -12.2839 75.2665
9.8459 25.7455 75.2665
14.1473 -10.9273 75.2665
-40.2030 -13.9838 75.2665
-5.6720 0.3645 75.2665
-26.8573 48.7088 75.2665
24.2773 7.9084 75.2665
-21.4227 8.4428 75.2665
31.1828 30.2702 75.2665
-27.8894 14.7252 75.2665
10.0063 40.9662 75.2665
-5.1492 4.9152 75.2665
-14.6759 19.9891 75.2665
-8.2827 -3.2491 75.2665
22.5227 53.0379 75.2665
-2.7648 11.8550 75.2665
22.3853 -15.2171 75.2665
5.5678 -53.0403 75.2665
-45.2503 29.1136 75.2665
0.7355 -10.3441 75.2665
-34.8036 20.4503 75.2665
-2.1870 2.7823 75.2665
-1.4031 -9.3096 75.2665
-33.6950 38.7962 75.2665
-3.0442 -37.6432 75.2665
32.3111 -27.5029 75.2665
-59.5239 3.7807 75.2665
-29.0943 17.7000 75.2665
0.0727 0.0155 75.2665
-4.0937 12.3876 75.2665
-17.8365 -26.3858 75.2665
-56.7252 -20.6771 75.2665
-12.3734 51.5205 75.2665
-29.8984 -47.4164 75.2665
4.5846 4.5566 75.2665
3.7072 -24.7915 75.2665
7.8076 -28.7001 75.2665
18.9537 6.7024 75.2665
5.4459 1.3600 75.2665
31.6551 -12.1512 75.2665
1.9334 1.9001 75.2665
45.1463 29.0920 75.2665
-45.0036 19.6183 75.2665
9.8260 14.0235 75.2665
31.5619 28.8500 75.2665
19.1114 2.8939 75.2665
-19.1898 -3.6841 75.2665
-14.1761 -56.8081 75.2665
-7.8967 4.9784 75.2665
-8.2785 45.5749 75.2665
-2.5260 45.3718 75.2665
-3.3313 25.7145 75.2665
-1.1924 -13.0623 75.2665
4.0430 2.4239 75.2665
-4.3930 30.4191 75.2665
11.4038 21.2787 75.2665
-4.7163 27.5744 75.2665
16.0144 3.0171 75.2665
-0.5689 -5.5195 75.2665
52.3609 -21.4316 75.2665
-8.3497 -42.0267 75.2665
-13.6245 -54.1868 75.2665
20.2601 -24.0284 75.2665
-14.8460 -2.3978 75.2665
-6.1737 0.3352 75.2665
2.5034 36.7184 75.2665
-1.1615 -10.4354 75.2665
54.7276 -0.7943 75.2665
-7.2219 -5.5253 75.2665
11.6649 -54.9408 75.2665
0.0883 -0.5589 75.2665
-3.0238 -5.4517 75.2665
1.5684 0.1035 75.2665
42.7860 16.9245 75.2665
45.4398 -3.9906 75.2665
-37.9194 -27.7030 75.2665
-10.9237 2.3471 75.2665
-56.1986 24.3772 75.2665
50.8662 31.5571 75.2665
-52.3266 24.9552 75.2665
4.5961 44.2866 75.2665
0.0216 -35.5260 75.2665
-0.2009 8.1527 75.2665
0.7615 -8.0807 75.2665
-32.1039 6.9646 75.2665
3.1446 -30.7353 -75.2665
11.0292 -41.8825 -75.2665
0.0706 -1.1762 -75.2665
-5.5811 -53.7185 -75.2665
-45.0572 40.3820 -75.2665
-0.6193 -34.1100 -75.2665
-31.4157 -6.7378 -75.2665
10.7097 -2.7274 -75.2665
-3.1001 -29.5733 -75.2665
12.7866 59.1042 -75.2665
-4.9788 7.1545 -75.2665
11.9990 -15.6883 -75.2665
53.2721 0.1007 -75.2665
14.4108 -49.8792 -75.2665
-17.0181 -3.4691 -75.2665
3.3415 -0.1520 -75.2665
56.7842 21.7428 -75.2665
-23.7488 23.3853 -75.2665
25.4550 -12.5335 -75.2665
-30.0565 -17.9476 -75.2665
16.8406 47.1280 -75.2665
-40.1607 0.4150 -75.2665
25.0019 -4.2575 -75.2665
11.5842 -20.8020 -75.2665
-23.8981 -32.0544 -75.2665
0.1925 -1.1811 -75.2665
6.2024 49.8581 -75.2665
3.8162 5.4688 -75.2665
2.8133 -7.1720 -75.2665
-49.1927 30.8929 -75.2665
39.1151 -22.1575 -75.2665
-6.1491 0.9633 -75.2665
-1.0495 -42.6938 -75.2665
31.9650 -27.0387 -75.2665
-22.5054 25.5165 -75.2665
12.1292 -0.1221 -75.2665
19.3871 30.5863 -75.2665
-30.0597 17.4359 -75.2665
57.1958 -12.8691 -75.2665
-0.7374 -0.1143 -75.2665
25.0141 -10.6754 -75.2665
7.0270 -11.9037 -75.2665
-14.2094 -53.3662 -75.2665
33.2861 -4.0472 -75.2665
-0.3696 25.1863 -75.2665
-6.4106 -33.3656 -75.2665
4.8866 -4.9719 -75.2665
-44.8196 -28.9057 -75.2665
0.2628 2.5502 -75.2665
3.2440 -7.8671 -75.2665
23.6222 -15.6216 -75.2665
13.6443 12.6779 -75.2665
-9.2866 -8.0453 -75.2665
21.3626 33.4774 -75.2665
-10.7252 -49.1744 -75.2665
-27.4514 5.9661 -75.2665
43.6242 -30.7579 -75.2665
-1.6158 9.1502 -75.2665
32.1309 45.2107 -75.2665
-42.5602 -35.4241 -75.2665
7.4180 -35.0258 -75.2665
1.5135 -18.1292 -75.2665
31.5279 -13.6926 -75.2665
19.4925 -12.1356 -75.2665
-29.2467 23.9108 -75.2665
15.8208 38.1797 -75.2665
-26.0208 -1.0126 -75.2665
21.0792 32.7166 -75.2665
-3.6702 25.5991 -75.2665
1.4995 4.9376 -75.2665
-55.2374 7.4096 -75.2665
27.9194 52.0449 -75.2665
4.4865 -8.5524 -75.2665
-38.7350 21.1506 -75.2665
0.9087 53.6476 -75.2665
30.9222 -1.8273 -75.2665
-0.9062 -3.4644 -75.2665
35.3242 17.4845 -75.2665
-25.7981 11.8125 -75.2665
14.3266 -8.0822 -75.2665
26.0933 -0.1122 -75.2665
-18.2296 -19.6987 -75.2665
-11.3888 -16.6451 -75.2665
2.6541 -0.8221 -75.2665
-11.0223 -12.5229 -75.2665
22.1209 -6.7237 -75.2665
-32.9266 4.2656 -75.2665
-32.4926 -6.7312 -75.2665
20.9469 29.1207 -75.2665
1.2937 -16.4936 -75.2665
33.9355 -36.6612 -75.2665
45.0560 -16.7489 -75.2665
-30.3677 -22.4468 -75.2665
-1.1698 31.6802 -75.2665
1.1623 -0.5040 -75.2665
35.2498 4.9928 -75.2665
-12.2952 27.9807 -75.2665
42.5738 -2.6668 -75.2665
-9.9384 -40.6867 -75.2665
3.2912 59.0803 -75.2665
-52.9930 -19.0077 -75.2665
-18.6304 -48.6978 -75.2665
1.1903 -0.4291 -75.2665
7.5141 60.0502 -75.2665
-12.3371 0.6640 -75.2665
2.0105 -0.0721 -75.2665
23.9383 50.3206 -75.2665
-18.2061 -53.9852 -75.2665
22.6537 4.1238 -75.2665
-28.3059 -3.9884 -75.2665
10.2852 -45.4756 -75.2665
-14.2047 -50.0413 -75.2665
33.4354 3.8043 -75.2665
-6.1705 -24.7018 -75.2665
1.9210 6.5448 -75.2665
50.2924 18.1864 -75.2665
-43.7792 32.0143 -75.2665
13.5332 -52.7437 -75.2665
35.9428 -7.1879 -75.2665
-8.5432 4.5048 -75.2665
-16.5068 -29.8989 -75.2665
19.8038 -3.0419 -75.2665
4.2811 1.4531 -75.2665
-2.2559 -3.9839 -75.2665
13.1756 -18.0946 -75.2665
-19.0686 26.5162 -75.2665
-21.7825 32.2530 -75.2665
-5.6811 -1.6406 -75.2665
16.8652 19.2791 -75.2665
10.9172 -4.6433 -75.2665
-17.3436 11.0823 -75.2665
-3.4803 0.0657 -75.2665
-8.0743 -8.1636 -75.2665
3.1449 4.0274 -75.2665
-23.4664 13.0505 -75.2665
8.2418 -20.1943 -75.2665
0.4047 -12.7560 -75.2665
-49.7865 0.4320 -75.2665
24.1725 -2.4341 -75.2665
-17.7525 -11.0625 -75.2665
-30.2518 -6.8821 -75.2665
10.6718 10.5078 -75.2665
-40.5356 -1.9423 -75.2665
-0.1654 -39.2460 -75.2665
-46.5764 1.3642 -75.2665
-48.2951 -5.0853 -75.2665
-0.3748 -0.1923 -75.2665
-0.6364 -31.4263 -75.2665
-27.2268 11.5161 -75.2665
15.8441 1.7909 -75.2665
-9.3486 45.9442 -75.2665
-52.2291 -0.7881 -75.2665
4.9412 -20.2526 -75.2665
-28.0156 -3.6755 -75.2665
