ply
format ascii 1.0
element vertex 1024
property float x
property float y
property float z
end_header
81.9975 -24.2284 11.0904
56.3355 -64.3189 82.1546
75.9264 39.3164 57.8226
-31.8984 -79.3290 -71.1858
-8.7904 85.0490 78.0709
85.2821 6.1289 59.8275
51.9353 -67.9215 7.6386
-69.5947 49.6707 53.2492
-66.0520 54.2931 85.5618
-20.4193 83.0280 -34.5752
80.4191 -29.0408 64.8643
-82.7404 21.5551 15.6384
60.4982 -60.4199 42.5141
82.3824 -22.8852 -86.7205
-51.3497 68.3652 84.5998
56.3289 -64.3246 57.1585
84.2873 14.3614 72.9812
26.8422 81.1794 18.8631
41.7555 -74.6129 1.5317
41.1857 -74.9289 67.6331
-28.9896 -80.4376 19.8830
80.1125 29.8763 -60.0980
85.4532 2.8896 -46.3247
0.9662 85.4966 6.9235
65.9419 54.4267 74.9923
-73.8230 -43.1366 15.4396
-39.9387 75.6010 43.8791
83.6300 -17.7939 86.5671
-83.9165 -16.3897 9.4017
19.2651 83.3034 61.7334
-84.9570 9.6393 73.0188
2.9657 85.4506 -39.0385
33.8124 78.5323 -14.6251
-85.4619 2.6196 -79.5944
74.2053 42.4756 -60.2284
84.8897 10.2146 52.5543
37.7091 76.7374 9.5247
-80.2349 29.5461 41.7223
38.2408 -76.4738 -71.1211
-55.7617 -64.8169 -23.5183
57.0696 63.6684 -46.4206
-84.9694 -9.5286 10.0858
-54.3651 65.9927 -10.6658
-70.4974 48.3809 -37.5684
-63.2234 57.5621 -20.2188
-9.5487 -84.9672 -34.2243
62.6787 58.1548 80.4176
-56.1519 64.4792 46.7064
82.1781 23.6084 -51.0439
-41.4090 74.8057 -46.6534
-67.6753 52.2556 -47.7889
-6.2282 85.2749 -72.9490
-79.9280 -30.3664 43.8486
-78.9513 -32.8222 -74.3356
-10.5611 84.8473 46.5463
71.2053 -47.3329 -81.3917
-70.2544 48.7331 5.5585
47.1378 -71.3346 -82.5301
-41.5575 74.7233 69.0442
58.5400 -62.3191 -60.8106
67.6424 52.2982 11.2056
83.5291 -18.2615 30.2130
35.0916 -77.9691 -45.4933
62.5417 58.3021 3.8748
41.0855 74.9839 -25.1994
-7.1545 85.2022 22.3881
73.4249 43.8107 -9.1408
33.0433 78.8590 73.8450
85.4960 1.0175 66.4869
-18.8556 83.3970 -50.2217
-6.1203 85.2827 -5.3136
-84.9642 9.5754 -41.7983
75.8654 -39.4341 20.4485
63.1548 -57.6374 -33.1676
52.3841 67.5759 32.9411
-77.4883 36.1409 -50.9893
-26.6538 81.2415 6.6953
-80.2151 -29.5995 -39.1678
-13.1405 -84.4863 -41.9802
79.4794 31.5219 -26.5845
-21.8138 -82.6726 59.6886
14.9687 84.1816 -76.4374
80.4097 29.0670 -21.6955
-59.3808 -61.5184 52.8896
-58.6456 -62.2197 -32.1428
2.2591 -85.4722 70.7281
-17.2826 83.7372 44.7506
85.3776 -4.6110 -80.8081
81.0713 27.1669 71.0254
73.9690 42.8857 -25.8973
-68.9085 50.6183 -37.5212
-36.1439 77.4869 -80.0012
-85.2884 6.0413 62.9127
-48.0960 -70.6921 -50.7548
-35.8551 -77.6210 -60.5670
-43.4898 -73.6155 20.1569
-52.7124 -67.3202 -44.7406
35.3948 77.8319 4.3543
-31.5996 -79.4485 70.5694
41.7482 74.6170 -77.3635
-81.6574 -25.3510 11.5133
56.8960 63.8236 -79.5628
67.9866 -51.8500 -14.1324
30.6532 79.8184 -87.2008
-68.9914 -50.5054 -78.2347
85.2041 7.1315 -69.8901
-47.6834 70.9711 -30.9049
84.6996 11.6868 3.5674
15.4538 84.0939 85.0678
85.3310 -5.4060 86.6929
-55.8620 -64.7305 -76.8161
-14.8115 -84.2094 6.2089
85.4951 -1.0941 -18.2317
-78.5404 33.7937 -18.4941
81.2249 -26.7044 -7.4264
51.1394 -68.5227 -1.8008
83.6497 17.7009 68.1869
-85.3275 -5.4600 -57.1731
-4.7805 -85.3683 -4.7280
-68.8119 50.7497 -41.3880
71.3824 47.0654 54.1124
-79.4857 31.5059 -1.5325
-33.2442 78.7745 43.0377
8.2295 85.1051 -0.2464
-57.2368 63.5181 35.3335
-56.4032 64.2595 -10.3525
41.2855 -74.8740 86.3482
-61.5008 59.3991 27.0411
72.8585 44.7465 -49.7788
73.7419 43.2750 -47.6904
18.7251 -83.4264 53.3309
81.5685 -25.6356 58.1678
-75.8828 -39.4006 65.3490
8.5225 85.0763 9.0161
-6.7343 85.2364 6.5489
84.1262 15.2769 65.7202
-77.4968 36.1227 -63.6645
-54.4601 -65.9143 -79.1416
-3.7175 85.4212 10.6485
22.8841 82.3828 70.1771
-84.0229 15.8350 45.6597
85.5012 0.3874 -9.5214
-47.2342 71.2708 32.5435
84.9961 -9.2880 -28.9289
69.5911 49.6757 -15.2582
-84.7522 -11.2992 32.0218
-74.5946 41.7881 -44.7706
84.0972 15.4355 64.1382
81.3173 -26.4215 2.8782
69.0080 50.4826 -68.1246
57.0147 63.7175 -33.2140
20.6471 -82.9717 -83.9721
-78.9910 32.7265 83.3610
27.9446 -80.8065 36.4771
-84.0526 15.6767 -42.2910
-85.5001 -0.5720 -56.5470
74.3861 42.1582 -18.8593
-8.2386 -85.1042 70.5822
-74.2071 42.4725 -6.2884
70.7848 47.9595 -66.9396
60.8831 -60.0320 -60.5087
69.5392 49.7484 -86.5178
-85.4345 -3.3989 68.7896
47.9431 -70.7959 -21.0565
58.6981 -62.1702 -19.0700
85.4504 2.9703 86.7894
36.5851 77.2796 -45.2264
-69.6610 49.5777 26.6906
42.8611 73.9833 50.1740
-41.7918 -74.5925 -63.8731
-33.1331 78.8213 3.8528
-11.3328 84.7477 -86.7809
72.9342 -44.6229 -19.1237
-10.5079 84.8539 87.1784
64.8311 -55.7452 -80.6240
-10.0386 84.9107 13.1775
-45.9796 72.0866 3.1958
-83.6487 17.7058 -67.3899
67.9903 -51.8451 32.6771
-85.4602 2.6745 -84.1647
-7.2809 -85.1915 23.5776
11.9769 -84.6590 -0.6315
-83.1428 19.9470 -12.3701
20.7363 82.9494 -82.6631
-23.3847 -82.2421 -48.2566
45.7339 72.2427 -66.3719
41.4029 74.8091 -54.0228
-49.8283 -69.4820 34.0063
-72.4264 45.4425 75.7784
3.7034 85.4218 37.8309
44.5941 -72.9518 77.0952
8.8708 -85.0406 11.2800
-6.2413 85.2740 12.3967
-70.8132 47.9176 52.7892
-37.5974 76.7922 -70.6314
61.0457 59.8667 14.7787
82.9934 -20.5594 -47.9133
40.6631 -75.2138 -26.5290
-60.1356 60.7808 68.5895
69.3965 49.9473 -70.2337
-85.3541 5.0284 -33.0928
-84.7488 11.3243 85.8022
-66.9429 53.1907 16.6547
69.3939 49.9508 -12.5010
74.0301 -42.7803 -45.0739
72.6788 -45.0377 26.6132
-84.4384 -13.4448 11.0934
68.6812 -50.9264 -58.7176
63.4705 57.2895 -3.5645
-77.8726 -35.3051 -45.3121
58.0011 -62.8210 -60.5282
62.2555 58.6076 53.2304
34.4490 78.2551 -30.2412
-85.2244 -6.8854 55.7838
40.9516 75.0571 -19.0700
-76.5039 38.1805 -56.1516
-9.1187 -85.0144 55.1565
-84.7760 11.1190 -21.9599
5.4685 -85.3270 7.2686
81.8422 24.7477 6.0004
31.9295 -79.3165 -47.6430
12.3871 84.6000 30.8714
-74.9362 41.1724 48.5505
-59.9336 60.9800 76.9332
5.8309 85.3030 -15.3002
5.9530 -85.2946 -76.4378
1.2401 -85.4931 -50.9414
23.3846 82.2421 20.7497
70.2041 48.8056 2.5641
48.6322 -70.3243 -20.2333
73.9916 -42.8468 -42.7841
75.8992 -39.3690 69.2059
-12.9175 84.5206 44.4131
70.8379 -47.8810 32.1903
-12.8463 -84.5315 -52.8834
-67.1757 -52.8963 -68.1293
-62.3233 -58.5356 16.0709
-12.7918 84.5398 64.6106
-78.9204 -32.8963 74.2142
-85.1641 7.5947 56.9628
-74.7332 41.5397 40.8913
13.0314 -84.5032 19.4877
-59.1831 61.7087 -64.6500
-67.9841 -51.8533 50.3144
-83.0195 -20.4540 27.5736
7.6494 -85.1592 53.3427
34.3245 -78.3098 57.8457
18.8995 -83.3871 53.9830
-57.1632 63.5844 47.1251
-0.2510 85.5017 3.8816
-62.4873 -58.3604 -64.1112
-30.7561 79.7789 55.2520
39.7858 -75.6815 17.2970
36.0300 77.5399 -70.6028
84.8505 10.5353 13.4962
56.5009 -64.1735 8.6206
81.0333 27.2802 -3.1753
-74.8518 -41.3257 7.7255
66.5299 53.7064 6.0179
-54.1650 -66.1570 -6.0651
-72.2968 -45.6483 62.8288
14.7629 84.2179 -85.9130
69.3880 -49.9590 56.1041
-49.5459 69.6836 -41.2035
-73.4011 -43.8506 -5.9953
-29.4065 -80.2861 -0.8704
37.0612 77.0524 -22.8976
-3.5978 -85.4263 -54.7783
-56.7514 -63.9521 4.1303
-33.2208 -78.7844 -72.2766
84.2172 -14.7670 58.6215
-7.4947 85.1729 70.0814
-76.0155 -39.1439 -81.2093
-77.9008 -35.2429 45.6209
-22.2304 -82.5615 -0.3157
-7.4234 85.1792 26.2975
-46.4008 -71.8162 14.1017
30.9707 -79.6958 -61.4285
-50.5501 -68.9586 45.0807
-79.1854 -32.2533 -33.1434
84.2530 -14.5616 2.1716
-14.0549 84.3390 28.6418
-13.0230 -84.5045 -75.3196
-82.7816 -21.3963 -21.6208
-32.0656 79.2616 -48.6382
-84.9193 -9.9655 38.2000
82.1290 -23.7788 -24.7930
84.7715 11.1533 37.9469
11.1763 84.7685 36.9218
-61.1108 -59.8003 -21.9183
-72.3731 45.5273 -9.9976
81.8004 -24.8858 -53.5374
65.7660 54.6391 -62.8600
-78.3551 34.2211 -54.8869
-32.4930 79.0873 87.2315
52.5362 -67.4578 -28.9185
-16.0407 -83.9839 -75.3631
12.3767 84.6015 81.6867
81.8701 24.6553 -59.0960
60.2214 60.6958 70.0952
37.0781 -77.0443 82.2198
14.7523 84.2198 -10.2425
80.6346 -28.4369 67.5710
44.9795 72.7148 -26.1281
43.9787 73.3245 34.6876
9.6209 84.9590 17.9407
24.2615 81.9877 24.4860
-44.7980 -72.8268 -26.3751
85.4480 3.0411 22.5645
-62.1516 58.7178 -29.2698
85.1406 -7.8534 -36.7283
-5.0512 85.3527 -47.5002
-85.1949 -7.2406 17.2689
-54.5796 -65.8154 49.3711
35.9889 77.5590 69.7911
-68.4627 -51.2197 -79.9670
79.9025 30.4333 37.4354
0.6152 -85.4998 -61.5380
-64.6512 -55.9538 56.7620
0.0683 -85.5020 39.5244
-85.2195 6.9457 -74.2722
-83.8804 -16.5733 8.3705
-69.9846 49.1198 -69.3932
43.8339 73.4111 -5.1056
-34.3400 78.3030 11.7051
-62.3793 58.4759 78.8837
-44.7998 72.8257 11.9431
-43.2462 -73.7588 -20.9470
38.8845 -76.1485 -48.5248
-59.7880 61.1228 26.0822
-34.0495 78.4298 -53.2486
-44.6546 72.9148 1.5413
-60.4820 -60.4361 50.9231
-37.6365 -76.7730 22.2737
65.9384 -54.4310 -82.7183
18.0965 -83.5650 -36.9341
81.9359 24.4359 -36.4285
-31.2360 79.5922 -16.1228
11.4076 84.7376 44.4493
84.7118 -11.5977 71.6468
20.4724 -83.0150 -41.4004
-82.0572 -24.0254 38.4434
-78.0260 34.9650 -0.1788
84.0754 15.5539 -38.6545
-68.8586 -50.6862 -8.3673
76.5179 38.1525 87.1757
81.6046 -25.5205 69.3381
-2.0906 85.4765 33.7190
-24.7834 81.8314 -83.7656
-45.9160 -72.1271 56.3206
13.1453 -84.4855 -54.3226
84.8186 10.7890 38.1952
28.8021 -80.5049 -4.8979
-55.7035 64.8670 -1.0929
-56.5037 64.1711 4.0896
67.0223 53.0907 -4.6574
59.1015 61.7869 20.1062
84.0552 15.6626 -44.9653
-68.5809 51.0614 52.9238
-70.8617 -47.8458 -41.5529
-71.6748 -46.6189 69.0974
20.5501 82.9958 67.2290
27.4260 80.9841 50.2373
-63.0816 -57.7175 9.5189
-70.5600 48.2897 -51.6382
-11.6851 -84.6998 -83.7408
-48.9344 70.1144 12.7153
-19.2973 83.2960 -84.9796
-5.6585 85.3146 39.5799
-78.0307 -34.9545 -50.2584
3.4108 85.4340 -47.5583
-83.6668 17.6199 25.3596
83.4162 -18.7705 -85.5623
3.0487 85.4477 -38.5903
-38.6878 76.2486 -81.9724
-22.2158 -82.5655 23.0819
85.2321 -6.7884 70.0802
-8.3978 85.0886 -81.3735
12.2404 -84.6214 -42.5106
-4.7227 85.3715 23.0066
-84.8489 -10.5481 -75.8753
1.8751 85.4815 58.7735
-55.1811 -65.3120 40.2546
-80.1507 29.7736 -65.0700
31.4234 -79.5184 45.6487
-20.1360 83.0972 -62.5740
29.5214 -80.2439 -84.4833
70.4501 48.4499 65.3172
64.1796 56.4940 -22.6643
-62.2068 -58.6593 0.8054
77.4826 36.1532 17.4311
59.5934 61.3126 11.0000
79.8430 30.5892 -53.2243
0.6962 -85.4992 -64.9782
-84.2846 14.3775 -79.7893
-29.6971 80.1791 -63.3357
-61.0664 59.8456 -13.9663
80.7561 28.0902 -54.3985
33.2073 -78.7901 60.9874
-76.6958 37.7935 2.0527
-68.1360 -51.6535 51.3150
31.4039 -79.5261 -13.8312
-55.4199 -65.1094 -53.4723
-84.6804 -11.8253 46.8114
-8.0588 -85.1214 -30.4982
47.5532 71.0584 -10.4004
-61.6027 -59.2935 -15.9970
-59.9803 60.9341 -65.3522
75.2458 -40.6039 12.0227
-78.8358 33.0985 83.3207
54.5047 -65.8774 -41.8568
-64.0604 56.6292 -41.6433
-20.1121 -83.1030 -85.4866
83.5512 18.1604 52.4022
65.4695 -54.9941 -77.1179
-20.8683 -82.9163 -60.6638
-74.3667 -42.1923 31.8817
-8.7437 85.0538 80.9000
-2.5915 -85.4628 36.5021
29.9428 80.0876 83.6892
43.9708 -73.3292 79.7305
-22.0116 82.6202 -16.3506
-75.4569 -40.2102 85.6337
-85.4778 -2.0369 86.6563
83.6478 -17.7102 -4.0191
81.3880 26.2028 -21.9687
-11.2051 84.7647 18.0396
69.3121 50.0643 64.9104
-71.8609 -46.3315 -54.6976
-66.0525 -54.2924 -17.5761
-58.4535 62.4003 -35.7785
-62.3093 -58.5504 -84.2938
26.8867 81.1647 71.5023
-17.3524 83.7227 42.8924
-80.2502 29.5043 23.9203
12.5746 -84.5723 53.5915
-41.8299 74.5712 -58.4654
82.2852 23.2324 86.9817
-31.3097 79.5632 -9.0008
67.8355 52.0476 9.0549
-7.8821 -85.1380 38.4302
77.7312 -35.6155 -36.9683
-4.6936 -85.3731 34.0800
76.4925 38.2034 74.8920
-37.2799 -76.9468 16.5599
38.5724 76.3071 36.2638
-5.7600 -85.3078 -7.9053
15.6683 84.0542 -49.7000
55.9589 64.6467 -8.3298
80.6092 28.5089 51.2701
30.9452 -79.7057 26.8129
-69.7002 -49.5226 36.9663
-43.8697 -73.3897 45.4412
0.8914 85.4974 -74.1922
45.5403 72.3649 -1.1680
-61.0325 -59.8802 -44.7142
65.5345 54.9166 80.6966
29.7390 -80.1635 59.0136
4.2172 85.3980 -70.0884
72.1351 45.9035 17.4011
-70.7655 47.9880 54.6180
-65.3655 55.1177 -5.0996
-47.4833 71.1051 -41.8811
3.6424 -85.4244 -62.8517
34.7835 78.1071 -12.9286
56.6271 -64.0623 13.5448
-23.9599 82.0763 -70.0852
-80.2007 29.6386 28.7011
45.1696 -72.5969 87.2357
-48.1389 70.6629 -14.9914
-67.6684 -52.2646 84.3844
27.8279 80.8468 70.9886
85.0318 -8.9556 38.5744
-20.5160 83.0042 72.0553
85.2010 -7.1684 -58.2149
16.7599 83.8433 85.9775
53.5906 -66.6232 -0.7916
-2.2237 85.4731 7.1023
-81.2285 26.6934 -33.4372
-70.3088 48.6546 -19.2096
-7.3441 -85.1861 -46.5514
-53.2610 -66.8869 64.2472
82.6309 -21.9714 29.9489
85.4261 3.6023 -59.4526
71.5734 46.7745 36.4850
84.9851 9.3879 67.2512
-34.3161 78.3135 -72.8452
84.6945 11.7235 -73.2540
11.6887 -84.6993 -20.3157
82.1052 23.8609 -64.2498
21.3261 82.7998 -48.1094
34.5577 -78.2072 -66.3650
85.4666 -2.4624 19.9873
75.7373 39.6794 -6.4127
45.5777 72.3414 -14.8282
85.2578 6.4579 23.5934
-48.5069 70.4108 82.6143
84.9274 -9.8960 -47.7113
-85.3554 -5.0059 -22.9113
-85.3728 -4.6988 -60.0819
-84.6073 12.3374 -41.3745
70.4219 48.4907 54.5096
19.8160 83.1741 66.2365
-26.5725 -81.2681 -38.4139
18.8762 -83.3924 82.2072
30.7072 79.7977 -27.1383
-18.3624 83.5070 81.4036
57.1297 -63.6145 -67.0235
-85.4929 -1.2524 72.6958
-77.1363 -36.8863 51.1667
-78.9740 -32.7675 -23.0321
79.3133 31.9376 -77.3161
6.0248 -85.2895 -12.8665
-48.5106 -70.4083 39.8219
-3.1100 85.4455 40.3845
-84.8165 -10.8057 11.7870
65.8430 54.5463 -45.5679
-69.4937 -49.8119 -10.9793
-33.3784 78.7178 -4.3331
85.3466 -5.1530 79.8807
76.1130 -38.9539 12.6370
83.6474 -17.7117 -67.5219
35.0198 -78.0014 41.6634
0.2503 -85.5017 24.9057
-19.1511 -83.3297 71.9637
5.8260 -85.3033 -57.9884
39.3232 75.9229 -77.8578
85.2477 6.5907 56.3784
6.7218 85.2374 68.3126
-79.2959 -31.9807 -36.4068
-6.7378 85.2362 -19.3702
73.6257 -43.4725 48.8595
34.0425 78.4328 84.5670
-66.6187 -53.5962 -5.4798
18.7115 83.4295 -20.8651
-81.4812 -25.9117 -24.4171
-27.2413 81.0464 26.7184
34.9166 -78.0476 7.2893
-31.9393 -79.3126 -43.4096
-45.8337 -72.1794 -58.3621
61.9946 58.8836 -31.3138
36.1798 77.4701 -69.7704
6.0488 -85.2878 44.8496
79.4310 31.6437 -52.2774
-15.4561 -84.0935 33.5803
-78.9371 32.8563 -24.6984
-0.9063 -85.4972 -41.1209
-17.7140 83.6470 -3.1761
53.5457 66.6593 33.8544
5.3381 -85.3353 -30.2657
-64.7974 -55.7844 35.5383
-85.1691 7.5378 17.4033
59.8183 61.0931 -55.8857
57.3826 63.3864 2.5389
-73.8314 -43.1222 55.2561
6.0139 85.2903 -83.4474
84.0550 15.6639 -83.6900
-8.5563 -85.0729 -84.9918
81.6591 -25.3454 65.6453
21.1736 -82.8389 54.3676
55.1361 -65.3499 -2.8877
34.9538 78.0310 -44.1171
-67.0518 -53.0533 24.2683
-69.3915 49.9542 -15.7850
5.3283 85.3359 54.6379
-27.6882 80.8948 59.8929
-85.2777 -6.1897 7.2046
-38.6372 76.2743 -16.4385
-55.2035 -65.2930 -9.5780
-38.2535 -76.4674 -75.2228
69.4931 49.8127 -21.5678
79.4260 31.6561 77.2126
-82.6453 21.9169 -76.9922
85.4680 2.4140 49.6257
-81.5378 -25.7331 18.8127
28.5347 -80.6001 63.7957
14.3823 -84.2838 -2.9002
-63.6294 -57.1131 86.9489
84.5676 -12.6067 -6.9497
-21.1269 -82.8508 33.5780
59.5379 -61.3664 -33.2010
-3.2421 -85.4406 -42.1111
69.1795 50.2474 34.5365
60.5773 -60.3407 36.2614
63.2191 57.5669 -16.3812
77.6936 -35.6975 36.6965
-61.9619 -58.9179 -57.3418
58.2077 -62.6296 75.8657
-59.7255 -61.1839 30.1786
-24.4054 -81.9450 -27.8852
77.6090 35.8810 -18.8668
67.0682 -53.0326 16.3458
83.1678 -19.8425 -69.9739
84.8320 -10.6830 64.3772
-54.3418 66.0119 -84.5248
-14.6572 84.2364 -12.4895
24.8112 -81.8230 -72.3589
9.3008 84.9947 46.8986
-74.3229 42.2695 32.8542
-78.4641 -33.9703 30.0791
27.3858 -80.9976 -72.3180
16.7058 -83.8541 57.7529
77.1571 -36.8428 18.9991
67.6205 52.3265 -36.0973
-55.5850 64.9685 -45.7605
-28.8284 80.4955 -39.3004
62.7425 58.0860 -30.8285
56.0307 -64.5845 42.4723
48.0347 -70.7338 81.9619
78.1233 -34.7470 12.1637
0.2710 -85.5016 -24.0448
-77.5201 -36.0726 -86.9942
-66.9472 53.1853 -67.7779
21.5599 82.7392 -8.7530
-3.8811 -85.4139 64.8716
-69.7794 49.4109 17.7458
-85.4951 1.0897 -75.9963
26.4207 81.3176 -47.3646
-13.8204 84.3777 60.3103
85.3518 5.0668 -1.9493
17.5517 -83.6812 0.0509
-84.0352 15.7696 -8.7062
48.8013 70.2071 64.6573
-25.8829 81.4904 82.3620
38.8437 76.1693 73.4452
85.4872 1.5937 -18.3659
33.3373 78.7352 61.7955
-14.8331 84.2056 29.7520
70.8587 -47.8503 36.2510
72.1709 -45.8472 7.4356
-12.7055 -84.5528 -82.8571
50.0673 69.3099 -48.3023
82.5856 -22.1409 25.3623
81.4158 26.1163 -73.8542
-55.0246 -65.4439 74.4050
-22.9090 82.3758 -37.8263
-36.3410 -77.3947 -40.3439
-58.4684 -62.3863 -83.5333
31.9113 -79.3238 -34.1329
15.5683 84.0728 15.5825
31.2613 79.5822 -66.5947
81.9133 -24.5115 -81.1248
-71.1170 47.4655 17.1424
51.6551 -68.1348 65.7890
84.8858 -10.2467 4.6526
77.5586 -35.9899 -48.7526
-85.4542 2.8587 34.8748
-80.8648 -27.7756 -86.7919
-48.5397 70.3882 80.2124
-85.4929 1.2521 77.7456
-62.3341 58.5240 57.3287
65.9246 54.4476 39.8083
62.3803 -58.4748 0.5060
52.3937 67.5685 -31.3860
23.8685 -82.1030 -51.2614
-38.9662 -76.1067 -58.1398
-52.1685 67.7425 26.8488
85.4045 -4.0832 0.1725
-81.2111 26.7461 -53.3282
-78.4470 34.0099 67.0100
33.3610 -78.7251 46.4593
-73.7327 43.2908 26.7561
-66.8446 53.3142 20.2516
72.5015 45.3226 -22.9637
-49.3570 69.8175 27.2947
83.2393 19.5401 -54.9455
77.5742 -35.9560 -66.8107
12.2508 84.6198 -15.2447
83.8528 -16.7124 -54.5072
-44.5895 -72.9546 -0.6342
56.0550 64.5635 37.5324
-84.9962 9.2865 8.9968
-1.7895 -85.4833 75.0151
59.6756 61.2326 80.8596
14.6681 -84.2345 -76.7012
-68.1180 51.6772 -38.5097
85.0581 8.7020 83.7987
-6.3795 -85.2637 41.3491
-26.5207 81.2850 -70.1135
-34.6565 78.1635 -28.2144
-81.3754 26.2420 -6.4001
-59.8453 61.0667 -26.9393
57.7996 -63.0064 -80.9131
-15.0621 -84.1649 -51.2498
69.8649 -49.2899 -78.1346
-38.9585 76.1107 31.8171
18.6025 83.4539 -47.7090
41.9251 -74.5177 -84.1461
-70.0462 -49.0319 6.2742
-40.7361 75.1743 61.9446
-14.1331 -84.3259 10.2253
-76.8566 -37.4656 24.1534
-49.1810 69.9416 -37.6900
-30.9883 -79.6889 28.5920
77.7339 35.6097 59.0316
-45.5038 -72.3879 -17.8570
80.9188 27.6180 52.7208
-70.7130 -48.0653 28.1468
-75.7265 39.7002 -33.4993
78.1300 -34.7318 -57.4875
-85.1827 -7.3833 36.7845
54.2590 66.0799 -26.8476
-61.9088 -58.9737 62.1124
-23.4022 -82.2371 -6.3830
36.0716 77.5206 84.6726
-18.8352 -83.4016 -41.6185
64.1082 -56.5751 -34.7781
28.1104 -80.7490 76.2694
-3.3323 85.4371 86.7923
76.2142 38.7556 -18.3661
74.0806 42.6927 -87.1691
-41.6660 74.6629 -24.1838
38.4279 -76.3800 1.0839
24.7363 -81.8457 -37.7668
14.7736 84.2160 -39.3938
7.9596 85.1308 67.0570
-62.4185 -53.6739 87.2901
-3.0949 -0.1126 87.2901
11.4610 3.7147 87.2901
24.9064 57.6186 87.2901
6.1676 16.2193 87.2901
-28.8876 -7.3372 87.2901
-20.4504 54.0596 87.2901
65.1006 -4.9672 87.2901
2.3435 -0.9429 87.2901
-10.4499 -3.5577 87.2901
-1.4745 -54.6342 87.2901
-39.6009 -62.2043 87.2901
-30.4874 -14.3970 87.2901
38.6851 52.7260 87.2901
-39.5715 46.8734 87.2901
-0.8405 -44.5951 87.2901
27.0866 77.4298 87.2901
1.4487 1.0957 87.2901
11.4940 36.7144 87.2901
15.7073 59.6870 87.2901
-5.3343 -21.8189 87.2901
-45.9629 15.2227 87.2901
23.7728 27.1729 87.2901
31.5563 -13.4065 87.2901
-83.0863 3.1781 87.2901
-12.1183 18.0882 87.2901
58.5610 -60.7737 87.2901
-1.1062 11.3010 87.2901
-15.7204 -25.0232 87.2901
-1.3467 -2.7684 87.2901
-24.5953 -12.2042 87.2901
35.6947 -57.9575 87.2901
-26.3840 25.0989 87.2901
19.1504 -18.1679 87.2901
-6.4333 -0.5623 87.2901
17.5699 61.7660 87.2901
2.1633 -79.0502 87.2901
20.8453 -17.3868 87.2901
-26.2412 -15.0436 87.2901
-45.5862 -47.9934 87.2901
16.5134 -78.3767 87.2901
-23.2370 78.5026 87.2901
3.5070 -32.9177 87.2901
-24.4588 -63.0499 87.2901
0.5584 -11.2830 87.2901
6.4356 61.5313 87.2901
-13.7607 -29.8770 87.2901
11.1687 7.1934 87.2901
-2.7692 -69.3382 87.2901
-2.6665 -4.7018 87.2901
-18.2614 37.6514 87.2901
48.8686 -63.8048 87.2901
-15.6738 -48.5248 87.2901
-10.0869 -3.2878 87.2901
-29.4794 29.8668 87.2901
42.2819 -11.3591 87.2901
-49.5753 -18.5991 87.2901
-48.9279 -8.5387 87.2901
6.4325 2.7325 87.2901
19.6696 46.4346 87.2901
-11.6774 2.8726 87.2901
-62.5187 -50.6149 87.2901
0.1598 8.7532 87.2901
-3.2136 2.1467 87.2901
5.2210 -44.9580 87.2901
29.7615 47.0066 87.2901
-2.0423 -84.7082 87.2901
37.8114 57.8547 87.2901
24.7984 -19.1407 87.2901
-34.3700 0.8816 87.2901
22.8278 13.4843 87.2901
32.2360 -72.1357 87.2901
17.6338 20.9807 87.2901
43.7268 30.6914 87.2901
57.3750 -51.4892 87.2901
-18.5463 27.3065 87.2901
-11.0903 30.1021 87.2901
-20.7663 42.0214 87.2901
65.6128 40.3033 87.2901
-24.4192 -32.7127 87.2901
-3.7775 12.5119 87.2901
-33.6581 66.1367 87.2901
-0.6939 -20.9168 87.2901
-69.2828 0.3892 87.2901
7.8941 18.7988 87.2901
-2.3936 -60.9852 87.2901
-14.7994 -3.8185 87.2901
74.9744 -25.9488 87.2901
-22.6751 0.8522 87.2901
-28.6876 23.2858 87.2901
-31.8023 -9.9150 87.2901
-38.9206 -13.3233 87.2901
34.0433 -65.4969 87.2901
40.7003 59.8296 87.2901
14.0736 4.2684 87.2901
56.0427 -35.9697 87.2901
17.5639 -11.4542 87.2901
-3.6687 -4.8773 87.2901
18.4806 -10.5492 87.2901
48.0988 45.0171 87.2901
27.5200 9.8142 87.2901
2.8076 0.4535 87.2901
18.7238 -5.3535 87.2901
-27.6003 1.4518 87.2901
-3.3070 -6.1333 87.2901
32.2807 44.1834 87.2901
-13.4388 8.2877 87.2901
64.4027 -19.3820 87.2901
39.8311 -7.7705 87.2901
2.8366 0.6688 87.2901
5.2839 6.5941 87.2901
-67.1352 43.7040 87.2901
0.0591 1.8704 87.2901
-4.0193 52.3908 87.2901
-47.6494 40.3350 87.2901
-12.2508 34.1916 87.2901
-5.2642 -80.7493 87.2901
6.1877 -7.8356 87.2901
58.8501 55.5632 87.2901
-2.7636 -5.1799 87.2901
0.2138 -53.8027 87.2901
-15.3896 -35.5068 87.2901
-32.1138 -34.7576 87.2901
52.5186 58.4197 87.2901
12.6405 9.0225 87.2901
4.7557 -11.8541 87.2901
-10.7312 -39.0589 87.2901
-11.1680 -71.1376 87.2901
-53.9452 -4.3717 87.2901
-4.3446 23.2360 87.2901
-48.9193 4.3380 87.2901
77.7043 -20.7194 87.2901
2.6209 -1.3333 87.2901
-77.9309 12.8593 87.2901
2.5694 -42.7029 87.2901
4.1267 -1.4626 87.2901
49.2486 -5.6943 87.2901
-0.4157 1.0069 87.2901
0.8767 1.3916 87.2901
-66.4138 11.3223 87.2901
-29.3101 -61.1274 87.2901
6.5048 10.8795 87.2901
-38.4770 -54.8668 87.2901
8.0613 -11.7925 87.2901
-24.0473 23.1680 87.2901
65.2718 1.3974 87.2901
-2.6246 -42.8187 87.2901
-6.6869 25.5967 87.2901
4.3223 -0.8504 87.2901
19.9398 -34.3152 87.2901
-46.5799 -66.8509 87.2901
7.4833 57.5542 87.2901
2.3793 -58.1943 87.2901
-14.3545 82.3422 87.2901
-17.1882 65.6199 -87.2901
1.2075 -2.9576 -87.2901
7.6707 14.5671 -87.2901
-12.0256 -12.3486 -87.2901
-22.4381 5.3307 -87.2901
-60.2971 -55.5944 -87.2901
-20.3525 -47.1378 -87.2901
-4.6307 69.9335 -87.2901
6.8213 -3.5726 -87.2901
56.0376 -42.2882 -87.2901
69.9112 4.8117 -87.2901
8.7028 -75.4800 -87.2901
-5.2539 3.2952 -87.2901
-39.2019 5.0482 -87.2901
55.5495 -6.0985 -87.2901
-0.2770 -6.0978 -87.2901
17.9650 65.7769 -87.2901
47.2294 -19.6454 -87.2901
38.6761 -48.5472 -87.2901
35.0320 67.8116 -87.2901
26.9438 18.8116 -87.2901
-40.9223 -18.2646 -87.2901
-16.2079 -13.1765 -87.2901
26.2010 -34.7817 -87.2901
-6.9684 31.8445 -87.2901
29.0421 -34.3539 -87.2901
-2.2647 1.2087 -87.2901
-38.5640 49.4890 -87.2901
-19.1560 -69.4172 -87.2901
64.3923 42.5477 -87.2901
-8.3464 70.0307 -87.2901
-2.7571 60.9355 -87.2901
71.9760 22.2771 -87.2901
56.9974 5.9002 -87.2901
50.7344 9.1080 -87.2901
1.7818 -0.0203 -87.2901
-5.1366 53.2452 -87.2901
25.5908 -15.3568 -87.2901
42.8488 -40.0774 -87.2901
12.6749 44.2672 -87.2901
48.3170 60.7424 -87.2901
-21.4572 -0.6459 -87.2901
-16.8168 -9.8134 -87.2901
-50.6711 4.6895 -87.2901
-5.2526 -0.0231 -87.2901
-24.5312 35.8835 -87.2901
15.1296 -6.8166 -87.2901
57.5314 -37.7572 -87.2901
0.1707 -0.2032 -87.2901
37.7556 -43.8635 -87.2901
-9.9027 3.8375 -87.2901
33.8316 53.0575 -87.2901
-73.1112 13.9628 -87.2901
60.1024 37.9250 -87.2901
25.3494 32.8804 -87.2901
-28.5442 41.5677 -87.2901
-20.3897 17.9121 -87.2901
0.7747 2.0922 -87.2901
50.2554 -43.3841 -87.2901
33.8768 -8.5077 -87.2901
-30.3321 -0.9264 -87.2901
22.4060 39.5605 -87.2901
21.0859 74.8150 -87.2901
8.5259 29.1231 -87.2901
15.0354 -1.0834 -87.2901
35.1498 -48.8129 -87.2901
-8.7381 26.3046 -87.2901
24.2408 -1.8889 -87.2901
-11.6269 60.2305 -87.2901
-9.9861 -76.5213 -87.2901
22.1520 -30.5566 -87.2901
9.8133 47.4288 -87.2901
34.0956 -13.5415 -87.2901
57.5986 0.8455 -87.2901
-4.1237 3.7333 -87.2901
-1.1276 83.1877 -87.2901
82.7373 -6.1439 -87.2901
34.2199 -21.9051 -87.2901
-71.9043 -18.6901 -87.2901
-0.5420 -2.7093 -87.2901
32.5618 -7.5500 -87.2901
34.6885 24.7115 -87.2901
26.8488 -77.9510 -87.2901
6.6163 -4.6656 -87.2901
-58.5981 -47.2588 -87.2901
4.6071 -48.9898 -87.2901
18.5132 -35.1987 -87.2901
-16.2578 20.2693 -87.2901
82.7189 6.7961 -87.2901
-39.1634 -34.6462 -87.2901
-31.7486 41.0568 -87.2901
12.4324 -39.9850 -87.2901
-48.7565 -50.0465 -87.2901
-10.5264 1.7897 -87.2901
-24.2839 9.2890 -87.2901
-35.1838 28.6044 -87.2901
11.2876 -3.3918 -87.2901
-29.2878 35.2042 -87.2901
-49.2622 14.7889 -87.2901
-24.1694 -66.7044 -87.2901
7.9504 -9.9301 -87.2901
-36.7081 45.0946 -87.2901
-6.4642 54.3882 -87.2901
28.5124 32.1839 -87.2901
32.0309 -43.6426 -87.2901
-58.3663 11.6395 -87.2901
1.4338 0.3795 -87.2901
6.9827 -69.9144 -87.2901
-53.9888 -29.9051 -87.2901
48.5497 -6.0787 -87.2901
-19.8180 2.2300 -87.2901
-12.5232 -31.8777 -87.2901
14.0325 -84.2346 -87.2901
-12.3524 76.2785 -87.2901
-31.5501 -32.8393 -87.2901
-5.6330 -10.7721 -87.2901
55.5758 38.8660 -87.2901
27.1989 -17.8922 -87.2901
-60.9247 23.7722 -87.2901
-34.0048 -13.5953 -87.2901
-63.2044 42.2369 -87.2901
40.1916 25.5910 -87.2901
74.3845 -1.4495 -87.2901
-58.9659 -60.3596 -87.2901
-1.7813 41.5365 -87.2901
-74.7725 30.5066 -87.2901
-68.2012 -27.7467 -87.2901
9.2530 8.6211 -87.2901
-1.7949 9.4610 -87.2901
56.7692 -32.2483 -87.2901
38.3812 -68.7942 -87.2901
0.4069 19.8200 -87.2901
-6.9674 -21.7948 -87.2901
-6.7111 1.8259 -87.2901
-36.5563 38.5587 -87.2901
-32.8990 -28.5264 -87.2901
-37.9381 2.4361 -87.2901
-19.9569 -27.5965 -87.2901
-9.5333 58.0114 -87.2901
44.9221 24.1070 -87.2901
10.6011 -17.6529 -87.2901
44.0231 -69.5172 -87.2901
5.8841 -2.3754 -87.2901
50.1055 12.6596 -87.2901
-4.4311 -3.0411 -87.2901
-18.0656 -17.4483 -87.2901
-15.7416 -35.1330 -87.2901
37.6805 -41.3678 -87.2901
28.7952 -24.1331 -87.2901
46.4142 -12.9793 -87.2901
-22.5861 -11.9814 -87.2901
32.1349 -58.2850 -87.2901
16.9677 6.4573 -87.2901
24.7414 -34.7444 -87.2901
