ply
format ascii 1.0
element vertex 1024
property float x
property float y
property float z
end_header
-81.1192 -39.8912 -34.1018
89.6624 -11.5014 -0.0325
31.7890 84.6232 6.0694
-31.8585 84.5971 3.9587
49.9641 -75.3340 -30.3482
90.2007 -5.9552 28.2425
25.6396 86.6847 26.3683
-31.2372 84.8285 -4.8157
31.1260 -84.8693 -2.1821
54.0799 72.4361 -24.4571
54.2294 -72.3243 -46.4217
61.0073 -66.7063 3.2896
86.4083 26.5564 -19.4389
32.4770 -84.3616 -18.3486
81.4815 39.1458 3.7833
74.5376 -51.1447 8.3401
-45.5208 -78.0992 6.8485
88.5742 -18.0622 -34.6439
27.0199 -86.2644 47.3368
-63.7678 64.0726 9.8960
88.7044 -17.4115 -24.8741
44.7111 -78.5656 -5.2704
72.4343 54.0824 -33.9445
90.3867 -1.3682 -32.1923
-86.0558 27.6771 14.5145
88.1902 19.8527 10.5562
89.8215 -10.1847 53.7839
72.5527 53.9235 -14.1381
-11.2649 -89.6924 49.9998
89.1532 14.9444 24.9445
88.3535 -19.1126 0.1665
89.1892 14.7282 37.4448
-0.3859 -90.3963 -40.8056
-87.9578 20.8581 -8.4038
89.9735 -8.7404 36.9587
-30.3089 -85.1646 -12.3222
89.2874 -14.1204 -16.6123
-90.1468 6.7216 -45.3412
59.8549 67.7423 -18.4500
-40.3500 -80.8920 -48.4753
-74.3996 51.3451 -50.3988
-55.8556 71.0759 11.1053
-13.0290 -89.4532 -41.3381
76.8024 47.6763 -21.2879
-18.5580 88.4717 -4.8524
-75.8426 49.1888 -31.9650
-85.0269 30.6930 -20.0413
11.9233 -89.6073 -39.4303
-10.4635 -89.7895 -14.4676
-1.5481 90.3838 20.3445
-33.9054 -83.7977 -5.1220
44.3000 78.7981 17.9509
45.7019 77.9934 -51.0475
70.3841 -56.7249 33.8278
-69.1814 -58.1856 -5.2378
63.2198 64.6134 39.2027
-43.2820 79.3619 34.7897
-90.3621 -2.5128 -28.0336
-48.5835 76.2317 -27.8590
-26.7423 -86.3509 -8.3420
78.7546 44.3772 14.3044
4.2181 -90.2986 -39.0887
-57.5475 69.7131 -21.3124
54.4298 -72.1736 -16.5747
80.3747 41.3707 -30.2189
84.7979 -31.3200 -26.3258
-54.8894 -71.8247 20.6271
52.4182 73.6476 -35.6428
40.0459 -81.0429 -41.4429
89.7722 10.6107 -46.8483
-65.9881 61.7835 16.5949
-4.7961 -90.2698 22.5075
85.2295 30.1257 -52.3542
90.0573 -7.8304 -48.3170
82.3514 37.2811 32.4554
-8.5614 89.9907 -50.0875
-80.4133 -41.2957 22.4765
-86.5522 26.0835 42.4244
-51.4973 74.2944 22.8799
-89.7314 10.9502 -25.1447
-50.3963 -75.0456 14.9352
-86.1910 -27.2535 3.3148
-90.1691 -6.4161 -23.8861
61.7960 -65.9764 23.5948
68.6350 -58.8292 -38.9761
-39.9985 81.0663 49.3037
-51.6941 -74.1576 9.2118
35.0113 83.3417 3.6949
-9.9994 -89.8423 -39.7218
-90.1998 5.9685 -36.8320
-16.3195 88.9118 53.5241
60.9836 -66.7281 -12.7427
-33.7743 83.8506 -7.1249
-90.0595 7.8050 -16.8881
83.8882 -33.6808 17.6351
37.5343 82.2363 -34.1236
-43.2517 -79.3784 -51.8802
-14.1245 -89.2868 -32.0852
55.8748 71.0608 31.3794
88.6785 17.5430 50.1551
59.9977 67.6159 7.4972
67.9821 59.5825 -52.8671
70.5049 56.5747 48.8508
46.6157 77.4507 -27.9657
55.3953 71.4353 -14.5823
-75.3017 50.0129 -5.6497
89.8424 9.9989 -41.8515
-16.8517 -88.8125 36.6693
86.2299 27.1301 -46.4009
78.3083 -45.1602 -4.1372
89.0850 15.3456 25.5471
90.1822 6.2296 11.3083
25.3653 86.7654 40.5167
82.0414 -37.9584 37.5175
-9.4686 89.8998 -50.1044
-90.0177 8.2736 -1.2811
75.3610 -49.9235 51.9631
64.4552 -63.3810 16.0634
-83.0757 -35.6379 5.9475
86.1735 27.3087 36.4347
-63.3589 64.4770 17.3677
78.4079 44.9871 -34.7486
84.0644 -33.2386 5.0184
-52.2838 73.7430 22.6565
76.2217 48.5992 -38.0977
56.8276 70.3012 47.5657
28.9402 85.6393 -46.6497
-75.3545 49.9333 -24.4493
-74.6908 -50.9207 -6.4987
-89.8262 -10.1433 49.5687
-86.2271 -27.1388 -6.0750
17.6293 88.6614 37.1316
88.8289 16.7649 -19.8648
-45.7032 -77.9926 -15.6852
22.5817 -87.5311 11.2146
65.0787 62.7407 5.8030
-82.2213 -37.5671 42.7119
-22.8174 -87.4700 -7.9870
-76.9230 -47.4814 14.8542
-89.5118 -12.6199 1.1667
90.3953 -0.5695 -34.5773
-90.3960 -0.4479 36.6923
90.2986 4.2178 -19.6095
50.4301 75.0229 4.8409
-83.2667 -35.1892 9.2646
74.9981 50.4670 33.2189
-35.2262 -83.2511 51.3935
-52.9195 -73.2882 -24.2625
-39.1811 81.4645 17.1728
34.3787 -83.6046 23.2704
77.8641 -45.9218 -46.4928
-75.9860 48.9669 26.8250
-55.0551 -71.6977 29.4538
-55.4459 71.3960 23.7697
18.4235 -88.4998 -8.3170
30.7868 -84.9930 12.7473
-13.3052 -89.4125 -18.3909
86.2886 26.9426 0.4403
74.7105 -50.8918 -2.1097
82.3837 37.2096 22.6327
0.3349 -90.3965 33.3988
-67.5404 60.0827 33.6210
78.0109 45.6720 49.0533
12.1223 89.5806 -29.3702
-10.2610 89.8128 -52.7921
15.2851 -89.0954 31.1102
-63.5881 -64.2510 40.5237
-81.3485 -39.4215 20.6204
35.5293 83.1222 -11.4870
-62.5575 -65.2548 -41.5730
89.1464 14.9850 -7.2353
-81.0191 -40.0940 35.0567
-32.0415 84.5280 -31.7927
39.5770 -81.2729 -14.3815
-89.8622 9.8194 -46.5662
-4.5560 -90.2822 -23.5845
54.3120 -72.2623 2.7985
-85.1922 -30.2312 35.7617
-53.0984 73.1587 19.3845
42.8507 -79.5955 51.4857
-54.6514 -72.0060 -37.5616
87.7861 -21.5692 43.6366
-90.2002 5.9630 -40.0587
-85.4387 -29.5272 -16.5831
-2.1242 -90.3721 21.9401
57.6982 -69.5884 25.9732
84.9156 -30.9995 -0.2388
-36.8563 82.5424 14.1811
-20.0868 88.1371 -24.9399
-79.4915 -43.0433 -31.6631
-86.3706 26.6786 -6.6878
46.8941 -77.2824 -17.0693
31.5538 -84.7112 21.8550
-56.8727 -70.2647 51.2886
89.0256 15.6865 30.0887
-78.7385 44.4058 -2.2036
79.8035 -42.4620 -43.4412
-66.4519 61.2844 30.2225
-85.9085 -28.1312 -28.7748
-67.6302 -59.9815 -9.6915
4.0832 90.3048 -8.6962
43.9580 -78.9894 10.3872
89.7704 10.6261 34.5766
-87.6363 -22.1699 51.2392
-55.9078 71.0348 -40.2723
22.1847 -87.6326 42.3934
-8.3882 -90.0071 8.8976
41.6883 -80.2105 -13.8720
-87.9461 -20.9072 -53.5366
-89.8669 -9.7759 -13.5123
-89.6118 11.8894 -49.3335
80.0917 41.9161 25.6575
-20.7459 -87.9843 51.9654
60.8477 -66.8520 35.2003
-90.2938 4.3198 -44.0200
23.5730 87.2694 12.2611
73.9187 52.0352 47.8798
73.6748 52.3799 40.3895
-64.0625 63.7780 -27.2321
57.7541 -69.5420 -7.4932
-3.4311 90.3319 0.1484
-74.8215 50.7284 42.4420
-39.3338 -81.3909 -43.7290
-76.5493 48.0815 52.0250
-87.3798 23.1605 31.7481
26.7186 -86.3582 -22.6194
86.7290 -25.4896 5.4875
-77.3370 46.8040 -30.7236
87.5052 -22.6819 -52.5524
76.8091 -47.6654 -35.9495
-89.6658 11.4747 19.8474
-43.7340 79.1136 -46.3115
-1.7823 90.3795 53.6926
89.8150 10.2420 41.1509
-61.6607 66.1029 -45.7965
-90.3629 2.4862 6.5409
-88.8503 -16.6510 -10.7450
-64.7944 -63.0343 -44.1928
-40.5275 80.8032 34.1813
89.4355 13.1503 -37.3327
-55.0627 71.6919 -19.9602
-67.1518 60.5166 -19.1093
-87.1094 24.1575 -52.7603
-22.9824 87.4268 -31.2357
83.4604 34.7273 38.4628
-89.1890 14.7291 8.9226
83.7671 -33.9809 5.6010
88.4845 -18.4966 31.0831
89.6191 11.8343 -5.2319
57.8655 69.4494 53.4819
-86.9700 24.6547 -38.9160
35.0485 83.3261 39.5188
24.9316 -86.8910 -0.5716
-88.5681 18.0923 52.3638
49.6888 75.5159 4.0050
58.3235 69.0652 17.6469
20.4648 -88.0501 -45.1009
-65.8851 -61.8934 -41.2414
74.7408 -50.8473 43.7804
-35.3761 83.1875 33.6742
86.5777 25.9987 -23.7530
82.0196 -38.0055 38.6611
-60.2014 67.4346 20.5509
-90.0089 -8.3687 -42.7075
-77.5227 -46.4958 -46.1765
56.2885 70.7336 23.8260
-46.1095 -77.7531 -27.3343
90.1010 7.3109 53.5605
9.0998 89.9379 -5.2916
-69.7477 57.5056 26.3815
-88.3947 18.9213 -0.4012
43.2513 -79.3786 -33.9259
-89.5182 -12.5745 42.3786
68.0741 -59.4772 -25.7549
-63.7736 64.0668 -26.2587
90.3947 0.6506 -46.6485
-83.4563 34.7373 -44.7809
25.0859 -86.8466 -1.6355
33.7221 83.8716 25.8146
83.5233 -34.5759 29.6073
-49.4521 -75.6711 -53.8648
66.2158 61.5394 -26.2714
-38.5334 -81.7729 4.1901
-80.0825 41.9336 31.5578
73.7495 -52.2747 7.2458
-73.4211 -52.7350 30.4485
-85.7051 -28.7448 -19.7448
-87.2991 23.4627 -21.6160
-14.8051 89.1765 -18.7824
52.0937 73.8774 8.1474
-75.8368 -49.1977 -30.1446
72.4742 54.0289 43.1191
-14.6711 -89.1986 26.0065
-2.0392 -90.3741 5.1205
-72.9249 -53.4191 13.9801
-44.4687 78.7030 -44.9056
89.9580 -8.8993 -31.7258
-27.3161 86.1711 -23.5129
85.7415 -28.6363 53.2707
21.9407 -87.6940 -30.8392
54.6354 -72.0181 4.5340
-6.9528 -90.1293 -42.1085
-68.8151 58.6184 36.2730
-85.8174 -28.4080 -9.7684
42.3994 -79.8368 39.1188
37.8738 82.0805 -37.5305
38.9651 81.5681 18.0586
-36.3014 -82.7879 46.3841
87.8125 -21.4614 -19.8762
-50.3958 75.0459 -0.3784
-55.6540 71.2339 25.6108
-51.1388 -74.5417 -7.4202
78.8545 -44.1995 -34.3956
-56.7863 70.3345 -30.5842
5.6667 -90.2193 -46.8746
-31.6914 84.6598 -15.0336
90.2259 5.5603 12.8074
-64.3900 -63.4473 32.5931
69.2194 58.1404 -23.3746
59.4470 68.1006 43.6770
-67.2587 60.3979 -51.5711
-77.7165 46.1712 31.7985
-85.6457 -28.9214 27.4138
-58.5725 -68.8541 41.3254
-44.1217 78.8981 -33.3940
58.4720 68.9395 -25.1809
-24.4706 87.0220 -32.0927
-4.1090 -90.3036 -41.1311
-86.6424 25.7823 33.1099
67.0143 60.6689 46.2629
73.6878 52.3617 -33.7600
82.4566 -37.0479 -45.2308
-67.5047 60.1228 7.4556
-3.8744 -90.3140 -47.6204
84.8743 31.1126 -33.6983
-90.3590 -2.6219 -18.5237
-41.0815 -80.5229 24.0576
67.2454 60.4127 -34.3213
-90.3267 3.5653 1.4909
45.9164 -77.8673 -3.0479
-88.3976 -18.9075 -39.8813
-35.6601 83.0662 -0.5256
-73.8547 52.1259 -30.2299
-81.3536 39.4109 -45.4352
-90.1116 -7.1780 44.5626
83.8650 33.7385 -8.8224
-57.5248 69.7319 37.0257
-55.7427 -71.1645 -24.7303
-74.7074 50.8964 -23.7718
-32.2911 -84.4329 22.6086
-77.3806 -46.7319 -39.5004
86.8291 25.1465 -8.5566
13.1876 -89.4300 42.0351
87.1205 -24.1174 32.8976
89.8616 9.8244 -28.0611
59.3925 -68.1481 -3.9920
37.4549 82.2725 -10.1662
-84.6500 -31.7177 33.3052
90.3956 0.5232 -29.0312
-50.3787 -75.0575 -17.7307
77.7139 -46.1756 45.6065
59.5298 68.0282 47.9611
-24.9568 -86.8838 -4.2907
17.4030 88.7061 29.3579
54.0088 72.4892 -48.5285
-85.1865 30.2473 -9.8489
17.8394 -88.6193 -21.4483
21.7694 -87.7367 50.1514
11.8305 89.6196 41.8716
-46.4333 -77.5602 -41.2143
34.5683 83.5264 25.9886
-2.7814 -90.3543 10.0642
65.1349 -62.6823 -3.3430
-90.3415 -3.1694 1.3848
-29.6154 -85.4082 -31.8738
-90.3100 3.9672 29.5897
-44.5694 78.6461 -51.3764
85.9813 -27.9080 -38.3699
84.9574 30.8848 -50.8363
-9.5371 89.8926 -20.1777
-89.7804 10.5407 41.4806
50.4236 75.0273 -50.6717
-68.7398 -58.7067 -23.2555
-70.4401 56.6553 -43.6863
8.7512 -89.9725 7.2473
6.5498 -90.1595 -27.9560
75.0975 50.3189 -19.3092
16.3395 88.9081 -47.0060
-55.3060 -71.5044 -19.2970
-82.4477 -37.0677 -38.5631
-69.9749 -57.2289 -30.8238
75.2771 -50.0499 -48.5157
-61.0752 -66.6442 -17.5198
26.2600 86.4988 -34.9445
31.3684 84.7801 -42.7905
-83.7143 -34.1108 34.8002
-33.4020 -83.9996 -36.3892
-64.6463 -63.1862 -36.7883
51.4761 -74.3091 -28.8291
51.9849 73.9541 4.9802
-66.0969 61.6671 -47.6217
9.6858 -89.8767 32.6565
0.9169 -90.3924 -7.2351
26.7745 -86.3409 -40.5333
89.0057 15.7996 -48.5262
-8.5584 89.9910 25.2437
-90.3967 0.2546 -39.4997
-34.4833 -83.5616 16.2451
-10.7988 -89.7498 34.1831
25.6951 86.6683 -53.6596
-25.9138 -86.6032 0.0134
88.6332 -17.7706 -41.6663
34.7341 -83.4576 -7.9303
70.8255 -56.1728 12.8894
-63.7393 64.1010 -39.7748
-30.9696 -84.9265 42.7066
90.3960 0.4462 14.3038
36.1248 -82.8651 -22.5405
89.1528 -14.9472 -27.2098
-79.2799 43.4319 40.2744
0.0824 90.3970 -37.2174
32.0450 -84.5266 -25.9607
-90.3046 -4.0868 2.5432
69.7630 57.4870 -53.1571
87.3680 -23.2050 27.3873
-15.6709 89.0284 -49.8101
64.3177 -63.5206 51.8709
54.1733 -72.3663 17.6941
34.4110 -83.5914 -1.3153
19.4202 -88.2864 -27.9726
2.1638 -90.3712 -8.3155
22.8554 -87.4601 -16.8536
-10.4369 -89.7926 -49.5318
-37.9082 82.0646 41.6843
-9.6981 -89.8754 52.1924
87.1358 -24.0622 -27.3840
89.7774 10.5665 37.8443
-65.6925 -62.0978 41.3244
-55.5190 -71.3392 -31.0552
-90.3608 -2.5617 28.6722
-78.2438 -45.2718 49.3430
-4.1465 90.3019 12.2473
-27.5738 -86.0890 44.9190
-26.0032 86.5763 -53.5021
65.0469 -62.7737 -3.7785
-37.7228 82.1500 -16.5790
-66.0943 -61.6699 -43.0682
90.0430 7.9933 46.5012
-64.0747 63.7657 -7.3372
67.2301 -60.4297 9.6433
7.0360 -90.1228 -19.1093
-35.5968 83.0933 19.0602
-60.3173 -67.3309 -30.0660
81.3051 -39.5108 -3.8696
43.0694 79.4774 31.8277
-66.1459 -61.6145 41.1274
-17.7606 -88.6352 -34.3141
-57.8645 -69.4502 1.5822
-43.8492 -79.0498 -35.1996
-80.1427 -41.8184 -22.1360
-23.2532 -87.3552 -36.7584
56.4576 -70.5986 -26.9351
-89.7776 -10.5647 -35.6041
31.2313 84.8306 -7.8913
-90.2231 5.6054 -32.3573
-2.4666 90.3634 -53.6248
-33.0567 84.1361 47.4959
89.6999 -11.2054 -47.4118
-68.4164 -59.0832 45.6449
75.2148 50.1434 0.8856
19.9607 -88.1658 8.3205
25.4138 -86.7512 -7.9872
-74.3125 51.4713 -45.8784
-87.1494 -24.0128 -32.1068
89.0272 15.6779 29.7911
-24.9046 86.8988 -41.9552
75.0507 -50.3887 -3.9204
90.0737 -7.6392 -37.8695
66.4798 -61.2541 -33.9396
-89.7105 11.1201 48.3910
-60.6189 67.0596 30.1043
82.6683 36.5729 -33.2668
-38.1866 -81.9354 19.7825
-60.8466 66.8530 22.7768
84.0337 -33.3163 -34.5159
83.8848 33.6895 3.2365
-51.3364 74.4057 45.4262
37.1997 82.3882 -42.7609
0.0500 -90.3971 38.5598
50.3120 75.1021 -40.4481
-73.1480 -53.1131 43.2300
24.7941 86.9303 49.5679
84.3684 32.4594 3.6012
80.9628 40.2076 13.3980
19.3562 -88.3004 -40.9162
90.2591 -4.9922 -47.5380
-61.6645 -66.0993 -29.5015
22.7458 87.4886 -45.6125
61.7306 -66.0376 -38.2834
58.4063 -68.9951 25.0202
-3.7929 -90.3175 -34.1892
-14.7402 -89.1872 27.6129
-79.8977 -42.2847 51.6611
-62.8071 -65.0146 -16.9677
-22.4424 -87.5669 -2.9019
-89.8546 -9.8887 -44.2669
32.0677 84.5180 6.4353
37.0238 82.4674 -5.2364
63.0995 64.7309 42.3592
86.7491 25.4208 53.8734
88.2934 -19.3883 -18.9621
50.1192 -75.2309 -53.5355
-68.4525 59.0414 -12.6099
-90.3805 -1.7304 -42.8993
-79.3837 -43.2419 -48.4479
-17.0429 -88.7760 29.9073
-87.5118 -22.6566 43.2948
53.3587 -72.9691 24.2357
6.3502 90.1738 26.0155
52.4606 -73.6174 30.7943
-86.5111 -26.2195 -27.8192
36.8886 -82.5280 -38.6780
57.3133 -69.9058 17.1908
-87.6932 21.9437 -40.5909
34.2170 83.6710 -3.8967
-69.7803 57.4660 3.5157
36.6941 82.6146 -13.6771
-84.4651 -32.2069 21.7203
-89.4586 -12.9922 -45.1615
-45.3793 -78.1815 -11.1044
84.5407 32.0079 53.1991
-84.1097 33.1238 1.6122
-34.9186 83.3806 27.2044
-57.6867 -69.5980 -16.0500
-58.5921 68.8375 -51.7432
-11.8967 89.6108 32.5903
-86.3336 -26.7983 48.4344
-35.2611 83.2363 -52.4282
54.8531 71.8524 -12.2551
-90.3619 2.5231 -1.0255
63.9094 63.9314 -34.4015
-48.5510 -76.2524 31.3883
62.4294 -65.3773 44.2692
16.3431 -88.9075 -3.8673
-73.7455 -52.2804 39.1430
-25.5260 -86.7182 26.6133
66.1517 61.6084 -21.6614
-1.1421 90.3899 -25.4149
89.8590 -9.8481 41.7816
1.5903 -90.3831 31.7223
83.8974 33.6580 2.9410
36.0599 82.8934 -29.7880
25.9504 86.5922 34.6922
-84.1928 32.9121 31.0385
7.3591 90.0970 -9.0577
87.9427 20.9215 -31.0848
-46.1335 77.7389 41.8723
51.5115 -74.2846 14.4381
-49.2267 75.8180 47.5183
-44.0053 -78.9631 35.9401
-86.6844 -25.6409 -28.8977
10.3855 -89.7985 40.0493
23.6383 87.2517 -9.1854
63.5864 -64.2526 -3.6207
-83.7463 -34.0322 26.0641
-88.1680 19.9509 15.0731
-14.1905 -89.2763 34.5075
-76.9279 -47.4735 -44.6708
-82.0935 -37.8456 44.2832
28.4851 -85.7918 37.9998
-37.7203 -82.1512 -10.8748
-70.7125 56.3149 -6.0154
-66.3800 -61.3623 19.1288
90.3969 0.2003 2.2157
90.3522 -2.8483 -37.9668
87.3993 -23.0868 30.2848
-82.6232 36.6747 2.6308
-89.8645 -9.7978 -32.7879
89.9435 9.0438 -30.4949
53.0639 -73.1837 -21.1805
-56.3472 -70.6868 -18.3836
23.5256 -87.2822 -7.6078
71.9161 54.7696 -8.4793
89.3306 13.8447 10.4594
-62.8150 65.0070 31.2409
-60.3435 67.3075 -6.3800
-81.6642 -38.7633 -19.5616
-1.9898 -90.3752 29.6600
79.9559 42.1745 -49.6205
81.8395 38.3917 -50.9312
66.2511 61.5014 28.5571
89.6387 11.6850 -17.8340
16.1350 -88.9455 32.9764
84.1578 33.0015 2.2376
-87.4745 -22.8002 45.2970
60.0976 -67.5271 34.9148
-57.6486 69.6295 44.7410
24.6188 -86.9802 -12.5908
88.4620 18.6040 23.5693
-45.9457 -77.8500 -7.0731
-38.9982 -81.5523 -22.9307
-90.1699 -6.4046 36.7543
-29.5414 85.4338 -19.4182
85.8691 28.2512 -48.5248
84.3727 32.4482 -10.3054
-22.7643 87.4838 17.7117
-6.4890 -90.1639 -17.1164
21.6069 87.7768 8.5935
-86.1075 27.5160 -27.0772
-70.4780 56.6081 27.4221
73.7587 -52.2618 6.6038
-54.9015 -71.8155 -2.1390
-6.1792 90.1856 17.6907
-48.2638 -76.4345 27.6122
-31.5724 -84.7043 47.4856
90.1290 -6.9569 -35.1198
6.0159 -90.1967 43.3040
-76.6546 -47.9135 -51.8224
7.9548 90.0464 38.9336
-5.5611 -90.2259 25.6288
-82.5430 36.8548 -17.2814
-45.4072 -78.1653 -11.4897
43.9372 79.0010 6.5870
90.3785 -1.8348 1.0641
-25.0790 -86.8486 -47.6953
-54.8952 -71.8203 -9.0101
-38.6990 -81.6947 52.6986
90.3602 -2.5812 -51.9488
-30.0848 -85.2440 9.3729
-28.9755 -85.6274 20.4757
80.0122 42.0676 -26.8547
-14.6509 -89.2019 26.4662
-40.9383 80.5958 -35.4342
46.8598 -77.3032 27.1905
65.4875 62.3138 20.2181
88.7613 17.1189 -51.1403
90.3736 2.0602 46.4318
89.8644 -9.7990 -3.1123
-83.6674 -34.2256 -4.0318
-27.9610 85.9640 -29.5767
51.8874 74.0225 51.3164
48.5713 -76.2395 28.0830
66.0507 -61.7166 -30.5034
-37.1838 82.3954 20.5700
5.2628 -90.2437 36.6795
-88.4488 -18.6665 -40.3727
-73.1957 -53.0473 22.1112
-56.5039 70.5617 51.3055
80.3866 -41.3477 17.4626
-89.5275 12.5085 -41.3864
-0.6858 -90.3945 -13.9880
-81.8818 -38.3015 -47.5196
-2.6696 -90.3577 -39.0705
83.9001 -33.6512 -28.6772
35.2757 83.2301 -5.7184
54.9307 -71.7931 -38.5705
46.5955 -77.4629 6.2255
62.6443 65.1715 29.3747
8.6503 -89.9822 -25.5851
-66.0548 61.7122 -46.1854
-89.9160 -9.3137 44.4404
-90.2768 4.6624 -40.6821
-90.3476 -2.9896 24.5451
-19.3827 -88.2946 -49.9912
71.4940 55.3195 45.2685
-30.8022 84.9874 -28.6241
-28.4898 -85.7902 -41.2936
-88.7364 -17.2479 -3.4582
84.7735 -31.3860 -11.1665
68.8457 -58.5824 43.4544
-70.5477 -56.5212 -37.8326
61.5123 -66.2410 -7.4383
47.7021 -76.7863 -22.0160
-49.6576 -75.5364 -36.3018
88.2301 -19.6743 -47.2876
-84.2403 32.7902 1.0626
90.3938 -0.7724 48.5850
-49.3532 75.7357 -37.9269
90.0580 -7.8220 15.0886
63.5481 64.2906 42.0667
2.2828 -90.3683 6.3157
7.9568 90.0462 -10.0143
41.9672 -80.0649 31.1723
75.0987 50.3172 19.2163
90.3778 1.8656 -4.8070
88.2870 19.4175 41.3515
75.3904 49.8791 -34.4673
-42.6309 -79.7135 39.8527
51.8323 -74.0611 35.3303
88.6456 17.7085 37.7042
63.6115 -64.2278 30.0307
-69.2509 -58.1029 -48.4454
-90.3970 -0.1431 36.2109
88.3813 18.9838 -45.3763
0.3248 -90.3965 -53.7437
-65.4316 62.3725 33.5920
51.2756 74.4476 0.3116
-22.9642 87.4316 8.2610
88.5575 18.1438 -45.7786
35.3492 83.1990 16.3917
64.2626 -63.5763 29.5218
74.6741 -50.9452 28.8818
-90.2348 -5.4136 44.0349
-41.5994 -80.2566 11.4578
89.9894 8.5754 -15.6195
11.3714 89.6790 -2.3413
64.1689 63.6709 0.7092
55.0024 -71.7382 8.8537
-82.5300 -36.8839 -51.4060
78.1543 -45.4262 2.8092
67.0949 -60.5798 -12.0572
24.5603 86.9967 -14.8876
-27.2025 86.2071 47.8696
-78.8583 44.1928 38.2895
-79.7028 42.6508 41.8949
-5.8337 90.2086 44.3276
28.6680 -50.6439 53.9332
53.6825 -38.3398 53.9332
5.0652 14.9729 53.9332
1.0849 8.9935 53.9332
-10.8264 68.9046 53.9332
-18.5321 -5.8935 53.9332
-6.3572 37.6809 53.9332
4.9630 39.3410 53.9332
-2.9041 21.0339 53.9332
-19.6631 11.7343 53.9332
27.8434 61.7637 53.9332
-50.8194 17.8887 53.9332
-42.4459 27.0447 53.9332
23.7752 -79.7235 53.9332
-67.0490 50.5269 53.9332
1.2894 -1.7919 53.9332
12.7746 1.3956 53.9332
32.3665 33.3814 53.9332
-30.1175 -67.0301 53.9332
33.9053 68.3814 53.9332
-60.4737 -24.6972 53.9332
2.3300 -8.2404 53.9332
-31.3310 -26.5324 53.9332
-19.7243 -61.9900 53.9332
63.3456 0.9010 53.9332
-43.0203 -10.2947 53.9332
-9.4394 1.4700 53.9332
1.5813 6.6486 53.9332
-9.0447 -4.6959 53.9332
29.0937 14.8127 53.9332
35.9828 -60.9236 53.9332
-4.1915 0.9081 53.9332
-11.4653 -16.5209 53.9332
-29.7790 -15.4690 53.9332
-0.0909 -0.8734 53.9332
38.2859 -77.2244 53.9332
5.9424 -13.8835 53.9332
-21.3309 -63.9753 53.9332
37.8063 -36.1543 53.9332
0.3566 -0.3291 53.9332
-63.3672 -38.3584 53.9332
-22.6514 66.9419 53.9332
-0.1222 -0.2111 53.9332
-22.4864 -85.9964 53.9332
57.1817 33.0014 53.9332
-3.4262 -39.7282 53.9332
-14.6029 -40.4734 53.9332
31.6560 54.1063 53.9332
-11.0742 2.4255 53.9332
-45.0906 -39.2758 53.9332
17.4297 -20.6244 53.9332
69.6761 54.6076 53.9332
-7.1386 -57.9732 53.9332
-4.9959 -19.6445 53.9332
-16.4299 46.7352 53.9332
-14.5307 -10.1197 53.9332
-20.1446 -11.3118 53.9332
28.9990 -36.8944 53.9332
-25.8935 -60.5038 53.9332
65.1889 0.2827 53.9332
-59.8667 12.3067 53.9332
-24.8016 21.0399 53.9332
21.5404 56.1476 53.9332
-78.8761 8.7120 53.9332
28.3227 19.0780 53.9332
6.3765 -11.6699 53.9332
-14.7604 -13.0530 53.9332
-69.2122 28.7908 53.9332
-36.3288 35.9026 53.9332
-26.2468 -9.5132 53.9332
-21.5271 7.0171 53.9332
30.3938 -16.6224 53.9332
-13.5636 -53.9412 53.9332
67.5827 1.3418 53.9332
-14.6240 -9.1445 53.9332
-2.1784 -2.0274 53.9332
19.2000 -17.8974 53.9332
-5.2853 6.0849 53.9332
48.3356 38.0112 53.9332
53.1222 -52.1693 53.9332
-41.1697 -7.4371 53.9332
15.8529 64.0716 53.9332
8.6075 -2.9475 53.9332
21.4299 71.0692 53.9332
17.4023 9.8930 53.9332
-58.9608 37.5432 53.9332
-18.1957 51.8750 53.9332
0.0743 1.2038 53.9332
7.5545 -22.4167 53.9332
21.5734 38.9157 53.9332
8.1505 16.9635 53.9332
-31.0840 -68.4429 53.9332
-28.8978 8.5688 53.9332
31.2011 -5.2694 53.9332
34.8326 2.7858 53.9332
-9.2175 -62.4382 53.9332
-58.8851 -33.4071 53.9332
-25.6195 26.2041 53.9332
41.6506 6.5863 53.9332
25.3146 -80.7453 53.9332
-62.8125 -37.0232 53.9332
-21.2245 -30.3982 53.9332
9.6982 -53.0301 53.9332
-75.1044 -35.0965 53.9332
34.5809 -42.4112 53.9332
-1.6521 -4.6071 53.9332
51.1424 -65.8862 53.9332
10.1205 10.7781 53.9332
45.4255 71.1513 53.9332
-29.5217 -77.3045 53.9332
-3.9684 55.8000 53.9332
-32.1692 -4.3190 53.9332
52.2744 -57.3174 53.9332
-8.5259 60.4287 53.9332
31.7150 49.0554 53.9332
-45.1188 49.2935 53.9332
-8.9225 49.3971 53.9332
21.6709 -65.1315 53.9332
16.8043 -10.9289 53.9332
0.2254 -0.2518 53.9332
10.9623 -59.2908 53.9332
1.4135 27.9220 53.9332
-18.5083 10.5931 53.9332
-31.3698 -57.1601 53.9332
6.7318 -16.1930 53.9332
-56.3786 48.9413 53.9332
68.6536 47.8498 53.9332
-1.6372 -1.7007 53.9332
-33.7965 76.6244 53.9332
0.1607 1.2934 53.9332
-6.8995 -21.0757 53.9332
-34.4394 -59.7171 53.9332
51.8216 9.4881 53.9332
-17.2553 0.9462 53.9332
-78.3808 24.4439 53.9332
0.0423 16.5535 53.9332
-68.1814 50.9773 53.9332
-48.8197 -12.5728 53.9332
-71.0843 -37.1368 53.9332
-28.6473 -33.8426 53.9332
70.2297 29.0786 53.9332
3.3691 32.9119 53.9332
7.3983 -50.5731 53.9332
42.2545 -9.8553 53.9332
20.2607 -26.3782 53.9332
37.1800 62.1030 53.9332
-3.2161 27.9860 53.9332
38.3012 -36.3493 53.9332
-4.3019 -10.4658 53.9332
6.3759 -41.5392 53.9332
15.6362 -44.1538 53.9332
-12.8048 -27.0295 53.9332
14.7509 -49.5972 53.9332
10.7283 -27.7418 53.9332
9.7908 9.4240 -53.9332
23.2099 -41.9550 -53.9332
18.1263 -63.2668 -53.9332
43.8458 -14.9472 -53.9332
-89.7612 2.9353 -53.9332
57.4208 51.2441 -53.9332
-16.7765 5.3019 -53.9332
10.3625 19.4453 -53.9332
1.2744 -4.6103 -53.9332
-8.3212 -9.0236 -53.9332
9.9304 24.8622 -53.9332
-38.7100 -7.6008 -53.9332
-1.5379 -15.3206 -53.9332
27.6958 -38.7129 -53.9332
34.2383 52.2962 -53.9332
16.4965 20.1723 -53.9332
12.7051 39.3150 -53.9332
26.3859 -49.5245 -53.9332
-6.7558 -3.8985 -53.9332
-5.9599 38.3405 -53.9332
28.4924 61.1740 -53.9332
-48.5597 -8.5442 -53.9332
24.9215 33.7549 -53.9332
-15.4020 4.3654 -53.9332
-21.1250 1.9434 -53.9332
-0.6708 -33.1060 -53.9332
41.9715 -49.1904 -53.9332
-2.6779 1.2122 -53.9332
25.5927 -6.7104 -53.9332
79.1025 -36.8587 -53.9332
56.9297 -25.7486 -53.9332
-9.4610 12.9129 -53.9332
-6.0311 -2.1263 -53.9332
-4.7905 1.9317 -53.9332
-60.1139 -27.7707 -53.9332
-65.4272 -21.1079 -53.9332
-13.8064 -4.2788 -53.9332
-23.2930 -56.5114 -53.9332
-12.1073 -31.1608 -53.9332
62.0837 -13.8475 -53.9332
41.2951 17.8719 -53.9332
4.3239 -25.1321 -53.9332
-74.8036 39.4789 -53.9332
-39.8394 -24.8657 -53.9332
-7.2612 33.3836 -53.9332
-47.9572 5.5889 -53.9332
-44.1750 -18.6813 -53.9332
-71.4202 50.5483 -53.9332
8.9889 -9.8158 -53.9332
18.5338 1.7311 -53.9332
12.3176 -13.9397 -53.9332
10.5632 -24.5504 -53.9332
4.6455 -6.8990 -53.9332
0.6110 -43.7399 -53.9332
-51.2569 -37.0810 -53.9332
58.9438 27.8062 -53.9332
16.1505 -57.3317 -53.9332
-72.3506 44.7302 -53.9332
3.9303 6.8266 -53.9332
64.3058 8.6451 -53.9332
53.4183 68.0004 -53.9332
-25.4259 25.8426 -53.9332
1.6343 -27.3320 -53.9332
37.9162 -52.7016 -53.9332
40.3565 14.0158 -53.9332
10.5150 41.5918 -53.9332
8.9558 -12.7996 -53.9332
6.7341 2.3940 -53.9332
-16.8479 52.4400 -53.9332
-4.7406 7.8980 -53.9332
-22.4817 -13.8254 -53.9332
-31.1550 81.5161 -53.9332
15.8641 -19.7618 -53.9332
-57.9185 9.8441 -53.9332
2.7287 -7.0706 -53.9332
0.5137 1.2843 -53.9332
-8.8982 -23.8717 -53.9332
-45.6830 32.4103 -53.9332
-29.2250 -35.4265 -53.9332
50.9474 42.0544 -53.9332
2.8370 29.1275 -53.9332
-36.7370 4.9125 -53.9332
-29.2431 -74.2367 -53.9332
-60.4025 31.2696 -53.9332
-59.2651 -18.8072 -53.9332
38.8543 -64.9830 -53.9332
-83.4177 30.8660 -53.9332
75.8511 10.6900 -53.9332
-6.2017 22.2531 -53.9332
-3.7418 7.0893 -53.9332
-17.2050 -81.6757 -53.9332
36.5719 -6.6255 -53.9332
-31.5444 -23.9345 -53.9332
-2.0873 -0.9298 -53.9332
-41.9440 -16.0826 -53.9332
-32.0139 5.7452 -53.9332
-12.2569 6.2782 -53.9332
-65.1225 -40.1221 -53.9332
-9.3036 -33.3300 -53.9332
10.4376 -88.5222 -53.9332
51.8254 64.6481 -53.9332
3.1453 -33.2774 -53.9332
-16.1765 30.4451 -53.9332
47.9668 42.2665 -53.9332
14.5350 50.7518 -53.9332
-52.1321 -42.7089 -53.9332
-22.6738 30.6740 -53.9332
48.3948 -14.9484 -53.9332
-44.6059 -48.2852 -53.9332
59.4840 -24.4150 -53.9332
-54.3432 54.9502 -53.9332
14.7976 -0.2211 -53.9332
1.1319 78.9930 -53.9332
24.3770 -26.4562 -53.9332
-17.3354 15.0900 -53.9332
-16.4045 81.7216 -53.9332
-7.7366 -77.7358 -53.9332
-51.8788 15.3741 -53.9332
-74.0416 -25.2997 -53.9332
-21.1925 73.5602 -53.9332
57.6034 23.5860 -53.9332
38.4692 43.5491 -53.9332
-61.4834 -6.8967 -53.9332
48.5028 59.0050 -53.9332
15.3351 4.9226 -53.9332
67.7193 -19.0836 -53.9332
-1.7062 -78.1434 -53.9332
63.2747 -48.3822 -53.9332
16.9623 -58.2190 -53.9332
-10.3151 2.5423 -53.9332
32.0751 -69.1435 -53.9332
61.8736 47.2115 -53.9332
-1.0109 -6.8676 -53.9332
0.0679 -7.0064 -53.9332
13.1392 19.1696 -53.9332
-22.4968 -17.8127 -53.9332
40.9483 -48.3532 -53.9332
51.3234 63.5243 -53.9332
20.2395 43.3454 -53.9332
-1.6308 -72.1743 -53.9332
-0.9233 -27.6931 -53.9332
-7.8120 -13.0986 -53.9332
-33.5710 -44.9971 -53.9332
-11.4881 6.7638 -53.9332
2.3209 2.4944 -53.9332
-2.8619 -62.0531 -53.9332
-25.8351 -13.3965 -53.9332
-45.5571 61.9456 -53.9332
70.6829 -50.0906 -53.9332
68.5376 -25.7251 -53.9332
38.0631 -42.7697 -53.9332
25.8001 77.4154 -53.9332
-21.8169 -21.6284 -53.9332
-18.7839 -14.3804 -53.9332
