ply
format ascii 1.0
element vertex 1024
property float x
property float y
property float z
end_header
4.6301 -84.7630 79.0382
84.0913 -11.6134 21.4231
70.5381 47.2290 68.7763
-78.5484 32.1925 26.4781
-41.8784 73.8404 -57.4112
-84.3230 -9.7899 -34.8363
2.9548 84.8380 18.3284
-83.4336 -15.6539 -17.5066
-40.8357 74.4222 31.1875
42.3629 73.5636 6.8139
-5.7826 -84.6922 -74.4219
23.1636 81.6680 -39.1672
-73.8052 41.9405 3.4764
-10.2972 84.2626 -41.4943
-27.5657 -80.2891 20.6056
-20.1040 -82.4745 62.3674
-84.6030 -6.9670 53.4396
-38.6588 -75.5759 74.9088
-55.6688 64.0874 -78.8176
-83.1917 16.8925 82.2900
-48.1977 -69.8798 -43.1204
-70.7080 46.9744 -16.3361
24.6473 81.2325 67.3941
-63.6439 56.1753 -14.1475
74.6973 -40.3303 -60.9211
-1.2039 84.8809 -57.5971
76.1587 -37.4974 -23.5047
12.2405 84.0023 3.8414
-40.9684 74.3492 53.6102
63.1190 -56.7645 36.5734
72.2962 44.4912 18.4961
80.7699 -26.1235 9.0912
14.2954 -83.6771 -11.3616
51.3044 -67.6319 61.4913
-34.2190 77.6870 29.8798
-49.6656 -68.8443 -58.5165
81.3307 24.3214 83.1280
-84.8879 0.5041 24.9138
-33.3946 -78.0449 82.5084
-0.2461 84.8890 -15.1696
-84.5387 7.7084 52.7651
-84.2496 -10.4031 73.0057
8.3274 84.4800 65.7899
-25.0248 -81.1170 -22.5853
-74.5061 40.6823 -25.0321
64.1076 -55.6455 -64.1498
-14.6481 -83.6161 16.7988
83.3086 16.3063 56.9546
-57.9415 -62.0402 20.2138
-65.2810 -54.2642 77.3615
-6.9683 84.6029 71.5508
-67.7629 -51.1313 46.5510
-81.9719 -22.0640 -41.8039
75.7386 -38.3389 -9.1747
53.6764 65.7651 79.8412
-72.5206 -44.1245 -67.4216
35.0322 -77.3237 -0.2818
73.7885 -41.9699 -11.2459
17.5644 -83.0524 -36.0995
63.0578 56.8325 -4.4455
84.0415 -11.9679 -5.6037
25.7019 80.9050 47.2607
-81.9328 -22.2087 -75.6827
53.1938 -66.1561 31.8681
34.7132 -77.4674 83.1100
10.6879 84.2139 -34.3835
-51.8198 67.2378 -65.4499
81.4677 23.8583 -51.3999
65.1558 -54.4144 -19.7059
2.4889 84.8529 43.5188
-79.3146 30.2558 -2.8210
-84.8814 -1.1626 69.6244
-14.2391 -83.6867 45.8746
-19.7172 -82.5678 -21.5137
-28.4923 -79.9650 -55.5003
84.8626 2.1328 0.7719
-33.8157 77.8634 25.9625
-38.5131 75.6502 55.1904
-36.6527 76.5689 -57.7568
-14.4682 83.6474 9.3538
-82.2302 -21.0808 53.9781
57.2797 62.6518 -81.0139
-21.7874 82.0459 -37.0677
64.0852 55.6714 -60.8149
39.6935 75.0376 77.1827
-46.2797 71.1646 -6.9800
8.0411 84.5077 -71.3746
-28.2083 -80.0656 7.3480
-75.1567 39.4674 -42.0161
-66.3684 -52.9287 -68.2279
-79.3735 30.1008 71.7339
-40.3720 74.6747 -72.9542
21.0142 82.2473 -16.8427
-79.6928 29.2449 -24.5720
-83.6710 14.3311 -34.9991
67.2480 51.8065 -27.1921
-4.6000 -84.7647 24.5540
84.2369 10.5053 -6.8460
10.2714 -84.2657 -17.2212
-84.8726 -1.6912 55.4361
-82.4008 -20.4037 -11.3985
27.5333 -80.3002 -58.1724
80.3439 -27.4057 -63.0380
-61.3361 -58.6864 -53.0599
-4.3230 -84.7793 -16.7952
-28.1486 80.0866 43.6320
44.4423 -72.3263 26.9725
3.1985 -84.8291 9.8688
-32.5008 78.4214 -16.1966
-19.9765 -82.5055 -7.4710
68.4635 -50.1893 -34.1934
73.5991 42.3010 76.9599
78.4118 32.5238 49.2259
84.5245 -7.8621 -55.3848
9.6619 -84.3378 -23.8659
71.5033 -45.7546 3.7979
-64.8693 -54.7557 42.9989
37.5436 76.1360 -17.0328
81.6105 -23.3653 -61.4197
43.0067 73.1890 -41.2270
-13.3234 83.8373 -76.7514
-77.0625 -35.6031 26.2858
75.6662 -38.4817 42.4929
-45.9357 -71.3871 -37.5676
-0.3041 84.8889 -21.4837
83.8937 -12.9640 17.8514
-40.0059 -74.8715 34.9027
-41.8358 -73.8646 -51.8539
84.6018 -6.9823 77.6748
-75.5348 -38.7389 58.5306
-62.6560 57.2751 30.0305
-80.3083 27.5096 70.6410
83.6543 14.4278 42.1172
75.0012 39.7622 77.2389
12.2899 -83.9951 -66.1682
-27.9314 80.1626 -31.2022
44.9954 71.9835 68.6209
19.8001 -82.5480 32.4980
-20.9325 82.2681 -62.5236
-6.4302 -84.6455 -42.7453
80.5775 26.7109 19.1575
39.8264 -74.9671 16.5786
-61.8933 -58.0984 -33.0316
-78.9344 -31.2342 70.0201
-80.9881 -25.4389 -74.0901
-43.2356 -73.0540 -42.4355
21.5459 -82.1096 -38.7797
24.7908 -81.1888 -27.8743
-10.6395 -84.2200 -71.4009
-25.7224 80.8985 -3.2939
72.1677 44.6994 -44.2357
-79.1705 30.6307 -11.8675
68.6464 49.9388 -20.6244
61.0149 59.0202 64.8220
-74.6817 40.3591 -57.1924
-47.7762 70.1687 -55.0474
-50.6745 -68.1051 11.4276
-8.7281 84.4395 60.1704
81.8328 22.5743 57.6343
-69.2369 49.1169 -78.1438
-84.0365 -12.0031 21.3181
6.4433 -84.6445 -5.1860
70.6154 47.1134 -38.7637
15.1050 -83.5347 47.6839
16.0396 83.3603 -32.5952
-43.9548 -72.6236 -49.2424
84.8369 -2.9846 26.4992
70.2144 47.7090 5.5122
-63.3810 56.4718 46.8141
31.2534 -78.9268 77.6452
63.8516 -55.9391 -45.6694
20.3246 -82.4204 81.9514
-75.1503 -39.4796 76.2732
84.8647 2.0457 -64.4006
35.9694 -76.8922 -31.2930
69.0688 49.3530 9.9227
-77.1171 35.4848 -73.9558
50.5070 68.2294 -7.9191
-1.9443 -84.8671 -51.4041
63.6274 56.1940 -76.8483
-72.7482 -43.7483 6.9424
43.2152 -73.0661 -79.9160
4.3093 84.7800 -23.1950
41.1403 -74.2542 40.3338
69.5846 48.6230 -67.3783
-75.9889 37.8405 -49.4730
74.3470 40.9724 -63.2148
71.3099 46.0555 14.9717
-69.3987 -48.8880 -11.7580
42.6018 -73.4255 -9.1685
-17.7371 83.0157 -17.2961
-17.7480 -83.0134 0.5898
-69.1706 49.2102 -16.1259
-0.7374 -84.8862 -46.2970
84.0891 -11.6291 -63.1986
-12.0295 -84.0327 -50.2401
-84.8063 3.7555 -41.7189
-82.1458 -21.4073 -35.3569
-21.4537 -82.1337 58.7139
-46.7139 -70.8803 -21.5039
67.5807 51.3718 10.1562
84.5796 -7.2456 81.2060
51.8997 -67.1762 16.2282
34.2498 77.6734 78.0994
-84.6454 6.4311 -19.0319
-62.5353 57.4068 -32.7571
-36.0797 76.8405 39.5004
-82.6469 19.3831 -27.3936
-1.9307 84.8674 70.8803
-35.4946 -77.1126 26.6775
-71.3690 -45.9639 63.4754
-68.8528 49.6538 64.2993
79.4955 29.7771 12.1199
-83.8658 13.1432 28.7360
-46.9266 -70.7397 27.4844
66.4840 -52.7833 17.7894
19.5441 -82.6090 -20.8574
33.5117 77.9947 -13.5927
-81.4397 -23.9539 -6.5378
-6.0397 84.6743 -80.5355
-26.0027 80.8089 81.2564
78.2198 -32.9830 51.0130
28.2338 80.0566 -57.5876
-53.8945 -65.5866 -78.4795
-20.6752 -82.3331 82.2479
48.4360 -69.7149 -20.4394
16.3594 -83.2981 79.7168
81.1446 24.9353 40.9036
-81.8655 -22.4555 -52.4980
56.8775 -63.0171 -14.5963
-83.9062 12.8827 69.1643
-41.3750 74.1237 57.6083
25.6816 80.9115 -22.2371
46.1724 71.2343 73.6257
-22.7627 81.7806 44.2514
62.1234 57.8523 -82.1894
-69.4837 -48.7671 -61.1227
83.6794 14.2820 15.1538
-82.6407 19.4093 -75.6597
49.0640 69.2744 34.9531
-58.4513 -61.5602 81.3135
-21.0164 82.2467 3.6485
-35.5879 -77.0695 59.9743
-66.7717 -52.4190 9.7704
41.2606 74.1874 -28.2988
-80.2689 -27.6245 -8.3308
84.1224 -11.3855 74.0299
-60.7153 59.3284 -77.8485
13.4379 83.8190 52.4930
84.0387 -11.9878 -10.1769
58.0041 -61.9818 27.4816
-30.4079 79.2564 -18.4444
78.5632 -32.1564 81.8735
67.6639 51.2622 34.8151
-72.6876 43.8489 80.1563
-58.0054 -61.9805 -71.8232
12.4514 -83.9713 -39.3531
-64.4391 55.2613 -28.0017
-81.6870 23.0964 15.9128
-28.7461 -79.8741 59.2789
-62.7014 57.2254 -32.4601
3.7233 84.8077 -40.2656
-73.9369 41.7079 35.8382
75.3278 -39.1400 -18.3928
-21.5270 82.1145 36.3628
-70.4999 47.2861 -64.0636
84.7591 4.7021 32.1464
-17.1043 -83.1484 79.5936
47.5833 -70.2997 59.5389
-81.2131 24.7111 61.8900
26.1205 -80.7708 -37.4478
6.4194 -84.6463 17.2278
84.6397 6.5062 64.7156
-17.0729 83.1548 74.6782
84.7758 -4.3893 -4.3733
16.6756 -83.2354 77.9231
-79.7675 29.0405 -25.1914
-27.5012 80.3112 40.3476
-84.0807 11.6894 -34.6709
61.7518 58.2488 64.8336
-19.9737 -82.5061 -35.6323
81.8169 22.6318 -61.5198
-21.4273 82.1406 78.1275
-11.2306 84.1432 38.0732
-84.5912 7.1087 -45.5556
71.4971 45.7643 23.4856
-33.7061 -77.9109 -29.6528
-14.1757 -83.6974 -7.8330
-80.9017 25.7123 -47.5265
77.6155 -34.3808 3.1751
83.9868 -12.3463 1.6338
-21.9156 -82.0117 -41.8962
-25.7387 -80.8933 26.0718
82.5044 -19.9810 -56.0159
-84.6642 6.1795 -65.4294
-48.3684 -69.7618 80.2735
-34.7997 77.4286 43.8111
-70.6190 -47.1080 11.5708
-84.8893 0.1553 81.1213
-55.1837 -64.5056 -47.2270
68.2517 50.4769 2.1209
51.6430 67.3737 46.0145
16.7923 83.2120 7.3240
80.1285 -28.0293 27.4072
5.1928 84.7304 42.7807
-84.7204 -5.3543 5.3541
-13.9132 83.7415 -16.6637
84.1873 -10.8956 -67.5441
-78.8582 -31.4260 -9.2195
35.1977 -77.2485 72.0627
-80.5592 -26.7661 -46.7805
-68.6459 -49.9394 33.3569
-63.2757 -56.5898 46.2389
56.7364 -63.1442 24.2805
-0.4774 -84.8881 74.3075
29.3058 -79.6704 -79.5282
34.9147 -77.3768 43.0855
-4.5525 -84.7672 -68.3309
-84.8796 -1.2891 63.5981
82.1816 21.2695 -45.7626
-57.9594 -62.0235 30.3379
-5.5292 -84.7091 -43.3635
50.4070 -68.3034 39.0192
52.2346 66.9160 -58.7896
-54.6373 -64.9690 1.9532
53.6225 -65.8091 49.7436
-74.1386 -41.3483 -29.6911
-20.8361 82.2926 53.4875
-48.4280 -69.7205 -68.5191
-25.0321 -81.1148 -30.6174
59.0252 61.0102 -24.4102
64.9523 54.6572 54.2515
-0.1816 -84.8892 47.4167
-54.2755 65.2716 -72.1354
16.9241 83.1853 -71.8216
-78.8088 -31.5496 9.8657
48.4518 -69.7039 31.6172
-58.5807 61.4371 -69.2465
-78.7204 -31.7697 48.8089
80.5500 -26.7939 -26.9812
-77.2887 -35.1095 12.8516
-38.9688 75.4165 -57.4099
-61.4042 58.6152 24.0223
-56.3648 -63.4762 -77.1081
81.4714 23.8457 78.5370
-83.0768 -17.4485 -54.9645
61.2876 58.7370 15.1384
25.8150 80.8690 -6.1705
-80.5529 26.7851 36.8221
26.4340 -80.6688 77.8292
84.1359 11.2855 -5.5560
83.3878 15.8962 24.5691
61.0148 59.0204 6.3050
64.7802 54.8610 26.2104
-36.5268 -76.6290 -65.9895
80.5445 -26.8102 48.9099
69.6228 -48.5683 55.0902
70.8024 -46.8319 26.7251
-81.2973 24.4327 -18.8079
-40.6538 74.5217 17.9103
-7.9690 -84.5145 -82.8841
55.0299 -64.6368 -32.1226
18.8297 82.7747 -17.0234
-8.4608 -84.4667 31.9676
-63.5960 -56.2295 28.7036
29.8708 -79.4603 -36.8421
-79.9017 28.6694 47.3712
84.1177 11.4201 -54.2213
-38.5994 -75.6062 -77.0578
-34.7513 77.4504 -82.7916
-73.9206 41.7368 13.0342
38.0579 -75.8802 -67.6683
-75.6720 38.4702 -11.0160
-77.9099 -33.7085 -0.1037
-9.3378 84.3743 12.2293
-10.7256 84.2091 36.3913
20.4844 -82.3808 -82.5694
-29.7004 -79.5242 36.6085
-39.4896 75.1451 -79.4634
-26.1420 -80.7639 46.5593
-9.9584 -84.3033 -17.9718
-5.4874 84.7119 82.3884
-84.8402 -2.8911 -71.8219
72.8464 43.5845 38.2609
-70.5373 47.2302 26.9098
-55.1528 64.5320 5.3226
81.9462 22.1592 61.1588
-45.8364 71.4509 -30.1339
42.8197 73.2986 -57.0754
-20.0292 -82.4927 48.4896
67.1821 -51.8920 -15.1660
-21.1376 -82.2156 25.3804
-82.6283 -19.4620 -26.9602
-74.9359 39.8852 4.9846
66.2769 -53.0433 -8.0758
-34.1795 -77.7044 39.5917
-11.5307 -84.1026 -28.8785
67.5490 51.4135 75.2416
81.4286 23.9916 -78.6052
75.7437 38.3288 70.2763
69.4604 48.8003 30.9546
16.8191 83.2066 -63.0361
-84.1517 11.1668 21.0093
-48.5559 69.6315 31.8720
-66.6265 52.6034 -31.8951
30.8585 79.0820 78.7509
-54.1671 65.3616 81.1192
83.7654 -13.7682 -31.5236
78.0541 33.3732 16.8531
-46.7341 70.8670 -22.0784
-41.0553 74.3013 -22.9657
-63.0178 -56.8768 45.1851
-79.5880 29.5290 -39.2071
-10.7765 -84.2026 -73.8659
25.0568 -81.1071 -42.4813
36.4984 76.6425 69.6837
40.0048 74.8720 49.8018
56.5942 63.2717 1.7519
13.4387 83.8189 18.7428
-45.9277 -71.3923 41.0698
-71.9861 -44.9913 8.5575
84.7785 -4.3386 51.5473
-64.4198 55.2838 -49.9618
79.0718 -30.8847 76.6888
64.5167 -55.1707 40.6414
-70.3827 -47.4603 -22.3981
-45.8236 71.4591 -35.0715
80.8716 -25.8069 -42.2085
-68.8323 -49.6823 74.6886
-34.7802 77.4374 -73.2778
-84.1829 -10.9292 68.7845
-5.5635 84.7069 6.0752
-80.7777 26.0993 61.4580
78.9536 -31.1856 5.6658
84.6863 5.8691 -47.7071
79.0310 30.9888 36.5040
27.3064 80.3777 79.6163
-49.7887 -68.7554 -2.3335
-84.7560 -4.7573 23.2971
8.9142 84.4201 -44.7941
54.6728 -64.9392 -12.6707
84.8172 3.5011 -70.1853
-52.1265 67.0003 -37.2630
-82.9493 -18.0452 -33.5115
-78.7195 -31.7719 -55.4342
29.2872 -79.6773 -29.0237
-30.2759 79.3069 69.5344
-67.9749 50.8491 -24.6125
-63.3982 56.4524 -77.3659
26.8306 -80.5378 23.0831
-76.4842 -36.8290 47.2852
-79.9457 -28.5463 -40.3099
68.3673 -50.3202 -11.1890
-24.5982 81.2474 -5.2244
67.0649 52.0433 -62.0592
73.0318 -43.2731 -18.7262
7.2034 84.5832 30.9962
64.2657 55.4629 6.2854
-76.9722 35.7979 -76.3493
62.9919 56.9054 56.0240
84.6638 6.1854 -56.3662
-84.6011 6.9904 -76.7929
-47.6177 70.2764 -10.5593
-34.2138 77.6893 27.7263
62.2485 -57.7177 -73.3151
0.3077 84.8888 -63.9770
25.8265 80.8653 18.5732
84.4554 -8.5728 19.9552
-77.9692 33.5711 72.7472
7.0742 -84.5941 -4.2382
-71.0533 46.4504 -80.9618
27.2904 -80.3831 -54.4100
-52.8615 -66.4219 69.5920
-25.2304 81.0533 77.9481
84.7084 -5.5412 14.2940
71.9670 45.0218 4.8057
9.1006 84.4002 75.9572
-68.1670 -50.5912 19.4488
40.4263 -74.6453 -28.8382
1.8545 -84.8691 -73.9901
-81.6192 -23.3350 75.7305
-81.0522 25.2339 -54.1805
68.6447 -49.9411 73.9366
-84.8857 0.7920 -41.7947
68.1391 50.6288 -30.2113
-68.3850 -50.2961 -12.7267
-34.0947 -77.7416 46.4481
-75.4122 38.9771 3.3307
-82.8675 -18.4170 59.2153
55.4700 64.2596 80.5132
82.4993 20.0017 -25.2047
-39.7525 75.0064 -58.0412
48.7732 69.4794 57.5411
73.3606 42.7134 48.0179
70.1062 -47.8679 -81.2048
6.8472 -84.6128 -9.0859
-25.0109 81.1213 61.3472
20.8303 82.2940 31.1739
59.1826 60.8574 -22.9813
82.0167 21.8970 5.8824
-83.6003 -14.7378 22.8915
-71.5849 -45.6268 -55.1188
-84.8790 1.3275 54.9383
43.4225 -72.9431 -37.6142
76.4548 36.8900 44.8871
73.6725 -42.1731 72.6300
1.0655 -84.8827 -20.5667
38.8789 75.4628 70.7956
64.9563 -54.6525 10.7504
24.0325 -81.4165 14.0481
84.8113 -3.6415 28.3272
-84.7172 -5.4050 -44.9812
-15.3126 83.4969 -27.6171
-8.2896 84.4837 -13.1551
36.9079 -76.4462 -49.5111
57.8060 62.1665 25.4597
-39.4154 -75.1840 59.1357
-54.3389 -65.2188 -51.3630
66.1739 -53.1717 62.0058
82.5267 19.8887 -5.0248
-83.1674 -17.0117 -30.2812
60.0939 -59.9578 46.7637
-30.3437 -79.2810 -65.6971
-33.4177 78.0350 -40.2461
47.5521 70.3207 29.7547
-16.9868 -83.1725 1.0526
84.7433 -4.9783 -6.8111
84.7417 5.0049 20.8249
-82.0592 -21.7370 -3.1556
65.9775 -53.4152 -48.1110
-25.7887 -80.8774 -31.2388
-44.6679 -72.1872 59.3588
71.6686 45.4953 -12.8707
73.5556 -42.3768 -15.8895
-80.7825 26.0843 79.7843
-73.5112 -42.4537 -31.4512
-76.9014 35.9498 62.8889
-33.0361 78.1974 -61.5204
53.4752 -65.9288 21.1548
-3.3816 -84.8220 -25.8566
74.2614 -41.1274 -18.8552
62.5225 57.4208 13.8180
-5.7565 84.6940 -59.0196
-17.6682 83.0304 -7.6250
-30.5196 79.2134 76.4255
81.7018 -23.0439 -4.7382
-26.3461 -80.6975 17.6325
-1.0398 -84.8830 20.2095
82.8751 -18.3830 -55.5826
29.7332 -79.5119 10.5749
15.2704 -83.5046 4.9030
-63.6580 56.1593 -8.4624
-30.4125 -79.2546 52.7200
-8.0663 -84.5053 -11.0679
-22.3329 81.8990 30.9197
-59.8573 60.1940 -66.3972
-79.7856 -28.9910 -30.1670
0.7369 -84.8862 36.6763
-10.5922 84.2260 8.0469
44.6637 -72.1898 -43.0779
54.1462 -65.3789 63.8253
-59.6363 60.4129 26.6750
-76.3960 37.0116 -33.5733
82.4078 20.3756 -62.1230
-1.7086 84.8722 17.5224
49.2913 69.1128 39.5232
30.6441 79.1653 -76.3257
-5.5319 84.7090 -10.6498
39.6897 75.0396 79.0082
-20.3008 82.4263 -16.7066
-19.5179 82.6151 12.6558
79.6590 29.3369 56.6110
-62.5627 -57.3770 62.3059
-28.8156 -79.8491 73.4731
-55.6513 64.1026 59.8098
75.8405 -38.1370 27.8055
-70.1349 47.8258 62.2499
1.5866 -84.8746 -68.3667
76.6801 -36.4194 24.0387
74.5782 40.5500 -38.9998
-59.1023 -60.9354 82.3805
29.2715 79.6831 62.3297
63.4823 56.3578 -9.3078
-21.4314 -82.1396 21.2999
-78.1096 33.2431 -17.6414
36.3970 76.6907 -79.0593
78.9852 -31.1054 67.6521
76.4179 36.9664 -17.1136
83.6036 14.7191 -35.0559
-0.5066 84.8879 71.6096
23.9745 -81.4336 79.5681
36.3795 76.6991 49.9094
-16.3280 -83.3043 46.3811
74.2017 41.2349 -10.5260
-16.9521 -83.1795 -23.1251
-74.2512 41.1457 -77.2113
79.2675 -30.3788 -44.2801
14.2663 -83.6820 -23.8018
-81.6836 23.1086 -54.2429
37.2444 -76.2828 -27.7968
-70.9207 46.6526 -53.2841
-79.7415 29.1119 26.2405
82.6489 19.3743 40.6876
-62.9728 -56.9266 -6.6056
70.2422 47.6680 -32.3091
34.0631 -77.7555 -17.3631
-64.4711 55.2240 -13.8585
60.9312 59.1067 -16.9526
-60.3141 -59.7363 -25.8114
-37.6425 76.0872 -6.7059
-7.9245 -84.5187 -78.5266
84.8889 0.3018 47.2318
75.9958 -37.8266 -50.1197
30.3576 -79.2756 -6.2748
52.7807 -66.4862 8.1100
69.1611 49.2235 15.2671
-50.4518 -68.2702 46.2373
38.0355 75.8914 52.1761
18.5140 -82.8459 -58.2282
83.7287 -13.9896 -46.5429
25.6082 -80.9347 -3.3086
-83.3512 16.0867 -8.4281
51.1792 -67.7267 71.7606
68.7137 -49.8461 53.8079
-75.8946 38.0293 -43.8170
-54.9024 64.7451 78.9011
-76.3763 37.0523 8.1656
-78.4168 -32.5117 44.4370
-49.6030 -68.8894 80.5542
49.7525 68.7815 -70.1536
67.2199 51.8430 -44.1925
4.1719 -84.7868 -72.2738
14.5226 83.6379 -52.5434
-18.4311 82.8644 -48.0468
-28.4558 79.9780 -69.7299
55.6333 64.1182 -15.3552
71.7019 45.4429 21.4474
-30.2322 79.3235 47.9010
-82.4166 20.3401 -62.6688
61.5138 58.5001 9.6739
36.4935 76.6449 -21.2351
55.9687 -63.8256 39.2579
-46.3929 -71.0908 78.0102
57.5595 62.3948 -38.6390
-81.9456 22.1613 -10.4121
26.8130 -80.5436 37.5540
73.1407 -43.0888 60.4453
-47.7007 -70.2200 29.7374
15.2343 83.5112 48.5611
79.4855 -29.8038 -1.8707
-83.6190 14.6311 -46.3935
40.9614 -74.3530 45.4196
-70.4847 47.3088 67.8453
-38.3698 75.7230 -10.7818
47.1842 70.5681 -39.8107
-66.8133 52.3660 -2.9677
84.6219 -6.7344 22.4873
-84.6340 6.5794 -10.1350
-30.6559 -79.1607 10.9410
36.0631 76.8483 -33.1928
-49.1868 69.1872 7.4195
84.8870 0.6439 40.7793
-4.5366 -84.7681 13.2781
-46.2262 71.1994 -61.5875
19.9079 -82.5220 -25.6807
-44.7392 72.1430 60.5080
79.1657 30.6432 -5.6489
-83.9523 -12.5784 17.7367
29.4005 -79.6355 -67.4726
-81.9203 -22.2549 61.0760
-73.8109 -41.9305 70.2866
-38.4966 -75.6586 54.3145
64.3298 55.3885 -36.6338
-84.6190 -6.7699 64.5918
55.5360 64.2025 -57.0186
-41.5752 74.0116 9.9156
-30.8435 -79.0878 3.6440
-61.6496 58.3570 22.6683
-79.0273 30.9984 59.5672
-15.5487 -83.4533 -50.5167
-52.1167 67.0079 -20.6929
84.5604 7.4663 80.9152
45.6939 -71.5422 60.5160
-82.4967 20.0127 -19.5661
70.4577 47.3490 14.0340
79.8083 28.9283 54.1730
61.7881 -58.2104 53.6295
2.2344 84.8600 26.3007
-37.5321 76.1416 -36.2929
37.6604 76.0783 -19.9308
37.7541 76.0318 33.7318
-34.0861 77.7454 -61.8645
70.5696 47.1820 -23.2451
54.2615 65.2832 -10.1783
-79.5584 -29.6086 -38.5191
-52.9862 -66.3225 -71.2258
-70.7557 -46.9025 81.2555
40.9617 -74.3529 -56.1757
-84.8818 -1.1361 -76.5428
-2.0588 84.8644 -59.4547
-33.8222 -77.8606 51.5985
-2.9205 -84.8392 27.6012
-1.1077 84.8822 24.7334
-45.7248 -71.5224 -41.2376
78.4402 32.4553 -8.8661
-54.2693 -65.2767 70.4164
-37.7364 -76.0406 78.1003
-40.1465 74.7962 -82.1999
41.5957 74.0000 79.1959
-52.3686 -66.8112 61.3908
-22.7557 -81.7826 64.5357
-4.9793 84.7432 -32.1624
83.9575 -12.5439 -56.4695
-66.6783 52.5378 -6.7438
-64.3491 55.3661 -27.3170
72.8045 43.6544 -78.9889
-56.7976 -51.2786 83.2141
35.4186 -66.6097 83.2141
-5.1747 13.3320 83.2141
-2.1038 -18.5701 83.2141
-8.0853 -0.3652 83.2141
17.4619 -71.3759 83.2141
-0.7170 0.4233 83.2141
-7.0168 17.4307 83.2141
7.3224 -17.3977 83.2141
19.0491 -43.9495 83.2141
40.9941 -34.5537 83.2141
-21.3424 54.9539 83.2141
-2.6681 -32.4434 83.2141
-23.5399 34.0819 83.2141
27.9905 -27.7586 83.2141
8.4701 -25.2237 83.2141
6.5178 3.7605 83.2141
72.1168 38.3737 83.2141
-1.3207 -1.6193 83.2141
-47.7714 20.7976 83.2141
-31.2928 13.5277 83.2141
-33.2595 -27.9446 83.2141
-56.4319 -27.3906 83.2141
30.7649 22.6124 83.2141
28.2089 -18.5957 83.2141
19.9001 -9.2503 83.2141
-51.9745 -8.8133 83.2141
-22.6752 -18.0379 83.2141
9.6260 -16.9278 83.2141
31.3750 1.8448 83.2141
-68.9444 -17.4627 83.2141
-67.5119 -44.4739 83.2141
-23.1995 -13.0554 83.2141
66.3075 -51.8133 83.2141
4.2477 1.6203 83.2141
3.4339 19.9984 83.2141
-66.5319 -8.1234 83.2141
-4.6841 -4.3335 83.2141
-0.7713 -15.8769 83.2141
-17.5803 -29.3071 83.2141
27.6182 -0.2170 83.2141
-0.2086 0.0195 83.2141
-23.5730 -1.3533 83.2141
0.0826 -0.0053 83.2141
12.6673 9.4619 83.2141
2.1304 14.6672 83.2141
62.9474 17.3932 83.2141
-25.7797 -7.9017 83.2141
-12.6951 6.1626 83.2141
-8.0263 18.6527 83.2141
12.8678 -26.0289 83.2141
-6.1976 -1.2841 83.2141
-14.2333 -39.9166 83.2141
10.3286 27.0582 83.2141
46.1604 70.8764 83.2141
-24.6581 -30.9195 83.2141
-13.1214 4.4275 83.2141
24.1201 18.8910 83.2141
9.1854 -6.5840 83.2141
38.5227 -14.3330 83.2141
-2.8843 -26.9504 83.2141
25.3869 -28.5631 83.2141
-31.1494 -76.2361 83.2141
-38.5526 37.8050 83.2141
-31.5700 -61.9392 83.2141
5.8003 -12.1653 83.2141
-46.5286 -14.5575 83.2141
-1.7623 29.1595 83.2141
1.2625 70.8346 83.2141
-80.0431 -10.8442 83.2141
22.3698 -18.5597 83.2141
73.4837 10.9166 83.2141
25.4136 54.5783 83.2141
-35.3521 23.6174 83.2141
-11.5535 -15.6558 83.2141
22.3228 -41.1226 83.2141
-37.8539 65.9838 83.2141
-18.8975 32.6794 83.2141
3.1707 20.0727 83.2141
-0.0602 0.0027 83.2141
-36.3988 -9.6032 83.2141
26.3596 26.4966 83.2141
-55.8206 -34.3246 83.2141
-34.8961 71.3740 83.2141
-17.6882 12.9488 83.2141
-9.8685 63.5257 83.2141
51.4662 -59.9605 83.2141
14.3629 22.4987 83.2141
-12.3881 33.2174 83.2141
-21.0439 72.7355 83.2141
-75.1880 7.8572 83.2141
5.2465 -80.5749 83.2141
-54.4910 8.9395 83.2141
30.0604 -29.8434 83.2141
10.8631 -5.2859 83.2141
81.6338 -2.3603 83.2141
-19.1375 30.6243 83.2141
53.0427 33.7189 83.2141
21.9398 57.8964 83.2141
65.9091 -5.4944 83.2141
-9.3487 48.0102 83.2141
41.0621 -69.5177 83.2141
5.1596 24.0158 83.2141
-4.3642 6.8777 83.2141
-43.2055 15.4915 83.2141
-29.8532 8.1203 83.2141
-50.0474 -33.5800 83.2141
-81.1561 22.8685 83.2141
-24.3006 75.2033 83.2141
-13.3892 -3.7647 83.2141
3.9137 62.2020 83.2141
22.1124 -4.2869 83.2141
52.5147 24.3710 83.2141
74.6752 -23.5955 83.2141
66.0094 -32.9762 83.2141
42.8840 -17.5456 83.2141
22.8901 58.0032 83.2141
-0.2940 1.3516 83.2141
15.6008 76.1821 83.2141
24.9286 29.2332 83.2141
-12.6679 -15.6713 83.2141
-64.1208 4.6504 83.2141
33.6823 52.8206 83.2141
41.9712 8.8963 83.2141
-1.5576 0.9781 83.2141
-36.5010 -34.6915 83.2141
36.0477 52.2307 83.2141
22.3274 5.7933 83.2141
43.7522 21.1135 83.2141
7.5642 4.8834 83.2141
7.9147 19.1578 83.2141
11.0438 3.5853 83.2141
-59.9451 -26.8830 83.2141
6.8342 17.5659 83.2141
-4.7319 -24.9651 83.2141
55.6140 40.6111 83.2141
-8.8829 -24.4336 83.2141
-34.6474 -67.3050 83.2141
-2.3516 10.5978 83.2141
48.4232 3.1502 83.2141
9.8624 31.2337 83.2141
-32.0993 -1.1821 83.2141
-14.1701 -1.6038 83.2141
-26.5267 9.4425 83.2141
-44.2065 19.1029 83.2141
40.8442 38.6218 83.2141
-47.6716 -43.0138 83.2141
-50.0627 67.1988 83.2141
32.8099 39.1531 83.2141
47.5770 18.2953 83.2141
5.9045 1.3015 83.2141
38.4768 3.5497 83.2141
21.6043 22.1002 83.2141
40.0389 8.8946 83.2141
23.2503 20.0825 -83.2141
26.9528 -57.5727 -83.2141
-12.4470 -4.9380 -83.2141
-68.4293 45.2293 -83.2141
-26.1965 -10.1091 -83.2141
8.5508 4.4751 -83.2141
-2.2116 -0.6791 -83.2141
-9.6168 -79.9921 -83.2141
3.6567 -7.3969 -83.2141
22.4550 18.5640 -83.2141
-6.2447 -10.7163 -83.2141
5.2760 -30.2564 -83.2141
20.9986 2.2531 -83.2141
75.7570 18.9759 -83.2141
8.2642 -13.0845 -83.2141
44.4436 -5.6506 -83.2141
-3.9793 47.0190 -83.2141
-21.0530 25.3003 -83.2141
-1.9680 -46.9437 -83.2141
1.5164 -0.4666 -83.2141
13.4970 -18.3205 -83.2141
-65.7147 15.3646 -83.2141
0.1587 0.6714 -83.2141
35.5699 -11.0014 -83.2141
2.0081 43.0053 -83.2141
-20.3991 -10.4957 -83.2141
-81.0387 -8.2840 -83.2141
-76.5837 -29.0134 -83.2141
82.9334 -9.4994 -83.2141
-26.7708 -7.6791 -83.2141
-19.9197 10.9164 -83.2141
-2.3746 30.6151 -83.2141
34.5899 65.8044 -83.2141
37.9871 -64.1814 -83.2141
25.5675 10.5060 -83.2141
4.9629 16.8666 -83.2141
52.5852 -27.1504 -83.2141
-47.5516 13.9390 -83.2141
2.2224 -1.0620 -83.2141
-59.3894 -46.2119 -83.2141
44.3190 -66.4060 -83.2141
-2.5294 41.7214 -83.2141
38.5279 20.0992 -83.2141
-28.3817 47.8717 -83.2141
1.5189 34.5900 -83.2141
-13.2649 7.7775 -83.2141
42.5307 46.5839 -83.2141
32.2585 18.0469 -83.2141
-68.1825 -16.6102 -83.2141
-0.9057 20.9332 -83.2141
31.0409 24.0578 -83.2141
49.0433 -15.0835 -83.2141
-22.4898 -74.0501 -83.2141
9.1547 8.1927 -83.2141
22.9124 34.3219 -83.2141
-29.2673 3.2842 -83.2141
-2.3472 -0.3847 -83.2141
-6.5923 0.5370 -83.2141
21.4389 57.9801 -83.2141
24.6275 0.1579 -83.2141
3.4073 -1.5223 -83.2141
-28.0226 62.6990 -83.2141
-18.1663 5.9658 -83.2141
7.0271 -12.3782 -83.2141
-22.3667 58.9445 -83.2141
5.3399 -17.2414 -83.2141
25.1817 43.5411 -83.2141
11.3075 60.3347 -83.2141
42.9352 69.1961 -83.2141
-68.5800 -41.0238 -83.2141
23.0902 -61.0941 -83.2141
9.2057 13.5760 -83.2141
50.6846 -8.6072 -83.2141
21.5079 29.2569 -83.2141
19.1033 -39.1097 -83.2141
5.6310 34.9550 -83.2141
-1.9238 -17.4545 -83.2141
10.6796 14.2076 -83.2141
-5.6511 -14.0055 -83.2141
26.6662 -18.4542 -83.2141
-57.8829 48.3079 -83.2141
9.6086 -58.1610 -83.2141
36.2879 -4.1316 -83.2141
42.0762 -71.4811 -83.2141
2.3090 -4.4732 -83.2141
-14.0570 3.9282 -83.2141
8.9123 44.1065 -83.2141
64.3232 -45.2019 -83.2141
40.1302 -10.5956 -83.2141
18.2957 -42.9038 -83.2141
-25.2412 -11.0725 -83.2141
17.0526 63.2355 -83.2141
-12.4900 42.9741 -83.2141
66.2390 -14.9683 -83.2141
22.1438 71.7186 -83.2141
35.7803 11.2802 -83.2141
44.0784 -59.9385 -83.2141
-28.8342 -5.9174 -83.2141
-63.9439 -48.4758 -83.2141
15.9569 65.4637 -83.2141
31.4213 14.8703 -83.2141
-74.1914 13.3395 -83.2141
-61.0241 34.3368 -83.2141
56.0475 29.3884 -83.2141
-51.0180 -63.0344 -83.2141
49.8647 55.3304 -83.2141
-69.5499 -20.2429 -83.2141
31.5269 -12.4190 -83.2141
-7.6830 11.7421 -83.2141
9.9690 -3.2365 -83.2141
7.6871 56.2890 -83.2141
-4.0544 -16.1517 -83.2141
10.9972 30.5167 -83.2141
-58.8194 8.0368 -83.2141
67.6848 8.2521 -83.2141
-10.5484 7.3965 -83.2141
76.0759 -17.5995 -83.2141
-4.0492 -82.4859 -83.2141
22.2031 4.5712 -83.2141
-13.1669 14.7800 -83.2141
-0.3005 10.5126 -83.2141
-68.0437 -5.3149 -83.2141
5.5089 -18.4544 -83.2141
28.1434 -72.3377 -83.2141
-37.3365 -4.2037 -83.2141
-38.9842 27.3705 -83.2141
16.8474 38.9888 -83.2141
-31.5919 -4.8019 -83.2141
43.7419 70.6608 -83.2141
9.0225 -34.7042 -83.2141
70.7367 -42.0713 -83.2141
12.2558 51.5886 -83.2141
17.6011 -48.8863 -83.2141
-66.3220 14.0546 -83.2141
4.5713 -25.4979 -83.2141
8.5165 -61.2405 -83.2141
-56.1577 -10.0084 -83.2141
-2.3989 8.7381 -83.2141
-54.9015 26.3379 -83.2141
0.3479 -55.2829 -83.2141
73.4708 -11.1783 -83.2141
-7.2470 -27.8844 -83.2141
52.2604 -2.9148 -83.2141
13.4537 -45.6511 -83.2141
-21.8325 75.5851 -83.2141
-29.2008 -18.0592 -83.2141
-34.1519 -61.9145 -83.2141
13.3951 8.5963 -83.2141
-60.1212 0.2980 -83.2141
-6.5802 2.3993 -83.2141
-10.4000 55.5305 -83.2141
13.7734 -23.8991 -83.2141
-5.0713 46.8631 -83.2141
59.9741 -49.4686 -83.2141
