ply
format ascii 1.0
element vertex 1024
property float x
property float y
property float z
end_header
-24.4538 -3.1254 -36.5450
24.5493 2.2566 -58.2225
20.8898 13.0910 71.9491
15.5688 -19.1147 -10.5234
3.3740 -24.4208 -24.8806
-20.6430 -13.4768 -5.9971
4.9727 -24.1460 -69.2047
-24.5995 -1.6196 41.2332
24.4242 -3.3490 -60.2815
-18.7522 -16.0036 3.8140
-24.2112 4.6449 23.1563
6.5962 -23.7539 7.1697
11.6688 -21.7163 -39.3484
-21.2019 -12.5792 -46.1225
13.5978 -20.5635 54.2290
24.5335 2.4221 7.2403
13.6766 -20.5112 12.3322
24.2799 -4.2712 -22.5980
23.9256 5.9435 44.5733
22.3986 10.2986 -23.0226
-24.6508 -0.3082 -9.8639
20.3592 13.9019 -12.8455
15.5323 -19.1443 -49.9646
11.1263 21.9992 7.3050
-22.3785 10.3423 -28.4807
17.6588 17.2025 25.2446
-24.5947 1.6916 13.4885
15.4821 -19.1850 -62.7583
-21.9099 11.3011 -10.9578
22.5034 -10.0675 -11.5045
-18.0012 16.8439 -69.9447
-14.1928 20.1574 -50.5868
16.4760 18.3385 -65.6001
-17.9215 -16.9286 6.8671
13.7546 -20.4590 22.9220
-4.7188 -24.1969 39.4997
24.6503 0.3483 38.6385
-2.9409 -24.4767 16.1635
22.3790 -10.3412 -60.4733
-9.9798 22.5424 -31.4678
16.1869 18.5942 65.9315
22.7006 9.6146 -50.3980
-19.5861 14.9714 54.6886
-5.1422 -24.1105 36.6786
-13.8164 -20.4173 -58.3313
-6.4906 23.7830 60.1009
-15.0111 -19.5557 -6.8470
12.2683 21.3834 -19.6414
17.6618 -17.1994 47.2287
-23.0798 8.6649 58.1142
14.4543 19.9708 -42.0499
-1.9290 24.5772 -31.2613
-18.9512 15.7674 59.6794
-23.9276 5.9355 -49.2070
-3.4462 24.4107 38.6777
8.9271 22.9797 73.8789
-12.8865 21.0166 10.5600
-14.3840 -20.0215 -15.4629
-13.7276 20.4771 44.4020
4.9531 -24.1501 -30.0740
20.6748 13.4279 20.5166
23.9232 5.9532 -22.7489
2.4860 24.5271 -20.3505
-23.8911 6.0807 47.0672
-11.4717 21.8211 32.8573
-4.0154 24.3236 -49.2832
9.6480 -22.6864 38.8830
14.3995 20.0103 20.0939
19.7805 14.7136 -55.6707
18.5537 16.2333 53.6202
20.4295 -13.7984 60.2876
14.5673 19.8885 -21.6574
17.9535 -16.8947 -28.8095
-23.2726 8.1331 66.3238
-3.5650 24.3936 -40.2064
6.6285 -23.7449 -12.0198
21.2377 12.5188 -19.7805
-0.8168 24.6392 -38.8057
22.6552 9.7212 4.5098
9.2507 -22.8513 -59.5540
14.2191 -20.1389 -21.8188
12.8953 21.0112 -42.0221
-23.6387 6.9980 34.4202
-22.4219 -10.2478 -5.3526
-24.6225 1.2207 -21.8098
22.6989 9.6186 10.5082
9.5790 22.7156 49.8877
-1.5895 -24.6015 -46.2308
-24.5343 -2.4134 48.4081
22.0622 11.0009 -6.0072
3.3727 -24.4210 -7.7644
0.6762 24.6435 -33.4422
0.1243 -24.6524 -55.0024
-24.1620 4.8944 38.4160
22.4871 10.1038 69.6084
-24.6410 0.7611 -34.2149
-6.1483 -23.8738 -63.0241
14.9161 -19.6283 -22.0560
-21.5633 11.9491 17.4825
-20.8986 13.0770 -24.4439
19.8639 -14.6008 -32.0457
-20.6615 13.4485 -32.9577
4.8638 -24.1682 63.1476
7.6326 -23.4415 -69.4275
9.6815 -22.6722 -36.6500
-8.8298 -23.0173 22.3478
22.8132 -9.3442 24.0059
-21.5415 11.9884 -25.3539
24.3034 4.1354 52.4666
-1.6620 -24.5967 -46.9125
-8.7563 -23.0453 0.5600
22.6997 -9.6167 -30.3056
15.6987 19.0081 26.1531
7.2945 23.5489 55.0993
21.7662 11.5755 -1.0288
15.1956 19.4127 39.9558
-20.9166 -13.0481 57.8226
7.9118 23.3487 7.8748
-21.9798 11.1645 -40.7782
19.1101 15.5744 -40.1379
22.4940 10.0886 36.8802
9.2688 -22.8440 -54.0284
19.7605 -14.7405 -47.7624
-0.6803 24.6434 -25.1955
-11.8578 -21.6137 -11.3225
-19.2390 15.4149 -28.3911
23.3059 -8.0369 -37.0640
-14.9318 19.6163 -6.4689
-21.4281 12.1900 22.9117
-14.1150 -20.2120 67.0020
-20.6375 -13.4852 35.0577
3.8109 -24.3564 46.1848
-2.2884 -24.5463 -19.3670
-18.2677 16.5544 -6.8982
21.6559 11.7804 -37.1789
5.8078 23.9589 60.3555
-14.7060 -19.7861 51.1562
-4.9669 -24.1472 52.6118
21.7947 11.5218 -43.4920
-7.2096 23.5750 -43.7187
-19.9234 -14.5195 10.4568
15.8664 18.8684 -34.3437
16.0487 18.7136 44.1392
-3.7824 24.3609 43.7750
-13.4219 -20.6788 50.4208
-23.5216 7.3819 -15.1338
-21.0832 -12.7772 -6.1324
-24.6461 -0.5719 26.7529
24.5284 -2.4729 -31.6565
-20.1272 -14.2356 29.0291
-10.9627 22.0812 -61.8482
-18.9724 15.7419 31.7519
24.3849 -3.6245 -7.1957
-17.0117 17.8426 -57.1129
18.7478 -16.0088 -72.2897
-4.3434 24.2671 39.5223
18.4655 16.3336 -5.0098
10.1607 22.4615 19.4588
24.1968 4.7197 40.7804
18.4071 -16.3993 -8.1309
-18.0998 16.7378 28.6561
-17.5274 -17.3363 -9.9674
-9.2793 22.8397 11.2649
13.8969 -20.3626 67.2301
24.1903 -4.7525 -67.8281
-19.8871 14.5692 2.7040
-11.4446 -21.8353 -10.4814
-13.3544 -20.7224 -50.1630
-24.1130 5.1306 60.1080
21.5192 -12.0285 29.1275
16.5345 -18.2858 -40.0266
18.3675 -16.4437 8.6790
3.5198 -24.4002 19.3944
-9.3010 -22.8309 -30.5129
7.3949 -23.5175 -28.9003
0.9470 -24.6346 -59.8573
-23.2346 -8.2409 -0.5844
0.7425 24.6416 -50.6278
-11.5435 -21.7831 67.6252
17.0661 17.7907 -67.7337
7.4586 -23.4974 4.5284
24.2167 4.6163 -53.0699
21.8848 -11.3496 73.3539
23.3723 7.8418 -15.0362
-18.8059 15.9404 -61.0059
23.5239 7.3745 62.4553
10.0201 -22.5246 -9.3591
-15.9682 18.7823 37.3056
24.1498 4.9542 35.2341
-11.6544 -21.7240 26.0896
-12.9602 -20.9712 34.0672
-4.3160 24.2720 19.9194
-20.8189 13.2035 48.7674
10.4691 22.3194 -8.2680
-23.9578 -5.8124 -44.7532
24.6368 0.8864 -54.1025
-18.4673 16.3314 25.0404
24.5201 2.5544 -59.7647
-4.1898 24.2941 -8.0429
-10.2475 22.4220 -21.9068
11.2379 -21.9424 7.7742
-17.7756 17.0818 -15.1358
-23.3684 7.8533 -40.4153
24.6376 -0.8649 32.5269
-23.2154 8.2948 -18.6002
-20.8564 -13.1442 -69.6173
-17.9818 16.8645 46.4004
1.0774 -24.6292 -24.7567
22.6449 -9.7450 -37.0048
23.6083 -7.0996 21.9416
15.7568 18.9600 -62.0542
-20.7212 -13.3562 -16.2322
22.9737 -8.9425 -19.1124
14.5911 -19.8711 10.4435
0.4943 24.6478 73.3905
-24.3621 3.7742 37.0826
18.0457 16.7962 -16.4109
-1.3340 24.6166 -2.1948
20.4385 -13.7851 -54.6228
24.4309 3.2998 66.9505
24.0592 -5.3771 -69.5365
-24.5067 -2.6796 7.3409
23.0523 -8.7379 -39.6207
5.6708 -23.9917 65.9258
19.2365 15.4181 -69.0648
-18.7411 16.0165 26.7919
24.6293 1.0763 17.9219
8.1659 23.2610 35.6521
22.8507 -9.2522 -35.6307
-3.7521 -24.3656 14.1648
-11.3302 -21.8948 -13.7267
14.9278 -19.6194 57.1362
-20.9624 12.9745 59.4428
-20.8895 13.0915 -31.2078
-16.5294 -18.2903 -60.4147
15.5243 19.1508 61.1003
-18.1935 -16.6359 -16.0372
2.5131 24.5243 2.9758
20.4968 13.6982 62.0881
-11.4955 -21.8085 46.7982
24.5737 -1.9727 -51.2868
-10.8466 22.1384 49.6976
8.1283 -23.2742 -3.4880
16.4314 18.3784 -38.7186
-24.1168 5.1125 -29.2723
-24.3368 -3.9342 -64.1365
24.6087 1.4734 -12.4240
-2.1990 24.5545 -34.9084
0.8151 -24.6393 67.4025
11.6959 -21.7017 -25.7539
18.1465 16.6872 6.2184
-23.5117 7.4135 -17.9004
15.2068 -19.4039 -4.5195
-11.8464 21.6199 -71.5842
18.1000 -16.7376 31.6249
24.2469 4.4549 40.6728
15.9384 18.8076 -1.1481
-23.7820 6.4941 -45.0331
-12.3064 -21.3614 -63.0296
-21.9726 -11.1786 38.2726
3.2715 24.4347 48.9073
-21.3681 -12.2948 73.4905
-21.7942 -11.5226 -3.5105
22.0270 11.0712 9.1880
-21.7198 11.6624 -72.1944
11.3059 -21.9074 69.5444
-24.2151 4.6247 -3.6317
24.3008 4.1506 65.1944
24.6188 1.2930 -43.4019
24.3229 4.0193 71.0273
2.6439 24.5106 -55.0576
-17.9525 16.8957 51.3192
13.1405 -20.8587 65.6241
-20.6364 -13.4869 60.0161
14.6699 19.8129 -42.7374
22.3526 10.3980 -54.0456
-13.6225 -20.5472 -29.5661
4.5778 24.2240 -71.1999
-6.4680 -23.7891 -64.7418
-24.3566 -3.8095 55.1934
-12.7309 -21.1112 -9.2822
14.7181 19.7772 -48.1712
16.8822 17.9652 -52.9449
-9.8947 22.5799 6.0419
5.2856 24.0795 -38.3937
1.9072 -24.5789 -2.1528
-17.8203 -17.0351 -62.3579
-18.9628 -15.7535 -18.1800
19.5433 -15.0272 -59.4194
-6.2639 23.8437 -27.4368
-23.2000 8.3379 49.6289
-13.3168 20.7466 -72.2465
15.1622 -19.4388 15.5337
-23.0608 8.7154 -39.5154
-7.1045 -23.6069 64.7077
-16.4392 -18.3715 -44.7271
24.2716 -4.3184 3.5935
-24.6115 1.4262 58.5672
-3.7326 -24.3685 1.7203
0.0204 -24.6528 11.9739
12.6505 21.1594 -28.1042
10.6374 22.2397 -23.2333
-24.6484 0.4643 -5.4572
12.2469 -21.3956 -14.8052
15.3046 -19.3269 66.8845
20.1674 -14.1787 -55.2958
23.6753 -6.8732 24.1767
-22.8429 -9.2716 1.8567
7.1329 23.5983 -49.1340
-0.7738 -24.6406 8.2804
12.8875 -21.0159 -51.3397
-13.2747 20.7735 -60.9030
-23.8340 6.3008 -42.9794
-20.4636 13.7477 31.1812
-24.1508 -4.9493 -63.1318
5.1353 24.1120 28.7963
23.8044 6.4116 65.1132
24.3953 3.5533 57.8717
13.6963 -20.4980 23.2316
-21.7355 -11.6330 -59.6758
16.5980 -18.2281 -27.2390
13.7210 20.4815 -55.2737
-7.0662 -23.6184 -21.1557
-19.9988 14.4155 0.6516
2.9646 24.4739 -22.2950
12.7626 -21.0921 9.4723
5.8171 23.9566 -48.3153
-23.7686 6.5430 39.0972
8.9559 22.9685 57.0644
-21.4164 -12.2104 -32.8329
24.3019 4.1442 6.1294
-13.3156 20.7474 -34.7592
20.8583 13.1412 44.1597
-18.0712 16.7687 44.5058
-24.5597 -2.1397 -61.2471
-16.9876 -17.8656 37.8065
5.6648 -23.9931 54.1091
18.4536 -16.3470 -69.9205
-8.7651 23.0419 -23.0561
-24.6327 -0.9935 -6.2064
-0.4008 -24.6495 -65.3421
18.5637 16.2218 -26.9620
23.6825 6.8483 41.4510
1.5251 -24.6055 -40.7135
4.2940 -24.2759 65.8919
23.9228 -5.9548 -49.1208
-19.0340 15.6673 -21.3276
5.9926 -23.9133 -65.4817
-24.2437 -4.4722 -56.8506
-14.4018 -20.0087 31.9721
23.8732 6.1503 -46.1803
23.3405 7.9358 71.1357
4.0537 24.3172 -40.8376
-15.9591 18.7901 16.0231
22.4191 10.2540 -40.1034
15.1966 19.4119 49.1064
10.1056 22.4863 5.1115
1.8159 24.5858 38.9819
24.0984 5.1984 -18.7715
-8.2931 23.2160 -18.1849
24.6503 -0.3508 -18.9234
2.9785 24.4722 -5.3142
-24.4466 3.1813 -56.6058
8.1119 23.2799 70.9715
-24.3843 3.6280 -58.9438
18.6649 16.1053 -13.8621
-11.7321 -21.6822 59.8765
-24.3288 3.9835 66.7265
0.4952 -24.6478 -26.0624
20.6002 -13.5421 -49.6288
24.5497 2.2515 -41.7073
19.4180 15.1888 -20.4539
21.8188 -11.4760 -5.9943
-1.8870 24.5804 -58.9957
24.6425 -0.7103 35.6542
23.8367 6.2904 -50.7217
-24.4757 -2.9495 67.4984
24.0564 -5.3895 -68.5313
5.8022 -23.9602 15.9430
-18.0660 -16.7743 -35.9503
-8.4279 23.1674 48.2087
-6.8884 23.6708 49.2416
24.3724 3.7077 -48.5490
24.5740 -1.9694 -25.4964
-16.7994 18.0427 12.0016
10.7492 -22.1859 70.2145
16.2327 -18.5542 62.2123
23.8540 -6.2245 25.0150
-17.6545 -17.2069 -52.2200
24.2127 -4.6371 26.4911
-16.2904 18.5036 71.7662
-12.0604 -21.5013 -16.9703
9.2639 22.8460 -33.7664
-24.6168 -1.3313 3.1889
-23.9498 -5.8451 -4.5566
12.9316 20.9889 59.4647
15.7214 18.9893 -37.4621
-14.5617 19.8926 30.5581
9.3245 22.8213 -23.7941
-24.5593 2.1441 -25.3969
-14.4955 -19.9409 -65.1577
4.9668 -24.1472 45.8544
18.0286 16.8145 66.8598
18.8047 15.9418 30.5447
-20.2176 -14.1069 41.8406
-4.7714 -24.1866 -51.4075
9.2587 -22.8481 54.9743
-10.8252 -22.1489 -33.2315
-10.5124 -22.2991 20.5413
18.7973 -15.9506 71.4759
-0.0458 -24.6527 36.2862
-2.6522 -24.5097 -51.2003
15.7275 -18.9843 52.6735
-8.9529 -22.9696 54.7956
-21.2516 -12.4951 16.1149
18.7236 -16.0370 0.5882
-22.4375 10.2135 -31.8901
5.6387 -23.9992 19.1334
-24.0994 5.1939 -58.3164
8.8468 -23.0107 10.5086
-4.0717 -24.3142 -1.9195
0.4084 24.6494 54.6016
-18.6472 16.1258 66.0826
15.1780 19.4265 -66.9097
10.0995 -22.4891 -18.9412
-11.2739 -21.9239 35.7798
-22.4214 -10.2488 67.7489
10.7261 22.1971 14.7551
-12.3316 21.3469 -72.3482
-13.0487 20.9163 17.9265
23.3651 -7.8634 -60.1532
-0.7633 -24.6409 -20.1735
13.5036 20.6255 11.2583
14.1390 20.1953 -68.3211
24.3018 4.1448 -1.9667
19.2227 -15.4352 -3.3531
16.9084 -17.9405 -15.1776
17.4353 -17.4290 -66.8309
16.8991 17.9493 18.8229
2.0371 24.5685 -73.1627
-20.0444 14.3521 -14.7072
-4.7844 -24.1840 37.3577
23.0102 -8.8482 -29.0131
22.7932 -9.3930 61.7938
4.4654 24.2450 61.7951
-15.3066 -19.3253 -10.7489
-9.4873 22.7541 -26.1044
-24.5851 1.8251 28.0264
18.5884 16.1935 71.5210
-24.5707 -2.0096 70.6108
-18.3370 -16.4776 -65.6974
-24.1680 -4.8649 47.3003
-19.5733 -14.9882 -18.1746
-14.3722 20.0299 30.6884
24.5065 2.6810 -23.0656
15.8550 18.8780 35.2492
1.3432 24.6161 -4.7445
24.3899 3.5902 0.2099
-22.0580 11.0093 -40.2704
21.7997 -11.5123 30.5545
-0.2680 24.6513 -0.8910
24.1483 -4.9619 4.1317
23.7120 -6.7453 -68.1001
-14.4843 19.9490 42.4425
-23.2603 8.1681 -58.9937
18.8455 -15.8936 -4.1528
-21.3919 -12.2533 -71.0635
-24.2014 4.6959 -38.1597
-18.7283 -16.0315 -18.9384
-11.2139 21.9547 -57.3913
24.6505 0.3373 28.9247
-20.0053 14.4065 18.5126
24.4913 -2.8171 38.5819
20.2957 13.9945 44.2175
-18.2772 -16.5439 49.1507
8.2053 -23.2472 0.0299
10.8363 -22.1435 -60.0279
23.0146 -8.8368 -39.1812
-13.3604 20.7185 -61.3296
21.1434 -12.6774 11.7456
14.8733 -19.6607 -47.0893
-10.0673 22.5035 10.7806
-6.4904 -23.7830 -70.8004
21.5771 11.9243 54.6187
21.9976 11.1295 -1.8787
-19.8734 -14.5879 -10.6938
1.9594 -24.5748 -36.9443
-19.9421 -14.4938 -20.3365
24.6511 -0.2879 -21.3113
12.4880 21.2558 -40.7532
13.1889 20.8282 48.2820
3.2284 24.4405 44.6368
-22.9228 9.0723 -9.0875
-24.6189 -1.2922 55.4208
24.6527 -0.0338 -4.8165
0.1019 -24.6525 40.4017
24.6202 1.2661 12.7885
4.1742 24.2968 -20.8035
-11.3389 -21.8904 -49.9653
-17.3607 -17.5033 -2.7982
20.5185 13.6657 23.3304
21.4976 12.0669 53.3226
-6.3957 23.8087 -63.9108
9.7990 22.6216 -32.7486
-24.0528 -5.4057 -22.4676
-8.0825 -23.2902 0.8244
-22.0300 -11.0652 -26.1040
21.1471 12.6712 -32.7713
-18.4662 16.3328 -66.8910
-15.6198 -19.0730 -52.2232
24.5647 -2.0814 -72.4069
-0.8219 24.6391 -54.3417
21.8915 11.3367 59.5670
-7.8582 -23.3668 -1.6949
-21.8190 11.4757 24.4105
9.1550 22.8899 -34.7603
-17.5612 -17.3021 11.7671
6.3837 -23.8119 -72.5140
5.4150 24.0507 12.9755
21.5242 12.0194 60.4393
-19.0667 15.6275 49.9394
16.7201 18.1162 -13.8180
-1.6969 -24.5943 -8.4229
20.7214 13.3560 63.9451
23.0153 8.8347 35.7673
-6.0784 23.8917 6.7086
-23.7808 -6.4987 -16.6527
-24.6353 0.9275 -1.0938
-15.7155 -18.9943 6.1976
-5.3028 -24.0757 -12.5923
9.8006 -22.6209 16.2490
-6.0990 -23.8864 51.2143
16.5316 18.2884 18.1526
-7.3354 -23.5362 -28.0489
15.4042 19.2476 -70.8563
-19.6736 14.8563 -13.8349
-5.9552 23.9227 56.1867
0.6792 24.6434 -3.9052
24.4779 -2.9310 31.7146
-21.9488 11.2253 -25.5658
-13.4383 20.6681 -65.5648
-24.2073 4.6655 -48.8083
19.0533 -15.6438 -30.8488
24.5303 -2.4543 -33.3626
-18.8975 15.8317 54.5420
-3.7055 -24.3727 42.0252
24.0495 -5.4205 -49.1065
15.7547 -18.9617 68.2097
-10.8880 -22.1181 34.7672
13.0049 20.9435 30.6089
23.3599 -7.8786 50.4514
0.7334 24.6418 68.3821
1.0943 24.6285 -57.9438
24.5100 2.6495 38.5134
14.8090 19.7092 -39.9917
-24.6141 1.3807 -30.7137
18.1509 16.6825 -35.2681
8.9260 -22.9801 -11.7350
24.6262 1.1443 -45.5590
3.7549 -24.3651 41.7316
20.3956 -13.8484 26.2688
-21.9984 11.1279 -56.8425
10.8778 -22.1231 -10.9990
17.7307 17.1283 40.8992
16.7733 -18.0669 -58.7995
-20.8791 13.1081 -42.7083
-14.2726 20.1010 0.2803
21.4180 12.2077 -60.3855
-15.9794 -18.7728 38.2618
-20.2315 14.0870 45.5413
-24.3201 -4.0364 20.1891
24.2706 -4.3239 69.8785
-13.8859 20.3701 45.1371
-2.5610 24.5194 -19.9449
8.3646 -23.1903 1.3006
-22.4267 -10.2373 68.5074
23.9948 -5.6575 -28.1786
-24.5434 2.3198 61.9880
-12.7705 -21.0872 -35.0152
21.7959 11.5194 -27.6112
17.0368 -17.8187 -48.9655
18.6498 -16.1228 37.9044
3.3399 -24.4255 68.8445
-10.4151 -22.3447 -1.0055
-18.5574 16.2290 -18.2501
-8.7958 23.0303 -71.3628
22.8093 9.3538 -24.2078
18.1967 16.6325 -29.4434
1.4771 -24.6085 10.4464
4.4898 24.2405 -17.3940
19.4469 15.1518 -12.6674
-14.2651 -20.1064 43.9978
-21.5920 11.8972 17.0348
8.9392 -22.9750 -43.6468
-21.4984 12.0656 70.0290
-24.6061 -1.5162 25.1324
-14.7586 -19.7470 -65.5645
-23.3227 -7.9880 -29.5698
10.5873 -22.2636 -14.4740
-24.2300 -4.5457 26.6412
-11.8314 21.6281 -7.9949
13.6032 20.5600 -26.2025
20.1210 14.2445 -31.5437
-1.7485 -24.5907 -61.0211
-18.5389 -16.2501 17.3375
17.7800 -17.0772 -2.9393
-8.3741 -23.1869 19.3098
23.9325 -5.9155 -48.4099
-9.1693 22.8841 73.6845
-24.1998 4.7040 10.7751
-2.3379 -24.5417 -37.5149
15.9047 -18.8361 11.7095
-4.9052 24.1598 -68.8107
14.8906 -19.6476 20.0434
-22.2360 10.6452 -11.8655
-20.9141 -13.0522 26.4717
-24.6316 -1.0221 -20.6952
-21.4827 12.0935 63.7512
-24.2129 4.6360 -73.0522
20.3909 -13.8554 -44.7777
-23.7874 -6.4744 30.1806
18.2580 16.5651 69.6556
-6.4182 23.8026 -65.4904
20.2846 14.0104 56.3925
-22.5648 9.9291 21.2959
-2.9099 -24.4804 73.3987
16.8880 -17.9598 -28.9856
-16.9347 -17.9158 -44.7762
-13.8941 20.3645 -33.0281
-10.6970 -22.2111 64.5828
-23.7389 6.6499 15.8648
-2.0347 24.5686 17.8146
20.9436 -13.0048 -40.5992
24.6251 -1.1666 -24.7155
18.4308 16.3727 11.2541
-24.1477 -4.9645 -56.6526
-21.4654 12.1241 -6.7565
9.3290 22.8195 -21.0737
23.8215 -6.3478 57.7045
21.5955 -11.8908 22.0155
4.7576 24.1893 48.1194
24.4146 3.4183 5.2909
6.3426 -23.8229 8.4372
-23.4203 -7.6972 66.9308
-18.1627 -16.6696 25.5818
-23.5386 7.3276 50.8793
-23.7344 6.6661 45.9330
-10.6026 -22.2563 -52.5452
-0.9351 24.6350 -19.1631
17.4158 -17.4485 -53.5704
1.7012 24.5940 73.4439
-24.6523 0.1576 24.5698
-9.4583 -22.7662 57.0707
24.0888 5.2429 -5.2760
5.9327 23.9283 39.9232
0.6213 24.6449 -41.9444
-11.3361 -21.8918 -25.4251
-11.9563 -21.5594 4.2364
-18.8050 -15.9415 31.8675
21.0051 -12.9052 12.2869
24.4063 3.4774 72.0551
-23.7770 -6.5124 34.1912
-19.7260 14.7867 34.1263
-19.5484 15.0206 -40.4446
-22.9002 9.1290 -70.9619
4.3250 -24.2704 58.2165
4.3818 24.2602 14.3772
-3.9544 24.3335 27.9326
24.5770 -1.9309 7.4701
-6.8808 23.6730 43.2377
-0.0331 24.6527 34.5721
-23.1336 8.5204 32.1715
22.9781 -8.9312 59.9072
0.7656 24.6409 -22.4872
-21.2113 12.5634 -29.0961
-17.3874 -17.4768 -42.9142
6.6385 23.7421 -36.6492
23.7893 6.4675 49.7431
-4.3528 24.2654 48.2795
23.1561 -8.4590 -51.1481
-14.3237 -20.0647 -23.3185
23.1759 -8.4046 -46.2572
-6.7098 -23.7221 -27.0010
2.7804 -24.4955 34.1497
-21.0738 12.7927 -69.1143
-12.0256 21.5208 -58.1895
24.5140 -2.6123 -41.2990
-24.5268 -2.4887 59.8129
24.5289 2.4677 -53.7934
12.3220 21.3524 -66.7336
4.1316 24.3041 -29.0450
-7.3014 23.5467 -2.7712
2.0945 -24.5636 20.1191
15.1469 -19.4507 -17.2835
-23.0175 -8.8290 -4.1033
-6.6814 -23.7301 -41.4489
22.2792 10.5545 46.8291
24.0602 5.3729 73.2395
-7.2388 -23.5660 -67.8496
6.7919 -23.6987 42.4440
-17.1958 -17.6653 -56.0705
21.8708 -11.3765 -38.9208
-3.7272 -24.3694 -59.4024
-24.4379 -3.2474 21.4952
24.1919 4.7444 60.5343
-11.1145 22.0052 53.4267
22.7754 9.4361 -18.4404
22.6158 9.8125 26.9702
-15.7491 18.9664 12.7284
-4.5668 24.2261 -55.7016
5.6061 -24.0069 -67.6875
6.3682 -23.8161 -16.9498
-6.9651 -23.6484 19.5941
-19.9227 -14.5205 44.3340
-1.2770 -24.6197 -41.4655
-18.9388 15.7822 -38.2208
-4.9958 7.0683 73.9001
21.5775 -8.2276 73.9001
-0.6666 -0.5342 73.9001
-17.0363 6.6949 73.9001
-11.7236 15.8358 73.9001
-10.2228 -4.3892 73.9001
-12.1871 -19.1294 73.9001
-0.0244 0.0575 73.9001
4.0082 -3.8503 73.9001
13.6407 -6.0066 73.9001
10.4845 0.3054 73.9001
-12.8632 5.8982 73.9001
17.9798 1.5790 73.9001
-11.8731 -4.1401 73.9001
6.9281 -15.9740 73.9001
-10.1909 6.5131 73.9001
-6.6168 2.8161 73.9001
7.5198 15.9035 73.9001
-9.1169 -8.5257 73.9001
-0.1845 -7.8949 73.9001
-11.4189 8.3128 73.9001
14.8715 4.8009 73.9001
-0.1265 -2.9100 73.9001
-21.9829 4.5726 73.9001
-16.3005 0.5120 73.9001
7.2903 13.9486 73.9001
-17.3316 5.4818 73.9001
15.9943 -0.6572 73.9001
18.9344 -11.0675 73.9001
-17.4831 -4.9968 73.9001
-19.3276 -14.1607 73.9001
-1.9646 9.7863 73.9001
3.9677 10.7776 73.9001
-7.1271 -7.2577 73.9001
-3.1974 2.4347 73.9001
15.2172 9.0731 73.9001
-10.2209 -3.7200 73.9001
-15.9427 7.2474 73.9001
-13.6377 -19.1524 73.9001
-6.7680 -17.8444 73.9001
19.8572 -13.5085 73.9001
5.0432 3.2974 73.9001
3.7993 -0.3277 73.9001
-0.3153 -1.7803 73.9001
12.5652 17.4940 73.9001
-0.5718 -7.8101 73.9001
20.8670 -12.5463 73.9001
2.1405 1.9431 73.9001
-8.5541 -18.4078 73.9001
0.6664 -0.5341 73.9001
0.7362 1.3667 73.9001
14.8641 -18.5489 73.9001
5.9857 -4.5446 73.9001
8.2925 3.7039 73.9001
4.1960 10.2511 73.9001
-7.4911 16.6641 73.9001
0.6218 5.1534 73.9001
-7.2725 2.0009 73.9001
6.4275 23.3820 73.9001
15.9375 -6.8693 73.9001
4.0189 4.9443 73.9001
15.7933 -18.1839 73.9001
-0.0503 0.5700 73.9001
-6.5346 -1.4567 73.9001
-4.2931 -1.8476 73.9001
-0.8931 1.0728 73.9001
-10.2418 20.1345 73.9001
6.2546 -0.1288 73.9001
7.6061 7.1592 73.9001
-22.5313 -8.1822 73.9001
-6.1935 -10.3077 73.9001
4.7119 8.6085 73.9001
3.8298 1.4110 73.9001
15.3358 3.0406 73.9001
4.5499 -4.2142 73.9001
5.3251 -9.1251 73.9001
0.6113 -0.0365 73.9001
-0.1032 -3.2256 73.9001
7.4785 12.4493 73.9001
-0.0082 17.6896 73.9001
-5.9887 1.4144 73.9001
-18.1077 3.9629 73.9001
0.3614 -0.0794 73.9001
8.6179 -2.5936 73.9001
-9.3297 2.4616 73.9001
-3.8911 -18.0299 73.9001
-4.2760 19.3072 73.9001
8.7790 2.3922 73.9001
-13.2099 -3.0359 73.9001
4.9208 2.1245 73.9001
5.1926 16.1262 73.9001
-0.9546 2.4427 73.9001
10.4598 -13.7121 73.9001
5.1832 2.0334 73.9001
-23.8179 0.3281 73.9001
10.7553 10.2851 73.9001
-5.7431 -2.1084 73.9001
-2.2132 3.1397 73.9001
-8.9930 21.8783 73.9001
-6.6146 -2.3926 73.9001
0.7084 5.4762 73.9001
-9.9555 -12.9769 73.9001
-11.2342 21.0684 73.9001
-1.5721 4.8816 73.9001
-7.7052 -3.9852 73.9001
7.9690 0.5045 73.9001
-3.7247 3.6623 73.9001
5.1667 -1.0070 73.9001
2.4635 -2.0105 73.9001
19.0060 -2.5171 73.9001
-3.0391 11.3467 73.9001
-1.2297 -5.3566 73.9001
16.9852 7.2546 73.9001
10.1293 13.0236 73.9001
-17.9941 -10.5461 73.9001
13.6102 6.0686 73.9001
-7.0296 6.9168 73.9001
-19.6880 -14.1709 73.9001
-3.5907 15.3565 73.9001
5.6032 19.5395 73.9001
0.4221 7.2317 73.9001
4.9213 13.4076 73.9001
-4.5340 2.9808 73.9001
6.3056 15.2416 73.9001
14.9916 6.9217 73.9001
22.5495 -4.1986 73.9001
16.3326 -2.4555 73.9001
-12.2965 0.4800 73.9001
-21.1169 0.6920 73.9001
21.7200 -11.3508 73.9001
2.2931 3.9526 73.9001
-16.7859 15.9291 73.9001
13.2975 -0.1440 73.9001
9.9259 14.1276 73.9001
-13.2255 10.3755 73.9001
-5.5263 22.2024 73.9001
0.1730 -0.6492 73.9001
-17.4852 -11.9594 73.9001
3.2995 -14.3959 73.9001
-3.1585 -8.8258 73.9001
-12.3859 19.2643 73.9001
9.3715 -10.7129 73.9001
14.2444 10.2285 73.9001
3.9572 24.3298 73.9001
0.6153 -1.3922 73.9001
0.3104 1.0339 73.9001
-11.3102 -18.4838 73.9001
10.9851 12.3862 73.9001
-9.4459 17.6031 73.9001
7.2186 7.5527 73.9001
-7.8509 0.7173 73.9001
-4.0997 -1.5218 73.9001
-12.5239 -18.9104 73.9001
-1.2753 3.8145 73.9001
-0.4459 14.6250 -73.9001
-0.2569 -1.5190 -73.9001
-7.7134 5.9046 -73.9001
1.5929 7.7925 -73.9001
0.2695 -3.1682 -73.9001
-2.6181 2.0912 -73.9001
-16.2063 -18.3829 -73.9001
0.1313 -9.4888 -73.9001
-0.2944 -4.8299 -73.9001
16.7761 0.1636 -73.9001
-11.5140 -14.2250 -73.9001
7.7984 -6.9546 -73.9001
-1.7085 -2.0483 -73.9001
-10.8220 1.1330 -73.9001
-4.0730 -6.1994 -73.9001
-19.0626 -9.7847 -73.9001
24.1295 0.6274 -73.9001
16.0264 -4.0766 -73.9001
2.5076 -7.5081 -73.9001
-2.0895 3.3249 -73.9001
15.1797 15.2895 -73.9001
-2.5317 -1.4844 -73.9001
-0.0651 -0.3324 -73.9001
-7.3404 -10.5556 -73.9001
0.2853 -4.9478 -73.9001
12.4711 16.3059 -73.9001
4.2025 1.6665 -73.9001
-4.0518 2.4709 -73.9001
21.2800 -10.1489 -73.9001
15.3841 4.8683 -73.9001
5.5359 1.3256 -73.9001
-6.9526 0.6773 -73.9001
-0.0049 2.1073 -73.9001
-0.8033 -3.0686 -73.9001
12.4428 -6.2790 -73.9001
-2.9822 -10.8218 -73.9001
-2.3800 9.1165 -73.9001
0.2345 0.2672 -73.9001
4.1854 -3.1793 -73.9001
1.5112 3.0741 -73.9001
0.2016 -0.3302 -73.9001
0.0763 4.2840 -73.9001
3.6782 -13.1671 -73.9001
9.3576 -17.4678 -73.9001
8.4678 -4.8609 -73.9001
0.4957 -3.8935 -73.9001
16.3109 -0.9898 -73.9001
-20.0064 -7.9351 -73.9001
18.9402 -8.7201 -73.9001
11.5754 0.9011 -73.9001
-22.5140 3.5697 -73.9001
-3.5228 -5.1825 -73.9001
1.8572 -12.6194 -73.9001
5.5827 -7.9165 -73.9001
-0.9125 0.9309 -73.9001
-11.3632 -16.7321 -73.9001
-5.5749 -18.2744 -73.9001
-5.6704 19.6992 -73.9001
-20.7835 -6.6348 -73.9001
4.0260 4.2187 -73.9001
-12.4031 -15.1223 -73.9001
17.1724 -8.5271 -73.9001
-3.5140 9.9486 -73.9001
7.9064 -5.3604 -73.9001
17.9443 -16.6626 -73.9001
6.3939 -18.0958 -73.9001
-13.1822 7.0506 -73.9001
-3.7502 -19.4790 -73.9001
-0.3044 0.2248 -73.9001
10.6028 3.4969 -73.9001
0.0365 -0.2043 -73.9001
-4.1901 -8.2036 -73.9001
15.0699 17.8539 -73.9001
-10.7977 4.8977 -73.9001
-3.3708 -8.6502 -73.9001
-4.1666 6.4918 -73.9001
-4.0888 -0.0087 -73.9001
-5.4285 -10.0419 -73.9001
17.4130 17.2612 -73.9001
4.6454 7.9044 -73.9001
-2.2836 9.8013 -73.9001
-5.2020 20.5906 -73.9001
0.2500 -2.5255 -73.9001
-5.2469 -7.5683 -73.9001
-4.1399 3.3709 -73.9001
2.3852 -2.5755 -73.9001
1.5296 9.5291 -73.9001
-15.7943 7.1519 -73.9001
-17.9313 13.8124 -73.9001
1.3692 5.8460 -73.9001
0.3228 23.8407 -73.9001
-10.9773 -1.2723 -73.9001
-5.4861 5.8763 -73.9001
3.7933 -3.7190 -73.9001
1.0818 -2.5302 -73.9001
-11.1626 -15.3295 -73.9001
-13.6067 -4.3714 -73.9001
5.2431 11.9991 -73.9001
-13.7151 -1.5549 -73.9001
-2.5396 -13.0819 -73.9001
15.0545 9.5166 -73.9001
7.2616 -4.7236 -73.9001
-13.4020 -5.9969 -73.9001
-3.5035 -12.9354 -73.9001
11.8535 16.4661 -73.9001
4.3572 -15.7023 -73.9001
-5.3634 3.4526 -73.9001
16.7591 8.7266 -73.9001
-12.4260 20.4233 -73.9001
-14.3565 7.5496 -73.9001
10.8494 -8.1472 -73.9001
-14.1480 0.6794 -73.9001
18.1932 -6.1130 -73.9001
-5.3682 1.6278 -73.9001
6.7091 5.0946 -73.9001
-22.1201 -10.6837 -73.9001
-18.2160 -1.8130 -73.9001
5.7689 1.4665 -73.9001
7.8749 -1.8218 -73.9001
5.3783 3.4992 -73.9001
-14.9942 -14.5479 -73.9001
-0.6536 13.3638 -73.9001
-0.5072 19.5278 -73.9001
-3.0590 1.0904 -73.9001
2.4311 -1.5213 -73.9001
-4.1223 8.0336 -73.9001
-4.8374 -13.8079 -73.9001
12.2248 -2.4328 -73.9001
8.3808 12.1285 -73.9001
15.9895 4.3535 -73.9001
-10.8222 -1.8732 -73.9001
17.4546 6.3731 -73.9001
4.5967 -9.3187 -73.9001
4.1958 -18.9373 -73.9001
13.4358 8.5975 -73.9001
15.1276 -4.6370 -73.9001
1.1119 -16.2566 -73.9001
-17.1045 -5.3368 -73.9001
11.0946 10.5746 -73.9001
1.5370 -1.2018 -73.9001
5.8528 11.9934 -73.9001
-2.8189 14.6245 -73.9001
0.9599 -10.1117 -73.9001
-2.1231 15.4602 -73.9001
17.6823 2.8391 -73.9001
2.3882 12.0754 -73.9001
-12.0600 -4.6992 -73.9001
9.1970 -13.7078 -73.9001
12.7890 1.3798 -73.9001
-9.2376 1.8397 -73.9001
-5.0359 18.9437 -73.9001
-7.5145 -22.8672 -73.9001
3.4650 20.7653 -73.9001
-13.4915 6.3623 -73.9001
