ply
format ascii 1.0
element vertex 1024
property float x
property float y
property float z
end_header
39.0793 26.8451 36.9441
40.7498 -24.2344 1.7457
-32.2600 -34.7440 20.0093
36.3624 -30.4241 43.0038
40.6997 24.3185 -29.3646
29.7689 36.9007 -43.1202
-45.2527 -14.1437 -43.7059
47.3652 2.0936 4.5886
46.8675 7.1616 -42.3378
-11.4205 -46.0155 1.9611
-42.4699 21.0750 29.9612
45.6519 -12.7967 8.7446
-21.3255 42.3447 -30.5062
45.5956 -12.9959 -12.5586
9.7710 -46.3937 -30.5850
-36.0527 -30.7905 25.0508
-18.2241 43.7691 -0.6711
22.9629 41.4796 -27.2294
-42.8125 -20.3700 -22.9344
22.5889 41.6844 31.6328
44.5638 16.1838 32.3800
-7.1164 -46.8744 24.6324
-37.3429 29.2122 -23.7265
-36.2719 30.5319 -15.6927
-26.1661 -39.5371 -8.1861
20.2020 42.8921 27.3424
37.4874 29.0266 16.1675
4.1133 47.2327 -22.7385
43.1933 19.5496 -36.3385
-46.4051 -9.7167 -14.7193
36.0509 30.7926 24.3339
-38.9611 -27.0163 -22.6880
-37.3652 -29.1838 44.0788
47.1545 4.9295 5.7841
-16.4353 -44.4717 -34.6612
41.2426 -23.3859 -33.2061
-34.6823 32.3263 23.3393
-42.9184 -20.1461 -38.8378
-39.7230 25.8831 30.2324
-36.4610 30.3059 33.5958
42.1328 -21.7411 11.7465
-47.2851 3.4596 41.8031
16.4252 44.4754 42.6319
-47.2776 -3.5605 38.0503
-21.2299 42.3927 30.2224
47.3131 -3.0530 -24.4067
40.7183 -24.2872 41.7959
38.5286 27.6297 25.4694
-2.7376 -47.3324 9.5542
-45.5372 13.1989 21.7760
34.0592 32.9821 -35.0777
25.2349 40.1379 -42.3073
-47.3688 2.0105 -46.0015
-46.9177 -6.8252 4.3522
-7.5333 -46.8092 32.1656
43.2479 -19.4286 -21.2691
-6.7338 -46.9309 20.7704
23.2500 41.3193 15.0449
18.5203 -43.6446 37.1158
47.0354 5.9603 42.8346
-29.7565 36.9107 23.6999
40.0268 25.4107 41.3254
-3.1216 -47.3086 -14.0352
46.9148 -6.8449 -16.1534
-40.7644 -24.2097 1.6148
44.5948 16.0982 -4.0584
-36.6182 30.1157 21.6800
0.5202 -47.4086 -45.0978
44.7952 15.5320 -31.1566
36.8376 -29.8469 33.1389
11.2470 -46.0582 -10.2572
-12.6158 -45.7022 39.0365
-47.4071 -0.6442 28.1610
28.7172 -37.7250 -22.6100
15.5307 -44.7956 -0.8005
-17.6698 -43.9958 17.5308
40.4368 -24.7532 27.9311
-9.2967 46.4911 2.2018
44.7223 -15.7405 -45.6813
36.9722 -29.6801 -10.5489
30.6090 -36.2069 -19.0198
31.9337 -35.0441 -40.6456
9.9287 -46.3602 -37.1811
47.4114 0.0712 -24.4014
43.5043 18.8474 -18.9367
39.7921 25.7768 -15.5496
25.8751 -39.7282 -32.7486
-1.9024 -47.3733 3.2370
30.3163 36.4523 45.7389
10.2477 46.2908 23.8388
-44.7562 -15.6438 39.1115
37.2170 -29.3725 5.1881
-47.0912 5.5020 -29.6983
38.8460 27.1816 -38.9909
47.2007 4.4659 -37.1630
-2.4160 -47.3499 42.2073
-45.6449 12.8217 -6.9673
-6.4212 46.9746 1.8031
29.9969 -36.7156 18.7568
47.4104 0.3239 24.1963
-37.2648 -29.3119 9.5793
18.3246 43.7271 14.9046
5.4378 -47.0986 29.0046
42.9806 -20.0130 37.3245
-43.9425 -17.8019 -38.4375
-14.1263 45.2581 45.6618
-1.8119 47.3769 18.5511
2.3297 47.3542 -23.7133
-44.3452 -16.7736 -17.6703
-30.4096 -36.3746 9.3258
-14.9608 44.9892 7.7930
18.9079 -43.4780 6.7834
24.0186 40.8773 -2.6194
47.3965 -1.1917 6.4161
-47.3962 -1.2044 -35.6518
27.1425 -38.8733 5.6528
39.1758 -26.7041 -32.3599
-26.1012 39.5800 19.2875
-43.1877 19.5621 -14.8819
-40.9161 -23.9526 24.2968
46.3805 9.8334 -36.5332
-31.7539 35.2071 12.1115
24.7961 -40.4104 -34.2145
36.1950 30.6231 -4.4980
44.4812 16.4095 -36.1844
-47.2223 4.2311 -19.6166
34.5890 -32.4261 -12.3911
23.0708 41.4196 -6.0976
-41.3951 23.1148 -26.2661
38.2737 -27.9817 34.9359
45.9301 11.7590 -41.3466
-17.6281 44.0125 -15.8871
22.8305 41.5526 22.2425
-33.4223 -33.6273 -38.1583
9.1674 46.5168 15.8960
-34.8078 -32.1912 -35.2037
-41.5654 22.8072 -41.6225
-34.5816 32.4339 1.9935
-43.4159 -19.0501 -13.4924
-18.9784 -43.4473 39.6565
-37.2992 29.2680 40.3734
34.1831 32.8537 -31.8442
-39.0108 -26.9445 33.2348
-46.1353 10.9264 10.0025
45.9281 11.7670 -18.7079
47.4108 0.2588 -26.2089
23.1424 -41.3797 32.2769
-33.4127 -33.6370 -17.3641
44.4526 -16.4867 -31.6420
25.3607 40.0585 -14.0826
2.2171 -47.3596 -29.1413
47.4105 0.3095 -4.1305
-36.4230 -30.3515 -37.8184
13.6724 45.3973 -13.2582
-45.6037 -12.9675 -0.7753
-47.3738 -1.8899 21.5676
-5.5781 -47.0822 30.2408
17.9441 -43.8846 -23.0207
43.8406 18.0515 -21.6707
19.7670 -43.0943 -18.8060
-12.9271 45.6151 -5.0145
-25.2879 40.1045 11.7129
-10.0430 46.3356 -20.0882
-33.1763 33.8701 -43.9748
-47.4099 -0.3893 -14.6454
22.3054 -41.8368 37.9091
-41.3559 23.1849 36.0562
-7.8013 46.7653 -9.5251
42.3639 21.2873 19.7419
-37.6911 -28.7617 -2.4617
-47.3967 -1.1825 -5.8074
-45.5939 13.0018 36.6745
43.7564 -18.2544 16.1093
-42.8630 20.2637 14.1840
-46.8226 7.4495 42.0439
21.4032 -42.3055 34.1210
33.9615 33.0827 -39.3799
46.6662 -8.3734 23.3610
-47.0822 5.5782 9.5621
-38.0860 -28.2366 -22.4174
46.9595 6.5313 -39.1350
-34.8675 32.1265 -9.6251
14.3155 -45.1986 -38.0474
-33.7947 33.2531 22.8448
-12.0220 45.8620 41.9493
35.9184 -30.9470 44.9613
28.6302 37.7910 36.2260
27.9704 -38.2819 15.9569
45.4910 13.3574 -8.1711
-45.6092 -12.9480 24.0733
-47.3466 -2.4804 -38.2095
32.7553 34.2774 -6.8515
-29.6852 -36.9681 22.1022
-35.8358 31.0427 -8.5907
-6.7739 -46.9251 -17.7662
24.6201 -40.5179 36.4396
-23.8071 -41.0009 -11.3885
-13.8153 -45.3540 -41.1863
-36.6547 -30.0713 15.4413
-45.5031 -13.3161 31.9326
24.5862 -40.5385 29.4927
-30.2163 -36.5352 9.5775
19.6454 43.1498 32.9556
-0.8866 -47.4032 -15.4842
-43.7365 18.3021 23.9444
34.4872 -32.5343 29.5752
-40.1723 -25.1800 -30.3138
47.2510 -3.8973 -40.0504
-42.4413 21.1326 -19.4288
-7.0326 -46.8870 19.8211
38.7622 27.3010 -20.3584
20.6735 42.6668 0.9295
-23.7490 41.0346 8.5685
-43.3642 -19.1676 3.6789
-35.9748 30.8814 -27.6460
-16.6558 44.3896 -2.8840
-2.1324 -47.3635 36.5129
-8.3033 -46.6787 -39.9513
-33.7147 -33.3342 35.0328
-41.9341 -22.1219 -26.4632
-47.3404 2.5955 4.8487
40.5642 24.5438 -3.7785
43.1493 -19.6466 21.4001
35.9626 -30.8957 -17.2229
-43.8496 18.0296 -42.8939
-42.3225 -21.3695 42.7315
-45.6338 12.8609 28.7800
-7.0509 46.8843 -34.4610
15.6981 44.7372 14.1219
38.6640 -27.4399 -42.0737
15.4977 -44.8071 19.7720
46.1587 10.8270 2.3115
-45.1109 14.5895 16.8821
-45.1304 -14.5292 41.3211
-26.7486 39.1454 -45.8796
42.9234 20.1354 -40.4707
34.8806 32.1123 -21.4922
-16.5095 -44.4442 19.1514
46.5588 8.9517 24.9722
-12.7821 -45.6560 -39.2696
41.6470 22.6578 -24.4301
20.8443 42.5836 -31.9909
-28.3699 37.9868 28.3668
-38.5951 -27.5366 34.0480
-38.8136 27.2279 33.0591
-4.5118 -47.1963 -27.0251
38.6739 -27.4259 -13.6118
-42.5552 20.9023 -42.1521
-30.0351 -36.6844 5.1580
-24.2244 -40.7557 40.0023
-44.4498 16.4945 -39.2234
36.6474 -30.0801 3.1133
27.5159 -38.6099 2.6447
39.9338 25.5567 38.3437
46.3543 9.9565 -12.8691
-31.1608 -35.7331 38.4164
0.6334 47.4073 16.6802
-14.1018 -45.2658 -30.9715
-32.7392 -34.2928 -28.8338
43.8171 18.1082 34.9194
-29.9900 36.7213 34.8138
-43.7822 18.1925 -13.4941
-40.6645 -24.3772 41.7092
-16.0493 44.6124 -37.2056
-28.7413 -37.7066 4.8454
23.4169 41.2250 31.9224
-17.6629 43.9985 -46.1357
47.3863 1.5440 -30.2876
-46.5467 9.0143 -7.4061
38.3230 -27.9140 -4.2549
-46.9454 6.6315 -33.5557
5.4900 -47.0926 -31.0920
47.1431 -5.0374 -5.5735
-46.2969 -10.2201 13.7968
-47.2889 3.4078 10.0084
40.0615 25.3560 -2.3077
-15.8317 -44.6901 12.0993
14.5669 -45.1182 -33.6366
11.8005 45.9195 -0.5043
3.6214 -47.2730 13.0553
-13.0649 -45.5759 9.8508
4.9071 -47.1569 -17.5676
-34.2773 -32.7554 10.8801
17.9732 -43.8727 -10.2206
46.9216 -6.7977 4.5409
-46.4278 9.6079 -6.0993
-45.4928 13.3511 38.6937
-45.7420 -12.4706 -35.6728
44.2981 16.8976 1.0639
-23.3054 -41.2881 -21.6464
45.1123 -14.5852 43.0825
23.0307 -41.4420 -46.4810
-37.1043 29.5147 -12.2857
-46.1701 10.7783 19.2932
-26.4866 -39.3231 16.3716
-21.9203 -42.0399 -17.9073
-8.3610 46.6684 -31.5837
5.1193 -47.1343 18.2704
-47.2997 3.2546 -9.6640
-34.9803 32.0036 -15.7678
41.0225 -23.7698 14.6770
34.7843 32.2165 -13.4998
46.9991 -6.2398 22.7746
-18.9330 -43.4671 22.0754
-7.0855 -46.8791 32.5446
-9.8761 -46.3715 33.7707
29.1774 37.3702 26.9205
-12.3134 45.7846 -32.9502
39.2213 26.6371 -3.1665
-44.2357 17.0604 4.0660
-39.2616 26.5778 -2.2553
27.2774 38.7788 27.3798
42.4302 21.1549 24.5833
13.1239 45.5589 -20.8548
46.8479 7.2889 32.9065
-34.2609 -32.7726 45.5059
37.7719 -28.6555 36.8969
40.8490 24.0668 21.9698
-14.1052 -45.2647 -34.6345
45.3552 -13.8116 -35.9986
29.3808 -37.2105 -18.8556
-33.2245 33.8228 -3.9574
2.7484 -47.3318 25.7743
38.8957 -27.1104 -31.9788
-38.5530 27.5956 32.4435
-29.6700 36.9803 -45.9221
-39.5314 26.1748 -32.6340
-46.7353 7.9786 -15.4252
-20.9723 -42.5207 28.7715
-23.0736 -41.4181 44.0359
9.0573 -46.5383 0.0368
-9.5712 46.4354 -10.6876
31.6301 35.3184 12.6361
14.5502 -45.1236 -1.8125
-37.3790 -29.1661 26.7455
22.0781 -41.9572 17.3480
26.2123 39.5065 -9.9228
-42.4453 -21.1246 -19.5312
47.4110 -0.2251 7.5218
-42.5853 20.8410 -28.5517
-36.6557 30.0701 -23.7690
25.1060 -40.2186 10.2494
-40.3152 -24.9507 10.6192
-43.4056 19.0737 18.3490
-25.4080 -40.0285 45.9248
40.5387 -24.5859 -1.6826
0.3291 47.4104 7.8166
-34.8205 32.1774 21.7483
6.9890 -46.8935 -28.8576
-22.7758 41.5826 38.5239
27.3215 38.7477 -15.3133
0.8733 47.4035 36.9567
-10.4910 -46.2362 -9.2820
42.8301 -20.3330 18.6455
-38.2713 -27.9850 -19.4415
-14.5182 -45.1339 -35.2971
18.3327 -43.7237 42.0193
7.7812 46.7686 36.3418
47.1531 4.9432 -6.2643
-38.2641 27.9948 -25.5407
-37.8762 -28.5175 7.1164
34.8509 -32.1445 38.8991
-27.1729 38.8521 -40.5789
-35.6843 31.2166 -23.4890
28.2624 -38.0669 19.5204
-43.0819 -19.7940 45.0601
-47.3996 -1.0621 -4.3130
37.6102 28.8674 -6.9147
-6.1028 47.0171 25.1599
46.5467 -9.0141 -32.5491
7.0019 -46.8916 -24.5862
26.7496 39.1447 14.4284
24.3138 -40.7024 39.4216
15.8356 44.6887 -2.3553
-46.4155 -9.6668 -39.5810
45.8045 -12.2394 19.2873
37.7294 28.7113 30.7749
-25.8104 39.7703 29.2929
-11.9908 45.8702 34.0406
-8.9015 -46.5684 18.6157
-40.7434 -24.2451 -40.7967
-43.0706 -19.8186 43.7568
-44.0787 17.4619 -30.9015
30.9558 35.9108 7.4514
-26.0891 39.5880 5.4010
-4.9043 47.1572 5.7892
47.3063 -3.1564 -27.0346
-3.8980 47.2510 -14.9317
-47.3451 -2.5082 -23.7342
-46.4056 9.7142 -26.2942
-42.9655 -20.0453 -44.8816
-0.5301 47.4085 -21.9938
5.7027 47.0673 23.3829
47.1777 4.7024 41.4413
-25.1021 40.2211 5.0753
-45.5303 -13.2229 -3.9490
47.3636 -2.1301 -8.4436
7.3408 -46.8398 -42.9379
-4.4829 -47.1991 2.0590
44.6459 -15.9561 -32.3294
-35.1368 31.8317 17.1974
-7.2631 46.8519 33.9114
-46.8622 7.1960 6.2334
-0.3273 47.4104 45.7793
-10.0518 -46.3337 -24.1430
17.0011 -44.2585 -9.7500
-8.3453 -46.6713 45.7649
36.0369 30.8089 -14.9528
9.0415 -46.5414 45.8794
-38.7948 -27.2547 -41.4062
8.2625 46.6860 2.8050
-37.4794 -29.0369 -24.7515
12.2528 -45.8009 43.7794
37.0956 -29.5256 13.5239
46.0447 -11.3021 9.5765
47.2237 4.2152 42.5827
38.6168 -27.5062 -22.4979
37.4292 29.1016 -42.8049
27.1224 38.8873 -31.7198
39.3855 -26.3938 -13.1728
39.6446 26.0030 34.3047
-42.7873 -20.4230 13.4554
46.8268 7.4230 28.7250
47.3364 -2.6673 -1.0807
-15.2754 -44.8833 -13.4137
-8.8500 46.5782 34.1168
5.4844 47.0932 4.6509
2.1210 -47.3640 13.3034
-9.5663 -46.4364 18.3129
-11.4775 46.0013 -10.9805
-15.6704 44.7470 22.3556
32.2332 -34.7688 -29.7645
-11.3119 -46.0423 40.6795
45.8449 12.0870 27.8502
3.3783 -47.2910 -18.0404
3.7971 -47.2592 43.5364
-46.7303 8.0078 -38.6296
-5.4790 47.0938 5.4923
38.5917 -27.5415 28.9886
-24.7063 40.4654 26.6044
8.3762 46.6657 30.1577
13.6133 45.4151 27.2577
-47.3734 1.9014 -13.0772
10.5362 46.2260 23.8604
-28.1189 38.1730 15.9120
-44.0168 -17.6174 -4.9533
-11.2837 46.0492 18.3964
1.0198 -47.4005 -2.1295
-5.1706 47.1287 -23.3403
12.3635 45.7711 -12.4677
47.1645 4.8331 -30.0436
8.6721 -46.6116 -45.3216
-40.3913 24.8272 39.6500
29.4583 37.1491 -33.3887
22.9897 41.4647 -46.7041
30.1279 36.6082 31.3770
-38.7857 27.2675 -42.0060
42.8289 20.3357 -28.3540
-21.0067 42.5038 38.6343
47.2701 -3.6585 1.0036
-38.0736 28.2533 -36.3545
-38.4981 -27.6721 16.6892
47.2269 4.1794 36.8598
-31.2082 -35.6917 1.9430
-47.2011 -4.4613 10.9174
27.0184 -38.9597 -44.1228
47.1346 -5.1162 -12.9658
-12.3746 -45.7681 30.5926
-32.7834 -34.2506 37.1227
-20.3008 -42.8454 -23.8993
19.8513 -43.0555 -4.3379
-41.1635 23.5248 14.3107
-41.7561 22.4561 -0.6206
44.6717 -15.8836 -19.0175
15.7562 44.7168 1.2981
-32.8801 34.1577 -3.4040
47.3334 2.7202 -24.7180
12.4486 -45.7480 9.9435
-39.8928 -25.6207 3.4006
43.2495 19.4249 0.7764
18.0956 43.8224 26.2581
30.5107 -36.2897 35.0778
44.0876 17.4393 15.2148
47.1273 -5.1830 29.7576
34.3237 32.7068 -32.3298
-10.2461 46.2911 -3.0533
-0.8874 47.4032 -14.3162
14.1864 45.2393 -37.2796
-39.2462 26.6005 29.6722
-36.4118 -30.3649 -5.6968
-13.4753 -45.4562 -3.6618
-45.3063 -13.9711 -40.3636
47.1919 -4.5581 -8.2513
-37.3816 29.1628 -32.3615
-8.0116 -46.7297 -0.4354
-34.9368 -32.0511 -32.6679
-12.5667 -45.7157 -17.9463
0.8530 47.4038 -9.1461
22.0746 41.9591 -26.4421
46.4873 -9.3154 -1.9379
27.2203 -38.8189 14.1834
34.2488 32.7852 38.5600
26.8032 -39.1080 24.9916
-46.3067 10.1756 39.7400
40.7492 -24.2354 -32.5791
41.3843 -23.1342 -41.9162
-43.9457 -17.7939 33.0735
33.4338 33.6159 -36.4842
33.9562 33.0882 -34.9864
-32.1373 34.8575 31.5864
33.7588 33.2895 30.0221
-23.8120 -40.9980 15.0047
39.4421 -26.3092 -24.9033
-29.0529 -37.4671 -23.2817
-2.4033 -47.3505 31.4348
-20.9036 -42.5545 22.2294
23.7949 -41.0080 -16.9101
-47.4113 0.1445 -38.4533
34.4037 32.6226 -31.1641
45.5602 13.1195 -4.1349
-7.3038 -46.8455 -41.0916
45.7088 12.5918 37.5889
40.8418 -24.0789 3.4102
1.3336 47.3927 26.2963
42.0799 -21.8433 4.3468
-26.4388 -39.3553 28.5360
19.9120 43.0274 -30.0098
3.2249 47.3017 -19.7807
-32.1061 -34.8862 30.8151
-46.1860 10.7098 -39.9100
14.4118 -45.1680 0.0121
-6.4765 46.9671 25.5553
46.8033 -7.5700 33.7046
46.8026 7.5740 2.2621
-13.5282 -45.4405 -0.3217
-2.4122 47.3501 -0.0245
-32.4689 34.5488 37.0183
43.5327 -18.7816 15.6603
47.4026 0.9176 43.6232
10.5344 46.2264 -18.9063
-22.8005 41.5690 23.3275
-45.8458 12.0837 -5.4383
26.4844 -39.3246 -4.2453
35.0688 31.9065 4.5536
1.1492 -47.3976 34.9808
10.5948 -46.2126 22.9737
-45.7584 -12.4103 -16.8560
39.4601 26.2821 -42.0813
3.9478 -47.2469 17.8596
-13.7961 -45.3599 38.0111
-41.0983 -23.6385 -14.2024
8.2906 -46.6810 14.2607
-14.6420 -45.0939 9.8446
-46.8067 7.5485 36.1664
-45.2523 -14.1449 -7.6009
16.7237 44.3641 0.2236
-37.9446 28.4263 -28.2343
-47.3304 2.7710 -27.2774
-45.9933 -11.5095 12.7457
-27.2830 38.7748 39.4493
26.0320 -39.6256 32.7476
47.4088 -0.5043 14.5989
29.2533 37.3108 15.1272
-30.0860 -36.6427 15.6927
-11.6593 -45.9555 19.4450
47.4111 -0.1880 26.6541
-44.5142 -16.3199 9.3752
46.2351 10.4960 31.8748
-38.1803 -28.1090 -46.3654
37.0207 -29.6196 -35.2438
11.0830 46.0979 27.3513
35.0760 31.8986 32.8183
-22.5368 -41.7126 4.6540
-39.9689 -25.5017 40.4612
42.0889 -21.8260 -33.6878
0.8000 -47.4047 -8.0022
38.1888 28.0974 -22.0252
6.4833 46.9661 24.2692
47.2699 -3.6611 -40.4157
-46.0561 11.2555 -27.6146
-46.7033 8.1638 -38.9048
18.2645 -43.7522 14.4685
-35.7640 -31.1254 -29.9086
-47.4044 -0.8175 -13.7075
-13.6060 -45.4172 44.5164
14.2213 45.2284 23.0371
-43.3899 19.1092 45.4107
46.0747 -11.1789 -22.2793
46.5256 -9.1224 -1.7105
-14.1010 -45.2660 37.9660
4.0999 47.2339 -9.8641
-32.4226 34.5923 12.5614
-46.9638 6.5001 15.7801
4.3217 47.2141 22.8998
-44.2697 -16.9718 -16.0297
24.7915 40.4133 27.0780
-36.8575 -29.8224 29.6479
-46.4171 -9.6594 33.7407
-18.4232 -43.6856 38.6171
1.4971 -47.3879 -16.8072
-25.8664 39.7339 -1.5327
-47.4114 -0.0866 42.6931
-6.1704 47.0083 -30.0970
-2.8173 -47.3277 24.0407
-46.3517 9.9683 -32.7858
29.0887 37.4393 28.4790
12.3248 45.7815 38.2631
-27.6630 38.5046 6.3085
41.9328 22.1244 -25.3738
31.2956 -35.6151 34.1301
-44.0208 -17.6073 25.9396
23.6129 41.1130 -24.9675
-36.3618 -30.4248 -15.3127
-13.9189 45.3223 -35.5717
-10.4558 46.2442 12.9049
2.5213 -47.3444 -14.7936
-43.5124 -18.8288 -8.1234
-47.4056 0.7491 44.5834
-45.2074 -14.2877 30.9737
45.2547 -14.1373 -0.4350
30.8658 35.9882 -16.2369
26.9722 -38.9917 -39.4778
31.5453 35.3941 -42.9380
-35.5864 31.3283 -15.6404
-15.9711 -44.6405 -21.7733
-44.1510 17.2784 -18.9376
16.9642 44.2726 -9.3892
21.2063 -42.4045 -45.7982
21.5120 -42.2502 16.7462
2.6957 -47.3348 -11.8148
-6.4023 46.9772 37.6366
45.0264 14.8483 -35.9735
47.0946 5.4725 -40.5246
-20.4210 42.7882 32.9330
5.9170 47.0408 -2.4487
-47.1417 -5.0511 27.2806
14.7382 -45.0626 -25.1368
44.0805 17.4574 24.3357
39.2833 -26.5457 13.1105
-3.8695 -47.2533 0.1136
-37.2396 -29.3438 -2.9814
6.0436 -47.0247 -13.9001
9.1948 46.5114 20.2053
47.3452 2.5069 9.4489
11.6229 -45.9648 -9.8002
45.2735 14.0768 2.5588
-34.8611 -32.1334 40.9755
-22.5613 41.6993 0.1533
2.1696 -47.3618 -33.2555
18.8591 -43.4992 -21.0421
-47.3952 -1.2442 24.7447
29.7167 36.9428 22.4731
-21.3212 -42.3469 40.8235
-31.6769 35.2764 43.4789
-46.9060 6.9048 -44.8178
18.2565 43.7556 1.9887
7.5640 46.8042 -23.3526
5.9292 -47.0393 -37.0139
16.1109 44.5902 -31.7387
4.9152 -47.1560 23.1963
-23.9487 -40.9183 35.8014
19.0154 -43.4312 38.5674
-46.5113 9.1950 -28.4842
11.5571 -45.9813 39.4361
-11.5976 45.9711 25.9083
41.1583 -23.5338 34.6307
17.6401 44.0077 -27.7345
-19.3406 -43.2873 7.3245
-41.2704 23.3368 40.4150
-36.5355 30.2160 22.5734
24.7401 -40.4447 35.7419
-24.8535 -40.3752 26.3969
-11.3510 -46.0326 17.1475
-44.1265 17.3407 6.6472
41.4730 22.9747 23.7677
-46.3245 -10.0939 23.0596
-1.4945 47.3879 -40.7987
-46.9073 6.8963 45.5765
34.0509 32.9907 -37.9210
47.3887 1.4703 33.4980
-22.0465 -41.9738 43.2620
-12.3197 45.7829 19.6177
-45.1445 -14.4852 -31.9428
47.3512 -2.3903 -44.5333
-37.9483 28.4214 39.1899
-46.6517 -8.4539 -44.9482
-25.1171 -40.2117 1.5794
46.4394 -9.5517 -44.9719
-2.5844 -47.3410 -7.2512
-0.5930 47.4078 -14.5952
45.2739 14.0758 5.6686
-41.4016 23.1032 -26.1271
-21.5633 42.2241 23.8323
-39.9775 -25.4882 -7.0945
21.3200 -42.3475 27.7222
-17.4169 44.0965 -25.0366
-23.1650 41.3671 -16.8012
42.9973 19.9770 -28.5692
-41.9589 -22.0749 -8.7762
47.1200 -5.2496 -15.6284
31.4305 35.4961 -46.4344
31.1382 35.7528 -1.9387
-11.5636 45.9797 9.2306
-28.1407 38.1569 -10.6234
13.4606 -45.4606 20.7703
-29.1520 -37.3900 -5.1663
2.8928 47.3232 -19.2682
23.4130 -41.2272 -17.6259
-29.4708 -37.1392 39.2533
-14.6932 45.0773 29.0277
21.5771 42.2170 -7.2132
47.2326 4.1145 8.1414
15.7876 44.7057 -28.1172
44.3393 -16.7891 -7.4956
36.8337 -29.8518 16.3265
42.1877 -21.6345 -27.6172
-14.0005 -1.6061 46.7564
-13.9418 20.9359 46.7564
-0.9253 -25.5426 46.7564
0.0269 0.1396 46.7564
3.5376 20.2916 46.7564
33.0691 8.8573 46.7564
1.4321 -12.0410 46.7564
11.1267 -12.8641 46.7564
26.9093 -18.3062 46.7564
24.6782 -32.9462 46.7564
-8.5128 -41.7962 46.7564
18.2939 3.3828 46.7564
-17.5949 33.9554 46.7564
0.3027 -0.9963 46.7564
3.6759 -8.7337 46.7564
6.9385 37.2794 46.7564
36.8902 23.3591 46.7564
-21.7068 0.2790 46.7564
38.5170 -15.7861 46.7564
-25.9364 -24.4968 46.7564
42.6530 -9.3646 46.7564
1.4605 -16.5625 46.7564
-0.8906 -5.6231 46.7564
20.5299 37.2836 46.7564
-7.4412 -20.9377 46.7564
19.2379 -8.9784 46.7564
25.3238 -4.0299 46.7564
4.2653 -7.1356 46.7564
-1.8726 -27.4438 46.7564
-0.5611 -6.3488 46.7564
-42.8169 -9.8810 46.7564
5.0230 14.7682 46.7564
-32.1582 -25.3892 46.7564
-12.8876 -11.0956 46.7564
39.9925 18.6961 46.7564
-10.6393 13.9179 46.7564
-3.8564 4.6555 46.7564
-10.5690 34.1333 46.7564
12.9241 27.5400 46.7564
-32.4301 -29.5409 46.7564
-36.8355 -0.8748 46.7564
44.0169 3.7737 46.7564
15.0867 -19.1685 46.7564
0.2662 1.2660 46.7564
-0.3611 4.6179 46.7564
5.2313 -1.3695 46.7564
23.2015 -3.2471 46.7564
-7.4024 -29.5587 46.7564
0.8332 -1.4191 46.7564
4.2695 -7.0725 46.7564
21.7443 30.6601 46.7564
38.9835 25.7399 46.7564
21.8263 -22.6461 46.7564
-28.6075 -7.8256 46.7564
26.0922 -7.7255 46.7564
-19.0976 40.3514 46.7564
-36.3797 -9.7904 46.7564
-4.2471 2.0428 46.7564
-45.1058 -1.9652 46.7564
-16.7269 -39.3609 46.7564
13.9194 -11.0900 46.7564
-16.6867 -8.1184 46.7564
10.2002 -12.0203 46.7564
-6.9635 1.4222 46.7564
-21.4673 40.3531 46.7564
-38.8022 -7.6071 46.7564
-2.5225 7.5640 46.7564
2.6048 -2.3665 46.7564
28.1234 32.5649 46.7564
-3.5657 -7.3162 46.7564
-7.4850 0.6888 46.7564
-33.7342 24.7682 46.7564
-13.4657 25.3652 46.7564
-20.2904 27.3933 46.7564
4.3132 9.3182 46.7564
-43.2890 -16.2666 46.7564
25.3632 -34.6153 46.7564
-1.6429 25.3151 46.7564
5.7875 9.4918 46.7564
-13.2812 31.4808 46.7564
-26.3416 -20.8887 46.7564
-43.6732 -9.7716 46.7564
-31.7468 -30.9286 46.7564
-2.4760 8.3171 46.7564
-18.8875 -5.8322 46.7564
8.1168 -38.2496 46.7564
-2.6981 -14.3729 46.7564
-9.0880 39.9125 46.7564
-11.9458 43.1056 46.7564
-14.0792 -0.8782 46.7564
6.5602 9.0012 46.7564
-9.6513 -2.0322 46.7564
-5.5474 8.8376 46.7564
8.8859 9.3038 46.7564
-21.9706 -10.7655 46.7564
37.1192 -6.8318 46.7564
8.2541 25.3336 46.7564
-1.3885 -0.2888 46.7564
8.5950 25.9762 46.7564
15.8772 31.4834 46.7564
3.5937 11.3667 46.7564
-2.0589 1.2243 46.7564
0.3586 -0.0128 46.7564
-32.8112 9.0256 46.7564
10.5203 33.9634 46.7564
41.4909 -2.7493 46.7564
15.3417 9.4322 46.7564
-19.0663 16.9410 46.7564
-0.0094 14.7612 46.7564
-2.3451 -15.8098 46.7564
5.2182 41.4067 46.7564
17.1554 -40.4045 46.7564
28.9076 -13.8509 46.7564
-33.0834 -11.6470 46.7564
36.2328 -4.5845 46.7564
-13.4931 26.6865 46.7564
-21.0618 -6.1476 46.7564
-44.9282 2.7769 46.7564
-25.1037 6.3814 46.7564
38.5186 2.9444 46.7564
-21.2633 2.0027 46.7564
-22.9292 40.8446 46.7564
-24.4226 19.7101 46.7564
-15.9483 11.9937 46.7564
-30.2711 -17.4769 46.7564
9.9666 0.7201 46.7564
-29.8169 9.9666 46.7564
-18.7684 22.6355 46.7564
-43.5510 11.5286 46.7564
22.5826 -7.8591 46.7564
-0.9678 -6.7501 46.7564
-16.0244 -12.6527 46.7564
5.1341 -38.1926 46.7564
10.1711 29.2124 46.7564
-17.7412 2.0953 46.7564
-15.4531 -20.7081 46.7564
-14.7061 -8.2821 46.7564
-14.0359 5.2131 46.7564
25.6478 16.7276 46.7564
-35.2463 -14.0767 46.7564
12.7552 -22.1203 46.7564
17.0558 5.1296 46.7564
29.1840 -17.1270 46.7564
30.5452 15.0694 46.7564
0.7143 1.0320 46.7564
24.3221 27.2188 46.7564
-16.8799 -29.6609 46.7564
-31.1095 -14.6836 46.7564
15.1914 -7.3988 46.7564
-38.8905 8.5787 46.7564
19.7239 -27.0218 46.7564
36.0103 -28.1708 46.7564
-26.8891 7.6534 46.7564
-2.0263 5.9305 46.7564
17.9535 -31.8964 -46.7564
1.1765 -6.1402 -46.7564
-40.5658 13.5015 -46.7564
33.5369 15.8001 -46.7564
6.2750 11.7287 -46.7564
2.4235 0.2937 -46.7564
26.9980 -8.8361 -46.7564
3.8433 -38.7395 -46.7564
-1.8450 0.3924 -46.7564
13.7339 -29.9414 -46.7564
-8.3127 -42.9615 -46.7564
-10.4786 37.3984 -46.7564
-14.9435 -1.1023 -46.7564
0.6714 10.0385 -46.7564
38.4033 -15.9422 -46.7564
-2.8005 -6.0527 -46.7564
0.0134 36.5878 -46.7564
-4.7648 0.0689 -46.7564
-0.4778 -1.0287 -46.7564
2.9781 9.7848 -46.7564
32.2725 -14.2420 -46.7564
-4.5877 0.4476 -46.7564
-0.4260 -30.1662 -46.7564
-33.6103 -8.5131 -46.7564
17.1418 17.4020 -46.7564
1.3835 17.4015 -46.7564
1.1090 2.0669 -46.7564
14.0511 0.3302 -46.7564
-9.9221 11.6967 -46.7564
43.7443 -4.5838 -46.7564
3.6103 10.9625 -46.7564
31.3435 -10.5596 -46.7564
-23.4771 -22.6660 -46.7564
20.6990 2.1580 -46.7564
15.9999 -0.9436 -46.7564
23.0256 -14.8565 -46.7564
35.6060 20.7299 -46.7564
2.5627 3.7647 -46.7564
26.7549 17.4192 -46.7564
-14.9339 25.8295 -46.7564
-17.6703 31.4839 -46.7564
10.5121 -24.1287 -46.7564
12.5216 -33.6591 -46.7564
12.2778 6.0019 -46.7564
-21.9008 -13.6544 -46.7564
0.4695 -0.0537 -46.7564
0.2349 -0.0398 -46.7564
30.7787 29.8477 -46.7564
-9.2173 1.0708 -46.7564
-32.0947 -14.6426 -46.7564
-30.5689 -19.1127 -46.7564
13.6938 23.4766 -46.7564
-4.1336 -9.6747 -46.7564
8.8469 -1.0780 -46.7564
25.8680 12.6594 -46.7564
-9.6343 0.4275 -46.7564
-33.4620 25.1493 -46.7564
-1.8236 24.3644 -46.7564
7.0076 -40.9819 -46.7564
-0.4034 -33.2942 -46.7564
41.4755 -3.6675 -46.7564
10.0880 -16.2176 -46.7564
-32.7970 23.2903 -46.7564
-17.8800 15.0646 -46.7564
-37.9644 4.0784 -46.7564
9.2303 -20.0122 -46.7564
-28.0981 -2.8405 -46.7564
-15.4965 14.8666 -46.7564
5.5825 3.4185 -46.7564
-2.9093 -34.4732 -46.7564
23.6378 32.2526 -46.7564
28.3071 9.2222 -46.7564
1.8102 -3.3244 -46.7564
-17.1745 -27.5655 -46.7564
-0.4919 -0.6124 -46.7564
-9.8302 -3.3667 -46.7564
17.7865 18.2875 -46.7564
3.0194 -9.0055 -46.7564
-18.1468 -0.8690 -46.7564
-24.3543 -25.0176 -46.7564
16.4387 12.0588 -46.7564
-7.0929 -1.0795 -46.7564
-12.0707 39.3459 -46.7564
3.4435 -4.4413 -46.7564
1.1120 0.1358 -46.7564
-19.1854 34.7030 -46.7564
8.1568 19.2678 -46.7564
19.9979 -39.4663 -46.7564
4.7501 2.0727 -46.7564
-8.3965 2.4447 -46.7564
-2.8676 37.2976 -46.7564
12.8713 15.7150 -46.7564
-33.0700 30.4060 -46.7564
13.7823 -32.4750 -46.7564
-4.8541 -3.1311 -46.7564
-28.4857 16.6420 -46.7564
-1.0385 1.2247 -46.7564
22.0715 -3.4077 -46.7564
-25.1339 -8.9731 -46.7564
2.2750 -8.7038 -46.7564
-5.4381 0.6669 -46.7564
-7.0050 8.3712 -46.7564
6.1148 2.1597 -46.7564
-3.6827 -0.3614 -46.7564
-1.2974 45.8707 -46.7564
-4.4854 4.0898 -46.7564
6.8516 -0.4000 -46.7564
-36.9231 -10.1317 -46.7564
12.1880 25.0773 -46.7564
-1.4237 -17.5235 -46.7564
12.1310 26.2564 -46.7564
13.4438 13.7249 -46.7564
37.1886 -4.4235 -46.7564
-0.7692 -8.3051 -46.7564
-22.9581 40.6246 -46.7564
-2.9116 -9.8808 -46.7564
-5.5691 -3.5491 -46.7564
-25.5639 -12.0792 -46.7564
-1.1654 0.2186 -46.7564
6.0721 9.6290 -46.7564
2.4013 11.1614 -46.7564
1.3614 -8.0270 -46.7564
2.0979 8.2506 -46.7564
6.5400 -1.6134 -46.7564
4.3210 -23.4982 -46.7564
20.1120 -15.4709 -46.7564
-41.3977 12.2692 -46.7564
3.3057 -0.5953 -46.7564
-33.3737 23.2356 -46.7564
-10.1456 -29.3983 -46.7564
-1.1534 -18.5095 -46.7564
12.4781 -0.8347 -46.7564
-33.9456 25.3336 -46.7564
22.5590 2.1527 -46.7564
-13.4728 9.3594 -46.7564
7.6496 5.5926 -46.7564
-1.4203 -0.6383 -46.7564
0.6630 1.3178 -46.7564
5.6739 27.7095 -46.7564
18.2052 -0.3378 -46.7564
3.3897 40.5456 -46.7564
-0.0158 -1.0938 -46.7564
-3.4691 40.2753 -46.7564
-40.4065 -15.7430 -46.7564
-8.9406 -1.0858 -46.7564
-10.6998 31.8970 -46.7564
20.8308 15.6569 -46.7564
-21.1773 30.3937 -46.7564
-6.7508 -28.2543 -46.7564
-5.7318 -1.4393 -46.7564
2.6781 1.8620 -46.7564
-16.4615 -39.5191 -46.7564
-11.8792 2.4486 -46.7564
-6.2900 4.4594 -46.7564
