ply
format ascii 1.0
element vertex 1024
property float x
property float y
property float z
end_header
1.4854 -98.3097 5.7639
87.7649 -44.3207 -21.8772
-96.6945 17.8095 0.9591
-80.4948 -56.4588 14.5285
-35.3434 91.7488 -20.0620
13.5523 -97.3824 -38.9107
-96.9175 16.5527 -28.3443
-2.1770 98.2968 -13.4938
98.1075 -6.4749 -6.4115
-89.5898 40.5051 4.2030
-77.4308 60.5927 -26.8996
-88.0843 -43.6824 -28.6133
-82.6332 53.2800 34.5466
48.9124 -85.2911 22.7641
86.6057 46.5452 -10.7800
87.4199 44.9975 22.8381
-40.5967 89.5484 -25.7073
91.0197 37.1809 34.6784
-20.9012 -96.0736 -37.2270
-43.2093 -88.3174 26.8899
3.2265 -98.2680 -15.8322
31.4691 -93.1488 -4.8502
89.0032 41.7784 16.8783
75.9836 -62.3979 -31.7346
53.8269 -82.2780 -5.1831
-23.3583 -95.5060 -22.5806
-0.3732 -98.3202 8.7647
19.5946 -96.3486 -27.7901
25.5035 -94.9557 -0.7714
-96.7480 17.5164 5.0904
12.0434 97.5805 38.8926
-58.0187 79.3778 29.7530
54.8698 81.5862 -26.8268
46.6164 86.5674 26.4897
-28.7485 -94.0241 27.3910
64.5261 74.1848 11.4501
-59.7096 -78.1138 4.4064
-97.3273 -13.9430 15.0992
83.1361 -52.4918 -20.6392
-97.5097 -12.6041 -34.6257
-98.0011 -7.9235 18.9745
91.1178 36.9399 15.3281
94.0434 28.6852 -15.3061
87.3542 45.1249 0.3577
96.1813 -20.4002 17.8661
-97.3343 13.8936 12.2084
-91.1210 -36.9320 7.0490
-98.2616 3.4142 -33.6319
47.8761 85.8771 -24.1832
-95.4839 23.4483 -12.1677
2.8704 -98.2790 -1.2602
89.9616 39.6727 29.8337
94.0090 -28.7979 18.4401
-22.4457 95.7246 -1.6360
88.1444 -43.5610 -25.5714
2.7333 -98.2829 -27.6856
-85.9664 -47.7156 17.2297
96.2273 -20.1820 8.9141
56.6310 -80.3737 -18.2959
-77.6250 -60.3437 -0.3474
-1.1359 -98.3144 -12.9794
-98.2326 -4.1665 26.6959
97.4646 -12.9485 9.2588
92.4718 -33.4060 2.6871
23.2641 -95.5290 9.9710
82.7225 53.1412 -18.7283
56.2699 80.6269 -29.1727
91.8434 -35.0969 24.6837
85.9688 -47.7113 29.9329
52.2210 -83.3065 34.3801
50.6051 84.2979 5.3276
92.9503 -32.0508 10.7252
-98.3049 1.7724 29.9208
-68.7264 70.3113 20.3274
-34.6614 -92.0086 -23.8453
-92.6398 32.9375 -25.9875
-88.4360 -42.9661 6.0141
42.2033 -88.8025 -24.0873
-71.5452 -67.4410 8.9250
91.5597 -35.8305 -16.6382
-88.3311 43.1812 25.8225
49.8252 -84.7611 -5.4039
97.9792 8.1908 2.3810
69.8105 69.2351 -3.9678
74.7149 -63.9115 16.3216
34.3524 -92.1245 30.4657
-16.3194 -96.9571 -27.6389
81.0151 -55.7096 -37.9856
49.8844 -84.7263 25.7848
47.0045 -86.3573 19.3810
93.0058 -31.8892 -37.0602
97.7053 10.9856 -12.4319
11.5487 97.6403 -18.4366
12.9818 -97.4601 -12.4225
93.4389 -30.5970 -20.8089
-11.1324 97.6886 17.5294
80.5937 -56.3176 9.0143
-97.0860 15.5342 -38.9477
97.8974 -9.1155 30.6503
-40.7794 89.4653 -0.4598
81.7720 -54.5925 11.4560
-94.3346 -27.7127 -10.0307
-62.7046 75.7306 18.7288
-82.6907 53.1907 -21.0153
12.7439 97.4915 -23.6546
-86.9846 45.8331 11.6104
-98.0484 7.3147 -11.1184
95.1630 -24.7186 24.6429
65.0883 -73.6920 -22.6694
90.0429 -39.4877 38.7667
55.9539 80.8466 -38.3024
98.1452 -5.8762 15.5547
89.3099 -41.1186 -23.6136
-73.8504 64.9085 19.8993
-63.3962 75.1527 -17.2880
89.4116 -40.8970 17.0025
-96.8173 17.1295 -23.9080
30.3228 -93.5282 10.6826
26.7999 94.5979 31.6833
5.0201 98.1927 28.7337
-9.0171 97.9066 13.0749
-73.7976 -64.9686 -26.0930
92.0186 -34.6349 -26.9603
97.7221 -10.8350 18.6942
40.3544 89.6578 -1.1419
10.2232 97.7880 23.4117
51.1972 -83.9396 36.4424
-82.2977 -53.7967 33.4446
-71.9915 66.9644 33.9166
-61.6479 -76.5934 -26.3898
-97.8706 9.3990 11.6658
47.4337 86.1223 -22.0649
-93.7650 -29.5826 30.1271
-88.7315 42.3524 36.6448
-75.4479 -63.0445 4.0605
97.8498 9.6135 -35.3606
68.1248 70.8944 23.1841
-5.9357 98.1416 -4.1284
-94.6980 -26.4440 18.1736
97.6589 -11.3909 -23.6107
-95.5499 -23.1782 26.8976
-96.3496 19.5897 -15.1081
-29.7125 -93.7239 -15.4375
-29.4316 -93.8125 -3.1670
-35.8062 91.5692 14.6441
87.6800 -44.4884 10.3299
64.8715 73.8829 -6.9271
94.5200 27.0734 14.2691
-13.3689 -97.4078 23.0565
-92.6701 -32.8522 14.3716
-90.3573 -38.7628 -9.7015
-14.5760 97.2345 15.8409
-73.2520 65.5831 29.7247
-97.5839 -12.0162 -21.9866
89.6875 40.2883 -36.6808
58.7946 78.8048 -5.9453
-74.7244 63.9004 -23.4059
84.1791 -50.8025 35.8327
-24.0292 -95.3394 13.5116
-35.3735 -91.7372 5.8197
62.2930 76.0696 5.4863
-54.9719 -81.5174 -9.4460
78.5798 -59.0950 -25.2703
-71.2404 -67.7629 -14.3396
-8.1532 -97.9823 21.0615
9.6543 97.8458 30.4257
82.7320 53.1264 2.1159
3.9730 98.2406 -30.6065
-88.5939 42.6395 -20.8484
-10.6981 -97.7372 32.6925
-17.7825 96.6995 -3.2394
1.5731 -98.3083 -17.0859
-98.2993 -2.0612 -12.1760
-13.8085 97.3464 24.3122
-94.9877 -25.3837 15.6202
71.2967 -67.7036 7.6173
-26.2721 -94.7459 -15.3338
43.4749 -88.1870 2.4314
-97.3992 13.4310 32.4516
73.3660 65.4556 -28.7763
61.6619 76.5821 28.3093
60.6038 77.4221 -29.3253
3.5141 98.2581 38.9583
-66.0696 -72.8135 -4.6757
-43.8127 -88.0196 -19.0995
-75.4162 -63.0825 -36.8603
-0.3896 -98.3201 29.6743
-65.9770 72.8974 23.6534
24.1513 95.3085 34.7755
64.9237 73.8370 -14.4264
-45.9065 86.9459 -34.7576
-73.6691 65.1143 -5.2433
97.3972 13.4460 24.4471
-81.8132 54.5308 -26.0235
91.4546 -36.0980 -12.4415
-17.8960 -96.6785 28.8645
21.4073 95.9621 -19.7073
60.9887 77.1192 -34.2208
-65.4798 73.3444 16.3332
23.0634 -95.5776 -3.3003
67.0761 71.8874 1.9982
61.6888 76.5604 -38.6928
34.2212 -92.1733 19.5936
-42.7703 -88.5308 -1.7443
97.0136 15.9804 -19.9742
46.9846 -86.3681 -3.8002
49.9353 -84.6963 8.0515
-63.2153 75.3049 25.7339
-31.7456 93.0549 -11.9505
-29.5545 93.7739 -6.1653
63.1380 -75.3697 36.8006
-51.5209 83.7413 -37.7995
77.1456 60.9553 -13.0772
50.0377 -84.6359 -24.7899
-91.9640 -34.7798 -38.5005
-96.8067 17.1890 -9.7285
-97.8899 -9.1967 -4.7421
98.2929 -2.3474 34.3599
-59.3996 78.3498 36.3458
90.8886 -37.5003 31.1383
30.1888 -93.5716 -20.8252
-79.9471 57.2316 9.5826
-94.6063 26.7704 0.9290
-63.4811 -75.0809 -3.5113
98.1513 -5.7723 -3.0032
21.9206 95.8462 -21.5649
-89.2288 41.2943 -31.7088
-54.3825 -81.9118 -32.8311
-91.6068 35.7100 -35.4295
14.7547 97.2075 18.6784
95.8871 21.7409 27.2007
-98.3101 1.4560 29.7309
-97.8774 9.3286 16.7335
49.2676 85.0865 21.6909
-98.2288 4.2548 6.6019
89.5294 -40.6386 -28.1603
-1.8564 98.3034 37.1332
26.0593 94.8046 8.1078
43.6706 -88.0902 36.1526
-61.9529 -76.3468 12.2314
28.1932 94.1921 7.9568
25.2280 95.0292 26.2372
-94.8028 -26.0659 -31.9626
78.4390 59.2817 -32.2687
-19.6739 96.3324 31.0675
-37.9715 90.6927 -7.5665
29.4217 -93.8156 -32.9153
-20.6629 96.1252 -6.9152
7.0503 -98.0678 21.5027
-45.3952 -87.2140 -24.8202
-98.1547 -5.7152 -1.7047
92.0279 -34.6102 -17.2775
24.3327 -95.2624 -34.8128
4.9689 98.1953 -18.5825
96.9733 16.2227 4.3602
85.2828 -48.9269 -33.4082
23.9092 95.3695 -35.0299
-97.7797 -10.3025 38.2734
46.9452 86.3895 -25.4174
-72.1796 -66.7616 -28.2774
90.4902 38.4516 -6.9668
-89.5536 -40.5851 8.8924
-53.9350 82.2072 -25.7016
-96.6140 18.2413 34.1365
-98.2772 2.9313 -28.5261
-96.5613 18.5182 -30.0860
57.5170 -79.7420 2.4666
-69.6154 -69.4313 -34.8304
21.3878 -95.9665 5.4530
-23.1885 -95.5473 29.2574
-95.0727 25.0636 13.1510
-94.3103 -27.7952 25.6305
-81.5782 -54.8817 27.4962
-88.1000 -43.6507 34.5648
34.7691 91.9680 -22.4524
-64.1592 -74.5024 -2.3414
-96.9126 -16.5816 7.2596
-75.9358 62.4560 -32.3247
0.7696 -98.3179 5.2591
34.3176 92.1374 -17.6908
7.8180 -98.0096 31.8662
85.6376 -48.3032 8.5403
-81.8855 54.4221 -37.9103
56.7107 80.3175 -8.0954
-85.3170 48.8673 19.0410
-96.1876 20.3705 3.9091
72.8145 -66.0686 32.9185
69.0487 -69.9949 -5.3586
-49.8149 84.7672 14.4314
16.1582 -96.9841 11.0317
44.0853 -87.8834 20.3422
97.7714 10.3808 19.0108
-22.8694 -95.6242 -27.9737
29.4643 93.8022 19.6392
96.2862 -19.8988 -10.4727
39.0861 -90.2179 10.7049
89.7166 -40.2236 21.0354
-90.4437 -38.5609 -15.8380
-69.9953 69.0482 37.5928
83.9629 -51.1590 -10.7606
64.2740 -74.4034 -16.9035
-29.2276 -93.8762 9.0728
-97.7997 -10.1108 9.9707
8.2006 -97.9783 -18.3558
73.5866 -65.2075 -4.4227
-96.3638 19.5196 2.7997
7.1286 -98.0622 13.1765
41.4827 89.1414 -13.1987
49.3649 85.0300 28.1732
79.2598 -58.1798 -36.2628
-98.3054 -1.7442 -29.1871
24.2189 95.2914 -28.8802
-12.3286 -97.5449 -36.6295
-41.2856 -89.2329 -11.9224
-94.4767 27.2242 -26.2805
34.0737 92.2279 11.6732
16.2892 96.9622 -14.8857
-43.7823 88.0347 -2.1465
49.7042 84.8321 -33.3945
-84.8098 -49.7423 15.4145
-14.7842 -97.2030 29.2846
37.8940 -90.7251 6.9052
10.2906 -97.7809 -3.0037
98.0342 -7.5033 13.3478
48.4736 -85.5413 15.8473
-95.3236 -24.0916 -26.6879
11.4532 -97.6516 0.7221
64.8833 73.8726 7.0283
-6.8176 98.0843 -17.4163
86.5757 46.6010 38.1414
70.1905 -68.8498 -5.7793
-76.0485 62.3188 -3.2158
-90.4613 38.5195 4.0283
-84.3809 -50.4664 10.0094
63.0553 -75.4389 23.6752
-98.1898 5.0765 12.4542
-93.6001 -30.1001 -32.0597
-81.2555 -55.3584 -5.9392
68.3941 -70.6346 -13.1015
-95.7918 -22.1569 9.9072
-91.4634 -36.0755 20.4059
-73.9681 -64.7744 -0.7237
96.7255 -17.6406 28.6996
-58.3520 79.1331 -12.7142
73.8079 64.9569 7.9989
37.5928 90.8504 11.5110
97.5050 12.6400 -18.4927
95.6074 22.9398 -25.8920
-46.9161 -86.4054 12.9720
-58.0083 -79.3854 0.2044
50.2451 -84.5129 17.6663
95.7098 -22.5084 17.2361
-87.9241 -44.0040 -24.4923
4.8361 -98.2019 -7.7323
-76.6137 61.6226 15.7036
-92.5959 33.0606 33.7115
-12.1486 -97.5675 -23.2520
0.2297 -98.3207 -10.3681
80.0309 57.1144 -36.2828
54.6363 -81.7427 -31.6706
4.2584 -98.2287 35.8196
44.8170 87.5125 0.0525
-89.5183 -40.6630 9.8208
-69.6934 69.3529 -1.5738
94.9818 -25.4059 -15.5034
15.9235 97.0229 2.3420
-64.5676 -74.1487 -2.6647
0.1813 98.3208 -2.9320
1.5283 98.3090 25.6363
-92.0213 -34.6277 -30.4928
63.7042 -74.8918 25.1304
-33.7163 -92.3591 1.3910
-96.2377 20.1324 -33.0126
97.6472 -11.4905 34.6538
-93.6363 -29.9875 16.6076
-91.1423 36.8793 -0.7272
45.2726 -87.2777 -26.0783
90.6622 38.0442 15.3274
-5.6561 98.1581 6.9586
16.8647 -96.8637 -31.6162
64.2972 74.3833 -1.6854
76.3110 -61.9971 -22.2219
-4.9582 98.1958 -25.0004
-2.9251 98.2774 -27.7189
-22.5982 95.6887 -23.0139
-86.2219 -47.2524 20.6743
98.3069 1.6621 -18.4810
74.1226 64.5975 11.6596
3.3861 -98.2626 31.4166
-86.5638 46.6232 15.6997
-89.5986 -40.4857 -30.7203
32.2241 -92.8903 1.6755
92.6877 32.8022 -21.8511
-76.0690 -62.2938 24.3950
-49.7831 84.7859 28.3778
-96.1652 -20.4758 -10.3268
97.4314 13.1953 -21.7850
25.1410 95.0523 15.7453
-63.9612 -74.6724 -29.5356
-55.3788 81.2416 -12.9698
92.4932 33.3469 -7.9672
15.7442 97.0522 38.5661
95.2238 -24.4835 8.0523
32.7861 92.6934 -27.2770
20.3594 96.1899 24.3520
-14.8297 -97.1961 -7.6076
-64.7319 74.0053 16.0690
44.4886 -87.6799 -36.0250
-70.9355 68.0820 7.2506
19.2419 -96.4197 -12.6117
74.9660 -63.6169 17.2234
59.7816 78.0587 -12.3680
51.6787 -83.6440 -17.9789
-80.7733 56.0596 -4.2395
-72.9278 65.9434 21.7963
-67.9074 -71.1027 -23.1783
46.2357 -86.7713 -24.3830
-54.8651 81.5894 -0.9147
-24.7849 -95.1457 -13.6961
-78.9608 58.5850 20.4959
61.4786 -76.7293 -17.0340
96.8717 -16.8188 -23.5798
16.3506 -96.9518 37.9648
-97.1883 -14.8806 -18.9115
-92.6080 -33.0266 -22.8353
-27.6260 -94.3600 5.7461
91.6885 -35.4997 14.8806
7.1216 -98.0627 1.1495
-65.7117 73.1367 10.2848
-52.3981 83.1952 34.0433
74.3483 -64.3377 22.8418
86.1389 47.4036 32.2193
-97.6297 11.6382 6.9781
-95.9209 -21.5911 -28.2751
98.1901 -5.0695 14.3633
98.1092 -6.4485 35.7739
-5.8139 98.1489 16.4752
79.7955 57.4429 34.6093
-13.9697 -97.3234 24.5265
-28.2321 94.1804 1.8862
-52.9813 -82.8250 13.3057
-91.1557 -36.8461 -28.6752
95.5370 -23.2311 25.5553
38.3117 -90.5495 30.7761
92.9711 -31.9902 31.0143
-95.9701 -21.3717 9.7427
-75.5869 62.8779 -21.6410
-4.1310 -98.2341 -2.9320
11.2127 97.6795 -31.0566
-64.1016 74.5519 32.8804
-88.7125 -42.3922 17.7240
-94.4820 27.2057 33.1117
62.9669 75.5127 -1.1385
96.5686 18.4798 -35.2180
3.8005 -98.2474 23.3481
96.8331 17.0399 12.7128
-94.5034 -27.1313 16.8128
-66.0335 -72.8463 8.2243
-98.1152 -6.3571 0.2328
76.0472 -62.3203 -22.7943
94.4840 27.1987 13.1868
58.5753 78.9680 -35.7657
-78.0815 59.7519 -0.6708
68.7211 70.3165 -15.2076
90.8769 37.5286 2.5628
-30.4828 -93.4762 7.1753
52.8758 82.8924 3.5623
-98.1693 -5.4586 11.0324
95.1262 24.8599 24.9475
97.5477 12.3062 -26.6235
-63.3394 -75.2005 2.3451
-98.2960 2.2151 -24.0953
-55.0508 -81.4641 21.9041
-38.8994 -90.2986 -29.4651
13.3566 97.4095 31.3452
29.7970 93.6971 28.1192
39.2749 90.1359 -10.2754
-93.1275 31.5322 -11.1021
82.2922 -53.8052 -36.7038
29.6057 -93.7577 27.7299
-5.5927 98.1617 7.7896
-56.8149 -80.2439 11.8984
98.3094 -1.5080 -27.6720
-92.3144 33.8386 -8.8223
-23.0899 95.5712 4.7525
-42.1445 -88.8304 1.0831
-25.0942 95.0646 4.3109
56.9613 -80.1399 5.8908
-90.0084 39.5664 -22.0717
79.5431 57.7919 -27.3266
-98.3187 -0.6654 -28.6776
76.8359 -61.3453 36.0107
-85.8788 47.8730 -11.6047
-22.4097 -95.7330 26.7911
-55.9695 80.8357 27.1949
-16.4596 96.9334 27.7666
-24.6881 95.1709 -37.3499
-58.7307 -78.8524 -38.4042
-75.9857 62.3954 -35.1098
-90.4336 -38.5846 -18.8466
97.6326 11.6140 16.5109
76.4874 61.7793 35.6407
-57.1250 80.0233 9.7360
9.3085 97.8793 -23.2664
-67.0555 71.9067 -1.7708
-39.7928 89.9085 -9.3224
-40.9773 -89.3749 -24.4203
-89.7835 40.0739 22.1017
-20.9417 96.0648 31.0799
-93.9512 -28.9858 18.6365
97.4050 -13.3894 17.1942
-88.0176 43.8166 29.8584
-97.2793 -14.2736 -37.9247
66.2147 -72.6816 -5.3827
-92.9189 32.1415 27.0679
-92.8008 -32.4810 -2.4900
97.2359 -14.5665 13.9344
-51.3845 -83.8251 14.5644
-88.3177 -43.2087 -23.4370
-54.3957 -81.9030 -14.1570
-10.1205 97.7987 -17.6394
-41.3706 -89.1935 36.8511
-88.5379 -42.7557 10.6802
-49.9252 -84.7023 1.1856
3.6667 -98.2525 33.4709
-98.2095 -4.6799 20.6274
-98.2959 2.2160 6.4919
-98.0557 -7.2163 -0.5382
-93.4985 -30.4143 10.5936
96.0033 21.2221 29.2745
96.8956 -16.6806 -1.0958
98.2512 3.7026 0.1054
34.6544 -92.0113 28.8571
26.3568 94.7223 -38.2120
-96.7509 -17.5004 24.8887
51.2079 -83.9330 -24.9012
-60.7707 77.2912 24.5425
-69.2142 -69.8312 29.7447
-61.3518 -76.8307 11.7044
98.2188 -4.4807 38.3539
98.0147 7.7533 -26.4782
69.5713 -69.4755 -28.1448
-77.3760 -60.6627 0.8826
40.5968 89.5483 -33.9347
-8.4886 97.9538 29.7174
-70.4040 68.6315 34.7957
-46.5305 -86.6136 -24.8324
16.9522 -96.8485 -31.5619
63.3677 75.1767 29.8386
-82.5709 53.3765 -26.2068
-10.3826 97.7712 -26.5353
-95.2396 24.4217 -14.9208
81.5075 54.9866 -29.4062
72.4663 66.4503 36.3313
49.6549 -84.8610 38.4199
-95.6129 22.9166 -23.3331
-33.7995 -92.3288 -4.4680
27.5152 94.3923 13.4236
65.5243 73.3046 34.6080
-90.9200 37.4240 -13.5468
98.1460 -5.8620 -32.3094
-92.2805 -33.9309 11.0245
-98.3198 0.4701 -12.4420
85.5208 -48.5097 11.5079
89.2440 -41.2615 11.5174
-53.2084 82.6793 6.0800
69.9742 69.0696 -2.0486
19.0447 96.4588 8.0621
-89.4252 40.8672 35.4819
97.5284 12.4582 32.1778
-25.4707 94.9644 12.2725
-89.5120 40.6768 -36.5817
27.0499 94.5267 25.8478
97.9412 -8.6323 -23.2324
-97.8219 9.8934 -30.4129
-97.5364 12.3957 -34.7757
0.8017 -98.3177 26.3851
-13.7024 -97.3614 4.8712
-97.4249 13.2437 5.8564
-97.0235 15.9201 9.0702
13.1083 -97.4432 0.9830
88.0965 43.6579 -15.0119
26.0818 -94.7984 29.2831
44.6280 -87.6090 -19.8301
-97.5258 -12.4792 32.3946
-12.5995 -97.5103 -22.8343
-15.7184 -97.0564 -27.7947
-86.7185 -46.3346 -19.9929
60.2082 77.7302 -16.9471
-36.7034 91.2133 31.4691
-54.9178 -81.5539 -2.8045
56.4557 -80.4969 -36.5312
-98.3203 0.3495 -13.5527
-52.8575 82.9041 -11.4431
44.9577 -87.4403 20.0423
92.5207 33.2704 9.1974
-65.2075 73.5865 10.9615
92.0880 -34.4501 -5.4082
90.0265 39.5252 28.4635
71.9998 66.9555 -9.3068
-84.8399 49.6910 -21.9896
80.5492 -56.3812 -27.9622
-32.2946 -92.8658 36.1135
-41.6478 89.0644 -35.2962
32.9238 92.6446 -1.4271
45.6596 87.0758 -15.3932
95.2897 24.2255 26.2511
-82.1385 54.0395 24.1136
62.0350 -76.2802 -17.8552
82.7831 -53.0467 16.3446
51.0782 -84.0121 24.9717
97.9552 -8.4721 -26.0298
-85.0476 -49.3346 -9.4659
-72.4758 -66.4399 -37.5945
-74.5291 -64.1281 -6.1029
-80.8752 55.9125 27.0634
-73.6417 -65.1453 -9.8417
11.0526 -97.6977 -21.7832
48.1290 -85.7356 -26.8218
42.2913 -88.7606 -13.4098
-92.0376 34.5844 10.5133
98.0383 -7.4500 5.3302
75.3046 63.2157 -3.0455
-66.4839 72.4354 17.7788
-96.0863 -20.8431 24.9137
-81.0218 -55.6999 31.3302
67.8155 71.1903 19.8645
6.4136 98.1115 3.3327
84.9045 49.5805 21.1495
6.1206 98.1302 5.7257
-71.8313 -67.1362 32.3654
69.9467 69.0975 -33.2177
54.7347 -81.6769 16.9186
30.2224 -93.5607 34.8988
68.3994 70.6295 3.8631
-86.8276 46.1299 5.8096
98.1436 5.9028 30.8597
-75.9841 62.3972 4.1275
94.8222 25.9951 5.5676
97.6723 -11.2752 18.8403
97.9313 -8.7446 -32.6120
-94.7305 26.3274 -7.0892
93.2558 31.1507 20.4587
-79.1394 58.3434 17.1983
-14.1735 -97.2940 21.2032
60.0245 77.8721 -22.7435
89.4594 -40.7925 -0.4610
-98.1171 -6.3281 4.4303
-93.7031 29.7780 28.4788
92.2172 -34.1027 -37.5600
5.6467 98.1586 3.2869
-0.1300 98.3208 13.4949
64.9561 -73.8086 21.9760
97.9737 -8.2554 15.9234
98.0379 -7.4546 -1.3237
87.0260 -45.7545 25.8813
-96.6767 17.9059 9.8881
97.7024 -11.0115 5.5729
98.3078 1.6031 -27.9365
89.4878 -40.7301 1.6161
48.5960 85.4718 -28.4911
-68.8229 -70.2169 14.3466
52.9479 82.8464 -31.5525
-13.2551 -97.4233 7.4544
-20.7528 -96.1058 8.6025
-15.9902 -97.0119 16.0417
-49.8460 -84.7489 -9.4843
70.9429 -68.0743 8.1700
-97.2374 -14.5568 24.4179
-63.9256 -74.7029 37.8750
-80.1674 -56.9226 13.8556
-14.4268 -97.2567 -28.7325
91.5162 -35.9416 -17.7030
-87.3411 -45.1502 -7.2987
81.9987 54.2513 -2.4730
-8.6268 -97.9417 -6.1754
-82.9103 52.8478 -27.1959
43.5625 -88.1437 18.7107
-52.8172 -82.9298 -15.0644
-39.8862 89.8671 9.4728
-41.5731 -89.0993 -21.8760
95.5110 23.3376 -0.3730
81.1648 55.4912 28.4206
-79.1541 -58.3235 -22.9217
-36.5882 91.2596 2.1959
-14.3723 -97.2648 -26.0234
-17.8697 -96.6834 10.5167
-82.4214 53.6071 -14.5813
-68.4501 70.5804 -25.9834
97.6247 11.6801 -35.6768
18.1008 -96.6404 -26.9799
-50.2402 -84.5158 26.5009
81.6120 54.8315 27.2635
97.2644 14.3753 24.0622
-97.6247 11.6797 -4.3687
-61.1128 77.0210 -38.0392
88.7882 -42.2335 -18.3768
92.1782 -34.2080 18.2653
-66.5160 -72.4060 5.3179
44.2708 -87.7901 -11.0879
96.5127 -18.7695 38.6656
-75.0674 -63.4972 -5.1131
-67.9066 -71.1034 18.6811
-97.9473 -8.5631 -31.8355
-98.3172 -0.8507 15.3464
-87.9809 43.8903 36.5026
-79.9244 -57.2634 -21.8600
-73.4667 -65.3426 10.1998
96.8671 16.8457 -24.0975
69.4547 -69.5920 -29.5435
54.5191 81.8210 -24.2788
-88.6484 42.5260 13.7789
80.7663 56.0697 -0.7156
96.5883 -18.3766 29.7980
-45.4218 87.2002 12.3153
36.6883 -91.2194 30.2706
5.0985 -12.5940 38.9883
12.3837 12.5824 38.9883
2.1950 -84.6899 38.9883
-5.1362 3.2205 38.9883
-22.4917 12.2561 38.9883
66.6226 48.7412 38.9883
-0.4830 -31.9911 38.9883
-17.8302 75.6620 38.9883
-56.3017 -33.8782 38.9883
14.3979 26.9468 38.9883
14.8694 -27.4239 38.9883
-5.4533 -17.8627 38.9883
15.1582 12.8977 38.9883
20.1346 17.9803 38.9883
78.9353 10.0433 38.9883
38.8603 -26.3322 38.9883
79.8312 -29.7037 38.9883
91.4582 16.5715 38.9883
-6.5642 1.4698 38.9883
-71.4764 -12.1100 38.9883
79.3570 26.0909 38.9883
27.6580 -85.7368 38.9883
2.4256 -0.0561 38.9883
-16.3273 -18.9703 38.9883
-1.2937 0.8099 38.9883
30.8835 -36.5349 38.9883
-37.3855 -81.0656 38.9883
-44.1680 -40.7997 38.9883
34.8179 -51.3185 38.9883
-46.2688 -83.8729 38.9883
33.9112 -53.3407 38.9883
1.7404 -3.1333 38.9883
29.2135 55.7710 38.9883
16.6306 9.5129 38.9883
-17.0936 -15.8148 38.9883
42.3317 37.4316 38.9883
-10.4219 -75.2335 38.9883
12.1964 37.7920 38.9883
-31.4709 29.6663 38.9883
92.6792 -27.7557 38.9883
-61.6578 58.6599 38.9883
55.8732 9.5353 38.9883
-10.4360 -53.7343 38.9883
-45.9637 48.6933 38.9883
-24.4353 56.2425 38.9883
0.3137 52.5610 38.9883
20.7869 -22.0022 38.9883
15.5744 -18.5458 38.9883
34.5468 -22.7725 38.9883
-27.8493 -25.5596 38.9883
-23.6107 -2.2043 38.9883
-41.3595 -32.1398 38.9883
-37.3088 8.3011 38.9883
-0.2180 -0.0326 38.9883
17.4005 -15.1518 38.9883
-31.2191 -44.6709 38.9883
20.5941 35.8189 38.9883
-39.6734 -61.4194 38.9883
36.8881 53.1498 38.9883
20.3336 53.6651 38.9883
57.2003 -28.9954 38.9883
-1.8202 -0.3399 38.9883
-39.2006 7.8059 38.9883
22.2423 -26.0818 38.9883
-28.2021 36.6578 38.9883
-48.0009 -22.5688 38.9883
11.1239 -4.4932 38.9883
-7.7091 17.4585 38.9883
-7.8878 -20.5448 38.9883
88.6376 4.8342 38.9883
64.3843 31.7048 38.9883
-86.9687 -18.5036 38.9883
-37.1167 63.2586 38.9883
59.3295 38.7350 38.9883
67.7616 22.1190 38.9883
-19.3506 -24.7693 38.9883
27.8666 48.7254 38.9883
11.1219 -35.6244 38.9883
41.1209 -67.8586 38.9883
94.3975 -25.3706 38.9883
-24.4725 -15.4887 38.9883
-34.1494 40.0903 38.9883
-17.0232 -34.8044 38.9883
-47.7443 -64.9766 38.9883
-4.0665 3.3237 38.9883
-22.2251 -50.7484 38.9883
-72.5385 -60.0094 38.9883
-20.4871 66.7797 38.9883
-76.5871 -21.5036 38.9883
0.2493 0.4673 38.9883
-84.8411 -16.2138 38.9883
-41.4461 -54.2434 38.9883
-10.6856 72.8556 38.9883
2.4790 1.8398 38.9883
1.0997 -65.0006 38.9883
-3.3784 74.4691 38.9883
16.9018 13.6071 38.9883
-21.4923 -81.5216 38.9883
-11.9642 34.5865 38.9883
23.7623 -54.2447 38.9883
28.7615 -7.6574 38.9883
5.2350 -67.8351 38.9883
85.0013 45.9555 38.9883
48.7741 -19.6624 38.9883
94.2160 -25.5613 38.9883
-27.4353 -23.6876 38.9883
-15.3905 -1.1230 38.9883
26.5287 62.7223 38.9883
10.8666 30.2771 38.9883
41.9438 72.1020 38.9883
-48.0953 -54.1643 38.9883
-8.7809 -62.1251 38.9883
-52.2858 -55.1138 38.9883
-51.7739 24.4332 38.9883
80.3432 4.3871 38.9883
-7.1597 -70.1322 38.9883
7.4844 -37.9122 38.9883
78.7109 55.9174 38.9883
-2.3475 12.7732 38.9883
-64.7437 9.0775 38.9883
22.8399 -9.1796 38.9883
10.9925 -68.0922 38.9883
-4.0254 39.3259 38.9883
9.1535 24.1983 38.9883
-84.5440 -18.2156 38.9883
42.9589 4.1135 38.9883
43.9539 -29.7175 38.9883
22.6789 -28.1157 38.9883
-39.4921 -36.3929 38.9883
27.4710 -81.3989 38.9883
-40.1282 -73.2458 38.9883
-40.9086 23.1852 38.9883
-8.4779 8.1488 38.9883
-35.0184 64.8732 38.9883
-0.2916 7.1102 38.9883
-13.0574 -24.6347 38.9883
-4.8845 -3.1021 38.9883
-30.1200 -36.7659 38.9883
-78.0685 8.2450 38.9883
-0.4650 10.7046 38.9883
-96.2672 2.2081 38.9883
31.3308 -45.4144 38.9883
1.0638 27.6645 38.9883
-42.2757 -59.7189 38.9883
1.0519 -20.9430 38.9883
83.1720 -23.3343 38.9883
72.6013 -13.5411 38.9883
47.0618 -78.4909 38.9883
-1.0157 -9.7153 38.9883
-23.5149 9.9942 38.9883
53.6767 -7.7509 38.9883
-5.9021 62.9394 38.9883
-37.3570 64.7765 38.9883
11.7194 34.5424 38.9883
61.6252 14.3251 -38.9883
5.7643 -1.0099 -38.9883
-59.3610 23.5493 -38.9883
-55.2707 -7.7654 -38.9883
-14.5002 5.0023 -38.9883
-3.8868 2.8143 -38.9883
15.6802 -33.0659 -38.9883
18.9160 -74.1662 -38.9883
-3.0541 2.2458 -38.9883
-71.7971 11.6348 -38.9883
-13.9567 -11.4482 -38.9883
-68.5359 45.7237 -38.9883
11.1046 21.5980 -38.9883
6.2418 3.5731 -38.9883
-73.6687 -25.3175 -38.9883
-23.1030 -15.6668 -38.9883
-11.2445 -69.8940 -38.9883
-84.0040 1.6274 -38.9883
34.4047 -10.0579 -38.9883
-76.0846 19.0141 -38.9883
-27.6877 -2.5957 -38.9883
1.9512 -65.3792 -38.9883
-42.6232 -3.8385 -38.9883
88.2645 26.7914 -38.9883
-68.0705 37.1423 -38.9883
-61.0717 -6.6910 -38.9883
88.4765 10.4519 -38.9883
1.4603 0.6813 -38.9883
-37.8306 -25.1281 -38.9883
-55.1963 33.4737 -38.9883
1.7786 4.8014 -38.9883
-53.3637 -48.0477 -38.9883
-80.1980 -44.5747 -38.9883
20.1644 63.3185 -38.9883
53.9001 25.0886 -38.9883
21.8587 45.4444 -38.9883
86.0699 -7.3633 -38.9883
-30.4237 -61.2034 -38.9883
-64.2623 -22.5276 -38.9883
-39.1047 -22.1693 -38.9883
-3.3891 83.7841 -38.9883
-82.9254 -29.7556 -38.9883
4.4282 1.5737 -38.9883
24.2774 -8.0313 -38.9883
-7.1639 -4.5332 -38.9883
-31.2699 -67.8516 -38.9883
-67.0160 -13.1297 -38.9883
-54.4834 -48.5244 -38.9883
46.2443 51.8485 -38.9883
60.3884 14.3540 -38.9883
-4.9943 -2.4429 -38.9883
29.2454 16.1243 -38.9883
-32.5041 -9.8589 -38.9883
-4.4010 -0.5997 -38.9883
-58.3737 -10.3913 -38.9883
-23.3095 -19.3668 -38.9883
-5.4795 -75.0143 -38.9883
78.9712 -43.0023 -38.9883
69.3444 -49.0995 -38.9883
45.7331 34.6301 -38.9883
-67.5699 47.5276 -38.9883
-85.3575 25.0454 -38.9883
36.0721 -35.4654 -38.9883
-11.8981 -9.4735 -38.9883
26.8497 4.2925 -38.9883
11.5956 90.4690 -38.9883
-15.4871 31.6273 -38.9883
6.4605 -4.8204 -38.9883
40.5840 -62.3003 -38.9883
-8.7481 64.7836 -38.9883
-54.8815 -35.6950 -38.9883
-85.4778 -25.1371 -38.9883
31.6146 -2.1622 -38.9883
46.4408 48.1756 -38.9883
7.2653 94.0404 -38.9883
-12.8137 20.1066 -38.9883
71.0060 39.3452 -38.9883
7.2603 96.6638 -38.9883
0.2433 -1.4853 -38.9883
12.5791 30.5366 -38.9883
-5.5927 -44.8932 -38.9883
-10.0016 74.1284 -38.9883
-23.0704 58.2058 -38.9883
-59.8377 -35.3566 -38.9883
-15.0391 -63.9174 -38.9883
-36.0333 -6.7260 -38.9883
63.2169 -22.9486 -38.9883
-14.1743 7.4096 -38.9883
0.2611 -2.7276 -38.9883
41.3173 17.1729 -38.9883
22.9737 -25.2107 -38.9883
83.8375 9.9595 -38.9883
-48.8132 -52.5718 -38.9883
51.7574 -13.3858 -38.9883
53.3288 28.0235 -38.9883
11.1031 -4.0665 -38.9883
27.1153 48.7072 -38.9883
10.3749 -15.3014 -38.9883
-2.1020 23.8069 -38.9883
-10.4064 -56.8137 -38.9883
4.5336 37.9653 -38.9883
0.0595 0.0751 -38.9883
-25.7096 42.5715 -38.9883
-13.7885 -16.5505 -38.9883
-6.0210 -28.4842 -38.9883
-10.3857 -0.2656 -38.9883
-8.7012 12.1346 -38.9883
45.8164 62.4663 -38.9883
13.4763 -1.8739 -38.9883
-6.7940 18.7010 -38.9883
15.3691 -46.0590 -38.9883
-70.7576 -35.3077 -38.9883
-12.1444 -15.4102 -38.9883
-11.2084 71.8431 -38.9883
-38.1033 -74.7771 -38.9883
-29.2170 43.4022 -38.9883
11.0153 -37.2876 -38.9883
4.6357 3.3809 -38.9883
-24.5593 44.4590 -38.9883
8.0663 -24.6468 -38.9883
16.2434 12.9448 -38.9883
-13.2816 -35.6311 -38.9883
-84.4091 29.9044 -38.9883
9.5446 90.9161 -38.9883
2.0423 4.4750 -38.9883
-5.5827 -14.0398 -38.9883
0.1611 6.8962 -38.9883
-7.2265 19.4344 -38.9883
30.4509 -84.5622 -38.9883
13.6960 28.8212 -38.9883
-6.2248 -46.6522 -38.9883
-37.9103 14.5222 -38.9883
44.9898 21.9549 -38.9883
25.5586 55.6770 -38.9883
-13.9764 15.3850 -38.9883
16.1257 -11.5027 -38.9883
7.0637 55.0497 -38.9883
22.3653 87.3421 -38.9883
-4.5525 -86.2413 -38.9883
-37.9174 -43.5651 -38.9883
6.0305 -82.2785 -38.9883
0.4759 -0.5116 -38.9883
26.2132 9.9635 -38.9883
-3.6985 -83.7164 -38.9883
8.7040 -9.2441 -38.9883
14.8101 -27.1437 -38.9883
-29.3065 39.2499 -38.9883
-20.5950 -21.1115 -38.9883
-26.5806 -60.9292 -38.9883
15.4099 67.9317 -38.9883
5.0353 9.2151 -38.9883
6.2382 -3.1876 -38.9883
10.6936 0.7030 -38.9883
-48.6004 -60.6946 -38.9883
