ply
format ascii 1.0
element vertex 1024
property float x
property float y
property float z
end_header
-67.8057 -29.1339 -2.7909
8.7845 -73.2751 -24.0784
69.6175 24.4909 13.3707
-38.7661 62.7980 14.4798
6.6386 73.5006 -0.3139
65.5531 -33.8998 -7.0854
43.0230 59.9619 30.9715
48.7155 55.4365 -26.7778
-26.3999 68.9163 -28.6140
-71.2625 19.1848 10.0919
-73.7119 3.6009 -16.7654
-34.7174 -65.1238 22.1317
73.7842 -1.5155 -9.4041
-24.4331 69.6378 7.0476
27.3450 68.5467 -22.0535
-61.9295 -40.1390 -9.4375
-69.7500 -24.1112 -16.2751
-73.3955 7.7137 31.1746
-53.5631 50.7681 -20.4393
-73.1119 10.0528 17.4226
46.1504 57.5894 8.5729
-1.0820 -73.7918 21.4125
-72.0797 15.8404 7.7779
72.2356 15.1139 6.7971
43.8811 -59.3368 -23.6342
-57.3222 -46.4819 6.2223
70.9972 -20.1445 -20.6486
28.4452 -68.0975 29.0978
-73.7926 -1.0246 11.5236
-63.8487 -37.0102 -13.4884
-18.2772 -71.5007 29.9971
72.7561 12.3675 2.9564
-23.8144 -69.8518 12.2476
20.3413 70.9411 -22.8823
72.6374 13.0465 -24.6767
73.6594 4.5492 22.2626
53.4946 -50.8402 12.1033
-68.6168 27.1686 -18.4269
69.3068 -25.3570 17.0730
-13.2891 72.5934 -14.2008
-37.0683 63.8149 15.7781
69.2536 -25.5019 -15.3951
32.6264 66.1961 -24.0203
68.0036 -28.6690 -30.6543
-72.4696 -13.9484 -27.5729
66.5001 32.0022 -29.6107
73.1621 -9.6807 24.0657
-34.0905 -65.4541 14.3293
71.1418 19.6279 -19.9573
19.3164 -71.2270 22.0994
-34.2609 -65.3651 27.2570
73.7316 -3.1721 -17.3608
-53.7673 50.5518 -20.4830
12.1541 72.7921 23.9144
-73.0432 -10.5404 -24.0162
-73.3012 8.5642 -13.7984
39.9006 62.0834 5.4241
18.9604 71.3226 14.8382
71.6877 17.5295 -5.6830
-40.7730 61.5140 2.3400
-66.6671 31.6529 -11.0405
73.7236 3.3522 7.1426
55.0519 -49.1497 -6.6030
-29.9690 -67.4408 -27.8852
43.8466 59.3623 1.0436
-46.4992 -57.3082 -22.8895
73.7983 -0.4594 -9.4513
71.8946 -16.6605 -22.0999
-61.2231 41.2084 -8.9394
51.7058 -52.6584 20.6909
-7.4261 -73.4252 -9.5981
24.2753 69.6930 -1.6895
72.2488 -15.0506 3.9954
30.5361 -67.1860 19.3978
-59.8606 43.1638 -19.8954
-18.3411 71.4843 17.5413
47.7145 56.3004 -13.4056
16.9590 71.8248 24.7453
72.5225 13.6707 15.0939
-56.3060 47.7079 30.9839
60.8552 41.7499 -12.0669
-73.0069 10.7887 26.2999
30.5629 67.1738 1.9524
14.4610 -72.3691 -14.0337
-70.5448 21.6756 7.0106
73.7030 3.7789 7.1194
-15.7669 72.0958 -27.4024
-72.3768 14.4226 -0.7816
-7.4426 -73.4235 7.3224
42.9388 60.0222 -16.3667
62.0402 -39.9677 28.7634
40.4405 61.7330 -4.8920
71.4716 -18.3906 9.1372
25.7179 -69.1737 9.6472
26.9433 -68.7056 2.1006
-40.7432 -61.5337 -12.8020
-36.2672 -64.2736 26.9728
-67.6359 29.5260 4.8023
-35.9938 64.4271 29.2142
46.4688 57.3329 23.8336
44.0951 -59.1779 13.4561
11.9976 72.8180 -26.1917
-3.8059 73.7016 11.4315
-27.6544 68.4225 9.4739
21.4390 70.6171 4.5458
48.2866 55.8105 3.7591
65.7587 -33.4993 25.0290
-44.2080 59.0936 -1.5441
18.9890 -71.3149 23.1365
15.0501 72.2489 7.8936
54.6787 -49.5646 -26.2792
-73.1045 -10.1066 -12.9055
-29.1128 67.8148 -25.2579
11.3373 -72.9237 -3.7691
-73.6060 5.3447 -30.9216
62.0597 39.9374 22.3843
-67.6097 29.5859 -19.0425
59.0754 44.2323 -5.7118
-47.7710 -56.2524 -19.6342
73.7996 0.1723 9.7404
70.3532 -22.2896 -7.7104
68.4607 -27.5598 2.7157
25.2543 69.3442 -28.4371
73.7088 -3.6636 -12.0166
-43.8451 -59.3634 -6.3565
58.0537 -45.5650 -7.6606
-4.8496 -73.6402 -22.9587
70.3500 -22.2999 28.7444
-64.7503 35.4090 -10.2173
10.9175 72.9878 3.4557
35.5784 -64.6574 6.0829
-66.4901 -32.0229 8.4244
-35.9558 -64.4483 -23.4832
27.0497 -68.6638 -3.3622
31.8707 -66.5632 6.2968
-61.4078 40.9328 -0.7495
-62.8264 -38.7202 -16.4850
70.1003 -23.0728 30.3995
70.6453 -21.3460 -25.7232
-15.8559 -72.0763 8.3082
-1.4284 73.7859 29.1073
-60.4558 42.3261 -4.3488
-9.3160 -73.2094 -20.6448
42.7347 -60.1677 -23.2318
-73.7283 3.2473 -28.6511
-67.1676 30.5765 3.6745
14.3074 -72.3996 4.7071
-71.6397 17.7243 -23.6533
2.0211 -73.7721 7.0184
-61.9145 -40.1622 -31.6079
-57.3333 -46.4683 3.2433
-18.2915 71.4970 1.7386
50.9416 53.3981 13.4167
47.9028 56.1402 4.3404
67.3205 -30.2384 -13.1443
30.0485 -67.4054 16.1424
-71.4920 18.3111 25.5249
-73.3817 -7.8439 -24.2254
-72.8638 -11.7164 -0.2867
73.6811 4.1834 26.4859
73.2235 -9.2048 -25.7959
-25.9748 -69.0776 -0.6657
-44.3699 -58.9722 -6.9912
-70.7461 21.0093 2.3274
52.0933 52.2752 -14.0972
-5.0990 73.6234 -3.4332
42.5703 60.2841 -10.5800
73.2401 9.0714 18.0115
-73.6927 3.9737 -20.8519
48.7829 -55.3772 -24.6477
-21.7798 -70.5127 -1.4839
-40.5998 61.6284 27.0229
66.8868 31.1859 -0.3081
60.3410 -42.4896 -0.7352
-6.1862 73.5400 5.9996
-70.1838 22.8177 22.0329
6.1074 -73.5466 -19.9281
-29.9553 67.4469 -11.0123
-3.7402 -73.7049 -21.4676
73.1739 9.5911 -23.1474
-52.2973 -52.0710 -9.1963
48.7595 55.3978 -6.0153
-73.6386 -4.8753 23.7361
27.9313 -68.3099 -20.4900
-21.4440 -70.6156 -22.2548
-68.5392 -27.3640 5.9540
71.3745 18.7638 -26.6970
-57.0839 46.7743 12.0760
-73.6881 4.0588 22.5029
66.4899 -32.0235 28.3226
-61.8654 -40.2377 -18.0318
33.7531 -65.6287 19.8067
73.5399 6.1880 -2.5864
-19.3411 -71.2203 20.7068
-57.0860 46.7717 30.7436
71.2778 19.1282 30.3745
-39.8443 -62.1196 -21.5424
-52.6898 -51.6739 9.5697
-56.7489 47.1802 -12.8860
-72.2072 -15.2488 -3.6090
49.7080 -54.5483 -2.4057
-51.8229 52.5432 28.1601
57.8350 -45.8423 -24.8489
41.9424 60.7226 -4.5423
45.0778 58.4328 -7.6823
4.9209 73.6355 12.9807
38.7302 62.8202 17.2768
-65.3398 -34.3091 13.0300
59.8658 -43.1566 -3.7243
72.8329 -11.9071 7.8392
54.4573 -49.8077 -2.4248
72.3936 -14.3379 -27.8195
-53.2121 51.1359 19.1999
-73.3711 -7.9428 -8.2720
-33.7972 65.6061 31.7219
-6.9111 -73.4754 22.1574
-73.1324 9.9023 17.8396
-48.4393 55.6780 -13.7548
63.6037 -37.4297 14.1068
-14.9803 -72.2634 -21.8680
-67.2046 30.4951 -3.4726
-20.9355 70.7680 -5.4519
44.1381 -59.1459 -10.0637
-72.5234 -13.6661 -11.4665
-73.7983 -0.4666 -11.7236
19.5809 71.1547 -9.3634
53.8930 50.4177 21.9400
-73.6941 3.9480 10.2438
67.6523 -29.4885 24.2494
-73.7997 0.1014 -8.4257
-53.0165 -51.3386 28.3249
-17.6397 71.6606 2.2143
-43.5516 59.5790 -5.7151
-22.4115 -70.3145 -5.6878
-61.7264 40.4507 -26.8531
-30.9659 66.9890 10.8793
35.6052 64.6427 21.2863
-52.9685 51.3881 9.1239
-37.4172 63.6110 28.7750
-7.3227 73.4356 22.0491
26.1704 69.0037 18.5111
71.7190 -17.4007 -4.2927
-47.9733 -56.0800 23.0573
15.1194 72.2344 -31.6233
-29.0705 -67.8329 21.1980
3.3188 73.7251 -13.7430
-11.0284 72.9711 17.0341
73.1697 9.6230 -31.3448
-40.5141 61.6848 1.3588
-64.0618 -36.6400 -21.5684
36.4117 64.1919 -3.3459
73.6175 5.1834 -18.8727
73.2904 8.6555 0.9147
73.6476 4.7372 23.5814
67.1481 -30.6193 18.4210
51.4489 -52.9095 9.9804
0.5366 73.7978 24.5296
-26.3345 68.9413 32.1169
-69.0113 -26.1504 8.3012
64.3271 -36.1722 -1.7052
67.2776 -30.3337 -11.3336
53.7980 -50.5191 3.9933
-71.4699 -18.3973 2.3611
53.3348 -51.0078 -16.9356
-71.0348 20.0115 -2.4784
3.5465 73.7145 -29.9655
29.9711 67.4399 5.1837
1.0555 73.7922 21.0792
6.8380 73.4823 28.0681
26.0560 69.0470 -7.1011
-68.2860 -27.9899 -18.8100
-48.2943 55.8038 12.5050
-7.2333 73.4444 -28.7492
57.3352 -46.4659 2.8491
-14.8432 -72.2917 -12.3582
56.0105 -48.0545 19.2389
62.9252 -38.5593 28.8322
7.4345 -73.4243 -27.1655
38.4890 -62.9682 -1.6083
-51.2278 53.1236 12.1563
57.9782 45.6611 2.5481
33.1499 -65.9355 -21.5428
-29.6678 67.5739 11.4332
-66.0080 33.0052 -17.2645
9.0805 73.2390 23.3382
67.2771 30.3348 -24.0907
19.3453 -71.2191 31.3379
62.1368 -39.8173 -22.8396
-52.7387 -51.6240 -10.9542
20.5085 70.8929 20.0452
-73.0275 10.6487 -12.4256
-54.1559 -50.1352 -17.0534
30.5475 -67.1808 17.2839
65.2818 34.4193 -31.3907
11.7854 72.8527 20.6909
21.8546 -70.4896 -26.2938
73.0187 10.7084 21.6178
60.8994 41.6853 -8.1636
73.7936 -0.9542 -18.8258
-72.5272 13.6456 -14.5512
53.1581 51.1920 -17.8285
2.2155 73.7665 -29.6778
54.8572 49.3669 -28.7327
9.7760 -73.1494 -2.4125
20.8865 -70.7825 -14.3900
64.4121 36.0207 18.0501
-73.4017 -7.6545 -24.7718
2.5087 -73.7571 -11.2615
67.4034 -30.0530 -14.0368
-72.8609 11.7345 4.4037
12.7416 -72.6915 -29.8504
48.7881 55.3726 19.2336
64.9613 -35.0205 28.1728
-41.8324 -60.7985 10.6344
-13.6060 72.5347 -2.5625
-10.7113 73.0183 29.5409
49.0051 -55.1807 -0.8857
-8.3101 73.3304 7.7705
-69.1475 -25.7882 -31.4261
24.0048 69.7866 -16.7147
73.7622 2.3540 28.4793
-26.8021 68.7608 -5.7207
73.7900 1.1999 13.9534
8.4196 -73.3179 -29.6733
-13.4988 72.5547 32.0512
-19.3071 71.2295 -15.5771
32.0415 66.4812 24.4439
64.9625 -35.0182 -5.1443
48.2293 -55.8600 -9.0770
-32.7312 -66.1443 -8.4357
-73.7639 -2.3016 1.3064
69.7038 24.2442 -12.5558
72.5953 -13.2791 -25.1631
12.9292 -72.6584 1.2279
37.1225 -63.7834 23.0879
-24.6109 69.5752 -0.5260
-52.0556 52.3127 -13.4810
-38.4809 62.9732 -29.9725
-38.0396 63.2407 -17.4925
-7.7117 73.3957 15.0785
-67.2049 -30.4945 9.6710
70.4629 21.9406 14.5001
71.6496 17.6844 29.8155
6.1303 -73.5447 9.9772
67.8009 -29.1451 17.3106
55.5887 -48.5418 -16.5773
-71.3484 18.8629 24.7571
-7.5182 73.4158 21.2729
41.8718 60.7714 19.6110
71.9415 -16.4567 14.9880
-32.8316 66.0946 -26.5151
60.4227 -42.3733 24.8921
49.3907 54.8358 -3.6891
-65.6159 33.7780 18.5384
10.8964 72.9909 -0.7274
-23.4010 69.9914 28.2554
52.2074 -52.1612 -12.2727
71.5774 -17.9746 -17.4060
40.4806 61.7067 30.0773
-40.6884 -61.5700 -7.2882
61.5069 40.7837 -26.1880
33.0029 66.0092 -30.7263
20.9481 70.7643 20.1471
-18.4879 -71.4465 10.1349
39.2716 -62.4832 3.2187
58.4191 -45.0956 31.4483
41.7346 -60.8656 -1.0266
-37.8910 63.3299 16.6730
-19.0132 71.3085 -23.5308
71.5921 17.9159 -9.9155
-4.3667 73.6705 7.9866
69.0605 26.0203 -13.8124
-13.4925 72.5559 -18.4451
42.8589 60.0793 -5.0862
-34.3109 65.3389 -4.3912
-37.4079 63.6165 0.3955
-72.2474 15.0573 -19.2345
-58.9785 44.3615 29.5532
33.5922 65.7113 10.8452
73.7921 1.0640 29.3045
70.6092 -21.4650 28.7848
49.8272 54.4395 1.9892
-69.1410 25.8056 16.0029
-73.6810 4.1846 -21.2163
0.1920 73.7995 -24.7452
60.1464 42.7646 -10.0408
42.8509 60.0850 -29.8795
-16.9171 71.8347 14.9446
46.3449 -57.4330 6.0239
71.4853 -18.3375 -16.3542
22.9476 70.1414 -26.7834
-54.1170 -50.1772 17.4946
-68.8612 -26.5431 26.6622
-11.7907 -72.8518 16.1550
46.9046 56.9768 22.6552
25.0584 -69.4153 -3.0400
-44.5046 -58.8706 6.0569
-1.6271 73.7818 -2.4958
-28.4881 -68.0796 15.8020
16.6574 -71.8953 -17.3497
-15.6986 -72.1107 -6.7740
-44.5904 -58.8056 1.2022
-63.0557 -38.3456 27.1655
68.4664 27.5456 30.7941
-25.3292 69.3169 -4.4455
-50.2554 54.0444 0.4729
63.8794 -36.9570 -15.3604
9.9205 73.1299 -13.6547
73.3140 -8.4536 9.6820
70.9255 -20.3955 -10.2303
-73.7150 3.5351 -31.4457
-71.5613 -18.0385 15.2009
64.4256 35.9965 -29.0536
53.4669 -50.8694 -2.0666
-13.6344 72.5294 25.6707
-62.4086 -39.3899 18.1002
73.7946 -0.8716 -5.0504
-72.3529 14.5417 10.1923
33.7191 65.6463 20.0648
-26.9177 68.7157 15.9808
73.5595 -5.9504 -24.3616
41.2937 -61.1657 -29.6692
-37.2112 63.7317 -2.2408
22.7270 70.2132 -26.1930
58.1760 45.4087 10.0550
-73.7751 1.9080 29.9891
58.8187 44.5731 -26.4916
-73.4040 -7.6328 -27.1620
-65.3888 -34.2156 -20.7501
25.2097 -69.3605 -26.8580
15.0339 -72.2522 -18.3302
-66.4004 -32.2085 -21.9288
45.0402 58.4618 -12.1177
-32.1662 -66.4209 25.0032
69.1712 -25.7245 10.9053
42.1377 -60.5873 -0.4431
-43.7798 59.4116 -13.7783
-65.6888 -33.6360 -16.4891
-8.2488 -73.3373 20.7010
56.9716 46.9111 27.9762
-57.9210 -45.7337 8.2559
61.1570 41.3065 -5.4364
56.8953 -47.0035 18.4063
72.4660 -13.9671 -7.4659
71.8210 -16.9748 -23.1891
-73.0720 10.3384 20.0259
55.2084 48.9739 -1.0126
-57.9889 45.6475 28.7279
73.4669 -7.0013 -7.5995
-67.4195 30.0169 12.8887
-45.7946 -57.8728 -30.1919
29.0267 -67.8517 -13.6435
66.2674 -32.4814 -9.0639
24.4972 69.6153 -12.8144
-49.2498 -54.9623 -26.0856
-61.7804 40.3682 -27.7307
63.1182 -38.2426 21.6512
5.5003 -73.5945 1.7670
10.6032 73.0341 -2.6790
14.3547 72.3902 14.1255
-73.7608 2.3986 22.6095
59.7663 43.2943 -1.6114
52.2872 52.0812 6.0311
-66.2089 -32.6004 6.5145
61.9729 40.0720 -14.2389
16.4509 -71.9428 13.0738
66.4066 32.1959 10.9528
-27.5299 -68.4727 -28.8913
2.6205 -73.7532 30.1882
69.5330 -24.7300 -10.7832
-73.7644 2.2858 23.0033
-23.6290 -69.9148 -18.3153
29.3366 -67.7183 -15.7343
-55.1590 49.0295 15.9513
-38.2286 63.1267 4.7343
-26.9934 68.6860 -26.0071
-68.1263 -28.3762 -29.7023
-17.9786 -71.5764 30.8875
59.5396 -43.6055 -5.3308
57.9756 -45.6643 2.2385
-44.2715 -59.0461 -1.8437
50.1900 54.1052 9.8887
12.3187 72.7644 -19.2949
-60.2863 -42.5672 -28.3841
-20.7229 -70.8305 19.9448
-8.9509 73.2549 19.1418
16.3832 -71.9583 -29.0531
17.6122 -71.6674 21.1601
-1.2304 -73.7895 -20.0182
-73.1178 -10.0095 23.5416
-15.2999 -72.1964 -21.0913
-73.4945 -6.7057 -28.5344
7.6402 73.4032 11.9744
-38.2164 63.1341 -13.5760
55.4027 -48.7539 -18.5623
64.4817 -35.8959 9.5857
-28.1039 -68.2391 -13.3399
3.4657 73.7183 -0.1909
-20.8267 70.8001 -24.5456
73.0957 10.1694 31.9358
-49.7276 54.5304 -5.5440
-33.3218 65.8488 -9.1010
-17.4657 -71.7032 -2.9228
37.2656 -63.6999 30.3885
-17.0291 -71.8082 21.1860
-1.3646 -73.7871 27.6321
46.6131 -57.2156 11.2543
28.2442 68.1812 -10.0141
-33.0039 66.0087 -9.6921
-28.6111 -68.0280 10.4683
73.3055 8.5274 -28.3812
-61.0449 -41.4720 22.8881
72.5905 -13.3051 -27.2472
-64.1413 36.5006 -14.6433
-3.4781 -73.7178 4.6300
-53.9799 50.3247 -16.0949
-42.9900 59.9855 -21.2700
56.3069 47.7068 -31.0656
34.5147 -65.2315 -17.3269
-41.8497 60.7866 -21.4792
-7.0166 -73.4655 18.2829
-37.0169 63.8448 22.0597
17.9069 71.5943 18.9866
-12.8065 72.6801 12.1539
-72.2118 -15.2268 -23.9490
-52.1041 -52.2644 -11.3645
32.0969 -66.4545 -1.0990
-37.4435 63.5955 -15.8829
-64.7832 -35.3488 4.6314
-43.9905 -59.2558 -4.9388
-16.3198 71.9727 -12.7629
-0.9956 73.7930 -9.2335
-73.1014 10.1283 -26.7589
-10.1931 -73.0924 23.7917
-71.7858 -17.1233 20.4399
72.2422 -15.0823 -18.7484
-37.5621 -63.5255 -14.0060
-59.0570 44.2569 -9.1979
42.3562 60.4347 22.5850
-60.0195 42.9425 -25.8271
34.1402 -65.4282 26.0901
-73.3694 -7.9581 0.1612
71.8155 -16.9981 26.6617
-55.5912 -48.5389 19.2720
15.7036 72.1097 15.0683
41.2214 61.2144 -13.0499
-9.0020 -73.2487 10.1929
66.8495 31.2657 13.6670
-72.0628 -15.9171 -19.2918
-70.0863 23.1152 -21.4414
-59.0656 -44.2454 19.4511
38.8279 -62.7598 -5.0321
65.9842 33.0528 1.5735
13.9550 -72.4684 -24.3238
-38.3278 63.0665 18.6701
21.2107 -70.6860 -18.5420
73.7873 -1.3548 -19.0860
19.7100 71.1191 -11.7409
72.5570 -13.4864 -6.1789
7.1885 73.4488 2.5900
62.0568 -39.9419 29.6254
-66.9291 31.0950 -18.4312
-73.3893 7.7725 -9.7092
-73.0690 10.3596 -30.8703
-72.1986 15.2893 -17.9192
-29.6168 67.5962 6.2513
59.9199 43.0814 -18.7455
-71.5149 -18.2214 -10.0163
52.8757 -51.4836 -4.2216
-4.6661 73.6521 -16.0756
-17.4691 -71.7024 -31.3636
38.6596 62.8637 -3.0751
50.1123 54.1772 -24.9502
54.0423 50.2577 29.9096
55.9885 48.0801 -16.9535
-17.2474 -71.7561 8.8960
23.3939 69.9938 26.1641
-52.2181 52.1505 29.4190
-7.1929 -73.4484 26.2449
-41.3082 -61.1559 7.6058
9.3048 -73.2108 -14.2605
13.6329 -72.5296 -10.9596
30.9368 -67.0024 -6.2253
57.7417 -45.9597 12.5304
-3.5875 73.7125 5.4099
14.0390 -72.4521 -29.4495
-42.3936 -60.4085 7.5357
-60.4506 42.3336 19.5381
-13.4691 -72.5602 2.1829
-73.7608 -2.3967 -16.8283
8.6115 -73.2956 -31.7642
-72.4193 14.2074 17.9944
-73.2240 -9.2004 17.0689
23.2486 -70.0422 -19.4877
-60.5784 42.1505 0.0138
13.7840 -72.5011 20.2886
51.9667 52.4010 24.8568
70.2524 -22.6054 0.2481
69.0210 -26.1247 -8.3106
60.2348 42.6401 -24.6941
-5.5285 73.5924 7.3505
24.5556 69.5947 -18.9266
-0.8616 -73.7947 11.4502
43.9278 -59.3023 15.7998
73.1263 -9.9473 16.2781
-19.9215 -71.0601 -4.5591
20.6711 70.8457 11.2731
-71.6257 -17.7810 -20.8562
-9.3188 73.2091 10.0650
-38.8959 -62.7177 -28.9709
-48.9116 55.2636 -8.8082
-40.1097 -61.9485 3.1485
26.6725 68.8112 17.5705
-62.9483 -38.5216 -11.6732
-31.5169 -66.7315 -2.4288
-67.2851 30.3170 11.6227
44.6359 -58.7711 24.3022
47.5633 -56.4281 -0.0767
-73.6114 5.2694 -10.5325
-44.2434 59.0671 8.5223
-28.3460 -68.1389 21.6020
14.9968 -72.2600 -8.6526
-66.5725 -31.8513 -13.2001
16.3586 -71.9639 -6.0753
37.8408 63.3599 -31.6135
13.9626 -72.4669 -19.9590
21.2844 70.6639 -3.2746
-54.0241 50.2772 9.6020
-66.3006 32.4135 3.4005
58.9445 -44.4067 -28.4180
-4.2582 73.6768 -31.3545
15.2863 72.1993 5.2207
73.3139 -8.4548 -3.3670
0.0564 73.7997 0.0201
25.1960 -69.3655 28.6883
67.6957 -29.3888 -1.8661
-40.9314 -61.4087 -29.7312
53.9571 50.3491 -9.9598
43.3122 59.7533 21.6217
-72.7051 -12.6636 11.1484
-58.0208 45.6069 -18.0268
-6.5813 73.5057 -12.1710
70.5794 21.5629 28.5314
-68.7908 -26.7252 -26.3638
-73.2564 -8.9393 6.9519
-17.6885 71.6486 11.1088
62.7846 -38.7879 -23.0648
-62.5435 -39.1755 21.1410
-71.8705 -16.7641 -14.5172
-67.5641 29.6900 -13.2416
-24.7415 -69.5289 7.6299
-73.3758 7.8991 27.5176
-30.6169 67.1491 -17.8280
68.8911 -26.4656 -18.0340
68.1351 28.3551 -22.1340
-16.4463 71.9439 -2.0749
-62.4889 -39.2626 17.2746
20.8822 70.7838 -16.1154
73.6946 -3.9381 7.9593
71.9551 16.3974 -0.8873
-55.8790 -48.2073 29.2404
-8.8566 -73.2664 -11.9151
20.7888 70.8112 -26.4824
-44.0767 -59.1916 -28.6191
41.2298 61.2087 11.5664
-72.1176 -15.6672 17.0362
19.0762 -71.2917 -30.7457
70.6342 -21.3824 7.2741
-66.6712 31.6442 2.7394
42.4157 -60.3930 -3.3502
-17.7419 71.6354 6.8979
-18.0534 -71.5575 -26.6912
30.4503 -67.2249 -26.5237
-1.1075 73.7915 -12.8776
-62.3297 -39.5147 -14.4940
48.6378 55.5047 -16.3583
-40.1141 61.9456 -11.3693
72.3157 -14.7256 -17.3153
-69.8784 -23.7363 6.0955
-65.3562 -34.2779 -24.9907
-10.4920 -73.0501 22.0954
33.3072 65.8562 -7.9885
71.0514 19.9525 31.5604
-69.5901 -24.5688 11.1697
-52.5656 -51.8002 -31.1083
-13.7964 72.4987 -7.9761
-33.2500 65.8851 -31.0943
-67.6258 29.5492 -13.5998
35.4688 64.7176 -11.2559
-12.2051 72.7835 -19.3402
62.3723 39.4475 -26.3504
-64.5785 35.7214 26.6885
68.8378 -26.6039 2.7901
-56.6102 47.3465 -10.1998
59.2765 43.9625 -6.2901
-72.8096 -12.0487 -9.2112
73.3556 -8.0848 -27.3091
13.1946 72.6107 -20.1329
72.4357 -14.1236 -22.6437
-2.9071 -73.7425 23.1451
-64.5624 -35.7506 -23.7292
-51.1744 -53.1750 27.0858
34.2515 -65.3700 -31.1312
-69.7513 -24.1074 17.2315
-16.5121 -71.9288 29.1896
3.6929 73.7073 20.3626
-13.4129 72.5706 -29.9430
-71.5650 18.0239 -18.7974
-66.0829 32.8551 -19.3325
-73.3086 -8.5003 -16.6051
73.0531 -10.4710 -32.0915
65.2365 34.5051 -13.8679
73.7980 -0.5112 -23.8160
70.3534 22.2891 26.0654
4.8786 -73.6383 26.5956
67.8585 29.0108 31.4189
-35.1659 23.7863 32.1797
15.3499 9.9731 32.1797
10.4355 33.7362 32.1797
-1.2652 -30.3059 32.1797
5.7439 3.0292 32.1797
36.3376 14.5183 32.1797
-21.7097 -23.8405 32.1797
-40.4074 -59.3447 32.1797
4.0245 -70.7835 32.1797
-7.8098 -36.1625 32.1797
-9.6161 17.3302 32.1797
20.1687 29.0669 32.1797
1.5135 0.8903 32.1797
34.4761 31.6740 32.1797
7.6244 -13.2955 32.1797
-6.6126 -28.5074 32.1797
-22.6466 -55.5975 32.1797
-1.7581 0.7379 32.1797
46.5956 -4.7120 32.1797
-0.0117 0.5888 32.1797
15.2761 14.4725 32.1797
36.4430 -18.5391 32.1797
31.9394 4.0121 32.1797
20.3974 -54.1105 32.1797
-18.8843 -38.9723 32.1797
21.3742 -65.8290 32.1797
32.0472 33.0889 32.1797
49.2756 37.7342 32.1797
28.0093 65.5913 32.1797
14.6270 60.9258 32.1797
40.8789 -3.6007 32.1797
-1.3487 -38.2349 32.1797
-17.7198 38.0219 32.1797
61.2836 26.3341 32.1797
-6.0254 -15.9640 32.1797
-62.2250 27.8021 32.1797
-17.1818 -31.9437 32.1797
20.0121 -35.0640 32.1797
19.0754 24.1449 32.1797
20.0779 -13.7686 32.1797
15.8566 -65.9869 32.1797
27.8898 -30.0604 32.1797
-0.6967 -3.6709 32.1797
2.5968 3.5645 32.1797
-47.1236 -28.1102 32.1797
-4.6834 17.9630 32.1797
-2.4452 35.3036 32.1797
1.1816 -16.4470 32.1797
38.5794 -59.4367 32.1797
-18.0133 35.3933 32.1797
16.3836 16.4965 32.1797
65.5698 6.4750 32.1797
18.3213 -14.1883 32.1797
-5.2597 26.6647 32.1797
-1.0803 0.1059 32.1797
7.3582 -8.3980 32.1797
13.2442 9.7824 32.1797
-8.8584 27.0146 32.1797
-12.3665 19.1023 32.1797
-14.1050 -25.6233 32.1797
-54.0360 40.8488 32.1797
-0.0118 -0.0522 32.1797
-37.5640 -40.8661 32.1797
68.5582 -11.8592 32.1797
-22.6978 -49.6788 32.1797
-49.5914 -2.4792 32.1797
11.3408 -28.7873 32.1797
-9.3376 -56.5880 32.1797
-34.4609 -57.5077 32.1797
-4.6629 -1.1907 32.1797
15.3835 3.1535 32.1797
-15.6383 6.4479 32.1797
-27.5439 1.9316 32.1797
-35.3209 39.3624 32.1797
18.4139 -6.3651 32.1797
0.2892 32.9577 32.1797
38.2333 62.8570 32.1797
-66.0602 30.1805 32.1797
-13.5817 -61.1588 32.1797
20.3456 -7.2159 32.1797
-14.8717 -67.5934 32.1797
50.4437 15.0489 32.1797
-0.7342 67.8356 32.1797
-9.2147 16.4598 32.1797
0.4428 17.4396 32.1797
-0.1543 7.6485 32.1797
-62.8030 35.0831 32.1797
15.6969 2.3444 32.1797
12.8390 13.8775 32.1797
16.9941 -42.7436 32.1797
49.8391 -10.6203 32.1797
1.5662 -11.8020 32.1797
-39.2880 -16.4897 32.1797
3.3265 -36.1017 32.1797
30.0981 43.5083 32.1797
53.0212 -40.0083 32.1797
27.7815 -30.0404 32.1797
52.3731 -1.2215 32.1797
-12.5695 1.8447 32.1797
8.3475 70.7517 32.1797
-39.9275 25.8728 32.1797
2.4319 1.6164 32.1797
-3.6517 -30.6229 32.1797
18.0664 52.6135 32.1797
66.8348 23.6097 32.1797
-4.7502 32.2793 32.1797
23.3287 20.3744 32.1797
-44.0284 -2.4062 32.1797
-15.8365 19.9346 32.1797
15.6642 3.5017 32.1797
-39.8188 -16.4396 32.1797
-39.3017 -44.4318 32.1797
-33.3403 -7.1522 32.1797
11.9024 -5.3508 32.1797
19.2868 -12.8358 32.1797
-4.7265 21.7236 32.1797
32.6252 23.8505 32.1797
-46.9451 -38.4912 32.1797
47.6635 34.7569 32.1797
-28.5023 -3.9672 32.1797
31.9884 39.2938 32.1797
50.7136 3.5384 32.1797
-66.3742 30.1453 32.1797
23.4399 47.4772 32.1797
50.5497 22.2984 32.1797
14.7611 -71.5967 32.1797
-27.3308 -3.9737 32.1797
-12.9665 6.9284 32.1797
-9.3464 24.8997 32.1797
8.0284 22.1773 32.1797
-9.7105 4.3488 32.1797
59.9305 -33.0935 32.1797
4.3206 2.0000 32.1797
-28.4315 -5.2550 32.1797
23.7054 -11.1430 32.1797
1.9281 4.0817 32.1797
11.8584 22.1304 32.1797
-32.5551 13.4923 32.1797
-46.5444 39.1525 32.1797
43.8277 -23.8501 32.1797
-17.1086 7.9774 32.1797
-27.6736 51.1910 32.1797
12.7533 -3.7683 32.1797
-7.6084 7.8226 32.1797
2.5968 31.5269 32.1797
-21.9862 14.4394 32.1797
-20.5170 -18.6511 32.1797
-19.7967 5.7590 32.1797
30.2319 41.8351 32.1797
-6.6425 5.1716 32.1797
30.9641 19.6381 32.1797
-19.5978 35.9416 32.1797
-29.9056 -17.7110 32.1797
-4.0589 36.1387 32.1797
60.1096 -20.9003 -32.1797
1.7293 2.2787 -32.1797
-57.7926 -19.8554 -32.1797
-41.2177 20.6793 -32.1797
11.5501 -10.1642 -32.1797
-11.0909 -44.6296 -32.1797
-15.9228 -66.8688 -32.1797
30.6613 20.5476 -32.1797
-0.5153 -0.5889 -32.1797
-19.0769 -27.8781 -32.1797
-10.8558 -3.4653 -32.1797
2.7876 -6.9384 -32.1797
20.7856 51.0137 -32.1797
43.9375 -0.7075 -32.1797
27.6323 -55.6016 -32.1797
-27.8332 -1.1873 -32.1797
36.0922 -54.2075 -32.1797
2.6395 -70.5471 -32.1797
-11.7724 15.7440 -32.1797
-5.5258 -2.8150 -32.1797
-8.1358 -23.3238 -32.1797
-44.5235 -2.9339 -32.1797
65.3525 12.5573 -32.1797
-55.8784 15.8816 -32.1797
41.9597 -18.7455 -32.1797
1.7670 -18.9813 -32.1797
-24.4311 -3.3920 -32.1797
55.5275 21.3052 -32.1797
-3.6565 -23.7373 -32.1797
-1.8288 -4.5011 -32.1797
-15.7925 -53.0931 -32.1797
10.9526 9.6664 -32.1797
27.0916 1.8750 -32.1797
-3.8055 10.1628 -32.1797
31.7993 15.3820 -32.1797
-13.8488 -54.6094 -32.1797
44.0255 39.1337 -32.1797
18.0090 56.8304 -32.1797
-47.6594 17.2801 -32.1797
-34.0580 39.1169 -32.1797
2.3495 14.4162 -32.1797
6.4262 4.0727 -32.1797
8.6722 -44.1330 -32.1797
-68.5550 -2.3481 -32.1797
52.2260 13.6382 -32.1797
35.1441 -49.9687 -32.1797
17.1180 3.5023 -32.1797
0.8197 5.2736 -32.1797
37.4244 3.5729 -32.1797
-12.6908 32.0739 -32.1797
-63.2374 1.8661 -32.1797
6.5867 3.2582 -32.1797
21.2385 1.5053 -32.1797
-19.0348 -68.6669 -32.1797
24.6583 5.0827 -32.1797
-37.3307 3.9233 -32.1797
-48.1002 -13.3984 -32.1797
52.6822 -6.6747 -32.1797
41.6144 50.1172 -32.1797
35.8897 -2.4069 -32.1797
14.1959 -32.2693 -32.1797
29.7199 50.6763 -32.1797
-51.3964 49.2156 -32.1797
-54.8441 21.5966 -32.1797
-34.1040 1.7628 -32.1797
10.2941 -11.2767 -32.1797
-4.4178 -5.1411 -32.1797
4.2327 -17.1523 -32.1797
16.6803 -35.4045 -32.1797
-3.6520 34.6116 -32.1797
9.3642 -49.0782 -32.1797
-23.8045 54.6377 -32.1797
-14.6812 -34.8509 -32.1797
27.1441 17.5029 -32.1797
10.9235 -35.0985 -32.1797
1.2470 -42.3355 -32.1797
24.0774 -14.7386 -32.1797
-1.8611 -28.2234 -32.1797
-30.6271 -13.4404 -32.1797
-6.2674 -19.7085 -32.1797
-31.1610 -14.5677 -32.1797
62.4286 7.4470 -32.1797
4.9775 -8.7682 -32.1797
-19.3650 -69.3392 -32.1797
29.0466 7.9836 -32.1797
-12.9999 0.2221 -32.1797
-10.5934 36.8774 -32.1797
-21.2149 -60.3661 -32.1797
-32.5999 -0.4341 -32.1797
-1.1723 0.6659 -32.1797
25.2611 10.9782 -32.1797
-35.5204 1.6504 -32.1797
71.9293 11.8442 -32.1797
-2.5798 -0.7692 -32.1797
33.8592 -5.1987 -32.1797
-2.2761 9.7045 -32.1797
-35.3555 5.6220 -32.1797
41.7205 -19.0282 -32.1797
-26.5276 8.5192 -32.1797
-1.4937 -16.8136 -32.1797
13.5274 -10.2783 -32.1797
-35.0645 -17.3982 -32.1797
-19.1645 -19.2159 -32.1797
-21.1048 6.7970 -32.1797
18.0524 0.7632 -32.1797
-13.3879 -3.0542 -32.1797
-18.6136 -23.7191 -32.1797
49.7502 -42.4786 -32.1797
-7.2236 -12.9870 -32.1797
-0.3067 -5.9293 -32.1797
-14.8533 11.9697 -32.1797
-27.6328 -57.8704 -32.1797
56.6581 -12.9003 -32.1797
30.5829 -25.0466 -32.1797
-1.3240 -4.7393 -32.1797
3.4781 -1.5131 -32.1797
-59.6688 39.3693 -32.1797
2.9248 47.2851 -32.1797
-15.8221 28.2440 -32.1797
-63.6186 -7.3007 -32.1797
16.3399 -14.4783 -32.1797
39.8848 -22.1737 -32.1797
45.7079 32.2593 -32.1797
-24.5650 -19.4868 -32.1797
-23.3023 15.7347 -32.1797
-56.1405 -8.5061 -32.1797
-5.1252 -4.2179 -32.1797
-36.2286 -60.7049 -32.1797
44.2869 -20.6530 -32.1797
72.6552 12.1487 -32.1797
13.5337 -1.9065 -32.1797
65.2319 27.4526 -32.1797
12.2294 47.9656 -32.1797
43.9721 -39.8879 -32.1797
-2.7858 -19.0856 -32.1797
3.8106 -12.4150 -32.1797
-11.4255 -9.8671 -32.1797
-24.5928 31.2785 -32.1797
4.3715 6.5995 -32.1797
-50.0227 -3.9583 -32.1797
-2.6862 22.4654 -32.1797
27.7739 36.5454 -32.1797
47.8135 -36.2441 -32.1797
5.6754 23.1602 -32.1797
-8.5063 10.1752 -32.1797
-27.0638 -23.8438 -32.1797
42.4342 -6.9389 -32.1797
-23.7731 -47.7339 -32.1797
8.1620 3.7116 -32.1797
2.6577 -24.1820 -32.1797
19.2366 18.1466 -32.1797
-15.4114 4.8120 -32.1797
37.5888 37.0979 -32.1797
-57.6646 -1.2812 -32.1797
