ply
format ascii 1.0
element vertex 1024
property float x
property float y
property float z
end_header
20.7243 -39.8600 -70.2742
-23.1493 38.5023 51.4080
43.6919 10.4563 -51.5279
10.4578 43.6915 81.1304
41.7864 -16.4990 63.6738
35.6738 -27.3074 91.1928
-18.3712 40.9978 13.5346
-0.9021 -44.9166 -60.3624
41.2387 -17.8238 -41.1481
44.8069 3.2653 -43.9206
-42.6234 -14.1972 -3.8044
14.1781 42.6298 -75.9045
-18.6741 40.8607 -71.7821
-42.9766 13.0894 89.2346
10.4150 43.7018 -53.9569
28.4105 -34.8017 -28.6921
29.7853 33.6326 -48.3736
44.7605 3.8493 -66.2330
22.9385 38.6283 67.2841
41.5523 17.0800 65.6246
-37.5182 -24.7124 59.0430
42.8486 -13.5024 -8.2482
43.6272 -10.7232 70.1699
30.0703 33.3781 38.4714
28.9238 34.3763 -59.4391
8.3344 44.1458 -24.0275
-32.3709 31.1519 44.0966
33.2784 -30.1806 -46.0532
14.3868 42.5598 4.1416
44.7755 3.6705 -2.5881
43.9022 9.5347 66.9308
-17.6248 41.3241 -65.3515
26.6847 -36.1420 -66.0699
-44.4731 6.3609 86.8485
-41.1664 17.9901 61.5984
36.4590 26.2499 -69.5984
6.0091 -44.5220 -70.1895
8.3320 44.1463 66.2275
33.9953 29.3707 -87.5050
-38.1745 23.6859 -42.3879
29.3988 -33.9710 -46.0777
-23.1676 38.4913 -73.1939
-3.3816 44.7982 -8.3040
37.0400 25.4235 78.0800
13.0094 -43.0008 42.4333
35.3450 27.7317 -41.4565
37.3245 -25.0039 -67.5030
44.8195 -3.0875 -11.5109
-5.3521 44.6057 -40.2448
-29.2729 34.0796 28.0135
43.4664 11.3574 -43.4531
-44.3394 7.2340 27.0113
20.5846 39.9324 55.9785
38.7786 22.6835 -52.8361
23.7492 -38.1352 4.8266
-43.4279 -11.5038 84.0762
42.0355 15.8536 71.2467
42.1095 -15.6558 34.1794
24.6698 37.5462 -21.0853
-42.2733 -15.2080 90.5132
36.8769 -25.6595 34.3595
-29.8442 -33.5804 -56.4568
-24.6416 -37.5647 -49.2198
-39.8889 -20.6686 -67.1294
-8.7681 -44.0617 -51.1929
39.5527 -21.3050 -92.8625
40.4129 19.6243 82.8066
-44.1680 8.2164 -43.7353
43.9992 9.0768 -23.8620
32.1800 -31.3491 15.9979
-4.1978 -44.7291 59.2794
-4.7390 44.6750 76.4933
34.2160 29.1132 -60.4869
-35.7930 27.1510 -15.9809
-33.6780 29.7340 -56.7153
31.5772 31.9562 -21.3802
-24.3546 37.7514 -22.8295
11.0135 43.5548 13.0432
-1.9999 44.8811 -79.1984
-41.9668 -16.0345 22.7823
44.4517 6.5085 -63.0019
16.2031 41.9020 3.2527
-26.8137 -36.0464 31.8380
-41.2478 17.8026 -85.0971
-44.5314 5.9387 -50.3261
-13.8949 42.7229 -80.5349
22.2549 39.0261 73.1015
-23.6610 38.1900 81.5302
39.8181 -20.8048 -93.5200
25.8670 36.7316 -63.5313
37.7357 -24.3790 72.5364
-39.2247 21.9030 5.1341
14.3378 42.5763 -45.4605
-35.0565 -28.0955 -4.3056
43.3068 -11.9517 59.6013
15.3407 -42.2253 -80.0674
-44.8775 -2.0807 -18.8867
16.8164 41.6596 26.2521
27.7243 -35.3508 -61.0975
42.6902 13.9951 -51.0599
-11.8211 -43.3426 37.3201
34.4666 28.8161 3.0519
20.0020 40.2273 29.3395
-14.3549 -42.5706 7.1426
-44.6667 -4.8172 37.4174
15.5893 42.1342 -46.6038
-14.9737 -42.3569 82.5354
37.9835 23.9911 35.1005
-42.2631 -15.2365 56.8274
27.6518 35.4076 -19.5044
43.1915 12.3616 -7.7816
25.8959 -36.7113 15.7177
-43.1338 12.5616 72.1078
-9.5974 43.8886 31.6697
38.1786 23.6794 41.5234
42.1203 15.6269 -60.1538
44.5366 5.9002 -82.5499
8.5868 44.0974 16.0639
42.1809 15.4626 -42.2301
-35.0369 -28.1200 -37.1079
-39.8120 20.8164 -44.8490
-43.8616 -9.7199 0.6743
-43.3837 11.6694 -63.6977
-38.6907 -22.8330 -32.4918
0.8190 -44.9182 -67.3874
22.2808 39.0113 -56.3521
-28.9962 -34.3153 10.5527
43.9292 -9.4099 28.1212
44.0433 -8.8605 -23.7121
20.6052 -39.9217 -12.3399
39.0150 -22.2743 55.9566
-39.5544 -21.3019 -12.5834
43.6256 -10.7296 19.5750
-36.7437 -25.8499 -64.4203
25.3940 -37.0602 -10.6593
18.9426 -40.7369 41.5988
-42.3076 15.1124 -36.1720
26.8115 36.0480 -16.6795
18.1379 41.1015 34.7284
-36.3629 -26.3829 -21.4873
-1.7717 44.8907 77.2915
38.2367 -23.5855 -81.5004
-17.9822 41.1699 42.7966
-8.0461 -44.1993 -87.9705
-44.9116 1.1249 -2.8167
-44.0169 8.9907 31.4431
-14.8320 -42.4067 -3.4821
41.6577 16.8213 83.0680
22.1902 39.0630 28.6541
-33.8476 29.5408 -62.5041
14.6726 -42.4621 92.6526
-27.3971 -35.6050 69.5405
-44.7343 4.1425 67.6325
-0.6576 -44.9209 61.1367
-19.0019 -40.7093 -53.3418
39.1550 22.0274 -45.6380
-12.2242 -43.2306 64.1625
-0.9355 -44.9159 -11.5674
-5.9052 -44.5359 91.4918
-43.0414 12.8746 -79.5863
-21.9754 39.1842 67.5615
-36.2232 -26.5744 -38.9742
44.0223 -8.9639 -62.2748
-44.9235 0.4437 9.2424
20.5780 39.9357 75.0624
26.2411 36.4653 -62.8119
44.7870 -3.5275 -22.7974
42.4572 -14.6868 29.3007
-12.2947 -43.2106 -91.5441
-7.2129 44.3429 -58.4652
-41.5075 -17.1884 -44.2751
9.8235 -43.8385 52.3391
43.0062 12.9918 32.3056
11.9168 43.3164 38.8351
-44.1195 -8.4728 83.9286
-10.7234 43.6271 29.6753
-32.1764 -31.3528 59.4142
13.4240 -42.8732 -35.5162
17.1699 -41.5152 86.7726
6.3036 -44.4812 -57.5497
-13.7552 42.7681 -20.1929
44.0777 -8.6877 -90.1014
-40.0413 -20.3718 74.7348
-9.1776 -43.9783 -70.0490
28.3655 -34.8384 -3.7685
40.0090 -20.4352 76.4633
-15.4923 42.1700 -71.3560
-10.6366 43.6484 -27.7816
-35.1825 -27.9375 19.1465
-11.1642 -43.5164 51.5199
-44.9198 -0.7281 77.3696
0.7289 -44.9198 59.4589
27.7032 35.3674 -59.9848
38.5487 -23.0719 92.2838
-23.7151 -38.1564 -29.5299
19.4369 -40.5034 -58.0217
17.8286 41.2366 68.4635
-27.5597 -35.4793 67.9256
-43.5133 11.1763 70.1294
-31.6479 -31.8862 -38.4142
-27.3165 -35.6669 -33.3810
44.3542 7.1430 16.9658
11.6452 -43.3902 20.0839
40.7600 18.8929 15.0426
44.9179 0.8351 18.6573
-30.5750 32.9164 -14.6808
-31.2475 32.2787 -37.0016
-32.4694 31.0492 91.2261
8.6292 44.0892 -37.7782
42.6194 14.2094 36.2655
40.4757 19.4946 23.5497
-2.9099 44.8314 -84.7855
44.8774 -2.0814 55.8746
-19.6117 -40.4190 60.0367
-44.4400 6.5884 -6.4417
-32.3960 -31.1258 -80.5916
44.7536 3.9283 -19.6927
-44.7029 -4.4685 -70.3079
-41.5897 -16.9885 20.2517
29.7247 -33.6862 -50.2279
-44.7081 -4.4165 -64.9620
-23.5524 38.2571 -73.8964
4.4667 44.7031 51.7971
-38.2185 23.6149 28.7324
35.1253 -28.0095 -41.6279
-42.3558 14.9768 77.3746
-25.8148 36.7684 28.6346
4.3417 -44.7154 -86.9559
33.1622 -30.3081 -58.5936
-2.7613 -44.8407 -2.0549
28.3158 34.8788 -65.4660
-44.7617 3.8355 -67.3927
-4.6396 -44.6855 52.8126
-21.1207 -39.6514 55.1233
32.3756 -31.1470 -69.5020
-15.3249 42.2311 52.3017
-28.8309 -34.4542 84.2323
-5.2860 -44.6136 -21.8588
5.9024 -44.5363 -24.1614
-27.7837 -35.3042 -8.8857
11.7535 43.3610 -21.3546
28.2238 -34.9533 -7.8886
-30.0053 33.4365 -33.4814
-36.4431 -26.2720 92.7576
-2.8998 -44.8320 -35.9118
20.8541 39.7923 19.4045
-23.9863 -37.9865 51.4243
-16.1421 41.9255 57.7250
36.3586 -26.3888 72.1389
-20.8717 39.7830 -57.5285
41.3745 -17.5063 -7.5585
42.7714 13.7449 -12.0337
43.8870 9.6047 -80.6188
-40.3031 -19.8489 30.9044
4.2838 -44.7210 -84.0644
44.5483 -5.8112 63.6995
18.1512 41.0956 5.8973
30.8253 32.6821 41.2120
21.8945 39.2294 -43.2481
-36.9012 -25.6245 -15.7470
-34.8846 28.3087 24.8217
-41.3841 -17.4836 12.9434
6.0735 -44.5133 54.0438
-24.0562 -37.9423 -39.5053
10.9269 -43.5766 -44.8223
5.1828 44.6257 -39.1339
44.8814 -1.9947 67.1735
-32.5827 -30.9303 -81.7959
15.3523 42.2211 -86.1263
-35.0259 28.1337 69.6014
-38.4368 -23.2578 62.3798
-41.3528 17.5574 45.5844
1.0821 -44.9127 44.0770
-37.8149 24.2560 60.3520
-38.3778 23.3551 -62.2637
8.3661 -44.1398 37.3874
-11.7213 43.3697 -35.0043
-8.1503 44.1802 -67.3468
7.2722 -44.3332 -53.1711
-34.7957 28.4179 21.4354
24.9033 37.3918 -50.5283
26.4522 36.3125 19.0821
38.7901 -22.6637 49.2828
-43.4185 11.5392 -91.2864
37.6793 -24.4660 -66.8161
42.8360 -13.5423 -22.2203
42.5118 -14.5280 -83.6816
-22.4703 38.9025 -1.9481
16.3359 41.8504 70.9264
-44.6238 5.1993 39.1653
42.1046 -15.6690 24.7870
-37.2491 25.1162 52.1207
-41.2318 17.8398 -15.6356
-15.7301 -42.0818 -58.8808
39.5412 -21.3263 -12.6926
-6.6932 -44.4243 13.9951
36.0597 26.7959 -10.4161
-10.8542 43.5948 34.9396
34.3850 28.9135 38.9114
20.3172 40.0691 -36.1763
-44.9046 -1.3778 91.3284
28.7075 -34.5572 44.7719
-35.3182 -27.7658 75.8295
5.7787 -44.5525 -60.2289
-44.0993 -8.5773 52.3090
-32.5406 -30.9746 89.5505
-24.4662 -37.6792 -86.6226
32.6604 30.8482 42.3366
43.7838 10.0645 33.0877
-18.6424 40.8751 63.3513
44.4246 6.6915 -52.7156
-16.8999 -41.6259 17.1945
-43.1234 -12.5973 27.1567
10.6733 -43.6394 31.3174
42.4145 14.8096 -12.9897
20.5644 -39.9427 13.5734
-5.6767 44.5656 81.5382
-35.2732 -27.8230 -76.8163
44.7399 4.0817 -66.6641
-34.8756 -28.3197 65.4257
10.7663 -43.6166 -18.5361
-38.1973 -23.6491 -0.0979
44.7792 -3.6250 66.3217
-24.3903 -37.7284 -75.8029
42.5493 14.4177 38.9999
21.8055 -39.2789 -65.4045
33.2832 30.1753 -18.0618
-44.9257 -0.0110 35.6011
13.4634 42.8609 -80.9194
13.4033 42.8797 -30.7797
-44.8249 -3.0073 26.6291
-28.6957 34.5669 82.2899
29.1606 -34.1757 81.4707
-1.8450 -44.8878 -26.2004
25.2580 37.1531 80.3840
42.6924 -13.9884 53.0477
44.4300 -6.6554 -53.3377
44.9252 -0.2144 -80.1187
-25.7988 36.7796 76.5349
-13.7400 42.7730 48.0381
-39.1712 21.9985 21.5544
-34.2001 29.1319 55.6778
25.7226 -36.8329 3.7614
2.6751 -44.8460 9.5286
-44.1030 -8.5584 -77.1113
-11.5271 -43.4217 64.8694
44.7592 -3.8644 -79.8412
-38.9949 -22.3095 12.5975
-28.8512 34.4373 21.2941
-44.9162 0.9239 1.7530
41.2679 17.7561 -50.3901
-37.9626 24.0241 24.6798
-3.3714 44.7990 -91.1165
-37.3735 -24.9307 -43.1035
39.9734 -20.5047 -90.9738
-11.6002 43.4022 -61.2571
-41.6543 16.8296 71.7577
-15.6146 42.1248 -71.5564
-41.1087 18.1217 -68.5073
26.5013 36.2767 21.2711
21.5513 -39.4190 9.3935
-44.3486 -7.1774 -84.9710
42.4675 14.6572 92.5247
39.8554 -20.7332 73.4360
-43.5001 11.2275 -76.4065
35.6134 -27.3861 71.4150
32.8807 -30.6133 -14.0917
13.2825 -42.9173 -54.4290
-40.1765 -20.1038 14.1800
0.7778 44.9190 -49.2614
30.3331 -33.1394 23.0636
-3.5829 -44.7826 4.2994
-6.2904 44.4831 -3.9129
-6.2503 44.4888 -13.1198
40.6750 -19.0751 -72.4613
-23.4707 -38.3072 -88.8403
-36.0494 26.8097 24.0380
-11.5955 -43.4035 -70.0308
-33.1222 30.3518 43.1591
-36.3168 26.4463 50.3701
-20.0565 40.2002 48.3780
-42.7809 -13.7155 -19.0313
-44.8575 2.4743 -74.5535
41.3006 17.6800 43.5058
-5.4699 44.5915 -18.4651
-29.4509 -33.9258 -79.9511
43.8312 -9.8562 -87.3715
-26.0789 36.5815 -18.2621
37.3280 -24.9987 55.3458
44.8736 -2.1631 40.5218
44.1429 -8.3502 65.6482
42.9693 -13.1133 1.3387
34.9982 -28.1681 -17.5076
-41.3588 17.5432 25.6622
36.8187 25.7429 -80.9929
42.5775 14.3343 79.4684
43.2731 -12.0729 -84.4524
40.2075 -20.0417 10.7680
22.7534 38.7376 -34.2513
44.2776 -7.6031 -62.5934
-36.7330 25.8650 -15.5563
5.9645 44.5280 72.2239
0.0596 44.9256 -81.3727
-24.2835 37.7972 69.6548
-5.8420 -44.5442 -69.7649
-34.1732 -29.1635 72.7896
36.8297 25.7272 90.8048
-43.3392 11.8336 39.3934
15.1311 42.3009 56.9379
33.1882 -30.2797 -66.5825
18.8658 -40.7725 -38.8501
-44.3942 -6.8900 -11.8416
-43.2259 -12.2410 72.1958
-29.9751 -33.4636 49.5681
-40.5365 19.3677 -61.3365
-44.8916 1.7492 56.7233
-13.0857 -42.9777 -80.8504
41.7244 -16.6550 -36.7439
9.3458 43.9428 42.3080
38.3714 -23.3656 -12.3448
-44.8593 -2.4407 -17.0607
-42.7150 -13.9191 -28.2696
37.7973 24.2833 -71.1391
-19.8215 -40.3166 0.6478
-34.4386 28.8496 -22.9795
30.0919 33.3586 38.8355
22.4172 -38.9331 55.2221
44.2014 8.0344 -30.5179
-35.0625 -28.0880 -71.9138
-44.8958 -1.6393 59.8091
-44.3547 -7.1402 52.9477
-11.4708 43.4366 77.9702
20.5345 -39.9581 92.1676
-12.4760 43.1586 4.5284
-42.9892 -13.0480 3.2051
-43.6074 -10.8033 -49.5555
17.4819 -41.3848 -87.6801
43.9707 9.2136 86.0124
-43.8950 -9.5681 34.0914
-39.0853 22.1508 38.9987
28.2877 34.9016 84.6528
-40.9788 -18.4134 56.0419
27.8283 -35.2690 -36.5005
-44.5939 -5.4497 -89.4542
-19.6332 40.4086 -25.1710
-24.9433 37.3651 15.6928
-7.8197 -44.2399 81.3584
42.8472 -13.5070 -10.9674
35.0928 -28.0502 -84.8950
44.2493 -7.7666 1.6782
-20.3699 -40.0423 -49.5029
30.3239 -33.1478 -27.3033
-44.6970 -4.5274 2.8893
-44.2471 -7.7791 -88.6103
-35.7237 27.2422 19.5277
-38.6453 -22.9098 16.9900
16.7485 41.6870 -37.8783
3.3805 -44.7983 51.1114
-40.4242 -19.6010 45.7429
37.7890 24.2963 77.3054
-43.6335 -10.6975 80.4354
-44.7776 -3.6448 -27.6721
10.7419 -43.6226 -26.2302
-36.2913 -26.4813 -50.6920
-44.6532 -4.9406 -79.2142
-1.3962 44.9040 -38.7261
22.1595 -39.0804 -63.7723
-30.4935 -32.9919 56.5343
5.8333 44.5454 -4.3547
21.1294 39.6468 -16.0069
-26.4300 36.3287 -10.2604
-27.6190 35.4331 -44.8929
44.4698 6.3841 0.1966
-7.4424 44.3049 36.3702
25.9310 -36.6865 -71.1983
-44.8679 -2.2783 27.5237
-32.0560 31.4759 -26.5064
-44.6440 -5.0226 87.4117
43.1667 12.4481 -4.1364
43.7436 10.2378 60.6539
-41.8140 16.4288 -31.4018
-13.6224 -42.8106 -13.1531
44.8365 2.8293 -63.9364
-30.9526 -32.5615 -24.4961
34.6601 28.5831 25.8660
41.9339 -16.1203 23.8785
-20.4359 -40.0086 -52.4424
-43.3174 -11.9131 56.6294
27.0672 35.8565 -57.8278
33.8718 29.5130 30.8108
24.8413 37.4330 69.5967
-8.7892 -44.0575 -78.1919
-27.6353 35.4205 -53.9719
-16.8924 -41.6289 -39.3445
31.1792 32.3446 36.8045
28.9089 34.3888 -49.5454
-31.0684 -32.4510 8.1546
-38.5470 23.0748 8.7579
-20.7555 39.8438 -3.3120
-15.4224 42.1956 -82.6445
-28.8334 -34.4522 -58.9359
4.7539 44.6735 -88.9518
-6.3165 44.4794 -37.6860
-44.7264 -4.2263 -11.4714
-44.9110 1.1474 -27.8629
11.7215 -43.3696 19.5340
44.4921 6.2264 -77.2930
-36.9542 -25.5481 -78.3248
-32.9397 -30.5498 57.1249
-9.5639 -43.8959 -79.0265
-41.8363 16.3718 11.0264
33.8612 29.5252 42.3222
-38.3229 23.4450 -20.4505
42.1653 15.5050 -38.8396
43.6783 10.5129 36.8665
44.4554 -6.4836 -12.7420
-44.3316 -7.2817 -53.2865
-36.4142 -26.3120 -55.7875
-44.2431 -7.8014 -0.1155
-43.7077 -10.3899 36.1013
-44.6442 -5.0212 36.4374
-43.4408 -11.4549 -41.0587
9.3415 43.9437 -72.9121
-30.5072 32.9792 19.2045
-34.5005 -28.7755 -46.7695
29.1111 34.2178 -19.0646
42.5584 -14.3909 13.4446
35.7635 -27.1899 69.1936
32.0895 31.4418 -35.1019
-44.8602 2.4252 86.6794
22.5254 38.8706 12.7466
-44.5048 6.1355 -33.3790
-6.3150 44.4796 -65.3238
44.0947 8.6008 78.3758
44.9034 -1.4152 -48.6002
10.8712 -43.5905 -68.1370
-34.9621 -28.2129 43.6503
13.6730 -42.7945 -67.4252
-9.7227 43.8610 -62.9069
-36.4683 -26.2370 -57.4183
3.9933 44.7479 -21.3269
-0.9736 -44.9151 -88.8578
-33.8717 29.5131 -56.2547
-33.1528 -30.3185 -87.6350
37.2179 25.1624 -34.4881
-43.6652 -10.5672 -6.2396
-37.9373 -24.0640 -88.1564
43.6204 -10.7505 22.4964
-22.0910 -39.1191 -52.0356
43.6962 10.4385 -78.4898
-20.6922 -39.8767 22.9783
-21.8829 -39.2359 93.0766
-32.1932 -31.3355 90.8634
-36.1282 26.7034 19.0077
-41.3238 17.6257 -90.9780
44.8795 2.0367 -59.6423
-22.2961 39.0026 54.7276
-43.7699 -10.1248 90.2909
2.5601 44.8527 -89.9675
13.8327 42.7431 -0.8051
-44.8476 -2.6478 38.0709
-44.9226 -0.5263 61.9206
16.8883 41.6306 42.6140
44.3955 -6.8814 -56.5481
-38.4674 -23.2073 -72.5017
9.0715 44.0003 -52.0190
-31.0117 32.5053 -39.8243
-4.7105 44.6781 -24.7532
-37.9950 23.9729 45.6523
-44.1291 -8.4228 23.0297
-41.5689 17.0396 -52.9812
-44.0963 8.5925 23.2357
-22.3469 -38.9735 -88.1445
-41.8442 16.3518 -2.9547
16.7094 41.7027 13.1021
-35.7566 27.1990 -13.8397
-40.5784 -19.2797 93.2989
9.3709 43.9375 -27.1086
-43.9811 9.1639 -78.2881
44.8151 -3.1498 -91.3519
6.8223 44.4047 -74.3912
44.1745 8.1813 -85.0929
-44.6693 -4.7929 40.3359
-22.4927 38.8895 53.0195
-31.2858 32.2415 -90.7668
35.0618 28.0890 10.5909
-6.3891 44.4691 79.5454
44.8515 -2.5811 -32.1864
17.9991 -41.1625 -4.5820
32.3189 -31.2059 -31.8041
-39.3813 -21.6202 68.3702
16.1054 41.9396 -77.4935
-44.6974 -4.5232 37.1415
4.6523 44.6842 -80.4405
44.7167 -4.3281 -40.0299
28.2217 34.9550 91.6936
33.1596 30.3110 71.4365
-35.4095 -27.6493 28.5702
44.8967 1.6142 -61.6594
35.0167 28.1451 -29.0806
22.9024 -38.6497 -44.5110
30.3151 -33.1558 14.9734
31.2635 -32.2631 -64.0341
-8.1840 -44.1740 89.4031
-14.0533 -42.6711 -77.2383
-43.8692 -9.6855 7.3206
-22.3759 38.9569 29.3156
2.0846 -44.8773 -64.8858
5.6468 -44.5694 77.8064
-8.3971 44.1340 -17.4834
-44.5243 -5.9916 -31.5285
28.8132 -34.4691 52.1939
8.8684 44.0417 -42.7310
-39.6888 21.0503 -72.6597
44.8911 -1.7615 -64.8483
-44.7597 -3.8578 74.0475
-43.9710 9.2126 -91.5513
-9.8145 -43.8405 -76.3330
-44.7264 4.2268 -74.0981
-44.9256 0.0840 -79.9155
43.9551 9.2882 19.6024
-0.1778 -44.9253 -36.0136
39.9624 20.5261 45.5008
34.4657 -28.8172 66.1582
-13.6188 -42.8117 -28.2904
12.7130 43.0894 52.0909
44.9240 -0.3842 -73.8870
-40.3303 19.7935 78.6482
-7.8161 44.2406 50.6543
-28.0485 35.0942 8.2769
17.4254 41.4086 -88.1298
-44.8842 1.9310 -52.9237
20.2905 40.0826 11.3643
44.9244 -0.3384 -9.3508
29.5723 -33.8200 -35.1395
-5.7760 44.5528 -52.8771
38.8587 22.5458 -66.2997
-8.0809 -44.1929 -2.2433
-44.7780 3.6401 -47.9640
42.6144 14.2242 -34.3316
-42.6433 -14.1374 -68.8726
-44.7377 -4.1051 -73.9155
-41.3681 17.5214 -74.3116
23.3918 -38.3555 0.1281
44.3142 7.3873 30.5775
-14.6061 42.4850 62.4766
2.9816 -44.8266 -55.9891
5.5591 -44.5804 -70.8777
-36.2466 26.5424 -19.8580
8.8287 -44.0496 -50.8919
-35.3430 -27.7342 -74.1031
-22.3049 -38.9975 -70.3251
16.0800 41.9494 -50.1166
42.1751 15.4783 -38.8778
3.9669 44.7502 22.3795
1.7862 44.8902 -17.7195
32.0989 31.4321 75.1048
40.0888 -20.2782 -53.1219
-41.5369 -17.1174 88.1447
-10.4306 -43.6981 68.0162
24.8154 -37.4502 10.1977
37.8167 24.2531 85.7047
-41.4515 17.3231 16.6705
-43.7846 -10.0610 -54.6539
9.8468 43.8333 82.0824
-37.0710 -25.3783 -56.8210
-36.2512 -26.5361 -45.2180
-23.2038 -38.4695 -21.6305
-16.3349 -41.8508 48.4476
-21.2486 -39.5830 -18.4998
11.8036 43.3473 -11.7625
-44.4920 6.2273 -55.2480
-25.5766 36.9345 50.0021
43.1113 -12.6386 21.7074
30.9088 32.6032 66.9841
-41.1826 -17.9530 -32.6690
-44.7228 4.2645 -23.4585
-15.5967 -42.1315 -42.7629
43.7755 10.1006 -58.3617
37.0448 -25.4165 -92.6474
-31.0280 32.4897 42.0474
23.1246 -38.5172 -31.8593
39.5500 -21.3100 64.5340
-21.6589 39.3600 65.5653
44.9067 -1.3074 65.5513
25.9154 -36.6976 1.6282
32.4749 -31.0435 28.2531
28.9146 -34.3840 -38.7331
27.4718 -35.5474 84.6856
37.5820 24.6152 60.9879
-42.7043 13.9521 78.4106
28.1144 -35.0414 -91.5253
8.8293 44.0495 -41.3264
-3.5465 44.7855 51.6021
21.5379 39.4264 -59.2905
-38.8104 22.6289 83.2514
11.2898 43.4840 36.0045
-14.1677 42.6333 15.8621
37.5945 24.5961 16.0308
-23.8470 -38.0741 -31.8256
-21.5125 -39.4402 40.1321
15.3810 42.2107 11.4364
4.6384 -44.6856 44.6492
-32.9850 -30.5009 85.6051
-14.7399 -42.4388 25.8541
-40.1422 -20.1722 -77.7663
-25.8806 36.7221 89.9361
-30.8734 32.6367 -85.5361
8.5788 -44.0990 -93.8282
42.1191 15.6300 -9.2622
26.7324 -36.1067 42.0712
-26.1326 -36.5432 -72.0591
-43.1039 12.6637 14.3569
-43.3430 11.8197 -45.5653
2.3800 -44.8626 46.2525
-34.4260 28.8646 -20.5264
30.4748 16.6998 94.1054
-21.4379 11.8746 94.1054
30.7845 5.0839 94.1054
20.3881 -7.4732 94.1054
36.4422 11.7960 94.1054
5.8213 -41.9733 94.1054
-21.8756 22.2930 94.1054
-18.5809 14.2225 94.1054
1.2036 -1.2615 94.1054
-25.0560 15.7971 94.1054
6.7460 1.1644 94.1054
32.2636 -31.2043 94.1054
-22.8520 -28.0019 94.1054
0.0491 0.2036 94.1054
-33.9813 -17.0564 94.1054
-14.0802 -30.1501 94.1054
-15.3765 12.4788 94.1054
3.4592 8.3375 94.1054
8.1148 -0.3951 94.1054
-26.7107 5.3854 94.1054
1.4935 -12.6582 94.1054
1.1998 -1.0059 94.1054
0.5803 41.9920 94.1054
-29.7568 6.4333 94.1054
5.9259 -25.0309 94.1054
37.5338 4.6984 94.1054
-1.1405 31.6988 94.1054
-28.2754 -19.2949 94.1054
17.5698 -5.1929 94.1054
-10.1468 30.8048 94.1054
9.1029 0.4790 94.1054
-16.5801 31.7629 94.1054
10.2795 38.0165 94.1054
1.6406 34.6926 94.1054
-3.2708 24.8612 94.1054
-8.8528 10.6890 94.1054
25.8844 32.3262 94.1054
-3.5252 3.4841 94.1054
-37.4742 21.7668 94.1054
1.1491 24.4931 94.1054
25.8992 -32.6299 94.1054
16.3449 -12.8305 94.1054
-21.4040 1.6647 94.1054
18.4825 -23.6674 94.1054
-41.3408 6.3094 94.1054
-1.3141 2.1487 94.1054
-8.9954 29.3854 94.1054
-14.5080 0.3724 94.1054
18.9911 -17.7248 94.1054
-23.2537 -17.5935 94.1054
6.2584 28.4068 94.1054
-11.2636 36.2757 94.1054
-24.3740 3.7454 94.1054
7.8395 -15.8814 94.1054
-15.9115 -7.4255 94.1054
6.9730 -1.4811 94.1054
-2.1307 2.8406 94.1054
7.5989 3.6756 94.1054
8.7097 -35.7503 94.1054
29.6404 -8.3605 94.1054
-8.5664 -32.1113 94.1054
-1.3117 -0.3824 94.1054
24.9519 -20.2551 94.1054
7.5758 -5.5634 94.1054
32.1797 -5.2440 94.1054
-11.6691 3.5171 94.1054
1.4490 0.1092 94.1054
-32.3789 23.4438 94.1054
-0.3541 1.6116 94.1054
2.2480 10.8956 94.1054
15.7094 -8.0441 94.1054
23.1737 -25.4429 94.1054
-17.6830 -7.6198 94.1054
13.2711 -24.3717 94.1054
-30.6182 6.5536 94.1054
-37.7121 6.9502 94.1054
26.8002 -19.7049 94.1054
25.6268 -3.1637 94.1054
-25.7294 -3.9114 94.1054
11.7044 -7.6338 94.1054
15.7750 2.1992 94.1054
4.9301 17.5711 94.1054
-1.2842 -5.9573 94.1054
-10.3184 -10.1398 94.1054
-0.8632 -1.9598 94.1054
-25.4454 -19.5380 94.1054
-2.7554 -21.0014 94.1054
-0.8138 1.1264 94.1054
16.8313 -35.2139 94.1054
22.5714 -23.5638 94.1054
-0.3537 -3.6526 94.1054
11.7054 -3.2667 94.1054
-22.1716 -38.9116 94.1054
-7.4237 27.0378 94.1054
-1.6401 5.2781 94.1054
14.5328 2.2409 94.1054
8.6838 1.0491 94.1054
-9.6599 -0.3176 94.1054
29.1477 -26.0500 94.1054
26.3421 -8.9900 94.1054
4.8635 15.5280 94.1054
-13.4053 4.5312 94.1054
-0.0016 0.7950 94.1054
25.3234 12.0168 94.1054
-0.3267 -2.3284 94.1054
16.4533 23.8475 94.1054
-32.2244 5.8430 94.1054
-27.7219 9.3890 94.1054
-3.4218 11.7750 94.1054
19.0161 27.8889 94.1054
-8.2237 -19.2777 94.1054
1.5376 6.0055 94.1054
16.0332 -20.3254 94.1054
21.4054 37.6050 94.1054
-24.3140 37.3623 94.1054
14.0852 11.4268 94.1054
15.9964 14.7869 94.1054
-10.2443 8.4690 94.1054
-38.3567 19.1249 94.1054
19.3303 3.8187 94.1054
0.1622 0.0787 94.1054
32.9625 18.9627 94.1054
2.4149 -0.9512 94.1054
16.5647 4.9998 94.1054
-4.7912 4.7033 94.1054
-35.9576 -9.2247 94.1054
10.2858 -17.1649 94.1054
-22.8390 -9.7971 94.1054
-14.6984 6.5386 94.1054
-2.3685 -2.5985 94.1054
13.2208 -6.6601 94.1054
9.5234 6.4215 94.1054
-6.8571 17.0293 94.1054
38.2545 17.9483 94.1054
25.8476 -3.1698 94.1054
-14.9050 1.3875 94.1054
26.8099 -33.2583 94.1054
-16.8292 -7.5950 94.1054
-12.3988 32.4021 94.1054
-35.5381 12.7542 94.1054
28.7493 -24.5590 94.1054
6.3859 -5.6953 94.1054
-32.5615 -1.7355 94.1054
7.7128 -8.9824 94.1054
-28.7517 -18.4244 94.1054
-1.1615 -0.4572 94.1054
-11.6444 -3.2062 94.1054
-9.6601 8.4667 94.1054
9.9340 -4.7767 94.1054
19.0960 -3.7774 94.1054
2.8049 -3.6929 94.1054
-27.1204 -8.5707 94.1054
-35.0156 12.8548 94.1054
-7.8112 18.9152 94.1054
0.5303 -40.1661 -94.1054
17.8504 -4.8348 -94.1054
-17.8507 -14.7087 -94.1054
15.3108 -17.5447 -94.1054
-4.5584 -5.0449 -94.1054
-2.2352 0.8116 -94.1054
8.2711 -0.6702 -94.1054
7.1081 -2.2062 -94.1054
-2.7227 -5.9940 -94.1054
-22.0023 5.3629 -94.1054
0.7118 -29.4629 -94.1054
6.6095 4.7187 -94.1054
-6.6622 2.7764 -94.1054
16.3538 13.0526 -94.1054
3.2045 -2.4275 -94.1054
3.7328 -20.1851 -94.1054
37.7777 18.7131 -94.1054
27.7014 23.9835 -94.1054
-24.0000 -24.1978 -94.1054
15.6082 21.4920 -94.1054
-39.8353 -10.9727 -94.1054
-8.0129 -43.6629 -94.1054
23.1097 5.4608 -94.1054
-16.7530 -6.9652 -94.1054
13.4095 -2.9222 -94.1054
-17.8420 11.3009 -94.1054
-12.9521 -11.3261 -94.1054
-0.6430 6.9172 -94.1054
19.9410 -20.5081 -94.1054
-1.7661 2.1144 -94.1054
-13.4924 -10.2390 -94.1054
0.6937 -5.5516 -94.1054
-22.5572 -20.3340 -94.1054
-31.9427 -13.8805 -94.1054
-18.9938 -14.3819 -94.1054
32.9643 16.6662 -94.1054
-14.5093 -38.5577 -94.1054
6.3303 0.9885 -94.1054
3.1797 3.6998 -94.1054
26.7467 36.0769 -94.1054
30.8236 13.5370 -94.1054
24.3230 34.8133 -94.1054
-24.3544 18.4699 -94.1054
13.3111 2.9954 -94.1054
2.1938 -12.3603 -94.1054
10.0135 7.0988 -94.1054
19.5750 -9.1214 -94.1054
5.2579 -12.9081 -94.1054
-37.0798 24.0434 -94.1054
2.9020 -0.1442 -94.1054
35.1276 -5.3938 -94.1054
-16.0185 -5.2456 -94.1054
-10.0052 -12.3047 -94.1054
28.5050 29.5796 -94.1054
28.4947 -4.9022 -94.1054
-20.9211 -35.4050 -94.1054
-2.1019 41.7059 -94.1054
-13.7679 0.2805 -94.1054
3.1897 3.0827 -94.1054
34.4217 19.2291 -94.1054
2.3231 -12.3806 -94.1054
8.6627 -2.3299 -94.1054
30.5664 -18.2858 -94.1054
-1.9748 2.8934 -94.1054
-19.4832 -20.0750 -94.1054
-1.4230 -15.9190 -94.1054
21.3257 -26.4945 -94.1054
25.1634 -17.7531 -94.1054
-24.6100 2.0984 -94.1054
-7.3492 3.2685 -94.1054
2.3432 1.8748 -94.1054
7.7432 16.2384 -94.1054
-5.9834 17.5556 -94.1054
16.8393 -4.6475 -94.1054
-18.6430 -8.5748 -94.1054
-1.1019 0.3895 -94.1054
-14.2560 -23.0911 -94.1054
-0.9475 -1.3981 -94.1054
13.5058 -32.6581 -94.1054
17.4162 1.5372 -94.1054
29.0294 -33.0432 -94.1054
1.8886 -2.1718 -94.1054
27.8630 -32.4865 -94.1054
-38.2154 19.6165 -94.1054
8.9383 -0.1800 -94.1054
-29.7045 -10.2998 -94.1054
15.4128 23.5655 -94.1054
-0.5506 0.7936 -94.1054
-10.8961 41.6088 -94.1054
20.6256 -24.5260 -94.1054
24.1683 -22.4183 -94.1054
4.4949 -1.3303 -94.1054
-38.6748 12.3876 -94.1054
-24.9724 -15.7990 -94.1054
26.8907 34.6551 -94.1054
-14.7021 14.7009 -94.1054
24.8803 22.4705 -94.1054
2.3524 -10.2949 -94.1054
-23.6763 15.6173 -94.1054
-18.3244 8.5611 -94.1054
2.8322 -25.9056 -94.1054
0.5660 1.3798 -94.1054
0.1617 -1.6014 -94.1054
10.1195 -10.2417 -94.1054
26.2164 6.0133 -94.1054
-8.5308 14.9770 -94.1054
10.0509 7.0706 -94.1054
-2.9845 -1.1581 -94.1054
-12.2560 -24.4606 -94.1054
-13.4305 -21.4317 -94.1054
3.0493 5.8853 -94.1054
-22.4408 16.7594 -94.1054
1.3827 -0.7909 -94.1054
-1.6039 24.7659 -94.1054
-9.4340 32.9577 -94.1054
-11.9672 -13.3696 -94.1054
2.1131 1.8918 -94.1054
11.1810 3.6139 -94.1054
0.1383 0.0304 -94.1054
14.8077 -14.2778 -94.1054
5.3278 1.0790 -94.1054
-5.8034 -3.4184 -94.1054
-37.2283 -24.1172 -94.1054
4.8809 -4.3859 -94.1054
-6.4872 5.4480 -94.1054
-7.0410 -36.7764 -94.1054
25.5557 23.3946 -94.1054
-2.6909 2.3642 -94.1054
7.6727 0.8137 -94.1054
-10.5399 31.6733 -94.1054
17.5093 12.5600 -94.1054
41.7014 16.1981 -94.1054
-6.2506 21.1212 -94.1054
-10.4606 2.3981 -94.1054
-22.5559 -1.4403 -94.1054
8.6924 36.4956 -94.1054
8.0762 -41.5463 -94.1054
7.1787 31.8132 -94.1054
30.9818 7.5198 -94.1054
-1.7543 -1.0704 -94.1054
0.3776 18.6932 -94.1054
-13.2586 6.4193 -94.1054
-19.0178 -9.8816 -94.1054
15.0239 -26.3489 -94.1054
5.8011 6.2475 -94.1054
-4.9189 -31.1930 -94.1054
-25.7081 -23.7322 -94.1054
15.1122 30.2997 -94.1054
-39.8604 13.7449 -94.1054
30.5213 -24.8880 -94.1054
-39.6212 -9.1348 -94.1054
13.7971 -23.1416 -94.1054
-8.8750 38.5672 -94.1054
-14.3768 -11.7583 -94.1054
