ply
format ascii 1.0
element vertex 1024
property float x
property float y
property float z
end_header
-12.1370 -35.6934 14.1796
14.4318 -34.8288 40.4985
-28.6026 -24.5604 0.1559
0.2371 37.6997 12.3677
25.0635 28.1628 -68.3304
-36.7814 -8.2737 14.6155
-11.3915 -35.9382 1.2301
-37.0444 -7.0022 -14.1787
34.9551 -14.1232 -10.5988
-29.9704 22.8713 -9.5380
-17.8417 33.2114 41.3817
18.8384 -32.6563 49.6216
-5.1150 -37.3518 -42.0240
-35.7899 11.8492 -40.6811
25.8631 27.4303 -40.4957
10.4434 -36.2251 -24.9351
37.6874 0.9909 -28.5083
11.2949 35.9687 58.9605
-37.1450 6.4476 -5.0250
36.9065 -7.6962 37.9754
-17.3979 33.4460 -47.8423
-14.6857 -34.7225 22.7256
-8.3985 -36.7531 -61.4612
-19.2694 32.4039 38.6345
-9.9684 -36.3587 -30.1670
37.6243 -2.3939 -47.2777
-24.2107 -28.8992 47.7019
-33.8333 16.6321 -53.5584
26.9089 -26.4051 50.2974
-37.3640 -5.0251 -13.5785
4.9762 37.3706 2.3127
37.5509 -3.3545 15.8568
-36.8546 -7.9410 23.9366
-37.6671 -1.5843 -44.7211
-34.7258 14.6780 -32.6566
25.4388 -27.8242 -15.8821
27.1862 -26.1196 -50.4856
3.7733 37.5111 29.4434
-35.5290 12.6100 37.6314
2.1859 37.6370 20.8503
6.8419 -37.0744 3.7210
-37.3862 4.8570 65.1242
15.7441 34.2556 47.4057
26.3444 26.9684 21.9620
33.4040 17.4784 44.9642
-36.7747 8.3033 63.2884
36.8220 8.0908 41.0882
-23.2301 -29.6932 51.2741
7.6084 -36.9247 -49.9904
-34.5161 -15.1644 -11.7343
-31.8616 -20.1534 -30.8628
0.7595 -37.6928 3.7484
-27.4921 25.7974 27.7202
10.1114 -36.3192 51.5698
20.3370 -31.7447 41.6156
37.3623 5.0378 -3.0669
-36.8223 8.0897 10.4224
19.2072 32.4408 66.7179
-18.0635 -33.0912 -22.7558
7.6997 -36.9058 36.2785
-33.6242 -17.0509 52.5706
5.8308 -37.2468 62.6897
-2.8254 37.5944 -14.1937
-18.1413 33.0487 49.2088
28.6486 -24.5067 56.5751
37.5076 3.8084 -23.4661
23.2353 -29.6891 -41.7890
37.3095 5.4152 6.5043
16.7548 33.7727 -34.9839
-23.8420 29.2041 -24.7125
17.1465 -33.5756 6.2781
-32.8017 -18.5842 -29.4173
18.4633 32.8699 -43.5662
-21.2804 -31.1202 -49.6325
-22.5931 30.1807 -46.4991
-20.8594 31.4040 -37.2120
-20.6269 31.5571 -2.6172
-36.2714 10.2812 -66.3179
-33.7261 16.8485 -36.4692
37.6248 2.3873 12.3409
-13.9136 35.0390 -15.0566
4.5153 -37.4291 -53.2464
20.4016 -31.7032 -9.6366
-37.5586 -3.2665 38.6808
36.7261 -8.5156 34.9245
-21.6303 -30.8780 -28.7937
25.1027 -28.1279 34.6507
-37.0137 7.1631 -3.9151
28.9925 24.0989 -44.6258
5.4687 -37.3017 55.4272
36.1448 10.7179 30.4853
10.5953 36.1809 -60.1913
34.0855 16.1091 40.1784
35.7187 -12.0622 -27.4641
25.8913 -27.4037 41.0328
-0.3793 -37.6985 -56.0645
-23.4287 -29.5367 54.0935
31.1595 -21.2229 -56.5062
-30.1942 -22.5750 -45.5315
-13.3547 35.2558 64.8250
-36.7144 8.5658 49.2596
-30.5901 22.0356 -14.3534
-32.2550 19.5176 52.4859
37.3543 -5.0967 -13.4741
-32.5845 -18.9625 -44.7818
36.8496 7.9644 28.6182
36.8960 -7.7465 62.2426
-10.0520 -36.3356 27.3723
-23.5789 -29.4169 43.6056
-5.9176 -37.2331 29.5673
-33.9518 -16.3889 -62.3097
-29.0049 24.0840 -56.7350
29.3161 -23.7042 -20.1502
22.9315 29.9244 -44.6963
30.6236 21.9890 13.1216
-29.7356 -23.1757 49.6107
-22.1905 30.4779 -52.4758
-33.8766 -16.5437 -54.7285
-7.5510 -36.9365 3.0282
26.4233 -26.8911 -12.7527
36.8592 -7.9195 29.3465
32.4707 -19.1566 -19.6623
-37.6310 2.2873 17.8399
37.6879 0.9701 11.5712
27.3475 -25.9506 58.4035
10.7149 -36.1457 56.2252
27.4365 25.8565 -15.8767
26.2655 27.0452 8.3627
7.6417 -36.9178 5.9019
-25.3355 -27.9184 -25.0560
37.6987 0.3593 -22.9225
32.5410 19.0369 -49.4325
4.0054 -37.4870 -46.2050
20.3100 31.7620 16.4562
25.5644 -27.7089 17.7461
-17.9377 -33.1596 56.2478
-9.7384 -36.4210 41.7593
-34.8505 14.3793 -47.0952
28.8044 24.3234 -15.9832
30.7687 21.7855 35.0744
11.0611 -36.0413 -35.0963
35.9597 -11.3235 -14.9166
11.3162 -35.9620 -32.1104
-4.2096 37.4647 29.9421
-16.5521 -33.8725 -56.7191
29.6725 23.2564 -24.0158
34.1931 15.8794 21.1781
36.1118 10.8288 -12.6164
35.7031 -12.1082 5.2707
-31.4069 20.8549 -29.6685
22.7958 -30.0279 -41.4666
-19.3801 32.3378 -25.4499
12.2896 35.6411 25.4301
-31.6335 -20.5096 4.4541
-27.4553 -25.8366 47.4243
11.9185 35.7669 12.4413
-32.3379 19.3799 63.3369
-9.4916 36.4860 -42.0536
9.8294 -36.3965 -16.5602
-36.2143 10.4808 -57.4129
17.9485 -33.1538 -35.4180
-34.0561 16.1711 5.4520
25.7200 27.5645 24.0923
35.1105 -13.7322 49.9953
29.7558 -23.1498 12.3875
37.6777 -1.3093 39.0939
19.4378 -32.3032 10.3486
-36.4311 -9.7002 -42.3296
15.1260 34.5329 16.8733
-37.0037 7.2143 19.7994
34.7938 -14.5159 -51.9351
-28.8446 24.2757 30.7338
36.4176 -9.7510 56.9982
-14.4404 34.8252 62.1104
-17.7950 33.2364 60.3469
37.6905 -0.8640 37.5725
-24.6841 -28.4959 19.9481
0.4645 -37.6976 65.4962
33.4114 -17.4643 -19.1990
17.2353 33.5301 -27.0668
-31.3548 20.9332 41.0973
-27.6613 25.6159 -64.3373
37.5612 -3.2371 14.2856
-0.4413 37.6978 52.4668
-20.1285 31.8774 10.2179
3.8834 37.4999 57.8552
-30.6277 21.9833 -10.7051
-20.9309 -31.3563 64.8783
-18.2665 -32.9797 -10.5383
14.1436 34.9468 -42.5515
-12.1508 -35.6886 42.4833
35.6569 -12.2438 32.7555
31.4641 -20.7685 -54.4064
33.3797 -17.5248 -28.7394
-25.7311 -27.5541 9.8615
-31.5151 20.6911 -58.9867
15.8145 -34.2232 -41.8780
35.3737 -13.0392 -30.6452
-37.4301 -4.5070 -26.3212
0.8558 37.6907 -19.2981
0.2499 -37.6996 -51.5456
-36.1486 -10.7051 -57.0424
-17.9974 -33.1273 -9.3899
-28.0694 -25.1681 39.9712
-31.5107 20.6978 25.8815
-13.2369 35.3002 -46.4543
-36.4690 -9.5570 -15.3627
36.1729 10.6229 -53.4373
33.9938 -16.3016 44.4424
-26.8315 26.4838 41.9497
12.0677 35.7168 -8.0149
36.9341 -7.5628 -17.7883
37.6819 1.1805 -54.2963
-12.8029 35.4600 -60.7722
25.4782 -27.7882 -32.4827
37.6188 -2.4787 12.4032
-37.6854 -1.0625 -40.4513
-15.8094 -34.2255 48.1912
-34.0318 16.2221 33.8280
-10.6632 -36.1610 45.9055
-36.4525 -9.6198 52.4807
1.7367 37.6604 37.2609
16.1978 34.0434 -37.4914
33.8916 16.5130 41.9739
-28.2278 24.9902 58.3274
-32.8038 -18.5805 23.2224
32.5952 18.9439 -42.1639
25.0475 -28.1770 -67.0888
36.0532 -11.0223 41.6010
-37.1642 -6.3361 38.2557
31.8201 -20.2189 -49.5645
-34.7152 -14.7030 -47.8007
-8.6366 -36.6978 -41.2768
-37.0545 6.9487 -60.2807
-5.2700 37.3303 29.7571
-6.8378 -37.0751 27.1163
-33.8721 16.5530 3.4727
37.5356 -3.5219 57.9836
37.6964 -0.5476 51.5743
-37.5911 -2.8690 -11.1136
37.5782 3.0329 33.0003
-37.3528 5.1076 27.5868
19.8101 -32.0762 -25.2540
6.1561 -37.1944 2.9508
33.6045 17.0898 -22.0217
0.3793 -37.6985 -44.0963
5.0488 37.3608 17.0164
37.1582 6.3709 -52.3736
-32.4368 19.2139 -11.5958
-31.7164 -20.3812 -53.7669
29.2025 -23.8439 -65.1281
-27.7603 -25.5086 -23.6091
-34.2947 -15.6588 -20.4538
34.8177 14.4585 -43.0304
22.0165 -30.6038 8.0940
33.9765 16.3377 -60.3589
-34.5279 15.1377 -62.6407
-35.9064 -11.4913 0.0659
18.3007 -32.9607 38.0846
-13.8510 -35.0638 -14.8691
30.7103 21.8678 27.1592
31.2880 21.0329 20.7360
-37.4174 4.6107 9.0373
-6.3017 -37.1700 30.7598
-37.6615 1.7125 -44.9764
-37.2692 -5.6859 -46.5239
26.7762 -26.5397 41.2717
-27.8394 25.4222 -25.7801
-6.7446 37.0922 4.1703
27.1473 -26.1600 -12.1906
15.3173 -34.4486 1.8816
5.0791 37.3567 59.6935
-25.9688 27.3303 -28.9034
34.4313 -15.3560 33.1139
-11.2097 -35.9953 -16.9452
-31.1051 -21.3025 45.2434
-37.6991 -0.3099 -3.2787
-32.5826 18.9657 64.3919
25.9619 27.3368 -3.8484
-15.0583 34.5625 -54.7150
13.2500 -35.2953 49.9681
36.4581 -9.5986 39.0250
37.6938 -0.7093 -20.3899
15.1356 -34.5288 -35.1803
-15.4589 34.3852 -36.6794
37.0538 -6.9528 2.5791
17.0716 -33.6137 -32.0345
-37.6061 -2.6656 42.7226
35.8457 -11.6792 -48.4026
-36.4506 -9.6267 -50.9084
36.4648 9.5727 60.5083
30.6164 -21.9990 38.6117
16.2453 34.0208 2.8351
-18.4860 32.8571 57.3673
34.3267 -15.5884 34.4440
-37.5021 3.8616 58.9206
-25.0153 28.2056 -27.2789
6.5098 37.1341 65.1167
37.1306 -6.5298 -17.2504
-2.9614 37.5839 -11.9386
13.6171 35.1553 13.7630
35.4471 12.8385 -55.5428
-36.2922 -10.2079 13.1239
-10.3244 36.2592 -4.0810
-16.3407 33.9750 -67.4550
34.8596 -14.3574 -29.4596
-28.8693 -24.2463 67.9170
-29.4894 -23.4882 -58.4057
36.2037 -10.5173 23.4834
35.1961 -13.5113 3.9375
-32.2699 -19.4930 -38.8395
-21.2905 31.1133 -36.2761
5.3953 37.3124 -50.5032
29.4758 23.5053 -0.4429
29.4522 -23.5349 5.1409
-0.0419 -37.7004 54.5340
34.2710 15.7106 37.4653
6.7520 37.0909 18.7383
-29.0504 -24.0290 -56.6879
7.6697 -36.9120 8.5930
-4.5392 -37.4262 -51.2982
37.2786 -5.6237 -19.0270
29.5770 -23.3778 63.8892
-27.1979 -26.1074 -36.3120
-35.6846 12.1627 28.1537
37.6235 2.4078 33.1333
33.8770 -16.5429 44.9954
1.3246 37.6771 -32.1001
4.3490 -37.4487 -0.8989
-31.6177 20.5339 28.0625
-1.9105 37.6520 -42.4703
29.3263 23.6915 -53.1865
-22.3248 30.3797 -65.2135
18.3606 32.9273 62.6273
25.5449 27.7269 -16.9523
-16.9185 33.6911 52.5203
29.2198 -23.8228 24.0010
25.8767 -27.4175 -33.3716
-9.1496 -36.5733 33.3619
36.0719 -10.9608 65.4715
33.6731 16.9542 51.9460
2.9920 -37.5815 -15.5987
-36.5345 9.3033 51.9150
-27.5438 -25.7422 -8.1626
-21.0309 -31.2894 56.4696
-6.9566 37.0530 -27.5600
-26.5586 26.7575 50.0071
37.1762 6.2650 0.9301
-13.9614 -35.0200 5.7217
25.5527 -27.7197 55.4715
3.4958 37.5380 -5.2474
-28.8499 24.2695 52.6777
-25.2559 27.9904 10.8677
3.7579 37.5127 -23.5199
35.9823 11.2516 -1.4717
37.6422 2.0949 67.5232
-37.6493 -1.9624 66.0533
26.4336 26.8810 37.7635
37.6986 -0.3684 42.4851
37.7004 -0.0134 60.1306
-35.1108 -13.7316 -2.1726
-33.5529 -17.1909 -1.6638
29.3827 -23.6216 6.7412
-37.0978 -6.7136 30.4784
14.4624 -34.8161 -61.5225
-13.3162 35.2704 30.7223
18.2767 32.9740 -32.1160
35.6336 12.3114 14.8611
-18.0336 33.1076 37.7716
-37.6968 -0.5254 -8.7948
29.5985 -23.3506 -27.9756
-31.9322 20.0414 22.9642
26.7198 26.5965 22.1687
-18.4814 32.8597 41.8923
35.5463 -12.5611 38.2182
-6.6424 37.1106 -25.1441
-23.4686 -29.5050 -10.3078
-21.7341 -30.8050 -27.9117
-17.1207 33.5887 64.3122
-25.5780 27.6963 41.1537
36.0453 11.0479 11.5680
-37.1265 -6.5533 24.7471
33.7806 -16.7390 28.0099
-3.8880 -37.4994 -34.8517
18.2978 -32.9623 28.9009
-28.8339 24.2885 -64.6562
-28.2811 -24.9299 -47.4926
-36.6645 8.7772 29.4327
-9.2508 36.5478 44.5757
36.7325 8.4878 36.8649
20.9466 31.3459 57.4944
17.8698 -33.1963 20.7661
37.7002 0.1293 -65.8235
18.4078 -32.9010 -51.5108
32.2653 -19.5006 33.9141
21.6258 30.8812 -7.2931
37.5001 3.8813 58.1346
-37.7004 -0.0233 9.3594
37.4383 4.4383 53.9840
-27.4735 -25.8172 18.7719
-8.8385 -36.6497 -58.4946
29.7204 -23.1952 -45.0653
-7.5211 -36.9426 53.5686
13.3561 -35.2553 47.0648
37.6575 -1.7981 55.4893
32.0623 -19.8326 -53.9142
1.0962 -37.6845 42.2617
35.4915 12.7153 -44.0210
-3.9101 -37.4971 -40.8913
-12.2153 -35.6666 64.4799
24.0455 29.0368 11.9137
0.4282 37.6980 5.6170
-20.4363 -31.6809 44.9080
-18.5794 -32.8044 -39.4875
-24.5443 28.6164 17.8103
35.6022 12.4018 -2.7878
-34.6605 14.8315 30.1608
-36.8435 7.9925 -26.2818
-13.4005 35.2385 -0.5348
-35.5929 -12.4284 -2.1454
-37.2412 5.8666 -60.7070
24.8083 -28.3878 0.4612
23.8364 29.2087 20.5284
13.5200 35.1928 -58.5290
36.3261 10.0864 -52.6659
-21.2000 31.1750 67.3661
-16.4179 -33.9378 15.3932
-25.1137 28.1181 21.0632
37.6365 -2.1948 -18.5326
-33.6262 17.0470 -12.8049
-34.2730 15.7063 55.6676
37.6975 0.4678 24.0971
-37.6809 -1.2125 -39.4142
32.2723 19.4890 -61.3068
6.5040 -37.1352 -51.8666
37.5559 -3.2982 -25.9454
27.9948 25.2510 67.1082
-37.5220 3.6637 -14.5877
35.0542 13.8754 27.6515
-31.8399 20.1877 -18.9140
-24.6794 28.5000 -65.9269
28.6262 24.5329 -1.8953
-23.2937 29.6433 29.2596
-27.5106 25.7777 23.1171
-8.4296 36.7459 -43.8212
-10.8908 36.0931 -12.2341
16.8467 -33.7270 -49.2399
-32.0279 19.8880 51.1938
37.6836 -1.1252 -3.5915
-32.2696 -19.4935 66.0353
-34.1171 16.0420 -53.0581
-37.5928 -2.8472 -55.1537
28.9699 24.1260 6.8297
37.6998 -0.2247 -57.5983
13.4377 35.2243 22.5095
28.4530 24.7336 -6.9026
37.6976 0.4619 11.8630
-28.6596 -24.4939 -34.9594
16.5452 33.8759 0.2822
-35.1591 13.6072 -16.2841
4.5935 -37.4195 -58.8327
-25.5743 -27.6998 3.1404
20.6556 -31.5384 -39.8234
29.0801 23.9932 -25.6431
-25.4328 -27.8297 22.8405
-6.3194 -37.1670 -58.4558
-7.4070 36.9656 -20.1339
-35.3499 13.1037 -43.0848
-29.8460 -23.0334 53.2272
-31.3203 20.9848 17.7856
-20.1652 31.8542 16.2598
15.5270 34.3545 -60.2646
30.6120 22.0051 -43.3636
14.3890 34.8465 41.9475
36.2231 10.4502 -53.3811
-17.7705 33.2495 9.5814
-34.0198 16.2474 40.0932
2.7120 37.6028 -25.6735
15.6420 -34.3023 33.4951
-27.9659 25.2831 68.5924
-13.3682 35.2507 62.3692
15.8248 -34.2184 43.0379
23.2412 29.6845 -10.8124
34.5736 15.0329 -42.7008
-34.9605 -14.1097 -34.8931
33.6080 17.0828 62.1201
37.6995 0.2693 -5.6911
32.4680 -19.1612 39.2228
-36.5791 9.1264 3.4438
-36.3096 10.1458 27.9603
-3.7328 37.5152 -16.2783
36.0616 -10.9948 46.7580
37.7003 0.0772 -29.2899
23.9745 29.0955 -62.1474
18.5172 32.8396 -7.6360
28.3297 -24.8747 29.7338
26.6725 -26.6440 -42.3531
37.0104 -7.1798 48.3242
21.9032 -30.6851 -61.5230
-23.4652 29.5077 12.9485
29.1718 23.8815 -62.4002
18.4897 32.8550 66.5565
-21.7376 -30.8026 -3.3801
-1.5642 37.6680 -19.1760
35.1510 13.6282 -26.0884
13.3857 -35.2441 7.9300
-11.0051 36.0584 -55.6673
1.4558 -37.6723 -60.3031
26.3550 -26.9581 16.8737
-1.8597 -37.6545 -26.8992
-36.0362 -11.0775 27.2102
-23.2411 -29.6846 -34.6617
31.5811 -20.5902 -56.4182
31.3702 20.9102 52.4882
-14.7802 34.6824 -67.7302
37.6249 2.3847 -54.5844
-3.7629 -37.5122 28.4472
37.1674 -6.3171 64.6887
8.1458 -36.8099 57.0802
30.0179 -22.8089 36.9531
37.0549 6.9469 48.3717
21.6492 -30.8647 58.6516
30.8642 21.6500 -42.8230
35.4669 12.7836 56.5823
9.0925 -36.5875 -9.8461
-29.7064 23.2132 -15.0567
-5.6571 -37.2736 -28.8658
29.1557 -23.9012 -49.5886
12.0238 35.7316 -33.1380
-10.7466 -36.1363 -46.5877
14.8549 -34.6505 24.0469
-31.9398 -20.0292 -47.3689
-6.8864 -37.0662 12.3786
15.7587 34.2489 51.5033
-9.4573 36.4950 0.6424
-12.8697 35.4358 -19.9432
-24.1074 28.9854 63.9999
11.9191 -35.7667 -36.0527
37.3787 4.9148 -60.0117
-27.7992 25.4662 -67.8617
34.3626 -15.5091 -57.9123
-30.9365 21.5465 -61.6002
-15.2197 -34.4918 9.8082
-7.8730 -36.8692 -34.5495
-18.6866 -32.7435 -54.5438
12.0494 -35.7230 0.8494
-13.5977 35.1628 -18.6750
-10.9389 -36.0786 20.8612
37.5644 -3.1992 27.9593
-2.1809 37.6373 36.7040
-18.5085 -32.8444 28.0171
37.6994 0.2818 -19.3394
-12.6431 -35.5172 45.6940
-18.5768 -32.8059 -57.0034
28.6051 -24.5575 -23.7066
-37.7002 0.1178 -20.4374
32.7302 -18.7097 30.7896
34.4979 15.2058 44.7857
-31.6288 20.5169 -26.5384
37.5799 -3.0123 -59.5987
34.8338 -14.4198 0.3281
-18.2881 -32.9677 -1.9287
30.4444 22.2365 -59.7229
-30.5758 -22.0554 27.2847
-13.8020 35.0832 -1.6181
36.6038 9.0267 -51.3134
37.4643 -4.2125 55.5639
-17.3939 33.4481 -65.8219
-20.5685 31.5952 -39.8482
-36.2708 10.2834 -6.1162
10.7237 36.1431 59.8959
-34.4239 -15.3726 -7.8425
35.6631 12.2256 2.8255
27.2974 26.0033 -21.7744
27.3264 -25.9729 -16.8663
8.5946 -36.7077 -23.3859
-14.9428 -34.6126 3.7118
18.0532 -33.0969 -39.7085
-11.7549 -35.8210 -12.7969
-12.5695 -35.5433 -0.9109
-23.2638 29.6668 59.0720
-15.0944 -34.5468 -41.2638
23.9799 29.0910 25.9682
-13.0795 -35.3589 -21.5410
-25.1889 -28.0507 -35.7064
34.7865 -14.5334 4.7915
-11.4528 -35.9187 14.2816
-29.1023 -23.9662 32.1877
30.4391 -22.2437 19.5520
15.4351 34.3959 -64.9766
-17.4403 -33.4239 -18.3465
35.7590 11.9423 -12.6885
19.1933 -32.4490 -41.3591
37.3200 -5.3419 5.0579
-34.1117 16.0534 -26.9085
-13.7530 -35.1024 24.2698
13.9431 -35.0273 38.0205
18.6916 32.7406 22.3778
28.0762 -25.1604 -5.2394
-4.4902 37.4321 -19.7104
35.8620 -11.6291 -42.5407
-35.2590 -13.3463 21.6854
-8.8199 -36.6542 19.5951
-7.1902 -37.0084 63.9420
-14.3721 34.8535 -56.7513
36.5903 -9.0812 -63.8083
29.9519 22.8955 53.2580
-4.2362 37.4617 -37.4071
32.4589 -19.1767 -17.2505
-1.0129 -37.6868 60.2208
-31.1314 -21.2640 -40.5934
0.9462 37.6885 39.5973
-35.5506 -12.5491 -33.8687
-18.4741 32.8638 -66.0820
-12.2151 35.6667 67.8926
-11.2389 -35.9862 -29.2605
23.1733 29.7375 40.0089
-27.9276 25.3253 55.4535
28.7193 24.4239 39.9581
20.9389 -31.3510 -42.3304
2.2908 37.6308 -56.7079
34.1869 15.8926 -51.5318
-29.5632 -23.3953 12.4193
23.1504 -29.7554 31.7388
14.6637 -34.7318 -3.9936
28.2527 -24.9621 22.3949
-25.2531 -27.9929 -9.6243
-36.9376 7.5456 63.4160
-18.3365 -32.9408 45.3705
-34.1776 -15.9128 65.2272
-0.1894 37.6999 26.4006
35.5869 12.4455 -57.5051
37.2679 -5.6946 -55.6295
-4.8919 37.3817 -12.4188
-32.4197 -19.2429 -67.0948
18.5269 32.8341 -29.5903
-33.2696 17.7328 -37.6395
-1.5300 -37.6694 -49.1887
-25.5086 27.7602 25.6501
18.7401 -32.7129 -6.2566
-23.7329 -29.2928 -6.4719
36.7362 8.4718 -30.9212
36.3661 9.9414 -31.9348
6.3967 37.1538 -9.6241
-37.0913 6.7497 -33.9244
-12.9005 -35.4246 7.0760
33.0646 -18.1123 -60.7146
-29.2223 -23.8197 -50.9865
35.6986 12.1217 65.8763
37.1555 6.3867 -6.6029
-3.6677 37.5216 31.1686
19.9044 32.0177 -4.4724
-5.0918 -37.3550 -60.3218
-13.6295 -35.1505 52.1785
-1.5676 37.6678 8.4005
3.3473 -37.5515 68.0816
19.3631 32.3480 61.9294
-3.2276 37.5620 25.1203
19.8897 32.0269 -5.7787
8.8477 -36.6475 -43.0925
-23.1362 -29.7664 -48.0062
-22.7833 30.0373 -30.1452
19.7901 -32.0885 29.4655
-37.5195 -3.6886 -40.3859
-14.2101 34.9198 34.8753
36.7982 8.1986 -66.1089
24.1355 28.9620 -59.6944
-11.8255 35.7977 -48.9420
-30.0728 -22.7366 45.8487
35.7812 -11.8756 -46.5403
1.1844 -37.6818 -15.2033
30.0242 -22.8006 8.2746
5.9261 -37.2317 4.8458
-14.8215 -34.6648 28.9344
-15.9176 34.1753 15.4078
28.0343 25.2072 -66.3182
26.3182 26.9940 -37.5337
21.1128 31.2341 -65.9105
-36.3634 9.9510 -56.6967
7.1297 37.0201 15.3499
19.0189 32.5516 -26.9326
-2.4043 -37.6237 54.9777
-32.4018 -19.2730 -6.3677
-11.8615 35.7859 65.2106
36.0918 -10.8951 11.0835
-35.1084 13.7375 -68.4627
-15.7890 34.2349 44.0427
33.5568 17.1832 -59.6641
-36.4442 9.6511 -58.5236
-10.8524 -36.1047 55.5784
20.4626 -31.6639 -22.8110
36.8896 -7.7767 -52.3963
-18.6359 -32.7723 40.0473
-31.7544 20.3218 -55.7956
-31.9541 -20.0064 54.2138
-34.6287 -14.9056 -8.9903
22.9156 -29.9366 16.4340
-36.6192 8.9642 -62.9550
-37.5762 3.0575 -4.3167
-37.5721 3.1081 -57.8065
-31.2621 21.0714 -60.6086
10.8413 -36.1080 37.2816
37.3637 -5.0279 -36.9149
-16.1380 34.0718 30.1628
-37.3525 -5.1101 -53.9902
25.9114 27.3847 63.0361
-9.1262 -36.5792 -33.0598
28.7789 24.3536 60.2206
-37.5216 -3.6673 -43.5737
-36.7599 8.3687 -56.8429
30.9218 21.5677 32.9188
6.0635 -37.2096 -31.8185
18.7183 -32.7253 -30.8031
-26.1249 -27.1811 -35.6633
-9.1290 -36.5785 8.8828
17.8060 33.2305 -4.6778
-0.6714 -19.0437 68.7761
30.7833 16.3847 68.7761
-19.1092 -24.7212 68.7761
9.9088 13.5020 68.7761
-7.2364 -21.8812 68.7761
-8.7693 11.5995 68.7761
23.5231 -20.7583 68.7761
-11.2999 16.2457 68.7761
-24.8523 8.1171 68.7761
14.1347 13.2642 68.7761
12.4560 30.7786 68.7761
28.0446 12.0096 68.7761
-31.0030 16.8992 68.7761
20.5537 26.5039 68.7761
29.9558 -11.1233 68.7761
-6.5520 -4.8930 68.7761
25.5668 2.3854 68.7761
-7.0029 3.8712 68.7761
-7.6612 14.6874 68.7761
-26.5903 19.0002 68.7761
-11.3071 12.0716 68.7761
1.3534 -6.9783 68.7761
-17.4069 5.4930 68.7761
-3.8987 -0.2091 68.7761
-17.3705 -20.5152 68.7761
31.8463 6.6563 68.7761
5.7954 31.0956 68.7761
-25.3473 25.1434 68.7761
10.2779 -27.7819 68.7761
3.6720 7.5709 68.7761
1.4274 26.9728 68.7761
-33.1347 4.8328 68.7761
19.0717 -9.2119 68.7761
-9.3382 -6.9444 68.7761
6.0400 8.0281 68.7761
-22.0385 -9.9982 68.7761
13.9014 -0.2861 68.7761
-23.1099 -4.3232 68.7761
-9.6806 7.4767 68.7761
21.7991 -30.4317 68.7761
8.7258 -21.0227 68.7761
-2.1829 -4.0040 68.7761
3.1477 1.8238 68.7761
-4.8478 35.5725 68.7761
-36.4023 -0.3010 68.7761
6.1270 -7.4053 68.7761
-9.5816 16.8691 68.7761
6.1152 25.2267 68.7761
3.7091 -6.0241 68.7761
14.9256 21.8476 68.7761
-0.3817 -0.2031 68.7761
1.1253 -2.6606 68.7761
-1.9007 -7.7054 68.7761
2.0950 -14.9624 68.7761
7.9466 22.0890 68.7761
11.6104 15.4331 68.7761
-1.3503 0.6379 68.7761
4.1069 8.3898 68.7761
-29.5020 22.4322 68.7761
-9.4621 4.4437 68.7761
4.6385 -23.8405 68.7761
1.3332 10.1900 68.7761
-0.1694 1.9319 68.7761
-28.0415 22.5434 68.7761
29.0085 5.4361 68.7761
-1.1681 -20.7879 68.7761
-1.8348 1.7663 68.7761
-30.0096 1.7085 68.7761
-1.9181 27.2943 68.7761
24.2587 13.7593 68.7761
16.1513 -10.7433 68.7761
-0.6163 -31.7395 68.7761
-20.4783 -8.0264 68.7761
1.6558 -2.5139 68.7761
4.1397 -19.5525 68.7761
-8.2799 2.0045 68.7761
-9.7892 -24.7532 68.7761
-9.1539 5.3214 68.7761
-4.8154 -18.5372 68.7761
-15.9052 5.4468 68.7761
25.0824 -9.7593 68.7761
1.9317 -2.7747 68.7761
5.9248 -3.9331 68.7761
5.3839 3.4197 68.7761
4.1670 -1.6250 68.7761
-1.6465 5.7900 68.7761
14.0498 -0.2608 68.7761
4.8734 -19.3563 68.7761
9.5273 -12.9959 68.7761
-1.4829 -13.4150 68.7761
-29.0437 6.2608 68.7761
-7.8687 9.3107 68.7761
-23.2127 27.4390 68.7761
-21.3760 -14.8587 68.7761
-31.2234 4.9076 68.7761
-8.8893 12.5986 68.7761
21.4984 -0.6694 68.7761
29.5862 21.0108 68.7761
-19.1004 -18.4357 68.7761
24.7204 15.7821 68.7761
19.5366 -3.1004 68.7761
15.0656 22.5372 68.7761
-0.4799 -30.7911 68.7761
-12.0642 12.5569 68.7761
14.9180 -20.0654 68.7761
27.9651 1.0469 68.7761
-27.5871 -23.3878 68.7761
21.6694 19.6204 68.7761
-28.2072 -13.2830 68.7761
1.0680 -25.9600 68.7761
13.8897 12.9127 68.7761
-3.1250 29.8176 68.7761
-11.5807 26.8519 68.7761
-5.1231 -3.9653 68.7761
-8.5381 -5.6236 68.7761
-0.5235 0.0152 68.7761
8.8683 4.2511 68.7761
15.3971 -27.7936 68.7761
10.4132 0.0291 68.7761
-13.6199 9.0734 68.7761
-0.2257 0.0767 68.7761
11.8848 0.3732 68.7761
19.7269 28.2980 68.7761
-32.2882 -8.9052 68.7761
28.7526 9.3569 68.7761
13.4851 9.3819 68.7761
-9.9019 -12.2821 68.7761
29.8112 7.0883 68.7761
-23.2924 -2.2300 68.7761
0.2527 24.3479 68.7761
17.9890 -18.8803 68.7761
-1.3736 -5.2237 68.7761
7.7330 9.1154 68.7761
-15.3522 -2.7170 68.7761
0.5081 15.7228 68.7761
32.9553 -1.9255 68.7761
17.7039 -25.0402 68.7761
-2.1110 0.9235 68.7761
16.1118 17.8333 68.7761
22.4230 14.6623 68.7761
13.9913 2.9653 68.7761
29.6889 -7.9618 68.7761
5.4248 2.1166 68.7761
-0.3594 -3.5038 68.7761
3.5831 -13.0079 68.7761
24.7750 -17.3461 68.7761
-13.3305 3.7734 68.7761
-23.3906 -1.9521 68.7761
19.8961 5.4688 68.7761
32.7098 -18.2041 68.7761
8.3958 -28.6370 68.7761
-29.6556 3.3510 68.7761
0.5148 -5.2300 68.7761
-7.5822 24.5197 68.7761
-12.6151 -33.8641 -68.7761
-11.3560 -2.3020 -68.7761
-7.9450 21.5977 -68.7761
-23.5586 -27.1268 -68.7761
-36.7248 0.3129 -68.7761
-2.6864 6.9702 -68.7761
-25.6179 -24.9847 -68.7761
8.8396 -20.3492 -68.7761
-13.0257 16.1923 -68.7761
-9.2570 -4.0138 -68.7761
-9.9181 -10.3328 -68.7761
0.8895 -5.6589 -68.7761
-5.2057 -16.8048 -68.7761
-12.9709 -1.2483 -68.7761
-4.9349 -9.9524 -68.7761
17.6777 28.9571 -68.7761
16.0105 -29.9117 -68.7761
25.7267 -17.8158 -68.7761
-16.8138 -16.7877 -68.7761
2.5227 -9.2857 -68.7761
26.8657 -24.5020 -68.7761
-8.8465 -0.1361 -68.7761
0.3752 1.8070 -68.7761
1.8858 -3.6262 -68.7761
-22.0785 7.6240 -68.7761
-18.7578 3.2080 -68.7761
-16.0950 -12.5779 -68.7761
-7.3426 -23.5984 -68.7761
0.9514 37.1989 -68.7761
22.2086 25.0303 -68.7761
-11.0060 -2.8852 -68.7761
12.7931 -12.7455 -68.7761
-7.5324 -5.7107 -68.7761
8.3557 -6.7605 -68.7761
-0.4043 20.8894 -68.7761
-22.5404 -4.0508 -68.7761
1.7169 0.4245 -68.7761
-13.4496 22.5890 -68.7761
-0.6659 2.9611 -68.7761
-1.0812 4.3238 -68.7761
5.9576 -9.8987 -68.7761
-30.1868 3.9777 -68.7761
-1.4069 -0.9852 -68.7761
5.1602 -14.8398 -68.7761
0.1827 8.8815 -68.7761
3.2404 12.0181 -68.7761
-5.4154 0.2999 -68.7761
20.3104 17.2102 -68.7761
17.5922 -23.2158 -68.7761
-0.3243 4.6508 -68.7761
0.6224 3.0327 -68.7761
-0.5968 7.3245 -68.7761
-28.4910 -1.2200 -68.7761
-0.2913 -1.1172 -68.7761
0.5197 -15.4593 -68.7761
-1.9433 1.6564 -68.7761
-27.2984 9.3818 -68.7761
-6.4111 -3.6829 -68.7761
-13.0394 -8.7291 -68.7761
13.4669 0.5043 -68.7761
-30.4605 14.1267 -68.7761
4.0926 27.6283 -68.7761
12.6589 -32.1827 -68.7761
6.2832 -4.3650 -68.7761
5.2028 -8.4742 -68.7761
-3.7371 1.6882 -68.7761
7.5358 -6.0043 -68.7761
7.0407 29.5533 -68.7761
-9.3311 -2.7031 -68.7761
-1.8342 -0.4845 -68.7761
-14.4373 -13.7924 -68.7761
16.5647 -1.3268 -68.7761
-1.2799 4.1197 -68.7761
-29.1296 -3.6840 -68.7761
-26.2137 16.6558 -68.7761
-5.3514 -24.6653 -68.7761
-2.6313 23.1225 -68.7761
26.3680 -21.1276 -68.7761
-8.3694 -6.0443 -68.7761
-2.1009 -8.1469 -68.7761
-9.5143 -0.4981 -68.7761
5.4031 -0.9375 -68.7761
12.9699 -12.1388 -68.7761
-24.4059 5.1256 -68.7761
3.3558 -1.7107 -68.7761
-18.1434 -10.7529 -68.7761
0.0060 28.2259 -68.7761
32.4453 8.6633 -68.7761
12.1674 12.5482 -68.7761
-26.4966 8.8960 -68.7761
1.4020 7.9901 -68.7761
-21.3151 22.7542 -68.7761
-19.1533 -11.3544 -68.7761
-7.8650 30.2039 -68.7761
11.6551 -34.1032 -68.7761
11.0400 3.3705 -68.7761
-2.5913 -10.2631 -68.7761
-8.9876 -11.5224 -68.7761
-2.5188 18.7728 -68.7761
-11.2566 7.7220 -68.7761
-26.2847 18.4801 -68.7761
14.2300 -11.0200 -68.7761
4.3649 0.2964 -68.7761
1.6586 -8.5963 -68.7761
-9.9582 15.6270 -68.7761
3.4244 -2.8347 -68.7761
0.8890 -1.4687 -68.7761
2.0806 -9.1019 -68.7761
1.7792 -8.2831 -68.7761
6.1872 -18.1061 -68.7761
12.3958 5.1492 -68.7761
-28.6593 -22.6753 -68.7761
-5.2010 -3.6822 -68.7761
-31.2232 0.5816 -68.7761
-17.0786 -19.6893 -68.7761
-21.3858 5.0578 -68.7761
8.8555 -30.7682 -68.7761
36.5544 8.3182 -68.7761
-0.4744 -2.8053 -68.7761
19.4933 15.9395 -68.7761
35.8757 -2.5415 -68.7761
13.9520 -26.3703 -68.7761
-3.9683 0.1933 -68.7761
-5.2194 32.8301 -68.7761
5.7851 14.3657 -68.7761
1.6130 1.4512 -68.7761
-1.6927 4.1017 -68.7761
27.9063 13.5538 -68.7761
13.8050 34.3626 -68.7761
-13.7879 7.9479 -68.7761
-8.2589 9.4987 -68.7761
15.5481 -1.9079 -68.7761
-18.2270 -11.1260 -68.7761
0.4262 -28.9267 -68.7761
-24.7424 -25.8324 -68.7761
-29.9532 -17.8622 -68.7761
-14.6083 24.0637 -68.7761
-23.0722 7.4469 -68.7761
19.8822 18.9174 -68.7761
6.9675 -35.0695 -68.7761
-4.6728 4.6771 -68.7761
0.5301 -13.3589 -68.7761
-4.9916 4.4740 -68.7761
-1.5174 2.7169 -68.7761
9.2274 -22.9941 -68.7761
-35.0665 3.8821 -68.7761
-2.8090 2.5394 -68.7761
-5.8755 -14.4128 -68.7761
3.9703 17.4515 -68.7761
13.1816 -6.1709 -68.7761
-15.8477 31.2657 -68.7761
0.1393 -4.2112 -68.7761
3.8704 31.8881 -68.7761
-27.4826 19.4618 -68.7761
