ply
format ascii 1.0
element vertex 1024
property float x
property float y
property float z
end_header
-42.7625 -80.4795 18.4278
-45.4094 -79.0163 64.8608
80.4321 -42.8517 -11.5055
-18.8293 -89.1686 -19.2028
-79.2263 45.0420 -17.6392
-44.2647 79.6632 -6.9136
-40.9624 81.4105 -32.4863
-58.4935 69.8863 11.3609
-89.3402 -17.9979 -61.2868
-46.8660 -78.1611 58.9985
90.8806 -6.8053 48.0960
-76.0803 -50.1735 -63.2101
7.1156 90.8568 -24.2868
-49.9042 76.2572 -31.5661
52.5004 -74.4936 10.4190
-60.4471 -68.2037 5.2490
89.0258 -19.4934 -34.4451
63.4549 65.4145 20.6384
-90.8464 7.2468 3.6152
70.0002 -58.3572 6.8038
-85.1258 32.5451 -47.8121
63.5551 65.3172 43.6849
51.6649 75.0754 35.4368
-86.2410 -29.4631 -57.3493
-62.9401 -65.9100 -18.4144
-61.6671 -67.1026 -60.7712
-62.7338 -66.1064 -47.8995
-79.9190 -43.8011 -47.1112
-52.8868 74.2198 -63.7717
47.1330 78.0004 -43.0138
24.7574 -87.7078 -56.0310
-20.1600 -88.8772 -11.5485
-79.9749 -43.6990 -46.3616
52.7893 74.2892 32.2954
6.7726 90.8830 64.8880
-78.0757 47.0082 22.8158
-83.3552 -36.8443 -17.6491
36.6742 83.4302 -54.1202
90.8676 -6.9767 7.5364
-77.2890 48.2908 -1.6774
91.1317 -0.7747 -18.5997
-81.4799 -40.8243 -70.9969
82.0355 -39.6960 70.6478
32.8307 85.0161 -16.9969
-55.6091 -72.2026 48.8481
-34.3322 -84.4209 50.3507
-16.5519 -89.6193 64.1945
-85.8527 30.5761 -9.6091
-20.6540 -88.7637 -66.8097
36.4489 -83.5288 -44.2180
-88.2650 22.6910 -51.1807
90.9007 -6.5315 -65.9408
-44.9357 79.2866 -7.7379
-83.3096 -36.9472 53.9907
-89.0554 -19.3576 63.9618
1.2431 91.1265 -67.0868
11.6161 -90.3917 30.2656
79.9191 -43.8010 39.3912
-43.1708 -80.2613 2.8793
-73.9210 53.3036 5.6934
88.3000 -22.5542 -23.3908
61.8117 -66.9694 22.4048
-81.8839 40.0077 -28.9541
-79.6363 44.3131 22.4360
1.1000 -91.1284 -15.0448
-8.8772 90.7016 27.4799
-19.8913 88.9378 52.9385
26.4657 87.2075 -69.7206
52.7346 -74.3280 56.6741
24.6464 -87.7391 -50.5903
-4.4274 91.0274 28.7450
25.1562 -87.5943 -32.0609
54.6545 72.9279 9.2714
-89.3401 17.9980 49.6296
24.3384 87.8250 1.4915
-90.1395 13.4338 -16.8770
-90.3548 -11.8996 19.0695
7.1582 -90.8534 -50.5241
0.8427 -91.1311 64.8763
-90.7753 -8.0893 21.3768
80.6866 -42.3705 -44.3076
-76.9982 48.7531 -6.0486
-65.5069 -63.3596 52.3047
4.4527 -91.0262 -61.6595
-27.0593 87.0252 59.4032
43.3426 -80.1686 -8.9781
-86.8710 -27.5502 -19.8652
26.3865 -87.2315 9.8059
86.4472 -28.8527 44.3934
37.9908 -82.8389 -28.4980
-85.7952 -30.7371 59.9459
62.1621 -66.6443 -23.0978
36.4965 -83.5081 -56.9249
34.3491 84.4140 27.3958
81.9222 -39.9293 9.4150
-86.4308 28.9016 52.8607
77.2254 -48.3924 63.8968
90.7390 8.4868 37.9767
3.7097 -91.0595 11.7118
-84.0209 -35.2998 -51.1766
-15.6680 89.7781 44.9532
72.8789 -54.7197 44.5131
-13.2974 -90.1597 49.2454
-89.4430 -17.4795 -70.2807
-69.6286 -58.8001 -24.9060
-21.7595 88.4992 18.7013
-17.3327 89.4716 -69.6029
-91.0030 -4.9026 -0.8825
88.6688 21.0579 45.0422
86.3847 29.0393 -17.5266
15.8997 -89.7373 30.3894
77.7379 -47.5648 69.1675
90.9350 6.0337 10.7052
-25.5612 87.4769 30.1195
-55.4385 72.3337 69.4294
-88.0345 23.5695 65.2096
-90.8303 -7.4458 26.2162
85.3242 32.0213 -65.7043
53.7156 -73.6222 53.0243
67.9926 60.6844 -6.3186
3.4435 -91.0699 28.3093
48.6608 77.0566 46.2212
91.1314 -0.8085 52.5129
51.4342 75.2337 -60.2093
91.0472 4.0002 -6.8274
32.2156 -85.2511 53.3303
85.8242 -30.6561 -13.4579
-56.9996 71.1100 -38.3533
-67.4479 -61.2893 -55.4787
43.9836 79.8187 71.5177
7.5982 -90.8177 -65.5046
-90.9313 6.0896 -1.0822
19.2565 89.0774 56.8119
-37.6324 83.0024 42.4271
17.8808 89.3637 37.5997
79.7869 44.0413 -54.9565
-59.2639 -69.2343 -4.7732
-88.3655 -22.2962 -8.7806
25.4306 -87.5150 -67.0985
88.4993 -21.7592 6.9137
84.4839 -34.1770 3.9001
-41.6298 -81.0712 27.7654
-88.7911 -20.5360 -49.9628
-36.9426 83.3117 -1.6847
-10.5138 90.5265 -40.9156
34.2292 84.4627 40.3735
12.5877 -90.2615 -21.0575
-91.1335 0.5233 -22.9903
-89.6286 -16.5018 67.5761
22.8436 88.2256 26.3376
-13.6123 90.1127 11.7326
-26.2104 87.2846 9.2164
-24.9494 -87.6534 -58.1315
-30.6317 85.8329 58.0427
-7.7598 -90.8040 -47.1708
-14.4893 -89.9758 -40.9253
-91.1083 -2.2077 5.7008
79.4958 -44.5647 40.7411
-74.3008 -52.7729 -64.4428
-30.0989 -86.0212 47.4181
-32.9540 -84.9684 -46.4022
-49.4186 -76.5728 17.8878
87.1778 -26.5634 53.5743
-65.9196 -62.9301 3.6176
-90.9079 6.4296 -11.4251
22.6851 -88.2665 -65.6055
-37.6884 -82.9769 -62.9674
77.6011 -47.7876 -27.4103
-86.5996 -28.3918 12.9315
-33.3355 -84.8194 5.4380
-69.3664 -59.1092 -21.9640
-24.1357 -87.8809 -24.1731
-85.4164 -31.7747 20.4536
-18.0963 89.3203 -21.1990
-90.3565 -11.8866 -69.7628
71.4855 56.5280 -42.4110
13.1840 -90.1763 61.4821
-17.5720 -89.4249 -66.6951
89.0958 19.1710 -6.0649
85.7733 -30.7983 -61.4770
-76.8222 -49.0299 33.9823
-77.1394 -48.5294 17.0294
7.9005 -90.7919 16.4346
-89.5135 -17.1148 -12.6300
-24.1532 87.8761 -2.8314
-80.5036 42.7173 -63.6827
47.3004 -77.8990 19.7949
80.0963 43.4760 -14.1915
77.8156 47.4375 -11.4587
-89.2559 -18.4113 -54.7058
-12.4323 -90.2830 29.8413
-57.4346 -70.7591 26.8506
89.8531 15.2318 -48.6760
-19.9671 88.9208 -31.0736
-76.4424 -49.6200 -1.8184
31.2392 85.6137 -31.8395
67.4098 61.3312 -41.4604
70.7835 -57.4046 -19.8073
89.6951 16.1360 -52.7784
-86.5020 -28.6879 35.5039
84.9195 -33.0796 64.4316
84.1409 -35.0128 -25.2689
67.5678 -61.1570 -32.8034
55.2202 -72.5005 -55.8063
56.1769 71.7617 9.7837
46.4517 -78.4081 32.9102
13.9232 -90.0652 -46.3271
65.4861 -63.3810 57.9803
67.7166 -60.9922 67.4121
91.1250 -1.3530 5.8183
35.5236 83.9265 52.8772
25.7943 -87.4085 -34.6993
-58.9214 69.5259 8.1110
-85.7955 30.7362 -2.8952
53.5609 -73.7348 -51.9709
51.8252 74.9649 -63.9377
-55.4613 72.3162 -34.3343
-2.9201 91.0882 9.8767
36.4098 83.5459 -30.8948
-90.5571 -10.2466 40.3707
-20.3559 -88.8326 49.3463
19.2652 -89.0755 6.3355
76.1981 -49.9944 18.4597
67.2045 61.5560 -8.4070
85.8773 -30.5071 57.4698
-34.0153 -84.5491 -47.2711
-10.2636 -90.5552 37.5391
-4.3275 91.0322 -29.8029
-79.1981 -45.0916 -58.3415
-49.4678 76.5410 48.2740
-86.2844 29.3359 63.5668
87.2862 26.2053 -3.4794
-89.4127 -17.6341 7.3488
-91.1029 2.4191 15.6750
10.6079 90.5155 -36.0142
-60.4669 68.1861 -4.1320
27.0660 87.0231 16.1912
29.6524 -86.1761 -64.6716
69.2819 -59.2082 33.2246
-21.7724 88.4961 39.9201
41.6127 -81.0800 66.0394
73.7454 53.5463 -47.9856
-14.2708 90.0107 5.9061
0.5958 -91.1331 62.8216
-47.2726 -77.9159 70.1524
-72.5114 -55.2059 -38.8450
53.8375 73.5331 54.3177
-49.4914 -76.5258 -33.6988
83.1603 -37.2820 66.2595
-76.5849 -49.3998 -70.9586
-79.1253 -45.2192 8.7134
81.0289 41.7123 34.0035
-5.0397 -90.9955 51.8269
-10.2636 90.5552 12.2844
64.0302 64.8515 -9.7696
32.9880 84.9552 15.2444
78.5778 46.1640 -35.2629
-85.3337 31.9960 67.4122
81.7216 -40.3382 19.4142
90.3564 11.8874 57.2927
-13.8783 -90.0721 38.9428
49.7970 -76.3272 19.5678
-73.9457 -53.2693 -10.7354
36.3192 -83.5853 -9.8261
89.9400 -14.7099 7.4010
80.0117 -43.6315 -64.0611
87.7672 -24.5461 51.4524
-66.1154 -62.7243 -7.4640
-68.2666 -60.3760 18.0225
20.0139 88.9103 53.2281
-43.0997 -80.2995 28.4808
82.9003 -37.8566 -62.8940
-83.0901 -37.4383 6.8609
-88.3722 22.2697 22.2546
88.4670 -21.8903 -6.4427
71.1196 -56.9876 -42.8182
14.7049 89.9408 44.1904
-90.3227 -12.1406 -46.8837
90.2987 -12.3183 -45.8243
-71.1148 56.9936 37.7421
90.4143 -11.4385 52.5813
-54.5689 72.9919 -60.8660
4.9479 91.0006 10.6135
38.3501 82.6732 40.9544
-63.2553 65.6076 -23.2528
-90.8952 6.6069 -41.4536
-83.6866 36.0852 -6.7865
86.4378 28.8808 -58.0761
-44.1449 79.7297 -31.4483
-82.1421 -39.4749 8.2902
-9.1361 90.6759 -15.1985
-57.0896 71.0378 -30.3828
25.9046 -87.3758 3.4923
-81.9334 39.9063 -17.8326
-81.5678 -40.6482 4.8480
37.2130 83.1912 43.4569
45.9869 78.6816 34.4169
77.1912 48.4470 43.5097
88.5462 21.5674 20.9589
67.7689 -60.9341 -53.5660
-17.4199 89.4547 6.1804
21.7051 -88.5126 -11.7887
63.4133 65.4549 43.2882
91.0963 -2.6574 -63.2481
87.5126 -25.4387 30.0165
-88.8140 -20.4368 -27.5848
46.3809 -78.4500 -10.3854
-90.9304 -6.1039 46.0985
-86.3039 -29.2785 67.2813
-21.0526 -88.6700 3.4230
16.8523 89.5633 -36.9912
-65.2567 -63.6172 -37.4342
68.4131 60.2100 -24.9507
30.9101 85.7331 -67.1546
-90.8294 -7.4574 -48.2900
76.5636 49.4328 65.3236
75.7706 50.6399 3.8078
-80.9103 -41.9417 -34.3815
-43.8749 79.8786 40.5653
49.2159 -76.7032 -3.8178
87.6080 -25.1083 71.5015
-46.2529 -78.5255 -31.7053
-89.6008 16.6519 -10.5024
-10.6862 90.5063 -23.3625
-7.6890 -90.8101 7.6521
-19.7824 88.9620 19.4522
45.8437 -78.7651 57.4188
20.1895 88.8705 -33.9969
60.1470 68.4684 13.5459
-87.6336 25.0190 19.8388
84.0553 -35.2179 -40.8342
-88.6718 21.0453 -33.5690
56.5801 71.4443 -38.4621
8.2647 90.7595 -41.7536
-53.5985 73.7075 -6.7366
-82.3758 38.9848 13.3121
63.1264 -65.7316 47.8869
28.6131 -86.5267 48.3529
-84.0481 35.2351 -38.0166
69.1090 -59.4099 28.2089
60.3685 -68.2732 28.1869
-90.3705 -11.7794 50.6608
-82.2989 -39.1470 -4.8816
16.3389 89.6584 40.6489
-86.1434 -29.7473 -59.5556
-86.6521 28.2313 34.5159
45.2524 79.1063 -26.7588
-89.7410 -15.8789 -37.6013
-68.8839 -59.6707 7.6614
-79.5371 44.4909 -65.6454
57.8500 70.4199 -22.9416
-48.8773 -76.9194 -7.9623
35.8970 -83.7675 38.0067
-71.0650 57.0557 -68.3988
76.7029 -49.2164 68.5936
10.2362 -90.5583 41.9394
-90.4806 -10.9020 -60.9799
-78.2684 -46.6868 -44.5113
-90.5107 -10.6488 -7.5084
3.6998 -91.0599 -7.9615
-27.3152 86.9452 57.2629
-91.0367 4.2311 47.1178
-85.4540 31.6735 32.1430
-80.2478 -43.1957 31.5179
-15.6211 -89.7862 38.5479
53.9557 -73.4464 -33.9425
-54.8464 -72.7837 -31.3033
57.8283 -70.4377 47.0938
48.6121 77.0873 -18.5161
-45.5835 -78.9160 62.2898
-88.1768 23.0313 11.6930
-91.1013 -2.4779 -21.9211
-48.1577 77.3720 71.2454
-90.3449 11.9743 -21.0127
52.7792 74.2963 32.6729
-63.1844 65.6759 8.8408
-78.8247 -45.7412 -14.3216
18.3388 -89.2708 26.1622
-55.3777 72.3803 40.0136
-37.6023 -83.0160 28.4616
72.3871 -55.3688 -14.8214
38.5603 82.5754 -20.7217
-79.8566 43.9149 -11.1586
-82.1570 39.4438 -70.7473
-88.0109 23.6574 -55.8634
-31.9760 -85.3412 -29.2342
-90.7418 -8.4571 9.3650
-91.1073 2.2485 41.2265
-40.2926 81.7441 2.9595
-73.8613 53.3863 58.1148
27.3263 -86.9417 -38.4616
-91.0744 -3.3236 18.5983
-81.6927 40.3967 -57.2447
-3.7631 91.0573 -68.4378
42.6227 -80.5537 36.4920
-56.2520 71.7029 25.5271
-69.7691 58.6333 30.3037
-87.8256 -24.3361 3.7679
-35.1939 84.0653 -53.5495
17.4887 -89.4412 22.6170
-70.8832 -57.2814 11.6728
-67.0419 -61.7331 -18.6893
78.4002 46.4650 56.6974
-85.6666 31.0937 50.9090
-48.5935 77.0990 34.8471
16.5114 89.6268 10.5824
-74.7711 -52.1044 -8.7748
53.7274 73.6136 52.6166
-68.8217 -59.7425 21.4580
-85.8588 30.5590 0.9174
90.0228 -14.1942 -44.7051
-47.5635 77.7387 66.1131
69.6480 58.7771 -2.9974
-61.2093 67.5204 -69.1649
-49.7021 -76.3891 -52.1830
-87.9168 -24.0048 -62.8813
-40.5363 81.6235 -4.4896
86.4038 28.9824 57.7402
-42.9772 -80.3651 -54.9187
-6.5932 -90.8962 -34.9686
-43.9997 -79.8099 61.5612
84.8108 33.3575 15.2810
-84.7079 33.6178 38.7820
30.3457 -85.9344 52.8073
-90.9648 -5.5670 5.6452
-35.9598 83.7406 19.8263
-57.8419 -70.4266 -0.6986
-49.4847 76.5301 -18.1390
-66.7577 -62.0403 -37.3579
-2.3142 -91.1056 -30.9496
-89.2391 18.4924 25.4750
-50.9733 75.5468 -15.0306
-32.5024 85.1421 -14.8442
-77.3738 48.1548 -37.6522
43.9021 -79.8636 47.9405
86.5156 -28.6467 3.8040
9.7220 -90.6150 1.9624
88.7829 -20.5713 -28.0942
-88.5277 -21.6433 -62.8820
68.9196 -59.6295 -31.3275
56.7219 -71.3317 -14.0409
-62.1865 66.6215 42.2030
33.2630 -84.8479 -59.1496
-88.1226 -23.2379 -41.4441
-90.6296 9.5842 15.2746
90.6498 -9.3915 -28.5808
-83.2123 -37.1659 52.9342
72.1516 55.6753 48.5678
14.1954 -90.0227 -57.8033
45.1175 79.1833 -70.0312
80.5500 42.6296 26.0510
-52.7399 -74.3242 71.1384
78.6736 -46.0007 -5.1007
-48.1169 -77.3974 34.2542
44.8378 79.3420 -36.9730
-12.3545 90.2937 -62.4067
-72.6120 55.0735 71.0083
-90.2685 12.5374 61.8243
-59.8008 68.7710 -0.6550
-0.9496 -91.1301 -46.7382
-90.7025 8.8680 -33.2546
81.8757 40.0246 -36.0442
91.0774 3.2385 -3.6083
26.9968 87.0446 65.5303
-35.6858 -83.8577 1.1495
-57.6478 -70.5856 59.8332
-32.3134 -85.2140 -3.5364
-89.8866 -15.0328 19.5765
-50.8461 75.6324 22.9212
3.5785 91.0647 -55.8719
-1.0416 -91.1291 62.9525
-79.3423 44.8374 -18.6878
6.6381 90.8929 71.7523
80.2169 43.2531 -53.1554
25.9058 87.3755 71.6414
-43.7384 -79.9534 -39.9282
-88.9648 19.7698 -61.4529
80.5466 -42.6361 36.4059
-90.9153 6.3239 48.9932
-88.7483 -20.7202 14.6084
40.6459 81.5690 -1.0842
-82.5193 38.6802 -46.1242
0.3575 -91.1343 19.3367
-12.4196 90.2848 41.9243
-54.5751 72.9873 -10.3622
4.5585 91.0209 -53.4007
-87.2320 26.3851 12.7483
85.1247 -32.5480 -66.8918
-90.4247 -11.3563 62.5164
79.1356 45.2012 25.6346
-44.0628 -79.7750 18.2194
-42.6086 -80.5611 36.1762
16.6770 89.5961 -0.9545
50.4196 -75.9174 -11.7708
91.1309 -0.8630 -24.1212
-60.9760 -67.7312 -1.6619
74.2644 52.8241 54.3522
-54.5840 72.9807 -16.1239
-76.5491 -49.4552 25.6943
60.4822 -68.1725 57.0220
51.2208 -75.3792 -51.6508
-91.1188 1.7204 -27.8076
90.4930 10.7988 -47.1461
-60.0050 68.5929 12.7485
90.3272 12.1072 -23.2834
-85.8329 -30.6317 11.0433
-38.9060 82.4130 9.6390
-1.1527 91.1277 -23.3651
-29.9981 -86.0564 -9.3650
27.4325 -86.9083 11.6525
-81.1862 -41.4053 -0.8654
-71.1246 -56.9814 -40.3949
65.0379 63.8409 -54.0658
-32.6183 -85.0978 -34.1876
13.0265 -90.1992 -49.6240
-62.8465 -65.9992 6.6195
-57.9589 70.3304 -28.3940
85.7831 -30.7709 -24.0699
18.9149 -89.1505 -38.0984
87.7897 -24.4654 69.1903
14.4554 89.9813 50.3446
-24.4090 87.8054 -63.6029
-39.4626 82.1480 -12.4898
-87.6565 -24.9383 -42.7805
-90.9896 -5.1467 11.1505
-74.9454 -51.8534 -22.2635
-37.4820 83.0704 1.7227
-57.6528 70.5815 37.3109
-28.7789 86.4718 37.3763
78.6964 -45.9615 17.8134
-25.6402 -87.4538 -64.4421
-50.6975 -75.7321 -25.4556
-62.2525 66.5599 -17.7602
-70.3405 57.9466 62.7161
-54.2239 -73.2486 22.5059
28.4517 86.5800 -68.1458
-80.1244 43.4243 71.3935
8.7969 90.7094 27.4784
-85.7856 -30.7638 20.1954
-89.5127 -17.1193 -13.6761
4.6531 91.0161 2.7321
-52.8864 74.2200 -47.1213
-39.3401 -82.2067 27.4466
-34.8278 84.2176 38.8277
10.3691 90.5432 9.6631
58.5730 69.8197 66.6729
-20.9748 -88.6885 51.3941
-12.8929 -90.2184 -65.7942
84.2015 34.8669 -62.7206
88.4231 22.0669 30.6057
81.4785 -40.8270 33.5500
55.0071 72.6623 43.8369
73.2964 -54.1592 -42.7275
90.6425 9.4622 31.5343
8.3868 90.7483 11.9310
67.5324 -61.1962 12.6760
-81.1716 41.4338 -57.6635
90.9940 -5.0685 -46.1104
-67.6220 61.0971 -21.6346
-32.7390 -85.0514 42.7888
32.6032 -85.1036 -50.8488
86.2736 29.3675 6.4849
-45.4855 -78.9725 -33.9934
-51.1274 75.4425 -21.8345
-40.5883 81.5976 7.9671
59.7720 -68.7960 30.2068
6.5342 -90.9005 -61.8181
57.1323 71.0034 -3.1223
-81.1249 -41.5252 -23.8640
54.9610 -72.6971 59.1626
80.8126 42.1297 -40.6828
-9.1314 -90.6764 47.4726
-26.3368 -87.2465 -11.7093
-3.6052 91.0637 -27.5053
-28.8491 86.4483 42.8920
-4.1032 -91.0426 35.9550
24.1261 -87.8836 7.1283
-36.7459 -83.3986 35.0398
-71.9356 55.9541 32.9023
22.4959 -88.3149 21.1233
-30.3571 85.9304 -7.9101
90.3508 -11.9300 2.8785
-55.4331 72.3378 -56.4851
-1.7371 -91.1184 50.6846
73.2886 54.1698 -54.3431
-74.3207 52.7449 28.3262
38.5623 -82.5744 18.7637
53.0195 74.1250 40.9109
-46.5943 -78.3234 11.4078
-70.6691 57.5453 55.4940
-40.3948 -81.6936 -29.6423
-50.4723 -75.8824 -21.6442
5.6701 90.9584 43.6362
-85.3281 -32.0109 71.6870
11.1435 90.4512 -33.5355
17.3870 -89.4611 -19.2701
-84.3266 34.5632 -34.0818
74.5231 -52.4586 -40.4054
-9.3458 90.6545 35.0102
90.7094 8.7970 -54.0823
-80.7481 -42.2532 19.2838
88.5835 -21.4139 62.5092
57.6075 -70.6184 -59.6202
-19.4948 -89.0255 9.0584
47.8682 77.5514 -60.4420
8.2093 90.7645 60.3690
-86.5385 -28.5776 -19.2552
79.5190 44.5231 29.1684
-57.4739 -70.7272 -29.5715
55.3309 72.4161 -52.5564
30.4654 85.8921 -68.9336
-88.2273 -22.8370 3.1341
-48.2803 77.2956 54.7974
58.4628 -69.9120 -6.8102
-86.1823 -29.6345 17.5437
50.1628 76.0873 9.9550
59.9623 -68.6303 -45.9815
-49.3710 76.6035 67.1354
-80.7710 42.2095 -61.3188
-89.0949 -19.1751 -30.0133
74.4647 -52.5415 -46.6793
-81.3869 -41.0093 55.4732
88.7476 -20.7231 12.7212
-74.7844 -52.0853 -37.9052
79.3772 -44.7755 -44.8572
71.4587 56.5619 -63.1614
-43.2378 80.2252 -17.5785
65.0210 63.8581 18.7996
-76.0365 -50.2398 -58.5810
-74.2637 52.8251 33.7700
-67.1282 61.6392 -58.5163
-60.1006 68.5092 65.9819
71.2868 56.7783 -44.5163
-20.3976 -88.8230 70.1043
-85.3336 -31.9963 50.0890
52.8904 74.2172 1.6866
86.6814 28.1410 -39.4581
82.7608 -38.1607 29.1528
-66.0723 -62.7697 42.0307
5.6180 90.9617 18.0488
84.6245 33.8271 22.5781
-60.8585 67.8368 -5.4649
16.2754 -89.6700 -64.4825
5.4531 90.9717 17.9676
-30.0519 -86.0376 51.3160
-64.7933 64.0891 -51.1290
88.7097 -20.8849 40.5844
74.1857 -52.9346 -2.6403
-79.4222 -44.6956 39.7289
86.0274 -30.0811 32.5996
89.1774 18.7877 16.3414
-15.1681 89.8639 -54.4753
46.5334 78.3596 38.2648
67.3026 61.4487 -33.6385
-67.4647 61.2708 -37.1033
8.0052 -90.7827 -58.4591
-84.9184 33.0824 -50.6631
-10.5340 90.5242 -61.3207
-54.4875 -73.0527 47.3052
86.7407 27.9580 0.6990
-90.5244 10.5317 -43.8633
55.0924 -72.5977 -53.0397
-75.6940 50.7543 -39.7698
-64.4360 -64.4484 -40.1139
-59.1099 69.3658 42.4091
-81.1372 -41.5010 -21.0786
-57.9512 -70.3366 11.8117
90.0275 14.1650 7.7197
90.5204 -10.5667 -59.5083
22.4209 88.3340 15.4145
-18.2159 89.2960 1.2818
15.0074 -89.8909 -34.5237
-38.4528 82.6255 -26.9343
29.1064 86.3621 42.2447
-35.4768 83.9463 -20.4684
12.4215 90.2845 -65.6633
79.5838 44.4073 -2.1318
-84.3806 34.4310 -57.7946
-8.6722 -90.7215 37.2545
60.9001 67.7995 -39.2904
90.3075 12.2534 65.3842
-79.5562 44.4567 -10.7181
89.3788 -17.8051 13.0641
-1.6024 91.1209 -65.7958
-89.4511 17.4384 -57.2580
79.3873 -44.7576 9.3395
-56.5593 -71.4607 -13.2484
-78.2165 -46.7736 -52.4462
19.8315 88.9511 54.3556
49.1629 76.7372 22.3869
76.6384 -49.3168 -66.3225
74.2110 -52.8991 11.7612
88.1055 -23.3026 28.9243
52.5779 74.4389 -34.2830
-80.4680 -42.7843 42.5817
60.8464 67.8477 -71.4136
-42.2551 -80.7471 -65.6126
87.3305 -26.0571 -56.6483
-27.2030 -86.9804 46.4039
-46.3600 -78.4623 -58.8878
-91.1184 -1.7387 -51.5208
-67.5568 -61.1692 -14.5488
-0.6027 91.1330 65.4679
66.8094 61.9846 34.1593
-52.1767 -74.7207 45.1312
-85.3173 32.0398 49.8923
-73.2655 -54.2010 44.8076
0.2167 -91.1347 -32.4033
-10.5852 90.5182 -33.3615
85.2758 32.1502 48.8992
30.5402 85.8655 0.5391
-89.8382 15.3193 -42.6114
-41.2500 -81.2651 -4.9969
16.7795 -89.5770 25.2141
68.5942 60.0035 -5.8403
79.2034 45.0822 65.9068
25.0448 4.6717 71.7578
2.6489 7.2113 71.7578
70.3792 -9.6066 71.7578
-2.5749 3.2166 71.7578
-1.8741 -0.8889 71.7578
18.7954 -2.7716 71.7578
49.5147 18.8143 71.7578
-8.5056 -16.7410 71.7578
-37.0657 34.9868 71.7578
71.2075 43.3065 71.7578
-6.5335 13.0593 71.7578
5.6757 -2.1976 71.7578
-24.2449 44.9134 71.7578
-20.0812 -29.1676 71.7578
41.8201 12.9444 71.7578
27.9725 56.5478 71.7578
2.6503 -3.1575 71.7578
-44.9705 -58.4075 71.7578
4.9781 -6.2999 71.7578
1.0705 -4.1922 71.7578
-58.8975 19.6584 71.7578
-43.4878 3.8840 71.7578
6.3264 -9.1986 71.7578
-51.2272 74.8358 71.7578
3.1234 35.1714 71.7578
35.7839 4.9526 71.7578
68.4472 34.9589 71.7578
14.7093 -4.7615 71.7578
4.4043 -15.8828 71.7578
46.7423 -41.2183 71.7578
-0.7816 -6.8899 71.7578
34.1400 -31.5770 71.7578
53.7600 -68.0553 71.7578
-9.9206 14.9353 71.7578
-11.9689 35.7222 71.7578
-44.4339 -44.6309 71.7578
-0.6848 4.1962 71.7578
-47.7854 19.4029 71.7578
43.5496 -44.2011 71.7578
38.7886 73.3694 71.7578
1.1703 -35.2601 71.7578
8.8097 8.2800 71.7578
-49.2589 44.9141 71.7578
62.8435 43.7930 71.7578
52.3562 66.6413 71.7578
-37.7478 64.4083 71.7578
14.0740 -8.0187 71.7578
10.5745 -49.3228 71.7578
0.9258 1.2881 71.7578
13.8400 -29.3922 71.7578
42.3942 62.9394 71.7578
-29.7277 -9.3424 71.7578
49.5323 15.6157 71.7578
-26.3863 23.7317 71.7578
30.3494 -7.0282 71.7578
-14.2482 -11.6816 71.7578
31.3431 36.4673 71.7578
-1.9559 15.0238 71.7578
10.8383 -42.9425 71.7578
-5.6595 17.8058 71.7578
-23.6634 15.8227 71.7578
9.6321 -15.6463 71.7578
3.5270 30.5807 71.7578
80.7067 15.8746 71.7578
12.5993 -9.0941 71.7578
61.1458 -66.4918 71.7578
35.7225 -3.5870 71.7578
-41.7859 -9.0653 71.7578
23.9691 -52.2257 71.7578
-19.1978 -33.4658 71.7578
15.1845 -5.7242 71.7578
0.4853 -1.2798 71.7578
-84.0843 -24.3195 71.7578
8.9438 46.2181 71.7578
7.9649 -21.8080 71.7578
80.2030 37.6296 71.7578
75.4368 18.5970 71.7578
5.6103 1.1885 71.7578
-61.7551 -35.2462 71.7578
-60.7138 6.4974 71.7578
-63.7710 26.8521 71.7578
-61.3602 -5.6438 71.7578
-47.3639 13.8945 71.7578
22.1049 29.2470 71.7578
23.3128 15.6883 71.7578
65.1327 1.5741 71.7578
-30.5170 78.4033 71.7578
-14.0478 -9.7681 71.7578
-49.1046 40.1707 71.7578
-0.6710 -5.5183 71.7578
4.3639 43.7126 71.7578
-1.9566 -49.5979 71.7578
55.0233 30.3449 71.7578
40.9338 -10.3528 71.7578
-15.4723 9.4512 71.7578
0.3478 -0.8140 71.7578
37.1119 -19.9852 71.7578
-55.5288 43.8595 71.7578
56.2511 -42.4431 71.7578
-13.0460 -6.7323 71.7578
-70.9826 -22.7049 71.7578
-36.5913 -18.1157 71.7578
-9.9642 -1.1013 71.7578
16.9088 0.8175 71.7578
-5.8174 41.9633 71.7578
17.6721 -71.4074 71.7578
-15.5928 -43.5430 71.7578
19.7974 -14.2559 71.7578
-58.8053 9.1653 71.7578
-1.9260 -1.1476 71.7578
-39.5947 -23.5984 71.7578
21.7023 43.6554 71.7578
-10.8343 30.0958 71.7578
-7.6715 42.4426 71.7578
-34.6432 29.9425 71.7578
-40.1152 -42.7026 71.7578
-66.1020 7.6692 71.7578
75.5020 -50.8805 71.7578
8.3595 -35.0211 71.7578
-29.5405 13.4127 71.7578
-13.9924 -13.9984 71.7578
46.6629 -5.4096 71.7578
-74.3365 -19.2547 71.7578
-25.6410 -17.3574 71.7578
25.9598 -39.0529 71.7578
-33.2182 -20.9920 71.7578
23.0913 74.1640 71.7578
-34.2416 -3.8839 71.7578
-52.7636 -29.8993 71.7578
3.5296 60.3982 71.7578
3.0613 0.8446 71.7578
-0.6663 -0.7719 71.7578
-71.2790 37.3322 71.7578
-15.2840 -8.6549 71.7578
-12.4405 -3.5265 71.7578
7.1274 -8.4183 71.7578
-4.5554 -27.0201 71.7578
32.8650 -54.4658 71.7578
3.3892 3.2385 71.7578
-16.6311 14.6308 71.7578
20.6768 13.8664 71.7578
2.4554 -19.3362 71.7578
9.9703 -56.2773 71.7578
-13.5376 -31.1609 71.7578
2.0810 2.6246 71.7578
-14.4748 35.5759 71.7578
-76.2620 36.8816 71.7578
-37.1453 -42.1962 71.7578
28.7965 2.1802 71.7578
-60.3927 -41.2071 71.7578
-16.2888 -4.9573 71.7578
-40.1726 32.9269 71.7578
1.2918 -22.0059 71.7578
-4.5686 29.6867 71.7578
59.2883 -20.8333 -71.7578
69.2526 19.5004 -71.7578
-84.6358 -9.3218 -71.7578
-3.9769 28.2166 -71.7578
0.7047 -3.5254 -71.7578
63.1315 -60.9207 -71.7578
-60.4428 33.0205 -71.7578
18.4166 71.6277 -71.7578
-28.9002 -84.8730 -71.7578
-86.9280 20.8623 -71.7578
0.4641 -6.2275 -71.7578
-0.0770 -52.2391 -71.7578
53.3440 6.0766 -71.7578
-49.2436 47.7756 -71.7578
-4.9835 -51.5557 -71.7578
-20.9828 -5.0597 -71.7578
46.0415 -7.4152 -71.7578
10.1137 -42.9729 -71.7578
21.5989 -19.0563 -71.7578
-42.5835 -79.4951 -71.7578
-56.8393 -3.0797 -71.7578
-28.3172 30.1001 -71.7578
83.0417 -7.2683 -71.7578
7.7843 2.1531 -71.7578
-3.9381 7.0513 -71.7578
51.6688 -39.2147 -71.7578
64.3228 33.0051 -71.7578
23.0310 -77.1293 -71.7578
33.4030 35.7744 -71.7578
-9.9704 52.5221 -71.7578
-68.6958 12.6831 -71.7578
33.0241 15.9925 -71.7578
1.0950 38.6082 -71.7578
-33.7387 -23.1779 -71.7578
36.3758 -29.3177 -71.7578
26.9392 40.4062 -71.7578
-1.7672 6.6138 -71.7578
6.9721 38.8927 -71.7578
-50.7611 53.0021 -71.7578
-5.8320 13.3306 -71.7578
-68.6978 -28.6679 -71.7578
11.9856 -9.4555 -71.7578
-0.3275 2.1629 -71.7578
-17.1846 7.0634 -71.7578
-7.5368 -0.5453 -71.7578
18.6537 -40.2434 -71.7578
1.0078 -31.6552 -71.7578
22.6380 -44.5782 -71.7578
-9.9464 18.6924 -71.7578
3.6058 41.1925 -71.7578
-32.1291 -76.1650 -71.7578
12.8151 -21.8286 -71.7578
-36.1588 -72.1937 -71.7578
2.0733 -35.6341 -71.7578
81.3946 -10.4290 -71.7578
1.2997 20.7541 -71.7578
-11.6906 34.5740 -71.7578
-67.1764 32.0021 -71.7578
-50.8719 35.5117 -71.7578
-12.0098 8.1055 -71.7578
-27.1280 -11.2485 -71.7578
82.2347 14.9825 -71.7578
46.3377 -10.3939 -71.7578
-19.6167 69.5606 -71.7578
-49.9683 10.5478 -71.7578
-4.0336 4.9209 -71.7578
13.2575 15.0994 -71.7578
-31.5101 51.8626 -71.7578
-45.9067 75.4978 -71.7578
24.4225 -75.7789 -71.7578
48.1871 40.6833 -71.7578
-26.4870 6.4862 -71.7578
28.8859 22.8029 -71.7578
-10.2229 -2.9631 -71.7578
24.1920 87.3160 -71.7578
-46.2483 -12.1068 -71.7578
-26.6728 67.8828 -71.7578
1.2745 -1.3139 -71.7578
26.0382 -40.2291 -71.7578
26.0679 70.5530 -71.7578
-52.9927 72.9452 -71.7578
80.2217 -12.2902 -71.7578
-79.5197 8.4950 -71.7578
-2.8510 0.3256 -71.7578
13.4131 27.4763 -71.7578
53.6273 6.3091 -71.7578
-18.5737 -9.8681 -71.7578
-43.1095 33.6844 -71.7578
26.3727 -15.3801 -71.7578
79.2073 32.3389 -71.7578
24.1437 17.6510 -71.7578
-14.9792 -15.4786 -71.7578
-0.4237 -1.1398 -71.7578
-41.2399 0.6237 -71.7578
1.1343 45.6682 -71.7578
85.3948 -19.4547 -71.7578
14.3961 9.5002 -71.7578
-1.4429 -27.5307 -71.7578
-10.0457 12.9252 -71.7578
25.9844 44.9241 -71.7578
1.6042 67.7309 -71.7578
7.9547 0.9530 -71.7578
8.8349 -8.4938 -71.7578
-8.3462 0.9769 -71.7578
-1.0768 8.1562 -71.7578
-22.1564 -60.4732 -71.7578
4.5152 -4.5035 -71.7578
40.4880 -1.1337 -71.7578
10.5389 7.1248 -71.7578
-87.9509 4.5158 -71.7578
25.8024 -83.4045 -71.7578
4.6009 -6.3065 -71.7578
-3.7984 88.0969 -71.7578
19.0007 24.1931 -71.7578
6.5641 24.1959 -71.7578
5.0448 19.8813 -71.7578
17.0893 42.6151 -71.7578
33.8041 -9.1801 -71.7578
-41.5741 -12.8680 -71.7578
52.4461 30.5757 -71.7578
6.7735 -20.1467 -71.7578
11.5734 6.5005 -71.7578
21.1372 23.0540 -71.7578
-83.7012 8.8052 -71.7578
39.0164 -5.0926 -71.7578
5.3052 1.7592 -71.7578
-76.8428 9.8502 -71.7578
-61.0321 17.6522 -71.7578
66.4880 -29.9580 -71.7578
-12.8883 13.1358 -71.7578
35.9721 1.5926 -71.7578
2.2777 -30.8288 -71.7578
37.7309 -20.4072 -71.7578
26.0860 9.1117 -71.7578
-73.2209 6.6223 -71.7578
-28.4279 -46.0302 -71.7578
-7.1234 -18.5545 -71.7578
8.0386 37.7927 -71.7578
12.2239 -60.3107 -71.7578
-1.8414 -25.7983 -71.7578
-48.7429 -58.3691 -71.7578
-21.4262 -4.9252 -71.7578
73.0642 23.9209 -71.7578
9.2158 67.0923 -71.7578
3.7863 27.0092 -71.7578
35.4221 -12.7198 -71.7578
9.0317 -54.6990 -71.7578
-2.9878 -16.8542 -71.7578
49.6178 -24.0195 -71.7578
31.8378 12.8856 -71.7578
-9.4719 -35.1393 -71.7578
-11.6750 -28.8651 -71.7578
31.0215 -42.4769 -71.7578
-7.9278 10.1572 -71.7578
