ply
format ascii 1.0
element vertex 1024
property float x
property float y
property float z
end_header
-24.5547 -79.7600 3.1140
64.5171 52.9352 56.2141
-60.4885 57.4954 -50.0668
-33.0320 -76.6386 63.5777
69.7747 -45.7830 -1.2110
50.6355 66.3372 14.3248
0.8088 83.4502 -59.6785
-73.6427 39.2599 26.9450
-37.7667 74.4195 -21.5607
-83.2715 -5.5174 0.2803
34.5140 -75.9827 21.6286
79.6925 -24.7727 53.7511
-75.0886 -36.4183 -41.6559
-0.1037 -83.4540 69.9449
-10.8853 -82.7411 -74.2442
-2.7369 -83.4092 -0.3415
-73.7846 -38.9925 -14.1670
77.1462 -31.8285 6.9006
82.4303 13.0317 -65.0173
79.9741 -23.8481 -59.9506
-13.3554 82.3785 -15.9605
83.3155 4.8085 -53.7778
34.4378 76.0172 -1.2862
65.0317 -52.3016 64.0918
77.0728 32.0059 -20.6534
-6.3380 83.2131 16.8027
-39.5281 -73.4991 11.9617
28.7636 -78.3405 -23.3732
26.0075 -79.2981 -52.6600
80.0725 -23.5157 25.2429
57.7071 -60.2867 -31.0785
-67.5370 49.0238 14.9236
17.1724 81.6682 1.7655
63.1096 54.6056 -10.4482
69.7514 45.8184 -42.9531
77.0834 31.9804 -1.3037
81.7974 -16.5463 45.3915
-74.7231 37.1623 -4.5482
23.0347 80.2121 -6.7263
-34.7404 75.8794 49.2449
-40.2325 -73.1159 21.4447
-80.2329 22.9622 -55.1784
19.3418 81.1818 46.6871
-24.6952 79.7166 -58.9170
-44.8822 70.3575 46.8754
81.4408 18.2206 -63.7180
-14.0701 -82.2595 45.6282
-5.4574 83.2755 -19.1431
-62.4827 -55.3217 -1.7487
82.4629 -12.8238 -69.1708
-37.9199 -74.3416 55.6403
83.4533 0.3620 -9.6515
-83.0847 7.8429 12.2512
-46.9236 69.0128 5.2780
-80.7629 21.0222 18.7538
-61.7585 56.1290 58.5512
26.4106 -79.1648 63.2500
-76.5308 -33.2810 19.4916
-78.6646 -27.8652 -71.9751
82.3699 -13.4084 51.8373
-41.9635 -72.1364 59.0144
31.6537 77.2180 64.2936
-57.4342 -60.5467 24.4328
82.6815 11.3297 -27.9372
33.7557 76.3226 66.0413
-41.1479 -72.6047 9.9746
-83.0714 -7.9834 70.1552
-39.3787 -73.5792 -23.9938
-38.9078 -73.8293 50.6938
-32.3304 76.9372 -20.5588
78.2303 29.0621 -53.9487
42.4406 71.8567 -28.1357
-83.4152 -2.5471 59.5241
-56.9918 -60.9633 26.4608
-51.7694 -65.4562 -16.1739
59.4525 58.5661 17.6864
-16.5921 -81.7881 0.1306
64.6907 52.7229 -33.8526
-26.5757 79.1095 35.1981
-55.1000 62.6784 16.3768
-76.1922 34.0491 -9.6533
-80.3377 -22.5931 10.7212
53.6460 -63.9273 -43.5703
16.6583 81.7746 56.8452
10.3928 82.8044 13.3079
-17.4790 81.6031 -71.6408
-69.1969 -46.6516 45.0332
-25.3194 -79.5205 42.6450
40.0894 73.1944 23.5994
-12.3510 82.5351 39.8194
1.3983 83.4424 -64.6988
-78.7483 -27.6278 -33.3412
69.4282 46.3067 30.3563
-77.7739 30.2624 -18.7488
83.2393 5.9833 -71.1435
-79.4464 25.5511 -50.3936
-26.5385 79.1220 -6.3677
9.3800 82.9253 -10.7331
-65.1276 -52.1822 -68.4755
-6.4691 83.2030 -12.5189
-6.5940 83.1932 -23.1893
-32.2224 76.9825 23.2202
-34.0352 76.1984 -21.0398
-26.7016 79.0671 -71.7314
-14.0463 -82.2635 -27.4049
79.9616 -23.8900 -23.9745
66.7722 50.0605 -14.2889
61.0202 56.9309 45.8687
-82.4422 12.9563 30.6205
2.3380 83.4213 36.6128
31.9355 -77.1020 -68.5506
-75.3761 35.8194 38.7783
-64.0202 -53.5351 6.6961
60.2439 -57.7517 -56.6466
83.0895 -7.7923 -47.3653
55.4002 62.4132 71.3395
61.0859 -56.8604 73.3565
79.2926 26.0245 46.2196
52.2085 65.1065 55.1902
-55.5633 -62.2680 71.4958
-47.2795 -68.7694 -61.3180
-40.6618 72.8780 51.7992
-75.8752 -34.7496 -70.7992
-31.9979 -77.0761 12.4340
-68.4456 -47.7470 5.4327
-29.9410 77.8982 76.1555
-70.7477 44.2645 74.1857
76.7347 -32.8080 38.8733
-11.5352 -82.6530 74.4704
-14.8723 -82.1182 -53.3980
79.5950 -25.0841 27.1723
83.2560 -5.7465 14.1081
61.5658 -56.3404 -36.7097
-58.7469 59.2738 45.1816
23.5663 -80.0576 -6.4191
82.9739 -8.9395 -34.9678
-81.2699 18.9682 64.5031
-23.2121 -80.1610 43.7470
-64.1966 -53.3233 -8.1744
-13.3917 82.3726 -73.2053
83.2076 6.4091 37.0660
82.8884 9.7008 -12.4265
-72.9751 40.4873 57.0665
-83.3994 -3.0208 37.5931
-69.1538 -46.7154 67.1960
77.3612 -31.3024 51.1518
12.7039 82.4815 -45.9356
-40.7308 72.8395 -66.6947
-26.2749 -79.2100 25.1894
34.4872 -75.9949 65.1581
-76.9075 -32.4010 -22.6990
43.1318 71.4439 70.4895
-78.5658 28.1424 3.9090
83.1717 -6.8596 -3.0328
-83.0501 8.2019 -25.7124
-3.8081 83.3672 -11.4610
70.9447 -43.9480 -69.9866
-78.8038 -27.4691 29.0777
-42.1225 -72.0436 -29.3810
43.3203 71.3298 60.6902
7.3832 83.1269 -65.4886
-82.1919 -14.4596 49.7674
-29.4584 -78.0819 -31.1989
82.6843 11.3090 -72.3013
67.9676 48.4251 -28.4119
-63.6479 53.9771 -19.8278
-33.0864 -76.6151 -42.3192
3.4087 83.3845 5.2034
60.3842 -57.6050 -76.6137
59.8994 58.1089 8.2434
35.3328 75.6054 73.8212
83.4526 0.4961 -54.2300
-16.1650 81.8736 -7.6767
36.1162 75.2343 0.2695
-70.9908 43.8736 -1.8463
-27.1105 78.9279 67.4439
69.2331 -46.5978 76.0103
21.3515 -80.6765 -69.9162
18.6952 81.3331 -20.0940
-63.6439 -53.9819 4.3498
-20.4210 80.9171 37.2709
-13.4622 82.3611 -73.1171
73.6639 39.2201 -7.2386
80.3189 -22.6596 -54.0499
83.4183 -2.4456 20.3669
78.9894 26.9306 -11.1904
42.0548 -72.0832 -46.0700
-43.9014 70.9736 51.7652
71.7821 42.5667 35.5280
-54.2529 63.4130 41.1779
46.3364 69.4084 0.5190
22.4012 80.3914 29.5600
10.5989 -82.7783 -59.9227
71.3075 -43.3570 3.8191
71.5319 -42.9857 -35.7103
59.5333 58.4839 -7.5291
82.7268 -10.9935 8.2643
-83.4445 -1.2684 -15.8074
76.7911 32.6759 -4.7625
-10.7519 82.7586 -44.3383
-72.6395 -41.0864 -49.7237
71.3238 43.3301 74.2890
33.1343 -76.5944 -12.6407
54.0713 63.5679 -53.6501
50.8559 66.1684 -74.0432
15.6560 81.9724 -41.3494
-76.5033 33.3442 -25.7260
27.8626 78.6655 -2.2813
-82.3244 -13.6847 44.1617
-83.4221 -2.3090 20.1124
-66.2631 -50.7326 -43.6824
36.2296 -75.1798 -73.8447
-79.2202 26.2438 -33.9503
-47.9019 68.3373 40.5724
62.0048 -55.8569 -26.4350
-4.3325 -83.3416 13.3771
63.5224 -54.1248 0.6900
20.0492 81.0100 -15.9328
-40.6545 -72.8821 -36.0957
80.8323 -20.7538 56.3384
56.7989 61.1431 31.5760
-83.1835 -6.7151 -26.2488
-65.4826 -51.7361 -70.9577
48.4150 -67.9748 -63.7976
-29.6892 -77.9945 -41.6464
-0.8707 83.4496 38.0582
6.2680 83.2184 56.3929
-48.8156 -67.6877 58.1003
42.9290 -71.5659 74.2526
48.3813 -67.9988 -20.8657
-54.4131 63.2756 35.7303
-31.3001 77.3621 -72.0253
83.4377 -1.6547 -1.3352
81.2445 -19.0765 -38.9772
-4.7409 83.3193 24.5184
-55.8263 62.0324 -49.7052
-79.8807 24.1592 68.9767
-82.1992 14.4178 -31.7542
54.3165 -63.3585 -53.6584
79.9621 23.8884 -24.6735
-1.1667 83.4459 -48.7439
-75.0068 -36.5864 55.7344
83.0264 8.4381 76.3566
-66.4156 50.5327 19.4530
71.6345 42.8145 20.5069
-70.2138 45.1066 1.2333
-38.2984 74.1473 33.4914
23.0755 80.2004 -58.0543
57.6603 60.3314 -67.5443
-37.1041 74.7521 -38.8104
-55.8190 -62.0389 -20.2243
-47.5054 -68.6136 -11.0485
55.2851 62.5152 17.6770
-28.0653 -78.5934 27.7334
-58.7455 -59.2752 -16.7664
53.4872 -64.0602 30.7099
19.9109 81.0441 -7.6907
-24.0408 79.9164 -26.3793
-10.2903 82.8172 56.4684
57.6485 60.3426 44.7700
-7.1453 -83.1476 -5.4483
81.0371 19.9394 -35.4616
-41.4721 72.4200 -8.8294
-78.8033 -27.4703 16.9988
-18.6147 81.3516 -42.8474
63.5839 54.0526 -52.1959
-32.1391 -77.0173 -46.5426
-26.6479 -79.0852 -49.1017
74.9014 36.8018 42.2016
-81.2974 -18.8499 -5.8887
-77.4040 31.1963 50.5594
-74.8018 -37.0038 -23.1157
79.8766 24.1727 -23.1078
-25.1375 79.5782 -57.4005
63.7661 -53.8374 -1.9280
69.1774 46.6805 -11.1138
55.8356 62.0240 14.1328
10.5855 -82.7800 2.8964
-21.4468 -80.6512 -38.2753
-66.3505 -50.6181 71.9527
70.5816 44.5289 41.5893
69.1017 -46.7925 37.1506
0.2794 83.4536 5.6044
45.3632 -70.0483 49.6119
75.8772 -34.7454 -33.7471
-55.1012 62.6773 -24.3309
67.6179 48.9122 76.0154
-30.9368 77.5081 -5.5388
83.0870 -7.8190 -44.9014
-76.7948 -32.6672 -48.6619
65.2871 -51.9825 -46.3811
34.6374 -75.9265 31.5964
83.4174 -2.4731 40.9714
-45.6429 69.8664 -43.1337
60.7882 57.1785 -36.6658
83.3213 -4.7065 -47.7664
-61.9110 55.9608 -42.6380
82.1163 14.8828 -33.6597
29.5695 78.0399 -75.6668
27.3531 78.8441 70.1959
-66.7173 -50.1337 -61.7781
-81.1727 19.3797 -23.9322
-5.7096 83.2586 -55.4017
37.2651 74.6719 9.6624
47.1280 -68.8733 32.7341
-30.0924 77.8398 -10.6111
49.2845 -67.3471 18.2852
-67.5823 48.9614 20.7382
25.0075 79.6192 -15.9499
9.8124 -82.8752 26.3442
0.3052 83.4535 -66.2503
79.3087 -25.9753 -13.4132
-57.9672 60.0366 23.2992
82.5161 -12.4769 -55.2705
-27.6884 78.7270 -9.5266
6.0632 -83.2335 21.4928
82.9977 8.7159 60.0825
-18.1915 81.4472 66.2103
44.6223 70.5226 26.0122
29.6328 78.0159 2.2661
-30.7594 -77.5786 4.4489
55.2053 62.5857 -19.1754
10.0446 -82.8474 53.7952
-60.7372 57.2327 -73.4576
-74.8202 36.9665 -31.0882
-78.3190 28.8222 -67.2887
13.2967 -82.3880 -52.6849
-81.9893 15.5674 -64.4303
-29.8718 -77.9247 -75.6460
22.1110 80.4717 -28.9815
65.3251 51.9348 -10.1804
-81.1346 -19.5386 -36.3517
-55.4362 62.3812 21.4954
0.3583 -83.4533 -6.7960
-18.5494 81.3665 -50.6842
23.6648 80.0285 67.1952
-69.4800 46.2289 -44.9651
-6.3240 83.2141 -53.4760
-73.3558 -39.7933 -16.7073
30.7773 -77.5715 15.9495
-82.7321 10.9541 27.8620
30.6930 -77.6050 28.5370
-76.0747 34.3107 18.2679
75.1509 36.2896 69.7193
78.0573 -29.5236 69.8541
-12.0796 -82.5752 -16.0167
-1.1152 83.4466 -33.1036
66.4665 -50.4657 68.2118
75.3363 35.9031 -32.8529
45.5972 -69.8962 71.2369
2.3268 -83.4217 50.1729
77.7955 -30.2067 -5.7265
76.7739 32.7162 -13.1869
2.7598 -83.4085 -43.0560
83.3456 -4.2537 70.3556
11.5087 -82.6567 67.3364
-78.3480 -28.7432 73.7580
26.8087 -79.0309 -14.5609
-31.9080 -77.1133 -24.9924
-49.4965 -67.1914 29.7764
-53.4709 64.0738 3.3255
57.7917 60.2056 -42.7473
-28.8812 78.2973 -41.0998
-81.9658 15.6905 -16.2149
24.9400 -79.6403 -4.4529
77.8531 -30.0580 -13.9999
-10.7205 82.7626 -6.5141
20.2549 -80.9588 71.8927
-64.1839 -53.3386 16.5068
-21.1313 -80.7345 33.1386
81.7952 16.5570 68.1875
80.0356 -23.6408 1.9763
-78.3836 28.6460 8.0176
81.3842 18.4713 -27.2372
-70.5084 44.6448 34.9676
-47.8894 68.3461 18.4737
-7.4730 -83.1188 -7.4251
-34.5817 -75.9519 -35.5079
38.6245 73.9779 37.4922
-83.3749 -3.6353 25.1461
5.9423 -83.2423 22.1655
-44.9482 -70.3153 -26.4787
-49.0555 -67.5140 -68.4566
33.5435 -76.4161 41.5484
50.6005 -66.3640 -6.7302
41.7008 72.2885 63.7681
-83.4311 1.9595 -5.5601
50.4935 -66.4454 -49.1040
-35.8551 -75.3591 -51.8055
76.6900 -32.9124 -21.3585
51.9341 65.3256 -5.7569
82.8221 -10.2511 11.3780
67.2040 -49.4794 64.7884
-49.7835 -66.9790 9.1829
-83.2918 -5.2014 -20.8770
-35.9909 75.2943 -27.0827
-80.8550 -20.6653 17.4255
47.1329 68.8700 59.5850
-83.0311 8.3913 1.4804
-23.9937 -79.9305 -41.7514
4.1652 -83.3501 16.9690
-21.7048 80.5822 33.5998
16.4579 81.8152 2.7774
-75.6355 35.2684 -29.5284
-68.6815 -47.4071 57.6755
-14.7339 82.1432 17.7393
-58.9220 59.0997 -10.3871
-7.9312 -83.0764 50.3319
-38.6872 73.9452 -6.5856
17.6379 81.5689 48.8753
-65.0461 52.2838 -28.5760
-82.7800 -10.5859 -22.0992
82.7461 10.8472 -42.8998
47.9666 68.2919 73.6404
60.9605 56.9948 52.7503
-45.6977 69.8305 -56.5125
80.9825 -20.1599 37.2045
-79.6356 24.9550 -54.2821
50.3220 -66.5754 -1.5656
-53.8819 63.7285 -59.0540
81.9979 15.5220 72.2354
-43.1471 71.4347 63.7342
17.7049 -81.5544 -69.9143
-43.3048 -71.3392 -14.5419
1.6594 83.4376 58.2504
77.9772 29.7344 56.3700
70.7906 -44.1959 41.5351
81.6481 -17.2679 -60.6354
-78.0908 -29.4348 -63.6639
-40.7377 -72.8356 19.1682
-82.3292 13.6563 -68.7161
-55.5380 62.2906 1.0263
-79.6697 24.8460 7.8279
48.3257 -68.0383 67.7030
81.6178 -17.4103 50.9544
-83.3941 3.1636 -42.1170
-76.8367 -32.5684 -38.7882
-6.2564 83.2193 62.3856
79.7331 -24.6418 -5.0309
-37.7836 -74.4109 -24.5754
44.6963 -70.4757 58.4905
-2.3431 83.4212 17.0997
-0.5569 83.4522 71.3860
-82.9177 -9.4465 -68.9318
61.7044 56.1885 71.6041
-77.6618 -30.5488 10.3364
-34.5943 -75.9462 31.4697
-40.9051 72.7417 -7.7369
58.1846 59.8259 29.3538
56.1236 61.7634 19.9855
41.9722 72.1313 52.3854
56.9341 -61.0171 43.8398
47.9343 -68.3146 -66.6964
77.1706 31.7691 -50.8182
-34.2188 76.1161 1.4495
69.5006 46.1979 -26.6918
-73.9785 38.6235 26.1716
0.9430 -83.4488 39.9520
-81.3836 -18.4740 -66.6911
-79.4420 -25.5649 -12.3987
17.6939 -81.5568 -40.1177
65.0054 52.3343 -21.2992
-31.1003 77.4426 -22.8214
-46.7027 -69.1625 56.2522
79.7593 -24.5570 12.8516
-55.7455 -62.1050 -43.8266
-21.1095 -80.7402 20.3127
-45.0445 70.2537 10.4569
37.9818 74.3099 -11.6093
9.4215 -82.9206 73.8908
69.5755 -46.0852 -67.2532
65.6960 51.4648 10.6872
-83.1152 -7.5129 -56.8935
80.3549 -22.5317 -58.5958
81.2313 19.1327 -9.3662
-41.1980 -72.5763 -52.1738
76.3723 -33.6431 -47.3799
79.3545 25.8350 -35.3215
61.0335 56.9166 25.6897
9.4879 -82.9130 26.8450
31.1200 -77.4347 69.0777
39.1408 -73.7061 66.3596
80.8744 20.5892 -20.4380
83.0971 7.7105 44.6793
76.5733 33.1831 60.4569
63.4811 -54.1732 14.0083
-12.2785 -82.5459 -52.5707
0.7241 -83.4510 -74.7065
-51.0380 66.0281 -42.6631
-81.3713 18.5284 49.5355
-83.4006 2.9889 63.2773
83.4531 -0.4127 15.4638
38.3782 74.1060 -62.6652
82.9778 8.9033 -64.5953
77.5120 30.9269 35.4212
3.6706 83.3733 14.3259
38.0769 74.2613 -75.4547
-77.0276 -32.1144 62.9230
-79.9871 -23.8043 -18.0718
-75.3324 35.9113 37.0931
-27.3132 78.8579 12.8331
32.6680 -76.7944 -46.9495
66.4530 50.4835 34.2402
74.8814 36.8423 -13.5788
-82.7833 -10.5597 -20.2784
39.9772 -73.2558 -21.4251
83.1343 7.2987 -62.1457
-83.1333 -7.3101 -31.4593
61.4871 56.4262 0.5970
13.1334 82.4142 37.2940
15.2476 -82.0494 -10.2607
73.7508 -39.0564 62.6666
-64.2066 53.3113 -56.9037
-78.4660 28.4195 4.2609
-65.8466 51.2719 -61.5258
51.2705 -65.8477 -47.4327
-22.4104 80.3888 -54.8306
40.3550 -73.0483 46.4916
-71.5555 -42.9464 47.7558
-77.7744 -30.2609 -30.3508
-82.1961 14.4354 -49.4433
-25.0800 -79.5963 -15.3774
-28.1704 -78.5558 55.1554
-81.1826 19.3385 25.8544
-78.7201 -27.7081 -18.6983
35.4248 -75.5624 58.3571
7.4377 83.1220 -23.7136
57.0138 60.9427 34.1277
-49.1332 -67.4575 -12.1120
79.4812 -25.4424 -16.6821
55.4827 62.3398 -69.2582
47.8824 -68.3510 -59.0107
-67.6202 48.9091 -46.8065
10.0938 82.8414 -69.7267
82.5299 -12.3856 59.0793
-56.2262 61.6701 -9.1978
26.7581 79.0480 -18.9497
-51.5157 65.6560 -61.8108
0.6859 83.4513 -39.7746
81.9583 -15.7297 70.2054
-41.3154 -72.5094 1.2442
-26.0468 79.2852 59.2016
-63.0858 -54.6330 -46.0976
-77.5446 30.8452 60.4262
-4.8196 83.3148 -68.0180
74.2127 -38.1714 -7.4905
-30.9500 77.5028 71.7112
-83.4053 -2.8538 -72.8101
17.9134 81.5089 -73.8561
-47.0089 -68.9547 -18.6001
7.8389 -83.0851 12.9894
54.9616 62.7997 26.7589
-71.6230 42.8338 46.9090
26.9318 -78.9890 -64.9530
-83.2720 5.5106 69.9581
46.3893 69.3730 2.9446
-74.0322 -38.5204 -47.5727
-82.6882 11.2805 14.1130
72.7393 -40.9093 -23.9267
-59.5771 58.4393 -21.0505
-73.7441 39.0690 -54.2328
-49.7444 -67.0081 44.1662
79.1775 -26.3725 -17.7408
-13.4544 -82.3624 -20.3084
65.9942 51.0818 -62.5189
-62.2786 55.5514 69.6747
77.0379 32.0897 -28.5301
41.8987 72.1740 -26.8641
81.4995 17.9560 -40.4586
-2.9044 83.4035 57.1158
0.4001 -83.4531 65.5592
60.6066 57.3709 52.5991
56.4645 61.4520 -37.4944
-44.9865 70.2908 65.9250
-36.2169 75.1859 -17.1784
43.1862 -71.4110 -30.7611
-34.3166 -76.0720 60.1167
56.6989 -61.2358 28.0654
5.3946 83.2796 27.4218
-18.9259 81.2797 -42.3983
-73.9544 -38.6695 -48.1611
83.3612 -3.9362 8.8829
-81.6905 -17.0658 24.5362
57.8447 60.1546 -20.2760
-21.9315 80.5208 29.3091
43.6529 -71.1267 -34.8364
-18.8143 -81.3056 49.7526
3.6488 -83.3743 60.2708
3.1648 -83.3941 -21.3286
-0.8963 83.4493 38.7872
45.7311 69.8087 -42.2396
71.2083 -43.5196 34.1648
-74.7764 -37.0549 35.0116
-19.7051 81.0944 73.9019
30.0396 77.8602 23.0936
36.2851 -75.1530 34.9143
82.4930 -12.6288 70.2683
6.8201 -83.1749 -4.0411
54.6122 63.1039 -18.8254
71.6729 -42.7502 -73.0611
-31.3415 77.3453 55.8097
-78.6905 27.7918 -19.4516
42.8348 -71.6224 57.6896
-58.6404 -59.3792 73.0623
-11.7334 82.6251 -1.9940
41.8254 72.2165 32.6233
-81.4946 -17.9783 57.8635
47.2820 -68.7677 -9.5676
-71.9986 42.1994 65.0505
-46.7085 69.1585 26.5201
69.0342 -46.8920 47.7234
83.3975 3.0724 64.4812
25.1074 79.5877 25.8326
24.7098 -79.7120 -53.1373
3.5847 -83.3771 42.2989
-71.1028 -43.6919 -5.5993
-66.5747 -50.3229 64.2665
-13.5534 -82.3462 73.7413
-80.0404 23.6247 73.1728
69.6142 -46.0266 55.7706
72.7404 -40.9075 -1.3502
-70.8671 44.0732 69.1188
49.5585 67.1456 -20.7836
80.1925 -23.1030 -18.3291
-39.4316 -73.5509 14.8329
41.4420 72.4372 -24.1018
-12.2882 -82.5445 28.2848
65.7850 -51.3509 1.3550
-76.9162 -32.3803 -10.5616
70.8125 44.1608 -67.1621
1.6711 -83.4374 67.0195
-81.1418 -19.5089 18.7527
-73.4940 -39.5376 60.1945
82.7226 -11.0255 7.4098
55.1238 -62.6575 19.1237
72.3318 41.6257 -20.5723
83.4286 -2.0624 48.8338
-69.0947 46.8029 23.8902
-61.2420 56.6922 17.3495
-5.9017 -83.2452 52.6517
-62.3193 -55.5058 -25.0268
59.8718 58.1374 -64.3083
-23.8619 -79.9700 13.3282
-71.1448 43.6234 -47.4059
19.4457 -81.1569 46.4620
-16.2669 -81.8534 -6.6355
45.0404 -70.2563 25.6441
10.7113 82.7638 -61.4849
82.6883 -11.2794 66.4826
82.6949 -11.2310 33.4836
-81.0689 19.8097 -59.1923
67.8277 -48.6209 -51.6713
-83.3795 -3.5283 21.5875
-46.4101 69.3591 -23.0357
62.8312 -54.9257 -27.5459
-59.1953 58.8260 35.8097
-53.1291 64.3575 -13.1666
-9.1706 -82.9487 -6.8082
-83.4292 2.0400 12.2320
-79.5198 -25.3218 43.7796
11.7499 82.6228 43.4750
71.7599 -42.6040 -50.5319
-53.9218 -63.6947 46.4401
-62.1921 -55.6483 70.6081
-78.4587 28.4397 55.1961
48.3643 68.0109 -65.1443
-81.5385 17.7779 -2.9598
-78.9354 27.0884 5.5777
-83.0764 -7.9305 -28.9183
13.4601 82.3615 -68.8525
-34.4120 -76.0290 55.8031
-50.2931 -66.5972 52.1231
-60.8218 -57.1427 70.3564
-83.4360 -1.7384 -71.0170
-66.0874 50.9611 -65.4786
22.6544 -80.3204 6.4059
18.5441 -81.3677 33.5405
70.1946 -45.1365 43.3844
58.3419 -59.6725 12.1003
-38.4146 -74.0871 56.1706
68.0428 48.3194 21.3456
77.7425 -30.3430 0.8485
13.9241 82.2843 67.2946
35.2964 -75.6224 -31.5609
83.1411 7.2216 9.6391
-29.1659 78.1916 75.5472
-13.6960 -82.3226 7.6425
-9.9585 82.8578 7.2804
-80.8828 20.5561 -28.0660
-82.1589 14.6457 29.0802
81.1744 19.3727 -55.1306
-5.3857 -83.2801 -54.5410
42.0127 -72.1077 -72.2215
-31.3335 -77.3485 48.7802
-50.5199 -66.4253 -27.3865
-32.0494 -77.0547 34.5222
13.8402 82.2984 -30.3540
36.6505 74.9755 -66.2732
-56.4055 -61.5061 6.0128
-77.4481 -31.0867 -51.3772
80.3977 -22.3785 -12.0534
-27.6338 78.7462 -24.2161
30.8758 -77.5324 36.4695
-76.9284 -32.3514 47.6424
19.9447 81.0358 11.3014
49.4255 -67.2437 -62.3668
46.6801 -69.1777 -36.8130
-54.0225 63.6094 -47.2304
-76.0652 -34.3317 72.3547
-26.9264 78.9909 74.6627
71.5049 -43.0306 45.6604
-68.6344 -47.4753 29.0290
38.1523 74.2225 51.9871
83.4227 2.2876 32.3372
-74.4631 37.6807 -54.5488
58.8414 59.1800 -34.2567
2.4831 -14.8079 76.7377
-54.7684 14.6138 76.7377
-45.1430 -7.6869 76.7377
-0.4900 -4.8872 76.7377
-65.2308 9.6460 76.7377
-27.9879 17.9088 76.7377
8.5618 -18.4903 76.7377
-77.1478 -8.1176 76.7377
-12.9994 -27.1652 76.7377
44.4657 -9.7476 76.7377
-43.9557 -51.0720 76.7377
9.7902 7.5335 76.7377
-80.2596 13.4267 76.7377
-28.4873 34.5138 76.7377
39.6596 65.6184 76.7377
-10.6069 -31.9533 76.7377
13.2093 -59.3672 76.7377
22.4438 -29.5188 76.7377
-36.6631 -47.5454 76.7377
-6.8731 -0.2251 76.7377
-5.6065 -41.6680 76.7377
3.4558 -19.4968 76.7377
-5.8939 -7.1579 76.7377
31.9893 50.4174 76.7377
-31.6898 -56.8346 76.7377
24.3216 17.1751 76.7377
0.0531 -52.9592 76.7377
-23.9790 14.5520 76.7377
-70.4119 32.0441 76.7377
-48.2879 21.7389 76.7377
-13.0099 -32.4765 76.7377
41.6350 -28.4869 76.7377
35.8012 -48.0325 76.7377
-5.5951 -40.4828 76.7377
5.6753 -71.5051 76.7377
16.4451 -6.6872 76.7377
0.6347 -0.2939 76.7377
-21.2943 1.8814 76.7377
-58.4268 43.2738 76.7377
18.2617 -7.5600 76.7377
36.9517 -36.5144 76.7377
6.8207 78.6323 76.7377
-30.8191 -6.9044 76.7377
-46.3413 16.4612 76.7377
-79.4178 16.9523 76.7377
20.1948 7.4970 76.7377
-6.9561 -14.3052 76.7377
2.3982 -1.9757 76.7377
33.0356 39.9785 76.7377
13.4722 10.0860 76.7377
-47.3335 48.0696 76.7377
49.4588 1.2024 76.7377
-15.8752 -18.8231 76.7377
0.0613 -58.4376 76.7377
-64.4000 -7.5276 76.7377
-7.3075 10.2618 76.7377
12.9430 -73.8767 76.7377
-6.3212 -18.4436 76.7377
-20.6055 18.1937 76.7377
0.3440 -0.6235 76.7377
-57.0392 55.3971 76.7377
21.1269 60.4760 76.7377
-37.4326 -6.9032 76.7377
69.1917 -15.7639 76.7377
6.4157 4.5658 76.7377
-20.8827 6.6275 76.7377
14.2516 -4.1648 76.7377
-52.8722 53.3598 76.7377
41.0724 -33.5280 76.7377
13.1890 22.5556 76.7377
74.4541 1.8557 76.7377
33.3881 0.3722 76.7377
-78.6279 -6.2018 76.7377
0.2107 -8.8916 76.7377
0.6833 -63.9625 76.7377
0.5266 0.4848 76.7377
35.0166 32.1085 76.7377
-19.4083 -52.0040 76.7377
-16.1540 -12.3384 76.7377
4.0243 7.1331 76.7377
12.2224 -53.7795 76.7377
54.9491 22.2214 76.7377
-22.9252 10.2065 76.7377
17.1164 -12.3819 76.7377
9.1750 -2.2067 76.7377
51.9031 17.8570 76.7377
-17.7018 -65.8052 76.7377
-40.5258 -17.9312 76.7377
19.4403 -37.5239 76.7377
8.4003 74.6177 76.7377
18.1945 27.9816 76.7377
30.6008 -4.1606 76.7377
-53.4963 -39.9428 76.7377
-46.6448 -8.2447 76.7377
45.6236 1.2239 76.7377
2.0760 -60.8959 76.7377
28.1971 5.0596 76.7377
4.4673 0.3992 76.7377
34.6420 59.9793 76.7377
33.5270 0.2690 76.7377
17.5583 -38.9673 76.7377
29.5884 41.3643 76.7377
-74.9459 -28.2736 76.7377
15.9769 -75.9657 76.7377
-53.6645 14.3133 76.7377
51.6482 -23.3783 76.7377
-62.4189 43.7122 76.7377
38.9694 58.0111 76.7377
-10.2611 -38.4594 76.7377
59.1712 14.4373 76.7377
-56.0317 22.7777 76.7377
-41.2968 20.1425 76.7377
-26.9321 -47.4227 76.7377
-51.3433 47.9894 76.7377
-0.8561 -63.1075 76.7377
-43.7858 -29.9319 76.7377
-24.0749 -3.5030 76.7377
19.2884 29.0802 76.7377
36.3463 53.6947 76.7377
-73.8789 -2.1633 76.7377
-15.3695 18.5393 76.7377
27.7303 -50.3702 76.7377
-25.5595 25.6193 76.7377
1.6262 7.3276 76.7377
61.5261 44.0990 76.7377
-41.6855 -67.7638 76.7377
-38.5644 26.3941 76.7377
25.5627 -66.0663 76.7377
-60.1019 -1.3134 76.7377
22.5702 16.6084 76.7377
-36.7891 16.2609 76.7377
-1.7361 15.1611 76.7377
69.5872 -13.8889 76.7377
-40.2639 -7.4563 76.7377
-29.9078 14.8801 76.7377
19.6529 -25.6873 76.7377
-7.4396 -7.6723 76.7377
-0.0696 0.1676 76.7377
40.1211 14.2039 76.7377
-31.0923 5.8044 76.7377
-19.9460 76.3127 76.7377
-43.8757 54.7746 76.7377
2.5284 -2.1627 76.7377
-49.4588 -7.3412 76.7377
-0.0923 0.0262 76.7377
8.2545 -22.6932 76.7377
-38.2162 33.2049 76.7377
2.3225 16.0595 76.7377
-35.9016 52.2099 76.7377
-52.8912 -7.6672 76.7377
68.0134 6.2845 76.7377
41.0046 15.2382 76.7377
-39.5842 -31.3634 76.7377
-3.5922 21.1327 76.7377
24.2487 8.7633 -76.7377
2.2238 -11.8629 -76.7377
-26.2265 23.6479 -76.7377
-50.6077 28.7707 -76.7377
-13.0221 -78.5774 -76.7377
-6.5903 25.3154 -76.7377
62.3020 0.6869 -76.7377
16.9916 -16.5652 -76.7377
-49.8984 6.2737 -76.7377
50.6660 -0.9059 -76.7377
6.6380 -18.9133 -76.7377
-43.3370 64.9368 -76.7377
-32.0555 -73.9403 -76.7377
-37.3358 29.1068 -76.7377
-51.0953 15.7589 -76.7377
-12.7036 -4.0657 -76.7377
-54.9525 -34.3445 -76.7377
-43.6815 47.7523 -76.7377
14.5637 30.9386 -76.7377
43.8928 0.0115 -76.7377
-6.5713 20.0704 -76.7377
1.8333 70.1352 -76.7377
-13.7301 5.4513 -76.7377
-63.9193 -41.2204 -76.7377
-33.4145 -73.9765 -76.7377
27.8906 -47.1269 -76.7377
-25.7451 56.0591 -76.7377
-0.8159 -0.1707 -76.7377
9.2768 9.6627 -76.7377
-53.2787 -20.4290 -76.7377
6.8535 -60.6790 -76.7377
3.1419 -40.6984 -76.7377
8.1905 -8.0085 -76.7377
-42.7994 50.6048 -76.7377
-44.4002 -35.3404 -76.7377
-27.8964 55.0720 -76.7377
-81.3705 13.1010 -76.7377
-6.4364 -9.2505 -76.7377
-32.5379 21.4751 -76.7377
7.5324 1.7434 -76.7377
20.6302 -10.3543 -76.7377
-36.3454 41.3416 -76.7377
7.9427 19.1841 -76.7377
6.1691 23.8812 -76.7377
11.3111 -13.4917 -76.7377
-39.2414 34.8230 -76.7377
-30.1778 3.9720 -76.7377
-4.6087 -5.6088 -76.7377
46.8440 11.7581 -76.7377
-53.0771 20.2804 -76.7377
17.3590 80.1767 -76.7377
26.1681 -29.8531 -76.7377
-18.6940 -20.0554 -76.7377
52.9073 30.8066 -76.7377
-17.4730 -11.5199 -76.7377
3.1993 -5.6744 -76.7377
-6.9943 -73.3895 -76.7377
44.6485 -6.3387 -76.7377
19.4975 -9.7384 -76.7377
37.4787 -69.6716 -76.7377
17.7276 -27.7167 -76.7377
-50.5594 8.3855 -76.7377
-34.1493 -2.5006 -76.7377
26.1360 -7.9606 -76.7377
23.8972 -3.7126 -76.7377
-24.1273 -30.3369 -76.7377
0.1223 0.3124 -76.7377
10.9339 -19.6215 -76.7377
-43.7478 -22.7637 -76.7377
1.2180 -1.4488 -76.7377
-5.6257 -81.8842 -76.7377
52.9994 -5.4168 -76.7377
61.6651 49.7579 -76.7377
-23.2645 -56.9288 -76.7377
61.5134 -28.4415 -76.7377
-48.1813 12.3920 -76.7377
47.8322 42.8474 -76.7377
18.5360 6.6055 -76.7377
-61.7544 24.7689 -76.7377
1.1475 1.1341 -76.7377
-16.2150 66.3231 -76.7377
23.8985 -3.7652 -76.7377
-40.3710 39.5000 -76.7377
11.9636 10.7069 -76.7377
12.2480 -9.3783 -76.7377
8.6555 -27.2200 -76.7377
-7.8620 -32.1004 -76.7377
-2.4520 2.8503 -76.7377
37.4502 -43.2524 -76.7377
-11.8918 -76.4988 -76.7377
2.1664 -20.1671 -76.7377
-33.3360 -60.1176 -76.7377
-46.9007 -8.0342 -76.7377
0.6411 -1.0554 -76.7377
-14.7948 -18.8904 -76.7377
25.0951 -37.1773 -76.7377
-18.7595 22.7763 -76.7377
-69.8045 -0.4496 -76.7377
45.8454 60.5364 -76.7377
-34.1841 50.2087 -76.7377
-6.4579 -58.6562 -76.7377
2.0138 -38.8611 -76.7377
-28.4407 73.1241 -76.7377
-31.4679 -22.8900 -76.7377
18.7655 -45.8825 -76.7377
-16.6623 -28.9791 -76.7377
-58.6828 -10.0327 -76.7377
-0.2291 0.1514 -76.7377
-9.7356 -64.5701 -76.7377
24.4932 36.4522 -76.7377
11.9792 35.0676 -76.7377
47.4481 24.0866 -76.7377
-0.1288 -0.1276 -76.7377
-22.6525 -22.6733 -76.7377
0.8102 2.3809 -76.7377
8.2080 10.2626 -76.7377
20.7118 -37.4329 -76.7377
35.8044 -26.9479 -76.7377
5.3460 -4.3413 -76.7377
-23.5342 1.6130 -76.7377
10.5900 -2.6171 -76.7377
2.1852 -6.7251 -76.7377
-2.1803 26.5254 -76.7377
-4.8556 48.4148 -76.7377
-1.1481 -0.0976 -76.7377
8.7483 4.9345 -76.7377
-8.3157 -11.8523 -76.7377
9.3285 54.6530 -76.7377
-51.7967 20.9519 -76.7377
40.2692 4.0133 -76.7377
-9.2521 21.5963 -76.7377
-24.1185 -1.5262 -76.7377
20.6428 -26.6618 -76.7377
-81.8958 15.5258 -76.7377
17.9241 -12.3063 -76.7377
-12.3324 -30.6463 -76.7377
-18.1502 31.4099 -76.7377
42.0833 -61.1622 -76.7377
27.6485 27.7281 -76.7377
3.3426 1.0243 -76.7377
0.0984 0.5575 -76.7377
68.2931 12.3616 -76.7377
51.9413 -43.3478 -76.7377
35.9577 -38.1216 -76.7377
-45.7116 -55.5706 -76.7377
-9.4882 8.0412 -76.7377
33.2809 50.2197 -76.7377
-15.4472 24.8338 -76.7377
34.0675 -73.7738 -76.7377
18.4411 -7.5082 -76.7377
4.4151 -2.5066 -76.7377
-46.1159 40.7079 -76.7377
17.6557 81.1773 -76.7377
-16.9654 -6.5858 -76.7377
