ply
format ascii 1.0
element vertex 1024
property float x
property float y
property float z
end_header
-4.6323 -1.4929 -38.9908
-26.8002 -5.7433 28.1555
-32.4035 21.3985 6.0071
-8.4801 21.9840 31.4446
-5.1166 -14.6490 36.0998
6.7720 38.3725 5.0656
-4.2804 8.3614 -38.1541
38.1942 3.4493 8.5598
-8.7165 29.4834 -24.4687
27.9830 10.1628 -25.6445
-30.0904 -24.5760 5.8783
16.4651 -21.3040 28.6183
36.5432 9.8470 -10.5641
28.9925 -21.9883 14.8296
-3.0301 -32.4392 -21.9655
0.5084 -30.9259 24.2343
-33.8304 3.9656 19.5895
-26.1663 -2.1560 -29.2343
-20.5629 -32.3899 -8.4871
-15.6730 35.8596 3.5230
-21.2903 -21.8559 -24.7590
-16.9941 -31.8706 15.4737
16.1725 -34.8836 8.0964
6.7948 -14.5497 35.8623
-26.3798 -28.7148 -4.8512
2.4054 17.9021 34.8955
35.7487 -11.8939 -11.1596
-10.4195 -37.1079 -7.6422
26.2353 -8.3004 28.0496
-29.1529 -25.1782 -7.7546
-28.0513 18.0383 -20.7777
-14.8355 -0.2320 -36.3844
-25.8664 -27.4527 11.0112
-21.7084 -11.0513 -30.8315
33.9608 -15.5192 -12.2387
8.3805 28.9988 -25.1556
-23.5042 9.3272 -30.0753
-19.8809 -33.8621 1.4399
29.0752 16.6719 20.5097
-35.5668 -16.1023 4.4370
25.8978 -8.5018 -28.3018
-0.4364 -11.2557 -37.6442
28.1058 -3.8908 27.1826
33.7070 4.2248 -19.7473
25.1143 -6.4566 29.5220
-20.7391 -26.5737 -20.1915
6.7661 27.6956 27.0396
23.2159 19.4867 25.0051
30.7747 9.4011 -22.5500
21.8226 -28.8278 -15.3850
-22.4194 -32.2291 1.6204
10.7965 24.2407 -28.9791
34.2234 -18.0503 6.8490
-12.2439 -37.1559 3.6739
-34.2697 18.6762 -4.5556
31.0725 -14.0651 -19.5101
27.6276 -5.1833 27.4557
-15.5436 36.0775 0.8848
11.0913 28.6994 24.4396
30.0781 25.2740 0.7084
-38.8169 -6.0983 -0.1675
-3.7310 0.7934 -39.1078
35.0089 5.4878 16.9773
35.3691 -14.6269 8.8910
4.7965 10.4089 37.5848
-35.4068 -16.1275 5.4984
2.7073 -24.6549 -30.4758
5.3751 25.9621 29.0008
-2.7692 -28.9863 -26.3836
-32.1175 -20.6264 -9.3267
-39.2849 0.4504 0.6793
-8.7946 -8.0733 37.4359
35.3785 -6.3666 15.8680
9.4935 37.8586 -4.5349
34.4456 -9.6946 16.2322
-3.9749 29.5908 -25.5451
11.1929 37.4651 3.8799
-21.8932 -22.3759 23.7482
-26.0860 -1.0898 29.3649
-32.0186 7.1166 -21.6364
29.8121 -6.7575 -24.6889
-18.1780 -24.9062 -24.3559
-25.6384 11.7392 27.3647
-0.2484 -15.2263 -36.2225
-35.3143 15.7923 -6.8899
19.0875 32.5241 11.0372
27.8689 -10.8859 25.4713
-31.9017 -4.0331 -22.5829
16.9207 -15.6856 31.8060
31.9753 17.5459 14.6181
35.7773 4.3860 -15.6434
-1.1783 36.0909 -15.4928
20.0626 33.6277 3.2616
-26.5790 19.0550 -21.7815
5.4425 19.0649 33.9246
0.9633 -1.3325 39.2589
31.0082 23.3549 -6.0835
-38.4428 -4.9471 6.4536
-37.9150 1.2917 -10.2350
31.3131 -17.9209 15.5660
-17.0260 -0.0518 35.4130
26.5734 -9.4202 -27.3694
-13.9928 33.2270 -15.6248
-32.6574 1.5600 21.7951
-39.0236 1.0649 4.4717
-1.6857 -22.2749 -32.3257
33.5041 -16.0319 12.8227
-18.2668 -8.6591 33.6944
17.2559 -29.7366 19.0246
-23.0662 27.2252 16.4531
0.5024 13.4996 -36.8982
-31.5226 14.9407 -18.0851
5.2433 -17.6147 34.7303
37.4070 -0.4057 12.0217
25.7016 24.7212 -16.5003
26.3846 -26.4960 12.0740
-22.9495 10.4958 30.1185
-37.3558 12.1491 -0.9561
-32.8658 6.8473 20.4187
-16.9489 7.8272 -34.5751
-13.2494 -31.4422 -19.4886
22.1194 27.6450 17.0427
-29.0042 -1.9212 26.4392
-26.5242 -22.2181 18.6223
19.0278 -29.5374 -17.5913
-36.8485 10.2989 8.9493
21.4811 7.5717 -32.0187
19.5867 -28.2601 19.0183
-36.1440 6.0241 -14.1877
2.0257 12.4017 37.2299
29.5819 -24.4205 -8.5158
19.9073 23.1602 -24.7239
-23.1686 -20.6239 -24.1213
-33.5787 -17.1629 -11.0396
19.2320 24.5308 23.9236
24.4183 9.3235 -29.3392
-16.6365 35.5679 -1.4550
-29.7999 -17.4268 -18.7680
-1.6263 0.5133 -39.2563
-12.1932 33.5388 16.4452
-10.5399 12.6622 -35.6728
-23.3219 2.8511 31.4949
24.8180 10.6615 -28.5371
7.4645 3.4580 38.4225
8.7358 37.6340 7.1649
0.7652 -17.9949 34.9223
27.1958 -24.4187 -14.4253
0.5495 -19.0325 34.3720
2.1803 -1.6799 39.1968
-18.3783 -6.5612 -34.1051
30.2012 3.5242 24.8885
15.7309 5.8593 -35.5271
-36.0287 14.8217 -5.1203
-7.3319 -36.9457 11.1906
7.3590 -14.9244 35.5960
-33.6358 14.1990 14.5256
-6.6287 27.0788 -27.6905
-9.6398 2.6095 38.0031
-9.3591 -37.1323 8.8075
-2.8343 -15.6233 35.9423
-18.7083 -34.0677 5.7758
-21.9024 -32.1691 -5.4224
6.5789 34.6381 -17.3461
18.7277 -23.1585 -25.6306
-33.0635 7.8710 -19.7186
-14.8871 -15.5124 -32.8893
-23.4396 30.4531 8.1952
-3.5329 -21.3666 -32.7865
5.8142 -29.6124 -25.1648
-37.7240 -7.9772 -7.5651
4.4482 -33.4202 20.1810
0.2371 37.5669 11.5168
38.3497 -2.2128 8.2687
-27.9454 27.5875 1.3961
17.7910 30.6078 17.0474
30.0319 -20.7585 14.5305
-35.7687 15.7660 4.0001
30.2392 21.2049 13.4130
-15.0523 34.3683 -11.6712
26.2912 23.7408 -17.0034
-31.0962 14.6874 -19.0073
-0.2460 -34.4851 -18.8332
9.4362 3.2076 38.0084
17.0316 18.5100 30.1872
-25.8941 -12.9595 26.5615
-15.4436 36.1099 1.2395
9.4027 -22.1803 31.0417
21.3279 -3.0654 -32.8587
20.3801 -33.5225 -2.2048
29.8055 -17.5255 -18.6670
32.3646 10.9573 -19.4020
-20.0478 -21.2144 26.3060
-35.3031 -11.1104 13.1992
11.8272 36.6730 -7.6927
-34.9272 -1.6396 -17.9269
-0.5660 -37.6642 -11.1828
2.5810 -16.6567 -35.4945
-4.4373 -36.9048 -12.7404
22.7634 24.6135 -20.4932
-37.0998 -9.6178 8.6643
37.7549 -2.3113 -10.6392
-22.2241 17.4290 -27.3183
-22.7191 31.5702 -5.5796
-24.2984 -30.7272 3.0650
2.1700 -33.2411 -20.8396
-35.3011 -0.3174 -17.2541
38.1299 6.5010 -6.9150
-21.5646 31.8224 -8.1408
14.7084 -20.2713 30.2772
-37.1694 9.4914 8.5041
9.3984 -12.9033 -35.9047
-10.9857 -12.8174 -35.4823
-20.9008 -28.9168 16.4605
30.6943 -24.2331 -3.8191
0.3229 36.6854 14.0730
-10.0786 26.4515 27.2527
23.2908 -17.0281 26.6749
1.3658 30.1504 -25.1606
-1.0793 37.8966 -10.3272
17.2651 0.2186 -35.2964
-38.1868 -1.7041 -9.1013
24.0884 9.3897 29.5897
34.3048 16.1054 10.3811
-25.2124 13.0456 -27.1683
31.8523 -2.6141 22.8597
-26.7798 28.5210 3.6561
-23.3391 27.0665 -16.3298
0.7104 13.6561 36.8371
31.8806 20.3954 10.5652
9.1023 7.0694 37.5651
19.7188 -10.5480 32.3090
-31.3176 -11.2312 -20.9055
-36.9418 4.3749 -12.6545
-39.0456 -3.0291 3.1984
-31.9912 20.8090 -9.3552
-0.5403 27.2187 -28.3340
23.6283 -27.9382 14.3223
-35.6832 -0.9342 16.4257
15.7484 -7.6776 -35.1712
-30.7856 22.6053 -9.2312
11.2248 -27.2175 26.0226
-36.8703 1.0501 -13.5443
-2.9664 35.4681 -16.6487
35.5872 -12.0426 -11.5107
-3.5949 -29.0264 26.2395
18.1469 -24.4305 24.8558
-39.1883 0.1881 2.8649
-0.9474 21.2222 33.0558
2.7640 -6.7920 -38.6031
30.1023 24.8448 4.5336
27.0330 27.4501 -7.7250
-13.4230 -19.1667 31.5663
31.6179 16.7923 -16.1956
-3.4996 18.4155 34.5339
-28.1446 -24.7040 -11.8980
26.8559 -27.9854 6.2886
-17.9339 18.0127 29.9648
-24.7178 20.9805 -22.1995
-8.8182 38.2906 0.2015
21.1255 -6.0026 -32.5829
0.9616 -25.6335 -29.7652
17.0566 28.9006 20.4400
-14.2591 -7.0125 -35.9370
2.7708 -19.6020 -33.9419
27.4573 -8.1087 -26.9130
34.5454 5.9512 -17.7530
-21.6762 -30.2591 -12.5896
-11.2422 -13.0850 -35.3039
36.0340 9.8541 -12.1827
39.0439 1.2680 -4.2345
35.7139 -1.2770 -16.3357
20.3184 -6.6251 -32.9733
10.8503 19.2758 -32.4759
-16.8426 -25.0333 25.1720
-13.3806 31.9353 18.5759
26.8332 25.2914 -13.5754
-6.0583 -4.7577 -38.5309
21.7059 13.4327 29.8728
-3.9906 -12.9924 36.8679
32.5714 12.0934 18.3527
-17.6119 21.6570 -27.6543
17.9679 21.7518 -27.3493
32.7673 13.4213 -17.0335
-32.7361 -19.6728 9.2355
-7.4250 36.8817 11.3393
26.4271 8.6993 -27.7471
5.5856 -35.0653 16.8284
-3.5213 2.0555 -39.0812
-21.6772 17.4055 27.7690
27.2196 -28.2760 -1.8792
-29.9919 1.7264 -25.3274
20.0643 26.2154 21.3107
-32.6899 17.1875 -13.4137
27.1710 20.1593 19.9826
-15.7854 31.8024 16.8343
-27.3078 9.1599 26.7273
7.6788 -36.8010 11.4320
-19.7457 15.9610 29.9887
-11.1046 35.9486 -11.3292
18.7577 1.4893 34.4949
-37.7373 10.9426 -0.3488
-12.3176 -22.4446 29.8074
32.9740 -21.3046 1.6730
17.2940 -1.6642 35.2437
36.6721 12.4479 6.6465
18.4411 34.6825 1.0083
-12.4768 -36.3356 8.2474
13.7803 35.6091 -9.2771
-27.4103 10.2932 26.2048
-33.5296 20.0638 -4.1441
-17.4779 -31.2003 16.2798
-17.2926 -17.7448 -30.4969
5.5564 26.1858 28.7645
-30.4356 -11.8493 21.8457
4.2060 -22.7176 -31.7834
-33.0541 -20.7499 4.5645
-11.6059 -31.5315 -20.3724
-1.7477 2.7802 -39.1559
-38.7256 -6.0974 -2.6682
-19.2588 -34.0635 3.5704
-23.6544 -0.6878 -31.3682
-20.9172 0.5492 33.2587
21.7132 -21.7441 -24.4887
-31.1606 22.9115 -6.9317
-16.3277 -34.6383 8.8069
-33.4482 -20.4025 -2.9876
-38.9458 3.3450 4.0007
30.1182 -23.8711 -8.1873
18.8200 24.1324 -24.6455
10.0536 -26.3223 27.3867
26.9616 5.0569 -28.1330
-13.9513 -19.6773 -31.0183
-26.7952 13.4960 -25.3741
16.6728 11.7964 33.5683
12.5279 16.0362 33.6134
-31.6260 -0.6767 23.3089
-9.3253 -19.7892 32.6404
24.4088 -7.1287 -29.9559
21.4423 10.4104 -31.2381
-4.6993 -39.0061 -0.6404
-18.7407 -8.5041 33.4729
36.5097 6.8454 -12.8120
-35.8369 -0.9912 -16.0843
-2.3136 35.5879 16.4960
-18.0144 34.7496 3.4520
-26.4124 -17.6593 -23.1193
-30.0836 -25.2196 -1.7075
-7.8714 -18.2786 33.8807
-19.6321 -31.5019 12.8911
-16.3127 35.7435 0.5166
-32.8541 1.8390 -21.4754
-15.3843 24.4248 -26.6594
1.7994 38.2531 8.7994
4.3449 9.6611 37.8385
-23.9929 1.1204 31.0974
1.0691 19.5233 -34.0832
22.1432 -11.3553 30.4089
17.5526 -33.5822 10.3975
-35.8063 -12.2311 -10.5961
18.8860 25.2459 23.4506
30.3929 -24.0059 6.6301
-4.8909 -29.7694 -25.1760
1.9892 14.1211 36.6143
-26.5025 18.7507 22.1359
-12.5962 24.9489 27.6199
31.3964 -16.9864 -16.4224
-20.9893 -0.7585 33.2091
-17.1580 35.3245 -1.3223
-15.4722 -19.7223 -30.2590
5.9194 21.1099 -32.6083
22.8671 -13.2051 -29.0979
35.3412 -1.8715 -17.0723
16.6482 -12.7232 33.2404
-36.4899 -12.1854 7.9982
35.9354 14.7630 5.8879
14.1479 21.1894 29.9134
10.9342 -35.6125 -12.4965
17.7659 29.3014 19.2293
19.3859 -17.7302 -29.2198
19.7194 31.5454 12.6490
33.8510 -19.1167 5.7124
36.7932 -3.5406 -13.3302
-38.0026 -8.4375 -5.3457
-6.1193 34.5602 17.6667
33.3373 -18.7513 -8.9988
-7.3342 -11.9679 -36.7008
-37.0662 8.4624 -9.9222
35.2260 -13.0116 11.5670
15.2000 33.5556 13.6730
11.8904 -23.9810 28.7662
-35.9304 -13.8583 -7.8051
-17.8958 29.6709 18.5297
-25.2557 19.5998 -22.8466
23.6282 -23.9150 -20.3409
-4.2065 -7.0715 -38.4222
35.7108 -5.3760 15.4858
-21.2128 -16.1496 -28.8648
27.6371 19.3843 20.1099
34.1214 -18.2039 6.9511
-23.6886 22.7263 21.5947
-25.8918 24.4262 -16.6416
8.8577 -16.5878 34.5015
15.2723 -14.7295 33.0721
27.9462 -1.1315 27.5989
28.8964 -1.3530 -26.5920
-27.7655 3.0878 -27.6317
-25.9074 -2.7548 -29.4140
36.8237 10.5978 8.6988
-23.4513 0.8554 -31.5162
6.5344 18.4394 34.0772
28.2182 20.5913 -17.9917
1.2265 -6.2640 -38.7715
-20.7895 6.1710 -32.7671
36.1642 14.9851 -3.4002
-37.4065 -9.8052 6.9702
-34.7396 7.2124 -16.8851
27.1023 27.9125 5.5067
3.0396 4.2491 38.9445
-29.6212 -0.7951 25.8054
10.2108 -2.4178 -37.8664
3.8847 -16.3167 -35.5337
-16.6331 -22.6458 -27.4677
-38.0787 -2.2749 -9.4239
-12.3662 -21.0656 30.7780
31.7681 22.9791 2.5923
6.6613 -0.6547 -38.7191
-5.3484 -17.4690 34.7879
24.9222 -5.4142 -29.8921
-5.1213 36.1460 14.5330
-20.0020 20.8425 26.6360
1.4121 -10.5738 37.8176
-26.4850 19.2957 -21.6838
33.1835 -14.2589 15.4760
-24.0779 24.7782 18.7154
8.9021 3.9678 38.0654
14.2469 -13.2524 34.1375
-26.3089 26.7674 11.6327
34.8792 5.6662 17.1844
-19.1574 33.8218 -5.7485
-24.1427 10.5586 -29.1481
-2.8405 -8.0627 -38.3522
-7.1187 -31.7642 22.0074
-22.3557 31.7180 -6.1772
33.9573 -19.0409 5.3213
-9.9155 30.7469 -22.3669
-19.7703 -10.4543 32.3081
-1.7754 -30.6419 24.5334
35.4370 12.8436 11.1007
5.1688 -36.9920 12.2003
13.9086 -6.1291 36.2347
30.9250 -5.0136 -23.7167
36.8424 0.3527 -13.6558
-31.7182 -17.4703 -15.2549
4.3454 -38.1397 8.3932
16.2256 7.3087 -35.0326
-4.1125 -35.8360 15.5833
25.6996 -1.6926 29.6755
16.1008 3.9228 35.6279
38.6130 -2.0377 6.9896
-38.3184 0.1734 -8.6970
12.9011 22.5803 29.4561
16.8794 33.3800 12.0345
27.7902 -27.5611 -3.4722
10.0857 -25.5908 -28.0599
-1.9394 -37.5449 11.4274
-24.4918 19.0520 24.1069
24.6104 9.9678 -28.9645
18.5661 -30.9182 -15.5991
31.3015 -21.5941 9.8932
4.0983 29.2182 -25.9513
0.3882 -30.0512 25.3129
5.9211 -38.5942 4.4044
18.6809 34.4261 -3.1366
5.9728 -30.7229 -23.7570
-1.3850 -13.6001 -36.8387
39.2145 0.3172 2.4675
-22.4896 -7.2168 -31.4023
-4.6167 13.5170 -36.6053
-14.9948 -32.7121 15.7811
38.1715 -6.8998 6.2691
-16.7674 32.6537 14.0200
31.5099 -17.3457 15.8183
23.4893 17.2993 26.3241
-28.1703 -13.6897 23.7275
-35.1848 3.3824 17.1627
-24.6286 -27.7604 12.9136
-16.9113 34.9976 5.7567
-29.9654 -17.1344 -18.7738
-25.8726 -19.7517 22.0101
-18.5522 12.9678 32.1188
-7.8627 -24.3107 29.8519
-24.9473 -1.6994 30.3102
-15.6762 35.8072 -4.0089
-10.1344 17.2139 -33.8370
-33.4474 -20.3999 -3.0132
-10.3626 -9.1667 36.7771
-10.6517 -23.7938 29.4001
5.7301 -31.9392 22.1591
36.0643 -11.2799 10.7748
-34.5717 1.0361 -18.6465
16.3961 -17.5671 31.0891
-30.1468 -21.3978 -13.3144
-1.2187 -36.8246 -13.6541
-17.3462 -34.0455 9.1641
36.7748 -12.6107 5.7052
16.0426 29.4357 20.4974
20.8846 -33.1757 -2.6780
-27.1578 -13.1104 -25.1901
-8.3722 -27.5567 26.7302
-25.2961 25.0569 -16.6201
-34.7517 -6.4058 -17.1829
-2.9582 -5.0446 38.8557
33.2461 -20.3704 4.8695
-31.7859 -11.1085 -20.2541
-29.0435 26.4625 0.4236
-23.7683 -15.0362 27.4399
-26.3524 9.2228 27.6489
36.5543 -10.2967 10.0861
34.9346 -10.2522 14.7794
-29.9300 -1.4328 25.4186
-5.8515 38.0503 -7.8678
-25.8949 -5.0193 -29.1244
-35.8041 0.8791 -16.1635
-11.3606 -29.6703 23.1210
-12.7088 25.2178 27.3225
-11.1819 -18.5761 32.7699
32.4956 13.8301 17.2260
-34.2884 3.7970 -18.8111
-27.2429 -5.0664 27.8590
17.6920 10.3665 33.5186
-29.1661 2.5456 26.2074
-11.2003 29.3068 -23.6565
31.7014 -20.9885 9.9232
-12.4454 -31.4264 -20.0364
-27.9072 -4.8850 27.2267
4.2976 -38.5066 6.5373
19.7438 6.5973 -33.3260
-37.9168 3.5094 -9.6938
31.8631 22.9503 1.4127
-21.1000 -31.7761 9.4358
0.9613 -28.9859 26.5115
30.0878 -20.4037 14.9124
-32.5205 -10.8990 -19.1729
-32.1460 11.9435 -19.1822
23.5114 7.5404 -30.5667
-19.9708 15.5281 -30.0668
-27.6841 -13.4342 24.4352
-22.0096 -23.2733 22.7574
32.5674 17.6820 -13.0645
35.6057 -8.6151 -14.2119
35.3257 12.8326 -11.4625
-13.2658 16.6463 -33.0286
-13.1593 -21.2982 -30.2851
11.6197 37.2198 -4.8620
-0.2659 6.3682 -38.7730
-23.7637 -9.8049 29.7173
25.1242 6.1649 29.5759
-29.4997 -8.8956 -24.3844
-35.0880 10.1567 14.4789
1.1563 36.6866 14.0258
-2.7016 -29.9969 25.2360
17.7560 22.8734 -26.5613
-6.6164 33.2151 -19.9236
20.3624 24.4613 23.0431
25.7101 -25.5766 15.1260
-30.3961 24.8046 2.1854
-19.8284 14.8346 30.5080
-31.3010 -16.5811 17.0083
-3.1642 -35.1588 -17.2572
34.2963 11.8461 -15.0799
-22.9685 -3.1988 31.7204
-35.4152 -4.1821 16.4998
0.6846 34.1860 19.3602
-26.6958 22.9529 -17.4491
36.1882 14.4638 5.0184
9.0848 21.9717 -31.2838
-1.9682 -38.8928 -5.2391
-33.2970 15.2053 14.2855
31.8236 -19.5487 -12.2094
26.1676 -28.8244 5.3272
8.8560 37.9684 -4.8928
-2.3900 -35.9918 15.5836
-19.3854 -13.0083 31.6063
-26.6240 -27.0482 10.1747
-21.0400 -5.7819 -32.6781
14.4785 13.7539 -33.8404
21.1038 6.0626 -32.5859
14.6742 -5.3039 -36.0625
30.9271 -4.0170 -23.9029
35.4550 -1.0398 16.9066
-13.0069 -22.0667 29.7968
21.5388 14.8112 29.3373
19.3509 -16.2062 -30.1142
-11.7268 37.5023 -0.1569
21.8848 8.3016 -31.5612
5.7201 26.8424 28.1200
34.6525 1.0528 -18.4949
14.4206 14.5322 33.5385
-15.8146 21.2484 29.0236
22.0144 21.0283 -24.8424
11.3219 2.6602 37.5327
-21.2445 32.9412 2.7413
-20.5990 4.0939 33.2098
-14.7764 -33.5885 14.0514
-9.3253 -26.9237 27.0578
-28.7148 0.9810 -26.8042
39.2828 0.1980 0.8888
-23.1699 16.0704 -27.3654
-5.7507 25.7631 -29.1060
-17.3568 33.1959 11.8636
3.6793 -16.6581 35.3969
34.8984 -1.1612 18.0200
-35.7665 -14.2288 7.8911
1.9075 17.5161 35.1214
-7.8356 -37.2241 9.8459
36.7368 -12.1743 6.7941
37.0653 3.8119 12.4740
32.3445 9.3118 -20.2753
36.3210 9.2226 11.8192
2.7808 36.4125 -14.5040
-19.7007 -2.2792 33.9213
5.2239 -19.5563 33.6783
28.7085 25.1886 -9.2374
-38.2659 -7.6371 4.6218
28.9306 4.3785 -26.2262
21.8190 -21.1507 -24.9109
-26.0904 -28.5717 -6.8493
-30.4439 -5.4581 24.2353
-3.3337 4.8330 -38.8522
-17.5579 -0.3597 -35.1505
-2.5356 -35.4497 16.7589
-9.1774 35.3052 14.6044
-15.3172 32.5294 -15.8490
37.6967 8.5983 6.9997
3.8513 -23.1485 31.5164
-27.0689 11.3030 26.1435
-19.1175 17.5197 -29.5221
-7.7347 -18.5935 33.7405
-20.9755 -19.2216 -27.1022
-16.7111 -34.6811 -7.8694
28.1499 10.1530 -25.4651
2.3467 -15.2211 36.1494
-7.1832 18.8395 33.7260
14.2106 30.9703 19.5669
-5.0760 -8.6277 -37.9969
3.9540 -1.9251 39.0465
-6.2414 31.0215 23.2955
-13.8388 24.7422 27.2081
-13.6483 -32.9901 16.4118
38.6547 -4.3691 -5.5400
-10.4420 -32.8143 18.9250
-26.7733 27.9821 6.6453
-37.8156 -1.2350 10.6029
15.0997 -22.5970 28.3786
-25.7166 -24.4509 -16.8753
10.1699 20.9657 31.6383
5.6649 8.6521 -37.9080
-32.0801 -20.5829 9.5487
-21.2273 -0.7852 -33.0568
-12.4669 17.5568 32.8679
-25.9039 28.3147 8.4401
-7.3551 -13.3073 36.2324
14.6638 -34.5709 -11.5669
22.0279 17.4861 27.4404
3.6411 37.2494 -11.9662
-31.9103 5.9540 -22.1417
35.9262 15.8292 1.6459
10.2267 19.7895 32.3691
-5.5980 10.8213 37.3568
-27.3354 5.1881 -27.7458
34.6438 6.1174 17.5030
13.8446 2.0171 36.7182
4.5189 19.5198 -33.8013
-0.3215 -2.8160 -39.1910
-11.3758 -33.7491 -16.6000
5.0115 -15.1596 -35.9032
24.5035 7.7934 29.7121
-16.9956 18.2544 -30.3627
3.1581 -28.5234 -26.8405
-7.1355 -32.5423 -20.8338
32.6371 -7.2292 -20.6525
-14.9170 34.1427 -12.4790
-7.1253 26.5109 28.1135
-19.9853 -4.0872 33.5835
-24.3942 26.5414 -15.6348
38.0281 -9.1101 -3.8525
6.6289 11.1424 -37.0928
6.3753 8.2706 37.8803
6.0520 -1.4569 -38.7971
16.7417 35.3398 3.8445
0.3389 34.9445 17.9649
-10.2789 13.2117 -35.5495
-37.1763 9.3571 -8.6217
-5.2847 38.5118 5.7342
3.1579 -0.4536 -39.1636
35.0510 -14.7347 9.9139
4.1367 -22.7717 -31.7538
-31.1691 -11.3869 21.0427
12.1449 2.8149 37.2632
20.9496 18.4367 -27.6617
14.5725 -27.7935 23.6460
21.3730 -11.0211 -31.0756
23.6676 26.6731 -16.5032
-24.3650 28.9995 -10.4567
37.1029 -3.5808 -12.4307
-12.4956 21.7505 -30.2447
11.2256 25.7971 -27.4310
37.3805 -11.1910 -4.6295
-14.1536 21.1840 -29.9146
37.4691 -6.2213 10.0664
33.6240 -20.3225 -0.6256
-18.2265 -19.4448 28.8732
-30.2844 -13.7762 -20.9055
-7.3228 -24.8695 29.5272
-35.9877 5.1194 -14.9213
-30.9130 -8.9893 22.5289
-1.0301 -30.6500 -24.5659
-13.9163 -36.3999 -5.0349
17.8875 5.5245 -34.5468
-15.6115 -17.4007 -31.5827
-28.1733 27.3016 -2.2033
-20.8657 18.4302 27.7294
19.3769 -0.9784 -34.1694
5.9014 -36.5702 13.1059
-11.4857 -1.9577 37.5262
22.7668 -31.9384 -2.3614
-38.9640 0.0196 5.0769
-0.7541 22.7489 32.0295
23.0026 -31.4635 4.9896
13.1062 17.8256 -32.4722
26.5108 6.2445 -28.3223
18.8170 -26.0360 -22.6278
1.4019 -29.3476 26.0906
-18.3737 -21.9726 -26.8994
12.2351 16.1996 33.6429
15.7595 30.8388 -18.5628
-24.7821 23.4457 -19.4966
-20.0151 14.2612 30.6591
4.1730 31.5644 -23.0270
19.2988 28.8689 18.3878
-31.1300 8.6295 -22.3702
10.6849 36.8336 -8.5491
-14.3991 36.1227 -5.6380
7.1341 38.3486 -4.7393
-15.3394 33.6999 13.1524
-10.0642 -16.5828 -34.1715
21.8525 32.4730 -3.4551
1.8805 -34.8734 -18.0077
-35.1302 -7.2443 -16.0424
-31.1840 -10.0468 21.6930
-35.4795 -16.8851 -0.2550
23.6218 12.8954 -28.6302
31.0439 12.9146 20.3336
-25.4265 29.2671 -6.3951
25.5218 20.6711 21.5711
-12.6725 26.4631 -26.1358
37.8747 -5.1276 9.1205
-38.5172 7.6491 1.3719
38.4186 -5.7396 5.9194
-8.5233 19.4313 -33.0718
-30.1783 0.8627 -25.1495
-20.6282 22.7035 -24.5560
-22.4212 -27.8911 16.2279
8.5837 -34.5945 16.5381
21.5148 28.5567 16.2971
-15.6708 -32.9573 -14.5674
37.4870 4.6701 10.8114
-11.8946 -6.4537 -36.8895
-14.3180 -34.7178 11.5600
4.6306 -35.3700 16.4768
-37.9590 -9.9870 1.8279
11.7829 -28.5191 -24.3268
17.0234 4.9491 35.0668
-21.2250 -28.2855 -17.1288
24.1173 -23.9547 19.7103
-7.3837 38.5721 -1.2818
-8.1616 37.4647 8.5880
-2.8034 30.0984 -25.1037
-35.5884 -5.5048 15.7205
26.6172 4.4733 28.5566
21.0549 0.8928 -33.1642
31.2576 1.3823 -23.7701
-37.9848 -0.2290 10.0534
39.0847 3.0523 -2.6536
-18.0525 -18.9988 -29.2766
8.1837 -6.5201 37.8746
-7.2110 15.0892 -35.5568
-2.3675 5.3156 -38.8601
-18.2312 -21.1782 27.6238
27.9796 -19.3233 19.6906
-19.6679 -32.5515 -9.8764
-17.3846 -5.0585 34.8734
19.4582 29.7487 16.7440
24.7586 19.3627 -23.5810
2.0538 -24.5379 30.6209
28.3405 27.0543 -2.9747
-4.8402 35.4912 16.1528
-37.8668 -5.4428 -8.9695
-21.2430 -32.2823 -7.1103
2.0390 -37.9606 9.9402
14.8656 9.9468 34.9863
30.6465 -16.4028 18.3224
24.5057 -30.6820 -1.4342
-15.4047 -11.3844 -34.3083
12.1724 -35.3914 11.9686
-29.4183 8.3738 -24.6661
17.2623 34.4648 -7.6261
22.7879 -29.0287 13.4913
11.4502 16.4644 -33.7903
-2.2074 29.3160 -26.0705
-26.4002 8.6770 -27.7796
37.2028 -7.3736 -10.2736
-4.5275 -38.8998 -3.2053
-34.2127 -18.1098 6.7451
16.9320 33.5175 -11.5696
19.1922 -32.1596 -11.8907
35.6605 0.9195 16.4757
-35.6816 -4.5964 15.8008
-17.4698 34.6675 -6.0779
-13.7513 -35.1861 -10.8079
-9.3274 27.8088 -26.1465
-34.6619 16.4418 8.4964
9.5536 38.0610 -2.0141
-33.1346 -18.4226 -10.3284
24.8873 12.7862 -27.5881
-18.4206 -31.5513 -14.4625
2.2198 34.5397 18.6024
-36.6265 2.3402 -14.0353
30.1760 -23.9999 7.5751
23.0745 -31.3109 -5.5825
8.6941 5.5983 -37.9083
19.0249 -34.0519 4.7427
37.1195 6.3093 -11.2384
-11.4911 35.3519 12.7343
-36.8534 -6.9549 11.7230
36.5314 -13.3510 5.5836
31.2192 9.0901 -22.0613
6.9553 -23.9835 -30.3379
34.2627 16.8507 9.2784
24.7761 5.1457 30.0605
15.5748 30.3285 -19.5340
33.8160 -18.9220 6.5121
-0.0812 -39.2584 -1.6540
-20.9129 -5.0190 -32.8851
-27.2272 23.0667 16.4490
-27.8477 11.8099 25.0799
-29.8831 -0.0197 -25.5141
21.0774 8.0373 32.1732
-23.8486 -29.0380 -11.4893
24.4745 -11.6046 28.4658
19.2837 30.1774 16.1689
11.0303 3.1774 37.5793
-36.1276 -9.4982 -12.1881
-8.6526 37.1832 -9.3010
-24.9723 -27.0089 -13.8157
27.6313 19.5900 19.9176
10.0129 -13.1229 -35.6581
-2.4618 36.7606 -13.6588
-4.9824 38.9348 1.7955
38.7895 -6.2441 -0.5964
-37.0535 -0.6331 13.0615
-33.0286 17.3116 -12.3849
22.2876 -21.7268 -23.9829
30.5191 7.2199 23.6733
8.1641 -38.3241 2.9289
26.5993 27.4616 -9.0722
-27.6225 -24.4351 13.5607
-24.6795 26.8939 -14.5468
30.8866 -20.4400 -13.1224
-24.9750 -27.8383 12.0519
2.3978 21.4855 -32.8115
22.9341 2.4925 31.8085
-17.5200 -33.0537 -12.0195
-22.4627 15.5586 -28.2369
23.8332 26.2772 16.8955
-9.3676 -0.2656 -38.1595
21.8842 5.9226 -32.0932
-4.0578 -35.0992 17.1916
10.4665 -17.7729 33.4446
-28.8070 17.9645 19.7839
-24.9921 -6.7227 29.5663
10.4688 6.7857 37.2603
38.1618 1.1623 9.2896
33.3561 -14.5048 14.8643
-29.8260 -10.8528 23.1645
-7.4852 13.4944 -36.1364
31.5572 11.6555 20.3042
4.8209 27.8231 27.3240
-25.6746 -23.6253 18.0728
-0.5185 39.2845 0.6544
-35.9983 -13.9449 -7.3234
-9.6233 -19.7185 32.5966
-31.9872 6.8742 -21.7608
27.9719 -23.7500 14.0528
35.3904 -1.4799 -17.0087
-6.5574 35.1371 -16.3204
-7.4651 38.4080 -3.6147
-29.9763 -18.0561 17.8708
6.1233 -36.3146 13.7012
-3.1667 38.5786 6.7554
-11.5818 -12.4161 -35.4355
35.1682 -15.7958 7.5932
-36.7538 5.1889 -12.8919
-27.9566 -22.2569 -16.3409
5.2244 36.5669 -13.3990
27.5468 -22.7783 16.3184
22.2439 -27.5563 -17.0243
-18.5714 -33.3681 9.2541
-32.0060 -13.6548 -18.2519
11.7067 22.8645 29.7344
18.5823 33.3076 9.4482
30.9353 -23.6294 5.3506
16.1960 27.7373 22.6341
0.5546 1.2380 39.2699
20.8202 -30.8339 -12.6396
-13.6299 5.4757 36.4446
38.9195 -0.3847 5.3938
-36.1210 9.3718 -12.3050
-14.2828 -18.0208 31.8625
-0.7697 21.4682 -32.9012
24.6497 -28.0464 12.2377
-25.3471 -12.8699 27.1266
-32.8524 18.9541 -10.2681
33.4436 -20.6184 0.6161
-25.3673 7.7550 28.9884
-31.4783 -11.2258 -20.6655
31.9448 9.0191 -21.0274
7.5171 28.9684 -25.4616
-26.5326 24.0989 -16.1006
37.9875 9.8125 -2.1524
-21.3466 16.6738 -28.4654
32.0385 -14.0330 17.9048
-21.5492 -32.1413 6.8216
-1.0599 -30.8920 24.2596
31.1704 23.4654 -4.6635
-32.5598 -16.6861 14.3319
-12.5300 10.1175 35.8413
-7.7689 4.8588 -38.2100
-6.4811 27.1616 -27.6444
-29.3619 -1.4993 26.0692
-6.1427 37.6932 -9.2445
-32.8468 20.6721 -6.1416
23.9188 -6.6117 -30.4655
-33.6266 -15.6350 -12.9910
-1.8686 -15.4206 36.0927
12.8503 -31.9697 18.8884
12.8744 36.0785 -8.7499
-34.9162 3.2830 17.7214
-27.4563 17.3890 22.0849
17.4429 35.2080 0.3323
-13.8428 35.1158 -10.9189
-21.9659 -13.9585 -29.4386
-24.9059 -8.3637 29.2184
28.3205 26.9482 -3.9636
-11.0958 -12.3475 -35.6145
-29.7410 -21.5436 13.9754
19.3196 -30.9259 -14.6392
-31.2442 16.1056 17.5608
10.8570 -20.2721 -31.8612
27.4777 -21.6762 -17.8629
12.7459 -32.2714 -18.4409
-15.6313 12.0255 -33.9856
-32.1944 -14.7476 17.0292
-17.8080 1.0021 -35.0120
-37.1968 -2.1968 12.4717
19.3791 -3.1133 34.0400
21.9180 -11.1083 30.6623
-25.7149 -29.4222 -4.1285
-21.9796 -30.3856 11.7295
0.2589 -24.5069 -30.7134
19.9955 -4.8672 -33.4732
35.6432 15.8836 4.6088
29.6841 -21.0743 14.7884
35.9484 -7.5566 13.9491
24.9948 6.9324 29.5156
32.3399 -22.2721 -1.4330
-9.4759 14.6100 35.2239
-18.9018 -29.8381 -17.2156
6.7400 -36.6154 -12.5639
1.6703 18.9310 -34.3918
-5.8366 14.7222 -35.9605
15.0398 -14.3725 -33.3347
-29.0409 -15.9092 21.1540
-2.5305 35.0590 17.5622
-1.7411 29.1191 -26.3252
20.6646 -13.4319 -30.6027
-29.6707 -10.1804 -23.6639
5.2063 -17.9892 -34.5435
-5.4381 28.5118 -26.4853
5.4080 -31.6136 22.7003
10.4625 37.7214 3.4058
-9.8445 -24.0286 29.4903
35.2308 17.3309 -1.5499
-22.5284 31.7779 5.1583
-15.4653 10.8484 -34.4544
3.4968 -38.9402 3.9249
-36.0961 4.9294 14.7221
2.7807 2.6268 39.1067
38.6978 6.8088 0.3026
7.1606 -28.8555 25.6915
29.5369 -25.0737 6.5458
-24.2420 -9.2132 -29.5197
5.3359 11.7221 -37.1226
-20.2649 -15.5532 -29.8563
-30.9777 22.8901 7.7711
31.7547 22.2127 -6.4965
22.0358 13.5861 -29.5602
26.9435 2.8586 -28.4578
-25.3801 -5.0421 29.5701
-20.2126 -33.6904 -0.6114
-8.2130 15.8550 35.0019
-30.2325 7.9931 -23.7923
6.3050 -31.1501 -23.1060
-4.1593 -2.6185 38.9848
38.4015 -6.8985 -4.6586
-22.0823 21.9621 -23.9584
-20.3465 -26.5304 20.6428
8.5200 -5.7002 -37.9326
37.3527 -2.2301 11.9903
-36.0035 -10.3266 11.8776
8.1928 18.5215 33.6720
5.6651 38.5108 5.3658
-8.6688 -38.2939 1.5469
15.5619 23.2755 27.5689
