ply
format ascii 1.0
element vertex 1024
property float x
property float y
property float z
end_header
-2.7352 -3.5524 -28.6643
-1.1821 12.6366 26.0895
16.6359 -17.6745 -15.8933
-26.4416 9.6156 -7.0797
10.0455 27.1695 1.6276
-18.4343 -18.7330 12.2879
-27.8016 8.2955 0.0053
0.9489 -24.4735 15.5529
-10.0145 19.7515 -18.7438
3.6364 28.7839 -0.0724
28.1129 7.1623 0.3302
-19.4872 21.0076 -4.5470
22.9646 17.4757 -2.9950
9.9470 23.2853 14.1631
0.7515 15.2176 24.6901
23.7906 2.3750 16.4350
0.8989 3.6461 28.7687
14.4697 22.7878 10.6343
6.7082 -17.7375 -21.9573
21.1410 10.5443 -16.8409
-9.7578 -27.2369 -2.1630
-28.0722 2.8086 -6.7680
26.5772 -2.5785 11.3465
-14.7328 18.3151 -17.0072
-5.3836 -3.2980 -28.3175
18.7118 -0.4494 -22.1678
-8.0689 -5.1490 -27.3884
7.3507 -3.6343 27.8299
-10.1771 23.8765 -12.9647
-24.8567 -3.9225 -14.4395
-22.6110 -1.6502 -18.1041
2.4153 17.3394 -23.1356
-17.8864 21.6690 7.2302
-17.4359 10.9335 20.4498
-16.3200 -20.7474 12.0392
-16.8023 -5.1303 -23.0890
13.5447 -18.8313 -17.4260
23.5142 -0.9555 16.9680
-6.4097 -28.0636 -3.6185
0.7626 27.3850 -9.5511
10.8246 26.7185 -3.2701
-19.4716 -17.4117 -12.6266
18.1016 -20.6310 -9.4040
27.5410 4.0423 -8.1791
-21.6155 -5.1057 -18.6667
-22.5291 -10.6313 -14.8714
0.9335 -23.5644 -16.8994
28.0330 4.6080 -5.8874
-9.1085 18.1294 -20.7389
-5.3139 -25.8459 -12.0622
-0.8889 -9.3555 -27.4486
-11.6803 -23.5592 -12.2588
-22.7729 17.6509 -3.4031
28.0471 6.3108 -3.9088
28.7187 -0.7374 4.0543
-1.7896 -22.9523 17.6560
19.4580 -12.2415 -17.6996
-17.0011 -20.7052 -11.1356
-15.2227 -24.6582 1.4096
28.2062 -5.9451 -3.2873
-11.6401 -4.0082 26.2713
-5.0650 -0.2578 -28.5661
4.1235 -21.5963 -18.9298
24.4959 14.9730 -4.1836
-3.7122 -27.9720 6.7476
-2.3969 12.6351 26.0067
-6.1439 22.5614 -17.1750
-2.2066 -11.8308 -26.3990
-12.6441 -2.6200 25.9809
-27.4700 -3.8150 -8.5197
-28.9878 0.2289 -1.1827
17.9301 -21.7281 -6.9387
4.4857 24.3160 15.1773
17.1240 22.4654 6.6192
9.5888 -12.2334 -24.4978
4.7614 -8.2013 -27.4191
9.1900 26.6022 -7.0433
-26.2203 -5.2713 -11.2450
-7.1851 2.8754 27.9616
-22.7083 -8.2362 -16.0699
-9.3638 -27.3657 2.2757
23.6117 15.2033 -7.2863
-16.8057 19.4065 13.5166
-2.2116 -25.4190 -13.8103
27.4675 -1.1519 9.2709
28.6171 1.3839 4.5705
-3.6797 28.0560 -6.4080
-23.3443 -1.1943 17.1860
20.0930 17.6377 -11.2662
12.8815 -20.2904 -16.2515
26.9807 5.6968 9.0185
-27.2493 -0.7275 -9.9343
-4.7472 -28.3603 3.8600
18.1675 -21.9898 -5.3040
12.8835 25.4844 5.1286
8.4795 -1.4928 -27.7058
1.4858 28.8960 2.1342
-1.1452 27.9786 -7.5915
23.9574 13.5252 -9.2116
5.5368 15.9807 -23.5733
15.2622 -24.4978 -2.9435
11.5287 -18.8381 -18.8137
18.3677 13.6709 17.8178
20.0239 -1.9175 20.9072
-5.2282 -13.4875 -25.1494
21.9489 18.5912 3.7889
3.4473 7.7636 27.7414
21.0529 -13.4139 -14.7847
-22.6716 -15.4928 -9.3656
26.8949 5.9662 -9.1000
-1.7089 -28.2657 6.3143
-16.0414 -18.0534 16.0776
-4.2660 -16.5384 -23.4526
24.1557 13.7242 -8.3600
-19.7581 -0.3319 -21.2426
16.8713 4.9947 -23.0685
21.0645 -19.7993 2.4522
-26.3106 -4.5817 -11.3359
-3.7016 -28.2157 -5.6492
20.1027 20.7176 2.8989
-12.7672 -3.2495 25.8492
26.6785 -11.1377 2.4392
-27.7247 -0.9708 -8.4935
2.6158 26.5623 11.3729
-4.5129 -27.7692 7.0887
19.6182 6.6600 -20.3104
21.2284 -5.5662 18.9767
-1.0966 -22.4208 -18.3807
19.9664 -5.8957 20.2071
4.9635 -25.3585 13.1929
-0.6064 -0.1559 -29.0060
-18.9218 19.8664 9.4359
-6.7169 27.4122 6.7227
-21.7649 5.6029 -18.3477
4.8916 26.7378 -10.1443
-15.8004 19.8181 14.1185
-18.6356 7.6323 20.8855
-13.8023 -14.5492 20.9657
1.0190 28.9064 2.2634
-15.0725 -21.6736 -12.0341
18.4126 -17.5984 13.8929
27.1613 -4.9658 -8.9076
-16.6669 -15.5396 -17.9577
-17.2822 22.4003 6.4263
17.5145 21.5582 8.3802
-8.1253 27.3561 5.2312
20.9444 -18.8716 -6.8512
1.2329 -28.0620 7.2627
7.6053 -20.2014 19.3857
-19.7992 20.4278 5.6955
-15.8219 -4.8054 23.8394
2.6720 28.4023 -5.2832
10.8938 -26.8894 0.1721
26.2378 -11.6243 -4.2657
18.3971 -22.3752 1.6243
12.1833 -25.7298 5.5934
-11.7750 13.1546 -23.0228
-6.9546 -2.7296 28.0344
-28.4161 4.5791 -3.6466
17.5933 10.4667 -20.5589
-27.2385 -1.3586 -9.8974
24.8904 -12.2276 8.5262
6.2428 5.6262 27.7690
-20.4915 -4.7558 -19.9806
20.9618 14.4616 -13.8999
-27.3363 0.9091 -9.6769
4.6920 28.3850 -3.7441
-20.1173 -6.8549 19.7496
-27.4079 9.3257 1.8919
-5.4789 -27.9183 -5.6827
-17.6128 20.2717 -10.9813
-20.8476 2.7787 19.9850
15.0220 -24.6791 -2.6499
-13.6906 24.5491 -7.1867
-18.8632 -10.1344 19.5759
0.0380 -27.1109 10.3316
7.2997 3.2713 27.8883
12.1439 12.9079 22.9707
21.4747 3.0149 -19.2741
14.5014 11.2082 -22.4906
16.2618 -18.6751 -15.1174
26.2852 11.2386 -4.9524
-9.4624 -5.0029 -26.9662
-19.3658 -18.5644 -11.0486
-4.5839 26.9528 -9.7095
16.8258 19.8783 12.7862
10.3573 -24.6670 11.2253
-9.7822 8.4076 25.9878
2.7016 11.7519 -26.3882
24.3804 -15.7254 -0.2190
3.4027 -28.7572 -1.7849
-25.2323 14.2161 1.7249
26.0864 11.3488 5.6963
9.6776 -21.3347 -17.1148
16.3416 -23.0250 6.6741
-13.6380 12.6125 -22.2861
-16.2418 20.3057 12.8696
5.8015 -28.3394 -2.2279
23.1069 -13.4117 11.3109
12.2288 26.2930 -0.9367
27.9076 5.6296 -5.5871
28.9768 -1.1733 0.8425
-14.9644 -10.6508 22.4582
14.1319 0.9419 -25.3208
21.2521 -10.5694 16.6847
-8.4511 10.9575 -25.5001
20.0962 16.1083 13.3569
-1.1937 10.7445 26.9235
-21.3664 -9.0554 -17.4133
-6.2481 16.9436 -22.7072
2.6844 -27.2332 -9.6379
23.2284 11.7029 12.8541
11.5251 17.3608 20.1871
-21.3338 -0.1313 -19.6620
-8.3881 9.1019 26.2400
1.7389 -28.4227 5.5561
20.6999 -17.4682 -10.3981
-7.7428 -17.9659 21.4247
-28.7723 -1.6491 3.3430
17.1571 -16.0602 17.0132
-5.9043 3.7885 28.1519
21.5093 -14.6796 -12.7907
16.7793 -12.0853 -20.3505
-19.7922 -18.5408 -10.3078
-0.0034 -26.5578 -11.6801
11.7077 -17.8842 -19.6171
6.6370 -20.0969 19.8446
3.1167 -27.2162 9.5555
-25.3663 8.6322 -11.1256
17.2813 -4.3595 -22.8931
-27.5090 -5.9179 7.0694
9.2177 26.3791 -7.8051
10.9748 23.1475 -13.6194
27.4993 9.1787 -1.1335
-10.2581 -23.9130 12.8329
24.8484 -14.9281 -1.2055
15.1366 -23.6021 7.4542
24.7019 15.0988 -1.8938
17.7113 -22.3380 5.3911
2.6395 -9.3905 -27.3239
5.3201 -1.8661 -28.4597
20.3856 -20.0973 4.7189
26.2926 -8.9052 8.4343
-2.9315 -21.8559 18.8539
-5.7079 7.0870 -27.5488
2.3039 6.7797 28.1153
10.3582 24.1875 -12.2235
-14.2941 17.9440 17.7604
-13.7401 -7.8103 24.3301
15.1749 3.9515 24.4101
-17.9649 -22.7803 0.2527
13.5588 8.2869 24.2740
5.5386 -0.9258 28.4642
-26.3299 1.2971 -12.1159
-4.0991 26.7579 10.4382
19.5219 -20.7569 5.4580
-2.4056 -20.8203 -20.0617
17.1898 23.1418 -3.2728
-12.6066 -7.0006 25.1755
17.5956 12.7597 -19.2178
-24.0811 5.2046 -15.3217
18.4703 -11.5633 -19.1541
-8.1423 -27.5334 4.1660
12.5308 21.2351 15.2902
-28.3320 4.2555 4.5750
26.9248 -10.6233 -1.9854
-22.6955 -17.0591 -5.9703
-11.7762 21.9374 14.8935
-18.4674 16.3394 15.2879
12.0769 -15.5099 21.3386
-7.6479 9.4163 26.3550
-19.2476 20.3526 -7.5527
-18.9121 10.6893 19.2305
20.1611 12.7738 16.4955
-22.2670 -8.9428 16.3079
11.6057 13.4277 -22.9510
-26.1986 10.6744 -6.4370
18.6639 20.9360 7.4218
-8.7383 -24.5886 12.6801
1.8368 20.8161 20.1260
-4.2499 6.8986 -27.8584
24.2017 -13.5268 8.5467
24.3164 7.0024 14.1924
0.4030 -2.3297 28.9163
-0.6417 -24.7817 -15.0731
26.6034 -5.6625 10.0964
-1.9471 -26.3888 -11.8988
2.9294 28.8131 -1.7216
-23.6265 -16.7349 -1.8637
3.2363 28.8292 0.3817
24.4171 9.5323 12.4371
-2.8036 -19.0999 -21.6582
-11.2016 22.1949 -14.9551
7.2964 10.5600 26.0190
24.9613 -6.3843 -13.3386
-3.6510 -23.6482 16.4066
-8.6665 24.4641 -12.9670
-7.1781 22.7370 16.5302
-8.2052 -22.3670 16.5570
20.5964 -0.9092 -20.4133
15.2090 5.7731 -24.0229
2.8044 -2.6828 28.7520
23.7131 11.1305 12.4717
4.8601 22.3058 -17.9045
-15.4780 -23.7564 -6.1489
17.0573 5.2790 -22.8675
20.2376 18.4715 9.5385
-7.5286 -6.4432 -27.2681
-20.3244 -17.8587 10.4752
-19.4671 -0.9349 21.4919
12.7053 24.8372 -7.9644
-19.0889 2.8043 -21.6678
10.8717 9.3980 -25.2037
-0.4159 25.1476 -14.4627
7.4628 13.9665 -24.3102
-20.1520 -13.5880 15.8432
-23.2320 17.1732 2.6640
-4.4908 16.4958 23.4407
27.1573 -7.9392 6.4183
-15.6430 23.3126 -7.3184
-13.5892 -25.1532 4.9386
9.0162 -0.0496 27.5762
15.1215 15.8047 -19.0603
28.7433 -1.9449 3.4326
-18.8834 21.4895 4.8331
-18.5175 -17.9603 -13.2768
21.1185 7.4753 -18.4357
20.0275 3.8893 -20.6280
22.6842 -12.4171 -13.1524
4.1402 -6.7765 27.9048
3.7545 20.9494 19.7172
28.2793 -3.8338 5.2274
-8.7401 -23.4855 -14.6213
-9.5568 -1.7240 -27.3393
-1.0809 -26.5248 -11.7051
-20.7655 -15.7519 12.7442
1.8405 -19.6012 21.3108
20.4793 -1.0567 -20.5238
4.5988 3.8275 28.3891
-21.7559 11.5624 15.3210
-16.7768 22.0293 8.6598
-8.0450 -25.5295 -11.1922
-20.2590 4.7077 -20.2275
-4.0149 10.4274 -26.7748
17.8907 18.3631 -13.5817
-0.9956 2.7292 -28.8670
-18.8418 16.5190 -14.6236
5.1296 26.3208 -11.0745
-19.6178 19.6181 8.4861
19.9203 -12.2603 -17.1642
-17.6821 7.3447 21.7977
-1.5984 11.3416 26.6563
24.4970 5.3719 -14.5871
28.2821 5.7695 -2.9290
24.8685 -3.8350 -14.4428
12.1896 26.2764 -1.6460
21.8052 -14.9825 -11.9080
11.7419 -18.3576 19.1538
28.3302 0.8360 -6.2001
-19.7334 17.5901 11.9550
-20.4972 -18.7315 -8.4105
6.4994 27.6734 5.8037
24.4008 -5.0621 -14.8566
11.8750 13.5963 22.7127
14.6797 16.7050 -18.6331
-13.0097 -16.4741 20.0274
28.3084 0.9102 -6.2890
1.6671 27.2837 -9.7243
16.9321 -6.2204 22.7234
-17.5685 9.1809 -21.1849
27.6575 5.9360 6.4474
-5.6297 -26.0497 -11.4656
-22.8790 7.9089 -15.9920
22.7677 1.3083 17.9349
-9.7669 -27.0233 -4.0114
16.6099 0.5861 23.7805
15.7631 -23.6407 -5.8641
-16.3181 -6.7564 23.0177
-21.5639 -14.0162 -13.4270
-0.9899 -1.9024 28.9334
1.2010 26.7094 11.2652
-23.5066 0.0275 17.0053
23.3628 1.3739 17.1474
13.8898 14.5450 -20.9107
20.1510 -19.9337 6.1910
-0.7714 -26.0286 12.7930
-13.8173 23.7837 -9.2281
-8.6743 -26.4218 -8.2698
19.7893 14.8345 15.1679
2.4440 -7.7948 27.8390
-24.3463 -12.9741 -8.9817
18.2798 -21.0449 8.0438
-21.3443 19.4704 2.6584
-14.4474 19.8141 -15.5055
-2.4306 14.4084 -25.0646
11.7472 -20.6682 16.6304
20.6437 -20.3062 1.7993
-15.2601 -22.9349 -9.1027
2.3416 -6.0149 -28.2857
1.8647 28.5469 4.8313
-19.3635 21.6031 -0.3253
-20.8697 1.3716 -20.1076
-26.8767 -1.9258 -10.7552
21.0132 -17.4041 -9.8632
24.7260 7.2338 -13.3432
-20.0394 20.7955 2.7773
16.1639 -4.7218 23.6258
24.8390 -14.2417 -4.6843
-15.4830 24.2014 -4.0384
5.2824 -26.5595 -10.4131
-27.3580 2.9674 9.1912
16.6373 21.5892 9.9422
-28.9494 1.9169 0.0255
21.1784 12.7282 15.2055
24.0909 7.3549 -14.3971
-21.1157 11.5996 -16.1655
-26.2958 9.5706 7.6599
-21.3359 13.8375 13.9659
14.7544 22.3681 11.1228
-14.0673 18.3611 -17.5135
20.5877 19.9329 4.5352
11.3359 -22.8494 13.8256
-10.5799 -26.8879 2.6172
-1.7137 -1.3191 -28.9321
2.0589 -23.4204 -16.9997
24.4939 13.0595 8.4403
0.3515 -12.2850 26.2811
-0.4780 16.9702 23.5271
-9.4828 -19.9938 18.7634
9.5860 3.0892 27.2086
23.4244 16.8060 3.2559
5.8942 -23.5264 -15.9219
-2.3230 -28.3732 -5.5952
6.1878 -27.9469 -4.7357
-25.5895 6.2248 12.1726
7.4628 -16.3992 22.7402
16.5667 -19.3831 -13.8413
-14.0820 1.4258 25.3260
-11.7450 -26.4831 1.5622
-0.6247 -10.7857 26.9262
25.7137 -11.9087 6.2236
-15.7101 -23.6228 -6.0745
11.1552 -26.0108 6.3829
-16.6962 -20.5647 -11.8352
-10.7934 22.7211 -14.4567
3.1786 -18.2523 22.3270
18.5852 19.6120 -10.5689
-28.5706 -4.9749 0.8435
-24.1944 13.0222 9.3164
11.7007 -26.4417 2.3824
-4.5317 4.1056 28.3611
17.6846 -3.6829 22.7032
12.6478 22.6720 -12.9520
-3.9209 -9.9910 -26.9546
-7.6772 -15.8445 23.0598
-11.4867 -26.6417 0.1417
-17.1378 -23.1046 3.7704
-3.9671 -16.7172 23.3782
26.0315 -2.8981 12.4782
-4.4417 -28.2920 -4.6452
16.0613 4.6532 -23.7092
-4.1461 28.6337 -2.1593
14.1770 -23.7937 -8.6379
-4.7777 -26.0599 11.8235
-18.4092 17.7874 13.6547
-2.1287 16.5290 23.7487
25.1147 14.4162 -1.7802
8.6997 7.2373 26.7148
-10.8024 -24.5446 -11.0731
6.9722 18.5505 21.1898
18.7365 -18.9362 -11.4937
18.2755 15.1195 -16.7078
9.4605 -6.2897 26.6961
2.7842 8.6256 -27.5606
18.0599 -2.5321 22.5648
-5.6448 -2.2434 28.3698
-9.9004 -27.2665 -0.5157
-13.2995 -4.9801 -25.2995
26.6390 -10.2323 5.2348
10.5650 -19.0374 -19.1755
26.2877 9.5182 7.7527
-8.2436 -5.3210 -27.3033
0.8301 9.2160 27.4976
-17.7133 -21.5197 8.0551
27.7865 0.0910 -8.3454
-5.1752 27.6664 -7.0378
3.9098 -27.4725 -8.4685
3.3328 21.4521 -19.2469
25.6769 13.0645 3.4291
-13.6278 -24.8089 -6.3675
22.9113 -7.8207 -15.9892
-25.7163 10.6954 8.1253
12.7397 -15.5330 -20.9325
-25.5617 5.5436 12.5544
-23.5442 8.3946 14.7289
-7.8182 -0.8250 -27.9274
14.5051 8.2503 -23.7335
8.3421 -27.7359 1.6941
-26.8818 2.1308 -10.7037
-2.3852 2.8621 28.7726
9.2508 -4.2286 27.1714
-8.5082 5.3411 27.2181
20.5291 6.3091 -19.5062
-13.3389 13.3449 -22.0393
10.3496 11.5881 -24.5019
-14.2732 21.5802 -13.1268
-3.5802 26.2128 -11.9086
-25.6520 -13.3799 2.1672
-14.6605 -14.9186 20.1059
-16.1746 11.0552 21.3988
-21.4198 4.2656 19.0981
-16.4700 19.2313 14.1648
-28.9507 -1.3718 1.3113
26.0751 12.1015 3.9222
-15.2243 -4.9606 24.1941
-24.3144 -4.1275 -15.2812
14.0718 17.0633 -18.7769
15.8561 21.3084 -11.6738
-7.7755 -4.7565 27.5438
3.5157 -22.5201 17.9506
9.6903 -23.8493 -13.3809
-25.6978 -12.5435 4.9018
21.3571 -11.7071 15.7658
-17.9374 -1.3877 22.7611
-13.4039 -6.4130 -24.9189
15.2726 23.1969 8.3900
4.5418 -8.1953 -27.4582
8.1063 25.0377 -12.2124
27.5101 -8.0252 4.5313
6.8791 -22.3222 17.2087
-11.0027 17.6362 -20.2397
25.3852 -7.4652 11.8999
-13.4368 25.6192 2.2024
4.1845 -28.0663 6.0429
12.3234 -21.2127 15.4886
-10.8932 6.0477 -26.2013
0.4727 28.6821 4.3426
1.0974 4.0247 -28.7113
1.1714 8.7402 -27.6402
16.2931 22.0166 -9.5681
7.2082 22.5967 -16.7085
-14.5776 -16.0946 19.2406
26.7163 9.5200 6.1113
24.2217 -12.6774 9.7126
11.3539 8.8599 -25.1860
9.2538 -15.7676 -22.5275
20.6560 20.2502 2.2364
-3.6955 17.9111 -22.5228
10.5156 16.8882 21.1176
-17.4831 -8.1603 21.6678
26.7955 -1.1423 -11.0653
-2.8332 -27.7774 7.8823
7.6838 -21.1281 -18.3386
-9.2169 -26.5915 -7.0486
18.1912 -22.4522 -2.5927
-11.3170 11.8431 23.9460
14.0988 -16.1489 -19.5494
19.6795 8.2127 19.6726
-25.0713 -12.4789 7.5795
-8.4525 -21.7317 -17.2636
-13.2806 17.0896 -19.3214
-4.3280 -25.1195 -13.8572
-15.9689 0.4150 -24.2191
19.8821 -15.3848 -14.4829
-12.9504 -21.6726 -14.2944
15.3110 -24.0604 -5.3303
23.3094 -16.8025 -4.0112
14.0175 20.8522 -14.5065
8.2604 -21.3743 -17.7946
-2.8227 -9.8815 27.1317
-27.2350 4.7046 8.8241
7.4436 -5.7118 -27.4538
14.5700 4.6628 24.6519
28.9664 -0.9744 1.3184
-28.4419 3.2539 -4.7131
17.0722 -21.2276 9.9835
-22.1809 -9.9819 -15.8150
-28.5867 0.5146 4.9273
6.2953 -24.9892 13.3285
-27.8443 -8.1432 -0.3501
-5.7368 28.0535 -4.6727
-19.8324 19.0733 9.1995
3.7632 6.0606 -28.1221
22.5946 -17.6448 4.4595
23.4826 14.6409 8.7150
13.3756 19.9688 16.2507
17.2224 7.8368 21.9936
4.4662 -28.5014 -3.0766
-9.0026 -25.5922 10.2826
-2.6345 14.2583 25.1297
8.1436 21.8815 17.2227
-23.2045 16.7667 -4.7084
17.1633 8.5349 -21.7788
-7.8487 12.9505 24.7472
26.5235 -9.3985 7.0651
5.5004 -18.0449 22.0424
3.0426 -6.9658 -27.9993
-10.1691 1.1867 27.1463
-12.7894 24.3860 -9.1376
15.1436 23.7471 -6.9634
-9.3283 1.6672 27.4216
2.3820 0.6331 -28.9079
-10.9751 -26.8568 -0.0213
-20.2295 20.6896 2.1094
-13.6118 -5.3964 -25.0468
23.0744 11.8667 -12.9806
14.3608 5.5750 24.5851
-5.4246 -14.5608 24.5010
10.7968 -21.2216 -16.5776
-19.7704 -17.6969 -11.7343
22.5606 -7.9047 -16.4401
-1.1725 6.9421 28.1456
-9.5236 25.9435 8.8305
16.9214 23.0154 -5.0692
-4.0335 18.4439 22.0294
-5.0722 -2.2438 28.4777
-21.2188 -18.3948 7.2894
-21.1511 -12.1007 -15.7462
-1.1484 17.9055 -22.7995
10.9769 -5.9184 -26.1959
0.1240 -18.3589 22.4651
15.0238 -24.6827 2.6067
-23.4269 10.8204 -13.2605
5.4282 -26.0941 -11.4620
21.1599 -7.2608 -18.4738
3.4228 -0.7147 28.8013
8.7407 -24.1577 13.4814
-26.7366 -0.9364 11.2259
-24.3544 3.9652 -15.2604
-21.7298 -13.4753 -13.7104
-8.0280 3.2817 27.6862
-2.0393 3.4466 -28.7351
6.1971 -26.2801 -10.6157
-10.2844 2.5266 27.0109
4.6736 -16.8175 23.1748
-15.7460 8.4725 -22.8478
9.6907 -26.6953 5.9325
-27.0822 3.8903 -9.6522
23.6491 -8.0618 14.7469
-7.1800 23.7042 -15.1097
2.3082 28.1267 6.7308
-28.8370 2.9632 1.1790
27.9563 6.8627 3.6180
4.3452 -13.3889 -25.3693
-14.4640 -23.6193 8.6409
12.3412 -22.6494 -13.2832
-2.2112 27.9195 -7.5734
-7.4846 1.9868 27.9603
0.6093 28.6631 4.4493
11.1127 -26.6963 -2.3573
13.4096 12.5720 -22.4471
-25.0761 -2.7540 14.3299
10.0216 -2.4838 -27.1135
-24.3821 -1.5216 -15.6505
-17.3077 -23.2810 -0.4251
-6.2480 23.1484 16.3357
-19.4979 -15.6214 14.7494
-14.3833 5.0471 24.6858
18.2592 17.8659 13.7533
16.6021 22.6404 -7.3161
-0.3699 -2.9735 28.8577
-21.4301 9.7260 -16.9676
-11.8490 -23.9678 11.2645
-17.0808 -21.7110 8.8670
-1.2304 19.2788 -21.6461
13.8563 -25.3274 2.8759
0.7952 6.6149 28.2374
16.7471 -9.4206 21.7378
28.6551 2.7772 -3.5939
5.6270 -25.4527 12.7374
7.1425 21.6151 -17.9865
3.5733 4.5121 28.4362
-4.1596 28.0733 -6.0275
14.5121 -21.8604 12.3800
18.3607 0.2766 22.4622
-6.5825 -21.3096 18.5557
11.8531 -14.6234 -22.0772
-5.6603 28.4313 1.1673
23.8310 -13.6576 -9.3431
2.1866 -21.4240 19.4415
9.5876 -27.2624 -2.5659
6.2477 -10.3660 26.3677
26.2951 -5.0713 -11.1621
12.3920 17.8960 19.1811
26.9719 6.2003 -8.7072
10.1704 5.6982 -26.5676
16.5743 8.2741 22.3288
9.5016 -21.1701 -17.4152
23.8578 -12.5233 -10.7571
13.6453 -11.1108 23.0673
22.4858 4.6507 -17.7343
-16.3748 -2.1090 -23.8571
-12.2720 26.1778 -2.4215
13.2590 -24.9023 -6.7687
8.9449 26.7925 6.6252
-17.1728 -22.7978 -5.2054
-26.1487 -11.6167 4.7998
-10.9166 -25.9677 6.9461
-9.0305 26.4023 7.9444
18.0027 22.4914 3.4323
-6.4226 27.1490 -7.9639
-25.7202 -12.6183 4.5820
1.1445 -27.4248 9.3975
-26.0972 -11.8233 -4.5704
3.4227 -25.1100 -14.1250
-26.8212 -3.5612 -10.4730
13.2740 9.9335 23.8091
-15.5080 -15.3092 19.1539
8.0716 -24.9205 12.4724
7.2129 -23.3367 -15.6561
-25.4117 8.3222 -11.2573
16.7394 -12.5521 -20.0992
21.0903 -15.3924 -12.6496
17.3337 -19.5284 -12.6461
18.2886 16.6482 -15.1693
-1.4565 -23.7455 -16.6064
-15.9840 -21.8236 -10.4874
19.6561 16.2165 -13.8711
16.7958 12.3961 -20.1489
20.7844 8.8112 -18.2240
-5.7592 22.8241 16.9597
-26.2417 -11.4471 -4.6991
24.1380 -12.8799 9.6543
-24.7459 15.0358 1.8190
21.0490 14.6768 -13.5378
23.2944 17.2023 -1.7876
-0.7698 -20.4879 -20.5279
26.8271 3.2408 -10.5616
19.5631 -11.1243 -18.3106
23.6297 -16.7317 -1.8511
-8.6587 11.5921 -25.1474
0.7126 25.7876 -13.2753
-6.1442 -3.4625 -28.1425
-3.0350 -28.1852 -6.1746
-0.7643 -24.4334 15.6258
-5.9404 -28.0811 4.2314
-9.5969 21.1349 -17.4057
-1.4019 25.5719 -13.6329
8.1906 10.8676 -25.6233
-17.4413 -3.2862 22.9509
12.5346 5.8298 -25.5076
-26.8253 7.1673 -8.4130
11.1969 10.3721 -24.6737
-9.1599 23.9745 13.5300
28.8497 1.7554 -2.5210
27.3116 -8.7798 -4.3279
7.8023 23.5701 15.0105
11.4255 26.0522 -5.6993
8.2044 -0.4355 -27.8252
5.2030 -27.1012 -8.9552
-4.7851 -28.2082 4.8106
19.8405 18.9248 9.4843
-1.9621 22.1293 18.6597
-12.0981 -18.1564 19.1239
20.8123 20.2087 -0.4482
-9.7039 -20.7762 17.7743
16.6782 -11.8105 -20.5935
26.1848 0.3528 12.4890
27.3369 9.7155 -0.2186
-16.9399 9.0987 21.7255
-20.9870 -15.8668 12.2283
1.6204 -6.7514 28.1698
-18.9726 -19.8792 9.3059
-5.6478 -14.4495 -24.5164
2.1167 -11.2496 26.6591
-22.3853 8.9992 -16.1139
-6.8254 9.2651 -26.6329
-25.6679 4.4969 -12.7546
8.6656 3.8818 -27.4150
12.2286 9.0982 -24.6866
28.7781 0.7273 -3.6101
24.7837 8.7570 12.2811
18.4183 -22.4147 0.2941
0.8357 10.7547 -26.9329
18.6935 -3.5532 -21.9014
-5.9905 -26.2630 10.7755
-6.8065 -26.0112 10.9009
-17.8116 -18.6856 -13.2415
27.6507 -0.9515 -8.7336
23.8546 5.3563 -15.6208
-26.7494 10.5747 3.7931
3.7637 -16.7303 23.4024
20.6955 -12.4475 16.0778
1.3602 -11.2522 -26.7073
-23.8280 -5.3491 -15.6638
5.8772 12.3458 25.5887
1.5391 12.4517 26.1597
-12.6943 14.8076 21.4786
19.7650 -21.1582 1.8493
-25.9595 4.8060 -12.0311
-13.8106 9.3384 23.7445
-23.6892 4.1967 -16.2158
-24.8103 8.8687 -12.1466
4.0905 -28.7105 0.8475
-7.4853 -4.9928 27.5823
29.0040 0.7001 0.1439
7.5533 -27.9976 0.9084
-1.4938 -18.1062 -22.6203
14.5983 1.6121 25.0206
24.5292 10.4272 -11.4601
14.1725 25.3077 -0.6362
-5.4829 -4.0394 -28.2022
12.4447 19.6207 17.3753
28.7554 2.1738 3.1848
27.2316 0.4903 9.9970
-1.6157 -20.3899 -20.5763
15.9059 20.2920 13.3034
-2.6466 1.9199 -28.8280
-7.7777 -18.0549 -21.3370
8.1926 -22.5380 -16.3299
-23.1408 2.4951 17.3211
12.3602 -20.7170 -16.1175
-0.9440 21.7653 -19.1604
-16.0106 -12.4874 20.7236
21.7431 -17.1638 8.6245
-21.8271 13.3522 -13.6761
7.3192 -6.3259 27.3524
12.3073 26.0452 -3.4524
-2.1985 -28.9212 -0.6893
-9.9858 15.6348 22.3065
-22.5880 -7.0872 16.7718
-17.1845 -22.1235 7.5491
-26.9679 -10.6734 0.7452
-13.9172 25.4467 -0.7193
-25.9330 -12.6019 3.2273
3.7310 -22.5997 -17.8067
26.8086 -5.5704 9.5922
9.0961 27.5479 -0.3401
4.8204 28.5918 1.0075
-19.4732 1.2426 21.4707
-27.3489 -3.5884 -8.9945
-10.2062 17.0292 -21.1561
-12.3280 -24.1244 -10.3816
-17.2444 11.7313 20.1681
-9.6572 -26.6492 -6.1887
28.7858 -3.3617 1.3489
28.0055 -7.4453 1.4144
23.9802 4.5582 -15.6817
-11.5677 8.4809 25.2192
-5.8149 -1.2172 28.3980
-9.4436 5.0099 26.9715
26.4183 -2.2603 11.7775
20.1741 -20.1367 -5.4093
-20.6139 -19.7795 -5.0576
-3.9661 1.2452 28.7134
20.9421 11.5455 -16.4278
9.5381 -25.0002 11.2142
-9.5779 18.6340 20.0694
-10.0663 -27.1622 1.6209
-28.5894 3.9117 3.0146
12.1867 -25.7254 5.6064
-13.3713 -8.7447 24.2174
-11.8402 -8.1057 -25.2161
5.1020 27.4095 8.0269
6.9029 -27.8975 -3.9779
-5.4004 21.3225 18.9190
-22.2015 5.6501 17.8021
14.0219 -24.3527 7.2163
10.6486 -14.6007 22.6973
-21.9956 -17.7675 6.5000
2.7430 24.4809 -15.3265
-12.8991 23.1195 11.8678
17.1773 -12.6847 -19.6413
24.1728 15.6953 3.3278
-20.5028 -20.4877 -1.2777
-19.5195 -18.6441 10.6362
-10.7216 -26.9583 -0.2015
3.1344 -27.6207 -8.3074
-21.6495 -18.4914 -5.5777
-10.8732 -7.6496 -25.7876
9.1416 25.5285 -10.3184
21.2435 -9.1086 -17.5354
-27.2869 3.7028 9.1356
-10.2431 -16.8350 21.2933
8.2725 -27.6231 -3.2050
-12.2965 24.3805 9.8045
-20.9223 19.9172 2.7025
-0.5044 27.8822 8.0046
22.0735 -18.2442 -4.6536
19.3204 -0.3845 21.6407
-17.7146 10.1732 -20.6020
-7.0994 27.1186 -7.4781
14.7295 -6.4358 24.1530
9.1872 -24.5196 12.4952
15.3172 -3.1341 -24.4398
-9.0799 -13.7331 -23.8894
24.6124 -5.8064 14.2217
-26.7667 2.6173 10.8829
7.8534 -3.2582 27.7390
11.9912 26.4187 -0.0922
8.7948 -21.5333 17.3410
-4.2862 -28.5983 2.3467
22.8756 -3.1973 -17.5564
19.8466 -10.3371 -18.4662
-14.1190 22.0850 -12.4358
-22.8637 -2.3931 -17.6993
16.8895 22.5547 -6.9118
-14.1410 -15.1810 -20.2808
-23.8694 11.4111 11.9072
-5.3569 -7.2792 27.5692
14.6673 22.9114 -10.0838
-2.9161 -23.4149 16.8813
-13.8968 8.9661 -23.8376
-1.1985 6.6688 -28.2105
-11.3500 -9.5291 24.9422
-9.5537 -18.4640 -20.2374
-24.2099 -15.6848 -3.0998
-8.5708 2.2286 -27.6282
26.0362 12.6243 -2.1177
13.5942 18.4108 -17.8321
-3.5734 2.6593 28.6688
-10.8087 17.2979 20.6324
23.2531 8.0888 -15.3495
-21.2756 1.3584 19.6786
-6.2425 -28.3245 0.7031
21.0613 -11.4976 16.3085
-21.6930 -13.0868 14.1383
-13.7281 -24.5174 -7.2236
-19.4375 18.6847 -10.7149
-11.3270 23.6552 12.4045
-9.4598 5.3775 26.8949
-13.6239 9.7095 23.7035
6.6942 -27.9329 4.0846
-28.5973 4.8005 -0.9447
28.0633 7.3509 -0.3973
17.1597 23.0997 -3.6997
8.3567 11.2084 25.4220
-2.8022 24.1859 -15.7776
-15.0583 17.4111 -17.6590
19.5752 -7.7857 19.9483
16.5454 -14.1050 19.2104
13.9627 17.8154 -18.1493
3.8776 -0.3953 28.7498
-28.1724 -1.1515 6.8362
15.9497 23.8600 -4.2483
5.7388 -18.0612 21.9682
5.6823 24.0847 15.1453
-15.3838 -9.1134 -22.8480
3.1319 12.0704 -26.1962
9.2322 -24.7374 12.0238
-14.3463 -4.4401 24.8236
-6.7679 5.4936 -27.6723
7.5685 -6.9526 -27.1316
-3.1523 28.2763 5.6796
-26.1654 1.8397 -12.3988
-14.3979 -11.0938 -22.6135
13.7593 11.1311 22.9896
-19.2262 -16.9735 -13.5644
5.1226 23.3073 -16.5007
15.3858 -22.5531 9.8172
1.9084 28.6917 3.8586
3.1215 -14.6166 24.8667
22.4587 -1.9276 18.2656
16.9029 6.7788 -22.5850
-20.6734 12.9140 -15.7348
15.8140 -12.9771 20.5732
25.2122 11.4912 8.6045
-27.9732 7.2438 -2.6017
17.2982 18.3045 -14.4034
-20.5625 17.4738 10.6580
16.0244 22.8100 -8.0416
-12.1899 -13.3810 22.6737
18.5038 19.8724 -10.2195
24.4514 9.2754 12.5634
25.6877 12.1850 -5.7801
7.6352 16.8164 -22.3753
14.2118 -21.2043 13.7894
-2.0987 12.2996 26.1927
-23.4729 15.1250 -7.8741
21.3435 -19.6433 -0.5843
-13.2258 -25.7105 2.4060
6.9651 -12.1586 -25.4047
-21.9309 13.4653 -13.3964
11.6597 21.8107 15.1686
-6.6618 -12.1047 25.5115
15.8749 23.6628 -5.4590
-20.7218 -20.2633 -1.3221
15.4041 -20.5566 -13.4864
-18.8183 -19.6677 -10.0397
1.0903 -25.0112 -14.6627
-6.3173 -27.1686 7.9812
7.4518 -27.5446 5.2449
16.7110 -16.8907 16.6490
-5.7249 13.9993 -24.7586
23.2644 17.2988 -1.1244
25.3578 -14.0787 0.7181
-2.4678 -15.4994 -24.4013
-6.3621 -28.0470 -3.8255
-6.2958 -7.1621 -27.4009
-10.2424 12.3134 -24.1912
9.0891 1.4137 -27.5160
-19.0011 -21.9210 0.4082
15.2309 22.7628 -9.5717
-3.5868 -28.3391 5.0768
4.0368 24.1387 -15.5810
8.9923 4.2064 -27.2615
2.0184 7.7503 -27.8855
-7.3851 -22.2589 17.0805
-9.4829 24.1678 -12.9511
-18.2573 8.5647 20.8581
-15.2102 -1.7460 -24.6443
3.1868 26.5020 11.3680
16.5480 -22.5273 -7.7734
13.3624 -24.9093 -6.5357
-26.5653 10.1254 5.7883
-17.0757 -19.5583 12.9473
13.9263 20.5564 15.0078
28.3015 -0.6775 6.3488
-17.9165 -22.7244 2.0841
5.5624 3.1300 -28.3020
14.4160 24.9753 -3.1870
12.4536 -16.5847 20.2879
-13.0625 -25.7985 -2.3560
-13.0875 4.6283 -25.4762
-28.1957 6.6119 -1.7394
24.7546 9.2098 -12.0055
-21.2961 19.2122 4.3714
15.2399 -15.4506 -19.2553
-18.6610 -19.4017 -10.8205
15.7082 -24.3568 -1.3204
18.1149 -17.2951 -14.6449
-0.8762 -13.0243 -25.9103
-15.5892 4.6725 24.0185
-19.1114 2.9732 -21.6253
