ply
format ascii 1.0
element vertex 1024
property float x
property float y
property float z
end_header
59.0470 10.2574 -35.4140
8.7651 -57.2401 -38.6349
-31.8657 -56.6987 -24.8142
8.2746 49.3189 -48.4261
2.4770 32.3803 -61.5735
69.5940 -0.6942 -1.4505
-23.3762 45.1819 47.5190
-21.1681 -5.0090 66.1266
64.6643 -25.0679 -6.0034
38.8446 57.6233 4.0704
-56.6139 28.9784 -28.3026
19.6117 41.2669 -52.5199
58.6541 -20.0019 31.7101
17.2787 -26.7591 61.8975
60.7011 -31.1961 13.7148
-12.0173 41.4698 54.6054
33.9902 -53.4196 -28.9295
-16.4804 62.2373 26.4730
34.3731 -51.0144 32.5874
50.0924 -46.8139 -12.0463
56.1064 -2.1923 -41.1483
4.1404 -26.6902 64.1592
-1.1588 -6.6074 -69.2886
47.7040 50.3651 -5.7956
17.0525 -60.1773 30.5585
40.2949 50.7869 25.3559
17.0739 62.8078 -24.6894
61.7909 13.4371 -29.1074
24.7601 -19.1483 -62.1787
57.3989 -38.1649 9.7323
2.6101 -20.4826 -66.4798
-41.8449 -33.9247 44.0912
62.9749 14.1497 -26.0742
-62.1097 22.6616 -21.7888
30.6097 -20.3163 -59.1287
-42.4218 -12.3962 53.7832
33.5879 -8.3519 60.3988
58.4760 -37.7669 0.3597
0.6893 -11.5315 -68.6474
-31.1064 52.4759 -33.5347
27.3513 52.8875 36.0656
8.2449 16.6177 67.0953
62.8538 29.2791 6.1682
-50.7109 -38.1920 -28.5601
54.1813 -15.2553 -40.9582
20.4482 46.3513 -47.7424
19.8314 34.9661 56.8331
24.1477 -27.8465 59.0540
-41.6298 -5.8151 55.4892
-31.7800 45.3877 -42.1414
-41.6508 19.6703 -52.1939
-46.2847 -35.8119 37.6981
42.5088 -37.7254 -40.1959
0.5754 -57.2057 39.6621
29.0871 -18.1840 -60.5738
40.8495 20.2241 52.6138
15.0601 -67.1920 10.2146
-1.7808 44.0556 53.8687
-61.1744 33.2166 -0.5076
-51.5778 -15.1352 -44.2331
-22.4941 -34.4490 -56.1533
-29.4922 -53.8304 -32.8391
59.3997 -33.7418 13.3821
23.6154 -28.3477 59.0308
41.0394 41.7228 -37.6946
53.7118 -11.7320 -42.7002
-48.4212 48.2603 13.1240
-27.4904 -5.7887 -63.6920
-57.6723 -12.8242 -36.8152
20.6362 61.9196 -24.2079
41.1157 56.1712 -0.4519
-0.3343 58.2458 -38.1212
-31.1996 -62.2196 1.0996
-57.4779 13.6432 -36.8247
54.2271 -43.4290 4.3887
-2.7566 69.5008 -2.8198
13.0486 -12.3105 -67.2614
3.4935 -69.1573 7.1395
67.6166 10.9314 12.4262
32.9983 -59.5984 -14.3195
28.4982 62.7736 9.6556
45.1730 -23.6109 -47.4113
20.8895 -0.7248 66.4004
23.2551 -9.1380 -64.9739
43.4593 -49.7439 21.9714
-66.6987 19.6207 -3.4954
39.9494 -49.0418 29.0664
-19.8136 61.9828 -24.7277
24.0920 35.5404 54.7939
27.5848 -62.6429 12.6827
-14.4935 36.7136 57.3407
-44.6654 47.9707 23.4462
46.1976 -46.2073 24.0120
-38.9840 -22.2731 -53.1984
20.5289 61.2491 -25.9426
-37.5016 -26.2713 -52.4343
-17.1000 65.8744 -14.6308
55.0495 -34.4398 25.0872
35.9052 56.3511 19.5265
17.8592 16.7994 65.1517
-6.9899 38.7221 57.4252
-28.6268 -58.5913 24.3612
11.1693 67.6256 -12.1629
-6.8554 -68.4784 -10.4701
18.9403 -21.1108 -63.5729
-46.5447 -49.4218 15.3944
26.0213 44.9906 -46.3104
64.0172 -10.1412 25.3941
24.6609 19.0873 62.2368
46.1783 -36.1362 37.5186
59.2227 -22.3063 -29.0001
37.1088 58.7028 -4.7774
-14.9889 -58.0454 -35.3833
37.7469 -41.0318 41.6830
-55.5076 -41.9896 -1.3009
20.5875 -5.1767 -66.2968
-39.5175 -26.3793 -50.8764
-25.1661 -64.3054 -8.7977
-34.3261 36.1860 48.5613
34.7294 -54.5838 -25.6980
31.5673 46.2408 -41.3667
37.0615 -43.6797 -39.5530
56.8421 19.1184 -35.3464
16.9411 28.8585 61.0418
-35.8753 -53.1446 27.1022
49.2593 -48.9733 4.5886
50.7955 -23.8024 -41.2211
-41.8009 -46.6368 -30.3909
0.3524 -60.9991 -33.5395
-51.2598 -46.2449 -8.9304
-32.7629 30.6826 -53.2079
26.8490 44.3183 -46.4858
56.9977 -18.3392 -35.5083
13.3205 -68.2604 -2.9992
5.7356 -52.4112 -45.4541
-59.4997 -35.5326 -6.5675
5.9755 34.3287 60.2639
15.8564 34.7625 58.1898
19.1057 58.7252 32.1284
-8.0344 -67.3274 15.7603
-32.3117 -43.4945 -43.7046
43.0811 -34.2963 -42.5874
56.8905 -30.0608 26.5655
59.5350 -34.1343 11.6769
23.2868 -59.2465 28.1688
-29.9664 1.3157 -62.8187
-15.8960 52.4674 42.8999
-48.0393 13.2642 -48.6024
-65.4266 -10.3204 21.4186
-54.8487 -26.9823 33.3090
27.8622 -55.4607 -31.5233
41.4672 20.0284 -52.2039
-55.4087 -40.9330 -10.0137
5.4315 -12.5445 -68.2572
-50.5814 42.6981 21.5477
60.9410 29.9050 15.4206
52.8983 -45.1685 2.7351
-46.4905 -36.5093 -36.7642
56.5942 27.2761 -29.9837
69.5340 -2.1691 2.4950
21.2422 -65.0966 -12.5343
50.3733 -44.1229 -19.0160
-19.9531 66.6914 -0.2073
-27.9935 -63.6446 3.4110
-56.8981 15.0663 37.1688
57.7997 -36.7530 12.4228
14.3655 26.5286 62.7358
20.9354 59.2284 -29.9936
-31.1375 28.4298 55.3906
-45.2280 -50.4933 -15.8357
63.4751 -27.3672 -8.2375
-69.4290 0.8275 -4.9840
51.5877 -27.8798 -37.5145
65.9193 22.3527 0.9533
21.6678 -66.1259 -1.9450
-40.7455 13.9189 -54.6990
59.1962 -6.7383 36.0044
3.2043 63.1598 -29.0944
-5.0655 -56.1277 -40.8648
58.1736 29.4187 24.4190
-7.9015 -69.1231 2.3381
-29.2047 63.1355 2.6266
-11.6072 -0.2591 -68.6376
32.0024 52.9033 31.9843
-6.9972 -63.8162 -26.9154
-54.8173 -42.7613 -3.5274
27.5899 -63.3840 -8.1959
21.5988 38.0765 54.1256
19.2995 -63.5905 -20.7291
-41.3745 50.9924 -23.1049
51.9600 8.3763 45.5621
-2.1625 -45.3692 52.7529
-32.9216 59.3285 15.5629
28.6328 -62.9038 8.3180
-18.3115 66.2616 10.9543
8.6213 -26.0538 63.9749
2.2415 62.0468 31.4815
10.9748 -54.7897 41.5157
17.6583 -49.8949 45.2172
41.6955 25.4270 49.6071
50.1870 47.9956 -4.8581
33.0285 25.7646 -55.5987
23.6713 -61.8864 21.3460
9.8461 3.9584 68.7989
-7.9063 16.5256 67.1588
-29.6659 -31.6349 54.4525
-63.9062 11.6522 -25.0225
63.3144 -13.4874 25.5986
60.3135 -13.0846 -32.2022
-39.3729 57.1145 5.7984
-66.7253 -16.5425 -10.9539
-14.4095 -44.4563 51.5937
-36.4615 -57.1868 15.6887
35.8650 -58.1957 -13.1482
48.4132 -35.0638 35.6736
-47.4314 1.9250 50.9163
-23.6233 -6.4223 65.1660
41.6255 55.1507 8.4633
5.9152 -68.9225 -7.7852
13.7268 -67.9332 6.5241
46.9450 -50.9332 6.9197
-48.5779 -9.6298 -48.9220
-10.1350 -48.0041 49.3842
13.8519 -23.2413 -64.1395
57.0880 27.4823 -28.8373
64.7308 18.1545 18.0623
25.7771 -19.3604 -61.6979
-22.9210 -42.2367 50.3646
32.0344 59.6227 16.2740
-18.2972 -57.6196 -34.5124
-16.5850 1.6717 67.5874
16.9996 31.8455 -59.5213
-9.7817 -60.7805 -32.4955
46.9784 42.3947 -29.0108
-8.8680 31.6282 61.3753
-46.8165 47.4418 -20.0848
9.7665 -65.7297 -20.7397
-10.9869 -33.1439 -60.2219
-29.8440 56.2745 28.0790
15.9491 -59.4238 -32.5629
-40.6237 -52.7427 -20.3428
24.9618 -64.0275 -11.1037
19.3884 55.0719 -37.9090
8.6209 -10.0975 68.3347
-49.4965 48.9143 1.8443
2.3899 68.2543 13.4741
14.7691 -2.0383 67.9973
61.6850 28.0966 15.8571
-34.3025 -39.8835 -45.5911
-45.0649 -40.5544 34.2111
-20.7246 42.7102 -50.9141
-32.6285 18.1008 -58.7678
58.2864 -0.9530 38.0487
-30.5876 20.8575 -58.9515
49.4777 21.5375 43.9773
13.8977 59.6514 -33.0829
-66.3956 20.4686 -4.3085
-47.6924 -7.8737 50.0934
-37.1004 56.5480 -16.4862
-61.1183 33.1262 -3.6210
-55.1739 -0.9491 -42.4364
-30.9595 55.0458 29.2810
-8.6874 66.7016 -17.9257
18.3565 -63.4844 -21.8787
-3.5255 -59.0078 36.7636
-29.1171 -43.1798 -46.1910
-51.4229 -15.1698 44.4013
29.5611 54.4345 31.7638
9.0034 57.6954 37.8958
-52.4994 -37.5377 -26.0891
8.2108 48.7236 -49.0358
-44.7098 -38.4050 -37.0405
-41.4820 43.3354 -35.3157
28.1481 -56.3131 -29.7057
-50.0005 17.6922 -45.0871
32.7961 55.4333 26.4096
-23.3794 1.2745 65.5568
53.1254 44.8250 3.7848
-40.3251 43.3125 36.6582
-30.1048 26.7216 56.7941
-63.6824 -16.5210 22.7490
49.2440 37.4922 -31.8633
42.3295 0.9346 55.2562
-38.8867 0.9635 -57.7305
-38.1588 -47.4433 -33.7483
1.9405 69.4937 -3.5731
0.7315 -47.1364 -51.2205
-22.3404 -42.6693 50.2608
-45.1975 52.9443 -0.0251
14.3524 67.6059 8.3280
-18.6127 -57.4314 34.6571
55.9857 -40.8022 6.8330
58.6586 -20.7133 31.2416
14.7874 -61.9918 28.0047
-24.8753 63.5175 13.8800
31.8096 -7.7948 61.4272
-41.8173 50.5253 -23.3328
-3.5243 -41.7156 -55.6174
-42.0055 -54.9528 -7.8509
-55.1232 -39.7624 -15.0430
-3.8115 -55.0083 42.4909
-48.0548 -39.9537 30.6650
-0.3524 43.2843 54.5184
-38.4337 -54.9731 18.6204
48.0408 -20.9278 45.8259
30.1725 -47.5065 -40.9715
10.4351 40.3689 55.7438
65.1910 -24.2159 -3.1038
-5.3795 69.3895 1.4382
57.7275 -22.9564 -31.4079
-67.3462 -2.6499 17.4179
-7.3572 50.3404 -47.5145
19.8220 -63.7439 -19.7412
-0.2718 -31.2336 62.2117
-61.6905 -32.2474 0.5454
65.5005 -0.4434 23.5670
-60.9759 -33.3218 4.1843
10.4402 -11.7669 67.8119
43.3321 16.1857 52.0218
-27.4519 -45.7356 -44.7276
-45.6714 40.8657 -33.0155
65.3854 -3.6215 -23.6123
-66.0481 14.6632 16.3876
25.5511 -27.1123 58.8045
21.6188 -64.2995 15.6240
-34.9226 -55.4864 -23.4005
-61.7554 -4.0202 31.8750
-54.0014 -39.7586 18.6818
-46.3217 35.6045 37.8487
-15.8330 -8.5104 67.2518
11.9757 -12.3734 -67.4492
31.6841 -16.5677 59.7289
-53.2284 -44.3490 6.7686
54.4903 -27.0040 33.8748
-28.5148 28.2058 -56.8968
18.0230 12.3059 -66.1033
-9.0153 -8.4880 68.5025
-27.7985 -37.1778 51.8745
-29.1783 36.8866 -51.3217
-57.7536 -37.8859 8.6656
-21.9434 59.8259 -28.0224
59.5175 7.3687 -35.3451
-51.6954 11.7428 45.1177
-66.2203 -1.4471 -21.4170
-50.8043 -14.7734 -45.2392
1.4309 18.8911 66.9850
19.8433 6.5614 66.4011
-22.6328 -36.1103 -55.0428
8.4102 -28.0001 -63.1757
-29.1664 6.7810 62.8431
-22.9963 -23.4356 61.3829
-12.3945 -66.3038 17.2073
3.5342 -66.4517 20.4350
-8.0335 -53.1156 44.2731
9.7960 -61.4598 -31.1872
-34.1641 7.9033 -60.1354
4.8677 50.4110 -47.7593
33.7315 -1.5074 60.8755
-64.2548 -25.9450 -6.6399
-0.9313 67.1645 18.2749
40.7290 7.9984 55.8845
-52.3557 6.9334 45.3510
5.7196 -62.0989 30.9342
13.4136 33.5511 59.5005
-11.1102 -52.7692 -44.0214
15.3420 40.2799 -54.6632
-37.2701 -55.7481 -18.6816
-20.2357 -45.5974 48.5521
-42.1930 -4.3649 55.1961
-44.1459 12.7041 52.3035
-44.4093 32.6759 -42.4971
-10.1216 68.7581 -3.9731
53.0456 -30.5498 -33.1479
1.4293 65.4013 -23.8021
-13.0615 26.6505 -62.9687
56.6425 -36.7167 17.0124
-34.0750 59.4228 -12.3991
3.0579 -69.4685 -3.2696
52.4858 44.4220 10.8552
-42.2680 -2.5135 55.2540
52.2617 36.9902 -27.3195
-8.5892 68.8702 -5.3885
-52.7714 45.1468 -4.7810
41.0665 44.2245 -34.6936
2.0134 -33.5807 60.9442
-16.2913 64.6042 20.1692
30.4636 50.8981 36.4316
43.4898 13.7643 52.5842
21.8432 -37.2656 -54.5899
46.6165 50.8368 9.4034
-52.8703 2.1289 45.2339
30.6481 -50.4927 36.8388
16.3790 39.5334 -54.9067
-0.6906 -47.3723 51.0029
5.1065 -5.0383 -69.2420
-20.1895 -57.1356 34.2610
31.2279 4.4510 62.0557
4.3817 35.8076 -59.5359
51.9713 -34.5585 -30.8319
-24.1367 63.7660 -14.0438
-52.9459 -43.6473 11.7287
-21.3292 -10.5757 65.4151
23.5913 -65.0866 -7.2865
6.2173 8.4027 68.8233
-42.6576 0.3402 -55.0102
-56.4753 35.1857 -20.4552
45.5403 1.9365 -52.6141
66.5144 11.0971 -17.2800
-35.8893 35.9075 -47.6290
-11.9436 57.4462 37.4593
-9.5087 18.2563 66.4996
48.1110 27.5239 -42.1151
-32.5215 10.3633 60.6701
11.0137 58.8529 -35.5098
43.9170 -35.3575 40.8296
30.8813 56.3023 26.8757
58.6753 36.1547 -9.7956
-30.7203 -50.7974 36.3565
42.4975 -36.8269 41.0324
45.0025 -52.8442 5.3075
30.8761 57.2010 24.9122
25.9663 -6.7905 -64.2305
-67.9078 -5.1909 -14.4046
32.5953 -10.5478 60.5987
23.1186 59.9265 -26.8376
0.6058 68.8744 -10.0926
-65.8639 -0.8238 -22.5205
-35.0609 33.4542 -49.9746
-41.0450 -54.7497 -12.7942
-43.4185 53.5186 9.8234
51.7254 -33.9224 31.9321
10.3221 68.2836 -8.7585
-63.4243 28.6824 0.7651
-29.0305 62.1602 -11.8003
16.8323 55.3412 38.7290
-49.2195 49.2263 -0.3430
38.2978 -36.2224 -45.4657
-22.8563 58.3412 -30.3283
68.9933 -6.3453 -6.7504
37.5231 31.2729 -49.5977
35.9518 56.9881 17.4853
16.5929 60.5278 30.1160
10.0464 38.0729 -57.4059
18.0005 12.0853 -66.1501
-45.9505 35.3427 38.5403
-15.2080 66.9584 11.4541
1.7446 32.7034 -61.4276
-22.3897 -34.4996 -56.1640
-11.8608 33.7818 -59.6994
-39.3464 -51.6795 -25.0400
17.8567 54.9887 -38.7723
38.8514 41.4570 40.2219
-42.4965 -22.5144 50.3295
-30.4318 -15.3435 60.6992
-13.4208 16.8303 -66.2007
-39.9501 -45.8049 33.9383
-43.9510 33.1044 42.6418
32.0518 -41.6923 -45.6108
-40.5300 45.2147 34.0420
-65.9271 -10.7652 19.5866
49.4834 46.4370 -15.5212
-50.0783 -44.9113 -17.9177
-19.6459 -25.0082 61.9237
50.4722 35.4105 32.3197
24.3882 5.0762 65.0027
-6.8594 34.0072 60.3520
-29.1168 44.6345 -44.7871
0.2255 -46.0847 -52.1734
-7.6755 -67.2798 -16.1378
15.6234 3.1085 67.7655
-5.7268 -15.3400 -67.6594
-25.6783 -8.9358 -64.0834
-42.0596 49.2229 25.5735
-28.0363 -28.8563 -56.8084
-27.9978 63.1572 -8.5560
13.4551 53.7901 42.0892
12.7272 14.1920 66.9516
44.2841 23.1972 -48.4429
15.5853 -59.2463 33.0589
20.5268 -22.9718 -62.4248
25.9918 51.6646 -38.7442
32.0833 -6.6036 -61.4244
24.0451 -6.9889 64.9530
13.2053 66.3967 16.2174
38.1664 -0.8094 58.2115
55.5886 25.4369 33.2984
46.2541 49.7792 -15.1163
49.6835 -42.4122 -24.0554
12.0174 22.5108 64.7669
-47.0243 -49.4178 13.8748
-2.6759 42.2190 55.2839
28.6347 49.0394 -40.2629
-38.6921 -14.9615 55.9016
-67.8901 14.3375 -5.5932
58.8335 -10.6752 -35.6451
53.4204 37.1668 -24.7142
-48.9038 22.1344 44.3215
43.7825 -9.2632 53.3216
-17.2823 17.8785 65.0199
-11.7145 65.1849 -21.4383
-59.5266 -18.6707 30.8854
-6.0079 -30.3352 -62.3666
-34.3289 41.9115 -43.7134
-61.1619 -4.3280 32.9606
-26.4157 -62.2641 16.4714
23.7313 48.4342 44.0098
21.4966 17.3813 63.8881
13.3664 49.0924 47.5099
-23.4921 63.4153 -16.5083
-62.4809 -17.9967 -24.8630
16.4046 -14.1852 66.1482
60.1043 5.4708 34.6908
33.5339 10.6831 -60.0605
-25.1967 -0.1561 -64.8923
-49.6177 -5.7465 -48.4868
-60.3179 33.1050 -10.5697
-35.4521 -19.8240 -56.5338
24.9682 -24.6271 60.1332
-18.8489 57.4926 -34.4272
-26.3686 64.4204 -0.7823
-2.0212 -66.9210 -19.0632
62.0495 -20.9683 23.5817
57.7524 -30.2234 -24.4359
-63.4465 -18.3172 22.0213
33.6910 59.7370 -11.9296
-30.7418 -54.4038 -30.6771
51.8104 28.2193 36.9494
-40.6472 -1.0212 56.5038
-14.2152 24.8618 63.4486
-64.5492 -14.2007 -21.8554
-8.8056 -42.7236 -54.2500
65.8659 -0.4477 -22.5255
37.9984 -31.6713 48.9792
-25.5522 -28.2215 -58.2798
-31.0123 1.7403 62.2986
42.0967 6.0900 55.1062
9.0289 -14.3082 -67.5253
-34.7106 60.2045 -4.0624
-21.2574 -47.6325 46.0996
33.0129 -60.9945 -5.9771
-31.2460 57.2095 -24.4269
-17.0304 -8.3588 -66.9776
-1.4559 69.4877 -3.9048
39.9440 34.8357 -45.1317
-22.6664 -9.4042 -65.1437
-41.8249 -54.4732 -11.3695
-55.0099 -42.6426 -1.1944
7.4723 -26.1432 64.0828
19.7230 56.0228 -36.3093
51.0414 -45.8236 -11.8694
-69.5756 0.5257 -2.2070
49.2028 -24.5297 42.6999
6.6668 62.4012 -30.1256
57.2852 -38.5884 8.6749
31.8733 -46.1700 -41.2109
-30.7822 -62.3680 -2.9316
32.1677 14.5918 -59.9852
-52.9030 -32.3051 -31.6791
-53.9638 41.8902 -13.3800
57.1921 39.6071 -2.5004
31.1421 62.1514 -3.6448
-63.3149 -25.5427 -13.5908
-53.3453 -39.3154 -21.3188
19.4429 33.7182 57.7145
24.2391 8.2662 64.7306
27.2278 -63.7376 -6.4865
-64.3903 -8.0497 -25.1991
9.1291 -42.7078 54.2090
-1.0778 -49.5067 -48.9268
22.9364 -65.5356 -4.9916
35.5793 -49.5147 33.5904
-35.1201 57.8895 16.1648
62.5657 -30.2985 3.6670
-48.0469 -47.5220 -16.7053
27.0131 19.2970 61.1868
-64.5219 15.2636 -21.2097
-39.8139 -49.7028 -28.1140
-36.6069 -50.6927 30.5957
32.6466 -60.3587 -11.7017
59.3338 -2.6265 -36.3114
-9.4303 -31.9820 -61.1075
32.4716 -3.6189 61.4687
-67.7573 -9.9040 12.5210
32.0060 -33.9558 -51.6579
-23.1365 63.8708 15.2029
-10.8521 66.1184 18.8812
60.6475 14.7899 30.8067
-1.9010 19.2081 -66.8831
57.6745 29.3806 -25.6193
56.1477 -18.9997 -36.5014
-15.9807 -52.6997 42.5825
-63.5178 -24.1407 15.1206
61.0278 -33.4711 -1.0972
30.0398 35.7540 -51.6253
9.5479 -1.4123 -68.9402
-26.1612 -62.9069 14.2908
68.3182 -3.0185 -13.0160
35.7546 20.2486 56.1917
56.4868 -28.4271 -29.1040
-11.9321 -64.1248 24.3216
3.7509 -68.5917 11.2700
54.4186 34.8397 25.8983
43.2078 -52.2957 -15.6253
-61.3921 -17.9888 -27.4466
3.0942 67.6552 -16.0971
-55.1107 -18.0233 38.5211
-2.9466 68.8966 9.5122
54.0483 16.1780 40.7794
-5.9214 -62.2127 -30.6664
29.3447 -31.4876 -54.7113
44.2242 38.2319 37.7949
-58.9042 2.5499 37.0094
-62.1505 -0.7727 -31.3468
-45.3705 -26.5025 -45.6623
67.2513 3.6874 17.5949
64.4334 -25.4089 6.9735
13.9558 -58.9897 34.2251
53.3848 37.7343 23.9185
54.8136 31.0856 29.5815
15.9199 -35.1237 57.9551
68.6161 -11.6059 -1.7449
62.6436 23.7968 -18.8522
-44.7416 39.0745 -36.2944
-25.9558 -64.4798 3.8158
2.6806 68.2567 -13.4072
-8.3418 11.3186 68.1778
-36.2068 -24.6861 -54.0886
62.1726 -29.8599 -9.4268
41.1145 49.7535 -26.0786
10.1385 44.2225 52.7967
-6.5089 -46.5837 51.3177
15.9235 -33.9141 58.6702
-10.1650 -16.8067 -66.7841
-21.1241 -60.3154 27.5996
43.7768 -40.8229 -35.5386
-33.5570 -53.7325 28.8559
-2.4256 -35.5130 -59.8235
-65.8090 22.5979 2.1012
33.7533 17.4456 -58.3290
63.3356 -25.7626 13.0690
-24.4799 -22.6977 -61.0857
9.0890 11.4458 68.0610
41.6136 -54.4363 -12.2844
-39.7495 1.4261 57.1301
-36.7925 53.0234 26.0910
-39.5933 54.2943 -18.1771
59.8422 16.0327 -31.7454
23.9985 65.3149 -1.9867
42.3287 11.5107 54.0527
-39.6270 -27.6935 50.0868
46.7729 -48.7614 -16.7489
7.5583 64.2188 -25.7823
-31.1437 7.8761 61.7572
-59.5650 0.4321 -36.0240
14.0667 9.9745 67.4429
57.1397 -6.2084 -39.2736
3.9838 64.1983 -26.6198
-49.7913 -36.1035 32.6079
63.3943 27.8244 7.2711
29.6416 -10.8496 -62.0449
-49.4285 -28.5220 -39.8651
36.8532 -30.4697 -50.5900
2.5894 69.1910 7.1977
-39.8550 24.4806 51.5576
-33.0868 -44.2852 -42.3083
42.8263 -1.7042 54.8535
63.2148 27.5263 9.5967
10.4027 38.7878 -56.8612
-12.9331 40.9820 -54.7642
32.0574 -42.9822 -44.3932
19.3256 -33.1175 -58.1004
61.0638 -27.1361 -19.5129
-53.2501 -43.8596 -9.3101
59.9479 35.3336 -1.9235
15.3813 -26.8460 62.3588
16.7476 -31.2861 59.8883
54.7786 37.6998 20.5897
-59.0160 34.9019 -12.0362
15.5375 63.3660 24.2743
69.1607 -7.8057 1.3347
-15.9266 67.2551 8.3072
-60.8963 19.8883 27.2397
-32.6006 -56.1660 -25.0697
59.1126 6.2328 -36.2321
-20.2626 -57.0199 -34.4102
-48.5095 3.5977 -49.7976
62.6646 -16.1734 25.6414
53.6008 38.5717 -22.0249
-2.4161 -47.9944 -50.3648
21.1805 61.6514 -24.4214
-16.3055 -11.7195 -66.6535
-68.5064 3.4198 -11.8782
0.5920 -64.4059 -26.4091
56.5173 -38.8787 -11.8385
52.5641 26.2542 37.3315
35.7289 23.0552 55.1164
60.1026 34.8538 4.3362
-49.4196 -40.8064 27.1743
-61.7465 16.5448 27.5599
-58.5805 -12.9171 35.3184
-59.8556 6.0103 35.0298
-21.0523 50.9703 42.4823
-5.4417 -21.2896 66.0534
68.3902 -9.7311 8.6022
-54.0986 -12.3324 -42.0376
64.1644 -26.9655 1.3020
-18.4600 -52.3695 -41.9830
-37.7571 14.4421 -56.6722
-30.7538 -59.2338 19.7857
-55.6043 -10.5080 -40.5420
46.6462 50.1636 12.3959
12.5423 54.6129 41.3042
-19.8394 46.0033 48.3323
-29.4329 57.6172 25.6881
51.4356 -44.9526 13.3996
59.7733 34.2855 9.8778
17.7145 9.9255 66.5852
-44.3266 -34.1006 -41.4514
14.0346 67.6484 8.5227
-54.9280 42.1362 -7.3053
36.6406 18.2470 -56.3065
47.2777 -9.2620 50.2488
-16.4197 -67.2892 -6.9616
21.8016 63.0754 -19.8015
18.6974 -57.6774 34.2000
26.9460 -12.6643 -62.9241
1.7597 40.9329 56.2789
-47.0925 -28.5657 -42.5700
63.7528 -26.9440 7.4502
22.7036 -36.9658 -54.4425
59.8077 32.8280 -13.8301
-43.6779 14.6384 -52.1907
27.7854 -44.4890 45.7669
-26.6985 25.1475 59.1667
-33.0386 -54.4176 -28.1617
11.3090 -45.0088 51.8867
16.0287 -51.5653 43.9318
61.1646 -9.0006 31.9968
-4.3823 48.7581 -49.4909
45.6809 45.8200 25.6845
59.8514 -29.8896 19.2439
-16.4535 -51.1578 -44.2501
15.2532 42.4913 52.9881
-15.4606 60.1142 31.5145
-28.5565 -59.2065 -22.9134
-26.8402 41.6096 -48.9301
-50.0353 -37.4068 -30.7100
16.8358 62.3226 26.0453
-63.3275 20.2033 20.6728
18.1468 -54.8876 38.7809
38.7802 54.8993 -18.1128
56.8022 39.8847 5.3502
-18.3860 -3.2217 -67.0633
50.3428 45.8168 14.5714
-26.7174 -59.3423 24.7099
-52.1208 -17.9587 -42.5067
24.4301 26.3560 -59.6191
-39.0739 -56.0644 13.2636
1.4719 -41.7162 -55.7091
4.0232 68.4915 11.7743
-0.1769 -35.4013 -59.9385
-27.1617 62.9994 11.7994
-1.5314 -23.4187 -65.5372
-16.5542 -24.1232 -63.1660
-11.8911 57.7069 -37.0733
30.5962 -12.9106 61.1809
32.8099 -53.8350 -29.5164
-35.5484 11.3120 58.7730
17.1925 1.0099 -67.4486
-40.0562 -11.7500 55.7077
-22.5454 2.7703 65.8023
-36.7905 58.8496 5.3938
68.1925 13.2654 -4.4413
33.9859 20.5351 57.1767
65.1455 11.1397 -21.8605
-50.9595 -26.0285 39.6429
-0.0984 -60.0616 35.1923
9.5532 -23.8453 64.6997
56.8908 17.5171 36.0901
-17.5701 -52.2778 42.4763
44.2781 -9.4349 52.8805
-44.6617 -43.8386 -30.4865
-40.0645 56.7900 -3.9550
-37.8728 -54.0477 -22.1450
39.7304 49.4769 28.6259
-11.3110 -36.3661 -58.2707
-19.8968 -52.7650 40.8152
-2.9618 38.8903 57.6601
-1.9650 -17.2598 -67.4103
-34.4855 -59.4174 -11.2351
-65.5527 -19.3335 -13.2277
46.0021 -51.0786 10.9862
52.5451 31.3802 33.1693
64.8189 0.8843 25.3700
-3.2817 33.6243 60.8650
64.2213 9.8730 24.9811
38.0698 -22.8581 -53.6107
-24.0654 -30.3713 57.8304
-68.0827 1.9658 14.3803
-11.2768 -24.1951 -64.2911
-28.2780 -61.1622 -17.4769
-34.6671 29.5050 -52.6646
-3.1384 56.3877 -40.7000
34.3899 -59.2515 -12.3490
-28.8009 32.8043 54.2245
-31.9515 -61.6698 4.6743
0.1307 -69.1292 -8.1880
36.7387 30.8433 -50.4467
-9.6289 -10.4578 68.1457
-7.5124 62.3232 30.0881
-36.6359 -24.9140 53.6937
16.6082 -25.4215 -62.6404
-41.7684 39.0330 -39.7208
51.8540 23.2470 40.2075
-1.2386 68.5348 12.1390
-66.1840 -17.2319 12.9866
-17.4468 -58.6441 33.2022
47.9477 42.8786 -26.6149
-36.7888 24.6557 -53.7084
52.3368 -25.9643 -37.8501
-17.1899 -23.2401 63.3270
-31.8101 61.5216 7.0089
-3.5083 -8.2399 -69.0341
2.1486 -20.2858 66.5566
-44.6944 -12.1393 -51.9708
-43.7636 -52.2342 -14.2212
-17.4224 41.4319 53.1579
-4.9150 -66.6531 19.4709
1.3810 -62.8816 -29.8312
-16.7403 -35.5828 57.4416
-40.3786 -21.7368 52.3736
-64.0824 15.3719 22.4292
-48.5075 39.0696 -31.0886
-11.0425 -52.5600 44.2879
49.8075 21.1373 43.7989
10.2354 27.1364 63.2832
-65.4863 -1.6092 23.5556
-20.0956 32.7961 58.0215
-32.6460 33.3568 51.6476
39.3454 57.0656 6.4316
-21.6947 -15.0094 64.4203
6.9628 69.1959 3.0592
16.6216 65.2078 -17.8208
-50.2516 24.5965 -41.4210
27.5704 -58.0710 26.7121
-4.5579 67.8511 -14.8784
67.4116 10.1780 14.0711
20.2221 54.3315 -38.5365
69.4861 4.1801 -0.3353
-64.1505 26.9502 -2.0758
-57.5913 -1.0076 -39.0914
12.3746 -64.0788 24.2216
-36.0600 -0.2454 59.5443
20.3353 -66.4590 3.9486
29.9897 43.2726 -45.5413
-27.6345 61.7287 16.4865
57.5958 38.8560 -4.3410
-34.4284 -35.3649 -49.0910
51.5070 16.1389 -43.9600
34.7137 -45.9928 -39.0580
-26.1089 -59.1328 -25.8369
-4.6601 68.1708 -13.3017
27.6762 -38.6954 -50.8193
-61.9177 29.5113 -11.8824
-48.9031 35.8025 34.2429
57.1221 29.0879 -27.1455
49.4891 20.7655 -44.3343
37.6498 -58.3036 -5.3937
37.1586 -20.2886 55.2587
41.2862 -12.8530 -54.5542
-12.0796 -57.0217 -38.0594
-32.3794 59.7225 -15.1891
-6.6564 -60.4215 33.9241
53.5743 43.5119 -9.0783
-22.8779 -54.9777 -36.0549
-34.2125 0.5186 -60.6230
8.8326 -33.4314 -60.4172
-28.7378 -57.6412 26.4111
42.8965 27.4844 -47.4385
-16.5214 67.4545 4.7792
19.6050 44.8353 49.5110
-56.2664 -40.9867 0.2953
-37.6993 50.7798 29.0875
-19.5504 -0.0743 66.8108
-13.5399 62.5607 27.3632
-24.7504 -29.4144 -58.0355
-33.4488 35.5417 49.6374
17.6797 20.3949 64.1669
3.4030 45.9243 52.2043
69.4350 3.6768 -3.3432
39.1448 -53.8279 20.3998
35.8482 33.0098 49.7108
64.3246 18.3267 -19.2975
48.9834 47.9786 -12.0246
11.0917 12.6667 67.5458
66.8343 -10.4245 -16.4441
-10.9448 -9.3081 68.1137
10.6505 39.8690 -56.0619
-64.1734 6.6425 26.1449
-18.7954 -67.0271 -0.0824
-8.5737 47.0772 -50.5583
57.9723 29.0923 -25.2738
-46.6388 49.8516 -13.6217
65.9081 18.9767 -11.9130
-56.6816 35.2727 -19.7217
-27.8834 58.6488 -25.0747
65.4600 23.5851 -2.1533
-44.6812 -44.1427 30.0153
-7.1149 -45.1566 -52.4992
44.0900 -48.7219 22.9817
14.7554 65.6613 -17.7983
41.0088 25.7365 50.0182
-26.0866 35.7913 -53.7064
-38.3027 57.9337 4.7435
5.9454 -31.2048 61.9421
-46.6461 -30.5130 41.7014
-13.0277 16.0859 -66.4638
18.4742 59.4135 31.2193
-53.4700 -38.6774 22.1569
48.5302 -44.6178 -22.3603
-49.0505 33.3228 36.4630
43.8138 -3.8048 53.9609
-42.9397 12.3608 -53.3788
-11.9043 51.3452 45.4738
29.2655 54.6113 -31.7340
19.9623 -65.6855 -11.5255
-33.5992 -19.5349 -57.7529
66.3467 1.6606 21.0065
49.1909 -46.7269 -15.5805
3.3499 42.0377 -55.3852
16.7363 -46.7035 48.8323
10.0435 66.6818 17.2795
-68.3265 0.4358 -13.3120
5.0055 69.1038 -6.7466
-15.3363 -10.4017 67.1008
69.0255 -8.9710 0.9561
67.7553 -2.5498 15.7678
-15.4863 58.6712 34.1141
-8.3070 -69.0966 1.6006
-0.2829 -25.4568 -64.7903
5.9686 -22.0240 65.7665
-64.9007 17.5926 18.0087
-17.5186 -43.8688 -51.1325
-17.4282 62.8877 -24.2343
64.0398 26.7468 5.4239
65.3289 9.8893 -21.9146
-1.4928 -51.0251 -47.3299
9.3600 -33.7950 -60.1348
21.7056 66.1174 1.8067
-41.1393 -52.6294 -19.5859
34.5998 22.9530 -55.8742
-45.2141 13.1025 51.2828
49.7518 -46.7173 13.7170
28.4701 35.9067 52.4030
-2.5031 53.3315 -44.6699
22.1609 -64.5477 13.7256
33.3415 39.6333 -46.5130
-11.3838 65.2969 -21.2753
8.6044 63.4055 27.4156
-49.8005 -45.7185 -16.6022
57.4730 -35.9876 15.7370
-26.6710 58.7851 -26.0552
34.5007 7.2326 60.0275
47.0147 -49.8686 12.1926
-49.9386 -29.9122 -38.1746
-67.5838 7.1870 15.0561
-68.3942 8.4693 9.8193
34.5462 57.3201 -19.1540
54.3144 37.9454 -21.3542
-63.3239 7.1974 -28.0034
46.0905 41.6690 31.3890
4.3075 65.2273 23.9324
-11.2163 19.6514 65.8326
-30.7160 61.2787 12.1391
6.8702 -23.6361 -65.1156
-10.2622 -61.2934 31.3643
-4.9065 -68.0436 13.8531
-53.1858 33.6033 29.7994
-43.1491 54.5482 -2.9258
31.5199 58.4546 -20.8679
-10.6468 -53.9062 -42.7396
45.7355 49.5137 -17.3944
52.0196 18.6284 42.3421
1.3147 -35.5495 -59.8366
-49.0901 44.1202 22.1242
-19.0978 -36.9951 55.7902
45.6791 -13.9273 -50.6493
18.2210 1.2955 67.1731
-18.9738 -4.1242 66.8498
-17.8932 -4.5052 -67.1226
-51.7627 -35.6570 29.9185
-38.8154 -7.7518 57.2642
20.9783 -45.1546 -48.6506
52.2452 29.1459 -35.5931
-13.3682 65.0092 21.0001
-67.3899 -17.3820 1.5427
-40.3228 49.4898 -27.7623
-57.9937 -37.7206 7.7331
-3.7889 33.6772 -60.8063
38.3515 -57.3051 -9.5498
-19.0275 64.3960 -18.3582
-65.1097 -24.6265 0.4086
-61.5442 -2.7832 -32.4110
31.5285 43.0311 44.7234
68.4583 -3.9451 -11.9920
-21.9176 55.8485 35.3054
-28.1403 38.1791 50.9548
38.6148 22.0108 53.5755
-38.1049 -38.6533 43.5872
-23.1002 62.3677 20.5563
-50.4306 -43.5717 -20.1040
-28.6922 59.5544 21.8161
10.0016 8.0938 68.4132
-64.8179 -22.3361 -12.0688
26.3397 -34.1360 54.6522
-61.2080 -15.0875 -29.5272
40.1686 25.2181 -50.9552
27.6727 45.1112 45.2229
-44.5506 -29.9954 -44.2880
-16.6136 -44.8408 50.5886
35.8227 56.2705 -19.9067
25.3913 -48.4476 43.0583
-63.2637 -24.7343 -15.2258
-2.0817 -61.2277 33.0567
