ply
format ascii 1.0
element vertex 1024
property float x
property float y
property float z
end_header
11.8893 44.9416 -22.9319
11.0698 -36.9622 -34.6155
8.1383 -18.5237 -47.7244
1.4111 23.9631 -45.9430
-3.2867 20.1679 -47.6386
14.4050 -48.4608 -11.4467
-0.6434 -49.1150 16.5614
-13.7216 48.3249 -12.7830
40.6643 -31.8877 -4.0705
20.0303 -46.5583 -10.8671
47.4340 20.1014 5.7384
-28.5753 -36.9121 -22.5372
17.1181 48.5000 6.4577
-38.0994 25.3891 24.3066
-34.4125 -26.8576 -27.9541
-21.7262 -45.2359 -12.9871
40.6787 -31.7106 -5.1639
-35.6167 -35.2379 13.2936
-44.3210 26.5812 4.0085
13.7230 -49.2977 8.2704
16.9696 -32.2248 -36.8860
-48.6836 15.4611 -8.8230
-12.7947 49.7359 -7.0437
48.5600 18.1343 -0.2411
-29.6475 37.5969 -19.8615
38.7765 -33.9887 -5.3040
0.4357 47.0407 21.7707
-11.3217 -35.0606 -36.4630
-36.2179 7.0620 36.4057
-15.5750 44.6515 21.2284
10.3128 48.0149 -16.5890
28.5555 -32.6090 -28.4292
-48.3275 15.8346 -10.0348
-40.9222 -9.1292 30.4797
8.2006 -10.9328 -50.0020
23.3982 -7.8467 -45.5844
-12.2612 -47.9380 -15.4464
37.3240 -10.7960 -34.3124
38.2286 -34.6737 -4.8263
-49.3844 12.8025 -9.1793
42.8561 -26.1491 -12.9059
40.2445 5.4567 32.2115
21.6785 21.8624 -41.7020
-28.0637 -36.4636 -23.8708
15.5922 -10.1630 48.3795
32.0691 37.4407 16.0232
-14.7108 -15.8990 47.0935
-12.3088 34.4110 36.7608
26.7647 -29.7190 -32.9759
-32.0446 32.9688 -23.9413
-29.1956 28.3002 32.1511
50.0495 -13.2863 -2.3467
4.9874 -43.5510 -27.6661
12.1101 -49.5497 -9.2280
-14.5810 -43.4570 24.2047
41.8596 -30.5705 0.4471
26.0348 44.0094 8.5055
47.7141 -10.0243 -17.6029
20.5278 3.8909 47.4389
11.5309 -30.1709 -40.5430
19.1561 43.1196 -21.4644
-6.3762 51.2604 -4.3240
51.2338 -7.4020 2.6999
11.6359 9.6735 49.5783
-44.0970 -4.4182 26.8870
5.8514 -42.6682 -28.8472
-6.3416 39.2171 -33.2984
36.8909 21.2120 29.5989
1.7225 -4.4673 51.6145
1.1488 -51.1513 8.3187
12.8238 25.4526 43.2977
18.5471 -22.1296 -43.0496
-13.5027 16.5547 -47.2292
-5.9916 -8.4198 50.7956
-46.6260 19.4568 11.5942
-11.1683 -33.5471 -37.9056
-34.3316 -29.3675 -25.4140
36.4153 25.9588 26.2116
0.3820 22.6346 -46.6316
36.5473 -8.6550 35.7262
-43.2283 6.6568 27.8206
-46.9218 17.1055 -13.8825
29.5554 -32.2672 -27.7901
-41.3195 -31.1864 -2.6627
-37.1286 -0.0596 -36.1724
29.6540 0.6988 -42.5103
25.9834 -1.7322 -44.8201
-39.3749 27.5494 19.4326
-4.2274 48.8155 -16.9160
-31.2961 22.1841 -34.8626
51.7934 -0.0174 -2.1032
30.3372 -23.1800 -35.0617
22.5653 37.3795 -27.9385
-7.8919 50.0932 -10.7410
44.6355 -25.8739 -5.0195
-46.9753 -4.7973 -21.3842
26.3750 15.7617 -41.7482
-5.9980 -11.6554 50.1513
-13.9728 -49.9143 -0.5507
-8.7216 -47.2166 19.5323
-17.8901 38.8148 29.3314
-25.2926 -12.8816 43.3743
-51.0534 8.9139 1.0385
-12.8144 -48.3880 13.4674
4.7990 44.2069 -26.6401
34.7573 5.4441 38.0693
31.9097 -24.7695 32.4842
-51.3441 -6.7170 2.3770
26.4872 -38.0575 -23.1740
-50.3477 10.0309 -7.1744
26.9164 -44.0920 4.2878
34.4119 35.9007 14.6267
22.4652 -15.9227 -43.9177
-20.0424 -0.3907 47.8030
-35.0514 37.2583 8.3787
49.5201 14.4444 -5.1086
-42.6358 -28.3291 -8.1626
45.4510 17.5749 17.6723
-44.6154 26.2485 2.7314
47.1597 -20.7461 -5.7047
-19.5961 -7.8432 47.3440
37.6082 -24.0007 26.3926
36.3065 -34.8013 12.5576
31.1002 -35.1403 -22.0208
3.9262 -41.1986 -31.2128
2.0008 45.5963 24.5754
-43.3187 5.0455 -28.0180
3.4458 -40.6841 -31.9360
19.8472 -6.9583 47.3778
-13.9433 41.4791 -27.7857
18.8618 -48.2806 -0.4380
2.0802 30.9367 41.5401
29.8755 4.5912 -42.1113
-36.7818 24.6558 -26.9476
16.2508 -46.5878 15.8891
-37.5496 -35.7256 0.8306
-25.1926 -25.0739 37.7308
-20.4453 39.6994 26.3236
-11.6070 4.9404 -50.2777
-49.4118 13.5820 7.8093
-36.8059 7.0815 35.8073
38.1915 21.3016 -27.8322
-4.7298 6.7154 51.1812
-13.0634 46.5465 18.7015
-26.4698 -44.5682 -0.0776
29.6086 -41.6340 8.7703
13.6430 -31.4630 -38.8707
1.0368 -27.2067 -44.1101
51.1900 -7.8967 -2.0513
-10.2898 -2.3685 50.7493
13.4924 -22.7054 -44.6027
14.1540 -45.5389 20.3189
34.1740 -6.3231 -38.4595
-48.2254 19.0074 -0.0816
51.1382 6.2010 5.7807
-12.4891 -40.3273 30.0785
-49.3667 11.8778 10.4318
9.1579 11.0085 49.8189
-50.9795 -8.3234 4.3351
-33.5657 13.9546 -36.9539
19.6274 31.8746 35.8574
32.2608 2.1210 -40.5182
-50.3952 10.7499 5.6339
-28.9030 26.3330 -34.0319
-39.6218 -19.6280 -27.0524
-24.7544 -38.4017 24.4849
41.4154 -29.3647 -10.4623
-41.2151 31.0003 5.2222
-27.2116 -25.6124 -35.9237
-30.2832 -6.2079 41.6097
-39.6617 2.2078 -33.3025
-40.2183 30.6431 11.4222
1.8745 24.5767 45.6010
-49.9868 -11.6770 7.2076
-12.5522 31.1719 -39.4682
-25.3758 42.2681 -16.0142
-27.7841 35.7257 -25.2724
51.2803 -4.1423 -6.3367
9.0443 49.2842 13.2757
-28.7091 30.5623 -30.4748
44.3542 -2.3650 26.7225
-48.6256 12.9000 -12.4948
20.9963 45.7941 -12.2080
44.1734 -17.4348 20.7780
39.9717 32.0010 8.0733
32.1192 16.8229 -37.0450
-23.6011 -38.2500 25.8245
50.9423 8.7458 3.9211
-6.0941 -0.7059 51.4718
-36.1582 16.6051 -33.2240
-2.0584 13.7266 49.9432
38.4520 -24.0776 -25.0737
-25.7468 28.4072 34.8872
-20.8255 47.4189 2.1748
-37.0946 -35.8693 4.9361
-29.2795 42.6979 2.5654
-17.0339 41.7609 -25.5511
41.4718 29.1266 -10.8954
-40.2067 1.9670 32.6578
33.5989 -27.4053 28.4084
47.8606 0.5921 -19.8995
-22.3677 -46.7558 -0.7480
0.0250 -34.4046 -38.7724
30.8920 0.4655 41.6227
15.2853 25.3243 42.5678
19.9894 -7.0884 -47.2986
18.2341 -14.9540 -46.1614
-5.3981 -41.5392 30.5341
44.1936 -11.1271 -24.7000
10.7038 43.8436 -25.4980
-14.5956 -13.1835 -47.9598
27.9927 43.6108 1.2188
-44.8155 25.4084 5.7414
-24.8010 9.4926 -44.5172
23.3599 13.5640 44.2415
-35.7061 19.9715 31.8307
-50.4991 7.2540 9.1763
-32.2852 3.6021 -40.3939
21.4493 2.8335 -47.1050
-30.7087 4.4130 -41.5269
46.9857 -0.8286 -21.8778
-34.6446 -7.2531 37.8698
-40.7759 22.6158 -22.6459
-45.9583 -19.0434 -14.5660
45.1749 -17.2776 -18.6464
50.0808 6.6409 11.6099
-11.7554 -49.2989 -10.8815
2.2713 3.6129 -51.6601
-34.6615 -21.1013 -32.2536
-32.3137 36.6717 -17.2624
46.7879 -21.6806 5.2755
27.5448 14.9865 -41.2756
-12.9489 -50.0063 4.3218
19.8531 38.6659 -28.2451
35.6400 -34.7217 14.5318
-51.6863 3.7404 -1.2293
16.2549 -31.2210 -38.0527
-48.8001 -3.4006 17.1454
27.8413 -26.3436 34.8978
27.7181 34.8248 26.5692
-11.8170 39.5917 -31.3024
-8.3091 -50.1496 10.1470
16.8842 17.2430 -45.8757
3.6890 40.0416 32.7115
17.5958 -46.0237 16.0992
22.1396 -10.4363 -45.6936
16.3013 33.1307 -36.3814
22.5851 0.2083 46.6567
-26.8693 -18.6848 -40.1983
45.7404 23.7201 -5.6706
-37.2581 7.5085 35.2482
-0.5384 3.8410 51.6908
-27.4350 32.5227 29.6071
45.5164 -24.7148 -2.1017
48.8351 16.8964 -4.0777
-31.1642 8.4807 40.5445
-42.4669 -21.2896 -20.7436
34.3174 26.2079 -28.6783
11.3914 -29.3199 -41.2014
-13.8792 -3.0017 49.8532
30.5236 -33.1187 25.6602
33.6362 39.2762 -3.6010
-21.8484 44.9135 13.8709
30.9703 -11.4352 39.9632
29.8085 10.5541 41.0737
41.9443 -1.7630 -30.4064
-40.6403 -29.9161 -11.8479
-0.7182 48.6129 -17.9790
7.4932 -3.4415 -51.1761
1.0001 9.0967 51.0219
26.5673 43.3502 10.0956
4.5192 -51.6204 1.3738
9.8357 8.3880 -50.1984
2.2539 3.6002 -51.6618
46.8160 20.9598 7.4788
-37.9015 -14.6394 32.1892
-13.2499 -15.7286 -47.5819
-37.1877 -34.8779 -9.3590
-15.9163 -42.0941 25.7242
2.9996 41.2328 31.2704
-9.1814 -39.7515 -31.9765
44.1665 -23.8076 -13.0191
-41.3807 -31.2174 -0.3009
5.6861 -29.7980 42.0325
-8.7174 36.1456 -36.1176
38.3419 -23.3556 -25.9112
-38.5535 -12.9386 32.1434
50.2947 -12.5390 -0.4479
-5.4622 0.3361 -51.5464
-1.0698 -7.4534 -51.2863
1.3289 -39.0764 34.0330
31.9884 39.9420 8.2680
2.4357 50.3254 -12.1821
1.0599 -11.4234 50.5506
-3.7331 23.7760 -45.9102
-45.0828 5.9692 24.8775
36.2186 -11.5654 -35.2340
-2.5392 -34.4029 38.6907
-12.5315 -32.3721 38.4966
-33.8514 -17.9252 34.9249
1.8321 -42.2660 29.9534
-26.0877 40.0209 -20.1181
-2.9668 -44.1006 -27.0798
-15.0858 10.2956 -48.5118
1.6573 -24.5710 45.6125
-38.0004 -31.7872 15.2489
-18.1597 -38.6219 -29.4202
-29.5692 -16.6446 -39.1867
-32.6352 -14.5922 -37.5365
45.2484 13.6282 -21.3033
-42.1306 -6.1302 -29.5705
20.2070 42.2294 -22.2561
-43.7034 27.0846 6.5890
31.2975 -15.3390 -38.3688
-42.3538 28.7612 8.1198
-12.3665 40.1431 30.3740
6.3790 0.8911 -51.4344
-41.5065 21.4320 -22.4691
15.2202 -32.4338 -37.4616
23.9080 -30.1777 -34.7086
6.3410 21.6339 46.6770
32.8968 -38.8750 9.6703
23.8311 40.9287 21.0688
25.8173 -36.4953 -26.2401
24.2993 -0.0037 45.7878
45.5973 19.6522 14.8882
19.6474 10.7818 46.7409
27.9446 -43.5093 -3.6084
-13.4552 41.2087 -28.4216
26.2517 -4.0312 -44.5149
10.7663 -31.4218 -39.7962
46.5596 -18.6120 13.1444
19.2082 -47.9890 3.8840
12.0156 50.2076 -4.6689
9.6233 48.6168 15.1914
-42.5545 -5.1122 29.1540
-2.6578 -26.5016 44.4700
-18.6983 44.0741 -19.8702
-29.7101 -31.9397 28.0026
16.5746 -22.2297 43.7962
2.8167 33.8123 -39.1889
34.3049 38.1957 -7.1584
-35.6667 -21.4923 30.8698
20.7940 14.1957 45.3109
11.5217 48.2082 15.1723
31.9041 12.3326 -38.9489
-3.3626 -5.4017 51.4441
-20.6469 -22.5815 -41.8421
-5.0982 -44.4823 -26.1212
-3.0677 -41.6786 -30.6670
-0.4925 48.1692 -19.1432
34.9076 -29.2519 24.7540
-9.7083 -7.8604 50.3085
38.2074 14.9624 31.6750
-51.5283 -5.6358 0.2230
-28.6102 4.0750 -43.0329
41.0908 -30.5995 -7.8867
4.8680 22.8828 46.2565
41.2569 10.3168 29.6381
-26.9994 -31.7781 30.7922
36.5161 36.7886 -0.3863
-46.7382 10.6120 19.7460
7.9968 17.6002 48.0964
-24.7757 -45.5195 -1.0593
-4.9719 42.6088 29.0990
-30.8402 -25.8351 -32.6866
31.5437 -26.3943 -31.5486
-22.8975 45.7845 8.1528
-42.3190 -3.5494 -29.7235
-6.6823 -20.1095 47.3068
-39.0780 25.7905 -22.2428
34.5114 -22.6203 31.3730
-1.8130 51.7564 2.2291
11.3811 27.5921 42.3807
-28.0074 -39.0398 19.4541
22.1512 -45.0288 12.9890
-4.2690 45.3937 24.6611
47.5548 -1.2190 20.5921
30.1024 37.7524 18.8570
-46.8564 0.0158 -22.1689
-1.4291 -15.4388 -49.4629
11.6141 21.5674 -45.6831
2.8191 -46.8279 22.0495
24.2038 45.5511 5.1242
27.6266 39.9728 -18.0535
27.5665 43.8269 -2.5049
-19.7489 46.9074 -9.8314
-44.2859 11.8801 -24.1786
-12.6678 44.7784 -22.8342
-22.8628 -46.3633 3.8365
-34.2297 -4.5860 -38.6558
46.6305 11.7433 19.3565
20.3494 -43.9294 -18.5228
-23.6943 45.7694 5.5426
40.9100 -7.6367 30.9036
42.8045 15.7006 24.6626
-50.1458 -13.1282 0.1613
-47.7263 6.2486 -19.2390
-35.8518 -19.6012 31.8970
22.5564 46.1082 -7.2266
28.6880 -37.5428 21.3195
44.6504 -3.7846 26.0577
44.2703 10.5348 -24.8222
-2.3751 51.5441 4.9542
-43.2593 23.7695 15.8312
25.5877 40.5678 -19.6598
-30.5467 1.6787 41.8457
-44.0832 -26.2477 7.3965
-36.8577 -36.3313 2.9202
-1.1031 47.9814 -19.5844
16.9369 -43.9400 -21.6656
26.1360 -37.6198 24.2619
43.7774 27.6539 2.4040
-2.6223 -48.4412 18.2634
28.9700 16.3488 -39.7547
26.3071 18.8102 -40.5104
24.5521 -45.6240 -1.6183
-51.6756 0.3961 4.0565
-31.9109 35.2073 -20.7152
29.9236 -35.2554 -23.4226
2.4283 -51.7756 0.6105
38.2910 -27.5347 21.5086
0.0514 -34.6901 -38.5172
-51.4350 1.5206 -6.2537
-10.9965 -13.9564 48.6958
-47.3251 -4.6021 20.6430
-23.2793 -39.6834 23.8806
-30.0694 37.4928 -19.4191
2.6664 -11.6363 -50.4427
-9.5322 50.5229 6.5994
38.8500 1.1585 34.2975
-12.6933 -33.2614 -37.6768
3.6616 -5.6840 51.3932
-0.8514 15.9688 49.3077
-47.9004 -1.6180 19.7462
2.2892 2.8801 51.7054
-10.7311 35.7856 35.9334
-11.4003 -41.7418 28.5419
-26.8240 42.4304 12.9273
-12.0817 -7.5595 -49.8384
48.3430 16.3590 9.0728
-31.3459 39.0432 -13.4179
-19.6592 -47.5458 6.3158
40.8370 30.4844 -9.4877
-16.2926 -43.3806 23.2304
12.9303 -32.7880 38.0096
-2.9044 -51.0932 -8.2477
13.6005 35.1503 35.5874
4.8918 -51.5327 2.7263
29.2067 9.0775 -41.8515
33.2437 -15.3872 -36.6752
3.9035 46.1726 -23.2343
10.6002 -5.4307 -50.4492
15.3490 29.3785 39.8534
-34.2135 22.7744 -31.5871
4.1509 32.1142 -40.4775
-4.0268 -14.6845 -49.5493
2.0152 -42.5110 29.5927
-31.9626 -18.1096 -36.5706
11.7802 -42.1485 27.7797
-15.3788 -1.2660 49.4861
-49.7688 11.2484 -9.1392
-0.3552 41.4254 31.1575
-51.4481 -4.3795 4.5714
25.6425 -42.1399 -15.9270
20.9443 -27.9782 -38.2823
-8.9311 -44.0114 -25.8885
-50.4180 -12.0403 0.1864
19.6275 33.7658 34.0824
-41.2168 -20.4037 23.9132
-25.8464 -33.2219 30.2530
35.1074 9.7451 -36.8711
-16.5099 -46.7450 15.1430
-0.3705 -39.3063 33.7914
39.8624 0.3391 33.1339
5.9983 -21.0919 46.9695
46.2102 -11.5498 -20.4499
14.5497 36.7871 -33.4961
-50.2341 10.2372 -7.6626
-14.2033 -8.7008 49.0871
-6.1679 16.9138 48.6093
6.0899 51.1080 -6.1533
2.2824 -12.8090 -50.1767
-21.4596 36.9577 29.3360
4.4598 40.9589 31.4557
45.2481 -16.5864 -19.0914
40.4556 14.2914 29.0874
8.1853 -15.3538 -48.8287
-17.1868 45.0459 -19.0384
4.8264 -20.8560 -47.2093
-1.6507 35.1683 38.0453
50.8581 0.9008 9.9810
35.6388 35.9407 11.1859
-20.7640 45.8687 12.3248
-36.7574 -7.8147 -35.7044
-10.1106 -6.3598 -50.4412
39.3161 -6.0076 -33.2436
-36.5860 17.1717 -32.4589
49.9487 11.6261 -7.5457
34.5386 -15.0357 35.6089
23.5474 41.9832 19.2331
49.1175 7.1876 14.9263
-51.2391 7.4343 -2.5035
47.4142 -20.5723 3.9566
-19.5215 47.8631 -3.8754
36.0673 -29.0896 -23.2364
30.3158 -10.1192 -40.8110
32.0245 35.4218 20.1670
-33.6808 -35.3551 17.3953
-30.8300 -33.6618 -24.5636
24.1235 2.7954 -45.7954
-10.5344 31.6653 -39.6650
46.4576 3.5308 22.7202
-31.4895 -34.1671 22.9783
-25.8542 -28.1552 -35.0118
17.3307 7.9889 -48.1955
1.7872 -37.7974 35.4280
29.3133 -41.5828 -9.9288
-30.3148 -32.9453 -26.1266
-35.4522 11.8909 -35.8989
39.9623 -4.5317 32.7026
35.0410 -19.1241 33.0663
32.0903 -22.8309 33.7038
30.2053 40.2079 -12.5677
29.8141 -11.6759 -40.7648
24.5711 -45.3779 4.9078
-4.5253 51.3077 5.8328
-26.6807 34.2662 28.3010
32.9032 -32.3428 23.6284
44.6803 16.4790 -20.4718
-21.7055 47.0693 -0.5742
-38.1113 20.6163 28.4513
-44.6125 22.0397 -14.5245
-43.7861 -22.5223 16.2018
-43.6351 11.9952 -25.2799
-16.3819 -0.6950 -49.1745
25.0821 -43.8685 11.5507
-35.0095 28.6450 25.3136
-39.4088 26.8120 20.3726
48.9875 -15.6517 -6.4982
-8.4882 35.1762 37.1156
48.9472 -8.3812 14.8630
20.9822 40.7651 24.1855
32.8322 3.4392 -39.9650
12.1023 44.6304 -23.4230
-46.2673 22.0214 7.8345
38.2322 -8.5068 33.9546
3.0828 -49.5519 -14.9027
41.9978 27.2002 -13.5392
-33.6995 22.5874 32.2666
-1.1096 5.9644 -51.4798
15.1021 -42.8435 24.9668
-16.9039 47.2042 -13.1529
2.2713 4.8783 -51.5560
48.6610 -9.1100 15.3654
12.4910 28.7115 41.3111
24.3650 27.4409 -36.6105
21.5682 44.0188 -16.8564
-50.7888 -7.2021 -7.4571
-46.4904 -14.2174 -17.9859
0.5131 -38.7905 -34.3804
-3.6266 50.4994 -11.1192
-16.7408 -48.9477 -3.2944
-35.8118 -3.1259 -37.3460
-1.5160 -25.2067 -45.2693
-8.8901 32.0074 -39.7928
15.0274 -36.3889 33.7195
35.3245 36.8147 -9.1564
-5.4072 -18.8684 -47.9763
15.5502 4.0259 -49.2845
5.0426 4.2142 51.4178
16.0253 7.0880 48.7845
15.8442 -48.7913 7.4396
23.8053 -43.6228 14.7426
44.5137 -25.1189 -8.6343
-11.5872 46.4964 19.7687
10.1315 38.4843 -33.2158
10.2727 -47.6768 17.5606
28.4831 30.8755 -30.3710
-37.4195 -5.8668 35.3884
-18.1000 -4.7850 48.3371
-25.7949 42.1160 -15.7432
-46.4964 -10.4282 20.4040
28.2126 37.9931 21.1554
18.8420 -47.7219 7.3877
47.8429 -18.2418 -8.0791
18.4985 8.9039 -47.5973
24.0622 -36.1499 28.3051
42.8167 -18.4458 22.6598
-35.8673 -35.3427 -12.3048
50.7974 8.3259 6.1059
-3.3890 -43.3261 28.2550
-3.9276 -28.2913 -43.2569
10.5363 -4.9177 -50.5152
-23.8725 -12.0001 44.4194
18.4766 -48.3923 -1.9446
39.7884 3.5770 33.0314
39.7257 -20.3497 -26.3579
0.4766 -23.3883 -46.2573
-8.7512 51.0094 2.9044
-0.1802 41.7858 30.6740
49.1330 -14.3501 -8.1855
-50.2032 12.8902 0.6805
-18.6371 16.0717 -45.6217
32.1368 -35.2965 -20.2081
34.4153 34.9942 -16.6725
-39.1396 -20.8610 -26.8308
31.2768 9.8680 40.1418
37.2996 -30.9399 -18.3966
30.6585 -35.0874 22.7137
-21.2933 -27.3336 -38.5545
-23.7445 38.3165 -25.5935
-24.5806 17.2843 -42.2378
-5.6865 -16.5991 -48.7762
-7.9010 -44.8518 24.7562
-49.7088 12.3624 7.9487
-21.3793 -41.8294 21.9136
20.5068 26.2004 39.7491
-0.4163 -7.6024 -51.2739
-0.2192 38.5336 -34.6712
-40.6945 -2.4926 -32.0114
5.2116 -22.1261 46.5860
-11.2756 -9.4895 49.6970
-47.5951 14.6894 14.3496
-40.7786 7.5024 31.1094
22.9458 37.9951 -26.7739
-1.8336 -51.3586 6.7762
-43.1352 -5.5078 28.2134
-3.6269 -49.4522 -15.1096
-9.0616 48.5767 15.6579
-32.4861 -28.6982 -28.4262
-49.9928 -13.6321 1.3673
-45.4068 -24.3022 5.8832
35.7189 15.4143 34.2569
-21.0595 32.4267 -34.5251
51.3397 2.9280 6.5300
8.8659 -0.0428 51.0722
33.6494 -38.5404 8.3267
-43.2286 24.4683 14.8179
-31.0353 39.2756 -13.4618
-49.1944 1.6348 -16.2549
-2.9120 50.0746 13.0780
20.8097 -12.0301 -45.9262
20.3067 -19.1559 -43.6769
44.2767 -26.1490 6.5408
43.6534 -27.9513 -0.2955
2.4576 -50.2426 12.5147
-37.3950 -13.0924 33.4243
-46.4844 11.3006 -19.9619
-4.1072 11.0063 -50.4873
19.7437 47.7972 -3.5480
-34.9781 15.4733 34.9870
10.7703 21.9208 45.7216
0.8217 -26.6732 -44.4392
4.0764 51.2232 6.8224
29.0380 35.8957 23.5642
24.5131 -43.0122 15.3635
-15.9028 -33.1307 -36.5573
-33.0273 28.5679 -27.9294
-24.2022 -21.6152 -40.4230
42.2935 -4.0123 -29.7008
-28.1750 22.2857 -37.3697
16.5677 19.9344 44.8900
21.3793 -42.2005 -21.1901
30.7374 27.9530 30.9971
23.0148 38.0224 -26.6757
-12.3199 -28.0366 -41.8228
-38.2087 34.3285 6.9733
39.3436 -21.9746 -25.6159
21.6059 -20.9814 -42.1894
31.8645 -20.7299 35.2407
12.5739 -3.1954 -50.1863
29.3153 30.2015 30.2566
-40.5072 10.4865 -30.5971
38.4464 11.2402 -32.9016
37.0807 27.9337 -23.0589
25.0413 2.8494 45.2967
21.7996 -6.5759 46.5673
21.3905 20.5528 42.5089
-37.9782 27.3392 22.2981
-42.1993 27.1451 13.0131
6.4992 -51.3580 2.6638
-26.1322 -44.5540 -4.3627
-2.5667 -2.1457 -51.7280
-30.5444 -8.3115 41.0480
15.5784 42.1487 -25.8415
-45.4338 -21.8677 12.0232
-47.1471 4.4411 -21.0810
-24.0829 16.0535 43.0033
39.1835 33.8895 1.7704
22.5047 41.5782 -21.2549
-37.7683 32.9243 13.2862
-40.5306 -30.4613 10.7870
14.1329 17.4396 46.7237
-10.9843 -46.6150 19.8334
45.0454 -7.4619 -24.5400
27.7398 -10.9549 -42.3967
23.8027 -44.2504 -12.7404
-48.7243 -15.7482 -8.0574
26.4644 17.4615 -41.0086
-2.7307 15.9098 49.2585
37.1301 -31.5829 -17.6312
3.3152 25.5697 -44.9687
48.0579 -1.5947 19.3618
-25.4540 -44.7234 -6.2361
5.8476 47.3149 20.3492
9.3513 -33.1567 -38.7320
36.5563 -16.2198 32.9778
-41.7088 22.7634 -20.7168
-29.6327 30.8436 -29.2841
50.7215 0.4275 -10.6830
-35.9219 -33.5503 -16.4611
24.8697 -13.1786 43.5293
-12.1740 -4.7966 -50.1574
-5.3084 -37.9996 -34.8544
-29.2427 42.8000 0.0635
-30.4234 -8.9457 -41.0046
38.4452 28.1673 -20.3850
13.5534 -34.0932 -36.6188
1.4718 -47.3624 21.0147
-43.0825 -6.9756 27.9681
28.7526 -5.1243 -42.8253
41.1664 -30.9960 -5.6177
-33.3269 -30.6960 25.1804
-35.5884 28.6372 24.5022
2.6301 -2.2274 -51.7214
-42.7851 17.5234 23.4382
-0.8952 -24.2603 45.7997
16.2234 -36.8155 32.6864
-16.1913 39.0896 29.9471
8.6438 -27.7135 42.9445
47.8169 13.2988 -14.9556
50.4694 -10.1575 -6.0535
-46.9338 9.1572 20.0087
-4.1784 35.9810 37.0794
39.7748 -31.3624 -11.0159
18.0487 34.7749 33.9401
36.5479 27.8303 -24.0147
-46.1154 13.5001 19.4448
23.5365 45.8386 -5.6425
-47.0897 17.7882 12.3741
11.4895 -44.7249 -23.5510
42.7413 -12.2149 -26.6638
43.4200 14.7375 -24.1762
43.0341 -22.0742 18.6487
23.4574 -43.1653 -16.5374
-30.4940 -37.6223 -18.4841
-27.2625 -27.5581 -34.4135
-27.3417 17.9208 -40.2276
-20.0624 36.8280 30.4660
46.7242 -11.1155 19.5006
-35.4070 19.1730 -32.6454
-1.8384 -42.8576 -29.1004
-17.2485 -47.2058 -12.6919
26.9968 -35.1616 -26.8666
-44.0851 -17.1722 21.1802
24.0304 15.7577 -43.1418
-2.2862 47.0829 21.5629
-46.9995 -6.6535 -20.8269
-32.4315 -29.0988 -28.0791
3.5868 -9.5333 50.8255
-10.7159 -22.6333 -45.3859
-34.7689 17.8312 34.0611
5.2254 -37.0686 -35.8552
46.4981 8.2567 21.3714
38.4214 -21.3632 27.4661
-34.1060 -12.9802 36.8140
-28.0975 7.7691 42.8620
7.5257 11.6960 -49.9354
11.9781 -23.6369 44.5511
-49.8046 -8.9858 -11.2134
41.0884 -18.1306 -25.8845
24.2540 -4.1020 45.6278
15.7996 -34.5956 -35.2207
28.0224 -8.8670 42.6978
-6.3727 -50.4735 9.9395
-43.2587 -25.7777 -12.2953
-1.5446 -51.8131 -0.0028
20.0274 18.3500 -44.1493
-37.3454 -0.6243 35.9432
34.2034 34.9533 17.1864
-50.7868 -9.6343 3.8550
-1.3037 -50.5838 11.2499
-22.9711 43.0766 17.4275
14.7786 -48.6639 -10.0199
-18.9785 -20.5943 43.6196
3.1386 -15.7047 -49.3000
4.3326 -5.1188 51.4005
18.5965 30.4228 -37.6246
9.3046 48.0966 16.9448
33.8478 -12.2536 -37.2982
-3.0070 38.3546 -34.7399
25.5307 -20.6082 40.1307
50.7695 4.4636 9.4611
0.9042 26.7311 44.4028
-26.0629 -5.8043 44.4299
-44.6743 23.0722 12.6041
45.4217 -16.7037 18.5698
49.9844 13.7093 -0.7710
15.8651 29.5599 39.5157
-46.8117 -1.6452 -22.2022
-8.9983 35.4038 -36.7774
-18.4730 34.3007 34.1934
14.1079 36.8913 33.5705
-12.0345 9.9905 49.4200
25.8405 4.4740 44.7128
-40.2813 -5.7380 32.1165
31.2211 29.6136 28.9008
-50.3161 7.6478 -9.8376
-22.7772 10.0920 45.4569
-17.6396 -12.6701 47.0669
24.3398 -11.1740 44.3813
0.8886 51.7297 -3.1979
47.8664 5.3625 -19.1580
44.2202 -10.1076 25.0876
35.5833 37.5806 -2.9174
-29.7506 42.3302 -3.1670
49.5466 -14.7419 -3.8462
-0.1667 -26.6041 44.4879
-19.3023 -46.2237 -13.3329
-49.2132 -13.5987 -8.9510
31.6324 40.8223 4.4616
23.3361 45.6756 7.4933
-3.1509 -47.7938 -19.8194
51.0495 5.6586 -6.9937
-23.8313 11.8104 44.4923
25.3737 37.8167 24.7599
-21.5915 44.7489 -14.7757
-50.6872 -7.8065 -7.5397
21.5942 17.3164 -43.8271
9.8911 -46.7182 -20.1631
-28.1366 -38.3114 20.6772
29.8461 39.5881 15.1319
8.8553 -3.5220 50.9525
-15.7113 32.0201 -37.6145
25.7778 44.5990 -5.7807
21.6716 39.6558 25.3917
17.0964 1.5336 48.9116
-18.4335 -48.3490 -3.0922
-38.4426 26.9633 -21.9575
1.4258 51.8072 -0.9823
-47.6696 17.4517 -10.4895
-9.3097 50.6018 6.3061
8.4232 -29.3298 -41.9022
32.8429 32.2907 23.7831
-11.6825 -50.1743 -5.7483
20.3272 42.0391 22.5056
-22.2288 1.5968 -46.8008
-33.2575 -3.4667 39.6094
37.5697 17.2200 -31.2884
48.6837 -1.7455 17.7152
11.5195 -5.1599 50.2758
-45.1810 15.8215 -19.8830
0.8312 44.1339 -27.1751
6.4263 -42.1391 -29.4954
26.9780 -38.8414 -21.2253
-6.1345 40.7551 -31.4383
48.9424 -2.0480 -16.9538
-36.9560 2.5949 36.2561
-21.4200 -46.6953 6.9075
-21.6542 43.0817 19.0275
-27.4695 -34.7754 26.8902
-16.1127 -36.3078 -33.3032
-39.3426 -0.7222 -33.7434
34.9314 38.0048 -4.7342
47.3941 -15.1572 14.5273
-49.3107 3.5697 15.5787
-2.1644 45.4454 -24.8398
-40.2056 -32.4944 3.8219
-18.6151 -32.8508 -35.5146
-38.7586 9.9769 -32.9426
17.3885 -43.4571 22.2734
-9.0942 -19.2888 -47.2464
-3.8529 -51.5669 3.6038
-36.0598 34.9467 -12.8610
-34.8258 -8.0247 -37.5466
-5.8216 -24.9059 45.0864
-29.4769 -24.2886 35.0451
27.2841 32.8563 -29.3772
29.4763 -21.2168 36.9861
-47.8862 -18.6199 -6.8698
-20.6725 -17.8585 44.0534
-32.8602 38.4012 11.5124
-15.7365 48.5639 8.9939
-28.5564 13.7547 -41.0161
0.4566 -51.8209 -1.1701
-19.7890 -18.9970 43.9828
11.6801 37.9739 33.2948
-22.6404 -12.6557 -44.8801
14.6675 -49.4416 -5.2323
2.3385 18.0804 48.5243
-29.0992 -4.7530 42.6336
-26.5831 -44.0913 6.0231
49.3390 11.6992 10.7599
-39.6316 -9.3944 -32.0634
19.8851 -44.7180 -17.0839
2.2682 45.8082 -24.1545
-46.4559 22.8004 -2.9961
-30.8039 23.4634 -34.4612
-39.1466 -28.4282 -18.6109
-6.4950 13.3931 49.6530
50.0616 13.2740 2.1491
-22.2456 43.7065 16.7886
-1.4803 42.0105 30.3299
42.8597 28.7603 -4.7824
8.6805 50.1469 -9.8445
-30.8562 -22.6417 -34.9604
-19.0484 -9.7374 -47.2157
-30.9371 40.5358 -9.3125
-23.6563 -13.4600 -44.1156
50.8241 3.2539 9.6593
-19.4893 0.4146 48.0310
-33.4915 -20.3918 -33.9039
-49.1430 -12.7416 10.4688
40.3456 15.6922 -28.5127
-3.6675 44.1470 26.9179
-9.3107 -50.9686 1.5786
-23.8050 -19.9524 41.4995
48.1827 -10.1156 16.2197
-40.8212 -30.6473 -9.0193
-17.5513 -45.7958 -16.7831
-31.7469 35.0343 -21.2535
-45.9149 2.8149 23.8931
44.3902 20.0227 17.7647
25.5126 28.8089 -34.7294
-22.4558 -35.8228 -29.9907
37.6032 -3.0740 35.5462
38.8715 33.0410 9.1805
15.3458 10.2021 -48.4500
3.2162 -20.9693 47.2961
-39.5502 28.2357 -18.0419
-5.3014 51.1351 6.6393
-42.8366 -3.3533 28.9960
27.3897 -26.0149 35.4967
29.9183 6.5416 -41.8221
-43.8538 9.5497 -25.9351
-42.3289 27.3964 -12.0285
8.8022 -47.0761 19.8330
30.2576 -39.0392 -15.7289
42.0342 -12.6647 -27.5629
8.9592 -48.8016 15.0038
-14.2328 -35.2987 -35.1910
1.0057 47.1973 21.4100
-49.0343 11.2763 12.4687
5.6865 24.8824 45.1166
-45.2466 25.2743 0.9694
-4.6781 39.6643 -33.0430
-32.1338 -30.8462 -26.5125
46.1431 4.7431 -23.1366
-27.5869 30.1908 31.8506
-42.1680 1.3071 30.1186
-5.8298 6.3212 51.1179
-20.9260 37.6608 28.8227
-29.6127 -42.1786 5.5710
-25.6413 -41.0696 18.5145
26.8911 3.6751 44.1627
-24.0916 35.0878 29.5875
-46.0066 -23.6860 -3.0566
-25.0611 -17.1077 42.0268
-5.2923 -15.9845 49.0252
-18.5830 -46.4575 13.5407
3.6955 42.7704 29.0520
34.6457 -37.6109 8.4895
-47.9877 -3.4944 -19.2859
27.8044 36.5489 -24.0431
-42.2056 -4.2041 -29.7993
22.0065 13.3284 -45.0005
14.9819 46.7890 -16.5322
-39.8630 32.6797 5.4738
40.9992 -6.1666 31.1130
20.3138 -27.3214 39.0880
-23.6779 -46.0074 3.1070
36.9619 -29.8031 -20.7984
-42.8481 29.0720 2.4172
51.5116 -0.9682 -5.7098
8.7692 -49.3853 13.0835
-9.4354 -50.0696 9.5388
38.4034 25.6072 23.5888
-4.3688 0.6258 -51.6479
25.4552 44.4576 -7.9078
-50.1472 -11.7260 5.8939
-15.2336 12.3687 47.9784
-1.1216 51.5963 -4.8525
-3.7265 -28.9197 42.8573
37.6693 32.2696 -15.0557
47.3290 3.4960 20.8500
-1.3406 13.4152 -50.0521
40.7988 -21.6299 23.5497
-21.7709 -24.2359 40.3191
11.7123 -11.2336 -49.2302
-25.3776 15.7309 42.3733
-2.2301 -3.1755 51.6906
-0.2352 -39.0920 34.0403
-47.6560 15.3271 -13.4523
6.4563 38.7494 -33.8199
38.7413 -33.7594 -6.8114
0.2279 32.5941 40.3057
43.7601 24.2205 -13.6162
-11.1340 -22.7286 -45.2374
-8.9280 -26.4766 43.6608
-5.6363 30.7038 -41.3822
-0.5713 -32.9087 40.0459
47.1225 -15.6533 -14.8804
-15.8957 -27.3416 41.0700
33.0420 -17.6619 35.8227
-33.7321 -37.7253 -11.2219
5.3310 51.5597 -0.4035
-40.8324 16.7549 27.1840
-35.8275 -2.0395 -37.4060
12.1716 -9.8957 -49.4056
-8.2459 -41.0002 -30.6263
29.1825 38.5619 18.6639
-47.7017 -7.0737 19.0129
-17.2847 16.0866 46.1458
50.0543 -4.0544 -12.8495
38.7058 -34.4391 1.6694
-35.1712 -37.2610 -7.8478
-37.4440 31.6126 16.8988
-31.3728 32.7050 25.1618
-36.9899 8.8013 35.2316
-45.4220 21.1974 13.2094
35.5539 -37.6854 1.6466
-36.1097 34.0855 14.8745
-40.9734 0.1768 31.7511
