ply
format ascii 1.0
element vertex 1024
property float x
property float y
property float z
end_header
48.0172 -24.8686 -30.1397
59.7910 16.0465 0.2385
56.9394 -5.9688 23.5538
44.7221 39.5225 16.4441
-11.3296 40.9700 -45.0067
48.5489 -20.6145 -32.4122
-53.4920 5.2616 -30.7152
-48.8298 37.8883 -3.5547
49.4639 31.2428 20.2415
-48.3517 30.8114 -23.3511
-54.9251 26.5959 10.4117
44.9258 -2.6924 42.5080
-61.3896 -4.5199 6.5871
-35.3353 -45.2637 -23.1326
-32.7588 52.5150 -1.2418
-18.3128 52.0188 28.1282
-61.3075 7.1835 -4.7217
-59.3302 1.6175 -17.6015
-16.7770 -59.5214 2.8705
58.9929 -15.7776 10.1693
-11.9237 -60.5306 -5.1364
-21.7351 1.7236 -57.9407
-55.7670 -22.1964 15.1614
-0.7439 61.8453 2.6676
26.2045 -55.6377 -7.0909
14.2169 -1.9949 60.2197
42.1940 -19.4697 40.9036
23.2536 53.8076 -19.9128
46.8819 -4.6687 -40.1597
-47.6124 -28.9194 -27.0043
-43.7909 12.4498 41.9508
-31.4863 -1.7931 53.2720
44.2298 -42.3131 -9.2647
-4.1920 -6.4392 -61.4286
-19.0752 58.8338 -2.6889
-36.7936 7.4611 49.2247
35.4966 -47.8212 16.9006
-17.8871 -21.5847 -55.1965
28.6756 22.2493 50.1516
-61.7213 -1.1149 4.6629
6.8412 17.3562 59.0294
20.8924 46.0467 35.7172
5.5912 31.2864 -53.1263
32.6962 -6.9901 -52.1019
-15.5109 -23.0080 55.3403
34.0253 47.5513 20.3385
25.1259 49.6837 27.0690
-33.0999 -2.7794 -52.2416
43.1947 -44.2613 -2.7691
47.1297 -32.1109 -24.0870
48.5796 38.3688 0.6020
30.2625 -34.1781 41.8156
-43.1987 41.4201 -15.8351
17.1171 53.6697 25.6725
-26.3458 14.4696 -54.1206
5.8035 57.7131 21.6339
48.0540 31.3009 23.3147
-12.0212 -21.4740 56.8055
-42.6984 -26.3804 36.2412
9.3207 5.5382 60.9505
20.6745 28.6131 50.8563
-50.2818 -15.2728 32.7261
50.2100 10.9333 34.5243
-10.7190 -33.5154 50.9345
-23.1682 -29.0628 49.5086
-55.1450 -20.8003 18.9442
-0.2578 -18.8349 -58.9719
-47.9170 38.3095 -8.2975
-39.6110 -47.3485 4.6472
39.3889 -41.4758 23.6807
-3.4509 -59.8236 -15.5478
-39.0528 -12.1518 -46.4727
-16.8730 25.2903 53.9278
-20.9150 58.1243 -4.0786
-18.7847 -52.9022 26.0959
-53.2575 -31.5543 -0.6876
-21.6370 25.6963 -52.0004
13.2117 43.5237 41.9958
-19.5026 47.5214 -34.5524
-47.9041 -2.4993 -39.1339
-61.7790 -3.5554 1.7953
2.1607 -20.3258 58.4354
-46.3208 -25.4073 -32.2702
-34.6055 -19.0606 -47.6619
-52.0312 -4.7819 33.2024
-14.3357 60.1941 -1.9147
25.5178 56.2519 4.1315
-56.4117 -23.0048 11.0005
56.1672 21.9336 14.0241
49.8566 36.6706 -1.4481
49.8760 -18.1325 -31.8764
59.2504 17.3625 -4.5208
-4.9281 47.9482 38.8483
-14.9311 -33.1527 -50.1046
-52.8868 8.5784 -31.0146
-4.7536 -15.4126 -59.7692
46.1696 -38.1566 15.6508
2.5725 29.8996 -54.1470
35.5075 0.6574 -50.7079
-14.1099 -5.1490 60.0575
-55.2142 -13.8497 24.3327
-19.2361 37.0735 45.6950
-44.2128 -43.3065 -1.5119
-26.5166 -55.7289 4.8644
-36.6481 48.9846 -9.4834
-55.0043 25.9149 -11.6385
-53.8852 30.2889 3.3873
47.4423 39.3573 -5.7218
-2.0703 -36.1032 50.2472
-16.0964 59.1531 -8.6211
20.6408 21.9169 -54.0936
11.0446 60.7936 3.8291
-47.6982 -36.4539 -15.1162
-32.2431 46.1753 -25.7047
-16.6738 38.0376 45.9089
24.0138 -29.4724 -48.8592
-29.2888 29.4575 45.9013
22.6615 17.9000 54.7591
8.3874 36.0082 -49.6545
55.9764 22.5631 13.7862
-25.4268 56.3853 2.5842
-1.2604 -10.7356 -60.9563
-21.7949 30.1460 -49.4845
4.0148 29.9118 54.0525
61.4474 -2.8566 -6.9689
-3.2824 -54.1022 -29.9114
8.1779 60.0684 12.5465
-25.9139 -54.9661 11.8195
-45.9819 -3.2568 41.3227
37.8834 -2.4819 -48.8998
-32.2626 -32.4785 41.6746
-25.0246 34.1457 45.1702
17.6440 -25.5351 53.5645
51.9007 -33.6667 2.3194
-19.8533 -39.8278 -43.0360
2.6007 -32.3342 52.7280
54.7378 -16.9162 23.4545
2.4648 41.9361 45.4731
-29.3261 22.9272 -49.4654
-54.6034 8.4860 -27.9099
-14.4536 31.3184 51.4078
-59.2815 1.3933 17.7841
35.9833 -1.9875 50.3365
-6.4206 -46.7062 40.1225
14.5400 60.0978 -3.0576
56.9049 21.9115 10.6877
58.6704 -14.4644 -13.4562
-49.0619 -34.5199 15.2912
0.5444 -54.2491 29.8201
-37.9060 -38.7292 -29.9281
-14.8942 -34.0717 49.4954
60.0242 14.5290 -4.3023
51.5997 -4.9170 33.8498
-14.4974 6.6662 -59.8155
-52.2552 2.6420 -33.0896
32.5312 47.8578 21.9967
-5.3796 -60.9724 -9.2699
9.4663 -13.0744 -59.7659
32.6193 -51.0951 12.5611
-25.8514 22.1591 -51.7029
-23.9336 13.3719 55.5057
48.3598 -37.8327 -7.9076
16.2461 52.4612 -28.5727
-18.1646 -49.8924 -31.8325
-32.4366 44.0669 -28.9565
33.6213 -17.5157 48.9420
-49.8257 5.8248 -36.2764
33.0115 3.5070 52.2537
-22.2733 -29.7998 49.4811
-41.8053 -11.6993 -44.1356
20.7621 -39.0264 43.3403
30.4410 -51.9795 14.2825
-16.1304 -50.4497 -32.0492
-41.1318 25.9585 -38.2993
-45.6685 40.9176 8.5231
23.2191 -38.5923 42.4737
-3.4087 -23.5662 57.1448
32.5612 -46.8487 24.0307
36.0454 30.0751 -40.3575
51.8039 26.1170 -21.6048
-20.2606 -58.4979 -0.1074
11.2027 -18.4234 -58.0309
-15.0495 -53.2542 27.7491
7.9049 -10.5333 -60.4903
-46.5453 -40.8170 -0.1204
26.2088 -25.1246 -50.1434
25.6166 -40.2396 39.4597
-1.2711 -61.8044 3.3327
32.0901 31.1373 -42.8159
-19.0358 -52.6192 -26.4833
48.2189 25.0842 -29.6350
51.2314 27.0256 -21.8511
-7.8089 -31.0935 52.9596
11.2852 -50.4348 -34.0806
58.2526 20.2827 5.2686
-43.4408 -40.4963 -17.4772
6.3532 27.2109 -55.2423
8.3085 41.9111 -44.7989
-15.9317 54.1678 -25.3877
-29.8089 42.2897 -33.9930
-25.8788 -41.5634 37.8850
52.0672 -10.6206 -31.7603
38.6658 39.4380 27.9662
-40.7468 45.1301 -11.6398
32.6436 39.2946 -34.9691
-12.4520 52.6610 -30.0711
13.3453 46.9406 -38.0919
-30.7098 -1.0281 -53.7435
-5.6776 -57.0676 -23.3145
-22.6794 51.2803 -26.2390
-34.6529 -42.7400 28.3721
-33.7380 33.7453 -39.4399
-27.6438 51.8524 19.4848
22.1728 34.5470 -46.3398
-1.0774 -13.2692 60.4589
-28.6296 1.5127 54.8686
-47.1495 -29.1649 -27.5470
1.5049 -58.1371 -21.2209
-44.3137 29.5390 -31.5635
29.8693 29.9516 45.2021
42.6768 24.4888 -37.5699
-7.7333 10.6133 -60.4984
-38.7185 -25.8527 40.8047
30.3094 -53.5976 -6.4146
-4.9288 58.4413 19.8200
-15.4224 -49.6088 -33.6693
16.0406 -57.2387 -17.2899
1.7604 53.4259 -31.2263
29.0983 -12.8168 53.1180
36.5017 6.3534 -49.5961
40.3630 -28.0978 -37.6012
58.6221 5.3497 19.1660
14.6331 -27.5605 -53.4677
27.3101 -25.9677 -49.1156
-56.3266 -7.3971 24.5989
-13.0978 -29.6313 52.7536
22.3172 20.2317 54.0844
51.1410 31.0002 -16.0030
-46.5010 -12.1731 -39.0126
3.8982 -6.2767 61.4647
27.4473 30.5315 -46.3355
-18.4858 20.1197 55.5516
48.9177 34.5942 15.5823
58.8589 14.1544 12.9535
-29.7182 45.1135 30.2343
-6.5533 61.3479 -5.0986
-54.8273 14.6453 24.7384
1.2931 61.6456 5.5363
-60.0091 -1.8592 -15.0982
-19.7690 -29.2602 -50.8481
-46.8501 22.3239 -33.7523
20.6488 55.9046 -16.7573
-26.5289 -23.6373 50.6952
-57.5976 20.6727 -9.3630
13.3538 -58.4421 15.4501
48.7568 -8.9466 37.0842
41.6581 -36.4653 -27.7019
-24.0003 37.2810 43.2044
-52.4339 32.3347 6.1371
-38.5357 23.7751 -42.2167
-51.7031 13.7826 31.1342
54.8003 27.0080 9.9999
20.3737 55.7124 17.7072
61.6759 4.5564 2.7974
39.0210 -38.3239 29.0026
46.9324 -28.3104 -28.7815
31.0541 14.3618 -51.5935
12.0968 -55.4981 -24.6198
32.3017 11.7533 -51.4875
-23.9144 56.0428 10.9461
49.0422 -16.1701 34.1452
15.8812 44.2710 40.2539
47.0117 27.6379 -29.3011
25.6693 -54.4453 14.4673
-30.1868 54.0413 -0.8944
-34.9426 -25.7968 -44.1141
3.2266 54.7841 -28.6497
12.8572 -1.4272 -60.5406
37.4868 -21.4847 -44.3357
-19.2712 54.4991 22.1580
-52.6015 32.5257 -2.7693
1.6397 -46.5341 40.7971
32.9675 -48.3512 20.1945
-44.5601 -7.1473 -42.3772
31.0554 -29.4344 44.7402
-39.2850 -47.8278 -1.3031
-3.2766 42.3734 45.0141
-13.2584 25.5543 -54.8060
-8.2418 52.9081 31.0694
33.2531 41.1467 32.1511
-31.5991 23.3279 47.8520
27.1171 -50.3900 -23.6223
25.3526 -56.4615 1.3616
-29.3129 -25.0461 -48.4350
-36.4855 41.8028 27.4561
-31.6693 24.4739 -47.2292
25.8408 54.4852 14.0043
-43.0829 -31.4679 31.4030
-33.0495 37.4830 -36.5412
-38.8304 -44.8634 17.6631
11.4233 -0.1994 60.8439
52.6763 10.1754 -30.8897
43.7425 28.1961 -33.5273
-27.0441 -26.1679 -49.1565
-25.7104 -55.7884 -7.6901
24.2399 -41.7489 38.7551
33.2013 -29.3484 43.2302
61.4390 -6.8179 3.3574
-60.3043 -8.4415 11.1642
14.1504 36.2702 48.1326
-53.9377 20.2092 -22.6896
18.8081 42.7798 40.6035
-32.2025 25.6314 -46.2443
-33.8017 12.8501 -50.2477
-46.2481 41.0172 -3.3481
61.4015 7.8185 -1.1083
1.3214 45.6961 41.7448
-11.5356 -11.2137 -59.7804
28.2407 -13.7149 53.3561
59.9481 -9.6449 12.0711
6.0042 57.4843 22.1814
-58.1960 -12.9834 16.6481
36.6407 -49.8250 2.7267
56.5292 -23.0838 10.2023
60.9554 -3.9045 -10.0848
42.0072 -35.2122 -28.7751
-31.7044 -50.9933 -15.0672
7.2890 36.4441 -49.5096
6.5718 58.3735 19.5411
11.1791 22.1104 -56.7333
51.3337 34.4406 3.3477
8.1196 -61.1086 5.6844
-50.5842 -32.7072 -14.2823
51.2736 -28.3560 -19.9866
-14.3981 54.2581 26.1010
58.2395 10.0841 -18.4115
-38.4660 0.2607 -48.5057
-40.9442 37.3098 27.6416
19.7849 33.8183 47.9311
30.1971 42.8646 -32.9131
44.8656 -21.3133 36.9503
-60.2476 11.3513 -8.5952
-42.4507 38.6054 -23.2394
25.8073 21.7912 51.8810
-32.5775 12.6021 -51.1116
3.4526 47.5674 -39.4707
60.2820 -9.2315 10.6476
-53.7188 19.3791 23.9008
55.7160 22.5813 14.7756
-7.1710 -42.5785 44.3639
-0.4937 -17.4401 -59.3979
24.0590 24.5970 -51.4652
-11.2452 -22.6016 -56.5263
54.8710 27.2876 -8.7789
-16.8076 58.5050 11.2770
-57.7100 -8.6543 20.6679
42.1235 -25.2724 -37.6752
-43.3735 -19.0915 -39.8341
-8.9338 24.7688 -56.0286
56.4353 -0.8753 25.4322
-5.3596 49.8126 -36.3661
24.3264 11.7359 55.7046
27.4031 55.4778 1.9488
-55.9621 24.6260 -9.7112
59.5484 15.4833 -6.8381
11.3772 60.8280 1.7390
-32.2369 11.7358 -51.5322
11.4188 6.7581 -60.4686
-6.4225 22.6349 -57.2619
-24.4587 -34.3606 45.3170
-50.6971 -34.4692 -8.6129
-47.5432 7.4807 38.9383
-52.4170 27.2044 18.5710
-22.8984 -57.1863 6.1559
21.5177 37.7041 -44.1349
31.8438 -19.1074 -49.5317
-46.3350 6.1312 -40.5953
56.4863 -10.4712 -23.0684
13.7834 49.2253 -34.9199
-9.4233 53.7688 -29.1997
24.0853 -53.8340 -18.8231
57.3713 22.8582 4.3063
-14.0375 -39.4529 -45.5952
12.8294 50.3738 -33.6213
-51.9367 -15.9396 -29.6819
-36.7071 -26.0875 42.4799
-23.3128 30.2763 48.7069
40.9793 -31.3406 -34.2194
-10.7449 -45.8714 -40.1605
-50.3762 -35.5145 -5.7852
31.0636 -9.5302 -52.6947
-38.9888 6.0963 -47.6993
40.7450 18.0442 -42.9740
56.0314 20.4071 16.6296
-13.1919 -51.3974 31.8870
54.0043 16.0020 -25.6901
-12.6178 34.3032 -49.9659
-0.7040 -6.6386 -61.5462
-5.0326 -32.7663 -52.2834
2.3551 45.5321 -41.8783
35.3455 45.4175 -22.8135
52.0126 27.0626 19.8699
-23.5969 56.8697 6.4445
30.4917 51.6256 -15.4128
-56.5491 12.6222 21.8033
-54.6703 -24.7942 15.1298
60.6839 -9.4200 -7.8249
17.9305 -51.3679 29.5355
-36.6386 -47.0735 16.5593
19.1226 -57.7721 11.3672
-55.9367 -7.0429 25.5731
43.1922 31.9940 -30.7136
-14.3294 43.9553 -41.1716
11.6805 -31.0399 -52.2742
-36.9683 48.7943 9.2181
29.8720 27.5772 -46.6869
44.0801 -3.7880 43.3025
-37.0833 -46.5356 -17.0814
-54.2014 -2.8889 29.7720
24.1897 17.8955 54.1028
32.3790 7.0182 -52.2958
-60.6489 -9.0964 -8.4543
-5.7339 -23.6515 -56.9231
-4.9117 61.3452 6.7195
45.6339 -36.4653 20.5021
-60.5333 -9.6022 8.7194
31.0569 -52.1907 -12.0046
-33.0584 -47.9851 20.9065
-0.9912 39.8408 47.3733
38.6537 3.7974 -48.2077
32.2199 -0.5509 -52.8591
-13.4348 9.3839 59.6989
37.6451 39.7907 28.8454
-47.4245 -13.0836 37.5798
-49.0581 16.5327 -33.9483
-9.8203 41.3540 45.0101
32.1684 50.5730 -15.4943
50.7173 -23.6574 -26.4687
-16.2715 52.8490 -27.8339
57.9867 -21.0547 5.1725
-34.6549 -50.1036 11.0079
52.7839 22.1314 23.5917
54.1519 26.4280 -14.1999
-13.4863 -59.7703 8.8397
0.9263 31.0494 -53.5498
-44.0121 12.6517 41.6579
22.8867 -13.9309 -55.8089
1.3434 -15.8724 -59.8228
6.9831 58.2931 -19.6382
-33.9565 51.6690 -3.1275
18.3987 -34.4551 48.0296
41.2517 -17.5816 42.6813
-47.3574 4.1280 -39.6578
6.4153 31.3250 53.0104
-29.4574 28.6419 46.3078
13.6783 -49.6629 -34.3367
43.6388 38.6672 20.8089
53.3340 -11.4837 -29.2594
-40.3771 -41.2057 -22.4563
53.5492 18.5672 -24.9049
10.3247 55.3565 -25.7210
57.8686 -4.5822 -21.5112
38.7415 46.3352 -13.5888
-44.6334 -0.2906 -42.8985
15.3394 17.4287 -57.3886
-43.5106 38.4477 21.4733
-39.1445 47.7685 -4.2882
30.0664 14.3017 52.1918
35.9628 40.7156 -29.6888
49.5229 16.7726 -33.1461
30.9341 -52.5873 10.4959
-9.1055 30.6702 -52.9994
33.4001 -13.6316 50.3102
-49.1706 6.4430 -37.0574
16.9338 -22.1542 -55.2716
20.6002 53.0509 -24.3668
28.8680 52.2631 -16.3617
6.8894 -49.0753 -37.1034
16.1135 -48.9699 34.2755
61.0991 -9.5821 -2.7549
36.0906 -50.1858 -3.3712
43.3072 3.9040 -44.0653
55.0274 2.7648 -28.2285
25.9355 16.2465 53.8136
-25.7163 28.3501 -48.6565
32.7070 -2.1306 -52.5187
-8.4741 -51.1478 -33.8319
29.4540 -48.7985 -24.1595
-10.2112 60.5219 -8.0831
55.6166 26.1797 7.3429
-32.5274 -45.3478 -26.7965
3.1809 -54.9194 28.3945
12.8643 55.5462 24.1173
37.9683 41.2600 -26.2398
-35.0085 -46.8290 20.3460
14.1282 35.4141 48.7723
-26.6345 45.9306 31.8353
-10.8088 -60.6870 -5.7239
57.5200 -22.8783 -0.7322
-7.7250 -61.0457 -6.8007
-29.6260 -52.9218 12.4131
19.3529 56.6111 -15.9108
-16.1397 12.0706 58.5348
-35.7157 11.7240 -49.1878
9.7561 2.6760 61.0751
-0.5098 -27.0168 55.6987
56.3196 21.9551 13.3636
-37.2643 -48.0120 -11.7785
17.6927 14.5774 57.5063
-58.8761 13.6551 -13.4036
-2.4808 -44.6620 -42.7979
36.2505 25.5709 43.1803
13.6215 -24.2421 55.3108
-1.2734 -24.9381 56.6478
12.1924 6.6932 60.3246
-22.9262 -14.3957 -55.6746
16.0377 39.4351 44.9463
25.3324 54.5801 14.5529
2.2734 -57.2969 23.3326
51.2679 -16.5489 -30.4999
-8.3603 39.1653 -47.2090
33.4145 31.6914 -41.3719
33.3609 -38.1863 -35.5157
-33.0552 -17.2974 49.4030
-31.5225 -14.3297 -51.3176
27.5649 -47.1738 -29.1087
61.6362 -4.9539 -2.9909
-24.6665 51.1127 24.7297
-34.2887 23.4762 45.8875
-40.2357 46.9406 3.1906
10.6624 -56.9739 -21.7440
53.9002 19.4369 23.4410
23.2379 -19.2975 -54.0380
-46.2268 -21.3997 -35.1802
22.7645 57.4918 2.9958
36.0127 -43.9984 24.4895
19.8081 5.9034 58.3549
61.6783 -5.0793 -1.5778
-37.6874 37.5911 31.6082
-7.9997 -59.9831 -13.0590
9.4761 -15.1057 -59.2835
-7.6710 46.3579 40.3064
-58.8635 3.6689 18.8184
20.9024 38.7237 43.5439
-21.0101 -52.3031 25.6021
-16.6921 23.0878 -54.9621
30.0044 -44.8837 -30.2936
54.8676 6.5357 -27.9167
43.4586 -14.4066 -41.6690
40.3830 -8.3350 -46.1763
-50.7368 -28.5477 21.0551
47.0110 36.9129 16.1216
-25.0171 -46.3634 -32.5128
-59.2966 -7.9564 15.9096
16.6743 -19.8970 -56.2013
-27.8675 -40.8843 -37.2073
-21.2039 47.8930 -33.0025
-42.8421 22.3744 38.6839
-17.5863 -17.2479 56.7956
-30.6720 -26.3382 46.8832
-35.1570 49.7492 -11.0230
-10.9581 -59.9143 11.0770
-48.7157 9.9184 36.8905
-6.9820 -47.3178 -39.3038
21.5134 3.6092 -57.9366
29.8807 -23.6567 -48.7854
-8.3640 22.0038 -57.2572
10.1673 -9.2214 -60.3664
12.7300 -57.6879 18.5083
-23.8281 -19.2470 53.7985
-59.8811 -3.0745 -15.4049
59.6438 16.5541 -1.0436
52.9125 32.0652 2.1434
-57.8488 -14.5351 -16.5756
7.8651 13.6192 -59.8762
-4.7317 -61.6929 -2.0262
38.7956 -26.2371 -40.4848
-7.2089 18.5976 58.6060
19.4686 -52.6785 26.0471
11.9813 -60.7315 -0.7994
-52.8333 31.0844 -8.6548
30.0753 -43.4323 32.2741
-49.0038 37.2526 -6.5867
-6.3754 56.4902 -24.5095
12.0240 56.5066 22.2471
40.0197 30.6797 -35.9122
-37.4369 6.4281 48.8842
52.5851 21.3390 -24.7380
-31.4400 -53.3088 1.4847
-8.5161 60.6202 9.2290
-8.9853 56.4886 23.6814
13.2336 -52.8010 29.4862
-47.5414 39.3561 4.8396
-55.3834 -27.2870 -4.5393
-32.3301 43.8288 29.4331
-35.9828 5.3960 50.0862
19.1437 -24.1873 53.6750
16.5596 -17.8574 56.9157
21.4188 -42.6760 -39.4018
52.5072 32.5806 -3.7428
-59.6423 -12.6696 10.7135
-33.1853 -36.4761 37.4265
-57.2103 17.1916 16.2462
8.0193 20.0917 58.0045
38.3616 48.4981 2.9711
-39.4459 -45.9799 12.7429
-47.2976 2.7456 -39.8486
-14.1867 -20.5155 56.6600
-54.7430 17.8725 22.7219
20.8987 50.2320 -29.5381
-33.1980 -28.1033 -44.0523
-53.3720 25.6169 -18.1027
-0.7250 -6.9644 61.5100
-39.9293 36.7406 29.8041
-57.1416 13.1242 -19.8770
-24.3055 56.8882 -2.3407
9.2166 -48.1390 37.8180
38.9884 43.6474 20.1821
-17.2472 46.2414 37.3734
10.1992 -11.7058 -59.9288
-40.1513 -27.6539 -38.1529
26.9063 39.9787 -38.8621
34.3599 50.8372 -8.2147
10.1437 -56.4845 -23.2189
38.8227 -20.9613 43.4273
-18.6123 21.4456 -55.0107
-57.4535 22.9797 -1.8796
-46.8987 -12.3045 38.4918
-9.1199 -45.7285 40.7214
26.1774 -3.6128 -55.9839
39.1637 -24.3765 41.2855
-56.2005 -23.0345 -11.9760
44.7358 -28.1710 32.2119
-8.4302 -59.7073 14.0170
28.0982 54.1104 -10.7264
21.0074 -58.2241 1.0713
34.5248 -46.9163 20.9620
-46.7283 -39.6770 8.6436
-30.5336 9.2256 -53.0574
15.7264 -57.9771 14.9612
-20.1282 58.1438 6.8309
-58.6574 18.3529 7.4156
-39.3980 -17.0303 44.6125
23.4803 -31.1223 -48.0893
40.7910 37.6448 27.4130
28.0286 53.4322 -13.8532
-58.3451 20.4631 3.1016
-18.2435 -12.8444 -57.7469
-30.7000 53.7473 1.1152
39.6906 1.2066 47.4943
37.4909 -33.1737 36.4204
-38.4789 45.5984 16.5126
-0.1262 -38.8367 48.2100
-27.5260 21.8596 -50.9606
-8.8960 61.2369 1.8458
-36.8179 -43.6560 23.8978
-5.2521 -5.8460 -61.4064
-38.8643 46.1789 13.7689
25.7569 44.9561 33.8826
-0.4198 -58.0264 21.5700
32.2316 -46.2758 -25.5378
21.5454 -47.6437 33.1419
2.9039 -61.1236 -9.3796
28.7844 -28.2572 -46.9627
-28.1522 -54.7327 -6.6550
25.0184 37.0400 -42.8326
-13.2023 56.0338 22.7689
19.1612 8.5269 58.2464
4.1766 7.9332 61.2546
-52.2856 -27.3604 -18.7119
5.6697 -59.5753 15.8476
31.2082 -6.7448 53.0383
-31.2592 5.6348 -53.1378
47.1731 -37.6492 13.7750
-50.7164 -34.2018 9.5180
10.4711 -27.2068 -54.6137
45.4981 -5.1897 -41.6593
-60.5152 -3.7893 12.4924
2.0820 -8.2821 61.3154
59.9811 8.9427 12.4419
-23.7895 -52.4829 -22.6298
-0.9916 46.4304 -40.9358
-6.0807 61.5421 2.8472
15.9048 16.3369 -57.5556
-16.0914 35.1942 48.3212
30.0945 -47.8134 25.3121
43.2257 17.7959 40.5876
36.8306 -28.0611 41.0925
30.2296 -53.7734 5.2064
15.8501 22.3299 -55.5217
53.0593 -23.2403 -21.8429
-39.9465 6.8178 -46.8006
-49.6357 -16.3162 -33.2052
-24.0496 -54.3366 17.3682
-3.6321 -38.1142 48.6479
-23.8615 19.2148 53.7953
39.5444 14.9038 45.2396
39.7467 -16.2365 44.5991
58.2764 7.9092 19.3343
25.7364 -55.7832 7.6410
-2.8068 -61.2688 -8.4124
-59.9133 -13.3625 8.0218
-34.3850 21.5216 -46.7654
40.0498 -33.0300 33.7275
58.2946 -16.6979 12.4672
24.0560 -54.6500 -16.3460
38.8573 -18.9215 44.3238
3.3288 47.8897 39.0896
-44.4574 -43.0250 2.2133
-38.0110 21.3633 -43.9463
18.6614 58.9981 -1.8677
15.1978 52.1523 -29.6930
-33.5311 -48.5970 -18.6146
4.7201 46.3042 40.8185
-14.5508 -38.1729 46.5146
-15.0372 -19.3003 56.8673
50.4379 7.5909 -35.0843
39.9992 -24.4517 -40.4312
-6.1494 52.1533 -32.7831
25.5903 9.8281 55.5072
-55.9268 9.6122 24.7448
-22.8579 -57.5245 -0.9790
52.8270 28.7521 14.6675
-11.7673 37.6495 47.7132
-36.7790 -8.3434 -49.0938
-5.7437 -38.2916 -48.3039
-56.7282 -7.5144 23.6211
60.4561 5.2323 -12.2552
9.0101 30.8445 -52.9145
-44.0848 42.7071 8.0709
21.1351 -39.9352 -42.3201
36.9988 49.4069 4.7492
57.7831 12.3347 18.4789
-38.2196 9.6742 47.7303
0.4296 -57.7945 22.1838
-0.3812 -38.8719 -48.1803
-18.4530 -57.4508 13.8346
24.1057 41.6479 -38.9471
21.0131 54.9294 19.3317
51.6824 -19.0685 28.2459
-51.0889 22.2155 26.9982
28.5318 47.5701 27.4869
27.3026 37.9739 -40.5593
-3.2409 57.8158 -21.8937
-7.8216 53.3691 30.3821
-5.5613 58.6068 19.1526
-0.3622 -42.3704 45.1345
-16.8856 -46.2379 37.5425
-38.7447 -48.1422 -3.6984
41.4062 -46.0036 -1.3018
44.8115 -6.1792 42.2641
-44.8584 -41.5901 9.5129
-13.6913 26.4736 -54.2605
-40.4182 26.9702 38.3600
12.7207 -47.4275 -37.7004
61.8183 -3.2697 0.5555
-19.6261 19.3962 55.4176
-31.8330 48.0354 -22.6222
-42.6356 -44.0558 8.5909
24.6602 -26.3478 -50.3009
-50.4065 -14.4860 -32.8914
-29.4062 52.0530 -16.0707
-60.5344 -2.3899 -12.7428
-10.8694 -58.8643 15.7911
18.0479 -31.1103 50.3878
16.4009 -44.8291 39.4191
36.2821 -17.5101 -47.0055
34.0254 51.4682 5.0798
22.4839 -53.5834 -21.3495
31.7945 -39.6189 35.3831
-38.5945 -35.1347 -33.2944
-27.7046 -55.3566 -0.7811
-56.6009 4.0617 24.7456
-13.1467 -55.5298 -24.0023
1.4156 -46.8026 -40.4972
-14.5713 8.2757 -59.5961
18.2650 27.6759 -52.2775
-18.6614 13.7682 -57.3995
57.9566 -15.5428 -15.2304
23.9870 -17.3617 54.3664
29.0922 -6.1438 54.2992
-23.6899 -49.3869 -28.8484
33.0483 51.0018 -11.7954
49.0194 -30.4596 -22.4014
-20.8422 56.1576 15.6345
29.9952 15.1611 51.9898
49.5221 -29.9135 22.0284
-34.2150 -34.1323 38.6888
-46.2396 -36.5386 18.9562
-4.6380 -29.2753 -54.3503
37.8649 -46.8875 14.1534
43.4627 -33.9855 -28.0800
23.2443 40.8111 -40.3320
2.4248 33.0620 52.2832
11.5804 53.8773 28.2072
-7.1041 -17.2978 -59.0155
-33.8544 31.8336 40.9025
-44.8219 10.7896 -41.3169
47.5732 -39.6074 -0.7401
-13.5503 -22.7019 55.9779
-36.2783 -48.1590 -14.0394
-53.5302 28.9448 -11.3676
-2.7937 -54.9498 -28.3765
-35.9032 26.8684 42.6797
-30.2489 36.0117 40.2575
47.4263 36.0073 -16.9330
39.1083 -45.6538 14.7913
-2.7377 -58.9794 18.6130
-36.2839 -50.0035 -3.9534
31.7361 7.3256 52.6466
-49.5167 -10.4728 -35.6500
38.1043 21.5257 -43.7860
52.2255 24.1847 22.8057
-42.1059 42.1339 16.8621
4.1729 60.4280 -12.7886
43.3821 -44.0379 -3.3409
-27.8588 -28.9160 47.1196
-23.9058 3.3578 57.0066
38.4959 16.3550 45.6408
-25.2842 56.3390 -4.3748
23.3955 -40.7800 -40.2759
52.7810 31.9708 -4.9535
-44.2433 -43.2212 2.6388
15.0587 38.1532 -46.3689
-14.1334 59.1293 -11.6822
50.7436 28.5930 20.9770
18.4543 53.1464 25.8342
35.3392 -45.9035 21.8293
2.4769 -56.7811 -24.5413
-17.9983 3.6199 59.1225
31.4214 -42.4514 -32.2968
15.3292 39.4073 45.2171
56.1628 16.5311 -20.1239
-5.5861 36.6813 49.5559
16.5745 16.7601 57.2441
-21.4430 4.5137 57.8993
53.8905 -28.0596 -11.8734
6.1794 -61.2809 -6.2425
28.2973 -52.9117 15.2357
38.8092 -32.7209 35.4358
-51.6321 33.1012 -8.4226
-60.9844 -8.9585 5.7582
-21.2686 -34.9314 -46.4753
58.8936 -4.4442 18.5552
-46.7955 -36.0575 -18.5080
32.3115 -11.0374 51.6396
11.5430 -11.8495 -59.6561
-59.8147 -4.8047 -15.2190
31.4134 38.8429 -36.5641
35.0637 -47.9594 17.4052
-61.6924 -0.2451 5.1473
41.0529 -37.6846 26.9637
-52.4678 -18.7225 -27.0018
-2.0867 47.7532 39.3419
9.9440 55.8070 24.8837
-41.8302 28.9754 35.2586
42.0837 -7.4398 -44.7897
32.1475 -32.0670 42.0803
5.7561 -61.3327 6.1382
26.5729 53.5136 -16.2075
-36.7311 41.9697 -26.8678
-32.9064 52.1602 -5.3846
0.8585 11.5279 -60.8184
37.3423 -40.9137 27.6428
30.2860 19.5269 -50.3385
4.5963 61.2215 -7.9567
32.2352 -25.9929 46.0192
-35.0327 -12.2403 -49.5519
30.7012 -34.3658 -41.3392
25.1130 -36.2250 43.4694
-35.1378 7.5517 -50.4065
-17.4942 30.7983 -50.7732
-61.6400 4.1337 -3.9915
60.7778 11.2236 3.5491
43.6959 13.2899 41.7918
61.8532 0.9566 2.4027
49.4692 36.4121 -7.7113
-1.4653 59.9640 15.3194
-46.3979 -18.8711 -36.3816
2.7235 14.1763 -60.2007
-57.9294 16.3731 -14.4435
46.3458 12.4349 -39.1146
-30.0096 -13.3117 -52.4855
41.5341 -1.7307 45.8741
58.1654 20.4906 5.4245
59.3991 -2.7928 -17.2177
-32.2669 52.5730 -5.2370
-29.2491 -29.6925 45.7751
-13.7830 50.1222 -33.6199
-52.3465 17.2122 28.2150
-24.7095 48.2964 29.8230
6.6679 -35.3530 -50.3806
9.5308 -13.4564 59.6707
-32.9134 45.2469 26.4941
-2.1916 -45.7701 41.6270
19.7394 -57.7582 10.3370
44.0387 -1.6260 43.4794
-32.3524 29.7288 -43.6122
26.4266 51.0041 -23.0807
60.6380 -12.4686 0.2689
52.6845 -28.4826 15.6713
-35.7409 -13.5117 48.7086
-29.0965 -51.5474 18.1319
-9.5813 -48.0800 -37.8024
60.1232 -14.0668 4.4530
-4.9032 18.5289 58.8655
55.3013 -22.4160 -16.4864
-16.6003 -58.9100 -9.3031
-25.8807 -43.7167 35.3773
22.0090 -12.5891 56.4768
-14.0569 -59.4280 -10.1596
-34.7889 -44.4896 -25.3558
-29.5139 -1.4096 -54.4009
-13.1511 13.5681 58.9531
-57.9065 -16.1177 -14.8178
9.9070 57.2384 -21.4039
-14.7526 32.7780 -50.4031
39.3664 -40.5327 25.2962
-13.9233 -54.6516 -25.5313
-33.3772 50.4373 13.2119
-4.0420 17.9611 -59.1064
-14.9867 -59.7635 6.0190
16.3976 58.2726 -12.9590
-56.7489 12.1290 -21.5629
47.8157 3.0508 -39.2027
0.6899 -61.9028 0.2634
-8.3399 11.3571 -60.2824
-56.9751 -8.4841 -22.6797
32.5592 -30.3671 -43.0145
38.4623 -16.7429 -45.5284
-20.8203 45.2363 -36.7790
55.2577 27.4893 4.8405
-15.6134 54.4009 25.0854
21.3989 8.8317 57.4160
-42.2002 24.7872 37.9110
11.9307 -39.6762 -45.9996
-8.7052 -41.7777 -44.8481
35.2289 -12.0098 -49.4691
-11.4871 -48.8003 -36.3192
-27.0247 -7.5083 55.1888
-60.0045 14.5778 -4.4112
-54.1411 -27.9897 10.8550
14.5421 16.4252 57.8900
-28.7191 44.9596 31.4063
45.6033 -38.3899 16.7052
35.2931 30.5801 40.6419
-20.7097 55.1006 -19.1712
41.4811 -37.9426 25.9265
32.0973 22.0184 48.1400
25.7185 -28.8899 48.3367
8.1130 -47.1245 39.3188
60.7631 10.8377 -4.7851
55.8680 23.8324 -11.9705
37.9085 -35.5290 -33.6622
46.1918 -20.1690 35.9449
56.0202 20.4232 16.6474
60.4700 0.3170 -13.2583
23.5489 -13.6829 -55.5944
0.2232 -22.7981 57.5561
-7.4147 -47.0710 39.5202
-25.7903 -52.6086 19.9924
-12.0345 51.8622 31.5910
-5.9416 -40.3485 46.5747
-55.6216 -25.9414 -8.1108
-30.8046 -6.7455 53.2737
46.1891 -40.3172 8.5791
-17.6043 48.7013 -33.9232
43.5497 30.7847 31.4362
46.9799 -16.5377 -36.7682
19.2832 -57.8579 -10.6363
-17.3504 30.4101 51.0558
-12.2888 -50.7002 -33.3313
44.5660 -25.4598 -34.6147
-55.1672 14.6564 -23.9640
37.4472 35.6410 -34.0578
18.4385 56.1228 18.5139
-49.4682 -29.4925 22.7068
-18.3541 -58.8808 5.3564
-35.1977 38.8524 32.9260
-37.1440 -4.3754 49.3324
-24.2177 -49.3398 28.4884
-36.0604 -9.9032 49.3364
36.8328 29.3382 40.1886
-5.1084 45.2797 -41.9066
24.5709 -19.1816 -53.4869
45.1788 -25.5239 -33.7626
16.5177 -48.6098 -34.5942
-10.1100 50.5991 -34.2056
-35.1375 49.6864 11.3631
-29.5194 -39.9209 -36.9788
-21.3338 -41.1267 -41.0606
-57.4489 -20.2901 -10.9748
-43.8444 40.9283 15.3313
5.0392 -11.4911 -60.6224
27.7272 -40.0919 -38.1622
-9.3069 -36.9206 48.8135
6.0313 -61.1960 7.1538
24.4332 -41.9244 -38.4431
-43.9523 -39.3960 -18.6724
-7.7461 2.2756 -61.3786
-47.3756 38.4312 -10.5406
-59.2600 -11.9382 -13.3505
15.0245 -53.7439 -26.8023
33.8550 -32.5403 -40.3420
35.9958 33.3127 -37.7766
-55.3963 -27.5422 -2.2781
60.3624 1.2032 13.6909
42.3655 29.3625 34.2859
7.8821 5.0177 -61.1981
-47.5356 37.9926 -11.3767
49.3145 -37.1526 -4.5021
-49.3075 -37.1212 -4.8263
50.1329 36.2987 -1.2658
5.6271 -17.1601 -59.2146
16.0237 -1.0607 -59.7881
18.2096 -54.0712 24.0254
-49.8777 33.9479 13.8660
16.2440 -26.6486 53.4648
40.9668 19.3702 -42.1785
-54.2050 -15.9644 -25.2877
-10.7778 -59.5871 12.8734
-29.5459 -36.7087 -40.1499
28.0613 34.0003 -43.4633
-39.5848 44.9139 -15.7571
