ply
format ascii 1.0
element vertex 1024
property float x
property float y
property float z
end_header
29.9606 -59.7183 64.0780
32.7872 79.8397 -33.4743
91.5845 12.2750 5.6127
-43.4489 80.6170 13.5279
-22.3533 68.0123 -58.6904
82.1786 -9.0339 -41.6531
-43.2006 -81.6929 -5.4659
10.6480 -88.7271 24.1665
15.0821 -2.5938 91.3001
90.3282 19.7955 4.3426
16.9713 -82.6251 38.1442
-28.1554 68.8679 -55.0853
-67.1077 62.4555 -12.8752
-55.2302 -11.3164 -73.4266
7.6464 -55.5480 -73.6604
61.3581 -65.2175 -23.4896
-86.6610 -28.2855 -16.1153
-69.4234 -57.3608 -21.4485
26.1521 -27.5866 84.4094
1.3425 9.7782 92.0461
64.6635 -37.9439 -54.3028
-2.1762 -12.8361 91.6537
54.4512 70.6196 -24.8562
18.4539 -7.2852 90.4228
-34.1595 -38.9341 76.7279
-30.8156 86.4001 -12.4631
-71.1448 -58.4750 9.4337
25.0441 -85.9277 -23.6461
-69.9604 3.6287 60.5167
30.7646 34.1549 80.3547
24.0738 86.2453 23.4971
-63.1784 -67.3529 -6.4792
79.5915 -2.4980 47.2108
40.8594 82.9672 4.1068
14.4637 27.6084 -87.1693
78.8021 -13.8507 46.5648
-16.5324 -71.8469 -55.9876
-24.9195 87.7111 -15.9902
86.7607 29.5147 13.0906
71.8964 24.5967 -52.8754
2.1555 -58.6093 71.6254
-24.3260 -70.4661 -54.8879
1.3529 78.1736 -49.5677
80.9407 19.8857 -40.2872
52.1681 10.4199 75.7616
-85.2033 -24.4438 -26.6983
-18.0610 77.0082 48.0983
-52.0042 -3.3907 -76.5112
45.6266 68.5422 -42.3094
-65.4179 65.4982 -0.6295
21.4591 -89.7407 7.4845
-70.0518 -45.3410 40.0854
60.2664 -67.6068 19.1621
-18.7310 -40.6226 -81.0485
39.9708 -54.8757 62.9356
-7.1843 -91.3718 -13.0185
-21.2571 16.7617 88.5273
-0.8844 -8.5384 -92.1749
10.4234 -1.4323 -91.9739
27.8324 34.1636 -81.4132
-71.5617 -51.6070 28.0275
3.7976 -63.8018 -66.9687
85.5701 -26.2257 23.6618
-28.3890 78.8642 -39.2989
38.5272 -69.6299 47.2994
27.0135 51.8935 71.7442
50.4223 56.4927 53.2547
59.4530 -69.9424 11.9710
-85.7518 31.6249 -14.7103
47.8213 -2.1338 -79.2368
38.5781 70.0055 -46.6997
47.2545 9.9258 -78.9835
5.4572 84.7676 -36.8046
26.6619 31.0454 -83.0375
-54.4879 45.9388 59.0813
-80.9736 -20.6059 -39.8569
-84.6143 36.0429 -10.5462
91.7841 6.4084 -10.2235
-68.1644 -48.9548 39.0761
-78.1593 -49.5843 -1.5575
55.2614 71.9839 -18.2865
38.6429 -78.0281 31.4364
-31.0118 86.8654 -7.9106
28.3469 -51.7529 -71.3302
-81.9452 42.7131 5.5212
-86.9536 25.7007 -18.6667
79.9340 -2.7756 -46.6129
55.3003 57.9200 -46.4442
-27.7177 -19.1350 86.2293
-4.1963 33.1643 86.3274
-23.8779 -35.6424 -82.0327
29.5453 81.6806 -32.0196
18.9293 -89.9075 11.3234
6.5635 18.4243 90.4841
27.2284 85.0864 24.2655
92.0499 -0.3337 -9.8288
-28.3162 58.3060 -66.0947
16.2393 -14.1778 -90.0288
3.8531 10.7311 91.8689
-50.8404 72.8740 25.9718
49.7123 -27.1164 -73.2345
-44.9966 57.9436 -56.4602
17.3994 -90.8647 3.2827
-49.5065 28.2622 72.9401
22.5080 34.6380 -82.8463
-88.1548 27.3780 -7.0064
48.7008 66.9782 41.3770
63.9034 -0.3648 66.9785
-91.9484 7.9846 -7.1860
-75.1589 -4.2687 53.8778
-74.3447 -23.5481 -49.8824
-50.2058 45.0376 -63.4105
-11.0119 -77.7116 -49.0872
-27.1544 50.1120 72.9475
7.9982 49.0050 78.1309
48.2425 -57.3969 -54.2970
-76.1202 -51.4273 11.4387
91.5100 5.0348 13.0563
48.1560 -78.3507 -10.5867
82.4470 38.0069 18.1074
-2.5710 -92.2101 -7.7846
-35.1839 -85.2706 -7.8055
40.6881 -81.8498 14.6626
-15.9909 -90.9717 -6.1923
-0.3025 -27.0293 88.5394
57.0033 -2.8164 -72.8875
-68.2735 -14.6841 -60.7701
77.5082 40.8123 29.9457
16.8391 -91.0269 -0.6728
-35.4004 -0.2215 -85.5375
-44.9513 76.3043 -26.9618
-19.1923 -10.7040 89.9277
83.6012 4.7291 -39.4762
-60.3081 61.1666 34.5179
19.7689 -82.4096 37.2527
37.8733 -8.7419 -84.0184
-31.3758 32.7773 -80.6915
32.6154 -52.9517 -68.5730
-78.7546 6.7953 -48.1813
-86.8800 25.8599 -18.7892
-12.9893 -84.0286 -36.6112
-66.9819 42.5822 -47.6454
-43.8806 -4.7274 81.3760
57.9471 -12.9713 -71.0196
4.0182 35.5366 -85.3868
67.4477 48.5125 40.8319
-71.9872 -45.8598 -35.8418
79.4951 -20.7915 42.6398
-51.6985 76.1331 10.0462
18.6977 44.3932 -79.0541
-47.1792 76.1428 23.3732
-63.8336 45.1735 49.5432
-1.0108 61.7332 68.9775
75.5477 39.0866 -36.5333
14.6421 27.4759 -87.1814
-64.4378 45.6699 -48.2901
66.1997 -63.8890 10.2811
-60.5674 -52.3830 46.4490
36.7716 84.5287 8.5234
37.4097 -83.2565 -15.4521
86.0183 -15.6959 -30.4039
-36.9984 48.4736 -69.6515
-39.8339 -42.8605 71.7366
52.0133 63.6462 42.5874
-80.1143 -36.4526 -28.6847
45.9331 -56.1140 -57.5437
55.9676 71.7348 17.0777
5.8936 -32.1400 86.6152
8.0720 81.9468 42.3020
-50.0529 -23.0866 -74.3748
92.3471 0.3316 6.4656
-7.3978 -39.6461 -83.3269
-75.1233 3.1825 -54.0024
83.1225 31.8120 -25.4667
-34.6414 -26.7826 -81.5633
-29.8161 -70.8384 -51.6026
61.8798 -10.9657 -67.9746
-57.7849 64.3769 32.9608
2.1871 -77.0519 -51.2652
-58.5958 14.5644 70.1734
11.3023 -70.0755 59.4272
-3.7172 -59.8089 70.5619
75.2155 37.5892 38.7244
-74.5091 49.3857 -24.0696
-89.3474 -24.1358 -2.0997
-87.6118 4.3372 29.5850
-30.3760 79.7441 -35.8899
-45.3589 -9.8565 -80.0957
82.5023 29.7032 -29.6816
2.5811 19.1163 -90.5417
-40.3033 75.0591 -36.2171
-76.5177 -49.0521 17.5739
-9.9703 74.8853 -53.5041
24.1185 -51.9387 72.7363
66.2849 42.4303 -48.7430
-53.5873 3.8635 75.3882
39.1982 82.4406 -15.3934
-77.5551 49.5302 -10.0926
84.4031 -36.2550 11.4716
-75.7716 -25.9960 -46.3980
91.1959 12.5582 9.7730
47.6762 -66.6596 43.0510
47.1482 35.3309 71.4050
40.2591 -69.0802 -46.6587
-4.7588 77.4424 50.4968
-54.9015 71.6030 20.7061
-86.7186 -18.8030 -26.3864
84.3319 28.1976 -25.7475
0.6306 -29.6775 -87.6855
-13.0464 -56.0711 72.4964
35.5254 -34.5189 -78.2068
72.7185 -8.0541 -56.7191
83.6765 39.2081 -5.5570
61.8316 58.7067 -36.0594
9.2770 36.0967 -84.7400
0.7950 -30.3417 87.4566
-11.8013 26.1046 -88.0294
8.7971 33.3707 85.9006
92.5571 1.7060 0.4148
79.2846 43.5771 -19.6186
-61.2664 -19.7064 66.5431
-31.0425 10.6240 -86.5644
-42.6615 4.6937 82.0236
35.4278 -75.0307 -41.0507
80.9468 -6.6173 44.4268
-3.9162 -76.9634 51.2953
-29.3774 29.0164 82.8548
52.1879 -74.8756 -15.4914
-84.9653 -32.2028 17.7140
10.5275 52.2106 -75.7175
-6.1997 -48.0568 78.8797
-41.2163 -28.9938 -77.6561
-86.1872 31.6803 -11.7488
39.5315 -83.1727 -9.4586
-38.7333 -41.8332 72.9357
16.8284 -71.9839 -55.7228
63.6302 -66.7167 8.3653
60.0148 -51.0467 -48.6041
-7.2640 85.7108 -34.2170
10.2333 -70.0838 -59.6108
-58.0067 72.0885 2.8923
36.2239 38.0380 76.2289
-68.6649 -52.3420 33.3970
-11.4002 -3.4580 91.8040
84.3127 -0.4551 38.2238
22.9258 76.8694 46.2105
-3.1334 19.8537 -90.3655
52.9987 40.1110 64.4372
81.3390 -35.3973 26.4747
-4.8546 87.4277 -30.0455
-74.8587 11.0858 -53.3215
7.0193 91.9106 8.5483
11.0540 45.0750 80.0996
88.0752 -3.5591 -28.2844
-33.4434 -86.0584 -6.7374
74.6447 54.6366 3.5935
44.5195 81.1321 2.3458
-36.8855 -78.3145 32.8057
7.4199 87.4942 29.3192
55.4369 44.9930 -58.9261
-41.2298 39.1750 -73.0433
16.6238 12.1714 90.2519
44.6032 -74.8730 -31.2169
2.0063 -29.0675 87.8690
69.5430 -8.7605 -60.4726
15.3247 75.1649 -51.8198
-31.1233 86.5509 -10.4967
-76.2275 -10.7601 51.4149
44.7588 18.9691 78.7828
-33.9558 -37.6801 -77.4411
-63.1284 -67.5119 5.1817
84.4166 -26.1828 -27.5354
76.3715 -17.5503 49.2878
-31.9672 -16.8275 -85.2340
67.5632 -22.5823 59.1199
-66.6811 47.7460 -42.9400
-61.7938 -67.7583 12.6585
-17.6456 90.8738 -0.7010
61.6036 -26.6646 63.7487
80.8131 40.7149 -19.5306
-25.2788 83.5300 30.8808
7.1428 -66.5519 63.9510
83.7633 -1.1247 -39.3999
21.6325 49.4653 75.2005
23.0718 84.7185 -29.3321
77.8041 -34.1396 36.7547
-40.7961 48.2787 -67.6369
18.1687 -11.3160 -90.0653
-92.1607 6.2439 -6.1085
-37.5642 -83.0834 15.9993
-39.3592 76.7371 -33.6478
-44.0357 -62.4400 -52.2687
31.2749 84.5246 -21.1514
-89.4945 17.0394 16.4408
-31.8002 -33.8866 80.0646
-31.1685 73.9356 46.1731
80.1386 17.5012 -42.9117
-2.7135 35.9666 -85.2581
-58.8650 60.0161 -38.7671
-28.3682 76.6438 43.4843
23.0452 82.7900 34.4185
66.0701 -16.3639 62.7445
-20.2557 -70.6319 56.3094
-63.9422 62.2038 -24.7384
-7.9919 42.2359 -81.9888
-1.4864 -9.0910 92.1143
-90.4249 -17.2431 -9.7939
72.2419 -57.4029 -7.4778
56.1003 21.5607 -70.4116
-63.0019 23.1451 -63.7571
89.0101 25.0630 -4.3543
72.2749 48.1750 32.0221
-62.6350 -34.2325 -58.9482
28.4400 26.1359 -84.1307
68.5866 -35.8388 -50.8070
10.5903 -23.4165 88.9349
-12.6288 69.6786 59.6264
45.7924 -46.7455 -65.4815
-83.6981 29.1643 -26.7205
-21.9456 -24.6792 86.4826
78.5167 -40.3036 -27.9401
-14.2005 -85.8169 -31.6815
-56.5714 -2.0177 -73.2496
-59.7294 -69.8202 -11.2895
-85.1033 -27.4014 24.0102
-28.3938 -41.5658 77.6916
39.6117 -28.4029 -78.7026
81.3762 -39.3145 20.0547
-27.0815 -78.9278 -40.0863
27.0741 86.4115 -19.2341
-10.5347 -67.2043 62.7894
57.9887 46.9061 54.8364
29.9173 7.4728 87.2870
89.1742 16.7873 -18.3316
-2.6139 -46.1497 80.2077
-51.6961 -5.6471 76.5867
-39.2791 45.4272 70.4516
16.5600 39.4736 82.0823
7.6535 -27.8136 -87.9644
64.0948 54.9431 37.9871
-88.4105 -24.7678 11.8337
61.0326 -21.9280 -66.0612
69.0848 41.5390 45.5161
56.6636 22.5256 69.6544
26.3149 58.4443 -66.7960
-74.8095 11.3829 -53.3280
54.4088 -74.8167 3.4706
-91.5417 6.5960 -12.1040
-77.9931 -37.1045 33.3202
-13.2515 -75.0557 -52.5447
71.7098 30.5206 49.9610
88.5966 11.4257 -24.2898
-15.0604 31.9310 85.5774
25.2633 86.7800 -20.0224
58.7710 66.1427 27.2215
-75.0496 48.7436 -23.6964
39.6871 80.7732 -21.6915
81.2806 -23.6227 -37.4878
79.8635 -29.5367 36.3222
6.4053 56.6950 72.9010
-32.0196 -45.7123 73.8582
-56.6198 33.1138 -65.3267
25.5926 48.4758 -74.5990
26.6408 -78.0852 -41.9866
-81.5749 39.1482 -19.5667
55.3704 13.0057 73.0402
-38.8194 78.6715 29.5594
-37.6372 -25.5823 -80.6157
-22.6457 5.5555 -89.5891
91.7615 -9.3412 7.9039
-21.1525 -67.1741 -60.0842
-50.8234 60.2749 48.5162
-87.1215 -11.5265 29.1013
66.3407 -56.6226 31.0274
-51.9755 19.7254 -74.0227
41.4747 82.2268 9.4077
-76.3596 -51.1331 11.1587
45.1750 -46.1293 66.3416
-38.0422 55.7404 -63.3696
13.8197 84.4230 -35.3790
82.6206 -9.6888 40.6185
-31.6756 52.4866 -69.3665
33.2568 -85.1128 -14.8223
68.1214 54.8201 30.3997
86.5295 -32.4443 -5.4700
-54.8505 13.4818 -73.3455
-14.8058 18.5626 89.4769
-39.5230 4.0513 -83.6147
64.6648 65.6549 8.8211
73.2992 -37.7840 -42.0655
73.8298 55.4102 -6.9835
31.6395 -86.5299 -9.0235
-43.9240 -54.8122 60.3010
-49.3015 22.6024 -75.0227
-72.5300 41.9825 39.3291
81.7640 -24.0974 36.1091
-36.8019 76.7077 -36.4891
36.5524 -76.8469 -36.4468
-91.8130 8.5909 8.1531
55.3365 -45.2919 58.7913
50.8803 -43.8354 -63.7147
57.7803 -60.7186 39.3014
85.3284 15.1578 32.5455
-46.0494 -6.6879 80.0289
-88.2659 27.2264 -6.1442
-20.1728 -89.0345 15.3564
-88.4700 -19.5095 19.0351
-37.6269 33.2428 77.7756
79.8984 -46.0624 8.0250
27.2896 81.3572 -34.7303
-30.4160 69.8793 -52.5515
38.0664 -82.3775 -18.2976
29.2549 -37.9738 -79.1963
33.6206 76.8987 -39.0660
7.7314 -27.4691 88.0658
26.4316 -87.1047 -16.8539
-33.2221 34.4811 79.2291
17.1111 85.1592 32.0159
30.0971 73.6873 -47.2679
-49.4690 66.7835 -40.7761
89.3990 -14.3307 19.2965
-28.8392 -87.9465 -1.9019
55.0361 -36.8797 64.6593
-71.5331 56.5769 -15.8737
-4.0685 91.7196 -11.8686
3.7250 61.2894 69.2794
63.1480 -63.4525 -23.5799
30.0305 42.1296 -76.7670
-2.0417 -32.6444 86.6030
-22.0352 -33.7347 83.3446
83.5664 -15.3088 36.7724
30.5809 77.5977 -40.1660
-27.2730 5.6288 88.2859
-72.0741 -9.5309 57.3096
-6.0786 85.9384 33.8755
22.2461 -86.7294 -23.5165
58.7050 -68.8129 19.7083
51.1933 -8.3860 -76.6735
-8.8039 -82.9927 40.0576
3.1186 -52.3145 76.3110
80.1152 -12.6686 44.6202
-42.2227 28.8865 -77.1539
43.9445 14.5132 -80.1758
-23.8502 -25.2967 85.7972
57.3453 -46.8767 -55.5337
-72.8308 -8.1157 56.5660
-43.9305 7.0727 -81.1788
71.7271 29.3627 50.6256
-48.8358 27.4606 73.6945
-68.6444 14.2116 -60.4639
1.7582 67.0449 -63.8106
-54.1425 31.0432 -68.3726
2.5502 83.8743 -39.0960
-68.4742 40.7376 47.1342
1.8315 -70.4017 60.0845
-56.5677 72.8898 7.5547
92.4956 -2.4340 -2.9219
-58.1553 -4.7123 -71.8726
-89.8919 -11.6901 -18.7802
-57.5990 -71.6198 11.0843
-22.9645 70.4944 -55.4353
-30.3917 -67.1631 -55.9944
-70.0460 50.4100 33.5008
26.7815 63.5861 -61.7209
-59.6327 69.9516 -10.9825
-2.8722 71.5861 -58.6267
-41.2940 70.6388 -43.2998
62.7718 28.3800 61.8400
-51.8887 -46.6386 -60.8466
-24.5932 -32.4469 -83.1401
-25.2890 -88.6498 -8.4611
-66.8484 -7.4660 -63.6039
-50.6954 73.5641 -24.2527
44.7725 -53.8190 60.5709
-89.2149 -10.4493 -22.3924
0.3554 3.3336 92.5131
19.9569 20.5918 -88.0205
66.4851 54.4252 -34.4607
-16.8975 90.8074 6.1956
5.1721 -39.0763 83.7627
-37.8325 51.4964 66.9830
-25.5693 5.3722 88.8102
54.2426 -35.0814 -66.3095
-19.3689 1.7904 -90.5072
26.7874 39.9244 -79.1099
57.5182 30.2614 65.9228
89.7344 15.5464 -16.6118
65.5687 17.8619 -62.8617
49.0095 31.5382 -71.9258
-88.0304 14.5082 -24.6997
65.1276 65.7539 2.1738
-51.6822 -11.3032 -75.9677
8.0690 -90.6943 -16.7132
44.2811 -9.4490 80.7453
47.5667 78.4577 12.3164
-78.9567 -47.0741 -10.9444
-13.9345 67.2291 62.0966
13.1546 -90.9458 -11.2122
26.0059 73.1050 -50.4902
24.2797 4.4262 89.2234
-85.8713 -34.5352 -1.8271
54.5797 -64.4322 37.9402
11.0616 11.1773 91.2284
80.0718 -45.4288 -9.7279
-56.0489 26.7866 -68.6360
63.5686 -28.4959 -60.9666
4.2196 91.8998 10.3211
63.7527 -50.5586 -44.1511
70.6714 -55.4783 22.3073
90.5632 17.8803 6.9646
17.0248 25.0296 -87.4847
-55.9009 -47.1290 -56.7790
29.6552 -60.9647 -63.0379
79.7198 -24.5402 40.1551
-88.0195 19.2546 21.2542
0.0568 -12.3886 91.7411
90.5158 8.0876 17.6463
82.9021 27.8974 -30.3131
32.8027 86.4636 4.2352
-61.7790 -54.8951 41.7107
74.4301 19.2285 -51.5784
46.2408 47.4125 -64.6819
-80.8440 26.1227 36.7663
-21.5375 -31.4552 -84.3600
-34.4792 53.7179 67.0483
-34.3572 -36.6293 -77.7675
73.9898 -55.4303 4.7846
-68.7239 19.7923 -58.7808
-29.2235 -86.7863 13.5658
67.1422 -63.7013 1.9936
-55.9172 71.2600 -19.1096
11.2039 80.2154 -44.8315
-10.6562 -13.8143 -90.9149
-49.7131 54.9939 -55.4453
82.7601 5.3254 -41.1378
15.7788 -89.3844 18.2035
-47.2903 -6.8968 79.2841
-7.1340 -88.9248 24.7264
91.8059 -2.9601 -11.5248
25.7095 15.9454 -87.4910
-82.5303 1.1809 41.9196
64.2797 -43.1762 -50.7331
-74.0737 -55.1522 -6.4206
-31.5970 -68.2683 -53.9534
35.6758 -8.8007 -84.9688
61.0009 69.2243 -7.5357
26.6292 64.1710 61.1790
-46.7215 -43.1350 -67.2783
30.9329 87.1676 -3.8558
-11.4822 -71.5205 57.6445
2.0554 92.2304 7.6957
19.1327 -76.5356 48.4370
78.7866 -32.6165 36.0381
81.5089 -39.9300 -18.2153
-49.4065 -3.1273 -78.2248
-59.9205 53.3865 -46.1446
72.3215 25.8856 -51.6666
-43.1868 42.9040 -69.7428
-87.4289 -22.3026 -20.7047
-24.5813 -72.2207 -52.4389
-64.6735 32.4289 -57.7547
-7.6103 -91.2928 13.3271
29.1364 -4.5609 -87.7506
69.6820 -13.8157 59.3587
68.4291 -49.7797 37.5412
21.8805 78.4077 44.0838
47.4008 61.6927 50.1705
44.0296 35.8926 73.0960
11.8943 7.6583 -91.4865
57.8410 -37.7211 -61.6558
-20.6109 59.9680 67.4458
-70.1410 -22.6844 55.9961
67.6220 -49.6336 39.1622
59.8659 59.9404 -37.3246
22.4655 72.3221 -53.2420
-10.7428 -37.8103 -83.8145
-30.1251 -48.6752 72.7537
11.6081 88.6468 -24.0187
-53.4506 69.6585 29.3366
-30.3289 0.3477 -87.4639
21.3515 59.0613 68.0131
-44.0276 -64.2381 50.0494
-92.3884 0.4634 -5.8373
-55.7043 -67.9971 29.0401
-22.6310 -61.7625 -65.1394
27.1766 -84.2530 -27.0696
89.1568 5.7362 -24.2499
14.5633 21.6752 88.8144
21.8865 -0.8731 89.9451
-61.1543 -61.5924 -32.1936
11.4607 66.5056 63.3685
-17.1461 88.7541 -19.9654
43.1153 -31.1691 75.7592
7.7203 -82.6830 -40.9124
-23.7620 87.0317 20.7546
42.3324 -69.8928 -43.5071
16.6368 -36.2667 83.5335
-80.9595 34.9992 -28.1163
-81.0036 -27.7229 -35.2103
54.6652 35.4916 65.7416
92.3680 -4.9378 3.6983
54.5531 -52.9572 52.8148
-45.4519 80.6029 -2.6834
-3.5456 -50.0035 -77.8266
-67.0264 -63.8198 -2.0960
3.9809 -59.9174 -70.4554
17.5692 33.1779 -84.6195
23.6238 40.6412 79.7503
47.8305 29.2458 73.6670
-61.2433 20.4449 66.3413
-7.2111 34.6085 -85.5579
-19.9325 53.5079 72.8663
67.7068 51.9979 35.8038
34.4235 -29.7806 80.6104
73.3946 29.4183 48.1425
-72.7806 56.5064 -8.9398
71.3625 56.2922 17.5636
-88.0256 16.0690 -23.7316
-13.8844 53.8748 -73.9907
-38.0983 78.6297 -30.5909
-61.2481 -45.1245 52.7480
-13.7239 -88.6174 -22.9895
-82.1737 21.8467 36.6076
12.0429 -29.7537 86.8308
-74.9407 30.7496 -44.8135
53.8525 -44.7505 -60.5575
76.2945 50.7871 -13.0278
40.6454 -17.4607 81.3202
24.9070 8.2419 -88.7785
-31.9633 -77.5616 39.1464
79.7686 25.6844 -39.3343
-17.7521 -80.2021 -42.6894
11.3058 -82.4610 -40.5248
-42.6677 -60.2851 -55.8129
79.0551 48.1307 1.9036
61.3730 -36.2129 -59.0922
79.7917 -35.9382 -30.1932
56.9499 -72.9492 2.2447
11.8794 -91.6201 -5.8768
-66.5705 -63.6577 -9.2718
-84.5813 -33.0854 17.9238
-20.5689 -60.7222 -66.7805
87.2492 11.8919 -28.5669
3.6070 -79.3285 47.5802
92.3567 -5.9371 2.2108
-69.2125 -54.2458 28.9298
2.4069 -22.6213 89.7351
-9.3483 5.9327 -91.9093
57.0466 31.3292 -65.8336
-60.7003 31.1848 62.5530
77.4652 35.6363 36.0431
71.8613 -1.0203 -58.3508
91.9045 10.8170 -2.5403
21.8727 6.1845 -89.7399
71.8467 4.1477 -58.2302
45.8821 79.8994 8.9904
20.9283 88.2140 -18.7139
24.3805 80.9342 -37.7511
7.5020 89.4001 -22.8309
40.0705 -18.9943 81.2618
13.9804 85.9619 31.3847
-64.7903 5.4039 65.9008
-75.6473 -21.8153 -48.6979
66.4080 -50.3208 40.3447
35.2820 -33.3272 78.8313
76.6017 41.7123 31.0189
-86.6573 12.5972 30.0287
-66.2381 11.3655 -63.6650
11.6998 53.7193 74.4799
45.1241 -80.6196 5.8483
-82.9044 -19.2137 36.4363
-53.1615 -70.8527 -26.9008
52.3440 -60.8337 -46.1440
-54.5601 70.9461 -23.6591
77.6649 -49.8614 7.2048
42.0907 -82.4314 -1.8293
48.7320 -7.0036 78.3967
-41.4268 3.0215 -82.7321
25.6961 87.7461 14.4998
12.1914 91.7622 0.9910
-60.0156 40.2767 -57.8430
43.2503 -22.2039 78.7801
-24.1260 -60.8998 -65.4145
38.3332 53.6880 -64.9466
-20.5509 36.1931 82.6899
81.8883 -26.8086 33.8453
70.6414 38.6119 45.7036
72.5392 10.1842 -56.6060
27.5649 -11.0191 -87.6850
47.6056 40.0044 68.5803
-17.0376 33.9530 84.4205
91.5940 13.1496 2.7437
76.7576 -40.6893 31.9774
13.5495 40.4301 82.1689
-90.9799 -3.9825 -16.6344
-26.9248 86.7827 17.7121
80.7685 -42.6128 15.1822
9.0874 14.3528 -91.0018
22.0172 -12.2489 89.0793
-5.4921 -24.2953 89.1599
31.2836 -82.4420 -28.1878
-62.6403 34.0992 -59.0199
50.4845 77.1722 8.1044
-17.3294 -81.2840 40.7738
39.8598 64.6329 52.9499
69.8733 59.1731 13.6446
-61.5641 -49.6773 48.0826
-71.2053 38.4952 -44.9202
22.1474 65.4518 -61.6073
-20.3359 -77.0566 -47.1025
-64.0533 -65.8647 11.3546
19.7768 -88.1626 20.1528
8.4422 34.5893 85.4530
49.0245 68.3978 38.5778
55.1995 -69.7056 -25.7692
-12.0107 35.6660 84.5788
88.8547 -24.3720 8.9862
-61.6212 -20.9813 65.8219
-91.4353 14.1756 -2.9223
65.1969 3.5641 65.6244
-5.8205 27.8639 -88.0888
72.6749 41.7703 -39.2875
-20.5052 -79.2191 43.2871
81.2040 41.0876 -16.9595
16.3166 54.3526 73.1400
-84.9499 34.8832 11.6868
82.4339 26.3923 -32.8330
6.6442 -45.0313 80.6098
-40.2535 -38.7435 73.8140
19.3972 -89.4068 -14.1448
-86.5477 -17.2776 -27.9442
-5.7258 55.2384 -74.0665
-84.8758 -11.3248 35.1817
-33.8104 -4.3442 86.0691
-28.9441 68.7331 54.8444
29.2400 61.8515 -62.3644
62.5692 59.6751 -33.0738
-36.6660 51.6913 67.4798
89.0763 24.7602 4.7164
91.2505 -2.3938 15.4116
-49.2704 -61.3819 -48.7298
70.4465 16.5119 57.7455
-41.2321 27.0606 78.3424
-28.2353 23.7966 84.8905
-43.5993 -20.2932 -79.1024
64.0276 48.7577 45.7500
-2.1856 -60.4534 -70.0751
-71.8298 43.4056 39.0684
-49.8455 -47.8325 -61.6229
6.1192 -5.5716 92.2031
35.8472 -28.6776 -80.3895
0.4180 -22.8206 89.7159
32.6641 2.9478 -86.5695
-47.1006 42.4052 67.4777
7.6257 13.8016 -91.2210
37.5137 65.2047 -53.9534
21.0445 -83.6330 -33.6534
-10.3349 29.8037 87.0335
-1.2404 -89.1078 25.0634
84.3416 -11.6264 36.3487
28.6831 -20.7004 85.5493
23.0958 50.4078 -74.1319
60.6992 37.9851 -58.6741
63.9170 59.8212 -30.0989
-28.0171 -29.3436 -83.2100
25.1833 -11.6973 88.3113
43.2336 -81.4454 -8.2098
-0.9100 73.6172 -56.1212
-7.2759 -60.3250 69.8416
-76.5727 -6.4692 51.6205
-10.0717 -80.0494 45.3933
50.6914 41.8307 -65.1957
34.9128 -78.0894 35.3985
66.3807 62.7112 15.1922
-64.4252 52.6193 -40.6265
32.7003 59.4443 -62.9839
74.6948 54.4666 4.8973
86.7627 27.7846 -16.4364
-73.6208 48.7082 27.8817
68.6819 -0.7748 62.0653
-86.6490 -31.7936 7.1422
55.5289 -41.0819 61.6338
45.6870 18.0266 -78.4706
-68.8528 59.7389 16.1391
-46.3049 -73.0633 -32.9776
87.8664 10.5843 -27.1545
90.6052 -18.9835 -0.4754
-78.8843 47.3617 10.1994
37.0253 28.4844 -79.9229
31.4299 -86.3181 -11.4564
-88.6769 -24.5494 -10.1804
62.7662 49.0350 -47.1792
42.8558 -79.9801 -18.3430
63.7405 16.7833 65.0029
15.0353 -88.5697 22.3440
-24.2754 67.6875 58.3011
44.6451 -63.0284 51.0308
-65.8235 -63.7792 -13.0148
58.7993 5.7904 71.2673
-44.3705 80.4688 11.2224
18.6260 89.8865 -11.9748
12.1141 80.5182 44.0451
59.1824 -50.6970 -49.9717
-52.0174 64.9630 -40.5451
-76.2915 49.5651 17.1118
-76.6472 -42.6604 -29.5837
-86.2600 8.3364 32.5519
-12.5130 79.7645 -45.2874
79.5376 -47.1832 -4.1736
-32.8119 -64.4054 -57.8379
80.7628 42.0584 -16.6841
-1.3414 -90.2075 -20.7537
47.9694 75.8385 -22.7456
-89.2917 -9.0574 -22.6906
-25.2809 -56.5060 68.8321
53.2010 -5.2145 -75.5802
-20.0209 -75.1089 50.2765
47.3401 77.4813 -18.0405
17.1631 -52.4876 -74.2993
-29.3896 42.3555 76.8906
2.6156 80.6403 45.3896
-8.8283 44.1490 80.8878
21.4690 -80.3996 -40.5572
77.6357 -44.4103 -23.8816
37.2695 70.5306 46.9715
-45.6092 57.3280 56.5969
78.7068 -13.3827 -46.8620
7.5586 25.6125 -88.6384
-50.1466 73.5632 -25.3709
-46.6342 68.6269 41.0549
-19.2746 56.1804 -71.0081
-66.0017 23.9383 60.3376
5.0718 91.1501 -15.3569
-26.4651 -69.3584 -55.3074
17.7112 86.4911 27.8480
56.9024 -52.6653 50.5805
63.4691 4.2029 -67.2601
-34.0367 57.3032 -64.2476
-66.0863 -40.9860 -50.2260
11.5238 72.0065 -57.0278
-54.8600 0.5616 74.5652
63.3982 -29.7005 -60.5677
76.4942 -20.2297 48.0552
-6.1585 -47.0201 79.5053
-19.0291 74.3457 51.7737
54.9140 -46.4230 58.3032
-40.9989 24.4577 79.3147
91.5310 7.2820 11.7877
-51.5858 65.1374 -40.8157
72.4174 -54.8793 -17.7168
84.6273 -17.7468 33.0632
-87.4829 17.8804 -24.4323
28.9381 -51.4824 -71.2885
48.2543 6.3776 78.7449
-74.9697 -53.0227 -11.7487
55.4476 70.2978 23.5305
89.2039 22.7038 9.8547
-54.1492 69.3774 -28.7150
84.3374 2.3262 -38.1012
-54.6686 -22.0506 71.3794
-57.3464 -68.1201 25.3170
10.8780 62.6124 -67.3146
53.4186 21.0667 72.6123
78.8533 -21.1475 -43.6445
27.5390 87.3074 -13.7451
-11.2186 53.8773 74.4398
-42.1769 -80.0577 -19.5394
86.5698 18.9102 -26.7951
-53.5809 -71.0307 -25.5664
-57.4893 52.5981 -49.9832
-5.6590 81.6452 43.2659
-71.9891 5.7917 -57.9132
58.9349 -71.0583 6.8780
-23.0801 -85.5355 -26.8495
-56.1142 -50.6746 -53.4151
63.7219 27.8222 -61.1175
-35.4469 79.7284 -30.9323
6.8096 71.3338 58.6090
22.3605 89.2604 10.1240
-27.8945 56.3405 67.9526
-56.3696 -31.3785 -66.3910
-61.8396 -68.3804 8.3602
56.9201 -35.3067 -63.9018
-70.2108 -44.7412 40.4793
50.9902 1.4906 -77.2508
-69.0828 41.5328 -45.5247
61.1571 29.2637 63.0345
4.8901 -86.7730 -31.8816
-71.7776 57.8758 -8.2623
44.1192 -81.2898 -3.9200
-56.7337 30.9942 66.2612
-52.5185 -21.3134 -73.1946
64.0353 47.1791 -47.3658
-78.7548 45.4509 -17.3724
4.4133 -75.7854 -52.9812
85.5871 -5.7780 -34.8047
19.2981 -22.5628 -87.6836
-42.0299 -81.9677 9.2026
-60.4078 -64.9608 26.4743
16.0255 72.3722 -55.4559
-87.7445 -18.5378 22.9597
-4.9682 -90.1976 -20.2388
77.1296 49.4730 -13.1664
58.3499 65.5200 -29.5351
59.4016 -65.3794 27.6926
8.1196 -63.0990 -67.2495
33.8350 -32.3015 -79.8856
-85.9791 -29.4007 17.6948
69.1762 -40.6758 46.1523
23.1735 72.5332 -52.6482
-77.5369 -34.4146 -37.0617
84.8500 -28.7147 -23.3633
2.6624 -86.4040 -33.1234
62.4253 -29.8292 -61.5078
-15.6142 -17.4010 -89.5729
-62.1673 -44.7807 51.9598
-31.0332 47.7424 -72.9898
38.4806 14.5533 -82.9298
-82.3893 -42.1159 2.8578
-46.5023 -43.5392 -67.1698
27.9492 77.2366 -42.6995
57.3141 20.8488 -69.6443
-55.4295 -67.8601 -29.8745
-51.2447 49.4326 -59.1634
53.5929 -61.8485 43.2719
-5.1546 43.4154 -81.5993
15.8027 5.2595 91.0632
20.0673 20.6629 -87.9787
38.1873 33.5653 -77.3628
-16.6781 78.4985 -46.1491
-75.4990 -43.4312 31.3613
-51.4672 74.7129 18.4122
-20.2648 -46.0301 -77.7204
15.8040 -79.8417 -44.1071
85.9945 34.1972 -2.3247
-30.5041 -49.8694 71.7805
-68.2741 -49.4365 -38.2699
63.7936 67.0814 0.5996
85.4287 -22.7318 27.4793
-29.5815 61.6311 62.4215
44.1762 -75.1376 -31.1884
-35.2620 -79.8896 30.7271
36.9245 84.1043 -11.5306
-75.8015 44.6461 -28.8229
-45.3098 -74.6362 30.7631
26.7206 2.6572 -88.5938
-49.8407 75.9845 17.6681
1.4816 -10.9120 -91.9165
33.5790 61.0368 -60.9661
-62.8094 -56.3435 -38.0828
76.5949 46.5921 -23.0718
61.7688 -19.1180 -66.2497
-17.8531 43.1106 -79.9540
-58.4115 63.5530 -33.4517
-36.4877 31.1808 -79.1600
-12.1610 -91.1895 -10.3198
-63.3666 -67.1607 6.6349
66.7343 -7.2711 63.7461
8.2876 87.5381 28.9534
20.9554 71.5170 -54.9190
-13.8909 -28.3969 -87.0090
70.7160 35.7870 -47.8376
52.9870 -37.4211 66.0450
84.9108 -18.8343 31.7069
45.4461 48.9788 64.0752
80.0592 -19.0280 42.4070
35.7850 85.1481 -6.2555
72.4563 -57.5080 -3.5814
-25.7925 51.2049 72.6822
65.8920 17.3361 -62.6706
-63.8812 36.8152 -55.9798
-59.3552 26.6711 -65.8446
-12.7815 -85.5198 33.0591
-43.3736 44.1420 -68.8485
91.4998 -12.2273 -6.9417
-6.4763 -66.3380 -64.2435
-79.6054 -8.7114 46.4435
27.5496 -49.7013 73.0801
26.5479 -65.8863 -59.3642
69.6144 -42.1621 44.1147
-89.0464 -13.7544 -21.2477
37.6928 -57.1609 -62.3040
37.9229 65.1673 -53.7121
-13.7353 90.1837 -15.7526
50.2936 66.4532 40.3042
83.0807 -39.4496 -10.5465
87.3838 -12.5539 27.8635
-81.1281 -14.5793 42.1376
-9.0623 69.7605 -60.1769
45.5841 -78.6811 -17.3573
38.9983 78.7860 29.0138
-76.1644 -28.2786 -44.3757
-82.3889 0.5074 42.2104
-50.8383 -18.2096 75.1916
50.0704 23.1274 74.3504
38.7206 -83.1832 -12.2955
77.1920 -23.1866 -45.5377
39.2430 54.0482 64.0991
91.2059 -15.2263 4.4205
73.0422 -6.3673 -56.5172
-59.5022 36.6722 -60.7004
72.7360 43.8588 36.8210
74.1983 53.8356 -12.8938
-31.0313 -14.8026 -85.9526
49.2054 -34.4319 70.4498
-78.2643 -19.3685 -45.4914
-18.6328 -89.0988 -16.8563
-78.3100 -36.9836 -32.7057
55.3035 24.6396 70.0308
83.0737 40.8355 1.0580
-7.5034 -82.3612 -41.5961
-83.1559 27.4718 30.0049
11.4152 84.3579 -36.3778
-32.8282 65.9386 56.0741
44.2440 -80.9262 7.9580
27.1110 -86.9926 -16.3459
33.8549 -64.9735 -56.5879
-82.7909 -33.0891 24.9134
-3.7334 51.8195 76.6205
29.6315 -51.1395 71.2504
50.4725 50.4898 -58.9339
90.8940 9.5700 -14.7172
-67.6019 26.2796 -57.5263
-86.3007 10.9086 -31.6717
