ply
format ascii 1.0
element vertex 1024
property float x
property float y
property float z
end_header
-46.1378 24.4602 -36.7416
48.0774 9.1968 -40.9991
40.0206 39.8707 -29.7594
-38.6137 -47.5575 18.0058
0.1478 37.9588 -51.3425
-26.0793 -48.5636 32.2241
-40.6655 26.2494 -41.6441
14.3354 -33.3432 -52.5326
-8.4082 62.6436 -9.0568
-3.8116 -34.4585 -53.6193
-45.9621 -25.5089 36.2454
48.8008 -23.5040 33.8081
-47.0068 25.4167 34.9470
63.6143 4.9810 -2.3135
21.1872 49.0365 -34.9781
-60.8684 14.0050 13.2603
27.4975 -48.0578 31.8005
37.9474 -50.5070 -9.2725
-53.2642 5.3758 34.7990
-57.8684 -22.6366 14.6895
-53.5780 -32.2703 12.8439
38.2958 -49.5880 12.3048
-62.3876 13.4928 -1.6343
-23.4787 -23.0507 -54.7207
46.3915 -30.9449 31.0996
3.8137 -59.0903 -23.8901
53.6253 34.6554 -0.5197
-58.4058 -9.0150 24.1750
21.8899 -18.0470 57.2021
45.1543 27.4071 -35.8732
47.0671 -30.0904 30.9224
-40.7077 -25.1180 -42.2956
58.0691 -2.5988 26.4230
32.4668 -7.9510 54.4025
-10.5072 -18.4924 60.2044
61.8497 15.5339 3.2034
-9.5205 -10.1298 62.3193
29.7318 -37.7447 -42.0512
-31.4301 53.0068 -16.7143
-48.0330 9.5230 40.9767
23.0740 -7.9352 -59.0048
-13.3697 52.5485 33.7172
59.7592 -22.0054 4.6424
55.7031 -26.7786 16.0315
45.6508 42.5159 -13.6141
21.2119 9.8276 59.4173
41.2274 5.4381 -48.4528
21.5208 57.6840 16.9219
-62.7280 11.6402 -2.5788
29.4538 -13.6970 -54.9710
-41.0112 -3.5523 -48.8099
-43.1276 11.9042 -45.5549
-25.3367 -58.5327 2.9864
-7.1156 59.9241 -20.8664
29.2604 -56.5714 -4.5217
55.0362 -30.7714 10.0538
-60.4013 -7.0644 19.4608
-52.5579 16.9715 -32.0403
20.3456 -7.0569 60.1099
-58.1055 -3.2070 26.2755
-41.8189 45.8015 -15.1769
15.1950 17.9213 59.3707
-18.5830 0.0692 61.0869
19.7362 -1.5276 60.7050
46.9533 38.6468 -19.4617
-20.2766 7.1891 -60.1175
57.0470 18.4183 -21.9853
54.7149 -24.4084 22.0783
-63.8178 -1.8676 0.8661
-52.5254 13.5855 -33.6670
-58.7100 24.5839 -5.0701
51.3377 37.6834 -4.6199
-59.3829 16.9519 16.2249
-52.4975 21.7999 29.0812
-14.5287 -26.4372 -56.2755
-31.4402 -33.6284 44.2446
6.2935 -20.4050 -60.1745
55.4459 15.5273 27.5970
47.1951 -3.1445 42.8915
17.0382 -1.5696 -61.5157
-6.9219 -12.5519 -62.2212
-49.6488 -30.0232 26.6561
-57.1610 -17.2428 -22.6329
32.6898 -46.9903 28.2884
59.9507 20.1095 -8.8581
-61.9913 -13.7467 6.7119
-28.5399 -24.1745 -51.7495
60.6754 4.8679 -19.2808
20.5628 -21.6215 -56.4502
33.2818 47.3458 -26.9748
-1.7697 -63.8264 -0.0054
-62.7922 5.0999 10.3960
36.5102 -45.8826 -25.2732
-0.0847 -62.0744 -14.9568
-9.6118 62.7251 7.0799
-46.4378 -15.5909 40.9560
31.3763 -54.8896 8.9221
51.9063 37.1828 0.3446
-36.2213 -51.8633 -8.6695
35.8128 8.7484 52.1331
32.8994 -53.6283 -10.8893
57.0368 25.9208 12.3231
60.3393 -20.8817 -0.2582
39.0451 29.8513 -40.7594
-18.5126 -50.2480 -34.7760
-58.8329 15.8475 19.0917
-56.9221 -10.9440 26.7777
-37.7977 17.1025 48.5364
-32.9119 41.0098 -36.2209
-3.4328 -14.5047 62.0868
59.1204 13.1055 20.2478
35.7893 -3.6621 52.7509
22.5362 52.6011 -28.3230
-22.6402 -59.1006 8.4547
55.7633 -30.3841 6.6481
56.1594 7.6668 29.3988
-35.6687 -7.0471 52.4884
25.9667 43.4135 38.9607
-40.7115 33.8032 35.7331
-6.9947 63.4485 -1.5196
-55.3220 27.0349 -16.8978
12.8936 -45.9032 42.4688
41.1008 44.6186 -19.9210
-36.6986 -51.7612 -7.1371
-22.0986 9.7634 59.1039
-55.8339 -22.9555 -20.7982
-42.6554 -38.2777 -28.1474
-28.5250 -33.9477 45.9437
45.3219 13.3899 -42.9370
-4.5545 63.0185 -9.2122
-49.6709 4.5031 -39.8681
50.8324 18.2431 -34.0617
-21.1178 -44.8408 -40.2528
-17.9415 38.4904 47.6816
38.5018 38.7353 33.0777
-51.9733 -34.9555 12.4028
-22.5404 -24.8955 54.3055
29.8283 31.7301 -46.6949
30.5606 54.0091 15.0337
4.3569 48.7081 -41.0547
40.5212 13.9013 47.3469
53.4850 -13.1674 32.2942
-40.7451 5.5256 -48.8492
-4.8371 -45.2225 -44.8159
47.9495 42.1609 -0.4927
7.6073 -62.3503 -11.4679
34.6282 -25.3631 -47.2710
-4.4318 -32.4317 54.8223
-2.6156 60.1563 -21.2443
-15.5063 -13.7698 60.3895
-33.5154 -52.6564 -13.4522
41.0230 -35.3889 33.7889
38.2194 51.1094 2.0135
-3.1190 61.5065 -16.8573
-23.3170 -26.6012 53.1567
-51.5014 -14.9037 34.6761
56.8673 19.3855 21.6162
-3.2165 -53.9366 -34.0212
-22.4820 -47.2288 36.6189
6.6539 -1.2959 -63.4901
7.0456 -28.4673 -56.7179
-16.3776 51.4473 -34.0865
-5.2238 -44.7369 -45.2578
51.7449 34.5861 14.2550
-56.3625 13.2558 26.9165
43.4667 14.1797 -44.5705
13.2772 -34.2524 -52.2249
-62.1218 -10.2552 -10.6141
8.5479 -41.9234 -47.3952
-30.4236 -55.6585 -7.3132
-25.3338 43.1143 39.7026
-29.9668 -46.6442 -31.6742
-33.1072 -50.0075 21.9114
29.7257 51.8885 22.3810
9.0542 -46.8550 -42.4214
63.3152 -8.0986 -1.5952
31.3570 -24.9132 -49.7294
9.1306 59.2217 -22.0538
-53.6662 34.5921 -0.5158
13.0021 18.2294 59.7962
5.0441 -52.4452 36.0694
-4.7488 62.5688 -11.8125
-11.3641 45.1423 -43.7032
-31.1947 -11.5665 54.4982
42.7977 -45.2999 13.9005
-11.5931 -52.0646 -35.0973
58.2582 25.8994 -3.4856
-44.6826 5.8959 45.2289
31.3953 -19.3158 -52.1362
41.3554 42.2638 24.0924
-34.8819 43.3963 -31.2564
10.2904 58.4477 23.5566
47.8222 -38.8777 -16.6886
9.6595 55.9957 29.1225
53.8871 28.2327 -19.3918
45.1541 -45.0558 2.8326
-28.5003 26.2718 -50.7392
-58.4437 15.2320 -20.7188
-59.3057 15.9033 -17.5174
55.8549 16.9070 25.9101
-1.9880 -42.8325 47.3114
8.5996 53.4555 -33.8453
26.0295 0.5541 58.3018
-9.8001 -19.9360 59.8620
-42.6513 45.6057 13.3393
-14.6752 61.4817 9.0322
43.6906 1.4115 -46.5412
-33.2636 -21.9038 -49.9069
-10.2758 46.2922 -42.7596
-40.5890 48.6691 7.7971
-48.2090 31.9267 -27.0836
1.3880 -1.6523 63.8145
41.8188 46.0663 -14.3537
-30.7238 -21.7765 51.5633
-40.2464 -2.6713 -49.4978
51.1291 17.0454 -34.2376
6.8327 52.9962 -34.9522
-49.2716 -14.1027 -38.0837
27.6297 -57.3485 -4.9696
-45.8827 41.7261 -15.1873
-26.2702 -56.5091 -13.9118
-57.4208 23.7362 14.7103
44.3667 6.9649 45.3875
-36.9142 29.5767 -42.8895
-35.0409 52.4596 9.8521
60.7050 18.9237 5.8089
-41.2099 -38.0401 30.5228
6.7365 -11.9684 62.3564
-55.3325 10.3510 -30.1350
-56.7802 -6.8694 28.3859
-58.0870 26.1869 4.1349
49.6530 33.2484 22.4959
18.4803 48.5222 37.1621
-8.7479 -51.9459 -36.0839
-44.2361 24.5636 -38.9454
-14.5849 -52.3520 33.5185
40.5649 -19.9993 -45.0717
20.6558 -46.8483 -38.1512
63.3248 -2.6793 -7.7289
-1.3536 54.8846 -32.6004
49.1172 31.2981 -26.1701
63.1745 -9.2316 -0.8390
-19.1149 -6.0405 60.6224
-25.2467 35.0506 47.0213
-62.7269 -2.9092 -11.5680
-39.5821 44.3702 23.2698
29.2089 53.4469 19.1630
-14.6157 39.1147 -48.3049
17.3574 34.4025 -50.9130
7.1893 63.2682 4.7325
22.5276 -39.9183 44.4520
-53.0545 -17.1701 31.1023
-29.8581 53.4930 17.9983
-12.8348 23.4611 57.9809
32.9114 34.7501 42.2636
-62.8503 -0.0163 -11.2599
-46.7880 -42.2535 -10.1230
51.1936 38.1586 -0.2891
-10.2622 -62.6848 6.5002
13.4671 49.8828 -37.5139
-53.6051 13.8233 -31.8176
38.9070 -25.4522 43.7650
-28.2072 -44.1917 -36.4471
-53.1267 34.8715 6.2026
-46.6271 34.4076 -26.8137
53.7315 23.6138 25.1448
29.2597 -52.0790 -22.5519
2.5323 37.8500 51.3606
59.0512 21.3593 -11.5620
39.5351 -49.1245 10.0349
9.5394 -60.1139 -19.2941
-37.2894 -6.0833 51.4727
34.4477 47.1585 -25.8142
0.0146 -41.8671 -48.2088
37.8731 -32.5982 -39.7484
-57.7589 -24.8381 -11.1320
-24.8046 -20.8694 55.0104
-36.8321 49.5587 16.2567
19.5268 -22.3003 56.5539
47.6745 39.9981 14.2911
4.0451 62.3280 -13.2592
27.1485 -52.3848 -24.4078
63.6633 2.4391 -4.2406
-8.8811 -56.6931 27.9994
36.3543 -39.5928 -34.4633
-58.2414 16.4321 -20.3684
-60.5651 -18.3309 8.5317
40.6325 -8.6268 48.4925
6.4575 -47.8436 -41.7880
-19.9081 -1.2449 -60.6553
-18.0495 -54.6458 27.6585
21.9887 38.8186 45.6789
-4.6032 -43.2706 46.7269
-10.2164 49.2512 -39.3305
-40.3790 -0.3558 49.4606
56.1998 15.4016 -26.1020
-20.1117 -55.1548 25.1081
-15.2577 48.2111 38.9850
-42.3296 21.0347 42.9266
-63.3659 -7.5537 2.1563
4.4419 60.4026 -20.2173
-56.3456 -24.3175 -17.6287
-59.5805 -12.3353 19.3636
50.2154 -20.6021 33.6290
19.7436 20.1273 57.2890
-55.9624 30.7419 0.2972
18.7425 -15.4080 -59.0615
-61.4295 11.2372 13.3076
53.1912 35.1936 -3.0081
5.3083 -1.3738 63.6151
-1.2968 -42.1076 -47.9814
-46.5431 23.4049 -36.9174
7.8242 36.9685 51.4689
11.3744 42.2383 -46.5133
41.1000 -4.7001 -48.6378
-2.7911 -38.2690 51.0357
46.4814 -38.6344 -20.5865
-32.3716 52.2180 -17.3869
-14.3913 -22.1352 -58.1366
-51.6631 27.4213 25.6114
32.6885 28.9429 -46.5909
-38.5405 2.2362 -50.8584
34.3301 -33.4329 42.1975
-7.6765 60.9028 17.5745
14.1995 -26.9415 -56.1202
-51.5223 -35.2940 13.2940
-4.8366 61.8341 -15.1690
-61.9597 0.6485 15.4118
-52.8326 -21.8710 -28.4134
46.3436 32.0780 -30.0036
17.5641 -38.7430 -47.6175
-36.4773 46.7026 23.7743
39.7237 30.3191 -39.7457
8.9575 47.1232 -42.1440
-12.6994 14.1220 -60.9609
19.0514 55.9266 24.2117
-29.2428 -55.9871 -9.3408
-45.9253 31.6380 -31.0943
4.7442 63.3554 -6.3666
-52.5892 36.1454 -2.1988
-23.8834 -7.3063 58.7635
-48.2175 40.0697 12.1008
14.1741 -25.2729 56.8974
29.2804 46.6679 32.2754
54.7940 -19.3074 26.4913
-46.8898 -40.6849 14.9340
-15.8300 -60.9019 -10.8309
1.3442 -6.7358 63.4804
63.7297 2.7515 2.8103
26.5469 37.9013 43.9965
12.0878 -57.4141 25.1884
-52.2228 -35.3153 -10.1269
11.0771 -25.0922 57.6595
13.5105 -50.5133 36.6444
18.7699 34.3740 50.4288
61.3930 -12.9251 11.8653
-20.1143 -60.5994 -0.2770
-2.7597 63.6054 4.8659
-34.9533 -21.4366 48.9457
34.3940 22.1317 -49.0325
1.5903 -54.4060 -33.3826
33.5875 -16.4831 51.7410
30.9845 41.2856 -37.5820
-22.0837 -4.7148 -59.7246
39.0283 -42.0631 -28.0077
49.2936 36.9160 16.8611
-49.0963 14.1900 -38.2772
52.4666 -34.1762 -12.4974
12.8038 59.4747 19.3847
24.2827 -17.3658 -56.4422
28.4902 -17.7616 54.3119
-18.1731 50.8325 -34.0989
-56.2911 -29.6614 5.3342
-28.5005 -25.6236 51.0695
6.0927 62.1705 -13.2156
-15.9871 -53.8524 30.3526
56.9407 12.1938 -26.1918
-28.2312 -56.8857 -6.6299
-32.8928 -49.6792 -22.9562
-24.3322 -36.7907 -46.1664
-48.7430 12.4283 -39.3268
9.1831 28.3177 -56.4865
28.5913 56.5793 7.6330
9.1760 56.7367 27.8153
21.2431 -40.7407 -44.3381
38.1664 -33.9563 38.3046
6.7427 -51.2685 -37.4570
51.0431 15.8430 -34.9362
-62.1925 4.2812 13.8098
39.1849 -25.4394 43.5238
-0.9016 -54.0568 33.9704
-50.9111 36.9837 10.8264
23.0071 -4.8078 -59.3675
11.4487 41.5091 -47.1473
-52.0342 37.0023 -0.4655
-60.7301 -5.6717 -18.8845
60.6558 -9.4744 17.5515
-3.0939 57.6692 -27.2330
-25.1879 -49.1712 32.0111
-36.4277 14.2271 50.4734
62.2597 -8.7580 -11.1340
-7.2595 -23.8885 58.7672
-60.0818 8.9564 19.6699
10.5381 24.8938 57.8463
15.5191 -52.4725 -32.9049
56.3751 -8.6039 -28.7187
-14.8803 -57.7167 22.8976
-31.6917 -55.4174 -1.2214
-8.1331 62.9312 7.1036
36.3269 2.5630 -52.4474
-44.4925 40.6791 -21.0374
59.0096 14.3383 19.7286
4.9074 -54.9913 -32.0752
38.1885 -15.4548 48.7825
-45.7069 41.5103 -16.2700
38.9725 10.5143 -49.4726
-22.0659 47.8744 -36.0290
58.9249 24.5141 1.9652
34.3756 53.0078 9.2430
19.4503 15.9503 -58.6875
-25.8443 58.3814 -0.7898
51.7061 -37.4131 1.9194
-43.0711 31.3120 -35.2332
22.8463 23.9564 54.5993
-40.1364 23.9756 43.4878
26.3574 -55.2874 18.0425
-31.1569 41.8097 -36.8530
5.2541 8.9130 63.0071
-27.0992 50.6369 -27.9014
-46.2878 12.3751 42.2048
-50.2162 -25.3348 30.2229
60.2672 19.0150 9.1235
11.6362 27.7865 56.2979
40.9379 45.7860 17.4550
-12.5410 34.8747 51.9945
23.5950 -55.5805 20.7612
-0.5137 63.6937 4.4485
21.7335 22.0695 55.8349
28.4964 30.5683 48.2750
44.7945 -45.4920 0.9379
-0.5203 -26.4113 58.1301
24.6182 57.7041 11.8799
-19.6901 16.8041 -58.3684
50.5082 -32.6111 21.5030
60.5678 19.3755 5.7507
39.3383 17.4014 -47.1872
-32.9037 24.4294 -48.9642
-52.5632 33.8776 12.8984
-24.9241 5.2956 -58.5465
-63.5140 -5.0327 -4.1945
-60.6636 -18.4648 -7.4784
21.6343 -60.0738 -0.1908
53.9848 -18.5031 -28.6396
34.0200 49.4599 -21.7557
35.4105 17.8118 -50.0578
-19.6941 10.3858 -59.8433
6.2832 -60.8768 18.2065
-41.3770 -48.3686 5.0368
-58.4601 25.4460 -3.4434
16.0487 -55.9707 -26.2044
20.9319 -51.2868 -31.7563
59.4246 -7.5249 22.1142
51.2924 -37.2199 -7.7915
-21.6995 48.5171 35.3860
-29.8648 28.3328 48.8087
10.3692 8.1081 -62.4795
-31.3401 24.7918 -49.8007
-58.9253 24.5203 1.8720
-1.1669 40.4154 -49.4184
-44.5363 -18.7947 41.7159
-52.3504 25.6763 -26.0212
21.7333 -52.9275 28.3424
-33.8604 -35.4396 -40.9201
31.7155 43.4911 34.3452
-31.1199 41.7246 -36.9804
12.6070 26.8934 56.5221
41.4999 -14.3713 46.3483
4.0617 18.4277 60.9989
22.9102 53.7397 -25.7704
46.5547 2.9191 -43.6014
-44.8849 -37.8661 25.0689
54.3009 33.2809 -4.5537
51.0376 32.3578 20.6175
46.2454 44.0222 -0.5968
44.4037 -40.5306 -21.5065
59.6538 0.1675 -22.7670
24.2525 11.5694 57.9216
-42.8444 -8.3134 -46.6067
21.0900 -34.2013 49.6229
48.5125 -25.9694 32.3894
22.4745 37.8145 46.2807
62.0419 -10.8679 10.4705
62.2625 -13.9213 -2.5547
-53.5525 -28.3021 20.2006
17.8940 24.1980 -56.3135
31.3330 -30.5665 46.4852
-54.8093 -29.3117 14.6187
-37.0909 -18.9392 48.3996
-17.2108 -53.4344 -30.4220
-52.7168 34.4150 10.6533
32.4225 -51.0548 -20.4727
36.4177 -49.8678 -16.2450
33.0338 51.1773 19.1468
-31.4773 -2.0781 55.5140
-23.9353 48.2435 34.3018
-26.5002 17.3681 -55.4350
-8.7637 19.3102 -60.2267
28.4570 27.9670 49.8497
15.9233 -0.3013 -61.8328
41.0865 -29.1060 -39.2643
42.7185 -7.8180 46.8076
-55.0563 -1.0028 -32.3225
-49.0216 40.3760 -6.6037
37.6754 45.3278 -24.5540
25.2522 41.9372 -40.9944
50.6414 -32.3123 21.6404
-22.1366 -33.0897 -49.9198
-60.3554 12.8875 -16.3731
-15.6485 57.0634 23.9965
39.9934 -47.3418 -15.3697
-1.9084 62.3332 -13.7066
38.0687 -51.1594 3.2313
-26.6887 8.4255 57.3905
-24.1372 -58.0153 -11.3385
17.6991 -12.1225 -60.1393
11.8315 62.6245 3.8903
-37.2631 34.7826 38.4522
-20.5497 -26.6474 54.2639
25.1461 -42.8378 -40.1191
-61.4880 13.9590 10.0659
-61.6630 -16.4314 2.1516
59.4983 -18.3370 14.1653
-13.8335 62.2838 2.5124
-37.2696 49.8669 -14.1849
43.3769 -45.7416 10.1536
-42.0285 -21.8326 42.8239
-28.0999 17.3056 54.6613
30.6043 35.1993 -43.6043
-26.2904 -18.5574 55.1487
-2.4381 60.9394 -18.9049
33.7957 51.7467 -16.0334
-32.1701 32.7629 44.3692
55.3328 -30.5283 -9.1238
-59.3395 23.3829 3.0011
42.9112 -29.6000 -36.8703
-47.7277 17.4827 -38.6441
55.6026 21.5361 22.8362
63.1990 8.1783 3.9926
55.7806 -29.0836 -10.9370
55.2985 19.9136 -24.9492
-52.7454 17.5373 31.4215
-14.4625 18.3581 59.4202
26.7684 -44.5501 37.0902
-23.9828 -7.3887 -58.7126
-39.3951 33.9966 -37.0027
48.0892 17.5624 -38.1567
48.2688 -14.8918 -39.0551
35.0908 -14.4251 51.3566
13.0033 -18.5516 -59.6967
-52.4333 -24.8829 26.6182
4.5592 62.7871 10.6740
37.6547 -45.3447 24.5546
-10.4542 43.9877 45.0859
-42.0299 45.4782 15.5617
21.4637 10.5302 -59.2062
52.3100 18.2813 -31.7238
-23.2654 54.7136 -23.2828
-30.3598 -55.2081 -10.3585
27.6917 52.8251 22.7951
-9.5238 16.0849 61.0534
-8.4325 63.1223 4.6270
2.7023 63.7685 1.7931
-20.3008 -6.3151 60.2075
-41.9506 46.0688 -13.9553
-45.8779 -35.5298 26.6419
-3.6790 -3.4886 63.6493
20.1897 -20.6955 -56.9299
44.4600 -44.6114 -10.4917
6.3996 -12.8008 62.2264
-3.3914 27.6460 -57.4556
-37.3905 1.9243 51.7223
18.7171 -19.3937 57.8835
26.2766 57.0854 -11.3022
-12.9964 -62.4221 3.3945
-38.8557 -8.7103 -49.9130
-50.7740 38.4897 -4.1823
27.9738 25.4898 51.4265
-14.4585 -15.6147 60.2003
-34.2928 -51.3778 16.1638
57.8482 -22.5559 14.8918
53.9407 33.6372 5.9902
19.4823 24.3112 55.7347
-59.4765 -11.4720 20.1961
45.6383 -35.3343 27.3053
10.6889 61.8582 -11.6728
32.1649 -39.6230 38.3716
41.5860 48.3036 -3.7837
20.1995 35.8224 -48.8434
-8.7678 63.1498 -3.4895
-54.7829 -10.9000 30.9349
56.1179 23.1945 -19.7418
-60.5809 20.0375 2.3222
58.4033 22.2460 -13.0812
7.5826 43.0074 46.5812
3.4372 -57.4909 27.5668
-4.7010 -58.1910 -25.8582
7.5316 -9.4000 62.7045
4.2344 -60.0007 21.4225
-58.7165 -21.2875 -13.2723
-32.0218 -39.2632 38.8580
27.2550 16.4205 -55.3577
52.8053 33.2677 -13.4836
16.2419 -29.5478 -54.2224
19.1616 31.6679 -52.0281
8.1300 48.6813 40.5090
29.9049 -23.4013 -51.3324
-40.5700 37.5990 -31.8957
-19.4949 53.1364 -29.5536
-43.6898 35.3124 -30.3509
-33.7172 -50.3855 -20.0348
-4.9709 9.5821 -62.9318
50.6001 -5.4529 -38.5596
7.2656 63.4070 1.9248
53.3382 4.8299 -34.7657
-52.6101 1.4693 36.1520
-60.3807 10.5024 17.9114
-44.8060 38.0973 -24.8588
3.0333 -48.7421 -41.1333
7.0610 -62.8615 8.6902
-12.8734 20.6207 59.0424
-5.9399 19.7262 60.4362
-24.4588 48.5822 -33.4437
-35.2266 46.8110 -25.3923
-46.4182 9.3884 -42.8270
16.1303 -4.4170 61.6218
-35.3568 19.0442 -49.6403
3.3957 36.9035 51.9956
-36.3113 -6.4318 52.1255
11.4425 -10.9917 61.8482
-62.2954 -12.2375 6.8169
51.7165 -32.2311 -19.0657
58.6364 -24.9595 3.9665
-26.7138 7.1147 -57.5561
2.1357 55.2644 31.9097
-0.0817 -38.6034 50.8598
15.4748 -58.0830 -21.5370
12.3930 -11.0040 -61.6626
-62.5600 -3.9184 -12.1588
-62.8154 2.6586 -11.1403
33.6750 32.9922 -43.0634
-8.1374 59.0940 22.7735
-33.7389 49.9126 -21.1510
-55.3600 -19.7833 -24.9167
37.8982 -47.3365 -19.9980
-5.5860 -60.8812 18.4178
47.3360 30.7627 -29.8313
34.2759 49.7371 -20.6961
-59.5399 -8.5926 21.4034
-46.2700 41.2951 -15.1902
59.9731 -1.2247 21.8785
-58.0675 23.1881 -12.9393
-29.8401 -20.9533 -52.4163
-6.3971 -29.0447 56.5015
-57.0562 -14.4746 24.7391
24.9487 7.9364 -58.2368
-31.4414 49.7112 24.8432
-55.6682 -27.9096 14.1084
38.7988 35.1528 36.5496
51.9237 -30.3580 -21.4305
-42.4090 -43.4073 19.8550
-25.7042 58.4461 0.5361
-53.2529 -13.8814 -32.3787
40.1833 -32.8815 37.1626
43.4021 -46.6845 3.7097
51.8268 24.5527 -28.0729
-16.5971 -28.4454 54.7023
-30.9744 1.4792 -55.8153
-49.3922 8.8806 39.4777
19.5318 -45.2473 40.5972
19.1098 -11.6467 59.8006
-18.3881 42.8952 43.5755
2.1481 -37.9780 -51.2835
-60.0924 -12.5008 17.5947
17.0071 46.0830 -40.7929
-28.4006 25.2723 51.2997
31.9936 -35.9775 -41.9401
48.3796 -2.7220 41.5807
-44.5706 5.1976 45.4245
-46.1062 -41.3173 15.6218
44.3324 39.3897 -23.6651
-51.7728 -29.2473 23.2619
-29.5599 -38.8087 41.1951
-63.8291 -0.2453 1.6518
8.3028 -29.6560 55.9332
-11.9147 58.6692 -22.2016
-25.8028 14.8189 -56.4939
37.3023 -51.5660 5.1412
21.5022 -50.8923 -32.0090
41.8406 1.2009 48.2169
13.8343 50.7920 36.1349
-22.0458 -56.3937 -20.2651
-21.6893 43.5798 41.3197
-22.7618 59.5524 3.5152
41.6107 -15.1906 45.9863
-16.9332 -61.5301 2.0616
32.9822 28.7554 -46.5000
-5.3431 59.0894 -23.5975
-63.3605 -4.5884 -6.4292
16.5643 50.8006 -34.9553
17.1894 -49.6441 36.2895
-20.7298 20.1657 -56.9260
5.6259 -59.0009 23.7527
31.5732 54.0020 12.8008
47.1417 37.3557 21.4280
-58.0192 21.6558 15.5479
20.0556 -50.3341 -33.7816
44.2508 -45.8332 -4.2578
-44.0604 -37.3748 27.1798
-40.3779 20.1439 45.1752
-30.4814 22.4239 -51.4295
0.8630 63.7557 3.3781
-41.4958 8.0728 47.8526
-5.2698 -46.1191 -43.8429
-36.8923 -4.3332 51.9339
-34.0655 1.2456 53.9901
16.8690 60.0871 -13.4877
-14.5250 -59.2707 18.7870
-48.9038 -28.2475 29.7900
-8.8941 38.8940 49.8508
57.1450 27.6621 -6.7971
6.7157 -5.9496 63.2175
12.6488 33.7419 52.7109
21.4354 -54.8705 -24.6311
-59.1870 14.6552 -18.9491
-44.6135 -45.2643 6.1417
15.4947 -61.5339 -7.1024
-28.2688 51.7872 -24.4111
40.7405 48.1781 -9.7994
46.4752 23.0086 37.2506
49.9989 -31.0579 24.7479
-5.5215 -63.1613 7.5573
-61.0756 15.4336 10.4173
-34.2067 21.4217 49.4768
53.8520 -23.1713 -25.2981
2.2398 -1.6048 63.7915
-18.5762 -24.6176 -55.9092
37.2819 -51.8363 -0.0115
-7.0782 -28.4417 -56.7267
-26.3508 39.0276 -43.1211
22.1748 19.4547 56.6280
40.3192 8.6013 -48.7578
15.3462 10.0591 -61.1576
51.7045 -37.4519 0.9698
-57.3091 4.1706 -27.8427
-6.5261 -62.3887 11.9166
52.1971 -21.0934 -30.1243
-39.4108 31.7292 -38.9486
13.3322 55.1984 -29.1948
63.6006 5.0062 -2.6165
-51.1852 37.9409 -4.1842
63.0714 -7.6100 6.4055
-6.1353 52.1720 -36.2958
-46.7313 38.2031 -20.8243
-31.6988 -29.8943 -46.6740
35.4439 38.4505 36.6365
27.4966 57.0956 7.8082
-39.4398 -47.4039 16.5626
63.3443 0.3620 8.0199
42.0298 -43.2178 21.0396
-20.4785 59.9363 -8.0758
-12.8491 20.8379 -58.9714
-51.3845 23.0113 -30.1174
-24.6131 58.0472 10.0830
-41.1464 40.5923 27.1328
-26.5274 -56.3425 14.0983
30.1729 44.6963 34.1874
36.1545 20.3935 -48.5170
-50.8251 30.1913 24.1295
3.4494 47.5059 -42.5233
23.8109 -57.2405 -15.2809
25.5954 58.1958 -5.9218
-60.2706 -2.6080 20.9188
-49.2239 -30.6126 26.7734
-47.7041 23.2918 -35.4789
-61.0571 -0.6958 18.6679
38.4243 4.4332 50.8022
12.5009 11.3768 61.5730
13.7863 61.8261 8.0262
59.6258 -6.6296 21.8576
-3.2537 60.0205 -21.5382
32.5087 -54.7263 5.0158
-52.6445 30.8181 18.8611
-31.2327 55.5610 3.8001
-17.4313 23.2584 -56.8519
-29.5825 27.1298 -49.6568
-9.6771 29.7796 -55.6460
43.7039 43.2688 17.1674
44.5958 -29.9078 34.5497
28.6366 49.8219 -27.8329
-7.5160 61.7854 -14.2484
23.5241 43.8165 40.0459
54.0910 -33.3254 -6.3662
15.8316 -61.6064 -5.5639
-14.5392 -61.4743 9.2988
-38.2087 50.7599 -6.3621
-9.6908 -62.2463 -10.4130
-50.5589 -38.9662 -1.5406
9.2824 -63.1726 0.0739
-59.5030 -22.9504 3.1008
53.7965 31.1069 -14.6712
-34.1595 52.1739 13.7098
0.4424 -24.9786 -58.7607
28.2113 4.0092 -57.1401
-36.9885 -48.0044 20.1089
-15.8166 -26.5649 -55.8667
-33.1728 -32.7268 43.6516
5.6168 15.0017 61.8089
3.6903 -50.5648 -38.8140
21.9936 -57.5619 -16.7289
2.7638 -58.0472 -26.4542
46.9956 -27.9612 32.9625
-58.7982 -22.3975 -10.8661
-18.1158 34.7505 -50.4100
-63.0873 -9.5461 -2.4097
-4.6697 -6.2770 63.3698
27.0494 -10.1652 -56.9381
36.6700 39.9749 -33.6788
10.0243 9.2509 -62.3769
54.6730 -14.8005 -29.4746
4.8431 47.0694 42.8714
51.7081 -1.7124 37.4204
-40.0258 36.7015 -33.5840
43.6831 30.2686 35.3912
-50.1602 -35.9892 -16.2995
36.8576 -46.6210 23.3439
-21.4122 -7.7072 -59.6579
20.4915 33.5381 50.3214
-6.5771 15.5053 61.5895
35.0398 -29.8393 -44.2580
-14.6754 13.3638 -60.6876
-18.1712 -43.7068 -42.8540
6.3336 57.1856 -27.6882
5.4296 -62.9389 9.2820
-51.3358 -24.5823 -28.9359
23.1694 40.7507 -43.3532
-47.3537 22.7660 -36.2806
-18.6753 19.7853 -57.7643
-63.4861 -1.2755 6.6955
-56.0255 28.1583 12.0496
57.6330 -25.6501 9.8717
55.5357 -4.9710 31.1130
-60.8482 14.8698 -12.3826
39.2090 6.8608 -49.9252
59.4410 21.0868 9.9528
61.3821 12.0351 -12.8193
31.7435 -40.6455 -37.6462
25.7627 -39.0319 43.4711
61.1781 4.5336 17.7098
11.9359 51.3872 -35.9700
-63.7309 -3.7693 1.0536
-57.7110 -13.0135 -24.0215
-51.7362 33.5405 -16.5935
27.8749 -42.7583 38.3623
-23.3764 -59.4017 1.3870
-16.5110 52.4040 -32.5292
-26.5311 -41.6660 -40.4597
11.0145 53.9701 32.2932
-3.1321 25.5286 58.4416
-29.4857 22.9530 -51.7755
23.0677 41.7435 42.4535
-3.7332 -38.4446 50.8431
2.4288 25.2448 -58.5982
-41.2305 -48.5686 4.2523
27.4354 -5.6289 57.3808
13.8767 -7.3774 61.8866
-33.1043 -28.3886 46.6384
54.5851 -28.7769 -16.4105
51.9391 -36.7648 5.2563
-25.5592 12.1065 57.2460
18.1044 -31.4172 52.5560
25.2423 46.0062 36.3759
38.4024 50.2584 -8.7346
-25.7975 48.1075 -33.1225
-31.1159 -54.5982 11.3039
-54.5856 26.6470 -19.6798
47.4413 -42.5676 -3.7771
2.1972 -63.0351 9.9342
4.6264 56.1118 30.1166
52.2045 14.1894 -33.9161
23.7355 -25.2707 53.6187
-55.1662 -31.4166 6.8286
-26.8630 41.6668 -40.2393
-35.4698 -52.2391 -9.4819
5.6917 35.2152 -52.9570
-52.2296 -36.0486 -7.0367
-25.6156 -35.5631 46.4333
4.1357 56.1987 30.0257
41.0023 36.9706 -32.0769
51.7217 36.0371 10.1560
-53.0504 -9.0875 34.3513
19.0797 -55.4564 -25.2486
33.4174 -29.1723 45.9260
-21.3080 -15.0794 -58.2712
4.4432 49.5312 40.0482
-18.4654 -14.0530 -59.4852
-17.4919 -43.6358 -43.2076
9.2679 -63.1290 2.4053
56.4461 -24.6772 16.7875
63.1342 1.8604 -9.3570
57.3065 14.7170 -24.0067
33.9141 -25.5871 47.6664
38.8012 40.2444 -30.8513
5.4012 60.1347 -20.7746
0.2484 -41.7044 48.3490
29.5499 -56.3510 -5.3209
-56.5045 29.6188 -2.6287
-59.0549 24.2253 -1.6133
-25.3635 -58.2403 6.4577
-17.5008 31.1718 -52.9054
-32.4642 -43.7133 -33.3492
-28.4426 37.4079 -43.2274
-32.6680 -17.6120 51.9574
6.8183 12.6766 62.2074
-12.5440 -50.1962 37.4157
-9.0993 62.4931 9.4211
-1.9895 -1.4188 -63.8042
22.4222 -50.2129 32.4477
-42.9526 -47.1729 -2.5945
24.0732 -47.3363 -35.4499
-51.1694 24.1148 29.6161
7.6956 10.2633 62.5491
45.8076 -42.9634 11.5219
55.3383 7.8132 -30.8800
27.3293 28.2955 -50.2933
35.8892 49.3582 -18.7797
-31.1472 -3.8012 55.6089
-6.9368 -63.4296 2.3479
-28.9036 11.4995 55.7610
40.0440 26.5947 42.0255
-10.1441 40.8764 47.9912
54.3717 23.6136 -23.7290
-61.2243 -16.7392 6.9520
42.1598 28.2325 38.7610
25.9073 -54.4731 20.9389
33.8627 -21.6299 49.6227
15.4783 -45.0066 42.5649
27.4567 -56.0578 -13.4387
-22.7460 52.5870 -28.1811
-52.0019 -35.4510 -10.7691
-20.6525 -57.1670 19.5538
-46.0593 31.4493 31.0874
12.1657 61.2732 13.2113
18.8339 55.8219 -24.6199
0.8897 63.4862 -6.7569
60.7488 7.1064 -18.3310
51.9298 28.3080 24.0602
-59.6234 -8.8558 21.0612
55.7409 18.8802 24.7677
42.6320 -20.4597 -42.9052
8.1221 61.9441 13.1872
34.8240 -42.8313 32.0891
-35.4633 -46.8743 -24.9419
50.9169 -8.6782 37.5380
-24.9598 -55.9809 -17.8911
28.9635 -3.2953 -56.8085
49.8851 -39.5449 -4.9612
-53.1319 35.0212 -5.2406
-50.9604 9.2946 -37.3309
0.0793 -58.1475 -26.3782
0.4948 3.6488 63.7447
8.4955 57.2594 -26.9467
34.0200 27.1690 -46.7057
-17.4444 47.7670 -38.6128
-49.0490 -40.6320 -4.4921
38.9114 45.1695 22.8597
26.1708 31.1218 49.2287
-44.7593 -41.5724 18.5817
6.7206 -62.6956 -10.0516
-0.6866 -61.2469 -18.0357
-18.8652 24.6754 55.7868
-51.9421 9.6681 -35.8537
55.9990 29.9104 -6.8137
-59.1573 17.9946 -15.9234
-11.9416 58.5623 -22.4678
-3.8097 42.3470 -47.6357
-16.1464 -41.5817 45.6859
-8.3643 13.9313 -61.7487
55.2912 -30.0486 10.8124
-5.4528 -25.5542 58.2597
-60.3492 20.6688 2.7786
-37.6197 46.8279 -21.6530
-14.9145 59.9658 16.0811
-42.5317 17.2276 44.3983
-13.7961 56.6835 25.9535
-4.6421 -63.6279 2.6236
-33.8597 -41.9501 34.2149
-10.8551 17.4084 60.4654
-12.7001 7.3310 62.1443
35.6337 51.8202 11.0386
-20.2657 -19.8155 57.2153
-45.2552 44.2300 -8.5216
12.3615 -5.0450 62.4395
4.8700 -61.6570 15.8633
-16.8351 -16.4673 -59.3494
-2.8784 -13.3976 62.3632
43.1197 -17.8504 -43.5775
-13.8085 49.1635 -38.3304
36.7435 -16.3103 49.6068
-47.1284 -41.9702 9.7142
-38.0028 -48.1897 -17.6206
8.1810 0.4817 -63.3229
-56.9464 -28.3067 -5.7256
47.2021 23.5314 35.9886
-61.2228 16.7529 6.9324
23.2468 -12.6597 58.1056
22.6757 29.9172 51.6500
25.3341 58.5870 -1.6397
-11.6414 35.3030 51.9145
-7.9655 7.0633 -62.9572
25.7623 -15.5831 -56.3065
8.6134 21.3922 59.5410
-16.4353 50.5488 -35.3786
-58.8322 19.5706 -15.2546
54.4490 32.2575 -8.4675
