ply
format ascii 1.0
element vertex 1024
property float x
property float y
property float z
end_header
80.0754 21.9104 -23.5464
-63.8069 58.0221 2.9472
-38.8345 -3.6451 76.9751
-40.2840 76.2868 -2.0237
-85.5373 9.5149 6.2782
-4.7835 64.7821 56.8064
73.5532 -30.8522 -32.9340
22.8228 -82.9015 -7.2821
-31.8265 -53.2200 60.0106
-69.9042 -2.1052 50.5523
38.6629 71.6809 -28.5238
21.1300 67.5489 -49.3684
43.3267 23.5068 70.8294
-56.6385 54.7531 -35.2242
53.7427 46.3555 49.0862
-81.1905 27.8696 -8.8296
-82.3756 23.4268 -10.5839
-29.7972 47.8976 -65.3033
83.2505 21.9183 5.9600
7.5286 44.2850 73.6800
-27.8480 76.9487 27.3855
-0.3901 -63.0446 -58.9220
-33.5920 -14.0481 -78.2356
-31.8199 -78.5653 -16.1731
-19.9306 -81.3772 -20.6662
79.8590 18.2709 27.1163
68.7345 -47.5932 21.3782
80.5126 -19.1876 -24.4158
-62.2146 17.7802 57.0945
-33.8577 17.8478 -77.3414
-64.0371 -57.6028 -5.2676
-82.7174 24.5388 -1.5017
-23.4319 12.0178 -82.1772
36.5672 78.1614 0.4579
-54.4177 -4.2282 -66.8387
-13.8894 -60.2456 -60.2007
37.1755 73.8111 24.8289
15.3131 54.1834 65.3930
-41.0460 37.6428 -65.9152
-7.1489 59.3269 62.2558
-54.2884 55.3400 -37.9055
-72.9391 11.8232 44.5721
-41.9712 -26.8717 -70.4479
-46.2092 48.4297 -54.4596
40.8021 6.4421 -75.7645
14.8729 50.2602 68.5513
-48.0107 50.4078 50.9961
-19.1732 -80.5826 24.1952
-49.8396 -54.1292 45.0846
-64.5736 -57.2127 1.8786
-54.0591 66.0054 12.9414
51.6994 -66.4348 18.9779
58.6623 -44.9646 44.5365
44.6749 -10.0742 -73.1385
-30.3072 -77.2027 -23.8284
62.5176 -10.9203 58.4711
59.2734 39.3943 -48.7989
77.3811 33.8288 -17.7299
46.6831 -8.1456 -72.1173
-1.6744 73.1825 -45.6957
-40.8643 -31.4732 -69.1818
81.3332 27.5939 8.3697
-57.4135 -46.8432 -44.2264
-8.2374 -0.3062 85.8989
-48.2311 8.4611 -71.0545
-72.4037 45.8256 -10.2129
67.5842 -25.2057 -47.3669
61.9863 60.0356 0.0309
-78.8567 -28.6086 20.2423
58.2001 9.4787 63.0038
68.3420 -52.3392 -6.0458
-62.7196 -56.4005 -18.2156
2.2994 70.7456 -49.3594
49.2301 70.1435 10.1422
-1.6914 -74.3507 43.7686
-27.6257 43.8204 69.0157
27.8660 -79.7339 -17.6797
39.0591 39.8602 65.8189
48.8518 -62.2925 -34.3470
-83.8212 -14.6979 14.3019
-52.2362 62.7451 27.9464
-36.7215 72.8060 -28.2382
-47.8126 69.4414 18.3962
75.6307 35.2507 -21.9992
-20.5584 -63.1938 -55.0497
-2.8827 76.0262 40.7221
42.8513 -68.7636 29.6970
-28.3066 77.1464 26.3389
-75.9636 26.9875 30.7860
-65.2015 54.3226 15.6331
-55.0787 58.2176 31.9941
-52.2277 65.5118 -20.6651
3.9566 -80.0388 -32.0111
19.5291 -81.8185 -19.2595
56.3717 -60.9052 -23.6508
53.8512 -60.5568 29.6563
42.7475 72.7224 18.1847
39.8434 -15.9151 74.8718
-34.1262 -23.4687 -75.7047
33.5512 -29.5149 73.8225
63.5257 57.9745 -7.0725
0.7582 -14.4352 -85.0742
10.9063 34.2775 -78.4390
28.6892 -76.9513 26.4952
-42.5753 -25.0676 -70.7498
85.5966 1.2627 10.8719
-46.8874 -42.8677 58.3996
1.8501 46.3582 -72.7604
38.5302 58.4982 50.3980
14.7441 22.3163 82.0437
51.9203 -50.5902 46.8134
28.4091 48.1916 -65.7044
40.1529 -60.4328 -46.7140
12.0146 -82.2654 -23.1219
13.3873 50.4243 68.7368
4.0524 -40.6654 -76.0031
4.9170 58.1795 -63.5416
-10.9684 53.1147 67.1200
35.0728 -76.8507 17.6194
-26.8136 -43.5355 69.5145
-57.6371 9.8841 -63.4574
-49.8542 16.6629 68.4359
-8.4316 67.6022 52.9663
-69.0611 47.0701 -21.4837
-80.4912 -24.5655 -19.0862
59.7367 -15.3211 60.3603
-73.9791 10.6301 43.1355
-73.9511 3.5026 44.3344
57.9666 -35.4915 -53.1677
44.1942 -13.4104 72.8945
81.5216 -0.4890 -28.2944
71.8401 -47.7075 -3.0928
-24.8539 -44.2836 -69.7697
-16.9226 -82.0167 20.8196
-12.8562 -48.0945 -70.4855
-81.3467 -17.2403 23.0664
-82.0100 -10.0895 24.8824
64.0872 23.7506 52.6813
-42.2503 -29.9448 69.0275
-8.2380 18.7349 83.8315
-3.0451 -81.3530 -28.6180
-41.1575 -65.7282 37.8475
-42.0994 -62.1943 -42.4981
32.9603 -62.0337 -50.1200
36.0632 -52.2261 -58.4675
-43.9449 -12.3792 -73.2269
39.8301 -22.6336 -73.1291
-57.8505 62.3720 -14.4786
-30.4965 24.1345 -77.0329
-67.6095 49.7802 19.9363
-3.7753 23.8584 -82.8438
13.5231 50.0453 68.9867
1.6074 32.5201 -79.9152
-43.1155 29.8829 -68.5175
-76.7461 -18.4102 -34.8953
-54.0884 -67.2375 -0.3700
-43.5362 66.3006 -33.9912
-37.7457 -12.3276 76.6151
76.2297 31.2088 25.7221
-32.6088 21.0286 -77.0781
53.7902 24.3440 -62.9330
52.6408 -68.2434 -4.2846
72.0107 -19.6585 -43.2964
21.0596 40.5545 73.2011
11.2536 -45.1319 -72.6846
-45.0573 -62.8964 -38.2160
42.3839 73.6733 -14.9142
-84.5678 4.2898 16.6268
-75.1265 -30.5073 29.5278
-2.4870 38.6330 -77.1225
-42.9510 -52.0016 -53.8296
26.9244 23.2912 78.6077
-11.3380 63.8695 -56.9097
-8.0859 59.1250 -62.3332
67.6703 -17.5952 50.5739
78.7397 -32.8681 12.8964
-81.2307 20.8604 -20.3221
69.9298 -21.1175 45.9396
1.1138 -80.6861 -30.5792
12.8130 85.0867 6.5310
15.4128 11.1446 84.1714
-34.0429 -73.1389 -30.6327
-53.5372 59.5928 32.0785
21.7628 68.1579 -48.2437
4.7758 84.5252 16.7112
34.8271 34.9730 70.7851
67.0067 -17.9079 51.3418
-65.3192 55.5747 -9.5620
-70.5460 -49.3200 6.1132
-64.4185 -28.6513 49.7588
2.0711 78.9176 -34.8468
-37.7081 74.1229 -23.0319
-75.1071 31.1116 -28.9406
-49.5578 67.7611 19.9756
-30.1884 -60.3688 53.7666
-59.5622 -62.4392 -0.5187
-78.8731 32.8343 12.1455
-59.7710 36.5565 50.3748
-36.5901 -47.1031 -62.3621
-40.9017 49.7525 57.4310
-49.4077 45.5398 54.1441
80.0309 -1.1712 -32.2531
-13.9178 -30.6683 79.4501
71.4318 -47.4647 9.5488
-27.5980 2.9477 81.7082
6.2612 4.3173 -85.9577
70.8566 20.8400 -44.6275
54.2202 -53.3336 -40.7710
-64.8616 15.5245 54.7589
26.0982 -25.2031 -78.2960
-47.4135 8.8892 71.5508
68.9217 51.3707 -7.5772
4.6064 57.7176 -63.9846
77.8634 -34.2725 -14.4657
29.5722 21.2066 -78.2454
-75.3765 32.2832 -26.8841
66.4586 52.8638 -15.3375
-36.0234 55.0807 55.8123
-0.1456 86.2383 3.0835
64.3189 57.1667 -6.4515
65.3793 -44.0182 35.1356
41.7184 38.2646 -65.1304
36.0927 -13.7790 77.1624
-55.8124 45.8790 -47.1876
2.2178 26.2119 -82.1863
-66.7336 -0.9737 54.7015
9.6480 84.0458 -17.0233
-66.7280 27.2796 -47.4318
52.0478 3.4482 -68.7438
-37.3851 -11.3429 76.9433
0.7383 -16.4480 84.7083
-8.8993 71.4368 -47.5832
0.2874 -57.0968 64.7028
48.5658 -10.0863 70.6131
-41.6791 61.4836 43.9227
-2.9625 84.7356 -16.0525
81.3800 -14.1811 -24.9552
21.3105 71.0569 -44.0835
70.6354 -40.9438 -27.9433
29.3304 -59.9262 54.7280
-66.4188 -23.1824 -49.9770
37.3860 -19.4524 75.3025
12.1022 -11.8729 84.6117
5.7577 -63.3553 -58.3055
-74.6785 11.0310 41.8092
-40.1773 55.3900 -52.5768
-64.1615 36.2352 -44.9097
-47.7959 28.1683 -66.0959
-69.9274 -46.1755 -20.6048
-11.2150 85.5613 0.2336
60.1395 2.0077 61.8529
20.1378 -50.6249 66.9191
-23.0997 -17.0052 -81.3868
54.6994 15.9523 -64.8080
-33.6639 31.5320 -72.9318
9.8269 -20.1084 83.3406
-3.3759 75.9241 -40.8744
-49.7520 67.7113 -19.6596
-59.5756 60.9615 13.4540
-44.6552 67.8020 -29.2469
-5.2996 56.7201 64.8176
82.6193 -13.4731 20.9546
59.9234 -35.4741 50.9642
9.8615 -2.8888 -85.6795
26.6115 44.4825 68.9907
-3.7998 60.5188 -61.3971
-84.0536 -16.0981 -11.0640
21.7285 -28.5291 -78.4891
69.0675 41.4436 -30.9626
-84.9046 -14.9904 3.6149
-32.2471 -65.5217 45.9740
-40.9221 -9.4968 -75.3775
-47.6226 35.0230 62.8654
82.6724 5.1535 -24.1927
-40.5970 48.9828 58.3022
60.0528 58.8793 19.3253
-59.7017 11.6400 61.2110
-10.3317 12.9580 84.6872
-62.1879 49.0946 -34.1902
-5.6531 -83.3983 -21.4323
43.6528 21.7594 71.1866
-30.7246 -32.8478 73.6451
-42.0015 53.5268 -53.0785
-63.2424 53.8446 -23.4036
36.5246 53.7359 -56.7889
-62.7229 19.7816 -55.8669
21.8917 61.2241 -56.7357
-1.8056 -66.2902 55.2171
-45.5106 22.7271 -69.7053
50.3578 -59.3771 37.2159
33.5917 66.0729 -44.1877
32.8001 -78.6121 -13.8155
11.0705 -23.5316 82.2817
-38.4647 -71.4441 -29.3731
39.6977 -69.4127 32.4430
-13.3661 84.8272 8.5007
-51.5099 60.7476 -33.2120
30.1406 -67.7838 -44.0849
47.0300 69.2086 -21.0933
-1.0399 -85.8740 -8.4345
-12.3552 73.5510 43.4070
-58.2759 -11.3286 62.6271
-16.3207 -81.5316 -23.0826
42.0983 39.2179 64.3138
-81.3817 -22.1266 -18.2760
7.6950 84.9904 12.8062
81.2921 -6.0956 28.3022
-18.0458 40.1212 74.2376
17.9165 81.6938 -21.2533
-13.5213 -13.4927 84.1528
-54.8621 -58.4475 31.9471
16.2658 -0.5115 84.7451
-46.4625 66.4953 -29.4312
5.7625 85.0935 -13.1323
-4.6712 81.7676 27.1813
-43.4888 56.7949 48.2664
-75.2446 39.9759 -13.6657
70.1332 -39.5220 -31.0794
-11.9388 41.9760 74.4450
3.1982 46.2119 72.8067
81.1450 16.2902 24.4273
11.2282 52.5722 -67.5031
11.5244 84.5333 12.9570
-63.8229 1.4851 58.0604
43.0389 16.2806 73.0012
31.2814 76.7302 24.0940
-70.8039 14.4690 -47.1596
-12.5498 -80.5875 -28.1910
75.0106 -15.1598 -39.8769
39.0480 6.4443 76.6831
39.7407 60.0699 47.5275
45.1680 71.6324 -16.5899
-68.1444 52.8977 2.1783
53.3657 65.1245 -18.9070
-21.2818 30.3332 77.9330
-27.2666 -24.8249 -78.0181
86.2297 2.5022 -2.1792
29.8511 16.0493 79.3594
-19.8388 -77.3549 -32.6990
34.1445 -78.7713 8.7068
20.3555 62.7418 -55.6390
58.0187 -12.8030 62.5818
73.5399 -18.6765 -41.1052
-17.2897 -84.3650 5.4942
-52.0785 68.7791 -1.9586
43.5090 7.3717 74.1566
85.3136 0.4851 12.9585
32.6510 20.3493 -77.2424
-79.3924 -19.4785 27.6408
-72.9173 -25.9809 -38.1397
46.4817 41.7100 -59.5508
-83.3938 7.7784 -20.7739
39.5531 -76.4416 6.2290
-7.3111 -80.3134 -30.7064
-47.2946 10.3098 -71.4388
4.2447 33.0374 79.6058
-37.6772 -27.7024 -72.5230
18.5469 -58.2220 60.9327
73.2267 6.9131 45.1290
-26.6450 -22.7811 78.8520
81.0885 -0.0210 -29.5166
8.5552 78.0994 35.6912
48.8282 -28.9600 -64.9900
69.6202 5.6309 -50.6743
-70.7550 -14.8684 -47.1088
24.2701 44.2299 70.0089
-85.7443 2.4580 9.4042
85.7677 9.3741 1.6136
13.4691 -65.6451 54.3679
-3.4927 68.5037 52.3605
11.3158 9.2379 -85.0482
-54.4256 4.4490 66.8179
-62.3929 1.5642 -59.5924
-38.6954 71.5215 -28.8775
-16.3528 -65.9897 -53.1463
15.9927 65.3299 -54.0631
-31.4056 71.0386 -37.6002
-5.1274 66.0645 55.2789
23.3167 -77.2935 30.4732
60.2556 32.3405 -52.6302
63.7176 -44.5571 37.4340
-9.1448 -69.9636 49.6794
-18.6249 -36.3350 76.0227
68.0123 44.9276 -28.3270
-22.8413 63.1195 -54.2290
-30.5998 49.8587 63.4377
-66.8052 -35.8024 41.2533
8.4442 -25.3531 -82.0517
62.1221 -30.3704 51.6242
42.4701 -73.5304 -15.3669
-14.1237 -85.0569 3.5237
0.8814 -85.5957 -10.9166
-70.6882 37.9956 31.7188
-34.9718 76.4885 19.3147
80.3639 7.7149 -30.4745
-44.2788 -6.2351 -73.8044
54.0405 -43.1280 -51.6351
-0.0914 86.0670 6.2477
-59.6670 13.9337 -60.7641
-71.0606 -40.8299 -27.0162
67.5660 -50.1420 19.1622
-11.1691 -85.2014 7.9083
-70.5952 -21.7153 44.6244
40.0110 -74.4403 17.4453
5.5761 77.5834 -37.3670
-84.3008 15.9782 -9.2000
32.6949 22.4477 -76.6402
31.6613 -55.2954 58.1942
-35.9018 23.6997 -74.8062
59.5988 60.9222 -13.5292
-53.7041 -47.7243 47.7999
84.6851 -12.3973 11.0141
65.4889 24.5702 50.5379
-64.1639 -56.8739 9.7428
-0.2826 -74.7372 43.1375
14.2695 20.8222 -82.5190
27.3038 77.3901 -26.6805
27.8011 81.6888 0.7892
78.1904 18.3939 31.5356
-11.6263 -21.4142 82.7819
-40.5824 12.8582 -75.0620
-24.0159 -23.9510 -79.3484
38.4371 -76.3976 -11.5135
18.9586 82.6244 16.1355
-15.9166 75.0732 39.4620
-77.3523 13.5732 35.7627
6.9666 25.6577 82.0958
74.1174 -40.4346 17.8392
84.2049 18.8680 0.3294
64.1032 57.7251 -2.2740
-50.9233 42.9190 54.8758
-64.9831 1.8677 -56.7476
13.7695 -58.9609 61.4865
-11.1317 -3.8058 85.4879
50.7388 0.0219 69.8008
68.8251 -1.8309 52.0224
42.0290 -60.4638 -44.9918
-73.7607 -6.5104 -44.3119
43.3905 22.0017 71.2725
-64.5775 -56.8811 6.3922
38.5526 -67.2327 -37.9478
-84.8778 10.3845 11.5975
-22.1285 58.3287 -59.6210
-51.9507 2.3887 68.8621
-36.7967 -63.7819 -44.9938
18.9362 67.6670 -50.0917
50.7220 -50.1445 48.5735
-47.2124 -68.8142 21.9583
59.6695 39.0458 48.5958
-43.0304 71.4038 22.2814
-22.7374 26.7662 -78.8236
-40.9473 -69.5708 -30.4925
-67.1628 20.9251 49.9788
-65.5558 -29.1722 47.9374
56.4757 -49.6688 42.3094
-76.4614 -6.2035 39.5189
-30.0150 22.0052 -77.8553
12.4705 -77.2717 -36.3339
-83.1325 21.9752 -7.2559
44.0569 -52.6105 52.3230
-85.1110 8.6878 11.2791
27.7343 -30.1796 75.9380
17.2548 -84.4080 -4.9122
-73.5918 -12.5064 -43.2945
17.8974 -29.0387 79.2655
17.4790 76.0473 -36.8493
-44.8177 -46.8266 56.9668
-12.6814 20.9547 82.7445
51.8119 64.7579 23.8435
-0.5235 -30.1603 80.8496
-42.2427 -68.2534 -31.6796
40.4815 9.5960 75.6025
-47.8427 -71.2303 -9.1595
5.9406 -84.0901 -18.4426
-60.3341 -25.2846 -56.2767
-74.5312 7.9343 42.7636
33.3692 -46.8554 64.3246
36.4082 -32.7997 71.0295
21.6319 -31.0030 77.5722
-28.6889 -81.3615 1.9564
-84.1030 10.6284 16.1340
7.5402 -84.9436 13.2022
33.0580 -21.5001 76.7560
60.4847 -0.4481 61.5465
-15.6771 -55.0286 -64.5961
-10.0917 53.7637 -66.7398
-3.7677 21.9192 -83.3782
-26.8325 50.6078 64.5402
80.5810 -29.9632 -7.4486
-12.3256 -33.6379 -78.5057
-2.8024 -70.8777 49.1434
-22.0539 -72.5399 41.2087
37.2334 -77.4908 7.4448
-81.4087 0.7358 28.6122
58.7263 -61.6641 13.9763
-59.1904 45.8466 -42.9087
-3.2321 -70.1442 50.1589
-4.0744 67.2775 -53.8861
61.8103 3.2039 -60.1315
73.1923 -45.4726 4.6585
27.2316 18.5222 79.7618
-0.7496 43.2845 74.6490
12.6501 -52.5294 -67.2845
-42.7615 71.6698 21.9423
39.1647 67.7983 36.2781
-35.7053 67.4695 40.2439
-68.8512 51.3275 8.4596
5.1552 41.6018 75.4274
-19.2845 -25.9522 -80.0073
-23.6720 47.4667 -68.0671
15.3946 3.8887 -84.8202
56.7774 25.5041 59.7699
-82.8371 -18.5391 15.5205
-32.0099 -77.8306 -19.0875
-36.5255 68.4283 37.8158
-43.4143 49.0802 56.1507
-19.7110 -8.0088 -83.6296
-38.2929 -59.3475 -49.5793
-27.9793 14.4508 -80.3424
81.8340 -26.8261 5.4887
54.3236 -13.6019 65.6545
-21.9322 82.2865 -13.9455
-43.9443 -0.8748 74.2611
71.9100 2.0565 -47.6582
-59.3785 55.1409 29.6691
-63.0775 -52.6383 26.4011
-48.4987 -70.9980 7.3301
64.8309 34.6877 -45.1696
-53.0801 -19.6688 -65.1323
-62.1869 4.7142 -59.6418
44.5059 -3.3818 73.8536
20.2028 -78.1910 -30.4070
-27.7102 78.8969 21.3073
-84.1746 10.5908 15.7810
-31.9942 5.0671 -79.9829
47.5714 70.4366 14.9072
-20.4129 -79.1290 -27.7216
-0.2370 11.7371 -85.4913
49.7427 -68.6957 -15.9102
-25.1397 -66.3873 -49.0643
-52.2894 -39.6465 56.0406
0.3204 -10.9657 85.5934
-14.0803 -78.3911 33.2138
-35.0816 -45.1358 -64.6422
-32.9661 -57.6180 -55.1360
-59.1085 62.0510 10.1210
21.0144 -54.9395 -63.1397
44.4269 72.3789 15.3012
55.2782 -28.0926 -60.0141
61.7562 20.7194 56.5990
65.8936 -18.7967 -52.4527
58.1359 -30.3299 56.0972
84.4903 -14.9355 -9.2138
66.4007 30.2871 46.0458
71.3908 -47.1368 11.3161
-30.4320 74.7491 30.5457
-32.3270 -20.7478 -77.2727
25.0930 56.9052 59.8224
-44.3016 -54.4365 50.2057
73.2665 35.9921 -27.9851
-24.2117 12.4865 81.8807
23.7119 81.8306 -13.7139
36.7926 71.3551 -31.6439
-36.1657 -64.9849 -43.7674
4.9176 -4.8458 -86.0169
7.1728 -7.9359 85.6280
46.1179 -46.3702 56.2985
-18.6904 -47.8260 -69.3536
-5.5760 -47.6038 -71.7590
3.7416 26.1471 82.1517
40.8263 -75.2559 10.7864
-74.0664 42.3511 -12.9279
-51.9210 -22.6309 65.1047
-67.8547 -18.0610 50.1608
61.9623 -59.9601 3.4692
-8.2261 -76.8672 38.3451
46.6097 43.8536 -57.8876
-49.3441 29.6991 -64.2627
36.5730 59.9955 50.0952
19.4223 -9.2249 -83.5718
-49.7337 -55.4230 -43.6054
3.9888 -40.9508 75.8531
-39.1951 74.9093 17.2890
0.5249 45.1124 73.5606
-63.4034 -36.7790 45.5399
-14.1332 74.8647 40.5230
64.7138 -21.1332 53.0291
26.9835 24.0151 78.3693
-25.4309 71.9353 -40.3132
8.7845 -17.0021 -84.1447
-13.6268 69.8254 -48.8396
25.6298 -42.2321 -70.7541
-40.4791 -52.6046 -55.1432
44.0249 -69.9799 -24.7224
8.6901 35.4558 78.1917
-52.1001 36.0807 58.5691
31.0097 -70.4227 39.0592
-6.1528 85.4618 -10.2471
-70.2292 -47.8553 -14.9766
85.4550 -4.4503 11.1450
34.8576 -13.2365 77.8223
-45.7489 69.4551 23.0131
-77.6286 -1.3680 37.6629
-32.2525 -75.4546 26.7011
38.9846 -58.1040 50.5045
-31.3216 10.6424 -79.7012
9.8648 -14.5910 84.4770
15.8054 51.9809 67.0429
33.7393 46.5950 -64.3206
17.7104 -48.5522 -69.1057
-78.4772 -35.8767 -0.8730
63.1925 -57.6072 11.6058
-64.6450 -28.0817 -49.7898
-44.8292 -54.4762 49.6917
-22.2142 83.1270 6.5583
60.7342 -2.4083 61.2547
-27.4200 -44.9244 68.3851
-58.8386 9.3346 -62.4296
4.6202 -65.3102 56.2122
16.6964 -3.0473 84.6080
-0.4536 -29.6345 -81.0442
24.6624 62.3270 54.3478
-58.4941 41.7979 -47.7279
-29.1068 -4.5105 -81.1112
66.8138 -15.0133 52.5080
77.3264 -0.2700 -38.3031
-35.0451 78.4466 -8.0339
-39.4353 75.2114 15.3192
-84.6595 15.2641 -6.8078
26.5711 -55.1762 -60.7959
-24.8618 76.4669 -31.3254
23.7207 65.4577 50.9824
16.0640 -84.7827 0.6429
-28.0002 -21.1655 -78.8326
10.3283 64.2760 -56.6437
38.6017 -17.8453 -75.0868
-67.1595 40.9154 -35.5261
49.9246 -68.2557 17.1833
25.4448 69.5580 44.2812
0.9120 -44.2033 74.1068
11.7035 42.5697 -74.1446
4.0422 -46.7162 72.4419
30.9370 62.0416 -51.3840
16.5135 83.7841 12.4142
-59.4560 45.9594 -42.4181
46.3886 25.4565 -68.1663
7.6738 -34.1428 -78.8794
-16.6611 31.8512 -78.4505
73.6371 44.8487 3.5704
-83.5007 -15.8824 14.8983
64.0541 -40.7667 -41.0088
-65.6580 11.6852 -54.7637
43.9485 53.6223 -51.3785
-42.2991 -18.2729 -72.9621
31.9477 -49.3049 63.2056
15.0865 -22.7976 -81.8489
-38.1454 -77.1766 -5.9398
61.6669 11.4646 59.2649
-36.9378 70.2204 -33.9305
-61.2642 -29.3975 53.1889
-53.4523 -39.0248 -55.3759
72.3234 27.9401 37.8847
42.4999 -45.1327 60.0281
38.1056 63.9065 43.7092
-52.3465 -66.7526 15.8276
8.5995 -83.3532 20.6123
70.7180 35.0523 -34.8838
33.0534 12.0838 -78.7910
-79.6659 -13.4365 30.3212
-21.0120 79.3574 -26.5983
-51.4087 47.1076 50.8389
50.1363 68.9347 13.4510
-79.5174 21.1303 -26.0205
-58.3487 -22.6025 59.4233
-57.8840 14.7385 62.2800
-79.2414 10.5850 -32.4858
13.3924 -47.9043 -70.5152
61.0820 -12.1995 -59.7221
-3.1446 -85.9456 -7.0744
-52.6129 -48.9907 -47.7323
15.8413 78.7328 31.5718
-76.3872 -18.5137 35.6205
17.0062 33.9322 -77.4982
73.5399 -14.3316 42.8142
34.9019 10.4623 -78.2239
-81.4630 -25.3269 12.9965
-9.7339 -13.8196 84.6218
11.4932 -70.6128 48.2526
-1.0842 -47.7206 71.8898
-32.9297 -77.6566 -18.2116
58.5209 58.1645 25.2739
-10.4762 -28.0260 -80.9405
54.1805 41.9342 -52.4650
-35.8335 -31.7486 71.7953
79.4776 25.9765 21.3331
-31.3711 -76.8665 23.5366
-44.5085 24.5603 69.7306
38.1772 -67.3756 38.0736
-74.2606 -43.9463 -0.8094
1.8393 -45.1910 -73.4913
68.7716 -51.5547 7.6908
19.0111 75.2289 37.7593
-3.9269 -68.7986 -51.9414
64.9401 54.2249 -17.0005
26.3290 66.2650 -48.6035
22.6141 -23.0765 80.0166
17.6236 -27.1118 -80.0058
-59.3530 -60.9814 14.3202
-80.0008 -31.4732 7.4762
-15.1395 20.0069 82.5657
75.4083 -39.7833 -13.3211
-3.5700 -75.3486 -41.9096
76.3479 25.8666 -30.7976
-48.3435 71.1150 7.2207
7.1583 -64.6014 56.7626
76.4196 -30.5728 25.9214
75.8797 33.6210 23.6321
-60.2800 11.4031 -60.6866
-41.7833 59.6471 -46.2921
21.3571 -71.5836 43.2001
-20.6941 -1.2157 83.7667
66.9697 -50.4424 -20.4254
-65.2892 19.3910 -52.9895
-74.4980 7.6118 42.8799
26.5751 45.2868 -68.4795
57.1341 53.2701 -36.6682
-30.1667 -78.3113 -20.0969
33.8805 -47.2388 63.7745
-62.5014 -58.5937 10.3407
51.0878 64.9455 24.8735
-7.7447 71.8801 -47.1153
-41.7190 -75.2407 -6.7038
46.8641 40.6103 -60.0095
-18.6389 -78.1357 -31.5275
-38.1483 54.0392 -55.4170
20.6646 6.2323 -83.5506
75.4933 4.5420 41.5537
42.6452 74.4219 9.4523
-74.8229 -33.6184 -26.7940
5.0920 67.5482 -53.4592
15.3554 40.3918 74.6946
-34.2909 -4.6292 -79.0524
68.6668 -50.2396 14.4025
29.5718 78.5786 19.9372
-3.2364 86.0870 -5.0126
9.9190 -72.5303 -45.6896
-65.9594 39.6203 -39.0661
-45.3518 64.5536 -34.9661
14.5998 -69.8878 -48.4677
-61.1564 -13.3889 -59.3903
-46.8942 70.8213 -15.2267
1.0450 -13.2570 85.2627
-73.2427 41.4475 19.0839
-6.8672 -85.6951 7.4675
-55.2918 -66.1043 -4.4281
6.7860 -54.3238 -66.7042
-8.2114 -84.7905 -13.7737
55.1227 65.5195 -10.7360
8.1852 84.3467 16.2854
-36.3673 77.1587 -13.0589
40.3922 -76.1337 -4.3249
-29.3574 42.8350 -68.9194
-37.7058 -3.2855 77.5503
36.2186 77.6045 -10.5985
11.5066 50.5758 68.9657
36.8943 -21.3527 -75.0297
63.5220 -47.5699 33.8916
-60.5727 -48.5182 37.7295
27.3123 -80.6021 14.2800
-61.2714 58.6562 -15.8693
-14.2716 -10.1920 -84.4927
-29.7813 -78.4545 20.1132
-76.7661 -30.0259 25.5339
-0.4840 -80.9935 29.7724
-82.2825 -11.0791 23.5248
31.4204 64.8932 47.4153
36.1529 -17.3140 -76.4184
-21.1357 49.2478 -67.6351
-10.8789 84.9958 10.1947
-16.4268 -38.5121 75.4556
31.5964 -78.5988 -16.4459
-66.2815 -32.3581 44.7916
-84.6349 -2.6456 -16.6284
-48.1257 -36.1753 61.8211
63.5846 -47.1329 34.3811
-57.7792 27.2343 -58.0210
20.0834 -62.9688 -55.4811
30.2037 49.2335 64.1122
-48.9696 70.8735 5.0498
-55.0375 33.8377 57.2054
17.5929 46.6526 70.4315
72.2400 -20.8972 -42.3234
-2.3493 -52.7823 68.2281
-14.6487 83.9685 13.4643
57.2804 51.3108 -39.1502
-73.5473 44.5202 7.4379
-43.1498 -74.4308 -6.6869
13.5803 -78.3990 33.4027
-58.4527 -60.9701 -17.6781
-24.0666 68.6144 46.4698
-36.8284 62.3504 -46.9326
69.9897 -40.6118 29.9784
-83.9708 8.3545 -18.0466
65.8123 -1.3707 -55.7981
-27.4286 56.8624 -58.8295
-39.9855 -12.7911 -75.3931
78.5007 -22.1510 -28.1699
85.5937 -6.9202 8.5089
74.9005 -42.7809 2.5087
27.1325 -81.8181 4.0243
-28.1077 -81.0367 -9.4645
84.7106 11.7877 -11.4779
-53.0189 -36.9752 57.1700
48.8524 25.5193 -66.3987
33.5827 79.3420 4.8612
6.1584 -0.8743 -86.0691
23.4206 81.7729 14.5343
-81.0719 -8.5149 -28.3092
-49.7580 7.4103 70.1128
-60.9936 57.7721 -19.7164
-68.4777 -34.0932 39.9379
-72.1152 23.2845 -41.2773
-1.9967 86.0333 -6.3923
52.0884 -26.9616 -63.2965
-76.7476 -10.6471 37.9871
-30.4068 5.1421 -80.5950
18.1216 -9.4985 -83.8329
63.5036 57.1369 -12.2166
69.4259 50.5949 -8.1718
6.0335 52.1024 -68.5238
-73.1020 -40.3421 21.7986
-0.4565 -75.0043 42.6699
-46.9730 -10.2939 -71.6530
68.6902 -30.6870 -42.2674
-77.8433 -2.1286 -37.1815
-61.7228 -37.3028 47.3854
69.3403 26.4117 44.0558
8.5804 -0.5254 85.8643
40.8616 -47.6404 59.2225
81.0064 26.8425 12.8071
-38.4582 -73.7406 23.0186
-49.8018 59.8212 37.2530
31.3245 76.7467 23.9853
-61.9058 19.9909 56.6976
-9.0301 62.0905 -59.2435
86.2745 -0.6871 1.6773
20.9490 -54.8686 -63.2230
80.5562 -16.2513 -26.3281
-63.6258 -40.9713 41.4691
-68.7052 22.8686 46.9382
67.0577 -29.7047 -45.4695
-35.5981 -41.9634 -66.4712
4.1192 45.4170 -73.2591
-61.6009 3.9415 -60.3024
-4.4689 22.7003 -83.1342
-44.7086 55.8862 -48.2125
31.8756 64.4471 -47.7189
-38.2428 15.0402 -75.8805
-61.6306 5.0896 60.1859
35.1598 20.6090 76.0633
-15.8757 81.2238 24.4385
1.4484 55.5494 -66.0208
33.8864 10.3408 78.6852
35.2797 -77.6281 -13.2587
-42.2946 -55.8977 -50.3308
-34.2525 -70.6161 -35.8708
20.5707 -38.6032 -74.3856
-81.0749 29.4957 1.8531
-28.5549 -64.4039 49.8330
-39.4640 -72.1414 -26.1683
-20.1365 -33.6255 76.8793
-43.0789 -60.6292 43.7594
-86.2457 2.8683 -0.1479
-52.2184 -47.0678 50.0442
13.9296 69.2064 49.6287
-79.2798 3.4947 -33.8981
6.5405 -3.3716 85.9792
-19.6894 -3.8789 83.9277
34.4274 27.1969 74.3079
-34.3777 12.1426 -78.2132
69.0702 46.4657 22.7336
22.0622 -26.4388 -79.1254
82.1040 23.1031 13.1055
33.7414 47.8798 -63.3689
-0.5598 81.5279 -28.2747
-79.7022 17.5881 -28.0143
69.4716 44.3277 25.5994
-19.6426 77.9807 -31.3009
-35.9248 74.8576 -23.5015
-69.6831 20.0217 46.7971
69.3569 -5.1800 -51.0819
65.6263 -33.8652 -44.6420
-2.0102 35.2541 -78.7381
24.2201 81.7921 -13.0389
25.3452 -80.7224 -16.9734
50.0226 53.4366 45.7038
-55.8590 -42.0653 50.5654
-22.8623 -18.3634 -81.1583
-64.1506 -55.2200 16.7935
59.9659 -15.4937 60.0884
-58.7622 59.1120 22.3462
79.7216 7.6252 -32.1386
4.3961 85.4947 -10.8582
-67.2583 44.3921 -30.8584
-18.2331 -80.5012 25.1730
56.1391 28.4359 -59.0455
21.3174 -7.8354 83.2511
81.5579 21.3091 -18.4608
69.3930 -46.0127 -22.6719
2.8810 -56.5835 65.0891
-14.1797 -82.7817 -19.8168
-70.8803 25.9094 41.8480
70.1396 7.2618 -49.7421
67.4724 -15.0585 51.6458
-24.4776 49.8191 -66.0718
-24.5991 77.1848 29.7316
21.0430 -78.0470 -30.2065
17.6904 4.6831 -84.3309
36.4984 53.5992 -56.9347
-18.3009 16.2528 -82.7496
-41.5554 -27.7122 -70.3688
27.9103 19.4623 -79.3020
-16.3857 -81.2848 -23.8927
20.7157 22.5819 80.6690
71.1514 -25.1131 -41.8735
-39.3214 -70.4850 30.5330
-37.0026 12.1883 76.9989
-52.3362 21.4754 65.1637
85.0581 7.5342 12.4472
-47.9370 -30.6178 -64.8935
-58.9489 11.8841 61.8900
-57.4512 59.3421 -24.9889
79.1997 29.3051 -17.7535
-9.2987 -85.2963 -9.2006
35.2296 19.2310 76.3912
-83.8780 -12.4251 16.0211
-61.9275 -51.4134 -31.1162
34.9358 -78.6564 -6.2637
-67.9303 -40.4763 34.5502
-58.8729 35.6476 -52.0558
63.6750 16.4184 55.8793
-69.3847 51.1870 3.4964
-6.2421 21.5778 83.3187
32.0507 50.6839 62.0522
14.6355 57.8729 -62.3146
40.3954 -74.8955 -14.3334
47.3206 -49.3068 -52.6895
-12.2927 -80.4657 -28.6483
39.1299 14.6425 -75.5051
61.5557 -27.6181 53.8025
10.0039 -38.7307 76.4620
62.5488 47.8362 35.2977
19.9999 15.4031 -82.5186
21.1151 -81.7559 17.7959
16.1959 84.7323 -2.1699
-44.7880 52.0749 52.2380
-18.2187 -16.1878 82.7805
-55.7394 -33.2970 56.8419
43.2575 65.1310 36.5147
-53.4555 -11.5918 -66.7437
-9.1808 79.4216 -32.4731
-21.7979 -83.1305 -7.7940
8.2739 -65.8342 -55.1722
36.4184 49.4255 60.6416
-9.1778 -37.1317 77.3536
-4.8850 -65.6595 -55.7812
68.6598 -51.1187 -10.9221
-0.8559 -76.6785 -39.5758
64.7310 -23.4525 52.0237
72.7150 41.3241 -21.2468
-36.2263 78.1061 -5.8023
-58.9064 -62.0477 -11.2556
-68.7191 -41.2861 31.9330
12.1732 82.0128 -23.9225
-73.4312 -33.0836 -30.9824
-5.8062 -86.0549 -2.7223
-7.1072 2.9149 -85.9510
52.6489 -20.2592 -65.3011
35.7774 -70.9405 -33.6748
73.9425 -37.1843 24.4215
-54.7612 -28.2961 -60.3914
-26.6345 7.0458 81.7773
57.0486 55.4107 -33.4916
41.9516 -50.7021 55.8206
-40.7146 56.2827 51.1972
-17.4139 -47.3275 -70.0246
85.1326 -0.4868 -14.0988
-77.9876 -3.9671 36.7256
85.9014 7.3656 -3.6435
26.3873 -55.0415 -60.9977
-57.7299 -48.7456 41.6858
68.2766 -52.4729 -5.6094
49.2196 -64.4020 29.6039
-83.5925 10.9379 18.4183
-20.1943 -8.1941 83.4962
20.5095 34.4264 -76.4248
34.4189 -75.6622 23.1765
27.2453 -79.5437 -19.4181
50.7411 69.7792 1.6681
-64.8332 -39.9610 40.5752
-64.5787 33.3846 46.4933
-48.2574 55.2005 -45.5050
-55.5495 64.6730 -13.3504
-32.1714 77.6370 19.5977
-27.5035 -79.6245 -18.7102
-17.0345 82.6480 -18.0473
79.7126 -2.9607 -32.9198
15.0552 73.5686 42.5157
-26.6971 -81.9809 3.6009
-82.9633 23.7284 -0.7899
27.9027 -81.0912 -9.6038
9.6180 63.9687 -57.1146
14.9213 -64.2560 -55.6336
-26.3291 79.6987 20.0367
-72.1544 -25.4942 39.8794
-34.8196 -17.9490 76.8895
-30.9344 79.2492 -14.4640
84.2407 16.0704 9.5820
-4.9236 -68.6238 52.0874
-51.1514 -69.2935 5.3398
59.8731 -25.4749 56.6817
-71.9751 37.9440 -28.7474
48.0504 -4.0467 71.5637
-10.3390 47.1169 71.5519
