ply
format ascii 1.0
element vertex 1024
property float x
property float y
property float z
end_header
6.5881 -10.2775 34.0245
-3.6295 -29.9680 19.8858
31.5149 -11.9558 -13.0602
-28.9229 -20.8199 6.0577
9.2536 -6.0940 -34.4083
28.6926 6.1523 21.1088
-21.7533 14.0804 -25.2038
19.5771 14.4303 -26.7432
33.8451 -9.7006 8.1916
-5.0604 -33.3346 -13.0342
-35.8812 -0.8660 4.2993
21.8319 26.2407 -11.8949
3.1427 35.9919 -1.1848
-3.7569 25.6450 -25.1976
5.7477 -33.2936 12.8530
-1.2250 24.6004 26.4578
12.1715 -32.7139 9.3998
33.7082 -12.9236 -1.8540
0.5495 36.1396 -0.5711
29.5118 -13.9759 -15.5056
-20.0004 24.9605 -16.8420
-20.7205 -3.1097 -29.4565
-33.7197 -10.5732 7.6083
-35.7906 -0.7575 -5.0158
-9.7880 21.9746 26.9816
26.0496 24.7999 -3.6170
-15.7256 7.2399 -31.7330
2.6739 -30.8026 -18.7283
33.2426 -1.9280 14.0680
1.9056 -18.0609 31.2549
-8.1724 -29.0418 19.9119
-17.2513 9.3761 30.3509
-19.7047 -12.5797 -27.5712
3.2431 19.3511 30.3597
25.8789 -15.0586 20.2539
-13.2757 -3.5118 33.4383
22.2734 -12.8625 25.3998
11.9780 -23.9566 -24.2756
5.0807 17.1069 -31.4362
-12.9523 1.2599 33.7246
10.8456 30.0976 16.8288
27.6650 23.0304 -3.3081
12.8839 -32.8511 7.8428
25.6381 -25.4606 1.0707
-25.9118 -6.1432 24.4445
-19.4350 -30.3629 2.6593
29.4909 -0.6199 -20.8950
-26.2826 -20.3134 -14.2578
-17.0126 -24.8702 19.9685
-8.0186 -16.3786 31.2113
-4.0207 -7.8493 -35.0559
24.5962 -25.5309 -7.0640
-13.9247 22.6759 24.4664
-3.9548 -33.5098 12.9674
-10.7779 -5.5554 -34.0540
29.8670 7.4828 18.9385
17.0373 11.3877 -29.7783
-20.6084 -17.2400 24.1821
5.2408 25.3158 -25.2654
-13.4055 27.4686 -19.2993
-24.5726 4.3398 26.1544
-12.5362 -32.4280 -9.8979
-35.0308 8.2376 -3.4182
2.4406 -20.0991 -29.9460
19.1354 23.7065 19.4560
-16.6811 -11.0959 30.0885
-14.3369 -6.6299 32.5146
-35.9491 -2.1656 -3.1092
-24.1924 24.2057 -11.6410
16.0618 -19.9450 -25.5130
-31.1894 10.8658 14.6919
-19.9323 -6.1653 -29.5193
-34.5368 -2.1026 -10.4636
-9.4943 -32.9108 11.5514
18.6597 28.5869 11.8869
-27.7772 13.6836 -18.6516
-27.3246 17.1466 -16.3113
-35.9352 -3.2263 -2.2242
-19.1143 17.5821 -25.1438
15.1927 -21.2735 24.9664
-12.4988 22.6800 25.2209
19.1113 -24.9610 17.8439
-16.2985 -31.1641 -8.3580
-23.1565 9.1496 26.2061
-2.6964 -15.4334 -32.5766
-32.2360 11.1618 11.9564
-9.3319 32.8648 11.8117
-2.9014 -6.8949 35.3658
-17.9410 13.2076 -28.4671
21.1559 24.9232 15.4260
27.8926 4.5113 -22.5466
25.6506 14.4695 20.9614
-31.8760 16.9857 1.4504
-7.3692 35.2146 3.5101
-15.1882 -3.0264 -32.6628
3.4226 -15.7416 -32.3602
23.0981 -27.7518 1.7365
-1.6033 -20.2404 29.9074
7.0607 -29.3160 -19.9354
25.9391 25.0741 2.2696
4.0671 -29.0701 -21.0970
-27.0226 -22.1592 -9.2437
-8.6906 -27.5594 -21.7175
-26.8076 -24.0898 2.7802
10.1839 34.4978 -3.5900
12.6430 33.8615 0.5034
-35.0262 8.7594 1.7714
-22.6498 21.9832 -17.6188
-0.0892 17.7957 31.4643
-34.0782 -10.6747 -5.6055
5.8782 34.2862 9.8286
31.1355 -4.0684 -17.9088
33.0373 11.3123 9.3416
31.2190 -16.3170 -8.1132
6.1884 -28.1960 -21.7574
28.7718 -4.8305 21.3436
-30.9908 9.2146 -16.1666
33.4106 -13.7187 -1.4928
-6.2942 5.2784 35.2025
30.1449 -11.5676 -16.2533
-5.9032 -3.3721 -35.5032
6.2545 34.8275 -7.3907
-1.8135 33.1178 14.3743
33.6878 -1.5964 13.0108
26.4150 -1.4001 24.6371
20.4773 -5.8593 29.2070
-7.5696 -23.6911 26.2322
-12.9480 -33.6084 -3.0859
-4.6317 -18.9266 -30.4472
9.3169 -24.9885 -24.4022
-35.8497 4.0704 -2.2202
-33.7805 -9.3800 -8.8085
30.3621 2.1537 19.4988
-24.6354 5.7907 -25.8120
-2.9073 -35.5301 5.9883
36.1374 0.1573 0.8725
-9.9255 -25.4202 23.7064
35.9074 1.7297 -3.7900
7.9607 28.0791 -21.3281
30.8698 10.5788 -15.5513
-5.0007 -13.8041 33.0323
2.1089 34.9410 9.0208
1.9380 -27.7013 -23.1426
-19.3443 23.8853 -19.0259
26.8090 11.4065 -21.3978
1.8877 30.1393 -19.8685
31.8847 -16.2734 5.0240
16.3945 -5.8676 -31.6779
32.4773 7.6568 13.9031
6.2719 33.0081 -13.3351
-13.8226 -33.3715 -1.4054
21.6591 7.7853 -27.8742
-20.9880 -28.9221 -5.4510
-12.2905 29.2536 17.3167
-3.2726 -31.5884 17.2673
34.8700 -1.5360 9.4033
34.2521 6.1723 9.7670
-28.5552 22.0267 2.4746
-8.9275 -12.4748 32.7319
-15.2704 5.7099 32.2631
-16.4358 31.2235 7.8519
-18.0637 -21.1831 -23.0581
-35.3801 -4.1109 -6.1680
-31.8176 -16.7584 -3.6732
14.7653 31.4577 9.9548
8.2673 -32.0521 -14.5263
-7.4901 34.3738 -8.3087
-9.7359 32.5004 12.4753
-20.3616 8.5736 -28.6111
2.4714 6.6954 35.4367
10.2238 8.1171 33.7088
-31.6084 15.2136 8.7266
-7.6476 17.5006 30.6911
-13.2039 -26.6568 -20.5370
-22.2370 28.2494 -3.7660
10.3246 19.2857 -28.7778
-30.9578 -11.6771 14.5588
5.1844 -17.3029 31.3118
-18.7341 27.8514 -13.4176
-1.8445 -19.4187 -30.4337
14.3302 23.5365 -23.3961
-23.5133 -22.8856 15.1681
22.0024 -28.1121 -5.6835
-16.8569 12.7672 -29.3179
-16.6270 -4.2659 -31.8126
-17.1886 23.4336 -21.4969
18.6052 13.1580 -28.0609
-24.6766 5.9615 25.7337
-15.9223 -5.8552 31.9201
4.6515 22.7945 27.6671
-9.9707 -27.0084 -21.8594
8.4591 -25.6141 24.0636
-6.6825 -16.8861 31.2554
19.9192 -14.3601 -26.5276
-19.1582 0.7090 30.6457
-32.9496 -8.8332 -11.9582
-22.2923 -11.0927 -26.2050
8.9620 -34.3217 6.9573
33.8624 -12.6503 -0.0597
-17.2438 9.6569 -30.2670
-15.9139 -23.4318 22.4588
17.0644 31.7895 -2.2209
-21.4284 25.7587 13.5649
1.3263 25.8678 25.2150
-0.2895 31.9059 16.9889
-0.0422 -23.0635 -27.8347
-8.5117 28.2200 -20.9256
-16.6714 15.8678 27.8743
1.9559 12.7354 33.7740
-29.4534 -13.1252 16.3377
-30.0671 16.9207 10.7868
-1.6920 31.7263 17.2417
-0.1104 13.6106 -33.4879
0.3798 8.9439 35.0223
-22.2634 -1.2269 28.4523
-14.3743 -21.9144 24.8965
22.8166 -26.3613 -9.5489
5.2776 -35.7081 1.9429
-11.4934 -13.6775 31.4249
-29.8295 -19.7906 -5.0231
35.8104 4.6874 -1.5306
-32.4178 -1.5994 -15.9130
-14.9209 -10.7433 -31.1231
-2.1531 -2.2009 -36.0169
-32.4983 15.0290 -4.9684
-0.4086 -35.1601 -8.3846
-22.0330 -21.9614 18.4103
-18.7838 -25.8756 16.8617
-11.0810 10.6280 32.7255
-20.2219 16.4886 -25.0180
-20.4001 23.9251 -17.8360
35.9230 -3.3584 -2.2257
-22.4369 -9.0938 -26.8438
-0.2154 5.8941 -35.6639
17.5288 -0.6803 31.6066
28.2705 -6.0523 -21.6990
20.4941 23.9267 17.7258
-16.0545 -15.1927 28.6031
-27.7649 7.3021 -21.9656
-8.2085 26.0994 -23.6249
17.4936 -31.1842 5.3117
2.2691 -20.7195 29.5339
1.0633 27.2781 23.6954
-3.2472 -4.5471 35.7138
-35.2359 -2.2076 7.7626
20.0391 12.2816 -27.4644
-5.4114 21.3258 28.6815
-23.0780 23.5055 -14.8860
-0.2750 -35.8414 -4.6919
-20.2373 -26.8747 13.2250
26.8890 8.0731 -22.7706
-16.1320 23.0820 22.6644
-2.1661 23.5144 -27.3693
-27.4898 -6.0255 22.6870
26.0257 -24.8589 3.3753
16.5962 -1.5517 32.0758
-29.6748 20.6376 0.4435
6.4734 35.4985 2.1557
-10.2433 -30.0478 -17.2887
-33.4315 -13.2936 -3.5092
-21.2702 19.1315 22.0966
-11.4992 -34.0281 -4.0688
-24.6336 6.6406 -25.6083
0.9424 -28.6609 -22.0082
22.8917 18.7910 -20.7259
-18.6427 27.8567 13.5334
31.9909 -10.5304 13.1297
-23.5364 -26.8571 5.6060
16.4595 26.8038 -17.8141
34.1883 -8.0599 8.5377
-31.8789 -11.8128 -12.2839
-8.1826 11.8519 -33.1553
33.3147 13.4386 4.0292
-36.1440 0.4890 -0.2636
34.1434 -10.6304 -5.2842
11.0940 25.1866 23.4361
-17.2258 6.3432 -31.1405
32.8150 -7.1788 -13.3544
-8.6819 -34.5611 6.0709
15.2521 -27.7189 17.4853
4.5692 16.0716 32.0550
15.3477 25.5240 -20.4858
10.5672 23.3879 -25.4566
21.9689 -28.6320 2.0671
-25.6017 -4.1013 -25.1878
-35.5627 2.4193 -6.0113
-4.1690 -19.2048 30.3396
32.7555 -4.0739 -14.7369
-18.5281 -30.6438 4.9363
-8.2967 -13.7572 -32.3821
-22.6594 26.4865 9.5767
32.2654 10.3196 -12.6154
23.2395 -27.6120 -2.0501
-7.0485 35.3816 -2.2709
23.6253 18.1269 -20.4928
-28.6226 -3.1930 -21.8460
-4.2003 -6.8650 -35.2410
-22.9447 -21.3087 -18.0604
11.4794 -19.5782 -28.1357
36.1093 0.5224 -1.5956
11.8711 34.1419 0.3279
35.5947 -6.0687 1.6979
-32.0163 1.7838 -16.6874
19.2357 25.7583 16.5287
7.6099 -35.1672 3.4726
-23.6809 -10.5313 25.1993
34.4438 -10.5638 2.9547
17.4391 -8.4626 30.5117
-28.7803 1.4106 -21.8266
28.3085 10.2975 19.9822
-34.0825 7.8969 -9.0952
5.8272 1.8018 -35.6300
-6.2470 -22.4844 -27.6066
27.5009 -21.7321 8.8383
34.9025 -8.8983 3.0550
9.5365 14.3005 -31.8001
-20.8087 18.6768 22.9101
0.9216 25.5897 -25.5150
-32.8420 -1.4876 15.0296
10.1668 -6.9524 33.9853
20.5048 20.0301 22.0237
18.4283 29.9036 -8.5365
3.5740 -22.1105 28.3734
18.6991 12.7533 28.1850
32.2825 -6.7203 -14.8113
8.7975 -31.0244 -16.3336
-33.4343 -2.8737 -13.4382
-16.3211 27.5141 -16.8314
30.5983 -18.8847 -3.7158
-1.9443 -29.8727 -20.2617
9.2108 -30.1143 17.7479
-5.8181 26.4866 -23.9021
33.7713 4.9201 11.9159
24.8400 19.2642 17.8483
30.0260 2.1982 -20.0077
26.7742 -6.2520 23.4681
-30.1369 -17.9034 8.8278
-29.1996 -0.8916 21.2905
-19.8872 -29.8928 -4.1973
-32.2871 5.3129 -15.3627
9.1114 34.8891 -2.5363
-15.6603 32.5371 1.6713
18.4749 -10.2399 29.3346
21.0048 -16.3998 -24.4242
-23.4700 13.5982 -23.8945
9.5520 -20.8478 -27.9433
-1.4226 26.6331 24.3998
18.0032 28.7152 -12.5706
7.2955 33.7633 -10.6542
-17.9134 4.5956 31.0594
-22.8958 22.9044 16.0583
28.9002 21.6223 1.9876
31.5171 7.4867 16.0411
32.2230 10.0424 12.9432
11.7291 7.9265 -33.2610
-12.5831 27.5631 -19.7140
-24.9713 -23.0829 -12.2602
-32.1983 -9.4603 13.4339
-18.7491 21.0336 22.6441
30.5414 18.0228 7.0069
25.3604 1.9373 -25.6865
-26.3854 15.1173 -19.5442
-9.8902 12.6665 -32.3797
32.7398 1.7259 15.2259
-29.1485 21.3713 -0.5774
34.4241 -8.0916 -7.4970
20.6102 28.5695 8.1056
-4.7076 -34.7751 8.6736
24.0644 26.4713 -5.1838
13.0946 25.4129 22.1228
1.8634 10.6586 34.4909
-31.7425 8.6279 14.9891
7.1304 -33.3348 12.0268
3.0391 -29.1621 21.1431
-27.8891 -22.9906 0.5733
-11.6118 31.1161 14.2706
-32.0026 13.0179 10.6333
30.0181 10.4396 17.2228
-27.6984 6.6933 22.2418
-8.7368 25.4142 -24.1761
-2.5518 -1.4273 -36.0298
-15.2445 -16.9882 -28.0304
32.8327 -8.8512 -12.2623
-18.6943 -9.7483 29.3631
-6.0622 -28.3895 21.5403
-15.4933 -26.7842 18.6885
-12.5920 -29.9949 -15.7622
-18.6708 -5.0303 -30.5417
28.4705 -16.9735 -14.4232
-21.3389 -24.5235 15.8097
-6.0876 0.3318 35.6304
21.4017 27.4752 9.6839
-25.0381 8.6808 24.5853
26.3018 -13.6111 20.7280
0.4430 35.9459 -3.7942
15.4295 24.9553 21.1154
31.0055 -11.6844 -14.4509
27.8560 17.0301 -15.5150
-7.2777 35.3869 -1.2255
-25.2549 25.2657 -5.5256
-26.2179 -22.9768 9.5596
-1.7908 -14.2656 -33.1660
-0.4092 -4.3369 -35.8848
-8.3833 -0.0098 -35.1627
-30.4016 -19.2320 -3.5454
3.2739 35.0543 8.1962
-25.9325 -24.9910 3.1067
-22.8549 -26.8550 -7.9474
-13.6229 -28.4019 -17.7327
-30.9742 4.4013 18.1087
-3.1432 35.9098 2.7025
21.3543 16.3652 -24.1427
17.0280 -26.3807 -17.9109
-19.3875 3.3946 30.3200
35.1762 5.7928 5.9810
-27.6214 -12.3260 -19.7945
-16.9421 -5.2157 -31.5033
-32.3830 -0.2713 -16.0613
-31.0301 18.5308 -0.6632
7.7762 -26.7498 -23.0364
-29.8891 14.2671 -14.4841
31.7561 14.7170 -9.0366
-14.2753 27.3195 18.8828
-7.3081 17.8447 -30.5754
27.0045 -10.9772 21.3765
13.5558 21.0219 -26.0963
36.0266 2.8998 -0.6083
18.2011 24.5249 -19.3377
-2.4050 32.3479 15.9539
-16.6773 9.3805 -30.6687
31.5820 -17.5751 0.6250
-8.7586 -25.1396 24.4537
20.6184 -21.3036 20.6818
-31.3943 10.8776 14.2398
17.0774 -13.5923 -28.8151
-28.1231 -3.3228 22.4666
12.7669 -33.8187 -0.0262
7.6962 7.8590 34.4340
11.8613 -10.5831 32.4654
-4.7851 -32.6500 -14.7572
-13.1929 -32.5238 -8.6514
-33.0217 -8.0627 -12.2987
27.1611 -8.2879 -22.3670
0.0601 5.3009 -35.7574
-16.6362 30.6191 -9.6128
-32.0499 0.7988 16.6993
-1.9320 3.3967 35.9364
-16.0008 -30.6113 -10.6591
-20.7624 27.0683 11.9552
25.1547 -2.0497 25.8793
-28.8856 11.2266 18.6087
17.3150 26.0554 -18.1109
16.5478 -20.7085 24.5769
-5.1682 -10.2079 -34.2897
-7.7122 -11.7959 33.2878
-1.0860 -16.1835 32.3050
23.6421 -20.7489 -17.8110
34.3409 9.4359 6.1938
20.0718 -22.3712 20.0836
24.6157 -19.8138 -17.5551
6.0077 29.6779 19.7440
-4.8454 -30.3376 -19.0487
-11.8088 1.3240 -34.1394
22.7118 -27.6816 -4.9599
2.5032 36.0614 -0.0986
24.5194 -25.9192 5.8041
9.3869 34.5449 -5.0230
35.0809 1.9275 8.5036
5.4702 28.7279 21.2481
5.5380 -14.4660 32.6613
-33.6765 -7.4352 -10.8310
-28.4197 15.8900 -15.7012
-32.0330 -15.5961 6.1109
-33.3428 -6.5390 -12.3368
31.9055 1.8227 16.8941
34.7979 8.6622 4.5574
14.6061 27.2426 -18.7403
16.2047 12.3385 29.8641
19.3113 -30.4721 2.2854
-0.9943 -13.8628 -33.3696
22.7806 27.5917 5.1424
33.6411 9.5713 -9.1303
15.6696 -12.5444 -30.0633
35.1841 0.4914 8.2788
26.6337 -24.2815 -2.7848
-26.6128 -11.8214 21.4175
30.4991 18.2729 -6.5271
27.0106 3.2700 -23.7998
23.2034 26.7027 7.4343
-2.5575 32.4566 15.7074
27.0506 11.6741 -20.9446
26.9147 2.1211 24.0374
15.4027 -27.5969 -17.5460
16.3482 -32.1427 2.5065
-22.2546 8.6550 27.1389
-26.4975 19.1008 15.4835
14.7303 20.4405 25.9210
-20.8558 7.1703 -28.6412
-14.7621 9.3944 -31.6310
0.9915 9.7863 -34.7842
22.5349 26.2202 -10.5536
26.6908 10.4804 22.0104
6.6862 31.3583 16.6928
-23.2669 2.2496 27.5734
-0.8009 -27.0287 23.9897
22.0085 -27.8939 6.6523
-28.4583 8.3887 20.6508
-14.3331 -16.7195 28.6657
-3.5515 25.2971 -25.5762
34.6884 1.1055 10.1088
-21.1858 16.1305 -24.4472
10.2559 17.4926 29.9253
-20.3810 27.1936 12.3216
27.1203 -16.2696 17.5068
35.0653 8.7818 0.0449
-31.0006 -1.0578 18.5618
29.2978 -16.6430 13.0900
18.9480 -28.1959 12.3558
17.2110 -27.8783 15.2735
3.3531 -4.1635 35.7508
-26.7986 16.8928 -17.4116
-13.6422 31.0322 -12.5534
-9.0554 -1.8549 -34.9465
27.2742 -10.2504 -21.3950
-14.4017 16.8675 -28.5443
-12.8993 13.9594 30.7480
-24.5935 25.4725 -7.2807
-1.1666 35.6265 -6.0074
21.9913 -3.2553 28.5041
-4.7236 23.8101 -26.7855
-7.1726 -29.8582 -19.0719
-21.4092 0.1997 29.1257
6.9331 -34.9295 -6.2097
-23.4322 -27.2408 3.9455
9.1433 -16.4327 -30.8717
0.5790 29.4502 -20.9534
-24.9192 -5.1708 -25.6709
16.1290 27.0313 -17.7725
-17.1940 -4.5920 31.4639
22.1505 21.9391 18.2957
33.1550 -1.3723 -14.3373
29.7407 7.8939 18.9704
28.9467 0.8275 -21.6356
28.0369 -22.2659 4.9860
-20.5430 0.8941 -29.7302
-14.4940 -29.7357 -14.5744
3.3048 -33.6328 12.8300
-33.2167 14.0514 2.4306
32.0858 1.9281 -16.5372
3.2923 -30.3317 -19.3867
-18.4506 -20.1498 -23.6698
-24.2894 19.2029 18.6540
11.9254 18.0294 -28.9728
6.4652 -20.8825 -28.7892
2.8919 -33.7962 -12.4962
21.8154 -28.1961 5.9803
-31.5837 9.0492 15.0757
15.7667 3.3724 32.3533
-8.3873 -9.2312 33.9284
-22.3686 17.6804 22.2204
22.4009 26.9878 -8.7494
16.3577 -31.6268 6.2345
-18.7227 27.2202 14.6702
9.3067 17.0773 30.4704
23.7461 -22.5369 -15.3267
32.9614 5.2009 13.8995
27.5000 -16.3325 -16.8433
32.6910 -12.6439 -8.8389
-27.8776 -13.9107 -18.3311
10.9444 32.4376 11.6069
3.0335 2.0272 -35.9637
23.9826 -17.8975 -20.2784
-23.2775 27.3713 3.9583
-27.9546 -18.0107 14.1722
26.8089 -1.4463 24.2051
0.8602 -36.0305 2.7858
-35.6630 2.1999 5.4777
-0.0289 -9.6611 -34.8333
-13.4254 -24.7018 22.7218
3.8463 -34.2930 10.7654
-28.2252 -19.8286 10.8103
29.8145 -12.4714 16.1943
5.2816 24.6629 25.8949
24.4745 -10.8384 -24.2945
-23.4685 10.3017 25.4913
28.4442 -21.4844 -6.0036
-11.6160 -32.9422 9.3048
8.0949 -0.3036 35.2289
35.9061 2.9483 -2.9589
-22.9369 -17.6377 21.6681
29.9340 -4.0175 -19.8624
-18.4700 -16.0708 26.5949
-15.3099 25.0111 21.1364
-7.5648 20.8466 28.5463
27.1929 -19.5572 -13.5927
15.2595 22.5956 -23.7336
-19.2956 30.2820 4.1684
-24.9025 23.3521 11.8845
-20.4164 -0.8334 -29.8190
-3.6581 30.7959 -18.5723
-2.1970 34.5719 -10.3275
-29.6638 -1.3543 -20.6136
3.0222 34.0502 11.7536
-20.6445 10.2768 -27.8369
-28.6831 16.8524 14.1413
-25.2742 -20.9417 15.1446
-14.0386 33.3108 -0.0730
-10.5116 21.6417 -26.9785
-20.7940 2.7545 29.4401
-17.9340 -2.3811 31.2953
-34.7252 -1.8249 9.8758
24.4027 26.4731 -3.2218
31.2417 17.3622 5.4043
-18.0885 -23.5215 20.6456
34.2191 -7.3416 -9.0472
9.0133 20.8832 28.0954
-31.2721 14.1877 11.2898
-26.4967 9.3110 -22.7580
5.5515 -35.0275 -6.9967
-3.5149 -10.9558 34.2683
21.6797 5.5134 28.3953
-26.9510 -20.7378 12.2591
-31.5882 17.0043 4.4429
15.8132 10.0064 -30.9276
15.4483 -20.4466 25.4948
13.2398 32.3610 9.1747
-18.2687 12.0806 -28.7578
10.1096 26.9052 -21.9227
-14.8828 -11.6163 30.8263
-11.7432 31.0787 -14.2447
8.5265 -18.9129 29.6023
1.0307 -33.1153 -14.4572
-12.1165 32.1821 -11.1445
-3.5793 -8.4924 34.9538
16.3271 31.7793 -5.4955
2.4389 8.0421 35.1578
-25.8669 4.7625 -24.7975
-17.0654 31.6443 3.7564
-7.8991 26.7949 -22.9420
-26.6729 8.3630 22.9197
22.0808 -13.1359 25.4280
-29.8812 -19.3944 6.1374
-3.0588 -35.0301 -8.3805
-1.8525 -35.5501 -6.2812
5.1868 -27.0847 -23.3712
-21.6101 6.5270 28.2329
-3.0812 25.7052 -25.2279
6.7638 1.7573 -35.4663
-17.5525 17.9192 26.0290
-1.6326 34.8243 9.5550
-29.6248 -8.3896 18.9389
21.3626 4.8283 28.7581
-26.0949 23.2786 -9.1575
-14.4583 -23.9596 22.8821
-12.3108 12.7093 31.5217
-12.9111 -20.3714 -26.9259
-5.3913 -1.7334 35.7019
31.3312 0.8110 -18.0109
-7.6886 35.0493 -4.3737
-8.9719 15.2089 -31.5419
12.7851 -11.4857 -31.8012
3.8244 23.3049 -27.3670
-33.0120 -3.7591 -14.2399
32.7183 -4.4968 -14.6965
-13.2468 -33.5188 -2.7762
-16.0005 -11.4333 30.3308
23.5433 -20.3128 -18.4337
8.8171 -32.7631 12.4713
24.4525 24.8229 -9.6227
-2.0303 18.3663 -31.0685
15.1760 -15.0264 29.1650
2.0094 -22.6497 28.1007
-34.6560 -0.7316 10.2529
-6.1263 29.5116 19.9558
22.8385 4.7046 27.6219
-5.8741 31.1173 -17.4330
-13.2305 22.0463 -25.4089
-8.9872 34.1441 -7.7530
1.6557 -6.5510 35.5111
31.1292 9.5185 15.7185
-14.1954 -33.1242 2.8242
-0.5851 -13.4610 -33.5434
-17.7303 -30.4616 8.0263
14.4988 33.1131 0.0760
19.2817 26.7124 -14.8782
-6.8998 33.2919 12.2777
21.0979 20.7790 -20.7319
-34.7852 -7.2456 6.6474
-28.4100 -21.9555 -4.1860
-12.6266 -21.4828 26.1869
18.5479 -27.6205 14.1344
-14.6267 -15.9310 -28.9648
30.9850 -17.8097 5.4258
-32.0520 1.6800 -16.6296
4.5038 22.7582 27.7214
-26.6607 21.0214 12.4100
8.2847 -8.5129 -34.1407
-22.6441 12.6255 -25.1900
-9.4956 10.7092 33.1940
-13.1662 -27.5438 19.3569
19.4773 -23.2176 -19.7046
15.9280 -4.1376 32.1850
8.4644 5.8399 34.6547
33.8596 12.1125 3.6760
30.8394 11.8352 -14.6819
21.9089 -15.6652 -24.1101
-7.0875 -30.5196 -18.0282
-28.4508 22.1275 2.7606
-30.7371 -10.2206 16.0457
-24.4468 -19.9938 17.5868
-18.7119 24.1652 -19.3030
13.2197 -32.6338 8.1835
35.4660 5.7790 -3.9320
25.5882 24.4245 -7.4421
-13.7951 -29.3180 -16.0265
11.5356 -25.7386 -22.6087
-7.9156 -17.0233 30.8909
-29.5110 -17.5488 11.3067
8.7998 -29.9452 18.2358
17.7898 29.8916 -9.8344
10.9373 -31.6747 -13.5568
31.6882 -15.6077 -7.6781
-1.7745 33.4347 -13.6262
-11.1802 13.9105 -31.4356
-26.2646 -22.7497 9.9658
-8.3891 32.8341 -12.5794
-17.0126 5.4157 31.4315
-7.1107 -35.4189 -1.2802
6.1121 -7.9591 -34.7274
-0.0883 12.9437 -33.7513
2.4681 -16.4456 32.0959
5.7102 -15.3167 32.2411
29.7577 15.0323 -13.9718
29.7675 17.6126 -10.5065
1.5232 -21.3471 -29.1321
19.7918 -30.1779 2.0679
-20.9170 -3.8744 29.2261
26.4679 9.6684 22.6422
-26.5430 21.7174 11.4247
-18.2218 -28.2000 -13.3950
-4.6594 -35.4175 -5.5304
-1.8501 3.9755 -35.8813
25.4684 -1.6878 25.5971
-31.2621 16.9691 -6.4362
-13.7133 0.4116 33.4436
-9.0574 -21.8640 27.3244
-31.1859 -14.5996 -10.9995
-19.2865 -30.3114 -3.9933
7.2236 11.6514 33.4479
-15.8001 23.6183 -22.3434
35.3404 1.5491 -7.4400
-22.2260 -19.4931 20.8019
-2.8725 -8.5658 -35.0010
-11.2732 10.1933 32.7980
23.5363 -19.2080 -19.5906
-29.0657 19.4586 -9.1240
-23.0680 25.0382 -12.1512
18.6694 25.9787 -16.8302
-27.2942 3.6571 -23.4169
-23.0419 27.4123 -4.9331
-33.3261 9.8584 9.9439
17.5065 -5.8961 -31.0718
4.4084 -26.7245 23.9388
-20.5126 16.7789 24.5845
25.3913 -23.3389 10.8295
-21.1793 -28.8896 4.8499
26.6092 18.7908 15.6702
-20.9873 -24.3785 -16.4901
-19.4467 10.7661 -28.5064
33.7693 -8.3999 -9.7863
13.5731 15.2122 29.8505
16.5277 -27.5668 -16.5410
31.2994 11.8528 13.6586
-24.5956 13.6462 22.7054
16.3442 14.8651 28.6111
3.4595 -33.9517 11.9168
-28.2590 8.0691 -21.0480
18.2865 -31.1688 0.8963
-19.4282 -27.2906 13.5819
27.5582 23.1330 -3.4791
-25.6324 14.3707 -21.0514
28.8721 0.4643 -21.7459
17.6118 -10.8934 29.6286
14.2465 31.5938 10.2745
16.5913 -31.0987 8.0185
-28.5278 -19.6216 -10.3855
-16.5253 31.2193 7.6792
-8.3026 16.0230 -31.3214
24.3399 5.2462 26.2058
-13.3499 -14.2435 -30.4237
-21.1713 29.2434 1.8157
-9.9391 25.8469 23.2347
-10.1823 -33.4629 -9.1243
32.3407 16.0261 1.9853
28.1299 8.1334 21.1956
28.2368 19.6425 11.1156
-31.2775 7.4186 -16.5342
10.6914 -25.6528 23.1155
-23.9442 -15.6707 -22.0863
25.6775 24.3853 -7.2608
25.0701 9.3399 -24.3095
30.2865 -0.5494 19.7263
1.3525 30.8722 -18.7557
21.4778 9.3518 -27.5308
-3.2446 -35.6377 -5.1110
21.1877 22.8686 18.2977
-18.2457 30.8899 -4.4278
-13.4803 -10.9115 31.7162
-30.4084 -0.3777 -19.5418
-34.4945 -10.6778 -1.6762
7.7287 35.0329 -4.4341
-30.4225 7.6488 -17.9628
-27.0362 10.3454 21.6498
-15.6729 -28.2414 16.2322
-24.2111 12.9874 -23.4914
-31.5332 -16.8970 -5.1813
29.8514 -4.2181 19.9450
10.1913 -29.8176 -17.7128
-6.0169 -6.4233 35.0605
21.7505 4.0027 28.5935
12.2204 -33.1686 7.5634
-33.0908 14.4518 -1.6871
-11.1251 -32.8983 10.0316
32.8847 -7.5574 -12.9683
26.2995 18.0628 16.9931
25.1825 -5.2408 -25.3983
-21.6113 -11.7292 26.4967
3.1855 35.9178 -2.5417
-4.8712 30.8762 18.1557
-11.1047 -29.8306 17.1324
-6.5572 32.1604 -15.1463
-11.9249 -8.9274 32.9363
25.4973 19.1251 -17.0533
-20.3249 -6.1149 -29.2610
-13.6990 26.1335 -20.8825
-31.7211 8.9032 14.8728
-33.2809 -6.4056 12.5717
13.0003 -8.5227 32.6351
33.4160 11.0784 8.2059
27.8631 18.2936 13.9889
7.8655 28.1228 -21.3058
-21.4003 -10.0306 -27.3517
26.4135 18.6257 16.1897
24.6582 26.3278 2.3485
-2.7502 -33.6997 -12.7852
11.1592 -17.2212 29.7590
-2.0985 33.6844 12.9481
26.2427 24.0382 -6.3388
-17.4715 10.1693 -29.9671
6.5172 -24.3873 -25.8744
-4.6398 -33.1809 -13.5720
17.6582 -13.8713 28.3280
15.2394 -4.3791 32.4851
-10.0411 14.7779 -31.4243
-31.6960 -0.9024 -17.3564
17.9207 -15.0075 27.5739
-14.4217 29.5099 -15.0956
-25.4220 -20.1076 16.0032
-13.2915 -19.7057 -27.2345
32.7219 -5.6957 -14.2665
-24.2419 -15.5621 -21.8369
24.7762 -23.9848 10.8428
25.5110 9.9277 23.6077
-21.5757 4.9595 -28.5760
6.7883 -29.5372 -19.7020
22.7677 -11.2152 25.7401
22.0028 24.0022 -15.6992
-27.6490 -22.8550 -4.4585
-30.0384 -12.1299 -16.0392
21.9836 12.9399 25.6121
-27.5159 -9.7879 21.3018
-12.8400 -33.7396 -1.8637
2.7833 23.1922 27.5875
-29.3181 -16.9495 -12.6436
22.5485 27.5198 6.3971
22.3915 -0.4229 -28.3750
-26.6387 18.2751 16.2203
19.8598 25.8559 15.6127
-12.0041 33.9918 -2.6753
-33.2350 -14.0570 -2.1285
-32.3612 -15.1863 5.3691
-29.9895 -0.9031 20.1621
-4.8676 -5.0887 -35.4557
10.6757 -9.9783 33.0630
-3.5932 -35.7156 -4.2641
-31.2624 -0.7830 -18.1314
25.1364 4.5882 -25.5696
-16.0070 26.8738 -18.1183
-23.5738 27.2263 3.1146
13.4983 26.9398 19.9685
29.9480 11.6133 -16.5814
-23.6403 -13.6439 -23.6997
-33.1222 -10.3588 -10.1149
-8.0819 26.3012 -23.4441
2.0474 22.8358 -27.9469
14.3451 5.7650 32.6754
34.4467 -0.3171 -10.9555
-3.9677 -19.6373 30.0887
-26.7348 -4.3283 23.9419
9.7996 -13.0730 32.2453
-7.6724 28.9311 -20.2688
25.8315 -10.3066 23.0913
-11.2628 -32.9411 -9.7330
-29.7219 15.0748 -14.0021
-9.5956 -34.6218 -3.9941
12.3449 -16.0018 -29.9707
-23.5134 -26.6589 -6.5666
12.8123 29.4921 -16.5154
18.4972 -26.1806 16.7072
16.1290 27.4307 -17.1496
-15.0195 -24.7998 21.5889
29.8544 18.1374 -9.2978
-20.9695 -19.7750 -21.8158
19.7858 -18.3545 24.0485
-17.6211 7.4525 30.6701
31.5766 13.9849 -10.6787
25.7507 3.8444 -25.0763
3.4171 -35.4411 6.2410
-27.7639 2.4549 -23.0182
14.5286 13.4136 -30.2604
-28.9524 -20.9134 -5.5757
-31.7638 -0.2674 -17.2536
6.2580 -35.2784 -4.7928
33.9712 9.3025 8.1315
-2.5917 15.4238 -32.5897
-34.2116 4.1419 -10.9136
35.9687 -3.1803 1.6840
-31.2182 16.4579 -7.8268
-27.8229 -6.5975 -22.1146
-28.4824 -10.6873 -19.5251
2.0837 -32.3039 16.0876
-4.6322 -22.9512 -27.5406
-12.0701 -13.9749 -31.0759
22.8521 -18.4657 21.0593
-13.4962 18.4156 -28.0253
6.0189 -0.5350 -35.6396
6.8256 33.3819 12.0732
-22.3458 1.4953 28.3748
-26.5271 -20.6468 13.2935
-4.4951 34.3247 10.4072
-21.3720 -0.3444 29.1516
13.6877 32.7376 6.8989
29.1034 3.4674 21.1582
-34.2490 2.0697 -11.3762
-7.7501 -33.5765 10.9203
-4.5936 -35.0045 7.7643
-9.1975 28.9690 19.5678
-26.6031 21.0009 -12.5671
35.9774 3.4795 -0.4673
18.0013 -12.4039 28.7888
-20.5844 16.9464 24.4091
30.2228 -16.1152 11.5577
13.3080 27.7229 19.0009
35.4101 -7.0987 -1.5583
17.4048 -3.6840 31.4674
-0.5086 35.3948 7.3244
32.8070 -5.4915 14.1507
-35.8784 4.1707 1.4303
-24.4435 -6.1857 -25.9027
-5.2141 -7.5564 -34.9630
-13.5894 -33.4832 -0.9511
-11.2107 13.8187 -31.4652
23.0763 13.8919 24.1080
35.4338 2.3332 6.7600
13.7097 -33.2867 3.2771
1.8084 34.8935 9.2668
-17.2365 1.2189 -31.7508
22.1155 -20.2703 20.1673
-9.8846 -34.4637 -4.6092
-20.0139 29.9017 3.4677
-30.3013 13.0508 14.7717
-6.7757 -18.0900 30.5539
-11.6456 -16.6401 29.9029
0.9094 -34.7950 9.7558
24.5739 21.8870 -14.9592
34.9178 8.4442 4.0171
-7.8002 -22.8939 -26.8649
-19.3383 -10.0427 28.8422
-27.0622 -23.0173 6.6735
-32.8945 13.4021 6.7105
-31.4987 -7.6588 -15.9960
28.6322 16.4478 14.7093
24.0413 14.4886 22.7771
-17.4154 -14.6222 -28.0997
-33.2604 14.1470 0.5518
20.6757 24.1676 -17.1796
20.6804 -29.2078 -5.0912
-28.3494 -20.6828 -8.6736
-2.3620 5.9360 -35.5792
-16.5887 -25.7168 -19.2395
23.6074 -25.9523 -8.7101
17.8542 -7.3049 30.5706
3.9203 28.5618 -21.8072
-4.0512 1.4041 35.8931
-1.9662 -31.0128 18.4672
8.9546 -34.8378 -3.5835
34.3836 -6.8452 8.8096
4.4304 6.0779 -35.3571
-0.3288 -32.6126 15.5886
32.4483 -15.9310 0.0834
22.2749 21.1864 -19.0175
-3.8923 -30.8056 18.5084
17.6097 -24.3913 20.0414
-24.9599 -23.4379 11.5915
-27.1806 16.7982 -16.9037
-32.1666 1.5641 -16.4183
22.8736 26.9180 -7.6756
-31.3798 1.6512 17.8684
16.4954 30.4602 10.3330
-10.0727 33.6828 -8.4087
-27.1062 16.5178 -17.2948
32.7960 4.9744 -14.3657
-33.0408 -8.6571 -11.8347
0.9595 -15.2811 32.7454
-0.4490 -35.5438 6.5679
-3.3226 -33.6442 12.7955
1.6578 -2.3600 -36.0330
-13.7542 24.9885 -22.2058
-25.4596 -24.5909 7.3344
15.7948 16.2073 -28.1877
14.4502 -23.3090 23.5495
8.2729 29.2282 19.5951
-6.9336 34.8554 6.6122
3.5370 28.6718 -21.7283
