ply
format ascii 1.0
element vertex 1024
property float x
property float y
property float z
end_header
-42.3829 -65.6223 42.2622
48.7569 22.1671 70.8524
74.9702 -34.9863 32.3127
-64.6566 -55.9588 -24.0172
71.9719 51.3994 8.1757
-65.6434 55.1616 -23.1696
49.9172 -12.0760 -72.4647
-74.5849 46.9174 11.1596
-8.4903 -47.4399 74.6060
-63.1927 19.4263 59.3127
49.7229 -16.6037 -71.6982
-27.9427 64.0110 54.8679
10.4671 -86.1371 -18.9610
14.9611 86.5194 13.3885
28.5460 83.8888 6.0401
-61.2006 -62.0371 17.1632
-0.4293 -62.0570 63.5408
-71.3045 -31.7754 42.3637
-71.0514 -52.6240 -8.4326
85.9666 -20.7367 -8.2714
29.8815 30.2265 -77.9881
-33.6583 -62.1590 53.7779
39.5184 71.1473 -35.5675
22.8739 14.2878 -84.6246
71.6332 14.4395 50.4864
27.9791 83.1471 13.8715
50.9976 -59.0430 -42.4482
-50.1870 15.5970 71.6009
-29.5905 -81.2769 20.1781
-42.8961 -25.0755 73.6195
-86.6737 1.7183 19.3238
37.1030 -61.2089 52.5882
-30.1772 73.6247 39.4642
11.4471 -5.2946 87.9183
-44.8198 -63.3477 -43.2082
-7.9827 -8.6024 -88.0396
-85.2047 -24.4607 -5.5248
77.1263 44.0476 0.1369
-11.1213 -23.2411 84.9991
20.8963 83.5519 21.7050
-25.9583 -83.4037 -16.0835
51.1590 41.7819 -59.3778
33.0216 -70.9646 -41.9796
-1.1821 -8.1355 -88.4370
16.1303 -85.4041 -18.2934
-59.9840 -23.4483 -61.1620
-43.6945 -72.9514 25.6430
11.3424 47.3787 74.2650
56.0631 44.8996 52.2460
64.7655 -16.4608 58.5077
73.0818 -2.1261 -50.4303
-66.6144 22.4573 -54.2852
31.8004 -21.9876 79.9623
44.6953 -76.2002 -9.1952
85.3554 -19.7396 -14.6115
16.5862 -14.4595 86.0495
-50.9597 66.7525 -28.9119
-35.9704 -77.7424 -23.4719
3.3830 -48.8476 74.1023
-65.8326 -10.6400 -58.6647
-22.4440 -33.3444 79.2029
26.3346 -73.1916 -42.8739
82.7277 -14.5080 -28.8848
33.9691 -81.4552 -9.9920
-39.3935 62.5714 49.2104
-71.3165 42.8396 31.1032
-42.0656 -66.5738 41.0744
-18.0153 63.6721 -59.2453
-40.8096 78.8866 0.4097
64.9441 -17.5320 57.9963
81.9055 -8.1713 -33.3676
66.0956 -33.1049 -49.2353
-37.3785 -78.3682 -18.7073
49.0479 -31.3416 -67.0872
19.0125 -7.0272 -86.4745
-12.7118 -84.1643 -25.3666
-83.5378 21.1909 -21.4724
64.6352 -41.8732 44.2450
-80.2296 38.0847 1.2070
-35.8064 -62.0662 52.4821
7.9487 -67.8251 56.7914
-5.7989 21.5232 85.9757
86.0206 -17.9217 -12.9598
-81.0802 -35.9376 -4.8141
-52.8482 -66.0216 -27.1460
84.1698 8.4784 -27.0601
-30.4185 41.5091 -72.3906
-85.6026 23.6458 -1.3259
28.8203 55.2783 -63.2644
-35.8751 80.3288 -12.2049
70.7282 53.7181 -0.7584
-29.1321 -70.2888 -45.8203
-85.2348 24.9543 -0.9964
-56.6715 -27.1431 -62.7717
-28.0081 -2.4296 -84.2516
-12.9220 -80.1493 -36.0250
59.9878 56.3019 33.4701
36.4697 53.8711 -60.4695
62.9738 26.3129 56.8386
-62.4037 49.9522 -38.7201
-4.3067 -48.4342 74.3254
19.5303 -13.1650 -85.6384
40.3149 -64.1546 -46.3420
-81.2401 13.8203 -33.1321
68.6059 -41.9113 37.7539
57.6275 -66.5230 11.9350
-28.7488 -69.9714 -46.5423
66.9827 -26.4936 51.9624
37.1249 -60.8121 -53.0312
30.8546 82.0920 14.0564
-20.8926 -79.1374 34.4886
19.3700 -56.5897 -65.6589
81.5563 11.3619 -33.2890
9.1347 -86.0816 -19.8797
21.7393 -80.9117 -29.4853
-73.4155 40.6082 29.1519
29.0131 60.6221 58.0679
38.4920 14.2361 -78.7679
85.8222 -22.7127 2.7138
44.6744 -37.8309 -66.7960
58.2561 -19.6264 -64.1071
79.0026 10.2530 -39.2702
-48.2597 -74.2080 7.2707
-75.7104 7.0889 -45.8952
25.6776 57.8102 62.3484
-87.6631 -11.8787 7.9219
77.8849 -31.0203 -29.3320
-83.1155 13.8213 28.0974
59.8941 49.3515 43.1950
18.8694 -75.6437 42.5519
-2.3671 -78.5574 41.3742
-0.9555 -58.0942 -67.1777
-47.2530 60.4402 -44.7529
35.8147 76.5350 27.3566
-38.4184 -62.9853 -49.4526
42.3352 -47.3032 -62.1195
-51.5331 24.2948 -68.1380
54.2920 -58.9184 38.3365
1.5831 -87.1749 16.9327
6.8380 -82.9127 -31.1032
15.2281 85.7440 17.4572
22.2669 -81.1453 28.4308
52.4493 66.2665 27.3224
-43.8847 -73.1814 -24.6435
-30.3670 78.8477 -27.3784
51.0904 -29.3855 66.4451
-0.6707 -41.3516 78.6020
11.5166 55.7989 -68.1361
77.0865 -44.0679 2.0941
88.6893 1.7102 -4.4683
-56.6318 61.3012 -30.3922
79.6986 -29.6809 25.6097
-14.9945 -85.9586 -16.5821
-74.5463 3.2648 -48.1755
-63.7235 1.8943 -61.8418
67.2689 32.1344 -48.2800
73.2560 -18.8533 -46.5489
62.5353 -54.9590 30.9440
-2.7940 -87.9248 12.2522
78.3149 26.9413 32.0878
-82.9771 -13.4005 -28.7040
-68.6359 38.8205 40.8751
-65.1886 -30.4668 52.0664
-47.7288 -44.0363 60.5925
-77.6239 -9.7318 42.0536
26.0683 -83.0484 17.6663
41.4783 53.9933 57.0347
20.6174 -86.2788 4.4251
-42.4394 21.6663 74.9543
-51.3525 43.5059 -57.9555
-83.7353 -14.3181 25.9244
-14.6515 -74.5385 46.0221
-59.6034 -65.8272 1.7032
13.3217 73.7592 -47.6529
16.5732 71.9020 -49.4380
-39.3428 -20.0184 77.0720
66.5917 -55.7758 18.5281
53.9708 67.7564 -19.6191
-34.0319 5.0029 81.8871
-7.3012 -2.0523 -88.4939
6.8509 4.2540 -88.4514
-78.5520 41.3943 -2.1880
-46.0044 41.7964 -63.4456
-83.9707 23.7420 16.5507
14.1408 -37.0988 -79.4507
86.8227 -0.7962 -18.7050
0.2545 -45.8330 76.0786
60.9577 45.3853 45.9675
-5.6293 -88.5517 -3.9495
56.2177 65.1432 -22.0139
-21.6817 -41.2021 75.6371
46.3296 -34.7082 -67.3617
35.0200 8.4528 81.1840
56.9088 64.9167 20.8783
26.0439 -44.2372 72.4809
66.8692 23.3151 53.6060
-35.4843 -14.5322 80.1147
-59.4404 -65.6362 6.8858
-19.9767 -84.5576 -18.4291
-62.7074 -16.3861 60.7286
-30.5288 -65.9036 51.1214
-88.7945 -1.7829 -1.0210
30.4218 -52.6397 -64.7476
-29.1834 -5.1681 83.7276
26.0924 -6.7138 84.6333
-66.5217 -57.3560 13.1847
-26.4139 69.9434 47.9470
-73.8717 -5.1042 49.0470
59.9324 46.5673 -46.1332
19.1901 27.1354 -82.3656
7.9300 -62.7705 62.3351
36.0733 -34.2254 73.5937
-17.2424 -21.3988 -84.4599
-46.3661 8.3612 75.2925
55.4072 66.0695 21.2967
-3.2744 13.4487 87.7331
65.6908 21.3933 55.8188
19.3255 60.4468 62.1401
-55.6109 -58.2986 -37.3816
-4.3870 12.5350 -87.8198
-40.8783 -6.6451 -78.5716
-16.4448 85.7851 16.0990
-49.2733 -9.1785 73.3252
48.7633 -63.8867 -37.8063
44.9776 76.3836 5.5900
-50.4017 -69.9199 21.4374
-33.9932 -80.4405 -16.2008
-40.6972 -43.0194 66.1948
0.8694 52.3884 -71.7174
-79.5150 -0.4716 -39.5705
-7.5109 -54.1098 -70.0315
-8.8151 -82.3330 -32.1287
60.8783 -11.0497 -63.7214
-19.5633 64.9935 -57.2871
61.9995 -49.8841 -39.4504
51.5410 19.5090 -69.6535
-67.6859 -46.5635 -33.7511
33.4456 -82.2238 -3.0551
36.9451 43.3728 68.1362
60.7181 -53.7106 36.2928
-81.7839 -32.2235 -12.7171
-73.3626 50.0589 0.8518
-79.7872 -38.9629 2.1408
18.8923 83.5479 23.4845
55.3379 17.8447 -67.1415
-45.1915 51.7395 -56.2978
75.5956 -41.6769 -20.9052
39.1103 -0.5222 -79.7421
86.3008 4.6865 20.4671
19.1814 -73.5350 -45.9714
32.9618 26.8261 77.9908
17.5323 -45.5771 74.1892
41.2246 -77.3249 14.4943
-18.4498 -72.8459 47.3473
-33.1005 -72.1401 39.8603
-86.7552 13.3709 13.5439
-29.5789 51.5962 -65.9667
21.8073 40.7711 75.8343
-8.1417 -88.4207 -2.0458
-58.3814 50.7194 43.6789
29.9424 -0.2973 -83.6185
-45.1988 48.4026 -59.1857
-25.9960 -84.8330 -4.0327
-20.9329 85.5539 11.4466
54.3138 57.4196 40.5177
23.8226 85.5325 -2.3179
-1.2336 -60.6284 -64.8950
29.0954 -31.2058 -77.8996
-48.1358 46.9185 58.0542
74.2513 48.6774 2.4367
-76.0141 -23.3110 -39.5871
-75.1773 -39.1577 -26.5279
60.3313 -2.2387 -65.1445
-69.0721 31.8047 45.8933
-17.6288 50.6200 70.8204
24.7832 77.6712 -35.2372
-67.3524 -27.3434 -51.0361
30.0794 79.9240 -24.4145
73.4507 25.5469 -42.9073
37.6973 -56.9640 56.7689
-68.4786 -55.5183 10.8209
-73.8725 46.1411 17.3938
-35.2853 76.4201 -28.3480
38.7739 78.4618 -15.1334
18.6011 -80.9156 31.5491
-25.3769 71.9240 45.5152
38.2865 64.6582 47.3512
76.8639 43.8598 7.5457
-76.3992 19.4650 -40.9018
49.9137 -61.9593 -39.4760
-37.1210 60.0690 -53.8743
-60.3775 -50.9797 40.5502
10.5841 -76.0753 -44.6006
85.3351 17.5811 -17.2486
-37.9792 34.1059 72.6846
75.7206 19.1257 42.3000
76.9913 -40.0948 -18.7998
-71.6786 52.1582 -5.5126
66.8201 -43.4880 39.1479
-25.4622 58.9239 61.3867
-62.3979 -60.1702 19.3580
-45.1312 65.6236 39.3117
-85.7392 -13.5792 18.7906
-42.2292 30.4861 -71.9443
67.6113 7.8100 -57.0649
-64.2655 53.5880 29.7818
47.3676 33.5367 -67.2331
23.5995 -62.7583 58.2508
58.1464 1.4775 67.1230
-73.4854 11.4458 48.5549
6.4388 -78.2723 -41.4810
62.8501 -62.7181 2.2350
82.3544 0.3757 -33.2610
41.4881 64.1818 45.2562
24.5340 -74.0461 42.4729
-18.9549 43.3522 -75.1663
25.0040 79.9273 -29.5822
72.8550 36.1046 35.7392
29.5631 52.8761 64.9525
57.9774 -50.7994 -44.1218
86.4223 6.6178 -19.3929
-60.7688 50.8007 -40.1888
59.9452 32.0121 -57.1881
10.0069 65.4253 -59.2290
-13.0713 37.6153 -79.3909
-33.0259 48.8696 66.4058
34.4943 72.7093 37.5791
66.3463 -50.8493 -30.0200
-49.0039 22.4961 -70.5779
74.1091 4.5302 -48.7443
38.8549 19.6474 77.4142
69.3868 51.0607 21.6095
-22.0419 -77.6048 -37.1530
-16.3723 -35.3947 -79.7988
-77.0190 17.2789 40.7211
83.4230 8.2519 29.3463
-13.0155 -50.7243 71.7380
-55.3791 -59.1484 -36.3772
-44.4853 76.8742 -0.3060
-71.8656 -51.2300 9.9753
11.9649 -62.7839 -61.6742
7.4198 65.3747 59.6639
-72.5162 45.1254 24.3678
51.1899 -68.4910 -24.0262
-52.3266 6.5191 71.4711
49.1573 -45.2946 -58.4863
-65.5651 41.0639 43.6309
74.2260 -5.3248 48.4853
-17.9837 -1.4792 86.9660
-33.2872 68.2164 46.1212
84.3343 25.9267 -10.2089
-20.3854 -53.1050 -68.2127
-37.4282 -12.5584 -79.5619
25.7069 83.9917 -13.1621
-71.3700 50.4925 15.6691
-42.0478 -33.1350 -70.8713
23.7611 62.9653 -57.9609
22.6930 -85.6513 -6.1297
-88.7563 -0.5329 3.2758
-1.1629 -36.9923 -80.7397
11.5623 77.9568 40.9602
37.6617 0.8827 -80.4333
3.3600 -20.5814 86.3354
81.5582 -34.8861 -4.4620
-82.8115 17.9639 26.6128
-23.3839 66.1399 54.4738
-38.6943 79.3310 -9.9012
-33.9657 76.3343 30.1345
-23.8498 -21.5049 -82.8095
-52.4775 51.6566 49.6628
-22.0065 -44.5933 73.5924
-5.6882 81.3975 -35.0824
2.9491 -88.7655 -0.8172
-32.2374 -78.2943 26.8223
-41.1615 -66.1447 -42.6533
11.3572 76.0569 44.4415
20.0387 82.4494 26.2532
52.2287 62.7646 -34.9493
51.7609 -61.2764 -38.1405
-23.2315 -85.3909 -7.5753
35.0964 31.6036 75.2206
-22.8681 -39.5192 76.1838
-59.9352 8.2320 -65.0284
-10.0992 -68.5947 -55.5109
71.0951 35.9286 39.2849
67.5814 0.6381 57.6285
-83.5025 22.2185 -20.5515
-27.7903 79.1667 29.1381
29.6159 -77.4813 -31.7526
25.4511 9.2588 -84.5884
-57.8540 -35.8566 57.0606
24.4071 84.4060 12.9853
0.9055 33.5806 82.2205
63.4974 23.8780 57.3290
7.6707 -3.1177 -88.4315
-77.7985 4.2491 42.6384
12.2504 -4.7909 87.8388
10.1525 -83.4165 -28.7628
-78.1787 37.7973 -18.6587
61.5737 -31.9087 -55.4906
-68.6382 -49.4957 -26.9752
82.9350 -31.6595 2.8545
41.7584 -56.0679 -54.7842
-10.2102 -70.6029 -52.9118
73.9365 -24.1160 -42.9010
-19.5283 3.4038 86.5780
87.5092 -12.1376 -9.1386
-24.6066 84.9691 7.9657
-10.2145 -83.1779 -29.4243
-39.9543 -72.1017 33.0710
-33.5001 -54.0517 -62.0069
12.4619 -35.9072 80.2749
-80.1544 -35.1242 15.1740
-71.5215 -51.1186 12.6593
-72.7277 -45.2526 -23.4855
-19.5843 86.2914 -7.6774
79.3464 25.9789 30.2975
75.5662 -40.4436 23.2970
1.2631 33.5658 82.2218
-14.9253 -0.6420 87.5529
16.7478 87.1966 -2.2239
49.9471 -20.4713 70.5330
12.4041 10.1324 87.3622
-51.1641 -63.6436 -34.9345
6.6156 78.0090 41.9465
-42.2391 43.8759 -64.6486
82.8173 8.6465 -30.9067
9.4318 86.7919 -16.3368
30.4144 81.4387 18.2041
79.7147 -22.7932 -31.8546
38.4787 13.4248 78.9168
49.1068 -41.1292 -61.5272
54.1628 -65.5274 25.7147
-84.1643 7.1133 27.4674
67.5531 -19.9571 -54.1015
86.8500 18.0810 4.3417
-0.4894 83.9214 -29.0801
-77.8339 38.7143 -18.2147
41.6553 -68.3474 -38.4987
-37.7889 -65.2507 46.9365
-66.6654 -28.2960 51.4174
35.2723 -78.7236 21.1458
37.6360 -1.3137 -80.4394
-55.3071 39.8317 -56.9495
63.2565 0.3165 -62.3475
50.0685 25.9669 68.6116
-45.1653 45.6628 -61.3489
-1.1281 73.6708 -49.5986
36.7983 -63.5754 49.9273
-30.8288 -41.6621 72.1286
42.3306 -13.6449 -76.8806
65.5221 32.5488 50.3599
-70.2078 6.2469 54.0420
-21.9796 -80.5554 -30.2724
-11.3489 -51.0037 -71.8228
39.2351 58.8973 -53.6694
71.7981 -27.9148 44.2096
-44.3606 -60.2115 -47.9104
-19.9955 23.5281 -83.2784
-76.8684 44.4816 1.1470
28.1558 41.9521 -73.0476
35.3101 81.4977 -0.0640
84.1324 21.0663 -19.1480
7.6016 -16.0249 -87.0293
-61.7164 11.2684 -62.8713
61.6053 -40.0308 -49.9100
-57.9075 67.2895 -2.7448
82.9799 0.8148 31.6600
2.4389 61.1976 64.3241
-25.2664 85.0656 -3.7597
-59.7914 -7.7119 -65.2243
-19.5831 70.1642 50.8151
-23.1140 -68.9230 51.0300
11.0094 -40.0324 -78.5168
24.9841 77.3982 35.6931
82.9232 -13.2744 28.9174
28.4824 73.5643 -40.8135
-62.1769 -32.0704 -54.7194
-23.7538 85.4172 -5.3250
34.8300 19.7349 -79.2849
-20.1450 -83.7160 -21.7829
-16.6163 -80.9255 32.6137
-9.0169 88.2458 -4.4781
75.4136 7.0431 46.3883
-46.1629 70.8007 -27.2934
-13.3230 64.1157 -60.0030
-57.5559 -23.5643 63.4092
23.6486 -75.0674 -41.1621
-48.3573 54.6322 -50.6515
62.6297 29.6414 -55.5661
75.9925 31.9430 33.0678
-68.4351 -27.5977 49.4337
-3.1510 81.3062 35.6099
81.5885 19.5584 29.1456
21.2509 -77.3935 -38.0439
-78.2323 -5.8483 -41.6436
-54.7677 69.4414 -8.1903
53.9890 46.9352 -52.6399
56.9190 -11.1739 -67.2611
-42.7146 -74.3544 23.1425
23.5665 -69.7199 -49.7236
63.8935 53.1826 -31.2716
-82.3692 8.2074 32.1969
19.8579 -42.6827 75.3163
73.9845 -34.5577 34.9393
31.8008 -50.7577 -65.5825
72.9644 33.1097 -38.3228
-49.0862 25.2438 69.5844
8.4678 34.9672 81.2052
38.0505 9.0751 79.7401
34.8437 30.2250 -75.9016
-31.9604 77.3266 29.7963
57.3479 -32.0004 59.7987
78.2512 37.9678 -17.9966
52.9615 50.9910 -49.8366
-38.9997 -77.6433 18.4181
-5.2405 51.2578 -72.3454
-17.9960 14.6167 -85.7390
-6.8224 86.7955 17.5694
69.7045 -17.3290 52.2463
-24.0722 -37.9959 76.5867
84.2751 19.9307 -19.7273
-58.4999 54.9142 38.0903
-79.7697 38.8397 4.1183
63.2559 61.5267 -10.0916
-66.0282 -1.1211 -59.3945
80.2072 -29.2725 24.4665
-46.7287 2.6677 -75.4851
87.4891 10.7155 -10.9329
-84.5178 -27.0361 -3.8063
-51.3355 49.8897 52.5772
67.8508 -56.6517 8.6916
-7.2871 -34.8396 81.3744
-75.6678 9.5277 -45.5225
44.1583 70.8720 -30.2638
-10.7090 79.6766 37.7576
-9.3867 16.2096 86.8207
35.3838 81.4613 0.8613
-62.7481 62.7224 4.1556
-23.6966 82.5659 22.5840
-37.5739 -76.8859 23.7792
-31.0935 53.3799 63.8159
51.2020 -3.7828 72.4757
9.3645 86.4900 17.9016
48.4674 29.9169 -68.1512
-46.0058 59.5397 -47.1930
-76.2306 -15.4739 -42.8735
-81.5015 -2.0651 -35.2411
-67.2687 27.7169 -50.9449
-15.8493 -73.2452 47.6721
-49.8153 -72.6620 -11.2853
-9.1181 -2.5524 88.3121
0.9462 7.5227 88.4941
35.3404 -81.2134 -6.6426
80.2293 35.6899 13.3485
41.1383 -30.2159 -72.6865
-45.2189 5.9326 -76.2151
-39.9343 -50.8613 -60.8857
-34.9385 59.0904 56.3587
71.3222 36.7514 38.0942
3.4991 -56.6077 68.3521
-50.8179 -70.4407 -18.5564
46.0486 75.8986 -2.7588
-11.3646 -85.8418 -19.7665
-47.8573 -29.9084 -68.5846
-37.3688 -72.8628 34.3986
-83.9368 9.6167 -27.4010
-40.7026 -3.5547 -78.8629
-18.7680 -85.7093 -13.7971
-41.6601 -54.7803 -56.1448
69.4049 1.6458 55.3980
-67.3143 -40.5158 -41.4239
-23.1988 -81.9890 -25.0660
-23.1211 -3.1087 85.6997
-17.6566 33.8403 -80.1983
-71.6429 -28.4082 44.1469
-24.9745 82.8130 20.1733
-56.4778 -32.5896 -60.3064
-34.0533 -80.9633 13.1913
80.5710 18.6952 32.3650
-71.5753 40.7226 -33.2766
-59.5164 5.4570 65.7017
70.8536 -43.1230 -31.7627
66.8027 -27.9460 51.4306
78.3076 -30.5767 28.6649
37.7827 78.2889 18.2209
-51.6383 53.0542 -49.0655
-49.6204 -69.9110 23.2152
-48.8984 30.3072 67.6691
-55.7414 11.0827 68.2551
54.1102 -35.1657 61.0258
-88.7975 1.7895 -0.6981
43.5698 -77.1420 6.2821
72.2967 39.0460 33.7237
-81.9290 33.9885 -4.5940
-77.8651 42.7186 0.9143
-87.4702 12.0178 -9.6552
76.6106 37.0210 25.4746
49.5291 66.2072 -32.4370
-64.4344 23.6577 56.3667
17.4961 -54.1034 -68.2305
-66.2615 56.8518 -16.3087
-70.1095 9.7315 -53.6530
-71.7355 22.3130 47.3797
-81.4027 32.0251 15.3845
61.7944 -33.8692 -54.0649
-31.7329 -48.7209 -67.1415
79.2850 -38.1636 12.0882
-54.3651 68.5395 15.3447
39.5432 -75.5797 -24.7534
-32.5393 82.6413 -0.5480
-0.8875 86.8481 18.5823
-23.1547 59.8463 61.4082
-65.4868 -5.7603 -59.7242
55.5921 31.6578 -61.6116
-39.3147 -54.9566 57.6439
-64.4822 33.3972 -51.1406
-88.0041 3.7746 -11.3897
-39.1683 59.6628 -52.8667
64.3686 28.8593 53.9677
-68.0432 33.5971 -46.1525
0.3308 88.8093 -1.2196
82.4627 -30.9615 11.4006
-35.2234 -65.1285 -49.0539
45.1343 69.1814 32.6421
73.5296 -37.3827 32.9336
43.9129 -55.4036 53.7661
-2.4221 38.9123 79.8038
-43.6865 -42.7030 64.4719
-14.1923 60.2239 -63.7209
-8.1548 -79.3593 39.0422
-82.6150 8.7938 31.4024
67.1520 14.8655 -56.1989
-27.1429 -13.0612 83.5545
19.1706 73.7501 -45.6300
-14.5997 -83.0430 -27.9176
-43.3711 43.3007 -64.2859
9.0769 88.0327 7.5196
-75.5310 46.4110 -5.4564
0.9358 33.8603 82.1054
-3.8757 33.1198 -82.3210
72.1136 -50.9863 9.4187
88.1111 -0.7613 -11.1598
-54.3680 18.3308 67.7996
81.3931 -29.4782 19.8716
80.2912 -37.8931 2.4765
26.1083 67.2018 -51.8745
20.1251 -65.5684 56.4309
-32.5192 34.7022 75.0130
-61.6822 44.3344 46.0267
-38.8675 49.3904 -62.7582
55.6907 50.7340 -47.0457
-56.9069 68.1836 -1.1362
-29.6409 -82.8941 -11.7760
36.0276 -81.1586 -1.9965
-4.6478 83.3614 -30.2979
-55.3760 57.0999 -39.5195
-86.0952 -0.8646 21.8071
62.4350 -25.8438 57.6424
83.3200 30.2213 5.7559
-6.2827 80.8832 -36.1542
-88.6090 0.1392 6.0917
6.3078 79.7310 -38.6246
-0.3103 -88.8149 0.7069
72.5026 43.6001 -27.0388
-13.2106 33.1330 81.3411
-59.1197 54.5992 -37.5829
88.2585 5.0356 -8.5886
-25.8378 46.1418 71.3584
49.3391 72.1658 -15.6986
-36.9529 80.6491 4.3474
1.6224 88.3368 9.0921
-72.8403 50.6294 -4.4320
25.7545 -39.4702 75.2828
41.2423 42.1313 -66.4283
5.1562 48.4836 -74.2391
50.4524 72.6819 7.7834
-39.6721 78.8287 10.0427
55.0648 62.1977 31.4324
84.1401 24.9933 -13.5820
-88.1221 10.8303 2.4278
-22.8824 -75.8865 -40.0790
59.2754 -65.6375 -8.1756
43.8420 60.0934 48.5319
84.2981 -20.2366 -19.3131
17.0801 37.5971 78.6347
-27.8749 45.3425 -71.1037
-70.2694 52.9914 11.9504
65.1818 53.5402 27.8112
74.6371 -42.2140 23.1510
63.5089 32.5631 -52.8672
6.3117 -46.7560 -75.2511
-35.2460 -24.2627 77.8314
-23.3175 -21.0580 -83.0755
25.6748 -79.3048 -30.6632
62.2987 19.0628 -60.3669
-31.8631 -82.0350 11.9868
-5.6663 -86.5631 -19.0632
42.8859 -75.7067 17.8319
48.8473 40.4856 -62.1574
-67.7723 -57.2260 -4.5590
37.7939 43.7011 67.4575
-60.2807 22.9437 61.0615
-86.0116 -5.7374 21.3959
45.1547 -76.2412 6.0839
-64.1064 -40.4347 -46.3044
50.9766 43.6736 58.1609
21.2214 64.7694 56.9497
-66.3519 -48.6353 33.4773
84.4976 24.6956 -11.7887
23.4065 56.7958 64.1487
-63.5175 -34.4295 51.6607
-61.2863 -41.1832 -49.3621
-28.0166 76.3944 -35.6042
-34.7642 -72.3350 -38.0497
-3.4165 83.5838 -29.8457
-57.1584 44.7625 -51.1656
-18.7158 52.0967 -69.4574
-36.8751 -80.7238 3.5466
-67.6640 -50.3192 27.8971
67.5087 5.7935 57.4256
-35.1127 74.2970 -33.7008
75.4706 23.9280 40.2533
-87.0274 -16.0777 -7.5112
-43.6910 75.2385 17.8592
-29.9186 -3.5169 83.5535
66.5325 58.3269 -7.7516
13.9315 3.8455 -87.6345
45.2209 72.0867 -25.4414
85.9830 11.6455 -18.9734
-66.1026 45.2216 38.3945
87.2317 7.8462 -14.7564
6.1547 27.7723 -84.1398
-70.7250 16.4564 -51.1453
-75.8188 40.9972 21.4340
-23.9597 85.4639 3.2458
30.8742 -42.0676 71.8734
-20.7202 83.1145 23.4805
25.6230 42.2204 73.8213
51.0329 -49.1477 53.5616
87.4001 -6.1830 -14.5493
2.0042 -75.8169 46.2220
-11.8707 -59.1920 65.1466
57.0598 34.0911 -58.9124
13.6459 -22.5072 84.8287
70.7060 15.4085 51.4969
-24.6901 81.6800 24.6469
6.3638 43.8426 76.9806
71.7074 34.7498 39.2324
-79.3313 -19.9097 34.6243
-72.2976 15.0435 -49.3502
45.5790 -68.4345 -33.5850
-69.0377 -37.6661 -41.2764
88.2224 -4.3697 9.2952
-71.3994 -43.5199 -29.9472
-67.0873 15.7338 56.0395
65.2761 -57.0724 -19.2473
-5.1479 37.4749 -80.3605
-45.4731 38.4283 65.9102
27.3563 -82.2231 -19.4853
-62.8968 -41.0584 47.4014
68.1735 -43.9606 36.1735
56.4312 47.5318 -49.4463
-75.9636 -43.2570 15.7182
37.3688 71.0542 -37.9943
1.1707 -4.1583 88.7132
-79.2689 -39.7093 -5.3201
26.1887 84.7827 3.8392
33.6429 -62.7151 -53.1381
-36.6441 -59.9016 -54.3847
33.4904 56.2707 60.0058
6.9536 84.0204 -27.9448
-9.5729 -87.2500 13.5827
-66.1839 28.2659 -52.0521
56.9130 -64.7308 -21.4365
65.6711 -36.1603 -47.6280
-39.9025 62.8543 -48.4336
-55.3105 61.9784 31.4343
-84.2222 -9.4318 -26.5772
85.5317 -12.4573 -20.4409
-6.5753 -81.7275 34.1476
-83.0347 20.9157 -23.5893
-2.0023 -65.3218 -60.1477
-69.7520 0.7739 54.9795
-81.6401 34.3893 6.4001
58.6766 19.6906 -63.7026
-27.9936 38.2667 -75.1046
-9.1123 79.2390 -39.0748
-88.6886 -3.0855 -3.6748
-44.3112 -28.6805 71.4327
-57.9466 -21.1982 63.8868
-85.3894 -22.8514 -8.6686
53.3071 -30.3330 64.2413
70.5336 -43.8000 -31.5477
44.4538 25.8948 -72.4017
-50.5815 64.9660 33.3109
17.0365 39.1629 77.8763
23.2829 -35.4791 -78.0245
-49.5470 -72.0999 -15.3421
29.1935 -83.8384 2.7467
0.5403 82.5546 -32.7588
3.0311 -88.6230 5.0463
-21.3013 54.1720 -67.0845
-79.3758 -38.4219 10.5795
-59.8152 24.9954 60.7129
-15.7774 -42.0741 -76.6129
3.8906 56.7237 68.2347
-67.4570 -52.8037 -23.4522
-4.8274 59.8296 65.4661
-16.8685 -56.3800 -66.5239
75.3801 7.2089 -46.4173
-43.3133 20.0509 -74.9040
70.5681 2.8767 -53.8568
3.5404 43.0112 77.6286
77.2452 7.8874 -43.1238
-9.3484 87.0604 14.8926
-68.0782 53.0049 -21.0837
86.3654 -20.5948 -2.3569
72.5296 42.7786 -28.2514
-44.0220 45.3248 62.4212
18.5456 -56.1339 -66.2852
-0.4961 -88.0724 11.4755
27.4463 -84.4396 -2.3112
-61.6007 -59.3410 -23.9308
-6.5469 73.9921 48.6928
82.5597 -17.5680 -27.6395
-59.3156 -38.3564 -53.8436
42.0288 -35.4725 69.7421
13.7118 -6.8865 -87.4829
37.0403 74.8869 30.1439
-88.3740 -4.5521 -7.6158
-25.9723 51.6938 -67.3935
-60.8211 -64.5824 4.3117
-42.3958 -39.6187 -67.2431
-35.3847 59.9067 -55.2069
16.7057 -87.1536 3.7216
84.7844 -22.2069 14.3926
57.8958 55.7239 -37.8365
39.2113 17.1176 -77.8341
-8.4256 24.4421 -84.9722
-9.0984 34.0991 -81.5056
-12.8540 -76.1812 -43.8166
11.8051 -37.5538 79.6181
47.4524 -31.4006 68.1979
12.6848 8.4048 87.5051
52.8072 -48.9705 -51.9805
-71.9571 42.0283 30.7325
7.7777 -81.8131 -33.6869
21.5852 -53.7577 67.3266
12.4062 -18.0067 86.0844
65.9766 59.2529 4.9876
58.2890 56.5891 35.8992
61.7806 -15.4503 61.9123
-18.8232 26.1056 82.7821
70.7741 53.5699 -3.1588
-37.6275 -76.3840 -25.2654
6.1402 87.5015 13.9451
-36.7807 -79.2732 -15.8630
79.3359 1.1064 39.9159
-14.3525 62.0867 -61.8703
-50.7139 -31.0378 -65.9806
22.8395 68.2916 -51.9933
39.5154 79.4990 2.6699
44.8572 -60.2694 47.3721
31.3413 -0.9342 83.0996
-75.2570 -13.6552 45.1509
84.5031 -8.0579 -26.1341
78.5609 -37.6294 17.3463
-0.8913 2.9082 88.7662
-3.0008 -88.2093 -9.9400
-67.4290 57.4875 -6.0992
45.6367 -33.7171 68.3311
-21.1664 68.9287 51.8604
-24.6282 -54.6257 -65.5604
84.2664 -27.6234 4.9808
65.6841 -47.5253 -36.2716
75.2917 -18.5197 43.3229
-55.9608 -12.1475 67.8934
-39.4143 42.1629 67.5092
-7.7483 -85.7522 21.7994
56.8866 24.3064 63.7323
33.5201 -82.0934 -5.0763
76.5104 -26.3356 -36.6235
-74.9420 9.1012 46.7927
-8.5881 -64.7213 60.2170
85.3194 22.5191 10.1080
38.2280 26.8202 75.5512
-42.2846 -77.4820 -9.8613
64.4433 -55.4487 -25.7136
-64.7142 -53.0998 -29.6847
-28.7095 -64.6924 53.6596
82.3625 0.7194 33.2353
-1.2791 79.5543 39.4735
-32.7743 80.2961 -19.1592
87.0198 2.9339 -17.5393
-75.2815 35.3208 -31.2061
0.7529 48.9824 -74.0867
84.9258 -19.4983 -17.2079
-78.7498 37.6587 -16.4005
20.4338 61.9622 -60.2647
-39.7887 -18.3428 77.2599
69.7926 2.6284 -54.8705
4.9237 -85.3304 24.1489
63.6581 -37.1446 49.5642
-3.6537 88.7332 -1.3242
15.0076 58.3652 -65.2454
42.8479 53.9578 -56.0473
-68.7862 40.0314 39.4288
-16.3718 51.9854 70.1296
-81.4470 -35.2819 -3.2033
28.3669 5.5083 -83.9861
-5.1221 -21.5561 86.0104
13.7055 -18.4742 85.7878
0.5453 10.5026 88.1935
58.6985 13.4889 65.2781
65.8934 -45.0457 -38.9569
13.2649 48.4072 73.2767
63.5104 2.6355 62.0336
58.7881 13.6550 -65.1628
85.7043 21.2289 9.6332
-68.1922 52.0532 -22.9996
53.6285 20.9932 -67.6162
75.8681 -41.2626 20.7395
-68.7683 -22.9451 51.3141
66.6315 8.1139 -58.1644
-57.3860 64.7080 -20.2091
33.3950 -51.7575 -63.9892
-54.4740 -19.0881 -67.5050
-2.6081 40.2510 79.1312
78.1416 37.0207 20.2987
45.1294 76.4983 -0.1839
86.9855 -17.4564 4.1807
84.4362 27.3785 -3.1048
-19.3080 -43.4281 75.0326
-61.8831 6.8854 -63.3385
25.2904 -25.1376 81.3461
-37.0808 -61.8757 -51.8179
56.1707 -55.8398 40.1927
-73.4238 -4.2561 49.7948
67.5323 0.4006 -57.6881
11.2532 21.8359 -85.3537
59.6207 -16.3520 -63.7705
8.7234 -48.5676 -73.8497
1.5960 -7.4587 88.4902
-66.1022 -48.0798 -34.7494
10.0454 78.1992 40.8982
-12.8339 56.5549 -67.2720
-35.7996 -55.9045 -59.0065
56.6947 44.6275 -51.7956
-18.7042 77.8018 38.5450
13.2736 30.5763 82.3261
83.7550 -0.4056 29.5571
-4.9804 -34.8366 81.5494
43.3148 -37.9786 67.6028
27.5821 19.9336 82.0400
-26.9542 77.1761 34.7276
-78.8535 -39.4599 10.6642
12.1228 60.6634 63.7313
-7.1091 -62.2050 62.9975
50.8785 -66.1098 30.4887
-2.0567 15.2151 87.4812
34.6780 17.4173 -79.8922
24.7753 85.2521 2.6364
16.2380 -51.5638 -70.4712
-24.0951 45.8333 72.1624
-62.2156 -62.6550 9.6049
-11.7053 71.0167 -52.0413
82.4936 13.9921 29.7946
7.0068 28.3950 -83.8649
-1.7664 -12.5233 87.9132
50.9746 -18.0480 70.4596
-69.3250 -49.5825 -24.9861
-33.8718 80.9216 13.8956
-76.2366 36.0693 27.8510
25.1554 20.7620 -82.6125
73.3390 41.5776 -27.9531
49.9380 -61.0203 -40.8829
58.1403 -38.9612 54.6847
-8.7151 55.5978 68.7140
49.6607 -73.4891 -4.6749
49.4520 68.5579 27.2582
-11.8291 -80.8645 34.7806
-59.1228 -21.3230 62.7576
42.1873 78.1008 3.0307
-16.2907 42.2903 -76.3861
67.5905 -56.1003 -13.1516
67.8822 45.4651 34.8369
21.6887 11.8908 85.3047
-60.7286 -30.6857 -57.0886
86.0908 14.5716 16.2707
-52.9255 -36.4076 61.3357
1.4679 -0.1207 88.8061
-1.8851 -50.0306 -73.3626
-17.0422 -7.6492 86.8317
57.1896 56.6865 37.4791
-32.1342 -15.5910 81.3204
-24.9474 79.5961 30.5087
-40.3193 69.6604 37.5561
17.8373 -67.6973 -54.6590
77.0422 36.5566 24.8356
64.1503 -61.4181 -1.1200
-85.3870 7.6116 23.2337
-22.9510 53.1354 -67.3689
-56.1935 68.4863 -6.3720
-16.4120 -36.8852 79.1127
-52.1058 -61.0962 -37.9596
-27.0830 64.8546 54.3054
29.7584 80.4335 -23.0992
6.3373 28.2178 83.9779
-83.7073 -29.6099 -2.2445
-21.5110 66.1723 -55.2014
-87.3913 -11.5154 -10.9015
7.6137 87.1956 15.0881
40.6684 -78.9507 1.2452
-38.5090 -43.1826 67.3870
-10.8667 -54.7287 69.1041
6.1210 -82.9178 31.2388
-52.4641 29.5125 -65.3087
-50.4137 -68.4721 -25.6654
75.1234 -45.1478 14.3818
27.7406 -33.2619 -77.5422
-51.4481 45.1101 56.6291
74.0107 10.2033 48.0312
6.1624 -88.4225 5.6725
