ply
format ascii 1.0
element vertex 1024
property float x
property float y
property float z
end_header
13.7016 28.1582 -17.6614
-28.4142 -14.8261 16.2900
-17.4103 -31.3944 1.9533
-0.0821 22.8154 -27.7848
-27.2786 18.0618 14.9061
32.4827 -3.1167 -15.0900
2.3648 -34.6392 -9.3315
10.4930 33.6371 7.1404
-21.5902 27.0840 -9.6365
-23.2336 20.5682 -18.1574
-32.8703 7.7249 12.3456
-22.7235 23.5886 -14.8244
-14.5416 -13.2161 30.1068
-19.4702 4.5090 -29.8851
-5.9676 -4.4461 -35.1733
-17.6760 -19.3000 24.6498
5.6044 24.7480 -25.4690
8.9567 7.0961 34.0876
-12.2433 -30.3889 -14.8041
35.7163 -0.3203 -4.0969
7.2757 -33.5340 -10.7276
9.0339 19.5301 28.8011
-35.8938 -1.9087 -0.7300
2.6476 33.4935 12.7953
-14.3834 30.6922 11.9855
-33.6966 -8.4541 -9.2526
22.0734 -27.7641 5.8704
-25.7819 -15.3488 -19.8053
3.1422 -29.3258 20.5589
-31.8634 -13.5039 9.7423
15.5148 -21.5812 24.2092
-22.2893 -21.9075 -17.7706
24.8319 22.2188 13.4999
-34.4859 10.1507 0.4764
-19.4273 16.1669 -25.5686
-7.4810 14.7771 -31.9095
6.0862 29.6865 -19.3446
19.8175 -20.3104 22.0748
31.3082 17.0299 4.7248
3.6464 33.7980 -11.7023
-18.4083 1.7680 30.8310
-4.4705 -22.8642 -27.3822
2.3342 -35.8750 0.2753
17.9712 -2.2636 -31.0557
18.3847 29.5949 8.8705
18.4254 -4.5969 -30.5273
29.2135 -18.6553 -9.5442
-9.4621 -9.9782 33.2182
-19.5313 -28.0351 -11.1851
-4.6103 1.1427 35.6368
-33.5471 -10.7616 -7.1640
-29.0207 20.2010 6.5010
13.2507 24.4807 -22.7521
2.5069 13.7846 -33.1096
11.0054 34.2259 0.1215
-5.1934 -19.8033 -29.5534
-23.7519 23.2489 -13.7069
31.0575 -14.2463 11.1811
-19.3259 -6.1851 29.6782
14.7532 6.9694 32.0361
21.9120 -11.3540 26.1437
-15.6599 -21.3369 24.3320
6.8162 -29.4771 -19.4211
7.4982 32.9379 -12.3051
-23.0519 14.3219 -23.5804
34.4126 -10.3597 -0.9982
12.9841 -26.0247 21.1346
8.3838 -4.9754 34.6049
26.9842 6.4686 -22.8594
6.8080 -12.7380 32.9232
-26.4010 -19.3058 14.9271
-21.1282 22.8392 -18.0143
7.1100 -34.5109 7.1408
-13.9425 -16.5625 28.7025
-5.2488 -15.4185 32.0509
6.2129 -28.8465 -20.5384
-32.7708 12.2911 8.2187
5.5116 35.5265 -0.1764
7.3156 -34.2219 8.2395
21.5175 4.5273 28.4437
-20.4445 -0.1149 -29.5728
18.9275 -30.5492 1.0185
-3.6945 -16.4902 -31.7327
-15.0886 32.6129 1.1298
-30.5643 -14.3914 -12.2985
-22.4848 20.2377 19.4271
-1.3636 35.9249 -0.2948
20.9169 -20.4820 -20.8690
23.6891 -25.8303 8.0105
-14.3141 21.6271 24.8982
-16.1824 -0.4044 -32.1016
9.9807 26.6710 21.9451
-12.6204 -15.5592 -29.8526
-34.9680 6.7265 4.9532
32.6248 7.4820 -13.1220
21.4538 28.5230 4.3264
31.7624 -15.1688 -7.3210
-10.2578 34.0754 5.1174
24.1148 -24.4683 -10.5982
3.0798 -26.2615 -24.3596
-0.2694 35.9365 -1.0197
-16.4344 25.1074 19.8008
18.9572 -27.3469 -13.6129
21.8625 -28.5317 0.7162
-35.9243 1.3065 -0.5299
12.2403 3.4225 33.6304
-24.2166 19.9073 17.6011
-6.7281 31.3090 16.3408
-25.7071 -20.6791 -14.2851
-12.5226 25.0260 22.5704
-0.8801 -30.9109 -18.3381
-29.7841 -4.0464 19.7251
-8.6787 -2.2624 -34.8153
-33.8215 6.5881 10.2591
-14.2745 -3.2327 32.8380
29.1951 16.1028 13.4495
18.9832 27.1138 14.0365
20.3121 28.2462 9.0617
-17.8664 -31.1980 -0.1440
11.4448 26.9547 -20.8567
-10.1462 -34.1649 4.7287
-10.0606 26.3984 22.2363
32.9462 -14.3683 0.8034
-4.8092 32.8973 -13.6815
-4.8435 -35.6240 0.1051
-1.6513 -35.0452 -7.8517
-6.7609 5.5232 -34.8759
-4.0775 -33.2461 13.0618
12.1215 -0.9757 33.8328
-25.0953 25.7439 0.1370
-0.2749 29.9268 -19.9213
18.1944 22.8541 20.9570
-11.9738 -15.2283 30.2865
24.8715 25.9604 0.1156
-21.1617 -28.7906 3.9783
-4.1380 29.9836 -19.4011
-21.6417 28.4857 3.5700
30.4537 -15.3671 -11.3564
-8.6564 -27.7330 -21.1776
31.5815 17.1303 -1.3060
20.7931 7.8411 28.2614
-25.7993 21.7882 12.3374
14.1180 -6.6387 -32.3906
-18.3507 -24.9815 18.2132
19.6722 26.4775 14.3001
-16.3555 -17.2536 26.9696
-27.9000 21.6584 -6.7119
-6.9416 14.1603 -32.3086
-16.5386 14.2741 28.5529
17.4971 29.3677 11.1325
-4.9675 13.5781 32.9166
-31.7808 -4.6008 16.1664
13.8634 -14.4189 29.8738
11.9744 -33.1185 -7.2334
-20.9917 -12.2339 26.4995
-18.9284 17.7359 -24.8937
35.2950 -6.7472 -1.1311
-7.1746 -35.1857 1.7429
-27.5562 -13.0357 19.0597
14.9944 18.6001 26.8654
16.3225 29.8825 11.5394
25.8181 -6.6138 -24.1294
-8.2579 -27.4853 21.6543
-31.1541 16.4336 -7.2041
-33.5877 -12.7473 1.3833
-29.7191 -2.9811 20.0108
-19.8887 25.7918 15.2239
24.3092 -24.4225 10.2540
13.1439 4.7360 -33.1263
-20.6339 28.3739 7.8554
12.9687 -33.5283 0.4584
31.7760 0.5282 -16.8093
-10.7079 -1.6408 -34.2811
16.0120 -2.1441 32.1179
-4.2514 -30.3414 18.8114
-5.6968 25.3305 -24.8687
3.4923 26.6078 -23.9243
-24.1945 -25.8236 -6.3490
24.5579 -0.0432 26.2574
27.2647 22.7350 -5.6830
-28.9662 -16.7065 -13.2060
29.1311 16.1287 -13.5569
-6.0765 -1.7853 35.3897
14.5153 11.7672 -30.7145
18.2573 26.7709 15.5736
-31.0042 -13.0399 12.6983
8.0117 34.5572 5.8442
-5.4496 -32.8594 -13.5316
13.8188 23.4469 -23.4910
19.2309 -26.5612 -14.7383
0.9158 26.7017 -24.0567
29.6798 -15.4544 13.1458
-26.9017 10.8418 -21.2438
17.2121 0.6103 31.5581
-32.4149 -15.5010 1.2396
11.1236 33.1571 8.3317
-31.1486 12.0534 -13.3050
6.6396 -22.6603 27.1104
-24.8714 25.9459 0.8730
27.2446 14.8503 18.1589
-35.7685 1.1445 -3.4417
-6.2270 -34.5469 -7.7638
-23.8737 -18.3243 -19.6675
-15.3854 27.9219 16.6192
31.5712 2.0325 17.0783
31.3287 17.6259 0.6207
31.7353 -13.9005 9.6015
-2.9879 35.1776 6.7936
-16.0642 -20.1452 25.0730
-31.4794 -0.8592 -17.3452
2.0034 -30.9861 18.1216
-29.4013 18.0923 -10.0386
-28.1154 -15.0812 -16.5718
1.1304 -34.0422 -11.5063
-2.1559 -7.2629 35.1446
-28.0674 -21.4994 6.5221
-35.8958 1.7813 -0.9269
11.5969 -33.9078 2.8840
22.7400 13.6932 -24.2473
-22.5985 -27.1771 -6.5769
14.4444 -1.4344 -32.8914
-24.1930 -4.7697 -26.1628
-28.1327 22.3815 0.4044
-35.5512 0.4071 -5.3374
2.5535 25.9728 -24.7273
27.0850 11.6820 -20.5542
-19.3939 -22.5299 20.2194
-22.1479 -27.2357 -7.7607
31.2594 13.2906 -11.7793
-31.8326 0.4810 16.7031
7.5956 -22.5706 -26.9336
31.8728 -14.3079 8.4825
13.5618 -32.9122 -5.0403
8.6266 -34.9008 -0.2443
20.1291 -2.9456 29.6426
30.6986 14.8790 11.3470
12.1308 33.6905 -3.2149
17.2589 -2.7527 -31.4181
1.2486 13.3168 33.3714
5.1472 30.6778 18.0257
-1.0395 19.2687 -30.3345
10.6781 34.0681 4.2290
25.5045 2.0679 -25.2544
-28.1489 20.8815 -8.0093
21.8094 26.6135 10.4219
30.7074 -18.6620 1.1518
-21.5166 -2.8693 -28.6591
24.5622 -26.0365 3.3674
-5.7070 -35.4567 1.6717
-7.9032 -5.4964 34.6392
30.0845 10.2785 -16.7875
16.0940 12.1572 29.7612
24.4539 -23.9849 10.9213
-14.5699 -10.4698 -31.1552
-23.9243 -26.5802 3.6963
25.4894 -8.0052 -24.0573
-28.7204 -21.6086 0.8653
31.4593 -8.9191 14.9434
-27.6855 15.7332 -16.6889
29.7753 18.5771 -7.8018
-19.6371 -10.6035 28.1868
-8.0664 29.0331 19.6101
15.7879 16.8766 -27.5402
-32.6477 -4.2385 -14.4467
7.6788 -29.6289 -18.8602
-7.1029 -8.0561 -34.3102
0.3712 -27.3414 23.3421
26.5377 -24.0179 -3.3813
-10.0063 -29.5082 -17.9355
-31.3358 -4.4890 -17.0428
14.5508 -32.7180 -3.2167
-13.5922 -12.2185 -30.9597
-28.0480 -8.0137 21.0151
28.0369 2.3324 22.3838
-0.9730 25.7933 25.0260
-32.2627 -2.8386 -15.6078
-30.1482 -7.6291 18.0396
-25.8154 -19.9915 15.0482
-31.2633 -11.1867 -13.7844
13.5132 22.5182 24.5534
29.5802 -11.0816 -17.1684
-21.3199 -13.8253 25.4336
0.1669 -9.2800 -34.7332
0.2779 26.1159 24.7068
-21.3588 -6.4173 28.1986
-33.0026 2.0352 -14.1148
-31.2098 17.5179 -3.4075
-10.1720 16.8799 -30.0689
20.9278 -8.2382 28.0482
-26.7040 -3.8485 23.7619
5.2029 -31.2412 -17.0136
-17.7935 26.1164 17.1427
2.3039 -5.5566 35.4452
24.2745 9.1643 24.8859
-23.5641 22.2311 15.5903
6.6441 -33.1161 12.3175
25.9196 9.3894 -23.0772
3.0610 -17.7169 31.1334
10.9787 34.1861 -1.8218
-18.2978 30.2413 -6.5726
-26.4559 15.3777 18.8721
33.8456 11.2400 4.5475
-26.3958 16.8469 -17.6632
30.5514 -9.5250 -16.3838
6.5159 -21.1029 -28.3682
-4.9665 28.3013 -21.6082
25.0077 -4.9018 -25.3600
32.4242 -14.3401 -5.9643
-1.4381 35.6577 4.3596
-10.6600 -11.9916 32.1731
4.1683 35.6703 1.6718
-14.9933 31.6137 -8.2655
-15.5096 -2.0574 -32.3691
28.0673 3.9500 22.1171
-4.9431 34.0328 -10.4822
24.4880 13.5752 22.5521
34.4706 2.1472 9.9855
-34.0819 10.5259 4.4910
-16.5939 -1.1836 31.8714
-14.5959 32.3466 -5.7617
-0.3985 -31.8235 -16.7227
34.3428 -10.2113 2.9740
20.0170 -23.6918 18.1814
20.4830 -16.3719 -24.5957
13.7175 32.8539 -4.9995
24.8399 1.1218 -25.9666
14.2636 -22.7422 23.9141
-2.2697 28.7415 21.4784
5.3922 33.4010 -12.1590
14.7070 14.2597 -29.5450
9.2616 -16.8897 30.3563
11.9822 29.1271 -17.3373
3.1938 4.2007 35.5626
-13.6709 -24.1441 -22.8629
17.8109 -16.3822 -26.5883
-8.9285 -24.1834 -25.0597
-3.7731 -29.1444 20.7102
16.1748 -31.3235 7.0537
19.7239 10.4085 28.1988
-29.3948 19.7351 -6.2461
-15.7347 11.5244 -30.2019
-22.9890 -15.8069 -22.6758
-14.4711 9.1254 -31.6205
19.0354 -23.2408 19.7499
-5.8325 31.0092 -17.2324
-31.2812 9.7591 -14.7915
-35.5139 3.8088 -4.0983
29.3412 19.1061 8.1605
7.8142 -0.6993 -35.0855
4.9916 33.0158 -13.3260
-2.5827 4.1152 35.6222
-34.2689 -10.7671 1.5008
16.9346 3.4738 31.5229
-28.4562 18.3554 12.0776
-8.6636 5.4969 34.4568
13.7029 30.1801 -13.9261
13.1450 -10.0752 31.9099
-33.3556 13.3452 1.3613
-19.2186 -16.6102 25.4419
24.7999 17.4407 19.3218
-2.6337 7.7941 34.9980
23.2606 14.4871 23.2725
13.2176 18.2706 28.0004
21.6737 25.4586 -13.2156
-8.0511 -27.4569 21.7679
18.4975 -24.6408 -18.5261
-23.3794 -23.6017 13.7443
-27.9702 7.8330 21.1862
10.4421 34.3607 1.6877
0.6194 -33.1995 -13.7822
-19.1019 17.5224 24.9123
-33.1308 7.3264 -11.8835
-29.8372 12.0331 16.0464
5.1537 -7.5702 -34.7660
-21.3094 11.6020 26.5301
-28.7284 9.1911 19.5640
8.1048 -31.6780 -14.9453
-9.1745 25.0068 -24.1461
-20.0943 13.1568 26.7518
-31.7414 11.3573 12.4915
-23.4043 27.0004 -3.9701
-16.6438 31.1574 6.6891
-1.2328 34.6277 9.5888
-23.6650 12.3732 24.0711
-31.3167 -15.6564 -8.1661
-13.5510 -23.4756 -23.6180
-31.7826 -11.3487 -12.3942
33.4969 -8.2209 10.1450
31.1237 -17.9232 -1.6174
-31.9468 -12.8597 10.3235
-10.9314 34.0972 3.2299
-1.4200 35.8029 2.9458
-27.6743 7.7542 -21.5998
21.9756 2.4712 28.3462
33.2904 12.6653 -4.8868
-33.6999 -4.0671 11.8457
-21.3458 11.2446 -26.6544
-3.9358 25.8181 -24.7079
-7.5729 23.3661 26.2530
9.7406 26.1054 -22.7195
11.9041 -6.7634 33.2429
-3.6943 -34.7752 -8.3417
20.8092 -21.1331 -20.3202
-12.8461 -7.3994 -32.7532
0.9386 34.3089 -10.7035
-22.0306 25.3888 12.7517
2.8901 35.6464 3.6780
12.0770 31.6822 11.9553
-12.7321 33.6216 -0.1572
-20.3584 -29.5540 -2.1542
12.5835 -0.0332 33.6778
-0.6265 -31.6819 -16.9826
19.0845 6.4872 -29.7698
-34.1559 -5.6006 -9.7236
-35.5887 1.1703 4.9617
-2.7952 -35.4943 -4.9882
-24.7884 21.1407 15.2036
27.5116 3.9089 22.8117
23.0590 7.9835 -26.4024
-35.1586 6.8816 -3.0101
-31.7436 -16.7311 -2.2273
27.5123 20.4561 -10.8244
32.9867 14.2957 -0.2267
20.9292 -27.8700 -8.8192
34.9282 -8.1531 -2.4684
-34.5250 -10.0201 -0.4051
-26.2748 -22.5342 9.7154
17.5515 30.5769 7.0387
34.5491 8.8260 4.5833
12.8339 -6.7996 32.8877
2.4507 7.8605 34.9964
8.8801 -15.0265 31.4307
-12.6055 3.9599 -33.4360
22.7046 8.6817 -26.4891
-3.3709 -35.4374 5.0370
-3.6224 29.7277 19.8919
-26.2372 -20.6865 13.2747
25.7402 -9.2273 -23.3418
-23.8687 22.3460 14.9495
-30.5524 -12.0387 -14.6344
-18.7182 26.1691 -16.0422
-18.4402 25.2595 17.7330
-15.0840 -10.3087 -30.9637
19.4978 28.5879 -9.7525
-20.9426 -8.3141 28.0147
-29.2731 -7.5192 19.4703
-13.5781 30.6211 13.0585
-3.2184 -27.7632 -22.6139
6.0244 -17.3289 30.9186
2.3990 8.0519 34.9565
23.5708 -24.6054 -11.4687
27.0283 -10.2602 21.3716
23.6829 0.5270 27.0441
9.3535 -16.7659 -30.3967
27.0041 2.0071 -23.6494
-24.6815 -24.4054 -9.3672
-35.7811 3.3922 -0.8637
32.1469 -11.0160 -11.7376
10.1445 -34.4884 -0.4282
31.5251 4.6945 -16.6335
-1.1489 -35.7197 -3.9153
-3.6560 26.6148 -23.8921
-2.2068 -21.3872 28.8142
-1.3031 18.2226 -30.9642
0.5021 28.1981 -22.2970
35.9260 1.3149 0.3701
5.6596 21.2577 28.4363
30.7750 -11.3811 -14.6940
-11.1216 31.0458 14.3182
-28.8741 3.4967 21.1329
18.7931 29.9207 6.6420
3.8989 -35.4764 -4.3324
17.5049 -14.3156 27.9497
30.6350 -17.5880 -6.6860
-12.9228 13.3758 30.7674
-4.0878 -34.8764 -7.7116
23.3496 3.2371 -27.1452
-8.2717 27.4877 -21.6459
-13.3021 -4.0715 -33.1515
-31.4844 -16.1401 6.3856
-25.8540 -23.7622 -7.7116
-28.3137 -8.6260 -20.4076
-0.3586 -35.2251 7.1836
-30.8725 -18.4189 0.4235
-10.1286 28.0195 20.1212
-34.7284 2.0241 9.0768
33.1409 10.7262 8.8978
-3.9216 35.3900 -4.9714
-19.7446 25.9759 15.0979
-11.6966 6.5118 -33.3666
16.9708 19.4147 -25.0521
-10.6989 -15.7195 -30.5119
-8.5280 -34.9257 -0.0926
8.1815 34.8745 -3.0615
11.1656 -26.7388 -21.2816
15.5440 -11.4314 30.3357
-9.9634 23.6923 25.1386
-2.5189 22.3987 28.0088
-19.2016 -20.8917 -22.0766
-35.0774 -5.7297 5.4123
19.6837 23.9333 -18.2289
-0.9079 16.8172 -31.7632
-22.6335 13.5255 -24.4404
20.0412 -23.3854 18.5477
-19.2965 29.6564 -6.3787
8.6982 -19.8906 -28.6575
12.1671 4.6695 33.5067
-2.5750 27.2575 23.3011
-0.8238 -35.9225 -1.1982
14.1657 20.7048 25.7524
-20.8587 9.0077 -27.8625
-27.1177 -16.3537 17.0214
-6.4962 30.3656 18.1183
-27.2118 -12.6219 -19.8179
-31.0562 -17.8474 3.0863
32.5726 11.4665 10.0043
11.2259 -33.9518 3.7145
31.4546 5.5205 -16.5129
-19.3499 -24.6481 17.6237
-10.1378 -13.1750 31.8777
0.9110 -27.1910 -23.5024
-7.2818 -12.9412 32.7421
-7.3706 24.8604 -24.9034
-11.6867 33.9892 0.8353
11.8531 -4.6955 33.6155
-31.3830 14.8067 -9.4029
-17.2927 15.7706 27.2909
26.1362 -23.6320 -7.1394
34.7674 -8.0883 4.2842
-7.5947 24.1860 -25.4932
32.5286 14.2992 -5.4742
-12.4616 33.1569 6.1540
1.1075 18.5735 30.7627
-25.4767 19.7056 15.9741
-9.2709 26.7471 22.1627
-34.4628 -8.6382 -5.4995
-18.1284 -30.8901 -3.1149
21.3852 27.4502 -9.0389
10.4616 7.2900 -33.6148
-26.0614 20.9792 13.1613
9.9962 -19.5697 28.4543
24.5206 7.7344 -25.1289
-32.7657 -14.1870 4.2047
23.6569 18.4956 -19.7689
-16.9571 -29.7549 -10.9384
-19.5477 26.0168 15.2826
-16.2509 -24.7588 -20.3826
-27.2908 14.5701 18.3159
27.3062 23.3098 -1.8890
22.0621 -1.0201 28.3684
1.9277 4.9137 35.5624
-21.5750 5.8530 28.1568
-34.6832 -5.4676 -7.7281
33.0063 0.0144 -14.2523
0.5822 -24.7097 -26.1082
8.8996 -34.6648 3.4198
3.4344 -35.2131 -6.3866
22.7398 24.5162 13.2060
0.1123 -32.3489 -15.6870
2.1316 30.8517 18.3349
-16.0912 24.5212 -20.7925
-30.8598 16.3331 8.5701
13.1049 28.9206 16.8643
9.6353 33.0168 10.4688
3.9061 21.6945 -28.4013
3.3793 18.6942 30.5229
-25.5644 -4.4991 24.8749
-22.2108 15.9306 -23.3547
20.6189 -4.2095 29.1493
-14.2936 4.1019 -32.7324
14.4065 26.7752 -19.1855
-33.5428 -10.0552 8.1435
33.3928 0.8533 13.2943
-0.3219 12.5030 -33.7063
15.7964 -3.0945 -32.1472
-22.5825 -23.7338 -14.8081
12.4657 -3.1114 33.5778
-18.3810 22.6206 21.0474
18.8040 -6.2197 -30.0044
-29.0564 18.1388 10.9205
0.3648 5.0690 -35.5909
-6.5962 -13.5736 -32.6311
23.4076 18.8577 -19.7235
2.1208 -29.0915 -21.0174
29.3677 19.8515 6.0001
-7.0514 31.1924 -16.4272
7.7791 17.2364 -30.5767
-8.0972 22.5395 26.8132
-21.7590 24.2368 15.2206
-15.7678 20.3667 25.0822
-16.1994 30.9899 8.3517
25.6677 3.8867 24.8718
14.5365 -23.9142 22.5687
-25.3012 24.7675 6.2422
31.7036 -16.9398 -0.6858
-33.0461 -13.4557 -4.4094
-0.5757 -35.8918 1.9984
22.7332 15.6198 23.0601
8.4223 34.9030 1.8412
-9.0211 -10.6310 33.1383
20.2945 24.3929 -16.9016
16.5697 -15.7627 27.7404
-30.2252 -14.4277 13.0699
33.6360 10.3154 -7.3996
1.5018 32.5313 -15.2317
31.3183 -14.3374 -10.3027
24.1008 -23.4926 -12.6410
6.9923 -32.6365 13.3608
-18.8874 -30.2698 4.4215
8.6854 22.0676 27.0209
31.0231 4.9098 17.4930
24.7581 -21.7718 -14.3376
-3.7874 -21.9010 -28.2585
-17.9169 27.8484 -13.9998
0.0481 3.0369 35.8234
13.6342 33.2646 -0.3431
7.4400 -35.0063 -3.4273
-30.4840 6.1218 -18.0498
-12.9332 -33.4489 -2.5386
-27.8380 7.3044 21.5461
-18.8239 0.0330 -30.6301
-8.5144 4.2324 -34.6718
-23.5176 6.7570 26.3402
-23.3487 -23.2220 -14.4264
21.7446 -21.4398 18.9749
3.0895 9.8735 -34.4313
7.0427 -35.2554 0.0468
33.7704 2.1491 -12.1443
13.6302 -28.2243 17.6111
-4.9621 30.3315 -18.6527
-15.3141 -23.7112 -22.2666
-24.5997 13.4007 22.5349
22.7215 26.9466 -7.0822
12.7664 -29.3486 -16.3775
-4.6625 22.8144 -27.3918
-31.7411 -14.6813 -8.3369
8.5504 26.6671 22.5455
35.2804 6.2952 2.8654
34.8027 6.1320 6.6114
9.6872 -34.4672 3.2736
8.3099 -25.8207 23.5962
-4.5066 -9.4378 -34.3971
-3.2013 -17.4241 31.2841
-13.4919 -21.6375 -25.3443
31.0466 16.2909 -7.9536
-11.3690 -31.5222 13.0246
0.8075 -7.4991 35.1519
-15.3343 -12.6325 -29.9637
25.8776 -20.5050 14.2281
-24.5475 10.3742 -24.1316
-21.0231 1.8214 29.1076
-12.1714 32.7972 8.2913
-16.5778 -16.7479 27.1519
27.2383 -3.2629 23.2373
35.0265 -3.2023 -7.4452
-12.3570 -33.3897 4.9976
-29.7140 -9.6945 -17.7662
-34.0226 5.3637 -10.3071
-2.5586 30.9132 -18.1762
-4.7734 8.7244 34.5491
23.8264 -26.8833 1.4620
-0.6621 -0.5266 35.9420
25.1745 16.3829 -19.7582
0.7440 34.7712 -9.1080
-10.5411 -24.5615 -24.0450
21.8075 10.7704 26.4759
-2.5177 35.4767 -5.2546
2.4215 -23.1150 27.4295
-8.2945 12.7724 -32.5670
33.9491 -1.8841 11.6813
-11.9047 20.3804 27.1193
7.1164 -21.7917 27.6952
-20.7177 25.0702 15.3233
-32.9424 6.9471 -12.6128
-6.5876 -28.5175 20.8782
-3.4214 8.3557 34.7997
25.7423 24.8949 -3.1815
14.3561 -26.6090 19.4527
31.5230 14.0965 10.0066
9.8580 34.3380 4.0333
-34.7016 -9.3282 -1.1513
-27.8481 -20.8843 -8.9930
2.1663 12.0580 -33.8002
-22.0374 2.2455 28.3170
-17.5698 -26.3815 16.9664
15.8812 14.3410 -28.8906
23.7982 -18.8232 -19.2841
0.2801 35.2706 -6.9606
8.6356 18.7398 -29.4413
11.6745 14.5718 -30.7232
-7.0639 -32.3371 -14.0341
-18.4294 -28.7391 11.2679
27.3270 20.4259 11.3384
-18.1014 29.2818 -10.3662
14.7123 9.2434 31.4746
32.2980 15.3638 3.6519
-31.3963 -14.5941 -9.6865
10.4143 20.1924 -27.8631
-10.6194 26.9140 21.3403
-16.2878 -17.6729 26.7380
-34.5575 8.9709 -4.2249
-21.8714 22.6245 -17.3873
-26.6631 -0.4411 24.1128
-13.2010 -29.6379 -15.4878
-25.9881 21.9219 -11.6872
-15.0244 -28.5954 15.7835
-12.9001 -24.1194 -23.3320
12.5222 32.3583 9.4167
-35.4297 -5.3045 -3.0233
-2.0229 -20.9232 29.1663
12.4066 -1.5182 33.7093
17.8334 -10.2355 29.4915
1.2657 -34.5920 9.7126
26.7896 -9.3291 -22.0868
-27.8118 -3.5554 -22.5035
1.7158 -33.7089 12.3818
-8.5683 3.0248 -34.7847
-5.9741 -30.2368 18.5091
31.4599 10.5206 13.8612
-0.0637 19.3217 -30.3185
23.2156 -13.3889 23.9649
28.9715 -20.3183 6.3531
-20.6725 28.6237 6.7730
-7.5863 16.7590 -30.8890
-33.8705 10.5203 -5.8867
-21.9035 2.4060 -28.4076
29.0045 -21.1185 2.3003
20.8076 29.2141 -2.4744
27.1744 22.7509 6.0410
4.1491 0.3859 -35.7097
7.7486 -1.2082 35.0862
-8.1666 12.3789 -32.7508
21.6616 5.2632 28.2067
1.4424 6.2720 35.3712
28.0790 -0.7437 -22.4401
25.5924 0.6500 -25.2418
-18.7559 -25.4175 -17.1672
8.1919 31.0101 -16.2422
-34.0481 -11.5289 -0.5966
9.4644 31.1301 15.2933
-13.7108 -31.6613 10.1055
-23.5604 7.9645 -25.9619
4.3388 30.2954 -18.8655
-31.1132 -1.3394 17.9644
22.0295 -25.0283 -13.4472
-7.7239 15.5189 -31.4968
20.5137 11.6557 -27.1270
8.9020 30.0948 -17.5386
-2.1024 4.8242 -35.5647
-19.0671 29.9967 -5.4025
8.4786 33.6752 9.3079
-33.0952 0.4646 -14.0369
31.5203 10.9811 -13.3578
-13.5019 7.9023 32.3697
31.8098 16.7252 0.9726
12.1936 -17.2573 29.0869
-24.1253 9.7849 -24.7945
-13.0814 32.8549 -6.4788
34.6318 -7.7084 5.8107
-32.1986 -9.6490 -12.7551
-28.4424 -15.0805 16.0048
-12.9868 19.5835 -27.2098
-30.5413 -10.7380 -15.6355
32.8378 13.2532 -6.2107
2.6942 35.3147 -6.1769
-12.8909 32.0211 -10.0508
17.6650 -23.4859 -20.7100
22.8934 21.0755 -18.0072
-24.5542 -23.3861 11.9467
30.1909 -13.1140 -14.4595
14.3311 -19.2891 -26.7412
-20.3503 -29.4840 3.0174
6.1082 14.8008 -32.1896
11.1165 18.7755 28.5735
-23.3299 -27.3246 1.2746
-33.1241 -12.1073 -6.9820
-0.3276 30.5755 -18.9097
9.0049 22.7308 -26.3584
35.6052 1.1139 -4.8553
23.6484 -11.7392 24.4026
17.4803 -31.4161 -0.1027
32.3816 15.5313 -1.6606
-22.7679 9.7576 26.0568
-15.3740 -32.4454 1.8655
4.5243 -3.8571 -35.4570
30.5942 -3.4567 18.5631
16.7047 13.3125 28.9184
-31.7974 -16.6593 1.9847
2.9007 15.1034 32.4964
22.9397 16.6148 -22.1418
6.3296 -7.4517 -34.5970
34.6266 -9.6423 0.7554
-18.2833 30.8519 2.5349
33.9791 9.1926 -7.3117
-4.5760 -13.6400 32.9477
26.6738 23.6757 -4.5293
-9.9196 34.2398 -4.6668
-30.6382 1.7905 -18.7253
24.7760 -23.5589 -11.1208
-5.7933 31.3185 -16.6773
25.5965 -12.1908 -22.1076
7.7817 -15.3548 31.5629
-8.0479 -33.0830 -11.5451
25.9815 -24.8339 -0.8848
17.5306 19.8085 24.3484
31.2309 2.7585 -17.5945
27.4219 -4.5847 22.7939
-4.9869 -28.7980 -20.9369
-30.1418 6.0585 -18.6362
32.6591 3.1632 -14.6942
-17.8377 -16.3329 26.6007
-22.7097 -22.1793 -16.8787
8.1323 17.8247 30.1444
-35.0089 -7.2414 -3.8054
29.8041 -15.3637 -12.9698
26.1570 20.6643 13.4662
23.0944 3.3110 27.3538
29.7950 -17.8557 9.2724
8.5936 33.9761 -8.0200
6.3494 -25.2474 -24.7951
-27.1110 15.2937 17.9899
4.6159 20.8111 -28.9506
7.1307 -35.2305 0.7157
-15.2194 -22.7301 23.3292
-35.1288 7.6481 -0.1418
-2.5471 -29.9778 -19.6822
-18.3398 20.8603 22.8264
27.9155 -10.7913 -19.9202
6.4048 -14.0766 -32.4557
19.4732 18.2415 24.0954
-35.1723 2.0697 7.1531
-33.6530 4.4313 -11.8483
5.0388 -35.5965 0.2137
-11.3086 -30.2680 -15.7641
-12.5920 2.7099 -33.5655
11.6071 25.3617 -22.6848
9.4672 -26.5879 -22.2710
-21.9913 27.9885 5.0569
24.3940 26.4003 -0.7098
7.6540 4.6861 -34.8138
0.4375 -5.6299 35.5057
-32.6918 -13.2848 6.8780
-23.5647 -1.9449 -27.0826
-4.0410 -26.5997 -23.8468
17.9498 21.0989 -22.9169
28.1280 19.8767 10.3091
-12.9858 28.4268 17.7716
34.2906 4.9807 9.5860
-10.3853 0.9083 -34.4073
-18.0671 2.9663 -30.9406
-16.5943 -31.4994 -4.9961
24.7263 -25.7299 4.3734
30.2814 -18.9887 3.8739
-12.6480 -24.8417 -22.7038
14.0033 32.5699 5.9711
-12.6167 -7.5055 32.8182
-13.0332 -33.4133 2.4956
31.5268 -17.2771 -0.3286
2.1983 -34.7887 -8.8008
-30.3514 -18.3714 -5.8159
-31.3487 0.2970 17.5986
16.1983 24.1700 21.1181
10.4548 -34.2853 2.7852
-14.2358 27.5254 -18.2273
12.1433 -14.6553 -30.5009
7.1850 17.4618 -30.5942
-16.1262 -31.9982 2.9332
-29.3608 20.2359 4.5820
-10.5005 -29.5733 17.5415
22.7257 22.0360 -17.0441
27.4121 -23.2272 1.2729
-34.3322 1.0607 10.6168
9.7275 -32.9721 10.5241
-12.0941 -33.7671 -2.4613
-23.1236 -17.2557 -21.4495
-19.6682 -28.3339 -10.1436
32.4360 -9.4761 -12.2740
35.8927 0.6069 1.9724
-25.4650 15.5420 20.0629
-4.6671 30.2005 -18.9392
17.2570 23.1874 -21.3795
-30.1898 1.6904 -19.4490
14.1023 5.9129 -32.5378
6.6052 4.1006 -35.1013
5.9227 30.8505 -17.4846
20.4265 23.4218 18.0753
-20.8551 -3.3700 29.0904
-1.8744 10.2823 34.3992
-15.6095 -3.7396 -32.1699
4.7938 7.6147 -34.8077
-8.9243 34.7290 2.6068
-25.9262 -22.9603 -9.6540
-13.7070 10.1227 -31.6574
-22.6852 -19.6310 -19.8129
20.6240 7.9942 28.3423
-16.3909 -4.6540 31.6579
34.7057 -3.8653 -8.5509
-19.7524 29.7237 -4.3457
15.8222 -1.9114 -32.2265
-23.8787 -16.5180 -21.2016
-32.8655 -13.9770 -4.1285
-10.8091 23.7402 24.7408
35.2730 -0.5367 6.9332
-3.6048 -35.5808 -3.6819
22.6740 -16.4818 -22.5119
-3.4224 31.6531 -16.7007
32.6476 -13.5254 -6.6138
4.6179 -33.0358 13.4111
-3.6349 -5.0268 -35.4127
13.3721 30.6306 13.2475
30.0687 8.2161 17.9139
30.0435 9.6971 17.2017
28.3073 20.8967 -7.3869
32.5809 10.3343 11.1459
4.0685 4.9747 -35.3729
-23.4661 21.0201 17.3217
2.4080 -35.7433 3.0264
32.3936 -13.0612 -8.5207
9.5609 18.4778 -29.3207
32.8878 -14.4188 -1.7425
20.7981 -2.3924 29.2277
-32.9467 -7.9278 12.0086
18.7139 -17.7262 -25.0622
12.7349 -7.1817 -32.8449
25.7482 -2.4714 24.9693
8.5683 -34.8658 1.8712
32.3834 10.4829 11.5743
-3.3873 35.1983 6.4921
4.0450 -30.7854 -18.1229
-9.1004 23.1435 25.9635
20.6016 16.3821 -24.4897
28.4991 -4.0328 21.5426
2.8726 32.9297 -14.1396
-34.2759 -5.9313 -9.0843
-22.0631 -26.3316 10.6023
6.8002 3.6403 35.1148
15.6797 -24.5500 21.0711
-25.0734 -17.9013 -18.5314
-25.5903 2.4118 25.1369
-7.5363 -9.0443 -33.9698
-34.2900 3.4262 -10.2468
2.1275 -18.0500 31.0196
16.6546 -16.3673 27.3364
31.0040 18.1745 -0.9920
25.6346 23.8071 8.2846
26.0689 -15.7181 -19.1284
-24.5733 -26.2392 0.4478
1.7349 -20.1320 29.7361
30.6997 8.6472 16.5922
-31.2567 17.3347 3.8820
14.7888 30.0854 -12.9887
-5.3860 -17.4509 -30.9677
-33.9489 11.6951 1.7996
-25.5934 0.5174 25.2439
5.2156 34.6714 7.9520
-18.5922 27.4700 13.8663
20.4229 4.8606 29.1860
-33.8425 8.1574 8.9827
-31.9005 13.6239 -9.4492
-1.9765 -7.2171 -35.1646
-0.5587 35.8422 -2.7514
24.7438 -10.5739 -23.8429
-28.0346 -2.1181 -22.4080
-27.0059 10.8765 21.0932
-31.0880 -5.5591 -17.1806
-10.5876 -34.3016 1.9616
-14.0580 11.6440 30.9731
-23.5465 -21.7327 16.3033
6.9371 35.2750 0.3053
-16.5688 -27.7162 -15.8060
-2.0107 -33.6652 -12.4562
-6.0155 -7.1169 34.7233
-1.6348 11.2041 34.1224
-14.9093 -8.6950 -31.5381
24.3467 -5.2075 -25.9357
7.3201 -18.6049 29.8801
18.0395 -26.1235 16.8725
-27.3900 -13.8341 18.7336
-7.2416 -14.1162 -32.2620
5.5336 -0.1035 -35.5234
-20.5830 -22.7571 -18.7350
18.7041 22.4887 20.9035
-26.0530 24.5689 3.1863
5.3691 -28.6958 20.9826
-7.0234 -31.0377 -16.7294
-28.6526 -21.6127 -2.1134
9.7216 -20.0971 -28.1805
-4.9388 35.3158 4.5768
5.1019 -34.5214 -8.6481
-29.4266 -14.7455 -14.4632
-12.6778 14.7383 30.2423
26.6383 -23.9785 -2.8236
28.6748 14.3271 -16.2797
-21.8301 -10.9089 -26.4005
-11.3618 3.4861 -33.9308
26.6140 12.6303 -20.6085
28.6905 13.0092 17.3251
11.4218 -17.6297 29.1767
-7.4779 -34.6054 6.2521
29.0398 -21.0669 -2.3283
20.0339 8.8325 28.5162
30.9336 18.1946 2.1477
-26.5441 -18.5261 -15.6441
-26.4907 22.5214 -9.1418
10.8075 -1.2419 34.2666
-11.3551 26.3986 -21.6036
-27.0369 -15.3086 18.0886
-35.8211 2.6006 1.6218
6.1394 20.2653 -29.0546
-32.9648 9.5938 10.6690
25.0061 -3.4355 -25.6015
-27.8368 -0.7021 22.7412
-23.2364 27.4319 -0.3176
-3.3378 22.0636 28.1887
-20.8115 -10.5056 -27.3689
25.5123 23.1103 -10.3722
14.2844 -8.9135 31.7655
-31.1290 -17.9467 -1.2005
24.3099 -24.8365 9.2043
16.4860 -11.7827 29.6972
21.7409 28.5187 -2.5609
9.1427 -7.8761 33.8662
0.1759 -32.8871 14.5241
-4.8931 12.4483 -33.3713
