ply
format ascii 1.0
element vertex 1024
property float x
property float y
property float z
end_header
3.0344 -12.6131 35.5761
11.7154 29.2281 -21.0338
16.6455 27.1905 -20.4342
10.1362 -36.0489 -5.6293
7.2613 -25.3749 -27.1540
-17.9557 -26.7131 19.9488
-6.0255 30.4419 21.7012
-25.6414 19.1664 20.2267
0.8272 -37.0326 -7.8647
26.0203 13.2227 24.1259
-0.0417 25.0105 28.4329
22.1940 -5.3014 30.2204
-7.9897 32.3194 18.0438
18.2230 31.5039 -10.4586
-26.1118 -27.4249 -0.0270
30.1863 -9.4993 -20.7967
4.4567 -27.7380 25.3908
-7.4028 15.8503 -33.5845
-1.9022 29.4787 -23.6926
-28.8072 5.0351 -24.0572
-16.8609 33.9005 -0.6485
9.5878 -11.4186 34.8086
-37.1859 7.1167 0.7199
21.9098 -9.9587 29.2359
-28.6511 -13.8699 20.5109
-23.5354 -0.1434 29.6651
-31.0259 20.9436 -5.7195
6.0843 -14.4655 34.4628
28.4549 7.2010 -23.9252
-23.3843 28.6900 8.0004
26.9190 25.2079 -8.5956
12.3555 1.4942 -35.7640
-33.5500 -8.7147 15.2447
-24.4988 -16.6602 23.5839
-25.7594 27.7032 -1.7140
14.0978 34.6223 6.0417
-6.9770 25.8004 -26.8256
-24.4662 -14.3812 -25.0707
25.0187 28.1520 -3.9343
-1.7398 -37.1652 -7.0478
29.3630 17.6907 -16.0874
-34.0469 16.0650 -4.0838
-21.4255 15.3144 -27.2097
3.5033 25.8926 27.4090
21.2221 -31.1773 -3.3981
-35.1880 -13.9152 -1.4576
-11.8606 -14.4424 32.9347
-33.3174 16.6458 -6.8426
31.5803 -6.6811 19.7991
3.2832 -3.8256 37.5305
25.0556 -28.3429 -1.6883
-1.3950 22.3026 30.5713
-18.7045 15.5673 -29.0130
16.9247 28.7354 17.9384
8.8333 -13.0808 34.4212
-0.8595 9.6001 36.6204
-5.4137 -37.1312 -5.0911
-35.5431 -10.1125 8.2691
-6.9903 -36.3942 7.7814
20.1589 -20.3317 24.7830
-35.2463 10.4600 -9.0685
-34.8755 13.7423 -5.3667
-33.0830 17.9585 -4.1188
-22.9377 -23.2797 -19.1277
-20.1534 1.4227 -32.0276
13.9502 -16.4299 31.1353
-31.7027 -14.0820 -15.1852
8.7861 -32.3174 -17.6732
3.7425 -15.9671 34.1321
29.4860 15.0900 18.3527
-22.4947 -30.2825 -3.3032
28.0033 -2.3564 -25.3814
-12.2341 -28.2411 -22.0617
34.8763 14.3416 3.4516
12.1296 11.1646 34.0907
-20.9793 9.4292 -30.0818
22.5882 28.3390 10.9832
-23.1554 21.9591 20.3857
6.1214 19.6325 -31.7970
8.9121 12.6205 -34.5724
-10.3763 -26.1775 -25.3184
-12.1877 -16.3366 31.9144
27.6005 -23.3746 11.2158
15.8636 -33.8712 5.9193
-34.7407 10.1077 -11.1745
-25.4802 -23.9019 14.6086
25.6743 13.3762 -24.4103
30.1109 22.5062 -4.5558
-34.0861 -2.8668 16.2442
-19.5144 -30.8611 10.0365
-13.5223 12.8335 -32.9606
-21.5161 -31.1431 -1.0565
-25.9983 17.8707 -20.9446
-25.1303 -8.9629 26.8717
-12.2789 -30.0332 19.5241
31.1921 -20.2223 -7.2155
-9.5945 31.6474 18.4484
29.6745 -2.5409 23.3863
2.2142 22.1583 -30.6278
-20.1290 26.4638 -18.1231
-3.3996 -14.3511 -34.8775
-6.9046 18.6787 32.2085
-12.6807 25.8772 -24.5667
-37.1587 -3.1262 -6.5888
11.5648 -35.7652 -4.5888
-32.8840 9.3290 -16.2961
-8.1601 36.6661 4.7923
23.0136 -27.5267 -12.1082
-28.2726 24.2905 -6.6773
9.1292 -30.3470 -20.7286
19.5405 32.3990 -1.5592
-9.5535 -12.4957 34.4462
27.4753 24.1647 9.7535
-12.4217 -8.3889 34.7747
18.5912 -8.0547 31.9913
-5.8639 -37.4101 0.2303
14.7163 -31.2856 15.4466
-28.4833 4.6919 -24.5080
14.9409 -34.6283 3.4059
0.3161 -34.8092 14.9054
-3.3164 -16.0767 -34.1247
15.4146 8.0178 33.6461
5.6896 -30.4111 -21.8345
2.7146 -35.3700 -13.2494
16.5175 22.8000 -25.3237
-12.6166 34.6166 -8.7446
-35.3546 -10.2851 -8.8444
-12.3732 13.8681 -32.9929
16.1083 0.1623 -34.2702
16.9256 16.0293 29.8419
9.7013 35.5646 -8.6602
-7.0792 -35.6798 10.5258
34.7813 -5.7694 -13.8177
6.9531 -36.9955 -4.1161
12.4876 -34.4125 9.6848
-33.3634 -11.1615 14.0091
29.8115 -0.9167 -23.3321
27.6765 -7.3160 -24.7879
-0.6902 37.2808 -6.6045
37.7967 2.2706 -0.4511
13.5280 -1.5850 -35.3332
-6.5793 -36.7147 -6.5344
35.2262 5.8591 -12.5992
16.3850 -14.5385 30.8888
24.5270 28.7535 -2.3702
-10.0424 -20.5295 -30.1934
19.8844 32.2237 0.4435
11.5313 -33.1875 14.1271
-22.6124 -9.8809 28.7229
36.5709 1.5850 9.6959
0.5968 31.1789 21.4819
4.5521 18.8501 32.5255
-20.1550 8.4029 -30.9374
17.1577 22.9650 24.7422
-3.6145 30.6681 21.9170
-30.2999 8.6126 21.0165
5.1581 21.5407 30.7140
22.5067 -22.5438 20.4739
23.3478 -22.1211 19.9873
-5.9244 -3.4070 37.2458
28.5190 12.0040 21.8294
26.1613 18.4365 20.2395
17.6341 -16.8990 -28.9381
-33.7303 5.9685 16.1431
-15.1957 14.9699 31.2881
-7.0456 -22.6459 29.5208
-37.8325 -0.3742 1.5850
24.4971 -7.6926 27.8329
-15.2305 22.7922 -26.1247
28.5918 -21.3485 12.6768
-15.9503 20.3839 -27.6413
-9.6287 -8.6610 -35.5841
-8.7714 -3.9781 36.6223
-21.7424 18.5289 -24.8576
-9.3311 -14.1764 -33.8514
-29.3275 18.1496 -15.6348
30.5914 11.7222 -18.9924
-14.7822 4.6703 -34.5489
34.7962 -14.3902 4.0120
-37.1877 -4.2205 -5.7636
24.8951 -5.8624 -27.9253
35.4258 12.4197 -4.9714
-19.0316 29.5578 -14.0744
23.6116 -7.0035 28.7645
-32.2285 -18.7445 -6.6273
15.5085 19.1126 -28.7775
-12.6554 10.1162 -34.2266
37.2923 -2.9838 5.8596
31.9590 -20.2339 -1.7788
14.8096 11.5393 -32.8858
-22.4281 -13.9551 -27.1328
1.9684 -31.5201 20.8940
5.6166 -4.5394 37.1726
-17.9803 5.2167 -32.9158
14.3422 7.2610 34.2860
-10.0699 3.6695 36.3192
-21.3557 -18.7589 -25.0198
11.2459 -17.3690 31.7144
-30.5986 17.8626 13.3644
-33.8978 -4.0546 -16.3846
9.4045 -2.6391 -36.5861
4.3366 29.5784 23.2436
27.1679 -25.2135 -7.7549
-37.3703 2.6470 5.5142
22.1660 4.2933 30.4005
-23.0227 29.5078 -5.7620
13.0565 -10.7649 33.8762
-24.5701 -26.7117 10.8049
8.4636 32.4001 -17.6793
-29.7219 -0.2884 23.4623
26.5835 -12.4720 -23.9106
27.4658 22.3895 13.3527
-21.5169 -26.1397 -16.9614
14.2242 9.9895 -33.6428
18.4027 33.0537 -1.6575
-20.8760 29.9925 9.9296
3.0087 -6.3535 -37.2093
22.4268 26.5318 15.0685
-29.7539 22.4676 6.6232
-28.5822 -16.7834 18.3120
8.6561 36.0898 7.5201
24.5703 28.8141 0.0538
6.8063 26.9935 25.6706
-1.5330 -36.6958 9.2209
14.7450 -27.8284 -21.0266
14.5950 23.8246 -25.5603
11.0787 -14.9669 32.9728
-11.3033 -31.2623 18.1345
15.4984 26.4237 22.2607
-0.5812 -32.9494 -18.6535
24.9644 4.0901 -28.1781
-24.1313 26.2660 -12.7173
-35.7364 -12.0119 -3.5464
26.9145 4.3628 -26.2780
33.2531 5.5043 -17.2594
-5.1332 36.0601 10.3573
-15.7418 -32.0185 12.6872
-5.2070 21.5908 -30.6705
4.9874 -37.2550 4.5985
-11.4699 36.0576 -1.4988
30.0731 -14.8931 17.5430
32.7291 -9.9941 -16.2135
5.6060 -35.0507 -13.1900
35.5192 1.0229 -13.0880
-18.6838 29.5959 -14.4551
16.2559 -22.6614 -25.6156
-26.6493 26.8294 -1.9878
-27.5997 -25.9171 -0.7173
-0.3510 7.7000 -37.0748
25.9150 -17.0173 21.7434
-10.9512 -29.5984 20.9274
-19.9098 -29.8172 -12.1856
-17.0994 -33.7189 2.1444
16.2487 29.4292 17.4314
-13.7151 6.0593 34.7726
-14.7093 24.7252 -24.6222
26.4066 24.1403 -12.4053
29.0667 7.1064 23.2072
-1.9794 33.2899 -17.9393
15.5630 -34.1330 -5.1656
-7.6140 6.5167 36.5173
-10.7243 34.5062 -11.3253
-3.6167 6.0238 -37.2100
8.6525 -33.1520 -16.1256
-20.0398 7.0878 -31.3389
-6.5723 24.8369 -27.8188
-1.4861 -20.4131 31.8599
0.6169 -16.0598 34.2878
-10.2657 -30.9674 -19.2247
-13.3753 2.1128 -35.3637
-24.4572 -23.0489 17.4512
-2.3986 35.6481 12.5465
25.2076 -23.4889 -15.7099
33.9932 -2.0521 16.5592
-36.1456 -11.2756 -0.5581
17.8535 -33.3625 -1.4655
0.9574 -0.3328 -37.8540
1.3980 17.1610 -33.7269
-36.3779 -6.6599 -8.1394
6.9665 24.8846 -27.6799
10.0744 -32.6382 -16.3465
-4.3083 -36.7807 -7.9102
-0.7100 -27.3934 -26.1352
37.8399 -0.4682 1.3701
18.8413 32.4235 5.2607
6.3796 -32.8997 17.6314
-6.5299 31.3363 20.2324
-28.0714 13.4141 21.5873
21.0107 30.3432 -8.4731
34.9815 11.8763 -8.3188
11.1464 5.0747 35.8324
-32.7716 -2.2054 -18.8443
-28.7382 6.9108 -23.6709
-16.1149 -23.7347 -24.7169
8.2418 -21.3666 30.1578
22.7074 28.0865 -11.3788
10.3729 35.4560 8.3202
13.3481 16.2534 31.4898
-0.7466 25.9195 27.5966
-19.6395 21.5123 -24.1963
13.2262 22.2139 -27.6689
-18.3024 23.6939 23.1857
30.2030 22.5441 3.6733
3.4655 -21.7071 -30.8342
9.0433 -26.9456 25.0221
1.2666 -12.2551 35.8073
28.8021 -17.3754 -17.3921
15.0136 -8.6057 33.6822
35.0678 12.1456 -7.5293
-31.2757 15.6430 -14.5286
13.2289 35.4718 -0.8389
-8.8861 -36.7408 -2.2595
-12.6353 -20.9908 28.8737
-36.9773 -0.8629 8.1171
8.1361 19.8132 31.2281
-16.0866 -23.2746 -25.1688
-3.9757 36.8850 7.5926
-21.6972 30.2780 6.8135
20.6020 -23.9029 20.9323
-4.1172 34.3038 15.5001
30.4242 18.6904 12.6093
37.8227 1.6507 0.8196
0.2323 -37.3877 -6.0050
-11.3951 27.5290 23.3722
-31.2652 7.9142 -19.8446
-18.4786 -23.9371 22.7928
-3.9430 -37.1662 -6.0893
-22.0327 4.7503 30.4294
14.9364 27.3235 21.5472
-5.3231 36.8763 -6.7641
-26.9521 -25.9944 5.6417
0.1773 33.4889 17.6754
-20.4641 26.1249 -18.2392
-4.2547 36.1977 -10.2749
18.6523 14.2974 -29.6922
35.8563 11.6492 -3.5460
-13.5323 9.0792 -34.1818
-29.5825 -23.4475 3.0065
30.7749 -19.8817 -9.5697
11.1256 -18.1989 31.2885
-18.4407 -14.6754 29.6400
26.2199 -23.7535 -13.4996
17.2138 25.6980 -21.8461
33.1163 9.0523 -15.9788
23.8270 28.2506 8.2539
-20.2030 9.6252 30.5475
-2.1214 16.0073 -34.2523
-34.5151 4.3146 14.9681
19.0277 -14.1682 29.5154
-32.2763 -16.3555 -11.1666
20.3350 -31.9187 -1.2797
18.9715 6.9487 32.0274
33.5497 -10.9364 13.7393
19.3708 -18.6880 26.6361
1.2272 -23.7813 29.4431
-1.2189 32.3625 19.6249
17.0751 -31.1636 -13.0852
10.2114 2.6770 36.3664
35.2931 3.7194 13.2105
-0.0563 1.7321 37.8279
-7.8029 16.6063 -33.1255
-2.9113 -25.4488 -27.8897
29.1863 16.7990 17.3177
-20.7868 28.9617 -12.7703
-31.1635 21.4382 1.7877
6.8172 -27.6789 24.9270
23.2039 29.3582 5.7991
-36.2405 3.1265 -10.5265
32.9689 -8.5831 16.5329
26.5070 27.0369 -0.5816
-18.5221 23.1794 -23.5287
-3.0344 -37.2135 -6.3167
-1.4222 1.5480 37.8092
-14.1644 -5.9314 -34.6142
22.4783 1.4311 -30.4406
15.9882 34.2548 -2.2222
-5.7383 -26.3979 26.5363
3.4142 -13.0423 -35.3864
17.1864 -4.9817 33.3731
3.9365 -35.3356 13.0327
16.3748 28.4971 18.8078
-32.6780 -16.1083 10.3258
-11.5160 -18.2607 31.1108
33.0514 -17.3745 -6.2996
3.3073 -18.9990 32.5891
13.5477 3.9001 35.1454
8.0242 -32.2135 -18.2169
2.3790 16.3201 34.0874
-8.4730 28.0301 -24.0099
-9.4569 36.6675 0.1182
37.6399 -3.3569 -2.4334
14.6003 6.0354 -34.4145
-31.9664 1.0152 20.2749
36.4923 9.9085 2.0218
26.2049 -12.4070 24.3582
-6.1652 -28.1514 -24.5650
32.6482 12.1927 14.8116
-20.9600 31.2907 3.9396
-2.2399 -8.8513 -36.7504
0.8067 -35.8180 12.2626
-9.2824 -21.1859 -29.9825
0.0492 -8.6765 -36.8601
-33.9055 -8.1606 -14.7572
5.1614 34.9601 -13.6053
6.9545 1.3546 37.1988
3.1767 33.0187 -18.2655
-18.9143 -7.5470 -31.9256
-2.5038 29.4314 23.6955
14.4083 32.6383 -12.6925
-23.1437 3.5502 29.7610
8.5251 -17.6105 32.4214
-30.2021 -14.6911 -17.4916
-31.2561 -12.9762 16.9889
-29.4831 -11.1228 20.9997
-31.1216 9.6187 -19.3101
33.2177 11.8303 13.8050
23.9546 23.7415 17.2184
14.1902 3.2736 34.9553
-35.0377 -10.4671 9.8363
-21.2760 30.6827 -6.3131
11.4421 26.5475 -24.4594
36.4233 7.1056 7.5370
-3.6690 30.3572 22.3368
-28.7820 23.8439 6.0845
-14.8280 -27.1451 21.8455
35.1931 7.5161 11.7860
2.8738 -31.2634 -21.1729
-33.6508 16.4947 -5.4319
-29.8102 1.0157 -23.3296
-35.6573 -5.6853 11.4100
20.7344 3.6178 31.4794
-31.3464 5.5699 20.5020
-20.2232 30.2962 -10.3497
-5.8225 5.6394 -36.9898
1.0790 24.6488 28.7267
25.7113 11.3807 25.3646
0.6909 -7.1069 -37.1883
-5.6778 -19.6403 31.8744
26.9917 -17.5643 19.9223
-13.8335 33.8605 -9.8008
0.5495 30.3857 -22.5912
13.5810 12.2708 33.1502
13.3927 35.2886 3.0505
20.2063 31.9918 -1.4782
17.4634 32.4671 8.6527
-31.6246 -13.1923 16.1183
-29.8300 22.4150 -6.4568
14.0341 -23.9310 -25.7741
-26.0219 -23.0764 14.9763
9.8546 -1.0548 36.5476
-7.7259 9.4999 35.8332
-6.6058 20.3143 31.2673
-8.8179 -19.7472 31.0845
10.6083 32.0593 17.1353
11.4359 28.4468 22.2250
-31.9587 -11.8639 -16.4876
15.9190 -9.1112 -33.1289
-28.3590 23.2887 -9.3465
6.5200 23.1027 -29.2867
37.8525 -0.3574 1.0087
-0.3242 37.1793 7.1797
12.3475 -11.1372 34.0214
15.3974 -5.9700 -34.0768
-36.7588 -0.1441 9.0952
36.0701 3.0771 11.1099
31.8149 -18.0611 9.7755
32.2716 -16.2385 11.3494
15.9373 -21.1970 -27.0304
13.7534 -12.4551 33.0101
-34.3821 11.5858 10.8441
22.6413 -16.2926 -25.6101
-3.6456 -37.6699 -1.2804
-24.2065 -23.1269 -17.6958
-6.2844 -16.5669 -33.4664
-4.5829 -36.7428 -7.9320
21.9620 22.8654 -20.7075
33.8498 15.9559 -5.7924
28.9638 7.9041 -23.0776
-23.0629 -15.5414 -25.7006
-2.9443 13.4914 35.2600
-19.3849 15.9708 28.3392
-6.8413 -6.1776 36.7286
-2.2566 27.3055 26.1395
-11.5670 21.7156 -28.7853
-18.1307 7.0376 -32.4916
-20.3936 -29.0536 -13.1888
28.8337 2.5372 -24.4159
22.3284 -24.8969 17.7634
12.8179 33.2274 12.8684
1.7735 10.8997 -36.2216
33.0180 -14.5017 -11.5527
11.1008 -26.2967 -24.8839
21.8373 -28.5190 11.9897
7.9410 31.2682 19.8290
7.7459 12.2827 34.9727
-19.9189 14.9172 -28.5423
30.7021 -4.1310 21.7777
-21.8414 -19.6328 -23.9052
-3.2578 11.6656 35.8783
7.5901 -23.5780 -28.6430
-1.0746 34.3784 -15.8406
32.4769 19.2909 2.6580
32.0702 5.5142 19.3661
-29.7225 -7.1944 22.3331
-12.9458 35.4220 -3.4125
-17.4251 21.8804 25.5258
26.5429 20.3315 17.7781
-5.7065 -35.8908 -10.6414
35.0795 7.5581 12.0937
18.0080 -9.2056 -32.0144
30.0725 9.2014 21.0934
-34.6383 -3.1663 14.9706
-0.8951 -20.3381 31.9298
-14.4187 12.4856 32.7134
15.1457 -31.9237 -13.6176
2.5737 -17.5152 33.4746
-15.5741 6.3455 -33.9284
-16.7013 -8.9824 -32.7771
34.7969 -12.6801 -7.8960
19.1628 -10.7818 30.8301
27.2328 -23.6758 -11.4798
-8.9275 -36.6731 -3.0552
-19.6600 10.8872 30.4780
25.6439 6.4854 27.0977
30.4274 2.6169 22.3892
1.5698 35.7745 12.3155
-18.5672 20.0631 26.2047
5.9640 -32.9632 -17.6582
-27.8730 -8.6292 -24.1368
-17.2913 33.5897 -2.5878
-8.1846 18.5511 -31.9816
-28.7736 19.4122 -15.1394
21.3164 13.2386 28.3602
-31.3928 19.2510 8.8228
27.3364 1.9599 -26.1311
-17.3095 23.0882 -24.5208
37.8006 -2.2507 -0.0017
-25.4127 -18.6805 -20.9568
-7.4818 -0.6830 37.1148
-11.3682 -12.0149 34.0640
-6.7189 -36.4003 7.9894
30.0836 7.5260 21.7322
-7.1355 32.2877 18.4539
-1.5039 3.0204 -37.7170
-18.3750 -32.5640 -5.9916
-19.0913 -24.5445 21.6112
-9.7443 31.4078 -18.7764
10.7538 -36.1821 -3.0275
-16.5383 -33.8206 -4.0754
29.7650 23.4090 -0.1366
12.9972 23.8401 -26.3946
1.7052 35.0947 -14.1211
-4.0837 25.6320 -27.5731
-8.4576 1.2926 -36.8884
3.8070 37.0729 6.7126
27.6869 -12.6081 22.5483
23.6299 -27.7608 -10.2429
-9.4539 4.6828 -36.3682
-7.5499 25.5389 -26.9206
11.6302 -34.7141 -9.6760
-15.1402 -13.2107 -32.0968
-35.2479 -9.9787 -9.5898
-18.6605 -11.7707 30.7764
-14.8128 8.1512 -33.8835
-15.4694 -34.3764 -3.5936
-26.5910 16.9736 20.9468
7.1762 13.3821 -34.6897
-25.6701 25.3512 11.5029
11.5877 -24.6175 -26.3374
18.0063 -31.8941 9.6175
23.4726 -26.2777 13.8733
-23.1088 20.0391 22.3242
-15.7696 30.1321 16.6531
10.3325 -12.2445 -34.3113
0.3438 19.4652 32.4799
13.6102 -34.1723 -8.9984
12.7754 -7.0718 34.9390
34.0213 -14.1497 8.7345
-19.8434 -16.5242 -27.6974
29.1086 21.3195 -11.4944
-33.1601 14.8156 10.7173
33.8817 -4.6651 16.2549
12.8937 31.8580 -15.8988
19.1699 -27.4886 -17.6308
18.9596 23.5868 22.7628
-10.8061 -18.2646 -31.3622
11.2873 17.1318 -31.8285
-11.9685 21.6679 28.6567
35.4657 -8.7435 9.9843
20.4605 -7.1921 31.0418
-34.6291 -3.6020 14.8931
14.8452 0.1311 34.8361
-30.0607 -16.9738 15.5627
7.2570 -19.9444 -31.3610
-27.3424 0.5903 26.1916
-27.1000 -7.4718 -25.3715
5.4581 -3.1772 37.3372
0.8883 -33.5473 -17.5426
-37.5329 -4.5508 2.1272
16.2837 -30.5916 15.2627
-32.1073 5.7149 19.2461
-27.6289 -21.8650 13.8751
16.6530 30.6832 14.6687
-0.3518 37.8657 0.1281
4.2034 -6.5666 -37.0562
28.6641 -20.1609 14.3479
-22.9638 -14.6142 26.3256
21.4051 -7.7286 30.2662
-0.2678 -25.2845 28.1882
-1.3504 33.4338 17.7289
-21.5646 12.8048 28.3717
-0.6502 -24.9380 28.4891
7.0504 -26.7035 25.9069
-8.6982 -0.2886 36.8539
-36.7678 -9.0080 -0.9672
4.4910 -37.3792 4.0719
-16.7748 27.2384 20.2641
36.7530 5.0641 7.5847
-31.5178 18.8916 -9.1480
-23.4812 -16.5476 -24.6731
-13.8319 12.6230 32.9134
-7.2112 36.9549 4.0359
-4.9862 29.1039 23.7077
20.6465 31.3473 -5.0023
-9.7909 -35.4009 9.2123
-1.0366 34.1466 16.3368
2.8533 -32.8773 -18.5713
11.1594 35.2018 8.3817
-37.4459 -5.5954 0.6729
-23.9266 9.7307 -27.6909
-4.5511 36.8819 7.2777
0.4129 -4.3973 37.6091
6.1646 35.9609 -10.1372
-33.2067 -10.7390 14.6951
0.8988 -7.4017 37.1263
19.4752 -19.1271 -26.2455
18.1072 -24.7948 -22.1653
-12.3524 -31.5738 -16.8662
20.4288 -5.3547 -31.4316
3.4923 29.5542 -23.4159
1.5476 37.5149 4.9180
-5.6077 37.4359 -1.0301
31.9312 -15.9031 12.7059
20.6357 -20.9281 -23.8775
21.6669 30.2514 7.0252
-19.3040 -31.1198 9.6366
20.8345 11.1360 -29.5951
30.3320 21.6877 -6.6005
-1.2817 -12.3698 -35.7673
-29.9282 -14.5813 18.0455
1.5254 -13.6354 -35.2945
-31.0677 -15.7138 14.8940
-29.4303 23.7937 -1.2929
15.5762 29.4479 18.0043
33.0194 9.9078 -15.6687
1.4884 22.5868 30.3574
-7.2117 24.1985 -28.2202
32.9173 17.6543 6.2233
20.8121 -6.3921 30.9831
14.4881 2.0885 34.9240
-18.1515 -32.9516 -4.3205
-29.2719 21.4733 10.7706
-9.6119 32.9047 16.0887
22.0365 -21.7745 -21.7765
-33.1367 4.7997 -17.6882
23.1973 13.9679 26.4714
30.0327 16.4154 16.2026
-17.5744 -23.9833 23.4499
7.1972 -8.0819 -36.2882
16.6955 12.8580 31.4624
-3.0601 37.7030 1.7538
6.7790 18.1041 -32.5613
-37.7783 0.2223 2.5885
14.4004 30.9868 -16.3217
6.5573 30.3055 -21.7378
5.2947 -36.2731 -9.4963
-34.2442 9.2377 13.2648
-6.2042 13.3207 -34.9002
27.4058 -21.7178 14.5331
18.9462 6.8365 32.0664
8.6421 -3.0994 -36.7377
29.0570 -14.1746 19.7162
25.0799 27.0195 8.6545
-23.6117 5.2263 29.1398
-10.6354 -20.3350 -30.1219
-1.8933 16.1863 34.1815
-5.6155 -28.1477 24.7008
-33.1172 -18.3608 0.2934
7.0447 15.5247 33.8129
14.4857 23.9657 25.4904
25.9734 -23.3600 14.6167
8.1607 -31.6781 19.0750
-23.6095 1.2562 -29.5798
14.5934 2.0898 34.8801
-6.1484 -37.2769 2.5654
7.9487 23.0494 28.9741
6.7925 -26.0980 -26.5840
0.0713 25.0038 -28.4386
11.7069 -9.8732 34.6327
-18.5959 -25.3853 21.0649
-20.1065 -13.7633 28.9872
1.2122 -33.6130 17.3969
24.6771 -21.4060 -19.1514
1.7594 37.7027 -3.0602
6.4014 -28.4149 -24.1985
35.9114 -11.2091 4.3221
30.8422 -3.4070 -21.7050
-8.3798 -4.2065 36.6884
0.2778 -5.0811 37.5241
-22.2327 5.0079 -30.2420
-9.7560 -14.3662 33.6510
37.2335 -6.8652 -0.6970
32.9431 17.0275 -7.6661
26.6680 -3.2237 -26.6904
-13.6165 -7.7859 34.4663
11.1658 -18.0877 31.3387
-22.1957 18.5952 24.4034
25.6910 26.2046 -9.3404
12.1311 16.1119 32.0499
22.5963 23.8087 -18.8814
32.4354 7.7981 -17.9189
8.7222 -29.6590 -21.8682
-37.3563 5.1008 3.5273
34.1285 -2.0276 -16.2815
-11.0363 -22.7614 -28.1793
-16.9477 -15.6971 30.0055
-2.7601 -33.2436 -17.9221
14.2552 13.9630 -32.1835
21.9742 24.8819 -18.2203
-29.0107 -24.1559 -2.9715
17.6638 22.5746 -24.7453
31.8800 -15.2224 13.6345
-7.6909 -35.2502 11.4989
-23.6179 26.2658 -13.6475
-5.9742 22.3257 29.9971
-36.2995 -6.9597 8.2378
27.2694 -20.8314 16.0119
22.1814 28.2171 -12.0721
-16.0318 -27.4111 -20.6293
9.0786 17.7434 32.1979
-31.5954 -14.8919 -14.6258
-14.7599 5.5828 34.4228
-35.9282 -5.0929 -10.8251
-23.1458 -8.1125 -28.8515
-1.1541 -37.7696 -2.4648
-9.3226 35.5358 9.1789
21.2125 -9.6447 -29.8490
-8.2740 25.0711 27.1465
-8.7132 -0.4893 36.8483
22.5658 29.6057 -6.9459
33.1018 10.5546 15.0607
30.1117 21.6828 7.5560
12.2869 1.2902 35.7955
-21.9037 21.7124 -21.9717
30.2129 1.8424 22.7539
25.3224 27.7107 -4.9845
-7.8304 24.9635 -27.3763
34.8831 -13.9475 4.7529
-12.5107 17.6003 31.1073
4.2872 -36.1015 10.5951
17.4526 -32.7017 -7.7433
32.9894 -16.1031 -9.2920
15.7469 1.3078 34.4133
19.2917 19.8702 25.8255
-0.9553 -35.4395 -13.3073
-31.2090 -5.6925 -20.6772
26.0543 -18.0400 20.7289
-0.5107 -29.3045 23.9779
8.9559 -0.8221 36.7841
6.6363 32.1534 18.8698
-32.7403 13.1321 13.7687
14.1838 5.7573 -34.6356
32.7595 12.5693 -14.2400
-11.8117 -26.5685 24.2600
7.4016 7.5512 -36.3614
26.1014 -18.1734 -20.5522
31.4450 -14.5752 15.2556
14.1585 -34.6598 5.6734
21.9400 30.5651 4.2850
-14.4815 34.1042 -7.8196
23.7654 29.4138 1.9970
-25.2451 -23.4983 -15.6354
-18.1817 -14.9123 -29.6817
29.4555 -14.2824 19.0353
33.3742 -17.0275 5.4935
-34.8041 -10.3581 -10.7395
-5.8572 36.7710 -6.8950
11.7488 -6.6382 35.3815
-26.6070 -7.3705 -25.9171
-20.6612 30.2124 9.7097
-32.6141 17.5769 7.8310
-26.6248 -26.9272 0.0176
-11.6761 -4.3167 -35.7629
5.8023 -25.1955 -27.6672
-10.6667 -6.9151 -35.6701
-21.4324 -30.9283 4.2485
-22.9368 5.7253 29.5817
25.2110 -19.9550 20.0039
-15.2361 -16.2986 -30.5969
-1.1334 -2.3314 37.7787
11.6114 31.3220 -17.8343
-12.1725 -23.9611 -26.6768
-29.4432 -21.2532 -10.7403
-4.0162 -7.1320 -36.9724
-35.4890 12.3297 4.7399
14.1243 -34.9200 3.8793
-14.9164 -34.7926 0.9647
22.0299 21.9252 21.6315
28.9130 20.3373 13.5788
25.4870 -18.1696 21.3127
10.0816 15.4763 -33.0575
-0.1749 -4.9116 -37.5473
17.9357 -3.2522 -33.1917
3.0893 37.4050 -5.0273
14.4490 -34.9330 -2.2047
-27.4931 -25.8673 -2.9949
5.9412 34.0422 15.4849
7.9469 36.9681 2.0390
14.4189 -24.5263 -24.9902
-17.6875 12.3283 -31.1307
18.2850 -29.1729 -15.7656
-4.6506 -13.2396 35.1716
27.9252 25.5500 1.1533
-9.0274 27.3331 24.6041
-5.2741 30.1436 22.3047
-14.1524 -10.7184 33.4482
0.9332 -31.6765 20.7287
12.1160 12.2729 -33.7125
-15.7979 -0.8573 34.4041
25.2081 18.8559 -21.0466
-12.6298 11.5294 -33.7863
-28.4554 24.9816 -0.4026
-20.2565 24.7332 20.2953
28.3422 18.0906 17.4185
-32.1199 1.4993 -20.0005
14.4282 -8.5768 -33.9443
28.7232 1.7890 24.6116
-25.1570 10.3238 26.3533
19.5786 31.4505 -7.8420
6.7479 -19.0420 -32.0284
-36.1074 -5.7240 9.8714
-14.9491 -33.1562 10.5424
-26.4710 11.2256 24.6419
-10.7553 -1.3354 36.2835
-1.4414 12.1472 35.8374
-3.3575 37.7119 0.7000
36.5984 -9.6325 -1.3127
-7.8745 32.0978 18.4845
-15.8078 -7.9687 33.4749
7.1539 8.9027 -36.1042
-34.3156 7.1161 14.3442
-31.0492 19.3806 -9.7103
26.6810 26.8650 0.5897
15.4337 8.2091 -33.5911
14.2613 33.6687 -9.8481
-13.1760 -17.5780 -30.8441
-11.9462 11.5659 34.0216
14.6063 34.6267 -4.6480
14.1002 -26.0231 -23.6206
16.6811 31.0798 -13.7745
36.4072 6.6850 -7.9861
22.2802 -7.5657 -29.6700
17.0976 27.0415 20.2580
9.1665 -23.9448 27.8671
21.0290 -6.4624 30.8216
-19.3689 29.5480 -13.6277
34.6737 -11.4046 -10.0807
-4.4239 35.4924 -12.4367
-32.6983 12.7207 14.2463
8.7634 -21.0487 -30.2342
36.1244 1.2318 -11.2901
35.3415 -12.8903 4.3327
19.5184 0.7345 -32.4414
-8.7295 -25.4832 -26.6150
-25.1589 27.6005 6.2604
32.5896 -18.6314 -4.9746
10.7093 27.5242 23.6998
-27.9047 9.8313 23.6353
-21.0038 29.6002 10.7990
-16.6659 -17.2978 29.2744
22.0963 -9.6867 -29.1868
-32.6658 -14.6929 12.2889
-15.4888 -22.0015 -26.6455
6.0504 22.1924 -30.0806
-27.5747 0.8685 -25.9390
0.5744 -16.1201 34.2603
0.7846 30.0178 23.0710
-15.6179 -27.8226 20.3945
26.9914 14.9599 21.9458
3.9626 -36.1378 -10.5975
-0.8680 4.6086 -37.5761
-11.5869 27.2375 -23.6181
34.6581 0.3605 -15.2524
19.1873 -22.8616 -23.3055
-13.2207 31.3913 16.5455
-17.7724 -24.7824 -22.4483
34.9790 10.3975 10.1151
-16.9930 -16.8524 29.3460
-36.7620 -6.9897 5.8009
26.2671 25.4074 -9.9223
-2.9415 13.9167 -35.0945
26.3984 27.0251 -2.5930
-10.5813 -2.0257 -36.3027
13.5766 -33.6800 10.7373
-20.6445 30.9478 -7.0706
24.8948 27.8465 6.2270
12.2690 22.7914 -27.6402
19.8838 -25.8471 -19.2487
-31.1893 21.1603 3.6642
-13.2794 -22.4615 -27.4425
15.7655 -29.1994 -18.2427
-23.6750 23.9076 17.3746
28.7216 -7.6774 23.4538
11.1027 -9.5323 34.9259
36.6926 0.7042 -9.3334
-24.2883 -27.1647 10.3009
37.7347 -0.7733 3.0740
3.2353 -12.8092 -35.4882
17.6930 33.3064 3.4048
37.5890 3.2970 -3.1854
-34.7181 -15.1056 -0.6533
32.9185 15.5773 10.3766
18.2889 -1.6129 33.1190
33.6803 -2.7607 17.0870
31.9280 16.1414 12.4101
32.6259 -13.3324 -13.8473
3.3521 -3.7199 37.5350
37.7447 0.2571 3.0376
-33.1148 12.0028 -13.9032
-36.8641 8.4181 -2.0316
-0.7506 -20.4562 -31.8581
11.5566 -11.6690 34.1208
15.7283 -6.3604 33.8544
-24.3206 10.2543 -27.1535
-2.9459 -5.5450 37.3434
-29.1187 9.2041 22.3906
14.4463 12.9581 -32.5168
-9.2135 -23.2773 -28.4118
1.3121 -36.1088 -11.3308
11.3550 -13.3431 -33.5705
18.7012 32.2992 -6.4015
-9.1188 -18.1892 31.9367
32.1068 -20.0739 0.3865
7.1870 6.8965 36.5341
-14.3008 -19.9742 28.8179
-28.5354 -21.8975 -11.8399
6.5413 27.0556 -25.6741
-24.6232 -19.3399 -21.2984
-18.9089 24.4231 21.9070
-28.1733 3.8244 -25.0119
5.1932 19.5885 -31.9886
35.9952 -3.3795 11.2640
34.2572 -6.2914 14.8600
1.2632 33.6398 17.3413
37.3417 -3.3937 5.2944
28.0597 14.5988 -20.8201
37.6927 2.6160 -2.5236
19.8052 -31.9490 -4.5789
6.7067 -15.2417 34.0098
-14.9392 31.5347 -14.7084
6.1635 -28.7692 -23.8390
24.2343 -17.8413 -22.9856
-35.5228 12.1361 -4.9796
22.2474 -17.5559 25.1157
-35.6212 -10.2912 -7.6924
17.8196 -18.4792 -27.8377
-13.1961 -18.0556 -30.5583
26.2049 -23.4012 -14.1295
-14.2846 3.2741 34.9168
-2.4199 28.4842 -24.8345
-23.9784 -5.6173 28.7652
8.6049 32.7186 -17.0118
25.2721 -17.0965 -22.4273
-28.3591 24.8766 -3.2964
-23.9403 10.6180 27.3510
32.0745 9.7791 17.5940
-17.7737 12.0796 -31.1791
35.9929 11.2409 3.4792
-0.6174 14.7878 34.8553
-28.8145 18.6252 16.0243
-18.6262 -19.6188 -26.4975
33.5466 17.4893 1.6455
-33.4902 16.0352 7.4318
-21.3773 29.9456 -8.9567
-1.9283 30.4486 22.4302
4.1141 37.3003 -5.0712
2.2188 -13.2918 -35.3887
-10.5046 36.3753 -0.6645
34.5394 -14.1281 6.4327
-1.1776 19.1811 -32.6290
-26.3486 -23.7192 13.3079
20.5680 -24.6577 -20.0726
21.4084 18.0791 25.4712
-34.5132 2.4310 15.3910
-13.2515 27.5268 -22.3746
-26.1485 -2.9617 -27.2294
-36.0406 -9.3946 6.8390
-22.6305 22.5522 -20.3277
-17.7710 -16.8327 -28.8930
32.1846 0.5170 -19.9458
16.6271 -32.0406 11.4409
-31.6230 -20.5167 3.6060
-13.6399 -32.7235 13.3071
33.8478 -9.9724 13.7416
37.7575 0.5696 -2.8282
21.0869 1.7895 31.4021
-28.1064 20.1815 -15.3847
-35.8041 12.2742 -1.1696
-24.0962 24.2267 -16.3216
27.9933 -25.3242 -3.0029
30.2655 22.0523 -5.6261
34.9788 -10.5218 9.9865
-34.6636 0.4018 15.2390
4.7561 17.1641 -33.4175
-28.0020 -15.7152 -20.0717
9.3943 9.8366 -35.3404
-15.0875 -19.0277 -29.0563
5.9811 -0.9962 -37.3790
-0.5228 -20.4890 -31.8415
-13.6887 22.8981 26.8747
-1.3162 8.6227 -36.8493
13.0986 -22.8425 27.2139
32.6260 4.0442 18.7920
-12.1533 -8.5664 34.8262
