ply
format ascii 1.0
element vertex 1024
property float x
property float y
property float z
end_header
25.6038 -20.6435 17.3222
23.9563 -5.3927 -27.9067
25.5606 18.2259 19.9057
23.4506 18.1677 22.4002
-33.1272 -14.4201 8.7415
-24.7117 19.0027 -20.2483
-11.8525 33.9076 -9.5684
19.0916 -23.7967 -21.2366
-31.4794 0.1311 19.7686
20.0491 31.2164 2.3096
-16.7403 -12.0871 -30.9100
3.1103 -26.5312 25.8493
-31.7580 19.2986 -0.8703
12.7442 -31.7216 14.5976
-29.7899 -21.3004 6.3733
-28.5455 11.0349 21.0986
-5.5360 36.5073 4.2823
29.9715 -7.3485 -20.7238
-6.5727 33.1837 -15.4079
-36.2894 -0.6662 -8.0251
-32.1927 16.9942 -7.5230
18.9347 -31.9840 0.5141
-16.8139 -22.2447 -24.5811
-14.0661 -34.1565 -4.1522
27.6755 -6.4462 -23.9642
-13.1510 -6.6269 -34.1306
31.2043 17.7671 -9.6120
-29.2372 4.7954 22.4490
-10.4331 18.6246 30.4309
-5.7389 -36.1224 -6.6336
15.8858 -15.0115 30.0677
-17.0000 -32.3616 6.7448
-21.4471 6.7249 29.6068
-11.5090 19.3169 -29.6001
11.4955 31.5322 -15.9793
-22.2690 -25.7999 -14.8398
10.9073 -2.4800 35.4492
4.7400 28.1542 -23.8041
-1.6645 19.0752 -31.8611
2.3272 3.8781 -36.8959
-16.9007 18.5690 27.4103
-12.4587 19.9273 28.8001
2.2741 36.0849 8.6300
-18.3748 19.2712 25.9375
-10.5303 17.4685 31.0762
20.4088 -17.5085 25.6652
-33.3678 -9.9339 13.0259
-25.1662 -27.3202 1.4269
16.1947 17.5650 28.4775
33.9558 3.4987 14.7150
-32.7075 17.4482 -2.7476
20.4329 -0.0718 -31.0525
-16.3765 -8.6083 32.2409
9.4280 11.7373 33.9869
-4.7897 -30.1810 -21.1643
-30.6114 -0.1256 -21.0878
-20.1592 -30.8580 4.8119
-1.3324 6.1551 -36.6347
16.4547 16.2871 29.0816
-13.1608 -27.9026 20.7366
35.5714 -10.1491 -3.6657
-16.5454 -33.2193 -2.1198
-34.5466 -13.3534 -3.1598
27.5884 -12.1514 -21.7483
23.3634 -26.3327 -11.9376
10.3359 -33.3325 12.8015
-2.5139 -36.9497 3.1878
-4.7202 36.6692 3.8543
-22.4915 15.0541 25.4808
9.8493 27.6657 22.7896
13.6416 -30.7082 -15.8958
11.1590 34.2165 9.2992
-22.6788 -14.7715 -25.4802
-14.4044 5.3576 33.8463
-36.5427 1.3991 6.6664
-32.6658 -17.7400 -0.0244
3.0790 36.3604 7.0858
16.3134 -23.2191 24.0106
-29.3642 -8.6186 -21.1005
30.5393 18.5900 10.1748
-27.4233 14.5904 20.4169
14.5617 15.1078 30.6835
-5.0457 36.4633 -5.1702
-22.0740 -11.4259 -27.6397
-19.4736 18.4372 -25.7413
36.0707 -3.7314 -8.1697
28.3005 -17.1455 16.9375
25.5738 -22.6532 14.6484
-7.9830 26.1674 -25.1655
-31.3524 14.5304 -13.6989
3.8768 36.4335 6.2716
6.3732 -13.2813 34.1285
22.5885 16.1855 -24.6892
31.4352 16.7790 -10.5860
-17.2304 -31.8051 8.5622
33.1749 11.1618 -12.5142
-18.0344 -31.1619 -9.2446
9.1668 -24.2458 26.6435
-8.3729 14.0137 33.3957
-29.2094 -11.8484 19.7026
-32.1235 18.3216 -3.7636
27.0094 -22.7771 -11.5525
-25.6754 -23.8079 12.4790
-17.8904 32.5755 -0.7353
-3.8149 -30.8335 20.4085
-3.0330 -36.8783 3.5434
-20.9365 0.7769 30.7054
-16.8430 27.8483 -17.9596
15.1001 25.6859 -22.2258
-16.6047 -11.4779 -31.2139
-35.2910 -10.0073 6.0136
-13.1201 -33.2481 10.2074
-21.7279 -16.8984 24.9821
18.1691 -9.9049 30.8794
27.7336 -24.7503 -0.1877
-24.4327 -7.1091 -27.0974
-32.0610 12.9330 13.6600
6.5527 -29.5807 21.5362
-27.3389 13.2594 21.4135
25.5340 -23.0738 -14.0492
35.4616 3.0442 10.7226
-5.8405 -14.0824 33.9019
29.2594 5.8819 22.1598
-28.1902 8.3675 -22.7390
-0.6696 18.2787 32.3606
2.6793 -35.7315 9.8918
25.1276 0.1893 27.3922
0.0240 16.0897 -33.5095
20.1887 29.8096 -9.2502
7.0905 -17.1549 32.2056
-1.7094 34.3814 -14.0272
18.2874 20.6740 -24.8982
-29.5711 -22.3085 -3.1058
2.8313 30.6455 -20.8472
-32.9760 5.1823 16.3552
21.5771 -23.4037 19.1953
-19.0112 -30.9727 -7.8125
34.0905 -1.2957 14.7624
20.2708 -10.7062 29.2616
-25.1267 9.2676 -25.7785
-23.5039 0.8615 -28.7852
8.2349 -18.7046 -31.0498
-8.3901 -11.3765 -34.3794
-25.6006 -26.6128 4.2588
34.8718 3.1616 -12.4790
17.2336 1.3081 -32.9098
-10.3104 26.3971 -24.0553
-16.5314 -31.9164 -9.4774
16.3391 -24.6670 -22.5019
27.3923 -25.0633 -1.8055
32.7557 -4.5653 16.9702
-23.2340 3.3782 28.8190
4.2069 -36.2839 6.8952
-26.9777 -0.5406 25.5671
21.6717 -23.2164 19.3158
-36.9712 3.6576 1.2328
15.1268 1.4771 33.9229
-25.2613 21.8696 16.2897
8.6782 -9.0285 -34.9991
18.6718 -31.8588 -4.2595
15.7984 -9.8374 32.1776
-3.6366 2.5059 36.9088
3.8237 -20.1132 -31.0259
-24.5321 21.7125 17.5645
-28.9614 0.5354 23.2963
-6.4870 27.2658 -24.4184
-30.2753 -15.0999 15.4001
32.4689 18.0456 -1.3773
26.1163 21.6661 15.1752
13.6094 15.0019 31.1688
13.7792 6.8964 -33.8281
25.0996 25.3904 10.3490
-7.4201 -15.8357 32.8015
-30.3512 0.2212 21.4598
-11.2479 30.8957 -17.3409
28.1263 24.0626 -3.4158
4.1784 -32.9371 -16.7169
4.3151 36.8308 -2.5758
31.8042 -2.0095 -19.1370
27.7597 16.5674 -18.3490
12.5990 25.1844 -24.2648
-20.6048 23.4509 20.1807
-8.9396 -36.0467 -1.5765
-28.8505 -2.2247 -23.3338
19.9011 31.3763 1.1141
35.9289 -2.0772 -9.3040
-3.9671 11.3455 -35.1754
-14.4396 -34.0601 -3.6290
28.0001 4.4859 -24.0340
-27.4460 2.9833 -24.8914
-31.6748 -12.0857 15.2450
2.2334 36.5245 -6.5372
-25.7195 -20.8906 -16.8480
32.2743 -18.4029 1.2109
21.6453 -15.4706 25.9598
28.8466 -19.0664 -13.6423
13.8896 34.1455 4.7884
18.9232 -5.3126 31.5508
-17.7711 32.6451 0.4974
13.8578 -8.6107 33.4004
32.5011 -2.0316 17.9253
29.6710 -18.5959 -12.4735
-23.6846 -28.6360 -0.8844
-35.7323 -7.2067 -7.2821
-8.7196 27.4755 23.4698
12.4215 34.6514 -5.1720
7.3124 34.5210 11.6875
-6.8775 8.7785 -35.4599
-28.5974 -16.3300 17.2420
22.9029 5.9312 -28.6713
33.8036 13.1693 -8.1025
-35.2895 -5.7470 -10.1682
-19.4946 25.4765 -18.7795
1.3584 1.7596 -37.1056
-37.0103 -1.2245 3.2411
-31.4987 -9.4214 -17.3445
-31.9140 -17.3985 -7.7815
-19.4677 26.2388 -17.7284
-16.8072 11.7160 -31.0164
-30.3536 -16.1617 -14.1148
34.7864 -12.9874 -1.7321
-2.5871 -27.0635 -25.3503
-16.8591 31.6969 -9.6354
-6.1998 -1.2487 -36.6302
29.3836 10.4166 -20.2451
-21.4993 -25.7316 16.0446
23.1050 -22.2116 -18.8301
6.8163 -29.3241 -21.8036
22.9690 14.7436 -25.2352
-8.6379 -26.0152 -25.1070
24.1881 -27.3567 6.9505
12.2377 -32.1388 -14.1104
-21.6946 29.3744 6.9464
14.9658 31.7598 -12.2107
17.3752 17.0199 -28.1103
19.3941 31.7117 0.0431
-22.5981 27.9093 -9.6002
15.4900 -27.4354 -19.7262
-9.0979 -28.7898 -21.6828
6.6646 -31.2956 18.9192
-18.6691 4.1433 31.8757
22.3195 18.9098 -22.9353
-12.8422 6.9430 34.1854
-33.0328 15.0720 7.9644
-18.1733 31.6468 -7.0695
13.6481 -14.8005 31.2480
36.2178 -6.3903 5.4035
5.9349 -33.7553 -14.3917
2.3451 21.2423 30.4143
11.5304 -33.2682 -11.9181
11.1011 26.3981 23.6996
14.5942 24.9173 23.4074
35.4907 -2.8869 10.6697
-26.0801 12.7518 -23.2160
11.5831 -27.3731 -22.3229
18.2778 25.0794 -20.4624
31.8839 -11.1215 -15.5401
3.8072 28.4818 -23.5808
-33.7194 10.2188 11.8466
30.4048 12.9044 17.0526
28.7126 -2.2147 -23.5042
-12.0856 -33.8207 -9.5847
-6.4024 -33.0751 -15.7103
0.1613 36.8810 -4.6403
23.3338 28.4024 -5.5318
-25.1754 -4.7053 26.9412
4.0333 -16.6935 -32.9670
-13.7911 32.9273 -10.3617
21.2664 1.1097 30.4676
-0.8818 13.3538 34.6795
25.2095 -16.0568 22.1004
10.5791 35.6108 1.3127
27.0489 -25.0375 4.8214
-27.0830 -20.7236 -14.7922
30.8378 -16.0334 -13.1804
-36.7886 -3.2260 -4.2375
26.3110 26.1407 2.4819
-33.6188 -13.6066 -8.1486
28.3497 12.2247 -20.7031
-3.0386 34.6360 13.1485
-35.0099 7.6827 9.8512
-23.6161 26.4841 -11.0742
19.6814 -23.9217 -20.5466
12.1633 23.2882 -26.2960
18.3152 22.7306 -23.0139
1.1118 35.3057 -11.5773
23.5745 -28.7372 0.4263
-30.3986 20.3775 -6.5150
10.2394 19.5388 -29.9191
-33.0852 15.9539 -5.7102
-21.4863 27.1001 -13.6267
-18.6242 -30.2745 10.8792
-3.2458 31.2274 -19.9018
-2.7410 15.5549 33.6496
-32.3586 -12.5253 13.3344
7.2336 -35.3073 9.1014
-12.0684 -11.9052 33.0815
-16.1747 2.0525 33.4056
25.1948 -25.0229 -10.9927
16.7536 -7.6204 -32.2957
4.7125 -12.7438 34.5999
4.8671 -28.2143 23.7072
21.9062 -2.2116 -29.9499
-2.0959 36.8022 -4.7930
18.8812 -29.5978 -12.2163
-11.6685 31.7649 -15.3818
-32.6580 17.6804 1.6201
30.0586 0.6964 -21.8578
2.4453 34.5579 -13.4737
-3.3985 31.2687 19.8112
-29.0203 12.1297 19.8106
16.6317 14.0281 30.1391
35.4265 7.2298 -8.6290
-2.7828 7.2409 36.3537
30.4118 -1.8822 -21.2919
-27.3756 10.8640 -22.6786
15.0388 28.3347 -18.7815
31.8506 11.7079 -15.1732
-9.2353 -1.3121 35.9827
26.1931 18.6232 -18.6778
-23.5885 25.8194 12.5978
9.5709 -29.3094 20.7635
-14.3463 33.9950 -4.5041
-15.3292 28.6669 -18.0274
-11.4714 16.2522 31.4013
10.3835 33.2106 13.0768
28.7381 -20.8853 -10.9405
31.9527 -18.8488 2.3484
19.4033 -11.2034 -29.6608
1.4541 14.1273 34.3522
27.6266 6.1034 -24.1098
8.8234 22.7841 28.0142
26.2582 -4.7570 -25.8775
-14.7088 -18.5518 -28.6574
-8.7950 -25.9177 -25.1533
4.8168 -18.9200 31.6322
-10.1591 6.7124 -35.1213
20.2006 -5.4133 -30.7310
-34.6897 6.4549 11.6929
7.4041 -36.1955 4.1026
-29.6097 -7.6120 21.1445
16.3805 -13.7752 30.3922
34.0835 -14.0216 4.8455
-18.5343 15.2171 -28.4022
5.5147 0.7356 36.7534
-31.3280 -6.3471 -18.9746
27.1015 9.6380 23.5453
-18.7969 14.7996 28.4502
8.5428 -33.5560 13.5195
25.8968 -11.6849 23.9705
34.7871 -13.0336 -1.3222
7.1025 -13.0618 34.0692
35.3673 2.3742 11.1930
-12.3064 -35.0494 1.3634
26.7124 15.5917 20.6182
19.6425 13.8591 28.3525
-2.3276 20.6394 30.8280
-11.4261 -16.4436 -31.3180
-31.5352 17.5219 8.9598
-32.8988 -12.6207 -11.8387
-18.5709 -27.4738 -16.7951
-19.9347 -17.1833 -26.2508
-5.3605 -31.2322 19.4314
33.8367 -7.7270 13.3091
-19.3008 -31.4107 -4.7555
12.2025 32.0725 14.2905
21.5482 22.5679 20.2023
24.0031 -17.2568 -22.5348
-6.9955 28.3800 22.9653
-24.7519 26.5745 7.9312
36.1449 5.8202 -6.4370
-36.0582 -7.3268 -5.2810
-34.4157 -13.4275 -4.1264
-31.0265 15.8480 -12.9600
34.5740 -13.3680 2.7750
2.6906 -5.9987 -36.5861
7.6434 24.3841 26.9956
-2.8869 23.4417 28.7040
28.0835 22.6129 -9.0409
-14.1095 -25.8105 22.7268
20.4685 -17.3509 25.7245
-17.7692 19.7560 -25.9946
-19.0771 16.0776 -27.5561
-28.6167 18.6747 14.6323
33.6741 -1.9561 15.6204
-22.9196 29.2335 1.3634
35.3157 -6.9899 -9.2578
17.3681 -32.8353 -1.3985
-27.2042 -25.2404 2.1494
-24.4755 -14.4732 -23.9424
-10.6399 -8.6524 -34.5499
-31.6653 -8.3638 17.5819
-37.0658 2.7945 0.2856
-16.6421 -14.3393 -29.9865
4.7519 -6.7147 36.2505
15.5094 24.2325 -23.5374
-28.0760 -16.6629 -17.7723
-12.8294 32.7956 -11.9004
-17.8164 -22.7393 23.3937
19.9321 27.9417 14.2737
-24.3153 -25.2480 -12.3723
27.1182 10.2350 -23.2726
4.6394 34.3798 13.3519
-18.3538 -31.9805 4.7060
-29.3749 -22.5864 -2.9561
30.7158 -10.8186 -17.9238
12.6793 -34.6878 -4.2143
-6.0057 -31.5954 -18.6394
-27.3130 2.2991 -25.1093
-20.0288 24.0189 -20.0924
-18.2733 31.0815 9.0441
35.7337 5.0196 8.9259
31.5243 5.1091 19.0231
-34.4537 -5.3427 -12.8904
20.2699 21.0525 -22.9715
-32.0085 8.1087 17.0725
-24.4061 15.4233 -23.4143
17.1975 32.1092 -7.4167
-0.8668 7.2356 -36.4508
-34.1734 -0.1742 -14.6257
-6.9478 -35.7612 7.3912
20.6095 16.2931 -26.2973
3.4477 -3.6452 -36.8319
29.2272 -2.7880 22.7983
-32.3617 -13.7951 -12.0074
-24.0817 -28.0665 -3.7560
-33.3310 -10.1112 -12.9837
28.1632 18.9267 15.1782
-21.9201 -10.6840 28.0558
-14.0193 -16.1790 30.3886
-36.2890 7.9405 -1.3505
-26.0592 -19.7230 17.7112
15.4845 -31.1473 13.1089
-34.3089 5.0865 13.3714
-31.2120 11.7606 -16.4093
-1.1993 -23.9471 -28.4054
14.2415 33.7738 -6.1865
-5.4637 -35.2140 10.5776
35.4090 11.1796 1.7267
27.6287 -16.7676 18.3648
-29.7445 20.1459 -9.5485
-10.5929 7.1585 34.9043
12.3199 34.1006 8.1935
-32.2849 -15.6275 9.7589
-22.7827 -28.4833 7.1703
-2.2522 31.6974 -19.2865
-13.2790 -12.8517 -32.2532
18.4569 27.9362 16.1454
-5.1177 19.0966 -31.4785
-19.6742 -15.2639 27.5990
-8.2239 35.9665 -4.5330
-23.3888 5.1993 -28.4200
-15.5375 -20.6189 26.7434
-2.2012 28.2813 -24.0227
35.3271 11.1103 3.2134
22.0846 -27.7576 -11.1154
0.9955 36.7114 -5.7484
-0.3898 -32.2674 -18.4506
-0.7932 -25.2082 27.3072
27.0518 -21.6347 -13.4873
-20.1897 23.8451 20.1384
-18.4611 -31.5228 6.8751
-7.2537 35.8079 6.8518
-17.8232 12.9427 29.9430
15.7259 -33.6389 1.6978
33.2069 -10.1934 -13.2350
-21.7973 -29.1719 7.4596
17.1980 17.8210 27.7202
-4.0850 -18.9265 -31.7311
15.0673 26.3198 -21.4944
17.8463 32.4742 2.9501
-21.0870 -11.5110 -28.3655
-31.3713 -19.9375 0.3201
23.8871 23.7408 -15.7336
-4.9047 7.5253 36.0705
16.5506 -17.8437 28.0971
-9.6070 -34.9375 8.2971
10.6249 2.9517 -35.4988
11.1309 34.4145 8.5739
-11.4247 -22.1255 27.5990
-9.4679 -34.7633 9.1455
3.3108 -5.7022 36.5826
2.4229 -21.4741 30.2450
33.5508 -11.9665 -10.6261
-26.5346 -15.8704 20.6352
-28.4796 23.6430 -3.4188
31.8034 -13.1900 -14.0120
30.3177 -16.3687 13.9525
-1.0914 20.0090 31.3084
-18.2886 1.7978 32.3120
19.3875 26.5376 17.3679
21.0077 -29.8161 -7.1723
33.4962 -14.2095 -7.6064
-0.7457 -33.0030 17.0884
30.3225 -7.4386 20.1736
-29.4732 -18.1259 13.5850
-14.8182 -22.9169 -25.2389
19.7044 18.9973 -25.1516
-11.7018 12.2039 -33.1043
-30.6544 0.7092 21.0136
7.4227 -35.7451 6.9970
-24.3373 -26.8114 -8.4032
-9.1821 -33.0705 14.2756
-34.0662 -5.2690 13.9102
-17.7431 -30.2356 12.3595
24.0323 -6.9260 27.4999
17.6554 21.7925 -24.3955
-20.6948 -25.9235 -16.7767
0.5541 -36.3696 -7.6622
-5.7091 33.9047 -14.1295
14.4200 -13.8825 -31.3226
-31.1918 -15.4480 13.0459
13.9421 0.6972 -34.4514
2.0425 -9.0664 -35.9916
-1.1819 -16.6966 33.1902
-32.8854 7.1037 -15.8066
-35.9842 -1.6326 -9.1781
9.2573 -34.1390 11.4279
-24.4681 21.2516 -18.2057
6.4796 36.4232 3.6233
-10.6864 34.7885 -7.5714
32.1131 2.5474 18.5479
33.7267 -15.5406 1.6630
31.1449 -7.2028 18.9705
-34.3621 6.8097 -12.4353
-25.0387 26.7082 6.4424
-1.4486 29.9580 -21.9587
-17.8870 11.3727 30.5366
0.5853 -35.0461 12.3772
-20.8207 28.1482 -12.4877
-29.3487 22.7666 1.4504
17.5571 3.4271 -32.5848
-14.3803 13.0954 31.6778
-3.8755 -35.8722 8.9404
-0.5259 19.9241 -31.3770
36.9495 -3.8205 1.3797
-23.1577 9.7791 -27.3835
0.1784 -29.1222 -23.1004
20.5823 -23.7901 19.8031
-2.8516 -36.9635 -2.7082
-3.4661 -15.6811 33.5239
-15.7778 -17.8111 -28.5586
24.9731 -2.9289 27.3776
-22.4523 -9.7491 27.9753
31.8432 2.2230 -19.0482
24.3587 22.6277 16.6255
-34.3865 -9.3262 -10.5997
-12.1603 35.0594 -2.1749
-30.4229 11.8823 -17.7489
15.5039 33.4812 -4.5174
3.2813 8.0069 -36.1509
-0.7769 -36.4978 -7.0051
-6.5960 -36.1987 5.2830
18.3732 27.0803 -17.6309
2.7385 36.0021 8.8383
-7.9826 6.5512 -35.7089
17.8890 -2.8209 -32.4621
27.9591 -6.1540 23.7104
-22.1053 28.7626 -8.1139
10.0541 0.3519 -35.7849
6.2967 -35.1788 10.2258
1.7227 -25.8783 -26.6291
-0.0501 36.4285 -7.3978
-25.5383 -7.2809 -26.0105
22.2616 29.6453 -2.7097
8.8232 31.6691 -17.3489
13.3763 -22.4201 -26.4609
-17.4621 17.2320 -27.9266
26.0286 -15.8817 21.2614
-6.8494 29.7915 -21.1499
-8.6876 18.9837 30.7556
-7.3324 33.1767 -15.0767
22.6654 -4.2055 -29.1610
31.3520 -10.7723 -16.8159
-34.4217 4.3872 -13.3290
14.2769 5.3088 -33.9080
-32.7265 8.4233 15.4851
-5.5825 14.1049 -33.9360
-16.6982 2.2333 -33.1353
22.5475 -6.6408 28.7971
27.5815 -3.2477 -24.7079
1.4889 0.6441 -37.1367
0.7661 36.6170 6.3539
9.5947 -0.1795 35.9120
12.8858 34.3572 -5.9418
26.6776 0.7045 -25.8762
23.6144 17.7450 22.5664
-15.4744 -12.3707 -31.4527
33.3424 13.8419 8.8574
19.8260 3.5359 -31.2441
-1.0173 -7.1110 -36.4714
23.8865 27.4612 7.5550
-5.1628 -13.2679 34.3376
25.1711 -27.1536 -3.2958
-13.7055 32.5602 11.5655
6.1240 -22.8098 -28.7050
15.9643 -26.0846 21.1306
23.5495 -28.7586 0.3627
-32.3145 17.7680 4.6726
28.2468 0.7180 24.1530
9.4097 -2.5898 -35.8680
14.0369 14.2230 -31.3439
-27.8708 21.6287 -11.7125
21.4335 0.1023 30.3704
19.2304 -23.5589 -21.3761
27.4004 25.1132 0.5579
7.2865 -33.2547 -14.9264
24.3291 -12.4919 25.1757
-16.8000 17.4206 -28.2143
-29.0382 4.1087 -22.8401
-2.6429 -29.4346 22.5473
-19.9129 -12.0082 29.0008
33.7066 -11.0159 11.1483
4.9774 -36.7058 3.1111
-32.2831 18.4249 -0.3027
-0.6089 25.0676 -27.4411
17.0467 13.3875 30.1985
-34.4766 -13.8420 1.2367
28.3662 -23.4203 -5.3492
-17.7953 -31.1351 -9.7828
-29.5473 1.5368 22.5024
8.3335 34.5613 10.8552
-25.4274 -27.0896 -1.1691
13.1197 18.4169 -29.5035
25.6279 -22.6944 14.4893
15.2233 28.6239 -18.1848
22.7417 -27.2509 -11.0440
8.7519 11.5353 34.2360
5.0352 32.0174 -18.2017
28.6685 -23.5563 2.2314
26.3092 -25.8717 4.5000
-23.5942 10.4501 -26.7558
4.4989 18.5575 31.8927
-10.4457 -23.2564 -27.0516
-18.0253 -14.6633 29.0145
-10.1693 -19.7857 29.7804
6.6224 18.1906 31.7334
36.5855 -6.2729 -1.9793
-24.3931 5.5044 27.5036
28.9221 21.5342 9.0309
-27.8701 23.6062 6.9114
-16.2002 -33.1422 4.5730
35.0774 -5.5505 10.9787
-11.8613 33.1769 -11.8479
30.4406 -21.1578 -2.7355
13.3940 28.6764 19.4944
-6.5898 16.5158 32.6431
36.4950 1.3480 6.9326
7.8720 -5.7724 -35.8675
-15.7705 -6.9509 -32.9354
-29.0128 15.9930 16.8597
-29.1153 -22.0911 6.7860
0.2769 36.9757 3.8058
23.3159 28.2537 -6.3140
-3.8724 -10.4896 -35.4505
-30.6404 3.5946 20.7367
-14.4123 -13.4490 -31.5147
14.8037 32.5643 10.1084
25.4277 26.0659 7.4676
25.8975 19.3338 -18.3655
-14.7573 1.9796 -34.0598
28.8098 11.5296 20.4654
-29.4737 -19.9889 -10.6539
-8.3467 26.0937 -25.1240
-28.0879 -8.2113 22.9218
34.6701 -8.0412 -10.7281
-7.9329 -36.3130 -0.4486
-12.2075 -25.0537 24.5978
-2.2387 -17.3560 32.7952
-6.6054 -29.7593 21.2725
6.4153 -17.4655 32.1802
31.9944 2.4500 18.7649
13.9311 -8.7162 -33.3424
32.2718 15.8176 -9.4921
-15.4180 -4.6391 -33.5042
-21.6443 -26.8707 13.8295
20.7842 -27.1552 14.5732
-16.5907 10.1760 -31.6696
22.2985 -9.9535 -28.0262
-25.2901 24.9520 -10.9351
-32.7155 -1.9579 17.5393
-20.2239 29.9948 -8.5482
17.3368 31.1731 -10.4612
9.7449 -18.0811 -30.9819
25.3039 8.4043 -25.9007
-28.8480 16.3930 16.7579
-15.2447 -31.8498 11.6170
-16.5438 7.3646 32.4628
12.7985 -28.6538 19.9229
-24.2306 -18.8887 -20.9252
-18.6598 -32.1368 -0.8948
-31.7285 -18.9160 4.1534
22.6272 -19.9689 21.7030
-12.3336 34.3140 -7.2249
-28.7706 4.7293 23.0576
25.5168 9.9379 -25.1375
-35.8151 7.1674 6.9048
-10.8968 11.4467 33.6452
26.0328 -20.8779 16.3760
-2.0791 -23.1234 29.0302
6.6560 35.7158 7.8640
-34.8431 -7.4573 -10.5881
16.1515 -0.8574 -33.4688
-34.5064 9.7749 -9.7739
-17.7869 -30.4325 -11.8006
-34.2139 -13.9218 -4.1662
13.0359 6.3257 -34.2318
-11.5474 6.1170 34.7995
-1.9711 -16.4311 -33.2851
-3.3703 35.1179 11.7107
10.1909 -0.5179 -35.7441
11.6347 -13.8748 32.4637
32.8127 -5.8590 -16.4549
14.9120 -6.2773 -33.4663
12.1609 -2.8702 -35.0091
-3.4652 -18.9480 31.7920
-25.6607 -25.1022 -9.6528
14.2825 18.4100 28.9628
-5.0806 18.9646 31.5642
-5.9246 -36.6969 0.0197
13.1359 33.8812 -7.8281
27.9989 21.6107 -11.4369
0.4535 19.4003 31.7047
-15.4825 -20.6851 26.7242
15.6313 -32.2504 9.8662
9.7095 28.6569 -21.5933
-24.2824 -6.1773 27.4586
36.7746 -5.2237 1.4529
20.2564 1.6219 -31.1257
-18.8336 32.0136 1.4799
11.6094 2.4416 -35.2282
6.1372 -12.3396 34.5230
10.2053 -5.4880 35.3200
-18.1521 -11.7678 30.2289
-29.2154 -19.4871 -12.1852
-0.7791 -24.1628 -28.2368
-35.1768 -0.7046 11.9941
-35.9287 -6.5471 -6.9302
2.3738 35.5907 -10.4609
36.2415 -3.1903 7.6249
-9.0185 8.6489 35.0090
9.5097 15.2559 32.5360
31.2587 -14.9235 13.4888
-16.7038 -32.5003 6.8175
-9.2152 -18.2933 31.0193
-4.8406 36.7968 2.0816
28.7446 -6.8569 22.5499
4.6809 14.9302 -33.7186
36.9189 -1.9868 -3.8484
-34.1613 -4.6944 -13.8829
1.5826 23.2565 28.9551
-12.8908 -22.4334 -26.6896
-35.6251 -7.7014 -7.3010
15.4167 -23.2349 24.5811
36.6946 -3.1668 -5.0246
-4.2348 -36.6850 4.2475
29.5998 14.4450 -17.2325
16.3145 13.8863 30.3771
21.0297 11.3231 28.4834
36.8295 -4.9662 0.8312
-8.2507 -10.5453 -34.6769
-18.8004 -2.5645 -31.9645
13.5237 -9.0694 -33.4159
-14.4501 -31.6569 -13.0691
33.3371 -11.6268 11.6284
-7.7446 -17.1305 32.0677
14.3330 34.0692 -3.9524
16.6848 14.6274 -29.8232
-10.1437 -30.3112 -18.9763
34.0516 -8.2602 12.4105
16.5025 31.4662 10.9229
30.8917 -18.0964 9.9993
-34.3374 -14.1128 -1.8813
10.8904 35.2239 4.7373
28.6788 1.8473 23.5771
22.8180 26.7441 -12.0772
-15.3105 28.8413 17.7633
-14.8898 -31.9703 11.7457
5.5514 -18.3980 31.8192
0.6467 -36.0610 -8.9974
21.2395 15.2346 26.4303
12.6715 33.3279 10.5096
-19.5795 -26.5646 -17.1093
-12.4575 34.5611 -5.6664
32.4711 14.0308 -11.4250
-4.3377 8.2960 35.9740
18.9131 -23.1234 -22.1217
-28.6973 -7.1765 -22.5106
30.3681 17.0669 -12.9717
-2.8590 36.5408 -6.1935
33.1953 -11.6382 12.0164
21.1156 -13.6583 27.3743
-17.0299 31.1841 -10.9224
31.4773 3.8950 -19.3849
-6.5834 24.2557 27.3877
-7.4515 -36.3154 -2.7266
-33.4608 -15.8897 -3.1074
19.0733 11.5009 -29.7608
-25.8479 -26.6950 -1.0137
2.9631 -34.8909 12.4743
-31.7291 9.9965 16.5862
-35.9187 8.5454 4.3116
2.4736 -36.7238 5.1974
-22.9049 -28.9885 -4.0986
-7.1790 -32.4770 -16.5974
18.3045 -3.8228 32.1263
23.6644 -27.2004 -9.0499
24.8855 -27.5994 0.8645
-33.0185 -13.5908 10.3359
-35.1157 -11.5086 -4.0258
-8.8057 32.9031 -14.8865
-22.1009 -7.2070 -29.0064
0.2417 34.0942 14.8085
-19.9283 28.2354 -13.6892
-35.3331 5.3106 10.2536
29.9653 21.7865 -3.0325
-19.9311 12.2965 28.8672
-36.8330 4.2997 -2.5701
-30.6584 -15.9152 13.7307
-23.8466 7.4788 -27.5167
-30.8206 -6.6354 19.6934
-16.7343 -6.0695 -32.6327
37.1556 0.1169 -1.0999
-0.1897 15.5541 33.7609
-22.6957 -17.7245 23.5056
-6.4693 -26.9175 24.8065
19.9376 -30.8200 -5.8641
33.3950 16.3101 -0.7220
27.5022 18.7858 16.5072
-17.8208 10.9906 -30.7147
-10.1397 -35.3109 5.6653
-28.0689 -24.2761 2.1389
-27.7795 13.3704 -20.7677
11.8160 -4.1654 34.9971
-32.0427 13.3605 -13.2863
21.5449 -20.3089 22.4751
-24.2260 -14.4586 24.2037
23.8112 -7.8490 -27.4442
-8.0751 1.9704 36.2309
-3.3425 -10.9404 35.3681
-8.1435 36.0768 3.7296
30.2116 -13.9401 16.5740
11.1364 12.1320 -33.3251
-27.7924 -2.3030 24.5774
-8.2892 -0.2326 36.2354
-29.1649 22.4373 5.2672
-34.6593 12.4630 5.0170
33.5873 12.9843 -9.2233
22.7086 13.2806 26.2623
27.8428 -14.7317 -19.7362
19.5745 28.0617 -14.5309
3.4126 36.3550 6.9594
-22.6889 -15.6732 -24.9265
8.0129 35.8793 5.4985
-2.9803 37.0427 0.8509
-26.2030 -25.1234 7.9989
-13.6383 31.5455 -14.1649
-3.2198 -31.1370 -20.0470
12.2242 -2.5726 35.0102
-3.3768 28.5149 -23.6064
4.2303 -28.0620 24.0082
23.9500 19.6972 -20.4983
-19.4532 -1.2466 31.6510
3.3669 17.5420 32.5992
3.1215 26.4766 25.9039
-12.6054 -33.6334 9.5743
-30.2231 20.1462 7.9032
-16.3237 -29.6783 15.3133
17.1694 32.5055 5.5113
-23.6387 -26.3821 11.2676
-19.9630 30.2406 8.2915
33.1238 10.2746 -13.3797
0.5802 -18.5126 32.2291
-3.1892 -27.5945 24.7010
23.1988 -16.2653 24.0629
7.9861 -15.7199 32.7242
-7.2310 32.0852 17.3211
-12.1875 -28.0832 -21.0847
32.4964 -2.0681 17.9297
-35.7637 -3.1871 -9.6211
-36.1270 -8.3792 -2.5287
6.6562 -33.0286 15.7025
-34.2717 -13.6474 -4.5785
-32.0151 -16.4746 9.2404
-12.4224 -32.1474 13.9281
-14.3784 -33.5560 -7.0016
25.7326 22.4162 14.7348
-24.3510 -26.9553 7.8870
-6.8785 17.8251 -31.8860
-5.0294 -31.3587 -19.3158
37.0574 2.6599 1.1983
13.0405 18.2788 29.6243
-28.7049 -14.5143 18.6314
16.4158 33.3430 -0.7304
-4.9666 11.6801 34.9381
-32.8801 1.6413 17.2619
20.7586 -26.4269 15.8892
-27.2334 -15.4144 -20.0625
6.2687 24.9980 -26.7874
-11.4943 1.0740 -35.3340
18.7799 21.8906 -23.4495
7.0675 -10.2837 -35.0152
30.8775 17.9894 10.2336
2.9019 -8.2680 -36.1246
24.4889 15.9739 22.9541
6.5043 -32.7315 16.3741
-21.7425 -7.1411 29.2922
-12.7765 -15.9389 31.0560
0.2867 26.9963 -25.5516
-15.7574 -26.0684 21.3051
-21.5659 22.5002 -20.2588
-35.1286 3.9750 -11.4869
-18.1567 -25.2270 20.3886
-15.8456 13.9266 -30.6061
-4.6707 35.9065 -8.4066
-17.7730 29.7107 13.5336
-26.7437 -23.0047 -11.7185
11.3712 3.5510 35.2115
-20.2449 -1.1208 -31.1553
-12.6198 5.1146 34.5883
20.2255 -24.3923 19.4348
2.6426 17.9758 -32.4292
-10.9241 -15.0508 32.1854
10.4070 35.3271 5.0457
33.7192 -14.1166 -6.7454
-8.9904 35.9267 3.1956
33.2953 -3.4914 -16.1554
-26.2234 -24.2872 10.2093
-36.2385 4.3885 -7.0198
15.0155 -32.2661 -10.7330
-12.9816 -19.9297 -28.5666
-35.7690 1.1788 10.0477
-13.8506 -21.4305 -27.0307
-15.1536 -33.9119 -1.4558
-21.1932 -9.5286 -29.0141
-29.3065 -17.8892 14.2433
13.9089 -7.3258 33.6844
0.5514 -4.8362 -36.8520
-33.0478 -16.8121 -2.6391
5.5822 -1.1757 -36.7318
15.5247 1.4159 33.7453
-13.7977 24.3005 -24.5128
-22.1504 21.5342 20.6737
34.9821 -3.9537 11.9326
6.6357 35.1240 10.1998
-30.2902 -16.9013 13.3647
22.0541 29.6082 4.3284
-36.3916 -7.5735 -0.2471
-6.0466 33.6033 -14.6976
36.5253 -3.7513 -5.7963
-22.1387 -5.8089 -29.2899
-14.1534 -9.2532 -33.1032
6.0188 33.9198 13.9638
-23.6644 -9.2235 27.1420
35.9217 6.4991 -7.0112
-15.6063 -31.7399 -11.4361
1.6796 -21.0277 30.6069
17.6804 25.0275 21.0426
-7.4013 16.8164 32.3140
-32.1163 13.3287 -13.1399
-3.3057 35.9781 8.7415
10.4319 13.8355 32.8865
19.0328 28.4558 14.4840
30.3242 -17.3650 12.6753
25.3396 12.2822 24.2656
31.8535 1.3706 -19.1114
7.0404 36.3587 3.2004
7.4957 16.2722 -32.5699
-23.5391 10.9191 26.6167
-15.1951 -33.8992 -1.3103
-16.1034 18.9244 -27.6462
31.4806 -7.3537 18.3482
17.6140 25.8763 -20.0481
27.6896 -11.6082 -21.9158
-29.8923 -1.1689 -22.0647
8.7377 -35.1267 -8.4578
-26.8732 2.6606 -25.5445
-33.2222 12.1765 -11.3923
34.4270 -1.3895 -13.9506
-34.4718 -13.6840 -2.4913
14.6462 -31.3433 -13.5960
23.8629 13.1881 -25.2666
-8.7776 34.3367 -11.2122
24.8942 14.4327 -23.5317
-14.6055 29.1591 17.8380
-19.2293 -24.3867 20.4277
32.7243 15.2755 -8.8061
1.9881 35.6273 -10.4168
-5.6216 1.7255 36.7040
15.3313 16.0975 -29.7924
28.3437 21.4022 -10.9702
18.0785 6.2316 31.8763
-28.3875 12.9379 20.2121
-3.9494 36.9087 1.9786
-25.6086 20.4735 -17.5157
-14.1828 10.6027 32.6833
14.3197 33.4548 -7.5821
20.9510 7.4241 29.7943
-23.0604 -28.5917 -5.7010
37.0921 -2.3305 -0.7126
10.6414 -20.9336 28.8151
30.4552 13.5867 16.4210
-27.7361 -16.2037 18.7061
-31.2177 -19.4629 -5.3308
-3.7742 19.5325 31.4007
-1.2750 -26.7031 25.8280
32.0105 -5.4972 18.0796
33.4925 -3.3780 -15.7673
21.2229 -2.7356 -30.3952
-12.0009 10.4810 -33.5841
20.0565 13.5769 -28.1987
27.0182 -20.3269 -15.4468
15.9277 -2.3678 33.5033
13.8793 21.7876 26.7289
26.7069 -20.0135 16.3697
-16.8390 -19.8896 -26.5070
1.2774 -37.0721 2.4063
18.5267 -29.2337 13.5616
32.9315 -14.4425 9.4180
25.3290 -14.3081 -23.1405
4.1661 -0.1544 -36.9376
-10.3366 34.1898 10.2944
-0.5610 28.0358 -24.4018
-2.4351 3.6301 -36.9142
