ply
format ascii 1.0
element vertex 1024
property float x
property float y
property float z
end_header
50.7278 -7.4658 9.3229
-31.9401 4.5847 -40.9241
-14.1991 -34.8016 36.0999
14.4524 -49.7259 -5.8677
34.9347 36.9659 -11.3602
-2.8980 34.0695 39.3299
50.1242 2.7451 13.9999
-15.1352 -16.5706 -47.0352
-1.3079 -5.1708 51.8413
-26.7330 -41.8567 15.7902
27.7985 -19.6069 -39.4814
-15.3510 -38.0778 -32.0999
27.3745 -40.4887 18.0905
-7.3967 -45.4593 -24.3867
1.2209 -49.0923 17.4479
36.4744 -37.0263 3.8258
18.8458 -40.0326 27.5354
-32.0603 14.7195 38.3594
40.4418 -22.6696 23.8017
28.7293 1.5032 43.4550
-4.7489 -39.5774 -33.5715
-44.4324 -27.0627 -3.0562
19.7443 39.3190 -27.9312
35.6520 37.2963 -7.3410
31.1685 -21.7224 35.6740
21.1642 -24.5546 40.8058
-40.1427 -18.3612 -27.7019
12.3356 -3.2673 -50.5285
-31.4956 -39.3643 13.2079
8.3126 6.2552 -51.0661
-7.9382 25.2540 -44.8908
-1.3799 -18.3885 48.7435
13.2790 43.5619 25.3376
45.7365 24.2014 6.1998
-12.8294 -31.0767 39.8198
-16.9874 8.0833 48.6010
25.9889 -43.0158 -13.7907
-42.4395 -26.4958 14.5889
39.2447 -3.9414 34.0630
-5.4674 41.8197 30.6136
-11.1189 4.5538 50.7110
12.6799 -2.2199 -50.5001
41.8646 -5.4118 -30.5620
26.8670 42.9409 -12.2561
29.9475 38.7237 -17.8772
39.0157 32.6192 11.3900
51.8518 -0.9920 5.1354
44.9559 0.2854 26.3600
-3.5695 -14.7417 49.8589
0.2904 46.3840 -23.7573
33.9958 36.0689 -16.1026
-7.4456 47.0720 21.0892
18.2236 40.6197 -27.0908
9.7221 1.8528 -51.1666
-28.2029 42.5307 10.5690
40.3563 -14.9280 29.4022
-16.4226 0.8669 49.4522
-23.6392 -45.7182 -8.1855
-41.8096 -12.5401 -28.4723
3.9084 26.1894 -44.8866
39.5782 32.9071 8.1644
21.5512 42.3407 -21.4191
-21.5450 -38.2608 28.0695
24.6947 -13.0223 -44.0064
9.1824 35.1504 -37.3644
-16.0317 -46.4112 -17.4629
44.9376 -26.3879 0.5031
27.7877 -38.2371 -21.9485
-16.6124 -24.3319 -42.9879
-51.5830 2.8272 -6.8676
-15.9916 8.4168 -48.8814
20.1153 -18.3879 44.4210
43.7122 27.7110 6.1085
19.2660 12.6507 -46.7413
21.4601 37.0984 29.6504
48.8228 -12.1829 13.5604
30.1320 33.6613 25.9797
-40.5433 16.2045 -28.4540
-10.9649 50.2021 8.6883
3.3017 23.4112 -46.4433
18.4855 37.1677 -31.5090
34.7953 -4.7559 -38.5051
13.9012 -47.9960 14.8022
15.7645 -31.5303 -38.3834
-18.6894 10.8410 -47.4252
22.1258 -46.7496 -6.3943
-20.2665 -13.3455 -46.1209
-1.0167 -0.8322 52.0984
32.0897 41.0624 0.3243
29.2356 -38.8453 -18.7694
14.8659 -39.0229 31.1799
48.2260 -11.7620 -15.8706
2.8767 39.0225 -34.4229
-13.3003 -36.5548 -34.6817
38.5666 -32.5770 12.9355
41.3825 -13.6552 28.5831
26.5551 20.5014 -39.8809
14.2809 47.9191 14.6896
-27.0366 39.1197 21.3222
42.6072 -27.8305 11.2275
4.4408 -47.6194 20.7036
-31.1979 -41.0971 7.3273
-42.6301 -29.8762 2.4598
15.6690 24.4100 43.2967
25.9262 8.4728 44.4074
1.2361 -1.2126 52.0862
28.7549 -3.0608 43.3562
39.2046 23.5098 -25.0251
37.8819 -10.1602 34.3177
47.5156 19.8322 8.0574
-13.6797 34.4327 36.6500
41.7807 -18.4372 -25.1080
2.6084 -5.7345 -51.7328
-21.3345 38.8548 27.4064
18.9690 -48.5386 0.3843
47.5010 0.6634 21.4286
5.6965 51.7944 -0.9262
-31.2488 37.2416 -18.7762
-16.0583 36.5856 -33.4603
14.3338 -47.0076 17.3433
-10.0346 -43.9297 26.1812
-39.3654 33.2556 -7.7715
-47.1956 -5.6329 21.3731
3.2216 32.0486 40.9692
45.4910 -23.5280 -9.6423
-49.7111 1.7067 15.5520
-50.2185 -6.7932 12.1622
-1.2655 4.2498 -51.9260
22.6475 -8.8502 46.0948
-51.8377 4.2378 -3.2955
49.7716 15.4367 0.6852
-7.2816 -45.7170 23.9354
-26.8052 41.0630 -17.6432
7.6404 17.3822 48.5330
46.2946 22.4265 -8.3566
-44.4618 -12.1487 -24.3214
-27.1744 -8.2630 43.6949
31.1695 8.6368 -40.8637
-37.3427 6.2665 -35.8082
50.4283 -0.9667 -13.1155
-6.1221 -27.2749 43.9837
-26.2208 10.1262 -43.8851
28.9069 -42.5494 8.3611
-2.3105 20.0357 48.0542
-34.9281 -25.8138 28.8036
-32.2092 -34.2562 -22.4733
5.9099 -46.0900 -23.5956
-14.6679 40.5657 29.2445
20.5439 20.0523 43.4951
12.8539 -27.6373 42.2720
-37.5441 16.8027 -32.0013
14.5133 3.7694 49.9112
14.1733 20.1610 -45.9197
42.5870 23.8407 -18.2739
41.6497 -31.0918 -3.8172
25.0030 45.1820 7.0293
20.0349 -44.7212 17.7365
11.5682 -11.2187 -49.5609
14.2790 -43.6149 -24.6946
-20.3756 25.7313 -40.4809
35.2527 -26.1377 -28.1076
1.2136 47.6783 -21.0066
49.2316 3.7353 16.6812
-48.1296 -8.4943 -18.0930
-43.4089 -4.1194 28.5423
-29.3246 42.7465 5.3639
49.3213 9.9041 -13.6122
34.1974 -38.9534 5.3978
-1.9936 13.3751 50.3299
-45.4568 -22.6043 -11.7770
44.3032 -1.8244 -27.3837
-8.4356 35.9028 -36.8212
-23.8301 -42.2872 18.9707
-14.2154 46.1785 19.5303
-2.4439 44.8399 -26.4458
-0.1937 36.6748 -37.0255
-32.4483 -20.3255 35.3546
22.9863 45.2306 11.9076
1.4726 -49.0114 -17.6546
13.7054 41.9466 -27.7239
-7.9282 13.3335 49.7527
-5.6927 -45.1790 25.3459
37.8149 19.1625 -30.3117
30.1867 -40.6342 12.3935
-28.4131 37.3101 22.7294
-13.6635 -22.7083 -44.8733
-26.8351 10.2427 -43.4849
14.2762 34.0074 -36.8193
46.9990 -11.4023 19.4177
11.6294 -42.4323 27.9325
-9.0029 -10.6796 -50.2082
33.0271 -39.6771 7.1347
47.6621 20.5203 4.8175
-18.9998 46.5895 13.5790
-25.8086 9.8454 44.1922
-21.4500 -33.8630 33.3041
-44.3107 1.9919 27.3599
21.1207 39.2068 27.0687
48.6573 11.4078 14.7748
-16.6298 -31.6927 37.8813
25.5030 44.1731 -10.6913
-17.6669 4.8505 48.7885
-20.9866 -5.8292 47.3450
-44.5024 10.4397 25.0303
-32.3722 -38.6887 13.0842
-34.7247 -8.7864 37.8545
10.7569 -42.9220 -27.5310
2.0872 -46.7170 23.0030
51.9585 -0.7045 3.9733
-40.7426 -27.1283 17.8902
-37.8779 22.1280 -28.1351
46.4435 -18.1782 -15.1169
-23.3500 -42.7624 -18.4966
6.2004 51.7392 -0.7641
-44.4426 3.8017 26.9513
1.4540 42.9848 29.4306
-46.6146 -10.6463 -20.7294
50.5110 9.0558 9.0883
17.2892 22.7811 -43.5669
-5.6116 -16.3842 49.1532
1.9247 11.0126 50.9017
-42.1497 27.2378 14.0524
9.9357 8.1242 50.5099
37.0047 19.6382 -30.9994
27.3306 37.3275 23.9930
5.7513 51.3300 -6.9370
-42.9542 25.7503 -14.4164
19.9343 46.7386 -11.5799
44.0706 10.6108 25.7131
42.2002 19.4094 -23.6303
20.5954 -15.8922 45.1579
-29.5946 -38.5054 18.9066
-17.1784 -22.1410 -43.9392
-13.3712 9.4236 49.4811
-41.5499 10.6920 -29.5848
16.8896 -49.1820 -3.4411
39.5473 -2.6787 -33.8349
-19.8096 -12.7467 -46.4873
45.3254 25.1346 5.4620
-51.6275 7.0848 -0.6157
-12.8186 -44.4541 23.9893
41.0094 21.6966 -23.7372
-17.3850 46.4711 15.9425
-32.3817 -36.5313 18.2444
19.5337 -20.2533 -43.8658
9.1914 -50.8426 6.8206
-34.4993 15.3901 -35.9014
-37.8397 -17.3601 -31.3489
-25.7358 13.5602 43.2407
11.7802 29.4779 41.3310
-31.2072 32.0964 -26.6815
-5.3921 -9.2342 51.0061
40.1184 33.1921 -2.1822
-40.3557 25.0905 -21.3976
-14.5376 16.2267 47.3426
-16.8101 4.5990 -49.1145
-22.4973 45.6712 11.1349
28.5580 -41.5532 -13.1809
3.2305 12.1095 -50.5855
-40.8694 32.3250 0.8680
-14.2965 -49.9812 -3.6682
-11.3336 32.3494 -39.2560
-41.5572 17.6551 -26.0243
-37.2410 29.9965 -20.7192
-26.1553 -28.7309 -34.7334
-46.6388 22.7697 -4.7253
-27.4905 -6.9990 43.7179
39.0894 11.1160 32.6254
26.5584 -36.3136 26.3049
51.6056 4.6171 5.6132
-23.0591 -42.6071 19.2064
-20.0600 -30.9024 36.8593
39.5528 21.1008 -26.5764
30.4028 23.6199 -35.1247
-2.6425 40.4110 32.8014
51.3227 8.3506 -3.4949
-9.6185 -35.5829 36.8417
46.1631 -14.0385 19.6940
33.0563 1.1946 -40.2718
-14.2497 39.0707 -31.4069
46.4208 -17.5302 15.9303
-26.8162 -39.0399 -21.7426
40.6745 4.6692 32.2452
0.1710 40.5183 32.7751
-22.8253 35.7318 -30.3020
30.5865 6.2989 41.7224
-11.5638 47.3348 18.4840
17.5658 -47.9099 -10.5857
-44.2224 -2.3947 -27.4702
-16.7445 -42.5961 24.9232
-44.9818 21.7200 -14.8609
-31.6977 -18.3335 37.0824
-4.3634 29.4855 -42.7497
2.6062 51.7431 -5.6417
42.6636 -27.7981 11.0928
-49.2689 10.9589 -12.9788
-14.8485 -44.8023 -22.0964
-9.1806 10.7167 50.1681
15.7195 -16.5068 -46.8656
-28.8856 -31.8203 29.4798
22.7578 27.6677 37.8491
-25.7911 -44.5748 7.9924
-1.2677 -51.3521 8.7935
46.2745 -23.3945 -5.2284
-40.7442 -30.5695 11.0174
-10.5047 -47.5544 18.5525
-41.7417 -3.2954 -31.0281
-12.3285 48.7261 13.7746
-36.7198 -29.5825 22.1923
32.1923 38.8396 13.0806
47.3321 -12.2048 18.0744
32.9212 -25.5793 -31.2708
-32.8018 25.0924 31.7865
-24.0176 45.8313 -6.2138
-13.8918 -41.5729 28.1902
-49.0889 -6.0926 -16.4053
3.4729 -17.1835 -49.0778
-4.0346 29.6676 -42.6559
-49.1440 16.6283 4.9334
49.4975 15.8957 -3.6456
-49.7415 15.5479 0.1182
13.6342 41.9026 27.8254
7.1475 29.8893 -42.0893
-10.0186 15.7485 -48.6578
-50.9344 -10.4372 -3.5672
18.5574 -2.5607 -48.6316
-10.2881 -34.3501 -37.8179
7.0168 51.0734 7.6316
-50.9228 11.0694 0.5528
-35.9996 -37.4484 4.1973
-12.7582 -47.0492 -18.4273
-37.8407 -15.6293 32.2456
43.3940 -11.0815 26.6483
-25.8942 -10.3157 -44.0346
50.3650 -12.7986 3.9409
-24.2927 10.4236 44.9131
-6.3693 17.2934 -48.7477
38.2466 -21.8195 -27.8761
-13.6419 3.7748 -50.1559
-47.4548 -21.1804 3.9246
-30.4583 42.1377 3.5607
33.1696 21.3655 -34.0479
46.3585 -10.9763 21.1276
-1.9780 -50.7586 11.6457
-40.7935 -26.0464 -19.3247
43.6813 -16.5282 -23.1242
8.3185 33.5835 38.9733
2.4986 15.7649 49.6104
-15.2944 9.3943 48.9264
25.5735 -42.0122 -17.2320
-44.3668 27.2810 -1.8161
5.7101 35.1537 -38.0470
-17.2667 -29.9040 39.0331
-37.1504 17.5256 -32.0729
51.4734 8.1264 0.6450
6.4696 24.4864 -45.5470
14.8027 -49.1939 -8.7643
-15.3868 -37.0754 33.2359
-37.1254 34.6758 11.6302
28.5470 -43.4226 -3.9393
-38.4843 8.6026 -34.0723
41.2654 21.7279 23.2601
17.5749 44.8342 -19.9245
-22.6734 35.7838 -30.3546
-34.8687 -37.4046 10.0517
6.6585 -17.6246 48.5902
8.1841 -6.0464 -51.1119
-19.2734 -47.5080 -9.3536
41.9229 -0.1346 -30.9583
-26.8362 14.0680 42.4014
-12.7094 40.4751 -30.2689
19.8069 -36.8661 31.0571
-3.3540 -52.0055 -0.3780
-16.4592 48.5739 9.2541
-9.8455 -6.4230 50.7718
40.6526 -30.3917 11.8187
-10.6754 50.2202 8.9405
-28.2751 23.7898 36.7496
49.6127 15.7675 -2.4358
-27.0137 43.8101 -8.1793
-15.7757 48.5921 -10.2909
37.0584 0.6545 36.6362
13.3667 0.7738 -50.3657
-21.2803 -32.5765 -34.6683
12.7761 43.1034 26.3598
12.7290 21.8040 45.5909
-18.0983 12.7756 47.1721
-9.4964 -0.9089 -51.2344
36.6040 -19.5499 31.5264
-5.0565 -32.4322 40.4790
22.5494 -45.4504 11.9059
-4.3017 -51.7928 -3.8686
-20.8842 -46.0883 12.4774
-12.5842 -3.7165 50.4360
-19.4596 -45.5125 16.3066
-29.5153 -7.7579 42.2449
31.8438 -41.0189 -4.4037
21.1210 19.7366 43.3629
-34.7119 7.9216 -38.0565
-32.1677 13.6901 -38.6495
43.3173 -27.3790 9.4852
33.3441 37.6974 13.5295
21.0151 45.9360 -12.8147
-13.0796 -20.1254 -46.2586
-35.0322 -27.9392 -26.6105
9.4615 -48.5786 -16.3270
-38.3517 22.2770 27.3651
46.7355 18.2616 14.0809
23.8958 -32.2456 33.2443
17.8779 -17.5490 45.6988
-51.3309 8.0633 4.0116
13.4420 -1.7127 -50.3224
24.0414 15.0799 43.7101
-25.3814 37.5559 -25.7160
-14.0482 -11.2247 -48.9144
-4.6629 5.6517 -51.5973
-12.5322 -35.7778 35.7612
24.8525 41.0969 20.2329
51.1339 0.6325 10.0446
-39.7528 -21.8834 -25.6282
-49.9729 8.8970 -11.8121
-45.5268 -22.4148 11.8682
-51.2603 -6.3731 6.9093
2.0138 19.9810 48.0903
-9.4353 28.5108 42.5920
19.5772 46.7212 -12.2406
31.1009 17.6635 -37.9039
40.2070 6.6604 -32.4808
47.0674 1.1579 22.3448
-46.1135 0.4601 24.2756
23.8135 41.9958 19.6274
-46.1840 19.6200 -14.0734
-37.4886 34.9247 9.5308
21.4313 -17.2734 -44.2526
-11.4763 50.7577 2.8142
0.4338 51.5995 -7.2985
-34.8226 8.7975 37.7618
-7.9347 39.3297 33.2594
-18.7558 9.6733 47.6510
48.7487 -15.6476 9.7305
-32.5641 -36.6763 17.6181
-2.7369 5.9066 51.7068
-6.0962 20.3987 47.5678
19.4760 -15.6211 -45.7453
38.0636 28.5850 21.2139
32.2423 30.1035 -27.7521
-11.1370 -33.8905 -37.9918
-18.3433 -41.0146 26.4062
42.6176 -18.2810 -23.7805
-30.9885 -41.6386 4.6808
-18.2730 45.8685 -16.6776
34.4915 23.1157 -31.4955
25.5910 16.2412 42.3945
-34.0332 34.4950 19.1782
-9.8826 39.7983 32.1621
51.7916 -4.1185 4.0785
42.4196 5.1105 29.8401
-21.7688 -45.8545 11.8091
-27.9388 30.6069 -31.6008
38.1772 30.0509 18.8524
42.0471 29.6629 -8.2534
-27.7493 21.1908 38.6897
-27.5349 -28.2505 -34.0545
48.1355 18.8027 -6.7382
-12.5716 -0.1816 50.5756
39.0229 -0.0640 -34.5424
50.5168 12.4314 -3.0799
-1.3152 -46.0408 -24.3820
36.6213 -33.8440 -15.1471
44.8380 20.6669 16.6854
-22.9112 -30.6712 -35.3599
-43.9158 -5.5672 27.5022
-33.6379 -37.1226 -14.3657
31.8846 -38.9239 13.5748
-38.9092 15.0608 -31.2284
40.5139 -28.4226 -16.3325
-17.6761 31.2444 37.7797
4.0455 -28.2790 43.5879
-31.1232 -10.3109 40.5093
36.4160 37.0851 -3.8128
-52.0895 -1.5865 0.3717
48.2752 -11.8236 15.6740
15.9520 27.3766 41.3766
49.7829 -10.7081 11.0892
-46.1416 23.5497 -5.6857
19.5878 -26.5312 -40.3533
38.6299 34.9786 0.4413
35.7363 -8.7885 -36.9006
18.7533 -2.0838 -48.5792
29.3332 -20.9086 37.6612
27.0522 21.6475 -38.9298
-29.8219 42.7380 0.2961
31.4648 19.5950 36.6330
45.1424 -23.7129 -10.7625
-19.0065 -34.0906 -34.5334
-50.2412 -0.1496 13.8481
30.2458 26.8421 -32.8734
41.7662 24.4590 19.3213
12.1153 25.8298 43.6120
44.4670 -9.3902 25.5044
-49.2347 11.0685 13.0153
-43.7659 -11.8978 25.6701
-24.8608 38.0807 25.4514
45.1076 11.5487 -23.4073
6.2014 -4.9732 51.5051
-25.5746 -15.7362 -42.5944
5.0183 -44.0944 -27.3217
8.4357 50.9975 6.6380
-40.9771 25.4741 -19.6956
8.8514 -23.4579 -45.6875
-23.7928 31.2361 34.2663
-22.0094 33.9504 32.8470
2.3938 -35.0366 -38.5055
10.0109 44.6076 25.0182
6.2509 20.7400 -47.3999
29.1060 27.2186 -33.5850
-1.9840 -30.4263 -42.2643
39.6430 -18.8239 28.1081
6.4764 -45.5452 24.4879
-27.8637 -30.6518 -31.6236
25.4011 21.2387 40.2452
38.6046 18.9989 29.4057
-18.5564 46.1114 15.6641
-26.1128 -14.6163 -42.6667
18.0573 12.2831 47.3184
-8.9872 -50.9418 6.3347
-49.3999 0.1173 -16.6015
-43.9918 -23.3935 15.2785
-10.0103 -0.1432 51.1443
-40.2907 12.6142 30.5533
41.8211 31.0048 2.3812
-51.9891 2.5538 2.5657
-30.9638 12.8323 39.9067
32.6778 -34.8706 -20.7888
43.1788 -3.7294 -28.9422
-40.2353 32.8136 4.5112
-31.6387 -4.6079 -41.1550
18.7645 -44.2065 -20.2397
-46.8971 -2.1206 22.6304
9.5866 -9.1161 -50.4079
5.3944 -45.9219 -24.0426
-10.1210 1.0558 -51.1118
42.3749 -25.9657 -15.6881
-20.7910 9.1599 -46.9020
47.7146 15.9550 13.5915
-51.0066 9.3064 5.2620
22.3826 -46.7702 5.2479
-38.3347 -15.9668 31.4878
23.6540 -13.4624 44.4435
-49.7510 -15.1246 -3.4719
-1.1087 51.8055 5.5616
12.7290 4.9683 -50.2917
14.7304 -32.3800 38.0857
-0.6550 -8.0667 51.4827
-26.6557 35.3425 27.5018
-20.3626 -2.6655 47.8981
-42.1744 -3.2006 -30.4475
-39.7070 -28.1645 -18.6032
-24.1918 18.3007 42.3770
6.1934 35.5139 -37.6347
-45.0933 -19.1419 -17.7805
11.8955 -2.7770 50.6631
-46.2275 -18.0926 -15.8633
-23.7631 -40.4695 -22.6605
-1.6961 50.6673 -12.0796
-16.6836 3.5011 -49.2480
-29.9082 -38.7975 -17.7826
-16.6106 39.5792 -29.5558
35.3048 22.0998 31.3232
-47.1664 14.4400 16.8161
-30.9214 24.9667 -33.7120
49.6169 14.5978 6.4057
-0.6273 -50.2516 13.7968
24.2272 -45.8475 -5.1974
-38.8974 -32.5512 11.9742
7.8368 21.2411 -46.9401
-38.9463 -20.3696 28.0041
-27.2418 43.3292 -9.8201
36.4659 10.3477 35.7649
36.4356 2.7520 -37.1597
31.6460 -35.5974 -21.1500
-39.7175 -16.8124 29.2546
0.6399 39.8514 33.5771
25.6491 -38.8261 -23.4653
18.9448 -44.2174 -20.0471
52.0164 -3.2036 -0.0045
-33.0521 5.2388 39.9510
-12.2799 -20.5643 -46.2848
-47.7179 20.5296 4.1839
-33.4055 38.4558 11.0088
2.5138 50.7181 -11.7186
-30.7234 -23.9888 -34.5916
1.6313 14.0720 50.1526
25.2880 -35.4370 28.6479
33.7508 39.4121 -4.8516
-24.5889 42.4828 17.5090
33.6379 32.4538 23.0479
33.6572 -11.3750 -38.1283
-12.9379 -22.3434 45.2698
17.9916 41.7372 25.5005
-35.6011 18.1796 -33.4370
-7.5787 -15.8907 49.0512
39.3327 -34.1888 0.1845
-18.5380 -25.6957 41.3768
18.4799 11.1141 -47.4440
-7.7045 -27.6487 43.4989
-23.8679 -12.7026 -44.5526
-26.0978 41.2156 18.3344
-45.2609 -8.4702 -24.4064
-25.6812 -41.8412 17.4858
35.3842 -14.6517 35.3448
14.0478 37.1726 33.7168
-10.8551 -46.8119 20.1688
23.1200 1.2914 46.6880
31.7337 10.1130 -40.0833
-50.2734 -11.8797 -6.8866
-41.0657 30.2229 -10.7776
9.1397 7.5561 -50.7478
-50.6115 11.7663 3.9998
-23.6368 24.4342 -39.4999
-46.5871 -14.1851 -18.5578
-30.2077 40.6852 12.1730
-51.0855 10.1311 1.8985
9.6283 -50.7924 -6.5873
-3.1398 -22.7974 46.7588
45.8716 -6.8552 -23.7650
-32.1388 -7.5904 -40.3169
36.7205 -35.3391 -10.8959
-26.3616 42.5643 14.4677
9.5507 -4.9124 -50.9963
15.7703 -30.1375 -39.4842
45.7326 17.2749 -18.0577
-24.2264 37.1466 -27.3712
20.3089 -34.0539 33.8209
-8.6584 -44.9405 -24.9269
43.5032 -17.3388 -22.8650
-18.9972 46.6198 -13.4784
8.5070 38.3568 34.2397
31.0905 33.7453 -24.7105
-39.7266 33.4683 -4.1992
-42.1879 16.3475 25.8633
44.7807 25.6960 7.0974
-47.1270 21.8300 -4.2971
-51.3062 4.6890 7.8519
-3.4540 -41.4915 31.3447
-23.8431 33.5303 -31.9874
28.9306 -43.2300 3.1860
45.6667 -15.5809 19.6916
-25.5853 -43.4416 13.1979
4.9574 -42.9949 29.0316
-12.8420 -16.6982 -47.6678
-14.7926 17.5990 -46.7699
-3.6079 10.9452 -50.8247
43.2678 27.1143 -10.4250
44.4947 23.4747 -13.6062
-49.8251 -9.1019 -12.2711
-29.2592 41.0734 13.1469
46.1895 -5.0818 23.5939
34.4576 -34.7265 -17.9642
-28.4983 -37.8816 -21.6518
9.0118 -20.9321 -46.8679
42.9944 -8.4702 28.2082
-23.6616 45.3425 -10.0077
37.3339 29.3830 21.4195
-9.5300 -50.5280 8.4893
30.5779 -15.8406 -39.1157
47.2916 1.0570 21.8713
15.1613 46.6237 17.6729
45.7584 -16.6699 -18.5542
19.8685 7.6215 47.5723
-51.9398 4.2672 0.1294
-17.4609 -19.9561 44.8647
-27.1692 33.2262 29.5605
13.4388 8.5353 -49.6238
-35.0366 38.5335 -1.8907
30.8549 14.1141 -39.5567
-47.2728 -4.1126 -21.5485
-51.9557 -3.8413 -1.3476
-42.0730 20.5407 -22.8891
-47.8738 -7.5309 19.1664
50.4997 -9.1625 9.0440
-0.9123 -21.3479 47.5332
-0.0743 50.6724 -12.1767
50.8791 6.1623 9.4506
-0.2484 -28.1281 -43.8716
-35.8713 -30.8553 -21.8443
-29.3581 12.5030 41.2037
-8.1012 -48.4265 17.4705
0.3785 -42.7546 29.7971
-26.3860 38.3347 23.4562
-50.8948 3.7426 10.5681
35.0056 38.2462 -5.2730
44.8506 -12.8069 23.2460
-49.6852 1.4742 -15.6582
8.2166 48.2639 -17.8621
40.1131 11.6441 31.1660
-26.6652 17.5459 41.1956
-46.1944 11.6893 21.1047
-22.6622 -45.0271 13.2271
33.0615 -5.6063 -39.8933
-18.3337 46.1770 15.7330
10.4574 9.2658 -50.2071
41.8584 0.6998 31.0380
6.2764 28.9489 42.8782
24.9897 -2.5828 45.6598
3.2219 44.2747 27.3009
-19.2312 -34.7701 33.7220
-32.0748 31.8438 -25.9450
-0.1222 52.1141 0.2706
-32.1529 38.1014 15.1802
-25.2753 6.9305 -45.0455
28.4132 7.1061 -43.1064
-38.7894 -32.0651 -13.5343
2.8050 -46.9112 -22.5265
-25.2523 -28.1585 35.8523
31.5969 -21.1433 35.6450
16.5023 43.9528 -22.6229
-19.0673 -43.0634 22.3147
15.8955 -7.1541 49.1134
17.1703 33.4029 36.1302
-3.2656 -1.4385 -51.9926
-52.0507 -1.2686 2.2550
35.8217 22.0978 30.7321
-31.3788 7.7100 40.8888
-3.1388 -50.2817 -13.3365
38.6522 23.9335 -25.4787
13.7380 7.1207 49.7647
-11.1143 -50.9007 1.2500
34.1613 -38.8109 -6.5340
-38.4348 -34.7724 5.4416
-40.3755 32.1016 -7.4343
-4.2334 -18.3515 48.5929
-7.0132 43.1565 28.3601
47.5210 13.1708 16.8597
-50.9047 10.7795 2.9124
-18.7386 -47.9083 8.3443
50.2348 -13.8591 0.5975
-44.2593 25.5311 -10.2588
1.8212 -38.3351 -35.2572
39.9327 -29.6513 -15.5612
-10.0690 37.4842 34.7782
6.2560 17.7627 48.5934
43.1569 -26.0407 13.2414
14.6475 -44.6095 22.6144
-4.8362 15.5939 -49.4915
27.9501 14.6264 -41.4829
51.9473 -1.9181 -3.7111
-0.9651 46.5371 23.4379
-24.5656 25.9513 37.9345
0.1755 -50.5374 12.7243
4.2131 49.9271 -14.3355
20.9580 -46.5879 10.3101
39.4485 33.3527 -6.8836
-30.4209 18.2292 -38.1869
39.5184 -24.5154 -23.5215
-21.9669 46.2179 -9.8656
-26.4406 -38.9553 22.3460
14.2938 -50.0806 -1.8955
-14.6817 41.8006 27.4432
-32.1611 4.1878 -40.7933
-15.9000 -35.3661 34.8194
35.7657 -1.8190 37.8612
37.4730 -36.1761 -1.7413
25.5500 1.7215 -45.3895
33.9430 -33.4473 21.0979
-14.7447 -49.1408 9.1511
-47.0212 -1.6265 -22.4126
-11.5334 39.9511 -31.4143
-13.6609 46.1976 -19.8778
-49.3357 -10.5873 -13.0334
12.1027 48.4788 -14.8088
3.7165 -50.7955 -11.0440
47.9636 6.7710 -19.2254
23.8326 -3.5124 -46.2130
44.6049 -24.3617 -11.5272
48.2493 -0.2990 19.6949
37.5813 -11.9294 34.0779
-22.6580 22.6944 41.0798
5.7960 28.8486 43.0132
34.8970 34.9327 -16.6696
27.0790 -24.4176 37.2354
44.0743 21.9027 -17.1376
-16.9634 -41.0236 27.2997
26.3340 7.0879 -44.4100
-17.1595 46.7394 15.3933
48.0434 -16.9297 11.0083
-13.0179 -37.2664 -34.0253
29.1883 -0.1545 -43.1739
-28.9617 29.7358 31.5115
-13.1057 17.4482 -47.3262
-36.4589 -10.8097 -35.6352
-10.8927 -4.8631 50.7313
22.6643 -22.7487 -41.0463
-8.6632 33.4489 -39.0140
11.7790 20.2518 46.5520
-38.6973 -31.9701 -14.0145
-26.1619 -0.0375 45.0724
1.4625 7.4735 -51.5556
29.6375 30.4722 30.1501
-21.4426 -24.8600 40.4743
35.7456 37.6862 -4.2395
-42.4537 -30.1078 -2.6786
-16.4052 49.3951 2.6384
-34.5016 -21.0264 32.9166
-38.1578 -9.1544 -34.2950
-1.2497 -46.3127 -23.8651
52.0322 2.0268 2.1233
37.7672 27.0650 -23.6028
-47.4734 19.1393 -9.7946
-13.2986 -35.0958 36.1580
-35.9929 10.6036 36.1669
-4.6769 18.4426 48.5177
-40.5756 15.0767 29.0220
-50.9521 -5.5937 -9.4106
26.5050 12.9853 -42.9516
7.8068 -29.0507 42.5568
11.8754 6.1955 -50.3643
14.3271 -15.7903 47.5539
-19.3862 -48.2306 3.7351
33.8214 -14.1861 37.0248
2.3662 1.7507 -52.0318
2.0215 -32.8363 -40.4185
49.8550 14.1864 5.4032
-46.5827 8.9839 21.5710
-23.0008 44.9288 -12.9742
28.6271 -0.5702 43.5446
-22.1177 44.9038 -14.5060
23.7790 41.0885 -21.5002
-39.1662 -34.3799 0.0019
46.2167 -23.5540 5.0195
19.9752 -45.4228 15.9289
-15.5954 -24.1687 43.4583
-13.9729 4.1784 -50.0327
-48.9923 -5.0639 -17.0318
33.8870 39.5930 -0.1954
-13.2466 -2.8153 50.3246
-30.6862 -34.4452 24.2456
-38.3467 -3.9618 35.0685
40.4146 4.8080 32.5501
-2.6762 35.2929 38.2520
26.2667 -21.6739 39.4496
-37.9736 33.3854 12.6248
-50.4189 12.3049 -4.7430
-45.8288 -3.9417 -24.4981
0.1637 5.6813 -51.8041
-43.9472 -11.3653 -25.6016
-21.4825 -40.9723 23.9946
44.6257 -17.3139 -20.6092
-26.1053 44.3328 -8.3118
2.5401 -1.2024 -52.0391
17.2091 36.4104 33.0772
-47.5301 19.3780 -9.0193
-24.7971 18.4909 41.9424
-23.3522 -34.2148 31.6226
-7.3475 13.6774 49.7485
-36.2419 -34.4324 -14.7275
5.5533 -27.6946 -43.7965
36.0511 35.9042 11.2772
-30.3909 -24.9139 -34.2295
47.0514 -0.7011 -22.3973
33.3785 3.8174 -39.8406
34.7975 37.3107 10.6306
-30.1504 -24.1637 -34.9720
-11.4515 50.5546 5.3908
-0.1573 -27.0299 -44.5570
-16.3505 48.1227 11.5256
11.2253 -46.0473 -21.6704
24.0270 44.6297 12.1187
50.8777 0.1034 -11.2879
-19.7401 45.8452 14.9839
3.8833 -44.1142 27.4741
-7.4355 22.4358 46.4469
-23.7256 26.5167 38.0779
-7.5087 14.5989 49.4617
43.8581 18.9930 20.7774
-36.2403 -34.9038 13.5769
47.6408 19.6157 7.8454
-36.5405 -37.0812 -2.3973
-4.3509 -21.0577 47.4722
-21.3792 29.6473 -37.1475
41.7477 -10.1297 -29.5040
44.1450 19.4052 19.7642
49.0742 -12.9142 11.8708
49.4878 -11.8275 11.2709
-4.6380 31.3117 41.4009
49.7650 -15.1206 3.2830
27.8470 43.9440 3.0728
-22.9504 -28.9072 -36.7916
40.5868 13.7024 -29.6803
32.2263 40.1641 -8.0172
16.2835 49.0932 -6.3775
35.2502 34.6287 -16.5603
-36.0811 5.9909 37.1245
5.1248 -30.1392 -42.2059
11.8462 -47.4999 17.8715
41.2379 -26.0198 -18.3950
-20.5466 -43.1820 20.7151
-31.2264 41.2815 -6.0592
-38.5586 8.5921 33.9909
-49.4093 13.7705 -9.2228
49.3028 -16.8129 1.5907
24.8941 -36.8725 -27.1416
38.5086 34.9471 -3.4287
-7.2665 -51.5753 -1.7757
-19.0325 48.2589 -4.9812
40.1291 33.0706 3.4582
12.0475 6.2051 50.3222
-28.4984 33.5868 -27.8520
-35.9574 -15.7693 -34.2690
2.1991 50.5572 12.4540
-28.9476 10.0248 -42.1605
45.8637 -12.4622 -21.3818
-18.5854 -48.5338 -3.8763
19.7351 35.9779 -32.1261
-38.1094 32.2257 15.0049
26.7235 -31.6625 -31.6118
32.9180 12.3253 38.4768
-24.8269 -9.4521 44.8358
22.0353 34.1060 -32.6679
31.8133 39.1712 -13.0193
-20.8604 6.6156 -47.2974
21.1252 41.7762 22.9009
-6.5733 44.2291 26.7684
-10.6039 40.3499 31.2316
32.0508 39.2038 12.3199
22.0516 46.8555 5.8534
-24.1375 -17.2904 42.8298
16.4180 -48.1313 -11.3926
-5.4725 49.1628 -16.4024
-37.7410 -29.0414 21.1705
-47.2390 -19.6366 9.9421
-2.6812 1.7168 -52.0176
0.0966 24.2920 46.1070
-42.0448 -28.9427 10.5131
-23.0216 46.2022 7.1650
-24.4680 43.0683 16.1990
39.6084 30.7345 -14.2314
-25.3793 -41.4293 18.8541
-26.7186 44.1863 -7.0471
-30.7919 42.0453 0.1460
22.4503 -8.5629 46.2453
-47.9685 -16.4472 12.0201
-6.8662 47.5562 20.1799
31.6233 -9.3572 40.3532
-19.1242 42.7417 -22.8776
-32.1945 -39.5194 10.8488
-20.5144 -45.5769 14.7604
-31.1068 13.9135 -39.4303
-35.3155 38.3066 -1.1765
-22.7490 28.7225 -37.0604
-23.6186 9.2016 -45.5352
17.5830 29.7970 38.9737
-36.0063 -22.3575 30.3259
-31.2500 35.1520 -22.4443
-47.9552 16.6748 11.7566
-29.0035 22.7403 36.8462
-41.4617 29.1172 -12.2100
5.1896 -51.8298 1.6454
7.3041 51.5473 -2.3435
-20.1970 37.8018 -29.6492
-45.9795 -23.8892 5.5827
-20.4112 -15.5129 45.3729
51.0191 10.6176 0.5387
49.9128 10.3794 10.8143
10.2280 22.0405 -46.1039
-0.9350 43.7126 28.3602
29.3287 -37.9138 -20.4532
36.5274 -37.0789 2.6207
9.3909 6.0709 50.9011
30.3575 -10.5278 41.0312
-15.0214 -18.2048 46.4641
2.3496 -14.8074 49.9118
18.9476 7.8705 -47.9063
-45.1939 1.3509 25.9162
-45.1843 5.9976 25.2661
-27.8622 11.6845 -42.4634
-41.7860 26.6346 16.1400
47.7475 10.2610 18.1894
3.7806 11.5764 50.6721
7.8955 40.8343 31.4037
41.1650 -25.5965 19.1371
1.1140 -50.8472 11.3705
-15.6946 35.4201 34.8578
-17.2590 -46.8775 14.8522
19.4975 44.7140 -18.3433
-47.0051 12.1888 18.9189
13.0268 -25.6788 43.4381
-0.3119 42.7417 29.8164
-46.4994 -23.1664 4.1350
12.2886 -50.4443 4.5086
-28.6345 13.5702 -41.3749
23.9751 0.4976 46.2700
51.4155 -6.0456 -5.9886
34.0965 -36.9482 -13.7197
-33.9985 36.4362 15.2470
-38.3317 -16.3866 -31.2751
13.6452 -49.5546 -8.6090
0.5845 47.0495 -22.4047
25.0920 37.0889 -26.6603
-44.7145 -22.7799 14.0591
0.4345 26.7727 -44.7102
13.2868 -50.2523 -3.7591
43.6784 18.1363 -21.8916
-49.8165 -13.9779 6.2372
-32.3430 -38.7373 13.0124
37.8024 -32.9446 -14.1986
-24.5611 -45.0758 -8.9939
-43.7234 -21.9089 18.0065
7.1443 -50.4717 10.8414
28.8461 -32.0209 -29.3008
40.0908 2.4697 -33.2054
-2.5736 28.2763 -43.7012
-40.9375 14.7552 -28.6771
43.5857 21.9456 -18.2934
-8.1266 -33.8531 -38.7801
27.7966 -1.9572 -44.0396
-20.8566 -40.1034 -25.9363
-35.8841 -32.6115 -19.0995
-9.9652 -51.1169 -1.9312
-9.2347 -38.1567 34.2747
-16.4843 -24.8060 42.7657
41.9951 -22.9588 -20.6222
-14.1634 49.9958 3.9727
23.8106 -31.4455 -34.0617
