ply
format ascii 1.0
element vertex 1024
property float x
property float y
property float z
end_header
-46.5848 72.1365 -19.7067
20.8329 -14.3619 -84.3913
54.4635 -8.8476 -68.6849
-66.6662 52.8659 -22.8688
-60.8833 -22.7993 59.4607
-85.6610 10.5615 -17.6867
78.9261 11.0180 -37.5691
-49.6781 72.2401 -8.6959
-37.2241 -12.6963 78.8374
9.5943 -69.9661 -52.6770
-11.2475 61.9676 -61.6091
-47.8695 -48.4148 -55.9167
25.5523 17.6075 82.4574
58.4396 10.9317 65.0190
-52.9259 55.5156 43.3478
-15.8557 -81.4190 29.6937
-21.7405 73.9585 -42.6575
-41.5787 43.3106 -64.4792
23.5735 -56.9825 62.9242
-53.4240 -69.9769 3.3591
72.2883 -28.6633 -41.4124
-46.9340 36.5957 -64.9625
60.6456 -30.9069 55.9379
-67.2703 -23.7762 51.6872
22.3801 -55.0507 -65.0440
21.9481 54.8891 -65.3272
-6.3267 24.8726 -84.2822
60.6455 52.3079 -36.7176
-56.1192 -57.6433 -35.9172
82.0235 -23.0074 22.4713
19.4815 -81.5132 -27.1704
1.2419 8.0616 87.7248
-47.1331 -30.3419 67.9707
72.8894 -48.9366 -7.3829
18.4702 80.5877 -30.4407
-12.3960 -86.7650 -8.9636
-16.8520 -61.3840 60.9112
-7.4364 -54.5721 68.7659
-70.0304 44.4299 -29.7303
-32.5674 -73.2395 -36.5718
34.5894 -65.2157 48.0901
-83.4325 15.8695 -23.4380
28.3685 4.4716 83.2911
-58.8588 -21.9846 61.7615
-36.4127 12.0783 79.3120
-40.4930 65.2656 43.1611
-28.3541 80.6969 -21.1242
7.3058 29.5590 -82.6744
-19.6296 85.1542 -11.2075
19.0747 -15.7415 84.5608
60.2194 -63.1023 12.4054
51.9189 42.3472 57.2128
-50.2804 13.9006 -70.9987
12.1999 23.9189 -83.9119
8.3948 71.7392 50.4498
-54.1723 -10.0193 68.7543
44.7581 23.2042 72.2526
83.0173 -22.1593 -19.4745
-62.7156 17.0939 -59.4703
-19.2185 -80.6388 29.8363
51.5442 -4.4959 -71.3102
-72.7816 19.9843 -45.4493
22.6715 -62.7225 -57.5678
-27.7508 -2.3205 -83.5863
-20.9026 4.8088 85.4525
82.0478 -31.6721 5.2161
12.1336 55.0371 67.7190
70.3931 -20.6482 48.7917
79.0630 28.6552 -26.2694
-87.9489 1.4428 5.0071
-69.7607 47.6111 25.0757
44.6026 56.6119 -50.6741
84.5646 -21.9355 11.3940
53.9031 -68.1462 -14.5848
-5.8782 42.9905 -76.6775
67.3708 10.4070 55.8125
-58.5100 17.1083 63.6086
-70.6371 47.7765 -22.1353
-24.1433 79.9792 27.9749
-77.9503 -13.3574 38.8266
-27.4075 35.7588 75.7120
54.1883 -60.2437 34.5905
-15.9804 51.0995 -69.9688
16.8723 31.0928 -80.6891
-47.6683 73.6329 -8.2519
-28.5538 15.4076 81.9112
-35.0659 35.2639 -72.7256
-13.2412 -33.7897 80.2813
19.0886 21.2671 83.3397
23.4432 -69.6216 -48.6356
-68.2866 -49.3832 25.6984
6.1565 60.2327 -64.0023
-17.3579 -56.4940 65.3399
-14.3188 86.8232 -4.3443
72.4564 2.9990 -50.0324
15.7961 79.8051 -33.8201
7.4805 -59.9580 64.1190
-58.0155 -16.1501 -64.3081
-2.2775 -79.4529 -38.0028
70.9386 47.6118 -21.5175
54.5671 19.9011 -66.2461
13.8295 54.0264 68.2060
-6.1865 68.6976 54.8136
74.9717 -11.4351 44.8403
-59.8188 -64.4477 5.5104
66.4746 29.5605 49.6938
-71.9189 21.2430 -46.2447
-18.9355 62.7400 -58.8838
55.8144 -41.9714 53.7152
81.8571 24.0859 -21.9419
-3.7446 51.7348 71.2155
-82.6438 2.7456 30.4077
-67.8410 14.4699 54.3175
39.3779 60.1355 50.9437
50.4884 43.2502 57.8144
-7.2066 -49.1891 72.7369
-23.4982 81.6801 -23.2024
52.1121 22.8043 -67.2789
44.5894 6.6775 -75.6926
-57.3857 47.5642 -46.9755
51.6718 -1.7231 -71.3388
-40.7086 0.2308 -78.1340
-17.4197 85.7552 -10.2353
-86.7243 -3.3090 -15.1696
-33.1174 24.9825 -77.7256
-49.8486 60.7475 -39.8376
-19.0403 -23.6485 -82.7066
57.3799 39.4448 53.9798
84.3652 8.0913 24.0668
-47.7180 69.4336 25.7708
-79.8443 -33.3743 16.5293
55.8106 -44.0456 -52.0319
36.1272 28.4330 -75.1568
-53.8829 -19.1956 67.0099
-15.8151 84.8633 -17.6142
-46.4998 74.7275 3.9668
-43.6116 40.0953 65.2117
-53.5844 -52.1801 46.5630
-27.6914 1.3176 -83.6278
-63.9837 55.7616 -23.6412
32.7722 -0.0223 -81.7811
23.2790 83.6389 -14.9930
75.4834 3.0226 -45.3353
-36.7394 75.2409 27.4079
10.6316 60.7367 -62.9300
57.3217 45.6194 48.9414
-30.6155 -82.2869 7.3300
-28.2227 78.8386 27.3881
68.4998 50.1251 -23.6097
41.9622 -48.8405 60.1327
-41.6252 -77.6497 0.1697
5.3418 85.1133 -22.1213
71.4976 39.1201 -33.4646
-25.1688 62.9333 56.2859
79.1628 -9.4069 37.5090
10.2972 -20.9071 84.9648
-78.1770 -40.5914 -1.6916
24.0391 81.0695 -24.7392
-70.5699 13.8183 -50.9029
71.9531 39.8204 31.6110
-15.8637 78.2580 37.2316
2.1353 -0.5727 88.0754
-26.7811 67.3623 50.0725
-26.6833 51.2413 -66.5169
-71.0295 -41.0849 32.0781
-83.8276 -26.0051 7.6708
-83.5056 -28.0565 -1.3444
42.4965 -55.3071 53.8269
-35.9515 44.4098 67.0629
55.2138 -53.3561 43.2056
49.0064 -35.0282 64.2928
-8.8614 19.5341 85.4521
60.1433 22.2946 60.3979
-80.5825 -31.4583 16.7034
21.0432 -77.2681 36.7286
48.9367 62.2754 38.5895
-67.0775 -18.7032 -53.9719
-69.3666 53.8986 -6.7360
39.9561 -0.2378 -78.5215
-78.2230 -39.3584 9.7080
64.4016 52.4671 -29.3566
-5.0245 -13.1968 -86.9642
-83.9280 -15.3909 -21.9405
59.1427 41.0832 50.7590
6.7322 85.6087 -19.6974
-75.1748 -20.9611 40.8845
73.0855 48.9127 5.3118
-61.9958 -62.5527 2.4179
12.1243 -55.6212 -67.2417
-76.8199 -13.9633 40.8154
-72.9966 -24.4697 -42.8357
51.2283 -71.6666 -1.3113
5.5152 -66.6706 -57.3304
-3.0306 -79.4709 37.9126
69.2624 19.9551 50.6624
8.1563 -44.3826 75.6692
51.6817 69.7020 15.2578
-71.1155 -49.3935 -16.2799
21.4857 -84.0896 -15.1481
-45.9962 32.8468 -67.5840
-29.8229 60.1910 57.0071
63.6010 40.6586 45.4308
51.8980 35.8428 -61.5147
10.5121 86.2287 -14.7064
-17.0820 -81.9934 27.3396
24.2712 -84.6779 1.6534
-23.4580 -15.1065 83.5684
41.6166 -66.3143 -40.4060
-59.6358 -44.6175 -47.0640
-80.2840 16.1990 32.4690
-54.9058 -27.0215 63.3826
-55.6250 -62.3633 -27.9076
54.1538 -69.4188 -3.2507
6.0239 68.1872 -55.4652
2.9303 -3.5278 -87.9837
62.2053 7.3345 -61.9587
-72.0535 -6.7418 50.2494
-51.7870 2.3663 71.2367
-31.4267 53.5859 -62.4746
-37.2370 -59.0831 -53.7100
-84.5460 0.7716 -24.7698
13.3647 -21.3103 -84.4359
32.2212 -6.7046 81.7252
-19.9718 -33.1682 -79.1402
-13.9183 -60.7892 62.2344
-77.8553 24.5036 33.1706
-60.5226 61.9367 -16.2181
-79.4970 -13.2724 -35.5842
81.2102 -1.7428 34.1179
20.4056 -82.4411 -23.4361
24.8729 82.8358 -16.7850
11.5365 77.4252 -40.4279
70.9618 50.4981 -13.2866
-0.6369 -87.6677 8.7252
29.2737 82.1505 12.5103
71.8201 34.8292 -37.2957
21.7144 28.0515 -80.6459
-31.6961 -4.9989 82.0520
71.0079 -14.7033 50.0386
41.1244 43.1426 -64.8820
0.3249 -14.4418 -86.9108
-70.1337 48.3279 22.5355
14.7146 49.5199 71.3683
-77.4063 -20.0920 36.9695
-7.4147 50.7237 71.6540
-48.1565 6.3656 73.5023
-32.8697 -75.1276 -32.2117
-2.9990 86.8218 14.6679
-62.6678 -1.1749 61.9155
82.4040 -31.0165 -3.1177
-27.3253 30.4339 78.0338
-9.0574 -87.5642 -3.5555
29.6016 33.3153 -76.0000
-32.4698 18.7768 -79.7202
5.7768 68.2636 55.3975
-48.6462 -59.1745 -43.5212
-31.3060 74.1369 35.8583
-3.3413 80.0387 -36.6716
72.1625 -24.7557 44.0669
29.7210 -81.2185 -16.8044
85.7589 -5.7921 19.3398
-58.9753 51.6752 40.1714
79.0819 32.7423 20.8844
80.9289 24.0865 -25.1499
-59.8106 -54.2555 -35.2307
83.3810 23.8387 -15.5400
-76.2152 38.1258 22.3569
68.4025 18.0735 52.5035
80.9420 -13.3099 32.1465
73.5169 26.4881 40.6916
83.3886 -26.6546 -9.9016
67.1750 31.2855 -47.6540
-52.8898 -17.0930 68.3569
49.5452 -61.0267 39.7893
-12.4064 -28.1960 82.5423
56.5625 67.5372 -1.2575
-23.0935 11.6689 -84.2181
39.1687 18.7734 -76.6521
-79.3977 -23.5814 30.0347
-5.2747 59.2955 64.9491
82.1726 -27.6248 15.7068
-43.3367 -59.9492 47.8559
33.4629 -73.7196 34.7538
-9.6287 80.1896 -35.2006
20.5240 -70.8172 -48.2271
51.0890 57.4308 -43.0555
-38.4942 1.5741 79.2331
40.9997 75.5355 -19.3799
-29.3162 72.6776 -40.2577
-83.8111 3.2256 26.9716
-35.8106 72.2724 -35.4468
-25.0476 -82.2582 -19.1928
27.1244 82.9374 -12.1579
10.2757 61.6188 -62.1264
18.5730 -68.1137 -52.7042
-86.6764 15.7073 -1.6261
19.7421 38.7107 -76.6413
-67.9507 -24.5667 50.4118
55.8471 -9.6302 -67.4576
42.6327 -7.2188 -76.7627
49.4217 56.9902 -45.5168
-27.7539 -79.9091 -24.6255
40.4616 7.3565 77.9160
-3.6802 46.6452 74.6515
-14.1344 77.9850 -38.4803
60.9007 -54.7398 -32.5089
-50.9109 -25.1982 -67.3446
-30.8215 -14.5049 81.2515
8.0291 -72.9501 48.7440
-66.8274 -57.3588 -2.4969
24.9122 21.4797 -81.7323
3.6420 -8.4781 -87.6186
45.0945 -68.4935 32.2070
-14.1297 -80.9109 -31.8739
-14.4572 78.6175 -37.0466
-81.8751 15.9784 -28.3429
18.0764 21.1536 -83.5939
-65.5735 29.6008 -50.8535
72.6860 23.1827 -44.0621
23.4054 -82.3526 20.7941
-85.7480 1.9463 20.1409
87.9967 -0.9809 -4.2176
-62.8059 60.0358 14.6044
-64.2465 1.0876 60.2774
58.9600 5.8212 65.2074
18.2751 10.1471 -85.5875
1.1172 -26.4636 84.0274
-40.7831 77.9324 -5.0447
-1.6372 70.1562 53.2691
-67.0556 10.6088 -56.1530
-43.2742 68.1881 -35.2121
46.9022 26.6015 -69.6758
1.9434 65.5862 -58.7949
25.6277 62.0677 57.0350
3.7246 52.5367 -70.6271
-74.4974 35.7774 30.5334
1.7420 72.8086 49.5787
56.6274 4.7411 -67.3277
-43.1910 66.1111 -39.0643
-29.2933 -64.0015 52.9894
11.1562 59.1333 -64.3502
-16.2591 84.9236 16.9053
42.0641 18.1470 75.2560
24.6261 -84.1466 -8.6643
61.1538 5.1636 -63.2117
-23.9776 -0.8149 -84.7737
-47.6901 57.3541 46.8864
36.9303 -63.8212 48.2201
58.2303 60.1926 -27.3541
23.6478 -34.2865 -77.6362
3.7549 48.8090 -73.2512
-54.2137 58.6197 -37.2394
47.0000 73.3266 13.2805
5.1550 14.8300 86.6929
57.7706 -66.0281 8.0624
58.9529 53.4314 -37.8392
-61.1731 63.2880 -3.8268
-44.0053 68.5345 -33.5965
-50.5286 26.8531 66.9921
25.0760 -3.8591 84.3710
29.2603 -73.5120 -38.7555
-22.2398 17.4235 -83.4504
-23.2376 1.7292 -84.9658
-17.6672 -42.4374 75.1605
31.3247 -76.5384 -30.3776
-82.2043 23.7941 -20.9393
69.4647 51.2562 17.5959
-35.7350 7.2333 -80.2051
-70.7926 -37.2402 -36.9288
-8.1593 -85.0970 -21.3095
37.3266 -27.0140 -75.0942
1.1020 -87.7696 7.5798
3.9209 43.0986 76.7418
-58.9743 61.9616 21.0938
-24.0520 -62.6550 -57.0791
-46.8979 74.5768 -1.0270
-13.7767 -14.7544 85.7594
-81.5588 -23.9532 23.1641
37.5946 16.6095 77.9291
-60.7981 -12.1746 62.5902
70.0144 31.0496 43.5439
62.2978 38.6505 48.8599
75.7848 24.4922 37.6691
-83.1452 -23.0849 17.7800
24.7635 84.5490 0.6370
-39.5848 -75.7147 -21.5056
-56.9414 47.6943 47.3824
-87.2330 8.8735 -8.5928
37.4421 -79.3767 -7.7193
-1.6030 80.2916 36.2334
37.4863 -64.2318 -47.2357
-29.7770 -5.1068 82.7612
55.2303 -61.2518 -30.9838
9.5552 -57.8603 -65.7499
68.1702 49.4744 25.8316
56.2432 -16.3469 65.8153
-58.1450 -42.3421 -50.8770
87.1960 -11.7548 4.5654
77.6074 -23.7372 -34.2899
-3.8700 -78.9359 -38.9398
39.6203 -31.8783 71.9456
-38.0410 4.3786 79.3466
37.6921 -38.0091 -69.9770
-63.2829 -39.0241 47.2711
-67.4307 -45.4665 33.8832
-10.6600 54.6885 -68.2474
12.8217 55.5735 -67.1517
45.1865 66.8903 -35.2993
69.4430 -31.9122 -43.8343
12.2044 -64.0910 59.2078
2.9970 85.5999 -20.6360
29.2256 -64.4275 52.5084
85.3202 4.7701 -21.4448
46.9654 -37.7590 64.2703
-69.5605 -36.3842 39.9962
65.8898 -57.9249 -8.0878
10.6854 67.0644 56.1280
81.6149 -33.1825 -0.3041
30.5241 82.2447 -8.1399
-29.2942 -83.0874 -0.7093
40.7644 55.9874 54.4595
76.1999 25.1741 36.3594
-31.5549 74.6358 34.5826
17.3696 43.3307 -74.7189
42.9629 -45.6149 61.9325
-0.7637 88.0765 2.0291
-39.7942 75.2474 22.7250
-54.9266 68.8117 -3.1915
11.1340 -78.7583 -37.8858
82.0130 31.7865 5.0641
-53.6686 -28.0750 63.9816
-35.1401 80.5274 6.5324
-37.6270 79.5314 -4.5972
10.8833 34.4363 -80.3608
-70.8935 -13.1992 -50.6168
59.3459 57.7826 30.0233
39.1632 -48.4385 62.3066
-81.8557 26.1747 -19.4088
80.4181 -23.1875 27.5214
-65.1736 4.1955 -59.1352
-52.2045 68.6213 18.1100
66.2790 6.3964 -57.6918
1.0560 0.1936 88.0966
-86.7751 -13.8330 -6.3954
-74.3633 25.3830 39.8493
53.1258 66.0922 23.9089
41.2498 45.4690 -63.1917
79.9714 -3.7146 36.7825
-70.9016 28.4632 43.8746
4.4987 87.0608 -12.7412
0.4843 0.8620 -88.0976
-49.8446 12.3325 71.5932
-10.4837 41.8531 -76.8152
-31.5166 -76.2304 -30.9483
-58.3346 64.2103 -15.3713
-3.2664 77.6739 41.4519
-30.6302 -48.6944 66.7294
-13.3948 -75.7621 42.9283
67.7898 39.7383 -39.8444
24.4477 74.6438 39.9097
20.2963 -8.4297 85.3180
-68.0471 -7.2406 55.4917
34.3603 81.0817 2.7003
-86.1697 -17.9843 3.6763
-39.4409 78.7637 -1.6911
-85.5954 20.7974 -1.7514
44.0162 -75.9733 -7.2663
-41.6749 49.2437 -60.0036
46.5604 53.3497 52.4223
-40.5588 14.8370 -76.7920
84.4107 25.2389 -0.0486
-36.7675 71.5808 35.8678
59.2423 -42.1191 -49.7846
-75.0809 29.4635 35.4532
74.2184 -47.4539 1.3889
-34.3738 43.5563 68.4358
-31.7684 -72.7137 38.2839
-71.3555 -47.5222 -20.3029
25.4167 -56.9119 -62.2671
-87.8685 -3.8319 5.1584
1.2152 -39.2779 -78.8539
33.0300 -74.5570 33.3533
-41.2615 -66.8102 -39.9507
-69.6600 -52.3616 12.9583
53.8708 -63.4464 28.8905
-55.5134 -13.9044 -66.9858
-43.9722 -74.7497 -15.5271
-28.2642 25.1682 79.5604
9.6174 -29.8920 -82.3173
8.4049 53.8438 -69.2269
63.7140 -2.4353 60.8010
23.3814 -63.5040 -56.4156
58.5062 15.1568 -64.1051
-78.7610 22.9269 -32.1438
-6.5204 42.2058 77.0605
8.1011 -59.1796 64.7635
-53.6822 61.0212 -34.0117
56.3662 -42.3005 -52.8742
-60.2109 62.6305 -14.6369
69.1277 -27.5505 -47.1646
80.2754 -35.8891 -5.4775
41.4153 39.5195 -66.9712
69.5059 -33.5592 -42.4838
-45.0943 -75.5933 -3.7854
5.5926 87.8830 -2.7312
-78.5488 7.0568 39.2741
9.2754 -72.8001 48.7471
-87.5955 9.3981 -0.9371
79.8824 -1.2671 -37.1398
79.0943 38.3081 -6.2245
-23.8983 47.1583 70.4779
80.1313 17.8719 31.9647
-30.0018 66.6835 -49.1464
-64.3193 -32.9908 50.3667
-61.8527 -61.9112 -10.1696
-81.5911 -20.9535 -25.8071
44.9903 62.5427 -42.7370
-11.5610 -4.8873 87.2045
-72.2631 35.7070 -35.5700
25.9612 67.2712 -50.6237
59.8585 32.4055 55.9376
84.3355 21.4093 13.8324
42.6653 -42.5461 -64.2780
79.6007 35.9905 11.4274
-82.6884 14.2377 -26.8717
58.1795 25.5564 61.0261
-4.9222 -78.3017 -40.0847
29.1087 -1.9229 -83.1333
0.1133 -88.1025 -0.3110
-83.0013 -28.8121 6.5437
16.1353 19.1046 -84.4798
-58.9122 -56.8776 -32.5031
-66.6167 26.6297 -51.1394
85.6457 1.8077 20.5844
-72.5277 21.5100 -45.1576
9.7174 80.0234 35.5527
-87.7159 1.4247 8.1271
-61.3060 7.5982 -62.8172
62.6903 60.4388 -13.3880
72.9417 48.3685 -10.1077
73.0919 41.2978 26.7252
78.8561 -32.9549 -21.3976
31.7676 80.5785 16.1272
-8.7812 71.7606 50.3534
-28.3235 81.1875 -19.1971
-72.5722 32.7020 37.7626
48.5150 63.0181 37.9100
-82.7827 -13.4826 26.9704
20.8672 45.1630 72.7120
14.0515 -82.5156 -27.4936
-18.5784 58.8685 62.8610
-53.1195 -47.8179 -51.5164
26.3723 -42.6700 -72.4289
1.6980 30.9749 -82.4611
33.1031 43.4442 -69.1300
41.8373 -75.0008 19.6643
-7.1017 -42.2360 76.9926
-85.8440 -5.7341 18.9760
-4.2580 48.3155 -73.5503
11.9455 -86.1161 -14.2650
-50.5134 62.4045 36.2800
31.8211 -81.9288 -6.1031
6.4358 87.3713 -9.3279
34.7587 -29.7193 -75.3045
24.5174 13.8242 -83.4862
-62.9834 -55.7894 26.1302
-63.5179 24.0892 -56.1013
-62.3512 60.3543 -15.2268
-15.8411 -78.7771 36.1304
54.7011 -36.4582 58.6580
70.2468 52.2760 -9.7351
54.7624 58.4181 36.7500
41.9707 -29.4681 71.6398
66.3250 20.9088 -54.0924
25.8388 84.2253 -0.7841
-5.3968 -63.1664 61.1804
-81.7842 28.3841 -16.3660
9.8111 87.0549 9.3467
58.8015 -58.7441 -29.2178
-68.7947 29.0137 -46.7724
-73.0895 -8.6217 -48.4330
62.4699 -2.0606 -62.0921
2.5022 76.7553 43.1802
64.8598 14.2281 -57.9045
-66.7333 -55.4788 -15.1966
46.2651 57.1371 -48.5496
50.8325 -69.8729 17.2046
30.2049 -29.5728 77.2999
20.6240 42.2182 74.5281
-67.5783 48.1843 29.5569
20.1475 32.7162 79.2836
-74.9317 31.7574 33.7471
-5.5011 74.3633 46.9255
22.4612 65.5017 -54.4719
3.7117 15.7116 -86.6114
45.5705 -37.8050 -65.2402
43.8533 74.0452 18.8776
39.2768 21.1393 -75.9778
-58.9443 -45.8688 46.7310
-19.8655 -30.2035 -80.3447
6.6853 35.1359 -80.5167
-24.6322 -44.5990 71.8773
42.4878 67.7326 -37.0033
32.8536 -79.0751 20.7349
-29.4986 80.4108 -20.6422
-62.9014 57.6444 -21.9705
-37.0387 79.7151 5.9836
39.7559 15.1496 77.1500
-12.6218 9.3139 -86.6955
-62.3090 -61.6725 8.7321
7.7064 60.9932 -63.1079
-63.0051 0.2000 61.5832
2.8550 -80.1129 36.5504
-69.6437 51.4935 16.1349
56.6725 22.2364 63.6862
52.1424 -55.5185 -44.2836
-55.7809 -40.7511 54.6809
52.0112 -55.8968 -43.9608
47.8420 51.9167 52.7064
-21.2112 -39.0863 76.0559
-21.1959 -2.8160 -85.4691
-85.3545 21.6446 2.8773
82.2633 1.1681 31.5205
41.7938 -22.2613 74.2959
58.5296 -59.0006 -29.2469
-46.1373 75.0521 0.8343
14.6741 -84.3674 20.7117
-73.4791 -6.6423 48.1546
-42.2364 -41.5088 -65.2324
-45.2901 -61.5521 -43.8441
-31.8475 48.5820 66.2396
64.8552 55.7612 -21.1344
-10.9893 85.2971 19.1259
-79.0057 -3.4898 38.8341
85.7873 2.0104 -19.9665
71.2378 -19.4653 -48.0463
-21.4531 67.9800 -51.7750
-65.8991 47.5471 34.0402
-48.1996 63.4772 -37.5448
-72.2092 49.4061 -10.3455
-14.2754 -21.1161 -84.3356
33.9225 -3.0442 -81.2537
79.3562 -13.3691 35.8612
59.0289 65.2390 4.6507
-37.7520 -53.5839 58.8703
-32.5786 -57.5100 -58.2529
-56.9381 -35.0097 57.3981
64.8904 -55.7078 -21.1670
53.2287 -51.5199 47.6924
68.2961 -13.2513 -54.0575
16.7251 -60.3612 -61.9593
-16.1102 -86.0903 9.5440
-59.4894 -46.7083 45.1831
44.7160 -67.5556 34.6249
-36.5988 -79.4695 10.3583
-24.5447 -8.5526 84.1818
3.1250 -54.7524 68.9534
-40.4018 -75.1610 -21.9244
-60.8575 52.6588 35.8551
41.5363 -76.7019 12.3981
-74.3258 46.6183 -8.0361
22.2886 -25.0615 -81.4696
50.2917 15.5070 -70.6573
48.3093 73.6498 2.0222
24.8685 -83.6569 -12.0516
39.2278 -75.3853 -23.2463
38.5807 44.9699 -65.2028
82.1771 -30.2724 9.6265
-87.1454 -2.1670 -12.7727
-37.2253 73.8393 -30.4006
62.9960 -47.8837 38.7404
57.9453 66.1498 -5.3584
-75.3346 -4.8056 45.4287
51.9512 32.2112 63.4483
-44.3844 -70.3616 -29.0076
24.2473 -81.8575 -21.7618
52.8494 -11.4801 -69.5508
4.6308 -59.0983 -65.1775
70.6393 14.0849 50.7333
13.9203 -83.3519 -24.9170
-33.6658 42.0123 69.7406
-82.1470 -31.8408 0.4579
-3.7387 -6.6760 87.7703
-61.4729 12.8731 -61.7862
-12.1106 87.2038 -3.3169
-35.1824 50.8957 62.7215
-10.6340 -74.9923 45.0026
-28.5699 -82.8406 -9.1306
30.6450 -54.2993 -62.2466
37.7294 -38.5215 69.6761
39.0295 13.9381 77.7470
56.6193 -54.7976 39.4164
-6.7073 30.5566 -82.3618
-77.8322 22.6666 34.5043
79.5179 -19.4936 -32.5433
-33.8169 65.7474 -47.9152
-50.2428 41.3100 59.4248
-35.3866 -1.1984 80.6754
28.6270 -63.0244 -54.5031
39.8309 -76.0819 19.6776
34.5734 -28.2446 -75.9545
3.1437 76.9621 -42.7681
38.0697 44.7129 65.6781
25.6598 21.1739 81.5807
48.9752 59.6171 42.5371
-71.0850 -51.7826 5.2589
-44.6721 -48.8566 58.1343
-87.2915 -0.0306 -11.9311
73.0375 3.4484 -49.1508
-43.7843 -76.1155 -7.1782
51.7836 39.6482 -59.2338
-56.4113 -39.9195 -54.6476
77.2152 -9.3554 41.3818
-17.6679 -73.5028 45.2477
29.4999 -66.9201 -49.1286
42.6543 -34.9448 68.7142
10.7153 73.0188 -48.1207
21.1963 13.1724 84.4948
60.3472 15.1340 62.3806
25.5590 -83.7895 -9.3923
-55.5411 50.1426 -46.5088
78.5569 -3.6725 39.7176
-37.6627 77.0505 20.1720
3.4639 23.9357 84.7186
-35.1694 -3.7516 -80.6920
-84.7684 23.9999 0.6933
-71.3392 49.9218 -13.4423
22.2640 55.4677 -64.7287
-24.9393 -9.0241 -84.0164
9.6574 2.9207 -87.5235
43.5334 -71.0828 -28.5349
-73.7345 -18.8620 44.3804
7.3755 -87.7437 -2.9682
-78.7296 -15.0152 36.5836
62.6114 -54.1848 30.0995
-32.4252 -53.1671 62.3220
-24.4556 8.7794 -84.1844
7.1078 -35.7038 80.2302
82.3377 2.5141 31.2466
-55.8270 -37.0206 57.2275
75.2079 -32.6035 32.2947
-82.5189 29.1956 -10.0206
-27.6760 52.6123 65.0242
27.7525 39.6652 73.6114
-7.9637 -72.5652 49.3259
-14.0310 -42.0151 76.1579
-40.2108 -78.3662 -1.9997
39.5726 3.3001 78.6466
-12.8260 86.4759 -10.9348
-4.3145 -83.1287 -28.8648
-42.5257 51.6110 -57.3588
45.8932 65.0564 -37.7313
-59.4698 32.9326 -56.0443
-4.0429 -81.5569 33.0802
43.2173 51.7521 -56.7111
30.3606 80.2826 -19.8773
-41.5010 -9.6701 -77.1124
42.1963 -35.6638 -68.6275
24.8978 62.2448 -57.1651
-37.5376 -79.6617 2.6670
-5.3593 62.2902 -62.0756
35.9515 -54.6641 -59.0042
16.5908 -26.5875 -82.3408
54.0899 52.8159 -45.2431
-31.4540 51.0886 64.5195
41.4503 -17.7675 75.6859
-20.9553 -85.4115 -5.2843
-15.5765 0.3840 -86.7144
8.5715 77.1848 -41.6078
0.0593 -84.0993 -26.2576
-35.1264 -79.9834 11.4439
-22.7833 5.2838 -84.9422
45.9669 -71.7330 -22.4409
12.3698 81.8991 30.0283
-45.5367 53.8709 52.7874
34.7182 24.9257 -77.0423
-56.9703 48.6720 46.3421
-16.0716 13.6310 85.5457
-63.2840 50.8609 34.2123
-64.2835 9.8154 -59.4429
21.1807 -59.8710 61.0656
5.3519 86.3751 -16.5184
84.4384 14.3345 20.6603
-77.4928 10.5732 -40.5615
16.2904 75.2199 42.8807
37.0686 42.9594 67.3986
84.0434 13.9858 22.4336
-0.9460 34.0891 -81.2355
57.1518 64.3239 18.9279
-46.6710 73.7333 12.1399
8.2993 -78.6985 -38.7276
27.3065 -48.8239 -68.0643
32.4651 30.2524 76.1116
4.2802 -81.4823 33.2337
1.3542 -83.1855 -28.9914
74.7230 22.8402 40.7058
51.7368 44.7326 55.5380
-63.5854 -36.1098 -49.1441
47.6141 64.3560 -36.7881
-42.8263 65.3539 -40.7055
-33.7534 -43.7412 68.6263
19.9313 -61.1042 -60.2593
-73.0552 24.9962 -42.4299
71.0724 21.0587 47.6174
34.3173 -22.4925 77.9652
-85.4036 -10.3028 -19.0326
43.5238 58.8627 49.0206
-19.5458 59.0176 62.4264
55.3647 -32.3879 -60.3982
8.2813 87.6304 3.8073
63.3638 -9.2426 60.5125
-75.0060 -40.5538 22.1734
83.7104 -26.1173 8.5217
-12.7166 18.2878 -85.2409
-26.8562 -76.8847 33.6104
85.5440 6.8787 19.9269
54.0542 52.4721 -45.6835
61.7842 62.7548 -2.5904
-2.4025 -65.7883 -58.5516
-82.2175 -12.1495 -29.2377
-32.8599 69.3179 -43.3293
-29.4195 -39.0124 -73.3123
-48.0726 5.1494 -73.6524
28.3543 -64.2585 53.1888
-26.4227 -30.6265 -78.2689
23.4780 -65.2179 -54.3835
-31.6474 -64.2737 -51.2787
-55.0362 -66.6120 -17.2054
-68.4193 27.1172 -48.4317
69.5528 54.0066 2.8031
56.0421 -50.0970 -45.9538
-45.4501 -67.7090 33.3460
-39.8693 18.6929 76.3098
67.4170 9.3374 55.9457
-54.9002 16.1482 66.9878
-86.8375 13.0982 7.0608
-46.9067 56.9119 -48.1971
57.3231 -62.0489 -25.0233
-77.7551 -14.0360 -38.9782
-34.3864 -5.5278 80.9270
-18.3390 -76.9606 38.7673
57.0763 -62.7259 23.8731
-53.6364 -59.8772 -36.0558
44.6559 67.4324 34.9412
-34.2273 -25.4377 77.0946
-60.7944 -36.3410 52.3980
-45.8197 -36.0169 -66.0720
-61.7352 -40.0698 -48.4287
24.1692 22.6503 -81.6393
45.2674 50.2410 -56.4700
-82.7933 14.6174 26.3395
-81.6436 32.1032 -8.1163
-69.8840 -50.2865 -18.6994
26.9078 75.6044 -36.3607
38.0491 -65.4466 -45.0685
17.0079 -47.8261 -72.0108
-34.7624 28.9295 -75.6097
41.0810 -32.9497 70.6317
-70.5120 6.6947 52.3967
62.1823 -45.1313 43.1126
-30.3545 80.2241 20.1213
-55.8776 44.7114 -51.3882
-45.4462 23.3948 -71.7600
-38.2802 -20.9318 76.5418
1.1515 83.3738 -28.4542
46.6798 -73.9148 10.9439
58.7822 8.3583 65.0919
-22.6491 -3.8602 85.0546
-56.6465 53.7534 -40.7911
62.1762 20.1401 59.0818
46.4827 -74.8345 1.1485
-26.8854 79.3373 27.2936
51.1182 -15.3114 -70.1046
-5.8421 -9.9668 -87.3424
44.1469 69.1269 32.1666
56.0987 46.6452 -49.3896
60.7498 51.5725 37.5753
40.4151 46.3597 -63.0837
75.0768 -40.9642 -21.1560
35.6884 -79.6376 12.0976
-61.6268 -9.2894 -62.2736
-16.8006 -85.8121 10.7787
-26.5989 38.0121 -74.8982
-57.8289 -66.3625 3.7411
-77.9812 -20.9437 -35.2486
-79.3540 -17.3187 34.1345
-23.5133 14.7449 83.6175
5.7767 75.8985 44.3646
-77.3187 21.5672 36.3159
51.0850 -10.9304 -70.9437
-34.9980 30.1235 75.0325
-42.4018 75.3595 -16.8879
-56.0066 -67.9918 1.5954
-67.1017 -41.4527 -39.2580
58.3183 -52.0040 40.7029
-75.0544 45.3611 -8.4485
-71.4599 -19.2880 -47.7872
-38.3119 73.4878 -29.8983
-76.3755 17.6416 -40.2208
47.1558 -36.3190 64.9571
-14.2245 46.7227 -73.3268
48.0423 31.8965 -66.6087
-43.1656 72.8901 -24.2058
-61.1114 -62.5634 -10.6482
1.2192 70.5805 52.7170
38.5201 -36.7505 -70.1981
27.4176 -77.9473 -30.5722
-75.2589 27.4718 -36.6547
83.3943 10.4737 26.4171
-66.7835 23.0639 -52.6325
-51.5855 -39.9386 59.2116
79.1815 13.7070 36.1190
-79.3141 18.7590 33.4595
-4.5637 -57.6853 -66.4360
-49.8394 -35.7824 63.2283
23.2460 -46.3266 71.2435
12.9354 23.3708 83.9562
76.6211 34.6070 26.3386
56.4064 66.9673 -9.7909
82.4755 -17.6271 25.4803
-22.5030 -25.8573 -81.1615
31.9493 69.5536 43.6315
-56.9202 49.7015 45.2992
-65.9746 -43.5040 -38.9477
12.2402 86.4518 -11.7654
67.4727 56.4459 -4.8436
-16.9645 -67.7395 -53.7190
-74.0810 24.4991 40.9141
-86.1816 17.9969 -3.3168
16.3390 77.5128 -38.5612
-32.9064 80.3779 -14.7895
-78.3116 -36.9266 -16.3060
54.1292 -65.3645 -23.6575
-57.3616 48.1153 -46.4407
-13.3702 84.2325 -22.0972
-71.5372 49.6683 -13.3284
80.0251 -35.7500 8.9489
73.0769 -47.9867 -10.9181
-7.2551 87.8009 0.7339
1.6570 -24.7145 84.5495
41.9186 -66.7823 -39.3081
-81.2075 -32.1726 11.5077
-3.3107 -53.4906 -69.9283
1.9082 28.7152 83.2704
25.5154 80.5150 25.0693
78.2274 35.6393 -19.2999
58.1703 -37.5578 -54.4775
-42.8627 13.1782 -75.8373
23.1725 70.4156 47.6114
-43.5305 20.1616 73.8970
-14.7059 68.2750 -53.7069
-62.2759 39.8845 47.8865
40.1641 -54.3772 56.4989
72.4225 48.4356 13.0817
-87.9327 -1.0286 -5.3801
-13.1846 -60.5330 -62.6425
-5.2352 -86.0815 18.0203
70.6944 -20.8250 48.2783
52.8565 15.9045 68.6688
-87.2840 1.4850 11.8937
66.7369 -47.5106 32.4205
53.2710 25.2552 65.4717
-63.1219 49.1113 36.9576
-13.9297 -19.4389 84.7954
1.8194 -18.6010 86.0980
44.5854 -49.1701 57.9362
-79.8868 -36.7692 -5.3193
-4.5606 32.7342 81.6691
27.4979 -7.4096 -83.3734
64.9328 6.9983 -59.1348
74.0052 -45.6673 -14.1386
81.8762 -4.8456 32.1709
-31.8385 -28.5457 -77.0300
-1.7089 -36.0347 -80.3787
-14.4575 -14.6743 -85.6610
71.3657 37.0984 35.9557
82.4292 23.8198 -20.0052
41.7260 -76.1934 14.6856
63.4603 -50.8708 33.8692
-42.4533 -77.1996 0.3300
68.5460 -36.4998 -41.6099
-75.6320 44.8632 5.4090
39.0913 -63.1082 -47.4489
-58.1126 48.1576 45.4526
34.4619 -77.3975 -24.1697
61.2248 -8.3944 -62.7951
-39.9019 16.3790 -76.8227
39.8655 26.0622 74.1193
-7.6569 4.3414 -87.6624
53.5542 54.0615 44.4012
24.3395 -38.3552 -75.4893
42.5378 27.4797 72.0941
36.4119 73.2212 32.7872
33.7115 55.7505 59.3092
37.3906 -25.7483 -75.5058
-80.6198 -35.4335 -2.6601
64.2720 -22.9863 55.7037
-60.2069 58.3386 27.0906
83.5383 -19.1027 -20.4598
20.7678 60.4617 60.6238
41.2416 63.1416 45.5459
11.3457 -27.9145 82.7902
73.2748 -47.1436 -13.0554
21.5043 26.1813 81.3282
-73.9241 -43.9433 -19.1411
-54.5279 66.1143 20.4394
-66.7181 -40.5653 -40.8084
27.5938 76.3745 -34.1713
-32.5269 79.0350 -21.3923
-75.7843 40.2864 19.8977
-12.8750 53.4119 68.8736
-74.4216 0.5642 47.1515
0.8193 -40.2869 -78.3483
69.8049 -41.8369 -33.7507
81.5834 12.6636 -30.7564
-87.7893 7.1357 2.0691
40.8154 53.5324 -56.8380
82.4602 13.0858 28.1291
-5.6299 19.7685 -85.6719
-60.7668 63.5790 -5.2217
33.8663 76.5554 27.4684
79.5591 29.9365 23.1585
77.5760 31.3011 27.6472
-63.0779 19.4827 -58.3418
