ply
format ascii 1.0
element vertex 1024
property float x
property float y
property float z
end_header
85.8523 17.2792 7.4186
51.9848 -18.1091 68.5118
20.4672 -85.3032 5.3554
-84.3266 19.1777 15.6669
-22.8065 -49.8825 -68.6718
-0.2042 -87.5277 -7.9428
12.6665 -66.2617 56.3309
21.1205 -84.5023 -11.7260
-69.6591 44.4456 29.9403
-54.5191 -21.1169 65.6199
33.8901 69.5171 -41.7499
18.5746 7.9161 85.5368
-25.8559 -64.5845 53.7078
33.4902 80.9316 7.2594
13.3317 -27.1759 -82.5103
-57.7271 -66.0595 -5.2863
79.8243 36.6563 -2.9354
56.1016 -19.5270 64.7729
-78.3235 -32.3228 23.3429
61.9949 -56.6588 25.8966
-49.7533 -65.6384 30.6665
8.1552 -64.3086 -59.3474
62.2428 45.9387 41.7096
-77.9306 -4.1651 -40.4190
-9.9898 -57.6195 -65.6081
81.0501 10.7029 -32.2575
62.7816 48.4739 -37.8546
-83.8681 8.4440 -24.8810
-59.6040 7.8404 64.1101
4.0911 61.5685 -62.5843
68.3469 32.1206 -44.9576
75.1948 -20.1284 -40.8021
-82.5055 13.7813 26.9653
53.8432 -61.0797 -33.0817
80.7306 -4.2902 -34.4731
0.3397 -61.8711 62.4185
38.0486 45.9805 -64.5161
-86.0215 5.6737 -17.0976
-41.6698 36.5061 -68.2287
-73.2600 -19.5929 -44.4220
-10.3729 57.1032 65.9988
43.3854 -53.2704 54.8105
0.9959 24.6003 84.3685
-46.9123 -6.7848 74.0096
33.6299 -1.2810 -81.1887
3.2273 -87.1704 10.7299
31.2421 61.6043 -54.3420
8.6428 86.8746 10.1153
-40.0429 -49.8081 -60.3319
68.6026 3.5650 54.8197
-78.8704 28.4343 26.3661
-19.6064 39.6682 75.9358
-9.9087 -4.0288 87.2342
36.8656 -26.4963 -75.2535
24.7974 -84.1607 -5.1275
-84.6955 15.1859 -17.8963
55.2452 -32.2008 -60.2934
-45.7416 75.0458 -0.2487
-66.7013 -26.4315 -50.7596
83.9485 2.3080 25.9141
71.2338 -47.1598 20.6377
-1.9845 87.8651 -0.0235
-74.2470 -32.1198 34.3500
-58.0090 52.7210 -39.7451
-58.3656 1.9061 -65.6814
29.8212 62.4244 -54.2043
1.3268 -73.3485 48.3990
-17.9908 -84.9447 13.5997
24.9488 15.5904 -82.8174
-51.2573 60.6498 37.6631
63.6291 -30.8529 52.1887
-82.8631 -10.9862 -27.1518
-29.0253 -43.6996 -70.5131
28.4639 -76.9893 -31.4113
-20.6884 80.3168 -29.0762
-78.9954 -18.1100 33.9997
-75.5784 -22.3426 38.8963
-69.8972 -7.1942 -52.7905
-74.1031 -32.8789 33.9401
-82.1603 -24.3554 -19.5122
75.0283 39.3157 -23.4358
14.0271 34.2511 79.7140
-24.1483 39.4014 -74.7570
40.0435 8.9489 -77.7217
86.9811 5.7825 -11.1837
9.4517 -87.0754 -7.2637
-79.5796 -36.5471 7.4580
-64.1283 -19.6781 56.7852
-6.8749 15.2106 86.2878
21.2831 -61.2743 -59.3019
81.3047 30.3213 13.9420
20.7622 -21.9215 82.5385
-35.7812 -78.2211 18.0382
45.2702 37.0597 -65.5851
-31.6738 64.3843 50.7509
-48.7577 -28.4222 67.3727
-11.1445 -75.8540 -42.9673
71.1035 51.3663 -5.4785
-58.7797 25.9179 59.9786
57.2279 42.3007 -51.5736
19.3944 83.3067 -20.2008
84.9518 -16.3143 15.5324
-16.8292 80.1476 31.8962
22.2668 65.2343 -54.5243
13.8630 -15.3970 -85.4106
-41.9992 -75.0457 -18.1225
-26.3638 -50.5809 -66.8636
-59.5049 55.4452 -33.3050
26.9358 -77.7813 30.8019
-64.6948 -57.5490 15.0637
-66.9932 -10.6419 -55.8827
-18.1117 -41.2251 -75.4763
-65.8267 -24.9174 52.6326
74.0346 -42.7977 20.2844
18.0601 83.3124 21.3798
40.6577 30.8303 -71.5588
-15.5045 -73.5299 -45.5761
-83.2851 -5.4462 -27.5344
-69.3967 29.6772 -45.0287
49.0358 58.1328 -44.0488
74.7224 -39.0040 -24.8893
-64.1886 37.6634 -46.7494
-61.6935 44.6358 -43.8837
-45.3997 -64.9147 38.0679
43.6546 72.5555 23.5413
40.6995 76.8491 12.7272
-49.0368 -47.7201 -55.1580
-31.4900 76.3301 30.1051
-19.7629 71.0858 47.7540
-62.1444 -3.5951 -62.0433
-47.7697 -33.3001 65.8284
-28.1334 44.6853 70.2564
1.2252 -64.7137 59.4546
-13.0445 50.7697 70.5443
55.8360 -38.9059 -55.6137
26.7365 -24.0441 -80.1951
-2.3180 32.7019 81.5440
-73.0289 13.0297 47.1298
-58.2896 -5.2006 -65.5706
76.5635 21.3674 37.4925
31.5724 76.8590 -28.6374
-32.9361 75.3206 31.0845
12.0372 67.0671 -55.5097
-45.8504 -45.0022 59.9730
19.5616 -52.8017 67.4800
-35.9707 57.1116 -56.2903
-63.8449 -37.0719 47.6835
58.4150 41.6289 -50.7833
-42.3004 -73.6746 22.5156
57.2204 -62.3222 -23.7905
81.1786 1.0969 33.6608
36.8758 78.8880 -11.8775
-10.5036 -81.3893 31.4591
-24.5057 -70.6668 46.1507
9.2674 10.5558 86.7578
10.0158 63.7737 59.6391
-40.3969 62.0294 -47.3779
-28.9047 -31.0340 -76.9781
15.3844 -86.3852 5.0144
-81.7899 25.9067 19.0651
56.2095 63.5199 23.0205
40.2810 68.4335 37.6632
-67.5846 -15.0308 54.1352
75.8593 32.7580 -29.9417
23.1816 82.2905 -20.3743
61.3383 -62.0297 -10.6842
-31.6105 25.8002 77.8418
87.0724 0.4940 11.9323
56.2386 -63.7866 22.1969
55.0311 -33.3823 59.8449
82.8851 -16.3563 24.2230
-80.4629 -35.3420 -0.9422
6.0511 84.6981 22.6678
-49.4433 -67.3198 27.3427
17.7667 -68.8895 -51.6024
-48.5688 65.9788 31.8133
22.2439 -61.5893 -58.6190
-17.9072 -31.4206 -80.1018
41.0640 -77.4271 6.5579
50.2653 -13.0572 70.9023
48.1641 20.6758 70.5475
39.7617 4.3117 78.2600
-68.5341 54.7821 -5.1213
-81.1057 33.0705 7.2402
32.9902 51.5461 63.0783
-37.5279 62.8331 -48.6608
59.4845 42.4088 -48.8601
-68.8009 -41.5714 -35.5312
-69.9376 48.6701 21.5445
-22.8681 83.1813 16.7969
-40.1806 -13.8275 76.9321
12.5566 -68.5098 -53.6000
-38.1698 -79.1304 -2.3804
-39.5397 62.4447 -47.5551
66.0375 -40.9667 -41.0487
20.8212 12.1479 -84.5170
-73.1805 -27.3171 40.2817
61.9462 54.6602 29.9859
-60.3967 27.1521 -57.7860
30.9868 -65.2462 50.0697
48.7599 52.6463 50.7451
-58.1821 -23.9637 61.3580
-43.1416 -63.4993 -42.7886
1.8359 -75.2514 45.3660
27.4747 74.9133 -36.8423
-17.2839 -4.5749 86.0497
62.3158 36.9693 49.7416
47.6063 41.2083 -61.3167
-44.9168 58.0108 48.3885
86.4679 13.3368 8.3460
-71.4599 -25.9442 44.0977
-78.8617 -29.3901 25.3235
73.3273 47.5333 -9.3764
-74.5816 41.7515 -20.4600
55.4058 7.9125 67.7629
-29.0893 -69.3033 -45.5532
-15.5651 14.7029 85.2395
-11.1691 -82.1732 -29.1037
32.6503 -60.1649 -55.1213
67.6430 55.9392 4.4101
32.2094 52.6917 62.5329
32.3732 -3.3558 81.6390
69.9181 40.8424 34.1698
12.8513 86.9161 -2.1591
59.7882 -5.8715 -64.1492
74.7696 -37.2225 27.3534
-87.5928 6.3409 -3.3941
-46.8301 -74.2666 3.9545
-20.5525 -14.0057 84.2951
56.3465 66.9040 -8.5527
74.3646 26.2586 38.7893
-57.5069 -31.2134 -58.6762
-63.4055 -5.5539 -60.6063
79.5020 -31.6528 -20.0438
23.4628 82.0888 -20.8601
-0.5883 -50.3389 72.0407
-3.6769 86.3363 16.0231
-13.7468 -65.3431 57.1447
57.5861 -65.2887 -12.0603
45.1836 16.7565 -73.4975
85.4529 7.3836 19.1706
36.8806 -28.1820 -74.6312
68.7068 51.9108 17.5747
-85.3479 -20.4726 4.5631
-35.5138 18.5988 78.2117
28.8917 77.5752 -29.5226
29.6912 76.2828 -31.9935
-41.2842 53.4209 56.2675
37.5028 79.1785 -6.9666
-64.9087 58.3480 -10.3243
-79.7424 31.4281 -19.4331
-5.5562 -81.4766 32.4793
-56.5320 -67.2741 1.5984
-25.0598 38.9741 74.6810
-65.8748 50.3596 29.1314
-22.8148 -19.9774 82.4901
80.2763 -19.9479 -29.6988
-77.1267 -31.1228 -28.4088
23.4561 65.6586 53.5068
34.7800 -79.9888 10.7869
-33.6062 -58.0715 -56.7674
82.7978 26.2546 -13.3956
45.2639 -30.9868 -68.6675
46.6401 68.6752 28.8553
-53.0413 -7.1818 69.7084
-18.9091 78.6322 34.4040
-73.4300 47.6614 7.7875
20.0705 76.6212 -38.0865
-13.9569 -29.5720 -81.5777
-47.6248 -50.7114 53.7071
70.3820 -25.0904 -46.2717
57.1734 -56.1566 -36.0812
49.2584 -56.5939 -45.7707
-2.3104 -87.6962 5.3157
-82.1425 -13.6671 -28.1076
-53.2913 68.3900 -14.3894
-66.4655 19.0825 -54.2440
-62.7983 -34.3084 -51.0248
31.0596 -33.3246 -75.1598
-74.5548 -15.4494 43.8989
85.0571 -8.9788 20.2210
-0.6242 -80.6463 34.9286
-46.0569 -64.1497 38.5720
36.2973 74.3717 -29.5900
27.8820 80.7221 20.7546
26.8870 -14.8836 82.3395
83.1028 23.0434 16.9456
-27.0272 -57.8696 -60.3727
81.4404 31.6870 -9.3607
86.9348 -4.3027 12.1673
-82.4653 -29.1216 -8.6959
57.4064 62.1309 -23.8426
-74.2731 23.9657 -40.4149
-61.3809 -24.0359 58.1281
-79.6283 22.9337 -29.2848
-32.3668 -58.3436 57.2070
78.9305 -5.1129 -38.3152
-78.1368 8.8319 -39.2538
-73.6504 -15.2444 45.4692
48.7323 72.7483 -7.5549
-27.0436 -68.2824 48.2741
39.3308 -21.8908 75.4858
-65.1205 -37.4483 45.6198
49.8207 -63.8963 34.0497
-20.6629 8.3128 85.0186
-77.5615 36.4684 19.4546
-32.4096 -78.3646 -23.0829
-24.8790 -42.2966 -72.9126
-27.4241 15.2144 82.1015
-66.8023 56.7851 -6.0925
-63.8565 -29.6621 52.5997
-58.8472 64.5185 9.9296
47.0868 -13.0286 -73.0569
-6.6882 -85.8651 17.5121
79.3675 -9.5696 36.5164
22.5243 1.7666 -84.9338
-48.3388 58.4369 44.4152
56.7884 -46.3810 48.4573
-35.2730 -79.2082 -14.3563
17.8752 16.4636 84.4609
46.2027 65.6609 -35.7516
5.8737 43.1643 -76.3319
-38.1126 -54.4961 -57.4615
84.8827 19.4028 11.9451
-66.8685 -21.1534 -52.9657
-44.9663 -6.5982 -75.2244
-62.0307 -7.7609 -61.7752
-64.3660 -32.6702 -50.1388
-54.1117 31.7155 61.5652
-6.9474 45.0309 75.1543
81.8726 -29.8439 11.4212
18.0492 -85.2693 -11.2953
-68.6662 32.5316 44.1686
78.2202 2.6077 -39.9878
15.1741 7.5520 86.2377
24.1614 -4.9578 84.3556
10.9396 -87.1858 -1.7825
61.8523 61.2012 -12.3660
-6.1576 87.6521 -1.8457
-27.2016 -65.5866 -51.7947
-9.8601 22.4935 -84.3863
-65.8330 -20.0073 -54.6804
-29.4461 -55.5627 -61.3997
-38.6846 8.8718 78.4157
71.2748 46.2266 -22.5215
-41.6435 17.7156 -75.3405
7.1609 -51.4037 70.9267
-43.7831 -57.0319 -50.5432
-42.9946 -45.2163 -61.8965
-79.9093 -36.4159 -3.5493
-10.9010 22.6631 -84.2127
-79.1907 -26.6686 27.2367
-25.7656 -29.4244 -78.7055
-13.0167 -22.2025 84.0347
-74.7005 21.3878 41.0684
-9.0966 -55.7057 -67.3672
-57.2411 62.5038 23.2583
77.3637 -34.3873 -23.5921
-53.8113 50.4037 -47.8333
40.4102 -49.9058 -60.0054
76.6577 42.9655 1.3385
10.0777 68.2808 -54.4095
72.7444 46.6156 -16.1080
-9.5637 -65.1158 -58.2468
-50.5954 26.9010 66.6383
7.9306 -50.4680 71.5143
-13.8206 -4.6898 -86.6673
35.7507 2.8503 -80.2370
-0.2628 -87.8082 -3.7244
62.4634 20.4986 58.3296
37.7166 -46.5815 64.2794
1.7176 87.4971 -8.0954
68.6479 -6.2670 54.5199
-56.5871 -15.2988 65.4833
-79.1907 0.3318 38.1176
44.0079 -49.4844 -57.7825
-82.6986 -23.8969 -17.7229
87.6289 3.6828 -5.6417
61.5851 -62.4544 -5.5629
3.2639 25.8109 -83.9486
4.5840 -87.0573 11.1458
-20.0156 -18.6768 83.5151
-76.2035 -43.4522 5.3996
-50.4645 -71.9144 2.4231
76.7350 21.2713 -37.1953
-45.0337 -56.3346 -50.2254
-72.0599 50.0429 5.2255
5.5761 75.1603 -45.2112
66.0571 23.1737 53.1382
71.4728 50.9105 4.8961
58.5910 47.0574 -45.5732
-69.6486 -16.0970 -51.1290
51.2803 28.3572 65.5013
-70.6324 10.7532 -51.1825
33.9604 -37.5176 71.8564
-42.4048 -73.3791 -23.2716
-83.0959 28.4051 3.5271
-11.5026 -31.5384 -81.2234
-33.3938 -67.2188 -45.7242
-11.2925 85.4710 17.0707
5.7220 -87.3234 -8.1304
51.0889 70.2316 -13.4785
-75.7301 35.9756 -26.3615
22.7237 -39.6910 -75.0498
-20.7451 -84.9606 8.6920
44.7673 67.3538 34.4031
-1.7599 14.5165 -86.6625
73.8632 -19.2064 43.5840
55.9707 34.8390 58.1184
75.6543 10.0989 -43.5737
35.3041 77.5414 -21.5681
-66.4260 21.6853 -53.3062
-49.1187 6.0258 -72.6310
8.3422 -24.5527 83.9750
-72.1245 4.6779 50.0039
-62.4264 36.4071 -50.0168
-75.1686 -20.9541 -40.4329
36.4571 -55.2780 -57.7879
-32.4368 78.7676 21.6271
-19.7736 -85.6198 -1.5715
-70.7063 42.2629 30.6380
66.6153 55.9860 12.3364
75.1203 45.5587 2.3580
54.8128 -21.6811 65.1898
81.6847 31.8460 6.1369
73.9709 -34.5171 -32.5744
-1.7232 72.8519 49.1309
-21.6298 80.0095 29.2377
59.6900 45.3192 45.9075
-61.0651 9.2780 62.5236
-77.3307 31.2976 -27.6521
-61.9815 51.0811 35.6824
-45.6016 75.0977 2.2483
53.1302 53.0101 -45.7311
-72.9069 -12.7693 47.3894
-13.3884 74.7386 44.2618
-4.9912 -72.1555 -49.9288
52.3277 -70.6116 -0.1869
19.7109 22.7688 -82.5669
-23.4403 -84.1539 -9.6379
41.1260 -73.2491 -25.8350
-73.8859 -24.6968 -40.6837
-18.8884 -17.7992 -83.9681
-53.1041 67.4886 -18.6941
81.4653 18.0124 27.6257
73.7292 -43.7864 -19.2607
68.9231 -17.6062 51.6125
-32.0662 -67.1288 46.7942
-34.6126 -80.6433 -4.7793
29.7454 -79.4631 -22.9140
50.0403 55.7142 -46.0012
-52.0939 -39.2048 -58.9358
1.5884 42.8437 -76.7210
-42.9372 29.1798 -70.9166
-8.0095 78.3070 -39.0908
72.2337 6.3998 49.6544
30.0767 72.0040 40.4355
-15.2289 28.5334 -81.7199
14.1346 -84.6582 -18.9056
17.9620 -56.4388 -64.9327
30.5431 81.8793 -9.3337
80.4136 35.2534 -3.8824
-85.9384 10.4389 15.1607
82.9771 26.9512 -10.6142
84.9128 -0.8892 -22.6549
32.5050 73.8219 -34.8994
49.1329 70.0446 -20.0980
-74.2140 -46.7555 -5.5155
76.6383 -0.3275 43.0195
-47.5579 -52.1616 52.3606
-11.1539 70.3918 -51.4276
-14.6102 -41.4033 76.1349
85.3803 -13.1314 16.1863
-10.1943 -85.4563 17.8189
46.6003 -14.8186 -73.0277
65.8049 -36.6422 45.2912
35.7308 -51.5764 -61.5419
81.4183 23.3508 23.4525
-45.5487 50.1739 55.9653
4.3193 28.6085 82.9887
75.9009 43.6016 7.8849
42.6887 -46.0589 61.4856
41.0387 -29.1390 72.0484
-33.1461 8.5610 80.9461
28.9843 -32.8702 76.1819
64.2856 -16.5412 57.6018
-79.8201 18.3002 -31.9074
-40.8166 -77.8343 0.2324
63.9559 -36.4980 -47.9766
-28.5355 30.7765 77.2189
-22.9410 77.0533 35.5066
48.1279 65.8138 -32.8095
-21.0436 84.1435 -14.1868
82.9281 -15.7649 -24.4667
-43.5991 28.8702 -70.6389
12.5209 -25.2719 -83.2393
-47.7652 25.4643 -69.2407
14.9576 50.9203 70.0544
-13.2387 54.2012 67.9057
65.7327 31.1404 -49.3327
-44.6057 2.7635 75.6764
82.9524 -6.5613 28.2855
-20.9538 52.5272 -67.2760
51.2906 -67.3483 -23.6158
41.4265 16.5394 -75.7266
-66.9003 55.4565 -13.1588
-32.6285 -79.3772 -18.9436
-36.3334 74.9760 27.9769
-68.3749 40.8140 -37.1928
-9.9649 -76.0563 42.8994
9.3236 86.0309 15.3617
2.3905 3.3814 -87.7899
-68.7450 -27.0913 47.5857
30.4203 -52.0135 -63.9799
45.0298 -72.2731 21.7518
49.5884 20.6781 69.5530
-52.3745 -34.9988 -61.2879
-8.1429 75.0434 45.0155
-72.1102 34.7607 -36.2772
81.1430 15.8596 29.8078
-33.3978 78.5148 21.0770
-82.2827 -30.6473 -3.8105
63.6180 6.7393 60.2623
-73.7915 -46.7014 9.9001
-85.2277 -10.2408 18.8571
-26.3806 -2.1273 -83.8079
68.0054 39.9679 38.7562
-3.4564 69.3105 -53.9289
-14.0539 -56.5501 -65.7936
-79.9427 -33.1519 -15.3080
-74.8313 43.7995 14.3563
-66.8881 -29.8373 -48.5791
-3.0846 -81.6933 -32.2631
-83.6600 19.3901 18.6881
-19.7946 -71.8968 46.5107
72.3521 38.9247 31.2130
-73.0935 -24.0206 42.4802
76.1615 -18.9856 -39.5372
-79.1246 19.6982 -32.7948
-76.7027 30.8455 29.8241
-46.3043 0.2585 74.6998
26.4769 -52.2568 -65.5166
-55.6853 -65.4229 -18.5260
-56.4441 -54.4888 -39.6137
3.5715 56.5509 -67.1823
69.0089 -52.1188 -15.6724
-16.1387 -2.5910 86.3542
19.3082 -49.1598 -70.2476
15.5900 -54.8299 -66.8944
18.2225 42.2570 -74.8766
52.6758 53.3624 -45.8469
52.7996 5.0412 70.0786
-22.6428 63.7404 56.1132
-74.8215 36.8175 -27.7566
13.0383 85.8063 -13.8383
-17.6681 -63.9920 57.5941
-85.8910 -7.7135 -16.9548
20.9677 15.5495 83.9213
-5.0578 -35.6901 80.1552
68.2436 -51.4507 20.4904
-35.7158 51.8914 61.2853
-33.3187 52.4223 62.1771
51.2709 -63.9646 31.6867
72.3424 27.2252 41.8280
50.4657 -35.4145 -62.6359
87.4895 5.8685 5.9470
73.7079 44.0572 18.7172
-38.8956 75.8999 21.2262
14.5337 75.4228 -42.7129
-12.5001 86.9253 -3.4575
63.7516 -7.4735 60.0341
46.4546 -73.5306 -12.6274
10.3125 -23.2455 -84.1280
13.1543 -46.2151 73.5890
-85.0838 -21.6317 4.1268
-57.6604 -65.6026 -9.7872
-21.7958 -48.5567 69.9386
13.1704 79.3629 35.3878
-6.8094 -67.3271 56.0796
-85.2371 -18.8609 10.1548
-66.1456 44.3213 37.2104
-12.8716 -86.9315 -1.2053
-33.2852 -65.5534 -48.1566
-31.4145 -72.2449 -38.9618
16.4836 -73.0278 -46.0375
-35.6230 -74.9292 -28.9972
-69.3033 -46.7881 -27.0583
25.2606 -80.1192 -25.8271
-57.2365 63.9018 19.0988
52.5154 62.5056 -32.5485
-14.1031 -53.7787 -68.0674
-49.8892 -57.2442 44.2536
73.5848 12.2131 46.4794
-72.2249 -50.0610 1.2948
48.8021 45.1326 -57.4946
-25.6608 66.5540 -51.3450
-13.4504 -48.3768 -72.1318
-52.5767 8.4336 69.9198
-31.8825 -55.0009 60.6846
5.7411 -76.7264 -42.4774
-68.0348 36.0672 42.3632
-54.0192 45.2686 -52.5062
38.5499 34.7087 -70.9466
-53.8759 -18.0928 67.0393
9.1463 -87.3969 1.5306
-25.9968 -31.5333 77.8077
20.3266 84.7573 11.2809
-0.9710 60.9135 -63.3468
-11.5754 67.7412 -54.7846
-69.0323 -50.8344 19.3553
-61.2684 44.3482 44.7620
-22.4280 71.5154 -45.8994
69.4599 -53.6382 -4.7412
-54.4758 6.9602 -68.6161
47.7855 60.4897 42.2110
-35.4643 -29.0556 -74.9818
-67.3542 -26.0539 50.0882
43.1724 73.0091 23.0225
-29.5567 -80.2511 20.2577
-12.0797 -84.3639 -21.4718
-2.1419 -41.9527 77.1985
-82.7503 12.3897 -26.8907
-25.1710 83.8944 -7.2371
43.5056 76.3640 -0.1220
-23.4281 -50.7891 67.7924
75.1704 42.0235 -17.5402
-57.3158 -41.8807 51.8182
-72.7162 28.5952 -40.2354
75.6398 -24.2974 -37.5829
36.1886 71.9745 35.1323
52.4490 16.0187 68.6784
-18.6573 -84.6890 14.2791
-8.3075 -81.7176 -31.2641
69.0359 -18.2513 51.2362
-5.4740 84.2907 -24.2762
-60.9931 -19.5508 60.1816
80.2094 -9.6398 -34.6085
87.6859 -3.5198 4.7970
-3.1008 87.7988 2.4439
-7.9273 -85.9949 -16.3175
0.9526 87.8101 3.5626
78.2688 -16.8022 -36.2754
-79.7603 36.5058 -5.4630
-1.0068 -87.4471 -8.7302
56.2380 56.2328 -37.4083
-56.5609 64.6313 -18.6517
-50.2265 49.1646 -52.7671
-45.7082 36.0398 -65.8492
-37.7732 39.4997 68.8272
-24.8219 20.0465 81.8916
55.4958 -40.9722 54.4584
-86.6968 2.6812 -14.1669
-80.0357 -35.4421 -7.8970
29.2946 -1.2285 82.8525
15.5769 86.3565 -4.9136
-73.3419 -10.6491 -47.2417
19.9928 77.2685 -36.7979
-66.2155 -39.4145 42.2636
-17.7698 -59.3454 -62.3424
-66.3014 -53.5780 21.3951
67.3691 20.9114 52.4246
57.3957 -58.2602 -32.1822
19.9976 56.8058 -64.0111
-41.2855 -67.6063 -38.0672
26.9564 -8.3238 -83.2363
23.4115 82.5291 -19.1068
83.8441 25.5845 -6.3104
-30.9300 -80.2702 -18.0070
-51.9386 -25.4639 66.1679
60.3150 13.1133 -62.5649
-11.7537 71.1343 50.2591
-52.8735 -66.4185 22.7419
-49.3474 -72.3555 -7.3311
-5.6060 -83.8634 25.6852
79.4412 32.2400 -19.3365
60.6460 -31.7534 -55.1181
-33.6903 71.3482 -38.7119
21.9153 43.8405 -72.9517
-83.8585 -19.5767 -17.5704
26.9826 -82.3480 14.6617
-7.7915 81.1255 32.8964
-16.2529 -9.2226 -85.8779
-68.7576 -22.3249 49.9821
-48.2363 31.2160 -66.5060
47.5262 -48.6128 -55.6981
-39.1344 -77.7929 11.8739
49.4699 -31.3305 -65.5389
-82.6505 -25.3384 -15.8457
49.4310 71.6411 -12.1802
-74.3579 46.8070 -2.0580
49.8062 53.3043 -49.0124
70.4242 1.3964 -52.5614
-9.7785 78.4492 38.3969
-40.2981 49.8385 60.1366
19.4628 76.9920 -37.6517
9.7721 19.4856 -85.1413
-38.8216 13.1690 -77.7411
87.6106 -1.1372 6.8784
-64.2504 -58.0970 14.8608
-36.8498 11.2353 78.9942
87.7658 1.7740 4.2697
73.3864 43.9763 -20.1183
26.7067 -61.7869 -56.5097
-69.9280 13.4556 51.5096
0.5617 -43.8994 -76.1364
24.0255 63.1815 -56.1702
4.8472 -61.8213 62.2804
-84.4082 -15.6487 -18.8306
-80.4424 -34.7954 6.5214
-75.1241 -42.5344 16.4748
23.3835 80.2236 27.2325
-2.8012 1.8253 -87.8239
45.6547 -61.0174 43.7807
-71.9448 7.4562 -49.9257
-52.5252 39.9451 58.0492
-18.9952 -64.4179 -56.6899
68.6327 -54.8879 -1.0400
-22.0819 -80.6060 27.1897
61.4301 -9.5766 62.1197
-72.6719 -2.6682 49.3548
31.7944 -76.9976 28.0125
-42.7470 58.4802 49.7692
-64.8850 -55.7937 20.0305
-87.4283 2.9954 8.4584
22.1984 -37.7808 -76.1844
-58.0729 -37.4165 54.3301
81.3790 14.3491 29.9297
-4.1783 5.7124 -87.6021
74.4103 13.4457 -44.7944
58.2280 46.1534 -46.9424
81.4273 30.4626 12.8782
-18.2679 -40.1600 76.0110
-11.3936 53.8824 68.4915
-37.2314 70.1994 -37.5511
21.1455 4.1129 85.2066
-64.3758 -3.1970 -59.7475
-51.5196 -48.8564 -51.7977
36.0818 -60.2996 -52.7853
-29.0071 33.0585 -76.0917
46.7350 24.5040 -70.2824
82.2580 22.7615 20.9703
-41.6568 47.7050 -60.9358
45.6788 4.2511 -74.9640
-2.3502 -82.1347 -31.1863
-36.5397 -67.9732 42.0560
-59.7717 -46.1722 44.9410
57.3725 66.5666 1.2257
34.6857 9.1550 80.2328
69.0739 -20.6680 50.2578
66.3028 9.0218 -56.9803
47.1029 -44.9031 -59.0699
53.6215 -68.9327 -9.8609
-4.2679 80.0795 -35.9621
-45.3469 49.2619 -56.9310
-6.8684 74.2355 -46.5417
-16.3123 -70.3439 50.0985
58.8629 -49.3768 42.6768
23.6363 74.0381 -41.0354
84.6531 -9.1924 21.7617
-77.2737 41.6906 -3.8591
85.1665 -21.0156 5.4074
-15.3308 86.2629 6.9204
-70.4455 23.1220 -47.1913
69.0876 -53.1274 -11.3403
6.8201 78.3866 -39.1566
-20.2058 66.3535 -53.9737
77.0004 -38.4634 -17.7684
52.1271 67.4420 21.4141
30.8137 64.8375 -50.7035
9.5695 82.8278 -27.7885
77.6041 40.7188 -6.6188
-41.3350 28.8481 -71.9960
61.8864 -38.6607 -48.9861
-65.0178 -42.5096 -41.1076
-44.9377 -47.9514 -58.3565
87.2897 9.4123 4.0177
-11.4743 23.6102 83.8756
69.7856 -37.1970 -38.3480
-23.1307 42.7334 -73.2328
16.6283 -39.2195 -76.8736
-44.2484 -57.7329 -49.3275
33.3350 29.5869 -75.7470
-22.2992 -68.6284 -50.1708
-23.0665 25.3982 -80.9141
-19.4016 65.1629 55.6920
-64.3556 11.3275 -58.7730
40.2035 50.3741 -59.7524
-2.2294 78.3719 39.7127
25.9509 30.7623 -78.1310
85.3536 19.8566 6.6864
-36.9350 78.9995 -10.9131
-64.8585 49.0343 33.3651
66.8775 -4.2080 -56.8675
-81.2616 -0.2825 33.4769
-53.2310 59.6036 36.5800
-81.8038 7.7095 -31.1918
-29.7558 -48.8305 66.7412
-28.8252 51.2252 65.3399
49.3636 -72.3448 -7.3265
47.9431 -58.5766 44.6594
-60.9608 -29.8362 55.8372
23.5073 80.7033 -25.6633
78.2878 -3.4327 -39.7927
-37.0452 51.8189 60.5531
-40.6604 76.8068 13.1020
57.5095 63.9569 -18.0663
3.3210 -16.7601 86.2107
-76.3089 -28.2702 -33.1960
43.4366 -24.7444 72.2855
42.4172 -34.3512 -68.8839
-54.1117 33.2666 -60.7410
-23.0689 32.8000 78.2062
-23.8556 -76.8021 -35.4482
16.1257 -84.9591 -15.6883
81.7358 -30.9518 9.2451
9.3676 79.6160 -36.0244
31.0897 74.3668 35.0319
37.0638 78.6423 12.8795
-36.6950 -15.5004 78.3418
17.9446 -61.0866 -60.5857
27.4207 80.9127 -20.6267
11.7480 -71.5467 -49.6717
9.3149 -22.0261 84.5713
2.9960 -57.1973 -66.6612
-24.0226 -28.1908 -79.7020
-64.2896 42.8526 -41.8894
-6.7551 86.4119 -14.5454
82.9334 -29.0893 -0.2946
71.6962 -36.5517 35.3250
-8.0472 -58.7140 64.9009
-36.0765 -69.3447 40.1749
-68.5995 -54.0058 -10.0845
-16.9454 -70.7247 -49.3467
-3.8728 78.3542 -39.6213
-24.3213 -83.2426 -14.2609
24.0490 75.3580 -38.3019
51.3243 23.3056 -67.4306
58.2825 63.4817 -17.2464
-85.9810 9.8511 15.3113
-39.3232 -74.5954 -24.7674
5.1562 -15.2570 -86.3994
-41.2133 -55.2528 54.5234
29.5369 -37.4812 73.8035
45.2480 11.2911 74.4939
-36.1830 -54.0416 59.1144
45.7950 74.9297 3.5469
-69.0490 19.4430 -50.7782
81.9476 -31.2884 5.4623
-33.7695 -23.2265 77.7455
18.6533 -17.8322 -84.0136
-60.1976 57.5588 -28.0616
5.7162 66.4881 -57.1916
-37.9136 44.4956 65.6271
-68.8079 53.6765 10.4180
67.9523 -7.2796 55.2604
34.8572 80.6452 2.3557
-64.2589 52.3063 29.3097
28.2614 56.7528 60.8657
31.0746 14.9025 80.8487
-76.8227 -42.2868 -5.8583
84.3058 -9.9411 22.7579
8.8461 -69.4579 53.1184
-45.2959 17.4795 -73.2596
-66.9095 -22.5737 -52.3236
71.7407 -42.6938 -27.4724
-45.0506 73.6557 -16.4167
52.8985 -54.1529 -44.6479
-82.7684 -7.9291 28.4734
70.1506 13.2692 51.2546
-51.4980 -67.3571 -23.1345
10.2966 65.3381 57.8716
-80.6792 8.4224 33.8252
34.8471 73.6416 -32.9670
60.8209 61.5628 -15.3317
83.8337 16.6324 20.4816
-79.6822 34.7138 -13.0350
-79.0788 -1.1716 38.3327
-4.4504 51.4247 71.1331
52.5060 70.3546 -4.1916
0.7350 13.2366 86.8819
58.1061 62.3738 -21.3872
-86.7856 0.7067 13.8558
46.9877 -71.4366 -20.3268
34.4435 -80.5124 7.4583
33.7909 73.0001 -35.4031
-71.7641 -32.7732 38.7305
-60.3513 39.9753 49.8389
-14.7878 58.1353 -64.2326
-74.6842 30.9349 34.4895
42.2700 -23.0074 -73.5400
-19.9760 0.2012 -85.5870
-83.5816 -11.6097 24.5674
23.2591 23.6034 81.4009
-76.5106 42.3288 8.8665
-76.7236 -39.7456 -16.0623
36.1226 -23.9060 -76.4715
-72.4965 -48.8667 8.9737
13.4672 -1.6753 86.8334
81.6122 20.5399 -25.3333
75.8192 2.1593 44.3961
-13.7197 -76.7635 -40.5382
79.5356 -28.6102 24.0784
-18.9977 -80.1692 -30.5975
-31.2645 -9.4721 -81.5906
-81.2638 21.2110 -25.8942
63.7895 -26.2669 -54.4534
-12.5945 86.4148 9.9037
33.8825 53.1754 61.2256
71.0232 41.0119 31.5904
66.0959 -56.4432 13.0276
-70.5122 51.1072 -11.8452
85.0966 -4.4295 21.5214
-15.6573 79.5595 33.9022
-33.3201 75.6634 -29.8168
-46.8163 58.8558 -45.4802
-5.2007 -63.4257 -60.6165
-41.9671 21.4584 74.1790
-56.3784 -20.5975 64.1985
-19.7593 12.4076 84.7339
76.1262 42.1625 -12.3023
-55.4004 -60.5651 31.4148
63.7394 43.6697 -41.8864
52.4350 70.4296 3.8042
19.4987 -13.3173 -84.6562
16.2979 66.6425 -54.9306
22.0707 62.5799 -57.6269
85.1267 1.0197 21.8316
-1.6484 -87.2386 10.5326
48.0904 -33.9976 65.2357
-87.1561 -5.7198 -9.7633
-21.2711 15.7531 -83.8069
70.4621 -39.8980 -34.1682
-65.4490 -11.5885 -57.5010
-27.2008 82.9683 -10.0295
1.5126 45.6193 -75.1053
-56.0585 -67.3307 6.9452
-52.5388 49.9040 49.7342
49.6712 -71.2166 -13.6083
72.6138 9.7442 48.5438
63.1774 -61.0535 2.3040
69.4832 27.7728 46.0974
30.0002 12.9678 -81.5846
-12.3502 -58.2155 64.6733
-43.8712 -39.0363 65.3888
79.8230 18.3467 -31.8734
-18.0395 50.6641 69.5122
-6.8969 -66.5247 -57.0186
60.2309 3.3455 63.9160
64.3525 -0.4089 -59.8565
-18.6924 1.0246 85.8706
68.1471 -55.4957 -0.6490
-82.3462 -24.5062 -18.5139
16.2686 -78.9836 -34.9448
-36.8515 43.6413 66.7954
35.2366 79.9062 -9.8793
-18.3572 18.0344 -84.0357
79.8778 -36.4568 -3.8285
56.0861 44.7542 50.7507
-17.1281 18.8522 84.1157
49.6855 37.7610 61.8844
-52.2694 -68.6526 -16.7016
27.9453 45.4405 69.8458
-22.3864 -84.4772 -9.3100
-66.5650 43.2083 37.7672
-58.4955 65.2948 6.2509
-4.5753 83.6444 26.5875
81.7379 10.3169 -30.6054
54.0439 45.6686 -52.1331
78.5701 29.0229 -26.6203
4.7985 21.0697 -85.1896
-62.7385 49.0465 37.1825
-69.3943 35.8369 -40.3035
-18.9424 79.4936 -32.3447
7.2735 87.4586 -4.7235
-71.5554 49.2376 13.4052
63.9084 42.6861 42.6361
66.3582 46.5806 33.9272
69.0962 -4.7135 54.1084
37.6677 -12.0336 -78.4892
6.3338 -17.7766 -85.8376
28.3731 83.1771 -0.8679
-43.4353 -6.9732 -76.0853
54.3695 63.0070 28.2541
-31.0168 -82.2131 -1.7837
34.1207 -26.2962 76.6062
87.3370 -7.3249 -6.5427
77.1772 4.6641 41.7869
-4.2267 21.6799 -85.0667
81.3946 1.5620 33.1166
-4.1858 60.0305 64.0549
80.7317 11.8285 32.6605
8.9491 51.0135 71.0053
-5.2767 -86.9133 11.9351
39.2650 38.9601 68.2978
-47.2130 -25.2715 69.6886
16.8629 -29.0409 -81.2188
11.8717 30.0503 -81.7329
59.0775 40.6654 50.7975
-18.5883 -69.9281 -49.8874
-85.2801 -21.0543 2.8690
-83.9681 13.7368 22.0200
-60.7394 -59.2968 -22.7779
6.5418 -73.5159 47.7162
54.0385 -21.9316 65.7500
-14.1088 -86.6182 4.7373
4.0315 87.7936 -0.5060
39.3283 -4.5023 -78.4680
-15.4869 -86.5114 -0.3909
-46.4070 49.9109 55.4933
33.8901 -65.2306 48.1732
-39.0799 28.3718 73.4304
-58.8469 19.4417 -62.3160
-41.1876 -75.9830 -15.9496
-6.1326 -85.6870 18.5565
-34.1116 28.4895 75.8220
13.0925 28.6050 82.0644
-75.4776 15.5738 -42.2471
34.0838 -45.9459 66.7195
66.5461 -24.9647 51.6971
54.1622 -10.0654 68.4789
53.2013 45.3375 -53.2762
31.9878 81.3009 -9.5483
4.4544 86.6730 -13.8622
9.0099 -3.8345 -87.3404
