ply
format ascii 1.0
element vertex 1024
property float x
property float y
property float z
end_header
46.0357 -16.3596 -20.5852
-24.5377 5.2512 -46.7012
20.1811 -30.3593 -38.4930
-15.9343 26.4208 43.1128
6.4229 -31.7487 -41.9695
14.2894 44.5720 24.8962
-0.9363 -44.7748 28.3727
-25.8767 44.9004 -11.1814
47.0745 -16.4919 17.9634
13.6986 50.1645 -10.3223
-38.9150 -30.8214 -18.6102
23.1936 -16.9493 44.5584
-11.7645 46.7507 -22.0599
-29.8022 31.0386 30.9695
-52.7025 2.2968 5.2770
-33.6281 -37.2162 17.1691
40.7051 -24.0691 -23.9676
-40.6055 8.9168 32.8991
9.0450 41.0203 32.3449
-16.5298 -23.0578 44.7859
28.6054 -24.3210 37.4285
36.8755 -30.4344 22.9046
46.1170 6.1217 25.4248
-40.7681 -21.2299 -26.4183
-37.4065 37.0107 -6.4524
8.1637 14.1067 -50.4483
42.4113 18.0874 -26.1687
26.9246 29.9652 34.4648
29.1563 -44.2152 -2.3665
51.8060 -2.5734 -10.9632
-21.3151 -39.0945 28.7742
-44.9040 17.6924 21.9381
-39.3936 12.6297 -33.1558
17.1509 31.9824 -38.6477
-20.0298 19.2171 -45.1684
-8.3133 -18.1165 -49.1259
41.2301 -27.9470 -18.1582
-0.0512 26.9959 -45.6278
40.8024 6.0055 -33.3133
-46.1437 21.5893 -14.6742
41.7607 15.9681 28.4910
34.9671 -33.4781 -21.6145
3.5017 5.7459 -52.5870
-21.8075 37.3124 30.7065
13.8843 -20.1884 -47.0141
-15.7521 -33.3456 -38.0870
-38.3573 35.5896 -8.5307
-48.0614 -8.3899 -20.7457
43.8070 -21.5032 20.7178
-51.8809 -10.9106 0.0795
-39.3178 -15.6003 -31.9596
9.9749 -39.3203 34.1335
-42.8179 -30.5389 6.6838
-49.0808 -16.4180 -11.4978
18.1650 2.8038 -49.7277
-9.4419 20.9237 -47.7883
27.5396 -42.8260 -14.7708
48.8024 -11.1994 -17.4234
-10.6197 -18.6046 48.4950
44.1713 17.3267 -23.6507
13.6109 -28.8287 42.3594
-35.3945 2.1243 39.4130
36.1659 -17.6269 -34.5252
-10.9273 -5.2926 -51.6067
32.6308 40.0637 11.8660
28.5638 -8.8743 43.7725
-8.6983 -44.9716 -26.6939
-48.6261 14.0866 -15.7398
16.6344 -7.7488 49.7386
51.5419 5.1165 11.3105
35.8286 28.6590 -26.5641
-50.5701 -10.9934 11.5103
1.9273 -52.2593 8.7133
-4.0682 -10.1547 51.8749
16.8041 -15.4712 -47.8429
38.3261 -4.7860 -36.3163
-6.9185 -44.5826 27.8423
-18.2053 -46.8650 -16.8202
-39.3053 -7.9428 -34.6797
-42.1432 -28.2211 -15.4335
0.7126 5.1782 52.7575
-14.9941 -43.5129 -26.3149
24.6797 39.1199 25.9079
-4.7888 -48.3048 -21.3163
-20.6109 16.5638 45.9511
33.3497 -41.0921 -3.1478
-33.0236 -11.4995 39.8482
-8.0396 51.5837 9.2282
-12.1549 -28.7251 42.8696
-46.6024 -21.5954 -13.1350
0.0949 -43.9110 -29.7067
7.6077 49.6785 16.8773
-31.2628 28.4278 -32.0183
-20.8072 42.0411 -24.7039
-9.2912 -48.6256 18.9709
36.4102 -27.0454 27.4503
7.2935 52.1556 6.1049
-10.7669 -34.8808 38.4457
49.0501 -8.7671 -18.1081
-15.7273 44.3931 -24.3430
2.0008 32.0464 42.1865
-7.0230 -39.5402 -34.6110
-28.4927 -7.4896 -44.0766
4.1710 -52.8237 1.7117
-46.8889 6.4078 23.8965
15.9495 -44.9830 23.0828
-41.9304 32.4070 -1.5187
36.0964 13.1946 36.5188
-47.5244 -23.4607 -1.3034
-38.7306 -33.4299 -13.8944
8.6062 47.1013 -22.7613
1.9242 31.3412 42.7165
31.8822 37.1959 20.2650
31.1626 -10.6912 41.5363
42.1120 -5.6764 31.7022
-23.1935 -16.3018 -44.7994
44.1835 28.2873 -7.6369
-18.2815 -35.4018 34.9738
32.0098 41.5656 -7.6386
48.9332 18.6293 8.3163
29.4557 36.9455 -24.0430
-3.1722 43.2651 30.4753
49.5139 2.1057 18.8311
-20.4138 35.5342 33.6344
-48.8306 -18.5602 -9.0425
-35.8789 -1.6730 -38.9946
35.5127 -39.3628 -0.2967
22.0342 -46.1996 13.8116
-10.1998 -44.2090 27.4264
-2.4991 -13.8388 51.1167
-33.7136 -10.2913 39.5999
-19.8291 39.6032 29.1387
-38.9199 33.3199 -13.6272
21.3878 8.2178 -47.8090
-30.5650 -30.9610 30.2964
-41.7241 30.5415 -11.7041
-24.9490 -43.6873 16.7226
-36.3454 38.4347 3.5291
-27.2394 29.7692 -34.3872
46.7910 24.8752 -1.5815
17.7420 -34.6333 36.0060
19.5485 38.9471 -30.1936
-6.1983 -17.5033 -49.6577
12.2248 -20.3571 -47.4006
18.8626 -18.6747 45.8926
-14.5181 50.9626 1.6483
23.6168 3.7542 -47.3162
-46.5443 -23.5412 -9.4929
-16.6522 -43.9923 24.4552
26.2329 -45.6913 -5.9005
4.3877 49.7287 -17.8458
-30.7920 -36.9439 22.3085
31.9206 29.9707 -29.8916
-37.8376 -34.6676 13.3095
-43.0399 28.2570 12.6406
-44.3506 -12.2867 26.3198
-51.4649 -4.3534 -11.9617
-12.4430 -43.8335 27.1010
-15.0914 14.0604 -48.8388
21.1887 17.2527 45.4319
44.4478 0.7259 -28.8883
9.3053 7.4387 51.6600
37.5741 17.1619 -33.2315
-28.4769 -44.6744 -1.9830
-7.3994 -50.1506 -15.5192
22.5224 -39.9791 26.5534
-32.2731 -31.4358 -27.9448
-44.9477 -28.0895 1.1657
18.4908 46.9649 -16.2191
-51.5551 12.2047 -1.9473
-25.9180 36.4445 -28.4732
-4.4378 34.2905 40.1888
31.6006 39.7368 15.2662
14.2241 48.0507 -17.3056
-51.8459 3.3301 10.5635
28.6405 -0.5074 -44.6110
-18.1253 45.3497 20.6289
-9.9960 9.9833 51.0988
-46.4877 -24.4015 -7.3577
21.2607 -41.9369 24.4940
6.4567 -50.0463 -16.2589
-22.1159 23.4661 42.0821
-42.6870 -23.3545 21.0491
-16.1443 42.7643 -26.8562
17.3504 7.4661 49.5368
-7.5673 45.9738 25.2946
-30.4302 -25.2760 35.2959
-18.4378 -15.6528 47.1775
40.3046 1.0250 -34.4262
28.6572 -9.0239 -43.6807
27.5052 22.9803 -39.0646
35.6839 18.8996 -34.3531
29.7676 -43.8620 0.8266
-19.2891 -6.2891 48.9801
38.9108 30.1030 -19.7593
-45.8229 20.3333 17.2479
-44.7133 -13.4984 25.0837
20.8580 -16.9092 45.7132
17.1396 -40.1029 -30.1440
49.2976 19.0124 -4.3532
-26.9359 -19.4829 -41.2983
-5.7431 -48.0199 21.7205
-15.2892 38.8486 -32.6757
25.6969 37.3962 27.4202
32.8562 -38.9841 -14.5391
-34.8351 36.8034 -15.5788
23.2895 46.5809 -9.9243
37.7295 14.6630 -34.2367
35.6366 -39.1445 -2.9004
-10.3225 41.2204 -31.7017
-32.9070 -20.7781 -36.0010
0.8463 16.6261 -50.3342
38.2465 -35.0727 -10.8527
35.3928 -38.5758 -8.3627
47.2888 20.2370 12.8417
-41.2742 26.3109 -20.3680
-35.3521 15.1402 -36.4921
27.1527 -11.3607 -44.0947
47.1802 2.3995 -24.0613
-36.3687 -35.1199 -15.9558
-15.4389 32.0592 39.3004
49.8740 12.2777 -13.1345
-4.6029 -15.0761 50.6182
21.5023 16.0957 -45.7083
5.2878 -37.2511 37.3506
-2.8607 -12.3090 -51.4877
-41.6316 -13.8542 -29.7581
22.7680 40.4155 -25.6686
6.2065 21.1165 48.2312
25.2741 43.3280 -17.1633
-37.6224 -2.3954 -37.2759
-47.2858 22.2968 -8.8078
45.3578 27.3374 2.4530
-32.4610 -15.3037 39.0225
-46.2352 25.4899 -4.8216
-14.1047 15.7383 -48.6213
-45.9606 -8.5574 -25.0014
-45.4670 -18.1362 20.3592
22.5790 41.8334 -23.4699
49.3995 2.2926 19.1078
25.4645 17.4506 43.1011
-44.4592 3.9463 -28.6091
-36.7576 -20.6714 32.1286
20.8589 -16.8037 -45.7516
-35.0956 -28.5503 27.6378
33.7150 -33.3536 23.6962
-6.7390 -48.2024 21.0189
52.5520 6.4026 -2.8220
30.1214 -38.5450 -20.4368
20.3387 -1.3883 48.9396
23.3067 45.7169 13.3206
24.8361 43.2133 -18.0679
16.8745 -42.9593 -26.0849
-26.1801 -24.1663 -39.2589
13.9804 -11.5944 49.8075
12.1749 -15.9435 -49.0739
9.4711 27.9591 44.0371
50.8367 -5.5986 13.9627
39.2705 25.3847 24.9823
4.0353 -40.4022 -34.0889
33.9918 31.6466 25.5680
-13.7604 -15.0665 -48.9319
5.5366 -36.8584 -37.7025
43.4423 1.3422 -30.3585
-0.2305 -18.1860 49.7985
-8.0244 -37.5782 -36.5261
-39.1179 -29.6509 20.0322
16.7100 39.9896 -30.5333
30.2383 36.1379 -24.2976
-41.8972 13.7858 29.4151
-8.0419 41.7701 -31.6427
8.2461 -46.2928 24.4877
-32.5832 40.8142 9.1217
7.2201 -45.5062 -26.2245
-13.6098 -1.3534 51.2212
-19.0143 46.6198 -16.6050
25.0615 -32.9928 33.0767
35.7376 -10.2357 -37.7985
-8.1307 27.3153 44.7039
-31.0912 32.3260 -28.2673
-21.5018 -26.0532 40.8604
37.4682 -16.9616 -33.4531
43.3024 -13.1487 27.6168
32.7885 -23.9069 34.1182
34.0973 -28.1539 29.2473
5.5646 23.3315 -47.2795
-15.4996 -27.7630 42.4223
-42.0904 -25.5984 -19.5907
-30.7041 -12.0845 -41.4957
21.0148 46.2569 -15.1443
20.8037 -47.8259 9.5167
12.0305 -46.4346 22.5780
-43.6005 -21.7703 20.8741
-1.0531 44.5896 28.6589
-40.8270 -22.5996 -25.1613
-32.8464 -35.1919 -22.2108
51.2105 -4.3933 -12.9947
-9.6485 -23.3431 -46.6120
37.3147 32.4299 -19.1465
-5.7965 -11.9618 -51.3224
41.9618 31.5372 7.4355
8.0320 52.2075 4.5321
22.3643 -44.8585 -17.2693
30.6061 -30.3429 30.8747
24.8586 -41.6838 -21.3350
22.1427 27.5773 -39.4952
36.1818 8.1102 37.8916
25.8729 -21.0075 41.2305
41.2070 2.9311 33.2275
-26.3094 44.9032 -10.1091
-25.9563 41.0795 -21.1994
-52.3469 -8.3053 -1.2219
-22.5194 -36.2238 31.4863
32.1999 35.5586 -22.5705
-32.2925 -38.4613 -16.9882
5.1729 51.8210 9.9249
27.1688 37.9527 25.1421
-9.7653 -47.9946 -20.2936
21.9351 15.7014 -45.6398
46.5039 -22.0573 12.7096
36.2374 -31.9074 21.8962
-45.0562 21.6183 -17.6993
50.1248 -8.2662 15.1606
16.7413 -49.9893 5.6097
-18.3624 48.7391 -9.8992
-24.8071 -44.5942 14.3750
-14.1046 50.3802 8.5774
-45.7420 21.6005 15.8671
24.0552 47.0567 4.2058
40.1490 33.6946 7.9628
33.3848 -32.3770 -25.4531
5.2073 -29.3532 -43.8400
-39.0736 -33.5744 12.5176
8.6030 51.1981 -10.7431
-29.2998 44.0120 3.8911
20.5479 22.8380 43.2074
-48.7585 -20.4575 3.8435
13.8461 -50.2606 9.6349
31.7256 42.4292 -1.9798
-35.4563 0.0006 39.4147
-32.3174 -4.6975 41.7636
-8.8579 29.9603 -42.8322
41.7026 -7.0404 -31.9687
-22.6619 39.9885 26.4202
-48.6927 -5.7931 20.1528
50.7076 15.2829 2.4174
40.9317 -18.3242 28.2752
-24.9854 45.9737 -8.5337
50.4388 -13.5515 -9.1080
47.6545 15.4688 -17.3330
-16.4640 -18.8025 46.7555
-29.4136 -19.0022 -39.8049
51.7631 5.7745 -9.8952
-43.6040 29.1859 7.5859
41.8851 -7.2934 -31.6721
-33.3874 -10.1934 39.9005
-9.7328 -18.7539 48.6234
-18.5018 -15.7658 -47.1147
-29.6889 27.2641 -34.4371
-52.8533 -2.2833 -3.4619
12.7916 -2.7447 51.3762
8.3222 -29.5667 43.2114
-36.2521 34.9117 16.6622
-13.6302 -39.5369 32.5842
-43.8024 7.0019 29.0345
4.9807 24.9889 46.4911
-45.4565 -7.2176 -26.3114
29.1097 -8.8921 43.4077
-31.5692 -1.2631 42.5731
-16.9058 -48.0262 -14.7766
47.9329 -16.7483 15.2515
-30.1972 42.4141 9.9924
-35.9488 1.6271 -38.9322
-31.9764 -1.6192 42.2559
-51.7761 -2.2986 11.1634
25.7572 21.4722 -41.0632
-29.1654 43.0227 10.4450
23.8082 -44.8852 -15.1380
15.2978 42.9531 -27.0496
-30.3402 40.7612 -15.1218
-6.3236 -20.5204 48.4726
-6.3154 27.6991 -44.7610
-34.5114 17.7131 -36.1370
-29.8102 -43.6205 4.3906
47.4292 -18.5508 -14.7315
-5.4843 51.3329 12.0638
37.5552 -22.5596 29.8554
-40.6267 -12.1770 -31.8098
20.3324 -38.1662 -30.6693
-24.0506 40.1858 -24.8465
35.3482 -12.2570 37.5626
-33.0815 -22.9435 34.4946
25.9541 42.1304 19.0287
20.1415 -27.8078 -40.3945
43.4636 19.9458 22.8857
29.0268 1.8435 -44.3251
22.1071 -38.3071 -29.2321
10.3552 34.9486 -38.4972
-24.6131 27.5844 -37.9996
-13.2567 50.7886 -7.4468
-30.6105 -1.0733 -43.2726
-49.1298 19.4384 -4.3685
-9.4351 -29.5240 -43.0115
18.1006 9.2375 48.9664
-16.4970 43.8789 24.7622
32.0568 -28.6284 31.0395
-46.4568 20.0977 -15.7645
47.0733 24.3727 -0.8688
-37.2046 36.0164 11.3715
50.3146 -3.2721 -16.3831
-40.2925 -8.9951 33.2607
20.2866 11.2247 47.6774
-19.4596 49.2005 -3.3633
36.0186 -38.2882 6.8812
-42.9099 -3.7273 -30.9115
1.6857 -24.7501 -46.8536
51.2177 12.9539 -4.4286
-52.6296 -5.6866 -2.9094
50.9495 -14.5514 -1.7546
-51.9144 -6.3654 -8.6631
-35.9660 -3.2675 -38.8130
-5.2243 46.9376 24.0882
41.6839 12.2269 30.3913
-23.9656 -32.5962 -34.2609
-32.1374 -35.4835 22.7767
-7.3494 -15.6739 -50.1098
3.1379 -9.6700 -52.0319
-37.5015 -33.4322 -16.9291
-28.7752 40.5103 -18.4817
26.7848 -45.7431 -0.9004
-11.6340 -49.9823 -13.3076
-15.8059 -43.1054 -26.5099
33.4321 35.2171 -21.2774
30.9903 43.0146 -0.1293
27.2025 42.9647 14.9909
4.4631 -52.5927 -4.9761
50.9643 12.7019 7.2094
-1.7277 27.9855 -44.9944
-9.6905 3.4229 52.0101
-50.1333 13.6852 10.4899
32.9442 40.9882 -6.7324
21.8972 -8.6796 -47.4958
-35.3025 -10.7284 38.0698
31.2699 2.1961 -42.7556
-1.7959 -33.0676 -41.4003
-10.2539 11.7647 -50.6668
27.5149 -43.3302 13.2701
37.0913 34.8747 14.7872
-40.7686 25.2984 22.5519
-31.7029 -26.1567 33.4877
45.5050 7.0027 26.2855
-1.7851 -19.2133 -49.3795
10.7049 8.5984 51.2069
14.5471 -43.6345 26.3645
-26.7412 -10.8716 44.4679
8.7113 44.8382 26.9132
27.4743 22.5132 -39.3572
-43.6425 1.8136 30.0452
-26.2517 -37.5055 -26.7369
12.8967 5.7998 -51.0951
-31.0789 30.1997 30.5410
-3.7441 51.0348 13.8603
7.5253 12.4261 -50.9866
-39.8463 -34.6884 -4.4339
-34.0127 -22.2654 -34.0303
-19.4625 -2.6712 49.2417
18.0508 -7.1699 -49.3299
46.6615 -24.8870 3.7436
-49.7976 -16.5640 -7.5168
2.2359 -28.8844 44.4001
8.6139 10.5859 51.2290
-45.1230 -6.7017 27.0126
5.2009 50.1661 -16.3397
28.6684 -38.1365 -23.1172
-46.9212 21.9841 -11.2148
51.5109 -11.6661 4.6052
49.1725 -16.6884 10.6883
23.9740 -8.4781 -46.5192
-9.6553 -31.2541 -41.7209
-14.9184 48.5796 -15.1041
44.0753 -0.1793 29.4620
23.8336 45.2315 14.0265
-26.9185 1.0823 -45.6607
-14.1055 50.5907 7.2312
19.4707 -41.4050 26.7803
32.6393 22.8088 -35.0015
-44.4410 28.3874 -5.4617
-50.0893 10.6237 13.7432
-14.3400 26.1792 43.8142
44.9602 -27.5849 5.3222
-32.3601 -35.0663 23.1052
38.1966 -36.7025 -2.1491
-23.4230 -6.7912 47.0735
25.6164 -22.9594 40.3403
3.4111 -36.7572 -38.0518
-6.4013 -49.9582 16.5491
-42.5123 -1.6213 -31.6346
36.8394 29.3120 24.3790
-18.3709 48.2960 -11.8609
35.3468 -36.0706 -16.1304
18.9076 43.3122 24.0255
25.2849 -36.8153 28.5654
-0.2252 -13.5744 -51.2480
-15.3434 -39.5677 31.7750
-14.0805 -20.7360 -46.7165
48.8791 8.1041 18.8635
-17.0401 -23.3963 44.4176
-40.8653 7.7780 -32.8664
-1.8061 -13.0499 51.3528
25.7070 -20.3413 -41.6660
44.6119 -28.4400 -3.4090
-27.5436 -32.4747 31.5818
49.9130 7.7951 16.0809
30.0436 -43.2836 5.8811
-49.2290 -3.1957 19.4157
28.5529 29.2663 33.7474
-26.3762 38.3132 -25.4375
16.6949 -45.4161 21.6641
-48.6040 9.1545 -19.0924
32.0809 -13.7988 -39.8884
7.1125 -44.0069 -28.6964
0.1703 22.8797 47.8243
28.6586 37.4474 -24.2291
-50.9677 4.3225 13.9386
12.3420 -2.8085 51.4826
49.5272 1.8491 -18.8232
38.7385 26.4361 24.7212
-0.0916 46.9045 24.7110
-37.0813 29.8164 -23.3802
44.7776 10.1633 26.5018
-16.3230 44.1388 24.4131
35.1425 19.5020 34.5738
-16.5029 -40.1986 30.3710
15.6103 -22.0866 -45.5980
-14.2225 45.7105 22.7803
16.9448 9.4887 49.3306
51.2707 13.4794 -0.5473
19.2087 15.2331 47.0069
-42.9601 -20.0336 -23.7436
7.0076 8.8920 51.7928
-44.0832 -24.7790 -15.9169
39.6700 -33.3151 11.2723
43.1214 -12.8698 -28.0284
9.2112 25.3938 45.6178
-51.6629 -6.7882 -9.7745
-3.1472 -51.3104 12.9617
32.6374 -20.7386 -36.2682
-33.8851 -21.3563 -34.7330
-47.0408 -11.2162 21.7263
46.8365 24.5253 3.9401
6.9685 50.3057 -15.2134
3.5629 -39.2033 -35.5117
42.9383 -12.0567 -28.6637
38.4830 36.1144 5.0481
34.4466 -40.0973 -4.0390
-2.8859 29.2160 44.1448
-33.8699 -31.2386 -26.2232
17.0548 3.0474 -50.1051
-39.5900 26.2527 -23.5392
16.5446 47.4868 16.7914
-10.8841 44.5534 -26.5933
-10.1076 -44.0618 27.6960
47.5992 19.9168 12.1781
-40.0868 -34.6567 -1.6225
37.6875 21.8081 -30.2445
-36.3885 15.9156 -35.1176
-32.5792 -22.2337 35.4250
14.6801 -8.2246 50.2745
-36.7922 -37.5824 -6.6765
47.6800 22.4393 5.8114
-35.2801 19.8327 -34.2440
48.5960 14.9887 14.9812
3.9373 13.2031 51.1942
4.2448 -9.9063 51.9088
8.3475 -51.4924 -9.4618
-5.4859 38.7455 -35.7682
39.7208 -34.8027 -4.6589
18.0345 49.7851 -2.6212
-28.6378 39.7659 20.2292
42.4235 29.2992 12.3480
37.6037 35.6523 11.2050
50.4670 13.0789 -9.6278
-25.1291 -15.8320 -43.9152
17.9550 48.5704 11.3671
31.8460 0.4005 -42.3833
8.2456 51.7265 -8.1884
-10.9515 -43.2876 -28.5819
45.0207 6.0085 -27.3442
-2.4728 46.6246 -25.1138
-19.3280 -44.7338 20.8803
-14.6798 26.2747 -43.6442
9.9021 50.9211 -10.9390
5.3432 47.7915 -22.3182
-2.5150 -38.9831 35.8422
37.6860 -34.2037 -14.8507
29.0720 34.0318 -28.4136
-14.3929 -37.1720 -34.9537
47.6422 16.8463 -16.0341
52.0469 3.1294 -9.5916
18.2989 -46.3647 18.0592
-34.3717 33.0846 23.1229
7.8027 -52.4344 0.6512
-9.3801 -12.5089 50.6578
-26.2914 -24.0923 -39.2301
47.7019 -16.2841 -16.4328
19.3297 27.0116 -41.3208
-22.0513 -17.1730 45.0500
-30.6659 31.7882 29.3221
-32.3180 -19.4077 -37.2768
-51.2491 -13.5280 1.0942
-2.0702 -5.3667 52.7028
18.3074 -48.1292 -12.6132
36.6645 -19.4094 33.0100
30.4250 -2.1286 43.3643
39.1072 -19.7326 29.8650
19.2594 -48.6371 -8.6128
-22.9304 -42.2844 -22.2912
1.9595 52.9789 0.2655
-46.1626 -16.5204 20.1684
18.3767 -47.8809 -13.4310
44.7968 9.1587 -26.8335
21.3563 -23.2411 42.5961
5.0937 0.5684 52.7675
24.9608 -18.2708 -43.0559
16.2048 -47.8688 -16.0205
47.3595 -22.3632 -8.2243
33.3490 6.7625 -40.6544
-15.9569 28.9066 -41.4784
-28.2497 19.9320 40.1914
44.7664 -28.3382 1.8949
51.6026 -7.4168 9.6352
27.4861 21.2575 40.0413
-9.0218 -29.0658 43.4104
-34.5524 -4.1963 39.9899
51.9401 10.6026 0.6945
3.1314 31.7275 -42.3584
-29.9032 39.8823 -18.0521
-22.5634 -28.4666 -38.6163
10.7092 -7.0260 51.4453
9.2017 51.3524 -9.4302
-6.4249 -50.2179 15.7341
20.4704 -35.7364 -33.3848
-27.2228 -34.0065 -30.2183
36.8929 25.9916 27.8213
34.2292 -34.7888 -20.7070
-43.0258 -22.6963 21.0791
-27.6207 -13.9675 -43.0427
-51.5948 -6.4289 -10.3594
35.0080 -2.5593 39.7311
-41.1479 22.2395 -24.9586
-15.5799 -47.4735 17.7258
13.5214 23.6447 45.4837
-22.8829 -9.5933 -46.8510
-42.8041 31.2708 0.7875
-18.1665 44.0138 -23.3117
24.2869 -39.4035 -25.8493
35.1542 18.8466 34.9237
27.9064 -44.7292 5.5866
-19.5953 -12.7056 -47.5948
-41.8519 30.2807 -11.9235
28.9181 -43.5740 8.7023
-33.7762 -40.8579 -0.6891
-7.3538 -47.5309 22.3027
-29.2692 33.3564 -29.0058
15.5615 49.9385 -8.6404
45.3761 -15.4607 22.6418
17.7226 -49.6603 5.5171
-2.3021 -16.8697 50.2075
-40.8811 -33.7506 0.5533
-1.9896 -8.8723 -52.2302
-4.8266 14.1439 50.8658
-19.0652 23.1288 43.7293
15.4253 -38.9938 32.4378
-5.3402 47.6288 -22.6640
38.4533 -15.4935 33.0450
22.3680 -45.7340 -14.7903
-25.0336 29.8178 35.9846
30.1025 35.4832 -25.4058
35.4663 31.1408 -24.1467
24.5595 32.1632 34.2496
32.2538 -12.6973 40.1141
-41.3010 8.0249 32.2568
27.2170 -15.7151 42.6960
-3.8828 32.9675 41.3369
-38.8389 28.7619 21.7938
20.4236 30.4065 -38.3275
18.3111 36.7213 33.5696
47.5629 17.3238 -15.7585
-52.8879 3.2844 -1.6611
2.5596 18.9975 -49.4289
27.1684 -44.6418 8.9252
0.4758 29.7583 -43.8736
1.8640 31.7645 -42.4054
-24.2749 -44.7714 -14.7283
-11.3915 42.0523 -30.2078
-18.8352 43.0333 -24.5774
25.5227 -41.7617 20.3771
-11.8896 -51.2565 6.4873
35.1374 22.7989 32.4999
-28.8179 25.2786 -36.6223
6.5055 22.2828 47.6637
-18.5067 -40.5668 28.6794
-32.4477 32.5278 -26.4530
23.0341 -45.1463 -15.5537
42.2937 10.7850 30.0932
26.2574 -40.6545 21.6434
-1.6524 -51.7155 11.5523
-28.7352 39.4286 20.7448
10.2042 52.0024 -1.5170
0.5748 -20.5524 -48.8666
-1.6229 47.1209 24.2416
-18.8605 -42.5760 25.3424
12.6602 13.8195 -49.5925
-43.0713 -30.8388 2.1242
30.5397 14.3791 40.8808
12.9004 34.9999 37.6731
15.2234 19.2784 46.9815
8.0581 -51.4446 9.9594
39.4740 6.2658 34.8313
-31.0503 -6.2229 42.5186
7.4703 -52.3580 -3.6749
28.5197 19.8631 -40.0344
-35.8110 31.7074 22.8666
-5.4243 -12.4793 51.2398
14.4816 44.7578 -24.4479
18.1392 -40.9980 28.2985
10.6096 45.3765 25.2802
14.1631 -49.9748 10.6111
17.8202 41.7134 -27.4428
-22.3439 30.2310 -37.3833
-50.4565 -16.1537 1.9689
-52.6311 -0.7602 -6.3293
-2.1444 51.5012 12.3976
20.6994 28.3322 39.7429
-0.1423 51.2244 13.6641
-3.7019 32.2440 -41.9201
20.7739 -35.5372 33.4100
30.9131 42.8183 4.6526
-30.2606 -30.9521 30.6094
-20.3729 47.9190 -9.9694
-10.7255 -42.6810 -29.5630
-8.6776 -13.3479 50.5688
-33.7506 -39.8843 8.9899
44.8094 16.2445 23.2143
-23.7316 47.3838 -1.5034
5.1233 19.8223 48.9030
-23.8663 -22.4228 -41.6928
-52.2934 2.5951 -8.3272
-33.6452 -19.6667 -35.9430
50.9534 -14.5270 1.8423
-18.7874 -7.8382 -48.9517
-39.0220 11.7633 -33.9055
-52.0269 -5.8962 8.3131
-44.6152 20.5712 19.9244
49.0327 19.9607 -2.8358
23.7025 37.1983 29.4134
-2.5292 50.1670 16.9572
26.6672 39.2416 -23.6565
-27.5863 -23.2129 -38.8694
1.6732 51.5198 12.3929
19.1407 -30.4124 38.9794
-52.5891 4.0054 -5.3866
-8.5632 2.9649 52.2356
-51.4301 8.6023 -9.5720
-10.5699 -51.3510 -7.8756
15.5017 -45.4123 22.5409
-19.2918 -36.8786 -32.8401
-41.4877 -29.3448 15.1105
-44.7890 23.2656 -16.2274
45.9886 -19.4219 -17.8470
-30.2969 -25.5541 -35.2103
-23.8755 44.8675 -15.0845
-17.4580 -14.1771 48.0094
35.5069 -0.0389 39.3692
-7.0552 -12.7391 50.9766
40.9808 29.8248 -15.5476
-11.1396 -41.9276 30.4739
-51.3963 -13.0033 -0.0821
34.9385 30.0350 26.2274
1.7962 35.0472 39.7384
29.7406 42.4289 -11.2230
45.7219 20.6873 17.0942
19.4068 37.5807 -31.9646
-38.2094 -34.3727 -13.0091
24.7723 36.4770 29.4353
-35.1278 13.2179 -37.4433
-40.8385 5.5723 -33.3443
39.2715 27.9774 -22.0384
-31.9560 -31.3782 28.3707
44.6877 -14.4087 24.6185
33.2963 41.2551 -0.2127
46.3610 8.8492 24.1459
2.1046 13.1339 -51.3200
-13.8879 13.8118 -49.2649
-5.7285 -42.0542 -31.7695
-42.1781 19.1154 -25.8125
12.3941 -11.8197 -50.1732
-33.2147 -26.1797 -31.9700
-20.2717 -41.5947 25.8768
26.2114 2.1478 46.0328
-9.2873 48.7284 18.7073
-27.2728 -32.5026 -31.7875
-23.1688 29.2377 37.6701
48.5438 -20.0594 7.1971
-3.6794 -52.5239 -6.1951
30.8350 -17.3285 39.4918
32.1665 -40.6990 10.9355
-42.1107 22.6626 22.8861
-31.4959 14.1221 40.2398
-18.3331 -45.2380 -20.6903
-33.2710 25.1583 -32.7227
-44.1499 27.9606 -8.9256
32.0617 -32.9571 26.3922
33.4516 -35.5743 20.6430
-43.2286 -5.5173 -30.1914
14.0852 46.4474 21.3289
-40.3194 -30.7597 -15.4551
-20.1380 40.8779 -27.0948
32.5194 16.7758 38.3632
43.0786 25.2856 -17.7636
-47.8535 14.9237 17.2627
48.1306 2.5869 22.0777
-8.0640 -51.1375 11.4282
44.2242 12.5915 26.3885
36.7020 12.5214 36.1504
16.7597 49.1269 10.7859
-15.4055 -45.9484 21.4962
-36.2721 25.1744 -29.3472
44.0426 -5.5873 28.9776
-26.3726 -44.3584 -12.1447
-22.3387 -31.1119 36.6566
9.3307 9.7718 -51.2652
-22.6251 -47.9269 -1.3371
-46.9963 -21.0412 -12.6209
-24.3859 -45.8744 -10.5613
23.0072 45.0516 15.8649
19.1643 47.4031 -14.0125
-30.1784 27.8731 33.5116
-8.4816 -30.7244 -42.3645
24.1570 -21.0572 -42.2340
48.4618 17.3251 -12.7267
-13.4595 -38.9036 33.4070
11.6674 43.9272 -27.2936
22.5307 47.7521 -4.7730
11.5636 20.8145 47.3678
-17.7249 10.7957 -48.7848
-49.0998 -19.3170 5.1710
47.4319 10.1809 21.3830
-50.5209 -12.3151 -10.3271
-45.0703 7.1464 -26.9864
-48.4160 21.2726 -3.7468
-3.4105 34.2709 -40.3056
-23.2162 28.1884 -38.4330
16.7852 -50.2884 0.0806
46.7425 3.2695 24.8017
-53.0145 -0.2519 0.2718
-17.7403 30.9145 39.2461
-41.6712 19.8777 -26.0588
-47.2607 23.8770 -2.6443
15.1580 -49.9426 9.3083
46.5722 18.5496 -17.2516
-30.3222 -23.6779 -36.4773
-6.1627 52.2478 6.5473
-50.8786 -10.7084 -10.3621
-7.7957 51.2637 11.0425
0.4624 -5.2918 -52.7490
17.8462 47.7040 -14.7145
-24.7090 35.3218 -30.8628
9.7253 -43.3961 28.8595
-10.8412 2.1787 -51.8497
52.9646 2.2208 -0.7005
-19.8161 -43.6954 -22.5547
26.2995 23.2700 39.7180
-7.1628 4.3586 -52.3485
38.2313 26.9444 24.9609
5.2906 52.7500 0.3479
44.2457 -23.7706 -16.9691
26.0001 46.2009 0.3817
-2.0122 -33.8417 -40.7598
51.0447 -6.2515 -12.8855
4.0900 49.5183 18.4900
37.9757 -29.4085 -22.4425
-50.4648 -12.6110 10.2441
50.3809 -15.9525 4.2376
51.4776 -8.2914 -9.5909
11.1710 30.3278 42.0251
-7.3089 11.8952 51.1445
-50.7837 6.2944 -13.8589
35.6914 0.2454 -39.2013
25.4895 46.4853 0.2767
49.4887 -18.6337 3.7853
47.2988 -6.0240 -23.1778
-52.4805 3.5540 6.6211
-26.2594 46.0045 -2.1697
30.4908 -14.3351 40.9327
14.9211 -44.8385 24.0322
16.7063 -45.3728 -21.7458
-32.0249 23.4900 35.1183
-10.3119 -10.9763 50.8317
-51.3058 12.9623 -3.2199
-8.7926 -32.5436 40.9180
-26.8988 19.7982 -41.1723
-3.7597 52.7219 4.1163
-40.4241 -30.4072 15.8734
-19.6482 47.9409 11.2377
-11.4888 -31.6558 40.9462
27.8368 -41.6290 -17.4015
38.3758 -21.6362 29.4931
13.3217 -50.1702 -10.7775
18.5604 -36.5039 33.6697
2.8365 39.2918 35.4794
-19.1551 -49.3536 -2.8238
-14.2985 51.0419 -0.9740
-23.5948 -36.1322 -30.7965
-51.4864 -8.4983 -9.3596
22.7921 -46.3047 12.1271
33.4029 -23.2925 -33.9467
48.4008 19.9818 -8.2926
-14.6964 -48.9301 14.1609
46.8205 11.6255 -21.9854
-28.9938 -16.4540 -41.2226
24.3420 28.1645 -37.7479
44.7720 -27.1834 8.1979
-6.8811 40.7448 -33.2142
41.8423 20.9462 24.9230
9.3219 20.3580 -48.0555
-41.1987 -30.0047 14.5965
-16.3154 45.8119 21.1128
-8.2867 45.9230 -25.1611
-31.6062 -11.1822 -41.0692
-0.4023 25.9408 -46.2340
-27.3126 4.0155 45.2612
2.2982 48.2544 21.8381
-40.7957 -26.7534 -20.7520
21.8320 -47.4536 9.0660
-37.2774 -2.5053 37.6137
8.0635 -31.9922 -41.4988
31.1573 15.8777 -39.8472
43.2655 -14.6713 26.8983
14.8511 43.4550 -26.4912
27.2001 -33.3128 -31.0013
23.7077 35.2701 31.6960
-13.8032 -49.4350 13.2787
-4.3739 -44.5444 -28.4137
10.1446 51.6363 6.4388
9.7152 -51.5816 7.4582
30.5334 -23.2915 -36.5499
40.4099 19.0299 -28.5583
48.8963 12.9975 -15.8394
46.5726 -21.9721 12.6054
22.5575 -46.4474 -12.0197
34.3742 12.6929 38.3142
-50.3901 10.5729 12.6384
23.6283 9.0318 46.5919
4.6137 26.7385 45.5460
-19.4547 -30.7324 -38.5709
35.4117 -0.7640 39.4474
31.7476 -10.3502 41.1781
8.9330 -17.3241 -49.3026
-41.0261 -2.9921 -33.4451
-43.8877 28.9449 -6.8362
-18.8107 -46.3406 17.5892
-15.7775 44.0923 24.8519
24.1145 -3.9869 47.0454
-7.5518 -51.4956 10.0921
-21.5455 10.0646 -47.3832
33.1605 -34.0686 23.4602
6.2378 49.8333 16.9824
29.4903 25.0417 -36.2479
43.9048 -27.5498 -11.1377
-50.0069 -12.8754 -12.0088
35.0990 -23.6802 -31.9058
28.1638 -44.6228 -5.1262
31.7273 -26.2127 -33.4208
52.5885 6.7025 0.4489
38.2834 19.0365 -31.3475
-41.8933 -17.0920 27.6313
43.6408 17.3776 -24.5799
-30.2146 -38.6523 -20.0937
49.5856 4.3312 18.2533
-51.2634 -5.5050 12.3465
49.2700 19.2750 3.4077
26.6555 31.3948 -33.3845
13.8066 -41.7890 29.5589
-38.1140 -20.4316 -30.6683
46.9344 -8.1857 -23.2557
51.6238 11.0430 4.8694
-47.5191 -20.5397 -11.4338
-19.4570 5.6263 48.9943
-36.4574 32.6376 20.4040
-26.2802 -9.0569 -45.1442
-27.2246 -41.6752 -18.2393
37.1035 -37.6704 3.8662
17.5412 47.8936 -14.4633
-39.4875 35.2851 -2.5246
33.3063 20.7454 35.6510
11.5827 43.4388 28.0995
-43.9431 -19.9342 -21.9614
-33.9238 -23.7088 33.1322
-50.5001 3.6822 -15.7117
-46.5762 -20.7029 14.5850
38.3458 -35.7996 7.6593
4.1098 -3.5323 -52.7381
39.8909 -20.2213 -28.4691
16.7230 -49.8145 7.0382
31.7161 -42.3174 -3.7417
11.6662 -38.4940 -34.5367
-29.3545 21.7035 38.4441
51.2703 6.6735 -11.7256
46.1235 -17.4986 19.4188
-40.1811 7.4170 33.7808
-17.5960 45.1012 21.6088
44.2702 -27.8271 8.7453
35.2650 -2.5917 39.5011
-17.7471 -12.9614 -48.2464
25.1278 38.0966 -26.9800
12.1033 34.8403 -38.0833
-48.7950 14.9838 -14.3252
26.1054 -37.8756 -26.3557
-40.4464 9.3909 32.9632
51.7059 9.0150 7.4765
45.3695 27.0721 4.4029
-22.1968 -47.8760 -5.0858
-47.1502 -14.6977 -19.2747
