ply
format ascii 1.0
element vertex 1024
property float x
property float y
property float z
end_header
-38.0214 -0.9939 -6.7172
31.2311 11.0505 19.8556
-2.7690 -24.5203 -29.7124
-10.9995 -36.2160 -7.6908
-28.8469 14.3523 -21.2980
38.5665 1.9530 -0.7388
5.8069 33.4680 18.3822
-23.5870 29.2365 -8.9786
28.6656 8.9754 -24.2788
-0.2596 -32.8780 20.2659
6.2823 -37.3326 7.6515
13.0563 34.8387 10.3701
34.7742 -4.2494 16.2615
-32.9454 -17.3809 10.2098
-12.8390 17.8292 -31.7650
8.1210 -31.7354 20.4609
-19.5491 21.0810 -25.7907
11.6997 -36.6489 -3.4220
2.2675 -26.7011 27.8145
33.0575 2.9728 19.7510
-9.3076 -11.1638 -35.7837
-37.9955 3.1294 -6.1873
22.1594 -13.7800 -28.4748
-13.2374 -19.0947 30.8529
-4.5606 2.3277 38.2821
-18.7570 29.4527 -16.5060
-3.7192 -19.2901 -33.2536
-2.8620 -38.4197 -2.7338
10.3006 11.5110 -35.3996
1.3310 -29.3127 -25.1144
-26.3589 -14.8065 -24.0356
-16.8281 26.3301 -22.6997
-11.6892 36.4105 5.4196
-12.6314 -16.3845 -32.6149
11.4808 -28.5711 -23.3156
19.8403 5.8713 -32.6133
35.9424 8.5355 11.2706
-16.1115 -23.0097 26.5087
37.0252 8.5280 6.9387
-8.3087 -34.4065 15.4563
-4.1929 37.6423 7.5642
22.2778 -29.5759 -10.9866
13.6254 35.2903 -7.7897
-26.8698 -25.5852 10.7306
26.9826 27.5464 -2.2073
17.5544 -33.3526 8.4373
24.1073 -1.8627 30.1182
24.7500 -24.1237 17.2401
-19.5052 28.2639 -17.6758
33.5751 18.8394 -3.0868
-34.2795 13.5605 11.5226
-2.8655 2.5258 -38.4337
28.3933 -19.7178 -17.2269
6.1743 35.5643 -13.7403
9.1239 25.6166 27.4278
18.5651 28.9008 17.6583
0.7981 12.6105 36.4976
17.1897 18.2310 -29.3919
17.7642 2.1694 34.2267
-35.5567 1.7148 -14.9839
-8.9506 21.5322 -30.7894
35.0179 16.1874 1.8577
15.0965 35.5435 0.7038
-13.2782 -35.2247 -8.6397
16.3330 -22.3109 26.9665
-1.1708 26.9104 27.6803
29.4602 -23.4595 8.5723
27.0287 10.1576 -25.6517
-3.4038 -10.9851 36.8711
20.2301 -18.1643 27.4325
-35.0089 -8.2515 14.0721
-14.8369 -35.6324 1.3918
-22.4981 21.5727 22.8078
-4.3384 28.7840 -25.3850
23.9516 21.9672 -20.8686
-23.1908 25.7007 17.1289
-9.2959 35.0155 13.3879
-18.9229 -28.5409 17.8628
-36.0514 -10.0373 -9.5542
16.5768 32.2332 13.3404
19.6501 -20.7468 25.9843
-21.2707 -13.2338 29.3966
-1.3733 -37.6547 8.4840
14.5592 34.6471 8.9077
26.4379 19.1575 20.6340
-1.4787 11.7543 -36.7612
-25.4426 -4.6043 28.6916
-1.7092 -38.3723 4.0480
-1.3243 -17.2654 -34.5238
13.5478 -13.9012 -33.3909
7.1096 -12.4076 -35.8782
22.4088 6.7326 30.7287
-17.0823 7.3735 -33.8462
-35.9446 14.1062 0.8584
5.6301 -14.3368 -35.4188
-34.0251 2.8624 18.0510
30.3166 15.9332 -17.8543
3.4667 29.0990 -25.1589
-13.5284 -15.3639 32.7517
4.2103 13.5203 35.9334
-0.0089 -19.0992 -33.5702
-16.9972 34.5512 -3.0084
-12.2896 -20.5985 30.2722
18.5119 30.5574 14.6729
14.9990 31.4173 -16.7249
-7.0704 23.5056 -29.8201
-17.2768 20.7940 -27.5837
-20.0821 -32.9268 2.0663
13.4507 -33.5571 -13.5917
20.5767 -28.1571 -16.5985
-24.0780 -27.6150 12.2229
-16.1998 5.3096 -34.6571
25.0476 8.0564 28.2746
3.1136 -31.1929 22.5621
-21.8204 0.8215 -31.8580
27.8363 -2.6342 26.6446
-8.1442 37.6167 -3.2233
-4.0779 23.0758 -30.7021
-0.0192 -5.5712 38.2191
13.3231 -22.3406 28.5505
-0.8922 -4.5730 -38.3410
-27.5364 -8.7016 -25.6470
-36.0497 -13.5454 2.9460
18.8828 14.6565 -30.3375
12.1480 -5.4591 -36.2541
28.2248 -25.3362 -7.2919
-16.9326 -26.2890 -22.6697
36.5764 2.7664 12.0933
8.3914 -29.9270 22.9281
4.7593 34.6083 16.4728
-6.6664 -31.4515 21.4033
38.0906 -0.1840 6.3885
-19.8742 32.7872 -4.6640
31.8088 14.2363 -16.6513
-30.8369 15.4447 17.3863
35.5987 -5.9170 -13.7644
-13.4989 25.1941 -25.9764
-28.7541 7.1754 -24.7680
-28.6239 4.4347 -25.5489
-35.6986 -11.8626 -8.7537
-13.6875 -27.0265 23.9574
-7.3481 -34.8089 15.0360
11.7483 35.1724 10.7988
-23.4538 30.3392 4.6030
28.9227 22.5656 12.0836
-7.5453 -18.1509 -33.2468
-11.0687 -20.5248 30.7888
-25.8015 25.2733 -13.6852
24.5848 -17.3880 24.1864
-34.5933 -16.0580 6.0979
-37.4028 8.8511 -3.7983
-29.6165 -10.6432 22.3902
-8.0216 26.8676 -26.5617
-37.5873 7.7715 -4.3059
-35.2468 5.1282 -14.9366
-19.3788 -32.9716 -5.3916
-26.3842 -20.9720 -18.8623
35.4546 11.7300 -9.8545
1.7337 -6.5395 -38.0259
25.2050 -28.7993 -5.2007
-32.8038 -20.3815 0.4899
-7.9884 -19.4311 -32.4092
-32.3957 16.0589 -13.5783
19.0277 -25.2232 -22.2142
5.5768 22.8184 -30.6587
-21.8142 -11.8116 29.6034
-29.0974 -12.4137 -22.1580
-21.5271 -28.2909 15.0979
-4.2326 -18.6942 33.5313
-0.4669 35.5162 -15.1696
-37.4107 5.8523 7.6113
-37.4404 5.4290 7.7769
23.1375 -25.8503 16.9752
-33.3367 -2.3312 19.3641
-21.6986 27.9911 15.4081
28.8962 -21.9676 13.1974
5.0547 -28.2035 25.8989
-24.5640 28.6023 8.3819
23.8175 -27.4130 13.1526
0.2859 -38.2560 5.3040
33.2670 -8.9582 17.4584
-17.9746 30.2781 -15.8709
4.6866 -37.6895 -7.0198
-5.8460 29.1861 24.6117
4.9282 -29.4375 -24.5129
14.6881 -28.0478 22.1205
9.6100 -32.6259 18.3013
-30.8082 22.6018 -5.6348
-22.6496 1.7937 31.2332
38.0810 6.2493 1.5886
-15.9839 34.2646 -7.8858
32.7830 0.7439 20.4073
-15.8582 32.7475 12.9558
37.7690 1.6101 -7.9150
-27.2713 6.8877 -26.4684
-16.2022 15.1531 31.6166
18.7368 1.9288 -33.7187
5.6891 6.6435 37.6196
-1.3124 3.4557 -38.4457
32.6032 4.6825 -20.1703
22.6962 -28.6199 12.5506
19.8314 -14.1726 29.9598
-15.9814 -33.9962 8.9771
10.0598 -37.2753 1.0430
29.7321 0.5592 -24.6461
3.8453 -31.3215 -22.2692
28.8112 -20.8883 15.0111
-38.5295 1.7966 -1.9959
2.1982 22.3809 -31.4006
-8.1110 -3.0295 -37.6400
35.2720 -0.1952 15.7350
35.6377 11.2183 9.7898
24.4177 -28.1425 -10.1741
37.1761 -6.0933 8.5176
20.8926 -0.3457 32.4826
7.3124 31.5610 21.0278
-22.2648 -26.5928 16.9952
6.8700 -5.0422 -37.6712
-12.7885 36.4146 -1.4738
-12.3512 24.0741 27.5613
18.8616 -1.9815 33.6460
-33.5872 9.4698 -16.5518
21.7781 -31.2671 6.3100
1.7292 31.9394 21.6476
31.9581 -7.9366 20.1847
-29.6719 21.6227 11.9906
16.8462 -31.7144 14.2176
26.9441 -9.3999 -26.0268
-26.4538 -28.1207 1.0779
-32.6403 11.1172 17.3999
-30.7573 0.6035 -23.3530
37.6271 -8.5143 1.8568
34.7987 16.7557 -0.1920
5.5968 1.7988 38.1730
-34.9388 -16.3746 1.7005
-13.0322 -11.2148 34.5851
36.8647 -11.4946 0.7758
20.0558 -7.1282 32.2287
-15.0718 30.0137 19.0725
-5.3323 35.6541 -13.8597
9.1472 36.9405 -6.5931
-14.0402 34.5824 -9.9332
5.6605 32.3453 20.3341
-34.8287 -9.6580 -13.6169
-2.6537 -37.4953 -8.8770
22.4953 -25.3233 -18.5588
14.4020 -30.3952 -18.9857
29.2183 -13.0776 21.6103
-5.0803 -12.5667 36.1664
-0.1759 34.9872 -16.3586
-21.5594 -26.0155 18.7116
-28.0035 -13.7057 22.7968
31.6523 -8.8064 -20.3056
35.8905 -2.0115 -14.1267
-1.7156 -35.8802 14.1918
31.5916 17.8957 13.1702
27.2952 -15.9799 -22.1664
-11.4337 -2.8942 -36.7782
-19.0782 -18.5563 27.9897
-1.6668 35.3794 15.4031
9.4719 -18.2501 32.6949
-24.0100 -0.7764 30.2432
-6.4740 -34.9478 15.1153
-13.5074 -20.3424 -29.9245
-7.3290 -11.4590 -36.1485
-5.6049 -35.1444 -15.0065
-36.6436 6.5667 10.2890
16.2721 -21.1930 27.8893
22.9065 -22.5828 -21.3786
-9.4828 18.9187 32.3094
8.7332 -37.6096 -0.9919
21.8900 3.3818 -31.6406
31.9680 21.4392 3.1851
6.5492 -34.0860 -16.9407
26.0954 -28.2406 3.6381
-23.2629 27.8723 13.1800
-5.2499 4.7312 37.9709
-2.4568 13.9844 -35.9185
19.3196 -27.8538 18.5110
-6.7874 -6.2161 -37.5104
-18.8100 28.4634 18.1039
-18.9918 23.8770 -23.6841
-10.5230 -22.7651 29.3726
22.3646 -30.6996 7.0066
-24.7354 26.3742 -13.5756
4.6662 38.2453 2.6942
-4.8921 23.4126 -30.3258
15.2901 -28.7639 20.7506
-15.4499 29.1495 20.0834
-35.4319 15.3476 0.8793
-8.1581 -14.0091 35.0561
8.4412 7.3470 36.9663
-32.9415 -20.0392 -2.2426
33.1463 -9.3514 17.4817
10.4590 -15.7074 33.6990
22.1306 -21.4289 -23.2975
-28.8806 16.1941 19.8846
-4.4181 -37.4073 -8.5387
4.4911 21.8453 31.5333
23.9833 -13.1585 -27.2652
13.5592 21.2931 -29.2317
30.9619 -15.2969 -17.2946
-9.9831 36.9470 5.1954
-13.4430 -31.4553 17.9328
-1.9137 -2.6163 38.4868
36.7581 -10.3600 5.7660
33.9966 -15.9452 -9.0398
21.7488 18.5648 25.9630
27.2959 -8.4463 -25.9872
-27.1653 -20.2571 -18.5319
23.3661 -24.0110 -19.2154
-30.4730 23.6862 1.4477
-13.1981 33.1924 14.6906
24.4753 -11.6186 27.5264
34.1895 -13.5751 -11.7700
25.8011 24.2688 15.3969
33.9524 14.9303 10.7730
-36.8617 -11.4155 1.6245
-26.7872 3.6384 -27.5852
-35.5653 -2.5732 14.8400
-23.9254 26.2486 -15.1763
-3.9675 19.9082 32.8582
35.3886 -7.3650 -13.6066
-0.4488 -30.9609 -23.0859
-31.4897 21.1243 7.3417
16.5445 -19.2425 29.1160
-11.7982 -20.8926 30.2661
-33.6203 3.3104 -18.7204
-16.4496 5.0627 -34.5762
36.5326 12.3701 -2.0207
-4.3366 37.8343 6.4421
-12.8104 -31.2234 18.7812
-31.8033 -21.9136 0.2899
15.7760 -26.3432 -23.4284
-19.5226 -8.2589 -32.2862
1.1642 -8.6390 37.6265
-21.8426 -11.0615 -29.8711
-4.0259 33.6418 -18.5407
-12.9025 -0.0288 -36.4041
-28.4543 -25.8059 -4.0183
21.9834 -8.0425 -30.7211
-6.1360 36.5384 -10.9101
22.0052 13.4581 -28.7470
-5.1094 -22.7002 30.8275
-34.1118 -8.9653 15.7399
-37.3343 8.5197 5.0304
-0.1484 23.2995 30.8034
-23.8582 -12.1545 -27.8351
12.4430 -3.9562 -36.3491
32.4877 -20.5598 -3.6859
-31.2158 -16.8271 -15.3023
38.0982 -6.2036 1.3333
-35.5690 -14.2167 -4.9466
-22.7024 25.1570 -18.5327
3.2607 33.6895 -18.6043
28.4593 -16.8116 -19.9794
24.7703 -4.2973 -29.3207
33.9136 -6.4451 -17.3224
6.3842 -0.6482 38.0862
26.0473 -14.9336 -24.2953
-23.4876 -13.7401 -27.4095
-1.2016 -21.9795 31.7363
-10.3333 -34.2206 -14.6257
33.2625 16.0539 -11.2968
-22.3909 16.2642 -26.9418
16.8066 13.9141 -31.8696
13.8747 -30.2982 19.5257
21.9992 -31.1826 -5.9513
-34.2563 1.7990 -17.7484
-4.8408 -30.0517 -23.7739
-21.9925 -31.3552 -4.9916
-18.3962 -32.2615 -10.6071
-28.1326 25.9655 -5.1074
2.7269 0.0029 -38.5266
38.3516 1.0134 -4.4568
-1.7406 -37.7462 7.9956
-36.6165 4.3096 11.5065
-33.7629 -17.8844 5.6528
37.3903 9.2402 2.8849
8.1591 9.3981 36.5629
-9.6038 -37.2525 3.4290
-13.4989 -33.7883 -12.9566
17.2066 -19.4223 28.6085
-10.2884 -36.6132 6.7352
10.6512 30.7532 20.7974
29.2592 12.3668 -21.9704
26.4692 -3.0611 27.9598
19.0425 7.8264 -32.6782
2.8513 -31.2414 -22.5296
36.6297 -3.4746 11.7443
-2.8190 -33.8684 -18.3500
16.7506 -11.8319 32.7286
-6.0013 -7.7208 -37.3646
11.2388 30.7744 -20.4540
28.6165 -3.8305 -25.6546
5.8515 -34.5881 16.1605
-23.4900 -14.4817 27.0229
-8.1913 -25.3488 -27.9657
17.9564 10.4996 32.5433
-6.5406 38.0113 -2.0252
-28.0462 -20.8921 -16.3910
10.9475 -25.6818 -26.6896
-31.9501 5.0028 21.1164
-23.6159 13.8865 27.2249
3.8423 -37.5357 -8.2491
-11.3120 30.6388 20.6164
-12.0872 -15.8125 -33.0998
-33.1591 -13.2351 14.7325
30.0274 -23.7606 -5.0524
18.8918 23.1254 -24.4960
-37.3307 9.3460 3.2875
-31.4194 22.3856 1.8558
-14.6132 -7.0141 35.0570
-5.5050 -34.8045 15.8140
-26.8052 7.5734 -26.7556
13.0299 -21.6867 29.1830
12.0705 -20.8848 -30.1640
17.7274 -1.7277 -34.2708
-27.5844 -20.4769 -17.6503
-38.2922 -2.5239 -4.3676
-11.9511 -24.0499 27.7581
-26.3637 -2.6976 28.0965
-1.0135 38.5426 2.2748
6.3466 35.9782 -12.5312
1.0462 -38.4938 -2.9780
-37.3459 7.8527 5.9458
-7.3037 -37.9220 0.5623
-28.3631 -24.3186 9.7916
-1.6548 35.5731 -14.9518
-15.8679 35.2078 -0.5975
-13.0426 15.8182 -32.7324
-30.4086 -23.3849 -4.4945
-15.8893 5.4037 34.7860
-7.0721 -9.6406 36.7258
13.1232 29.4026 -21.3308
32.6290 14.7022 -14.5234
-24.8517 4.5227 29.2177
31.4952 18.0188 -13.2331
5.4277 5.7053 -37.8117
15.0170 -35.4895 2.5929
-22.7276 27.9987 -13.8298
4.3948 -28.4838 -25.7118
7.6559 35.2773 13.7345
13.4950 -25.0002 26.1651
-19.3243 25.5579 -21.5662
26.0043 -24.0224 -15.4416
-12.8317 -31.3137 -18.6154
-28.1783 21.6968 15.0655
23.6437 18.4869 24.3093
-36.4423 -12.7908 -0.3034
23.7839 -0.6169 30.4250
23.1623 28.1789 -12.6962
-34.8734 -2.9278 -16.3404
-2.5738 11.1961 -36.8749
-34.2956 -3.4373 17.4279
31.0014 14.4532 -17.9376
17.2841 -13.2141 -31.9122
27.4771 -27.1430 0.0188
-18.2364 23.5961 24.5438
27.9168 5.3208 26.1548
16.2963 -25.9596 -23.5004
7.9466 -23.7020 -29.4415
3.5260 -31.3893 -22.2264
37.1900 10.4050 -0.6152
-19.2178 32.4703 -8.2518
30.3886 -9.5436 21.8447
11.8580 5.5056 36.3430
-6.2705 -12.3570 -36.0516
20.1175 6.0746 -32.4056
17.4719 -5.2326 34.0454
-36.2697 -13.2459 -0.8888
-21.5317 31.8425 3.7649
-9.0336 -37.5486 -0.4851
19.4013 -32.7536 6.5213
-25.6685 22.0591 18.6081
19.3192 30.7470 -13.1577
-2.4671 -17.4434 -34.3712
-26.2964 -25.3467 12.5612
-12.0880 -12.2475 34.5777
-21.7773 -5.4238 31.4336
17.3507 -10.6999 -32.8055
12.0045 9.9114 35.3467
-9.2003 10.8151 35.9183
-20.6247 -26.4211 19.1908
23.2820 -19.1950 24.1089
35.9643 -4.7762 -13.2474
3.9699 -37.7782 6.9844
-12.1585 -36.2051 5.7533
13.8019 -7.7086 -35.2395
35.5832 -9.8693 11.3212
34.5576 6.2610 16.0719
5.9611 29.6196 24.0600
5.7375 35.9254 -12.9685
-30.3817 22.8529 -6.8143
-29.7627 -7.1338 23.5590
-0.5857 -4.8058 38.3184
-30.8019 9.7805 -21.1500
26.4773 28.1072 0.8192
-16.7963 -11.9700 -32.6549
-9.2805 31.3987 -20.4873
27.6575 26.3617 5.6443
-29.0278 -3.4816 -25.2390
21.0385 31.9855 5.1034
20.9069 -18.3092 -26.8219
-25.2864 22.4400 -18.6756
35.6855 -5.2743 -13.8008
3.5711 6.5276 37.8995
31.4158 -13.5437 17.9264
33.8189 16.0734 -9.4690
-14.7088 19.2525 30.0787
6.3153 28.7238 -25.0359
-29.8568 -18.4678 -16.1012
33.4324 -19.3366 0.3323
14.7750 35.2818 -5.3506
19.8722 -5.6946 32.6252
21.1760 30.3925 10.9365
16.9817 4.1823 34.4364
-7.9685 -26.4016 -27.0406
12.8836 -31.7295 -17.8603
7.7636 -8.8694 -36.7804
-31.4214 -15.2901 16.4514
-31.6665 -9.4438 -19.9946
-25.7446 11.4327 -26.4243
-20.7832 -17.3225 27.5632
8.3884 6.4514 37.1450
-13.0248 -17.5272 -31.8573
-11.7574 -36.5906 -3.8245
0.6854 -38.2130 -5.5708
34.7347 15.6217 6.4189
5.1851 -15.6796 34.9142
1.7470 -24.6336 -29.6963
33.0223 15.5696 -12.6036
-1.3988 11.8937 36.7195
26.8302 -12.3683 24.8778
-12.7706 -14.3747 -33.4965
28.4529 26.0838 -1.3421
18.1899 33.8120 4.1972
-31.6054 -14.4336 16.8673
-9.5224 31.3711 20.4184
-10.7719 34.9345 -12.4613
-36.1991 -13.1652 2.8352
36.0730 13.5768 2.4793
36.6590 2.5281 11.8940
13.6873 -26.7963 24.2147
-30.5126 14.0480 19.0623
21.0184 -23.9988 -21.7720
-31.2596 -13.7208 18.0641
5.7355 0.4475 -38.1922
-8.1680 36.7584 -8.5933
-32.6088 -16.3714 12.6641
-20.6588 -26.8284 -18.5793
-16.1303 3.8017 34.8869
-21.3393 -21.7439 23.7397
-32.0116 -4.2143 -21.1952
2.7449 -24.3260 -29.8739
-31.0865 -14.9976 -17.3332
33.9827 4.0950 -17.8926
11.8085 -36.7639 0.8421
28.6274 -25.6818 3.5568
27.8968 20.2520 17.4174
30.6780 23.0812 4.2256
2.7663 20.0424 32.8997
38.0838 -2.7277 -5.8244
19.5390 -3.5720 -33.1241
-30.7972 21.6872 8.5402
-29.6051 20.5846 -13.8401
-1.7575 26.7849 27.7708
-8.3643 36.3386 10.0639
29.6885 -17.4983 -17.4396
25.9588 -25.0805 13.7422
19.9896 0.9869 33.0330
4.8247 -9.4842 37.1283
29.9928 -8.4514 22.8198
2.6912 -34.6467 16.8553
-37.7315 7.6760 -3.0252
-0.1204 6.4915 -38.0734
-33.4150 19.3689 0.1486
0.8281 -29.8922 -24.4440
21.4391 -25.7099 -19.2640
-14.5644 18.6573 30.5209
-20.2936 26.6462 19.2324
-25.6860 -19.1834 -21.5398
-31.1186 -2.5640 -22.7332
23.6605 25.7462 16.4029
-7.7910 33.8562 16.8759
15.5833 3.2861 35.1866
26.2974 -21.8320 17.9875
-24.2520 -14.6874 26.2270
-24.2251 27.0481 -13.1636
11.9579 34.5597 12.4247
-16.0342 28.6487 20.3444
-31.7004 -21.5316 4.8181
-7.0889 -36.4872 10.4963
33.9052 -5.1550 -17.7652
1.7512 -23.0629 -30.9318
32.4102 6.6514 19.9267
2.7499 -21.6340 31.8770
21.8522 18.9587 25.5888
-32.8212 -18.7789 -7.8651
38.4532 1.4909 -3.2969
29.2613 25.1049 2.2922
-5.9573 37.1530 -8.7123
-26.1655 13.9738 -24.7353
8.8427 28.6067 -24.3967
-26.7149 15.9488 -22.8842
17.3394 6.6437 33.8666
-34.0082 3.0642 -18.0497
-23.3858 29.0369 -10.0848
-9.9455 -32.0495 19.1221
-16.9656 33.9253 7.2786
35.1073 -16.0226 -1.5774
-0.6830 1.5929 -38.5841
-8.3762 35.7237 12.0581
-38.5138 1.2791 2.6060
-3.3860 32.2530 -20.9765
-20.6518 2.9672 32.5028
18.4316 -33.8051 3.0382
-29.4201 25.0233 0.1800
-22.6947 10.9991 -29.2525
23.1415 -29.2901 -9.9144
16.1834 -11.8208 -33.0167
-4.6979 38.3268 0.8517
23.3093 23.1172 20.3472
-18.8867 5.0837 33.3045
24.8227 -18.1549 23.3660
31.5986 -2.1858 -22.1018
-9.9511 35.2793 -12.1689
36.0113 -9.1562 -10.5398
-7.6961 17.3297 33.6480
6.7353 38.0249 0.6956
16.8050 0.5405 34.7712
-30.9175 7.5243 -21.8913
32.7361 -14.2027 -14.7774
-34.9071 13.7059 -9.2401
9.6651 8.9490 36.3075
10.8182 32.8743 17.1459
-26.1841 27.7998 5.7706
22.1828 -8.2867 30.5122
-12.1816 -29.4449 21.8253
26.3167 -4.6085 -27.8914
-26.5916 15.2819 23.4752
-31.3496 -9.8915 -20.2756
-8.9203 -28.4856 24.5100
-0.5705 17.8666 34.2374
34.8441 2.8028 16.4246
-32.8854 12.0557 -16.2772
-36.3488 -2.4115 12.8329
13.9956 -17.1429 31.6541
-35.5687 -12.3125 -8.6608
19.6743 -19.6400 26.8129
-25.8729 22.3989 -17.9059
-37.2745 -7.3146 -6.9889
37.5788 -4.3207 -7.8041
5.8952 30.4060 -23.0751
5.7047 -12.8068 35.9886
-8.2191 37.7373 -0.2781
29.9407 9.0205 -22.6699
-17.9364 -24.6622 23.7022
-26.3030 27.8789 4.7598
-1.6692 -23.1925 30.8392
24.6028 -20.0374 -22.0214
-14.5716 17.9272 -30.9520
29.0183 5.6859 -24.8465
34.7743 -9.6710 13.7461
-16.2005 -26.0958 -23.4156
33.3277 -12.7404 -14.7880
-27.3362 -14.2939 -23.2412
-15.8563 -14.9812 -31.8729
-35.5332 15.0807 1.3046
27.9055 -26.4528 -3.6430
-35.0461 -14.4024 -7.4884
-8.4184 36.9134 7.6333
19.8155 -18.6835 -27.3863
4.7429 35.9376 13.3316
35.0809 16.0324 -2.0076
18.1983 -33.7427 4.6895
13.1581 15.1720 32.9911
29.6286 18.2278 -16.7820
-33.7172 -16.3706 9.3214
13.5982 -17.7448 31.4952
-36.6717 -7.4365 -9.5718
15.3355 32.8119 -13.4143
-19.1622 -32.9506 -6.2295
-3.1098 38.3265 3.6252
9.4740 -9.2713 36.2770
18.8076 4.2724 33.4628
-9.6044 -31.9534 -19.4543
30.5023 23.1230 -5.1646
31.1998 10.1061 20.4003
0.7523 -35.3877 15.4559
-30.1002 17.5541 -16.6604
14.3752 35.8331 1.0389
28.5693 -23.9830 10.0176
37.6656 8.1395 2.6061
6.5961 1.2434 -38.0353
-28.2006 17.5805 -19.6823
-35.4001 -5.5921 -14.3980
-0.8085 -33.9931 -18.3181
10.5219 -28.3738 23.9991
26.4331 10.5458 -26.1116
13.4292 -30.3428 -19.7664
-19.1758 -17.0989 -28.8384
-3.7169 7.4156 37.7218
-6.1609 -4.8522 -37.8185
-35.6588 14.3929 -3.6104
-12.7463 -27.2380 24.2356
-35.3279 -15.6066 0.3281
36.8221 3.7720 -11.0292
-24.2979 -30.0184 0.4962
-21.4458 2.7357 -32.0052
12.0547 34.7235 -11.8618
25.5648 -28.8636 2.2524
-31.0923 -14.9984 17.3220
-26.8480 -26.0156 -9.7011
23.9709 9.8075 28.6522
-20.0988 15.1107 -29.3163
28.4557 9.6548 -24.2650
15.7430 6.0069 34.7536
-37.2892 -3.0763 -9.5808
-13.4954 -0.3546 -36.1868
13.8166 -34.9540 8.8914
25.9184 -24.5951 14.6648
11.6637 16.1416 -33.0930
19.2716 3.5318 -33.2847
-28.3249 -9.8662 24.3330
-18.2512 24.8729 23.2372
-37.6621 -6.9714 4.9702
24.8591 -19.1361 22.5293
-21.3296 30.0535 -11.5575
-13.3965 7.8520 -35.3641
-25.3674 28.1676 7.4036
-3.2779 -20.9938 -32.2530
-3.2702 8.5994 37.5112
-2.6260 18.2466 -33.9397
26.5816 -27.8141 3.3957
29.4871 -12.9249 21.3354
19.1214 33.4190 3.0461
-35.9009 6.1004 -12.8704
-31.6607 15.8726 15.4077
3.2975 -33.7207 18.5412
33.8700 5.6864 -17.6698
23.8824 -10.3819 28.5234
37.2892 0.2165 -10.0600
8.3002 -36.9198 -7.7311
26.9861 -23.6826 -14.2344
-5.3001 -33.3349 18.7732
28.9854 -4.8110 -25.0687
-19.6884 -26.2119 -20.4215
9.8759 -37.1202 -4.0369
7.5150 31.0882 21.6514
36.6777 -11.6249 -3.3685
-20.1704 -29.4678 14.7153
17.4659 34.1533 4.4977
26.2772 -16.0029 -23.3485
-12.7612 23.1260 28.1794
-30.9042 13.0179 19.1625
26.7523 27.0661 6.5936
12.4512 -1.8810 -36.5126
3.7712 31.8173 -21.5680
16.6448 -34.0584 -7.3968
-22.9475 26.4860 16.2371
-19.8560 -2.0000 -33.0678
-10.2677 -37.2315 -0.3571
-27.5364 23.4033 -13.6298
-8.6689 37.1535 -6.0171
30.0625 23.8633 -4.3044
-9.5987 36.6655 -7.4326
-6.2605 21.4340 31.5139
-34.3941 -16.0555 7.1416
-34.5753 3.7028 -16.8100
4.7538 31.2759 -22.1575
-7.0890 -28.7146 24.8386
26.1104 -25.1876 -13.2502
7.4367 36.2891 -10.9330
-19.7841 6.0585 32.6132
26.9531 -15.0145 -23.2343
14.3034 6.4128 -35.2991
-4.2431 -4.5594 38.1175
-19.3674 0.6713 33.4094
7.3928 26.4807 -27.1267
16.0158 -26.2280 -23.3949
-21.0282 -31.9987 5.0630
-9.2085 27.7616 25.2237
-24.1363 24.1588 -18.0424
8.3939 -29.4043 23.5938
-15.3797 19.8553 29.3423
-25.0678 -0.9415 -29.3676
-10.8089 36.1017 8.4600
-8.8180 10.3987 -36.1365
-6.4923 37.3782 -7.2427
10.1475 -24.2275 28.3160
-23.4206 -23.3143 -19.9914
-3.0322 -24.6994 29.5378
-30.8232 8.7414 -21.5697
34.2378 -14.5037 -10.4475
6.9469 -31.7972 -20.7946
-16.4780 -24.3283 -25.0668
-14.6217 -35.4356 -4.7178
36.9480 -10.8699 2.9030
-3.2218 -26.6479 -27.7713
7.2980 -22.9030 30.2313
13.8781 27.5970 -23.1849
-38.2045 3.0732 -4.7655
34.0684 -18.1435 -1.3764
23.5378 -5.7951 30.0687
24.9569 25.0128 -15.5965
38.5722 -1.3655 1.4344
36.6889 -11.9149 -1.9227
17.0317 28.4485 19.8077
-7.0909 18.4763 -33.1675
13.1560 -21.6290 -29.1692
-15.6720 -5.6235 -34.8497
26.9660 -25.6335 10.3679
-21.6664 2.8391 31.8472
-3.1014 -14.5278 35.6520
19.3417 33.4292 0.3547
-23.0287 9.6275 -29.4742
16.3634 18.6997 29.5685
-2.4472 21.7685 31.8101
-30.6897 -22.6769 -5.9696
-23.2382 12.7440 -28.0947
16.4423 -31.4801 -15.1787
30.3834 -7.7002 22.5676
11.1528 33.0780 16.5287
-13.1449 7.9152 35.4443
9.8435 16.0153 33.7395
-10.3425 14.8301 34.1297
11.1601 -19.7307 31.2712
-23.0601 -25.4294 -17.7008
-4.7024 20.1310 32.6246
-20.3399 25.1984 -21.0491
-36.5441 12.2515 2.4839
-21.0404 -24.0191 21.7283
-25.1295 16.1200 24.5029
15.3851 32.4109 -14.3027
21.2801 -22.0747 -23.4862
-23.7590 -9.7639 -28.8429
12.4861 36.4738 -2.3448
-33.5907 -1.0171 -19.0359
24.8047 6.0235 -28.9859
-30.1444 3.5583 -23.8829
-34.9777 -5.2327 -15.5214
27.3750 26.2466 -7.3118
25.8043 5.2606 -28.2525
33.6110 -10.9283 -15.5760
-35.7521 14.1537 -3.6330
-28.6650 -24.1939 9.2039
-0.0785 38.5035 -3.0350
17.2482 31.2263 14.8039
32.8460 19.9628 -3.7902
9.3963 -32.9982 17.7360
28.1143 2.2279 26.3887
-2.3029 33.9980 18.1815
35.2675 -14.6967 5.6523
-18.5698 33.6256 -4.0274
15.0699 30.7704 17.8274
-30.4400 6.2090 22.9477
-21.8184 31.8652 -0.5510
-22.5816 -31.0637 4.1053
5.7493 38.0660 -3.1084
5.4865 -14.0365 35.5614
-9.1143 25.8578 -27.2037
7.5393 -3.0835 37.7543
36.9990 6.1198 -9.2391
2.9977 37.3684 -9.2926
16.5091 24.6676 24.7123
3.7760 33.3616 -19.0915
-18.3054 -22.8711 25.1706
28.9057 9.4432 -23.8123
-13.1666 -34.2415 -12.0788
17.5147 25.4879 23.1374
-38.4525 -2.8138 2.2859
3.8757 36.9065 -10.7064
-3.0311 37.4717 8.8555
-33.7160 -18.2760 4.5779
11.3374 -34.6463 12.7608
26.9083 -4.7487 27.2971
-5.8469 -37.9203 -4.4270
31.3258 19.8937 10.7088
1.0736 -35.9949 -13.9626
-17.5696 -31.4563 13.9121
-29.3028 -18.6758 16.8611
-22.7646 -30.3867 -7.0824
-10.9479 -36.7337 4.7451
-12.1965 25.7574 26.0680
-16.9343 20.0741 28.3196
36.3046 0.4194 13.1733
-17.4487 23.2183 -25.4595
-34.5945 17.1490 0.9318
-7.2502 -36.6626 9.7483
4.2582 37.3728 -8.7682
9.5192 -15.4567 -34.0912
-7.2786 25.8463 27.7620
-27.6560 5.2534 -26.4440
30.9097 17.5526 -15.1074
32.0227 -19.1832 9.9143
14.8981 32.3124 15.0231
-34.7522 11.4186 -12.3950
-15.7053 -25.5571 -24.3293
30.8421 8.0858 -21.7974
-23.5214 17.3386 25.2558
8.9038 -13.9067 34.9151
13.6972 33.4006 13.7304
0.7468 5.5914 -38.2088
-18.9567 13.9216 -30.6361
-13.0798 -28.3883 22.6883
-28.7822 -22.9302 11.7272
23.2424 16.4109 26.1191
1.9167 30.8857 -23.1114
8.4901 27.0537 26.2250
-22.7953 21.8346 -22.2568
2.9699 -13.4018 -36.1014
37.4888 -9.2042 -1.2678
11.3051 -19.1139 31.6005
-4.9352 -17.3653 -34.1442
-17.9133 -3.1422 34.0731
-17.2613 -32.2645 12.3606
-23.4123 29.8698 -7.1689
-35.5451 -12.8255 -7.9867
13.1150 29.9088 20.6203
-18.4721 -22.2651 -25.5887
-29.1996 7.6520 -24.0949
4.8343 8.4602 -37.3737
-33.3900 13.7304 -13.7230
-11.7189 17.2048 -32.5331
-10.0546 -20.0662 31.4323
-38.0134 2.5663 6.3350
2.8281 37.7632 7.5945
-34.5420 5.8116 16.2730
21.6476 -23.7051 21.4753
37.7283 5.4322 6.2295
-2.6790 -20.6157 -32.5508
17.5914 -34.2080 -3.4777
15.9879 -2.6081 35.0617
29.0485 -12.8291 21.9849
30.8183 -11.9959 -19.9517
-15.5420 15.7155 -31.6735
33.4654 18.8977 -3.8316
-6.0374 -23.6564 29.9276
-34.5444 -17.2596 -0.7287
-6.1889 -8.2540 37.2197
-12.4030 4.2793 -36.3262
16.1916 -26.4855 -22.9802
-19.4773 -15.7513 29.3984
8.7796 -35.6750 11.9143
-19.8544 11.9966 -30.8808
-25.9562 -12.6142 25.6690
19.7821 -20.8779 -25.7783
2.9189 -36.5497 12.1382
-21.2559 -27.6904 -16.5277
-23.0197 29.9815 -7.9334
30.4765 -23.4209 -3.7928
28.5828 -25.3414 -5.7074
-26.4570 -16.7504 22.6095
-29.8913 1.6284 -24.4048
37.2179 -4.6932 -9.1944
-12.6057 -33.8899 -13.5761
-12.4269 -5.1380 36.2065
1.2826 29.1026 -25.3600
-5.9613 -36.5794 -10.8696
20.7447 32.5598 -1.1194
-21.3214 -12.6967 -29.5961
33.4769 -16.2987 -10.2660
-31.3659 -1.0191 22.5140
31.4042 1.6907 -22.4199
-11.5328 -20.5035 -30.6323
-8.6203 -33.6839 -16.8173
-15.5589 -27.6018 22.0862
31.4339 -12.2060 18.8325
-3.6479 -36.3559 12.5170
2.5972 -18.7200 33.6831
17.2328 12.2966 -32.3042
-3.2160 -25.5120 -28.8190
32.3257 -9.8107 -18.7226
-3.6439 12.9992 -36.1867
-25.9014 22.7143 17.4617
-15.7098 10.6524 -33.6373
29.0690 -1.1797 -25.4035
-30.0357 14.8567 19.2060
31.6129 13.7747 17.3959
-0.0921 19.4707 33.3560
25.7446 -19.7214 -20.9766
-32.7842 20.0831 3.6880
-19.5641 -32.6841 -6.3822
35.7535 -5.1135 13.6849
8.9272 35.9390 10.9741
27.3806 -10.5517 -25.1137
-11.0717 36.3883 6.7118
13.6895 2.9019 -35.9988
18.3378 -29.9075 16.1556
-8.9912 36.5495 8.6621
19.2818 25.6602 -21.4826
-26.9951 4.2222 -27.2979
-25.0637 -24.8703 -15.6530
27.3182 24.0672 -12.8927
-31.4595 7.7170 21.0354
17.3982 17.1174 -29.9338
6.9274 -19.9411 32.3435
17.2764 -34.1148 5.4263
-35.7134 -8.4555 12.0332
-38.6143 0.4071 0.7114
-35.0934 -15.4636 -4.5902
-14.4971 -31.8177 -16.4074
6.4985 13.9045 35.4425
5.4910 33.8958 -17.6823
16.7205 17.8161 -29.9123
1.7421 1.5146 -38.5540
-36.3762 12.2195 4.3812
36.2747 9.3460 -9.4095
33.2834 18.8710 5.2763
-10.1380 -32.0498 -19.0202
-36.0766 -3.1402 13.4296
32.6172 11.6109 -17.1186
-16.7261 -10.2152 -33.2810
12.4853 6.9527 35.8819
26.5310 -18.9008 20.7511
37.3797 -9.6527 1.1485
-27.1115 -4.5170 27.1349
12.3704 -9.6781 35.2852
-36.1399 7.8102 -11.1646
-23.6829 16.2096 25.8477
-10.7389 -12.9184 34.7783
-28.8764 11.6913 -22.8300
18.9208 15.2630 -30.0130
