ply
format ascii 1.0
element vertex 1024
property float x
property float y
property float z
end_header
-44.5854 -29.3255 0.0753
28.1867 -13.1814 -43.3545
51.5087 -3.4380 -13.5235
-16.6866 49.7727 9.5965
50.4600 -9.6260 14.4562
-43.3847 18.7160 -24.8058
28.2428 38.9553 23.0797
19.2925 32.7356 37.4705
52.6042 2.8431 8.5187
32.2836 23.6753 35.2860
-5.3601 33.0365 -41.5658
5.5525 -44.9162 28.2764
13.5388 -23.5594 -45.9294
7.6439 -46.2586 25.4866
47.8154 8.8359 -21.9879
-0.7762 29.5119 44.4556
-10.9768 -47.0948 -22.5708
-21.4082 -2.1861 48.8340
-40.5127 -34.6789 1.9857
21.9975 21.9008 -43.4087
-14.1866 42.0632 29.6189
-43.4549 -30.8821 -2.4117
-27.1848 -18.9314 41.8382
37.0383 -27.9000 26.4122
33.8970 41.0226 3.9989
48.2301 -1.0782 22.8155
12.5467 4.2058 -51.6986
-5.4253 -45.8343 -26.7887
32.1755 42.2590 5.1736
50.8465 -16.1504 1.2835
-24.0685 -45.4035 -14.3904
49.4076 -8.6481 -18.2196
23.8330 25.2402 40.5311
-26.0623 -25.7293 -38.8151
26.3312 43.6982 15.6520
-43.5646 -30.6820 -2.9304
-19.0581 15.8349 -47.2641
11.8442 -11.9018 50.6549
33.5398 -15.5606 -38.4812
5.9779 21.1193 48.6425
-50.5001 14.0746 -9.9746
-21.9139 -46.9168 -12.9013
49.2792 -10.5884 17.5300
51.0168 14.0217 -6.9664
48.2990 -22.0523 -5.3622
-30.2640 -28.1830 33.7292
12.8571 39.8112 -33.1302
-37.3710 29.4343 -24.1842
10.5681 47.5733 21.7474
-36.6755 18.3810 34.1306
31.1952 -39.4609 17.8199
24.3579 -38.4282 -27.8894
15.2207 8.3328 -50.4653
-38.6593 35.0273 -11.2424
-9.4472 -49.5485 -17.4226
14.8795 -39.1705 33.0473
-9.8763 52.3453 -3.2065
14.3028 34.5179 -38.1025
17.6719 13.5850 48.4871
6.0657 -24.7314 -46.8980
-38.2346 19.6831 -31.5997
30.7353 33.2724 -28.2159
14.0151 6.4536 51.0860
33.1944 1.7391 41.7487
37.1016 25.6594 28.5116
-49.6360 16.0496 -11.2486
31.0540 -39.2467 -18.5255
-34.4925 -5.1043 40.3988
17.8802 43.8434 -24.6151
-5.1600 -44.5741 28.8856
8.2225 10.3871 51.6948
43.3263 25.5664 17.8058
23.6612 -34.2424 -33.3984
3.4199 38.1860 37.1212
-44.4631 -9.3347 27.9955
13.1337 -49.5584 -14.8095
-49.1814 2.8150 -20.5211
-48.0159 4.8453 -22.7783
22.1237 -15.3050 -46.0885
50.6235 -8.6966 14.4733
-39.1034 28.8835 22.0119
-17.7016 35.2310 35.9622
33.4582 -15.1948 38.6978
34.0213 -30.4481 -27.6282
14.7408 12.7214 -49.6863
-31.9284 -41.6215 -9.8020
-47.1020 -24.4531 -5.5940
-1.0573 -29.7069 -44.3197
51.0845 -13.1015 8.1596
36.3440 -38.4455 6.9935
-38.3858 17.0390 -32.9249
-0.9785 -11.9799 51.9940
-33.3476 -40.9668 -7.5836
-17.0601 -49.6946 9.3410
40.3476 -19.5967 28.9118
-23.2880 26.5495 40.0081
-15.5353 4.9066 -50.8176
-27.9074 -39.4411 -22.6589
22.2249 35.7781 32.7693
-29.7822 -38.9838 21.0032
40.3007 6.6129 -34.3508
-31.9051 18.9907 38.3310
15.6139 1.2435 51.0148
-41.5074 -31.4957 11.5330
25.1054 41.9056 -21.4823
-6.8568 48.5462 -21.0737
35.7295 -37.2377 -13.5870
53.3170 2.1338 -0.7738
-22.1097 40.7955 26.3578
34.4210 -39.1664 11.3596
-39.1366 -30.3822 19.8268
38.5705 0.9951 36.8671
-2.2587 16.9478 50.5522
-21.1680 46.0171 16.7987
7.1436 52.8741 -1.0736
-29.8266 -32.5645 -29.9629
21.3832 29.2942 39.1466
11.4123 -31.8387 -41.2785
-2.9879 38.6620 36.6630
-36.6647 -11.1146 37.1486
-49.8478 14.7578 -12.0522
-28.7494 -1.3480 44.9389
8.2414 19.6777 -48.9154
16.1208 34.9998 36.9186
48.9973 -17.8626 11.3155
49.2261 -20.1819 -4.1640
-48.5600 11.2425 19.0625
34.0789 -11.7265 -39.3570
51.8987 12.1019 -2.8152
-34.8365 18.5799 -35.9034
28.5333 25.4261 -37.2453
8.6607 -38.4882 -35.9374
13.9693 -24.1538 45.4896
-38.7377 33.4589 15.0911
-51.8944 4.1788 -11.7200
0.6767 23.3913 47.9608
-8.1045 43.8443 -29.3232
-37.8815 37.1440 5.7588
-4.2785 41.3595 33.4505
53.2110 3.0767 2.6406
-14.0022 -13.8919 -49.5863
5.6397 49.9371 -17.9536
29.4378 -25.9318 36.1775
-19.1612 35.2645 35.1726
-53.0197 5.6418 -2.2218
-51.7687 12.6113 2.9673
-7.2531 -25.0757 -46.5452
-30.0976 41.5213 -14.7637
-39.6014 0.3232 -35.7698
43.6777 16.0941 26.0977
-37.1722 2.9572 38.1750
45.2575 27.6295 -6.0183
21.7146 -17.5282 45.4872
34.7479 -32.5475 -24.1059
34.3191 36.1499 -19.0586
28.2407 29.8953 -34.0085
-42.6418 28.7358 14.2751
-5.1098 0.9419 -53.1117
-50.6721 1.8837 16.6326
14.7065 51.2426 -2.4005
7.4937 -52.6175 4.8059
-34.5705 -22.1518 -34.0886
2.1801 -19.1706 49.7553
-15.6009 -3.5788 50.9083
-30.0268 -4.0482 -43.9301
-17.9478 31.1431 39.4441
48.1553 -18.2790 -13.9570
-19.9397 -0.5997 -49.4965
31.8698 -39.4657 -16.5719
-48.8796 -17.2641 -12.6721
9.0547 12.2082 -51.1549
22.0367 -18.2725 45.0372
51.9340 4.2888 11.5029
-8.7785 -43.5728 -29.5331
-31.2035 32.9547 28.0746
-49.7822 11.7708 15.1998
15.0991 2.7989 -51.1081
-32.7214 -23.5973 -34.9332
5.7188 51.7288 11.8016
19.3078 -43.6678 23.8366
-40.7024 -30.6594 -15.8481
30.0441 -33.6136 -28.5540
12.9195 -50.8458 9.7798
-11.5638 -49.4902 -16.2742
14.0391 4.5323 51.2856
29.9223 8.8508 -43.2917
44.5957 -29.3087 0.2624
41.0771 -26.4465 -21.4735
40.5969 32.1378 12.9191
13.8062 -17.2204 48.5870
16.9568 34.3284 -37.1736
-14.0029 51.3628 -3.6923
-9.3271 -38.8856 -35.3379
45.9193 -12.8608 -23.9556
-40.8337 32.0086 -12.4866
-22.2999 18.1531 -44.9559
-21.4534 -48.4753 -6.1443
40.9911 21.9476 26.1893
3.0396 -51.8939 12.0680
-13.1626 -47.1859 -21.1681
2.4671 -35.2495 39.9905
-26.2745 33.5952 -32.0759
-34.7876 18.0758 -36.2069
-50.9116 10.8128 11.7873
-41.6083 27.2875 19.2871
5.4365 -48.7169 21.0941
-34.2292 -36.9081 -17.7202
51.2893 -14.3911 -3.1858
-0.1326 35.0112 -40.2747
45.4657 26.3269 9.3603
-45.3678 -9.4959 -26.4470
-49.1077 18.6598 9.3860
-35.3083 -10.6707 38.5657
-43.0234 29.0757 -12.3063
-43.4633 8.7059 29.7154
8.6837 -45.8642 25.8636
46.6171 -14.0545 21.8441
-9.1188 47.1845 23.2018
19.2405 -32.7656 -37.4709
29.7911 -6.7174 -43.7632
9.0760 48.7092 -19.8215
-9.0869 45.6656 -26.0755
8.2102 -34.8288 -39.5904
-52.0626 11.5729 1.8461
-45.9768 19.5426 18.7637
-46.1327 -18.5954 19.3348
-14.4048 -26.0475 44.2931
-14.0769 49.8481 12.8396
-22.4537 -48.1565 4.9631
40.3481 34.5741 -4.9511
4.5072 32.0761 -42.4106
-48.3090 14.0881 -17.7656
-20.7716 -36.0529 33.4152
-32.6480 30.0448 29.6524
-43.7898 28.9055 9.7355
-5.2959 45.1723 -27.9154
26.2153 17.1741 -43.1933
-21.8558 0.8886 -48.6763
3.5260 -19.8104 49.4264
4.1861 -27.0621 45.8036
-7.5413 40.1753 -34.3063
-24.5783 -47.3681 -0.1552
-36.9507 36.2635 12.9406
30.3156 -43.3700 6.9177
5.5558 -51.0981 -14.3515
-30.3301 -6.0335 43.4918
-34.8189 -40.1717 -4.6621
-19.5320 44.6433 -21.7562
-11.3403 7.0850 51.6629
0.9029 50.7286 -16.5422
-16.1649 42.1624 -28.4407
-13.3137 7.2109 51.1722
-24.0986 18.7395 43.7715
-35.1789 -9.7497 -38.9261
50.3108 -11.0725 -13.9309
23.0760 -12.3483 -46.5066
42.3501 -32.1798 4.3337
-18.4481 39.2116 -31.1444
-20.6503 28.9212 -39.8118
51.2176 -13.4182 -6.6751
39.8002 -25.4921 24.7780
9.1051 -50.5893 14.3411
7.3653 -47.9788 22.1728
-2.3116 -6.8552 52.8726
-43.3281 -12.8547 28.3776
9.2676 30.7239 -42.6381
-4.3310 48.1684 -22.5587
-52.0342 8.9632 -7.7430
43.6540 -30.6799 -0.9607
-2.6079 -47.9618 23.2533
-49.3694 -6.3246 -19.2487
-36.0023 -38.2817 9.2841
21.4486 -48.8594 -0.7536
-22.3017 -40.8837 26.0579
-31.4406 -42.8113 -5.1510
-2.2950 7.0885 -52.8426
-11.1146 -42.4097 -30.4259
-16.6426 -17.5132 -47.5832
-48.7826 -18.7608 -10.7770
-40.1508 12.7971 32.7414
-0.2527 52.1702 -11.2275
-7.4115 -2.9993 -52.7629
36.7142 14.0290 36.0985
48.9834 -3.2153 -20.9317
-9.5810 -37.3131 -36.9295
33.5503 -38.4955 -15.5026
21.5841 -47.9754 -8.9629
8.8912 51.5458 10.5749
-41.1122 33.9266 -2.5728
31.9656 22.9758 36.0301
43.9765 11.5452 27.9397
53.1809 -0.7235 4.3721
44.0763 -7.1581 -29.2214
-43.5238 -27.3140 14.4041
26.1278 46.5044 -1.5919
-5.0037 -51.9590 11.0940
-44.3744 29.2580 -4.7679
-22.6733 12.2774 46.7230
13.1041 -4.8402 -51.5044
13.5078 -28.2123 -43.2372
49.5492 10.4482 -16.8392
10.4069 43.0571 29.7597
38.7906 -34.1469 -13.3089
39.9548 33.1370 12.3857
-11.6107 14.9489 -49.8956
-1.4601 52.7752 -7.7780
21.0814 48.4212 -7.6690
-19.7716 14.4104 -47.4265
41.7656 31.8191 -9.5409
25.0437 -46.4889 -7.7104
-5.1275 -2.7417 53.0476
11.1845 -43.2174 -29.2406
8.5224 51.2379 12.2435
35.9154 24.1708 -31.2043
8.6952 40.0946 34.1273
-4.7393 -45.3114 27.7896
23.1939 26.2490 40.2602
18.1948 43.7862 24.4861
49.9739 18.6044 -2.0818
-45.2894 27.7572 -5.1245
12.5236 51.8735 -0.3932
31.9693 -37.0303 21.3207
-53.1548 0.3123 4.7248
-23.6347 -25.7229 -40.3433
11.2816 20.8599 47.8063
0.2223 12.4900 -51.8826
-53.1961 -3.8648 1.7570
45.3485 27.5471 -5.7026
-37.3604 -19.5250 32.7235
51.5931 -3.8320 13.0888
-36.5750 -6.1306 38.3736
-17.1648 -33.6641 -37.6822
9.3378 47.0244 23.4384
-41.7858 23.8515 23.0848
-15.6534 -40.2352 31.3680
21.9089 40.8704 -26.4096
-21.0428 -2.8558 48.9581
11.1831 26.6882 44.8389
-10.6636 51.4278 -9.4508
51.2532 -1.1311 14.8218
-19.4593 -41.3560 -27.5475
35.8008 36.2206 15.9443
-18.4483 -15.5672 47.5939
18.3981 -4.2950 -49.9091
-4.4847 -38.0840 -37.1127
35.0286 -27.8570 29.0660
-27.3911 3.2618 45.6830
29.7017 13.8917 -42.1032
-13.6984 13.2821 49.8377
-30.0670 -30.8314 31.5159
20.4899 25.8622 41.9423
-43.6296 -24.6192 18.3902
1.2563 25.0189 -47.1203
-4.4654 27.9203 -45.2589
-45.6436 -3.5616 -27.4195
4.8305 9.2933 -52.3274
-14.1652 -8.6268 -50.7225
35.9493 -35.2020 -17.7855
37.8464 -26.5238 -26.6832
-8.4361 52.3522 5.9944
-24.7379 -20.9743 -42.3789
43.5639 -15.0310 -26.9092
49.9895 4.6416 -18.0931
-23.1389 -42.4749 -22.5461
38.0572 -1.3447 -37.3858
-50.6578 16.7740 0.5222
8.3807 50.7573 14.1885
-7.1333 -15.2330 -50.6450
6.4372 -19.8423 -49.1192
5.1512 8.0483 52.5028
-42.1227 23.7602 22.5605
-21.4276 48.7011 4.1126
26.4605 14.9285 -43.8729
10.8206 -30.9024 -42.1404
43.0589 -23.8488 -20.6161
-32.7118 12.4609 -40.2805
-0.9122 32.1842 -42.5581
-25.4667 -11.1310 45.5565
44.1684 -19.2694 -22.9280
8.9842 -3.5150 -52.4860
-7.1118 -32.3146 -41.8693
3.6965 -36.9401 38.3355
-18.7656 -42.1077 -26.8821
-6.2703 49.4821 -18.9753
1.8221 25.9780 -46.5798
7.0512 46.2578 -25.6583
-7.6085 -20.7009 48.5946
37.2870 -26.4000 -27.5784
-21.4400 26.0433 -41.3512
38.8791 -17.8675 -31.8907
3.5704 -41.1471 33.7938
-29.4727 30.0126 -32.8398
15.2733 -7.0016 -50.6513
50.7624 14.1006 -8.4973
-46.0151 27.0257 -0.2758
-31.9388 34.1704 -25.6934
-3.6264 -48.9740 20.8864
24.0166 21.4496 42.5555
-8.1483 -31.8537 42.0333
-45.5167 17.0593 22.0241
10.5194 49.5167 -16.8904
14.8579 -3.2045 -51.1549
37.2087 -3.4956 38.0939
4.5397 -3.2981 -53.0694
-0.4110 47.4532 24.4106
-49.2407 3.5734 -20.2593
-52.3396 7.0845 -7.6305
-1.5244 -48.5384 22.1258
-36.8599 -37.5519 -8.8912
-4.1592 -51.0153 15.0994
34.1156 -39.8391 -9.8398
17.8982 28.4927 41.4207
-37.3789 36.6013 10.5362
-18.7212 -49.8898 2.8946
-16.0269 43.1110 27.0635
8.8522 38.5332 35.8425
-8.7432 40.0318 -34.1886
48.0379 5.1113 -22.6736
25.4029 -1.5080 -46.9070
36.3223 30.4263 24.5517
-40.8596 -7.5521 -33.4860
-10.3983 51.1634 11.0467
19.5907 36.9253 33.1750
-46.2005 26.7035 0.5377
-6.1819 31.0763 -42.9406
43.8755 16.5590 25.4676
23.0116 -47.8071 5.7271
49.2306 20.5563 -1.2798
-26.5260 -34.5597 30.8197
-0.8747 -42.0640 32.8284
-4.2771 -22.9809 -47.9733
44.8827 -8.6751 27.5343
-52.7213 3.1635 -7.6358
-25.2676 -27.8982 -37.8298
13.5601 -48.0381 -18.8764
51.2047 -0.2955 15.0282
-48.8007 21.0422 4.8542
39.7662 -35.4537 3.0873
42.0974 -30.0030 -13.2470
-45.9970 -17.8536 -20.3316
26.5756 -24.7903 39.0772
25.4049 -18.8911 -42.9601
-14.2137 -51.3951 2.0893
-14.7419 0.4138 51.2870
-42.3914 -29.1885 -14.1014
-50.1268 0.9921 -18.2804
-40.8761 22.4171 25.9705
37.8937 -6.1104 37.0753
-22.8435 -47.1578 -10.1080
2.6437 -52.6635 -8.2108
34.8562 -34.0318 21.7885
-38.8820 14.7137 33.4597
32.3474 37.6868 -19.5243
-44.0352 -12.7425 27.3200
-41.4908 -18.7498 27.8354
-2.3495 -20.7536 -49.1082
39.1486 3.3403 36.1121
-6.5605 23.3939 47.5135
42.0080 23.7162 -22.8193
37.3117 38.1106 1.8090
-29.6467 -22.7363 -38.1049
6.1177 -4.3042 52.8384
45.7308 -19.9289 -18.9573
29.2366 15.6242 41.8205
45.3935 3.2208 27.8730
-1.1204 53.1968 4.0864
-51.5694 -5.6259 -12.5221
-43.2112 -24.3209 -19.7266
28.0514 41.4039 18.6195
46.1594 -22.0258 -15.2324
-19.7863 -33.8551 -36.1965
-8.8429 -51.0659 -12.7251
38.0411 -12.3839 35.3181
6.4230 -51.4811 12.5016
24.5528 -27.8512 -38.3317
45.9772 5.1651 26.5945
-16.5840 10.0421 -49.7190
-19.4781 18.7419 -46.0130
7.0121 51.9179 10.1592
52.7666 2.9287 -7.4133
-3.8734 43.1298 31.1876
-4.5434 -43.1382 -31.0854
-39.0611 13.0250 33.9474
51.9553 12.1848 -0.1589
20.2951 45.3249 19.5350
52.3383 1.1926 -10.3505
1.4227 47.9453 23.3896
-14.4569 -51.1483 -4.7647
-49.0632 4.7423 -20.4492
-15.4767 -48.9199 14.6686
-24.5379 -33.9801 -33.0317
-5.5531 -4.9853 52.8409
18.8606 -45.9997 19.3949
19.4030 22.6624 44.2469
15.7240 40.4089 31.1083
20.1614 -36.1775 -33.6535
-39.6825 -6.3671 35.1085
8.2648 19.2943 49.0640
34.1524 -30.6393 -27.2525
-49.7869 9.8920 16.4700
-3.2564 8.8052 52.5330
-7.2993 -1.6160 52.8390
-42.1463 16.2668 28.4065
2.6010 -25.0105 47.0698
37.5250 -30.9040 -22.0153
-40.9937 -12.9100 31.6338
-13.6229 -47.8562 19.2887
-29.0425 -28.5990 34.4453
-8.0666 -52.6658 -3.0163
37.1259 33.4340 18.7532
18.6988 -49.4505 -7.2703
16.8318 -9.5757 49.7277
-19.3924 -40.4279 28.9374
22.6000 -47.6029 -8.4293
-45.6735 -19.9796 19.0420
-48.2834 -14.4127 -17.5738
47.8699 15.7025 17.5998
38.5845 -18.4967 -31.8898
8.2953 -17.8316 49.6092
36.4401 38.9660 -1.2730
3.0718 29.0795 -44.6408
16.9663 -14.3111 -48.5303
-13.2514 -51.1837 7.2444
-31.6761 -30.4819 -30.2544
6.2463 38.9653 -35.9241
-4.5540 29.9919 -43.9044
-30.4855 -42.7838 -9.3826
26.7666 46.0288 -3.5707
1.8402 -52.7095 -8.1346
45.5110 27.6501 3.4740
-34.1505 39.8787 9.5541
-49.4468 16.9203 10.7967
9.9574 -52.3329 -3.1567
9.6389 -44.8738 -27.2265
5.3585 51.7275 -11.9753
3.6555 -39.3370 -35.8760
48.1555 22.9886 -0.6493
2.7492 -47.5625 -24.0438
-38.9234 -0.1395 36.5076
41.5418 -32.2956 -8.8956
11.2684 48.7478 18.5613
40.9689 -20.0912 27.6721
41.8167 19.9492 -26.4810
-46.8557 6.0900 -24.8055
48.1173 7.8391 -21.7054
23.9160 6.7361 47.2282
33.4508 -15.0160 38.7739
-24.3122 -24.6729 -40.5958
24.4992 33.2848 -33.7604
24.5593 -46.3321 9.9011
-25.6531 31.9806 -34.1615
-29.7365 -12.5546 42.4967
-46.9609 4.5601 24.9345
-6.6626 6.7093 52.5209
13.4349 15.5063 -49.2637
28.0933 -45.2102 3.8276
44.8032 -9.2328 -27.4823
-50.1415 -3.9213 -17.8412
37.2515 12.6927 36.0426
-31.0996 42.2029 -9.9791
13.8039 -27.5460 -43.5720
21.6272 -8.4725 48.0451
3.5924 46.6851 -25.6018
-35.3373 39.7220 4.6142
-40.5918 -25.6893 23.2426
16.0651 50.0061 9.4422
49.4774 10.2913 17.1443
-51.9866 -12.0337 0.6592
0.8965 42.6182 32.1051
2.4578 52.8063 7.3012
-23.3448 47.1292 9.0394
45.1540 -27.4015 7.6240
13.2779 -37.7671 -35.2873
-9.6230 3.0142 52.4038
47.6613 -1.2009 -23.9752
18.3731 46.1789 19.4367
-4.2404 8.0826 52.5789
35.0367 -16.5730 36.6827
27.0626 -23.8195 39.3458
-39.1598 -26.7570 -24.4626
-9.9600 52.3931 1.9008
18.7208 47.8565 -14.3923
-12.1688 -50.2528 -13.2069
2.9578 -34.3102 -40.7665
7.3860 50.5033 15.5794
33.8088 -18.8487 -36.7361
-25.8907 2.6891 -46.5864
-35.1335 -22.1838 -33.4868
-49.1380 -14.9323 -14.5031
7.8825 -49.1345 19.2748
-4.3426 -29.4908 -44.2638
-25.5953 -34.5635 -31.5926
-13.7505 40.2354 -32.2473
-30.2269 7.7577 -43.2898
-14.0587 -32.4307 39.9807
23.8254 -40.8366 24.7502
-8.2224 19.3557 49.0469
1.0374 -3.7422 -53.2238
-6.8730 52.2694 -8.2777
-13.9331 46.3463 -22.4886
31.5269 42.0825 -9.1087
33.5486 26.2177 -32.1710
20.8364 -48.2248 9.3846
-29.5996 32.3897 -30.3747
-21.7431 -47.9699 -8.6011
-23.9783 42.7815 -21.0389
45.7400 -27.3055 -3.1798
-46.6866 -23.8682 -9.9260
-41.2435 -25.7544 21.9895
6.9511 28.9789 -44.2691
-48.0128 18.7817 -13.7794
23.3026 41.2015 -24.6430
-4.7363 53.1206 1.9031
-45.2248 5.2615 -27.8367
-33.5338 17.1138 -37.8213
-40.7306 -33.7784 -6.9201
-33.3214 -39.1454 14.3239
0.0218 36.4684 38.9603
-31.8427 41.8556 9.0555
1.1286 -17.4991 50.4020
52.1230 -7.2451 -8.8627
-24.2919 -0.8882 -47.5075
-7.3512 30.9988 -42.8122
15.7729 -47.8335 -17.6357
49.2965 -13.0507 -15.7285
-52.7604 -7.9895 -0.6006
-20.7386 17.3962 45.9906
-5.5696 52.7425 -5.9208
3.5313 31.7622 -42.7381
18.6536 -35.6360 35.0710
45.9707 -3.0825 26.9266
-4.6582 -46.5286 -25.7147
22.3277 -40.6971 -26.3262
48.1748 11.4459 19.9006
-43.7133 -22.5775 -20.6701
-41.6811 -8.4975 -32.2231
0.1479 49.3547 20.2965
-2.7192 -48.3336 22.4571
-32.5947 -41.9057 5.4177
-2.5885 -47.9726 -23.2333
21.6011 35.5495 -33.4287
-41.3415 27.8137 -19.1084
37.6688 13.3164 -35.3777
-6.3066 -5.8263 52.6700
1.8795 44.4404 -29.4850
0.0118 -1.7472 53.3367
-51.4757 -8.4657 11.2445
21.5629 22.4147 -43.3644
27.4508 -44.4730 -10.7918
21.5328 -18.0174 -45.3824
8.7462 51.0049 -13.0328
6.8039 45.6546 -26.7809
29.8465 22.7676 -37.9298
-16.0498 -50.6433 5.0509
31.4635 -23.7160 -35.9924
-39.7334 -30.7984 17.9042
30.3026 11.2667 -42.4578
32.0299 -36.4741 -22.1715
27.0042 21.7239 -40.5795
37.4716 29.2221 -24.2858
1.7338 45.8930 -27.1786
41.9264 -31.9435 -8.3451
-51.5573 -3.0866 -13.4229
-34.0661 37.6265 -16.4801
-14.8371 -37.8840 34.5328
-14.9079 -20.8358 46.8132
-38.2430 25.0675 27.5126
-47.7091 21.9724 9.4290
-40.5023 30.2350 -17.1250
-26.8480 44.8645 -10.6872
26.4575 33.8102 31.6973
37.9052 32.6984 18.4895
12.0008 -40.3725 -32.7703
-47.3042 -12.0128 -21.5836
-7.1603 -10.9230 51.7423
-49.0598 19.0792 -8.7736
-40.1585 -34.4534 6.9362
-34.2940 -37.6389 15.9714
-33.1992 40.9786 8.1495
-23.2015 -20.1587 -43.6253
-34.7816 -16.3940 -37.0045
-44.2550 29.2718 5.7016
-26.5414 41.3850 -20.7530
-39.8062 -33.4657 -11.9734
-35.4689 -15.5108 36.7318
-38.9198 12.9101 -34.1530
-49.9819 -9.2013 16.2789
-42.7966 -31.5842 -4.3298
3.2542 12.7642 51.7140
-49.1136 -20.8018 -1.7304
-33.2343 -36.1499 -20.8930
22.9850 7.8668 47.5148
-13.4732 48.8627 16.6963
-5.8056 -34.1442 -40.5995
29.6722 -26.2013 -35.7897
43.4115 -18.2486 -25.1055
7.8647 20.0196 48.8387
-8.1802 -11.0543 51.5630
-44.0802 13.6921 -26.7828
47.1622 -24.9379 1.2934
-28.1903 -11.1099 43.9287
-9.5005 51.0322 -12.3816
-39.9113 -12.1213 33.2869
-48.7410 21.5485 -2.7987
4.6023 52.6463 7.4188
17.2747 -22.5730 -45.1652
32.1991 42.0237 -6.7142
-37.0155 30.7077 23.1245
-52.2121 -5.4248 9.6080
-36.3788 -10.0157 37.7375
-2.5328 -47.9036 23.3811
-9.6084 24.0208 -46.6748
4.9278 -42.8906 31.3683
49.6077 19.6010 -1.6529
-18.7254 -49.7682 4.5100
22.4350 -40.5040 26.5320
14.7860 36.4958 36.0178
3.8071 39.9745 35.1482
-18.9104 25.2921 43.0181
44.5847 -29.3009 1.2301
21.2902 -47.2764 -12.6300
-40.7144 28.8907 18.8551
12.0236 26.3987 -44.7928
-29.0031 44.6527 -3.5791
-12.6397 -49.8659 14.1944
-45.9757 26.5183 5.5556
-40.9034 -33.0322 9.1452
26.5358 33.5943 31.8611
13.2810 47.9132 -19.3854
46.0853 18.9382 -19.1139
-1.4003 -1.4758 53.3265
1.2406 -43.2921 31.1786
47.5198 -3.1428 -24.0800
-39.6535 -35.5748 -3.1443
0.4636 -51.3048 -14.6782
8.4882 52.1526 -7.4770
49.7228 16.5488 10.0811
-40.7084 -30.5982 15.9507
-39.8239 -35.4078 2.8628
33.2812 40.8739 -8.3390
-40.0610 15.0198 31.8963
-12.9785 51.3121 -6.8178
10.4812 -17.7214 -49.2336
19.6220 -10.2157 48.5641
-12.5131 44.1091 -27.3067
-4.3586 -16.9718 -50.4065
-47.4233 -15.4833 18.9513
-9.4782 46.1529 25.0584
1.6724 0.2064 -53.3387
-26.8036 -45.4612 7.9183
38.7253 -25.6958 -26.2283
22.4109 16.7380 45.4471
6.0386 43.7323 -29.9812
44.0586 29.8254 4.1398
7.5658 31.2957 -42.5581
28.7946 -19.4708 40.4921
12.7460 51.7874 -1.8589
-24.8049 42.6827 -20.2671
29.7675 30.5351 32.0835
22.0804 23.0961 42.7420
5.9131 14.7418 50.9467
-49.9655 10.9232 15.2310
46.6690 17.6652 -18.9156
29.7616 -9.1911 43.3315
40.1816 10.0107 33.6613
40.1362 -22.5073 -27.0252
-26.8176 -45.4558 7.9018
-35.0707 13.3968 -37.9266
26.6455 -36.7317 28.0829
35.3050 -35.1695 19.0923
-35.0963 26.5153 -30.2166
23.5097 -32.3173 35.3658
18.6805 21.2327 45.2555
11.2942 47.7007 21.0935
33.6068 5.1008 41.1390
0.5862 51.5101 -13.9363
-27.6068 -45.6647 0.6730
-12.5945 -14.4324 49.8090
14.9702 17.0888 48.2879
-51.8916 -7.6102 9.8591
-26.1561 -44.6100 -13.1779
-9.7817 48.1063 20.9273
45.5699 26.9132 6.8494
8.4903 -38.2580 -36.2228
42.1655 15.7575 -28.6640
14.7202 -1.9465 51.2580
49.9676 -17.9496 -5.3759
37.7487 7.7440 -36.9177
9.4499 52.2550 -5.2887
-39.8917 -25.5222 -24.5992
24.2625 -14.9737 -45.1107
23.0253 -46.9643 -10.5852
-45.2739 26.8952 8.6468
4.7505 -18.1947 -49.9423
-15.4946 3.2733 50.9613
41.5696 -33.2966 3.3392
-41.5166 -28.7052 -17.3274
-18.4936 32.6834 37.9161
20.1878 44.4184 21.6173
-50.9171 -14.2668 7.1942
-19.5786 18.4880 46.0730
17.5287 -34.3803 -36.8591
10.9303 51.3578 -9.5268
52.5678 -7.1611 5.7613
-10.8917 -40.8649 32.5467
14.3150 36.3153 36.3886
22.7504 -47.9185 -5.8382
-40.7007 20.2142 -27.9765
40.0678 -30.8669 17.0193
-28.4681 -24.3380 38.0142
0.1697 -14.4055 51.3839
-23.0490 -25.4476 40.8536
14.3122 -28.2203 42.9724
5.2031 -49.6422 18.8793
-21.4441 -35.3593 -33.7301
18.2149 -47.8470 -15.0575
-21.7678 -47.1374 -12.3321
23.4474 -44.1243 18.7381
-27.9193 -28.1843 -35.6933
-6.3746 7.8330 -52.4009
8.2808 23.6498 -47.1165
-20.7235 -43.3704 -23.1818
24.4438 -46.1270 11.0749
-26.1054 46.5041 -1.9310
-7.5011 -6.7264 -52.4055
31.1777 35.2921 25.1052
-40.2474 -33.3881 -10.6408
4.8519 -45.5191 -27.4285
-33.1358 -24.5980 -33.8350
29.2594 -35.0009 27.6889
38.2486 -32.1640 18.7183
40.5503 28.8071 19.3306
-11.2936 -33.6802 39.8240
43.0594 24.9828 19.2249
-34.2807 -40.8918 0.7390
-32.4964 26.3709 33.1121
20.9906 46.6363 -15.2415
-22.0738 29.3002 -38.7569
-21.6426 -43.4178 -22.2338
-47.8043 16.2506 -17.2776
48.2108 -19.3574 -12.2007
30.6821 -5.2833 43.3422
17.2013 -46.5300 -19.6705
-15.8482 -33.0033 -38.8261
-15.5749 -23.5741 45.2718
8.5097 52.4784 -4.6314
-34.8817 0.8997 -40.3771
-15.4553 -30.1187 -41.2535
27.9097 -33.4902 -30.7783
51.3276 -0.4540 -14.5986
-28.5543 21.8097 -39.4568
-10.5099 19.4907 48.5542
6.7759 7.3182 -52.4250
-6.7159 -25.6883 -46.2910
8.3224 -19.4326 48.9996
34.1584 -5.2580 40.6621
49.1341 -20.8242 -0.2078
26.5576 -30.6852 34.6549
-50.9901 -15.1872 -4.1482
-26.1964 22.1893 40.8563
-12.2866 -30.7506 41.8485
36.4138 19.7676 -33.6323
0.6513 2.3071 53.3114
33.6599 -22.5328 -34.7438
-9.8501 4.4004 52.2634
-24.1976 -33.1131 34.1445
6.6182 -3.2939 52.8507
51.6227 -12.4611 5.2607
45.0566 28.0963 5.3250
-30.9295 -22.8063 -37.0283
6.4449 32.4679 -41.8587
1.8854 -49.4348 -20.0123
1.2299 53.3414 -1.0171
-22.1097 -39.2205 28.6490
-30.3465 -43.8276 -2.4672
21.5426 -37.2490 31.5639
-17.4431 50.1841 -5.0141
26.9790 -29.7275 35.1604
-30.9870 20.1003 -38.5180
-19.5624 -16.4238 46.8553
-25.3997 42.7336 19.4049
-37.3555 35.0958 14.8563
10.4145 50.6992 -12.9994
47.2596 -14.7973 -19.8852
20.9437 -4.5428 48.8731
48.0429 22.4519 5.9698
39.7386 26.6401 23.6431
-28.0018 28.1786 -35.6331
31.6742 6.3609 -42.4751
-6.2147 23.7143 47.4011
23.1226 -36.8507 30.9066
42.8936 7.5126 30.8472
9.2921 11.6388 -51.2450
-41.2851 18.4584 -28.3316
-52.1800 -11.1774 -0.4040
-23.0317 15.2458 45.6613
26.6099 44.0478 -14.1264
42.4661 -32.2954 -1.2184
15.2517 23.9541 -45.1823
28.1397 -12.9042 -43.4683
51.3335 8.7499 11.6688
-21.4259 29.5211 -38.9524
8.9635 6.0852 52.2540
37.1179 35.2192 15.1566
41.8545 32.8443 4.1594
-52.7506 -5.0764 6.2814
37.4999 -8.7384 -36.9492
21.6473 3.5806 48.6459
-21.9001 -3.0717 48.5675
52.6137 7.7673 -4.3949
39.1696 -31.4188 18.0679
-48.7868 -8.4066 19.9255
-49.5276 -11.7829 16.0010
-30.7490 -5.1611 -43.3095
-12.0046 47.9530 -20.1061
-21.3651 -44.7126 -19.8033
-27.5741 -39.6117 22.7691
-37.1491 -6.4679 -37.7619
-53.3191 -1.2007 1.8673
-41.9010 31.9633 8.3966
20.2029 44.4405 21.5578
41.6064 6.6434 32.7510
32.5979 -29.2701 -30.4711
-24.4106 40.8471 24.1556
-33.3674 7.5459 -40.9576
-19.0167 -39.4668 30.4728
-1.2697 53.3083 -2.1118
11.5926 46.0317 24.3833
18.3010 39.3309 31.0806
46.8425 20.9596 14.6399
-21.6838 -46.1894 15.6269
0.3298 -2.3103 -53.3142
33.2830 -14.5548 39.0929
-3.3627 -23.3942 -47.8462
17.5811 15.4327 -47.9644
-49.2631 -12.1614 16.5258
52.8931 6.5338 2.7358
35.6907 -23.6885 31.8258
-39.4135 16.2753 -32.0865
36.1978 -31.7069 23.0705
51.5773 -13.2610 -3.4314
-26.0564 -43.8697 15.6322
22.8415 14.0063 46.1513
-50.9204 15.2116 -4.8555
38.2004 -36.4814 7.5954
19.6636 -22.1451 -44.3936
-37.8980 37.3863 -3.7224
-33.9427 -24.9952 32.7260
35.3090 19.7830 -34.7815
-40.3468 4.2436 -34.6696
-40.1624 34.0383 -8.7308
6.4487 26.5241 45.8556
38.9313 16.0809 32.7660
-46.6738 25.8036 1.8942
-47.3375 16.1660 18.5923
17.1928 41.6825 -28.5451
13.0531 46.8713 -21.9214
13.6881 50.6837 9.5736
-33.2599 -7.8205 -40.9936
-21.2079 48.0277 -9.5611
-51.8321 -10.6170 6.9684
-42.6737 -6.8448 31.3042
-29.8207 11.1544 42.8271
-40.2470 34.9528 2.5170
41.1173 24.1662 23.9419
-24.9676 44.8963 -14.4497
9.6401 -16.3158 -49.8870
6.9246 -43.8945 -29.5496
-29.9823 43.9018 -4.6418
-22.3330 43.1615 -22.0493
-16.2464 20.2069 46.6432
41.7821 -27.5707 -18.4922
30.5030 30.8469 31.0787
29.9890 43.2898 -8.6315
-8.3524 24.7014 -46.5610
-48.1592 -18.2799 -13.9424
31.7426 0.9704 42.8872
36.8437 9.7408 -37.3566
19.1231 -46.1932 18.6640
-21.9171 -18.4901 -45.0068
-42.3739 25.8818 -19.5560
-29.6072 -38.5290 22.0631
-0.5017 49.9082 18.8883
10.9718 -52.1636 -2.5348
-6.6611 -47.5382 -23.3153
-11.4692 51.8898 -4.8745
19.9902 0.6090 49.4760
17.5051 50.3963 1.2785
29.6850 38.1089 22.6796
-37.5125 -19.1158 -32.7910
-44.7693 28.8733 3.1450
8.8669 3.8086 -52.4855
-3.1937 42.8712 -31.6182
52.8883 2.5121 6.6610
18.7055 -8.7399 -49.2095
37.7285 -4.0032 -37.5285
-23.4038 10.5252 -46.7903
-45.2062 26.4448 -10.2432
-50.7791 -15.2553 -6.0508
22.5431 43.4737 21.2060
-32.6877 17.2633 38.4882
-41.0565 -27.3898 -20.2981
16.5603 -33.0281 38.5065
16.8100 -9.7867 -49.6940
43.3764 -31.0859 0.0843
-19.7575 -49.5726 0.2303
24.7379 -40.9742 23.6009
33.4801 -18.3267 -37.2970
32.6621 -42.2022 -0.0988
-52.8583 4.7455 5.5974
52.5797 1.5293 8.9939
38.8373 -0.1264 -36.5992
-18.7807 48.2869 -12.7874
41.5191 33.4861 1.6420
27.5130 19.9766 -41.1317
-37.3034 -36.0495 12.5196
42.9062 -31.4429 -4.2726
10.6961 23.5768 -46.6646
32.4820 2.8795 42.2431
-26.0922 -4.2287 46.3591
40.6526 -33.7840 7.3390
14.6391 -47.6593 -19.0299
26.6154 32.1282 -33.2754
26.0200 -42.0970 -19.9664
