ply
format ascii 1.0
element vertex 1024
property float x
property float y
property float z
end_header
-35.3269 -68.5343 34.6949
-30.2900 -58.3197 -53.1978
-21.4003 -65.9148 48.4349
-8.6965 -10.1673 -83.4846
-83.4909 -6.5747 -11.6069
-9.6614 63.5220 -54.9571
-80.6879 -24.5561 -5.9275
48.7503 50.3953 -47.2483
-22.7383 -76.0963 -28.9998
19.2669 81.9314 -8.0440
-8.0978 -64.0422 -54.6049
-37.7207 -74.8657 10.9978
52.2686 -33.5000 57.3970
49.2481 5.3939 -68.5143
-58.7528 -42.4298 -43.5488
-14.0022 74.8975 36.6466
67.3076 -43.8865 -26.3122
-35.3573 75.6594 13.1981
-68.4861 -42.5309 25.4843
30.2121 -49.3874 61.6181
1.0292 -43.7682 -72.3323
53.1061 -34.4112 56.0739
67.9037 -47.3028 -17.3263
45.2954 -55.5682 44.8238
-17.9706 68.0575 46.8391
70.6298 -22.2936 -40.7812
-37.8967 11.4687 -74.7060
-45.2263 -10.4528 70.6682
-17.1194 -66.5883 -49.2098
58.8712 2.1345 60.6490
-27.4735 -68.6061 41.0742
-33.0355 -73.2157 -26.3967
-27.6879 -55.4925 57.4685
-59.4357 23.0117 -55.5566
-9.8180 -57.6236 -61.0885
12.0809 34.8259 76.0913
5.7675 75.2554 -38.1057
-64.6702 -23.3511 49.2053
1.5367 26.3037 -80.3395
71.1123 -44.4374 10.8180
44.1640 64.9963 -31.2040
-9.0936 -80.2325 -25.0743
-55.3297 -62.7506 -12.2335
10.6637 -30.5541 -78.1115
-17.3244 7.0362 -82.4562
54.3715 -44.6520 46.8894
-72.6952 39.6484 17.0907
67.7422 49.5071 10.4265
70.9216 43.6447 14.6267
-65.6766 -51.3217 -14.1895
53.8763 -38.3519 52.6797
33.7489 -39.3072 66.8179
-73.9559 -36.9337 -17.7511
72.4207 -42.1427 11.3099
-70.3792 -7.1439 -46.3077
82.3212 -17.7214 -7.6062
-80.9261 -22.7268 -9.1175
23.1024 -40.1908 70.7082
-54.5415 -23.7265 60.0912
24.9765 -80.6796 -3.9557
-59.5525 -56.2195 -21.0128
-79.6078 15.3365 -24.0014
60.3124 -11.3030 -58.1664
20.3643 81.9131 -4.9216
36.9778 52.2954 -55.1951
38.7444 31.5380 68.2122
-41.3538 -73.0845 9.8587
-57.3636 -30.2189 -54.2670
15.4124 46.7102 68.7698
-82.6024 -4.5810 17.4507
-26.2565 77.8712 19.8833
13.8013 -14.9990 -82.0562
-52.0835 61.6868 -25.1143
-13.2309 65.0534 -52.3610
-52.7449 -51.9388 40.8535
-66.7610 -8.5918 -51.1646
63.9007 -49.7694 -24.2565
77.8184 12.4839 30.6125
-22.0188 79.2120 19.7308
-77.9396 8.2860 -31.7087
-14.7985 -24.4670 -79.5679
7.1953 81.8043 20.1235
-26.9525 -35.9711 71.6122
-49.8090 45.8954 50.6098
-27.4871 -69.0981 40.2316
52.0627 -43.7556 -50.2354
-27.0195 -24.1518 76.3892
57.2522 61.0764 -11.8545
-2.1252 -0.5911 84.5211
15.0964 0.1715 -83.1910
22.8447 81.2910 4.3091
78.3051 0.7702 31.8810
-24.1090 70.0781 40.7000
25.5597 46.3305 -65.9459
-32.4051 74.5014 -23.4120
23.9388 5.1670 -80.9253
80.8657 20.5311 13.7074
77.7869 -18.7342 27.3294
-46.8394 -69.6341 -10.2876
22.9619 -58.1677 -56.9030
-55.7189 63.1117 7.8095
-7.6034 -83.2724 -12.5125
-63.6546 -55.1930 7.1069
-19.7039 26.8098 77.7282
-0.2509 6.9919 -84.2599
66.7066 28.3575 -43.5289
38.5697 -53.3165 -53.0886
12.4059 -77.4145 -31.6506
-70.3702 -33.7368 -32.5352
5.2446 -14.2579 -83.1738
68.1829 -24.7187 -43.4598
-80.3696 -1.3221 -26.2232
9.0930 59.4034 -59.4746
75.0883 -36.8155 -12.4518
-51.1471 -29.7579 -60.3914
48.8684 47.2604 50.2694
-5.4224 -64.8733 53.9511
-35.6473 -31.8130 -69.7558
9.4737 -21.0250 -81.3442
-45.6443 8.1172 70.7063
-25.5072 -76.7066 24.7820
68.1286 -12.2760 48.5435
76.3027 31.6412 -18.0389
4.5635 -52.8469 65.8411
-31.7308 -64.2400 44.8893
-51.9170 -65.1765 14.3290
71.9276 -7.4596 -43.8115
-50.1187 66.1794 -16.0336
-25.4009 -10.1391 80.0042
-36.2460 -64.0816 41.5746
25.6435 80.2962 6.6039
67.6654 50.2679 6.5728
-44.3488 68.8881 -20.8876
-66.2939 39.8204 -34.1778
1.4468 0.2233 -84.5372
-10.1863 -81.5751 -19.7591
-66.5478 -43.0102 29.4989
83.9303 9.7218 -3.1421
30.7457 -58.2797 52.9797
-51.7005 -29.2354 -60.1749
35.8871 -75.2537 14.0592
-25.3358 -74.7016 -30.4376
28.2895 77.4724 -18.6119
-19.9432 73.7822 36.1541
56.0869 -15.0790 -61.4455
-20.0728 21.1329 79.3672
-33.8475 26.9784 -72.6305
-61.3412 34.6542 -46.7441
-29.8895 19.8620 -76.5558
42.8442 32.1554 -65.4147
-60.2577 -9.1429 -58.6011
-72.5199 14.8321 40.8601
10.9457 76.6868 -33.8821
-60.1010 55.7952 20.5777
-14.5343 -2.6140 83.2502
-77.8456 3.1079 -32.8494
-33.4028 -13.3550 76.5152
-21.8096 34.6798 -73.9617
44.4685 32.7207 -64.0358
-33.4895 5.0714 -77.4688
10.6689 60.1339 -58.4702
35.6188 24.8336 -72.5484
26.6248 -44.4690 66.8005
-33.6553 -77.4173 4.7496
26.8820 79.8634 6.9184
-77.0378 28.4860 20.0597
77.6636 33.0182 5.1799
68.6159 20.5876 -44.9075
57.6500 57.5399 -22.6784
27.1353 76.4219 23.9174
46.3592 48.6723 51.2884
21.9710 -64.8344 49.6231
-51.8086 -51.6825 42.3492
24.8489 -13.0846 -79.7496
-72.2318 15.3147 41.1911
-65.8878 -51.9624 10.3628
-8.2869 75.9463 36.2238
28.4833 -57.5934 54.9580
-30.5927 56.3504 -55.1125
20.2716 24.7310 -78.2695
69.5148 31.7582 -36.1633
-6.2841 -68.4892 49.1774
-25.8231 -16.8193 78.7334
-53.5797 -50.3958 -41.6912
-22.8365 -11.2485 -80.6265
1.6059 32.1600 78.1782
54.2915 38.1364 52.4092
65.1423 36.7786 39.4016
63.5341 51.1199 -22.3350
-70.7270 16.5338 43.2781
40.0020 1.1238 74.4799
-79.1376 -15.7889 -25.2313
44.6206 -39.6072 59.9078
52.9399 -30.5772 -58.4045
-18.1193 66.0654 -49.5553
1.4206 -83.6778 12.0287
31.1100 -46.0272 -63.7365
-48.1766 69.0938 -7.3304
74.0982 38.8068 12.3351
10.7490 64.2871 -53.8545
-18.5581 66.4791 -48.8344
-16.8745 44.6388 69.7947
78.6420 -16.0850 26.5589
78.3219 -9.6215 30.3608
19.9959 47.3035 -67.1656
83.3960 -6.5000 -12.3097
-10.0214 56.3939 62.1931
27.6613 -79.2742 -9.9567
-73.1960 -28.1450 31.6049
-57.9799 -45.1500 41.8149
-31.8708 -12.5722 -77.2973
58.6320 33.8087 -50.6748
-29.1304 63.6285 -47.4500
-56.0620 30.9855 55.1872
26.4678 -70.5081 -38.4283
46.2453 65.6540 26.4499
74.9005 18.9833 -34.3252
16.1095 -63.2561 -53.7384
-80.4061 21.4620 -14.9305
38.3458 2.1468 75.3237
54.0001 -33.6199 -55.6989
50.9386 66.1434 13.3785
-48.2054 -7.7610 -69.0267
40.6812 -12.7810 73.0093
-83.2142 14.5558 3.4933
-52.6838 -41.7535 -51.2809
17.1088 -81.4341 -14.9814
-22.2459 47.3502 -66.4210
-31.9161 -40.6060 -66.9417
-46.8379 -45.8327 -53.4251
66.4670 50.5233 13.3496
77.9922 28.0906 16.6377
69.3477 -26.7890 -40.2731
46.8840 8.3203 69.8665
82.2136 -12.7711 -15.0497
5.7649 67.9130 50.0326
34.3839 36.5266 68.0605
-22.3512 68.5539 44.1528
7.5161 12.0586 83.3473
23.4388 11.5708 80.4078
68.2660 39.8802 29.9666
16.2621 -20.4194 -80.4193
80.4738 -15.2706 -20.9632
5.5402 -73.5003 -41.4208
16.6762 -43.9952 -70.2496
63.3410 -43.5910 35.1628
-50.5602 46.7884 49.0223
11.6476 9.7106 83.1788
-55.9109 1.6653 63.4024
81.2836 13.0546 -19.2672
-82.9476 10.8878 12.2403
-57.8676 -35.5259 50.3779
-59.5517 45.8746 -38.7013
27.1518 -46.3794 -65.2718
-63.9728 54.8420 6.9652
-17.3218 -0.8105 82.7525
-32.3336 -78.1068 -1.5921
77.7465 -2.9476 33.0980
54.3360 -9.8992 -64.0178
-4.6102 -84.1310 7.0276
67.3228 -12.1761 49.6795
6.7891 6.4963 84.0261
16.3043 79.1239 24.9449
-39.4419 61.5601 42.4660
15.3960 -49.9086 66.4889
-12.6120 -73.3570 -40.1043
-8.0863 -78.6406 -29.9824
-22.0201 -25.1933 -77.6472
61.2943 -47.9298 -33.0820
62.6990 -19.4851 -53.2714
60.0862 -22.9990 54.8577
25.2818 -78.0311 20.5097
60.8392 58.4061 5.9997
62.6348 -54.7374 -15.1450
-65.0846 -47.4407 -25.7303
-16.4426 60.7326 56.4789
-18.7138 -77.1639 29.0552
-74.5611 -17.8381 35.6528
8.3296 39.5095 74.2852
-43.5078 -71.5835 -11.4692
-41.6889 -30.5937 -66.8935
-30.6281 24.8667 -74.7813
-70.6001 -45.9210 7.4538
75.9204 32.5571 -18.0224
-53.6887 13.8433 -63.8323
53.2724 58.4048 29.9933
56.2389 -61.6838 -13.4525
53.9516 -14.1941 63.5329
-53.0893 -0.8155 65.7992
28.0871 79.4919 6.3892
-28.1774 70.0583 38.0334
-11.8768 -2.7796 83.6653
-41.6983 -71.5414 -17.0811
38.6424 -75.0097 -5.3836
-48.1457 22.9430 65.6070
49.4072 47.7981 -49.2234
31.1887 -37.0725 69.2933
-49.2712 40.9926 -55.1419
-77.8695 -23.0760 -23.5054
76.6064 32.5951 14.7547
-69.6423 -46.9315 -9.8007
34.1177 -18.8185 75.0368
-58.0330 -59.0911 -17.0024
80.5327 23.7442 9.9682
29.6931 -76.7941 19.2264
-60.6569 -58.5734 -6.2105
33.4789 77.6160 1.8977
60.3469 26.4970 -52.9607
-0.5910 50.4348 -67.8576
38.1871 -65.2710 -37.8170
-29.0755 1.8857 79.3709
-5.6019 78.9494 -29.7369
42.9257 -28.1643 -67.1776
73.6488 -37.8671 -17.0474
23.5241 81.1198 -3.8558
-22.3160 -22.2571 78.4557
48.3845 -69.2360 -3.7397
-76.6837 28.3195 21.5938
-18.8673 32.8861 75.5725
-48.3318 -52.6122 45.2180
-48.4208 57.5888 38.5698
-5.8555 -84.3157 2.2909
73.1754 42.3561 0.0542
-49.7675 55.6705 -39.6568
17.8512 26.0110 78.4438
83.1739 -15.1469 -1.1576
37.1220 75.7912 -5.1315
-16.2409 79.7705 22.8380
-44.6066 70.9820 -10.9759
-60.2625 -54.5398 -23.2921
-30.8835 -10.1588 78.0492
-72.5615 42.3401 9.5296
-36.5999 -69.3803 31.5514
15.5236 -8.8442 -82.6406
-17.1758 7.1302 82.4792
-2.2176 51.8593 -66.7411
30.5516 77.6796 13.4597
-82.7496 -11.9945 -12.5425
-4.8497 84.0392 -7.9104
-39.0856 36.7601 -65.3428
53.1793 23.3707 61.4365
9.2106 79.4247 -27.4873
21.6166 5.2382 81.5718
73.7662 40.4934 8.2165
-10.7551 -13.5915 -82.7543
52.5299 -39.7810 -52.9789
-10.2097 73.0349 -41.3562
-38.3471 51.4742 -55.0325
82.8068 0.7827 -17.0616
5.3289 79.8494 -27.2827
-25.5867 38.5411 70.7713
49.9599 -68.0042 5.3013
-4.7817 62.3302 -56.9277
78.4855 -28.5500 13.1758
53.7176 27.8212 -59.0684
-27.3128 71.0881 -36.7310
35.7775 -14.5559 75.2115
-59.5157 10.0886 -59.2012
-40.4600 -72.0057 -18.0787
-44.4335 55.2905 46.0141
-70.6949 -36.0769 29.1438
-12.1885 72.6052 -41.5764
-51.4248 56.0258 36.9496
-2.2338 -2.0754 84.4948
-29.1142 65.1565 45.3395
-2.8131 -80.4864 -25.7428
66.6446 39.4034 -33.9786
43.8068 -71.2332 12.4689
-66.7548 9.6368 -50.9863
65.5187 -41.3937 -33.8013
-31.1472 -69.6614 36.4117
-41.4757 -73.5849 3.7012
-8.5562 -84.0969 1.7847
-24.2078 28.9306 -75.6682
-22.4743 78.7011 -21.2066
-22.6620 17.6893 79.5122
-72.9426 8.4596 -41.9104
-53.4087 3.5823 -65.4473
-10.1456 83.8790 3.1714
-79.7819 -27.8105 3.1790
-75.4827 22.9590 -30.3960
-31.6134 49.9302 -60.4669
13.6214 -57.9658 -60.0258
-1.7448 -83.7679 11.3391
-45.9743 -70.3973 -8.9027
-81.0043 23.4662 6.0268
-63.4185 55.3775 -7.7523
-23.0458 1.3780 -81.3367
4.6921 14.8554 -83.1022
17.7966 81.7999 11.8634
55.8554 -63.4114 -2.8018
-17.3481 52.9030 63.6317
43.9788 -11.2517 71.3298
55.2648 52.6188 36.4107
-31.6881 56.7204 54.1048
-46.9514 -46.3920 52.8396
59.5706 53.4100 -27.3386
-81.8959 14.9047 14.8184
-37.5492 -72.9232 20.5165
-8.9240 83.9210 -5.1290
-2.4444 -82.8240 -16.8191
-80.1756 15.6331 -21.8211
72.3044 21.5378 38.1690
-8.2593 -84.0719 3.5165
-16.4201 49.4387 -66.5948
23.8254 -5.2562 -80.9530
3.1782 -78.7813 -30.5300
22.4119 52.6488 62.2454
59.6697 -45.3362 39.1514
-71.8345 -41.5348 16.2275
51.5026 -8.1062 -66.5616
-42.8207 -62.3317 -37.8129
-68.7401 -14.2931 47.1081
82.9628 -2.9330 -16.0387
-63.4645 34.2869 44.1060
-73.0424 -37.1105 -20.8876
-63.6323 -45.5612 31.9966
-78.2838 14.0181 -28.7021
-81.6586 -17.8793 -12.6840
24.3759 79.7487 -13.9515
-1.9373 77.6689 33.3535
38.5406 -56.6160 -49.5774
76.4797 -31.4840 17.5580
10.6376 7.4191 -83.5492
-80.2485 9.2029 -24.9833
-74.2148 37.2847 -15.8332
45.8534 -44.8783 -55.0644
-32.2260 -76.3001 16.9839
18.9820 -79.5929 -21.2916
34.8158 68.1882 35.8734
-31.5282 38.0381 -68.6130
11.4249 21.4429 80.9836
-69.8580 47.5281 -3.0999
-26.8384 50.7234 62.0927
58.9256 -36.1047 48.7124
-51.5591 -15.3858 65.2197
4.3132 83.3231 13.6872
41.0788 32.4417 66.3984
-22.3048 61.5422 53.5137
-4.8147 77.6482 -33.1097
70.3167 1.7510 -46.9167
10.1914 -76.4917 -34.5519
-71.3337 -45.0035 5.9047
-38.1342 1.8434 75.4391
34.3690 -22.5870 -73.8734
77.1954 24.4597 24.3160
-64.9508 53.9324 -4.6211
83.3520 13.3550 -4.7715
38.8779 -30.8462 68.4521
56.7355 41.5724 -46.9201
84.2958 0.2722 6.5429
52.4355 -2.0407 66.2950
29.8738 9.1698 78.5630
77.3192 -34.1934 -1.1060
76.4720 -34.7031 -9.8183
-80.7211 -5.7844 -24.4810
21.8465 78.6340 22.0929
77.3201 -1.9238 34.1551
35.4072 -76.3244 8.3418
25.2263 -71.8066 36.8256
-54.4576 -41.2251 -49.8351
32.2752 -58.4523 -51.8682
25.0454 38.8335 70.8051
-20.0614 -38.8553 72.3635
-73.1066 -28.9181 -31.1102
-3.9018 83.6672 11.5435
45.8383 53.4747 -46.7758
-73.8977 -22.3850 -34.4486
-38.6139 -75.1815 2.3188
-74.5448 -0.5065 -39.8935
45.5882 22.1766 67.6653
35.0873 75.5071 14.7051
-26.7585 -66.0365 -45.5174
57.7222 60.3259 13.3271
-83.7817 5.6111 9.8901
-81.6890 20.5001 -7.4380
43.0728 11.8625 -71.7823
64.2876 26.2897 48.2144
-35.6991 -35.2055 68.0795
-45.2540 71.4184 0.4034
-74.7881 -17.4397 -35.3733
-78.7691 21.6925 21.7609
-30.7681 -34.0619 71.0056
-65.2098 0.7664 53.8123
-76.8382 27.5454 22.0413
64.9214 -22.3080 -49.3583
13.2182 7.0489 83.2122
-51.9789 -66.4996 4.9666
66.9978 48.3801 -17.8701
22.4971 59.9016 55.2662
-83.9901 6.3832 -7.3204
-84.2707 6.6473 1.7162
-16.5129 66.7486 49.1999
65.8726 33.9143 -40.7345
-82.1205 -9.1492 -17.9217
-80.8851 6.9885 23.6100
26.7633 -79.0806 -13.3666
-7.5892 -76.7155 34.7248
29.8687 59.2244 -52.4309
53.6224 60.3835 -25.0430
-57.0578 -55.6481 28.2200
58.2745 -0.0532 -61.2598
2.6912 -76.8336 35.1857
16.5768 82.2823 -10.1740
41.3992 50.5490 -53.6617
83.1989 -14.8510 -2.4627
60.7041 -50.9503 29.4578
-24.9890 -80.2170 -9.4580
57.5086 40.1830 47.1886
-71.7124 -13.4735 -42.7139
53.6895 -60.8426 23.7549
-39.4376 -28.9197 -68.9710
32.3161 77.2175 11.9079
28.3206 30.1584 73.7366
63.6252 -32.6076 45.1359
-56.0548 -30.4131 55.5120
77.4681 -1.9463 -33.8169
-40.9211 -2.8029 -73.9343
-78.7341 -30.8153 -0.1592
-80.8375 -17.8119 17.2252
82.9861 -10.4504 -12.3598
-31.0039 -72.6186 -30.2320
-37.1317 -46.5341 -60.0374
24.8413 80.6024 5.9019
78.0726 -2.0098 -32.3930
0.5571 34.5237 77.1782
28.6192 10.3021 -78.8891
59.8981 -6.9876 -59.2627
-42.8078 -51.8135 -51.2984
-61.2449 -1.6098 -58.2678
-27.1882 -6.1603 79.8218
-71.8891 -44.4529 -2.1371
-33.5590 -76.5681 -12.6410
-41.9944 -47.1596 -56.2238
25.1018 -36.3151 -72.1095
-80.1749 16.8229 20.9200
55.8541 -58.8648 -23.7471
-1.1721 -8.8330 -84.0790
-6.0793 -37.9859 -75.2913
-9.0637 1.5079 84.0491
-65.1400 -14.4518 -51.9288
64.1403 -31.8477 -44.9491
62.8388 -26.0643 50.2057
-25.4865 -76.4627 25.5454
-58.2996 -44.8689 -41.6727
-68.4235 -43.4164 -24.1230
13.8035 -20.4955 80.8583
-25.9406 -21.1999 77.6294
-23.2908 81.0310 -6.3393
-44.6835 -44.7573 -56.1145
-63.6561 22.4573 -50.9141
17.4140 54.3262 62.4026
-54.2169 -43.3181 48.2984
81.9949 -20.6148 0.7399
-73.8983 -12.2496 39.2131
27.1701 -57.2864 -55.9350
-30.6220 -64.8657 -44.7595
71.2351 -41.9129 -17.8199
17.7923 67.3306 -47.9447
-59.8892 -11.9419 58.4752
59.8593 -50.8900 -31.2368
8.3341 4.8500 -83.9982
82.6142 9.0694 -15.5341
-51.5351 64.5693 17.9891
-33.3450 -7.1557 77.3665
28.0805 37.5229 -70.3718
-23.1371 36.2504 72.7960
-7.1514 -82.7778 15.6644
-23.8838 77.4398 -24.1104
-74.3590 -8.0196 39.4348
-38.8025 -8.1618 -74.6755
46.4454 44.9580 54.5003
-27.5647 -55.2766 57.7352
9.7673 -32.0919 77.6104
35.8536 36.9998 -67.0388
33.1241 68.7789 36.3447
-34.2819 -70.3544 31.9950
-24.0499 -41.4979 69.6290
8.4606 10.8929 -83.4172
81.9534 19.0685 -8.2889
83.5639 -0.9048 12.8425
-45.5827 -37.1825 -60.7318
-10.3571 73.6441 40.2238
81.3656 -22.1309 -6.2078
71.3061 41.8757 17.6222
-64.5986 46.0522 29.2385
18.7404 -68.0480 -46.5504
-47.3396 -30.1034 -63.2568
60.8660 -25.3635 -52.9216
-34.2021 11.7413 76.4267
21.5702 78.8738 21.5018
56.1535 -33.5873 -53.5477
-54.0665 -55.1146 34.4655
-61.6442 20.5167 54.1085
60.0967 37.9841 -45.7633
-32.0888 -61.6510 -48.1471
40.9656 -71.1196 20.3102
67.6434 -11.1066 -49.4943
43.3235 54.5414 -47.9269
0.3225 52.5724 -66.2171
-33.1698 -74.4534 -22.4752
37.0802 -66.5068 -36.7501
-8.1307 -83.9867 5.3663
16.1890 56.5784 60.7081
51.4228 48.2254 46.6763
-43.7282 -36.2629 -62.6221
-31.0195 54.2580 -56.9433
67.7276 -21.8789 45.6394
-66.6584 -9.8556 -51.0705
-1.2930 35.1847 76.8703
67.4226 10.4535 49.9358
-74.8770 -21.2001 33.0554
-66.2062 -46.0997 -25.3028
82.0507 -19.7916 -4.9650
39.3520 62.7182 -40.8231
17.7693 -78.5000 25.8974
-69.3436 40.8888 25.8503
67.4081 -50.7882 5.0382
83.2464 14.4598 3.1028
41.8500 -67.2811 29.5045
41.6449 45.2870 57.9954
-31.1904 -67.4466 40.3335
-70.6822 -41.9265 -19.8713
-51.8057 -12.4358 65.6520
65.5718 -48.5386 22.2039
-51.0858 -63.0421 23.7617
-53.7982 30.3447 -57.7376
20.7475 16.9220 -80.1989
-41.9362 66.2473 31.6436
-65.3989 28.3973 -45.4450
-67.6962 -50.0473 7.8211
22.8484 22.4839 78.2375
-59.6306 47.2746 -36.8508
46.1208 -3.0532 -70.7970
-83.0358 10.9421 11.5761
78.3658 18.4769 -25.8084
-56.0254 -56.2253 -29.1298
-79.4029 7.0071 -28.1914
-80.3630 9.3017 24.5752
-45.8403 -66.7709 24.2690
17.1682 -56.9245 60.1126
-13.6217 -73.0229 -40.3830
61.0986 56.5976 14.5720
-71.4803 45.0489 -3.1357
53.7747 -26.5166 59.6140
30.3276 42.2845 -66.6403
-6.2850 74.4488 -39.5797
15.7098 27.8884 78.2567
-38.4951 72.6197 19.8289
36.9070 -39.5391 64.9862
34.6406 76.6449 8.6174
-38.7078 -43.4839 61.3150
81.6747 -21.8225 -1.3007
-75.9484 -33.9801 15.0288
30.3397 5.6135 78.7189
-71.2844 30.6626 33.5710
81.3695 -12.6570 19.1699
13.5642 -14.2925 -82.2217
36.1403 8.5649 75.9552
-46.7096 -69.7974 9.7575
24.4504 40.8361 69.8804
-60.0278 52.4844 -28.1199
-35.4910 -32.5808 69.4806
-65.5259 46.9669 25.4781
8.4844 -37.1212 75.4898
-64.5226 -52.1767 16.2203
-44.6049 -57.9032 -42.5005
36.1819 -8.1304 75.9832
-34.8930 -10.3920 -76.3096
23.6820 0.5690 -81.1635
-75.5680 -2.4402 -37.8443
4.0464 -45.7479 -70.9890
27.9470 39.5682 69.2965
-9.2598 -45.8071 -70.4602
76.9765 22.1547 -27.0640
-2.6111 81.7391 -21.4610
-7.0989 37.4431 -75.4738
-62.3160 57.0734 -2.8313
73.8372 11.2686 39.6203
-58.9694 52.6083 30.0608
58.8419 -51.8625 -31.5688
84.5006 -1.8139 2.2436
61.5622 57.5063 -7.1970
-35.2742 48.0871 59.9336
-56.1707 -28.0228 56.6414
57.9212 -38.0341 48.4481
8.0496 84.1019 -3.2794
-51.2073 -4.5982 67.1218
-69.7141 3.6707 -47.6985
82.5705 18.1669 -0.8630
-22.5496 -10.9579 80.7472
-76.5492 17.2493 31.4858
3.9326 5.0791 84.3055
-33.2090 37.8375 67.9276
-63.9774 -55.1097 -4.3006
-50.3735 5.9993 67.6402
-54.4610 -64.4607 5.2425
75.5777 37.7010 -3.9136
-38.3575 -54.7084 -51.8109
16.2577 43.1021 -70.8983
-20.2341 -44.1363 -69.2188
4.5087 45.8118 -70.9198
80.6145 -8.5326 -24.0245
39.2271 -73.0738 -16.4356
6.6294 16.2259 82.7130
51.5745 -66.0010 -11.5156
-24.4988 -51.9518 62.0443
-1.6594 -32.5294 78.0241
-51.8242 66.7780 1.9049
-2.3386 -24.1089 81.0060
34.6806 31.9613 70.1741
-74.0697 13.5256 38.4632
83.7554 6.5045 9.5601
-81.6250 -5.2814 -21.4042
-32.6407 -34.4612 -69.9692
-31.8497 75.5098 20.7976
16.3045 13.3514 81.8815
3.9339 -68.8951 -48.8536
-11.4964 -55.6545 -62.6026
-62.4870 -56.7375 4.9903
25.3404 80.3933 6.5925
59.7745 57.4321 -16.6504
35.2401 -76.1393 -10.4699
-44.3240 69.6242 -18.3449
54.9198 -31.0873 -56.2678
-62.0551 -43.8555 -37.0746
27.2667 -79.5598 8.6858
40.5280 -66.4758 32.9715
-33.6527 -75.6313 17.2070
-31.5949 78.4096 1.5412
-18.3437 -58.7053 -58.0161
16.8515 -40.2534 -72.4180
-57.1100 -0.3464 62.3459
0.3832 80.3079 26.4417
40.8744 73.7769 5.9098
-22.4398 -33.8427 74.1606
36.0855 -71.6550 -26.6846
34.6040 75.9736 -13.3884
-67.0807 36.8763 35.9026
-64.0459 1.1323 -55.1862
-18.4065 -80.8861 16.3497
-72.6976 -34.4591 26.0058
21.4530 53.0017 -62.2838
37.0271 2.2652 -75.9772
-34.2236 72.0281 -28.0958
65.8770 -21.6756 48.3638
-64.2484 -31.7236 44.8824
33.4508 -8.5505 -77.1791
-57.5795 12.1213 60.7153
38.2697 28.5765 -69.7674
32.0300 -77.7884 8.4687
66.8054 -26.4267 44.5796
17.4686 -81.9818 11.0680
10.3752 45.5382 70.4791
-38.4607 73.2204 17.5562
-72.5741 -35.3195 25.1834
-55.4652 25.6388 58.4374
78.8409 -0.7977 30.5313
-13.8710 49.2176 -67.3342
-0.4495 78.8607 -30.4871
42.9454 -59.3888 -42.1584
16.8992 82.2365 -10.0129
72.0059 3.2886 44.1928
8.7219 -50.6959 -67.1009
23.8880 -39.8897 -70.6176
8.5708 -81.7902 -19.6362
-72.9096 -19.5534 38.0859
5.5429 74.4590 39.6712
6.7806 -60.7790 58.3833
-28.9809 76.9945 -19.5097
-30.0436 -43.7027 -65.8493
-30.5546 -29.8761 72.9556
-41.6834 68.5388 -26.7133
34.3560 -76.8819 -7.5838
-60.9019 -9.6509 57.8489
67.8208 -37.3754 -33.9425
47.3658 -52.9034 45.8954
75.9396 12.5457 -34.9921
60.9765 -17.4704 55.9047
77.6902 17.8445 28.1865
7.3070 43.7043 -72.0084
-80.9230 -9.9482 -22.3871
-36.6196 48.3346 58.9190
-13.2232 -83.4662 -2.6859
-24.8035 0.3115 -80.8292
29.2212 -69.5646 -38.1519
-36.7511 -71.6982 25.6398
27.7770 -65.0200 46.3629
35.2054 -75.5714 -14.0789
-53.5880 19.2663 -62.4965
-26.3570 -39.6394 69.8763
-25.8484 -12.2305 79.5673
28.9298 38.0686 -69.7318
8.5468 -36.4624 75.8031
52.7865 5.0432 65.8546
43.8329 70.4143 16.4066
-84.3213 2.8360 5.5265
68.5991 36.5794 33.2382
81.9489 -4.5796 -20.2996
62.0138 -55.3414 -15.5014
-81.2820 23.0806 3.0320
-41.7827 68.0797 27.7135
33.2298 -77.6950 -2.8178
-3.0328 -83.9537 9.5524
-84.2328 -1.7055 7.1132
-80.6053 -21.6101 13.5818
-32.0231 -50.7789 59.5374
-19.9321 -44.6536 68.9742
-72.7452 2.7045 43.0058
-68.2572 46.3356 -18.5108
19.3723 38.1859 -72.9056
-64.7483 -6.4660 53.9863
30.1666 61.8886 49.0759
57.5260 57.1395 23.9689
-83.9825 8.6642 -4.5333
-1.6004 -17.6776 82.6657
-6.2074 -12.6639 83.3653
-36.3889 -68.8136 -33.0032
-16.9903 39.6968 72.6923
-49.4663 59.2821 -34.4585
7.8586 49.6984 67.9484
53.2270 -54.5477 36.6074
-32.8383 68.9187 -36.3392
-44.2453 18.2494 -69.6992
-77.5981 26.4166 -20.7214
-62.2076 48.9026 -29.7897
-16.8556 7.2919 82.5312
50.6950 57.0846 36.3323
-83.7023 6.2649 -10.1658
-62.7086 -41.3888 -38.7720
-54.8497 -6.6100 64.0039
-36.9048 -71.0501 27.1771
57.7945 12.8956 60.3505
19.7405 82.2121 -0.4010
7.9614 -54.5440 -64.1111
-27.9501 38.4051 -69.9465
0.9174 7.1803 -84.2394
13.4525 -17.8091 81.5509
-29.6927 79.0405 -4.4297
-30.0221 52.0256 -59.5036
-43.7008 62.8486 -35.9022
78.6756 30.2887 6.4361
-51.1596 3.1675 67.2409
5.7678 23.1614 -81.1108
47.4694 -68.0160 -16.4058
-52.5551 26.7031 60.6100
-39.7006 -70.1221 -25.6012
3.7999 68.3596 49.6105
-49.7425 -9.4222 -67.7169
-60.7242 -55.8735 18.4229
6.4700 -71.8849 44.0384
28.7935 -41.8420 -67.5933
7.8098 34.8044 -76.6573
-49.3040 -68.6853 -0.3387
-63.0748 -56.1301 -4.4336
-8.5314 83.2790 11.8529
-34.6187 -52.6500 -56.3755
18.3287 39.4585 -72.4966
41.4453 -73.4458 -6.0557
-1.5659 -84.5159 1.8114
-60.0237 -58.6303 -10.4077
-60.5723 54.4235 22.7541
-54.7962 49.4156 41.2813
-15.9757 80.1009 21.8472
14.6514 19.8576 -80.8683
-51.0760 16.4613 -65.3371
78.7055 7.7027 29.9129
32.9420 -6.5926 -77.5889
-71.8991 -10.3280 -43.2727
37.4477 15.6006 74.1820
-2.6790 -83.8093 -10.8396
-4.0944 -50.1256 67.9657
-61.5323 -13.1811 -56.4687
37.5473 66.3999 -36.4682
-49.8133 -28.6254 -62.0314
17.4351 68.7974 -45.9522
23.2526 49.3646 64.5842
-24.1673 -18.6551 78.8454
26.5257 -80.1239 5.0225
-64.0033 -2.6179 55.1852
-27.6583 26.2403 75.4661
-44.1309 -57.7535 43.1934
-18.0384 82.1889 -8.2633
-18.9309 3.1616 82.3426
60.7753 -33.6898 -48.1668
-34.6800 -7.8364 76.7109
-23.8070 75.7691 28.9992
-59.4185 37.5602 -46.9824
18.4451 -82.4852 2.1567
25.3223 54.7838 -59.2131
23.4598 -68.1203 44.2486
-49.2282 67.4087 -13.4658
60.9435 -32.2571 -48.9289
73.1386 40.7724 11.7056
52.6374 -55.1300 -36.5877
-41.5452 39.8858 -61.9015
-53.3777 65.4795 3.4543
80.9537 -19.2332 -15.0085
80.2585 -11.8533 23.8064
-52.3598 -51.8887 -41.4088
-12.8369 77.3346 -31.6740
-54.7340 -23.3563 60.0611
-77.2830 33.6873 6.4163
-50.9341 -40.6426 -53.8755
-81.6610 21.5628 3.8998
78.1628 31.2513 7.9119
12.7805 4.4855 83.4579
-56.5350 55.3453 29.8221
43.5954 -69.5856 -20.1487
50.5273 50.4032 45.3342
23.7720 -18.8542 78.9182
-23.7336 80.7397 8.1544
-67.1819 11.1738 -50.1040
17.7183 81.2443 15.3001
72.4163 34.8473 -26.2721
83.3210 -3.1979 -14.0021
5.2547 33.1991 -77.5815
-2.8542 63.3221 -55.9539
5.9319 81.8677 20.2772
29.1023 -61.8330 49.7836
15.5354 -72.8785 -39.9507
79.8517 13.9619 -24.0302
30.2896 -58.1096 -53.4274
20.0411 -48.9883 -65.9331
77.6700 20.2000 26.6085
-29.5907 -37.9547 -69.5162
20.3263 15.2417 80.6424
27.8240 73.0271 -32.2728
-10.2151 49.6315 -67.6834
49.8473 46.6291 49.8963
7.9977 -83.9053 6.6798
30.1889 -61.5213 -49.5220
-75.4959 37.1281 8.3996
-51.6540 48.1500 46.4986
-45.8370 -28.7959 64.9495
-19.5302 -32.1057 75.7395
-6.6784 82.9768 -14.7961
20.3916 -55.6753 -60.2753
50.4662 -67.4427 -7.3025
23.6660 -80.9870 -5.4498
75.3110 -29.0534 25.1560
-37.5658 17.7347 73.6408
38.5277 59.3653 -46.2607
48.3588 69.1175 5.7335
11.4424 -34.7445 -76.2271
-0.1062 -66.8900 51.7146
-66.4457 -12.9263 -50.6611
-81.9928 -6.2161 -19.6777
48.8881 62.7384 -28.6796
40.7593 68.1364 29.0652
-19.0864 24.8588 78.5266
-79.0745 20.6887 -21.6305
-81.3854 -9.8869 -20.6722
-84.2654 -6.8022 1.3235
-69.6608 28.1343 38.7880
-73.3788 16.5514 38.6041
6.3460 65.1619 53.5007
-44.9574 -19.0878 69.0157
-23.2293 44.4095 -68.0946
5.9366 39.7681 -74.3769
41.0870 -68.5706 -27.5427
-39.8020 -59.5101 44.9781
15.2327 83.1263 -2.5808
9.9741 -29.9871 78.4217
-62.8387 -48.5556 -29.0228
-36.4651 -72.7135 23.0591
-8.2913 -80.3299 -25.0406
-80.8342 -9.9564 22.7019
-66.5879 -42.4128 -30.2636
-57.2204 -31.6759 53.5830
39.7633 -67.4340 31.9408
58.7212 16.8849 58.4413
71.8272 -41.2142 -17.0563
-82.3326 18.8992 3.5821
26.5653 63.3914 49.2392
-43.4800 -42.8412 -58.5046
0.4689 -34.2522 77.2997
-25.8921 -39.0745 -70.3666
6.2218 -36.3061 -76.1041
-72.8562 -30.8293 -29.8362
-5.0974 -57.1244 -62.1249
-56.3743 -14.6571 61.2845
-65.4857 6.2175 53.1191
-37.1007 72.5151 -22.6665
-65.1585 -12.8023 -52.3369
-26.2005 -78.0842 -19.1067
42.6423 -16.3600 -71.1524
57.4930 -34.1462 51.7423
38.1046 -10.1553 74.7903
52.6662 -23.2503 61.9223
2.4996 -75.6599 37.6564
-20.6576 -80.6096 -14.9675
-63.4921 42.0224 -36.7633
-59.6320 57.4126 17.2192
-62.0874 45.8227 34.5559
15.6371 -59.7154 -57.7774
-55.9401 43.2179 46.3852
-76.2566 -34.5081 -11.9496
27.1005 -62.1312 50.5367
34.6595 -62.6850 44.9220
60.0516 35.6089 47.6915
45.2957 -61.1259 -36.8863
61.3072 -56.5426 13.8937
48.4603 11.7956 68.2725
23.8295 72.4456 -36.5030
36.2728 53.6146 54.3915
68.9972 -45.7402 -17.2016
-69.1093 -4.1018 -48.5361
68.8762 48.9873 2.2336
39.8728 -0.1415 74.5575
-14.0405 -82.6071 11.2961
-26.7697 28.0352 -75.1405
-62.4797 -1.2272 56.9514
12.7803 -49.3361 -67.4633
39.0427 7.7079 -74.5984
-77.2106 -12.8400 -31.9739
-31.4098 74.5766 -24.5035
-40.8430 -58.4946 -45.3752
-1.7579 -63.2598 56.0695
-57.1166 -26.8658 56.2548
23.2010 -1.2351 81.2949
-21.3630 -57.8490 57.8428
-29.6741 -77.6592 -15.4005
-14.0585 -12.0957 82.4908
