ply
format ascii 1.0
element vertex 1024
property float x
property float y
property float z
end_header
-21.1869 2.3833 0.6616
-17.5774 11.0453 -4.9032
-16.3623 -12.4694 -5.6385
-4.3190 20.3457 4.7332
16.1389 -12.7285 -5.7031
11.9197 -16.8765 5.3017
-11.1344 4.0453 -17.7388
-1.0880 -13.1524 -16.7581
-4.3562 6.9090 19.7052
19.4595 -4.1061 -7.7117
-19.4117 5.1171 7.2114
-1.4786 -1.6342 -21.2167
1.9152 16.8405 -12.9512
19.4460 -2.3864 8.4357
-4.2822 -6.0528 20.0007
-13.9866 -14.9690 -5.9419
-6.1690 9.1107 18.2741
18.6586 2.5988 -10.0054
1.4879 8.6495 -19.4416
6.6521 -18.3046 8.7002
-17.4489 -6.6309 10.3233
14.5032 15.3184 3.1636
19.4963 -5.9936 -6.2431
-8.9778 18.5482 5.5107
-4.0904 15.5936 -13.9682
10.0561 -9.2932 -16.3559
-1.8582 0.4679 -21.2446
-4.5897 -3.2219 -20.5805
-6.5993 13.0957 15.4905
2.0044 -9.2891 19.0971
3.0301 -3.3982 20.8393
-7.5648 -14.8209 13.3461
-19.3860 4.5237 -7.6630
15.7916 -5.3556 -13.3021
19.1004 6.1622 7.2254
-6.6443 -16.5766 11.6651
0.8326 -5.8895 20.4847
-5.9056 15.7854 13.0748
8.1929 19.6429 -1.4274
-19.9083 -6.5359 -3.9933
10.8203 14.0132 -11.8977
8.4287 15.9590 11.3697
-14.4002 -13.8080 -7.5483
-8.0225 19.7507 -0.7431
-17.8180 7.4792 9.0325
13.4049 16.5706 0.8530
-11.5224 -17.6891 -3.0548
-4.1691 -17.3226 11.7282
-8.1263 -17.7195 8.6595
1.4637 11.7039 -17.7730
-10.0970 14.5749 11.8586
8.8662 15.7326 11.3526
5.5750 20.2407 -3.7734
-3.7129 -11.0277 -17.8776
-11.0227 5.9462 -17.2669
-20.4635 6.0048 -0.4364
13.3375 -9.1431 -13.9111
9.0660 -19.2873 -0.9003
-11.2229 -1.2816 -18.0944
18.5044 -9.0808 -5.4891
-15.2768 -14.5855 -2.9811
15.2052 -10.6777 10.4782
18.3925 -5.8462 -9.0852
10.4968 18.5527 -0.7872
-3.9042 -20.5392 4.2310
-2.6167 -3.6396 20.8545
-12.5532 6.8936 -15.8082
-8.8109 -18.1373 -6.9577
-17.8947 10.9689 3.8036
15.0304 -14.7593 -3.3545
14.0749 8.6700 -13.4808
-7.1892 -10.2131 17.2920
-4.4509 -1.0091 -20.8369
-13.4896 4.4045 -15.9259
-16.3422 11.7161 -7.1183
-16.8456 -1.7111 -12.9731
-1.1764 -5.8663 -20.4745
-2.1804 -19.6619 7.9786
-11.9665 -16.5165 6.2458
-8.3334 19.4771 2.4898
13.2916 -16.4267 2.9153
-3.8424 16.8163 12.5480
4.6529 -19.3494 7.6784
13.3502 -2.8154 16.3966
-18.0384 9.5459 6.2043
13.7569 16.2485 1.3189
5.6120 16.4542 -12.3599
9.8476 15.5710 10.7505
-5.3644 -20.6164 1.0913
-18.1646 -10.2695 4.4260
3.1282 11.7206 17.5455
1.4922 11.0119 18.2076
4.4953 19.3924 7.6637
-1.2169 12.2082 -17.4494
20.7410 0.1045 4.9803
-8.0924 -19.4283 3.4723
-16.9365 -4.0559 -12.3171
8.3121 -7.2112 18.2732
4.2896 20.0436 5.9039
-3.2219 -15.4431 -14.3574
10.8855 6.1669 17.2765
-15.6636 14.0106 -3.6550
-11.7473 -7.9599 15.9262
-10.4449 16.5181 8.5476
0.5717 21.3211 0.2971
-16.0598 -12.3548 6.6669
-13.0940 14.1895 9.0669
-7.6872 -2.0326 19.7934
6.1757 18.6477 8.3143
-0.4254 20.7866 4.7689
-9.3867 -11.2540 -15.4997
-14.1839 -14.5895 -6.4005
1.4658 8.0262 19.7087
8.7045 12.0405 -15.3056
3.2308 3.2294 -20.8359
-3.0301 -13.4711 -16.2589
-16.2817 13.2138 3.9121
3.7184 20.9638 1.3020
17.8140 -0.2757 -11.7299
18.6086 -4.7586 9.2780
15.8678 12.6758 -6.5222
-6.7694 0.2495 -20.2266
3.3276 -18.7026 -9.7028
16.1117 -6.1535 12.5519
-21.2571 -0.5528 -1.6828
-2.4354 2.9528 -20.9846
13.8393 -7.3936 -14.4504
-19.8085 6.0366 5.1173
8.8216 -18.9281 4.3485
6.7604 10.9199 17.0310
13.4632 6.2771 15.3083
5.1079 3.0591 20.4830
6.7056 -18.0352 9.2071
-8.4060 1.5249 -19.5453
16.8603 -8.4625 9.9560
13.4115 -9.8226 13.3661
11.5319 -3.9799 17.4980
-6.0655 -14.7337 14.1821
8.7558 0.7520 -19.4364
-8.3516 1.9113 -19.5346
7.3073 19.9917 -1.3921
18.0592 -11.0139 2.7500
-19.7200 -8.0846 0.8740
-2.6336 -5.2195 20.5140
-2.4309 21.1085 1.8775
-18.9387 -4.9571 -8.4710
4.3804 18.0489 -10.4907
-20.4143 5.4281 -2.9655
5.2488 -12.5288 -16.4464
20.5541 -4.2067 -3.8519
7.2030 15.6012 -12.6381
-17.5652 -11.6840 3.1544
-18.9601 -6.1303 7.6117
-1.8328 1.0697 21.2250
11.3881 -4.5975 17.4407
-0.7651 8.3689 19.6056
0.8778 19.6672 8.2117
2.7393 -19.3970 -8.4413
-16.3491 -13.1672 -3.7860
21.2697 -1.1320 -1.1496
13.2387 16.6300 1.7848
13.3519 16.6074 -0.9610
11.7495 -15.0182 9.5607
-3.1692 8.2483 19.4146
12.6512 -17.1597 0.7040
16.5242 -13.1577 -2.9719
-1.7686 -18.1763 11.0226
-13.9797 15.2110 -5.3101
1.9448 -8.5181 19.4593
14.3147 -15.7891 -0.8920
-13.4637 -1.8201 16.4445
-12.3016 -8.9985 -14.9232
13.9718 -15.8904 -2.6993
19.6109 -5.1301 6.6406
-17.9861 -5.4249 10.1032
12.2791 -17.1093 3.3914
-13.7323 -11.6997 11.3818
-11.7346 -10.1403 14.6450
-11.2693 2.9125 17.8752
10.2469 12.0712 -14.2931
-8.2529 6.3756 18.6077
-8.2138 -10.5382 16.6278
14.7861 -11.5916 10.1000
-8.6749 8.9017 17.3352
-18.3974 9.3384 5.4160
-10.6444 18.0485 -3.9942
8.1579 -11.7111 -15.8525
12.1028 10.4668 14.1058
-5.2141 -1.3071 20.6424
-16.2607 13.6776 -1.8753
0.3902 -11.4802 -17.9738
2.4053 -19.3251 -8.7041
-6.2734 16.8694 11.4486
17.0373 -0.9638 12.7987
5.8769 -20.2191 -3.4138
-9.8358 16.6095 9.0766
19.7080 -4.1524 7.0254
-14.9604 10.4771 11.0191
19.5778 5.4225 -6.5047
15.5721 8.5349 -11.8182
-2.7634 16.5440 -13.1781
-17.0976 7.6430 -10.2108
4.3641 12.4148 -16.7878
15.6074 1.6413 -14.4472
20.9270 3.8314 -1.5439
10.6695 4.9852 17.7852
-15.5372 -10.1464 10.5191
-20.0926 6.8712 2.0197
14.9208 11.3163 -10.2135
20.4910 -5.9136 -0.3911
16.9872 12.1366 4.3750
12.4708 -14.0012 -10.1711
10.4906 -10.0567 -15.6146
4.4122 13.6657 -15.7729
20.6991 4.6271 -2.2670
-11.3066 -2.1622 17.9580
-4.2835 -18.5435 9.6330
5.6370 17.0840 11.4615
4.9019 -17.9003 10.5146
-11.1366 17.1291 -6.1298
-16.6476 4.7488 12.4623
-4.5724 15.5162 13.9048
11.0078 -15.2467 10.0683
-4.7696 -19.7163 6.5971
-18.6372 9.5932 3.9535
-13.2525 11.8725 11.7652
13.8252 -16.1197 2.0059
8.0724 -18.8619 5.8367
-19.8197 4.5799 6.4193
-20.5102 -2.9090 -5.0868
-6.0848 -10.4373 -17.5796
13.9328 -9.1173 -13.3325
-0.6382 17.8024 11.7333
1.7906 -21.2442 0.6931
-8.5969 5.3555 -18.7727
20.2560 1.1691 6.5828
10.3407 0.8237 -18.6386
8.8106 18.9331 4.3489
19.1755 9.1954 -1.6581
-10.1645 -13.2013 13.3196
-20.5892 -4.1522 3.7211
-17.8100 3.4692 -11.2148
-6.8797 2.0109 20.0905
3.2563 0.4570 -21.0758
-2.2692 -17.5538 -11.9046
-19.0427 -8.5796 -4.3324
-17.4909 -3.1373 -11.7995
5.4279 7.0012 -19.4043
15.7098 14.2074 -2.5207
-6.4153 18.2593 -8.9692
-13.1554 4.8028 16.0895
-8.2838 -11.5473 -15.9073
-9.7647 8.0425 17.1747
-10.1743 17.0910 -7.7063
5.3596 -20.6399 0.5214
2.0680 -21.1925 -1.2662
-1.9180 -16.6891 -13.1452
-8.9961 -18.8160 4.4758
11.2125 -1.2040 18.1062
-13.5047 11.0053 -12.3090
-6.3969 -20.1755 -2.6523
10.9742 -13.8005 12.0049
-14.3808 14.5690 -5.9951
-3.1551 -17.8596 11.2287
-20.2830 -4.7030 4.6353
-9.0324 -7.0951 17.9744
-18.9525 -1.1390 9.7216
-21.0211 1.6383 -3.2302
-18.8297 4.7887 8.8043
-6.6529 -16.1177 -12.2867
-18.9865 4.9626 -8.3599
0.1244 -17.6915 -11.9163
-7.5053 -19.0668 -5.9271
-5.8180 2.8421 20.3243
-6.3490 17.8238 9.8492
7.5644 18.6100 7.1728
-5.2260 1.5861 -20.6198
-15.1773 -3.9555 14.4571
13.9447 0.7060 16.1261
-18.2119 -8.5106 -7.1345
-12.4709 2.3792 17.1412
-15.0703 10.4079 -10.9346
19.8361 -4.0988 -6.6881
5.0665 -13.0541 -16.0911
8.7216 -14.9449 -12.4735
8.2071 -18.8219 5.7777
1.4515 9.1748 -19.2021
-7.0487 -16.1799 11.9804
-16.4146 4.9783 12.6800
3.9341 -18.6812 -9.5153
-0.3061 -20.6771 5.2315
-3.8877 12.1551 -17.0922
-19.3990 -4.0751 7.8788
-2.5429 13.8931 -15.9849
-3.4354 18.9010 -9.2711
-8.1149 13.2952 14.5736
14.8714 13.7214 -6.7506
-11.3401 5.4624 17.2212
-13.6772 -15.9351 3.7429
-10.0308 18.7543 -1.6316
-5.7647 13.0603 15.8493
-3.9938 -10.4407 18.1672
-6.3518 -12.7146 15.9059
-4.9176 19.5600 -6.9446
14.9074 4.7289 -14.5056
14.8690 -13.5631 7.0683
-19.1504 9.3731 -0.6413
16.5623 12.4061 5.1750
-12.9916 14.9315 7.9543
-15.7551 -12.4973 -7.1131
4.9297 12.3406 16.6857
8.0472 -1.4382 19.7022
9.3950 -18.9714 2.6127
-2.5488 19.2691 8.7868
19.9263 -3.4711 -6.7748
3.3271 20.7670 3.5586
-9.0000 11.3216 15.6788
-7.7683 19.4883 -3.8553
-9.7532 -14.5603 -12.1604
21.1472 0.0605 -2.7919
-4.3330 -14.3873 15.1405
17.5074 9.1500 8.0481
-10.5888 -14.2591 -11.8135
-20.5437 -5.6928 0.7436
-20.7573 4.9108 0.1476
11.8046 1.4237 -17.7095
1.7922 16.8639 12.9384
17.8761 -2.7241 11.3149
-9.3978 18.2637 5.7551
-1.1718 -3.3479 -21.0338
19.6997 7.6845 2.8061
-4.5655 17.1876 -11.7790
-17.8962 2.6575 11.2990
19.2421 -3.4362 8.5403
6.3984 -9.4822 -18.0042
6.5993 -0.8566 20.2662
-18.8335 -5.0978 -8.6207
-15.1933 10.7490 10.4224
-3.5602 19.7278 -7.2898
19.0585 -9.0218 -3.2228
1.9442 -21.2024 -1.2974
-17.1291 -1.1120 -12.6634
-5.6418 19.7301 -5.8222
4.1320 5.4663 -20.2002
-8.6746 -18.8256 5.0348
-15.3294 14.3507 -3.7509
-5.0284 16.6426 12.3589
2.5632 5.7616 20.3774
4.0159 -13.9920 15.5917
-15.1152 -13.9162 5.7335
-4.2031 -20.8226 -1.9383
-20.4559 -4.3545 4.1948
4.4794 -14.5878 -14.9042
11.2659 15.8919 -8.6908
-3.3081 -20.7525 3.6598
8.6145 10.1491 -16.6671
-7.4037 -19.2281 -5.5200
-18.1590 -11.1860 -0.3580
-12.8675 1.9832 16.8967
1.0086 -10.7388 18.4028
-0.4092 15.2070 -14.9527
-18.3199 4.0533 -10.1467
-3.3041 3.3990 -20.7974
-20.2454 -0.1802 -6.7153
17.2928 -11.3440 -5.2227
-19.7620 5.6740 -5.6811
-20.1398 6.9931 -0.6992
-19.7152 -6.1085 5.3852
-16.6337 10.1443 -8.6843
6.8502 20.1994 -0.2480
-15.2183 13.0547 -7.2789
16.5210 -2.9401 13.1688
-16.1484 0.5695 13.9251
-14.9026 5.8754 -14.0853
5.1915 4.3898 -20.2184
7.1458 7.3968 -18.6877
5.3470 -9.1580 18.5080
-5.2329 -18.4004 9.4365
1.8488 -7.4986 19.8836
-4.0780 11.6109 17.4230
-15.3809 -11.8202 -8.8721
11.0082 17.6769 -4.6208
-21.0759 2.6352 -1.9658
6.5489 -1.1895 -20.2657
0.7863 9.4261 19.1190
-2.6145 -20.5779 -4.9719
-6.3384 -2.6625 -20.1926
13.6563 -7.5029 -14.5676
11.4340 16.5484 -7.1005
-6.8387 -0.6113 -20.1956
-8.4699 -9.3443 -17.2032
16.7893 -2.8244 -12.8509
-20.0761 -0.1072 -7.2072
-8.3274 19.1493 -4.3546
-2.4319 7.0314 19.9912
9.7659 -15.3559 -11.1278
16.4622 -2.5020 -13.3319
-5.8931 17.6571 -10.4165
12.4717 13.2508 -11.1300
-20.7570 -1.7178 -4.6045
17.6710 6.5052 -10.0210
7.7867 -13.3973 -14.6589
-17.6562 -10.9177 -4.9058
4.1736 -18.2202 10.2767
11.1230 13.6729 -12.0140
17.5564 -2.2543 -11.9036
-5.8424 2.1202 -20.4053
-9.5202 16.2644 9.9918
12.5838 -16.4326 5.1595
7.0366 17.8906 -9.2421
-9.2693 14.8797 12.1524
-1.2328 -1.8888 -21.2112
13.3758 16.5984 0.7642
-13.2128 0.1170 16.7455
-10.0094 -9.0147 16.5393
10.6032 8.3210 -16.5329
5.2899 0.4643 -20.6593
-2.3356 -19.2631 -8.8589
3.6611 -19.5333 7.7493
-3.4168 20.8546 -2.9011
-17.4124 7.7443 9.5833
-5.8873 18.3293 9.1858
8.1503 -2.5626 19.5451
-18.8760 -9.1446 3.8827
-15.0067 15.1588 0.1142
15.6156 6.1725 13.1551
-10.7669 7.1778 16.9575
-9.1855 -12.9275 14.2657
19.8404 -7.7434 1.1836
19.5075 2.3010 8.3166
-2.1099 21.1424 1.8846
-18.7779 2.4897 9.8080
18.6483 2.9184 9.9361
-19.4200 -4.9454 -7.3083
5.9935 -9.5610 -18.1016
16.4404 -9.6246 -9.5961
2.5720 10.3631 18.4660
-0.2900 -18.1489 -11.2044
-15.7480 2.2619 -14.2087
8.9438 -18.7842 4.7079
6.2142 8.4754 18.5622
-0.6749 -14.6523 15.4874
-9.2163 -15.7195 -11.0888
-1.2990 -21.2838 0.5606
18.9449 -9.7593 0.9225
-7.1074 -6.5944 19.0001
-17.7682 6.7217 -9.7013
18.9464 -8.5843 4.7274
9.3993 3.9446 -18.7376
0.4174 17.1938 12.6176
16.1650 13.8772 -1.0583
13.6700 -14.0441 8.4202
16.6693 0.4533 13.3017
14.0160 14.2545 -7.4406
12.8369 -16.4715 4.3483
-13.4978 -13.6731 -9.2661
-18.1076 -3.1030 10.8392
-17.3091 12.0675 3.1263
-16.1523 -8.2075 -11.2581
1.7448 9.9584 18.7827
-16.7043 8.6616 10.0473
14.2618 -12.5688 9.6762
9.2861 12.4972 14.5805
-9.9155 -3.0801 18.6333
14.1669 -15.7198 2.6814
9.3562 -7.6637 -17.5708
-11.9325 13.5979 -11.3012
5.1652 -18.4886 9.3003
15.9315 13.1818 -5.2375
13.7242 -7.1567 14.6777
14.8590 -0.4581 15.2972
18.6866 5.3334 8.7961
-20.9315 2.5693 -3.2056
-18.5616 10.0427 3.1005
-16.5481 -13.2363 2.4425
-20.8896 3.0474 -3.0565
-8.9632 -10.8394 16.0366
16.0401 12.8856 5.6286
-11.6139 -11.2574 -13.9065
-13.2414 -10.7579 -12.8038
-10.3022 14.3346 11.9744
-4.9275 -20.3035 4.3002
15.0728 14.5435 4.0376
-14.9309 10.4431 -11.0911
-14.2123 14.2615 -7.0444
0.4978 -13.3162 -16.6563
0.8485 7.9092 -19.7921
20.6873 -2.3546 -4.6362
12.4122 0.1906 17.3466
9.7332 -10.1939 -16.0110
-14.5213 8.8716 -12.8620
-14.4288 -8.4239 -13.2609
0.9780 20.1762 -6.8535
10.1226 10.9668 -15.2403
1.6823 6.2516 -20.3246
3.1052 12.5911 -16.9359
-16.0406 -14.0478 -0.5999
17.2742 -7.4101 10.0844
-8.3647 -13.3191 14.4096
9.1640 0.2307 19.2606
-4.2523 -13.4403 -16.0087
-13.4046 -7.5667 -14.7670
21.3290 0.1910 -0.2036
1.9417 1.4646 21.1917
13.3827 8.4966 14.2728
16.1394 13.8346 1.7689
0.3644 21.3232 -0.4391
19.4510 -1.4340 8.6376
0.7706 20.2109 -6.7770
-1.1589 20.8357 4.4197
-11.4068 -0.4473 -18.0191
10.1864 -17.9653 5.3376
11.8962 -16.7169 5.8334
-4.1859 -0.8721 -20.8979
14.2023 -12.2174 -10.1996
18.7444 3.3351 -9.6192
7.2370 -16.1954 11.8464
-17.4436 -6.5589 -10.3781
-2.5403 -15.4716 14.4631
6.0275 0.9756 -20.4382
-20.0872 -1.1429 7.0853
-12.6921 -1.7220 -17.0572
-14.3463 -14.0842 -7.1290
2.4669 4.4506 20.7150
-16.4843 12.3016 5.6519
-12.8666 -3.5661 16.6355
5.9331 1.5563 20.4299
-9.2824 5.2975 -18.4601
-16.8601 -12.5342 -3.6922
16.9918 -12.8510 1.0650
15.0836 -8.3847 -12.5374
-20.0731 -7.1070 1.2510
18.2720 -0.0815 11.0060
-21.0425 -0.5431 -3.4531
13.1859 -1.6937 16.6814
-20.7306 -0.7878 -4.9624
-16.2380 13.5575 2.7432
5.4615 -10.1589 17.9436
-8.0852 -6.0552 -18.7875
-5.6488 -10.8302 17.4872
-1.5661 -17.9106 11.4788
6.2889 -18.8958 7.6421
-6.2271 -20.2898 -2.1339
-4.6223 -17.9838 10.4987
-18.5391 -5.2498 9.1513
16.0891 0.3482 -14.0009
-16.7886 -12.4829 -4.1624
-1.7981 3.8837 20.8971
18.3057 -3.9778 -10.2021
4.0634 -3.1556 -20.7011
16.8541 6.6044 -11.2839
-16.1151 -8.7231 -10.9186
14.5357 15.5583 1.2875
-8.4887 -9.6877 -17.0028
10.4377 -18.0093 4.6609
-13.7512 -3.0351 16.0217
-7.9775 19.6176 2.5521
15.2002 9.0395 -11.9267
-6.7948 1.8104 -20.1384
-9.6187 5.2890 18.2896
-14.6678 15.1400 3.2618
-4.4498 13.2289 -16.1307
12.2830 6.4134 -16.2173
18.8848 7.9765 5.8945
15.7791 -7.3539 12.3265
-3.3449 -14.0489 15.6985
11.5916 -2.1757 -17.7737
-5.0896 -8.3763 -18.9457
10.4280 18.5338 -1.6614
4.4920 11.7237 17.2447
-17.7309 1.8914 -11.7065
18.4054 10.5462 -2.2408
-11.2410 -16.2511 8.0341
20.8658 4.4028 -0.4859
-17.1743 4.7737 11.7157
-5.6332 -7.4039 -19.1951
6.9066 -1.9207 20.0901
10.7351 -14.4447 11.4504
7.9509 19.6862 2.0590
19.5780 3.6208 -7.6547
-4.6758 -3.1522 -20.5719
13.8757 9.4675 13.1466
3.0050 18.8270 9.5664
9.8456 16.0287 10.0572
4.8717 18.6794 -9.0746
-7.2277 -0.0616 20.0689
-9.1487 -5.8835 18.3491
-9.9993 3.0438 -18.5944
-17.1125 -10.9368 -6.5232
12.7440 -0.8934 17.0820
17.3750 11.5576 4.4199
16.7115 6.3692 11.6260
11.5320 17.6851 3.0421
-7.2525 -15.3170 12.9535
-11.1545 17.7555 3.9144
-3.5275 -2.8315 -20.8457
1.9722 -17.4275 12.1407
-1.8050 20.7295 4.6941
18.8128 9.9067 -1.7141
1.1090 7.4999 19.9380
-13.3609 -16.0862 -4.2099
-19.1453 -7.2763 5.9594
3.9611 -20.8780 -1.8499
14.3983 10.6857 11.5545
-1.7574 12.1068 17.4740
-21.2014 0.1058 -2.3441
6.2465 2.5364 -20.2374
2.3789 -17.2637 -12.3007
18.3323 8.7329 -6.5320
18.1023 -10.5149 4.0922
15.3138 -12.1041 8.6012
-9.6642 17.1411 8.2335
-18.7798 -6.9291 7.3695
13.2555 -11.1088 12.4856
-6.3330 -20.1561 2.9372
-1.6647 -18.3848 10.6879
-2.9861 -19.7569 -7.4668
-8.4292 -18.8161 5.4686
-4.4654 -18.1785 10.2277
4.9578 18.3958 9.5926
-11.5980 -6.3165 16.7509
-5.0155 -19.3155 7.5338
12.6416 17.1426 -1.1516
7.1216 16.5054 -11.4830
12.2815 -3.9816 -16.9799
15.8386 -2.5244 14.0631
-11.0932 2.4968 18.0474
-20.8165 0.6368 -4.6120
16.4592 -10.4763 -8.6224
-19.0628 9.5348 0.8365
14.3078 -15.8176 0.3033
-5.5524 -20.3642 3.0781
18.8156 -9.4170 -3.5068
-16.7271 -5.8591 11.8692
-8.8548 9.1917 -17.0912
6.4145 -14.5502 14.2179
-0.3323 -16.7865 -13.1570
9.1440 18.4384 5.6049
-20.4201 4.7186 3.9694
15.8637 9.1498 10.9375
20.2053 -3.7428 5.7218
11.8835 7.0691 -16.2423
0.6183 10.5017 -18.5563
-10.1830 0.2124 -18.7421
12.2372 16.6598 5.2637
-19.8851 0.8480 7.6726
-11.6342 14.6898 -10.1912
6.1562 18.9070 7.7220
10.4726 -9.8488 15.7585
11.9324 7.6170 15.9563
2.8543 -20.3353 5.7736
-3.8871 -17.2703 -11.9009
-0.9752 -19.8133 7.8414
-13.7672 16.1243 2.3399
5.7088 -15.8287 13.1097
0.3090 -12.5753 17.2270
5.4138 19.4601 6.8556
11.4131 -11.5662 13.8191
8.1536 15.4288 -12.2669
-19.7875 -2.8454 -7.4406
-4.1713 7.0690 19.6884
-3.8876 -20.4833 -4.5081
-3.4019 -17.1140 12.2696
5.0922 -19.1800 -7.8231
20.5178 -3.4646 -4.6925
10.3669 -14.4550 11.7722
15.7871 8.9260 -11.2293
-8.3750 -11.2548 16.0683
-19.4578 -8.7397 -0.1199
-17.8015 -10.2394 5.7675
-14.8859 3.0035 14.9797
-10.6083 -18.5040 0.2650
19.6370 -1.2386 -8.2375
2.2229 -13.1790 16.6246
5.7805 20.4783 1.4924
10.4426 -16.7875 8.0085
-17.2639 -11.0080 5.9821
14.1924 14.2909 -7.0249
1.3106 -19.7800 -7.8764
7.8291 15.7342 -12.0890
1.3047 14.6452 15.4538
-0.2797 12.3172 -17.4130
5.4169 -19.3046 7.2797
20.7032 3.9321 -3.3046
-21.3038 0.0272 1.0730
16.5863 3.7868 -12.8670
-20.9439 -0.7802 3.9683
-1.4535 9.9198 18.8279
15.9822 8.2502 11.4677
5.3368 12.3302 16.5677
4.2866 -18.5599 -9.5999
7.0653 -11.3514 -16.6202
4.1918 -16.2694 13.1430
9.9652 -14.1687 -12.4477
19.7381 -8.0358 -0.9159
-0.4871 -2.2499 21.2062
-19.6419 -6.6584 4.9866
-3.2593 -19.6760 -7.5653
9.8390 18.9261 0.0390
14.5729 15.2533 3.1576
-15.6545 -5.4704 -13.4169
7.4739 -10.8909 16.7491
4.6718 4.8018 20.2514
-3.1907 10.9580 18.0207
7.5443 8.0404 18.2603
7.4971 14.9794 13.2066
-16.5529 -8.2798 -10.6042
9.8325 17.3211 -7.6357
-18.7577 -7.1890 -7.1743
13.5996 -8.8084 13.8732
-1.2739 -8.9677 -19.3122
2.2054 -14.1604 -15.7995
-14.4360 -6.5629 -14.2665
-12.0031 11.4714 13.3917
10.2110 9.5365 -16.1181
14.2880 -7.7944 13.7879
-15.1671 13.1157 7.2761
14.6020 -6.9941 13.8877
-8.0491 -19.7462 0.5512
13.4849 16.2120 -3.2143
19.7695 0.0569 8.0104
-20.7535 -2.3381 4.3394
13.0212 -3.6510 -16.4961
7.7406 10.8200 -16.6738
-21.1557 -1.1609 -2.4686
9.7356 16.8441 8.7463
-5.4101 -20.3515 -3.3985
-19.1953 9.2808 -0.6396
-16.5219 -12.6887 4.5856
-19.7947 -7.4494 2.7713
-9.4485 13.2842 -13.7572
-11.7750 -17.7482 -1.1646
18.1749 5.0233 -9.9721
12.8924 14.5852 -8.7213
-1.6839 -3.0813 -21.0398
-14.7205 5.2829 14.5052
-13.2164 -13.1612 -10.3496
-2.6359 -12.0003 -17.4370
10.1177 -11.1415 15.1163
-6.4107 20.2183 2.2640
-14.3577 -15.4335 3.2662
5.6946 -14.6170 -14.4540
-18.8181 6.6755 7.5048
-19.4441 4.3208 7.6329
-13.6318 -15.6196 -5.0204
9.7315 12.4842 -14.2985
-2.2214 18.1923 -10.9137
14.0315 -12.7235 -9.8098
9.0721 -7.6927 17.7066
13.1422 -4.9918 -16.0427
5.3239 0.9812 20.6324
-15.7337 12.7250 6.7473
10.0679 17.7126 -6.3169
11.4848 0.5319 17.9672
3.2023 8.9635 19.0894
-18.0837 3.0087 -10.9055
-9.4108 18.6564 -4.2870
12.9259 -13.3124 -10.5217
-11.9218 13.3653 11.5863
15.1605 -10.6150 10.6058
18.1097 6.1264 9.4609
4.9115 -8.0500 19.1332
19.3647 -5.4526 -7.0908
-15.6006 -13.8300 4.5117
-16.7737 -6.8786 11.2397
-0.1335 -21.1873 2.4667
-11.6010 11.4318 13.7744
-0.8160 19.9921 7.3927
-11.1213 -17.6587 -4.4148
6.8818 15.5173 -12.9173
-10.7032 -3.0666 -18.1946
-18.8845 2.3481 9.6368
-8.9381 19.0911 -3.2625
0.2866 3.0689 -21.1070
13.3453 -16.0771 4.2935
-11.4528 -6.0893 16.9339
-1.2562 -17.7643 11.7412
-15.9896 -14.0950 -0.8181
9.3886 9.7805 -16.4682
11.1985 17.7349 -3.8820
-1.4590 15.7632 14.2968
0.1971 19.0662 9.5626
13.2552 16.0278 4.7341
2.4444 17.6849 -11.6737
0.2934 -19.0282 9.6357
-6.3284 -20.2636 2.0842
-2.9377 -19.8103 7.3435
-19.7593 4.5636 6.6140
8.8716 4.5170 18.8652
8.9018 6.4710 -18.2726
-15.3255 -13.7699 -5.5248
1.9077 2.6060 -21.0849
4.6515 14.9617 14.4747
-9.6138 3.2074 -18.7694
13.0517 -0.2648 16.8697
2.0967 13.9897 -15.9655
-4.3479 -2.0307 20.7840
20.3863 -6.1215 -1.3895
18.7266 -0.5065 10.2011
14.4014 15.4057 3.2043
3.6676 -13.9211 -15.7403
3.4782 -18.0474 -10.8258
12.5257 0.4587 -17.2598
-14.0629 -16.0229 -0.7105
8.7956 -2.4870 -19.2732
13.8577 11.5609 -11.3715
16.3916 -13.6498 0.0659
-15.0771 -3.0845 14.7706
9.8018 17.4635 7.3455
8.2056 -18.9884 -5.2070
-12.8969 -14.2906 -9.1898
-16.4301 -11.8783 -6.6304
11.2689 -17.4096 4.9920
-7.3475 -0.6599 -20.0146
2.0323 -9.3055 19.0861
8.2746 15.0265 12.6783
10.5872 -9.0558 -16.1526
-20.6055 0.2781 -5.5082
1.6993 -3.3244 21.0015
4.8111 -7.3657 -19.4320
-20.0444 0.8390 7.2473
5.9018 -20.4862 -0.6989
18.1323 2.7818 -10.8851
-0.0157 -8.4184 -19.5993
18.5014 -10.0734 3.3508
9.5475 15.6608 -10.8898
-6.8270 18.9943 6.9002
-10.9946 17.5543 5.0961
3.3555 13.1823 -16.4308
8.8552 1.9855 -19.3041
-0.3706 -5.1673 -20.6922
-19.7184 -7.9559 1.7009
-10.9222 -16.4027 8.1647
-3.8423 3.8721 20.6215
12.4309 5.3574 16.4856
-1.6733 -1.5922 -21.2054
-10.1595 -17.7557 6.0435
-20.8138 -2.6820 -3.8206
-7.4996 19.8839 -1.8413
17.3447 -7.0918 -10.1918
5.1882 16.9910 -11.8064
14.8986 9.3504 -12.0666
13.6736 -1.9972 16.2495
-4.4357 -17.0523 -12.0227
-5.7209 20.4668 1.8402
-2.0889 13.1283 16.6820
8.1749 -16.7685 -10.3436
14.6183 -15.2765 2.8178
-12.5976 -17.2036 0.5840
16.5204 9.4644 -9.6179
-5.6206 -20.4362 -2.4031
-11.1373 -3.1438 -17.9187
14.5320 -11.7073 -10.3326
-3.7782 -5.5458 -20.2478
-1.5223 17.4760 12.1357
15.4396 4.2446 14.0927
-2.8916 -7.5067 -19.7558
2.6348 5.0845 -20.5478
-5.8881 17.2989 11.0036
-9.8781 13.3609 -13.3758
1.2167 5.9128 -20.4588
-4.6608 -7.2588 -19.5087
9.6098 -18.6849 3.6781
-5.8746 -19.0383 7.6180
-6.1279 14.2330 14.6586
-19.7510 8.0348 -0.5855
-0.3427 -13.1253 16.8111
8.8090 6.1938 18.4131
-21.0232 3.5740 -0.5065
-15.4248 10.0553 -10.7690
-9.5079 -16.7309 -9.2022
-4.1031 -17.2260 11.8926
18.0178 7.5791 -8.5393
-1.5619 -20.0757 7.0377
-3.7839 -20.7772 -2.9992
11.4843 -16.4068 -7.3437
-10.4101 -9.1209 -16.2309
-2.1192 20.5506 -5.3092
16.6467 0.7022 13.3191
6.5139 19.6932 -4.9749
16.8729 6.7963 11.1409
16.4752 -5.8022 12.2437
1.7271 10.1758 18.6674
-14.2536 12.6570 -9.5728
-14.1133 2.6914 15.7663
-7.4929 -19.4503 4.5326
-1.5564 17.2415 12.4624
-18.2507 -1.4875 -10.9409
13.9697 -1.3076 16.0668
10.8529 14.4120 -11.3804
-13.0811 -11.2978 -12.4999
-12.1932 -12.8178 -11.9178
-8.0689 13.2985 14.5961
-0.7378 -21.2786 -1.2959
-6.1014 -3.0528 20.2103
-12.9757 13.1574 10.6544
9.4945 15.6444 -10.9595
-6.9765 -18.5943 7.7836
18.6940 -5.7273 -8.5285
11.3258 15.9936 -8.4222
-6.0396 18.3616 9.0210
-14.9870 0.3430 -15.1749
21.0670 0.5944 -3.2915
-1.3250 15.5370 14.5550
-17.6030 11.1177 4.6407
8.1606 -16.6614 10.5265
7.1048 -7.3027 18.7402
-19.6968 3.4692 7.4165
8.4907 -19.4230 2.3790
18.4861 8.8232 5.9514
-6.0923 20.3057 -2.3592
13.4547 14.6563 -7.6921
-19.8204 -5.4931 5.6550
17.5399 9.4305 -7.6434
-1.2974 10.7134 -18.3996
-17.1444 -2.1390 12.5099
-17.8816 -8.0103 8.4313
20.7280 -0.6640 4.9912
17.4510 0.4938 -12.2566
-12.3183 9.5826 14.5409
-18.7501 -5.7772 8.3702
17.6675 11.5201 -3.1860
-18.1493 8.6357 -7.1436
20.7693 1.2129 -4.7085
6.9240 -19.9442 3.0485
-6.6518 3.6803 -19.9302
-6.0841 17.8791 9.9159
-17.2808 12.4618 -1.0392
21.2666 -1.6389 0.2200
0.8156 20.8792 4.2893
-9.6094 16.0622 -10.2309
-2.7464 0.6344 21.1438
8.2114 -19.4134 -3.2707
-19.4735 3.5394 -7.9535
3.2343 -21.0165 1.6879
-7.9092 11.5725 -16.0787
-2.0745 -5.6893 -20.4532
17.0586 5.9219 11.3552
12.1449 17.3558 -2.5058
11.8661 8.7337 15.4247
-14.1682 15.7327 -2.5980
17.0001 -10.5234 7.4336
-19.6285 0.5377 -8.3329
17.3862 11.9786 -3.0393
-4.9775 14.8841 -14.4462
-19.9162 -3.0869 6.9873
-21.0172 -0.3666 -3.6258
5.3135 -13.1966 15.8940
11.1270 -3.0536 17.9407
7.5191 -19.9425 -0.8730
3.7258 1.2024 20.9685
17.6164 0.2534 12.0250
3.9358 -17.7856 -11.0989
1.2764 0.6541 21.2825
-4.8692 -20.1928 -4.8524
-5.4452 12.1567 16.6604
15.9443 6.7797 -12.4427
-0.2102 10.7387 -18.4293
-1.4375 10.0565 -18.7564
-10.4860 -4.9321 17.9087
11.3758 15.5270 -9.1928
-6.8601 -2.2884 -20.0675
8.3244 15.2302 12.3995
-10.0660 -18.3367 4.1765
-13.8904 -7.4031 -14.3964
-19.4954 2.1564 8.3834
-15.7828 -5.6755 -13.1793
-10.1236 10.5245 15.5484
-20.1843 -0.6368 -6.8697
-9.7064 -1.6132 -18.9258
-18.6868 2.3328 -10.0183
17.5357 -12.0936 -1.1165
9.5658 -16.2446 9.9807
-12.9790 4.9936 16.1745
-19.2404 6.6220 -6.4000
-0.2895 -19.6741 8.2372
-18.8277 2.9733 -9.5751
2.5743 19.4035 -8.4781
-8.5783 16.4184 -10.5760
-9.8025 6.6469 -17.7407
-20.4684 -1.7626 5.7396
-18.1393 -0.3723 -11.2175
-18.3214 -4.3746 -10.0096
-10.7797 -18.0788 -3.4578
6.9642 20.1029 1.5420
21.1552 -2.7302 0.0725
6.0753 19.9499 -4.4826
-1.6647 0.9860 -21.2429
7.4912 2.2658 19.8432
14.7658 -10.1875 -11.5408
-1.8365 -7.3309 19.9472
3.4460 2.5602 20.8944
-7.9892 -0.5876 19.7695
-12.9066 -16.9316 1.3201
-18.1764 2.9071 10.7783
3.6701 -20.2084 5.7579
-4.4644 -20.7204 -2.3955
-7.2153 -19.4762 -4.8601
5.7216 -17.1358 11.3415
-17.5707 -12.0928 -0.1956
12.0098 -14.6912 -9.7437
-10.8027 -13.5343 -12.4550
-15.6863 -5.3805 -13.4162
18.8229 6.2639 7.8401
-1.8026 8.8009 -19.3468
-20.2006 6.5354 -2.0560
-19.6553 8.1351 -1.5790
18.9478 -9.7527 -0.9335
-7.0960 -18.1528 -8.6676
-8.8160 -16.1562 -10.7823
13.1280 4.1870 -16.2827
-2.5850 -4.4708 20.6962
-7.3022 -18.1540 -8.4921
-6.8420 12.7602 -15.6642
-13.3833 -12.6964 -10.7094
-2.8540 9.6123 18.8272
-15.3746 -9.5451 11.2923
-3.4088 -10.7903 -18.0819
12.6205 -13.6892 -10.4083
15.0757 14.5053 -4.1623
5.4868 20.4055 2.9176
5.4395 8.5303 -18.7790
-9.6581 -13.6513 -13.2426
-6.1878 19.3421 -6.5268
