ply
format ascii 1.0
element vertex 1024
property float x
property float y
property float z
end_header
-71.9140 -46.0104 -35.4814
-1.7954 79.3462 -47.4180
81.4610 -33.9908 -27.4998
85.5143 34.5029 -6.6608
-81.2868 -23.8894 -37.0036
9.5267 -18.2377 -90.1340
-43.7503 -45.5294 -67.5314
-40.7545 14.1570 -81.7689
-90.6537 -17.5568 4.6007
5.1220 -61.5236 -68.8195
91.4408 -10.2753 8.9730
-81.9986 37.4388 20.5444
64.3376 44.4450 49.3237
0.8502 -85.0380 -36.2673
-34.5312 56.9123 -64.1568
-49.0895 -77.8148 -9.0871
-90.8071 -14.7821 9.1143
77.2370 49.1910 -12.7357
-30.2437 -11.5018 -86.6056
75.6053 -49.3106 19.9953
66.2528 -57.7000 -28.7887
-10.4713 -43.9822 -80.6438
-85.3738 17.0020 -31.1408
72.2659 5.0635 -57.4414
70.6672 -27.3193 52.9841
-46.1101 -76.3793 -24.2398
-76.5541 50.0664 -13.4288
-30.6717 -70.2838 -51.6425
53.0681 -35.6883 -66.7655
-35.5774 28.5446 80.4174
-58.6482 44.7109 -55.7569
-67.0165 9.8416 -62.9241
-90.7384 -3.0510 17.4570
13.8074 -78.1408 47.4435
-71.4852 21.7764 54.4350
-46.4785 52.4516 60.2999
36.9134 -50.4003 -68.1521
-72.6061 -29.6185 48.9755
-40.4508 -66.7267 49.5861
19.4190 83.1057 -35.5507
-14.2666 70.7947 -57.7242
-6.2573 -92.1485 4.1236
80.7847 3.1111 44.8516
-60.4385 -63.1135 30.1890
-69.1496 -30.2559 -53.3894
-40.0120 11.5683 -82.5392
-88.0203 9.0062 -26.8108
-32.7114 80.3106 32.0573
37.2251 84.3069 7.3579
-78.0986 18.5344 45.8758
42.3972 -3.2590 -82.0936
-74.2143 55.1316 -0.5056
-89.0758 11.2292 -22.0663
29.5319 87.1167 -9.2768
30.6904 86.7718 8.7327
-87.5792 1.1261 29.5995
56.6682 43.3061 58.8286
-82.6221 38.2537 -16.0544
-49.4763 74.2120 24.3350
-48.3875 -3.5174 -78.7006
-4.0785 -65.0683 -65.5514
-52.6777 -6.1815 75.7255
21.4281 26.8951 85.8196
-6.4643 -40.8148 82.7035
50.9550 -74.6276 -19.5402
-9.0226 58.2030 -71.2636
30.6645 -54.7093 -67.9271
-65.0413 17.7340 63.2665
-69.4277 -21.6009 57.1026
28.3459 -81.5069 33.1760
50.8758 58.9487 49.8419
-79.4602 46.6504 7.5712
-89.6207 -0.9274 22.6887
33.0015 80.9313 30.1420
-89.2517 -4.9705 -23.5994
70.3046 27.5973 -53.3213
35.9607 -80.5048 27.8085
-90.0996 -20.0310 5.3222
-18.3358 27.4475 -86.3594
35.2124 -64.1838 -56.4627
-53.2559 -49.5092 -57.0978
40.1609 -12.6787 -82.3035
-30.9364 81.8446 29.8648
-31.4498 -2.7464 -86.8958
-7.4300 -14.8997 -90.9412
-30.8302 14.7221 -85.9085
-15.6398 -0.9935 91.1149
-28.9477 52.7274 70.2094
-76.1927 19.5808 -48.5671
78.5808 30.9401 37.6201
5.6942 -83.4715 39.3394
18.1005 -25.9274 86.8772
-32.8735 85.3405 13.5588
-38.5470 -4.7913 -83.8968
-38.9600 45.3365 70.5282
-81.8495 39.4495 17.0852
54.5279 67.7459 -31.3802
66.3150 63.7220 -9.4519
-2.5875 -17.1499 -90.8113
19.3454 84.2501 32.7900
42.9505 -52.8719 62.5085
24.6271 80.0396 -39.1750
-5.8026 -75.5169 -53.0192
72.3087 55.3616 -15.9390
72.3428 -23.2926 52.6449
32.4732 77.0049 39.5378
59.7317 -6.4024 -70.2755
-9.0350 87.0372 -29.8395
-61.4539 -3.5331 -68.9815
-24.4544 9.8531 88.6138
16.7937 83.8510 -35.1352
3.6674 65.6096 65.0341
-74.5855 53.7639 9.6933
65.8128 -27.7568 -58.7004
-27.4999 -68.3258 -55.8825
-1.5946 -89.3112 23.8428
-21.0566 -51.3005 73.9756
-0.1138 80.7565 45.0098
-36.1851 32.2361 78.7336
79.6435 -40.4829 -23.7814
-54.6000 -71.8325 20.1603
87.8623 -23.8251 -16.1275
-64.4249 35.3589 56.0954
-83.8058 -25.6331 29.4455
84.2714 37.2606 7.5817
32.9551 -82.5581 -25.4091
62.8223 17.5557 -65.5184
-66.9939 29.4340 56.5063
-42.0402 -78.9618 23.3487
-70.5098 -54.2617 25.1306
53.6001 -74.3755 -11.9505
-56.2370 -51.4607 -52.3135
-74.5107 48.1044 -26.1080
-50.0936 32.3291 -70.6609
-36.2031 76.6068 36.9897
-68.8301 60.0787 -14.1589
25.9219 -12.9405 -87.7958
26.0863 13.8784 -87.6037
52.1310 70.9323 -28.2575
-65.6929 65.0324 1.6555
50.6615 -18.1123 -75.1855
28.6753 50.6119 -71.8587
-45.3486 45.3971 66.5592
-47.0819 -33.4156 -72.2094
-76.7667 -46.4973 -22.1898
41.8482 48.7649 -66.4696
33.5741 -32.5931 79.7369
89.2653 23.8928 -2.8900
58.6817 64.5604 -30.5927
14.7382 63.0603 -65.9825
59.3269 -8.9077 70.3454
59.4335 68.3072 -18.6895
21.3043 -5.6257 89.7886
-85.2247 35.6783 -3.3638
-87.7079 5.3593 -28.7421
27.8515 -28.5638 83.4021
78.5704 -39.1707 -28.9802
-60.0964 -64.9812 26.7089
-63.4748 -47.8987 -47.1611
-3.5014 84.5886 -37.1487
55.6138 29.7984 -67.5772
90.6543 17.5758 -4.5164
-34.9271 -74.0475 -42.9485
10.6986 90.0311 18.0954
-78.3126 3.4942 49.0146
64.6954 -65.9477 -3.5938
58.5498 -47.3785 -53.6163
-66.4923 24.9468 59.1941
88.1743 -14.2539 23.8670
50.7088 -67.4509 -37.7692
-81.8684 34.0661 -26.1644
-90.1821 -9.6361 -17.9400
41.4186 65.1861 -50.8210
53.5658 56.1860 -50.2130
82.4031 39.5392 13.9245
-31.7926 -57.1471 -65.3525
48.9073 -51.7407 -58.9787
-30.7294 -82.0901 29.4012
-74.3515 37.5361 40.1299
-53.3235 -46.7544 -59.3139
-50.3657 -73.0094 26.0850
44.5487 -77.1254 24.7908
-36.7455 -15.5348 83.4023
42.1076 82.2988 1.1706
-45.3360 27.3612 -75.7860
40.4196 -51.1522 -65.5531
-81.8816 -42.2956 -7.3483
1.5587 -68.1183 62.4897
46.4615 33.9328 -72.3699
9.2181 -90.2349 -17.8939
-58.3131 36.8143 61.5776
86.6088 32.2498 2.5229
-10.4892 65.1495 64.7535
73.0876 -18.1965 53.6153
79.7187 6.9570 46.3037
-16.6731 -55.2737 72.2104
-32.8555 19.1558 -84.2679
65.8110 27.9298 -58.6203
-19.2142 -15.2328 89.1419
-46.4253 42.7267 -67.5769
-5.9717 64.4721 -65.9939
-32.1199 84.0171 21.3762
-67.0805 -62.6014 11.3483
-3.0938 40.5185 83.0433
-25.3089 -76.4792 45.3641
-2.7415 -20.9079 90.0159
90.7499 2.9633 -17.4123
-7.3550 50.5255 -77.0752
-22.3083 2.4506 89.6875
-86.5343 -32.3446 -3.6265
85.7369 29.4507 18.1480
68.6427 61.9326 0.1996
-3.4514 -71.0088 -59.1046
16.6947 -85.0633 -32.1407
72.5024 56.4476 -10.2267
-24.6076 -86.1914 -22.6498
-43.4854 -77.5880 -25.2314
31.0713 82.3832 -28.1974
6.2856 -81.6883 42.8372
85.2473 28.1663 22.0695
-38.6408 83.9892 -0.4633
-22.5813 -46.6860 -76.5377
5.6340 58.9568 70.9919
-79.4568 -35.0260 -31.7382
-64.2890 25.2271 61.4656
-20.2609 -72.7445 -53.3409
-56.2624 26.1072 -68.5600
-14.3629 -9.1181 -90.8739
-83.9856 35.4001 15.5167
10.4455 1.2920 91.8517
-83.2132 -18.5206 -35.7780
19.7776 -42.2027 -79.8454
39.0415 83.5985 5.8786
89.7580 15.2184 16.1061
68.8509 -34.2656 51.3121
-74.5219 -46.6924 28.5275
91.0368 13.5529 8.7254
-58.1787 -6.9044 -71.5198
90.5709 -12.6761 13.5551
48.7659 41.7709 66.5176
-56.8424 -56.6389 -45.9181
76.4781 45.5980 24.8883
-57.8292 -55.5491 -46.0172
-27.8892 10.5206 87.5158
51.6976 68.6615 -34.0655
-73.8024 55.5378 -4.0339
29.0162 -57.3259 66.4779
38.1890 -52.9516 -65.4617
-58.4994 -58.2278 41.6515
80.5146 3.2254 -45.3267
-90.3151 -17.6818 -8.8343
-57.4544 -60.1632 -40.3347
-14.1293 8.3085 90.9881
86.7279 -30.5278 9.6862
66.6681 -63.6250 -7.3976
19.3950 77.2102 47.0099
84.0771 -38.4509 -0.2648
-66.4799 63.3791 10.5367
-58.9442 40.0435 -58.9034
47.6061 5.1473 79.0865
34.3489 64.2159 56.9559
12.3682 27.3411 -87.4471
37.9683 -1.2647 -84.2871
-70.7807 -35.8087 -47.4903
-56.1581 66.5099 -31.1480
79.2887 -6.1646 -47.1466
74.5043 47.1746 27.7701
-83.2137 28.1975 -28.7730
18.1202 7.4968 -90.3491
68.9867 52.6896 31.8143
55.1139 -56.4211 48.2351
66.6315 -31.2973 -55.9305
-34.4705 57.5888 63.5832
-48.5452 75.6812 21.5225
-6.7048 76.4230 -51.5954
36.9139 36.5349 -76.4858
-23.1020 89.3753 5.0857
-38.2886 -37.0026 -75.5798
-79.5908 -38.0902 -27.6034
81.5176 13.3247 41.5313
81.8802 40.8169 -13.3086
-50.0245 -66.6571 40.0237
17.1218 -82.1294 -38.8474
83.4114 11.7943 38.0912
-12.2601 76.3843 50.6225
-64.3770 -45.8210 47.9954
18.8708 52.9920 73.3706
-0.6251 -53.5519 -75.3612
-48.7849 -61.7587 48.5119
36.5613 50.6299 68.1718
79.5388 -19.6559 42.8338
55.4812 -34.8305 65.2394
-81.8620 -40.1491 -15.3025
41.5676 9.2493 82.0615
-31.3951 -59.0466 63.8385
28.2875 52.2963 70.7984
10.1810 71.8003 57.3461
5.7569 72.6587 56.8777
31.7218 -63.2087 59.5474
58.8765 -17.5409 69.0897
-15.0072 61.2741 -67.5853
58.0013 63.1266 34.6177
51.7336 11.2750 75.7893
-14.0096 -26.1307 87.5695
-80.1553 -45.2151 -8.8447
51.9419 24.6974 72.3850
31.1716 80.9751 31.9198
1.3444 -90.7261 -17.7332
41.3183 -75.4946 -33.7768
21.1701 30.5266 -84.6609
-78.4722 -4.3020 -48.6940
63.3393 43.8744 -51.0947
52.9318 -63.6093 -41.2260
-1.4736 14.6006 -91.2807
-7.9749 72.6010 -56.6833
64.4432 -25.3489 61.2537
41.4412 -14.3517 -81.3890
-69.2335 -30.0520 53.3958
-24.4494 -84.9181 27.1782
16.8008 73.8827 52.9773
73.0490 -31.9770 46.7848
-64.2172 -56.7415 34.6994
29.3266 -81.3387 -32.7333
-87.7534 22.4764 -18.4838
-39.1222 -82.0648 16.8027
-14.7418 19.7283 -89.1122
78.1269 -43.9839 -22.5636
39.8689 -68.4099 47.7290
-68.3830 38.0409 49.2358
-9.0939 -91.3530 -10.9287
-43.0060 -40.2921 -71.2358
73.7672 -25.6497 49.4772
-87.0170 -26.3069 -16.8373
43.8931 47.5127 -66.0563
63.3728 46.2905 -48.8732
-37.9074 -51.2513 66.9615
21.2365 -72.5297 53.2537
73.3634 -12.9739 54.7448
-80.7532 -27.6305 -35.5384
-11.1068 64.7839 65.0169
22.1163 -24.7538 -86.2880
82.2649 -41.0329 9.8128
77.8921 45.7241 -19.7390
43.7201 -5.3906 81.2835
90.2954 -17.0365 10.1985
-44.5787 12.2654 -80.0613
7.9091 16.5446 -90.6158
-62.3620 -65.9473 -17.5911
-67.7410 -60.6634 16.6917
-29.8766 73.7343 47.0973
88.0640 -26.0029 -10.7749
-30.2115 -51.1100 70.8699
-60.1013 -41.5121 56.6753
-30.2848 75.5367 -43.8696
-69.4429 54.6983 27.0794
39.8667 62.3576 -55.4048
20.2022 87.7206 21.0824
85.7611 26.3047 22.3741
62.9501 -56.6246 -37.1275
39.0758 83.7589 -2.2436
-83.4258 30.9780 -25.0600
-33.7808 -43.0810 74.5010
-70.4229 4.9284 59.6979
-0.6461 63.7078 66.9956
90.1303 -12.6523 -16.2470
-11.4951 -44.2740 -80.3442
-32.3599 -83.4466 -23.1734
36.1099 65.5626 54.2691
-21.0711 11.7117 89.2544
-39.0713 -19.8280 -81.4112
78.2755 48.4010 8.8201
54.1210 -65.3913 36.6387
70.2453 53.7809 26.8462
-14.4706 87.8534 -24.8977
-18.5381 90.0103 -10.0991
5.1517 45.6871 -80.2101
43.6579 8.1724 81.0846
49.1717 -66.7737 -40.8770
-19.1391 84.5962 32.0108
5.3796 90.6439 17.3852
-13.0480 78.3623 47.2928
86.3743 -32.0368 -7.7863
-46.8926 79.5387 -4.7099
77.8227 49.4047 7.0929
46.2967 75.8556 -25.4961
45.0802 -76.3830 26.0944
-69.6818 34.8320 49.7865
89.0161 11.3181 -22.2609
-62.4006 67.4658 10.1016
50.3997 -47.4556 -61.2809
83.8326 -37.2091 11.6229
1.2131 12.0319 -91.6584
-24.7573 -12.7992 88.1519
-57.5575 -45.3718 56.3564
-12.9127 36.6272 -83.9001
18.8813 -54.1750 72.4988
-30.8278 47.5173 -73.0702
12.1461 -80.8382 -43.1876
-2.8993 -42.5803 -82.0123
14.3792 -86.1979 -30.1773
-30.1261 4.5152 -87.2900
-67.7639 -35.7494 51.7450
73.4159 -55.8632 6.0761
-79.9466 40.7691 22.2247
-52.5044 43.5493 -62.4040
-86.8515 -28.5924 -13.6676
46.3814 70.1093 -38.4832
6.0952 2.9504 -92.2044
37.3884 -76.4851 -36.0506
2.9727 -33.5622 86.0944
-28.3263 -13.2407 -87.0047
14.5128 -86.9664 -27.8160
3.8576 -15.3544 91.0871
-74.9841 25.0875 -47.9115
36.2459 -84.7252 -7.4421
74.5515 53.6320 10.6391
-83.2613 12.9172 -38.0553
18.0741 70.5571 56.9432
-89.6894 -20.4833 9.1513
68.4069 -25.2279 -56.8468
-91.6028 0.9157 -12.4740
-65.7420 -42.0250 49.5924
61.6416 -68.9003 0.7554
11.3729 -3.2680 -91.6923
13.1009 -80.1764 44.1318
-78.6342 -29.2582 38.8346
37.0443 -75.8398 37.7300
-21.7496 40.3564 -80.2859
-77.7575 49.8414 4.1371
-3.0495 76.8904 -51.2453
-22.7409 -50.4256 74.0784
-69.7472 -12.2971 59.4274
86.6079 19.1275 -26.0905
-12.2707 -68.5272 -60.8355
-9.5315 50.1948 77.0529
92.0114 1.2097 -8.9408
-45.0162 -73.7692 -32.8504
-66.9935 -59.3251 -23.2361
78.3748 32.3923 -36.8190
41.3968 -37.3092 73.7688
-32.9037 -78.5049 36.0809
-56.6058 -72.7191 7.4316
19.1239 78.1567 45.5336
-77.4862 -47.3669 -17.3141
0.7037 -89.4844 -23.2284
6.4748 34.9760 85.3362
84.7027 -14.9602 33.8992
-2.2773 -36.2059 -85.0380
65.5845 63.9255 12.6374
49.3920 -59.8307 50.2815
-11.6036 67.9145 -61.6480
49.4879 23.3159 -74.5307
-7.3638 55.5965 73.5004
76.7940 2.3591 -51.4259
68.0621 -36.3937 -50.8975
-86.7445 -27.4861 -16.3529
63.4325 -49.7547 -45.2581
36.5003 -80.3784 27.4690
41.0365 -7.3505 -82.5196
-68.6371 -38.6125 -48.4307
-64.8228 -40.5974 51.9362
83.6070 35.2647 -17.7141
13.1445 -42.3450 -81.1273
-12.6114 -68.3755 60.9364
-89.8766 -1.6356 21.6109
86.9578 28.3398 13.5170
-24.2010 52.7713 -71.9514
-34.6204 60.5927 -60.6421
-89.9056 -17.8011 -12.1494
86.5634 -32.4670 -0.4342
48.5336 78.6783 1.3118
23.0844 -28.0193 85.0267
82.6916 27.8960 30.5193
-46.2388 26.6835 -75.4816
86.3668 -18.3527 -27.4128
4.5841 92.2699 -3.5727
-6.7639 72.9747 -56.3600
69.8123 -53.4583 28.5650
22.6234 75.4705 48.3724
0.7896 1.0975 92.4428
-44.8609 -78.3249 -20.0054
-15.7520 88.1211 23.1095
3.4285 -85.8538 34.1302
63.2094 -24.0809 63.0253
79.3718 -24.4590 40.6125
31.3235 85.9584 13.3230
6.5018 -21.9152 89.5821
83.2413 -11.6882 38.4939
-84.9087 28.2683 23.2148
-82.5187 12.1172 39.8917
65.5809 -6.3186 -64.8593
5.7783 -30.1712 -87.1999
0.5656 4.4924 -92.3418
-46.7834 -73.2552 31.5039
-0.5145 87.7277 -29.1735
-64.3570 -38.8279 53.8338
-40.5347 -5.2787 -82.9252
63.0454 58.9254 33.1750
55.6662 72.7206 12.6687
-91.2993 10.6131 9.9657
-56.6553 53.4405 -49.8176
-81.9615 23.8986 -35.4778
83.1935 -16.3471 -36.8663
-83.6240 22.8608 32.1236
20.3878 87.1140 -23.3021
59.1162 28.2651 -65.2216
-53.8411 72.6088 19.4064
-43.4746 -50.1222 64.3835
31.4202 -61.8814 -61.0816
67.5273 -14.7529 61.3997
43.0087 13.3693 -80.7405
-44.0103 -78.4577 -21.3303
-84.0813 22.0082 -31.5197
13.9656 73.4877 54.3325
64.1766 -66.4855 2.9241
25.3955 -61.4361 -64.2509
56.3637 71.6072 -15.5901
59.8041 1.2253 70.4945
-57.9782 -67.5007 25.0938
-76.2651 0.3158 -52.2594
-61.0333 59.1340 -36.4091
-44.3158 -81.1369 -0.6475
84.2061 -12.1016 -36.1993
79.3930 19.5955 -43.1309
-83.1880 15.0590 37.4231
-21.1551 -52.7888 -72.8925
-57.8843 -56.1198 -45.2491
29.8397 57.2533 -66.1752
10.9253 13.6800 90.7800
33.8422 -30.5013 80.4480
-57.8170 -2.7076 -72.0928
25.0759 79.3164 40.3438
-55.4661 -39.2312 62.7051
-13.0536 -31.8436 85.8085
76.6008 -50.6556 -10.6688
45.4037 -18.7351 -78.3263
-26.3080 60.4304 64.8349
23.7004 -61.7258 -64.6198
-50.3512 19.8876 74.9450
-81.2968 44.0220 -0.6383
83.5319 28.0542 27.9802
39.5013 -81.4111 18.9574
-16.4935 35.8169 -83.6219
-81.6700 -0.3146 -43.3291
41.6129 -81.8908 10.4770
-43.2695 11.5364 -80.8837
3.9542 -51.1318 76.9247
-29.4128 17.3310 85.9188
53.6349 20.3560 -72.5013
21.5816 -87.3961 -21.0635
42.2674 -30.5622 76.3343
92.0298 -8.7712 -1.0422
61.0987 63.2412 -28.5483
7.7901 -70.1791 59.6801
50.2840 39.4688 -66.7925
63.2326 59.6688 -31.4449
-60.1415 30.6737 -63.1635
47.7656 76.8970 -18.7831
-79.9910 -15.9188 -43.5378
-21.9715 71.0351 -54.9434
-81.1904 -12.0480 42.5496
-54.2973 -69.2222 -28.4183
-40.5155 3.1588 -83.0423
87.2654 -12.7251 27.7549
-17.5945 -30.9838 85.3109
-72.4105 -41.5241 -39.7490
-19.3003 19.3972 -88.3105
58.4030 26.1133 -66.7434
-32.8791 83.0323 23.9188
-86.1260 -23.2943 24.2321
45.6501 72.1360 35.4961
-38.1040 84.2341 0.4613
24.0216 31.8067 83.4194
21.6043 89.8010 4.0681
61.9184 -21.0438 65.3512
52.4970 20.0144 73.4234
58.0201 -70.0733 16.4590
-24.0005 -84.5351 -28.7281
-2.3882 -90.8070 17.2014
-3.3103 -55.9028 -73.5624
34.6284 -58.4750 62.6821
-35.6586 17.8188 -83.4174
-83.8310 38.9312 -2.0568
-59.9229 2.4833 70.3604
64.2890 -25.6601 -61.2861
21.5420 89.2900 10.5239
-46.2321 15.3590 -78.5761
-17.7836 49.8368 75.8126
-1.0843 -92.4461 0.2095
77.3450 -28.7552 41.6940
-83.6472 -29.7264 25.8263
-16.6983 -78.2374 -46.3420
26.8223 27.6624 84.0408
1.4069 79.6891 -46.8528
83.3440 -36.9505 15.3607
-66.7183 -53.5036 35.1217
-48.1160 -77.0578 -17.1597
87.2753 -29.5992 7.3763
2.3088 0.7117 -92.4212
-10.5727 59.1555 70.2592
84.5407 -30.2667 22.0069
84.9796 35.0667 -9.8137
80.4739 13.2679 43.5364
-37.1311 -76.4326 36.4258
14.7003 -65.1569 63.9218
5.9016 -0.8078 92.2606
50.7917 -63.2401 -44.3665
89.8784 -2.8011 21.4834
34.9634 77.3343 -36.6671
11.9579 -29.4869 86.8046
-54.4071 73.4921 13.6487
89.8748 -19.9581 8.4676
10.5518 -86.4973 -30.8930
74.3621 24.7092 49.0636
85.4321 -10.5966 33.7132
-74.5263 36.5641 40.6989
-35.1650 3.0337 85.4501
-11.6622 64.4388 65.2621
41.1057 31.4730 76.5982
-8.7069 -92.0334 -1.2482
-10.0423 90.9351 13.3214
35.4612 78.4378 33.7272
24.0465 -1.4086 -89.2597
-83.9721 34.2182 18.0361
-30.6577 43.2457 75.7458
-91.5405 -10.3080 7.8474
-56.6674 54.6922 -48.4260
-1.1231 91.1285 15.5510
46.0336 78.8320 -14.6266
31.4442 81.7811 29.5064
5.3366 -15.2340 -91.0327
70.9933 11.0550 58.1828
51.4033 -69.8408 32.0543
-46.5146 78.5451 14.6482
-79.6993 -28.7798 -36.9763
-76.1824 27.9249 -44.3165
67.9548 47.8844 -40.4566
67.3115 -60.0297 20.3249
-39.2551 13.1871 82.6598
-25.2119 37.8544 -80.4917
86.5216 14.9115 -28.9685
-28.1333 -60.0905 64.3829
68.9061 -34.9834 50.7505
-8.3053 72.9890 56.1350
-81.0579 24.6303 37.0198
5.1361 92.2127 4.2355
3.2983 10.1424 91.8355
47.9549 -70.2967 -36.1416
72.5494 53.8317 19.6531
36.9048 -56.8205 62.9045
15.0393 89.2405 18.9064
46.4644 79.6394 -6.7927
-58.0142 25.5378 67.3029
-70.7549 -14.4037 -57.7389
7.7338 -89.9682 19.8348
-45.8734 -79.4710 11.2916
38.9702 -83.3846 8.7084
76.8847 -51.3155 -1.7240
20.0270 -88.8432 15.9160
6.6949 9.6361 91.7051
72.7088 -23.3564 -52.1097
59.2973 -62.5245 33.4967
25.5777 11.8791 -88.0464
48.1173 -66.0850 -43.1856
83.5751 -8.2679 38.6569
80.7655 33.3507 30.2021
42.5823 30.1361 76.3287
60.1461 -69.9061 -6.5647
-28.0291 49.5441 72.8509
-66.8938 43.5420 46.6564
37.4549 -36.7895 76.0997
47.1740 -5.1294 -79.3461
-14.8888 -1.9040 91.2261
-66.1362 54.1696 35.2018
-85.1130 -1.7710 36.0576
51.7775 -9.6372 -75.9850
17.3576 -54.1896 -72.8678
-90.3461 10.1935 16.7684
78.5249 -21.7048 43.7064
55.6275 46.9159 -57.0262
74.0072 -5.6073 -55.1271
-15.9771 24.7221 87.6416
-24.3622 31.5211 83.4291
-55.7014 73.4949 6.5849
-50.0986 -10.0091 77.0549
9.6502 -50.6802 -76.7196
-85.1886 -35.5028 -5.4741
-74.8014 54.3336 -0.3305
-9.1491 -28.9012 -87.3414
-41.2237 46.8291 -68.2287
-60.2632 -58.0865 39.2659
-2.4148 -78.7517 48.3720
32.2569 50.9120 -70.1069
-67.5619 -51.1823 -36.9224
-77.9723 -22.9160 44.0760
91.2132 6.0868 -13.8059
64.2801 -57.2461 -33.7412
73.2277 56.3565 -3.0276
47.8981 25.4966 -74.8545
74.8864 -51.8279 15.9189
-25.5038 88.8376 2.2223
51.5424 -75.4363 14.1510
-80.9268 23.3498 38.1202
-1.0584 -47.6016 79.2494
-22.7427 -11.9794 88.8075
11.3014 46.5243 79.0903
35.8674 -79.6995 30.1500
65.5252 -58.9765 -27.8520
86.9350 6.6820 30.7436
16.5554 -82.0782 39.1994
-59.9072 -70.3791 -2.3280
-89.6136 12.2002 -19.1851
35.6804 26.9618 -80.9165
34.2906 -21.2160 -83.1958
57.5434 53.9726 -48.1998
13.0800 -5.5754 91.3528
-49.9407 21.7011 74.7161
-74.4015 18.7848 51.5661
49.6179 -51.8814 58.2572
82.2080 -12.2022 40.5027
86.5584 21.3039 -24.5213
13.9315 -91.3952 -0.5893
80.2886 40.8248 -20.8468
74.4266 9.8880 -53.9483
-40.8027 80.7153 19.1750
-40.7568 81.2715 -16.7731
68.1488 -13.5712 -60.9842
-65.6175 65.0846 -2.4177
82.7400 -28.6246 29.7025
49.1252 -21.6864 -75.2590
-52.8219 -42.4736 62.8756
-43.6660 -60.0412 55.0985
-0.1230 -77.7448 50.0324
15.7494 56.1820 71.7150
65.8148 62.7755 -16.5876
55.4058 -56.7149 -47.5513
-71.1855 2.2131 -58.9511
15.1025 80.8846 42.1556
-77.4497 35.7855 -35.6154
-90.7140 -7.8843 16.0098
-30.0355 -18.7852 -85.3961
66.3486 -57.1470 -29.6578
0.9364 -62.9761 67.6804
-41.9360 -38.1869 73.0112
47.4387 -79.1023 -6.3171
-57.0807 -57.0210 -45.1432
-70.2555 44.5637 40.3206
-5.0698 80.6839 -44.8543
83.1469 -37.4220 15.2870
67.5165 48.8530 40.0301
30.2057 28.9793 -82.4338
-53.9080 -16.9069 73.1819
29.8033 65.6004 57.9298
6.1728 -66.8059 -63.6111
-32.7448 -3.3019 86.3966
-42.4248 -55.5921 -60.4744
53.4228 -1.8248 -75.4333
-88.0924 -15.1177 -23.6368
-33.4940 71.4104 -48.2309
78.0757 -31.5536 -38.1585
-14.2503 -88.4759 22.7257
82.9949 33.6013 -23.0285
-0.1049 -41.6161 -82.5566
-52.8666 43.2966 62.2738
17.1769 -82.5814 -37.8521
-26.7800 88.4357 -3.0782
-23.8342 -37.8983 80.8898
66.6281 -42.8006 -47.7107
64.5988 -53.1086 -39.4205
76.4016 -29.0709 43.1877
88.1573 24.8836 12.5145
-18.7808 -76.6840 48.1077
-62.1953 60.0875 32.6917
80.7393 -12.3864 43.3042
-33.6235 37.1183 -77.7123
-64.1270 -56.5927 -35.1071
41.0691 71.1021 -42.4892
-2.3912 69.2796 -61.1729
73.0157 56.4326 5.6187
-5.9408 -31.1970 -86.8272
-28.7437 15.1064 86.5627
-1.7003 -89.7423 -22.1572
-41.1539 -44.9616 -69.5149
10.7549 40.5762 82.3736
-3.1500 78.8551 -48.1607
66.1639 -60.5618 22.4078
-68.7887 -1.0223 61.7623
-55.8652 -9.8060 73.0098
77.2349 -4.8054 50.5885
44.8006 -79.2930 15.9074
13.7796 64.0149 65.2665
-11.9972 39.3372 82.8019
-66.0978 -10.4234 63.7961
-38.6082 -5.2534 -83.8410
-76.2272 13.0677 -50.6573
55.3562 -7.2633 73.6915
-26.9720 -53.1682 -70.6623
-74.4609 -54.6414 4.1723
1.9449 -82.3926 41.8949
-63.8479 -55.0605 37.9380
81.9091 41.7925 -9.5814
-80.6595 -41.4907 -17.8906
-65.8934 -1.2405 64.8385
82.5017 -38.8447 15.2337
-48.1287 40.0484 68.0239
-49.2151 71.7211 31.3284
18.9674 -40.8903 80.7201
-47.6890 -68.8635 -39.1290
88.8781 25.3401 -2.4655
-43.5840 -50.4262 -64.0714
-10.1945 88.1755 25.8585
-78.0332 33.1883 36.8357
-1.0308 -91.8983 10.0571
-68.5015 37.6662 -49.3590
-27.5509 70.8374 -52.6357
46.9527 79.5996 2.6189
-37.1445 -84.1734 9.0905
-22.3520 -87.7509 18.6458
-22.7835 32.0603 -83.6693
-27.2486 85.0555 -23.8868
66.8042 -35.0606 53.4366
24.2853 -57.6161 68.1037
27.3094 -21.8502 85.5819
22.4414 38.6241 80.9449
-47.0595 60.4502 51.7561
-35.8269 81.6401 24.4710
59.0181 -15.6480 -69.4227
9.5536 -87.6855 -27.7036
-87.5097 26.9851 12.7030
42.6953 80.2811 16.7203
49.0792 78.3459 -0.8129
88.1542 -21.1205 -18.1735
-35.3750 -74.5868 41.6284
-10.6854 58.1133 -71.1068
-72.4078 55.7497 14.0209
-38.6338 28.5226 -79.0025
-51.4106 76.0052 -11.2988
35.6497 -59.7294 60.9016
-42.4466 40.6154 71.3876
60.5355 -58.2449 -38.6068
42.0874 -35.7393 -74.1543
-36.3681 -80.6824 -26.7437
29.9017 -72.6914 -48.6760
-7.9332 -48.0549 78.5831
82.7512 -0.4894 -41.2251
-83.8847 -1.7843 -38.8289
71.3523 -41.5805 41.5622
-31.3149 -24.4221 83.4892
23.5060 80.9833 -37.9037
32.3428 50.8027 70.1466
31.5426 -28.2559 -82.1838
41.2914 -8.6787 -82.2630
87.1735 -26.2775 16.0557
-58.2925 -54.2423 46.9816
70.1145 2.0155 60.2279
-92.2476 4.6774 -4.0012
-31.3618 -74.8918 -44.2173
35.3647 -63.9398 56.6441
23.9361 -87.9607 15.4108
-63.0933 -24.6855 -62.9076
-50.7109 18.4837 75.0618
87.3399 13.4734 27.1608
0.8729 91.9180 9.8905
-59.9723 -23.3550 66.3730
79.5496 -37.5427 -28.4591
62.6697 -59.2942 33.2297
-92.1548 6.8858 -2.7557
12.0503 89.8868 17.9628
-9.7341 -18.8867 89.9780
-62.6962 -30.8888 60.5192
-66.4058 5.0600 64.1262
-25.6915 85.6339 23.5435
-14.8733 89.8781 15.7549
-87.0332 -9.5509 29.6902
90.8689 2.2499 16.8903
82.2234 41.1691 9.5875
12.0584 -82.9269 -39.0542
50.6500 12.4391 -76.3371
46.9466 -58.2046 -54.3668
-35.3294 73.6834 43.2447
-25.5849 82.7598 32.3070
23.1849 -1.6531 89.4832
51.8153 46.2207 -61.0436
23.8080 -43.5137 78.0208
-34.7304 -51.3482 68.5905
34.3479 -69.0860 -50.9398
65.1473 -60.8322 -24.5515
-24.7789 -87.1985 18.1642
33.5455 -35.9967 78.2716
17.5145 -59.6891 68.3956
-29.9492 -16.3843 85.9192
-20.1061 -3.4323 90.1747
-8.5345 10.3388 -91.4756
-34.9994 73.9759 -43.0130
-83.8657 14.7864 -35.9920
14.4573 -88.9132 -20.8071
-30.5332 12.4020 -86.3795
13.6563 -12.3964 90.5944
-9.2724 -27.3271 -87.8337
-71.6006 46.3174 35.7150
3.4706 -66.2563 -64.3861
-29.8029 76.3495 -42.7792
-20.6210 -51.8016 73.7487
-71.4732 31.6291 49.3831
89.2430 22.5103 -8.7460
-64.1932 59.2073 -30.3518
65.8959 55.4721 33.5869
-8.4675 60.1329 69.7126
-78.3810 23.1788 -43.2050
31.6978 -20.8232 84.3158
-79.2941 -25.5245 40.1055
75.9044 26.3643 -45.7270
-39.6412 74.3631 -38.0291
26.7807 -83.9031 -28.1170
11.1337 30.1640 -86.6815
71.4579 7.7707 58.1454
-23.0743 89.4996 -2.2164
-63.6293 -4.5176 66.9209
-55.8362 -1.3780 -73.6744
37.6026 71.5122 44.9395
9.1457 -33.5378 -85.6684
86.9678 -26.1664 17.3041
-55.2999 -71.8469 -18.0958
-42.9752 7.8034 -81.4847
78.2038 -46.3891 -16.7252
43.5629 -70.6871 40.6586
-2.1579 -17.0461 -90.8421
-84.1948 -24.8023 -29.0445
-69.4289 -46.7059 39.3154
-25.7319 82.5946 32.6114
40.7639 -82.1939 -11.4004
1.1760 -60.2698 -70.0976
0.9264 80.7470 45.0175
-22.6184 88.9594 11.0517
52.4045 -75.9863 -5.2308
-59.6849 65.1968 -27.1033
67.5337 -51.0014 37.2231
-52.8012 -17.4183 -73.8657
-86.4469 -11.4171 30.7262
-6.0942 -69.1461 -61.0671
-40.4956 -18.2079 81.0931
-46.1086 54.6478 -58.6100
11.9030 -82.3468 40.3093
5.1433 -91.1880 14.3461
-17.4798 90.7745 1.3998
51.2590 -68.7910 -34.4648
-47.6219 51.4388 60.2803
83.7479 -28.6298 -26.7234
51.2243 -3.7826 -76.8718
39.5969 -48.5481 -67.9903
-46.8289 -75.9158 -24.3177
91.8716 -9.6682 -3.6934
58.4534 -23.1374 67.7892
-14.3953 -50.6226 76.0108
26.3786 -85.9177 -21.6755
-68.4901 1.6988 -62.0784
14.0337 46.4729 78.6818
-83.1146 -25.1477 -31.7343
-74.2002 27.1246 48.0219
-64.2419 23.7066 62.1167
-48.8504 63.0725 46.7226
47.9879 63.3788 47.1995
-26.9555 -76.4544 -44.4481
53.1639 59.0901 -47.2172
81.4858 22.1092 -37.6664
-17.3461 82.2728 38.4423
-6.4242 -40.1192 -83.0463
-17.1936 71.1120 56.5241
65.9856 53.1559 36.9844
11.1598 -3.8764 -91.6948
-16.7886 84.4241 -33.7376
-7.6852 60.2485 -69.7034
-20.8148 -15.2030 -88.7869
45.2119 51.6206 -61.9573
-84.0530 -38.1832 4.9641
15.1222 -90.6568 -10.0090
12.5339 85.3307 33.3030
-12.1093 -13.8752 90.6000
-56.3594 38.5963 -62.3013
-47.8512 79.1059 -0.1666
-91.6072 10.7784 6.2819
-76.5740 -51.6885 -3.4970
-10.4191 47.3608 78.7141
-56.5333 4.6291 73.0073
46.0738 21.3870 -77.2484
-57.3281 27.1714 67.2511
87.5452 28.4536 -8.5869
25.4533 -78.5288 -41.6277
-1.0331 -48.0016 79.0081
-70.8606 -49.4839 32.8272
-6.5540 40.1505 83.0210
27.6584 88.1125 -4.3258
69.6449 -11.9054 59.6268
60.1322 -6.6152 69.9133
-54.9773 -25.6514 -69.7640
-75.7402 17.7796 49.9481
12.3097 -17.0365 -90.0319
-80.1374 31.1257 -34.0102
-45.1721 -1.4466 -80.6530
26.2350 86.0116 -21.4763
9.7652 -11.1084 91.2620
71.4188 -32.7416 -48.7324
-40.8681 -22.1170 -79.9259
73.6487 50.3217 -24.3126
-75.5419 -26.3263 46.3451
-29.1670 46.0765 74.6575
-36.5286 -13.7015 -83.8179
-76.5757 34.2477 -38.8686
-1.2699 -15.2202 91.1825
71.2614 -15.8130 -56.7387
-50.2030 -59.6136 -49.7331
66.7397 22.2393 -59.9894
91.2559 13.7851 5.4620
57.4925 71.1210 13.5619
74.1693 43.9197 -33.4288
87.1127 -30.5363 5.1404
-88.9928 -23.8286 -7.7456
-19.8775 -85.6866 -28.4640
70.1456 -13.7095 58.6443
-87.3273 -18.7940 23.8378
46.3864 -53.2620 59.6571
-67.7175 -59.9920 -19.0475
40.8939 -76.6633 -31.5901
-80.0594 29.8814 -35.2860
