ply
format ascii 1.0
element vertex 1024
property float x
property float y
property float z
end_header
56.0904 16.9197 32.4458
49.3958 24.2791 -38.1539
66.9512 1.1714 1.1404
-24.9720 41.0470 -46.6549
-6.7481 -63.4835 20.2348
28.4507 57.0621 20.4845
-46.1156 -45.1285 -17.9419
21.2287 20.8173 -60.0093
-16.1396 35.1034 54.7028
-21.4287 -62.1862 12.6024
13.1352 -55.3264 -35.3779
32.6244 -58.1312 6.4455
7.4546 31.2504 -58.7620
-28.4303 -53.6055 28.3427
52.5112 30.8315 27.8771
3.8186 -27.0079 61.1648
33.4447 -49.4443 -30.3620
-15.3886 -1.7626 -65.1554
-19.6802 59.2020 24.3506
9.5667 22.0115 -62.5229
-30.4897 -26.6811 53.3258
18.4771 -7.5286 63.9301
43.3904 50.1311 -9.4490
11.2749 -13.7390 64.5698
64.9810 6.9287 -14.6492
-11.9980 36.9116 54.5776
-17.6249 -60.6379 22.3056
31.7427 12.0156 -57.7335
-1.0588 41.1337 52.8397
39.9757 -43.0636 -32.1342
9.7267 1.4989 -66.2441
31.6977 49.6360 -31.8852
60.3270 -5.2869 -28.5980
-34.4508 -39.4884 -41.7007
-5.4266 16.9335 -64.5674
-31.3305 55.3905 20.8669
12.6010 36.2960 -54.8539
-17.9689 8.4170 63.9641
-32.8141 22.7623 53.7610
31.8261 -58.8536 2.9140
59.9152 -28.3798 9.4809
43.3983 -36.0707 -36.0642
-23.4055 39.5162 -48.7421
-61.7316 -15.1092 21.1201
37.6932 -53.4030 14.5769
-13.4321 -61.7484 22.1776
62.1356 13.4552 21.0539
-53.2030 40.3113 -5.4382
-33.0582 56.6785 -13.4104
-24.2276 30.9629 -54.2168
52.6068 -29.2385 -29.3730
-14.8730 -13.5453 63.8785
-22.5808 -61.7595 -12.6892
23.8000 -26.4646 -56.7302
-64.8479 5.3685 15.8449
-35.7375 37.9288 -42.0639
63.1326 -19.2080 -11.4221
-66.3644 -7.3090 -5.2426
35.3455 42.5451 -37.7590
40.6741 -27.1063 45.7821
20.1396 9.1561 -63.2115
42.0764 49.4193 16.5060
-34.4189 39.5619 41.6573
15.2110 -45.0583 47.1541
-58.1509 -0.3237 33.2190
-43.1831 -29.2892 41.9822
52.1939 -33.3979 -25.4071
1.5186 -36.4920 -56.1352
19.1295 -27.8319 57.8324
-2.5011 57.0112 -35.0515
0.3833 37.0629 55.7793
-37.1053 -41.4279 -37.3104
16.5580 -53.8931 36.1456
-65.0337 -10.7369 11.8523
-31.7635 43.3442 -39.9687
-43.5483 21.0010 46.3427
-55.9274 -34.3224 13.3880
20.2984 62.8159 11.2816
21.8627 30.5748 -55.4287
-62.4301 -10.6802 21.7614
39.4318 -43.3067 32.4777
-18.5808 52.1158 -37.7338
-59.2108 18.6056 25.1605
-28.9060 -47.5007 37.3265
66.6653 6.3891 -0.2226
8.4285 -58.7573 -31.0109
22.2366 19.4462 60.1042
-54.0729 -0.1312 -39.5125
-6.0128 9.6403 -66.0004
61.2323 -16.5851 21.4633
-51.5379 35.8577 -23.3068
-52.2036 -19.4654 37.1622
36.2198 -2.2039 56.2886
-11.0172 -65.2354 -10.3971
62.9285 -13.8240 -18.2768
-38.2652 -1.7268 54.9357
-36.3471 53.4736 17.4528
3.8815 -37.0238 55.6715
11.4885 26.4518 60.4438
-13.2561 37.2699 -54.0404
-57.3678 -29.3890 -18.1756
-2.5684 -27.8972 -60.8300
46.0684 -34.1753 34.5671
-7.4498 -65.8315 -9.7906
24.3981 62.3687 0.1042
-17.2996 -47.9984 -43.3822
-49.3828 -34.8841 -28.8023
7.3807 46.9180 -47.2161
22.8631 -29.1318 55.8010
9.1994 65.4180 -10.9998
57.7017 9.8962 -32.5225
-66.9048 -2.9613 0.3452
-27.2733 -16.5100 58.8959
39.6461 41.1344 -34.9469
43.0561 4.5977 51.0898
16.2505 41.1134 -50.3065
-33.0191 -55.7044 -17.0851
59.6745 12.2328 -27.8289
24.0271 -55.6034 28.5674
-9.8426 -44.9747 -48.6368
-35.2218 -30.0708 48.3767
32.8638 41.1964 41.3275
-42.9486 44.4649 -25.7572
-65.4049 -9.4903 10.8294
41.8298 -4.3601 52.1191
23.3852 13.4788 61.2910
-54.6774 -37.0752 10.9979
-66.6788 0.3268 -6.2423
-37.0110 -38.9723 39.9560
-28.7611 -26.0680 54.5747
-46.1678 45.0126 -18.0981
13.4432 -52.7917 38.9545
13.3518 -42.0491 -50.3859
-44.0676 -32.9569 -38.1710
55.7953 13.6811 -34.4217
1.7428 11.5329 -65.9476
-33.8483 57.6831 -3.4773
1.9820 64.9261 -16.3037
41.8969 -13.8256 -50.3849
17.2842 -62.2653 17.5905
66.4974 0.2091 7.9490
-41.3334 41.1470 -32.9182
-65.2050 -8.2547 -12.8568
32.8965 -56.5115 14.4709
-22.9770 17.7160 60.3601
47.9531 -30.9115 35.0730
-63.9446 19.8829 -0.9467
50.0033 -16.8103 -41.2579
-7.4509 -66.0845 -7.9034
-11.4770 47.1898 -46.1144
52.4686 -32.6450 -25.8164
38.9000 42.2520 -34.4484
27.5865 -51.4049 -32.8885
37.1698 -52.1976 -19.4667
41.9314 -25.6760 -45.4712
-57.9946 -33.3633 -2.9418
36.8860 -23.3012 -50.8096
22.7329 20.4906 -59.5692
47.5440 6.4444 46.7245
-58.5779 -31.7548 6.7380
-43.0772 -50.5674 -8.5109
3.2426 -63.7667 20.2097
-24.1939 -58.9937 -20.4825
37.4399 -39.7773 -38.7448
-49.9698 24.5160 -37.2441
-49.4018 45.1440 2.5718
-44.2782 -1.0899 -50.2334
54.9787 14.6777 -35.3136
44.6843 -41.8627 27.1285
49.2453 -11.9173 43.7952
-22.3246 3.0847 -63.0653
20.1564 55.3873 -31.7978
-7.3325 -61.8391 -24.6434
-63.6319 19.7334 -6.8344
20.6700 -4.8808 -63.5143
-13.7357 64.8887 9.2696
60.3464 29.0413 0.2239
-56.8466 -26.4978 -23.4833
21.5720 -61.2237 -16.4756
-2.0210 56.8285 -35.3776
11.5363 3.8715 -65.8564
29.6307 45.4437 39.2688
-19.4924 64.0221 -2.5197
6.0790 -19.8149 63.6832
14.7063 65.1533 -4.8900
34.7896 -15.4088 -55.1125
-25.7353 -49.6200 -36.8875
-3.0192 -58.1337 33.1133
15.5440 -65.0082 -4.1777
-26.5322 61.4603 -1.9513
-2.1204 -64.2631 18.7320
35.2375 43.5742 36.6708
51.1574 24.2058 -35.8070
-4.7035 -44.9499 49.4218
-36.5402 18.1169 -53.1199
-63.7533 -14.5530 14.4522
0.6937 -66.6743 -6.2602
8.0097 -66.0158 7.9303
64.2588 15.6812 10.4900
5.1600 64.7539 16.2925
61.4920 23.3452 -12.6044
-20.2956 -63.4575 -6.8097
33.7497 -20.5242 -54.0819
58.1254 -29.6262 15.1284
-35.8310 51.9522 22.4109
44.0295 50.0595 6.3710
-47.7109 36.7912 29.2440
55.1570 26.7964 -26.9221
-15.3401 -3.2240 -65.1109
-24.0590 -30.6666 -54.4597
53.8951 16.6251 36.1118
2.2842 66.7190 5.3386
26.0636 -18.2228 58.9386
-51.2059 30.3962 30.6458
-50.1528 39.2562 -20.7070
-49.7103 38.3672 23.2805
34.8109 48.5906 -30.2041
63.4655 3.9935 -21.0075
65.1202 -15.2829 3.3053
18.9830 52.5600 36.9084
-10.9570 27.8479 -59.9131
-51.8849 -15.7343 39.3131
17.0024 -60.5934 22.9019
-62.0956 -25.0568 1.1957
3.0001 65.0417 15.6751
19.3120 54.5255 33.7514
-27.2429 -47.5746 -38.4658
1.0603 -23.9420 -62.5363
13.9810 41.6374 -50.5568
31.1626 17.4686 -56.6469
-45.3703 -41.4950 -26.5487
51.2634 34.7598 25.4745
-58.5299 32.1893 -4.8213
-14.6785 56.2745 33.2093
43.8632 -38.4010 -32.9624
-35.8978 -53.2667 -18.9510
-14.8079 59.1613 27.6732
52.3462 4.0471 -41.5768
-39.8668 15.4700 -51.5408
-35.5007 11.6313 55.5837
36.2171 -2.9033 -56.2586
51.0247 43.3761 0.3657
-39.4447 14.3567 52.1837
1.2683 51.8800 42.3319
48.0516 -11.9826 45.0843
46.8696 -32.2318 35.3481
43.6638 -48.6148 -14.6698
15.0789 56.1122 33.3045
38.7803 -48.4167 -25.2398
19.4094 -64.0805 1.4521
60.6041 15.5758 -23.8679
-48.1814 16.4395 43.5136
9.7964 36.6740 -55.1741
-32.3268 -46.7625 -35.4031
-56.0296 -11.7985 -34.7364
-37.7008 -42.5923 -35.3509
-8.2509 -65.9738 8.0319
-37.4288 -16.2876 53.0937
0.0036 -33.6198 -57.9211
51.4708 3.4970 -42.7043
36.8754 55.3626 -7.7672
51.9313 -41.4992 -8.1297
-33.7812 -9.6685 57.0131
23.3371 49.6243 38.4440
-31.5224 47.3402 35.3608
-50.1024 -30.6802 -32.1498
23.2776 -40.7782 -47.7539
-58.6667 -30.0715 11.7922
20.2378 63.5269 6.3168
60.9106 -23.3634 15.1390
29.1735 60.2803 0.5742
-15.9077 -5.2865 -64.8393
56.8655 -11.8073 33.3474
-55.1093 38.0026 1.9772
61.1510 25.9533 8.4923
60.8356 -19.8969 -19.7050
21.4569 59.1270 -22.9943
-15.0014 65.1379 4.1413
-47.5871 26.9501 38.6562
-14.5279 0.8969 -65.3703
37.8255 -55.1996 2.7159
-6.3103 -49.8339 -44.2934
-36.8256 39.7502 -39.3565
-52.0795 17.7087 -38.2004
-28.6826 -1.3161 60.5038
66.0895 -10.8301 -0.1377
46.2151 -39.9752 -27.4095
-8.1373 38.3239 -54.3157
-61.5239 10.5522 -24.2611
-46.2984 -12.1614 46.8369
-55.7820 -17.4761 32.6816
10.7431 45.3669 -48.0788
59.4720 -30.5565 3.8110
-17.7235 -56.2220 31.7820
-14.1919 55.3107 34.9922
-6.4785 24.7792 -61.8802
7.5562 -30.8100 -58.9812
-26.0667 52.2598 -32.7807
-37.4836 -0.5067 -55.4965
-47.6934 21.3437 41.8917
33.9721 53.3955 21.9079
21.0451 58.4989 -24.9023
15.4974 -45.1880 46.9363
-25.4766 -16.6937 -59.6439
65.2798 -14.6547 2.9870
22.9595 -54.9870 30.5684
-14.8973 -10.9115 -64.3751
34.9295 40.2465 -40.5621
6.9544 41.7139 -51.9300
61.3338 10.5700 24.7300
-42.0126 -17.7549 49.0392
-37.8342 5.9535 54.9388
-8.2803 30.3940 -59.0997
55.8404 28.0640 24.0706
0.4069 -60.4889 28.7414
-20.2687 21.3311 60.1606
16.0492 64.3692 -9.1740
63.6778 8.2210 19.0445
33.0988 -57.4628 9.3616
-30.3610 58.1853 -13.3349
-53.9238 -39.6945 1.3083
-62.5099 18.7282 15.0635
23.9519 62.0499 -7.8263
31.9938 30.5137 -50.3035
17.7124 -47.7219 43.5205
-48.7397 28.0452 36.3738
-65.8139 -11.0890 5.5411
-2.6405 -24.8785 -62.1227
-5.1914 -65.8810 10.8575
37.8676 37.9127 40.1722
40.6625 -48.0678 -22.8294
-62.7076 -22.1367 -7.9281
55.7229 -9.2104 -35.9898
-41.6162 45.7881 -25.6257
63.8368 19.1479 6.5851
15.3971 -4.7482 -65.0040
55.2893 -37.7893 0.4408
20.1897 29.1296 56.8241
56.7099 -13.5048 32.9658
30.5120 41.4435 -42.8555
-0.7276 32.2743 58.6769
4.0241 19.4624 63.9543
-38.7307 -11.2768 -53.4594
-62.4957 24.0608 0.7130
35.3557 15.8350 -54.6293
-29.8355 47.0271 37.1945
-30.6424 1.7381 -59.5245
-27.4845 -60.8226 5.5093
57.0956 32.0309 -14.1155
32.3649 14.3970 -56.8364
24.9366 -61.9442 5.1202
24.6707 -1.8351 -62.2344
8.3922 48.3743 -45.5481
2.7784 61.6311 26.0582
-15.4773 -18.9936 -62.3284
25.1226 57.1239 24.3074
-62.1422 13.9100 -20.7364
-33.9154 -47.1568 33.3335
-51.0932 -39.4691 -17.7991
31.2261 53.3520 -25.7611
27.7045 49.8853 -35.0578
-10.6145 49.6016 -43.7281
-44.4406 7.6708 49.5109
-42.4861 -33.3738 39.5760
-47.1084 27.3978 38.9268
49.7390 -30.1438 33.2042
-50.7470 41.9749 -12.1652
-50.9296 -8.7855 42.5926
-42.6523 -48.8761 16.6447
-15.6981 -34.1850 55.4084
52.2675 -40.1381 11.9240
-39.2285 -1.8065 54.2494
41.2216 31.8997 -42.0515
-18.8778 16.7783 -62.0262
35.1131 -56.7874 -5.2346
-33.2833 -54.3669 -20.5329
-22.1198 -58.2423 -24.5699
55.6467 -25.6149 27.0640
-15.4349 -13.1842 -63.8207
-33.6401 -31.2144 -48.7764
-38.1231 28.0288 -47.3936
-48.9017 -45.5620 -4.2271
-56.8431 19.9315 29.2701
-8.7357 58.5147 31.3824
49.4110 33.5528 30.2969
-13.3658 -65.5719 2.6117
-19.7234 -3.8328 -63.8861
-52.7213 5.7197 40.9009
57.5371 21.0437 27.0515
11.3981 5.2149 -65.7877
-36.2294 -31.7863 46.4995
-50.7132 -14.2786 41.3452
-17.8944 5.5106 64.3005
-59.0158 31.6319 1.3026
-63.3925 0.5823 -21.5915
22.6037 -62.9377 3.6129
13.4114 -64.5106 -11.9857
44.6166 -43.6322 -24.3048
-50.5114 22.2488 -37.9306
45.4152 -48.6257 -7.6245
45.3076 14.8476 -47.0309
-1.9984 62.6625 23.5489
-7.4850 -36.7809 55.4642
21.5692 -59.6145 -21.5876
-55.2261 1.4096 37.8581
51.5255 10.1418 -41.5621
-27.5683 -27.2279 54.6239
-32.6570 -27.7318 51.4743
20.4338 63.2503 -8.1853
-5.5487 -58.6169 -31.9125
-34.3037 56.0342 12.9831
31.8174 26.6149 52.5779
-42.3337 51.4705 -6.6165
-53.6881 37.6122 13.7132
0.8718 66.9267 -2.2776
-52.3614 41.6912 -2.2960
-21.3492 0.4157 -63.4758
-3.9303 -28.3496 60.5474
-35.9738 17.0369 -53.8588
52.7455 -29.4536 -28.9057
-2.5739 34.3664 -57.4235
-13.6084 5.9030 -65.3078
25.9833 48.0100 -38.7950
2.7782 5.1043 66.7185
60.4083 23.9024 16.2682
-65.6962 -11.9317 -5.1755
7.8642 -66.4203 3.4106
-18.8371 31.8918 55.7962
-49.0907 -42.3645 -16.7476
-44.6538 -42.2964 -26.4990
3.1376 46.5293 -48.0658
-7.8324 61.7171 -24.7950
18.5034 18.9057 -61.5251
23.4651 -18.7232 -59.8663
0.3133 30.2582 59.7451
-22.9239 26.0885 -57.2628
3.1052 58.7367 32.0233
28.9506 -35.1122 49.1338
-19.0140 28.4304 -57.5788
-56.6088 -14.7507 32.6036
50.3077 -37.5446 23.3383
-11.4546 64.3307 -14.6795
-25.6116 -51.2289 34.7100
63.1175 -6.4909 -21.4287
-42.1867 -45.8198 -24.6163
-13.0141 52.1483 39.9540
11.6920 -61.3286 24.2330
-61.5461 -4.2964 -26.0530
-12.4937 -46.4048 -46.6437
32.6341 52.4477 -25.8725
-7.2077 -66.5483 2.1238
-38.7364 -53.9842 -8.3863
46.0636 22.1097 -43.2948
-54.8692 37.5601 7.9845
-25.6008 -55.5480 -27.2792
18.9786 -6.1772 63.9280
-39.4166 -29.2204 45.5811
-23.7438 1.9562 62.5903
-56.1402 32.5469 16.5565
-64.2815 16.0517 9.7658
52.1747 -14.7698 -39.3038
24.5384 -54.5888 30.0510
-16.7428 56.4877 31.8427
-1.3839 -42.0942 -52.0701
4.6444 -62.1342 24.5541
64.3939 16.7611 7.5913
-51.2866 39.8580 -16.3147
-34.7723 -57.0325 -4.8287
-55.3509 36.6681 8.7673
-4.1398 -26.6387 -61.3056
-26.9469 18.9591 58.3057
46.5136 32.2466 35.8019
21.4920 51.4693 37.0694
39.0044 -15.0870 -52.3085
14.9428 63.3012 15.9629
-58.9320 15.2912 27.8986
2.3719 22.3004 -63.1047
-39.2408 9.2786 -53.4715
48.8428 -4.3276 -45.6156
23.4855 46.3171 42.2883
-61.7183 25.8488 -2.7985
44.6103 36.5700 -34.0250
-59.6028 19.7742 -23.2728
-21.1584 -28.6794 -56.7005
57.0235 -33.4295 10.7670
50.4533 34.7365 27.0735
8.4879 66.0604 7.0081
-22.0534 -60.1044 -19.6532
3.2263 22.5655 -62.9724
-19.9660 -63.3904 -8.2555
-49.1267 -2.4606 -45.4495
-19.1104 59.3239 24.5073
-62.2655 23.5712 -7.2484
37.7535 14.0012 -53.5142
-63.3271 -19.8109 9.0744
32.9295 17.7438 55.5513
53.5401 39.5614 -7.3138
-15.6764 -57.9156 29.7518
-9.1627 -33.7011 -57.1438
-16.7752 62.6112 16.8396
-57.5955 16.3120 -30.0303
60.1406 14.9711 -25.3795
-40.6831 -53.1620 1.9570
-5.6017 48.3572 45.9928
-35.0062 -5.1383 56.8621
-3.5011 -45.6030 48.9208
23.6375 -46.3005 42.2216
45.9093 -48.0660 8.1935
34.0464 18.5907 54.5928
-19.8763 -26.1227 58.3753
-21.9474 19.4212 -60.2185
47.8954 -44.5918 -14.2387
-27.8631 -60.8976 -0.5161
15.1442 48.9836 -43.0859
-11.7996 47.4531 45.7614
-63.2873 1.1297 21.8765
-41.9156 -40.0893 -33.4822
27.2242 -61.0519 4.0798
-66.1613 -1.3177 10.2998
59.1843 -21.1501 23.1306
-37.7849 54.2124 -10.8838
-58.7951 31.4890 6.0597
-59.0557 -26.7602 16.7767
13.5392 22.8639 -61.4741
64.9896 -14.5559 7.0440
18.6527 4.3862 64.1714
-37.8914 53.3353 14.3082
6.8195 63.3633 -20.5846
-28.5407 -26.4460 54.5085
2.6294 24.3871 -62.3177
-19.1686 51.9948 37.6064
49.6468 40.4213 -19.6582
40.1450 -18.8957 -50.1644
37.0331 6.9235 -55.3692
63.2068 7.7985 -20.7176
20.4255 63.7475 -2.0459
-52.6513 32.1611 26.0508
-37.2622 38.1523 -40.5102
-48.7648 -6.8220 45.3937
32.4084 -57.5179 11.2483
-57.9305 -30.8141 -13.4045
51.6553 -42.5917 -1.6779
-58.0372 -23.9096 23.3484
-31.7409 -4.8151 -58.7747
-29.1066 -59.9157 6.9320
-52.1301 16.4656 -38.6843
-30.1102 -57.5697 16.2557
40.3477 35.0450 40.3614
-39.5324 53.0356 10.4669
-30.7106 -56.3907 19.0284
10.1448 -0.2064 66.1980
-38.3202 -53.9180 10.4663
-56.6926 0.2425 -35.6514
32.6124 -57.1632 12.4070
37.4113 -21.2511 51.3217
-0.0556 -33.0478 58.2493
-49.6542 44.8073 -3.4494
-5.1512 -40.3991 53.1650
-17.5536 17.7174 62.1539
-36.5545 31.6604 46.3306
-4.0391 -20.4398 -63.6478
4.7944 -58.7256 -31.8348
-28.0715 53.0851 -29.6497
-5.6547 -35.9315 -56.2325
42.2855 -26.3305 -44.7635
-28.2069 -38.4534 -47.0196
-57.9639 -22.3949 -24.9757
-14.1097 65.4202 2.4994
42.5756 -22.6609 46.4643
-29.1314 -58.9607 -12.6547
-39.5474 53.7770 5.4018
-65.5196 13.1698 -4.3449
17.5027 -37.8134 -52.4303
31.3366 33.9588 -48.4764
-29.7881 -17.0167 -57.5173
-55.0106 34.2082 -16.9933
10.0938 61.0722 25.5625
48.8079 28.7679 35.7118
-66.0677 -0.2616 10.9605
58.3008 -30.7920 11.7478
13.5536 64.0631 14.0484
41.3907 -50.6256 -14.4568
56.9753 -22.9468 26.6908
43.5352 -30.2331 40.9363
-66.7143 4.9006 -3.2121
-17.3634 -42.6054 48.6666
-9.1102 -53.8377 38.7768
-28.7535 -58.4737 -15.4662
38.0589 -47.0767 28.6434
38.7726 -21.6787 -50.1184
-25.0265 -42.8001 45.0218
11.6369 -33.7434 -56.6666
17.4762 64.5878 -2.8512
37.8622 -47.3032 -28.5308
38.1042 39.1431 -38.7431
25.5463 -2.2476 61.8666
29.6759 49.8592 33.4446
-38.5330 -38.6598 -38.8042
-62.8608 -13.0307 19.0751
-58.5360 17.4611 27.4551
-3.8775 23.9498 62.4220
0.3029 22.0491 -63.2367
46.8677 -25.8567 -40.2490
-10.1686 30.1428 58.9334
-18.7219 -63.5433 9.8426
22.7327 -57.3983 -25.9577
48.6987 -44.0044 -13.3109
48.6988 28.4220 -36.1351
-19.6809 -62.0309 -15.8104
-16.3444 25.5441 -59.7118
27.5280 -7.3296 60.6104
-21.4111 -44.1506 -45.5787
31.1250 54.5869 23.1655
46.0615 -43.1851 22.3275
58.9861 -18.7362 25.5878
-22.3837 -61.6013 -13.7619
-40.1686 -12.1509 52.1917
38.5058 -43.8514 -32.8556
-25.3356 -61.7301 -5.7124
-9.5079 -2.7802 -66.2345
-34.2028 56.6968 -10.0390
42.4879 29.2141 -42.7370
48.2524 -44.0422 -14.7351
22.0476 -13.1673 -61.8519
11.3852 -5.6251 -65.7562
58.5607 -2.8793 -32.3650
-27.0835 11.2531 60.2079
-1.1394 -39.2054 -54.2842
59.9687 -8.4312 28.5973
29.8833 54.3970 -25.1613
-4.5247 -15.9674 -64.8823
-27.6886 60.9298 2.4556
-17.2309 -47.5138 -43.9394
-25.5854 -4.2375 61.7460
-10.8139 53.2023 39.2137
61.4412 19.9635 -17.6513
-20.0393 59.1049 24.2934
-64.4964 -12.0570 13.4156
-21.8005 20.8017 -59.8094
13.3614 -55.4023 35.1739
-51.9950 -10.8912 -40.7804
45.1295 -43.4561 23.6649
50.3885 -27.5980 34.4164
28.1819 59.1007 14.0719
-39.9315 -49.9183 19.9693
-6.4090 5.6701 66.4222
-59.2185 21.6799 -22.5453
-18.9484 61.1616 -19.6305
-24.0027 9.1412 -61.8502
-40.6149 5.7756 -52.9359
66.4742 7.8388 -2.2064
54.5067 -24.0249 -30.6099
14.0938 -47.4628 -45.0974
1.0143 -20.2671 -63.8228
-53.6889 38.2304 -11.8774
-12.2235 32.2801 -57.3909
-40.6355 -5.5404 -52.9452
15.9594 21.2147 61.4847
-66.7841 3.0777 3.9429
15.4491 -60.3444 24.5970
11.7109 34.7020 -56.0693
16.1834 2.3981 -64.9421
10.6277 -60.7757 -26.0481
42.0438 -46.0509 24.4289
18.8232 -61.8488 17.4798
4.8027 -61.0029 -27.2161
20.7372 -31.7190 55.2179
6.8370 -59.3420 -30.2806
-41.5652 -48.4328 20.2913
-33.9606 -18.3177 -54.7382
-13.0961 16.8805 -63.4719
-32.4490 0.5196 58.5827
-22.2773 -63.0375 3.8905
-24.5761 -62.2989 0.0692
-61.2107 -2.9863 27.0086
19.6498 -19.9615 60.8323
48.8341 -26.3045 -37.5292
-36.6043 -53.2215 -17.6842
28.5064 -2.2913 -60.5580
-54.5903 35.7935 -14.9618
2.1361 66.9331 -0.7293
-39.3004 -22.9621 -49.1260
-65.2130 0.1196 -15.2442
-60.5611 -2.2407 -28.5038
17.3397 -61.4429 -20.2296
-57.7593 7.4917 33.0586
30.9373 31.1462 -50.5760
-66.3663 -3.5223 -8.2610
38.8661 -49.7405 22.3706
-42.0654 22.1135 -47.1872
-1.3014 -53.6963 40.0018
-42.3154 -26.8673 44.4150
-20.4793 19.7237 -60.6359
-15.2270 7.3834 64.7979
43.7472 33.1241 38.3942
65.1568 -15.3541 -1.9942
-48.4575 29.9005 35.2558
-27.3618 53.0199 30.4197
-14.0998 -28.5133 58.9349
-4.8492 54.6117 -38.4601
-0.6019 9.6469 -66.2700
29.5945 -57.1015 18.6742
16.1026 64.5012 8.0894
-34.2772 48.9090 -30.3006
33.6724 56.8066 11.1500
24.7510 43.9314 44.0745
-6.7660 -59.1659 30.6391
-15.5848 -44.0353 47.9911
47.5177 -10.1459 -46.0898
15.9301 -64.2133 10.3934
41.8476 -51.6296 -8.2646
41.2911 -8.7961 51.9886
55.0719 -36.9190 -9.4451
-20.1776 -16.6290 -61.6561
6.1374 19.6584 -63.7261
29.5795 -16.1152 57.8834
19.3029 -27.6485 -57.8627
-9.6402 -16.3422 -64.2272
46.9620 -0.3043 47.7453
53.7451 29.8271 -26.5884
-28.4394 33.1898 50.7423
0.5737 52.0435 -42.1460
-17.7881 -47.9742 -43.2111
60.8636 24.2287 13.9187
61.9166 -10.2194 -23.3887
48.0773 -36.3678 -29.1736
-24.4365 61.6598 -9.2767
-47.7844 -16.3434 -43.9850
-20.1259 41.6716 -48.4104
-25.9337 56.5187 24.8639
-59.5929 -30.3085 3.9004
-49.2450 -2.2338 45.3329
-66.3944 -1.5184 -8.6381
-12.4959 57.1518 -32.5984
-5.2092 -20.5550 -63.5255
-35.4672 -1.8016 -56.7800
41.8736 -39.5439 34.1763
40.7468 -13.6490 -51.3667
38.5901 49.8704 -22.5584
2.7625 12.5350 -65.7296
-26.1490 25.1898 -56.2747
3.8053 -37.5566 55.3187
-8.2496 59.0018 -30.5920
59.2318 12.3210 28.7214
-28.3387 -60.3569 -6.2531
-62.1889 -18.5687 -16.5190
27.2454 11.3024 60.1255
25.6496 -47.9193 -39.1276
-60.3253 10.8634 -26.9812
-17.6342 62.9689 -14.4600
3.3837 -50.2381 44.1568
18.4707 7.3932 63.9477
23.3976 -52.5176 -34.3452
8.2523 -46.7038 -47.2841
-58.7320 -31.1525 8.0751
59.8130 -29.9765 -2.9906
45.5752 31.2444 37.8395
-62.2283 19.1814 -15.6477
-42.0861 -48.9960 17.7000
-1.0210 -0.1530 -66.9632
-53.4630 40.0238 -4.9935
4.2481 -63.0223 -22.2550
13.4460 34.4145 55.8568
32.5098 -36.0140 46.1654
3.4818 24.2626 -62.3245
-38.1531 54.1966 -9.6022
42.5393 18.9071 48.1463
-33.4317 20.7239 54.2031
-10.1732 62.2469 22.5161
-36.8673 28.3820 48.1706
15.8304 51.5205 -39.7514
-42.6965 10.3424 50.5488
48.2799 -45.9331 6.6584
-29.7054 -60.0156 -0.9217
-38.6944 53.9947 -8.5118
28.1825 48.2641 -36.8979
10.5805 47.6642 45.8401
49.9926 -18.5140 40.5353
65.7019 5.1973 11.8904
56.7951 -19.0447 -29.9459
50.5200 23.8236 36.9501
44.0479 46.6122 19.2931
12.3234 -43.4768 -49.4271
-42.1849 -34.3768 39.0359
40.8765 -18.7619 49.6210
-21.6304 -13.3320 61.9639
-3.2967 12.5479 -65.7025
-20.3691 -63.7539 2.3814
35.1809 -13.1608 55.4458
34.8681 54.8412 -16.1803
60.7056 25.7871 -11.6187
-10.6848 -21.5157 -62.5144
-66.4776 3.9117 -7.1113
17.7324 -6.4457 -64.2585
59.9793 -28.4479 8.8508
-26.7067 -12.6925 -60.0898
65.3463 -12.6811 -7.3615
16.8735 63.9897 10.2829
-46.6307 45.4552 15.6379
35.1660 56.1587 9.7307
-4.0191 61.3917 26.4583
12.0020 -14.7377 64.2175
-6.0345 66.5380 4.6283
-22.1340 23.4418 -58.7001
-15.6605 -33.5145 55.8271
31.3446 56.8050 -16.6087
63.8352 -20.1450 2.0946
-45.7814 -14.5491 46.6640
-23.4094 62.6590 3.3142
-49.9073 -0.5591 -44.6552
-32.5993 25.9533 -52.4295
-52.4412 -35.3301 22.0644
-19.0367 6.6302 -63.8653
37.6447 -3.3777 55.2866
-48.8205 -45.8263 -1.2829
25.1825 8.3697 61.4893
-38.8348 -53.6626 9.8649
-56.7887 35.4635 1.5898
-66.5257 6.8902 -3.4639
-37.9373 -27.6082 -47.7879
26.0942 51.1456 -34.4727
36.7224 -36.4830 -42.4922
38.7999 9.9492 53.6723
28.9773 -10.5043 59.4568
-42.8624 42.7900 28.5826
34.0440 41.6990 -39.8414
-27.7706 -58.6648 -16.5037
51.9681 -42.0072 4.4558
19.4624 52.7929 36.3216
11.7999 18.2673 -63.3420
41.0521 -27.8249 45.0071
-29.0354 28.3940 53.2528
-27.4103 22.6917 -56.7354
-11.1782 -2.7930 -65.9726
-47.3032 -43.6770 18.4354
-18.6134 20.8400 -60.8635
63.2207 6.2640 21.1905
-8.9317 38.1250 54.3309
-7.5777 -13.9872 -65.0544
62.7780 -19.2506 13.1707
-21.0999 57.6609 26.7423
-42.6575 51.0309 -7.8308
2.1312 -65.6801 12.9122
3.9107 52.9120 40.8676
-30.8105 45.9321 37.7637
-56.4646 -20.3080 -29.7401
-51.8472 30.7493 29.1803
-62.2763 -21.1297 12.6621
59.4901 27.0903 14.5662
3.6832 -61.5627 -26.1075
65.6320 2.8399 -13.0197
-22.2186 24.3699 58.2888
59.2758 30.8421 4.5038
-23.6637 -62.0549 -8.6228
45.0229 12.5661 -47.9601
51.7475 34.3486 25.0502
-51.6227 20.7027 -37.3047
-13.4495 63.6642 15.8468
-44.6608 15.7346 47.3600
20.3408 18.1482 61.1722
-48.2945 -42.6404 18.2913
-4.9085 46.4553 -47.9891
3.3008 -32.0833 -58.6933
-32.8774 -35.8190 46.0566
-56.0849 -36.5615 1.6967
12.7481 50.2654 42.3794
58.0934 -14.8493 -29.8294
45.8381 46.1685 15.8893
33.8019 36.8294 -44.5664
-51.4103 28.9587 31.6783
7.9458 66.1580 -6.7168
-59.6127 -23.3711 -19.6279
-65.8598 -11.5997 -3.6154
22.3337 29.3388 55.9069
-9.7728 66.1516 3.6876
-33.7481 47.2871 -33.3186
58.9522 30.3304 9.4782
-25.2835 31.2260 53.5800
-8.3999 -12.5478 65.2467
6.4983 -65.5024 -12.3430
42.3887 51.8024 -2.2015
-65.4920 12.6306 6.0338
8.6464 -22.0387 62.6472
-22.5042 -57.2734 26.4282
-52.3753 -28.4185 30.5672
-0.6690 31.1083 -59.3040
30.0931 59.5037 6.2330
9.1831 -22.7254 -62.3246
34.3870 57.0277 7.1074
-20.6963 12.5067 62.4531
-46.6036 -47.1338 9.5732
27.4883 -23.7090 56.2798
64.4066 -3.6004 -17.9991
-21.0936 63.3674 4.9770
50.5868 -30.8243 31.2406
59.2899 -1.8789 31.0855
62.7454 -19.5508 -12.8807
-46.3845 43.4377 -21.1371
37.9967 -8.3450 54.5137
45.9207 -37.7006 30.9045
-28.5896 37.0421 -47.9130
45.3402 -1.4419 -49.2679
-25.0029 24.8169 -56.9571
23.5704 61.2488 -13.3476
-7.2114 55.3504 37.0063
59.8858 -25.9752 -14.9706
-63.9738 -19.2078 -4.8532
-9.7096 -63.4587 -19.0751
10.3969 -46.8304 46.7328
30.5701 -49.5937 -33.0314
-59.6821 -7.2139 -29.5151
-43.0345 47.9569 18.2565
6.3378 -50.9426 -43.0095
40.7176 47.3312 -24.2275
-30.3360 -57.8055 14.9460
60.8820 -27.8976 -0.4976
-13.6455 -48.7868 43.8039
0.1888 17.1667 64.7334
26.9607 0.8621 -61.2986
30.5640 35.5199 47.8468
-59.3963 -26.4060 16.1226
-11.3458 17.0063 -63.7746
22.5808 -62.7449 -6.1911
-39.4162 10.6881 53.0779
-18.7870 48.2191 -42.5101
-3.0511 -56.3907 35.9988
43.3379 -2.6589 50.9891
-26.0835 -55.7456 -26.4048
-37.5667 6.5984 55.0485
33.0311 -4.6088 58.0762
15.1993 64.1830 11.6041
-30.1164 -41.0393 -43.5192
-53.5267 -38.0915 13.0027
-59.1314 -30.5071 -7.6111
9.6684 -4.4215 -66.1219
51.1358 34.5291 26.0387
61.3762 26.7028 -2.2497
14.2514 -13.0048 64.1320
-17.3546 -63.8998 -10.0383
-62.2901 19.9039 -14.4539
17.6296 -49.3317 41.7219
36.9938 -6.2224 -55.4786
48.0587 -15.7409 -43.9058
51.7002 30.7860 -29.4015
-12.5381 -49.0153 -43.8797
-40.2333 -23.5835 -48.0649
-20.3870 -63.7769 -1.4205
-55.2099 -24.9356 -28.5520
45.2039 -34.1214 35.7418
27.4959 57.1440 21.5330
-61.1672 1.7577 27.2145
65.4029 -6.5954 12.8101
35.6051 -48.9875 28.5944
-31.1497 -4.6675 -59.1020
-59.1355 5.2191 -30.9983
48.2998 10.9249 45.0879
12.8169 4.7012 65.5650
58.5332 27.2588 -17.7751
-21.2699 60.0430 20.6778
66.3683 -8.5110 -2.8183
-0.6164 -59.4096 -30.9071
5.8282 -30.3824 59.3976
-21.0542 39.5735 49.7574
12.8022 44.7908 -48.1147
27.4567 30.5290 -52.9079
49.6899 44.8991 -0.3581
-47.5007 47.0384 4.0256
64.9629 12.5246 10.3970
-9.9236 64.4092 15.4311
16.5479 32.7471 -56.0261
-60.4928 14.4523 -24.8373
-24.9562 -60.4839 14.2835
-41.0283 -26.4155 45.8698
-54.5079 -38.5770 -5.0831
54.4901 -37.9823 -8.5618
43.5273 41.5475 29.3993
29.3399 56.4677 -20.8736
-8.9549 28.9520 59.7221
66.0371 -9.2011 -6.2907
-5.6886 19.2522 -63.8916
-42.0588 4.7657 -51.8988
-9.5860 37.1447 -54.8955
23.0189 -1.9788 62.8598
-33.3889 -10.8281 57.0357
-46.1257 -6.4014 48.1308
26.0035 -28.7133 54.6306
-11.3325 7.4308 65.5858
48.5530 -38.2679 25.7548
48.4940 -46.1292 -2.3592
59.5778 30.2631 4.4459
-59.8450 -6.9749 -29.2415
-8.0638 4.4629 -66.3340
52.0036 42.1581 1.8579
61.9694 -18.8868 16.9769
11.5010 10.2400 -65.1767
17.4600 -14.3710 -63.0378
23.6480 26.8621 56.6069
22.9486 -38.1149 -50.0575
20.1752 -7.0516 63.4694
56.6987 -28.0641 21.9726
-33.6590 56.8255 11.0936
-60.6499 -20.2089 19.9582
-51.2683 25.0606 35.0523
22.0910 4.8030 -63.0401
-45.1042 -37.8918 31.8585
22.2719 37.5773 50.7646
-28.4157 -60.6315 1.2287
-55.1242 -37.8536 3.6829
33.0742 -24.9094 52.6380
26.0605 -28.8584 -54.5269
46.1400 -25.3615 -41.3888
-53.4784 39.6255 7.4174
-7.8033 66.4456 -3.0386
-32.8340 58.3645 0.8085
-59.6617 25.8769 15.9999
-59.9676 23.1697 -18.7669
-14.7454 62.5032 19.0017
-61.8660 -25.3785 3.6970
-49.1248 10.8362 -44.2094
-7.5799 66.0057 -8.4217
65.5593 -1.9981 13.5325
-31.0358 -52.6539 27.3768
0.9527 66.6181 6.8014
-4.1967 -59.0050 31.3996
