ply
format ascii 1.0
element vertex 1024
property float x
property float y
property float z
end_header
-57.5484 47.6562 -22.0552
14.9546 -74.8632 15.5315
-77.0356 -11.1971 3.0834
-6.2065 -71.6168 -30.0312
-66.3570 -38.8297 -12.5844
-7.6637 77.0018 9.0194
-35.8785 -31.9313 -61.3391
-24.1703 15.1400 -72.4979
-7.8998 -35.5526 -68.8692
58.5259 15.8757 -48.9085
19.9125 15.8712 73.6272
-34.4583 -31.4156 62.4103
0.0171 -33.3732 70.3960
74.9309 -11.4654 17.9795
30.6003 -38.2770 -60.5628
-4.1755 45.8448 -62.8505
56.9663 53.0777 -2.6364
16.4144 51.3071 -56.2806
50.6472 -59.1736 -1.6463
-20.1559 56.7425 -49.4306
-37.4243 -66.1377 -17.1633
25.5776 -41.1074 -61.0355
30.0996 11.4722 70.9349
48.4283 -36.1167 49.1899
-53.9286 -18.1528 53.2122
-64.5082 -31.4888 30.2740
-50.8833 -4.9559 58.7851
-59.2434 27.0057 42.7816
-56.8213 -27.6939 45.5385
-25.6965 -63.9385 36.3445
-15.9755 -75.1696 -12.7936
72.8530 -25.9516 9.3976
69.0218 21.0016 29.3986
-58.9538 30.2456 -40.9758
8.8054 -22.2975 74.1259
-71.8017 29.8103 -5.0213
8.0653 -63.3549 44.6146
49.5823 43.7819 41.1594
65.0960 -39.0021 17.6268
70.9215 30.9893 8.8975
17.6379 -59.0835 47.6172
-6.3909 75.3034 -18.9185
-5.7444 76.1485 15.4198
-68.9530 15.7809 -32.6467
-68.9645 -9.1836 -35.0559
60.6095 -4.9188 48.6996
41.5631 -7.2945 -65.4879
58.1595 -48.4632 18.3889
61.3737 -17.8468 -44.5435
15.5888 -71.0298 27.9484
-72.4816 28.4322 2.7172
43.4231 -64.5650 3.8934
54.5662 5.2577 -55.3556
-53.6236 30.3662 -47.6630
19.1393 -73.6673 -16.6186
8.0190 76.9769 8.9230
-69.0767 -34.9385 8.7793
-38.6154 -33.1382 -58.9922
18.0078 -75.4158 7.5848
46.3043 -62.6317 1.5960
41.8711 42.6313 -49.9874
-10.1942 74.7664 19.3758
-19.0058 -34.5730 -67.1777
-1.9322 63.2661 -45.4205
-54.4829 -32.3728 -45.3098
-48.4458 -17.4785 58.4540
31.4234 -67.0892 -24.1032
40.4911 22.1047 -62.7791
-24.4535 44.8839 -58.7947
-58.0582 -4.5405 51.7493
-19.6419 71.9959 -22.3639
42.8265 -38.4968 52.4714
-29.7233 64.3933 -32.2396
-43.0380 -63.8520 -11.8324
43.4637 34.0139 -54.9848
52.1542 -37.5057 44.0752
-50.1667 2.4303 -59.5546
67.2207 5.3705 39.0114
-59.9026 40.3066 -29.2646
35.7422 63.1215 28.4171
31.7654 59.8854 -38.3935
-67.1983 -37.5827 -11.8866
18.5255 64.4384 -39.6718
-35.3978 -61.2499 -32.6313
40.5403 12.2026 65.3983
-20.3963 39.3524 -64.0683
9.3475 -69.1939 34.5570
37.1213 -53.5504 -42.7050
-75.7619 0.4485 -18.1465
-46.7209 -5.9168 -62.0605
43.7872 49.6156 41.1136
53.9687 -30.1700 47.3973
-30.2865 46.4400 54.7304
7.2463 -20.8757 -74.7065
-6.6412 26.2511 -73.0488
23.5912 66.0067 -33.9989
-33.7473 6.1492 -69.9476
34.8669 -38.6695 57.9511
13.6786 3.9970 76.5916
19.1416 23.0421 71.9168
-18.8098 61.6389 -43.7744
70.3324 -20.7011 -26.3473
-8.9797 -67.5957 37.6768
-4.0107 27.7410 72.6892
23.4458 4.3618 -74.1662
31.3653 22.2160 67.7645
-4.4283 -56.5535 -53.3989
-59.9964 -15.7301 -47.1419
-52.2245 13.1199 56.3012
38.1179 -38.0924 56.2615
66.4175 36.7756 17.4825
-3.4535 -77.7597 -3.2970
6.4813 11.0597 -76.8442
-55.7433 -34.0916 42.4241
3.2284 77.8392 0.0063
-20.5590 -75.1260 -1.6663
31.6731 -33.9463 62.5606
-15.9896 -22.0732 -72.9826
-46.0572 13.6668 -61.3296
38.9115 63.0567 -24.0647
2.6924 74.8331 -21.4971
53.0273 -18.5197 -53.9860
-56.4985 -0.6539 -53.6363
42.9265 -64.7097 -6.2713
-13.4652 31.5491 69.9478
-3.0818 -11.0559 -77.0560
17.5943 75.0060 -11.5719
41.0408 -7.4620 65.7977
41.2765 16.5416 -63.9686
-56.0215 52.9203 11.4191
30.4350 -68.1292 22.3938
22.5073 74.4690 4.1414
-70.1703 33.5757 4.2616
-66.8850 39.9256 -1.3071
39.4255 56.8213 35.8654
28.1825 60.8382 -39.6714
-55.5400 -54.5416 -3.1442
0.5235 -76.5683 14.3661
-29.0119 69.4865 -19.9824
-36.2463 -55.3554 41.1260
-50.5348 -8.0222 58.7473
9.5677 -51.5927 -57.5848
62.4695 30.7114 -34.9819
53.9187 55.2423 10.5078
34.0064 -56.6991 41.2085
-62.7111 45.7185 6.8190
68.7043 -27.4928 24.3561
33.8598 -28.9790 63.8991
-63.3958 -34.8931 28.8583
69.8915 10.4810 -32.7823
74.5078 3.1140 22.5443
-57.7612 45.0696 -26.4903
-45.0338 -61.0459 -17.7402
51.2046 -6.4765 58.3567
-21.1856 38.2275 -64.4918
63.4153 43.6029 12.1097
75.4622 -18.4230 -5.9511
-44.1867 38.4689 -51.3521
-74.4114 -14.9611 -17.5632
-4.5533 53.7676 -56.1932
-31.9286 68.1283 -20.2105
74.2139 -23.6802 -0.9503
27.4372 -72.8590 -2.8503
27.6813 -4.6802 72.6719
-21.6894 35.1781 66.0411
-7.6256 -77.4488 3.5919
27.1989 -59.7515 41.9444
3.1368 -71.3598 -31.1015
-1.6791 -77.8000 -3.7010
35.4687 24.9755 64.7113
29.5551 0.7763 -72.0781
63.5460 37.1024 -25.5867
-38.2846 -61.9362 -27.7047
-37.5353 -18.4838 65.7176
-1.6052 62.0585 47.0694
1.7050 -33.5538 70.2894
60.4455 -49.1070 -2.0525
-35.3348 -67.7295 15.2815
-25.0890 73.7557 -0.0382
46.2516 15.5534 -60.7309
60.7179 45.4547 -17.7923
66.6018 2.0274 -40.3664
-20.6350 41.8105 -62.4135
27.8602 50.9145 -51.9701
3.9892 75.5192 18.7164
14.3898 41.0891 -64.6063
43.3533 14.8143 63.0110
-23.4875 -8.9432 73.7409
9.0767 -66.7856 -39.0725
-3.0539 63.1477 45.5237
-8.9403 -26.3334 -72.7735
-13.4429 -39.5779 -65.7437
16.8305 28.4383 -70.5504
74.7137 -0.6414 22.0637
67.6122 -11.1895 37.0507
-77.6516 1.4223 6.1297
20.4674 59.3266 -46.1606
5.6981 -71.0895 -31.3556
-13.1886 -8.6398 76.2940
-16.1696 -39.2171 65.3447
3.9139 55.3286 -54.7064
45.9275 43.0804 45.8706
17.5771 10.4369 -75.1763
-46.1134 -11.9118 -61.6524
-19.7783 71.8562 22.6906
20.9145 -59.5511 -45.6684
61.3046 -4.5733 47.8560
-30.5398 50.6743 50.6833
26.1577 -32.2424 65.9209
-40.1837 51.3179 -42.6744
39.8084 -40.5448 53.2989
-25.0761 -60.5094 -42.1802
70.9602 -16.1728 -27.7930
-35.7453 -69.2124 1.1311
14.2844 65.7088 39.3405
-59.5442 17.5860 47.0594
-72.0405 1.9434 29.5931
-41.9374 -64.9314 -9.7226
-74.6320 -13.8458 17.5420
58.4124 40.1346 -32.3507
43.9349 -64.1220 -5.2390
70.5053 15.6767 -29.1995
-52.9248 -4.5004 56.9919
-5.7417 8.9599 -77.1759
-61.6362 -27.9068 38.6206
63.3482 -38.7927 23.4839
-75.6942 -16.2369 8.7242
-59.7532 49.9620 1.6471
49.4195 -6.9118 -59.8272
47.1628 -61.7855 -5.2512
-54.8570 -20.0776 -51.5458
58.2829 -44.0083 27.1245
29.2058 -4.9917 72.0518
49.4195 -10.5813 59.2883
-6.3245 -43.1338 -64.5665
55.3424 49.3532 -23.8922
-22.9748 -63.3673 39.0654
-69.9156 25.8938 22.5981
-37.4488 -21.7729 -64.7525
52.6951 56.3036 11.0677
-56.0672 -53.4923 -8.0252
8.4602 -3.9992 -77.3420
31.3610 -29.3486 -64.9962
3.9999 43.6188 -64.4264
26.2743 -72.2953 -12.3456
-39.5843 -31.7904 -59.0916
-16.7151 17.2663 -74.1070
28.0559 38.0828 -61.9025
-72.3925 17.7636 22.6526
-40.9491 -58.7186 30.7353
-43.4132 -45.1770 -46.3001
-76.5708 3.5984 -13.9042
-75.4881 18.2637 -6.1112
39.0026 -38.2211 -55.5635
-58.4566 29.7990 42.0024
-27.4949 56.2893 46.3131
32.2602 12.0463 -69.8823
18.5369 59.9638 -46.1528
-71.7757 -21.0511 -21.7821
-4.4462 -54.3161 -55.6718
70.7814 7.3109 31.7159
62.8054 -28.1042 36.5376
59.8543 -26.8368 -42.0310
-14.7219 62.7857 43.7102
43.8262 12.8163 63.1218
6.4582 -52.2510 57.4237
59.4906 38.5797 32.2775
-35.1010 -4.5102 -69.4042
-38.2980 -19.4616 -64.9913
0.3050 -76.1213 16.5774
12.8642 21.5895 -73.7412
-0.0498 34.9524 -69.6253
75.5990 -17.6175 -6.6168
58.0470 -46.7581 -22.6626
-68.2355 32.1515 19.4823
47.3582 61.8383 1.6088
8.9378 -49.3624 59.6056
-41.1446 -6.8049 65.8041
-39.0184 40.8966 -53.6134
-70.0151 34.1212 -1.7278
-19.4311 62.8806 -41.6872
41.4480 37.8768 54.0072
21.9168 37.6829 -64.5679
63.4533 40.1936 20.6763
13.4624 -0.0100 -76.7341
58.0348 -15.6823 -49.5518
24.5039 -20.5696 -71.0339
-40.6675 -55.1435 37.0770
37.8992 56.4887 37.9742
35.2151 -26.1699 64.3770
-69.6107 29.3037 19.1052
1.6900 -77.3106 -9.4648
-26.3756 -42.8372 59.4867
-38.4604 -15.4637 65.9624
-15.2026 14.2014 75.0770
-25.1578 58.6877 -44.6340
2.3222 28.6727 72.4006
62.1096 28.3365 -37.5340
62.2706 -46.7682 2.1157
-17.0256 70.2509 29.0568
-77.2446 6.5255 7.7491
-71.0852 -0.0816 -31.8787
12.7367 -24.4690 -72.8588
69.1799 18.2358 -30.8375
-64.7781 17.9163 -39.3975
-25.9945 54.3273 -49.4185
13.0295 -70.4045 -30.7050
76.5380 0.0587 14.5356
-24.0799 -52.1111 -52.6683
34.9024 66.4307 20.9320
-70.1758 4.1460 -33.5788
65.3790 -26.7486 32.8552
-26.7165 38.4693 62.2551
-11.6974 -5.4037 76.8331
0.2435 76.3424 15.5284
-38.4661 63.5469 23.4841
-49.2893 -14.8764 58.4690
70.8633 -19.3028 25.9837
-7.8408 13.6748 -76.2947
71.1694 14.6737 -28.0883
-59.1936 47.9592 -16.2908
-40.0454 -66.3476 -7.9831
-56.7207 -52.2546 -11.0260
-64.0060 39.4134 20.4738
23.6150 -73.2294 12.2124
48.4168 -6.3436 -60.7036
-55.9055 -23.7453 -48.7862
-72.7349 16.7969 22.2902
56.7748 -42.6464 -32.0509
63.5256 42.3317 15.5528
-39.1080 32.3056 59.1293
-20.8526 -46.1208 -59.2233
77.5099 -0.5950 7.8245
31.6418 52.0457 48.5736
16.9883 -55.6464 -51.8096
8.2525 35.6279 68.7889
-71.4363 30.7581 4.4901
-58.1599 49.3857 15.7427
-24.8683 -13.0074 72.6755
63.6825 38.2073 23.5393
-58.1441 -38.8699 -34.3184
-21.3225 74.2156 10.3322
-7.3959 56.8613 -52.7395
65.6112 -34.6230 -23.7862
-74.8899 -21.4461 0.9646
60.0381 -28.5586 -40.6103
-58.5095 -34.1565 -38.4622
35.8827 58.7124 36.5328
6.8257 -42.7373 64.7788
-42.6059 63.9736 12.7071
15.3631 2.6585 76.3300
-76.8129 -7.6267 -10.5342
77.3871 7.6034 -4.7740
63.9419 44.1816 -5.3637
67.5416 -12.6203 36.7182
-12.4819 31.8864 69.9773
-29.8486 -64.2553 32.3988
15.0815 -76.3879 2.6087
-47.2505 38.8869 -48.2137
27.3081 5.2282 -72.7756
-25.3458 58.4415 -44.8502
63.7343 30.7812 32.5548
69.1679 17.9888 31.0092
63.7348 10.3753 43.5842
-56.9049 -48.6384 21.5753
-9.3218 -9.0233 76.8183
16.0796 36.6066 66.8638
-40.8778 -57.1701 -33.6147
55.8923 -35.2823 -41.2380
10.9897 -36.1062 -68.1537
50.2059 -25.9681 -53.6133
64.4716 -21.2651 38.2173
69.6077 21.9531 27.2432
-38.3993 48.0878 47.7747
41.0713 25.7626 -60.9819
45.6678 -49.7301 38.8681
6.9201 -0.7390 77.5946
-63.5825 18.9936 40.8151
2.9416 -48.6614 60.7682
-70.1293 19.6144 -27.6861
-73.8531 -20.2231 14.3566
-12.3064 54.5223 -54.2700
-13.0733 -75.9315 -11.5263
77.8287 3.2319 -1.2667
-42.3923 -39.1879 52.3121
55.2405 52.9271 -14.7164
-49.8380 -53.1340 27.6099
24.9290 21.3170 70.6646
43.9943 -40.6801 -49.7895
34.6455 -68.1459 15.0063
-76.0299 4.5694 -16.3687
71.1770 18.3836 25.7923
47.0231 -4.9395 -61.9176
65.9258 20.6732 -35.9968
20.0660 32.9780 -67.6695
-38.0869 13.1440 -66.6782
-30.8894 -15.1678 69.8938
-47.5853 -58.6340 19.1586
26.8280 10.0973 -72.4408
30.7906 21.5385 68.2451
-68.8628 -3.8196 -36.2310
20.5823 34.2862 -66.8595
-0.3006 -23.9100 -74.1457
-33.8057 59.3349 37.4954
-10.2947 45.3995 62.4681
-37.8975 -64.2065 22.5977
-77.6405 -4.9845 -4.0581
7.5121 -75.6629 -16.9720
44.7250 56.3265 29.9392
-59.1502 -7.4169 50.1559
-10.7161 -14.9858 -75.6964
-64.3924 -38.8620 -20.3156
-33.3480 -61.5468 34.1945
-19.1236 75.0944 -8.0303
-69.7496 -9.0313 -33.5081
29.2314 72.0721 -4.5269
63.7652 8.9055 43.8641
43.8735 -5.4417 64.1472
57.4882 -45.9112 -25.6249
-6.7298 77.6115 -0.7282
72.3834 25.6968 13.0262
56.5481 -52.7458 -9.4632
18.1152 56.7181 50.2420
50.6392 52.5179 27.3294
-15.8494 -57.1300 -50.5403
59.7090 -47.2961 16.3485
-30.2870 -38.2318 60.7485
43.8398 -62.7577 14.4537
3.5044 -68.2666 -37.3732
70.9536 32.0067 -3.2427
40.5794 -52.5621 40.7419
-45.4383 2.6792 63.2261
-21.0984 -10.2802 74.2869
-16.2386 -74.5549 -15.7238
62.2810 24.2668 40.0195
-37.0690 54.2478 41.8620
-41.6209 5.3391 65.6396
65.8054 22.5876 35.0543
-41.1075 65.9930 -4.9451
-66.0071 -17.2070 -37.6343
-30.0142 11.4811 70.9697
-37.2038 -22.1356 -64.7708
-61.7934 39.0637 26.9253
66.7608 38.7835 -10.4016
-21.7800 -72.6844 -17.6628
-19.3008 -14.5313 -74.0654
11.2316 -45.5314 -62.2101
49.6770 55.4750 22.8927
46.1344 45.1868 -43.5790
8.5380 60.0806 -48.8548
69.2087 -35.1961 -6.3842
21.7663 74.2358 -9.2000
-58.6591 -26.3226 43.9954
73.3445 9.6542 -24.4284
69.7016 13.5921 32.0360
-12.0534 -24.4703 -72.9745
-18.0907 53.6278 53.5364
-60.7513 -32.7727 -36.1191
-45.8776 38.0416 -50.1741
-44.0276 -47.0771 43.7570
37.6135 -61.1459 -30.2617
17.5218 41.7177 63.4191
-23.6525 5.5963 -74.0176
-47.3592 -38.5253 48.3970
-20.8346 -46.6497 58.8140
-46.7498 -39.4685 48.2292
-74.3707 23.1380 -1.7279
46.9886 -17.0827 -59.7463
64.9591 22.6947 36.5325
-15.4077 -51.4317 56.4513
-40.1632 66.6571 3.6213
-13.2448 -49.9625 -58.2896
-61.3801 -43.7142 -19.7715
-28.4907 -30.0540 65.9879
14.3062 62.8509 43.7544
11.6849 24.9950 72.8565
47.5880 -60.8928 -9.8396
29.6224 53.5340 48.2285
10.6411 -0.7650 77.1722
35.8677 -68.5993 8.7751
56.4689 -37.2245 -38.6646
27.4212 -13.5175 -71.6569
-46.5853 4.5424 -62.2779
-69.4788 -27.5147 22.0225
50.9385 20.5998 -55.2294
68.4020 -0.5205 -37.2862
73.1647 -23.5728 -12.6729
-30.4569 71.3475 7.1600
67.2516 17.5566 35.1902
48.3068 -48.7276 36.8976
69.6927 2.8488 34.7011
-38.1954 -33.0362 59.3219
-6.8629 53.9639 -55.7687
-54.3045 -43.8401 34.6183
3.1415 64.3813 -43.7554
42.6567 -40.7256 -50.9037
-63.7376 -42.3568 -14.5871
46.4832 -0.1203 62.5193
15.1236 28.2569 71.0083
71.1106 -28.8908 13.3402
9.7266 66.9491 38.6339
71.0675 -17.4698 -26.7129
-13.7844 -65.1405 -40.4483
-32.1246 -16.5555 69.0166
8.0003 43.8564 -63.8903
21.4435 53.9334 51.9685
62.4073 -46.4579 4.0440
27.7403 -72.7999 0.0839
-7.0432 72.7884 -26.8628
-7.3604 -71.9919 28.8505
-65.9489 -30.5164 28.0865
-73.2465 -25.5831 7.0577
-57.0325 -38.3356 -36.7019
20.0707 -73.4121 -16.6492
-48.9543 -7.6552 -60.1185
-39.6671 20.0596 63.9804
15.3425 74.8091 15.4133
8.2861 -77.4615 0.6496
0.3041 1.3308 -77.8941
15.5453 -47.1054 60.0731
-61.9150 -47.2845 0.2550
69.8772 20.4558 27.7145
21.1193 71.5060 -22.5883
36.6229 68.7229 2.2989
-21.6612 58.8911 46.1735
15.0547 -76.1548 -6.5694
-21.7694 46.0769 -58.9269
-69.6663 -19.5450 -28.8784
10.0939 63.4127 44.1169
-33.9836 68.0955 16.6576
59.0638 -47.1656 -18.8742
1.6713 -62.0925 -47.0222
-9.2239 -10.9985 -76.5723
9.4981 -75.0984 18.4222
-9.8062 75.2359 -17.6849
3.5331 58.1354 51.7413
46.2074 45.2349 -43.4516
11.8757 -76.9810 1.5018
75.4084 -15.3278 -12.1653
-13.0566 -75.9858 -11.1826
31.8822 -56.1588 -43.5784
71.1365 -25.0364 19.5482
-31.4041 59.2995 39.5817
-77.2416 -9.4665 3.6723
-58.9862 -8.7168 -50.1399
-72.3264 22.5077 18.2116
-31.1059 29.2157 65.1784
-7.1631 34.5427 69.4612
75.1608 -18.1171 9.5910
30.2832 50.4153 -51.0939
44.1233 -39.2195 50.8363
8.1891 44.3536 -63.5221
-47.8204 -57.0665 22.9343
-34.6605 5.3373 69.5667
35.1423 4.8174 -69.3626
75.6155 -5.3940 17.9599
-77.7170 2.2142 4.9523
-22.0765 58.5426 46.4193
27.1712 -68.7046 24.7136
12.1907 65.8506 -39.8051
-8.7896 71.1389 -30.5181
-5.7736 -77.6802 1.3484
6.3394 71.0398 31.3451
55.4653 -49.8025 22.6424
-45.6781 27.0186 57.0339
-30.8448 52.8622 -48.2031
-57.0561 41.5996 32.9156
-71.5602 -28.0049 -12.8150
-17.5238 66.6597 -36.3147
-28.8889 71.1172 -13.3091
-68.4977 3.6316 -36.9355
-40.5714 -66.1941 -6.4543
31.0957 2.3350 -71.3930
-59.2887 46.8210 19.0263
-15.2546 -7.4325 76.0356
-14.9775 76.3042 4.7650
-58.0555 -43.3240 -28.6698
52.7605 -37.5877 43.2765
1.7569 -21.5951 -74.8327
49.3092 48.7182 35.5598
65.4730 -35.9441 -22.1512
-49.2134 23.9055 55.4610
-66.3250 34.9361 -21.2089
67.3302 -4.2940 38.9559
-5.2267 -77.4754 6.2936
73.9781 8.7330 -22.8109
51.2367 47.8944 -33.9159
23.7387 -73.3873 -10.9607
-1.3698 69.6766 -34.8231
2.3269 73.6901 -25.1737
-66.4411 -32.7218 -24.1706
-29.1589 -71.2197 12.1188
16.9229 75.8106 -5.9775
-67.8877 38.2016 -1.1193
33.1274 70.2342 -6.2524
68.4836 0.3206 -37.1383
35.1824 63.6909 27.8393
-47.0744 -7.0481 -61.6740
36.1769 55.1642 41.4427
30.0219 -71.7890 3.7923
-50.5322 -9.7124 58.4938
28.8408 72.2638 -3.9390
43.6795 62.9151 -14.2531
2.7045 69.9630 34.1646
-73.1428 13.0537 23.4327
29.2107 35.6525 62.8092
51.2426 3.5479 -58.5745
24.7279 -61.2857 41.2547
-46.7771 53.7563 -31.4886
-44.5826 -62.9268 11.0439
-72.0989 5.0178 29.0848
-56.6140 34.2229 41.1462
71.4295 25.6440 -17.5946
-35.3267 67.9028 -14.5118
-0.8371 -54.1626 -55.9917
-39.1593 60.9899 28.5681
-50.7569 -36.7113 46.3183
63.0277 45.2307 -7.1455
-67.7843 -14.3260 35.6288
31.8276 -64.1972 30.5792
-28.8055 69.2516 -21.0672
-71.0408 -24.5510 -20.4892
27.5329 -72.8461 -2.1786
-12.5112 -74.4434 -19.2617
50.2742 -31.5606 50.4558
67.8571 26.2900 -27.8139
-0.3206 22.6827 -74.5302
4.4886 2.6974 -77.7299
-51.9693 57.1201 10.2882
30.6904 55.5683 -45.1621
-52.0846 -10.2115 -57.0287
-77.0194 -6.3936 -9.8233
-50.8515 -20.5578 -55.3251
77.0465 6.0909 -9.8032
57.4677 49.5039 17.7816
-62.9141 10.9255 44.6298
11.6987 -70.7146 -30.5278
46.7884 50.9170 -35.8841
7.3367 -75.4971 17.7684
-5.7210 -10.1032 77.0361
32.2639 1.6917 70.8910
62.4506 43.7641 15.9370
-2.4889 72.0818 29.4514
24.4954 73.1412 10.9411
-16.1564 -62.4122 43.7384
-49.7053 -20.0444 56.5417
-67.0422 -4.8502 -39.3850
41.8859 -47.5547 -45.3154
53.7129 -16.6485 53.9176
57.2238 -52.3566 -7.3199
-77.6005 6.7424 1.4370
-47.6275 -59.7092 15.3558
22.6619 67.9841 30.5608
-51.8521 -6.7536 57.7504
-68.6512 -34.2023 13.6591
13.1001 2.6965 -76.7494
-12.5423 42.2155 64.2643
-33.2869 26.6808 65.1880
37.2477 -64.8765 21.7489
-53.5499 -11.4102 55.4218
21.6462 -60.1838 -44.4827
23.1193 -47.9378 56.8931
-40.3488 52.5684 40.9622
-52.6686 10.5555 56.4265
29.5657 -52.8064 49.0583
-52.8691 52.2302 -23.3716
-36.4531 44.7740 52.3051
-40.6288 66.4645 -1.0643
-37.3696 46.8248 49.8027
58.7194 -51.1789 1.4559
-60.5283 -6.9465 48.5534
58.5847 -49.1222 -14.9731
-72.4335 -15.1630 24.3483
28.5336 -66.6709 -28.4636
-68.5020 1.1870 37.0868
-27.5114 71.5674 13.8056
15.3464 63.5152 -42.4226
52.9255 -19.2934 53.8146
73.0026 -25.4397 -9.6331
61.8502 29.5016 37.0617
39.6251 -15.4294 -65.2775
-71.3325 -19.9839 24.1179
-55.4350 42.0577 -35.0354
36.9648 -19.3540 65.7905
9.2894 5.8926 77.1255
-29.0868 -3.1153 72.2054
8.3797 -37.2969 67.8829
-48.8565 -16.7011 58.3393
-41.1276 20.3168 -62.9691
-56.1484 14.9326 -51.9012
-59.2647 47.3853 17.6549
-63.5748 -39.1236 -22.2924
52.3918 -39.3376 -42.1546
6.3830 77.0766 9.3707
39.3629 12.6083 66.0375
-14.8318 38.8299 65.8909
-69.9379 29.9596 -16.7475
16.6478 43.5388 62.4227
69.9487 22.8685 25.5652
-56.1000 -50.8946 -18.2179
62.9349 -43.5407 14.5866
-68.2029 32.4972 -19.0172
-6.7498 75.1213 19.5088
-25.4286 50.4738 53.6204
18.2266 18.5181 73.4454
24.3795 13.1806 -72.8098
-49.2313 -4.1908 -60.2335
45.8096 46.5435 -42.4800
-45.6613 54.3120 32.1655
29.3678 -50.1334 51.8993
73.0166 2.0272 -27.0892
-66.2744 15.5012 -37.9049
53.7736 -36.3076 -43.1221
-59.4358 48.2003 -14.6108
-23.2811 5.6603 74.1304
-20.1557 -46.7425 58.9766
-60.3639 7.1528 -48.7277
31.5373 -48.3392 52.3267
39.0592 -62.5143 25.2132
64.4419 30.1706 -31.7227
6.9276 6.5725 -77.3186
-26.0056 -73.3366 3.8484
67.2819 -38.5099 -7.7137
20.0632 -47.1779 58.6607
-46.1807 -4.5646 62.5769
-40.8759 13.5499 -64.9224
-32.9666 30.5414 -63.6379
-67.9530 -21.7474 -31.2858
19.4592 -6.6206 75.1456
43.0148 63.9437 -11.4145
-49.5502 -40.8987 44.0618
-37.3538 45.8751 -50.6905
7.6016 -76.4562 12.8853
44.4776 -62.7908 12.1827
-38.8572 58.0074 34.5633
-19.1528 -75.2679 6.1051
63.6329 -16.5055 -41.8066
54.8047 49.1907 25.4180
-67.4539 -9.9552 -37.6859
43.8277 -62.3028 -16.3355
43.9020 53.7302 35.4266
-11.6528 37.3068 67.3927
57.3628 -39.5681 -34.8315
23.6603 -19.5828 -71.5965
53.6910 -48.3493 -29.1373
76.3663 -4.6589 -14.6916
59.7698 -49.6101 -5.9814
-0.2831 64.0852 44.2987
-73.0132 -21.1995 -17.0006
-22.6423 0.6803 74.5401
-45.7634 -1.0057 63.0401
25.2481 17.9788 -71.4749
-43.9602 48.2613 42.5171
-63.2372 38.6785 23.9663
7.2969 -61.7000 -47.0025
-76.6178 -8.6788 11.1243
-29.8838 -44.8774 -56.2347
48.1388 -37.8641 48.1490
71.2481 0.8781 31.5008
-57.2826 -52.5632 -5.0174
68.0824 -4.3929 -37.6145
19.7319 -31.5620 -68.4387
-35.8799 -11.0876 68.2573
69.7485 -2.4207 34.6215
-9.4398 -71.9387 -28.3737
-2.4844 -1.9074 -77.8431
70.2066 -30.2557 14.9997
8.5378 27.0706 72.5510
46.5119 -45.5366 42.8069
-73.8244 -0.5071 24.8810
65.9358 41.2766 4.2520
13.7767 -62.0999 -44.9796
32.9437 22.3418 -66.9695
-69.9935 7.8228 33.3027
-43.1438 -46.0563 45.6815
-38.8363 -39.8633 -54.5163
-17.9393 -36.2455 -66.5869
2.0948 72.3270 -28.8752
74.2219 23.3479 -3.9180
-34.7683 68.3752 -13.6145
2.2563 65.0861 -42.7559
49.0092 22.7147 56.1382
-45.4349 11.3120 62.2661
0.8774 70.2047 -33.7623
-46.9604 56.7089 -25.4596
-51.1449 55.8769 -18.2023
19.4577 67.9415 -32.7827
-68.9855 -24.8306 26.3402
9.4544 -75.6756 15.9118
30.0159 -51.8037 49.8476
7.6373 51.6961 -57.7801
-65.8992 41.3369 4.2318
24.2138 -48.3306 -56.1000
-6.6869 -17.1009 -75.7113
64.8604 -21.7940 -37.2492
3.0465 -26.8432 73.0720
1.1932 -71.0949 31.8348
-11.2625 -25.7675 -72.6537
34.2995 -62.6930 -31.0241
11.3760 33.7339 69.2963
-35.1390 0.4863 69.5297
-14.2800 -69.3378 32.5225
-25.6367 63.5471 -37.0659
46.2322 58.6175 22.2695
17.3658 -2.3253 75.9104
-10.2541 75.1898 -17.6269
66.4683 -2.2484 -40.5743
55.9569 40.1602 36.4053
4.3863 68.5246 -36.8036
-60.4843 -0.2454 49.1015
-23.9624 73.9639 4.9503
-42.1789 61.3499 22.9454
-0.9175 -41.1889 -66.1210
-60.2763 -36.9070 32.7719
-76.6018 -11.0593 8.9004
59.7985 -20.2445 -45.6471
-20.2857 72.3174 -20.6893
35.9069 57.9967 37.6357
-32.1336 61.4952 -35.4279
55.6941 -43.8115 -32.3742
56.0399 -31.9976 43.6467
75.5803 13.0103 -13.7010
51.6450 -12.5621 56.9592
-27.3518 70.6996 -17.9669
9.4676 74.5142 -20.6726
21.8519 -72.2296 -19.3580
39.3512 -64.6019 18.6398
-2.0581 -0.4571 77.8776
-61.9935 -44.1201 16.7206
40.9993 52.0810 -40.9389
45.0343 -47.0045 42.8001
-24.5083 -72.4700 14.7242
-50.2218 -5.6028 59.2937
7.4368 -9.6893 -76.9427
37.0665 -12.2306 -67.4229
20.6743 -73.8708 13.6031
27.4224 56.6389 45.9282
-42.5313 -61.3304 -22.3390
48.8086 59.4440 -12.3893
-17.3224 31.0100 -69.3374
60.0339 -29.2677 40.1085
-4.0804 72.4391 28.3775
-25.6658 -63.8786 -36.4713
-62.8319 -45.8047 -4.8420
10.8260 -75.8810 -13.9366
-35.6501 17.9688 66.8996
31.2283 -68.6231 19.6219
-73.0663 21.1127 -16.8797
14.8122 41.1954 64.4430
-40.3058 -58.5258 -31.9301
-60.1071 43.7734 23.2463
57.9872 -9.1495 -51.2165
-76.0487 -0.3694 -16.9061
-11.6482 66.4857 -38.9015
-33.9911 -68.7205 -13.8367
-33.2451 23.6389 66.3726
47.7623 30.6427 -53.3774
45.8908 -49.8968 -38.3889
15.4535 26.0375 71.7816
27.5936 -53.5141 -49.4388
11.6672 -74.8565 18.1586
15.3305 51.7428 56.1874
-40.8600 48.5570 45.1890
-65.6329 -41.1276 8.3786
-13.6425 -67.6649 36.1206
-15.9213 20.9624 -73.3243
-58.3611 43.9944 26.9785
-46.2447 5.1350 62.4854
59.0314 -44.6922 -24.2335
18.3150 53.4818 -53.6061
12.9665 16.7636 74.9681
-73.7089 21.4173 13.3286
45.0478 48.3540 -41.2547
-19.4074 37.3371 -65.5642
-75.4787 -9.4200 16.8403
18.9055 48.9192 -57.6095
33.7117 32.9868 62.0060
-73.3501 6.4866 25.4370
13.1572 -22.7814 73.3298
33.9661 -43.2602 -55.1744
6.2962 -62.2238 46.4534
65.2518 27.2303 -32.7120
-68.3044 26.3221 -26.6650
-54.0428 52.7596 -19.1092
-71.8539 28.1594 10.6500
55.4680 26.2899 47.9740
-17.9394 -54.1069 53.1034
-47.3587 5.4496 61.6183
-47.8509 -46.9006 39.7490
17.3245 74.7450 -13.5061
46.7863 42.2273 -45.7958
10.2858 -65.0578 41.6058
-62.9320 -23.2722 -39.5895
74.3988 -16.4915 -16.1927
-59.3080 1.0315 -50.5060
26.4725 2.4989 -73.2279
35.3163 39.1382 -57.3614
54.2951 -35.4821 43.1557
69.8534 34.4875 -0.6893
6.7608 -73.5758 -24.7034
-13.5789 68.3535 34.8249
38.6923 -18.8282 -64.9443
-25.8058 -60.2492 -42.1124
-56.0169 15.3850 51.9111
27.4238 -64.5158 -33.9854
8.3677 -52.5755 -56.8785
18.2456 -55.4519 51.5902
-6.6119 -75.6071 -17.5845
-53.3106 25.8429 50.5913
10.3839 -0.9141 -77.2056
49.1932 -38.2083 46.7922
56.8274 52.2063 10.7011
-66.5797 -21.2840 34.4020
0.2838 74.5836 -22.5069
22.2739 -21.7439 -71.4173
10.2600 14.5890 75.8370
8.1551 18.9517 -75.1245
9.1892 24.2409 -73.4663
-49.6259 59.1748 10.2455
-52.2683 34.1516 46.5946
-9.5367 28.8657 71.7299
-68.7196 6.1406 36.1839
-18.9126 -70.3541 -27.6038
55.5874 -53.2342 -12.0632
-20.8347 17.0257 73.1123
69.5954 -9.5551 -33.6829
-64.6155 -18.3289 -39.4748
-13.4159 8.9088 76.2234
-70.8283 -16.6369 -27.8556
-63.9354 -44.1015 -6.0568
36.5665 55.3353 -40.8688
-67.0994 12.5278 37.5510
57.5185 41.0154 -32.8439
42.4661 -64.6369 9.3844
27.6140 -66.7140 29.2586
57.2088 -20.2299 -48.8596
-26.3676 44.3625 -58.3616
1.0290 -71.4914 -30.9400
-58.4220 47.9113 18.9929
-72.1012 -6.2823 -28.8325
19.5084 21.2996 72.3541
-1.5555 -38.4446 -67.7418
-61.8273 -25.3897 40.0263
-70.6678 30.4521 -12.1692
39.4473 59.9578 30.3040
-31.7258 31.7930 63.6556
14.3167 42.1070 63.9640
58.0131 -27.6276 44.0518
42.9504 -47.7111 44.1392
52.6088 -46.6769 33.5103
8.7800 -73.7785 23.4307
-74.2662 -20.4165 11.7074
56.2924 -53.0214 -9.4473
-72.8198 26.4267 -8.2623
27.0095 -50.5698 52.7498
11.5267 -18.8903 74.6971
30.7893 47.9447 -53.1289
18.5744 -67.4859 -34.2054
6.5767 77.6010 2.0486
65.7119 16.0675 -38.6412
-1.4305 61.1626 48.2333
37.9316 58.3644 34.9878
30.2152 -43.9331 56.8004
-54.7142 -53.9311 12.9286
-44.9088 14.1112 62.0761
-51.0266 -18.2604 55.9661
15.8388 -40.6160 64.5665
-43.5409 -64.1907 7.2871
34.6224 -26.9163 -64.3907
-1.0147 75.9787 -17.1923
16.3074 65.3811 39.0992
65.8499 24.6786 -33.5278
-43.8453 -64.2753 3.9551
-36.4288 -43.5924 -53.3104
-55.5688 48.7687 24.5578
-40.1581 48.2826 46.1029
12.6170 -75.5081 14.4463
2.4905 -11.7146 -76.9800
-44.8061 -28.0193 57.2424
-70.2737 -33.1814 5.4737
62.4510 46.3980 -4.0564
46.5900 -49.7891 37.6799
58.0943 8.4116 51.2216
-75.7854 -9.1534 -15.5611
-44.1129 27.0989 -58.2157
-44.8147 50.8248 -38.4428
-53.5688 17.5359 53.7795
46.4168 9.3727 -61.8627
67.1191 1.8690 39.5082
23.9228 -3.6640 -74.0516
-64.1979 11.3372 -42.6550
65.8548 24.1525 -33.8993
32.7324 61.4123 35.0212
-2.4874 67.2853 -39.1901
3.5627 64.7732 -43.1404
38.5452 -53.4931 -41.4984
-50.0668 24.3361 54.5017
-27.4229 46.3359 -56.3057
-49.6335 -54.0507 -26.1611
42.1662 -64.2749 -12.6537
-56.9346 -31.1069 -43.1297
62.3658 -46.6200 -2.5374
-57.7304 -12.9699 50.6789
45.5676 8.0097 -62.6801
50.5020 55.8517 19.9874
-30.9430 22.0321 68.0182
-7.4653 68.9697 35.4515
-50.0822 36.6399 47.1026
-22.4882 -72.6149 -17.0506
64.2974 7.4343 43.3581
24.3464 54.8944 -49.6308
-61.1065 -2.4809 -48.2618
8.0576 -58.7735 -50.4986
69.8523 31.3796 14.3298
-75.6565 2.1147 -18.4658
-7.3849 -77.0750 -8.6176
76.0903 -10.5838 -12.9462
68.2534 -30.5745 21.8182
-61.1527 48.2665 0.2159
-0.9551 74.5253 22.6810
-10.9472 43.7256 -63.5420
23.8418 -51.9058 52.9784
29.5676 52.3370 49.5575
-64.7466 -42.1987 -9.8240
