ply
format ascii 1.0
element vertex 1024
property float x
property float y
property float z
end_header
-4.4240 0.2144 40.6671
38.8766 7.6969 -10.1389
25.4817 -23.5990 21.6148
3.5047 40.7568 0.1761
-19.0507 34.8382 -9.8385
-23.3971 -20.4201 -26.6275
10.9251 32.7537 21.9377
-5.2861 31.1629 25.9684
-0.1988 17.8578 -36.8034
-15.7755 -35.9480 -11.5023
30.3311 20.6717 -18.0592
4.1715 -39.2705 -10.6702
5.2582 -0.2844 40.5672
-18.4182 -34.5943 11.7232
-37.1624 16.8985 -2.6124
-31.4237 -20.7217 -16.0185
-19.9405 -16.4849 31.6868
-30.3601 -10.8016 -25.1996
-21.6304 19.8915 -28.4584
-21.5415 33.7706 8.3028
-23.4502 33.4789 1.6383
-20.4827 -20.1933 -29.0881
24.0858 -29.9689 -13.9704
7.2225 35.6826 18.6552
-12.3222 21.2863 32.6877
22.9318 33.2817 6.3158
36.3315 14.5170 11.9460
-10.1963 37.3437 13.2254
-23.8169 23.9652 -23.0619
-21.9763 28.8632 -18.9047
-27.7890 -13.8282 26.6455
38.1087 -9.6112 -11.3481
-5.2616 25.1079 31.8644
38.3252 13.3102 -5.2390
37.8604 15.4634 0.9499
28.5108 25.0139 -15.3254
35.6016 -18.3518 8.3165
-23.1090 -0.5905 -33.7499
-0.4999 16.3981 37.4738
10.8678 -39.3199 3.0445
-29.0094 20.5632 -20.2247
-27.5990 -9.2247 -28.7512
27.8650 -20.6161 -21.7243
-10.1965 -3.7318 -39.4403
12.2564 26.1450 28.9767
16.7214 36.0351 -9.7620
38.7921 6.3123 -11.3469
13.4191 30.3253 23.9527
37.6467 -14.8562 -5.9536
-5.2693 40.5345 -1.6188
31.6929 1.4065 25.8265
-14.3012 35.7499 13.8148
8.9127 -38.2724 11.3675
8.7332 -38.0354 -12.2665
-36.9422 -17.5613 -0.5507
-28.6742 -26.9574 -11.1586
12.0872 3.8316 38.8928
17.5115 -35.2292 11.2107
9.2841 38.5931 9.8897
11.5527 -22.3056 -32.2866
-26.7881 -28.5956 11.7524
37.7160 14.7679 5.7306
5.0462 33.6780 -22.6662
-3.7330 -31.3709 25.9877
-25.0617 -18.1559 26.7527
37.5537 -0.4513 -16.2156
-35.8368 -7.9789 18.0413
14.9215 26.8046 -27.0609
36.8608 -17.7247 -0.7383
36.6370 17.8590 -3.4952
25.6516 -3.2867 -31.6958
38.1384 -4.2924 -14.1586
-25.4270 -27.0572 -17.1700
0.0194 40.3027 7.0084
-35.6934 9.7400 17.4512
-14.5778 -4.6995 37.9319
31.4069 -9.3127 -24.5012
31.1859 14.4556 -22.1789
6.3705 -5.6323 40.0140
-34.8862 -17.9428 11.5949
-12.2489 4.7332 -38.7426
0.6220 -2.2699 40.8398
22.8743 26.8705 20.6923
4.0807 -34.0449 -22.3098
-33.7524 -22.3530 5.8779
-28.3868 -24.4707 16.3953
-38.9631 8.4342 9.1743
-16.0858 2.1951 37.5481
10.3553 -39.3456 4.2571
-7.2644 -29.4913 -27.4029
-23.2584 25.8527 21.5433
15.9475 -6.4427 37.1160
4.1560 11.5717 -39.0161
-39.3910 3.9363 -10.3093
10.7727 -20.9079 -33.4699
17.1976 36.5611 -6.3995
31.5315 -21.6133 14.5622
-1.0734 -25.8914 -31.6530
-38.4196 13.8642 2.2687
-7.8065 6.4712 -39.6309
11.4729 8.8805 -38.2484
27.6868 -16.0783 -25.4629
-22.5308 -19.8704 27.7662
2.8494 -5.1817 -40.4779
-4.9697 -40.5895 -1.1057
5.4213 21.0182 -34.6738
35.4120 -5.6915 19.6729
7.8913 38.8755 -9.9928
33.0929 22.9277 7.2536
1.6144 -3.6358 -40.7137
17.7974 24.6186 -27.3972
33.4692 23.3468 2.8581
-0.7417 40.4039 6.3564
34.5466 19.5047 -9.9764
-2.8685 20.0639 -35.5337
-35.2415 -20.6249 -2.4653
-25.9708 -27.0310 -16.3790
-16.0736 31.3707 -20.7592
-25.2227 -31.6132 6.1522
34.8887 14.0204 -16.1131
-14.4795 -34.7522 16.0018
19.3460 -8.2396 -35.0895
-23.0198 26.4528 -21.0658
15.7470 34.0387 16.3347
0.7945 -36.6437 -18.1669
-12.3855 -20.4340 -33.2037
-28.4852 -28.2356 8.0481
-18.0024 8.7727 -35.6705
-10.2427 -39.5020 2.8475
14.8692 -32.4643 19.9600
-13.3397 -38.6714 -0.0313
-28.5179 29.2866 -1.5650
6.3678 -37.7957 -14.2956
5.6772 -29.1736 28.1087
-21.2141 20.9003 28.0459
40.8669 0.2790 1.8027
29.5130 -20.7436 -19.2902
39.3531 -11.1257 0.9916
14.9699 -36.7223 -10.0399
-35.1860 20.1235 -5.5153
34.0784 2.8263 22.4523
-19.6999 18.6721 30.6055
-29.7498 -7.9855 26.9186
-13.4504 22.3680 -31.4990
-10.5984 -21.3626 33.2376
-3.0992 -11.0954 39.2519
-17.9757 36.5095 4.1667
12.6193 38.9113 -0.3072
-23.9386 -32.8383 -4.6927
2.1538 27.7903 29.9414
13.7012 25.9090 -28.5382
7.8295 32.7419 -23.2400
-33.5067 16.4499 -16.7371
21.8742 17.7128 -29.6852
-20.9588 -11.9313 33.0424
-27.9383 7.5566 -28.9098
33.3616 -18.5735 14.6786
-13.5521 -15.8298 35.2021
-0.4223 18.2467 36.6102
-40.3007 6.3026 -3.0913
21.8897 29.1415 18.5754
13.2586 -38.3526 -5.1686
33.7281 -6.9248 -22.0882
-13.3037 -38.4721 4.0423
17.6232 -13.6258 34.3102
29.2141 14.3806 -24.7622
-19.2658 20.8715 -29.4387
30.2254 -9.3864 25.9181
35.9105 -8.6526 -17.5784
7.7576 30.6406 25.9693
-16.7929 -19.1923 -31.9857
-40.5715 -2.9383 4.3298
15.2610 36.9396 8.7178
-17.3105 -17.5531 -32.6445
-30.8092 2.2737 26.8151
-35.4158 -19.6075 5.8899
10.0602 4.8139 39.3579
22.6957 -29.7022 16.6167
-2.4000 -30.8260 26.7849
16.8439 -33.1575 17.0380
-0.2184 -31.1842 -26.4750
-24.6650 -32.0746 -6.0235
-9.6437 -36.0551 -16.7468
6.9810 -35.9777 18.1741
30.1206 25.0316 11.8150
-8.6708 25.0229 31.1785
17.0057 -37.0378 3.5271
18.6343 -36.2975 2.9462
13.9229 27.6339 -26.7573
-28.8092 -19.3771 21.6330
-13.4638 17.8385 34.2628
-10.3378 2.1766 -39.5199
-17.6867 -34.8931 -11.9617
-15.0435 -37.8392 3.9134
-0.3142 -27.1305 -30.6148
10.2765 -38.9921 6.8877
14.1709 18.9524 -33.3680
25.1144 23.3286 -22.3265
30.1652 -1.0880 27.6099
13.0168 20.4095 32.9764
30.1613 -24.1749 13.3902
-40.8789 1.5288 -0.1055
-14.5994 -4.3765 -37.9623
24.3134 31.4898 9.5225
-0.8046 20.3880 -35.4558
-8.0103 -10.8353 -38.6246
27.4685 12.8444 27.4578
38.9310 12.1626 -3.1423
-18.9471 -14.6757 33.1520
-39.1900 -1.9167 -11.5716
-24.4798 -31.8453 7.7487
14.7558 19.2838 -32.9216
-40.7629 0.0472 -3.4367
28.7518 -27.2849 -10.1141
4.7359 -24.2989 -32.5663
-19.7523 -28.3960 -21.8390
-27.9134 -16.4984 24.9413
-12.6132 -6.4812 -38.3710
28.8679 -24.9701 14.7162
-0.1630 -40.4278 6.2447
27.2013 -30.3895 3.1614
18.1174 -13.2659 -34.1936
-35.6659 1.3294 -19.9901
27.8542 -19.0836 23.0952
-29.9148 -16.5913 -22.4336
8.1373 31.4161 24.9046
31.5716 -22.1231 13.6833
-16.5280 13.7069 -34.8192
18.9954 35.7011 6.1675
33.7424 -16.4079 16.2990
-1.7000 -40.8016 2.4011
23.3220 -8.6204 -32.4839
-39.0247 8.1611 9.1598
15.7851 20.3253 -31.7984
-35.5617 -12.9221 -15.5503
21.8791 31.7561 -13.6486
-10.0371 -12.9159 37.4949
16.0322 34.9144 14.0494
20.2300 32.5356 -14.3390
37.0768 -5.9299 -16.2350
-10.1472 5.2512 39.2796
-14.2541 38.2854 2.1165
3.4362 -10.8536 -39.2915
0.1132 -9.5771 -39.7705
7.7737 9.7754 -38.9543
-12.0499 -16.5899 35.3978
1.4528 19.3195 -36.0288
19.2141 34.4123 -10.9563
38.0635 11.0259 10.1501
-11.0018 -21.6974 32.8879
14.0267 3.2153 38.2929
30.3003 -24.7117 12.0270
12.9813 23.6279 -30.7674
-1.3852 -40.5313 -5.3596
-16.3308 -33.0097 -17.8072
14.6718 19.3910 -32.8962
9.8169 -29.6691 26.3970
-11.2239 2.3047 -39.2701
19.9841 33.6697 -11.8497
21.4081 -4.1719 -34.6081
34.0557 -16.1866 15.8630
-31.8235 5.8635 -25.0263
22.2806 -6.4624 -33.6933
-31.4207 0.7586 26.1838
3.4837 21.9221 34.3615
23.6554 -6.9557 -32.6415
-23.2732 13.9661 -30.6061
-18.3387 5.5353 -36.1453
-30.9431 -25.5500 7.9468
-13.1689 2.3498 38.6586
15.2375 21.7808 31.0941
-7.5185 34.1584 21.2157
-39.0033 -9.7405 -7.5695
-39.8767 4.5568 -7.9066
-29.8763 4.7205 27.5418
22.0930 -32.2755 11.9842
14.5202 -37.7241 -6.2840
-10.7715 16.5713 35.8161
-36.4997 -16.1932 8.8873
-14.7238 -28.0585 25.8720
-9.2100 -5.8517 -39.4254
35.3316 -0.4529 20.6131
31.2192 9.2490 24.7639
-3.1399 38.2982 14.0292
14.6464 -33.6731 -18.0287
-29.6767 20.2615 -19.5497
23.7555 -30.6287 13.0761
-38.4849 -5.4678 -12.7453
22.1246 14.5977 -31.1582
34.3072 -21.6077 -5.4362
28.4132 15.5810 -24.9670
-8.9948 -31.4105 24.6151
8.8843 6.5534 -39.3897
26.9601 -26.0883 -16.3089
-38.4116 12.3211 6.7950
-5.2515 40.3925 3.7812
35.8147 -6.1447 -18.7877
16.9695 -35.7567 -10.3404
-1.0966 39.2630 -11.4300
34.5525 -21.8987 0.0350
18.9265 -6.0688 -35.7545
-38.2674 -14.3303 -1.9171
32.8638 -24.2607 2.1955
12.7659 -14.7715 -35.9480
27.6968 -4.0692 -29.8288
-33.9332 -13.0543 -18.7497
35.2050 10.2150 -18.1575
-31.0517 0.4319 -26.6277
7.1733 36.3690 -17.2995
-15.8752 -37.6790 1.3031
-2.7173 -21.4680 34.7156
-28.3233 -28.2434 8.5750
-5.0859 -2.7264 40.4985
-24.3933 -5.3300 -32.4035
6.0874 25.7969 -31.1591
35.6500 20.0562 0.5068
-30.2808 -12.6119 -24.4426
-37.5338 -15.1035 -6.0440
-3.8781 -1.5561 -40.6936
23.4373 26.6826 20.3018
27.7800 19.9431 22.4494
-34.3736 -20.7900 7.7241
26.4104 29.9132 9.0070
-17.7923 -24.2994 27.6839
31.0588 -2.1732 -26.5340
38.5085 12.9196 -4.8587
-14.4790 17.1582 -34.1962
-25.6126 27.7169 -15.7861
2.0070 38.8706 -12.5888
12.8944 31.4089 22.8176
-38.2917 -6.3744 -12.9052
-9.1320 39.8569 1.2094
-39.5301 7.2634 7.6188
-1.5081 -12.1340 39.0374
25.8418 -31.7114 -0.1389
-19.9463 -23.5259 26.8720
-32.1765 12.2475 -22.0929
-26.7543 11.4373 -28.7545
-31.7742 10.6095 -23.4791
-21.6757 18.9819 29.0393
-9.4296 -14.1094 37.2214
13.5450 -31.4426 22.3903
-35.1771 6.4176 -19.8700
-28.8119 23.5254 -17.0252
-20.7777 32.1180 14.4965
15.5334 -1.1922 37.8249
26.5773 -8.9211 29.7908
-40.1295 3.9029 -6.9149
25.2972 23.1605 -22.2951
35.3806 7.6384 -19.0603
-20.1946 -3.5423 35.3986
-32.4405 15.9487 19.1490
5.2085 9.1688 -39.5251
6.4454 30.6521 -26.3123
25.5264 20.6339 24.4147
-12.0143 19.8521 33.6894
1.5935 1.1731 40.8597
-15.7029 5.5830 37.3588
12.5631 -21.1142 32.7076
9.0464 27.2291 29.1576
23.6303 32.9632 -5.3350
22.2712 21.3012 -26.9013
-14.6149 -1.4897 38.1787
-29.9043 -16.9783 -22.1562
-31.2133 -1.1416 -26.4169
-6.4472 -30.8150 -26.1209
35.9559 -7.2106 -18.1275
-23.7029 -12.1005 31.0673
1.8979 -1.1977 -40.8460
6.8222 -39.0483 -10.1052
-7.5915 -15.2748 37.1817
-6.8970 -28.5668 28.4569
36.6551 1.1208 -18.1267
6.3915 8.4289 -39.5162
15.7516 10.5863 -36.2387
-36.4081 -18.6506 0.1791
-14.0400 9.6757 -37.1845
17.9389 11.3345 34.9736
-28.1706 -23.5900 -17.9822
33.1812 9.6006 -21.9150
37.6299 5.1336 -15.2007
22.4079 1.7162 -34.1814
-15.7733 27.6507 25.6918
7.6805 32.4587 23.6827
-13.6127 31.9494 -21.6185
-37.4181 -4.2251 -15.9833
24.5033 -5.9450 32.2129
-14.8801 33.5588 18.0504
-36.5634 18.3288 -0.7745
26.6234 -21.2278 -22.6717
11.4562 2.3546 -39.2000
-10.9683 34.5226 -19.0084
-37.1369 9.4697 -14.3040
-22.0207 -24.9194 23.8232
-4.7709 30.4541 26.8927
39.2623 -8.2711 -7.9682
33.3388 19.4454 13.5585
9.1172 15.2268 -36.8572
0.5139 -2.1859 40.8459
-1.4849 -25.3939 -32.0371
0.1368 -18.3328 36.5694
-11.3957 16.0943 -35.8405
-18.1320 30.8406 -19.8372
4.2223 32.6050 24.3417
-38.3127 -0.1844 -14.3365
-19.3417 17.9040 31.2854
-25.5666 31.8300 -2.5741
-17.7390 -36.3499 6.1191
-16.8519 -28.3366 -24.2173
5.8546 -4.5875 40.2257
-32.8744 -24.1820 2.8166
3.5885 -36.6598 17.7935
27.1235 12.9755 27.7377
-8.1726 -28.0366 28.6459
29.4928 3.6697 28.1094
9.3571 -9.3762 38.7035
39.9935 -3.8645 -7.6821
8.6097 26.7517 -29.7263
-21.6601 -28.0254 -20.4657
3.9355 -9.4922 39.5959
-23.1940 8.2603 32.6685
-1.5524 40.8668 0.9601
-0.4478 11.3475 39.2997
11.4863 36.4099 14.6906
-35.2958 -8.1934 18.9870
-27.1349 -14.1036 27.1701
-29.8959 -24.5400 -13.3212
30.4632 24.0661 12.8935
21.9874 -34.4342 -2.0666
-3.4941 -24.2414 -32.7654
-21.1428 -28.6861 20.0878
-18.8535 -4.5223 -36.0212
-22.2540 27.2010 -20.9354
-31.1847 -21.6758 15.2021
39.8918 -9.0370 -0.6351
-36.6476 17.0200 -6.3801
38.7250 11.3193 -6.7586
1.7212 18.3933 36.4986
15.9267 -29.8870 22.9464
24.3829 -32.8466 0.0616
-21.2322 -28.6939 -19.9822
-0.5442 -37.1576 17.1011
-38.5319 -13.7364 -0.1835
5.7248 0.7233 -40.4986
-1.4659 40.8014 -2.5543
38.2706 -5.3547 13.4209
18.3228 35.9541 6.7090
0.4565 -17.5472 36.9502
-36.7934 14.5167 10.4376
37.0211 5.3561 -16.5583
39.1920 -10.7893 -4.5837
1.3251 1.6181 40.8541
12.6141 27.8361 27.1931
28.7146 8.5755 27.8453
29.6827 12.5376 -25.2026
-15.1615 1.7315 -37.9547
-7.2738 -39.1560 9.3449
12.4751 -13.1748 -36.6637
-13.6788 16.7976 34.7010
-17.0352 -29.3692 22.8185
-3.4968 40.7358 -1.3401
-1.3009 -40.6878 -4.0301
39.3101 1.1390 -11.2627
40.6982 -3.8218 1.5754
24.1739 15.1754 29.3046
-1.1542 -37.0332 17.3390
-5.5299 20.4770 -34.9792
-11.5868 38.7307 -6.2537
-6.6423 -32.0727 24.5082
0.1991 21.0581 -35.0706
-24.4002 -28.3597 16.5465
-30.9452 -26.5259 -3.4926
13.5314 -10.4517 37.1630
-28.4820 -27.9292 9.0647
28.1408 -27.3321 -11.5966
-0.4572 34.5825 -21.8466
12.5291 38.9075 1.6305
-10.3700 10.5261 38.1457
-19.4278 -35.3400 -6.8610
-23.2304 -13.1600 -30.9935
39.1953 9.4042 6.9798
21.3863 -15.6505 -31.1628
-9.3867 -13.2277 -37.5546
-22.3601 -34.1761 -2.3336
-38.7862 -8.8669 9.5099
37.9804 3.9856 -14.6640
20.5207 -10.9625 -33.6475
24.9574 11.1215 30.4446
30.5416 -25.3535 9.8914
38.1991 -13.4593 -5.7538
3.8357 37.6047 15.6397
-26.5562 13.3750 28.0946
-33.0630 24.0240 1.7649
13.1963 7.4405 37.9990
29.6589 2.9682 28.0173
-28.4846 -23.9357 17.0041
-40.1855 7.5928 -0.9504
29.9181 8.5705 26.5496
24.9653 -9.6192 -30.9457
14.3132 30.8148 22.7818
-14.7955 31.4604 -21.5583
2.3339 32.5807 24.6268
-3.5474 -28.4794 -29.1508
38.1012 14.5655 -3.0945
-31.7160 -20.2715 16.0184
27.1996 -8.5916 -29.3223
16.2276 -22.5148 30.0530
16.5393 -31.1644 -20.7042
4.7587 -21.2425 -34.6344
29.0164 -19.0925 -21.6092
30.9755 0.4235 -26.7164
-30.2720 12.8080 24.3514
8.9013 -32.4288 -23.2931
14.6488 8.8352 -37.1589
6.4412 -22.2644 33.7081
28.0183 27.7980 -10.7552
21.7048 26.6987 22.1249
-9.2187 29.6907 -26.5878
5.4370 40.3585 -3.8812
-24.4793 -26.4489 -19.3557
31.3685 -17.3772 19.6845
-19.8412 33.1389 -13.4747
-25.9009 21.9012 -22.8672
-27.1886 22.9762 -20.1570
7.1721 -20.4205 -34.7130
-39.7278 0.7246 -9.7265
-29.1606 -5.0738 -28.2373
20.6252 -12.1726 33.1641
-25.6184 17.2940 -26.7964
-1.4788 24.4867 32.7359
-33.4969 -15.2862 17.8247
-18.7842 -6.7904 35.6998
23.7558 -28.3251 -17.5151
-38.5514 -9.8881 9.4574
-34.5557 7.7054 20.4930
11.4415 27.4960 -28.0445
-18.6645 -35.2813 8.9608
-32.6505 16.6967 18.1270
-21.5462 -26.4241 22.6043
-7.5046 -20.1419 -34.8054
22.2982 12.3598 -31.9915
-31.5112 6.4884 -25.2661
29.4824 8.9057 -26.9241
30.9415 11.5046 24.1599
30.4984 -23.2808 14.1874
4.0488 -2.0459 -40.6553
5.0366 -17.4609 36.6494
1.5900 40.5628 -5.0558
-22.2132 -34.1111 -4.0539
-39.3968 6.4467 -8.9309
15.1018 34.6641 -15.6131
30.4106 -1.5855 27.3150
5.8894 -18.6345 -35.9374
38.1302 11.3444 9.5302
20.5787 15.2296 -31.9062
7.1183 -28.3889 -28.5802
-16.6438 -17.1519 -33.1998
-17.7689 29.7153 -21.7875
31.0658 20.9573 -16.4054
27.2808 19.7220 -23.2428
-1.6627 -21.6515 34.6681
-11.2521 -10.3356 37.9473
-20.8532 13.0814 32.6718
36.9273 16.3358 6.5535
27.2968 -22.3348 -20.7237
13.4647 -4.2964 38.3884
-38.7288 6.8471 11.2527
-7.5573 -3.3670 -40.0622
23.2247 30.6185 14.0196
22.2896 -21.6636 26.5950
10.0940 24.7601 -30.9593
35.1626 1.4413 -20.8554
-30.8080 9.2445 25.2753
20.5334 8.6129 34.3166
9.5116 33.5125 -21.4447
-39.2745 -6.1493 9.6504
-12.6909 -38.8872 -0.3961
-27.0791 27.0491 14.4396
-12.8999 -38.3101 6.2734
-12.6545 -38.2942 6.8445
-40.5562 5.2001 -1.2582
-34.5134 -19.5979 9.9083
36.4078 -12.2547 -14.0615
22.2243 32.2038 11.9342
31.9413 11.9647 -22.5839
27.4464 2.2023 -30.2535
-2.1074 -36.4276 -18.4936
-2.0043 -40.3406 -6.4848
4.3238 -32.5051 -24.4571
-3.4171 39.1855 11.2362
22.1945 34.1919 3.4270
-16.7468 13.5015 34.7949
22.6021 -32.3717 10.7073
13.2878 33.0479 -20.1171
-5.7312 -18.8461 -35.8526
-36.8841 15.9164 7.7241
36.9368 16.4785 -6.1288
7.5650 39.8555 5.2670
5.8763 -35.6014 -19.2728
-0.8604 32.0954 25.3490
4.2494 -3.4046 40.5436
-38.3463 14.0219 2.5259
7.6769 -13.1177 37.9792
-23.8521 -33.1618 -2.1919
-0.8854 40.5600 -5.2474
-8.4744 35.9049 -17.6764
-4.5490 -39.2508 10.5884
21.9643 -15.3764 30.8960
-1.8544 -23.3174 -33.5602
-12.2663 8.4837 -38.0919
20.7705 32.9656 12.4615
15.7978 -26.3901 26.9708
-26.0510 -24.6904 -19.6255
-6.0253 35.5538 -19.3145
29.1124 -6.4477 28.0058
14.8084 -37.9980 3.2080
-25.3501 -17.3849 26.9919
-32.6910 23.4139 -7.5179
-26.3031 -9.5955 29.8246
-27.2401 9.1112 -29.1272
0.4346 -40.2424 -7.3341
20.1431 -8.4316 -34.5918
-23.8358 32.0092 -8.9832
23.9096 -29.1114 -15.9464
30.8933 -25.5522 8.1316
-21.5137 32.5665 -12.2478
25.7136 30.9304 7.4530
-4.6115 10.4884 -39.2703
-8.3892 -6.1739 -39.5592
-19.8361 -3.6670 -35.5881
21.0991 34.9648 -2.3923
31.3113 23.4383 11.9866
5.4616 34.9758 -20.5010
-14.1563 35.3997 14.8287
17.8779 18.9612 -31.5323
-36.1959 -17.2682 8.0681
6.5885 -39.5481 -8.1223
-16.4018 22.0653 30.2908
-36.0984 18.5883 -4.9811
-8.0215 23.6124 -32.4275
14.0483 -4.4607 -38.1599
34.2068 -20.7772 8.4636
25.1063 -29.0000 -14.2163
-33.2779 23.3739 -4.4350
-16.6643 36.7994 -6.4450
-4.3954 -37.9981 -14.5002
-3.4653 22.9673 33.6738
5.9052 6.7787 -39.9075
-17.2336 35.1195 11.9604
-15.9013 34.4730 -15.2378
15.2371 -16.9515 33.9692
-30.2908 26.8399 -5.9592
7.5004 -27.8761 -28.9845
-3.8131 28.9010 -28.6988
-25.0126 32.1604 3.6753
-33.9632 -14.2064 17.8356
29.7823 -26.0188 -10.4624
-3.4106 38.7684 12.6019
11.8638 -36.8158 13.3145
-26.9345 9.6383 -29.2415
-14.7201 38.1673 -0.0454
-22.8670 -0.4999 -33.9158
-2.4251 11.4476 39.1982
28.8964 -11.8726 -26.4096
-9.8232 -39.2652 -5.9311
-29.7765 12.3823 -25.1688
0.6457 -7.2934 -40.2470
36.8685 4.9811 -17.0097
20.2864 -21.3702 28.3761
-36.1251 -0.0275 -19.1939
34.2541 -22.1980 2.7087
4.1562 40.6588 1.7363
9.4525 25.3063 -30.7193
-4.4042 -35.2381 20.3054
17.3532 4.2093 -36.8046
6.1553 -37.1584 15.9623
3.2197 40.7384 -1.8572
-7.9866 -29.9696 -26.6733
16.2533 33.2452 -17.4361
14.7260 32.7472 -19.6009
8.5478 -24.2367 -31.8268
-21.8226 -5.0470 34.2305
-24.1886 -5.7083 32.4924
-28.9967 -3.4347 28.6500
-7.6308 3.4386 40.0422
-11.4814 18.2597 -34.7590
39.5054 -9.8087 -4.0668
-5.9964 -12.0138 -38.6412
24.7913 14.9362 28.9090
-13.0727 4.4355 -38.5079
-26.7919 -25.8074 17.0176
-29.3865 28.4345 -1.1570
34.4533 21.6940 3.9715
18.7675 -25.3011 -26.0972
17.5982 12.0227 -34.9169
18.2057 -18.7627 -31.4633
14.8531 -38.1158 -0.0444
36.0364 18.0879 6.9018
-5.6322 -36.9654 16.5912
-30.1838 19.2652 19.7793
12.4166 -14.8796 36.0258
-11.8935 -31.5046 -23.2257
-19.0948 35.9099 4.3929
10.6518 -37.0721 13.6244
28.5171 9.8784 27.6156
-10.1452 38.1720 -10.6489
-23.9389 17.1629 28.3864
38.3834 9.3614 10.6069
-35.0757 19.4745 -7.9919
1.6652 23.5164 -33.4310
7.5790 -40.0026 -3.9723
23.9693 25.1510 -21.5947
31.5197 26.0373 -1.4127
-21.3846 31.3490 15.2764
-36.7872 -16.4993 6.9210
6.1942 -21.7963 -34.0585
6.9102 30.3997 26.4865
-7.3188 -9.3990 39.1347
-14.9201 33.2453 18.5895
-17.9461 32.1647 -17.7988
10.3512 16.9729 35.7520
-17.1145 -36.4514 -7.1983
-32.3698 5.7778 24.3360
-26.7589 -29.0945 -10.5310
24.9260 -1.1942 -32.4144
-4.4921 4.9910 -40.3527
34.7387 -8.9646 -19.6543
-38.2964 -3.8853 -13.8463
9.4359 -12.2941 37.8582
21.6822 32.3430 12.5395
19.3792 -29.9071 -20.0858
-25.0359 -24.5419 21.0791
27.3670 -15.1792 26.3452
-4.6160 -40.5238 3.1531
-18.2243 36.0955 6.1981
16.7328 34.8222 13.4484
-33.3111 -23.0466 5.7145
30.4218 -20.7263 17.8427
-15.6389 11.2194 36.0968
-27.5926 -9.5659 28.6456
-38.9745 -6.4633 10.6132
-40.3773 5.6761 3.2996
29.7447 -1.8400 -28.0232
-3.3087 5.0150 40.4640
-22.5621 14.5277 -30.8760
16.1508 33.1779 -17.6580
16.9441 -15.4473 33.8778
20.8800 3.2253 35.0293
37.8455 -0.3659 15.5246
-38.4781 13.6061 -2.7821
22.0641 25.2503 -23.4313
-13.3033 34.5596 -17.3806
-28.0583 24.3882 17.0696
37.7249 -15.3947 -3.6421
13.5177 -37.2845 10.0282
-17.7913 -32.9559 16.4563
-29.8871 -27.8010 -2.7004
15.1365 -32.1943 -20.1952
19.3509 34.4137 -10.7085
-7.5572 -38.3248 -12.1461
-28.6948 -21.0554 20.1670
8.9810 -28.3883 28.0513
-34.2666 -7.0191 21.2123
9.0697 20.1758 -34.4109
4.1148 -0.8858 40.6905
31.6459 -2.9346 25.7556
-30.8516 -26.8525 0.7395
31.9290 22.7520 11.6754
-20.7053 -32.4263 13.9017
-12.8672 37.1638 -11.2569
-3.5989 -14.2442 -38.1783
8.9186 21.3893 -33.7103
14.5126 -32.7211 19.8026
-37.1079 -15.4787 -7.5392
22.2346 10.0400 32.8367
-20.1702 6.4114 -35.0069
-35.1623 7.7241 19.4263
-34.6005 -11.8367 -18.3338
30.0104 1.0296 -27.7803
22.9127 -3.7996 33.6749
-0.3872 36.2789 -18.8977
-37.4489 12.3286 10.9095
23.7913 9.8860 31.7753
-17.9961 34.6617 -12.1712
-31.4007 12.2570 -23.1774
-29.4739 9.2270 -26.8250
-8.5161 -6.1420 -39.5371
-1.8977 -21.0079 -35.0499
19.4317 13.4445 33.3929
22.3829 -22.5928 25.7293
-17.0179 29.1501 23.1104
25.1524 18.6546 -26.3209
-39.9908 -8.4818 -1.4910
7.8475 33.0138 22.8459
17.4244 19.5238 -31.4426
-36.3590 8.5186 -16.7000
18.8905 36.2822 -0.4238
-2.4813 -3.1679 -40.7092
5.9640 -21.1478 34.5055
-5.0153 30.6706 -26.6006
29.7200 28.0993 -0.7639
-19.3969 20.5525 -29.5768
40.3928 3.8121 5.2265
39.3692 8.0141 7.6985
5.4406 -13.5971 -38.1962
-39.7702 9.5770 -0.2021
9.7394 -20.3443 -34.1275
9.4623 36.7348 -15.3118
7.3404 35.4764 18.9993
24.3339 12.9288 30.2347
36.3773 14.7934 11.4576
-34.6695 -7.5800 20.3470
-16.6074 6.8634 -36.7494
-31.3124 -25.3945 6.9341
11.7761 -38.8025 5.3959
0.6648 18.6761 36.3894
33.5070 -20.4425 11.5245
21.4930 -31.3724 -15.0750
31.5723 -25.9139 2.2551
-31.6693 17.2779 -19.2863
6.0428 26.9187 -30.2043
-21.9143 12.8724 32.0546
-29.4556 19.4676 20.6593
-19.1836 22.8309 -28.0030
-12.1566 -23.9978 -30.8180
37.7969 6.3241 14.3118
-18.7076 -5.5369 35.9555
26.4979 -20.3061 -23.6422
19.8462 28.2221 -21.9790
-24.6580 -3.7012 32.4301
-7.1945 32.3948 -23.9217
28.2886 -8.9381 28.1655
-6.1686 -24.6517 -32.0573
40.6553 4.5210 -0.3697
6.5403 -40.3097 2.4051
-15.7024 12.0785 35.7907
-6.0949 40.2294 4.2284
-8.0569 -38.8509 9.9560
32.1780 -22.7464 -10.9823
-9.1459 -6.1532 -39.3944
-27.5666 -1.0850 -30.2049
28.6117 1.3217 -29.2070
-13.6169 25.4323 29.0036
15.3324 5.1497 37.5743
-31.9869 23.9005 -8.8899
-14.7205 -25.3763 28.5093
-5.5077 -23.9940 -32.6708
25.9160 -11.4617 29.5029
19.1892 -32.7105 15.3372
-22.4085 33.4268 7.3445
-2.5472 -21.1292 34.9356
22.8914 -4.0763 33.6570
-32.2643 11.2201 -22.5067
-40.2024 -5.6315 5.0483
14.7758 1.8219 38.1023
37.3504 15.2268 6.8203
-0.0262 22.8197 -33.9513
13.6991 -1.2892 -38.5241
20.2025 35.3101 4.2993
-31.8432 -24.0796 8.9227
14.5167 -11.1192 36.5932
-10.0746 30.8366 -24.9205
28.2906 -29.3344 -3.5447
32.0689 -22.6595 11.4701
32.9932 -17.2402 -16.9603
-38.9037 -2.3311 -12.4298
-15.0413 -12.5714 -35.9047
35.4295 13.6637 -15.2145
-31.9336 -16.4870 -19.5411
1.6047 -40.8323 1.8905
-26.1143 -11.9263 -29.1417
-3.8734 40.6833 -1.8162
7.7130 -28.0348 -28.7748
38.8842 -7.5745 -10.2019
22.6302 -21.8416 -26.1581
-10.1037 15.2898 36.5727
-1.1624 27.0382 30.6759
-36.8827 5.7703 -16.7271
-18.3694 -10.0436 35.1443
4.1899 10.2224 39.3875
-31.5923 5.3949 -25.4215
-20.1419 -35.2038 5.3313
1.4676 34.4472 -22.0151
7.1241 -28.9780 -27.9813
34.5400 -1.9139 -21.8348
19.9547 -32.8409 14.0256
21.9402 7.0950 33.7893
10.1703 -26.9854 29.0135
25.4844 30.1966 10.5897
-13.7204 -15.5301 -35.2703
-4.8051 -8.0082 -39.8272
12.0814 -31.3931 -23.2796
39.5731 -8.8192 5.4423
-35.5205 -5.5309 19.5226
-10.5134 -37.9328 11.1356
-27.6845 -29.1399 7.6068
25.5886 31.9003 -1.0108
18.5477 31.4286 -18.4838
-27.8039 -29.9678 1.5170
17.8243 28.0611 23.8390
-15.5829 31.5161 20.9126
-26.3032 -31.1192 -3.6289
6.7564 39.5750 -7.8486
9.6655 24.1087 -31.6034
-3.5937 -15.2581 37.7850
-23.1004 -21.9477 -25.6535
-5.5436 -34.6440 -21.0354
-24.2137 -18.3928 -27.3648
7.3505 -14.1379 -37.6765
-7.3570 -31.9876 24.4151
27.1875 27.2548 13.8365
-31.2433 -1.5121 -26.3629
-29.1943 2.3746 -28.5566
6.9636 -37.6993 -14.2723
-21.8227 -25.4644 -23.4257
-34.6726 -15.5620 15.1350
-27.8577 11.5892 -27.6237
-22.7591 11.6945 31.9170
6.9168 38.2938 -12.6163
5.2093 -40.5519 1.3552
-12.6039 -14.9543 35.9296
-12.5781 36.0861 14.5951
37.0706 -17.2973 0.0249
5.7495 -40.2593 -4.4229
-34.9048 1.1524 -21.3016
37.7862 -15.1556 -3.9928
-11.5350 -18.8217 34.4400
-16.2758 -24.5927 -28.3500
22.0582 -5.7294 33.9712
9.6660 -39.7410 -0.8053
-26.2271 -28.6594 12.8144
-33.4178 16.1281 -17.2210
-4.8101 36.6096 17.6077
21.0179 35.0824 0.9479
-37.9482 -14.3133 5.3382
11.0996 -37.9746 -10.4000
17.6779 -33.2092 -16.0646
-12.7681 -7.6448 38.1046
27.6825 -10.0010 -28.4093
-11.3006 -19.1715 -34.3246
-38.3976 0.7747 14.0874
-0.2341 -33.1598 23.9542
8.7913 -29.7125 -26.7078
16.6148 11.0561 -35.7091
-10.7270 39.3280 -3.4159
-11.2474 -38.9814 -5.2318
32.4954 11.2405 -22.1615
-34.0596 22.6270 -1.1798
0.9612 25.4411 -32.0196
-11.1154 33.9380 19.9522
36.8535 -16.8554 5.5806
33.0280 14.5608 19.2501
14.4931 -14.2680 35.4937
-5.1345 -12.0888 -38.7418
27.6780 30.0755 1.6790
-23.7814 -32.9473 -4.7275
-3.9559 -11.8993 38.9383
-3.9870 4.4041 40.4739
-5.4180 -36.7492 17.1339
32.7989 -18.4326 16.0592
25.3478 -20.7511 24.5012
-26.0352 5.9411 -30.9887
-37.4249 2.3683 -16.3462
-36.1439 -15.2659 11.5757
18.3153 -24.4103 27.2418
22.6704 -12.8201 -31.5456
33.4694 9.9410 21.3167
20.1372 30.1091 -19.0096
-39.7033 9.7943 -1.0726
37.7237 9.5750 -12.5964
-12.6755 38.7371 3.4921
-0.0095 -7.2208 40.2652
-27.0706 30.1819 -5.4468
-20.9417 -21.2563 -27.9830
11.3777 15.5802 -36.0726
27.8531 29.5470 4.9605
-16.6615 26.0007 -26.8288
28.0155 2.4930 -29.7043
-25.2108 -15.5448 -28.2171
-28.6922 24.6085 -15.6400
-40.3436 0.1344 -6.7681
-1.0406 -4.0773 40.6906
-3.0307 12.8521 -38.7178
10.1149 15.0416 36.6724
-12.8655 9.7594 -37.5854
-31.4271 -6.4880 -25.3707
-5.6614 27.1662 -30.0562
15.7545 -26.3161 27.0682
5.2161 23.1493 -33.3216
-25.8784 21.8345 -22.9563
-24.4254 -26.2593 19.6793
39.4210 -9.1045 6.0433
21.4254 -22.2511 26.8193
-12.8250 -36.6897 12.7598
-28.3345 -26.6475 12.6687
-10.4347 3.7904 -39.3723
10.3022 -26.4031 29.4986
-1.4709 35.9022 -19.5523
-11.2537 38.6715 -7.1625
-38.0790 -9.9496 -11.1545
-1.6876 40.5818 4.8684
-30.4786 26.8856 4.6530
1.4101 -30.8321 -26.8481
-24.4806 19.0423 -26.6744
-36.7932 -6.1448 -16.7908
16.1286 28.0118 -25.0726
33.7225 -20.2228 -11.2810
-39.7708 3.2068 -9.0238
-31.9928 -10.1230 23.3969
23.5011 33.3329 -3.1691
-34.5996 0.6454 -21.8147
20.7280 -1.7525 35.2237
9.7788 0.9260 -39.7108
28.6811 -22.4896 -18.5753
1.2188 11.8879 -39.1232
-15.7866 30.6173 22.0634
-27.2976 -28.6996 -10.2277
21.5173 7.6196 33.9467
-39.0986 6.0591 10.3931
36.5062 3.5677 18.1108
-3.9738 18.9073 36.0576
-15.9015 34.7645 -14.5603
25.1671 -32.1325 2.7468
7.2702 16.4830 36.7271
