ply
format ascii 1.0
element vertex 1024
property float x
property float y
property float z
end_header
4.2937 50.6311 6.6911
18.8204 15.6995 45.0115
31.8084 13.2464 -37.9404
47.0541 -18.8905 7.4679
-51.1298 3.4401 0.7916
19.0675 -24.6603 40.6818
30.2357 -41.3819 0.2225
-11.6692 -30.4864 39.5111
45.2071 -23.5267 -5.4342
50.2446 -7.7661 6.4718
-18.8117 44.9886 15.7754
35.4291 35.1108 11.7780
-38.6948 -10.1734 -32.0301
-8.9888 8.6122 -49.7167
-10.6569 -44.6437 22.8055
-49.7767 12.2043 0.2132
-40.1031 -18.4384 -26.0477
21.5600 46.4958 -0.1356
-47.7958 13.2129 -12.9496
13.8059 47.4825 13.4731
21.9015 4.6005 46.1072
-5.8864 48.1211 16.6259
-37.6581 7.9179 -33.8510
-21.0320 25.8650 38.9278
12.8499 47.1962 -15.3007
7.4079 -10.1201 49.6933
34.4537 -34.4279 -15.9491
-50.5752 7.3951 3.7654
-2.3357 -45.9764 22.5263
-4.6615 -43.6229 -26.4957
-26.9013 -37.7658 21.8352
-17.4080 -47.7150 6.8523
43.4102 -12.1719 24.3744
10.4241 -48.5595 -12.6502
31.7720 -39.3728 8.1875
46.5090 20.5058 6.5678
-36.7519 11.3094 -33.8837
26.9053 0.5511 -43.6178
44.7384 -9.1084 -23.2857
9.1848 -3.4456 -50.3039
-15.1536 39.8791 28.4031
-4.5409 21.6178 46.2468
45.8671 -16.9784 -15.3186
-32.1167 39.2889 7.1841
12.5561 -12.8456 48.0005
-21.8404 18.1806 42.6518
-26.4983 39.4503 19.1892
-45.2029 -23.8156 4.0291
33.4001 36.9068 -12.2079
-43.7995 -11.8938 -23.8086
-6.7835 -49.0882 -13.0784
28.1112 35.1629 -24.4958
22.7104 -11.5499 -44.4697
-40.5332 29.4864 10.6924
-13.9005 49.3282 0.4643
-41.3014 -19.8373 22.9649
-45.2511 21.2558 -11.2802
-33.0754 -28.1065 27.2535
22.3228 44.5733 11.9007
-38.7865 5.9268 -32.9726
-16.4813 22.3165 43.0935
-14.4018 30.8843 38.2814
2.6652 -49.0728 -14.5419
-5.3158 -44.6967 24.5085
25.7519 23.5714 -37.5226
36.2238 -13.6680 33.5817
27.9898 35.5989 24.0001
31.9356 -39.7641 5.0646
-0.4560 0.5607 -51.2464
-12.7027 46.8319 -16.4964
0.1262 -50.3084 9.7860
9.4144 -36.0966 35.1442
15.3569 48.8309 2.5348
-39.0276 -33.1916 1.3703
27.1122 39.7242 -17.7096
1.3719 22.4250 -46.0647
-34.0807 -37.6575 6.8652
42.2428 -18.2602 -22.5572
21.7208 -4.0219 46.2466
50.9331 -4.0077 -4.0587
-26.5942 -43.8095 0.4418
-21.7500 -40.6522 -22.3841
38.4731 -32.6311 -9.0415
-44.5190 6.2961 24.5994
-5.0950 29.5803 41.5423
-47.4390 13.2633 -14.1543
-43.0325 12.1771 25.0326
6.8365 47.6554 17.5765
-50.8683 4.4347 -4.4122
-46.8490 0.3345 20.7791
-18.6203 23.9276 41.3215
-22.5939 -39.3945 23.7551
49.6959 -3.5265 -12.0249
26.8296 15.5605 40.8015
19.3103 -32.0324 -35.0393
-23.4854 -35.8502 -28.1054
44.2461 4.2879 25.5071
-11.3161 -49.0279 9.7429
-48.4576 -7.0065 -15.1487
-1.5000 19.7053 47.2881
10.4650 46.6522 -18.4599
-33.8955 22.7552 30.9840
15.3978 -17.5150 -45.6382
-45.0467 -13.2482 20.5425
-34.0004 22.2623 31.2262
-7.1234 -27.7616 -42.4884
-0.4225 41.7042 29.7875
40.1409 -8.7141 -30.6510
-8.7359 42.6991 -26.9664
-40.0891 28.6947 14.0067
10.2662 25.4430 43.2894
-31.6289 -16.5715 -36.7656
-25.8659 44.1691 2.6008
3.1773 50.2524 9.5557
-25.4458 -30.5781 -32.3142
22.8468 -2.0553 -45.8314
-39.1538 -28.4321 16.8911
-14.2266 13.1311 47.4541
48.4664 16.5279 2.1340
-16.8948 32.5965 35.7596
-7.6823 23.5063 44.8904
17.7719 -37.8214 29.6718
-20.5546 30.5246 -35.6717
-38.4632 30.3283 -15.0828
45.0420 0.9061 -24.4358
44.4402 -1.1692 -25.5032
-51.0346 -1.7937 4.3551
39.7397 -15.6318 -28.3394
-48.6021 16.1977 1.4791
39.7636 15.4891 28.3840
-35.5511 -12.6843 34.6690
-41.5584 20.8359 21.5749
-6.5498 -9.5074 -49.9342
24.5504 -37.8889 -24.2575
5.7162 -45.4727 -22.9407
-11.9721 36.1403 34.3113
10.1854 -33.9816 36.9895
-37.2019 6.7549 34.5992
-19.9021 -46.6040 7.6605
41.0597 -13.2355 -27.6702
-40.4090 -3.0139 -31.3806
11.7831 -4.3047 -49.6925
48.1614 8.1213 15.5320
25.2834 41.9349 15.1306
-37.4777 -14.5464 -31.7890
12.5025 -19.0499 -45.9075
-5.9295 10.7435 -49.7607
5.2899 -12.1184 -49.5164
24.8010 -26.6853 36.0488
-12.2874 2.5602 49.6908
-44.8215 -24.8193 -1.3218
1.9578 -46.2721 21.9494
-9.7836 40.3805 -30.0069
-28.4839 21.5179 36.7745
-38.5222 -30.2208 -15.1479
32.4026 -38.4657 -9.8576
21.5937 3.9318 -46.3138
6.6874 -17.0256 -47.8761
-32.2241 33.0343 -22.2947
-27.4278 -6.4511 42.8113
18.9860 0.8697 47.5972
38.8560 -9.1184 32.1524
18.1943 20.2069 -43.4438
-12.6180 45.3863 20.1886
18.3572 -47.7274 3.4386
5.4587 -41.4498 29.6450
-21.1658 -4.5356 -46.4559
36.6826 -33.8017 11.7705
-2.1650 19.0455 47.5321
-36.5880 34.0789 11.2544
-49.9570 -6.3445 -9.5267
25.7415 -5.2543 44.0055
-45.7225 -19.8269 11.9609
-26.7367 -42.8378 -8.7628
-50.3670 -7.4297 5.8886
40.4002 4.1502 31.2620
33.9461 -36.9617 10.4026
-22.5242 33.2780 -31.8111
11.5814 5.9422 49.5709
-34.4163 -37.3618 6.8065
-0.4753 50.1264 10.6694
29.8881 -33.5404 -24.6670
11.6318 -49.7893 -3.5266
-26.4030 -36.2979 24.7397
19.4756 47.2833 -3.4217
-23.7032 -44.7080 -8.1285
-8.2637 8.9601 -49.7809
-25.1223 40.4680 -18.9190
-3.1403 45.9941 22.3919
-11.3964 -14.0723 47.9459
-47.5825 -8.0138 17.2741
50.1757 -10.0520 -2.8402
-5.9152 49.1578 -13.2377
13.9587 29.9676 -39.1639
27.1804 -9.0789 -42.4913
-12.0968 -25.6283 42.7033
7.9368 -44.0724 -24.9268
15.2417 11.2268 47.6273
19.3613 -44.6567 16.0509
26.8047 -17.6216 39.9712
-43.6131 21.4932 -16.2066
1.7236 22.5287 46.0022
-4.8149 20.2153 46.8495
-20.8596 36.2318 29.6454
-17.1892 -46.4695 -13.1085
-3.4759 50.9613 4.1931
-14.0228 43.2132 23.7212
26.8989 -42.3114 10.6258
-48.4679 5.6838 -15.6611
-38.3036 -18.7765 28.4077
-8.2057 -49.5444 10.2342
-46.0431 12.1041 -18.9800
-43.8144 25.8875 -6.0707
26.8893 -32.6827 -28.9053
45.8102 -16.3639 -16.1358
11.7979 -7.3041 -49.3373
-6.5013 -22.3253 -45.6731
-13.0155 48.0578 12.1558
-31.0436 31.6318 -25.7380
-30.7998 -34.0581 -22.7625
-8.6050 24.7328 -44.0563
-45.4353 -22.2663 -8.1584
38.5682 -5.0795 33.3677
-35.1127 31.4098 20.1801
-29.0096 28.5935 31.1058
19.9487 -20.1183 42.7085
31.7936 -39.7299 -6.1165
-28.2107 -3.9405 42.6068
34.8057 -37.3018 4.8843
7.1302 -41.1342 29.7296
45.5931 14.6646 18.2466
15.8429 -13.8354 -46.7365
41.7772 19.0529 -22.7677
-24.9769 -21.7087 39.1357
-31.6298 -18.9076 -35.6198
11.6986 -25.2442 -43.0417
2.8206 -49.9369 -11.1834
-37.9341 -27.0817 21.3143
-25.6616 -11.9674 42.7197
-37.3078 31.2423 16.0860
10.9116 37.8632 32.7724
20.1189 -37.7151 28.2757
-5.1380 -34.8156 37.2584
2.1500 -48.1937 -17.3048
-21.4974 -40.4626 22.9641
-2.5007 47.3777 19.3859
-10.3782 -10.7089 -49.0339
-30.1095 33.0009 -25.1211
-13.9395 -37.9035 31.5552
-30.7677 -35.3465 -20.7530
12.6567 -12.7815 -47.9912
24.2235 -9.7491 -44.1009
-30.0322 -27.9834 30.6873
-34.5997 19.8109 32.2041
45.2918 14.6859 18.9655
-39.7542 -3.7425 -32.1296
-8.4192 29.5048 41.0524
32.9849 -33.9111 -19.7167
-2.5972 41.8282 29.5021
-21.5689 -14.2018 -44.2697
-26.2078 1.4909 44.0187
-31.2811 -37.6646 -15.1522
-4.3561 -11.5630 49.7397
-40.7903 -5.3062 30.5730
-31.0643 -14.8188 37.9753
-42.0122 7.0283 28.5007
45.5475 18.5591 -14.4118
-30.7535 40.8167 -3.8638
-23.3110 19.9622 41.0466
25.6305 -36.6423 25.0426
-38.0523 24.9085 -23.6284
-5.0207 -49.8952 10.5821
-11.9813 -43.2271 24.7907
5.8063 21.7176 -46.0581
-38.9218 -29.1074 -16.2654
19.7820 -38.2725 -27.7598
-36.5961 -18.6420 -30.6581
-36.1722 24.0899 27.1655
-45.0718 1.5170 24.3504
-20.8689 46.7553 -2.2677
23.1588 40.3432 -21.5129
-6.7445 11.6796 49.4450
-17.9327 47.0753 -9.4368
5.6479 -26.5406 43.4789
-16.5981 48.0506 6.5084
50.3944 -5.9812 7.1656
5.7647 -3.5066 50.8054
-14.8195 -36.6372 32.6315
-46.1360 -19.8833 -10.1409
-44.2903 23.6541 10.2746
-17.0028 -42.6791 22.7180
-47.2901 -18.6365 -6.5605
-9.3275 -48.6669 13.0860
1.5111 -51.2215 0.8874
49.6532 -2.3626 -12.4776
20.4539 3.9016 46.8309
17.9520 -16.1384 -45.2105
34.8172 -27.0905 -26.0879
35.7478 19.3605 31.2086
7.6243 9.8620 49.7124
-37.8343 -11.8455 -32.4802
-3.7702 48.7153 -15.4700
14.7183 45.3985 -18.6831
-17.6135 40.6182 -25.8194
41.7642 1.1239 -29.6850
-38.3936 -33.6321 4.6396
38.4042 33.5151 -5.3452
-33.1693 -0.9630 39.0587
-24.3677 32.0832 -31.6796
-32.2628 30.7672 25.2825
-45.8426 2.4416 -22.7861
-30.5857 -21.6747 -34.9491
18.7206 29.6879 37.3481
32.2741 28.0439 -28.2602
-19.1542 22.7720 -41.7285
37.0392 19.6839 -29.4508
27.8762 4.1220 42.8093
45.8694 -22.2353 5.3196
34.4222 -1.4555 -37.9434
-17.2798 43.7301 20.3912
-18.4574 47.7391 -2.6496
22.2039 43.3380 15.9848
-28.2490 -39.2998 16.8593
-17.6659 45.5190 -15.5774
-46.4088 -13.5498 -17.0099
-17.8289 46.2872 12.8972
-45.4685 -23.2982 4.0643
-6.5225 -37.6493 -34.1570
-23.4863 45.5450 -0.8702
-6.2845 50.1239 -8.6497
-43.8762 -26.3466 2.7292
-18.2324 -10.4263 -46.7502
48.5913 4.2448 15.7347
-8.2447 38.3019 33.0410
15.0135 -43.8329 21.9085
-47.0949 -20.2181 -0.0969
32.3820 -2.3460 -39.6563
19.1783 -7.8328 46.8781
15.1579 19.6128 44.8586
21.1930 -43.1802 -17.6930
43.9561 2.4502 -26.2406
48.4861 13.3426 -9.8886
32.9140 38.9087 -5.4311
34.7918 -35.6434 -12.0744
7.4799 -12.2679 -49.1962
35.5740 6.7605 -36.2698
29.1809 2.5260 -42.0572
-23.4089 45.5674 -1.5315
-33.2788 1.7497 38.9381
1.3546 46.7558 20.9468
15.7883 14.8265 46.4502
-42.5274 14.8429 -24.4504
-40.0115 31.0411 7.8894
7.5710 34.0897 37.5138
-25.8416 13.4719 -42.1596
40.6564 -16.1522 26.6998
-3.1816 -14.8098 48.9618
-17.1248 40.7401 25.9557
22.9043 -2.5945 -45.7753
-3.9208 35.3411 36.9100
24.7506 -34.1475 -29.1216
-12.3794 45.1539 -20.8469
-16.1438 -16.9122 -45.6078
2.7280 4.5313 -50.9778
15.2281 -48.1317 -8.8405
34.2993 28.1077 25.6949
19.6543 21.0935 -42.3732
-49.2338 13.9376 2.9135
-15.7837 -24.4065 -42.2127
-14.7628 36.7641 -32.5142
19.7253 -28.6163 37.6661
-3.1522 22.4392 45.9702
-12.4695 42.5720 -25.6682
50.3801 -8.8738 3.1325
-5.8776 50.9009 1.1244
-23.7295 -5.9394 -45.0372
-4.1497 32.1745 -39.6774
-0.8551 -49.4722 -13.3598
43.2071 3.6935 27.3171
47.3882 19.5121 0.5959
21.7142 25.8658 -38.5508
5.8390 -43.5607 -26.3645
31.7915 -20.5073 34.5755
30.8107 6.2727 -40.4731
11.9319 -20.6902 -45.3460
-8.9919 -30.7799 -39.9807
-39.8821 -27.6152 16.5388
-0.3777 50.9376 -5.6509
-34.3102 -11.0973 -36.4194
-24.6381 43.2094 -12.3541
41.1903 -29.7453 6.7299
-15.9459 -1.2477 -48.6917
-31.9669 -29.2155 -27.4096
41.6822 -13.2834 26.6995
-0.8557 -24.9584 -44.7555
-3.1879 -2.7645 51.0775
-27.0950 -39.2707 18.7187
-22.4263 3.4675 45.9538
-36.9412 2.5560 35.4334
-7.4918 16.8096 -47.8333
-32.8227 -20.8097 -33.4117
-14.1008 7.0248 -48.7702
47.4505 -1.3543 -19.3216
-31.7482 -12.7154 -38.1718
40.6428 -16.7099 -26.3753
-49.8511 -8.4251 -8.4022
37.4963 -27.5291 -21.5149
-19.9853 1.5828 -47.1677
50.1737 -10.2479 -2.0732
22.6107 5.6967 45.6401
-37.0513 12.8875 -32.9822
16.5797 38.6051 -29.3509
15.3690 -45.3677 -18.2284
10.5588 -42.2830 -26.9698
34.3027 26.7357 -27.1153
-38.7134 -22.0235 -25.3564
-16.2916 -47.9363 -7.9630
-25.2535 -39.1565 21.3481
3.8835 -47.9941 17.5556
28.8915 41.4834 8.4335
29.2848 12.9948 40.0031
-40.1053 21.4080 -23.6639
3.9200 49.6123 -12.2461
16.3862 22.7258 -42.9156
-30.1147 19.3051 36.7033
18.8146 46.6526 9.8115
-26.6537 23.2839 -37.0696
-30.4219 15.9933 38.0189
-6.6358 -14.8608 -48.5987
-23.3165 45.6388 0.3969
-37.2610 23.7254 -25.9892
2.0701 51.0345 -4.2319
43.6733 -14.0457 22.8489
-28.6040 14.5697 39.9531
35.7261 -33.3013 15.5365
31.6310 25.4941 -31.2449
-2.4315 -17.0840 -48.2591
25.3876 22.6542 38.3271
-19.3641 38.8534 27.2425
-39.8855 -32.0764 2.6386
-42.4787 26.5085 -10.9350
-42.5250 -2.1725 -28.5240
46.2966 8.2690 20.3705
9.7448 49.9505 6.0578
28.9188 31.0055 28.7936
22.1947 46.1416 2.2492
-35.1666 -36.8139 -5.8958
39.3026 -31.8264 -8.3126
2.5492 50.7192 6.9120
34.5189 27.0089 -26.5646
27.3141 -15.4746 -40.5116
19.1147 14.4024 45.3201
17.3403 47.0745 -10.4888
13.6633 -49.3257 2.6464
25.2217 42.2380 -14.3712
-14.3484 45.2978 -19.2080
37.2685 -5.8757 34.6879
43.8780 -16.7552 -20.5109
-10.8514 -39.1743 31.2144
-5.6093 -9.9901 -49.9545
6.5113 44.5651 -24.4594
-33.1003 -39.0538 2.4254
27.8190 -42.5116 6.7515
2.5367 5.1612 50.9278
-28.8834 21.2200 -36.6358
-23.6013 21.8635 39.8959
18.5354 3.4506 47.6576
36.2901 -32.0803 16.7509
-49.4570 11.5837 -6.8221
25.6031 -43.4849 -8.9587
9.9128 23.5701 44.4173
44.7497 24.8912 2.1459
-6.9473 -30.8623 -40.3233
19.4414 -25.8234 -39.7731
-20.3366 -18.2107 43.3764
-25.4076 -23.1275 38.0301
9.2949 -46.4831 19.4844
16.2577 20.0099 -44.2945
34.5094 16.5277 34.0977
14.4690 26.3404 41.5156
15.0145 -47.3178 12.7399
-5.8148 34.5791 37.3790
-13.5979 -11.8156 -47.9813
3.2717 -4.2843 50.9672
12.8101 20.2486 45.3057
-25.6412 -12.1555 -42.6789
40.2572 -29.2487 12.2714
18.3584 46.3714 11.8058
-21.3210 -44.3427 -14.3477
45.8983 21.8461 -6.5430
46.9097 7.2285 19.3375
24.5007 -43.6797 -10.8865
-19.6749 37.4519 -28.9304
-35.7109 10.0218 35.3696
-8.6143 -2.2483 -50.4723
-47.5324 -4.4308 -18.6481
-17.0161 -45.3079 -16.8630
13.9525 35.6469 -34.0785
35.3318 5.4165 -36.7292
3.1386 -48.1047 -17.4012
-46.8525 3.6674 20.4478
16.8880 -4.5641 48.1734
15.7314 -22.2662 -43.3988
37.9391 -13.2705 -31.7999
-20.5554 -13.8520 44.8588
-22.1140 42.0285 19.2689
-51.1680 2.8776 -0.5232
16.7150 8.5726 -47.6847
-11.4460 -16.5504 -47.1358
-17.2497 40.4214 -26.3680
33.3044 -22.2558 31.9720
-42.3779 27.5838 -8.3643
-28.8092 42.2434 -3.4990
33.1729 35.3442 -16.6450
19.4049 20.7546 -42.6546
-28.0996 13.1442 40.7965
-18.8719 -29.2522 37.6149
8.4044 -50.3549 4.5237
-3.4462 16.4197 48.4276
24.9184 11.3100 -43.3344
32.1920 -3.5340 39.7228
47.3892 -17.5281 8.5872
16.2454 -43.5869 21.5170
-29.2741 26.8597 -32.3774
6.7112 -50.6977 3.3791
14.0017 37.2535 -32.2931
22.3971 14.3762 43.7997
-8.5744 -21.6620 -45.6503
-10.2212 25.7484 43.1191
19.3815 41.1157 23.6764
9.8270 -13.9946 48.3145
-12.7053 -41.7255 26.9123
-22.5691 -10.3675 44.8315
-22.3502 -28.4182 -36.3261
33.3345 -38.2047 -7.4784
-11.5229 -45.0179 21.6176
-2.4020 51.1893 -0.7773
31.3099 30.9178 26.2772
20.1611 46.1956 9.2849
-44.3744 -25.4870 2.8356
13.9977 41.2670 26.9780
44.4031 -23.2491 -10.7032
17.3845 -42.9395 21.9247
37.5017 -6.0336 34.4083
18.7008 43.9480 -18.5895
26.1854 42.8584 -10.2079
-7.4447 -8.1055 50.0559
38.8807 30.3961 13.8231
3.0907 44.3779 25.4511
-43.9072 -21.1777 15.8232
31.4137 40.3635 -3.2675
12.5842 -45.1260 -20.7846
-51.1065 -3.8341 -0.3794
33.1119 16.9197 35.2710
17.2869 19.1328 44.2924
24.6980 21.9546 -39.1754
30.5328 35.1790 21.3753
-42.4173 -27.3665 -8.8636
22.5513 -30.2920 -34.6489
30.8188 14.7511 -38.2011
28.8748 -38.9086 16.7057
35.9099 33.8287 13.8858
-39.9746 28.2818 15.1289
26.0860 8.7577 -43.2382
-25.3124 42.7090 12.7254
33.3423 -31.4951 22.8705
5.9096 -47.5788 18.1121
-47.3875 3.7482 -19.1596
25.2073 -11.0507 43.2341
24.9424 42.9268 -12.7234
46.6149 -16.2840 -13.7329
2.3443 21.9700 -46.2443
7.3185 -33.5445 38.0515
37.7569 -30.1197 -17.1444
-51.0311 3.5707 3.1291
-11.6474 49.5737 5.7877
21.4704 -45.0896 -11.5181
-38.8060 -0.8012 -33.4689
40.5437 12.6913 -28.6679
-9.2761 27.9306 41.9589
44.8157 -6.1466 -24.0932
-2.3890 -40.3653 -31.4905
44.3308 -18.0245 18.3471
-47.1427 4.3337 -19.6342
18.9531 -18.4815 -43.8854
20.5456 28.2544 37.5004
-23.1580 -4.4499 -45.5041
18.5546 -6.8276 -47.2845
-47.5643 17.1324 8.4163
17.8605 -48.0299 0.9213
15.7515 -34.0338 34.9328
-22.9795 -29.5652 -34.9936
4.2909 -10.6053 49.9583
29.3563 -39.1533 15.2297
-45.2344 12.1686 -20.7964
1.2917 -32.2282 -39.8295
-17.5744 -27.7990 39.3074
-27.7918 -30.4250 30.4738
36.7497 -30.3503 18.8423
20.4181 -25.7739 39.3131
-31.4860 -34.1125 -21.7182
33.5795 -16.1691 -35.1809
-29.5067 -3.0522 -41.7942
-33.0291 -10.9183 -37.6375
-11.4699 -24.5942 -43.4773
43.3309 25.9077 8.8280
-39.3287 11.1308 -30.9204
11.8796 -37.2969 -33.0837
0.3493 48.8902 15.3732
21.9049 2.6543 46.2584
21.4330 36.7960 -28.5200
-42.7823 -28.1741 -1.6166
-42.7071 26.7088 9.4583
24.5786 -13.3678 -42.9408
26.8724 -36.4461 24.0056
12.6774 -6.1327 -49.2787
-35.6216 23.3967 -28.4677
-7.9377 -44.4170 24.3072
-48.1877 10.8921 13.6388
0.3845 -0.1638 51.2498
44.7356 -24.1894 6.3490
-12.7751 -43.2932 -24.2737
-18.1667 -11.1797 -46.6015
-37.2571 34.4555 -7.1721
-13.0372 -34.1750 35.9000
10.4744 -37.2728 -33.5819
15.6968 3.5110 48.6621
11.4655 39.9097 30.0412
6.8197 -37.4181 -34.3525
49.9610 10.8668 3.5394
-24.9783 -37.2195 -24.8497
-3.3305 50.6445 -7.1244
-20.9190 27.7066 -37.7022
39.7390 -15.3537 28.4919
11.6142 48.1214 -13.2723
-41.7158 -27.5778 11.2238
-42.2891 -28.7454 -3.4712
9.5223 38.1691 32.8506
48.2298 -17.2944 1.2266
-42.3672 22.9242 17.4991
-25.2812 -38.8718 21.8302
11.1512 -35.8699 34.8671
44.8418 -11.3655 -22.0625
37.7342 -22.0456 26.7738
48.1142 17.6116 -1.2544
36.2216 -34.1386 12.2174
25.2728 30.7440 32.2926
24.4561 -44.8667 3.9490
-41.6318 -29.7512 -2.8933
15.7883 -21.3357 43.8433
-46.6987 10.3868 -18.3864
38.3216 24.4599 -23.6619
6.2175 -23.5279 -45.1054
39.2447 -12.8983 -30.3348
26.6841 31.4081 30.4665
45.1889 -6.3265 -23.3377
-33.9365 -33.0060 19.6376
24.6145 -33.1024 -30.4149
-39.5599 24.8950 -21.0230
-10.6868 25.0662 -43.4073
12.4788 1.1787 -49.6951
-5.2147 -46.2339 -21.4931
-43.5303 -19.5235 -18.7259
-6.1759 32.0407 -39.5217
39.8367 -31.2906 -7.7878
7.4802 12.2687 -49.1959
-6.3097 -47.2700 -18.7736
-46.5651 -16.3846 -13.7822
38.4903 -31.5081 -12.3470
-14.0480 47.3486 -13.6922
8.0116 39.5548 -31.5903
39.9263 19.4283 25.5957
-34.5154 32.5967 -19.3095
-1.0334 44.3075 -25.7388
-45.5103 0.9554 -23.5502
-48.8865 -1.3454 15.3301
-15.3588 -46.5568 -14.9428
-43.6861 -26.7752 1.1533
-26.6764 -43.6754 2.7470
24.2974 -11.4230 -43.6562
-13.8739 -41.9859 25.9117
41.4820 -25.8808 -15.3669
-3.2804 20.1016 -47.0306
47.9716 -4.8327 17.3806
4.3237 29.6619 41.5715
-0.5474 -29.7506 41.7291
-26.1761 -3.9213 43.8879
-17.6093 29.1639 -38.2896
5.4251 -34.1542 37.8256
2.6740 -43.3579 -27.1965
45.9032 18.7105 -13.0203
27.9759 -40.2831 14.8772
-48.8046 -1.9885 -15.5199
47.2125 -5.3345 19.2155
-36.5867 10.4304 34.3414
-22.5074 -1.6376 -46.0157
-10.1506 2.4764 -50.1752
7.7227 -35.4564 36.1928
-29.7717 -6.4299 41.2191
-37.1128 -1.9382 -35.2930
-45.6033 -19.0949 -13.5071
35.4074 -10.9439 35.4014
6.6086 -17.6096 -47.6754
35.1655 -29.8967 22.2776
7.1953 43.8202 -25.5877
-33.2679 27.0999 -28.0278
39.2397 16.7021 28.4254
-7.7226 -41.6626 -28.8323
42.6341 -13.2455 25.1715
-34.6541 37.3352 -5.6467
17.9705 -47.7265 -5.0950
-6.1782 38.0988 33.7198
8.6347 -48.3593 -14.6129
3.8624 -32.0083 -39.8405
-10.2386 -0.4883 50.2160
-23.5652 -42.0337 -17.4518
-2.2418 38.8211 -33.3858
-47.0766 12.9165 15.6099
38.5023 13.9049 30.8373
-6.3166 -6.5921 50.4317
40.2966 -18.1724 -25.9358
12.2842 46.9355 -16.5189
42.9910 4.0318 27.6085
32.9600 39.0483 3.9466
-17.6903 -2.6139 48.0306
-7.6097 41.6197 28.9242
-23.8753 45.3191 -1.6914
-2.3462 26.5673 43.7651
29.5335 -41.1774 -7.6752
-0.8465 -49.5133 13.2072
12.5421 -46.8187 16.6559
22.2262 29.5360 -35.5012
-23.3320 -9.9294 -44.5392
-4.3611 49.7250 11.6239
50.3553 -0.4992 9.5294
9.6268 -48.3677 -13.9501
13.0287 -41.9418 -26.4168
-40.9685 0.5533 30.7895
23.1060 26.5848 37.2301
1.4034 -33.6474 -38.6341
-17.4349 10.9413 -46.9364
-33.5977 -38.6611 -1.7949
-7.6820 -23.7112 44.7826
-46.1216 10.5403 -19.7081
13.7334 -48.7821 7.6431
35.3640 14.8783 -33.9814
-20.0299 1.4296 47.1537
-3.1919 14.9741 48.9112
42.8902 12.6692 -25.0327
22.8284 -0.3427 45.8853
50.8423 -1.2241 -6.3465
-39.7226 -26.3726 18.7968
-24.1735 -36.5098 26.6344
18.3300 44.3333 -18.0357
25.8138 28.9879 33.4674
34.1312 -15.5323 34.9359
43.4348 -23.5038 -13.7006
-17.2075 -34.9364 -33.3176
41.8788 29.5189 -1.2315
-19.1590 -24.7091 -40.6092
34.5444 -32.8011 18.9075
25.1770 5.9827 -44.2385
-47.5580 -1.3058 19.0591
-45.4654 11.9348 20.4248
-49.9483 5.6617 -9.9916
-49.3411 9.2277 10.3449
-48.6412 -8.3242 -13.8366
-31.8520 4.2460 -39.9266
36.9292 34.4391 -8.7691
43.4309 -7.0629 26.2791
-45.1240 14.9626 -19.1484
-2.8691 11.4859 -49.8654
25.4608 -5.7590 -44.1055
19.2959 -1.7124 47.4495
-2.2132 48.1954 -17.2923
38.2789 -0.4651 34.0767
-39.1870 -28.3724 16.9145
11.5815 49.7203 -4.5245
-14.4048 -43.2913 -23.3469
-5.8062 37.2040 34.7687
-49.3618 2.4208 13.5744
30.7505 -37.2350 17.1661
13.9743 -30.7527 -38.5448
23.4754 41.2925 19.2495
50.9466 -4.8716 -2.7251
32.5836 37.1987 13.4642
21.7639 44.6868 12.4955
25.8331 -39.4512 -20.0741
-17.3781 -45.3730 16.3098
24.2253 17.2520 41.7399
-4.6601 -49.2394 13.4343
42.2111 24.3139 -15.9303
-14.3102 49.1930 1.4074
-5.5134 47.9743 17.1693
-3.6357 32.4847 -39.4745
44.1655 25.8542 -2.7717
19.0838 36.4808 30.5233
-31.8662 40.1331 -0.7675
-22.0908 45.9835 4.9218
1.9914 40.5355 31.2989
19.5122 26.4593 39.3179
41.0984 -20.0282 23.1627
-7.0846 -45.5587 22.3815
-6.8176 -4.9604 50.5532
10.3205 -50.1213 2.8378
11.4062 49.6362 -5.7320
27.2887 -39.4464 18.0561
16.4577 -47.1776 11.4074
48.3339 -15.1992 7.7156
-46.5886 -21.2173 -2.4572
-47.9327 -4.3712 17.6086
6.0187 -41.0916 30.0328
47.1924 18.0594 -8.5701
44.1264 -25.0875 7.0850
22.0742 40.7256 21.9286
-24.8575 -12.5444 -43.0286
22.2495 -45.9110 -4.8838
-27.4804 5.4637 -42.9149
10.9949 -18.0863 46.6767
26.0084 40.8887 16.6852
-50.2238 1.2888 10.1303
3.2958 -17.0297 48.2270
-11.0634 42.8873 25.7875
-42.5293 8.7134 27.2406
-22.6521 39.9846 22.6898
29.4101 -41.6687 -5.0474
49.1191 -13.4720 5.7036
29.2719 -28.2350 -31.1875
-34.9546 -3.7765 -37.2911
9.0477 -49.8451 -7.7663
-23.8883 -27.1536 36.3146
49.4030 -13.5431 1.6246
-21.6995 -46.3991 -1.7221
-16.7247 32.3476 -36.0642
30.9117 6.8824 40.2966
-8.4199 -42.0434 28.0744
25.4123 -29.3260 -33.4801
-51.2133 -1.7473 -0.9269
-9.8642 -50.2901 -0.5591
44.1013 -11.8192 23.2829
-5.5790 16.1209 -48.3291
-40.0976 1.3020 31.8936
38.6493 21.9505 25.5171
1.2644 -5.8186 -50.9044
-49.6084 -12.8025 -1.3476
-9.5098 -2.2883 50.3095
-10.5282 -44.7350 -22.6859
4.0683 -31.8335 -39.9599
41.4621 -27.4266 -12.4655
29.9792 27.3681 31.2881
-25.5803 36.0351 25.9583
28.2565 -31.6005 -28.8044
24.1673 -16.2910 42.1575
-17.9858 -45.8499 14.1778
4.7511 -44.8027 24.4307
7.9019 20.5940 46.2619
-1.2183 47.0592 20.2649
-49.9864 -8.5540 7.4098
-16.4653 -30.2928 37.9203
10.9113 14.7529 -47.8540
-45.6489 11.6146 -20.1987
-39.5493 10.0935 30.9949
-14.5883 21.0950 44.3723
-41.3828 19.0467 23.4820
-34.5644 13.8929 35.1995
48.1790 -0.1620 17.4776
4.4041 -19.8420 -47.0490
-15.8454 -34.4581 34.4714
42.9101 -27.7042 4.2323
-38.5327 9.4026 32.4582
-13.4783 22.2554 -44.1560
-7.1672 -50.0180 8.5756
-4.3054 -44.7003 -24.6995
4.5938 15.6362 48.5913
-26.0741 15.5296 -41.2999
-26.5780 -3.6581 -43.6685
-6.9818 -35.7827 36.0217
-32.1626 13.2594 -37.6360
13.2054 -49.5181 0.5409
-12.7744 -14.7991 -47.3763
38.8599 -30.0512 14.6133
-23.5197 41.6954 18.3038
-10.5159 44.5311 23.0891
44.9525 24.6108 0.5440
33.3858 35.2832 -16.3462
-18.4011 -29.0653 37.9911
-33.3848 11.6766 -37.0921
24.5469 44.9823 -0.8686
48.7969 -0.2044 15.6696
39.1647 32.5068 6.0126
-12.9603 -43.2104 -24.3229
-48.3539 -9.3790 -14.1649
38.8543 28.7860 -16.9831
-29.2541 1.4874 -42.0559
-29.0630 -30.6139 29.0662
48.1321 10.9948 13.7525
9.5018 -42.3762 27.2156
14.3480 36.4768 33.0195
46.1215 17.4730 13.9362
51.0234 -3.1662 -3.6464
-9.4869 -45.6266 21.3290
14.0533 19.1304 45.4230
-10.3321 17.5343 47.0373
36.4723 32.7300 -15.0079
-31.6855 17.3584 36.3514
7.7764 42.7183 27.2285
18.8858 38.6360 27.8801
0.2599 -28.5608 42.5550
23.1925 -27.5970 -36.4311
10.4741 18.0817 -46.7980
48.7427 13.7587 -7.8460
11.4197 -43.5928 -24.4125
-43.6644 -0.0657 26.8353
47.1941 13.7399 14.5137
-22.8381 22.3922 40.0465
29.8536 -40.9795 -7.4937
-12.8222 17.6691 -46.3693
-16.9924 -22.6733 42.7071
-1.0873 -10.8950 50.0683
-10.8448 15.2533 47.7121
33.3877 28.7129 -26.2212
-37.8148 -26.2161 -22.5714
47.9103 2.5509 -18.0224
22.0407 -36.4484 28.5032
-5.7517 -45.1375 -23.5847
-36.9122 -34.4508 -8.7947
24.8928 -28.6928 34.4062
-39.4320 -1.7202 -32.6937
-48.8349 8.6877 12.8993
13.9798 12.8438 -47.6059
34.2480 8.9717 37.0581
9.4355 -48.8639 12.2478
2.4878 -28.0358 -42.8313
-40.2505 -31.2148 -5.6789
32.3095 31.3812 -24.4547
35.8344 9.5426 -35.3773
-47.2838 4.4346 -19.2689
-12.9019 46.9600 15.9691
-19.2147 -30.5111 36.4223
-11.6880 -39.6355 30.3172
-26.5981 32.5955 -29.2710
48.8947 -15.1125 2.7626
-38.6514 -20.8097 -26.4527
-42.7759 17.4308 22.2060
41.3425 -13.6346 -27.0483
45.0436 2.1491 24.3551
45.6130 -17.7795 -15.1676
-28.1596 -41.4254 -10.8482
46.4185 -12.5782 -17.7152
23.3948 -39.2940 -23.1382
26.3332 0.2055 -43.9685
1.0160 50.1626 -10.4591
-17.1290 34.6313 33.6746
36.6853 22.7698 -27.6123
-45.5235 23.3830 -2.7487
-43.1919 -15.0993 -23.0907
-0.5972 -48.9066 -15.3136
1.7581 26.2899 43.9598
25.2705 40.2056 19.2775
-38.0352 -31.0826 14.6258
12.8218 40.6289 28.4888
-35.4926 -7.5398 -36.1958
9.3708 11.9213 -48.9570
-38.6303 9.7257 32.2463
11.4909 3.2139 49.8432
49.3179 13.8987 -1.1316
31.9146 -37.3626 14.5674
-9.9452 20.5611 -45.8808
11.6650 -43.0986 -25.1626
-30.5328 40.3541 -8.1246
-39.9722 26.4495 18.1482
28.3213 -8.3883 -41.8838
4.5507 50.5282 7.2736
24.1934 -15.3286 42.5021
26.3839 -2.7808 43.8505
49.9080 3.7662 -11.0328
21.8066 46.3320 -2.1274
-10.9473 42.0800 -27.1320
4.0513 51.0803 1.0514
-46.8324 20.8064 0.7326
0.8208 -23.8032 45.3812
29.2273 40.9908 9.6036
49.2806 8.5838 -11.1561
33.9676 0.4160 38.3763
-4.0682 -9.3765 -50.2220
-31.3083 13.6904 38.1979
-38.0256 -22.7191 -25.7800
33.4181 -17.1287 -34.8791
-14.3037 -17.0897 46.1526
10.4820 14.3348 48.0766
-3.9135 32.9549 39.0560
-41.5524 28.9944 7.7091
-9.8530 7.3456 49.7562
45.4272 -0.9000 -23.7123
-0.1201 9.3790 50.3859
-29.7474 -40.1976 11.2232
29.3648 6.1924 41.5461
-46.2976 14.8504 16.2083
-28.9668 -15.9947 39.1383
-43.7926 15.6119 -21.5682
-11.6100 -49.8425 -2.7652
-49.7333 -6.5937 10.4804
-48.5365 15.7229 4.8691
9.0542 -46.7869 18.8607
16.9212 47.0507 -11.2522
50.9974 -1.8257 -4.7592
46.0221 -2.8771 22.3697
-9.1501 -50.0332 -6.2986
9.1260 -49.6368 8.9228
-42.0511 4.8077 -28.9016
35.4144 36.8030 4.2516
-21.0065 44.2454 15.0925
-48.4985 -13.9798 8.8982
34.2176 -37.7936 5.2454
-19.6103 -33.2603 -33.7032
15.3421 -47.9165 -9.7645
26.8260 -36.3832 24.1525
36.7362 -35.7364 0.2636
40.7790 23.3472 20.4620
-17.2660 -19.9267 -43.9491
1.7616 39.5168 32.5889
-3.8391 50.1369 9.9130
2.2613 30.9404 -40.7957
-17.5036 41.3852 24.6496
